<svg width="257" height="257" viewBox="0 0 257 257" fill="none" xmlns="http://www.w3.org/2000/svg">
<path d="M129.525 48.915C142.553 48.5273 153.023 37.9026 153.023 24.7187C153.023 11.3798 142.243 0.600098 128.904 0.600098C115.565 0.600098 104.708 11.3798 104.708 24.7187C104.708 37.9026 115.177 48.5273 128.206 48.915V100.1H129.525V48.915Z" fill="#C38310"/>
<path d="M89.5075 58.9967C100.675 52.1721 104.398 37.67 97.8056 26.3473C91.1361 14.7921 76.4012 10.8368 64.8459 17.5063C53.2906 24.1758 49.3355 38.9107 56.005 50.466C62.5194 61.8662 76.9441 65.8989 88.4218 59.6172L114.014 103.977L115.1 103.279L89.5075 58.9967Z" fill="#C38310"/>
<path d="M59.9601 87.6911C66.1643 76.2909 62.1316 61.8663 50.809 55.2744C39.2537 48.6049 24.4412 52.56 17.7717 64.1153C11.1022 75.6706 15.0574 90.4831 26.6127 97.1526C38.0128 103.745 52.4375 99.9444 59.2622 88.8544L103.622 114.447L104.242 113.283L59.9601 87.6911Z" fill="#C38310"/>
<path d="M48.7151 127.398C48.3274 114.369 37.6251 103.9 24.5188 103.9C11.1798 103.9 0.400024 114.679 0.400024 128.096C0.400024 141.435 11.1798 152.215 24.5188 152.215C37.6251 152.215 48.3274 141.745 48.7151 128.716H99.8221V127.398H48.7151Z" fill="#C38310"/>
<path d="M58.7969 167.415C51.9723 156.325 37.47 152.525 26.0698 159.117C14.5145 165.786 10.5593 180.599 17.2288 192.154C23.8983 203.71 38.7108 207.665 50.2661 200.995C61.6663 194.403 65.6215 179.978 59.4173 168.578L103.777 142.986L103.079 141.823L58.7969 167.415Z" fill="#C38310"/>
<path d="M87.4913 197.04C76.0135 190.758 61.6664 194.791 55.0744 206.191C48.4049 217.746 52.3601 232.481 63.9154 239.151C75.4707 245.82 90.2832 241.865 96.9527 230.31C103.467 218.987 99.7446 204.485 88.6546 197.66L114.247 153.301L113.084 152.68L87.4913 197.04Z" fill="#C38310"/>
<path d="M127.198 208.285C114.169 208.595 103.7 219.297 103.7 232.404C103.7 245.743 114.479 256.6 127.818 256.6C141.157 256.6 152.015 245.743 152.015 232.404C152.015 219.297 141.545 208.595 128.516 208.285V157.1H127.198V208.285Z" fill="#C38310"/>
<path d="M167.215 198.203C156.047 205.028 152.325 219.453 158.917 230.853C165.586 242.408 180.321 246.363 191.954 239.694C203.509 233.024 207.465 218.212 200.795 206.656C194.203 195.334 179.778 191.301 168.301 197.505L142.708 153.223L141.623 153.843L167.215 198.203Z" fill="#C38310"/>
<path d="M196.762 169.431C190.558 180.909 194.591 195.334 205.914 201.848C217.469 208.518 232.281 204.563 238.951 193.007C245.62 181.452 241.665 166.717 230.11 160.047C218.71 153.456 204.285 157.178 197.46 168.346L153.1 142.753L152.48 143.839L196.762 169.431Z" fill="#C38310"/>
<path d="M208.085 129.725C208.395 142.831 219.098 153.301 232.204 153.301C245.543 153.301 256.4 142.443 256.4 129.104C256.4 115.765 245.543 104.908 232.204 104.908C219.098 104.908 208.395 115.377 208.085 128.484H156.901V129.725H208.085Z" fill="#C38310"/>
<path d="M197.926 89.7852C204.75 100.875 219.253 104.598 230.653 98.0056C242.208 91.3361 246.163 76.6012 239.494 65.0459C232.824 53.4906 218.012 49.5355 206.456 56.205C195.134 62.7194 191.101 77.1441 197.305 88.6219L153.023 114.214L153.643 115.377L197.926 89.7852Z" fill="#C38310"/>
<path d="M169.231 60.1601C180.709 66.3643 195.134 62.3317 201.648 51.0091C208.318 39.4538 204.363 24.6412 192.807 17.9717C181.252 11.3022 166.44 15.2573 159.77 26.8126C153.256 38.2128 156.978 52.7152 168.068 59.5398L142.476 103.822L143.639 104.443L169.231 60.1601Z" fill="#C38310"/>
</svg>
