<svg width="257" height="257" viewBox="0 0 257 257" fill="none" xmlns="http://www.w3.org/2000/svg">
<path d="M252.506 161.818L201.821 146.509C201.872 145.095 201.897 143.705 201.897 142.341C201.897 138.325 201.594 134.384 200.988 130.519L256.9 128.7L200.306 126.881C199.245 121.955 197.654 117.256 195.684 112.785L252.506 95.5822L194.018 109.299C191.896 105.131 189.472 101.266 186.669 97.6283L239.778 64.6621L184.093 94.5212C181.29 91.2624 178.259 88.3069 174.925 85.6544L219.398 38.2133L171.592 83.0777C168.359 80.7032 164.925 78.6317 161.288 76.8633L192.881 17.8273L157.424 75.0446C153.889 73.5794 150.252 72.3668 146.515 71.4069L162.046 5.01972L142.196 70.4975C138.61 69.8407 134.923 69.4618 131.135 69.3608L128.938 0.699951L126.741 69.3608C122.953 69.4618 119.24 69.8407 115.604 70.4975L95.7541 5.01972L111.285 71.4069C107.548 72.3668 103.936 73.5794 100.451 75.0446L64.919 17.8273L96.5118 76.8633C92.9257 78.6317 89.4911 80.7032 86.2081 83.0777L38.4022 38.2133L82.8746 85.6544C79.6168 88.3069 76.5106 91.2624 73.7074 94.5212L18.098 64.6621L71.1315 97.6283C68.3283 101.266 65.9039 105.131 63.7825 109.299L5.29424 95.5822L62.1158 112.785C60.146 117.256 58.555 121.955 57.5701 126.881L0.900024 128.7L56.8882 130.519C56.2063 134.384 55.9033 138.325 55.9033 142.341C55.9033 143.705 55.9285 145.095 55.9791 146.509L5.29424 161.818L56.2821 149.92C56.8882 155.755 58.1761 161.287 60.0702 166.668L18.098 192.738L61.2066 169.624C63.4795 175.307 66.4342 180.612 70.0708 185.538L38.4022 219.262L71.8133 187.888C75.8287 192.814 80.4502 197.285 85.5263 201.074L64.919 239.573L87.7991 202.666C93.1782 206.379 99.0877 209.335 105.376 211.457L95.7541 252.38L107.876 212.29C114.164 214.185 120.756 215.17 127.574 215.322L128.938 256.7L130.226 215.322C137.044 215.17 143.636 214.185 149.924 212.29L162.046 252.38L152.5 211.457C158.712 209.335 164.622 206.379 170.001 202.666L192.881 239.573L172.274 201.074C177.426 197.285 181.971 192.814 185.987 187.888L219.398 219.262L187.805 185.538C191.366 180.612 194.321 175.307 196.669 169.624L239.778 192.738L197.73 166.668C199.624 161.287 200.912 155.755 201.518 149.92L252.506 161.818Z" fill="#D5451B"/>
</svg>
