<svg width="257" height="257" viewBox="0 0 257 257" fill="none" xmlns="http://www.w3.org/2000/svg">
<path d="M138.778 57.508C138.778 26.1534 134.313 0.800049 128.777 0.800049C123.287 0.800049 118.821 26.1534 118.821 57.508C118.821 88.816 128.777 114.216 128.777 114.216C128.777 114.216 138.778 88.816 138.778 57.508Z" fill="#93278F"/>
<path d="M121.52 116.17C121.52 116.17 117.426 89.1881 101.795 62.0669C86.1178 34.9457 69.5567 15.1747 64.8116 17.9194C60.0201 20.6641 68.8589 44.901 84.5362 72.0222C100.167 99.1434 121.52 116.17 121.52 116.17Z" fill="#93278F"/>
<path d="M62.0669 101.749C89.1881 117.426 116.17 121.473 116.17 121.473C116.17 121.473 99.1899 100.167 72.0222 84.4896C44.901 68.8589 20.7106 60.0201 17.9659 64.7651C15.1747 69.5567 34.9457 86.1179 62.0669 101.749Z" fill="#93278F"/>
<path d="M114.216 128.777C114.216 128.777 88.816 118.821 57.508 118.821C26.2 118.821 0.800049 123.287 0.800049 128.777C0.800049 134.266 26.2 138.732 57.508 138.732C88.816 138.732 114.216 128.777 114.216 128.777Z" fill="#93278F"/>
<path d="M116.17 136.08C116.17 136.08 89.1881 140.128 62.0669 155.805C34.9457 171.436 15.1747 187.997 17.9659 192.788C20.7106 197.533 44.901 188.695 72.0222 173.064C99.1899 157.387 116.17 136.08 116.17 136.08Z" fill="#93278F"/>
<path d="M84.5362 185.531C68.8589 212.652 60.0201 236.889 64.8116 239.634C69.5567 242.379 86.1178 222.608 101.795 195.487C117.426 168.365 121.52 141.384 121.52 141.384C121.52 141.384 100.167 158.41 84.5362 185.531Z" fill="#93278F"/>
<path d="M118.821 200.046C118.821 231.4 123.287 256.753 128.777 256.753C134.313 256.753 138.778 231.4 138.778 200.046C138.778 168.738 128.777 143.338 128.777 143.338C128.777 143.338 118.821 168.738 118.821 200.046Z" fill="#93278F"/>
<path d="M136.08 141.384C136.08 141.384 140.128 168.365 155.805 195.487C171.482 222.608 188.043 242.379 192.788 239.634C197.533 236.889 188.741 212.652 173.064 185.531C157.387 158.41 136.08 141.384 136.08 141.384Z" fill="#93278F"/>
<path d="M195.487 155.805C168.365 140.128 141.384 136.08 141.384 136.08C141.384 136.08 158.41 157.387 185.531 173.064C212.652 188.695 236.889 197.533 239.634 192.788C242.379 187.997 222.608 171.436 195.487 155.805Z" fill="#93278F"/>
<path d="M200.092 118.821C168.737 118.821 143.338 128.777 143.338 128.777C143.338 128.777 168.737 138.732 200.092 138.732C231.4 138.732 256.8 134.266 256.8 128.777C256.8 123.287 231.4 118.821 200.092 118.821Z" fill="#93278F"/>
<path d="M141.384 121.473C141.384 121.473 168.365 117.426 195.487 101.749C222.608 86.1179 242.379 69.5567 239.634 64.7651C236.889 60.0201 212.652 68.8589 185.531 84.4896C158.41 100.167 141.384 121.473 141.384 121.473Z" fill="#93278F"/>
<path d="M173.064 72.0222C188.741 44.901 197.533 20.6641 192.788 17.9194C188.043 15.1747 171.482 34.9457 155.805 62.0669C140.128 89.1881 136.08 116.17 136.08 116.17C136.08 116.17 157.387 99.1434 173.064 72.0222Z" fill="#93278F"/>
</svg>
