<svg width="214" height="256" viewBox="0 0 214 256" fill="none" xmlns="http://www.w3.org/2000/svg">
<path d="M204.021 215.589C204.021 235.437 200.637 245.848 196.927 256H206.559C210.073 246.239 213.066 234.916 213.066 215.589C213.066 192.683 208.771 181.035 204.606 169.777C200.572 158.78 196.732 148.433 196.732 127.089C196.732 105.81 200.572 95.3981 204.606 84.4657C208.771 73.208 213.066 61.5598 213.066 38.5887C213.066 20.4983 210.398 9.37061 207.209 0H197.578C201.027 9.63091 204.021 19.9126 204.021 38.5887C204.021 59.9329 200.181 70.2796 196.082 81.2771C191.917 92.5348 187.622 104.183 187.622 127.089C187.622 150.06 191.917 161.708 196.082 172.901C200.181 183.898 204.021 194.31 204.021 215.589Z" fill="black"/>
<path d="M157.232 215.589C157.232 235.437 153.913 245.848 150.139 256H159.835C163.284 246.239 166.342 234.916 166.342 215.589C166.342 192.683 162.048 181.035 157.883 169.777C153.783 158.78 149.944 148.433 149.944 127.089C149.944 105.81 153.783 95.3981 157.883 84.4657C162.048 73.208 166.342 61.5598 166.342 38.5887C166.342 20.4983 163.61 9.37061 160.421 0H150.79C154.304 9.63091 157.232 19.9126 157.232 38.5887C157.232 59.9329 153.393 70.2796 149.359 81.2771C145.194 92.5348 140.899 104.183 140.899 127.089C140.899 150.06 145.194 161.708 149.359 172.901C153.393 183.898 157.232 194.31 157.232 215.589Z" fill="black"/>
<path d="M110.444 215.589C110.444 235.437 107.126 245.848 103.417 256H113.047C116.496 246.239 119.555 234.916 119.555 215.589C119.555 192.683 115.26 181.035 111.095 169.777C107.061 158.78 103.221 148.433 103.221 127.089C103.221 105.81 107.061 95.3981 111.095 84.4657C115.26 73.208 119.555 61.5598 119.555 38.5887C119.555 20.4983 116.887 9.37061 113.698 0H104.067C107.516 9.63091 110.444 19.9126 110.444 38.5887C110.444 59.9329 106.605 70.2796 102.57 81.2771C98.4057 92.5348 94.1108 104.183 94.1108 127.089C94.1108 150.06 98.4057 161.708 102.57 172.901C106.605 183.898 110.444 194.31 110.444 215.589Z" fill="black"/>
<path d="M63.7215 215.589C63.7215 235.437 60.4028 245.848 56.6285 256H66.3244C69.7733 246.239 72.8318 234.916 72.8318 215.589C72.8318 192.683 68.4718 181.035 64.3071 169.777C60.2725 158.78 56.4331 148.433 56.4331 127.089C56.4331 105.81 60.2725 95.3981 64.3071 84.4657C68.4718 73.208 72.8318 61.5598 72.8318 38.5887C72.8318 20.4983 70.0986 9.37061 66.91 0H57.2792C60.7281 9.63091 63.7215 19.9126 63.7215 38.5887C63.7215 59.9329 59.882 70.2796 55.7823 81.2771C51.6176 92.5348 47.3228 104.183 47.3228 127.089C47.3228 150.06 51.6176 161.708 55.7823 172.901C59.882 183.898 63.7215 194.31 63.7215 215.589Z" fill="black"/>
<path d="M16.9337 215.589C16.9337 235.437 13.6147 245.848 9.84037 256H19.5366C22.9855 246.239 26.044 234.916 26.044 215.589C26.044 192.683 21.7491 181.035 17.5844 169.777C13.4848 158.78 9.64528 148.433 9.64528 127.089C9.64528 105.81 13.4848 95.3981 17.5844 84.4657C21.7491 73.208 26.044 61.5598 26.044 38.5887C26.044 20.4983 23.376 9.37061 20.1873 0H10.5562C14.0052 9.63091 16.9337 19.9126 16.9337 38.5887C16.9337 59.9329 13.0943 70.2796 9.05968 81.2771C4.89496 92.5348 0.600098 104.183 0.600098 127.089C0.600098 150.06 4.89496 161.708 9.05968 172.901C13.0943 183.898 16.9337 194.31 16.9337 215.589Z" fill="black"/>
</svg>
