<svg width="257" height="234" viewBox="0 0 257 234" fill="none" xmlns="http://www.w3.org/2000/svg">
<path d="M37.8534 52.5953C49.9033 52.5953 56.0487 49.5828 61.9532 46.6908C67.4359 43.9193 72.6776 41.3286 83.3417 41.3286C93.9456 41.3286 99.1876 43.9193 104.67 46.6908C110.575 49.5828 116.72 52.5953 128.83 52.5953C140.94 52.5953 147.025 49.5828 152.93 46.6908C158.473 43.9193 163.654 41.3286 174.318 41.3286C184.982 41.3286 190.164 43.9193 195.707 46.6908C201.611 49.5828 207.697 52.5953 219.807 52.5953C222.458 52.5953 224.868 52.4747 226.977 52.1735C229.507 51.8722 231.736 51.4505 233.724 50.848C232.399 49.0405 231.053 47.2531 229.688 45.4858C227.519 45.9075 225.169 46.2088 222.337 46.3293C221.534 46.3695 220.69 46.3895 219.807 46.3895C209.142 46.3895 203.961 43.7989 198.418 41.0876C192.514 38.1957 186.428 35.1229 174.318 35.1229C162.208 35.1229 156.123 38.1957 150.159 41.0876C144.676 43.7989 139.494 46.3895 128.83 46.3895C118.166 46.3895 112.984 43.7989 107.441 41.0876C101.537 38.1957 95.4519 35.1229 83.3417 35.1229C71.2316 35.1229 65.0864 38.1957 59.1819 41.0876C53.6992 43.7989 48.4573 46.3895 37.8534 46.3895C36.9296 46.3895 36.0661 46.3695 35.2628 46.3293C32.4913 46.2088 30.0813 45.9075 27.9726 45.4858C26.6069 47.2531 25.2615 49.0405 23.936 50.848C25.9243 51.4505 28.1533 51.8722 30.6235 52.1735C32.7925 52.4747 35.1422 52.5953 37.8534 52.5953Z" fill="#3ED6A5"/>
<path d="M13.6934 118.99C19.5979 121.882 25.7431 124.895 37.8532 124.895C49.9031 124.895 56.0485 121.882 61.953 118.99C67.4357 116.279 72.6774 113.688 83.3415 113.688C93.9454 113.688 99.1873 116.279 104.67 118.99C110.574 121.882 116.72 124.895 128.83 124.895C140.94 124.895 147.025 121.882 152.93 118.99C158.473 116.279 163.654 113.688 174.318 113.688C184.982 113.688 190.164 116.279 195.707 118.99C201.611 121.882 207.696 124.895 219.806 124.895C231.917 124.895 238.002 121.882 243.967 118.99C246.135 117.906 248.244 116.821 250.715 115.978C252.522 115.315 254.51 114.712 256.8 114.351C256.639 112.262 256.418 110.194 256.137 108.145C253.908 108.507 251.92 109.049 250.112 109.591C246.678 110.676 243.906 112.061 241.195 113.387C235.652 116.158 230.471 118.689 219.806 118.689C209.142 118.689 203.961 116.158 198.418 113.387C192.513 110.495 186.428 107.482 174.318 107.482C162.208 107.482 156.123 110.495 150.158 113.387C144.676 116.158 139.494 118.689 128.83 118.689C118.166 118.689 112.984 116.158 107.441 113.387C101.537 110.495 95.4516 107.482 83.3415 107.482C71.2314 107.482 65.0862 110.495 59.1817 113.387C53.699 116.158 48.4571 118.689 37.8532 118.689C27.189 118.689 21.9474 116.158 16.4647 113.387C13.6932 112.061 10.9218 110.676 7.54786 109.591C5.74037 109.049 3.75208 108.507 1.46261 108.145C1.22161 110.194 1.00064 112.262 0.799805 114.351C3.14953 114.712 5.13788 115.315 6.94536 115.978C9.35534 116.821 11.5244 117.906 13.6934 118.99Z" fill="#3ED6A5"/>
<path d="M198.418 221.896C192.513 218.944 186.428 215.931 174.318 215.931C162.208 215.931 156.123 218.944 150.158 221.896C144.676 224.607 139.494 227.198 128.83 227.198C118.166 227.198 112.984 224.607 107.441 221.896C101.537 218.944 95.4516 215.931 83.3414 215.931C71.2313 215.931 65.0861 218.944 59.1817 221.896C58.2578 222.378 57.3138 222.84 56.3498 223.282C54.2411 224.246 52.0722 225.15 49.4814 225.812C51.4496 227.379 53.478 228.885 55.5667 230.331C57.8562 229.488 59.9044 228.463 61.9529 227.439C62.0332 227.399 62.1138 227.359 62.1941 227.319C67.6166 224.668 72.7978 222.137 83.3414 222.137C93.9453 222.137 99.1873 224.728 104.67 227.439C110.574 230.391 116.72 233.404 128.83 233.404C140.94 233.404 147.025 230.391 152.93 227.439C158.472 224.728 163.654 222.137 174.318 222.137C184.801 222.137 190.043 224.668 195.466 227.319C195.546 227.359 195.626 227.399 195.707 227.439C197.695 228.463 199.743 229.488 202.093 230.391C204.182 228.905 206.21 227.379 208.178 225.812C205.588 225.15 203.419 224.246 201.31 223.282C200.346 222.84 199.382 222.378 198.418 221.896Z" fill="#3ED6A5"/>
<path d="M96.5363 7.04671C99.609 8.0107 102.14 9.21566 104.67 10.4809C110.574 13.4331 116.72 16.4456 128.83 16.4456C140.94 16.4456 147.025 13.4331 152.93 10.4809C155.52 9.21566 158.051 8.0107 161.063 7.04671C164.497 5.90197 168.655 5.17892 174.318 5.17892C174.68 5.17892 175.021 5.19906 175.342 5.23922C170.683 3.39158 165.903 1.84513 161.003 0.599976C156.966 1.62422 153.773 3.19073 150.7 4.69697C150.54 4.7773 150.359 4.85765 150.158 4.93798C144.676 7.6492 139.494 10.2399 128.83 10.2399C118.166 10.2399 112.984 7.6492 107.441 4.93798C107.24 4.85765 107.06 4.7773 106.899 4.69697C103.826 3.19073 100.693 1.62422 96.6566 0.599976C91.7563 1.84513 86.9767 3.39158 82.3174 5.23922C82.6387 5.19906 82.9799 5.17892 83.3414 5.17892C89.0049 5.17892 93.1021 5.96222 96.5363 7.04671Z" fill="#3ED6A5"/>
<path d="M13.9945 82.961C19.8387 85.8529 25.9236 88.7449 37.853 88.7449C49.9029 88.7449 56.0483 85.7324 61.9528 82.8404C67.4355 80.0689 72.6772 77.5385 83.3413 77.5385C93.9452 77.5385 99.1872 80.0689 104.67 82.8404C110.574 85.7324 116.719 88.7449 128.83 88.7449C140.94 88.7449 147.025 85.7324 152.929 82.8404C158.472 80.0689 163.654 77.5385 174.318 77.5385C184.982 77.5385 190.164 80.0689 195.706 82.8404C201.611 85.7324 207.696 88.7449 219.806 88.7449C231.675 88.7449 237.821 85.8529 243.605 82.961C243.725 82.9208 243.846 82.8806 243.966 82.8404C245.714 81.9367 247.401 81.0932 249.268 80.3702C248.545 78.4021 247.782 76.4741 246.979 74.5863C244.93 75.3695 243.123 76.2732 241.315 77.177C241.275 77.2171 241.235 77.2373 241.195 77.2373C235.652 80.0087 230.47 82.5392 219.806 82.5392C209.142 82.5392 203.961 80.0087 198.418 77.2373C192.513 74.3453 186.428 71.3328 174.318 71.3328C162.208 71.3328 156.123 74.3453 150.158 77.2373C144.675 80.0087 139.494 82.5392 128.83 82.5392C118.165 82.5392 112.984 80.0087 107.441 77.2373C101.537 74.3453 95.4515 71.3328 83.3413 71.3328C71.2312 71.3328 65.086 74.3453 59.1815 77.2373C53.6988 80.0087 48.4569 82.5392 37.853 82.5392C27.1889 82.5392 21.9472 80.0087 16.4645 77.2373C16.4243 77.2373 16.3642 77.2171 16.2838 77.177C14.4764 76.2732 12.669 75.3695 10.6808 74.5863C9.87744 76.4741 9.11411 78.4021 8.39111 80.3702C10.2588 81.0932 11.946 81.9367 13.6932 82.8404C13.8137 82.8806 13.9142 82.9208 13.9945 82.961Z" fill="#3ED6A5"/>
<path d="M249.208 146.042C246.196 147.066 243.665 148.332 241.195 149.597C235.652 152.308 230.47 154.899 219.806 154.899C209.142 154.899 203.961 152.308 198.418 149.597C192.513 146.645 186.428 143.632 174.318 143.632C162.208 143.632 156.123 146.645 150.158 149.597C144.675 152.308 139.494 154.899 128.83 154.899C118.165 154.899 112.984 152.308 107.441 149.597C101.537 146.645 95.4514 143.632 83.3413 143.632C71.2312 143.632 65.086 146.645 59.1815 149.597C53.6988 152.308 48.4569 154.899 37.853 154.899C27.1889 154.899 21.9472 152.308 16.4645 149.597C13.934 148.332 11.4036 147.066 8.4514 146.042C6.46317 145.379 4.3545 144.777 1.88428 144.355C2.20561 146.564 2.58713 148.773 3.02896 150.982C5.67993 151.585 7.84891 152.428 9.95764 153.332C11.2229 153.935 12.428 154.537 13.6932 155.14C19.5977 158.032 25.7429 161.104 37.853 161.104C49.9029 161.104 56.0483 158.032 61.9528 155.14C67.4355 152.428 72.6772 149.838 83.3413 149.838C93.9452 149.838 99.1871 152.428 104.67 155.14C110.574 158.032 116.719 161.104 128.83 161.104C140.94 161.104 147.025 158.032 152.929 155.14C158.472 152.428 163.654 149.838 174.318 149.838C184.982 149.838 190.164 152.428 195.706 155.14C201.611 158.032 207.696 161.104 219.806 161.104C231.916 161.104 238.002 158.032 243.966 155.14C245.171 154.537 246.437 153.935 247.702 153.332C249.75 152.428 251.98 151.585 254.57 150.982C255.052 148.773 255.454 146.564 255.775 144.355C253.305 144.777 251.136 145.379 249.208 146.042Z" fill="#3ED6A5"/>
<path d="M232.64 189.361C229.266 190.386 225.289 191.048 219.806 191.048C209.142 191.048 203.961 188.458 198.418 185.746C192.513 182.794 186.428 179.782 174.318 179.782C162.208 179.782 156.123 182.794 150.158 185.746C144.675 188.458 139.494 191.048 128.83 191.048C118.166 191.048 112.984 188.458 107.441 185.746C101.537 182.794 95.4515 179.782 83.3413 179.782C71.2312 179.782 65.086 182.794 59.1816 185.746C53.6989 188.458 48.4569 191.048 37.853 191.048C32.3703 191.048 28.3337 190.386 25.02 189.361C21.7666 188.337 19.1757 187.072 16.4645 185.746C16.1432 185.586 15.8019 185.425 15.4404 185.264C17.1676 188.438 18.9952 191.53 20.9232 194.543C23.5139 195.507 26.4059 196.29 29.9606 196.772C32.3103 197.073 34.9008 197.254 37.853 197.254C49.9029 197.254 56.0484 194.242 61.9528 191.289C67.4355 188.578 72.6772 185.987 83.3413 185.987C93.9452 185.987 99.1872 188.578 104.67 191.289C110.574 194.242 116.72 197.254 128.83 197.254C140.94 197.254 147.025 194.242 152.929 191.289C158.472 188.578 163.654 185.987 174.318 185.987C184.982 185.987 190.164 188.578 195.706 191.289C201.611 194.242 207.696 197.254 219.806 197.254C222.758 197.254 225.349 197.073 227.639 196.772C231.193 196.29 234.146 195.507 236.676 194.543C238.644 191.53 240.472 188.438 242.159 185.264C241.838 185.425 241.516 185.586 241.195 185.746C238.484 187.072 235.893 188.337 232.64 189.361Z" fill="#3ED6A5"/>
</svg>
