<svg width="257" height="223" viewBox="0 0 257 223" fill="none" xmlns="http://www.w3.org/2000/svg">
<path fill-rule="evenodd" clip-rule="evenodd" d="M192.086 222.9C189.857 222.442 187.627 221.813 185.456 221.069C181.055 219.638 176.768 217.749 172.767 215.403C162.651 209.565 154.192 201.152 148.362 191.079L147.904 190.335L147.104 190.507C140.931 191.995 134.53 192.796 128.129 192.796C121.67 192.796 115.269 191.995 109.096 190.507L108.296 190.335L107.838 191.079C102.008 201.152 93.5494 209.565 83.4329 215.403C79.432 217.692 75.1453 219.638 70.7443 221.069C68.5724 221.813 66.3433 222.385 64.1143 222.9C63.4284 220.725 62.8568 218.493 62.3424 216.204C61.428 211.683 60.9136 207.047 60.9136 202.354C60.9136 190.679 64 179.118 69.7727 168.988L70.2299 168.244L69.6012 167.672C60.7992 158.343 54.2264 147.011 50.6255 134.764L50.3969 133.963H49.5396C37.937 133.905 26.4487 130.815 16.275 124.92C12.217 122.574 8.44468 119.827 5.01534 116.793C3.30068 115.248 1.64318 113.646 0.0999756 111.929C1.64318 110.212 3.30068 108.552 5.01534 107.064C8.44468 103.973 12.217 101.226 16.275 98.8799C26.3916 93.0423 37.937 89.8946 49.5396 89.8374H50.3969L50.6255 89.0361C54.2264 76.8459 60.7992 65.4569 69.6012 56.1854L70.2299 55.5559L69.7727 54.8118C64 44.6819 60.9136 33.1212 60.9136 21.4461C60.9136 16.7531 61.428 12.1173 62.3424 7.59605C62.7997 5.36403 63.4284 3.13204 64.1143 0.900024C66.3433 1.41511 68.5724 2.04462 70.7443 2.7314C75.1453 4.16218 79.432 6.10805 83.4329 8.3973C93.5494 14.2349 102.008 22.7051 107.838 32.7778L108.296 33.5218L109.096 33.2929C115.269 31.8049 121.67 31.0036 128.129 31.0036C134.53 31.0036 140.931 31.8049 147.047 33.2929L147.904 33.4646L148.304 32.7206C154.134 22.7051 162.593 14.2921 172.767 8.3973C176.825 6.05082 181.055 4.16218 185.456 2.7314C187.57 1.98739 189.799 1.41511 192.086 0.900024C192.772 3.13204 193.4 5.36405 193.858 7.53883C194.772 12.1173 195.286 16.7531 195.286 21.4461C195.286 33.1212 192.2 44.6819 186.427 54.8118L185.97 55.5559L186.599 56.1854C195.401 65.4569 201.974 76.8459 205.574 89.0361L205.803 89.8374H206.66C218.263 89.8946 229.808 93.0423 239.925 98.8799C243.983 101.226 247.755 103.973 251.185 107.064C252.899 108.609 254.557 110.212 256.1 111.929C254.557 113.646 252.899 115.248 251.185 116.793C247.755 119.827 243.983 122.574 239.925 124.92C234.838 127.896 229.351 130.185 223.693 131.673C218.149 133.161 212.433 133.963 206.66 133.963H205.803L205.574 134.764C201.974 147.011 195.401 158.343 186.599 167.615L185.97 168.244L186.427 168.988C192.2 179.118 195.286 190.679 195.286 202.354C195.286 207.047 194.772 211.683 193.858 216.261C193.4 218.436 192.772 220.668 192.086 222.9ZM180.655 173.28C172.996 179.862 164.365 184.841 154.935 188.218L153.563 188.676L154.363 189.878C159.621 198.291 166.994 205.444 175.625 210.424C179.168 212.484 182.941 214.201 186.827 215.517L188.085 215.918L188.313 214.659C189.114 210.595 189.571 206.475 189.571 202.354C189.571 192.339 187.056 182.38 182.426 173.624L181.74 172.365L180.655 173.28ZM73.7736 173.567C69.144 182.38 66.6291 192.339 66.6291 202.354C66.6291 206.475 67.0292 210.595 67.8865 214.601L68.1152 215.918L69.3726 215.46C73.202 214.201 76.9743 212.484 80.5751 210.424C89.2628 205.387 96.5786 198.291 101.837 189.878L102.637 188.618L101.265 188.161C91.8347 184.841 83.2042 179.805 75.5454 173.28L74.4594 172.308L73.7736 173.567ZM128.071 140.83C124.185 140.83 120.241 141.174 116.469 141.918L115.326 142.147L115.611 143.291C118.412 156.912 117.04 170.934 111.496 183.754L110.925 185.07L112.296 185.356C117.44 186.444 122.756 187.016 128.071 187.016C133.387 187.016 138.702 186.444 143.903 185.356L145.218 185.07L144.704 183.754C141.046 175.284 139.16 166.241 139.16 157.027C139.16 152.391 139.617 147.755 140.588 143.291L140.817 142.147L139.674 141.918C135.902 141.174 132.015 140.83 128.071 140.83ZM108.581 144.035C96.4644 148.099 85.6619 156.111 78.1174 166.527L77.5458 167.386L78.2889 168.072C85.9477 174.883 94.6925 179.977 104.352 183.182L105.323 183.525L105.781 182.552C111.096 170.82 112.582 157.427 110.067 144.894L109.782 143.577L108.581 144.035ZM146.133 144.894C143.618 157.485 145.104 170.877 150.419 182.609L150.876 183.525L151.848 183.239C161.507 179.977 170.252 174.94 177.911 168.13L178.654 167.443L178.083 166.584C170.538 156.111 159.736 148.156 147.619 144.035L146.418 143.635L146.133 144.894ZM159.85 116.908C157.335 119.827 155.049 123.031 153.106 126.408C151.162 129.785 149.505 133.333 148.247 136.996L147.904 138.083L148.99 138.484C162.193 142.776 173.567 151.018 181.969 162.235L182.769 163.322L183.684 162.292C190.885 154.337 196.201 145.18 199.516 134.993L199.916 133.677L198.544 133.505C195.344 133.104 192.086 132.475 188.942 131.673C178.597 128.869 169.338 123.89 161.45 116.793L160.593 115.992L159.85 116.908ZM94.6925 116.793C86.8622 123.89 77.603 128.926 67.2578 131.673C64.0571 132.532 60.8564 133.161 57.5985 133.562L56.2268 133.734L56.684 135.05C59.9419 145.18 65.2574 154.394 72.459 162.349L73.4307 163.38L74.2308 162.292C82.6327 151.018 94.0067 142.834 107.21 138.484L108.296 138.14L107.895 137.053C106.638 133.333 105.038 129.785 103.094 126.408C101.094 123.031 98.8649 119.827 96.35 116.908L95.5498 116.049L94.6925 116.793ZM128.129 135.107C132.587 135.107 137.045 135.565 141.389 136.424L142.36 136.653L142.703 135.68C144.075 131.502 145.961 127.381 148.19 123.547C150.419 119.655 153.048 115.992 155.963 112.673L156.592 111.929L155.963 111.185C153.048 107.865 150.419 104.202 148.19 100.311C145.961 96.4189 144.075 92.3556 142.646 88.1205L142.36 87.2047L141.389 87.3764C137.045 88.2349 132.587 88.6928 128.129 88.6928C123.613 88.6928 119.155 88.2349 114.868 87.3764L113.84 87.1475L113.554 88.1205C112.125 92.3556 110.296 96.4189 108.067 100.311C105.781 104.202 103.209 107.808 100.294 111.185L99.6079 111.929L100.294 112.673C103.209 115.992 105.781 119.655 108.067 123.547C110.296 127.381 112.125 131.502 113.554 135.68L113.84 136.653L114.811 136.424C119.212 135.565 123.67 135.107 128.129 135.107ZM207.518 96.9913C208.432 101.856 208.889 106.892 208.889 111.929C208.889 116.908 208.432 121.944 207.518 126.809L207.232 128.24L208.661 128.182C218.606 127.839 228.379 124.977 237.067 119.941C240.668 117.881 244.04 115.477 247.069 112.787L248.041 111.929L247.069 111.07C244.04 108.38 240.668 105.919 237.067 103.859C228.437 98.8227 218.606 96.0183 208.661 95.6177L207.232 95.5605L207.518 96.9913ZM47.5963 95.6749C37.6512 96.0183 27.8205 98.8799 19.1328 103.916C15.5892 105.977 12.217 108.38 9.18773 111.07L8.21611 111.929L9.18773 112.787C12.217 115.477 15.5892 117.938 19.1328 119.998C27.8205 125.035 37.6512 127.839 47.5963 128.24H49.0252L48.7394 126.866C47.8249 122.001 47.3677 116.965 47.3677 111.929C47.3677 106.95 47.8249 101.913 48.7394 96.9913L49.0252 95.6177L47.5963 95.6749ZM200.43 95.9039C197.058 96.2473 193.743 96.8768 190.485 97.7353C181.112 100.253 172.767 104.717 165.623 111.07L164.651 111.929L165.623 112.787C172.767 119.14 181.112 123.661 190.485 126.122C193.743 127.038 197.058 127.61 200.43 127.953L201.459 128.068L201.631 127.038C202.659 122.116 203.174 117.022 203.174 111.929C203.174 106.892 202.659 101.799 201.631 96.8196L201.459 95.8467L200.43 95.9039ZM54.6264 96.7624C53.5976 101.684 53.0833 106.778 53.0833 111.871C53.0833 117.022 53.5976 122.116 54.6264 127.038L54.7979 128.011L55.8267 127.896C59.1989 127.61 62.5139 126.98 65.7718 126.122C75.1453 123.604 83.49 119.083 90.6345 112.73L91.6061 111.871L90.6345 111.013C83.49 104.718 75.1453 100.196 65.7718 97.678C62.5139 96.8196 59.1989 96.19 55.8267 95.9039L54.7979 95.7894L54.6264 96.7624ZM182.026 61.5651C173.682 72.7825 162.25 80.9665 149.047 85.3161L147.962 85.6595L148.362 86.7469C149.619 90.4097 151.219 94.0152 153.22 97.3919C155.163 100.769 157.449 103.973 159.907 106.892L160.707 107.751L161.565 107.007C169.452 99.9101 178.654 94.8737 189.056 92.1266C192.2 91.2682 195.401 90.6386 198.659 90.2952L200.03 90.1235L199.573 88.8072C196.315 78.62 191 69.4058 183.798 61.4506L182.884 60.4205L182.026 61.5651ZM72.5162 61.5079C65.3146 69.4631 59.999 78.62 56.7412 88.8072L56.284 90.1235L57.6557 90.2952C60.9136 90.6958 64.1143 91.3254 67.2578 92.1266C77.6601 94.931 86.8622 99.9101 94.7497 107.007L95.607 107.808L96.4072 106.892C98.8649 104.031 101.151 100.826 103.094 97.4491C105.095 94.0152 106.695 90.4097 107.953 86.8041L108.353 85.7167L107.21 85.3161C94.0638 81.0238 82.6327 72.7825 74.288 61.5651L73.4307 60.4777L72.5162 61.5079ZM128.186 36.7268C122.813 36.7268 117.498 37.2991 112.354 38.4437L110.982 38.7299L111.553 39.9889C115.211 48.5164 117.098 57.5017 117.098 66.7732C117.098 71.3517 116.583 75.9874 115.669 80.4515L115.44 81.5961L116.583 81.825C120.355 82.569 124.242 82.9696 128.186 82.9696C132.072 82.9696 135.959 82.569 139.731 81.825L140.874 81.6533L140.646 80.5087C138.474 70.0926 138.759 59.6193 141.503 49.2604C142.36 46.1127 143.446 43.0222 144.704 39.9889L145.275 38.7299L143.903 38.3865C138.817 37.2991 133.501 36.7268 128.186 36.7268ZM150.476 41.1908C149.105 44.2241 147.962 47.429 147.047 50.7484C144.532 60.0771 144.246 69.5775 146.133 78.9062L146.418 80.1653L147.619 79.7646C159.793 75.7012 170.595 67.6889 178.083 57.2156L178.711 56.3571L177.968 55.6703C170.309 48.917 161.507 43.8234 151.848 40.5612L150.876 40.2751L150.476 41.1908ZM104.466 40.5612C94.8068 43.7662 86.062 48.8598 78.4032 55.6703L77.6602 56.3571L78.2317 57.2156C85.7191 67.6317 96.5215 75.644 108.696 79.7646L109.896 80.1653L110.182 78.9062C112.697 66.3153 111.153 52.9232 105.838 41.1908L105.438 40.2179L104.466 40.5612ZM67.9437 9.14134C67.1435 13.1475 66.7434 17.2681 66.7434 21.3888C66.7434 31.4042 69.2011 41.3625 73.8879 50.1761L74.5738 51.4352L75.6597 50.5195C83.2614 43.9379 91.9491 38.9016 101.38 35.5821L102.694 35.1243L101.951 33.9224C96.693 25.4522 89.3199 18.3555 80.6894 13.3764C77.0314 11.2588 73.2592 9.54196 69.4298 8.28287L68.2295 7.88221L67.9437 9.14134ZM186.884 8.28287C183.055 9.54196 179.283 11.2589 175.682 13.3192C166.994 18.3555 159.621 25.4522 154.363 33.8652L153.62 35.067L154.935 35.5821C164.365 38.9016 173.053 43.8807 180.712 50.5195L181.798 51.4352L182.484 50.1761C187.17 41.3625 189.628 31.4042 189.628 21.3888C189.628 17.2681 189.228 13.1475 188.371 9.14134L188.142 7.82499L186.884 8.28287Z" fill="#FC98B1"/>
</svg>
