<svg width="256" height="256" viewBox="0 0 256 256" fill="none" xmlns="http://www.w3.org/2000/svg">
<path d="M79.5229 256H176.477C186.409 256 195.936 252.013 202.962 244.984L244.987 202.948C252.014 195.92 256 186.391 256 176.456V79.5438C256 69.5417 252.014 60.0126 244.987 52.9841L202.962 10.9482C195.936 3.91971 186.409 0 176.477 0H79.5229C69.591 0 60.0644 3.91971 53.0377 10.9482L11.013 52.9841C3.98631 60.0126 0 69.5417 0 79.5438V176.456C0 186.391 3.98631 195.92 11.013 202.948L53.0377 244.984C60.0644 252.013 69.591 256 79.5229 256Z" fill="#D644D5"/>
</svg>
