<svg width="257" height="257" viewBox="0 0 257 257" fill="none" xmlns="http://www.w3.org/2000/svg">
<path d="M0.756381 0.899902C0.570989 0.899902 0.385587 0.899902 0.200195 0.899902H0.756381V47.2215C46.2436 47.2215 82.5937 83.5319 82.5937 128.9C82.5937 174.308 46.2436 210.578 0.756381 210.578V256.9C67.3783 256.9 122.519 205.573 128.478 140.58C134.437 205.573 189.578 256.9 256.2 256.9V210.578C210.713 210.578 174.323 174.268 174.323 128.9C174.323 83.5319 210.713 47.2215 256.2 47.2215V0.899902C189.578 0.899902 134.398 52.227 128.478 117.22C122.519 52.227 67.3783 0.899902 0.756381 0.899902Z" fill="#F85543"/>
</svg>
