<svg width="257" height="257" viewBox="0 0 257 257" fill="none" xmlns="http://www.w3.org/2000/svg">
<path d="M201.031 246.95C190.427 242.574 178.897 237.272 170.902 227.509C160.298 215.054 153.228 199.148 160.298 183.157C160.298 182.316 162.065 182.316 162.065 181.39C162.991 177.014 165.6 174.321 168.293 170.786C179.823 158.415 193.12 147.726 205.491 135.355C206.333 134.429 206.333 132.662 207.259 131.82C227.625 111.454 241.848 86.6267 249.759 59.1907C255.061 39.6657 258.68 20.2249 255.987 0.699951C258.68 37.0568 247.15 78.6316 212.561 96.3892C201.957 100.765 189.501 100.766 178.897 94.6219C169.135 88.3941 162.065 80.3989 154.996 71.5622C144.392 60.9581 136.397 50.2698 123.941 41.4331C118.639 38.8242 115.104 34.3637 110.728 31.6706C100.04 25.527 90.2772 19.2992 78.8316 13.9972C67.3017 9.53672 55.7719 6.00207 43.4005 3.30897C35.742 1.87826 28.0835 1.28911 20.425 0.95247C46.851 3.14061 72.5196 13.0714 90.2772 34.3637C94.7377 40.5915 98.2723 47.6609 99.1981 54.7303C99.1981 59.1908 100.04 64.4927 98.2724 68.869C96.505 73.3295 94.7376 77.79 92.0445 82.1662C76.1384 101.691 57.5392 114.063 41.5489 133.588C35.4053 141.583 30.1033 148.652 24.7171 157.489C23.8755 160.182 22.1082 162.791 20.3408 165.484C14.113 177.855 9.65256 189.385 6.11786 202.682C4.35052 210.678 2.58321 216.821 1.74162 224.816C1.23666 231.044 0.984184 236.935 0.900024 242.826C1.90994 220.019 7.96937 198.138 22.1081 178.781C30.9449 167.251 43.4004 159.256 57.5392 157.489C79.6731 156.647 93.8961 175.246 107.109 190.311C117.797 201.841 127.56 210.678 139.931 220.44C173.174 245.099 211.298 258.312 251.106 256.208C234.19 256.965 217.274 253.431 201.031 246.95Z" fill="#D946DA"/>
</svg>
