<svg width="257" height="257" viewBox="0 0 257 257" fill="none" xmlns="http://www.w3.org/2000/svg">
<path d="M45.7391 128.832C20.1454 167.923 5.0567 211.916 0.600098 256.8C45.4208 252.28 89.4138 237.255 128.568 211.597C112.397 201.029 97.1173 188.614 82.9198 174.417C68.7223 160.283 56.3076 144.939 45.7391 128.832Z" fill="#FC98B1"/>
<path d="M211.334 128.832C236.991 89.6774 252.016 45.6844 256.537 0.800049C211.652 5.32032 167.659 20.4091 128.568 46.0027C144.676 56.5712 160.019 68.9861 174.153 83.1835C188.351 97.381 200.765 112.661 211.334 128.832Z" fill="#FC98B1"/>
<path d="M128.568 46.0027C89.4138 20.409 45.4208 5.32025 0.600098 0.863647C5.0567 45.6843 20.1454 89.6774 45.7391 128.832C56.3076 112.661 68.7223 97.3809 82.9198 83.1835C97.1173 68.986 112.397 56.5712 128.568 46.0027Z" fill="#FC98B1"/>
<path d="M174.153 174.417C160.019 188.614 144.676 201.029 128.568 211.597C167.659 237.255 211.652 252.28 256.537 256.8C252.016 211.916 236.991 167.923 211.334 128.832C200.765 144.939 188.351 160.283 174.153 174.417Z" fill="#FC98B1"/>
</svg>
