<svg width="257" height="223" viewBox="0 0 257 223" fill="none" xmlns="http://www.w3.org/2000/svg">
<path d="M256.9 111.329C241.127 93.8041 218.272 82.7934 192.885 82.7934C186.726 82.7934 180.739 83.4852 174.925 84.6958C178.897 80.2569 182.466 75.4145 185.575 70.0533C198.239 48.0321 200.139 22.7249 192.885 0.300049C169.859 5.25772 148.962 19.5543 136.24 41.5756C133.189 46.8791 130.713 52.4709 128.929 58.1204C127.086 52.4709 124.611 46.8791 121.56 41.5756C108.838 19.5543 87.9411 5.25772 64.9144 0.300049C57.661 22.7249 59.5605 48.0321 72.2828 70.0533C75.3339 75.4145 78.903 80.2569 82.8751 84.6958C77.0608 83.4852 71.074 82.7934 64.9144 82.7934C39.5274 82.7934 16.6732 93.8041 0.899902 111.329C16.6732 128.796 39.5274 139.807 64.9144 139.807C71.074 139.807 77.0608 139.173 82.8751 137.904C78.903 142.343 75.3339 147.243 72.2828 152.547C59.5605 174.568 57.661 199.875 64.9144 222.3C87.9411 217.4 108.838 203.103 121.56 181.082C124.611 175.721 127.086 170.187 128.929 164.537C130.713 170.187 133.189 175.721 136.24 181.082C148.962 203.103 169.859 217.4 192.885 222.3C200.139 199.875 198.239 174.568 185.575 152.547C182.466 147.243 178.897 142.343 174.925 137.904C180.739 139.173 186.726 139.807 192.885 139.807C218.272 139.807 241.127 128.796 256.9 111.329Z" fill="#FFCF29"/>
</svg>
