<svg width="257" height="257" viewBox="0 0 257 257" fill="none" xmlns="http://www.w3.org/2000/svg">
<path d="M212.062 162.967C214.746 163.137 217.452 163.222 220.179 163.222C221.116 163.222 222.075 163.222 223.054 163.222C267.982 162.264 267.982 94.7002 223.054 93.7414C222.075 93.6987 221.116 93.6774 220.179 93.6774C217.452 93.6774 214.746 93.7626 212.062 93.9331C214.065 92.1433 216.025 90.2897 217.942 88.3721C218.623 87.6902 219.305 87.0085 219.987 86.3266C251.046 53.9192 203.307 6.10691 170.905 37.1721C170.181 37.8539 169.478 38.5357 168.796 39.2175C166.879 41.1777 165.026 43.1593 163.236 45.1621C163.407 42.4774 163.492 39.7714 163.492 37.0442C163.492 36.0641 163.492 35.084 163.492 34.1039C162.533 -10.768 94.9825 -10.768 94.0239 34.1039C94.0239 35.084 94.0239 36.0641 94.0239 37.0442C94.0239 39.7714 94.0878 42.4774 94.2157 45.1621C92.4688 43.1593 90.6155 41.1777 88.6557 39.2175C87.974 38.5357 87.2923 37.8539 86.6107 37.1721C54.2092 6.10691 6.40596 53.9192 37.5292 86.3266C38.1683 87.0085 38.8286 87.6902 39.5103 88.3721C41.4701 90.2897 43.4513 92.1433 45.4537 93.9331C42.7696 93.7626 40.0642 93.6774 37.3374 93.6774C36.3575 93.6774 35.3775 93.6987 34.3976 93.7414C-10.4659 94.7002 -10.4659 162.264 34.3976 163.222C35.3775 163.222 36.3575 163.222 37.3374 163.222C40.0642 163.222 42.7696 163.137 45.4537 162.967C43.4513 164.757 41.4701 166.61 39.5103 168.528C38.8286 169.21 38.1683 169.913 37.5292 170.637C6.40596 203.045 54.2092 250.793 86.6107 219.728C87.2923 219.046 87.974 218.364 88.6557 217.682C90.6155 215.765 92.4688 213.805 94.2157 211.802C94.0878 214.486 94.0239 217.171 94.0239 219.856C94.0239 220.836 94.0239 221.816 94.0239 222.796C94.9825 267.668 162.533 267.668 163.492 222.796C163.492 221.816 163.492 220.836 163.492 219.856C163.492 217.171 163.407 214.486 163.236 211.802C165.026 213.805 166.879 215.765 168.796 217.682C169.478 218.364 170.181 219.046 170.905 219.728C203.307 250.793 251.046 203.045 219.987 170.637C219.305 169.913 218.623 169.21 217.942 168.528C216.025 166.61 214.065 164.757 212.062 162.967Z" fill="#3ED6A5"/>
</svg>
