<svg width="257" height="223" viewBox="0 0 257 223" fill="none" xmlns="http://www.w3.org/2000/svg">
<path d="M149.413 58.1986L192.413 0.900024L164.293 66.7806C157.417 82.9167 167.937 101.16 185.332 103.267L256.4 111.9L185.332 120.482C167.937 122.589 157.417 140.832 164.293 156.968L192.413 222.9L149.413 165.55C138.894 151.521 117.907 151.521 107.387 165.55L64.3872 222.9L92.5067 156.968C99.3826 140.832 88.8634 122.589 71.4684 120.482L0.400024 111.9L71.4684 103.267C88.8634 101.16 99.3826 82.9167 92.5067 66.7806L64.3872 0.900024L107.387 58.1986C117.907 72.2278 138.894 72.2278 149.413 58.1986Z" fill="#FFCF29"/>
</svg>
