<svg width="257" height="257" viewBox="0 0 257 257" fill="none" xmlns="http://www.w3.org/2000/svg">
<path fill-rule="evenodd" clip-rule="evenodd" d="M233.095 256.6C221.021 256.6 205.094 251.14 185.826 240.411C168.55 230.711 149.861 217.606 130.336 201.353L128.281 199.683L126.226 201.353C106.702 217.606 88.0125 230.711 70.6719 240.411C51.4046 251.14 35.4769 256.6 23.4027 256.6C16.1454 256.6 10.4294 254.544 6.38324 250.497C1.18107 245.358 -0.74554 237.392 0.731621 226.921C2.33723 215.807 7.60369 202.124 16.5309 186.192C26.1645 168.847 39.2661 150.217 55.5149 130.624L57.1848 128.632L55.5149 126.576C39.2661 106.983 26.1645 88.3531 16.5309 71.008C7.60369 55.1405 2.33723 41.393 0.731621 30.2793C-0.74554 19.808 1.18107 11.8421 6.38324 6.70286C10.4294 2.65568 16.1454 0.599976 23.4027 0.599976C35.4769 0.599976 51.4046 6.06048 70.6719 16.853C88.0125 26.4891 106.702 39.5942 126.226 55.8472L128.281 57.5174L130.336 55.8472C149.861 39.5942 168.55 26.4891 185.826 16.853C205.094 6.06048 221.021 0.599976 233.095 0.599976C240.353 0.599976 246.133 2.65568 250.179 6.70286C255.317 11.8421 257.244 19.808 255.767 30.2793C254.161 41.393 248.895 55.1405 240.032 71.008C230.334 88.3531 217.232 106.983 200.983 126.576L199.314 128.632L200.983 130.624C217.232 150.217 230.334 168.847 240.032 186.192C248.895 202.124 254.161 215.807 255.767 226.921C257.244 237.392 255.317 245.358 250.179 250.497C246.133 254.544 240.353 256.6 233.095 256.6ZM190.258 139.103C182.358 148.033 173.945 156.962 165.275 165.635C156.604 174.307 147.677 182.723 138.75 190.625L135.924 193.13L138.814 195.507C157.118 210.475 174.523 222.681 190.707 231.675C207.984 241.375 223.076 246.707 233.095 246.707C237.591 246.707 240.995 245.615 243.114 243.495C250.051 236.557 245.491 216.449 231.297 191.074C222.306 174.886 210.103 157.476 195.139 139.168L192.763 136.277L190.258 139.103ZM61.3594 139.168C46.3951 157.476 34.1926 174.886 25.2012 191.074C11.0076 216.449 6.44772 236.557 13.384 243.495C15.5034 245.615 18.907 246.707 23.4027 246.707C33.4217 246.707 48.5144 241.375 65.7908 231.675C81.9754 222.681 99.3804 210.475 117.684 195.507L120.574 193.13L117.749 190.625C108.821 182.723 99.894 174.307 91.2237 165.635C82.5534 156.962 74.1401 148.033 66.2405 139.103L63.7358 136.277L61.3594 139.168ZM126.162 72.4213C116.785 80.6442 107.408 89.4451 98.2884 98.5674C89.1686 107.69 80.37 117.069 72.1493 126.448L70.2865 128.568L72.1493 130.688C80.37 140.067 89.1686 149.446 98.2884 158.568C107.408 167.691 116.785 176.492 126.162 184.714L128.281 186.577L130.401 184.714C139.777 176.492 149.154 167.691 158.274 158.568C167.394 149.446 176.193 140.067 184.413 130.688L186.212 128.568L184.413 126.448C176.193 117.069 167.394 107.69 158.274 98.5674C149.154 89.4451 139.777 80.6442 130.401 72.4213L128.281 70.5583L126.162 72.4213ZM233.095 10.4931C223.076 10.4931 208.048 15.8251 190.707 25.5255C174.523 34.5192 157.118 46.725 138.878 61.6931L135.924 64.07L138.75 66.5754C147.677 74.477 156.604 82.8926 165.275 91.5651C173.945 100.238 182.358 109.167 190.258 118.097L192.763 120.923L195.139 117.968C210.103 99.7237 222.306 82.3144 231.297 66.1257C245.491 40.7505 250.051 20.6432 243.114 13.7051C240.995 11.5852 237.591 10.4931 233.095 10.4931ZM23.4027 10.4931C18.907 10.4931 15.5676 11.5852 13.384 13.7051C6.51194 20.6432 11.0076 40.7505 25.2012 66.1257C34.1926 82.3144 46.3951 99.7237 61.3594 117.968L63.7358 120.923L66.2405 118.097C74.1401 109.167 82.5534 100.238 91.2237 91.5651C99.894 82.8926 108.821 74.477 117.749 66.5754L120.574 64.07L117.684 61.6931C99.4446 46.725 81.9754 34.5192 65.8551 25.5255C48.5145 15.8251 33.4217 10.4931 23.4027 10.4931Z" fill="#4968F3"/>
</svg>
