<svg width="257" height="257" viewBox="0 0 257 257" fill="none" xmlns="http://www.w3.org/2000/svg">
<path d="M32.1803 0.899902C14.5019 0.899902 0.200195 15.2413 0.200195 32.9198C0.200195 50.5983 14.5019 64.8999 32.1803 64.8999C49.8588 64.8999 64.2 50.5983 64.2 32.9198C64.2 15.2413 49.8588 0.899902 32.1803 0.899902ZM160.18 0.899902C142.502 0.899902 128.2 15.2413 128.2 32.9198C128.2 50.5983 142.502 64.8999 160.18 64.8999C168.682 64.8999 176.826 61.5231 182.825 55.5243C188.823 49.5256 192.2 41.3816 192.2 32.9198C192.2 24.4182 188.823 16.2742 182.825 10.2755C176.826 4.27672 168.682 0.899902 160.18 0.899902ZM96.1802 64.8999C87.7184 64.8999 79.5744 68.2767 73.5756 74.2755C67.5769 80.2743 64.2 88.4183 64.2 96.9198C64.2 105.382 67.5769 113.526 73.5756 119.524C79.5744 125.523 87.7184 128.9 96.1802 128.9C113.859 128.9 128.2 114.559 128.2 96.9198C128.2 79.2414 113.859 64.8999 96.1802 64.8999ZM224.18 64.8999C206.502 64.8999 192.2 79.2414 192.2 96.9198C192.2 114.559 206.502 128.9 224.18 128.9C232.682 128.9 240.826 125.523 246.825 119.524C252.823 113.526 256.2 105.382 256.2 96.9198C256.2 88.4183 252.823 80.2743 246.825 74.2755C240.826 68.2767 232.682 64.8999 224.18 64.8999ZM32.1803 128.9C23.7185 128.9 15.5743 132.277 9.57558 138.275C3.57683 144.274 0.200195 152.418 0.200195 160.92C0.200195 178.558 14.5019 192.9 32.1803 192.9C49.8588 192.9 64.2 178.558 64.2 160.92C64.2 152.418 60.8234 144.274 54.8247 138.275C48.8259 132.277 40.6819 128.9 32.1803 128.9ZM160.18 128.9C142.502 128.9 128.2 143.241 128.2 160.92C128.2 178.558 142.502 192.9 160.18 192.9C168.682 192.9 176.826 189.523 182.825 183.524C188.823 177.526 192.2 169.382 192.2 160.92C192.2 152.418 188.823 144.274 182.825 138.275C176.826 132.277 168.682 128.9 160.18 128.9ZM96.1802 192.9C87.7184 192.9 79.5744 196.277 73.5756 202.275C67.5769 208.274 64.2 216.418 64.2 224.88C64.2 233.382 67.5769 241.526 73.5756 247.524C79.5744 253.523 87.7184 256.9 96.1802 256.9C113.859 256.9 128.2 242.558 128.2 224.88C128.2 207.241 113.859 192.9 96.1802 192.9ZM224.18 192.9C206.502 192.9 192.2 207.241 192.2 224.88C192.2 242.558 206.502 256.9 224.18 256.9C232.682 256.9 240.826 253.523 246.825 247.524C252.823 241.526 256.2 233.382 256.2 224.88C256.2 216.418 252.823 208.274 246.825 202.275C240.826 196.277 232.682 192.9 224.18 192.9Z" fill="#46C66E"/>
</svg>
