<svg width="257" height="257" viewBox="0 0 257 257" fill="none" xmlns="http://www.w3.org/2000/svg">
<path d="M64.8999 0.699951C29.5827 0.699951 0.899902 29.3475 0.899902 64.7099C0.899902 81.6759 7.65345 97.9267 19.651 109.966C31.6485 121.965 47.9365 128.72 64.8999 128.72C100.257 128.72 128.9 100.033 128.9 64.7099C128.9 29.3475 100.257 0.699951 64.8999 0.699951ZM128.9 64.7099C128.9 81.6759 135.653 97.9267 147.651 109.966C159.648 121.965 175.936 128.72 192.9 128.72C209.863 128.72 226.151 121.965 238.149 109.966C250.146 97.9267 256.9 81.6759 256.9 64.7099C256.9 29.3475 228.257 0.699951 192.9 0.699951C157.583 0.699951 128.9 29.3475 128.9 64.7099ZM192.9 128.72C157.583 128.72 128.9 157.367 128.9 192.69C128.9 209.696 135.653 225.947 147.651 237.946C159.648 249.985 175.936 256.7 192.9 256.7C209.863 256.7 226.151 249.985 238.149 237.946C250.146 225.947 256.9 209.696 256.9 192.69C256.9 157.367 228.257 128.72 192.9 128.72ZM128.9 192.69C128.9 157.367 100.257 128.72 64.8999 128.72C29.5827 128.72 0.899902 157.367 0.899902 192.69C0.899902 209.696 7.65345 225.947 19.651 237.946C31.6485 249.985 47.9365 256.7 64.8999 256.7C81.903 256.7 98.1513 249.985 110.149 237.946C122.186 225.947 128.9 209.696 128.9 192.69Z" fill="#FC9CA7"/>
</svg>
