<svg width="257" height="257" viewBox="0 0 257 257" fill="none" xmlns="http://www.w3.org/2000/svg">
<path d="M128.081 0.707031C157.865 0.707031 162.999 36.0856 187.094 54.2632C211.189 72.4407 245.181 66.5787 254.386 95.992C263.588 125.405 232.771 141.409 223.566 170.82C214.365 200.233 230.237 231.99 206.142 250.168C182.047 268.345 157.865 242.858 128.081 242.858C98.2991 242.858 74.1172 268.345 50.0219 250.168C25.9266 231.99 41.7995 200.233 32.5949 170.82C23.3904 141.409 -7.42631 125.405 1.77824 95.992C10.98 66.5787 44.9718 72.4407 69.0671 54.2632C93.1625 36.0856 98.2991 0.707031 128.081 0.707031Z" fill="#EFBC27"/>
</svg>
