<svg width="116" height="257" viewBox="0 0 116 257" fill="none" xmlns="http://www.w3.org/2000/svg">
<path d="M70.3174 154.127C59.7504 158.93 49.1834 164.184 41.4984 173.337C39.5771 175.258 38.6165 177.631 37.1473 180.06C33.8133 185.823 32.8527 192.038 31.892 198.762C31.3835 208.875 32.8527 218.48 36.1867 228.085C39.0686 234.809 41.9505 241.024 46.7536 247.295C49.1835 250.629 51.1047 254.471 54.4387 256.9C53.9866 256.9 53.4781 256.9 53.4781 256.9C53.026 255.94 52.5174 255.94 52.0654 255.431C45.793 252.098 41.4984 248.256 35.7346 243.905C35.226 243.453 35.2261 242.945 34.774 242.493C19.4039 230.006 9.79753 213.678 4.03374 194.92C-3.19926 168.535 2.11243 139.211 22.2857 119.549C33.3047 108.475 47.7143 103.673 61.1631 96.441C69.3568 91.6385 76.5333 84.9151 80.3758 76.2706C81.3364 73.8976 82.297 71.4681 83.2577 68.5866C89.53 43.6137 78.9631 19.1494 62.6323 0.900024C63.0844 0.900024 63.5929 1.86048 64.045 1.35198C64.045 1.86048 64.5536 1.86053 65.5142 2.82103C80.8843 11.4655 92.412 22.9914 102.018 38.3593C102.979 39.7718 103.431 41.2408 104.392 42.6533C112.077 57.0607 116.428 72.4286 115.919 88.757C115.467 95.0285 114.507 100.791 113.037 107.006C111.116 112.769 108.743 118.589 105.861 123.843C97.6672 137.799 84.7269 147.856 70.3174 154.127Z" fill="#8646CA"/>
</svg>
