<svg width="256" height="257" viewBox="0 0 256 257" fill="none" xmlns="http://www.w3.org/2000/svg">
<path d="M128.078 81.1108C101.732 81.1108 80.3595 102.431 80.3595 128.8C80.3595 155.13 101.732 176.451 128.078 176.451C154.424 176.451 175.757 155.13 175.757 128.8C175.757 102.431 154.424 81.1108 128.078 81.1108ZM128.155 0.800049H127.961V66.0428H128.155V0.800049ZM111.913 68.1398L95.0091 5.11067L94.8148 5.18842L111.718 68.1787L111.913 68.1398ZM96.7577 74.3923L64.1166 17.8874L63.9612 18.004L96.6023 74.4699L96.7577 74.3923ZM83.7401 84.334L37.5762 38.2369L37.4596 38.3534L83.6235 84.4894L83.7401 84.334ZM73.7146 97.3049L17.2143 64.6835L17.0978 64.8777L73.6369 97.4602L73.7146 97.3049ZM67.4195 112.451L4.39103 95.5573L4.31333 95.7515L67.3806 112.606L67.4195 112.451ZM65.2434 128.684H0V128.878H65.2434V128.684ZM67.3418 144.955L4.31333 161.81L4.35214 162.004L67.4195 145.111L67.3418 144.955ZM73.5592 160.101L17.0589 192.722L17.1366 192.878L73.6758 160.256L73.5592 160.101ZM83.5069 173.111L37.3819 219.247L37.4985 219.363L83.6624 173.266L83.5069 173.111ZM96.4857 183.091L63.8446 239.557L64 239.674L96.6411 183.169L96.4857 183.091ZM94.7371 252.412L94.8925 252.451L111.796 189.46L111.602 189.383L94.7371 252.412ZM127.883 256.8H128.078V191.596H127.883V256.8ZM144.126 189.46L161.03 252.451L161.224 252.412L144.321 189.421L144.126 189.46ZM159.281 183.208L191.922 239.713L192.078 239.596L159.437 183.13L159.281 183.208ZM172.299 173.227L218.463 219.363L218.579 219.247L172.454 173.111L172.299 173.227ZM182.285 160.256L238.786 192.839L238.902 192.683L182.363 160.101L182.285 160.256ZM188.58 145.111L251.648 162.004L251.687 161.81L188.658 144.917L188.58 145.111ZM190.718 128.722V128.878H256V128.722H190.718ZM188.58 112.645L251.609 95.7515L251.57 95.5961L188.542 112.451L188.58 112.645ZM182.324 97.5379L238.863 64.9165L238.747 64.7612L182.246 97.3437L182.324 97.5379ZM172.338 84.5282L218.502 38.4311L218.385 38.2758L172.221 84.4117L172.338 84.5282ZM159.359 74.5476L191.961 18.0427L191.806 17.9651L159.203 74.4311L159.359 74.5476ZM161.107 5.26607L160.913 5.2272L144.01 68.2175L144.204 68.2563L161.107 5.26607Z" fill="#102E50"/>
</svg>
