<svg width="257" height="257" viewBox="0 0 257 257" fill="none" xmlns="http://www.w3.org/2000/svg">
<path d="M256.8 128.7C256.8 124.083 241.784 119.966 217.702 116.962C240.226 107.895 253.63 99.9959 252.406 95.5457C251.238 91.0954 235.666 90.9842 211.695 94.3775C231.05 79.7473 241.951 68.6773 239.615 64.6721C237.334 60.7225 222.262 64.6165 199.96 74.0733C214.866 54.9372 222.541 41.4196 219.315 38.1932C216.034 34.9112 202.519 42.5879 183.387 57.4962C192.842 35.1894 196.79 20.1141 192.786 17.8334C188.782 15.5526 177.714 26.4558 163.143 45.8143C166.48 21.783 166.369 6.20715 161.919 5.03896C157.47 3.87077 149.573 17.2771 140.507 39.7508C137.56 15.6639 133.388 0.699951 128.772 0.699951C124.212 0.699951 120.04 15.6639 117.093 39.7508C107.972 17.2771 100.13 3.87077 95.6807 5.03896C91.2314 6.20715 91.1202 21.783 94.4572 45.8143C79.8858 26.4558 68.7626 15.5526 64.8139 17.8334C60.8095 20.1141 64.7027 35.1894 74.1574 57.4962C55.0811 42.5879 41.5108 34.9112 38.2851 38.1932C35.0594 41.4196 42.6788 54.9372 57.6395 74.0733C35.2819 64.6165 20.2656 60.7225 17.9298 64.6721C15.6495 68.6773 26.5501 79.7473 45.9045 94.3775C21.8784 90.9842 6.36167 91.0954 5.13812 95.5457C3.97018 99.9959 17.3736 107.895 39.8424 116.962C15.7607 119.966 0.800049 124.083 0.800049 128.7C0.800049 133.317 15.7607 137.434 39.8424 140.382C17.3736 149.505 3.97018 157.404 5.13812 161.854C6.36167 166.249 21.8784 166.416 45.9045 163.022C26.5501 177.653 15.6495 188.723 17.9298 192.728C20.2656 196.677 35.2819 192.783 57.6395 183.327C42.6788 202.407 35.0594 215.98 38.2851 219.207C41.5108 222.489 55.0811 214.812 74.1574 199.904C64.7027 222.211 60.8095 237.286 64.8139 239.567C68.7626 241.847 79.8858 230.944 94.4572 211.586C91.1202 235.617 91.2314 251.137 95.6807 252.361C100.13 253.529 107.972 240.123 117.093 217.649C120.04 241.736 124.212 256.7 128.772 256.7C133.388 256.7 137.56 241.736 140.507 217.649C149.573 240.123 157.47 253.529 161.919 252.361C166.369 251.137 166.48 235.617 163.143 211.586C177.714 230.944 188.782 241.847 192.786 239.567C196.79 237.286 192.842 222.211 183.387 199.904C202.519 214.812 216.034 222.489 219.315 219.207C222.541 215.98 214.866 202.407 199.96 183.327C222.262 192.783 237.334 196.677 239.615 192.728C241.951 188.723 231.05 177.653 211.695 163.022C235.666 166.416 251.238 166.249 252.406 161.854C253.63 157.404 240.226 149.505 217.702 140.382C241.784 137.434 256.8 133.317 256.8 128.7Z" fill="#261FB3"/>
</svg>
