<svg width="236" height="257" viewBox="0 0 236 257" fill="none" xmlns="http://www.w3.org/2000/svg">
<path fill-rule="evenodd" clip-rule="evenodd" d="M232.044 97.2674L207.525 139.808L225.812 171.51C236.181 189.405 223.258 211.852 202.57 211.852H153.533L135.246 243.553C124.877 261.449 99.0298 261.449 88.7116 243.553L64.1929 201.012H27.6192C6.93158 201.012 -5.99173 178.617 4.32654 160.67L28.8452 118.18L10.5583 86.4788C0.240073 68.5318 13.1635 46.1364 33.8511 46.1364H82.8884L101.175 14.4352C111.493 -3.51177 137.34 -3.51177 147.71 14.4352L172.228 56.925H208.802C229.49 56.925 242.413 79.3715 232.044 97.2674ZM190.771 128.969L154.503 66.0775H81.9178L45.5996 128.969L81.9178 191.911H154.503L190.771 128.969Z" fill="#328E6E"/>
</svg>
