<svg width="257" height="257" viewBox="0 0 257 257" fill="none" xmlns="http://www.w3.org/2000/svg">
<path fill-rule="evenodd" clip-rule="evenodd" d="M242.54 150.39C242.54 150.441 242.54 150.467 242.54 150.467L220.062 167.847L223.461 194.881C231.34 213.651 212.492 232.421 193.8 224.62C193.8 224.568 193.774 224.542 193.723 224.542L165.529 220.989L148.845 242.462C148.845 242.514 148.845 242.54 148.845 242.54C141.198 261.31 114.549 261.31 106.902 242.54C106.851 242.54 106.825 242.514 106.825 242.462L89.4456 219.985L62.4108 223.461C43.641 231.34 24.8711 212.493 32.6726 193.8C32.7241 193.748 32.7499 193.723 32.7499 193.723L36.303 165.529L14.8297 148.845C14.7782 148.845 14.7524 148.845 14.7524 148.845C-4.01742 141.121 -4.01742 114.549 14.7524 106.825C14.7524 106.825 14.7782 106.825 14.8297 106.825L37.3071 89.4457L33.8312 62.4109C25.9525 43.641 44.7996 24.8712 63.4923 32.6726C63.5437 32.6726 63.5695 32.6726 63.5695 32.6726L91.7629 36.303L108.447 14.7524C116.171 -4.01742 142.743 -4.01742 150.467 14.7524L167.846 37.2299L194.881 33.8313C194.881 33.8313 194.907 33.8313 194.958 33.8313C213.651 25.9526 232.421 44.7997 224.619 63.4923C224.619 63.4923 224.619 63.518 224.619 63.5695L220.989 91.7629L242.54 108.447C261.387 116.094 261.387 142.743 242.54 150.39ZM202.219 158.655L205.618 133.628C206.004 130.847 206.004 128.067 205.618 125.286L201.833 97.8651L186.539 77.7821C184.917 75.5421 182.909 73.5338 180.669 71.8344L158.655 55.1501L133.628 51.6742C130.848 51.288 128.067 51.288 125.286 51.6742L97.865 55.4591L77.7821 70.753C75.542 72.4524 73.5338 74.3834 71.8345 76.6235L55.1501 98.6375L51.7515 123.664C51.3653 126.445 51.3653 129.225 51.7515 132.006L55.459 159.427L70.753 179.51C72.4524 181.75 74.3834 183.758 76.6234 185.458L98.6375 202.142L123.664 205.541C126.445 205.927 129.225 205.927 132.006 205.541L159.427 201.833L179.587 186.539C181.75 184.84 183.758 182.909 185.458 180.669L202.219 158.655Z" fill="#D081F9"/>
</svg>
