<svg width="256" height="257" viewBox="0 0 256 257" fill="none" xmlns="http://www.w3.org/2000/svg">
<path d="M184.067 166.069C221.654 153.806 248.859 118.911 255.3 80.7608C244.312 100.82 220.972 116.337 197.707 109.828C202.254 94.9915 203.542 80.0796 200.966 64.5621C200.309 61.3325 199.652 58.1029 198.995 54.8732C193.842 34.2085 182.778 15.4362 168.532 0.599976C178.307 20.6591 178.308 49.0447 159.514 63.9566C151.709 54.2677 143.297 45.8655 132.309 39.3558C117.456 30.3481 101.921 24.5195 85.098 22.5515C74.1099 21.2647 63.046 21.9459 52.0579 22.5515C54.6344 23.8383 56.6047 23.8383 59.1812 24.5195C78.5809 30.9536 99.3446 45.1842 100.633 67.2114C59.1812 67.2114 21.67 92.4178 0.300049 126.632C9.9999 119.517 19.6998 113.083 31.3699 109.828C44.3283 106.648 57.2109 107.254 68.2748 113.688C66.9865 116.337 64.3342 118.23 62.4397 120.803C53.3461 134.428 46.9048 147.978 43.6463 164.177C39.7815 186.128 41.676 207.474 47.5111 228.139C48.1931 216.482 49.4813 204.219 55.3164 193.243C56.6047 191.275 57.8929 189.383 58.575 187.415C61.7577 182.268 65.0163 178.407 69.5631 174.471C71.4576 173.184 72.7458 172.579 74.1099 171.292C76.6864 168.643 79.8692 168.643 83.1277 166.75C88.2807 206.187 116.774 241.764 153.679 256.6C147.238 252.058 143.297 246.23 138.826 239.796C137.538 237.828 136.856 235.935 135.568 233.967C129.05 221.705 126.474 207.474 131.021 194.53C131.703 193.243 132.991 191.957 132.991 189.989C135.568 191.275 137.538 193.243 140.114 194.53C173.079 212.016 212.56 210.729 244.918 194.53C221.654 197.785 192.554 189.988 184.067 166.069Z" fill="#4300FF"/>
</svg>
