<svg width="257" height="256" viewBox="0 0 257 256" fill="none" xmlns="http://www.w3.org/2000/svg">
<path d="M239.321 191.943C239.321 191.943 222.219 164.381 191.603 146.668C189.414 145.395 187.2 144.199 184.96 143.079C187.455 143.232 189.974 143.308 192.519 143.308C227.869 143.308 256.5 127.962 256.5 127.962C256.5 127.962 227.869 112.616 192.519 112.616C189.974 112.616 187.455 112.692 184.96 112.845C187.2 111.725 189.414 110.529 191.603 109.256C222.219 91.6195 239.321 63.9809 239.321 63.9809C239.321 63.9809 206.873 64.9735 176.257 82.6866C174.068 83.9591 171.93 85.2824 169.843 86.6567C171.218 84.5698 172.541 82.4321 173.813 80.2434C191.45 49.6273 192.519 17.1786 192.519 17.1786C192.519 17.1786 164.881 34.2809 147.244 64.8971C145.92 67.0858 144.724 69.2999 143.655 71.5395C143.808 69.0454 143.884 66.5259 143.884 63.9809C143.884 28.6311 128.538 0 128.538 0C128.538 0 113.116 28.6311 113.116 63.9809C113.166 66.5259 113.268 69.0454 113.421 71.5395C112.301 69.2999 111.105 67.0858 109.833 64.8971C92.1195 34.2809 64.5573 17.1786 64.5573 17.1786C64.5573 17.1786 65.5498 49.6273 83.1865 80.2434C84.5099 82.4321 85.8333 84.5698 87.1567 86.6567C85.1207 85.2824 82.983 83.9591 80.7434 82.6866C50.2036 64.9735 17.6786 63.9809 17.6786 63.9809C17.6786 63.9809 34.7809 91.6195 65.3971 109.256C67.6367 110.529 69.8508 111.725 72.0395 112.845C69.5963 112.692 67.1022 112.616 64.5573 112.616C29.2074 112.616 0.5 127.962 0.5 127.962C0.5 127.962 29.2074 143.308 64.5573 143.308C67.1022 143.308 69.5963 143.232 72.0395 143.079C69.8508 144.199 67.6367 145.395 65.3971 146.668C34.7809 164.381 17.6786 191.943 17.6786 191.943C17.6786 191.943 50.2036 190.95 80.7434 173.313C82.983 171.99 85.1207 170.641 87.1567 169.267C85.8333 171.354 84.5099 173.517 83.1865 175.757C65.5498 206.296 64.5573 238.821 64.5573 238.821C64.5573 238.821 92.1195 221.719 109.833 191.103C111.105 188.863 112.301 186.649 113.421 184.461C113.268 186.904 113.166 189.398 113.116 191.943C113.116 227.292 128.538 256 128.538 256C128.538 256 143.884 227.292 143.884 191.943C143.884 189.398 143.808 186.904 143.655 184.461C144.724 186.649 145.92 188.863 147.244 191.103C164.881 221.719 192.519 238.821 192.519 238.821C192.519 238.821 191.45 206.296 173.813 175.757C172.541 173.517 171.218 171.379 169.843 169.343C171.93 170.667 174.068 171.99 176.257 173.313C206.873 190.95 239.321 191.943 239.321 191.943Z" fill="#FBB249"/>
</svg>
