<svg width="257" height="257" viewBox="0 0 257 257" fill="none" xmlns="http://www.w3.org/2000/svg">
<path fill-rule="evenodd" clip-rule="evenodd" d="M238.463 193.516L172.568 174.685L191.197 239.949L143.534 190.691L127.036 256.5L110.389 189.998L63.2214 238.809L82.0486 172.852L16.7976 191.484L66.0456 143.812L0.199951 127.36L66.6896 110.71L17.9372 63.4841L83.8819 82.3149L65.2032 17.0513L112.866 66.3583L129.364 0.5L146.011 67.0025L193.178 18.2406L174.401 84.1485L239.602 65.5159L190.354 113.188L256.2 129.689L189.71 146.34L238.463 193.516ZM168.951 117.598L158.001 98.668L139.125 87.766H117.275L98.3985 98.668L87.4491 117.598V139.402L98.3985 158.332L117.275 169.234H139.125L158.001 158.332L168.951 139.402V117.598Z" fill="#27548A"/>
</svg>
