<svg width="257" height="257" viewBox="0 0 257 257" fill="none" xmlns="http://www.w3.org/2000/svg">
<path d="M26.4798 49.6097C21.7691 55.6434 31.9684 75.6186 37.2214 90.4033C22.9532 96.9084 1.50973 103.487 0.447779 111.068C-0.176898 115.546 6.25728 121.665 14.0203 128.005C6.15506 134.227 -0.37282 140.238 0.18655 144.73C1.12357 152.325 22.4591 159.239 36.6336 165.977C31.1393 180.668 20.6277 200.481 25.2446 206.589C27.962 210.2 36.8381 209.976 46.8187 208.965C45.646 218.931 45.2911 227.796 48.8517 230.579C54.8941 235.286 74.8695 225.09 89.646 219.832C96.1512 234.102 102.73 255.548 110.311 256.607C114.798 257.232 120.911 250.801 127.249 243.032C133.47 250.9 139.49 257.425 143.976 256.871C151.571 255.932 158.491 234.596 165.221 220.428C179.912 225.919 199.728 236.428 205.842 231.817C209.445 229.091 209.229 220.218 208.218 210.243C218.176 211.407 227.044 211.771 229.829 208.201C234.531 202.168 224.341 182.193 219.076 167.408C233.353 160.903 254.796 154.324 255.858 146.743C256.483 142.265 250.052 136.146 242.28 129.806C250.145 123.585 256.679 117.574 256.12 113.082C255.183 105.486 233.841 98.5723 219.673 91.8344C225.17 77.1434 235.681 57.33 231.064 51.2168C228.339 47.6108 219.471 47.8351 209.49 48.8459C210.652 38.8797 211.015 30.0122 207.454 27.2296C201.415 22.5247 181.439 32.7238 166.66 37.9796C160.155 23.7031 153.576 2.26847 145.989 1.20654C141.511 0.581869 135.398 7.0131 129.052 14.776C122.836 6.91372 116.817 0.385949 112.333 0.936793C104.729 1.88231 97.8179 23.2175 91.0856 37.3833C76.3943 31.8891 56.5807 21.3833 50.4674 25.9945C46.8613 28.7203 47.0799 37.5934 48.0908 47.5739C38.1243 46.4041 29.2624 46.0406 26.4798 49.6097Z" fill="#5F5E80"/>
</svg>
