<svg width="257" height="257" viewBox="0 0 257 257" fill="none" xmlns="http://www.w3.org/2000/svg">
<path d="M128.438 0.707031C140.773 0.707031 141.657 17.9526 153.68 20.6339C165.7 23.3152 174.165 8.15381 185.272 13.3825C196.385 18.6111 189.522 34.5258 199.164 42.0396C208.807 49.5533 223.156 39.4783 230.849 48.9004C238.535 58.3198 225.291 69.7536 230.642 80.6099C235.991 91.4662 253.398 88.4752 256.141 100.224C258.884 111.971 241.878 116.655 241.878 128.706C241.878 140.756 258.884 145.441 256.141 157.19C253.398 168.936 235.991 165.945 230.642 176.801C225.291 187.66 238.535 199.091 230.849 208.514C223.156 217.933 208.807 207.861 199.164 215.374C189.522 222.885 196.385 238.803 185.272 244.032C174.165 249.257 165.7 234.096 153.68 236.777C141.657 239.459 140.773 256.707 128.438 256.707C116.108 256.707 115.224 239.459 103.195 236.777C91.1729 234.096 82.7161 249.257 71.6086 244.032C60.4956 238.803 67.3537 222.885 57.7111 215.374C48.074 207.861 33.7189 217.933 26.0322 208.514C18.3398 199.091 31.5901 187.66 26.2386 176.801C20.89 165.945 3.48247 168.936 0.739791 157.19C-2.00289 145.441 15.0028 140.756 15.0028 128.706C15.0028 116.655 -2.00289 111.971 0.739791 100.224C3.48247 88.4752 20.89 91.4662 26.2386 80.6099C31.5901 69.7536 18.3398 58.3198 26.0322 48.9004C33.7189 39.4783 48.074 49.5533 57.7111 42.0396C67.3537 34.5258 60.4956 18.6111 71.6086 13.3825C82.7161 8.15381 91.1729 23.3152 103.195 20.6339C115.224 17.9526 116.108 0.707031 128.438 0.707031Z" fill="#5F5E80"/>
</svg>
