<svg width="253" height="257" viewBox="0 0 253 257" fill="none" xmlns="http://www.w3.org/2000/svg">
<path d="M195.585 241.036C135.119 142.492 133.226 133.763 180.292 170.276C133.226 133.763 142.171 134.06 252.6 172.839C142.171 134.06 135.119 128.6 195.437 128.489C135.119 128.6 142.171 123.103 252.452 83.9524C142.171 123.103 133.226 123.437 180.181 86.7382C133.226 123.437 135.082 114.671 195.251 15.9407C135.082 114.671 128.474 120.688 141.652 64.5629C128.474 120.688 124.28 112.777 107.725 0.600098C124.28 112.777 123.055 121.654 97.9257 72.3633C123.055 121.654 114.778 118.311 30.8519 45.1735C114.778 118.311 119.529 125.889 69.4184 106.425C119.529 125.889 111.029 128.637 0.599976 128.786C111.029 128.637 119.529 131.349 69.4926 150.887C119.529 131.349 114.815 138.963 31.1117 212.249C114.815 138.963 123.092 135.583 98.1113 184.911C123.092 135.583 124.317 144.424 108.133 256.6C124.317 144.424 128.474 136.512 141.837 192.563C128.474 136.512 135.119 142.492 195.585 241.036Z" fill="#FE7743"/>
</svg>
