<svg width="254" height="257" viewBox="0 0 254 257" fill="none" xmlns="http://www.w3.org/2000/svg">
<path d="M79.2033 141.276C69.1069 144.043 56.4677 147.633 41.2109 151.896C56.5425 147.633 69.2565 144.118 79.2033 141.276Z" fill="black"/>
<path d="M72.0235 168.349C59.6835 177.398 44.0528 189.215 24.907 203.574C44.0528 189.215 59.6835 177.548 72.0235 168.349Z" fill="black"/>
<path d="M81.9705 107.098C72.622 102.536 60.8054 96.7768 46.5209 89.8215C60.8054 96.8516 72.622 102.61 81.9705 107.098Z" fill="black"/>
<path d="M79.5024 176.052C68.6581 187.196 54.9718 201.48 38.0697 218.981C54.9718 201.555 68.8077 187.271 79.5024 176.052Z" fill="black"/>
<path d="M82.2695 150.101C72.9958 154.663 61.2541 160.571 47.0443 167.676C61.2541 160.646 72.9958 154.812 82.2695 150.101Z" fill="black"/>
<path d="M79.0537 115.997C69.0321 113.23 56.2433 109.865 40.9117 105.751C56.2433 109.865 68.9573 113.305 79.0537 115.997Z" fill="black"/>
<path d="M98.8726 169.172C93.1139 177.997 85.7846 189.29 76.9596 202.901C85.8594 189.29 93.2635 177.997 98.8726 169.172Z" fill="black"/>
<path d="M59.6836 134.171C44.352 135.442 24.9071 137.162 0.974854 139.257C24.9071 137.162 44.4268 135.517 59.6836 134.171Z" fill="black"/>
<path d="M162.742 163.563C170.819 171.266 181.14 180.839 193.554 192.58C181.14 180.839 170.894 171.116 162.742 163.563Z" fill="black"/>
<path d="M71.4251 88.9987C59.0103 79.8746 43.23 68.4321 23.9347 54.2971C43.23 68.4321 59.0103 80.0242 71.4251 88.9987Z" fill="black"/>
<path d="M166.107 183.681C175.605 196.769 187.721 213.297 202.679 233.714C187.796 213.297 175.605 196.619 166.107 183.681Z" fill="black"/>
<path d="M169.024 156.607C178.223 162.665 190.114 170.368 204.324 179.567C190.114 170.294 178.372 162.665 169.024 156.607Z" fill="black"/>
<path d="M157.282 190.038C164.462 204.098 173.81 222.047 185.178 243.96C173.885 222.047 164.611 204.098 157.282 190.038Z" fill="black"/>
<path d="M131.854 177.922C133.2 188.691 134.995 202.378 137.164 218.906C134.995 202.378 133.275 188.617 131.854 177.922Z" fill="black"/>
<path d="M110.614 194.824C107.174 209.931 102.911 229.302 97.6759 252.935C102.911 229.302 107.249 210.081 110.614 194.824Z" fill="black"/>
<path d="M141.128 176.8C144.419 187.121 148.682 200.209 153.767 215.914C148.682 200.209 144.568 187.121 141.128 176.8Z" fill="black"/>
<path d="M121.459 195.497C120.411 211.352 119.215 231.47 117.719 256.3C119.29 231.47 120.561 211.203 121.459 195.497Z" fill="black"/>
<path d="M106.8 174.257C102.762 183.905 97.6759 196.32 91.618 211.203C97.7507 196.32 102.836 184.055 106.8 174.257Z" fill="black"/>
<path d="M59.6087 123.327C44.4267 122.13 24.8322 120.709 0.900024 118.914C24.8322 120.709 44.2772 122.28 59.6087 123.327Z" fill="black"/>
<path d="M192.732 109.79C208.362 105.527 228.331 99.9178 252.787 93.1121C228.331 99.9178 208.362 105.377 192.732 109.79Z" fill="black"/>
<path d="M189.292 99.544C204.1 92.9626 222.797 84.4367 245.757 74.116C222.722 84.4367 203.95 92.8878 189.292 99.544Z" fill="black"/>
<path d="M168.65 99.4691C177.924 93.2617 189.591 85.4089 203.651 75.9108C189.516 85.4089 177.774 93.2617 168.65 99.4691Z" fill="black"/>
<path d="M177.325 123.327C188.394 122.28 202.604 120.859 219.73 119.213C202.604 120.859 188.469 122.205 177.325 123.327Z" fill="black"/>
<path d="M177.325 132.6C188.544 133.573 202.679 134.694 219.805 136.041C202.679 134.694 188.469 133.498 177.325 132.6Z" fill="black"/>
<path d="M162.293 92.5886C170.295 84.8854 180.466 75.0134 192.732 63.0473C180.466 74.9386 170.295 84.8106 162.293 92.5886Z" fill="black"/>
<path d="M189.74 156.233C137.837 133.498 138.286 131.927 192.956 145.913C137.538 131.254 135.818 129.459 177.325 132.6C134.995 129.01 134.995 127.59 177.325 123.327C135.818 127.141 137.538 125.271 192.732 109.79C138.211 124.673 137.762 123.027 189.291 99.5439C136.641 123.102 134.098 122.878 168.65 99.4691C133.35 122.953 132.303 121.906 162.293 92.5886C132.752 120.933 132.901 118.465 165.359 72.3958C132.901 117.643 131.63 116.596 156.459 66.2632C130.732 117.493 128.638 118.914 140.53 79.5755C128.115 119.363 126.694 119.288 131.181 78.6032C126.395 118.241 124.824 116.222 120.561 61.1776C124.375 115.698 122.655 115.623 109.717 62.0003C122.58 116.895 121.982 119.363 106.127 82.6417C121.832 120.036 120.636 120.933 98.349 87.8022C119.813 120.335 117.27 119.737 78.9041 81.146C116.523 119.587 115.251 120.709 71.4252 88.9987C115.924 121.681 117.046 124 81.9704 107.098C117.42 124.598 117.046 125.944 79.0537 115.997C116.149 126.169 113.83 127.29 59.6088 123.327C112.933 127.59 112.933 129.31 59.6835 134.171C113.83 129.609 116.149 130.731 79.2032 141.276C117.046 130.88 117.495 132.226 82.2695 150.101C117.121 132.9 115.999 135.218 72.0236 168.349C115.401 136.19 116.597 137.312 79.5024 176.052C117.42 137.088 119.888 136.489 98.8726 169.172C120.785 135.891 121.907 136.788 106.8 174.257C122.057 137.461 122.73 139.855 110.614 194.824C122.805 141.126 124.525 141.051 121.459 195.497C125.048 140.528 126.469 138.434 131.854 177.922C126.769 137.387 128.264 137.312 141.128 176.8C128.788 137.761 130.882 139.182 157.282 190.038C131.779 140.079 133.051 138.957 166.107 183.681C132.976 138.209 132.826 135.667 162.742 163.563C132.452 134.694 133.425 133.722 169.024 156.607C134.173 133.722 136.715 133.498 189.74 156.233Z" fill="black"/>
<path d="M189.74 156.233C204.399 162.74 223.32 170.892 246.43 180.839C223.395 170.817 204.548 162.665 189.74 156.233Z" fill="black"/>
<path d="M78.9041 81.146C68.0598 70.1521 53.9997 56.0172 36.8732 38.6663C53.9997 56.0172 67.9102 70.1521 78.9041 81.146Z" fill="black"/>
<path d="M192.956 145.913C208.662 150.101 228.705 155.336 253.235 161.693C228.705 155.261 208.587 149.951 192.956 145.913Z" fill="black"/>
<path d="M109.717 62.0003C106.202 46.8183 101.64 27.5229 96.0305 3.9646C101.565 27.5977 106.127 46.8931 109.717 62.0003Z" fill="black"/>
<path d="M120.561 61.1776C119.439 45.472 117.869 25.2045 115.999 0.300049C117.869 25.2045 119.29 45.3972 120.561 61.1776Z" fill="black"/>
<path d="M165.359 72.3958C174.708 59.3826 186.674 42.4805 201.258 21.839C186.599 42.4805 174.708 59.2331 165.359 72.3958Z" fill="black"/>
<path d="M98.349 87.8022C92.5903 79.052 85.0368 67.8338 75.9874 54.2971C85.0368 67.8338 92.4408 79.052 98.349 87.8022Z" fill="black"/>
<path d="M106.127 82.6417C102.088 72.8445 96.8532 60.5793 90.4962 45.7712C96.7784 60.5793 102.014 72.9941 106.127 82.6417Z" fill="black"/>
<path d="M131.181 78.6032C132.527 67.9085 134.023 54.0727 135.967 37.4697C134.023 54.0727 132.378 67.7589 131.181 78.6032Z" fill="black"/>
<path d="M156.459 66.2632C163.639 51.9786 172.614 33.8799 183.608 11.8174C172.539 33.8799 163.49 52.0534 156.459 66.2632Z" fill="black"/>
<path d="M140.53 79.5755C143.745 69.18 147.709 56.092 152.57 40.2369C147.709 56.092 143.596 69.2548 140.53 79.5755Z" fill="black"/>
</svg>
