<svg width="256" height="257" viewBox="0 0 256 257" fill="none" xmlns="http://www.w3.org/2000/svg">
<path fill-rule="evenodd" clip-rule="evenodd" d="M252.097 160.147L166.139 142.56L239.781 191.165L161.324 151.987L219.812 217.977L154.178 159.793L193.609 238.706L145.258 165.52L162.946 251.934L135.172 168.713L129.85 256.8L124.579 169.22L96.6525 252.897L114.239 166.99L65.6345 240.581L104.863 162.124L38.8232 220.612L97.0073 154.978L18.0938 194.409L91.2802 146.058L4.86562 163.746L88.0871 135.972L0 130.701L87.5803 125.43L3.90257 97.5032L89.8103 115.04L16.2186 66.4345L94.6759 105.663L36.1876 39.6232L101.822 97.8073L62.3908 18.8938L110.742 92.0801L93.0541 5.66558L120.828 88.8871L126.099 0.799988L131.37 88.3803L159.297 4.70259L141.76 90.661L190.365 17.0186L151.137 95.4759L217.177 36.9877L158.993 102.622L237.906 63.1908L164.72 111.542L251.134 93.854L167.913 121.628L256 126.95L168.42 132.221L252.097 160.147ZM148.603 152.9C148.451 151.278 148.957 149.605 150.224 148.389C151.289 147.325 152.708 146.767 154.127 146.767C153.57 145.247 153.62 143.473 154.532 141.952C155.293 140.634 156.509 139.773 157.878 139.367C156.915 138.05 156.56 136.326 157.016 134.654C157.421 133.184 158.384 131.968 159.601 131.258C158.334 130.244 157.523 128.673 157.523 126.95C157.523 125.43 158.131 124.01 159.145 122.997C157.675 122.338 156.509 121.071 156.053 119.348C155.648 117.878 155.901 116.357 156.611 115.141C154.989 114.888 153.519 113.925 152.657 112.404C151.846 111.086 151.694 109.566 152.049 108.197C150.478 108.349 148.805 107.843 147.538 106.575C146.474 105.511 145.916 104.092 145.916 102.673C144.396 103.23 142.673 103.18 141.152 102.267C139.784 101.507 138.922 100.291 138.517 98.9223C137.199 99.8853 135.526 100.24 133.803 99.7839C132.333 99.3785 131.168 98.4155 130.458 97.1991C129.394 98.4662 127.873 99.2771 126.099 99.2771C124.579 99.2771 123.21 98.6689 122.197 97.6553C121.487 99.1251 120.22 100.291 118.548 100.747C117.027 101.152 115.557 100.899 114.29 100.189C114.037 101.811 113.074 103.281 111.604 104.143C110.236 104.903 108.766 105.106 107.347 104.7C107.549 106.322 106.992 107.995 105.775 109.262C104.66 110.326 103.241 110.884 101.822 110.884C102.43 112.404 102.329 114.127 101.467 115.648C100.707 116.966 99.4401 117.878 98.0716 118.283C99.0346 119.55 99.3894 121.274 98.9332 122.997C98.5785 124.467 97.6155 125.632 96.3485 126.342C97.6155 127.406 98.4264 128.927 98.4264 130.701C98.4264 132.221 97.8182 133.59 96.8046 134.603C98.2744 135.262 99.4908 136.58 99.8963 138.252C100.302 139.773 100.099 141.243 99.3895 142.51C100.961 142.763 102.43 143.675 103.343 145.196C104.103 146.564 104.255 148.034 103.9 149.453C105.522 149.251 107.195 149.808 108.411 151.024C109.475 152.14 110.033 153.559 110.033 154.978C111.553 154.37 113.327 154.471 114.848 155.333C116.166 156.093 117.027 157.36 117.433 158.728C118.75 157.765 120.474 157.411 122.146 157.867C123.616 158.221 124.782 159.184 125.542 160.452C126.555 159.184 128.127 158.374 129.85 158.374C131.37 158.374 132.79 158.982 133.803 159.995C134.462 158.526 135.729 157.309 137.452 156.853C138.922 156.498 140.443 156.701 141.659 157.411C141.912 155.839 142.875 154.37 144.396 153.457C145.714 152.697 147.234 152.545 148.603 152.9Z" fill="#644A07"/>
</svg>
