<svg width="257" height="256" viewBox="0 0 257 256" fill="none" xmlns="http://www.w3.org/2000/svg">
<path d="M256.5 127.944C256.5 147.18 252.25 165.41 244.645 181.851C244.645 181.851 244.608 181.925 244.533 182.074C242.222 186.995 239.612 191.767 236.704 196.39C236.406 196.837 236.108 197.322 235.81 197.844C233.349 201.646 230.665 205.3 227.757 208.804C225.968 211.041 224.067 213.203 222.053 215.291V215.402C218.325 219.354 214.411 223.045 210.31 226.474C201.922 233.408 192.752 239.224 182.91 243.921C173.851 248.171 164.233 251.415 154.167 253.428C152.974 253.651 151.781 253.875 150.588 254.099C149.544 254.322 148.538 254.471 147.569 254.546C145.406 254.919 143.244 255.217 141.082 255.441C137.578 255.739 134.073 255.925 130.569 256C129.898 256 129.19 256 128.444 256C123.299 256 118.192 255.702 113.122 255.105C112.526 255.031 111.966 254.956 111.445 254.882C109.133 254.583 106.859 254.211 104.622 253.763C103.578 253.614 102.535 253.428 101.491 253.204C91.649 251.079 82.2545 247.836 73.4192 243.586C71.6298 242.766 69.8776 241.908 68.1627 241.014C62.7944 238.106 57.6499 234.825 52.7289 231.172C51.4614 230.277 50.2312 229.345 49.0383 228.376C44.7884 225.021 40.7994 221.442 37.0714 217.639C36.4004 216.968 35.7666 216.297 35.1702 215.626C33.0079 213.315 30.9575 210.966 29.019 208.58C23.0915 201.311 17.9469 193.258 13.8089 184.758C10.5656 178.384 7.8814 171.561 5.75646 164.515C5.23454 162.801 4.78717 161.086 4.41437 159.371C4.11613 158.178 3.81791 157.022 3.51967 155.904C2.10304 149.492 1.17105 142.968 0.723692 136.332C0.649133 135.139 0.611812 133.946 0.611812 132.753C0.537252 132.306 0.5 131.858 0.5 131.411C0.5 130.293 0.5 129.137 0.5 127.944C0.5 111.168 3.74335 95.0633 9.67083 80.3005C9.89451 79.7041 10.1555 79.1076 10.4537 78.5111C14.3681 69.0048 19.5127 60.0577 25.552 51.8934C48.8146 20.3548 86.2807 0 128.444 0C199.238 0 256.5 57.2617 256.5 127.944Z" fill="url(#paint0_linear_1_1190)"/>
<path d="M218.139 141.588C218.139 158.588 214.448 174.804 207.738 189.343C207.738 189.343 207.663 189.418 207.514 189.567C205.501 193.966 203.227 198.179 200.692 202.205C200.394 202.652 200.096 203.062 199.798 203.435C197.635 206.865 195.287 210.108 192.752 213.165C191.111 215.178 189.396 217.117 187.607 218.981V219.093C184.326 222.597 180.859 225.878 177.206 228.935C169.825 235.086 161.66 240.23 152.937 244.368C151.52 245.039 150.104 245.636 148.687 246.158C141.977 249.066 134.819 251.302 127.438 252.756C126.394 252.98 125.313 253.204 124.194 253.427C123.374 253.576 122.517 253.726 121.622 253.875C119.683 254.098 117.782 254.322 115.918 254.546H115.806C114.39 254.695 112.936 254.807 111.445 254.881C109.133 254.583 106.859 254.21 104.622 253.763C103.578 253.614 102.535 253.427 101.491 253.204C91.649 251.079 82.2545 247.835 73.4192 243.585C71.6298 242.765 69.8776 241.908 68.1627 241.013C62.7944 238.105 57.6499 234.825 52.7289 231.171C51.4614 230.277 50.2312 229.345 49.0383 228.375C44.7884 225.02 40.7994 221.441 37.0714 217.639C36.4004 216.968 35.7666 216.297 35.1702 215.626C33.0079 213.314 30.9575 210.966 29.019 208.58C25.291 203.957 21.8986 199.111 18.8417 194.041C16.9777 191.058 15.3001 187.964 13.8089 184.758C10.5656 178.383 7.8814 171.561 5.75646 164.515C5.23454 162.8 4.78717 161.085 4.41437 159.371C4.11613 158.178 3.81791 157.022 3.51967 155.904C2.10304 149.491 1.17105 142.968 0.723692 136.332C0.649133 135.139 0.611812 133.946 0.611812 132.753C0.537252 132.305 0.5 131.858 0.5 131.411C0.5 130.292 0.5 129.137 0.5 127.944C0.5 111.168 3.74335 95.063 9.67083 80.3002C9.89451 79.7037 10.1555 79.1073 10.4537 78.5108C11.423 77.0196 12.4295 75.5657 13.4733 74.1491C34.0517 46.1893 67.268 28.0713 104.734 28.0713C167.364 28.0713 218.139 78.9581 218.139 141.588Z" fill="url(#paint1_linear_1_1190)"/>
<path d="M184.587 174.916C184.587 188.225 181.568 200.863 176.311 212.27C176.311 212.27 176.274 212.345 176.199 212.494C174.634 215.924 172.844 219.204 170.831 222.336C170.607 222.709 170.384 223.044 170.16 223.342C168.445 225.952 166.619 228.487 164.68 230.948C163.412 232.513 162.07 234.042 160.654 235.533C158.119 238.292 155.397 240.864 152.49 243.25C151.222 244.294 149.954 245.263 148.687 246.158C141.977 249.065 134.819 251.302 127.438 252.756C126.394 252.98 125.313 253.203 124.194 253.427C123.374 253.576 122.517 253.725 121.622 253.875C119.683 254.098 117.782 254.322 115.918 254.546H115.806C114.39 254.695 112.936 254.807 111.445 254.881C109.133 254.583 106.859 254.21 104.622 253.763C103.578 253.614 102.535 253.427 101.491 253.204C91.649 251.079 82.2545 247.835 73.4192 243.585C71.6298 242.765 69.8776 241.908 68.1627 241.013C62.7945 238.105 57.6499 234.825 52.7289 231.171C51.4614 230.276 50.2312 229.345 49.0383 228.375C44.7884 225.02 40.7994 221.441 37.0715 217.639C36.4004 216.968 35.7666 216.297 35.1702 215.626C33.0079 213.314 30.9576 210.966 29.019 208.58C25.291 203.957 21.8986 199.111 18.8417 194.041C18.6926 193.593 18.5434 193.183 18.3943 192.81C18.0215 191.543 17.6859 190.238 17.3877 188.896C17.0895 188.001 16.8658 187.069 16.7167 186.1C15.5983 181.105 14.8527 175.997 14.4799 170.778C14.4054 169.883 14.3681 168.951 14.3681 167.982C14.3681 167.684 14.3681 167.348 14.3681 166.975C14.2935 166.081 14.2562 165.186 14.2562 164.291C14.2562 151.094 16.8286 138.568 21.414 127.049C21.6376 126.527 21.8613 126.042 22.085 125.595C22.8306 124.477 23.6135 123.358 24.4336 122.24C40.5385 100.319 66.4852 86.2275 95.787 86.2275C144.773 86.2275 184.587 125.931 184.587 174.916Z" fill="url(#paint2_linear_1_1190)"/>
<path d="M235.81 197.844C233.349 201.646 230.665 205.3 227.757 208.804C225.968 211.041 224.067 213.203 222.053 215.291V215.402C218.325 219.354 214.411 223.045 210.31 226.475C201.922 233.409 192.752 239.224 182.91 243.921C173.851 248.171 164.233 251.415 154.167 253.428C152.974 253.651 151.781 253.875 150.588 254.099C149.544 254.322 148.538 254.472 147.569 254.546C145.406 254.919 143.244 255.217 141.082 255.441C137.578 255.739 134.073 255.926 130.569 256C129.898 256 129.19 256 128.444 256C123.299 256 118.192 255.702 113.122 255.105C110.214 254.733 107.381 254.285 104.622 253.763C103.578 253.614 102.535 253.428 101.491 253.204C91.649 251.079 82.2545 247.836 73.4192 243.586C71.6298 242.766 69.8776 241.908 68.1627 241.014C62.7945 238.106 57.6499 234.825 52.7289 231.172C53.7355 217.751 55.8604 155.568 55.8604 155.568L92.4319 107.478L144.549 81.7545L168.259 78.623L191.186 114.523C175.976 104.458 156.516 112.51 145.444 124.925C132.806 139.016 130.681 159.371 135.714 177.153C139.181 189.344 145.779 201.199 155.397 209.587C178.213 229.606 219.146 222.225 235.81 197.844Z" fill="url(#paint3_linear_1_1190)"/>
<path d="M191.186 114.524C191.186 114.524 174.746 96.2941 151.483 100.656C128.332 105.018 122.069 122.241 122.069 122.241C122.069 122.241 119.609 108.708 124.865 102.445C124.865 102.445 86.5044 124.478 72.86 163.174C59.3274 201.87 70.064 246.494 113.122 255.106C110.214 254.733 107.381 254.286 104.622 253.764C103.578 253.615 102.535 253.428 101.491 253.205C91.649 251.08 82.2545 247.836 73.4192 243.586C71.6298 242.766 69.8776 241.909 68.1627 241.014C62.7944 238.106 57.6499 234.826 52.7289 231.172C51.4614 230.278 50.2312 229.346 49.0383 228.376C44.7884 225.021 40.7994 221.442 37.0714 217.64C36.4004 216.969 35.7666 216.298 35.1702 215.627C33.0079 213.315 30.9575 210.967 29.019 208.581C23.0915 201.311 17.9469 193.259 13.8089 184.759C10.5656 178.384 7.8814 171.562 5.75646 164.516C5.23454 162.801 4.78717 161.086 4.41437 159.371C4.11613 158.179 3.81791 157.023 3.51967 155.904C2.10304 149.492 1.17105 142.968 0.723692 136.333C0.649133 135.14 0.611812 133.947 0.611812 132.754C0.537252 132.306 0.5 131.859 0.5 131.412C24.3218 110.274 52.7289 87.7944 80.9124 71.5777C141.977 36.4602 172.621 53.7953 180.897 66.9923C188.166 78.5117 183.133 91.0377 183.133 91.0377C183.133 91.0377 194.541 98.7546 191.186 114.524Z" fill="url(#paint4_linear_1_1190)"/>
<path d="M165.575 76.1632C163.673 78.0645 160.542 78.0645 158.529 76.1632C156.628 74.1501 156.628 71.0186 158.529 69.1174C160.542 67.2161 163.673 67.2161 165.575 69.1174C167.476 71.0186 167.476 74.1501 165.575 76.1632Z" fill="url(#paint5_linear_1_1190)"/>
<defs>
<linearGradient id="paint0_linear_1_1190" x1="256.546" y1="-0.0335518" x2="256.546" y2="256.037" gradientUnits="userSpaceOnUse">
<stop stop-color="#E9E74F"/>
<stop offset="0.995" stop-color="#D38931"/>
</linearGradient>
<linearGradient id="paint1_linear_1_1190" x1="-124.261" y1="117.08" x2="105.519" y2="-59.9861" gradientUnits="userSpaceOnUse">
<stop stop-color="#E9E74F"/>
<stop offset="0.995" stop-color="#D38931"/>
</linearGradient>
<linearGradient id="paint2_linear_1_1190" x1="-75.6066" y1="156.643" x2="100.199" y2="21.1688" gradientUnits="userSpaceOnUse">
<stop stop-color="#E9E74F"/>
<stop offset="0.995" stop-color="#D38931"/>
</linearGradient>
<linearGradient id="paint3_linear_1_1190" x1="57.8344" y1="226.384" x2="55.4574" y2="77.602" gradientUnits="userSpaceOnUse">
<stop stop-color="white"/>
<stop offset="1" stop-color="#EEC071"/>
</linearGradient>
<linearGradient id="paint4_linear_1_1190" x1="266.516" y1="218.561" x2="-96.0815" y2="434.614" gradientUnits="userSpaceOnUse">
<stop stop-color="white"/>
<stop offset="1" stop-color="#EEC071"/>
</linearGradient>
<linearGradient id="paint5_linear_1_1190" x1="153.118" y1="67.2742" x2="164.042" y2="65.2533" gradientUnits="userSpaceOnUse">
<stop offset="0.695" stop-color="#EFC378"/>
<stop offset="1" stop-color="#EEC071"/>
</linearGradient>
</defs>
</svg>
