<svg width="257" height="184" viewBox="0 0 257 184" fill="none" xmlns="http://www.w3.org/2000/svg">
<path d="M132.396 100.704C132.396 137.214 102.958 166.653 66.4482 166.653C30.0829 166.653 0.5 137.214 0.5 100.704C0.5 64.3392 30.0829 34.7563 66.4482 34.7563C102.958 34.7563 132.396 64.3392 132.396 100.704Z" fill="#5C5259"/>
<path d="M66.4482 138.801C45.5238 138.801 28.4956 121.773 28.4956 100.704C28.4956 79.78 45.5238 62.7518 66.4482 62.7518C87.3727 62.7518 104.545 79.78 104.545 100.704C104.545 121.773 87.3727 138.801 66.4482 138.801Z" fill="white"/>
<path d="M256.5 100.704C256.5 137.214 226.917 166.653 190.552 166.653C154.042 166.653 124.604 137.214 124.604 100.704C124.604 64.3392 154.042 34.7563 190.552 34.7563C226.917 34.7563 256.5 64.3392 256.5 100.704Z" fill="#5C5259"/>
<path d="M190.552 138.801C169.483 138.801 152.455 121.773 152.455 100.704C152.455 79.78 169.483 62.7518 190.552 62.7518C211.476 62.7518 228.505 79.78 228.505 100.704C228.505 121.773 211.476 138.801 190.552 138.801Z" fill="white"/>
<path d="M12.1887 0.699951L128.644 136.348L245.1 0.699951L128.789 38.6526L12.1887 0.699951Z" fill="#5C5259"/>
<path d="M153.177 146.161C153.177 166.508 128.644 183.104 128.644 183.104C128.644 183.104 104.112 166.508 104.112 146.161C104.112 125.669 115.08 119.609 128.644 119.609C142.209 119.609 153.177 125.669 153.177 146.161Z" fill="#FBB040"/>
</svg>
