<svg width="257" height="256" viewBox="0 0 257 256" fill="none" xmlns="http://www.w3.org/2000/svg">
<path fill-rule="evenodd" clip-rule="evenodd" d="M223.532 188.24C216.49 195.338 214.869 193.773 206.095 195.115C197.32 196.456 195.197 192.264 190.502 185.558C185.751 178.795 180.722 167.003 175.3 158.564C169.879 150.125 153.001 158.564 139.867 136.6C126.733 114.691 143.22 95.1305 143.22 95.1305C127.069 102.508 132.099 130.899 132.099 130.899C99.0128 146.38 94.0387 168.288 93.6475 204.113C93.2004 244.799 76.0985 255.754 76.0985 255.754C77.1045 205.789 30.1025 182.931 10.821 152.584C-8.40461 122.236 5.0086 87.362 5.0086 87.362C14.8449 80.1524 28.6494 73.6135 39.4358 68.863C40.5536 82.1085 50.9488 93.7333 59.4438 110.723C69.5596 131.011 64.6414 151.242 64.6414 151.242C76.6574 130.34 60.7852 101.725 53.1285 81.8849C51.6754 78.0287 50.8929 74.5636 50.6694 71.4338C50.334 67.2422 52.9049 63.3859 56.873 62.0446C56.9102 62.0073 56.9289 61.9887 56.9289 61.9887C58.2143 68.9747 63.0207 75.9049 70.9009 89.8211C82.4139 110.053 77.6634 126.707 77.6634 126.707C87.5557 110.723 76.7692 91.1624 70.6774 73.837C70.0626 71.9927 69.6714 70.2602 69.5037 68.5835C68.889 62.6035 72.8011 57.1264 78.6694 55.6733H78.7253C77.6634 63.2741 80.4019 71.2103 87.5556 83.0586C97.4479 99.4898 92.7533 115.027 92.7533 115.027C102.422 100.831 89.5676 81.7173 86.4379 66.4039C86.4379 66.3666 86.4193 66.3107 86.382 66.2362C85.0966 59.5855 89.6794 53.1583 96.386 51.9847C96.9449 51.9102 97.4851 51.817 98.0068 51.7052C95.883 58.6354 98.7333 64.9508 102.645 77.4698C107.34 92.5037 103.596 104.464 103.596 104.464C111.141 96.8071 105.552 77.2462 103.763 63.1065C103.763 63.0319 103.745 62.9574 103.707 62.8829C102.925 56.1204 108.011 50.0845 114.773 49.3579L115.053 49.302C112.258 55.3939 112.929 58.0765 115.444 66.6274C118.406 76.6314 114.382 87.8091 113.935 89.0386C115.332 85.4059 121.368 78.4199 117.568 65.3979C115.556 58.4118 118.853 52.4318 121.033 49.8609C121.703 49.0785 122.654 48.5755 123.66 48.5196C120.474 56.7911 124.33 61.0945 125.113 67.5216C126.23 76.9109 120.865 83.7293 120.865 83.7293C120.865 83.7293 128.131 76.9668 126.733 65.3979C124.889 50.5875 136.849 47.8489 136.849 47.8489C136.514 59.0266 148.977 71.1544 148.977 71.1544C117.456 85.0706 120.418 122.46 120.418 122.46C68.1065 150.125 79.1165 197.686 79.1165 197.686C79.1165 197.686 74.3101 194.053 45.6953 167.003C3.22016 126.707 21.1044 81.6055 21.1044 81.6055C-4.54832 121.789 23.6753 159.57 57.5436 188.576C81.3521 208.975 81.1285 236.807 81.1285 236.807C86.885 228.033 86.885 215.234 87.2203 181.143C87.5557 145.374 127.18 124.472 127.18 124.472C124.107 80.2642 161.44 72.4957 161.44 72.4957C141.879 62.7152 140.538 37.0625 140.538 37.0625C151.66 47.5136 186.087 62.6035 186.087 62.6035C206.71 78.4758 207.045 105.358 210.398 123.578C213.751 141.797 225.935 162.588 229.624 171.027C233.312 179.466 230.63 181.143 223.532 188.24ZM191.899 122.628C191.62 119.945 189.999 116.983 185.807 114.3C177.815 109.27 173.177 104.631 173.177 104.631C173.177 104.631 172.45 117.877 178.486 122.739C182.007 125.59 185.751 126.931 188.49 126.707C190.558 126.54 192.067 124.751 191.899 122.628Z" fill="#231F20"/>
<path d="M255.836 0.457765L217.72 25.9428C217.999 26.2223 218.167 26.3899 218.167 26.3899V27.4518C217.757 27.1165 217.347 26.7812 216.937 26.4458L211.628 30.0227C213.137 31.364 213.975 32.2023 213.975 32.2023V33.3201C212.969 32.4259 211.796 31.5317 210.566 30.6934L205.424 34.1584C208.163 36.3381 209.839 38.0706 209.839 38.0706V39.1325C208.163 37.6794 206.151 36.3381 204.027 35.1085L199.109 38.4059C203.133 41.3121 205.704 43.9389 205.704 43.9389V45.0008C203.356 42.9888 200.394 41.1445 197.376 39.5237L192.682 42.6535C197.991 46.1185 201.568 49.7513 201.568 49.7513V50.8132C198.55 48.2423 194.526 45.9509 190.614 44.0507L186.087 47.0686C192.738 50.869 197.376 55.6196 197.376 55.6196V56.6814C193.688 53.4399 188.378 50.7014 183.74 48.6335L177.312 52.9369C187.428 56.9609 195.197 65.4 195.197 65.4L256.339 1.07254C256.674 0.73721 256.227 0.234211 255.836 0.457765Z" fill="#231F20"/>
</svg>
