<svg width="257" height="257" viewBox="0 0 257 257" fill="none" xmlns="http://www.w3.org/2000/svg">
<path d="M256.294 116.319C256.294 117.183 256.294 118.047 256.294 118.911C256.553 183.623 204.368 236.24 139.656 236.499C74.9429 236.759 22.3262 184.574 22.067 119.861C21.8078 55.1488 73.9926 2.53199 138.705 2.27279C146.222 2.27279 153.652 2.96397 160.737 4.25995C150.369 1.58159 139.569 0.199219 128.337 0.199219C57.6632 0.544813 0.640122 58.0863 0.899318 128.76C1.15851 199.348 58.7 256.458 129.374 256.198C200.048 255.853 257.071 198.311 256.812 127.724C256.812 123.864 256.639 120.063 256.294 116.319Z" fill="#006699"/>
<path d="M178.016 4.34766C180.867 6.93961 183.718 9.61797 186.224 12.3827C221.043 48.9293 228.732 95.5846 209.033 106.816C201.689 111.05 191.494 107.94 176.72 98.8677C164.106 91.0919 148.122 78.9961 127.732 63.2715C130.67 66.2091 133.463 69.3194 136.113 72.6026C183.114 130.835 181.299 239.957 73.9922 202.028C75.0866 202.776 76.2097 203.468 77.3617 204.101C195.469 276.071 330.855 98.0038 178.016 4.34766Z" fill="#006699"/>
<path d="M198.837 89.3604C206.958 84.6949 208.859 72.8583 203.07 63.0088C197.368 53.2458 186.223 49.0986 178.101 53.7642C170.066 58.4297 168.165 70.2663 173.868 80.0294C179.656 89.8788 190.802 94.0259 198.837 89.3604Z" fill="#006699"/>
<path d="M135.68 20.0703C82.2857 20.0703 39 63.2696 39 116.664C39 148.718 54.6381 177.143 78.657 194.682C60.2541 176.711 48.763 151.655 48.763 123.921C48.763 69.4039 92.9127 25.1678 147.43 25.1678C158.662 25.1678 169.376 27.0686 179.311 30.4381C166.265 23.7855 151.405 20.0703 135.68 20.0703Z" fill="#41A500"/>
<path d="M120.476 110.961H99.0495V127.549H82.4609V148.976H99.0495V165.565H120.476V148.976H137.065V127.549H120.476V110.961Z" fill="#41A500"/>
</svg>
