<svg width="257" height="257" viewBox="0 0 257 257" fill="none" xmlns="http://www.w3.org/2000/svg">
<path d="M164.715 5.56386C163.836 5.30039 163.134 5.03691 161.992 4.77344C162.929 5.00763 163.836 5.27111 164.715 5.56386Z" fill="#808080"/>
<path d="M158.045 111.833C157.869 111.745 157.781 111.306 157.781 111.042C157.869 110.691 158.133 110.076 158.484 109.988C159.274 109.9 159.977 111.306 160.592 111.833C159.801 111.833 158.66 112.272 158.045 111.833Z" fill="#F2F2F2"/>
<path d="M157.165 14.2582C154.091 20.3181 143.64 20.2303 141.883 15.4878C140.039 10.4818 149.875 6.00281 155.233 7.14452C158.57 8.28623 158.131 12.3261 157.165 14.2582Z" fill="#0095C9"/>
<path d="M125.287 5.21293C107.898 9.77978 107.283 7.75983 107.546 7.05724C108.6 3.71993 129.766 0.558266 136.792 1.96345C136.85 1.96345 136.909 1.99273 136.967 2.05128C136.967 2.10983 136.967 2.16837 136.967 2.22692C136.528 2.40257 136.528 2.40258 133.191 3.19299C130.995 3.71994 130.995 3.71992 125.287 5.21293Z" fill="#0095C9"/>
<path d="M160.154 4.33343C160.095 4.33343 160.007 4.33343 159.89 4.33343C158.221 3.98213 156.816 3.89432 155.06 3.80649C152.776 3.71867 151.723 3.54302 151.547 3.36737C151.723 3.1039 155.411 3.01607 161.998 4.77255C161.647 4.68472 160.154 4.33343 160.154 4.33343Z" fill="#0095C9"/>
<path d="M161.907 4.77478C161.029 4.95043 160.326 5.38956 159.448 5.38956C158.921 5.38956 158.921 5.38955 158.043 5.2139C157.955 5.2139 157.779 5.12609 157.691 5.12609H157.604C154.178 4.24785 146.011 5.47738 141.795 7.93645C140.741 8.55122 139.775 9.07816 138.721 9.69293C136.877 10.5712 136.35 10.8346 134.945 11.2738C127.568 13.9963 121.596 12.8546 122.825 10.0442C124.055 6.97038 132.749 4.16002 141.356 3.98438C143.376 3.98438 143.727 3.98438 144.869 4.24785L145.045 4.33567H145.22L145.133 4.42349H145.308C150.402 5.56521 155.408 3.7209 160.502 4.42349C160.59 4.51132 160.765 4.51132 160.853 4.51132C161.204 4.59915 161.204 4.59914 161.995 4.77478C161.936 4.77478 161.907 4.77478 161.907 4.77478Z" fill="#0095C9"/>
<path d="M158.832 3.9829C156.988 3.54379 155.407 3.28032 154.353 3.19249C152.685 2.92902 151.455 2.75337 148.996 2.40207C146.976 2.22642 146.801 2.13861 146.625 2.05078C147.152 2.05078 152.597 2.22642 161.994 4.77331C161.379 4.59767 158.92 3.9829 158.832 3.9829Z" fill="#0095C9"/>
<path d="M115.008 2.75371C98.146 5.6519 98.146 5.6519 97.5312 5.38843C99.0243 2.66588 124.493 -0.495785 131.168 0.645926C130.817 0.73375 130.817 0.733752 129.236 0.9094C125.898 1.17287 121.771 1.612 115.008 2.75371Z" fill="#0095C9"/>
<path d="M157.519 3.63513C157.284 3.57658 157.05 3.51802 156.816 3.45947C152.249 2.40558 148.824 1.87864 146.102 1.52734C151.43 2.22994 156.728 3.31309 161.998 4.77683C161.119 4.51335 157.606 3.63513 157.519 3.63513Z" fill="#0095C9"/>
<path d="M159.1 3.984C153.831 2.75446 149.264 2.05187 145.224 1.52492C144.17 1.4371 144.17 1.4371 143.38 1.26145H143.556C142.326 1.0858 130.997 -0.582848 115.803 0.910159C113.959 1.08581 113.959 1.0858 109.48 1.70057C106.845 2.05186 105.001 2.40317 103.42 2.75447C101.137 3.19359 99.8192 3.45706 98.4141 3.80835C99.4679 3.57415 100.493 3.33995 101.488 3.10576C107.987 1.70057 114.574 0.822335 121.248 0.471039C124.41 0.295391 127.572 0.236845 130.733 0.295394C139.603 0.471042 148.562 1.61275 157.344 3.54488L157.432 3.63271C157.783 3.69126 158.134 3.77907 158.486 3.89617C159.627 4.15964 159.627 4.15964 161.999 4.77441C161.12 4.51093 159.979 4.24747 159.1 3.984Z" fill="#0095C9"/>
<path d="M125.465 118.156C119.581 133.438 98.24 134.228 92.3558 119.386C87.262 106.563 97.8008 91.0186 113.697 94.5316C125.29 98.308 128.803 109.462 125.465 118.156Z" fill="#0095C9"/>
<path d="M93.5813 21.9008C82.779 29.5415 71.9766 30.6832 72.8549 25.6772C74.0844 18.9148 93.3178 9.95674 100.607 11.3619C105.701 13.294 93.6691 21.813 93.5813 21.9008Z" fill="#0095C9"/>
<path d="M43.8768 95.1463C38.6952 108.144 27.8051 112.887 23.853 103.841C19.1983 93.0386 29.0346 71.6095 40.5395 73.8051C47.302 76.2642 47.3898 86.6274 43.8768 95.1463Z" fill="#0095C9"/>
<path d="M149.259 37.3562C148.293 39.5518 144.077 46.6655 132.046 44.3821C132.046 44.3821 132.016 44.3821 131.958 44.3821C131.87 44.3821 130.289 43.7673 129.938 43.5917H129.762C120.804 40.957 107.279 44.8212 99.9899 57.1166C99.9899 57.1166 99.9899 57.1459 99.9899 57.2044C99.902 57.2922 99.8142 57.4679 99.8142 57.5557C99.6386 57.8192 99.6386 57.907 99.5507 57.907V58.0826L99.4629 58.1705C99.3751 58.4339 99.2873 58.6974 99.1995 58.8731C98.8482 59.7513 98.8482 59.7513 96.916 63.2643L96.4769 63.7912C87.8702 74.9448 71.5349 74.7692 70.3054 63.4399C69.4272 55.7114 77.7704 43.8552 91.0318 43.3282L94.0179 43.8552C94.2813 43.943 94.6326 44.1186 94.8961 44.2065C95.6865 44.5578 95.6865 44.5578 95.7743 44.6456H95.8622C104.557 47.1925 118.433 42.8013 125.195 32.1746C125.371 31.9989 125.371 31.9111 125.371 31.9111L125.459 31.8233L125.547 31.7355L125.722 31.2964C126.074 30.5938 126.074 30.5937 128.006 28.0469C132.836 23.7435 137.93 22.0748 143.024 23.2165C150.489 25.5878 151.103 33.0528 149.259 37.3562Z" fill="#0095C9"/>
<path d="M138.202 73.3666C135.655 79.6021 129.507 82.8516 124.589 83.3785C122.042 83.7298 122.042 83.7298 117.036 82.7637C116.861 82.7637 114.753 81.9733 114.489 81.7977H114.314C98.3298 77.0552 84.278 89.9653 81.9946 100.592C81.1163 103.841 81.1163 103.841 79.9746 106.915C78.2181 110.077 77.8669 110.516 76.1104 112.536C66.1863 123.163 51.871 117.542 51.6953 102.963C51.6953 94.2687 57.0526 86.0132 64.5176 83.2907C68.0306 82.149 69.1723 82.3246 72.9487 82.9394C73.3 83.115 73.7391 83.2907 74.0904 83.4663C74.2661 83.4663 74.4417 83.5541 74.6174 83.642V83.7298L75.32 83.9054C89.0205 87.9453 103.863 76.1769 107.112 66.3407V66.2528C107.2 65.9894 107.288 65.6381 107.376 65.3746C107.727 64.4085 107.727 64.4085 109.571 60.8956C111.503 58.4365 117.563 51.0593 128.541 53.5184C139.344 57.0313 140.749 67.2189 138.202 73.3666Z" fill="#0095C9"/>
<path d="M118.087 28.839C115.189 32.0007 110.007 35.7771 102.015 35.9527L99.2047 35.5136C98.4143 35.1623 97.6239 34.811 97.6239 34.811L97.5361 34.7232C87.612 31.825 72.8576 40.0805 66.8855 49.0385L66.7977 49.1263C66.7099 49.302 66.5342 49.6533 66.3586 49.8289C65.7438 50.9706 65.7438 50.9706 63.3726 54.1323C61.177 56.4157 60.9135 56.767 58.8057 58.5235C50.3746 65.4616 41.7679 64.759 42.3827 57.1183C42.9096 49.7411 51.692 39.9048 60.3866 36.9188C62.3187 36.304 62.8456 36.2162 64.2508 36.1284C64.5143 36.0406 64.5143 36.1284 64.5143 36.1284V36.0406L66.4464 36.3918C66.6221 36.4797 66.8855 36.5675 67.0612 36.6553C67.2368 36.7431 67.5003 36.831 67.6759 36.9188L67.7638 37.0066C74.7019 39.0266 87.8754 33.4937 97.8874 24.4478L97.9752 24.36C98.063 24.2721 98.063 24.2722 98.063 24.2722C98.2387 24.1843 98.3265 24.0087 98.5021 23.9209C99.2926 23.1304 99.2926 23.1304 102.015 21.0227L102.542 20.6714C104.035 19.7053 111.939 15.1385 118.702 16.5436C124.761 18.6514 121.512 25.2382 118.087 28.839Z" fill="#0095C9"/>
<path d="M19.1069 89.2635C14.8913 100.241 9.35841 106.477 7.42629 102.525C4.26462 96.3772 13.8374 68.537 20.9512 69.2396C24.5519 70.9083 21.7416 82.4132 19.1069 89.2635Z" fill="#0095C9"/>
<path d="M76.189 17.4198C63.3667 24.7092 60.3807 24.6214 59.0633 24.5336C58.9755 24.4457 58.7998 24.3579 58.712 24.1823C55.6382 23.7431 47.2949 28.4856 36.2291 39.7271C36.1705 39.7857 36.1413 39.8149 36.1413 39.8149C35.9656 39.9906 35.79 40.1662 35.7021 40.2541C35.5265 40.4297 35.5265 40.4297 35.5265 40.5175L35.3509 40.6053L35.263 40.6932C35.0874 40.8688 34.8239 41.1323 34.7361 41.3079C33.9457 42.1862 33.9457 42.1862 31.1353 45.3478L30.6083 45.8748C27.0076 50.0903 25.3389 52.3738 24.1094 54.1302C27.2125 49.739 30.5498 45.582 34.1213 41.6592C37.8099 37.6779 41.7327 33.9307 45.8897 30.4178C48.0853 28.6613 57.0434 22.5136 67.7579 16.4538C67.9335 16.3659 68.0213 16.3659 68.0213 16.2781L68.197 16.1903H68.3726C68.5483 16.0146 68.7239 15.9268 68.9874 15.839C70.0413 15.2242 70.0413 15.2242 73.7299 13.2921C81.2828 9.77915 86.9913 8.19832 88.8356 8.46179C88.9234 8.54961 89.0113 8.63743 89.0991 8.72525C88.3965 10.0426 84.0931 12.9408 76.189 17.4198Z" fill="#0095C9"/>
<path d="M42.1156 47.2833C40.5348 49.0398 35.0018 55.2753 30.1715 57.6465C29.0298 58.2613 29.0298 58.2613 27.0977 58.3491C26.922 58.1734 26.7464 57.9978 26.5708 57.91H26.4829C21.3891 57.2074 13.6606 70.9957 9.70856 80.9198C9.18161 82.2372 9.18161 82.2372 7.42513 87.2432C7.16166 88.0336 6.37125 90.317 5.40519 93.303C4.96607 94.796 4.52694 96.2012 4 98.4846C4.29275 97.1965 4.61477 95.9377 4.96607 94.7082C6.81037 87.8579 9.18162 81.2711 11.992 75.1235C13.2215 72.3716 14.5682 69.6784 16.0319 67.0437C19.1057 61.9499 26.6586 52.7284 32.1915 45.9659L32.2793 45.8781C32.455 45.6146 32.7184 45.2633 32.8941 45.0877C33.6845 44.1216 33.6845 44.1216 36.4949 41.0478C42.3791 35.1636 47.385 31.8263 49.8441 32.1776C52.9179 33.5827 45.2772 43.5068 42.1156 47.2833Z" fill="#0095C9"/>
<path d="M96.8354 233.468C94.6398 240.845 85.7696 241.197 80.588 231.624C76.7237 224.686 79.4462 217.748 87.9652 219.68C95.4302 222.051 98.3284 228.638 96.8354 233.468Z" fill="#0095C9"/>
<path d="M35.4414 140.99C33.9484 152.846 26.5712 157.676 20.7748 150.562C12.3437 140.024 15.7688 117.541 25.7807 118.507C26.0442 118.507 26.4833 118.595 26.7468 118.682C34.2997 121.405 36.4074 133.349 35.4414 140.99Z" fill="#0095C9"/>
<path d="M54.415 221.526C60.2114 230.66 58.1914 230.133 57.4889 229.957C51.5168 228.376 33.7764 208.791 38.1676 206.069C38.6067 205.805 39.2215 205.981 39.6606 206.069C45.5448 208.089 52.3951 218.452 54.415 221.526Z" fill="#0095C9"/>
<path d="M114.049 161.101C112.38 166.546 107.462 175.328 93.4983 172.693C93.4983 172.693 93.469 172.693 93.4105 172.693C93.3226 172.606 91.3905 171.903 90.9514 171.727L90.7757 171.639C81.5542 168.917 68.205 172.342 67.6781 188.238C67.6781 188.297 67.6781 188.326 67.6781 188.326C67.6781 188.502 67.6781 188.677 67.6781 188.765C67.6781 189.029 67.6781 189.116 67.6781 189.116L67.7659 189.292V189.38C67.7659 189.643 67.7659 189.907 67.8537 190.17C67.9415 191.049 67.9415 191.049 67.9415 194.562L67.7659 195.088C66.1851 205.452 56.7001 205.803 49.5863 195.615C43.6143 187.096 42.2091 173.835 52.4845 172.957L55.4705 173.396C55.8218 173.572 55.8218 173.572 56.4366 173.835C57.4027 174.186 57.4027 174.186 57.4905 174.274H57.6661C68.205 177.436 79.0073 168.653 80.8516 155.48C80.8516 155.48 80.8516 155.451 80.8516 155.392V155.216V155.041C80.9395 154.777 80.9395 154.514 80.9395 154.338C81.0273 152.933 81.0273 152.933 81.9933 149.069C85.9454 140.725 92.4444 137.476 101.139 139.408C110.887 142.57 116.069 151.264 114.049 161.101Z" fill="#0095C9"/>
<path d="M103.509 203.26C102.982 204.928 100.523 210.373 93.6727 211.515C91.8284 211.866 91.8284 211.866 88.2276 211.164C88.1397 211.164 86.5589 210.549 86.2076 210.461L86.1198 210.373C74.9662 207.124 69.2576 215.291 72.5949 223.986C73.3853 226.445 73.3853 226.445 73.8245 227.762C74.1757 229.958 74.1757 229.958 74.1757 230.924C73.9123 238.213 65.3055 230.485 62.2317 227.148C56.8744 221.263 54.591 214.94 57.0501 212.657C58.2796 211.603 58.9822 211.691 61.1778 212.13C61.4413 212.218 61.7926 212.305 62.0561 212.393C62.1439 212.481 62.2317 212.481 62.4073 212.569V212.657L62.8465 212.745C72.4193 215.555 77.3374 204.313 76.8105 197.2V197.112C76.8105 196.673 76.8105 196.673 76.7226 196.321C76.6348 195.18 76.6348 195.18 76.9861 191.842C79.2695 184.729 84.3633 182.006 92.004 183.675C102.367 187.012 105.968 196.234 103.509 203.26Z" fill="#0095C9"/>
<path d="M70.136 150.916C69.1699 154.955 66.2717 161.894 57.5772 162.596L54.5033 162.069C54.4155 162.069 52.7469 161.367 52.3956 161.191H52.2199C41.4176 158.029 34.3038 167.602 37.5533 180.951L37.6411 181.039C37.729 181.303 37.8168 181.654 37.8168 181.917C38.1681 183.059 38.1681 183.059 38.9585 186.66C39.222 189.822 39.222 189.822 39.1341 191.315C38.7829 197.638 35.0943 198.34 30.0883 192.983C22.7989 185.255 18.5834 171.203 22.1841 166.636C23.0624 165.67 23.5015 165.582 24.2919 165.319C24.5554 165.319 24.5554 165.319 24.5554 165.319V165.231L26.3997 165.494C26.5753 165.582 26.9266 165.758 27.1901 165.846C27.3657 165.933 27.717 166.109 27.8927 166.197H27.9805C36.4116 168.744 42.5593 157.327 43.0862 145.119V144.944C43.0862 144.768 43.0862 144.768 43.0862 144.768C43.0862 144.592 43.0862 144.329 43.0862 144.065C43.0862 142.66 43.0862 142.66 43.6132 138.532L43.8766 137.918C44.4914 135.81 48.0044 125.622 58.8067 127.906C69.5212 131.506 71.8046 143.538 70.136 150.916Z" fill="#0095C9"/>
<path d="M42.1144 218.625C50.0186 227.846 50.0186 227.846 50.1064 228.198C50.0479 228.198 49.9893 228.227 49.9308 228.286C43.6953 225.739 24.1105 204.134 27.1844 203.168C27.2722 203.168 27.36 203.168 27.4479 203.168C29.7313 204.134 33.859 208.964 42.1144 218.625Z" fill="#0095C9"/>
<path d="M11.5527 133.261C11.2014 148.63 7.86413 148.981 6.81025 149.069C6.81025 149.069 6.78097 149.069 6.72242 149.069C6.10765 148.718 6.10763 148.718 6.01981 148.63L5.93201 148.542C2.50687 148.191 3.47292 158.291 8.30324 172.079C8.36179 172.138 8.39107 172.196 8.39107 172.255C8.39107 172.343 8.4789 172.518 8.56673 172.606C8.65455 172.957 8.65453 173.045 8.65453 173.045L8.74236 173.221L8.83019 173.396C8.91801 173.572 9.00582 173.923 9.09365 174.187C9.44494 175.065 9.44496 175.065 11.1136 179.105L11.3771 179.72C12.9579 183.496 14.2753 186.131 15.7683 188.941C13.1336 184.14 10.8501 179.193 8.91802 174.099C7.04444 169.239 5.46361 164.263 4.17553 159.169C3.82423 157.412 2.85815 151.528 2.06773 134.051C2.06773 133.993 2.06773 133.963 2.06773 133.963V133.7L1.97993 133.612C1.97993 133.349 1.97993 133.085 1.97993 132.822C1.89211 131.504 1.89211 131.504 1.97993 127.289C2.50687 118.419 4.26335 113.501 6.81025 113.764C9.70844 114.994 11.5527 122.634 11.5527 133.261Z" fill="#0095C9"/>
<path d="M19.5516 180.424C20.8689 184.376 22.3619 189.557 22.1863 192.104C22.0984 192.455 22.0984 192.543 21.835 192.895C21.6593 192.895 21.3958 192.895 21.1324 192.895C20.6933 192.719 20.6933 192.719 20.4298 192.543C20.2541 192.455 20.0785 192.455 19.9028 192.455C18.5855 193.685 23.9428 203.258 32.7251 213.182C33.779 214.324 33.779 214.324 37.0285 217.749C39.0485 219.856 40.6293 221.35 41.2441 221.964C42.4736 223.106 43.3518 223.984 45.0205 225.389C43.9081 224.453 42.8542 223.516 41.8588 222.579C36.9407 218.1 32.4617 213.27 28.4218 208.088C26.7238 205.98 25.0845 203.814 23.5036 201.589C22.1863 199.569 18.322 193.422 12.35 179.633L12.2622 179.545C12.1451 179.253 12.028 178.96 11.9109 178.667C11.3839 177.438 11.3839 177.438 9.89092 173.661C7.25621 165.757 6.99271 160.927 9.10049 161.102C12.7891 162.771 17.4438 174.012 19.5516 180.424Z" fill="#0095C9"/>
<path d="M0.665311 132.029C0.753135 134.839 0.928777 140.284 1.45572 144.412C1.04588 141.426 0.75313 138.44 0.577482 135.454C0.226186 128.955 0.401834 122.368 1.0166 115.781C0.489658 121.578 0.577487 129.043 0.665311 132.029Z" fill="#0095C9"/>
<path d="M78.9998 245.151C81.9858 246.907 81.9859 246.907 88.924 249.893C75.7504 245.59 64.3333 238.037 63.3672 235.754C63.4257 235.695 63.4843 235.637 63.5428 235.578C63.6306 235.578 63.7185 235.578 63.8063 235.666C65.2993 236.193 67.4071 237.51 71.447 240.233C74.1695 241.989 76.4529 243.57 78.9998 245.151Z" fill="#0095C9"/>
<path d="M94.4559 249.364C94.4559 249.364 94.1046 251.296 93.5777 251.209C93.4606 251.15 93.3728 251.121 93.3142 251.121C93.2557 251.121 93.1971 251.092 93.1386 251.033C93.1386 251.092 93.1386 251.121 93.1386 251.121C93.4899 251.384 93.929 251.472 94.8072 251.736C91.9968 250.945 90.5038 249.891 88.5717 248.135C88.5717 248.135 88.5717 248.106 88.5717 248.047H88.4839V247.959C88.3668 247.901 88.279 247.842 88.2204 247.784C87.8691 247.432 87.8691 247.432 86.9031 246.203C84.8831 243.217 86.7274 242.251 88.5717 242.514C88.7474 242.602 89.0108 242.602 89.0987 242.69C92.9629 243.919 94.7194 247.081 94.4559 249.364Z" fill="#0095C9"/>
<path d="M86.0274 247.083C88.3109 249.103 89.6282 249.805 91.1212 250.508H91.0334C90.9749 250.508 90.887 250.479 90.7699 250.42C91.6482 250.859 93.9316 251.474 94.8098 251.737C89.9795 250.42 86.1153 248.751 81.7241 246.205L81.6362 246.117C81.5484 246.117 81.4606 246.117 81.4606 246.117C81.3435 246 81.2264 245.912 81.1093 245.853C80.3189 245.414 80.3189 245.414 77.9477 243.833C77.8598 243.745 77.6842 243.658 77.5963 243.57C73.9956 240.847 72.9417 238.827 74.1712 238.74C74.3469 238.652 74.6982 238.74 74.8738 238.827C77.2451 239.53 77.245 239.53 86.0274 247.083Z" fill="#0095C9"/>
<path d="M74.6998 244.01C80.584 246.996 84.7117 248.489 88.049 249.719C87.9612 249.631 87.7855 249.631 87.6977 249.631C90.3324 250.509 93.4063 251.387 94.8114 251.739C87.6099 249.806 81.1109 247.435 74.4363 244.274C74.3778 244.215 74.3192 244.186 74.2606 244.186L74.085 244.098L73.9094 244.01C73.7337 243.951 73.5288 243.864 73.2946 243.747C72.1529 243.132 72.1529 243.132 68.2886 241.2C61.7897 237.687 58.1889 234.964 57.3984 234.174C57.3984 234.115 57.3984 234.086 57.3984 234.086C58.101 234.349 59.0671 234.876 61.7018 236.545C65.2148 238.741 69.6938 241.463 74.6998 244.01Z" fill="#0095C9"/>
<path d="M72.5928 243.48C78.3013 246.203 82.8682 247.871 84.3612 248.398C81.2581 247.286 78.2135 246.056 75.2275 244.71C70.1337 242.075 63.3713 238.474 58.4531 235.488C63.02 238.474 67.7625 241.109 72.5928 243.48Z" fill="#0095C9"/>
<path d="M206.88 27.433C211.973 31.5607 216.365 35.9519 216.716 37.2693C216.453 37.3571 216.189 37.4449 213.818 35.6006C213.554 35.425 213.203 35.1615 212.94 34.898C208.285 31.2094 203.894 27.0817 199.239 23.3053C196.165 20.934 193.004 18.9141 190.017 16.455C189.93 16.455 189.93 16.455 189.93 16.3672C190.984 16.8063 198.8 21.0218 206.88 27.433Z" fill="#0095C9"/>
<path d="M176.483 9.60375C172.268 7.9351 168.14 6.44209 161.992 4.77344C167.027 6.12007 171.858 7.73018 176.483 9.60375Z" fill="#0095C9"/>
<path d="M216.624 35.5109C209.774 29.0997 202.573 23.5668 195.195 19C203.012 23.8303 210.213 29.3632 216.624 35.5109Z" fill="#0095C9"/>
<path d="M166.383 6.00298C168.316 6.61775 170.16 7.23252 172.092 8.02293C176.483 9.60376 179.03 10.8333 179.469 11.0089C179.293 10.9211 179.293 10.9211 177.976 10.3942C172.531 8.11075 168.228 6.44209 161.992 4.77344C162.87 5.03691 166.296 6.00298 166.383 6.00298Z" fill="#0095C9"/>
<path d="M201.601 26.3803C207.222 31.4741 209.242 35.3384 207.222 35.1627C203.006 34.9871 185.88 16.6319 185.266 15.578C185.266 15.5194 185.295 15.4609 185.353 15.4023C185.412 15.4023 185.471 15.4023 185.529 15.4023C187.461 16.1049 195.365 20.584 201.601 26.3803Z" fill="#0095C9"/>
<path d="M174.376 18.5618C175.957 23.8312 171.478 25.939 166.823 23.6555C159.446 20.1426 159.797 11.5358 164.452 10.0428C165.243 9.77936 165.945 9.86719 166.384 9.95502C169.458 11.0089 173.235 15.1366 174.376 18.5618Z" fill="#0095C9"/>
<path d="M164.803 5.65168C164.978 5.65168 165.125 5.68096 165.242 5.73951C169.282 7.14469 171.653 8.54987 171.653 8.81334C171.302 8.90117 170.335 8.46204 168.403 7.40816C165.769 6.0908 164.276 5.3882 161.992 4.77344C162.607 4.94909 164.803 5.56385 164.803 5.65168Z" fill="#0095C9"/>
<path d="M164.803 5.56386C169.984 7.14469 174.112 8.90117 176.132 9.95506C176.483 10.1307 176.483 10.1307 176.659 10.2185C176.659 10.2771 176.659 10.3063 176.659 10.3063C176.483 10.2478 176.307 10.1893 176.132 10.1307C176.073 10.1307 176.015 10.1307 175.956 10.1307C176.132 10.3064 176.132 10.3064 176.834 10.8333C180.611 13.468 182.806 15.488 187.022 19.7913C187.022 19.8499 187.022 19.8792 187.022 19.8792C187.198 20.0548 187.403 20.2305 187.637 20.4061C188.691 21.5478 188.691 21.5478 190.535 23.7434C191.238 24.7973 191.852 25.5877 192.379 26.9051C193.697 30.2424 191.677 31.0328 189.042 29.9789C181.577 27.1685 175.868 15.5758 176.044 13.3802C176.132 12.9411 176.132 12.9411 177.098 13.0289C177.186 13.0289 177.361 13.1167 177.449 13.1167L177.625 13.2045L177.8 13.2924C178.591 13.468 178.591 13.468 178.854 13.2924C178.854 12.0628 173.585 8.54987 165.329 5.73951H165.242C165.007 5.68096 164.773 5.59313 164.539 5.47603C163.749 5.21256 163.749 5.21256 161.992 4.77344C162.87 5.03691 164.012 5.30039 164.803 5.56386Z" fill="#0095C9"/>
<path d="M163.397 5.21256C164.276 5.56385 164.715 5.91516 164.89 6.00298C165.769 6.61775 165.856 7.05687 165.505 7.14469C165.066 7.23252 163.31 6.61775 162.256 4.9491C162.08 4.77345 162.08 4.77344 161.992 4.77344C162.256 4.86126 163.31 5.21256 163.397 5.21256Z" fill="#0095C9"/>
<path d="M236.215 60.6285C240.958 68.6205 242.275 73.9777 240.343 73.5386C239.465 73.2751 236.918 71.4308 230.946 61.5946C230.858 61.4189 221.022 45.0837 222.691 44.6445H222.866C225.237 45.6106 231.473 52.8122 236.215 60.6285Z" fill="#0095C9"/>
<path d="M252.452 151.879C250.08 163.121 245.426 169.883 242.791 165.756C239.014 159.608 244.02 130.275 250.783 130.977C254.208 132.558 254.296 142.833 252.452 151.879Z" fill="#0095C9"/>
<path d="M255.881 116.31C254.915 108.23 252.631 96.9009 250.523 89.875C253.246 98.3939 255.002 107.264 255.881 116.31Z" fill="#0095C9"/>
<path d="M251.923 161.891C251.63 162.828 251.367 163.765 251.133 164.702C253.416 155.919 255.524 143.448 256.139 136.949C255.524 145.205 254.207 153.548 251.923 161.891Z" fill="#0095C9"/>
<path d="M245.077 75.6515C247.712 82.5017 250.259 93.5675 251.401 98.2222C251.401 98.2808 251.401 98.3393 251.401 98.3979C251.459 98.6906 251.518 98.9834 251.576 99.2761L251.664 99.3639C251.723 99.7152 251.781 100.037 251.84 100.33C252.191 101.647 252.191 101.647 252.894 105.687C253.069 107.532 253.245 108.937 253.333 111.396C253.421 117.368 251.928 120.178 249.644 118.246C244.814 114.031 240.774 93.0406 242.706 86.4538C243.057 85.3999 243.145 85.3121 243.584 84.9608C243.672 84.873 243.672 84.873 243.672 84.873V84.7852L244.55 84.873L244.99 85.0486C245.077 85.1365 245.253 85.2243 245.341 85.3121C248.327 85.6634 246.307 76.9688 238.578 63.4439C238.578 63.4439 238.578 63.4147 238.578 63.3561C238.403 63.1219 238.256 62.8584 238.139 62.5657L238.052 62.3901C237.876 62.2144 237.729 62.0095 237.612 61.7753C236.91 60.6336 236.91 60.6336 234.626 57.0328L234.275 56.5059C232.87 54.4859 231.026 51.7634 228.742 48.7773C235.241 57.0328 240.774 66.0787 245.077 75.6515Z" fill="#0095C9"/>
<path d="M237.435 148.628C234.01 162.066 223.734 167.072 218.816 157.674C213.02 146.609 219.87 124.301 231.111 126.409C238.752 129.219 239.367 141.076 237.435 148.628Z" fill="#0095C9"/>
<path d="M179.565 45.2609C179.214 55.5363 167.094 56.6781 160.156 49.3887C151.989 40.9576 157.697 29.0135 166.831 29.6283C167.446 29.6283 168.148 29.8039 168.763 29.8918C176.316 32.3508 179.653 40.5185 179.565 45.2609Z" fill="#0095C9"/>
<path d="M169.291 129.218C164.021 144.675 143.295 145.553 136.708 130.623C131.087 117.713 141.099 101.992 157.347 105.593C169.115 109.37 172.277 120.611 169.291 129.218Z" fill="#0095C9"/>
<path d="M226.196 58.2586C227.162 60.2786 231.641 70.2905 224.703 69.5879C224.44 69.5001 223.474 69.061 223.298 68.9731H223.21C215.745 66.7775 211.969 77.4042 212.847 88.5579C212.847 88.6164 212.847 88.675 212.847 88.7335V88.9092L212.935 89.0848C212.935 89.2604 212.935 89.6117 213.023 89.8752C213.198 91.0169 213.198 91.0169 213.11 94.8812L213.023 95.496C210.915 107.967 198.532 108.23 191.769 98.9211C184.568 89.0848 186.676 73.2765 198.005 72.4861L200.815 72.9252C201.166 73.0423 201.488 73.1594 201.781 73.2765C202.572 73.6278 202.572 73.6278 202.747 73.7156H202.923C211.793 76.3503 218.029 69.061 212.847 55.7995C212.788 55.741 212.759 55.7117 212.759 55.7117L212.671 55.5361V55.4482C212.584 55.2726 212.496 55.0091 212.408 54.8335C211.881 53.6918 211.881 53.6918 210.651 50.6179C209.598 46.8415 207.929 41.2208 211.618 41.8355C216.36 43.5042 223.035 51.8475 226.196 58.2586Z" fill="#0095C9"/>
<path d="M239.376 100.941C239.991 107.967 237.883 112.27 235.424 113.499C234.37 114.114 234.37 114.114 231.384 113.851C231.384 113.851 229.891 113.236 229.803 113.148H229.628C222.602 111.04 213.468 117.539 209.692 134.05C209.692 134.109 209.692 134.138 209.692 134.138C209.604 134.489 209.604 134.929 209.516 135.28C209.077 138.09 209.077 138.09 208.111 141.779C206.881 144.501 206.442 145.38 204.774 147.487C195.903 158.465 181.412 152.845 180.095 137.915C179.305 129.044 183.959 120.35 190.897 117.715C194.235 116.486 195.376 116.661 199.153 117.276C199.504 117.452 199.943 117.627 200.295 117.715C200.47 117.803 200.646 117.891 200.822 117.978L200.909 118.066L201.524 118.242C214.171 121.931 222.602 109.899 221.197 97.3399V97.2521C221.197 96.9008 221.109 96.5495 221.109 96.286C220.933 95.2321 220.933 95.2321 220.758 91.1044C221.109 87.5914 221.811 79.4238 227.959 80.5655C234.107 82.7611 238.674 92.8609 239.376 100.941Z" fill="#0095C9"/>
<path d="M206.087 52.8149C206.878 55.6253 207.932 62.1243 201.345 62.9147L198.798 62.5634C198.008 62.2999 196.954 61.8608 196.954 61.8608L196.866 61.773C185.537 58.4357 177.896 70.0284 177.72 79.1621V79.3378C177.72 79.4256 177.72 79.4256 177.72 79.4256C177.72 79.6891 177.72 79.9525 177.72 80.1282C177.72 81.4455 177.72 81.4455 177.106 85.0463C176.052 87.5054 175.876 88.0323 174.295 89.8766C165.864 100.24 147.421 92.5992 146.631 78.4595C146.192 71.4336 150.758 65.0225 157.345 63.266C159.102 62.8269 159.102 62.8269 162.351 62.739C162.41 62.739 162.439 62.739 162.439 62.739H162.527L165.601 63.3538C165.952 63.4416 165.952 63.4416 166.742 63.7929C167.533 64.0564 167.533 64.0564 167.884 64.2321H167.972C179.652 67.6572 188.611 60.1921 186.854 48.5994L186.766 48.5116C186.766 48.3359 186.766 48.0724 186.678 47.8968C186.415 46.9307 186.415 46.9307 186.151 43.8569V43.4178C186.239 40.9587 186.942 35.5136 192.475 36.6553C198.535 38.6753 204.419 46.6673 206.087 52.8149Z" fill="#0095C9"/>
<path d="M235.594 195.439C229.358 205.188 222.332 210.369 221.63 205.89C220.488 199.04 234.189 176.118 240.687 176.82C243.849 178.313 240.512 187.711 235.594 195.439Z" fill="#0095C9"/>
<path d="M162.872 251.034C154.968 253.318 146.8 254.459 145.922 254.02C146.624 252.966 174.377 243.13 177.978 243.657C179.558 244.448 173.85 247.346 167.702 249.541C166.385 249.98 164.365 250.595 162.872 251.034Z" fill="#0095C9"/>
<path d="M195.633 237.158C204.591 231.449 213.373 223.984 216.798 220.91C210.299 227.058 203.186 232.503 195.633 237.158Z" fill="#0095C9"/>
<path d="M152.07 254.107C163.575 251.824 173.06 248.311 177.715 246.379C169.547 249.804 160.941 252.439 152.07 254.107Z" fill="#0095C9"/>
<path d="M227.251 209.669C226.285 210.635 221.016 215.904 208.457 226.531C208.457 226.531 208.428 226.56 208.369 226.619C208.193 226.794 207.93 227.058 207.666 227.234H207.579C207.403 227.409 207.052 227.673 206.876 227.848C205.91 228.726 205.91 228.727 202.573 231.186C201.08 232.239 199.938 233.03 197.567 234.435C193.878 236.543 189.136 238.914 187.555 237.685C187.643 233.996 202.397 221.437 210.213 217.836C211.882 217.046 212.321 216.958 213.199 216.695C213.375 216.695 213.375 216.695 213.463 216.695H214.604L214.956 216.958L215.131 217.134H215.219C218.557 217.661 226.022 212.04 235.243 198.427C235.243 198.369 235.243 198.339 235.243 198.339C235.419 198.076 235.594 197.725 235.77 197.549L235.858 197.373C236.033 197.139 236.18 196.905 236.297 196.671C237 195.529 237 195.529 239.283 191.753L239.634 191.138C241.127 188.591 242.884 185.429 244.465 182.355C239.81 192.28 234.014 201.413 227.251 209.669Z" fill="#0095C9"/>
<path d="M154.537 249.19C146.545 251.913 135.919 253.142 136.533 251.298C137.236 249.278 156.469 238.915 164.549 240.495C167.974 241.725 164.286 245.062 158.841 247.521C157.699 248.048 155.855 248.751 154.537 249.19Z" fill="#0095C9"/>
<path d="M156.026 173.837C149.264 187.889 128.976 187.45 124.058 173.047C120.018 161.103 130.645 147.753 145.926 151.091C158.573 155.218 159.451 166.899 156.026 173.837Z" fill="#0095C9"/>
<path d="M119.66 239.264C113.425 245.236 101.568 245.675 101.744 236.19C101.92 230.306 108.243 225.124 116.586 226.969C123.964 229.34 123.876 235.224 119.66 239.264Z" fill="#0095C9"/>
<path d="M221.897 190.434C218.911 195.527 212.588 203.783 203.718 202.641C203.542 202.553 202.927 202.29 202.313 202.026L202.137 201.939C194.321 199.655 180.796 206.505 172.101 217.396C172.043 217.396 172.013 217.425 172.013 217.483L171.926 217.659L171.838 217.747C171.662 217.923 171.486 218.098 171.399 218.274C170.872 218.976 170.872 218.976 168.237 221.875L167.71 222.226C157.786 230.569 143.734 230.481 145.227 219.503C146.105 213.004 153.746 203.695 165.251 203.607L168.413 204.134C168.676 204.222 169.027 204.398 169.379 204.573C170.169 204.837 170.169 204.837 170.257 204.925L170.432 205.012C180.62 207.998 194.848 200.094 200.907 188.15C200.907 188.092 200.937 188.062 200.995 188.062V187.887L201.083 187.711C201.171 187.535 201.259 187.272 201.347 187.096C201.873 185.867 201.873 185.867 203.893 182.178C206.001 179.28 212.412 170.322 220.404 171.815C226.025 173.923 226.64 181.388 221.897 190.434Z" fill="#0095C9"/>
<path d="M191.945 227.322C188.432 230.132 182.899 233.382 177.542 234.348C175.785 234.699 175.785 234.699 173.414 234.348C173.414 234.348 172.448 233.908 172.448 233.821H172.36C165.861 232.415 155.41 235.665 143.73 242.691C143.73 242.691 143.7 242.691 143.642 242.691C143.466 242.866 143.203 243.042 143.027 243.13C141.358 244.184 141.358 244.184 138.811 245.501C137.055 246.204 136.177 246.555 133.981 247.258C129.59 248.487 119.051 250.332 123.003 243.657C125.199 240.056 130.907 235.753 137.494 234.523C140.304 233.996 140.831 234.084 143.905 234.611C144.081 234.699 144.344 234.787 144.52 234.875L144.871 234.962V235.05L145.31 235.138C153.741 237.597 168.759 231.01 174.995 223.897L175.083 223.809C175.258 223.633 175.522 223.37 175.697 223.194C176.312 222.491 176.312 222.491 179.123 219.681C181.757 217.485 189.749 210.811 196.863 212.216C202.572 214.324 198.883 221.701 191.945 227.322Z" fill="#0095C9"/>
<path d="M193.006 184.373C190.81 188.062 185.804 194.385 176.143 194.824L172.894 194.297C172.455 194.121 171.05 193.594 170.874 193.419H170.698C159.632 190.169 144.878 197.459 139.696 208.7L139.609 208.788C139.521 208.876 139.521 208.964 139.521 208.964C139.521 209.051 139.345 209.315 139.345 209.491C138.994 210.281 138.994 210.281 137.15 213.355C135.393 215.199 135.042 215.638 133.197 216.956C121.341 225.123 108.87 216.341 111.066 205.012C112.032 199.566 116.423 195.175 122.219 193.858C124.327 193.331 124.327 193.331 127.665 193.331C127.752 193.331 127.84 193.331 127.84 193.419H127.928L131.09 194.034C131.441 194.121 131.441 194.121 132.407 194.473C133.197 194.736 133.197 194.736 133.461 194.912L133.637 195C146.02 198.6 160.511 190.96 165.341 178.313V178.225C165.429 177.962 165.517 177.698 165.604 177.435C165.956 176.117 165.956 176.117 167.712 172.341L168.151 171.726C169.381 169.794 176.056 160.485 187.121 162.768C197.748 166.369 196.958 177.523 193.006 184.373Z" fill="#0095C9"/>
<path d="M118.443 255.776C111.592 255.336 105.884 254.283 102.195 253.492C106.06 254.195 111.329 255.161 119.76 255.424C125.293 255.6 130.914 254.546 136.447 255.424C135.656 255.951 127.752 256.478 118.443 255.776Z" fill="#0095C9"/>
<path d="M101.399 253.403C98.7646 252.788 97.7985 252.525 94.8125 251.734C104.473 254.369 111.411 255.16 115.539 255.599C115.598 255.599 115.656 255.599 115.715 255.599C116.007 255.657 116.329 255.686 116.681 255.686H116.856C117.091 255.745 117.354 255.774 117.647 255.774C118.964 255.95 118.964 255.95 123.443 256.126C123.619 256.126 123.882 256.213 124.146 256.213C127.571 256.301 130.732 256.301 134.07 256.126C123.355 256.653 112.377 255.774 101.399 253.403Z" fill="#0095C9"/>
<path d="M102.801 251.56C99.8154 252.351 96.5659 252 96.2146 251.912C95.8633 251.736 96.1268 250.155 96.6538 249.189C97.7955 247.345 100.606 245.852 104.294 246.642C107.807 247.784 106.754 249.892 104.558 250.946C104.207 251.121 103.504 251.385 102.801 251.56Z" fill="#0095C9"/>
<path d="M115.188 255.072C107.81 254.633 101.663 253.315 100.521 253.052L100.697 253.14C98.6768 252.613 96.7446 252.261 94.8125 251.734C99.7306 253.052 105 253.842 110.094 254.018C110.27 254.018 110.27 254.018 110.357 254.018H110.445H110.533C110.709 254.018 110.972 254.018 111.06 254.018C112.026 254.018 112.026 254.018 115.188 253.93C128.713 253.491 128.713 253.491 129.239 253.579C129.327 253.579 129.415 253.666 129.503 253.666C129.562 253.784 129.591 253.871 129.591 253.93C128.449 254.808 122.653 255.423 115.188 255.072Z" fill="#0095C9"/>
<path d="M109.743 253.577C106.405 253.577 102.541 253.314 98.9402 252.611L98.5889 252.523C97.3594 252.26 96.042 252.084 94.8125 251.733C95.8664 251.996 99.555 252.875 103.858 252.26H103.946C104.063 252.201 104.18 252.172 104.298 252.172C104.737 252.084 104.737 252.084 106.757 251.645C106.932 251.645 107.02 251.557 107.108 251.557C111.06 250.679 115.1 249.889 118.086 250.503C119.754 251.118 118.964 251.821 118.086 252.26C116.856 252.787 114.046 253.489 109.743 253.577Z" fill="#0095C9"/>
</svg>
