<svg width="256" height="118" viewBox="0 0 256 118" fill="none" xmlns="http://www.w3.org/2000/svg">
<path d="M92.4444 15.8556L63.5555 0.300049L68.9778 24.3C75.8222 19.5889 83.8222 16.5667 92.4444 15.7667V15.8556Z" fill="#5C5259"/>
<path d="M47.8223 64.5667C47.8223 62.9667 47.9112 61.3964 48.089 59.8556H47.289C37.8668 59.8556 29.6001 57.7223 22.6667 54.4334H13.689C13.689 54.4334 25.7779 75.3223 49.689 77.9001C48.4445 73.7223 47.8223 69.189 47.8223 64.5667Z" fill="#FBB040"/>
<path d="M164.444 15.8556C173.156 16.8334 181.156 20.0334 187.911 24.9223L193.511 0.300049L164.444 15.8556Z" fill="#5C5259"/>
<path d="M49.1555 53.1889C51.8222 42.0778 58.3111 32.3889 67.0222 25.6334H0C0 25.6334 15.9111 53.1889 47.2889 53.1889C47.9408 53.1889 48.563 53.1889 49.1555 53.1889Z" fill="#5C5259"/>
<path d="M208.711 59.8556H207.911C208.089 61.3964 208.178 62.9667 208.178 64.5667C208.178 69.189 207.555 73.7223 206.311 77.9001C230.222 75.3223 242.311 54.4334 242.311 54.4334H233.333C226.4 57.7223 218.133 59.8556 208.711 59.8556Z" fill="#FBB040"/>
<path d="M188.978 25.6334C197.689 32.3889 204.178 42.0778 206.844 53.1889C207.437 53.1889 208.059 53.1889 208.711 53.1889C240.089 53.1889 256 25.6334 256 25.6334H188.978Z" fill="#5C5259"/>
<path d="M52.2667 84.9223C47.3778 84.6556 42.9334 83.5889 38.9334 82.1667H25.689C25.689 82.1667 37.5112 102.611 60.889 102.611C62.6075 102.611 64.2964 102.611 65.9556 102.611C60.089 97.8112 55.3778 91.7667 52.2667 84.9223Z" fill="#5C5259"/>
<path d="M203.733 84.9223C200.622 91.7667 195.911 97.8112 190.044 102.611C191.704 102.611 193.393 102.611 195.111 102.611C218.489 102.611 230.311 82.1667 230.311 82.1667H217.067C213.067 83.5889 208.622 84.6556 203.733 84.9223Z" fill="#5C5259"/>
<path d="M159.2 101.811C138.667 101.811 121.956 85.1001 121.956 64.5667C121.956 44.0334 138.667 27.3223 159.2 27.3223C179.733 27.3223 196.444 44.0334 196.444 64.5667C196.444 85.1001 179.733 101.811 159.2 101.811Z" fill="#FBB040"/>
<path d="M96.8 101.811C76.2666 101.811 59.5555 85.1001 59.5555 64.5667C59.5555 44.0334 76.2666 27.3223 96.8 27.3223C117.333 27.3223 134.044 44.0334 134.044 64.5667C134.044 85.1001 117.333 101.811 96.8 101.811Z" fill="#FBB040"/>
<path d="M185.778 64.5667C185.778 79.2334 173.867 91.1445 159.2 91.1445C144.533 91.1445 132.622 79.2334 132.622 64.5667C132.622 49.9001 144.533 37.989 159.2 37.989C173.867 37.989 185.778 49.9001 185.778 64.5667Z" fill="#5C5259"/>
<path d="M146.311 59.8556C139.556 59.8556 133.956 54.2556 133.956 47.5001C133.956 40.6556 139.556 35.1445 146.311 35.1445C153.156 35.1445 158.667 40.6556 158.667 47.5001C158.667 54.2556 153.156 59.8556 146.311 59.8556Z" fill="white"/>
<path d="M123.378 64.5667C123.378 79.2334 111.467 91.1445 96.7999 91.1445C82.1333 91.1445 70.2222 79.2334 70.2222 64.5667C70.2222 49.9001 82.1333 37.989 96.7999 37.989C111.467 37.989 123.378 49.9001 123.378 64.5667Z" fill="#5C5259"/>
<path d="M83.9111 59.8556C77.0666 59.8556 71.5555 54.2556 71.5555 47.5001C71.5555 40.6556 77.0666 35.1445 83.9111 35.1445C90.7555 35.1445 96.2666 40.6556 96.2666 47.5001C96.2666 54.2556 90.7555 59.8556 83.9111 59.8556Z" fill="white"/>
<path d="M112.978 102.7L128 117.9L143.022 102.7H112.978Z" fill="#5C5259"/>
<path d="M107.822 18.0778C116.533 19.4112 124.533 23.1445 130.933 28.5667C137.422 23.1445 145.333 19.4112 154.044 18.0778" fill="#5C5259"/>
</svg>
