<svg width="256" height="203" viewBox="0 0 256 203" fill="none" xmlns="http://www.w3.org/2000/svg">
<path d="M124.534 164.059C125.507 167.221 126.601 170.14 128.061 173.058C129.399 170.14 130.493 167.221 131.466 164.059C133.898 156.762 135.114 148.979 135.114 140.83C135.114 133.533 133.777 126.115 131.466 118.94C130.493 115.899 129.277 113.102 127.939 110.183C123.439 120.034 120.886 130.493 120.886 140.83C120.886 148.979 122.102 156.762 124.534 164.059ZM187.409 113.467L229.974 67.7397C220.002 64.2128 210.273 62.6318 201.03 62.6318C189.355 62.6318 178.41 65.3074 168.559 69.8071C173.91 77.8337 178.288 86.2252 181.815 95.1031C184.125 101.062 185.95 107.143 187.409 113.467ZM152.262 151.168L172.207 129.763C171.234 119.913 168.802 110.548 165.275 101.549C162.235 93.5221 158.221 85.9819 153.357 78.9283C147.884 83.0632 143.019 87.8062 138.763 93.0356C142.776 99.4812 145.938 106.413 148.249 113.345C151.168 122.345 152.749 131.588 152.749 140.83C152.749 144.236 152.627 147.762 152.262 151.168ZM26.0257 67.7397L68.591 113.467C72.1178 97.7786 78.5634 83.0632 87.4413 69.8071C78.1986 65.5506 67.9829 62.9967 56.9159 62.6318C47.1867 62.3886 36.8494 63.9696 26.0257 67.7397ZM47.5515 18.6071L30.5254 48.038C39.7682 45.7273 48.7677 44.876 57.4024 44.9976C72.361 45.3625 86.2252 49.2542 98.3867 55.4565C102.522 50.8352 106.9 46.3354 111.643 42.0789C112.129 41.714 112.616 41.2276 113.102 40.8627C104.467 35.39 94.9815 30.8903 85.1306 27.2418C73.334 22.9853 60.686 20.0665 47.5515 18.6071ZM148.249 17.7558H107.751C114.805 21.161 121.615 25.0527 127.939 29.4309C134.385 25.0527 141.195 21.161 148.249 17.7558ZM220.61 4.49976L256 65.7938L136.695 193.733C136.209 194.463 135.723 195.071 135.236 195.8L134.993 195.557L128.061 202.976L121.007 195.557L120.764 195.8C120.277 195.071 119.791 194.463 119.305 193.733L0 65.7938L37.9439 0H218.056L220.61 4.49976ZM225.475 47.9164L208.448 18.6071C175.248 22.2556 145.573 35.6333 123.439 55.3349C101.305 75.0366 86.8333 100.941 83.7929 129.763L103.738 151.168C103.373 147.762 103.251 144.236 103.251 140.83C103.251 127.574 106.535 114.075 112.494 101.67C120.156 85.9819 132.074 71.753 147.154 61.5373C162.478 51.3216 180.842 44.9976 201.03 44.9976C208.935 44.9976 217.083 45.9705 225.475 47.9164Z" fill="#CC9933"/>
<path d="M131.955 120.516C131.936 120.459 131.919 120.401 131.902 120.345C131.879 120.264 131.853 120.18 131.825 120.095C131.708 119.709 131.587 119.326 131.464 118.943C130.491 115.903 129.275 113.106 127.938 110.187C128.181 109.944 128.302 109.7 128.424 109.335C131.221 103.62 134.626 98.1469 138.761 93.0391C139.659 94.4804 140.514 95.9455 141.326 97.4305C141.827 98.3536 142.31 99.2842 142.775 100.214C139.856 104.106 137.302 108.363 135.234 112.619C134.02 115.292 132.926 117.844 131.955 120.516Z" fill="#AE822B"/>
<path d="M157.494 85.3714C157.355 85.1439 157.216 84.9154 157.076 84.6878C156.586 83.8721 156.085 83.0631 155.572 82.2607C154.856 81.1273 154.124 80.0094 153.359 78.9258C154.576 77.9529 155.792 77.1016 157.129 76.2503C160.656 73.818 164.548 71.6289 168.561 69.8047C169.356 71.0318 170.192 72.3025 170.996 73.5895C171.202 73.9201 171.405 74.2522 171.606 74.5843C171.941 75.1387 172.266 75.6945 172.575 76.2503C168.683 78.0745 164.913 80.142 161.386 82.5743C160.048 83.4256 158.71 84.3985 157.494 85.3714Z" fill="#AE822B"/>
<path d="M98.3875 55.457C96.2726 54.3781 94.1054 53.37 91.8906 52.4375C94.1785 53.342 96.2835 54.3491 98.3875 55.457Z" fill="#D5D5D5"/>
<path d="M87.4409 69.8061C85.1302 68.7115 82.6979 67.7386 80.2656 66.8873C83.6709 61.7795 87.3193 56.9149 91.211 52.1719C91.4395 52.2583 91.6647 52.3472 91.8894 52.436C94.1041 53.3685 96.2713 54.3766 98.3863 55.4555C94.4946 60.0769 90.8461 64.8199 87.4409 69.8061Z" fill="#AE822B"/>
<path d="M113.1 40.8644C111.509 39.8041 109.852 38.8065 108.133 37.8754C107.499 37.5129 106.86 37.1538 106.219 36.7998C106.323 36.6953 106.428 36.5908 106.532 36.4863C110.667 32.8378 114.924 29.4326 119.424 26.149L121.065 24.9766C123.409 26.4008 125.704 27.8868 127.937 29.4326C122.707 32.9595 117.843 36.7295 113.1 40.8644Z" fill="#AE822B"/>
</svg>
