<svg width="205" height="256" viewBox="0 0 205 256" fill="none" xmlns="http://www.w3.org/2000/svg">
<path d="M102.379 208.091C102.379 208.091 88.9356 194.514 84.3761 188.345C79.7831 182.176 79.4814 180.601 79.4814 180.601C79.4814 180.601 79.5485 191.899 81.0571 196.424C82.5322 200.917 83.5715 203.264 83.5715 203.264C83.5715 203.264 71.8712 188.58 67.9152 178.623C63.9592 168.665 61.4448 158.407 61.4448 158.407C61.4448 158.407 60.4055 164.475 61.2771 174.667C62.1488 184.858 62.1488 185.026 62.1488 185.026C62.1488 185.026 43.8104 142.18 42.2347 132.86C40.659 123.54 41.1284 118.478 41.1284 118.478C41.1284 118.478 38.9828 120.154 37.977 126.692C36.9377 133.263 37.0383 135.878 37.0383 135.878C37.0383 135.878 34.1551 116.031 39.0833 102.419C43.978 88.8416 49.8115 83.4775 49.8115 83.4775C49.8115 83.4775 50.2138 80.9296 45.5537 80.8626C19.5045 80.4267 29.1933 49.4828 38.044 49.4828C38.044 49.4828 34.4904 49.3487 32.9482 49.7175C31.406 50.0863 30.9367 50.4215 30.9367 50.4215C30.9367 50.4215 33.5181 46.7002 35.1609 45.091C36.8371 43.4818 37.6082 43.3477 37.6082 43.3477C37.6082 43.3477 14.811 51.5279 5.65854 71.3078C-3.52741 91.0543 1.23319 107.18 1.23319 107.18C1.23319 107.18 7.46892 85.2879 14.1069 78.6499C20.745 72.0118 26.9136 69.6316 26.9136 69.6316C26.9136 69.6316 5.55797 98.5639 7.46892 126.692C9.34634 154.819 13.7717 166.218 13.7717 166.218C13.7717 166.218 14.7104 127.496 21.3484 115.159C28.02 102.822 33.5517 97.4576 33.5517 97.4576C33.5517 97.4576 19.7727 138.861 24.1981 167.626C28.6569 196.424 44.7491 211.276 44.7491 211.276C44.7491 211.276 44.9167 190.39 44.1457 178.555C43.3411 166.688 40.3238 158.306 40.3238 158.306C40.3238 158.306 47.2971 165.414 50.7502 186.132C54.2368 206.851 55.5108 210.304 58.0252 216.305C60.5731 222.306 69.1221 230.553 70.4296 232.129C71.7706 233.705 82.0629 240.175 82.0629 240.175C82.0629 240.175 72.5752 222.407 70.9995 212.617C69.4238 202.794 70.0608 195.05 70.0608 195.05C70.0608 195.05 79.8502 227 102.379 255.999C124.908 227 134.731 195.05 134.731 195.05C134.731 195.05 135.335 202.794 133.759 212.617C132.183 222.407 122.696 240.175 122.696 240.175C122.696 240.175 132.988 233.705 134.329 232.129C135.67 230.553 144.185 222.306 146.733 216.305C149.248 210.304 150.522 206.851 154.008 186.132C157.461 165.414 164.435 158.306 164.435 158.306C164.435 158.306 161.417 166.688 160.646 178.555C159.842 190.39 160.009 211.276 160.009 211.276C160.009 211.276 176.135 196.424 180.56 167.626C184.986 138.861 171.207 97.4576 171.207 97.4576C171.207 97.4576 176.772 102.822 183.41 115.159C190.048 127.496 190.987 166.218 190.987 166.218C190.987 166.218 195.412 154.819 197.323 126.692C199.2 98.5639 177.878 69.6316 177.878 69.6316C177.878 69.6316 184.014 72.0118 190.652 78.6499C197.323 85.2879 203.559 107.18 203.559 107.18C203.559 107.18 208.286 91.0543 199.133 71.3078C189.981 51.5279 167.15 43.3477 167.15 43.3477C167.15 43.3477 167.955 43.4818 169.598 45.091C171.274 46.7002 173.822 50.4215 173.822 50.4215C173.822 50.4215 173.352 50.0863 171.81 49.7175C170.268 49.3487 166.714 49.4828 166.714 49.4828C175.565 49.4828 185.254 80.4267 159.205 80.8626C154.545 80.9296 154.947 83.4775 154.947 83.4775C154.947 83.4775 160.78 88.8416 165.675 102.419C170.603 116.031 167.754 135.878 167.754 135.878C167.754 135.878 167.821 133.263 166.815 126.692C165.776 120.154 163.63 118.478 163.63 118.478C163.63 118.478 164.099 123.54 162.524 132.86C160.948 142.18 142.61 185.026 142.61 185.026C142.61 185.026 142.61 184.858 143.481 174.667C144.353 164.475 143.314 158.407 143.314 158.407C143.314 158.407 140.799 168.665 136.843 178.623C132.887 188.58 121.187 203.264 121.187 203.264C121.187 203.264 122.226 200.917 123.735 196.424C125.21 191.899 125.311 180.601 125.311 180.601C125.311 180.601 124.975 182.176 120.382 188.345C115.823 194.514 102.379 208.091 102.379 208.091Z" fill="#002442"/>
<path d="M102.211 187.91C102.211 187.91 93.8299 181.272 91.3826 177.852C88.9352 174.466 87.7618 169.94 87.7618 169.94C87.7618 169.94 86.7896 174.936 87.2925 176.981C87.7618 179.059 88.1641 179.897 88.1641 179.897C88.1641 179.897 82.5319 175.807 80.9562 172.421C79.3805 169.002 80.2522 162.766 80.2522 162.766C80.2522 162.766 78.073 164.141 77.7713 167.325C77.5031 170.544 78.1736 172.421 78.1736 172.421C78.1736 172.421 73.9494 168.968 74.4858 165.314C75.0557 161.693 76.8996 159.346 76.8996 159.346C76.8996 159.346 73.3795 160.386 72.3737 161.492C71.3344 162.598 71.1332 163.269 71.1332 163.269C71.1332 163.269 70.1945 159.983 77.4696 156.597C84.711 153.211 92.2542 151.937 95.4056 148.283C98.557 144.662 99.5963 144.26 100.937 144.092C101.44 144.059 101.876 144.059 102.211 144.126C102.58 144.059 103.016 144.059 103.485 144.092C104.86 144.26 105.866 144.662 109.05 148.283C112.202 151.937 119.712 153.211 126.987 156.597C134.262 159.983 133.289 163.269 133.289 163.269C133.289 163.269 133.088 162.598 132.082 161.492C131.043 160.386 127.523 159.346 127.523 159.346C127.523 159.346 129.4 161.693 129.937 165.314C130.507 168.968 126.283 172.421 126.283 172.421C126.283 172.421 126.919 170.544 126.685 167.325C126.383 164.141 124.204 162.766 124.204 162.766C124.204 162.766 125.042 169.002 123.466 172.421C121.891 175.807 116.292 179.897 116.292 179.897C116.292 179.897 116.694 179.059 117.164 176.981C117.633 174.936 116.694 169.94 116.694 169.94C116.694 169.94 115.487 174.466 113.04 177.852C110.593 181.272 102.211 187.91 102.211 187.91Z" fill="#002442"/>
<path d="M102.112 54.2769C102.112 54.2769 73.9843 34.9998 60.4065 33.2229C46.7952 31.4126 38.3133 32.0496 38.3133 32.0496C38.3133 32.0496 37.5422 30.038 39.7884 28.5629C42.0682 27.0878 44.2138 26.9537 44.2138 26.9537C44.2138 26.9537 35.7654 24.9422 27.4511 32.3178C19.1368 39.6933 13.4375 50.3209 13.4375 50.3209C13.4375 50.3209 27.7864 39.8945 36.6371 39.1234C45.4878 38.3188 47.5998 39.1569 47.5998 39.1569C47.5998 39.1569 40.8948 42.3418 38.5145 44.6886C36.1342 47.0689 36.1342 47.0689 36.1342 47.0689C36.1342 47.0689 40.4589 45.6944 45.6554 46.9013C50.7848 48.1082 55.1095 51.2261 55.1095 51.2261C55.1095 51.2261 40.4589 48.0747 37.0058 51.4943C33.5192 54.9139 28.8927 60.5126 31.4071 69.8662C33.9215 79.2533 44.7837 78.8174 44.7837 78.8174C44.7837 78.8174 36.7712 74.6268 35.7319 69.7656C34.6926 64.9379 36.5029 61.7195 37.3411 61.2502C38.1792 60.7473 38.2463 60.7473 38.2463 60.7473C38.2463 60.7473 36.8047 59.8756 36.0001 59.8421C35.1955 59.8086 34.9608 59.8756 34.9608 59.8756C34.9608 59.8756 36.4024 58.0988 38.481 58.2999C40.5595 58.5346 41.4982 59.2051 41.4982 59.2051C41.4982 59.2051 42.3699 57.5959 41.1965 56.456C40.0231 55.2826 38.481 54.9139 38.481 54.9139C38.481 54.9139 42.9063 54.7127 44.6161 56.3554C46.3259 57.9647 46.2924 58.3335 46.2924 58.3335C46.2924 58.3335 48.0357 57.026 47.4657 55.6849C46.9293 54.3439 45.9236 54.1092 45.9236 54.1092C45.9236 54.1092 50.0807 54.4445 53.1315 58.2999C56.2159 62.1218 61.4123 58.8028 61.4123 58.8028C61.4123 58.8028 56.5846 66.9159 53.1315 69.5309C49.7119 72.0788 48.7732 72.4141 48.7732 72.4141C48.7732 72.4141 51.3547 72.28 52.9304 71.7771C54.5061 71.2407 55.4113 71.0396 55.4113 71.0396C55.4113 71.0396 51.2876 73.7551 50.5836 75.7331C49.8796 77.7111 49.9466 78.4151 49.9466 78.4151C49.9466 78.4151 50.3824 77.4764 51.7905 76.8395C53.165 76.2025 54.0032 76.2025 54.0032 76.2025C54.0032 76.2025 50.7512 80.3261 51.2876 83.3434C51.7905 86.3607 51.824 86.4612 51.824 86.4612C51.824 86.4612 56.0147 77.8787 62.0157 77.2417C68.0168 76.6048 68.7543 76.6383 71.9057 78.5492C75.0906 80.4267 80.3877 82.6058 83.4385 81.4324C86.4893 80.259 87.3274 78.4822 87.3274 78.4822C87.3274 78.4822 83.1367 80.9631 77.0016 76.9065C70.8329 72.8499 68.4862 72.6823 68.4862 72.6823C68.4862 72.6823 71.7716 71.7101 74.4537 73.1181C77.1357 74.5262 79.8512 76.2695 81.7957 75.8672C83.7402 75.4314 85.3494 74.7609 86.0534 73.6881C86.7239 72.6488 86.9921 71.6095 86.9921 71.6095C86.9921 71.6095 84.5113 74.7609 79.2478 72.5482C73.9843 70.3355 72.1739 68.3575 68.0168 67.5194C63.8597 66.6477 62.0157 66.7483 62.0157 66.7483C62.0157 66.7483 65.4018 64.8374 70.1959 66.1449C74.9901 67.4188 76.7334 68.8269 76.7334 68.8269C76.7334 68.8269 77.0016 67.8547 75.5265 66.5472C74.0514 65.2397 73.0456 65.072 73.0456 65.072C73.0456 65.072 77.2698 64.9379 79.8848 67.0165C82.4998 69.1286 84.1425 69.0951 86.3887 67.8546C88.6014 66.6142 89.7412 64.368 89.7412 64.368C89.7412 64.368 91.5181 77.9123 90.043 84.9526C88.6014 92.0264 84.4442 97.5916 83.1032 101.212C81.7287 104.766 81.4269 107.616 81.4269 107.616L82.4662 90.149C82.4662 90.149 81.7957 94.8761 78.6779 97.2899C75.56 99.7038 73.4479 99.9384 73.4479 99.9384C73.4479 99.9384 76.2976 98.5639 78.5102 94.5073C80.7229 90.4507 80.153 89.8808 80.153 89.8808C80.153 89.8808 75.1912 93.6692 70.1289 94.2056C65.1001 94.7085 63.0886 93.8033 63.0886 93.8033C63.0886 93.8033 70.3971 93.2334 73.9843 90.5513C77.5715 87.8693 78.175 86.3271 78.175 86.3271C78.175 86.3271 71.4699 88.9086 69.2572 87.7017C67.0446 86.4948 67.1787 84.0139 67.8157 82.8405C68.4526 81.7006 69.7601 80.9631 69.7601 80.9631C69.7601 80.9631 66.3405 81.1978 65.9047 83.6451C65.4353 86.0925 66.944 88.171 66.5417 88.7074C66.1729 89.2438 63.5579 90.149 63.8261 88.6404C64.0608 87.0982 63.692 85.3884 62.4516 83.9804C61.1776 82.5388 61.077 82.0694 58.0598 84.5168C55.076 86.8971 46.7282 94.2056 45.8901 103.459C45.0519 112.745 47.4657 118.009 47.4657 118.009C47.4657 118.009 46.4265 113.214 47.3652 110.633C48.3374 108.052 48.7397 107.783 48.7397 107.783C48.7397 107.783 48.6391 113.114 50.6171 115.997C52.6622 118.88 56.9534 121.529 56.9534 121.529C56.9534 121.529 51.1535 114.321 51.5894 108.789C52.0252 103.257 53.802 101.346 53.802 101.346C53.802 101.346 51.8576 109.895 56.2159 115.092C60.6077 120.322 63.7926 121.361 66.9105 120.557C70.0283 119.685 75.6271 112.846 75.6271 112.846C75.6271 112.846 75.9288 119.216 69.5254 123.004C63.0886 126.826 61.2782 127.597 61.1776 136.984C61.077 146.338 61.8146 153.847 64.0273 156.16C66.2399 158.474 67.7151 159.412 68.8214 158.541C69.9278 157.636 73.3473 151.836 80.8235 149.724C88.3332 147.612 93.4625 147.947 97.0498 142.75C100.637 137.587 101.475 129.81 100 126.558C98.5249 123.272 93.5631 122.702 92.2221 120.892C90.8476 119.115 89.5736 116.232 87.8973 117.573C86.2211 118.947 86.8916 121.462 86.8916 121.462C86.8916 121.462 81.8292 118.947 83.1032 113.952C84.3772 108.923 95.1388 107.348 102.112 108.219C109.085 107.348 119.881 108.923 121.155 113.952C122.428 118.947 117.366 121.462 117.366 121.462C117.366 121.462 118.037 118.947 116.327 117.573C114.651 116.232 113.41 119.115 112.036 120.892C110.661 122.702 105.699 123.272 104.224 126.558C102.749 129.81 103.587 137.587 107.174 142.75C110.762 147.947 115.925 147.612 123.401 149.724C130.877 151.836 134.33 157.636 135.403 158.541C136.543 159.412 137.984 158.474 140.197 156.16C142.443 153.847 143.181 146.338 143.08 136.984C142.946 127.597 141.169 126.826 134.732 123.004C128.295 119.216 128.631 112.846 128.631 112.846C128.631 112.846 134.196 119.685 137.314 120.557C140.432 121.361 143.616 120.322 148.008 115.092C152.367 109.895 150.422 101.346 150.422 101.346C150.422 101.346 152.233 103.257 152.635 108.789C153.071 114.321 147.271 121.529 147.271 121.529C147.271 121.529 151.596 118.88 153.607 115.997C155.619 113.114 155.484 107.783 155.484 107.783C155.484 107.783 155.92 108.052 156.859 110.633C157.831 113.214 156.758 118.009 156.758 118.009C156.758 118.009 159.172 112.745 158.334 103.459C157.496 94.2056 149.182 86.8971 146.164 84.5168C143.181 82.0694 143.047 82.5388 141.773 83.9804C140.532 85.3884 140.163 87.0982 140.432 88.6404C140.7 90.149 138.085 89.2438 137.683 88.7074C137.28 88.171 138.789 86.0925 138.353 83.6451C137.884 81.1978 134.464 80.9631 134.464 80.9631C134.464 80.9631 135.772 81.7006 136.409 82.8405C137.046 84.0139 137.213 86.4948 135 87.7017C132.788 88.9086 126.049 86.3271 126.049 86.3271C126.049 86.3271 126.686 87.8693 130.273 90.5513C133.827 93.2334 141.169 93.8033 141.169 93.8033C141.169 93.8033 139.158 94.7085 134.095 94.2056C129.033 93.6692 124.105 89.8808 124.105 89.8808C124.105 89.8808 123.501 90.4507 125.714 94.5073C127.927 98.5639 130.776 99.9384 130.776 99.9384C130.776 99.9384 128.698 99.7038 125.58 97.2899C122.462 94.8761 121.758 90.149 121.758 90.149L122.831 107.616C122.831 107.616 122.496 104.766 121.121 101.212C119.78 97.5916 115.656 92.0264 114.181 84.9526C112.706 77.9123 114.483 64.368 114.483 64.368C114.483 64.368 115.623 66.6142 117.869 67.8546C120.115 69.0951 121.758 69.1286 124.373 67.0165C126.954 64.9379 131.212 65.072 131.212 65.072C131.212 65.072 130.173 65.2397 128.698 66.5472C127.223 67.8547 127.491 68.8269 127.491 68.8269C127.491 68.8269 129.234 67.4188 134.062 66.1449C138.856 64.8374 142.208 66.7483 142.208 66.7483C142.208 66.7483 140.365 66.6477 136.207 67.5194C132.05 68.3575 130.273 70.3355 124.976 72.5482C119.713 74.7609 117.232 71.6095 117.232 71.6095C117.232 71.6095 117.5 72.6488 118.204 73.6881C118.875 74.7609 120.484 75.4314 122.462 75.8672C124.406 76.2695 127.088 74.5262 129.771 73.1181C132.486 71.7101 135.738 72.6823 135.738 72.6823C135.738 72.6823 133.425 72.8499 127.256 76.9065C121.087 80.9631 116.93 78.4822 116.93 78.4822C116.93 78.4822 117.735 80.259 120.786 81.4324C123.87 82.6058 129.134 80.4267 132.318 78.5492C135.47 76.6383 136.207 76.6048 142.208 77.2417C148.209 77.8787 152.4 86.4612 152.4 86.4612C152.4 86.4612 152.434 86.3607 152.97 83.3434C153.506 80.3261 150.255 76.2025 150.255 76.2025C150.255 76.2025 151.059 76.2025 152.467 76.8395C153.875 77.4764 154.278 78.4151 154.278 78.4151C154.278 78.4151 154.345 77.7111 153.641 75.7331C152.937 73.7551 148.813 71.0396 148.813 71.0396C148.813 71.0396 149.718 71.2407 151.294 71.7771C152.87 72.28 155.484 72.4141 155.484 72.4141C155.484 72.4141 154.512 72.0788 151.093 69.5309C147.673 66.9159 142.812 58.8028 142.812 58.8028C142.812 58.8028 148.042 62.1218 151.093 58.2999C154.143 54.4445 158.334 54.1092 158.334 54.1092C158.334 54.1092 157.295 54.3439 156.758 55.6849C156.222 57.026 157.965 58.3335 157.965 58.3335C157.965 58.3335 157.932 57.9647 159.642 56.3554C161.351 54.7127 165.777 54.9139 165.777 54.9139C165.777 54.9139 164.235 55.2826 163.061 56.456C161.854 57.5959 162.726 59.2051 162.726 59.2051C162.726 59.2051 163.665 58.5346 165.743 58.2999C167.822 58.0988 169.263 59.8756 169.263 59.8756C169.263 59.8756 169.062 59.8086 168.258 59.8421C167.42 59.8756 165.978 60.7473 165.978 60.7473C165.978 60.7473 166.045 60.7473 166.883 61.2502C167.755 61.7195 169.565 64.9379 168.526 69.7656C167.453 74.6268 159.44 78.8174 159.44 78.8174C159.44 78.8174 170.303 79.2533 172.817 69.8662C175.365 60.5126 170.739 54.9139 167.252 51.4943C163.765 48.0747 149.115 51.2261 149.115 51.2261C149.115 51.2261 153.439 48.1082 158.602 46.9013C163.765 45.6944 168.09 47.0689 168.09 47.0689C168.09 47.0689 168.09 47.0689 165.71 44.6886C163.329 42.3418 156.658 39.1569 156.658 39.1569C156.658 39.1569 158.77 38.3188 167.621 39.1234C176.471 39.8945 190.787 50.3209 190.787 50.3209C190.787 50.3209 185.121 39.6933 176.773 32.3178C168.459 24.9422 160.01 26.9537 160.01 26.9537C160.01 26.9537 162.19 27.0878 164.469 28.5629C166.715 30.038 165.911 32.0496 165.911 32.0496C165.911 32.0496 157.429 31.4126 143.851 33.2229C130.24 34.9998 102.112 54.2769 102.112 54.2769Z" fill="#002442"/>
<path d="M60.1732 42.2771C65.0679 33.6611 40.3597 14.2499 34.0234 14.8869C60.2403 13.1436 72.9129 21.4914 82.0653 44.8251L60.1732 42.2771Z" fill="#002442"/>
<path d="M78.372 51.8302C88.2284 42.0073 65.5653 2.2462 57.3516 0C91.011 10.527 103.315 28.6307 104.756 66.2797L78.372 51.8302Z" fill="#002442"/>
<path d="M144.457 42.2771C139.562 33.6611 164.27 14.2499 170.607 14.8869C144.39 13.1436 131.717 21.4914 122.531 44.8251L144.457 42.2771Z" fill="#002442"/>
<path d="M126.345 51.8302C116.522 42.0073 139.152 2.2462 147.366 0C113.74 10.527 101.436 28.6307 99.9609 66.2797L126.345 51.8302Z" fill="#002442"/>
</svg>
