<svg width="257" height="207" viewBox="0 0 257 207" fill="none" xmlns="http://www.w3.org/2000/svg">
<path d="M133.748 130.762C133.748 130.762 91.919 134.159 68.5455 118.137C45.2226 102.116 18.8576 77.1702 0.25 80.8714C0.25 80.8714 42.8396 118.594 33.8653 128.683C32.7499 129.951 26.7164 131.979 23.0151 133.094C21.1392 133.652 19.5167 134.869 18.452 136.441L17.6407 137.607C15.6634 140.446 15.6127 144.249 17.5393 147.139C19.3646 149.978 22.6602 151.499 25.9559 151.043C45.9324 148.204 114.684 138.215 133.748 130.762Z" fill="url(#paint0_linear_62_3)"/>
<path d="M40.863 91.1113C46.9472 45.9866 85.582 11.1544 132.38 11.1544C170.001 11.1544 202.348 33.6154 216.748 65.8618C217.897 65.7604 218.996 65.7097 220.043 65.7097H220.094C223.238 65.7097 226.33 66.2167 229.22 66.8758C214.416 27.7846 176.643 0 132.38 0C81.7287 0 39.5954 36.3533 30.6719 84.4187C34.0182 86.4467 37.4659 88.7283 40.863 91.1113Z" fill="url(#paint1_linear_62_3)"/>
<path d="M224.25 112.508C219.738 159.255 180.342 195.811 132.378 195.811C99.3714 195.811 70.4206 178.471 54.0946 152.411C49.8864 153.07 45.9316 153.678 42.1797 154.236C59.9253 185.722 93.6421 206.966 132.378 206.966C187.694 206.966 232.92 163.565 235.709 108.959C232.362 110.074 228.56 111.241 224.25 112.508Z" fill="#2A3D8F"/>
<path fill-rule="evenodd" clip-rule="evenodd" d="M187.086 116.666C179.582 118.491 141.809 124.829 141.809 124.829C132.024 126.198 122.086 126.096 112.301 124.525C100.082 122.598 83.8569 118.846 72.2969 111.951C72.2969 111.951 98.9661 104.751 135.877 94.5091C143.127 102.824 155.904 114.638 155.904 114.638C156.158 114.232 142.874 98.0582 128.018 79.8562L117.32 84.825C114.734 86.0419 111.743 84.9264 110.577 82.3913C109.36 79.8562 110.475 76.8648 113.01 75.648L121.427 71.7439C104.087 50.3477 87.0511 28.9515 88.9271 28.5966C92.5269 27.9375 146.981 75.5973 163.357 87.208L172.535 93.9007L166.653 86.0926C166.653 86.0926 203.919 71.1355 220.093 71.1862C224.808 71.1862 229.523 72.4538 233.935 73.9241C233.935 73.9241 227.597 75.2931 222.831 78.6394C221.918 79.2478 221.513 80.3125 221.715 81.3773C221.867 82.1885 222.628 82.7462 223.49 82.5941L244.734 78.6394C249.855 81.5294 253.81 84.8757 255.584 87.9685C260.604 96.4864 237.129 104.295 187.086 116.666ZM181.559 104.041L180.9 100.441L178.162 101.151L178.822 104.751L181.559 104.041ZM186.528 102.773L185.869 99.1736L183.131 99.8835L183.79 103.483L186.528 102.773ZM191.497 101.506L190.889 97.9061L188.151 98.5652L188.759 102.165L191.497 101.506ZM196.516 100.238L195.857 96.6386L193.119 97.3484L193.779 100.948L196.516 100.238ZM201.485 98.9708L200.877 95.371L198.139 96.0808L198.747 99.6807L201.485 98.9708ZM206.505 97.6526L205.846 94.1035L203.108 94.7626L203.767 98.3624L206.505 97.6526ZM211.474 96.385L210.814 92.7852L208.077 93.495L208.736 97.0949L211.474 96.385ZM216.442 95.1175L215.834 91.5177L213.096 92.2275L213.704 95.8273L216.442 95.1175ZM221.462 93.7992L220.803 90.1994L218.065 90.9092L218.724 94.5091L221.462 93.7992ZM226.431 92.5317L225.771 88.9319L223.084 89.6417L223.693 93.2415L226.431 92.5317ZM231.399 91.2641L230.791 87.6643L228.053 88.3741L228.712 91.9233L231.399 91.2641ZM236.368 89.9966L235.709 86.3968L232.971 87.1066L233.63 90.7064L236.368 89.9966Z" fill="#2A3D8F"/>
<defs>
<linearGradient id="paint0_linear_62_3" x1="-7.59865" y1="42.1773" x2="119.682" y2="74.8192" gradientUnits="userSpaceOnUse">
<stop stop-color="#2AA5DE"/>
<stop offset="0.539" stop-color="#2177B8"/>
<stop offset="1" stop-color="#29418F"/>
</linearGradient>
<linearGradient id="paint1_linear_62_3" x1="30.6486" y1="-0.0111561" x2="229.207" y2="-0.0111561" gradientUnits="userSpaceOnUse">
<stop stop-color="#2AA5DE"/>
<stop offset="0.539" stop-color="#2177B8"/>
<stop offset="1" stop-color="#29418F"/>
</linearGradient>
</defs>
</svg>
