<svg width="256" height="222" viewBox="0 0 256 222" fill="none" xmlns="http://www.w3.org/2000/svg">
<path d="M210.76 103.498C210.76 103.498 192.6 100.682 183.865 122.003C183.865 122.003 117.49 123.209 84.2736 128.841C84.2736 128.841 78.6417 106.659 56.7465 105.682C34.7938 104.762 26.346 124.474 26.9781 135.737C26.9781 135.737 29.1619 109.187 55.4822 110.049C79.6761 110.911 77.0901 137.634 77.0901 137.634C77.0901 137.634 145.362 122.29 189.152 128.209C189.152 128.209 187.313 106.027 210.76 103.498Z" fill="#8F0F0F"/>
<path d="M212.658 90.9678C192.027 88.7841 160.707 67.6359 144.387 64.6476C114.159 59.1306 95.8837 65.9119 83.0109 72.5207C70.1956 79.072 60.4835 82.8074 26.9223 92.2321C-6.58143 101.599 0.659512 124.184 0.659512 124.184C2.55595 137.344 21.0031 137.632 21.0031 137.632C18.1872 112.576 31.06 103.036 68.7589 97.0594C102.148 91.8299 190.131 93.8987 190.131 93.8987C146.57 81.4857 79.9077 89.0714 79.9077 89.0714C97.7227 67.5784 124.33 66.7164 143.754 71.2564C156.972 74.3022 191.05 90.3357 209.21 93.8987C227.37 97.4617 223.635 124.184 223.635 124.184C223.635 124.184 233.347 93.1516 212.658 90.9678Z" fill="#E92629"/>
<path d="M53.1858 113.898C42.2669 113.898 33.3594 122.748 33.3594 133.667C33.3594 144.586 42.2669 153.494 53.1858 153.494C64.1047 153.494 72.9547 144.586 72.9547 133.667C72.9547 122.748 64.1047 113.898 53.1858 113.898Z" fill="#8F0F0F"/>
<path d="M207.715 108.037C199.554 108.037 192.945 114.703 192.945 122.864C192.945 131.024 199.554 137.633 207.715 137.633C215.875 137.633 222.541 131.024 222.541 122.864C222.541 114.703 215.875 108.037 207.715 108.037Z" fill="#8F0F0F"/>
<path d="M255.937 37.6377L154.219 0.800781V14.5356L243.064 46.7176C242.719 59.418 240.995 84.9337 232.95 112.288C226.456 134.528 217.089 153.665 205.193 169.182C191.573 186.824 174.447 199.927 154.219 208.03V221.822C262.143 183.089 255.937 37.6377 255.937 37.6377Z" fill="#8F0F0F"/>
<path d="M103.014 168.896C98.1292 162.402 93.6467 155.334 89.5665 147.691C104.163 142.231 129.737 135.22 170.366 132.059C170.366 132.059 136.173 129.473 86.5207 141.599C82.383 142.595 78.1496 143.706 73.8203 144.932C75.0463 147.576 76.3489 150.219 77.7281 152.863C92.7272 181.712 116.519 208.319 154.218 221.824V208.032C133.874 199.871 116.691 186.711 103.014 168.896Z" fill="#E92629"/>
<path d="M103.072 53.4413C85.8891 57.4641 74.1657 62.1765 66.5225 64.8774C65.7754 57.4641 65.488 51.2576 65.3731 46.7176L154.218 14.5356V0.800781L52.5003 37.6377C52.5003 37.6377 51.8107 53.3839 54.7415 75.8538C54.8565 76.6966 54.9714 77.5395 55.0864 78.3824C57.6149 77.0606 61.8101 74.8768 67.327 72.3483C72.729 69.8197 79.4527 66.9463 86.981 64.2453C115.772 53.8436 136.691 50.9127 161.057 62.6362C161.057 62.6362 141.231 44.4189 103.072 53.4413Z" fill="#E92629"/>
</svg>
