<svg width="257" height="257" viewBox="0 0 257 257" fill="none" xmlns="http://www.w3.org/2000/svg">
<path d="M109.666 126.033C103.611 132.051 103.611 141.817 109.666 147.871C115.684 153.889 125.449 153.889 131.503 147.871C137.521 141.817 137.521 132.051 131.503 126.033C125.449 119.979 115.684 119.979 109.666 126.033Z" fill="#1F2829"/>
<path fill-rule="evenodd" clip-rule="evenodd" d="M233.301 54.7893C248.112 75.6542 256.797 101.168 256.797 128.699C256.797 199.402 199.5 256.699 128.797 256.699C58.0942 256.699 0.796875 199.402 0.796875 128.699C0.796875 58.0326 58.0942 0.699219 128.797 0.699219C156.328 0.699219 181.842 9.41994 202.707 24.1947L190.238 36.6632C193.626 42.9695 197.95 48.9154 203.283 54.2127C208.617 59.5461 214.527 63.8704 220.833 67.2578L233.301 54.7893ZM204.437 98.8974C195.139 93.5641 186.419 86.9335 178.491 79.0055C170.599 71.0776 163.968 62.3569 158.599 53.0956C157.638 54.1286 156.653 55.1497 155.644 56.1587C134.13 77.6722 107.175 90.501 79.2113 94.6452C80.8329 131.69 70.5266 169.204 48.4005 200.879C48.4005 200.879 64.3284 184.339 81.5537 155.834C86.3464 147.942 97.2293 147.186 103.788 153.744C110.31 160.267 109.59 171.15 101.662 175.942C73.1933 193.204 56.6167 209.132 56.6167 209.132C88.3284 186.969 125.806 176.699 162.851 178.285C166.995 150.321 179.824 123.402 201.373 101.852C202.382 100.843 203.404 99.8584 204.437 98.8974ZM220.797 76.8073C212.509 72.3749 204.761 66.6812 197.806 59.7262C190.815 52.7353 185.121 44.9875 180.689 36.7353L167.428 49.9965C171.5 58.465 177.049 66.4289 184.076 73.456C191.103 80.483 199.031 85.9965 207.5 90.0686L220.797 76.8073Z" fill="#1F2829"/>
</svg>
