<svg width="256" height="257" viewBox="0 0 256 257" fill="none" xmlns="http://www.w3.org/2000/svg">
<path d="M39.0161 207.526C43.7733 206.328 48.1541 204.138 51.6107 202.29C59.3455 198.183 67.1145 185.075 73.3776 173.917C88.8472 146.332 92.2012 134.799 114.755 103.243C122.25 92.7365 142.34 38.4905 158.152 3.99202C148.501 1.66475 138.404 0.398438 128 0.398438C57.292 0.398438 0 57.7247 0 128.399C0 159.817 11.2941 188.565 30.0835 210.846C32.6503 209.271 36.0043 208.245 39.0161 207.526Z" fill="#8DC63F"/>
<path fill-rule="evenodd" clip-rule="evenodd" d="M255.996 128.4C255.996 199.108 198.704 256.4 127.996 256.4C100.65 256.4 75.3241 247.844 54.5498 233.23C35.5209 236.824 27.8203 224.366 27.8203 224.366C28.482 225.05 29.2577 225.644 30.1476 226.146C43.3241 233.641 59.1016 224.845 59.1016 224.845C66.1177 221.423 73.476 220.054 77.5829 219.266C105.271 214.099 107.085 196.404 118.481 182.783C109.035 186.993 103.149 191.236 103.149 191.236C130.528 160.4 162.118 172.516 186.075 163.72C201.716 157.97 203.632 144.417 200.21 133.91C197.711 126.312 194.939 120.563 193.194 112.725C191.585 105.572 191.517 97.8717 192.509 90.2053C183.782 101.842 180.154 119.604 180.154 119.604C179.778 78.2267 219.718 29.3882 237.515 16.3828C237.515 16.3828 229.746 27.0951 222.73 42.3251C243.401 65.0502 255.996 95.2706 255.996 128.4ZM202.469 167.485C199.833 170.428 196.069 172.858 191.038 174.466C173.001 180.148 151.405 174.466 129.707 182.372C150.31 177.17 170.092 183.125 187.204 178.744C195.076 176.725 199.902 172.516 202.469 167.485Z" fill="#00ADEE"/>
</svg>
