<svg width="257" height="222" viewBox="0 0 257 222" fill="none" xmlns="http://www.w3.org/2000/svg">
<path d="M55.6172 221.035C55.6172 221.035 67.9825 190.837 118.94 186.477C161.959 182.767 255.414 181.466 254.763 134.152C254.763 134.152 268.365 174.958 214.869 190.837C145.819 211.273 85.424 188.755 55.6172 221.035Z" fill="url(#paint0_linear_40_2908)"/>
<path d="M39.1562 87.5561L81.3935 92.8927C81.3935 92.8927 96.1667 88.2069 104.237 83.5211C104.237 83.5211 60.9582 83.1957 39.1562 87.5561Z" fill="url(#paint1_linear_40_2908)"/>
<path fill-rule="evenodd" clip-rule="evenodd" d="M236.937 92.892C241.818 103.305 245.267 115.93 245.397 130.834C245.723 180.751 115.627 149.252 74.366 190.838C74.366 190.838 105.409 159.534 101.504 142.223C92.7837 103.305 36.4891 109.357 21.0651 123.089C21.0651 123.089 17.5507 100.441 62.4562 97.3174C100.073 94.7142 110.746 81.3076 110.746 81.3076C110.746 81.3076 43.5178 78.7044 25.1001 90.5491C6.61721 102.394 12.6697 115.019 12.6697 115.019C12.6697 115.019 -35.2946 65.1026 57.7704 46.6848C57.7704 46.6848 51.0021 46.2944 58.6165 27.8766C70.0056 0.217403 117.644 -2.97154 155.977 3.40634C155.977 3.40634 135.086 4.05715 118.946 10.1096C118.946 10.1096 168.277 2.69046 206.154 32.5624C206.154 32.5624 192.422 29.1782 182.009 29.1782C182.009 29.1782 234.008 39.2657 249.042 91.9157C249.042 91.9157 229.257 63.4105 206.479 56.3818C206.479 56.3818 207.911 57.293 210.319 59.1152C222.164 68.4868 229.127 82.8045 228.672 97.9032C227.956 121.918 209.017 124.196 188.061 128.296C161.574 133.502 158.19 145.217 158.19 145.217C176.412 129.793 202.77 138.839 221.578 125.758C239.996 112.937 236.937 92.892 236.937 92.892ZM145.434 52.3468C161.313 46.2944 180.903 51.8262 180.903 51.8262C166.845 44.0165 149.208 45.0578 149.208 45.0578C158.515 39.526 171.856 39.7863 171.856 39.7863C151.877 35.7513 136.388 35.6212 124.608 37.0529C125.845 37.5736 127.016 38.2895 127.992 39.2006C127.472 39.027 126.929 38.9403 126.365 38.9403C123.632 38.9403 121.484 41.0879 121.484 43.8213C121.484 46.4896 123.632 48.7023 126.365 48.7023C128.773 48.7023 130.791 46.8801 131.181 44.5372C131.398 45.4483 131.507 46.3811 131.507 47.3356C131.507 53.5183 126.56 58.4644 120.378 58.4644C114.26 58.4644 109.249 53.5183 109.249 47.3356C109.249 44.2118 110.551 41.3482 112.698 39.3308C99.6822 42.7149 94.1504 47.7912 94.1504 47.7912C99.6822 57.358 117.775 61.1327 117.775 61.1327C128.383 61.393 129.619 58.3993 145.434 52.3468Z" fill="url(#paint2_linear_40_2908)"/>
<defs>
<linearGradient id="paint0_linear_40_2908" x1="-134.588" y1="-259.257" x2="150.86" y2="103.789" gradientUnits="userSpaceOnUse">
<stop stop-color="#E92629"/>
<stop offset="1" stop-color="#BE232F"/>
</linearGradient>
<linearGradient id="paint1_linear_40_2908" x1="-2.60848" y1="-11.8347" x2="159.731" y2="194.637" gradientUnits="userSpaceOnUse">
<stop stop-color="#E92629"/>
<stop offset="1" stop-color="#BE232F"/>
</linearGradient>
<linearGradient id="paint2_linear_40_2908" x1="86.8594" y1="-140.015" x2="269.866" y2="92.742" gradientUnits="userSpaceOnUse">
<stop stop-color="#E92629"/>
<stop offset="1" stop-color="#BE232F"/>
</linearGradient>
</defs>
</svg>
