<svg width="257" height="185" viewBox="0 0 257 185" fill="none" xmlns="http://www.w3.org/2000/svg">
<path d="M237.938 51.7928C251.912 46.3765 262.194 21.8713 253.098 8.85909C244.068 -4.15312 223.502 -4.15311 184.547 18.1724C150.733 37.5916 137.814 69.4946 134.98 77.553C135.639 74.4485 134.189 72.3349 134.189 72.3349C148.426 50.5378 144.142 27.4857 137.814 22.5318C131.486 17.5779 128.52 21.0787 128.52 21.0787C149.349 22.3337 135.836 69.3625 132.673 69.891C129.509 70.3533 128.52 72.3349 128.52 72.3349C128.52 72.3349 127.531 70.3533 124.367 69.891C121.203 69.4286 107.757 22.3337 128.52 21.0787C128.52 21.0787 125.554 17.644 119.226 22.5318C112.898 27.4197 108.548 50.4717 122.851 72.3349C122.851 72.3349 121.401 74.4485 122.06 77.553C119.226 69.4946 106.307 37.5256 72.4927 18.1724C33.6033 -4.15311 13.038 -4.15312 3.94185 8.85909C-5.08841 21.8713 5.19422 46.3765 19.1022 51.7928C19.1022 51.7928 6.64432 50.5378 7.83077 62.8234C9.08315 75.1091 27.4073 87.8571 39.1401 92.2825C50.8728 96.708 54.0368 103.049 47.4453 107.739C40.8539 112.428 25.6936 117.58 26.4186 122.931C27.1437 128.347 38.1514 129.8 36.9649 136.141C35.7125 142.548 26.4187 142.02 28.1324 146.907C29.8462 151.795 38.415 150.804 38.1514 155.956C37.8877 161.109 6.11703 167.516 10.006 179.009C13.8949 190.568 32.5487 180.99 38.415 162.363C42.8313 155.956 56.7392 170.488 72.6905 167.516C88.6418 164.543 123.115 126.299 125.092 110.975C125.092 110.975 125.817 123.393 128.52 125.837C131.222 123.393 131.948 110.975 131.948 110.975C133.925 126.299 168.398 164.609 184.349 167.516C200.235 170.488 214.209 155.956 218.625 162.363C224.491 180.99 243.079 190.568 247.034 179.009C250.923 167.449 219.152 161.109 218.889 155.956C218.625 150.804 227.194 151.795 228.908 146.907C230.621 142.02 221.327 142.482 220.075 136.141C218.823 129.734 229.896 128.281 230.621 122.931C231.346 117.514 216.186 112.362 209.595 107.739C203.003 103.049 206.167 96.708 217.9 92.2825C229.633 87.8571 248.023 75.1091 249.209 62.8234C250.396 50.5378 237.938 51.7928 237.938 51.7928ZM90.3556 139.84C65.374 156.749 51.6638 130.791 59.244 121.676C66.8241 112.626 75.9862 98.7556 59.3099 87.6589C42.6994 76.5622 47.2476 66.3902 52.7844 64.4747C52.7844 64.4747 33.5374 52.7175 39.4038 37.9879C45.2701 23.2584 70.5154 20.4842 92.7285 46.0463C114.942 71.5423 118.501 86.4039 118.699 96.2456C118.962 105.559 115.271 122.865 90.3556 139.84ZM204.19 64.4087C209.726 66.3902 214.275 76.4961 197.664 87.5928C181.054 98.6895 190.15 112.494 197.73 121.61C205.31 130.659 191.6 156.683 166.618 139.774C141.637 122.865 138.012 105.493 138.209 96.1135C138.473 86.2718 142.032 71.4762 164.18 45.9142C186.393 20.4182 211.572 23.1923 217.504 37.8558C223.437 52.6514 204.19 64.4087 204.19 64.4087Z" fill="url(#paint0_linear_37_24462)"/>
<defs>
<linearGradient id="paint0_linear_37_24462" x1="0.525248" y1="92.0408" x2="256.5" y2="92.0408" gradientUnits="userSpaceOnUse">
<stop stop-color="#FFF33B"/>
<stop offset="0.1165" stop-color="#FFCA64"/>
<stop offset="0.2354" stop-color="#F9A774"/>
<stop offset="0.3574" stop-color="#F5897A"/>
<stop offset="0.4805" stop-color="#F26F7D"/>
<stop offset="0.6051" stop-color="#F0577D"/>
<stop offset="0.7317" stop-color="#EE417C"/>
<stop offset="0.8617" stop-color="#EE317C"/>
<stop offset="1" stop-color="#EE2A7B"/>
</linearGradient>
</defs>
</svg>
