<svg width="257" height="219" viewBox="0 0 257 219" fill="none" xmlns="http://www.w3.org/2000/svg">
<path d="M0.5 0.400024L51.4429 33.987C58.6745 32.0585 66.0669 30.9336 73.9413 30.9336C94.672 30.9336 113.635 38.4866 128.42 50.8608C143.204 38.4866 162.167 30.9336 182.898 30.9336C190.612 30.9336 198.165 32.0585 205.396 33.987L256.5 0.400024H0.5Z" fill="#5C5259"/>
<path d="M195.915 199.993H256.5V158.532C243.804 180.387 221.788 196.136 195.915 199.993Z" fill="#5C5259"/>
<path d="M0.5 158.853V199.993H60.9244C35.2119 196.136 13.1955 180.548 0.5 158.853Z" fill="#5C5259"/>
<path d="M131.794 115.946C131.794 148.086 105.921 173.959 73.9413 173.959C41.8007 173.959 15.9275 148.086 15.9275 115.946C15.9275 83.9656 41.8007 58.0924 73.9413 58.0924C105.921 58.0924 131.794 83.9656 131.794 115.946Z" fill="#5C5259"/>
<path d="M73.9413 149.372C55.4605 149.372 40.3544 134.426 40.3544 115.946C40.3544 97.6254 55.4605 82.5193 73.9413 82.5193C92.2615 82.5193 107.368 97.6254 107.368 115.946C107.368 134.426 92.2615 149.372 73.9413 149.372Z" fill="#FBB040"/>
<path d="M240.912 115.946C240.912 148.086 215.039 173.959 182.898 173.959C150.918 173.959 124.884 148.086 124.884 115.946C124.884 83.9656 150.918 58.0924 182.898 58.0924C215.039 58.0924 240.912 83.9656 240.912 115.946Z" fill="#5C5259"/>
<path d="M182.898 149.372C164.417 149.372 149.472 134.426 149.472 115.946C149.472 97.6254 164.417 82.5193 182.898 82.5193C201.379 82.5193 216.324 97.6254 216.324 115.946C216.324 134.426 201.379 149.372 182.898 149.372Z" fill="#FBB040"/>
<path d="M128.42 181.191C116.688 190.994 102.386 197.743 86.6368 200.154C102.386 202.404 116.849 209.153 128.58 218.956C140.151 209.153 154.454 202.404 170.202 200.154C154.454 197.743 140.151 190.994 128.42 181.191Z" fill="#5C5259"/>
</svg>
