<svg width="161" height="257" viewBox="0 0 161 257" fill="none" xmlns="http://www.w3.org/2000/svg">
<path fill-rule="evenodd" clip-rule="evenodd" d="M158.905 120.919C158.905 125.5 158.032 129.973 156.614 134.117V193.891C156.614 223.559 89.6418 252.682 82.0065 255.955L80.6976 256.5L79.2796 255.955C71.6444 252.682 4.67205 223.559 4.67205 193.891V133.79C3.36315 129.754 2.59962 125.391 2.59962 120.919C2.59962 116.12 3.47221 111.539 4.99926 107.285L4.67205 107.176C19.3972 72.7079 5.10834 50.0202 4.99926 49.802L0.199951 42.494L8.70786 44.4574C20.9243 47.0752 31.0683 51.5473 39.5762 56.8919V40.8579L18.4156 30.6048L80.6976 0.5L142.98 30.6048L118.111 42.6031V59.0735C127.273 52.8562 138.508 47.5115 152.36 44.4574L160.868 42.494L156.178 49.802C155.632 50.6746 142.543 71.8353 155.414 104.776C155.632 105.212 155.814 105.612 155.96 105.976C156.105 106.412 156.251 106.812 156.396 107.176C157.923 111.539 158.905 116.12 158.905 120.919ZM151.379 125.5C146.361 112.848 134.036 104.34 120.292 104.34C103.494 104.34 89.4237 116.774 87.2422 133.245C92.1506 145.679 104.258 154.405 118.329 154.405C135.235 154.405 149.197 141.753 151.379 125.5ZM43.1757 154.405C58.6644 154.405 71.7534 143.716 75.462 129.318C71.6444 114.593 58.4462 104.34 43.1757 104.34C27.796 104.34 14.5979 114.593 10.7803 129.318C14.4888 143.716 27.5779 154.405 43.1757 154.405ZM149.088 107.721C143.961 95.8319 132.072 87.4331 118.329 87.4331C100.877 87.4331 86.4786 100.958 84.9516 117.974C91.9324 105.54 105.24 97.2499 120.292 97.2499C131.745 97.2499 142.434 102.158 149.961 110.23C149.742 109.575 149.524 108.957 149.306 108.376C149.233 108.157 149.161 107.939 149.088 107.721ZM136.653 84.8153C131.854 78.4889 125.091 73.0351 116.911 68.7812C110.912 73.6896 106.003 78.8162 102.186 83.7245C107.094 81.543 112.548 80.3432 118.329 80.3432C124.873 80.3432 131.2 81.9793 136.653 84.8153ZM97.7134 77.9436C88.7692 82.4157 82.4428 85.1425 82.0065 85.3607L80.6976 85.9061L79.2796 85.3607C78.8433 85.1425 72.2988 82.4156 63.2456 77.8344C68.8084 84.5971 72.4079 91.0326 74.6985 95.5047C77.2072 98.5588 79.1706 102.049 80.6976 105.758C82.0066 102.486 83.8608 99.4314 85.9333 96.5954C88.1148 92.0143 91.8233 85.2516 97.7134 77.9436ZM43.8301 68.563C34.8859 73.0351 27.687 79.0343 22.7786 85.9061C28.7777 82.4156 35.6495 80.3432 43.1757 80.3432C48.6294 80.3432 53.9742 81.543 58.7735 83.5064C54.9558 78.598 50.0474 73.3624 43.8301 68.563ZM10.453 113.72C17.8702 103.576 29.8685 97.2499 43.1757 97.2499C56.3738 97.2499 68.3721 103.685 75.7893 113.829C74.6985 108.485 72.2988 103.685 68.9175 99.6495L68.8084 99.7586C68.8084 99.6132 68.7721 99.4678 68.6993 99.3223C62.482 92.1233 53.3197 87.4331 43.1757 87.4331C27.1416 87.4331 13.7253 98.777 10.453 113.72ZM95.4228 154.405C88.8783 149.933 83.7518 143.607 80.6976 136.081C77.6435 143.607 72.517 149.933 65.9725 154.405H95.4228ZM65.6452 161.495L81.243 174.584L96.9498 161.495H65.6452ZM146.797 53.1834C137.744 56.0194 130 59.837 123.346 64.2C131.418 68.7812 138.071 74.5622 142.98 81.2158C142.107 68.8903 144.507 59.2916 146.797 53.1834ZM34.7769 30.6048L80.6976 52.7471L126.727 30.6048L80.6976 8.35338L34.7769 30.6048ZM46.7752 44.2392V60.4915C61.5004 69.5448 76.3346 76.3074 80.8067 78.2708C84.9516 76.4165 97.7134 70.6355 111.13 62.673V45.9844L80.8067 60.7096L46.7752 44.2392ZM14.4888 53.1834C16.6703 59.0735 18.9609 68.2358 18.4156 79.9069C23.324 73.6896 29.7594 68.2358 37.5038 63.8728C31.0683 59.7279 23.433 55.9103 14.4888 53.1834ZM29.8685 219.305C44.0483 209.052 52.338 192.8 52.338 175.239C52.338 170.549 51.7926 165.967 50.5928 161.495H39.5762V161.277C28.4505 160.295 18.6337 154.842 11.871 146.661V193.891C11.871 202.071 19.5063 210.906 29.8685 219.305ZM126.4 223.232C111.893 211.67 103.276 194 103.276 175.239C103.276 171.748 103.603 168.258 104.258 164.768L81.3521 183.856L58.5553 164.768C59.137 168.185 59.4279 171.676 59.4279 175.239C59.4279 194.327 50.7019 212.106 35.7586 223.777C51.0291 234.685 69.8992 244.065 80.8067 248.865C91.8233 244.065 111.021 234.358 126.4 223.232ZM149.633 146.77C142.543 155.278 132.181 160.841 120.401 161.386V161.495H112.111C111.021 165.967 110.366 170.549 110.366 175.239C110.366 192.473 118.438 208.507 132.181 218.869C142.325 210.579 149.633 201.853 149.633 193.891V146.77Z" fill="black"/>
<path d="M43.1757 114.811C35.6495 114.811 29.6503 120.919 29.6503 128.336H36.7402C36.7402 124.846 39.5762 121.901 43.0666 121.901C46.6661 121.901 49.5021 124.846 49.5021 128.336H56.592C56.592 120.919 50.5928 114.811 43.0666 114.811H43.1757Z" fill="black"/>
<path d="M120.292 114.811C112.875 114.811 106.876 120.919 106.876 128.336H113.966C113.966 124.846 116.802 121.901 120.292 121.901C123.892 121.901 126.727 124.846 126.727 128.336H133.817C133.817 120.919 127.818 114.811 120.292 114.811Z" fill="black"/>
</svg>
