<svg width="217" height="257" viewBox="0 0 217 257" fill="none" xmlns="http://www.w3.org/2000/svg">
<path d="M67.4116 74.2927C61.8134 74.2927 57.2649 69.7442 57.2649 64.0294H49.684C49.684 73.8262 57.6148 81.8736 67.4116 81.8736C77.2084 81.8736 85.2558 73.8262 85.2558 64.0294H77.6749C77.6749 69.7442 73.1264 74.2927 67.4116 74.2927Z" fill="black"/>
<path d="M149.518 74.2927C143.92 74.2927 139.372 69.7442 139.372 64.0294H131.791C131.791 73.8262 139.721 81.8736 149.518 81.8736C159.315 81.8736 167.362 73.8262 167.362 64.0294H159.782C159.782 69.7442 155.116 74.2927 149.518 74.2927Z" fill="black"/>
<path fill-rule="evenodd" clip-rule="evenodd" d="M214.597 44.9023C208.144 43.425 201.962 42.3753 196.053 41.7533C199.785 49.4508 202.818 57.8481 204.917 66.9451L205.033 67.4116C207.366 77.2084 208.532 87.5883 208.532 98.0849C208.532 188.356 114.646 252.735 110.564 255.417L108.582 256.7L106.482 255.534C105.549 254.951 81.7569 240.489 57.6148 213.781C35.2221 189.172 8.51409 149.052 8.51409 98.0849C8.51409 87.8216 9.56373 77.6749 11.7797 67.8781C13.9956 58.5478 17.028 49.8007 20.9934 41.7533C18.3498 42.0643 15.6673 42.4142 12.946 42.803C9.68036 43.3861 6.29814 43.9692 2.33276 44.9023L0.699951 37.438C4.78196 36.6216 8.39746 35.9218 11.6631 35.3387C16.4448 34.6389 20.9934 34.0558 25.4253 33.7059C27.6023 30.1293 29.9349 26.8248 32.423 23.7925C26.5138 23.1705 20.2547 22.8594 13.6457 22.8594V15.2785C22.5095 15.2785 30.9068 15.8617 38.7209 17.028C49.9173 6.29813 62.8631 0.699951 76.392 0.699951H81.2904C81.3681 0.699951 81.4459 0.699951 81.5236 0.699951H135.406C135.562 0.699951 135.678 0.699951 135.756 0.699951H140.538C154.067 0.699951 167.129 6.29816 178.209 16.9114C186.062 15.8228 194.459 15.2785 203.401 15.2785V22.8594C196.792 22.8594 190.494 23.1705 184.507 23.7925C186.995 26.8248 189.327 30.1293 191.505 33.7059C199.358 34.328 207.599 35.5719 216.23 37.438L214.597 44.9023ZM81.2904 8.28082C69.6275 8.39745 58.8977 12.4795 50.3838 19.2439C87.705 27.8745 102.517 49.684 108.465 65.8954C111.147 58.4312 115.696 49.9173 123.51 41.8699C134.123 30.9068 148.585 23.326 166.546 19.1273C158.032 12.4795 147.419 8.39745 135.756 8.28082H81.2904ZM182.407 40.9369C164.213 40.7036 148.935 44.4358 136.806 52.3665C118.728 64.146 113.363 81.6403 112.43 85.3724H121.411L108.465 108.232L95.5191 85.3724H104.616C103.1 79.3077 91.4371 40.2371 34.5223 40.9369C32.5396 46.4184 31.3733 52.2498 31.3733 58.4312C31.3733 106.599 97.3852 138.089 108.465 142.987C119.311 137.622 185.556 103.1 185.556 58.4312C185.556 52.2498 184.507 46.4184 182.407 40.9369ZM38.1378 33.356C65.1956 33.8225 82.5733 43.0362 93.653 53.6494C85.1391 41.9865 70.2107 30.557 43.736 25.5419C41.6366 27.9522 39.7706 30.5569 38.1378 33.356ZM128.992 47.0016C127.242 48.751 125.726 50.6171 124.326 52.3665C126.776 50.2672 129.458 48.0512 132.49 46.0685C145.203 37.9045 160.598 33.5892 178.792 33.356C177.159 30.5569 175.293 27.9522 173.194 25.5419C154.417 29.0408 139.605 36.2717 128.992 47.0016ZM23.7924 58.4312C23.7924 56.7984 23.8702 55.2045 24.0257 53.6494C22.1596 58.4701 20.6046 63.524 19.3605 68.8111C27.4079 105.199 48.9842 134.59 69.0444 155.233C70.7549 147.302 71.8046 139.333 72.1934 131.324C49.4508 115.696 23.7924 90.8539 23.7924 58.4312ZM75.3423 161.414C90.2708 175.76 103.45 184.857 108.348 188.122C113.247 184.507 126.309 174.593 141.238 159.782C139.216 151.618 137.933 143.376 137.389 135.056C123.16 144.503 111.381 149.985 110.098 150.568L108.582 151.268L107.065 150.685C105.782 150.218 93.8863 145.203 79.541 136.223C78.8412 144.698 77.4416 153.095 75.3423 161.414ZM147.535 153.25C167.596 131.907 189.055 102.284 197.336 67.8781C196.17 62.9797 194.692 58.2757 192.904 53.766C193.06 55.3211 193.137 56.8761 193.137 58.4312C193.137 88.638 167.479 113.713 144.736 130.041C145.047 137.816 145.98 145.553 147.535 153.25ZM16.095 98.2016C16.095 138.089 33.356 171.444 53.0663 196.636C58.9754 185.906 63.524 175.021 66.7118 163.98C48.1678 145.553 27.6412 119.545 16.5615 86.8886C16.3282 90.6207 16.095 94.3528 16.095 98.2016ZM157.799 201.301C151.734 190.494 146.991 179.492 143.57 168.295C126.309 185.09 111.964 194.887 110.564 195.82L108.582 197.103L106.482 195.936C105.199 195.12 90.5041 186.14 72.8931 169.812C69.3165 181.008 64.4181 192.049 58.1979 202.934C79.3077 227.659 101.584 243.288 108.348 247.72C114.996 242.938 136.922 226.26 157.799 201.301ZM200.951 98.2016C200.951 93.6531 200.602 89.2212 200.252 84.7893C189.055 116.512 168.412 142.987 149.751 162.231C152.784 173.272 157.177 184.157 162.93 194.887C183.107 169.112 200.951 135.756 200.951 98.2016Z" fill="black"/>
</svg>
