<svg width="219" height="257" viewBox="0 0 219 257" fill="none" xmlns="http://www.w3.org/2000/svg">
<path fill-rule="evenodd" clip-rule="evenodd" d="M214.456 24.3721C208.566 21.427 202.14 19.6867 195.581 19.2851C202.676 28.1204 206.558 39.0975 206.558 50.6102V256.767H202.14C137.348 256.767 89.5575 241.773 60.1066 212.189C21.8204 173.769 22.0882 119.418 22.222 83.4078C22.222 81.5337 22.222 79.6595 22.222 77.7854C17.0012 69.7533 14.19 60.3825 14.19 50.6102C14.19 39.0975 18.206 27.9865 25.301 19.1512C17.8044 19.2851 10.5755 21.0254 3.88212 24.3721L0 16.4739C8.29981 12.4578 17.2689 10.4498 26.5058 10.4498C29.0047 10.4498 31.4143 10.5837 33.7347 10.8514C40.6958 5.49673 48.9956 2.01617 57.697 0.811355C58.2325 0.722109 58.768 0.766699 59.3034 0.94519C59.5712 1.03444 60.1513 1.16833 61.0437 1.34682C79.1159 6.56766 95.7155 9.24501 110.441 9.24501C130.387 9.24501 150.467 3.75642 158.098 1.74841C160.909 0.945198 161.578 0.811355 162.516 0.811355C162.694 0.811355 162.873 0.811355 163.051 0.811355C171.619 2.01617 179.785 5.36285 186.746 10.7176C188.352 10.5391 190.003 10.4498 191.699 10.4498C201.07 10.4498 210.039 12.4578 218.338 16.4739L214.456 24.3721ZM197.723 50.7441C197.723 38.8298 192.77 27.7188 183.934 19.8206C174.296 21.1592 165.461 25.3092 158.098 31.4671C167.469 32.8058 174.698 40.9717 174.698 50.7441C174.698 61.4535 165.996 70.1549 155.287 70.1549C144.577 70.1549 135.742 61.4535 135.742 50.7441C135.742 49.2269 135.92 47.7544 136.277 46.3264C129.718 49.6731 122.355 51.815 114.725 52.3505C115.662 74.4387 133.868 92.2431 156.224 92.2431C179.115 92.2431 197.723 73.6355 197.723 50.7441ZM165.728 10.3159C165.014 12.8148 164.122 15.2245 163.051 17.5448C166.532 15.7599 170.146 14.2874 173.894 13.1272C171.306 11.8777 168.584 10.9407 165.728 10.3159ZM64.3904 11.3869C71.2177 30.6639 89.4237 43.9168 110.307 43.9168C131.19 43.9168 149.53 30.53 156.224 11.253C146.585 13.7965 128.513 18.0803 110.307 18.0803C96.5187 18.0803 81.1239 15.8045 64.3904 11.3869ZM64.3904 100.944C53.9487 100.944 43.9086 97.7317 35.6088 91.8415C47.2553 145.121 82.9981 176.848 144.176 188.226C122.355 170.02 108.701 144.987 102.677 112.859L87.9512 95.0543C80.8562 98.8026 72.958 100.944 64.3904 100.944ZM123.292 88.6286C117.804 83.8094 113.386 77.9192 110.307 71.092C106.96 78.7224 101.74 85.282 95.3139 90.3689L110.039 108.173L123.292 88.6286ZM22.7575 50.6102C22.7575 59.0439 25.301 67.2098 29.9864 74.0371L30.6557 74.9741C38.5539 85.8174 51.0037 92.2431 64.2566 92.2431C86.6125 92.2431 104.952 74.4387 105.756 52.3505C96.5187 51.5473 87.8173 48.6022 80.1868 43.9168C80.99 46.0587 81.3916 48.3344 81.3916 50.6102C81.3916 61.3196 72.6902 70.1549 61.9808 70.1549C51.1375 70.1549 42.4361 61.3196 42.4361 50.6102C42.4361 40.5701 50.0666 32.2703 59.8389 31.1993C53.1456 25.5769 44.9796 21.6947 36.2782 20.0883C27.7106 27.9865 22.7575 38.9637 22.7575 50.6102ZM45.6489 13.5288C50.0665 15.0013 54.3504 17.0094 58.2325 19.419C56.8938 16.4739 55.7783 13.3949 54.8858 10.1821C51.673 10.8961 48.594 12.0116 45.6489 13.5288ZM61.9808 39.7669C55.9567 39.7669 51.1375 44.72 51.1375 50.6102C51.1375 56.6342 55.9567 61.4535 61.9808 61.4535C67.871 61.4535 72.6902 56.6342 72.6902 50.6102C72.6902 44.72 67.871 39.7669 61.9808 39.7669ZM197.723 248.065V215.669C183.533 211.475 170.86 206.075 159.704 199.471C90.4947 191.038 48.0586 161.319 31.0574 108.709C32.2622 140.302 38.2862 178.186 66.1307 206.165C93.172 233.34 137.482 247.396 197.723 248.065ZM197.723 78.8563C188.62 92.1092 173.359 100.944 156.09 100.944C146.719 100.944 137.884 98.2671 130.253 93.7156L112.851 119.284C123.56 163.729 151.405 192.376 197.723 206.566V78.8563ZM144.443 50.6102C144.443 56.6342 149.263 61.4535 155.153 61.4535C161.177 61.4535 165.996 56.6342 165.996 50.6102C165.996 44.72 161.177 39.7669 155.153 39.7669C152.475 39.7669 150.2 40.8378 148.326 42.4442C147.879 43.0689 147.433 43.6937 146.987 44.3184L146.585 44.0507C145.247 45.9248 144.443 48.2006 144.443 50.6102Z" fill="black"/>
<path d="M140.16 117.946C137.75 117.946 135.876 119.82 135.876 122.229V135.75C135.876 138.16 137.75 140.168 140.16 140.168C142.569 140.168 144.577 138.16 144.577 135.75V122.229C144.577 119.82 142.569 117.946 140.16 117.946Z" fill="black"/>
<path d="M162.516 117.946C160.106 117.946 158.098 119.82 158.098 122.229V135.75C158.098 138.16 160.106 140.168 162.516 140.168C164.925 140.168 166.799 138.16 166.799 135.75V122.229C166.799 119.82 164.925 117.946 162.516 117.946Z" fill="black"/>
<path d="M162.516 153.153C160.106 153.153 158.098 155.161 158.098 157.571V171.091C158.098 173.501 160.106 175.375 162.516 175.375C164.925 175.375 166.799 173.501 166.799 171.091V157.571C166.799 155.161 164.925 153.153 162.516 153.153Z" fill="black"/>
<path d="M184.738 117.946C182.328 117.946 180.454 119.82 180.454 122.229V135.75C180.454 138.16 182.328 140.168 184.738 140.168C187.147 140.168 189.155 138.16 189.155 135.75V122.229C189.155 119.82 187.147 117.946 184.738 117.946Z" fill="black"/>
</svg>
