<svg width="202" height="257" viewBox="0 0 202 257" fill="none" xmlns="http://www.w3.org/2000/svg">
<path fill-rule="evenodd" clip-rule="evenodd" d="M20.1349 67.1569C20.1349 45.0191 38.154 27 60.2917 27C82.5582 27 100.577 45.0191 100.577 67.1569C100.577 80.0277 94.3993 91.4827 85.0036 98.819H119.883C110.488 91.4827 104.439 80.0277 104.439 67.1569C104.439 45.0191 122.458 27 144.595 27C166.733 27 184.752 45.0191 184.752 67.1569C184.752 89.4233 166.733 107.442 144.595 107.442H130.309C127.477 111.304 120.784 119.155 104.439 136.53L101.221 139.877L98.1318 136.402C84.4888 121.085 77.5386 112.333 74.0634 107.442H60.2917C38.154 107.442 20.1349 89.4233 20.1349 67.1569ZM119.369 107.442H84.7462C89.1223 112.848 95.3003 120.184 101.478 127.263C108.171 119.927 114.993 112.462 119.369 107.442ZM144.595 98.819C162.1 98.819 176.257 84.6611 176.257 67.1569C176.257 49.7813 162.1 35.6234 144.595 35.6234C127.22 35.6234 113.062 49.7813 113.062 67.1569C113.062 84.6611 127.22 98.819 144.595 98.819ZM28.7583 67.1569C28.7583 84.6611 42.9162 98.819 60.2917 98.819C77.796 98.819 91.9538 84.6611 91.9538 67.1569C91.9538 49.7813 77.796 35.6234 60.2917 35.6234C42.9162 35.6234 28.7583 49.7813 28.7583 67.1569Z" fill="black"/>
<path fill-rule="evenodd" clip-rule="evenodd" d="M161.971 67.1569C161.971 76.81 154.248 84.5324 144.595 84.5324C135.071 84.5324 127.22 76.81 127.22 67.1569C127.22 57.6325 135.071 49.91 144.595 49.91C154.248 49.91 161.971 57.6325 161.971 67.1569ZM153.476 67.1569C153.476 62.3947 149.486 58.4047 144.595 58.4047C139.833 58.4047 135.843 62.3947 135.843 67.1569C135.843 72.0478 139.833 76.0377 144.595 76.0377C149.486 76.0377 153.476 72.0478 153.476 67.1569Z" fill="black"/>
<path fill-rule="evenodd" clip-rule="evenodd" d="M43.0448 67.1569C43.0448 57.6325 50.7673 49.91 60.2917 49.91C69.9448 49.91 77.6673 57.6325 77.6673 67.1569C77.6673 76.81 69.9448 84.5324 60.2917 84.5324C50.7673 84.5324 43.0448 76.81 43.0448 67.1569ZM51.5396 67.1569C51.5396 72.0478 55.5295 76.0377 60.2917 76.0377C65.1826 76.0377 69.1726 72.0478 69.1726 67.1569C69.1726 62.3947 65.1826 58.4047 60.2917 58.4047C55.5295 58.4047 51.5396 62.3947 51.5396 67.1569Z" fill="black"/>
<path fill-rule="evenodd" clip-rule="evenodd" d="M201.999 57.8898V161.242C201.999 186.984 158.753 233.833 102.894 255.585L101.35 256.1L99.805 255.585C43.9458 233.833 0.699951 186.984 0.699951 161.242V57.8898C0.699951 26.099 26.5703 0.0999756 58.3611 0.0999756C68.9152 0.0999756 76.6376 6.53536 83.4591 12.1985C89.251 17.0894 94.9141 21.7229 101.35 21.7229C107.785 21.7229 113.319 17.0894 119.24 12.1985C126.061 6.53536 133.784 0.0999756 144.209 0.0999756C176.129 0.0999756 201.999 26.099 201.999 57.8898ZM193.376 119.026C187.455 126.749 177.416 136.402 161.199 145.025C136.873 158.025 137.516 179.39 138.417 211.696C138.546 216.715 138.804 221.864 138.804 227.141C143.351 224.138 147.641 221.006 151.674 217.745C151.674 217.059 151.674 216.329 151.674 215.557V214.012C151.417 187.885 154.506 166.777 179.218 153.52C184.366 150.817 189.128 147.857 193.376 144.639V119.026ZM9.19468 57.8898V102.294C10.3531 105.383 18.2042 122.887 45.4903 137.431C67.4994 149.272 72.3903 167.034 73.0338 189.429C81.9146 185.954 91.5677 184.152 101.35 184.152C111.131 184.152 120.784 185.954 129.665 189.429C130.309 167.034 135.2 149.272 157.209 137.431C184.752 122.759 192.346 105.383 193.376 102.423V57.8898C193.376 30.8611 171.367 8.72342 144.209 8.72342C136.873 8.72342 130.952 13.6143 124.646 18.7626C117.953 24.4258 110.874 30.3463 101.35 30.3463C91.8251 30.3463 84.7462 24.4258 77.9247 18.7626C71.7467 13.6143 65.8262 8.72342 58.3611 8.72342C31.3325 8.72342 9.19468 30.8611 9.19468 57.8898ZM50.896 217.745C55.0147 221.006 59.3049 224.138 63.7668 227.141C63.8955 221.864 64.0243 216.715 64.153 211.696C65.1826 179.39 65.8261 158.025 41.3717 145.025C25.1545 136.402 15.2439 126.749 9.19468 119.026V144.639C13.442 147.857 18.2042 150.817 23.3525 153.648C48.1932 166.777 51.2822 187.885 51.0247 214.012V215.557C51.0247 216.329 50.9818 217.059 50.896 217.745ZM42.4013 210.666C42.4013 187.885 39.1836 171.796 19.3626 161.114C15.7588 159.226 12.3695 157.209 9.19468 155.064V161.242C9.19468 172.569 21.4219 192.003 42.4013 210.666ZM130.309 232.546C130.309 225.339 130.051 218.517 129.923 211.953C129.751 207.405 129.622 202.986 129.537 198.696C120.913 194.706 111.26 192.647 101.35 192.647C91.439 192.647 81.7859 194.706 73.0338 198.696C73.0338 202.986 72.948 207.405 72.7764 211.953C72.519 218.517 72.3903 225.339 72.3903 232.546C81.2711 237.952 90.9242 242.843 101.35 246.962C111.646 242.843 121.428 237.952 130.309 232.546ZM193.376 161.242V155.064C190.201 157.209 186.854 159.226 183.336 161.114C163.387 171.796 160.169 187.885 160.169 210.666C181.148 192.003 193.376 172.569 193.376 161.242Z" fill="black"/>
</svg>
