<svg width="238" height="256" viewBox="0 0 238 256" fill="none" xmlns="http://www.w3.org/2000/svg">
<path fill-rule="evenodd" clip-rule="evenodd" d="M221.625 123.829C221.625 128.608 221.495 133.17 221.234 137.515H221.364L220.973 141.817C217.454 197.344 196.99 233.711 161.275 248.44C154.671 251.221 147.545 253.219 139.898 254.436L136.509 254.957C131.295 255.609 125.69 256 119.825 256C113.959 256 108.354 255.609 103.01 254.827L102.88 254.957L99.621 254.436C96.5796 253.914 93.5817 253.263 90.6271 252.481C56.0854 243.617 33.2748 217.548 23.4988 175.967C22.7167 172.492 22.0215 168.885 21.4132 165.149C20.805 161.499 20.2836 157.719 19.8491 153.809C19.3277 149.898 18.9367 145.901 18.676 141.817L18.4153 137.515H18.5456C18.2849 133.17 18.1546 128.608 18.1546 123.829C18.1546 111.446 19.5884 99.4542 22.1954 88.1141C-10.6519 37.9308 3.8165 4.95315 4.46823 3.51934L6.16271 0L9.81247 1.30346C38.3583 11.7312 68.8593 12.6436 74.8552 12.7739C88.5416 5.0835 103.792 1.04276 119.825 1.04276C135.857 1.04276 151.108 5.0835 164.794 12.7739C173.267 12.5132 201.682 11.0794 228.403 1.30346L232.053 0L233.747 3.51934C234.399 4.82281 248.476 37.1487 217.193 86.4196C218.497 91.8072 219.54 97.3686 220.322 103.104C221.191 109.882 221.625 116.79 221.625 123.829ZM212.24 146.509C212.24 146.248 212.24 145.988 212.24 145.727C171.181 145.988 137.812 179.617 137.812 220.807C137.812 229.279 139.116 237.491 141.984 245.442C142.07 245.442 142.201 245.442 142.375 245.442C142.983 245.268 143.548 245.094 144.069 244.921C144.851 244.834 145.59 244.703 146.285 244.53C146.893 244.356 147.458 244.182 147.979 244.008C148.762 243.834 149.5 243.661 150.195 243.487C150.717 243.313 151.282 243.139 151.89 242.965C152.585 242.705 153.28 242.444 153.975 242.183C154.497 242.01 155.018 241.836 155.54 241.662C156.235 241.401 156.93 241.141 157.625 240.88C158.146 240.619 158.624 240.402 159.059 240.228C159.754 239.967 160.449 239.663 161.144 239.316C161.579 239.142 162.057 238.925 162.578 238.664C163.273 238.316 163.925 237.969 164.533 237.621C164.968 237.361 165.446 237.1 165.967 236.839C166.576 236.492 167.184 236.144 167.792 235.796C168.313 235.536 168.791 235.275 169.226 235.014C169.834 234.58 170.442 234.189 171.051 233.841C171.485 233.58 171.92 233.276 172.354 232.929C172.962 232.494 173.527 232.06 174.049 231.625C174.483 231.365 174.918 231.06 175.352 230.713C175.96 230.278 176.525 229.844 177.047 229.409C177.481 229.062 177.872 228.714 178.22 228.367C178.828 227.845 179.393 227.367 179.914 226.933C180.262 226.585 180.653 226.238 181.087 225.89C181.609 225.369 182.13 224.804 182.652 224.196C182.999 223.848 183.347 223.5 183.694 223.153C184.216 222.631 184.737 222.067 185.258 221.458C185.606 221.111 185.954 220.763 186.301 220.415C186.823 219.72 187.387 219.025 187.996 218.33C188.17 217.982 188.387 217.678 188.647 217.418C189.343 216.549 189.994 215.68 190.603 214.811C190.776 214.637 190.907 214.463 190.994 214.289C191.776 213.16 192.514 212.03 193.21 210.9C193.383 210.726 193.514 210.553 193.601 210.379C194.209 209.423 194.774 208.467 195.295 207.511C195.556 207.077 195.817 206.686 196.077 206.338C196.512 205.556 196.903 204.774 197.25 203.992C197.511 203.47 197.772 202.949 198.032 202.428C198.38 201.733 198.771 200.994 199.206 200.212C199.466 199.69 199.683 199.126 199.857 198.517C200.205 197.822 200.552 197.084 200.9 196.301C201.161 195.693 201.378 195.128 201.552 194.607C201.899 193.825 202.204 193.043 202.464 192.261C202.725 191.652 202.986 191.044 203.246 190.436C203.507 189.654 203.768 188.872 204.028 188.09C204.289 187.394 204.506 186.743 204.68 186.134C204.941 185.352 205.201 184.527 205.462 183.658C205.636 183.05 205.81 182.398 205.984 181.703C206.244 180.834 206.505 180.008 206.766 179.226C206.939 178.531 207.113 177.836 207.287 177.141C207.461 176.272 207.678 175.403 207.939 174.534C208.026 173.838 208.156 173.1 208.33 172.318C208.59 171.449 208.808 170.58 208.982 169.711C209.068 168.929 209.199 168.19 209.373 167.495C209.546 166.539 209.72 165.583 209.894 164.627C209.981 163.932 210.111 163.193 210.285 162.411C210.372 161.456 210.502 160.5 210.676 159.544C210.763 158.762 210.893 158.023 211.067 157.328C211.154 156.285 211.241 155.242 211.328 154.2C211.415 153.504 211.502 152.766 211.588 151.984C211.762 150.854 211.893 149.768 211.979 148.725C212.066 147.943 212.153 147.204 212.24 146.509ZM97.5355 245.442C100.273 237.491 101.707 229.149 101.707 220.807C101.707 179.617 68.4682 146.248 27.5395 145.727C27.5395 145.988 27.5395 146.205 27.5395 146.379C27.6264 147.161 27.7133 147.986 27.8002 148.855C27.8871 149.898 27.974 150.897 28.0609 151.853C28.1478 152.635 28.2347 153.418 28.3216 154.2C28.4954 155.242 28.6258 156.242 28.7127 157.198C28.7996 157.98 28.9299 158.718 29.1037 159.413C29.1906 160.456 29.3209 161.456 29.4947 162.411C29.5816 163.107 29.7119 163.845 29.8857 164.627C30.0595 165.583 30.2334 166.539 30.4072 167.495C30.4941 168.19 30.6244 168.885 30.7982 169.58C30.972 170.536 31.1892 171.449 31.4499 172.318C31.5368 173.013 31.6671 173.708 31.8409 174.403C32.0147 175.272 32.232 176.185 32.4927 177.141C32.6665 177.749 32.8403 178.357 33.0141 178.965C33.2748 179.921 33.5354 180.834 33.7961 181.703C33.9699 182.311 34.1438 182.919 34.3175 183.527C34.5782 184.396 34.8389 185.265 35.0996 186.134C35.2734 186.743 35.4472 187.308 35.621 187.829C35.9686 188.785 36.2728 189.654 36.5334 190.436C36.7941 191.044 37.0114 191.566 37.1852 192C37.5328 192.956 37.8803 193.868 38.2279 194.737C38.4017 195.172 38.5755 195.65 38.7493 196.171C39.1838 197.04 39.5748 197.909 39.9224 198.778C40.0962 199.213 40.3135 199.604 40.5742 199.951C40.9217 200.907 41.3562 201.819 41.8776 202.688C42.0514 203.036 42.2252 203.384 42.399 203.731C42.9204 204.774 43.4417 205.773 43.9631 206.729C44.05 206.903 44.1804 207.12 44.3542 207.381C46.3529 210.944 48.5687 214.246 51.0019 217.287C51.1756 217.461 51.3495 217.678 51.5233 217.939C52.1316 218.721 52.7833 219.503 53.4785 220.285C53.6523 220.546 53.8695 220.807 54.1302 221.067C54.7385 221.762 55.3467 222.458 55.955 223.153C56.3026 223.413 56.6067 223.718 56.8674 224.065C57.4757 224.673 58.0405 225.238 58.5619 225.76C58.9095 226.107 59.2571 226.411 59.6047 226.672C60.213 227.193 60.8213 227.715 61.4296 228.236C61.7771 228.584 62.1247 228.931 62.4723 229.279C63.0806 229.714 63.6889 230.148 64.2972 230.582C64.7317 230.93 65.1227 231.234 65.4703 231.495C66.0785 231.929 66.6869 232.364 67.2951 232.798C67.7296 233.146 68.1641 233.45 68.5986 233.711C69.2069 234.145 69.8152 234.536 70.4235 234.884C70.858 235.145 71.2924 235.405 71.7269 235.666C72.3352 236.101 72.987 236.492 73.6821 236.839C74.1166 237.1 74.5511 237.361 74.9856 237.621C75.6808 237.882 76.3325 238.186 76.9408 238.534C77.4622 238.794 77.9835 239.012 78.5049 239.185C79.1132 239.533 79.7649 239.837 80.4601 240.098C80.9815 240.358 81.5029 240.576 82.0242 240.75C82.6325 241.01 83.2843 241.271 83.9794 241.532C84.5008 241.792 85.0222 242.01 85.5436 242.183C86.2388 242.357 86.9774 242.574 87.7595 242.835C88.2809 243.009 88.8023 243.183 89.3237 243.356C90.0189 243.53 90.7574 243.747 91.5395 244.008C92.0609 244.095 92.6258 244.225 93.2341 244.399C93.9292 244.573 94.6678 244.747 95.4499 244.921C96.0582 245.094 96.6231 245.225 97.1445 245.312C97.3182 245.312 97.4486 245.355 97.5355 245.442ZM46.3094 51.8778C54.1302 47.055 63.3847 44.1874 73.1607 44.1874C86.1953 44.1874 98.0568 49.1405 107.051 57.222C98.1872 42.7536 83.3277 32.3259 65.9917 29.3279C58.5619 35.5845 51.9143 43.2749 46.3094 51.8778ZM173.788 29.3279C156.713 32.1955 141.984 42.3625 133.12 56.5703C142.114 48.8798 153.584 44.1874 166.228 44.1874C176.265 44.1874 185.65 47.1853 193.601 52.2688C187.996 43.4053 181.348 35.7149 173.788 29.3279ZM212.892 115.096C207.678 126.957 198.163 136.473 186.432 141.556C194.643 138.819 203.637 137.255 212.762 137.255C213.022 132.997 213.153 128.521 213.153 123.829C213.153 120.961 213.066 118.05 212.892 115.096ZM30.9285 95.0224C30.9285 118.224 49.8287 137.255 73.1607 137.255C96.4927 137.255 115.523 118.224 115.523 95.0224C115.523 71.6904 96.4927 52.6599 73.1607 52.6599C49.8287 52.6599 30.9285 71.6904 30.9285 95.0224ZM107.311 132.562L119.043 144.293L131.556 131.91C126.603 127.218 122.562 121.613 119.694 115.226C116.827 121.874 112.525 127.739 107.311 132.562ZM166.228 137.255C189.56 137.255 208.59 118.224 208.59 95.0224C208.59 71.6904 189.56 52.6599 166.228 52.6599C142.896 52.6599 123.996 71.6904 123.996 95.0224C123.996 118.224 142.896 137.255 166.228 137.255ZM27.0181 137.255C36.1423 137.255 44.8755 138.819 53.0874 141.556C41.4865 136.473 32.1016 127.218 26.8878 115.747C26.714 118.441 26.6271 121.135 26.6271 123.829C26.6271 128.521 26.7574 132.997 27.0181 137.255ZM107.311 199.169C111.352 199.69 115.523 199.951 119.825 199.951C124.126 199.951 128.167 199.69 132.077 199.299C138.855 174.012 157.234 153.287 181.218 143.511C176.395 144.945 171.442 145.727 166.228 145.727C155.931 145.727 146.285 142.599 138.204 137.255L119.043 156.285L100.533 137.646C92.5823 142.729 83.1974 145.727 73.1607 145.727C67.9469 145.727 62.9937 144.945 58.3012 143.511C82.1546 153.287 100.533 173.882 107.311 199.169ZM227.1 10.6884C210.806 16.1629 194.513 18.7699 182.261 20.0733C182.695 20.0733 183.13 20.0733 183.564 20.0733C197.641 20.0733 211.067 24.2444 222.537 32.3259L217.584 39.2342C208.199 32.7169 197.25 29.0672 185.78 28.6762C187.952 30.7617 190.038 32.9776 192.036 35.3238C201.552 46.664 208.981 60.22 214.065 75.2098C232.444 42.7536 229.315 19.4216 227.1 10.6884ZM119.825 9.51527C103.401 9.51527 88.1506 14.2077 74.9856 22.6802C95.7106 28.6762 112.395 44.3177 119.825 64.391C127.385 44.3177 144.069 28.6762 164.794 22.6802C164.012 22.2458 163.23 21.7678 162.448 21.2464C162.361 21.2464 162.274 21.2464 162.187 21.2464C149.674 13.6863 135.336 9.51527 119.825 9.51527ZM25.1933 77.0346C30.1465 61.2627 37.8369 47.055 47.7432 35.3238C49.7418 32.9776 51.8274 30.7617 53.9998 28.6762C42.5293 29.0672 31.5803 32.7169 22.1954 39.2342L17.2421 32.3259C28.5823 24.3747 41.8776 20.2037 55.6943 20.0733C43.5721 18.7699 27.2788 16.1629 10.9855 10.6884C8.76965 19.5519 5.64138 43.5356 25.1933 77.0346ZM119.825 247.527C124.604 247.527 129.166 247.267 133.511 246.745C130.774 238.403 129.34 229.67 129.34 220.807C129.34 216.462 129.644 212.204 130.252 208.033C126.863 208.293 123.474 208.424 119.825 208.424C116.175 208.424 112.656 208.163 109.136 207.902C109.831 212.073 110.179 216.375 110.179 220.807C110.179 229.67 108.745 238.403 106.008 246.745C110.44 247.267 115.045 247.527 119.825 247.527Z" fill="black"/>
<path fill-rule="evenodd" clip-rule="evenodd" d="M166.228 131.78C146.024 131.78 129.47 115.226 129.47 95.0224C129.47 74.6884 146.024 58.1344 166.228 58.1344C186.562 58.1344 203.116 74.6884 203.116 95.0224C203.116 115.226 186.562 131.78 166.228 131.78ZM166.228 123.308C181.87 123.308 194.643 110.534 194.643 95.0224C194.643 79.3808 181.87 66.6069 166.228 66.6069C150.586 66.6069 137.943 79.3808 137.943 95.0224C137.943 110.534 150.586 123.308 166.228 123.308Z" fill="black"/>
<path fill-rule="evenodd" clip-rule="evenodd" d="M36.4031 95.0224C36.4031 74.6884 52.8267 58.1344 73.1607 58.1344C93.4947 58.1344 110.049 74.6884 110.049 95.0224C110.049 115.226 93.4947 131.78 73.1607 131.78C52.8267 131.78 36.4031 115.226 36.4031 95.0224ZM44.8756 95.0224C44.8756 110.534 57.5192 123.308 73.1607 123.308C88.8023 123.308 101.576 110.534 101.576 95.0224C101.576 79.3808 88.8023 66.6069 73.1607 66.6069C57.5192 66.6069 44.8756 79.3808 44.8756 95.0224Z" fill="black"/>
<path d="M180.305 95.0223H166.228V80.9449C158.538 80.9449 152.281 87.2016 152.281 95.0223C152.281 102.713 158.538 108.969 166.228 108.969C174.049 108.969 180.305 102.713 180.305 95.0223Z" fill="black"/>
<path d="M73.1607 108.969C80.9815 108.969 87.2381 102.713 87.2381 95.0223H73.1607V80.9449C65.4703 80.9449 59.0834 87.2016 59.0834 95.0223C59.0834 102.713 65.4703 108.969 73.1607 108.969Z" fill="black"/>
</svg>
