<svg width="216" height="257" viewBox="0 0 216 257" fill="none" xmlns="http://www.w3.org/2000/svg">
<path d="M107.655 144.244L122.989 128.91H92.4374L107.655 144.244Z" fill="black"/>
<path d="M107.655 157.354C105.431 157.354 103.558 159.227 103.558 161.451V170.698C103.558 173.04 105.431 174.795 107.655 174.795C109.996 174.795 111.752 173.04 111.752 170.698V161.451C111.752 159.227 109.996 157.354 107.655 157.354Z" fill="black"/>
<path d="M129.31 146.468C127.086 146.468 125.213 148.341 125.213 150.565V159.812C125.213 162.036 127.086 163.909 129.31 163.909C131.534 163.909 133.407 162.036 133.407 159.812V150.565C133.407 148.341 131.534 146.468 129.31 146.468Z" fill="black"/>
<path d="M85.9994 146.468C83.7754 146.468 81.9025 148.341 81.9025 150.565V159.812C81.9025 162.036 83.7754 163.909 85.9994 163.909C88.3405 163.909 90.2134 162.036 90.2134 159.812V150.565C90.2134 148.341 88.3405 146.468 85.9994 146.468Z" fill="black"/>
<path fill-rule="evenodd" clip-rule="evenodd" d="M200.597 28.125V91.5691C200.597 91.6471 200.597 91.7251 200.597 91.8032C200.597 91.8812 200.597 91.9202 200.597 91.9202V153.023C200.597 194.578 169.811 213.658 142.654 230.514C130.598 238.005 119.126 245.029 110.581 253.691L107.655 256.5L104.728 253.691C96.1832 245.029 84.8289 238.005 72.7722 230.514C45.6153 213.658 14.8298 194.578 14.8298 153.023V28.008C10.3817 27.6178 5.73843 27.3837 0.900146 27.3056V19.1118C5.69942 19.1118 10.3817 19.3459 14.8298 19.8141V0.5H19.7461L20.5655 0.851152C38.2409 8.69386 58.9596 14.1954 80.3808 16.5365C84.8289 17.0828 89.355 17.473 93.9592 17.7071C98.4853 17.9412 103.05 18.0583 107.655 18.0583C114.561 18.0583 121.467 17.8242 128.256 17.2389C130.52 17.0828 132.743 16.8487 134.929 16.5365C156.467 14.1954 177.186 8.69386 194.744 0.851152L195.563 0.5H200.597V4.59694V19.8141C205.279 19.3459 210.312 19.1118 215.463 19.1118V27.3056C210.312 27.3056 205.279 27.6568 200.597 28.125ZM23.0236 20.7506C57.7891 26.1351 78.5079 43.5763 90.2134 58.5594H125.447C125.915 58.0912 126.423 57.662 126.969 57.2718C137.855 43.5764 158.106 26.3692 192.403 20.9847V10.8009C176.366 17.2389 158.223 21.8041 139.494 24.2622C138.44 40.8841 124.511 54.1113 107.655 54.1113C90.7987 54.1113 76.9862 40.8841 75.9327 24.2622C57.2038 21.8041 39.0602 17.2389 23.0236 10.8009V20.7506ZM130.363 25.1987C127.086 25.5108 123.769 25.7449 120.414 25.901C119.633 25.979 118.853 26.0181 118.073 26.0181C114.795 26.1741 111.517 26.2522 108.24 26.2522C107.85 26.2522 107.46 26.2522 107.069 26.2522C103.792 26.2522 100.553 26.1741 97.3538 26.0181C96.5734 26.0181 95.7541 25.979 94.8957 25.901C91.6181 25.7449 88.3015 25.5108 84.9459 25.1987C84.7118 25.1987 84.4777 25.1987 84.2436 25.1987C85.6482 36.7871 95.5979 45.8004 107.655 45.8004C119.711 45.8004 129.661 36.7871 131.183 25.1987C130.871 25.1987 130.598 25.1987 130.363 25.1987ZM192.403 91.5691C192.286 79.0441 185.965 67.6897 175.547 60.9005C169.577 57.0377 162.788 55.0478 155.647 55.0478C135.514 55.0478 119.009 71.3184 118.892 91.452V91.8032C118.892 112.054 135.397 128.441 155.647 128.441C175.781 128.441 192.286 112.054 192.403 91.9202V91.5691ZM59.779 55.0478C52.6387 55.0478 45.7324 57.0377 39.7625 60.9005C29.2276 67.6897 23.0236 79.2783 23.0236 91.8032C23.0236 112.054 39.5285 128.559 59.779 128.559C80.0296 128.559 96.5344 112.054 96.5344 91.8032V91.452C96.4173 89.2279 96.1832 86.8868 95.8321 84.6628C95.2468 83.141 92.5545 75.1813 85.6483 65.5827H85.5312C78.625 58.7935 69.4946 55.0478 59.779 55.0478ZM23.0236 29.0615V65.8169C26.3012 61.2517 30.3981 57.1547 35.3144 53.9942C42.5719 49.312 50.9999 46.8539 59.779 46.8539C62.5884 46.8539 65.3587 47.088 68.0899 47.5562C57.3209 39.3623 42.6889 32.222 23.0236 29.0615ZM59.5449 212.253C63.993 206.751 69.2605 202.069 75.2303 198.324C70.1969 173.976 48.1905 155.949 23.0236 155.949C24.1942 182.989 40.3478 199.026 59.5449 212.253ZM130.715 228.173C123.691 224.193 115.731 221.969 107.655 221.969C99.5778 221.969 91.618 224.193 84.5947 228.173C93.0227 233.557 100.865 238.825 107.655 245.029C114.444 238.825 122.287 233.557 130.715 228.173ZM148.858 216.818C144.644 211.668 139.377 207.337 133.524 204.059C125.681 199.611 116.785 197.387 107.655 197.387C98.6414 197.387 89.6281 199.611 81.7854 204.059C75.9327 207.22 70.6651 211.668 66.4511 216.818C69.8458 219.042 73.3574 221.266 76.8691 223.373C77.8055 222.749 78.742 222.125 79.6785 221.5C88.1064 216.467 97.822 213.775 107.655 213.775C117.487 213.775 127.203 216.467 135.631 221.618C136.567 222.164 137.504 222.749 138.44 223.373C141.952 221.266 145.425 219.081 148.858 216.818ZM192.286 155.949C167.119 155.949 145.229 173.976 140.079 198.441C146.049 202.069 151.433 206.869 155.764 212.253C174.962 199.026 191.232 182.989 192.286 155.949ZM192.403 117.555C184.209 129.144 170.747 136.752 155.647 136.752C130.832 136.752 110.698 116.619 110.698 91.8032V91.452C110.698 82.3216 113.507 73.8937 118.307 66.7533H95.9491C101.568 75.6495 103.675 82.3217 103.675 82.5558H103.441L103.558 82.9069H103.792C104.377 85.7163 104.728 88.6426 104.728 91.452V91.8032C104.728 116.502 84.5948 136.752 59.779 136.752C44.5619 136.752 31.1005 129.144 23.0236 117.555V147.756C51.351 147.756 76.0497 167.421 82.8389 194.344C90.5645 190.949 99.1096 189.193 107.655 189.193C116.317 189.193 124.745 190.949 132.587 194.461C139.26 167.07 163.607 147.756 192.286 147.756C192.286 147.756 192.325 147.756 192.403 147.756V117.555ZM192.403 65.8169V29.1786C173.44 32.4561 159.276 39.4794 148.858 47.3221C151.082 46.971 153.306 46.7369 155.647 46.7369C164.309 46.7369 172.737 49.312 179.995 53.9942C184.911 57.1547 189.125 61.1347 192.403 65.8169Z" fill="black"/>
<path fill-rule="evenodd" clip-rule="evenodd" d="M59.779 63.0075C75.6986 63.0075 88.5746 75.8836 88.5746 91.8032C88.5746 107.723 75.6986 120.599 59.779 120.599C43.8595 120.599 30.9834 107.723 30.9834 91.8032C30.9834 75.8836 43.8595 63.0075 59.779 63.0075ZM59.779 71.2014C48.4247 71.2014 39.1773 80.4488 39.1773 91.8032C39.1773 103.158 48.4247 112.405 59.779 112.405C71.1334 112.405 80.3808 103.158 80.3808 91.8032C80.3808 80.4488 71.1334 71.2014 59.779 71.2014Z" fill="black"/>
<path d="M50.4146 91.8031C50.4146 96.9536 54.6286 101.168 59.779 101.168C64.9295 101.168 69.0264 96.9536 69.0264 91.8031C69.0264 86.6527 64.9295 82.4387 59.779 82.4387C54.6286 82.4387 50.4146 86.6527 50.4146 91.8031Z" fill="black"/>
<path d="M155.647 82.4387C150.497 82.4387 146.283 86.6527 146.283 91.8031C146.283 96.9536 150.497 101.168 155.647 101.168C160.798 101.168 164.895 96.9536 164.895 91.8031C164.895 86.6527 160.798 82.4387 155.647 82.4387Z" fill="black"/>
<path fill-rule="evenodd" clip-rule="evenodd" d="M184.443 91.8032C184.443 107.723 171.567 120.599 155.647 120.599C139.728 120.599 126.852 107.723 126.852 91.8032C126.852 75.8836 139.728 63.0075 155.647 63.0075C171.567 63.0075 184.443 75.8836 184.443 91.8032ZM176.249 91.8032C176.249 80.4488 167.002 71.2014 155.647 71.2014C144.293 71.2014 135.046 80.4488 135.046 91.8032C135.046 103.158 144.293 112.405 155.647 112.405C167.002 112.405 176.249 103.158 176.249 91.8032Z" fill="black"/>
</svg>
