<svg width="257" height="257" viewBox="0 0 257 257" fill="none" xmlns="http://www.w3.org/2000/svg">
<path d="M256.604 125.551C257.163 144.78 253.474 163.116 246.319 179.662C246.319 179.662 246.244 179.737 246.095 179.886C241.958 189.612 236.48 198.78 230.108 207.053C225.077 213.65 219.375 219.687 213.114 225.165V225.277C204.953 232.32 195.897 238.469 186.17 243.388C177.226 247.86 167.723 251.326 157.661 253.674C153.487 254.643 149.201 255.388 144.804 255.91L144.692 256.022C140.593 256.544 136.419 256.842 132.17 256.916C122.891 257.14 113.835 256.469 105.115 254.792C95.2763 253.003 85.7733 249.985 76.8292 245.96C75.0404 245.215 73.2516 244.395 71.4628 243.5C64.643 240.034 58.0468 236.01 52.0096 231.426C46.9413 227.625 42.2084 223.488 37.8109 219.016C35.6494 216.78 33.5625 214.507 31.5501 212.196C25.401 205.041 20.0346 197.215 15.5626 188.83C11.426 180.892 8.072 172.507 5.50059 163.675C5.20245 162.482 4.90433 161.327 4.6062 160.209C2.96646 153.874 1.88569 147.389 1.36396 140.756C1.21489 139.563 1.1031 138.333 1.02857 137.066C0.954036 135.576 0.879488 134.01 0.804955 132.371C0.357753 115.601 3.15277 99.3895 8.74279 84.5201C26.2955 36.8931 71.4628 2.45857 125.351 1.00516C196.008 -0.895443 254.815 54.8929 256.604 125.551Z" fill="url(#paint0_linear_1_1165)"/>
<path d="M220.828 165.127C219.934 183.015 215.126 199.785 207.3 214.655C207.3 214.655 207.263 214.729 207.189 214.879C202.605 223.599 196.903 231.649 190.307 238.916C188.965 240.481 187.586 241.971 186.17 243.388C179.015 246.965 171.524 249.872 163.698 252.108C161.686 252.704 159.673 253.226 157.661 253.673C153.487 254.642 149.201 255.388 144.804 255.909L144.692 256.021C140.593 256.543 136.419 256.841 132.17 256.915C122.891 257.139 113.835 256.468 105.115 254.791C95.2763 253.002 85.7733 249.984 76.8292 245.959C75.0404 245.214 73.2516 244.394 71.4628 243.499C64.643 240.034 58.0468 236.009 52.0096 231.425C46.9413 227.624 42.2084 223.487 37.8109 219.015C35.6494 216.779 33.5625 214.506 31.5501 212.195C25.401 205.04 20.0346 197.214 15.5626 188.829C11.426 180.891 8.072 172.506 5.50059 163.674C5.20245 162.481 4.90433 161.326 4.6062 160.208C4.30806 159.09 4.04718 158.009 3.82358 156.966C2.63104 151.674 1.81116 146.27 1.36396 140.755C1.21489 139.562 1.1031 138.333 1.02857 137.065C0.954036 135.575 0.879488 134.01 0.804955 132.37C0.357753 115.6 3.15277 99.3887 8.74279 84.5193C31.8855 55.6748 67.997 38.0103 107.686 40.0227C173.537 43.3767 224.182 99.3887 220.828 165.127Z" fill="url(#paint1_linear_1_1165)"/>
<path d="M178.344 201.127C178.456 215.438 175.325 228.966 169.735 241.04C169.735 241.04 169.698 241.115 169.623 241.264C167.835 244.991 165.86 248.605 163.698 252.108C161.686 252.705 159.673 253.226 157.661 253.674C153.487 254.643 149.201 255.388 144.804 255.91L144.692 256.022C140.593 256.543 136.419 256.841 132.17 256.916C122.891 257.14 113.835 256.469 105.115 254.792C95.2762 253.003 85.7732 249.984 76.8291 245.959C75.0403 245.214 73.2515 244.394 71.4627 243.5C64.6429 240.034 58.0467 236.009 52.0095 231.425C46.9412 227.624 42.2083 223.488 37.8108 219.016C35.6493 216.78 33.5624 214.506 31.55 212.196C25.401 205.041 20.0345 197.214 15.5625 188.829C11.4259 180.892 8.0719 172.507 5.50049 163.674C5.20236 162.482 4.90424 161.327 4.6061 160.209C4.30797 159.091 4.04709 158.01 3.82349 156.966C4.56882 153.24 5.50049 149.625 6.6185 146.122C23.724 122.196 51.6741 106.656 83.3136 106.656C135.636 106.433 178.232 148.805 178.344 201.127Z" fill="url(#paint2_linear_1_1165)"/>
<path d="M152.63 94.6946L133.512 127.34L51.674 231.426C44.1834 225.725 37.3636 219.352 31.2146 212.197C25.0655 205.042 19.6991 197.216 15.3389 188.83C11.0905 180.893 7.73645 172.508 5.27684 163.675C4.90418 162.557 4.60606 161.402 4.38245 160.21C2.74272 153.874 1.62471 147.39 1.02844 140.756C30.0965 86.5331 112.158 79.3779 112.158 79.3779C113.723 69.9867 124.791 67.8625 133.512 63.055C142.344 58.1358 147.711 48.4092 147.711 48.4092L152.63 94.6946Z" fill="url(#paint3_linear_1_1165)"/>
<path d="M151.288 150.594V150.482C151.288 150.482 151.4 150.482 151.288 150.594Z" fill="url(#paint4_linear_1_1165)"/>
<path d="M212.778 225.165V225.276C194.108 241.599 170.518 252.668 144.468 256.022H144.357C140.257 256.543 136.083 256.841 131.835 256.916C122.667 257.14 113.611 256.469 104.891 254.792C94.9408 253.003 85.4378 249.984 76.4937 245.96C76.7173 243.947 76.9409 241.599 77.1646 238.916C81.3012 191.625 40.494 228.519 78.8416 193.861C117.189 159.202 79.8477 168.146 117.189 159.202C146.257 152.383 150.729 150.929 151.288 150.594L152.63 173.736C152.63 173.736 131.164 201.798 148.493 222.034C165.822 242.27 212.778 225.165 212.778 225.165Z" fill="url(#paint5_linear_1_1165)"/>
<path d="M232.456 148.135C232.456 148.135 230.443 159.651 221.275 167.253C217.698 170.16 213.114 172.619 207.189 173.514C194.22 175.526 180.804 174.967 167.835 174.52C151.288 173.961 135.86 171.39 120.208 177.986C110.258 182.234 102.096 190.284 97.736 200.122C92.8168 211.414 94.7174 224.607 101.425 234.78C109.028 246.408 121.102 252.221 134.63 253.787C142.233 254.793 149.835 254.457 157.437 253.675C156.692 253.824 155.984 253.973 155.313 254.122C151.736 254.867 148.121 255.501 144.469 256.023H144.357C140.257 256.544 136.084 256.842 131.835 256.917C122.668 257.141 113.612 256.47 104.891 254.793C94.941 253.004 85.438 249.985 76.4939 245.961C74.7051 245.215 72.9536 244.395 71.2393 243.501C64.3077 240.035 57.8232 236.01 51.6742 231.426C46.6805 227.625 41.9476 223.489 37.4756 219.017C36.693 195.986 40.4942 169.042 57.1525 146.905C86.3324 108.222 137.872 97.6014 137.872 97.6014C137.872 97.6014 128.928 91.0052 125.686 89.9989C125.686 89.9989 150.729 88.9927 147.711 48.4092C147.711 48.4092 158.667 79.8251 157.996 88.4337C157.996 88.4337 179.238 103.191 181.139 108.111C183.152 113.03 184.493 123.651 190.53 127.34C196.456 131.03 232.456 148.135 232.456 148.135Z" fill="url(#paint6_linear_1_1165)"/>
<path d="M160.456 106.656C160.456 106.656 167.947 107.439 171.524 109.787C175.102 112.023 176.444 117.724 176.444 117.724C176.444 117.724 168.953 115.6 167.164 115.153C165.375 114.594 160.456 106.656 160.456 106.656Z" fill="url(#paint7_linear_1_1165)"/>
<path d="M221.276 167.252C217.698 170.158 213.114 172.618 207.189 173.512C194.22 175.525 180.804 174.966 167.835 174.519C151.288 173.96 135.86 171.388 120.208 177.984C110.258 182.233 102.096 190.283 97.736 200.121C92.8168 211.413 94.7174 224.605 101.425 234.779C109.028 246.406 121.102 252.22 134.63 253.785C142.233 254.791 149.835 254.456 157.437 253.673C156.692 253.822 155.984 253.972 155.313 254.121C94.8292 266.754 69.3387 219.574 80.407 176.978C88.233 147.239 117.748 147.351 117.748 147.351C115.4 144.109 97.736 143.438 97.736 143.438C135.748 125.103 171.077 156.407 191.313 163.115C211.437 169.935 221.276 167.252 221.276 167.252Z" fill="url(#paint8_linear_1_1165)"/>
<defs>
<linearGradient id="paint0_linear_1_1165" x1="252.635" y1="-25.7241" x2="257.699" y2="163.326" gradientUnits="userSpaceOnUse">
<stop stop-color="#FFF2EF"/>
<stop offset="1" stop-color="#DF903B"/>
</linearGradient>
<linearGradient id="paint1_linear_1_1165" x1="-75.794" y1="171.84" x2="61.5854" y2="-62.5183" gradientUnits="userSpaceOnUse">
<stop stop-color="#FFF2EF"/>
<stop offset="1" stop-color="#DF903B"/>
</linearGradient>
<linearGradient id="paint2_linear_1_1165" x1="9.44257" y1="120.73" x2="100.973" y2="35.4081" gradientUnits="userSpaceOnUse">
<stop stop-color="#FFF2EF"/>
<stop offset="1" stop-color="#DF903B"/>
</linearGradient>
<linearGradient id="paint3_linear_1_1165" x1="8.78292" y1="8.10066" x2="196.773" y2="51.0378" gradientUnits="userSpaceOnUse">
<stop stop-color="white"/>
<stop offset="1" stop-color="#272525"/>
</linearGradient>
<linearGradient id="paint4_linear_1_1165" x1="151.243" y1="150.453" x2="151.335" y2="150.475" gradientUnits="userSpaceOnUse">
<stop stop-color="white"/>
<stop offset="1" stop-color="#7EC7DA"/>
</linearGradient>
<linearGradient id="paint5_linear_1_1165" x1="126.874" y1="336.883" x2="67.5839" y2="161.01" gradientUnits="userSpaceOnUse">
<stop stop-color="white"/>
<stop offset="1" stop-color="#272525"/>
</linearGradient>
<linearGradient id="paint6_linear_1_1165" x1="-52.3147" y1="113.158" x2="255.469" y2="-142.644" gradientUnits="userSpaceOnUse">
<stop stop-color="white"/>
<stop offset="1" stop-color="#272525"/>
</linearGradient>
<linearGradient id="paint7_linear_1_1165" x1="161.16" y1="103.747" x2="178.874" y2="108.294" gradientUnits="userSpaceOnUse">
<stop offset="0.543" stop-color="#3D3B3B"/>
<stop offset="1" stop-color="#272525"/>
</linearGradient>
<linearGradient id="paint8_linear_1_1165" x1="234.736" y1="251.275" x2="-0.959159" y2="273.567" gradientUnits="userSpaceOnUse">
<stop stop-color="white"/>
<stop offset="1" stop-color="#272525"/>
</linearGradient>
</defs>
</svg>
