<svg width="256" height="243" viewBox="0 0 256 243" fill="none" xmlns="http://www.w3.org/2000/svg">
<path d="M128.05 68.6264L211.794 31.2771C185.97 8.80918 151.101 -3.30009 113.46 0.784981C87.199 3.70289 63.2721 14.7909 44.3057 31.2771L128.05 68.6264Z" fill="#424242"/>
<path fill-rule="evenodd" clip-rule="evenodd" d="M256 128.006C256 175.859 229.739 217.585 190.785 239.47C187.721 241.221 184.074 242.096 180.426 242.096H75.5274C71.88 242.096 68.3785 241.221 65.1688 239.47C21.692 214.959 -6.02811 165.793 1.12076 111.082C3.1633 94.8874 8.41552 79.5685 16.148 66.0002C11.0416 55.6416 10.8958 42.9486 17.1693 32.0065L128.05 81.4651L220.985 40.0307L238.93 32.0065C245.058 42.9486 244.912 55.6415 239.952 65.8542C250.164 84.2371 256 105.392 256 128.006ZM92.3054 208.394H163.794C153.873 200.808 141.472 196.285 128.05 196.285C114.627 196.285 102.226 200.808 92.3054 208.394ZM182.177 231.154C180.232 226.874 177.8 222.886 174.882 219.19H81.0714C78.2508 222.886 75.8192 226.874 73.7767 231.154H182.177Z" fill="#424242"/>
<path d="M226.529 80.7356C224.486 81.9028 222.298 83.0699 219.964 83.9453L195.599 92.8449C199.83 97.0759 202.31 102.912 202.31 109.331C202.31 122.316 191.952 132.82 178.967 132.82C165.982 132.82 155.478 122.316 155.478 109.331C155.478 108.747 155.624 108.164 155.624 107.58L128.05 117.793L100.329 107.58C100.329 108.164 100.475 108.747 100.475 109.331C100.475 122.316 89.9708 132.82 77.132 132.82C64.1473 132.82 53.6429 122.316 53.6429 109.331C53.6429 102.912 56.2689 97.0759 60.4999 92.8449L36.1354 83.9453C33.8011 83.0699 31.6127 81.9028 29.5701 80.7356C24.4638 89.0516 21.5459 98.8266 21.5459 109.331C21.5459 140.115 46.3481 164.917 77.132 164.917C90.8462 164.917 103.539 159.957 113.168 151.495L128.05 178.486L142.785 151.495C152.56 159.957 165.107 164.917 178.967 164.917C209.605 164.917 234.553 140.115 234.553 109.331C234.553 98.8266 231.489 89.0516 226.529 80.7356Z" fill="white"/>
</svg>
