<svg width="207" height="256" viewBox="0 0 207 256" fill="none" xmlns="http://www.w3.org/2000/svg">
<path d="M206.158 102.925C206.158 159.865 103.079 256 103.079 256C103.079 256 0 159.865 0 102.925C0 46.1386 46.1387 0 103.079 0C160.019 0 206.158 46.1386 206.158 102.925Z" fill="#895F3B"/>
<path d="M162.642 52.774C146.131 36.2628 119.436 36.2628 103.079 52.774C86.5677 36.2628 59.872 36.2628 43.3609 52.774C27.0041 69.2851 27.0041 95.9807 43.3609 112.338L91.9685 160.945C98.1409 167.118 108.017 167.118 114.035 160.945L162.642 112.338C179.154 95.9807 179.154 69.2851 162.642 52.774Z" fill="white"/>
<path d="M74.2231 91.5059C70.2111 95.5179 63.7301 95.5179 59.8723 91.5059C55.8603 87.4938 55.8603 81.1671 59.8723 77.155C63.7301 73.143 70.2111 73.143 74.2231 77.155C78.2352 81.1671 78.2352 87.4938 74.2231 91.5059Z" fill="#424242"/>
<path d="M146.286 91.5059C142.274 95.5179 135.793 95.5179 131.781 91.5059C127.923 87.4938 127.923 81.1671 131.781 77.155C135.793 73.143 142.274 73.143 146.286 77.155C150.298 81.1671 150.298 87.4938 146.286 91.5059Z" fill="#424242"/>
<path d="M111.875 105.085L105.085 97.9866C104.005 96.9065 102.153 96.9065 101.073 97.9866L94.2835 105.085C93.3576 106.011 93.2033 107.245 93.8205 108.325L101.999 128.849C102.308 129.929 103.696 129.929 104.159 128.849L112.338 108.325C112.801 107.245 112.646 106.011 111.875 105.085Z" fill="#424242"/>
<path d="M1.08057 113.418C11.7279 170.821 103.079 256 103.079 256C103.079 156.624 1.08057 113.418 1.08057 113.418Z" fill="#6B4A2E"/>
<path d="M205.077 113.418C194.276 170.821 103.079 256 103.079 256C103.079 156.624 205.077 113.418 205.077 113.418Z" fill="#6B4A2E"/>
</svg>
