<svg width="256" height="256" viewBox="0 0 256 256" fill="none" xmlns="http://www.w3.org/2000/svg">
<g clip-path="url(#clip0_2_36)">
<path d="M160.604 100.919C146.253 100.919 133.754 92.7403 127.582 80.8584C121.409 92.7403 109.064 100.919 94.7137 100.919C80.6715 100.919 68.3267 93.0489 62 81.6299V118.047H193.163V81.6299C186.837 93.0489 174.646 100.919 160.604 100.919Z" fill="#FF8F00"/>
<path d="M94.7137 26.6956C109.064 26.6956 121.409 34.7197 127.582 46.7559C133.754 34.7197 146.253 26.6956 160.604 26.6956C172.486 26.6956 182.979 32.2508 189.769 40.8921C191.929 38.2688 193.163 35.0283 193.163 31.4791H183.596C172.023 12.499 151.345 0 127.582 0C103.972 0 83.1404 12.499 71.7215 31.4791H62C62 35.0283 63.3888 38.2688 65.3948 40.8921C72.1844 32.2508 82.8318 26.6956 94.7137 26.6956Z" fill="#FF8F00"/>
<path d="M101.966 63.73C101.966 67.8963 98.7255 71.1368 94.7135 71.1368C90.5471 71.1368 87.3066 67.8963 87.3066 63.73C87.3066 59.7179 90.5471 56.3231 94.7135 56.3231C98.7255 56.3231 101.966 59.7179 101.966 63.73Z" fill="#424242"/>
<path d="M135.143 82.8644L129.279 76.8462C128.353 75.9204 126.81 75.9204 125.884 76.8462L120.175 82.8644C119.403 83.6359 119.249 84.7161 119.712 85.6419L125.576 96.2892C126.502 97.8323 128.816 97.8323 129.742 96.2892L135.452 85.6419C135.915 84.7161 135.76 83.6359 135.143 82.8644Z" fill="#424242"/>
<path d="M62 233.934L84.2206 216.96C87.6154 214.336 89.4671 210.324 89.4671 206.158V127.614H62V233.934Z" fill="#FF8F00"/>
<path d="M99.3433 199.368C99.3433 206.775 105.361 212.793 112.768 212.793H142.396C149.957 212.793 155.975 206.775 155.975 199.368V127.614H99.3433V199.368Z" fill="#FF8F00"/>
<path d="M165.696 127.614V206.158C165.696 210.324 167.702 214.336 170.943 216.96L193.163 233.934V127.614H165.696Z" fill="#FF8F00"/>
<path d="M168.011 63.73C168.011 67.8963 164.616 71.1368 160.604 71.1368C156.592 71.1368 153.197 67.8963 153.197 63.73C153.197 59.7179 156.592 56.3231 160.604 56.3231C164.616 56.3231 168.011 59.7179 168.011 63.73Z" fill="#424242"/>
<path d="M150.574 222.36H104.59C102.429 222.36 101.349 224.829 102.584 226.527L125.576 255.074C126.656 256.309 128.662 256.309 129.588 255.074L152.58 226.527C153.969 224.829 152.734 222.36 150.574 222.36Z" fill="#424242"/>
</g>
<defs>
<clipPath id="clip0_2_36">
<rect width="256" height="256" fill="white"/>
</clipPath>
</defs>
</svg>
