<svg width="256" height="256" viewBox="0 0 256 256" fill="none" xmlns="http://www.w3.org/2000/svg">
<path d="M256 127.923C256 198.751 198.751 256 127.923 256C57.249 256 0 198.751 0 127.923C0 57.2489 57.249 0 127.923 0C198.751 0 256 57.2489 256 127.923Z" fill="#00897B"/>
<path d="M224.212 174.062L256 255.846L174.216 224.058L224.212 174.062Z" fill="#00897B"/>
<path d="M256 127.923C256 108.326 251.525 89.8083 243.501 73.1429L229.613 59.255L127.923 88.2653L26.3872 59.255L36.4173 69.2851L37.0346 69.9024L41.2009 74.0688C31.9423 83.3273 26.3872 95.9808 26.3872 110.023C26.3872 125.454 33.1768 139.188 43.9785 148.6L149.526 254.148C167.889 251.062 185.018 243.964 199.831 233.934L256 255.846L234.088 199.677C247.976 179.154 256 154.464 256 127.923Z" fill="#00796B"/>
<path d="M229.613 59.255H26.3872L41.2009 74.0688C31.9423 83.3273 26.3872 95.9808 26.3872 110.023C26.3872 138.107 49.0707 160.945 77.1551 160.945C91.1973 160.945 103.851 155.236 113.109 145.977L127.923 160.945L142.891 145.977C151.995 155.236 164.803 160.945 178.845 160.945C206.93 160.945 229.613 138.107 229.613 110.023C229.613 95.9808 223.904 83.3273 214.799 74.0688L229.613 59.255Z" fill="white"/>
<path d="M77.1554 123.602C69.5943 123.602 63.5762 117.584 63.5762 110.023C63.5762 102.616 69.5943 96.4436 77.1554 96.4436C84.7166 96.4436 90.7347 102.616 90.7347 110.023C90.7347 117.584 84.7166 123.602 77.1554 123.602Z" fill="#424242"/>
<path d="M178.845 123.602C171.284 123.602 165.266 117.584 165.266 110.023C165.266 102.616 171.284 96.4436 178.845 96.4436C186.252 96.4436 192.425 102.616 192.425 110.023C192.425 117.584 186.252 123.602 178.845 123.602Z" fill="#424242"/>
</svg>
