<svg width="222" height="256" viewBox="0 0 222 256" fill="none" xmlns="http://www.w3.org/2000/svg">
<path d="M32.2854 57.8231C33.4273 57.8231 34.4654 57.3041 35.0883 56.4736L55.7468 71.0073C96.1297 62.9099 109.418 87.6172 109.418 87.6172L102.67 74.9521C99.5554 69.3463 103.604 62.3909 110.04 62.4947C110.11 62.4947 110.179 62.4947 110.248 62.4947C116.684 62.4947 120.629 69.3463 117.619 74.9521L110.559 87.9286C110.559 87.9286 123.951 63.3252 164.334 71.3187L183.954 56.4736C184.577 57.3041 185.512 57.8231 186.654 57.8231C188.522 57.8231 189.976 56.3698 189.976 54.5012C189.976 52.6326 188.522 51.1792 186.654 51.1792C184.785 51.1792 183.228 52.6326 183.228 54.5012C183.228 55.1241 183.435 55.7469 183.851 56.266C179.387 58.8613 170.251 63.3252 160.597 63.0137C150.112 62.5985 153.019 40.9018 154.887 31.2473C155.164 31.3165 155.475 31.3511 155.821 31.3511C158.313 31.3511 160.389 29.2749 160.389 26.7834C160.389 24.292 158.313 22.2157 155.821 22.2157C153.226 22.2157 151.254 24.292 151.254 26.7834C151.254 28.5482 152.292 30.1054 153.745 30.8321C149.697 38.618 139.938 54.2936 129.661 52.0097C119.383 49.7258 113.155 25.2263 110.975 12.0421C113.881 11.6269 116.165 9.1354 116.165 6.12486C116.165 2.69907 113.466 0 110.04 0C106.718 0 104.019 2.69907 104.019 6.12486C104.019 9.1354 106.303 11.6269 109.21 12.0421C107.03 25.2263 100.801 49.7258 90.5238 52.0097C80.2464 54.2936 70.4881 38.618 66.4395 30.8321C67.8928 30.1054 68.9309 28.5482 68.9309 26.7834C68.9309 24.292 66.9585 22.2157 64.3632 22.2157C61.8717 22.2157 59.7955 24.292 59.7955 26.7834C59.7955 29.2749 61.8717 31.3511 64.3632 31.3511C64.7093 31.3511 65.0207 31.3165 65.2975 31.2473C67.1661 40.9018 70.0729 62.5985 59.5879 63.0137C49.7258 63.3252 39.8636 58.7575 35.1921 56.1622C35.5035 55.7469 35.6073 55.1241 35.6073 54.5012C35.6073 52.6326 34.154 51.1792 32.2854 51.1792C30.4167 51.1792 28.9634 52.6326 28.9634 54.5012C28.9634 56.3698 30.4167 57.8231 32.2854 57.8231Z" fill="url(#paint0_linear_2_82)"/>
<path fill-rule="evenodd" clip-rule="evenodd" d="M221.327 130.803L109.833 256L0 131.53L51.0754 80.1427L110.56 95.5069L170.251 80.3503L221.327 130.803ZM120.526 100.282L160.078 140.561L210.011 127.585L168.487 89.7973L120.526 100.282ZM110.663 101.632L69.4501 142.43L110.456 150.942L151.877 142.43L110.663 101.632ZM11.2117 127.689L61.249 140.561L100.697 100.282L52.7364 89.7973L11.2117 127.689ZM105.473 246.138L60.0033 144.714L8.92783 133.191L105.473 246.138ZM110.56 250.394L152.915 145.856L110.456 154.264L68.3082 145.856L110.56 250.394ZM115.646 246.138L212.295 133.294L161.116 144.818L115.646 246.138Z" fill="url(#paint1_linear_2_82)"/>
<defs>
<linearGradient id="paint0_linear_2_82" x1="241.908" y1="-0.895884" x2="57.4213" y2="150.3" gradientUnits="userSpaceOnUse">
<stop stop-color="#916739"/>
<stop offset="0.307" stop-color="#B58B42"/>
<stop offset="0.615" stop-color="#F8E69D"/>
<stop offset="1" stop-color="#92693A"/>
</linearGradient>
<linearGradient id="paint1_linear_2_82" x1="340.457" y1="124.819" x2="51.2989" y2="361.799" gradientUnits="userSpaceOnUse">
<stop stop-color="#916739"/>
<stop offset="0.307" stop-color="#B58B42"/>
<stop offset="0.615" stop-color="#F8E69D"/>
<stop offset="1" stop-color="#92693A"/>
</linearGradient>
</defs>
</svg>
