<svg width="257" height="257" viewBox="0 0 257 257" fill="none" xmlns="http://www.w3.org/2000/svg">
<path d="M128.699 0.5C57.9737 0.5 0.700195 57.7735 0.700195 128.499C0.700195 139.709 2.33077 150.716 4.98044 160.907C17.0058 165.595 30.6618 166.614 46.1521 162.945C72.6488 156.626 96.9034 144.193 123.4 138.079C120.343 122.588 118.916 106.69 119.731 90.7924C120.547 78.3594 119.731 56.143 128.292 45.952C134.203 38.8182 143.171 39.2259 149.489 45.1367C157.234 52.678 156.623 70.818 157.234 81.0091C158.253 104.245 156.011 133.595 147.043 159.276C145.005 152.754 143.374 145.824 142.355 139.302C147.859 114.028 147.451 86.716 143.986 65.3149C142.967 58.7926 138.075 42.6908 134.814 59.6079C133.591 66.334 132.368 73.06 131.961 79.7861C130.738 93.0344 130.534 106.487 132.164 119.735C132.708 123.947 133.319 128.227 133.999 132.576C134.203 133.799 136.445 145.416 136.648 146.435C137.192 148.474 137.735 150.512 138.279 152.55C139.502 158.053 141.132 163.556 143.374 168.448C143.374 168.448 143.374 168.516 143.374 168.652C146.228 175.989 149.897 182.919 154.381 188.83C160.292 196.575 168.852 206.359 180.877 202.078C189.438 199.021 196.979 193.926 204.724 189.034C213.896 183.327 222.864 177.212 232.852 172.932C239.17 170.079 244.877 168.448 250.584 167.429C254.457 155.2 256.495 142.155 256.495 128.499C256.495 57.7735 199.221 0.5 128.699 0.5Z" fill="#223345"/>
<path d="M71.6301 193.722C77.7447 217.365 101.796 205.951 114.432 194.13C121.566 187.403 127.273 179.251 131.757 170.283C129.107 162.537 127.069 154.792 125.439 148.066C125.303 147.523 125.167 146.979 125.031 146.436C102.815 152.55 65.1078 169.263 71.6301 193.722Z" fill="#223345"/>
<path d="M176.801 211.455C157.234 211.863 144.801 198.207 136.648 181.494C126.253 198.411 111.578 211.455 90.7887 215.939C71.6296 220.016 53.2858 202.691 61.2348 182.717C64.4959 174.768 69.5914 168.042 75.9099 162.131C58.5851 168.449 41.0566 173.749 22.3051 173.749C17.4134 173.749 12.9294 173.341 8.44531 172.322C26.3815 221.443 73.464 256.5 128.699 256.5C182.508 256.5 228.571 223.073 247.323 176.194C236.52 179.863 226.533 185.366 216.75 191.685C205.336 198.819 190.865 211.048 176.801 211.455Z" fill="#223345"/>
</svg>
