<svg width="257" height="184" viewBox="0 0 257 184" fill="none" xmlns="http://www.w3.org/2000/svg">
<path d="M171.076 42.9212V59.3137C161.24 62.7648 152.152 68.6891 144.733 77.0291C139.786 82.5508 135.99 88.7627 133.344 95.2621L128.455 90.8908V0.300781C151.98 0.300781 171.076 19.3391 171.076 42.9212Z" fill="url(#paint0_linear_1_1668)"/>
<path d="M43.1567 42.9212V59.1987C33.2637 62.6498 24.0609 68.6316 16.5837 77.0291C6.63314 88.1875 1.34153 101.877 0.536285 115.738V0.300781C24.1185 0.300781 43.1567 19.3391 43.1567 42.9212Z" fill="url(#paint1_linear_1_1668)"/>
<path d="M240.269 162.039C239.464 162.902 238.659 163.765 237.853 164.57C236.531 165.893 235.15 167.158 233.77 168.366C233.233 168.826 232.696 169.248 232.159 169.632C229.974 171.434 227.673 173.025 225.257 174.406C224.49 174.904 223.723 175.345 222.956 175.729C221.806 176.361 220.656 176.936 219.448 177.512C219.409 177.55 219.371 177.569 219.333 177.569C218.125 178.087 216.917 178.604 215.709 179.122C213.178 180.081 210.648 180.886 208.117 181.538C208.117 181.538 208.098 181.538 208.059 181.538C206.947 181.845 205.816 182.094 204.666 182.286C204.378 182.343 204.091 182.401 203.803 182.458C202.653 182.65 201.483 182.822 200.295 182.976C199.144 183.148 197.936 183.206 196.786 183.321C180.221 184.414 163.311 179.18 149.967 167.273C149.104 166.468 148.241 165.663 147.436 164.858L123.624 143.691L121.783 142.081L79.4503 104.407L78.9326 103.947L78.53 103.602C71.7429 97.1022 62.8852 93.0184 53.0497 92.1557C51.0366 91.9831 48.9085 91.9256 46.8379 92.0981C23.3132 93.3635 5.42527 113.552 6.80569 137.077C7.38087 147.545 11.6372 156.863 18.3667 163.88C17.8491 163.362 17.3314 162.845 16.8713 162.327C15.3183 160.601 13.8803 158.818 12.5574 156.978C12.0398 156.288 11.5796 155.597 11.062 154.907C10.5443 154.102 10.0267 153.239 9.50902 152.434L8.81881 151.226C8.64625 150.939 8.53123 150.651 8.35867 150.363C8.18612 150.133 8.07108 149.788 7.95604 149.558C7.66846 149.155 7.43838 148.695 7.26583 148.293C6.26886 146.299 5.38694 144.266 4.62004 142.196C4.19824 141.161 3.81479 140.125 3.46969 139.09C3.20127 138.285 2.9712 137.479 2.77947 136.674C2.5494 135.869 2.3385 135.064 2.14677 134.258C2.08926 134.086 2.03175 133.856 2.03175 133.626C1.91671 133.281 1.84001 132.936 1.80167 132.59C1.64829 132.092 1.55242 131.574 1.51408 131.037C1.32235 130.117 1.1498 129.178 0.996425 128.219C0.996425 128.104 0.996425 128.047 0.996425 127.932C0.88139 126.781 0.766351 125.688 0.651316 124.48C0.574626 123.944 0.536292 123.407 0.536292 122.87C0.536292 122.467 0.478771 122.007 0.478771 121.605C0.440426 120.914 0.440426 120.224 0.478771 119.534C0.478771 118.269 0.497947 117.003 0.536292 115.738C1.34154 101.876 6.63314 88.187 16.5837 77.0286C24.0609 68.631 33.2637 62.6492 43.1568 59.1981C43.3868 59.1215 43.5977 59.0448 43.7894 58.9681C44.4413 58.738 45.1123 58.5271 45.8025 58.3354C46.6653 58.1053 47.5281 57.8177 48.3908 57.6452C48.6209 57.5301 48.7935 57.4726 49.081 57.4726C49.8096 57.2426 50.5381 57.07 51.2667 56.955C52.302 56.7249 53.2798 56.5523 54.3151 56.3798L55.0053 56.2648C55.8106 56.1497 56.6734 56.0347 57.4786 55.9772C57.6512 55.9772 57.8237 55.9196 57.9963 55.9196C75.194 54.1366 92.9669 59.3707 106.886 71.737L128.455 90.8903L133.344 95.2616L135.127 96.8146L177.345 134.489L177.575 134.719C177.805 134.949 178.054 135.179 178.323 135.409C178.323 135.409 178.38 135.409 178.38 135.466C178.61 135.696 178.84 135.926 179.128 136.099C179.128 136.157 179.186 136.157 179.243 136.214C179.416 136.387 179.588 136.559 179.818 136.732L180.508 137.307C180.969 137.709 181.486 138.112 181.946 138.457C182.982 139.32 184.132 140.01 185.225 140.758C185.628 140.988 186.088 141.218 186.49 141.448C187.219 141.908 187.967 142.311 188.733 142.656C189.347 142.963 189.941 143.25 190.517 143.519C191.207 143.749 191.839 144.036 192.415 144.266C193.68 144.784 195.003 145.187 196.268 145.532C196.69 145.685 197.093 145.781 197.476 145.819C199.547 146.395 201.675 146.682 203.861 146.912C204.378 146.912 204.896 146.97 205.414 147.027H205.931C207.312 147.085 208.635 147.085 210.072 146.97C211.453 146.912 212.718 146.74 214.041 146.567L214.099 146.51C235.553 143.231 251.428 124.078 250.162 101.991C249.587 92.0981 245.676 83.1829 239.579 76.2808C261.608 100.093 262.298 137.249 240.269 162.039Z" fill="url(#paint2_linear_1_1668)"/>
<path d="M121.783 142.082C120.575 144.095 119.137 145.993 117.527 147.834C108.209 158.302 94.865 163.076 81.9235 161.926C73.1233 161.178 64.4957 157.669 57.4211 151.342C48.5059 143.405 43.7319 132.707 43.1567 121.721C43.2143 122.469 43.3293 123.216 43.5018 123.907C43.6744 124.597 43.8469 125.345 44.077 126.035C44.2687 126.648 44.4988 127.281 44.7672 127.933C44.8439 128.048 44.9014 128.182 44.9398 128.335C45.2082 128.872 45.4958 129.409 45.8025 129.946C45.8409 130.023 45.8984 130.119 45.9751 130.234C46.2052 130.694 46.4927 131.154 46.8379 131.556C47.7581 132.975 48.8893 134.26 50.2314 135.41C58.974 143.29 72.4906 142.485 80.313 133.685C84.3968 129.083 86.1223 123.274 85.6046 117.58C85.6046 117.235 85.5471 116.947 85.4896 116.602C85.4321 116.142 85.317 115.682 85.2595 115.164C85.1061 114.474 84.9144 113.803 84.6843 113.151C84.5693 112.633 84.3968 112.173 84.1667 111.713C84.0517 111.291 83.8791 110.889 83.649 110.505C83.4765 109.987 83.1889 109.47 82.9013 108.952C82.6329 108.53 82.3645 108.089 82.0961 107.629C81.866 107.361 81.6551 107.092 81.4634 106.824C81.1183 106.306 80.6581 105.731 80.198 105.271C79.9679 104.926 79.6803 104.696 79.4503 104.408L121.783 142.082Z" fill="url(#paint3_linear_1_1668)"/>
<path d="M123.624 143.692C123.585 143.768 123.547 143.845 123.509 143.922C123.221 144.669 122.876 145.417 122.531 146.107C122.358 146.625 122.128 147.085 121.841 147.603C121.534 148.216 121.227 148.849 120.92 149.501C120.748 149.673 120.69 149.903 120.575 150.133C120.269 150.67 119.962 151.188 119.655 151.686C119.041 152.76 118.37 153.834 117.642 154.907C117.182 155.598 116.722 156.288 116.204 156.978C115.974 157.323 115.725 157.649 115.456 157.956C114.996 158.646 114.498 159.279 113.961 159.854C113.386 160.602 112.81 161.292 112.178 162.04C88.6531 188.383 48.2758 190.741 21.8753 167.274C21.4918 166.967 21.1275 166.622 20.7824 166.238C20.2839 165.817 19.7855 165.356 19.287 164.858C18.9419 164.57 18.6543 164.225 18.3667 163.88C11.6372 156.863 7.38087 147.545 6.80569 137.077C5.42527 113.552 23.3132 93.3637 46.8379 92.0983C48.9085 91.9258 51.0366 91.9833 53.0497 92.1558C62.8852 93.0186 71.7429 97.1023 78.53 103.602C69.7873 95.7794 56.2707 96.5272 48.4483 105.327C45.3424 108.836 43.6169 113.035 43.1567 117.348C43.1567 117.521 43.0992 117.694 43.0992 117.866C43.0992 118.039 43.0992 118.211 43.0992 118.441C43.0609 118.786 43.0417 119.151 43.0417 119.534C43.0417 120.263 43.0801 120.991 43.1567 121.72C43.7319 132.706 48.5059 143.404 57.4211 151.341C64.4957 157.668 73.1234 161.177 81.9235 161.925C94.865 163.075 108.209 158.301 117.527 147.833C119.137 145.992 120.575 144.094 121.783 142.081L123.624 143.692Z" fill="url(#paint4_linear_1_1668)"/>
<path d="M214.099 146.51L214.041 146.567C212.718 146.74 211.453 146.912 210.072 146.97C208.635 147.085 207.312 147.085 205.931 147.027H205.414C204.896 146.97 204.378 146.912 203.861 146.912C201.675 146.682 199.547 146.394 197.476 145.819C197.093 145.781 196.69 145.685 196.268 145.532C195.003 145.187 193.68 144.784 192.415 144.266C191.839 144.036 191.207 143.749 190.517 143.519C189.941 143.25 189.347 142.963 188.733 142.656C187.967 142.311 187.219 141.908 186.49 141.448C186.088 141.218 185.628 140.988 185.225 140.758C184.132 140.01 182.982 139.32 181.946 138.457C181.486 138.112 180.969 137.709 180.508 137.307L179.818 136.732C179.588 136.559 179.416 136.386 179.243 136.214C179.473 136.386 179.646 136.559 179.933 136.674C188.676 143.116 201.042 141.966 208.404 133.683C211.798 129.887 213.581 125.228 213.811 120.512C213.869 119.476 213.811 118.383 213.754 117.348C213.178 106.362 208.347 95.549 199.489 87.7266C192.357 81.3422 183.787 77.8336 174.987 77.0859C161.988 75.9355 148.644 80.7095 139.326 91.1777C137.773 92.9607 136.335 94.8588 135.127 96.8144L133.344 95.2614C135.99 88.7619 139.786 82.5501 144.733 77.0284C152.152 68.6884 161.24 62.764 171.076 59.313C171.938 58.9679 172.801 58.6803 173.664 58.3927C174.699 58.1051 175.735 57.8175 176.77 57.53C177.613 57.2999 178.495 57.1082 179.416 56.9548C180.259 56.7631 181.122 56.5905 182.004 56.4371C182.752 56.3221 183.442 56.2071 184.132 56.1495C184.247 56.092 184.42 56.092 184.535 56.092C185.225 55.977 185.973 55.9195 186.72 55.862C203.746 54.309 221.288 59.5431 234.978 71.7368C235.15 71.8518 235.265 71.9669 235.38 72.1394C235.495 72.1969 235.553 72.2544 235.668 72.3695C236.32 72.9446 236.952 73.5582 237.566 74.21C238.179 74.7852 238.774 75.3795 239.349 75.9931C239.464 76.1081 239.521 76.1656 239.579 76.2807C245.676 83.1828 249.587 92.098 250.162 101.991C251.428 124.078 235.553 143.231 214.099 146.51Z" fill="url(#paint5_linear_1_1668)"/>
<path d="M213.754 117.35C213.178 112.231 210.763 107.284 206.679 103.603C197.879 95.7808 184.42 96.5861 176.597 105.329C175.907 106.076 175.332 106.824 174.814 107.629C174.507 108.09 174.22 108.569 173.951 109.067C173.894 109.125 173.779 109.297 173.779 109.412C173.491 109.873 173.261 110.333 173.031 110.85C172.916 111.08 172.82 111.311 172.744 111.541C172.514 112.173 172.284 112.748 172.111 113.324C171.996 113.669 171.881 114.071 171.823 114.474C171.747 114.704 171.689 114.934 171.651 115.164C171.536 115.509 171.459 115.874 171.421 116.257C171.267 117.369 171.191 118.462 171.191 119.536C171.191 120.801 171.248 122.066 171.478 123.332C171.651 124.079 171.823 124.77 172.053 125.46C172.053 125.575 172.111 125.69 172.111 125.805C172.284 126.265 172.399 126.668 172.571 127.07C172.763 127.684 173.012 128.278 173.319 128.853C173.549 129.314 173.779 129.774 174.124 130.291C174.182 130.521 174.354 130.751 174.584 131.039C175.121 131.921 175.754 132.765 176.482 133.57C176.482 133.627 176.482 133.627 176.54 133.627C176.597 133.685 176.655 133.742 176.655 133.8L176.885 133.972C177.038 134.164 177.192 134.337 177.345 134.49L135.127 96.8162C136.335 94.8606 137.773 92.9625 139.326 91.1794C148.644 80.7113 161.988 75.9373 174.987 77.0877C183.787 77.8354 192.357 81.344 199.489 87.7284C208.347 95.5508 213.178 106.364 213.754 117.35Z" fill="url(#paint6_linear_1_1668)"/>
<defs>
<linearGradient id="paint0_linear_1_1668" x1="255.595" y1="8.17665" x2="255.595" y2="102.436" gradientUnits="userSpaceOnUse">
<stop stop-color="#F18535"/>
<stop offset="1" stop-color="#C14935"/>
</linearGradient>
<linearGradient id="paint1_linear_1_1668" x1="178.181" y1="8.17665" x2="178.181" y2="102.436" gradientUnits="userSpaceOnUse">
<stop stop-color="#F18535"/>
<stop offset="1" stop-color="#C14935"/>
</linearGradient>
<linearGradient id="paint2_linear_1_1668" x1="68.9257" y1="-17.6763" x2="287.76" y2="157.6" gradientUnits="userSpaceOnUse">
<stop stop-color="#9368E8"/>
<stop offset="0.5" stop-color="#A17AFF"/>
<stop offset="1" stop-color="#9368E8"/>
</linearGradient>
<linearGradient id="paint3_linear_1_1668" x1="32.577" y1="128.196" x2="161.366" y2="21.6117" gradientUnits="userSpaceOnUse">
<stop stop-color="#9368E8"/>
<stop offset="1" stop-color="#222B7F"/>
</linearGradient>
<linearGradient id="paint4_linear_1_1668" x1="63.2309" y1="220.976" x2="-94.9394" y2="45.6905" gradientUnits="userSpaceOnUse">
<stop stop-color="#9368E8"/>
<stop offset="1" stop-color="#222B7F"/>
</linearGradient>
<linearGradient id="paint5_linear_1_1668" x1="167.209" y1="-4.76781" x2="363.756" y2="191.78" gradientUnits="userSpaceOnUse">
<stop stop-color="#9368E8"/>
<stop offset="1" stop-color="#222B7F"/>
</linearGradient>
<linearGradient id="paint6_linear_1_1668" x1="217.591" y1="110.041" x2="117.188" y2="221.298" gradientUnits="userSpaceOnUse">
<stop stop-color="#9368E8"/>
<stop offset="1" stop-color="#222B7F"/>
</linearGradient>
</defs>
</svg>
