<svg width="257" height="162" viewBox="0 0 257 162" fill="none" xmlns="http://www.w3.org/2000/svg">
<path d="M81.2911 0.0996094C36.8426 0.0996094 0.700012 36.2422 0.700012 80.6907C0.700012 125.139 36.8426 161.282 81.2911 161.282C120.476 161.282 153.247 133.157 160.402 96.0276H128.823C122.327 116.093 103.495 130.649 81.2911 130.649C53.7421 130.649 31.3328 108.24 31.3328 80.6907C31.3328 53.1828 53.7421 30.7736 81.2911 30.7736C100.37 30.7736 116.981 41.5053 125.369 57.2946H158.387C148.354 24.2358 117.598 0.0996094 81.2911 0.0996094Z" fill="url(#paint0_linear_1_1645)"/>
<path d="M31.3328 80.9374C31.3328 80.8826 31.3328 80.8277 31.3328 80.7729C31.3328 80.7455 31.3328 80.7181 31.3328 80.6907C31.3328 80.6358 31.3465 80.581 31.374 80.5262C31.5384 41.2997 59.9098 8.61101 97.2037 1.7032C92.064 0.675257 86.7186 0.0996094 81.2911 0.0996094C36.8426 0.0996094 0.700012 36.2422 0.700012 80.6907C0.700012 125.139 36.8426 161.282 81.2911 161.282C86.3075 161.282 91.2416 160.829 96.0113 159.925C59.1697 152.524 31.3328 119.917 31.3328 80.9374Z" fill="url(#paint1_linear_1_1645)"/>
<path d="M21.5879 80.6907C21.5879 122.261 53.7832 156.43 94.5721 159.637C58.4295 151.66 31.3328 119.383 31.3328 80.9374C31.3328 80.8826 31.3328 80.8278 31.3328 80.7729C31.3328 80.7455 31.3328 80.7181 31.3328 80.6907C31.3328 80.6359 31.3465 80.5811 31.3739 80.5262C31.5384 41.2998 59.9098 8.61104 97.2037 1.70323C97.094 1.67582 96.9981 1.66211 96.9159 1.66211C55.0579 3.63577 21.5879 38.3393 21.5879 80.6907Z" fill="url(#paint2_linear_1_1645)"/>
<path fill-rule="evenodd" clip-rule="evenodd" d="M119.161 23.7012C150.575 -7.71289 201.725 -7.71289 233.139 23.7012C264.554 55.1564 264.554 106.266 233.139 137.68C201.725 169.135 150.575 169.135 119.161 137.68C87.7466 106.266 87.7466 55.1564 119.161 23.7012ZM211.47 116.011C230.919 96.5621 230.919 64.8602 211.47 45.4114C191.98 25.9215 160.32 25.9215 140.83 45.4114C121.381 64.8602 121.381 96.5621 140.83 116.011C160.32 135.501 191.98 135.501 211.47 116.011Z" fill="url(#paint3_linear_1_1645)"/>
<path d="M233.139 137.681C237.169 133.651 213.115 115.23 216.117 110.625C205.097 125.962 173.889 142.163 143.955 118.89C142.845 118.027 141.858 117.04 140.83 116.012C140.172 115.354 139.541 114.682 138.938 113.997C112.993 86.6125 109.991 45.289 129.934 14.6973C126.151 17.3288 122.532 20.3304 119.161 23.7021C87.7466 55.1573 87.7466 106.267 119.161 137.681C150.575 169.136 201.725 169.136 233.139 137.681Z" fill="url(#paint4_linear_1_1645)"/>
<path d="M216.487 110.172C216.404 110.254 216.336 110.35 216.281 110.459C216.226 110.514 216.171 110.569 216.117 110.624C215.157 111.912 214.129 113.159 213.033 114.366C211.881 115.681 210.675 116.97 209.414 118.231C183.633 144.012 144.654 148.617 114.103 132.17C115.693 134.061 117.379 135.898 119.161 137.679C150.575 169.135 201.725 169.135 233.139 137.679C264.554 106.265 264.554 55.1558 233.139 23.7006C227.465 18.0674 221.174 13.4211 214.431 9.80273C238.444 38.6675 239.143 80.5255 216.487 110.172Z" fill="url(#paint5_linear_1_1645)"/>
<path d="M218.46 125.591C249.34 94.7112 248.888 43.9717 217.432 12.5165C216.528 11.6393 215.61 10.7759 214.678 9.92609C214.595 9.87127 214.513 9.83015 214.431 9.80273C238.444 38.6675 239.143 80.5255 216.487 110.171C216.404 110.254 216.336 110.35 216.281 110.459C216.226 110.514 216.171 110.569 216.117 110.624C215.157 111.912 214.129 113.159 213.033 114.366C211.881 115.681 210.675 116.97 209.414 118.231C183.633 144.012 144.654 148.617 114.103 132.17C114.131 132.17 114.158 132.183 114.185 132.211C145.682 155.853 190.295 153.756 218.46 125.591Z" fill="url(#paint6_linear_1_1645)"/>
<path d="M160.402 65.3945H128.823H58.3062C58.3062 82.294 72.0395 96.0274 88.939 96.0274H128.823C128.823 96.0274 140.994 95.6573 146.422 102.236C152.302 109.391 153.165 117.162 153.165 117.162C161.882 99.4401 161.882 85.9535 161.882 80.6904C161.882 75.4684 161.389 70.3287 160.402 65.3945Z" fill="url(#paint7_linear_1_1645)"/>
<path d="M161.882 80.6904C161.882 75.4684 161.389 70.3287 160.402 65.3945H128.823H69.6547C75.1234 73.7826 84.6216 79.3335 95.3945 79.3335H135.238C135.238 79.3335 147.409 78.9634 152.836 85.5423C157.976 91.8333 159.292 98.5767 159.538 100.139C161.882 90.9287 161.882 84.1032 161.882 80.6904Z" fill="url(#paint8_linear_1_1645)"/>
<path d="M197.531 78.3475L177.713 66.0944C175.122 64.4908 171.792 66.3411 171.792 69.3838V93.8901C171.792 96.9328 175.122 98.7831 177.713 97.1795L197.531 84.9264C199.957 83.405 199.957 79.8689 197.531 78.3475Z" fill="url(#paint9_linear_1_1645)"/>
<path d="M187.046 74.1123L173.724 65.8887C172.614 66.5466 171.792 67.8212 171.792 69.3837V90.4772L187.046 81.0612C189.554 79.4987 189.554 75.6747 187.046 74.1123Z" fill="url(#paint10_linear_1_1645)"/>
<defs>
<linearGradient id="paint0_linear_1_1645" x1="0.6922" y1="0.107012" x2="160.418" y2="0.107012" gradientUnits="userSpaceOnUse">
<stop stop-color="#003BBF"/>
<stop offset="0.99" stop-color="#0686FF"/>
</linearGradient>
<linearGradient id="paint1_linear_1_1645" x1="0.6922" y1="0.107012" x2="97.1881" y2="0.107012" gradientUnits="userSpaceOnUse">
<stop stop-color="#004FFF"/>
<stop offset="0.99" stop-color="#24D6FF"/>
</linearGradient>
<linearGradient id="paint2_linear_1_1645" x1="247.041" y1="25.4237" x2="217.363" y2="201.845" gradientUnits="userSpaceOnUse">
<stop offset="0.01" stop-color="#24FFFF"/>
<stop offset="1" stop-color="#004FFF"/>
</linearGradient>
<linearGradient id="paint3_linear_1_1645" x1="95.6054" y1="0.160361" x2="256.693" y2="0.160361" gradientUnits="userSpaceOnUse">
<stop stop-color="#FFD600"/>
<stop offset="1" stop-color="#FF4C00"/>
</linearGradient>
<linearGradient id="paint4_linear_1_1645" x1="69.0536" y1="257.654" x2="-29.0892" y2="100.086" gradientUnits="userSpaceOnUse">
<stop stop-color="#FF4C00"/>
<stop offset="1" stop-color="#FFD600"/>
</linearGradient>
<linearGradient id="paint5_linear_1_1645" x1="290.13" y1="80.7031" x2="176.149" y2="194.684" gradientUnits="userSpaceOnUse">
<stop stop-color="#FF4C00"/>
<stop offset="1" stop-color="#FFD600"/>
</linearGradient>
<linearGradient id="paint6_linear_1_1645" x1="114.12" y1="9.7867" x2="241.323" y2="9.7867" gradientUnits="userSpaceOnUse">
<stop stop-color="#FF4C00"/>
<stop offset="1" stop-color="#FFEF00"/>
</linearGradient>
<linearGradient id="paint7_linear_1_1645" x1="58.2996" y1="65.3748" x2="161.886" y2="65.3748" gradientUnits="userSpaceOnUse">
<stop stop-color="#004FFF"/>
<stop offset="0.99" stop-color="#24D6FF"/>
</linearGradient>
<linearGradient id="paint8_linear_1_1645" x1="69.6732" y1="65.3748" x2="161.886" y2="65.3748" gradientUnits="userSpaceOnUse">
<stop stop-color="#004FFF"/>
<stop offset="0.99" stop-color="#24FFFF"/>
</linearGradient>
<linearGradient id="paint9_linear_1_1645" x1="171.799" y1="65.5171" x2="199.35" y2="65.5171" gradientUnits="userSpaceOnUse">
<stop stop-color="#004FFF"/>
<stop offset="0.99" stop-color="#24D6FF"/>
</linearGradient>
<linearGradient id="paint10_linear_1_1645" x1="171.799" y1="65.8841" x2="188.911" y2="65.8841" gradientUnits="userSpaceOnUse">
<stop stop-color="#004FFF"/>
<stop offset="0.99" stop-color="#24FFFF"/>
</linearGradient>
</defs>
</svg>
