<svg width="257" height="243" viewBox="0 0 257 243" fill="none" xmlns="http://www.w3.org/2000/svg">
<path d="M128.1 242.816L0.0999756 67.2617L68.0065 94.6558L128.1 242.816Z" fill="url(#paint0_linear_1_1622)"/>
<path d="M68.0066 94.6562L128.1 242.816V94.6562H68.0066Z" fill="url(#paint1_linear_1_1622)"/>
<path d="M128.1 94.6558V242.816L256.1 67.2617L188.193 94.6558H128.1Z" fill="url(#paint2_linear_1_1622)"/>
<path d="M188.193 94.6562L128.1 242.816V94.6562H188.193Z" fill="url(#paint3_linear_1_1622)"/>
<path d="M26.9153 15.1731L0.0999756 46.0397L68.0065 73.5303H128.1V0.800781L26.9153 15.1731Z" fill="url(#paint4_linear_1_1622)"/>
<path d="M229.285 15.1731L128.1 0.800781V73.5303H188.193L256.1 46.0397L229.285 15.1731Z" fill="url(#paint5_linear_1_1622)"/>
<path d="M26.9153 15.1731L128.1 36.7797L229.285 15.1731L128.1 0.800781L26.9153 15.1731Z" fill="url(#paint6_linear_1_1622)"/>
<path d="M26.9153 15.1738L68.0065 73.531L0.0999756 46.0404L26.9153 15.1738Z" fill="url(#paint7_linear_1_1622)"/>
<path d="M229.285 15.1738L188.193 73.531L256.1 46.0404L229.285 15.1738Z" fill="url(#paint8_linear_1_1622)"/>
<path d="M128.1 0.800781V36.7797L229.285 15.1731L128.1 0.800781Z" fill="url(#paint9_linear_1_1622)"/>
<defs>
<linearGradient id="paint0_linear_1_1622" x1="-182.486" y1="157.617" x2="-55.1284" y2="66.4231" gradientUnits="userSpaceOnUse">
<stop stop-color="#F29B75"/>
<stop offset="1" stop-color="#C61D99"/>
</linearGradient>
<linearGradient id="paint1_linear_1_1622" x1="-66.9316" y1="288.08" x2="-112.605" y2="170.54" gradientUnits="userSpaceOnUse">
<stop stop-color="#731CB7"/>
<stop offset="1" stop-color="#C61D99"/>
</linearGradient>
<linearGradient id="paint2_linear_1_1622" x1="25.5138" y1="164.921" x2="88.0573" y2="32.8864" gradientUnits="userSpaceOnUse">
<stop stop-color="#F29B75"/>
<stop offset="1" stop-color="#C61D99"/>
</linearGradient>
<linearGradient id="paint3_linear_1_1622" x1="-8.49064" y1="283.907" x2="-61.3604" y2="147.845" gradientUnits="userSpaceOnUse">
<stop stop-color="#F29B75"/>
<stop offset="1" stop-color="#C61D99"/>
</linearGradient>
<linearGradient id="paint4_linear_1_1622" x1="117.69" y1="89.4459" x2="37.1851" y2="72.1564" gradientUnits="userSpaceOnUse">
<stop stop-color="#731CB7"/>
<stop offset="1" stop-color="#C61D99"/>
</linearGradient>
<linearGradient id="paint5_linear_1_1622" x1="215.552" y1="7.4072" x2="296.536" y2="198.385" gradientUnits="userSpaceOnUse">
<stop stop-color="#F29B75"/>
<stop offset="1" stop-color="#C61D99"/>
</linearGradient>
<linearGradient id="paint6_linear_1_1622" x1="66.575" y1="-54.8237" x2="160.275" y2="25.7113" gradientUnits="userSpaceOnUse">
<stop stop-color="#F29B75"/>
<stop offset="1" stop-color="#C61D99"/>
</linearGradient>
<linearGradient id="paint7_linear_1_1622" x1="16.7766" y1="82.4901" x2="-32.1937" y2="25.3592" gradientUnits="userSpaceOnUse">
<stop stop-color="#731CB7"/>
<stop offset="1" stop-color="#C61D99"/>
</linearGradient>
<linearGradient id="paint8_linear_1_1622" x1="197.167" y1="90.824" x2="197.167" y2="11.8933" gradientUnits="userSpaceOnUse">
<stop stop-color="#731CB7"/>
<stop offset="1" stop-color="#C61D99"/>
</linearGradient>
<linearGradient id="paint9_linear_1_1622" x1="118.103" y1="0.821037" x2="200.18" y2="0.821037" gradientUnits="userSpaceOnUse">
<stop stop-color="#F29B75"/>
<stop offset="1" stop-color="#C61D99"/>
</linearGradient>
</defs>
</svg>
