<svg width="257" height="257" viewBox="0 0 257 257" fill="none" xmlns="http://www.w3.org/2000/svg">
<path fill-rule="evenodd" clip-rule="evenodd" d="M184.498 4.15965L253.041 72.7029C255.115 74.7769 256.3 77.5424 256.3 80.4066V177.394C256.3 180.357 255.115 183.123 253.041 185.098L184.498 253.74C182.423 255.814 179.658 256.9 176.794 256.9H79.8062C76.8433 256.9 74.0778 255.814 72.1025 253.74L3.46055 185.098C1.38648 183.123 0.300049 180.357 0.300049 177.394V80.4066C0.300049 77.5424 1.38648 74.7769 3.46055 72.7029L72.1025 4.15965C74.0778 2.08557 76.8433 0.900391 79.8062 0.900391H176.794C179.658 0.900391 182.423 2.08557 184.498 4.15965ZM154.177 216.407C163.954 226.184 179.757 226.184 189.535 216.407L230.226 175.715C232.3 173.641 233.485 170.876 233.485 168.012V89.888C233.485 86.9251 232.3 84.1596 230.226 82.1843L175.016 26.8757C172.942 24.9004 170.177 23.7152 167.312 23.7152H89.1889C86.3247 23.7152 83.5593 24.9004 81.4852 26.8757L26.2753 82.1843C24.2013 84.1596 23.1149 86.9251 23.1149 89.888V168.012C23.1149 170.876 24.2013 173.641 26.1766 175.715L66.6704 217.098C76.0531 226.777 91.5593 226.876 101.14 217.394L128.3 190.53L154.177 216.407Z" fill="url(#paint0_linear_1_1607)"/>
<path d="M145.584 78.9258H110.917C108.744 78.9258 106.67 79.7159 105.189 81.2962L80.5963 105.79C79.1148 107.37 78.226 109.444 78.226 111.518V146.284C78.226 148.457 79.1148 150.531 80.5963 152.012L105.189 176.605C106.67 178.086 108.744 178.975 110.917 178.975H145.584C147.757 178.975 149.831 178.086 151.312 176.605L175.905 152.012C177.386 150.531 178.275 148.457 178.275 146.284V111.518C178.275 109.444 177.386 107.37 175.905 105.79L151.312 81.2962C149.831 79.7159 147.757 78.9258 145.584 78.9258Z" fill="url(#paint1_linear_1_1607)"/>
<defs>
<linearGradient id="paint0_linear_1_1607" x1="148.903" y1="-106.433" x2="358.042" y2="102.706" gradientUnits="userSpaceOnUse">
<stop stop-color="#F29B75"/>
<stop offset="1" stop-color="#C61D99"/>
</linearGradient>
<linearGradient id="paint1_linear_1_1607" x1="70.9252" y1="-28.453" x2="280.064" y2="180.686" gradientUnits="userSpaceOnUse">
<stop stop-color="#F29B75"/>
<stop offset="1" stop-color="#C61D99"/>
</linearGradient>
</defs>
</svg>
