<svg width="257" height="244" viewBox="0 0 257 244" fill="none" xmlns="http://www.w3.org/2000/svg">
<path d="M236.298 163.507C230.145 180.691 220.493 195.542 208.506 207.74C208.436 207.74 208.33 207.811 208.188 207.952C201.187 215.059 193.232 221.317 184.746 226.409C157.697 242.638 124.708 248.366 92.356 240.198C88.5374 239.208 84.7187 238.042 80.9001 236.698C72.6263 233.728 64.883 229.909 57.7761 225.454C48.0173 219.408 39.4254 212.089 31.8942 203.921C21.0747 191.829 12.6949 177.721 7.39122 162.447C4.42117 153.961 2.40578 145.263 1.34504 136.353C0.390384 127.867 0.284306 119.275 1.13289 110.577C1.27432 109.445 1.41576 108.314 1.55719 107.182C2.40577 99.9694 3.99688 92.7564 6.33049 85.5434C6.75478 84.1291 7.24979 82.7148 7.81552 81.3005C30.4091 18.1869 99.9933 -14.4837 163.107 8.10991C226.221 30.8096 258.997 100.394 236.298 163.507Z" fill="url(#paint0_linear_1_1149)"/>
<path d="M151.121 227.046C114.525 233.198 66.5802 218.136 31.8942 203.922C21.0747 191.83 12.6949 177.722 7.39122 162.447C4.42117 153.962 2.40578 145.263 1.34504 136.353C0.390384 127.867 0.284306 119.276 1.13289 110.578C1.27432 109.446 1.41576 108.315 1.55719 107.183C2.40577 99.9702 3.99688 92.7572 6.33049 85.5442C21.1808 64.3295 42.0772 47.0396 66.368 38.3415C120.253 19.1423 177.745 44.706 197.899 91.1661C222.19 146.961 207.446 217.712 151.121 227.046Z" fill="url(#paint1_linear_1_1149)"/>
<path d="M105.191 108.774C135.952 101.243 163.107 124.897 160.455 156.083C158.97 172.418 150.696 189.178 139.028 200.634C126.087 213.256 105.933 217.075 88.4312 212.514C72.8384 208.377 46.6383 193.845 44.5169 175.388C42.6075 158.204 63.3979 137.202 74.8539 126.382C83.4458 118.215 93.6288 111.532 105.191 108.774Z" fill="url(#paint2_linear_1_1149)"/>
<path d="M208.188 207.953C178.7 237.653 134.891 250.913 92.356 240.199C88.5374 239.209 84.7187 238.042 80.9001 236.699C72.6264 233.729 64.883 229.91 57.7761 225.455L36.7736 145.582L75.5964 94.5605L119.086 97.5306L114.525 143.248C114.525 143.248 112.616 192.891 149.211 211.347C183.685 228.637 205.854 210.181 208.188 207.953Z" fill="url(#paint3_linear_1_1149)"/>
<path d="M256.557 85.5428L165.016 96.9988C162.152 89.8919 160.137 85.2246 160.137 85.2246C165.759 83.9517 168.623 80.1331 168.623 80.1331C103.812 42.9014 41.9711 55.0998 7.28508 121.502C4.73932 126.381 2.72392 131.367 1.34497 136.352C5.58791 172.523 25.954 205.724 57.776 225.454C64.989 229.909 72.6263 233.727 80.9 236.697C84.7186 238.041 88.5373 239.208 92.3559 240.198C92.3559 240.198 69.0198 201.057 71.3534 165.946C73.687 130.836 98.0839 111 98.0839 111C95.2199 128.609 104.554 137.837 114.525 143.247C122.481 147.49 130.861 149.505 133.937 151.414C140.938 155.657 151.863 172.311 156 174.114C160.243 175.917 176.684 173.69 178.7 171.356C180.821 169.129 185.382 158.733 185.382 158.733C184.64 150.035 178.912 133.064 173.078 117.577L256.557 85.5428Z" fill="url(#paint4_linear_1_1149)"/>
<path d="M150.803 117.047C150.803 117.047 150.06 108.773 146.878 105.273C143.802 101.773 138.392 100.712 138.392 100.712C138.392 100.712 140.62 106.44 142.105 109.834C143.59 113.335 150.803 117.047 150.803 117.047Z" fill="url(#paint5_linear_1_1149)"/>
<defs>
<linearGradient id="paint0_linear_1_1149" x1="301.237" y1="-17.0793" x2="232.788" y2="173.274" gradientUnits="userSpaceOnUse">
<stop stop-color="white"/>
<stop offset="1" stop-color="#7C663C"/>
</linearGradient>
<linearGradient id="paint1_linear_1_1149" x1="-82.5304" y1="229.193" x2="82.1524" y2="-27.6218" gradientUnits="userSpaceOnUse">
<stop stop-color="white"/>
<stop offset="1" stop-color="#7C663C"/>
</linearGradient>
<linearGradient id="paint2_linear_1_1149" x1="88.0398" y1="89.6098" x2="161.753" y2="78.93" gradientUnits="userSpaceOnUse">
<stop stop-color="white"/>
<stop offset="1" stop-color="#7C663C"/>
</linearGradient>
<linearGradient id="paint3_linear_1_1149" x1="74.9801" y1="332.507" x2="13.9306" y2="108.945" gradientUnits="userSpaceOnUse">
<stop stop-color="white"/>
<stop offset="1" stop-color="#A96A31"/>
</linearGradient>
<linearGradient id="paint4_linear_1_1149" x1="163.623" y1="270.878" x2="-122.771" y2="402.398" gradientUnits="userSpaceOnUse">
<stop stop-color="white"/>
<stop offset="1" stop-color="#A96A31"/>
</linearGradient>
<linearGradient id="paint5_linear_1_1149" x1="141.117" y1="126.142" x2="129.807" y2="108.095" gradientUnits="userSpaceOnUse">
<stop offset="0.906" stop-color="#B27946"/>
<stop offset="1" stop-color="#A96A31"/>
</linearGradient>
</defs>
</svg>
