<svg width="219" height="257" viewBox="0 0 219 257" fill="none" xmlns="http://www.w3.org/2000/svg">
<path fill-rule="evenodd" clip-rule="evenodd" d="M127.981 52.4043C170.039 52.4043 204.097 86.4989 204.097 128.556V204.672H182.779C175.395 204.672 168.844 200.835 165.008 195.08C154.041 201.161 141.409 204.672 127.981 204.672C85.9604 204.672 51.8658 170.577 51.8658 128.556C51.8658 86.4989 85.9604 52.4043 127.981 52.4043ZM94.5022 128.556C94.5022 147.015 109.486 161.999 127.981 161.999C146.477 161.999 161.461 147.015 161.461 128.556C161.461 110.061 146.477 95.0768 127.981 95.0768C109.486 95.0768 94.5022 110.061 94.5022 128.556Z" fill="#300C50"/>
<path d="M132.18 256.537C165.876 255.451 196.279 241.336 218.538 219.113L204.097 204.671H182.779C175.395 204.671 168.844 200.835 165.008 195.08C155.199 200.545 144.052 203.911 132.18 204.563V256.537Z" fill="#9027E2"/>
<path d="M132.18 52.5477C151.544 53.5973 168.953 61.8495 181.802 74.6983L218.538 37.9977C196.279 15.7385 165.876 1.62292 132.18 0.537109V52.5477Z" fill="#F98AFE"/>
<path d="M77.2377 71.839C89.7245 60.6189 105.939 53.5249 123.783 52.5477V0.537109C91.6067 1.58673 62.3982 14.5079 40.4647 35.0661L77.2377 71.839Z" fill="#15B0F8"/>
<path d="M51.9744 124.32C52.9516 106.477 60.0818 90.2618 71.2657 77.7749L34.5289 41.002C13.9708 62.9716 1.04962 92.1438 0 124.32H51.9744Z" fill="#2ECC71"/>
<path d="M71.2657 179.299C60.0818 166.812 52.9516 150.597 51.9744 132.754H0C1.04962 164.93 13.9708 194.139 34.5289 216.072L71.2657 179.299Z" fill="#F1C40F"/>
<path d="M123.783 204.563C105.939 203.586 89.7245 196.455 77.2377 185.271L40.4647 222.008C62.3982 242.566 91.6067 255.488 123.783 256.537V204.563Z" fill="#FF0000"/>
</svg>
