<svg width="223" height="257" viewBox="0 0 223 257" fill="none" xmlns="http://www.w3.org/2000/svg">
<path fill-rule="evenodd" clip-rule="evenodd" d="M111.607 69.4896H4.03306C2.53319 69.4896 1.28331 68.4897 0.866675 66.9898C0.450043 65.5733 1.11664 63.9901 2.36654 63.2402L109.941 0.912072C110.941 0.328788 112.274 0.328788 113.274 0.912072C114.274 1.49536 114.94 2.66192 114.94 3.82849V66.1566C114.94 67.9898 113.44 69.4896 111.607 69.4896ZM16.4487 62.8235H108.274V9.57801L16.4487 62.8235Z" fill="#111111"/>
<path fill-rule="evenodd" clip-rule="evenodd" d="M219.015 69.4883H111.607C109.774 69.4883 108.274 67.9885 108.274 66.1553V3.91052C108.274 2.66063 108.941 1.57739 109.941 0.994104C110.941 0.41082 112.274 0.41082 113.274 0.994104L220.681 63.2389C222.015 63.9888 222.681 65.572 222.265 66.9885C221.848 68.4884 220.598 69.4883 219.015 69.4883ZM114.94 62.8222H206.683L114.94 9.66004V62.8222Z" fill="#111111"/>
<path fill-rule="evenodd" clip-rule="evenodd" d="M111.607 256.474C111.024 256.474 110.441 256.307 109.941 255.974L2.36654 193.646C1.36662 193.062 0.700012 191.979 0.700012 190.813C0.700012 189.563 1.36662 188.479 2.36654 187.896L56.1953 156.816C56.9452 156.316 57.8618 156.232 58.6951 156.482C59.6117 156.649 60.2783 157.232 60.7783 157.982L114.524 251.474C115.274 252.724 115.024 254.391 113.94 255.474C113.274 256.14 112.441 256.474 111.607 256.474ZM10.6992 190.813L102.525 243.975L56.6119 164.232L10.6992 190.813Z" fill="#111111"/>
<path fill-rule="evenodd" clip-rule="evenodd" d="M4.03306 194.145C3.53311 194.145 2.94982 193.979 2.36654 193.645C1.36662 193.062 0.700012 191.979 0.700012 190.812V66.1561C0.700012 64.6562 1.78325 63.323 3.1998 62.9064C4.69967 62.5731 6.19955 63.1564 6.94948 64.4896L60.7783 157.982C61.6948 159.565 61.1116 161.648 59.5284 162.565L5.7829 193.645C5.19961 193.979 4.61635 194.145 4.03306 194.145ZM7.36612 78.6551V184.979L53.2789 158.482L7.36612 78.6551Z" fill="#111111"/>
<path fill-rule="evenodd" clip-rule="evenodd" d="M111.607 256.474C110.774 256.474 109.857 256.14 109.274 255.474C108.191 254.391 107.941 252.724 108.691 251.474L162.436 157.982C162.936 157.232 163.603 156.649 164.52 156.482C165.353 156.232 166.269 156.316 167.019 156.816L220.765 187.896C221.848 188.479 222.431 189.563 222.431 190.813C222.431 191.979 221.848 193.062 220.765 193.646L113.274 255.974C112.774 256.307 112.191 256.474 111.607 256.474ZM166.603 164.232L120.69 243.975L212.515 190.813L166.603 164.232Z" fill="#111111"/>
<path d="M219.098 69.4892C218.515 69.4892 218.015 69.4058 217.432 69.0725C215.848 68.1559 215.349 66.1561 216.182 64.5729L216.265 64.4896C217.015 63.1564 218.515 62.5731 220.015 62.9064C221.431 63.323 222.431 64.6562 222.431 66.1561C222.431 67.3227 221.848 68.4893 220.765 69.0725C220.265 69.3225 219.681 69.4892 219.098 69.4892Z" fill="#111111"/>
<path fill-rule="evenodd" clip-rule="evenodd" d="M219.098 194.146C218.598 194.146 218.015 193.98 217.432 193.647L163.686 162.566C162.103 161.649 161.52 159.566 162.436 157.983L216.182 64.5741C216.515 64.0741 216.932 63.6575 217.432 63.3242C218.432 62.7409 219.765 62.7409 220.765 63.3242C221.848 63.9075 222.431 64.9907 222.431 66.1573V190.813C222.431 191.98 221.848 193.063 220.765 193.647C220.265 193.98 219.681 194.146 219.098 194.146ZM169.936 158.483L215.765 184.981V78.6562L169.936 158.483Z" fill="#111111"/>
<path d="M219.098 69.5735C218.265 69.5735 217.432 69.2402 216.765 68.5735C215.682 67.4903 215.432 65.8238 216.182 64.5739L216.265 64.4906C217.182 62.9074 219.182 62.4074 220.765 63.324C221.848 63.9073 222.431 64.9905 222.431 66.1571C222.431 67.407 221.848 68.4902 220.765 69.0735C220.265 69.4068 219.682 69.5735 219.098 69.5735Z" fill="#111111"/>
<path d="M219.098 69.4884C218.515 69.4884 217.932 69.3217 217.348 69.0717C216.099 68.2385 215.432 66.7386 215.849 65.2387C216.265 63.8222 217.515 62.8223 219.015 62.8223C220.515 62.8223 221.931 63.8222 222.265 65.2387C222.681 66.7386 222.098 68.2385 220.848 68.9884L220.765 69.0717C220.265 69.3217 219.682 69.4884 219.098 69.4884Z" fill="#111111"/>
<path fill-rule="evenodd" clip-rule="evenodd" d="M111.607 131.733C111.024 131.733 110.441 131.566 109.941 131.233L2.36654 69.0717C1.11664 68.2385 0.450043 66.7386 0.866675 65.3221C1.28331 63.8222 2.53319 62.8223 4.03306 62.8223H219.015C219.598 62.8223 220.181 62.9889 220.681 63.2389L220.765 63.3222C221.765 63.9055 222.431 64.9887 222.431 66.1553C222.431 67.3219 221.765 68.4885 220.765 69.0717L113.274 131.233C112.774 131.566 112.191 131.733 111.607 131.733ZM16.4487 69.4884L111.607 124.484L206.683 69.4884H16.4487Z" fill="#111111"/>
<path fill-rule="evenodd" clip-rule="evenodd" d="M111.607 256.475C110.441 256.475 109.358 255.809 108.691 254.809L1.19998 67.8246C0.450048 66.4913 0.616731 64.8248 1.69997 63.8249C2.78321 62.7417 4.44971 62.4917 5.78293 63.2416L113.274 125.486C114.274 126.07 114.94 127.153 114.94 128.403V253.142C114.94 254.642 113.94 255.975 112.441 256.309C112.163 256.42 111.885 256.475 111.607 256.475ZM13.1156 75.2406L108.274 240.643V130.319L13.1156 75.2406Z" fill="#111111"/>
<path fill-rule="evenodd" clip-rule="evenodd" d="M111.607 256.475C111.33 256.475 111.052 256.42 110.774 256.308C109.274 255.975 108.274 254.642 108.274 253.142V128.569C108.274 127.403 108.941 126.153 109.941 125.569L217.432 63.3247C218.765 62.5748 220.348 62.8248 221.431 63.8247C222.515 64.9079 222.765 66.5744 222.015 67.9077L114.524 254.809C113.857 255.808 112.774 256.475 111.607 256.475ZM114.94 130.319V240.643L210.016 75.3237L114.94 130.319Z" fill="#111111"/>
<path d="M219.098 69.4896C218.515 69.4896 217.932 69.323 217.432 69.073C216.432 68.4897 215.765 67.4065 215.765 66.1566C215.765 64.99 216.349 63.9068 217.348 63.3235C218.682 62.5735 220.348 62.7402 221.431 63.7401C222.515 64.8234 222.765 66.4899 222.015 67.8231C221.598 68.573 220.848 69.1563 220.015 69.4063C219.682 69.4619 219.376 69.4896 219.098 69.4896Z" fill="#111111"/>
<path d="M111.607 131.733C111.024 131.733 110.441 131.566 109.941 131.316C108.941 130.733 108.274 129.65 108.274 128.4C108.274 127.234 108.941 126.067 109.941 125.484L217.432 63.3222C218.432 62.6556 219.765 62.6556 220.765 63.3222C221.515 63.7389 222.098 64.4888 222.348 65.3221C222.515 66.1553 222.431 67.0719 222.015 67.8219C221.681 68.3218 221.265 68.8218 220.765 69.0717L113.274 131.316C112.774 131.566 112.191 131.733 111.607 131.733Z" fill="#111111"/>
</svg>
