<svg width="224" height="257" viewBox="0 0 224 257" fill="none" xmlns="http://www.w3.org/2000/svg">
<path d="M151.797 109.198C150.699 109.198 149.518 108.608 148.927 107.51C147.998 105.822 148.505 103.797 150.109 102.868L184.714 83.033C186.318 82.1046 188.428 82.6954 189.357 84.2991C190.285 85.9028 189.694 87.9285 188.091 88.8569L153.485 108.692C152.978 109.03 152.387 109.198 151.797 109.198Z" fill="#111111"/>
<path d="M112.295 256.399C111.198 256.399 110.016 255.808 109.425 254.711C108.497 253.107 109.003 251.081 110.607 250.153L217.041 189.128V66.4035C217.041 64.5466 218.561 63.0273 220.418 63.0273C222.275 63.0273 223.794 64.5466 223.794 66.4035V190.732C223.794 190.844 223.794 190.957 223.794 191.069C223.794 192.251 223.203 193.433 222.106 194.024L113.983 255.977C113.477 256.314 112.886 256.399 112.295 256.399Z" fill="#111111"/>
<path d="M112.38 214.113C110.523 214.113 109.003 212.594 109.003 210.737V175.118C109.003 173.261 110.523 171.742 112.38 171.742C114.236 171.742 115.756 173.261 115.756 175.118V210.737C115.756 212.594 114.236 214.113 112.38 214.113Z" fill="#111111"/>
<path d="M72.7937 108.861C72.2029 108.861 71.6121 108.777 71.1056 108.439L36.4997 88.4355C34.896 87.507 34.3895 85.3969 35.318 83.7932C36.2464 82.1895 38.2722 81.5987 39.8759 82.5272L74.4818 102.615C76.0855 103.544 76.6763 105.57 75.7479 107.258C75.0727 108.271 73.9754 108.861 72.7937 108.861Z" fill="#111111"/>
<path d="M112.295 256.4C111.789 256.4 111.198 256.316 110.607 255.978L2.48454 193.265C1.47169 192.674 0.796448 191.577 0.796448 190.396V65.7297C0.796448 63.8728 2.31573 62.3535 4.17264 62.3535C6.02954 62.3535 7.54883 63.8728 7.54883 65.7297V188.454L113.983 250.154C115.671 251.083 116.178 253.108 115.249 254.712C114.658 255.809 113.477 256.4 112.295 256.4Z" fill="#111111"/>
<path d="M220.418 69.8647C219.827 69.8647 219.32 69.6959 218.73 69.3583L112.295 7.7428L5.86073 68.683C4.25704 69.6115 2.14692 69.1051 1.21847 67.417C0.290019 65.8133 0.880853 63.7876 2.48454 62.8591L110.607 0.906016C111.704 0.315182 112.97 0.315182 113.983 0.906016L222.106 63.5344C223.709 64.4628 224.3 66.5729 223.372 68.1766C222.697 69.2739 221.599 69.8647 220.418 69.8647Z" fill="#111111"/>
<path d="M72.7937 108.861C72.2029 108.861 71.6121 108.777 71.1056 108.439L36.4997 88.4355C34.896 87.507 34.3895 85.3969 35.318 83.7932C36.2464 82.1895 38.2722 81.5987 39.8759 82.5272L74.4818 102.615C76.0855 103.544 76.6763 105.57 75.7479 107.258C75.0727 108.271 73.9754 108.861 72.7937 108.861Z" fill="#111111"/>
<path d="M151.881 109.198C150.699 109.198 149.518 108.608 148.927 107.51C147.998 105.907 148.589 103.797 150.193 102.868L184.714 83.033C186.403 82.1046 188.428 82.6954 189.357 84.2991C190.285 85.9028 189.694 88.0129 188.091 88.9413L153.569 108.776C152.978 109.03 152.387 109.198 151.881 109.198Z" fill="#111111"/>
<path d="M112.295 177.313C111.113 177.313 110.016 176.722 109.425 175.625C108.497 174.021 109.003 171.995 110.607 171.067L148.42 149.375V105.738C148.42 103.881 149.94 102.361 151.797 102.361C153.653 102.361 155.173 103.881 155.173 105.738V151.063C155.173 151.175 155.173 151.288 155.173 151.4C155.173 152.582 154.582 153.679 153.485 154.27L113.983 176.891C113.477 177.228 112.886 177.313 112.295 177.313Z" fill="#111111"/>
<path d="M112.295 177.312C111.704 177.312 111.198 177.227 110.607 176.89L71.1056 154.016C70.0928 153.425 69.4175 152.243 69.4175 151.062V105.568C69.4175 103.626 70.9368 102.191 72.7937 102.191C74.6506 102.191 76.1699 103.626 76.1699 105.568V149.12L113.983 171.066C115.587 171.994 116.178 174.02 115.249 175.624C114.574 176.721 113.477 177.312 112.295 177.312Z" fill="#111111"/>
<path d="M151.797 109.197C151.29 109.197 150.699 109.028 150.108 108.69L112.295 86.7451L74.4818 108.437C72.8781 109.366 70.768 108.859 69.8396 107.171C68.9111 105.567 69.5019 103.542 71.1056 102.613L110.607 79.9928C111.704 79.3175 112.97 79.3175 113.983 79.9928L153.485 102.866C155.173 103.795 155.679 105.821 154.751 107.509C154.16 108.522 152.978 109.197 151.797 109.197Z" fill="#111111"/>
<path d="M112.295 217.237C111.704 217.237 111.113 217.068 110.607 216.73C109.594 216.139 108.919 215.042 108.919 213.86L109.003 175.119C109.003 173.262 110.523 171.742 112.38 171.742C114.236 171.742 115.756 173.262 115.756 175.119L115.671 208.036L183.026 169.463V91.8111L153.485 108.692C151.881 109.62 149.855 109.114 148.927 107.426C147.998 105.822 148.505 103.797 150.108 102.868L184.714 83.033C185.727 82.4421 187.078 82.4421 188.091 83.033C189.103 83.6238 189.779 84.7211 189.779 85.9871V171.067C189.779 171.18 189.779 171.264 189.779 171.32C189.779 172.586 189.188 173.684 188.091 174.275L113.983 216.73C113.477 217.068 112.886 217.237 112.295 217.237Z" fill="#111111"/>
<path d="M112.295 217.237C111.704 217.237 111.113 217.068 110.607 216.731L36.4997 173.853C35.4868 173.178 34.8116 172.081 34.8116 170.899V85.4813C34.8116 84.2996 35.4868 83.2023 36.4997 82.5271C37.5969 81.9363 38.863 81.9363 39.8759 82.5271L74.4818 102.615C76.0855 103.544 76.6763 105.57 75.7479 107.258C74.8194 108.861 72.7093 109.368 71.1056 108.439L41.564 91.3052V168.958L108.919 207.953V173.937C108.919 172.081 110.438 170.561 112.295 170.561C114.152 170.561 115.671 172.081 115.671 173.937V213.861C115.671 215.043 115.081 216.14 113.983 216.731C113.477 217.068 112.886 217.237 112.295 217.237Z" fill="#111111"/>
<path d="M151.881 109.198C150.699 109.198 149.518 108.607 148.927 107.509C147.998 105.906 148.505 103.796 150.193 102.867L179.65 85.9863L112.295 46.9069L44.9402 85.4798L74.4818 102.614C76.0855 103.542 76.6763 105.568 75.7479 107.256C74.8194 108.86 72.7093 109.366 71.1056 108.438L36.4997 88.434C35.4868 87.7588 34.8116 86.6615 34.8116 85.4798C34.8116 84.2982 35.4868 83.1165 36.4997 82.5257L110.607 40.0701C111.704 39.4792 112.97 39.4792 113.983 40.0701L188.091 83.0321C189.188 83.6229 189.779 84.7202 189.779 85.9863C189.779 87.1679 189.188 88.2652 188.091 88.856L153.485 108.776C152.978 109.029 152.387 109.198 151.881 109.198Z" fill="#111111"/>
<path d="M112.295 46.401C110.438 46.401 108.919 44.8817 108.919 43.0248V3.77658C108.919 1.91968 110.438 0.400391 112.295 0.400391C114.152 0.400391 115.671 1.91968 115.671 3.77658V43.0248C115.671 44.8817 114.152 46.401 112.295 46.401Z" fill="#111111"/>
<path d="M112.295 131.817C110.438 131.817 108.919 130.298 108.919 128.441V82.8625C108.919 81.0056 110.438 79.4863 112.295 79.4863C114.152 79.4863 115.671 81.0056 115.671 82.8625V128.441C115.671 130.298 114.152 131.817 112.295 131.817Z" fill="#111111"/>
<path d="M151.797 154.692C151.29 154.692 150.699 154.523 150.108 154.27L110.691 131.396C109.088 130.468 108.581 128.357 109.51 126.754C110.438 125.15 112.464 124.644 114.068 125.572L153.569 148.446C155.173 149.374 155.679 151.4 154.751 153.004C154.16 154.101 152.978 154.692 151.797 154.692Z" fill="#111111"/>
<path d="M72.7937 154.439C71.6121 154.439 70.5148 153.848 69.8396 152.751C68.9111 151.147 69.5019 149.037 71.1056 148.109L110.691 125.573C112.38 124.644 114.405 125.151 115.334 126.839C116.262 128.443 115.671 130.468 114.068 131.397L74.4818 154.017C73.9754 154.27 73.3846 154.439 72.7937 154.439Z" fill="#111111"/>
<path d="M220.418 194.448C219.911 194.448 219.32 194.279 218.73 194.026L184.714 174.275C183.111 173.346 182.52 171.236 183.448 169.633C184.377 168.029 186.487 167.523 188.091 168.451L222.106 188.202C223.794 189.13 224.3 191.156 223.372 192.76C222.781 193.857 221.599 194.448 220.418 194.448Z" fill="#111111"/>
<path d="M4.17262 193.603C2.99096 193.603 1.8937 193.012 1.30286 191.915C0.374409 190.311 0.880839 188.201 2.48453 187.273L36.4997 167.775C38.1877 166.847 40.2135 167.438 41.1419 169.041C42.0704 170.645 41.4795 172.755 39.8758 173.684L5.86072 193.181C5.35429 193.434 4.76346 193.603 4.17262 193.603Z" fill="#111111"/>
</svg>
