<svg width="256" height="117" viewBox="0 0 256 117" fill="none" xmlns="http://www.w3.org/2000/svg">
<path d="M0.488647 115.637C0.488647 115.637 20.994 93.3004 86.1717 75.6512C151.423 58.0752 203.931 37.0572 216.967 25.1934L219.53 29.3677C219.53 29.3677 172.294 63.9338 130.551 76.6764C88.8081 89.3458 81.2651 96.8889 81.2651 96.8889C81.2651 96.8889 29.3426 102.455 0.488647 115.637Z" fill="#FFE257"/>
<path d="M230.661 37.5689C230.661 37.5689 199.683 67.0088 243.623 116.222C243.623 116.222 201.954 103.04 197.047 100.769C197.047 100.769 195.875 65.0315 228.025 34.2734L230.661 37.5689Z" fill="#00E1D6"/>
<path d="M220.189 28.707C220.189 28.707 220.091 28.7803 219.896 28.9267C216.967 31.0505 191.262 49.5053 164.458 61.955C135.97 75.2835 89.4672 85.4629 78.7751 97.1803C78.7751 97.1803 130.551 93.958 145.125 94.8368C145.125 94.8368 177.713 73.5259 196.608 58.2933C215.502 43.0608 226.048 32.2222 226.048 32.2222L220.189 28.707Z" fill="#FF8422"/>
<path d="M228.757 33.3209C228.757 33.3209 201.807 64.8113 197.706 102.014C197.706 102.014 151.423 95.0567 145.125 94.837C145.125 94.837 176.761 73.0134 194.777 59.6117C209.79 48.407 227.366 30.4648 227.366 30.4648L228.757 33.3209Z" fill="#FF2D24"/>
<path d="M256 0C241.28 3.88137 231.906 8.49508 220.262 17.1366L216.527 16.9169C214.33 16.7705 212.28 18.0154 211.254 19.9927L204.444 33.5409L214.037 28.7075L226.926 41.5966L222.093 51.1902L235.641 44.3794C237.618 43.3542 238.79 41.3036 238.717 39.1066L238.497 36.0308C248.896 21.7503 254.389 11.4244 256 0Z" fill="#4F4F54"/>
<path d="M241.5 115.27C248.237 118.273 243.184 115.343 208.105 107.361C134.652 91.8354 55.4137 99.3784 0.488663 115.636C-8.66551 118.346 112.243 59.2465 241.5 115.27Z" fill="#4F4F54"/>
</svg>
