<svg width="256" height="101" viewBox="0 0 256 101" fill="none" xmlns="http://www.w3.org/2000/svg">
<path d="M42.1053 65.2257C42.1053 70.2784 38.7368 73.6468 33.6842 73.6468C30.3158 73.6468 25.2632 70.2784 25.2632 65.2257C25.2632 60.1731 30.3158 56.8047 33.6842 56.8047C38.7368 56.8047 42.1053 60.1731 42.1053 65.2257Z" fill="#EA3118"/>
<path fill-rule="evenodd" clip-rule="evenodd" d="M1.6842 100.581C-9.66223e-06 102.265 0 92.1599 0 90.4757C1.68421 71.9494 25.2632 13.002 42.1053 2.89676C48.8421 -2.15588 55.5789 2.89676 57.2632 11.3178C57.2632 16.3704 58.9474 24.7915 58.9474 29.8441C62.3158 45.002 65.6842 70.2652 84.2105 71.9494C99.3684 75.3178 131.368 63.5283 146.526 60.1599C180.211 51.7389 218.947 48.3704 249.263 66.8968C254.316 68.581 254.316 68.581 256 71.9494C252.632 70.2652 252.632 70.2652 249.263 68.581C215.579 58.4757 190.316 60.1599 158.316 70.2652C138.105 75.3178 111.158 87.1073 92.6316 88.7915C52.2105 92.1599 45.4737 50.0547 43.7895 19.7389C43.7895 18.6161 43.7895 17.4933 43.7895 16.3704C40.421 19.7389 35.3684 28.1599 33.6842 29.8441C26.9474 41.6336 -9.66223e-06 90.4757 1.6842 100.581Z" fill="#EA3118"/>
</svg>
