<svg width="257" height="214" viewBox="0 0 257 214" fill="none" xmlns="http://www.w3.org/2000/svg">
<path fill-rule="evenodd" clip-rule="evenodd" d="M256.234 213.801H201.316L199.196 210.942C187.216 194.745 173.857 176.96 160.075 158.963C157.425 161.609 154.668 164.15 151.593 166.479C149.049 168.385 146.434 170.114 143.748 171.667C152.442 183.1 158.167 190.722 158.591 191.252L163.574 197.921L156.152 201.732C141.098 209.566 124.134 213.801 107.065 213.801C73.1392 213.801 42.0755 198.239 21.7198 171.243C-9.66188 129.532 -6.37528 71.7302 29.6713 33.8306L35.3963 27.7963L40.4853 34.4658C40.8033 34.7834 46.4223 42.4057 55.2219 54.0508C57.4837 51.9335 59.8514 49.922 62.3252 48.0165C64.9403 46.1109 67.6262 44.3465 70.3827 42.7232C62.1132 32.0309 55.1159 23.1382 50.133 16.7864L57.6604 12.7635C72.8211 4.92951 89.7842 0.800781 106.853 0.800781C140.779 0.800781 171.843 16.257 192.199 43.2526C214.675 73.1064 219.764 112.488 205.875 147.106L256.234 213.801ZM208.526 199.615H227.927L189.654 148.906L191.351 145.2C205.239 114.394 201.21 78.6114 180.961 51.7217C163.256 28.3256 136.327 14.8808 106.959 14.8808C94.9791 14.8808 83.105 17.2098 72.079 21.6561C75.0475 25.4673 79.0763 30.5488 83.9532 36.7948L93.3889 48.8634C93.3889 48.8634 93.3535 48.8634 93.2828 48.8634C109.504 69.507 131.344 97.7729 154.35 127.839C151.699 132.497 148.201 137.049 145.762 140.013C122.014 108.889 98.1597 78.188 79.2883 54.0508C76.3904 55.5329 73.5986 57.2973 70.9128 59.344C68.439 61.179 66.1066 63.2257 63.9155 65.4842C61.6891 67.8132 56.3881 74.4827 55.0099 77.1293C43.0297 97.7729 44.302 123.816 59.0386 143.295C70.4887 158.539 87.9819 167.22 107.065 167.22C108.338 167.22 109.574 167.185 110.776 167.114L120.53 180.136C116.148 180.983 111.66 181.406 107.065 181.406C83.5291 181.406 61.9011 170.608 47.6946 151.764C28.293 126.039 27.8689 91.2093 45.9982 65.0607C41.3334 58.9206 37.4107 53.7332 34.4421 49.922C8.46742 82.6343 7.51326 128.897 33.0639 162.774C50.7691 186.17 77.698 199.615 107.065 199.615C119.046 199.615 131.026 197.286 142.052 192.734C139.189 188.923 135.266 183.735 130.602 177.489L121.484 165.526C116.183 158.433 110.352 150.599 104.203 142.448C89.8902 123.498 74.0934 102.431 60.6289 84.6457C63.5975 79.6701 66.778 75.8589 69.6406 73.0006C83.211 91.1035 99.856 113.123 115.547 133.979C122.544 143.295 129.329 152.293 135.266 160.233C138.023 158.751 140.638 157.057 143.112 155.152C146.151 152.893 148.943 150.352 151.487 147.529C151.558 147.459 151.593 147.424 151.593 147.424C153.82 144.989 158.803 138.213 160.075 135.355C170.889 115.135 169.299 90.1507 154.986 71.2009C143.536 55.9563 126.043 47.2754 106.959 47.2754C106.111 47.2754 105.228 47.3107 104.309 47.3813L94.131 34.2541C98.3718 33.4777 102.648 33.0895 106.959 33.0895C130.496 33.0895 152.23 43.8878 166.33 62.7317C185.308 87.8217 186.156 121.698 169.299 147.529C182.657 164.997 196.016 182.677 208.526 199.615Z" fill="#62C4B2"/>
</svg>
