<svg width="257" height="256" viewBox="0 0 257 256" fill="none" xmlns="http://www.w3.org/2000/svg">
<path d="M225.033 52.0843C225.1 52.6842 225.133 53.2507 225.133 53.7838C225.133 54.3837 225.033 54.9835 224.933 55.5833C224.833 56.7829 224.433 57.9826 224.034 58.9823C223.834 59.5821 223.567 60.1819 223.234 60.7818C222.901 61.3149 222.534 61.8148 222.134 62.2813C221.734 62.7812 221.234 63.181 220.735 63.5809C220.201 64.0474 219.635 64.4473 219.035 64.7806C218.502 65.1138 217.935 65.3804 217.336 65.5803C216.736 65.8802 216.236 65.9802 215.636 66.0802C215.036 66.2801 214.536 66.2801 213.937 66.3801C213.27 66.5134 212.604 66.58 211.937 66.58C210.738 66.68 209.538 66.68 208.338 66.58C207.139 66.5134 205.972 66.3801 204.839 66.1801C202.64 65.9135 200.474 65.5137 198.341 64.9805C196.142 64.4806 193.943 63.8808 191.743 63.281C191.41 63.1477 191.043 63.0144 190.644 62.8811C187.444 62.0814 184.245 61.4482 181.046 60.9817C180.113 60.8484 179.18 60.7484 178.247 60.6818C177.247 60.6151 176.281 60.5818 175.348 60.5818C173.615 60.6485 171.916 60.7817 170.25 60.9817C168.783 61.2483 167.35 61.5482 165.951 61.8814C164.818 62.2146 163.685 62.6145 162.552 63.0811C161.286 63.6809 160.053 64.314 158.853 64.9805C157.653 65.7136 156.487 66.5134 155.354 67.3798C154.154 68.3795 152.988 69.4125 151.855 70.4789C151.255 71.1453 150.655 71.8118 150.056 72.4783C149.389 73.2114 148.756 73.9445 148.156 74.6776C147.49 75.6107 146.823 76.577 146.157 77.5767C145.49 78.5098 144.857 79.4762 144.257 80.4759C143.657 81.6089 143.058 82.7419 142.458 83.8749C141.925 85.0079 141.392 86.1742 140.858 87.3738C140.392 88.5068 139.959 89.6731 139.559 90.8728C139.159 92.1391 138.759 93.4054 138.359 94.6716C137.359 98.7704 136.56 102.969 136.06 107.168C135.46 111.867 135.16 116.565 134.96 121.264C134.86 125.662 134.76 130.061 134.66 134.46C134.66 135.926 134.627 137.426 134.56 138.958C134.66 146.256 134.86 153.654 134.56 161.052C134.427 163.518 134.227 165.984 133.96 168.45C133.76 169.783 133.561 171.116 133.361 172.448C133.227 173.648 133.027 174.848 132.761 176.047C132.627 176.847 132.494 177.647 132.361 178.447C132.294 179.113 132.228 179.78 132.161 180.446C132.161 180.746 131.961 181.046 131.761 181.246C131.561 181.979 131.361 182.745 131.161 183.545C130.628 185.944 129.995 188.344 129.262 190.743C128.595 193.142 127.862 195.542 127.062 197.941C126.263 200.34 125.263 202.639 124.363 204.939C123.43 207.205 122.43 209.437 121.364 211.637C120.264 213.736 119.065 215.836 117.865 217.835C116.566 219.934 115.066 221.934 113.566 223.933C112.067 225.833 110.467 227.632 108.668 229.332C106.935 230.998 105.069 232.564 103.07 234.03C102.07 234.83 101.07 235.43 99.9705 236.13C98.8375 236.796 97.7045 237.396 96.5715 237.929C94.2722 238.929 91.9729 239.628 89.4736 240.028C87.5409 240.362 85.5748 240.528 83.5754 240.528C83.0422 240.528 82.5424 240.495 82.0758 240.428C79.5766 240.328 77.0773 240.128 74.5781 239.628C73.4451 239.429 72.3454 239.195 71.279 238.929C71.0125 238.862 70.7792 238.795 70.5793 238.729C70.5126 238.729 70.446 238.695 70.3793 238.629C70.3127 238.629 70.2793 238.629 70.2793 238.629C70.2793 238.629 70.246 238.629 70.1794 238.629C69.0464 238.296 67.9467 237.962 66.8804 237.629C64.4811 236.829 62.1818 235.73 59.9824 234.63C58.8828 234.13 57.7831 233.53 56.6834 232.93C55.6171 232.331 54.5507 231.697 53.4844 231.031C49.2856 228.432 45.2868 225.433 41.4879 222.234C37.5891 219.035 33.7902 215.536 30.3912 211.837C26.8923 208.138 23.7932 204.239 20.8941 200.14C17.895 196.141 15.2957 191.743 12.9964 187.344C10.5971 182.945 8.59772 178.447 6.79826 173.848C5.93185 171.449 5.09876 169.016 4.299 166.55C3.56589 164.218 2.96608 161.818 2.49955 159.352C2.23296 158.086 1.99969 156.82 1.79974 155.554C1.5998 154.287 1.43319 152.988 1.29989 151.655C1.1666 150.522 1.09997 149.422 1.09997 148.356C1 147.056 0.900025 145.856 0.999995 144.557C0.999995 143.224 1.03332 141.924 1.09997 140.658C1.16662 139.325 1.29991 138.025 1.49985 136.759C1.76643 134.36 2.16633 131.961 2.6995 129.561C3.29932 127.062 3.89912 124.563 4.79885 122.163C5.19873 120.897 5.66528 119.664 6.19846 118.465C6.46505 117.865 6.73162 117.298 6.99821 116.765C7.2648 116.099 7.5647 115.465 7.89793 114.866C8.49776 113.666 9.09757 112.566 9.79736 111.567C10.3305 110.567 10.9304 109.601 11.5968 108.667C12.33 107.601 13.0964 106.601 13.8961 105.668C14.6959 104.669 15.5956 103.769 16.3954 102.769C18.1949 100.97 20.0943 99.2703 22.0937 97.5708C24.0931 96.0712 26.1925 94.5717 28.2919 93.1721C30.3912 91.8725 32.4906 90.7728 34.69 89.6731C36.9893 88.4735 39.3886 87.4738 41.6879 86.5741C43.9872 85.6743 46.3865 84.9745 48.7857 84.2747C49.9854 83.9415 51.185 83.6749 52.3847 83.475C53.6843 83.1751 54.9839 82.9751 56.2835 82.8752C58.6828 82.5419 61.0821 82.3753 63.4814 82.3753C65.8807 82.3753 68.28 82.5753 70.5793 83.275C71.6789 83.575 72.8786 83.9748 73.8783 84.4747C74.9446 85.0079 75.9443 85.5744 76.8774 86.1742C77.3439 86.5074 77.8104 86.8406 78.277 87.1739C78.4103 87.2405 78.5102 87.3072 78.5769 87.3738C78.7768 87.5738 79.0767 87.6737 79.1767 87.8737C79.4433 88.0736 79.6765 88.3069 79.8765 88.5735C80.0098 88.7734 80.1431 88.9733 80.2764 89.1733C80.8762 90.073 81.476 91.0727 81.8759 92.0724C82.0092 92.6056 82.1425 93.1388 82.2758 93.6719C82.4757 94.1718 82.4757 94.7716 82.5757 95.3714C82.6757 96.4711 82.5757 97.7707 82.4757 98.8704C82.2758 100.07 81.8759 101.27 81.376 102.369C80.9762 103.502 80.5096 104.602 79.9765 105.668C78.8435 107.868 77.5772 110 76.1776 112.066C74.7114 114.199 73.1452 116.299 71.479 118.365C69.9794 120.264 68.3799 122.063 66.7804 123.863C65.3142 125.529 63.8813 127.262 62.4817 129.061C61.6153 130.261 60.7489 131.461 59.8824 132.66C59.1493 133.793 58.4162 134.96 57.6831 136.159C57.0833 137.359 56.3835 138.459 55.8836 139.758C55.6837 140.225 55.5171 140.691 55.3838 141.158C55.3171 141.691 55.2172 142.191 55.0839 142.657C55.0839 143.124 55.0839 143.557 55.0839 143.957C55.0839 144.157 55.0839 144.324 55.0839 144.457V144.657C55.1505 144.857 55.2172 145.023 55.2838 145.157C55.3505 145.29 55.4171 145.423 55.4838 145.556C55.5837 145.756 55.6837 145.856 55.6837 145.856C55.8837 146.056 56.0503 146.256 56.1836 146.456C56.3835 146.59 56.5834 146.756 56.7834 146.956C56.85 147.023 56.9167 147.056 56.9833 147.056C57.1833 147.189 57.3499 147.256 57.4832 147.256C57.5498 147.256 57.6165 147.289 57.6831 147.356H58.083C58.2163 147.356 58.3496 147.356 58.4829 147.356C58.8828 147.289 59.2493 147.189 59.5825 147.056C59.8491 146.989 60.149 146.889 60.4823 146.756C61.0154 146.49 61.5153 146.223 61.9818 145.956C62.3817 145.756 62.7816 145.523 63.1815 145.257C63.648 144.923 64.1145 144.59 64.5811 144.257C65.1142 143.857 65.6141 143.424 66.0806 142.957C66.6138 142.491 67.147 141.991 67.6801 141.458C68.8131 140.325 69.8795 139.158 70.8792 137.959C71.9788 136.759 73.0785 135.36 74.0782 134.06C75.6111 132.061 77.0773 129.994 78.4769 127.862C79.8765 125.796 81.2094 123.663 82.4757 121.464C84.7417 117.532 86.8744 113.566 88.8738 109.567C90.8066 105.568 92.6394 101.503 94.3722 97.3708C96.8714 91.3726 99.0708 85.3744 100.77 79.0763C101.67 75.9772 102.27 72.8781 102.77 69.6791C102.836 68.746 102.903 67.813 102.97 66.8799C102.97 66.0802 102.903 65.2804 102.77 64.4806C102.703 63.8808 102.57 63.3143 102.37 62.7812C102.236 62.3813 102.103 61.9814 101.97 61.5815C101.837 61.3149 101.703 61.0483 101.57 60.7818C101.303 60.3819 101.037 60.0153 100.77 59.6821C100.504 59.3488 100.237 59.0156 99.9705 58.6824C99.7039 58.4824 99.4706 58.2825 99.2707 58.0826C99.0041 57.8826 98.7042 57.6827 98.371 57.4827C97.9711 57.2161 97.5046 56.9829 96.9714 56.7829C96.4382 56.583 95.905 56.4164 95.3719 56.2831C94.7721 56.1498 94.1722 56.0165 93.5724 55.8832C92.906 55.8166 92.2062 55.7832 91.473 55.7832C90.8732 55.7832 90.2401 55.8166 89.5736 55.8832C88.9738 55.9498 88.3407 56.0165 87.6742 56.0832C86.9411 56.2164 86.2079 56.3497 85.4748 56.483C84.8084 56.683 84.1086 56.8829 83.3754 57.0829C82.3091 57.4161 81.2094 57.7826 80.0764 58.1825C78.9434 58.5824 77.7771 59.0489 76.5775 59.5821C67.6801 63.481 59.3826 68.4794 50.4853 72.6782C48.2193 73.7445 45.8866 74.7776 43.4873 75.7773C42.421 76.1772 41.3546 76.577 40.2883 76.9769C39.1553 77.3102 37.989 77.6434 36.7893 77.9766C35.5897 78.3099 34.3901 78.5764 33.1904 78.7764C32.5239 78.843 31.8575 78.9097 31.191 78.9763C30.5912 79.0763 29.9914 79.0763 29.3915 79.0763C27.5921 79.0763 25.8926 78.7764 24.293 78.2765C23.4933 77.9766 22.8935 77.5767 22.1937 77.2768C21.5939 76.877 20.994 76.3771 20.3942 75.7773C19.3945 74.7776 18.4948 73.5779 17.9949 72.1783C16.9952 69.7791 16.8952 67.0799 17.2951 64.4806C17.2951 64.2141 17.3285 63.9142 17.3951 63.5809C17.4951 63.281 17.5951 62.8811 17.5951 62.5812C17.795 61.9814 17.9949 61.2816 18.1949 60.6818C18.2615 60.4152 18.3282 60.1486 18.3948 59.882C18.5281 59.6154 18.6281 59.3488 18.6947 59.0823C18.9613 58.4824 19.2279 57.8493 19.4945 57.1828C19.7611 56.6496 19.9943 56.0831 20.1943 55.4833C20.5275 54.8835 20.8608 54.2504 21.194 53.5839C23.5933 49.0852 26.4924 44.8865 29.5915 40.8877C32.6906 36.8889 36.0896 33.2899 39.6885 29.791C43.2874 26.1921 47.1862 22.893 51.285 19.794C59.2826 13.8957 67.6801 8.39736 76.8774 4.59849C78.077 4.09864 79.1767 3.59878 80.3763 3.1989C81.576 2.79902 82.7756 2.43247 83.9753 2.09924C86.2746 1.49942 88.4739 0.999557 90.7732 0.699646C93.1059 0.366412 95.4052 0.166481 97.6712 0.099834C100.17 -0.000136236 102.57 0.199792 104.969 0.399732C107.435 0.66632 109.868 1.03288 112.267 1.49941C114.866 1.99926 117.365 2.59909 119.865 3.29888C124.363 4.39855 128.762 5.59819 133.361 6.49792C134.627 6.69786 135.926 6.89781 137.259 7.09775C139.059 7.29769 140.858 7.49763 142.658 7.5976C144.657 7.73089 146.657 7.79754 148.656 7.79754C150.922 7.73089 153.155 7.63092 155.354 7.49762C157.553 7.39765 159.753 7.19771 161.952 6.99777C164.351 6.79783 166.851 6.49792 169.25 6.49792C171.449 6.43128 173.649 6.4646 175.848 6.5979C178.047 6.79784 180.247 7.19771 182.446 7.69756C184.745 8.19741 187.045 8.99717 189.244 9.8969C191.51 10.83 193.709 11.9296 195.842 13.1959C196.842 13.8624 197.841 14.5622 198.841 15.2953C199.907 16.0284 200.94 16.7949 201.94 17.5946C203.74 19.0942 205.439 20.6937 207.139 22.3932C208.838 24.0927 210.338 25.8921 211.837 27.6916C213.37 29.5577 214.803 31.4905 216.136 33.4899C217.402 35.4226 218.635 37.422 219.835 39.4881C220.935 41.4875 222.034 43.5869 222.934 45.6862C223.467 46.6859 223.9 47.719 224.233 48.7853C224.533 49.885 224.933 50.9847 225.033 52.0843Z" fill="url(#paint0_linear_1_1145)"/>
<path fill-rule="evenodd" clip-rule="evenodd" d="M256.924 116.866C257.024 120.964 256.924 125.063 256.424 129.062C256.157 130.995 255.824 132.894 255.424 134.76C255.024 136.56 254.558 138.359 254.025 140.159C253.425 142.058 252.825 143.957 252.125 145.757C251.425 147.556 250.726 149.356 249.926 151.055C249.126 152.788 248.293 154.488 247.427 156.154C246.527 157.853 245.527 159.453 244.527 161.052C241.428 165.851 237.729 170.35 233.231 173.849V173.949C233.164 173.949 233.097 173.982 233.031 174.048C231.698 175.048 230.332 175.948 228.932 176.748C228.199 177.148 227.433 177.514 226.633 177.847C225.9 178.181 225.1 178.447 224.233 178.647C223.434 178.847 222.634 178.947 221.834 179.047C221.101 179.114 220.335 179.18 219.535 179.247C218.035 179.347 216.536 179.447 215.036 179.647C214.37 179.713 213.737 179.847 213.137 180.047C212.804 180.113 212.504 180.213 212.237 180.347C212.104 180.413 211.937 180.48 211.737 180.547C211.737 180.547 211.704 180.58 211.637 180.647C211.571 180.647 211.537 180.68 211.537 180.746C211.537 180.746 211.504 180.78 211.437 180.846C211.437 180.913 211.437 180.98 211.437 181.046C211.437 181.046 211.404 181.08 211.337 181.146C211.404 181.213 211.437 181.246 211.437 181.246C211.437 181.313 211.437 181.346 211.437 181.346C211.437 181.346 211.437 181.38 211.437 181.446C211.437 181.446 211.471 181.48 211.537 181.546C211.604 181.546 211.637 181.58 211.637 181.646C211.771 181.78 211.904 181.879 212.037 181.946C212.237 182.079 212.404 182.213 212.537 182.346C213.003 182.613 213.437 182.813 213.837 182.946C214.436 183.212 215.036 183.446 215.636 183.646C216.303 183.846 216.969 184.046 217.635 184.245C219.102 184.645 220.635 185.012 222.234 185.345C223.967 185.678 225.7 185.978 227.433 186.245C229.032 186.545 230.632 186.745 232.331 186.945C233.264 187.078 234.197 187.311 235.13 187.644C236.03 187.844 236.93 188.344 237.63 189.044C238.029 189.444 238.329 189.91 238.529 190.444C238.729 190.977 238.862 191.477 238.929 191.943C238.929 192.343 238.929 192.743 238.829 193.143C238.763 193.543 238.696 193.943 238.629 194.342C238.429 194.942 238.129 195.542 237.929 196.142C237.596 196.808 237.23 197.442 236.83 198.041C236.163 199.241 235.43 200.374 234.63 201.44C233.831 202.74 232.931 203.94 232.131 204.939C230.998 206.339 229.832 207.738 228.632 209.138C227.433 210.538 226.2 211.904 224.933 213.237C222.334 216.036 219.535 218.735 216.736 221.234C213.837 223.634 210.937 225.933 207.838 227.932C206.172 228.999 204.473 229.899 202.74 230.632C201.873 231.032 200.94 231.365 199.941 231.631C199.474 231.765 199.008 231.865 198.541 231.931C198.075 231.998 197.575 232.065 197.042 232.131C196.042 232.231 195.042 232.131 194.042 232.031C193.543 231.931 193.143 231.831 192.643 231.631C192.143 231.531 191.743 231.331 191.343 231.132C190.444 230.732 189.644 230.232 188.944 229.632C188.278 229.099 187.678 228.532 187.145 227.932C186.545 227.233 186.045 226.533 185.545 225.833C185.012 224.967 184.512 224.067 184.045 223.134C183.346 221.634 182.646 220.035 181.946 218.435C181.28 217.036 180.646 215.636 180.047 214.237C179.347 212.737 178.647 211.337 177.847 209.938C177.314 209.071 176.748 208.238 176.148 207.439C175.881 207.105 175.615 206.805 175.348 206.539C175.215 206.406 175.048 206.272 174.848 206.139C174.782 206.072 174.682 206.006 174.548 205.939C174.482 205.872 174.415 205.806 174.348 205.739C174.282 205.739 174.248 205.739 174.248 205.739C174.182 205.739 174.148 205.739 174.148 205.739C174.082 205.806 174.048 205.839 174.048 205.839C173.982 205.906 173.948 205.972 173.948 206.039C173.882 206.172 173.849 206.306 173.849 206.439C173.782 206.572 173.749 206.739 173.749 206.939C173.682 207.339 173.649 207.738 173.649 208.138C173.649 208.938 173.715 209.705 173.849 210.438C174.115 212.237 174.448 214.003 174.848 215.736C175.048 216.669 175.281 217.602 175.548 218.535C175.815 219.468 176.081 220.401 176.348 221.334C177.347 224.933 178.447 228.632 178.847 232.331C178.914 233.264 178.914 234.164 178.847 235.03C178.847 235.963 178.78 236.863 178.647 237.73C178.447 238.663 178.181 239.562 177.847 240.429C177.547 241.428 177.048 242.328 176.548 243.228C176.014 244.094 175.381 244.894 174.648 245.627C174.048 246.294 173.349 246.927 172.549 247.527C171.816 248.126 171.016 248.693 170.15 249.226C169.35 249.726 168.55 250.226 167.65 250.626C166.717 251.026 165.784 251.425 164.851 251.825C163.918 252.159 162.985 252.458 162.052 252.725C160.253 253.258 158.42 253.725 156.554 254.125C152.688 254.858 148.789 255.324 144.857 255.524C142.591 255.724 140.358 255.824 138.159 255.824C136.493 255.757 134.827 255.724 133.161 255.724C131.228 255.658 129.295 255.558 127.362 255.424C126.429 255.358 125.53 255.258 124.663 255.124C123.663 254.991 122.697 254.824 121.764 254.625C120.864 254.425 119.865 254.225 118.965 254.025C118.498 253.825 118.032 253.658 117.565 253.525C117.065 253.325 116.566 253.125 116.066 252.825C115.199 252.425 114.366 251.925 113.566 251.325C113.167 250.992 112.767 250.626 112.367 250.226C111.867 249.826 111.567 249.226 111.167 248.726C110.901 248.193 110.667 247.66 110.467 247.127C110.167 246.427 110.067 245.727 109.968 245.027C109.968 244.228 110.068 243.528 110.167 242.728C110.167 242.328 110.367 241.828 110.467 241.428C110.667 240.529 111.067 239.729 111.467 239.029C112.167 237.53 113.167 236.13 114.066 234.83C116.266 231.931 118.465 229.132 120.664 226.333C120.664 226.333 120.664 226.3 120.664 226.233C120.731 226.166 120.764 226.133 120.764 226.133C122.164 224.334 123.463 222.534 124.763 220.735C126.029 218.802 127.262 216.869 128.462 214.936C130.461 211.337 132.261 207.638 133.86 203.84C134.96 201.04 136.06 198.341 136.959 195.542C137.959 192.61 138.859 189.677 139.659 186.745C140.658 182.946 141.525 179.114 142.258 175.248C143.058 171.549 143.658 167.75 144.157 163.952C144.157 163.685 144.191 163.418 144.257 163.152C144.257 162.685 144.257 162.219 144.257 161.752C144.391 157.82 144.424 153.921 144.357 150.056C144.357 147.923 144.324 145.79 144.257 143.658C144.157 141.558 144.057 139.359 143.957 137.259C143.824 135.127 143.691 132.994 143.557 130.861C143.491 129.728 143.424 128.595 143.358 127.462C143.358 126.663 143.358 125.83 143.358 124.963C143.058 122.464 142.758 119.965 142.658 117.465C142.591 115.799 142.591 114.1 142.658 112.367C142.724 110.701 142.891 109.001 143.158 107.268C143.291 106.335 143.458 105.402 143.658 104.469C143.924 103.603 144.191 102.703 144.457 101.77C145.124 99.9706 145.857 98.2377 146.657 96.5716C147.523 94.9054 148.423 93.3059 149.356 91.773C150.455 90.1735 151.555 88.574 152.755 87.0744C153.954 85.6748 155.154 84.3752 156.454 83.0756C157.753 81.776 159.153 80.6763 160.652 79.4767C162.152 78.377 163.752 77.3773 165.351 76.4776C166.217 76.011 167.117 75.6112 168.05 75.2779C168.95 74.978 169.95 74.6781 170.949 74.5781C171.849 74.4782 172.849 74.4782 173.749 74.5781C174.748 74.7781 175.748 75.078 176.548 75.5778C177.347 76.0444 177.981 76.6775 178.447 77.4773C178.714 77.8771 178.947 78.3437 179.147 78.8768C179.447 79.6766 179.647 80.6763 179.747 81.576C180.013 83.3089 180.113 85.0417 180.047 86.7745C180.047 87.7075 180.013 88.6406 179.947 89.5737C179.947 89.8402 179.947 90.0735 179.947 90.2735C180.613 89.6736 181.313 89.0738 182.046 88.474C183.446 87.341 184.879 86.208 186.345 85.075C189.244 82.7757 192.343 80.5763 195.542 78.5769C197.208 77.5772 198.908 76.6108 200.641 75.6778C202.44 74.7447 204.306 73.9117 206.239 73.1785C208.105 72.4454 210.004 71.8123 211.937 71.2791C213.737 70.7793 215.636 70.4793 217.535 70.2794C219.535 69.9795 221.434 69.9795 223.434 69.9795C224.433 69.9795 225.4 70.0461 226.333 70.1794C227.266 70.3127 228.166 70.446 229.032 70.5793C229.932 70.7793 230.932 70.9792 231.831 71.2791C232.298 71.479 232.798 71.6457 233.331 71.779C233.797 71.9789 234.297 72.1788 234.83 72.3788C236.63 73.1785 238.329 74.0783 239.929 75.1779C241.528 76.3776 243.028 77.6772 244.427 79.0768C245.727 80.4764 247.027 82.0759 248.126 83.6754C250.226 86.8745 251.925 90.3734 253.125 94.0723C254.425 97.7712 255.324 101.57 255.924 105.369C256.524 109.168 256.857 113 256.924 116.866ZM222.734 128.862C222.734 128.462 222.734 128.062 222.734 127.662C222.734 127.129 222.701 126.596 222.634 126.063C222.567 125.73 222.534 125.43 222.534 125.163C222.467 124.83 222.367 124.497 222.234 124.163C222.167 123.897 222.067 123.63 221.934 123.364C221.868 123.097 221.768 122.864 221.634 122.664C221.501 122.397 221.334 122.164 221.134 121.964C221.068 121.831 220.934 121.697 220.735 121.564C220.668 121.431 220.568 121.331 220.435 121.264C220.301 121.198 220.201 121.131 220.135 121.064C220.001 120.998 219.868 120.931 219.735 120.864C219.668 120.798 219.568 120.764 219.435 120.764C219.368 120.764 219.302 120.731 219.235 120.664C219.102 120.664 218.968 120.664 218.835 120.664C218.702 120.664 218.569 120.698 218.435 120.764C218.235 120.764 218.035 120.798 217.835 120.864C217.569 120.931 217.336 120.998 217.136 121.064C216.936 121.198 216.736 121.298 216.536 121.364C216.203 121.564 215.869 121.797 215.536 122.064C215.269 122.264 215.036 122.464 214.836 122.664C214.57 122.864 214.303 123.097 214.036 123.364C213.637 123.763 213.27 124.163 212.937 124.563C212.604 124.963 212.27 125.363 211.937 125.763C211.471 126.429 211.037 127.096 210.638 127.762C210.238 128.362 209.838 128.995 209.438 129.662C207.139 133.661 205.139 137.859 203.24 142.058C201.14 146.357 199.041 150.556 196.542 154.654C195.409 156.654 194.176 158.62 192.843 160.553C191.577 162.485 190.244 164.418 188.844 166.351C187.944 167.55 186.945 168.75 186.045 169.95C185.945 170.15 185.745 170.35 185.745 170.45C185.612 170.583 185.512 170.716 185.445 170.849C184.145 172.449 182.946 174.048 181.846 175.748C181.646 176.081 181.48 176.448 181.346 176.848C181.28 176.981 181.246 177.081 181.246 177.148C181.18 177.214 181.146 177.314 181.146 177.447C181.146 177.514 181.146 177.547 181.146 177.547C181.213 177.547 181.246 177.581 181.246 177.647C181.313 177.647 181.346 177.647 181.346 177.647C181.413 177.647 181.48 177.647 181.546 177.647C181.679 177.714 181.846 177.747 182.046 177.747C182.246 177.747 182.446 177.714 182.646 177.647C182.912 177.581 183.179 177.514 183.446 177.447C184.245 177.248 185.045 176.981 185.845 176.648C186.045 176.581 186.212 176.514 186.345 176.448C186.478 176.381 186.611 176.314 186.745 176.248C187.544 175.781 188.311 175.281 189.044 174.748C189.844 174.282 190.61 173.782 191.343 173.249C192.843 172.149 194.242 171.149 195.642 170.05C197.042 168.917 198.375 167.784 199.641 166.651C200.974 165.518 202.273 164.318 203.54 163.052C204.806 161.785 206.039 160.453 207.239 159.053C207.838 158.386 208.438 157.72 209.038 157.054C209.638 156.254 210.238 155.487 210.838 154.754C211.237 154.154 211.671 153.555 212.137 152.955C212.604 152.288 213.07 151.622 213.537 150.955C214.436 149.656 215.236 148.356 216.036 146.957C216.302 146.557 216.536 146.19 216.736 145.857C217.336 144.791 217.869 143.758 218.335 142.758C218.868 141.691 219.402 140.592 219.935 139.459C220.268 138.592 220.601 137.693 220.934 136.76C221.268 135.827 221.568 134.86 221.834 133.86C221.968 133.194 222.101 132.561 222.234 131.961C222.367 131.295 222.501 130.661 222.634 130.062C222.634 129.662 222.667 129.262 222.734 128.862Z" fill="url(#paint1_linear_1_1145)"/>
<defs>
<linearGradient id="paint0_linear_1_1145" x1="131.67" y1="-110.219" x2="434.961" y2="193.071" gradientUnits="userSpaceOnUse">
<stop stop-color="#B4E364"/>
<stop offset="1" stop-color="#59D9A9"/>
</linearGradient>
<linearGradient id="paint1_linear_1_1145" x1="72.8646" y1="-158.107" x2="366.53" y2="135.559" gradientUnits="userSpaceOnUse">
<stop stop-color="#B4E364"/>
<stop offset="1" stop-color="#59D9A9"/>
</linearGradient>
</defs>
</svg>
