<svg width="257" height="208" viewBox="0 0 257 208" fill="none" xmlns="http://www.w3.org/2000/svg">
<path fill-rule="evenodd" clip-rule="evenodd" d="M256.5 66.6575V189.554C256.5 191.575 255.385 193.318 253.574 194.224L229.054 206.493C228.288 206.911 227.522 207.051 226.686 207.051C225.78 207.051 224.805 206.842 223.969 206.284C222.436 205.378 221.461 203.635 221.461 201.823V82.2025L128.465 35.7068L35.4693 82.2025V193.388L49.6102 186.347V91.2646C49.6102 89.3128 50.7248 87.5004 52.4663 86.5941L126.166 49.7182C127.629 49.0211 129.371 49.0211 130.834 49.7182L204.464 86.5941C206.275 87.5004 207.39 89.3128 207.39 91.2646V165.016C207.39 166.968 206.275 168.781 204.464 169.687L179.944 181.956C178.342 182.792 176.391 182.653 174.859 181.747C173.326 180.771 172.351 179.098 172.351 177.285V106.81L128.465 84.8514L84.5795 106.81V168.781L98.7204 161.74V115.872C98.7204 113.85 99.835 112.038 101.576 111.132L126.166 98.8629C127.629 98.1658 129.371 98.1658 130.834 98.8629L155.354 111.132C155.4 111.178 155.424 111.201 155.424 111.201C155.609 111.294 155.795 111.41 155.981 111.55C156.167 111.689 156.352 111.829 156.538 111.968C156.585 111.968 156.608 111.991 156.608 112.038C156.747 112.177 156.886 112.317 157.026 112.456C157.026 112.503 157.049 112.526 157.095 112.526C157.235 112.712 157.351 112.898 157.444 113.083C157.49 113.13 157.513 113.153 157.513 113.153C157.606 113.293 157.676 113.409 157.722 113.502C157.722 113.548 157.746 113.595 157.792 113.641C157.792 113.688 157.815 113.757 157.862 113.85C157.908 113.99 157.955 114.152 158.001 114.338C158.047 114.338 158.071 114.361 158.071 114.408C158.117 114.64 158.163 114.873 158.21 115.105C158.21 115.105 158.21 115.128 158.21 115.175C158.256 115.361 158.28 115.546 158.28 115.732C158.28 115.779 158.28 115.825 158.28 115.872V140.409C158.28 142.361 157.165 144.174 155.354 145.08L130.834 157.348C129.162 158.185 127.281 158.115 125.748 157.139C124.216 156.163 123.241 154.49 123.241 152.678V128.141C123.241 128.094 123.241 128.071 123.241 128.071C123.241 127.978 123.241 127.862 123.241 127.722C123.287 127.676 123.31 127.606 123.31 127.513C123.31 127.42 123.31 127.327 123.31 127.234C123.357 127.188 123.38 127.118 123.38 127.025C123.38 126.932 123.403 126.863 123.45 126.816C123.45 126.723 123.473 126.63 123.519 126.537C123.519 126.444 123.543 126.375 123.589 126.328C123.635 126.235 123.659 126.142 123.659 126.049C123.705 126.003 123.752 125.933 123.798 125.84C123.844 125.747 123.891 125.654 123.937 125.561C123.937 125.515 123.96 125.445 124.007 125.352C124.053 125.306 124.1 125.236 124.146 125.143C124.239 125.097 124.309 125.027 124.355 124.934C124.402 124.887 124.448 124.841 124.495 124.795C124.541 124.702 124.611 124.609 124.704 124.516C124.75 124.469 124.796 124.423 124.843 124.376C124.889 124.33 124.959 124.26 125.052 124.167C125.098 124.121 125.145 124.074 125.191 124.028C125.284 123.981 125.354 123.935 125.4 123.888C125.493 123.842 125.563 123.795 125.609 123.749C125.656 123.702 125.725 123.656 125.818 123.609C125.911 123.563 126.004 123.517 126.097 123.47C126.097 123.47 126.12 123.47 126.166 123.47L141.352 115.872L128.465 109.389L109.169 119.078V165.016C109.169 166.968 108.055 168.781 106.244 169.687L81.7234 181.956C80.0516 182.792 78.1707 182.653 76.6382 181.747C75.1057 180.771 74.1305 179.098 74.1305 177.285V103.533C74.1305 101.582 75.245 99.7691 77.0562 98.8629L126.166 74.3254C127.629 73.5586 129.371 73.5586 130.834 74.3254L179.944 98.8629C181.685 99.7691 182.8 101.582 182.8 103.533V168.781L196.941 161.74V94.4712L128.465 60.2442L60.0592 94.4712V189.554C60.0592 191.575 58.9446 193.318 57.1335 194.224L32.6132 206.493C32.5668 206.54 32.5203 206.563 32.4739 206.563C32.381 206.609 32.2649 206.656 32.1256 206.702C32.0327 206.749 31.9166 206.795 31.7773 206.842C31.6844 206.888 31.5915 206.911 31.4986 206.911C31.3593 206.958 31.2432 206.981 31.1503 206.981C31.011 207.028 30.8949 207.051 30.802 207.051C30.7092 207.051 30.5931 207.051 30.4537 207.051C30.4073 207.051 30.3377 207.051 30.2448 207.051C30.1983 207.051 30.1519 207.051 30.1054 207.051C30.0126 207.051 29.9429 207.051 29.8965 207.051C29.7572 207.051 29.6178 207.028 29.4785 206.981C29.3856 206.981 29.316 206.981 29.2695 206.981C29.1302 206.935 28.9909 206.911 28.8516 206.911C28.7587 206.865 28.689 206.842 28.6426 206.842C28.5033 206.795 28.3872 206.749 28.2943 206.702C28.2014 206.656 28.1085 206.609 28.0156 206.563C27.9692 206.563 27.946 206.54 27.946 206.493L3.35606 194.224C1.61456 193.318 0.5 191.575 0.5 189.554V66.6575C0.5 66.6575 0.5 66.6342 0.5 66.5877C0.5 66.4948 0.5 66.4019 0.5 66.3089C0.5 66.216 0.5 66.1462 0.5 66.0998C0.5 66.0068 0.523224 65.9139 0.569664 65.8209C0.569664 65.728 0.569664 65.6351 0.569664 65.5421C0.616104 65.4956 0.639318 65.4259 0.639318 65.333C0.685758 65.24 0.708982 65.1471 0.708982 65.0541C0.755422 65.0077 0.778635 64.9612 0.778635 64.9147C0.825075 64.8218 0.871524 64.7056 0.917963 64.5662C0.917963 64.5197 0.941177 64.4732 0.987617 64.4268C1.03406 64.3338 1.08049 64.2409 1.12693 64.1479C1.17337 64.1015 1.21982 64.0318 1.26626 63.9388C1.3127 63.8923 1.35914 63.8226 1.40558 63.7297C1.45202 63.6367 1.49846 63.567 1.5449 63.5206C1.59134 63.4276 1.63778 63.3579 1.68422 63.3114C1.73066 63.2649 1.80032 63.1952 1.8932 63.1023C1.93964 63.0558 1.98607 63.0093 2.03251 62.9629C2.07895 62.9164 2.14862 62.8467 2.2415 62.7538C2.28794 62.7073 2.33437 62.6608 2.38081 62.6143C2.47369 62.5679 2.54336 62.5214 2.5898 62.4749C2.68268 62.4285 2.77555 62.382 2.86843 62.3355C2.91487 62.289 2.96132 62.2426 3.00776 62.1961C3.10064 62.1496 3.19351 62.1031 3.28639 62.0567C3.33283 62.0567 3.35606 62.0334 3.35606 61.987L126.166 0.573597C127.629 -0.123491 129.371 -0.123491 130.834 0.573597L253.574 61.987C255.385 62.8932 256.5 64.7056 256.5 66.6575ZM246.051 69.9337L128.465 11.0996L10.949 69.9337V186.347L25.0203 193.388V78.9959C25.0203 76.9743 26.1348 75.1619 27.946 74.3254L126.166 25.1808C127.629 24.414 129.371 24.414 130.834 25.1808L229.054 74.3254C230.795 75.1619 231.91 76.9743 231.91 78.9959V193.388L246.051 186.347V69.9337ZM147.831 137.203V124.307L133.69 131.347V144.243L147.831 137.203Z" fill="#F15A29"/>
</svg>
