<svg width="212" height="257" viewBox="0 0 212 257" fill="none" xmlns="http://www.w3.org/2000/svg">
<path d="M186.474 200.699C186.474 204.199 183.698 206.975 180.198 206.975C176.818 206.975 174.042 204.199 174.042 200.699C174.042 197.319 176.818 194.543 180.198 194.543C183.698 194.543 186.474 197.319 186.474 200.699Z" fill="#0BCFCF"/>
<path d="M211.458 138.179C211.458 141.679 208.682 144.455 205.182 144.455C201.802 144.455 199.026 141.679 199.026 138.179C199.026 134.799 201.802 132.023 205.182 132.023C208.682 132.023 211.458 134.799 211.458 138.179Z" fill="#0BCFCF"/>
<path d="M62.6384 249.824C62.6384 253.324 59.8623 256.1 56.4828 256.1C52.9826 256.1 50.2065 253.324 50.2065 249.824C50.2065 246.444 52.9826 243.668 56.4828 243.668C59.8623 243.668 62.6384 246.444 62.6384 249.824Z" fill="#0BCFCF"/>
<path d="M87.6226 213.13C87.6226 216.63 84.7259 219.406 81.3464 219.406C77.9668 219.406 75.1908 216.63 75.1908 213.13C75.1908 209.751 77.9668 206.975 81.3464 206.975C84.7259 206.975 87.6226 209.751 87.6226 213.13Z" fill="#0BCFCF"/>
<path d="M37.7747 186.577C37.7747 190.078 34.9987 192.854 31.6191 192.854C28.1189 192.854 25.3429 190.078 25.3429 186.577C25.3429 183.198 28.1189 180.422 31.6191 180.422C34.9987 180.422 37.7747 183.198 37.7747 186.577Z" fill="#0BCFCF"/>
<path d="M112.245 237.39C112.245 240.769 109.469 243.666 105.969 243.666C102.589 243.666 99.8131 240.769 99.8131 237.39C99.8131 234.01 102.589 231.234 105.969 231.234C109.469 231.234 112.245 234.01 112.245 237.39Z" fill="#0BCFCF"/>
<path d="M136.988 214.095C136.988 217.474 134.212 220.25 130.712 220.25C127.332 220.25 124.556 217.474 124.556 214.095C124.556 210.594 127.332 207.818 130.712 207.818C134.212 207.818 136.988 210.594 136.988 214.095Z" fill="#0BCFCF"/>
<path d="M161.49 168.714C161.49 172.093 158.714 174.869 155.334 174.869C151.834 174.869 149.058 172.093 149.058 168.714C149.058 165.214 151.834 162.438 155.334 162.438C158.714 162.438 161.49 165.214 161.49 168.714Z" fill="#0BCFCF"/>
<path fill-rule="evenodd" clip-rule="evenodd" d="M211.458 69.1385V116.452C211.458 119.831 208.682 122.607 205.182 122.607C201.802 122.607 199.026 119.831 199.026 116.452L198.906 97.3816C198.906 93.8814 196.13 91.1054 192.75 91.1054C189.25 91.1054 186.474 93.8814 186.474 97.3816C186.474 97.7437 186.595 160.627 186.595 180.783C186.595 184.163 183.819 186.818 180.439 186.818C177.059 186.818 174.283 184.042 174.283 180.663C174.283 166.783 174.404 134.436 174.404 134.194C174.404 130.694 171.507 127.918 168.128 127.918C164.748 127.918 161.972 130.694 161.972 133.953H161.852V150.851C161.852 154.23 159.076 157.006 155.575 157.006C152.196 157.006 149.42 154.23 149.42 150.851L149.299 122.004C148.816 119.107 146.282 116.814 143.144 116.814C139.764 116.814 136.988 119.59 136.988 122.969C136.988 123.332 136.988 172.455 136.988 195.629C136.988 199.13 134.212 201.906 130.832 201.906C127.453 201.906 124.677 199.13 124.677 195.75C124.677 179.818 124.677 169.921 124.677 169.679C124.677 166.3 121.901 163.524 118.401 163.524C112.245 163.524 112.245 169.679 112.245 169.679V217.958C112.245 221.459 109.469 224.235 105.969 224.235C102.589 224.235 99.8132 221.338 99.8132 217.958C99.8132 195.026 99.8132 148.075 99.8132 148.075C99.8132 144.574 97.0372 141.798 93.6576 141.798C90.1574 141.798 87.3813 144.574 87.3813 148.075C87.3813 148.195 87.3813 179.335 87.3813 192.974C87.3813 196.474 84.6053 199.25 81.2258 199.25C77.8463 199.25 75.0702 196.474 75.0702 193.095C75.0702 174.749 75.0702 122.004 75.0702 121.763C75.0702 118.262 72.2942 115.486 68.9147 115.486C65.4144 115.486 62.6384 118.262 62.6384 121.763C62.6384 121.763 62.6384 207.096 62.6384 230.994C62.6384 234.494 59.8623 237.27 56.3621 237.27C52.9826 237.27 50.2066 234.494 50.2066 230.994C50.2066 208.182 50.3273 130.332 50.3273 130.211C50.3273 126.711 47.4305 123.935 44.051 123.935C40.9129 123.935 37.8954 126.108 37.8954 131.78C37.8954 142.402 37.7747 167.869 37.7747 167.869C37.7747 171.369 34.9987 174.145 31.6192 174.145C28.2396 174.145 25.4636 171.369 25.4636 167.869C25.4636 167.869 25.4636 119.469 25.4636 102.813C25.4636 98.9507 25.5843 93.3986 19.1874 93.2779C15.8078 93.2779 13.0318 95.3298 13.0318 99.6749C13.0318 100.278 13.0318 145.178 13.0318 145.178C13.0318 148.678 10.2558 151.454 6.75555 151.454C3.37602 151.454 0.599976 148.678 0.599976 145.178V68.4143C0.599976 57.1894 5.18646 51.7581 6.99692 49.3441C19.308 32.4465 50.0859 0.0996094 105.969 0.0996094C160.403 0.0996094 194.802 36.7916 206.751 51.9995C207.596 52.965 211.458 58.2757 211.458 69.1385ZM142.902 62.7415C142.902 42.3437 126.367 25.9288 105.969 25.9288C85.6916 25.9288 69.156 42.3437 69.156 62.7415C69.156 83.1394 85.6916 99.6749 105.969 99.6749C126.367 99.6749 142.902 83.1394 142.902 62.7415Z" fill="#0BCFCF"/>
<path d="M122.263 62.7418C122.263 71.6734 115.021 78.9152 105.969 78.9152C97.0371 78.9152 89.7953 71.6734 89.7953 62.7418C89.7953 53.8102 97.0371 46.5684 105.969 46.5684C115.021 46.5684 122.263 53.8102 122.263 62.7418Z" fill="#0BCFCF"/>
</svg>
