<svg width="178" height="257" viewBox="0 0 178 257" fill="none" xmlns="http://www.w3.org/2000/svg">
<path fill-rule="evenodd" clip-rule="evenodd" d="M70.2078 21.0231C102.849 48.3234 130.844 87.9273 153.277 124.287C127.788 93.4976 89.2179 51.9349 54.5597 32.3472C50.4032 37.8562 47.5303 44.161 47.5303 52.3022C47.5303 109.045 176.566 117.737 176.566 187.396C176.566 268.379 53.3983 268.501 13.3612 235.08C-2.22581 222.103 1.19722 229.999 1.19722 64.1772C3.94786 63.6875 -1.92019 38.8356 25.2806 18.2686C68.8631 -14.7245 176.566 -0.951873 176.566 44.2223C176.566 348.26 197.715 -28.3747 70.2078 21.0231ZM112.14 233.427C92.8854 214.329 76.9316 186.539 64.9511 162.177C79.2544 183.234 100.587 211.146 121.37 225.837C134.39 211.881 132.189 191.069 121.064 178.582C104.927 160.463 82.7997 152.261 47.7137 129.612C42.8236 179.01 62.0782 259.503 112.14 233.427Z" fill="#74992E"/>
</svg>
