<svg width="251" height="257" viewBox="0 0 251 257" fill="none" xmlns="http://www.w3.org/2000/svg">
<path d="M71.0131 243.188C70.6613 243.117 70.3446 243.047 70.0631 242.976C69.5 242.836 69.0074 242.66 68.5851 242.449C68.0221 242.167 67.4591 241.886 66.896 241.604C64.8903 240.548 62.9901 239.387 60.9843 238.12C58.9433 236.854 56.9376 235.516 54.967 234.109C50.9554 231.223 47.1198 228.127 43.4602 224.819C41.7007 223.13 39.9413 221.406 38.1818 219.646C36.4928 217.957 34.8389 216.162 33.2202 214.262C29.9828 210.532 26.9565 206.661 24.1414 202.65C21.2559 198.568 18.5464 194.38 16.0128 190.087C13.4792 185.759 11.2622 181.22 9.36202 176.469C8.37673 174.217 7.46181 171.895 6.61728 169.502C5.77274 167.179 4.9986 164.822 4.29482 162.429C3.59104 160.106 2.99281 157.784 2.50017 155.461C1.93714 152.998 1.4797 150.57 1.12781 148.177C0.81111 145.749 0.599976 143.321 0.599976 140.893C0.599976 139.697 0.670334 138.5 0.81109 137.304C0.951846 136.178 1.16299 135.087 1.4445 134.031C1.51488 133.609 1.62046 133.187 1.76122 132.764C1.8316 132.694 1.86676 132.624 1.86676 132.553C1.86676 132.553 1.90196 132.518 1.97233 132.448C1.97233 132.448 1.97233 132.413 1.97233 132.342C1.97233 132.342 1.97233 132.307 1.97233 132.237C2.18347 131.674 2.4298 131.146 2.71132 130.653C3.20396 129.527 3.76699 128.471 4.40039 127.486C5.3505 126.114 6.30059 124.741 7.35626 123.369C8.34155 122.102 9.29167 120.835 10.2066 119.569C11.1919 118.161 12.1068 116.718 12.9513 115.24C13.8662 113.692 14.7459 112.109 15.5905 110.49C16.435 108.801 17.2444 107.077 18.0185 105.317C18.7927 103.417 19.5317 101.481 20.2354 99.5109C21.0096 97.1884 21.7485 94.866 22.4523 92.5435C23.0857 90.0099 23.684 87.5115 24.247 85.0482C25.1971 80.1921 26.0416 75.3361 26.675 70.48C27.3084 65.5183 27.9418 60.5567 28.5752 55.7006C28.8919 53.3781 29.103 50.9501 29.842 48.7332C30.6866 46.4107 32.0589 44.2994 33.5369 42.2936C34.1703 41.3787 34.874 40.499 35.6482 39.6544C36.4224 38.8099 37.2669 37.9653 38.1818 37.1208C39.8709 35.5021 41.5952 33.9538 43.3546 32.4759C47.155 29.4144 50.9554 26.4585 54.8614 23.7138C56.9024 22.3062 58.9785 20.9691 61.0899 19.7022C63.2012 18.3651 65.3477 17.0983 67.5294 15.9018C69.7112 14.7054 71.9281 13.5794 74.1802 12.5237C76.3971 11.468 78.7196 10.5179 80.9365 9.56783C82.1329 9.14556 83.3293 8.72328 84.5257 8.30101C85.6518 7.94912 86.7778 7.63242 87.9039 7.35091C89.1707 7.03421 90.3319 6.82307 91.5987 6.7175C92.8655 6.61194 94.1323 6.50638 95.3991 6.82308C96.3492 6.92864 97.2993 7.45648 97.9327 8.19545C98.4254 8.6881 98.8125 9.28631 99.094 9.99009C99.4107 10.8346 99.5162 11.8903 99.6218 12.8404C99.7274 14.0016 99.6218 15.1629 99.6218 16.3241C99.5514 17.3798 99.4107 18.4354 99.1995 19.4911C98.8828 21.708 98.4606 23.9249 97.8272 26.1418C97.4049 28.2532 96.7715 30.3645 96.0325 32.4759C95.2584 34.7983 94.449 37.0856 93.6045 39.3377C92.76 41.6602 91.7043 43.8771 90.7542 46.1996C89.6985 48.4517 88.6077 50.6686 87.4816 52.8503C86.4259 55.032 85.3351 57.1785 84.209 59.2899C81.8865 63.5126 79.4585 67.6297 76.8193 71.6412C74.1802 75.6528 71.4354 79.6643 68.7963 83.6759C67.8814 85.013 66.9664 86.3502 66.0515 87.6874C65.207 89.0598 64.3625 90.5377 63.5179 92.0156C63.3068 92.4379 63.1308 92.8954 62.9901 93.388C62.8493 93.5992 62.7789 93.8455 62.7789 94.127C62.8493 94.127 62.9197 94.0918 62.9901 94.0214C63.2012 93.951 63.4123 93.8455 63.6235 93.7047C64.1161 93.3528 64.5736 93.0009 64.9958 92.6491C65.77 92.0157 66.5441 91.3119 67.3183 90.5377C68.0925 89.6228 68.9018 88.7431 69.7464 87.8985C71.7873 85.5761 73.7931 83.1832 75.7637 80.72C77.7342 78.1864 79.6345 75.6176 81.4643 73.0136C83.7164 69.7058 85.8629 66.3981 87.9039 63.0903C90.0152 59.6066 92.021 56.0173 93.9212 52.428C94.9769 50.3167 95.9973 48.1702 96.9826 45.9884C97.8272 43.9827 98.6717 41.8713 99.3051 39.8656C100.361 36.9097 101.241 33.8834 101.944 30.7868C102.367 28.3939 102.754 26.0011 103.106 23.6082C103.317 21.2857 103.528 18.8577 103.739 16.5352C103.844 14.2128 104.161 11.8903 104.689 9.67338C105.006 8.51215 105.428 7.35092 106.167 6.40082C106.871 5.27477 107.786 4.32465 108.912 3.55049C109.404 3.1986 109.932 2.88191 110.495 2.6004C111.129 2.24851 111.797 2.00219 112.501 1.86143C113.486 1.50954 114.472 1.26322 115.457 1.12247C117.568 0.700198 119.68 0.594627 121.791 0.805761C126.436 1.0169 131.081 1.65029 135.62 2.49482C138.013 2.98747 140.371 3.5153 142.693 4.07833C145.016 4.71173 147.338 5.45071 149.555 6.40082C151.772 7.35092 153.778 8.40658 155.572 9.99009C155.995 10.2716 156.382 10.6235 156.734 11.0458C157.156 11.5384 157.543 12.0662 157.895 12.6293C158.176 13.1219 158.423 13.6145 158.634 14.1072C158.775 14.6702 158.88 15.2332 158.95 15.7963C159.091 16.7816 159.126 17.802 159.056 18.8577C158.986 20.0541 158.845 21.2506 158.634 22.447C158.282 24.6287 157.789 26.7752 157.156 28.8866C155.995 33.426 154.517 37.8598 152.933 42.3992C152.792 42.9622 152.616 43.5252 152.405 44.0882C152.194 44.7216 151.948 45.3198 151.666 45.8829C151.244 46.9385 150.822 47.9942 150.4 49.0499C149.485 51.2316 148.499 53.4133 147.444 55.595C145.966 58.6213 144.453 61.6123 142.904 64.5682C142.341 65.6943 141.743 66.7851 141.11 67.8408C140.054 69.8114 138.928 71.7116 137.732 73.5414C135.128 77.7641 132.312 81.846 129.286 85.7872C127.738 87.8282 126.154 89.7636 124.536 91.5934C122.847 93.564 121.087 95.4642 119.257 97.294C117.427 99.0534 115.562 100.778 113.662 102.467C111.762 104.261 109.756 105.95 107.645 107.428C105.745 108.906 103.774 110.279 101.733 111.546C99.7626 112.742 97.7216 113.868 95.6103 114.924C93.5693 115.909 91.4932 116.824 89.3818 117.668C87.3409 118.513 85.2647 119.252 83.1534 119.885C79.2474 121.152 75.2358 122.102 71.2243 123.052C68.4796 123.686 65.7348 124.425 63.0956 125.269C62.1807 125.621 61.2658 125.973 60.3509 126.325C60.0694 126.466 59.7879 126.642 59.5063 126.853C59.3656 126.923 59.26 126.994 59.1897 127.064C59.1193 127.064 59.0841 127.099 59.0841 127.169C59.1545 127.24 59.2249 127.31 59.2952 127.381C59.436 127.451 59.6119 127.557 59.8231 127.697C60.0342 127.768 60.2453 127.873 60.4564 128.014C60.8083 128.084 61.1251 128.155 61.4066 128.225C62.3215 128.366 63.2364 128.471 64.1513 128.542C67.1072 128.753 70.063 128.753 73.1245 128.647C74.3209 128.577 75.5525 128.471 76.8193 128.331C78.2269 128.26 79.6345 128.084 81.042 127.803C83.7868 127.275 86.5315 126.536 89.1707 125.692C92.4433 124.636 95.6103 123.369 98.6717 121.997C100.853 120.941 103 119.815 105.111 118.619C107.223 117.457 109.334 116.296 111.551 115.135C113.662 113.974 115.774 112.918 118.096 112.285C119.257 111.862 120.419 111.651 121.58 111.44C122.143 111.37 122.741 111.37 123.374 111.44C124.008 111.44 124.641 111.44 125.275 111.651C125.838 111.792 126.365 111.968 126.858 112.179C127.492 112.39 128.019 112.812 128.547 113.235C128.829 113.375 129.075 113.551 129.286 113.762C129.497 113.974 129.708 114.185 129.92 114.396C130.236 114.818 130.659 115.24 130.975 115.768C131.327 116.261 131.609 116.754 131.82 117.246C132.101 117.809 132.312 118.372 132.453 118.935C132.875 120.096 133.087 121.363 133.192 122.63C133.298 123.791 133.403 125.058 133.403 126.219C133.474 127.486 133.474 128.718 133.403 129.914C133.403 132.448 133.298 134.876 133.087 137.304C132.805 139.767 132.524 142.195 132.242 144.588C131.89 147.122 131.503 149.655 131.081 152.189C130.588 154.652 130.095 157.115 129.603 159.579C129.075 162.007 128.442 164.435 127.808 166.863C126.436 171.824 124.747 176.68 122.952 181.431C121.122 186.076 119.046 190.615 116.724 195.049C115.598 197.231 114.366 199.377 113.029 201.489C112.395 202.474 111.727 203.424 111.023 204.339C110.319 205.395 109.58 206.45 108.806 207.506C105.745 211.412 102.155 215.001 97.9327 217.429C95.927 218.696 93.6045 219.541 91.282 219.646C89.9097 219.752 88.6428 219.541 87.376 219.118C86.2148 218.802 85.1592 218.168 84.1035 217.324C83.6812 216.972 83.2589 216.55 82.8367 216.057C82.4144 215.564 82.0273 215.072 81.6754 214.579C81.3235 214.086 81.0068 213.594 80.7253 213.101C80.3734 212.538 80.0215 212.01 79.6697 211.517C78.614 209.406 77.5583 207.4 76.6082 205.289C75.0247 201.594 73.3356 198.005 71.7521 194.31C70.0631 190.51 68.374 186.709 66.6849 182.909C64.0458 177.103 61.301 171.402 58.0284 165.913C56.9024 164.083 55.6708 162.358 54.3336 160.74C53.8409 160.177 53.3835 159.684 52.9612 159.262C52.7501 159.051 52.5389 158.875 52.3278 158.734C52.1167 158.593 51.8703 158.452 51.5888 158.312L51.4833 158.206C51.4129 158.206 51.3425 158.206 51.2721 158.206C51.2721 158.206 51.2369 158.206 51.1666 158.206C51.0962 158.277 51.061 158.312 51.061 158.312C50.9906 158.382 50.9554 158.453 50.9554 158.523C50.885 158.593 50.8499 158.628 50.8499 158.628C50.7795 158.699 50.7443 158.769 50.7443 158.84C50.6739 158.98 50.6387 159.121 50.6387 159.262C50.5684 159.614 50.498 159.93 50.4276 160.212C50.4276 160.705 50.4276 161.197 50.4276 161.69C50.498 162.534 50.6035 163.414 50.7443 164.329C51.0962 166.089 51.4833 167.883 51.9055 169.713C52.3278 171.472 52.8205 173.197 53.3835 174.886C54.3336 178.053 55.4948 181.22 56.7616 184.281C58.0284 187.378 59.3304 190.439 60.6676 193.466C62.7086 197.829 64.8199 202.122 67.0016 206.345C68.0573 208.386 69.113 210.462 70.1686 212.573C71.2947 214.896 72.3855 217.218 73.4412 219.541C74.4969 221.863 75.447 224.08 76.2915 226.402C77.136 228.725 77.7694 231.047 78.0861 233.475C78.2973 234.742 78.1917 236.009 78.0861 237.17C78.0158 237.733 77.875 238.296 77.6639 238.859C77.5935 239 77.5583 239.141 77.5583 239.282C77.3472 239.598 77.136 240.021 77.0305 240.337C76.8193 240.654 76.6082 240.865 76.3971 241.182C76.2563 241.323 76.1156 241.463 75.9748 241.604C75.7637 241.745 75.5877 241.886 75.447 242.026C75.1655 242.237 74.884 242.413 74.6025 242.554C74.2857 242.765 73.969 242.871 73.6523 242.976C73.1245 243.188 72.4911 243.188 71.8577 243.188C71.5762 243.188 71.2947 243.188 71.0131 243.188Z" fill="url(#paint0_linear_1_1141)"/>
<path d="M114.823 256.384C114.331 256.384 113.803 256.349 113.24 256.278C112.958 256.208 112.642 256.137 112.29 256.067C112.219 256.067 112.149 256.067 112.079 256.067C112.008 256.067 111.938 256.067 111.868 256.067C111.727 255.997 111.551 255.962 111.34 255.962C111.199 255.962 111.093 255.926 111.023 255.856C109.827 255.645 108.63 255.399 107.434 255.117C106.871 254.906 106.308 254.695 105.745 254.484C105.111 254.202 104.513 253.921 103.95 253.639C102.894 253.076 101.909 252.372 100.994 251.528C100.713 251.317 100.466 251.07 100.255 250.789C100.114 250.578 99.9385 250.331 99.7274 250.05C99.3755 249.557 99.0588 248.994 98.7773 248.361C98.5661 247.798 98.4254 247.27 98.355 246.777C98.1439 246.144 98.1439 245.51 98.0383 244.877C97.9327 243.716 98.0383 242.449 98.1439 241.182C98.355 240.056 98.6365 238.965 98.9884 237.91C99.3051 236.854 99.7274 235.798 100.255 234.743C100.748 233.617 101.276 232.526 101.839 231.47C104.161 227.142 106.695 222.919 109.123 218.696C111.586 214.403 114.014 210.075 116.407 205.712C118.87 201.207 121.263 196.633 123.586 191.988C125.415 188.399 127.14 184.774 128.758 181.115C130.87 176.47 132.77 171.825 134.564 167.074C136.359 162.218 138.048 157.151 139.632 152.189C139.984 150.993 140.335 149.761 140.687 148.494C140.898 147.931 141.074 147.368 141.215 146.805C141.286 146.735 141.321 146.664 141.321 146.594C141.321 146.524 141.321 146.489 141.321 146.489C141.391 146.418 141.426 146.348 141.426 146.277C141.567 145.855 141.673 145.433 141.743 145.011L141.849 144.905C144.734 135.052 147.338 125.129 149.661 115.135C150.294 112.461 150.892 109.786 151.455 107.112C152.581 100.497 153.672 93.881 154.728 87.2655C155.502 82.6205 156.206 77.9404 156.839 73.2251C157.472 68.369 158.106 63.4777 158.739 58.5513C159.267 53.9063 159.901 49.2614 160.534 44.6164C161.097 39.9011 161.59 35.1857 162.012 30.4704C162.223 28.1479 162.434 25.7199 162.751 23.3974C162.962 22.2714 163.173 21.1805 163.384 20.1249C163.595 18.9636 163.912 17.908 164.334 16.8523C164.686 15.9374 165.179 15.0928 165.812 14.3187C166.34 13.7908 166.974 13.1574 167.501 12.7352C168.874 11.6795 170.457 11.0461 172.146 10.6238C176.158 9.67374 180.381 11.2572 183.97 13.1574C185.976 14.2131 187.77 15.4799 189.565 16.7467C191.395 18.0135 193.189 19.3507 194.949 20.7583C196.849 22.3066 198.679 23.9253 200.438 25.6144C201.987 27.0219 203.465 28.535 204.872 30.1537C205.576 30.9279 206.209 31.7724 206.772 32.6873C207.511 33.6374 208.039 34.5875 208.461 35.7488C208.884 36.7341 209.2 37.7897 209.412 38.9158C209.552 39.4788 209.623 40.0418 209.623 40.6049C209.623 41.3086 209.552 42.0124 209.412 42.7162C209.095 45.0387 208.145 47.15 207.195 49.2614C206.702 50.1763 206.209 51.056 205.717 51.9005C205.154 52.8858 204.591 53.8711 204.028 54.8564C201.705 58.868 199.383 62.8795 197.271 66.9966C195.441 70.5859 193.717 74.1752 192.098 77.7644C190.832 80.5796 189.635 83.4651 188.509 86.4209C187.348 89.2712 186.398 92.2271 185.553 95.183C185.061 96.8721 184.603 98.5611 184.181 100.25C183.759 101.869 183.407 103.488 183.125 105.106C182.914 106.303 182.773 107.534 182.703 108.801C182.703 109.223 182.738 109.646 182.809 110.068C183.09 109.786 183.372 109.47 183.653 109.118C184.287 108.273 184.92 107.394 185.553 106.479C186.503 104.79 187.454 102.995 188.404 101.306C189.459 99.4761 190.48 97.611 191.465 95.7108C193.471 91.9104 195.266 88.0044 197.06 84.0985C197.06 84.0281 197.06 83.9929 197.06 83.9929C197.06 83.9929 197.095 83.9929 197.166 83.9929C197.166 83.9225 197.166 83.8873 197.166 83.8873C197.166 83.8873 197.166 83.8521 197.166 83.7818C197.166 83.7818 197.201 83.7466 197.271 83.6762C197.271 83.5354 197.306 83.3947 197.377 83.2539C199.383 78.8201 201.283 74.3863 203.077 69.9525C204.028 67.7356 204.978 65.5187 205.928 63.3018C206.491 62.1053 207.054 60.9089 207.617 59.7125C208.145 58.5513 208.673 57.4956 209.306 56.5455C210.045 55.4898 210.784 54.5397 211.628 53.6952C212.051 53.2729 212.508 52.8858 213.001 52.5339C213.423 52.182 213.916 51.9005 214.479 51.6894C214.901 51.4783 215.358 51.3023 215.851 51.1616C216.414 50.9504 216.977 50.8097 217.54 50.7393C218.596 50.6337 219.757 50.6337 220.918 50.8449C221.481 50.9856 222.009 51.1616 222.502 51.3727C222.994 51.5134 223.487 51.7246 223.98 52.0061C224.895 52.5691 225.739 53.2025 226.513 53.9063C227.252 54.6453 227.886 55.3842 228.519 56.1232C229.223 56.9677 229.892 57.8475 230.525 58.7624C232.003 60.6626 233.27 62.7739 234.431 64.7797C235.627 66.8207 236.753 68.8616 237.809 70.9026C238.865 73.0843 239.815 75.3012 240.659 77.5533C241.504 79.6647 242.208 81.8112 242.771 83.9929C243.299 86.2098 243.826 88.5323 244.037 90.7492C244.249 92.9661 244.143 95.183 243.826 97.3999C243.686 98.3852 243.474 99.3705 243.193 100.356C242.876 101.517 242.454 102.678 241.821 103.628C241.469 104.191 241.117 104.719 240.765 105.212C240.343 105.775 239.92 106.303 239.498 106.795C238.865 107.57 238.161 108.273 237.387 108.907C235.698 110.385 233.903 111.651 232.108 112.918C231.123 113.552 230.138 114.15 229.152 114.713C228.167 115.346 227.182 115.909 226.197 116.402C224.191 117.458 222.08 118.302 220.074 119.041C217.751 119.886 215.464 120.66 213.212 121.364C209.411 122.419 205.717 123.369 201.916 124.214C200.086 124.566 198.257 124.953 196.427 125.375C194.738 125.797 192.943 126.114 191.254 126.536C190.621 126.677 189.987 126.888 189.354 127.17C189.143 127.24 188.896 127.346 188.615 127.486C188.474 127.557 188.333 127.662 188.193 127.803C188.122 127.803 188.087 127.803 188.087 127.803C188.228 127.944 188.404 128.05 188.615 128.12C188.826 128.19 189.037 128.261 189.248 128.331C189.6 128.472 189.987 128.577 190.409 128.648C190.902 128.718 191.395 128.753 191.887 128.753C193.576 128.753 195.265 128.648 196.955 128.437C200.755 128.014 204.555 127.17 208.356 126.325C210.608 125.762 212.86 125.129 215.112 124.425C217.54 123.686 219.968 122.947 222.396 122.208C224.719 121.504 227.041 120.836 229.364 120.202C230.49 119.991 231.616 119.78 232.742 119.569C234.009 119.287 235.275 119.112 236.542 119.041C237.703 118.936 238.97 118.936 240.131 119.041C240.695 119.112 241.222 119.182 241.715 119.252C242.067 119.323 242.384 119.393 242.665 119.463C243.017 119.604 243.369 119.745 243.721 119.886C244.249 119.991 244.882 120.308 245.304 120.625C245.867 120.906 246.395 121.258 246.888 121.68C247.099 121.891 247.31 122.138 247.521 122.419C247.732 122.63 247.943 122.842 248.155 123.053C248.295 123.334 248.471 123.581 248.682 123.792C248.823 124.144 248.999 124.46 249.21 124.742C249.421 125.27 249.633 125.797 249.844 126.325C249.984 126.959 250.125 127.557 250.266 128.12C250.477 129.281 250.583 130.337 250.583 131.498C250.583 132.659 250.583 133.821 250.477 135.087C250.477 136.213 250.407 137.375 250.266 138.571C250.055 140.894 249.773 143.216 249.421 145.538C249.069 147.931 248.682 150.359 248.26 152.823C247.838 155.145 247.345 157.432 246.782 159.684C246.219 162.148 245.621 164.541 244.988 166.863C243.51 171.825 241.821 176.681 239.815 181.431C237.844 186.076 235.592 190.545 233.058 194.838C232.425 195.964 231.757 197.055 231.053 198.111C230.349 199.237 229.645 200.328 228.941 201.383C228.167 202.439 227.358 203.46 226.513 204.445C225.774 205.395 225.035 206.239 224.191 207.084C222.396 208.879 220.602 210.568 218.385 211.94C217.892 212.222 217.364 212.503 216.801 212.785C216.238 213.066 215.675 213.312 215.112 213.524C214.831 213.664 214.549 213.77 214.268 213.84C213.916 213.911 213.599 213.981 213.317 214.051C212.684 214.157 212.051 214.263 211.417 214.263C210.854 214.333 210.291 214.333 209.728 214.263C209.095 214.192 208.497 214.051 207.934 213.84C206.772 213.524 205.717 213.101 204.767 212.573C203.711 212.046 202.655 211.307 201.6 210.673C201.107 210.462 200.685 210.181 200.333 209.829C199.981 209.547 199.664 209.266 199.383 208.984C198.89 208.492 198.397 207.964 197.905 207.401C197.201 206.486 196.497 205.571 195.793 204.656C195.16 203.706 194.632 202.756 194.104 201.806C193.471 200.75 192.873 199.659 192.31 198.533C191.747 197.477 191.219 196.422 190.726 195.366C189.67 193.114 188.65 190.827 187.665 188.504C186.75 186.252 185.87 183.965 185.025 181.642C184.111 179.179 183.231 176.716 182.386 174.253C181.542 171.825 180.697 169.502 179.853 167.18C179.712 166.828 179.571 166.511 179.43 166.23C178.903 164.646 178.269 163.168 177.53 161.69C177.178 161.198 176.862 160.705 176.58 160.212C176.369 159.931 176.123 159.649 175.841 159.368L175.736 159.262C175.665 159.121 175.56 159.016 175.419 158.945C175.419 158.945 175.384 158.945 175.313 158.945C175.243 159.016 175.173 159.086 175.102 159.157C175.032 159.227 174.961 159.333 174.891 159.473C174.821 159.614 174.75 159.755 174.68 159.896C174.61 160.036 174.539 160.212 174.469 160.423C174.398 160.705 174.328 161.022 174.258 161.373C174.258 161.725 174.258 162.077 174.258 162.429C174.258 162.992 174.293 163.555 174.363 164.118C174.574 166.124 174.891 168.024 175.419 170.03C176.475 174.675 177.952 179.214 179.536 183.648C181.12 188.504 182.809 193.36 184.392 198.216C185.166 200.468 185.94 202.721 186.715 204.973C187.454 207.295 188.193 209.723 188.826 212.046C189.459 214.474 190.093 216.902 190.515 219.33C190.656 220.597 190.797 221.863 190.937 223.13C191.078 224.327 191.113 225.558 191.043 226.825C190.937 229.148 190.409 231.681 189.248 233.792C188.685 234.707 188.052 235.587 187.348 236.432C186.715 237.206 186.046 237.98 185.342 238.754C184.392 239.599 183.548 240.338 182.597 241.182C181.612 241.956 180.557 242.695 179.43 243.399C178.445 243.962 177.425 244.49 176.369 244.983C175.313 245.546 174.222 246.073 173.096 246.566C168.663 248.466 164.123 249.944 159.478 251.317C157.085 252.02 154.657 252.654 152.194 253.217C149.731 253.78 147.303 254.272 144.91 254.695C142.376 255.117 139.948 255.434 137.415 255.75C134.952 256.032 132.488 256.243 130.025 256.384C127.492 256.595 124.923 256.701 122.319 256.701C122.037 256.701 121.72 256.701 121.369 256.701C119.187 256.701 117.005 256.595 114.823 256.384Z" fill="url(#paint1_linear_1_1141)"/>
<defs>
<linearGradient id="paint0_linear_1_1141" x1="148.405" y1="-116.233" x2="427.999" y2="163.36" gradientUnits="userSpaceOnUse">
<stop stop-color="#B4E364"/>
<stop offset="1" stop-color="#59D9A9"/>
</linearGradient>
<linearGradient id="paint1_linear_1_1141" x1="167.108" y1="-195.731" x2="435.495" y2="72.6561" gradientUnits="userSpaceOnUse">
<stop stop-color="#B4E364"/>
<stop offset="1" stop-color="#59D9A9"/>
</linearGradient>
</defs>
</svg>
