<svg width="257" height="242" viewBox="0 0 257 242" fill="none" xmlns="http://www.w3.org/2000/svg">
<path d="M10.8513 111.867C-12.8151 132.458 9.26729 130.781 30.1384 131.154C44.0215 131.433 62.0974 130.222 69.0855 143.639C79.987 164.604 68.6196 187.99 49.8915 217.527C39.9218 233.273 51.1028 247.063 75.7941 237.746C97.7833 229.546 117.071 219.949 145.116 200.942C166.733 188.27 190.026 213.893 204.282 234.019C217.513 252.561 234.191 236.069 229.905 200.103C228.042 184.45 224.128 171.871 212.202 146.341C231.303 123.7 246.024 95.4679 252.174 76.8329C261.864 47.1102 255.342 42.0788 236.614 52.2348C204.655 69.5653 174.559 65.652 166.36 54.0051C157.415 41.3334 148.098 29.8729 133.469 17.7601C104.212 -6.55847 91.2611 -3.94958 93.0314 20.9281C98.156 93.2317 58.0909 70.6834 10.8513 111.867Z" fill="url(#paint0_radial_1_1393)"/>
<path d="M173.907 66.1178C164.217 49.6259 152.943 33.8794 133.469 17.7601C104.212 -6.55847 91.2611 -3.94958 93.0314 20.9281C98.156 93.2317 58.0909 70.6834 10.8513 111.867C-12.8151 132.458 9.26729 130.781 30.1384 131.154C44.0215 131.433 62.0974 130.222 69.0855 143.639C71.6944 148.671 73.092 153.982 73.2784 159.386C78.0303 88.0139 217.606 142.801 173.907 66.1178Z" fill="url(#paint1_linear_1_1393)"/>
<path d="M145.116 200.942C166.733 188.27 190.026 213.894 204.282 234.019C217.513 252.561 234.191 236.069 229.905 200.104C228.042 184.45 224.128 171.872 212.202 146.342C191.051 170.101 174.093 182.773 145.116 200.942Z" fill="url(#paint2_linear_1_1393)"/>
<path style="mix-blend-mode:multiply" opacity="0.7" d="M193.753 220.509C205.4 211.471 217.14 201.129 228.321 189.948C225.899 178.208 221.519 166.188 212.202 146.342C191.051 170.101 174.093 182.773 145.116 200.942C161.981 191.066 179.963 204.483 193.753 220.509Z" fill="url(#paint3_linear_1_1393)"/>
<path d="M132.538 73.8513C159.465 76.1807 160.024 46.3648 148.191 31.4568C143.905 26.8913 139.06 22.3257 133.469 17.7601C104.212 -6.55847 91.2612 -3.94958 93.0315 20.9281C96.0131 63.4158 83.4345 73.1059 62.936 82.2371C92.5656 72.6401 109.989 71.8947 132.538 73.8513Z" fill="url(#paint4_radial_1_1393)"/>
<defs>
<radialGradient id="paint0_radial_1_1393" cx="0" cy="0" r="1" gradientUnits="userSpaceOnUse" gradientTransform="translate(112.514 42.772) rotate(61.2743) scale(214.777 214.777)">
<stop stop-color="#BDF7FF"/>
<stop offset="1" stop-color="#0091FF"/>
</radialGradient>
<linearGradient id="paint1_linear_1_1393" x1="83.1074" y1="-105.222" x2="253.784" y2="148.402" gradientUnits="userSpaceOnUse">
<stop stop-color="#E063FF"/>
<stop offset="1" stop-color="#0091FF"/>
</linearGradient>
<linearGradient id="paint2_linear_1_1393" x1="185.68" y1="320.292" x2="90.6917" y2="177.038" gradientUnits="userSpaceOnUse">
<stop stop-color="#E063FF"/>
<stop offset="1" stop-color="#0091FF"/>
</linearGradient>
<linearGradient id="paint3_linear_1_1393" x1="177.26" y1="248.908" x2="108.9" y2="163.039" gradientUnits="userSpaceOnUse">
<stop stop-color="white"/>
<stop offset="1" stop-color="#C96699"/>
</linearGradient>
<radialGradient id="paint4_radial_1_1393" cx="0" cy="0" r="1" gradientUnits="userSpaceOnUse" gradientTransform="translate(133.767 102.96) rotate(-115.804) scale(118.562 118.562)">
<stop stop-color="#9EFFBA"/>
<stop offset="1" stop-color="#0195FF"/>
</radialGradient>
</defs>
</svg>
