<svg width="257" height="168" viewBox="0 0 257 168" fill="none" xmlns="http://www.w3.org/2000/svg">
<path d="M111.503 27.084C98.32 31.4509 87.032 40.0199 79.3693 51.308H135.315L111.503 27.084Z" fill="#111A23"/>
<path d="M75.3319 58.3115C71.1298 66.7158 68.7403 76.1087 68.7403 86.1609C68.7403 90.2806 69.1523 94.318 69.8939 98.2729L109.526 58.3115H75.3319Z" fill="#111A23"/>
<path d="M159.127 30.7085C150.641 26.424 141.083 23.9521 130.948 23.9521C127.158 23.9521 123.368 24.2817 119.743 24.9409L159.127 65.5614V30.7085Z" fill="#111A23"/>
<path d="M190.355 67.704C186.235 54.5208 177.913 43.2328 166.872 35.4053V91.516L190.355 67.704Z" fill="#111A23"/>
<path d="M150.558 145.155C163.577 140.871 174.7 132.384 182.28 121.261H126.499L150.558 145.155Z" fill="#111A23"/>
<path d="M103.016 141.695C111.421 145.979 120.896 148.369 130.948 148.369C134.134 148.369 137.265 148.122 140.341 147.627L103.016 107.913V141.695Z" fill="#111A23"/>
<path d="M71.9537 105.935C76.2383 118.788 84.6425 129.747 95.5186 137.327V81.958L71.9537 105.935Z" fill="#111A23"/>
<path d="M186.317 114.422C190.684 105.935 193.156 96.3775 193.156 86.1605C193.156 82.7549 192.882 79.4042 192.332 76.1084L153.442 114.422H186.317Z" fill="#111A23"/>
<path fill-rule="evenodd" clip-rule="evenodd" d="M256.6 21.5633V148.369H183.269C168.932 160.481 150.476 167.731 130.289 167.731C84.8897 167.731 47.9769 130.818 47.9769 85.4191C47.9769 68.9401 52.8382 53.6148 61.16 40.6788H19.7979V129.253H48.2241C52.0142 136.174 56.5459 142.601 61.8192 148.369H0.600006V21.5633H78.2981C92.5524 10.028 110.597 3.02447 130.289 3.02447C175.689 3.02447 212.684 40.0196 212.684 85.4191C212.684 101.486 207.987 116.564 199.913 129.253H237.402V22.3872H197.935V0.799805H237.402V21.5633H256.6ZM130.289 156.031C169.179 156.031 200.819 124.309 200.819 85.4191C200.819 46.5288 169.179 14.8069 130.289 14.8069C91.3165 14.8069 59.6769 46.5288 59.6769 85.4191C59.6769 124.309 91.3165 156.031 130.289 156.031Z" fill="#111A23"/>
</svg>
