<svg width="257" height="158" viewBox="0 0 257 158" fill="none" xmlns="http://www.w3.org/2000/svg">
<path d="M235.445 37.9478L229.593 32.1274L227.303 29.8057L197.597 0.0996094H49.1302L7.49719 41.7644L55.2368 89.504L59.2124 93.4797L70.7259 104.993C75.1468 104.675 79.4723 104.293 83.766 103.785C83.9569 103.785 84.1477 103.753 84.3385 103.721C86.7239 103.467 89.1093 103.18 91.4629 102.862L30.3651 41.7644L55.8411 16.2567H190.886L214.708 40.0787L216.362 41.7644L186.052 72.1384C207.425 60.6885 223.804 48.1891 235.445 37.9478Z" fill="url(#paint0_linear_1_1283)"/>
<path d="M155.709 102.481L123.395 134.795L102.881 114.281C96.2019 115.171 89.3319 115.935 82.1758 116.443L123.395 157.663L193.367 87.6279C182.33 92.9394 169.767 98.0282 155.709 102.481Z" fill="url(#paint1_linear_1_1283)"/>
<path d="M256.5 16.2568C255.896 17.052 252.906 20.8686 247.436 26.4981C245.718 28.2792 243.714 30.2511 241.488 32.3821C239.643 34.1313 237.64 36.0078 235.445 37.948C223.804 48.1892 207.425 60.6887 186.052 72.1385C185.013 72.6898 183.974 73.2411 182.935 73.7924C180.708 74.9374 178.418 76.0824 176.065 77.1956C153.547 88.1048 126.226 97.5827 93.9755 102.417C93.1167 102.544 92.258 102.672 91.3992 102.799C89.0457 103.117 86.6921 103.435 84.3385 103.721C84.1477 103.753 83.9568 103.785 83.766 103.785C80.331 104.23 76.8007 104.58 73.2385 104.866C64.5557 105.598 55.4912 105.947 46.1405 105.947H44.582C43.278 105.947 42.0058 105.916 40.67 105.916C27.8525 105.693 14.4625 104.771 0.5 103.021V102.862C7.847 101.94 15.1304 100.954 22.382 99.8409C34.7542 97.9962 46.9992 95.897 59.2124 93.4798C65.478 92.2394 71.7436 90.9036 78.0411 89.4406C123.936 78.9767 169.131 63.5511 214.708 40.0789C219.67 37.5027 224.631 34.8629 229.593 32.1276C238.53 27.166 247.499 21.8864 256.5 16.2568Z" fill="url(#paint2_linear_1_1283)"/>
<defs>
<linearGradient id="paint0_linear_1_1283" x1="111.978" y1="135.959" x2="15.9034" y2="-66.9856" gradientUnits="userSpaceOnUse">
<stop stop-color="#7C3406"/>
<stop offset="0.485" stop-color="#FFD275"/>
<stop offset="1" stop-color="#FFD275"/>
</linearGradient>
<linearGradient id="paint1_linear_1_1283" x1="148.782" y1="57.2543" x2="192.448" y2="177.334" gradientUnits="userSpaceOnUse">
<stop stop-color="#7C3406"/>
<stop offset="0.485" stop-color="#FFD275"/>
<stop offset="1" stop-color="#FFD275"/>
</linearGradient>
<linearGradient id="paint2_linear_1_1283" x1="36.3575" y1="165.549" x2="157.361" y2="-70.8299" gradientUnits="userSpaceOnUse">
<stop stop-color="#7C3406"/>
<stop offset="0.485" stop-color="#FFD275"/>
<stop offset="1" stop-color="#FFD275"/>
</linearGradient>
</defs>
</svg>
