<svg width="257" height="181" viewBox="0 0 257 181" fill="none" xmlns="http://www.w3.org/2000/svg">
<path fill-rule="evenodd" clip-rule="evenodd" d="M218.261 23.1818C243.651 38.4515 256.79 56.2071 256.08 74.6728C256.08 74.7912 256.08 74.9096 256.08 75.0279L256.257 75.3831V75.5606C256.613 111.072 256.257 111.959 255.725 113.557C251.641 126.164 239.39 137.705 219.681 148.003L158.957 179.43L156.294 180.851L153.453 179.253L3.24128 89.41L0.400391 87.8119V56.3846V52.4784V49.1049L3.59642 47.5069L64.3203 16.0796C84.384 5.60382 108.176 0.0996094 133.034 0.0996094C163.041 0.0996094 193.225 8.26715 218.261 23.1818ZM66.9836 21.0512L6.08218 52.4784V84.616L156.471 174.281L217.018 142.854C235.484 133.444 246.669 122.968 250.221 111.782C250.576 111.072 250.753 110.184 250.398 75.7382V74.8504C250.398 74.732 250.398 74.6137 250.398 74.4953C250.931 58.1602 238.68 42.1803 215.242 28.1534C191.095 13.7714 161.976 5.7814 133.034 5.7814C109.064 5.7814 86.3371 11.1081 66.9836 21.0512Z" fill="#223345"/>
<path d="M93.4394 66.6816C104.981 60.6448 118.652 57.4489 132.857 57.4489C150.967 57.4489 168.9 62.5979 184.88 72.0083C190.325 75.3227 194.824 78.7555 198.375 82.3066C200.86 78.8739 201.866 75.3228 201.393 71.6533C201.275 70.7063 201.097 69.8185 200.86 68.99C200.86 68.8716 200.86 68.8123 200.86 68.8123C200.505 67.9837 200.091 67.1552 199.617 66.3266C199.617 66.0899 199.558 65.9122 199.44 65.7939C199.085 65.202 198.67 64.551 198.197 63.8408C197.96 63.4857 197.664 63.0714 197.309 62.5979C196.954 62.1244 196.599 61.651 196.244 61.1775C195.889 60.8224 195.534 60.4081 195.179 59.9346C194.587 59.4611 193.995 58.9285 193.403 58.3366C193.048 57.9815 192.693 57.6264 192.338 57.2712C191.627 56.561 190.858 55.91 190.03 55.3182C189.674 55.0814 189.319 54.7855 188.964 54.4304C188.017 53.7202 187.011 53.0099 185.946 52.2997C185.709 52.1814 185.531 52.063 185.413 51.9446C184.111 51.116 182.809 50.2875 181.507 49.4589C166.592 40.5811 149.902 35.7871 132.857 35.7871C119.718 35.7871 107.111 38.8055 96.2803 44.3097L74.0859 55.8508L92.7292 67.0368L93.4394 66.6816Z" fill="#223345"/>
<path fill-rule="evenodd" clip-rule="evenodd" d="M156.649 138.593L16.0254 54.7873L69.8246 26.9111C88.2903 17.3231 110.13 12.3516 133.034 12.3516C160.91 12.3516 188.787 19.9864 211.869 33.6582C232.998 46.2646 244.361 60.6466 244.006 74.3184C243.888 74.9102 243.829 75.5021 243.829 76.0939C243.71 76.449 243.651 76.8632 243.651 77.3367C243.651 77.6918 243.592 78.047 243.474 78.4021C243.355 78.7572 243.237 79.1715 243.118 79.645C243.118 80.0001 243.059 80.2961 242.941 80.5328C242.823 81.0063 242.645 81.4797 242.408 81.9532C242.29 82.19 242.231 82.4859 242.231 82.841C241.994 83.3145 241.757 83.7879 241.52 84.2614C241.402 84.4982 241.284 84.7349 241.165 84.9717C240.929 85.5635 240.692 86.0961 240.455 86.5696C240.337 86.8064 240.159 87.0431 239.922 87.2799C239.686 87.7534 239.39 88.2268 239.035 88.7003C238.916 88.937 238.798 89.1738 238.68 89.4106C238.206 89.884 237.792 90.4166 237.437 91.0085C237.318 91.1269 237.2 91.3044 237.082 91.5411C236.608 92.0146 236.135 92.5473 235.661 93.1392C235.543 93.2576 235.365 93.4351 235.128 93.6718C234.655 94.1453 234.182 94.678 233.708 95.2699C233.471 95.3882 233.294 95.5658 233.175 95.8025C232.584 96.276 231.992 96.8087 231.4 97.4005C231.281 97.5189 231.104 97.6372 230.867 97.7556C230.275 98.3474 229.683 98.8801 229.092 99.3536C228.855 99.5904 228.618 99.7679 228.381 99.8863C227.79 100.36 227.139 100.833 226.428 101.307C226.192 101.543 225.896 101.78 225.541 102.017C224.949 102.49 224.357 102.905 223.765 103.26C223.291 103.615 222.877 103.911 222.522 104.148C221.93 104.503 221.338 104.858 220.747 105.213C220.155 105.568 219.563 105.923 218.971 106.278C218.497 106.515 218.024 106.811 217.551 107.166C216.367 107.758 215.183 108.35 213.999 108.942L156.649 138.593ZM60.7693 55.4975L158.602 113.913L187.544 98.821C191.983 96.5128 195.534 94.2045 198.375 91.7188V91.8963L199.617 90.6534C206.187 84.4389 207.963 78.5797 208.14 73.9632C208.318 66.5059 204.234 59.0486 196.244 51.9464C196.126 51.9464 196.066 51.8872 196.066 51.7688C195.474 51.2954 194.883 50.8219 194.291 50.3484C194.172 50.23 193.995 50.1117 193.758 49.9933C193.285 49.5198 192.811 49.1055 192.338 48.7504C191.983 48.5136 191.687 48.2769 191.45 48.0401C190.976 47.8034 190.503 47.5074 190.029 47.1523C189.556 46.7972 189.083 46.5013 188.609 46.2646C188.254 46.0278 187.899 45.7911 187.544 45.5544C186.715 44.9626 185.827 44.3707 184.88 43.7789C168.9 34.3684 150.967 29.3968 133.034 29.3968C118.83 29.3968 105.158 32.5928 93.4394 38.6297L60.7693 55.4975Z" fill="#223345"/>
<path d="M244.007 92.9632C241.994 95.9224 239.45 98.7633 236.372 101.486C236.254 101.723 236.135 101.9 236.017 102.018C235.188 102.729 234.3 103.439 233.353 104.149C233.117 104.386 232.821 104.623 232.466 104.859C231.755 105.451 230.986 106.043 230.157 106.635C229.802 106.99 229.388 107.286 228.915 107.523C228.204 108.114 227.435 108.706 226.606 109.298C226.133 109.535 225.659 109.772 225.186 110.008C224.357 110.6 223.47 111.192 222.523 111.784C222.049 112.021 221.635 112.258 221.28 112.494C219.859 113.204 218.439 113.974 217.018 114.802L156.472 146.052L12.6523 60.293V80.8893L156.65 166.826L214 137.174C230.513 128.652 240.811 119.241 244.007 110.008C244.184 108.41 244.184 101.131 244.007 92.9632Z" fill="#223345"/>
</svg>
