<svg width="257" height="158" viewBox="0 0 257 158" fill="none" xmlns="http://www.w3.org/2000/svg">
<path d="M246.409 158.003C243.907 158.003 241.571 157.169 239.569 155.334L164.321 85.0916C162.319 83.2563 161.151 80.7536 161.151 78.084C161.151 75.2476 162.152 72.7449 164.154 70.7428L232.227 3.33706C236.065 -0.500392 242.405 -0.333587 246.243 3.50387C250.08 7.34133 250.08 13.6815 246.243 17.519L185.344 77.5835L253.083 140.818C257.087 144.489 257.421 150.829 253.584 154.833C251.748 156.835 249.079 158.003 246.409 158.003Z" fill="#1B43FF"/>
<path d="M148.304 158.003C142.798 158.003 138.293 153.498 138.293 147.992V10.5108C138.293 5.00484 142.798 0.5 148.304 0.5C153.81 0.5 158.148 5.00484 158.148 10.5108V147.992C158.148 153.498 153.81 158.003 148.304 158.003Z" fill="#1B43FF"/>
<path d="M237.4 89.2619H19.1651C13.6591 89.2619 9.1543 84.7571 9.1543 79.2512C9.1543 73.7453 13.6591 69.4072 19.1651 69.4072H237.4C242.905 69.4072 247.41 73.7453 247.41 79.2512C247.41 84.7571 242.905 89.2619 237.4 89.2619Z" fill="#1B43FF"/>
<path d="M10.1555 158.003C7.48602 158.003 4.81647 156.835 2.98117 154.833C-0.856287 150.829 -0.52259 144.489 3.48171 140.818L71.2212 77.5835L10.3224 17.519C6.48495 13.6815 6.48495 7.34133 10.3224 3.50387C14.1599 -0.333587 20.5 -0.500392 24.3375 3.33706L92.4106 70.7428C94.4128 72.7449 95.4138 75.2476 95.4138 78.084C95.4138 80.7536 94.2459 83.2563 92.2437 85.0916L16.9962 155.334C14.9941 157.169 12.6582 158.003 10.1555 158.003Z" fill="#1B43FF"/>
<path d="M108.261 158.003C102.755 158.003 98.4171 153.498 98.4171 147.992V10.5108C98.4171 5.00484 102.755 0.5 108.261 0.5C113.767 0.5 118.272 5.00484 118.272 10.5108V147.992C118.272 153.498 113.767 158.003 108.261 158.003Z" fill="#1B43FF"/>
</svg>
