<svg width="238" height="257" viewBox="0 0 238 257" fill="none" xmlns="http://www.w3.org/2000/svg">
<path fill-rule="evenodd" clip-rule="evenodd" d="M237.239 128.4C237.239 203.088 182.418 256.4 101.444 256.4H0.0996094V193.532H2.11152C43.6046 193.532 71.5181 166.373 71.5181 128.4C71.5181 90.4279 43.6046 63.2687 2.11152 63.2687H0.0996094V0.400391H101.444C182.418 0.400391 237.239 53.9643 237.239 128.4ZM161.546 128.4C161.546 113.563 149.475 101.493 134.638 101.493C119.801 101.493 107.73 113.563 107.73 128.4C107.73 143.237 119.801 155.308 134.638 155.308C149.475 155.308 161.546 143.237 161.546 128.4Z" fill="#223345"/>
</svg>
