<svg width="257" height="246" viewBox="0 0 257 246" fill="none" xmlns="http://www.w3.org/2000/svg">
<path d="M137.789 0.400391H58.9248L0.0996094 199.932H33.0676C34.3604 195.622 36.2997 191.313 37.1616 186.788H18.4152L69.4832 13.5444H132.833C171.619 13.5444 195.753 30.5672 202.217 57.5018C202.648 57.7891 203.079 58.0763 203.51 58.3636C208.681 62.2422 214.068 66.3363 219.024 71.0768C219.671 28.6278 189.935 0.400391 137.789 0.400391Z" fill="#223345"/>
<path d="M47.9367 217.17C48.224 214.727 48.655 212.214 49.2296 209.628H36.9474L88.0154 36.3843H151.366C184.118 36.3843 206.528 48.451 216.44 68.7058C224.843 76.032 232.6 84.6512 237.556 94.1322C238.203 51.4678 208.467 23.2402 156.322 23.2402H77.2416L18.6318 222.772H48.3677C47.9367 220.904 47.7931 219.037 47.9367 217.17Z" fill="#223345"/>
<path fill-rule="evenodd" clip-rule="evenodd" d="M95.7725 46.0801H174.853C237.987 46.0801 268.585 87.6672 251.347 145.846C234.324 203.809 179.162 245.612 116.027 245.612H36.9473L95.7725 46.0801ZM118.829 232.468C175.068 232.468 221.827 196.483 236.91 145.63C251.778 94.9934 226.136 59.0087 169.681 59.0087H106.546L55.4783 232.468H118.829Z" fill="#223345"/>
<path d="M148.349 130.331H172.482C178.3 130.331 183.04 131.409 186.919 133.348C185.626 122.359 176.792 115.248 162.139 115.248H138.006L120.121 176.228H134.774L148.349 130.331Z" fill="#223345"/>
</svg>
