<svg width="190" height="265" viewBox="0 0 190 265" fill="none" xmlns="http://www.w3.org/2000/svg">
<path d="M185.633 208.263V56.7372L95.1136 4.5L4.5 56.7372V208.263L95.1136 260.5L185.633 208.263Z" stroke="#AB7D2F" stroke-width="7.7" stroke-miterlimit="10" stroke-linecap="round"/>
<path d="M40.0479 36.1816C95.1138 104.354 104.354 25.2439 159.137 41.4619" stroke="#AB7D2F" stroke-width="7.7" stroke-miterlimit="10" stroke-linecap="round"/>
<path d="M40.0479 226.745C95.1138 158.572 104.354 237.777 159.137 221.559" stroke="#AB7D2F" stroke-width="7.7" stroke-miterlimit="10" stroke-linecap="round"/>
<path d="M185.633 86.7207C137.639 97.4699 144.805 156.873 185.633 169.131" stroke="#AB7D2F" stroke-width="7.7" stroke-miterlimit="10" stroke-linecap="round"/>
<path d="M4.5 86.7207C52.4941 97.4699 45.328 156.873 4.5 169.131" stroke="#AB7D2F" stroke-width="7.7" stroke-miterlimit="10" stroke-linecap="round"/>
<path d="M4.5 56.7383L185.633 208.264" stroke="#AB7D2F" stroke-width="7.7" stroke-miterlimit="10" stroke-linecap="round"/>
<path d="M4.5 208.264L185.633 56.7383" stroke="#AB7D2F" stroke-width="7.7" stroke-miterlimit="10" stroke-linecap="round"/>
<path d="M121.61 133.49L95.1144 165.549L68.5244 133.49L95.1144 101.525L121.61 133.49Z" stroke="#AB7D2F" stroke-width="7.7" stroke-miterlimit="10" stroke-linecap="round"/>
</svg>
