<svg width="272" height="269" viewBox="0 0 272 269" fill="none" xmlns="http://www.w3.org/2000/svg">
<path d="M158.905 234.563L136.043 262.205L113.095 234.563L136.043 206.92L158.905 234.563Z" stroke="#AB7D2F" stroke-width="7.7" stroke-miterlimit="10" stroke-linecap="round"/>
<path d="M264 185.97H8L136.043 6.90039L264 185.97Z" stroke="#AB7D2F" stroke-width="7.7" stroke-miterlimit="10" stroke-linecap="round"/>
<path d="M135.957 6.90039V206.919" stroke="#AB7D2F" stroke-width="7.7" stroke-miterlimit="10" stroke-linecap="round"/>
<path d="M213.235 114.952C177.682 109.127 178.986 204.486 135.957 206.92C93.0149 204.486 94.3188 109.127 58.7656 114.952" stroke="#AB7D2F" stroke-width="7.7" stroke-miterlimit="10" stroke-linecap="round"/>
<path d="M30.0791 156.415C53.5494 153.459 55.0272 185.97 55.0272 185.97" stroke="#AB7D2F" stroke-width="7.7" stroke-miterlimit="10" stroke-linecap="round"/>
<path d="M241.834 156.415C218.45 153.459 216.973 185.97 216.973 185.97" stroke="#AB7D2F" stroke-width="7.7" stroke-miterlimit="10" stroke-linecap="round"/>
<path d="M87.4512 74.8765C110.139 71.921 108.661 130.075 135.956 130.075" stroke="#AB7D2F" stroke-width="7.7" stroke-miterlimit="10" stroke-linecap="round"/>
<path d="M184.549 74.8765C161.861 71.921 163.252 130.075 135.957 130.075" stroke="#AB7D2F" stroke-width="7.7" stroke-miterlimit="10" stroke-linecap="round"/>
</svg>
