<svg width="256" height="256" viewBox="0 0 256 256" fill="none" xmlns="http://www.w3.org/2000/svg">
<path d="M184.697 196.829C183.07 196.829 181.714 195.474 181.714 193.847V153.993C181.714 151.621 179.884 150.672 179.342 150.469C178.8 150.198 176.834 149.588 175.14 151.282L135.489 190.933C131.762 194.66 126.814 196.762 121.527 196.762C116.24 196.762 111.292 194.66 107.497 190.933L61.204 144.572C57.4761 140.844 55.375 135.896 55.375 130.61C55.375 125.323 57.4761 120.375 61.204 116.647L89.9421 87.8413C93.6699 84.1134 98.6856 82.0801 103.972 82.0801C109.259 82.0801 114.207 84.1134 117.935 87.8413L165.922 135.829C167.074 136.981 167.074 138.879 165.922 140.031C164.77 141.183 162.872 141.183 161.72 140.031L113.8 92.0435C111.157 89.4002 107.632 87.9768 103.972 87.9768C100.244 87.9768 96.72 89.4002 94.1444 92.0435L65.3385 120.782C62.7629 123.425 61.2718 126.882 61.2718 130.61C61.2718 134.337 62.7629 137.794 65.3385 140.438L111.699 186.798C117.121 192.153 125.933 192.153 131.355 186.798L171.005 147.08C173.852 144.233 177.919 143.488 181.647 144.979C185.307 146.538 187.611 149.994 187.611 153.993V193.847C187.611 195.474 186.323 196.829 184.697 196.829Z" fill="#CAA044"/>
<path d="M132.372 255.797C132.191 255.797 132.033 255.797 131.897 255.797C124.171 254.577 118.545 248.07 118.545 240.344V193.78C118.545 192.153 119.9 190.865 121.527 190.865C123.154 190.865 124.442 192.153 124.442 193.78V240.344C124.442 246.037 128.779 249.358 132.778 249.968C134.405 250.239 135.49 251.73 135.286 253.357C135.015 254.78 133.795 255.797 132.372 255.797Z" fill="#CAA044"/>
<path d="M66.7618 184.9C65.3385 184.9 63.8473 184.629 62.3562 184.019C58.0862 182.257 55.375 178.258 55.375 173.581V130.61C55.375 128.983 56.7306 127.695 58.3573 127.695C59.9839 127.695 61.2718 128.983 61.2718 130.61V173.581C61.2718 175.818 62.5595 177.716 64.6607 178.597C66.7618 179.478 68.9307 179.004 70.5574 177.445C71.7097 176.293 73.5397 176.293 74.6919 177.445C75.8442 178.597 75.8442 180.427 74.6919 181.579C72.523 183.748 69.6763 184.9 66.7618 184.9Z" fill="#CAA044"/>
<path d="M139.217 185.985C137.59 185.985 136.303 184.63 136.303 183.003V169.651C136.303 164.364 138.336 159.416 142.064 155.621L177.783 119.698C183.138 114.276 183.138 105.464 177.715 100.042L113.8 36.2623C111.224 33.6189 107.768 32.1956 104.04 32.1956C104.04 32.1956 104.017 32.1956 103.972 32.1956C100.312 32.1956 96.7876 33.6867 94.212 36.2623L79.843 50.9025C77.2674 53.5459 75.844 57.0026 75.844 60.6626V109.395C75.844 111.022 74.5562 112.31 72.9295 112.31C71.3028 112.31 69.9473 111.022 69.9473 109.395V60.6626C69.9473 55.4436 71.9806 50.4958 75.6407 46.768L90.0098 32.1278C93.7376 28.4 98.6854 26.2988 103.972 26.2988C104.017 26.2988 104.04 26.2988 104.04 26.2988C109.327 26.2988 114.275 28.3322 118.002 32.06L181.918 95.9075C189.577 103.566 189.644 116.106 181.985 123.832L146.266 159.823C143.623 162.466 142.199 165.923 142.199 169.651V183.003C142.199 184.63 140.844 185.985 139.217 185.985Z" fill="#CAA044"/>
<path d="M102.278 88.0453C100.651 88.0453 99.3633 86.7575 99.3633 85.0631V60.4594C99.3633 58.8327 100.651 57.5449 102.278 57.5449C103.904 57.5449 105.26 58.8327 105.26 60.4594V85.0631C105.26 86.7575 103.904 88.0453 102.278 88.0453Z" fill="#CAA044"/>
<path d="M112.987 112.919H103.769C102.617 112.919 101.668 111.97 101.668 110.818C101.668 109.666 102.617 108.717 103.769 108.717H112.987C114.139 108.717 115.088 109.666 115.088 110.818C115.088 111.97 114.139 112.919 112.987 112.919Z" fill="#CAA044"/>
<path d="M108.378 117.528C107.225 117.528 106.276 116.579 106.276 115.426V106.209C106.276 105.056 107.225 104.107 108.378 104.107C109.53 104.107 110.479 105.056 110.479 106.209V115.426C110.479 116.579 109.53 117.528 108.378 117.528Z" fill="#CAA044"/>
<path d="M141.386 141.997H132.169C131.016 141.997 130.067 141.048 130.067 139.828C130.067 138.675 131.016 137.727 132.169 137.727H141.386C142.539 137.727 143.488 138.675 143.488 139.828C143.488 141.048 142.539 141.997 141.386 141.997Z" fill="#CAA044"/>
<path d="M136.778 146.538C135.626 146.538 134.677 145.657 134.677 144.437V135.287C134.677 134.067 135.626 133.186 136.778 133.186C137.998 133.186 138.879 134.067 138.879 135.287V144.437C138.879 145.657 137.93 146.538 136.778 146.538Z" fill="#CAA044"/>
<path d="M91.569 134.337H82.4189C81.1989 134.337 80.25 133.388 80.25 132.236C80.25 131.084 81.1989 130.135 82.4189 130.135H91.569C92.7213 130.135 93.6702 131.084 93.6702 132.236C93.6702 133.388 92.7213 134.337 91.569 134.337Z" fill="#CAA044"/>
<path d="M86.9605 138.946C85.8083 138.946 84.8594 137.997 84.8594 136.844V127.627C84.8594 126.474 85.8083 125.525 86.9605 125.525C88.1805 125.525 89.0617 126.474 89.0617 127.627V136.844C89.0617 137.997 88.1805 138.946 86.9605 138.946Z" fill="#CAA044"/>
<path d="M120.036 163.347H110.818C109.666 163.347 108.717 162.398 108.717 161.246C108.717 160.093 109.666 159.145 110.818 159.145H120.036C121.188 159.145 122.137 160.093 122.137 161.246C122.137 162.398 121.188 163.347 120.036 163.347Z" fill="#CAA044"/>
<path d="M115.427 167.955C114.275 167.955 113.326 167.006 113.326 165.854V156.636C113.326 155.484 114.275 154.535 115.427 154.535C116.58 154.535 117.528 155.484 117.528 156.636V165.854C117.528 167.006 116.58 167.955 115.427 167.955Z" fill="#CAA044"/>
<path d="M103.769 29.2793H117.189C126.813 29.2793 136.031 33.0749 142.809 39.8528L186.933 83.9767C193.779 90.8223 197.574 100.04 197.574 109.665V188.491C197.574 192.49 195.948 196.354 193.101 199.2C189.983 202.386 184.628 200.149 184.628 195.676V154.128C184.628 148.028 177.241 144.977 172.971 149.315L139.217 183.001V169.513C139.217 165.243 140.911 161.109 143.894 158.127L179.681 122.272C186.526 115.494 186.459 104.378 179.681 97.6002L116.172 34.2949C112.919 31.0415 108.513 29.2793 103.972 29.2793H103.769Z" fill="#CAA044"/>
<path fill-rule="evenodd" clip-rule="evenodd" d="M189.644 203.676C188.627 203.676 187.543 203.472 186.526 202.998C183.544 201.778 181.646 198.999 181.646 195.678V154.129C181.646 151.689 179.816 150.74 179.274 150.537C178.732 150.266 176.698 149.656 175.004 151.35L136.235 190.12V169.515C136.235 164.432 138.268 159.619 141.86 156.027L177.58 120.172C180.358 117.461 181.85 113.801 181.85 109.938C181.85 106.074 180.291 102.414 177.58 99.7031L114.071 36.3979C111.428 33.6867 107.835 32.1956 104.04 32.1956H103.769V26.2988H103.972C103.972 26.2988 104.04 26.2988 104.107 26.2988H117.189C127.627 26.2988 137.522 30.3656 144.91 37.7534L189.034 81.9451C196.422 89.333 200.556 99.1609 200.556 109.667V188.493C200.556 193.305 198.659 197.847 195.202 201.303C193.643 202.862 191.677 203.676 189.644 203.676ZM177.715 144.301C179.003 144.301 180.291 144.573 181.511 145.115C185.239 146.606 187.543 150.063 187.543 154.129V195.678C187.543 196.898 188.424 197.44 188.831 197.575C189.17 197.711 190.186 197.982 191.067 197.169C193.372 194.797 194.66 191.747 194.66 188.493V109.667C194.66 100.72 191.135 92.383 184.9 86.0796L140.708 41.9557C134.676 35.9234 126.746 32.4667 118.273 32.1956L181.714 95.5008C185.577 99.3642 187.746 104.515 187.746 109.938C187.746 115.36 185.645 120.511 181.782 124.375L145.995 160.229C143.487 162.669 142.131 165.991 142.131 169.515V175.886L170.869 147.216C172.767 145.318 175.207 144.301 177.715 144.301Z" fill="#CAA044"/>
<path fill-rule="evenodd" clip-rule="evenodd" d="M127.966 256C57.4085 256 0 198.591 0 127.966C0 57.4085 57.4085 0 127.966 0C198.524 0 255.932 57.4085 255.932 127.966C255.932 198.591 198.524 256 127.966 256ZM127.966 5.89674C60.6619 5.89674 5.89673 60.6619 5.89673 127.966C5.89673 195.338 60.6619 250.103 127.966 250.103C195.27 250.103 250.035 195.338 250.035 127.966C250.035 60.6619 195.27 5.89674 127.966 5.89674Z" fill="#CAA044"/>
</svg>
