<svg width="257" height="252" viewBox="0 0 257 252" fill="none" xmlns="http://www.w3.org/2000/svg">
<path fill-rule="evenodd" clip-rule="evenodd" d="M31.9675 125.656C31.2631 104.243 22.2621 84.3851 6.62239 69.7413C1.34157 64.7967 -0.410983 57.4973 1.46862 50.9937C2.25697 48.2659 3.68449 45.6771 5.75796 43.4628C12.776 35.9675 24.5413 35.5807 32.0365 42.5985C43.1601 53.0139 52.0302 65.2818 58.4001 79.0611C60.2716 83.1095 61.9021 87.2374 63.2904 91.4352C58.9643 93.6102 55.0874 96.5079 51.7545 100.069C48.1093 103.961 45.2938 108.451 43.3855 113.409C41.4096 118.546 40.5 123.96 40.6824 129.502C40.8635 135.042 42.1281 140.385 44.4375 145.381C46.6671 150.204 49.7712 154.498 53.6652 158.143C56.5822 160.875 59.8338 163.141 63.3674 164.908C62.7602 166.755 62.1061 168.59 61.4047 170.413C55.9538 184.582 47.909 197.406 37.4937 208.53C30.4758 216.025 18.7107 216.412 11.2155 209.394C3.71988 202.376 3.33313 190.611 10.3512 183.116C24.9947 167.476 32.6718 147.07 31.9675 125.656Z" fill="url(#paint0_linear_5_7)"/>
<path fill-rule="evenodd" clip-rule="evenodd" d="M110.918 127.192C110.388 111.082 96.8979 98.4511 80.7875 98.9809C64.6772 99.5108 52.0469 113 52.5766 129.111C53.1066 145.221 66.596 157.851 82.7066 157.322C98.8167 156.792 111.448 143.302 110.918 127.192Z" fill="url(#paint1_linear_5_7)"/>
<path fill-rule="evenodd" clip-rule="evenodd" d="M211.27 214.823C200.147 204.408 187.323 196.363 173.154 190.912C171.331 190.211 169.495 189.557 167.648 188.949C165.881 192.483 163.616 195.734 160.884 198.652C157.239 202.546 152.945 205.65 148.123 207.88C143.126 210.189 137.784 211.453 132.242 211.635C126.701 211.818 121.287 210.908 116.151 208.931C111.191 207.024 106.703 204.208 102.81 200.562C99.2498 197.229 96.3512 193.352 94.1761 189.027C89.9784 190.415 85.8504 192.045 81.8023 193.917C68.0229 200.287 55.7551 209.157 45.3396 220.281C38.3219 227.776 38.7088 239.541 46.2039 246.559C48.4183 248.632 51.007 250.06 53.7349 250.848C60.2385 252.728 67.5379 250.975 72.4824 245.695C87.1262 230.055 106.984 221.054 128.397 220.349C149.811 219.645 170.217 227.322 185.857 241.966C193.352 248.984 205.117 248.597 212.135 241.101C219.153 233.606 218.766 221.841 211.27 214.823Z" fill="url(#paint2_linear_5_7)"/>
<path fill-rule="evenodd" clip-rule="evenodd" d="M129.932 141.401C113.822 141.931 101.191 155.421 101.721 171.531C102.251 187.641 115.741 200.272 131.851 199.742C147.961 199.212 160.592 185.722 160.062 169.612C159.532 153.502 146.042 140.871 129.932 141.401Z" fill="url(#paint3_linear_5_7)"/>
<path fill-rule="evenodd" clip-rule="evenodd" d="M211.271 5.43293C209.056 3.35923 206.468 1.93183 203.74 1.14348C197.236 -0.736245 189.937 1.01641 184.992 6.29723C170.348 21.9368 150.491 30.9379 129.078 31.6422C107.664 32.3466 87.2578 24.6695 71.6179 10.026C64.1225 3.00799 52.3576 3.39486 45.3397 10.8903C38.3218 18.3857 38.7088 30.1508 46.2039 37.1687C57.3278 47.5838 70.1517 55.6288 84.3201 61.0795C86.1434 61.7809 87.979 62.4351 89.8257 63.0424C91.5929 59.5094 93.8585 56.2576 96.59 53.3396C100.236 49.4468 104.529 46.3415 109.352 44.1119C114.349 41.8025 119.691 40.5391 125.232 40.3567C130.774 40.1744 136.187 41.0839 141.324 43.0611C146.283 44.9682 150.772 47.7836 154.664 51.43C158.225 54.763 161.123 58.6396 163.298 62.9655C167.496 61.577 171.624 59.9466 175.672 58.0751C189.451 51.7049 201.719 42.8351 212.135 31.7113C219.153 24.2162 218.766 12.4508 211.271 5.43293Z" fill="url(#paint4_linear_5_7)"/>
<path d="M126.583 110.609C142.702 110.609 155.769 97.5416 155.769 81.4225C155.769 65.3034 142.702 52.2363 126.583 52.2363C110.464 52.2363 97.3965 65.3034 97.3965 81.4225C97.3965 97.5416 110.464 110.609 126.583 110.609Z" fill="url(#paint5_linear_5_7)"/>
<path fill-rule="evenodd" clip-rule="evenodd" d="M205.72 152.287C209.366 148.394 212.181 143.905 214.089 138.947C216.065 133.81 216.975 128.395 216.793 122.854C216.611 117.313 215.347 111.97 213.037 106.975C210.808 102.152 207.704 97.8579 203.81 94.2127C200.893 91.4802 197.641 89.2144 194.107 87.4477C194.715 85.6009 195.369 83.7654 196.07 81.9421C201.521 67.7738 209.566 54.9498 219.981 43.8261C226.999 36.3309 238.764 35.9438 246.259 42.9617C253.755 49.9797 254.142 61.7448 247.124 69.2401C232.48 84.8798 224.803 105.286 225.508 126.7C226.212 148.113 235.213 167.971 250.853 182.615C256.133 187.559 257.886 194.858 256.006 201.362C255.218 204.09 253.791 206.678 251.717 208.893C244.699 216.388 232.934 216.775 225.439 209.757C214.315 199.342 205.445 187.074 199.075 173.295C197.203 169.246 195.573 165.118 194.185 160.92C198.511 158.745 202.387 155.848 205.72 152.287Z" fill="url(#paint6_linear_5_7)"/>
<path fill-rule="evenodd" clip-rule="evenodd" d="M146.557 124.802C147.087 140.913 160.577 153.543 176.687 153.013C192.798 152.483 205.428 138.994 204.898 122.883C204.368 106.773 190.879 94.1425 174.768 94.6723C158.658 95.2022 146.027 108.692 146.557 124.802Z" fill="url(#paint7_linear_5_7)"/>
<defs>
<linearGradient id="paint0_linear_5_7" x1="-1.64668" y1="125.996" x2="59.2274" y2="125.996" gradientUnits="userSpaceOnUse">
<stop stop-color="#F7941D"/>
<stop offset="1" stop-color="#FFD200"/>
</linearGradient>
<linearGradient id="paint1_linear_5_7" x1="105.544" y1="115.424" x2="60.8299" y2="139.338" gradientUnits="userSpaceOnUse">
<stop stop-color="#F7941D"/>
<stop offset="1" stop-color="#FFD200"/>
</linearGradient>
<linearGradient id="paint2_linear_5_7" x1="129.003" y1="246.094" x2="128.036" y2="190.052" gradientUnits="userSpaceOnUse">
<stop stop-color="#2B3990"/>
<stop offset="1" stop-color="#1C75BC"/>
</linearGradient>
<linearGradient id="paint3_linear_5_7" x1="132.321" y1="197.738" x2="129.422" y2="142.662" gradientUnits="userSpaceOnUse">
<stop stop-color="#1C75BC"/>
<stop offset="1" stop-color="#2B3990"/>
</linearGradient>
<linearGradient id="paint4_linear_5_7" x1="128.032" y1="1.89654" x2="129.964" y2="55.0406" gradientUnits="userSpaceOnUse">
<stop stop-color="#BE1E2D"/>
<stop offset="1" stop-color="#ED1C24"/>
</linearGradient>
<linearGradient id="paint5_linear_5_7" x1="129.581" y1="66.3052" x2="122.051" y2="104.27" gradientUnits="userSpaceOnUse">
<stop stop-color="#BE1E2D"/>
<stop offset="1" stop-color="#ED1C24"/>
</linearGradient>
<linearGradient id="paint6_linear_5_7" x1="256.576" y1="126.36" x2="201.882" y2="126.36" gradientUnits="userSpaceOnUse">
<stop stop-color="#006838"/>
<stop offset="1" stop-color="#8DC63F"/>
</linearGradient>
<linearGradient id="paint7_linear_5_7" x1="147.876" y1="115.61" x2="196.774" y2="130.064" gradientUnits="userSpaceOnUse">
<stop stop-color="#006838"/>
<stop offset="1" stop-color="#8DC63F"/>
</linearGradient>
</defs>
</svg>
