<svg width="256" height="137" viewBox="0 0 256 137" fill="none" xmlns="http://www.w3.org/2000/svg">
<path d="M89.9805 112.618C92.6969 113.681 95.509 114.587 98.4214 115.297C124.437 121.645 150.601 111.541 166.005 91.6562C153.304 97.2898 139.236 102.196 124.398 106.011C112.714 109.015 101.138 111.218 89.9805 112.618Z" fill="url(#paint0_linear_5_76)"/>
<path d="M178.152 85.8317C169.273 114.902 139.132 132.331 109.228 125.035C100.274 122.85 92.3302 118.682 85.7311 113.12C81.1807 113.612 76.7086 113.965 72.3369 114.18C81.1446 123.9 92.8522 131.179 106.554 134.523C143.021 143.421 179.799 121.072 188.698 84.6028C189.129 82.8362 189.464 81.0697 189.751 79.3047C186.088 81.5415 182.218 83.7234 178.152 85.8317Z" fill="url(#paint1_linear_5_76)"/>
<path d="M190.226 60.8826C187.124 33.3559 167.256 9.4063 138.778 2.45605C112.899 -3.85935 86.8766 5.57378 70.7597 24.6078L70.7738 24.6266C69.6076 26.0013 68.4743 27.4544 67.4069 28.9419L66.8708 29.6896L66.8504 29.699C62.2059 36.3781 58.6775 43.9976 56.6335 52.3727C53.6145 64.748 54.2024 77.1547 57.7088 88.4986C79.0847 90.9486 107.467 88.2509 136.447 80.8022C151.264 76.9932 165.364 72.1591 177.954 66.676C178.706 63.5191 179.222 60.3622 179.504 57.2209C180.067 59.9343 180.418 62.7071 180.583 65.5114C183.918 64.0129 187.135 62.4673 190.226 60.8826ZM73.3461 86.8904C70.4541 86.185 68.6828 83.2679 69.3882 80.3775C70.0935 77.4854 73.0106 75.7142 75.9011 76.4195C78.7931 77.1249 80.5644 80.042 79.859 82.9324C79.1552 85.8229 76.2381 87.5957 73.3461 86.8904ZM82.8921 57.3103C78.7868 56.3087 76.271 52.1689 77.2726 48.0637C78.2743 43.9584 82.414 41.4426 86.5193 42.4442C90.6245 43.4459 93.1403 47.5856 92.1387 51.6908C91.1371 55.7961 86.9973 58.3119 82.8921 57.3103ZM116.617 20.537C117.118 18.4852 119.187 17.2265 121.241 17.7281C123.293 18.2297 124.551 20.2988 124.05 22.3522C123.55 24.4056 121.479 25.6627 119.427 25.1611C117.374 24.6595 116.117 22.5889 116.617 20.537ZM110.811 71.9976C108.759 71.4961 107.5 69.427 108.002 67.3751C108.503 65.3233 110.572 64.0646 112.624 64.5662C114.676 65.0678 115.935 67.1369 115.433 69.1887C114.933 71.2406 112.862 72.4992 110.811 71.9976ZM138.964 58.0533C134.859 57.0517 132.343 52.9119 133.345 48.8067C134.346 44.7014 138.486 42.1856 142.591 43.1872C146.697 44.1889 149.212 48.3286 148.211 52.4338C147.209 56.5407 143.069 59.0549 138.964 58.0533ZM168.347 50.5983C166.295 50.0983 165.036 48.0276 165.538 45.9742C166.038 43.9224 168.109 42.6637 170.16 43.1653C172.214 43.6653 173.471 45.736 172.971 47.7894C172.469 49.8412 170.4 51.0983 168.347 50.5983Z" fill="url(#paint2_linear_5_76)"/>
<path d="M206.093 60.1834L205.387 59.6912L205.119 58.8729C205.04 58.6331 204.863 57.9089 204.96 56.8383C187.796 67.6101 164.221 77.5307 137.381 84.4308C78.7131 99.5132 26.7117 94.4612 21.2318 73.1465C17.6172 59.083 35.1605 41.4566 64.3644 26.7582C65.4914 25.1876 66.6764 23.6687 67.9179 22.2031C46.2661 30.7616 28.3576 41.3453 16.371 52.3146C10.5227 61.6317 8.46304 70.6322 11.0525 78.5982C20.1643 106.636 83.3435 111.235 152.167 88.8684C152.931 88.6207 153.683 88.3621 154.442 88.1097C151.65 89.1051 148.825 90.0753 145.958 91.008C78.8354 112.82 17.219 108.335 8.33294 80.9917C5.72307 72.9599 7.98183 63.8466 14.1405 54.4291C3.30288 65.0692 -1.8761 75.9742 0.616205 85.6691C7.04761 110.689 62.0492 118.171 123.466 102.383C160.161 92.9501 190.826 77.3426 208.206 60.9702C207.025 60.768 206.321 60.3401 206.093 60.1834Z" fill="url(#paint3_linear_5_76)"/>
<path d="M247.129 65.8426L246.205 53.4093L250.253 50.5267C250.785 50.1489 250.901 49.4075 250.512 48.8855L248.687 46.4324C248.285 45.89 247.506 45.8054 246.995 46.2458L245.75 47.3196L244.957 36.6575C245.4 36.3487 245.814 36.0619 246.189 35.8017C248.41 34.2593 250.39 32.3109 251.946 30.096C253.348 28.1022 254.719 25.8842 255.765 24.1176C256.509 22.8605 255.371 21.3306 253.953 21.6817C251.96 22.1755 249.441 22.8495 247.128 23.6176C244.559 24.4703 242.124 25.8058 240.007 27.4893C239.649 27.773 239.256 28.0865 238.833 28.4235L228.947 24.6318L230.285 23.6787C230.817 23.301 230.933 22.5595 230.544 22.0376L228.719 19.5845C228.316 19.0421 227.537 18.9559 227.026 19.3979L223.416 22.5125L211.505 17.9433C211.101 17.7881 210.645 17.8508 210.297 18.1094L206.843 20.677C206.165 21.1817 206.162 22.1959 206.837 22.7038L227 37.9131C221.993 41.9619 216.882 46.1518 213.587 48.9968L210.877 47.9575L211.461 47.5422C211.693 47.3776 211.743 47.0547 211.574 46.8258L210.778 45.7552C210.602 45.5185 210.262 45.4809 210.039 45.6737L208.466 47.0327L203.269 45.0404C203.092 44.973 202.893 44.9997 202.741 45.1126L201.235 46.2333C200.939 46.4528 200.937 46.8964 201.232 47.1174L209.281 53.1898C206.947 56.2041 207.56 58.0725 207.56 58.0725C207.56 58.0725 209.173 59.1964 212.731 57.828L216.229 67.2847C216.358 67.6311 216.781 67.7565 217.077 67.537L218.584 66.4163C218.736 66.3034 218.819 66.12 218.805 65.9319L218.402 60.5084L220.169 59.2513C220.401 59.0867 220.451 58.7638 220.281 58.535L219.485 57.4644C219.31 57.2277 218.969 57.19 218.747 57.3828L218.205 57.8515L217.985 54.9109C221.658 52.5738 227.142 48.8839 232.461 45.2568L241.223 68.9431C241.516 69.7362 242.488 70.0246 243.167 69.5199L246.62 66.9524C246.969 66.6937 247.161 66.2752 247.129 65.8426ZM233.441 31.6745L212.046 20.1691L234.27 29.9785C234.931 30.27 235.033 31.1682 234.452 31.6008C234.158 31.8187 233.763 31.8485 233.441 31.6745ZM240.292 40.8866C240.218 40.5277 240.359 40.1593 240.654 39.9398C241.234 39.5088 242.065 39.863 242.154 40.5809L245.151 64.6873L240.292 40.8866Z" fill="url(#paint4_linear_5_76)"/>
<defs>
<linearGradient id="paint0_linear_5_76" x1="89.98" y1="104.421" x2="166.005" y2="104.421" gradientUnits="userSpaceOnUse">
<stop offset="0.0021" stop-color="#18006B"/>
<stop offset="0.1388" stop-color="#131781"/>
<stop offset="0.3864" stop-color="#0B3AA3"/>
<stop offset="0.6198" stop-color="#0553BB"/>
<stop offset="0.8308" stop-color="#0163CA"/>
<stop offset="1" stop-color="#0068CF"/>
</linearGradient>
<linearGradient id="paint1_linear_5_76" x1="72.3368" y1="107.888" x2="189.751" y2="107.888" gradientUnits="userSpaceOnUse">
<stop offset="0.0021" stop-color="#18006B"/>
<stop offset="0.1388" stop-color="#131781"/>
<stop offset="0.3864" stop-color="#0B3AA3"/>
<stop offset="0.6198" stop-color="#0553BB"/>
<stop offset="0.8308" stop-color="#0163CA"/>
<stop offset="1" stop-color="#0068CF"/>
</linearGradient>
<linearGradient id="paint2_linear_5_76" x1="54.6848" y1="44.9431" x2="190.226" y2="44.9431" gradientUnits="userSpaceOnUse">
<stop offset="0.0021" stop-color="#18006B"/>
<stop offset="0.1388" stop-color="#131781"/>
<stop offset="0.3864" stop-color="#0B3AA3"/>
<stop offset="0.6198" stop-color="#0553BB"/>
<stop offset="0.8308" stop-color="#0163CA"/>
<stop offset="1" stop-color="#0068CF"/>
</linearGradient>
<linearGradient id="paint3_linear_5_76" x1="-0.000601513" y1="66.4295" x2="208.205" y2="66.4295" gradientUnits="userSpaceOnUse">
<stop offset="0.0021" stop-color="#9C00B8"/>
<stop offset="0.0077" stop-color="#9D02B6"/>
<stop offset="0.1994" stop-color="#AE377F"/>
<stop offset="0.386" stop-color="#BC6452"/>
<stop offset="0.5635" stop-color="#C7862E"/>
<stop offset="0.7296" stop-color="#CF9F15"/>
<stop offset="0.8797" stop-color="#D4AE05"/>
<stop offset="1" stop-color="#D6B300"/>
</linearGradient>
<linearGradient id="paint4_linear_5_76" x1="201.014" y1="43.8156" x2="256.001" y2="43.8156" gradientUnits="userSpaceOnUse">
<stop offset="0.0021" stop-color="#9C00B8"/>
<stop offset="0.0077" stop-color="#9D02B6"/>
<stop offset="0.1994" stop-color="#AE377F"/>
<stop offset="0.386" stop-color="#BC6452"/>
<stop offset="0.5635" stop-color="#C7862E"/>
<stop offset="0.7296" stop-color="#CF9F15"/>
<stop offset="0.8797" stop-color="#D4AE05"/>
<stop offset="1" stop-color="#D6B300"/>
</linearGradient>
</defs>
</svg>
