<svg width="206" height="256" viewBox="0 0 206 256" fill="none" xmlns="http://www.w3.org/2000/svg">
<path d="M104.603 43.7894C103.22 43.8287 101.836 43.8287 100.453 43.7894C89.2759 43.4732 86.4904 55.5243 85.8918 63.8003C85.5962 67.8934 88.8326 71.3766 92.935 71.3766H102.528H112.121C116.223 71.3766 119.46 67.8934 119.164 63.8003C118.566 55.5243 115.78 43.4713 104.603 43.7894ZM108.946 55.8367C107.339 55.8367 106.037 54.5347 106.037 52.9278C106.037 51.3208 107.339 50.0169 108.946 50.0169C110.553 50.0169 111.857 51.319 111.857 52.9278C111.855 54.5347 110.553 55.8367 108.946 55.8367ZM113.283 61.9576C112.478 61.9576 111.827 61.3066 111.827 60.5022C111.827 59.6978 112.478 59.0468 113.283 59.0468C114.087 59.0468 114.738 59.6978 114.738 60.5022C114.738 61.3066 114.087 61.9576 113.283 61.9576Z" fill="url(#paint0_linear_5_146)"/>
<path d="M73.0431 180.945C73.0431 182.374 72.8298 183.751 72.452 185.058C75.3422 185.513 77.95 186.794 80.032 188.663C78.9339 185.938 78.3147 182.967 78.3147 179.847C78.3147 169.81 84.5872 161.259 93.415 157.84V151.1H97.1976V156.708C98.3144 156.48 99.4687 156.36 100.636 156.298V151.101H104.419V156.377C105.593 156.5 106.74 156.706 107.857 156.996V151.101H111.639V158.332C118.486 161.43 123.597 167.689 125.088 175.256C129.731 175.499 133.802 177.866 136.353 181.414C136.984 173.797 143.353 167.809 151.134 167.809C153.609 167.809 155.936 168.422 157.988 169.494C170.524 145.893 178.046 118.439 180.393 87.5013L131.736 71.7462C131.736 71.7406 131.736 71.735 131.736 71.7294L126.635 70.375C126.657 87.969 122.776 103.195 123.906 114.679C125.163 127.469 116.909 126.341 116.909 126.341C109.135 126.73 110.302 136.059 110.302 136.059H107.275H97.7794H94.7526C94.7526 136.059 95.9181 126.73 88.1453 126.341C88.1453 126.341 79.8898 127.469 81.1488 114.679C82.2769 103.202 78.4008 87.9895 78.4195 70.4106L73.0618 71.8342L24.6611 87.5069C27.0163 119.066 34.6881 146.874 47.5491 170.624C50.2467 167.842 54.0181 166.106 58.1991 166.106C66.3965 166.101 73.0431 172.747 73.0431 180.945ZM153.266 126.281L155.208 132.097L161.024 134.039L155.208 135.981L153.266 141.797L151.323 135.981L145.507 134.039L151.323 132.097L153.266 126.281ZM128.799 93.9496C129.405 88.5171 130.064 82.6075 130.331 76.3126C148.096 93.611 150.348 118.594 150.348 118.594H127.819C127.901 117.332 127.875 115.96 127.729 114.477C127.157 108.666 127.918 101.846 128.799 93.9496ZM133.123 157.473L135.066 151.657L137.008 157.473L142.824 159.417L137.008 161.358L135.066 167.175L133.123 161.358L127.307 159.417L133.123 157.473ZM93.415 144.466H94.5767L97.2051 138.334H107.849L110.478 144.466H111.639C113.523 144.466 115.05 145.993 115.05 147.876H90.0047C90.0047 145.993 91.5312 144.466 93.415 144.466ZM74.723 76.3107C74.9905 82.6057 75.649 88.5152 76.2551 93.9477C77.1362 101.844 77.8975 108.665 77.327 114.473C77.1811 115.957 77.153 117.328 77.2372 118.59H54.7065C54.7065 118.59 56.9588 93.6091 74.723 76.3107ZM53.7431 135.982L51.8013 141.798L49.8576 135.982L44.0416 134.041L49.8576 132.099L51.8013 126.283L53.7431 132.099L59.5591 134.041L53.7431 135.982ZM62.2417 159.415L68.0577 157.471L69.9995 151.655L71.9431 157.471L77.7592 159.415L71.9431 161.357L69.9995 167.173L68.0577 161.357L62.2417 159.415Z" fill="url(#paint1_linear_5_146)"/>
<path d="M128.777 45.6582C128.149 43.1833 124.065 24.0516 106.381 4.4055L102.526 0L98.6702 4.4055C80.6048 24.9252 76.9027 43.187 76.2723 45.662L0 70.359C1.95301 216.831 102.529 256 102.529 256C102.529 256 203.106 216.829 205.059 70.359L128.777 45.6582ZM102.528 7.77837C110.248 16.6025 115.621 25.2657 119.3 33.6689C113.86 34.1646 108.256 34.4265 102.528 34.4265C96.7995 34.4265 91.1949 34.1646 85.7549 33.6689C89.4345 25.2657 94.8072 16.6025 102.528 7.77837ZM73.4606 64.5205C73.3727 66.2397 73.339 66.0564 73.3278 67.7306L78.4517 65.9778C78.6818 56.0706 80.2475 47.3213 84.6904 36.2224C90.4634 36.7836 96.4254 37.0811 102.529 37.0811C108.632 37.0811 114.596 36.7836 120.369 36.2224C124.804 47.3026 126.373 56.035 126.607 65.931L131.731 67.6839C131.72 66.0246 131.686 66.221 131.598 64.5168L187.562 82.6383C181.739 185.894 122.207 226.434 102.576 237.052C94.2647 232.532 78.8221 222.692 63.486 205.334C35.7155 173.904 20.2765 132.674 17.5042 82.6401L73.4606 64.5205ZM154.32 204.46C149.714 210.708 144.643 216.631 139.141 222.142C137.781 223.536 136.326 224.83 134.921 226.181L132.794 228.186L130.575 230.089L126.121 233.885L121.476 237.446C118.43 239.903 115.108 241.962 111.904 244.207C108.849 246.227 105.667 248.05 102.533 249.961C99.3998 248.05 96.2177 246.227 93.1628 244.207C89.9583 241.964 86.636 239.903 83.5905 237.446L78.9455 233.885L74.4914 230.089L72.2727 228.186L70.1457 226.181C68.7408 224.83 67.2854 223.536 65.9254 222.142C60.4218 216.631 55.3504 210.708 50.7447 204.46C46.1764 198.193 41.9898 191.612 38.832 184.543C42.3228 191.448 46.8013 197.786 51.6277 203.779C56.4896 209.752 61.7818 215.361 67.465 220.53C68.8699 221.837 70.3665 223.044 71.8125 224.305L73.9957 226.175L76.2667 227.941L80.8144 231.456L85.5379 234.73C88.6301 236.99 91.99 238.853 95.2188 240.894C97.6133 242.318 100.075 243.623 102.529 244.937C104.984 243.623 107.446 242.318 109.84 240.894C113.069 238.853 116.429 236.99 119.521 234.73L124.245 231.456L128.792 227.941L131.063 226.175L133.248 224.305C134.692 223.044 136.191 221.837 137.596 220.53C143.277 215.361 148.569 209.752 153.433 203.779C158.26 197.786 162.736 191.446 166.229 184.543C163.075 191.612 158.888 198.193 154.32 204.46Z" fill="url(#paint2_linear_5_146)"/>
<path d="M102.177 13.2148C102.177 13.2148 110.211 20.7444 113.021 29.6714C113.021 29.6714 104.726 19.5247 99.6025 16.5484L102.177 13.2148Z" fill="url(#paint3_linear_5_146)"/>
<defs>
<linearGradient id="paint0_linear_5_146" x1="100.951" y1="58.5249" x2="233.231" y2="190.805" gradientUnits="userSpaceOnUse">
<stop offset="0.0021" stop-color="#9C00B8"/>
<stop offset="0.0077" stop-color="#9D02B6"/>
<stop offset="0.1994" stop-color="#AE377F"/>
<stop offset="0.386" stop-color="#BC6452"/>
<stop offset="0.5635" stop-color="#C7862E"/>
<stop offset="0.7296" stop-color="#CF9F15"/>
<stop offset="0.8797" stop-color="#D4AE05"/>
<stop offset="1" stop-color="#D6B300"/>
</linearGradient>
<linearGradient id="paint1_linear_5_146" x1="72.1934" y1="87.2805" x2="204.474" y2="219.561" gradientUnits="userSpaceOnUse">
<stop offset="0.0021" stop-color="#9C00B8"/>
<stop offset="0.0077" stop-color="#9D02B6"/>
<stop offset="0.1994" stop-color="#AE377F"/>
<stop offset="0.386" stop-color="#BC6452"/>
<stop offset="0.5635" stop-color="#C7862E"/>
<stop offset="0.7296" stop-color="#CF9F15"/>
<stop offset="0.8797" stop-color="#D4AE05"/>
<stop offset="1" stop-color="#D6B300"/>
</linearGradient>
<linearGradient id="paint2_linear_5_146" x1="0.00336726" y1="128.001" x2="205.064" y2="128.001" gradientUnits="userSpaceOnUse">
<stop offset="0.0021" stop-color="#18006B"/>
<stop offset="0.1388" stop-color="#131781"/>
<stop offset="0.3864" stop-color="#0B3AA3"/>
<stop offset="0.6198" stop-color="#0553BB"/>
<stop offset="0.8308" stop-color="#0163CA"/>
<stop offset="1" stop-color="#0068CF"/>
</linearGradient>
<linearGradient id="paint3_linear_5_146" x1="99.602" y1="21.4435" x2="113.021" y2="21.4435" gradientUnits="userSpaceOnUse">
<stop offset="0.0021" stop-color="#18006B"/>
<stop offset="0.1388" stop-color="#131781"/>
<stop offset="0.3864" stop-color="#0B3AA3"/>
<stop offset="0.6198" stop-color="#0553BB"/>
<stop offset="0.8308" stop-color="#0163CA"/>
<stop offset="1" stop-color="#0068CF"/>
</linearGradient>
</defs>
</svg>
