<svg width="256" height="192" viewBox="0 0 256 192" fill="none" xmlns="http://www.w3.org/2000/svg">
<path d="M220.136 0H128H35.8641C16.0565 0 0 16.0565 0 35.8642V116.748C0 131.109 8.56812 144.086 21.7752 149.729L113.911 189.089C122.911 192.934 133.089 192.934 142.089 189.089L234.225 149.729C247.432 144.086 256 131.111 256 116.748V35.8642C256 16.0565 239.943 0 220.136 0ZM128 186.311L73.7119 163.2L128 183.422L182.288 163.2L128 186.311ZM239.258 116.748C239.258 124.419 234.701 131.321 227.648 134.333L135.512 173.692C133.125 174.712 130.597 175.23 128 175.23C125.403 175.23 122.875 174.712 120.488 173.692L28.3518 134.333C21.2993 131.319 16.7423 124.417 16.7423 116.748V35.8621C16.7423 25.3185 25.3205 16.7424 35.8641 16.7424H220.136C230.68 16.7424 239.258 25.3185 239.258 35.8621V116.748Z" fill="url(#paint0_linear_5_112)"/>
<path d="M154.085 60.3457H138.606H116.505H101.026C90.8584 60.3457 82.6162 68.5879 82.6162 78.7557V108.985C82.6162 119.463 91.1104 127.955 101.586 127.955H116.503H138.604H153.521C163.998 127.955 172.491 119.461 172.491 108.985V78.7557C172.495 68.5879 164.252 60.3457 154.085 60.3457ZM101.586 122.376C94.2037 122.376 88.197 116.369 88.197 108.985V78.7557C88.197 71.6812 93.9517 65.9265 101.026 65.9265H102.848C99.5925 70.0735 98.1368 76.3762 102.83 80.2793C106.017 82.9307 110.5 83.1847 114.367 84.6783C119.092 86.5039 122.989 90.3691 124.855 95.0781C127.606 102.023 126.505 111.119 132.407 115.694C135.609 118.175 139.948 118.439 143.747 119.839C145.203 120.375 146.646 121.266 147.8 122.374L101.586 122.376ZM158.6 91.3069C158.194 92.8705 156.536 93.7943 154.9 93.3684C153.265 92.9425 152.269 91.3289 152.675 89.7652C153.083 88.2016 154.738 87.2778 156.374 87.7037C158.01 88.1296 159.007 89.7412 158.6 91.3069ZM166.512 81.841C165.868 84.3185 162.027 85.4642 157.934 84.3984C153.841 83.3327 151.043 80.4613 151.689 77.9838C152.335 75.5064 156.174 74.3606 160.267 75.4264C164.36 76.4922 167.156 79.3635 166.512 81.841Z" fill="url(#paint1_linear_5_112)"/>
<path d="M220.136 22.3223H35.8623C28.3839 22.3223 22.3232 28.3849 22.3232 35.8633V116.748C22.3232 122.17 25.5585 127.069 30.5434 129.199L50.5451 137.743C52.1467 135.587 53.8803 133.54 55.7159 131.588L127.998 158.42L200.29 131.584C202.126 133.536 203.86 135.585 205.459 137.739L225.453 129.199C230.448 127.067 233.675 122.178 233.675 116.748V35.8613C233.677 28.3849 227.614 22.3223 220.136 22.3223ZM44.0545 74.027L42.1209 79.8157L40.1873 74.027L34.3986 72.0934L40.1873 70.1598L42.1209 64.371L44.0545 70.1598L49.8432 72.0934L44.0545 74.027ZM188.799 81.5893C188.799 79.9897 190.095 78.694 191.696 78.694H193.372V113.47C190.756 112.868 188.801 110.539 188.801 107.74L188.799 81.5893ZM112.511 34.0777V34.0037C112.511 32.4661 113.757 31.2203 115.295 31.2203H139.959C141.497 31.2203 142.743 32.4661 142.743 34.0037V34.0597H142.807C143.223 34.0597 143.635 34.0797 144.049 34.0917C143.871 35.6314 143.115 37.8289 140.409 38.9746C136.556 40.6063 136.406 44.3034 136.298 47.0028C136.218 48.9704 136.116 50.1922 135.368 50.5661C132.319 52.0878 127.76 51.5899 127.716 51.5859L127.554 51.5679L127.396 51.5859C127.352 51.5899 122.793 52.0878 119.744 50.5661C118.996 50.1922 118.894 48.9705 118.814 47.0009C118.706 44.3015 118.556 40.6043 114.703 38.9746C112.008 37.8329 111.248 35.6494 111.066 34.1137C111.544 34.0917 112.028 34.0857 112.511 34.0777ZM70.0928 77.1602C70.0928 55.0191 86.7911 36.7891 108.278 34.3476C108.562 36.8431 109.878 39.9624 113.613 41.5441C115.687 42.4219 115.907 44.2335 116.023 47.1149C116.115 49.3704 116.217 51.9258 118.494 53.0616C121.969 54.7972 126.614 54.4613 127.552 54.3713C127.86 54.4013 128.572 54.4573 129.512 54.4573C131.423 54.4573 134.281 54.2233 136.61 53.0616C138.888 51.9258 138.992 49.3684 139.082 47.1149C139.198 44.2335 139.418 42.4219 141.493 41.5441C145.274 39.9424 146.578 36.7651 146.838 34.2537C168.749 36.2892 185.903 54.7172 185.903 77.1583V105.548C185.903 111.859 187.999 117.919 191.754 122.862L127.996 146.529L64.2481 122.864C67.9972 117.923 70.0908 111.867 70.0908 105.56L70.0928 77.1602ZM62.6304 78.6919H64.3061C65.9057 78.6919 67.2034 79.9877 67.2034 81.5873V107.738C67.2034 110.535 65.2478 112.866 62.6324 113.468L62.6304 78.6919ZM52.7746 108.237V84.0868C52.7746 81.1074 55.1901 78.694 58.1694 78.694H60.045V113.632H58.1694C55.1901 113.63 52.7746 111.215 52.7746 108.237ZM128 156.931L56.7777 130.493C57.9334 129.317 59.1152 128.165 60.3509 127.075C60.6648 126.799 60.9668 126.511 61.2667 126.224L128 150.994L194.743 126.22C195.039 126.503 195.337 126.787 195.647 127.059C196.889 128.155 198.075 129.309 199.232 130.489L128 156.931ZM203.226 108.237C203.226 111.217 200.81 113.63 197.833 113.63H195.957V78.6919H197.833C200.812 78.6919 203.226 81.1074 203.226 84.0847V108.237ZM199.073 53.1655L197.045 59.2362L195.017 53.1655L188.947 51.138L195.017 49.1104L197.045 43.0397L199.073 49.1104L205.143 51.138L199.073 53.1655ZM219.14 117.481L217.207 123.27L215.273 117.481L209.484 115.548L215.273 113.614L217.207 107.826L219.14 113.614L224.929 115.548L219.14 117.481Z" fill="url(#paint2_linear_5_112)"/>
<defs>
<linearGradient id="paint0_linear_5_112" x1="50.985" y1="-0.70845" x2="256.808" y2="205.115" gradientUnits="userSpaceOnUse">
<stop offset="0.0021" stop-color="#9C00B8"/>
<stop offset="0.0077" stop-color="#9D02B6"/>
<stop offset="0.1994" stop-color="#AE377F"/>
<stop offset="0.386" stop-color="#BC6452"/>
<stop offset="0.5635" stop-color="#C7862E"/>
<stop offset="0.7296" stop-color="#CF9F15"/>
<stop offset="0.8797" stop-color="#D4AE05"/>
<stop offset="1" stop-color="#D6B300"/>
</linearGradient>
<linearGradient id="paint1_linear_5_112" x1="73.1445" y1="39.5759" x2="269.13" y2="235.562" gradientUnits="userSpaceOnUse">
<stop offset="0.0021" stop-color="#9C00B8"/>
<stop offset="0.0077" stop-color="#9D02B6"/>
<stop offset="0.1994" stop-color="#AE377F"/>
<stop offset="0.386" stop-color="#BC6452"/>
<stop offset="0.5635" stop-color="#C7862E"/>
<stop offset="0.7296" stop-color="#CF9F15"/>
<stop offset="0.8797" stop-color="#D4AE05"/>
<stop offset="1" stop-color="#D6B300"/>
</linearGradient>
<linearGradient id="paint2_linear_5_112" x1="22.3238" y1="90.3708" x2="233.676" y2="90.3708" gradientUnits="userSpaceOnUse">
<stop offset="0.0021" stop-color="#18006B"/>
<stop offset="0.1388" stop-color="#131781"/>
<stop offset="0.3864" stop-color="#0B3AA3"/>
<stop offset="0.6198" stop-color="#0553BB"/>
<stop offset="0.8308" stop-color="#0163CA"/>
<stop offset="1" stop-color="#0068CF"/>
</linearGradient>
</defs>
</svg>
