<svg width="256" height="234" viewBox="0 0 256 234" fill="none" xmlns="http://www.w3.org/2000/svg">
<path d="M164.351 100.775C171.673 97.9189 176.702 91.7935 178.547 84.7293C175.082 78.6109 168.525 74.4746 160.991 74.4746C149.849 74.4746 140.816 83.507 140.816 94.6494C140.816 95.4975 140.886 96.3272 140.986 97.1474C147.353 102.269 156.193 103.954 164.351 100.775Z" fill="url(#paint0_linear_5_181)"/>
<path d="M178.981 85.5488C178.431 94.4372 172.872 102.635 164.03 106.084C156.927 108.854 149.307 107.924 143.249 104.26C146.665 110.552 153.329 114.826 160.993 114.826C172.135 114.826 181.168 105.793 181.168 94.6509C181.168 91.3721 180.369 88.2862 178.981 85.5488Z" fill="url(#paint1_linear_5_181)"/>
<path d="M253.87 105.145C243.392 113.246 200.728 144.782 187.989 131.432C173.429 116.174 157.627 137.952 147.386 138.189C125.729 138.689 121.14 114.733 109.581 131.704C102.387 142.267 96.5218 137.731 96.5218 137.731L122.099 42.2742C122.099 42.2742 121.825 57.5319 143.018 57.5319C164.21 57.5319 179.658 41.0031 183.344 54.1416C187.029 67.28 196.292 70.6704 210.597 64.7379C224.639 58.9123 208.236 113.488 253.642 103.867C242.214 44.8908 190.324 0.351562 128.009 0.351562C57.318 0.351562 0.00976562 57.6575 0.00976562 128.35C0.00976562 149.792 5.31251 169.98 14.6377 187.729L15.7624 187.353L18.9297 177.869L22.097 187.353L31.5802 190.52L22.097 193.687L20.6492 198.019C26.4423 206.921 33.302 215.066 41.0634 222.253C49.9912 215.653 59.6998 210.056 70.0172 205.599L114.745 38.6748C115.195 36.9901 116.927 35.626 118.611 35.626C120.296 35.626 121.295 36.9901 120.845 38.6748L76.8537 202.852C92.7806 196.908 110.011 193.643 128.011 193.643C160.571 193.643 190.638 204.283 214.956 222.255C240.194 198.876 256.01 165.465 256.01 128.35C256.007 120.422 255.25 112.674 253.87 105.145ZM160.253 19.7827L163.42 10.2995L166.587 19.7827L176.071 22.95L166.587 26.1172L163.42 35.6005L160.253 26.1172L150.77 22.95L160.253 19.7827ZM50.3467 133.632L47.6698 141.649L44.9928 133.632L36.9759 130.955L44.9928 128.278L47.6698 120.261L50.3467 128.278L58.3636 130.955L50.3467 133.632ZM63.6292 64.0524L60.9523 72.0693L58.2754 64.0524L50.2584 61.3754L58.2754 58.6985L60.9523 50.6815L63.6292 58.6985L71.6462 61.3754L63.6292 64.0524ZM130.367 173.84L127.2 183.323L124.033 173.84L114.549 170.673L124.033 167.505L127.2 158.022L130.367 167.505L139.85 170.673L130.367 173.84ZM222.404 179.187L219.813 186.946L217.222 179.187L209.463 176.596L217.222 174.005L219.813 166.246L222.404 174.005L230.163 176.596L222.404 179.187Z" fill="url(#paint2_linear_5_181)"/>
<path d="M180.229 72.3828L180.921 74.7623L183.398 74.688L181.351 76.0822L182.187 78.4129L180.229 76.8978L178.27 78.4129L179.106 76.0822L177.057 74.688L179.534 74.7623L180.229 72.3828Z" fill="url(#paint3_linear_5_181)"/>
<path d="M146.356 214.166C146.356 217.582 138.051 220.349 127.805 220.349C117.56 220.349 109.255 217.582 109.255 214.166C109.255 210.75 117.56 207.982 127.805 207.982C138.051 207.982 146.356 210.752 146.356 214.166Z" fill="url(#paint4_linear_5_181)"/>
<path d="M76.8535 227.602C76.8535 229.059 73.3098 230.242 68.9365 230.242C64.5632 230.242 61.0195 229.062 61.0195 227.602C61.0195 226.145 64.5632 224.965 68.9365 224.965C73.3075 224.963 76.8535 226.145 76.8535 227.602Z" fill="url(#paint5_linear_5_181)"/>
<path d="M175.297 231.315C175.297 232.772 171.753 233.955 167.38 233.955C163.007 233.955 159.463 232.775 159.463 231.315C159.463 229.858 163.007 228.678 167.38 228.678C171.753 228.678 175.297 229.858 175.297 231.315Z" fill="url(#paint6_linear_5_181)"/>
<path d="M185.193 211.693C185.193 213.15 181.65 214.33 177.276 214.33C172.903 214.33 169.359 213.15 169.359 211.693C169.359 210.236 172.903 209.053 177.276 209.053C181.647 209.053 185.193 210.236 185.193 211.693Z" fill="url(#paint7_linear_5_181)"/>
<path d="M101.092 206.909C101.092 208.366 97.5481 209.547 93.1748 209.547C88.8038 209.547 85.2578 208.366 85.2578 206.909C85.2578 205.452 88.8015 204.27 93.1748 204.27C97.5481 204.27 101.092 205.452 101.092 206.909Z" fill="url(#paint8_linear_5_181)"/>
<defs>
<linearGradient id="paint0_linear_5_181" x1="140.512" y1="71.1635" x2="232.602" y2="163.254" gradientUnits="userSpaceOnUse">
<stop offset="0.0021" stop-color="#9C00B8"/>
<stop offset="0.0077" stop-color="#9D02B6"/>
<stop offset="0.1994" stop-color="#AE377F"/>
<stop offset="0.386" stop-color="#BC6452"/>
<stop offset="0.5635" stop-color="#C7862E"/>
<stop offset="0.7296" stop-color="#CF9F15"/>
<stop offset="0.8797" stop-color="#D4AE05"/>
<stop offset="1" stop-color="#D6B300"/>
</linearGradient>
<linearGradient id="paint1_linear_5_181" x1="138.647" y1="73.0264" x2="230.738" y2="165.117" gradientUnits="userSpaceOnUse">
<stop offset="0.0021" stop-color="#9C00B8"/>
<stop offset="0.0077" stop-color="#9D02B6"/>
<stop offset="0.1994" stop-color="#AE377F"/>
<stop offset="0.386" stop-color="#BC6452"/>
<stop offset="0.5635" stop-color="#C7862E"/>
<stop offset="0.7296" stop-color="#CF9F15"/>
<stop offset="0.8797" stop-color="#D4AE05"/>
<stop offset="1" stop-color="#D6B300"/>
</linearGradient>
<linearGradient id="paint2_linear_5_181" x1="0.0111599" y1="111.303" x2="256.008" y2="111.303" gradientUnits="userSpaceOnUse">
<stop offset="0.0021" stop-color="#18006B"/>
<stop offset="0.1388" stop-color="#131781"/>
<stop offset="0.3864" stop-color="#0B3AA3"/>
<stop offset="0.6198" stop-color="#0553BB"/>
<stop offset="0.8308" stop-color="#0163CA"/>
<stop offset="1" stop-color="#0068CF"/>
</linearGradient>
<linearGradient id="paint3_linear_5_181" x1="157.978" y1="53.695" x2="250.07" y2="145.785" gradientUnits="userSpaceOnUse">
<stop offset="0.0021" stop-color="#9C00B8"/>
<stop offset="0.0077" stop-color="#9D02B6"/>
<stop offset="0.1994" stop-color="#AE377F"/>
<stop offset="0.386" stop-color="#BC6452"/>
<stop offset="0.5635" stop-color="#C7862E"/>
<stop offset="0.7296" stop-color="#CF9F15"/>
<stop offset="0.8797" stop-color="#D4AE05"/>
<stop offset="1" stop-color="#D6B300"/>
</linearGradient>
<linearGradient id="paint4_linear_5_181" x1="83.5299" y1="169.892" x2="217.436" y2="303.798" gradientUnits="userSpaceOnUse">
<stop offset="0.0021" stop-color="#9C00B8"/>
<stop offset="0.0077" stop-color="#9D02B6"/>
<stop offset="0.1994" stop-color="#AE377F"/>
<stop offset="0.386" stop-color="#BC6452"/>
<stop offset="0.5635" stop-color="#C7862E"/>
<stop offset="0.7296" stop-color="#CF9F15"/>
<stop offset="0.8797" stop-color="#D4AE05"/>
<stop offset="1" stop-color="#D6B300"/>
</linearGradient>
<linearGradient id="paint5_linear_5_181" x1="47.3764" y1="206.042" x2="181.284" y2="339.947" gradientUnits="userSpaceOnUse">
<stop offset="0.0021" stop-color="#9C00B8"/>
<stop offset="0.0077" stop-color="#9D02B6"/>
<stop offset="0.1994" stop-color="#AE377F"/>
<stop offset="0.386" stop-color="#BC6452"/>
<stop offset="0.5635" stop-color="#C7862E"/>
<stop offset="0.7296" stop-color="#CF9F15"/>
<stop offset="0.8797" stop-color="#D4AE05"/>
<stop offset="1" stop-color="#D6B300"/>
</linearGradient>
<linearGradient id="paint6_linear_5_181" x1="94.7431" y1="158.679" x2="228.647" y2="292.583" gradientUnits="userSpaceOnUse">
<stop offset="0.0021" stop-color="#9C00B8"/>
<stop offset="0.0077" stop-color="#9D02B6"/>
<stop offset="0.1994" stop-color="#AE377F"/>
<stop offset="0.386" stop-color="#BC6452"/>
<stop offset="0.5635" stop-color="#C7862E"/>
<stop offset="0.7296" stop-color="#CF9F15"/>
<stop offset="0.8797" stop-color="#D4AE05"/>
<stop offset="1" stop-color="#D6B300"/>
</linearGradient>
<linearGradient id="paint7_linear_5_181" x1="109.503" y1="143.918" x2="243.41" y2="277.823" gradientUnits="userSpaceOnUse">
<stop offset="0.0021" stop-color="#9C00B8"/>
<stop offset="0.0077" stop-color="#9D02B6"/>
<stop offset="0.1994" stop-color="#AE377F"/>
<stop offset="0.386" stop-color="#BC6452"/>
<stop offset="0.5635" stop-color="#C7862E"/>
<stop offset="0.7296" stop-color="#CF9F15"/>
<stop offset="0.8797" stop-color="#D4AE05"/>
<stop offset="1" stop-color="#D6B300"/>
</linearGradient>
<linearGradient id="paint8_linear_5_181" x1="69.8433" y1="183.577" x2="203.748" y2="317.483" gradientUnits="userSpaceOnUse">
<stop offset="0.0021" stop-color="#9C00B8"/>
<stop offset="0.0077" stop-color="#9D02B6"/>
<stop offset="0.1994" stop-color="#AE377F"/>
<stop offset="0.386" stop-color="#BC6452"/>
<stop offset="0.5635" stop-color="#C7862E"/>
<stop offset="0.7296" stop-color="#CF9F15"/>
<stop offset="0.8797" stop-color="#D4AE05"/>
<stop offset="1" stop-color="#D6B300"/>
</linearGradient>
</defs>
</svg>
