<svg width="228" height="257" viewBox="0 0 228 257" fill="none" xmlns="http://www.w3.org/2000/svg">
<path d="M164.907 99.6504C164.976 99.5115 165.063 99.3726 165.167 99.2338C165.41 98.8172 165.653 98.3832 165.896 97.9319C166.035 97.7583 166.156 97.5674 166.261 97.3591C166.504 96.9772 166.764 96.5953 167.042 96.2134C167.181 96.0051 167.319 95.7795 167.458 95.5365C167.701 95.1893 167.962 94.8248 168.239 94.4429C168.378 94.1999 168.534 93.9569 168.708 93.7139C168.986 93.3667 169.264 93.0195 169.541 92.6724C169.715 92.3946 169.888 92.1343 170.062 91.8912C170.374 91.5094 170.687 91.1448 170.999 90.7977C171.173 90.5546 171.347 90.3116 171.52 90.0686C172.006 89.4784 172.527 88.8709 173.082 88.246C173.082 88.246 173.082 88.2286 173.082 88.1939C158.449 78.3518 128.402 65.5414 127.465 32.0573C127.465 31.8143 127.465 31.5713 127.465 31.3283C127.465 30.9117 127.465 30.5124 127.465 30.1305C127.465 29.9222 127.465 29.6966 127.465 29.4536C127.465 28.9675 127.482 28.4815 127.517 27.9955C127.517 27.8566 127.517 27.7178 127.517 27.5789C127.586 26.2597 127.69 24.9057 127.829 23.5171C127.864 23.3782 127.881 23.2567 127.881 23.1525C127.951 22.5623 128.02 21.9895 128.09 21.4341C128.124 21.2605 128.159 21.0695 128.194 20.8612C128.263 20.3405 128.35 19.8024 128.454 19.2469C128.489 19.0733 128.524 18.8824 128.558 18.6741C128.663 18.1186 128.767 17.5458 128.871 16.9556C128.906 16.8168 128.94 16.6605 128.975 16.487C129.287 15.0289 129.635 13.5361 130.016 12.0085C130.086 11.7655 130.155 11.5225 130.225 11.2795C130.364 10.7587 130.52 10.238 130.693 9.71723C130.763 9.40479 130.85 9.1097 130.954 8.83196C131.093 8.34593 131.232 7.84255 131.37 7.3218C131.475 7.04407 131.579 6.74897 131.683 6.43652C131.856 5.91577 132.03 5.37767 132.204 4.82221C132.308 4.54448 132.412 4.26674 132.516 3.98901C132.794 3.19053 133.089 2.39205 133.401 1.59357C133.505 1.24641 133.644 0.881882 133.818 0.5C42.2184 27.0061 31.3869 107.93 30.814 113.138C30.7793 113.346 30.7446 113.554 30.7099 113.763C30.4495 116.731 31.7514 119.335 33.6261 119.491C33.9733 119.526 34.3204 119.474 34.6676 119.335C38.5211 117.824 42.8433 117.824 46.2282 120.22C59.0386 129.021 61.9027 142.508 61.7985 153.183C61.7465 158.547 60.9133 163.13 60.2363 166.15C59.785 168.129 59.4031 170.125 59.0907 172.138C59.0559 172.486 59.0212 172.833 58.9865 173.18C58.8476 174.36 58.7261 175.35 58.622 176.148C58.5525 176.947 58.5005 177.554 58.4657 177.971C58.4657 178.075 58.4657 178.162 58.4657 178.231C58.431 178.37 58.4137 178.474 58.4137 178.544C58.4137 178.578 58.4137 178.613 58.4137 178.648C58.379 179.412 58.3442 180.158 58.3095 180.887C57.1639 212.653 72.8905 216.09 73.6195 216.298C73.6542 216.298 73.6716 216.298 73.6716 216.298C79.9726 216.246 86.0133 215.569 91.0646 214.684C97.8864 213.486 104.552 211.455 111.009 208.851C135.328 199.061 147.253 201.613 152.044 203.852L152.096 203.904C152.981 204.321 153.658 204.737 154.127 205.05V205.102C154.37 205.275 154.596 205.466 154.804 205.675C154.839 205.675 154.856 205.675 154.856 205.675C143.087 189.688 137.151 175.055 139.911 162.453C139.98 162.105 140.067 161.758 140.171 161.411C140.24 161.064 140.327 160.717 140.431 160.37C140.536 160.057 140.64 159.745 140.744 159.432C140.883 159.05 141.022 158.686 141.16 158.339C141.265 158.061 141.369 157.766 141.473 157.453C141.647 157.071 141.82 156.69 141.994 156.308C142.133 156.065 142.271 155.804 142.41 155.527C142.619 155.11 142.862 154.676 143.139 154.225C143.243 154.051 143.348 153.86 143.452 153.652C143.834 153.027 144.25 152.419 144.702 151.829C144.806 151.656 144.927 151.482 145.066 151.309C145.379 150.892 145.708 150.458 146.056 150.007C146.264 149.764 146.472 149.538 146.68 149.33C146.993 148.948 147.305 148.583 147.618 148.236C147.895 147.993 148.156 147.75 148.399 147.507C148.711 147.16 149.041 146.83 149.388 146.518C149.666 146.275 149.944 146.014 150.221 145.737C150.569 145.424 150.933 145.129 151.315 144.851C151.628 144.574 151.94 144.313 152.252 144.07C152.634 143.758 153.016 143.463 153.398 143.185C153.711 142.942 154.058 142.699 154.44 142.456C154.821 142.143 155.238 141.848 155.689 141.571C156.037 141.328 156.401 141.085 156.783 140.842C157.234 140.564 157.686 140.286 158.137 140.008C158.519 139.765 158.901 139.522 159.283 139.279C159.838 139.002 160.393 138.706 160.949 138.394C161.313 138.186 161.626 137.977 161.99 137.821C162.928 137.335 163.9 136.849 164.907 136.363C165.15 136.259 165.393 136.137 165.636 135.999C158.866 126.261 157.356 115.429 163.136 103.087C163.414 102.532 163.692 101.959 163.969 101.369C164.039 101.299 164.091 101.213 164.125 101.108C164.368 100.622 164.629 100.136 164.907 99.6504Z" fill="url(#paint0_linear_5_225)"/>
<path style="mix-blend-mode:multiply" d="M164.907 99.6504C164.976 99.5115 165.063 99.3726 165.167 99.2338C165.41 98.8172 165.653 98.3832 165.896 97.9319C166.035 97.7583 166.156 97.5674 166.261 97.3591C166.504 96.9772 166.764 96.5953 167.042 96.2134C167.181 96.0051 167.319 95.7795 167.458 95.5365C167.701 95.1893 167.962 94.8248 168.239 94.4429C168.378 94.1999 168.534 93.9569 168.708 93.7139C168.986 93.3667 169.264 93.0195 169.541 92.6724C169.715 92.3946 169.888 92.1343 170.062 91.8912C170.374 91.5094 170.687 91.1448 170.999 90.7977C171.173 90.5546 171.347 90.3116 171.52 90.0686C172.006 89.4784 172.527 88.8709 173.082 88.246C173.082 88.246 173.082 88.2286 173.082 88.1939C158.449 78.3518 128.402 65.5414 127.465 32.0573C127.465 31.8143 127.465 31.5713 127.465 31.3283C127.465 30.9117 127.465 30.5124 127.465 30.1305C127.465 29.9222 127.465 29.6966 127.465 29.4536C127.465 28.9675 127.482 28.4815 127.517 27.9955C127.517 27.8566 127.517 27.7178 127.517 27.5789C127.586 26.2597 127.69 24.9057 127.829 23.5171C127.864 23.3782 127.881 23.2567 127.881 23.1525C127.951 22.5623 128.02 21.9895 128.09 21.4341C128.124 21.2605 128.159 21.0695 128.194 20.8612C128.263 20.3405 128.35 19.8024 128.454 19.2469C128.489 19.0733 128.524 18.8824 128.558 18.6741C128.663 18.1186 128.767 17.5458 128.871 16.9556C128.906 16.8168 128.94 16.6605 128.975 16.487C129.287 15.0289 129.635 13.5361 130.016 12.0085C130.086 11.7655 130.155 11.5225 130.225 11.2795C130.364 10.7587 130.52 10.238 130.693 9.71723C130.763 9.40479 130.85 9.1097 130.954 8.83196C131.093 8.34593 131.232 7.84255 131.37 7.3218C131.475 7.04407 131.579 6.74897 131.683 6.43652C131.856 5.91577 132.03 5.37767 132.204 4.82221C132.308 4.54448 132.412 4.26674 132.516 3.98901C132.794 3.19053 133.089 2.39205 133.401 1.59357C133.505 1.24641 133.644 0.881882 133.818 0.5C42.2184 27.0061 31.3869 107.93 30.814 113.138C30.7793 113.346 30.7446 113.554 30.7099 113.763C30.4495 116.731 31.7514 119.335 33.6261 119.491C33.9733 119.526 34.3204 119.474 34.6676 119.335C38.5211 117.824 42.8433 117.824 46.2282 120.22C59.0386 129.021 61.9027 142.508 61.7985 153.183C61.7465 158.547 60.9133 163.13 60.2363 166.15C59.785 168.129 59.4031 170.125 59.0907 172.138C59.0559 172.486 59.0212 172.833 58.9865 173.18C58.8476 174.36 58.7261 175.35 58.622 176.148C58.5525 176.947 58.5005 177.554 58.4657 177.971C58.4657 178.075 58.4657 178.162 58.4657 178.231C58.431 178.37 58.4137 178.474 58.4137 178.544C58.4137 178.578 58.4137 178.613 58.4137 178.648C58.379 179.412 58.3442 180.158 58.3095 180.887C57.1639 212.653 72.8905 216.09 73.6195 216.298C73.6542 216.298 73.6716 216.298 73.6716 216.298C79.9726 216.246 86.0133 215.569 91.0646 214.684C97.8864 213.486 104.552 211.455 111.009 208.851C135.328 199.061 147.253 201.613 152.044 203.852L152.096 203.904C152.981 204.321 153.658 204.737 154.127 205.05V205.102C154.37 205.275 154.596 205.466 154.804 205.675C154.839 205.675 154.856 205.675 154.856 205.675C143.087 189.688 137.151 175.055 139.911 162.453C139.98 162.105 140.067 161.758 140.171 161.411C140.24 161.064 140.327 160.717 140.431 160.37C140.536 160.057 140.64 159.745 140.744 159.432C140.883 159.05 141.022 158.686 141.16 158.339C141.265 158.061 141.369 157.766 141.473 157.453C141.647 157.071 141.82 156.69 141.994 156.308C142.133 156.065 142.271 155.804 142.41 155.527C142.619 155.11 142.862 154.676 143.139 154.225C143.243 154.051 143.348 153.86 143.452 153.652C143.834 153.027 144.25 152.419 144.702 151.829C144.806 151.656 144.927 151.482 145.066 151.309C145.379 150.892 145.708 150.458 146.056 150.007C146.264 149.764 146.472 149.538 146.68 149.33C146.993 148.948 147.305 148.583 147.618 148.236C147.895 147.993 148.156 147.75 148.399 147.507C148.711 147.16 149.041 146.83 149.388 146.518C149.666 146.275 149.944 146.014 150.221 145.737C150.569 145.424 150.933 145.129 151.315 144.851C151.628 144.574 151.94 144.313 152.252 144.07C152.634 143.758 153.016 143.463 153.398 143.185C153.711 142.942 154.058 142.699 154.44 142.456C154.821 142.143 155.238 141.848 155.689 141.571C156.037 141.328 156.401 141.085 156.783 140.842C157.234 140.564 157.686 140.286 158.137 140.008C158.519 139.765 158.901 139.522 159.283 139.279C159.838 139.002 160.393 138.706 160.949 138.394C161.313 138.186 161.626 137.977 161.99 137.821C162.928 137.335 163.9 136.849 164.907 136.363C165.15 136.259 165.393 136.137 165.636 135.999C158.866 126.261 157.356 115.429 163.136 103.087C163.414 102.532 163.692 101.959 163.969 101.369C164.039 101.299 164.091 101.213 164.125 101.108C164.368 100.622 164.629 100.136 164.907 99.6504Z" fill="url(#paint1_linear_5_225)"/>
<path d="M155.949 256.5C155.897 256.344 155.741 256.031 155.429 255.562C155.602 255.875 155.776 256.187 155.949 256.5Z" fill="#02032E"/>
<path d="M0.454 192.968C0.974748 195.519 1.7038 198.852 2.06832 199.633C4.67206 205.986 10.8169 210.1 17.6387 210.673C20.1903 210.933 22.8462 210.985 25.2416 211.038C31.2823 211.038 37.0105 213.485 41.3327 217.651C45.03 221.244 49.196 224.265 53.5703 226.868C57.1114 228.899 60.8087 230.67 64.506 232.18C71.2757 234.94 78.0454 236.867 83.8778 238.116C91.689 239.835 99.6564 240.616 107.676 240.668C143.712 240.928 153.293 252.02 155.429 255.509C122.049 189.687 69.5052 176.252 69.5052 176.252L58.986 173.596C58.8472 171.964 58.6042 170.454 58.257 169.065C53.6744 150.683 32.6883 152.662 32.6883 152.662L39.2497 168.44C22.6379 168.753 16.0244 176.512 13.3685 182.501C11.598 186.562 7.74447 189.374 3.31811 189.635C3.21396 189.635 3.10981 189.635 3.00566 189.635C1.33927 189.739 0.141551 191.301 0.454 192.968Z" fill="url(#paint2_linear_5_225)"/>
<path style="mix-blend-mode:multiply" d="M53.5704 226.869C57.1115 228.9 60.8088 230.671 64.5061 232.181C71.2758 234.941 78.0455 236.868 83.8779 238.117C91.6891 239.836 99.6566 240.617 107.676 240.669C143.712 240.929 153.294 252.021 155.429 255.51C122.049 189.688 69.5053 176.253 69.5053 176.253L58.9862 173.597C58.8299 171.93 43.6762 208.018 53.5704 226.869Z" fill="url(#paint3_radial_5_225)"/>
<path d="M65.0791 184.584C65.3221 184.133 65.6519 183.508 66.0685 182.71C66.5198 181.877 67.0753 180.87 67.7349 179.689C67.1447 180.696 66.5719 181.72 66.0164 182.762C65.704 183.352 65.3916 183.96 65.0791 184.584Z" fill="url(#paint4_linear_5_225)"/>
<path d="M222.605 28.9326C222.882 28.6202 223.178 28.3077 223.49 27.9953C113.977 16.0701 66.9012 97.8275 63.985 103.139C63.8461 103.347 63.7246 103.556 63.6205 103.764C62.0582 106.836 62.3186 110.169 64.2454 111.159C64.5925 111.367 64.9744 111.471 65.391 111.471C70.1819 111.575 74.7645 113.45 77.4203 117.46C87.2103 132.509 84.3462 148.184 79.5033 159.588C103.77 120.532 156.053 48.7731 222.605 28.9326Z" fill="url(#paint5_linear_5_225)"/>
<path d="M66.0684 182.709C115.071 170.159 163.24 177.501 197.088 186.823H197.141C197.418 186.788 197.731 186.771 198.078 186.771C193.964 168.284 201.515 151.985 226.979 138.966C150.482 123.916 84.5549 158.181 68.3596 178.647C68.1513 178.994 67.9431 179.341 67.7348 179.688C67.0751 180.869 66.5197 181.875 66.0684 182.709Z" fill="url(#paint6_linear_5_225)"/>
<path style="mix-blend-mode:multiply" d="M66.0684 182.709C69.0366 181.98 102.833 147.714 209.847 150.474C214.273 146.413 219.949 142.559 226.979 138.966C150.482 123.916 84.5549 158.181 68.3596 178.647C68.1513 178.994 67.9431 179.341 67.7348 179.688C67.0751 180.869 66.5197 181.875 66.0684 182.709Z" fill="url(#paint7_linear_5_225)"/>
<path d="M64.506 232.181C71.2757 234.941 78.0455 236.867 83.8778 238.117C91.6891 239.836 99.6565 240.617 107.676 240.669C137.984 240.877 149.596 248.793 153.762 253.375H153.814C154.595 254.26 155.116 254.989 155.429 255.51V255.562C155.602 255.875 155.758 256.187 155.897 256.5C155.932 256.5 155.949 256.5 155.949 256.5C145.951 216.298 154.231 189.219 197.088 186.824C163.24 177.502 115.071 170.16 66.0683 182.71C65.6517 183.508 65.3219 184.133 65.0788 184.584C65.0441 184.689 65.0094 184.775 64.9747 184.845C64.9053 184.984 64.8358 185.088 64.7664 185.157C64.7664 185.227 64.7664 185.261 64.7664 185.261C64.7317 185.261 64.7143 185.279 64.7143 185.313C64.3324 186.112 63.9679 186.893 63.6207 187.657C48.467 221.089 63.777 231.66 64.506 232.181Z" fill="url(#paint8_linear_5_225)"/>
<path style="mix-blend-mode:multiply" d="M65.8594 183.126C99.3435 185.47 130.692 193.541 158.657 204.164C165.426 194.01 177.716 187.917 197.088 186.824C163.239 177.502 115.07 170.16 66.0677 182.71C65.9982 182.883 65.9288 183.022 65.8594 183.126Z" fill="url(#paint9_linear_5_225)"/>
<path d="M68.3594 178.649C84.5546 158.183 150.481 123.918 226.979 138.968C226.979 138.968 226.996 138.968 227.031 138.968C212.763 117.617 174.384 80.4876 222.605 28.9336C156.053 48.7741 103.77 120.533 79.5034 159.589C77.1079 165.213 74.2438 169.848 72.1608 172.764C70.8416 174.674 69.5745 176.635 68.3594 178.649Z" fill="url(#paint10_linear_5_225)"/>
<path d="M68.3594 178.649C73.2544 172.452 157.355 80.3835 202.764 59.2932C206.253 49.8156 212.554 39.661 222.605 28.9336C156.053 48.7741 103.77 120.533 79.5034 159.589C77.1079 165.213 74.2438 169.848 72.1608 172.764C70.8416 174.674 69.5745 176.635 68.3594 178.649Z" fill="url(#paint11_linear_5_225)"/>
<defs>
<linearGradient id="paint0_linear_5_225" x1="146.588" y1="-88.0912" x2="266.295" y2="30.8326" gradientUnits="userSpaceOnUse">
<stop offset="0.004" stop-color="#8311E8"/>
<stop offset="0.873" stop-color="#C4006D"/>
</linearGradient>
<linearGradient id="paint1_linear_5_225" x1="146.588" y1="-88.0912" x2="266.295" y2="30.8326" gradientUnits="userSpaceOnUse">
<stop offset="0.004" stop-color="#8311E8"/>
<stop offset="0.874" stop-color="#C4006D" stop-opacity="0"/>
</linearGradient>
<linearGradient id="paint2_linear_5_225" x1="266.443" y1="213.816" x2="-68.8308" y2="80.8503" gradientUnits="userSpaceOnUse">
<stop offset="0.4" stop-color="#F60041"/>
<stop offset="0.857" stop-color="#FFD700"/>
</linearGradient>
<radialGradient id="paint3_radial_5_225" cx="0" cy="0" r="1" gradientUnits="userSpaceOnUse" gradientTransform="translate(109.918 209.087) rotate(180) scale(88.1194 88.1194)">
<stop offset="0.564" stop-color="#F60041"/>
<stop offset="0.684" stop-color="#FFD700" stop-opacity="0"/>
</radialGradient>
<linearGradient id="paint4_linear_5_225" x1="69.8528" y1="179.239" x2="65.8951" y2="177.669" gradientUnits="userSpaceOnUse">
<stop offset="0.4" stop-color="#F60041"/>
<stop offset="0.857" stop-color="#FFD700"/>
</linearGradient>
<linearGradient id="paint5_linear_5_225" x1="8.90654" y1="44.4816" x2="85.3289" y2="155.294" gradientUnits="userSpaceOnUse">
<stop offset="0.004" stop-color="#8311E8"/>
<stop offset="0.873" stop-color="#C4006D"/>
</linearGradient>
<linearGradient id="paint6_linear_5_225" x1="142.669" y1="115.756" x2="127.508" y2="182.898" gradientUnits="userSpaceOnUse">
<stop offset="0.004" stop-color="#8311E8"/>
<stop offset="0.873" stop-color="#C4006D"/>
</linearGradient>
<linearGradient id="paint7_linear_5_225" x1="133.485" y1="115.029" x2="138.387" y2="170.031" gradientUnits="userSpaceOnUse">
<stop offset="0.229" stop-color="#8311E8"/>
<stop offset="0.872" stop-color="#C4006D" stop-opacity="0"/>
</linearGradient>
<linearGradient id="paint8_linear_5_225" x1="122.954" y1="139.608" x2="70.907" y2="239.29" gradientUnits="userSpaceOnUse">
<stop offset="0.004" stop-color="#8311E8"/>
<stop offset="0.873" stop-color="#C4006D"/>
</linearGradient>
<linearGradient id="paint9_linear_5_225" x1="136.03" y1="151.85" x2="117.763" y2="210.305" gradientUnits="userSpaceOnUse">
<stop offset="0.123" stop-color="#8311E8"/>
<stop offset="0.872" stop-color="#C4006D" stop-opacity="0"/>
</linearGradient>
<linearGradient id="paint10_linear_5_225" x1="56.328" y1="53.4192" x2="76.8363" y2="177.402" gradientUnits="userSpaceOnUse">
<stop offset="0.004" stop-color="#8311E8"/>
<stop offset="0.873" stop-color="#C4006D"/>
</linearGradient>
<linearGradient id="paint11_linear_5_225" x1="-18.8924" y1="45.0976" x2="89.5196" y2="202.932" gradientUnits="userSpaceOnUse">
<stop offset="0.004" stop-color="#8311E8"/>
<stop offset="0.764" stop-color="#C4006D" stop-opacity="0"/>
</linearGradient>
</defs>
</svg>
