<svg width="257" height="257" viewBox="0 0 257 257" fill="none" xmlns="http://www.w3.org/2000/svg">
<path d="M256.2 128.864C256.2 199.522 198.894 256.828 128.236 256.828C57.5061 256.828 0.200195 199.522 0.200195 128.864C0.200195 58.2063 57.5061 0.900391 128.236 0.900391C198.894 0.900391 256.2 58.2063 256.2 128.864Z" fill="#1B2E45"/>
<path d="M223.361 128.865C223.361 181.408 180.779 224.062 128.236 224.062C75.6215 224.062 33.0391 181.408 33.0391 128.865C33.0391 76.3227 75.6215 33.7402 128.236 33.7402C180.779 33.7402 223.361 76.3227 223.361 128.865Z" fill="white"/>
<path d="M217.588 128.865C217.588 178.231 177.531 218.216 128.237 218.216C78.8698 218.216 38.8135 178.231 38.8135 128.865C38.8135 79.4979 78.8698 39.5137 128.237 39.5137C177.531 39.5137 217.588 79.4979 217.588 128.865Z" fill="#1B2E45"/>
<path d="M94.8926 127.566C95.2534 128.432 95.2534 129.371 94.8926 130.165L91.6447 137.526L93.1604 138.104L99.8004 140.63L102.904 133.773C104.275 130.67 104.275 127.133 102.904 124.03L99.8004 117.101L96.9134 110.606L91.5004 98.5525C90.2734 95.7377 92.0056 93.789 92.5108 93.2116C92.9438 92.7786 94.1708 91.7682 95.903 91.7682C96.4803 91.7682 97.1299 91.9125 97.8517 92.2012L109.905 97.542L112.431 90.9021L113.008 89.3864L101.46 84.2621C99.6801 83.4441 97.8276 83.0352 95.903 83.0352C92.2943 83.0352 88.9021 84.4786 86.376 87.0047C82.3343 91.0464 81.2517 96.9646 83.5613 102.089L88.7578 113.709L91.6447 120.277L94.8926 127.566Z" fill="white"/>
<path d="M124.267 163.364C125.494 162.787 126.793 162.498 128.237 162.498C129.584 162.498 130.883 162.787 132.134 163.364L136.825 165.457L137.403 163.941L140.001 157.301L135.743 155.425C133.361 154.342 130.763 153.765 128.237 153.765C125.639 153.765 123.112 154.342 120.659 155.425L116.472 157.301L109.905 160.188L97.8517 165.529C97.1299 165.89 96.4803 166.034 95.903 166.034C94.1708 166.034 92.9438 164.952 92.5108 164.591C92.0056 164.014 90.2734 161.993 91.5004 159.178L96.9134 147.197L90.2013 144.599L88.7578 144.021L83.5613 155.641C81.2517 160.838 82.3343 166.756 86.376 170.726C88.9021 173.324 92.2943 174.695 95.903 174.695C97.7795 174.695 99.656 174.334 101.46 173.54L113.008 168.344L119.576 165.457L124.267 163.364Z" fill="white"/>
<path d="M132.133 94.4386C130.882 94.9679 129.583 95.2325 128.236 95.2325C126.841 95.2325 125.517 94.9679 124.266 94.4386L119.575 92.3455L118.998 93.789L116.472 100.501L120.658 102.378C123.112 103.46 125.638 103.966 128.236 103.966C130.762 103.966 133.36 103.46 135.742 102.378L140 100.501L146.496 97.542L158.549 92.2012C159.271 91.9125 159.92 91.7682 160.498 91.7682C162.302 91.7682 163.457 92.7786 163.89 93.2116C164.467 93.789 166.127 95.7377 164.9 98.5525L159.487 110.606L166.199 113.132L167.643 113.709L172.839 102.089C175.149 96.9646 174.066 91.0464 170.025 87.0047C167.498 84.4786 164.106 83.0352 160.498 83.0352C158.621 83.0352 156.745 83.4682 154.94 84.2621L143.392 89.3864L136.825 92.3455L132.133 94.4386Z" fill="white"/>
<path d="M146.496 160.187L147.074 158.744L147.651 157.228L148.301 155.496C149.456 152.465 151.837 150.155 154.796 149.001L156.529 148.279L153.714 141.928L153.642 141.783L152.27 142.288C147.362 144.165 143.465 148.062 141.661 152.97L141.083 154.341L140.506 155.785L140.001 157.301L137.403 163.941L136.825 165.456L136.248 166.9L132.711 176.282C131.629 179.097 128.958 179.314 128.236 179.314C127.443 179.314 124.772 179.097 123.69 176.282L120.153 166.9L119.576 165.456L113.008 168.343L113.585 169.859L117.05 178.808C118.854 183.5 123.184 186.459 128.236 186.459C133.216 186.459 137.547 183.5 139.351 178.808L142.816 169.859L143.393 168.343L143.97 166.9L146.496 160.187Z" fill="white"/>
<path d="M109.904 97.5407L109.327 99.0564L108.749 100.5L108.1 102.304C106.945 105.263 104.563 107.645 101.604 108.8L99.8721 109.449L102.687 115.801L102.759 116.017L104.13 115.44C109.038 113.563 112.936 109.738 114.74 104.83L115.317 103.459L115.895 101.943L116.472 100.5L118.998 93.7877L119.575 92.3442L120.153 90.8286L123.689 81.5182C124.772 78.6312 127.442 78.4147 128.236 78.4147C128.958 78.4147 131.628 78.6312 132.711 81.5182L136.248 90.8286L136.825 92.3442L143.393 89.3851L142.815 87.9416L139.351 78.9199C138.485 76.6104 136.969 74.7338 134.948 73.3625C133.072 72.0634 130.69 71.2695 128.236 71.2695C123.184 71.2695 118.854 74.3008 117.049 78.9199L113.585 87.9416L113.008 89.3851L112.43 90.9007L109.904 97.5407Z" fill="white"/>
<path d="M96.9127 147.198L98.3562 147.775L99.8718 148.28L104.274 150.012C105.574 150.518 106.584 151.528 107.089 152.755L108.749 157.23L115.173 154.415L115.317 154.343L113.729 150.229C112.502 147.053 110.048 144.527 106.873 143.372L102.759 141.785L101.315 141.207L99.7997 140.63L93.1597 138.104L91.6441 137.526L90.2006 136.949L80.818 133.34C77.9311 132.258 77.7145 129.659 77.7145 128.865C77.7145 128.072 77.9311 125.473 80.818 124.391L90.2006 120.782L91.6441 120.277L88.7571 113.709L87.2414 114.286L78.2919 117.751C73.6006 119.483 70.5693 123.885 70.5693 128.865C70.5693 133.845 73.6006 138.248 78.2919 140.052L87.2414 143.517L88.7571 144.022L90.2006 144.599L96.9127 147.198Z" fill="white"/>
<path d="M178.108 117.749L169.159 114.285L167.643 113.708L166.199 113.13L159.487 110.604L158.044 110.027L156.528 109.45L152.126 107.717C150.826 107.284 149.816 106.274 149.311 104.975L147.651 100.5L141.227 103.387L141.083 103.459L142.671 107.501C143.898 110.676 146.352 113.203 149.527 114.43L153.641 116.017L155.157 116.595L156.6 117.1L163.24 119.698L164.756 120.276L166.199 120.781L175.582 124.389C178.469 125.472 178.685 128.07 178.685 128.864C178.685 129.658 178.469 132.256 175.582 133.339L166.199 136.948L164.756 137.525L167.643 144.021L169.159 143.515L178.108 140.051C182.799 138.247 185.831 133.844 185.831 128.864C185.831 123.884 182.799 119.482 178.108 117.749Z" fill="white"/>
<path d="M140.145 118.254C140.049 118.205 139.977 118.181 139.929 118.181C139.881 118.085 139.832 118.013 139.784 117.965C139.688 117.917 139.616 117.869 139.568 117.821C139.472 117.772 139.399 117.724 139.351 117.676C139.207 117.628 139.087 117.556 138.99 117.46C138.894 117.412 138.798 117.363 138.702 117.315C138.605 117.267 138.485 117.219 138.341 117.171C138.245 117.123 138.148 117.075 138.052 117.027C137.956 116.978 137.86 116.93 137.763 116.882C137.715 116.882 137.691 116.882 137.691 116.882C137.595 116.834 137.523 116.81 137.475 116.81C137.379 116.762 137.282 116.738 137.186 116.738C137.138 116.69 137.09 116.666 137.042 116.666C136.994 116.666 136.945 116.666 136.897 116.666C136.849 116.666 136.825 116.642 136.825 116.594C136.777 116.594 136.729 116.594 136.681 116.594C136.633 116.594 136.561 116.594 136.464 116.594C136.464 116.545 136.44 116.521 136.392 116.521C136.296 116.521 136.2 116.521 136.103 116.521C136.007 116.521 135.911 116.521 135.815 116.521C135.718 116.473 135.622 116.449 135.526 116.449C135.43 116.449 135.334 116.449 135.237 116.449C134.155 116.449 133.072 116.738 132.062 117.171C131.34 117.556 130.666 118.037 130.041 118.614L128.236 120.491L126.36 118.614C125.734 118.037 125.061 117.556 124.339 117.171C123.401 116.738 122.246 116.449 121.163 116.449C119.143 116.449 117.338 117.243 115.967 118.614C115.871 118.663 115.799 118.735 115.75 118.831C115.702 118.831 115.678 118.855 115.678 118.903C115.63 118.951 115.582 118.999 115.534 119.047C115.486 119.096 115.438 119.144 115.39 119.192C115.39 119.24 115.366 119.288 115.317 119.336C115.269 119.432 115.221 119.505 115.173 119.553C115.125 119.601 115.077 119.649 115.029 119.697C114.981 119.745 114.957 119.793 114.957 119.841C114.908 119.89 114.884 119.938 114.884 119.986C114.836 120.034 114.812 120.058 114.812 120.058C114.764 120.154 114.716 120.226 114.668 120.274C114.62 120.371 114.572 120.467 114.523 120.563C114.475 120.707 114.403 120.876 114.307 121.068C114.307 121.116 114.283 121.165 114.235 121.213C114.235 121.261 114.211 121.309 114.163 121.357C114.163 121.453 114.139 121.55 114.09 121.646C114.09 121.646 114.09 121.67 114.09 121.718C114.09 121.766 114.066 121.814 114.018 121.862C114.018 121.958 114.018 122.031 114.018 122.079C113.97 122.127 113.946 122.175 113.946 122.223C113.946 122.271 113.946 122.343 113.946 122.44C113.898 122.488 113.874 122.512 113.874 122.512C113.874 122.608 113.874 122.68 113.874 122.728C113.874 122.728 113.874 122.752 113.874 122.8C113.874 122.849 113.85 122.921 113.802 123.017C113.802 123.065 113.802 123.113 113.802 123.161C113.802 123.209 113.802 123.258 113.802 123.306C113.802 123.402 113.802 123.498 113.802 123.594C113.802 123.643 113.802 123.715 113.802 123.811V124.027C113.802 124.076 113.802 124.148 113.802 124.244C113.802 124.292 113.802 124.34 113.802 124.388C113.802 124.533 113.826 124.653 113.874 124.749C113.874 124.845 113.874 124.918 113.874 124.966C113.874 125.062 113.874 125.134 113.874 125.182C113.922 125.23 113.946 125.303 113.946 125.399C113.946 125.495 113.97 125.567 114.018 125.615C114.018 125.712 114.042 125.808 114.09 125.904C114.09 125.952 114.115 126 114.163 126.048C114.163 126.096 114.163 126.121 114.163 126.121C114.163 126.217 114.187 126.289 114.235 126.337C114.235 126.385 114.259 126.433 114.307 126.481C114.307 126.481 114.307 126.505 114.307 126.554C114.307 126.602 114.331 126.626 114.379 126.626C114.427 126.77 114.475 126.914 114.523 127.059C114.764 127.588 115.077 128.093 115.462 128.574C115.606 128.719 115.775 128.863 115.967 129.007L116.689 129.801L119.215 132.327L120.442 133.554L128.236 141.277L138.485 131.028L140.506 129.007C141.083 128.43 141.541 127.78 141.877 127.059C143.249 124.316 142.743 120.924 140.506 118.614C140.362 118.518 140.241 118.398 140.145 118.254Z" fill="white"/>
<path d="M164.756 137.525L161.508 130.163C161.147 129.369 161.147 128.431 161.508 127.565L164.756 120.275L163.24 119.698L156.6 117.1L153.497 124.028C152.126 127.132 152.126 130.668 153.497 133.772L156.6 140.628L159.487 147.196L164.9 159.177C166.127 161.992 164.467 164.012 163.89 164.59C163.457 164.951 162.302 166.033 160.498 166.033C159.92 166.033 159.271 165.889 158.549 165.528L146.496 160.187L143.97 166.899L143.393 168.343L154.94 173.539C156.745 174.333 158.621 174.694 160.498 174.694C164.106 174.694 167.499 173.323 170.025 170.725C174.066 166.755 175.149 160.837 172.839 155.64L167.643 144.02L164.756 137.525Z" fill="white"/>
</svg>
