<svg width="257" height="151" viewBox="0 0 257 151" fill="none" xmlns="http://www.w3.org/2000/svg">
<path d="M132.569 28.6845C132.569 31.9391 129.932 34.5761 126.678 34.5761C123.424 34.5761 120.787 31.9385 120.787 28.6845C120.787 25.4311 123.424 22.793 126.678 22.793C129.932 22.793 132.569 25.4311 132.569 28.6845Z" fill="#CECECE"/>
<path d="M109.377 99.0433C117.295 96.0603 125.014 90.2108 125.659 89.7149C123.406 87.6799 120.751 85.0297 118.233 82.1632C103.21 93.0842 87.1109 93.7658 81.4384 93.7658C53.3478 93.7658 28.0776 77.7795 16.34 53.29H86.3174C88.3051 59.6227 93.71 72.3423 103.474 85.3993C107.144 83.9173 110.55 82.0155 113.038 80.4799C104.972 70.1044 97.8549 57.2908 94.5455 42.7109H0.970703C3.89659 51.044 6.72906 60.5996 15.5194 72.0592C30.8207 92.0053 55.0489 104.345 81.4384 104.345C91.3533 104.345 100.626 102.339 109.377 99.0433Z" fill="#CECECE"/>
<path d="M101.324 37.7876C104.344 51.2164 107.76 61.2621 114.534 70.7012C114.923 71.2427 123.489 82.7029 131.295 88.9399C134.092 86.3461 136.553 83.8504 138.527 81.6171C138.527 81.6171 127.174 71.3078 121.438 62.0302C115.732 52.8022 112.023 42.4226 112.023 27.0862L100.816 27.0977C103.323 18.0012 112.503 11.2769 122.702 11.2769C134.861 11.2769 145.328 20.8267 145.328 32.5643C145.328 46.7474 138.904 59.4215 131.719 68.5475C134.076 71.4451 136.73 74.0832 139.081 76.3218C148.076 65.2427 155.907 49.919 155.907 32.5643C155.907 14.9928 140.693 0.697266 122.702 0.697266C107.018 0.697266 93.3062 11.5612 90.1964 25.9894C89.7777 27.9223 89.0598 34.04 89.1446 37.7876C89.1446 37.7876 97.4246 37.7876 101.324 37.7876Z" fill="#CECECE"/>
<path d="M163.41 42.7194C159.013 61.7792 148.021 80.3275 132.293 93.7183C135 95.7844 138.442 97.937 141.576 99.6278C144.577 96.8875 150.43 90.4441 151.783 88.9258C151.766 88.9189 151.75 88.9131 151.732 88.9068C163.35 74.6689 169.459 60.1888 171.625 53.2892H241.604C225.656 86.5616 186.774 100.839 156.013 90.5249C153.952 92.8914 151.215 95.8398 148.291 98.9312C178.718 111.443 219.221 102.302 242.423 72.0573C251.157 60.6737 253.975 51.241 256.971 42.709C156.152 42.7107 169.214 42.7073 163.41 42.7194Z" fill="#CECECE"/>
<path d="M127.413 97.6934C124.082 99.7105 120.2 101.635 115.879 103.331C136.632 118.513 162.577 123.595 171.9 123.333C158.929 133.527 141.787 139.731 125.362 139.731C112.053 139.731 93.5085 134.563 79.0134 123.416C94.2887 122.654 108.001 119.275 121.074 112.219C118.049 110.281 114.561 107.846 111.348 105.353C91.5018 113.918 70.204 115.037 56.9551 115.203C63.331 122.657 68.5289 129.545 80.7877 137.014C111.574 155.77 145.371 153.778 172.197 135.821C182.65 128.823 187.405 122.642 193.674 115.312C161.964 114.601 140.027 105.206 127.413 97.6934Z" fill="#CECECE"/>
</svg>
