<svg width="222" height="257" viewBox="0 0 222 257" fill="none" xmlns="http://www.w3.org/2000/svg">
<path d="M211.459 183.053V186.426L205.933 189.655L189.283 199.273L184.331 202.143L168.398 211.33L165.025 213.267L137.465 229.2L110.983 244.487L84.5 229.2L61.7492 216.066L60.6727 215.492L57.5148 213.626L54.357 211.832L41.941 204.655L32.3239 199.129L15.9606 189.655L10.4344 186.426V183.053H0.0996094V192.383L15.9606 201.569L26.0082 207.311L29.6684 209.464L36.0559 213.124L39.142 214.918L63.9023 229.2L110.983 256.401L157.991 229.2L184.833 213.698L188.278 211.76L204.928 202.143L205.933 201.569L207.799 200.493L221.794 192.383V183.053H211.459Z" fill="#FFC124"/>
<path d="M15.8174 73.1015V182.836V183.267L18.7599 184.989L33.9749 193.745L35.1232 194.463L43.592 199.271L44.7403 199.989L57.1563 207.094L60.3142 208.96L63.472 210.754L64.5485 211.4L87.2993 224.534L111.198 238.314L135.097 224.534L162.657 208.601L166.03 206.664L181.963 197.405L186.915 194.606L203.565 184.989L206.508 183.267V182.836V177.669V73.1015L111.198 18.0547L15.8174 73.1015Z" fill="#FFC124"/>
<path fill-rule="evenodd" clip-rule="evenodd" d="M211.388 70.1603L211.603 182.838V186.282L206.077 189.512L189.426 199.129L184.474 202L168.542 211.186L165.168 213.196L137.609 229.129L111.198 244.487L84.6437 229.272L61.8929 216.21L60.8164 215.564L57.6586 213.77L54.5007 211.904L42.0847 204.799L32.4677 199.273L16.1043 189.871L10.5063 186.641V183.196L10.291 70.5191L110.768 12.3145L211.388 70.1603ZM206.22 73.1746L110.696 18.2713L15.4584 73.4616L15.6737 183.196V183.627L18.6162 185.349L33.903 194.105L35.0513 194.751L43.4483 199.632L44.6684 200.277L57.0127 207.454L60.1705 209.249L63.4001 211.043L64.4766 211.689L87.2274 224.751L111.126 238.53L135.026 224.679L162.585 208.674L165.958 206.737L181.891 197.478L186.771 194.608L203.421 184.991L206.364 183.268V182.838V177.67L206.22 73.1746Z" fill="white"/>
<path d="M105.959 166.977L101.652 162.743C99.3559 163.676 96.9157 164.178 94.4756 164.178C89.5953 164.178 84.715 162.312 80.983 158.58C75.4568 153.054 74.0932 144.8 76.8922 137.982L70.5047 131.523C65.3374 140.566 65.6962 151.906 71.5813 160.59C72.5382 162.025 73.6626 163.389 74.9544 164.68C76.7247 166.451 78.6386 167.91 80.6959 169.058C84.9303 171.498 89.6671 172.719 94.4756 172.719C99.2123 172.719 103.949 171.498 108.183 169.058C107.418 168.388 106.676 167.695 105.959 166.977ZM80.6959 88.3182C78.6386 89.5143 76.7247 90.9976 74.9544 92.7679C73.6626 94.0597 72.5382 95.4233 71.5813 96.8587C65.6962 105.543 65.3374 116.882 70.5047 125.853L76.1745 120.184L76.8922 119.466C74.0932 112.576 75.4568 104.394 80.983 98.8682C84.715 95.1362 89.5953 93.2702 94.4756 93.2702C96.9157 93.2702 99.3559 93.7726 101.652 94.7056L105.959 90.3995C106.676 89.6818 107.418 89.0119 108.183 88.3899C99.7147 83.5097 89.2364 83.5096 80.6959 88.3182Z" fill="white"/>
<path d="M151.676 131.523L145.288 137.982C148.087 144.8 146.724 153.054 141.198 158.58C135.6 164.178 127.418 165.542 120.528 162.743L116.294 166.977C115.528 167.695 114.763 168.388 113.997 169.058C118.231 171.498 122.968 172.719 127.777 172.719C131.293 172.719 134.81 172.073 138.111 170.709C139.26 170.231 140.384 169.68 141.485 169.058C143.494 167.91 145.504 166.403 147.226 164.68C148.518 163.389 149.642 162.025 150.599 160.59C156.484 151.906 156.843 140.566 151.676 131.523ZM150.599 96.8587C149.642 95.4233 148.518 94.0597 147.226 92.7679C145.504 90.9736 143.494 89.5382 141.485 88.3182C133.016 83.5096 122.466 83.5097 113.997 88.3899C114.763 89.0119 115.528 89.6818 116.294 90.3995L120.528 94.7056C127.418 91.9066 135.6 93.2702 141.198 98.8682C146.724 104.394 148.087 112.576 145.288 119.466L151.676 125.853C156.843 116.882 156.484 105.543 150.599 96.8587Z" fill="white"/>
<path fill-rule="evenodd" clip-rule="evenodd" d="M149.881 128.722L113.925 164.678C113.016 165.587 112.083 166.401 111.126 167.119C110.121 166.401 109.164 165.587 108.255 164.678L72.2988 128.722L108.255 92.7658C109.164 91.8567 110.121 91.0194 111.126 90.2539C112.083 91.0194 113.016 91.8567 113.925 92.7658L143.709 122.55L149.881 128.722ZM135.814 128.722L111.126 104.321L86.3655 128.722L111.126 153.124L135.814 128.722Z" fill="white"/>
<path fill-rule="evenodd" clip-rule="evenodd" d="M81.3423 84.5142C81.3423 85.8778 81.127 87.1696 80.6964 88.3179C79.4045 92.5523 75.8878 95.7819 71.5817 96.8584C70.6726 97.0498 69.6918 97.1455 68.6392 97.1455C61.6776 97.1455 56.0078 91.4758 56.0078 84.5142C56.0078 77.5526 61.6776 71.8828 68.6392 71.8828C75.6725 71.8828 81.3423 77.5526 81.3423 84.5142ZM72.73 84.5142C72.73 82.2893 70.9358 80.4233 68.6392 80.4233C66.4143 80.4233 64.6201 82.2893 64.6201 84.5142C64.6201 86.739 66.4143 88.605 68.6392 88.605C70.9358 88.605 72.73 86.739 72.73 84.5142Z" fill="white"/>
<path fill-rule="evenodd" clip-rule="evenodd" d="M166.172 84.5142C166.172 91.4758 160.503 97.1455 153.541 97.1455C152.488 97.1455 151.508 97.0498 150.598 96.8584C146.292 95.7819 142.776 92.5523 141.484 88.3179C141.053 87.1218 140.838 85.8538 140.838 84.5142C140.838 77.5526 146.508 71.8828 153.541 71.8828C160.503 71.8828 166.172 77.5526 166.172 84.5142ZM157.632 84.5142C157.632 82.2893 155.766 80.4233 153.541 80.4233C151.244 80.4233 149.45 82.2893 149.45 84.5142C149.45 86.739 151.244 88.605 153.541 88.605C155.766 88.605 157.632 86.739 157.632 84.5142Z" fill="white"/>
<path fill-rule="evenodd" clip-rule="evenodd" d="M81.3423 172.932C81.3423 179.893 75.6725 185.563 68.6392 185.563C61.6776 185.563 56.0078 179.893 56.0078 172.932C56.0078 165.97 61.6776 160.229 68.6392 160.229C69.6918 160.276 70.6726 160.396 71.5817 160.587C75.8878 161.664 79.4045 164.893 80.6964 169.056C81.127 170.3 81.3423 171.592 81.3423 172.932ZM72.73 172.932C72.73 170.635 70.9358 168.841 68.6392 168.841C66.4143 168.841 64.6201 170.635 64.6201 172.932C64.6201 175.156 66.4143 177.022 68.6392 177.022C70.9358 177.022 72.73 175.156 72.73 172.932Z" fill="white"/>
<path fill-rule="evenodd" clip-rule="evenodd" d="M166.172 172.932C166.172 179.893 160.503 185.563 153.541 185.563C146.508 185.563 140.838 179.893 140.838 172.932C140.838 171.592 141.053 170.3 141.484 169.056C142.776 164.893 146.292 161.664 150.598 160.587C151.508 160.396 152.488 160.276 153.541 160.229C160.503 160.229 166.172 165.97 166.172 172.932ZM157.632 172.932C157.632 170.635 155.766 168.841 153.541 168.841C151.244 168.841 149.45 170.635 149.45 172.932C149.45 175.156 151.244 177.022 153.541 177.022C155.766 177.022 157.632 175.156 157.632 172.932Z" fill="white"/>
<path d="M221.794 64.4183V183.052H211.459V70.3752L110.983 12.314L10.4344 70.3752V183.052H0.0996094V64.4183L110.983 0.400391L221.794 64.4183Z" fill="#FFC124"/>
</svg>
