<svg width="257" height="257" viewBox="0 0 257 257" fill="none" xmlns="http://www.w3.org/2000/svg">
<path d="M256.827 128.436C256.827 199.094 199.521 256.4 128.863 256.4C58.1331 256.4 0.899414 199.094 0.899414 128.436C0.899414 57.7063 58.1331 0.400391 128.863 0.400391C199.521 0.400391 256.827 57.7063 256.827 128.436Z" fill="#1B2E45"/>
<path d="M246.939 128.435C246.939 193.608 194.036 246.512 128.863 246.512C63.6181 246.512 10.7148 193.608 10.7148 128.435C10.7148 63.1904 63.6181 10.2871 128.863 10.2871C194.036 10.2871 246.939 63.1904 246.939 128.435Z" fill="white"/>
<path d="M242.393 128.076C242.393 190.723 191.583 241.533 128.936 241.533C66.2175 241.533 15.4072 190.723 15.4072 128.076C15.4072 65.3571 66.2175 14.5469 128.936 14.5469C191.583 14.5469 242.393 65.3571 242.393 128.076Z" fill="#1B2E45"/>
<path fill-rule="evenodd" clip-rule="evenodd" d="M178.971 81.8129C178.971 88.092 177.166 94.3711 173.486 99.7119C172.379 101.396 171.08 102.96 169.588 104.403L164.464 109.528L129.171 144.893L100.085 115.807L96.9093 112.703L93.8058 109.528L90.6302 106.424L88.6815 104.403C88.2966 104.018 87.9116 103.633 87.5267 103.248C86.5163 102.094 85.6021 100.915 84.7841 99.7119C84.5917 99.3751 84.3751 99.0624 84.1346 98.7737C84.0383 98.5812 83.9421 98.4128 83.8459 98.2685C83.4609 97.5948 83.1001 96.9212 82.7633 96.2476C82.667 96.1033 82.5949 95.9348 82.5467 95.7424C82.4986 95.7424 82.4746 95.7424 82.4746 95.7424C82.4746 95.6462 82.4505 95.574 82.4024 95.5259C82.3062 95.2853 82.1859 95.0447 82.0415 94.8041C81.9453 94.5154 81.825 94.2027 81.6806 93.8659C81.6806 93.8659 81.6806 93.8418 81.6806 93.7937C81.5844 93.6494 81.5123 93.505 81.4641 93.3607C81.3198 93.0239 81.1995 92.687 81.1033 92.3502C80.9589 91.9653 80.8386 91.5804 80.7424 91.1955C80.6943 91.003 80.6462 90.8105 80.598 90.6181C80.5499 90.4256 80.4778 90.2331 80.3815 90.0407C80.3334 89.8482 80.2853 89.6557 80.2372 89.4633C80.1409 89.0784 80.0688 88.6934 80.0207 88.3085C79.9725 88.116 79.9244 87.9236 79.8763 87.7311C79.8763 87.7311 79.8763 87.7071 79.8763 87.6589C79.8282 87.3221 79.756 86.9613 79.6598 86.5763C79.6598 86.3839 79.6357 86.1914 79.5876 85.9989C79.5395 85.614 79.4914 85.205 79.4433 84.772C79.4433 84.5795 79.4433 84.3871 79.4433 84.1946C79.4433 84.0503 79.4192 83.9059 79.3711 83.7616C79.3711 83.3766 79.3711 83.0158 79.3711 82.679C79.3711 82.3903 79.3711 82.1016 79.3711 81.8129C79.3711 73.6573 82.4746 65.5016 88.6815 59.2947C88.874 59.0541 89.0664 58.8617 89.2589 58.7173C90.0769 57.9475 90.9189 57.2257 91.785 56.5521C91.9293 56.4077 92.0977 56.2875 92.2902 56.1912C92.5308 55.9988 92.7713 55.8063 93.0119 55.6138C93.445 55.3251 93.9021 55.0364 94.3832 54.7478C94.8163 54.4591 95.2734 54.1944 95.7545 53.9538C95.947 53.8095 96.1635 53.6892 96.4041 53.593C96.6447 53.4486 96.8852 53.3283 97.1258 53.2321C97.3183 53.1359 97.5107 53.0396 97.7032 52.9434C97.7513 52.8953 97.7994 52.8712 97.8476 52.8712C98.04 52.775 98.2325 52.6788 98.4249 52.5825C98.4731 52.5825 98.5452 52.5585 98.6415 52.5104C98.7858 52.4622 98.9302 52.3901 99.0745 52.2938C99.267 52.2457 99.4835 52.1736 99.7241 52.0773C99.8684 52.0292 100.037 51.957 100.229 51.8608C100.229 51.8608 100.253 51.8608 100.301 51.8608C100.446 51.8127 100.566 51.7646 100.662 51.7165C100.903 51.6202 101.119 51.5481 101.312 51.4999C101.601 51.4037 101.889 51.3075 102.178 51.2112C102.659 51.0669 103.164 50.9466 103.694 50.8504C104.03 50.7541 104.367 50.6579 104.704 50.5617C104.752 50.5617 104.776 50.5617 104.776 50.5617C104.969 50.5617 105.137 50.5376 105.281 50.4895C105.33 50.4895 105.354 50.4895 105.354 50.4895C105.546 50.4414 105.739 50.3933 105.931 50.3452C106.172 50.297 106.412 50.273 106.653 50.273C106.701 50.273 106.725 50.273 106.725 50.273C107.014 50.2249 107.278 50.1767 107.519 50.1286C107.567 50.1286 107.591 50.1286 107.591 50.1286C107.88 50.0805 108.168 50.0565 108.457 50.0565C108.746 50.0083 109.034 49.9843 109.323 49.9843H109.395C109.636 49.9843 109.877 49.9602 110.117 49.9121C110.502 49.9121 110.887 49.9121 111.272 49.9121C111.561 49.9121 111.825 49.9121 112.066 49.9121C112.258 49.9121 112.451 49.9362 112.643 49.9843C112.836 49.9843 113.004 49.9843 113.148 49.9843C113.389 49.9843 113.63 50.0083 113.87 50.0565C113.966 50.0565 114.087 50.0565 114.231 50.0565C114.231 50.0565 114.255 50.0565 114.303 50.0565C114.351 50.0565 114.375 50.0565 114.375 50.0565C114.616 50.1046 114.832 50.1286 115.025 50.1286C115.362 50.1767 115.674 50.2249 115.963 50.273C116.059 50.273 116.156 50.273 116.252 50.273C116.444 50.3211 116.637 50.3692 116.829 50.4173C117.166 50.4654 117.479 50.5136 117.767 50.5617C117.912 50.6098 118.08 50.6579 118.273 50.706C118.658 50.8023 119.067 50.8985 119.5 50.9947C119.644 51.0428 119.788 51.091 119.933 51.1391C120.125 51.1872 120.318 51.2353 120.51 51.2834C120.654 51.3315 120.775 51.3556 120.871 51.3556C121.112 51.4518 121.352 51.5481 121.593 51.6443C121.641 51.6443 121.665 51.6443 121.665 51.6443C121.857 51.6924 122.05 51.7646 122.242 51.8608C122.387 51.9089 122.531 51.957 122.675 52.0052C122.723 52.0052 122.747 52.0292 122.747 52.0773C122.988 52.1254 123.205 52.1976 123.397 52.2938C123.638 52.3901 123.878 52.4863 124.119 52.5825C124.215 52.6307 124.311 52.6788 124.407 52.7269C124.648 52.8231 124.889 52.9434 125.129 53.0878C125.418 53.2321 125.707 53.3764 125.995 53.5208C126.38 53.7133 126.741 53.9057 127.078 54.0982C127.27 54.1944 127.439 54.2907 127.583 54.3869C127.92 54.5793 128.281 54.7959 128.666 55.0364C128.81 55.1327 128.978 55.253 129.171 55.3973C129.508 55.1567 129.845 54.9162 130.181 54.6756C130.518 54.4831 130.855 54.2906 131.192 54.0982C131.24 54.0982 131.264 54.0741 131.264 54.026C131.456 53.9298 131.649 53.8335 131.841 53.7373C132.034 53.6411 132.226 53.5449 132.419 53.4486C132.467 53.4005 132.491 53.3764 132.491 53.3764C132.635 53.3283 132.756 53.2802 132.852 53.2321C133.044 53.1359 133.213 53.0637 133.357 53.0156C133.549 52.8712 133.766 52.7509 134.007 52.6547C134.055 52.6547 134.079 52.6547 134.079 52.6547C134.127 52.6547 134.151 52.6307 134.151 52.5825C134.343 52.5344 134.536 52.4623 134.728 52.366C134.776 52.366 134.8 52.366 134.8 52.366C135.234 52.1736 135.667 52.0052 136.1 51.8608C136.34 51.7646 136.605 51.6683 136.894 51.5721C137.182 51.4759 137.471 51.3796 137.76 51.2834C140.791 50.3452 143.894 49.9121 146.998 49.9121C147.383 49.9121 147.768 49.9121 148.153 49.9121C148.393 49.9602 148.658 49.9843 148.947 49.9843C149.235 49.9843 149.524 50.0083 149.813 50.0565C150.101 50.0565 150.366 50.0805 150.607 50.1286C150.943 50.1767 151.28 50.2249 151.617 50.273C151.858 50.273 152.098 50.297 152.339 50.3452C152.339 50.3452 152.363 50.3452 152.411 50.3452C152.603 50.3933 152.796 50.4414 152.988 50.4895C153.133 50.4895 153.301 50.5136 153.493 50.5617C153.686 50.6098 153.878 50.6579 154.071 50.706C154.263 50.7541 154.456 50.8023 154.648 50.8504C155.129 50.9466 155.611 51.0669 156.092 51.2112C156.621 51.3556 157.126 51.524 157.607 51.7165C157.752 51.7646 157.872 51.8127 157.968 51.8608C158.016 51.8608 158.064 51.8608 158.113 51.8608C158.257 51.957 158.425 52.0292 158.618 52.0773C158.81 52.1736 159.003 52.2457 159.195 52.2938C159.34 52.3901 159.508 52.4622 159.7 52.5104C159.749 52.5585 159.821 52.5825 159.917 52.5825C160.061 52.6788 160.23 52.775 160.422 52.8712C160.47 52.8712 160.518 52.8953 160.566 52.9434C160.759 53.0396 160.975 53.1359 161.216 53.2321C161.409 53.3283 161.625 53.4486 161.866 53.593C162.106 53.6892 162.347 53.8095 162.587 53.9538C163.02 54.1944 163.477 54.4591 163.959 54.7478C164.392 55.0364 164.825 55.3251 165.258 55.6138C165.546 55.8063 165.811 55.9988 166.052 56.1912C166.196 56.2875 166.364 56.4077 166.557 56.5521C167.375 57.2257 168.193 57.9475 169.011 58.7173C169.203 58.8617 169.396 59.0541 169.588 59.2947C175.867 65.5016 178.971 73.6573 178.971 81.8129ZM160.206 68.6773C159.917 68.3886 159.604 68.0999 159.267 67.8112C159.123 67.7149 158.979 67.5947 158.834 67.4503C158.69 67.3541 158.546 67.2338 158.401 67.0894C158.209 66.9451 158.016 66.8008 157.824 66.6564C157.631 66.5602 157.439 66.4399 157.246 66.2955C157.006 66.1031 156.741 65.9347 156.453 65.7903C156.212 65.646 155.947 65.5016 155.659 65.3573C155.418 65.2129 155.153 65.0686 154.865 64.9242C154.576 64.828 154.287 64.7077 153.999 64.5634C153.758 64.4671 153.518 64.395 153.277 64.3468C153.229 64.2987 153.205 64.2747 153.205 64.2747C152.964 64.1784 152.748 64.1063 152.555 64.0582C152.315 64.01 152.098 63.9379 151.906 63.8416C151.761 63.8416 151.617 63.8176 151.473 63.7695C151.376 63.7213 151.28 63.6973 151.184 63.6973C151.088 63.6973 150.991 63.6732 150.895 63.6251C150.799 63.6251 150.703 63.6011 150.607 63.5529C150.462 63.5529 150.294 63.5289 150.101 63.4808C150.005 63.4808 149.909 63.4808 149.813 63.4808C149.572 63.4326 149.331 63.3845 149.091 63.3364C148.898 63.3364 148.682 63.3124 148.441 63.2642C148.201 63.2642 147.936 63.2642 147.647 63.2642C147.455 63.2642 147.238 63.2642 146.998 63.2642C144.255 63.2642 141.44 63.8416 138.842 65.0686C137.038 66.0068 135.378 67.1616 133.862 68.6773L129.171 73.3685L124.407 68.6773C122.964 67.1616 121.232 66.0068 119.427 65.0686C116.901 63.8416 114.159 63.1921 111.272 63.1921C106.292 63.1921 101.601 65.1408 98.1362 68.6773C97.9438 68.8216 97.7754 68.99 97.631 69.1825C97.5348 69.2787 97.4626 69.3749 97.4145 69.4712C97.3183 69.5674 97.2221 69.6636 97.1258 69.7599C96.9815 69.9042 96.8612 70.0486 96.765 70.1929C96.6687 70.2891 96.5965 70.3854 96.5484 70.4816C96.5003 70.4816 96.4763 70.5057 96.4763 70.5538C96.3319 70.6981 96.2116 70.8425 96.1154 70.9868C96.0192 71.1793 95.9229 71.3477 95.8267 71.492C95.7305 71.5883 95.6583 71.6845 95.6102 71.7807C95.6102 71.7807 95.5861 71.8048 95.538 71.8529C95.4899 71.9491 95.4418 72.0454 95.3936 72.1416C95.3455 72.2378 95.2974 72.31 95.2493 72.3581C95.1531 72.5506 95.0568 72.719 94.9606 72.8633C94.8163 73.1039 94.696 73.3204 94.5997 73.5129C94.4073 73.9459 94.2148 74.403 94.0224 74.8842C93.9742 75.0285 93.9261 75.1488 93.878 75.2451C93.8299 75.3894 93.7818 75.5338 93.7337 75.6781C93.6374 75.8706 93.5653 76.063 93.5171 76.2555C93.469 76.3517 93.445 76.472 93.445 76.6164C93.3968 76.7126 93.3487 76.8088 93.3006 76.9051C93.2525 77.0975 93.2044 77.29 93.1563 77.4825C93.1563 77.5787 93.1322 77.6749 93.0841 77.7711C93.036 77.9636 93.0119 78.132 93.0119 78.2764C92.9638 78.3726 92.9397 78.4688 92.9397 78.5651C92.8916 78.7575 92.8676 78.9259 92.8676 79.0703C92.8676 79.1184 92.8676 79.1424 92.8676 79.1424C92.8195 79.383 92.7954 79.5995 92.7954 79.792C92.7473 79.9364 92.7232 80.0807 92.7232 80.225C92.7232 80.3213 92.7232 80.4175 92.7232 80.5137C92.6751 80.7543 92.6511 80.9708 92.6511 81.1633C92.6511 81.4039 92.6511 81.6204 92.6511 81.8129C92.6511 81.8129 92.6511 81.8369 92.6511 81.885C92.6511 82.0294 92.6511 82.1978 92.6511 82.3903C92.6511 82.5346 92.6751 82.703 92.7232 82.8955C92.7232 83.0398 92.7232 83.1842 92.7232 83.3285C92.7232 83.6172 92.7473 83.9059 92.7954 84.1946C92.8435 84.3871 92.8676 84.6036 92.8676 84.8442C92.9157 84.9885 92.9638 85.1329 93.0119 85.2772C93.0119 85.4216 93.036 85.59 93.0841 85.7824C93.1322 86.023 93.1803 86.2395 93.2284 86.432C93.2766 86.6244 93.3247 86.8169 93.3728 87.0094C93.4209 87.2018 93.469 87.3702 93.5171 87.5146C93.5653 87.6108 93.5893 87.683 93.5893 87.7311C93.6374 87.9236 93.7096 88.092 93.8058 88.2363C93.8539 88.3807 93.9021 88.501 93.9502 88.5972C93.9502 88.6453 93.9502 88.6694 93.9502 88.6694C93.9983 88.7656 94.0464 88.8859 94.0945 89.0302C94.2389 89.3671 94.3832 89.6798 94.5276 89.9685C95.2012 91.3157 96.0192 92.5908 96.9815 93.7937C97.3183 94.2267 97.7032 94.6357 98.1362 95.0206L100.085 96.9693L106.364 103.248L109.468 106.424L129.171 126.055L155.081 100.145L160.206 95.0206C161.721 93.505 162.876 91.7728 163.742 89.9685C167.134 83.0398 165.907 74.4512 160.206 68.6773Z" fill="white"/>
<path d="M183.301 109.527L179.837 106.063C178.634 107.699 177.311 109.239 175.867 110.682L174.135 112.487C172.259 114.291 172.259 117.322 174.135 119.199C177.311 122.374 179.043 126.56 179.043 131.107C179.043 135.582 177.311 139.768 174.135 142.944L129.171 187.98L84.1345 142.944C77.5667 136.376 77.5667 125.766 84.1345 119.199L84.351 118.982C86.0832 117.25 86.0832 114.435 84.351 112.703L82.4023 110.682C80.9589 109.239 79.6357 107.699 78.4328 106.063L74.7519 109.816C62.9876 121.508 62.9876 140.634 74.7519 152.399L129.171 206.817L183.59 152.399C189.219 146.697 192.395 139.119 192.395 131.035C192.395 122.952 189.003 115.229 183.301 109.527ZM97.9197 86.5762L97.8475 86.6483L98.3527 87.6588C98.2084 87.322 98.064 86.9611 97.9197 86.5762Z" fill="white"/>
<path d="M163.742 89.9683C162.876 91.7726 161.721 93.5048 160.205 95.0204L155.081 100.145L151.905 96.9691L148.802 93.8657L135.017 80.0805L131.841 76.9048L129.171 74.2344L103.188 100.145L100.085 96.9691L98.136 95.0204C97.703 94.6355 97.3181 94.2265 96.9813 93.7935C96.0189 92.5906 95.201 91.3155 94.5273 89.9683L97.8473 86.6483L98.3526 87.6587C98.2082 87.3219 98.0639 86.961 97.9195 86.5761L101.167 83.3283L101.6 82.8953L112.354 72.1414L116.035 68.4605L119.427 65.0684C121.232 66.0066 122.964 67.1614 124.407 68.677L129.171 73.3683L133.862 68.677C135.378 67.1614 137.038 66.0066 138.842 65.0684L142.234 68.4605L145.915 72.1414L156.669 82.8953L160.35 86.5761L163.742 89.9683Z" fill="white"/>
</svg>
