<svg width="257" height="213" viewBox="0 0 257 213" fill="none" xmlns="http://www.w3.org/2000/svg">
<path d="M102.088 25.716H155.737C157.832 25.716 159.91 25.8034 161.965 25.9746C166.892 26.382 171.626 24.0008 174.091 19.7147C178.688 11.7228 173.44 1.62325 164.252 0.849367C161.443 0.613109 158.604 0.492188 155.735 0.492188H102.455C46.7981 0.492188 -0.19121 46.0249 0.195732 101.681C0.385483 129.143 11.6068 153.989 29.6294 172.012C47.8082 190.191 72.9278 201.427 100.67 201.427H155.735C158.604 201.427 161.445 201.306 164.252 201.07C173.44 200.294 178.686 190.196 174.091 182.204C171.626 177.918 166.892 175.537 161.965 175.944C159.91 176.116 157.83 176.203 155.735 176.203H100.67C58.5607 176.203 24.4243 141.447 25.44 99.1346C26.4259 58.0573 61.0033 25.716 102.088 25.716Z" fill="#30325E"/>
<path d="M29.2054 154.229L11.0675 200.582C8.15051 208.034 15.9452 215.166 23.111 211.604L73.9493 186.321L29.2054 154.229Z" fill="#30325E"/>
<path d="M197.139 59.7078C193.986 56.5416 190.437 53.727 186.593 51.3383C184.099 49.7831 181.152 49.3236 178.287 50.0417C175.413 50.7635 173.013 52.5791 171.529 55.1575C170.597 56.7964 170.104 58.6381 170.104 60.4817C170.104 64.2618 172.042 67.735 175.292 69.7702C186.147 76.5472 192.626 88.2113 192.626 100.969C192.626 113.722 186.143 125.384 175.284 132.163C170.277 135.303 168.632 141.727 171.54 146.792C173.473 150.133 177.072 152.209 180.932 152.209C182.93 152.209 184.884 151.655 186.575 150.604C203.885 139.874 214.217 121.317 214.217 100.969C214.221 85.3744 208.154 70.7226 197.139 59.7078Z" fill="#00C3AD"/>
<path d="M163.251 115.986C154.95 115.986 148.222 109.258 148.222 100.957C148.222 92.6564 154.95 85.9277 163.251 85.9277C171.552 85.9277 178.28 92.6564 178.28 100.957C178.28 109.258 171.552 115.986 163.251 115.986Z" fill="#FF7859"/>
<path d="M256.194 100.973C256.194 137.076 237.168 168.714 208.6 186.426C206.548 187.696 204.282 188.288 202.04 188.288C197.659 188.288 193.384 186.001 191.037 181.939C187.608 175.971 189.662 168.459 195.501 164.798C216.791 151.508 230.97 127.869 230.97 100.973C230.97 74.0765 216.791 50.4172 195.501 37.1273C191.587 34.6717 189.364 30.4823 189.364 26.1868C189.364 24.0921 189.915 21.9546 191.037 19.9865C194.592 13.8065 202.571 11.7546 208.622 15.5217C215.224 19.6274 221.319 24.453 226.779 29.9335C244.956 48.1105 256.194 73.2301 256.194 100.973Z" fill="#FF4653"/>
</svg>
