<svg width="152" height="174" viewBox="0 0 152 174" fill="none" xmlns="http://www.w3.org/2000/svg">
<path d="M76.0501 173.809C102.199 173.809 123.397 169.31 123.397 163.76C123.397 158.21 102.199 153.711 76.0501 153.711C49.9011 153.711 28.7031 158.21 28.7031 163.76C28.7031 169.31 49.9011 173.809 76.0501 173.809Z" fill="#E3E8E7"/>
<path d="M76.0498 43.6935C71.8848 43.6935 68.5078 40.3165 68.5078 36.1515V8.22949C68.5078 4.06449 71.8848 0.6875 76.0498 0.6875C80.2148 0.6875 83.5918 4.06449 83.5918 8.22949V36.1505C83.5918 40.3165 80.2158 43.6935 76.0498 43.6935Z" fill="#FF7859"/>
<path d="M56.7096 42.3484C53.1026 44.4314 48.4896 43.1954 46.4066 39.5874L35.7736 21.1704C33.6906 17.5634 34.9266 12.9504 38.5346 10.8674C42.1416 8.78436 46.7546 10.0204 48.8376 13.6284L59.4706 32.0454C61.5526 35.6534 60.3166 40.2664 56.7096 42.3484Z" fill="#FF4653"/>
<path d="M95.392 42.3484C98.999 44.4314 103.612 43.1954 105.695 39.5874L116.328 21.1704C118.411 17.5634 117.175 12.9504 113.567 10.8674C109.96 8.78436 105.347 10.0204 103.264 13.6284L92.631 32.0454C90.548 35.6534 91.784 40.2664 95.392 42.3484Z" fill="#00C3AD"/>
<path d="M12.5245 36.1612C12.5755 36.1612 12.6355 36.1722 12.7065 36.1952C31.2035 42.1742 53.1095 45.3332 76.0545 45.3332C98.9965 45.3332 120.901 42.1742 139.399 36.1992C139.47 36.1762 139.529 36.1652 139.58 36.1652C139.721 36.1652 140.244 36.3542 140.244 36.9202V88.6632C140.244 101.347 136.273 113.454 128.76 123.674C121.247 133.894 110.877 141.296 98.7685 145.081L76.0535 152.188L53.3295 145.081C41.2235 141.296 30.8535 133.894 23.3405 123.674C15.8275 113.454 11.8555 101.347 11.8555 88.6632V36.9192C11.8565 36.3512 12.3825 36.1612 12.5245 36.1612ZM12.5245 25.1172C6.28551 25.1172 0.8125 30.2352 0.8125 36.9202V88.6642C0.8125 119.347 20.7525 146.469 50.0345 155.623L76.0545 163.761L102.067 155.623C131.349 146.468 151.288 119.347 151.288 88.6642V36.9212C151.288 30.2382 145.818 25.1212 139.58 25.1212C138.404 25.1212 137.202 25.3032 136.003 25.6902C119.287 31.0902 98.5345 34.2902 76.0545 34.2902C53.5745 34.2902 32.8225 31.0912 16.1025 25.6872C14.9035 25.2982 13.7005 25.1172 12.5245 25.1172Z" fill="#30325E"/>
<path d="M123.027 81.7202C121.755 81.7202 120.483 81.2352 119.512 80.2642C112.208 72.9612 100.324 72.9612 93.0208 80.2642C91.0808 82.2062 87.9328 82.2052 85.9908 80.2642C84.0498 78.3232 84.0498 75.1752 85.9918 73.2342C97.1718 62.0542 115.363 62.0552 126.541 73.2342C128.483 75.1752 128.483 78.3222 126.542 80.2642C125.571 81.2352 124.298 81.7202 123.027 81.7202Z" fill="#00C3AD"/>
<path d="M56.8345 73.2257L60.1415 68.2167C61.4675 66.2087 59.9315 63.5477 57.5295 63.6917L51.5375 64.0517C50.3695 64.1217 49.2735 63.4887 48.7505 62.4427L46.0665 57.0737C44.9905 54.9207 41.9185 54.9207 40.8415 57.0737L38.1575 62.4427C37.6345 63.4887 36.5375 64.1217 35.3705 64.0517L29.3785 63.6917C26.9765 63.5477 25.4405 66.2077 26.7665 68.2167L30.0735 73.2257C30.7175 74.2017 30.7175 75.4677 30.0735 76.4447L26.7665 81.4537C25.4405 83.4617 26.9765 86.1227 29.3785 85.9787L35.3705 85.6187C36.5385 85.5487 37.6345 86.1817 38.1575 87.2277L40.8415 92.5967C41.9175 94.7497 44.9895 94.7497 46.0665 92.5967L48.7505 87.2277C49.2735 86.1817 50.3705 85.5487 51.5375 85.6187L57.5295 85.9787C59.9315 86.1227 61.4675 83.4627 60.1415 81.4537L56.8345 76.4447C56.1895 75.4677 56.1895 74.2007 56.8345 73.2257Z" fill="#FF4653"/>
<path d="M76.0526 131.93C60.4086 131.93 47.7266 119.248 47.7266 103.604C47.7266 101.875 49.1286 100.473 50.8576 100.473H101.247C102.976 100.473 104.378 101.875 104.378 103.604C104.379 119.248 91.6966 131.93 76.0526 131.93Z" fill="#FF7859"/>
</svg>
