<svg width="257" height="257" viewBox="0 0 257 257" fill="none" xmlns="http://www.w3.org/2000/svg">
<path d="M65.4141 51.1221L95.8825 81.5905C104.873 90.5814 116.711 95.0859 128.531 95.0859C140.351 95.0859 152.189 90.5814 161.18 81.5905L191.648 51.1221L173.144 32.6176L142.675 63.086C138.801 66.9599 133.666 68.9058 128.531 68.9058C123.396 68.9058 118.261 66.9599 114.387 63.086L83.9185 32.5996L65.4141 51.1221Z" fill="#269CD9"/>
<path d="M202.964 65.6641L172.495 96.1505C163.504 105.123 159 116.961 159 128.781C159 140.601 163.504 152.439 172.495 161.43L202.964 191.916L221.486 173.412L191 142.925C187.126 139.051 185.18 133.916 185.18 128.781C185.18 123.646 187.126 118.529 191 114.655L221.486 84.1685L202.964 65.6641Z" fill="#F8931E"/>
<path d="M191.666 210.386L161.18 179.899C152.189 170.908 140.351 166.422 128.531 166.422C116.711 166.422 104.873 170.908 95.8825 179.899L65.4141 210.386L83.9185 228.89L114.387 198.404C118.261 194.53 123.396 192.602 128.531 192.602C133.666 192.602 138.801 194.53 142.675 198.404L173.144 228.89L191.666 210.386Z" fill="#4AB649"/>
<path d="M50.4053 191.916L80.8737 161.43C89.8646 152.439 94.3691 140.619 94.3691 128.781C94.3691 116.961 89.8646 105.123 80.8737 96.1324L50.4053 65.6641L31.8828 84.1685L62.3692 114.655C66.2431 118.529 68.189 123.646 68.189 128.781C68.189 133.916 66.2431 139.051 62.3692 142.925L31.8828 173.412L50.4053 191.916Z" fill="#DE1C5D"/>
<path d="M22.427 150.024C34.5351 150.024 44.3368 140.223 44.3368 128.133C44.3368 116.024 34.5351 106.223 22.427 106.223C10.3369 106.223 0.535156 116.024 0.535156 128.133C0.535156 140.223 10.3369 150.024 22.427 150.024Z" fill="#DE1C5D"/>
<path d="M106.643 22.0227C106.643 34.1128 116.444 43.9145 128.534 43.9145C140.624 43.9145 150.426 34.1128 150.426 22.0227C150.426 9.93265 140.624 0.130859 128.534 0.130859C116.444 0.130859 106.643 9.93265 106.643 22.0227Z" fill="#269CD9"/>
<path d="M234.638 106.223C222.53 106.223 212.729 116.024 212.729 128.133C212.729 140.223 222.53 150.024 234.638 150.024C246.728 150.024 256.53 140.223 256.53 128.133C256.53 116.024 246.728 106.223 234.638 106.223Z" fill="#F8931E"/>
<path d="M150.426 234.222C150.426 222.132 140.624 212.33 128.534 212.33C116.444 212.33 106.643 222.132 106.643 234.222C106.643 246.33 116.444 256.132 128.534 256.132C140.624 256.132 150.426 246.33 150.426 234.222Z" fill="#4AB649"/>
</svg>
