<svg width="257" height="233" viewBox="0 0 257 233" fill="none" xmlns="http://www.w3.org/2000/svg">
<path fill-rule="evenodd" clip-rule="evenodd" d="M39.8014 32.6816C39.8014 32.6816 7.88501 66.4754 77.35 60.8431C99.8792 58.9657 125.037 58.9657 149.443 57.8392C206.517 58.5902 230.173 67.6019 243.315 116.415C249.323 140.446 250.825 148.331 246.694 110.783C236.556 23.6699 155.076 49.5785 77.35 49.5785C219.659 24.7964 241.062 19.9151 255.331 106.277C269.975 193.39 148.692 261.353 79.2274 220.425C70.2158 214.793 62.3305 207.658 56.6982 199.773C50.315 191.888 45.8091 182.125 43.5562 172.738C40.9278 162.975 40.1769 152.462 42.0543 142.324C27.7858 155.841 26.2838 180.999 15.3947 201.275C5.63209 143.826 -22.5294 70.9813 39.8014 32.6816ZM207.268 73.2342C206.517 70.2303 203.138 68.7283 200.51 69.8548C197.506 70.9813 195.253 74.3606 196.379 77.74C196.379 77.74 207.644 118.668 174.601 108.154C120.531 90.1311 129.167 130.684 129.167 130.684C129.543 133.312 132.547 135.189 135.926 134.438C138.554 133.312 140.807 129.933 139.681 126.553C139.681 126.553 136.301 108.154 170.095 119.419C224.541 136.691 207.268 73.6096 207.268 73.2342ZM123.535 151.335C122.784 150.584 121.657 150.209 120.531 149.458C125.037 152.462 128.041 156.217 129.167 160.723C130.294 165.228 129.543 170.485 127.29 174.991C124.661 178.746 121.657 183.252 119.404 187.758C116.776 192.263 112.646 195.267 108.14 196.394C103.634 197.52 98.7528 196.769 94.6224 194.516C95.3734 195.267 96.4998 195.643 96.8753 195.643C93.1204 203.153 89.3656 209.911 85.2352 216.67C93.1205 220.425 102.132 223.429 110.393 224.555C119.405 224.931 128.041 224.555 136.301 222.302C147.566 219.298 158.455 213.666 167.467 205.405C168.969 191.888 166.34 178.746 159.957 167.106C153.949 155.841 143.811 145.703 131.42 137.442C129.167 142.324 126.163 146.83 123.535 151.335ZM91.994 193.014C92.7449 193.39 93.4959 194.141 94.2469 194.141C90.492 191.888 87.4882 187.758 85.9862 183.252C84.8597 178.746 85.2352 173.865 88.2391 169.359C90.492 164.853 93.1204 160.723 95.7488 156.217C98.0017 151.711 102.132 149.082 107.013 147.956C111.144 146.83 116.025 147.205 120.531 149.458C119.404 149.082 119.029 148.331 117.903 147.956C120.656 143.45 123.41 138.944 126.163 134.438C113.397 127.68 99.8792 123.925 86.3617 123.925C73.5951 124.3 60.4531 127.68 49.1885 136.316C46.5601 147.956 46.5601 159.596 49.9395 170.861C52.1924 179.497 55.5718 187.382 60.4531 194.516C65.7099 202.026 72.4687 208.034 79.6029 213.291C83.7333 206.532 87.4881 199.773 91.994 193.014ZM122.784 162.6C122.408 159.596 120.155 156.968 117.152 155.09C114.523 153.588 111.519 152.837 108.14 153.964C105.511 154.715 102.508 156.217 101.006 159.221C98.7527 163.726 95.7489 168.232 93.4959 172.738C91.994 175.366 91.6185 178.746 91.994 181.75C93.1204 184.378 94.6224 187.382 97.6263 188.884C100.255 190.761 103.634 190.761 106.638 190.01C109.266 189.635 112.27 187.382 113.772 184.378C116.776 180.623 119.029 176.117 121.657 171.612C123.535 168.608 123.91 165.228 122.784 162.6Z" fill="#368CB2"/>
<path d="M48.8164 48.8309C61.5829 40.5702 123.538 20.2939 162.213 14.6616C202.766 8.65385 226.797 25.5507 215.532 23.6733C164.466 15.7881 95.3767 34.9379 48.8164 48.8309Z" fill="#368CB2"/>
<path d="M37.5508 39.4423C47.6889 30.0551 96.8777 9.02792 128.419 3.02014C157.331 -2.61216 173.852 1.89367 165.592 3.39562C125.039 10.9053 74.7239 22.1699 37.5508 39.4423Z" fill="#DD2A1B"/>
</svg>
