<svg width="256" height="256" viewBox="0 0 256 256" fill="none" xmlns="http://www.w3.org/2000/svg">
<path d="M195.677 158.038C189.546 158.038 183.539 157.466 177.654 156.321C179.37 164.168 180.351 172.138 180.351 180.107C180.351 207.571 169.684 233.931 150.926 253.793C152.561 253.548 154.154 253.221 155.707 252.812C209.041 241.042 249.868 196.046 255.386 140.628C255.467 139.32 255.549 137.972 255.631 136.582C238.711 150.436 217.623 158.038 195.677 158.038Z" fill="url(#paint0_linear_6_13074)"/>
<path d="M72.9513 72.705C82.6371 72.705 92.3229 74.0536 101.641 76.6284C101.069 72.2146 100.783 67.719 100.783 63.1418C100.783 39.6015 109.242 17.41 124.936 0C65.8402 1.34866 16.798 42.7893 3.55664 98.0843C22.9283 81.6552 47.2042 72.705 72.9513 72.705Z" fill="url(#paint1_linear_6_13074)"/>
<path d="M47.5711 227.432L61.6707 230.497C65.4715 231.356 69.2722 231.846 72.9504 231.846C101.395 231.846 124.567 208.551 124.567 180.107C124.567 174.467 123.709 168.95 121.87 163.555C116.966 149.088 106.054 137.563 91.8316 132.045C85.7014 129.593 79.3259 128.367 72.9504 128.367C44.3833 128.367 21.2109 151.54 21.2109 180.107C21.2109 182.804 21.4561 185.624 21.9466 188.444L24.2761 202.789C30.8968 211.984 38.7435 220.199 47.5711 227.432Z" fill="url(#paint2_linear_6_13074)"/>
<path d="M193.715 24.0319C172.872 25.1353 156.443 42.3001 156.443 63.143C156.443 66.576 156.934 70.0089 157.792 73.3192C161.225 86.3154 170.911 96.4917 183.662 100.538C187.585 101.764 191.508 102.377 195.677 102.377C215.662 102.377 232.704 86.6833 234.543 66.6986L235.401 58.2388C226.574 44.7522 215.294 32.9821 202.175 23.6641L193.715 24.0319Z" fill="url(#paint3_linear_6_13074)"/>
<path d="M256 127.877V128.123C240.184 142.835 218.973 151.908 195.678 151.908C186.238 151.908 177.287 150.437 168.828 147.739C172.261 157.916 174.1 168.828 174.1 180.107C174.1 209.9 161.226 236.751 140.628 255.264C136.46 255.673 132.25 255.877 128 255.877C126.937 255.877 125.916 255.877 124.935 255.877H124.322C123.423 255.796 122.524 255.755 121.625 255.755C121.543 255.755 121.42 255.755 121.257 255.755C120.194 255.673 119.172 255.591 118.192 255.51C117.292 255.428 116.353 255.346 115.372 255.264C114.963 255.264 114.513 255.223 114.023 255.142C113.287 255.06 112.511 254.978 111.694 254.897C110.631 254.733 109.568 254.57 108.506 254.406C107.525 254.243 106.544 254.079 105.563 253.916C104.337 253.67 102.989 253.425 101.64 253.18C100.822 253.017 99.9642 252.812 99.0651 252.567C98.0843 252.322 97.0626 252.077 96 251.831C93.9566 251.341 91.9131 250.769 89.8697 250.115C89.1341 249.87 88.3576 249.625 87.5402 249.379C87.2133 249.298 86.9272 249.175 86.682 249.011C86.5185 249.011 86.3959 248.971 86.3142 248.889C85.4968 248.644 84.7203 248.399 83.9847 248.153C83.0038 247.745 82.023 247.377 81.0422 247.05C80.1431 246.641 79.2848 246.273 78.4674 245.946C76.751 245.211 75.0345 244.434 73.318 243.617C72.5824 243.29 71.8876 242.963 71.2337 242.636C69.7625 241.9 68.3321 241.165 66.9425 240.429C65.553 239.693 64.1635 238.917 62.7739 238.1C62.1201 237.691 61.4662 237.282 60.8123 236.874C60.6488 236.792 60.5262 236.71 60.4445 236.628C64.4904 237.487 68.659 237.977 72.9502 237.977C104.828 237.977 130.82 211.985 130.82 180.107C130.82 173.854 129.716 167.602 127.755 161.594C122.238 145.41 109.977 132.536 94.0383 126.284C87.295 123.586 80.1839 122.238 72.9502 122.238C70.825 122.238 68.7407 122.36 66.6973 122.605C37.6398 125.671 14.9579 150.314 14.9579 180.107C14.9579 182.069 15.0805 183.99 15.3257 185.87V185.992C15.4891 187.137 15.6526 188.322 15.8161 189.548C15.6526 189.303 15.53 189.057 15.4483 188.812C15.3665 188.649 15.2848 188.485 15.2031 188.322C14.9578 187.913 14.7535 187.545 14.59 187.218C14.0179 186.156 13.4457 185.052 12.8736 183.908C12.3831 182.845 11.8518 181.742 11.2797 180.598C11.0345 179.985 10.7893 179.372 10.5441 178.759C10.2171 178.105 9.93103 177.451 9.68582 176.797C9.52234 176.388 9.35888 175.939 9.1954 175.448C8.70498 174.304 8.21456 173.119 7.72414 171.893C7.31546 170.667 6.90677 169.441 6.49809 168.215C6.33461 167.724 6.17113 167.234 6.00766 166.743C5.68071 165.681 5.35378 164.618 5.02683 163.556C4.86335 163.065 4.74074 162.575 4.65901 162.084C4.4138 161.103 4.16858 160.164 3.92337 159.264C3.43295 157.548 3.02426 155.831 2.69731 154.115C2.04342 150.845 1.51213 147.535 1.10344 144.184C0.939967 143.367 0.817377 142.508 0.73564 141.609C0.73564 141.609 0.73564 141.568 0.73564 141.487C0.653903 140.996 0.613027 140.506 0.613027 140.015C0.490421 139.28 0.490425 138.544 0.36782 137.686C0.286083 136.787 0.245207 135.847 0.245207 134.866C0.16347 134.621 0.122613 134.376 0.122613 134.13C0.122613 133.313 0.0817369 132.455 0 131.556C0 130.329 0 129.103 0 127.877C0 121.257 0.490418 114.759 1.47126 108.383C19.7395 90.115 44.9962 78.8352 72.9502 78.8352C85.9464 78.8352 98.4521 81.4099 109.854 85.9463C108.015 78.59 106.912 71.1111 106.912 63.2643C106.912 38.4981 117.088 16.0613 133.395 0C134.784 0.0817369 136.215 0.163489 137.686 0.245226C137.686 0.245226 137.727 0.245226 137.808 0.245226C139.198 0.4087 140.547 0.53129 141.854 0.613027C141.977 0.613027 142.1 0.735602 142.1 0.735602C143.407 0.817339 144.715 0.940004 146.023 1.10348C146.432 1.18522 146.799 1.26689 147.126 1.34863C148.026 1.43037 148.884 1.55303 149.701 1.71651C150.192 1.79824 150.682 1.92083 151.172 2.08431C152.317 2.24778 153.461 2.45212 154.605 2.69733C155.995 2.94254 157.384 3.26948 158.774 3.67816C160.082 3.92337 161.349 4.2503 162.575 4.65899C162.738 4.65899 162.902 4.6999 163.065 4.78164C163.964 5.02685 164.904 5.31287 165.885 5.63982C166.457 5.80329 167.029 5.96679 167.602 6.13027C168.664 6.53895 169.727 6.9068 170.789 7.23375C172.097 7.72417 173.405 8.21453 174.713 8.70495C176.02 9.19537 177.287 9.72672 178.513 10.2989C179.739 10.7893 180.966 11.3206 182.192 11.8927C182.314 12.0153 182.559 12.0154 182.682 12.138C183.745 12.6284 184.766 13.1187 185.747 13.6092C185.829 13.6909 185.951 13.7727 186.115 13.8544C186.932 14.2631 187.791 14.7127 188.69 15.2031C188.935 15.3666 189.18 15.4892 189.425 15.5709C189.752 15.7344 190.12 15.9387 190.529 16.1839C191.428 16.6743 192.327 17.2056 193.226 17.7778C193.308 17.7778 193.349 17.8186 193.349 17.9004C169.441 19.0038 150.314 38.8659 150.314 63.2643C150.314 67.1877 150.805 71.0294 151.785 74.7893C154.238 84.3525 159.632 92.567 166.989 98.4521C171.402 102.008 176.307 104.705 181.824 106.421C186.238 107.893 190.897 108.506 195.678 108.506C219.096 108.506 238.59 90.3602 240.797 67.3104C240.879 67.4739 240.92 67.5964 240.92 67.6782C241.492 68.7408 242.064 69.8442 242.636 70.9885C242.636 71.1111 242.759 71.1111 242.759 71.2337C243.413 72.378 243.985 73.6041 244.475 74.9119C244.966 75.8927 245.415 76.8736 245.824 77.8544C245.987 78.2631 246.192 78.7126 246.437 79.203C246.764 79.9387 247.05 80.6744 247.295 81.41C247.867 82.7995 248.358 84.1482 248.766 85.456C248.93 85.9464 249.093 86.4368 249.257 86.9272C249.665 87.9898 250.033 89.0932 250.36 90.2375C250.769 91.5453 251.137 92.8531 251.464 94.1609C251.709 95.1418 251.954 96.0817 252.199 96.9808C252.444 97.9617 252.69 98.8199 252.812 99.6782C253.793 103.683 254.529 107.811 255.019 112.061C255.101 113.042 255.223 114.023 255.387 115.004C255.387 115.167 255.387 115.331 255.387 115.494C255.469 116.393 255.55 117.333 255.632 118.314C255.714 119.377 255.796 120.398 255.877 121.379C255.959 123.586 256 125.752 256 127.877Z" fill="url(#paint4_linear_6_13074)"/>
<g style="mix-blend-mode:multiply" opacity="0.3">
<path d="M15.3262 185.992C15.4896 187.137 15.6531 188.322 15.8166 189.548C15.6531 189.302 15.5305 189.057 15.4488 188.812C15.367 187.831 15.3262 186.891 15.3262 185.992Z" fill="#B07C34"/>
</g>
<g style="mix-blend-mode:multiply" opacity="0.3">
<path d="M143.327 185.258C143.327 218.239 118.315 245.457 86.315 248.89C85.4977 248.645 84.7212 248.4 83.9855 248.154C83.0047 247.746 82.0239 247.378 81.043 247.051C80.1439 246.642 79.2857 246.274 78.4683 245.947C76.7518 245.212 75.0354 244.435 73.3189 243.618C72.5832 243.291 71.8885 242.964 71.2346 242.637C69.7633 241.901 68.3329 241.166 66.9434 240.43C65.5539 239.695 64.1643 238.918 62.7748 238.101C62.1209 237.692 61.467 237.283 60.8131 236.875C60.6497 236.793 60.527 236.711 60.4453 236.629C64.4913 237.488 68.6599 237.978 72.9511 237.978C104.828 237.978 130.821 211.986 130.821 180.108C130.821 173.856 129.717 167.603 127.756 161.595C122.238 145.411 109.978 132.537 94.0392 126.285C87.2959 123.587 80.1848 122.239 72.9511 122.239C70.8259 122.239 68.7416 122.361 66.6982 122.606C70.785 121.707 74.9945 121.258 79.3266 121.258C114.637 121.258 143.327 149.947 143.327 185.258Z" fill="#B07C34"/>
</g>
<g style="mix-blend-mode:multiply" opacity="0.3">
<path d="M247.295 81.4102C241.042 100.291 223.142 114.023 202.176 114.023C188.199 114.023 175.693 108.015 166.988 98.4523C171.402 102.008 176.306 104.705 181.824 106.422C186.237 107.893 190.896 108.506 195.678 108.506C219.096 108.506 238.59 90.3604 240.797 67.3105C240.878 67.474 240.919 67.5966 240.919 67.6783C241.491 68.7409 242.064 69.8444 242.636 70.9887C242.636 71.1113 242.758 71.1113 242.758 71.2339C243.412 72.3782 243.984 73.6042 244.475 74.912C244.965 75.8929 245.415 76.8737 245.824 77.8546C245.987 78.2633 246.191 78.7128 246.437 79.2032C246.763 79.9388 247.05 80.6745 247.295 81.4102Z" fill="#B07C34"/>
</g>
<defs>
<linearGradient id="paint0_linear_6_13074" x1="203.786" y1="319.811" x2="83.1434" y2="199.168" gradientUnits="userSpaceOnUse">
<stop stop-color="#8CC63F"/>
<stop offset="1" stop-color="#F9EC31"/>
</linearGradient>
<linearGradient id="paint1_linear_6_13074" x1="56.4192" y1="-47.501" x2="161.557" y2="57.6368" gradientUnits="userSpaceOnUse">
<stop stop-color="#F9EC31"/>
<stop offset="1" stop-color="#8CC63F"/>
</linearGradient>
<linearGradient id="paint2_linear_6_13074" x1="74.1679" y1="284.76" x2="-30.9294" y2="179.663" gradientUnits="userSpaceOnUse">
<stop stop-color="#8CC63F"/>
<stop offset="1" stop-color="#F9EC31"/>
</linearGradient>
<linearGradient id="paint3_linear_6_13074" x1="195.536" y1="141.282" x2="117.634" y2="63.3796" gradientUnits="userSpaceOnUse">
<stop stop-color="#8CC63F"/>
<stop offset="1" stop-color="#F9EC31"/>
</linearGradient>
<linearGradient id="paint4_linear_6_13074" x1="0.0171648" y1="0.0281982" x2="255.982" y2="0.0281982" gradientUnits="userSpaceOnUse">
<stop stop-color="#F68D39"/>
<stop offset="1" stop-color="#F9EC31"/>
</linearGradient>
</defs>
</svg>
