<svg width="257" height="239" viewBox="0 0 257 239" fill="none" xmlns="http://www.w3.org/2000/svg">
<path d="M128.644 14.2686C130.701 22.1531 136.871 28.3235 144.756 30.3804C136.871 32.4372 130.701 38.6077 128.644 46.5779C126.587 38.6077 120.417 32.4372 112.532 30.3804C120.417 28.3235 126.587 22.1531 128.644 14.2686Z" fill="url(#paint0_linear_1_1095)"/>
<path fill-rule="evenodd" clip-rule="evenodd" d="M244.169 96.5418C227.8 121.652 197.805 137.85 175.608 147.02C166.695 150.705 157.354 153.962 147.755 156.704C152.297 168.274 161.553 178.301 175.18 186.528L195.834 199.469C195.834 199.469 176.551 195.184 166.781 195.784C129.587 198.098 128.644 226.379 128.644 226.379C128.644 226.379 127.701 198.098 90.5069 195.784C80.7369 195.184 61.4542 199.469 61.4542 199.469L82.1082 186.528C95.7347 178.301 104.99 168.274 109.533 156.704C99.934 153.962 90.5926 150.705 81.6796 147.02C59.483 137.85 29.4876 121.652 13.1187 96.5418C1.37759 78.4588 -2.13616 58.2333 2.83451 36.2938L4.80563 27.3809L11.3189 33.8084C11.4046 33.8941 16.5467 39.0362 24.6883 47.0921C25.631 36.6366 28.2021 25.2383 32.1443 13.1544L34.4583 6.12695L40.2002 10.8405C40.3716 11.0119 61.9684 28.6664 82.7938 53.5197C95.5632 68.6889 105.333 83.2581 112.018 96.8846C127.444 82.0583 128.644 51.72 128.644 51.72C128.644 51.72 129.844 82.0583 145.27 96.8846C151.955 83.2581 161.725 68.6889 174.408 53.5197C195.32 28.6664 216.916 11.0119 217.088 10.8405L222.83 6.12695L225.144 13.1544C229.086 25.2383 231.657 36.6366 232.6 47.0921C240.741 39.0362 245.883 33.8941 245.969 33.8084L252.482 27.3809L254.453 36.2938C259.424 58.2333 255.91 78.4588 244.169 96.5418ZM153.583 103.141C156.411 104.683 159.411 105.969 162.667 106.826C165.238 107.597 167.981 108.111 170.809 108.454L222.915 56.6907C222.915 46.7493 221.116 35.6939 217.773 23.6957C203.718 36.1224 170.038 68.4317 153.583 103.141ZM246.14 47.9492L233.028 60.9757C232.342 78.116 226.858 92.0853 216.916 102.455C206.803 112.911 192.063 118.91 176.465 118.91C175.894 118.91 175.294 118.91 174.665 118.91L147.07 146.334C155.554 143.763 163.867 140.849 171.837 137.593C192.663 129.023 220.687 113.939 235.685 90.9712C244.169 77.9446 247.683 63.4611 246.14 47.9492ZM144.584 134.507L161.982 117.196C161.239 117.024 160.525 116.824 159.839 116.596C156.24 115.567 152.812 114.196 149.641 112.568C146.813 120.281 145.099 127.566 144.584 134.507ZM116.389 106.74C121.445 119.681 123.673 131.936 122.816 143.249C122.816 143.649 122.788 144.049 122.731 144.449L128.644 150.362L134.557 144.449C134.5 144.049 134.472 143.649 134.472 143.249C133.615 131.936 135.843 119.681 140.899 106.74C135.157 101.941 131.301 96.5418 128.644 91.9139C125.987 96.5418 122.131 101.941 116.389 106.74ZM107.647 112.568C104.476 114.196 101.048 115.567 97.4487 116.596C96.7631 116.824 96.0489 117.024 95.3061 117.196L112.703 134.507C112.189 127.566 110.475 120.281 107.647 112.568ZM34.3726 56.6907L86.4789 108.454C89.307 108.111 92.0495 107.597 94.6205 106.826C97.8772 105.969 100.877 104.683 103.705 103.141C87.2502 68.4317 53.5696 36.1224 39.5146 23.6957C36.1723 35.6939 34.3726 46.7493 34.3726 56.6907ZM110.218 146.334L82.6223 118.91C81.9939 118.91 81.394 118.91 80.8226 118.91C65.225 118.91 50.4844 112.911 40.3716 102.455C30.4303 92.0853 24.9454 78.116 24.2598 60.9757L11.1475 47.9492C9.60489 63.4611 13.1187 77.9446 21.6031 90.9712C36.6008 113.939 64.6251 129.023 85.4505 137.593C93.4207 140.849 101.734 143.763 110.218 146.334ZM35.9152 72.5454C37.972 81.7155 41.9143 89.3428 47.742 95.4276C55.198 103.141 64.0252 106.569 71.5669 107.94L35.9152 72.5454ZM137.814 159.361C134.3 160.218 129.415 161.246 129.158 161.332L128.644 161.418L128.044 161.332C127.787 161.246 122.902 160.218 119.388 159.361C115.703 169.302 109.275 178.301 100.105 186.1C101.705 186.271 103.276 186.528 104.819 186.871C115.36 188.842 123.502 193.127 128.644 199.469C133.786 193.127 141.928 188.842 152.383 186.871C153.926 186.528 155.497 186.271 157.097 186.1C148.012 178.301 141.499 169.302 137.814 159.361ZM185.721 107.94C193.263 106.569 202.004 103.141 209.546 95.342C215.374 89.3429 219.316 81.7155 221.287 72.5454L185.721 107.94Z" fill="url(#paint1_linear_1_1095)"/>
<path d="M69.1673 28.3241C86.9075 16.6688 107.39 10.584 128.644 10.584C149.898 10.584 170.381 16.6688 188.121 28.3241C190.777 25.6674 193.263 23.2677 195.577 20.9538C175.78 7.49871 152.726 0.299805 128.644 0.299805C104.562 0.299805 81.5083 7.49871 61.7113 20.9538C64.0252 23.2677 66.5106 25.6674 69.1673 28.3241Z" fill="url(#paint2_linear_1_1095)"/>
<path d="M237.399 115.739C237.399 116.939 237.485 118.224 237.485 119.424C237.485 179.415 188.635 228.265 128.644 228.265C68.6531 228.265 19.8034 179.415 19.8034 119.424C19.8034 118.224 19.8891 116.939 19.8891 115.739C16.5467 112.225 13.3758 108.626 10.4619 104.684C9.86204 109.569 9.51923 114.539 9.51923 119.424C9.51923 185.071 62.9968 238.463 128.644 238.463C194.291 238.463 247.769 185.071 247.769 119.424C247.769 114.539 247.426 109.569 246.826 104.684C243.912 108.626 240.741 112.225 237.399 115.739Z" fill="url(#paint3_linear_1_1095)"/>
<defs>
<linearGradient id="paint0_linear_1_1095" x1="112.502" y1="14.2531" x2="144.786" y2="14.2531" gradientUnits="userSpaceOnUse">
<stop stop-color="#FFD53D"/>
<stop offset="1" stop-color="#FF873D"/>
</linearGradient>
<linearGradient id="paint1_linear_1_1095" x1="0.634559" y1="6.11923" x2="256.652" y2="6.11923" gradientUnits="userSpaceOnUse">
<stop stop-color="#FFD53D"/>
<stop offset="1" stop-color="#FF873D"/>
</linearGradient>
<linearGradient id="paint2_linear_1_1095" x1="61.6967" y1="0.313517" x2="195.592" y2="0.313517" gradientUnits="userSpaceOnUse">
<stop stop-color="#00E0B6"/>
<stop offset="1" stop-color="#087D7B"/>
</linearGradient>
<linearGradient id="paint3_linear_1_1095" x1="9.54922" y1="104.712" x2="247.739" y2="104.712" gradientUnits="userSpaceOnUse">
<stop stop-color="#00E0B6"/>
<stop offset="1" stop-color="#087D7B"/>
</linearGradient>
</defs>
</svg>
