<svg width="256" height="181" viewBox="0 0 256 181" fill="none" xmlns="http://www.w3.org/2000/svg">
<path fill-rule="evenodd" clip-rule="evenodd" d="M256 36.3035C256 42.1518 252.028 47.669 245.076 51.6414C239.117 55.0621 230.952 56.7172 221.793 57.3793V137.269C220.138 152.607 211.972 178.428 175.338 180.414V180.524H80.662V180.414C42.4827 178.317 35.3103 150.29 34.2069 135.283V57.3793C25.0483 56.7172 16.8828 55.0621 10.9242 51.6414C3.97244 47.669 0 42.1518 0 36.3035C0 30.6759 4.30345 25.0483 12.6897 25.0483H34.2069V24.9379C34.2069 11.2551 16.331 7.17241 16.331 7.17241V0H27.3655C40.9379 0.662069 64.2207 4.52412 80.662 20.1931C90.3724 29.5724 97.7655 43.1449 99.3103 62.7862V62.8966C99.4575 65.2506 99.531 67.715 99.531 70.2897C100.083 84.4138 100.414 94.8966 100.414 94.8966C100.414 94.8966 84.3034 103.945 80.662 121.49V137.269C83.4207 154.041 94.1242 163.972 104.497 163.972C116.745 163.862 129.103 150.51 129.103 128.441C129.103 106.483 108.579 94.8966 108.579 94.8966C108.579 94.8966 109.021 83.7518 109.572 68.8552C109.572 68.8552 109.572 68.7816 109.572 68.6345C109.903 64.4414 114.759 10.1517 130.869 10.1517C145.986 10.1517 151.283 58.3724 152.166 67.3103C152.239 67.8253 152.276 68.1931 152.276 68.4138C153.048 85.6276 153.49 98.8689 153.49 98.8689C153.49 98.8689 140.579 106.262 140.248 117.628C139.917 128.993 143.117 163.972 143.117 163.972H146.317L146.207 123.255C146.207 122.041 147.2 121.048 148.414 121.048C149.628 121.048 150.621 122.041 150.621 123.255L150.731 163.972H156.028L155.917 123.255C155.917 121.931 156.91 121.048 158.124 121.048C159.338 121.048 160.331 121.931 160.331 123.255L160.441 163.862H165.738V123.255C165.628 121.931 166.731 120.938 167.834 120.938C169.048 120.938 170.041 121.931 170.041 123.145L170.262 163.862H173.462C173.462 163.862 174.566 151.062 175.338 138.483V113.545C172.579 104.497 162.648 98.8689 162.648 98.8689C162.648 98.8689 163.31 78.8966 164.193 56.1655C164.193 56.1655 164.193 56.0552 164.193 55.9448C165.959 44.469 170.041 35.2 175.338 27.9172C191.448 5.62757 219.807 0.882759 235.366 0H239.669V7.17241C239.669 7.17241 221.793 11.2551 221.793 24.9379V25.0483H243.2C251.697 25.0483 256 30.6759 256 36.3035ZM34.2069 36.6345H12.6897C12.0276 36.6345 11.5862 36.7449 11.3655 36.8552C11.5862 36.8552 12.0276 37.7379 13.1311 38.9517C14.6759 40.3862 20.6345 44.8 34.2069 45.9034V36.6345ZM244.634 36.8552C244.414 36.7449 243.972 36.6345 243.2 36.6345H221.793V45.9034C235.366 44.8 241.324 40.3862 242.869 38.9517C243.972 37.7379 244.303 36.8552 244.634 36.8552Z" fill="black"/>
</svg>
