<svg width="257" height="152" viewBox="0 0 257 152" fill="none" xmlns="http://www.w3.org/2000/svg">
<path d="M214.471 58.4159L47.9604 52.584C47.3571 53.1873 46.7873 53.8241 46.251 54.4945C59.222 55.6005 66.2605 67.4654 66.2605 67.4654C66.2605 67.4654 119.351 64.0467 130.814 63.1417C142.176 62.1362 141.773 68.1692 141.773 68.1692C141.773 68.1692 142.578 74.1017 131.115 73.6995C119.652 73.2973 66.4616 72.7945 66.4616 72.7945C66.4616 72.7945 59.222 86.5699 44.6422 86.9721C37.8048 87.0726 32.2746 85.3632 28.2526 82.7489C26.979 85.4973 25.7724 88.3462 24.6328 91.2957L224.023 72.4928C221.007 67.3648 217.789 62.639 214.471 58.4159Z" fill="#E0942F"/>
<path d="M193.254 33.4795C170.831 42.529 131.214 34.7866 131.214 34.7866L131.516 29.8597L97.4295 30.7646C95.5191 30.7646 94.0108 29.1559 94.1114 27.1449V26.7426C94.2119 24.9327 95.7202 23.6256 97.4295 23.7261L131.717 25.5361L185.411 28.2509C166.407 16.6877 147.604 13.1684 137.247 12.1629C136.141 8.54311 133.225 0.800781 128.801 0.800781C124.276 0.800781 121.461 8.54311 120.355 12.1629C106.982 13.4701 79.8333 18.8998 56.1035 40.2163L206.928 45.445C202.504 40.8197 197.879 36.8982 193.254 33.4795Z" fill="#E0942F"/>
<path d="M19.4023 111.405V112.008H238.199V111.405C237.797 109.997 237.395 108.69 236.992 107.383C232.669 107.986 217.184 109.896 211.654 109.896C205.118 109.997 200.493 102.657 200.493 102.657C200.493 102.657 145.492 107.081 139.157 107.785C132.823 108.589 132.622 102.858 132.622 102.858C132.622 102.858 132.32 97.1265 138.755 97.4281C145.09 97.6292 200.292 97.4281 200.292 97.4281C200.292 97.4281 204.314 89.8869 210.749 89.3841C214.771 89.0825 224.021 89.3841 230.457 89.5852C229.786 87.9764 229.049 86.4011 228.244 84.8594L21.4133 104.366C20.676 106.645 20.0056 108.991 19.4023 111.405Z" fill="#E0942F"/>
<path d="M213.162 99.5412C213.162 100.245 213.765 100.848 214.469 100.748L234.579 99.9434C234.311 99.139 234.009 98.3011 233.674 97.4297L214.369 98.2341C213.665 98.2341 213.162 98.8374 213.162 99.5412Z" fill="#E0942F"/>
<path d="M212.96 94.01C212.96 94.7138 213.564 95.2166 214.267 95.2166L232.467 94.4122C232.165 93.6078 231.864 92.8034 231.562 91.8984L214.167 92.7028C213.463 92.7028 212.86 93.3061 212.96 94.01Z" fill="#E0942F"/>
<path d="M213.363 105.171C213.363 105.875 213.967 106.378 214.67 106.378L236.389 105.473C236.188 104.668 235.92 103.83 235.585 102.959L214.57 103.864C213.866 103.864 213.363 104.467 213.363 105.171Z" fill="#E0942F"/>
<path d="M1.50557 120.455L0.701172 131.013L255.897 151.022L256.701 140.465L1.50557 120.455Z" fill="#E0942F"/>
</svg>
