<svg width="257" height="237" viewBox="0 0 257 237" fill="none" xmlns="http://www.w3.org/2000/svg">
<path d="M249.695 161.355L173.416 29.2273C169.154 20.556 162.541 13.0604 153.575 7.91638L153.281 7.62244C129.472 -6.04596 98.9017 2.0375 85.2333 25.847L7.04419 161.355C-6.77117 185.165 1.45927 215.588 25.2687 229.256L25.5627 229.55C49.3721 243.219 79.7953 235.135 93.6107 211.326L128.296 150.92L163.128 211.326C176.944 235.135 207.367 243.219 231.176 229.55L231.47 229.256C255.28 215.588 263.363 185.165 249.695 161.355Z" fill="url(#paint0_linear_10_1230)"/>
<g style="mix-blend-mode:overlay" opacity="0.5">
<path d="M88.7606 31.4319C102.576 7.62243 133.881 4.683 152.987 16.8817C168.713 26.8758 208.69 90.5146 208.69 90.5146L173.416 29.2273C169.154 20.556 162.54 13.0604 153.575 7.91638L153.281 7.62244C129.472 -6.04596 98.9016 2.0375 85.2332 25.847L47.9023 90.5146L88.7606 31.4319Z" fill="white"/>
</g>
<g style="mix-blend-mode:multiply" opacity="0.3">
<path d="M197.52 70.9668C182.823 86.3989 156.368 95.952 128.149 95.952C100.077 95.952 73.7693 86.5458 59.0721 71.2607L29.3838 122.701C54.8099 142.248 87.1438 157.68 124.034 158.562L128.296 150.92L132.705 158.415C169.448 157.533 201.782 141.807 227.061 122.26L197.52 70.9668Z" fill="#35029C"/>
</g>
<path d="M128.149 148.569C81.2645 148.569 37.6138 131.079 11.1589 101.832C-0.451916 89.0454 0.576897 69.2042 13.5104 57.5934C26.297 45.9827 46.1382 47.0115 57.749 59.945C72.1522 75.9649 99.1951 85.959 128.149 85.959C157.102 85.959 184.145 75.9649 198.548 59.945C210.159 47.0115 230 45.9827 242.787 57.5934C255.72 69.2042 256.749 88.8985 245.138 101.832C218.683 131.079 175.033 148.569 128.149 148.569Z" fill="url(#paint1_radial_10_1230)"/>
<g style="mix-blend-mode:overlay" opacity="0.5">
<path d="M13.5115 64.2072C26.2981 52.7434 46.1393 53.7722 57.7501 66.5587C72.1534 82.5787 99.1962 92.5728 128.15 92.5728C157.103 92.5728 184.146 82.5787 198.549 66.5587C210.16 53.6252 230.001 52.7434 242.788 64.2072C248.814 69.6451 252.194 76.8468 252.929 84.1954C253.958 74.4952 250.577 64.6481 242.788 57.5934C230.001 45.9827 210.16 47.0115 198.549 59.945C184.146 75.9649 157.103 85.959 128.15 85.959C99.1962 85.959 72.1534 75.9649 57.7501 59.945C46.1393 47.0115 26.2981 45.9827 13.5115 57.5934C5.72203 64.6481 2.34167 74.4952 3.37047 84.1954C4.10533 76.8468 7.4857 69.6451 13.5115 64.2072Z" fill="white"/>
</g>
<g style="mix-blend-mode:multiply" opacity="0.3">
<path d="M245.139 76.9941C218.684 106.242 175.033 123.731 128.149 123.731C81.265 123.731 37.6143 106.242 11.1594 76.9941C8.8078 74.3486 7.04414 71.5561 5.72139 68.4697C1.01829 79.3457 2.78195 92.4262 11.1594 101.832C37.6143 131.08 81.265 148.569 128.149 148.569C175.033 148.569 218.684 131.08 245.139 101.832C253.663 92.4262 255.28 79.3457 250.577 68.4697C249.254 71.5561 247.49 74.3486 245.139 76.9941Z" fill="#F44B3C"/>
</g>
<defs>
<linearGradient id="paint0_linear_10_1230" x1="236.365" y1="4.21857" x2="236.369" y2="238.73" gradientUnits="userSpaceOnUse">
<stop stop-color="#BA55FF"/>
<stop offset="1" stop-color="#35029C"/>
</linearGradient>
<radialGradient id="paint1_radial_10_1230" cx="0" cy="0" r="1" gradientUnits="userSpaceOnUse" gradientTransform="translate(123.257 100.744) rotate(-90.0007) scale(114.947 114.947)">
<stop stop-color="#FCED00"/>
<stop offset="1" stop-color="#F44B3C"/>
</radialGradient>
</defs>
</svg>
