<svg width="257" height="236" viewBox="0 0 257 236" fill="none" xmlns="http://www.w3.org/2000/svg">
<path d="M231.256 229.25L231.55 228.956C255.359 215.288 263.59 184.865 249.775 161.055L171.585 25.5472C157.77 1.73769 127.347 -6.34576 103.537 7.32264L103.243 7.61655C79.434 21.2849 71.3505 51.7082 85.0189 75.5176L163.208 211.026C177.023 234.835 207.447 242.919 231.256 229.25Z" fill="url(#paint0_linear_10_1218)"/>
<path d="M7.12341 161.055L85.3125 25.5466C98.54 2.76593 126.906 -5.61147 150.274 5.85235V5.70537C152.822 6.97912 155.222 8.39984 157.476 9.96754C157.77 10.2615 158.113 10.5554 158.505 10.8494C159.19 11.3393 159.876 11.8782 160.562 12.4661C166.147 17.0222 170.409 22.7541 173.496 28.9269L223.907 116.228C223.907 116.228 172.908 82.2778 136.018 137.686L93.69 211.025C79.8746 234.835 49.4513 242.918 25.6418 229.25L25.348 228.956C1.5385 215.287 -6.54499 184.864 7.12341 161.055Z" fill="url(#paint1_linear_10_1218)"/>
<path d="M134.254 183.247L148.51 207.792C151.009 212.201 147.922 217.786 142.778 217.786H114.266C109.122 217.786 105.888 212.201 108.387 207.792L122.643 183.247C125.289 178.838 131.608 178.838 134.254 183.247Z" fill="url(#paint2_linear_10_1218)"/>
<defs>
<linearGradient id="paint0_linear_10_1218" x1="402.137" y1="148.448" x2="316.314" y2="-11.2278" gradientUnits="userSpaceOnUse">
<stop stop-color="#64EBEC"/>
<stop offset="0.995" stop-color="#3B31BC"/>
</linearGradient>
<linearGradient id="paint1_linear_10_1218" x1="31.1577" y1="-105.783" x2="-80.9451" y2="174.475" gradientUnits="userSpaceOnUse">
<stop stop-color="#64EBEC"/>
<stop offset="0.995" stop-color="#3B31BC"/>
</linearGradient>
<linearGradient id="paint2_linear_10_1218" x1="111.381" y1="219.952" x2="111.381" y2="168.706" gradientUnits="userSpaceOnUse">
<stop stop-color="#BA55FF"/>
<stop offset="1" stop-color="#35029C"/>
</linearGradient>
</defs>
</svg>
