<svg width="257" height="234" viewBox="0 0 257 234" fill="none" xmlns="http://www.w3.org/2000/svg">
<path d="M231.97 29.9605C231.97 29.8576 231.944 29.7547 231.893 29.6518C236.291 25.7167 239.686 20.6241 241.615 15.0686C237.834 18.0778 232.973 19.621 228.189 20.4698C231.662 14.1427 232.587 7.19832 231.353 0.0996094C227.341 7.12116 220.319 12.1365 212.68 14.6828C207.125 16.6118 201.261 17.3063 195.396 17.3834C192.516 17.1777 189.635 17.0491 186.754 16.9976C184.44 16.8433 182.125 16.689 179.887 16.9976C174.255 17.1519 168.622 17.8464 163.452 20.1612C158.745 22.1673 154.502 25.7938 152.341 30.3463H186.137C184.671 32.0438 182.511 33.8956 181.045 35.5931C179.579 37.2135 178.035 38.8338 176.029 39.374C173.329 40.0684 170.551 38.6024 168.236 37.1363C165.844 35.5931 163.375 33.8956 160.597 33.9728H150.258C142.851 36.0561 134.363 40.2999 128.036 44.4665C121.4 48.8646 116.153 56.0405 116.23 63.9108C116.23 64.7338 116.308 65.5569 116.462 66.3799C123.252 63.9108 130.582 62.5219 138.221 62.5219C145.705 62.5219 152.804 63.8336 159.44 66.2256C160.726 66.6371 161.986 67.1258 163.221 67.6916C163.375 67.7431 163.529 67.7945 163.684 67.8459C169.162 70.2379 174.255 73.4786 178.807 77.1823C183.745 86.7501 185.906 97.784 184.517 108.432C187.14 106.889 189.301 104.651 190.998 102.105C191.153 115.839 185.674 129.574 176.184 139.45C166.693 149.327 153.19 155.268 139.456 155.654C148.946 164.604 163.066 168.308 175.721 165.222C182.665 163.601 189.069 160.129 194.47 155.5C194.316 155.808 194.162 156.117 194.008 156.425C193.905 156.631 193.776 156.863 193.622 157.12C193.004 158.252 192.336 159.383 191.616 160.515C189.378 163.91 186.909 167.074 184.131 170.006C188.683 170.006 193.313 169.62 198.097 168.617C194.393 172.012 190.304 174.79 185.674 176.873C185.057 188.601 192.773 201.95 202.958 208.663C235.134 185.36 256.121 147.552 256.121 104.806C256.121 76.8736 247.171 51.0251 231.97 29.9605Z" fill="url(#paint0_linear_1_1085)"/>
<path style="mix-blend-mode:screen" d="M213.606 63.4474C212.68 67.2025 211.729 70.9319 210.751 74.6355C200.026 59.2036 181.893 49.0956 163.066 48.1697C145.937 47.3981 128.576 54.1882 116.462 66.3023C116.462 66.3537 116.462 66.3794 116.462 66.3794C123.252 63.9103 130.582 62.5214 138.221 62.5214C145.705 62.5214 152.804 63.8331 159.44 66.2251C160.726 66.6366 161.986 67.1253 163.221 67.6912C163.375 67.7426 163.529 67.794 163.684 67.8455C169.162 70.2374 174.255 73.4781 178.807 77.1818C183.745 86.7496 185.906 97.7835 184.517 108.432C187.14 106.888 189.301 104.651 190.998 102.104C191.153 115.839 185.674 129.573 176.184 139.45C166.693 149.326 153.19 155.268 139.456 155.653C139.456 155.653 139.481 155.679 139.533 155.731C160.52 156.425 181.739 148.015 196.168 132.66C213.143 114.604 220.01 87.4441 213.606 63.4474Z" fill="url(#paint1_linear_1_1085)"/>
<path style="mix-blend-mode:multiply" d="M245.782 54.4209C242.773 80.4238 233.668 106.041 216.307 125.485C198.637 145.315 171.631 157.584 145.474 155.114C143.468 155.423 141.462 155.603 139.456 155.655C148.946 164.605 163.066 168.309 175.721 165.222C182.665 163.602 189.069 160.13 194.47 155.5C194.316 155.809 194.162 156.118 194.008 156.426C193.905 156.632 193.776 156.863 193.622 157.121C193.004 158.252 192.336 159.384 191.616 160.516C189.378 163.911 186.909 167.074 184.131 170.006C188.683 170.006 193.313 169.621 198.097 168.617C194.393 172.013 190.304 174.79 185.674 176.874C185.674 176.925 185.674 176.976 185.674 177.028C196.168 176.179 206.507 172.784 215.998 168C229.578 161.21 241.692 151.334 251.337 139.605C254.424 128.494 256.121 116.843 256.121 104.806C256.121 86.9052 252.418 69.8529 245.782 54.4209Z" fill="url(#paint2_linear_1_1085)"/>
<path d="M141.847 232.196C143.185 232.094 144.522 231.939 145.86 231.733C146.58 231.631 147.3 231.528 148.02 231.425C149.255 231.219 150.464 231.013 151.647 230.808C152.418 230.653 153.19 230.499 153.962 230.345C155.093 230.087 156.199 229.83 157.279 229.573C158.102 229.367 158.926 229.187 159.749 229.033C160.777 228.724 161.78 228.441 162.758 228.184C163.632 227.927 164.507 227.67 165.381 227.413C166.204 227.155 167.002 226.898 167.773 226.641C170.345 225.818 172.866 224.918 175.335 223.94C175.438 223.889 175.541 223.837 175.643 223.786C176.981 223.272 178.293 222.706 179.579 222.089C179.99 221.934 180.376 221.78 180.736 221.626C182.022 221.008 183.308 220.391 184.594 219.774C184.954 219.619 185.314 219.439 185.674 219.234C186.96 218.565 188.246 217.896 189.532 217.227C189.789 217.073 190.072 216.919 190.381 216.765C191.718 215.993 193.03 215.221 194.316 214.45C194.47 214.347 194.625 214.244 194.779 214.141C231.584 191.61 256.121 151.101 256.121 104.806C256.121 97.6297 255.504 90.531 254.346 83.6638C254.295 83.6638 254.244 83.6638 254.192 83.6638C245.705 123.787 210.134 153.956 167.387 153.956C154.733 153.956 142.619 151.256 131.74 146.472C129.168 145.083 126.596 143.668 124.024 142.228C79.5023 116.534 44.4717 74.7132 27.1108 26.2568C8.90104 46.0098 9.67265 79.5743 22.1725 103.34C34.6724 127.105 57.1259 144.08 80.5054 157.274C83.7461 159.126 87.0125 160.901 90.3047 162.598C56.0457 147.938 26.0305 123.633 4.88872 93.0001C4.11712 94.4404 3.44842 95.8807 2.88258 97.3211C0.181987 104.265 -0.358137 111.827 0.490621 119.234C1.18506 125.562 2.34246 131.657 3.96281 137.676C7.28069 146.549 12.2961 154.805 18.4689 161.518C34.9039 179.419 58.5148 188.987 81.9714 195.083C84.2862 195.7 86.601 196.266 88.9158 196.78C64.0703 193.308 39.9193 184.743 18.4689 171.703C40.9995 208.431 81.5856 233.045 127.882 233.045C129.991 232.994 132.1 232.917 134.209 232.814C134.517 232.814 134.826 232.814 135.135 232.814C136.781 232.711 138.401 232.582 139.996 232.428C140.613 232.377 141.23 232.299 141.847 232.196Z" fill="url(#paint3_linear_1_1085)"/>
<path style="mix-blend-mode:screen" d="M116.23 157.429C180.736 181.657 213.143 154.959 228.884 129.188C212.912 144.543 191.307 153.956 167.387 153.956C154.733 153.956 142.619 151.256 131.74 146.472C129.168 145.083 126.596 143.668 124.024 142.228C79.5023 116.534 44.4717 74.7132 27.1108 26.2568C27.1108 26.2568 7.28069 116.534 116.23 157.429Z" fill="url(#paint4_linear_1_1085)"/>
<path d="M254.346 83.6641C254.295 83.6641 254.244 83.6641 254.192 83.6641C245.705 123.787 210.134 153.957 167.387 153.957C163.529 154.728 159.517 155.191 155.582 155.809C148.715 156.889 141.616 158.509 135.983 162.676C139.996 172.012 150.258 179.034 160.443 179.882C149.178 179.497 136.832 182.583 126.724 187.444C133.283 196.395 144.702 203.03 155.813 201.719C150.644 205.731 142.851 208.817 136.369 209.589C129.888 210.361 122.866 211.827 118.699 216.842C127.65 223.786 138.144 228.647 149.1 231.194C149.975 231.091 150.824 230.962 151.647 230.808C152.418 230.654 153.19 230.499 153.962 230.345C155.093 230.088 156.199 229.831 157.279 229.573C158.102 229.368 158.925 229.188 159.749 229.033C160.777 228.725 161.78 228.442 162.758 228.184C163.632 227.927 164.507 227.67 165.381 227.413C166.204 227.156 167.002 226.898 167.773 226.641C170.345 225.818 172.866 224.918 175.335 223.941C175.438 223.889 175.541 223.838 175.643 223.786C176.981 223.272 178.293 222.706 179.579 222.089C179.99 221.935 180.376 221.78 180.736 221.626C182.022 221.009 183.308 220.391 184.594 219.774C184.954 219.62 185.314 219.44 185.674 219.234C186.96 218.565 188.246 217.896 189.532 217.228C189.789 217.073 190.072 216.919 190.381 216.765C191.718 215.993 193.03 215.222 194.316 214.45C194.47 214.347 194.625 214.244 194.779 214.141C231.584 191.611 256.121 151.102 256.121 104.806C256.121 97.63 255.504 90.5313 254.346 83.6641Z" fill="url(#paint5_linear_1_1085)"/>
<path style="mix-blend-mode:screen" d="M90.3046 162.598C56.0457 147.938 26.0305 123.632 4.88867 93C4.88867 93 6.27757 145.777 59.2092 166.919C112.141 188.061 133.206 188.601 133.206 188.601L90.3046 162.598Z" fill="url(#paint6_linear_1_1085)"/>
<path style="mix-blend-mode:screen" d="M88.9158 196.78C64.0704 193.308 39.9193 184.743 18.4689 171.703C18.4689 171.703 49.0242 200.561 83.8233 208.663C118.7 216.842 88.9158 196.78 88.9158 196.78Z" fill="url(#paint7_linear_1_1085)"/>
<defs>
<linearGradient id="paint0_linear_1_1085" x1="116.24" y1="0.106553" x2="256.11" y2="0.106553" gradientUnits="userSpaceOnUse">
<stop stop-color="#FFBB1B"/>
<stop offset="1" stop-color="#FF5D12"/>
</linearGradient>
<linearGradient id="paint1_linear_1_1085" x1="116.436" y1="48.1211" x2="215.98" y2="48.1211" gradientUnits="userSpaceOnUse">
<stop stop-color="#FFBB1B"/>
<stop offset="1"/>
</linearGradient>
<linearGradient id="paint2_linear_1_1085" x1="299.866" y1="124.825" x2="231.971" y2="219.156" gradientUnits="userSpaceOnUse">
<stop stop-color="white"/>
<stop offset="1" stop-color="#FF5D12"/>
</linearGradient>
<linearGradient id="paint3_linear_1_1085" x1="0.115625" y1="26.2838" x2="256.11" y2="26.2838" gradientUnits="userSpaceOnUse">
<stop stop-color="#FF00CC"/>
<stop offset="1" stop-color="#333399"/>
</linearGradient>
<linearGradient id="paint4_linear_1_1085" x1="125.18" y1="-42.2426" x2="225.763" y2="93.4003" gradientUnits="userSpaceOnUse">
<stop stop-color="#FF00CC"/>
<stop offset="1"/>
</linearGradient>
<linearGradient id="paint5_linear_1_1085" x1="118.68" y1="83.6301" x2="256.11" y2="83.6301" gradientUnits="userSpaceOnUse">
<stop stop-color="#FF00CC"/>
<stop offset="1" stop-color="#333399"/>
</linearGradient>
<linearGradient id="paint6_linear_1_1085" x1="53.3481" y1="47.1184" x2="136.604" y2="121.638" gradientUnits="userSpaceOnUse">
<stop stop-color="#FF00CC"/>
<stop offset="1"/>
</linearGradient>
<linearGradient id="paint7_linear_1_1085" x1="43.1384" y1="148.663" x2="88.7325" y2="189.474" gradientUnits="userSpaceOnUse">
<stop stop-color="#FF00CC"/>
<stop offset="1"/>
</linearGradient>
</defs>
</svg>
