<svg width="234" height="257" viewBox="0 0 234 257" fill="none" xmlns="http://www.w3.org/2000/svg">
<path fill-rule="evenodd" clip-rule="evenodd" d="M229.068 68.3661C229.551 88.9749 205.239 100.084 188.817 108.94C159.836 124.235 141.159 133.251 126.99 147.742C123.931 150.801 118.94 156.436 117.169 160.945C115.237 156.436 110.246 150.801 107.187 147.742C93.0181 133.251 74.3414 124.235 45.5214 108.94C28.6158 99.9233 3.49883 87.6868 5.10888 68.2051C5.75291 59.9938 13.9642 53.5536 20.0825 50.0115L97.3653 5.4128C109.602 -1.67146 124.736 -1.67146 136.973 5.4128L214.256 50.0115C219.891 53.2316 223.916 56.4517 227.297 61.9259C228.424 63.6969 229.068 66.7561 229.068 68.3661ZM141.642 91.551C141.642 78.0265 130.693 67.0781 117.169 67.0781C103.644 67.0781 92.5351 78.0265 92.5351 91.551C92.5351 105.075 103.644 116.024 117.169 116.024C130.693 116.024 141.642 105.075 141.642 91.551Z" fill="url(#paint0_linear_10_1091)"/>
<path d="M188.815 121.821C154.521 140.015 130.37 148.548 121.032 178.012C119.905 181.554 118.456 185.418 117.007 192.664C115.719 185.418 114.27 181.715 113.143 178.173C103.804 148.709 79.6535 140.176 45.3592 121.821C9.61592 102.983 2.04866 93.484 0.599609 89.4589V173.665C0.599609 187.672 8.16687 200.714 20.4033 207.798L97.6861 252.397C100.423 254.007 102.999 255.295 105.736 256.1C104.77 252.773 103.643 249.284 102.355 245.635C78.2044 178.012 35.5379 161.268 35.5379 161.268C35.5379 161.268 55.5026 162.878 83.8396 192.342C97.6861 206.51 108.474 223.577 117.007 241.287C117.007 241.287 136.006 206.993 150.335 192.181C178.672 162.878 198.637 161.268 198.637 161.268C198.637 161.268 155.97 177.851 131.819 245.474C130.531 249.23 129.404 252.773 128.438 256.1C131.175 255.134 133.751 254.007 136.489 252.397L213.771 207.798C225.847 200.714 233.414 187.672 233.414 173.504V89.2979C232.126 93.323 224.559 102.822 188.815 121.821Z" fill="url(#paint1_linear_10_1091)"/>
<defs>
<linearGradient id="paint0_linear_10_1091" x1="5.00906" y1="0.114098" x2="229.145" y2="0.114098" gradientUnits="userSpaceOnUse">
<stop stop-color="#2B88D9"/>
<stop offset="1" stop-color="#26E0F5"/>
</linearGradient>
<linearGradient id="paint1_linear_10_1091" x1="234.855" y1="81.2637" x2="148.073" y2="342.834" gradientUnits="userSpaceOnUse">
<stop stop-color="#39B54A"/>
<stop offset="1" stop-color="#ACDF23"/>
</linearGradient>
</defs>
</svg>
