<svg width="257" height="113" viewBox="0 0 257 113" fill="none" xmlns="http://www.w3.org/2000/svg">
<g style="mix-blend-mode:multiply">
<path d="M149.91 50.8307C147.026 54.1475 139.395 60.0489 127.848 60.2341C116.31 60.4282 108.662 54.765 107.339 53.5476C86.0006 36.9109 63.8594 2.6317 63.8594 2.6317L126.904 112.147L191.864 0.523438C191.864 0.523438 170.111 29.7393 149.91 50.8307Z" fill="#FECA07"/>
</g>
<path d="M143.462 39.7961C143.612 48.829 136.546 56.2741 127.69 56.424C118.824 56.5652 111.529 49.3582 111.379 40.3165C111.229 31.2836 118.286 23.8385 127.152 23.6886C136.008 23.5474 143.312 30.7543 143.462 39.7961Z" fill="#FECA07"/>
<g style="mix-blend-mode:multiply">
<path d="M139.202 79.9673C137.684 81.7316 133.671 84.8631 127.602 84.9601C121.524 85.0572 117.501 82.058 116.805 81.414C105.575 72.584 93.9224 54.3947 93.9224 54.3947L127.108 112.5L161.272 53.2832C161.272 53.2832 149.831 68.782 139.202 79.9673Z" fill="#FECA07"/>
</g>
<g style="mix-blend-mode:multiply">
<path d="M133.494 95.2807C132.7 96.207 130.574 97.8565 127.381 97.9095C124.179 97.9624 122.053 96.3834 121.691 96.0394C115.772 91.3818 109.624 81.802 109.624 81.802L127.116 112.429L145.129 81.2109C145.129 81.2109 139.096 89.3794 133.494 95.2807Z" fill="#FECA07"/>
</g>
<g style="mix-blend-mode:multiply">
<path d="M85.1628 61.8841C86.6007 66.0389 87.8885 75.6099 82.2871 85.6926C76.6768 95.784 67.9526 99.5771 66.2413 100.124C41.1627 110.277 0.399902 112.315 0.399902 112.315L126.764 112.474L62.5805 0.400391C62.5805 0.400391 77.0032 33.8504 85.1628 61.8841Z" fill="#F05A29"/>
</g>
<path d="M71.1547 61.2753C78.9703 65.6153 81.8108 75.4157 77.506 83.1607C73.2101 90.9057 63.3833 93.6667 55.5677 89.3179C47.7521 84.9778 44.9117 75.1775 49.2164 67.4325C53.5212 59.6875 63.3392 56.9264 71.1547 61.2753Z" fill="#F05A29"/>
<g style="mix-blend-mode:multiply">
<path d="M105.055 85.7276C105.813 87.9241 106.519 92.9698 103.573 98.2802C100.618 103.582 96.0131 105.566 95.1045 105.849C81.8374 111.159 60.2607 112.156 60.2607 112.156L127.17 112.473L92.9786 53.2744C92.9786 53.2744 100.679 70.9344 105.055 85.7276Z" fill="#F05A29"/>
</g>
<g style="mix-blend-mode:multiply">
<path d="M115.455 98.3338C115.86 99.4894 116.231 102.145 114.678 104.941C113.117 107.737 110.691 108.787 110.206 108.937C103.22 111.733 91.8491 112.262 91.8491 112.262L127.116 112.43L109.095 81.2207C109.095 81.2207 113.152 90.5271 115.455 98.3338Z" fill="#F05A29"/>
</g>
<g style="mix-blend-mode:multiply">
<path d="M191.864 101.368C187.55 100.53 178.614 96.8693 172.686 86.9719C166.75 77.0657 167.817 67.6182 168.214 65.8539C171.954 39.0639 190.567 2.74707 190.567 2.74707L127.257 112.103L256.4 112.553C256.4 112.553 220.224 108.319 191.864 101.368Z" fill="#1975BB"/>
</g>
<path d="M199.432 89.5207C191.749 94.1254 181.825 91.6995 177.265 84.1045C172.713 76.5006 175.245 66.6032 182.928 61.9986C190.611 57.3939 200.535 59.8197 205.087 67.4236C209.647 75.0186 207.116 84.916 199.432 89.5207Z" fill="#1975BB"/>
<g style="mix-blend-mode:multiply">
<path d="M161.272 106.66C158.987 106.228 154.268 104.314 151.145 99.1091C148.023 93.9046 148.605 88.9119 148.817 87.9856C150.854 73.8541 160.778 54.668 160.778 54.668L127.046 112.447L195.41 112.438C195.41 112.438 176.268 110.277 161.272 106.66Z" fill="#1975BB"/>
</g>
<g style="mix-blend-mode:multiply">
<path d="M145.156 109.377C143.956 109.148 141.468 108.142 139.819 105.39C138.169 102.647 138.478 100.018 138.593 99.5327C139.669 92.0788 144.9 81.9697 144.9 81.9697L127.116 112.429L163.151 112.42C163.151 112.42 153.059 111.283 145.156 109.377Z" fill="#1975BB"/>
</g>
</svg>
