<svg width="238" height="257" viewBox="0 0 238 257" fill="none" xmlns="http://www.w3.org/2000/svg">
<path d="M226.341 91.7494C226.341 91.2833 226.341 90.8173 226.341 90.3512C226.341 90.0716 226.341 89.792 226.341 89.5123C226.341 87.3685 226.294 85.2713 226.201 83.2207C233.471 98.81 237.526 116.217 237.526 134.532C237.526 202.063 182.788 256.8 115.258 256.8C112.835 256.8 110.458 256.73 108.128 256.59C102.465 243.168 97.5018 229.536 92.2588 216.114C98.5504 215.904 104.702 215.135 110.574 213.807C175.099 210.452 226.341 157.043 226.341 91.7494Z" fill="url(#paint0_linear_10_755)"/>
<path style="mix-blend-mode:multiply" d="M110.644 247.573C108.407 247.433 106.31 247.153 104.143 246.874C100.088 236.597 96.2435 226.321 92.2588 216.115C98.5504 215.905 104.702 215.136 110.574 213.808C117.425 213.458 124.136 212.48 130.638 211.081C139.586 216.394 149.862 219.82 160.977 220.798C183.627 222.756 204.669 214.087 219.21 198.848C194.743 231.634 154.406 251.418 110.644 247.573Z" fill="url(#paint1_linear_10_755)"/>
<path d="M163.145 225.763C131.757 225.763 105.122 205.7 95.1951 177.807C95.1485 177.807 95.1252 177.807 95.1252 177.807C92.7483 169.907 89.3229 162.427 84.9887 155.576C60.661 170.396 37.9412 188.013 17.5283 207.937C39.8287 237.577 75.2716 256.802 115.258 256.802C159.16 256.802 197.679 233.662 219.21 198.849C205.998 215.277 185.795 225.763 163.145 225.763Z" fill="url(#paint2_linear_10_755)"/>
<path style="mix-blend-mode:multiply" d="M46.3298 217.234C45.1414 208.566 46.6793 198.08 54.3691 193.885C62.0589 189.621 71.2866 193.885 79.9551 195.353C87.5051 196.682 95.4745 195.703 102.535 192.697C99.5291 188.083 97.0823 183.05 95.1948 177.807C95.1482 177.807 95.1249 177.807 95.1249 177.807C92.7481 169.907 89.3226 162.427 84.9884 155.576C63.8066 168.439 43.883 183.469 25.5674 200.317C26.616 205.56 28.2938 210.733 30.3211 215.696C32.2785 220.38 34.7951 224.854 37.6613 228.979C42.6247 233.103 47.9377 236.808 53.5302 240.094C49.8251 232.963 47.3085 225.204 46.3298 217.234Z" fill="url(#paint3_linear_10_755)"/>
<path d="M130.848 1.0798C165.172 3.59646 197.47 25.1978 212.919 55.9569C213.432 56.9822 213.921 58.0075 214.387 59.0328C217.882 66.7226 219.7 75.1114 220.189 83.5003C220.259 85.6674 220.329 87.6248 220.329 89.5123C220.329 117.475 210.193 144.529 191.877 165.641C185.306 173.191 177.896 179.762 169.856 185.285C184.467 168.367 191.877 145.158 189.011 122.928C185.376 95.0349 165.662 69.8684 139.517 59.592C142.802 62.3184 145.459 65.8837 147.136 69.7985C135.951 61.6193 122.879 55.887 109.247 53.3004C112.812 56.5161 116.238 59.3124 119.803 62.5281C92.7487 72.2452 60.8711 64.5554 41.5068 43.3037C61.3604 15.1311 96.4538 -1.50676 130.848 1.0798Z" fill="url(#paint4_linear_10_755)"/>
<path d="M191.387 165.502C204.32 140.196 207.675 111.044 200.894 83.4312C200.405 81.6136 199.916 79.6562 199.287 77.559C196.84 69.3798 192.925 61.6202 187.612 54.9091C186.913 53.977 186.191 53.0682 185.445 52.1827C162.725 25.618 125.605 12.1958 91.1403 17.9981C74.083 20.8643 57.9345 28.4842 44.4424 39.3198C64.7154 13.594 98.131 -1.36614 130.848 1.08061C165.172 3.59726 197.469 25.1986 212.918 55.9577C213.431 56.983 213.92 58.0083 214.387 59.0336C217.882 66.7234 219.699 75.1122 220.189 83.5011C220.259 85.6682 220.329 87.6256 220.329 89.5131C220.329 117.476 210.192 144.53 191.876 165.642C191.364 166.201 190.851 166.76 190.338 167.32C190.711 166.714 191.061 166.108 191.387 165.502Z" fill="url(#paint5_linear_10_755)"/>
<path style="mix-blend-mode:screen" d="M199.287 77.5591C196.7 66.6536 191.108 56.3772 183.348 48.1981C160.768 23.0315 124.207 10.7279 91.1406 17.9982C96.7332 17.5788 102.256 17.0894 107.779 17.439C129.799 18.2779 151.54 25.8278 169.227 38.9703C173.561 42.1861 177.895 45.9611 181.67 49.8059C189.57 57.6355 195.512 67.073 199.287 77.5591Z" fill="url(#paint6_linear_10_755)"/>
<path d="M41.5068 43.3037C61.3604 15.1311 96.4538 -1.50676 130.848 1.0798C135.392 1.35943 139.936 2.05851 144.41 3.10712C157.203 10.6571 168.947 20.0246 179.154 30.7204C165.662 25.8269 151.541 22.6811 137.28 21.3529C153.848 32.538 168.947 47.6379 180.552 63.9263C172.583 57.9143 163.635 53.3004 154.127 50.3643C167.13 62.9476 178.525 77.4882 185.725 94.196C192.856 110.834 195.512 129.709 191.038 147.325C189.011 155.505 185.236 163.404 180.133 170.185C187.683 155.784 191.108 139.076 189.011 122.928C185.376 95.0349 165.662 69.8684 139.517 59.592C142.802 62.3184 145.459 65.8837 147.136 69.7985C135.951 61.6193 122.879 55.887 109.247 53.3004C112.812 56.5161 116.238 59.3124 119.803 62.5281C92.7487 72.2452 60.8711 64.5554 41.5068 43.3037Z" fill="url(#paint7_linear_10_755)"/>
<path d="M134.692 1.42994C135.671 1.52315 136.65 1.63966 137.629 1.77948C137.722 1.82608 137.792 1.84939 137.838 1.84939C140.075 2.17562 142.266 2.59507 144.41 3.10772C157.203 10.6577 168.947 20.0252 179.153 30.721C166.011 25.9673 152.309 22.8215 138.397 21.4933C123.158 16.7396 106.869 15.3414 91.1403 17.9979C74.083 20.8641 57.9344 28.484 44.4424 39.3196C53.9497 27.2956 66.2534 17.6484 80.0251 11.0072C80.0717 10.9606 80.1416 10.914 80.2348 10.8674C81.0271 10.4946 81.8194 10.145 82.6117 9.81879C82.7515 9.72558 82.9146 9.65567 83.101 9.60907C83.8001 9.28283 84.5224 8.95661 85.2681 8.63037C85.5011 8.53716 85.7342 8.44396 85.9672 8.35075C86.6663 8.07112 87.3653 7.79148 88.0644 7.51185C88.344 7.41865 88.647 7.30213 88.9732 7.16232C89.6257 6.9293 90.2781 6.69627 90.9306 6.46325C91.2568 6.37004 91.5831 6.25353 91.9093 6.11371C92.5618 5.92729 93.1909 5.74088 93.7968 5.55446C94.1696 5.41465 94.5658 5.27483 94.9852 5.13502C95.5911 4.9486 96.1969 4.78548 96.8028 4.64567C97.1756 4.50586 97.5718 4.38934 97.9912 4.29614C98.5971 4.10972 99.1796 3.9466 99.7389 3.80679C100.205 3.71358 100.648 3.62036 101.067 3.52715C101.626 3.38734 102.209 3.24753 102.815 3.10772C103.234 3.01451 103.677 2.92129 104.143 2.82808C104.702 2.68827 105.262 2.57176 105.821 2.47855C106.333 2.38534 106.823 2.31543 107.289 2.26882C107.848 2.17561 108.384 2.08241 108.897 1.9892C109.409 1.89599 109.922 1.82608 110.435 1.77948C110.947 1.68627 111.483 1.59306 112.043 1.49985C112.555 1.45325 113.068 1.40664 113.58 1.36004C114.093 1.31344 114.606 1.26682 115.118 1.22022C115.678 1.17361 116.237 1.12701 116.796 1.08041C117.262 1.0338 117.752 0.987198 118.264 0.940593C118.824 0.940593 119.383 0.917287 119.942 0.870682C120.455 0.870682 120.944 0.847386 121.41 0.800781C122.016 0.800781 122.622 0.800781 123.228 0.800781C123.647 0.800781 124.09 0.800781 124.556 0.800781C125.208 0.800781 125.884 0.824077 126.583 0.870682C126.956 0.870682 127.329 0.870682 127.702 0.870682C128.727 0.917287 129.776 0.987196 130.848 1.08041C131.966 1.12701 133.085 1.22023 134.203 1.36004C134.343 1.36004 134.506 1.38334 134.692 1.42994Z" fill="url(#paint8_linear_10_755)"/>
<path d="M51.4331 100.558C40.3878 85.3881 25.7772 72.9446 9.06942 64.4859C7.81109 63.7868 5.43427 65.5345 4.8051 66.7928C-5.26152 87.5552 3.54676 114.539 15.0814 134.463C29.4124 127.892 43.4637 114.05 51.4331 100.558Z" fill="url(#paint9_linear_10_755)"/>
<path style="mix-blend-mode:multiply" d="M43.8129 101.676C34.9347 91.5391 24.2389 83.0104 12.2848 76.7188C14.2422 81.4724 16.6191 87.5544 18.5065 92.2381C15.8035 91.3992 13.1004 90.5604 10.3973 89.7215C12.6344 93.2867 15.2209 96.5724 18.0871 99.5085C15.0112 99.2288 11.9353 98.9492 8.85938 98.6696C13.4033 105.311 18.6464 111.602 24.3788 117.405C30.3209 114.958 36.7523 112.651 42.1351 109.156C43.6731 108.247 44.0226 103.493 43.8129 101.676Z" fill="url(#paint10_linear_10_755)"/>
<path d="M79.1159 108.108C77.2983 96.5735 72.7544 85.3884 65.9035 75.881C65.4141 75.1819 63.5966 75.4615 62.8276 75.9509C51.2929 84.6194 48.4267 102.166 49.1258 116.567C58.9827 117.056 70.7271 113.351 79.1159 108.108Z" fill="url(#paint11_linear_10_755)"/>
<path fill-rule="evenodd" clip-rule="evenodd" d="M96.1731 146.208C95.9634 139.567 97.5014 131.178 95.2644 124.886C90.3709 110.625 77.7177 99.3003 63.0372 95.8748C48.2868 92.5193 31.9984 97.1332 21.3027 107.829C12.1448 116.917 6.62219 128.731 4.10553 141.454C4.10553 141.454 -11.4838 222.477 74.7816 249.95L68.6298 245.196C54.5784 234.221 30.6003 200.945 48.147 183.329C52.7609 178.645 60.5904 179.833 66.8821 181.651C77.5779 184.657 88.3436 188.362 99.3889 187.873C110.434 187.383 121.34 181.022 124.905 170.536C114.489 163.475 104.702 155.436 96.1731 146.208Z" fill="url(#paint12_linear_10_755)"/>
<path d="M79.1167 140.056C77.2991 135.442 73.664 131.597 69.1899 129.5C64.7159 127.402 59.4029 127.193 54.7891 128.87C57.096 129.36 59.333 130.269 61.6399 130.758C61.4302 133.764 62.8284 136.91 65.5547 138.168C68.2811 139.357 71.357 139.357 74.2931 138.937C75.8311 138.727 78.138 138.797 79.1167 140.056Z" fill="white"/>
<path fill-rule="evenodd" clip-rule="evenodd" d="M66.8831 181.651C77.5788 184.657 88.3445 188.362 99.3899 187.872C106.241 187.593 113.022 185.006 118.055 180.602C117.845 180.252 117.636 179.903 117.356 179.483C100.508 180.672 83.2413 172.493 73.5941 158.581C74.1068 161.517 74.5962 164.477 75.0622 167.459C65.415 159.28 53.2512 154.107 40.6679 152.709C43.8137 154.806 46.5401 157.533 48.5674 160.678C41.7165 159.77 34.6559 160.818 28.3643 163.684C30.3217 164.756 32.2791 165.828 34.2364 166.9C26.6865 186.334 31.9295 209.404 44.8623 225.832C52.1327 235.129 61.5701 242.4 72.0562 247.853C70.4483 246.594 68.6307 245.196 68.6307 245.196C54.5794 234.221 30.6013 200.945 48.148 183.328C52.7618 178.645 60.5914 179.833 66.8831 181.651Z" fill="url(#paint13_linear_10_755)"/>
<path d="M119.104 166.48C117.799 166.62 116.517 166.853 115.259 167.18C114.63 167.389 114 167.599 113.581 168.018C112.812 168.718 112.672 169.836 112.602 170.885C112.462 174.38 113.022 178.015 115.049 180.881C115.375 181.301 115.748 181.697 116.168 182.07C120.152 179.204 123.228 175.289 124.906 170.535C122.949 169.23 121.014 167.879 119.104 166.48Z" fill="url(#paint14_linear_10_755)"/>
<defs>
<linearGradient id="paint0_linear_10_755" x1="237.515" y1="83.2081" x2="92.2378" y2="83.2081" gradientUnits="userSpaceOnUse">
<stop stop-color="#FF5D12"/>
<stop offset="1" stop-color="#FFBB1B"/>
</linearGradient>
<linearGradient id="paint1_linear_10_755" x1="194.677" y1="195.909" x2="121.373" y2="200.405" gradientUnits="userSpaceOnUse">
<stop stop-color="white"/>
<stop offset="1" stop-color="#FF5D12"/>
</linearGradient>
<linearGradient id="paint2_linear_10_755" x1="17.5297" y1="155.566" x2="219.223" y2="155.566" gradientUnits="userSpaceOnUse">
<stop stop-color="#FF5D12"/>
<stop offset="1" stop-color="#FFBB1B"/>
</linearGradient>
<linearGradient id="paint3_linear_10_755" x1="122.932" y1="239.165" x2="32.8" y2="245.76" gradientUnits="userSpaceOnUse">
<stop stop-color="white"/>
<stop offset="1" stop-color="#FF5D12"/>
</linearGradient>
<linearGradient id="paint4_linear_10_755" x1="220.319" y1="0.79808" x2="41.5306" y2="0.79808" gradientUnits="userSpaceOnUse">
<stop stop-color="#FFBB1B"/>
<stop offset="1" stop-color="#FF5D12"/>
</linearGradient>
<linearGradient id="paint5_linear_10_755" x1="220.319" y1="0.796082" x2="44.4703" y2="0.796082" gradientUnits="userSpaceOnUse">
<stop stop-color="#FF5D12"/>
<stop offset="1" stop-color="#FFBB1B"/>
</linearGradient>
<linearGradient id="paint6_linear_10_755" x1="204.801" y1="37.603" x2="110.016" y2="-11.2559" gradientUnits="userSpaceOnUse">
<stop/>
<stop offset="0.496" stop-color="#E9D200"/>
<stop offset="1"/>
</linearGradient>
<linearGradient id="paint7_linear_10_755" x1="193.247" y1="0.798076" x2="41.5306" y2="0.798076" gradientUnits="userSpaceOnUse">
<stop stop-color="#FFF2D4"/>
<stop offset="1" stop-color="#FFBB1B"/>
</linearGradient>
<linearGradient id="paint8_linear_10_755" x1="179.153" y1="0.797286" x2="44.471" y2="0.797286" gradientUnits="userSpaceOnUse">
<stop stop-color="#FFBB1B"/>
<stop offset="1" stop-color="#FFF2D4"/>
</linearGradient>
<linearGradient id="paint9_linear_10_755" x1="-19.8155" y1="82.8057" x2="20.8783" y2="55.3066" gradientUnits="userSpaceOnUse">
<stop stop-color="#FFBB1B"/>
<stop offset="1" stop-color="#FF5D12"/>
</linearGradient>
<linearGradient id="paint10_linear_10_755" x1="8.82862" y1="76.7313" x2="43.8507" y2="76.7313" gradientUnits="userSpaceOnUse">
<stop stop-color="white"/>
<stop offset="1" stop-color="#FF5D12"/>
</linearGradient>
<linearGradient id="paint11_linear_10_755" x1="44.5643" y1="77.7937" x2="75.1075" y2="74.1978" gradientUnits="userSpaceOnUse">
<stop stop-color="#FFBB1B"/>
<stop offset="1" stop-color="#FF5D12"/>
</linearGradient>
<linearGradient id="paint12_linear_10_755" x1="3.00589" y1="94.815" x2="124.873" y2="94.815" gradientUnits="userSpaceOnUse">
<stop stop-color="#FFBB1B"/>
<stop offset="1" stop-color="#FF5D12"/>
</linearGradient>
<linearGradient id="paint13_linear_10_755" x1="28.3985" y1="152.7" x2="118.046" y2="152.7" gradientUnits="userSpaceOnUse">
<stop stop-color="#FFBB1B"/>
<stop offset="1" stop-color="#FFF2D4"/>
</linearGradient>
<linearGradient id="paint14_linear_10_755" x1="112.577" y1="166.467" x2="124.874" y2="166.467" gradientUnits="userSpaceOnUse">
<stop stop-color="#1F0C02"/>
<stop offset="1" stop-color="#4F1D05"/>
</linearGradient>
</defs>
</svg>
