<svg width="179" height="257" viewBox="0 0 179 257" fill="none" xmlns="http://www.w3.org/2000/svg">
<path d="M113.136 252.217C113.136 252.217 112.625 252.784 112 253.182L98.0329 228.427C99.5091 227.234 100.077 225.361 99.8498 223.544C99.5659 220.534 96.4431 218.434 92.9796 218.774C89.4594 219.172 87.0747 221.897 87.245 224.906C87.4154 228.54 90.5382 229.562 93.9448 229.619L101.723 246.425L106.039 255.68C105.357 255.85 104.619 256.021 104.222 256.021C91.9576 248.526 80.0342 242.11 68.6218 237.341C67.9973 237.114 67.5998 236.489 67.6566 235.808C68.0541 227.234 67.7134 219.399 65.3855 211.28C65.2719 210.712 65.3855 210.144 65.7829 209.747C68.338 207.021 79.0122 196.915 94.5694 197.028C95.6671 198.467 96.8405 199.886 98.0897 201.287C102.234 205.886 107.174 210.371 112.682 214.686C113.079 215.027 113.306 215.538 113.249 216.049C112.568 228.483 112.455 240.52 113.136 252.217Z" fill="#9B3A38"/>
<g style="mix-blend-mode:soft-light" opacity="0.4">
<path d="M106.039 255.68C105.357 255.85 104.619 256.021 104.222 256.021C91.9576 248.526 80.0342 242.11 68.6218 237.341C67.9973 237.114 67.5998 236.489 67.6566 235.808C68.0541 227.234 67.7134 219.399 65.3855 211.28C65.2719 210.712 65.3855 210.144 65.7829 209.747C68.338 207.021 79.0122 196.915 94.5694 197.028C95.6671 198.467 96.8405 199.886 98.0897 201.287C89.573 202.479 80.3749 208.497 77.4792 210.541C76.9682 210.882 76.7411 211.563 76.8547 212.245C78.7851 219.91 78.8987 229.96 78.8987 233.082C78.8987 233.65 79.2393 234.161 79.7503 234.445L101.723 246.425L106.039 255.68Z" fill="white"/>
</g>
<path d="M141.468 11.251C141.298 11.5916 141.014 11.8188 140.674 11.8755C138.554 12.2919 136.453 12.8597 134.371 13.5789C134.371 13.5789 134.371 13.5978 134.371 13.6357C133.198 14.0142 132.024 14.4684 130.851 14.9983C113.818 22.6634 99.5662 41.0027 100.077 62.1809C100.815 89.264 125.911 101.869 119.325 122.366L124.662 114.076C125.06 113.508 125.968 113.792 125.968 114.474C126.309 151.777 108.537 155.808 97.8629 191.465C97.7494 191.919 97.2384 192.259 96.7273 192.203C95.3647 192.089 92.5825 191.976 88.892 192.487C86.3369 192.827 83.3845 193.452 80.2049 194.644C70.3823 184.311 62.4902 172.103 56.6988 158.931C50.8507 145.701 47.1033 131.45 45.4 116.915C43.6966 102.38 44.0373 87.5607 46.7059 73.0823C49.3744 58.6607 54.4277 44.4662 62.6605 32.1453C53.8599 44.1255 48.1253 58.1497 44.7186 72.6849C41.3119 87.22 40.2899 102.323 41.3687 117.312C42.4475 132.302 45.6271 147.178 51.0778 161.315C56.1878 174.545 63.3418 187.149 72.5399 198.221C68.7925 200.379 64.8748 203.331 61.0139 207.362C60.6733 207.76 60.1055 207.817 59.6513 207.59C9.62976 180.79 -4.50797 140.478 1.5105 111.464C1.68084 110.613 2.70285 110.272 3.32741 110.84L7.81287 114.814C7.81287 114.814 -0.533504 60.5911 27.6852 30.2716C59.708 -4.13588 102.689 -6.52056 140.901 9.77475C141.525 10.0586 141.696 10.74 141.468 11.251Z" fill="#FFB031"/>
<g style="mix-blend-mode:soft-light" opacity="0.4">
<path d="M100.078 62.1806C100.816 89.2638 125.912 101.869 119.326 122.365L124.663 114.076C125.06 113.508 125.969 113.792 125.969 114.473C126.309 151.776 108.538 155.808 97.8636 191.464C97.75 191.919 97.239 192.259 96.728 192.202C95.3654 192.089 92.5832 191.975 88.8926 192.486C84.9182 168.64 101.497 144.566 102.917 135.14L100.419 136.844C102.86 119.47 50.5107 48.4971 130.852 14.998C113.818 22.6631 99.5669 41.0024 100.078 62.1806Z" fill="white"/>
</g>
<path d="M155.209 76.0909C149.645 60.7041 175.536 33.2803 148.566 16.1333C148.528 16.0954 148.49 16.0765 148.453 16.0765C147.431 16.0765 130.851 15.7926 116.998 31.6337C123.641 33.5642 129.773 37.198 135.337 47.2477C135.337 47.2477 127.218 35.1539 114.329 34.9836C112.739 37.0844 111.263 39.4123 109.844 41.9673C109.787 42.0809 109.844 42.2512 110.014 42.2512C140.617 47.7019 131.362 69.7318 154.982 76.3748C155.152 76.4316 155.266 76.2613 155.209 76.0909Z" fill="#F0923D"/>
<path d="M153.108 169.037C151.802 173.522 148.395 183.004 141.923 186.241C141.468 186.468 141.468 187.149 141.923 187.376C148.452 190.953 151.802 200.208 153.108 204.58C153.278 205.204 154.187 205.204 154.357 204.58C155.663 200.208 159.013 190.953 165.542 187.376C165.997 187.149 165.997 186.468 165.542 186.241C159.07 183.004 155.663 173.522 154.357 169.037C154.187 168.412 153.278 168.412 153.108 169.037Z" fill="#9B3A38"/>
<path d="M171.106 157.851C170.368 160.293 168.495 165.516 164.974 167.276C164.747 167.39 164.691 167.787 164.974 167.901C168.551 169.831 170.368 174.885 171.106 177.326C171.163 177.667 171.674 177.667 171.788 177.326C172.469 174.885 174.343 169.831 177.92 167.901C178.147 167.787 178.147 167.39 177.863 167.276C174.343 165.516 172.469 160.293 171.788 157.851C171.674 157.511 171.163 157.511 171.106 157.851Z" fill="#9B3A38"/>
<path d="M136.813 153.708C136.415 155.071 135.393 158.023 133.406 158.988C133.236 159.102 133.236 159.272 133.406 159.386C135.393 160.464 136.415 163.303 136.813 164.666C136.87 164.836 137.153 164.836 137.21 164.666C137.608 163.303 138.686 160.464 140.674 159.386C140.787 159.272 140.787 159.102 140.674 158.988C138.686 158.023 137.608 155.071 137.21 153.708C137.153 153.537 136.87 153.537 136.813 153.708Z" fill="#9B3A38"/>
</svg>
