<svg width="257" height="178" viewBox="0 0 257 178" fill="none" xmlns="http://www.w3.org/2000/svg">
<path fill-rule="evenodd" clip-rule="evenodd" d="M153.635 27.5082C153.635 42.5109 141.469 54.7312 126.411 54.7312C111.409 54.7312 99.1885 42.5109 99.1885 27.5082C99.1885 12.5055 111.409 0.285156 126.411 0.285156C141.469 0.285156 153.635 12.5055 153.635 27.5082ZM112.391 27.5082C112.391 35.255 118.665 41.5289 126.411 41.5289C134.158 41.5289 140.432 35.255 140.432 27.5082C140.432 19.7614 134.158 13.4875 126.411 13.4875C118.665 13.4875 112.391 19.7614 112.391 27.5082Z" fill="#3C32A3"/>
<path d="M67.4366 34.0544C64.8725 38.9098 59.5261 42.074 53.525 41.4194C46.7602 40.7102 41.3593 34.9819 41.0865 28.1625C40.7046 20.1429 47.0875 13.4871 55.0526 13.4871C59.2533 13.4871 63.0176 15.342 65.5817 18.2334C67.3821 20.252 70.1098 21.0157 72.6193 20.0338C72.8376 19.961 73.0558 19.8883 73.274 19.8155C77.2565 18.288 78.6204 13.2689 75.8927 9.99561C70.2189 3.28532 61.4355 -0.642645 51.8338 0.448458C39.3953 1.92145 29.4117 11.9596 27.9932 24.3982C26.1929 40.7647 39.0134 54.7308 55.0526 54.7308C65.4726 54.7308 74.5288 48.8389 79.1114 40.2192C81.4027 35.9638 78.184 30.7811 73.3286 30.7811C73.2922 30.7811 73.2558 30.7811 73.2195 30.7811C70.819 30.7266 68.5823 31.9813 67.4366 34.0544Z" fill="#825EF6"/>
<path fill-rule="evenodd" clip-rule="evenodd" d="M111.081 138.419C110.245 139.583 109.299 140.674 108.244 141.692L81.3485 168.588C75.6747 174.262 68.2007 177.535 60.2356 177.808C59.7992 177.844 59.3809 177.862 58.9809 177.862C50.4703 177.862 42.5598 174.589 36.5587 168.588L25.9205 157.95L9.66301 141.692C-2.721 129.308 -2.721 109.232 9.66301 96.8478L36.5587 69.9521C42.5598 64.0056 50.4703 60.6777 58.9809 60.6777C67.4369 60.6777 75.402 64.0056 81.3485 69.9521L108.244 96.8478C119.592 108.195 120.519 126.035 111.081 138.419ZM91.1684 123.089C93.0233 120.525 92.8051 116.924 90.4592 114.633L63.5635 87.7371C62.3087 86.4823 60.6175 85.8277 58.9809 85.8277C57.2897 85.8277 55.5984 86.4823 54.3437 87.7371L27.448 114.633C24.8839 117.197 24.8839 121.343 27.448 123.907L39.2865 135.8L54.3437 150.803C54.9438 151.403 55.5985 151.894 56.3622 152.167C57.1806 152.549 58.0534 152.712 58.9263 152.712C58.9263 152.712 58.9445 152.712 58.9809 152.712C59.1263 152.712 59.2718 152.712 59.4173 152.712C59.4901 152.712 59.581 152.694 59.6901 152.658C59.8719 152.658 60.0538 152.64 60.2356 152.603C60.3084 152.567 60.3811 152.549 60.4539 152.549C60.5266 152.512 60.5811 152.494 60.6175 152.494C60.7266 152.494 60.8357 152.458 60.9449 152.385C60.9812 152.385 61.0176 152.385 61.054 152.385C61.0903 152.349 61.1085 152.33 61.1085 152.33C61.1813 152.33 61.2358 152.312 61.2722 152.276C61.3813 152.239 61.4722 152.203 61.545 152.167C61.6904 152.13 61.8177 152.076 61.9269 152.003C61.9996 151.967 62.0723 151.93 62.1451 151.894C62.2906 151.821 62.4178 151.73 62.5269 151.621C62.927 151.403 63.2726 151.13 63.5635 150.803L90.4592 123.907C90.7501 123.653 90.9865 123.38 91.1684 123.089Z" fill="#825EF6"/>
<path d="M111.081 138.418C110.245 139.582 109.299 140.673 108.245 141.691L81.3489 168.587C75.6752 174.261 68.2011 177.534 60.2361 177.807C59.7996 177.843 59.3814 177.861 58.9813 177.861C50.4707 177.861 42.5602 174.588 36.5592 168.587L25.9209 157.949C29.467 151.184 33.9405 143.71 39.2869 135.799L54.3441 150.802C54.9442 151.402 55.5989 151.893 56.3627 152.166C57.181 152.548 58.0539 152.711 58.9268 152.711C58.9268 152.711 58.9449 152.711 58.9813 152.711C59.1268 152.711 59.2723 152.711 59.4178 152.711C59.4905 152.711 59.5814 152.693 59.6905 152.657C59.8724 152.62 60.0542 152.602 60.2361 152.602C60.3088 152.566 60.3816 152.548 60.4543 152.548C60.527 152.511 60.5816 152.493 60.618 152.493C60.7271 152.493 60.8362 152.457 60.9453 152.384C60.9817 152.384 61.018 152.384 61.0544 152.384C61.0908 152.348 61.109 152.329 61.109 152.329C61.1817 152.329 61.2363 152.311 61.2726 152.275C61.3817 152.239 61.4727 152.202 61.5454 152.166C61.6909 152.129 61.8182 152.075 61.9273 152.002C62 151.966 62.0728 151.929 62.1455 151.893C62.291 151.82 62.4183 151.729 62.5274 151.62C62.9275 151.402 63.273 151.129 63.564 150.802L90.4596 123.906C90.7506 123.652 90.987 123.379 91.1688 123.088L96.5153 123.906L111.081 138.418Z" fill="url(#paint0_linear_10_698)"/>
<path d="M177.365 96.8478L150.47 69.9521C144.469 64.0056 136.558 60.6777 128.047 60.6777C119.591 60.6777 111.681 64.0056 105.68 69.9521L93.514 82.1179L108.244 96.8478C109.299 97.9025 110.244 98.9936 111.081 100.121L123.465 87.7371C124.72 86.4823 126.411 85.8277 128.047 85.8277C129.739 85.8277 131.43 86.4823 132.685 87.7371L159.58 114.633C162.144 117.197 162.144 121.343 159.58 123.907L132.685 150.803C131.43 152.058 129.739 152.712 128.047 152.712C126.411 152.712 124.72 152.058 123.465 150.803L111.081 138.473C111.081 138.437 111.081 138.419 111.081 138.419L96.5691 123.907C95.2052 122.598 94.6051 120.852 94.6597 119.106C93.4595 117.852 92.3138 116.651 91.1681 115.451C90.9499 115.16 90.7135 114.887 90.4589 114.633L87.1311 111.305C87.022 111.196 86.9128 111.087 86.8037 110.978C80.7481 104.758 75.9473 100.121 75.9473 100.121C71.7465 105.577 69.5098 112.287 69.5098 119.27C69.5098 126.308 71.7465 132.963 75.9473 138.419C76.8201 139.583 77.7658 140.674 78.7841 141.692L98.8604 161.768L105.68 168.588C111.681 174.589 119.591 177.862 128.047 177.862C136.558 177.862 144.469 174.589 150.47 168.588L177.365 141.692C189.749 129.308 189.749 109.232 177.365 96.8478Z" fill="#3C32A3"/>
<path d="M247.087 96.8478L220.191 69.9521C217.027 66.7879 213.263 64.3329 209.117 62.8054C205.57 61.3869 201.752 60.6777 197.824 60.6777C189.313 60.6777 181.403 64.0056 175.401 69.9521L162.963 82.4452L177.365 96.8478C178.529 98.0116 179.566 99.2118 180.475 100.448L193.186 87.7371C194.441 86.4823 196.132 85.8277 197.824 85.8277C199.46 85.8277 201.152 86.4823 202.406 87.7371L229.302 114.633C231.866 117.197 231.866 121.343 229.302 123.907L202.406 150.803C201.152 152.058 199.46 152.712 197.824 152.712C196.132 152.712 194.441 152.058 193.186 150.803L181.784 139.401L180.475 138.091L166.291 123.907C165.091 122.707 164.436 121.234 164.381 119.706C163.017 118.288 161.654 116.924 160.344 115.56C160.126 115.233 159.871 114.924 159.58 114.633L152.816 107.868L151.561 106.613L150.361 105.413C148.124 103.176 146.433 101.485 145.778 100.83L145.396 100.448C137.158 111.578 137.158 126.962 145.396 138.091C146.342 139.364 147.378 140.565 148.506 141.692L162.963 156.149L168.964 162.15L175.401 168.588C181.403 174.589 189.313 177.862 197.824 177.862C206.28 177.862 214.245 174.589 220.191 168.588L247.087 141.692C259.471 129.308 259.471 109.232 247.087 96.8478Z" fill="#42D3D8"/>
<path d="M197.824 85.8277C196.132 85.8277 194.441 86.4823 193.186 87.7371L180.475 100.448C179.566 99.2119 178.529 98.0116 177.365 96.8478L162.963 82.4452L175.401 69.9521C181.403 64.0056 189.313 60.6777 197.824 60.6777C201.752 60.6777 205.57 61.3869 209.117 62.8054C221.391 74.8075 197.824 85.8277 197.824 85.8277Z" fill="url(#paint1_linear_10_698)"/>
<path d="M185.385 20.907C188.004 16.0516 193.35 12.942 199.296 13.5421C206.116 14.2513 211.462 20.0341 211.79 26.8535C212.171 34.8731 205.734 41.5288 197.769 41.5288C193.623 41.5288 189.858 39.674 187.294 36.728C185.494 34.764 182.712 34.0002 180.257 34.9277C180.038 35.0004 179.82 35.0913 179.602 35.2004C175.565 36.728 174.201 41.7471 176.983 45.0204C182.603 51.7307 191.386 55.6586 201.042 54.513C213.481 53.0945 223.464 43.0564 224.828 30.5633C226.683 14.1967 213.808 0.285156 197.769 0.285156C187.403 0.285156 178.293 6.17711 173.765 14.7423C171.473 19.0521 174.692 24.1803 179.548 24.2349C179.584 24.2349 179.62 24.2349 179.657 24.2349C182.057 24.2349 184.294 23.0347 185.385 20.907Z" fill="#42D3D8"/>
<defs>
<linearGradient id="paint0_linear_10_698" x1="109.832" y1="147.362" x2="80.8418" y2="184.635" gradientUnits="userSpaceOnUse">
<stop stop-color="#4223ED"/>
<stop offset="0.994" stop-color="#825EF6"/>
</linearGradient>
<linearGradient id="paint1_linear_10_698" x1="201.06" y1="103.213" x2="186.308" y2="118.667" gradientUnits="userSpaceOnUse">
<stop stop-color="#42D3D8"/>
<stop offset="0.994" stop-color="#11AFB7"/>
</linearGradient>
</defs>
</svg>
