<svg width="226" height="257" viewBox="0 0 226 257" fill="none" xmlns="http://www.w3.org/2000/svg">
<path d="M225.949 186.473V71.4294C225.949 66.7999 223.479 62.5228 219.47 60.2101L119.838 2.68725C115.829 0.372481 110.891 0.372481 106.884 2.68725L7.25189 60.2101C3.24279 62.5249 0.773438 66.8019 0.773438 71.4294V186.473C0.773438 191.102 3.24279 195.38 7.25189 197.692L106.884 255.215C110.893 257.53 115.831 257.53 119.838 255.215L219.47 197.692C223.479 195.38 225.949 191.102 225.949 186.473Z" fill="#D4D6D9"/>
<path d="M213.276 178.756V79.145C213.276 74.2681 210.675 69.7623 206.451 67.3238L120.184 17.5183C115.961 15.0798 110.758 15.0798 106.535 17.5183L20.2681 67.3238C16.0446 69.7623 13.4434 74.2681 13.4434 79.145V178.756C13.4434 183.633 16.0446 188.139 20.2681 190.577L106.535 240.383C110.758 242.821 115.961 242.821 120.184 240.383L206.451 190.577C210.675 188.139 213.276 183.633 213.276 178.756Z" fill="white"/>
<path d="M199.666 170.235V87.6704C199.666 82.3834 196.844 77.4962 192.266 74.8537L120.762 33.5713C116.182 30.9268 110.541 30.9268 105.963 33.5713L34.4584 74.8537C29.8784 77.4982 27.0586 82.3834 27.0586 87.6704V170.235C27.0586 175.522 29.8784 180.409 34.4584 183.052L105.963 224.334C110.541 226.979 116.184 226.979 120.762 224.334L192.266 183.052C196.844 180.407 199.666 175.522 199.666 170.235Z" fill="#FBDB50"/>
<path d="M86.884 152.917C88.972 147.879 93.7479 144.346 99.206 143.852C99.3565 143.837 99.7646 143.804 99.9151 143.796C105.363 143.47 110.557 146.226 113.356 150.891C116.106 146.022 121.41 143.138 127.008 143.464L127.049 143.466C132.734 143.643 137.739 147.086 139.961 152.294C142.818 148.644 147.208 146.622 151.765 146.702V51.4692L120.758 33.5674C116.178 30.9228 110.537 30.9228 105.959 33.5674L74.9453 51.4734V147.451C79.5109 147.3 83.9879 149.312 86.884 152.917Z" fill="#737373"/>
<path d="M199.664 170.236V164.091C196.597 164.07 193.551 165.002 190.96 166.888C190.416 161.381 186.794 156.609 181.598 154.63L181.045 154.426C175.847 152.589 170.018 153.832 166.031 157.59C164.597 152.157 160.175 148.032 154.622 147.003L154.593 146.997C149.078 145.81 143.405 147.894 139.959 152.297C137.739 147.088 132.732 143.646 127.047 143.468L127.006 143.466C121.408 143.141 116.104 146.022 113.354 150.893C110.555 146.226 105.361 143.473 99.9131 143.796C99.7626 143.804 99.3545 143.837 99.204 143.852C93.7459 144.347 88.97 147.879 86.882 152.917C83.5284 148.743 78.0558 146.688 72.7852 147.673C72.6677 147.696 72.3771 147.754 72.2019 147.791L72.1112 147.809C66.7396 148.968 62.4275 153.065 60.9785 158.334C57.1136 154.574 51.3978 153.226 46.2509 154.884C46.1396 154.919 45.7872 155.038 45.68 155.077C40.4568 156.901 36.6951 161.548 35.9592 167.01C33.3435 165.05 30.2084 164.085 27.0547 164.105V170.234C27.0547 175.521 29.8744 180.408 34.4545 183.05L105.959 224.333C110.539 226.977 116.18 226.977 120.758 224.333L192.263 183.05C196.843 180.408 199.664 175.523 199.664 170.236Z" fill="#FBEDB2"/>
<path d="M82.4746 210.776L105.96 224.334C110.54 226.979 116.182 226.979 120.76 224.334L144.246 210.776C136.974 204.305 125.849 200.158 113.36 200.158C100.871 200.158 89.7466 204.305 82.4746 210.776Z" fill="#737373"/>
</svg>
