<svg width="237" height="257" viewBox="0 0 237 257" fill="none" xmlns="http://www.w3.org/2000/svg">
<path d="M203.235 73.5388C193.216 75.5247 185.536 83.8729 184.809 94.0612C184.416 99.5926 183.175 105.113 180.304 108.6C178.946 110.247 176.465 112.437 170.607 112.437C166.799 112.437 163.571 110.976 160.444 107.841C149.653 97.0109 144.71 71.6768 142.686 51.4404C142.172 51.9105 141.644 52.3678 141.103 52.8069C130.508 61.432 125.56 75.2059 129.267 88.3548C132.933 101.356 138.379 113.616 146.47 121.742C153.25 128.551 161.596 132.149 170.607 132.149C180.991 132.149 189.619 128.323 195.557 121.084C208.97 104.734 203.861 76.6835 203.235 73.5388Z" fill="#B9D35E"/>
<path d="M94.1436 51.4385C92.1194 71.6748 87.1765 97.009 76.3851 107.839C73.2586 110.974 70.0283 112.435 66.2223 112.435C60.3647 112.435 57.8851 110.245 56.5277 108.598C53.6545 105.111 52.4156 99.5925 52.0221 94.0593C51.2969 83.8709 43.6174 75.5246 33.5967 73.5369C32.97 76.6815 27.8612 104.732 41.2744 121.082C47.2139 128.321 55.839 132.147 66.2223 132.147C75.2354 132.147 83.58 128.549 90.3594 121.74C98.4507 113.614 103.896 101.353 107.562 88.3529C111.27 75.2039 106.321 61.43 95.7269 52.8049C95.1857 52.3658 94.6574 51.9104 94.1436 51.4385Z" fill="#B9D35E"/>
<path d="M118.414 49.6062C132.06 49.6062 143.122 38.5443 143.122 24.8988C143.122 11.2533 132.06 0.191406 118.414 0.191406C104.769 0.191406 93.707 11.2533 93.707 24.8988C93.707 38.5443 104.769 49.6062 118.414 49.6062Z" fill="#76CCD3"/>
<path d="M103.755 186.581L96.7444 179.57L94.9753 177.801C86.2409 182.112 76.5664 184.395 66.542 184.395C53.0159 184.395 40.1293 180.25 29.3288 172.561C40.1293 164.872 53.0177 160.728 66.542 160.728C80.0681 160.728 92.9566 164.872 103.755 172.561L110.766 179.572C113.193 181.999 115.751 184.243 118.409 186.331C121.069 184.242 123.633 182.001 126.061 179.572L133.072 172.561L126.061 165.55C110.163 149.652 89.0266 140.897 66.542 140.897C44.0592 140.897 22.9228 149.652 7.0245 165.55L0.0136719 172.561L7.0245 179.572C22.9228 195.47 44.0592 204.225 66.542 204.225C82.0741 204.225 96.9594 200.041 109.923 192.218C107.802 190.438 105.739 188.565 103.755 186.581Z" fill="#76CCD3"/>
<path d="M229.805 165.548C213.907 149.65 192.771 140.896 170.286 140.896C154.758 140.896 139.872 145.077 126.909 152.898C129.032 154.677 131.091 156.555 133.073 158.537L140.084 165.548L141.853 167.317C150.587 163.007 160.26 160.726 170.286 160.726C183.812 160.726 196.701 164.87 207.499 172.559C196.699 180.248 183.81 184.393 170.286 184.393C156.76 184.393 143.873 180.248 133.073 172.559L126.062 165.548C123.637 163.123 121.088 160.868 118.432 158.78L103.756 172.559L110.767 179.57C126.665 195.468 147.803 204.223 170.286 204.223C192.771 204.223 213.907 195.466 229.805 179.57L236.816 172.559L229.805 165.548Z" fill="#76CCD3"/>
<path d="M170.284 222.327C151.631 222.327 133.906 217.069 118.534 207.048L118.217 207.283L118.137 207.219L115.632 208.731C100.896 217.626 83.9206 222.327 66.5411 222.327C49.4658 222.327 33.0865 217.843 18.7168 209.466C42.5205 238.014 78.3381 256.191 118.414 256.191C158.489 256.191 194.305 238.014 218.109 209.467C203.739 217.843 187.36 222.327 170.284 222.327Z" fill="#B9D35E"/>
</svg>
