<svg width="257" height="204" viewBox="0 0 257 204" fill="none" xmlns="http://www.w3.org/2000/svg">
<path d="M128.277 0.489258C136.026 16.8639 154.355 45.5716 194.995 72.2468C198.242 74.378 201.273 76.6487 204.123 79.0193C196.847 76.0798 188.854 73.413 180.525 70.6401C167.332 66.2469 153.691 61.7055 140.785 55.3958C129.641 49.9475 122.732 42.8419 120.25 34.2776C117.256 23.9436 121.366 13.8367 123.34 9.84829C125.327 6.42134 126.96 3.27451 128.277 0.489258Z" fill="url(#paint0_linear_9_569)"/>
<path d="M108.802 30.6416C109.02 32.7568 109.414 34.9201 110.041 37.1093C113.363 48.7192 122.142 58.0745 136.133 64.9136C149.673 71.5331 163.656 76.1892 177.179 80.6922C199.157 88.0114 218.544 94.4765 225.84 106.78C228.246 112.132 229.912 117.687 230.731 123.377C231.225 126.806 231.415 130.242 231.33 133.671C216.809 114.658 179.694 108.203 149.644 102.983C142.124 101.677 135.023 100.443 129.457 99.1733C93.6161 90.9916 85.2875 77.4886 83.5117 70.167C81.9223 63.6092 84.2065 56.6295 89.7955 50.4999C97.3097 43.6793 103.585 36.9822 108.802 30.6416Z" fill="url(#paint1_linear_9_569)"/>
<path d="M61.5574 72.2483C65.399 69.7271 69.0394 67.1874 72.4923 64.6416C72.3529 67.3306 72.5738 70.0196 73.2142 72.6629C76.0871 84.5135 87.7674 100.525 127.098 109.503C132.936 110.835 140.17 112.092 147.83 113.422C175.439 118.219 213.252 124.787 223.972 141.602C226.941 146.259 227.589 151.519 225.966 157.669C224.505 161.096 222.749 164.485 220.704 167.824C209.794 152.713 169.882 145.958 107.2 136.968L100.893 136.062C65.8642 131.024 44.4843 120.165 40.6896 105.487C38.5892 97.3612 42.2754 89.1264 47.4177 83.4917C51.6036 79.4564 56.3226 75.6851 61.5574 72.2483Z" fill="url(#paint2_linear_9_569)"/>
<path d="M43.338 180.099L44.2141 179.355C29.4191 161.925 23.0588 142.569 25.8243 123.376C26.5993 117.995 28.1332 112.737 30.3299 107.655C30.3693 107.817 30.3891 107.979 30.431 108.14C33.9209 121.64 48.716 139.259 99.3824 146.55L105.696 147.456C150.666 153.905 206.631 161.93 212.729 175.022C213.011 175.63 213.662 177.052 211.935 179.887C157.628 169.57 98.0274 169.26 43.338 180.099Z" fill="url(#paint3_linear_9_569)"/>
<path d="M0.277344 203.37C74.6881 178.781 165.251 178.312 240.784 198.469C245.996 199.94 251.191 201.481 256.277 203.37C170.74 196.877 85.8118 196.808 0.277344 203.37Z" fill="url(#paint4_linear_9_569)"/>
<defs>
<linearGradient id="paint0_linear_9_569" x1="73.5884" y1="-13.2683" x2="244.005" y2="103.048" gradientUnits="userSpaceOnUse">
<stop stop-color="#F5CB00"/>
<stop offset="1" stop-color="#DA344B"/>
</linearGradient>
<linearGradient id="paint1_linear_9_569" x1="58.2321" y1="21.5665" x2="238.567" y2="150.506" gradientUnits="userSpaceOnUse">
<stop stop-color="#00F2FE"/>
<stop offset="0.1091" stop-color="#0ADFFA"/>
<stop offset="0.7251" stop-color="#3E77E4"/>
<stop offset="1" stop-color="#534DDB"/>
</linearGradient>
<linearGradient id="paint2_linear_9_569" x1="27.5224" y1="54.2236" x2="197.939" y2="170.539" gradientUnits="userSpaceOnUse">
<stop stop-color="#F5CB00"/>
<stop offset="1" stop-color="#DA344B"/>
</linearGradient>
<linearGradient id="paint3_linear_9_569" x1="8.38757" y1="91.2788" x2="188.722" y2="220.218" gradientUnits="userSpaceOnUse">
<stop stop-color="#00F2FE"/>
<stop offset="0.1091" stop-color="#0ADFFA"/>
<stop offset="0.7251" stop-color="#3E77E4"/>
<stop offset="1" stop-color="#534DDB"/>
</linearGradient>
<linearGradient id="paint4_linear_9_569" x1="0.277344" y1="193.725" x2="256.277" y2="193.725" gradientUnits="userSpaceOnUse">
<stop stop-color="#F5CB00"/>
<stop offset="1" stop-color="#DA344B"/>
</linearGradient>
</defs>
</svg>
