<svg width="257" height="256" viewBox="0 0 257 256" fill="none" xmlns="http://www.w3.org/2000/svg">
<path d="M138.974 195.549C138.974 195.549 153.59 195.326 166.49 165.762C170.314 156.996 171.461 148.774 165.94 147.95C154.834 146.292 153.334 188.483 117.524 179.217C92.2561 181.788 114.978 189.285 116.775 189.763C118.573 190.242 130.515 199.545 130.515 199.545L138.974 195.549Z" fill="url(#paint0_linear_9_402)"/>
<path d="M111.465 178.797C111.465 178.797 126.041 177.693 137.134 147.402C140.422 138.421 139.977 133.657 134.417 133.167C123.231 132.181 125.373 170.876 89.068 163.787C64.0017 167.877 87.1342 173.989 88.9564 174.359C90.7802 174.729 103.26 183.295 103.26 183.295L111.465 178.797Z" fill="url(#paint1_linear_9_402)"/>
<path d="M155.019 196.729C155.019 196.729 164.756 200.028 176.033 185.995C182.023 178.54 183.574 169.982 178.249 168.312C167.534 164.952 156.949 194.007 131.589 192.633C106.228 191.258 121.498 201.252 123.201 202.006C124.904 202.759 144.265 204.465 144.265 204.465L155.019 196.729Z" fill="url(#paint2_linear_9_402)"/>
<path d="M118.293 179.408C118.293 179.408 121.507 189.673 139.055 194.968C156.603 200.263 170.502 184.891 180.661 187.966C190.819 191.04 179.858 208.193 156.692 214.073C133.525 219.954 103.051 210.866 84.1608 196.074C67.6602 183.154 47.8978 181.086 51.5004 198.409C40.7112 201.494 37.1133 183.956 37.1133 183.154C37.1133 182.353 37.1133 171.392 37.1133 171.392L52.6176 163.105L74.8049 166.581L102.873 175.859L118.293 179.408Z" fill="url(#paint3_linear_9_402)"/>
<path d="M118.293 179.407C118.797 178.833 119.81 178.322 121.56 178.045C126.667 177.233 138.626 175.995 141.854 172.155C144.289 169.258 143.933 164.212 134.483 161.829C125.032 159.446 110.055 161.282 104.196 158.228C99.8202 155.949 88.8575 148.66 79.0817 143.68C75.7673 141.991 66.227 135.043 50.7676 138.461C30.48 141.115 24.299 134.474 24.1704 124.096L13.8662 143.142L20.5523 170.494C20.5523 170.494 34.2592 178.581 36.7183 184.977C41.6147 184.633 47.7508 197.561 51.5006 198.408C45.3459 181.917 55.3867 170.325 77.2099 175.858C111.686 184.599 118.29 179.41 118.293 179.407Z" fill="url(#paint4_linear_9_402)"/>
<path d="M117.81 60.3438C117.81 60.3438 103.193 60.567 90.2935 90.1315C86.4693 98.897 85.3227 107.119 90.8435 107.943C101.949 109.601 103.449 67.4096 139.259 76.6756C164.527 74.105 141.805 66.6085 140.008 66.1297C138.21 65.6509 126.268 56.3477 126.268 56.3477L117.81 60.3438Z" fill="url(#paint5_linear_9_402)"/>
<path d="M145.32 77.0978C145.32 77.0978 130.743 78.2011 119.651 108.492C116.363 117.473 116.807 122.238 122.367 122.728C133.553 123.713 131.411 85.0189 167.716 92.1078C192.782 88.0172 169.65 81.9059 167.828 81.5356C166.006 81.1653 153.524 72.5996 153.524 72.5996L145.32 77.0978Z" fill="url(#paint6_linear_9_402)"/>
<path d="M101.765 59.1609C101.765 59.1609 92.0281 55.862 80.7508 69.8959C74.7604 77.3505 73.2094 85.9084 78.535 87.5788C89.2498 90.9381 99.8345 61.8834 125.195 63.2578C150.556 64.6322 135.286 54.6379 133.583 53.8849C131.881 53.1333 112.519 51.4258 112.519 51.4258L101.765 59.1609Z" fill="url(#paint7_linear_9_402)"/>
<path d="M138.49 76.4873C138.49 76.4873 135.276 66.2219 117.728 60.9272C100.18 55.6326 86.281 71.0036 76.1225 67.9294C65.9639 64.8552 76.9251 47.7022 100.092 41.8219C123.258 35.9415 153.732 45.0293 172.622 59.8209C189.123 72.7406 208.885 74.8092 205.283 57.4858C201.68 40.1623 219.67 71.9395 219.67 72.7406C219.67 73.5417 219.67 84.5029 219.67 84.5029L204.166 92.7896L181.978 89.3141L153.911 80.0357L138.49 76.4873Z" fill="url(#paint8_linear_9_402)"/>
<path d="M138.491 76.4879C137.987 77.0612 136.974 77.5725 135.224 77.8499C130.117 78.6618 118.158 79.8999 114.93 83.7396C112.495 86.6371 112.851 91.6823 122.301 94.0655C131.752 96.4486 146.729 94.6124 152.588 97.6665C156.964 99.9458 167.926 107.235 177.702 112.215C181.017 113.904 190.557 120.852 206.016 117.434C226.304 114.779 233.88 121.673 232.614 131.799C234.722 143.936 242.918 112.752 242.918 112.752L236.232 85.4006C236.232 85.4006 222.525 77.3138 220.066 70.9174C215.169 71.2614 209.033 58.3339 205.283 57.4863C211.438 73.9777 201.397 85.5695 179.574 80.0363C145.099 71.2955 138.495 76.4848 138.491 76.4879Z" fill="url(#paint9_linear_9_402)"/>
<path d="M119.086 255.573C119.086 242.841 110.79 231.526 98.5861 227.894C55.5115 215.074 24.0984 175.188 24.0984 127.947C24.0984 80.707 55.5115 40.8212 98.5861 27.9991C110.79 24.3671 119.086 13.0526 119.086 0.320312C52.7441 5.09278 0.392578 60.3883 0.392578 127.947C0.392578 195.505 52.7425 250.801 119.086 255.573Z" fill="url(#paint10_linear_9_402)"/>
<path d="M137.699 0.320312C137.699 13.0526 145.995 24.3671 158.199 27.9991C201.274 40.8197 232.687 80.7054 232.687 127.947C232.687 175.188 201.274 215.072 158.199 227.894C145.995 231.526 137.699 242.841 137.699 255.573C204.041 250.801 256.393 195.505 256.393 127.947C256.393 60.3883 204.041 5.09278 137.699 0.320312Z" fill="url(#paint11_linear_9_402)"/>
<defs>
<linearGradient id="paint0_linear_9_402" x1="141.739" y1="148.712" x2="134.025" y2="187.667" gradientUnits="userSpaceOnUse">
<stop stop-color="#F5CB00"/>
<stop offset="1" stop-color="#DA344B"/>
</linearGradient>
<linearGradient id="paint1_linear_9_402" x1="110.86" y1="135.131" x2="105.845" y2="172.001" gradientUnits="userSpaceOnUse">
<stop stop-color="#F5CB00"/>
<stop offset="1" stop-color="#DA344B"/>
</linearGradient>
<linearGradient id="paint2_linear_9_402" x1="156.606" y1="165.486" x2="144.595" y2="198.283" gradientUnits="userSpaceOnUse">
<stop stop-color="#F5CB00"/>
<stop offset="1" stop-color="#DA344B"/>
</linearGradient>
<linearGradient id="paint3_linear_9_402" x1="76.4968" y1="178.072" x2="177.634" y2="219.167" gradientUnits="userSpaceOnUse">
<stop stop-color="#DA344B"/>
<stop offset="1" stop-color="#F5CB00"/>
</linearGradient>
<linearGradient id="paint4_linear_9_402" x1="13.8667" y1="161.252" x2="143.128" y2="161.252" gradientUnits="userSpaceOnUse">
<stop stop-color="#DA344B"/>
<stop offset="1" stop-color="#F5CB00"/>
</linearGradient>
<linearGradient id="paint5_linear_9_402" x1="115.044" y1="107.182" x2="122.758" y2="68.2278" gradientUnits="userSpaceOnUse">
<stop stop-color="#00F2FE"/>
<stop offset="1" stop-color="#534DDB"/>
</linearGradient>
<linearGradient id="paint6_linear_9_402" x1="145.926" y1="120.766" x2="150.941" y2="83.8968" gradientUnits="userSpaceOnUse">
<stop stop-color="#00F2FE"/>
<stop offset="1" stop-color="#534DDB"/>
</linearGradient>
<linearGradient id="paint7_linear_9_402" x1="100.176" y1="90.4077" x2="112.187" y2="57.6101" gradientUnits="userSpaceOnUse">
<stop stop-color="#00F2FE"/>
<stop offset="1" stop-color="#534DDB"/>
</linearGradient>
<linearGradient id="paint8_linear_9_402" x1="180.873" y1="76.3804" x2="79.7365" y2="35.2851" gradientUnits="userSpaceOnUse">
<stop stop-color="#534DDB"/>
<stop offset="1" stop-color="#00F2FE"/>
</linearGradient>
<linearGradient id="paint9_linear_9_402" x1="242.918" y1="96.0452" x2="113.657" y2="96.0452" gradientUnits="userSpaceOnUse">
<stop stop-color="#534DDB"/>
<stop offset="1" stop-color="#00F2FE"/>
</linearGradient>
<linearGradient id="paint10_linear_9_402" x1="42.6639" y1="12.1421" x2="111.641" y2="257.983" gradientUnits="userSpaceOnUse">
<stop stop-color="#F5CB00"/>
<stop offset="1" stop-color="#DA344B"/>
</linearGradient>
<linearGradient id="paint11_linear_9_402" x1="143.427" y1="-8.20862" x2="212.404" y2="237.632" gradientUnits="userSpaceOnUse">
<stop stop-color="#00F2FE"/>
<stop offset="1" stop-color="#534DDB"/>
</linearGradient>
</defs>
</svg>
