<svg width="257" height="143" viewBox="0 0 257 143" fill="none" xmlns="http://www.w3.org/2000/svg">
<path d="M135.988 89.0461C135.988 89.0461 138.687 79.2655 147.342 76.4556C155.999 73.6448 157.459 72.4082 157.459 72.4082C157.459 72.4082 155.998 81.1772 151.614 82.5263C147.23 83.8755 142.62 82.5263 142.62 82.5263C142.62 82.5263 138.349 84.2121 135.988 89.0461Z" fill="url(#paint0_linear_9_313)"/>
<path d="M121.911 89.0461C121.911 89.0461 119.213 79.2655 110.558 76.4556C101.901 73.6448 100.439 72.4082 100.439 72.4082C100.439 72.4082 101.901 81.1772 106.285 82.5263C110.669 83.8755 115.279 82.5263 115.279 82.5263C115.279 82.5263 119.551 84.2121 121.911 89.0461Z" fill="url(#paint1_linear_9_313)"/>
<path d="M118.494 88.2773C118.494 88.2773 123.202 90.3393 123.261 99.4414C123.321 108.544 123.262 115.544 123.262 115.544C123.262 115.544 122.1 97.8768 118.494 88.2773Z" fill="url(#paint2_linear_9_313)"/>
<path d="M139.622 88.2773C139.622 88.2773 134.915 90.3393 134.855 99.4414C134.795 108.544 134.854 115.544 134.854 115.544C134.854 115.544 136.017 97.8768 139.622 88.2773Z" fill="url(#paint3_linear_9_313)"/>
<path d="M196.285 69.3121C186.153 62.5956 179.978 50.65 177.873 46.0401C177.809 45.8967 177.744 45.7559 177.681 45.6142C177.267 44.6876 177.055 44.1457 177.055 44.1457C177.048 44.1852 177.043 44.2247 177.037 44.2633C176.098 42.3414 175.082 40.6006 174.015 38.9956C178.616 31.9545 183.626 18.9294 178.94 0.322266C173.649 6.6463 161.214 22.1859 154.64 24.1465C147.146 21.7135 140.363 21.9892 137.376 21.9892C133.071 21.9892 130.577 21.9892 129.386 21.9892C128.79 21.9892 128.514 21.9892 128.514 21.9892C127.323 21.9892 124.829 21.9892 120.525 21.9892C117.538 21.9892 110.754 21.7135 103.261 24.1465C96.686 22.1859 84.2517 6.64544 78.9608 0.322266C74.2753 20.3601 81.5912 33.119 83.885 38.9956C82.8184 40.6006 81.8025 42.3414 80.8639 44.2633C80.8561 44.2247 80.8527 44.1843 80.845 44.1457C80.845 44.1457 80.6337 44.6876 80.2198 45.6142C80.1554 45.7559 80.091 45.8967 80.0274 46.0401C77.9226 50.65 71.7479 62.5948 61.6152 69.3121C64.1521 71.0262 66.913 71.2899 69.1072 71.1052C66.2011 75.5743 62.8871 83.117 65.1216 92.3205C66.9774 88.5135 69.0634 86.0617 70.8127 84.5056C71.1708 86.1596 71.705 87.6582 72.3182 89.2297C75.1908 96.5912 82.1933 103.054 86.6812 105.209C84.706 95.6937 84.3471 89.5887 84.3471 89.5887C84.3471 89.5887 86.5017 104.131 98.1717 115.443C97.2742 107.005 99.8643 101.439 99.8643 101.439C99.8643 101.439 106.072 126.216 111.099 135.013C112.949 138.883 123.746 141.811 128.514 142.38C128.844 142.427 129.112 142.432 129.386 142.38C134.154 141.811 144.951 138.883 146.802 135.013C151.829 126.216 158.036 101.439 158.036 101.439C158.036 101.439 160.626 107.005 159.729 115.443C171.399 104.132 173.553 89.5887 173.553 89.5887C173.553 89.5887 173.194 95.6929 171.219 105.209C175.708 103.054 182.71 96.5912 185.582 89.2297C186.195 87.6582 186.73 86.1596 187.088 84.5056C188.837 86.0609 190.923 88.5135 192.779 92.3205C195.014 83.117 191.699 75.5743 188.793 71.1052C190.987 71.2907 193.748 71.0271 196.285 69.3121ZM177.756 6.19286C180.047 25.5153 172.318 37.2523 172.318 37.2523C172.318 37.2523 171.388 32.3143 163.873 28.5211C171.459 24.0838 176.612 8.48236 177.756 6.19286ZM80.7505 6.22807C81.8953 8.51843 86.5833 24.0838 94.1689 28.5202C86.6546 32.3134 85.7245 37.2514 85.7245 37.2514C85.7245 37.2514 78.7109 26.3733 80.7505 6.22807ZM166.762 71.0958C173.418 78.6874 165.689 97.5805 162.039 103.377C158.819 95.0042 159.248 87.4899 159.248 87.4899C155.918 98.7252 148.415 147.318 131.167 134.194C129.578 132.333 129.898 129.785 129.898 129.785L128.949 129.974L128.001 129.785C128.001 129.785 128.32 132.326 126.739 134.186C107.766 146.029 102.003 98.7124 98.6775 87.4899C98.6775 87.4899 99.1069 95.0042 95.8865 103.377C92.2366 97.5805 84.5077 78.6874 91.1632 71.0958C91.1632 71.0958 85.5811 69.6702 80.8579 74.1788C82.9713 69.9519 85.8963 65.6709 90.5895 62.5827C94.697 59.6672 98.2009 58.9905 102.652 57.7547C108.449 56.1445 110.632 53.9975 106.48 47.9861C117.9 55.9693 122.876 65.2364 124.54 69.009C128.093 75.7358 128.949 83.0749 128.949 83.0749L128.976 82.5699V83.0749C128.976 83.0749 129.809 75.9161 133.253 69.2589C134.8 65.6615 139.738 56.1531 151.421 47.9861C147.271 53.9975 149.453 56.1445 155.249 57.7547C159.612 58.9664 163.063 59.6329 167.066 62.405C171.919 65.5052 174.913 69.8712 177.068 74.1788C172.344 69.6702 166.762 71.0958 166.762 71.0958Z" fill="url(#paint4_linear_9_313)"/>
<path d="M136.838 120.689C135.101 120.689 132.913 120.689 131.028 120.689C128.723 120.689 126.873 120.689 126.873 120.689C124.988 120.689 122.8 120.689 121.064 120.689C117.204 120.689 118.101 126.843 121.064 128.459C123.29 129.673 126.869 130.279 128.512 130.505C128.825 130.53 129.113 130.528 129.39 130.505C131.032 130.279 134.613 129.673 136.839 128.459C139.801 126.843 140.698 120.689 136.838 120.689Z" fill="url(#paint5_radial_9_313)"/>
<path d="M237.248 129.169C237.248 129.169 229.394 134.901 222.094 127.602C214.794 120.302 207.924 112.144 203.344 112.287C198.764 112.43 201.38 116.573 206.493 118.012C214.759 120.338 216.763 125.491 221.343 128.783C225.923 132.075 229.644 135.152 237.248 129.169Z" fill="url(#paint6_linear_9_313)"/>
<path d="M256.441 124.071C253.409 119.253 233.725 100.445 231.356 96.2803C228.986 92.1152 231.497 86.6654 228.274 80.2615C226.236 76.2081 208.821 63.3144 196.308 54.3917C202.293 43.5539 202.093 22.2949 202.093 22.2949L178.691 41.8321L184.169 45.8787C183.695 45.5523 183.439 45.3763 183.439 45.3763C183.439 45.3763 186.448 49.0999 193.648 55.0006C200.848 60.9012 219.325 75.1681 221.558 79.9051C223.791 84.6421 223.49 91.3045 223.49 91.3045C223.49 91.3045 223.347 94.2175 227.999 100.909C231.29 105.563 237.249 115.186 242.455 125.563C242.455 125.563 230.836 134.718 225.136 133.292C219.435 131.865 209.346 120.656 199.229 118.263C192.779 116.738 183.871 117.684 175.503 119.67C171.619 120.541 166.801 121.869 162.303 123.802C152.575 127.98 151.277 137.233 151.277 137.233C157.718 132.443 166.306 131.396 174.142 132.04C174.142 132.04 169.419 129.356 165.877 129.034C171.137 126.565 176.397 126.887 186.702 127.748C186.702 127.748 178.567 123.115 168.449 122.723C177.716 121.184 192.879 119.23 200.249 122.524C209.708 126.75 220.688 137.115 225.617 137.229C230.547 137.344 234.367 134.781 243.621 129.2C248.128 131.646 259.474 128.888 256.441 124.071ZM184.248 45.9319C184.273 45.9087 191.371 39.6671 198.8 30.2378C199.444 41.5753 195.336 51.2838 194.508 53.1121C189.705 49.7045 185.851 47.0363 184.248 45.9319Z" fill="url(#paint7_linear_9_313)"/>
<path d="M205.885 79.4043C205.885 79.4043 217.692 86.5691 219.947 89.0475C222.202 91.5259 219.641 97.2342 220.057 100.013C216.393 95.3046 215.926 97.3828 214.473 92.7514C211.968 84.7716 205.885 79.4043 205.885 79.4043Z" fill="url(#paint8_linear_9_313)"/>
<path d="M20.6523 129.169C20.6523 129.169 28.5067 134.901 35.8063 127.602C43.1059 120.302 49.9761 112.144 54.556 112.287C59.1359 112.43 56.52 116.573 51.4069 118.012C43.1411 120.338 41.1376 125.491 36.5569 128.783C31.977 132.075 28.256 135.152 20.6523 129.169Z" fill="url(#paint9_linear_9_313)"/>
<path d="M96.0601 123.802C87.608 120.171 78.0215 118.669 75.6512 118.337C69.4577 117.363 63.4016 117.144 58.6698 118.263C48.5525 120.656 38.4636 131.865 32.763 133.292C27.0625 134.718 15.4441 125.563 15.4441 125.563C20.6509 115.186 26.6082 105.562 29.8999 100.909C34.5519 94.2175 34.4085 91.3045 34.4085 91.3045C34.4085 91.3045 34.1079 84.6421 36.3407 79.9051C38.5735 75.1681 57.051 60.9012 64.251 55.0006C71.4509 49.0999 74.4601 45.3763 74.4601 45.3763C74.4601 45.3763 74.2033 45.5523 73.7293 45.8787L79.2074 41.8321L55.8057 22.2949C55.8057 22.2949 55.6057 43.5539 61.5905 54.3917C49.0772 63.3144 31.6629 76.2081 29.6242 80.2615C26.4021 86.6663 28.9123 92.1152 26.5429 96.2803C24.1736 100.445 4.48953 119.253 1.45718 124.071C-1.57516 128.889 9.77101 131.646 14.2762 129.2C23.5303 134.781 27.3502 137.344 32.2796 137.229C37.2089 137.115 48.1901 126.75 57.6478 122.524C65.0402 119.22 80.2757 121.196 89.5342 122.737C79.5922 123.229 71.6588 127.749 71.6588 127.749C81.9641 126.888 87.2241 126.566 92.4841 129.035C88.9417 129.357 84.2184 132.041 84.2184 132.041C92.0547 131.397 100.643 132.443 107.083 137.234C107.086 137.232 105.788 127.98 96.0601 123.802ZM59.1 30.2378C66.5293 39.6671 73.6262 45.9087 73.6528 45.9319C72.0495 47.0363 68.1953 49.7037 63.3922 53.1121C62.5643 51.2847 58.4559 41.5753 59.1 30.2378Z" fill="url(#paint10_linear_9_313)"/>
<path d="M52.0151 79.4043C52.0151 79.4043 40.2078 86.5691 37.9526 89.0475C35.6975 91.5259 38.2592 97.2342 37.8427 100.013C41.5071 95.3046 41.9734 97.3828 43.4273 92.7514C45.9315 84.7716 52.0151 79.4043 52.0151 79.4043Z" fill="url(#paint11_linear_9_313)"/>
<path d="M108.233 79.375C109.004 79.375 109.629 78.7502 109.629 77.9795C109.629 77.2088 109.004 76.584 108.233 76.584C107.463 76.584 106.838 77.2088 106.838 77.9795C106.838 78.7502 107.463 79.375 108.233 79.375Z" fill="#F4F4F4"/>
<path d="M39.1455 93.3301C39.9162 93.3301 40.541 92.7053 40.541 91.9346C40.541 91.1639 39.9162 90.5391 39.1455 90.5391C38.3748 90.5391 37.75 91.1639 37.75 91.9346C37.75 92.7053 38.3748 93.3301 39.1455 93.3301Z" fill="#F4F4F4"/>
<path d="M218.478 93.3301C219.248 93.3301 219.873 92.7053 219.873 91.9346C219.873 91.1639 219.248 90.5391 218.478 90.5391C217.707 90.5391 217.082 91.1639 217.082 91.9346C217.082 92.7053 217.707 93.3301 218.478 93.3301Z" fill="#F4F4F4"/>
<path d="M149.884 79.375C150.655 79.375 151.279 78.7502 151.279 77.9795C151.279 77.2088 150.655 76.584 149.884 76.584C149.113 76.584 148.488 77.2088 148.488 77.9795C148.488 78.7502 149.113 79.375 149.884 79.375Z" fill="#F4F4F4"/>
<defs>
<linearGradient id="paint0_linear_9_313" x1="135.988" y1="80.7273" x2="157.46" y2="80.7273" gradientUnits="userSpaceOnUse">
<stop offset="0.1825" stop-color="#6A46B4"/>
<stop offset="1" stop-color="#6B41B0"/>
</linearGradient>
<linearGradient id="paint1_linear_9_313" x1="100.44" y1="80.7273" x2="121.912" y2="80.7273" gradientUnits="userSpaceOnUse">
<stop offset="0.1825" stop-color="#6A46B4"/>
<stop offset="1" stop-color="#6B41B0"/>
</linearGradient>
<linearGradient id="paint2_linear_9_313" x1="120.891" y1="115.543" x2="120.891" y2="88.2773" gradientUnits="userSpaceOnUse">
<stop stop-color="#57B3FF"/>
<stop offset="0.0348" stop-color="#58ADFB"/>
<stop offset="0.3456" stop-color="#607FDB"/>
<stop offset="0.6212" stop-color="#665DC3"/>
<stop offset="0.8488" stop-color="#6A48B5"/>
<stop offset="1" stop-color="#6B41B0"/>
</linearGradient>
<linearGradient id="paint3_linear_9_313" x1="137.226" y1="115.543" x2="137.226" y2="88.2773" gradientUnits="userSpaceOnUse">
<stop stop-color="#57B3FF"/>
<stop offset="0.0348" stop-color="#58ADFB"/>
<stop offset="0.3456" stop-color="#607FDB"/>
<stop offset="0.6212" stop-color="#665DC3"/>
<stop offset="0.8488" stop-color="#6A48B5"/>
<stop offset="1" stop-color="#6B41B0"/>
</linearGradient>
<linearGradient id="paint4_linear_9_313" x1="128.949" y1="142.417" x2="128.949" y2="0.324163" gradientUnits="userSpaceOnUse">
<stop stop-color="#57B3FF"/>
<stop offset="0.0348" stop-color="#58ADFB"/>
<stop offset="0.3456" stop-color="#607FDB"/>
<stop offset="0.6212" stop-color="#665DC3"/>
<stop offset="0.8488" stop-color="#6A48B5"/>
<stop offset="1" stop-color="#6B41B0"/>
</linearGradient>
<radialGradient id="paint5_radial_9_313" cx="0" cy="0" r="1" gradientUnits="userSpaceOnUse" gradientTransform="translate(128.951 123.249) scale(15.0477 9.75244)">
<stop stop-color="#57B3FF"/>
<stop offset="0.0348" stop-color="#58ADFB"/>
<stop offset="0.3456" stop-color="#607FDB"/>
<stop offset="0.6212" stop-color="#665DC3"/>
<stop offset="0.8488" stop-color="#6A48B5"/>
<stop offset="1" stop-color="#6B41B0"/>
</radialGradient>
<linearGradient id="paint6_linear_9_313" x1="219.112" y1="132.569" x2="219.112" y2="112.285" gradientUnits="userSpaceOnUse">
<stop stop-color="#57B3FF"/>
<stop offset="0.0348" stop-color="#58ADFB"/>
<stop offset="0.3456" stop-color="#607FDB"/>
<stop offset="0.6212" stop-color="#665DC3"/>
<stop offset="0.8488" stop-color="#6A48B5"/>
<stop offset="1" stop-color="#6B41B0"/>
</linearGradient>
<linearGradient id="paint7_linear_9_313" x1="204.114" y1="137.232" x2="204.114" y2="22.2945" gradientUnits="userSpaceOnUse">
<stop stop-color="#57B3FF"/>
<stop offset="0.0348" stop-color="#58ADFB"/>
<stop offset="0.3456" stop-color="#607FDB"/>
<stop offset="0.6212" stop-color="#665DC3"/>
<stop offset="0.8488" stop-color="#6A48B5"/>
<stop offset="1" stop-color="#6B41B0"/>
</linearGradient>
<linearGradient id="paint8_linear_9_313" x1="205.885" y1="89.7093" x2="220.889" y2="89.7093" gradientUnits="userSpaceOnUse">
<stop offset="0.1825" stop-color="#6A46B4"/>
<stop offset="1" stop-color="#6B41B0"/>
</linearGradient>
<linearGradient id="paint9_linear_9_313" x1="38.7883" y1="132.569" x2="38.7883" y2="112.285" gradientUnits="userSpaceOnUse">
<stop stop-color="#57B3FF"/>
<stop offset="0.0348" stop-color="#58ADFB"/>
<stop offset="0.3456" stop-color="#607FDB"/>
<stop offset="0.6212" stop-color="#665DC3"/>
<stop offset="0.8488" stop-color="#6A48B5"/>
<stop offset="1" stop-color="#6B41B0"/>
</linearGradient>
<linearGradient id="paint10_linear_9_313" x1="54.0185" y1="137.232" x2="54.0185" y2="22.2945" gradientUnits="userSpaceOnUse">
<stop stop-color="#57B3FF"/>
<stop offset="0.0348" stop-color="#58ADFB"/>
<stop offset="0.3456" stop-color="#607FDB"/>
<stop offset="0.6212" stop-color="#665DC3"/>
<stop offset="0.8488" stop-color="#6A48B5"/>
<stop offset="1" stop-color="#6B41B0"/>
</linearGradient>
<linearGradient id="paint11_linear_9_313" x1="37.0113" y1="89.7093" x2="52.0149" y2="89.7093" gradientUnits="userSpaceOnUse">
<stop offset="0.1825" stop-color="#6A46B4"/>
<stop offset="1" stop-color="#6B41B0"/>
</linearGradient>
</defs>
</svg>
