<svg width="233" height="257" viewBox="0 0 233 257" fill="none" xmlns="http://www.w3.org/2000/svg">
<path d="M186.516 205.637C186.516 205.637 202.033 239.447 163.624 256.879C174.26 245.355 172.212 224.917 154.354 228.251C172.025 206.416 186.516 205.637 186.516 205.637Z" fill="url(#paint0_linear_9_292)"/>
<path d="M182.122 205.637C182.122 205.637 202.033 239.447 163.624 256.879C174.26 245.355 172.212 224.917 154.354 228.251C172.025 206.416 182.122 205.637 182.122 205.637Z" fill="url(#paint1_linear_9_292)"/>
<path d="M43.2231 33.509C43.2231 33.509 36.1319 23.5496 43.2231 10.4629C27.2682 22.491 29.4844 38.7533 31.6994 43.4064C38.5687 40.9695 43.2231 33.509 43.2231 33.509Z" fill="url(#paint2_linear_9_292)"/>
<path d="M231.896 108.333C231.6 105.396 229.124 103.157 226.172 103.123C215.597 103.004 195.611 106.924 168.037 130.413C125.73 166.453 71.8281 157.052 51.7717 111.297C36.0065 75.3336 52.8005 35.9025 97.3198 14.7281C106.849 9.77872 116.35 10.0936 116.35 7.61951C116.35 4.77609 114.134 3.91215 110.504 4.06584C83.1175 5.22478 56.1435 16.4349 35.0744 37.0899C-10.5356 81.8038 -11.3215 155.702 33.3837 201.319C78.6652 247.525 153.257 248.483 198.895 202.846C224.556 177.185 235.274 141.828 231.896 108.333Z" fill="url(#paint3_radial_9_292)"/>
<path d="M230.756 105.435C230.756 105.435 229.401 102.426 222.717 102.131C216.032 101.836 192.579 100.359 160.67 125.399C128.76 150.44 83.4361 144.641 62.9236 122.633C43.2229 101.496 45.0351 78.9998 53.6273 56.1719C62.0894 40.1922 77.6948 24.2324 98.6052 15.7616C108.557 11.7295 116.35 10.0958 116.35 7.62177C116.35 7.42345 116.338 7.23628 116.315 7.05779C116.31 7.01441 116.302 6.97475 116.294 6.93137C116.273 6.79378 116.247 6.65992 116.214 6.53349C116.204 6.49878 116.192 6.46531 116.183 6.43061C116.142 6.29674 116.095 6.16907 116.04 6.04759C116.031 6.029 116.023 6.00917 116.014 5.99058C115.947 5.85176 115.871 5.71913 115.785 5.59766C112.93 10.3313 98.8865 7.2586 69.6367 25.576C40.3857 43.8946 24.4655 82.7753 34.6592 122.633C44.8529 162.49 92.8117 177.504 118.812 167.754C144.813 158.004 155.317 151.85 174.22 132.793C196.442 110.389 221.085 101.249 229.158 104.438C229.732 104.712 230.269 105.039 230.756 105.435Z" fill="url(#paint4_linear_9_292)"/>
<path d="M184.989 136.774C184.989 136.774 201.388 126.433 214.093 129.83C226.798 133.228 220.74 158.49 220.74 158.49C220.74 158.49 231.632 138.626 222.183 126.728C213.502 115.795 189.864 129.387 184.989 136.774Z" fill="url(#paint5_radial_9_292)"/>
<path d="M154.084 150.382C154.084 150.382 137.965 111.875 90.4111 138.042C108.262 139.151 130.306 153.683 118.813 167.753C150.979 158.491 154.084 150.382 154.084 150.382Z" fill="url(#paint6_linear_9_292)"/>
<path d="M151.216 153.639C151.216 153.639 130.134 118.798 90.4102 138.042C108.261 139.151 130.305 153.683 118.812 167.753C135.641 166.257 151.216 153.639 151.216 153.639Z" fill="url(#paint7_linear_9_292)"/>
<path d="M41.0537 53.4887C41.0537 53.4887 57.8948 62.5743 76.7303 47.2838C65.2067 48.3919 52.5761 39.9707 52.5761 39.9707C52.5761 39.9707 47.0368 40.1938 41.0537 53.4887Z" fill="url(#paint8_linear_9_292)"/>
<path d="M110.23 6.2828C110.23 6.2828 153.577 -10.6637 193.466 31.8835C171.306 20.3598 139.396 15.4849 127.43 34.0997C115.464 52.7134 122.111 85.5106 136.293 99.2493C110.145 84.6244 99.2397 55.2977 101.012 37.3485C102.785 19.3992 103.604 11.5966 99.3848 11.7837C105.478 6.32494 110.23 6.2828 110.23 6.2828Z" fill="url(#paint9_radial_9_292)"/>
<path d="M108.295 2.95222C108.295 2.95222 153.579 -10.6625 193.466 31.8847C169.296 12.6538 128.395 3.37241 116.429 21.9873C104.462 40.6009 116.349 84.9206 136.294 99.2505C110.145 84.6256 98.1793 55.3745 99.9518 37.4253C101.724 19.476 98.0764 9.42863 93.8584 9.61579C99.9518 4.15702 108.295 2.95222 108.295 2.95222Z" fill="url(#paint10_radial_9_292)"/>
<defs>
<linearGradient id="paint0_linear_9_292" x1="170.413" y1="214.153" x2="177.947" y2="256.7" gradientUnits="userSpaceOnUse">
<stop stop-color="#4A48C2"/>
<stop offset="0.2045" stop-color="#4E6DD7"/>
<stop offset="0.415" stop-color="#528BE8"/>
<stop offset="0.6213" stop-color="#55A1F5"/>
<stop offset="0.8194" stop-color="#56AFFC"/>
<stop offset="1" stop-color="#57B3FF"/>
</linearGradient>
<linearGradient id="paint1_linear_9_292" x1="168.802" y1="213.787" x2="176.454" y2="257.001" gradientUnits="userSpaceOnUse">
<stop offset="0.1587" stop-color="#57B3FF"/>
<stop offset="0.2072" stop-color="#64B9FF"/>
<stop offset="0.3752" stop-color="#8BCAFF"/>
<stop offset="0.5414" stop-color="#A9D8FF"/>
<stop offset="0.7031" stop-color="#BFE2FF"/>
<stop offset="0.8584" stop-color="#CDE8FF"/>
<stop offset="1" stop-color="#D1EAFF"/>
</linearGradient>
<linearGradient id="paint2_linear_9_292" x1="38.5578" y1="40.2975" x2="35.2616" y2="10.6325" gradientUnits="userSpaceOnUse">
<stop offset="0.2312" stop-color="#57B3FF"/>
<stop offset="0.3352" stop-color="#7AC3FF"/>
<stop offset="0.4519" stop-color="#99D1FF"/>
<stop offset="0.5738" stop-color="#B2DCFF"/>
<stop offset="0.7012" stop-color="#C3E4FF"/>
<stop offset="0.8379" stop-color="#CEE8FF"/>
<stop offset="1" stop-color="#D1EAFF"/>
</linearGradient>
<radialGradient id="paint3_radial_9_292" cx="0" cy="0" r="1" gradientUnits="userSpaceOnUse" gradientTransform="translate(118.319 106.179) rotate(45) scale(154.607)">
<stop stop-color="#D1EAFF"/>
<stop offset="0.1683" stop-color="#CDE8FF"/>
<stop offset="0.3529" stop-color="#BFE2FF"/>
<stop offset="0.5451" stop-color="#A9D8FF"/>
<stop offset="0.7427" stop-color="#8BCAFF"/>
<stop offset="0.9424" stop-color="#64B9FF"/>
<stop offset="1" stop-color="#57B3FF"/>
</radialGradient>
<linearGradient id="paint4_linear_9_292" x1="31.5724" y1="88.1137" x2="230.756" y2="88.1137" gradientUnits="userSpaceOnUse">
<stop stop-color="#6B41B0"/>
<stop offset="0.0632" stop-color="#664AB9"/>
<stop offset="0.3112" stop-color="#5368D7"/>
<stop offset="0.5541" stop-color="#467EED"/>
<stop offset="0.7873" stop-color="#3E8CFB"/>
<stop offset="1" stop-color="#3B90FF"/>
</linearGradient>
<radialGradient id="paint5_radial_9_292" cx="0" cy="0" r="1" gradientUnits="userSpaceOnUse" gradientTransform="translate(203.964 136.476) scale(26.9772 26.9772)">
<stop offset="0.2196" stop-color="#4D5ECF"/>
<stop offset="1" stop-color="#4A48C2"/>
</radialGradient>
<linearGradient id="paint6_linear_9_292" x1="142.567" y1="166.927" x2="104.351" y2="122.256" gradientUnits="userSpaceOnUse">
<stop stop-color="#4A48C2"/>
<stop offset="0.2045" stop-color="#4E6DD7"/>
<stop offset="0.415" stop-color="#528BE8"/>
<stop offset="0.6213" stop-color="#55A1F5"/>
<stop offset="0.8194" stop-color="#56AFFC"/>
<stop offset="1" stop-color="#57B3FF"/>
</linearGradient>
<linearGradient id="paint7_linear_9_292" x1="140.586" y1="168.666" x2="102.347" y2="123.967" gradientUnits="userSpaceOnUse">
<stop offset="0.0952" stop-color="#57B3FF"/>
<stop offset="0.2176" stop-color="#7AC3FF"/>
<stop offset="0.355" stop-color="#99D1FF"/>
<stop offset="0.4984" stop-color="#B2DCFF"/>
<stop offset="0.6484" stop-color="#C3E4FF"/>
<stop offset="0.8092" stop-color="#CEE8FF"/>
<stop offset="1" stop-color="#D1EAFF"/>
</linearGradient>
<linearGradient id="paint8_linear_9_292" x1="44.1592" y1="46.6014" x2="75.5522" y2="52.88" gradientUnits="userSpaceOnUse">
<stop offset="0.0952" stop-color="#57B3FF"/>
<stop offset="0.2176" stop-color="#7AC3FF"/>
<stop offset="0.355" stop-color="#99D1FF"/>
<stop offset="0.4984" stop-color="#B2DCFF"/>
<stop offset="0.6484" stop-color="#C3E4FF"/>
<stop offset="0.8092" stop-color="#CEE8FF"/>
<stop offset="1" stop-color="#D1EAFF"/>
</linearGradient>
<radialGradient id="paint9_radial_9_292" cx="0" cy="0" r="1" gradientUnits="userSpaceOnUse" gradientTransform="translate(149.452 47.1559) scale(68.4524 68.4524)">
<stop stop-color="#57B3FF"/>
<stop offset="0.1806" stop-color="#56AFFC"/>
<stop offset="0.3787" stop-color="#55A1F5"/>
<stop offset="0.585" stop-color="#528BE8"/>
<stop offset="0.7955" stop-color="#4E6DD7"/>
<stop offset="1" stop-color="#4A48C2"/>
</radialGradient>
<radialGradient id="paint10_radial_9_292" cx="0" cy="0" r="1" gradientUnits="userSpaceOnUse" gradientTransform="translate(146.866 46.0355) scale(89.0586 89.0586)">
<stop stop-color="#D1EAFF"/>
<stop offset="0.1683" stop-color="#CDE8FF"/>
<stop offset="0.3529" stop-color="#BFE2FF"/>
<stop offset="0.5451" stop-color="#A9D8FF"/>
<stop offset="0.7427" stop-color="#8BCAFF"/>
<stop offset="0.9424" stop-color="#64B9FF"/>
<stop offset="1" stop-color="#57B3FF"/>
</radialGradient>
</defs>
</svg>
