<svg width="257" height="131" viewBox="0 0 257 131" fill="none" xmlns="http://www.w3.org/2000/svg">
<path d="M149.244 32.8384L138.398 48.8577L127.551 64.877L116.743 48.8577L105.896 32.8384L116.743 16.8191L127.551 0.799805L138.398 16.8191L149.244 32.8384Z" fill="url(#paint0_linear_1_1059)"/>
<path d="M127.551 0.799805L127.589 33.7648L105.896 32.8384L127.551 0.799805Z" fill="url(#paint1_linear_1_1059)"/>
<path d="M149.244 32.8389L127.589 33.7653L127.551 64.8775L149.244 32.8389Z" fill="url(#paint2_linear_1_1059)"/>
<path d="M126.161 89.3496L105.973 93.3255L88.9885 110.31L129.249 130.961L166.151 111.313L151.406 93.4413L130.639 89.3496H126.161Z" fill="url(#paint3_linear_1_1059)"/>
<path d="M126.161 89.3496L105.973 93.3255L88.9885 110.31L100.993 116.447C100.993 116.447 100.723 103.477 126.161 89.3496Z" fill="url(#paint4_linear_1_1059)"/>
<path d="M130.639 89.3496L151.406 93.4413L166.151 111.313L155.112 117.181C155.112 117.181 148.395 94.2519 130.639 89.3496Z" fill="url(#paint5_linear_1_1059)"/>
<path d="M112.612 122.43C112.612 122.43 127.666 104.018 127.589 89.3496H128.979C128.979 89.3496 131.604 115.482 145.307 122.43L129.249 130.961L112.612 122.43Z" fill="url(#paint6_linear_1_1059)"/>
<path d="M0.399902 33.1475L96.6315 54.1076L126.161 89.3501L72.8149 99.8109L0.399902 33.1475Z" fill="url(#paint7_linear_1_1059)"/>
<path d="M55.0585 45.0365C55.0585 45.0365 57.336 71.478 80.1876 98.3827L72.8149 99.8109L0.399902 33.1475L55.0585 45.0365Z" fill="url(#paint8_linear_1_1059)"/>
<path d="M87.2902 52.0615C87.2902 52.0615 104.467 63.4873 112.612 73.2147L96.6315 54.1074L87.2902 52.0615Z" fill="url(#paint9_linear_1_1059)"/>
<path d="M256.4 33.1475L160.168 54.1076L130.639 89.3501L183.985 99.8109L256.4 33.1475Z" fill="url(#paint10_linear_1_1059)"/>
<path d="M198.576 45.7313L256.4 33.1475L183.985 99.8109L171.517 97.3791C171.517 97.3791 204.636 54.8025 198.576 45.7313Z" fill="url(#paint11_linear_1_1059)"/>
<path d="M170.513 52.0615C170.513 52.0615 147.893 65.1472 145.307 71.8637L160.168 54.1074L170.513 52.0615Z" fill="url(#paint12_linear_1_1059)"/>
<defs>
<linearGradient id="paint0_linear_1_1059" x1="174.933" y1="-19.5231" x2="174.933" y2="61.8932" gradientUnits="userSpaceOnUse">
<stop stop-color="#F90023"/>
<stop offset="1" stop-color="#FFC610"/>
</linearGradient>
<linearGradient id="paint1_linear_1_1059" x1="155.335" y1="-4.08936" x2="138.361" y2="43.3614" gradientUnits="userSpaceOnUse">
<stop stop-color="white" stop-opacity="0.6"/>
<stop offset="1" stop-color="white" stop-opacity="0"/>
</linearGradient>
<linearGradient id="paint2_linear_1_1059" x1="175.389" y1="27.6949" x2="158.794" y2="74.0841" gradientUnits="userSpaceOnUse">
<stop stop-color="#9D0620" stop-opacity="0.6"/>
<stop offset="1" stop-color="#FFC610" stop-opacity="0"/>
</linearGradient>
<linearGradient id="paint3_linear_1_1059" x1="138.343" y1="59.2847" x2="139.702" y2="150.998" gradientUnits="userSpaceOnUse">
<stop stop-color="#F90023"/>
<stop offset="1" stop-color="#FFC610"/>
</linearGradient>
<linearGradient id="paint4_linear_1_1059" x1="131.709" y1="76.633" x2="114.866" y2="123.718" gradientUnits="userSpaceOnUse">
<stop stop-color="#9D0620" stop-opacity="0.6"/>
<stop offset="1" stop-color="#FFC610" stop-opacity="0"/>
</linearGradient>
<linearGradient id="paint5_linear_1_1059" x1="173.609" y1="77.2583" x2="156.706" y2="124.511" gradientUnits="userSpaceOnUse">
<stop stop-color="#9D0620" stop-opacity="0.6"/>
<stop offset="1" stop-color="#FFC610" stop-opacity="0"/>
</linearGradient>
<linearGradient id="paint6_linear_1_1059" x1="173.626" y1="80.0851" x2="151.408" y2="142.196" gradientUnits="userSpaceOnUse">
<stop stop-color="white" stop-opacity="0.6"/>
<stop offset="1" stop-color="white" stop-opacity="0"/>
</linearGradient>
<linearGradient id="paint7_linear_1_1059" x1="214.246" y1="-5.3502" x2="1.0181" y2="162.911" gradientUnits="userSpaceOnUse">
<stop stop-color="#F90023"/>
<stop offset="1" stop-color="#FFC610"/>
</linearGradient>
<linearGradient id="paint8_linear_1_1059" x1="101.664" y1="6.1783" x2="61.968" y2="117.146" gradientUnits="userSpaceOnUse">
<stop stop-color="white" stop-opacity="0.6"/>
<stop offset="1" stop-color="white" stop-opacity="0"/>
</linearGradient>
<linearGradient id="paint9_linear_1_1059" x1="119.377" y1="43.5018" x2="106.79" y2="78.689" gradientUnits="userSpaceOnUse">
<stop stop-color="#9D0620" stop-opacity="0.6"/>
<stop offset="1" stop-color="#FFC610" stop-opacity="0"/>
</linearGradient>
<linearGradient id="paint10_linear_1_1059" x1="112.599" y1="-67.2557" x2="299.207" y2="122.777" gradientUnits="userSpaceOnUse">
<stop stop-color="#F90023"/>
<stop offset="1" stop-color="#FFC610"/>
</linearGradient>
<linearGradient id="paint11_linear_1_1059" x1="274.332" y1="4.2444" x2="233.873" y2="117.345" gradientUnits="userSpaceOnUse">
<stop stop-color="white" stop-opacity="0.6"/>
<stop offset="1" stop-color="white" stop-opacity="0"/>
</linearGradient>
<linearGradient id="paint12_linear_1_1059" x1="175.837" y1="43.4844" x2="163.817" y2="77.0866" gradientUnits="userSpaceOnUse">
<stop stop-color="#9D0620" stop-opacity="0.6"/>
<stop offset="1" stop-color="#FFC610" stop-opacity="0"/>
</linearGradient>
</defs>
</svg>
