<svg width="257" height="184" viewBox="0 0 257 184" fill="none" xmlns="http://www.w3.org/2000/svg">
<path d="M172.534 24.0762C178.96 22.0303 182.51 15.1611 180.464 8.73477C178.417 2.30757 171.549 -1.24246 165.124 0.803412C158.697 2.85013 155.146 9.71852 157.192 16.1457C159.238 22.5721 166.107 26.1221 172.534 24.0762Z" fill="url(#paint0_linear_9_138)"/>
<path d="M198.495 17.2979C201.438 16.361 203.065 13.2155 202.128 10.2719C201.19 7.32832 198.045 5.70321 195.102 6.64012C192.159 7.57703 190.533 10.7225 191.47 13.6661C192.406 16.6088 195.552 18.2356 198.495 17.2979Z" fill="url(#paint1_linear_9_138)"/>
<path d="M191.092 117.812C167.992 134.735 142.221 150.011 115.336 162.167C148.437 169.936 181.706 150.368 191.092 117.812Z" fill="url(#paint2_linear_9_138)"/>
<path d="M255.146 26.152C246.974 12.9544 209.209 22.7144 162.323 45.3127C142.727 33.7444 117.557 33.0767 96.7619 45.736C76.4924 58.0768 65.5595 79.9263 66.2052 102.065C21.577 133.535 -6.27381 162.695 2.2384 176.448C13.2947 194.304 80.0049 174.776 148.71 133.633C217.415 92.492 266.203 44.0104 255.146 26.152ZM78.2912 137.493C72.2031 138.779 68.0815 138.48 66.7128 136.267C65.2947 133.977 67.0228 130.002 71.2116 124.965C73.2345 129.734 75.5972 133.768 78.2912 137.493ZM193.208 93.0959C192.99 91.1207 192.681 89.1481 192.273 87.1848C165.524 109.654 118.036 136.7 88.11 148.253C89.9736 149.872 91.9258 151.356 93.941 152.735C63.2147 164.582 38.8416 167.292 32.836 157.593C26.8117 147.862 41.43 130.111 66.9777 110.251C67.4538 113.225 68.1454 116.186 69.0585 119.105C52.5689 132.788 43.5644 143.937 46.4739 148.636C56.1947 164.339 169.295 102.504 201.178 67.9152C208.809 59.6363 212.672 53.549 210.669 50.3141C207.853 45.7667 194.465 48.1932 175.55 55.7158C173.618 53.7261 171.573 51.883 169.431 50.188C197.118 38.7432 218.422 35.1131 224.065 44.2301C229.913 53.6725 216.929 72.5801 193.208 93.0959ZM179.9 60.6891C185.293 59.7981 188.936 60.2674 190.206 62.3167C191.467 64.3541 190.221 67.6673 186.958 71.8528C185.018 67.9484 182.725 64.28 179.9 60.6891Z" fill="url(#paint3_linear_9_138)"/>
<defs>
<linearGradient id="paint0_linear_9_138" x1="156.613" y1="12.4398" x2="181.043" y2="12.4398" gradientUnits="userSpaceOnUse">
<stop stop-color="#FFB11F"/>
<stop offset="1" stop-color="#FBD240"/>
</linearGradient>
<linearGradient id="paint1_linear_9_138" x1="191.204" y1="11.969" x2="202.392" y2="11.969" gradientUnits="userSpaceOnUse">
<stop stop-color="#FFB11F"/>
<stop offset="1" stop-color="#FBD240"/>
</linearGradient>
<linearGradient id="paint2_linear_9_138" x1="115.336" y1="140.84" x2="191.091" y2="140.84" gradientUnits="userSpaceOnUse">
<stop stop-color="#FFB11F"/>
<stop offset="1" stop-color="#FBD240"/>
</linearGradient>
<linearGradient id="paint3_linear_9_138" x1="0.710643" y1="101.636" x2="256.711" y2="101.636" gradientUnits="userSpaceOnUse">
<stop stop-color="#FFB11F"/>
<stop offset="1" stop-color="#FBD240"/>
</linearGradient>
</defs>
</svg>
