<svg width="257" height="197" viewBox="0 0 257 197" fill="none" xmlns="http://www.w3.org/2000/svg">
<path d="M256.4 49.3113C256.4 49.3113 247.997 43.655 228.729 45.4658C207.019 1.09005 138.187 8.7607 129.377 62.1297C129.377 62.1297 95.7031 36.6558 84.4311 0.5C65.5089 25.0176 66.0582 67.7656 81.0943 95.2335C99.691 129.192 144.555 125.835 144.555 77.9796C144.555 53.6045 162.094 33.848 183.763 33.848C204.191 33.848 220.977 51.4477 222.788 73.9307C232.33 56.9616 256.4 49.3113 256.4 49.3113Z" fill="#663333"/>
<path d="M171.169 101.419C157.883 116.211 118.797 166.284 0.400391 142.458C49.4762 186.061 206.572 236.418 233.918 148.175C246.471 107.726 204.7 64.0628 171.169 101.419Z" fill="#663333"/>
<path d="M188.749 47.8672C193.876 47.8672 198.027 52.0382 198.027 57.1655C198.027 62.2929 193.876 66.4639 188.749 66.4639C183.621 66.4639 179.45 62.2929 179.45 57.1655C179.45 52.0382 183.621 47.8672 188.749 47.8672Z" fill="#663333"/>
</svg>
