<svg width="257" height="239" viewBox="0 0 257 239" fill="none" xmlns="http://www.w3.org/2000/svg">
<path d="M128.643 14.2715C130.7 22.156 136.87 28.3265 144.755 30.3833C136.87 32.4401 130.7 38.6106 128.643 46.5808C126.586 38.6106 120.416 32.4401 112.531 30.3833C120.416 28.3265 126.586 22.156 128.643 14.2715Z" fill="url(#paint0_linear_10_3199)"/>
<path fill-rule="evenodd" clip-rule="evenodd" d="M244.169 96.5437C227.8 121.654 197.804 137.852 175.608 147.022C166.695 150.707 157.353 153.964 147.755 156.706C152.297 168.276 161.553 178.303 175.179 186.53L195.833 199.471C195.833 199.471 176.551 195.186 166.781 195.786C129.586 198.1 128.644 226.381 128.644 226.381C128.644 226.381 127.701 198.1 90.5065 195.786C80.7366 195.186 61.4538 199.471 61.4538 199.471L82.1078 186.53C95.7343 178.303 104.99 168.276 109.532 156.706C99.9336 153.964 90.5922 150.707 81.6793 147.022C59.4827 137.852 29.4872 121.654 13.1183 96.5437C1.37722 78.4608 -2.13653 58.2352 2.83414 36.2957L4.80526 27.3828L11.3186 33.8104C11.4043 33.8961 16.5463 39.0382 24.688 47.0941C25.6307 36.6385 28.2017 25.2403 32.144 13.1564L34.4579 6.12891L40.1999 10.8425C40.3713 11.0139 61.968 28.6683 82.7934 53.5217C95.5629 68.6908 105.333 83.26 112.018 96.8865C127.444 82.0602 128.644 51.722 128.644 51.722C128.644 51.722 129.843 82.0602 145.27 96.8865C151.954 83.26 161.724 68.6908 174.408 53.5217C195.319 28.6683 216.916 11.0139 217.087 10.8425L222.829 6.12891L225.143 13.1564C229.085 25.2403 231.656 36.6385 232.599 47.0941C240.741 39.0382 245.883 33.8961 245.969 33.8104L252.482 27.3828L254.453 36.2957C259.424 58.2352 255.91 78.4608 244.169 96.5437ZM153.583 103.143C156.411 104.685 159.41 105.971 162.667 106.828C165.238 107.599 167.98 108.113 170.809 108.456L222.915 56.6926C222.915 46.7513 221.115 35.6958 217.773 23.6977C203.718 36.1243 170.037 68.4337 153.583 103.143ZM246.14 47.9511L233.028 60.9777C232.342 78.118 226.857 92.0872 216.916 102.457C206.803 112.913 192.062 118.912 176.465 118.912C175.893 118.912 175.294 118.912 174.665 118.912L147.069 146.336C155.554 143.765 163.867 140.851 171.837 137.595C192.662 129.024 220.687 113.941 235.684 90.9731C244.169 77.9465 247.683 63.463 246.14 47.9511ZM144.584 134.509L161.981 117.198C161.239 117.026 160.524 116.826 159.839 116.598C156.239 115.569 152.811 114.198 149.64 112.57C146.812 120.283 145.098 127.568 144.584 134.509ZM116.388 106.742C121.445 119.683 123.673 131.938 122.816 143.251C122.816 143.651 122.787 144.051 122.73 144.451L128.644 150.364L134.557 144.451C134.5 144.051 134.471 143.651 134.471 143.251C133.614 131.938 135.842 119.683 140.899 106.742C135.157 101.943 131.3 96.5437 128.644 91.9159C125.987 96.5437 122.13 101.943 116.388 106.742ZM107.647 112.57C104.476 114.198 101.048 115.569 97.4483 116.598C96.7627 116.826 96.0485 117.026 95.3058 117.198L112.703 134.509C112.189 127.568 110.475 120.283 107.647 112.57ZM34.3722 56.6926L86.4785 108.456C89.3067 108.113 92.0491 107.599 94.6201 106.828C97.8768 105.971 100.876 104.685 103.704 103.143C87.2498 68.4337 53.5693 36.1243 39.5143 23.6977C36.1719 35.6958 34.3722 46.7513 34.3722 56.6926ZM110.218 146.336L82.622 118.912C81.9935 118.912 81.3936 118.912 80.8223 118.912C65.2246 118.912 50.484 112.913 40.3713 102.457C30.4299 92.0872 24.9451 78.118 24.2595 60.9777L11.1471 47.9511C9.60453 63.463 13.1183 77.9465 21.6027 90.9731C36.6004 113.941 64.6247 129.024 85.4501 137.595C93.4203 140.851 101.733 143.765 110.218 146.336ZM35.9148 72.5474C37.9716 81.7174 41.9139 89.3448 47.7416 95.4296C55.1976 103.143 64.0248 106.571 71.5665 107.942L35.9148 72.5474ZM137.814 159.363C134.3 160.22 129.415 161.248 129.158 161.334L128.644 161.42L128.044 161.334C127.787 161.248 122.902 160.22 119.388 159.363C115.703 169.304 109.275 178.303 100.105 186.102C101.705 186.273 103.276 186.53 104.819 186.873C115.36 188.844 123.501 193.129 128.644 199.471C133.786 193.129 141.927 188.844 152.383 186.873C153.925 186.53 155.497 186.273 157.096 186.102C148.012 178.303 141.499 169.304 137.814 159.363ZM185.721 107.942C193.262 106.571 202.004 103.143 209.546 95.3439C215.373 89.3448 219.315 81.7174 221.287 72.5474L185.721 107.942Z" fill="url(#paint1_linear_10_3199)"/>
<path d="M69.167 28.3251C86.9071 16.6697 107.39 10.5849 128.644 10.5849C149.898 10.5849 170.38 16.6697 188.12 28.3251C190.777 25.6684 193.262 23.2687 195.576 20.9548C175.779 7.49969 152.726 0.300781 128.644 0.300781C104.562 0.300781 81.5079 7.49969 61.7109 20.9548C64.0249 23.2687 66.5102 25.6684 69.167 28.3251Z" fill="url(#paint2_linear_10_3199)"/>
<path d="M237.399 115.741C237.399 116.941 237.485 118.226 237.485 119.426C237.485 179.417 188.635 228.267 128.644 228.267C68.6534 228.267 19.8037 179.417 19.8037 119.426C19.8037 118.226 19.8894 116.941 19.8894 115.741C16.547 112.227 13.3761 108.628 10.4623 104.686C9.86234 109.571 9.51953 114.541 9.51953 119.426C9.51953 185.073 62.9971 238.465 128.644 238.465C194.291 238.465 247.769 185.073 247.769 119.426C247.769 114.541 247.426 109.571 246.826 104.686C243.912 108.628 240.741 112.227 237.399 115.741Z" fill="url(#paint3_linear_10_3199)"/>
<defs>
<linearGradient id="paint0_linear_10_3199" x1="112.501" y1="14.2561" x2="144.785" y2="14.2561" gradientUnits="userSpaceOnUse">
<stop stop-color="#FFD53D"/>
<stop offset="1" stop-color="#FF873D"/>
</linearGradient>
<linearGradient id="paint1_linear_10_3199" x1="0.634193" y1="6.12119" x2="256.652" y2="6.12119" gradientUnits="userSpaceOnUse">
<stop stop-color="#FFD53D"/>
<stop offset="1" stop-color="#FF873D"/>
</linearGradient>
<linearGradient id="paint2_linear_10_3199" x1="61.6964" y1="0.314494" x2="195.592" y2="0.314494" gradientUnits="userSpaceOnUse">
<stop stop-color="#00E0B6"/>
<stop offset="1" stop-color="#087D7B"/>
</linearGradient>
<linearGradient id="paint3_linear_10_3199" x1="9.54953" y1="104.714" x2="247.739" y2="104.714" gradientUnits="userSpaceOnUse">
<stop stop-color="#00E0B6"/>
<stop offset="1" stop-color="#087D7B"/>
</linearGradient>
</defs>
</svg>
