<svg width="257" height="257" viewBox="0 0 257 257" fill="none" xmlns="http://www.w3.org/2000/svg">
<path d="M229.091 101.791C214.106 101.791 201.982 113.915 201.982 128.9C201.982 143.885 214.106 156.009 229.091 156.009C244.077 156.009 256.2 143.885 256.2 128.9C256.2 113.915 244.077 101.791 229.091 101.791Z" fill="url(#paint0_linear_10_3111)"/>
<path d="M138.867 128.9C138.867 122.656 143.966 117.557 150.21 117.557H152.5C180.962 117.557 204.012 140.607 204.012 169.069V183.43H195.687C187.778 183.43 181.326 176.978 181.326 169.069C181.326 153.147 168.422 140.243 152.5 140.243H150.21C143.966 140.243 138.867 135.144 138.867 128.9Z" fill="url(#paint1_linear_10_3111)"/>
<path d="M138.867 128.9C138.867 122.656 143.966 117.557 150.21 117.557H152.5C180.962 117.557 204.012 140.607 204.012 169.069V183.43H195.687C187.778 183.43 181.326 176.978 181.326 169.069C181.326 153.147 168.422 140.243 152.5 140.243H150.21C143.966 140.243 138.867 135.144 138.867 128.9Z" fill="url(#paint2_linear_10_3111)"/>
<path d="M152.5 140.242H150.21C143.966 140.242 138.867 135.143 138.867 128.899C138.867 122.655 143.966 117.556 150.21 117.556H151.511C167.381 117.556 181.43 104.6 181.326 88.7821C181.326 84.7756 182.939 81.1854 185.54 78.5838C188.142 75.9822 191.732 74.3691 195.687 74.3691H204.012V88.7301C204.012 116.62 181.846 139.358 154.113 140.19C153.54 140.242 153.02 140.242 152.5 140.242Z" fill="url(#paint3_linear_10_3111)"/>
<path style="mix-blend-mode:multiply" opacity="0.93" d="M152.5 140.245C151.702 140.245 150.921 140.245 150.158 140.245C143.914 140.193 138.867 135.145 138.867 128.902C138.867 122.658 143.966 117.558 150.21 117.558H152.5C168.422 117.558 181.326 104.654 181.326 88.7324C181.326 88.7324 183.823 138.476 154.113 140.193C153.54 140.245 153.02 140.245 152.5 140.245Z" fill="url(#paint4_linear_10_3111)"/>
<path d="M229.091 101.791C214.106 101.791 201.982 113.915 201.982 128.9C201.982 143.885 214.106 156.009 229.091 156.009C244.077 156.009 256.2 143.885 256.2 128.9C256.2 113.915 244.077 101.791 229.091 101.791Z" fill="url(#paint5_linear_10_3111)"/>
<path d="M138.867 128.9C138.867 122.656 143.966 117.557 150.21 117.557H152.5C180.962 117.557 204.012 140.607 204.012 169.069V183.43H195.687C187.778 183.43 181.326 176.978 181.326 169.069C181.326 153.147 168.422 140.243 152.5 140.243H150.21C143.966 140.243 138.867 135.144 138.867 128.9Z" fill="url(#paint6_linear_10_3111)"/>
<path d="M195.895 141.336C186.737 127.027 170.763 117.557 152.5 117.557H150.21C143.966 117.557 138.867 122.656 138.867 128.9C138.867 135.144 143.966 140.243 150.21 140.243H152.5C168.422 140.243 181.326 153.147 181.326 169.069C181.326 176.978 187.778 183.43 195.687 183.43H195.895V141.336Z" fill="url(#paint7_linear_10_3111)"/>
<path d="M152.5 140.242H150.21C143.966 140.242 138.867 135.143 138.867 128.899C138.867 122.655 143.966 117.556 150.21 117.556H151.511C167.381 117.556 181.43 104.6 181.326 88.7821C181.326 84.7756 182.939 81.1854 185.54 78.5838C188.142 75.9822 191.732 74.3691 195.687 74.3691H204.012V88.7301C204.012 116.62 181.846 139.358 154.113 140.19C153.54 140.242 153.02 140.242 152.5 140.242Z" fill="url(#paint8_linear_10_3111)"/>
<path style="mix-blend-mode:multiply" opacity="0.63" d="M152.5 140.245C151.702 140.245 150.921 140.245 150.158 140.245C143.914 140.193 138.867 135.145 138.867 128.902C138.867 122.658 143.966 117.558 150.21 117.558H152.5C168.422 117.558 181.326 104.654 181.326 88.7324C181.326 88.7324 183.823 138.476 154.113 140.193C153.54 140.245 153.02 140.245 152.5 140.245Z" fill="url(#paint9_linear_10_3111)"/>
<path d="M27.3091 156.009C42.2945 156.009 54.4181 143.885 54.4181 128.9C54.4181 113.915 42.2945 101.791 27.3091 101.791C12.3238 101.791 0.200195 113.915 0.200195 128.9C0.200195 143.885 12.3238 156.009 27.3091 156.009Z" fill="url(#paint10_linear_10_3111)"/>
<path d="M117.533 128.899C117.533 135.143 112.434 140.242 106.19 140.242H103.901C75.4391 140.242 52.3887 117.192 52.3887 88.7301V74.3691H60.7139C68.6228 74.3691 75.0228 80.8212 75.0228 88.7301C75.0228 104.652 87.9789 117.556 103.901 117.556H106.19C112.434 117.556 117.533 122.655 117.533 128.899Z" fill="url(#paint11_linear_10_3111)"/>
<path d="M117.533 128.899C117.533 135.143 112.434 140.242 106.19 140.242H103.901C75.4391 140.242 52.3887 117.192 52.3887 88.7301V74.3691H60.7139C68.6228 74.3691 75.0228 80.8212 75.0228 88.7301C75.0228 104.652 87.9789 117.556 103.901 117.556H106.19C112.434 117.556 117.533 122.655 117.533 128.899Z" fill="url(#paint12_linear_10_3111)"/>
<path d="M103.901 117.557H106.19C112.434 117.557 117.533 122.656 117.533 128.9C117.533 135.144 112.434 140.243 106.19 140.243H104.837C89.0196 140.243 74.9708 153.199 75.0228 169.017C75.0749 173.023 73.4618 176.614 70.8602 179.215C68.2586 181.817 64.6684 183.43 60.7139 183.43H52.3887V169.069C52.3887 141.179 74.5545 118.441 102.288 117.609C102.808 117.557 103.381 117.557 103.901 117.557Z" fill="url(#paint13_linear_10_3111)"/>
<path style="mix-blend-mode:multiply" opacity="0.93" d="M103.901 117.557C104.698 117.557 105.479 117.557 106.242 117.557C112.486 117.609 117.533 122.656 117.533 128.9C117.533 135.144 112.434 140.243 106.19 140.243H103.901C87.9786 140.243 75.0225 153.147 75.0225 169.069C75.0225 169.069 72.577 119.326 102.288 117.609C102.808 117.557 103.38 117.557 103.901 117.557Z" fill="url(#paint14_linear_10_3111)"/>
<path d="M27.3091 156.009C42.2945 156.009 54.4181 143.885 54.4181 128.9C54.4181 113.915 42.2945 101.791 27.3091 101.791C12.3238 101.791 0.200195 113.915 0.200195 128.9C0.200195 143.885 12.3238 156.009 27.3091 156.009Z" fill="url(#paint15_linear_10_3111)"/>
<path d="M117.533 128.899C117.533 135.143 112.434 140.242 106.19 140.242H103.901C75.4391 140.242 52.3887 117.192 52.3887 88.7301V74.3691H60.7139C68.6228 74.3691 75.0228 80.8212 75.0228 88.7301C75.0228 104.652 87.9789 117.556 103.901 117.556H106.19C112.434 117.556 117.533 122.655 117.533 128.899Z" fill="url(#paint16_linear_10_3111)"/>
<path d="M60.4541 116.463C69.6118 130.772 85.6379 140.242 103.901 140.242H106.191C112.435 140.242 117.534 135.143 117.534 128.899C117.534 122.655 112.435 117.556 106.191 117.556H103.901C87.9793 117.556 75.0232 104.652 75.0232 88.7301C75.0232 80.8212 68.6232 74.3691 60.7143 74.3691H60.4541V116.463Z" fill="url(#paint17_linear_10_3111)"/>
<path d="M103.901 117.557H106.19C112.434 117.557 117.533 122.656 117.533 128.9C117.533 135.144 112.434 140.243 106.19 140.243H104.837C89.0196 140.243 74.9708 153.199 75.0228 169.017C75.0749 173.023 73.4618 176.614 70.8602 179.215C68.2586 181.817 64.6684 183.43 60.7139 183.43H52.3887V169.069C52.3887 141.179 74.5545 118.441 102.288 117.609C102.808 117.557 103.381 117.557 103.901 117.557Z" fill="url(#paint18_linear_10_3111)"/>
<path style="mix-blend-mode:multiply" opacity="0.93" d="M103.901 117.557C104.698 117.557 105.479 117.557 106.242 117.557C112.486 117.609 117.533 122.656 117.533 128.9C117.533 135.144 112.434 140.243 106.19 140.243H103.901C87.9786 140.243 75.0225 153.147 75.0225 169.069C75.0225 169.069 72.577 119.326 102.288 117.609C102.808 117.557 103.38 117.557 103.901 117.557Z" fill="url(#paint19_linear_10_3111)"/>
<path d="M101.092 28.0093C101.092 42.9947 113.215 55.1183 128.201 55.1183C143.186 55.1183 155.31 42.9947 155.31 28.0093C155.31 13.024 143.186 0.900391 128.201 0.900391C113.215 0.900391 101.092 13.024 101.092 28.0093Z" fill="url(#paint20_linear_10_3111)"/>
<path d="M128.201 118.235C121.957 118.235 116.857 113.135 116.857 106.891V104.602C116.857 76.1403 139.908 53.0898 168.37 53.0898H182.731V61.4151C182.731 69.324 176.279 75.724 168.37 75.724C152.448 75.724 139.544 88.6801 139.544 104.602V106.891C139.544 113.135 134.444 118.235 128.201 118.235Z" fill="url(#paint21_linear_10_3111)"/>
<path d="M128.201 118.235C121.957 118.235 116.857 113.135 116.857 106.891V104.602C116.857 76.1403 139.908 53.0898 168.37 53.0898H182.731V61.4151C182.731 69.324 176.279 75.724 168.37 75.724C152.448 75.724 139.544 88.6801 139.544 104.602V106.891C139.544 113.135 134.444 118.235 128.201 118.235Z" fill="url(#paint22_linear_10_3111)"/>
<path d="M139.543 104.602V106.891C139.543 113.135 134.444 118.235 128.2 118.235C121.956 118.235 116.857 113.135 116.857 106.891V105.591C116.857 89.7208 103.901 75.672 88.0829 75.776C84.0764 75.776 80.4862 74.163 77.8846 71.5614C75.2829 68.9598 73.6699 65.3695 73.6699 61.4151V53.0898H88.0309C115.92 53.0898 138.659 75.2557 139.491 102.989C139.543 103.561 139.543 104.082 139.543 104.602Z" fill="url(#paint23_linear_10_3111)"/>
<path style="mix-blend-mode:multiply" opacity="0.93" d="M139.543 104.6C139.543 105.398 139.543 106.179 139.543 106.942C139.491 113.186 134.444 118.233 128.2 118.233C121.956 118.233 116.857 113.134 116.857 106.89V104.6C116.857 88.6785 103.953 75.7744 88.0312 75.7744C88.0312 75.7744 137.774 73.2768 139.491 102.987C139.543 103.56 139.543 104.08 139.543 104.6Z" fill="url(#paint24_linear_10_3111)"/>
<path d="M101.092 28.0093C101.092 42.9947 113.215 55.1183 128.201 55.1183C143.186 55.1183 155.31 42.9947 155.31 28.0093C155.31 13.024 143.186 0.900391 128.201 0.900391C113.215 0.900391 101.092 13.024 101.092 28.0093Z" fill="url(#paint25_linear_10_3111)"/>
<path d="M128.201 118.235C121.957 118.235 116.857 113.135 116.857 106.891V104.602C116.857 76.1403 139.908 53.0898 168.37 53.0898H182.731V61.4151C182.731 69.324 176.279 75.724 168.37 75.724C152.448 75.724 139.544 88.6801 139.544 104.602V106.891C139.544 113.135 134.444 118.235 128.201 118.235Z" fill="url(#paint26_linear_10_3111)"/>
<path d="M140.636 61.1543C126.327 70.312 116.857 86.338 116.857 104.601V106.891C116.857 113.135 121.957 118.234 128.201 118.234C134.444 118.234 139.544 113.135 139.544 106.891V104.601C139.544 88.6795 152.448 75.7234 168.37 75.7234C176.279 75.7234 182.731 69.3234 182.731 61.4145V61.1543H140.636Z" fill="url(#paint27_linear_10_3111)"/>
<path d="M139.543 104.602V106.891C139.543 113.135 134.444 118.235 128.2 118.235C121.956 118.235 116.857 113.135 116.857 106.891V105.591C116.857 89.7208 103.901 75.672 88.0829 75.776C84.0764 75.776 80.4862 74.163 77.8846 71.5614C75.2829 68.9598 73.6699 65.3695 73.6699 61.4151V53.0898H88.0309C115.92 53.0898 138.659 75.2557 139.491 102.989C139.543 103.561 139.543 104.082 139.543 104.602Z" fill="url(#paint28_linear_10_3111)"/>
<path style="mix-blend-mode:multiply" opacity="0.93" d="M139.543 104.6C139.543 105.398 139.543 106.179 139.543 106.942C139.491 113.186 134.444 118.233 128.2 118.233C121.956 118.233 116.857 113.134 116.857 106.89V104.6C116.857 88.6785 103.953 75.7744 88.0312 75.7744C88.0312 75.7744 137.774 73.2768 139.491 102.987C139.543 103.56 139.543 104.08 139.543 104.6Z" fill="url(#paint29_linear_10_3111)"/>
<path d="M155.31 229.793C155.31 214.807 143.186 202.684 128.201 202.684C113.215 202.684 101.092 214.807 101.092 229.793C101.092 244.778 113.215 256.902 128.201 256.902C143.186 256.902 155.31 244.778 155.31 229.793Z" fill="url(#paint30_linear_10_3111)"/>
<path d="M128.2 139.566C134.444 139.566 139.543 144.666 139.543 150.91V153.199C139.543 181.661 116.493 204.711 88.0309 204.711H73.6699V196.386C73.6699 188.477 80.122 182.025 88.0309 182.025C103.953 182.025 116.857 169.121 116.857 153.199V150.91C116.857 144.666 121.956 139.566 128.2 139.566Z" fill="url(#paint31_linear_10_3111)"/>
<path d="M128.2 139.566C134.444 139.566 139.543 144.666 139.543 150.91V153.199C139.543 181.661 116.493 204.711 88.0309 204.711H73.6699V196.386C73.6699 188.477 80.122 182.025 88.0309 182.025C103.953 182.025 116.857 169.121 116.857 153.199V150.91C116.857 144.666 121.956 139.566 128.2 139.566Z" fill="url(#paint32_linear_10_3111)"/>
<path d="M116.857 153.199V150.91C116.857 144.666 121.905 139.566 128.201 139.566C134.444 139.566 139.544 144.666 139.544 150.91V152.21C139.544 168.08 152.448 182.129 168.318 182.025C172.324 182.025 175.914 183.638 178.516 186.24C181.118 188.841 182.731 192.431 182.731 196.386V204.711H168.37C140.48 204.711 117.742 182.545 116.909 154.812C116.857 154.24 116.857 153.719 116.857 153.199Z" fill="url(#paint33_linear_10_3111)"/>
<path style="mix-blend-mode:multiply" opacity="0.93" d="M116.857 153.199C116.857 152.401 116.857 151.621 116.857 150.857C116.909 144.614 121.957 139.566 128.201 139.566C134.444 139.566 139.544 144.666 139.544 150.91V153.199C139.544 169.121 152.448 182.025 168.37 182.025C168.37 182.025 118.627 184.523 116.909 154.812C116.857 154.24 116.857 153.719 116.857 153.199Z" fill="url(#paint34_linear_10_3111)"/>
<path d="M155.31 229.793C155.31 214.807 143.186 202.684 128.201 202.684C113.215 202.684 101.092 214.807 101.092 229.793C101.092 244.778 113.215 256.902 128.201 256.902C143.186 256.902 155.31 244.778 155.31 229.793Z" fill="url(#paint35_linear_10_3111)"/>
<path d="M128.2 139.566C134.444 139.566 139.543 144.666 139.543 150.91V153.199C139.543 181.661 116.493 204.711 88.0309 204.711H73.6699V196.386C73.6699 188.477 80.122 182.025 88.0309 182.025C103.953 182.025 116.857 169.121 116.857 153.199V150.91C116.857 144.666 121.956 139.566 128.2 139.566Z" fill="url(#paint36_linear_10_3111)"/>
<path d="M115.764 196.594C130.073 187.488 139.543 171.462 139.543 153.199V150.91C139.543 144.666 134.444 139.566 128.2 139.566C121.956 139.566 116.857 144.666 116.857 150.91V153.199C116.857 169.121 103.953 182.025 88.0309 182.025C80.122 182.025 73.6699 188.477 73.6699 196.386V196.594H115.764Z" fill="url(#paint37_linear_10_3111)"/>
<path d="M116.857 153.199V150.91C116.857 144.666 121.905 139.566 128.201 139.566C134.444 139.566 139.544 144.666 139.544 150.91V152.21C139.544 168.08 152.448 182.129 168.318 182.025C172.324 182.025 175.914 183.638 178.516 186.24C181.118 188.841 182.731 192.431 182.731 196.386V204.711H168.37C140.48 204.711 117.742 182.545 116.909 154.812C116.857 154.24 116.857 153.719 116.857 153.199Z" fill="url(#paint38_linear_10_3111)"/>
<path style="mix-blend-mode:multiply" opacity="0.93" d="M116.857 153.199C116.857 152.401 116.857 151.621 116.857 150.857C116.909 144.614 121.957 139.566 128.201 139.566C134.444 139.566 139.544 144.666 139.544 150.91V153.199C139.544 169.121 152.448 182.025 168.37 182.025C168.37 182.025 118.627 184.523 116.909 154.812C116.857 154.24 116.857 153.719 116.857 153.199Z" fill="url(#paint39_linear_10_3111)"/>
<path d="M196.259 210.488C188.35 202.579 188.715 189.415 188.715 189.415C188.715 189.415 201.879 189.05 209.788 196.959C210.065 197.272 210.343 197.584 210.62 197.896C218.321 206.637 205.937 219.021 197.196 211.32C196.884 211.043 196.571 210.765 196.259 210.488Z" fill="url(#paint40_linear_10_3111)"/>
<path d="M60.1412 47.3139C68.0502 55.2229 67.6859 68.3871 67.6859 68.3871C67.6859 68.3871 54.5217 68.7513 46.6128 60.8424C46.3353 60.5302 46.0577 60.218 45.7802 59.9058C38.0794 51.1643 50.4632 38.7806 59.2046 46.4814C59.5168 46.7589 59.829 47.0364 60.1412 47.3139Z" fill="url(#paint41_linear_10_3111)"/>
<path d="M209.788 60.8424C201.879 68.7513 188.715 68.3871 188.715 68.3871C188.715 68.3871 188.35 55.2229 196.259 47.3139C196.571 47.0364 196.884 46.7589 197.196 46.4814C205.937 38.7806 218.321 51.1643 210.62 59.9058C210.343 60.218 210.065 60.5302 209.788 60.8424Z" fill="url(#paint42_linear_10_3111)"/>
<path d="M46.6128 196.959C54.5217 189.05 67.6859 189.415 67.6859 189.415C67.6859 189.415 68.0502 202.579 60.1412 210.488C59.829 210.765 59.5168 211.043 59.2046 211.32C50.4632 219.021 38.0794 206.637 45.7802 197.896C46.0577 197.584 46.3353 197.272 46.6128 196.959Z" fill="url(#paint43_linear_10_3111)"/>
<path d="M118.679 234.579C118.679 223.444 128.201 214.391 128.201 214.391C128.201 214.391 137.723 223.444 137.723 234.579C137.723 235.03 137.723 235.464 137.723 235.88C136.942 247.483 119.459 247.483 118.679 235.88C118.679 235.464 118.679 235.03 118.679 234.579Z" fill="white"/>
<path d="M137.723 23.222C137.723 34.357 128.201 43.4106 128.201 43.4106C128.201 43.4106 118.679 34.357 118.679 23.222C118.679 22.7711 118.679 22.3375 118.679 21.9212C119.459 10.3179 136.942 10.3179 137.723 21.9212C137.723 22.3375 137.723 22.7711 137.723 23.222Z" fill="white"/>
<path d="M233.878 138.423C222.743 138.423 213.689 128.901 213.689 128.901C213.689 128.901 222.743 119.379 233.878 119.379C234.329 119.379 234.763 119.379 235.179 119.379C246.782 120.159 246.782 137.642 235.179 138.423C234.763 138.423 234.329 138.423 233.878 138.423Z" fill="white"/>
<path d="M22.5218 119.379C33.6568 119.379 42.7104 128.901 42.7104 128.901C42.7104 128.901 33.6568 138.423 22.5218 138.423C22.0709 138.423 21.6373 138.423 21.221 138.423C9.61774 137.642 9.61774 120.159 21.221 119.379C21.6373 119.379 22.0709 119.379 22.5218 119.379Z" fill="white"/>
<defs>
<linearGradient id="paint0_linear_10_3111" x1="215.537" y1="179.48" x2="279.671" y2="142.452" gradientUnits="userSpaceOnUse">
<stop stop-color="#5C43C3"/>
<stop offset="1" stop-color="#5CBFFC"/>
</linearGradient>
<linearGradient id="paint1_linear_10_3111" x1="204.632" y1="183.203" x2="143.141" y2="182.746" gradientUnits="userSpaceOnUse">
<stop stop-color="#5CBFFC"/>
<stop offset="1" stop-color="#5C43C3"/>
</linearGradient>
<linearGradient id="paint2_linear_10_3111" x1="169.348" y1="196.934" x2="138.95" y2="182.748" gradientUnits="userSpaceOnUse">
<stop stop-color="white" stop-opacity="0"/>
<stop offset="0.915" stop-color="#7274A1"/>
</linearGradient>
<linearGradient id="paint3_linear_10_3111" x1="205.349" y1="140.041" x2="143.193" y2="139.58" gradientUnits="userSpaceOnUse">
<stop stop-color="#5CBFFC"/>
<stop offset="1" stop-color="#5C43C3"/>
</linearGradient>
<linearGradient id="paint4_linear_10_3111" x1="142.131" y1="93.0085" x2="190.652" y2="97.8606" gradientUnits="userSpaceOnUse">
<stop stop-color="white" stop-opacity="0"/>
<stop offset="0.915" stop-color="#7274A1"/>
</linearGradient>
<linearGradient id="paint5_linear_10_3111" x1="122.19" y1="138.391" x2="239.931" y2="84.3898" gradientUnits="userSpaceOnUse">
<stop stop-color="#FF9429"/>
<stop offset="1" stop-color="#F4D63B"/>
</linearGradient>
<linearGradient id="paint6_linear_10_3111" x1="124.826" y1="123.681" x2="284.527" y2="50.4351" gradientUnits="userSpaceOnUse">
<stop stop-color="#FF9429"/>
<stop offset="1" stop-color="#F4D63B"/>
</linearGradient>
<linearGradient id="paint7_linear_10_3111" x1="172.464" y1="190.861" x2="141.938" y2="176.616" gradientUnits="userSpaceOnUse">
<stop stop-color="white" stop-opacity="0"/>
<stop offset="1" stop-color="#C4483A"/>
</linearGradient>
<linearGradient id="paint8_linear_10_3111" x1="120.206" y1="82.6288" x2="212.984" y2="40.0768" gradientUnits="userSpaceOnUse">
<stop stop-color="#FF9429"/>
<stop offset="1" stop-color="#F4D63B"/>
</linearGradient>
<linearGradient id="paint9_linear_10_3111" x1="142.131" y1="93.0085" x2="190.652" y2="97.8606" gradientUnits="userSpaceOnUse">
<stop stop-color="white" stop-opacity="0"/>
<stop offset="1" stop-color="#C4483A"/>
</linearGradient>
<linearGradient id="paint10_linear_10_3111" x1="40.8584" y1="78.3191" x2="-23.2748" y2="115.347" gradientUnits="userSpaceOnUse">
<stop stop-color="#5C43C3"/>
<stop offset="1" stop-color="#5CBFFC"/>
</linearGradient>
<linearGradient id="paint11_linear_10_3111" x1="51.7638" y1="74.5944" x2="113.255" y2="75.0515" gradientUnits="userSpaceOnUse">
<stop stop-color="#5CBFFC"/>
<stop offset="1" stop-color="#5C43C3"/>
</linearGradient>
<linearGradient id="paint12_linear_10_3111" x1="87.047" y1="60.8641" x2="117.445" y2="75.0503" gradientUnits="userSpaceOnUse">
<stop stop-color="white" stop-opacity="0"/>
<stop offset="0.915" stop-color="#7274A1"/>
</linearGradient>
<linearGradient id="paint13_linear_10_3111" x1="51.0468" y1="117.756" x2="113.203" y2="118.218" gradientUnits="userSpaceOnUse">
<stop stop-color="#5CBFFC"/>
<stop offset="1" stop-color="#5C43C3"/>
</linearGradient>
<linearGradient id="paint14_linear_10_3111" x1="114.264" y1="164.792" x2="65.7435" y2="159.94" gradientUnits="userSpaceOnUse">
<stop stop-color="white" stop-opacity="0"/>
<stop offset="0.915" stop-color="#7274A1"/>
</linearGradient>
<linearGradient id="paint15_linear_10_3111" x1="121.428" y1="191.328" x2="-9.38003" y2="153.214" gradientUnits="userSpaceOnUse">
<stop stop-color="#5C43C3"/>
<stop offset="1" stop-color="#5CBFFC"/>
</linearGradient>
<linearGradient id="paint16_linear_10_3111" x1="112.364" y1="157.926" x2="3.16692" y2="126.11" gradientUnits="userSpaceOnUse">
<stop stop-color="#5C43C3"/>
<stop offset="1" stop-color="#5CBFFC"/>
</linearGradient>
<linearGradient id="paint17_linear_10_3111" x1="83.9327" y1="66.9373" x2="114.458" y2="81.1819" gradientUnits="userSpaceOnUse">
<stop stop-color="white" stop-opacity="0"/>
<stop offset="0.915" stop-color="#7274A1"/>
</linearGradient>
<linearGradient id="paint18_linear_10_3111" x1="112.258" y1="201.065" x2="-46.4684" y2="154.817" gradientUnits="userSpaceOnUse">
<stop stop-color="#5C43C3"/>
<stop offset="1" stop-color="#5CBFFC"/>
</linearGradient>
<linearGradient id="paint19_linear_10_3111" x1="114.264" y1="164.792" x2="65.7435" y2="159.94" gradientUnits="userSpaceOnUse">
<stop stop-color="white" stop-opacity="0"/>
<stop offset="0.915" stop-color="#7274A1"/>
</linearGradient>
<linearGradient id="paint20_linear_10_3111" x1="178.779" y1="41.5607" x2="141.752" y2="-22.5725" gradientUnits="userSpaceOnUse">
<stop stop-color="#5C43C3"/>
<stop offset="1" stop-color="#5CBFFC"/>
</linearGradient>
<linearGradient id="paint21_linear_10_3111" x1="182.502" y1="52.4665" x2="182.045" y2="113.958" gradientUnits="userSpaceOnUse">
<stop stop-color="#5CBFFC"/>
<stop offset="1" stop-color="#5C43C3"/>
</linearGradient>
<linearGradient id="paint22_linear_10_3111" x1="196.233" y1="87.7503" x2="182.046" y2="118.149" gradientUnits="userSpaceOnUse">
<stop stop-color="white" stop-opacity="0"/>
<stop offset="0.915" stop-color="#7274A1"/>
</linearGradient>
<linearGradient id="paint23_linear_10_3111" x1="139.34" y1="51.75" x2="138.878" y2="113.907" gradientUnits="userSpaceOnUse">
<stop stop-color="#5CBFFC"/>
<stop offset="1" stop-color="#5C43C3"/>
</linearGradient>
<linearGradient id="paint24_linear_10_3111" x1="92.3052" y1="114.966" x2="97.1573" y2="66.445" gradientUnits="userSpaceOnUse">
<stop stop-color="white" stop-opacity="0"/>
<stop offset="0.915" stop-color="#7274A1"/>
</linearGradient>
<linearGradient id="paint25_linear_10_3111" x1="83.5771" y1="120.441" x2="100.801" y2="2.89065" gradientUnits="userSpaceOnUse">
<stop offset="0.006" stop-color="#81BB4B"/>
<stop offset="1" stop-color="#E3E43E"/>
</linearGradient>
<linearGradient id="paint26_linear_10_3111" x1="108.643" y1="113.873" x2="124.147" y2="8.06036" gradientUnits="userSpaceOnUse">
<stop offset="0.006" stop-color="#81BB4B"/>
<stop offset="1" stop-color="#E3E43E"/>
</linearGradient>
<linearGradient id="paint27_linear_10_3111" x1="190.159" y1="84.6345" x2="175.915" y2="115.16" gradientUnits="userSpaceOnUse">
<stop stop-color="white" stop-opacity="0"/>
<stop offset="0.915" stop-color="#7274A1"/>
</linearGradient>
<linearGradient id="paint28_linear_10_3111" x1="65.5742" y1="113.189" x2="84.5222" y2="-16.1311" gradientUnits="userSpaceOnUse">
<stop offset="0.006" stop-color="#81BB4B"/>
<stop offset="1" stop-color="#E3E43E"/>
</linearGradient>
<linearGradient id="paint29_linear_10_3111" x1="92.3052" y1="114.966" x2="97.1573" y2="66.445" gradientUnits="userSpaceOnUse">
<stop stop-color="white" stop-opacity="0"/>
<stop offset="0.915" stop-color="#7274A1"/>
</linearGradient>
<linearGradient id="paint30_linear_10_3111" x1="77.6178" y1="216.241" x2="114.645" y2="280.374" gradientUnits="userSpaceOnUse">
<stop stop-color="#5C43C3"/>
<stop offset="1" stop-color="#5CBFFC"/>
</linearGradient>
<linearGradient id="paint31_linear_10_3111" x1="73.8931" y1="205.333" x2="74.3502" y2="143.842" gradientUnits="userSpaceOnUse">
<stop stop-color="#5CBFFC"/>
<stop offset="1" stop-color="#5C43C3"/>
</linearGradient>
<linearGradient id="paint32_linear_10_3111" x1="60.1633" y1="170.05" x2="74.3495" y2="139.651" gradientUnits="userSpaceOnUse">
<stop stop-color="white" stop-opacity="0"/>
<stop offset="0.915" stop-color="#7274A1"/>
</linearGradient>
<linearGradient id="paint33_linear_10_3111" x1="117.056" y1="206.05" x2="117.518" y2="143.893" gradientUnits="userSpaceOnUse">
<stop stop-color="#5CBFFC"/>
<stop offset="1" stop-color="#5C43C3"/>
</linearGradient>
<linearGradient id="paint34_linear_10_3111" x1="164.09" y1="142.832" x2="159.238" y2="191.353" gradientUnits="userSpaceOnUse">
<stop stop-color="white" stop-opacity="0"/>
<stop offset="0.915" stop-color="#7274A1"/>
</linearGradient>
<linearGradient id="paint35_linear_10_3111" x1="77.6178" y1="216.241" x2="114.645" y2="280.374" gradientUnits="userSpaceOnUse">
<stop stop-color="#9D3DEB"/>
<stop offset="0.991" stop-color="#FF00C1"/>
</linearGradient>
<linearGradient id="paint36_linear_10_3111" x1="73.8931" y1="205.333" x2="74.3502" y2="143.842" gradientUnits="userSpaceOnUse">
<stop offset="0.009" stop-color="#FF00C1"/>
<stop offset="1" stop-color="#9D3DEB"/>
</linearGradient>
<linearGradient id="paint37_linear_10_3111" x1="66.2366" y1="173.165" x2="80.4811" y2="142.64" gradientUnits="userSpaceOnUse">
<stop stop-color="white" stop-opacity="0"/>
<stop offset="0.915" stop-color="#7274A1"/>
</linearGradient>
<linearGradient id="paint38_linear_10_3111" x1="117.056" y1="206.05" x2="117.518" y2="143.893" gradientUnits="userSpaceOnUse">
<stop offset="0.009" stop-color="#FF00C1"/>
<stop offset="1" stop-color="#9D3DEB"/>
</linearGradient>
<linearGradient id="paint39_linear_10_3111" x1="164.09" y1="142.832" x2="159.238" y2="191.353" gradientUnits="userSpaceOnUse">
<stop stop-color="white" stop-opacity="0"/>
<stop offset="0.915" stop-color="#7274A1"/>
</linearGradient>
<linearGradient id="paint40_linear_10_3111" x1="210.386" y1="173.643" x2="231.186" y2="199.065" gradientUnits="userSpaceOnUse">
<stop stop-color="#FF9429"/>
<stop offset="1" stop-color="#F4D63B"/>
</linearGradient>
<linearGradient id="paint41_linear_10_3111" x1="46.0097" y1="84.1582" x2="25.2098" y2="58.736" gradientUnits="userSpaceOnUse">
<stop stop-color="#5C43C3"/>
<stop offset="1" stop-color="#5CBFFC"/>
</linearGradient>
<linearGradient id="paint42_linear_10_3111" x1="172.941" y1="46.7124" x2="198.363" y2="25.9125" gradientUnits="userSpaceOnUse">
<stop offset="0.006" stop-color="#81BB4B"/>
<stop offset="1" stop-color="#E3E43E"/>
</linearGradient>
<linearGradient id="paint43_linear_10_3111" x1="83.4554" y1="211.088" x2="58.0333" y2="231.888" gradientUnits="userSpaceOnUse">
<stop stop-color="#9D3DEB"/>
<stop offset="0.991" stop-color="#FF00C1"/>
</linearGradient>
</defs>
</svg>
