<svg width="221" height="257" viewBox="0 0 221 257" fill="none" xmlns="http://www.w3.org/2000/svg">
<path d="M148.528 137.887C151.104 144.475 153.641 151.078 156.175 157.682C158.988 165.007 161.756 172.43 164.799 179.66L209.148 226.506L204.904 231.329C191.077 247.034 172.933 255.502 152.112 256.379C143.404 256.747 132.307 255.692 123.949 252.856L118.361 250.976L128.365 182.857C125.397 182.511 122.418 182.268 119.437 182.12L118.795 182.088C103.542 181.325 90.4009 180.214 77.528 170.915C58.3426 157.053 47.9707 129.544 41.6452 107.732C40.6162 104.186 39.7072 100.604 38.9583 96.9908L0.160156 83.7203L38.7543 61.5368C41.8725 50.3153 48.8048 41.3094 59.8068 36.7245C67.3975 33.5598 75.8185 32.5191 83.8779 34.3565C91.9051 36.1861 98.7948 40.6367 104.018 46.9776C108.269 52.1371 111.956 58.0196 115.269 63.8183L115.564 64.336L158.148 0.449219L164.117 5.06384C168.685 8.56418 173.328 13.5778 176.809 18.0994C183.232 26.4468 187.939 36.044 189.485 46.4237L220.226 31.3377L220.774 41.995C221.624 57.6801 218.736 77.0772 213.405 91.6854C208.7 104.576 201.387 116.444 190.425 124.933C178.186 134.414 163.618 137.99 148.528 137.887Z" fill="url(#paint0_linear_10_2969)"/>
<path d="M25.5239 79.629L38.9779 79.9648L28.0288 83.0765L41.1212 86.9887C40.4756 81.5012 40.3723 76.5561 40.7338 72.1016L25.5239 79.629Z" fill="white"/>
<path d="M138.888 231.782C136.525 231.523 134.149 231.136 131.799 230.594L129.85 243.828C131.489 244.254 133.839 244.797 136.731 245.236L138.888 231.782Z" fill="white"/>
<path d="M158.062 230.824C153.943 231.689 149.721 232.128 145.473 232.128L143.252 245.957C148.287 246.305 154.188 246.215 160.476 245.13L158.062 230.824Z" fill="white"/>
<path d="M173.84 225.195C170.806 226.771 167.655 228.088 164.427 229.133L166.893 243.698C171.322 242.458 175.867 240.676 180.347 238.172L173.84 225.195Z" fill="white"/>
<path d="M185.925 216.959C183.872 218.754 181.716 220.393 179.482 221.865L185.912 234.661C189.062 232.427 192.148 229.793 195.131 226.681L185.925 216.959Z" fill="white"/>
<path d="M132.755 224.098C141.406 226.138 150.302 226.035 158.707 223.956C166.984 221.903 174.782 217.927 181.406 212.194L156.835 186.228C155.169 185.441 149.191 182.794 139.12 180.754L132.755 224.098Z" fill="white"/>
<path d="M152.019 69.003C151.748 63.748 150.715 58.5446 148.946 53.5607C147.474 49.429 145.499 45.4522 143.046 41.7207L118.694 78.2606C119.637 80.1199 120.567 82.0308 121.509 83.9805L152.019 69.003Z" fill="white"/>
<path d="M154.679 50.1531L172.161 30.7598C169.114 25.2078 165.189 20.0819 160.463 15.6016L146.958 35.847C150.185 40.2886 152.768 45.1047 154.679 50.1531Z" fill="white"/>
<path d="M175.208 37.1641L156.925 57.4483C157.597 60.2243 158.074 63.0519 158.346 65.9054L179.611 55.4599C179.314 51.8059 178.681 48.1906 177.739 44.6657C177.055 42.1092 176.215 39.6173 175.208 37.1641Z" fill="white"/>
<path d="M184.492 76.7248L207.152 76.0276C209.941 64.3296 210.496 53.5871 210.547 47.5703L186.39 59.4232C186.493 65.1818 185.873 71.0049 184.492 76.7248Z" fill="white"/>
<path d="M172.988 101.425L192.007 108.294C198.385 100.663 202.594 91.5864 205.344 82.6387L182.542 83.3359L182.233 84.201C179.96 90.4631 176.823 96.2475 172.988 101.425Z" fill="white"/>
<path d="M157.804 116.429L164.75 125.428C173.892 123.104 181.2 118.856 187.074 113.472L168.585 106.797C165.331 110.386 161.716 113.614 157.804 116.429Z" fill="white"/>
<path d="M157.545 126.795L152.277 120.004C147.422 122.832 142.206 125.065 136.757 126.64C144.453 127.622 151.36 127.609 157.545 126.795Z" fill="white"/>
<path d="M101.393 93.8449L115.621 86.8726C112.51 80.4038 109.385 74.3354 106.299 68.9383C102.774 62.7795 99.3269 57.5115 96.0474 53.5347C92.0706 48.6929 87.0479 45.6586 81.5992 44.4191C75.9568 43.1408 69.798 43.7477 63.7683 46.2525C56.6281 49.2351 50.6242 55.5102 48.2226 66.1623C46.118 75.5232 46.712 88.1896 51.5538 104.858C70.2499 169.313 95.221 170.566 119.288 171.78L119.934 171.805C135.041 172.567 146.157 175.395 152.859 177.654C151.064 173.122 148.933 167.57 146.545 161.373C143.381 153.109 139.753 143.645 135.583 133.174C133.775 132.954 120.605 129.507 117.726 122.78C130.78 122.78 143.136 118.7 153.336 111.56C163.549 104.419 171.606 94.2193 176.074 81.9662C178.385 75.6524 179.599 69.132 179.805 62.6633C155.467 72.7989 132.923 86.5369 101.393 93.8449Z" fill="white"/>
<path d="M70.1013 58.9785C76.836 58.9785 82.2963 64.4401 82.2963 71.1736C82.2963 77.9096 76.836 83.3686 70.1013 83.3686C63.3666 83.3686 57.9062 77.9096 57.9062 71.1736C57.9062 64.4401 63.3666 58.9785 70.1013 58.9785Z" fill="url(#paint1_linear_10_2969)"/>
<path d="M75.8794 59.1133C78.5005 59.1133 80.6309 61.2308 80.6309 63.8518C80.6309 66.4858 78.5005 68.6033 75.8794 68.6033C73.2583 68.6033 71.1279 66.4858 71.1279 63.8518C71.1279 61.2308 73.2583 59.1133 75.8794 59.1133Z" fill="white"/>
<defs>
<linearGradient id="paint0_linear_10_2969" x1="31.5769" y1="388.05" x2="-133.714" y2="73.4514" gradientUnits="userSpaceOnUse">
<stop stop-color="#16EA9E"/>
<stop offset="1" stop-color="#15B0F8"/>
</linearGradient>
<linearGradient id="paint1_linear_10_2969" x1="177.751" y1="311.91" x2="12.4451" y2="-3.33268" gradientUnits="userSpaceOnUse">
<stop stop-color="#16EA9E"/>
<stop offset="1" stop-color="#15B0F8"/>
</linearGradient>
</defs>
</svg>
