<svg width="276" height="299" viewBox="0 0 276 299" fill="none" xmlns="http://www.w3.org/2000/svg">
<path d="M254.801 210.387C235.973 248.043 197.969 274.716 152.992 276.982C86.5712 280.469 29.7391 229.39 26.2524 162.795" stroke="#428DC6" stroke-width="42.2" stroke-linecap="round" stroke-linejoin="round"/>
<path d="M26.2524 162.794C14.5722 97.2456 58.5038 34.6606 124.052 22.9804C166.938 15.4841 208.603 31.5226 235.45 61.8563" stroke="#DB4646" stroke-width="42.2" stroke-linecap="round" stroke-linejoin="round"/>
<path d="M0.799805 159.483C0.799805 172.907 11.7827 183.889 25.3805 183.889C38.9784 183.889 49.9613 172.907 49.9613 159.483C49.9613 145.885 38.9784 134.902 25.3805 134.902C11.7827 134.902 0.799805 145.885 0.799805 159.483Z" fill="#F2C12E"/>
<g style="mix-blend-mode:multiply" opacity="0.8">
<path d="M6.20394 174.647L48.3922 150.59C47.4624 148.149 46.1259 145.941 44.3826 143.965L2.36865 167.848C3.29842 170.289 4.57685 172.555 6.20394 174.647Z" fill="#F2C12E"/>
</g>
</svg>
