<svg width="257" height="223" viewBox="0 0 257 223" fill="none" xmlns="http://www.w3.org/2000/svg">
<path d="M66.1355 135.774L256.599 59.7054C256.599 59.7054 229.39 2.06891 161.953 0.313486C94.3687 -1.58823 52.0921 64.5329 66.1355 135.774Z" fill="#2B2B2B"/>
<path d="M101.391 113.244L246.506 178.049C246.506 178.049 218.273 247.096 121.432 213.011C80.1796 189.898 70.9637 156.984 66.1362 135.772L101.391 113.244Z" fill="#2B2B2B"/>
<path d="M88.8099 33.5195C83.1048 37.4692 58.2362 94.6669 11.4248 87.3527C11.4248 87.3527 27.0774 110.612 54.8716 93.7892C54.8716 93.7892 26.0533 137.529 0.599609 128.898C0.599609 128.898 29.7105 156.253 59.4065 131.238C59.4065 131.238 44.339 165.03 27.955 164.445C27.955 164.445 48.8739 183.17 71.6945 155.375L88.8099 33.5195Z" fill="#F2C12E"/>
<path d="M126.406 6.16406C80.326 23.7183 54.7261 78.1366 66.1363 135.773C69.9398 152.596 76.5226 176.587 99.4895 197.359L110.753 117.487L126.406 6.16406Z" fill="#F2C12E"/>
<path d="M85.0068 53.8518C85.0068 60.8736 90.712 66.5787 97.7337 66.5787C104.755 66.5787 110.461 60.8736 110.461 53.8518C110.461 46.8301 104.755 41.125 97.7337 41.125C90.712 41.125 85.0068 46.8301 85.0068 53.8518Z" fill="white"/>
<path d="M88.5176 53.8525C88.5176 58.9725 92.6136 63.0685 97.7336 63.0685C102.854 63.0685 107.096 58.9725 107.096 53.8525C107.096 48.7325 102.854 44.4902 97.7336 44.4902C92.6136 44.4902 88.5176 48.7325 88.5176 53.8525Z" fill="#2B2B2B"/>
<path d="M88.3711 49.4647C88.3711 51.8053 90.2728 53.707 92.7597 53.707C95.1002 53.707 97.002 51.8053 97.002 49.4647C97.002 46.9779 95.1002 45.0762 92.7597 45.0762C90.2728 45.0762 88.3711 46.9779 88.3711 49.4647Z" fill="white"/>
<path d="M126.405 6.31042C126.405 6.31042 124.796 1.77557 121.139 2.36071C117.336 2.94586 115.727 11.5767 115.727 11.5767L121.871 17.4281L126.405 6.31042Z" fill="#F2C12E"/>
<path d="M121.724 13.04C121.724 13.04 124.211 6.45718 121.724 6.3109C119.091 6.16461 121.724 13.04 121.724 13.04Z" fill="#2B2B2B"/>
</svg>
