<svg width="257" height="250" viewBox="0 0 257 250" fill="none" xmlns="http://www.w3.org/2000/svg">
<path d="M202.39 141.617C195.868 157.434 178.421 167.054 154.289 168.032V248.419C171.899 246.137 188.204 241.082 202.39 233.581C202.39 234.56 202.39 141.617 202.39 141.617Z" fill="#DBDBDB"/>
<path d="M154.289 82.1019C179.399 82.9172 191.792 92.3745 202.39 101.669C202.39 101.995 202.39 17.2053 202.39 17.2053C188.204 9.70467 171.899 4.32381 154.289 2.04102V82.1019Z" fill="#DBDBDB"/>
<path d="M148.582 168.034C148.473 168.034 148.364 168.034 148.255 168.034C115.481 168.034 100.154 149.119 100.154 125.313C100.154 101.343 115.481 81.9397 148.255 81.9397C148.364 81.9397 148.473 81.9397 148.582 81.9397V1.71568C143.527 1.2265 138.472 0.900391 133.254 0.900391C56.7804 0.900391 0.199707 56.5028 0.199707 125.313C0.199707 194.286 56.7804 249.562 133.254 249.562C138.472 249.562 143.527 249.236 148.582 248.747V168.034Z" fill="#DB4646"/>
<g style="mix-blend-mode:multiply" opacity="0.4">
<path d="M133.254 249.563C138.472 249.563 143.527 249.236 148.582 248.747V225.756C141.081 226.572 133.091 227.061 124.286 227.061C70.6403 227.061 18.4621 192.167 0.362793 129.553C2.48253 196.406 58.248 249.563 133.254 249.563Z" fill="#DB4646"/>
</g>
<g style="mix-blend-mode:multiply" opacity="0.5">
<path d="M202.39 211.406C192.444 216.298 176.464 222.331 154.289 225.266V248.42C171.899 246.137 188.204 241.083 202.39 233.582C202.39 233.908 202.39 224.451 202.39 211.406Z" fill="#DBDBDB"/>
</g>
<g style="mix-blend-mode:multiply" opacity="0.4">
<path d="M148.582 72.9707C93.4684 80.3083 100.48 119.931 100.48 119.931C102.6 98.4076 118.09 81.9388 148.256 81.9388C148.364 81.9388 148.473 81.9388 148.582 81.9388V72.9707Z" fill="#DB4646"/>
</g>
<g style="mix-blend-mode:multiply" opacity="0.5">
<path d="M202.39 101.67C202.39 101.833 202.39 96.7786 202.39 89.1149C189.672 78.3531 173.529 70.2003 154.289 72.4831V82.1035C179.399 82.9187 191.792 92.376 202.39 101.67Z" fill="#DBDBDB"/>
</g>
<path d="M207.935 51.2831L223.915 23.5634L233.372 31.3901L252.123 11.9863L235.655 38.8907L223.915 31.7162L207.935 51.2831Z" fill="#F2C12E"/>
<path d="M207.12 211.243L234.839 210.428L233.372 220.863L256.2 225.918H228.969V214.178L207.12 211.243Z" fill="#F2C12E"/>
<path d="M210.87 59.9258L234.839 72.6442L228.643 80.797L245.764 96.1244L222.284 82.9168L227.991 72.8073L210.87 59.9258Z" fill="#F2C12E"/>
<path d="M210.87 184.666L227.991 159.718L236.307 167.708L255.384 150.75L237.774 174.882L227.501 167.219L210.87 184.666Z" fill="#F2C12E"/>
</svg>
