<svg width="237" height="257" viewBox="0 0 237 257" fill="none" xmlns="http://www.w3.org/2000/svg">
<path d="M159.134 133.576L81.0105 6.67927C80.8633 6.67927 80.7897 6.60576 80.7897 6.45863C80.6426 6.31151 80.4955 6.16435 80.3484 6.01723C80.3484 5.8701 80.2748 5.72295 80.1276 5.57582C79.9805 5.4287 79.907 5.28154 79.907 5.13442C79.7599 4.98729 79.6127 4.84027 79.4656 4.69315C79.3185 4.69315 79.1713 4.6195 79.0242 4.47238C78.8771 4.32525 78.7299 4.1781 78.5828 4.03097C78.4357 3.88385 78.3622 3.81034 78.3622 3.81034C78.215 3.66321 77.9944 3.51606 77.7001 3.36893C77.553 3.22181 77.4058 3.1483 77.2587 3.1483C77.1116 3.00117 76.9644 2.92753 76.8173 2.92753C76.6702 2.7804 76.523 2.63338 76.3759 2.48626C76.2288 2.48626 76.0818 2.41261 75.9346 2.26549C75.7875 2.26549 75.5667 2.19198 75.2725 2.04485C75.2725 2.04485 75.199 2.04485 75.0518 2.04485C74.7576 1.89773 74.5369 1.82408 74.3898 1.82408C74.2427 1.82408 74.0955 1.75057 73.9484 1.60345C73.8013 1.60345 73.5806 1.60345 73.2863 1.60345C73.1392 1.60345 72.9921 1.60345 72.8449 1.60345C72.6978 1.45632 72.5507 1.38281 72.4035 1.38281C72.1093 1.38281 71.8886 1.38281 71.7415 1.38281C71.7415 1.38281 71.668 1.38281 71.5209 1.38281H11.9348C5.75555 1.38281 0.900391 6.45866 0.900391 12.4173C0.900391 18.3759 5.75555 23.4517 11.9348 23.4517H65.3415L138.831 142.403V234.651H101.976V170.651C101.976 164.693 96.9001 159.837 90.9415 159.837C84.7622 159.837 79.907 164.693 79.907 170.651V245.465C79.907 251.644 84.7622 256.499 90.9415 256.499H149.865C155.824 256.499 160.9 251.644 160.9 245.465V139.313C160.9 137.327 160.238 135.341 159.134 133.576Z" fill="url(#paint0_linear_10_2867)"/>
<path d="M236.596 11.9759C236.596 5.79656 231.741 0.941405 225.782 0.941405L151.852 0.5C151.704 0.5 151.631 0.5 151.631 0.5C151.484 0.5 151.263 0.5 150.969 0.5C150.822 0.647126 150.675 0.720635 150.527 0.720635C150.38 0.720635 150.16 0.720635 149.865 0.720635C149.718 0.720635 149.571 0.720635 149.424 0.720635C149.277 0.867761 149.13 0.941405 148.983 0.941405C148.836 0.941405 148.615 1.01491 148.321 1.16204C148.321 1.16204 148.247 1.16204 148.1 1.16204C147.806 1.30917 147.585 1.38281 147.438 1.38281C147.291 1.52994 147.144 1.60344 146.996 1.60344C146.849 1.75057 146.629 1.89772 146.334 2.04485C146.187 2.04485 146.114 2.11836 146.114 2.26548C145.819 2.26548 145.599 2.33913 145.452 2.48625C145.305 2.63338 145.157 2.7804 145.01 2.92752C144.863 2.92752 144.789 3.00117 144.789 3.14829C144.495 3.29542 144.275 3.44257 144.127 3.5897C144.127 3.73683 144.054 3.81033 143.907 3.81033C143.76 3.95746 143.613 4.17812 143.465 4.47237C143.318 4.47237 143.245 4.54602 143.245 4.69314C143.098 4.84027 142.95 4.98729 142.803 5.13441C142.803 5.28154 142.73 5.42869 142.583 5.57582C142.435 5.72295 142.362 5.8701 142.362 6.01722C142.215 6.16435 142.141 6.3115 142.141 6.45863C141.994 6.60575 141.921 6.75291 141.921 6.90003C141.773 7.04716 141.626 7.26782 141.479 7.56207C141.479 7.7092 141.479 7.85635 141.479 8.00348C141.332 8.1506 141.259 8.29762 141.259 8.44475C141.259 8.59187 141.185 8.73903 141.038 8.88615C141.038 9.18041 141.038 9.40107 141.038 9.54819C141.038 9.69532 140.964 9.84247 140.817 9.9896C140.817 10.1367 140.817 10.3574 140.817 10.6516C140.817 10.7988 140.817 10.9459 140.817 11.093C140.817 11.2402 140.817 11.3873 140.817 11.5344C140.817 11.8287 140.817 12.123 140.817 12.4173C140.817 12.4173 140.817 12.4908 140.817 12.6379C140.817 12.9321 140.891 13.1528 141.038 13.2999C141.038 13.4471 141.038 13.5942 141.038 13.7413C141.038 14.0356 141.111 14.2563 141.259 14.4034C141.259 14.5505 141.259 14.6977 141.259 14.8448C141.406 14.9919 141.479 15.1391 141.479 15.2862C141.479 15.4333 141.553 15.654 141.7 15.9482C141.7 16.0954 141.773 16.2425 141.921 16.3896C141.921 16.5368 141.994 16.6839 142.141 16.831C142.141 16.9782 142.141 17.0517 142.141 17.0517L172.376 69.5756C174.362 73.1066 178.114 75.0928 181.865 75.0928C183.631 75.0928 185.617 74.6514 187.383 73.548C192.458 70.679 194.445 63.8377 191.355 58.5412L170.831 22.5689L214.748 22.7895V32.4999C214.748 85.4653 171.714 128.5 118.748 128.5C65.7829 128.5 22.7485 85.4653 22.7485 32.4999V15.7276C22.7485 9.5483 17.8934 4.69314 11.9348 4.69314C5.75555 4.69314 0.900391 9.5483 0.900391 15.7276V32.4999C0.900391 97.6031 53.8657 150.348 118.748 150.348C183.851 150.348 236.596 97.6031 236.596 32.4999V15.2862C236.596 14.6977 236.596 14.1092 236.596 13.5207C236.596 13.0793 236.596 12.5644 236.596 11.9759Z" fill="url(#paint1_linear_10_2867)"/>
<path style="mix-blend-mode:multiply" d="M138.831 196.032H160.9V142.625C153.838 145.273 146.482 147.259 138.831 148.583V196.032Z" fill="url(#paint2_linear_10_2867)"/>
<defs>
<linearGradient id="paint0_linear_10_2867" x1="145.948" y1="-136.932" x2="385.813" y2="102.933" gradientUnits="userSpaceOnUse">
<stop stop-color="#8F63F2"/>
<stop offset="0.999" stop-color="#30C7CF"/>
</linearGradient>
<linearGradient id="paint1_linear_10_2867" x1="85.6317" y1="-80.1618" x2="378.656" y2="212.862" gradientUnits="userSpaceOnUse">
<stop stop-color="#8F63F2"/>
<stop offset="0.999" stop-color="#30C7CF"/>
</linearGradient>
<linearGradient id="paint2_linear_10_2867" x1="84.5813" y1="194.021" x2="84.5813" y2="148.138" gradientUnits="userSpaceOnUse">
<stop stop-color="white"/>
<stop offset="0.999" stop-color="#272525"/>
</linearGradient>
</defs>
</svg>
