<svg width="235" height="257" viewBox="0 0 235 257" fill="none" xmlns="http://www.w3.org/2000/svg">
<path d="M160.265 0.701172C154.485 0.701172 149.776 5.4102 149.776 11.4035V169.37C149.776 185.852 143.569 201.477 132.653 213.678C119.596 228.019 104.827 235.082 87.4888 235.296C51.3149 234.868 22.2045 205.544 22.2045 169.37V22.1059H74.646C80.6393 22.1059 85.3483 17.1828 85.3483 11.4035C85.3483 5.4102 80.6393 0.701172 74.646 0.701172H11.5021C5.50884 0.701172 0.799805 5.4102 0.799805 11.4035V169.37C0.799805 216.674 38.6861 255.417 85.7764 256.701C86.0618 256.701 86.3473 256.701 86.6327 256.701H88.1309C88.4163 256.701 88.7017 256.701 88.9871 256.701C111.676 256.059 131.796 246.427 148.492 228.019C163.047 211.965 170.967 190.989 170.967 169.37V11.4035C170.967 5.4102 166.258 0.701172 160.265 0.701172Z" fill="url(#paint0_linear_10_2839)"/>
<path d="M223.622 0.701172C217.629 0.701172 212.92 5.4102 212.92 11.4035V169.37C212.92 205.544 183.596 234.868 147.636 235.296C112.746 234.868 85.348 206.186 85.348 169.37V11.4035C85.348 5.4102 80.639 0.701172 74.6457 0.701172C68.8664 0.701172 63.9434 5.4102 63.9434 11.4035V169.37C63.9434 217.531 99.9033 255.417 146.137 256.701C146.423 256.701 146.637 256.701 146.78 256.701H148.278C148.563 256.701 148.849 256.701 149.134 256.701C196.224 255.417 234.111 216.674 234.111 169.37V11.4035C234.111 5.4102 229.402 0.701172 223.622 0.701172Z" fill="url(#paint1_linear_10_2839)"/>
<path style="mix-blend-mode:multiply" d="M147.637 235.296C145.496 235.296 143.427 235.224 141.429 235.082C133.866 241.931 125.804 247.139 117.242 250.707C126.018 254.346 135.864 256.272 146.139 256.7C146.424 256.7 146.638 256.7 146.781 256.7H148.279C148.564 256.7 148.85 256.7 149.135 256.7C164.975 256.272 179.744 251.563 192.373 243.857V217.102C180.6 228.232 164.975 235.081 147.637 235.296Z" fill="url(#paint2_linear_10_2839)"/>
<defs>
<linearGradient id="paint0_linear_10_2839" x1="135.799" y1="-141.882" x2="408.304" y2="130.623" gradientUnits="userSpaceOnUse">
<stop stop-color="#70E8BC"/>
<stop offset="0.999" stop-color="#FF616A"/>
</linearGradient>
<linearGradient id="paint1_linear_10_2839" x1="162.48" y1="-178.413" x2="435.056" y2="94.1626" gradientUnits="userSpaceOnUse">
<stop stop-color="#70E8BC"/>
<stop offset="0.999" stop-color="#FF616A"/>
</linearGradient>
<linearGradient id="paint2_linear_10_2839" x1="194.648" y1="256.675" x2="134.038" y2="256.675" gradientUnits="userSpaceOnUse">
<stop stop-color="white"/>
<stop offset="0.999" stop-color="#272525"/>
</linearGradient>
</defs>
</svg>
