<svg width="257" height="222" viewBox="0 0 257 222" fill="none" xmlns="http://www.w3.org/2000/svg">
<path d="M247.324 156.146H197.596C164.743 156.146 135.481 178.228 126.684 210.004C125.787 212.696 126.325 215.569 128.12 217.723C129.736 219.877 132.429 221.314 135.122 221.314H186.825C191.672 221.314 195.621 217.184 195.621 212.337C195.621 207.311 191.672 203.361 186.825 203.361H148.407C157.921 185.588 176.771 173.919 197.596 173.919H238.527V203.361H215.01C209.983 203.361 206.034 207.311 206.034 212.337C206.034 217.184 209.983 221.314 215.01 221.314H247.324C252.351 221.314 256.3 217.184 256.3 212.337V164.943C256.3 160.096 252.351 156.146 247.324 156.146Z" fill="url(#paint0_linear_10_2818)"/>
<path d="M166.718 22.2223C149.304 8.21947 124.889 0.5 98.1402 0.5C40.5131 0.5 1.19742 34.6095 0.299805 85.5942C0.299805 85.7139 0.299805 85.7737 0.299805 85.7737V148.068C0.299805 187.743 32.255 220.237 71.7502 221.314C71.8699 221.314 72.0495 221.314 72.2888 221.314H73.5454C73.7848 221.314 74.0242 221.314 74.2635 221.314C93.293 220.775 110.168 212.697 124.171 197.078C136.379 183.614 143.021 166.2 143.021 148.068V73.2071C143.021 48.7918 123.094 28.8647 98.6787 28.8647C73.9045 28.8647 52.9002 49.1509 52.9002 73.2071L53.4389 141.785V159.019C53.4389 173.74 61.1583 187.384 74.2635 195.642C78.3926 198.335 83.9578 197.078 86.4711 192.77C89.164 188.641 87.9073 183.075 83.7783 180.562C75.8792 175.535 71.2116 167.457 71.2116 159.019V141.785L70.8526 73.2071C70.8526 58.8452 83.5987 46.6376 98.6787 46.6376C113.22 46.6376 125.248 58.4861 125.248 73.2071V148.068C125.248 161.712 120.042 174.997 110.886 185.23C99.9355 197.258 87.5483 203.182 73.0069 203.362C42.6674 203.003 18.2522 178.408 18.2522 148.068V85.9532C18.9703 44.8423 50.3869 18.2729 98.1402 18.2729C120.94 18.2729 141.226 24.5561 155.588 36.0457C170.309 48.0737 178.208 65.308 178.208 85.7737V100.315C178.208 112.164 177.849 211.261 177.849 212.338C177.849 217.185 181.798 221.314 186.825 221.314C191.672 221.314 195.621 217.365 195.621 212.338C195.801 211.44 196.16 112.164 196.16 100.315V85.7737C196.16 59.7428 185.927 37.6613 166.718 22.2223Z" fill="url(#paint1_linear_10_2818)"/>
<path style="mix-blend-mode:multiply" d="M177.85 203.362H186.826H195.802C195.802 196.36 195.802 185.768 195.802 173.92C189.698 174.099 183.594 175.356 178.029 177.51C177.85 187.923 177.85 197.079 177.85 203.362Z" fill="url(#paint2_linear_10_2818)"/>
<defs>
<linearGradient id="paint0_linear_10_2818" x1="-27.6451" y1="-79.2322" x2="233.696" y2="182.109" gradientUnits="userSpaceOnUse">
<stop stop-color="#8F63F2"/>
<stop offset="0.999" stop-color="#30C7CF"/>
</linearGradient>
<linearGradient id="paint1_linear_10_2818" x1="96.6771" y1="-125.655" x2="327.607" y2="105.275" gradientUnits="userSpaceOnUse">
<stop stop-color="#8F63F2"/>
<stop offset="0.999" stop-color="#30C7CF"/>
</linearGradient>
<linearGradient id="paint2_linear_10_2818" x1="162.8" y1="204.27" x2="162.8" y2="174.001" gradientUnits="userSpaceOnUse">
<stop stop-color="white"/>
<stop offset="0.999" stop-color="#272525"/>
</linearGradient>
</defs>
</svg>
