<svg width="197" height="257" viewBox="0 0 197 257" fill="none" xmlns="http://www.w3.org/2000/svg">
<path d="M14.0798 93.9321C8.35167 92.3899 2.18295 95.6946 0.640777 101.643C-0.901399 107.371 2.40326 113.54 8.35166 115.082C37.653 123.234 58.3622 150.552 58.3622 181.175V234.27H22.2313V197.919C22.2313 191.75 17.1641 186.903 11.2157 186.903C5.04703 186.903 0.200195 191.75 0.200195 197.919V245.286C0.200195 251.234 5.04703 256.301 11.2157 256.301H69.3778C75.3262 256.301 80.173 251.234 80.173 245.286V181.175C80.173 140.638 53.0748 104.727 14.0798 93.9321Z" fill="url(#paint0_linear_10_2813)"/>
<path d="M110.135 0.300781H11.2157C8.3517 0.300781 5.48766 1.40234 3.50486 3.60544C1.30175 5.58824 0.200195 8.45228 0.200195 11.3163V69.2581C0.200195 75.2064 5.04703 80.2736 11.2157 80.2736H130.404C136.352 80.2736 141.419 75.2064 141.419 69.2581C141.419 63.0893 136.352 58.2425 130.404 58.2425H22.2313V22.3319H110.135C145.826 22.3319 174.907 51.4129 174.907 87.3236C174.907 123.014 145.826 152.315 110.135 152.315H22.2313V104.508C22.2313 98.5594 17.1641 93.4922 11.2157 93.4922C5.04703 93.4922 0.200195 98.5594 0.200195 104.508V163.111C0.200195 169.279 5.04703 174.126 11.2157 174.126H110.135C157.943 174.126 196.938 135.131 196.938 87.3236C196.938 39.2958 157.943 0.300781 110.135 0.300781Z" fill="url(#paint1_linear_10_2813)"/>
<path style="mix-blend-mode:multiply" d="M58.3625 181.177V212.241H80.1733V181.177C80.1733 178.827 80.0998 176.477 79.953 174.127H57.9219C58.2156 176.477 58.3625 178.827 58.3625 181.177Z" fill="url(#paint2_linear_10_2813)"/>
<defs>
<linearGradient id="paint0_linear_10_2813" x1="60.4332" y1="-51.6428" x2="284.8" y2="172.724" gradientUnits="userSpaceOnUse">
<stop stop-color="#D4FF7A"/>
<stop offset="0.999" stop-color="#E25F9D"/>
</linearGradient>
<linearGradient id="paint1_linear_10_2813" x1="95.3326" y1="-79.7184" x2="346.765" y2="171.714" gradientUnits="userSpaceOnUse">
<stop stop-color="#D4FF7A"/>
<stop offset="0.999" stop-color="#E25F9D"/>
</linearGradient>
<linearGradient id="paint2_linear_10_2813" x1="36.6222" y1="215.909" x2="36.6222" y2="169.809" gradientUnits="userSpaceOnUse">
<stop stop-color="white"/>
<stop offset="0.999" stop-color="#272525"/>
</linearGradient>
</defs>
</svg>
