<svg width="236" height="256" viewBox="0 0 236 256" fill="none" xmlns="http://www.w3.org/2000/svg">
<path d="M223.612 233.967H164.349V22.0308H205.547V137.472C205.547 143.421 210.394 148.488 216.562 148.488C222.511 148.488 227.578 143.421 227.578 137.472V11.0154C227.578 4.84678 222.511 0 216.562 0H153.334C147.165 0 142.318 4.84678 142.318 11.0154V244.983C142.318 250.931 147.165 255.998 153.334 255.998H223.612C229.56 255.998 234.628 250.931 234.628 244.983C234.628 238.814 229.56 233.967 223.612 233.967Z" fill="url(#paint0_linear_10_2805)"/>
<path d="M234.849 242.34C220.969 187.263 193.21 136.152 154.656 94.7338C116.102 53.3159 67.6346 22.0321 14.32 4.62776C14.0263 4.48089 13.7325 4.40744 13.4388 4.40744C13.4388 4.40744 13.3654 4.33399 13.2185 4.18712C13.0716 4.18712 12.8513 4.18712 12.5576 4.18712C12.4107 4.18712 12.2638 4.18712 12.117 4.18712C11.9701 4.18712 11.8232 4.18712 11.6763 4.18712C11.3826 4.04025 11.1623 3.9668 11.0154 3.9668C10.8685 3.9668 10.7952 3.9668 10.7952 3.9668C10.7952 3.9668 10.7216 3.9668 10.5748 3.9668C10.281 3.9668 10.0607 4.04025 9.91387 4.18712C9.767 4.18712 9.6201 4.18712 9.47323 4.18712C9.17948 4.18712 8.9592 4.18712 8.81233 4.18712C8.66546 4.33399 8.44518 4.40744 8.15143 4.40744C8.00456 4.40744 7.85766 4.40744 7.71079 4.40744C7.56392 4.55431 7.34364 4.62776 7.04989 4.62776C7.04989 4.77463 6.97638 4.84808 6.8295 4.84808C6.53576 4.99496 6.31548 5.06834 6.1686 5.06834C6.02173 5.21521 5.87483 5.28866 5.72796 5.28866C5.58109 5.43553 5.43432 5.50898 5.28745 5.50898C5.14058 5.65585 4.99368 5.7293 4.84681 5.7293C4.69994 5.87618 4.55304 6.02301 4.40617 6.16988C4.25929 6.31675 4.11239 6.3902 3.96552 6.3902C3.81865 6.53707 3.74527 6.68397 3.74527 6.83084C3.5984 6.97772 3.4515 7.12455 3.30462 7.27142C3.15775 7.27142 3.01085 7.34487 2.86398 7.49174C2.71711 7.63861 2.57021 7.78551 2.42334 7.93239C2.42334 8.07926 2.34995 8.22609 2.20308 8.37296C2.05621 8.51983 1.90931 8.66673 1.76244 8.81361C1.76244 8.96048 1.68906 9.10738 1.54218 9.25425C1.54218 9.40112 1.46867 9.54795 1.3218 9.69483C1.17492 9.8417 1.10154 9.9886 1.10154 10.1355C0.954669 10.2823 0.881287 10.4292 0.881287 10.576C0.734415 10.8698 0.660898 11.0901 0.660898 11.237C0.514026 11.3839 0.440643 11.5307 0.440643 11.6776C0.440643 11.8245 0.367127 12.0448 0.220254 12.3386C0.220254 12.4854 0.220254 12.6323 0.220254 12.7791C0.0733823 12.926 0 13.0729 0 13.2198C0 13.3666 0 13.5869 0 13.8807C0 13.8807 0 13.9541 0 14.101C0 14.3947 0 14.6885 0 14.9822V244.984C0 251.153 4.84684 256 10.7952 256H68.9565C75.1251 256 79.9719 251.153 79.9719 244.984V83.0575C79.9719 77.1092 75.1251 72.2624 68.9565 72.2624C63.0081 72.2624 57.9411 77.1092 57.9411 83.0575V233.969H21.8106V30.6241C65.8722 47.5878 106.189 74.6858 138.574 109.495C174.705 148.489 200.701 196.076 213.699 247.628C215.021 252.695 219.427 256 224.274 256C225.155 256 226.036 255.853 226.918 255.559C232.866 254.017 236.391 248.068 234.849 242.34Z" fill="url(#paint1_linear_10_2805)"/>
<path style="mix-blend-mode:multiply" d="M198.056 201.363H221.629C207.97 166.555 188.583 133.949 164.349 105.529V140.999C177.788 159.945 189.024 179.994 198.056 201.363Z" fill="url(#paint2_linear_10_2805)"/>
<defs>
<linearGradient id="paint0_linear_10_2805" x1="278.037" y1="-265.421" x2="526.983" y2="-16.4745" gradientUnits="userSpaceOnUse">
<stop stop-color="#F05B80"/>
<stop offset="0.999" stop-color="#4158F0"/>
</linearGradient>
<linearGradient id="paint1_linear_10_2805" x1="133.088" y1="-115.326" x2="379.397" y2="130.983" gradientUnits="userSpaceOnUse">
<stop stop-color="#F05B80"/>
<stop offset="0.999" stop-color="#4158F0"/>
</linearGradient>
<linearGradient id="paint2_linear_10_2805" x1="139.866" y1="245.198" x2="90.3865" y2="164.127" gradientUnits="userSpaceOnUse">
<stop stop-color="white"/>
<stop offset="0.999" stop-color="#272525"/>
</linearGradient>
</defs>
</svg>
