<svg width="257" height="223" viewBox="0 0 257 223" fill="none" xmlns="http://www.w3.org/2000/svg">
<path d="M252.542 2.09784C250.224 0.165762 246.939 -0.220677 244.041 0.745361L242.689 1.1318C198.638 15.8156 160.962 44.2171 133.333 82.8586C105.898 121.307 91.4072 166.324 91.4072 212.887C91.4072 218.104 95.851 222.548 101.068 222.548C106.477 222.548 110.728 218.104 110.728 212.887C110.728 130.388 162.314 54.2638 237.472 23.5438V203.42H205.593V71.2661C205.593 66.0495 201.342 61.6057 196.126 61.6057C190.716 61.6057 186.465 66.0495 186.465 71.2661V212.887C186.465 218.297 190.716 222.548 196.126 222.548H246.939C252.349 222.548 256.6 218.297 256.6 212.887V9.82614C256.6 6.73482 255.054 3.83671 252.542 2.09784Z" fill="url(#paint0_linear_10_2800)"/>
<path d="M13.1581 0.745361C10.26 -0.220677 6.97546 0.165762 4.46376 2.09784C1.95206 3.83671 0.599609 6.73482 0.599609 9.82614V212.887C0.599609 218.297 4.85022 222.548 10.0668 222.548H61.0737C66.4835 222.548 70.734 218.297 70.734 212.887V71.0729C70.734 65.6631 66.4835 61.4125 61.0737 61.4125C55.8571 61.4125 51.4133 65.6631 51.4133 71.0729V203.42H19.7272V23.5438C93.1461 53.1046 142.607 123.239 146.278 203.227H101.068C95.8509 203.227 91.4072 207.671 91.4072 212.887C91.4072 218.104 95.8509 222.548 101.068 222.548H155.939C161.348 222.548 165.599 218.104 165.599 212.887C165.599 115.897 104.352 30.6925 13.1581 0.745361Z" fill="url(#paint1_linear_10_2800)"/>
<path style="mix-blend-mode:multiply" d="M139.903 108.168C135.782 114.995 132.111 122.079 128.891 129.421C134.88 143.138 139.517 157.629 142.415 172.506H161.929C157.872 149.708 150.337 128.068 139.903 108.168Z" fill="url(#paint2_linear_10_2800)"/>
<defs>
<linearGradient id="paint0_linear_10_2800" x1="62.1884" y1="-261.387" x2="378.664" y2="55.0889" gradientUnits="userSpaceOnUse">
<stop stop-color="#D4FF7A"/>
<stop offset="0.999" stop-color="#E25F9D"/>
</linearGradient>
<linearGradient id="paint1_linear_10_2800" x1="121.18" y1="-111.429" x2="341.478" y2="108.868" gradientUnits="userSpaceOnUse">
<stop stop-color="#D4FF7A"/>
<stop offset="0.999" stop-color="#E25F9D"/>
</linearGradient>
<linearGradient id="paint2_linear_10_2800" x1="90.0811" y1="192.524" x2="70.3019" y2="135.463" gradientUnits="userSpaceOnUse">
<stop stop-color="white"/>
<stop offset="0.999" stop-color="#272525"/>
</linearGradient>
</defs>
</svg>
