<svg width="257" height="246" viewBox="0 0 257 246" fill="none" xmlns="http://www.w3.org/2000/svg">
<path d="M101.452 242.548H46.8959V192.401H60.0578V229.386H88.2902V181.542H101.452V242.548Z" fill="#6441A5"/>
<path d="M60.0578 130.738H46.8959V0.5H53.4769C79.9324 0.5 101.452 22.0198 101.452 48.4753V92.173H88.2902V48.4753C88.2902 31.5622 76.1154 17.3473 60.0578 14.3201V130.738Z" fill="#6441A5"/>
<path d="M200.891 245.312L135.278 179.7L144.623 170.421L200.496 226.227C209.643 212.736 208.261 194.112 196.284 182.069L171.145 156.995L180.424 147.65L205.563 172.79C224.253 191.48 224.253 221.95 205.563 240.64L200.891 245.312Z" fill="#6441A5"/>
<path d="M253.275 19.7163C255.25 16.4916 256.5 14.3857 256.5 14.3857C256.5 14.3857 100.794 66.0464 0.5 227.215L47.2249 175.817C47.2249 175.817 127.644 67.0336 253.275 19.7163Z" fill="url(#paint0_linear_1_1035)"/>
<path d="M80.7879 173.514C80.7879 173.514 80.064 162.721 66.1781 158.246C66.1781 158.246 72.6933 156.338 84.1442 160.616C95.5951 164.959 101.979 167.328 101.979 167.328C101.979 167.328 167.525 139.162 225.438 57.8207C225.438 57.8207 204.115 60.3214 192.204 51.7662C192.204 51.7662 224.516 55.7147 231.953 49.7919C237.415 45.4484 248.011 28.5353 253.275 19.7168C127.644 67.034 47.2249 175.818 47.2249 175.818C47.2249 175.818 66.9679 180.293 80.7879 173.514Z" fill="url(#paint1_linear_1_1035)"/>
<defs>
<linearGradient id="paint0_linear_1_1035" x1="373.58" y1="93.6944" x2="42.1792" y2="376.163" gradientUnits="userSpaceOnUse">
<stop offset="0.001" stop-color="#6441A5"/>
<stop offset="1" stop-color="#2A0845"/>
</linearGradient>
<linearGradient id="paint1_linear_1_1035" x1="49.6369" y1="153.18" x2="100.571" y2="-14.9545" gradientUnits="userSpaceOnUse">
<stop offset="0.001" stop-color="#6441A5"/>
<stop offset="1" stop-color="#2A0845"/>
</linearGradient>
</defs>
</svg>
