<svg width="216" height="257" viewBox="0 0 216 257" fill="none" xmlns="http://www.w3.org/2000/svg">
<path d="M83.1014 0.701172H20.9745C15.0261 0.701172 10.1793 5.54795 10.1793 11.7166V166.593C10.1793 172.542 15.0261 177.609 20.9745 177.609C27.1431 177.609 31.9899 172.542 31.9899 166.593V22.5117H72.086V234.669L12.823 234.448C6.87471 234.448 2.02793 239.295 1.80762 245.464C1.80762 251.412 6.87471 256.259 12.823 256.259L83.1014 256.479C85.9654 256.479 88.8294 255.378 90.8122 253.395C93.0153 251.192 94.1168 248.548 94.1168 245.684V11.7166C94.1168 5.54795 89.2701 0.701172 83.1014 0.701172Z" fill="url(#paint0_linear_10_2795)"/>
<path d="M215.505 243.042C205.151 192.372 159.987 155.58 108.215 155.58C56.4426 155.58 11.4997 192.372 1.14524 243.042C-0.176607 248.991 3.56861 254.719 9.51693 255.82C10.2513 256.114 10.9857 256.187 11.72 256.041C17.0074 256.041 21.4136 252.516 22.5152 247.449C30.8869 206.912 66.7971 177.611 108.215 177.611C145.006 177.611 177.612 200.743 190.17 234.45L116.807 234.671C110.859 234.671 105.792 239.738 106.012 245.686C106.012 251.855 110.859 256.702 116.807 256.702L203.609 256.261C204.637 256.261 205.591 256.187 206.473 256.041C206.619 256.041 206.766 255.967 206.913 255.82C212.862 254.719 216.607 248.991 215.505 243.042Z" fill="url(#paint1_linear_10_2795)"/>
<path style="mix-blend-mode:multiply" d="M72.084 234.671H94.1148V178.713C86.404 180.035 79.1338 182.238 72.084 185.322V234.671Z" fill="url(#paint2_linear_10_2795)"/>
<defs>
<linearGradient id="paint0_linear_10_2795" x1="201.804" y1="-200.711" x2="425.577" y2="23.0626" gradientUnits="userSpaceOnUse">
<stop stop-color="#7FFFA0"/>
<stop offset="0.999" stop-color="#2894FF"/>
</linearGradient>
<linearGradient id="paint1_linear_10_2795" x1="-63.4117" y1="-39.8136" x2="205.737" y2="229.335" gradientUnits="userSpaceOnUse">
<stop stop-color="#7FFFA0"/>
<stop offset="0.999" stop-color="#2894FF"/>
</linearGradient>
<linearGradient id="paint2_linear_10_2795" x1="11.8539" y1="236.68" x2="11.8539" y2="177.896" gradientUnits="userSpaceOnUse">
<stop stop-color="white"/>
<stop offset="0.999" stop-color="#272525"/>
</linearGradient>
</defs>
</svg>
