<svg width="256" height="241" viewBox="0 0 256 241" fill="none" xmlns="http://www.w3.org/2000/svg">
<path d="M141.858 238.404C96.4888 238.404 62.4102 202.478 62.4102 154.645C62.4102 149.102 66.9266 144.585 72.4695 144.585C78.2177 144.585 82.7342 149.102 82.7342 154.645C82.7342 190.776 108.19 218.08 141.858 218.08C166.288 218.08 195.029 201.451 195.029 154.645V84.4346C195.029 78.6864 199.546 74.1699 205.294 74.1699C210.837 74.1699 215.559 78.6864 215.559 84.4346V154.645C215.559 203.915 185.175 238.404 141.858 238.404Z" fill="url(#paint0_linear_10_2781)"/>
<path d="M245.735 0.46875H156.844C151.301 0.46875 146.579 4.98518 146.579 10.5281L145.963 156.081C145.963 192.007 118.864 220.132 84.5806 220.132C52.5549 220.132 26.0722 196.729 21.1452 165.935L72.6736 164.908C78.4218 164.703 82.9382 160.187 82.733 154.438C82.733 148.895 78.0112 144.584 72.4683 144.584C72.4683 144.584 72.3999 144.584 72.263 144.584L10.0593 145.816C4.51643 145.816 0 150.538 0 156.081C0 202.682 37.9791 240.661 84.5806 240.661C130.361 240.661 166.287 203.503 166.287 156.081L166.903 20.7927H245.735C251.278 20.7927 256 16.2763 256 10.7334C256 4.98519 251.278 0.46875 245.735 0.46875Z" fill="url(#paint1_linear_10_2781)"/>
<path d="M156.843 70.8829C116.606 70.8829 80.0639 50.3536 59.1241 15.8645C56.25 11.1427 57.8923 4.77868 62.6141 1.90458C67.5411 -1.17481 73.6999 0.467546 76.574 5.18928C93.8186 33.5197 123.791 50.3537 156.843 50.3537C189.896 50.3537 219.868 33.5196 236.908 5.39452C239.987 0.467496 246.146 -0.969515 251.073 1.90458C255.794 4.77868 257.437 11.1427 254.357 15.8645C233.418 50.3536 197.081 70.8829 156.843 70.8829Z" fill="url(#paint2_linear_10_2781)"/>
<path style="mix-blend-mode:multiply" d="M84.581 220.13C71.8528 220.13 59.9458 216.434 50.0918 210.07V233.268C60.5617 237.99 72.2634 240.659 84.581 240.659C95.8721 240.659 106.547 238.401 116.196 234.295C106.753 231.01 98.1303 226.288 90.7398 219.924C88.6868 220.061 86.6339 220.13 84.581 220.13Z" fill="url(#paint3_linear_10_2781)"/>
<path style="mix-blend-mode:multiply" d="M166.696 70.4729C163.412 70.7466 160.127 70.8835 156.842 70.8835C153.284 70.8835 149.794 70.6782 146.372 70.2676L145.962 127.544H166.491L166.696 70.4729Z" fill="url(#paint4_linear_10_2781)"/>
<defs>
<linearGradient id="paint0_linear_10_2781" x1="6.73683" y1="-146.048" x2="338.703" y2="185.919" gradientUnits="userSpaceOnUse">
<stop stop-color="#70E8BC"/>
<stop offset="0.999" stop-color="#FF616A"/>
</linearGradient>
<linearGradient id="paint1_linear_10_2781" x1="-12.0876" y1="-252.294" x2="482.654" y2="242.447" gradientUnits="userSpaceOnUse">
<stop stop-color="#70E8BC"/>
<stop offset="0.999" stop-color="#FF616A"/>
</linearGradient>
<linearGradient id="paint2_linear_10_2781" x1="99.0268" y1="-69.9602" x2="361.871" y2="192.884" gradientUnits="userSpaceOnUse">
<stop stop-color="#70E8BC"/>
<stop offset="0.999" stop-color="#FF616A"/>
</linearGradient>
<linearGradient id="paint3_linear_10_2781" x1="50.0364" y1="210.031" x2="116.102" y2="210.031" gradientUnits="userSpaceOnUse">
<stop stop-color="white"/>
<stop offset="0.999" stop-color="#272525"/>
</linearGradient>
<linearGradient id="paint4_linear_10_2781" x1="77.3695" y1="128.846" x2="77.3695" y2="67.3606" gradientUnits="userSpaceOnUse">
<stop stop-color="white"/>
<stop offset="0.999" stop-color="#272525"/>
</linearGradient>
</defs>
</svg>
