<svg width="177" height="257" viewBox="0 0 177 257" fill="none" xmlns="http://www.w3.org/2000/svg">
<path d="M165.874 145.07H142.281C106.339 145.07 77.2336 115.744 77.2336 80.0227V41.6558C77.2336 35.7023 72.3826 30.6309 66.2086 30.6309C60.2551 30.6309 55.1836 35.7023 55.1836 41.6558V80.0227C55.1836 127.871 94.212 166.9 142.281 166.9H165.874C172.048 166.9 176.899 162.049 176.899 155.875C176.899 149.921 172.048 145.07 165.874 145.07Z" fill="url(#paint0_linear_10_2749)"/>
<path d="M165.874 89.5039H142.281C94.212 89.5039 55.1836 128.532 55.1836 176.381V245.397C55.1836 251.351 60.2551 256.202 66.2086 256.202H157.936C164.11 256.202 168.961 251.351 168.961 245.397C168.961 239.223 164.11 234.372 157.936 234.372H77.2336V176.381C77.2336 140.66 106.339 111.333 142.281 111.333H154.849V155.874C154.849 162.048 159.921 166.899 165.874 166.899C172.048 166.899 176.899 162.048 176.899 155.874V100.308C176.899 94.3549 172.048 89.5039 165.874 89.5039Z" fill="url(#paint1_linear_10_2749)"/>
<path d="M161.024 0.201172H11.525C5.35099 0.201172 0.5 5.05216 0.5 11.2262V245.397C0.5 251.35 5.35099 256.201 11.525 256.201C17.4785 256.201 22.3295 251.35 22.3295 245.397V22.0306H161.024C167.198 22.0306 172.049 17.1796 172.049 11.2262C172.049 5.05216 167.198 0.201172 161.024 0.201172Z" fill="url(#paint2_linear_10_2749)"/>
<path style="mix-blend-mode:multiply" d="M77.2336 176.381C77.2336 165.136 80.1001 154.772 85.1716 145.511C79.2181 140.44 74.1466 134.486 69.9571 128.092C60.6961 141.983 55.1836 158.741 55.1836 176.381V192.257H77.2336V176.381Z" fill="url(#paint3_linear_10_2749)"/>
<defs>
<linearGradient id="paint0_linear_10_2749" x1="68.9825" y1="-92.7386" x2="298.353" y2="136.632" gradientUnits="userSpaceOnUse">
<stop stop-color="#F05B80"/>
<stop offset="0.999" stop-color="#4158F0"/>
</linearGradient>
<linearGradient id="paint1_linear_10_2749" x1="8.6692" y1="-132.418" x2="290.476" y2="149.389" gradientUnits="userSpaceOnUse">
<stop stop-color="#F05B80"/>
<stop offset="0.999" stop-color="#4158F0"/>
</linearGradient>
<linearGradient id="paint2_linear_10_2749" x1="123.669" y1="-153.582" x2="475.116" y2="197.866" gradientUnits="userSpaceOnUse">
<stop stop-color="#F05B80"/>
<stop offset="0.999" stop-color="#4158F0"/>
</linearGradient>
<linearGradient id="paint3_linear_10_2749" x1="-10.5166" y1="168.937" x2="6.69129" y2="110.203" gradientUnits="userSpaceOnUse">
<stop stop-color="white"/>
<stop offset="0.999" stop-color="#272525"/>
</linearGradient>
</defs>
</svg>
