<svg width="233" height="257" viewBox="0 0 233 257" fill="none" xmlns="http://www.w3.org/2000/svg">
<path d="M134.637 54.0986H69.1029C63.1851 54.0986 58.144 59.1397 58.144 65.0575C58.144 71.1945 63.1851 76.0165 69.1029 76.0165H134.637C181.542 76.0165 210.693 105.825 210.693 153.825C210.693 176.181 200.391 196.784 181.542 211.907C164.007 226.373 140.555 234.483 117.322 234.483H22.1988V12.6738C22.1988 6.53678 17.3768 1.71484 11.2398 1.71484C5.32199 1.71484 0.5 6.53678 0.5 12.6738V245.442C0.5 251.36 5.32199 256.401 11.2398 256.401H117.322C145.377 256.401 173.87 246.318 195.35 229.003C219.46 209.496 232.61 182.757 232.61 153.825C232.61 94.2083 193.158 54.0986 134.637 54.0986Z" fill="url(#paint0_linear_10_2744)"/>
<path d="M98.9109 0.400391H69.1025C63.1847 0.400391 58.1436 5.4415 58.1436 11.3593V65.0581C58.1436 71.1951 63.1847 76.0171 69.1025 76.0171C75.2395 76.0171 80.0614 71.1951 80.0614 65.0581V22.3183H98.9109C131.349 22.3183 156.993 47.0855 156.993 78.6472V132.127C156.993 164.565 139.678 182.319 108.116 182.319H69.1025C63.1847 182.319 58.1436 187.36 58.1436 193.278C58.1436 199.415 63.1847 204.237 69.1025 204.237H108.116C151.733 204.237 178.692 176.62 178.692 132.127V78.6472C178.692 34.8115 143.623 0.400391 98.9109 0.400391Z" fill="url(#paint1_linear_10_2744)"/>
<path style="mix-blend-mode:multiply" d="M178.692 132.127V87.6332C172.263 83.5419 165.03 80.4734 156.994 78.4277C156.994 78.5739 156.994 78.6469 156.994 78.6469V132.127C156.994 134.172 156.921 136.145 156.774 138.044H178.473C178.619 136.145 178.692 134.172 178.692 132.127Z" fill="url(#paint2_linear_10_2744)"/>
<defs>
<linearGradient id="paint0_linear_10_2744" x1="127.896" y1="-126.432" x2="388.788" y2="134.461" gradientUnits="userSpaceOnUse">
<stop stop-color="#D4FF7A"/>
<stop offset="0.999" stop-color="#E25F9D"/>
</linearGradient>
<linearGradient id="paint1_linear_10_2744" x1="141.377" y1="-148.948" x2="400.42" y2="110.095" gradientUnits="userSpaceOnUse">
<stop stop-color="#D4FF7A"/>
<stop offset="0.999" stop-color="#E25F9D"/>
</linearGradient>
<linearGradient id="paint2_linear_10_2744" x1="87.2268" y1="142.956" x2="87.2268" y2="78.7039" gradientUnits="userSpaceOnUse">
<stop stop-color="white"/>
<stop offset="0.999" stop-color="#272525"/>
</linearGradient>
</defs>
</svg>
