<svg width="239" height="257" viewBox="0 0 239 257" fill="none" xmlns="http://www.w3.org/2000/svg">
<path d="M233.503 153.033C231.551 150.43 228.514 148.911 225.259 148.911H159.958C154.1 148.911 149.327 153.901 149.327 159.759V201.63C149.327 207.488 154.1 212.261 159.958 212.261C166.032 212.261 170.805 207.488 170.805 201.63V170.606H210.941C204.649 188.179 194.669 202.281 180.134 213.779C162.561 227.664 139.564 234.606 112.012 234.606C89.6662 234.606 58.6423 229.833 39.1169 206.186C25.0152 189.047 21.978 168.654 21.978 154.769V90.986C21.978 54.1046 52.1339 24.1656 89.0152 24.1656C124.595 24.1656 151.28 52.8029 151.28 90.986C151.28 96.8436 156.269 101.833 162.127 101.833C168.202 101.833 172.975 96.8436 172.975 90.986C172.975 40.4368 136.744 2.4707 89.0152 2.4707C40.2017 2.4707 0.5 42.1724 0.5 90.986V154.769C0.5 179.935 8.09325 202.498 22.6288 219.854C47.361 250.01 84.8933 256.301 112.012 256.301C144.554 256.301 171.89 247.623 193.585 230.701C215.28 213.562 229.381 190.566 235.673 162.145C236.324 158.891 235.673 155.637 233.503 153.033Z" fill="url(#paint0_linear_10_2739)"/>
<path d="M149.326 0.300781C100.947 0.300781 62.9805 39.5686 62.9805 89.6838V204.667C62.9805 210.525 67.9703 215.297 73.8279 215.297C79.9025 215.297 84.6754 210.525 84.6754 204.667V89.6838C84.6754 51.5008 113.096 21.7787 149.326 21.7787C183.17 21.7787 211.374 46.7279 216.364 79.0533L161.909 80.1381C156.052 80.355 151.279 85.3448 151.279 91.2025C151.496 97.0601 156.486 101.833 162.343 101.833L228.296 100.314C234.153 100.314 238.709 95.5415 238.709 89.6838C238.709 40.2194 198.791 0.300781 149.326 0.300781Z" fill="url(#paint1_linear_10_2739)"/>
<path style="mix-blend-mode:multiply" d="M143.036 22.2109C133.49 23.0787 124.595 26.116 117.002 30.672C134.792 39.7838 147.375 57.7906 150.629 79.9194H172.324C169.721 56.272 159.09 35.8787 143.036 22.2109Z" fill="url(#paint2_linear_10_2739)"/>
<defs>
<linearGradient id="paint0_linear_10_2739" x1="113.973" y1="-138.533" x2="382.662" y2="130.156" gradientUnits="userSpaceOnUse">
<stop stop-color="#7FFFA0"/>
<stop offset="0.999" stop-color="#2894FF"/>
</linearGradient>
<linearGradient id="paint1_linear_10_2739" x1="101.211" y1="-181.188" x2="464.877" y2="182.477" gradientUnits="userSpaceOnUse">
<stop stop-color="#7FFFA0"/>
<stop offset="0.999" stop-color="#2894FF"/>
</linearGradient>
<linearGradient id="paint2_linear_10_2739" x1="128.097" y1="104.81" x2="90.2313" y2="35.9629" gradientUnits="userSpaceOnUse">
<stop stop-color="white"/>
<stop offset="0.999" stop-color="#272525"/>
</linearGradient>
</defs>
</svg>
