<svg width="242" height="257" viewBox="0 0 242 257" fill="none" xmlns="http://www.w3.org/2000/svg">
<path d="M181.429 161.985C168.207 161.985 155.952 158.223 145.632 151.665L127.357 183.593C126.067 185.958 123.594 187.355 120.907 187.355C118.219 187.355 115.747 185.958 114.349 183.593L96.182 151.665C85.7546 158.223 73.4996 161.985 60.3847 161.985C34.3698 161.985 11.7949 147.15 0.507446 125.543C0.614946 128.338 1.15245 131.133 2.22745 133.713L17.7074 190.365C19.8574 196.063 23.8348 200.793 28.9948 204.018L104.567 251.317C115.102 257.875 128.324 257.875 138.752 251.21L212.927 204.018C217.979 200.793 221.849 196.063 223.999 190.473L239.586 133.713C240.554 131.133 241.091 128.338 241.306 125.543C230.019 147.15 207.444 161.985 181.429 161.985Z" fill="#8498A0"/>
<path d="M120.907 64.4827C130.152 45.7778 147.997 31.9104 169.174 28.0404C155.199 19.2254 138.644 14.0654 120.907 14.0654C103.17 14.0654 86.6147 19.2254 72.6398 28.0404C93.8172 31.9104 111.555 45.7778 120.907 64.4827Z" fill="#8498A0"/>
<path d="M241.307 63.4077V14.4954C241.307 1.8105 225.934 -4.53197 216.904 4.3905L193.147 27.9329C214.109 31.6954 231.847 45.1328 241.307 63.4077Z" fill="#8498A0"/>
<path d="M48.5598 27.9329L24.8024 4.3905C15.7725 -4.53197 0.400024 1.8105 0.400024 14.4954V63.4077C9.96748 45.1328 27.5974 31.6954 48.5598 27.9329Z" fill="#8498A0"/>
<path fill-rule="evenodd" clip-rule="evenodd" d="M233.889 94.4755C233.889 95.3355 233.853 96.2313 233.781 97.163C233.71 98.9546 233.531 100.71 233.244 102.43C233.029 104.15 232.706 105.87 232.276 107.59C232.061 108.235 231.882 108.845 231.739 109.418C231.309 110.636 230.879 111.855 230.449 113.073C230.234 113.718 230.019 114.327 229.804 114.9C229.446 115.689 229.087 116.441 228.729 117.158C227.439 119.881 225.934 122.425 224.214 124.79C223.784 125.435 223.318 126.044 222.817 126.618C222.387 127.191 221.921 127.764 221.419 128.338C220.989 128.911 220.523 129.449 220.022 129.95C219.52 130.524 219.018 131.061 218.517 131.563C217.334 132.745 216.044 133.928 214.754 134.895C213.464 135.97 212.138 137.009 210.777 138.013C209.702 138.658 208.662 139.267 207.659 139.84C207.516 139.912 207.408 139.984 207.337 140.055C206.262 140.629 205.187 141.202 204.112 141.775C203.395 142.134 202.607 142.492 201.747 142.85C200.6 143.28 199.417 143.71 198.199 144.14C197.554 144.355 196.945 144.57 196.372 144.785C195.727 144.929 195.082 145.108 194.437 145.323C193.433 145.538 192.394 145.753 191.319 145.968H191.212C190.208 146.183 189.205 146.362 188.202 146.505C188.13 146.505 188.058 146.505 187.987 146.505C186.912 146.649 185.837 146.756 184.762 146.828C183.615 146.899 182.468 146.935 181.322 146.935C180.247 146.935 179.136 146.899 177.989 146.828C176.914 146.756 175.839 146.649 174.764 146.505C174.693 146.505 174.621 146.505 174.549 146.505C173.546 146.362 172.543 146.183 171.539 145.968C171.539 145.968 171.432 145.968 171.324 145.968C170.321 145.753 169.282 145.538 168.207 145.323C167.633 145.108 167.024 144.929 166.379 144.785C165.734 144.57 165.125 144.355 164.552 144.14C163.333 143.71 162.151 143.28 161.004 142.85C160.216 142.492 159.428 142.134 158.639 141.775C157.493 141.202 156.382 140.593 155.307 139.948C154.16 139.374 153.085 138.729 152.082 138.013C152.082 138.013 152.082 137.905 151.974 138.013C150.613 137.009 149.287 135.97 147.997 134.895C146.707 133.928 145.417 132.745 144.234 131.563C143.733 131.061 143.231 130.524 142.729 129.95C142.228 129.449 141.762 128.911 141.332 128.338C140.83 127.764 140.364 127.191 139.934 126.618C139.504 126.044 139.039 125.435 138.537 124.79C136.817 122.425 135.312 119.881 134.022 117.158C132.624 114.148 131.442 110.923 130.582 107.59C130.259 106.515 130.044 105.548 129.829 104.473C129.829 104.401 129.829 104.33 129.829 104.258C129.614 103.255 129.435 102.215 129.292 101.14C129.149 100.065 129.041 98.9546 128.969 97.808C128.898 96.733 128.862 95.6221 128.862 94.4755C128.862 93.3288 128.898 92.1822 128.969 91.0355C129.041 89.9605 129.149 88.8855 129.292 87.8105C129.435 86.7355 129.614 85.6605 129.829 84.5855C129.829 84.5139 129.829 84.478 129.829 84.478C130.044 83.403 130.295 82.3639 130.582 81.3605C131.155 78.7806 131.979 76.3439 133.054 74.0506C133.377 73.1906 133.699 72.4381 134.022 71.6856C135.312 69.0339 136.817 66.4898 138.537 64.0531C138.967 63.4798 139.397 62.9423 139.827 62.4406C139.899 62.2973 139.97 62.1898 140.042 62.1181C140.472 61.6164 140.902 61.1148 141.332 60.6131C142.264 59.3948 143.231 58.284 144.234 57.2806C145.417 56.0981 146.707 55.0232 147.997 53.9482C149.287 52.8732 150.613 51.8698 151.974 50.9382C152.046 50.9382 152.082 50.9382 152.082 50.9382C153.085 50.2215 154.16 49.5407 155.307 48.8957C156.382 48.2507 157.493 47.6773 158.639 47.1757C159.428 46.7457 160.216 46.3873 161.004 46.1007C162.151 45.599 163.333 45.1332 164.552 44.7032C165.125 44.4882 165.734 44.309 166.379 44.1657C167.024 43.9507 167.633 43.7715 168.207 43.6282C169.282 43.3415 170.321 43.0907 171.324 42.8757C171.432 42.8757 171.539 42.8757 171.539 42.8757C172.543 42.6607 173.546 42.5174 174.549 42.4457C174.621 42.374 174.693 42.3382 174.764 42.3382C175.839 42.1949 176.914 42.0874 177.989 42.0157C179.136 41.944 180.247 41.9082 181.322 41.9082C182.468 41.9082 183.615 41.944 184.762 42.0157C185.837 42.0874 186.912 42.1949 187.987 42.3382C188.058 42.3382 188.13 42.374 188.202 42.4457C189.205 42.5174 190.208 42.6607 191.212 42.8757H191.319C192.394 43.0907 193.433 43.3415 194.437 43.6282C195.082 43.7715 195.727 43.9507 196.372 44.1657C196.945 44.309 197.554 44.4882 198.199 44.7032C199.417 45.1332 200.6 45.599 201.747 46.1007C202.607 46.3873 203.395 46.7457 204.112 47.1757C205.187 47.6773 206.262 48.2148 207.337 48.7882C207.408 48.8598 207.516 48.9315 207.659 49.0032C208.662 49.5765 209.702 50.2215 210.777 50.9382C212.138 51.8698 213.464 52.8732 214.754 53.9482C216.044 55.0232 217.334 56.0981 218.517 57.2806C219.52 58.284 220.487 59.3948 221.419 60.6131C221.849 61.1148 222.279 61.6164 222.709 62.1181C222.781 62.1898 222.888 62.2973 223.032 62.4406C223.39 62.9423 223.784 63.4798 224.214 64.0531C225.934 66.4898 227.439 69.0339 228.729 71.6856C229.087 72.4739 229.446 73.2622 229.804 74.0506C230.306 75.1972 230.736 76.3797 231.094 77.5981C231.309 78.1714 231.524 78.7805 231.739 79.4255C231.882 80.0705 232.061 80.7156 232.276 81.3605C232.706 82.973 233.029 84.693 233.244 86.413C233.531 88.2047 233.71 89.9963 233.781 91.788C233.853 92.648 233.889 93.5438 233.889 94.4755ZM190.567 87.273C190.567 83.0805 187.234 79.7481 183.149 79.7481C178.957 79.7481 175.624 83.0805 175.624 87.273V102.215C175.624 106.3 178.957 109.74 183.149 109.74C187.234 109.74 190.567 106.3 190.567 102.215V87.273Z" fill="#F1F1F1"/>
<path fill-rule="evenodd" clip-rule="evenodd" d="M112.845 94.4755C112.845 98.9905 112.307 103.362 111.232 107.59C110.802 109.239 110.3 110.887 109.727 112.535C109.082 114.148 108.437 115.653 107.685 117.158C106.395 119.881 104.89 122.425 103.17 124.79C102.74 125.435 102.31 126.08 101.88 126.618C100.518 128.338 99.0488 129.986 97.4722 131.563C96.2897 132.745 95.1072 133.928 93.8172 134.895C90.5205 137.619 86.973 139.912 83.1747 141.775C82.3864 142.134 81.5981 142.492 80.8098 142.85C80.2364 143.065 79.6272 143.28 78.9823 143.495C77.8356 143.925 76.6531 144.355 75.4348 144.785C74.7898 144.929 74.1448 145.108 73.4998 145.323C69.2715 146.398 64.8998 146.935 60.3848 146.935C55.8699 146.935 51.4624 146.398 47.2699 145.323C46.6249 145.108 46.0157 144.929 45.4424 144.785C44.1524 144.355 42.9699 143.925 41.6799 143.495C41.1066 143.28 40.5333 143.065 39.9599 142.85C39.1716 142.492 38.3833 142.134 37.5949 141.775C35.3016 140.7 33.1158 139.446 31.0374 138.013C29.6041 137.009 28.2425 135.97 26.9525 134.895C24.3725 132.745 22.0075 130.38 19.8575 127.8C18.8542 126.51 17.8509 125.185 16.8475 123.823V123.715C16.1309 122.712 15.45 121.673 14.805 120.598C14.2317 119.451 13.6584 118.305 13.085 117.158C12.7267 116.441 12.3684 115.689 12.0101 114.9C11.7951 114.327 11.5442 113.718 11.2575 113.073C10.8275 111.855 10.4334 110.636 10.075 109.418C9.86004 108.845 9.68087 108.235 9.53754 107.59C8.46255 103.362 7.92505 98.9905 7.92505 94.4755C7.92505 89.9605 8.46255 85.553 9.53754 81.3605C9.68087 80.7156 9.86004 80.0705 10.075 79.4255C10.3975 78.243 10.8275 76.9531 11.2575 75.7706C11.5442 75.1972 11.7951 74.6239 12.0101 74.0506C12.3684 73.2622 12.7267 72.4739 13.085 71.6856C14.16 69.3923 15.4142 67.2064 16.8475 65.1281C17.8509 63.6948 18.8542 62.3331 19.8575 61.0431C22.0075 58.4631 24.3725 56.0982 26.9525 53.9482C28.2425 52.8732 29.6041 51.8698 31.0374 50.9382C33.1158 49.5048 35.3016 48.2507 37.5949 47.1757C38.3833 46.7457 39.1716 46.3873 39.9599 46.1007C40.5333 45.814 41.1066 45.5632 41.6799 45.3482C42.8982 44.9182 44.1524 44.524 45.4424 44.1657C46.0157 43.9507 46.6249 43.7715 47.2699 43.6282C51.4624 42.5532 55.8699 41.9082 60.3848 41.9082C64.8998 41.9082 69.2715 42.4815 73.4998 43.6282C74.1448 43.7715 74.7898 43.9507 75.4348 44.1657C76.6531 44.524 77.8356 44.9182 78.9823 45.3482C79.6272 45.5632 80.2364 45.814 80.8098 46.1007C81.5981 46.3873 82.3864 46.7457 83.1747 47.1757C86.973 48.9673 90.5205 51.2248 93.8172 53.9482C95.1072 55.0232 96.2897 56.0981 97.4722 57.2806C99.0488 58.8573 100.518 60.5415 101.88 62.3331C102.31 62.8706 102.74 63.4081 103.17 64.0531C104.89 66.4898 106.395 69.0339 107.685 71.6856C108.115 72.4381 108.437 73.1906 108.76 74.0506C109.405 75.5556 110.05 77.168 110.48 78.7805C110.766 79.6405 111.017 80.5006 111.232 81.3605C112.307 85.553 112.845 89.9605 112.845 94.4755ZM66.0823 87.273C66.0823 83.0805 62.7498 79.7481 58.6648 79.7481C54.4724 79.7481 51.1399 83.0805 51.1399 87.273V102.215C51.1399 106.408 54.4724 109.74 58.6648 109.74C62.7498 109.74 66.0823 106.408 66.0823 102.215V87.273Z" fill="#F1F1F1"/>
<path d="M108.007 142.204L120.907 164.779L133.699 142.204C128.54 137.044 124.132 131.024 120.907 124.359C117.575 131.024 113.275 137.044 108.007 142.204Z" fill="#FD6818"/>
<path fill-rule="evenodd" clip-rule="evenodd" d="M112.845 94.4755C112.845 98.9905 112.307 103.362 111.232 107.59C110.802 109.239 110.3 110.887 109.727 112.535C109.082 114.148 108.437 115.653 107.685 117.158C106.395 119.953 104.89 122.425 103.17 124.79C102.74 125.435 102.31 126.08 101.88 126.618C100.518 128.338 99.0488 129.986 97.4722 131.563C96.2897 132.745 95.1072 133.928 93.8172 134.895C90.4847 137.583 86.9372 139.84 83.1747 141.775C82.3864 142.134 81.5981 142.492 80.8098 142.85C80.2364 143.065 79.6272 143.28 78.9823 143.495C77.8356 143.925 76.6531 144.355 75.4348 144.785C74.7898 144.929 74.1448 145.108 73.4998 145.323C69.2715 146.398 64.8998 146.935 60.3848 146.935C55.8699 146.935 51.4624 146.398 47.2699 145.323C46.6249 145.108 46.0157 144.929 45.4424 144.785C44.1524 144.355 42.9699 143.925 41.6799 143.495C41.1066 143.28 40.5333 143.065 39.9599 142.85C39.1716 142.492 38.3833 142.134 37.5949 141.775C35.3016 140.629 33.1158 139.374 31.0374 138.013C29.6041 137.009 28.2425 135.97 26.9525 134.895C24.3725 132.745 22.0075 130.38 19.8575 127.8C18.8542 126.51 17.8509 125.185 16.8475 123.823V123.715C16.1309 122.712 15.45 121.673 14.805 120.598C14.2317 119.451 13.6584 118.305 13.085 117.158C12.7267 116.441 12.3684 115.689 12.0101 114.9C11.7951 114.327 11.5442 113.718 11.2575 113.073C10.8275 111.855 10.4334 110.636 10.075 109.418C9.86004 108.845 9.68087 108.235 9.53754 107.59C8.46255 103.362 7.92505 98.9905 7.92505 94.4755C7.92505 89.9605 8.46255 85.553 9.53754 81.3605C9.68087 80.7156 9.86004 80.0705 10.075 79.4255C10.3975 78.243 10.8275 76.9531 11.2575 75.7706C11.5442 75.1972 11.7951 74.6239 12.0101 74.0506C12.3684 73.2622 12.7267 72.4739 13.085 71.6856C14.16 69.3923 15.4142 67.2064 16.8475 65.1281C17.8509 63.6948 18.8542 62.3331 19.8575 61.0431C22.0075 58.4631 24.3725 56.0982 26.9525 53.9482C28.2425 52.8732 29.6041 51.8698 31.0374 50.9382C33.1158 49.5048 35.3016 48.2507 37.5949 47.1757C38.3833 46.7457 39.1716 46.3873 39.9599 46.1007C40.5333 45.814 41.1066 45.5632 41.6799 45.3482C42.9699 44.9182 44.1524 44.4882 45.4424 44.1657C46.0157 43.9507 46.6249 43.7715 47.2699 43.6282C51.4624 42.5532 55.8699 41.9082 60.3848 41.9082C64.8998 41.9082 69.2715 42.4815 73.4998 43.6282C74.1448 43.7715 74.7898 43.9507 75.4348 44.1657C76.6531 44.524 77.8356 44.9182 78.9823 45.3482C79.6272 45.5632 80.2364 45.814 80.8098 46.1007C81.5981 46.3873 82.3864 46.7457 83.1747 47.1757C86.9372 49.0032 90.4847 51.2607 93.8172 53.9482C95.1072 55.0232 96.2897 56.0981 97.4722 57.2806C99.0488 58.8573 100.518 60.5415 101.88 62.3331C102.31 62.8706 102.74 63.4081 103.17 64.0531C104.89 66.4181 106.395 68.9981 107.685 71.6856C108.115 72.4381 108.437 73.1906 108.76 74.0506C109.405 75.5556 110.05 77.168 110.48 78.7805C110.766 79.6405 111.017 80.5006 111.232 81.3605C112.307 85.553 112.845 89.9605 112.845 94.4755ZM66.0823 87.273C66.0823 83.0805 62.7498 79.7481 58.6648 79.7481C54.4724 79.7481 51.1399 83.0805 51.1399 87.273V102.215C51.1399 106.408 54.4724 109.74 58.6648 109.74C62.7498 109.74 66.0823 106.408 66.0823 102.215V87.273Z" fill="#F1F1F1"/>
<path fill-rule="evenodd" clip-rule="evenodd" d="M233.889 94.4755C233.889 95.3355 233.853 96.2313 233.781 97.163C233.71 98.9546 233.531 100.71 233.244 102.43C233.029 104.222 232.706 105.942 232.276 107.59C232.061 108.235 231.882 108.845 231.739 109.418C231.309 110.636 230.879 111.855 230.449 113.073C230.234 113.718 230.019 114.327 229.804 114.9C229.446 115.689 229.087 116.441 228.729 117.158C227.439 119.953 225.826 122.425 224.214 124.79C223.784 125.435 223.318 126.044 222.817 126.618C222.387 127.191 221.921 127.764 221.419 128.338C220.989 128.911 220.523 129.449 220.022 129.95C219.52 130.524 219.018 131.061 218.517 131.563C217.334 132.745 216.044 133.928 214.754 134.895C213.464 135.97 212.138 137.009 210.777 138.013C209.702 138.658 208.662 139.267 207.659 139.84C207.516 139.912 207.408 139.984 207.337 140.055C206.262 140.629 205.187 141.202 204.112 141.775C203.395 142.134 202.607 142.492 201.747 142.85C200.6 143.28 199.417 143.71 198.199 144.14C197.554 144.355 196.945 144.57 196.372 144.785C195.727 144.929 195.082 145.108 194.437 145.323C193.433 145.538 192.394 145.753 191.319 145.968H191.212C190.208 146.183 189.205 146.362 188.202 146.505C188.13 146.505 188.058 146.505 187.987 146.505C186.912 146.649 185.837 146.756 184.762 146.828C183.615 146.899 182.468 146.935 181.322 146.935C180.247 146.935 179.136 146.899 177.989 146.828C176.914 146.756 175.839 146.649 174.764 146.505C174.693 146.505 174.621 146.505 174.549 146.505C173.546 146.362 172.543 146.183 171.539 145.968C171.539 145.968 171.432 145.968 171.324 145.968C170.321 145.753 169.282 145.538 168.207 145.323C167.633 145.108 167.024 144.929 166.379 144.785C165.734 144.57 165.125 144.355 164.552 144.14C163.333 143.71 162.151 143.28 161.004 142.85C160.216 142.492 159.428 142.134 158.639 141.775C157.493 141.202 156.382 140.593 155.307 139.948C154.16 139.374 153.085 138.729 152.082 138.013C152.082 138.013 152.082 137.905 151.974 138.013C150.613 137.009 149.287 135.97 147.997 134.895C146.707 133.928 145.417 132.745 144.234 131.563C143.733 131.061 143.231 130.524 142.729 129.95C142.228 129.449 141.762 128.911 141.332 128.338C140.83 127.764 140.364 127.191 139.934 126.618C139.504 126.044 139.039 125.435 138.537 124.79C136.817 122.425 135.419 119.953 134.022 117.158C132.589 114.148 131.442 110.959 130.582 107.59C130.259 106.515 130.044 105.548 129.829 104.473C129.829 104.401 129.829 104.33 129.829 104.258C129.614 103.255 129.435 102.215 129.292 101.14C129.149 100.065 129.041 98.9546 128.969 97.808C128.898 96.733 128.862 95.6221 128.862 94.4755C128.862 93.3288 128.898 92.1822 128.969 91.0355C129.041 89.9605 129.149 88.8855 129.292 87.8105C129.435 86.7355 129.614 85.6605 129.829 84.5855C129.829 84.5139 129.829 84.478 129.829 84.478C130.044 83.403 130.295 82.3639 130.582 81.3605C131.227 78.7806 132.051 76.3439 133.054 74.0506C133.377 73.1906 133.699 72.4381 134.022 71.6856C135.419 68.9981 136.817 66.4181 138.537 64.0531C138.967 63.4798 139.397 62.9423 139.827 62.4406C139.899 62.2973 139.97 62.1898 140.042 62.1181C140.472 61.6164 140.902 61.1148 141.332 60.6131C142.264 59.4665 143.231 58.3556 144.234 57.2806C145.417 56.0981 146.707 55.0232 147.997 53.9482C149.287 52.8732 150.613 51.8698 151.974 50.9382C152.046 50.9382 152.082 50.9382 152.082 50.9382C153.085 50.2215 154.16 49.5407 155.307 48.8957C156.382 48.2507 157.493 47.6773 158.639 47.1757C159.428 46.7457 160.216 46.3873 161.004 46.1007C162.151 45.599 163.333 45.1332 164.552 44.7032C165.125 44.4882 165.734 44.309 166.379 44.1657C167.024 43.9507 167.633 43.7715 168.207 43.6282C169.282 43.3415 170.321 43.0907 171.324 42.8757C171.432 42.8757 171.539 42.8757 171.539 42.8757C172.543 42.6607 173.546 42.5174 174.549 42.4457C174.621 42.374 174.693 42.3382 174.764 42.3382C175.839 42.1949 176.914 42.0874 177.989 42.0157C179.136 41.944 180.247 41.9082 181.322 41.9082C182.468 41.9082 183.615 41.944 184.762 42.0157C185.837 42.0874 186.912 42.1949 187.987 42.3382C188.058 42.3382 188.13 42.374 188.202 42.4457C189.205 42.5174 190.208 42.6607 191.212 42.8757H191.319C192.394 43.0907 193.433 43.3415 194.437 43.6282C195.082 43.7715 195.727 43.9507 196.372 44.1657C196.945 44.309 197.554 44.4882 198.199 44.7032C199.417 45.1332 200.6 45.599 201.747 46.1007C202.607 46.3873 203.395 46.7457 204.112 47.1757C205.187 47.6773 206.262 48.2148 207.337 48.7882C207.408 48.8598 207.516 48.9315 207.659 49.0032C208.662 49.5765 209.702 50.2215 210.777 50.9382C212.138 51.8698 213.464 52.8732 214.754 53.9482C216.044 55.0232 217.334 56.0981 218.517 57.2806C219.52 58.3556 220.487 59.4665 221.419 60.6131C221.849 61.1148 222.279 61.6164 222.709 62.1181C222.781 62.1898 222.888 62.2973 223.032 62.4406C223.39 62.9423 223.784 63.4798 224.214 64.0531C225.826 66.4181 227.439 68.9981 228.729 71.6856C229.087 72.4739 229.446 73.2622 229.804 74.0506C230.306 75.1972 230.736 76.3797 231.094 77.5981C231.309 78.1714 231.524 78.7805 231.739 79.4255C231.882 80.0705 232.061 80.7156 232.276 81.3605C232.706 83.0089 233.029 84.693 233.244 86.413C233.531 88.2047 233.71 89.9963 233.781 91.788C233.853 92.648 233.889 93.5438 233.889 94.4755ZM190.567 87.273C190.567 83.0805 187.234 79.7481 183.149 79.7481C178.957 79.7481 175.624 83.0805 175.624 87.273V102.215C175.624 106.3 178.957 109.74 183.149 109.74C187.234 109.74 190.567 106.3 190.567 102.215V87.273Z" fill="#F1F1F1"/>
</svg>
