<svg width="207" height="257" viewBox="0 0 207 257" fill="none" xmlns="http://www.w3.org/2000/svg">
<path d="M96.9405 0.900391L10.9491 1.55848C5.02623 1.55848 0.200195 6.38453 0.200195 12.3074V245.274C0.200195 251.416 5.02624 256.242 11.1685 256.242C17.0914 256.242 21.9174 251.416 21.9174 245.274V23.2757L96.9405 22.6176C129.626 22.6176 156.169 49.1609 156.169 81.8464C156.169 114.532 129.626 141.075 96.9405 141.075H83.1205V96.3245C83.1205 90.1823 78.2944 85.3562 72.3716 85.3562C66.2293 85.3562 61.4033 90.1823 61.4033 96.3245V151.824C61.4033 157.966 66.2293 162.792 72.3716 162.792H96.9405C141.691 162.792 177.887 126.378 177.887 81.8464C177.887 37.3151 141.691 0.900391 96.9405 0.900391Z" fill="url(#paint0_linear_10_2734)"/>
<path d="M120.633 85.3555H72.3721C66.2298 85.3555 61.4038 90.1815 61.4038 96.3238C61.4038 102.247 66.2298 107.292 72.3721 107.292H120.633C155.731 107.292 184.468 135.81 184.468 171.128C184.468 206.445 155.731 234.963 120.633 234.963H79.8305V182.096C79.8305 176.173 75.0044 171.128 68.8622 171.128C62.9393 171.128 58.1133 176.173 58.1133 182.096V245.931C58.1133 251.854 62.9393 256.9 68.8622 256.9H120.633C167.796 256.9 206.405 218.291 206.405 171.128C206.405 123.745 167.796 85.3555 120.633 85.3555Z" fill="url(#paint1_linear_10_2734)"/>
<path style="mix-blend-mode:multiply" d="M165.163 125.5C159.898 120.235 153.975 116.067 147.175 112.996C138.839 126.597 125.019 136.468 109.005 139.759V161.915C132.477 158.405 152.878 144.585 165.163 125.5Z" fill="url(#paint2_linear_10_2734)"/>
<defs>
<linearGradient id="paint0_linear_10_2734" x1="132.368" y1="-139.187" x2="465.308" y2="193.754" gradientUnits="userSpaceOnUse">
<stop stop-color="#8F63F2"/>
<stop offset="0.999" stop-color="#30C7CF"/>
</linearGradient>
<linearGradient id="paint1_linear_10_2734" x1="52.1005" y1="-93.7436" x2="322.028" y2="176.184" gradientUnits="userSpaceOnUse">
<stop stop-color="#8F63F2"/>
<stop offset="0.999" stop-color="#30C7CF"/>
</linearGradient>
<linearGradient id="paint2_linear_10_2734" x1="93.1776" y1="131.837" x2="147.503" y2="86.8912" gradientUnits="userSpaceOnUse">
<stop stop-color="white"/>
<stop offset="0.999" stop-color="#272525"/>
</linearGradient>
</defs>
</svg>
