<svg width="251" height="257" viewBox="0 0 251 257" fill="none" xmlns="http://www.w3.org/2000/svg">
<path d="M229.581 73.1797L218.513 73.2392L23.5676 74.0128C23.5676 74.0128 4.52529 103.469 3.51367 141.375L12.4992 143.398C12.4992 143.398 6.13197 173.925 13.1538 193.027L25.2338 181.602C25.2338 181.602 23.2105 211.474 46.0017 236.289L54.0947 226.232C54.0947 226.232 62.4257 240.99 87.8947 255.688L91.5842 248.666C91.5842 248.666 95.6306 250.273 101.284 252.594C109.793 255.45 120.862 255.747 128.419 255.747C147.283 255.747 157.637 250.332 157.637 250.332L160.017 256.7C160.017 256.7 192.151 246.345 200.899 227.244L210.301 232.599C210.301 232.599 238.805 202.429 234.401 159.822L244.815 165.892C244.815 165.892 250.825 112.573 229.581 73.1797Z" fill="#231F20"/>
<path d="M62.9013 61.3965H0.299805L20.4727 8.43514C22.1984 3.79359 26.6615 0.699219 31.6601 0.699219H74.4456L62.9013 61.3965Z" fill="#ECC625"/>
<path d="M125.503 61.3965H62.9014L74.4457 0.699219H125.503V61.3965Z" fill="#24BECB"/>
<path d="M188.104 61.3965H125.503V0.699219H176.56L188.104 61.3965Z" fill="#ECC625"/>
<path d="M250.705 61.3965H188.104L176.56 0.699219H218.75C224.046 0.699219 228.866 4.03162 230.771 9.03021L250.705 61.3965Z" fill="#24BECB"/>
<path d="M172.93 126.14C172.93 153.811 150.436 176.304 122.765 176.304C95.154 176.304 72.8389 153.93 72.8389 126.378V77.582H172.93V126.14Z" fill="white"/>
<path d="M153.471 126.378C153.471 142.802 140.201 156.072 123.777 156.072C107.472 156.072 94.2617 142.862 94.2617 126.557V77.0469H153.471V126.378Z" fill="#231F20"/>
<path d="M49.6907 121.142H13.4509C6.19101 121.142 0.299805 115.25 0.299805 107.931V61.3965H62.9013V107.931C62.9013 115.25 57.0101 121.142 49.6907 121.142Z" fill="#FAD63B"/>
<path d="M112.292 121.142H76.1119C68.7926 121.142 62.9014 115.25 62.9014 107.931V61.3965H125.503V107.931C125.503 115.25 119.612 121.142 112.292 121.142Z" fill="#3AC3E3"/>
<path d="M174.953 121.142H138.714C131.394 121.142 125.503 115.25 125.503 107.931V61.3965H188.104V107.931C188.104 115.25 182.213 121.142 174.953 121.142Z" fill="#FAD63B"/>
<path d="M237.555 121.142H201.315C193.996 121.142 188.104 115.25 188.104 107.931V61.3965H250.706V107.931C250.706 115.25 244.815 121.142 237.555 121.142Z" fill="#3AC3E3"/>
<path d="M159.304 136.315C159.304 142.445 154.305 147.443 148.176 147.443C142.046 147.443 137.048 142.445 137.048 136.315C137.048 130.186 142.046 125.188 148.176 125.188C154.305 125.188 159.304 130.186 159.304 136.315Z" fill="white"/>
<path fill-rule="evenodd" clip-rule="evenodd" d="M160.315 205.939C152.698 218.733 138.773 227.362 122.826 227.362C105.211 227.362 87.5974 215.936 83.2533 201.893C80.2185 192.312 87.7759 182.553 97.8326 182.553C103.843 182.553 108.127 184.933 111.519 189.753C116.28 195.644 121.814 197.668 128.479 197.668C134.013 197.668 138.238 196.358 142.225 193.085C145.2 190.705 148.235 188.087 151.806 188.087C161.089 188.087 165.492 198.263 160.315 205.939ZM156.923 195.882C156.388 194.811 154.959 192.966 151.806 192.966C150.139 192.966 147.878 194.811 145.676 196.537L145.26 196.894C140.499 200.702 135.203 202.488 128.479 202.488C119.672 202.488 113.126 199.453 107.711 192.847L107.592 192.728L107.532 192.55C104.973 188.92 102.177 187.432 97.8326 187.432C94.5002 187.432 91.4058 188.98 89.3826 191.717C87.4783 194.276 86.9428 197.489 87.8354 200.405C89.4421 205.463 93.1315 210.283 98.4277 214.211L106.223 208.736C107.294 207.962 108.603 207.843 109.793 208.319C110.984 208.736 111.876 209.807 112.114 211.057L114.316 221.53C117.172 222.184 120.029 222.482 122.826 222.482C136.453 222.482 149.187 215.222 156.09 203.499L156.923 202.131C157.875 200.048 157.935 197.727 156.923 195.882Z" fill="white"/>
</svg>
