<svg width="245" height="257" viewBox="0 0 245 257" fill="none" xmlns="http://www.w3.org/2000/svg">
<path d="M156.068 63.1102C130.779 65.512 106.761 140.391 62.5405 163.278C46.2932 171.755 22.2755 171.19 9.84277 166.952C11.1143 170.907 15.7765 180.515 17.3306 183.34C28.068 201.707 43.4676 216.965 61.8341 227.561L53.7811 256.1L86.5582 238.298C98.0019 241.83 110.011 243.808 122.585 243.808C175.565 243.808 220.634 210.042 237.446 162.854C238.011 161.018 239.989 149.15 240.13 147.172C241.261 112.417 185.313 60.2846 156.068 63.1102Z" fill="url(#paint0_radial_10_2485)"/>
<path d="M161.719 158.616H142.646V139.543H161.719V158.616Z" fill="white"/>
<path d="M185.737 158.616H166.664V139.543H185.737V158.616Z" fill="white"/>
<path d="M161.719 182.352H142.646V163.42H161.719V182.352Z" fill="white"/>
<path d="M185.737 182.352H166.664V163.42H185.737V182.352Z" fill="white"/>
<path d="M203.114 30.8991C185.03 28.0735 161.436 38.1045 151.264 47.7116C199.158 54.0692 233.913 99.7029 244.368 125.133C244.792 125.981 244.509 123.014 244.509 122.025C244.509 88.8242 231.087 58.7315 209.613 36.6917C208.2 35.2789 204.527 32.1707 203.114 30.8991Z" fill="url(#paint1_linear_10_2485)"/>
<path d="M122.584 0.0996094C55.3342 0.0996094 0.799805 54.7752 0.799805 122.025C0.799805 127.959 1.22368 133.798 2.07137 139.544C25.524 66.3603 81.7537 42.3425 99.1312 38.3867C53.215 58.5898 17.8948 104.93 9.84181 156.074C56.0406 165.398 75.6786 138.837 96.1643 111.005C122.16 75.6848 144.765 24.1173 196.332 24.965C175.847 9.42413 150.416 0.0996094 122.584 0.0996094Z" fill="url(#paint2_linear_10_2485)"/>
<defs>
<radialGradient id="paint0_radial_10_2485" cx="0" cy="0" r="1" gradientUnits="userSpaceOnUse" gradientTransform="translate(139.137 60.4725) rotate(92.9107) scale(169.075)">
<stop offset="0.017" stop-color="#26A9E0"/>
<stop offset="1" stop-color="#213380"/>
</radialGradient>
<linearGradient id="paint1_linear_10_2485" x1="178.2" y1="147.793" x2="117.648" y2="99.9879" gradientUnits="userSpaceOnUse">
<stop stop-color="#37B34A"/>
<stop offset="1" stop-color="#005729"/>
</linearGradient>
<linearGradient id="paint2_linear_10_2485" x1="241.118" y1="45.698" x2="133.464" y2="198.808" gradientUnits="userSpaceOnUse">
<stop stop-color="#37B34A"/>
<stop offset="1" stop-color="#005729"/>
</linearGradient>
</defs>
</svg>
