<svg width="224" height="257" viewBox="0 0 224 257" fill="none" xmlns="http://www.w3.org/2000/svg">
<path d="M37.7218 194.797C45.0577 201.247 57.4529 206.559 76.5517 202.006C81.8639 200.741 84.773 194.923 82.6228 189.737C82.6228 189.653 82.6228 189.569 82.6228 189.484C80.7256 185.057 75.5398 182.654 71.1129 184.552C43.1605 196.188 18.876 154.069 42.9075 135.73C46.702 132.82 47.3344 127.129 44.2988 123.334C44.2988 123.25 44.2567 123.166 44.1723 123.081C40.7573 118.655 34.1803 118.275 30.3859 122.322C17.7377 135.856 15.208 148.631 16.9788 157.737C23.3029 189.105 -3.25828 185.563 0.789132 192.646C4.71007 199.35 15.9669 175.318 37.7218 194.797ZM41.0103 159.002C41.5162 165.073 45.0577 171.018 49.9905 174.559C58.9707 181.01 71.4924 178.86 77.8165 169.753C87.5556 155.84 75.9193 135.856 58.9707 137.247C48.0933 138.133 39.872 147.872 41.0103 159.002Z" fill="#EC297B"/>
<path d="M17.7373 97.6594C15.7136 107.272 17.3579 120.553 30.8914 134.845C34.6859 138.892 41.2629 138.513 44.5515 134.086C44.6358 134.002 44.6779 133.917 44.6779 133.833C47.587 130.039 47.0811 124.347 43.2866 121.438C19.1286 103.098 43.5396 60.8532 71.3656 72.616C75.9189 74.3867 81.1047 72.1101 83.0019 67.5567C83.0019 67.4724 83.0019 67.3881 83.0019 67.3037C85.2786 62.2445 82.243 56.4263 76.8043 55.035C58.7174 50.8611 46.4487 55.035 39.3657 61.2326C15.4607 82.3551 5.21565 57.5646 1.16823 64.5211C-2.7527 71.3512 23.682 69.0745 17.7373 97.6594ZM50.3696 82.4816C45.4368 86.023 41.8954 92.0942 41.263 98.1653C40.2511 109.169 48.4724 118.908 59.3498 119.92C76.2984 121.311 87.9347 101.327 78.1956 87.2879C71.8715 78.3077 59.3498 76.1575 50.3696 82.4816Z" fill="#00A69C"/>
<path d="M91.8554 31.7619C82.6222 34.7975 71.8713 42.8923 66.1796 61.7381C64.5353 67.0503 68.2033 72.4891 73.7685 73.248C73.8528 73.248 73.9372 73.248 74.0215 73.248C78.8278 73.8804 83.3811 70.5918 84.0135 65.7855C87.808 35.6829 136.63 35.6829 140.424 65.7855C141.057 70.5918 145.61 73.8804 150.416 73.248C150.501 73.248 150.627 73.248 150.796 73.248C156.235 72.4891 159.903 66.9239 158.258 61.6116C152.946 43.9042 143.081 35.3034 134.227 32.2679C103.998 22.1493 120.314 0.900391 112.219 0.900391C104.377 0.900391 119.555 22.6553 91.8554 31.7619ZM121.199 52.5049C115.76 49.9753 108.677 49.9753 103.239 52.5049C93.1202 57.0583 88.6933 68.9476 93.3732 78.9396C100.583 94.3704 123.855 94.3704 131.065 78.9396C135.745 68.9476 131.318 57.0583 121.199 52.5049Z" fill="#F37721"/>
<path d="M185.959 63.0036C178.623 56.553 166.228 51.2408 147.129 55.7941C141.817 57.0589 138.908 62.8771 141.058 68.0628C141.058 68.1472 141.058 68.2315 141.058 68.3158C142.955 72.7427 148.141 75.1458 152.694 73.2486C180.52 61.6123 204.931 103.731 180.9 122.071C176.979 124.98 176.473 130.671 179.382 134.466C179.382 134.55 179.424 134.634 179.508 134.719C182.923 139.146 189.5 139.525 193.295 135.478C205.943 121.944 208.473 109.169 206.702 100.063C200.378 68.6953 226.939 72.2367 222.892 65.1538C218.971 58.3237 207.714 82.4818 185.959 63.0036ZM182.797 98.7979C182.165 92.7268 178.623 86.6557 173.69 83.2407C164.71 76.7901 152.188 78.9403 145.864 87.9205C136.125 101.96 147.762 121.944 164.71 120.553C175.714 119.667 183.809 109.928 182.797 98.7979Z" fill="#009EDF"/>
<path d="M205.943 160.139C207.967 150.526 206.323 137.246 192.789 122.953C188.995 118.906 182.544 119.285 179.129 123.712C179.045 123.797 179.003 123.881 179.003 123.965C176.094 127.76 176.599 133.451 180.52 136.36C204.552 154.7 180.141 196.819 152.315 185.182C147.762 183.285 142.576 185.688 140.679 190.115C140.679 190.199 140.679 190.284 140.679 190.368C138.528 195.554 141.438 201.372 146.876 202.637C164.963 206.937 177.232 202.763 184.315 196.566C208.22 175.443 218.465 200.234 222.512 193.151C226.433 186.447 199.999 188.724 205.943 160.139ZM173.311 175.19C178.244 171.775 181.785 165.704 182.418 159.633C183.429 148.503 175.335 138.764 164.331 137.878C147.382 136.487 135.746 156.471 145.485 170.51C151.809 179.491 164.331 181.641 173.311 175.19Z" fill="#B9D432"/>
<path d="M131.825 226.04C141.184 223.004 151.809 214.909 157.501 196.064C159.145 190.751 155.477 185.313 150.038 184.554C149.869 184.554 149.743 184.554 149.659 184.554C144.852 183.921 140.299 187.21 139.667 192.016C135.872 221.992 87.1766 221.992 83.2557 192.016C82.6233 187.21 78.07 183.921 73.2637 184.554C73.1793 184.554 73.095 184.554 73.0107 184.554C67.4455 185.313 63.7775 190.751 65.4218 196.19C70.734 213.898 80.5996 222.498 89.4533 225.534C119.682 235.652 103.366 256.901 111.461 256.901C119.303 256.901 104.125 235.146 131.825 226.04ZM102.481 205.297C107.92 207.826 115.003 207.826 120.441 205.297C130.56 200.743 134.987 188.728 130.307 178.862C123.097 163.431 99.9513 163.431 92.6154 178.862C87.9355 188.728 92.3624 200.743 102.481 205.297Z" fill="#FAAF40"/>
</svg>
