<svg width="256" height="257" viewBox="0 0 256 257" fill="none" xmlns="http://www.w3.org/2000/svg">
<path d="M74.7387 21.5367L73.2642 24.8768C73.1479 25.1415 73.1598 25.4447 73.2972 25.6984L75.0345 28.9103C75.4586 29.6934 74.6499 30.5689 73.8357 30.2099L70.4955 28.7354C70.2308 28.6191 69.9277 28.631 69.674 28.7683L66.4621 30.5057C65.679 30.9298 64.8034 30.1211 65.1624 29.306L66.637 25.9658C66.7542 25.7011 66.7414 25.398 66.604 25.1443L64.8666 21.9323C64.4426 21.1493 65.2513 20.2737 66.0655 20.6327L69.4056 22.1073C69.6703 22.2245 69.9735 22.2117 70.2281 22.0743L73.44 20.3369C74.2222 19.9138 75.0977 20.7225 74.7387 21.5367Z" fill="#F8931F"/>
<path d="M208.957 22.4066L208.848 25.4116C208.84 25.6497 208.941 25.8777 209.124 26.0298L211.432 27.9558C211.996 28.4257 211.645 29.3425 210.911 29.3159L207.906 29.2069C207.668 29.1987 207.44 29.3003 207.288 29.4826L205.362 31.7915C204.892 32.3547 203.975 32.003 204.002 31.2703L204.111 28.2654C204.119 28.0273 204.018 27.7992 203.835 27.6463L201.526 25.7202C200.963 25.2504 201.314 24.3336 202.048 24.3601L205.053 24.4691C205.291 24.4774 205.519 24.3757 205.671 24.1935L207.597 21.8846C208.068 21.3231 208.983 21.6739 208.957 22.4066Z" fill="#F8931F"/>
<path d="M174.813 228.026L176.676 230.387C176.823 230.573 177.048 230.681 177.286 230.68L180.293 230.653C181.027 230.647 181.353 231.573 180.777 232.027L178.417 233.89C178.23 234.037 178.122 234.262 178.124 234.501L178.15 237.507C178.156 238.241 177.231 238.567 176.776 237.991L174.913 235.631C174.766 235.444 174.541 235.336 174.303 235.338L171.296 235.364C170.562 235.371 170.236 234.445 170.812 233.99L173.172 232.128C173.359 231.98 173.467 231.755 173.465 231.517L173.439 228.51C173.432 227.777 174.358 227.451 174.813 228.026Z" fill="#F8931F"/>
<path d="M245.316 111.67L246.668 114.356C246.775 114.568 246.974 114.719 247.207 114.765L250.158 115.341C250.878 115.482 251.012 116.454 250.357 116.784L247.672 118.136C247.459 118.243 247.308 118.442 247.262 118.676L246.686 121.627C246.546 122.347 245.574 122.48 245.244 121.826L243.892 119.139C243.785 118.927 243.586 118.776 243.353 118.73L240.402 118.154C239.682 118.014 239.548 117.041 240.203 116.711L242.888 115.36C243.101 115.252 243.252 115.054 243.298 114.82L243.874 111.869C244.014 111.148 244.986 111.015 245.316 111.67Z" fill="#F8931F"/>
<path d="M16.9304 141.503L14.9219 143.74C14.7626 143.917 14.6948 144.158 14.7369 144.392L15.2755 147.351C15.4064 148.072 14.5501 148.551 14.0042 148.061L11.7668 146.052C11.59 145.893 11.3492 145.825 11.1147 145.868L8.15645 146.406C7.43474 146.537 6.95575 145.681 7.44574 145.135L9.45515 142.898C9.61451 142.721 9.68228 142.48 9.63923 142.246L9.10071 139.287C8.96974 138.566 9.82607 138.087 10.3719 138.577L12.6094 140.585C12.7861 140.744 13.027 140.812 13.2615 140.769L16.2197 140.231C16.9414 140.1 17.4204 140.957 16.9304 141.503Z" fill="#F8931F"/>
<path d="M217.116 35.7618L216.961 40.0434C216.949 40.3823 217.094 40.7074 217.355 40.9254L220.645 43.6702C221.447 44.3397 220.947 45.6458 219.903 45.6082L215.62 45.4534C215.281 45.4415 214.956 45.5862 214.738 45.8473L211.993 49.137C211.324 49.9393 210.018 49.4393 210.055 48.3952L210.21 44.1135C210.223 43.7747 210.077 43.4486 209.817 43.2316L206.527 40.4867C205.725 39.8172 206.225 38.5112 207.269 38.5487L211.551 38.7035C211.89 38.7154 212.215 38.5707 212.433 38.3106L215.178 35.0208C215.847 34.2167 217.153 34.7168 217.116 35.7618Z" fill="#F8931F"/>
<path d="M166.477 237.613L169.131 240.976C169.34 241.243 169.662 241.396 170.002 241.394L174.286 241.355C175.331 241.346 175.795 242.665 174.975 243.312L171.611 245.967C171.344 246.176 171.19 246.498 171.194 246.838L171.233 251.122C171.242 252.167 169.923 252.631 169.275 251.812L166.621 248.448C166.411 248.181 166.09 248.027 165.75 248.031L161.466 248.069C160.421 248.079 159.956 246.76 160.777 246.112L164.141 243.458C164.408 243.248 164.561 242.927 164.558 242.587L164.519 238.303C164.51 237.257 165.829 236.792 166.477 237.613Z" fill="#F8931F"/>
<path d="M14.0835 154.655L11.2205 157.843C10.9943 158.096 10.8972 158.438 10.9577 158.772L11.7243 162.988C11.9111 164.016 10.6902 164.698 9.91267 164L6.72455 161.137C6.47269 160.91 6.12924 160.812 5.79586 160.874L1.58013 161.64C0.551618 161.827 -0.130697 160.606 0.568107 159.829L3.4311 156.641C3.65732 156.388 3.7544 156.045 3.69395 155.712L2.92737 151.496C2.74053 150.468 3.96139 149.785 4.73895 150.484L7.92707 153.347C8.17894 153.573 8.52239 153.67 8.85576 153.61L13.0715 152.843C14.0991 152.657 14.7814 153.877 14.0835 154.655Z" fill="#F8931F"/>
<path d="M116.916 129.052C116.43 124.052 120.088 119.605 125.089 119.118C130.088 118.631 134.536 122.29 135.023 127.29C135.509 132.29 131.851 136.737 126.851 137.224C121.85 137.711 117.403 134.052 116.916 129.052Z" fill="#4A2559"/>
<path d="M177.562 65.0236C190.621 61.2839 198.175 47.6662 194.436 34.6076C190.696 21.5491 177.078 13.9947 164.02 17.7345C150.961 21.4742 143.407 35.0919 147.146 48.1504C150.886 61.209 164.504 68.7633 177.562 65.0236Z" fill="#4A2559"/>
<path d="M231.049 69.426C229.332 69.2913 226.943 69.3399 226.943 69.3399C226.943 69.3399 231.533 67.7289 233.426 66.6793C235.313 65.6343 234.09 64.0004 232.415 64.2825C230.76 64.5618 226.248 65.6975 226.248 65.6975C226.248 65.6975 231.903 62.1577 233.389 60.7976C234.874 59.4375 233.706 57.1085 231.324 58.3193C228.98 59.5108 223.549 62.2529 223.549 62.2529C223.549 62.2529 227.656 59.084 229.603 56.9372C231.55 54.7904 229.269 53.1932 227.557 54.305C225.846 55.4178 219.979 60.2426 219.979 60.2426C222.356 56.9739 220.931 54.8207 219.628 55.2859C218.324 55.7512 216.308 61.6027 213.302 62.9893C204.556 64.6937 195.811 66.3981 187.065 68.1025C182.134 69.0633 177.351 70.917 172.328 71.3264C165.097 71.9153 157.371 70.2484 151.91 65.2533C147.078 60.8342 144.509 54.6183 142.451 48.5424C140.106 41.6148 137.482 34.7724 134.962 27.9025C133.959 25.1677 132.956 22.433 131.952 19.6982C131.471 16.424 135.27 11.5369 134.948 10.1915C134.625 8.8461 132.043 8.82778 130.604 12.6048C130.604 12.6048 131.44 5.05534 131.436 3.01388C131.433 0.972414 128.849 -0.0661783 128.115 2.7382C127.38 5.54258 126.97 10.7135 126.97 10.7135C126.97 10.7135 126.299 4.66701 126.016 2.05222C125.729 -0.604707 123.14 -0.309795 122.813 1.67672C122.485 3.66322 122.61 10.3344 122.61 10.3344C122.61 10.3344 121.096 5.93457 120.426 4.39592C119.747 2.83803 117.711 2.70706 117.867 4.85843C118.023 7.01804 119.181 11.7421 119.181 11.7421C119.181 11.7421 117.917 9.71343 116.866 8.34971C115.748 6.89806 114.533 7.54008 114.889 9.09522C115.246 10.6504 117.205 17.5386 118.109 23.1986L124.926 96.9981C126.544 110.81 141.651 118.573 153.823 111.846L217.537 76.6356C217.666 76.599 217.796 76.5569 217.933 76.4964C223.168 74.161 230.007 72.0398 231.505 71.4876C233.001 70.938 232.876 69.5698 231.049 69.426Z" fill="#4A2559"/>
<path d="M236.393 165.693C247.174 158.225 249.86 143.431 242.391 132.649C234.923 121.867 220.129 119.181 209.347 126.65C198.566 134.118 195.881 148.912 203.349 159.694C210.817 170.475 225.612 173.162 236.393 165.693Z" fill="#F8C91F"/>
<path d="M213.616 209.651C213.265 208.026 212.559 205.829 212.559 205.829C212.559 205.829 215.32 209.629 216.814 211.091C218.303 212.547 219.475 210.964 218.751 209.493C218.035 208.039 215.735 204.179 215.735 204.179C215.735 204.179 220.574 208.43 222.244 209.428C223.913 210.425 225.744 208.7 223.965 206.832C222.214 204.993 218.175 200.729 218.175 200.729C218.175 200.729 222.242 203.65 224.768 204.857C227.293 206.065 228.139 203.512 226.637 202.236C225.134 200.96 219.047 196.869 219.047 196.869C222.729 198.163 224.326 196.249 223.534 195.172C222.743 194.095 216.772 193.85 214.658 191.453C210.66 183.835 206.663 176.217 202.666 168.598C200.412 164.303 197.374 160.392 195.605 155.859C193.06 149.333 192.462 141.724 195.571 135.29C198.322 129.597 203.361 125.501 208.412 121.916C214.171 117.828 219.774 113.507 225.431 109.275C227.683 107.59 229.935 105.906 232.188 104.22C235.084 102.87 240.656 105.031 241.811 104.361C242.966 103.69 242.268 101.296 238.376 101.01C238.376 101.01 245.591 99.6943 247.479 99.1264C249.366 98.5577 249.612 95.8806 246.814 95.9768C244.017 96.0739 239.12 97.1253 239.12 97.1253C239.12 97.1253 244.527 94.8319 246.868 93.8465C249.246 92.8454 248.257 90.532 246.329 90.7792C244.4 91.0265 238.263 92.9883 238.263 92.9883C238.263 92.9883 241.915 90.3698 243.152 89.3239C244.405 88.2652 243.964 86.3446 242.016 87.0847C240.061 87.8265 236.011 90.2059 236.011 90.2059C236.011 90.2059 237.538 88.4749 238.508 87.1259C239.541 85.6889 238.611 84.7437 237.272 85.5039C235.932 86.2631 230.102 89.9834 225.117 92.3857L158.738 119.118C146.409 124.438 143.41 140.561 153.001 149.959L203.205 199.15C203.275 199.259 203.35 199.369 203.444 199.479C207.053 203.674 210.908 209.414 211.833 210.646C212.758 211.876 213.988 211.381 213.616 209.651Z" fill="#F8C91F"/>
<path d="M157.281 237.44C165.192 227.121 163.24 212.343 152.921 204.432C142.602 196.522 127.824 198.474 119.914 208.793C112.003 219.112 113.955 233.889 124.274 241.8C134.593 249.711 149.371 247.759 157.281 237.44Z" fill="#F8931F"/>
<path d="M75.7941 233.135C77.2283 232.322 79.0976 231.003 79.0976 231.003C79.0976 231.003 76.3189 234.74 75.3783 236.586C74.4414 238.426 76.2859 239.067 77.4637 237.946C78.6269 236.837 81.5989 233.519 81.5989 233.519C81.5989 233.519 79.0079 239.357 78.5582 241.231C78.1085 243.105 80.2818 244.327 81.5238 242.091C82.7464 239.89 85.5847 234.806 85.5847 234.806C85.5847 234.806 84.0241 239.519 83.6293 242.266C83.2346 245.012 85.8998 245.057 86.6618 243.258C87.4237 241.458 89.4936 234.488 89.4936 234.488C89.359 238.354 91.6422 239.299 92.4271 238.232C93.212 237.165 91.6779 231.443 93.3201 228.733C99.3456 222.696 105.371 216.661 111.396 210.624C114.793 207.221 117.594 203.188 121.36 200.174C126.781 195.835 133.803 193.019 140.811 194.056C147.012 194.975 152.379 198.529 157.265 202.248C162.836 206.487 168.582 210.51 174.261 214.611C176.521 216.243 178.781 217.876 181.042 219.508C183.176 221.849 182.78 227.76 183.756 228.655C184.733 229.55 186.79 228.181 185.909 224.414C185.909 224.414 189.289 230.851 190.385 232.469C191.482 234.086 194.088 233.527 193.169 230.908C192.249 228.29 189.805 223.968 189.805 223.968C189.805 223.968 193.575 228.405 195.201 230.328C196.852 232.282 198.748 230.662 197.943 228.91C197.139 227.158 193.467 221.933 193.467 221.933C193.467 221.933 197.025 224.612 198.381 225.474C199.754 226.346 201.44 225.361 200.164 223.737C198.884 222.107 195.434 218.98 195.434 218.98C195.434 218.98 197.523 219.912 199.088 220.431C200.753 220.984 201.372 219.823 200.256 218.78C199.141 217.737 193.898 213.322 190.149 209.316L145.216 154.421C136.534 144.33 120.392 146.262 114.338 158.118L82.6503 220.174C82.5678 220.272 82.4863 220.376 82.4103 220.497C79.5089 225.154 75.2189 230.5 74.3269 231.74C73.4357 232.982 74.2674 233.999 75.7941 233.135Z" fill="#F8931F"/>
<path d="M62.6315 158.853C56.1654 147.572 41.7781 143.669 30.4974 150.135C19.2167 156.601 15.3133 170.989 21.7802 182.269C28.2462 193.55 42.6326 197.453 53.9133 190.987C65.195 184.521 69.0975 170.134 62.6315 158.853Z" fill="#F94E54"/>
<path d="M9.66823 115.908C10.9532 116.94 12.8701 118.189 12.8701 118.189C12.8701 118.189 8.37046 116.99 6.30793 116.8C4.25181 116.61 4.33882 118.561 5.81611 119.24C7.27599 119.912 11.4578 121.445 11.4578 121.445C11.4578 121.445 5.07609 121.198 3.16834 121.473C1.2606 121.749 0.929059 124.22 3.466 124.546C5.96357 124.867 11.7363 125.624 11.7363 125.624C11.7363 125.624 6.7796 125.918 4.08238 126.566C1.38424 127.216 2.3285 129.709 4.28204 129.751C6.23558 129.794 13.4773 129.137 13.4773 129.137C9.83584 130.442 9.80286 132.913 11.0842 133.248C12.3664 133.582 17.1151 130.039 20.2391 130.562C28.0762 133.927 35.9132 137.291 43.7503 140.656C48.1693 142.553 52.9511 143.664 57.1457 146.048C63.1831 149.479 68.3971 154.961 70.0255 161.856C71.4662 167.955 70.1492 174.257 68.5025 180.172C66.6249 186.916 65.013 193.743 63.304 200.536C62.6235 203.24 61.944 205.944 61.2635 208.648C59.8787 211.497 54.2406 213.316 53.7699 214.554C53.3 215.793 55.3332 217.198 58.5067 214.986C58.5067 214.986 53.7763 220.507 52.6791 222.124C51.5819 223.741 53.0665 225.955 55.1583 224.132C57.2511 222.31 60.3613 218.44 60.3613 218.44C60.3613 218.44 57.633 223.585 56.4478 225.806C55.2435 228.062 57.4498 229.225 58.7796 227.829C60.1095 226.433 63.6053 221.089 63.6053 221.089C63.6053 221.089 62.4321 225.386 62.1326 226.964C61.8304 228.563 63.3699 229.763 64.4067 227.977C65.4471 226.185 67.0765 221.824 67.0765 221.824C67.0765 221.824 66.984 224.11 67.0801 225.754C67.1827 227.506 68.4887 227.652 69.0456 226.23C69.6024 224.807 71.7638 218.303 74.0984 213.338L108.475 151.284C114.638 139.485 106.871 125.204 93.6173 123.965L24.2415 117.484C24.1197 117.443 23.9933 117.406 23.8522 117.38C18.4532 116.407 11.8993 114.399 10.4174 114.029C8.93829 113.661 8.30085 114.81 9.66823 115.908Z" fill="#F94E54"/>
<path d="M64.8454 85.6881C76.9395 81.7838 83.5786 68.8146 79.6743 56.7206C75.7701 44.6265 62.8009 37.9874 50.7068 41.8916C38.6128 45.7959 31.9736 58.7651 35.8779 70.8592C39.7821 82.9532 52.7513 89.5924 64.8454 85.6881Z" fill="#92278F"/>
<path d="M98.6561 16.936C98.0882 18.4435 97.5122 20.604 97.5122 20.604C97.5122 20.604 97.2566 16.0595 96.807 14.0849C96.3582 12.1176 94.5722 12.7917 94.39 14.3706C94.2105 15.9303 94.0584 20.2816 94.0584 20.2816C94.0584 20.2816 92.3467 14.279 91.5105 12.5902C90.6743 10.9022 88.2775 11.3455 88.7464 13.8019C89.208 16.2188 90.2613 21.812 90.2613 21.812C90.2613 21.812 88.4808 17.2977 87.0567 14.9888C85.6334 12.6799 83.6048 14.3157 84.1598 16.1437C84.7148 17.9718 87.5265 24.4983 87.5265 24.4983C85.2066 21.5125 82.9005 22.2342 82.9802 23.5265C83.0598 24.8188 87.7948 28.1526 88.2592 31.2143C87.5183 39.5175 86.7764 47.8207 86.0355 56.124C85.6178 60.8059 86.0401 65.5858 85.1022 70.2072C83.7522 76.8582 80.2463 83.37 74.3371 86.9804C69.1094 90.1749 62.8549 90.8682 56.8597 91.1375C50.0237 91.4452 43.1922 92.0249 36.3626 92.5039C33.6444 92.6944 30.9252 92.8858 28.2069 93.0763C25.1387 92.6569 21.7345 87.9732 20.4413 87.9127C19.1481 87.8523 18.4612 90.1694 21.4808 92.4435C21.4808 92.4435 14.9131 89.7298 13.0768 89.2022C11.2405 88.6747 9.63589 90.7272 11.9659 92.1165C14.2958 93.5059 18.8358 95.2186 18.8358 95.2186C18.8358 95.2186 13.227 94.2487 10.8036 93.8237C8.34086 93.3914 7.9333 95.7946 9.63406 96.6052C11.3348 97.4157 17.363 99.0377 17.363 99.0377C17.363 99.0377 13.0145 99.2548 11.4575 99.4572C9.88135 99.6623 9.23383 101.458 11.2084 101.878C13.1894 102.299 17.7367 102.486 17.7367 102.486C17.7367 102.486 15.5853 103.095 14.0861 103.685C12.4906 104.313 12.7517 105.571 14.2427 105.655C15.7328 105.739 22.4333 105.768 27.7544 106.427L95.8545 119.482C108.689 121.617 119.593 110.057 116.711 97.369L101.625 30.9542C101.625 30.8287 101.623 30.7005 101.603 30.5613C100.865 25.2502 100.736 18.5515 100.629 17.0624C100.522 15.5732 99.2606 15.3305 98.6561 16.936Z" fill="#92278F"/>
</svg>
