<svg width="257" height="131" viewBox="0 0 257 131" fill="none" xmlns="http://www.w3.org/2000/svg">
<path d="M122.823 130.703H133.451C136.464 130.703 138.734 127.937 138.129 124.986C135.664 112.97 132.576 102.033 129.079 92.1072C128.767 91.2221 127.507 91.2221 127.195 92.1072C123.698 102.033 120.609 112.97 118.145 124.986C117.54 127.937 119.81 130.703 122.823 130.703Z" fill="#4A2559"/>
<path d="M100.477 45.6219C93.4361 56.0722 86.3538 68.9465 80.2266 84.5417C85.0099 96.9362 89.1838 110.996 92.2813 126.862C92.7175 129.095 94.6813 130.704 96.9562 130.704H109.535C111.809 130.704 113.774 129.095 114.209 126.862C117.307 110.996 121.48 96.9362 126.264 84.5417C120.137 68.9465 113.055 56.0722 106.014 45.6219C104.687 43.6521 101.804 43.6521 100.477 45.6219Z" fill="#F94E54"/>
<path d="M172.61 130.704H183.24C186.253 130.704 188.522 127.938 187.917 124.986C185.453 112.971 182.364 102.033 178.867 92.1072C178.555 91.2221 177.295 91.2221 176.983 92.1072C173.486 102.033 170.397 112.971 167.932 124.986C167.327 127.938 169.597 130.704 172.61 130.704Z" fill="#F8C91F"/>
<path d="M150.264 45.6219C143.224 56.0729 136.141 68.9473 130.014 84.5425C134.797 96.937 138.97 110.997 142.068 126.863C142.505 129.095 144.468 130.704 146.743 130.704H159.322C161.597 130.704 163.561 129.095 163.996 126.863C167.095 110.997 171.268 96.9362 176.052 84.5417C169.925 68.9473 162.842 56.0729 155.802 45.6219C154.474 43.6521 151.591 43.6521 150.264 45.6219Z" fill="#92278F"/>
<path d="M23.2506 130.705H33.8787C36.8918 130.705 39.1622 127.939 38.5565 124.988C36.0933 112.977 33.0056 102.044 29.5104 92.1215C29.1947 91.2251 27.9345 91.2251 27.6189 92.1215C24.1237 102.045 21.0367 112.978 18.5727 124.988C17.9678 127.939 20.2375 130.705 23.2506 130.705Z" fill="#F8C91F"/>
<path d="M17.9828 65.2129C7.34273 83.0612 0.912719 103.71 0.0795888 125.794C-0.0221043 128.481 2.1594 130.704 4.84862 130.704H9.95888C12.2338 130.704 14.1984 129.095 14.6345 126.862C17.732 110.997 21.9052 96.9366 26.6893 84.5421C23.9481 77.5645 21.0186 71.1254 17.9828 65.2129Z" fill="#F8931F"/>
<path d="M145.018 25.9099C146.769 27.8955 148.568 30.0409 150.397 32.3437C151.747 34.0423 154.314 34.0423 155.664 32.3437C157.493 30.0416 159.292 27.8963 161.043 25.9099C165.977 20.313 170.778 15.6118 175.219 11.7C175.205 11.6261 175.207 11.6352 175.193 11.5614C164.748 7.4266 153.628 4.63267 142.045 3.37695C138.905 5.44321 135.086 8.18515 130.844 11.7015C135.284 15.6125 140.085 20.3137 145.018 25.9099Z" fill="#F8931F"/>
<path d="M50.688 45.6213C43.6478 56.0716 36.5647 68.946 30.4375 84.5412C35.2216 96.9357 39.3948 110.996 42.4923 126.861C42.9284 129.094 44.8922 130.703 47.1671 130.703H59.7454C62.0203 130.703 63.9849 129.094 64.4203 126.861C67.5178 110.996 71.691 96.9357 76.4751 84.5412C70.3479 68.946 63.2655 56.0716 56.2246 45.6213C54.8981 43.6523 52.0153 43.6523 50.688 45.6213Z" fill="#92278F"/>
<path d="M130.07 15.7212C128.971 14.7284 127.304 14.7284 126.205 15.7212C122.247 19.297 118.034 23.4913 113.737 28.3771C111.054 31.4286 108.255 34.8568 105.41 38.6684C112.602 48.6027 119.995 60.9769 126.556 76.1043C127.156 77.4888 129.12 77.4888 129.72 76.1043C136.28 60.9769 143.674 48.6027 150.865 38.6684C148.02 34.8568 145.222 31.4286 142.539 28.3771C138.242 23.4913 134.029 19.297 130.07 15.7212Z" fill="#F8C91F"/>
<path d="M80.2832 15.7212C79.1834 14.7284 77.5179 14.7284 76.4182 15.7212C72.4589 19.297 68.2465 23.4913 63.9498 28.3771C61.2666 31.4286 58.4674 34.8568 55.623 38.6684C62.8146 48.6027 70.2081 60.9769 76.7684 76.1043C77.3688 77.4888 79.3326 77.4888 79.933 76.1043C86.4933 60.9769 93.8868 48.6034 101.078 38.6684C98.2332 34.8568 95.434 31.4286 92.7516 28.3771C88.4548 23.4913 84.2417 19.297 80.2832 15.7212Z" fill="#4A2559"/>
<path d="M179.857 15.7212C178.758 14.7284 177.091 14.7284 175.992 15.7212C172.033 19.297 167.821 23.4913 163.524 28.3771C160.841 31.4286 158.042 34.8568 155.197 38.6684C162.389 48.6027 169.782 60.9761 176.343 76.1043C176.943 77.4888 178.907 77.4888 179.507 76.1043C186.068 60.9769 193.461 48.6034 200.653 38.6692C197.807 34.8576 195.008 31.4286 192.325 28.3778C188.029 23.4913 183.816 19.297 179.857 15.7212Z" fill="#4A2559"/>
<path d="M246.317 130.703H251.304C253.993 130.703 256.174 128.48 256.073 125.793C255.242 103.755 248.837 83.1469 238.237 65.3242C235.222 71.2058 232.312 77.608 229.588 84.5412C234.371 96.9357 238.544 110.996 241.643 126.861C242.077 129.094 244.042 130.703 246.317 130.703Z" fill="#F8931F"/>
<path d="M222.398 130.703H233.027C236.04 130.703 238.31 127.937 237.705 124.986C235.24 112.97 232.152 102.033 228.655 92.1072C228.343 91.2221 227.084 91.2221 226.771 92.1072C223.275 102.032 220.186 112.97 217.721 124.986C217.116 127.937 219.386 130.703 222.398 130.703Z" fill="#4A2559"/>
<path d="M200.051 45.6219C193.011 56.0722 185.928 68.9465 179.801 84.541C184.584 96.9355 188.758 110.996 191.856 126.862C192.292 129.095 194.256 130.704 196.531 130.704H209.109C211.384 130.704 213.349 129.095 213.784 126.862C216.883 110.997 221.055 96.9362 225.839 84.5417C219.712 68.9465 212.63 56.0722 205.589 45.6219C204.261 43.6521 201.379 43.6521 200.051 45.6219Z" fill="#F94E54"/>
<path d="M73.0379 130.703H83.666C86.6791 130.703 88.9487 127.937 88.3438 124.986C85.8791 112.97 82.7906 102.033 79.2939 92.1072C78.982 91.2221 77.7218 91.2221 77.41 92.1072C73.9132 102.033 70.8248 112.97 68.36 124.986C67.7544 127.937 70.0248 130.703 73.0379 130.703Z" fill="#F8931F"/>
<path d="M229.314 76.0603C231.498 71.0246 233.775 66.2947 236.107 61.8586C228.975 50.6905 220.156 40.7042 210.013 32.2539C208.364 34.2546 206.682 36.3947 204.984 38.6688C212.169 48.5941 219.555 60.9532 226.111 76.0603C226.72 77.4621 228.706 77.4614 229.314 76.0603Z" fill="#F8C91F"/>
<path d="M51.2916 38.6674C49.5764 36.3691 47.8785 34.2094 46.2122 32.1914C36.0708 40.6282 27.2506 50.5978 20.1133 61.7502C22.465 66.2172 24.7603 70.9824 26.9629 76.058C27.5708 77.4591 29.5572 77.4599 30.1658 76.058C36.7209 60.9517 44.1068 48.5926 51.2916 38.6674Z" fill="#F94E54"/>
<path d="M136.502 2.89651C133.716 2.71573 130.908 2.61328 128.076 2.61328C125.283 2.61328 122.513 2.71272 119.764 2.88899C122.298 4.69159 125.116 6.84371 128.138 9.377C131.156 6.84748 133.97 4.69761 136.502 2.89651Z" fill="#4A2559"/>
<path d="M95.2307 25.911C96.9813 27.8966 98.7809 30.042 100.61 32.3447C101.96 34.0434 104.526 34.0434 105.876 32.3447C107.705 30.042 109.505 27.8966 111.255 25.911C116.189 20.3148 120.989 15.6136 125.43 11.7018C121.178 8.17795 117.354 5.43299 114.21 3.36523C102.638 4.61116 91.5283 7.39454 81.0893 11.5127C81.0713 11.6122 81.0735 11.6009 81.0547 11.7003C85.4953 15.6121 90.2967 20.3133 95.2307 25.911Z" fill="#92278F"/>
<path d="M61.4694 25.9112C64.6942 22.2533 67.8603 18.9833 70.9088 16.0605C63.0935 19.9656 55.7294 24.6382 48.9258 29.9933C50.415 31.7981 51.9299 33.722 53.4575 35.7438C56.1927 32.1235 58.8842 28.843 61.4694 25.9112Z" fill="#F8931F"/>
<path d="M194.806 25.9094C197.391 28.8419 200.082 32.1217 202.818 35.7419C204.329 33.742 205.829 31.8392 207.302 30.0517C200.552 24.7312 193.25 20.0805 185.502 16.1875C188.508 19.0763 191.629 22.3049 194.806 25.9094Z" fill="#4A2559"/>
<path d="M168.219 28.9235C167.379 30.8301 167.345 33.0846 169.275 34.36C173.856 37.3859 180.692 30.4873 181.899 26.5296C183.076 22.669 179.851 18.7075 175.908 20.8521C173.713 22.0468 169.714 25.536 168.219 28.9235Z" fill="#92278F"/>
<path d="M94.247 66.7846C94.0331 68.8577 94.6952 71.0128 96.9242 71.6328C102.214 73.1032 106.596 64.4359 106.526 60.2989C106.458 56.2635 102.172 53.4862 99.0793 56.7404C97.3588 58.5505 94.6266 63.1011 94.247 66.7846Z" fill="#F8931F"/>
<path d="M193.188 66.7846C192.974 68.8577 193.637 71.0128 195.866 71.6328C201.155 73.1032 205.537 64.4359 205.468 60.2989C205.4 56.2635 201.113 53.4862 198.021 56.7404C196.3 58.5505 193.568 63.1011 193.188 66.7846Z" fill="#F8931F"/>
<path d="M143.612 66.7846C143.398 68.8577 144.06 71.0128 146.289 71.6328C151.579 73.1032 155.961 64.4359 155.891 60.2989C155.824 56.2635 151.537 53.4862 148.445 56.7404C146.724 58.5505 143.992 63.1011 143.612 66.7846Z" fill="#F94E54"/>
<path d="M45.3034 66.7846C45.0902 68.8577 45.7516 71.0128 47.9806 71.6328C53.2701 73.1032 57.652 64.4359 57.5827 60.2989C57.5149 56.2635 53.2279 53.4862 50.1357 56.7404C48.4152 58.5505 45.6831 63.1011 45.3034 66.7846Z" fill="#F94E54"/>
<path d="M24.5235 110.42C24.528 111.54 25.0048 112.654 26.2312 112.858C29.1418 113.34 30.9881 108.458 30.7139 106.252C30.4473 104.1 27.9969 102.861 26.531 104.776C25.7159 105.842 24.5159 108.43 24.5235 110.42Z" fill="white"/>
<path d="M74.4141 110.42C74.4186 111.54 74.8954 112.654 76.1218 112.858C79.0325 113.34 80.878 108.458 80.6046 106.252C80.3379 104.1 77.8875 102.861 76.4216 104.776C75.6058 105.842 74.4066 108.43 74.4141 110.42Z" fill="#F8C91F"/>
<path d="M123.99 110.42C123.995 111.54 124.472 112.654 125.698 112.858C128.609 113.34 130.454 108.458 130.181 106.252C129.914 104.1 127.464 102.861 125.998 104.776C125.183 105.842 123.983 108.43 123.99 110.42Z" fill="#92278F"/>
<path d="M173.25 110.42C173.255 111.54 173.731 112.654 174.958 112.858C177.868 113.34 179.714 108.458 179.44 106.252C179.174 104.1 176.723 102.861 175.258 104.776C174.442 105.842 173.243 108.43 173.25 110.42Z" fill="white"/>
<path d="M224.092 110.42C224.096 111.54 224.573 112.654 225.8 112.858C228.71 113.34 230.556 108.458 230.282 106.252C230.016 104.1 227.565 102.861 226.099 104.776C225.284 105.842 224.084 108.43 224.092 110.42Z" fill="#92278F"/>
<path d="M118.01 28.9235C117.17 30.8301 117.136 33.0846 119.067 34.36C123.647 37.3859 130.483 30.4873 131.69 26.5296C132.867 22.669 129.642 18.7075 125.699 20.8521C123.504 22.0468 119.505 25.536 118.01 28.9235Z" fill="white"/>
<path d="M69.067 28.9235C68.2264 30.8301 68.1925 33.0846 70.1231 34.36C74.7038 37.3859 81.5399 30.4873 82.7466 26.5296C83.924 22.669 80.6985 18.7075 76.7558 20.8521C74.5607 22.0468 70.5616 25.536 69.067 28.9235Z" fill="#92278F"/>
<path d="M214.429 10.725L217.478 16.2036C217.54 16.3136 217.63 16.4047 217.74 16.4657L223.219 19.515C223.683 19.7734 223.683 20.4401 223.219 20.6984L217.74 23.7477C217.63 23.8087 217.539 23.8999 217.478 24.0099L214.429 29.4885C214.171 29.9525 213.504 29.9525 213.245 29.4885L210.196 24.0099C210.135 23.8999 210.044 23.8087 209.934 23.7477L204.455 20.6984C203.991 20.4401 203.991 19.7726 204.455 19.515L209.934 16.4657C210.044 16.4047 210.135 16.3136 210.196 16.2036L213.245 10.725C213.504 10.2609 214.171 10.2609 214.429 10.725Z" fill="#F8C91F"/>
<path d="M226.17 25.2106L228.104 28.6847C228.143 28.7548 228.201 28.812 228.271 28.8512L231.745 30.7849C232.039 30.9483 232.039 31.3717 231.745 31.5351L228.271 33.4688C228.201 33.508 228.143 33.5652 228.104 33.6353L226.17 37.1094C226.007 37.4032 225.584 37.4032 225.42 37.1094L223.487 33.6353C223.447 33.5652 223.39 33.508 223.32 33.4688L219.846 31.5351C219.551 31.3717 219.551 30.9483 219.846 30.7849L223.32 28.8512C223.39 28.812 223.447 28.7548 223.487 28.6847L225.42 25.2106C225.584 24.9168 226.007 24.9168 226.17 25.2106Z" fill="#F8C91F"/>
<path d="M10.3433 50.7843L12.903 55.3838C12.9542 55.4765 13.031 55.5526 13.1229 55.6038L17.7225 58.1634C18.1119 58.3804 18.1119 58.9401 17.7225 59.157L13.1229 61.7167C13.0303 61.7679 12.9542 61.8447 12.903 61.9366L10.3433 66.5362C10.1264 66.9256 9.56667 66.9256 9.34972 66.5362L6.79007 61.9366C6.73884 61.844 6.66201 61.7679 6.56936 61.7167L1.96982 59.157C1.58037 58.9401 1.58037 58.3804 1.96982 58.1634L6.56936 55.6038C6.66201 55.5526 6.73809 55.4757 6.79007 55.3838L9.34972 50.7843C9.56667 50.3948 10.1264 50.3948 10.3433 50.7843Z" fill="#F8C91F"/>
<path d="M72.1777 0.755491L74.1114 4.22963C74.1505 4.29968 74.2078 4.35693 74.2779 4.3961L77.752 6.32977C78.0465 6.49324 78.0465 6.91658 77.752 7.08004L74.2779 9.01372C74.2078 9.05289 74.1505 9.11014 74.1114 9.18019L72.1777 12.6543C72.0142 12.9481 71.5909 12.9481 71.4274 12.6543L69.4938 9.18019C69.4546 9.11014 69.3973 9.05289 69.3273 9.01372L65.8531 7.08004C65.5594 6.91658 65.5594 6.49324 65.8531 6.32977L69.3273 4.3961C69.3973 4.35693 69.4546 4.29968 69.4938 4.22963L71.4274 0.755491C71.5909 0.461711 72.0142 0.461711 72.1777 0.755491Z" fill="#F8C91F"/>
</svg>
