<svg width="256" height="257" viewBox="0 0 256 257" fill="none" xmlns="http://www.w3.org/2000/svg">
<path d="M251.725 73.026C249.684 67.9843 246.645 63.4215 242.693 59.4699C239.501 56.2766 235.86 53.6079 231.873 51.5356C227.87 49.4552 223.589 48.0449 219.14 47.3454C214.724 46.6558 210.194 46.6574 205.676 47.3438C203.587 47.6641 201.526 48.1527 199.508 48.8015C200.353 43.7534 200.147 38.581 198.885 33.3497C197.017 25.6149 193.156 18.7804 187.408 13.0328C183.903 9.52572 179.755 6.61513 175.076 4.37948C170.396 2.1471 165.511 0.772701 160.556 0.292233C155.547 -0.194772 150.497 0.324921 145.547 1.83006C140.482 3.37442 135.872 6.20167 131.844 10.2317L85.5521 56.5217C84.8902 57.1836 84.5176 58.0824 84.5176 59.0205C84.5176 59.9569 84.8902 60.8557 85.5521 61.5192L190.224 166.191C190.887 166.853 191.786 167.225 192.723 167.225C193.659 167.225 194.558 166.853 195.221 166.191L243.724 117.688C247.61 113.804 250.539 109.233 252.43 104.101C254.298 99.0268 255.164 93.7694 255.004 88.4745C254.845 83.2188 253.742 78.0219 251.725 73.026ZM192.724 152.795L149.366 109.437L193.455 65.3483C196.199 62.6044 199.361 60.6073 202.857 59.4143C206.419 58.1985 210.114 57.7147 213.852 57.9729C217.653 58.2393 221.425 59.1839 225.061 60.7789C228.673 62.3658 231.931 64.5998 234.746 67.414C237.457 70.1252 239.607 73.343 241.139 76.9776C242.682 80.6366 243.531 84.4804 243.662 88.4026C243.796 92.3264 243.213 96.2175 241.933 99.9681C240.693 103.608 238.622 106.894 235.778 109.739L192.724 152.795ZM187.29 52.0553C186.195 55.5167 184.205 58.7067 181.379 61.5339L141.42 101.493L98.9463 59.0188L139.789 18.1741C142.432 15.5316 145.475 13.6081 148.825 12.4592C152.21 11.3038 155.704 10.8919 159.208 11.2302C162.819 11.5849 166.424 12.5948 169.92 14.2307C173.414 15.8682 176.624 18.1366 179.462 20.9769C182.085 23.5982 184.197 26.6869 185.733 30.1532C187.285 33.6635 188.228 37.3471 188.539 41.1026C188.845 44.7993 188.425 48.4829 187.29 52.0553Z" fill="#D786A1"/>
<path d="M65.1971 90.0409C63.8717 88.7155 61.5249 88.7155 60.2012 90.0409L11.6968 138.544C7.81053 142.428 4.88195 146.999 2.99113 152.131C1.12318 157.205 0.257038 162.463 0.417194 167.757C0.575715 173.012 1.6772 178.207 3.69386 183.204C5.73504 188.246 8.77472 192.809 12.7263 196.76C15.918 199.954 19.5591 202.622 23.5467 204.695C27.5489 206.775 31.8307 208.185 36.2775 208.885C40.6948 209.575 45.2249 209.575 49.742 208.887C51.8306 208.566 53.8914 208.078 55.9096 207.429C55.0647 212.477 55.2707 217.649 56.5323 222.881C58.4002 230.614 62.2619 237.45 68.0096 243.197C71.5167 246.705 75.6644 249.617 80.34 251.851C85.0204 254.083 89.9052 255.458 94.8619 255.938C96.0745 256.056 97.2887 256.115 98.5062 256.115C102.311 256.115 106.12 255.541 109.871 254.4C114.935 252.856 119.546 250.029 123.574 245.999L169.866 199.709C170.527 199.045 170.902 198.146 170.902 197.21C170.902 196.273 170.529 195.375 169.866 194.711L65.1971 90.0409ZM62.6967 103.435L106.055 146.792L61.9662 190.88C59.2223 193.624 56.0584 195.621 52.5627 196.814C48.9968 198.032 45.292 198.514 41.5675 198.256C37.7663 197.989 33.9944 197.045 30.3582 195.45C26.7465 193.863 23.4878 191.63 20.6737 188.816C17.9625 186.105 15.8118 182.887 14.2805 179.253C12.7378 175.594 11.888 171.752 11.7572 167.828C11.6232 163.904 12.205 160.013 13.4863 156.261C14.725 152.623 16.7956 149.336 19.6425 146.491L62.6967 103.435ZM68.1289 204.175C69.2238 200.714 71.2143 197.524 74.04 194.696L113.999 154.737L156.473 197.211L115.628 238.056C112.986 240.699 109.944 242.622 106.592 243.771C103.211 244.927 99.7189 245.338 96.2118 245C92.6001 244.645 88.9949 243.635 85.4993 242C82.0053 240.362 78.7956 238.094 75.9569 235.253C73.334 232.632 71.2225 229.543 69.6863 226.077C68.1338 222.568 67.1908 218.885 66.8803 215.128C66.5764 211.431 66.9964 207.747 68.1289 204.175Z" fill="#D786A1"/>
<path d="M169.243 57.1482L122.951 10.8566C119.025 6.9311 114.538 4.17904 109.612 2.67553C104.775 1.20471 99.8411 0.698101 94.9481 1.17203C90.096 1.64269 85.3093 2.98931 80.7187 5.17756C76.138 7.36745 72.0719 10.2208 68.6351 13.6577C63.0035 19.2876 59.2219 25.9831 57.3931 33.5579C56.0384 39.1797 55.9289 44.7312 57.0614 50.1291C54.6329 49.2466 52.1407 48.6076 49.606 48.217C45.1804 47.5421 40.7435 47.5437 36.4111 48.2187C32.0656 48.9034 27.8754 50.2827 23.9532 52.319C20.0474 54.3487 16.4814 56.9652 13.3502 60.0947C9.48198 63.963 6.50766 68.4261 4.51061 73.3599C2.53481 78.2561 1.45293 83.3501 1.29768 88.4979C1.14079 93.6801 1.98897 98.8264 3.81769 103.793C5.66439 108.802 8.52595 113.267 12.319 117.06L22.7471 127.488L29.4426 120.792L19.0145 110.364C16.0729 107.421 13.9304 104.02 12.6475 100.25C11.3336 96.3995 10.7355 92.4022 10.8727 88.3688C11.0084 84.3388 11.881 80.3904 13.4663 76.6317C15.0417 72.8909 17.2577 69.5799 20.049 66.7886C22.9416 63.896 26.2902 61.6015 29.9999 59.9689C33.7325 58.333 37.6024 57.3639 41.5034 57.091C45.3602 56.8197 49.1729 57.3231 52.8483 58.5765C56.4747 59.8153 59.753 61.8826 62.5917 64.7229L107.305 109.436L62.6963 154.044L37.39 128.738L30.6928 135.435L60.8234 165.564C61.3415 166.082 62.0197 166.34 62.6979 166.34C63.3761 166.34 64.0543 166.082 64.5724 165.564L127.087 103.049L120.392 96.3521L114.002 102.742L73.4186 62.1572C70.49 59.2286 68.4276 55.9192 67.2885 52.319C66.12 48.6387 65.6886 44.8391 66.004 41.028C66.321 37.1728 67.2901 33.3944 68.8803 29.7958C70.4638 26.2283 72.6341 23.0497 75.3355 20.3499C78.2461 17.4393 81.5408 15.1105 85.1247 13.4305C88.7135 11.7505 92.4167 10.7144 96.1248 10.3516C96.9484 10.2715 97.7688 10.2323 98.5892 10.2323C101.392 10.2323 104.17 10.698 106.878 11.6214C110.362 12.816 113.516 14.8098 116.255 17.5488L157.726 59.0194L128.337 88.4064L135.035 95.1036L169.246 60.8939C169.743 60.3971 170.022 59.7238 170.022 59.0194C170.019 58.3183 169.739 57.645 169.243 57.1482Z" fill="#F9CFD5"/>
<path d="M86.1757 199.083L132.467 245.374C136.394 249.3 140.88 252.052 145.806 253.555C150.643 255.026 155.577 255.533 160.47 255.059C165.322 254.588 170.107 253.242 174.698 251.053C179.279 248.863 183.345 246.012 186.781 242.573C192.413 236.943 196.195 230.248 198.023 222.673C199.378 217.051 199.488 211.5 198.355 206.102C200.782 206.984 203.276 207.623 205.811 208.014C210.236 208.689 214.672 208.687 219.006 208.012C223.351 207.328 227.543 205.948 231.463 203.912C235.369 201.882 238.937 199.266 242.066 196.136C245.935 192.268 248.909 187.805 250.906 182.871C252.882 177.975 253.964 172.881 254.119 167.733C254.276 162.551 253.428 157.405 251.599 152.438H251.597C249.751 147.429 246.891 142.964 243.098 139.171L232.669 128.743L225.974 135.439L236.402 145.867C239.344 148.81 241.486 152.211 242.769 155.981C244.085 159.831 244.681 163.829 244.544 167.862C244.408 171.892 243.536 175.841 241.95 179.599C240.373 183.34 238.159 186.651 235.368 189.442C232.475 192.335 229.126 194.629 225.417 196.26C221.684 197.896 217.814 198.865 213.913 199.14C210.056 199.411 206.244 198.908 202.568 197.654C198.942 196.416 195.664 194.348 192.825 191.508L148.112 146.795L192.72 102.187L218.027 127.493L224.722 120.796L194.592 90.6669C194.073 90.1488 193.395 89.8906 192.717 89.8906C192.039 89.8906 191.361 90.1488 190.843 90.6669L128.328 153.182L135.025 159.879L141.415 153.489L181.998 194.074C184.927 197.002 186.989 200.312 188.128 203.912C189.297 207.594 189.728 211.392 189.413 215.203C189.096 219.058 188.126 222.836 186.536 226.435C184.953 230.003 182.782 233.181 180.081 235.881C177.17 238.792 173.876 241.12 170.292 242.8C166.703 244.48 163 245.517 159.292 245.879C158.468 245.959 157.648 245.999 156.827 245.999C154.025 245.999 151.246 245.533 148.538 244.61C145.054 243.415 141.9 241.421 139.161 238.682L97.6906 197.212L127.079 167.825L120.382 161.127L86.1708 195.337C85.674 195.834 85.3945 196.507 85.3945 197.212C85.3994 197.913 85.6789 198.586 86.1757 199.083Z" fill="#F9CFD5"/>
</svg>
