<svg width="257" height="115" viewBox="0 0 257 115" fill="none" xmlns="http://www.w3.org/2000/svg">
<path d="M198.162 114.285C166.195 114.285 145.474 93.5699 125.434 73.5372L109.44 57.5435L109.442 57.5414C91.0997 39.3688 78.1408 28.3777 59.7409 28.3777C50.9895 28.3777 42.9794 31.4663 37.1853 37.0752C31.6128 42.4687 28.5444 49.7348 28.5444 57.5351C28.5444 65.3348 31.6128 72.6016 37.1853 77.9951C42.9794 83.6032 50.9895 86.6912 59.7409 86.6912C67.6811 86.6912 74.8305 84.7018 82.3252 80.3271L75.7794 73.7813H61.3891C54.109 73.7813 48.1862 67.8584 48.1862 60.5783V46.1881H79.6799C84.5349 46.1881 89.0991 48.0789 92.5325 51.5123L115.125 74.1043C117.328 76.3077 118.532 79.358 118.429 82.4739C118.325 85.5808 116.926 88.5359 114.59 90.5798C90.7214 111.469 73.469 114.286 59.7409 114.286C26.7745 114.286 0.951172 89.3582 0.951172 57.5358C0.951172 25.7134 26.7745 0.785156 59.7409 0.785156C91.708 0.785156 112.43 21.5003 132.469 41.533L148.829 57.8931C166.978 75.849 179.886 86.6926 198.161 86.6926C206.913 86.6926 214.924 83.6039 220.718 77.9958C226.289 72.6023 229.358 65.3362 229.358 57.5358C229.358 49.7355 226.289 42.4693 220.717 37.0759C214.924 31.4677 206.913 28.3791 198.161 28.3791C186.074 28.3791 175.845 32.9159 162.854 44.0392C160.492 46.0615 157.479 47.1754 154.374 47.1754C150.899 47.1754 147.634 45.8237 145.179 43.3686L134.43 32.6201L138.207 29.1063C156.483 12.1077 173.672 0.78585 198.161 0.78585C231.127 0.78585 256.951 25.7134 256.951 57.5365C256.952 89.3575 231.129 114.285 198.162 114.285Z" fill="url(#paint0_linear_10_2317)"/>
<path d="M198.162 114.285C166.195 114.285 145.474 93.5699 125.434 73.5372L109.44 57.5435L109.442 57.5414C91.0997 39.3688 78.1408 28.3777 59.7409 28.3777C50.9895 28.3777 42.9794 31.4663 37.1853 37.0752C31.6128 42.4687 28.5444 49.7348 28.5444 57.5351C28.5444 65.3348 31.6128 72.6016 37.1853 77.9951C42.9794 83.6032 50.9895 86.6912 59.7409 86.6912C67.6811 86.6912 74.8305 84.7018 82.3252 80.3271L75.7794 73.7813H61.3891C54.109 73.7813 48.1862 67.8584 48.1862 60.5783V46.1881H79.6799C84.5349 46.1881 89.0991 48.0789 92.5325 51.5123L115.125 74.1043C117.328 76.3077 118.532 79.358 118.429 82.4739C118.325 85.5808 116.926 88.5359 114.59 90.5798C90.7214 111.469 73.469 114.286 59.7409 114.286C26.7745 114.286 0.951172 89.3582 0.951172 57.5358C0.951172 25.7134 26.7745 0.785156 59.7409 0.785156C91.708 0.785156 112.43 21.5003 132.469 41.533L148.829 57.8931C166.978 75.849 179.886 86.6926 198.161 86.6926C206.913 86.6926 214.924 83.6039 220.718 77.9958C226.289 72.6023 229.358 65.3362 229.358 57.5358C229.358 49.7355 226.289 42.4693 220.717 37.0759C214.924 31.4677 206.913 28.3791 198.161 28.3791C186.074 28.3791 175.845 32.9159 162.854 44.0392C160.492 46.0615 157.479 47.1754 154.374 47.1754C150.899 47.1754 147.634 45.8237 145.179 43.3686L134.43 32.6201L138.207 29.1063C156.483 12.1077 173.672 0.78585 198.161 0.78585C231.127 0.78585 256.951 25.7134 256.951 57.5365C256.952 89.3575 231.129 114.285 198.162 114.285Z" fill="url(#paint1_linear_10_2317)"/>
<path d="M154.375 47.1712C157.48 47.1712 160.493 46.058 162.855 44.035C175.845 32.9117 186.075 28.3748 198.163 28.3748C206.914 28.3748 214.925 31.4635 220.718 37.0717C226.277 42.4532 229.344 49.6984 229.358 57.4778C229.442 58.6406 229.4 59.6874 229.203 60.5538C236.69 27.6972 206.897 -10.0899 164.57 9.2484L164.568 9.2491C164.009 9.54909 163.453 9.85747 162.898 10.1714C162.88 10.1819 162.862 10.1917 162.843 10.2022C162.305 10.5085 161.768 10.8211 161.234 11.1406C161.198 11.1616 161.163 11.1826 161.128 11.2036C160.607 11.5154 160.087 11.8343 159.57 12.1588C159.522 12.1888 159.474 12.2189 159.426 12.249C158.921 12.5664 158.418 12.8902 157.916 13.2189C157.854 13.2594 157.792 13.3 157.729 13.3412C157.241 13.6629 156.754 13.9901 156.267 14.3223C156.192 14.374 156.116 14.4258 156.04 14.4782C155.567 14.8034 155.095 15.1335 154.624 15.4684C154.534 15.532 154.445 15.5964 154.355 15.66C153.897 15.988 153.44 16.3194 152.983 16.6565C152.881 16.732 152.778 16.8089 152.676 16.8851C152.232 17.2145 151.79 17.5473 151.348 17.8851C151.23 17.9753 151.113 18.0662 150.995 18.1564C150.568 18.4844 150.142 18.8151 149.716 19.1515C149.579 19.2591 149.442 19.3689 149.306 19.4773C148.898 19.8018 148.49 20.1276 148.082 20.4591C147.927 20.585 147.772 20.7129 147.617 20.8402C147.228 21.1591 146.839 21.4786 146.449 21.8038C146.27 21.9534 146.091 22.1059 145.912 22.2569C145.545 22.5653 145.179 22.8744 144.813 23.1877C144.603 23.3674 144.394 23.5506 144.184 23.7317C143.848 24.0219 143.512 24.3114 143.177 24.6058C142.922 24.8295 142.666 25.0575 142.411 25.2834C142.117 25.5442 141.823 25.8029 141.529 26.0665C141.214 26.3483 140.899 26.6357 140.584 26.921C140.347 27.1364 140.11 27.3483 139.872 27.5658C139.318 28.0721 138.763 28.5839 138.207 29.1007L134.43 32.6145L145.179 43.363C147.635 45.8195 150.9 47.1712 154.375 47.1712Z" fill="url(#paint2_linear_10_2317)"/>
<path d="M108.537 67.515C102.454 69.6758 89.0164 74.4658 79.763 77.7642L82.3251 80.3263C74.8304 84.701 67.681 86.6904 59.7408 86.6904C50.9894 86.6904 42.9793 83.6017 37.1851 77.9943C32.0735 73.0455 29.0764 66.5199 28.6149 59.4531H1C2.01674 90.3511 27.4422 114.284 59.7408 114.284C73.4689 114.284 90.7213 111.468 114.59 90.5783C116.926 88.5337 118.325 85.5793 118.428 82.4724C118.532 79.3565 117.328 76.3062 115.124 74.1028L108.537 67.515Z" fill="url(#paint3_linear_10_2317)"/>
<path d="M115.124 74.1038L92.5319 51.5117C89.0984 48.0783 84.5343 46.1875 79.6793 46.1875H48.1855L75.7787 73.7814L82.3246 80.3273C93.5829 91.5855 94.6807 105.674 82.3785 110.613C88.388 108.506 94.9702 105.235 102.236 100.238L102.241 100.244C106.153 97.5531 110.261 94.3665 114.589 90.5786C116.924 88.5339 118.324 85.5795 118.427 82.4726C118.531 79.3574 117.327 76.3072 115.124 74.1038Z" fill="url(#paint4_linear_10_2317)"/>
<path d="M230.21 105.356C213.36 114.485 195.153 104.215 180.697 89.759C166.199 75.2611 148.83 57.8912 148.83 57.8912L132.469 41.5311C112.43 21.4984 91.7083 0.783203 59.7412 0.783203C47.827 0.783203 36.8555 4.05229 27.6895 9.71289C50.078 -3.27186 68.7331 16.8308 81.7563 29.854C94.8362 42.9338 109.443 57.5409 109.443 57.5409C109.443 57.5409 109.45 57.5513 109.452 57.5534L125.435 73.5367C145.475 93.5694 166.196 114.285 198.163 114.285C210.074 114.284 221.045 111.015 230.21 105.356Z" fill="url(#paint5_linear_10_2317)"/>
<defs>
<linearGradient id="paint0_linear_10_2317" x1="0.951591" y1="57.5346" x2="256.952" y2="57.5346" gradientUnits="userSpaceOnUse">
<stop stop-color="#FFDE3E"/>
<stop offset="0.25" stop-color="#FF793E"/>
<stop offset="0.5" stop-color="#FF31FA"/>
<stop offset="0.751" stop-color="#8733FF"/>
<stop offset="1" stop-color="#221DFF"/>
</linearGradient>
<linearGradient id="paint1_linear_10_2317" x1="0.951591" y1="57.5346" x2="256.952" y2="57.5346" gradientUnits="userSpaceOnUse">
<stop stop-color="#FFDE3E"/>
<stop offset="0.25" stop-color="#FF793E"/>
<stop offset="0.5" stop-color="#FF31FA"/>
<stop offset="0.751" stop-color="#8733FF"/>
<stop offset="1" stop-color="#221DFF"/>
</linearGradient>
<linearGradient id="paint2_linear_10_2317" x1="110.681" y1="32.2703" x2="224.022" y2="32.2703" gradientUnits="userSpaceOnUse">
<stop offset="0.21" stop-color="#FF31FA"/>
<stop offset="0.5859" stop-color="#8733FF"/>
<stop offset="0.7322" stop-color="#5927BB"/>
<stop offset="0.8548" stop-color="#371E88"/>
<stop offset="0.9473" stop-color="#22196A"/>
<stop offset="0.999" stop-color="#1A175E"/>
</linearGradient>
<linearGradient id="paint3_linear_10_2317" x1="12.5431" y1="86.8687" x2="129.978" y2="86.8687" gradientUnits="userSpaceOnUse">
<stop offset="0.1404" stop-color="#FF31FA" stop-opacity="0"/>
<stop offset="0.4275" stop-color="#8733FF"/>
<stop offset="0.5457" stop-color="#5927BB"/>
<stop offset="0.6446" stop-color="#371E88"/>
<stop offset="0.7193" stop-color="#22196A"/>
<stop offset="0.7611" stop-color="#1A175E"/>
</linearGradient>
<linearGradient id="paint4_linear_10_2317" x1="106.317" y1="97.4727" x2="31.5159" y2="32.2774" gradientUnits="userSpaceOnUse">
<stop stop-color="#221DFF"/>
<stop offset="0.3213" stop-color="#8733FF"/>
<stop offset="0.8151" stop-color="#FF31FA"/>
<stop offset="0.9677" stop-color="#FF793E"/>
<stop offset="1" stop-color="#FFDE3E"/>
</linearGradient>
<linearGradient id="paint5_linear_10_2317" x1="214.726" y1="119.347" x2="51.1519" y2="1.47217" gradientUnits="userSpaceOnUse">
<stop offset="0.003" stop-color="#1D254F"/>
<stop offset="0.0504" stop-color="#292658"/>
<stop offset="0.1352" stop-color="#48276F"/>
<stop offset="0.2476" stop-color="#7A2A95"/>
<stop offset="0.3818" stop-color="#BE2EC9"/>
<stop offset="0.4975" stop-color="#FF31FA"/>
<stop offset="1" stop-color="#FFDE3E"/>
</linearGradient>
</defs>
</svg>
