<svg width="256" height="132" viewBox="0 0 256 132" fill="none" xmlns="http://www.w3.org/2000/svg">
<path d="M104.66 108.525C111.404 98.0908 123.627 73.898 141.896 43.3867H202.879C189.122 66.3937 167.859 101.545 167.859 101.545C150.106 130.597 128.342 131.788 94.2949 131.788H76.3555C76.3555 131.788 92.0217 128.076 104.66 108.525Z" fill="url(#paint0_linear_10_2271)"/>
<path d="M187.757 9.80066C162.47 9.80066 58.1056 9.80066 36.1182 9.80066C28.0006 9.80066 17.8803 8.97159 7.42773 0.738281C21.3697 32.2352 24.4685 60.2045 72.547 60.2045C93.8358 60.2045 232.114 60.2045 255.996 60.2045C242.813 37.7168 235.834 9.80066 187.757 9.80066ZM211.796 35.5315C207.941 35.5315 204.817 32.4066 204.817 28.5527C204.817 24.6979 207.942 21.5738 211.796 21.5738C215.65 21.5738 218.774 24.6988 218.774 28.5527C218.774 32.4066 215.65 35.5315 211.796 35.5315Z" fill="url(#paint1_linear_10_2271)"/>
<path opacity="0.2" d="M133.69 9.80078L102.971 60.2046C116.058 60.2046 133.127 60.2046 151.173 60.2046C154.725 35.0975 157.639 15.5817 172.252 9.80078C161.757 9.80078 148.213 9.80078 133.69 9.80078Z" fill="#969696"/>
<path d="M68.3385 38.7365C85.9805 9.64764 108.658 10.0452 142.678 10.0452H168.371C168.371 10.0452 153.02 11.6877 142.085 30.2527C131.15 48.8176 99.2526 101.548 99.2526 101.548C81.4993 130.599 59.7355 131.79 25.6895 131.79H-0.00390625C-0.00390625 131.79 15.6624 128.078 28.3003 108.527C35.3826 97.5668 48.5104 71.4305 68.3385 38.7365Z" fill="url(#paint2_linear_10_2271)"/>
<defs>
<linearGradient id="paint0_linear_10_2271" x1="139.617" y1="46.4887" x2="139.617" y2="140.32" gradientUnits="userSpaceOnUse">
<stop stop-color="#FFCE00"/>
<stop offset="1" stop-color="#FF6900"/>
</linearGradient>
<linearGradient id="paint1_linear_10_2271" x1="7.42817" y1="30.471" x2="255.996" y2="30.471" gradientUnits="userSpaceOnUse">
<stop stop-color="#FFBA00"/>
<stop offset="1" stop-color="#FF4900"/>
</linearGradient>
<linearGradient id="paint2_linear_10_2271" x1="84.1831" y1="10.0446" x2="84.1831" y2="137.256" gradientUnits="userSpaceOnUse">
<stop stop-color="#FFCE00"/>
<stop offset="1" stop-color="#FF6900"/>
</linearGradient>
</defs>
</svg>
