<svg width="231" height="257" viewBox="0 0 231 257" fill="none" xmlns="http://www.w3.org/2000/svg">
<path fill-rule="evenodd" clip-rule="evenodd" d="M114.677 28.0156C158.337 28.0156 196.262 52.5504 215.436 88.5811C227.272 115.307 216.82 167.616 192.523 189.642C176.758 203.934 154.03 212.905 132.65 208.993C120.463 206.763 110.207 200.562 102.255 191.094L100 188.409C107.096 181.862 118.829 179.43 134.937 185.509C131.245 174.874 125.881 163.698 117.115 155.702C99.611 139.738 71.8232 138.338 50.9907 148.145C28.5103 158.725 17.9291 179.08 17.5386 201.892C6.8081 184.502 0.609375 164.019 0.609375 142.083C0.609375 79.0865 51.6802 28.0156 114.677 28.0156Z" fill="url(#paint0_linear_37_39721)"/>
<path fill-rule="evenodd" clip-rule="evenodd" d="M27.8125 216.004C15.6368 146.307 100.357 133.706 119.171 173.543C60.2518 170.818 71.2032 265.545 139.771 253.371C131.697 255.185 123.3 256.148 114.676 256.148C79.8838 256.148 48.7356 240.566 27.8125 216.004Z" fill="#73CEFF"/>
<path fill-rule="evenodd" clip-rule="evenodd" d="M27.8125 216.004C15.6368 146.307 100.357 133.706 119.171 173.543C73.3741 156.831 51.0659 215.496 75.6232 249.282C56.9109 242.461 40.4856 230.881 27.8125 216.004Z" fill="#41BCFF"/>
<path fill-rule="evenodd" clip-rule="evenodd" d="M27.8125 216.004C15.6368 146.307 100.357 133.706 119.171 173.543C119.171 173.543 86.9814 150.157 60.5756 174.878C46.4184 188.132 43.0828 211.878 46.3213 233.397C39.5245 228.301 33.3147 222.463 27.8125 216.004Z" fill="#0681BA"/>
<path fill-rule="evenodd" clip-rule="evenodd" d="M46.298 92.3125C56.5391 92.3125 64.8412 100.615 64.8412 110.857C64.8412 121.099 56.5391 129.401 46.298 129.401C36.0582 129.401 27.7539 121.099 27.7539 110.857C27.7539 100.615 36.0582 92.3125 46.298 92.3125Z" fill="white"/>
<path fill-rule="evenodd" clip-rule="evenodd" d="M172.549 203.835C171.977 183.063 162.049 131.362 147.741 103.853L148.347 103.3C149.115 102.515 149.836 101.845 150.466 101.362L150.429 101.218L150.715 100.956L150.342 99.5662L151.181 100.586C151.181 100.586 152.491 99.3356 153.503 98.8595V98.5927C153.576 98.5543 153.647 98.5172 153.716 98.4854V97.8489L154.339 98.3838C154.339 98.3838 158.805 95.1656 161.13 94.5706L161.175 94.2667L161.249 94.2473L161.427 93.0441L161.964 93.795C161.964 93.795 163.929 92.9019 166.431 92.7831C166.908 92.7831 167.384 92.723 167.92 92.7831C168.517 91.4713 168.517 91.4713 168.517 91.4713L168.874 92.4258H170.044L169.9 92.4823C169.841 92.4823 169.781 92.541 169.722 92.541C167.84 93.3065 165.839 94.8953 164.132 97.8387L164.259 97.8533C164.189 97.9673 164.119 98.0852 164.05 98.2036L164.564 98.2694L163.543 98.897L163.652 99.1545L163.454 99.2769L163.7 99.8692C163.171 100.897 161.292 104.673 160.837 107.194L161.141 107.263C161.061 107.607 160.984 107.953 160.911 108.302L160.896 108.313L160.908 108.316C160.825 108.713 160.745 109.115 160.673 109.522C160.386 110.201 160.144 111.272 160.205 112.931C159.569 119.508 160.46 126.444 164.05 130.673C165.955 123.047 166.184 120.062 166.184 120.062L165.59 119.108L166.542 119.406L168.329 114.164L167.495 113.747L169.223 112.852L170.354 110.411L169.343 109.516L171.189 110.113C172.294 107.797 173.671 105.445 175.695 103L175.19 102.136L176.858 103.387L177.096 102.911C177.334 103.744 177.573 104.579 177.75 105.175C177.93 105.115 178.048 104.996 178.227 104.936C178.288 105.175 178.407 105.473 178.467 105.771C178.775 106.808 179.059 107.931 179.318 109.127C184.236 132.884 185.154 180.347 172.549 203.835ZM143.491 94.4081L142.77 94.0123C142.77 94.0123 142.477 94.1886 142.064 94.5424C140.859 92.4867 139.636 90.473 138.405 88.5155C142.176 87.2049 145.028 87.5049 145.028 87.5049L145.117 87.2513C145.265 87.2593 145.345 87.2672 145.345 87.2672L145.683 86.2995L145.827 86.9686L150.476 86.2284L150.535 86.038L150.725 86.0088L150.998 85.1259L151.399 85.8529L157.067 86.0857C155.699 86.6091 153.935 87.3556 151.773 88.598L151.828 88.6864L151.538 88.8516L152.113 89.799L150.774 88.8922C150.774 88.8922 145.419 91.8357 143.594 93.0128L143.613 93.0949L143.258 93.3189L143.491 94.4081ZM137.536 87.1462C133.401 80.6864 129.193 74.8958 125.258 70.33L126.704 68.9427L124.821 67.1189C125.175 67.1777 125.528 67.1777 125.822 67.1777C126.352 64.588 126.352 64.588 126.352 64.588L127.117 67.4714L129.823 68.8252L130.883 66.353V68.9427C130.883 68.9427 138.239 73.2395 140.651 75.7699C141.593 74.7103 141.946 74.4166 141.946 74.4166V76.0054C141.946 76.0054 143.597 77.4241 145.165 78.9382L144.874 79.099L144.95 79.1723C142.82 80.2262 139.42 82.5442 137.536 87.1462ZM126.752 54.1243L127.125 54.5245H126.751L126.752 54.1243ZM130.73 54.763L129.411 55.8791L129.133 54.9927C129.628 54.8964 130.173 54.8222 130.73 54.763ZM135.621 54.5642L135.875 53.5249C135.875 53.5249 135.875 53.5249 136.574 54.4794C137.697 54.2374 139.484 54.536 139.484 54.536L139.697 52.4079L140.559 54.8186L147.921 55.7219L148.674 54.7656L148.884 56.3124L153.952 57.9971L154.412 56.8266L154.745 58.7409C154.745 58.7409 157.819 58.922 161.649 60.9211C160.604 60.5231 159.997 60.4326 159.997 60.4326L158.782 61.5474C158.848 61.3001 158.984 60.8667 159.247 60.1751L159.074 60.1543L159.104 60.0752C153.106 59.327 148.554 60.6477 145.486 62.5664L145.635 62.736C145.354 62.9171 145.085 63.1035 144.83 63.2934C143.654 62.2338 142.299 61.2334 140.77 60.41C139.357 60.9993 139.357 60.9993 139.357 60.9993L139.181 59.4092C139.181 59.4092 133.083 55.7718 131.188 54.7179C133.389 54.5236 135.621 54.5642 135.621 54.5642ZM165.3 73.4215C165.3 73.4215 165.343 73.7686 164.321 74.8313L164.298 74.8552L164.261 74.8927L164.24 74.9139L164.199 74.9546C164.074 75.08 163.933 75.2138 163.781 75.3574L163.785 75.3583L163.691 75.4466C165.299 75.6851 165.718 76.5782 165.718 76.5782L167.222 76.0208L166.016 77.1233L166.051 77.1471L165.955 77.2333C166.492 77.5791 167.085 78.2205 167.654 78.9506C167.243 78.8273 166.809 78.7041 166.35 78.5844L166.317 78.7178L166.293 78.7121L165.938 80.1789L165.523 78.1648C165.523 78.1648 160.328 76.7403 158.503 76.3419L158.427 76.4599L158.351 76.444L157.658 77.4965L157.381 76.4678C157.381 76.4678 156.669 76.3115 155.503 76.2562C154.208 73.936 152.611 71.5036 150.655 69.1189C149.302 69.2364 149.302 69.2364 149.302 69.2364V68.1772C149.302 68.1772 148.772 67.4714 147.949 66.471C148.726 66.6834 149.355 66.8959 149.734 67.0315L149.869 67.1649L149.982 67.122L150.127 67.1777L151.778 66.5456L151.121 67.4038L155.828 70.2033L155.961 70.1481L156.011 70.1785L158.613 69.0951C158.461 69.2603 158.059 69.6856 157.256 70.4418C158.329 71.0977 162.083 74.8517 162.083 74.8517L165.3 73.4215ZM104.4 39.93C104.4 39.93 104.4 39.93 104.636 39.3421C104.695 39.5184 104.754 39.695 104.814 39.8125L104.4 39.93ZM92.0545 57.9449L92.6923 57.8601L92.8664 58.35L92.0545 57.9449ZM228.705 123.419C231.236 147.374 225.907 161.451 215.861 178.242C209.35 189.123 200.662 198.716 190.176 205.886C195.855 171.685 193.588 131.458 184.689 106.767C184.229 105.454 183.733 104.183 183.2 102.958C183.141 102.84 183.141 102.781 183.081 102.721C183.081 102.663 183.081 102.663 183.024 102.605L182.997 102.526L183.649 102.255L183.44 101.862L183.494 101.84L182.786 100.514C182.995 100.617 183.203 100.714 183.411 100.766L184.221 99.3369L184.141 100.838L184.316 101.02L184.304 101.243L185.914 102.911L186.723 102.03L186.436 102.84L186.679 103.124L186.628 103.268C186.628 103.268 190.917 108.213 192.05 110.596C192.333 110.436 192.56 110.313 192.736 110.22L192.614 110.549C192.614 110.549 192.723 110.734 192.895 111.039L192.882 111.071L193.011 111.245C193.732 112.53 195.204 115.241 195.381 116.257L195.986 115.911C196.096 116.159 196.171 116.378 196.202 116.552C196.747 116.237 197.143 116.018 197.43 115.868L197.03 116.727C197.03 116.727 197.193 116.854 197.465 117.086L197.351 117.328C197.351 117.328 199.951 119.323 201.661 122.128C202.162 123.071 202.542 124.09 202.678 125.143C202.678 125.143 202.716 124.914 202.764 124.488C202.905 124.932 203.012 125.387 203.07 125.847C203.07 125.847 204.441 117.627 200.984 108.273L200.778 108.223L200.619 107.783L200.088 107.658L200.211 107.26C200.211 107.26 198.979 103.259 196.47 100.206C196.184 99.8356 195.881 99.4748 195.559 99.132L194.75 99.1726L194.909 98.3838L194.611 98.0353L194.617 98.0136C194.617 98.0136 191.964 94.9143 190.568 93.2986L191.047 92.7433L191.145 93.8096L197.021 96.6771L198.816 95.31L197.952 96.9871C197.952 96.9871 199.417 97.6249 200.13 98.3418C201.105 97.9721 201.105 97.9721 201.105 97.9721L200.794 98.863C200.794 98.863 204.906 101.426 206.152 103.15C207.564 102.796 207.564 102.796 207.564 102.796L207.085 103.537C207.085 103.537 208.467 104.855 209.41 106.872C209.589 107.26 209.771 107.65 209.871 108.08C211.107 108.135 211.107 108.135 211.107 108.135L210.462 108.725C210.462 108.725 210.737 109.385 211.146 110.358C211.128 110.342 211.117 110.328 211.11 110.313L213.227 116.54L215.028 113.179C215.079 113.052 215.111 112.944 215.17 112.808C215.205 112.688 215.237 112.565 215.271 112.446C215.303 112.284 215.371 112.081 215.403 111.919C215.434 111.76 215.464 111.6 215.496 111.438C215.527 111.279 215.556 111.077 215.586 110.878C215.617 110.716 215.647 110.518 215.676 110.315C215.705 110.116 215.693 109.878 215.721 109.677C215.75 109.477 215.741 109.319 215.771 109.119C215.79 108.721 215.767 108.324 215.746 107.887C215.732 107.65 215.72 107.412 215.707 107.174C215.697 107.017 215.688 106.815 215.679 106.659L215.682 106.698C215.463 104.803 214.987 102.601 214.018 100.067C212.928 100.524 212.928 100.524 212.928 100.524L213.424 99.3842C213.424 99.3842 212.3 96.9394 207.653 93.2513C206.612 94.6183 206.612 94.6183 206.612 94.6183L207.057 92.5274C207.057 92.5274 202.819 89.0945 201.289 87.9841C200.021 88.8061 200.021 88.8061 200.021 88.8061L200.198 87.6449C200.198 87.6449 197.134 85.4086 192.553 84.9594C191.369 84.5274 190.216 84.0976 189.264 83.7248L190.497 83.0915L190.473 81.7165L191.258 82.447L197.55 80.6683L197.976 78.4497L198.449 80.2761C198.449 80.2761 199.966 79.7761 200.976 79.8348C201.455 78.9091 201.455 78.9091 201.455 78.9091L201.819 79.7818C201.819 79.7818 206.595 78.9506 208.67 79.4051C209.486 78.2001 209.486 78.2001 209.486 78.2001L209.625 79.0694C209.625 79.0694 211.531 79.133 213.579 80.0067C213.972 80.1776 214.366 80.3459 214.729 80.6003C215.686 79.8167 215.686 79.8167 215.686 79.8167L215.6 80.6864C215.6 80.6864 216.243 80.9974 217.197 81.4484C217.173 81.4484 217.156 81.4453 217.14 81.4395L222.871 84.6701L221.972 80.9647C221.925 80.8344 221.878 80.7328 221.83 80.5901C221.777 80.4771 221.72 80.3675 221.665 80.2531C221.579 80.1131 221.496 79.9152 221.412 79.7739C221.329 79.6348 221.245 79.4947 221.161 79.3543C221.077 79.2143 220.965 79.0447 220.853 78.875C220.768 78.7346 220.659 78.5676 220.546 78.3989C220.435 78.2284 220.268 78.061 220.153 77.8901C220.042 77.724 219.931 77.6096 219.818 77.4413C219.567 77.1312 219.287 76.8499 218.977 76.5411C218.81 76.3715 218.642 76.2032 218.475 76.0323C218.363 75.9228 218.223 75.7801 218.111 75.6683L218.138 75.6966C216.71 74.429 214.89 73.1048 212.478 71.8632C211.968 72.9307 211.968 72.9307 211.968 72.9307L211.579 71.7492C211.579 71.7492 209.113 70.6772 203.189 71.0253C203.325 72.7373 203.325 72.7373 203.325 72.7373L202.262 70.8808C202.262 70.8808 196.815 71.1485 194.936 71.342C194.538 72.7995 194.538 72.7995 194.538 72.7995L193.895 71.8137C193.895 71.8137 189.515 72.2532 185.548 75.5835C185.572 77.2399 184.619 76.7876 184.619 76.7876L184.561 76.826L186.212 71.5138L184.841 70.8592L186.807 71.1578C186.807 71.1578 188.891 66.9877 191.393 64.6052L190.911 64.1225L191.438 64.4118L191.535 64.2806L191.692 64.3654C191.692 64.3654 194.731 60.194 196.28 59.3009L195.978 58.6733L196.323 58.9966C196.323 58.9966 196.372 58.895 196.461 58.7197L196.636 58.8849C196.636 58.8849 198.778 54.3628 201.105 53.0205C201.257 52.9573 201.409 52.9088 201.56 52.877L201.401 52.869C201.581 52.7877 201.76 52.7268 201.938 52.6892C201.938 52.6892 198.244 52.3911 190.738 53.8814L190.746 54.0046L190.497 54.0541L190.536 54.7268L190.142 54.4772C189.999 54.5744 186.462 56.2466 184.216 57.9904C183.64 58.4255 183.14 58.8676 182.787 59.2908C182.394 60.2382 182.183 60.895 182.088 61.2241L181.562 60.0165C181.562 60.0165 181.518 60.0527 181.439 60.1274L181.435 60.115C181.435 60.115 178.962 62.175 177.197 66.1768C177.543 67.1697 177.603 67.656 177.609 67.8446L176.679 66.7488L176.639 66.8022L176.609 66.7647C176.609 66.7647 176.137 67.3539 175.667 68.7073C175.608 68.9427 175.49 69.1777 175.432 69.4718C175.432 69.5319 175.373 69.6481 175.373 69.7081C175.314 69.9431 175.255 70.2373 175.195 70.5314C175.195 70.5902 175.195 70.6498 175.137 70.7077C175.079 71.0606 175.02 71.4745 174.96 71.8848C174.96 71.9449 174.96 72.061 174.903 72.179C174.843 72.5328 174.843 72.9444 174.784 73.4148C174.784 73.4736 174.784 73.5332 174.784 73.6511V74.463C174.013 73.0111 173.109 71.5288 172.362 70.357L172.343 70.33L172.285 70.2386L172.269 70.2125L172.21 70.1229L172.194 70.0973L172.138 70.0089L172.122 69.9851L172.066 69.8967L172.051 69.8742L171.995 69.7872L171.982 69.7656L171.925 69.6807L171.913 69.6604L171.726 69.3769L171.716 69.3623L171.665 69.2806L171.654 69.2673L171.603 69.1891L171.594 69.1768L171.543 69.0999L171.535 69.0871L171.487 69.0138L171.479 69.0014L171.431 68.9303L171.423 68.9202L171.377 68.8499L171.37 68.8406L171.326 68.7731L171.32 68.7651L171.277 68.7006L171.272 68.6927L171.23 68.6304L171.225 68.6238L171.186 68.5637L171.181 68.5593L171.144 68.5014L171.139 68.497L171.103 68.444L171.101 68.4396L171.066 68.3884L171.063 68.3839C171.063 68.3839 171.031 68.3376 171.03 68.3345C171.03 68.3345 171 68.2912 170.998 68.2881C170.998 68.2881 170.97 68.2483 170.968 68.2461C170.968 68.2461 170.944 68.2099 170.943 68.2086C170.943 68.2086 170.92 68.175 170.92 68.1737C170.92 68.1737 170.9 68.1454 170.899 68.1441L170.881 68.1194L170.868 68.0977L170.855 68.0809L170.848 68.0694C170.848 68.0694 170.842 68.0619 170.841 68.0593L168.782 68.236L169.371 67.4714C168.698 66.2854 167.946 65.5244 167.525 65.1525L167.513 65.1432L167.483 65.1172L167.469 65.1026L167.454 65.0911L167.442 65.0809L167.426 65.0664L167.416 65.0584L167.399 65.0425L167.392 65.0381C167.238 64.9069 167.147 64.8438 167.147 64.8438L165.997 65.1693L166.78 63.8813L166.724 63.8398L166.729 63.8292C165.555 62.9383 164.479 62.278 163.551 61.7872C162.383 51.812 154.38 48.2277 154.38 48.2277C154.38 48.2277 153.39 48.8991 153.129 47.0378C148.105 43.9954 143.12 44.263 143.12 44.263L142.57 45.4777C142.57 45.4777 142.57 45.4777 141.871 43.9128C139.731 44.0236 133.579 44.669 133.579 44.669L132.711 46.9326L132.588 45.282C133.415 44.2529 134.351 43.2264 135.12 42.756C133.943 40.6946 133.943 40.6946 133.943 40.6946L135.708 41.3426C135.708 41.3426 138.651 38.8117 140.594 37.8112L140.525 37.1292L143.236 35.6456L143.269 34.9234C143.383 34.8417 143.501 34.7582 143.624 34.6743L144.458 35.5577L149.983 33.8364L149.65 32.5184L151.152 33.9915C151.152 33.9915 154.976 31.5776 161.026 31.3254C153.666 23.0304 144.187 24.9672 144.187 24.9672C144.187 24.9672 143.742 26.1827 142.334 24.7106C135.989 25.2057 131.77 28.5922 131.77 28.5922L131.796 28.7198C131.527 28.9959 131.306 29.2446 131.125 29.4654L130.45 29.0719C129.675 29.6916 128.317 30.8581 127.017 31.9937C124.947 33.2702 122.534 35.093 121.645 37.0696C121.299 37.3929 120.972 37.7083 120.667 38.0126L120.525 37.87L119.397 39.3377C118.625 40.1822 118.03 40.9243 117.571 41.5449L117.466 40.2843L115.699 40.6946L117.23 39.5184L116.994 30.044L114.994 29.8077L117.583 29.3373C117.583 29.3373 118.406 23.3356 120.525 19.3325C118.996 18.5684 118.996 18.5684 118.996 18.5684L120.761 18.9213C120.761 18.9213 122.702 12.4478 124.291 10.7411C122.938 9.32904 122.938 9.32904 122.938 9.32904L124.586 10.0344C124.586 10.0344 125.528 1.91477 128.529 0.148438C128.529 0.148438 123.82 1.3843 115.17 6.38559C115.699 7.62278 115.699 7.62278 115.699 7.62278L114.758 7.32773C114.758 7.32773 109.226 12.6241 107.991 15.92C107.873 17.9213 107.991 18.9213 107.991 18.9213L106.696 17.5088C106.696 17.5088 104.46 21.1576 103.929 26.8656C105.108 28.3369 105.167 28.8669 105.167 28.8669L103.4 27.8077C103.4 27.8077 103.047 28.7494 103.047 30.6911C103.047 30.9862 103.047 31.3386 103.047 31.6907C103.047 31.809 103.047 31.927 103.047 32.0445C103.047 32.3983 103.106 32.7512 103.165 33.1628C103.165 33.2216 103.165 33.3391 103.165 33.3978C103.224 33.8695 103.342 34.3987 103.459 34.9278C103.459 35.0467 103.519 35.1641 103.519 35.2816C103.636 35.8108 103.753 36.3413 103.929 36.9292C103.929 36.9879 103.99 37.0466 103.99 37.1646C104.106 37.5171 104.225 37.87 104.342 38.2238C100.987 35.0467 96.6327 31.8682 96.6327 31.8682L94.1022 32.9862C94.1022 32.9862 94.1022 32.9862 94.5152 31.809C92.5126 30.044 90.7476 29.5149 90.7476 29.5149L89.335 30.4557C89.335 30.4557 89.335 30.4557 89.8067 28.4553C83.6858 26.4539 80.0957 27.1019 80.0957 27.1019L78.9199 29.3373C78.9199 29.3373 78.8598 28.8073 78.8598 27.0418C66.7375 29.5149 61.0883 36.8117 59.7937 41.9318C64.3254 39.1659 70.5038 39.695 70.5038 39.695L72.6818 37.93L72.1514 39.4596L79.0961 40.9309L82.1562 38.2825C82.1562 38.2825 81.9207 38.9305 80.9791 40.6367C82.6266 40.9896 88.8059 43.9918 88.8059 43.9918L92.161 40.8708C92.161 40.8708 92.4547 41.4614 91.0413 44.0506C93.1027 43.6968 93.9847 44.5797 93.9847 44.5797L95.691 43.1676C95.691 43.1676 95.691 43.1676 94.5726 45.2864C95.2555 45.4596 96.0788 45.8735 96.9282 46.3982C95.24 46.2984 93.0868 46.2997 90.4229 46.5267C90.6672 48.8496 90.6672 48.8496 90.6672 48.8496L89.1588 46.3651C89.1588 46.3651 81.7684 46.9203 79.2185 47.2462C78.7313 49.2427 78.7313 49.2427 78.7313 49.2427L77.8218 47.9278C77.8218 47.9278 71.8846 48.6764 66.613 53.3429C66.7044 55.5929 65.3917 55.013 65.3917 55.013C65.3917 55.013 56.564 61.058 57.4991 73.2881C62.3537 68.671 67.211 67.4886 67.211 67.4886L67.1942 65.1613L67.988 66.4405L73.6032 63.3703L73.5219 61.5023L74.6129 62.4679L83.1001 59.8279L83.6009 56.7996L84.309 59.2647C84.309 59.2647 86.3536 58.5297 87.7272 58.5739C88.3469 57.3005 88.3469 57.3005 88.3469 57.3005L88.8704 58.471C88.8704 58.471 89.2255 58.3994 89.8054 58.2965C88.2193 59.2908 85.3774 61.4109 81.6858 65.5876C83.627 67.2364 83.627 67.2364 83.627 67.2364L80.5674 66.4122C80.5674 66.4122 75.1522 72.4153 73.3872 74.5919C74.5056 76.5345 74.5056 76.5345 74.5056 76.5345L72.7993 76.1803C72.7993 76.1803 68.6788 81.2416 68.0321 88.8922C69.7985 90.5994 68.3259 91.129 68.3259 91.129C68.3259 91.129 65.9142 102.545 75.8589 111.491C76.2127 104.193 79.154 99.6024 79.154 99.6024L77.3898 97.7787L78.9786 98.1903L81.0965 91.5415L79.6257 90.1281L81.214 90.0702L85.9225 81.5954L84.0387 78.8296L86.4516 80.2421C86.4516 80.2421 87.5113 78.1228 88.6296 77.1233C88.1579 75.6524 88.1579 75.6524 88.1579 75.6524L89.4525 76.1803C89.4525 76.1803 93.5731 70.296 96.2215 68.5898C95.8098 66.471 95.8098 66.471 95.8098 66.471L96.8681 67.2364C96.8681 67.2364 98.9282 65.2947 101.988 64.058C102.577 63.8239 103.165 63.5876 103.812 63.4697C103.99 61.6459 103.99 61.6459 103.99 61.6459L104.814 62.6455C104.814 62.6455 105.813 62.2925 107.285 61.7634C107.227 61.8221 107.167 61.8221 107.167 61.8813C106.813 62.1163 106.519 62.3526 106.166 62.6455C106.107 62.7042 105.99 62.7643 105.932 62.8221C103.871 64.588 102.047 67.4127 101.164 71.8848C102.341 71.6507 102.341 71.6507 102.341 71.6507L100.812 73.4736L101.518 74.239C101.518 74.239 100.458 81.125 101.046 85.0093C102.811 84.8317 102.811 84.8317 102.811 84.8317L101.635 86.3618L102.459 86.2451C102.459 86.2451 100.458 88.3631 103.99 95.0715C104.93 94.8953 104.93 94.8953 104.93 94.8953L104.46 97.3082L105.578 97.3661C105.578 97.3661 109.168 105.958 114.876 111.961C113.993 101.78 115.464 99.4271 115.464 99.4271L114.288 98.5428H115.583L115.523 91.3052L114.346 91.129L116.112 89.246L116.465 85.7147L114.817 85.0093H117.348L118.524 73.7099L116.523 71.9449L119.054 72.7677L119.073 72.061C121.803 75.5292 132.483 89.5932 138.054 102.932C137.137 104.962 135.325 111.961 137.502 116.276C138.483 114.12 140.256 111.756 141.601 110.698L141.747 111.032L141.799 110.966C155.58 142.049 156.846 199.921 151.817 220.682C130.582 223.261 109.115 216.873 93.5775 198.376C86.8386 222.179 103.423 240.413 121.084 244.292C136.672 247.718 153.044 247.603 168.335 242.806C181.885 238.554 194.159 230.768 203.976 220.529C213.586 210.506 220.819 198.265 225.162 185.087C228.443 175.13 229.534 164.632 230.275 154.225C230.636 149.132 230.805 144.035 230.6 138.929C230.493 136.268 230.291 133.609 229.97 130.966C229.675 128.541 228.705 125.83 228.705 123.419Z" fill="#00283B"/>
<defs>
<linearGradient id="paint0_linear_37_39721" x1="151.811" y1="174.056" x2="90.4299" y2="53.0615" gradientUnits="userSpaceOnUse">
<stop stop-color="#FC5700"/>
<stop offset="0.25" stop-color="#FC5700"/>
<stop offset="0.265625" stop-color="#FC5700"/>
<stop offset="0.269531" stop-color="#FC5800"/>
<stop offset="0.273438" stop-color="#FC5900"/>
<stop offset="0.277344" stop-color="#FC5A00"/>
<stop offset="0.28125" stop-color="#FC5A00"/>
<stop offset="0.285156" stop-color="#FB5B00"/>
<stop offset="0.289062" stop-color="#FB5C00"/>
<stop offset="0.292969" stop-color="#FB5C00"/>
<stop offset="0.296875" stop-color="#FB5D00"/>
<stop offset="0.300781" stop-color="#FB5E00"/>
<stop offset="0.304688" stop-color="#FB5F00"/>
<stop offset="0.308594" stop-color="#FB5F00"/>
<stop offset="0.3125" stop-color="#FB6001"/>
<stop offset="0.316406" stop-color="#FB6101"/>
<stop offset="0.320312" stop-color="#FB6101"/>
<stop offset="0.324219" stop-color="#FB6201"/>
<stop offset="0.328125" stop-color="#FA6301"/>
<stop offset="0.332031" stop-color="#FA6301"/>
<stop offset="0.335938" stop-color="#FA6401"/>
<stop offset="0.339844" stop-color="#FA6501"/>
<stop offset="0.34375" stop-color="#FA6601"/>
<stop offset="0.347656" stop-color="#FA6601"/>
<stop offset="0.351562" stop-color="#FA6701"/>
<stop offset="0.355469" stop-color="#FA6801"/>
<stop offset="0.359375" stop-color="#FA6801"/>
<stop offset="0.363281" stop-color="#FA6901"/>
<stop offset="0.367187" stop-color="#FA6A01"/>
<stop offset="0.371094" stop-color="#F96A01"/>
<stop offset="0.375" stop-color="#F96B01"/>
<stop offset="0.378906" stop-color="#F96C01"/>
<stop offset="0.382812" stop-color="#F96D01"/>
<stop offset="0.386719" stop-color="#F96D01"/>
<stop offset="0.390625" stop-color="#F96E01"/>
<stop offset="0.394531" stop-color="#F96F01"/>
<stop offset="0.398438" stop-color="#F96F01"/>
<stop offset="0.402344" stop-color="#F97001"/>
<stop offset="0.40625" stop-color="#F97101"/>
<stop offset="0.410156" stop-color="#F97102"/>
<stop offset="0.414062" stop-color="#F87202"/>
<stop offset="0.417969" stop-color="#F87302"/>
<stop offset="0.421875" stop-color="#F87402"/>
<stop offset="0.425781" stop-color="#F87402"/>
<stop offset="0.429688" stop-color="#F87502"/>
<stop offset="0.433594" stop-color="#F87602"/>
<stop offset="0.4375" stop-color="#F87602"/>
<stop offset="0.441406" stop-color="#F87702"/>
<stop offset="0.445312" stop-color="#F87802"/>
<stop offset="0.449219" stop-color="#F87802"/>
<stop offset="0.453125" stop-color="#F87902"/>
<stop offset="0.457031" stop-color="#F77A02"/>
<stop offset="0.460937" stop-color="#F77B02"/>
<stop offset="0.464844" stop-color="#F77B02"/>
<stop offset="0.46875" stop-color="#F77C02"/>
<stop offset="0.472656" stop-color="#F77D02"/>
<stop offset="0.476562" stop-color="#F77D02"/>
<stop offset="0.480469" stop-color="#F77E02"/>
<stop offset="0.484375" stop-color="#F77F02"/>
<stop offset="0.488281" stop-color="#F77F02"/>
<stop offset="0.492188" stop-color="#F78002"/>
<stop offset="0.496094" stop-color="#F78102"/>
<stop offset="0.5" stop-color="#F68202"/>
<stop offset="0.503906" stop-color="#F68202"/>
<stop offset="0.507812" stop-color="#F68302"/>
<stop offset="0.511719" stop-color="#F68403"/>
<stop offset="0.515625" stop-color="#F68403"/>
<stop offset="0.519531" stop-color="#F68503"/>
<stop offset="0.523438" stop-color="#F68603"/>
<stop offset="0.527344" stop-color="#F68603"/>
<stop offset="0.53125" stop-color="#F68703"/>
<stop offset="0.535156" stop-color="#F68803"/>
<stop offset="0.539062" stop-color="#F68903"/>
<stop offset="0.542969" stop-color="#F58903"/>
<stop offset="0.546875" stop-color="#F58A03"/>
<stop offset="0.550781" stop-color="#F58B03"/>
<stop offset="0.554688" stop-color="#F58B03"/>
<stop offset="0.558594" stop-color="#F58C03"/>
<stop offset="0.5625" stop-color="#F58D03"/>
<stop offset="0.566406" stop-color="#F58D03"/>
<stop offset="0.570312" stop-color="#F58E03"/>
<stop offset="0.574219" stop-color="#F58F03"/>
<stop offset="0.578125" stop-color="#F58F03"/>
<stop offset="0.582031" stop-color="#F59003"/>
<stop offset="0.585938" stop-color="#F49103"/>
<stop offset="0.589844" stop-color="#F49203"/>
<stop offset="0.59375" stop-color="#F49203"/>
<stop offset="0.597656" stop-color="#F49303"/>
<stop offset="0.601562" stop-color="#F49403"/>
<stop offset="0.605469" stop-color="#F49403"/>
<stop offset="0.609375" stop-color="#F49504"/>
<stop offset="0.613281" stop-color="#F49604"/>
<stop offset="0.617188" stop-color="#F49604"/>
<stop offset="0.621094" stop-color="#F49704"/>
<stop offset="0.625" stop-color="#F49804"/>
<stop offset="0.628906" stop-color="#F39904"/>
<stop offset="0.632812" stop-color="#F39904"/>
<stop offset="0.636719" stop-color="#F39A04"/>
<stop offset="0.640625" stop-color="#F39B04"/>
<stop offset="0.644531" stop-color="#F39B04"/>
<stop offset="0.648437" stop-color="#F39C04"/>
<stop offset="0.652344" stop-color="#F39D04"/>
<stop offset="0.65625" stop-color="#F39D04"/>
<stop offset="0.660156" stop-color="#F39E04"/>
<stop offset="0.664062" stop-color="#F39F04"/>
<stop offset="0.667969" stop-color="#F3A004"/>
<stop offset="0.671875" stop-color="#F2A004"/>
<stop offset="0.675781" stop-color="#F2A104"/>
<stop offset="0.679688" stop-color="#F2A204"/>
<stop offset="0.683594" stop-color="#F2A204"/>
<stop offset="0.6875" stop-color="#F2A304"/>
<stop offset="0.691406" stop-color="#F2A404"/>
<stop offset="0.695312" stop-color="#F2A404"/>
<stop offset="0.699219" stop-color="#F2A504"/>
<stop offset="0.703125" stop-color="#F2A604"/>
<stop offset="0.707031" stop-color="#F2A705"/>
<stop offset="0.710938" stop-color="#F2A705"/>
<stop offset="0.714844" stop-color="#F1A805"/>
<stop offset="0.71875" stop-color="#F1A905"/>
<stop offset="0.722656" stop-color="#F1A905"/>
<stop offset="0.726562" stop-color="#F1AA05"/>
<stop offset="0.730469" stop-color="#F1AB05"/>
<stop offset="0.734375" stop-color="#F1AB05"/>
<stop offset="0.738281" stop-color="#F1AC05"/>
<stop offset="0.742187" stop-color="#F1AD05"/>
<stop offset="0.746094" stop-color="#F1AE05"/>
<stop offset="0.75" stop-color="#F1AE05"/>
<stop offset="0.753906" stop-color="#F1AF05"/>
<stop offset="0.757812" stop-color="#F0B005"/>
<stop offset="0.761719" stop-color="#F0B005"/>
<stop offset="0.765625" stop-color="#F0B105"/>
<stop offset="0.769531" stop-color="#F0B205"/>
<stop offset="0.773438" stop-color="#F0B205"/>
<stop offset="0.777344" stop-color="#F0B305"/>
<stop offset="0.78125" stop-color="#F0B405"/>
<stop offset="0.785156" stop-color="#F0B505"/>
<stop offset="0.789062" stop-color="#F0B505"/>
<stop offset="0.792969" stop-color="#F0B605"/>
<stop offset="0.796875" stop-color="#F0B705"/>
<stop offset="0.800781" stop-color="#EFB705"/>
<stop offset="0.804688" stop-color="#EFB806"/>
<stop offset="0.808594" stop-color="#EFB906"/>
<stop offset="0.8125" stop-color="#EFB906"/>
<stop offset="0.816406" stop-color="#EFBA06"/>
<stop offset="0.820312" stop-color="#EFBB06"/>
<stop offset="0.824219" stop-color="#EFBC06"/>
<stop offset="0.828125" stop-color="#EFBC06"/>
<stop offset="0.832031" stop-color="#EFBD06"/>
<stop offset="0.835937" stop-color="#EFBE06"/>
<stop offset="0.839844" stop-color="#EFBE06"/>
<stop offset="0.84375" stop-color="#EEBF06"/>
<stop offset="0.847656" stop-color="#EEC006"/>
<stop offset="0.851562" stop-color="#EEC006"/>
<stop offset="0.855469" stop-color="#EEC106"/>
<stop offset="0.859375" stop-color="#EEC206"/>
<stop offset="0.863281" stop-color="#EEC306"/>
<stop offset="0.867188" stop-color="#EEC306"/>
<stop offset="0.871094" stop-color="#EEC406"/>
<stop offset="0.875" stop-color="#EEC506"/>
<stop offset="0.878906" stop-color="#EEC506"/>
<stop offset="0.882812" stop-color="#EEC606"/>
<stop offset="0.886719" stop-color="#EDC706"/>
<stop offset="0.890625" stop-color="#EDC706"/>
<stop offset="0.894531" stop-color="#EDC806"/>
<stop offset="0.898438" stop-color="#EDC906"/>
<stop offset="0.902344" stop-color="#EDCA07"/>
<stop offset="0.90625" stop-color="#EDCA07"/>
<stop offset="0.910156" stop-color="#EDCB07"/>
<stop offset="0.914062" stop-color="#EDCC07"/>
<stop offset="0.917969" stop-color="#EDCC07"/>
<stop offset="0.921875" stop-color="#EDCD07"/>
<stop offset="0.925781" stop-color="#EDCE07"/>
<stop offset="0.929687" stop-color="#ECCE07"/>
<stop offset="0.933594" stop-color="#ECCF07"/>
<stop offset="0.9375" stop-color="#ECD007"/>
<stop offset="0.941406" stop-color="#ECD107"/>
<stop offset="0.945312" stop-color="#ECD107"/>
<stop offset="0.953125" stop-color="#ECD207"/>
<stop offset="0.96875" stop-color="#ECD207"/>
<stop offset="1" stop-color="#ECD207"/>
</linearGradient>
</defs>
</svg>
