<svg width="236" height="257" viewBox="0 0 236 257" fill="none" xmlns="http://www.w3.org/2000/svg">
<path d="M231.795 65.0223L122.534 1.81311C119.532 0.0518812 115.749 0.0518812 112.748 1.81311L3.4864 65.0223C1.46451 66.1965 0.224609 68.3499 0.224609 70.6982V73.4386C0.224609 77.0268 3.22574 80.0256 6.81394 79.9622C10.4021 79.8965 13.2718 82.8976 13.2718 86.4858V191.767C13.2718 195.224 15.0987 198.42 18.0999 200.181L112.748 255.171C115.749 256.933 119.532 256.933 122.534 255.171L217.184 200.181C220.185 198.42 222.01 195.224 222.01 191.767V86.4858C222.01 82.8976 224.879 79.8988 228.468 79.9622C232.119 80.028 235.055 77.0268 235.055 73.4386V70.6982C235.057 68.3499 233.817 66.1965 231.795 65.0223ZM108.836 234.492C108.836 237.035 106.095 238.602 103.944 237.362L27.8195 193.526C25.5369 192.22 25.6661 188.829 28.0801 187.721L65.1316 170.501C66.0451 170.109 67.0878 170.109 68.0013 170.632L107.14 191.636C108.185 192.223 108.836 193.268 108.836 194.505V234.492ZM108.836 171.609C108.836 174.087 106.293 175.653 104.073 174.545L27.9486 135.471C26.8402 134.884 26.1874 133.776 26.1874 132.602V95.4868C26.1874 93.0728 28.7306 91.5065 30.884 92.6172L107.009 130.124C108.117 130.646 108.836 131.754 108.836 132.994V171.609Z" fill="#DD4811"/>
<path d="M76.7253 133.997L58.8196 124.987C57.0724 124.125 54.9589 124.839 54.1018 126.586C53.24 128.328 53.9539 130.444 55.701 131.304L73.6045 140.314C74.107 140.561 74.6354 140.678 75.1614 140.678C76.46 140.678 77.7093 139.957 78.3222 138.715C79.184 136.97 78.4701 134.857 76.7253 133.997Z" fill="#DD4811"/>
</svg>
