<svg width="229" height="257" viewBox="0 0 229 257" fill="none" xmlns="http://www.w3.org/2000/svg">
<path d="M72.3574 79.9594C73.1 81.9418 96.5184 99.8358 125.038 101.894C158.971 104.345 174.283 93.1206 170.938 80.7027C167.468 67.8326 155.326 66.4566 137.22 69.4592C125.825 71.3475 97.929 78.1861 72.3574 79.9594Z" fill="url(#paint0_linear_10_2113)"/>
<path d="M178.367 118.365C178.367 118.365 166.785 135.642 142.944 135.086C115.937 134.454 110.935 127.097 102.081 134.342C93.4539 141.398 97.0042 162.576 124.868 163.32C141.821 163.771 167.103 156.251 178.367 118.365Z" fill="url(#paint1_linear_10_2113)"/>
<path d="M28.272 14.9599C23.8664 16.1207 16.3032 24.8221 24.9271 36.6336C32.9763 47.6537 45.4032 54.2042 65.1781 52.8561C87.4688 51.3364 92.1739 47.0361 92.1739 47.0361C92.1739 47.0361 66.2419 52.7936 52.2953 32.9254C40.9036 16.694 35.1836 13.1377 28.272 14.9599Z" fill="url(#paint2_linear_10_2113)"/>
<path d="M208.069 42.9666C208.069 42.9666 203.63 29.9152 210.724 24.7859C216.402 20.6804 226.036 23.941 228.15 27.747C219.271 26.69 210.632 36.9878 208.069 42.9666Z" fill="url(#paint3_linear_10_2113)"/>
<path d="M92.1731 156.634C95.7715 158.335 100.61 163.402 107.961 165.875C123.01 170.936 135.084 167.547 147.158 161.71C134.155 172.236 117.597 182.164 94.0314 174.465C75.2691 168.336 81.5616 151.614 92.1731 156.634Z" fill="url(#paint4_linear_10_2113)"/>
<path d="M152.265 163.34C152.265 163.34 141.325 170.52 136.884 176.715C128.801 187.984 129.716 199.159 136.94 203.233C143.999 207.212 151.065 199.513 148.498 192.338C144.187 180.291 144.788 171.918 152.265 163.34Z" fill="url(#paint5_linear_10_2113)"/>
<path d="M135.7 172.957C135.7 172.957 119.168 179.732 108.08 205.548C102.46 218.62 101.23 236.629 109.506 238.747C118.922 241.157 120.641 231.204 120.646 217.671C120.657 194.346 127.097 182.107 135.7 172.957Z" fill="url(#paint6_linear_10_2113)"/>
<path d="M87.4365 181.536C81.6707 177.936 75.4113 188.486 84.6702 192.802C100.077 199.979 117.442 183.184 120.003 180.281C122.623 177.304 112.933 182.46 106.747 183.386C97.772 184.725 94.0563 185.673 87.4365 181.536Z" fill="url(#paint7_linear_10_2113)"/>
<path d="M177.118 76.7186C196.058 104.801 175.349 138.78 159.044 158.249C159.044 158.249 159.046 158.249 159.046 158.248C167.272 153.409 173.414 146.327 181.339 140.852C222.95 107.67 223.432 81.538 210.236 57.4358C203.954 45.965 202.426 38.0475 203.513 32.5714C203.397 29.4289 204.946 26.0788 207.001 23.0371C174.809 31.3962 189.74 57.2221 193.227 68.5815C166.105 21.397 111.417 52.2221 71.7871 57.1755C32.1575 62.1303 22.9941 45.473 22.9941 45.473C25.7176 57.0521 44.7244 80.6322 76.5703 76.3831C120.579 70.5112 161.522 53.5974 177.118 76.7186Z" fill="url(#paint8_linear_10_2113)"/>
<path d="M154.127 167.906C139.821 185.438 165.713 200.405 173.507 180.36C176.646 172.286 172.503 160.234 175.953 149.836C163.716 159.098 158.604 162.419 154.127 167.906Z" fill="url(#paint9_linear_10_2113)"/>
<path d="M176.836 30.4691C179.517 31.8293 182.798 30.7595 184.161 28.076C185.521 25.3924 184.449 22.113 181.768 20.7513C179.084 19.3896 175.804 20.4601 174.441 23.1437C173.082 25.8257 174.153 29.1066 176.836 30.4691Z" fill="url(#paint10_radial_10_2113)"/>
<path d="M188.308 19.9063C190.212 20.873 192.542 20.1132 193.508 18.2075C194.475 16.3034 193.716 13.9727 191.811 13.006C189.905 12.0385 187.573 12.7991 186.607 14.7055C185.64 16.6104 186.401 18.9411 188.308 19.9063Z" fill="url(#paint11_radial_10_2113)"/>
<path d="M18.7752 48.4171C18.7752 51.4249 16.3346 53.8647 13.3261 53.8647C10.3175 53.8647 7.87695 51.4249 7.87695 48.4171C7.87695 45.4063 10.3175 42.9688 13.3261 42.9688C16.3346 42.9688 18.7752 45.4055 18.7752 48.4171Z" fill="url(#paint12_radial_10_2113)"/>
<path d="M18.7752 6.08192C18.7752 9.09123 16.3346 11.5303 13.3261 11.5303C10.3175 11.5303 7.87695 9.09123 7.87695 6.08192C7.87695 3.07111 10.3175 0.632812 13.3261 0.632812C16.3346 0.632812 18.7752 3.07111 18.7752 6.08192Z" fill="url(#paint13_radial_10_2113)"/>
<path d="M14.8154 27.2574C14.8154 31.0875 11.7098 34.1938 7.87967 34.1938C4.04581 34.1938 0.939453 31.0875 0.939453 27.2574C0.939453 23.4243 4.04581 20.3164 7.87967 20.3164C11.7098 20.3172 14.8154 23.425 14.8154 27.2574Z" fill="url(#paint14_radial_10_2113)"/>
<path d="M24.7281 62.8252C24.7281 64.8933 23.052 66.5695 20.9846 66.5695C18.9172 66.5695 17.2402 64.8926 17.2402 62.8252C17.2402 60.757 18.9172 59.0801 20.9846 59.0801C23.052 59.0801 24.7281 60.757 24.7281 62.8252Z" fill="url(#paint15_radial_10_2113)"/>
<path d="M32.7231 73.1935C32.7231 74.9728 31.2794 76.4187 29.4972 76.4187C27.7164 76.4187 26.2734 74.9728 26.2734 73.1935C26.2734 71.4128 27.7164 69.9668 29.4972 69.9668C31.2794 69.9668 32.7231 71.4128 32.7231 73.1935Z" fill="url(#paint16_radial_10_2113)"/>
<path d="M44.3621 80.8678C44.3621 82.6501 42.9176 84.0938 41.1369 84.0938C39.3554 84.0938 37.9102 82.6501 37.9102 80.8678C37.9102 79.0886 39.3554 77.6426 41.1369 77.6426C42.9176 77.6426 44.3621 79.0886 44.3621 80.8678Z" fill="url(#paint17_radial_10_2113)"/>
<path d="M59.8059 84.0951C59.8059 85.8781 58.3607 87.3218 56.5799 87.3218C54.7984 87.3218 53.3555 85.8781 53.3555 84.0951C53.3555 82.3144 54.7984 80.8691 56.5799 80.8691C58.3607 80.8691 59.8059 82.3144 59.8059 84.0951Z" fill="url(#paint18_radial_10_2113)"/>
<path d="M91.5882 233.208C91.0767 237.233 87.4008 240.08 83.3819 239.567C79.3562 239.06 76.5086 235.382 77.0179 231.361C77.5288 227.34 81.2039 224.488 85.2273 225.001C89.2463 225.512 92.0961 229.184 91.5882 233.208Z" fill="url(#paint19_radial_10_2113)"/>
<path d="M96.6019 215.508C96.2498 218.273 93.7242 220.231 90.9617 219.879C88.1961 219.53 86.2409 217.003 86.5914 214.239C86.9398 211.476 89.4653 209.519 92.2309 209.866C94.9934 210.218 96.9517 212.744 96.6019 215.508Z" fill="url(#paint20_radial_10_2113)"/>
<path d="M85.1725 252.22C84.8212 254.984 82.2957 256.943 79.5316 256.592C76.7668 256.243 74.8108 253.716 75.1643 250.952C75.5112 248.189 78.0367 246.228 80.803 246.58C83.5671 246.931 85.5224 249.459 85.1725 252.22Z" fill="url(#paint21_radial_10_2113)"/>
<path d="M105.194 202.753C104.889 205.133 102.715 206.822 100.334 206.517C97.9524 206.218 96.2664 204.042 96.5681 201.661C96.8691 199.279 99.0455 197.594 101.427 197.894C103.81 198.196 105.495 200.373 105.194 202.753Z" fill="url(#paint22_radial_10_2113)"/>
<path d="M200.849 16.6537C202.73 17.6077 205.029 16.8576 205.983 14.9768C206.938 13.096 206.187 10.7991 204.306 9.84444C202.427 8.88898 200.128 9.64055 199.173 11.5214C198.221 13.4022 198.97 15.6998 200.849 16.6537Z" fill="url(#paint23_radial_10_2113)"/>
<defs>
<linearGradient id="paint0_linear_10_2113" x1="118.612" y1="62.978" x2="125.3" y2="100.875" gradientUnits="userSpaceOnUse">
<stop stop-color="#85085B"/>
<stop offset="1" stop-color="#CF1111"/>
</linearGradient>
<linearGradient id="paint1_linear_10_2113" x1="175.983" y1="131.32" x2="79.0013" y2="159.476" gradientUnits="userSpaceOnUse">
<stop stop-color="#FFC800"/>
<stop offset="0.256" stop-color="#FE9104"/>
<stop offset="0.6126" stop-color="#FD4B09"/>
<stop offset="0.87" stop-color="#FC1F0D"/>
<stop offset="1" stop-color="#FC0E0E"/>
</linearGradient>
<linearGradient id="paint2_linear_10_2113" x1="11.5646" y1="7.41854" x2="75.4678" y2="55.7175" gradientUnits="userSpaceOnUse">
<stop offset="0.1758" stop-color="#FFC800"/>
<stop offset="1" stop-color="#FC0E0E"/>
</linearGradient>
<linearGradient id="paint3_linear_10_2113" x1="206.697" y1="32.9249" x2="228.15" y2="32.9249" gradientUnits="userSpaceOnUse">
<stop stop-color="#85085B"/>
<stop offset="1" stop-color="#CF1111"/>
</linearGradient>
<linearGradient id="paint4_linear_10_2113" x1="82.0253" y1="166.454" x2="147.158" y2="166.454" gradientUnits="userSpaceOnUse">
<stop stop-color="#85085B"/>
<stop offset="1" stop-color="#CF1111"/>
</linearGradient>
<linearGradient id="paint5_linear_10_2113" x1="147.482" y1="251.161" x2="140.794" y2="166.456" gradientUnits="userSpaceOnUse">
<stop offset="0.3691" stop-color="#FFC800"/>
<stop offset="1" stop-color="#FC0E0E"/>
</linearGradient>
<linearGradient id="paint6_linear_10_2113" x1="100.274" y1="263.828" x2="131.482" y2="157.572" gradientUnits="userSpaceOnUse">
<stop offset="0.1758" stop-color="#FFC800"/>
<stop offset="1" stop-color="#FC0E0E"/>
</linearGradient>
<linearGradient id="paint7_linear_10_2113" x1="55.974" y1="206.762" x2="118.39" y2="173.324" gradientUnits="userSpaceOnUse">
<stop offset="0.1758" stop-color="#FFC800"/>
<stop offset="1" stop-color="#FC0E0E"/>
</linearGradient>
<linearGradient id="paint8_linear_10_2113" x1="118.798" y1="43.8126" x2="216.496" y2="115.051" gradientUnits="userSpaceOnUse">
<stop offset="0.1758" stop-color="#FFC800"/>
<stop offset="1" stop-color="#FC0E0E"/>
</linearGradient>
<linearGradient id="paint9_linear_10_2113" x1="149.892" y1="169.887" x2="175.952" y2="169.887" gradientUnits="userSpaceOnUse">
<stop stop-color="#85085B"/>
<stop offset="1" stop-color="#CF1111"/>
</linearGradient>
<radialGradient id="paint10_radial_10_2113" cx="0" cy="0" r="1" gradientUnits="userSpaceOnUse" gradientTransform="translate(177.944 22.7267) rotate(116.911) scale(7.96494 7.96494)">
<stop stop-color="#CF1111"/>
<stop offset="1" stop-color="#85085B"/>
</radialGradient>
<radialGradient id="paint11_radial_10_2113" cx="0" cy="0" r="1" gradientUnits="userSpaceOnUse" gradientTransform="translate(189.095 14.4083) rotate(116.911) scale(5.65518 5.65517)">
<stop stop-color="#CF1111"/>
<stop offset="1" stop-color="#85085B"/>
</radialGradient>
<radialGradient id="paint12_radial_10_2113" cx="0" cy="0" r="1" gradientUnits="userSpaceOnUse" gradientTransform="translate(11.3696 45.9018) scale(7.96361)">
<stop stop-color="#CF1111"/>
<stop offset="1" stop-color="#85085B"/>
</radialGradient>
<radialGradient id="paint13_radial_10_2113" cx="0" cy="0" r="1" gradientUnits="userSpaceOnUse" gradientTransform="translate(11.3696 3.56696) scale(7.96406)">
<stop stop-color="#CF1111"/>
<stop offset="1" stop-color="#85085B"/>
</radialGradient>
<radialGradient id="paint14_radial_10_2113" cx="0" cy="0" r="1" gradientUnits="userSpaceOnUse" gradientTransform="translate(5.38638 24.0531) scale(10.1405)">
<stop stop-color="#CF1111"/>
<stop offset="1" stop-color="#85085B"/>
</radialGradient>
<radialGradient id="paint15_radial_10_2113" cx="0" cy="0" r="1" gradientUnits="userSpaceOnUse" gradientTransform="translate(19.64 61.0967) scale(5.47242 5.47243)">
<stop stop-color="#CF1111"/>
<stop offset="1" stop-color="#85085B"/>
</radialGradient>
<radialGradient id="paint16_radial_10_2113" cx="0" cy="0" r="1" gradientUnits="userSpaceOnUse" gradientTransform="translate(28.3399 71.7039) scale(4.71438 4.71437)">
<stop stop-color="#CF1111"/>
<stop offset="1" stop-color="#85085B"/>
</radialGradient>
<radialGradient id="paint17_radial_10_2113" cx="0" cy="0" r="1" gradientUnits="userSpaceOnUse" gradientTransform="translate(39.9779 79.3796) scale(4.71483 4.71484)">
<stop stop-color="#CF1111"/>
<stop offset="1" stop-color="#85085B"/>
</radialGradient>
<radialGradient id="paint18_radial_10_2113" cx="0" cy="0" r="1" gradientUnits="userSpaceOnUse" gradientTransform="translate(55.4222 82.6066) scale(4.71491 4.71491)">
<stop stop-color="#CF1111"/>
<stop offset="1" stop-color="#85085B"/>
</radialGradient>
<radialGradient id="paint19_radial_10_2113" cx="0" cy="0" r="1" gradientUnits="userSpaceOnUse" gradientTransform="translate(82.1132 228.591) rotate(7.22664) scale(10.7314 10.7314)">
<stop stop-color="#CF1111"/>
<stop offset="1" stop-color="#85085B"/>
</radialGradient>
<radialGradient id="paint20_radial_10_2113" cx="0" cy="0" r="1" gradientUnits="userSpaceOnUse" gradientTransform="translate(90.0925 212.334) rotate(7.22664) scale(7.37516 7.37516)">
<stop stop-color="#CF1111"/>
<stop offset="1" stop-color="#85085B"/>
</radialGradient>
<radialGradient id="paint21_radial_10_2113" cx="0" cy="0" r="1" gradientUnits="userSpaceOnUse" gradientTransform="translate(78.6649 249.048) rotate(7.22663) scale(7.3738 7.3738)">
<stop stop-color="#CF1111"/>
<stop offset="1" stop-color="#85085B"/>
</radialGradient>
<radialGradient id="paint22_radial_10_2113" cx="0" cy="0" r="1" gradientUnits="userSpaceOnUse" gradientTransform="translate(99.5848 200.019) rotate(7.22664) scale(6.35308 6.35308)">
<stop stop-color="#CF1111"/>
<stop offset="1" stop-color="#85085B"/>
</radialGradient>
<radialGradient id="paint23_radial_10_2113" cx="0" cy="0" r="1" gradientUnits="userSpaceOnUse" gradientTransform="translate(201.627 11.2287) rotate(116.911) scale(5.58092 5.58092)">
<stop stop-color="#CF1111"/>
<stop offset="1" stop-color="#85085B"/>
</radialGradient>
</defs>
</svg>
