<svg width="257" height="131" viewBox="0 0 257 131" fill="none" xmlns="http://www.w3.org/2000/svg">
<path d="M93.2175 21.701C99.4828 29.9956 104.791 39.2277 102.286 46.3525C95.4838 36.8849 76.4997 19.2924 56.2906 32.6351C55.2767 33.441 54.8103 33.7163 51.8971 35.7104C52.1204 35.5957 52.2335 35.5361 52.2962 35.5178C51.5928 36.1677 50.9107 36.865 50.2883 37.5838C49.461 38.5288 48.7163 39.5443 48.0541 40.5857C47.5617 41.3335 47.1304 42.0859 46.7665 42.8627C46.5738 43.2389 46.3796 43.6381 46.2052 44.0372C46.011 44.4363 45.8367 44.8355 45.7082 45.2392C45.5369 45.6399 45.3825 46.0619 45.2525 46.4641C44.9711 47.2884 44.7295 48.1387 44.5322 48.9889C42.6834 57.1352 44.497 66.3704 50.0131 74.2353C58.6396 86.5596 78.5688 92.4212 104.925 80.5389C114.425 76.3014 123.639 71.3772 132.423 66.7573C132.444 66.7588 132.444 66.7588 132.467 66.7359C138.636 63.5015 144.597 60.4476 150.295 57.8754C150.317 57.8769 150.321 57.854 150.341 57.854C154.121 56.1657 157.775 54.7099 161.31 53.5476C162.382 53.199 163.457 52.8686 164.505 52.5842C164.505 52.6056 164.53 52.6056 164.551 52.5857C164.594 52.5674 164.638 52.546 164.681 52.549C165.002 52.5674 165.325 52.6285 165.623 52.7096C165.6 52.7279 165.576 52.7279 165.556 52.7677C165.531 52.7463 165.53 52.7677 165.51 52.7891C162.938 54.0248 159.807 56.1596 156.27 58.9994C152.459 62.0457 148.313 65.7602 143.796 69.9259C142.299 71.3084 140.731 72.752 139.141 74.2369C138.116 75.1911 137.095 76.1499 136.076 77.1057C135.099 78.0003 134.119 78.9347 133.099 79.8706C132.986 79.9731 132.872 80.097 132.759 80.1964C124.287 88.1102 115.415 96.2397 106.288 103.493C105.002 104.542 103.694 105.548 102.352 106.55C100.302 108.098 98.2395 109.598 96.1582 111.014C87.576 116.984 78.8196 121.823 69.9835 124.673C64.2794 126.513 58.6166 127.236 53.1771 127.001C51.8696 126.95 50.5804 126.837 49.2989 126.637C37.2759 125.091 26.5513 118.789 18.9173 109.491C16.7381 106.831 14.7378 104.048 12.9149 101.126C12.7574 100.879 12.6183 100.656 12.4806 100.412C9.39768 95.3941 6.89123 90.0218 4.98273 84.4446C4.96438 84.4003 4.94449 84.3559 4.92308 84.3116C2.95647 78.6029 1.60155 72.6449 0.884334 66.5524C0.755877 65.3397 0.628949 64.1041 0.54484 62.8929C0.466849 61.9417 0.414851 60.9691 0.379679 60.0194C0.362857 59.5652 0.344506 59.0881 0.326155 58.6156C0.297099 57.5772 0.292511 56.522 0.306274 55.4898C0.358269 52.9925 0.56013 50.5488 0.921034 48.1998C0.991379 47.6646 1.08773 47.1538 1.18101 46.6385C1.57861 44.5052 2.08327 42.4223 2.73167 40.4114C2.93812 39.7752 3.14762 39.1207 3.37854 38.4876C4.34197 35.8037 5.51643 33.2606 6.88052 30.8168C7.21543 30.2082 7.5488 29.6041 7.90512 29.0215C8.25991 28.4373 8.63917 27.8531 9.01384 27.2705C9.04136 27.1849 9.08876 27.1038 9.15605 27.0411C9.8855 25.9859 10.6287 24.9476 11.3979 23.9138C11.4453 23.8297 11.5157 23.7486 11.586 23.663C15.3159 18.8902 19.7905 14.7016 24.7039 11.1568C26.3892 9.95785 28.1065 8.82467 29.8667 7.78019C30.4692 7.42388 31.0458 7.0905 31.6483 6.75713C32.2508 6.42222 32.8487 6.0919 33.4467 5.77841C34.066 5.46797 34.667 5.156 35.2848 4.84862C35.8843 4.55653 36.5037 4.26598 37.123 3.97848C37.672 3.73074 38.2027 3.49981 38.7333 3.27042C38.9963 3.15573 39.2456 3.06092 39.5056 2.94775C39.527 2.94775 39.527 2.92634 39.5469 2.92787C58.8582 -4.92789 79.7983 4.006 93.2175 21.701Z" fill="url(#paint0_linear_10_1879)"/>
<path opacity="0.3" d="M56.2802 32.6259C55.2785 33.4349 54.7983 33.7163 51.8897 35.7089C52.7904 35.2394 52.116 35.6034 52.3041 35.5131C38.6158 48.1172 41.1452 73.5899 61.0896 84.076C60.9474 84.0194 60.8083 83.9736 60.6615 83.917C37.9964 74.9082 33.2206 54.8612 36.9703 40.7523C40.7506 26.6068 53.5367 15.6405 69.7376 18.6149C97.3283 23.7333 102.283 46.3525 102.283 46.3525C95.481 36.8864 76.4938 19.2908 56.2802 32.6259Z" fill="url(#paint1_radial_10_1879)"/>
<path opacity="0.4" d="M39.551 2.92578C22.0839 16.6845 11.139 36.3063 16.8615 64.1998C21.7994 88.1357 35.8028 104.234 50.1212 109.911C64.1719 115.463 77.8067 111.165 77.8067 111.165C71.3502 115.603 62.005 123.182 47.9695 127.044C17.9794 122.866 -0.0581641 88.1066 0.298151 55.4907C0.738576 29.781 18.7119 11.5263 39.551 2.92578Z" fill="url(#paint2_radial_10_1879)"/>
<path opacity="0.3" d="M166.703 52.2324C166.371 52.3624 165.994 52.5367 165.639 52.734C165.601 52.7294 165.575 52.7508 165.555 52.7692C165.529 52.7692 165.529 52.7906 165.529 52.7906C165.507 52.7906 165.507 52.7906 165.507 52.7906C160.297 55.4316 152.822 61.6557 143.794 69.9274C142.296 71.3098 140.729 72.7534 139.138 74.2383C138.114 75.1926 137.092 76.1514 136.074 77.1072C135.164 77.9636 134.254 78.8169 133.323 79.6916C124.802 87.6682 115.79 96.0057 106.286 103.496C104.999 104.545 103.692 105.551 102.349 106.553C100.3 108.101 98.2386 109.579 96.1558 111.017C92.5712 113.491 88.9332 115.79 85.2415 117.848C74.416 123.908 63.2983 127.022 53.1731 127.004C51.6898 126.987 50.2492 126.929 48.8346 126.786C43.4333 126.273 38.3838 124.811 33.9336 122.344C25.2352 117.535 18.2634 110.021 12.911 101.129C12.7535 100.882 12.6143 100.659 12.4767 100.415C9.22705 94.8939 6.60744 88.887 4.57812 82.6584C4.80598 82.8419 5.05678 83.0285 5.30605 83.1952C5.55378 83.4031 5.79999 83.5866 6.0722 83.7518C13.6496 89.3427 22.1798 93.2362 31.1749 95.4353C46.1432 99.0397 62.3181 97.9081 77.1594 91.6993C81.0223 90.0814 84.7613 88.2417 88.4224 86.3347C93.5974 85.1098 99.1118 83.1722 104.92 80.5419C114.42 76.3044 123.633 71.3802 132.417 66.7603C132.439 66.7618 132.439 66.7618 132.462 66.7389C138.631 63.5045 144.592 60.4506 150.29 57.8784C150.311 57.8799 150.316 57.857 150.336 57.857C154.116 56.1687 157.769 54.7129 161.305 53.5506C162.377 53.202 163.452 52.8716 164.5 52.5872C164.5 52.6086 164.524 52.6086 164.545 52.5887C164.588 52.5704 164.633 52.549 164.675 52.552C164.997 52.5704 165.319 52.6315 165.617 52.7126C165.636 52.7141 165.636 52.7141 165.636 52.7141C166.017 52.5153 166.373 52.3624 166.703 52.2324Z" fill="url(#paint3_radial_10_1879)"/>
<path d="M163.733 52.4748L164.057 52.4947C164.209 52.5238 164.356 52.5559 164.502 52.585C164.502 52.6064 164.527 52.6064 164.548 52.5865C164.868 52.6461 165.188 52.7088 165.507 52.7899C165.507 52.7899 165.507 52.7899 165.529 52.7899C165.718 52.8434 165.909 52.8969 166.125 52.9504C166.674 53.0896 167.205 53.2701 167.731 53.5132C168.133 53.6432 168.527 53.816 168.931 54.0117C162.487 59.1271 155.793 65.2441 148.655 71.982C138.547 81.4863 128.051 91.7002 116.648 101.178C100.846 114.287 85.6191 123.921 71.5729 127.821C58.4244 131.471 46.2164 129.719 36.8391 124.787C31.6457 122.066 27.1161 118.649 23.2134 114.836C13.6816 105.584 7.83529 94.0384 4.97864 84.4438C4.96029 84.3995 4.94042 84.3551 4.91901 84.3108C4.5581 83.0629 4.24002 81.8579 3.97852 80.7048C4.55046 81.6209 5.25085 82.65 6.07206 83.748C13.6357 94.2051 30.6747 111.455 52.5399 111.195C52.6913 111.203 52.861 111.213 53.014 111.178C53.2938 111.193 53.5538 111.166 53.8352 111.16C54.3306 111.145 54.8506 111.106 55.3476 111.07C71.68 109.901 85.2292 102.075 99.757 92.5336C99.7341 92.5336 99.6928 92.5519 99.6485 92.5688C102.27 90.7964 104.825 88.9551 107.322 87.0665C108.939 85.8645 110.518 84.6365 112.069 83.3856C119.145 77.787 125.819 71.9728 132.42 66.7565C132.442 66.7581 132.442 66.7581 132.465 66.7351C133.5 65.9323 134.511 65.1263 135.549 64.3434C136.13 63.8999 136.695 63.4595 137.279 63.0374C137.458 62.8967 137.637 62.7774 137.817 62.6597C138.358 62.2575 138.895 61.8751 139.435 61.4974C139.973 61.1182 140.531 60.7389 141.068 60.3811C141.605 60.0232 142.139 59.6669 142.679 59.3259C143.77 58.6331 144.841 57.9817 145.908 57.396C146.463 57.081 146.994 56.8103 147.526 56.5167C148.06 56.2429 148.594 55.9707 149.124 55.7199C149.658 55.4676 150.186 55.2168 150.715 54.9889C155.284 52.9581 159.691 51.9733 163.733 52.4748Z" fill="url(#paint4_linear_10_1879)"/>
<path opacity="0.4" d="M167.731 53.5137C168.133 53.6437 168.527 53.8165 168.931 54.0122C162.487 59.1275 155.793 65.2446 148.655 71.9824C138.546 81.4867 128.051 91.7006 116.648 101.179C100.846 114.288 85.6191 123.922 71.5729 127.822C58.4244 131.472 46.2164 129.719 36.8391 124.787C31.6457 122.067 27.1161 118.649 23.2134 114.837C13.6816 105.585 7.83529 94.0388 4.97864 84.4443C4.96029 84.4 4.94042 84.3556 4.91901 84.3113C4.5581 83.0634 4.24002 81.8583 3.97852 80.7053C4.41129 81.4821 4.83643 82.3248 5.30591 83.1934C8.45005 89.0535 12.6249 96.585 20.5327 104.389C29.2173 112.905 43.5234 122.333 65.7067 119.334C66.1395 119.271 66.5723 119.209 67.0311 119.148C81.6553 116.872 97.4295 107.423 113.138 95.6629C119.969 90.546 126.62 85.16 133.095 79.8718C133.162 79.8107 133.255 79.7526 133.321 79.6914C141.691 72.8725 149.771 66.1835 157.63 60.3907C161.091 57.8216 164.449 55.5522 167.731 53.5137Z" fill="url(#paint5_radial_10_1879)"/>
<path opacity="0.4" d="M164.505 52.5843C164.315 52.5522 164.122 52.5431 163.93 52.5064C163.974 52.4895 164.017 52.4911 164.06 52.4941C164.275 52.5033 164.468 52.5171 164.681 52.5492C165.002 52.5675 165.324 52.6287 165.623 52.7097C165.641 52.7113 165.641 52.7113 165.641 52.7113L165.639 52.7327C166 52.8168 166.32 52.9407 166.615 53.0859C166.444 53.0324 166.297 52.9835 166.127 52.9514C165.912 52.8978 165.72 52.8428 165.531 52.7908C165.509 52.7908 165.509 52.7908 165.509 52.7908C165.19 52.7082 164.87 52.6455 164.551 52.5874C164.529 52.6042 164.505 52.6042 164.505 52.5843Z" fill="url(#paint6_radial_10_1879)"/>
<path opacity="0.4" d="M163.734 52.4757C163.8 52.5017 163.865 52.5047 163.928 52.5078C160.548 52.4313 155.751 54.2787 150.339 57.8556C150.318 57.8556 150.313 57.8785 150.293 57.877C149.178 58.6095 148.034 59.4307 146.868 60.3162C136.412 68.227 124.58 79.9854 110.181 89.8995C88.1903 105.039 70.4234 111.193 57.0241 111.919C51.3399 112.251 46.4432 111.572 42.3418 110.184C45.5945 110.899 49.0002 111.281 52.5404 111.196C52.6918 111.204 52.8615 111.214 53.0144 111.179C53.2729 111.194 53.5329 111.185 53.7928 111.158C53.8127 111.182 53.8326 111.182 53.8356 111.161C54.351 111.145 54.8511 111.107 55.3481 111.07C71.6805 109.902 85.2296 102.075 99.7575 92.5344C99.7346 92.5344 99.6933 92.5528 99.649 92.5696C102.27 90.7972 104.825 88.956 107.323 87.0673C108.939 85.8653 110.519 84.6374 112.07 83.3864C119.145 77.7878 125.819 71.9736 132.421 66.7574C132.442 66.7589 132.442 66.7589 132.465 66.7359C133.5 65.9331 134.511 65.1272 135.55 64.3442C136.313 63.783 137.054 63.2202 137.816 62.6605C138.357 62.2583 138.894 61.876 139.434 61.4983C139.972 61.119 140.53 60.7398 141.067 60.3819C141.604 60.0241 142.138 59.6677 142.677 59.3267C143.769 58.634 144.84 57.9825 145.907 57.3968C146.462 57.0818 146.993 56.8111 147.525 56.5175C148.059 56.2438 148.593 55.9715 149.123 55.7207C149.657 55.4684 150.185 55.2176 150.714 54.9898C155.282 53.0216 159.71 52.0383 163.734 52.4757Z" fill="url(#paint7_radial_10_1879)"/>
<path d="M163.372 109.12C157.107 100.827 151.799 91.5915 154.302 84.4667C161.106 93.9343 180.089 111.527 200.298 98.1841C201.313 97.3782 201.779 97.1014 204.691 95.1087C204.471 95.2234 204.356 95.2831 204.292 95.3014C204.994 94.65 205.677 93.9542 206.301 93.2354C207.129 92.2903 207.877 91.2734 208.536 90.2335C209.028 89.4857 209.461 88.7333 209.823 87.9564C210.016 87.5802 210.213 87.1811 210.384 86.782C210.58 86.3828 210.755 85.9837 210.883 85.58C211.053 85.1793 211.206 84.7572 211.337 84.3551C211.622 83.5323 211.86 82.6821 212.059 81.8303C213.908 73.6839 212.093 64.4488 206.58 56.5808C197.952 44.2581 178.021 38.398 151.664 50.2787C142.165 54.5178 132.951 59.4405 124.168 64.0603C124.145 64.0588 124.145 64.0588 124.124 64.0818C117.953 67.3192 111.988 70.3716 106.29 72.9422C106.268 72.9422 106.267 72.9667 106.247 72.9637C102.468 74.6519 98.8149 76.1093 95.2808 77.27C94.2057 77.6202 93.1322 77.949 92.0801 78.2365C92.0832 78.2151 92.0572 78.212 92.0388 78.2335C91.9945 78.2503 91.9516 78.2717 91.9088 78.2686C91.5877 78.2518 91.2665 78.1891 90.9668 78.1081C90.9913 78.0897 91.0127 78.0912 91.0371 78.0484C91.0585 78.0713 91.0586 78.05 91.0815 78.027C93.6491 76.7914 96.781 74.6565 100.32 71.8167C104.131 68.772 108.275 65.0559 112.792 60.8902C114.292 59.5078 115.86 58.0642 117.447 56.5777C118.467 55.6235 119.493 54.6677 120.515 53.7104C121.489 52.8173 122.469 51.8814 123.489 50.9455C123.603 50.8446 123.716 50.7207 123.833 50.6182C132.304 42.7074 141.177 34.5764 150.302 27.3232C151.589 26.2741 152.894 25.2678 154.241 24.2662C156.286 22.7201 158.349 21.2153 160.433 19.8023C169.014 13.8336 177.769 8.99661 186.608 6.14302C192.312 4.30333 197.972 3.57999 203.411 3.81703C204.72 3.86443 206.008 3.98065 207.289 4.18099C219.312 5.72706 230.041 12.0276 237.671 21.3254C239.85 23.9863 241.852 26.768 243.675 29.6904C243.831 29.9397 243.971 30.1599 244.108 30.4046C247.191 35.4221 249.694 40.7959 251.605 46.3715C251.628 46.4159 251.647 46.4602 251.665 46.5045C253.632 52.2132 254.988 58.1712 255.707 64.2638C255.834 65.4749 255.959 66.7136 256.043 67.9263C256.121 68.876 256.178 69.8486 256.207 70.7967C256.228 71.2524 256.242 71.7265 256.257 72.2021C256.288 73.2374 256.294 74.2926 256.28 75.3263C256.228 77.8236 256.03 80.2674 255.664 82.6178C255.592 83.1515 255.499 83.6638 255.407 84.1761C255.011 86.3094 254.506 88.3923 253.855 90.4002C253.649 91.0379 253.439 91.6924 253.213 92.327C252.245 95.0109 251.072 97.5555 249.708 99.9993C249.371 100.603 249.038 101.21 248.682 101.793C248.328 102.38 247.949 102.961 247.571 103.546C247.545 103.63 247.501 103.711 247.432 103.772C246.703 104.83 245.958 105.865 245.19 106.901C245.143 106.983 245.071 107.067 245.002 107.15C241.274 111.921 236.798 116.111 231.883 119.656C230.202 120.855 228.48 121.99 226.72 123.031C226.117 123.388 225.542 123.723 224.941 124.056C224.336 124.388 223.741 124.72 223.142 125.033C222.522 125.344 221.921 125.656 221.302 125.963C220.702 126.255 220.083 126.546 219.467 126.833C218.915 127.084 218.384 127.312 217.855 127.541C217.59 127.659 217.346 127.751 217.081 127.864C217.06 127.862 217.06 127.884 217.04 127.884C197.731 135.747 176.79 126.815 163.372 109.12Z" fill="url(#paint8_linear_10_1879)"/>
<path opacity="0.3" d="M200.306 98.1962C201.309 97.3872 201.789 97.1074 204.696 95.1133C203.792 95.5827 204.473 95.2188 204.282 95.309C217.972 82.7049 215.441 57.2322 195.496 46.7461C195.638 46.8027 195.779 46.847 195.924 46.9051C218.589 55.914 223.367 75.9624 219.616 90.0698C215.837 104.214 203.049 115.185 186.85 112.207C159.259 107.092 154.303 84.4697 154.303 84.4697C161.105 93.9357 180.092 111.531 200.306 98.1962Z" fill="url(#paint9_radial_10_1879)"/>
<path opacity="0.4" d="M217.035 127.896C234.501 114.136 245.445 94.5155 239.728 66.6219C234.788 42.6861 220.785 26.5877 206.465 20.9111C192.414 15.3584 178.779 19.6571 178.779 19.6571C185.237 15.2207 194.581 7.64176 208.617 3.77734C238.61 7.95679 256.643 42.7151 256.288 75.3295C255.849 101.041 237.874 119.295 217.035 127.896Z" fill="url(#paint10_radial_10_1879)"/>
<path opacity="0.3" d="M89.8848 78.591C90.2166 78.461 90.5913 78.2897 90.9461 78.0909C90.9874 78.094 91.0118 78.0741 91.0348 78.0542C91.0562 78.0557 91.0592 78.0328 91.0592 78.0328C91.0806 78.0328 91.0806 78.0328 91.0806 78.0328C96.2877 75.3918 103.763 69.1677 112.791 60.896C114.292 59.5136 115.859 58.0699 117.446 56.5835C118.466 55.6292 119.493 54.6735 120.514 53.7162C121.423 52.8598 122.332 52.0065 123.265 51.1317C131.783 43.1582 140.795 34.8177 150.301 27.3289C151.589 26.2799 152.893 25.2736 154.24 24.272C156.285 22.7259 158.348 21.2425 160.432 19.8081C164.015 17.3337 167.658 15.0368 171.346 12.9769C182.169 6.91648 193.287 3.80141 203.412 3.82434C204.898 3.83964 206.336 3.89775 207.752 4.03844C213.152 4.5538 218.2 6.01729 222.651 8.48091C231.35 13.2904 238.322 20.8036 243.675 29.6962C243.831 29.9455 243.972 30.1657 244.108 30.4104C247.355 35.931 249.982 41.9379 252.007 48.168C251.782 47.983 251.531 47.7964 251.283 47.6297C251.031 47.4248 250.785 47.2383 250.514 47.0716C242.937 41.4837 234.405 37.5887 225.412 35.3911C210.443 31.7867 194.268 32.9183 179.425 39.1271C175.569 40.7451 171.824 42.5847 168.164 44.4948C162.991 45.7166 157.478 47.6542 151.665 50.2845C142.165 54.5236 132.952 59.4463 124.169 64.0661C124.146 64.0646 124.146 64.0646 124.125 64.0875C117.954 67.325 111.989 70.3774 106.291 72.948C106.269 72.948 106.268 72.9725 106.248 72.9694C102.469 74.6577 98.8156 76.1151 95.2815 77.2758C94.2064 77.626 93.1329 77.9548 92.0808 78.2423C92.0838 78.2209 92.0578 78.2178 92.0395 78.2392C91.9951 78.2561 91.9523 78.2775 91.9095 78.2744C91.5884 78.2576 91.2672 78.1949 90.9675 78.1138C90.9476 78.1138 90.9476 78.1138 90.9476 78.1138C90.5683 78.3081 90.2166 78.461 89.8848 78.591Z" fill="url(#paint11_radial_10_1879)"/>
<path d="M92.8507 78.348L92.5265 78.3312C92.3766 78.3006 92.2283 78.27 92.0784 78.241C92.0815 78.2196 92.0555 78.2165 92.0371 78.2379C91.7191 78.1767 91.3964 78.1171 91.0798 78.033C91.0798 78.033 91.0798 78.033 91.0584 78.033C90.8642 77.9795 90.6746 77.9229 90.462 77.8724C89.9099 77.7348 89.3793 77.5543 88.8548 77.3112C88.4541 77.1797 88.0565 77.0068 87.6543 76.8126C94.1001 71.6942 100.792 65.5803 107.929 58.8409C118.037 49.3366 128.537 39.1212 139.936 29.6444C155.741 16.5357 170.965 6.90446 185.013 3.00181C198.164 -0.646982 210.368 1.10401 219.745 6.03585C224.941 8.75638 229.472 12.1743 233.374 15.9867C242.904 25.2386 248.755 36.7845 251.605 46.3775C251.628 46.4218 251.647 46.4662 251.665 46.5105C252.026 47.7584 252.347 48.9635 252.607 50.1165C252.034 49.2005 251.335 48.1713 250.513 47.0702C242.948 36.6148 225.908 19.3648 204.044 19.6232C203.893 19.6171 203.721 19.6064 203.568 19.6431C203.29 19.6278 203.03 19.6553 202.752 19.6645C202.253 19.6798 201.735 19.715 201.236 19.7517C184.909 20.92 171.355 28.7468 156.827 38.2877C156.85 38.2908 156.891 38.2709 156.936 38.2526C154.314 40.0265 151.759 41.8662 149.263 43.7548C147.647 44.9568 146.07 46.1848 144.516 47.4357C137.441 53.0343 130.765 58.8485 124.167 64.0663C124.144 64.0648 124.144 64.0648 124.122 64.0877C123.086 64.8906 122.07 65.6965 121.038 66.4795C120.451 66.923 119.891 67.3634 119.307 67.7855C119.126 67.9277 118.949 68.0454 118.767 68.1647C118.229 68.5669 117.689 68.9477 117.149 69.3254C116.614 69.7047 116.054 70.0839 115.519 70.4418C114.98 70.8011 114.445 71.1575 113.908 71.497C112.814 72.1882 111.743 72.8412 110.677 73.4269C110.124 73.7419 109.591 74.0126 109.058 74.3093C108.524 74.5799 107.99 74.8521 107.46 75.106C106.929 75.3537 106.398 75.6061 105.871 75.8355C101.303 77.8648 96.894 78.8496 92.8507 78.348Z" fill="url(#paint12_linear_10_1879)"/>
<path opacity="0.4" d="M88.8587 77.3112C88.458 77.1797 88.0604 77.0069 87.6582 76.8126C94.104 71.6942 100.796 65.5803 107.933 58.8409C118.041 49.3366 128.541 39.1212 139.94 29.6444C155.745 16.5357 170.969 6.90446 185.016 3.00181C198.168 -0.646982 210.371 1.10401 219.749 6.03585C224.945 8.75638 229.476 12.1743 233.377 15.9867C242.908 25.2386 248.759 36.7845 251.609 46.3775C251.632 46.4218 251.651 46.4662 251.669 46.5105C252.03 47.7584 252.351 48.9635 252.611 50.1165C252.178 49.3396 251.756 48.497 251.287 47.6284C248.138 41.7699 243.964 34.2368 236.058 26.433C227.369 17.9166 213.066 8.49029 190.881 11.4907C190.448 11.5534 190.016 11.6145 189.56 11.6757C174.933 13.9512 159.158 23.4005 143.45 35.1604C136.623 40.2773 129.968 45.6649 123.493 50.9515C123.426 51.0126 123.336 51.0708 123.27 51.1319C114.897 57.9539 106.815 64.6398 98.9578 70.4326C95.4971 73.0002 92.142 75.2712 88.8587 77.3112Z" fill="url(#paint13_radial_10_1879)"/>
<path opacity="0.4" d="M92.0789 78.241C92.27 78.2716 92.4642 78.2823 92.66 78.3159C92.6156 78.3358 92.5698 78.3327 92.5269 78.3312C92.3113 78.319 92.1186 78.3067 91.9076 78.2731C91.5864 78.2563 91.2653 78.1936 90.9656 78.1125C90.9457 78.1125 90.9457 78.1125 90.9457 78.1125L90.9472 78.0911C90.5863 78.0055 90.2682 77.8816 89.9746 77.7363C90.1428 77.7868 90.2912 77.8388 90.4624 77.8709C90.675 77.9229 90.8646 77.9795 91.0589 78.0315C91.0803 78.0315 91.0803 78.0315 91.0803 78.0315C91.3968 78.1156 91.7195 78.1767 92.0376 78.2364C92.0559 78.2165 92.0804 78.2196 92.0789 78.241Z" fill="url(#paint14_radial_10_1879)"/>
<path opacity="0.4" d="M92.8513 78.3496C92.7871 78.3236 92.7229 78.3221 92.6602 78.3175C96.0383 78.394 100.836 76.5482 106.246 72.9682C106.267 72.9712 106.269 72.9468 106.289 72.9468C107.408 72.2143 108.551 71.3931 109.719 70.5076C120.174 62.5968 132.005 50.8384 146.404 40.9243C168.396 25.7847 186.165 19.631 199.561 18.9061C205.245 18.5727 210.145 19.2502 214.245 20.6418C210.991 19.9231 207.585 19.5407 204.045 19.6248C203.893 19.6187 203.722 19.608 203.569 19.6447C203.312 19.6294 203.055 19.6386 202.794 19.6677C202.775 19.6417 202.754 19.6417 202.752 19.6661C202.234 19.6784 201.736 19.7166 201.237 19.7533C184.909 20.9217 171.355 28.7484 156.828 38.2894C156.85 38.2924 156.892 38.2725 156.936 38.2542C154.315 40.0281 151.76 41.8678 149.264 43.7564C147.647 44.9584 146.071 46.1864 144.517 47.4373C137.441 53.0359 130.766 58.8501 124.167 64.068C124.144 64.0664 124.144 64.0664 124.123 64.0894C123.086 64.8922 122.071 65.6981 121.038 66.4811C120.274 67.0424 119.532 67.6051 118.769 68.1663C118.231 68.5685 117.691 68.9493 117.151 69.327C116.616 69.7063 116.056 70.0855 115.521 70.4434C114.983 70.8028 114.447 71.1591 113.911 71.4986C112.816 72.1898 111.745 72.8428 110.679 73.4285C110.126 73.7435 109.594 74.0142 109.06 74.3109C108.526 74.5815 107.992 74.8537 107.462 75.1076C106.931 75.3553 106.4 75.6077 105.873 75.8371C101.308 77.8037 96.8763 78.7855 92.8513 78.3496Z" fill="url(#paint15_radial_10_1879)"/>
<defs>
<linearGradient id="paint0_linear_10_1879" x1="6.26851" y1="12.2533" x2="353.833" y2="293.174" gradientUnits="userSpaceOnUse">
<stop stop-color="#00AADD"/>
<stop offset="0.0709" stop-color="#3E81CD"/>
<stop offset="0.146" stop-color="#785ABF"/>
<stop offset="0.2188" stop-color="#A83AB3"/>
<stop offset="0.2872" stop-color="#CE21A9"/>
<stop offset="0.3503" stop-color="#E90FA3"/>
<stop offset="0.4062" stop-color="#F9049E"/>
<stop offset="0.449" stop-color="#FF009D"/>
<stop offset="0.4797" stop-color="#FF0097"/>
<stop offset="0.5209" stop-color="#FF0086"/>
<stop offset="0.5679" stop-color="#FF006A"/>
<stop offset="0.6189" stop-color="#FF0044"/>
<stop offset="0.6633" stop-color="#FF001C"/>
<stop offset="1" stop-color="#FFD400"/>
</linearGradient>
<radialGradient id="paint1_radial_10_1879" cx="0" cy="0" r="1" gradientUnits="userSpaceOnUse" gradientTransform="translate(200.968 161.24) rotate(-86.8472) scale(196.189 196.189)">
<stop offset="0.852" stop-color="white"/>
<stop offset="0.8731" stop-color="#FDFBFC"/>
<stop offset="0.8933" stop-color="#F5F0F5"/>
<stop offset="0.9131" stop-color="#E9DCE8"/>
<stop offset="0.9327" stop-color="#D8C1D6"/>
<stop offset="0.9521" stop-color="#C39EBF"/>
<stop offset="0.9714" stop-color="#A873A3"/>
<stop offset="0.9903" stop-color="#894282"/>
<stop offset="1" stop-color="#77256F"/>
</radialGradient>
<radialGradient id="paint2_radial_10_1879" cx="0" cy="0" r="1" gradientUnits="userSpaceOnUse" gradientTransform="translate(45.2199 27.4563) rotate(73.5839) scale(117.868 117.868)">
<stop offset="0.3112" stop-color="white"/>
<stop offset="1"/>
</radialGradient>
<radialGradient id="paint3_radial_10_1879" cx="0" cy="0" r="1" gradientUnits="userSpaceOnUse" gradientTransform="translate(314.538 106.968) rotate(-86.8472) scale(137.985 137.985)">
<stop offset="0.852" stop-color="white"/>
<stop offset="0.8731" stop-color="#FDFBFC"/>
<stop offset="0.8933" stop-color="#F5F0F5"/>
<stop offset="0.9131" stop-color="#E9DCE8"/>
<stop offset="0.9327" stop-color="#D8C1D6"/>
<stop offset="0.9521" stop-color="#C39EBF"/>
<stop offset="0.9714" stop-color="#A873A3"/>
<stop offset="0.9903" stop-color="#894282"/>
<stop offset="1" stop-color="#77256F"/>
</radialGradient>
<linearGradient id="paint4_linear_10_1879" x1="143.268" y1="134.051" x2="4.77224" y2="-11.4708" gradientUnits="userSpaceOnUse">
<stop stop-color="#FF001C"/>
<stop offset="0.2194" stop-color="#FF009D"/>
<stop offset="0.2677" stop-color="#F9049F"/>
<stop offset="0.3324" stop-color="#E80FA3"/>
<stop offset="0.4064" stop-color="#CC22AA"/>
<stop offset="0.4872" stop-color="#A53CB4"/>
<stop offset="0.5737" stop-color="#735DC0"/>
<stop offset="0.6634" stop-color="#3785CF"/>
<stop offset="0.7369" stop-color="#00AADD"/>
<stop offset="1" stop-color="#FFD400"/>
</linearGradient>
<radialGradient id="paint5_radial_10_1879" cx="0" cy="0" r="1" gradientUnits="userSpaceOnUse" gradientTransform="translate(97.2834 97.5751) rotate(-86.8472) scale(77.6378 77.6378)">
<stop offset="0.3112" stop-color="white"/>
<stop offset="1"/>
</radialGradient>
<radialGradient id="paint6_radial_10_1879" cx="0" cy="0" r="1" gradientUnits="userSpaceOnUse" gradientTransform="translate(167.775 53.0292) rotate(-86.8472) scale(1.04923 1.04923)">
<stop offset="0.25"/>
<stop offset="1" stop-color="white"/>
</radialGradient>
<radialGradient id="paint7_radial_10_1879" cx="0" cy="0" r="1" gradientUnits="userSpaceOnUse" gradientTransform="translate(211.539 103.252) rotate(-86.8472) scale(60.7929 60.7928)">
<stop offset="0.25"/>
<stop offset="1" stop-color="white"/>
</radialGradient>
<linearGradient id="paint8_linear_10_1879" x1="250.32" y1="118.567" x2="-97.2443" y2="-162.353" gradientUnits="userSpaceOnUse">
<stop stop-color="#00AADD"/>
<stop offset="0.0709" stop-color="#3E81CD"/>
<stop offset="0.146" stop-color="#785ABF"/>
<stop offset="0.2188" stop-color="#A83AB3"/>
<stop offset="0.2872" stop-color="#CE21A9"/>
<stop offset="0.3503" stop-color="#E90FA3"/>
<stop offset="0.4062" stop-color="#F9049E"/>
<stop offset="0.449" stop-color="#FF009D"/>
<stop offset="0.4797" stop-color="#FF0097"/>
<stop offset="0.5209" stop-color="#FF0086"/>
<stop offset="0.5679" stop-color="#FF006A"/>
<stop offset="0.6189" stop-color="#FF0044"/>
<stop offset="0.6633" stop-color="#FF001C"/>
<stop offset="1" stop-color="#FFD400"/>
</linearGradient>
<radialGradient id="paint9_radial_10_1879" cx="0" cy="0" r="1" gradientUnits="userSpaceOnUse" gradientTransform="translate(55.6181 -30.4183) rotate(93.1528) scale(196.19 196.19)">
<stop offset="0.852" stop-color="white"/>
<stop offset="0.8731" stop-color="#FDFBFC"/>
<stop offset="0.8933" stop-color="#F5F0F5"/>
<stop offset="0.9131" stop-color="#E9DCE8"/>
<stop offset="0.9327" stop-color="#D8C1D6"/>
<stop offset="0.9521" stop-color="#C39EBF"/>
<stop offset="0.9714" stop-color="#A873A3"/>
<stop offset="0.9903" stop-color="#894282"/>
<stop offset="1" stop-color="#77256F"/>
</radialGradient>
<radialGradient id="paint10_radial_10_1879" cx="0" cy="0" r="1" gradientUnits="userSpaceOnUse" gradientTransform="translate(211.367 103.365) rotate(-106.416) scale(117.868 117.868)">
<stop offset="0.3112" stop-color="white"/>
<stop offset="1"/>
</radialGradient>
<radialGradient id="paint11_radial_10_1879" cx="0" cy="0" r="1" gradientUnits="userSpaceOnUse" gradientTransform="translate(-57.9466 23.855) rotate(93.1528) scale(137.983 137.983)">
<stop offset="0.852" stop-color="white"/>
<stop offset="0.8731" stop-color="#FDFBFC"/>
<stop offset="0.8933" stop-color="#F5F0F5"/>
<stop offset="0.9131" stop-color="#E9DCE8"/>
<stop offset="0.9327" stop-color="#D8C1D6"/>
<stop offset="0.9521" stop-color="#C39EBF"/>
<stop offset="0.9714" stop-color="#A873A3"/>
<stop offset="0.9903" stop-color="#894282"/>
<stop offset="1" stop-color="#77256F"/>
</radialGradient>
<linearGradient id="paint12_linear_10_1879" x1="113.32" y1="-3.22618" x2="251.813" y2="142.293" gradientUnits="userSpaceOnUse">
<stop stop-color="#FF001C"/>
<stop offset="0.2194" stop-color="#FF009D"/>
<stop offset="0.2677" stop-color="#F9049F"/>
<stop offset="0.3324" stop-color="#E80FA3"/>
<stop offset="0.4064" stop-color="#CC22AA"/>
<stop offset="0.4872" stop-color="#A53CB4"/>
<stop offset="0.5737" stop-color="#735DC0"/>
<stop offset="0.6634" stop-color="#3785CF"/>
<stop offset="0.7369" stop-color="#00AADD"/>
<stop offset="1" stop-color="#FFD400"/>
</linearGradient>
<radialGradient id="paint13_radial_10_1879" cx="0" cy="0" r="1" gradientUnits="userSpaceOnUse" gradientTransform="translate(159.307 33.2491) rotate(93.1528) scale(77.6378)">
<stop offset="0.3112" stop-color="white"/>
<stop offset="1"/>
</radialGradient>
<radialGradient id="paint14_radial_10_1879" cx="0" cy="0" r="1" gradientUnits="userSpaceOnUse" gradientTransform="translate(88.8141 77.7934) rotate(93.1528) scale(1.04971 1.04969)">
<stop offset="0.25"/>
<stop offset="1" stop-color="white"/>
</radialGradient>
<radialGradient id="paint15_radial_10_1879" cx="0" cy="0" r="1" gradientUnits="userSpaceOnUse" gradientTransform="translate(45.0496 27.5742) rotate(93.1528) scale(60.7922 60.7922)">
<stop offset="0.25"/>
<stop offset="1" stop-color="white"/>
</radialGradient>
</defs>
</svg>
