<svg width="257" height="257" viewBox="0 0 257 257" fill="none" xmlns="http://www.w3.org/2000/svg">
<path d="M168.131 16.7614C152.61 25.6877 139.162 37.7503 128.607 52.0871C118.055 37.7503 104.573 25.6901 89.0547 16.7614L98.663 0.119141H158.525L168.131 16.7614Z" fill="#9F7DBA"/>
<path d="M168.133 239.47L158.525 256.113H98.6631L89.0547 239.47C104.573 230.573 118.055 218.513 128.607 204.176C139.164 218.513 152.612 230.573 168.133 239.47Z" fill="#9F7DBA"/>
<path d="M77.808 21.4149C73.1467 38.7007 72.1646 56.7406 74.8398 74.341C57.2393 71.6658 39.1801 72.6696 21.8918 77.3309L16.916 58.7699L59.2445 16.4414L77.808 21.4149Z" fill="#76B4DD"/>
<path d="M235.291 178.898L240.267 197.459L197.938 239.788L179.377 234.812C184.06 217.548 185.064 199.486 182.386 181.886C199.986 184.564 218.027 183.581 235.291 178.898Z" fill="#76B4DD"/>
<path d="M17.2362 88.5762C26.1649 104.095 38.2251 117.545 52.5619 128.1C38.2251 138.654 26.1649 152.134 17.2362 167.652L0.59375 158.044V98.1821L17.2362 88.5762Z" fill="#C5D864"/>
<path d="M239.951 88.5762L256.594 98.1845V158.046L239.951 167.654C231.054 152.136 218.994 138.654 204.654 128.102C218.991 117.548 231.054 104.097 239.951 88.5762Z" fill="#C5D864"/>
<path d="M21.8955 178.898C39.1814 183.56 57.2213 184.542 74.8218 181.867C72.1465 199.467 73.1504 217.526 77.8116 234.812L59.2505 239.788L16.9219 197.459L21.8955 178.898Z" fill="#F4A932"/>
<path d="M179.377 21.4173L197.938 16.4414L240.267 58.7699L235.291 77.3309C218.024 72.648 199.965 71.6442 182.364 74.3218C185.042 56.7214 184.06 38.6839 179.377 21.4173Z" fill="#F4A932"/>
<path d="M110.418 88.5753L128.59 57.1016L146.762 88.5753H110.418Z" fill="#F4A932"/>
<path d="M110.418 167.65L128.59 199.124L146.762 167.65H110.418Z" fill="#F4A932"/>
<path d="M89.0559 146.283L57.582 128.111L89.0559 109.939V146.283Z" fill="#76B4DD"/>
<path d="M168.131 146.283L199.605 128.111L168.131 109.939V146.283Z" fill="#76B4DD"/>
<path d="M87.7855 113.005L78.3789 77.9004L113.484 87.307L87.7855 113.005Z" fill="#9F7DBA"/>
<path d="M143.703 168.923L178.808 178.327L169.404 143.223L143.703 168.923Z" fill="#9F7DBA"/>
<path d="M113.484 168.923L78.3789 178.327L87.7855 143.223L113.484 168.923Z" fill="#C5D864"/>
<path d="M169.404 113.005L178.808 77.9004L143.703 87.307L169.404 113.005Z" fill="#C5D864"/>
</svg>
