<svg width="256" height="184" viewBox="0 0 256 184" fill="none" xmlns="http://www.w3.org/2000/svg">
<path fill-rule="evenodd" clip-rule="evenodd" d="M146.268 91.9982H130.202V108.064H146.268V91.9982ZM109.733 128.532H125.799V112.467H109.733V128.532ZM109.733 91.9982H125.799V108.064H109.733V91.9982ZM146.268 128.532H130.202V112.467H146.268V128.532ZM32.2627 99.3376L40.7395 113.031L58.5411 102.011V161.391H74.646V92.0409L128.001 59.0115L141.986 67.6693C141.34 64.896 140.901 62.06 140.652 59.1978C140.261 55.334 140.174 51.4438 140.088 47.5534L128.001 40.0703L32.2627 99.3376Z" fill="#00A651"/>
<path fill-rule="evenodd" clip-rule="evenodd" d="M197.357 158.204C197.39 157.933 197.429 157.661 197.46 157.39V90.9186C214.523 78.6281 212.846 59.545 209.015 46.243C201.161 18.9715 165.564 -0.887763 125.237 1.09766C151.571 14.5903 146.152 40.7731 147.958 58.5111C149.989 82.0756 167.58 94.9598 178.06 96.1541C183.852 74.4222 180.372 53.6353 172.287 31.7018C190.293 57.8622 200.098 124.846 158.972 154.395C164.377 155.111 192.038 157.258 197.357 158.204Z" fill="#067141"/>
<path fill-rule="evenodd" clip-rule="evenodd" d="M243.858 82.3953C243.858 82.3953 240.906 82.1568 237.682 84.6634C234.447 87.1637 230.182 94.2211 222.766 97.8908C215.352 101.564 209.732 97.7184 208.177 96.005C206.617 94.2997 207.783 91.9577 207.783 91.9577C207.783 91.9577 204.133 90.4522 207.355 85.5008C221.281 69.7863 243.858 82.3953 243.858 82.3953Z" fill="#00A651"/>
<path fill-rule="evenodd" clip-rule="evenodd" d="M222.405 117.321C222.405 117.321 221.336 115.702 218.742 115.05C216.147 114.391 210.786 115.039 205.9 112.694C201.014 110.353 200.729 105.902 200.986 104.408C201.236 102.915 202.915 102.572 202.915 102.572C202.915 102.572 202.218 100.082 206.072 99.7461C219.798 100.587 222.405 117.321 222.405 117.321Z" fill="#00A651"/>
<path fill-rule="evenodd" clip-rule="evenodd" d="M164.16 120.404C164.16 120.404 164.807 118.576 167.168 117.319C169.528 116.054 174.888 115.392 179.065 111.939C183.244 108.489 182.448 104.101 181.839 102.714C181.237 101.325 179.525 101.396 179.525 101.396C179.525 101.396 179.601 98.8112 175.78 99.4132C162.661 103.535 164.16 120.404 164.16 120.404Z" fill="#00A651"/>
<path fill-rule="evenodd" clip-rule="evenodd" d="M0.000976562 182.547C85.0642 156.9 170.417 159.136 256.001 183.637C184.061 135.444 72.6407 137.513 0.000976562 182.547Z" fill="#85B642"/>
<path fill-rule="evenodd" clip-rule="evenodd" d="M109.184 7.70638C109.184 7.70638 111.123 7.72665 113.077 9.55349C115.037 11.3768 117.399 16.2337 122.017 19.0685C126.633 21.9055 130.528 19.7323 131.643 18.7073C132.763 17.6879 132.141 16.0915 132.141 16.0915C132.141 16.0915 134.612 15.327 132.805 11.9059C124.659 0.827791 109.184 7.70638 109.184 7.70638Z" fill="#00A651"/>
<path fill-rule="evenodd" clip-rule="evenodd" d="M114.821 38.3114C114.821 38.3114 116.032 36.7964 118.675 36.3836C121.319 35.9626 126.599 37.0958 131.678 35.2053C136.757 33.3176 137.445 28.9109 137.326 27.4008C137.212 25.8911 135.572 25.3969 135.572 25.3969C135.572 25.3969 136.492 22.9802 132.684 22.2947C118.939 21.884 114.821 38.3114 114.821 38.3114Z" fill="#00A651"/>
</svg>
