<svg width="257" height="254" viewBox="0 0 257 254" fill="none" xmlns="http://www.w3.org/2000/svg">
<path d="M83.3553 6.8457C80.5169 8.9394 77.8627 11.4342 75.3714 14.3412C74.2033 15.7043 73.0681 17.158 71.9654 18.6802C69.3836 21.3956 66.9612 24.2523 64.7085 27.2243C52.0495 43.9293 44.442 64.0008 39.7665 84.4373C36.4545 98.9296 34.5598 114.21 38.4323 128.561C40.2256 135.204 43.4729 141.611 47.8875 146.912C50.3318 149.851 53.1341 152.447 56.2436 154.555C58.6844 156.212 61.3167 157.564 64.1116 158.544C62.9799 161.028 61.8518 163.515 60.7632 166.01C59.6856 168.476 58.6444 170.971 57.6753 173.495C52.1757 175.596 46.759 177.408 41.5668 175.194C35.9477 172.801 33.1602 166.545 31.2906 160.731C20.5408 127.361 23.3032 89.854 38.8225 58.4181C48.987 37.8296 64.5459 19.9964 83.3553 6.8457Z" fill="#3BC2D4"/>
<path d="M86.2216 4.89062V4.89416C86.2071 4.8977 86.1961 4.90512 86.1855 4.91572C86.1961 4.90512 86.2106 4.89769 86.2216 4.89062Z" fill="#3BC2D4"/>
<path d="M77.128 238.234C67.6618 226.909 64.1618 211.495 64.8199 196.75C65.4779 182.001 69.9325 167.704 74.8646 153.794C79.7967 139.881 85.2674 126.068 88.0877 111.58C89.5919 110.614 91.1215 109.685 92.6688 108.799L92.6579 108.333C93.0194 108.282 93.3845 108.232 93.7461 108.185C93.8436 108.13 93.9376 108.076 94.0352 108.026C93.9846 108.026 93.9302 108.033 93.8761 108.036C94.2087 107.874 94.5452 107.711 94.8777 107.548C88.926 101.224 81.2206 97.1131 73.0201 95.6309C78.1327 107.111 77.6807 120.186 74.5062 132.009C73.7432 134.851 72.8395 137.643 71.8304 140.398C68.6521 149.112 64.4795 157.49 60.7625 166.012C55.9174 177.113 51.7593 188.843 51.7735 200.948V201.328C51.7767 201.72 51.7844 202.112 51.7964 202.503C52.381 221.249 64.3155 237.793 81.7554 244.694C83.0054 245.189 84.2654 245.664 85.5342 246.12C82.4431 243.828 79.6118 241.206 77.128 238.234Z" fill="#FC5940"/>
<path d="M129.365 249.616C112.845 247.288 96.7653 238.606 87.9462 224.443C77.4785 207.623 78.538 186.123 82.5441 166.724C86.5142 147.474 93.0589 128.436 92.6684 108.799C91.1207 109.685 89.5914 110.614 88.0873 111.579C85.2669 126.068 79.7962 139.88 74.8642 153.794C69.9321 167.704 65.4775 182.001 64.8194 196.75C64.1613 211.495 67.6613 226.909 77.1275 238.234C79.6117 241.206 82.4427 243.828 85.5341 246.12C99.0537 250.98 113.633 253.626 128.83 253.626C154.723 253.626 178.819 245.939 198.959 232.716C192.345 236.455 185.471 239.727 178.359 242.472C162.794 248.481 145.89 251.945 129.365 249.616Z" fill="#FD7232"/>
<path d="M94.0352 108.024C93.9376 108.075 93.8436 108.129 93.7461 108.183C94.2271 108.118 94.7078 108.057 95.1923 108.003C94.8124 107.985 94.4257 107.988 94.0352 108.024Z" fill="#FC5940"/>
<path d="M92.6688 108.798C93.0268 108.589 93.3884 108.382 93.7464 108.184C93.3849 108.231 93.0198 108.281 92.6582 108.332L92.6688 108.798Z" fill="#FC5940"/>
<path d="M247.614 134.3C245.498 159.224 237.793 183.895 222.599 203.644C205.406 225.99 177.796 241.173 149.657 239.441C130.411 238.255 110.994 228.362 101.987 211.313C93.804 195.819 95.1092 177.209 97.1485 159.802C99.1772 142.519 101.632 124.425 95.5358 108.143C95.5069 108.146 95.4743 108.154 95.4454 108.157C95.4019 108.107 95.3549 108.056 95.3079 108.009C95.2718 108.006 95.2319 108.002 95.1923 108.002C94.7078 108.056 94.2268 108.118 93.7461 108.183C93.3881 108.382 93.0265 108.588 92.6685 108.798C93.059 128.435 86.5143 147.472 82.5442 166.723C78.5378 186.122 77.4786 207.621 87.9463 224.442C96.7654 238.605 112.845 247.287 129.365 249.615C145.89 251.944 162.794 248.48 178.36 242.47C185.472 239.726 192.346 236.453 198.959 232.715C198.967 232.711 198.974 232.707 198.981 232.704C212.305 223.957 223.901 212.788 233.14 199.825C247.943 179.052 256.697 153.673 256.827 126.254C253.818 129.006 250.745 131.693 247.614 134.3Z" fill="#FF9526"/>
<path d="M97.1494 159.802C95.1102 177.209 93.805 195.819 101.987 211.313C110.995 228.362 130.411 238.254 149.658 239.44C177.797 241.173 205.407 225.99 222.6 203.644C237.794 183.894 245.499 159.224 247.614 134.3C246.953 134.857 246.287 135.403 245.622 135.949C244.87 136.563 244.114 137.178 243.351 137.785C242.285 138.639 241.211 139.485 240.133 140.324C239.544 140.779 238.955 141.235 238.365 141.683C235.169 158.634 230.548 175.444 222.025 190.396C212.574 206.989 197.785 221.217 179.475 226.637C161.16 232.054 139.346 227.23 127.403 212.329C117.214 199.612 115.467 182.246 114.976 165.957C114.48 149.667 114.661 132.644 107.278 118.116C104.909 113.459 100.935 108.762 95.9927 108.078L95.5371 108.143C101.633 124.425 99.1781 142.519 97.1494 159.802Z" fill="#FEB431"/>
<path d="M107.277 118.116C114.66 132.644 114.48 149.668 114.975 165.957C115.466 182.246 117.213 199.613 127.402 212.33C139.345 227.231 161.159 232.054 179.474 226.637C197.784 221.217 212.573 206.989 222.024 190.396C230.547 175.445 235.168 158.635 238.364 141.684C237.869 142.063 237.374 142.439 236.875 142.812C236.242 143.289 235.602 143.763 234.962 144.233C234.68 144.442 234.394 144.652 234.109 144.862C233.4 145.379 232.687 145.896 231.972 146.406C231.26 146.92 230.547 147.426 229.827 147.928C229.057 148.471 228.28 149.009 227.503 149.545C226.241 157.409 224.144 165.107 220.983 172.418C214.298 187.887 202.514 201.533 187.1 208.345C178.689 212.066 169.241 213.682 160.162 212.196C151.083 210.713 142.434 206.002 136.843 198.698C130.744 190.725 128.617 180.196 129.521 170.198C129.785 167.273 130.292 164.384 130.99 161.538C130.874 147.498 132.418 133.028 125.034 121.482C118.967 111.998 107.14 106.56 95.9922 108.079C100.935 108.762 104.908 113.459 107.277 118.116Z" fill="#FFD278"/>
<path d="M94.036 108.024C94.318 107.865 94.6001 107.706 94.8856 107.554C94.8856 107.551 94.8856 107.551 94.8786 107.547C94.546 107.709 94.2095 107.872 93.877 108.035C93.931 108.032 93.9851 108.024 94.036 108.024Z" fill="#FC5940"/>
<path d="M95.1923 108.003C95.2248 108 95.2573 107.996 95.2898 107.992C95.1598 107.844 95.0258 107.699 94.8848 107.555C94.5992 107.707 94.3172 107.866 94.0352 108.025C94.4257 107.989 94.8123 107.985 95.1923 108.003Z" fill="#FC5940"/>
<path d="M95.3089 108.01C95.3054 108.003 95.298 107.996 95.2909 107.992C95.2584 107.996 95.2259 107.999 95.1934 108.003C95.2329 108.003 95.2729 108.007 95.3089 108.01Z" fill="#FFD278"/>
<path d="M212.129 28.4358C207.273 24.2668 202.098 20.4558 196.649 17.0495C185.693 10.1902 173.62 4.94358 160.77 1.64258C174.647 7.47482 188.007 14.3196 199.979 23.3917C232.475 48.0192 251.812 88.1293 253.92 128.872C254.896 128.008 255.865 127.133 256.827 126.254C256.831 126.045 256.831 125.835 256.831 125.625C256.831 86.741 239.493 51.9097 212.129 28.4358Z" fill="#FFD278"/>
<path d="M199.979 23.3919C188.007 14.3198 174.646 7.47495 160.769 1.64271C159.131 1.22319 157.482 0.832649 155.822 0.478516C158.892 1.91025 161.911 3.4579 164.873 5.1176C186.969 15.1694 206.429 31.0754 220.368 50.9662C237.731 75.7453 246.355 106.462 244.76 136.65C245.049 136.415 245.335 136.184 245.621 135.949C248.438 133.645 251.204 131.288 253.919 128.872C251.812 88.1297 232.474 48.0193 199.979 23.3919Z" fill="#FEB431"/>
<path d="M220.368 50.9658C206.43 31.0753 186.969 15.1693 164.873 5.11719C185.91 16.8796 203.964 34.0328 216.391 54.6973C232.402 81.317 238.889 113.447 234.955 144.236C234.959 144.236 234.959 144.232 234.963 144.232C235.603 143.762 236.243 143.289 236.875 142.811C237.967 141.99 239.052 141.162 240.133 140.323C241.211 139.484 242.284 138.638 243.351 137.785C243.825 137.409 244.295 137.029 244.761 136.65C246.355 106.462 237.732 75.7449 220.368 50.9658Z" fill="#FF9526"/>
<path d="M155.822 0.478613C155.081 0.316037 154.333 0.164064 153.584 0.015625C154.701 0.59065 155.815 1.18724 156.921 1.79831C159.608 2.81795 162.258 3.92453 164.872 5.11769C161.911 3.458 158.892 1.9107 155.822 0.478613Z" fill="#FD7232"/>
<path d="M216.391 54.6983C203.964 34.0338 185.91 16.8806 164.873 5.11821C162.259 3.92504 159.608 2.81846 156.922 1.79883C175.341 11.9411 192.219 26.6285 203.392 42.9865C206.958 48.2041 210.146 53.6568 212.963 59.301V59.3045C222.78 78.9745 228.074 100.915 228.938 122.925C229.285 131.802 228.916 140.776 227.502 149.545C228.28 149.01 229.057 148.471 229.827 147.928C230.547 147.426 231.259 146.92 231.971 146.406C232.687 145.896 233.399 145.379 234.108 144.862C234.39 144.652 234.676 144.446 234.954 144.236C238.889 113.448 232.402 81.3181 216.391 54.6983Z" fill="#FD7232"/>
<path opacity="0.5686" d="M157.881 2.33053C157.129 1.88203 156.366 1.4519 155.596 1.04688C155.643 1.07939 155.686 1.11544 155.733 1.14796C156.453 1.53531 157.168 1.92939 157.881 2.33053Z" fill="#A9FC51"/>
<path d="M222.173 105.88C220.56 75.9552 207.634 47.2167 187.826 24.6468C187.823 24.6433 187.819 24.6398 187.812 24.6359C178.964 16.0303 168.702 8.39735 157.88 2.33008C164.396 6.19162 170.337 11.3842 175.442 16.6559C186.601 28.1793 197.459 40.2563 205.063 54.3796C220.275 82.6336 220.784 118.311 206.39 146.988C193.17 173.315 167.719 193.09 138.662 200.864C143.71 206.381 150.613 210.131 157.949 211.765C166.866 209.502 175.345 204.588 182.565 198.738C209.705 176.746 224.053 140.762 222.173 105.88Z" fill="#249DAD"/>
<path d="M228.939 122.924C228.074 100.915 222.781 78.9738 212.964 59.3039V59.3003C210.147 53.6561 206.958 48.2034 203.393 42.9858C199 36.557 193.728 30.3847 187.827 24.6465C207.634 47.2163 220.561 75.9549 222.174 105.879C224.054 140.761 209.706 176.746 182.566 198.737C175.345 204.588 166.866 209.502 157.949 211.765C158.683 211.931 159.421 212.076 160.162 212.195C169.242 213.682 178.689 212.065 187.1 208.345C202.514 201.532 214.298 187.886 220.984 172.418C224.144 165.106 226.241 157.408 227.503 149.544C228.917 140.775 229.286 131.801 228.939 122.924Z" fill="#108D9E"/>
<path d="M206.389 146.989C220.784 118.311 220.274 82.6341 205.062 54.3801C197.458 40.2569 186.6 28.1799 175.442 16.6564C170.336 11.3847 164.395 6.19219 157.879 2.33065C157.167 1.92916 156.451 1.53509 155.732 1.14844C172.202 13.6304 186.875 29.923 195.542 48.1722C205.945 70.0659 209.253 95.5176 203.345 119.024C197.437 142.534 182.037 163.791 160.805 175.485C152.456 180.084 143.095 183.244 133.567 183.027C132.392 183.002 131.217 182.919 130.045 182.778C131.086 188.545 133.292 194.056 136.843 198.698C137.418 199.447 138.021 200.17 138.661 200.864C167.718 193.09 193.17 173.315 206.389 146.989Z" fill="#3BC2D4"/>
<path d="M160.805 175.484C182.037 163.791 197.437 142.533 203.346 119.023C209.254 95.5169 205.945 70.0652 195.543 48.1715C186.876 29.9223 172.203 13.6297 155.732 1.14776C155.114 0.815189 154.496 0.489682 153.877 0.168064C153.769 0.113636 153.657 0.0595578 153.548 0.00901777C153.534 0.00548351 153.519 0.00548739 153.505 0.00195312C162.769 6.60078 170.836 15.0473 177.532 24.2749C191.616 43.6993 200.348 67.4043 199.813 91.3917C199.278 115.379 188.933 139.446 170.355 154.629C159.366 163.607 145.478 169.103 131.372 170.195C131.108 167.345 131.014 164.453 130.989 161.538C130.291 164.384 129.785 167.273 129.521 170.198C129.145 174.375 129.293 178.641 130.045 182.778C131.217 182.919 132.392 183.002 133.567 183.027C143.095 183.244 152.456 180.084 160.805 175.484Z" fill="#4CE0F4"/>
<path d="M41.5665 175.196C35.9474 172.802 33.1599 166.547 31.2903 160.732C20.5404 127.362 23.3028 89.8551 38.8221 58.4192C49.4995 36.793 66.1289 18.2077 86.2219 4.89062C86.07 4.9447 85.9184 4.9956 85.7699 5.04967C85.7625 5.05321 85.7554 5.0532 85.7519 5.05674C56.2178 19.0609 32.1979 44.5271 20.2513 74.9794C7.06075 108.614 8.79997 147.795 24.9194 180.127C27.8953 186.09 32.3173 192.49 38.9561 193.083C43.7687 193.513 48.5053 190.744 53.0903 188.632C54.1534 183.494 55.7767 178.439 57.6753 173.496C52.1753 175.597 46.759 177.408 41.5665 175.196Z" fill="#249DAD"/>
<path d="M53.0902 188.632C52.2911 192.519 51.8101 196.457 51.7776 200.434C47.605 202.936 42.6984 204.224 37.8384 203.912C37.368 203.883 36.899 203.838 36.4322 203.779C29.6517 202.918 23.6597 198.916 20.0501 193.111C7.86643 173.52 0.830078 150.393 0.830078 125.626C0.830078 70.0472 36.2505 22.7453 85.7511 5.05664C56.217 19.0608 32.197 44.527 20.2505 74.9793C7.05992 108.613 8.79914 147.795 24.9186 180.127C27.8944 186.09 32.3165 192.49 38.9553 193.083C43.7686 193.514 48.5052 190.744 53.0902 188.632Z" fill="#108D9E"/>
<path d="M84.0764 109.882C83.6424 114.338 83.0366 118.777 82.2598 123.186C82.8118 121.007 83.812 118.943 85.1798 117.16C84.6359 118.925 84.0919 120.689 83.548 122.453C84.3354 120.745 85.1229 119.036 85.9103 117.328C85.4869 118.913 85.0635 120.498 84.6405 122.083C85.0564 121.022 85.4724 119.96 85.8884 118.899C85.5205 120.493 85.1529 122.087 84.785 123.681C85.5014 120.393 86.2394 117.048 87.8976 114.12C89.5559 111.192 92.3059 108.69 95.6317 108.176C93.7285 106.625 91.2015 105.865 88.7589 106.107C86.316 106.348 84.2987 107.599 84.0764 109.882Z" fill="#FC5940"/>
<path opacity="0.4392" d="M73.2656 95.7734C78.9268 100.688 83.9971 106.283 88.1364 112.428C89.4536 110.082 91.765 108.315 94.3751 107.66C88.5372 101.708 80.9025 97.5416 73.2656 95.7734Z" fill="url(#paint0_linear_10_1299)"/>
<path d="M86.1858 4.91602C85.2567 5.53062 84.3346 6.15972 83.4199 6.79977C84.3236 6.12756 85.2457 5.49846 86.1858 4.91602Z" fill="#3BC2D4"/>
<path d="M71.0671 142.442C69.476 146.582 67.6827 150.657 65.8494 154.714C65.2709 155.991 64.6923 157.267 64.1102 158.543C61.3153 157.563 58.683 156.211 56.2422 154.555C53.1328 152.447 50.3305 149.851 47.8862 146.911C43.4712 141.61 40.2242 135.203 38.4309 128.561C34.5584 114.209 36.4532 98.9291 39.7651 84.4368C44.4403 64.0003 52.0481 43.9288 64.7071 27.2238C66.9599 24.2515 69.3823 21.3951 71.9641 18.6797C65.1193 28.1204 59.5871 40.2804 56.2171 50.8857C54.7854 55.3873 53.5378 59.9613 52.5327 64.5859C50.298 74.8441 49.2493 85.337 50.0449 95.7868C51.1985 110.944 56.4267 126.033 66.3159 137.582C67.7876 139.296 69.3713 140.938 71.0671 142.442Z" fill="#4CE0F4"/>
<path opacity="0.4" d="M153.877 0.167969C178.357 14.287 191.627 25.0616 204.309 44.3459C214.226 59.4267 220.31 73.9921 224.62 91.5196C228.929 109.047 230.418 128.925 227.502 149.544C227.502 149.544 242.021 139.776 251.111 131.334C254.572 128.12 256.684 121.949 256.404 117.233C254.815 90.4649 244.489 66.416 227.265 45.848C208.351 23.263 196.057 14.3637 153.877 0.167969Z" fill="white"/>
<path d="M103.037 138.693C106.861 138.693 109.961 135.593 109.961 131.769C109.961 127.946 106.861 124.846 103.037 124.846C99.2131 124.846 96.1133 127.946 96.1133 131.769C96.1133 135.593 99.2131 138.693 103.037 138.693Z" fill="white"/>
<path d="M103.197 136.422C105.745 136.422 107.811 134.356 107.811 131.809C107.811 129.261 105.745 127.195 103.197 127.195C100.649 127.195 98.584 129.261 98.584 131.809C98.584 134.356 100.649 136.422 103.197 136.422Z" fill="black"/>
<defs>
<linearGradient id="paint0_linear_10_1299" x1="75.2931" y1="99.5473" x2="86.9595" y2="106.662" gradientUnits="userSpaceOnUse">
<stop stop-color="#FFAB9E"/>
<stop offset="1" stop-color="white" stop-opacity="0.4314"/>
</linearGradient>
</defs>
</svg>
