<svg width="240" height="257" viewBox="0 0 240 257" fill="none" xmlns="http://www.w3.org/2000/svg">
<path d="M114.9 239.861V244.535C106.403 233.111 82.1864 210.074 20.4404 198.792V102.396C27.2854 103.671 33.9415 105.134 40.1727 106.787V189.728L41.8249 190.106C73.7836 197.612 92.0053 210.83 101.635 220.601C103.712 222.678 105.459 224.708 106.97 226.596C107.19 226.88 107.395 227.147 107.583 227.399C107.93 227.84 108.244 228.264 108.528 228.674C108.685 228.862 108.842 229.067 109 229.287C109.912 230.578 110.715 231.789 111.407 232.922C111.69 233.394 111.958 233.851 112.21 234.291C113.531 236.557 114.287 238.304 114.664 239.248C114.727 239.374 114.775 239.484 114.806 239.578C114.837 239.673 114.869 239.767 114.9 239.861Z" fill="url(#paint0_linear_11_3902)"/>
<path d="M124.908 239.861V244.535C133.405 233.158 157.622 210.074 219.368 198.792V102.443C212.523 103.671 205.867 105.181 199.636 106.786V189.728L197.984 190.106C166.025 197.611 147.803 210.829 138.173 220.601C136.096 222.678 134.349 224.708 132.839 226.596C132.619 226.879 132.414 227.147 132.225 227.399C131.879 227.839 131.564 228.264 131.281 228.673C131.124 228.862 130.966 229.067 130.809 229.287C129.896 230.577 129.094 231.789 128.401 232.922C128.118 233.394 127.851 233.85 127.599 234.291C126.277 236.557 125.522 238.303 125.144 239.247C125.081 239.373 125.034 239.483 125.003 239.578C124.971 239.672 124.94 239.767 124.908 239.861Z" fill="url(#paint1_linear_11_3902)"/>
<path d="M114.9 252.466V256.1C105.506 245.101 76.8048 220.979 0 209.366V112.971C5.57035 113.82 10.9991 114.765 16.239 115.756V202.285L17.9856 202.616C60.377 210.169 84.5466 223.434 97.3396 233.253C109.66 242.647 114.051 250.766 114.9 252.466Z" fill="url(#paint2_linear_11_3902)"/>
<path d="M114.9 211.536V230.56C112.729 227.02 109.519 222.583 104.893 217.862C95.0266 207.807 76.5689 194.211 44.4214 186.375V90.0742C74.7751 97.6744 92.2886 110.42 101.636 119.956C104.515 122.835 106.781 125.621 108.622 128.123C108.528 128.343 108.449 128.579 108.386 128.831C104.846 137.894 98.8031 143.937 90.4476 146.722L86.0102 148.185L87.9457 152.481L113.343 208.137L113.579 208.609L114.9 211.536Z" fill="url(#paint3_linear_11_3902)"/>
<path d="M124.908 252.466V256.1C134.302 245.101 163.004 220.979 239.809 209.366V112.971C234.238 113.82 228.809 114.765 223.57 115.756V202.332L221.823 202.616C179.432 210.169 155.262 223.434 142.469 233.253C130.148 242.647 125.758 250.766 124.908 252.466Z" fill="url(#paint4_linear_11_3902)"/>
<path d="M195.435 90.0742V186.375C163.24 194.211 144.782 207.807 134.916 217.862C130.29 222.583 127.08 227.02 124.908 230.56V211.536L126.466 208.137L151.863 152.481L153.846 148.185L149.361 146.722C141.006 143.937 134.963 137.894 131.423 128.831C131.36 128.579 131.281 128.343 131.187 128.123C133.028 125.621 135.294 122.835 138.173 119.956C147.52 110.42 165.034 97.6744 195.435 90.0742Z" fill="url(#paint5_linear_11_3902)"/>
<path d="M128.826 159.468C128.826 154.748 125.474 150.782 121.037 149.838C120.376 149.712 119.684 149.634 118.96 149.602C117.544 149.602 116.128 149.933 114.9 150.499C111.501 152.057 109.094 155.503 109.094 159.468C109.094 161.923 109.991 164.142 111.454 165.841C111.454 165.873 111.454 165.888 111.454 165.888C112.398 166.974 113.578 167.871 114.9 168.485C115.608 168.815 116.411 169.051 117.213 169.193V206.391L114.9 201.388L107.206 184.535L91.769 150.735C97.9531 148.658 102.532 145.212 105.884 141.294C108.291 138.462 110.085 135.393 111.454 132.372C115.372 123.544 115.514 115.236 115.514 115.236V113.678C115.514 105.511 113.201 101.641 108.669 96.6839C106.261 94.0403 103.193 91.1135 99.5109 87.1482C98.2363 85.7792 96.9145 84.2686 95.4983 82.6164C85.1129 70.4843 85.6794 56.8889 86.4347 51.4129C86.4347 51.3815 86.4347 51.3657 86.4347 51.3657C86.5606 50.6104 86.718 49.8079 86.9068 48.9582C86.9068 48.8953 86.9068 48.8638 86.9068 48.8638C89.4087 36.9678 97.4338 17.1883 122.878 0.0996094C122.878 0.0996094 122.831 0.335638 122.784 0.760496C122.406 3.82891 119.102 11.8068 129.487 26.6296C136.898 37.251 133.924 48.3445 133.924 48.3445C139.825 40.7443 135.907 32.5304 135.765 31.7751C135.734 31.7751 135.718 31.7751 135.718 31.7751C135.718 31.7436 135.718 31.7279 135.718 31.7279C135.75 31.7594 135.765 31.7751 135.765 31.7751C156.064 47.9669 145.915 71.8061 134.916 90.5942C124.389 108.674 124.294 113.82 124.294 113.82V115.236C124.294 115.236 124.483 127.604 131.517 138.084C135.01 143.371 140.25 148.139 148.039 150.735L122.595 206.391V168.674C126.277 167.21 128.826 163.623 128.826 159.468Z" fill="url(#paint6_linear_11_3902)"/>
<g style="mix-blend-mode:soft-light" opacity="0.3">
<path d="M124.294 113.82V115.236C124.294 115.236 124.483 127.604 131.517 138.084C131.517 138.084 126.513 142.616 121.037 149.839C120.376 149.713 119.684 149.634 118.96 149.603C117.544 149.603 116.128 149.933 114.9 150.499C111.501 152.057 109.094 155.503 109.094 159.469C109.094 161.923 109.991 164.142 111.454 165.842C111.454 165.873 111.454 165.889 111.454 165.889C108.905 171.695 107.206 178.021 107.206 184.535L91.769 150.735C97.9531 148.658 102.532 145.212 105.884 141.294C108.291 138.462 110.085 135.393 111.454 132.372C115.372 123.545 115.514 115.236 115.514 115.236V113.678C115.514 105.512 113.201 101.641 108.669 96.6842C106.261 94.0406 103.193 91.1138 99.5109 87.1485C152.618 66.8969 136.143 32.6251 135.765 31.7754C135.734 31.7754 135.718 31.7754 135.718 31.7754C135.75 31.7754 135.765 31.7754 135.765 31.7754C156.064 47.9672 145.915 71.8064 134.916 90.5945C124.389 108.675 124.294 113.82 124.294 113.82Z" fill="black"/>
</g>
<g style="mix-blend-mode:soft-light" opacity="0.3">
<path d="M195.435 90.0742V186.375C163.24 194.211 144.782 207.807 134.916 217.862C130.29 222.583 127.08 227.02 124.908 230.56C124.908 230.56 139.117 175.99 195.435 90.0742Z" fill="black"/>
</g>
<g style="mix-blend-mode:soft-light" opacity="0.3">
<path d="M114.9 230.562C112.729 227.021 109.519 222.584 104.893 217.863C95.0266 207.808 76.5689 194.213 44.4214 186.376C68.355 145.779 101.636 119.957 101.636 119.957L108.622 128.124C108.528 128.344 108.449 128.58 108.386 128.832C104.846 137.895 98.8031 143.938 90.4476 146.723L86.0102 148.186L87.9457 152.482L113.343 208.139L114.9 211.537V230.562Z" fill="black"/>
</g>
<defs>
<linearGradient id="paint0_linear_11_3902" x1="174.587" y1="-5.68771" x2="174.587" y2="250.952" gradientUnits="userSpaceOnUse">
<stop stop-color="#FAAF40"/>
<stop offset="1" stop-color="#EE4036"/>
</linearGradient>
<linearGradient id="paint1_linear_11_3902" x1="279.035" y1="-5.68804" x2="279.035" y2="250.952" gradientUnits="userSpaceOnUse">
<stop stop-color="#FAAF40"/>
<stop offset="1" stop-color="#EE4036"/>
</linearGradient>
<linearGradient id="paint2_linear_11_3902" x1="-31.6467" y1="276.126" x2="-31.6467" y2="82.018" gradientUnits="userSpaceOnUse">
<stop stop-color="#26CDBA"/>
<stop offset="1" stop-color="#6336E6"/>
</linearGradient>
<linearGradient id="paint3_linear_11_3902" x1="-60.2271" y1="276.124" x2="-60.2271" y2="82.0175" gradientUnits="userSpaceOnUse">
<stop stop-color="#26CDBA"/>
<stop offset="1" stop-color="#6336E6"/>
</linearGradient>
<linearGradient id="paint4_linear_11_3902" x1="93.2365" y1="276.126" x2="93.2365" y2="82.018" gradientUnits="userSpaceOnUse">
<stop stop-color="#26CDBA"/>
<stop offset="1" stop-color="#6336E6"/>
</linearGradient>
<linearGradient id="paint5_linear_11_3902" x1="20.2724" y1="276.124" x2="20.2724" y2="82.0175" gradientUnits="userSpaceOnUse">
<stop stop-color="#26CDBA"/>
<stop offset="1" stop-color="#6336E6"/>
</linearGradient>
<linearGradient id="paint6_linear_11_3902" x1="460.441" y1="-5.68836" x2="460.441" y2="250.951" gradientUnits="userSpaceOnUse">
<stop stop-color="#FAAF40"/>
<stop offset="1" stop-color="#EE4036"/>
</linearGradient>
</defs>
</svg>
