<svg width="211" height="257" viewBox="0 0 211 257" fill="none" xmlns="http://www.w3.org/2000/svg">
<path d="M210.061 106.544V118.968L85.554 173.783L58.1464 185.834C48.3352 190.153 40.0702 198.044 34.7914 207.216C30.8988 213.988 28.6593 221.453 28.6593 228.758C28.6593 228.918 28.6593 229.078 28.6593 229.291L24.9801 212.228L1.51837 103.078C-1.89424 87.3476 8.1303 70.2846 25.1401 62.8195L165.324 0.699219L210.061 106.544Z" fill="url(#paint0_linear_11_3809)"/>
<path d="M74.6235 201.457L59.0535 206.789L74.037 202.257L163.245 175.382L192.572 166.531L200.624 164.132L210.062 187.327L192.572 190.899L163.245 196.925L67.2651 216.6L59.0535 218.307L67.1584 216.974L163.245 201.724L192.572 197.031L200.624 195.805L210.062 221.666L66.6252 233.77L55.6409 234.73L66.7852 234.303L197.211 229.611L209.688 248.54L202.01 248.327L74.7835 247.367L56.4407 247.261C44.8165 247.154 36.6582 238.622 36.6582 226.518C36.6582 213.135 46.2562 199.217 59.4801 193.352L202.01 130.592L210.062 126.859V155.173L74.6235 201.457Z" fill="url(#paint1_linear_11_3809)"/>
<g style="mix-blend-mode:multiply" opacity="0.71">
<path d="M210.062 126.807V134.112L94.6193 184.928C86.6743 188.447 79.6891 194.366 74.6235 201.458C74.4103 201.706 74.2147 201.973 74.037 202.257C74.037 202.257 74.037 202.257 74.037 202.311C70.9443 206.736 68.6515 211.589 67.2651 216.601C67.2295 216.743 67.194 216.868 67.1584 216.974C66.3053 220.227 65.8787 223.533 65.8787 226.786C65.8787 229.238 66.1276 231.567 66.6252 233.771C66.6608 233.984 66.7141 234.162 66.7852 234.304C68.1182 239.69 70.891 244.169 74.7835 247.368L56.4407 247.261C44.8165 247.155 36.6582 238.676 36.6582 226.519C36.6582 213.135 46.2562 199.218 59.4801 193.406L202.01 130.592L210.062 126.807Z" fill="#FF9E00"/>
</g>
<path d="M202.009 248.327L56.44 247.26C44.8158 247.154 36.6575 238.675 36.6575 226.518C36.6575 213.134 46.2555 199.217 59.4793 193.352L202.009 130.592L210.061 126.859V118.914L58.1463 185.833C41.1365 193.352 28.6592 211.481 28.6592 228.758C28.6592 244.488 39.1103 255.472 54.2538 255.579L210.061 256.698V248.54L202.009 248.327Z" fill="white"/>
<g style="mix-blend-mode:multiply" opacity="0.71">
<path d="M93.7129 196.338V243.848L108.376 234.676L123.04 240.648V187.486L93.7129 196.338Z" fill="#FF9E00"/>
</g>
<path d="M128.905 237.396L114.242 231.37L99.5781 240.595V194.525L128.905 185.727V237.396Z" fill="white"/>
<path fill-rule="evenodd" clip-rule="evenodd" d="M210.061 106.543V118.914L85.5544 173.782L58.1468 185.833C48.2822 190.205 39.9106 198.15 34.6851 207.428C34.2585 208.175 33.8497 208.921 33.4587 209.668C33.3876 209.775 33.3343 209.881 33.2987 209.988C32.9432 210.699 32.6233 211.392 32.3389 212.067C32.2678 212.245 32.1967 212.405 32.1256 212.547C31.8057 213.258 31.5213 213.987 31.2725 214.733C31.1658 214.947 31.077 215.16 31.0059 215.373C30.757 216.12 30.526 216.849 30.3127 217.56C30.2416 217.773 30.1883 217.986 30.1527 218.199C29.975 218.839 29.815 219.461 29.6728 220.066C29.6373 220.279 29.5839 220.475 29.5128 220.652C29.3707 221.363 29.2462 222.092 29.1396 222.838C29.104 223.087 29.0685 223.336 29.033 223.585C28.9263 224.296 28.8374 225.007 28.7663 225.718C28.7663 225.967 28.7486 226.198 28.713 226.411C28.6775 227.086 28.6597 227.762 28.6597 228.437C28.6597 228.544 28.6597 228.651 28.6597 228.757C28.6597 228.917 28.6597 229.077 28.6597 229.29L24.9805 212.227C26.2069 204.336 28.6597 199.697 28.6597 199.697C33.9919 189.086 43.5365 179.808 54.9475 174.849L210.061 106.543ZM28.6597 228.651C28.6597 228.686 28.6597 228.722 28.6597 228.757C28.6597 228.793 28.6597 228.828 28.6597 228.864V228.651Z" fill="url(#paint2_linear_11_3809)"/>
<defs>
<linearGradient id="paint0_linear_11_3809" x1="57.3562" y1="272.503" x2="20.8711" y2="281.625" gradientUnits="userSpaceOnUse">
<stop stop-color="#00BEF5"/>
<stop offset="1" stop-color="#007DC6"/>
</linearGradient>
<linearGradient id="paint1_linear_11_3809" x1="139.523" y1="101.696" x2="193.928" y2="178.305" gradientUnits="userSpaceOnUse">
<stop stop-color="#FF5600"/>
<stop offset="1" stop-color="#FFD800"/>
</linearGradient>
<linearGradient id="paint2_linear_11_3809" x1="77.057" y1="237.351" x2="71.1411" y2="26.7427" gradientUnits="userSpaceOnUse">
<stop stop-color="#00A6ED"/>
<stop offset="1" stop-color="#006ABE"/>
</linearGradient>
</defs>
</svg>
