<svg width="257" height="153" viewBox="0 0 257 153" fill="none" xmlns="http://www.w3.org/2000/svg">
<path d="M98.6656 114.322C98.1087 113.925 93.0969 110.265 93.8129 105.015C94.1311 102.628 92.54 100.48 90.1535 100.082C87.7669 99.6846 85.5394 101.276 85.1417 103.662C85.1417 103.901 84.6643 106.924 85.7781 110.742C80.3685 117.266 72.3337 120.925 63.6625 120.925C54.8322 120.925 46.6382 117.107 41.3082 110.345C39.7967 108.515 37.0124 108.197 35.1827 109.708C33.2734 111.22 32.9552 113.925 34.4667 115.834C41.4673 124.664 52.1274 129.676 63.6625 129.676C73.9248 129.676 83.4711 125.698 90.3921 118.698C91.2937 119.652 92.4075 120.58 93.7333 121.482C94.4493 122.039 95.3244 122.278 96.1995 122.278C97.6314 122.278 98.9838 121.641 99.7793 120.368C101.211 118.379 100.654 115.675 98.6656 114.322Z" fill="#454C53"/>
<path d="M86.653 81.3078C86.653 81.2017 86.653 81.0956 86.653 80.9896C86.653 77.3302 83.7096 74.3867 80.0501 74.3867C76.3907 74.3867 73.4473 77.3302 73.4473 80.9896C73.4473 81.0956 73.4473 81.2017 73.4473 81.3078H86.653Z" fill="#454C53"/>
<path d="M45.6033 87.5925C49.2628 87.5925 52.2858 84.649 52.2858 80.9896C52.2858 77.3302 49.2628 74.3867 45.6033 74.3867C42.0235 74.3867 39.0005 77.3302 39.0005 80.9896C39.0005 84.649 42.0235 87.5925 45.6033 87.5925Z" fill="#454C53"/>
<path fill-rule="evenodd" clip-rule="evenodd" d="M132.077 87.0357C131.998 123.312 102.404 152.826 66.0487 152.826C29.6931 152.826 0.0996094 123.232 0.0996094 86.8766C0.0996094 50.5211 29.6931 20.9275 66.0487 20.9275C73.6857 20.9275 81.0841 22.2004 87.9256 24.5869C87.0505 19.2569 87.6074 12.9723 92.3805 8.19912C97.4719 3.10776 104.87 2.70998 110.757 7.16493C116.565 11.5403 118.474 18.9387 115.212 24.746C114.019 26.8144 111.394 27.6099 109.246 26.4166C107.177 25.2234 106.382 22.5981 107.575 20.4502C108.848 18.2227 107.416 15.5975 105.507 14.1656C104.632 13.5291 101.45 11.5403 98.5856 14.4042C94.6876 18.3023 96.6764 25.462 98.1879 29.2805C118.394 40.577 132.077 62.1357 132.077 86.8766C132.077 86.9296 132.077 86.9827 132.077 87.0357ZM97.3128 38.9859C98.1083 47.4185 102.086 67.2271 122.77 79.4782C120.622 62.5335 110.996 47.8958 97.3128 38.9859ZM14.4986 62.1358C28.8976 60.5447 69.7081 54.26 87.846 33.9741C81.1636 31.1898 73.7652 29.6783 66.0487 29.6783C43.3762 29.6783 23.7267 42.9636 14.4986 62.1358ZM123.247 89.6609C104.95 80.6715 96.5173 66.8293 92.5396 56.4875C90.9486 52.1917 89.9144 48.1345 89.3575 44.7933C79.2544 53.4645 64.5372 60.3856 45.4446 65.3179C29.2158 69.5341 15.135 70.9661 10.9983 71.2843C9.56636 76.2166 8.85039 81.467 8.85039 86.8766C8.85039 118.459 34.4663 144.075 66.0487 144.075C96.6764 144.075 121.815 119.891 123.247 89.6609Z" fill="#454C53"/>
<path d="M246.712 78.284C242.814 52.6681 221.892 32.5412 195.799 29.916C202.402 45.4288 230.006 66.8284 246.712 78.284Z" fill="white"/>
<path d="M184.502 29.916C158.409 32.5412 137.407 52.6681 133.588 78.284C150.294 66.8284 177.899 45.4288 184.502 29.916Z" fill="white"/>
<path fill-rule="evenodd" clip-rule="evenodd" d="M247.269 89.183C246.076 119.652 220.937 144.074 190.15 144.074C159.364 144.074 134.225 119.652 132.952 89.183C137.487 86.2396 148.544 78.7616 160.08 69.3744C174.797 57.5211 184.82 47.0202 190.15 37.9512C195.48 47.0202 205.504 57.5211 220.142 69.3744C231.756 78.7616 242.814 86.2396 247.269 89.183ZM200.731 80.9891C200.731 84.6485 203.674 87.592 207.334 87.592C210.993 87.592 213.937 84.6485 213.937 80.9891C213.937 77.3297 210.993 74.3862 207.334 74.3862C203.674 74.3862 200.731 77.3297 200.731 80.9891ZM166.285 80.9891C166.285 84.6485 169.308 87.592 172.888 87.592C176.547 87.592 179.57 84.6485 179.57 80.9891C179.57 77.3297 176.547 74.3862 172.888 74.3862C169.308 74.3862 166.285 77.3297 166.285 80.9891ZM218.63 109.708C216.801 108.196 214.016 108.514 212.505 110.344C207.175 117.106 198.981 120.924 190.15 120.924C181.32 120.924 173.126 117.106 167.796 110.344C166.285 108.514 163.5 108.196 161.591 109.708C159.682 111.219 159.443 113.924 160.955 115.833C167.955 124.663 178.615 129.675 190.15 129.675C201.686 129.675 212.346 124.663 219.346 115.833C220.858 113.924 220.539 111.219 218.63 109.708Z" fill="white"/>
<path fill-rule="evenodd" clip-rule="evenodd" d="M256.1 86.8766C256.1 123.232 226.506 152.826 190.151 152.826C153.716 152.826 124.122 123.232 124.122 86.8766C124.122 86.8236 124.122 86.7971 124.122 86.7971C124.122 86.7441 124.122 86.7175 124.122 86.7175C124.122 65.7952 133.987 47.1799 149.261 35.0879C146.397 31.7467 144.169 26.6554 143.612 18.7797C143.215 12.495 144.488 7.72187 147.431 4.61932C149.022 2.86916 152.045 0.800781 157.057 0.800781C163.501 0.800781 170.74 4.30109 175.593 7.16498C180.604 10.1084 185.616 13.927 190.151 17.9841C194.685 13.927 199.697 10.1084 204.709 7.16498C209.561 4.30109 216.801 0.800781 223.245 0.800781C228.256 0.800781 231.279 2.86916 232.87 4.61932C235.814 7.72187 237.087 12.495 236.689 18.7797C236.132 26.6554 233.905 31.8263 231.041 35.1675C246.235 47.1799 256.1 65.7952 256.1 86.7175C256.1 86.7175 256.1 86.7441 256.1 86.7971C256.1 86.7971 256.1 86.8236 256.1 86.8766ZM247.269 89.1837C242.814 86.2402 231.757 78.7623 220.142 69.3751C205.504 57.5217 195.481 47.0208 190.151 37.9518C184.821 47.0208 174.797 57.5217 160.08 69.3751C148.545 78.7623 137.487 86.2402 132.952 89.1837C134.225 119.652 159.364 144.075 190.151 144.075C220.938 144.075 246.076 119.652 247.269 89.1837ZM246.713 78.285C242.814 52.6691 221.892 32.5422 195.799 29.917C202.402 45.4298 230.006 66.8294 246.713 78.285ZM133.589 78.285C150.295 66.8294 177.9 45.4298 184.502 29.917C158.409 32.5422 137.407 52.6691 133.589 78.285ZM199.379 21.564C208.13 22.8368 216.403 25.7803 223.722 30.0761C227.381 26.7349 227.779 20.6889 227.938 18.1432C228.177 14.5634 227.699 11.8586 226.506 10.5858C226.268 10.3471 225.472 9.55156 223.245 9.55156C217.517 9.55156 208.13 14.4043 199.379 21.564ZM156.579 30.0761C163.898 25.7803 172.092 22.7573 180.923 21.564C172.172 14.4043 162.785 9.55156 157.057 9.55156C154.829 9.55156 154.034 10.3471 153.795 10.5858C152.602 11.8586 152.125 14.5634 152.363 18.1432C152.761 24.6666 154.511 28.1669 156.579 30.0761Z" fill="#454C53"/>
<path d="M207.334 87.5925C210.994 87.5925 213.937 84.649 213.937 80.9896C213.937 77.3302 210.994 74.3867 207.334 74.3867C203.675 74.3867 200.731 77.3302 200.731 80.9896C200.731 84.649 203.675 87.5925 207.334 87.5925Z" fill="#454C53"/>
<path d="M172.888 87.5925C176.547 87.5925 179.57 84.649 179.57 80.9896C179.57 77.3302 176.547 74.3867 172.888 74.3867C169.308 74.3867 166.285 77.3302 166.285 80.9896C166.285 84.649 169.308 87.5925 172.888 87.5925Z" fill="#454C53"/>
<path d="M218.63 109.708C216.801 108.197 214.016 108.515 212.505 110.345C207.175 117.107 198.981 120.925 190.151 120.925C181.32 120.925 173.126 117.107 167.796 110.345C166.285 108.515 163.5 108.197 161.591 109.708C159.682 111.22 159.443 113.925 160.955 115.834C167.955 124.664 178.615 129.676 190.151 129.676C201.686 129.676 212.346 124.664 219.346 115.834C220.858 113.925 220.54 111.22 218.63 109.708Z" fill="#454C53"/>
</svg>
