<svg width="257" height="200" viewBox="0 0 257 200" fill="none" xmlns="http://www.w3.org/2000/svg">
<path d="M153.954 33.6019C155.967 33.6019 157.663 31.9068 157.663 29.8938C157.663 27.8808 155.967 26.1856 153.954 26.1856H150.034C149.823 24.8437 149.469 23.537 148.975 22.2656L152.365 20.3056C154.113 19.2991 154.749 17.0213 153.743 15.2732C152.683 13.4721 150.458 12.8894 148.657 13.8959L145.32 15.8559C144.437 14.7964 143.466 13.8252 142.406 12.9424L144.366 9.60505C145.373 7.80396 144.79 5.57909 142.989 4.51962C141.241 3.51313 138.963 4.14881 137.957 5.89693L135.997 9.28721C134.725 8.79279 133.418 8.43964 132.077 8.22774V4.30773C132.077 2.29475 130.381 0.599609 128.368 0.599609C126.355 0.599609 124.66 2.29475 124.66 4.30773V8.22774C123.318 8.43964 122.012 8.79279 120.74 9.28721L118.78 5.89693C117.774 4.14881 115.496 3.51313 113.748 4.51962C111.947 5.57909 111.364 7.80396 112.37 9.60505L114.33 12.9424C113.271 13.8252 112.3 14.7964 111.417 15.8559L108.08 13.8959C106.279 12.8894 104.054 13.4721 102.994 15.2732C101.988 17.0213 102.623 19.2991 104.372 20.3056L107.762 22.2656C107.267 23.537 106.914 24.8437 106.702 26.1856H102.782C100.769 26.1856 99.0742 27.8808 99.0742 29.8938C99.0742 31.9068 100.769 33.6019 102.782 33.6019H106.702C106.914 34.9439 107.267 36.2506 107.762 37.5219L104.372 39.4819C102.623 40.4884 101.988 42.7663 102.994 44.5144C104.054 46.3155 106.279 46.8982 108.08 45.8917L111.417 43.9317C112.3 44.9911 113.271 45.9623 114.33 46.8452L112.37 50.1825C111.364 51.9836 111.947 54.2085 113.748 55.2679C115.496 56.2744 117.774 55.6387 118.78 53.8906L120.74 50.5003C122.012 50.9948 123.318 51.3479 124.66 51.5598V55.4798C124.66 57.4928 126.355 59.188 128.368 59.188C130.381 59.188 132.077 57.4928 132.077 55.4798V51.5598C133.418 51.3479 134.725 50.9948 135.997 50.5003L137.957 53.8906C138.963 55.6387 141.241 56.2744 142.989 55.2679C144.79 54.2085 145.373 51.9836 144.366 50.1825L142.406 46.8452C143.466 45.9623 144.437 44.9911 145.32 43.9317L148.657 45.8917C150.458 46.8982 152.683 46.3155 153.743 44.5144C154.749 42.7663 154.113 40.4884 152.365 39.4819L148.975 37.5219C149.469 36.2506 149.823 34.9439 150.034 33.6019H153.954Z" fill="url(#paint0_radial_11_3681)"/>
<path d="M253.703 124.557C228.117 129.484 191.83 124.928 200.2 116.558C205.232 111.526 214.185 101.779 221.654 93.4618C223.349 91.6078 221.071 88.9061 218.899 90.1775C169.528 119.684 144.578 81.7548 135.89 64.3266C134.884 62.3666 131.864 62.9493 131.758 65.1742C130.063 95.6337 140.87 126.623 164.125 149.878C182.613 168.366 205.974 178.961 230.077 181.715C232.513 181.98 233.52 178.643 231.295 177.53C207.033 165.823 172.654 141.985 202.001 144.104C224.302 145.64 244.114 135.734 255.345 128.53C257.411 127.206 256.086 124.133 253.703 124.557ZM184.732 86.8402C190.4 84.4034 198.611 80.1126 207.51 59.2941C207.987 58.2347 206.821 57.1752 205.815 57.8109C201.259 60.6185 192.466 64.0087 182.401 57.9168C174.931 53.2022 164.496 55.0033 159.304 63.426C156.179 68.5644 156.179 75.2391 159.304 80.3245C164.761 89.3299 175.991 90.6543 184.732 86.8402Z" fill="url(#paint1_linear_11_3681)"/>
<path d="M218.9 90.1771C215.456 92.5609 211.854 94.7857 207.987 96.5868C206.133 97.5933 204.12 98.335 202.16 99.1296C201.154 99.5004 200.094 99.8182 199.088 100.136C198.081 100.507 197.075 100.719 196.015 100.984C191.83 102.043 187.539 102.626 183.196 102.52C178.852 102.414 174.508 101.672 170.376 100.348C166.244 98.9177 162.324 96.9576 158.775 94.4679C155.226 91.9782 151.994 89.1176 149.187 85.8863C143.413 79.5295 139.069 72.1132 135.891 64.3262C140.234 71.5305 145.108 78.3641 150.988 84.1911C156.815 90.0182 163.649 94.7858 171.383 97.3285C179.064 99.9242 187.434 100.189 195.485 98.5998C199.511 97.8052 203.537 96.6928 207.404 95.1566C211.324 93.7793 215.086 91.9252 218.9 90.1771Z" fill="url(#paint2_linear_11_3681)"/>
<path d="M253.703 124.558C248.936 126.147 243.956 127.047 238.924 127.577C233.944 128.107 228.859 128.213 223.827 128.001C221.337 127.842 218.794 127.63 216.304 127.312C213.762 126.941 211.272 126.518 208.782 125.829C206.345 125.193 203.856 124.399 201.631 123.021C200.518 122.333 199.353 121.485 198.77 120.108C198.505 119.419 198.611 118.625 198.929 117.989C199.247 117.406 199.724 116.982 200.2 116.559C199.83 117.088 199.512 117.618 199.353 118.201C199.247 118.73 199.3 119.313 199.565 119.737C200.148 120.638 201.26 121.22 202.319 121.644C204.491 122.545 206.928 123.021 209.312 123.445C211.749 123.816 214.185 124.134 216.622 124.346C219.059 124.558 221.549 124.769 223.985 124.822C226.475 124.981 228.912 125.034 231.402 125.087C233.838 125.14 236.328 125.087 238.818 125.087C243.744 125.034 248.724 124.875 253.703 124.558Z" fill="url(#paint3_linear_11_3681)"/>
<path d="M205.815 57.8109C202.637 60.5126 198.505 62.2607 194.108 62.5256C191.936 62.6845 189.711 62.4196 187.592 61.8369C185.473 61.3072 183.46 60.3007 181.606 59.2412L183.937 58.1817L183.566 60.5126L181.553 59.2412C179.858 58.2347 178.004 57.4931 176.044 57.1223C174.031 56.6985 172.018 56.6985 170.005 57.0693C167.992 57.4401 166.032 58.1288 164.231 59.2412C162.43 60.3007 160.788 61.731 159.305 63.4261C160.152 61.3602 161.583 59.5061 163.278 57.9699C165.026 56.4336 167.145 55.2682 169.423 54.5796C171.7 53.8909 174.137 53.785 176.521 54.1028C178.905 54.4207 181.236 55.2682 183.249 56.5926L180.865 57.652L181.289 55.3742L183.249 56.5396C184.891 57.5461 186.639 58.3936 188.44 59.0293C190.294 59.665 192.148 59.9828 194.108 60.0888C196.068 60.1947 198.028 60.0358 199.988 59.612C201.948 59.2412 203.855 58.5526 205.815 57.8109Z" fill="url(#paint4_linear_11_3681)"/>
<path d="M231.296 177.53C227.217 176.311 223.297 174.669 219.483 172.762C217.576 171.861 215.722 170.802 213.868 169.795C212.066 168.736 210.265 167.624 208.464 166.511C204.915 164.18 201.472 161.638 198.293 158.777C196.704 157.347 195.168 155.811 193.844 154.115C193.155 153.268 192.519 152.42 191.99 151.467C191.46 150.513 190.983 149.507 190.824 148.447C191.301 149.401 191.99 150.195 192.678 150.937C193.42 151.679 194.162 152.42 194.956 153.056C196.492 154.38 198.187 155.652 199.83 156.87C203.22 159.254 206.716 161.532 210.159 163.809C213.656 166.14 217.205 168.365 220.701 170.643C224.25 172.868 227.799 175.146 231.296 177.53Z" fill="url(#paint5_linear_11_3681)"/>
<path d="M94.8892 83.6088C101.352 77.1461 101.352 66.6574 94.8892 60.1947C88.4265 53.732 77.9378 53.732 71.4221 60.1947C64.9594 66.6574 64.9594 77.1461 71.4221 83.6088C77.9378 90.1245 88.4265 90.1245 94.8892 83.6088ZM124.978 65.1742C124.872 62.9493 121.853 62.3666 120.846 64.3266C112.158 81.7548 87.2081 119.684 37.8371 90.1775C35.6652 88.9062 33.3874 91.6078 35.0825 93.4619C42.5517 101.779 51.5042 111.526 56.5366 116.558C64.9064 124.928 28.6198 129.484 3.03373 124.557C0.649936 124.133 -0.674397 127.206 1.39156 128.53C12.6219 135.734 32.4338 145.64 54.7356 144.104C84.0827 141.985 49.7031 165.823 25.4414 177.53C23.2165 178.643 24.223 181.98 26.6598 181.715C50.7626 178.961 74.1237 168.366 92.6114 149.878C115.867 126.623 126.673 95.6338 124.978 65.1742Z" fill="url(#paint6_linear_11_3681)"/>
<path d="M94.8897 60.1939C91.3405 57.5982 87.1556 56.3269 83.1826 56.5917C79.1566 56.8566 75.3426 58.4988 72.588 61.3063C69.7804 64.1139 68.0323 67.875 67.8204 71.901C67.6085 75.9269 68.8269 80.1118 71.4226 83.608C67.8734 81.0653 65.5425 76.5626 65.3306 71.901C65.0658 67.2393 66.9198 62.4188 70.3101 59.0815C72.0053 57.4393 74.0182 56.062 76.2431 55.2144C78.468 54.4198 80.7988 53.996 83.1826 54.102C87.8442 54.3139 92.294 56.6447 94.8897 60.1939Z" fill="url(#paint7_linear_11_3681)"/>
<path d="M120.846 64.3262C117.667 72.1132 113.271 79.5295 107.55 85.8863C104.742 89.1176 101.511 91.9782 97.9615 94.4679C94.4123 96.9576 90.4923 98.9177 86.3604 100.348C82.2284 101.672 77.8846 102.414 73.5408 102.52C69.197 102.626 64.9062 102.043 60.7213 100.984C59.6619 100.719 58.6554 100.507 57.6489 100.136C56.6424 99.8182 55.5829 99.5004 54.5764 99.1296C52.6164 98.335 50.6035 97.5933 48.7494 96.5868C44.8824 94.7857 41.2802 92.5609 37.8369 90.1771C41.651 91.9252 45.4121 93.7793 49.3321 95.1566C53.1991 96.6928 57.2251 97.8052 61.2511 98.5468C69.303 100.189 77.6727 99.9242 85.3538 97.3285C93.0879 94.8387 99.9744 90.0182 105.801 84.1911C111.629 78.3641 116.502 71.5305 120.846 64.3262Z" fill="url(#paint8_linear_11_3681)"/>
<path d="M56.5371 116.559C57.0139 116.982 57.4906 117.406 57.8084 117.989C58.1263 118.625 58.2322 119.419 57.9674 120.108C57.3847 121.485 56.2193 122.333 55.1068 123.021C52.829 124.346 50.3922 125.193 47.9554 125.829C42.976 127.153 37.9435 127.736 32.9111 128.001C30.3683 128.107 27.8786 128.16 25.3359 128.107C22.7932 128.001 20.3034 127.895 17.8137 127.577C12.7812 127.047 7.80177 126.147 3.03418 124.558C8.01366 124.822 12.9931 125.034 17.9196 125.087C20.4094 125.087 22.8991 125.14 25.3359 125.087C27.8256 125.034 30.2624 124.981 32.7521 124.822C35.1889 124.769 37.6786 124.558 40.1154 124.346C42.5522 124.134 44.9889 123.816 47.4257 123.445C49.8095 123.021 52.2463 122.545 54.4182 121.644C55.4776 121.22 56.5901 120.638 57.1728 119.737C57.4376 119.313 57.4906 118.73 57.3847 118.201C57.2257 117.618 56.9079 117.088 56.5371 116.559Z" fill="url(#paint9_linear_11_3681)"/>
<path d="M65.1713 150.037C64.4297 151.997 63.1053 153.639 61.781 155.228C61.0923 156.023 60.4037 156.765 59.6621 157.506C58.9204 158.195 58.1788 158.937 57.3842 159.625C54.3118 162.327 50.9745 164.711 47.5312 166.989C44.088 169.213 40.5388 171.173 36.8306 172.974C33.1755 174.776 29.4144 176.365 25.4414 177.53C28.8317 175.199 32.222 173.027 35.6122 170.803L45.8361 164.287C47.5312 163.227 49.2087 162.133 50.8685 161.003C52.5637 159.943 54.2058 158.778 55.848 157.665C59.1323 155.334 62.4167 153.11 65.1713 150.037Z" fill="url(#paint10_linear_11_3681)"/>
<path d="M143.572 199.619H113.165V155.069L127.309 117.299C127.68 116.346 129.057 116.346 129.428 117.299L143.572 155.069V199.619Z" fill="url(#paint11_linear_11_3681)"/>
<path d="M113.165 155.068H123.283V199.619H113.165V155.068Z" fill="url(#paint12_linear_11_3681)"/>
<path d="M123.283 155.068H133.454V199.619H123.283V155.068Z" fill="url(#paint13_linear_11_3681)"/>
<path d="M133.453 155.068H143.571V199.619H133.453V155.068Z" fill="url(#paint14_linear_11_3681)"/>
<path d="M129.428 117.299L132.765 126.146H123.972L127.309 117.299C127.68 116.346 129.057 116.346 129.428 117.299Z" fill="url(#paint15_linear_11_3681)"/>
<defs>
<radialGradient id="paint0_radial_11_3681" cx="0" cy="0" r="1" gradientUnits="userSpaceOnUse" gradientTransform="translate(119.106 22.6719) rotate(27.4512) scale(33.1012 33.1012)">
<stop stop-color="#EEBD2F"/>
<stop offset="1" stop-color="#DA5618"/>
</radialGradient>
<linearGradient id="paint1_linear_11_3681" x1="257.945" y1="3.75334" x2="257.945" y2="219.879" gradientUnits="userSpaceOnUse">
<stop stop-color="#DA006A"/>
<stop offset="1" stop-color="#733BE4"/>
</linearGradient>
<linearGradient id="paint2_linear_11_3681" x1="134.456" y1="64.3283" x2="219.738" y2="64.3283" gradientUnits="userSpaceOnUse">
<stop stop-color="#DA006A"/>
<stop offset="1" stop-color="#733BE4"/>
</linearGradient>
<linearGradient id="paint3_linear_11_3681" x1="197.38" y1="116.573" x2="254.026" y2="116.573" gradientUnits="userSpaceOnUse">
<stop stop-color="#DA006A"/>
<stop offset="1" stop-color="#733BE4"/>
</linearGradient>
<linearGradient id="paint4_linear_11_3681" x1="157.972" y1="53.936" x2="206.639" y2="53.936" gradientUnits="userSpaceOnUse">
<stop stop-color="#DA006A"/>
<stop offset="1" stop-color="#733BE4"/>
</linearGradient>
<linearGradient id="paint5_linear_11_3681" x1="189.32" y1="148.443" x2="231.967" y2="148.443" gradientUnits="userSpaceOnUse">
<stop stop-color="#DA006A"/>
<stop offset="1" stop-color="#733BE4"/>
</linearGradient>
<linearGradient id="paint6_linear_11_3681" x1="126.743" y1="47.3053" x2="126.743" y2="186.738" gradientUnits="userSpaceOnUse">
<stop stop-color="#5899FF"/>
<stop offset="1" stop-color="#4F39EE"/>
</linearGradient>
<linearGradient id="paint7_linear_11_3681" x1="65.0011" y1="54.0877" x2="95.9957" y2="54.0877" gradientUnits="userSpaceOnUse">
<stop stop-color="#5899FF"/>
<stop offset="1" stop-color="#4F39EE"/>
</linearGradient>
<linearGradient id="paint8_linear_11_3681" x1="36.9978" y1="64.3283" x2="122.28" y2="64.3283" gradientUnits="userSpaceOnUse">
<stop stop-color="#5899FF"/>
<stop offset="1" stop-color="#4F39EE"/>
</linearGradient>
<linearGradient id="paint9_linear_11_3681" x1="2.7121" y1="116.573" x2="59.3579" y2="116.573" gradientUnits="userSpaceOnUse">
<stop stop-color="#5899FF"/>
<stop offset="1" stop-color="#4F39EE"/>
</linearGradient>
<linearGradient id="paint10_linear_11_3681" x1="24.7697" y1="150.052" x2="66.5428" y2="150.052" gradientUnits="userSpaceOnUse">
<stop stop-color="#5899FF"/>
<stop offset="1" stop-color="#4F39EE"/>
</linearGradient>
<linearGradient id="paint11_linear_11_3681" x1="117.323" y1="104.431" x2="139.392" y2="106.585" gradientUnits="userSpaceOnUse">
<stop stop-color="#F0CB5D"/>
<stop offset="0.305" stop-color="#F3ECAD"/>
<stop offset="1" stop-color="#EEBD2F"/>
</linearGradient>
<linearGradient id="paint12_linear_11_3681" x1="144.026" y1="109.486" x2="162.533" y2="121.179" gradientUnits="userSpaceOnUse">
<stop stop-color="#EEBD2F"/>
<stop offset="1" stop-color="#DA5618"/>
</linearGradient>
<linearGradient id="paint13_linear_11_3681" x1="163.359" y1="108.88" x2="186.902" y2="126.155" gradientUnits="userSpaceOnUse">
<stop stop-color="#EEBD2F"/>
<stop offset="1" stop-color="#DA5618"/>
</linearGradient>
<linearGradient id="paint14_linear_11_3681" x1="177.074" y1="93.1719" x2="203.216" y2="120.431" gradientUnits="userSpaceOnUse">
<stop stop-color="#EEBD2F"/>
<stop offset="1" stop-color="#DA5618"/>
</linearGradient>
<linearGradient id="paint15_linear_11_3681" x1="124.96" y1="116.572" x2="131.085" y2="116.572" gradientUnits="userSpaceOnUse">
<stop stop-color="#5281CC"/>
<stop offset="1" stop-color="#4E2EB3"/>
</linearGradient>
</defs>
</svg>
