<svg width="257" height="226" viewBox="0 0 257 226" fill="none" xmlns="http://www.w3.org/2000/svg">
<path d="M98.9905 196.533C98.9905 196.533 102.101 202.132 96.813 205.865C96.813 205.865 87.8277 213.485 94.0481 221.883C94.0481 221.883 106.788 208.662 106.144 200.577L106.174 194.668L98.9905 196.533Z" fill="#BE1E2D"/>
<path d="M209.563 129.818L208.554 121.624C206.22 121.42 201.788 120.02 197.277 116.832C197.277 116.832 197.278 123.325 209.563 129.818Z" fill="#BE1E2D"/>
<path d="M203.444 150.19C204.633 154.233 198.833 159.521 198.833 159.521C196.656 163.254 203.654 168.23 203.654 168.23L210.652 154.545V140.004L203.421 145.836L203.444 150.19Z" fill="#BE1E2D"/>
<path d="M244.399 66.0547C244.399 66.0547 241.442 75.1508 230.092 78.0298C230.092 78.0298 234.135 79.8962 240.2 79.8962C240.2 79.8962 244.666 72.5267 244.399 66.0547Z" fill="#BE1E2D"/>
<path d="M224.649 77.1774C210.03 60.0704 195.449 65.6919 182.348 64.1138C168.265 62.4177 164.787 66.2884 159.086 73.1731C147.303 36.9775 141.437 18.7239 85.3864 15.9387C5.18293 11.9538 0.594727 0.265625 0.594727 0.265625C3.40067 22.3368 34.2133 32.5281 62.5068 32.6244C106.455 32.7744 107.411 37.1657 107.411 37.1657C94.3427 33.2141 75.8742 37.903 47.5686 37.7511C20.6054 37.6064 9.75951 29.6317 9.75951 29.6317C14.2485 36.9267 20.9509 60.5692 62.2882 54.0221C103.625 47.4756 128.16 55.8179 128.16 55.8179C128.16 55.8179 107.105 53.0313 77.4703 57.5015C47.5686 62.0118 38.8049 59.9896 38.8049 59.9896C48.7181 69.9028 58.9844 73.8534 88.1038 70.507C136.314 64.9663 143.123 71.3425 143.123 71.3425C135.828 68.7238 115.814 71.1553 100.477 73.9612C85.1387 76.7667 75.3513 76.3192 75.3513 76.3192C84.9878 91.0847 132.37 76.3376 146.527 87.8927C140.661 95.328 134.07 104.517 129.638 110.823C126.064 115.909 121.672 120.25 116.561 123.788C99.8384 135.364 98.688 136.051 89.037 150.734C80.5355 163.668 57.5413 169.931 52.957 150.734C48.9866 134.109 60.2098 125.318 64.3738 122.693C64.3738 122.693 65.7835 121.78 66.962 122.101C72.0959 122.752 87.6147 107.637 89.3481 102.187C82.8165 108.823 72.7597 111.725 61.666 121.834C54.2027 128.635 48.7065 135.26 48.6024 147.598C48.5608 152.538 49.9396 158.457 54.6967 163.219C66.7462 175.28 89.7627 161.077 94.4138 154.83C93.7331 158.108 93.5831 160.698 93.5831 163.106L95.8796 176.576L83.9568 187.382C83.9568 187.382 80.1064 189.307 79.5563 194.533C79.0063 199.758 80.6927 207.222 77.1176 210.247L71.6097 212.36C68.9416 213.384 67.8894 216.187 66.4874 220.808L64.9325 225.305C64.9325 225.305 77.9071 222.86 80.3821 217.635C82.8572 212.409 87.9504 198.371 91.5261 196.171C95.1012 193.971 116.818 191.205 122.318 186.529C127.352 182.251 127.604 173.603 131.559 167.602C131.913 167.116 132.314 166.574 132.753 165.996C133.78 164.81 134.652 163.706 135.415 162.663C136.306 161.514 137.093 159.336 139.004 158.507C147.239 154.933 143.96 153.22 143.96 153.22C143.339 150.113 156.122 141.169 162.781 136.675C161.019 132.073 157.494 118.502 169.078 102.89C169.078 102.89 158.71 117.301 168.663 132.853C178.306 140.006 190.747 136.274 190.747 136.274L193.857 141.873C193.857 141.873 187.947 148.093 184.526 145.605C181.105 143.117 178.617 148.405 178.617 148.405C169.285 143.739 168.267 155.065 168.267 155.065L167.854 160.706C175.117 154.804 190.747 155.247 190.747 155.247C196.035 144.983 212.209 135.963 212.209 135.963L198.834 125.912C185.459 113.373 203.811 101.749 203.811 101.749C199.456 110.147 205.055 113.748 212.52 115.302C219.984 116.858 221.229 125.699 221.229 125.699C221.229 125.699 235.494 128.271 233.359 121.967C231.481 116.42 230.66 105.204 231.012 98.5055L230.716 89.4863C231.393 91.1418 232.615 92.7567 233.697 93.9874C251.363 89.793 256.595 70.9574 256.595 70.9574C244.462 90.8636 224.649 77.1774 224.649 77.1774ZM221.538 105.793V99.5722L225.893 107.037L221.538 105.793Z" fill="#BE1E2D"/>
<path d="M159.513 55.0873C159.513 13.0094 136.232 4.0913 90.4629 10.0143C137.348 13.2943 149.882 29.1425 159.513 55.0873Z" fill="#BE1E2D"/>
</svg>
