<svg width="256" height="257" viewBox="0 0 256 257" fill="none" xmlns="http://www.w3.org/2000/svg">
<path d="M249.037 80.7031C226.597 117.588 174.728 97.2915 116.989 147.622C74.2634 184.866 87.3399 232.723 87.3399 232.723C87.3399 232.723 159.79 223.939 198.247 161.348C161.684 259.652 29.7121 247.051 29.1426 246.999C29.1426 246.999 56.8988 261.156 91.3199 253.002C129.54 262.408 184.269 251.496 216.844 217.142C278.26 152.37 249.037 80.7031 249.037 80.7031Z" fill="url(#paint0_linear_10_3601)"/>
<path d="M203.802 34.4562C196.774 27.3725 188.713 21.2704 180.033 16.1753C178.966 15.5017 177.84 14.9402 176.734 14.3373C175.62 13.7478 174.52 13.1289 173.388 12.5754C171.094 11.5364 168.85 10.3586 166.492 9.45432L162.983 8.01782L159.41 6.74672C157.041 5.84507 154.585 5.22086 152.16 4.48194C142.381 1.8277 132.242 0.37387 122.059 0.235155C111.883 0.149793 101.647 1.22749 91.7304 3.71902C71.8649 8.56735 53.2425 18.6868 38.3081 32.717C37.4998 33.4826 36.7048 34.2615 35.9152 35.0458C35.8085 35.1471 35.7005 35.2472 35.5965 35.3499C35.5925 35.3525 35.5885 35.3565 35.5845 35.3605C35.5818 35.3632 35.5791 35.3659 35.5765 35.3685C35.2404 35.698 34.9149 36.0394 34.5948 36.3849C28.6461 42.4576 23.2496 49.0892 18.724 56.2984C13.3008 64.9854 8.79662 74.2792 5.75824 84.0492C2.67585 93.7952 0.735197 103.901 0.255032 114.082C-0.0690791 119.165 0.0549629 124.263 0.36707 129.331C0.628493 131.86 0.781882 134.396 1.19536 136.902L1.74755 140.666L2.46646 144.401C2.68654 145.648 2.9613 146.884 3.27741 148.111L4.18704 151.796C4.93263 154.216 5.56886 156.665 6.43582 159.04L7.70157 162.61C8.13106 163.795 8.64458 164.952 9.11274 166.121C10.0171 168.477 11.1534 170.732 12.2258 173.008C16.6513 182.056 22.3426 190.422 28.8622 197.966C42.004 212.959 58.8738 224.505 77.3681 230.63C74.8313 229.332 72.3517 227.945 69.9189 226.49C69.4507 223.997 68.8199 221.587 68.5144 219.11L67.9982 215.023L67.7475 212.996L67.6728 210.943L67.5034 206.871C67.3794 205.528 67.5488 204.157 67.5608 202.809L67.6781 198.77C67.7768 197.427 67.9582 196.084 68.0916 194.749C68.1476 194.211 68.2263 193.677 68.2904 193.143C71.2287 195.317 74.239 197.381 77.3348 199.294C74.3324 196.556 71.3794 193.794 68.5824 190.887C68.5784 190.883 68.5758 190.879 68.5718 190.877C69.8896 181.547 72.3811 172.456 75.7822 163.753C78.9833 155.551 82.9727 147.707 87.593 140.252C91.7704 143.939 96.0585 147.495 100.463 150.893C96.7948 146.313 93.1642 141.721 89.5963 137.106C95.7251 127.73 102.858 119.003 110.733 111.03C118.416 103.428 126.804 96.5135 135.803 90.5301C143.918 97.0164 151.922 103.728 159.887 110.574C154.042 102.45 147.688 94.6889 140.922 87.2757C148.086 82.9088 155.604 79.1249 163.45 76.0625C171.608 72.8721 180.114 70.4979 188.833 69.1268C196.89 77.1469 204.161 86.0566 210.588 95.6812C206.416 86.0032 200.925 76.8601 194.48 68.3692C195.807 68.2358 197.14 68.0584 198.474 67.961L202.512 67.8437C205.229 67.6449 207.914 67.8757 210.647 67.9584L212.7 68.0344L214.727 68.2865L218.814 68.804C221.073 69.0854 223.277 69.6363 225.538 70.0884C228.379 74.8741 230.927 79.8651 233.144 85.0309C228.267 66.1778 217.904 48.5464 203.802 34.4562ZM16.5793 129.289C15.1361 137.614 14.6293 146.156 15.2615 154.589C14.2131 150.624 13.3689 146.612 12.79 142.56C11.4162 133.397 11.1174 124.098 11.9831 114.922C12.3325 110.565 13.0754 106.257 13.9104 101.979C14.588 108.903 16.0004 115.701 17.9211 122.3C17.9424 122.374 17.9678 122.448 17.9891 122.522C17.4609 124.766 16.9741 127.017 16.5793 129.289ZM122.11 11.9578C126.714 11.8978 131.337 11.9978 135.932 12.4887C140.54 12.8688 145.103 13.6784 149.638 14.6228C150.789 14.8842 151.936 15.1616 153.081 15.455C145.039 14.9562 136.915 15.4844 128.986 16.8609C127.077 17.1916 125.181 17.5811 123.292 18.0066C121.971 17.6131 120.646 17.2343 119.311 16.8862C114.091 15.5324 108.752 14.5574 103.346 13.9732C109.523 12.8075 115.811 12.1779 122.11 11.9578ZM93.8965 25.9733C95.7011 25.956 97.5097 25.9947 99.3196 26.0787C95.9638 27.5872 92.6654 29.2211 89.4416 30.983C85.627 33.0704 81.9417 35.3779 78.3471 37.8174C74.0803 35.718 69.6295 33.86 64.9012 32.3488C64.5704 32.2461 64.2316 32.1528 63.8968 32.0541C73.176 28.0353 83.5089 26.1094 93.8965 25.9733ZM42.883 50.3323C42.9924 48.2343 43.5059 46.587 44.1861 45.6107C44.4648 45.3293 44.7383 45.0425 45.0197 44.7638C45.6306 44.2756 46.4015 43.9021 47.5152 43.6087C49.1678 43.1712 51.4046 43.1192 53.7507 43.3846C56.1048 43.6167 58.6084 44.2289 61.1159 44.9438C62.9018 45.4507 64.6891 46.0709 66.4764 46.7351C62.8378 49.7628 59.3219 52.9346 55.9555 56.257C52.581 59.6875 49.3519 63.2621 46.2788 66.9674C46.024 66.2658 45.7573 65.5656 45.5212 64.8627C44.6583 62.3178 43.966 59.7902 43.4645 57.3147C42.943 54.8365 42.7589 52.429 42.883 50.3323ZM28.0126 74.4859C28.9689 70.7847 30.2453 67.1994 31.8005 63.7596C32.3314 65.6016 32.9236 67.4009 33.6131 69.1321C34.8415 72.3279 36.2207 75.4009 37.7052 78.3886C35.1977 82.0659 32.8275 85.8379 30.6948 89.7512C28.7795 93.2524 27.0255 96.847 25.413 100.504C24.9968 91.6478 25.7598 82.8488 28.0126 74.4859ZM68.257 223.504C68.6918 224.445 69.1426 225.37 69.5935 226.294C55.5633 217.846 43.3498 206.842 33.9666 193.867C32.15 191.361 30.4347 188.788 28.8115 186.166C26.7481 180.828 25.2876 175.315 24.4593 169.724C23.0402 160.027 23.3243 150.204 24.9022 140.606C29.2823 149.861 34.7295 158.545 40.9636 166.508C46.1187 172.985 51.7113 179.07 57.8148 184.554C59.0178 185.653 60.2543 186.711 61.496 187.762C61.436 190.035 61.4333 192.308 61.5374 194.578C61.6187 196.013 61.6574 197.443 61.7774 198.869L62.3456 203.134C62.6511 205.972 63.3353 208.764 64.0182 211.524L64.5197 213.59L65.1946 215.616L66.5618 219.63C66.9766 220.971 67.6955 222.221 68.257 223.504ZM65.8402 160.407C63.6741 167.906 62.251 175.633 61.7054 183.399C61.2973 182.922 60.8651 182.463 60.465 181.977C55.2859 175.863 50.4856 169.481 46.3161 162.735C38.6482 150.515 32.6475 137.338 29.0702 123.653C32.194 114.009 36.4688 104.739 41.6519 96.016C42.6776 94.3021 43.7486 92.6162 44.8396 90.9436C46.9244 94.2447 49.1064 97.4658 51.3725 100.61C59.5033 111.733 68.5304 122.054 78.2751 131.574C73.0146 140.654 68.7772 150.316 65.8402 160.407ZM101.303 101.602C93.8591 109.104 87.1648 117.413 81.4602 126.342C73.8496 116.067 66.6311 105.618 60.1222 94.8263C57.3519 90.146 54.6697 85.3977 52.2422 80.596C52.3609 80.4453 52.4729 80.2893 52.5916 80.1386C56.5583 75.0742 60.8238 70.2365 65.384 65.6843C69.9429 61.132 74.7699 56.8546 79.8437 52.8999C79.893 52.8612 79.9437 52.8239 79.993 52.7852C88.664 57.236 97.1216 62.4525 105.378 68.0064C112.123 72.5439 118.726 77.3282 125.239 82.2833C116.616 87.8719 108.584 94.3874 101.303 101.602ZM160.114 66.1564C150.344 69.0001 140.971 73.0535 132.142 78.0805C125.627 71.5956 118.773 65.4188 111.588 59.5968C106.988 55.8862 102.241 52.3237 97.303 48.9892C95.2449 47.5794 93.1429 46.2256 91.0128 44.9038C92.5667 43.8968 94.1339 42.9111 95.7237 41.9628C104.149 36.9504 113.087 32.7903 122.38 29.6959C127.917 31.1751 133.383 33.0277 138.725 35.2418C153.13 41.1665 166.604 49.6321 178.718 59.8689C179.605 60.6079 180.465 61.3801 181.336 62.139C174.165 62.7713 167.043 64.1557 160.114 66.1564ZM223.203 68.5586C221.92 67.9984 220.671 67.2808 219.327 66.8673L215.313 65.5029L213.287 64.8293L211.221 64.3291C208.461 63.6489 205.671 62.962 202.832 62.6606L198.567 62.0937C197.141 61.9737 195.711 61.9363 194.276 61.8549C192.569 61.7763 190.86 61.7616 189.15 61.7762C187.216 59.5088 185.238 57.2774 183.175 55.122C171.718 43.2019 158.149 33.0904 143.028 25.7199C142.546 25.4851 142.06 25.2624 141.574 25.033C150.767 23.6338 160.149 23.4204 169.418 24.7756C174.561 25.5358 179.637 26.8403 184.573 28.6476C189.763 31.778 194.739 35.2992 199.393 39.2512C209.576 47.6901 218.264 57.9803 225.193 69.5109C224.532 69.1935 223.874 68.8694 223.203 68.5586Z" fill="url(#paint1_linear_10_3601)"/>
<defs>
<linearGradient id="paint0_linear_10_3601" x1="209.53" y1="92.5731" x2="81.4284" y2="304.243" gradientUnits="userSpaceOnUse">
<stop stop-color="#C9DF46"/>
<stop offset="1" stop-color="#27A8C5"/>
</linearGradient>
<linearGradient id="paint1_linear_10_3601" x1="116.602" y1="0.227819" x2="116.602" y2="230.629" gradientUnits="userSpaceOnUse">
<stop stop-color="#C9DF46"/>
<stop offset="1" stop-color="#27A8C5"/>
</linearGradient>
</defs>
</svg>
