<svg width="132" height="257" viewBox="0 0 132 257" fill="none" xmlns="http://www.w3.org/2000/svg">
<path d="M34.085 55.2188L63.6083 93.1623L63.0477 166.449H59.424C59.3469 165.122 59.1943 163.872 58.9646 162.647C56.923 151.777 49.2675 144.478 49.2675 144.478C34.4416 129.141 29.9761 113.295 28.6493 105.18C28.6493 105.129 28.6237 105.078 28.6237 105.054C28.1386 102.042 28.0872 100.103 28.0615 99.695C28.0615 99.6179 28.0615 99.5922 28.0615 99.5922L53.6045 114.111L33.8704 94.8261C29.816 90.8638 27.8983 85.2318 28.5798 79.6042C29.6089 71.0964 31.5916 62.903 34.085 55.2188Z" fill="#FFD550"/>
<path d="M102.105 71.1184L68.4983 97.1722L67.7578 0.283203C67.7578 0.283203 75.72 9.59189 84.1976 24.519C86.6789 28.8878 86.9691 34.1708 84.9275 38.7602L78.7545 52.6446L89.9309 35.4719C91.4617 38.6362 92.9669 41.9532 94.3707 45.3986L78.4477 71.12L97.866 55.0186C99.5781 60.1717 101.032 65.5559 102.105 71.1184Z" fill="#00C3AD"/>
<path d="M64.2897 0.271484L63.6444 87.2579L35.4297 50.8165C37.2642 45.6831 40.5797 38.6321 42.1075 35.4707L53.296 52.6404L47.126 38.7756C45.0829 34.1848 45.3731 28.8987 47.8544 24.5285C56.341 9.58319 64.2897 0.271484 64.2897 0.271484Z" fill="#FF7859"/>
<path d="M78.4494 114.115L103.992 99.6212C103.992 99.6212 103.992 99.6212 103.992 99.6983C103.967 100.132 103.915 102.045 103.43 105.057C103.43 105.108 103.405 105.108 103.379 105.184C103.048 107.2 102.512 109.726 101.694 112.584C99.193 121.208 93.9115 132.972 82.7864 144.481C82.7864 144.481 75.131 151.779 73.0894 162.624V162.65C72.8597 163.9 72.6814 165.151 72.63 166.426H69.0062L68.5469 101.97L102.868 75.3809C102.894 75.5592 102.92 75.7632 102.945 75.9672C103.098 76.8089 103.201 77.6506 103.302 78.4938C103.429 79.3099 103.532 80.1274 103.609 80.9434C103.737 82.1176 103.864 83.3159 103.94 84.4901C103.941 84.5052 103.943 84.5203 103.944 84.5339C104.18 87.3008 103.105 90.0209 101.12 91.9612L78.4494 114.115Z" fill="#FF4653"/>
<path d="M95.3549 213.839L81.5822 191.882V181.978H84.7179C86.3031 181.978 87.5875 180.694 87.5875 179.108V169.294C87.5875 167.708 86.3031 166.424 84.7179 166.424H47.3365C45.7513 166.424 44.4668 167.708 44.4668 169.294V179.108C44.4668 180.694 45.7513 181.978 47.3365 181.978H50.4721V191.882L36.698 213.839C35.6205 215.557 35.684 217.756 36.8582 219.409L61.9372 254.69C62.4359 255.393 63.0721 255.919 63.7748 256.271V217.422C62.4133 216.639 61.4854 215.186 61.4854 213.502C61.4854 210.995 63.5179 208.964 66.0234 208.964C68.5304 208.964 70.5614 210.997 70.5614 213.502C70.5614 215.186 69.6335 216.638 68.272 217.422V256.271C68.9747 255.919 69.6094 255.393 70.1096 254.69L95.1901 219.409C96.3704 217.756 96.4338 215.557 95.3549 213.839Z" fill="#30325E"/>
<path d="M21.0451 128.023C19.7394 127.964 18.4912 127.838 17.3004 127.66C9.16138 126.442 2.87347 119.926 1.55272 111.802C0.996614 108.387 0.795621 104.896 0.961848 101.395C0.996605 100.66 1.08125 99.9697 1.14018 99.258C6.74807 106.341 13.1478 109.54 13.1478 109.54C10.9068 107.714 9.05559 105.658 7.52329 103.518C3.01552 97.2194 2.37025 88.964 5.39558 81.8344C10.059 70.8423 19.274 65.2812 19.274 65.2812C6.86745 122.321 50.2768 153.922 50.2768 153.922C35.2726 145.593 21.2627 144.694 13.7946 136.836C11.3994 134.317 9.33817 131.548 7.59733 128.605C15.1758 130.175 21.0451 128.023 21.0451 128.023Z" fill="#30325E"/>
<path d="M111.01 128.023C112.316 127.964 113.564 127.838 114.755 127.66C122.894 126.442 129.182 119.926 130.504 111.802C131.06 108.387 131.26 104.896 131.095 101.395C131.06 100.66 130.976 99.9697 130.917 99.258C125.309 106.341 118.909 109.54 118.909 109.54C121.15 107.714 123.001 105.658 124.534 103.518C129.042 97.2194 129.687 88.964 126.661 81.8344C121.998 70.8423 112.783 65.2812 112.783 65.2812C125.19 122.321 81.7803 153.922 81.7803 153.922C96.7845 145.593 110.794 144.694 118.263 136.836C120.658 134.317 122.719 131.548 124.46 128.605C116.88 130.175 111.01 128.023 111.01 128.023Z" fill="#30325E"/>
</svg>
