<svg width="257" height="240" viewBox="0 0 257 240" fill="none" xmlns="http://www.w3.org/2000/svg">
<path d="M8.1361 70.4886C0.868288 75.3212 -3.39145 85.5555 4.63831 97.792C12.6681 110.029 127.386 192.625 131.592 194.919C135.799 197.212 140.008 197.594 150.709 189.566C161.418 181.534 250.882 118.8 253.19 116.913C256.864 113.912 257.781 106.588 253.19 103.146C253.19 103.146 144.808 178.859 141.26 181.918C137.711 184.977 132.19 180.007 133.228 173.507C134.27 167.006 135.034 166.241 148.8 156.298C162.566 146.354 240.617 91.1368 244.158 88.6959C248.169 85.9317 248.265 81.0462 241.695 76.7241C232.563 70.7174 133.878 5.20121 130.575 2.9078C127.265 0.614392 122.685 -1.47293 115.803 3.11578C108.921 7.70637 21.4881 61.608 8.1361 70.4886Z" fill="#7B46A5"/>
<path d="M131.593 202.978C128.833 201.471 78.4987 165.397 41.9385 137.309V195.873C41.9082 238.623 170.938 261.465 213.687 208.911V152.937C187.427 171.458 156.711 193.126 150.71 197.623C140.009 205.653 135.8 205.271 131.593 202.978Z" fill="#7B46A5"/>
<path d="M186.194 138.764C186.194 138.764 205.379 147.767 206.744 183.998L197.449 181.607L190.011 196.35C186.865 156.676 169.733 150.925 169.733 150.925L186.194 138.764Z" fill="#D6BBEA"/>
</svg>
