<svg width="257" height="140" viewBox="0 0 257 140" fill="none" xmlns="http://www.w3.org/2000/svg">
<path d="M124.255 26.8887C93.2152 26.8887 68.0566 52.054 68.0566 83.0902C68.0566 114.126 93.2169 139.285 124.256 139.285C155.293 139.285 180.451 114.125 180.453 83.0902C180.453 52.0506 155.291 26.8887 124.255 26.8887ZM99.402 125.735C92.4978 121.706 86.6622 116.047 82.4179 109.284L99.1583 98.8023C101.706 102.862 105.201 106.254 109.346 108.676L99.402 125.735ZM124.256 105.846C111.688 105.846 101.494 95.6568 101.494 83.0851C101.497 70.5184 111.686 60.3293 124.256 60.3293C136.821 60.3293 147.012 70.5184 147.012 83.0885C147.012 95.6568 136.821 105.846 124.256 105.846ZM149.692 67.9342C147.121 63.6327 143.504 60.0453 139.177 57.5098L149.129 40.4535C156.339 44.6709 162.387 50.656 166.665 57.824L149.692 67.9342Z" fill="url(#paint0_linear_10_3439)"/>
<path d="M124.254 75.0098C119.79 75.0098 116.176 78.624 116.176 83.0885C116.176 87.5445 119.792 91.1638 124.253 91.1638C128.714 91.1638 132.33 87.5496 132.33 83.0851C132.328 78.6257 128.712 75.0098 124.254 75.0098Z" fill="url(#paint1_linear_10_3439)"/>
<path d="M253.974 91.6938H239.406C238.44 91.6938 237.589 92.3273 237.312 93.2514L235.277 100.033L229.875 77.3478C229.64 76.3631 228.761 75.6692 227.748 75.6692C227.74 75.6692 227.731 75.6692 227.724 75.6692C226.705 75.6809 225.824 76.4001 225.612 77.3948L221.612 96.0642H214.716C214.255 81.9987 211.979 67.7047 211.979 67.7047L202.457 64.7777C194.761 29.0922 161.216 0.109375 124.094 0.109375C86.9318 0.109375 53.3618 29.1477 45.7082 64.8785L36.5222 67.7047C36.5222 67.7047 33.8691 84.3813 33.7128 99.4331H28.7359L22.8617 79.4514C22.5979 78.5559 21.793 77.9274 20.8638 77.8838C19.8624 77.83 19.0743 78.3996 18.7316 79.2666L12.5062 95.0628H2.34059C1.13416 95.0628 0.15625 96.0407 0.15625 97.2471C0.15625 98.4552 1.13416 99.4331 2.34059 99.4331H13.9949C14.8922 99.4331 15.7004 98.8837 16.0263 98.0486L20.4656 86.7908L25.009 102.234C25.2829 103.165 26.1365 103.804 27.106 103.804H33.7464C33.9195 110.304 34.6924 116.125 36.5239 119.628C36.5239 119.628 59.1722 125.279 69.4823 124.183C69.4823 124.183 46.9835 102.387 56.3678 61.7784C64.4381 31.9319 91.6953 9.9658 124.096 9.9658C162.846 9.9658 194.262 41.38 194.262 80.1336H194.412C194.764 108.912 179.024 124.183 179.024 124.183C189.334 125.279 211.98 119.628 211.98 119.628C214.128 115.53 214.818 108.258 214.798 100.435H223.378C224.408 100.435 225.298 99.7137 225.517 98.7073L227.862 87.7587L232.906 108.954C233.137 109.913 233.982 110.602 234.971 110.63C234.993 110.632 235.012 110.632 235.034 110.632C235.996 110.632 236.848 110 237.126 109.073L241.029 96.0642H253.972C255.177 96.0642 256.156 95.0846 256.156 93.8782C256.158 92.6718 255.178 91.6938 253.974 91.6938Z" fill="url(#paint2_linear_10_3439)"/>
<defs>
<linearGradient id="paint0_linear_10_3439" x1="8.76987" y1="83.0876" x2="252.361" y2="83.0876" gradientUnits="userSpaceOnUse">
<stop stop-color="#F23514"/>
<stop offset="0.4923" stop-color="#F87458"/>
<stop offset="1" stop-color="#F6E813"/>
</linearGradient>
<linearGradient id="paint1_linear_10_3439" x1="8.76762" y1="83.0855" x2="252.359" y2="83.0855" gradientUnits="userSpaceOnUse">
<stop stop-color="#F23514"/>
<stop offset="0.4923" stop-color="#F87458"/>
<stop offset="1" stop-color="#F6E813"/>
</linearGradient>
<linearGradient id="paint2_linear_10_3439" x1="8.7708" y1="62.2176" x2="252.36" y2="62.2176" gradientUnits="userSpaceOnUse">
<stop stop-color="#F23514"/>
<stop offset="0.4923" stop-color="#F87458"/>
<stop offset="1" stop-color="#F6E813"/>
</linearGradient>
</defs>
</svg>
