<svg width="257" height="184" viewBox="0 0 257 184" fill="none" xmlns="http://www.w3.org/2000/svg">
<path d="M171.076 42.9203V59.3127C161.24 62.7638 152.152 68.6881 144.733 77.0281C139.786 82.5498 135.99 88.7617 133.344 95.2612L128.455 90.8898V0.299805C151.98 0.299805 171.076 19.3381 171.076 42.9203Z" fill="url(#paint0_linear_1_950)"/>
<path d="M43.1567 42.9203V59.1977C33.2637 62.6488 24.0609 68.6306 16.5837 77.0281C6.63314 88.1865 1.34153 101.876 0.536285 115.737V0.299805C24.1185 0.299805 43.1567 19.3381 43.1567 42.9203Z" fill="url(#paint1_linear_1_950)"/>
<path d="M240.269 162.038C239.464 162.901 238.659 163.764 237.853 164.569C236.531 165.892 235.15 167.157 233.77 168.365C233.233 168.825 232.696 169.247 232.159 169.631C229.974 171.433 227.673 173.024 225.257 174.405C224.49 174.903 223.723 175.344 222.956 175.728C221.806 176.36 220.656 176.935 219.448 177.511C219.409 177.549 219.371 177.568 219.333 177.568C218.125 178.086 216.917 178.603 215.709 179.121C213.178 180.08 210.648 180.885 208.117 181.537C208.117 181.537 208.098 181.537 208.059 181.537C206.947 181.844 205.816 182.093 204.666 182.285C204.378 182.342 204.091 182.4 203.803 182.457C202.653 182.649 201.483 182.821 200.295 182.975C199.144 183.147 197.936 183.205 196.786 183.32C180.221 184.413 163.311 179.179 149.967 167.272C149.104 166.467 148.241 165.662 147.436 164.857L123.624 143.69L121.783 142.08L79.4503 104.406L78.9326 103.946L78.53 103.601C71.7429 97.1012 62.8852 93.0174 53.0497 92.1547C51.0366 91.9821 48.9085 91.9246 46.8379 92.0972C23.3132 93.3625 5.42527 113.551 6.80569 137.076C7.38087 147.544 11.6372 156.862 18.3667 163.879C17.8491 163.361 17.3314 162.844 16.8713 162.326C15.3183 160.6 13.8803 158.817 12.5574 156.977C12.0398 156.287 11.5796 155.596 11.062 154.906C10.5443 154.101 10.0267 153.238 9.50902 152.433L8.81881 151.225C8.64625 150.938 8.53123 150.65 8.35867 150.362C8.18612 150.132 8.07108 149.787 7.95604 149.557C7.66846 149.154 7.43838 148.694 7.26583 148.292C6.26886 146.298 5.38694 144.266 4.62004 142.195C4.19824 141.16 3.81479 140.124 3.46969 139.089C3.20127 138.284 2.9712 137.478 2.77947 136.673C2.5494 135.868 2.3385 135.063 2.14677 134.257C2.08926 134.085 2.03175 133.855 2.03175 133.625C1.91671 133.28 1.84001 132.935 1.80167 132.589C1.64829 132.091 1.55242 131.573 1.51408 131.036C1.32235 130.116 1.1498 129.177 0.996425 128.218C0.996425 128.103 0.996425 128.046 0.996425 127.931C0.88139 126.78 0.766351 125.687 0.651316 124.48C0.574626 123.943 0.536292 123.406 0.536292 122.869C0.536292 122.466 0.478771 122.006 0.478771 121.604C0.440426 120.913 0.440426 120.223 0.478771 119.533C0.478771 118.268 0.497947 117.002 0.536292 115.737C1.34154 101.875 6.63314 88.186 16.5837 77.0276C24.0609 68.63 33.2637 62.6482 43.1568 59.1972C43.3868 59.1205 43.5977 59.0438 43.7894 58.9671C44.4413 58.737 45.1123 58.5261 45.8025 58.3344C46.6653 58.1043 47.5281 57.8167 48.3908 57.6442C48.6209 57.5292 48.7935 57.4716 49.081 57.4716C49.8096 57.2416 50.5381 57.069 51.2667 56.954C52.302 56.7239 53.2798 56.5514 54.3151 56.3788L55.0053 56.2638C55.8106 56.1487 56.6734 56.0337 57.4786 55.9762C57.6512 55.9762 57.8237 55.9187 57.9963 55.9187C75.194 54.1356 92.9669 59.3697 106.886 71.736L128.455 90.8893L133.344 95.2606L135.127 96.8136L177.345 134.488L177.575 134.718C177.805 134.948 178.054 135.178 178.323 135.408C178.323 135.408 178.38 135.408 178.38 135.465C178.61 135.695 178.84 135.925 179.128 136.098C179.128 136.156 179.186 136.156 179.243 136.213C179.416 136.386 179.588 136.558 179.818 136.731L180.508 137.306C180.969 137.709 181.486 138.111 181.946 138.456C182.982 139.319 184.132 140.009 185.225 140.757C185.628 140.987 186.088 141.217 186.49 141.447C187.219 141.907 187.967 142.31 188.733 142.655C189.347 142.962 189.941 143.249 190.517 143.518C191.207 143.748 191.839 144.035 192.415 144.265C193.68 144.783 195.003 145.186 196.268 145.531C196.69 145.684 197.093 145.78 197.476 145.818C199.547 146.394 201.675 146.681 203.861 146.911C204.378 146.911 204.896 146.969 205.414 147.026H205.931C207.312 147.084 208.635 147.084 210.072 146.969C211.453 146.911 212.718 146.739 214.041 146.566L214.099 146.509C235.553 143.23 251.428 124.077 250.162 101.99C249.587 92.0972 245.676 83.182 239.579 76.2799C261.608 100.092 262.298 137.248 240.269 162.038Z" fill="url(#paint2_linear_1_950)"/>
<path d="M121.783 142.08C120.575 144.093 119.137 145.991 117.527 147.832C108.209 158.3 94.865 163.074 81.9235 161.924C73.1233 161.176 64.4957 157.667 57.4211 151.341C48.5059 143.403 43.7319 132.705 43.1567 121.719C43.2143 122.467 43.3293 123.214 43.5018 123.905C43.6744 124.595 43.8469 125.343 44.077 126.033C44.2687 126.646 44.4988 127.279 44.7672 127.931C44.8439 128.046 44.9014 128.18 44.9398 128.334C45.2082 128.87 45.4958 129.407 45.8025 129.944C45.8409 130.021 45.8984 130.117 45.9751 130.232C46.2052 130.692 46.4927 131.152 46.8379 131.555C47.7581 132.973 48.8893 134.258 50.2314 135.408C58.974 143.288 72.4906 142.483 80.313 133.683C84.3968 129.081 86.1223 123.272 85.6046 117.578C85.6046 117.233 85.5471 116.945 85.4896 116.6C85.4321 116.14 85.317 115.68 85.2595 115.162C85.1061 114.472 84.9144 113.801 84.6843 113.149C84.5693 112.631 84.3968 112.171 84.1667 111.711C84.0517 111.289 83.8791 110.887 83.649 110.503C83.4765 109.985 83.1889 109.468 82.9013 108.95C82.6329 108.528 82.3645 108.087 82.0961 107.627C81.866 107.359 81.6551 107.09 81.4634 106.822C81.1183 106.304 80.6581 105.729 80.198 105.269C79.9679 104.924 79.6803 104.694 79.4503 104.406L121.783 142.08Z" fill="url(#paint3_linear_1_950)"/>
<path d="M123.624 143.691C123.585 143.767 123.547 143.844 123.509 143.921C123.221 144.668 122.876 145.416 122.531 146.106C122.358 146.624 122.128 147.084 121.841 147.602C121.534 148.215 121.227 148.848 120.92 149.5C120.748 149.672 120.69 149.902 120.575 150.132C120.269 150.669 119.962 151.187 119.655 151.685C119.041 152.759 118.37 153.833 117.642 154.906C117.182 155.597 116.722 156.287 116.204 156.977C115.974 157.322 115.725 157.648 115.456 157.955C114.996 158.645 114.498 159.278 113.961 159.853C113.386 160.601 112.81 161.291 112.178 162.039C88.6531 188.382 48.2758 190.74 21.8753 167.273C21.4918 166.966 21.1275 166.621 20.7824 166.237C20.2839 165.816 19.7855 165.355 19.287 164.857C18.9419 164.569 18.6543 164.224 18.3667 163.879C11.6372 156.862 7.38087 147.544 6.80569 137.076C5.42527 113.551 23.3132 93.3627 46.8379 92.0973C48.9085 91.9248 51.0366 91.9823 53.0497 92.1549C62.8852 93.0176 71.7429 97.1014 78.53 103.601C69.7873 95.7785 56.2707 96.5262 48.4483 105.326C45.3424 108.835 43.6169 113.034 43.1567 117.348C43.1567 117.52 43.0992 117.693 43.0992 117.865C43.0992 118.038 43.0992 118.21 43.0992 118.44C43.0609 118.785 43.0417 119.15 43.0417 119.533C43.0417 120.262 43.0801 120.99 43.1567 121.719C43.7319 132.705 48.5059 143.403 57.4211 151.34C64.4957 157.667 73.1234 161.176 81.9235 161.924C94.865 163.074 108.209 158.3 117.527 147.832C119.137 145.991 120.575 144.093 121.783 142.08L123.624 143.691Z" fill="url(#paint4_linear_1_950)"/>
<path d="M214.099 146.51L214.041 146.567C212.718 146.74 211.453 146.912 210.072 146.97C208.635 147.085 207.312 147.085 205.931 147.027H205.414C204.896 146.97 204.378 146.912 203.861 146.912C201.675 146.682 199.547 146.394 197.476 145.819C197.093 145.781 196.69 145.685 196.268 145.532C195.003 145.187 193.68 144.784 192.415 144.266C191.839 144.036 191.207 143.749 190.517 143.519C189.941 143.25 189.347 142.963 188.733 142.656C187.967 142.311 187.219 141.908 186.49 141.448C186.088 141.218 185.628 140.988 185.225 140.758C184.132 140.01 182.982 139.32 181.946 138.457C181.486 138.112 180.969 137.709 180.508 137.307L179.818 136.732C179.588 136.559 179.416 136.386 179.243 136.214C179.473 136.386 179.646 136.559 179.933 136.674C188.676 143.116 201.042 141.966 208.404 133.683C211.798 129.887 213.581 125.228 213.811 120.512C213.869 119.476 213.811 118.383 213.754 117.348C213.178 106.362 208.347 95.549 199.489 87.7266C192.357 81.3422 183.787 77.8336 174.987 77.0859C161.988 75.9355 148.644 80.7095 139.326 91.1777C137.773 92.9607 136.335 94.8588 135.127 96.8144L133.344 95.2614C135.99 88.7619 139.786 82.5501 144.733 77.0284C152.152 68.6884 161.24 62.764 171.076 59.313C171.938 58.9679 172.801 58.6803 173.664 58.3927C174.699 58.1051 175.735 57.8175 176.77 57.53C177.613 57.2999 178.495 57.1082 179.416 56.9548C180.259 56.7631 181.122 56.5905 182.004 56.4371C182.752 56.3221 183.442 56.2071 184.132 56.1495C184.247 56.092 184.42 56.092 184.535 56.092C185.225 55.977 185.973 55.9195 186.72 55.862C203.746 54.309 221.288 59.5431 234.978 71.7368C235.15 71.8518 235.265 71.9669 235.38 72.1394C235.495 72.1969 235.553 72.2544 235.668 72.3695C236.32 72.9446 236.952 73.5582 237.566 74.21C238.179 74.7852 238.774 75.3795 239.349 75.9931C239.464 76.1081 239.521 76.1656 239.579 76.2807C245.676 83.1828 249.587 92.098 250.162 101.991C251.428 124.078 235.553 143.231 214.099 146.51Z" fill="url(#paint5_linear_1_950)"/>
<path d="M213.754 117.348C213.178 112.229 210.763 107.282 206.679 103.601C197.879 95.7789 184.42 96.5841 176.597 105.327C175.907 106.075 175.332 106.822 174.814 107.627C174.507 108.088 174.22 108.567 173.951 109.065C173.894 109.123 173.779 109.296 173.779 109.411C173.491 109.871 173.261 110.331 173.031 110.848C172.916 111.079 172.82 111.309 172.744 111.539C172.514 112.171 172.284 112.747 172.111 113.322C171.996 113.667 171.881 114.069 171.823 114.472C171.747 114.702 171.689 114.932 171.651 115.162C171.536 115.507 171.459 115.872 171.421 116.255C171.267 117.367 171.191 118.46 171.191 119.534C171.191 120.799 171.248 122.064 171.478 123.33C171.651 124.078 171.823 124.768 172.053 125.458C172.053 125.573 172.111 125.688 172.111 125.803C172.284 126.263 172.399 126.666 172.571 127.068C172.763 127.682 173.012 128.276 173.319 128.851C173.549 129.312 173.779 129.772 174.124 130.289C174.182 130.519 174.354 130.75 174.584 131.037C175.121 131.919 175.754 132.763 176.482 133.568C176.482 133.625 176.482 133.625 176.54 133.625C176.597 133.683 176.655 133.74 176.655 133.798L176.885 133.971C177.038 134.162 177.192 134.335 177.345 134.488L135.127 96.8142C136.335 94.8586 137.773 92.9605 139.326 91.1775C148.644 80.7093 161.988 75.9354 174.987 77.0857C183.787 77.8334 192.357 81.342 199.489 87.7264C208.347 95.5488 213.178 106.362 213.754 117.348Z" fill="url(#paint6_linear_1_950)"/>
<defs>
<linearGradient id="paint0_linear_1_950" x1="255.595" y1="8.17567" x2="255.595" y2="102.435" gradientUnits="userSpaceOnUse">
<stop stop-color="#F18535"/>
<stop offset="1" stop-color="#C14935"/>
</linearGradient>
<linearGradient id="paint1_linear_1_950" x1="178.181" y1="8.17567" x2="178.181" y2="102.435" gradientUnits="userSpaceOnUse">
<stop stop-color="#F18535"/>
<stop offset="1" stop-color="#C14935"/>
</linearGradient>
<linearGradient id="paint2_linear_1_950" x1="68.9257" y1="-17.6773" x2="287.76" y2="157.599" gradientUnits="userSpaceOnUse">
<stop stop-color="#9368E8"/>
<stop offset="0.5" stop-color="#A17AFF"/>
<stop offset="1" stop-color="#9368E8"/>
</linearGradient>
<linearGradient id="paint3_linear_1_950" x1="32.577" y1="128.194" x2="161.366" y2="21.6098" gradientUnits="userSpaceOnUse">
<stop stop-color="#9368E8"/>
<stop offset="1" stop-color="#222B7F"/>
</linearGradient>
<linearGradient id="paint4_linear_1_950" x1="63.2309" y1="220.975" x2="-94.9394" y2="45.6895" gradientUnits="userSpaceOnUse">
<stop stop-color="#9368E8"/>
<stop offset="1" stop-color="#222B7F"/>
</linearGradient>
<linearGradient id="paint5_linear_1_950" x1="167.209" y1="-4.76781" x2="363.756" y2="191.78" gradientUnits="userSpaceOnUse">
<stop stop-color="#9368E8"/>
<stop offset="1" stop-color="#222B7F"/>
</linearGradient>
<linearGradient id="paint6_linear_1_950" x1="217.591" y1="110.039" x2="117.188" y2="221.296" gradientUnits="userSpaceOnUse">
<stop stop-color="#9368E8"/>
<stop offset="1" stop-color="#222B7F"/>
</linearGradient>
</defs>
</svg>
