<svg width="233" height="257" viewBox="0 0 233 257" fill="none" xmlns="http://www.w3.org/2000/svg">
<path d="M232.865 98.591C232.523 43.1185 186.469 -1.37908 130.64 0.592369C79.9827 2.38072 38.343 43.2119 35.6654 93.8305C34.2505 120.574 43.4968 145.098 59.4878 163.623L116.896 246.997C125.713 259.801 144.663 259.684 153.321 246.772L209.694 162.696C224.272 145.378 233.016 123.001 232.865 98.591Z" fill="url(#paint0_linear_10_3312)"/>
<path d="M134.164 155.018C167.809 155.018 195.084 127.743 195.084 94.0977C195.084 60.4525 167.809 33.1777 134.164 33.1777C100.519 33.1777 73.2441 60.4525 73.2441 94.0977C73.2441 127.743 100.519 155.018 134.164 155.018Z" fill="url(#paint1_linear_10_3312)"/>
<path d="M172.467 73.1207L173.448 70.6063C174.262 68.517 172.952 66.2075 170.741 65.8349L168.08 65.3872C165.654 64.9784 163.162 65.3645 160.974 66.4885L146.578 73.8784C129.852 82.4649 114.553 93.5848 101.225 106.846C100.199 107.866 101.176 109.589 102.579 109.232C120.799 104.596 138.194 97.1705 154.146 87.2199L167.876 78.6552C169.963 77.3536 171.573 75.4121 172.467 73.1207Z" fill="#00395E"/>
<path d="M152.701 74.4389L110.411 61.0113C107.232 60.0015 104.805 63.8991 107.113 66.3074L128.216 88.3287L152.701 74.4389Z" fill="#00395E"/>
<path d="M156.806 81.6777L146.633 124.866C145.868 128.112 141.278 128.196 140.395 124.98L132.321 95.5676L156.806 81.6777Z" fill="#00395E"/>
<path d="M111.562 100.818L96.1686 95.9305C95.0111 95.5634 94.1282 96.982 94.9676 97.8585L102.649 105.874L111.562 100.818Z" fill="#00395E"/>
<path d="M113.056 103.451L109.353 119.172C109.074 120.354 107.403 120.384 107.082 119.214L104.144 108.508L113.056 103.451Z" fill="#00395E"/>
<path d="M123.82 227.144L156.859 241.496L209.694 162.696C212.474 159.394 215.04 155.907 217.374 152.258L215.094 150.479C211.559 147.721 206.487 148.201 203.531 151.572L187.042 170.379L177.995 163.42C174.281 160.563 169.053 160.78 165.587 163.934L146.934 180.916L138.868 174.243C136.124 171.973 132.187 171.868 129.326 173.988L109.885 188.394L123.82 227.144Z" fill="url(#paint2_linear_10_3312)"/>
<path d="M141.202 196.6L128.949 203.674L114.439 178.543C112.383 174.981 108.102 173.36 104.201 174.668L92.1786 178.7L78.3821 154.803C75.7109 150.176 69.4956 149.105 65.4304 152.573L56.5938 160.11C57.5328 161.304 58.4972 162.476 59.4888 163.625L116.897 246.999C125.714 259.803 144.664 259.686 153.322 246.774L171.577 219.548L154.623 199.021C151.339 195.045 145.666 194.022 141.202 196.6Z" fill="url(#paint3_linear_10_3312)"/>
<path d="M100.872 86.7161C100.897 86.4116 100.918 86.1061 100.918 85.7952C100.918 79.6334 95.9241 74.6391 89.7623 74.6391C87.4818 74.6391 85.3635 75.3261 83.596 76.5008C81.2429 72.3078 76.7616 69.4707 71.6114 69.4707C65.146 69.4707 59.7374 73.9429 58.2745 79.9579C57.1025 79.3932 55.7936 79.0678 54.4059 79.0678C49.9083 79.0678 46.1965 82.3925 45.5684 86.7161H100.872Z" fill="white"/>
<path d="M156.853 135.969C156.828 135.664 156.807 135.359 156.807 135.047C156.807 128.886 161.801 123.891 167.963 123.891C170.243 123.891 172.362 124.578 174.129 125.753C176.482 121.56 180.963 118.723 186.113 118.723C192.578 118.723 197.987 123.195 199.45 129.21C200.622 128.645 201.931 128.32 203.318 128.32C207.816 128.32 211.528 131.644 212.156 135.968L156.853 135.969Z" fill="white"/>
<path d="M199.179 56.5376C200.438 56.5376 201.46 55.5166 201.46 54.2571C201.46 52.9976 200.438 51.9766 199.179 51.9766C197.919 51.9766 196.898 52.9976 196.898 54.2571C196.898 55.5166 197.919 56.5376 199.179 56.5376Z" fill="white"/>
<path d="M56.5923 104.513C56.5923 103.254 55.5717 102.232 54.3118 102.232C53.0528 102.232 52.0312 103.253 52.0312 104.513C52.0312 105.772 53.0519 106.793 54.3118 106.793C55.5717 106.793 56.5923 105.772 56.5923 104.513Z" fill="white"/>
<path d="M103.029 165.62C103.029 164.358 102.007 163.336 100.745 163.336C99.4834 163.336 98.4609 164.358 98.4609 165.62C98.4609 166.882 99.4834 167.905 100.745 167.905C102.007 167.904 103.029 166.882 103.029 165.62Z" fill="white"/>
<path d="M134.604 221.023C134.604 219.762 133.582 218.738 132.32 218.738C131.059 218.738 130.036 219.762 130.036 221.023C130.036 222.285 131.059 223.308 132.32 223.308C133.582 223.307 134.604 222.285 134.604 221.023Z" fill="white"/>
<path d="M217.375 99.2707C219.252 99.2707 220.774 97.7489 220.774 95.8717C220.774 93.9945 219.252 92.4727 217.375 92.4727C215.497 92.4727 213.976 93.9945 213.976 95.8717C213.976 97.7489 215.497 99.2707 217.375 99.2707Z" fill="white"/>
<path d="M91.2369 33.177C93.1142 33.177 94.636 31.6552 94.636 29.778C94.636 27.9007 93.1142 26.3789 91.2369 26.3789C89.3597 26.3789 87.8379 27.9007 87.8379 29.778C87.8379 31.6552 89.3597 33.177 91.2369 33.177Z" fill="white"/>
<path d="M173.691 187.714C175.568 187.714 177.09 186.192 177.09 184.315C177.09 182.438 175.568 180.916 173.691 180.916C171.814 180.916 170.292 182.438 170.292 184.315C170.292 186.192 171.814 187.714 173.691 187.714Z" fill="white"/>
<path d="M100.745 108.514C100.745 108.514 35.9884 143.834 19.1182 135.386C2.24809 126.939 34.3188 109.284 34.3188 109.284C34.3188 109.284 -14.1951 129.511 4.97549 147.633C26.5862 168.062 100.745 108.514 100.745 108.514Z" fill="#00395E"/>
<defs>
<linearGradient id="paint0_linear_10_3312" x1="134.195" y1="272.471" x2="134.195" y2="13.7814" gradientUnits="userSpaceOnUse">
<stop stop-color="#59ACF9"/>
<stop offset="0.9916" stop-color="#C9EDFF"/>
</linearGradient>
<linearGradient id="paint1_linear_10_3312" x1="134.164" y1="198.373" x2="134.164" y2="49.307" gradientUnits="userSpaceOnUse">
<stop stop-color="#FFA538"/>
<stop offset="0.0717" stop-color="#FEAB39"/>
<stop offset="0.4427" stop-color="#FAC83D"/>
<stop offset="0.7649" stop-color="#F8DA40"/>
<stop offset="1" stop-color="#F7E041"/>
</linearGradient>
<linearGradient id="paint2_linear_10_3312" x1="163.629" y1="228.285" x2="163.629" y2="130.308" gradientUnits="userSpaceOnUse">
<stop stop-color="#1A4C4E"/>
<stop offset="1" stop-color="#2F878A"/>
</linearGradient>
<linearGradient id="paint3_linear_10_3312" x1="114.084" y1="277.232" x2="114.084" y2="173.791" gradientUnits="userSpaceOnUse">
<stop stop-color="#236568"/>
<stop offset="1" stop-color="#2F878A"/>
</linearGradient>
</defs>
</svg>
