<svg width="257" height="251" viewBox="0 0 257 251" fill="none" xmlns="http://www.w3.org/2000/svg">
<path d="M128.177 250.113C197.161 250.113 253.084 194.19 253.084 125.207C253.084 56.2231 197.161 0.300781 128.177 0.300781C59.1938 0.300781 3.27148 56.2231 3.27148 125.207C3.27148 194.19 59.1938 250.113 128.177 250.113Z" fill="white"/>
<path d="M128.177 125.207C179.835 125.207 225.436 129.007 252.72 134.805C252.961 131.637 253.084 128.436 253.084 125.207C253.084 56.2233 197.161 0.300781 128.177 0.300781C59.194 0.300781 3.27148 56.2233 3.27148 125.207C3.27148 128.436 3.39402 131.637 3.63509 134.805C30.9192 129.007 76.5198 125.207 128.177 125.207Z" fill="url(#paint0_linear_10_3249)"/>
<path d="M252.136 140.661C252.376 138.722 252.572 136.769 252.722 134.803C225.437 129.005 179.837 125.205 128.179 125.205C76.5214 125.205 30.9208 129.005 3.63672 134.803L139.219 135.614L11.789 144.446L37.0228 149.492L6.68973 154.307C8.22745 160.75 10.2633 166.998 12.7557 173.011L66.0409 170.941L43.9618 175.357L154.359 177.25L17.5306 183.199C21.9772 191.665 27.3648 199.558 33.5582 206.739L90.0133 208.791L41.6176 215.244C44.5096 218.025 47.5362 220.667 50.6845 223.161L83.7046 225.193L58.2594 228.716C78.2113 242.22 102.273 250.111 128.178 250.111C152.771 250.111 175.702 243.002 195.032 230.73L149.943 226.454H201.325C205.429 223.485 209.347 220.275 213.054 216.84L149.943 210.683L223.773 205.591C224.477 204.755 225.169 203.909 225.851 203.054L137.325 195.542L234.027 191.534C234.997 189.989 235.935 188.421 236.838 186.832L205.456 181.663L231.951 179.771L212.395 177.878L235.105 173.462L132.909 161.476H247.731C248.916 157.565 249.917 153.575 250.718 149.513L211.133 140.658H252.136V140.661Z" fill="url(#paint1_linear_10_3249)"/>
<path d="M128.18 125.205C114.176 125.205 100.622 125.486 87.752 126.009L150.891 130.252L119.033 131.513L184.956 134.351L109.886 141.29L167.293 145.391L114.934 148.545L225.645 152.33L165.085 140.659L194.104 139.398L184.325 137.19L226.592 134.982L192.211 130.25L215.898 129.318C191.158 126.73 160.887 125.205 128.18 125.205Z" fill="#4392E3"/>
<path d="M96.321 160.848L193.155 173.465L98.2135 164.318L175.491 176.304L158.774 178.828L198.517 181.981L98.8446 187.975L150.257 182.297H139.849L158.458 176.304L109.253 170.626L119.977 169.995L58.4707 161.479L92.2204 163.372L78.027 159.902L96.321 160.848Z" fill="#4392E3"/>
<path d="M236.074 110.379L239.536 106.917C240.556 105.897 240.556 104.242 239.536 103.222C238.516 102.201 236.861 102.201 235.841 103.222L235.555 103.508L234.443 88.7968L237.922 85.3177C238.942 84.2974 238.942 82.6427 237.922 81.6224C236.902 80.6021 235.247 80.6021 234.227 81.6224L233.924 81.9251L232.608 64.5057C242.154 55.4996 249.719 48.3308 251.429 46.6201C258.195 39.8541 256.062 29.6003 255.02 28.5591C253.979 27.5179 243.726 25.3843 236.959 32.1503C235.249 33.861 228.08 41.4255 219.074 50.9713L201.654 49.6555L201.957 49.3527C202.977 48.3324 202.977 46.6777 201.957 45.6574C200.937 44.6371 199.282 44.6371 198.262 45.6574L194.783 49.1365L180.072 48.0248L180.358 47.7389C181.378 46.7186 181.378 45.0639 180.358 44.0436C179.337 43.0233 177.683 43.0233 176.662 44.0436L173.2 47.5059L150.456 45.7871L145.355 50.888L186.89 62.859L198.802 72.5018C188.139 85.24 171.38 104.498 171.38 104.498L148.843 101.843L145.408 105.278L161.647 115.272C159.877 117.25 160.502 118.915 160.502 118.915C157.379 122.038 158.732 124.849 158.732 124.849C158.732 124.849 161.542 126.203 164.666 123.079C164.666 123.079 166.332 123.704 168.309 121.934L178.303 138.173L181.738 134.738L179.084 112.201C179.084 112.201 198.341 95.4418 211.079 84.7795L220.722 96.6912L232.693 138.226L237.794 133.125L236.074 110.379Z" fill="#0C264C"/>
<path d="M110.881 163.025C103.088 168.479 95.1513 173.684 87.0655 178.543C78.9829 183.399 70.74 187.916 62.3691 191.822C58.1868 193.775 53.9685 195.561 49.755 197.103C45.5471 198.636 41.3224 199.923 37.2682 200.746C35.2468 201.154 33.2718 201.435 31.4465 201.539C29.6301 201.643 27.9434 201.567 26.6804 201.303C26.0573 201.169 25.5559 200.989 25.1891 200.82C24.8552 200.631 24.6734 200.454 24.6277 200.342C24.5789 200.229 24.6886 200.168 24.7639 200.138C24.8423 200.111 24.9144 200.101 24.9433 199.941C24.9833 199.691 24.9064 198.836 25.033 197.591C25.0818 197.102 25.1627 196.553 25.2628 195.979C17.9546 185.372 12.2555 173.576 8.48887 160.946C6.9984 164.563 5.61205 168.276 4.36265 172.12C2.72402 177.297 1.28962 182.675 0.560003 188.728C0.210011 191.761 0.0394238 194.981 0.320538 198.514C0.478314 200.293 0.731396 202.131 1.23436 204.087C1.70368 206.013 2.43169 208.06 3.47766 210.082C5.4823 214.157 9.22489 217.996 13.3319 220.091C15.3718 221.152 17.4317 221.851 19.4003 222.31C21.352 222.734 23.2173 222.939 24.9793 222.999C28.4912 223.095 31.6067 222.673 34.5204 222.083C37.4284 221.481 40.1234 220.675 42.7015 219.769C47.8457 217.941 52.5533 215.725 57.0696 213.336C61.577 210.937 65.8834 208.358 70.0609 205.654C78.4118 200.246 86.2806 194.386 93.8739 188.266C101.463 182.143 108.769 175.756 115.858 169.176C130.027 156.009 143.341 142.081 155.952 127.625C141.479 140.214 126.465 152.107 110.881 163.025Z" fill="#0C264C"/>
<path d="M189.637 127.119C179.888 123.734 159.308 117.043 151.836 118.11C141.9 119.529 137.642 120.476 129.126 119.057C120.61 117.638 116.351 116.691 110.201 115.745C104.05 114.799 104.996 111.487 96.4797 111.487C87.9637 111.487 77.5545 111.96 77.5545 111.96L60.0485 114.326C60.0485 114.326 57.6827 111.014 53.8977 110.541C50.1126 110.068 47.7468 106.283 42.5426 105.809C37.3384 105.336 34.4992 105.336 32.1333 106.283C29.7675 107.229 25.5099 107.702 22.6708 107.702C19.8316 107.702 18.4124 106.283 16.0466 106.283C13.6807 106.283 13.2074 105.336 9.89569 105.336C8.80406 105.336 6.88832 105.439 4.8116 105.577C3.80167 111.973 3.27148 118.527 3.27148 125.208C3.27148 128.437 3.39402 131.638 3.63509 134.806C30.9192 129.008 76.5197 125.208 128.177 125.208C150.066 125.207 170.857 125.891 189.637 127.119Z" fill="#0C264C"/>
<defs>
<linearGradient id="paint0_linear_10_3249" x1="128.178" y1="134.804" x2="128.178" y2="0.300701" gradientUnits="userSpaceOnUse">
<stop stop-color="#FF5E57"/>
<stop offset="0.6224" stop-color="#FFBD4A"/>
</linearGradient>
<linearGradient id="paint1_linear_10_3249" x1="3.63656" y1="187.658" x2="252.722" y2="187.658" gradientUnits="userSpaceOnUse">
<stop stop-color="#3784DE"/>
<stop offset="1" stop-color="#7BD2FD"/>
</linearGradient>
</defs>
</svg>
