<svg width="257" height="246" viewBox="0 0 257 246" fill="none" xmlns="http://www.w3.org/2000/svg">
<path d="M164.073 62.3984H94.1367V93.7271H164.073V62.3984Z" fill="url(#paint0_linear_12_5303)" stroke="white" stroke-miterlimit="10"/>
<path d="M174.279 66.345H129.108H83.9375L124.472 3.30757C126.641 -0.0660636 131.573 -0.0660636 133.743 3.30757L174.279 66.345Z" fill="url(#paint1_linear_12_5303)"/>
<path d="M129.109 117.078V164.966C129.109 171.056 134.047 175.994 140.137 175.994H153.555C153.555 181.808 158.268 186.52 164.081 186.52C169.894 186.52 174.607 181.807 174.607 175.994H188.024C194.114 175.994 199.052 171.056 199.052 164.966V117.078C199.052 110.988 194.114 106.051 188.024 106.051H140.136C134.047 106.051 129.109 110.987 129.109 117.078Z" fill="url(#paint2_linear_12_5303)"/>
<path d="M118.58 210.966C118.58 205.152 123.294 200.44 129.106 200.44V187.022C129.106 180.932 124.169 175.995 118.079 175.995H109.399H104.648C104.512 170.3 99.8627 165.723 94.1352 165.723C88.4077 165.723 83.7585 170.3 83.6222 175.995H70.1916C64.1017 175.995 59.1641 180.932 59.1641 187.022V234.91C59.1641 241 64.1017 245.938 70.1916 245.938H118.08C124.17 245.938 129.107 241 129.107 234.91V221.493C123.293 221.492 118.58 216.78 118.58 210.966Z" fill="url(#paint3_linear_12_5303)"/>
<path d="M188.023 175.996H174.605C174.605 181.81 169.893 186.522 164.079 186.522C158.266 186.522 153.553 181.81 153.553 175.996H140.136C134.046 175.996 129.108 180.934 129.108 187.024V200.441C123.294 200.441 118.582 205.154 118.582 210.967C118.582 216.781 123.295 221.493 129.108 221.493V234.911C129.108 241.001 134.046 245.938 140.136 245.938H188.024C194.114 245.938 199.051 241.001 199.051 234.911V187.023C199.05 180.933 194.113 175.996 188.023 175.996Z" fill="url(#paint4_linear_12_5303)"/>
<path d="M172.247 153.164C170.158 155.254 167.27 156.547 164.081 156.547C160.892 156.547 158.004 155.255 155.914 153.164" stroke="white" stroke-miterlimit="10" stroke-linecap="round"/>
<path d="M150.024 146.122C155.719 146.122 160.337 141.504 160.337 135.809C160.337 130.113 155.719 125.496 150.024 125.496C144.328 125.496 139.711 130.113 139.711 135.809C139.711 141.504 144.328 146.122 150.024 146.122Z" stroke="white" stroke-miterlimit="10" stroke-linecap="round"/>
<path d="M178.133 146.122C183.829 146.122 188.446 141.504 188.446 135.809C188.446 130.113 183.829 125.496 178.133 125.496C172.438 125.496 167.82 130.113 167.82 135.809C167.82 141.504 172.438 146.122 178.133 146.122Z" stroke="white" stroke-miterlimit="10" stroke-linecap="round"/>
<path d="M150.025 139.852C151.963 139.852 153.534 138.041 153.534 135.809C153.534 133.576 151.963 131.766 150.025 131.766C148.087 131.766 146.516 133.576 146.516 135.809C146.516 138.041 148.087 139.852 150.025 139.852Z" fill="white"/>
<path d="M178.13 139.852C180.068 139.852 181.639 138.041 181.639 135.809C181.639 133.576 180.068 131.766 178.13 131.766C176.192 131.766 174.621 133.576 174.621 135.809C174.621 138.041 176.192 139.852 178.13 139.852Z" fill="white"/>
<path d="M158.922 130.613H169.229" stroke="white" stroke-miterlimit="10" stroke-linecap="round"/>
<path d="M76.0938 198.744C77.6197 196.156 79.7279 194.555 82.0567 194.555C84.3855 194.555 86.4937 196.156 88.0197 198.744" stroke="white" stroke-miterlimit="10" stroke-linecap="round"/>
<path d="M100.25 198.744C101.776 196.156 103.884 194.555 106.213 194.555C108.542 194.555 110.65 196.156 112.176 198.744" stroke="white" stroke-miterlimit="10" stroke-linecap="round"/>
<path d="M94.1369 214.304C90.4388 214.304 87.0467 213.084 84.3711 211.055C84.3359 211.565 84.3164 212.082 84.3164 212.607C84.3164 220.761 88.7135 227.371 94.1369 227.371C99.5603 227.371 103.957 220.761 103.957 212.607C103.957 212.082 103.938 211.565 103.903 211.055C101.226 213.084 97.8341 214.304 94.1369 214.304Z" stroke="white" stroke-miterlimit="10" stroke-linecap="round"/>
<path d="M174.391 215.266C174.391 220.962 169.773 225.578 164.078 225.578C158.383 225.578 153.766 220.961 153.766 215.266" stroke="white" stroke-miterlimit="10" stroke-linecap="round"/>
<path d="M147.527 202.959C149.053 200.371 151.161 198.77 153.49 198.77C155.819 198.77 157.927 200.371 159.453 202.959" stroke="white" stroke-miterlimit="10" stroke-linecap="round"/>
<path d="M176.113 205.383C178.607 205.383 180.629 203.361 180.629 200.867C180.629 198.373 178.607 196.352 176.113 196.352C173.619 196.352 171.598 198.373 171.598 200.867C171.598 203.361 173.619 205.383 176.113 205.383Z" stroke="white" stroke-miterlimit="10" stroke-linecap="round"/>
<path d="M118.08 106.051H70.1916C64.1017 106.051 59.1641 110.988 59.1641 117.078V164.966C59.1641 171.056 64.1017 175.994 70.1916 175.994H83.6222C83.7585 170.299 88.4077 165.722 94.1352 165.722C99.8627 165.722 104.512 170.299 104.648 175.994H109.399H118.079C124.169 175.994 129.106 171.056 129.106 164.966V117.078C129.107 110.987 124.17 106.051 118.08 106.051ZM90.3101 156.297H72.666V134.569C72.666 129.697 76.6153 125.747 81.4881 125.747C86.3608 125.747 90.3101 129.697 90.3101 134.569V156.297ZM115.606 156.297H97.9622V134.569C97.9622 129.697 101.912 125.747 106.784 125.747C111.656 125.747 115.606 129.697 115.606 134.569V156.297Z" fill="url(#paint5_linear_12_5303)"/>
<path d="M188.445 77.8242V86.383H175.802V77.8242H153.099V86.383H140.456V77.8242H117.753V86.383H105.111V77.8242H82.4076V86.383H69.7651V77.8242H47.6367V95.3497C47.6367 101.259 52.4269 106.049 58.3361 106.049H199.872C205.781 106.049 210.571 101.259 210.571 95.3497V77.8242H188.445Z" fill="url(#paint6_linear_12_5303)"/>
<path opacity="0.44" d="M174.278 66.342L137.918 9.79688C155.913 47.5799 106.215 66.342 83.9375 66.342H129.108H174.278Z" fill="url(#paint7_linear_12_5303)"/>
<path d="M47.788 245.938H11.9612C5.8712 245.938 0.933594 241 0.933594 234.91V160.742H58.8156V234.91C58.8156 241.001 53.8789 245.938 47.788 245.938Z" fill="url(#paint8_linear_12_5303)"/>
<path d="M26.5661 118.232L22.1875 125.494H37.564L33.1854 118.232C31.6826 115.74 28.0689 115.74 26.5661 118.232Z" fill="url(#paint9_linear_12_5303)"/>
<path d="M22.1868 125.496L0.933594 160.741C2.23521 164.829 6.06125 167.791 10.5807 167.791C15.1002 167.791 18.9263 164.829 20.2279 160.741C21.5295 164.829 25.3556 167.791 29.875 167.791C34.3945 167.791 38.2206 164.829 39.5222 160.741C40.8238 164.829 44.6499 167.791 49.1694 167.791C53.6889 167.791 57.5149 164.829 58.8165 160.741L37.5633 125.496H22.1868Z" fill="url(#paint10_linear_12_5303)"/>
<path opacity="0.22" d="M58.8149 234.906V193.746C55.915 221.967 34.9083 247.651 1.28516 237.629C2.4987 242.401 6.81146 245.935 11.9604 245.935H47.7873C53.8782 245.934 58.8149 240.997 58.8149 234.906Z" fill="url(#paint11_linear_12_5303)"/>
<path opacity="0.18" d="M4.73828 154.428C7.615 155.474 10.7198 156.046 13.9581 156.046C28.2146 156.046 39.881 144.991 40.872 130.986L37.5614 125.496H22.1849L4.73828 154.428Z" fill="white"/>
<path d="M245.905 245.938H210.078C203.988 245.938 199.051 241 199.051 234.91V160.742H256.933V234.91C256.933 241.001 251.995 245.938 245.905 245.938Z" fill="url(#paint12_linear_12_5303)"/>
<path d="M224.683 118.232L220.305 125.494H235.681L231.303 118.232C229.799 115.74 226.185 115.74 224.683 118.232Z" fill="url(#paint13_linear_12_5303)"/>
<path d="M220.304 125.496L199.051 160.741C200.352 164.829 204.178 167.791 208.698 167.791C213.217 167.791 217.043 164.829 218.345 160.741C219.647 164.829 223.473 167.791 227.992 167.791C232.512 167.791 236.338 164.829 237.639 160.741C238.941 164.829 242.767 167.791 247.287 167.791C251.806 167.791 255.632 164.829 256.934 160.741L235.68 125.496H220.304Z" fill="url(#paint14_linear_12_5303)"/>
<path opacity="0.22" d="M256.932 234.906V193.746C254.032 221.967 233.026 247.651 199.402 237.629C200.616 242.401 204.929 245.935 210.078 245.935H245.904C251.994 245.934 256.932 240.997 256.932 234.906Z" fill="url(#paint15_linear_12_5303)"/>
<path opacity="0.18" d="M202.855 154.428C205.732 155.474 208.837 156.046 212.075 156.046C226.332 156.046 237.998 144.991 238.989 130.986L235.679 125.496H220.302L202.855 154.428Z" fill="white"/>
<defs>
<linearGradient id="paint0_linear_12_5303" x1="103.789" y1="52.7463" x2="154.421" y2="103.379" gradientUnits="userSpaceOnUse">
<stop stop-color="#007ADE"/>
<stop offset="1" stop-color="#00559C"/>
</linearGradient>
<linearGradient id="paint1_linear_12_5303" x1="100.852" y1="26.7458" x2="157.365" y2="83.2588" gradientUnits="userSpaceOnUse">
<stop stop-color="#FFE15E"/>
<stop offset="1" stop-color="#FF9500"/>
</linearGradient>
<linearGradient id="paint2_linear_12_5303" x1="132.339" y1="109.281" x2="195.823" y2="172.764" gradientUnits="userSpaceOnUse">
<stop stop-color="#FFE15E"/>
<stop offset="1" stop-color="#FF9500"/>
</linearGradient>
<linearGradient id="paint3_linear_12_5303" x1="61.6026" y1="183.205" x2="125.042" y2="237.34" gradientUnits="userSpaceOnUse">
<stop stop-color="#FFA3D8"/>
<stop offset="1" stop-color="#BF2C82"/>
</linearGradient>
<linearGradient id="paint4_linear_12_5303" x1="132.337" y1="179.226" x2="195.82" y2="242.709" gradientUnits="userSpaceOnUse">
<stop stop-color="#007ADE"/>
<stop offset="1" stop-color="#00559C"/>
</linearGradient>
<linearGradient id="paint5_linear_12_5303" x1="62.3943" y1="109.281" x2="125.877" y2="172.764" gradientUnits="userSpaceOnUse">
<stop stop-color="#007ADE"/>
<stop offset="1" stop-color="#00559C"/>
</linearGradient>
<linearGradient id="paint6_linear_12_5303" x1="82.8839" y1="42.5798" x2="175.329" y2="135.025" gradientUnits="userSpaceOnUse">
<stop stop-color="#FFA3D8"/>
<stop offset="1" stop-color="#BF2C82"/>
</linearGradient>
<linearGradient id="paint7_linear_12_5303" x1="110.286" y1="37.4282" x2="156.739" y2="83.8808" gradientUnits="userSpaceOnUse">
<stop stop-color="#FFE15E"/>
<stop offset="1" stop-color="#FF9500"/>
</linearGradient>
<linearGradient id="paint8_linear_12_5303" x1="-4.27982" y1="165.956" x2="64.0293" y2="234.265" gradientUnits="userSpaceOnUse">
<stop stop-color="#FFA3D8"/>
<stop offset="1" stop-color="#BF2C82"/>
</linearGradient>
<linearGradient id="paint9_linear_12_5303" x1="25.2694" y1="119.364" x2="34.4816" y2="128.576" gradientUnits="userSpaceOnUse">
<stop stop-color="#007ADE"/>
<stop offset="1" stop-color="#00559C"/>
</linearGradient>
<linearGradient id="paint10_linear_12_5303" x1="11.5075" y1="136.175" x2="48.2419" y2="172.91" gradientUnits="userSpaceOnUse">
<stop stop-color="#FFE15E"/>
<stop offset="1" stop-color="#FF9500"/>
</linearGradient>
<linearGradient id="paint11_linear_12_5303" x1="-3.90666" y1="171.554" x2="51.3702" y2="244.561" gradientUnits="userSpaceOnUse">
<stop stop-color="#FFA3D8"/>
<stop offset="1" stop-color="#BF2C82"/>
</linearGradient>
<linearGradient id="paint12_linear_12_5303" x1="193.837" y1="165.956" x2="262.146" y2="234.265" gradientUnits="userSpaceOnUse">
<stop stop-color="#FFA3D8"/>
<stop offset="1" stop-color="#BF2C82"/>
</linearGradient>
<linearGradient id="paint13_linear_12_5303" x1="223.386" y1="119.364" x2="232.598" y2="128.576" gradientUnits="userSpaceOnUse">
<stop stop-color="#007ADE"/>
<stop offset="1" stop-color="#00559C"/>
</linearGradient>
<linearGradient id="paint14_linear_12_5303" x1="209.625" y1="136.175" x2="246.36" y2="172.91" gradientUnits="userSpaceOnUse">
<stop stop-color="#FFE15E"/>
<stop offset="1" stop-color="#FF9500"/>
</linearGradient>
<linearGradient id="paint15_linear_12_5303" x1="194.21" y1="171.554" x2="249.487" y2="244.561" gradientUnits="userSpaceOnUse">
<stop stop-color="#FFA3D8"/>
<stop offset="1" stop-color="#BF2C82"/>
</linearGradient>
</defs>
</svg>
