<svg width="232" height="257" viewBox="0 0 232 257" fill="none" xmlns="http://www.w3.org/2000/svg">
<path d="M209.822 99.1257C210.957 105.488 211.834 112.458 208.615 118.062C204.822 124.665 196.097 127.889 193.861 135.168C192.993 137.991 193.71 141.724 196.474 142.764C197.615 143.193 198.886 143.077 200.082 142.84C204.998 141.865 209.48 138.864 212.255 134.69C214.082 140.29 211.592 146.345 208.631 151.437C203.656 159.995 197.184 167.688 189.613 174.065C181.08 181.252 173.777 180.337 163.297 176.808C152.484 173.165 142.156 167.957 133.092 161.024C123.294 153.529 115.113 144.15 107.267 134.631C96.9028 122.058 86.9217 109.022 79.1463 94.6547C72.9523 83.2104 63.499 74.096 70.264 60.2529C72.597 55.479 76.5638 51.5349 81.2914 49.1289C86.0807 46.6912 89.5782 48.4913 94.3839 47.2467C98.746 46.1172 101.41 41.5322 105.615 39.9129C108.843 38.6693 112.445 39.3584 115.904 39.2988C119.362 39.2393 123.353 37.9238 124.418 34.6328C124.846 33.3132 124.718 31.889 124.764 30.5027C124.942 24.9115 127.962 19.7813 131.599 15.5311C134.978 11.5828 139.102 8.0751 144.048 6.48141C148.994 4.88773 154.862 5.50487 158.725 8.98181C148.975 8.43039 139.594 16.7654 138.995 26.5124C138.835 29.1247 139.209 31.8366 138.314 34.296C136.883 38.2268 132.739 40.3134 129.34 42.7521C125.941 45.192 122.793 49.4657 124.56 53.2579C126.645 57.733 133.567 57.0224 137.326 53.8227C141.085 50.622 143.352 45.8615 147.376 43.0017C148.487 42.212 149.783 41.5682 151.145 41.6185C152.39 41.6647 153.534 42.2798 154.727 42.6382C163.495 45.2741 170.082 37.2523 173.059 30.1998C175.491 24.4381 177.854 17.8395 183.511 15.1717C185.461 14.2517 187.626 13.9107 189.684 13.27C194.303 11.8303 198.292 8.91712 202.304 6.21135C206.316 3.5066 210.6 0.905561 215.393 0.242209C220.186 -0.421142 225.624 1.32555 227.968 5.55826C215.929 5.03354 203.776 10.5354 196.228 19.9292C194.601 21.9531 193.215 25.0255 194.968 26.9416C196.334 28.4346 198.761 28.1522 200.65 27.4283C205.306 25.6426 209.136 21.8165 210.928 17.1638C212.059 25.8726 205.896 34.9357 197.38 37.0839C193.478 38.0686 189.357 37.7329 185.402 38.4742C176.046 40.2271 170.819 48.0086 166.385 55.785C165.194 57.8737 164.43 61.0919 166.558 62.2111C167.23 62.5644 168.032 62.5705 168.786 62.475C175.568 61.6125 179.033 54.0743 181.252 47.6071C183.778 50.5686 186.399 54.5076 184.792 58.0523C183.853 60.1225 181.73 61.3342 179.831 62.5839C175.077 65.7127 170.66 71.38 172.806 76.6518C177.261 87.593 194.736 78.913 198.408 71.9191C201.425 66.1738 201.331 58.4795 206.46 54.5056C208.014 53.3021 209.886 52.6018 211.638 51.7115C220.188 47.3617 225.836 37.8489 225.564 28.2611C227.808 32.9343 229.495 37.8735 230.578 42.9431C231.267 46.1654 231.697 49.6095 230.522 52.688C228.509 57.9599 222.657 60.4306 217.682 63.0932C215.083 64.4846 209.987 67.0353 210.643 70.6499C211.041 72.8432 213.231 74.4749 215.46 74.5109C217.689 74.5468 219.808 73.1657 220.951 71.2516C220.743 77.7506 216.301 83.3573 211.349 87.5725C206.398 91.7878 200.697 95.1867 196.432 100.096C195.714 100.923 195.031 101.805 194.639 102.826C192.951 107.22 197.796 112.954 202.513 111.648C206.782 110.463 209.19 102.885 209.822 99.1257Z" fill="#FF7000"/>
<path d="M54.1035 67.864C54.1035 67.864 99.8408 62.1875 113.16 61.7141C126.48 61.2407 134.531 57.9301 158.415 75.4319C182.299 92.9347 205.317 125.788 191.01 191.57C183.442 226.372 160.329 249.97 138.528 253.755C116.726 257.539 82.5084 258.731 46.5571 241.702C10.6057 224.673 1.12264 191.217 0.650287 154.14C0.175878 117.061 29.1189 72.0176 54.1035 67.864Z" fill="black"/>
<path d="M137.066 87.1649C108.683 75.1023 68.2373 95.6796 65.0448 149.961C61.8523 204.243 94.4921 239.013 126.068 237.948C83.4944 232.981 69.3022 188.633 70.0118 150.316C70.7213 111.998 98.0399 77.231 137.066 87.1649Z" fill="#FF7000"/>
<path d="M156.934 100.289C177.747 121.576 195.257 169.472 160.898 221.98C184.685 175.502 179.73 132.219 156.934 100.289Z" fill="white"/>
<path d="M146.062 173.201C149.184 173.201 153.261 174.98 156.176 176.002C159.335 177.109 162.628 177.885 165.911 178.698C161.2 176.068 156.507 173.39 151.833 170.666C148.645 168.812 143.242 167.128 142.259 163.106C140.726 156.882 151.162 153.258 155.457 151.753C159.335 150.391 163.054 148.603 166.763 146.824C161.616 147.903 156.469 148.982 151.323 150.06C148.37 150.675 136.716 150.599 141.512 144.989C144.956 141.015 148.334 136.805 151.947 132.993C154.918 129.861 156.441 125.3 159.402 122.368C154.179 127.533 148.635 132.368 142.798 136.815C140.555 138.527 136.317 141.772 133.423 139.767C131.285 138.291 131.53 135.131 132.089 132.917C133.319 128.073 134.321 123.248 135.438 118.413C136.678 113.087 136.687 107.826 136.857 102.358C134.454 112.728 130.755 123.229 124.984 132.227C124.568 132.88 124 133.598 123.224 133.58C120.641 133.533 121.71 128.528 121.852 127.128C122.202 123.779 121.625 120.363 121.114 117.033C120.546 113.334 119.789 109.673 118.843 106.049C118.058 103.022 116.119 99.4831 115.834 96.418C116.62 105.084 117.972 113.353 117.083 122.029C116.705 125.747 116.78 137.356 112.561 138.898C110.726 139.56 108.975 137.82 107.821 136.24C102.409 128.86 97.4516 120.979 90.4597 115.066C96.4679 123.041 101.075 132.067 103.999 141.604C104.623 143.619 104.832 146.41 102.892 147.224C101.861 147.669 100.687 147.271 99.6378 146.874C92.2865 144.102 84.4526 139.92 76.6382 138.842C82.6361 142.324 88.5025 146.051 94.1975 150.015C97.2247 152.115 100.309 154.395 102.059 157.65C102.854 159.116 103.346 160.829 102.968 162.455C101.955 166.751 95.2952 168.633 91.8614 170.469C86.6008 173.298 81.218 175.88 75.7305 178.236C77.1876 178.652 78.7012 178.056 80.1295 177.555C84.7658 175.928 90.0818 174.944 94.9358 174.301C97.3962 173.98 104.369 171.51 104.737 175.749C105.22 181.388 101.568 186.525 98.6068 190.981C95.2387 196.052 91.6252 200.963 87.793 205.693C94.6709 201.153 100.527 195.05 104.766 187.982C105.731 186.364 106.668 184.652 108.181 183.545C109.704 182.429 112.032 182.155 113.375 183.469C114.066 184.16 114.378 185.135 114.643 186.08C117.935 197.66 118.229 210.073 115.495 221.795C119.913 211.426 121.275 200.073 123.205 188.975C123.414 187.764 124.283 186.165 125.4 186.685C125.854 186.894 126.08 187.375 126.28 187.83C130.944 198.568 135.655 209.449 137.614 220.99C137.217 214.784 136.602 208.587 135.779 202.419C135.032 196.903 131.89 192.409 132.117 186.581C132.146 185.777 132.231 184.935 132.685 184.273C133.963 182.39 136.905 183.213 138.863 184.377C146.971 189.211 153.243 196.524 159.355 203.715C155.248 194.311 147.49 187.072 141.587 178.671C140.111 176.59 140.197 174.935 141.19 173.96C142.146 173.012 143.962 172.69 146.062 173.201ZM131.512 179.313C128.229 181.792 124.681 182.596 120.801 181.244C108.389 176.93 103.895 160.467 110.12 149.124C112.532 144.725 117.092 141.309 122.117 141.129C127.547 140.941 132.628 144.545 135.362 149.256C140.357 157.856 139.705 173.125 131.512 179.313Z" fill="white"/>
<path d="M33.6593 103.739C43.0417 94.2901 52.2167 84.0441 64.4723 78.382C55.4975 86.0023 47.793 95.1948 42.3486 105.635C50.8489 93.3136 62.9833 83.5328 76.8274 77.8398C66.1923 84.7937 56.0438 93.406 50.8109 104.985C60.2478 94.2819 73.0825 82.3837 86.9831 78.4036C42.4461 104.932 31.7319 169.873 60.1934 212.046C49.6352 201.756 39.3553 187.209 37.9598 172.311C36.3096 186.715 41.8013 198.283 47.6574 209.918C36.9339 199.628 33.0863 186.248 28.7355 171.364C27.5526 188.627 39.6151 209.68 39.6151 209.68C32.9929 200.929 22.4881 186.123 20.2198 168.488C20.726 182.986 23.2346 196.316 30.5048 208.869C20.0555 197.242 13.3706 182.284 11.6783 166.742C11.8858 181.251 15.1173 200.047 19.9969 208.892C-4.92495 169.348 4.65771 113.457 41.3258 84.4734C34.3545 91.3677 28.5651 98.6502 24.8868 107.738C32.1529 96.654 41.7366 85.4427 54.0733 79.947C45.2371 85.684 39.0503 94.821 33.6593 103.739Z" fill="white"/>
<path d="M67.5273 72.2619C67.5273 72.2619 104.424 65.8759 123.228 65.5206C142.032 65.1653 172.109 83.7351 185.315 120.158C200.571 162.232 180.348 206.725 180.348 206.725C192.766 171.515 187.51 130.539 175.949 110.121C165.657 91.9427 148.688 75.1002 127.763 70.7176C115.25 68.097 103.733 69.358 91.0907 70.2606C83.2301 70.8213 75.3695 71.4651 67.5273 72.2619Z" fill="#FF7000"/>
<path d="M116.732 158.71C117.737 156.562 119.533 154.876 121.481 153.523C119.832 154.668 116.943 153.528 115.107 155.507C113.704 157.019 113.126 160.136 113.162 162.07C113.197 163.958 113.581 165.913 114.719 167.419C115.858 168.925 117.882 169.866 119.688 169.317C116.249 167.571 115.221 161.94 116.732 158.71Z" fill="white"/>
<path d="M124.511 168.363C125.271 167.903 125.896 167.196 126.34 166.419C128.544 162.564 128.292 158.295 124.52 155.629C128.065 158.134 125.534 166.436 123.359 168.829C123.77 168.74 124.155 168.579 124.511 168.363Z" fill="#FF7000"/>
<path d="M122.15 144.832C121.405 145.945 121.588 147.523 122.637 148.35C121.823 148.427 120.956 148.138 120.434 147.509C119.399 146.259 120.089 144.345 121.408 143.644C122.192 143.226 123.242 143.382 123.872 144.008C123.209 143.889 122.524 144.272 122.15 144.832Z" fill="white"/>
<path d="M132.024 157.753C131.872 158.537 132.095 160.207 133.082 160.359C133.419 160.411 133.788 160.309 134.09 160.466C133.636 160.697 133.15 160.904 132.642 160.898C132.141 160.891 131.66 160.677 131.257 160.381C130.352 159.717 129.41 158.783 129.72 157.557C129.824 157.148 130.06 156.784 130.326 156.455C130.783 155.891 131.361 155.393 132.059 155.187C132.756 154.983 133.585 155.123 134.069 155.664C133.059 155.882 132.219 156.741 132.024 157.753Z" fill="white"/>
<path d="M127.795 173.713C127.303 174.375 127.115 175.155 127.273 175.965C127.362 176.426 127.853 177.587 128.437 177.635C127.45 177.554 126.449 177.245 125.719 176.576C123.714 174.737 125.428 172.341 127.565 171.742C127.94 171.638 128.331 171.565 128.718 171.613C129.378 171.695 129.941 172.113 130.457 172.533C129.448 172.386 128.403 172.894 127.795 173.713Z" fill="white"/>
<path d="M117.085 172.753C115.673 172.037 113.989 174.383 114.547 175.613C114.75 176.063 115.191 176.432 115.184 176.926C114.281 176.506 113.47 175.795 113.138 174.855C112.732 173.707 113.3 172.046 114.51 171.616C114.989 171.446 115.534 171.499 115.993 171.719C116.452 171.938 116.827 172.315 117.085 172.753Z" fill="white"/>
<path d="M112.987 155.039C112.243 154.879 111.279 155.166 110.94 155.887C110.781 156.226 110.54 158.241 111.06 158.301C110.818 158.273 110.595 158.155 110.397 158.014C109.676 157.503 109.202 156.612 109.308 155.734C109.546 153.758 111.911 153.723 112.987 155.039Z" fill="white"/>
<path d="M139.807 248.662C140.741 248.287 141.633 247.892 142.469 247.474C137.505 249.95 125.875 249.61 120.02 249.849C112.208 250.169 104.175 250.1 96.3932 249.264C80.6145 247.569 64.6499 245.317 49.3281 241.703C56.5932 243.417 63.43 246.776 70.7854 248.596C78.4601 250.495 86.3485 251.881 94.3261 252.735C110.614 254.475 125.217 254.508 139.807 248.662Z" fill="#FF7000"/>
<path d="M114.194 115.786C114.177 109.018 113.405 101.664 111.274 95.2188C112.24 101.105 112.024 107.35 111.829 113.337C111.721 116.666 111.498 119.991 111.159 123.304C110.887 125.963 111.096 130.392 109.871 132.773C112.577 127.514 114.209 121.698 114.194 115.786Z" fill="#FF7000"/>
<path d="M123.133 125.932C128.211 120.191 134.087 106.853 134.087 95.4805C131.217 105.734 126.681 115.892 123.133 125.932Z" fill="#FF7000"/>
<path d="M154.603 121.76C154.641 121.725 154.679 121.69 154.717 121.656C152.156 125.046 149.578 128.455 146.468 131.35C144.663 133.029 142.673 134.532 140.493 135.689C138.039 136.992 136.646 137.066 134.09 136.965C137.819 135.628 140.846 133.087 143.867 130.606C147.457 127.657 151.16 124.897 154.603 121.76Z" fill="#FF7000"/>
<path d="M97.8366 142.716C94.5795 133.493 91.197 124.046 84.8828 116.574C92.6869 123.18 97.084 132.519 97.8366 142.716Z" fill="#FF7000"/>
<path d="M88.7601 151.258C89.8506 152.184 90.9411 153.111 92.0316 154.038C93.2741 155.093 94.5721 156.23 95.0763 157.78C95.6298 159.485 95.0866 161.398 94.0566 162.864C93.0267 164.331 91.5613 165.428 90.0919 166.453C86.426 169.011 82.5691 171.291 78.5859 173.32C84.2326 171.023 90.4513 168.561 95.1759 164.71C96.5611 163.58 97.9412 162.131 97.9843 160.344C98.01 159.312 97.5736 158.324 97.0437 157.438C95.3392 154.595 91.9392 152.192 88.7601 151.258Z" fill="#FF7000"/>
<path d="M82.9492 206.447C84.4484 204.165 87.0762 202.272 88.791 200.07C90.5644 197.792 92.156 195.374 93.5505 192.847C96.1146 188.198 99.149 182.089 99.0781 176.692C98.4435 176.622 98.0677 177.367 97.8808 177.978C94.8649 187.85 88.6041 197.836 82.9492 206.447Z" fill="#FF7000"/>
<path d="M110.242 226.253C111.584 213.914 111.291 201.399 109.375 189.137C111.422 190.487 112.18 192.935 112.617 195.348C114.355 204.95 113.847 214.952 111.143 224.328" fill="#FF7000"/>
<path d="M131.596 222.507C130.426 214.354 127.936 206.393 124.254 199.025C123.723 197.963 124.52 195.584 125.707 195.536C126.679 195.496 127.224 196.619 127.504 197.551C129.95 205.729 130.943 213.997 131.596 222.507Z" fill="#FF7000"/>
<path d="M154.716 204.174C149.575 197.585 141.784 192.265 135.789 186.441C137.872 186.53 139.822 187.697 141.359 189.106C146.194 193.539 151.99 198.207 154.716 204.174Z" fill="#FF7000"/>
<path d="M163.139 181.186C156.458 178.662 149.586 176.642 142.602 175.15C146.293 174.769 149.938 175.076 153.446 176.284C156.955 177.493 159.89 179.393 163.139 181.186Z" fill="#FF7000"/>
<path d="M167.259 143.711C163.513 144.729 159.766 145.746 156.019 146.764C152.204 147.8 148.261 148.845 144.348 148.294C151.834 146.148 159.553 144.848 167.259 143.711Z" fill="#FF7000"/>
<path d="M157.764 153.754C157.333 153.933 156.903 154.114 156.471 154.297C155.411 158.893 154.208 163.469 152.469 167.812C153.89 168.576 155.352 169.27 156.829 169.929C157.826 164.606 158.145 159.157 157.764 153.754Z" fill="#FF7000"/>
<path d="M169.777 172.734C169.802 164.771 169.643 156.808 169.31 148.852C169.277 148.866 169.245 148.881 169.211 148.896C168.805 157.12 167.008 165.271 163.906 172.899C165.82 173.612 167.758 174.251 169.712 174.872C169.75 174.16 169.775 173.447 169.777 172.734Z" fill="#FF7000"/>
<path d="M163.609 172.789C164.146 170.648 164.408 168.427 164.536 166.219C164.827 161.241 164.467 156.228 163.48 151.34C163.175 151.471 162.869 151.602 162.564 151.731C161.622 158.078 159.974 164.317 157.672 170.306C158.776 170.789 159.882 171.259 160.976 171.732C161.847 172.109 162.726 172.456 163.609 172.789Z" fill="#FF7000"/>
<path d="M150.762 166.845C151.172 163.496 151.328 160.116 151.221 156.742C150.44 157.151 149.675 157.583 148.928 158.04C148.83 158.921 148.738 159.802 148.627 160.677C148.446 162.104 148.196 163.522 147.914 164.931C148.129 165.096 148.338 165.252 148.526 165.387C149.248 165.908 149.999 166.386 150.762 166.845Z" fill="#FF7000"/>
<path d="M146.524 163.684C146.563 162.364 146.544 161.052 146.442 159.754C145.95 160.204 145.562 160.726 145.508 161.35C145.435 162.199 145.896 162.993 146.524 163.684Z" stroke="#FF7000" stroke-miterlimit="10"/>
<path d="M167.958 184.974C167.4 184.852 166.856 184.704 166.322 184.498C165.286 184.097 164.268 183.65 163.254 183.199C162.143 182.704 161.064 182.109 159.924 181.685C158.81 181.271 157.667 180.931 156.52 180.619C154.498 180.069 152.456 179.595 150.434 179.041C149.294 178.729 147.831 178.197 146.686 178.407C146.656 178.412 146.643 178.42 146.628 178.426C146.617 178.508 146.608 178.53 146.635 178.67C146.744 179.262 147.096 179.826 147.394 180.338C148.397 182.054 149.787 183.567 151.118 185.032C152.434 186.481 153.792 187.894 155.038 189.406C156.392 191.046 157.645 192.774 158.919 194.476C160.076 196.021 161.233 197.568 162.404 199.104C164.861 194.586 166.817 189.849 168.095 185.013C168.049 185.001 168.005 184.984 167.958 184.974Z" fill="#FF7000"/>
<path d="M136.223 192.926C136.819 194.37 137.168 195.869 137.538 197.383C137.835 198.598 138.136 199.81 138.435 201.024C139.717 199.438 140.942 197.806 142.097 196.124C140.471 194.627 138.814 193.158 137.055 191.82C136.377 191.304 135.688 190.798 134.988 190.305C135.432 191.165 135.854 192.035 136.223 192.926Z" fill="#FF7000"/>
<path d="M121.213 209.247C121.035 210.109 120.838 210.962 120.629 211.813C122.292 210.373 123.926 208.9 125.503 207.366C125.168 206.729 124.827 206.096 124.493 205.461C124.291 205.076 124.074 204.698 123.851 204.324C123.752 204.482 123.659 204.644 123.557 204.801C122.907 205.807 122.23 206.797 121.535 207.774C121.424 208.264 121.316 208.755 121.213 209.247Z" fill="#FF7000"/>
<path d="M118.68 218.898C118.673 218.921 118.666 218.943 118.66 218.967C121.689 216.711 124.713 214.443 127.604 212.015C127.386 211.404 127.154 210.795 126.891 210.194C126.852 210.104 126.808 210.018 126.769 209.93C124.274 213.093 121.578 216.097 118.68 218.898Z" fill="#FF7000"/>
<path d="M129.264 218.641C128.349 219.64 127.414 220.619 126.445 221.566C127.443 220.9 128.428 220.206 129.406 219.501C129.362 219.213 129.312 218.927 129.264 218.641Z" fill="#FF7000"/>
<path d="M140.551 210.037C143.167 207.357 145.561 204.483 147.634 201.397C146.162 199.942 144.668 198.511 143.161 197.107C143.152 197.098 143.144 197.09 143.135 197.082C142.024 199.703 140.75 202.25 139.352 204.728C139.785 206.49 140.201 208.256 140.551 210.037Z" fill="#FF7000"/>
<path d="M148.359 202.117C146.328 206.323 143.925 210.347 141.207 214.145C141.29 214.777 141.365 215.41 141.435 216.043C145.016 212.673 148.446 209.152 151.422 205.322C150.427 204.229 149.402 203.165 148.359 202.117Z" fill="#FF7000"/>
<path d="M154.358 208.733C153.776 208.007 153.158 207.308 152.545 206.605C149.542 212.352 145.989 217.811 141.945 222.878C141.954 223.079 141.959 223.282 141.966 223.483C146.722 219.637 151.267 215.034 155.262 209.918C154.964 209.522 154.669 209.121 154.358 208.733Z" fill="#FF7000"/>
</svg>
