<svg width="257" height="221" viewBox="0 0 257 221" fill="none" xmlns="http://www.w3.org/2000/svg">
<path d="M67.6795 47.9078C67.5558 51.3701 66 54.5041 63.5625 56.7076L63.7226 59.0614C80.4681 42.6148 103.42 32.4665 128.745 32.4665C156.535 32.4665 181.469 44.6849 198.477 64.0395L199.019 55.6196C196.573 53.4259 195.006 50.2972 194.869 46.8359C190.732 46.1011 187.604 42.6958 187.173 38.5574C171.22 25.6132 150.89 17.8516 128.744 17.8516C108.596 17.8516 89.9501 24.2743 74.7356 35.1815C75.0861 36.0648 75.3112 37.0149 75.3788 38.0148C75.7088 42.8417 72.3329 47.0636 67.6795 47.9078Z" fill="#D16865"/>
<path d="M197.482 79.5539L198.481 64.0378C181.472 44.6841 156.539 32.4648 128.749 32.4648C103.423 32.4648 80.472 42.6132 63.7266 59.0597L64.7896 74.6674C81.4363 58.8284 103.957 49.1071 128.749 49.1071C155.997 49.1071 180.504 60.8514 197.482 79.5539Z" fill="#E7B259"/>
<path d="M196.507 94.6315L197.478 79.5523C180.499 60.8497 155.994 49.1055 128.744 49.1055C103.953 49.1055 81.4319 58.8268 64.7852 74.6658L65.818 89.8278C82.3588 74.5608 104.46 65.2291 128.744 65.2291C155.481 65.2291 179.572 76.5401 196.507 94.6315Z" fill="#FBE564"/>
<path d="M195.611 108.532L196.506 94.6329C179.571 76.5415 155.479 65.2305 128.743 65.2305C104.458 65.2305 82.3564 74.5622 65.8164 89.8292L66.7683 103.806C83.2006 89.0534 104.921 80.0749 128.743 80.0749C155.011 80.0749 178.727 90.9918 195.611 108.532Z" fill="#C0CB7A"/>
<path d="M128.745 97.7488C156.605 97.7488 180.905 112.924 193.879 135.448L195.612 108.534C178.729 90.9942 155.012 80.0781 128.744 80.0781C104.923 80.0781 83.2019 89.0567 66.7695 103.809L68.4233 128.088C82.1183 109.677 104.038 97.7488 128.745 97.7488Z" fill="#7B9DC4"/>
<path d="M69.9101 149.878L68.4254 128.086L66.7716 103.808L65.8198 89.8306L64.787 74.6685L63.7239 59.0609L63.5638 56.707C61.5587 58.5191 58.9602 59.704 56.0549 59.9015L29.1931 61.7314C26.2877 61.9289 23.5523 61.1078 21.3203 59.5839L27.6666 152.754L69.9101 149.878Z" fill="#92BCB3"/>
<path d="M29.1931 61.7303L56.0549 59.9005C58.9602 59.703 61.5587 58.5181 63.5638 56.706C66.0013 54.5025 67.5571 51.3685 67.6808 47.9062C67.3365 47.9685 66.9878 48.0166 66.6311 48.0406L17.1055 51.4139C16.7488 51.4379 16.3965 51.4379 16.0469 51.4228C16.6384 54.8361 18.6053 57.7308 21.3194 59.5829C23.5523 61.1067 26.2868 61.9278 29.1931 61.7303Z" fill="#C0CB7A"/>
<path d="M15.8238 32.6349L65.3494 29.2616C66.3698 29.1922 67.3608 29.2936 68.301 29.532C68.3856 28.9084 68.4096 28.267 68.3651 27.615C68.3446 27.3099 68.3064 27.0092 68.2575 26.7129C68.2681 26.4452 68.2664 26.1739 68.2477 25.8999L67.0459 8.25859C66.7647 4.13183 63.1913 1.01384 59.0645 1.29495C54.9378 1.57606 51.8198 5.14951 52.1009 9.27627L52.7797 19.2422L47.3221 19.6141L46.6433 9.64811C46.3622 5.52135 42.7888 2.40337 38.662 2.68448C34.5352 2.96559 31.4173 6.53903 31.6984 10.6658L32.3771 20.6318L26.9187 21.0036L26.2399 11.0376C25.9588 6.91088 22.3853 3.7929 18.2586 4.074C14.1318 4.35511 11.0138 7.92856 11.295 12.0553L12.4968 29.6966C12.5155 29.9706 12.551 30.2401 12.5973 30.5043C12.5893 30.8041 12.5928 31.1066 12.6133 31.4117C12.6578 32.0638 12.7681 32.6963 12.9362 33.3021C13.8356 32.9391 14.8043 32.7043 15.8238 32.6349Z" fill="#D16865"/>
<path d="M17.1077 51.4129L66.6333 48.0396C66.9901 48.0156 67.3396 47.9676 67.683 47.9053C72.3364 47.0611 75.7124 42.8392 75.3832 38.0105C75.3147 37.0106 75.0906 36.0606 74.7401 35.1772C73.629 32.3768 71.2236 30.2694 68.3048 29.5301C67.3646 29.2917 66.3736 29.1903 65.3532 29.2597L15.8276 32.633C14.8072 32.7024 13.8394 32.9372 12.94 33.3011C9.26871 34.7858 6.79302 38.4971 7.07679 42.663C7.40594 47.4926 11.3228 51.2172 16.0482 51.4227C16.3987 51.437 16.751 51.4378 17.1077 51.4129Z" fill="#E7B259"/>
<path d="M82.0414 164.19C83.1356 162.531 83.7236 160.519 83.5777 158.382C83.2245 153.196 78.7339 149.278 73.5477 149.631L69.9075 149.88L27.664 152.757L24.0229 153.006C18.8367 153.359 14.919 157.849 15.2721 163.036C15.3104 163.591 15.4047 164.128 15.5328 164.65C16.6572 164.361 17.8297 164.191 19.0448 164.191L82.0414 164.19Z" fill="#C0CB7A"/>
<path d="M233.408 60.5143L206.539 58.7841C203.633 58.5973 201.03 57.4213 199.019 55.6172L198.477 64.0371L197.478 79.5531L196.508 94.6324L195.613 108.531L193.88 135.445L193.02 148.811L235.274 151.532L241.275 58.3384C239.046 59.8694 236.315 60.7011 233.408 60.5143Z" fill="#92BCB3"/>
<path d="M245.459 50.1528L195.922 46.9628C195.565 46.9397 195.215 46.8934 194.871 46.832C195.008 50.2934 196.576 53.4221 199.021 55.6158C201.033 57.4207 203.635 58.5958 206.542 58.7827L233.41 60.5129C236.317 60.6997 239.049 59.868 241.275 58.3361C243.982 56.4742 245.937 53.5724 246.517 50.1573C246.169 50.1751 245.816 50.176 245.459 50.1528Z" fill="#C0CB7A"/>
<path d="M197.13 28.1804L246.667 31.3705C247.687 31.4363 248.656 31.6676 249.557 32.0279C249.723 31.4212 249.831 30.7887 249.874 30.1366C249.893 29.8315 249.896 29.5281 249.886 29.2283C249.932 28.9641 249.966 28.6955 249.984 28.4206L251.12 10.7749C251.386 6.64723 248.255 3.08535 244.127 2.81937C239.999 2.55339 236.437 5.68471 236.171 9.81236L235.529 19.781L230.07 19.4296L230.712 9.46097C230.978 5.33332 227.847 1.77055 223.719 1.50546C219.591 1.23947 216.03 4.37079 215.764 8.49845L215.121 18.4671L209.662 18.1157L210.304 8.14707C210.57 4.01941 207.439 0.457531 203.311 0.191547C199.184 -0.0744377 195.622 3.05689 195.356 7.18454L194.22 24.8303C194.202 25.1042 194.202 25.3756 194.214 25.6442C194.166 25.9405 194.129 26.2402 194.109 26.5454C194.068 27.1974 194.093 27.8388 194.181 28.4624C195.118 28.2196 196.109 28.1146 197.13 28.1804Z" fill="#D16865"/>
<path d="M194.872 46.837C195.217 46.8983 195.566 46.9446 195.923 46.9677L245.46 50.1578C245.817 50.1809 246.169 50.1791 246.519 50.1631C251.242 49.9407 255.147 46.2009 255.457 41.3705C255.726 37.2037 253.237 33.5013 249.559 32.0308C248.659 31.6705 247.689 31.4401 246.669 31.3734L197.132 28.1833C196.112 28.1175 195.121 28.2225 194.181 28.4644C190.346 29.451 187.403 32.8047 187.134 36.9715C187.099 37.5106 187.121 38.0399 187.175 38.5594C187.608 42.6969 190.736 46.1022 194.872 46.837Z" fill="#E7B259"/>
<path d="M193.018 148.813L189.376 148.578C184.189 148.245 179.713 152.178 179.379 157.366C179.212 159.961 180.115 162.38 181.707 164.19H242.655C244.155 164.19 245.598 164.429 246.953 164.863C247.364 163.904 247.63 162.866 247.702 161.765C248.035 156.578 244.101 152.103 238.914 151.768L235.272 151.534L193.018 148.813Z" fill="#C0CB7A"/>
<path d="M89.0251 188.375H19.0471C16.4113 188.375 13.9534 189.112 11.8433 190.372C7.72452 192.831 4.95703 197.32 4.95703 202.465C4.95703 210.246 11.2651 216.554 19.0462 216.554H89.6638C89.2564 215.655 89.0242 214.661 89.0242 213.614L89.0251 188.375Z" fill="#E7B259"/>
<path d="M168.467 188.375V213.673C168.467 214.697 168.246 215.671 167.855 216.554H242.657C250.438 216.554 256.746 210.246 256.746 202.465C256.746 197.32 253.978 192.831 249.86 190.372C247.75 189.112 245.292 188.375 242.656 188.375H168.467Z" fill="#E7B259"/>
<path d="M149.399 213.67V164.291C149.399 162.644 149.966 161.127 150.906 159.911C150.057 159.692 149.172 159.562 148.257 159.562H109.233C108.331 159.562 107.459 159.688 106.621 159.901C107.539 161.109 108.092 162.608 108.092 164.232V213.612C108.092 215.236 107.539 216.735 106.621 217.942C107.459 218.156 108.331 218.281 109.233 218.281H148.257C149.146 218.281 150.006 218.159 150.832 217.952C149.937 216.752 149.399 215.272 149.399 213.67Z" fill="#FBE564"/>
<path d="M108.095 213.611V164.231C108.095 162.606 107.542 161.108 106.624 159.9C105.308 158.17 103.236 157.043 100.908 157.043H96.2152C92.277 157.043 89.0549 160.253 89.03 164.185C89.03 164.201 89.0273 164.216 89.0273 164.231V188.371V213.611C89.0273 214.658 89.2595 215.651 89.667 216.551C90.7967 219.047 93.3089 220.797 96.2152 220.797H100.908C103.236 220.797 105.308 219.67 106.624 217.94C107.541 216.733 108.095 215.235 108.095 213.611Z" fill="#7B9DC4"/>
<path d="M168.465 188.374V164.292C168.465 164.258 168.46 164.224 168.459 164.189C168.403 160.284 165.196 157.105 161.278 157.105H156.585C154.279 157.105 152.223 158.211 150.905 159.914C149.965 161.129 149.398 162.647 149.398 164.293V213.673C149.398 215.276 149.937 216.755 150.832 217.955C152.146 219.712 154.236 220.861 156.585 220.861H161.278C164.207 220.861 166.737 219.083 167.854 216.555C168.244 215.671 168.465 214.698 168.465 213.674V188.374Z" fill="#7B9DC4"/>
<path d="M235.538 147.392C233.774 146.979 232.093 146.281 230.296 145.35C224.513 142.356 218.003 138.775 213.378 134.165C204.807 125.624 203.551 112.372 202.87 100.871C202.075 87.4668 204.129 72.094 206.603 58.7885L206.539 58.7841C203.633 58.5973 201.03 57.4213 199.019 55.6172L198.477 64.0371L197.478 79.5531L196.508 94.6324L195.613 108.531L193.88 135.445L193.02 148.811L235.274 151.532L235.538 147.392Z" fill="#679E92"/>
<path d="M27.6654 152.756L69.9089 149.878L68.4242 128.086L66.7705 103.808L65.8187 89.8306L64.7858 74.6685L63.7228 59.0609L63.5627 56.707C61.5576 58.5191 58.9591 59.704 56.0537 59.9015L54.5735 60.002C54.9124 80.4259 59.2126 101.478 51.8816 121.289C48.696 129.898 43.5694 136.681 36.2517 142.215C33.502 144.295 30.408 145.565 27.25 146.659L27.6654 152.756Z" fill="#679E92"/>
<path d="M74.7384 35.1772C73.6273 32.3768 71.2219 30.2694 68.3032 29.5301C67.3629 29.2917 66.3719 29.1903 65.3515 29.2597L63.3411 29.3967C63.6008 33.2192 64.1693 37.1547 61.2479 40.1277C59.3166 42.0928 56.4157 42.4166 53.883 43.1283C48.0723 44.7607 42.5952 45.7321 36.6323 46.3423C27.9429 47.2319 17.8079 46.1093 9.28125 48.0975C10.935 50.0474 13.3582 51.3062 16.0465 51.4227C16.3952 51.4378 16.7484 51.4378 17.1051 51.4138L66.6307 48.0405C66.9875 48.0165 67.3371 47.9685 67.6804 47.9062C72.3338 47.062 75.7098 42.8401 75.3806 38.0114C75.3139 37.0106 75.0889 36.0606 74.7384 35.1772Z" fill="#DC9143"/>
<path d="M254.374 45.1708C253.894 45.2117 253.392 45.2624 252.882 45.2917C244.474 45.781 236.53 44.6788 228.234 43.8595C220.538 43.1007 211.922 43.55 204.521 41.1347C200.64 39.8689 197.651 38.4962 198.331 33.777C198.545 32.2968 199.656 29.854 200.841 28.4217L197.132 28.1833C196.112 28.1175 195.121 28.2225 194.181 28.4644C190.346 29.451 187.403 32.8047 187.134 36.9715C187.099 37.5106 187.121 38.0399 187.175 38.5594C187.605 42.6977 190.734 46.1031 194.871 46.8378C195.215 46.8992 195.564 46.9455 195.921 46.9686L245.458 50.1587C245.815 50.1818 246.167 50.18 246.517 50.164C249.897 50.0039 252.848 48.0406 254.374 45.1708Z" fill="#DC9143"/>
<path d="M89.024 213.614V188.375H78.7654C75.5442 196.109 70.7458 202.5 62.2245 204.899C53.8135 207.267 45.8109 207.47 37.1962 208.377C29.8367 209.152 22.4576 208.858 15.059 208.064C12.8279 207.825 9.03829 206.827 5.55469 206.522C7.29738 212.324 12.6749 216.554 19.0452 216.554H89.6628C89.2562 215.655 89.024 214.661 89.024 213.614Z" fill="#DC9143"/>
<path d="M242.699 206.671C236.708 207.194 230.227 206.987 224.183 206.706C217.351 206.388 210.064 207.03 203.313 206.2C196.499 205.363 190.669 204.026 185.685 199.102C182.847 196.296 180.609 194.254 179.637 190.274C179.511 189.757 179.456 189.07 179.392 188.375H168.467V213.673C168.467 214.697 168.246 215.671 167.855 216.554H242.657C249.001 216.554 254.364 212.359 256.129 206.593C251.64 206.519 247.129 206.284 242.699 206.671Z" fill="#DC9143"/>
<path d="M249.557 32.0279C249.723 31.4212 249.831 30.7887 249.874 30.1367C249.893 29.8316 249.896 29.5282 249.886 29.2284C249.932 28.9642 249.966 28.6956 249.984 28.4207L250.062 27.2073C243.916 27.1904 237.782 26.2101 231.672 26.1407C224.102 26.0553 214.911 25.4931 208.125 21.8671C202.979 19.1174 200.451 15.4346 200.144 9.54912C200.049 7.73081 199.823 3.88961 200.311 0.613281C197.582 1.58915 195.554 4.10933 195.356 7.18461L194.22 24.8303C194.202 25.1043 194.202 25.3756 194.214 25.6443C194.166 25.9405 194.129 26.2403 194.109 26.5454C194.068 27.1975 194.093 27.8389 194.181 28.4625C195.12 28.2205 196.11 28.1164 197.131 28.1814L246.669 31.3714C247.687 31.4364 248.657 31.6677 249.557 32.0279Z" fill="#C94149"/>
<path d="M68.2615 26.7146C68.2721 26.4468 68.2704 26.1755 68.2517 25.9015L67.0499 8.2602C66.8061 4.68231 64.0867 1.86678 60.6787 1.36328C60.5452 3.45024 60.3229 5.56299 60.4323 7.5939C60.6716 12.0454 61.4926 16.2682 59.0988 20.3487C56.7174 24.4096 52.6956 25.0546 48.4719 26.2235C37.385 29.2926 23.947 29.7453 12.4688 29.2303L12.5008 29.7C12.5195 29.974 12.555 30.2435 12.6013 30.5077C12.5933 30.8075 12.5968 31.11 12.6173 31.4151C12.6618 32.0672 12.7721 32.6996 12.9402 33.3055C13.8396 32.9416 14.8075 32.7076 15.8278 32.6374L65.3534 29.2641C66.3738 29.1947 67.3648 29.2961 68.3051 29.5345C68.3896 28.9109 68.4136 28.2695 68.3691 27.6175C68.3478 27.3106 68.3104 27.0108 68.2615 26.7146Z" fill="#C94149"/>
<path d="M56.2834 48.746C54.5896 52.2848 51.2519 56.4952 49.3331 58.0653C48.2772 58.9291 47.0896 59.783 45.8086 60.5988L56.0539 59.9005C58.9593 59.703 61.5577 58.5181 63.5628 56.706C66.0003 54.5025 67.5562 51.3685 67.6798 47.9062C67.3356 47.9685 66.9868 48.0166 66.6301 48.0406L56.2834 48.746Z" fill="#A2A764"/>
<path d="M194.871 46.832C195.008 50.2934 196.576 53.422 199.021 55.6157C201.033 57.4207 203.635 58.5958 206.542 58.7827L214.695 59.3075C213.929 58.611 213.208 57.8753 212.553 57.0951C210.879 55.0989 207.764 51.2604 206.495 47.6433L195.922 46.9628C195.565 46.9397 195.215 46.8925 194.871 46.832Z" fill="#A2A764"/>
<path d="M82.0419 164.19C83.1361 162.531 83.7241 160.519 83.5782 158.382C83.2251 153.196 78.7345 149.278 73.5482 149.631L69.908 149.88L64.414 150.254C62.0112 156.338 55.874 160.798 49.2422 164.19H82.0419Z" fill="#A2A764"/>
<path d="M205.231 159.399C201.62 157.041 197.99 153.266 195.92 148.996L193.018 148.809L189.376 148.574C184.189 148.241 179.713 152.175 179.379 157.362C179.212 159.957 180.115 162.376 181.707 164.186H212.972C210.092 162.567 207.41 160.821 205.231 159.399Z" fill="#A2A764"/>
<path d="M104.068 157.793C104.35 169.18 105.39 180.779 104.472 192C104.067 196.955 104.549 205.728 101.015 209.617C98.5182 212.365 93.3355 213.115 89.0664 214.373C89.15 215.142 89.3564 215.874 89.6642 216.552C90.794 219.049 93.3061 220.799 96.2124 220.799H100.905C103.233 220.799 105.306 219.672 106.621 217.942C107.539 216.735 108.092 215.237 108.092 213.611V164.232C108.092 162.607 107.539 161.109 106.621 159.901C105.947 159.016 105.073 158.292 104.068 157.793Z" fill="#55789A"/>
<path d="M160.735 211.433C156.941 207.857 155.696 203.53 155.154 198.632C154.348 191.34 153.846 183.907 153.866 176.531C153.88 171.067 155.182 162.753 154.602 157.398C153.12 157.83 151.829 158.719 150.905 159.913C149.965 161.128 149.398 162.646 149.398 164.293V213.672C149.398 215.275 149.937 216.755 150.832 217.954C152.146 219.712 154.236 220.86 156.585 220.86H161.278C164.207 220.86 166.737 219.083 167.854 216.555C168.126 215.939 168.308 215.278 168.399 214.589C165.573 214.254 162.888 213.462 160.735 211.433Z" fill="#55789A"/>
<path d="M152.064 93.6431C139.31 89.9389 126.543 89.2308 113.275 92.0294C103.822 94.0238 93.6827 97.2904 85.6249 102.65C78.6319 107.301 73.1236 113.092 67.8164 119.123L68.4267 128.088C82.1209 109.678 104.04 97.7494 128.747 97.7494C156.607 97.7494 180.908 112.925 193.882 135.449L194.627 123.87C183.763 110.05 168.718 98.4797 152.064 93.6431Z" fill="#55789A"/>
<path d="M198.478 64.0413L199.02 55.6214C198.072 54.771 197.261 53.7782 196.609 52.6823C184.373 42.4975 169.242 34.7216 154.618 30.5611C143.466 27.3888 130.663 26.5206 119.053 27.8736C110.009 28.9278 100.443 31.3279 91.9508 34.7519C84.8555 37.6119 78.6178 41.6532 72.3186 45.6136C71.4842 46.3725 70.5119 46.9854 69.4382 47.4079C68.8368 47.7789 68.2328 48.1454 67.627 48.5101C67.3548 51.7322 65.8576 54.6358 63.5625 56.7103L63.7226 59.0641C80.4681 42.6175 103.42 32.4692 128.745 32.4692C156.536 32.4692 181.469 44.6876 198.478 64.0413Z" fill="#C94149"/>
<path d="M64.788 74.6675C81.4348 58.8285 103.955 49.1072 128.747 49.1072C155.997 49.1072 180.503 60.8514 197.481 79.554L197.94 72.4231C184.22 60.2305 168.368 50.2654 150.009 46.3548C136.51 43.4788 120.891 43.3178 107.569 47.0362C98.5841 49.544 90.0993 52.9973 81.9294 57.5546C76.9797 60.3159 72.1146 62.8663 67.6827 66.4496C66.6366 67.2956 65.5415 68.2928 64.418 69.2411L64.788 74.6675Z" fill="#DC9143"/>
<path d="M109.237 159.562C108.335 159.562 107.463 159.688 106.625 159.901C107.543 161.109 108.095 162.608 108.095 164.232V213.612C108.095 215.236 107.543 216.735 106.625 217.942C107.463 218.156 108.335 218.281 109.237 218.281H111.358C111.371 216.257 111.243 214.177 111.323 212.695C111.624 207.138 111.905 201.519 111.753 195.942C111.421 183.8 111.676 171.709 111.731 159.563H109.237V159.562Z" fill="#EBBB35"/>
<path d="M150.907 159.911C150.057 159.692 149.173 159.562 148.258 159.562H145.102C145.109 161.749 145.267 163.964 145.27 165.992C145.279 174.16 144.407 182.247 144.41 190.405C144.415 199.684 144.723 209.019 145.428 218.28H148.257C149.145 218.28 150.006 218.158 150.832 217.951C149.936 216.752 149.398 215.273 149.398 213.669V164.29C149.4 162.644 149.966 161.126 150.907 159.911Z" fill="#EBBB35"/>
<path d="M126.872 174.123C126.875 184.903 126.877 195.683 126.879 206.462C126.88 210.401 126.881 214.341 126.882 218.28H130.126C130.138 198.836 130.18 179.39 130.131 159.946L130.13 159.562H126.878C126.869 164.416 126.871 169.27 126.872 174.123Z" fill="#EBBB35"/>
<path d="M65.817 89.8318C82.3579 74.5648 104.459 65.2331 128.743 65.2331C155.48 65.2331 179.571 76.5432 196.506 94.6355L197.082 85.6997C179.891 70.4603 158.096 63.373 135.989 60.5424C122.553 58.8219 112.791 59.6492 99.9129 63.9317C92.5961 66.3655 85.8966 69.8714 79.2079 73.8585C75.7616 75.9134 72.1126 78.0324 68.9795 80.4974C67.6264 81.5622 66.542 82.9028 65.4336 84.2087L65.817 89.8318Z" fill="#EBBB35"/>
<path d="M66.7697 103.807C83.202 89.0541 104.923 80.0756 128.744 80.0756C155.013 80.0756 178.728 90.9916 195.612 108.531L196.017 102.243C195.502 101.648 194.956 101.063 194.356 100.497C170.446 77.897 131.923 66.7016 100.314 78.9164C87.7255 83.7816 77.3628 91.4773 66.4414 98.9943L66.7697 103.807Z" fill="#A2A764"/>
<path d="M37.4025 74.3934C37.0814 68.5862 33.7793 63.0192 28.4525 67.4565C26.1093 69.4082 26.3184 74.3658 26.6386 77.0675C26.9891 80.0209 28.5726 83.7856 32.0188 83.7901C36.0246 83.7936 37.6578 79.0183 37.4025 74.3934Z" fill="#B4D6D2"/>
<path d="M234.72 116.324C235.102 110.521 232.497 104.595 226.673 108.356C224.111 110.01 223.72 114.957 223.711 117.678C223.702 120.651 224.819 124.58 228.239 125.001C232.215 125.489 234.414 120.945 234.72 116.324Z" fill="#B4D6D2"/>
<path d="M249.859 165.901C247.749 164.82 245.291 164.188 242.655 164.188H168.465V172.161V185.899V188.373H242.655C250.436 188.373 256.744 182.959 256.744 176.28C256.745 171.864 253.978 168.012 249.859 165.901Z" fill="#D16865"/>
<path d="M242.697 179.891C236.706 180.34 230.225 180.163 224.181 179.921C217.349 179.647 210.063 180.199 203.311 179.487C196.497 178.769 190.667 177.621 185.684 173.394C182.845 170.987 180.608 169.233 179.635 165.817C179.509 165.373 179.455 164.784 179.391 164.188H168.465V172.161V185.899V188.373H242.655C248.999 188.373 254.362 184.772 256.127 179.823C251.638 179.76 247.127 179.559 242.697 179.891Z" fill="#C94149"/>
<path d="M244.062 167.859H238.381C236.055 167.859 233.826 169.905 233.933 172.307C234.041 174.717 235.888 176.755 238.381 176.755H244.062C246.388 176.755 248.618 174.709 248.51 172.307C248.402 169.897 246.556 167.859 244.062 167.859Z" fill="#DD978B"/>
<path d="M7.63145 165.901C9.74153 164.82 12.1994 164.188 14.8353 164.188H89.0254V172.161V185.899V188.373H14.8353C7.05411 188.373 0.746094 182.959 0.746094 176.28C0.745204 171.864 3.51269 168.012 7.63145 165.901Z" fill="#D16865"/>
<path d="M14.7903 179.891C20.7807 180.34 27.2631 180.163 33.306 179.921C40.138 179.647 47.4245 180.199 54.1755 179.487C60.9897 178.769 66.8201 177.621 71.8035 173.394C74.6421 170.987 76.8794 169.233 77.8517 165.817C77.9781 165.373 78.0323 164.784 78.0955 164.188H89.0213V172.161V185.899V188.373H14.8312C8.48669 188.373 3.1243 184.772 1.35938 179.823C5.84909 179.76 10.361 179.559 14.7903 179.891Z" fill="#C94149"/>
<path d="M13.4282 167.859H19.1091C21.4353 167.859 23.6646 169.905 23.557 172.307C23.4493 174.717 21.6026 176.755 19.1091 176.755H13.4282C11.102 176.755 8.87267 174.709 8.98031 172.307C9.08884 169.897 10.9347 167.859 13.4282 167.859Z" fill="#DD978B"/>
</svg>
