<svg width="254" height="257" viewBox="0 0 254 257" fill="none" xmlns="http://www.w3.org/2000/svg">
<path d="M172.635 56.5787C171.223 48.5392 170.112 40.4985 169.081 32.4575L168.705 29.442L168.521 27.9343L168.476 27.5574C168.46 27.4344 168.448 27.2936 168.425 27.2118L168.303 26.6464C167.985 25.1506 167.414 23.7681 166.637 22.558C165.853 21.3534 164.889 20.3033 163.776 19.4989C162.666 18.6954 161.455 18.1003 160.21 17.7655C158.966 17.4301 157.711 17.3168 156.487 17.4347L150.86 17.95L144.828 18.4757C142.818 18.649 140.807 18.8175 138.796 18.9726C130.753 19.6216 122.71 20.1839 114.666 20.6817C110.644 20.9392 106.622 21.1619 102.6 21.384L101.092 21.4682L100.338 21.507L100.15 21.5164L100.057 21.5212L100.022 21.5303L99.8812 21.563C99.7878 21.583 99.6951 21.5997 99.6024 21.6124C99.5097 21.6252 99.4155 21.6276 99.3297 21.6688C99.1558 21.7357 98.9771 21.7642 98.8062 21.8209C98.123 22.0448 97.5243 22.4347 96.9902 22.8746C96.4581 23.3209 96.0125 23.8629 95.688 24.4465C95.3668 25.033 95.152 25.6442 95.0523 26.261C94.9893 26.567 94.9938 26.8836 94.9851 27.1969C94.9957 27.2778 95.0026 27.3575 95.0057 27.4369L95.0072 27.5556L95.006 27.615L95.0047 27.6447L95.0072 27.7253L95.0644 29.2335L95.2586 35.267C95.521 43.3116 95.7046 51.3566 95.8564 59.4019C95.9022 61.413 95.9206 63.4245 95.9509 65.4359L95.9522 65.5302L95.9491 65.6913L95.9413 66.0177L95.9209 66.6706L95.8619 67.9761C95.8485 68.4109 95.7886 68.8453 95.7304 69.2798C95.6725 69.7143 95.6107 70.1481 95.5443 70.5817C95.4356 71.4519 95.1962 72.3014 94.9911 73.1558C94.8757 73.5797 94.7878 74.012 94.6378 74.4256C94.4976 74.8422 94.3533 75.2579 94.2049 75.672C91.8002 82.2981 86.9159 87.895 80.7142 91.2163C79.9292 91.6125 79.1406 92.0067 78.3334 92.3542C77.5136 92.6745 76.6855 92.9793 75.8539 93.2671C75.0086 93.5107 74.1545 93.7322 73.2995 93.9397C72.4411 94.1264 71.5692 94.2451 70.7008 94.3751C70.2661 94.4469 69.8313 94.4766 69.3953 94.502L68.0871 94.5726C67.0497 94.6226 66.7615 94.6011 66.2134 94.6072L63.1961 94.612L51.127 94.5529C47.1038 94.5048 43.0808 94.4787 39.0573 94.4121L27.8684 94.2148C27.2715 94.2121 26.6946 94.3066 26.1287 94.5129C25.5636 94.7144 25.004 95.0207 24.5129 95.4358C24.019 95.8479 23.6003 96.3584 23.2743 96.9231C22.9553 97.493 22.7381 98.1202 22.6384 98.8198L22.6117 98.9507L22.5963 99.0164C22.5938 99.0297 22.5905 99.0334 22.5884 99.0546L22.5851 99.1488L22.5587 99.9032L22.4996 101.412L22.3763 104.43L22.1236 110.465C21.934 114.489 21.7555 118.513 21.5331 122.537C21.3313 126.561 21.0838 130.585 20.8499 134.609C20.5906 138.633 20.3406 142.657 20.0479 146.682C19.9095 148.694 19.764 150.706 19.6068 152.718L19.2253 157.832C19.1963 158.986 19.3826 160.165 19.798 161.311C20.2124 162.456 20.8644 163.553 21.7055 164.532C22.5454 165.514 23.5928 166.352 24.781 167.002L25.2288 167.253C25.3834 167.324 25.543 167.382 25.7009 167.45L26.1784 167.656C26.3362 167.736 26.5077 167.759 26.6731 167.816L27.1767 167.972C27.2612 167.996 27.3451 168.03 27.4312 168.049L27.692 168.097L28.218 168.203L28.4837 168.26C28.5334 168.269 28.561 168.282 28.6291 168.288L28.8179 168.307C32.8426 168.722 36.8677 169.17 40.893 169.642C48.9434 170.602 56.9942 171.644 65.0464 172.989C57.0072 174.41 48.9662 175.527 40.9252 176.561C36.9047 177.071 32.8839 177.556 28.863 178.008L28.6746 178.029C28.617 178.038 28.5192 178.039 28.4431 178.043L27.9553 178.066L26.9743 178.103L26.4816 178.116C26.3174 178.116 26.1538 178.1 25.9893 178.092L25.0004 178.026C24.6714 177.995 24.3354 177.995 24.0097 177.932L23.0244 177.768C22.6956 177.709 22.3639 177.656 22.0364 177.587L21.0653 177.326C18.4703 176.618 15.9877 175.398 13.7754 173.763C11.5621 172.127 9.63733 170.051 8.11942 167.666C6.59757 165.282 5.54532 162.559 4.99542 159.728L4.88453 159.196C4.84818 159.019 4.83424 158.84 4.80909 158.662L4.68123 157.586L4.62276 157.046L4.57641 156.559L4.51187 155.805L4.25403 152.789C4.07801 150.778 3.91379 148.768 3.75685 146.757C3.42661 142.735 3.13939 138.714 2.84277 134.692C2.5713 130.671 2.2865 126.649 2.04715 122.627C1.7872 118.605 1.57148 114.583 1.34455 110.562L1.03581 104.528L0.884326 101.512L0.811005 100.004L0.777677 99.2497L0.773438 99.1555V99.0052L0.775254 98.694L0.783132 98.0714C0.809188 94.7535 1.44908 91.3838 2.68462 88.2407C3.9141 85.0919 5.76529 82.1984 8.05095 79.7065C10.3418 77.2172 13.0925 75.1282 16.158 73.6036C19.2211 72.0796 22.5908 71.121 26.0008 70.7923L27.2809 70.6999C27.6887 70.6738 28.2132 70.6453 28.3865 70.6432L29.8947 70.5947L32.9114 70.5132L38.9452 70.3557C42.9675 70.2518 46.9905 70.1884 51.0128 70.1027L63.081 69.9315L66.098 69.9082C66.5558 69.9033 67.2739 69.9067 67.2402 69.8785C67.3063 69.8703 67.372 69.8661 67.4384 69.8661C67.505 69.8682 67.5726 69.8745 67.6326 69.8482C67.755 69.8085 67.8856 69.8137 68.0083 69.7852C68.1255 69.7361 68.2458 69.7076 68.3712 69.6894C68.4824 69.627 68.5973 69.5819 68.7203 69.5519C68.8321 69.4934 68.9366 69.4216 69.059 69.3849C69.5059 69.1489 69.9234 68.8229 70.2682 68.4336C70.6166 68.0455 70.8769 67.5971 71.0686 67.1332C71.0908 67.0744 71.1171 67.0169 71.1477 66.9605C71.1883 66.9069 71.1747 66.8369 71.1971 66.7778C71.2162 66.6527 71.3028 66.543 71.2944 66.4088C71.3016 66.3446 71.3131 66.2812 71.3292 66.2182C71.3453 66.1555 71.3722 66.0934 71.3607 66.024C71.3598 65.9568 71.3632 65.8898 71.3707 65.8225L71.385 65.7219L71.3944 65.6714L71.3995 65.6444L71.3998 65.5502C71.4113 63.5387 71.4113 61.5272 71.4383 59.5155C71.5152 51.4693 71.624 43.4225 71.8116 35.3761L71.9497 29.3411L71.993 27.8322L72.02 27.2481L72.0564 26.6134L72.146 25.3463C72.3333 23.6609 72.6326 21.9802 73.1222 20.3502C74.0712 17.086 75.6209 14.0123 77.6629 11.347C79.6992 8.67653 82.2082 6.39693 85.0374 4.63451C87.8648 2.87391 91.0233 1.63413 94.2818 1.03242C95.0941 0.882745 95.9164 0.790944 96.7335 0.690355C97.1423 0.632184 97.5516 0.620971 97.9612 0.606428L99.1886 0.5728L99.8012 0.564012L99.9542 0.5625L100.051 0.566134L100.239 0.573711L100.993 0.605522L102.502 0.675811C106.526 0.860627 110.55 1.04605 114.574 1.26601C122.622 1.68897 130.67 2.17646 138.718 2.7506C140.73 2.88694 142.743 3.03661 144.755 3.19113L150.791 3.66074L153.81 3.90646L155.319 4.03007L156.181 4.10975L157.231 4.22367C160.02 4.56816 162.736 5.41013 165.163 6.71717C167.591 8.02028 169.748 9.74179 171.49 11.7772C173.237 13.8062 174.578 16.1388 175.437 18.603C176.303 21.0643 176.687 23.6548 176.594 26.1716L176.556 27.1124C176.551 27.2817 176.534 27.3923 176.521 27.5208L176.48 27.8983L176.309 29.4077L175.961 32.4266C175.008 40.4758 173.972 48.5268 172.635 56.5787Z" fill="#528AC8"/>
<path d="M136.416 115.151C135.311 115.74 134.199 116.297 133.11 116.901C132.01 117.48 130.93 118.092 129.852 118.7C127.703 119.926 125.593 121.197 123.543 122.536C121.485 123.86 119.495 125.266 117.561 126.715C116.59 127.435 115.652 128.193 114.712 128.938C113.792 129.709 112.87 130.47 111.986 131.27C110.204 132.85 108.501 134.494 106.908 136.213C105.326 137.931 103.842 139.669 102.529 141.522L102.029 142.207C101.864 142.436 101.716 142.678 101.559 142.912C101.254 143.386 100.931 143.845 100.633 144.321L99.7708 145.762C99.6229 145.998 99.4878 146.242 99.3593 146.49L98.9648 147.227L98.5704 147.961C98.4443 148.208 98.3298 148.463 98.2086 148.713C97.972 149.216 97.7151 149.704 97.4948 150.213L96.8413 151.74C96.6249 152.248 96.4462 152.777 96.2465 153.291C95.493 155.374 94.8183 157.479 94.3244 159.659C93.8227 161.833 93.3819 164.026 93.0953 166.277L92.9765 167.115L92.8838 167.964L92.6962 169.665C92.5938 170.842 92.469 172.016 92.3839 173.19C92.3105 174.366 92.2024 175.536 92.1603 176.71L92.07 178.467C92.0385 179.052 92.0306 179.639 92.0094 180.225C91.8682 184.911 91.9376 189.596 92.1836 194.361C92.2884 196.736 92.4426 199.146 92.6026 201.562L93.1231 208.9C93.2964 211.364 93.4855 213.853 93.6388 216.356L94.1293 223.595L94.282 225.35L94.3602 226.16L94.4002 226.549L94.4444 226.911C94.5617 227.872 94.7086 228.663 94.8774 229.266C95.0467 229.872 95.2267 230.285 95.4106 230.58C95.4642 230.647 95.5003 230.725 95.5497 230.789C95.6057 230.847 95.6387 230.918 95.6942 230.976C95.7218 231.004 95.7478 231.034 95.7721 231.064C95.7963 231.095 95.8127 231.125 95.8551 231.165C95.9284 231.239 95.9899 231.32 96.0587 231.396C96.6243 231.996 97.359 232.481 98.1441 232.786C98.9309 233.091 99.7505 233.22 100.489 233.155L107.69 232.928L115.117 232.727C125.019 232.457 134.922 232.264 144.825 232.104L152.252 232.003L155.965 231.958L156.413 231.952C156.454 231.942 156.495 231.935 156.536 231.929C156.618 231.918 156.7 231.912 156.782 231.913C156.868 231.928 156.94 231.882 157.019 231.87C157.096 231.853 157.174 231.843 157.253 231.838C157.861 231.698 158.423 231.421 158.929 231.032C159.428 230.642 159.879 230.148 160.133 229.579C160.406 229.018 160.569 228.438 160.595 227.782C160.6 227.742 160.606 227.701 160.614 227.66L160.615 227.216L160.612 226.287L160.609 224.43L160.601 220.717L160.647 205.861L160.775 191.005C160.789 190.336 160.77 189.964 160.835 188.707C160.862 188.177 160.895 187.647 160.934 187.118C160.973 186.59 161.072 186.062 161.148 185.535C161.232 185.009 161.315 184.482 161.418 183.959C161.543 183.44 161.675 182.923 161.813 182.407C162.063 181.367 162.443 180.369 162.822 179.372C162.919 179.123 163.012 178.874 163.115 178.628L163.456 177.906C163.686 177.425 163.921 176.948 164.162 176.474C164.277 176.234 164.412 176.006 164.55 175.778L164.962 175.097C165.241 174.646 165.518 174.192 165.817 173.755C166.129 173.328 166.448 172.904 166.77 172.485C167.094 172.066 167.411 171.643 167.775 171.259C168.49 170.48 169.189 169.686 169.991 168.998C173.102 166.151 176.85 164.001 180.89 162.771C181.909 162.504 182.93 162.224 183.964 162.044C184.483 161.963 185.003 161.888 185.523 161.819L186.303 161.72C186.563 161.693 186.824 161.686 187.084 161.671C187.605 161.645 188.126 161.625 188.647 161.611L189.037 161.601L189.232 161.598L189.357 161.6L189.821 161.61L191.678 161.652C196.63 161.754 201.583 161.897 206.535 162.033C211.488 162.173 216.44 162.341 221.393 162.508L225.107 162.646L226.965 162.716L227.893 162.75L228.125 162.759L228.239 162.763L228.285 162.762L228.47 162.763C229.461 162.819 230.445 162.691 231.405 162.324L231.498 162.296L231.582 162.251L231.754 162.164C231.87 162.107 231.992 162.059 232.112 162.006C232.219 161.933 232.329 161.864 232.443 161.797C232.554 161.728 232.685 161.681 232.78 161.588C232.978 161.416 233.229 161.294 233.409 161.095C233.508 161.005 233.611 160.918 233.719 160.833C233.82 160.742 233.897 160.632 233.994 160.536C234.729 159.742 235.337 158.787 235.65 157.7C235.68 157.562 235.717 157.425 235.757 157.287L235.822 157.08C235.847 157.011 235.843 156.937 235.857 156.865C235.876 156.721 235.9 156.576 235.929 156.431L235.951 156.321C235.958 156.277 235.969 156.271 235.971 156.175L235.995 155.711L236.186 151.996L236.593 144.566C237.154 134.66 237.788 124.754 238.516 114.847C238.883 109.893 239.267 104.94 239.682 99.9859L239.76 99.057L239.779 98.8249C239.786 98.7492 239.794 98.6613 239.795 98.6156L239.814 98.2811L239.862 97.6051L239.875 97.4345L239.866 97.2664L239.852 96.9286C239.844 96.7025 239.837 96.4744 239.835 96.2441L239.744 95.5664C239.707 95.341 239.704 95.1031 239.644 94.8817L239.483 94.206L239.406 93.8627C239.375 93.75 239.33 93.6428 239.293 93.5319L239.065 92.8632C239.002 92.6311 238.879 92.4294 238.786 92.21L238.494 91.5519L238.133 90.9281C238.006 90.723 237.908 90.4924 237.755 90.3049L237.33 89.7077C237.257 89.6086 237.192 89.5017 237.114 89.4072L236.87 89.1306C235.601 87.6148 233.961 86.3435 232.066 85.4615C231.828 85.3558 231.582 85.2712 231.339 85.1722C231.093 85.0825 230.851 84.964 230.597 84.8931L229.83 84.681C229.572 84.6092 229.315 84.522 229.049 84.4898L228.25 84.3499L227.843 84.2787L227.378 84.229L225.52 84.0269C220.566 83.4652 215.612 82.9122 210.657 82.2224C215.605 81.4867 220.554 80.8878 225.503 80.2797L227.359 80.0603L227.822 80.0064L228.343 79.9749L229.399 79.92C229.754 79.8897 230.106 79.9164 230.462 79.9331L231.532 79.9925C231.889 80.0158 232.239 80.09 232.596 80.1388C232.95 80.1973 233.31 80.2445 233.664 80.3169C236.493 80.9274 239.225 82.216 241.585 84.0657L242.031 84.4105C242.177 84.5289 242.31 84.661 242.45 84.7865L243.28 85.5575C243.567 85.8078 243.799 86.1065 244.058 86.385L244.814 87.2439L245.494 88.1683C245.712 88.4834 245.958 88.7845 246.142 89.1224L246.727 90.1228C246.822 90.2916 246.925 90.4573 247.012 90.63L247.258 91.1572L247.744 92.2221C247.909 92.5778 248.013 92.9541 248.149 93.3228C248.275 93.694 248.406 94.0663 248.522 94.4426L248.794 95.5924L248.924 96.1717L248.988 96.4623L249.028 96.755L249.178 97.9332L249.248 98.5259L249.296 99.0125L249.383 99.9405C249.844 104.89 250.273 109.84 250.686 114.79C251.506 124.689 252.232 134.59 252.885 144.49L253.361 151.916L253.587 155.628L253.616 156.092C253.622 156.151 253.62 156.299 253.622 156.41L253.622 156.764C253.623 157.236 253.618 157.71 253.609 158.184C253.601 158.421 253.608 158.659 253.583 158.896L253.512 159.607C253.462 160.081 253.409 160.556 253.348 161.031C252.208 168.634 247.419 175.66 240.552 179.53C237.131 181.47 233.22 182.656 229.266 182.906L228.524 182.958L228.22 182.975L227.988 182.986L227.059 183.029L225.203 183.116L221.49 183.288C216.539 183.501 211.588 183.715 206.637 183.901C201.686 184.083 196.735 184.273 191.784 184.42L189.928 184.48L189.463 184.495L189.356 184.499L189.319 184.508L189.246 184.524C189.149 184.544 189.052 184.558 188.954 184.566C188.906 184.573 188.856 184.567 188.81 184.579C188.764 184.596 188.718 184.611 188.673 184.624C188.581 184.651 188.49 184.672 188.398 184.687C188.375 184.692 188.351 184.693 188.328 184.699L188.264 184.729C188.221 184.749 188.178 184.767 188.135 184.783C188.048 184.815 187.96 184.84 187.87 184.86C187.194 185.146 186.583 185.581 186.085 186.119C185.937 186.23 185.861 186.41 185.735 186.539C185.665 186.599 185.634 186.689 185.587 186.766C185.541 186.844 185.491 186.918 185.435 186.988C185.394 187.068 185.367 187.155 185.322 187.231C185.301 187.269 185.28 187.308 185.256 187.345C185.231 187.381 185.206 187.418 185.198 187.463C185.173 187.548 185.143 187.629 185.106 187.708C185.088 187.747 185.069 187.786 185.048 187.824C185.036 187.866 185.031 187.91 185.021 187.952C184.984 188.12 184.9 188.273 184.898 188.449C184.884 188.533 184.865 188.616 184.839 188.697C184.835 188.784 184.839 188.872 184.829 188.957C184.828 189.043 184.792 189.124 184.802 189.213C184.813 189.303 184.817 189.391 184.815 189.479C184.796 189.458 184.819 190.325 184.832 190.894L185.098 205.748L185.282 220.603L185.308 224.316L185.322 226.173L185.328 227.101L185.331 227.586L185.307 228.391C185.21 232.684 184.13 237.017 182.157 240.869C180.198 244.735 177.33 248.087 173.898 250.695C170.465 253.296 166.429 255.164 162.178 256.003C161.646 256.095 161.113 256.181 160.579 256.26C160.044 256.333 159.51 256.429 158.975 256.449C158.439 256.484 157.903 256.513 157.367 256.535L156.563 256.564H156.082L152.368 256.554L144.94 256.522C135.036 256.454 125.132 256.354 115.228 256.175L107.799 256.043L100.146 255.865C98.0414 255.8 95.9566 255.5 93.949 254.968C91.9403 254.437 90.01 253.673 88.1885 252.72C84.5486 250.811 81.3361 248.11 78.8581 244.8C78.5505 244.386 78.2591 243.958 77.9667 243.532C77.6752 243.109 77.3938 242.621 77.1187 242.162C76.8436 241.696 76.6042 241.21 76.3558 240.73C76.1152 240.247 75.9071 239.756 75.6916 239.265C74.8682 237.296 74.3504 235.318 74.0292 233.499C73.7075 231.674 73.5729 230.001 73.5039 228.493L73.4796 227.93L73.4645 227.392C73.4533 227.026 73.4472 226.688 73.4445 226.348L73.4375 224.392L73.5535 216.781L73.7147 209.386C73.8096 204.424 73.9559 199.363 74.2504 194.219C74.4007 191.652 74.6164 189.058 74.8645 186.467C75.0099 185.168 75.1305 183.873 75.3132 182.575L75.5708 180.631C75.6574 179.983 75.765 179.337 75.8616 178.69C76.2425 176.102 76.7327 173.53 77.262 170.978C77.5253 169.701 77.8282 168.435 78.1103 167.167C78.2603 166.525 78.4342 165.864 78.5987 165.216L78.849 164.24L79.1292 163.264C79.8509 160.667 80.7302 158.079 81.7512 155.543C82.7583 153.003 83.9563 150.513 85.3027 148.114C86.6394 145.709 88.1661 143.402 89.8437 141.234L90.4751 140.423C90.6827 140.151 90.8963 139.884 91.1229 139.627L92.4554 138.072C92.9101 137.565 93.3831 137.075 93.8494 136.581C94.0854 136.337 94.3129 136.086 94.5553 135.849L95.2879 135.146C95.7814 134.684 96.2514 134.199 96.7628 133.761L98.2804 132.437C98.7849 131.996 99.3242 131.599 99.8432 131.181C100.366 130.766 100.888 130.355 101.424 129.977C103.531 128.406 105.735 126.997 107.971 125.684C110.21 124.376 112.494 123.178 114.824 122.112C117.15 121.037 119.503 120.057 121.891 119.2C126.661 117.478 131.51 116.122 136.416 115.151Z" fill="#528AC8"/>
<path d="M72.2395 146.381C71.9507 145.572 71.6744 144.756 71.419 143.932C71.16 143.109 70.9385 142.277 70.7055 141.44C70.5937 141.021 70.491 140.601 70.3913 140.178C70.288 139.756 70.1914 139.332 70.105 138.906L69.8363 137.625L69.6003 136.333C68.9961 132.878 68.7383 129.32 68.8249 125.689C68.9058 123.878 69.0249 122.041 69.3252 120.208C69.4457 119.286 69.636 118.37 69.8254 117.449C69.9102 116.986 70.0435 116.533 70.1553 116.073C70.2762 115.615 70.3819 115.151 70.5189 114.695C71.5905 111.04 73.1987 107.427 75.3698 104.084L76.2239 102.858C76.5121 102.45 76.7944 102.034 77.1135 101.65C77.7397 100.873 78.3487 100.065 79.038 99.3381L80.0587 98.2249C80.4071 97.8619 80.775 97.5238 81.1352 97.1721C81.4994 96.8264 81.859 96.4692 82.2329 96.1332L83.3784 95.1576C86.4646 92.582 89.8752 90.4475 93.4121 88.7378C93.8542 88.5242 94.2962 88.2955 94.7419 88.0955L96.085 87.5177L97.4369 86.9502C97.8865 86.7682 98.3267 86.6191 98.7733 86.4521C99.665 86.134 100.555 85.7859 101.456 85.4993L102.809 85.0527C103.257 84.8997 103.728 84.7833 104.188 84.6473L105.578 84.2559L106.959 83.9105C107.885 83.6699 108.796 83.476 109.712 83.2745C111.542 82.8813 113.346 82.5716 115.138 82.2741C122.276 81.1425 129.045 80.6017 135.159 79.6945C135.913 79.5755 136.673 79.4606 137.406 79.3325L139.53 78.9129C139.883 78.8411 140.239 78.7941 140.59 78.7035L141.643 78.4514C142.344 78.2763 143.048 78.1372 143.744 77.9388C145.133 77.5313 146.525 77.168 147.898 76.6929L148.93 76.3585L149.446 76.19L149.957 75.9979L151.999 75.2362C162.853 70.9997 173.064 64.4093 182.682 56.5498L182.832 56.4274C188.083 52.1364 195.818 52.9147 200.109 58.1659C201.65 60.0522 202.535 62.2482 202.796 64.5008L202.889 65.2968L202.963 65.9894L203.095 67.3322C203.177 68.2178 203.249 69.0928 203.315 69.9644C203.449 71.7065 203.539 73.4381 203.604 75.1678C203.735 78.6262 203.783 82.0781 203.693 85.5375C203.614 88.9962 203.44 92.4608 203.12 95.9314C202.967 97.6662 202.784 99.4041 202.568 101.142C202.35 102.879 202.085 104.619 201.804 106.359C200.653 113.316 198.904 120.294 196.272 127.16C194.913 130.581 193.389 133.987 191.49 137.278C189.629 140.578 187.422 143.773 184.873 146.75C183.603 148.243 182.213 149.659 180.766 151.014C180.016 151.673 179.291 152.346 178.503 152.965C178.111 153.276 177.734 153.598 177.331 153.896L176.119 154.781L175.814 155.001L175.48 155.226L174.812 155.673C174.368 155.967 173.906 156.286 173.516 156.482L171.075 157.821C170.256 158.283 169.457 158.642 168.654 159.031C167.85 159.411 167.056 159.807 166.247 160.167C159.766 163.024 153.057 165.094 146.266 166.389C139.469 167.656 132.585 168.116 125.819 167.763C119.056 167.391 112.397 166.217 106.154 164.046C112.742 163.525 119.091 162.531 125.205 160.987C131.316 159.457 137.189 157.424 142.766 154.929C148.333 152.408 153.606 149.446 158.471 146.096C159.079 145.678 159.665 145.23 160.261 144.802C160.85 144.369 161.466 143.942 161.988 143.5L163.62 142.207C163.925 141.987 164.089 141.793 164.289 141.598L164.584 141.308L164.731 141.164L164.891 140.996C165.763 140.109 166.586 139.167 167.369 138.19C168.134 137.186 168.863 136.155 169.548 135.072C172.26 130.723 174.276 125.669 175.725 120.265C177.185 114.856 178.101 109.12 178.671 103.263C178.806 101.796 178.931 100.326 179.016 98.8439C179.111 97.3639 179.196 95.8793 179.246 94.3871C179.303 92.8962 179.329 91.4001 179.346 89.9006C179.366 88.4015 179.37 86.8999 179.346 85.3957C179.291 82.3886 179.203 79.3728 179.018 76.3721C178.924 74.8727 178.812 73.3766 178.695 71.8953C178.634 71.1551 178.567 70.4195 178.495 69.6957L178.382 68.6259L178.272 67.7051L198.386 75.6562C192.783 80.2475 186.823 84.5537 180.371 88.2855C178.784 89.2495 177.107 90.0982 175.463 90.9853C174.631 91.4158 173.779 91.8209 172.938 92.2381L171.672 92.858L170.381 93.4415L167.785 94.578L165.138 95.6263C164.694 95.7963 164.261 95.9823 163.809 96.1383L162.461 96.6128C161.559 96.9233 160.67 97.2563 159.752 97.5296L157.003 98.3488L156.316 98.5518L155.619 98.7312L154.224 99.0839C153.291 99.3087 152.373 99.5744 151.423 99.7462L148.595 100.307C147.653 100.489 146.694 100.609 145.745 100.761L144.318 100.974C143.844 101.051 143.361 101.083 142.883 101.139L140.01 101.417C139.073 101.489 138.159 101.538 137.24 101.592C129.956 101.943 123.256 101.687 116.996 101.822C116.224 101.846 115.439 101.858 114.676 101.892C113.921 101.932 113.141 101.954 112.402 102.008C111.654 102.055 110.899 102.093 110.173 102.168L109.07 102.265L107.991 102.395C107.274 102.471 106.544 102.588 105.812 102.699C105.076 102.798 104.36 102.953 103.629 103.077C103.269 103.146 102.892 103.202 102.542 103.279L101.504 103.52L100.458 103.751C100.112 103.833 99.7804 103.938 99.4389 104.029C93.9872 105.511 89.0453 107.981 84.9503 111.79L84.2056 112.528C83.9601 112.779 83.6932 113.016 83.4687 113.287C83.0043 113.819 82.5107 114.337 82.0784 114.91L81.4024 115.756L80.7716 116.645L80.4523 117.093C80.349 117.244 80.256 117.402 80.1566 117.557L79.5579 118.493C78.0145 121.036 76.7523 123.865 75.7204 126.863C73.6983 132.886 72.7003 139.537 72.2395 146.381Z" fill="#7CC7B9"/>
</svg>
