<svg width="257" height="193" viewBox="0 0 257 193" fill="none" xmlns="http://www.w3.org/2000/svg">
<path d="M12.7007 142.929H9.90014C4.84475 142.929 0.746094 138.83 0.746094 133.775V88.3298C0.746094 83.2744 4.84475 79.1758 9.90014 79.1758H12.7007C17.7561 79.1758 21.8547 83.2744 21.8547 88.3298V133.775C21.857 138.83 17.7584 142.929 12.7007 142.929Z" fill="#FBCD5A"/>
<path d="M91.9213 16.2656L91.7842 19.1335L91.1642 32.2585L88.4937 88.6945H69.4588L66.7767 31.8869L66.3053 21.9271L66.0312 16.2656H91.9213Z" fill="#02A4B3"/>
<path d="M245.261 67.375V155.537H21.7528C14.215 155.537 8.09375 149.427 8.09375 141.878V81.034C8.09375 73.4962 14.215 67.375 21.7528 67.375H245.261Z" fill="#02C5D6"/>
<path d="M151.151 67.2734H138.355V155.551H151.151V67.2734Z" fill="#02A4B3"/>
<path d="M245.263 14.9062H140.574V155.542H245.263V14.9062Z" fill="#02C5D6"/>
<path d="M239.592 37.3672H194.855V52.682H239.592V37.3672Z" fill="#FBCD5A"/>
<path d="M190.928 37.3672H146.191V52.682H190.928V37.3672Z" fill="#FBCD5A"/>
<path opacity="0.5" d="M245.263 26.6963V44.526C227.928 42.0552 210.532 39.8816 193.037 39.3614C185.873 39.1385 178.684 39.2128 171.517 39.6471C160.975 40.2927 150.78 41.9948 140.574 44.3286V29.2414C142.028 27.9247 143.591 26.7195 145.23 25.6397C152.32 21.0069 160.763 18.91 169.146 17.6189C186.233 14.9739 203.728 15.3826 220.801 18.1529C228.947 19.4812 237.217 21.4319 244.146 25.9253C244.52 26.1761 244.903 26.4246 245.263 26.6963Z" fill="#027C87"/>
<path d="M256.747 30.7292V32.6032H125.746V30.7292C125.746 23.6884 128.131 17.2188 132.153 12.0659C137.717 4.91355 146.395 0.320312 156.155 0.320312H226.336C233.748 0.320312 240.541 2.96524 245.805 7.36113C252.502 12.9483 256.747 21.343 256.747 30.7292Z" fill="#FF4364"/>
<path d="M256.747 30.7275V32.6015H125.746V30.7275C125.746 23.6866 128.131 17.217 132.153 12.0641C133.718 15.1062 135.94 17.6281 138.957 19.379C144.37 22.5325 150.854 23.1665 157.112 23.5264C179.96 24.8431 202.856 23.6262 225.716 22.421C229.529 22.2236 233.414 21.9984 236.99 20.6446C240.555 19.2792 243.82 16.5715 244.862 12.8838C245.345 11.1701 245.434 9.14746 245.805 7.35938C252.502 12.9465 256.747 21.3412 256.747 30.7275Z" fill="#BA3149"/>
<path d="M156.193 4.85374C154.433 5.19278 152.64 5.58523 151.126 6.54662C149.612 7.50568 148.416 9.15446 148.479 10.9449C148.539 12.6772 149.765 14.2029 151.263 15.076C152.761 15.9491 154.505 16.2812 156.216 16.5576C167.609 18.3967 179.25 18.4199 190.731 17.2356C195.338 16.7596 202.646 14.9901 202.328 8.87114C202.114 4.73998 197.686 3.86686 194.312 3.34901C181.879 1.43785 168.478 2.48743 156.193 4.85374Z" fill="#FF637F"/>
<path d="M212.488 6.24057C211.419 6.92329 210.418 7.77089 209.812 8.88321C209.206 9.99554 209.048 11.4074 209.645 12.5267C210.681 14.4727 213.314 14.7374 215.52 14.7583C218.247 14.7839 220.973 14.8094 223.699 14.8349C225.404 14.8512 227.15 14.8605 228.752 14.2753C230.354 13.6901 231.803 12.3781 232.047 10.6922C232.321 8.80656 231.009 6.97901 229.349 6.04781C224.461 3.30764 217.215 3.22173 212.488 6.24057Z" fill="#FF637F"/>
<path d="M91.7798 19.1328L91.1597 32.2578C85.77 31.6122 80.3453 31.3266 74.93 31.4125C72.8679 31.438 69.726 31.9722 66.7722 31.8839L66.3008 21.9241C74.447 19.6553 87.3723 19.2814 91.7798 19.1328Z" fill="#028A96"/>
<path d="M94.4118 5.41016L94.3724 6.09289L93.3808 27.1156H64.5857L63.8519 11.5825L63.5547 5.41016H94.4118Z" fill="#FF4364"/>
<path d="M94.3642 6.08984L93.3703 27.1125H64.5752L63.8438 11.5794C64.141 12.2738 64.4777 12.8961 64.8748 13.4047C66.9741 16.0497 69.8536 18.0862 73.1325 18.9686C80.1222 20.831 88.1825 17.2177 91.4591 10.7597C92.2789 9.1458 93.0614 7.18359 94.3642 6.08984Z" fill="#BA3149"/>
<path d="M75.513 7.59838C73.2628 8.09765 70.6735 9.41897 70.6294 11.7226C70.6039 13.0509 71.5258 14.263 72.6845 14.9132C73.8456 15.5611 75.2087 15.7376 76.537 15.7887C78.7849 15.877 81.0444 15.6494 83.2296 15.1107C86.1834 14.3838 89.7874 11.4927 87.0008 8.47153C84.6183 5.88462 78.3878 6.95978 75.513 7.59838Z" fill="#FF637F"/>
<path opacity="0.65" d="M72.9028 57.2477C72.8842 58.6131 72.8958 60.0204 73.5553 61.286C74.2148 62.5516 75.6801 63.6523 77.4195 63.6988C79.0984 63.7429 80.6171 62.7954 81.4252 61.6389C82.2333 60.4825 82.4725 59.1403 82.7001 57.8329C83.1877 55.0068 86.7151 33.1829 79.0171 35.4772C75.989 36.3783 74.4865 41.5846 73.964 43.6978C72.8796 48.0797 72.9655 52.7961 72.9028 57.2477Z" fill="#02C5D6"/>
<path opacity="0.26" d="M245.261 79.6367V155.53H21.7528C14.215 155.53 8.09375 149.421 8.09375 141.871V108.183C10.4415 109.86 12.9494 111.337 15.5805 112.616C26.843 118.092 39.5082 119.968 51.9992 120.923C118.372 125.953 184.094 106.495 245.261 79.6367Z" fill="#027C87"/>
<path d="M59.0268 73.8411C48.9346 74.0733 38.2967 74.4611 29.7208 79.7858C24.0524 83.3063 19.4568 89.9245 21.1357 96.3825C22.6684 102.281 28.6689 105.771 34.3443 107.996C54.4498 115.884 76.9238 116.017 98.1671 112.125C104.936 110.885 111.764 109.196 117.608 105.567C123.453 101.937 128.244 96.0667 129.094 89.2395C129.781 83.7243 127.438 78.1325 123.073 74.7351C118.18 70.9291 111.176 72.6359 105.359 72.7705C89.9118 73.1282 74.4693 73.4834 59.0268 73.8411Z" fill="#02DAED"/>
<path d="M177.812 56.2896C170.621 56.84 162.904 57.9964 157.721 63.0123C151.632 68.906 151.142 79.6322 156.671 86.0577C162.087 92.3508 171.215 93.765 179.517 93.8602C191.91 94.0019 204.325 92.1325 216.124 88.345C224.307 85.7187 232.655 81.7918 237.277 74.5466C239.838 70.5269 240.969 64.7261 238.668 60.3349C235.769 54.8081 227.075 56.4847 221.688 56.2246C207.077 55.521 192.414 55.1726 177.812 56.2896Z" fill="#02DAED"/>
<path opacity="0.5" d="M245.261 112.497V155.534H21.7528C14.215 155.534 8.09375 149.424 8.09375 141.874V127.581C8.33061 127.73 8.56514 127.879 8.78807 128.016C14.0664 131.095 19.851 133.243 25.7865 134.634C36.9747 137.228 48.5972 137.228 60.0711 136.819C104.09 135.268 147.898 127.99 190.041 115.225C202.544 111.438 215.26 107.13 228.299 107.824C234.123 108.152 240.084 109.728 245.261 112.497Z" fill="#027C87"/>
<path d="M77.8663 192.163C95.0147 192.163 108.916 178.645 108.916 161.97C108.916 145.295 95.0147 131.777 77.8663 131.777C60.7179 131.777 46.8164 145.295 46.8164 161.97C46.8164 178.645 60.7179 192.163 77.8663 192.163Z" fill="#1A3140"/>
<path d="M92.7063 161.975C92.7063 169.947 86.0602 176.41 77.8629 176.41C69.6656 176.41 63.0195 169.947 63.0195 161.975C63.0195 154.003 69.6656 147.543 77.8629 147.543C86.0602 147.543 92.7063 154.006 92.7063 161.975Z" fill="#C7D2CE"/>
<path d="M84.2435 161.934C84.2435 165.283 81.4523 167.998 78.0085 167.998C74.5647 167.998 71.7734 165.283 71.7734 161.934C71.7734 158.586 74.5647 155.871 78.0085 155.871C81.45 155.871 84.2435 158.586 84.2435 161.934Z" fill="#8A918F"/>
<path d="M66.7759 160.476C68.1149 160.476 69.2003 159.42 69.2003 158.119C69.2003 156.817 68.1149 155.762 66.7759 155.762C65.437 155.762 64.3516 156.817 64.3516 158.119C64.3516 159.42 65.437 160.476 66.7759 160.476Z" fill="#8A918F"/>
<path d="M91.0792 166.572C91.0792 167.875 89.9947 168.929 88.6548 168.929C87.3149 168.929 86.2305 167.875 86.2305 166.572C86.2305 165.269 87.3149 164.215 88.6548 164.215C89.9924 164.215 91.0792 165.271 91.0792 166.572Z" fill="#8A918F"/>
<path d="M73.6978 175.097C75.0367 175.097 76.1221 174.042 76.1221 172.74C76.1221 171.438 75.0367 170.383 73.6978 170.383C72.3588 170.383 71.2734 171.438 71.2734 172.74C71.2734 174.042 72.3588 175.097 73.6978 175.097Z" fill="#8A918F"/>
<path d="M82.397 153.827C83.736 153.827 84.8214 152.772 84.8214 151.47C84.8214 150.169 83.736 149.113 82.397 149.113C81.0581 149.113 79.9727 150.169 79.9727 151.47C79.9727 152.772 81.0581 153.827 82.397 153.827Z" fill="#8A918F"/>
<path opacity="0.1" d="M59.0923 142.534C63.7576 138.519 69.9439 136.359 76.1627 135.987C80.2543 135.744 84.7617 136.415 87.5437 139.343C88.4958 140.344 89.1692 141.974 88.2543 143.007C87.8781 143.432 87.3138 143.646 86.7681 143.82C79.7319 146.075 72.8791 142.253 66.2098 146.423C62.0275 149.038 59.2804 153.701 59.0737 158.533C59.0064 160.136 59.1062 161.979 57.894 163.066C56.524 164.295 54.1646 163.721 52.9385 162.356C47.5093 156.32 54.2598 146.693 59.0923 142.534Z" fill="white"/>
<path d="M97.1456 160.777C96.8205 162.802 96.7067 164.818 96.5233 165.87C95.4063 172.311 90.7968 178.08 84.6546 180.727C80.8044 182.385 76.4178 182.789 72.296 181.986C70.1595 181.568 63.1582 176.645 61.7579 178.609C61.4003 179.111 61.3794 179.773 61.4862 180.376C61.8856 182.664 63.8177 184.403 65.8403 185.636C70.5195 188.49 76.3133 189.568 81.7449 188.595C92.2203 186.718 100.03 177.734 103.861 168.069C105.166 164.778 107.027 158.056 103.039 155.571C99.1079 153.121 97.7564 156.969 97.1456 160.777Z" fill="#142530"/>
<path d="M77.9836 164.854C79.7047 164.854 81.0999 163.497 81.0999 161.823C81.0999 160.15 79.7047 158.793 77.9836 158.793C76.2625 158.793 74.8672 160.15 74.8672 161.823C74.8672 163.497 76.2625 164.854 77.9836 164.854Z" fill="#142530"/>
<path d="M192.716 192.165C219.123 192.165 240.53 171.349 240.53 145.671C240.53 119.992 219.123 99.1758 192.716 99.1758C166.309 99.1758 144.902 119.992 144.902 145.671C144.902 171.349 166.309 192.165 192.716 192.165Z" fill="#1A3140"/>
<path d="M192.722 167.9C205.345 167.9 215.577 157.95 215.577 145.675C215.577 133.4 205.345 123.449 192.722 123.449C180.1 123.449 169.867 133.4 169.867 145.675C169.867 157.95 180.1 167.9 192.722 167.9Z" fill="#C7D2CE"/>
<path d="M202.552 145.615C202.552 150.772 198.254 154.952 192.95 154.952C187.646 154.952 183.348 150.772 183.348 145.615C183.348 140.457 187.648 136.277 192.95 136.277C198.251 136.275 202.552 140.457 202.552 145.615Z" fill="#8A918F"/>
<path d="M179.392 139.743C179.392 141.747 177.72 143.372 175.66 143.372C173.598 143.372 171.926 141.747 171.926 139.743C171.926 137.739 173.598 136.113 175.66 136.113C177.722 136.111 179.392 137.737 179.392 139.743Z" fill="#8A918F"/>
<path d="M213.071 152.751C213.071 154.755 211.399 156.38 209.34 156.38C207.277 156.38 205.605 154.755 205.605 152.751C205.605 150.747 207.277 149.121 209.34 149.121C211.399 149.121 213.071 150.747 213.071 152.751Z" fill="#8A918F"/>
<path d="M186.314 158.629C188.376 158.629 190.048 160.254 190.048 162.258C190.048 164.262 188.376 165.888 186.314 165.888C184.252 165.888 182.582 164.262 182.582 162.258C182.582 160.254 184.252 158.629 186.314 158.629Z" fill="#8A918F"/>
<path d="M199.697 125.871C201.759 125.871 203.428 127.497 203.428 129.501C203.428 131.505 201.756 133.13 199.697 133.13C197.634 133.13 195.965 131.505 195.965 129.501C195.965 127.497 197.634 125.871 199.697 125.871Z" fill="#8A918F"/>
<path opacity="0.1" d="M163.818 115.734C171.003 109.55 180.529 106.227 190.105 105.653C196.408 105.277 203.346 106.31 207.631 110.82C209.096 112.362 210.134 114.87 208.725 116.463C208.146 117.115 207.278 117.445 206.435 117.714C195.6 121.186 185.045 115.299 174.777 121.723C168.337 125.749 164.104 132.929 163.788 140.37C163.684 142.838 163.839 145.676 161.972 147.35C159.864 149.24 156.229 148.356 154.341 146.256C145.982 136.963 156.376 122.141 163.818 115.734Z" fill="white"/>
<path d="M222.421 143.829C221.921 146.947 221.745 150.05 221.464 151.668C219.743 161.589 212.647 170.473 203.188 174.546C197.258 177.101 190.505 177.721 184.158 176.483C180.868 175.842 170.088 168.258 167.931 171.286C167.38 172.059 167.35 173.079 167.51 174.005C168.128 177.528 171.1 180.208 174.214 182.105C181.42 186.499 190.342 188.159 198.707 186.661C214.839 183.773 226.863 169.937 232.764 155.054C234.772 149.987 237.638 139.635 231.496 135.81C225.44 132.039 223.359 137.963 222.421 143.829Z" fill="#142530"/>
<path d="M197.705 145.431C197.705 148.006 195.557 150.096 192.907 150.096C190.257 150.096 188.109 148.006 188.109 145.431C188.109 142.856 190.257 140.766 192.907 140.766C195.557 140.766 197.705 142.853 197.705 145.431Z" fill="#142530"/>
</svg>
