<svg width="256" height="115" viewBox="0 0 256 115" fill="none" xmlns="http://www.w3.org/2000/svg">
<path d="M15.5265 57.3062L26.6003 8.88384C27.4663 5.09616 25.0347 1.38987 21.4514 1.0383L18.6301 0.761183C15.0727 0.411338 12.0142 3.53221 12.1198 7.39437C12.5805 24.1402 13.3651 40.5397 15.3031 57.2941C15.3187 57.4258 15.4953 57.4361 15.5265 57.3062Z" fill="#00BED9"/>
<path d="M15.292 57.6143L20.2175 107.041C20.6037 110.909 17.727 114.281 14.1264 114.182L11.293 114.104C7.72006 114.007 5.07544 110.528 5.66429 106.709C8.21712 90.1534 11.0488 73.9792 15.0686 57.6005C15.1015 57.4689 15.2781 57.481 15.292 57.6143Z" fill="#00BED9"/>
<path d="M15.9271 100.152C15.9756 101.875 16.0051 103.659 15.3903 105.258C14.7754 106.856 13.3397 108.226 11.748 108.113C10.1911 108.004 8.96833 106.508 8.55268 104.885C8.13702 103.262 8.3587 101.53 8.60117 99.8609C9.26449 95.2783 10.0664 90.7164 11.0016 86.1857C11.755 82.5401 12.1689 76.4299 14.287 73.4805C15.8302 82.0274 15.6812 91.4404 15.9271 100.152Z" fill="#00BED9"/>
<path d="M22.1761 15.1023C22.6611 13.0587 23.1478 10.9198 22.7096 8.87267C22.2714 6.82555 20.5897 4.93773 18.65 5.14902C17.119 5.31528 15.8928 6.73374 15.368 8.30285C14.845 9.87196 14.8848 11.5796 14.9316 13.2405C15.006 15.8972 14.4189 34.9916 16.2496 35.3258C18.4352 35.7259 21.6098 17.6101 22.1761 15.1023Z" fill="#00BED9"/>
<path d="M15.4672 59.1036L9.19942 28.2323C8.70929 25.818 6.33484 24.313 4.17169 25.0456L2.46922 25.6223C0.321653 26.3514 -0.629165 28.9527 0.442886 31.1575C5.0896 40.7124 9.8333 49.9816 15.3338 59.1538C15.3789 59.2265 15.4845 59.1867 15.4672 59.1036Z" fill="#00BED9"/>
<path d="M15.4119 59.3466L31.1862 86.6138C32.421 88.7475 31.6399 91.4475 29.5357 92.3325L27.8782 93.0288C25.7878 93.9069 23.351 92.5889 22.6912 90.2283C19.8352 79.9962 17.2408 69.9113 15.2786 59.3968C15.2647 59.3137 15.3704 59.2739 15.4119 59.3466Z" fill="#00BED9"/>
<path d="M26.9121 83.7527C27.3901 84.7365 27.8733 85.7583 27.9374 86.8425C28.0015 87.9266 27.5287 89.0939 26.5796 89.4455C25.6513 89.7902 24.5532 89.2463 23.8882 88.4168C23.2231 87.5872 22.8993 86.529 22.6014 85.5019C21.7856 82.6807 21.0548 79.8352 20.4105 76.9741C19.8927 74.6706 18.5331 71.0318 18.9851 68.7734C22.1147 73.3058 24.4909 78.7839 26.9121 83.7527Z" fill="#00BED9"/>
<path d="M8.26687 32.9755C8.01228 31.6679 7.73344 30.3049 6.94542 29.238C6.15741 28.1712 4.69048 27.52 3.62536 28.1487C2.78365 28.6457 2.44593 29.7853 2.55504 30.8297C2.66241 31.8723 3.13349 32.8491 3.59418 33.7964C4.33197 35.3118 8.98734 46.4965 10.1321 46.2107C11.4986 45.8695 8.59593 34.5723 8.26687 32.9755Z" fill="#00BED9"/>
<path d="M17.5333 55.6051C16.6154 55.7472 15.6992 55.0942 14.7813 55.2622C13.8634 55.4302 12.8572 56.9128 12.9039 59.024C12.9524 61.2824 14.1474 62.4808 15.1294 62.3024C16.1114 62.124 17.0553 61.1248 18.039 61.2477C18.1395 59.308 18.0944 57.3302 17.9091 55.4251C17.6926 55.458 17.4779 55.4908 17.2631 55.5237L17.5333 55.6051Z" fill="#FBC02D"/>
<path d="M21.9956 52.8728C21.9869 52.8815 21.9783 52.8815 21.9696 52.8919C21.9696 52.8832 21.9609 52.8641 21.9609 52.8555L21.9956 52.8728Z" fill="#FBC02D"/>
<path d="M22.2169 63.5821C20.9179 63.7865 19.4735 63.9337 18.2508 63.5631C17.6186 63.3864 17.0367 63.0643 16.5674 62.5465C15.3533 61.2146 15.3533 59.1173 15.4226 57.2399C15.4832 55.7522 15.6962 53.9769 16.9259 53.3015C17.4125 53.0331 17.9512 53.0054 18.5158 53.0521C19.7212 53.1543 21.0028 53.6254 21.9692 52.8945C22.7901 56.3809 22.8836 60.0594 22.2169 63.5821Z" fill="#FBC02D"/>
<path d="M21.9956 52.8728C21.9869 52.8815 21.9783 52.8815 21.9696 52.8919C21.9696 52.8832 21.9609 52.8641 21.9609 52.8555L21.9956 52.8728Z" fill="#D6A426"/>
<path d="M22.221 63.5821C21.1732 63.7467 18.3623 64.4585 18.1025 62.8564C17.6037 59.7962 17.5033 56.0206 18.539 53.0729C19.6768 53.0521 20.929 53.6843 21.9751 52.8945C22.7943 56.3809 22.8878 60.0594 22.221 63.5821Z" fill="#D6A426"/>
<path d="M251.005 23.2119C243.082 35.7942 234.415 47.8223 225.065 59.2027C217.945 67.8743 210.175 76.3711 200.347 81.0126C192.013 84.9509 182.757 85.8567 173.681 86.3746C155.946 87.3912 138.176 87.1695 120.416 86.9478C103.124 86.7261 85.8087 86.5045 68.5779 85.0982C62.8263 84.6357 57.0902 84.0434 51.3645 83.2675C49.0403 82.9523 46.697 82.6025 44.3814 82.1401C39.4334 81.1511 34.5944 79.634 30.2958 76.8526C23.9969 72.767 19.0402 65.325 19.5701 57.4015C19.6636 55.9969 19.92 54.6373 20.3218 53.3246C21.8355 48.3592 25.3564 44.1074 29.4749 41.2515C33.8861 38.2102 38.9277 36.5181 44.0299 35.1863C44.979 34.9369 45.9194 34.7048 46.8667 34.4745C53.6524 32.8465 60.483 31.461 67.3535 30.3231C70.3445 29.8243 73.3442 29.3705 76.3456 28.9739C80.3463 28.437 84.3279 28.0577 88.3113 27.7806C90.3792 27.6334 92.4402 27.5122 94.4994 27.4204C100.201 37.1832 110.26 43.6726 121.73 43.6726C133.611 43.6726 143.978 36.7208 149.559 26.3657C152.508 26.3103 155.464 26.2635 158.414 26.2271C163.918 26.1526 169.413 26.0973 174.919 26.0973C188.953 25.8946 203.158 25.6712 216.713 21.7241C224.285 19.5142 231.594 16.1491 238.175 11.5353C240.458 9.93678 242.704 8.16159 245.312 7.31988C247.193 6.71891 249.33 6.71023 251.081 7.54155C251.774 7.86542 252.398 8.31747 252.928 8.91844C256.261 12.7096 253.722 18.8942 251.005 23.2119Z" fill="#00BED9"/>
<path d="M251.003 23.2172C243.08 35.7995 234.413 47.8276 225.063 59.208C217.943 67.8797 210.174 76.3764 200.345 81.0179C192.011 84.9563 182.756 85.8621 173.679 86.3799C155.944 87.3965 138.175 87.1748 120.414 86.9532C103.123 86.7315 85.8069 86.5098 68.5762 85.1035C62.8245 84.6411 57.0884 84.0488 51.3627 83.2729C49.0385 82.9576 46.6952 82.6078 44.3797 82.1454C39.4316 81.1565 34.5926 79.6393 30.294 76.8579C24.2341 72.9282 19.4229 65.9018 19.525 58.3213C19.5337 58.0165 19.551 57.7116 19.5683 57.4051C19.6619 56.0005 19.9182 54.641 20.32 53.3282C22.1056 55.455 23.5171 57.7567 25.9608 59.4764C29.3103 61.8336 33.0807 63.4512 36.8753 64.7553C62.4054 73.5188 89.8509 72.2631 116.576 70.2835C141.346 68.4443 166.363 66.004 189.91 57.4605C213.449 48.9187 235.688 33.6554 248.953 10.9484C249.628 9.80185 250.295 8.60854 251.081 7.54688C251.774 7.87074 252.397 8.32279 252.927 8.92377C253.064 9.08137 253.192 9.23721 253.303 9.40521C256.054 13.2154 253.61 19.0762 251.003 23.2172Z" fill="#00AAC2"/>
<path d="M71.0105 71.5194C70.4978 76.1055 69.6856 80.6535 68.5737 85.101C62.822 84.6386 57.0859 84.0463 51.3602 83.2704C49.036 82.9552 46.6928 82.6053 44.3772 82.1429C45.8476 77.465 46.8556 72.6208 47.3942 67.7109C48.5909 56.7739 47.4704 45.5321 44.0273 35.1874C44.9764 34.938 45.9169 34.7059 46.8642 34.4756C53.6498 32.8476 60.4805 31.4621 67.351 30.3242C71.3447 43.5058 72.5502 57.697 71.0105 71.5194Z" fill="#FBC02D"/>
<path d="M158.415 26.2344C154.705 35.4325 147.312 42.8295 138.645 46.5462C128.508 50.8829 116.884 50.4014 106.705 46.2033C101.851 44.2064 97.218 41.3314 93.6797 37.2164C92.1417 35.4325 89.0209 31.3366 88.3125 27.7862C90.3804 27.6389 92.4414 27.5178 94.5006 27.426C100.202 37.1887 110.261 43.6782 121.731 43.6782C133.612 43.6782 143.98 36.7263 149.56 26.3712C152.509 26.3175 155.467 26.2707 158.415 26.2344Z" fill="#00AAC2"/>
<path d="M56.523 33.2823C59.1573 32.9983 62.0807 33.9682 63.4992 36.386C64.4327 37.9776 64.5989 39.9415 64.7236 41.8224C64.8726 44.0808 64.9973 46.3392 65.096 48.6011C65.1479 49.7632 65.1843 50.9703 64.7686 52.0441C64.2456 53.3916 63.0627 54.3354 61.7932 54.8342C60.5237 55.3313 59.1555 55.4421 57.8081 55.5461C56.8296 55.6223 55.787 55.6828 54.9349 55.1615C53.4039 54.2263 53.2151 51.9783 53.099 50.0801C52.8462 45.9322 51.8451 42.1463 50.929 38.1473C50.0786 34.4341 53.6307 33.5941 56.523 33.2823Z" fill="#FBCD5A"/>
<path d="M59.2312 57.0337C60.7813 56.7843 62.5478 57.0199 63.5835 58.2928C64.5014 59.422 64.607 61.05 64.6694 62.5515C64.711 63.556 64.7439 64.6056 64.3594 65.5218C63.9022 66.6112 62.9063 67.3489 61.8516 67.7109C60.7968 68.0729 59.6728 68.1093 58.5679 68.1422C57.3122 68.1803 55.8626 68.1231 55.0885 67.0545C54.491 66.2267 54.5187 65.075 54.5758 64.0272C54.6434 62.7992 54.2364 59.2766 54.943 58.3032C55.5769 57.4303 58.2284 57.1913 59.2312 57.0337Z" fill="#FBCD5A"/>
<path d="M71.0122 71.5223C70.4996 76.1084 69.6873 80.6564 68.5754 85.104C62.8237 84.6416 57.0877 84.0492 51.362 83.2733C49.0377 82.9581 46.6945 82.6083 44.3789 82.1459C45.302 82.3294 46.8313 69.9619 47.2539 68.9106C47.7371 67.7052 47.4461 67.8888 48.7277 68.0239C49.8344 68.1399 51.0346 68.7028 52.1101 69.018C58.4126 70.8677 64.4361 71.9432 71.0122 71.5223Z" fill="#D6A426"/>
<path d="M175.525 28.6007C170.293 29.1272 164.617 29.8684 160.873 33.8553C158.677 36.1951 157.416 39.9187 158.718 42.9409C159.674 45.1629 161.827 46.5709 164.042 47.0853C166.257 47.5997 168.559 47.3485 170.807 47.0403C186.749 44.8546 202.383 39.8841 216.775 32.1528C218.364 31.3007 219.995 30.3603 221.027 28.8016C224.288 23.8778 219.422 24.1739 216.51 24.477C211.919 24.9533 207.324 25.4018 202.731 25.8625C193.663 26.7769 184.593 27.688 175.525 28.6007Z" fill="#00CDEB"/>
<path d="M76.8575 32.1647C75.6937 32.279 74.4415 32.4349 73.5756 33.2853C72.3217 34.5166 72.3996 36.6348 72.5745 38.4568C72.7477 40.2649 73.0369 42.2981 74.4034 43.3563C75.4668 44.1807 76.8852 44.1617 78.1894 44.0595C80.5153 43.8776 82.8326 43.5382 85.1205 43.0428C86.9407 42.6497 88.9185 42.0245 89.9109 40.329C90.8358 38.7495 90.6054 36.6279 89.7828 34.9843C86.9875 29.3954 81.7658 31.6815 76.8575 32.1647Z" fill="#00CDEB"/>
<path d="M251.003 23.2143C243.08 35.7966 234.413 47.8248 225.063 59.2051C217.943 67.8768 210.174 76.3735 200.345 81.015C192.011 84.9534 182.756 85.8592 173.679 86.377C155.944 87.3937 138.175 87.172 120.414 86.9503C103.123 86.7286 85.8069 86.5069 68.5762 85.1006C62.8245 84.6382 57.0884 84.0459 51.3627 83.27C49.0385 82.9548 46.6952 82.6049 44.3797 82.1425C39.4316 81.1536 34.5926 79.6365 30.294 76.855C24.2341 72.9253 19.4229 65.899 19.525 58.3184C29.5597 68.9506 43.9017 73.9523 57.8764 76.6229C81.0909 81.0601 104.886 80.3569 128.398 78.4068C154.141 76.28 180.236 72.546 203.748 61.0167C208.935 58.4656 213.961 55.5058 218.757 52.1597C234.348 41.2504 245.56 27.0314 253.305 9.40234C256.054 13.2125 253.61 19.0733 251.003 23.2143Z" fill="#0098AD"/>
<path d="M214.947 89.1938C214.195 97.5884 200.04 98.1617 194.143 99.2251C174.28 102.776 153.672 101.341 134.382 95.1118C117.775 89.7412 95.7654 80.4685 86.3906 63.5962C89.0058 63.1338 91.6297 62.7095 94.2535 62.3198C106.211 60.5169 118.254 59.4258 130.322 59.0465C131.254 59.0188 132.186 59.0102 133.126 59.0188C149.271 59.2128 165.98 64.6579 181.28 69.9645C188.22 72.377 195.075 75.0771 201.819 78.0629C205.716 79.7826 212.751 81.4367 214.545 86.1145C214.895 87.0203 215.049 88.0387 214.947 89.1938Z" fill="#FBC02D"/>
<path d="M214.947 89.1982C214.195 97.5928 200.04 98.1661 194.143 99.2295C174.28 102.78 153.672 101.346 134.382 95.1162C117.775 89.7456 95.7654 80.4729 86.3906 63.6006C89.0058 63.1382 91.6297 62.7139 94.2535 62.3242C96.8947 68.1209 102.416 71.467 107.646 74.0839C107.818 74.167 107.988 74.2501 108.159 74.3419C114.758 77.6152 121.51 80.563 128.363 83.1608C144.167 89.1428 161.73 94.5412 178.535 95.5769C185.629 96.0116 192.818 95.4574 199.706 93.5246C203.194 92.553 206.595 91.2229 209.817 89.4944C210.92 88.9021 212.758 87.2378 214.543 86.1207C214.895 87.0247 215.049 88.0431 214.947 89.1982Z" fill="#D6A426"/>
<path d="M132.432 61.6438C142.254 62.6639 151.88 65.208 161.464 67.7453C173.65 70.9718 186.142 74.3439 196.449 82.0803C196.949 82.4561 197.469 82.8753 197.692 83.4884C198.217 84.9241 196.873 86.3287 195.617 87.063C189.736 90.5061 182.656 90.3034 175.998 89.6089C155.537 87.4735 135.581 81.5625 115.937 75.0055C112.83 73.9681 100.466 67.5427 108.121 63.2094C111.263 61.4308 116.381 61.5052 119.853 61.3043C124.046 61.0601 128.253 61.2108 132.432 61.6438Z" fill="#FBCD5A"/>
<path d="M255.987 51.0045C254.449 54.7403 250.783 57.0593 247.056 57.7538C243.329 58.4379 239.5 57.7348 235.807 56.848C229.072 55.2391 222.414 53.0673 216.011 50.265C210.814 47.9911 212.473 45.6512 215.533 44.1999C217.038 43.4794 218.876 42.9789 220.405 42.804C226.637 42.0731 232.979 42.4524 239.106 43.8951C240.475 44.2103 251.457 47.9252 254.945 49.9775C255.679 50.414 256.081 50.7655 255.987 51.0045Z" fill="#FBC02D"/>
<path d="M255.987 51.0078C254.449 54.7435 250.783 57.0625 247.056 57.757C243.329 58.4411 239.5 57.738 235.807 56.8513C229.072 55.2423 222.414 53.0705 216.011 50.2683C210.814 47.9943 212.473 45.6545 215.533 44.2031C216.115 44.8595 216.652 45.4969 217.132 45.8485C218.833 47.1058 220.798 47.9475 222.755 48.6316C232.833 52.163 243.798 52.6895 254.124 50.1488C254.38 50.0847 254.662 50.0293 254.945 49.9825C255.679 50.4172 256.081 50.7688 255.987 51.0078Z" fill="#D6A426"/>
<path d="M228.247 44.4453C227.655 44.4176 227.044 44.4003 226.493 44.6341C225.942 44.8697 225.462 45.4238 225.473 46.0646C225.485 46.9479 226.334 47.5056 227.085 47.8503C233.02 50.5694 239.652 50.791 246.098 50.7287C246.907 50.72 247.823 50.656 248.343 49.9857C250.017 47.8225 241.313 46.3054 240.165 46.0508C236.24 45.1762 232.252 44.6376 228.247 44.4453Z" fill="#FBCD5A"/>
<path d="M84.3679 31.6299C84.2189 31.6299 84.0752 31.5467 83.9955 31.3978C83.7807 30.9908 83.5712 30.5821 83.3703 30.1664C83.2594 29.9413 83.3391 29.6624 83.5487 29.5412C83.7582 29.4234 84.0163 29.5083 84.1271 29.7352C84.3263 30.1405 84.5307 30.5423 84.7402 30.9389C84.858 31.1606 84.7853 31.4428 84.5809 31.5693C84.5134 31.6108 84.4389 31.6299 84.3679 31.6299Z" fill="white"/>
<path d="M121.597 55.0292C121.322 55.0292 121.048 55.0257 120.773 55.0205C120.537 55.0153 120.35 54.804 120.354 54.5477C120.359 54.2913 120.567 54.1182 120.79 54.0957C121.059 54.1026 121.329 54.1043 121.597 54.1043L122.035 54.1008C122.446 54.0956 122.856 54.0835 123.265 54.0645C123.528 54.0143 123.7 54.2515 123.71 54.5044C123.721 54.7607 123.539 54.9754 123.303 54.9876C122.884 55.0084 122.465 55.0187 122.044 55.0239L121.597 55.0292ZM117.454 54.7971C117.439 54.7971 117.425 54.7971 117.409 54.7936C116.583 54.7018 115.74 54.5788 114.903 54.4282C114.671 54.3866 114.514 54.1476 114.552 53.8965C114.59 53.6453 114.806 53.4722 115.044 53.5172C115.863 53.6644 116.687 53.7839 117.498 53.8739C117.732 53.8999 117.903 54.1268 117.879 54.3814C117.856 54.6187 117.671 54.7971 117.454 54.7971ZM126.608 54.6845C126.396 54.6845 126.213 54.513 126.185 54.2792C126.156 54.0264 126.32 53.7943 126.556 53.7631C127.363 53.6523 128.187 53.5137 129.001 53.3475C129.23 53.299 129.457 53.4635 129.5 53.7163C129.545 53.9675 129.391 54.2099 129.159 54.2567C128.327 54.4264 127.486 54.5684 126.661 54.681C126.644 54.6845 126.627 54.6845 126.608 54.6845ZM111.706 53.7042C111.673 53.7042 111.639 53.699 111.604 53.6904C110.794 53.4739 109.974 53.2262 109.169 52.956C108.944 52.8798 108.817 52.6218 108.888 52.3776C108.958 52.1351 109.197 51.9966 109.424 52.0728C110.213 52.3378 111.017 52.5802 111.81 52.7932C112.039 52.8556 112.179 53.105 112.122 53.3526C112.073 53.5622 111.899 53.7042 111.706 53.7042ZM132.333 53.4566C132.145 53.4566 131.973 53.3215 131.921 53.1154C131.859 52.8695 131.994 52.6149 132.222 52.5491C133.016 52.3153 133.814 52.0537 134.593 51.7714C134.819 51.6866 135.059 51.8199 135.134 52.0624C135.208 52.3049 135.089 52.5664 134.865 52.6478C134.07 52.937 133.256 53.2037 132.446 53.441C132.408 53.4514 132.37 53.4566 132.333 53.4566ZM106.149 51.7749C106.097 51.7749 106.043 51.7645 105.991 51.742C105.22 51.4129 104.439 51.0509 103.668 50.6647C103.454 50.5573 103.36 50.282 103.461 50.0499C103.559 49.8196 103.814 49.7191 104.027 49.8248C104.784 50.2041 105.549 50.5591 106.304 50.8812C106.524 50.9747 106.632 51.2432 106.545 51.4805C106.479 51.664 106.318 51.7749 106.149 51.7749ZM137.849 51.3938C137.683 51.3938 137.524 51.2882 137.455 51.1115C137.363 50.8777 137.465 50.6058 137.683 50.5054C138.435 50.1625 139.193 49.7884 139.94 49.3935C140.149 49.2826 140.407 49.3762 140.511 49.6048C140.615 49.8334 140.527 50.1105 140.316 50.2231C139.555 50.6249 138.783 51.0059 138.016 51.3558C137.96 51.3835 137.905 51.3938 137.849 51.3938ZM100.873 49.0679C100.804 49.0679 100.731 49.0489 100.667 49.0108C99.9414 48.5743 99.2106 48.1049 98.4935 47.6165C98.2944 47.4797 98.2338 47.1957 98.3602 46.9775C98.4866 46.7627 98.7499 46.6986 98.949 46.8337C99.6505 47.3135 100.367 47.7742 101.079 48.202C101.285 48.3267 101.36 48.6072 101.246 48.8306C101.169 48.9831 101.024 49.0679 100.873 49.0679ZM143.066 48.5639C142.92 48.5639 142.777 48.4825 142.697 48.3353C142.578 48.1154 142.647 47.8331 142.849 47.7032C143.551 47.2581 144.259 46.7801 144.954 46.283C145.149 46.141 145.416 46.2016 145.546 46.4129C145.676 46.6259 145.622 46.9134 145.427 47.0537C144.72 47.5594 143.998 48.0461 143.282 48.5016C143.215 48.5431 143.14 48.5639 143.066 48.5639ZM95.9702 45.6456C95.8818 45.6456 95.7935 45.6162 95.7156 45.5539C95.0436 45.0153 94.3751 44.4454 93.7291 43.8653C93.5472 43.7025 93.523 43.4098 93.6736 43.214C93.8243 43.0183 94.0945 42.9924 94.2764 43.1552C94.9085 43.725 95.5649 44.2826 96.2247 44.8109C96.4135 44.9633 96.4534 45.2525 96.3131 45.4569C96.2299 45.5816 96.1018 45.6456 95.9702 45.6456ZM147.898 45.0239C147.772 45.0239 147.645 44.9633 147.56 44.8455C147.417 44.6429 147.449 44.3537 147.636 44.1961C148.288 43.6505 148.93 43.079 149.552 42.4936C149.729 42.3239 149.999 42.3447 150.155 42.5386C150.311 42.7309 150.291 43.0218 150.113 43.1898C149.481 43.7856 148.825 44.3693 148.161 44.9269C148.082 44.991 147.99 45.0239 147.898 45.0239ZM91.5226 41.5601C91.4152 41.5601 91.3079 41.5168 91.2247 41.4302C90.622 40.798 90.0297 40.1382 89.4634 39.4697C89.304 39.2809 89.3162 38.9899 89.4894 38.8167C89.6625 38.6418 89.9327 38.6574 90.0938 38.8445C90.6497 39.4991 91.2299 40.1468 91.8205 40.7651C91.9902 40.9435 91.9937 41.2362 91.8292 41.4181C91.746 41.5133 91.6352 41.5601 91.5226 41.5601ZM152.261 40.8309C152.152 40.8309 152.044 40.7859 151.961 40.6976C151.793 40.5175 151.791 40.2248 151.956 40.0447C152.536 39.4091 153.104 38.7475 153.643 38.0824C153.799 37.8885 154.069 37.8728 154.245 38.0391C154.424 38.2071 154.441 38.4998 154.285 38.6903C153.734 39.3709 153.154 40.0447 152.564 40.6924C152.481 40.7842 152.37 40.8309 152.261 40.8309ZM87.6224 36.8649C87.4942 36.8649 87.3695 36.8043 87.2846 36.6865C86.7668 35.9695 86.2628 35.2282 85.79 34.4818C85.6566 34.2722 85.7051 33.983 85.9008 33.8392C86.0948 33.6955 86.3615 33.7492 86.4949 33.9587C86.959 34.6896 87.4509 35.4153 87.9583 36.1184C88.1038 36.3193 88.0709 36.6103 87.8856 36.7662C87.8059 36.8337 87.7141 36.8649 87.6224 36.8649ZM156.064 36.044C155.976 36.044 155.886 36.0145 155.809 35.9522C155.621 35.7998 155.581 35.5106 155.723 35.3062C156.216 34.5892 156.696 33.8513 157.143 33.1118C157.273 32.8971 157.538 32.8382 157.735 32.9785C157.933 33.1187 157.988 33.4045 157.858 33.6193C157.401 34.3744 156.913 35.1278 156.407 35.8587C156.324 35.9799 156.196 36.044 156.064 36.044Z" fill="white"/>
<path d="M159.22 30.7137C159.151 30.7137 159.082 30.6964 159.016 30.6583C158.81 30.5371 158.732 30.2565 158.845 30.0314C159.045 29.6295 159.241 29.2225 159.432 28.8138C159.537 28.5852 159.797 28.4934 160.005 28.6077C160.216 28.722 160.301 29.0009 160.195 29.2278C160.002 29.6469 159.801 30.0608 159.595 30.473C159.518 30.6254 159.371 30.7137 159.22 30.7137Z" fill="white"/>
<path d="M41.9522 78.4551C41.9141 78.4551 41.8743 78.4498 41.8345 78.4377C41.6076 78.3684 41.476 78.1121 41.54 77.8662C41.7738 76.9847 41.9886 76.0962 42.1878 75.2025C42.2432 74.9549 42.4718 74.8024 42.7039 74.8613C42.9325 74.9202 43.0745 75.1714 43.0191 75.419C42.8182 76.3248 42.6 77.2254 42.3627 78.1208C42.3107 78.3234 42.1393 78.4551 41.9522 78.4551ZM43.3135 72.1544C43.2875 72.1544 43.2616 72.1509 43.2356 72.1474C43.0035 72.1007 42.8494 71.8599 42.8927 71.6088C43.0451 70.7065 43.1819 69.799 43.2997 68.8897C43.3326 68.6386 43.5525 68.4706 43.7829 68.4966C44.0167 68.5329 44.1795 68.7668 44.1466 69.0196C44.0253 69.941 43.8885 70.8589 43.7326 71.7751C43.6963 71.9985 43.5161 72.1544 43.3135 72.1544ZM44.1102 65.7446C44.0981 65.7446 44.0859 65.7446 44.0721 65.7428C43.8366 65.7221 43.6634 65.4969 43.6841 65.2423C43.7569 64.3279 43.814 63.41 43.8539 62.4938C43.866 62.2392 44.0513 62.021 44.3007 62.0539C44.5362 62.066 44.7181 62.2807 44.7077 62.5371C44.6679 63.4671 44.6107 64.3954 44.5362 65.322C44.5155 65.5627 44.3301 65.7446 44.1102 65.7446ZM44.3475 59.2794C44.1137 59.2794 43.9214 59.075 43.9197 58.8204C43.9128 57.9008 43.8902 56.9828 43.8504 56.0667C43.84 55.8121 44.0219 55.5956 44.2574 55.5835C44.4999 55.5523 44.6938 55.7688 44.7042 56.0234C44.7441 56.9534 44.7683 57.8834 44.7735 58.8135C44.7752 59.0681 44.5847 59.2776 44.3492 59.2794H44.3475ZM44.0253 52.8193C43.8088 52.8193 43.6218 52.641 43.601 52.4037C43.5161 51.491 43.414 50.5783 43.2945 49.6707C43.2616 49.4179 43.4244 49.1841 43.6582 49.1477C43.8937 49.1148 44.1085 49.288 44.1414 49.5408C44.2626 50.4622 44.3648 51.387 44.4514 52.3119C44.4756 52.5647 44.3042 52.7916 44.0686 52.8176C44.053 52.8193 44.0392 52.8193 44.0253 52.8193ZM43.1455 46.4217C42.9464 46.4217 42.768 46.2693 42.7264 46.0493C42.5619 45.1487 42.3817 44.2516 42.1826 43.3579C42.1272 43.1102 42.2692 42.8609 42.4978 42.8002C42.7264 42.7379 42.9585 42.8938 43.0139 43.1432C43.2148 44.0472 43.3984 44.9582 43.5646 45.8709C43.6097 46.1203 43.459 46.3645 43.2286 46.413C43.2009 46.4182 43.1732 46.4217 43.1455 46.4217ZM41.7098 40.1418C41.5262 40.1418 41.3565 40.0136 41.301 39.8127C41.0586 38.9329 40.797 38.0583 40.5199 37.1906C40.442 36.9499 40.5615 36.6866 40.7849 36.6035C41.0049 36.5203 41.2508 36.6485 41.3287 36.8892C41.6093 37.7691 41.8743 38.6558 42.1202 39.5477C42.1878 39.7919 42.0596 40.05 41.8327 40.1245C41.7912 40.1366 41.7496 40.1418 41.7098 40.1418Z" fill="white"/>
<path d="M242.022 53.1101H242.015C241.157 53.0927 240.288 53.0529 239.432 52.9923C239.197 52.975 239.018 52.755 239.034 52.5004C239.05 52.2458 239.28 52.0484 239.488 52.0692C240.331 52.128 241.187 52.1679 242.03 52.1852C242.266 52.1904 242.455 52.4017 242.449 52.6563C242.446 52.9092 242.255 53.1101 242.022 53.1101ZM245.44 53.0564C245.213 53.0564 245.025 52.8624 245.014 52.6165C245.002 52.3619 245.186 52.1454 245.421 52.1333C246.265 52.09 247.119 52.0241 247.959 51.9358C248.194 51.9271 248.402 52.0969 248.424 52.3514C248.447 52.606 248.274 52.8312 248.04 52.8555C247.186 52.9438 246.32 53.0113 245.461 53.0546C245.452 53.0563 245.447 53.0564 245.44 53.0564ZM236.059 52.6355C236.04 52.6355 236.02 52.6355 236.003 52.632C235.146 52.5108 234.287 52.367 233.449 52.2042C233.217 52.1592 233.061 51.9185 233.104 51.6674C233.145 51.4162 233.372 51.2517 233.599 51.2933C234.425 51.4526 235.271 51.5929 236.114 51.7124C236.348 51.7453 236.512 51.9774 236.483 52.2303C236.453 52.4658 236.27 52.6355 236.059 52.6355ZM251.386 52.3826C251.182 52.3826 251 52.2216 250.965 51.9947C250.927 51.7436 251.085 51.5045 251.317 51.463C251.944 51.3521 252.569 51.2274 253.192 51.0906C253.419 51.0404 253.65 51.2015 253.696 51.4509C253.743 51.7003 253.594 51.9445 253.362 51.9964C252.73 52.135 252.093 52.2614 251.455 52.374C251.433 52.3809 251.408 52.3826 251.386 52.3826ZM230.18 51.4439C230.148 51.4439 230.113 51.4388 230.078 51.4301C229.249 51.2101 228.409 50.9642 227.584 50.6992C227.357 50.6265 227.229 50.3702 227.295 50.1242C227.363 49.88 227.602 49.7415 227.827 49.8125C228.639 50.0723 229.465 50.3147 230.283 50.5312C230.513 50.5918 230.653 50.8412 230.596 51.0906C230.548 51.3036 230.374 51.4439 230.18 51.4439ZM224.462 49.5544C224.413 49.5544 224.363 49.5458 224.314 49.525C223.513 49.2063 222.706 48.8599 221.911 48.4945C221.694 48.3941 221.592 48.1239 221.685 47.8883C221.777 47.6545 222.028 47.5437 222.247 47.6441C223.028 48.0026 223.823 48.3438 224.611 48.659C224.832 48.7474 224.945 49.0123 224.864 49.2531C224.799 49.4384 224.635 49.5544 224.462 49.5544ZM218.978 46.9722C218.913 46.9722 218.847 46.9566 218.786 46.9219C218.021 46.5028 217.255 46.0577 216.509 45.597C216.304 45.4706 216.232 45.1883 216.349 44.9666C216.467 44.7449 216.73 44.6705 216.933 44.7934C217.666 45.2472 218.419 45.6836 219.172 46.0958C219.384 46.2118 219.469 46.489 219.361 46.7176C219.285 46.8804 219.134 46.9722 218.978 46.9722Z" fill="white"/>
<path d="M179.225 94.7041C178.37 94.6989 177.509 94.6832 176.652 94.6607C176.416 94.6538 176.229 94.4425 176.236 94.1862C176.241 93.9316 176.449 93.7567 176.674 93.7359C177.526 93.7601 178.378 93.774 179.229 93.7792C179.464 93.7809 179.655 93.9887 179.653 94.2433C179.651 94.4979 179.459 94.7041 179.225 94.7041ZM182.644 94.678C182.412 94.678 182.221 94.4772 182.216 94.2243C182.211 93.9697 182.4 93.7584 182.635 93.7532C183.487 93.7342 184.339 93.7047 185.19 93.6666C185.415 93.6666 185.625 93.8554 185.635 94.11C185.644 94.3646 185.462 94.5811 185.224 94.5915C184.369 94.6296 183.512 94.659 182.653 94.678C182.649 94.678 182.646 94.678 182.644 94.678ZM173.245 94.5222C173.238 94.5222 173.231 94.5222 173.224 94.5222C172.369 94.4772 171.511 94.4234 170.657 94.3628C170.422 94.3455 170.243 94.1256 170.259 93.871C170.275 93.6164 170.462 93.4172 170.715 93.4397C171.565 93.5004 172.415 93.5541 173.267 93.5991C173.503 93.6112 173.685 93.8294 173.673 94.084C173.661 94.33 173.472 94.5222 173.245 94.5222ZM188.619 94.3837C188.397 94.3837 188.21 94.1983 188.193 93.9541C188.176 93.6995 188.352 93.4778 188.59 93.4605C189.44 93.3947 190.289 93.3203 191.135 93.2337C191.362 93.2181 191.579 93.3965 191.601 93.651C191.624 93.9056 191.451 94.1308 191.215 94.155C190.361 94.2416 189.506 94.3178 188.65 94.3837C188.64 94.3837 188.629 94.3837 188.619 94.3837ZM167.275 94.0788C167.263 94.0788 167.249 94.0788 167.237 94.0771C166.383 93.9957 165.531 93.9073 164.679 93.8121C164.443 93.7861 164.274 93.5592 164.298 93.3064C164.322 93.0518 164.545 92.863 164.765 92.8942C165.614 92.9877 166.463 93.076 167.311 93.1574C167.547 93.18 167.72 93.4034 167.699 93.658C167.682 93.897 167.495 94.0788 167.275 94.0788ZM194.573 93.7497C194.362 93.7497 194.178 93.58 194.151 93.3462C194.121 93.0934 194.288 92.8613 194.521 92.8301C195.365 92.7141 196.208 92.5877 197.05 92.4491C197.28 92.4145 197.502 92.5842 197.537 92.837C197.573 93.0899 197.412 93.3254 197.178 93.3635C196.329 93.5038 195.479 93.6303 194.627 93.748C194.61 93.7498 194.591 93.7497 194.573 93.7497ZM161.326 93.3999C161.309 93.3999 161.291 93.3999 161.272 93.3965C160.422 93.2839 159.573 93.1644 158.725 93.0397C158.491 93.0051 158.328 92.7729 158.359 92.5201C158.39 92.2655 158.61 92.0836 158.841 92.1252C159.686 92.2482 160.533 92.3677 161.38 92.4803C161.613 92.5115 161.78 92.7418 161.752 92.9963C161.722 93.2284 161.539 93.3999 161.326 93.3999ZM200.483 92.747C200.282 92.747 200.102 92.5928 200.063 92.3711C200.02 92.12 200.173 91.8776 200.405 91.8308C201.241 91.6611 202.076 91.4775 202.907 91.2853C203.143 91.2402 203.366 91.3909 203.415 91.6403C203.463 91.8897 203.318 92.1356 203.087 92.1893C202.247 92.385 201.406 92.5669 200.564 92.7401C200.536 92.7453 200.51 92.747 200.483 92.747ZM155.399 92.5166C155.377 92.5166 155.356 92.5149 155.333 92.5114C154.487 92.3711 153.64 92.2257 152.794 92.075C152.562 92.0334 152.405 91.7944 152.443 91.5433C152.481 91.2922 152.697 91.1173 152.935 91.164C153.776 91.3147 154.618 91.4585 155.462 91.5987C155.695 91.6368 155.856 91.8741 155.82 92.1252C155.789 92.3521 155.607 92.5166 155.399 92.5166ZM149.499 91.4515C149.473 91.4515 149.448 91.448 149.422 91.4446C148.581 91.28 147.739 91.1103 146.897 90.9389C146.667 90.8904 146.513 90.6496 146.558 90.3985C146.603 90.1474 146.83 89.9863 147.057 90.0314C147.895 90.2028 148.735 90.3725 149.575 90.5353C149.807 90.5804 149.961 90.8211 149.92 91.0722C149.88 91.2939 149.701 91.4515 149.499 91.4515ZM206.323 91.3511C206.132 91.3511 205.957 91.2125 205.909 91.0029C205.85 90.7553 205.988 90.5042 206.217 90.4401C207.041 90.2132 207.861 89.9724 208.68 89.7196C208.908 89.6451 209.144 89.7906 209.208 90.0365C209.272 90.2825 209.142 90.5388 208.915 90.608C208.087 90.8644 207.26 91.1069 206.428 91.3355C206.394 91.3476 206.357 91.3511 206.323 91.3511ZM143.622 90.2305C143.595 90.2305 143.565 90.227 143.536 90.2218C142.697 90.0365 141.857 89.8478 141.021 89.6573C140.791 89.6036 140.643 89.3594 140.692 89.11C140.74 88.8588 140.972 88.7064 141.198 88.7532C142.032 88.9454 142.867 89.1342 143.705 89.316C143.936 89.368 144.086 89.6105 144.04 89.8616C144 90.0798 143.821 90.2305 143.622 90.2305ZM137.77 88.8796C137.739 88.8796 137.708 88.8761 137.677 88.8692C136.844 88.6666 136.007 88.4622 135.174 88.2527C134.945 88.1955 134.802 87.9461 134.855 87.6967C134.909 87.449 135.138 87.2949 135.368 87.3504C136.199 87.5599 137.032 87.7643 137.864 87.9652C138.094 88.0206 138.238 88.2682 138.188 88.5176C138.143 88.7341 137.966 88.8796 137.77 88.8796ZM131.944 87.4006C131.909 87.4006 131.876 87.3954 131.84 87.3867C131.009 87.1616 130.179 86.9312 129.351 86.694C129.123 86.6282 128.988 86.3753 129.048 86.1276C129.109 85.8817 129.336 85.7327 129.571 85.8003C130.394 86.0375 131.22 86.2679 132.046 86.4896C132.275 86.5519 132.415 86.8031 132.358 87.0507C132.311 87.2603 132.136 87.4006 131.944 87.4006ZM126.17 85.7154C126.13 85.7154 126.09 85.7085 126.05 85.6964C125.226 85.4366 124.405 85.1682 123.588 84.8876C123.362 84.8114 123.238 84.5516 123.309 84.3074C123.38 84.0649 123.62 83.9316 123.844 84.006C124.656 84.2832 125.47 84.5498 126.288 84.8096C126.514 84.8806 126.644 85.137 126.579 85.3829C126.525 85.5855 126.355 85.7154 126.17 85.7154ZM120.474 83.7393C120.427 83.7393 120.378 83.7307 120.332 83.7133C119.523 83.4051 118.716 83.0847 117.916 82.7504C117.696 82.6586 117.587 82.3919 117.67 82.1529C117.755 81.9139 118.002 81.7961 118.222 81.8879C119.015 82.2187 119.814 82.5374 120.616 82.8422C120.839 82.9271 120.955 83.1903 120.877 83.4311C120.815 83.6198 120.65 83.7393 120.474 83.7393ZM114.904 81.3787C114.847 81.3787 114.789 81.3666 114.734 81.3406C114.421 81.1934 114.107 81.0427 113.794 80.8903C113.323 80.6617 112.853 80.4262 112.386 80.1837C112.173 80.0729 112.083 79.7975 112.185 79.5671C112.287 79.3368 112.543 79.2398 112.754 79.349C113.215 79.588 113.679 79.82 114.143 80.0451C114.453 80.1958 114.763 80.3448 115.074 80.4903C115.29 80.5925 115.389 80.8643 115.295 81.0981C115.226 81.2748 115.07 81.3787 114.904 81.3787ZM109.523 78.5522C109.455 78.5522 109.384 78.5349 109.32 78.4968C108.563 78.0552 107.815 77.5945 107.076 77.1182C106.873 76.9866 106.807 76.7043 106.927 76.4843C107.048 76.2644 107.309 76.1934 107.512 76.3233C108.241 76.7944 108.981 77.2464 109.725 77.6845C109.933 77.8058 110.011 78.0864 109.899 78.3115C109.821 78.4657 109.675 78.5522 109.523 78.5522ZM104.408 75.1976C104.325 75.1976 104.242 75.1715 104.169 75.1179C103.451 74.5914 102.744 74.0458 102.065 73.4951C101.876 73.341 101.838 73.0517 101.98 72.8473C102.122 72.643 102.391 72.6014 102.578 72.7538C103.245 73.2959 103.941 73.8328 104.649 74.3506C104.845 74.4944 104.895 74.7819 104.763 74.9932C104.68 75.1265 104.545 75.1976 104.408 75.1976ZM99.6578 71.2748C99.5591 71.2748 99.4604 71.2384 99.379 71.1622C98.726 70.556 98.0835 69.9221 97.4652 69.2796C97.2955 69.1029 97.2903 68.8103 97.4531 68.6267C97.6159 68.4431 97.8878 68.4361 98.0575 68.6145C98.6637 69.2449 99.2958 69.8667 99.9366 70.4625C100.115 70.6288 100.136 70.9215 99.9817 71.1137C99.8968 71.2211 99.7773 71.2748 99.6578 71.2748ZM95.3869 66.7476C95.2691 66.7476 95.1531 66.6956 95.0682 66.5934C94.4915 65.8937 93.9321 65.1733 93.4039 64.4476C93.2584 64.2467 93.2896 63.9557 93.4766 63.7981C93.6619 63.6405 93.9321 63.6751 94.0758 63.8743C94.592 64.5844 95.141 65.2928 95.7056 65.9769C95.8632 66.1674 95.8476 66.46 95.6709 66.6298C95.5913 66.7094 95.4891 66.7476 95.3869 66.7476Z" fill="white"/>
<path d="M27.1246 47.1037C25.7927 48.5758 24.5509 50.3978 24.5908 52.457C24.6445 55.3147 27.0847 57.3981 29.4367 58.704C30.7287 59.421 32.0882 60.0462 33.5292 60.235C34.9701 60.4238 36.5115 60.1363 37.658 59.1751C39.1301 57.942 39.7259 55.8464 40.003 53.8547C40.4706 50.5121 40.2784 47.0655 39.4454 43.8078C37.5974 36.5858 29.8229 44.1179 27.1246 47.1037Z" fill="#00CDEB"/>
</svg>
