<svg width="135" height="256" viewBox="0 0 135 256" fill="none" xmlns="http://www.w3.org/2000/svg">
<path d="M123.769 61.9204C127.257 63.4928 131.126 63.9589 134.927 64.4059C134.491 65.9415 133.861 67.4213 133.053 68.7974C128.762 66.7589 124.548 64.5607 120.42 62.2094C120.322 62.1535 120.22 62.0912 120.179 61.9875C120.129 61.8629 120.188 61.7225 120.246 61.6012C120.693 60.6657 120.618 60.2635 121.577 60.7519C122.319 61.1303 123.006 61.5836 123.769 61.9204Z" fill="#D6D534"/>
<path d="M125.698 69.3196C126.583 71.117 127.11 73.0693 127.901 74.9115C127.956 75.0376 128.031 75.1781 128.166 75.1988C128.284 75.218 128.391 75.1318 128.481 75.0536C129.494 74.1564 130.508 73.2593 131.52 72.3637C130.534 70.6046 129.534 68.8279 128.174 67.337C126.814 65.846 125.041 64.6471 123.044 64.3534C120.659 64.0038 123.004 65.7981 123.523 66.3009C124.429 67.1757 125.143 68.1894 125.698 69.3196Z" fill="#02C5D6"/>
<path d="M54.8325 47.7442C52.2529 44.9187 50.6055 41.3861 48.9964 37.9141C47.673 38.8064 46.463 39.8664 45.4062 41.062C48.6787 44.5053 52.0804 47.8256 55.6003 51.0167C55.6833 51.0917 55.7744 51.1699 55.8861 51.1763C56.0202 51.1843 56.1351 51.0853 56.2325 50.9911C56.9812 50.2744 57.3882 50.2201 56.6236 49.4618C56.0346 48.876 55.3896 48.3652 54.8325 47.7442Z" fill="#02C5D6"/>
<path d="M47.2033 48.2128C45.219 47.9319 43.1997 48.0388 41.2043 47.86C41.0686 47.8473 40.9106 47.8201 40.8483 47.6972C40.7941 47.5903 40.8419 47.4626 40.8882 47.3524C41.4246 46.1105 41.961 44.8685 42.4989 43.625C44.4784 44.0145 46.4786 44.4104 48.3176 45.2389C50.1565 46.0674 51.8502 47.3796 52.7505 49.1866C53.8248 51.3448 51.3905 49.6735 50.7519 49.3366C49.6361 48.7524 48.45 48.39 47.2033 48.2128Z" fill="#FF4364"/>
<path d="M34.6328 181.758L37.4248 182.021L49.4323 183.158L46.179 191.981L45.143 194.806L44.0351 197.822L36.1046 184.262L34.6328 181.758Z" fill="#FF4364"/>
<path d="M34.6328 181.758L37.4264 182.021L49.4323 183.158L46.179 191.981C46.1742 191.633 46.1247 191.305 46.0609 190.964C45.5341 188.148 43.4046 185.825 40.9303 184.85C39.7538 184.373 38.5166 184.183 37.2859 184.192C36.8964 184.199 36.5069 184.221 36.1046 184.262L34.6328 181.758Z" fill="#EB3E5C"/>
<path d="M34.6328 181.758L37.4264 182.021C37.4008 182.074 37.3769 182.125 37.3514 182.178C37.1007 182.816 37.1262 183.511 37.2843 184.192C37.4678 184.97 37.8302 185.712 38.2133 186.387C39.4601 188.6 40.9335 190.673 42.4165 192.696C42.9417 193.422 43.4988 194.179 44.2602 194.565C44.53 194.704 44.8397 194.789 45.1414 194.808L44.0351 197.823L36.1046 184.264L34.6328 181.758Z" fill="#C4344D"/>
<path opacity="0.19" d="M37.832 184.162C38.7387 186.356 40.0717 188.354 41.6744 190C42.1038 190.44 42.6019 190.879 43.1829 190.915C44.0162 190.966 44.6627 190.193 45.1783 189.484C45.8312 188.587 46.5192 187.518 46.2973 186.379C46.0723 185.219 44.9788 184.499 43.9348 184.197C42.6944 183.838 41.138 183.241 39.8689 183.292C39.133 183.322 38.3828 183.605 37.9039 184.213L37.832 184.162Z" fill="white"/>
<path d="M11.9309 167.255L9.67852 165.098L0 155.823L8.56108 151.256L11.2972 149.791L14.2185 148.227L12.2821 164.284L11.9309 167.255Z" fill="#FF4364"/>
<path d="M11.9325 167.255L9.68013 165.098L0 155.823L8.56108 151.258C8.33919 151.531 8.16838 151.818 8.00236 152.128C6.62793 154.679 6.96635 157.967 8.47807 160.454C9.18843 161.647 10.1383 162.659 11.2126 163.513C11.5558 163.781 11.907 164.035 12.2821 164.284L11.9325 167.255Z" fill="#EB3E5C"/>
<path d="M11.9282 167.255L9.67578 165.098C9.73165 165.076 9.78588 165.052 9.84176 165.028C10.4755 164.707 10.9049 164.151 11.2082 163.513C11.5546 162.782 11.7239 161.953 11.8292 161.162C12.1852 158.576 12.2554 155.938 12.2842 153.333C12.3017 152.404 12.3097 151.427 11.901 150.595C11.7574 150.3 11.5434 150.018 11.2944 149.791L14.2157 148.227L12.2794 164.284L11.9282 167.255Z" fill="#C4344D"/>
<path opacity="0.19" d="M10.7216 163.152C11.3602 160.818 11.5038 158.338 11.183 155.94C11.0968 155.298 10.9499 154.61 10.4694 154.176C9.77982 153.555 8.71667 153.7 7.80677 153.89C6.65742 154.128 5.36596 154.478 4.81523 155.515C4.25492 156.574 4.73704 157.894 5.4458 158.858C6.28866 160.004 7.25125 161.554 8.38464 162.402C9.04232 162.893 9.87878 163.198 10.6881 163.061L10.7216 163.152Z" fill="white"/>
<path d="M32.7538 132.781L33.0858 135.881L34.5145 149.211L25.026 147.186L21.9882 146.546L18.7461 145.86L30.5716 134.826L32.7538 132.781Z" fill="#D6D534"/>
<path d="M32.759 132.781L33.0911 135.881L34.5198 149.211L25.0312 147.188C25.3761 147.121 25.6922 147.012 26.0194 146.882C28.714 145.815 30.5753 143.082 31.0207 140.206C31.2458 138.836 31.1707 137.45 30.8993 136.105C30.8099 135.679 30.7046 135.259 30.5769 134.826L32.759 132.781Z" fill="#ADAD2A"/>
<path d="M32.7538 132.781L33.0858 135.881C33.0284 135.864 32.9709 135.845 32.9134 135.827C32.2222 135.664 31.5358 135.813 30.8925 136.105C30.1566 136.442 29.4925 136.965 28.9035 137.503C26.964 139.251 25.2112 141.224 23.5127 143.197C22.9013 143.898 22.266 144.639 22.0425 145.539C21.9611 145.858 21.9435 146.211 21.9882 146.545L18.7461 145.858L30.5716 134.826L32.7538 132.781Z" fill="#8F8F23"/>
<path opacity="0.19" d="M31.0344 136.699C29.0421 138.074 27.3341 139.877 26.0347 141.918C25.6867 142.464 25.3562 143.084 25.444 143.726C25.5717 144.646 26.4784 145.219 27.2957 145.661C28.3286 146.22 29.5418 146.785 30.6305 146.344C31.7399 145.896 32.2236 144.575 32.3018 143.381C32.3944 141.962 32.6594 140.157 32.337 138.778C32.1502 137.978 31.708 137.205 31.0008 136.789L31.0344 136.699Z" fill="white"/>
<path d="M38.1972 187.445L35.3206 188.65L22.9539 193.822L22.1829 184.152L21.9306 181.057L21.6641 177.754L35.6127 185.938L38.1972 187.445Z" fill="#D6D534"/>
<path d="M38.1923 187.447L35.3158 188.651L22.9491 193.824L22.1797 184.152C22.3425 184.465 22.5373 184.735 22.7559 185.011C24.547 187.289 27.6966 188.292 30.5811 187.897C31.9572 187.723 33.2645 187.256 34.4762 186.611C34.8577 186.403 35.2312 186.181 35.6095 185.937L38.1923 187.447Z" fill="#ADAD2A"/>
<path d="M38.1972 187.445L35.3206 188.649C35.3222 188.588 35.3222 188.529 35.3238 188.468C35.2823 187.76 34.9439 187.145 34.481 186.61C33.9478 186 33.2566 185.515 32.5733 185.103C30.3433 183.743 27.9536 182.627 25.5767 181.561C24.7306 181.175 23.8383 180.777 22.9124 180.82C22.5836 180.835 22.2403 180.918 21.9322 181.057L21.6641 177.754L35.6143 185.937L38.1972 187.445Z" fill="#8F8F23"/>
<path opacity="0.19" d="M33.9537 186.914C32.0684 185.396 29.8511 184.275 27.5253 183.613C26.9011 183.436 26.2131 183.295 25.6241 183.564C24.7796 183.948 24.4891 184.981 24.2991 185.891C24.0597 187.04 23.8633 188.364 24.596 189.282C25.3431 190.217 26.7463 190.303 27.9132 190.038C29.3004 189.722 31.1058 189.459 32.3366 188.758C33.0502 188.351 33.6632 187.706 33.8611 186.909L33.9537 186.914Z" fill="white"/>
<path d="M27.9961 133.887L28.2275 130.778L29.2221 117.41L38.1918 121.107L41.0636 122.285L44.1301 123.543L30.5119 132.269L27.9961 133.887Z" fill="#02C5D6"/>
<path d="M27.9961 133.887L28.2275 130.778L29.2221 117.41L38.1918 121.109C37.839 121.112 37.5101 121.163 37.1653 121.232C34.3223 121.795 32.0013 124.148 31.0451 126.897C30.5774 128.203 30.4018 129.581 30.4257 130.953C30.4369 131.388 30.4656 131.822 30.5119 132.269L27.9961 133.887Z" fill="#02A2B0"/>
<path d="M27.9961 133.886L28.2275 130.776C28.2802 130.805 28.3345 130.832 28.3872 130.861C29.0369 131.145 29.7393 131.122 30.4257 130.952C31.2095 130.754 31.9566 130.356 32.635 129.935C34.8571 128.563 36.9355 126.94 38.9628 125.304C39.6907 124.726 40.449 124.11 40.8305 123.265C40.9678 122.965 41.0492 122.622 41.0636 122.285L44.1285 123.543L30.5103 132.267L27.9961 133.886Z" fill="#027F8A"/>
<path opacity="0.19" d="M30.3959 130.342C32.6036 129.349 34.6086 127.882 36.2528 126.108C36.6934 125.633 37.1308 125.083 37.1579 124.435C37.1978 123.508 36.4092 122.781 35.6845 122.199C34.7682 121.465 33.6779 120.689 32.527 120.927C31.3553 121.168 30.6417 122.379 30.3496 123.54C30.0032 124.919 29.4174 126.648 29.486 128.062C29.5259 128.883 29.8212 129.721 30.4422 130.259L30.3959 130.342Z" fill="white"/>
<path d="M39.2996 222.289L37.2579 219.933L28.4766 209.804L37.4239 206.05L40.2829 204.843L43.3367 203.555L39.9254 219.365L39.2996 222.289Z" fill="#02C5D6"/>
<path d="M39.2996 222.29L37.2563 219.934L28.4766 209.805L37.4224 206.051C37.1765 206.303 36.9801 206.573 36.7854 206.867C35.1811 209.28 35.213 212.586 36.4901 215.201C37.0871 216.454 37.9395 217.549 38.9308 218.499C39.2469 218.797 39.5742 219.083 39.9254 219.366L39.2996 222.29Z" fill="#02A2B0"/>
<path d="M39.3011 222.287L37.2578 219.931C37.3153 219.913 37.3728 219.896 37.4302 219.876C38.0911 219.616 38.57 219.102 38.9308 218.494C39.3426 217.798 39.5884 216.989 39.7656 216.21C40.3594 213.667 40.6739 211.047 40.9421 208.456C41.0459 207.532 41.1432 206.56 40.8128 205.695C40.6963 205.387 40.5111 205.086 40.2828 204.837L43.3366 203.551L39.9252 219.359L39.3011 222.287Z" fill="#027F8A"/>
<path opacity="0.19" d="M38.4802 218.093C39.3326 215.828 39.7046 213.371 39.6072 210.956C39.5801 210.308 39.4987 209.61 39.0597 209.135C38.4307 208.453 37.358 208.499 36.4353 208.603C35.2684 208.734 33.9498 208.962 33.3065 209.944C32.652 210.946 33.008 212.305 33.6258 213.331C34.3601 214.549 35.1742 216.184 36.2246 217.132C36.8344 217.683 37.6374 218.064 38.4563 218.002L38.4802 218.093Z" fill="white"/>
<path d="M16.0625 169.584L19.0412 168.663L31.8501 164.707L31.6825 174.408L31.6346 177.513L31.5819 180.827L18.4873 171.333L16.0625 169.584Z" fill="#02C5D6"/>
<path d="M16.0625 169.584L19.0412 168.663L31.8501 164.707L31.6825 174.408C31.5516 174.081 31.3824 173.793 31.1924 173.496C29.6296 171.056 26.5918 169.753 23.6833 169.868C22.2961 169.909 20.9504 170.248 19.6814 170.773C19.2807 170.942 18.888 171.127 18.4873 171.333L16.0625 169.584Z" fill="#02A2B0"/>
<path d="M16.0625 169.581L19.0412 168.66C19.0348 168.719 19.0285 168.78 19.0205 168.839C18.9933 169.548 19.2695 170.193 19.6814 170.771C20.1523 171.428 20.794 171.979 21.4357 172.455C23.5237 174.022 25.7952 175.365 28.0572 176.655C28.8618 177.121 29.711 177.603 30.6369 177.649C30.9657 177.667 31.3153 177.617 31.6346 177.509L31.5819 180.823L18.4873 171.331L16.0625 169.581Z" fill="#027F8A"/>
<path opacity="0.19" d="M20.2344 170.516C21.9648 172.208 24.0624 173.54 26.3132 174.422C26.9166 174.659 27.5886 174.865 28.2016 174.655C29.0796 174.354 29.4691 173.354 29.7453 172.469C30.0949 171.348 30.4189 170.049 29.7772 169.065C29.1243 168.063 27.7371 167.841 26.5495 167.992C25.1383 168.173 23.3153 168.261 22.0239 168.84C21.2752 169.177 20.6016 169.758 20.3286 170.532L20.2344 170.516Z" fill="white"/>
<path d="M68.1599 87.3164C68.1599 87.3164 68.2541 88.1752 68.3419 89.7987C68.4089 91.4189 68.5255 93.8182 68.1503 96.8592C67.9652 98.3773 67.6634 100.053 67.1638 101.845C67.0249 102.287 66.9036 102.748 66.7376 103.203L66.4885 103.917L66.214 104.595C65.8756 105.506 65.4031 106.455 64.9162 107.44C62.8953 111.264 59.7585 115.113 55.7405 118.556C51.7561 122.04 46.9544 125.192 41.8653 128.262C36.8018 131.373 31.4541 134.569 26.6604 138.624C24.2882 140.651 22.0231 142.932 20.2192 145.467L19.4977 146.489L18.9182 147.464C18.5127 148.088 18.1759 148.819 17.8135 149.519C17.4496 150.219 17.1782 150.967 16.8509 151.688C16.586 152.434 16.313 153.182 16.0815 153.94C15.1988 156.985 14.838 160.201 15.2498 163.269C15.692 166.329 17.033 169.15 19.1465 171.292C19.6924 171.803 20.291 172.295 20.8561 172.771C21.2153 173.036 21.5521 173.269 21.865 173.478L22.893 174.139C24.2914 175.009 25.7872 175.816 27.3037 176.667C28.0635 177.093 28.8297 177.529 29.5944 177.989L30.7373 178.703L31.3056 179.076L31.5882 179.266L31.6584 179.314L31.8213 179.432L31.9474 179.531L33.9651 181.116L34.4696 181.517L34.974 182.01L35.9765 183.001L36.971 183.996C37.2759 184.339 37.5425 184.7 37.8282 185.051C38.3742 185.769 38.9871 186.438 39.4692 187.195L40.882 189.476C41.3369 190.241 41.6738 191.066 42.0712 191.855C43.5223 195.066 44.5583 198.432 44.9366 201.827C45.3596 205.205 45.3932 208.597 44.7914 211.826C44.6046 213.458 44.0794 215.008 43.6899 216.558C43.4281 217.314 43.1248 218.053 42.847 218.793L42.4208 219.894L41.8829 220.94C41.5237 221.632 41.1661 222.319 40.8101 223.002C40.3807 223.641 39.9545 224.276 39.5315 224.905L38.8977 225.842L38.1698 226.699C37.6814 227.261 37.1961 227.82 36.7156 228.372C34.7106 230.468 32.5508 232.205 30.4708 233.796C28.3796 235.38 26.3491 236.825 24.4431 238.196C22.5387 239.561 20.8194 240.906 19.5535 242.455C18.915 243.221 18.4026 244.037 18.0338 244.878C17.9955 244.963 17.9253 245.133 17.9125 245.146L17.8056 245.494L17.5964 246.179C17.5693 246.594 17.4336 246.971 17.4703 247.402C17.4496 249.086 18.0338 250.647 18.8607 251.833C20.5289 254.253 22.7861 255.342 24.3185 255.693C25.096 255.872 25.7201 255.926 26.1352 255.901C26.5534 255.891 26.7705 255.886 26.7705 255.886C26.7705 255.886 26.555 255.91 26.1383 255.957C25.7233 256.019 25.0896 256.02 24.2786 255.907C22.6935 255.671 20.1953 254.81 18.2302 252.293C17.2548 251.065 16.471 249.391 16.3625 247.419C16.2922 246.939 16.4088 246.396 16.4391 245.866L16.6051 245.165L16.6897 244.811L16.835 244.396C17.1926 243.408 17.7178 242.444 18.3691 241.545C19.6653 239.732 21.426 238.175 23.2618 236.667C25.1024 235.153 27.0706 233.646 29.0341 231.996C30.9928 230.345 32.9786 228.581 34.7457 226.546C35.1608 226.026 35.5774 225.5 35.9988 224.972L36.6326 224.179L37.1753 223.307C37.5393 222.726 37.9048 222.142 38.2736 221.553C38.5721 220.924 38.8738 220.292 39.1755 219.653L39.632 218.697L39.9801 217.685C40.2083 217.008 40.4605 216.334 40.6745 215.645C40.9714 214.225 41.4088 212.822 41.5205 211.338C41.9483 208.409 41.8924 205.35 41.4359 202.319C41.0384 199.27 40.0359 196.275 38.6918 193.449C37.386 190.614 35.4433 187.974 33.2899 185.792L32.4789 184.984L32.0751 184.577L31.5738 184.184L29.5449 182.614L29.4172 182.515C29.3757 182.483 29.5545 182.615 29.4491 182.54L29.3868 182.499L29.1346 182.331L28.6254 182.001L27.5782 181.357C26.8663 180.937 26.1351 180.526 25.3897 180.115C23.8971 179.292 22.3487 178.473 20.8066 177.528C20.4187 177.295 20.042 177.05 19.6493 176.795C19.2407 176.525 18.8671 176.267 18.5287 176.022C17.7592 175.405 17.0122 174.8 16.3066 174.124C13.5561 171.331 11.8497 167.576 11.3484 163.82C10.8679 160.046 11.3421 156.308 12.3733 152.833C12.6415 151.966 12.9559 151.117 13.2672 150.271C13.6423 149.452 13.952 148.604 14.383 147.817C14.8109 147.025 15.1972 146.235 15.7176 145.456L16.4567 144.291L17.2005 143.282C19.3316 140.42 21.8091 138.049 24.4 135.918C29.5912 131.667 35.2007 128.631 40.3456 125.692C45.5129 122.775 50.2795 119.955 54.2751 116.791C58.2627 113.641 61.4602 110.208 63.6232 106.707C64.126 105.832 64.6272 104.986 65.0359 104.075L65.3536 103.415L65.6186 102.788C65.8054 102.363 65.949 101.929 66.1118 101.512C66.7041 99.8236 67.1032 98.2145 67.3809 96.7427C67.9141 93.7943 68.0689 91.4189 68.1248 89.8035C68.1774 88.1832 68.1599 87.3164 68.1599 87.3164Z" fill="#FF9800"/>
<path d="M124.571 63.9071C124.571 63.9071 124.442 63.9965 124.194 64.1593C124.183 64.1673 124.177 64.1689 124.165 64.1769L124.159 64.1785C124.132 64.2009 124.11 64.2168 124.076 64.2424C123.784 64.4387 123.362 64.7165 122.828 65.0756C122.609 65.2225 122.366 65.3853 122.108 65.5577C122.101 65.5593 122.095 65.5593 122.09 65.5673C121.91 65.6838 121.725 65.8067 121.527 65.9376C121.257 66.118 120.971 66.3128 120.661 66.5171C119.542 67.2626 118.219 68.139 116.728 69.1239C116.516 69.2708 116.3 69.4097 116.082 69.5565C113.785 71.0746 111.128 72.8306 108.272 74.7046C107.62 75.1325 106.949 75.5746 106.274 76.02C105.813 76.3233 105.338 76.6298 104.866 76.9411C104.478 77.1965 104.088 77.4455 103.694 77.7073C103.306 77.9627 102.917 78.2166 102.516 78.4736C102.257 78.646 101.997 78.812 101.739 78.9828C99.8167 80.2359 97.8485 81.5082 95.8866 82.7788C95.5322 83.0103 95.1699 83.2418 94.8155 83.4716C92.1417 85.1925 89.4774 86.9005 86.9233 88.5208C86.6407 88.6964 86.3566 88.872 86.082 89.054C82.4312 91.3607 79.0215 93.4662 76.1529 95.1806C75.7953 95.393 75.4425 95.6053 75.1025 95.808C74.5678 96.1241 74.0553 96.4226 73.5653 96.7067C73.3992 96.8009 73.2396 96.8887 73.08 96.9829C72.9028 97.0851 72.732 97.1808 72.5612 97.2766C72.384 97.3788 72.2068 97.4762 72.0423 97.5704L72.036 97.5719C71.8987 97.6502 71.7678 97.7204 71.6353 97.7906C71.3096 97.9726 70.9999 98.1402 70.7078 98.2935C70.1794 98.5713 69.7085 98.8139 69.3031 99.0038C68.2271 99.5115 67.5966 99.6935 67.5296 99.4732C67.4737 99.2768 67.2901 98.7149 67.0139 97.8385C66.9772 97.7204 66.9373 97.5959 66.8926 97.4666C66.8447 97.3181 66.7937 97.1585 66.7426 96.9925C66.4856 96.1991 66.1775 95.2413 65.8215 94.1462C65.6938 93.7743 65.5693 93.3848 65.4368 92.9825C65.4368 92.9825 65.4368 92.9825 65.4352 92.9761C61.8195 81.8673 54.5642 59.6865 51.6286 50.7231C51.6063 50.6641 51.5919 50.605 51.5696 50.5523C51.2726 49.6296 51.0188 48.8602 50.8241 48.2568L50.8224 48.2504C50.7283 47.9727 50.6469 47.7316 50.583 47.5289C50.4872 47.2447 50.4234 47.0372 50.3867 46.9255C50.3627 46.8552 50.3516 46.8185 50.3516 46.8185C50.3516 46.8185 50.5623 46.6605 50.9566 46.3604C51.5632 45.9086 52.5896 45.1344 53.9624 44.1016C62.0446 38.0212 81.9922 22.9711 95.9297 12.0602C99.3538 9.38478 102.414 6.95519 104.847 4.97416C105.468 4.46493 106.052 3.98603 106.59 3.53906L106.596 3.53745C106.668 3.47679 106.738 3.41455 106.81 3.36027C107.714 2.59404 108.491 1.92836 109.096 1.38402C109.789 0.769434 110.273 0.293723 110.512 0C110.501 0.518804 110.632 1.56759 110.873 3.04099C110.961 3.55022 111.055 4.10735 111.165 4.71236C111.277 5.29821 111.388 5.92075 111.519 6.58482C111.561 6.80192 111.609 7.03021 111.652 7.25369C111.743 7.71184 111.839 8.18754 111.934 8.67761C111.989 8.93621 112.041 9.19482 112.089 9.45502C112.188 9.91795 112.284 10.4 112.386 10.8885C112.557 11.7202 112.742 12.5742 112.929 13.465C113.022 13.8912 113.109 14.3254 113.205 14.7644C113.24 14.9081 113.271 15.0581 113.301 15.2034C113.433 15.7988 113.561 16.4006 113.695 17.0072C113.714 17.0918 113.735 17.1748 113.748 17.2594C113.931 18.0943 114.117 18.9483 114.311 19.8135L114.318 19.8503C114.444 20.409 114.565 20.9741 114.694 21.5456C114.881 22.3677 115.066 23.2089 115.256 24.0502C115.328 24.3806 115.406 24.7175 115.478 25.0479C115.531 25.2634 115.579 25.4805 115.627 25.7024C115.777 26.3696 115.933 27.0417 116.085 27.7137C116.292 28.6205 116.498 29.5272 116.706 30.4402C116.789 30.8058 116.873 31.173 116.956 31.5385C117.062 32.0015 117.166 32.4628 117.277 32.9241C117.421 33.5483 117.563 34.1725 117.707 34.7966C117.788 35.151 117.87 35.5054 117.951 35.8582C118.072 36.3866 118.194 36.9086 118.313 37.4306C118.449 38.0068 118.577 38.5767 118.711 39.1402C118.845 39.7101 118.974 40.28 119.107 40.8371C119.207 41.2697 119.306 41.6959 119.405 42.1205C119.459 42.3424 119.512 42.5579 119.56 42.7798C119.71 43.404 119.852 44.0281 119.994 44.6395C120.092 45.053 120.187 45.4616 120.283 45.8687C120.457 46.6062 120.628 47.3261 120.797 48.0333C120.962 48.7485 121.129 49.4492 121.294 50.1309C121.42 50.6832 121.549 51.2292 121.678 51.7623C121.932 52.8414 122.176 53.8727 122.406 54.8384L122.408 54.8448C122.641 55.8345 122.863 56.7572 123.067 57.6144C123.513 59.4726 123.873 60.9891 124.134 62.0666C124.411 63.2558 124.571 63.9071 124.571 63.9071Z" fill="#FF9800"/>
<path d="M123.781 61.902C112.554 59.6256 101.327 57.3477 90.0986 55.0713C89.8799 55.025 89.6676 54.9851 89.4489 54.9388C88.3682 54.7201 87.1103 54.3594 86.7272 53.3265C86.4351 52.5523 86.7607 51.7031 87.0752 50.9496C87.1981 50.6623 87.3194 50.3749 87.4424 50.0892C94.2347 33.9791 101.417 18.043 108.989 2.29853C108.996 1.99204 109.029 1.68875 109.093 1.39183C109.786 0.777246 110.27 0.301536 110.509 0.0078125C110.498 0.526617 110.629 1.5754 110.87 3.0488C110.958 3.55803 111.052 4.11514 111.162 4.72015C111.248 5.18627 111.339 5.66836 111.433 6.18238C111.461 6.31487 111.489 6.45376 111.518 6.59264C111.56 6.80974 111.607 7.03802 111.651 7.26151C111.742 7.71965 111.837 8.19535 111.933 8.68542C111.987 8.94403 112.04 9.20263 112.088 9.46283C112.187 9.92576 112.283 10.4078 112.385 10.8963C112.556 11.728 112.741 12.582 112.928 13.4728C113.02 13.899 113.108 14.3332 113.204 14.7722C113.239 14.9158 113.269 15.0659 113.3 15.2112C113.432 15.8066 113.56 16.4084 113.694 17.015C113.713 17.0996 113.734 17.1826 113.747 17.2672C113.93 18.1021 114.115 18.9561 114.31 19.8214L114.316 19.8581C114.443 20.4168 114.564 20.9819 114.693 21.5533C114.88 22.3755 115.065 23.2167 115.255 24.058C115.327 24.3884 115.405 24.7252 115.477 25.0557C115.53 25.2712 115.578 25.4883 115.625 25.7102C115.775 26.3774 115.932 27.0495 116.084 27.7216C116.291 28.6283 116.497 29.535 116.705 30.4481C116.788 30.8136 116.872 31.1808 116.955 31.5463C117.061 32.0093 117.164 32.4706 117.276 32.9319C117.42 33.5561 117.562 34.1803 117.705 34.8044C117.787 35.1588 117.868 35.5132 117.95 35.866C118.071 36.3943 118.192 36.9163 118.312 37.4383C118.448 38.0146 118.575 38.5845 118.71 39.148C118.844 39.7179 118.973 40.2878 119.105 40.8449C119.206 41.2775 119.305 41.7037 119.404 42.1283C119.458 42.3502 119.511 42.5657 119.559 42.7876C119.709 43.4118 119.851 44.0359 119.993 44.6473C120.09 45.0608 120.186 45.4694 120.282 45.8765C120.456 46.614 120.627 47.3339 120.796 48.0411C120.96 48.7563 121.128 49.4571 121.292 50.1387C121.418 50.691 121.548 51.2369 121.677 51.7701C121.931 52.8492 122.175 53.8804 122.405 54.8462L122.407 54.8526C122.64 55.8423 122.861 56.765 123.066 57.6222C123.163 58.1969 123.261 58.7668 123.353 59.3431C123.497 60.1987 123.64 61.0543 123.781 61.902Z" fill="#02C5D6"/>
<path d="M124.194 64.1647C124.183 64.1727 124.177 64.1743 124.166 64.1823C124.138 64.2046 124.11 64.2222 124.076 64.2461C123.806 64.4265 123.43 64.6787 122.952 64.998C122.912 65.0235 122.868 65.0555 122.829 65.0794C122.611 65.2263 122.368 65.3827 122.109 65.5615C122.103 65.5631 122.097 65.5631 122.092 65.5711C121.911 65.6876 121.726 65.8105 121.528 65.9414C121.259 66.1218 120.973 66.3165 120.663 66.5209C119.544 67.2664 118.221 68.1427 116.73 69.1277C116.517 69.2745 116.302 69.4134 116.083 69.5603C113.786 71.0784 111.13 72.8343 108.274 74.7084C107.621 75.1362 106.951 75.5784 106.276 76.0238C105.814 76.3271 105.34 76.6336 104.868 76.9448C104.48 77.2003 104.09 77.4493 103.696 77.7111C103.308 77.9665 102.918 78.2203 102.518 78.4773C102.259 78.6497 101.999 78.8157 101.74 78.9866C99.8184 80.2397 97.8501 81.5119 95.8882 82.7826C95.5339 83.0141 95.1715 83.2455 94.8171 83.4754C92.1433 85.1962 89.479 86.9043 86.9249 88.5246C86.6424 88.7001 86.3582 88.8757 86.0836 89.0577C82.4329 91.3644 79.0231 93.47 76.1545 95.1844C75.7969 95.3967 75.4442 95.609 75.1042 95.8118C74.5694 96.1278 74.057 96.4264 73.5669 96.7105C73.4009 96.8047 73.2413 96.8925 73.0816 96.9867C72.9044 97.0888 72.7336 97.1846 72.5628 97.2804C72.3856 97.3825 72.2084 97.4799 72.044 97.5741L72.0376 97.5757C71.9004 97.6539 71.7695 97.7242 71.637 97.7944C71.3113 97.9764 71.0016 98.144 70.7095 98.2972C70.5946 98.3595 70.4796 98.4154 70.3695 98.4697C69.9736 98.682 69.6224 98.8559 69.3047 99.0076C68.2288 99.5152 67.5983 99.6972 67.5312 99.4769C67.4754 99.2806 67.2918 98.7187 67.0156 97.8423C67.7276 96.1789 68.4443 94.5092 69.1547 92.8474C71.4023 87.5987 73.6515 82.3548 75.9007 77.1045C75.9151 77.0774 75.9231 77.0518 75.9374 77.0247C77.5864 73.1712 79.2354 69.3112 80.8844 65.4513C81.3426 64.3882 81.7976 63.333 82.2493 62.2715C82.5973 61.451 82.9964 60.5969 83.4657 59.8004L83.4641 59.794C84.4682 58.0907 85.8011 56.6588 87.688 56.4321C88.5803 56.3268 89.4758 56.5199 90.3522 56.7163C101.63 59.1986 112.91 61.6856 124.194 64.1647Z" fill="#FF4364"/>
<path d="M106.591 3.54297C106.484 3.84627 106.371 4.15117 106.257 4.45447C102.129 15.8155 97.1885 26.8892 91.4785 37.5446C91.4785 37.5446 91.4673 37.5526 91.4689 37.559C89.4272 41.3758 87.285 45.1399 85.0517 48.8498C84.4866 49.7916 83.8656 50.7749 82.8887 51.2794C82.1177 51.6768 81.254 51.7152 80.3824 51.6417C80.3761 51.6433 80.3761 51.6433 80.3761 51.6433C79.9546 51.6114 79.5332 51.5475 79.1245 51.4821C72.8175 50.4796 66.5104 49.4819 60.2034 48.4858C60.1459 48.4762 60.0948 48.4714 60.0373 48.4619C59.1689 48.3198 58.3006 48.1857 57.4322 48.0436C57.4002 48.042 57.3763 48.0404 57.3428 48.0325C56.4808 47.8968 55.6187 47.7595 54.7567 47.6238C53.3008 47.3891 51.8402 47.1625 50.3828 46.9278C50.3588 46.8576 50.3477 46.8208 50.3477 46.8208C50.3477 46.8208 50.5584 46.6628 50.9527 46.3627C51.3805 46.045 52.0078 45.5725 52.8251 44.9627C53.1684 44.6961 53.5467 44.412 53.957 44.1039C62.0391 38.0235 81.9867 22.9734 95.9242 12.0625C98.1096 10.3577 100.143 8.75016 101.965 7.29592C102.998 6.47221 103.962 5.69483 104.843 4.97648C105.47 4.46726 106.053 3.98834 106.591 3.54297Z" fill="#D6D534"/>
<path d="M123.781 61.902C112.554 59.6256 101.327 57.3477 90.0986 55.0713C89.8799 55.025 89.6676 54.9851 89.4489 54.9388C88.3682 54.7201 87.1103 54.3594 86.7272 53.3265C86.4351 52.5523 86.7607 51.7031 87.0752 50.9496C87.1981 50.6623 87.3194 50.3749 87.4424 50.0892C94.2347 33.9791 101.417 18.043 108.989 2.29853C108.996 1.99204 109.029 1.68875 109.093 1.39183C109.786 0.777246 110.27 0.301536 110.509 0.0078125C110.498 0.526617 110.629 1.5754 110.87 3.0488C110.958 3.55803 111.052 4.11514 111.162 4.72015C111.248 5.18627 111.339 5.66836 111.433 6.18238C110.46 8.7764 109.033 11.2938 107.669 13.7026C102.37 23.0667 97.6349 32.7388 93.0279 42.4652C91.9152 44.8149 90.8409 47.7426 92.3495 49.8657C93.328 51.2401 95.0871 51.7749 96.725 52.1724C102.39 53.558 108.183 54.3753 113.833 55.82C117.115 56.658 120.336 57.8122 123.35 59.3463C123.497 60.1987 123.64 61.0543 123.781 61.902Z" fill="#02A2B0"/>
<path d="M124.196 64.1622C124.185 64.1702 124.178 64.1718 124.167 64.1798C124.14 64.2021 124.111 64.2197 124.078 64.2436C123.808 64.424 123.431 64.6762 122.954 64.9955C122.63 64.9109 122.349 64.8311 122.17 64.8039C119.897 64.4016 117.629 63.9914 115.36 63.5764C110.784 62.7335 106.208 61.8635 101.646 60.9616C98.768 60.3949 95.8691 59.8122 92.9335 59.7835C91.1025 59.7707 89.1678 60.0054 87.6992 61.0989C86.7861 61.7741 86.1188 62.7383 85.5202 63.7057C83.421 67.0835 81.8822 70.7758 80.3593 74.4473C77.0262 82.4528 73.701 90.468 70.3695 98.4735C69.9736 98.6859 69.6224 98.8598 69.3047 99.0115C68.2288 99.5191 67.5983 99.7011 67.5312 99.4808C67.4754 99.2845 67.2918 98.7226 67.0156 97.8462C67.7276 96.1828 68.4443 94.5131 69.1547 92.8513C71.4023 87.6026 73.6515 82.3587 75.9008 77.1084C75.9151 77.0812 75.9231 77.0557 75.9374 77.0286C77.5864 73.175 79.2354 69.3151 80.8844 65.4552C81.3426 64.3921 81.7976 63.3369 82.2493 62.2753C82.5973 61.4548 82.9964 60.6008 83.4657 59.8043L83.4641 59.7979C84.4682 58.0946 85.8011 56.6627 87.688 56.436C88.5803 56.3307 89.4758 56.5238 90.3522 56.7202C101.632 59.1961 112.911 61.6831 124.196 64.1622Z" fill="#EB3E5C"/>
<path d="M106.591 3.54297C106.484 3.84627 106.371 4.15117 106.257 4.45447C102.129 15.8155 97.1885 26.8892 91.4785 37.5446C91.4785 37.5446 91.4673 37.5526 91.4689 37.559C89.4272 41.3758 87.285 45.1399 85.0517 48.8498C84.4866 49.7916 83.8656 50.7749 82.8887 51.2794C82.1177 51.6768 81.254 51.7152 80.3824 51.6417C80.3761 51.6433 80.3761 51.6433 80.3761 51.6433C79.9546 51.6114 79.5332 51.5475 79.1245 51.4821C72.8175 50.4796 66.5104 49.4819 60.2034 48.4858C60.1459 48.4762 60.0948 48.4714 60.0373 48.4619C59.1689 48.3198 58.3006 48.1857 57.4322 48.0436C57.4002 48.042 57.3763 48.0404 57.3428 48.0325C56.4808 47.8968 55.6187 47.7595 54.7567 47.6238C53.3008 47.3891 51.8402 47.1625 50.3828 46.9278C50.3588 46.8576 50.3477 46.8208 50.3477 46.8208C50.3477 46.8208 50.5584 46.6628 50.9527 46.3627C51.3805 46.045 52.0078 45.5725 52.8251 44.9627C56.6627 45.5757 60.4332 46.666 64.2357 47.4961C69.3168 48.6071 74.6884 49.2488 79.6513 47.7116C80.8725 47.3365 82.0729 46.8209 83.0579 46.0099C83.9374 45.2852 84.6175 44.3545 85.2576 43.4191C88.6977 38.3843 91.2614 32.8163 93.7117 27.2308C96.293 21.3436 98.7625 15.4116 101.112 9.43021C101.39 8.71984 101.676 8.00947 101.966 7.29592C102.999 6.47221 103.963 5.69483 104.844 4.97648C105.47 4.46726 106.053 3.98834 106.591 3.54297Z" fill="#ADAD2A"/>
<path d="M82.7304 58.3055C82.0264 60.0551 80.8866 61.6802 80.0645 63.3978C79.1307 65.3453 78.2383 67.3168 77.3795 69.3026C75.3442 74.0197 73.5164 78.8534 71.8594 83.7174C70.7452 86.9882 69.5575 90.2256 68.29 93.4342C68.0506 94.044 67.5589 95.7903 66.8933 97.4713C66.8454 97.3228 66.7943 97.1632 66.7432 96.9972C66.4862 96.2038 66.1781 95.246 65.8221 94.1509C66.4622 92.6679 67.0625 91.1658 67.6292 89.6509C69.0499 85.8085 70.2136 81.872 71.1187 77.8748C72.5794 71.3954 75.764 65.1937 78.2622 59.051C78.6517 58.0996 79.0444 57.054 78.7443 56.0691C78.4937 55.2438 77.7802 54.6244 76.9884 54.2716C73.0742 52.5508 68.373 52.4917 64.1715 52.0559C60.4824 51.6744 56.795 51.2913 53.1059 50.9098C52.7579 50.8715 52.2326 50.8188 51.6276 50.7294C51.6053 50.6703 51.5909 50.6113 51.5686 50.5586C51.2717 49.6359 51.0178 48.8665 50.8231 48.2631L50.8215 48.2567C50.7273 47.9789 50.6459 47.7379 50.582 47.5352C59.7752 49.5832 69.2303 50.3511 78.449 52.3209C80.1108 52.6785 81.9577 53.2165 82.7575 54.7138C83.3449 55.8057 83.1949 57.1626 82.7304 58.3055Z" fill="#E88A00"/>
<path d="M121.5 51.0326L109.551 7.0428L101.609 17.9776L109.098 1.39183L110.514 0.0078125L121.5 51.0326Z" fill="#02EBFF"/>
<path d="M70.8607 88.8613L66.8906 97.4719L67.5291 99.4801L97.5767 81.6875L70.8239 94.7869L70.8607 88.8613Z" fill="#FF9CAD"/>
<path d="M50.957 46.3643L106.59 3.54297L98.4396 23.5209L101.115 9.43181L50.957 46.3643Z" fill="#F7F63C"/>
<path d="M50.8281 48.25L61.6512 81.3561L54.0783 51.5192L68.7947 50.595L50.8281 48.25Z" fill="#FFCE85"/>
<path opacity="0.22" d="M72.5453 52.3009C74.0634 52.534 75.6102 52.8085 76.9575 53.5444C78.3048 54.2819 79.4414 55.5718 79.6026 57.0995C79.7175 58.1977 79.3296 59.28 78.9481 60.3176C77.1347 65.2375 75.3213 70.1558 73.5079 75.0756C71.7327 79.8917 69.9305 84.7605 67.0508 89.0083C64.6483 86.6713 65.5007 82.6981 66.5272 79.507C67.3844 76.8428 68.24 74.1801 69.0972 71.5158C69.8874 69.0591 70.684 66.5624 70.7702 63.9844C70.8117 62.7249 70.668 61.4143 70.0215 60.332C69.3894 59.2752 68.3374 58.5345 67.2407 57.9742C64.8398 56.7451 62.1452 56.2342 59.6087 55.3179C57.6181 54.598 55.1358 53.4503 54.0742 51.5203C55.2156 50.0261 60.9767 51.1101 62.8109 51.233C66.0674 51.4501 69.3175 51.806 72.5453 52.3009Z" fill="white"/>
<path opacity="0.22" d="M92.6963 43.8756C92.1232 45.8343 91.6779 48.1633 92.9741 49.7405C93.6557 50.569 94.6917 51.0064 95.6846 51.4118C103.893 54.7657 112.349 58.1722 121.216 58.2616C120.801 54.812 118.198 51.9674 115.217 50.1795C112.237 48.3916 108.846 47.4386 105.617 46.1551C104.466 45.697 103.312 45.183 102.394 44.3513C99.4535 41.6886 99.9739 36.8949 101.548 33.2537C103.835 27.9666 107.775 23.489 109.779 18.0886C110.157 17.0686 110.462 15.9208 110.055 14.9103C108.522 11.1047 105.48 16.5881 104.691 17.8013C102.918 20.5246 101.278 23.3341 99.7824 26.2187C96.8611 31.8585 94.481 37.7792 92.6963 43.8756Z" fill="white"/>
<path opacity="0.22" d="M80.4108 72.3536C81.4436 69.7197 82.51 67.0283 84.3777 64.9036C87.1521 61.7477 91.4366 60.212 95.6365 60.038C99.8349 59.8656 103.988 60.9208 107.978 62.2457C109.384 62.7119 110.98 63.4318 111.3 64.8781C107.251 66.393 102.71 64.8429 98.4237 65.4065C94.0402 65.9811 90.1915 68.7667 87.3995 72.194C84.6076 75.6213 82.7239 79.6808 80.8466 83.6843C78.757 88.1397 76.4631 92.8281 72.2887 95.6967C70.3333 94.0429 74.5188 87.3862 75.2866 85.4275C76.9947 81.0696 78.7027 76.7116 80.4108 72.3536Z" fill="white"/>
<path opacity="0.22" d="M76.7119 46.8775C77.906 46.7593 79.1128 46.6013 80.2174 46.1352C82.3741 45.2253 83.8826 43.2682 85.2491 41.367C88.2805 37.1447 91.1156 32.7819 93.7431 28.2979C95.1606 25.8795 96.551 23.3062 96.666 20.5046C96.6899 19.9268 96.6356 19.293 96.2381 18.8748C95.3985 17.9904 93.9187 18.7503 93.063 19.6171C88.5901 24.1522 87.2333 30.9334 83.3845 36.0097C79.8439 40.679 74.1738 43.6641 68.32 43.9386C64.591 44.1142 60.8381 43.2698 57.1394 44.0392C56.552 47.9917 74.0988 47.1345 76.7119 46.8775Z" fill="white"/>
<path d="M58.2488 116.137L58.1882 119.254L57.9296 132.657L48.7699 129.456L45.8374 128.438L42.707 127.349L55.8256 117.891L58.2488 116.137Z" fill="#FF4364"/>
<path d="M58.2508 116.137L58.1917 119.254L57.9331 132.657L48.7734 129.456C49.1246 129.434 49.4519 129.365 49.7919 129.276C52.5998 128.558 54.7884 126.08 55.5913 123.282C55.9872 121.952 56.0878 120.568 55.9872 119.198C55.9521 118.766 55.8994 118.335 55.8292 117.889L58.2508 116.137Z" fill="#EB3E5C"/>
<path d="M58.2551 116.137L58.196 119.254C58.1417 119.229 58.0858 119.205 58.0315 119.179C57.3675 118.93 56.6667 118.993 55.9915 119.202C55.2189 119.443 54.4941 119.88 53.8412 120.338C51.6973 121.829 49.7115 123.564 47.7768 125.309C47.0824 125.927 46.3592 126.583 46.024 127.447C45.9043 127.753 45.8404 128.101 45.8452 128.438L42.7148 127.349L55.8334 117.891L58.2551 116.137Z" fill="#C4344D"/>
<path opacity="0.19" d="M56.0535 119.805C53.9033 120.917 51.9829 122.493 50.4376 124.353C50.0242 124.851 49.6171 125.424 49.6251 126.072C49.6363 126.999 50.4648 127.683 51.2183 128.224C52.1729 128.907 53.3047 129.62 54.4397 129.322C55.597 129.017 56.2419 127.767 56.4701 126.592C56.7415 125.195 57.23 123.438 57.0847 122.028C57.0001 121.211 56.6585 120.391 56.0088 119.888L56.0535 119.805Z" fill="white"/>
</svg>
