<svg width="203" height="257" viewBox="0 0 203 257" fill="none" xmlns="http://www.w3.org/2000/svg">
<path d="M89.4256 91.5573H109.872L113.784 75.4591L105.895 81.9702L99.6696 73.9727L93.4444 81.4743L85.8242 75.4591L89.4256 91.5573Z" fill="#B58759"/>
<path d="M163.436 44.4336V98.2128C163.436 132.334 135.68 160.093 101.562 160.093C67.4407 160.093 39.6804 132.334 39.6804 98.2128V44.7363C36.3714 46.2472 27.06 59.2515 25.5117 75.6936V98.2115C25.5117 140.146 59.6274 174.26 101.562 174.26C143.492 174.26 177.605 140.146 177.605 98.2115V75.0766C176.435 58.2275 165.706 46.4662 163.436 44.4336Z" fill="#C9363C"/>
<path d="M120.918 241.921H137.864L130.636 232.12V208.13L166.917 256.09H106.783L106.665 185.244C113.886 184.307 120.195 183.714 129.297 180.653C163.994 168.978 188.518 136.046 188.518 98.2119V79.2761C188.518 45.2004 165.822 27.827 152.535 20.5752V98.2119C152.535 111.457 147.457 123.538 139.145 132.612C120.667 152.787 89.7144 154.794 68.8349 137.262C57.688 127.904 50.5908 113.872 50.5908 98.2119V20.5726C37.3044 27.8206 14.6023 45.1901 14.6023 79.2735C14.6023 84.0085 14.6023 98.2119 14.6023 98.2119C14.6023 130.358 32.3905 159.4 59.6523 174.429C75.6294 183.237 88.9918 184.278 96.4587 185.246L96.2874 256.09H36.1529L72.4338 208.13V232.12L65.2077 241.921H82.1535L82.2604 197.496C34.6871 188.293 0.434895 146.339 0.434895 98.2119C0.434895 98.2119 0.422001 82.732 0.477388 77.5733C0.723408 54.4551 10.3903 34.2879 27.9775 19.1648C40.352 8.5228 52.0734 3.98238 64.7608 0.574165V98.2119C64.7608 113.428 74.04 126.517 87.2362 132.114L93.5258 113.103H83.1955L89.3602 100.574H109.775L118.343 130.952C130.219 124.84 138.366 112.462 138.366 98.2106V0.0898438C145.892 2.3066 159.395 5.61951 175.145 19.1648C193.163 34.6576 202.687 55.4444 202.687 79.2748C202.687 84.0097 202.687 98.2106 202.687 98.2106C202.687 146.78 167.926 188.402 120.855 197.497L120.929 241.92H120.918V241.921Z" fill="#C9363C"/>
</svg>
