<svg width="178" height="257" viewBox="0 0 178 257" fill="none" xmlns="http://www.w3.org/2000/svg">
<path d="M114.915 203.92V209.964V233.054L93.2852 219.892V107.973H114.915V148.579V196.895V203.92ZM152.628 107.973C150.656 109.328 149.27 111.114 148.469 113.333C147.669 115.551 147.268 117.894 147.268 120.36V154.931C147.268 158.258 147.115 161.309 146.805 164.082C146.497 166.855 145.85 169.565 144.864 172.215C143.879 174.864 142.401 177.515 140.427 180.166C138.455 182.814 135.806 185.618 132.479 188.576C136.175 188.33 139.564 189.624 142.646 192.459C145.729 195.293 147.268 199.544 147.268 205.215C147.268 216.89 145.397 237.443 151.982 248.105C153.277 250.199 154.971 251.494 157.065 251.987C160.812 252.92 165.192 252.145 165.479 247.551C165.54 246.564 165.448 245.763 165.201 245.146C164.954 244.16 164.585 243.821 164.092 244.129C162.179 245.324 163.439 248.105 158.914 248.105C155.174 248.105 153.373 243.122 155.587 240.71C158.327 237.723 162.618 237.847 165.57 240.432C169.009 243.446 168.457 251.16 164.552 253.835C162.397 255.315 159.839 256.053 156.882 256.053C153.43 256.053 150.379 255.191 147.73 253.466C140.001 248.435 132.872 243.981 124.878 239.116C125.385 238.321 125.638 237.557 125.638 236.828V209.964V194.492V187.282V148.579V107.973H152.628V107.973Z" fill="black"/>
<path d="M62.8413 203.92V210.509V233.054L84.4712 219.892V107.973H62.8413V142.627V196.896V203.92ZM25.1282 107.973C27.0999 109.328 28.4862 111.114 29.2874 113.333C30.0867 115.551 30.4886 117.894 30.4886 120.36V154.931C30.4886 158.258 30.6412 161.309 30.9514 164.082C31.2589 166.855 31.9058 169.565 32.8924 172.215C33.8774 174.864 35.3555 177.515 37.3294 180.166C39.3013 182.814 41.9497 185.618 45.277 188.576C41.5807 188.33 38.1921 189.624 35.1106 192.459C32.0275 195.293 30.4886 199.544 30.4886 205.215C30.4886 216.89 32.3597 237.443 25.7744 248.105C24.4798 250.199 22.7853 251.494 20.6909 251.987C16.944 252.92 12.5638 252.145 12.2783 247.551C12.2167 246.564 12.3084 245.763 12.5556 245.146C12.802 244.16 13.1711 243.821 13.6646 244.129C15.577 245.324 14.3177 248.105 18.8417 248.105C22.5817 248.105 24.3833 243.122 22.1691 240.71C19.4288 237.723 15.1383 237.847 12.1866 240.432C8.74741 243.446 9.29977 251.16 13.204 253.835C15.359 255.315 17.9178 256.053 20.8743 256.053C24.3264 256.053 27.377 255.191 30.0257 253.466C37.7548 248.435 44.8841 243.981 52.8782 239.116C52.3717 238.321 52.1179 237.557 52.1179 236.828V210.51V194.491V187.282V142.627V107.973H25.1282V107.973Z" fill="black"/>
<path d="M46.7656 189.419L52.1282 180.133L71.237 191.163L65.8747 200.451L46.7656 189.419Z" fill="black"/>
<path d="M132.725 244.036L138.351 234.908L111.222 218.18L105.594 227.309L132.725 244.036Z" fill="black"/>
<path fill-rule="evenodd" clip-rule="evenodd" d="M25.3473 102.654L14.9175 50.167C14.1426 50.322 13.3298 50.4058 12.5091 50.4058C5.6818 50.4058 0.152344 44.8687 0.152344 38.0457C0.152344 31.2221 5.6818 25.6849 12.5091 25.6849C19.3321 25.6849 24.8654 31.2182 24.8654 38.0457C24.8654 41.9913 23.0183 45.5092 20.1322 47.771C25.1712 53.1747 32.7193 59.7883 42.8472 64.7224C61.1469 73.6355 76.4938 57.3 85.8806 24.4031C80.5067 23.0627 76.5231 18.1995 76.5231 12.4114C76.5231 5.58413 82.0522 0.0546875 88.8798 0.0546875C95.7071 0.0546875 101.236 5.58413 101.236 12.4114C101.236 18.1996 97.2522 23.0627 91.8785 24.4031C101.265 57.3 116.612 73.6356 134.912 64.7224C145.04 59.7883 152.588 53.1745 157.627 47.771C154.745 45.5092 152.893 41.9913 152.893 38.0457C152.893 31.2221 158.427 25.6849 165.254 25.6849C172.078 25.6849 177.606 31.2182 177.606 38.0457C177.606 44.8687 172.078 50.4058 165.254 50.4058C164.429 50.4058 163.617 50.322 162.842 50.167L152.412 102.654H25.3473Z" fill="black"/>
</svg>
