<svg width="257" height="214" viewBox="0 0 257 214" fill="none" xmlns="http://www.w3.org/2000/svg">
<path d="M157.632 187.953V188.003H157.383C157.483 188.003 157.566 187.986 157.632 187.953Z" fill="url(#paint0_linear_15_274)"/>
<path fill-rule="evenodd" clip-rule="evenodd" d="M256.551 131.509C244.872 101.065 243.525 132.258 233.593 132.757L181.44 140.542C176.749 141.241 172.207 138.795 170.061 134.603C166.767 128.365 162.425 124.921 157.933 124.921C139.218 128.814 138.27 160.455 142.961 176.426C128.887 177.324 117.159 176.526 89.4102 166.794C85.168 164.997 81.0756 163.45 76.4342 163.25C73.0405 163.15 24.0811 159.856 20.1883 159.807C9.75764 159.807 3.02011 164.198 0.624548 170.936C0.774271 163.15 -0.373606 155.614 2.9702 139.344C8.8593 141.54 3.36947 152.271 17.0442 154.516C31.5174 153.668 72.9407 162.352 84.8187 150.973C89.2106 147.729 93.7522 145.932 98.693 145.483C112.268 144.186 121.95 140.293 127.739 137.198C129.935 136.051 131.732 129.662 133.129 128.664C109.423 132.407 82.9222 136.4 58.9665 135.003L15.5968 133.206C9.65783 132.956 7.01272 129.712 5.41568 127.916C9.25857 120.429 15.7465 114.59 23.632 111.646C40.3011 106.056 60.5636 96.374 79.229 96.923C79.3289 96.923 150.697 97.6217 150.697 97.6217C167.466 98.4701 174.752 81.4516 181.739 69.2742C145.207 68.1762 121.601 66.4294 96.6468 87.2908C92.0054 91.1836 86.1163 93.3296 80.0276 93.3296C97.2956 75.2132 125.543 61.5884 163.872 63.7344C203.948 65.2317 222.614 63.5348 247.817 95.276L142.412 112.295C191.521 109.5 223.262 103.561 243.126 103.211C254.604 102.962 256.052 120.08 256.551 131.509ZM186.131 97.8213L236.987 90.8842C236.987 90.8842 225.708 72.618 187.728 69.8731L179.194 87.9895C176.649 92.8805 180.691 98.5699 186.131 97.8213Z" fill="url(#paint1_linear_15_274)"/>
<path d="M153.344 34.6875L167.018 58.9925H180.943L153.344 34.6875Z" fill="url(#paint2_linear_15_274)"/>
<path fill-rule="evenodd" clip-rule="evenodd" d="M254.053 139.193C254.153 148.476 251.808 156.511 248.614 157.36C247.266 157.759 245.919 156.761 244.821 154.715C243.224 151.87 239.78 150.522 236.586 151.321L177.395 166.493C173.702 167.441 170.808 170.336 169.909 174.029C168.312 180.766 165.418 185.607 161.724 186.606C158.031 187.654 154.288 184.609 151.443 178.82C150.495 176.824 150.994 173.48 152.242 173.23L158.231 172.033C159.628 171.783 160.577 169.038 160.327 165.944L159.479 153.966C159.279 150.772 157.931 148.227 156.484 148.326L150.296 148.826C148.948 148.925 147.9 145.482 148.549 143.036C150.545 135.8 154.089 131.308 158.331 131.707C161.575 131.957 164.619 135.251 166.915 140.241C168.911 144.434 173.353 146.929 177.944 146.18L232.743 137.447C237.684 136.648 241.826 133.105 243.124 128.313C244.172 124.271 245.869 121.676 247.815 121.676C251.159 121.676 253.904 129.611 254.053 139.193ZM182.236 159.705L234.689 148.177C236.436 147.728 237.534 146.081 237.285 144.334C237.035 142.437 235.238 141.09 233.342 141.439L180.54 151.221C178.194 151.67 176.647 153.916 177.046 156.262C177.495 158.657 179.841 160.204 182.236 159.705ZM250.909 139.593C250.809 135.201 249.562 131.707 248.065 131.807C246.517 131.957 245.32 135.8 245.419 140.341C245.569 144.883 246.917 148.227 248.414 147.927C249.911 147.628 251.009 143.935 250.909 139.593Z" fill="url(#paint3_linear_15_274)"/>
<path d="M237.135 176.523L144.856 199.93C134.126 202.625 122.947 202.625 112.217 199.93L19.9375 176.523L104.631 209.163C120.002 215.052 137.071 215.052 152.442 209.163L237.135 176.523Z" fill="url(#paint4_linear_15_274)"/>
<path d="M234.39 75.5615C232.693 74.5134 231.296 73.0162 230.348 71.2694C216.324 44.6686 188.425 26.5522 156.285 26.5522C122.747 26.5522 93.9002 46.2158 80.475 74.6132C76.0333 84.0957 67.6488 91.1825 57.4676 93.6779L20.1367 106.155C23.8798 48.8609 71.7412 0.300781 129.983 0.300781C178.593 0.300781 219.867 31.8424 234.39 75.5615Z" fill="url(#paint5_linear_15_274)"/>
<path style="mix-blend-mode:multiply" d="M205.344 30.1455C185.63 11.6298 159.129 0.300781 129.983 0.300781C71.7412 0.300781 23.8798 48.8609 20.1367 106.155C20.1367 106.155 86.6137 -31.7399 205.344 30.1455Z" fill="url(#paint6_linear_15_274)"/>
<defs>
<linearGradient id="paint0_linear_15_274" x1="157.376" y1="187.974" x2="157.65" y2="187.974" gradientUnits="userSpaceOnUse">
<stop stop-color="#54D1F6"/>
<stop offset="0.508" stop-color="#338CDE"/>
<stop offset="1" stop-color="#1459C6"/>
</linearGradient>
<linearGradient id="paint1_linear_15_274" x1="33.587" y1="5.37046" x2="262.081" y2="116.092" gradientUnits="userSpaceOnUse">
<stop stop-color="#1D2B66"/>
<stop offset="1" stop-color="#091133"/>
</linearGradient>
<linearGradient id="paint2_linear_15_274" x1="172.51" y1="75.2429" x2="146.197" y2="48.5925" gradientUnits="userSpaceOnUse">
<stop stop-color="#1D2B66"/>
<stop offset="1" stop-color="#091133"/>
</linearGradient>
<linearGradient id="paint3_linear_15_274" x1="239.16" y1="217.99" x2="111.617" y2="149.469" gradientUnits="userSpaceOnUse">
<stop stop-color="#AF1414"/>
<stop offset="1" stop-color="#E51F1F"/>
</linearGradient>
<linearGradient id="paint4_linear_15_274" x1="132.6" y1="179.113" x2="208.488" y2="394.126" gradientUnits="userSpaceOnUse">
<stop stop-color="#1D2B66"/>
<stop offset="1" stop-color="#091133"/>
</linearGradient>
<linearGradient id="paint5_linear_15_274" x1="187.027" y1="166.855" x2="-21.5019" y2="19.5558" gradientUnits="userSpaceOnUse">
<stop stop-color="#AF1414"/>
<stop offset="1" stop-color="#E51F1F"/>
</linearGradient>
<linearGradient id="paint6_linear_15_274" x1="227.253" y1="59.1523" x2="35.1265" y2="166.319" gradientUnits="userSpaceOnUse">
<stop stop-color="#AF1414"/>
<stop offset="1" stop-color="white"/>
</linearGradient>
</defs>
</svg>
