<svg width="234" height="257" viewBox="0 0 234 257" fill="none" xmlns="http://www.w3.org/2000/svg">
<path fill-rule="evenodd" clip-rule="evenodd" d="M229.071 68.3689C229.554 88.9779 205.242 100.087 188.819 108.943C159.837 124.239 141.161 133.255 126.992 147.746C123.933 150.805 118.941 156.44 117.17 160.948C115.238 156.44 110.247 150.805 107.188 147.746C93.0192 133.255 74.3423 124.239 45.5219 108.943C28.616 99.9265 3.49881 87.6898 5.10888 68.2079C5.75292 59.9965 13.9643 53.5562 20.0826 50.014L97.3664 5.41482C109.603 -1.66952 124.738 -1.66952 136.974 5.41482L214.258 50.014C219.893 53.2342 223.919 56.4543 227.3 61.9286C228.427 63.6997 229.071 66.7588 229.071 68.3689ZM141.644 91.554C141.644 78.0294 130.695 67.0808 117.17 67.0808C103.646 67.0808 92.5362 78.0294 92.5362 91.554C92.5362 105.079 103.646 116.027 117.17 116.027C130.695 116.027 141.644 105.079 141.644 91.554Z" fill="url(#paint0_linear_15_169)"/>
<path d="M188.82 121.82C154.525 140.014 130.374 148.548 121.035 178.012C119.908 181.554 118.459 185.419 117.01 192.664C115.722 185.419 114.273 181.715 113.146 178.173C103.808 148.709 79.6564 140.175 45.3617 121.82C9.61798 102.983 2.05063 93.4831 0.601562 89.4579V173.665C0.601562 187.673 8.16891 200.714 20.4055 207.799L97.6893 252.398C100.426 254.008 103.003 255.296 105.74 256.101C104.774 252.774 103.647 249.285 102.359 245.636C78.2073 178.012 35.5402 161.267 35.5402 161.267C35.5402 161.267 55.5052 162.877 83.8426 192.342C97.6893 206.511 108.477 223.577 117.01 241.288C117.01 241.288 136.009 206.994 150.339 192.181C178.676 162.877 198.641 161.267 198.641 161.267C198.641 161.267 155.974 177.851 131.823 245.474C130.535 249.231 129.408 252.774 128.442 256.101C131.179 255.135 133.755 254.008 136.492 252.398L213.776 207.799C225.852 200.714 233.419 187.673 233.419 173.504V89.2969C232.131 93.3221 224.564 102.822 188.82 121.82Z" fill="url(#paint1_linear_15_169)"/>
<defs>
<linearGradient id="paint0_linear_15_169" x1="5.00906" y1="0.116052" x2="229.148" y2="0.116052" gradientUnits="userSpaceOnUse">
<stop stop-color="#2B88D9"/>
<stop offset="1" stop-color="#26E0F5"/>
</linearGradient>
<linearGradient id="paint1_linear_15_169" x1="234.86" y1="81.2626" x2="148.076" y2="342.836" gradientUnits="userSpaceOnUse">
<stop stop-color="#39B54A"/>
<stop offset="1" stop-color="#ACDF23"/>
</linearGradient>
</defs>
</svg>
