<svg width="195" height="256" viewBox="0 0 195 256" fill="none" xmlns="http://www.w3.org/2000/svg">
<path d="M159.207 135.876C159.207 135.876 169.873 135.548 176.984 133.688C176.875 134.071 175.179 140.417 167.138 147.856C152.041 161.859 133.716 164.376 118.564 147.2C108.937 136.205 101.771 118.646 100.567 116.348C100.567 116.312 100.567 116.294 100.567 116.294C100.458 116.148 100.403 116.075 100.403 116.075C100.44 116.075 100.44 116.075 100.403 116.075C99.9658 116.895 84.8684 143.206 79.9453 149.716C70.865 161.805 55.1659 161.422 47.2343 158.468C23.9318 149.935 18.2977 134.181 18.1336 133.688C25.2446 135.548 35.9113 135.876 35.9113 135.876C-9.27148 125.046 1.55926 79.7536 1.55926 79.7536C2.87207 82.7621 6.42761 86.4271 9.92845 89.5997C12.4447 91.8424 14.9609 93.8664 16.6566 95.1792C17.4772 95.7809 18.0789 96.2185 18.4071 96.492C18.1883 96.3096 17.8601 96.0179 17.4225 95.6168C17.386 95.5803 17.3677 95.5621 17.3677 95.5621C13.5934 92.1159 2.92677 80.7382 2.32506 60.4989C1.55925 36.2118 15.672 25.7093 16.1096 25.4358C16.1096 25.3993 16.1096 25.3811 16.1096 25.3811C12.5541 35.0084 18.79 47.5896 19.4464 48.8477C19.4464 48.8842 19.4646 48.9024 19.5011 48.9024C21.3609 38.0717 29.566 30.6324 33.2856 19.4187C36.8959 8.53331 20.8139 0.492309 19.884 0.054704C19.884 0.0182369 19.884 0 19.884 0C32.5745 0.765809 46.6326 3.39144 51.501 22.4273C55.0018 36.2118 49.2035 48.0272 48.2736 62.3041C50.407 59.7878 51.9933 57.3263 53.142 55.1383C56.0411 49.6135 56.1505 45.7298 56.1505 45.7298C56.1505 45.7298 61.4018 53.8255 54.9471 72.8613C52.048 81.3946 52.595 93.2646 61.73 97.8595C64.9026 99.3911 68.5676 99.7193 72.0684 99.0082C78.5778 97.7501 84.6496 93.0458 86.4 86.7553C87.9863 81.1758 88.4786 68.5399 82.024 65.1485C74.53 61.2648 71.4667 67.1724 71.1932 67.7194C71.1932 67.7194 71.1932 67.7377 71.1932 67.7741C71.1932 67.7741 70.7556 61.7571 75.2958 56.9434C76.0616 56.1229 77.0462 55.2477 78.3043 54.4819C79.7265 53.552 80.1094 51.9109 81.8052 50.7622C86.2359 47.9725 92.3624 52.8956 96.1367 54.7007C99.4735 56.3417 105.819 59.569 110.851 57.4904C110.851 57.4904 109.921 59.2955 107.733 60.7725C112.547 62.687 116.595 63.0152 120.752 61.046C120.752 61.046 118.673 63.5075 115.555 65.9143C112.875 67.9382 109.484 69.9075 105.873 70.2904C107.897 70.2357 113.422 71.4391 114.024 84.7313C114.188 88.6151 115.555 91.8971 117.743 94.2493C117.743 94.2857 117.762 94.304 117.798 94.304C121.19 97.9689 126.55 99.2817 132.403 96.6561C142.304 92.2253 144.273 82.2698 141.046 72.6425C134.591 53.6067 139.843 45.511 139.843 45.511C139.843 45.511 139.952 49.2853 142.742 54.7007C143.672 56.5605 144.984 58.6938 146.735 60.9365C145.586 47.2614 140.225 35.7742 143.617 22.4273C148.048 5.03246 160.191 1.31282 171.952 0.273503C172.791 0.200569 173.611 0.127638 174.413 0.054704H174.523C174.778 0.054704 175.015 0.0364671 175.234 0C175.234 0 175.234 0.0182369 175.234 0.054704H175.179C173.866 0.711112 158.222 8.69741 161.832 19.4187C165.552 30.6324 173.757 38.0717 175.617 48.9024C175.617 48.9024 182.728 35.5007 179.008 25.3811C179.008 25.3811 179.008 25.3993 179.008 25.4358C179.045 25.4358 179.063 25.4358 179.063 25.4358C179.099 25.4723 179.136 25.5087 179.172 25.5452C180.048 26.2563 183.767 29.3196 187.104 35.2819C190.277 40.9708 193.176 49.2306 192.793 60.4989C192.136 83.5826 178.297 95.2339 176.547 96.6014C177.203 96.1091 179.501 94.4134 182.236 92.1159C186.502 88.5604 191.863 83.5826 193.559 79.7536C193.559 79.7536 193.559 79.7718 193.559 79.8083C193.832 80.8476 203.842 125.155 159.207 135.876Z" fill="url(#paint0_linear_15_138)"/>
<path d="M125.234 186.312C124.413 192.821 122.554 197.416 122.554 197.416C120.749 190.742 117.357 186.202 114.513 183.358C111.942 180.787 109.808 179.583 109.808 179.583C109.808 179.583 110.848 182.537 112.051 186.968C113.966 194.571 116.208 206.715 114.075 216.944C109.918 236.691 97.9384 256 97.9384 256C97.9384 256 98.7589 235.597 90.2803 219.515C81.8017 203.378 82.6769 190.633 82.6769 190.633C71.8462 197.306 78.6837 212.185 78.9572 212.677C78.9572 212.677 78.939 212.677 78.9025 212.677C78.5196 212.349 73.8154 208.137 71.3539 200.753C71.208 200.351 71.0803 199.932 70.9709 199.494C69.1658 193.423 68.947 185.436 73.3778 175.864C73.9612 174.587 74.6177 173.293 75.347 171.98C82.1299 160.055 87.8735 149.006 92.0854 140.691C92.9606 138.977 93.7629 137.373 94.4922 135.878C97.6102 129.587 99.47 125.703 99.6341 125.32C99.9076 125.922 109.152 145.888 119.983 160.93C122.28 164.103 123.702 167.549 124.578 170.941C125.945 176.356 125.836 181.771 125.234 186.312Z" fill="url(#paint1_linear_15_138)"/>
<path style="mix-blend-mode:multiply" d="M169.818 60.9912C171.678 34.8443 156.143 33.5862 155.487 20.5674C154.885 7.98629 173.702 0.601694 175.179 0.0546875C173.866 0.711096 158.222 8.69739 161.832 19.4187C165.552 30.6324 173.757 38.0716 175.617 48.9024C174.632 56.1229 169.818 60.9912 169.818 60.9912Z" fill="url(#paint2_linear_15_138)"/>
<path style="mix-blend-mode:overlay" d="M110.849 57.4915C103.847 62.1411 90.1723 55.0847 86.4526 53.5531C82.6783 51.9667 83.6082 55.6864 78.6304 57.6009C73.8715 59.3513 71.4099 67.0641 71.1911 67.7205C71.1911 67.757 71.1911 67.7752 71.1911 67.7752C71.1911 67.7752 70.7535 61.7582 75.2937 56.9445C76.0595 56.124 78.6304 56.1787 79.8885 55.4129C81.3108 54.483 80.1073 51.912 81.8031 50.7633C86.2338 47.9736 92.3603 52.8967 96.1346 54.7018C99.4714 56.3428 105.817 59.5701 110.849 57.4915Z" fill="url(#paint3_linear_15_138)"/>
<path style="mix-blend-mode:overlay" d="M120.753 61.0469C120.753 61.0469 118.675 63.5085 115.557 65.9153C108.993 64.3837 107.844 61.0469 107.734 60.7734C112.548 62.688 116.596 63.0162 120.753 61.0469Z" fill="url(#paint4_linear_15_138)"/>
<path style="mix-blend-mode:overlay" d="M123.486 98.9543C120.915 97.7509 119.055 96.1098 117.797 94.3047C121.188 97.9697 126.549 99.2825 132.402 96.6568C142.303 92.2261 144.272 82.2706 141.045 72.6432C134.59 53.6074 139.841 45.5117 139.841 45.5117C139.841 45.5117 139.951 49.2861 142.74 54.7014C140.881 60.6638 145.366 66.845 146.46 77.7851C148.046 92.7184 135.903 104.862 123.486 98.9543Z" fill="url(#paint5_linear_15_138)"/>
<path style="mix-blend-mode:overlay" d="M171.952 0.273438C165.333 1.09395 148.048 7.87683 148.048 26.1469C148.048 53.3331 155.104 53.9348 152.205 77.1826C152.205 77.1826 150.783 67.1724 146.735 60.9365C145.586 47.2613 140.226 35.7742 143.617 22.4272C148.048 5.0324 160.191 1.31275 171.952 0.273438Z" fill="url(#paint6_linear_15_138)"/>
<path d="M175.235 0V0.054704H175.18C175.18 0.054704 174.961 0.054704 174.523 0.054704C174.779 0.054704 175.016 0.0364671 175.235 0Z" fill="url(#paint7_linear_15_138)"/>
<path style="mix-blend-mode:overlay" d="M48.2725 62.3041C45.2092 67.063 43.1853 71.5485 43.1853 71.5485C38.8092 55.0836 50.0229 33.3127 45.0451 17.7777C40.0674 2.18803 19.8828 0 19.8828 0C32.5734 0.765809 46.6314 3.39144 51.4998 22.4273C55.0006 36.2118 49.2024 48.0272 48.2725 62.3041Z" fill="url(#paint8_linear_15_138)"/>
<path style="mix-blend-mode:overlay" d="M72.0665 99.0089C57.1879 103.823 47.123 94.1953 49.6939 79.0432C51.1162 70.9475 54.07 60.6637 53.1401 55.139C56.0392 49.6142 56.1486 45.7305 56.1486 45.7305C56.1486 45.7305 61.3999 53.8262 54.9452 72.862C52.0461 81.3953 52.5931 93.2653 61.7281 97.8602C64.9007 99.3918 68.5657 99.72 72.0665 99.0089Z" fill="url(#paint9_linear_15_138)"/>
<path style="mix-blend-mode:multiply" d="M38.9187 20.7315C37.4965 30.6324 27.7051 40.6426 26.8846 59.7331C26.8846 59.7331 22.4538 55.0836 19.5 48.9024C21.3598 38.0716 29.5649 30.6324 33.2846 19.4187C36.8948 8.53329 20.8128 0.492293 19.8829 0.0546875C20.8675 0.328191 40.9427 6.56406 38.9187 20.7315Z" fill="url(#paint10_linear_15_138)"/>
<path d="M182.236 92.1133C179.993 94.2466 178.024 95.8329 176.547 96.5987C177.203 96.1064 179.501 94.4107 182.236 92.1133Z" fill="url(#paint11_linear_15_138)"/>
<path style="mix-blend-mode:multiply" d="M176.547 96.5991C168.998 100.647 159.645 110.384 159.645 110.384C167.959 91.6761 181.634 92.4966 186.612 66.7873C191.262 42.7737 180.868 26.9652 179.173 25.543C180.048 26.2541 183.768 29.3173 187.104 35.2797C190.277 40.9686 193.176 49.2284 192.793 60.4967C192.137 83.5804 178.297 95.2316 176.547 96.5991Z" fill="url(#paint12_linear_15_138)"/>
<path style="mix-blend-mode:multiply" d="M159.208 135.877C147.119 136.916 138.477 139.815 138.477 139.815C144.712 131.501 172.336 127.343 183.276 114.544C195.748 99.9931 193.56 80.5197 193.56 79.8086C193.834 80.8479 203.844 125.155 159.208 135.877Z" fill="url(#paint13_linear_15_138)"/>
<path d="M9.92969 89.6016C12.4459 91.8443 14.9622 93.8682 16.6579 95.181C16.3297 94.9622 16.0197 94.7617 15.728 94.5793C14.0322 93.6494 12.0083 91.9537 9.92969 89.6016Z" fill="url(#paint14_linear_15_138)"/>
<path style="mix-blend-mode:multiply" d="M34.9246 106.777C34.5417 106.504 23.6563 99.3381 17.4204 95.6185C17.384 95.582 17.3657 95.5638 17.3657 95.5638C13.5914 92.1176 2.92474 80.7399 2.32304 60.5006C1.55723 36.2135 15.67 25.711 16.1076 25.4375C15.7794 25.8751 5.11277 41.0272 7.5743 63.5092C10.0358 86.2647 27.0477 93.4851 34.9246 106.777Z" fill="url(#paint15_linear_15_138)"/>
<path style="mix-blend-mode:multiply" d="M57.6274 139.432C57.6274 139.432 44.1164 136.479 35.9113 135.877C-9.27148 125.046 1.55926 79.7539 1.55926 79.7539C1.55926 79.7539 1.17636 104.807 16.1096 117.661C31.0429 130.516 48.4924 128.602 57.6274 139.432Z" fill="url(#paint16_linear_15_138)"/>
<path style="mix-blend-mode:multiply" d="M100.403 116.074C99.965 116.895 84.8676 143.206 79.9446 149.715C70.8643 161.804 55.1652 161.421 47.2336 158.467C23.9311 149.934 18.2969 134.18 18.1328 133.688C31.3704 148.512 44.225 147.199 59.2677 145.613C83.336 143.151 99.8009 116.84 100.403 116.074Z" fill="url(#paint17_linear_15_138)"/>
<path style="mix-blend-mode:multiply" d="M176.983 133.688C176.874 134.071 175.178 140.416 167.137 147.855C152.04 161.859 133.715 164.375 118.563 147.199C108.936 136.204 101.77 118.645 100.566 116.348C100.566 116.311 100.566 116.293 100.566 116.293C102.153 118.919 119.602 145.339 139.951 148.019C160.901 150.754 176.382 134.344 176.983 133.688Z" fill="url(#paint18_linear_15_138)"/>
<path style="mix-blend-mode:overlay" d="M124.58 170.941C123.705 167.549 122.282 164.103 119.985 160.93C109.154 145.888 99.9097 125.922 99.6362 125.32C99.4721 125.703 97.6123 129.587 94.4944 135.878C93.765 137.373 92.9628 138.977 92.0875 140.691C87.8756 149.006 82.132 160.055 75.3491 171.98C74.6198 173.293 73.9634 174.587 73.3799 175.864C63.0415 198.4 78.1936 212.021 78.9047 212.677C78.5218 212.13 69.0586 200.151 76.7714 180.677C81.7491 168.042 92.5252 157.648 99.5815 138.394C101.168 147.091 108.662 153.874 110.959 157.047C118.946 167.877 124.799 176.028 122.556 197.416C122.556 197.416 127.862 184.069 124.58 170.941Z" fill="url(#paint19_linear_15_138)"/>
<path style="mix-blend-mode:multiply" d="M114.514 183.356C111.943 180.785 109.81 179.582 109.81 179.582C109.81 179.582 110.849 182.536 112.053 186.966C113.967 194.57 116.21 206.713 114.077 216.942C109.92 236.689 97.9401 255.999 97.9401 255.999C97.9401 255.999 98.7606 235.595 90.282 219.513C81.8034 203.377 82.6786 190.631 82.6786 190.631C71.8479 197.305 78.6855 212.183 78.959 212.676C78.959 212.676 78.9407 212.676 78.9043 212.676C78.5213 212.348 73.8171 208.136 71.3556 200.751C71.2097 200.35 71.0821 199.931 70.9727 199.493C71.6291 196.047 72.9419 192.819 75.4034 190.631C83.8273 183.192 90.6649 172.58 90.6649 172.58C90.6649 172.58 87.8752 184.122 88.8051 192.819C89.6803 201.243 94.0563 210.871 99.0341 220.498C104.012 230.18 103.41 234.228 103.41 234.228C103.41 234.228 112.108 212.731 108.99 197.469C105.872 182.262 99.964 173.237 102.152 163.883C102.152 164.102 101.879 166.563 110.576 171.979C119.602 177.558 124.251 186.146 122.555 197.414C120.75 190.741 117.359 186.201 114.514 183.356Z" fill="url(#paint20_linear_15_138)"/>
<path style="mix-blend-mode:multiply" d="M105.71 101.249C105.71 101.249 94.715 98.1312 91.4329 93.9739C91.4329 93.9739 73.327 108.524 61.7305 97.8577C64.9031 99.3893 68.568 99.7175 72.0689 99.0064C78.5783 97.7483 84.6501 93.044 86.4005 86.7535C87.9868 81.174 88.4791 68.5381 82.0244 65.1467C74.5304 61.2629 71.4672 67.1706 71.1937 67.7176C71.1937 67.7176 71.1937 67.7359 71.1937 67.7723C71.3031 67.28 74.4757 60.0595 81.4774 59.8407C93.2928 59.4578 90.3389 71.8202 91.3235 78.4937C92.3628 85.55 93.5663 92.7158 105.71 101.249Z" fill="url(#paint21_linear_15_138)"/>
<defs>
<linearGradient id="paint0_linear_15_138" x1="11.8282" y1="199.405" x2="26.7856" y2="47.9621" gradientUnits="userSpaceOnUse">
<stop stop-color="#FF0015"/>
<stop offset="1" stop-color="#F4AC24"/>
</linearGradient>
<linearGradient id="paint1_linear_15_138" x1="-61.7083" y1="192.32" x2="-46.1632" y2="34.9209" gradientUnits="userSpaceOnUse">
<stop stop-color="#FF0015"/>
<stop offset="1" stop-color="#F4AC24"/>
</linearGradient>
<linearGradient id="paint2_linear_15_138" x1="155.499" y1="0.0552342" x2="175.637" y2="0.0552342" gradientUnits="userSpaceOnUse">
<stop stop-color="#EBB129"/>
<stop offset="1" stop-color="white" stop-opacity="0"/>
</linearGradient>
<linearGradient id="paint3_linear_15_138" x1="121.938" y1="39.518" x2="85.9213" y2="77.3357" gradientUnits="userSpaceOnUse">
<stop stop-color="white"/>
<stop offset="1" stop-color="white" stop-opacity="0"/>
</linearGradient>
<linearGradient id="paint4_linear_15_138" x1="128.819" y1="51.6981" x2="86.2159" y2="96.4314" gradientUnits="userSpaceOnUse">
<stop stop-color="white"/>
<stop offset="1" stop-color="white" stop-opacity="0"/>
</linearGradient>
<linearGradient id="paint5_linear_15_138" x1="182.166" y1="24.9235" x2="190.243" y2="94.582" gradientUnits="userSpaceOnUse">
<stop stop-color="white"/>
<stop offset="1" stop-color="white" stop-opacity="0"/>
</linearGradient>
<linearGradient id="paint6_linear_15_138" x1="257.583" y1="-14.4378" x2="258" y2="60.5" gradientUnits="userSpaceOnUse">
<stop stop-color="white"/>
<stop offset="1" stop-color="white" stop-opacity="0"/>
</linearGradient>
<linearGradient id="paint7_linear_15_138" x1="174.549" y1="0.0158642" x2="175.255" y2="0.0158642" gradientUnits="userSpaceOnUse">
<stop stop-color="#EBB129"/>
<stop offset="1" stop-color="white" stop-opacity="0"/>
</linearGradient>
<linearGradient id="paint8_linear_15_138" x1="122.082" y1="2.14974" x2="115.314" y2="63.4024" gradientUnits="userSpaceOnUse">
<stop stop-color="white"/>
<stop offset="1" stop-color="white" stop-opacity="0"/>
</linearGradient>
<linearGradient id="paint9_linear_15_138" x1="131.747" y1="48.1149" x2="126.611" y2="94.5979" gradientUnits="userSpaceOnUse">
<stop stop-color="white"/>
<stop offset="1" stop-color="white" stop-opacity="0"/>
</linearGradient>
<linearGradient id="paint10_linear_15_138" x1="126.323" y1="5.1145" x2="120.751" y2="55.5353" gradientUnits="userSpaceOnUse">
<stop stop-color="#EBB129"/>
<stop offset="1" stop-color="white" stop-opacity="0"/>
</linearGradient>
<linearGradient id="paint11_linear_15_138" x1="181.674" y1="91.6981" x2="181.218" y2="95.8291" gradientUnits="userSpaceOnUse">
<stop stop-color="white"/>
<stop offset="1" stop-color="white" stop-opacity="0"/>
</linearGradient>
<linearGradient id="paint12_linear_15_138" x1="67.8475" y1="102.033" x2="67.431" y2="27.9328" gradientUnits="userSpaceOnUse">
<stop stop-color="#EBB129"/>
<stop offset="1" stop-color="white" stop-opacity="0"/>
</linearGradient>
<linearGradient id="paint13_linear_15_138" x1="125.816" y1="96.175" x2="143.357" y2="63.1813" gradientUnits="userSpaceOnUse">
<stop stop-color="#EBB129"/>
<stop offset="1" stop-color="white" stop-opacity="0"/>
</linearGradient>
<linearGradient id="paint14_linear_15_138" x1="11.0029" y1="94.5957" x2="10.9754" y2="89.7137" gradientUnits="userSpaceOnUse">
<stop stop-color="#EBB129"/>
<stop offset="1" stop-color="white" stop-opacity="0"/>
</linearGradient>
<linearGradient id="paint15_linear_15_138" x1="-82.8569" y1="98.7736" x2="-83.2561" y2="27.6862" gradientUnits="userSpaceOnUse">
<stop stop-color="#EBB129"/>
<stop offset="1" stop-color="white" stop-opacity="0"/>
</linearGradient>
<linearGradient id="paint16_linear_15_138" x1="-2.12757" y1="133.374" x2="-2.42149" y2="81.0995" gradientUnits="userSpaceOnUse">
<stop stop-color="#EBB129"/>
<stop offset="1" stop-color="white" stop-opacity="0"/>
</linearGradient>
<linearGradient id="paint17_linear_15_138" x1="74.7053" y1="148.831" x2="79.7137" y2="194.463" gradientUnits="userSpaceOnUse">
<stop stop-color="#EBB129"/>
<stop offset="1" stop-color="white" stop-opacity="0"/>
</linearGradient>
<linearGradient id="paint18_linear_15_138" x1="153.6" y1="141.501" x2="157.621" y2="178.129" gradientUnits="userSpaceOnUse">
<stop stop-color="#EBB129"/>
<stop offset="1" stop-color="white" stop-opacity="0"/>
</linearGradient>
<linearGradient id="paint19_linear_15_138" x1="164.611" y1="120.9" x2="180.281" y2="170.074" gradientUnits="userSpaceOnUse">
<stop stop-color="white"/>
<stop offset="1" stop-color="white" stop-opacity="0"/>
</linearGradient>
<linearGradient id="paint20_linear_15_138" x1="176.339" y1="156.978" x2="192.526" y2="207.77" gradientUnits="userSpaceOnUse">
<stop stop-color="#EBB129"/>
<stop offset="1" stop-color="white" stop-opacity="0"/>
</linearGradient>
<linearGradient id="paint21_linear_15_138" x1="127.479" y1="86.8443" x2="84.5642" y2="113.771" gradientUnits="userSpaceOnUse">
<stop stop-color="#EBB129"/>
<stop offset="1" stop-color="white" stop-opacity="0"/>
</linearGradient>
</defs>
</svg>
