<svg width="257" height="207" viewBox="0 0 257 207" fill="none" xmlns="http://www.w3.org/2000/svg">
<path fill-rule="evenodd" clip-rule="evenodd" d="M128.402 141.708L142.175 155.48L128.402 169.252H156.873L256.402 69.7221V41.252L167.288 130.366L167.404 130.482L153.169 144.717L153.053 144.601L128.402 169.252H99.9322L0.402344 69.7221V41.252L64.5181 105.252L63.708 106.062L77.943 120.297L78.7532 119.603L89.4005 130.25L89.2848 130.482L103.52 144.717L103.751 144.485L114.63 155.48L128.402 141.708ZM128.402 69.4907L78.7532 119.487L64.5181 105.252L128.402 41.0205L192.402 105.252L178.167 119.487L128.402 69.4907ZM128.402 119.719L103.751 144.485L89.4005 130.25L128.402 91.2483L167.288 130.25L153.053 144.485L128.402 119.719ZM128.402 25.2809C121.574 25.2809 116.019 19.7258 116.019 12.8976C116.019 5.95361 121.574 0.398438 128.402 0.398438C135.231 0.398438 140.901 5.95361 140.901 12.8976C140.901 19.7258 135.231 25.2809 128.402 25.2809ZM256.402 206.518H0.402344V186.843H256.402V206.518ZM0.402344 91.4798L77.943 169.021H49.4729L0.402344 119.95V91.4798ZM0.402344 141.939L27.5995 169.136H0.402344V141.939ZM256.402 120.066L207.332 169.136H178.862L256.402 91.4798V120.066ZM256.402 169.136H229.321L256.402 141.939V169.136Z" fill="url(#paint0_linear_15_78)"/>
<defs>
<linearGradient id="paint0_linear_15_78" x1="-80.1497" y1="126.12" x2="150.925" y2="-104.955" gradientUnits="userSpaceOnUse">
<stop offset="0.035" stop-color="#D48C3A"/>
<stop offset="1" stop-color="#F4CC15"/>
</linearGradient>
</defs>
</svg>
