<svg width="257" height="253" viewBox="0 0 257 253" fill="none" xmlns="http://www.w3.org/2000/svg">
<path d="M128.314 168.535C174.854 168.535 212.581 130.807 212.581 84.2673C212.581 37.7278 174.854 0 128.314 0C81.7746 0 44.0469 37.7278 44.0469 84.2673C44.0469 130.807 81.7746 168.535 128.314 168.535Z" fill="url(#paint0_linear_16_1535)"/>
<path d="M128.314 156.385C168.143 156.385 200.432 124.097 200.432 84.2667C200.432 44.4369 168.143 12.1484 128.314 12.1484C88.4838 12.1484 56.1953 44.4369 56.1953 84.2667C56.1953 124.097 88.4838 156.385 128.314 156.385Z" fill="url(#paint1_linear_16_1535)"/>
<path d="M128.312 144.296C161.464 144.296 188.339 117.421 188.339 84.269C188.339 51.1171 161.464 24.2422 128.312 24.2422C95.1601 24.2422 68.2852 51.1171 68.2852 84.269C68.2852 117.421 95.1601 144.296 128.312 144.296Z" fill="url(#paint2_linear_16_1535)"/>
<path d="M192.029 121.771C181.781 118.182 177.279 125.448 177.279 125.448H174.144C174.144 125.448 169.642 118.182 159.395 121.771C160.009 121.463 168.582 117.372 175.712 123.854C182.841 117.372 191.415 121.461 192.029 121.771Z" fill="url(#paint3_linear_16_1535)"/>
<path d="M210.296 135.48C201.756 132.49 198.004 138.545 198.004 138.545H195.393C195.393 138.545 191.641 132.49 183.102 135.48C183.614 135.223 190.758 131.815 196.699 137.217C202.639 131.814 209.783 135.223 210.296 135.48Z" fill="url(#paint4_linear_16_1535)"/>
<path d="M178.531 144.426C170.116 141.48 166.42 147.447 166.42 147.447H163.846C163.846 147.447 160.149 141.48 151.734 144.426C152.239 144.172 159.279 140.814 165.133 146.137C170.986 140.814 178.027 144.172 178.531 144.426Z" fill="url(#paint5_linear_16_1535)"/>
<path d="M118.817 51.9649C117.976 51.4476 116.944 50.7515 115.728 49.9814C114.523 49.3112 113.092 48.5188 111.622 48.0532C108.656 47.1137 104.975 45.8133 101.282 45.7405C97.5534 45.5065 93.8051 46.1814 90.2226 47.1737C86.733 48.4012 83.3856 50.0437 80.6332 51.9825C78.5732 53.4346 76.7873 55.2088 75.2177 56.8337C75.8149 55.9425 76.4534 55.0348 77.1106 54.1C75.3329 51.7627 74.4311 50.6057 72.6051 48.3154C75.093 49.6052 76.3346 50.2671 78.8107 51.6251C78.9307 51.444 79.0506 51.2606 79.1705 51.0831C79.5985 50.4493 80.0665 49.7921 80.5168 49.1349C78.5356 46.4976 77.5304 45.1926 75.4881 42.613C78.083 44.3507 79.3751 45.2384 81.9453 47.055C82.9294 45.6276 83.9464 44.2085 85.0176 42.8411C82.6061 40.1027 81.3845 38.753 78.9083 36.0934C81.9042 38.0228 83.395 39.0128 86.3603 41.0445C87.335 39.7383 88.3402 38.4825 89.3572 37.268C86.8035 34.7342 85.5137 33.4868 82.9071 31.0365C86.0393 32.8342 87.6007 33.7595 90.7082 35.6631C91.1785 35.1105 91.6488 34.5591 92.1073 34.0135C92.8363 33.2246 93.5335 32.4168 94.2166 31.6209C91.8851 29.2141 90.707 28.0266 88.3285 25.688C91.2667 27.3529 92.7317 28.2088 95.6499 29.9642C96.5975 28.8837 97.5311 27.8749 98.487 27.0578C98.8362 26.7591 99.1665 26.4534 99.4864 26.1477C97.7721 24.6769 96.9103 23.9491 95.1784 22.5123C97.4076 23.4364 98.5222 23.9103 100.748 24.8814C101.773 23.8068 102.65 22.8168 103.445 22.1949C104.676 20.9262 105.376 20.1973 105.376 20.1973C105.376 20.1973 104.268 20.0785 102.333 19.8951C100.527 20.0103 97.6757 19.8269 94.8186 20.8051C91.9851 21.7751 88.506 23.0473 85.4949 25.233C82.485 27.4175 79.6044 30.4874 77.1094 33.816C74.7979 37.3268 72.8074 41.1586 71.4023 44.9633C70.149 48.3565 69.4529 51.9296 68.851 54.9642C68.8369 52.7797 68.9826 50.3529 68.8568 47.8286C66.5465 46.7046 65.3884 46.1578 63.071 45.0926C65.3519 45.0056 66.4948 44.9715 68.7851 44.9186C68.7228 43.4148 68.6276 41.884 68.5582 40.3508C66.0938 39.6324 64.8628 39.2868 62.4008 38.626C64.8252 38.2403 66.0397 38.0557 68.4759 37.703C68.4089 36.8835 68.3383 36.064 68.2643 35.2457C68.2419 34.6637 68.2184 34.0852 68.1925 33.5056C65.4719 32.9212 64.1127 32.6449 61.3979 32.1253C64.048 31.6597 65.3766 31.4374 68.0409 31.0118C68.0256 30.7896 68.0044 30.565 67.9985 30.3475C67.975 29.5515 67.928 28.7544 67.8551 27.9584C67.8292 27.1789 67.7034 26.3641 67.6623 25.6104C67.6529 25.4282 67.6305 25.2471 67.6164 25.0649C65.821 24.5687 64.9228 24.3277 63.1286 23.8609C64.8475 23.5317 65.7082 23.3706 67.433 23.0567C67.3589 22.3959 67.2825 21.7445 67.2084 21.1179C67.1649 20.4159 67.1496 19.7411 67.1473 19.0991C67.1438 18.4806 67.0979 17.8516 67.0321 17.2426C65.5553 16.998 64.8181 16.8816 63.3449 16.6547C64.7382 16.2479 65.4366 16.0457 66.8334 15.6471C66.8216 15.5566 66.8087 15.4625 66.7969 15.3731C66.697 14.2503 66.5665 13.2262 66.5453 12.4232C66.2866 10.6666 66.1256 9.66016 66.1256 9.66016C66.1256 9.66016 65.5694 10.2657 64.5912 11.3227C64.2103 11.9247 63.6389 12.6066 63.0228 13.4355C62.4502 14.2844 61.9328 15.3367 61.4755 16.536C61.2462 17.1379 60.9958 17.7693 60.7406 18.4195C60.5278 19.0956 60.3021 19.7963 60.0751 20.51C59.8459 21.2296 59.626 21.9914 59.412 22.7651C59.198 23.5387 59.1145 24.39 58.9899 25.2271C58.8653 26.0619 58.743 26.9355 58.6407 27.8161C58.5384 28.6968 58.5396 29.6268 58.5149 30.5309C58.4902 31.441 58.4844 32.3816 58.462 33.3104C58.5032 34.2498 58.5384 35.1928 58.5702 36.1334C58.8818 39.9264 59.4602 43.7193 60.3373 47.2337C60.9252 49.5887 61.7259 51.792 62.496 53.8108C61.1392 52.1271 59.6131 50.3565 57.8142 48.7574C55.1311 46.3718 51.9977 44.2508 48.7268 42.5295C47.8967 42.1438 47.0655 41.7629 46.2377 41.3878C45.3935 41.0739 44.5458 40.7506 43.7169 40.4637C42.8927 40.178 42.0567 39.8699 41.2255 39.6795C40.3931 39.4878 39.5606 39.3279 38.7623 39.1856C37.9628 39.0445 37.1656 38.8682 36.392 38.84C35.6183 38.8106 34.8529 38.7976 34.124 38.8082C33.4009 38.8188 32.6919 38.8364 32.0088 38.8529C31.3339 38.9152 30.6802 38.9799 30.0605 39.0375C28.8272 39.1527 27.7055 39.3714 26.7485 39.6877C25.7937 40.0475 24.9872 40.4049 24.3194 40.6142C23.0366 41.2538 22.3065 41.6206 22.3065 41.6206C22.3065 41.6206 23.1295 41.9557 24.5698 42.5636C25.2635 42.7576 26.11 43.0997 27.053 43.4536C27.1259 43.4842 27.2035 43.5183 27.2775 43.55C28.1617 42.4237 28.6026 41.8593 29.4797 40.7259C29.1329 42.085 28.9553 42.7623 28.5932 44.1109C29.1 44.3201 29.6291 44.52 30.1675 44.6846C30.726 44.8551 31.308 45.0479 31.903 45.2772C32.4191 45.5135 32.9564 45.7628 33.5008 46.0156C34.4825 44.6035 34.9705 43.8945 35.9393 42.4707C35.6454 44.1955 35.4914 45.0538 35.1704 46.7634C35.3232 46.8304 35.4714 46.9045 35.6254 46.9679C36.2638 47.2325 36.9164 47.5946 37.5818 47.865C38.2414 48.1825 38.9104 48.4823 39.59 48.7692C39.7758 48.848 39.9616 48.9409 40.1462 49.0302C41.6899 46.8692 42.4553 45.7816 43.9697 43.5912C43.303 46.1837 42.9562 47.4712 42.2343 50.0273C42.7222 50.2554 43.2102 50.4846 43.7016 50.7186C44.3718 51.0831 45.0443 51.4523 45.7169 51.8238C47.1572 49.8674 47.872 48.8821 49.2888 46.8998C48.7773 49.3289 48.5093 50.5352 47.9484 52.9337C49.2288 53.6098 50.4892 54.3305 51.7367 55.0336C52.9148 53.1089 53.498 52.1389 54.6502 50.1883C54.4856 52.6786 54.3892 53.9178 54.1693 56.3834C56.241 57.632 58.3539 58.6796 60.1704 59.7872C57.311 58.769 53.9495 57.672 50.4622 57.2652C46.5564 56.8102 42.353 56.9995 38.3049 57.6884C34.3203 58.5938 30.4168 60.0059 27.1517 61.8153C23.8879 63.6237 21.1542 66.0527 18.9403 68.0245C16.7087 70.0115 15.3554 72.2525 14.2996 73.5987C13.4037 75.119 12.8828 75.9773 12.8828 75.9773C12.8828 75.9773 13.8128 75.6292 15.4448 75.0284C16.3501 74.5887 17.5788 74.1854 18.9567 73.701C19.4294 71.7352 19.6563 70.7464 20.0902 68.7558C20.3147 70.4947 20.4182 71.3624 20.6099 73.0932C21.019 72.9356 21.4329 72.771 21.8515 72.5899C23.0002 72.0949 24.2829 71.6764 25.6338 71.279C25.8631 68.4772 25.9572 67.0662 26.1065 64.228C26.779 66.8146 27.0965 68.108 27.6973 70.6923C28.6861 70.4183 29.6949 70.142 30.7072 69.8398C31.3833 69.6658 32.0699 69.4871 32.7601 69.3119C32.9635 66.2126 33.0423 64.6524 33.1492 61.5132C33.8359 64.4396 34.158 65.9023 34.7565 68.8217C36.2662 68.4595 37.8064 68.1326 39.3749 67.8669C39.3925 64.7335 39.3772 63.1581 39.2973 59.9906C40.239 62.9958 40.687 64.4996 41.5359 67.5083C43.2102 67.2038 44.9021 66.9816 46.5869 66.8088C46.5575 63.974 46.5246 62.549 46.4176 59.6884C47.5052 62.4373 48.0296 63.8153 49.0419 66.5771C49.8191 66.5101 50.6045 66.4325 51.3546 66.3808C51.5639 66.3667 51.779 66.3549 51.9918 66.3432C52.2846 63.7224 52.4163 62.4044 52.6456 59.7531C53.5944 62.3056 54.0518 63.5848 54.9371 66.148C56.0623 66.0704 57.1593 66.0034 58.2198 65.9716C56.0188 66.4231 53.5838 66.9969 51.2511 67.968C48.1413 69.2625 44.9514 71.1826 41.9756 73.3542C39.1268 75.6963 36.4002 78.2594 34.2909 81.0918C32.084 83.8348 30.6908 86.9788 29.428 89.4091C28.7966 90.6236 28.4074 91.9122 28.0629 92.9975C27.7808 94.1285 27.5527 95.0997 27.3293 95.8675C27.1035 97.5041 26.9613 98.4306 26.9613 98.4306C26.9613 98.4306 27.6644 97.8439 28.8895 96.8069C29.4221 96.2566 30.184 95.6688 30.9835 94.9786C31.1305 94.8693 31.2786 94.7352 31.4256 94.6176C30.9377 93.2044 30.6884 92.4989 30.1793 91.0904C31.1575 92.0956 31.6431 92.6024 32.6108 93.6241C32.9494 93.3243 33.2986 93.0221 33.6407 92.7C34.4673 91.9216 35.4384 91.1116 36.4637 90.3167C35.4443 88.0205 34.9223 86.8765 33.8477 84.6014C35.5137 86.4003 36.3391 87.3115 37.971 89.1574C38.7153 88.5896 39.4677 88.0123 40.2167 87.3997C41.2314 86.6343 42.2637 85.8348 43.3124 85.0329C41.8028 82.4521 41.0315 81.1729 39.4548 78.6368C41.6911 80.6497 42.7986 81.6761 44.9938 83.7666C45.9203 83.0776 46.8585 82.3934 47.8297 81.7443C48.0566 81.5692 48.2918 81.4034 48.521 81.2305C47.0149 78.6333 46.2459 77.3458 44.6728 74.7921C46.9761 76.7827 48.1189 77.7973 50.3834 79.8678C51.7038 78.9319 53.0289 78.0254 54.3269 77.1272C53.1406 74.7745 52.5327 73.6046 51.2923 71.2778C53.398 72.9709 54.4445 73.8327 56.5232 75.5893C56.6737 75.4835 56.8171 75.3753 56.9665 75.2695C56.9418 75.3059 56.9159 75.3412 56.89 75.3776C56.1646 76.4135 55.5802 77.6304 54.9465 78.7908C54.4268 80.0219 54.0435 81.3234 53.6238 82.5697C53.2887 83.8548 53.0394 85.1599 52.8737 86.4121C52.7067 87.6643 52.7502 88.9493 52.7714 90.1192C52.7937 91.2879 53.0195 92.4354 53.0571 93.4278C53.1323 95.4254 54.0247 97.1772 54.2963 98.3048C54.7937 99.4547 55.0723 100.113 55.0723 100.113C55.0723 100.113 55.4544 99.5687 56.1164 98.607C56.4773 97.8615 57.1146 96.9233 57.7213 95.8334C56.4621 94.5977 55.8295 93.9863 54.5562 92.7776C56.1505 93.3231 56.9488 93.603 58.542 94.1756C58.8147 93.5736 59.1087 92.9516 59.4896 92.3473C59.9493 91.6171 60.3597 90.8247 60.7171 90.0052C58.9629 88.3591 58.0799 87.5478 56.3033 85.95C58.415 86.8683 59.4696 87.3397 61.5778 88.3109C61.7706 87.8923 61.954 87.4667 62.1386 87.0399C62.5854 86.2239 62.9393 85.3398 63.3849 84.5191C61.5507 82.8566 60.6278 82.0383 58.7689 80.4275C60.9911 81.2117 62.1021 81.6162 64.3231 82.4533C64.4631 82.1464 64.5971 81.8337 64.7582 81.5445C64.9827 81.0953 65.1908 80.6344 65.3931 80.1724C65.6247 79.7361 65.8375 79.2858 66.0339 78.8273C66.1808 78.4852 66.3372 78.1512 66.4889 77.8173C64.7817 76.3547 63.9234 75.6351 62.1986 74.2148C64.2479 74.8309 65.2732 75.1484 67.3237 75.8068C67.6623 75.0425 67.9609 74.2536 68.3524 73.6469C68.43 73.5058 68.4924 73.3589 68.5641 73.2143C83.8665 106.835 93.1726 141.148 97.0279 178.138C100.988 177.756 102.968 177.566 106.928 177.184C102.101 139.262 91.6217 104.011 74.9719 69.8469C75.2365 69.908 75.4987 69.9739 75.7667 70.0197C76.4898 70.0926 77.3034 70.3607 78.1218 70.59C78.8554 68.5218 79.214 67.4813 79.9136 65.3873C80.0688 67.74 80.1347 68.9145 80.2417 71.2543C80.6026 71.3577 80.9647 71.4577 81.328 71.5729C81.816 71.7281 82.3074 71.8668 82.7989 71.9844C83.2927 72.1431 83.7901 72.2995 84.2874 72.4359C84.619 72.5111 84.9517 72.6252 85.2833 72.7322C86.024 70.3772 86.3838 69.1908 87.0798 66.8029C87.2844 69.4789 87.3714 70.8134 87.516 73.4741C88.4496 73.7198 89.3749 74.0937 90.3061 74.3535C90.7623 74.5287 91.2161 74.7051 91.6699 74.8732C92.2731 72.477 92.5647 71.2707 93.122 68.844C93.3266 71.5129 93.4148 72.8451 93.5606 75.5011C94.4377 75.8574 95.3265 76.1607 96.2025 76.3853C96.9244 76.5699 97.6063 76.8426 98.2577 77.1213C98.8714 75.4106 99.1724 74.5511 99.7638 72.8227C99.9131 74.8356 99.9802 75.8409 100.097 77.8479C101.35 78.2841 102.508 78.5863 103.329 78.9472C104.522 79.2612 105.203 79.4457 105.203 79.4457C105.203 79.4457 104.887 78.6545 104.32 77.2706C103.619 76.0843 102.817 73.8727 101.252 72.1525C100.475 71.2978 99.685 70.1726 98.7397 69.2144C97.7921 68.2526 96.7563 67.2015 95.6111 66.3679C94.4671 65.5354 93.2231 64.7512 91.9439 64.0798C90.6459 63.5072 89.3232 62.8865 87.9805 62.4514C86.6307 62.1645 85.2609 61.8165 83.9723 61.7283C83.93 61.726 83.8865 61.7225 83.843 61.7189C84.017 61.666 84.1875 61.6166 84.3615 61.5625C84.0664 58.6079 83.9006 57.1264 83.5314 54.1577C84.9188 56.782 85.5984 58.1011 86.9258 60.7548C88.4343 60.2763 89.9675 59.7848 91.5265 59.3274C91.0268 55.8601 90.7517 54.1224 90.1509 50.6422C91.6417 53.8567 92.3637 55.4733 93.7651 58.7196C94.045 58.649 94.3224 58.5691 94.6046 58.5033C95.7216 58.147 96.8503 57.8484 97.9802 57.5697C97.3829 54.0142 97.0596 52.2341 96.3577 48.6693C97.8791 52.0178 98.6175 53.7015 100.045 57.0818C101.346 56.7925 102.639 56.5233 103.893 56.2482C104.861 56.0836 105.802 55.8931 106.731 55.705C105.992 52.6762 105.604 51.1618 104.79 48.1355C106.357 50.9984 107.124 52.4387 108.623 55.3369C109.918 55.0959 111.199 54.9266 112.371 54.8702C112.853 54.8466 113.328 54.7996 113.793 54.7632C113.406 52.9549 113.206 52.0519 112.792 50.2436C113.834 51.9731 114.349 52.842 115.367 54.5868C115.558 54.5598 115.763 54.5468 115.947 54.5139C117.031 54.4187 118 54.2694 118.809 54.3023C120.456 54.1577 121.398 54.0812 121.398 54.0812C121.398 54.0812 120.469 53.3029 118.817 51.9649Z" fill="url(#paint6_linear_16_1535)"/>
<path d="M164.662 90.8007C163.777 89.9389 162.592 88.4668 160.804 87.2617C159.029 86.066 156.838 84.5928 154.328 83.6145C151.816 82.6363 148.887 82.0037 145.949 81.7404C142.987 81.6393 139.961 81.9097 137.211 82.614C134.743 83.2453 132.45 84.3588 130.497 85.3687C131.692 84.3964 133.109 83.4393 134.475 82.3424C134.079 80.5999 133.891 79.7228 133.532 77.9568C134.546 79.2407 135.056 79.878 136.086 81.1407C136.91 80.5164 137.742 79.8792 138.592 79.2725C137.959 77.6111 137.651 76.774 137.05 75.0856C138.255 76.3672 138.862 77.0021 140.081 78.2625C140.525 77.9309 140.971 77.6017 141.415 77.2772C141.745 77.0632 142.072 76.8516 142.398 76.6411C141.634 74.8822 141.261 73.9945 140.534 72.2039C141.829 73.6253 142.482 74.3296 143.795 75.7252C143.919 75.6441 144.042 75.5595 144.168 75.4854C144.625 75.2138 145.076 74.9351 145.516 74.6435C145.966 74.386 146.398 74.0627 146.83 73.8123C146.933 73.7523 147.032 73.6853 147.135 73.6218C146.74 72.4296 146.548 71.83 146.17 70.6248C147.001 71.5501 147.419 72.0098 148.257 72.9246C148.622 72.6906 148.983 72.4602 149.328 72.2415C149.732 72.0193 150.13 71.8253 150.512 71.6501C150.881 71.4808 151.241 71.2868 151.583 71.0869C151.193 70.1569 151.001 69.6889 150.622 68.7507C151.359 69.4761 151.728 69.8382 152.47 70.5578C152.52 70.5284 152.572 70.4967 152.622 70.4673C153.262 70.1239 153.834 69.7959 154.312 69.5902C155.283 69.0164 155.84 68.6966 155.84 68.6966C155.84 68.6966 155.281 68.5049 154.303 68.171C153.806 68.0864 153.193 67.9088 152.476 67.743C151.76 67.609 150.937 67.5608 150.043 67.5984C149.594 67.6172 149.12 67.6337 148.631 67.6549C148.142 67.709 147.633 67.7642 147.114 67.8277C146.592 67.8912 146.046 67.9747 145.495 68.0699C144.944 68.1651 144.39 68.3686 143.833 68.5473C143.276 68.726 142.695 68.9211 142.119 69.1387C141.542 69.3562 140.973 69.656 140.411 69.9405C139.847 70.2262 139.271 70.539 138.698 70.8459C138.142 71.1939 137.585 71.5466 137.028 71.9029C134.854 73.4501 132.818 75.2714 131.129 77.2372C129.997 78.5553 129.076 79.9697 128.268 81.3053C128.623 79.7875 128.983 78.1332 129.176 76.3919C129.464 73.7935 129.511 71.0234 129.366 68.2792C129.298 67.6031 129.232 66.9259 129.171 66.2498C129.065 65.5867 128.97 64.9154 128.864 64.2663C128.76 63.6209 128.669 62.9566 128.512 62.3358C128.354 61.715 128.181 61.1024 128.012 60.5169C127.841 59.9302 127.7 59.3282 127.472 58.7956C127.244 58.263 127.012 57.7397 126.78 57.2471C126.548 56.758 126.319 56.2795 126.101 55.8162C125.856 55.3753 125.616 54.9485 125.392 54.5394C124.949 53.7257 124.476 53.0226 123.985 52.4712C123.464 51.9386 122.989 51.5059 122.659 51.1109C121.857 50.4489 121.399 50.0703 121.399 50.0703C121.399 50.0703 121.382 50.8052 121.367 52.0879C121.429 52.664 121.435 53.4095 121.472 54.2231C121.474 54.2877 121.472 54.3559 121.474 54.4218C122.512 54.5723 123.03 54.6487 124.067 54.8051C123.035 55.1096 122.519 55.2648 121.486 55.5822C121.498 56.0255 121.525 56.4793 121.584 56.9214C121.644 57.3812 121.698 57.8644 121.736 58.3711C121.743 58.8262 121.752 59.3 121.763 59.7797C123.027 59.8373 123.658 59.869 124.92 59.9384C123.682 60.4463 123.062 60.705 121.825 61.2341C121.833 61.3658 121.834 61.4975 121.845 61.6291C121.889 62.1723 121.878 62.7673 121.934 63.3281C121.959 63.9054 122.003 64.4792 122.063 65.0517C122.079 65.2081 122.086 65.3716 122.097 65.5315C124.044 65.5785 125.016 65.6091 126.957 65.6855C125.065 66.3204 124.12 66.6484 122.23 67.3304C122.267 67.7466 122.306 68.1628 122.346 68.5814C122.372 69.1739 122.4 69.7677 122.432 70.3603C124.208 70.3767 125.096 70.3908 126.868 70.432C125.171 71.1433 124.324 71.509 122.629 72.2615C122.728 73.3655 122.808 74.4707 122.909 75.5512C124.553 75.3666 125.374 75.2808 127.014 75.1221C125.458 76.1085 124.683 76.6118 123.14 77.6394C123.295 79.4582 123.633 81.1784 123.834 82.7433C123.109 80.6269 122.27 78.1473 121.041 75.8357C119.668 73.2503 117.872 70.7012 115.879 68.4132C113.772 66.2734 111.414 64.3557 109.049 63.0847C106.684 61.8125 104.071 61.2388 101.95 60.8191C99.8115 60.3958 97.7892 60.8038 96.4865 60.8955C95.1202 61.2141 94.3384 61.4057 94.3384 61.4057C94.3384 61.4057 94.9098 61.8596 95.9127 62.6485C96.5417 63.0165 97.2648 63.6397 98.1019 64.3099C99.5998 63.3998 100.351 62.953 101.857 62.0759C100.757 63.2717 100.211 63.8748 99.1272 65.0929C99.3859 65.281 99.6516 65.468 99.9302 65.6479C100.693 66.1405 101.459 66.7719 102.241 67.4526C104.158 65.9148 105.124 65.1611 107.065 63.6855C105.589 65.5891 104.861 66.552 103.426 68.5002C103.991 69.0034 104.569 69.5137 105.166 70.0075C105.547 70.3532 105.936 70.7024 106.326 71.0528C108.366 69.3903 109.393 68.5778 111.46 66.9882C109.832 68.994 109.029 70.0099 107.448 72.071C108.293 72.8411 109.135 73.6418 109.958 74.4825C111.883 72.7423 112.854 71.8899 114.811 70.2192C113.296 72.3614 112.553 73.4454 111.093 75.6371C111.991 76.5118 112.856 77.4289 113.698 78.3542C115.361 76.8057 116.199 76.045 117.887 74.5518C116.676 76.5953 116.083 77.6252 114.92 79.704C115.306 80.1308 115.704 80.5552 116.071 80.9679C116.174 81.0831 116.278 81.203 116.38 81.3218C118.02 80.1108 118.845 79.517 120.5 78.3542C119.415 80.1696 118.882 81.0843 117.837 82.9279C118.397 83.5322 118.942 84.1201 119.455 84.6997C118.174 83.6898 116.726 82.5928 115.112 81.7533C112.955 80.6316 110.401 79.7804 107.787 79.2407C105.128 78.8774 102.38 78.7575 99.7362 79.2854C97.1014 79.6946 94.5935 80.9808 92.5618 81.9402C91.5554 82.4153 90.6089 83.1207 89.8105 83.7168C89.0157 84.3846 88.3444 84.9831 87.7929 85.4346C86.7406 86.5515 86.1445 87.1994 86.1445 87.1994C86.1445 87.1994 86.8265 87.1629 88.0187 87.1077C88.5936 87.0066 89.3014 87.0195 90.0857 86.9819C90.2197 86.9878 90.369 86.9772 90.5066 86.9783C91.0662 85.6309 91.3508 84.9596 91.9292 83.6216C91.8093 84.9549 91.7529 85.6215 91.6506 86.9513C91.9857 86.9325 92.3302 86.9207 92.6782 86.8902C93.5224 86.8173 94.4559 86.8149 95.4048 86.862C96.1972 84.6433 96.6064 83.5381 97.4506 81.3383C97.1613 83.5828 97.0308 84.7033 96.7945 86.9419C97.4776 86.9866 98.169 87.0324 98.8768 87.0559C99.8009 87.1312 100.751 87.1994 101.71 87.2805C102.404 84.7233 102.77 83.4487 103.534 80.9056C103.378 83.5228 103.318 84.8279 103.234 87.4298C104.069 87.5192 104.906 87.6238 105.74 87.7708C105.948 87.7908 106.153 87.8214 106.36 87.8449C107.049 85.3864 107.409 84.1612 108.165 81.7169C108.072 84.2647 108.043 85.5345 108.021 88.0636C109.18 88.2399 110.325 88.4422 111.45 88.6397C112.143 86.6127 112.501 85.6039 113.241 83.5922C113.264 85.752 113.288 86.8279 113.363 88.9701C113.494 88.9924 113.623 89.0112 113.752 89.0324C113.721 89.0394 113.689 89.0441 113.657 89.0512C112.744 89.2393 111.797 89.6203 110.86 89.9565C109.942 90.3974 109.054 90.9689 108.182 91.505C107.332 92.1093 106.518 92.7913 105.78 93.4967C105.041 94.2034 104.402 95.0558 103.817 95.8353C103.234 96.6125 102.778 97.4943 102.304 98.1809C101.351 99.5624 100.992 101.221 100.605 102.138C100.334 103.183 100.184 103.78 100.184 103.78C100.184 103.78 100.653 103.582 101.478 103.243C102.03 102.905 102.83 102.576 103.683 102.143C103.573 100.697 103.523 99.9704 103.435 98.516C104.025 99.6953 104.324 100.281 104.928 101.446C105.367 101.184 105.829 100.923 106.327 100.721C106.932 100.476 107.539 100.173 108.131 99.8328C107.978 97.9187 107.912 96.9581 107.801 95.0275C108.434 96.7089 108.759 97.5437 109.423 99.2003C109.732 99.0369 110.039 98.8664 110.349 98.6971C110.989 98.4208 111.616 98.0633 112.259 97.7976C112.105 95.88 112.038 94.917 111.925 92.9829C112.654 94.6243 113.027 95.4379 113.784 97.051C114.011 96.9417 114.238 96.8288 114.468 96.743C114.812 96.5972 115.152 96.4373 115.49 96.2762C115.831 96.1445 116.169 95.9987 116.502 95.84C116.752 95.7212 117.001 95.6154 117.249 95.5061C117.1 93.8212 117.033 92.9747 116.916 91.2769C117.619 92.7078 117.977 93.4168 118.701 94.8253C119.264 94.5819 119.82 94.3115 120.331 94.1904C120.519 94.1316 120.7 94.0587 120.882 93.9894C112.276 120.042 108.189 146.274 108.404 173.871C111.274 173.761 112.708 173.707 115.578 173.596C114.758 146.759 118.097 121.311 125.791 95.7789C125.857 95.8753 125.914 95.974 125.984 96.0681C126.322 96.4643 126.613 96.9993 126.929 97.5131C128.332 96.8441 129.035 96.5172 130.441 95.8788C129.344 97.0616 128.8 97.6601 127.72 98.8711C127.861 99.0957 128.005 99.319 128.144 99.5495C128.328 99.8587 128.525 100.16 128.733 100.45C128.922 100.762 129.115 101.071 129.319 101.371C129.463 101.562 129.589 101.773 129.719 101.979C131.228 101.165 131.982 100.768 133.497 99.9916C132.323 101.324 131.743 101.999 130.59 103.365C130.988 103.909 131.328 104.508 131.726 105.047C131.9 105.335 132.072 105.621 132.25 105.902C133.664 105.004 134.373 104.564 135.795 103.703C134.678 105.018 134.125 105.683 133.03 107.032C133.365 107.583 133.735 108.111 134.135 108.589C134.466 108.984 134.736 109.4 134.99 109.804C136.075 109.24 136.618 108.963 137.707 108.418C136.913 109.406 136.52 109.906 135.739 110.911C136.277 111.632 136.825 112.241 137.155 112.74C137.721 113.365 138.047 113.717 138.047 113.717C138.047 113.717 138.182 113.219 138.427 112.349C138.513 111.516 138.98 110.176 138.842 108.739C138.772 108.025 138.824 107.182 138.727 106.345C138.629 105.506 138.535 104.583 138.295 103.703C138.055 102.824 137.751 101.914 137.386 101.027C136.965 100.176 136.564 99.2826 136.074 98.4513C135.508 97.6824 134.972 96.8688 134.354 96.1974C134.333 96.1739 134.31 96.1504 134.289 96.128C134.406 96.1892 134.52 96.2527 134.637 96.3138C135.954 94.8559 136.62 94.1375 137.962 92.7231C137.299 94.5079 136.978 95.4026 136.357 97.2015C137.372 97.7189 138.408 98.2397 139.444 98.7817C140.864 97.0816 141.582 96.2445 143.038 94.5984C142.16 96.5772 141.734 97.573 140.908 99.5765C141.089 99.6776 141.272 99.7729 141.452 99.8775C142.209 100.248 142.947 100.646 143.676 101.05C145.044 99.3414 145.738 98.4995 147.143 96.8441C146.26 98.8111 145.832 99.8011 145.002 101.793C145.829 102.265 146.645 102.738 147.445 103.187C148.04 103.553 148.635 103.894 149.221 104.228C150.21 102.749 150.712 102.017 151.73 100.569C151.182 102.301 150.919 103.17 150.412 104.911C151.222 105.38 151.996 105.866 152.663 106.343C152.939 106.541 153.218 106.723 153.489 106.904C154.082 106.08 154.382 105.669 154.984 104.856C154.756 105.913 154.645 106.442 154.433 107.5C154.55 107.569 154.67 107.65 154.785 107.715C155.425 108.131 156.027 108.478 156.46 108.82C157.437 109.443 157.997 109.795 157.997 109.795C157.997 109.795 157.805 109.145 157.486 107.996C157.252 107.468 156.994 106.796 156.683 106.014C156.331 105.271 155.929 104.387 155.36 103.579C154.222 101.963 152.92 99.8481 151.077 98.0986C149.293 96.2762 147.096 94.7066 144.83 93.3063C142.49 92.04 140.022 90.9747 137.673 90.3504C135.916 89.8825 134.123 89.7073 132.509 89.5979C133.267 89.5191 134.053 89.4592 134.861 89.4063C135.245 87.4875 135.45 86.528 135.881 84.6092C136.302 86.4834 136.523 87.4145 136.986 89.2605C137.139 89.2487 137.294 89.2358 137.446 89.2264C137.988 89.1911 138.557 89.1699 139.12 89.1441C139.577 87.0701 139.819 86.0331 140.331 83.9614C140.532 86.0189 140.647 87.0407 140.899 89.0724C142.122 89.0324 143.353 89.0289 144.581 89.0841C144.897 86.849 145.072 85.7309 145.454 83.4899C145.703 85.7638 145.846 86.8925 146.161 89.1323C147.308 89.1711 148.442 89.2558 149.558 89.3687C149.703 87.2217 149.792 86.1447 150 83.9849C150.381 86.2212 150.588 87.3287 151.033 89.5274C151.543 89.5862 152.052 89.6473 152.552 89.7061C153.306 89.8237 154.055 89.9248 154.788 90.0247C154.968 88.1177 155.071 87.1618 155.301 85.2465C155.682 87.2629 155.887 88.2623 156.322 90.2446C157.327 90.3986 158.284 90.5738 159.154 90.816C159.471 90.9054 159.783 90.983 160.091 91.0559C160.061 89.799 160.051 89.1676 160.043 87.9025C160.546 89.284 160.805 89.9695 161.333 91.331C162.365 91.5438 163.283 91.7131 163.973 91.9412C165.199 92.2128 165.898 92.3727 165.898 92.3727C165.898 92.3727 165.45 91.8025 164.662 90.8007Z" fill="url(#paint7_linear_16_1535)"/>
<path d="M186.16 186.035C185.694 185.447 184.931 185.03 184.219 184.706C175.105 180.559 166.563 175.154 158.914 168.692C155.044 165.424 151.005 161.705 145.96 161.257C139.942 160.723 134.672 164.991 128.915 166.826C124.571 168.213 119.927 168.2 115.38 168.549C99.1277 169.797 83.2986 175.982 70.4688 186.033H186.16V186.035Z" fill="url(#paint8_linear_16_1535)"/>
<path d="M220.48 202.767C220.48 205.848 222.977 208.345 226.058 208.345H233.526C236.606 208.345 239.104 210.842 239.104 213.923V213.955C239.104 217.035 236.606 219.532 233.526 219.532H232.326C229.245 219.532 226.748 222.03 226.748 225.11C226.748 228.191 224.251 230.688 221.17 230.688H202.463C199.382 230.688 196.885 233.185 196.885 236.266C196.885 239.346 194.388 241.843 191.307 241.843H170.989C167.908 241.843 165.411 244.341 165.411 247.421C165.411 250.502 162.914 252.999 159.833 252.999H96.7602C93.6798 252.999 91.1825 250.502 91.1825 247.421C91.1825 244.341 88.6852 241.843 85.6047 241.843H65.3171C62.2366 241.843 59.7393 239.346 59.7393 236.266C59.7393 233.185 57.242 230.688 54.1616 230.688H35.4542C32.3737 230.688 29.8764 228.191 29.8764 225.11C29.8764 222.03 27.3791 219.532 24.2986 219.532H23.0653C19.9848 219.532 17.4875 217.035 17.4875 213.955V213.923C17.4875 210.842 19.9848 208.345 23.0653 208.345H30.5336C33.6141 208.345 36.1114 205.848 36.1114 202.767C36.1114 199.687 33.6141 197.19 30.5336 197.19H11.463C5.30201 197.19 0.308594 192.195 0.308594 186.035H256.309C256.309 192.196 251.314 197.19 245.154 197.19H226.052C222.977 197.19 220.48 199.687 220.48 202.767Z" fill="url(#paint9_linear_16_1535)"/>
<path d="M177.971 208.933C177.971 211.197 179.806 213.031 182.07 213.031H184.694C186.957 213.031 188.793 214.867 188.793 217.13V217.154C188.793 219.417 186.957 221.252 184.694 221.252H176.89C174.626 221.252 172.792 223.088 172.792 225.351C172.792 227.615 170.956 229.45 168.693 229.45H151.391C149.127 229.45 147.292 231.285 147.292 233.548C147.292 235.813 145.457 237.647 143.193 237.647H113.443C111.179 237.647 109.345 235.812 109.345 233.548C109.345 231.285 107.509 229.45 105.246 229.45H87.9413C85.678 229.45 83.8426 227.614 83.8426 225.351C83.8426 223.086 82.0073 221.252 79.744 221.252H71.9405C69.6772 221.252 67.8418 219.417 67.8418 217.154V217.13C67.8418 214.867 69.6772 213.031 71.9405 213.031H74.5648C76.8281 213.031 78.6634 211.196 78.6634 208.933C78.6634 206.668 76.8281 204.834 74.5648 204.834H63.6456C61.3811 204.834 59.5469 202.999 59.5469 200.735C59.5469 198.472 61.3822 196.637 63.6456 196.637H192.99C195.253 196.637 197.089 198.472 197.089 200.735C197.089 203 195.253 204.834 192.99 204.834H182.071C179.806 204.834 177.971 206.669 177.971 208.933Z" fill="url(#paint10_linear_16_1535)"/>
<defs>
<linearGradient id="paint0_linear_16_1535" x1="97.5007" y1="-65.8494" x2="156.242" y2="220.327" gradientUnits="userSpaceOnUse">
<stop stop-color="white"/>
<stop offset="0.2585" stop-color="#F7EFE1"/>
<stop offset="0.5517" stop-color="#ECDABA"/>
<stop offset="0.6846" stop-color="#EFCF9C"/>
<stop offset="0.9732" stop-color="#F7B54F"/>
<stop offset="1" stop-color="#F8B248"/>
</linearGradient>
<linearGradient id="paint1_linear_16_1535" x1="88.8435" y1="-108.023" x2="139.116" y2="136.894" gradientUnits="userSpaceOnUse">
<stop stop-color="white"/>
<stop offset="0.2585" stop-color="#F7EFE1"/>
<stop offset="0.5517" stop-color="#ECDABA"/>
<stop offset="0.6846" stop-color="#EFCF9C"/>
<stop offset="0.9732" stop-color="#F7B54F"/>
<stop offset="1" stop-color="#F8B248"/>
</linearGradient>
<linearGradient id="paint2_linear_16_1535" x1="95.4597" y1="-75.7801" x2="137.303" y2="128.073" gradientUnits="userSpaceOnUse">
<stop stop-color="#FFBF0B"/>
<stop offset="1" stop-color="#FB5507"/>
</linearGradient>
<linearGradient id="paint3_linear_16_1535" x1="166.2" y1="5.44889" x2="181.541" y2="193.046" gradientUnits="userSpaceOnUse">
<stop stop-color="#88390A"/>
<stop offset="1" stop-color="#53210A"/>
</linearGradient>
<linearGradient id="paint4_linear_16_1535" x1="185.933" y1="3.84074" x2="201.274" y2="191.439" gradientUnits="userSpaceOnUse">
<stop stop-color="#88390A"/>
<stop offset="1" stop-color="#53210A"/>
</linearGradient>
<linearGradient id="paint5_linear_16_1535" x1="153.85" y1="6.46086" x2="169.191" y2="194.058" gradientUnits="userSpaceOnUse">
<stop stop-color="#88390A"/>
<stop offset="1" stop-color="#53210A"/>
</linearGradient>
<linearGradient id="paint6_linear_16_1535" x1="58.3408" y1="12.3318" x2="88.3179" y2="191.777" gradientUnits="userSpaceOnUse">
<stop stop-color="#88390A"/>
<stop offset="1" stop-color="#53210A"/>
</linearGradient>
<linearGradient id="paint7_linear_16_1535" x1="111.602" y1="3.43434" x2="141.579" y2="182.88" gradientUnits="userSpaceOnUse">
<stop stop-color="#88390A"/>
<stop offset="1" stop-color="#53210A"/>
</linearGradient>
<linearGradient id="paint8_linear_16_1535" x1="98.184" y1="5.6709" x2="128.161" y2="185.117" gradientUnits="userSpaceOnUse">
<stop stop-color="#88390A"/>
<stop offset="1" stop-color="#53210A"/>
</linearGradient>
<linearGradient id="paint9_linear_16_1535" x1="128.314" y1="186.035" x2="128.314" y2="247.849" gradientUnits="userSpaceOnUse">
<stop stop-color="#FFBF0B"/>
<stop offset="1" stop-color="#FB5507"/>
</linearGradient>
<linearGradient id="paint10_linear_16_1535" x1="128.317" y1="195.666" x2="128.317" y2="225.667" gradientUnits="userSpaceOnUse">
<stop stop-color="#FFBF0B"/>
<stop offset="1" stop-color="#FE9C0A"/>
</linearGradient>
</defs>
</svg>
