<svg width="257" height="256" viewBox="0 0 257 256" fill="none" xmlns="http://www.w3.org/2000/svg">
<path d="M128.307 144.88C137.635 144.88 145.197 137.319 145.197 127.991C145.197 118.663 137.635 111.102 128.307 111.102C118.98 111.102 111.418 118.663 111.418 127.991C111.418 137.319 118.98 144.88 128.307 144.88Z" fill="url(#paint0_linear_16_1484)"/>
<path opacity="0.11" d="M144.296 133.456C142.027 140.107 135.722 144.884 128.307 144.884C118.978 144.884 111.418 137.325 111.418 127.995C111.418 118.867 118.657 111.435 127.704 111.121C122.388 113.229 118.623 118.424 118.623 124.496C118.623 132.45 125.074 138.9 133.02 138.9C137.588 138.901 141.65 136.778 144.296 133.456Z" fill="#560000"/>
<path opacity="0.56" d="M138.065 120.738C139.813 123.767 139.216 127.387 136.73 128.822C134.244 130.257 130.81 128.966 129.061 125.936C127.313 122.907 127.91 119.287 130.396 117.852C132.882 116.416 136.315 117.709 138.065 120.738Z" fill="#FFF171"/>
<path d="M128.308 172.859C103.571 172.859 83.4453 152.733 83.4453 127.996C83.4453 103.258 103.571 83.1328 128.308 83.1328C153.045 83.1328 173.171 103.259 173.171 127.996C173.171 152.733 153.046 172.859 128.308 172.859ZM128.308 87.1535C105.788 87.1535 87.467 105.475 87.467 127.996C87.467 150.516 105.789 168.837 128.308 168.837C150.828 168.837 169.149 150.515 169.149 127.996C169.149 105.476 150.829 87.1535 128.308 87.1535Z" fill="url(#paint1_linear_16_1484)"/>
<path d="M128.306 68.1406C95.2988 68.1406 68.4531 94.9873 68.4531 127.994C68.4531 161.002 95.2998 187.848 128.306 187.848C161.312 187.848 188.16 161.002 188.16 127.994C188.16 94.9873 161.313 68.1406 128.306 68.1406ZM128.306 180.61C99.2961 180.61 75.6907 157.004 75.6907 127.994C75.6907 98.9846 99.2961 75.3792 128.306 75.3792C157.316 75.3792 180.921 98.9846 180.921 127.994C180.921 157.004 157.317 180.61 128.306 180.61Z" fill="url(#paint2_linear_16_1484)"/>
<path opacity="0.24" d="M128.307 71.6719C97.1982 71.6719 71.9844 96.8857 71.9844 127.994C71.9844 159.103 97.1982 184.317 128.307 184.317C159.416 184.317 184.629 159.103 184.629 127.994C184.63 96.8857 159.417 71.6719 128.307 71.6719ZM128.307 180.61C99.2971 180.61 75.6917 157.004 75.6917 127.994C75.6917 98.9846 99.2971 75.3792 128.307 75.3792C157.317 75.3792 180.922 98.9846 180.922 127.994C180.922 157.004 157.318 180.61 128.307 180.61Z" fill="#560000"/>
<path d="M128.307 95.1719C110.211 95.1719 95.4844 109.898 95.4844 127.994C95.4844 146.09 110.211 160.816 128.307 160.816C146.403 160.816 161.129 146.09 161.129 127.994C161.129 109.898 146.403 95.1719 128.307 95.1719ZM128.307 153.578C114.2 153.578 102.723 142.101 102.723 127.994C102.723 113.888 114.2 102.41 128.307 102.41C142.413 102.41 153.89 113.888 153.89 127.994C153.89 142.101 142.414 153.578 128.307 153.578Z" fill="url(#paint3_linear_16_1484)"/>
<path opacity="0.24" d="M128.308 98.8164C112.199 98.8164 99.1289 111.886 99.1289 127.995C99.1289 144.105 112.198 157.175 128.308 157.175C144.418 157.175 157.487 144.105 157.487 127.995C157.487 111.886 144.418 98.8164 128.308 98.8164ZM128.308 153.579C114.202 153.579 102.724 142.102 102.724 127.995C102.724 113.889 114.202 102.412 128.308 102.412C142.414 102.412 153.892 113.889 153.892 127.995C153.892 142.102 142.415 153.579 128.308 153.579Z" fill="#560000"/>
<path d="M144.563 54.0907C141.482 59.2459 135.885 62.8891 129.893 63.324C123.893 63.758 117.708 60.8388 114.459 55.7877C111.218 50.7288 111.202 43.7081 114.661 38.7932C116.414 36.3003 118.899 34.4261 121.111 32.3185C123.178 30.3403 125.108 27.9835 125.687 25.2093C125.704 25.1451 125.736 25.0887 125.784 25.0488C125.897 24.9524 126.065 24.9524 126.17 25.0731C129.813 29.376 130.111 36.2282 126.757 40.7802C125.856 42.0111 124.73 43.0805 123.902 44.3669C123.082 45.6543 122.575 47.2783 123.098 48.7184C123.605 50.0934 124.997 51.0265 126.443 51.2114C127.899 51.3963 129.379 50.9059 130.601 50.0934C134.06 47.793 135.37 43.1681 134.816 39.0511C134.253 34.9331 132.161 31.1936 130.015 27.6381C127.867 24.0835 125.591 20.5046 124.602 16.4664C123.347 11.3598 124.376 5.76958 127.264 1.39471C127.891 0.437224 128.301 0.0353505 128.559 0.00323961C129.339 -0.11742 128.744 3.16374 128.832 4.60386C129.017 7.50747 129.911 10.3459 131.197 12.9439C133.288 17.1748 136.344 20.8335 139.231 24.5652C142.126 28.2891 144.926 32.2056 146.374 36.6934C148.214 42.413 147.643 48.9276 144.563 54.0907Z" fill="url(#paint4_linear_16_1484)"/>
<path d="M105.426 55.8597C105.345 61.6105 102.571 67.3204 97.9702 70.7387C97.761 70.8993 97.5517 71.0521 97.3425 71.197C92.3644 74.5667 85.5442 75.1379 80.2119 72.3793C74.8717 69.6285 71.3493 63.5566 71.8874 57.5733C72.153 54.5334 73.3752 51.6619 74.2353 48.734C75.0401 45.9919 75.5227 42.9832 74.646 40.2888C74.573 40.0641 74.7744 39.8461 74.9914 39.9268C80.2994 41.8331 83.9747 47.616 83.3558 53.2373C83.1875 54.7572 82.7447 56.245 82.6727 57.7737C82.6085 59.3014 82.986 60.9585 84.1527 61.9394C85.2786 62.8803 86.9513 62.9932 88.3028 62.4298C89.1231 62.0844 89.8228 61.5287 90.3862 60.8457C90.7637 60.4029 91.0858 59.9047 91.3436 59.3822C93.1856 55.667 92.0112 51.0022 89.4695 47.7123C88.9869 47.0934 88.4722 46.5145 87.9175 45.9666C85.5452 43.6021 82.5608 41.8564 79.6095 40.2324C75.9664 38.2221 72.2104 36.2594 69.3311 33.2595C65.6958 29.4713 63.7896 24.1147 64.1039 18.8796C64.3773 14.2556 66.0101 19.2737 67.0639 20.8744C68.6724 23.2953 70.8763 25.3135 73.2808 26.9141C77.2051 29.5356 81.6851 31.1771 86.0522 32.9539C88.0469 33.7664 90.0417 34.6266 91.9557 35.6162C94.2317 36.7985 96.3958 38.1734 98.301 39.8947C102.756 43.9251 105.513 49.852 105.426 55.8597Z" fill="url(#paint5_linear_16_1484)"/>
<path d="M30.1173 67.9708C34.825 68.2754 39.5219 67.459 44.1955 66.8167C48.8691 66.1745 53.6605 65.7084 58.2728 66.7009C64.1461 67.9649 69.4999 71.72 72.4298 76.9648C75.3587 82.2105 75.7148 88.8847 73.0934 94.29C70.472 99.6954 64.8506 103.598 58.8488 103.881C52.848 104.165 46.7625 100.667 44.2335 95.2174C42.9471 92.4461 42.5676 89.3576 41.8485 86.3888C41.1752 83.6078 40.0951 80.7645 37.9835 78.87C37.8103 78.7143 37.8765 78.4234 38.1061 78.3815C43.6535 77.3783 49.7322 80.5505 52.0033 85.7301C52.6173 87.1303 52.9764 88.6376 53.6789 89.995C54.3815 91.3524 55.5404 92.5999 57.0457 92.8655C58.4878 93.1195 59.996 92.3819 60.8806 91.2152C61.7651 90.0485 62.0813 88.5218 61.9889 87.0612C61.7281 82.9131 58.3749 79.4645 54.5294 77.8872C50.6839 76.3109 46.4053 76.2573 42.2494 76.3381C38.0945 76.4189 33.8568 76.6008 29.8653 75.4419C24.819 73.9775 20.4957 70.2867 18.1458 65.6014C16.0703 61.462 19.9936 64.9893 21.7101 65.8427C24.315 67.1378 27.2254 67.783 30.1173 67.9708Z" fill="url(#paint6_linear_16_1484)"/>
<path d="M13.2618 125.109C17.4907 123.019 21.1504 119.963 24.8762 117.07C28.6021 114.177 32.5196 111.378 37.0093 109.931C42.728 108.089 49.2416 108.664 54.4017 111.742C59.5609 114.82 63.2069 120.422 63.639 126.415C64.071 132.407 61.1548 138.597 56.0988 141.843C51.0427 145.088 44.0251 145.103 39.1101 141.648C36.6113 139.89 34.7382 137.406 32.6305 135.194C30.6562 133.123 28.3004 131.201 25.5233 130.615C25.2947 130.568 25.2071 130.281 25.3852 130.131C29.688 126.488 36.5383 126.197 41.0942 129.546C42.3261 130.451 43.3906 131.578 44.678 132.402C45.9653 133.226 47.5923 133.727 49.0285 133.205C50.4044 132.704 51.3415 131.311 51.5244 129.858C51.7073 128.405 51.2179 126.925 50.4073 125.706C48.108 122.244 43.4792 120.934 39.3612 121.491C35.2432 122.048 31.5106 124.141 27.9521 126.289C24.3936 128.437 20.8147 130.713 16.7794 131.705C11.6777 132.959 6.08747 131.926 1.70968 129.043C-2.15725 126.496 3.00385 127.589 4.91688 127.47C7.82048 127.289 10.6638 126.392 13.2618 125.109Z" fill="url(#paint7_linear_16_1484)"/>
<path d="M27.2327 183.019C29.8502 179.095 31.4918 174.619 33.2715 170.25C35.0522 165.882 37.0441 161.499 40.2094 158.001C44.2408 153.546 50.1696 150.786 56.1773 150.873C62.185 150.959 68.143 153.988 71.5127 158.961C74.8834 163.934 75.4526 170.754 72.6969 176.093C69.9412 181.431 63.8703 184.952 57.886 184.418C54.8432 184.147 51.9786 182.93 49.0477 182.069C46.3027 181.263 43.3008 180.776 40.6035 181.658C40.3816 181.731 40.1627 181.526 40.2415 181.307C42.1468 176.002 47.9336 172.324 53.5539 172.946C55.0729 173.114 56.5587 173.557 58.0855 173.628C59.6122 173.698 61.2722 173.319 62.255 172.148C63.196 171.026 63.3108 169.351 62.7435 168.002C62.1762 166.652 61.0115 165.616 59.7007 164.965C55.9788 163.116 51.3149 164.295 48.026 166.838C44.738 169.38 42.5525 173.059 40.5451 176.698C38.5377 180.337 36.576 184.097 33.5771 186.975C29.786 190.612 24.4274 192.511 19.1953 192.204C14.5732 191.932 19.5893 190.297 21.1861 189.238C23.61 187.628 25.6243 185.43 27.2327 183.019Z" fill="url(#paint8_linear_16_1484)"/>
<path d="M68.2872 226.185C68.5918 221.477 67.7754 216.78 67.1331 212.106C66.4909 207.433 66.0248 202.641 67.0173 198.029C68.2813 192.156 72.0364 186.802 77.2812 183.872C82.5269 180.943 89.2011 180.587 94.6065 183.208C100.012 185.83 103.915 191.451 104.198 197.453C104.481 203.454 100.984 209.539 95.5338 212.068C92.7625 213.355 89.674 213.734 86.7052 214.453C83.9242 215.127 81.081 216.207 79.1864 218.318C79.0307 218.492 78.7398 218.425 78.6979 218.196C77.6947 212.648 80.8669 206.57 86.0465 204.299C87.4467 203.685 88.954 203.325 90.3114 202.623C91.6688 201.92 92.9163 200.761 93.1819 199.256C93.4359 197.814 92.6983 196.306 91.5316 195.421C90.3649 194.537 88.8382 194.221 87.3776 194.313C83.2295 194.574 79.7809 197.927 78.2036 201.772C76.6273 205.617 76.5738 209.896 76.6545 214.052C76.7353 218.206 76.9172 222.444 75.7583 226.436C74.2939 231.482 70.6031 235.805 65.9178 238.155C61.7784 240.231 65.3057 236.307 66.1591 234.591C67.4552 231.987 68.0994 229.077 68.2872 226.185Z" fill="url(#paint9_linear_16_1484)"/>
<path d="M125.421 243.04C123.331 238.811 120.276 235.152 117.383 231.426C114.49 227.7 111.69 223.783 110.243 219.293C108.401 213.574 108.977 207.06 112.054 201.9C115.132 196.741 120.735 193.095 126.727 192.663C132.719 192.231 138.91 195.147 142.156 200.203C145.401 205.259 145.416 212.277 141.96 217.192C140.203 219.691 137.719 221.564 135.507 223.672C133.435 225.646 131.514 228.002 130.928 230.779C130.88 231.008 130.594 231.095 130.443 230.917C126.801 226.614 126.509 219.764 129.858 215.208C130.763 213.976 131.89 212.912 132.714 211.624C133.538 210.337 134.04 208.71 133.517 207.274C133.016 205.898 131.622 204.961 130.171 204.778C128.718 204.595 127.239 205.084 126.019 205.895C122.557 208.194 121.247 212.823 121.803 216.942C122.361 221.06 124.454 224.793 126.602 228.351C128.749 231.91 131.025 235.488 132.018 239.524C133.273 244.625 132.238 250.216 129.355 254.594C126.809 258.46 127.902 253.299 127.783 251.386C127.602 248.482 126.706 245.638 125.421 243.04Z" fill="url(#paint10_linear_16_1484)"/>
<path d="M183.335 229.072C179.411 226.454 174.935 224.813 170.566 223.033C166.198 221.252 161.815 219.26 158.317 216.095C153.862 212.064 151.103 206.135 151.189 200.127C151.275 194.121 154.304 188.162 159.278 184.792C164.251 181.421 171.071 180.852 176.409 183.608C181.747 186.363 185.269 192.434 184.735 198.419C184.463 201.461 183.247 204.326 182.386 207.257C181.579 210.002 181.093 213.004 181.974 215.701C182.047 215.923 181.843 216.142 181.624 216.063C176.319 214.158 172.641 208.371 173.262 202.751C173.431 201.232 173.873 199.746 173.943 198.219C174.014 196.692 173.634 195.032 172.463 194.05C171.342 193.109 169.667 192.994 168.317 193.561C166.968 194.128 165.931 195.293 165.28 196.604C163.432 200.326 164.611 204.99 167.153 208.278C169.695 211.566 173.374 213.751 177.013 215.759C180.653 217.767 184.413 219.728 187.29 222.727C190.928 226.518 192.827 231.877 192.519 237.109C192.248 241.731 190.613 236.715 189.553 235.118C187.944 232.694 185.746 230.679 183.335 229.072Z" fill="url(#paint11_linear_16_1484)"/>
<path d="M226.497 188.017C221.789 187.712 217.092 188.528 212.419 189.171C207.745 189.813 202.954 190.279 198.342 189.286C192.468 188.022 187.114 184.267 184.185 179.023C181.256 173.777 180.9 167.103 183.521 161.697C186.142 156.292 191.764 152.389 197.766 152.106C203.766 151.823 209.852 155.32 212.381 160.77C213.667 163.541 214.047 166.63 214.766 169.599C215.439 172.38 216.519 175.223 218.631 177.117C218.805 177.273 218.738 177.564 218.508 177.606C212.961 178.609 206.882 175.436 204.611 170.257C203.997 168.857 203.638 167.35 202.935 165.992C202.233 164.635 201.074 163.387 199.569 163.122C198.127 162.868 196.618 163.605 195.734 164.772C194.849 165.939 194.533 167.466 194.626 168.926C194.886 173.074 198.239 176.523 202.085 178.1C205.931 179.676 210.209 179.73 214.365 179.649C218.52 179.568 222.758 179.387 226.749 180.545C231.795 182.01 236.119 185.701 238.469 190.386C240.544 194.525 236.621 190.998 234.904 190.145C232.299 188.849 229.389 188.203 226.497 188.017Z" fill="url(#paint12_linear_16_1484)"/>
<path d="M243.357 130.88C239.128 132.971 235.468 136.026 231.742 138.919C228.017 141.812 224.099 144.611 219.609 146.058C213.891 147.9 207.376 147.325 202.217 144.247C197.058 141.17 193.412 135.568 192.98 129.575C192.548 123.583 195.464 117.392 200.52 114.146C205.576 110.901 212.594 110.886 217.508 114.341C220.007 116.098 221.88 118.583 223.988 120.795C225.962 122.866 228.318 124.789 231.095 125.374C231.324 125.422 231.412 125.708 231.233 125.859C226.931 129.501 220.08 129.793 215.524 126.443C214.293 125.538 213.228 124.412 211.941 123.587C210.653 122.763 209.026 122.262 207.59 122.785C206.214 123.286 205.277 124.679 205.094 126.131C204.911 127.584 205.401 129.064 206.211 130.283C208.511 133.745 213.139 135.056 217.257 134.498C221.375 133.941 225.108 131.848 228.667 129.7C232.225 127.553 235.804 125.277 239.839 124.284C244.941 123.029 250.531 124.063 254.909 126.946C258.776 129.493 253.615 128.4 251.702 128.519C248.798 128.7 245.955 129.597 243.357 130.88Z" fill="url(#paint13_linear_16_1484)"/>
<path d="M229.383 72.9719C226.766 76.8962 225.124 81.3723 223.345 85.7413C221.564 90.1094 219.572 94.493 216.407 97.9902C212.375 102.445 206.446 105.204 200.44 105.118C194.432 105.032 188.474 102.003 185.104 97.0298C181.734 92.0565 181.164 85.2373 183.92 79.8981C186.676 74.5599 192.747 71.0384 198.731 71.5736C201.774 71.8451 204.638 73.0614 207.569 73.9226C210.314 74.7292 213.316 75.2158 216.014 74.3351C216.235 74.2622 216.454 74.4665 216.376 74.6854C214.47 79.9906 208.683 83.6687 203.063 83.0469C201.544 82.8786 200.058 82.4359 198.532 82.3658C197.005 82.2957 195.345 82.6752 194.362 83.8458C193.421 84.9668 193.306 86.6424 193.874 87.992C194.441 89.3416 195.606 90.378 196.916 91.0289C200.638 92.8777 205.302 91.6984 208.59 89.1558C211.878 86.6142 214.064 82.935 216.072 79.2958C218.079 75.6566 220.041 71.8967 223.04 69.0193C226.831 65.382 232.19 63.4826 237.422 63.7901C242.044 64.0616 237.028 65.6963 235.431 66.756C233.005 68.3625 230.992 70.5616 229.383 72.9719Z" fill="url(#paint14_linear_16_1484)"/>
<path d="M188.329 29.8023C188.023 34.5148 188.844 39.2118 189.487 43.8844C190.122 48.557 190.588 53.3503 189.6 57.9587C188.338 63.8302 184.582 69.1859 179.338 72.1138C175.67 74.165 171.303 74.9532 167.161 74.3421C165.375 74.0852 163.638 73.5695 162.013 72.7823C156.6 70.1599 152.7 64.5385 152.418 58.5387C152.137 52.531 155.635 46.4504 161.08 43.9175C163.855 42.6389 166.943 42.2526 169.911 41.5364C170.763 41.3272 171.616 41.0859 172.452 40.7881C174.342 40.1041 176.112 39.1398 177.431 37.6676C177.583 37.4982 177.872 37.5634 177.921 37.796C178.79 42.6214 176.497 47.8574 172.468 50.6316C171.872 51.0422 171.237 51.4032 170.57 51.6932C169.17 52.3043 167.658 52.6585 166.307 53.3659C164.947 54.0655 163.701 55.2235 163.435 56.7278C163.177 58.1757 163.918 59.6791 165.083 60.5636C166.249 61.4481 167.778 61.7624 169.234 61.6739C170.246 61.6096 171.212 61.3683 172.121 60.9742C174.951 59.7521 177.219 57.1297 178.41 54.2183C179.987 50.3737 180.043 46.0874 179.962 41.9373C179.882 37.7795 179.697 33.5408 180.856 29.5513C182.319 24.5089 186.011 20.1817 190.7 17.8327C194.834 15.7582 191.311 19.6825 190.459 21.3961C189.166 24.0039 188.515 26.9153 188.329 29.8023Z" fill="url(#paint15_linear_16_1484)"/>
<path opacity="0.24" d="M146.373 36.6943C148.215 42.413 147.644 48.9276 144.563 54.0907C141.482 59.2459 135.885 62.8891 129.893 63.324C123.893 63.758 117.708 60.8388 114.459 55.7877C111.218 50.7288 111.202 43.7081 114.661 38.7932C116.414 36.3003 118.899 34.4261 121.111 32.3185C123.178 30.3403 125.108 27.9835 125.687 25.2093C125.704 25.1451 125.736 25.0887 125.784 25.0488C127.215 29.6251 125.277 32.6406 124.441 34.4583C123.275 36.9833 114.147 44.1976 119.197 53.3259C124.248 62.4541 140.397 56.7919 140.977 43.5865C141.556 30.3802 130.409 26.52 127.771 14.4483C126.637 9.28524 127.304 4.25064 128.559 0.00323961C129.339 -0.11742 128.744 3.16374 128.832 4.60386C129.017 7.50747 129.91 10.3459 131.197 12.9439C133.288 17.1748 136.344 20.8335 139.231 24.5652C142.126 28.29 144.926 32.2066 146.373 36.6943Z" fill="#560000"/>
<path opacity="0.24" d="M98.3002 39.8948C102.755 43.9262 105.517 49.8531 105.431 55.8646C105.341 61.8694 102.315 67.8235 97.3428 71.1951C92.3636 74.5707 85.5483 75.135 80.2092 72.3852C74.8729 69.6246 71.3485 63.5527 71.8866 57.5675C72.1581 54.5315 73.3734 51.6659 74.2355 48.736C75.0364 45.989 75.5297 42.9833 74.6442 40.2908C74.6257 40.2266 74.6257 40.1624 74.6472 40.103C78.1755 43.3501 78.0042 46.931 78.1891 48.9238C78.4421 51.6941 74.1441 62.5057 83.0816 67.8858C92.0201 73.2658 103.175 60.2872 97.0732 48.5608C90.9721 36.8345 79.3879 39.0648 71.0673 29.9287C67.503 26.0238 65.5646 21.3298 64.5273 17.025C65.1423 16.5307 66.2682 19.6698 67.0641 20.8725C68.6755 23.2944 70.8688 25.3067 73.282 26.9132C77.2082 29.5317 81.6843 31.1723 86.0504 32.9608C90.4204 34.7395 94.8031 36.7314 98.3002 39.8948Z" fill="#560000"/>
<path opacity="0.24" d="M58.2724 66.7011C64.1458 67.9651 69.5015 71.7172 72.4333 76.9659C75.3574 82.2116 75.7145 88.881 73.094 94.2863C70.4707 99.6994 64.8493 103.596 58.8504 103.885C52.8486 104.162 46.7602 100.666 44.2341 95.2136C42.9516 92.4492 42.5712 89.3597 41.8521 86.3909C41.1719 83.6119 40.0967 80.7618 37.9832 78.8731C37.9355 78.8274 37.9024 78.7709 37.8917 78.7096C42.5712 79.7576 44.2137 82.9444 45.3697 84.5781C46.9733 86.8502 48.6567 98.3634 59.0879 98.5532C69.519 98.7429 72.6902 81.9265 61.5429 74.8213C50.3955 67.717 41.4784 75.4401 29.7054 71.689C24.6669 70.0893 20.6404 66.994 17.5898 63.7839C17.8759 63.0482 20.4195 65.2045 21.7107 65.8477C24.3176 67.139 27.2231 67.7861 30.116 67.97C34.8246 68.2745 39.5226 67.4572 44.1981 66.8227C48.8707 66.1766 53.6621 65.7115 58.2724 66.7011Z" fill="#560000"/>
<path opacity="0.24" d="M37.0078 109.928C42.7265 108.086 49.2411 108.657 54.4041 111.738C59.5594 114.819 63.2025 120.416 63.6375 126.408C64.0715 132.408 61.1523 138.592 56.1012 141.841C51.0422 145.083 44.0216 145.099 39.1067 141.64C36.6137 139.887 34.7396 137.401 32.632 135.19C30.6537 133.123 28.297 131.192 25.5218 130.613C25.4576 130.597 25.4012 130.565 25.3613 130.517C29.9376 129.085 32.9531 131.024 34.7707 131.86C37.2958 133.026 44.5101 142.155 53.6383 137.104C62.7666 132.053 57.1044 115.903 43.899 115.324C30.6927 114.745 26.8325 125.892 14.7608 128.53C9.59774 129.665 4.56216 128.997 0.31574 127.742C0.19508 126.962 3.47624 127.557 4.91636 127.468C7.81997 127.284 10.6584 126.39 13.2564 125.104C17.4873 123.013 21.146 119.956 24.8777 117.069C28.6035 114.175 32.5201 111.376 37.0078 109.928Z" fill="#560000"/>
<path opacity="0.24" d="M40.2083 158.004C44.2396 153.55 50.1665 150.786 56.1791 150.873C62.1838 150.964 68.138 153.989 71.5096 158.961C74.8851 163.94 75.4495 170.756 72.7006 176.095C69.9401 181.431 63.8682 184.955 57.8829 184.417C54.8469 184.146 51.9813 182.93 49.0514 182.068C46.3045 181.268 43.2987 180.774 40.6062 181.66C40.542 181.678 40.4778 181.678 40.4184 181.657C43.6655 178.128 47.2464 178.3 49.2392 178.115C52.0095 177.862 62.8212 182.16 68.2012 173.222C73.5812 164.284 60.6026 153.129 48.8763 159.231C37.1499 165.333 39.3802 176.916 30.2451 185.237C26.3402 188.801 21.6462 190.739 17.3414 191.777C16.8471 191.162 19.9862 190.036 21.1889 189.24C23.6108 187.627 25.6231 185.435 27.2296 183.022C29.8481 179.096 31.4887 174.62 33.2772 170.252C35.053 165.883 37.0458 161.502 40.2083 158.004Z" fill="#560000"/>
<path opacity="0.24" d="M67.0136 198.033C68.2777 192.16 72.0298 186.804 77.2784 183.872C82.5242 180.948 89.1935 180.591 94.5998 183.212C100.013 185.835 103.909 191.456 104.198 197.455C104.475 203.457 100.979 209.545 95.5272 212.073C92.7617 213.355 89.6733 213.735 86.7035 214.455C83.9244 215.135 81.0743 216.21 79.1856 218.323C79.1399 218.371 79.0835 218.404 79.0222 218.415C80.0701 213.735 83.2569 212.093 84.8907 210.937C87.1628 209.333 98.676 207.649 98.8657 197.219C99.0555 186.788 82.2391 183.616 75.1338 194.764C68.0295 205.911 75.7527 214.828 72.0015 226.601C70.4018 231.64 67.3065 235.666 64.0964 238.717C63.3608 238.432 65.5161 235.887 66.1603 234.596C67.4515 231.989 68.0976 229.084 68.2825 226.191C68.5871 221.482 67.7697 216.784 67.1353 212.109C66.4882 207.435 66.0231 202.644 67.0136 198.033Z" fill="#560000"/>
<path opacity="0.24" d="M110.245 219.297C108.403 213.578 108.974 207.064 112.054 201.901C115.135 196.746 120.732 193.102 126.724 192.667C132.724 192.233 138.909 195.153 142.158 200.204C145.399 205.263 145.416 212.284 141.956 217.198C140.203 219.691 137.718 221.565 135.506 223.673C133.439 225.651 131.509 228.008 130.93 230.783C130.913 230.847 130.881 230.904 130.833 230.944C129.402 226.367 131.34 223.352 132.176 221.533C133.342 219.008 142.47 211.794 137.42 202.666C132.369 193.537 116.219 199.2 115.64 212.405C115.061 225.611 126.209 229.471 128.846 241.543C129.981 246.706 129.314 251.741 128.058 255.987C127.278 256.108 127.873 252.827 127.785 251.387C127.6 248.483 126.707 245.645 125.42 243.047C123.329 238.816 120.273 235.157 117.386 231.425C114.491 227.701 111.691 223.785 110.245 219.297Z" fill="#560000"/>
<path opacity="0.24" d="M158.316 216.096C153.862 212.064 151.099 206.137 151.186 200.125C151.275 194.12 154.301 188.166 159.274 184.794C164.253 181.419 171.068 180.855 176.407 183.604C181.743 186.365 185.268 192.437 184.73 198.422C184.458 201.458 183.243 204.324 182.381 207.255C181.58 210.002 181.087 213.007 181.972 215.7C181.991 215.763 181.991 215.828 181.969 215.888C178.441 212.64 178.612 209.06 178.427 207.067C178.174 204.296 182.472 193.485 173.535 188.105C164.596 182.725 153.441 195.703 159.543 207.43C165.644 219.156 177.229 216.926 185.549 226.062C189.112 229.967 191.052 234.661 192.089 238.966C191.474 239.46 190.348 236.321 189.552 235.118C187.941 232.696 185.748 230.684 183.334 229.077C179.408 226.459 174.932 224.818 170.566 223.03C166.196 221.252 161.813 219.259 158.316 216.096Z" fill="#560000"/>
<path opacity="0.24" d="M198.346 189.289C192.472 188.025 187.117 184.273 184.185 179.024C181.261 173.778 180.904 167.109 183.524 161.703C186.147 156.29 191.769 152.394 197.768 152.105C203.77 151.828 209.858 155.324 212.385 160.776C213.668 163.542 214.048 166.63 214.767 169.6C215.447 172.379 216.522 175.229 218.636 177.118C218.684 177.163 218.717 177.22 218.727 177.281C214.048 176.233 212.405 173.046 211.249 171.414C209.646 169.141 207.961 157.628 197.531 157.439C187.1 157.249 183.929 174.065 195.076 181.17C206.224 188.274 215.141 180.551 226.914 184.302C231.952 185.901 235.979 188.997 239.029 192.207C238.744 192.943 236.2 190.786 234.908 190.143C232.302 188.852 229.396 188.206 226.503 188.021C221.794 187.716 217.097 188.534 212.421 189.168C207.747 189.813 202.956 190.278 198.346 189.289Z" fill="#560000"/>
<path opacity="0.24" d="M219.61 146.056C213.891 147.898 207.376 147.327 202.213 144.246C197.058 141.166 193.415 135.569 192.98 129.577C192.546 123.577 195.465 117.392 200.516 114.143C205.575 110.902 212.596 110.885 217.511 114.344C220.004 116.098 221.878 118.583 223.985 120.795C225.964 122.862 228.32 124.792 231.096 125.371C231.16 125.388 231.216 125.42 231.256 125.467C226.68 126.899 223.664 124.96 221.846 124.125C219.321 122.958 212.106 113.831 202.978 118.881C193.85 123.932 199.512 140.082 212.717 140.661C225.924 141.24 229.784 130.092 241.856 127.454C247.019 126.32 252.053 126.988 256.3 128.243C256.42 129.023 253.139 128.427 251.699 128.516C248.796 128.701 245.957 129.594 243.359 130.88C239.128 132.972 235.47 136.028 231.738 138.915C228.015 141.81 224.098 144.608 219.61 146.056Z" fill="#560000"/>
<path opacity="0.24" d="M216.409 97.9887C212.377 102.443 206.45 105.206 200.438 105.119C194.433 105.03 188.479 102.004 185.107 97.0312C181.731 92.0521 181.168 85.2368 183.916 79.8966C186.677 74.5604 192.75 71.036 198.734 71.5741C201.77 71.8456 204.636 73.0609 207.567 73.923C210.314 74.7239 213.319 75.2172 216.012 74.3317C216.075 74.3132 216.14 74.3132 216.2 74.3346C212.952 77.8629 209.371 77.6917 207.379 77.8766C204.608 78.1296 193.797 73.8316 188.417 82.7691C183.037 91.7076 196.015 102.863 207.742 96.7607C219.468 90.6596 217.238 79.0754 226.374 70.7548C230.279 67.1904 234.973 65.2512 239.278 64.2148C239.772 64.8298 236.633 65.9556 235.43 66.7516C233.008 68.363 230.996 70.5563 229.389 72.9694C226.771 76.8957 225.13 81.3718 223.342 85.7379C221.564 90.1089 219.571 94.4906 216.409 97.9887Z" fill="#560000"/>
<path opacity="0.24" d="M189.601 57.9599C188.337 63.8333 184.585 69.189 179.336 72.1208C174.091 75.0449 167.421 75.402 162.016 72.7815C156.603 70.1582 152.707 64.5368 152.418 58.5379C152.14 52.5361 155.637 46.4477 161.089 43.9216C163.854 42.6391 166.943 42.2587 169.912 41.5396C172.691 40.8594 175.541 39.7842 177.43 37.6707C177.476 37.623 177.532 37.5899 177.594 37.5792C176.546 42.2587 173.359 43.9012 171.725 45.0572C169.452 46.6608 157.94 48.3451 157.75 58.7754C157.56 69.2065 174.377 72.3777 181.481 61.2304C188.585 50.083 180.862 41.1659 184.613 29.3929C186.213 24.3544 189.308 20.3279 192.518 17.2773C193.254 17.5634 191.098 20.107 190.455 21.3982C189.163 24.0051 188.516 26.9106 188.332 29.8035C188.028 34.5131 188.845 39.2101 189.48 43.8856C190.126 48.5573 190.592 53.3496 189.601 57.9599Z" fill="#560000"/>
<defs>
<linearGradient id="paint0_linear_16_1484" x1="142.034" y1="112.494" x2="117.012" y2="140.745" gradientUnits="userSpaceOnUse">
<stop offset="0.0099" stop-color="#FFF505"/>
<stop offset="0.0889" stop-color="#FFE90A"/>
<stop offset="0.3153" stop-color="#FECD15"/>
<stop offset="0.5415" stop-color="#FDB81D"/>
<stop offset="0.7656" stop-color="#FDAC21"/>
<stop offset="0.9851" stop-color="#FDA823"/>
</linearGradient>
<linearGradient id="paint1_linear_16_1484" x1="162.95" y1="89.6596" x2="82.523" y2="178.665" gradientUnits="userSpaceOnUse">
<stop stop-color="#FDDA47"/>
<stop offset="0.3878" stop-color="#FDA823"/>
<stop offset="0.9802" stop-color="#FE6B3D"/>
</linearGradient>
<linearGradient id="paint2_linear_16_1484" x1="174.343" y1="83.5876" x2="83.1306" y2="171.571" gradientUnits="userSpaceOnUse">
<stop stop-color="#FDDA47"/>
<stop offset="0.3878" stop-color="#FDA823"/>
<stop offset="0.9802" stop-color="#FE6B3D"/>
</linearGradient>
<linearGradient id="paint3_linear_16_1484" x1="162.946" y1="89.6609" x2="82.5252" y2="178.66" gradientUnits="userSpaceOnUse">
<stop stop-color="#FDDA47"/>
<stop offset="0.3878" stop-color="#FDA823"/>
<stop offset="0.9802" stop-color="#FE6B3D"/>
</linearGradient>
<linearGradient id="paint4_linear_16_1484" x1="176.956" y1="-11.8216" x2="-8.53538" y2="168.37" gradientUnits="userSpaceOnUse">
<stop stop-color="#FDA823"/>
<stop offset="0.5099" stop-color="#E2593E"/>
<stop offset="0.9851" stop-color="#FD2957"/>
</linearGradient>
<linearGradient id="paint5_linear_16_1484" x1="158.377" y1="-30.944" x2="-27.1117" y2="149.245" gradientUnits="userSpaceOnUse">
<stop stop-color="#FDA823"/>
<stop offset="0.5099" stop-color="#E2593E"/>
<stop offset="0.9851" stop-color="#FD2957"/>
</linearGradient>
<linearGradient id="paint6_linear_16_1484" x1="158.809" y1="-30.5084" x2="-26.6887" y2="149.689" gradientUnits="userSpaceOnUse">
<stop stop-color="#FDA823"/>
<stop offset="0.5099" stop-color="#E2593E"/>
<stop offset="0.9851" stop-color="#FD2957"/>
</linearGradient>
<linearGradient id="paint7_linear_16_1484" x1="178.088" y1="-10.6615" x2="-7.40975" y2="169.536" gradientUnits="userSpaceOnUse">
<stop stop-color="#FDA823"/>
<stop offset="0.5099" stop-color="#E2593E"/>
<stop offset="0.9851" stop-color="#FD2957"/>
</linearGradient>
<linearGradient id="paint8_linear_16_1484" x1="208.103" y1="20.2369" x2="22.6057" y2="200.434" gradientUnits="userSpaceOnUse">
<stop stop-color="#FDA823"/>
<stop offset="0.5099" stop-color="#E2593E"/>
<stop offset="0.9851" stop-color="#FD2957"/>
</linearGradient>
<linearGradient id="paint9_linear_16_1484" x1="237.888" y1="50.8948" x2="52.3904" y2="231.093" gradientUnits="userSpaceOnUse">
<stop stop-color="#FDA823"/>
<stop offset="0.5099" stop-color="#E2593E"/>
<stop offset="0.9851" stop-color="#FD2957"/>
</linearGradient>
<linearGradient id="paint10_linear_16_1484" x1="269.478" y1="83.4164" x2="83.9807" y2="263.614" gradientUnits="userSpaceOnUse">
<stop stop-color="#FDA823"/>
<stop offset="0.5099" stop-color="#E2593E"/>
<stop offset="0.9851" stop-color="#FD2957"/>
</linearGradient>
<linearGradient id="paint11_linear_16_1484" x1="288.056" y1="102.539" x2="102.559" y2="282.736" gradientUnits="userSpaceOnUse">
<stop stop-color="#FDA823"/>
<stop offset="0.5099" stop-color="#E2593E"/>
<stop offset="0.9851" stop-color="#FD2957"/>
</linearGradient>
<linearGradient id="paint12_linear_16_1484" x1="287.626" y1="102.098" x2="102.129" y2="282.296" gradientUnits="userSpaceOnUse">
<stop stop-color="#FDA823"/>
<stop offset="0.5099" stop-color="#E2593E"/>
<stop offset="0.9851" stop-color="#FD2957"/>
</linearGradient>
<linearGradient id="paint13_linear_16_1484" x1="268.351" y1="82.2538" x2="82.8541" y2="262.451" gradientUnits="userSpaceOnUse">
<stop stop-color="#FDA823"/>
<stop offset="0.5099" stop-color="#E2593E"/>
<stop offset="0.9851" stop-color="#FD2957"/>
</linearGradient>
<linearGradient id="paint14_linear_16_1484" x1="238.333" y1="51.3572" x2="52.836" y2="231.555" gradientUnits="userSpaceOnUse">
<stop stop-color="#FDA823"/>
<stop offset="0.5099" stop-color="#E2593E"/>
<stop offset="0.9851" stop-color="#FD2957"/>
</linearGradient>
<linearGradient id="paint15_linear_16_1484" x1="208.549" y1="20.6969" x2="23.0462" y2="200.9" gradientUnits="userSpaceOnUse">
<stop stop-color="#FDA823"/>
<stop offset="0.5099" stop-color="#E2593E"/>
<stop offset="0.9851" stop-color="#FD2957"/>
</linearGradient>
</defs>
</svg>
