<svg width="251" height="256" viewBox="0 0 251 256" fill="none" xmlns="http://www.w3.org/2000/svg">
<path d="M224.943 189.461C221.892 194.737 218.443 199.74 214.624 204.443H204.957C212.166 200.178 218.861 195.154 224.943 189.461Z" fill="url(#paint0_linear_16_1426)"/>
<path d="M240.6 131.084C240.6 158.881 230.875 184.415 214.63 204.439H33.3886C19.6017 187.427 10.5076 166.46 8.07866 143.501C7.83576 141.266 7.66088 139.002 7.56372 136.729C7.46656 134.854 7.41797 132.979 7.41797 131.084C7.41797 120.047 8.95308 109.359 11.8193 99.2446C12.5674 96.6116 13.3933 94.0272 14.3163 91.4816C30.5322 46.5841 73.5154 14.4922 124.009 14.4922C174.619 14.4922 217.7 46.7492 233.818 91.8216C234.537 93.8231 235.208 95.8538 235.81 97.9135C237.695 104.258 239.046 110.826 239.823 117.579C240.056 119.532 240.231 121.494 240.348 123.476C240.522 125.993 240.6 128.529 240.6 131.084Z" fill="url(#paint1_linear_16_1426)"/>
<path opacity="0.16" d="M87.5355 204.442H33.3886C19.6017 187.43 10.5076 166.463 8.07866 143.504C7.83576 141.269 7.66088 139.005 7.56372 136.732C7.46656 134.856 7.41797 132.981 7.41797 131.087C7.41797 120.049 8.95308 109.362 11.8193 99.2474C12.5674 96.6144 13.3933 94.0299 14.3163 91.4843C21.6421 71.2071 34.4282 53.5337 50.8967 40.2617C38.2855 58.7415 30.9111 81.0882 30.9111 105.155C30.9111 147.409 53.6366 184.359 87.5355 204.442Z" fill="#3A0808"/>
<path d="M77.4222 93.1361L11.8203 99.2474C12.5684 96.6144 13.3943 94.03 14.3173 91.4844L77.4222 93.1361Z" fill="#FFF18A"/>
<path d="M240.344 123.48L190.793 118.865L239.82 117.582C240.053 119.535 240.228 121.498 240.344 123.48Z" fill="#FFF18A"/>
<path d="M108.88 138.231L8.07744 143.506C7.83454 141.272 7.65966 139.008 7.5625 136.734L108.88 138.231Z" fill="#FFF18A"/>
<path d="M235.805 97.9161L144.543 93.1359L233.813 91.8242C234.532 93.8257 235.202 95.8564 235.805 97.9161Z" fill="#FFF18A"/>
<path opacity="0.58" d="M168.817 149.279C176.112 149.279 182.025 143.366 182.025 136.071C182.025 128.777 176.112 122.863 168.817 122.863C161.523 122.863 155.609 128.777 155.609 136.071C155.609 143.366 161.523 149.279 168.817 149.279Z" fill="#FFE357"/>
<path opacity="0.25" d="M166.875 30.0469C166.875 30.0469 232.986 49.0727 232.986 137.377C232.986 137.377 228.675 62.5361 166.875 30.0469Z" fill="#FFF18A"/>
<path d="M178.889 247.679C180.126 247.289 144.543 247.679 144.543 247.679L199.765 234.102H158.189L218.773 221.431H170.069L238.175 210.344H122.156H6.13672L74.2434 221.431H25.5394L86.1231 234.102H44.5467L99.7691 247.679C99.7691 247.679 64.1262 247.679 65.4233 247.679C65.4233 247.679 119.602 266.405 178.889 247.679Z" fill="url(#paint2_linear_16_1426)"/>
<path opacity="0.31" d="M125.457 217.678C125.457 217.678 146.654 216.662 172.316 217.678C172.316 217.678 141.861 219.711 125.457 217.678Z" fill="#FFF18A"/>
<path opacity="0.31" d="M66.2539 214.697C66.2539 214.697 91.5445 213.867 122.16 214.697C122.16 214.697 85.8266 216.36 66.2539 214.697Z" fill="#FFF18A"/>
<path opacity="0.31" d="M90.6367 250.846C90.6367 250.846 115.927 250.015 146.543 250.846C146.543 250.846 110.209 252.508 90.6367 250.846Z" fill="#FFF18A"/>
<path opacity="0.31" d="M75.0898 226.514C75.0898 226.514 110.567 225.498 153.513 226.514C153.513 226.514 102.545 228.547 75.0898 226.514Z" fill="#FFF18A"/>
<path opacity="0.31" d="M128.867 238.348C128.867 238.348 144.593 237.671 163.631 238.348C163.631 238.348 141.037 239.703 128.867 238.348Z" fill="#FFF18A"/>
<path opacity="0.31" d="M76.4961 238.797C76.4961 238.797 94.9816 238.12 117.359 238.797C117.359 238.797 90.8018 240.152 76.4961 238.797Z" fill="#FFF18A"/>
<path d="M0.605469 204.438C0.605469 204.438 38.0118 177.234 85.134 174.319C132.256 171.404 187.151 204.438 187.151 204.438H0.605469Z" fill="#1B113A"/>
<path d="M114.77 204.442C114.77 204.442 163.349 180.152 187.153 180.152C210.957 180.152 250.307 204.442 250.307 204.442H114.77Z" fill="#1B113A"/>
<path d="M154.262 47.5226C154.262 47.5226 156.005 33.5772 167.378 26.5497C178.752 19.5221 191.854 22.1746 199.287 25.204L191.075 29.1147C191.075 29.1147 186.718 27.5902 184.09 27.4649C184.09 27.4649 187.852 28.9048 188.682 30.3457C188.682 30.3457 185.609 32.0878 183.221 32.5328C183.221 32.5328 181.069 30.0795 177.87 30.1951C177.87 30.1951 181.189 32.4929 181.614 33.7696L177.18 36.5289C177.18 36.5289 174.352 34.6985 169.9 34.6693C169.9 34.6693 174.477 37.3062 174.592 38.1408C174.592 38.1408 173.044 38.9443 171.001 40.4756C171.001 40.4756 168.633 37.7774 163.909 39.3184C163.909 39.3184 167.643 40.6456 168.394 41.8961C168.394 41.8961 159.163 44.0034 154.262 47.5226Z" fill="#1B113A"/>
<path d="M154.044 47.4324C154.044 47.4324 162.544 36.2406 159.322 23.2649C156.099 10.2902 144.874 3.02944 137.441 0L140.582 8.53645C140.582 8.53645 144.764 10.4923 146.731 12.2392C146.731 12.2392 143.034 10.639 141.433 11.0898C141.433 11.0898 142.413 14.4836 143.81 16.4715C143.81 16.4715 147.064 16.2218 149.272 18.5391C149.272 18.5391 145.292 17.8628 144.096 18.4788L145.339 23.5515C145.339 23.5515 148.64 24.218 151.844 27.3097C151.844 27.3097 146.728 25.997 146.062 26.5139C146.062 26.5139 146.608 28.1705 146.999 30.6937C146.999 30.6937 150.578 30.4188 152.88 34.824C152.88 34.824 149.282 33.1626 147.87 33.5337C147.869 33.5327 152.998 41.4911 154.044 47.4324Z" fill="#1B113A"/>
<path d="M154.16 47.7463C154.16 47.7463 167.828 44.47 178.407 52.6441C188.987 60.8172 191.115 74.0153 190.895 82.0388L184.345 75.7273C184.345 75.7273 184.239 71.1112 183.431 68.6074C183.431 68.6074 183.408 72.6357 182.351 73.9201C182.351 73.9201 179.639 71.6563 178.382 69.5781C178.382 69.5781 179.921 66.7002 178.688 63.7465C178.688 63.7465 177.705 67.6611 176.659 68.5093L172.516 65.3302C172.516 65.3302 173.235 62.0404 171.695 57.8616C171.695 57.8616 170.838 63.0732 170.096 63.4745C170.096 63.4745 168.799 62.3076 166.647 60.9347C166.647 60.9347 168.34 57.7693 165.234 53.8877C165.234 53.8877 165.306 57.8499 164.399 58.9925C164.398 58.9944 159.177 51.0954 154.16 47.7463Z" fill="#1B113A"/>
<path d="M155.01 48.7088C155.01 48.7088 143.4 40.7883 130.606 44.667C117.812 48.5456 111.131 60.1251 108.484 67.7026L116.85 64.1319C116.85 64.1319 118.59 59.8559 120.235 57.802C120.235 57.802 118.825 61.5757 119.356 63.1526C119.356 63.1526 122.696 62.0003 124.61 60.505C124.61 60.505 124.195 57.2686 126.397 54.9455C126.397 54.9455 125.923 58.9543 126.6 60.1183L131.602 58.6191C131.602 58.6191 132.101 55.2885 135.024 51.9306C135.024 51.9306 133.974 57.1073 134.523 57.7456C134.523 57.7456 136.149 57.116 138.649 56.5982C138.649 56.5982 138.193 53.0382 142.475 50.514C142.475 50.514 140.999 54.1915 141.441 55.5829C141.443 55.5829 149.13 50.0554 155.01 48.7088Z" fill="#1B113A"/>
<path d="M154.254 47.509C154.254 47.509 163.857 40.5193 170.751 39.4039L172.355 41.3403L172.983 38.6587C172.983 38.6587 177.114 37.2139 180.758 37.2625C181.199 37.2684 181.69 39.334 181.87 40.6447C181.87 40.6447 182.782 38.4197 182.716 37.0391C182.716 37.0391 196.076 38.0252 210.587 50.108C210.587 50.108 198.627 52.3757 192.428 52.1901C192.428 52.1901 193.089 50.1993 192.931 48.7964C192.931 48.7964 191.628 51.0271 190.166 51.854C190.166 51.854 183.276 51.0165 182.584 51.1962C182.584 51.1962 182.133 49.0927 181.861 47.7606C181.861 47.7606 181.146 50.8115 180.695 51.4857L176.617 51.407C176.617 51.407 175.854 49.6679 175.196 48.7332L174.943 51.8928C174.943 51.8928 170.591 52.3135 168.337 52.197L167.622 49.0062L166.527 52.5195C166.526 52.5215 155.465 47.476 154.254 47.509Z" fill="#1B113A"/>
<path d="M155.847 49.0725C155.847 49.0725 152.467 37.6853 147.669 32.6117L145.218 33.1752L146.348 30.6636C146.348 30.6636 143.945 27.0065 141.021 24.8311C140.667 24.5678 139.021 25.9105 138.081 26.8413C138.081 26.8413 138.709 24.5202 139.601 23.4641C139.601 23.4641 128.391 16.1295 109.523 16.9097C109.523 16.9097 117.645 25.9776 122.681 29.5968C122.681 29.5968 123.365 27.6138 124.343 26.5955C124.343 26.5955 124.023 29.1586 124.681 30.7044C124.681 30.7044 130.662 34.2255 131.103 34.789C131.103 34.789 132.74 33.3918 133.766 32.4999C133.766 32.4999 132.48 35.3574 132.428 36.1677L135.715 38.5831C135.715 38.5831 137.377 37.6649 138.468 37.3229L136.749 39.9861C136.749 39.9861 139.95 42.964 141.811 44.2417L144.318 42.1411L143.053 45.5971C143.053 45.5971 154.905 48.3097 155.847 49.0725Z" fill="#1B113A"/>
<path d="M155.612 48.0117C155.612 48.0117 144.194 51.2841 139.074 56.0332L139.615 58.4894L137.114 57.3361C137.114 57.3361 133.434 59.7039 131.231 62.608C130.964 62.9597 132.291 64.6173 133.213 65.5656C133.213 65.5656 130.899 64.9156 129.85 64.0139C129.85 64.0139 122.41 75.1543 123.011 94.0275C123.011 94.0275 132.156 85.9924 135.823 80.9907C135.823 80.9907 133.846 80.2882 132.838 79.3001C132.838 79.3001 135.398 79.644 136.95 79.0008C136.95 79.0008 140.527 73.0537 141.095 72.6174C141.095 72.6174 139.714 70.9686 138.832 69.9339C138.832 69.9339 141.677 71.2465 142.487 71.3058L144.933 68.0422C144.933 68.0422 144.031 66.371 143.699 65.277L146.346 67.021C146.346 67.021 149.354 63.8488 150.649 61.9998L148.573 59.4737L152.016 60.7717C152.016 60.7717 154.841 48.9464 155.612 48.0117Z" fill="#1B113A"/>
<path d="M155.073 47.1445C155.073 47.1445 163.545 55.4692 165.777 62.0867L164.13 63.9872L166.878 64.1669C166.878 64.1669 168.981 68.0038 169.531 71.6074C169.598 72.0437 167.64 72.8666 166.378 73.2601C166.378 73.2601 168.723 73.7945 170.073 73.502C170.073 73.502 171.294 86.843 161.758 103.142C161.758 103.142 157.557 91.7156 156.723 85.5712C156.723 85.5712 158.795 85.8967 160.152 85.51C160.152 85.51 157.738 84.5909 156.682 83.285C156.682 83.285 156.377 76.3517 156.085 75.6969C156.085 75.6969 158.087 74.907 159.356 74.4192C159.356 74.4192 156.229 74.2142 155.49 73.881L154.897 69.8449C154.897 69.8449 156.488 68.8073 157.302 68.0038L154.144 68.2729C154.144 68.2729 153.015 64.0494 152.76 61.8059L155.79 60.5769L152.145 60.0736C152.143 60.0736 155.304 48.3347 155.073 47.1445Z" fill="#1B113A"/>
<path d="M153.109 48.0117C153.109 48.0117 149.712 69.4228 138.408 90.1849C129.869 105.867 114.791 144.534 116.319 181.174H126.394C126.394 181.174 126.394 139.649 137.136 111.253C144.878 90.7892 154.731 69.2159 155.981 48.7093L153.109 48.0117Z" fill="#1B113A"/>
<path d="M78.3524 88.1372C78.3524 88.1372 75.938 78.3318 67.2316 74.2715C58.5251 70.2112 49.398 73.2047 44.3477 75.9902L50.5367 78.0918C50.5367 78.0918 53.5185 76.6383 55.383 76.3274C55.383 76.3274 52.819 77.6701 52.3468 78.769C52.3468 78.769 54.6864 79.7542 56.4275 79.8708C56.4275 79.8708 57.7576 77.9393 60.0496 77.7527C60.0496 77.7527 57.8742 79.6707 57.6779 80.618L61.0736 82.2153C61.0736 82.2153 62.9371 80.6714 66.1123 80.2769C66.1123 80.2769 63.0683 82.5427 63.0557 83.148C63.0557 83.148 64.2284 83.591 65.814 84.5131C65.814 84.5131 67.2772 82.3892 70.7789 83.0926C70.7789 83.0926 68.2255 84.3528 67.7951 85.3088C67.7951 85.3088 74.5603 86.0385 78.3524 88.1372Z" fill="#1B113A"/>
<path d="M78.5055 88.0543C78.5055 88.0543 71.5003 80.7809 72.7109 71.2515C73.9215 61.722 81.3221 55.5981 86.3725 52.8125L84.848 59.1677C84.848 59.1677 82.0275 60.9147 80.7703 62.3264C80.7703 62.3264 83.2741 60.8748 84.4546 61.0614C84.4546 61.0614 84.0397 63.5652 83.2099 65.1013C83.2099 65.1013 80.8674 65.1965 79.4868 67.0357C79.4868 67.0357 82.2694 66.2196 83.175 66.5577L82.7144 70.2818C82.7144 70.2818 80.4147 71.0348 78.387 73.5095C78.387 73.5095 81.9274 72.1434 82.4463 72.4563C82.4463 72.4563 82.1956 73.6844 82.1295 75.5178C82.1295 75.5178 79.5519 75.6217 78.2791 78.9592C78.2791 78.9592 80.7071 77.4716 81.7458 77.6174C81.7458 77.6174 78.7523 83.7268 78.5055 88.0543Z" fill="#1B113A"/>
<path d="M78.4455 88.2885C78.4455 88.2885 68.4177 87.0982 61.5534 93.8188C54.6891 100.539 54.2791 110.137 55.1098 115.844L59.2546 110.791C59.2546 110.791 58.9427 107.488 59.309 105.633C59.309 105.633 59.6637 108.505 60.5264 109.334C60.5264 109.334 62.2714 107.491 62.9943 105.903C62.9943 105.903 61.6545 103.978 62.287 101.766C62.287 101.766 63.3169 104.477 64.134 104.995L66.8233 102.379C66.8233 102.379 66.0344 100.091 66.7825 96.9804C66.7825 96.9804 67.8318 100.628 68.3944 100.852C68.3944 100.852 69.2222 99.9107 70.6427 98.7506C70.6427 98.7506 69.1687 96.6335 71.0595 93.6031C71.0595 93.6031 71.3403 96.4363 72.0835 97.1757C72.0835 97.1757 75.145 91.1003 78.4455 88.2885Z" fill="#1B113A"/>
<path d="M77.9219 89.0496C77.9219 89.0496 85.5421 82.4233 94.9976 84.1168C104.453 85.8103 110.192 93.5131 112.718 98.6985L106.448 96.8525C106.448 96.8525 104.847 93.9474 103.501 92.6192C103.501 92.6192 104.823 95.194 104.577 96.3638C104.577 96.3638 102.097 95.8216 100.606 94.9151C100.606 94.9151 100.63 92.5707 98.8636 91.0977C98.8636 91.0977 99.5379 93.9183 99.1531 94.8053L95.4572 94.1553C95.4572 94.1553 94.8227 91.8206 92.454 89.6695C92.454 89.6695 93.6384 93.2751 93.2993 93.7774C93.2993 93.7774 92.0858 93.4645 90.2582 93.3052C90.2582 93.3052 90.2854 90.7266 87.0179 89.2847C87.0179 89.2847 88.3801 91.7856 88.1809 92.8145C88.1809 92.8145 82.2319 89.5169 77.9219 89.0496Z" fill="#1B113A"/>
<path d="M78.357 88.1264C78.357 88.1264 70.9175 83.9447 65.9041 83.728L64.9218 85.2447L64.2485 83.3841C64.2485 83.3841 61.1792 82.7001 58.5831 83.0401C58.2693 83.0809 58.0915 84.5966 58.0731 85.5468C58.0731 85.5468 57.2355 84.036 57.1675 83.045C57.1675 83.045 47.7169 84.8706 38.375 94.711C38.375 94.711 47.0999 95.325 51.508 94.6721C51.508 94.6721 50.8687 93.307 50.8638 92.2927C50.8638 92.2927 51.9812 93.7743 53.0936 94.2426C53.0936 94.2426 57.94 93.067 58.4491 93.137C58.4491 93.137 58.5938 91.598 58.6764 90.6244C58.6764 90.6244 59.443 92.7415 59.821 93.1846L62.725 92.7862C62.725 92.7862 63.1234 91.4814 63.515 90.7585L63.9609 92.9912C63.9609 92.9912 67.1011 92.9261 68.7003 92.6541L68.9423 90.3164L70.0188 92.7318C70.0207 92.7347 77.4894 88.2051 78.357 88.1264Z" fill="#1B113A"/>
<path d="M77.3516 89.3795C77.3516 89.3795 78.808 80.9703 81.8053 76.9459L83.6018 77.1422L82.5846 75.4448C82.5846 75.4448 83.9924 72.633 85.8967 70.8355C86.127 70.6179 87.4134 71.4379 88.1625 72.0238C88.1625 72.0238 87.5202 70.4207 86.7945 69.7415C86.7945 69.7415 94.1786 63.567 107.708 62.5391C107.708 62.5391 102.673 69.692 99.3834 72.6971C99.3834 72.6971 98.7285 71.3398 97.9454 70.6956C97.9454 70.6956 98.3894 72.4979 98.0494 73.6561C98.0494 73.6561 94.0766 76.6709 93.8094 77.1101C93.8094 77.1101 92.5249 76.2502 91.7175 75.7003C91.7175 75.7003 92.8747 77.6319 92.9796 78.2051L90.8373 80.2046C90.8373 80.2046 89.5742 79.6887 88.7668 79.5362L90.2164 81.2919C90.2164 81.2919 88.1829 83.6859 86.9616 84.7537L84.996 83.4653L86.1892 85.8253C86.1892 85.8253 77.9598 88.7557 77.3516 89.3795Z" fill="#1B113A"/>
<path d="M77.4375 88.6016C77.4375 88.6016 85.8602 89.9783 89.9118 92.9378L89.732 94.7362L91.4197 93.7034C91.4197 93.7034 94.2441 95.085 96.06 96.9709C96.2796 97.1992 95.4722 98.4934 94.8941 99.2483C94.8941 99.2483 96.4914 98.5906 97.1637 97.8589C97.1637 97.8589 103.408 105.185 104.564 118.704C104.564 118.704 97.3639 113.738 94.3277 110.476C94.3277 110.476 95.6791 109.809 96.3155 109.019C96.3155 109.019 94.5171 109.479 93.3561 109.151C93.3561 109.151 90.3043 105.207 89.8622 104.944C89.8622 104.944 90.7094 103.651 91.2526 102.838C91.2526 102.838 89.3317 104.014 88.7595 104.125L86.7395 102.001C86.7395 102.001 87.2428 100.733 87.3876 99.9236L85.6455 101.391C85.6455 101.391 83.233 99.3795 82.1526 98.1689L83.4225 96.1917L81.0742 97.4072C81.0742 97.4052 78.0661 89.204 77.4375 88.6016Z" fill="#1B113A"/>
<path d="M77.7525 87.9336C77.7525 87.9336 72.4058 94.5852 71.3691 99.4946L72.7041 100.713L70.758 101.073C70.758 101.073 69.5794 103.987 69.4891 106.605C69.4784 106.922 70.9436 107.345 71.8782 107.519C71.8782 107.519 70.2498 108.097 69.2617 108.002C69.2617 108.002 69.5104 117.625 77.6835 128.455C77.6835 128.455 79.7219 119.949 79.8025 115.494C79.8025 115.494 78.351 115.9 77.3502 115.739C77.3502 115.739 78.9961 114.88 79.6403 113.86C79.6403 113.86 79.2759 108.886 79.4294 108.394C79.4294 108.394 77.9351 107.999 76.9888 107.757C76.9888 107.757 79.2031 107.349 79.7025 107.049L79.786 104.119C79.786 104.119 78.5637 103.512 77.9157 103.007L80.1921 102.934C80.1921 102.934 80.6439 99.826 80.6381 98.2034L78.3723 97.5806L80.9315 96.915C80.9286 96.9141 77.6874 88.8022 77.7525 87.9336Z" fill="#1B113A"/>
<path d="M79.2144 88.3906C79.2144 88.3906 83.435 103.384 93.2462 117.252C100.656 127.727 114.661 154.054 116.647 180.329L109.456 181.174C109.456 181.174 105.97 151.542 95.921 132.18C88.6787 118.226 79.8362 103.658 77.2227 89.13L79.2144 88.3906Z" fill="#1B113A"/>
<path d="M104.566 190.733C104.566 190.733 97.8494 187.009 91.6953 185.875C91.6953 185.875 98.9822 184.094 105.46 187.171C105.46 187.171 101.863 179.236 96.9409 177.131C96.9409 177.131 104.135 178.912 107.712 184.904C107.712 184.904 106.594 176.969 102.707 171.625C102.707 171.625 108.537 174.216 111.775 179.721H122.3C122.3 179.721 125.539 173.568 132.502 171.625C132.502 171.625 128.454 173.73 127.806 181.179C127.806 181.179 132.827 177.13 137.522 179.236C137.522 179.236 131.531 181.665 129.75 184.742C129.75 184.742 138.656 181.017 143.028 184.579C143.028 184.579 133.475 185.874 129.912 190.732H104.566V190.733Z" fill="#1B113A"/>
<defs>
<linearGradient id="paint0_linear_16_1426" x1="226.003" y1="192.914" x2="206.263" y2="205.73" gradientUnits="userSpaceOnUse">
<stop stop-color="#FDA823"/>
<stop offset="0.5099" stop-color="#E2593E"/>
<stop offset="0.9851" stop-color="#FD2957"/>
</linearGradient>
<linearGradient id="paint1_linear_16_1426" x1="212.468" y1="70.2336" x2="27.7472" y2="190.164" gradientUnits="userSpaceOnUse">
<stop stop-color="#FDA823"/>
<stop offset="0.5099" stop-color="#E2593E"/>
<stop offset="0.9851" stop-color="#FD2957"/>
</linearGradient>
<linearGradient id="paint2_linear_16_1426" x1="122.187" y1="211.424" x2="123.561" y2="258.135" gradientUnits="userSpaceOnUse">
<stop stop-color="#FDA823"/>
<stop offset="0.5441" stop-color="#E2593E"/>
<stop offset="0.9851" stop-color="#FD2957"/>
</linearGradient>
</defs>
</svg>
