<svg width="257" height="162" viewBox="0 0 257 162" fill="none" xmlns="http://www.w3.org/2000/svg">
<path d="M81.291 0.0996094C36.8426 0.0996094 0.699951 36.2422 0.699951 80.6907C0.699951 125.139 36.8426 161.282 81.291 161.282C120.476 161.282 153.247 133.157 160.402 96.0276H128.823C122.327 116.093 103.495 130.649 81.291 130.649C53.742 130.649 31.3328 108.24 31.3328 80.6907C31.3328 53.1828 53.742 30.7736 81.291 30.7736C100.37 30.7736 116.981 41.5053 125.369 57.2946H158.387C148.354 24.2358 117.598 0.0996094 81.291 0.0996094Z" fill="url(#paint0_linear_1_887)"/>
<path d="M31.3328 80.9374C31.3328 80.8826 31.3328 80.8277 31.3328 80.7729C31.3328 80.7455 31.3328 80.7181 31.3328 80.6907C31.3328 80.6358 31.3465 80.581 31.3739 80.5262C31.5384 41.2997 59.9097 8.61101 97.2036 1.7032C92.0639 0.675257 86.7186 0.0996094 81.291 0.0996094C36.8426 0.0996094 0.699951 36.2422 0.699951 80.6907C0.699951 125.139 36.8426 161.282 81.291 161.282C86.3074 161.282 91.2415 160.829 96.0112 159.925C59.1696 152.524 31.3328 119.917 31.3328 80.9374Z" fill="url(#paint1_linear_1_887)"/>
<path d="M21.5879 80.6907C21.5879 122.261 53.7832 156.43 94.5721 159.637C58.4295 151.66 31.3328 119.383 31.3328 80.9374C31.3328 80.8826 31.3328 80.8278 31.3328 80.7729C31.3328 80.7455 31.3328 80.7181 31.3328 80.6907C31.3328 80.6359 31.3465 80.5811 31.3739 80.5262C31.5384 41.2998 59.9098 8.61104 97.2037 1.70323C97.094 1.67582 96.9981 1.66211 96.9159 1.66211C55.0579 3.63577 21.5879 38.3393 21.5879 80.6907Z" fill="url(#paint2_linear_1_887)"/>
<path fill-rule="evenodd" clip-rule="evenodd" d="M119.161 23.7012C150.575 -7.71289 201.725 -7.71289 233.139 23.7012C264.554 55.1564 264.554 106.266 233.139 137.68C201.725 169.135 150.575 169.135 119.161 137.68C87.7466 106.266 87.7466 55.1564 119.161 23.7012ZM211.47 116.011C230.919 96.5621 230.919 64.8602 211.47 45.4114C191.98 25.9215 160.32 25.9215 140.83 45.4114C121.381 64.8602 121.381 96.5621 140.83 116.011C160.32 135.501 191.98 135.501 211.47 116.011Z" fill="url(#paint3_linear_1_887)"/>
<path d="M233.139 137.68C237.169 133.65 213.115 115.23 216.117 110.624C205.097 125.961 173.889 142.162 143.955 118.889C142.845 118.026 141.858 117.039 140.83 116.011C140.172 115.353 139.541 114.681 138.938 113.996C112.993 86.6115 109.991 45.288 129.934 14.6963C126.151 17.3278 122.532 20.3294 119.161 23.7011C87.7466 55.1563 87.7466 106.266 119.161 137.68C150.575 169.135 201.725 169.135 233.139 137.68Z" fill="url(#paint4_linear_1_887)"/>
<path d="M216.487 110.172C216.404 110.255 216.336 110.351 216.281 110.46C216.226 110.515 216.171 110.57 216.116 110.625C215.157 111.913 214.129 113.16 213.033 114.367C211.881 115.682 210.675 116.971 209.414 118.232C183.633 144.013 144.654 148.618 114.103 132.171C115.693 134.062 117.379 135.899 119.161 137.68C150.575 169.136 201.725 169.136 233.139 137.68C264.553 106.266 264.553 55.1567 233.139 23.7016C227.465 18.0684 221.174 13.4221 214.431 9.80371C238.444 38.6685 239.143 80.5265 216.487 110.172Z" fill="url(#paint5_linear_1_887)"/>
<path d="M218.46 125.592C249.34 94.7121 248.887 43.9727 217.432 12.5175C216.528 11.6403 215.609 10.7768 214.677 9.92707C214.595 9.87224 214.513 9.83112 214.431 9.80371C238.444 38.6685 239.143 80.5265 216.487 110.172C216.404 110.255 216.336 110.351 216.281 110.46C216.226 110.515 216.171 110.57 216.117 110.625C215.157 111.913 214.129 113.16 213.033 114.367C211.881 115.682 210.675 116.971 209.414 118.232C183.633 144.013 144.654 148.618 114.103 132.171C114.13 132.171 114.158 132.184 114.185 132.212C145.682 155.854 190.294 153.757 218.46 125.592Z" fill="url(#paint6_linear_1_887)"/>
<path d="M160.402 65.3945H128.823H58.3062C58.3062 82.294 72.0395 96.0274 88.939 96.0274H128.823C128.823 96.0274 140.994 95.6573 146.422 102.236C152.302 109.391 153.165 117.162 153.165 117.162C161.882 99.4401 161.882 85.9535 161.882 80.6904C161.882 75.4684 161.389 70.3287 160.402 65.3945Z" fill="url(#paint7_linear_1_887)"/>
<path d="M161.882 80.6904C161.882 75.4684 161.389 70.3287 160.402 65.3945H128.823H69.6545C75.1232 73.7826 84.6215 79.3335 95.3943 79.3335H135.238C135.238 79.3335 147.408 78.9634 152.836 85.5423C157.976 91.8333 159.292 98.5767 159.538 100.139C161.882 90.9287 161.882 84.1032 161.882 80.6904Z" fill="url(#paint8_linear_1_887)"/>
<path d="M197.531 78.3466L177.712 66.0934C175.122 64.4898 171.792 66.3401 171.792 69.3829V93.8891C171.792 96.9319 175.122 98.7822 177.712 97.1786L197.531 84.9254C199.957 83.4041 199.957 79.8679 197.531 78.3466Z" fill="url(#paint9_linear_1_887)"/>
<path d="M187.046 74.1123L173.724 65.8887C172.614 66.5466 171.792 67.8212 171.792 69.3837V90.4772L187.046 81.0612C189.554 79.4987 189.554 75.6747 187.046 74.1123Z" fill="url(#paint10_linear_1_887)"/>
<defs>
<linearGradient id="paint0_linear_1_887" x1="0.692139" y1="0.107012" x2="160.417" y2="0.107012" gradientUnits="userSpaceOnUse">
<stop stop-color="#003BBF"/>
<stop offset="0.99" stop-color="#0686FF"/>
</linearGradient>
<linearGradient id="paint1_linear_1_887" x1="0.692139" y1="0.107012" x2="97.188" y2="0.107012" gradientUnits="userSpaceOnUse">
<stop stop-color="#004FFF"/>
<stop offset="0.99" stop-color="#24D6FF"/>
</linearGradient>
<linearGradient id="paint2_linear_1_887" x1="247.041" y1="25.4237" x2="217.363" y2="201.845" gradientUnits="userSpaceOnUse">
<stop offset="0.01" stop-color="#24FFFF"/>
<stop offset="1" stop-color="#004FFF"/>
</linearGradient>
<linearGradient id="paint3_linear_1_887" x1="95.6054" y1="0.160361" x2="256.693" y2="0.160361" gradientUnits="userSpaceOnUse">
<stop stop-color="#FFD600"/>
<stop offset="1" stop-color="#FF4C00"/>
</linearGradient>
<linearGradient id="paint4_linear_1_887" x1="69.0536" y1="257.653" x2="-29.0892" y2="100.085" gradientUnits="userSpaceOnUse">
<stop stop-color="#FF4C00"/>
<stop offset="1" stop-color="#FFD600"/>
</linearGradient>
<linearGradient id="paint5_linear_1_887" x1="290.13" y1="80.7041" x2="176.149" y2="194.685" gradientUnits="userSpaceOnUse">
<stop stop-color="#FF4C00"/>
<stop offset="1" stop-color="#FFD600"/>
</linearGradient>
<linearGradient id="paint6_linear_1_887" x1="114.119" y1="9.78767" x2="241.323" y2="9.78767" gradientUnits="userSpaceOnUse">
<stop stop-color="#FF4C00"/>
<stop offset="1" stop-color="#FFEF00"/>
</linearGradient>
<linearGradient id="paint7_linear_1_887" x1="58.2996" y1="65.3748" x2="161.886" y2="65.3748" gradientUnits="userSpaceOnUse">
<stop stop-color="#004FFF"/>
<stop offset="0.99" stop-color="#24D6FF"/>
</linearGradient>
<linearGradient id="paint8_linear_1_887" x1="69.673" y1="65.3748" x2="161.886" y2="65.3748" gradientUnits="userSpaceOnUse">
<stop stop-color="#004FFF"/>
<stop offset="0.99" stop-color="#24FFFF"/>
</linearGradient>
<linearGradient id="paint9_linear_1_887" x1="171.799" y1="65.5161" x2="199.35" y2="65.5161" gradientUnits="userSpaceOnUse">
<stop stop-color="#004FFF"/>
<stop offset="0.99" stop-color="#24D6FF"/>
</linearGradient>
<linearGradient id="paint10_linear_1_887" x1="171.799" y1="65.8841" x2="188.911" y2="65.8841" gradientUnits="userSpaceOnUse">
<stop stop-color="#004FFF"/>
<stop offset="0.99" stop-color="#24FFFF"/>
</linearGradient>
</defs>
</svg>
