<svg width="262" height="200" viewBox="0 0 262 200" fill="none" xmlns="http://www.w3.org/2000/svg">
<path d="M104.169 134.2L130.79 138.941L218.215 136.807C223.88 124.528 227.064 110.868 227.064 96.4559C227.064 43.1844 183.878 0 130.608 0C77.3367 0 34.1523 43.1844 34.1523 96.4559C34.1523 109.971 36.9431 122.831 41.9615 134.507L104.169 134.2Z" fill="#FAA572"/>
<path d="M130.914 141.857C130.914 141.857 145.747 99.0674 182.701 97.3672" stroke="#2E4350" stroke-width="3" stroke-miterlimit="10" stroke-linecap="round"/>
<path d="M130.299 141.857C130.299 141.857 115.465 99.0674 78.5117 97.3672" stroke="#2E4350" stroke-width="3" stroke-miterlimit="10" stroke-linecap="round"/>
<path d="M130.375 140.887V50.3242" stroke="#2E4350" stroke-width="3" stroke-miterlimit="10" stroke-linecap="round"/>
<path d="M252.486 141.856C241.998 129.099 226.107 120.957 208.303 120.957C190.497 120.957 174.607 129.099 164.121 141.856H252.486Z" fill="#FAA572" stroke="#FBFAF4" stroke-width="3" stroke-miterlimit="10" stroke-linecap="round"/>
<path d="M192.675 141.86C185.299 132.888 174.12 127.16 161.6 127.16C149.076 127.16 137.898 132.888 130.523 141.86H192.675Z" fill="#FAA572" stroke="#FBFAF4" stroke-width="3" stroke-miterlimit="10" stroke-linecap="round"/>
<path d="M8.72266 141.856C19.21 129.099 35.1013 120.957 52.9049 120.957C70.7097 120.957 86.5998 129.099 97.0871 141.856H8.72266Z" fill="#FAA572" stroke="#FBFAF4" stroke-width="3" stroke-miterlimit="10" stroke-linecap="round"/>
<path d="M68.5312 141.86C75.9071 132.888 87.0848 127.16 99.6063 127.16C112.13 127.16 123.307 132.888 130.683 141.86H68.5312Z" fill="#FAA572" stroke="#FBFAF4" stroke-width="3" stroke-miterlimit="10" stroke-linecap="round"/>
<path d="M192.675 141.86C185.299 132.888 174.12 127.16 161.6 127.16C149.076 127.16 137.898 132.888 130.523 141.86H192.675Z" stroke="#FBFAF4" stroke-width="3" stroke-miterlimit="10" stroke-linecap="round"/>
<path d="M68.5312 141.86C75.9071 132.888 87.0848 127.16 99.6063 127.16C112.13 127.16 123.307 132.888 130.683 141.86H68.5312Z" stroke="#FBFAF4" stroke-width="3" stroke-miterlimit="10" stroke-linecap="round"/>
<path d="M186.68 134.475C186.68 134.475 215.528 120.14 238.467 139.853" stroke="#FBFAF4" stroke-miterlimit="10" stroke-linecap="round"/>
<path d="M193.246 139.074C193.246 139.074 210.933 130.919 226.614 140.216" stroke="#FBFAF4" stroke-miterlimit="10" stroke-linecap="round"/>
<path d="M142.922 141.129C142.922 141.129 162.249 128.182 179.39 141.129" stroke="#FBFAF4" stroke-miterlimit="10" stroke-linecap="round"/>
<path d="M75.1857 134.475C75.1857 134.475 46.3357 120.14 23.3984 139.853" stroke="#FBFAF4" stroke-miterlimit="10" stroke-linecap="round"/>
<path d="M68.6254 139.074C68.6254 139.074 50.9384 130.919 35.2578 140.216" stroke="#FBFAF4" stroke-miterlimit="10" stroke-linecap="round"/>
<path d="M118.951 141.129C118.951 141.129 99.624 128.182 82.4844 141.129" stroke="#FBFAF4" stroke-miterlimit="10" stroke-linecap="round"/>
<path d="M149.506 50.2374L158.921 56.4577L171.207 56.459L167.739 50.2361L177.153 56.4577H185.102C185.102 56.4577 175.336 39.7461 158.406 39.7461C141.477 39.7461 130.406 56.4577 130.406 56.4577L152.974 56.4564L149.506 50.2374Z" fill="#2E4350"/>
<path d="M139.575 38.4491L150.634 36.1897L159.322 27.5046L152.469 25.5566L163.525 23.2986L169.148 17.6772C169.148 17.6772 150.425 12.7662 138.453 24.7377C126.48 36.7079 130.47 56.352 130.47 56.352L146.429 40.3945L139.575 38.4491Z" fill="#2E4350"/>
<path d="M143.091 62.9058L144.687 70.7176L150.824 76.8545L152.199 72.0136L153.793 79.8255L157.765 83.797C157.765 83.797 161.234 70.5692 152.778 62.112C144.32 53.6549 130.441 56.4748 130.441 56.4748L141.715 67.7466L143.091 62.9058Z" fill="#2E4350"/>
<path d="M111.251 50.2374L101.837 56.4577L89.5519 56.459L93.0185 50.2361L83.6046 56.4577H75.6562C75.6562 56.4577 85.4227 39.7461 102.353 39.7461C119.283 39.7461 130.351 56.4577 130.351 56.4577L107.785 56.4564L111.251 50.2374Z" fill="#2E4350"/>
<path d="M121.179 38.4491L110.123 36.1897L101.435 27.5046L108.288 25.5566L97.2307 23.2986L91.6094 17.6772C91.6094 17.6772 110.333 12.7662 122.304 24.7377C134.278 36.7079 130.286 56.352 130.286 56.352L114.329 40.3945L121.179 38.4491Z" fill="#2E4350"/>
<path d="M117.656 62.9058L116.059 70.7176L109.923 76.8545L108.548 72.0136L106.952 79.8255L102.982 83.797C102.982 83.797 99.5127 70.5692 107.97 62.112C116.427 53.6549 130.305 56.4748 130.305 56.4748L119.034 67.7466L117.656 62.9058Z" fill="#2E4350"/>
<path d="M91.3393 80.0619L94.6376 72.046L89.6457 72.6383L96.2344 68.1646L98.3692 62.9766C98.3692 62.9766 84.8394 64.8623 80.2927 75.9128C75.7461 86.962 83.6812 98.6738 83.6812 98.6738L89.7411 83.9459L91.3393 80.0619Z" fill="#2E4350"/>
<path d="M75.8808 80.0288L72.5441 72.0248L69.4326 75.9751L70.9287 68.1527L68.7687 62.9727C68.7687 62.9727 60.5355 73.8748 65.1351 84.9027C69.7321 95.9321 83.6251 98.6023 83.6251 98.6023L77.4949 83.9023L75.8808 80.0288Z" fill="#2E4350"/>
<path d="M96.821 93.1756L102.474 90.8181L99.6846 88.621L105.213 89.6771L108.871 88.1519C108.871 88.1519 101.169 82.3357 93.3782 85.5837C85.5876 88.8317 83.6992 98.6471 83.6992 98.6471L94.0845 94.3165L96.821 93.1756Z" fill="#2E4350"/>
<path d="M76.0063 117.322L72.708 125.339L69.5779 121.406L71.1112 129.221L68.9763 134.409C68.9763 134.409 60.6914 123.546 65.238 112.497C69.786 101.447 83.6644 98.7109 83.6644 98.7109L77.6031 113.439L76.0063 117.322Z" fill="#2E4350"/>
<path d="M65.004 106.468L57.0014 109.806L57.5712 104.81L53.128 111.42L47.9492 113.579C47.9492 113.579 49.7726 100.04 60.802 95.4412C71.8286 90.8416 83.5788 98.7223 83.5788 98.7223L68.8788 104.851L65.004 106.468Z" fill="#2E4350"/>
<path d="M89.1362 111.861L91.4937 117.514L87.9634 117.112L92.6346 120.251L94.1599 123.908C94.1599 123.908 84.5949 122.62 81.3456 114.83C78.0976 107.039 83.6646 98.7383 83.6646 98.7383L87.9952 109.122L89.1362 111.861Z" fill="#2E4350"/>
<path d="M169.879 80.0619L166.578 72.046L171.57 72.6383L164.981 68.1646L162.848 62.9766C162.848 62.9766 176.378 64.8623 180.926 75.9128C185.472 86.962 177.534 98.6738 177.534 98.6738L171.476 83.9459L169.879 80.0619Z" fill="#2E4350"/>
<path d="M185.325 80.0288L188.662 72.0248L191.773 75.9751L190.277 68.1527L192.437 62.9727C192.437 62.9727 200.67 73.8748 196.072 84.9027C191.474 95.9321 177.582 98.6023 177.582 98.6023L183.711 83.9023L185.325 80.0288Z" fill="#2E4350"/>
<path d="M164.391 93.1756L158.736 90.8181L161.526 88.621L155.999 89.6771L152.34 88.1519C152.34 88.1519 160.04 82.3357 167.831 85.5837C175.622 88.8317 177.511 98.6471 177.511 98.6471L167.126 94.3165L164.391 93.1756Z" fill="#2E4350"/>
<path d="M185.202 117.322L188.499 125.339L191.629 121.406L190.098 129.221L192.231 134.409C192.231 134.409 200.516 123.546 195.969 112.497C191.421 101.447 177.543 98.7109 177.543 98.7109L183.604 113.439L185.202 117.322Z" fill="#2E4350"/>
<path d="M196.202 106.468L204.205 109.806L203.637 104.81L208.078 111.42L213.259 113.579C213.259 113.579 211.435 100.04 200.407 95.4412C189.379 90.8416 177.629 98.7223 177.629 98.7223L192.328 104.851L196.202 106.468Z" fill="#2E4350"/>
<path d="M172.076 111.861L169.721 117.514L173.249 117.112L168.579 120.251L167.055 123.908C167.055 123.908 176.62 122.62 179.868 114.83C183.116 107.039 177.55 98.7383 177.55 98.7383L173.219 109.122L172.076 111.861Z" fill="#2E4350"/>
<path d="M2.60547 141.859H258.605" stroke="#FAA572" stroke-width="5" stroke-miterlimit="10" stroke-linecap="round"/>
<path d="M2.60547 147.93H258.605" stroke="#2E4350" stroke-width="5" stroke-miterlimit="10" stroke-linecap="round"/>
<path d="M57.4648 180.992H124.564" stroke="#2E4350" stroke-width="3" stroke-miterlimit="10" stroke-linecap="round"/>
<path d="M152.77 180.992H193.853" stroke="#2E4350" stroke-width="3" stroke-miterlimit="10" stroke-linecap="round"/>
<path d="M21.1211 164.215H88.222" stroke="#2E4350" stroke-width="3" stroke-miterlimit="10" stroke-linecap="round"/>
<path d="M169.422 164.215H236.521" stroke="#2E4350" stroke-width="3" stroke-miterlimit="10" stroke-linecap="round"/>
<path d="M113.992 164.215H141.224" stroke="#2E4350" stroke-width="3" stroke-miterlimit="10" stroke-linecap="round"/>
<path d="M105.727 197.766H150.948" stroke="#2E4350" stroke-width="3" stroke-miterlimit="10" stroke-linecap="round"/>
<path d="M162.496 197.766H172.463" stroke="#2E4350" stroke-width="3" stroke-miterlimit="10" stroke-linecap="round"/>
<path d="M84.4492 197.766H94.4171" stroke="#2E4350" stroke-width="3" stroke-miterlimit="10" stroke-linecap="round"/>
<path d="M198.966 36.5032H164.824C164.824 36.5032 170.974 30.8408 177.933 33.2672C182.462 27.7665 189.743 29.3845 192.332 30.6792C198.966 24.0441 207.865 28.4131 212.719 36.5046C202.04 36.5032 198.966 36.5032 198.966 36.5032Z" fill="#FBFAF4"/>
<path d="M62.2499 36.5032H96.3914C96.3914 36.5032 90.2413 30.8408 83.2842 33.2672C78.7535 27.7665 71.4731 29.3845 68.8837 30.6792C62.25 24.0441 53.3502 28.4131 48.4961 36.5046C59.1756 36.5032 62.2499 36.5032 62.2499 36.5032Z" fill="#FBFAF4"/>
<path d="M232.153 63.1243H198.012C198.012 63.1243 204.162 57.4619 211.119 59.8883C215.648 54.3875 222.929 56.0056 225.519 57.3003C232.153 50.6652 241.052 55.0342 245.907 63.1257C235.226 63.1243 232.153 63.1243 232.153 63.1243Z" fill="#FBFAF4"/>
<path d="M232.153 89.7415H198.012C198.012 89.7415 204.162 84.0791 211.119 86.5055C215.648 81.0047 222.929 82.6228 225.519 83.9174C232.153 77.2824 241.052 81.6514 245.907 89.7428C235.226 89.7415 232.153 89.7415 232.153 89.7415Z" fill="#FBFAF4"/>
<path d="M26.5117 63.1243H60.6531C60.6531 63.1243 54.503 57.4619 47.5459 59.8883C43.0165 54.3875 35.7348 56.0056 33.1454 57.3003C26.5117 50.6652 17.6119 55.0342 12.7578 63.1257C23.4373 63.1243 26.5117 63.1243 26.5117 63.1243Z" fill="#FBFAF4"/>
<path d="M26.5117 89.7415H60.6531C60.6531 89.7415 54.503 84.0791 47.5459 86.5055C43.0165 81.0047 35.7348 82.6228 33.1454 83.9174C26.5117 77.2824 17.6119 81.6514 12.7578 89.7428C23.4373 89.7415 26.5117 89.7415 26.5117 89.7415Z" fill="#FBFAF4"/>
</svg>
