<svg width="257" height="224" viewBox="0 0 257 224" fill="none" xmlns="http://www.w3.org/2000/svg">
<path d="M43.5195 124.267C43.5195 144.542 50.9932 163.094 63.3075 177.355C66.4448 174.239 69.1379 170.648 71.2863 166.73C62.0131 155.054 56.4541 140.302 56.4541 124.268C56.4541 86.5436 87.1451 55.8526 124.869 55.8526C142.056 55.8526 157.77 62.2367 169.799 72.7397C172.588 69.6151 173.68 65.3038 173.442 61.3C173.39 60.4479 173.208 59.584 172.971 58.7156C159.488 48.7951 142.855 42.918 124.869 42.918C80.0131 42.9171 43.5195 79.4106 43.5195 124.267Z" fill="#E5556B"/>
<path d="M22.1328 124.263C22.1328 148.4 30.5207 170.601 44.5061 188.155C48.9252 187.054 53.0405 185.172 56.7665 182.698C43.2593 166.978 35.0674 146.566 35.0674 124.263C35.0674 74.7472 75.3517 34.4628 124.868 34.4628C142.183 34.4628 158.36 39.4015 172.089 47.926C173.13 45.8333 174.916 44.102 176.972 42.9505C179.289 41.6524 181.915 41.0196 184.565 40.7319C167.726 28.6621 147.121 21.5273 124.869 21.5273C68.2206 21.5282 22.1328 67.6151 22.1328 124.263Z" fill="#E5556B"/>
<path d="M32.5999 192.679C33.5186 191.935 34.5695 191.338 35.6832 190.828C21.7814 172.249 13.5401 149.201 13.5401 124.265C13.5401 62.8779 63.4824 12.9355 124.871 12.9355C153.791 12.9355 180.165 24.0273 199.98 42.1712C205.794 43.791 211.364 46.5013 216.418 49.8201C222.693 53.9417 228.285 58.9693 233.647 64.2451C212.445 25.9717 171.636 0 124.871 0C56.3504 0 0.605469 55.7449 0.605469 124.264C0.605469 153.333 10.6419 180.099 27.4266 201.288C28.1583 198.2 29.647 195.069 32.5999 192.679Z" fill="#E5556B"/>
<path d="M100.939 200.449C109.893 198.681 119.019 196.281 126.795 191.366C134.384 186.565 139.428 179.279 144.645 172.193C150.207 164.677 156.258 158.152 164.306 153.265C171.852 148.709 180.274 145.863 188.595 143.132C196.959 140.416 205.425 137.828 213.301 133.877C220.3 130.37 226.523 125.541 231.453 119.447C220.731 111.399 211.82 100.734 208.184 87.6703C205.338 77.4514 206.417 65.7384 211.849 56.5254C211.346 56.137 210.814 55.7927 210.311 55.4332C204.289 51.2217 197.606 47.1118 190.261 47.2701C186.237 47.3851 181.811 49.2818 180.603 53.1193C179.497 56.6404 181.466 60.3197 181.926 63.9702C182.659 69.5031 179.842 75.0513 175.688 78.7881C171.549 82.5105 166.231 84.6805 160.913 86.2905C146.886 90.5595 131.35 91.2921 116.863 89.0358C117.653 85.7161 118.429 82.1941 117.337 78.9751C116.245 75.756 112.48 73.1977 109.403 74.6494C107.65 75.4827 106.629 77.2941 105.782 79.0326C102.203 86.348 99.7885 94.1381 97.8909 102.071C102.159 102.531 106.399 103.854 110.582 104.471C112.637 104.759 114.002 106.469 113.873 108.539C113.743 110.493 111.717 112.117 109.776 111.83C106.743 111.37 103.769 110.594 100.75 110.019C99.2698 109.746 97.7749 109.502 96.2665 109.387C95.5627 112.893 94.9155 116.371 94.2979 119.864C94.2547 120.094 94.2116 120.325 94.1685 120.539C98.3368 120.841 102.461 121.962 106.644 122.308C108.713 122.466 110.05 124.42 109.935 126.375C109.791 128.416 107.765 129.824 105.838 129.666C103.007 129.436 100.233 128.804 97.4163 128.344C95.9789 128.114 94.5415 127.912 93.1041 127.84H92.8308C92.2699 130.802 91.7099 133.733 91.0771 136.665C95.1591 137.154 99.2402 137.772 103.351 138.031C105.435 138.146 106.757 140.172 106.642 142.113C106.512 144.153 104.486 145.504 102.56 145.389C98.1336 145.116 93.7496 144.412 89.352 143.909C87.8571 149.729 86.0467 155.45 83.6322 160.954C77.9411 173.946 68.4979 185.861 55.477 191.524C51.4238 193.292 47.0406 194.456 43.2031 196.569C60.4957 206.37 82.0249 204.171 100.939 200.449ZM105.078 186.105C109.993 184.05 114.736 181.65 118.875 178.502C120.945 176.935 122.929 175.283 124.696 173.414C126.478 171.56 128.116 169.505 129.697 167.363C132.931 163.123 135.935 158.424 139.701 154.084C141.584 151.928 143.725 149.901 145.996 148.105C147.117 147.185 148.31 146.38 149.488 145.561C150.724 144.828 151.931 144.052 153.196 143.405C158.212 140.66 163.559 138.821 168.919 137.355C174.309 135.96 179.727 134.911 185.203 134.164C174.898 138.059 164.392 141.537 155.481 147.272C151.055 150.161 147.074 153.495 143.854 157.606C140.534 161.659 137.63 166.258 134.296 170.799C132.586 173.041 130.761 175.269 128.706 177.339C126.651 179.408 124.423 181.291 122.022 182.915C117.222 186.148 112.005 188.635 106.601 190.302C95.7784 193.751 84.6111 194.484 73.6164 194.542C84.3675 192.127 95.204 190.13 105.078 186.105Z" fill="black"/>
<path d="M236.015 112.955C240.831 105.056 243.763 96.0609 244.393 86.8784C242.447 84.2167 240.34 81.662 238.137 79.2025C232.18 72.573 225.459 66.6958 218.366 61.2969C214.233 68.8442 213.618 78.0249 216.027 86.3912C219.172 97.3104 227.093 106.212 236.015 112.955Z" fill="black"/>
<path d="M207.911 159.345C217.684 156.212 226.437 150.938 233.925 144.182H256.604L244.388 142.127L237.302 140.949L225.503 138.966L240.745 137.221C247.96 129.202 252.695 120.785 256.605 110.553C255.168 105.882 253.242 101.383 250.899 97.0859C248.384 108.282 242.951 118.845 235.119 127.282C229.025 133.893 221.695 138.909 213.503 142.589C204.966 146.44 195.926 148.956 187.073 151.959C178.781 154.79 170.387 158.038 163.387 163.428C155.899 169.206 151.056 177.326 145.279 184.656C139.17 192.432 131.869 198.497 122.728 202.378C113.243 206.402 102.923 208.4 92.7906 209.938C73.9914 212.827 53.4825 212.539 37.0259 202.148C34.9422 205.453 34.2518 209.52 36.3077 212.725C40.2602 218.848 48.7973 221.809 55.9977 223.016C58.0526 223.361 60.1228 223.577 62.2065 223.677L62.0915 223.792H256.606L155.842 218.474L121.19 216.635L95.5934 215.283L133.116 212.031C143.436 207.647 148.767 202.569 157.006 193.855C160.239 190.436 162.425 186.094 165.112 182.213H256.606L185.204 174.653L172.513 173.316L164.652 172.483L159.492 171.937L177.346 169.661C187.201 162.986 196.988 162.852 207.911 159.345Z" fill="black"/>
</svg>
