<svg width="257" height="237" viewBox="0 0 257 237" fill="none" xmlns="http://www.w3.org/2000/svg">
<path d="M127.573 23.474C127.9 23.7679 128.159 23.7085 128.389 23.5125C128.511 23.4103 128.751 23.103 129.752 22.9807C130.749 22.8609 134.522 22.9664 139.668 23.5544C144.813 24.1398 150.193 25.2 150.771 25.3575C151.349 25.5149 151.376 25.169 151.263 24.6825C151.198 24.4011 150.988 22.9371 150.822 21.7437C149.626 21.3509 147.874 20.9657 145.731 21.0578C143.82 21.1382 142.314 21.4874 141.104 21.7672C139.483 22.1398 138.201 22.4372 136.966 21.8693L136.967 21.8677C136.962 21.8643 136.958 21.8643 136.954 21.8626C136.954 21.8626 136.833 21.7965 136.625 21.6759C136.416 21.5494 136.117 21.3702 135.757 21.155C135.067 20.7329 134.158 20.212 133.171 19.8996C132.678 19.7438 132.172 19.6458 131.685 19.5989C131.201 19.5587 130.741 19.5788 130.348 19.6199C129.957 19.6751 129.629 19.7312 129.405 19.7982C129.178 19.8552 129.047 19.8887 129.047 19.8887L129.031 19.892C128.944 19.9147 128.851 19.8703 128.817 19.7848C128.781 19.691 128.826 19.5847 128.92 19.5478C128.92 19.5478 129.049 19.4959 129.276 19.4055C129.503 19.305 129.838 19.2028 130.25 19.0881C130.663 18.9892 131.158 18.9038 131.698 18.8795C132.238 18.8619 132.818 18.8971 133.389 19.0001C134.532 19.2045 135.604 19.6525 136.362 19.99C136.73 20.15 137.037 20.2857 137.253 20.3811C137.445 20.4599 137.561 20.5059 137.588 20.5185V20.5168C138.362 20.8727 139.318 20.65 140.768 20.3166C142.038 20.0227 143.617 19.6567 145.668 19.5696C147.731 19.4817 149.468 19.7957 150.767 20.1692C153.77 20.7563 156.913 22.4464 157.228 22.6717C157.548 22.9028 157.957 22.7981 158.057 22.7118C158.157 22.6222 158.5 22.3057 158.618 22.0904C158.737 21.876 158.71 21.6281 158.548 21.428C158.387 21.227 154.041 16.0354 149.93 11.6009C145.818 7.16311 144.208 5.48982 142.31 5.53169C141.015 5.56184 140.909 7.20834 141.039 9.20406C141.14 10.7693 139.402 10.7157 138.271 10.6169C137.139 10.5156 134.704 9.92681 133.418 9.9846C132.13 10.0415 131.869 10.5524 131.85 10.9586C131.83 11.3648 131.718 12.6076 130.423 12.8923C125.186 14.0472 122.046 13.0883 120.902 11.3137C120.16 10.1613 119.011 6.12547 120.353 3.58203C118.177 5.82146 118.302 10.158 120.644 14.6619C122.984 19.1643 127.246 23.1808 127.573 23.474Z" fill="url(#paint0_linear_16_1108)"/>
<path d="M150.434 26.7623C149.868 26.4323 148.306 26.099 146.437 25.8159C136.352 24.2833 132.746 24.3185 131.605 24.4374C130.251 24.5781 129.847 25.0831 129.56 25.6116C129.273 26.1392 127.968 29.6365 127.8 30.2755C127.634 30.9179 127.9 31.6842 128.327 32.3265C128.751 32.9672 130.04 33.7997 132.044 34.4797C134.049 35.1597 135.521 34.7737 136.35 34.4981C137.179 34.2243 140.748 33.1665 141.128 33.3265C141.541 33.5007 143.179 36.5785 143.526 36.7744C143.874 36.9721 145.92 36.3775 146.207 36.0115C148.573 32.9898 150.456 29.222 150.764 28.5813C151.07 27.944 150.997 27.0939 150.434 26.7623Z" fill="url(#paint1_linear_16_1108)"/>
<path d="M139.332 6.34892C139.332 6.34892 139.807 4.40512 139.83 3.93445C139.85 3.46295 139.575 3.11539 139.232 2.9211C130.943 -1.79813 124.015 -0.0452718 120.953 2.89346C127.859 -0.25883 135.69 2.44959 139.332 6.34892Z" fill="url(#paint2_linear_16_1108)"/>
<path d="M118.345 11.2293C117.613 8.24119 118.251 5.83594 118.251 5.83594C118.251 5.83594 115.988 8.57367 115.066 12.0852C115.344 14.7468 115.922 17.3765 116.744 19.4191C116.744 19.4191 117.358 14.9788 118.345 11.2293Z" fill="url(#paint3_linear_16_1108)"/>
<path d="M113.961 16.7578C113.961 16.7578 112.455 20.7091 112.406 25.3923C112.406 25.3923 113.151 28.0513 114.76 29.8008C114.106 26.6653 113.588 20.1337 113.961 16.7578Z" fill="url(#paint4_linear_16_1108)"/>
<path d="M109.987 38.2953C109.987 38.2953 106.614 34.2025 106.381 34.2276C106.151 34.2519 96.8023 36.5726 90.9935 42.3286C90.9935 42.3286 93.7639 46.913 93.4423 51.9036C90.5203 47.2036 89.589 45.0085 83.7744 43.0832C79.7377 43.8386 76.0444 47.4506 76.0444 47.4506C76.0444 47.4506 82.9964 45.0412 87.3965 48.6524C90.7816 51.4312 93.4314 56.725 93.4314 56.725C95.3007 56.7157 98.9287 57.2584 99.2335 57.3355C99.5367 57.4125 99.7528 57.8271 99.7528 57.8271C99.7528 57.8271 98.1297 59.1579 97.7353 61.2105C97.3416 63.264 97.5895 63.8452 97.6155 64.099C97.6415 64.3544 97.5309 64.6467 96.7269 64.7774C95.9221 64.9088 88.9191 65.9431 82.921 63.5982C76.9221 61.2532 74.7882 58.9493 74.3385 58.9033C73.8896 58.858 73.5462 59.1503 73.331 59.7801C73.1157 60.4116 72.9005 62.1636 72.9005 62.1636C72.9005 62.1636 71.2649 62.1728 69.9274 60.3471C69.7063 62.7071 70.7574 65.6165 72.8251 67.9498C74.8937 70.2838 76.5109 70.092 77.5125 70.0569C78.515 70.0217 93.0797 68.8308 100.223 67.8049C100.223 67.8049 100.909 68.5527 102.467 68.9053C104.023 69.2562 106.815 69.1063 106.815 69.1063C106.815 69.1063 107.369 70.149 107.642 70.5418C107.918 70.9329 108.433 71.3927 109.903 71.3583C111.372 71.3215 118.43 71.0292 119.413 71.0434C120.398 71.0577 121.266 70.1959 121.477 69.7529C121.688 69.309 121.545 66.8208 121.801 66.7949C122.056 66.7689 122.753 67.4205 122.893 67.6416C123.035 67.8585 123.811 69.6976 124.238 70.2135C124.666 70.7294 125.885 70.7436 126.422 70.5225C126.961 70.3014 126.789 69.783 126.729 69.2043C126.67 68.6264 125.752 65.449 125.184 64.4776C124.614 63.5086 120.727 58.9786 119.638 58.1797C118.549 57.3807 118.085 57.1948 117.264 57.3975C116.443 57.5993 110.684 59.791 109.862 60.203C109.04 60.6184 108.35 62.3034 108.084 62.4475C107.819 62.594 102.39 63.254 101.513 63.3687C100.637 63.4835 100.445 62.9885 100.525 62.1862C100.604 61.3814 101.295 59.4845 102.097 59.0975C102.898 58.7098 115.235 55.4336 116.53 55.2987C117.826 55.1647 118.723 55.4687 119.537 56.1077C120.354 56.7492 123.738 60.0456 124.023 60.3186C124.309 60.5925 127.773 60.8395 128.382 60.8462C128.991 60.8538 129.329 60.9576 129.998 60.4208C130.668 59.8839 135.554 56.4946 135.9 56.2258C136.246 55.957 136.456 55.6371 136.059 55.5073C123.334 51.4563 113.354 38.7433 110.386 30.0234C109.505 31.8894 109.987 38.2953 109.987 38.2953Z" fill="url(#paint5_linear_16_1108)"/>
<path d="M83.5767 54.1723C86.6369 53.6857 87.6218 53.5978 87.7859 53.6036C87.95 53.6112 87.9844 53.3867 87.6678 53.2536C87.2817 53.0919 84.2132 51.9764 82.7677 52.0334C81.323 52.0903 79.3307 52.7193 78.4547 54.6354C77.5795 56.5491 78.5217 57.7391 78.6381 57.7266C78.7536 57.7157 80.2821 54.6966 83.5767 54.1723Z" fill="url(#paint6_linear_16_1108)"/>
<path d="M181.529 56.8279C181.164 56.9293 178.272 57.2919 178.272 57.2919L167.245 52.3298L165.725 53.6112C165.725 53.6112 165.101 52.1154 165.178 51.0468C159.294 47.5746 146.691 41.4609 146.691 41.4609C146.691 41.4609 146.282 46.0169 146.189 46.4951C146.095 46.9724 144.734 50.2864 142.585 52.7184C140.16 55.4662 138.394 56.3363 138.418 56.57C138.443 56.7986 146.76 60.749 147.029 60.8621C147.297 60.9752 147.701 61.0271 148.231 60.9492C148.761 60.8688 172.812 56.8874 172.812 56.8874L174.654 57.9577C174.654 57.9577 145.932 63.1283 144.956 63.1836C143.979 63.2389 138.026 61.1954 136.862 61.3152C135.697 61.4366 126.16 63.2749 126.16 63.2749C126.16 63.2749 127.224 65.1735 128.172 67.5318L138.742 65.7271C138.742 65.7271 144.069 67.464 144.508 67.6281C144.946 67.7931 145.392 67.8183 145.762 67.7797C146.132 67.7412 185.661 60.8571 185.661 60.8571C185.661 60.8571 188.717 57.2634 188.82 57.2065C188.923 57.1495 189.506 57.3547 189.83 57.616C190.152 57.8782 190.072 58.1528 189.862 58.6729C189.649 59.1938 188.299 61.7674 188.31 61.8771C188.32 61.9835 188.982 62.9432 189.135 62.9265C189.29 62.9106 192.995 61.6686 192.995 61.6686C192.995 61.6686 193.98 63.1853 194.072 63.3176C194.163 63.4474 194.46 63.6057 194.737 63.5605C195.012 63.5153 197.352 62.6317 197.566 62.5773C197.779 62.5245 197.788 62.1652 197.763 61.9341C197.739 61.7038 197.768 60.3437 197.768 60.3437C197.768 60.3437 200.639 57.5013 200.814 57.2341C200.989 56.967 201.287 56.6856 201.021 56.0901C200.757 55.4938 198.76 51.3039 198.526 51.0175C198.294 50.7285 197.844 50.6038 197.528 50.5602C197.211 50.515 193.813 50.0828 193.569 50.1256C193.324 50.1716 186.781 51.5719 185.405 51.8399C184.029 52.1079 181.971 53.0082 181.907 53.2954C181.844 53.5844 181.565 55.0784 181.644 55.5382C181.723 55.998 181.892 56.7274 181.529 56.8279Z" fill="url(#paint7_linear_16_1108)"/>
<path d="M147.809 38.9827C147.809 38.9827 155.94 43.8409 163.173 48.1389C172.022 49.5551 181.598 49.8775 181.598 49.8775L165.125 46.6725L147.184 37.9258L147.809 38.9827Z" fill="url(#paint8_linear_16_1108)"/>
<path d="M131.606 150.254C131.969 150.614 132.567 150.294 132.885 149.98C133.203 149.667 134.901 147.572 138.003 147.249C141.613 146.872 144.036 149.028 144.839 149.552C145.643 150.075 146.488 149.66 146.711 149.123C146.911 148.649 159.243 110.324 162.199 101.133L178.861 130.829C175.77 139.892 174.476 150.488 175.493 161.688L140.958 203.477L177.129 172.2C178.744 179.537 181.288 186.316 184.522 192.296L193.713 189.394C189.807 182.475 186.988 173.976 185.858 164.633C184.984 157.413 185.234 150.491 186.378 144.225L197.849 164.67C200.287 168.959 202.525 170.246 205.742 168.787C208.802 167.399 208.558 164.237 207.884 162.702C207.111 160.942 206.295 160.636 205.525 160.437C204.756 160.237 203.087 159.942 202.609 159.384L151.879 68.9691C150.035 68.1316 146.646 69.1408 145.82 71.9397L154.086 86.6727C149.918 91.6884 123.255 123.777 123.043 124.013C122.814 124.272 122.81 124.694 122.809 124.903C122.807 125.115 123.733 140.711 123.745 140.828C123.757 140.943 131.24 149.894 131.606 150.254ZM150.106 103.019C150.184 102.922 150.288 103 150.219 103.242C150.152 103.481 138.321 141.321 137.588 143.035C136.855 144.749 135.645 143.916 135.331 143.599C135.018 143.279 126.701 132.171 126.701 132.171L150.106 103.019Z" fill="url(#paint9_linear_16_1108)"/>
<path d="M176.818 94.8872L187.784 114.43C186.367 116.138 185.046 117.991 183.842 119.988L190.33 131.564C194.53 122.705 201.115 116.803 209.08 115.973C220.65 114.766 231.931 124.594 238.382 139.771L218.079 164.341L240.367 145.067C241.747 149.305 242.768 153.863 243.345 158.642C243.975 163.842 244.023 168.891 243.579 173.653L256.531 169.563C256.72 165.164 256.558 160.615 255.989 155.974C252.08 124.104 230.954 100.142 208.803 102.452C202.83 103.074 197.399 105.557 192.72 109.459L169.001 67.1874C167.16 66.3508 163.77 67.3599 162.944 70.158L166.145 75.8638C163.068 75.4676 159.87 76.6845 159.234 78.841L169.626 97.3645C170.835 95.5304 173.859 94.5489 176.818 94.8872Z" fill="url(#paint10_linear_16_1108)"/>
<path d="M219.076 156.425L200.745 123.754C199.004 125.22 197.409 126.992 195.973 129.017L210.047 154.104L219.076 156.425Z" fill="url(#paint11_linear_16_1108)"/>
<path d="M99.7385 118.252C100.067 118.405 100.986 122.145 101.317 124.419C103.387 123.33 107.298 122.86 107.298 122.86L105.814 125.665L106.943 126.327C106.943 126.327 113.046 149.922 113.848 152.67C113.385 152.951 112.404 154.529 112.404 154.529C113.75 153.966 114.778 153.975 114.778 153.975L112.255 156.025C112.255 156.025 113.084 160.398 114.246 163.457C115.265 162.166 118.443 160.337 118.443 160.337C116.131 163.292 115.26 169.588 115.26 169.588C115.26 169.588 117.542 168.447 119.271 167.985C119.271 167.985 117.017 171.776 116.9 173.659C118.525 172.492 121.828 170.368 121.828 170.368C121.828 170.368 117.34 176.669 116.935 178.177C116.531 179.685 117.714 181.463 119.14 181.968C120.564 182.475 123.416 182.303 124.572 181.123C125.726 179.941 129.296 175.889 130.691 174.308C132.086 172.728 134.419 172.079 135.639 171.517C136.86 170.952 137.935 171.402 141.494 165.761C145.053 160.119 144.551 157.395 144.69 156.351C144.831 155.307 144.294 153.743 141.877 151.78C139.456 149.818 137.08 150.657 136.327 151.203C135.574 151.749 130.9 156.291 129.438 156.913C127.975 157.531 124.065 156.537 123.192 155.943C123.099 155.878 121.851 152.963 121.751 152.29C121.65 151.614 119.431 121.376 119.431 120.47C119.429 119.565 119.914 119.423 120.223 119.702C120.533 119.982 122.315 121.824 122.315 121.824L141.734 98.4017L105.268 85.8947C107.004 78.3213 110.945 75.7352 111.2 75.0552C111.457 74.3718 110.968 73.1993 110.73 72.9447C110.73 72.9447 109.689 73.1164 108.222 73.1331C106.782 73.1507 105.615 70.8426 105.615 70.8426C105.615 70.8426 103.462 70.8317 102.097 70.7421C100.729 70.6508 99.4638 69.8008 99.4638 69.8008L78.1649 71.8334C78.1649 71.8334 79.489 75.1113 83.622 77.9562C81.3239 77.4478 72.5822 75.2712 72.5822 75.2712C72.5822 75.2712 71.7272 77.8398 71.3712 78.9068C71.0136 79.9729 71.5655 82.1151 71.5655 82.1151C71.5655 82.1151 67.9007 85.1142 67.4024 87.5069C73.0161 87.0622 77.6624 89.0093 86.8178 92.4522L84.1303 87.774C84.1303 87.774 92.8418 87.4265 99.5836 90.6072C92.9499 96.5375 90.2707 105.379 90.2707 105.379C90.2707 105.379 86.0992 103.053 81.4018 101.531C81.2636 101.546 82.3314 104.614 83.2015 106.676C66.1604 103.869 62.8649 95.5886 62.8649 95.5886C62.8649 95.5886 63.261 98.9327 65.2216 102.938C66.7282 106.014 68.4141 109.427 71.5345 111.716L0.605469 197.548L93.4842 117.232C97.0117 117.801 99.6204 118.196 99.7385 118.252Z" fill="url(#paint12_linear_16_1108)"/>
<path d="M62.2679 93.8912L69.5481 67.2617C69.5481 67.2617 67.6278 71.5078 65.6337 76.036L23.1641 127.428L62.2059 93.6668C62.2453 93.8091 62.2679 93.8912 62.2679 93.8912Z" fill="url(#paint13_linear_16_1108)"/>
<path d="M101.903 135.117C104.209 142.269 109.747 150.829 109.747 150.829L101.443 125.34C101.443 125.34 101.287 131.003 101.903 135.117Z" fill="url(#paint14_linear_16_1108)"/>
<path d="M91.6484 211.284L114.758 191.29C114.841 200.629 112.675 209.364 108.901 216.177L121.758 212.117C124.346 203.955 125.288 194.584 124.101 184.862C117.938 186.007 115.199 184.642 114.221 183.879C114.225 183.905 114.23 183.932 114.233 183.958L91.6484 211.284Z" fill="url(#paint15_linear_16_1108)"/>
<path d="M53.5431 195.81C54.1863 201.023 55.3981 205.95 57.0655 210.494L35.3135 236.815L59.3971 215.989C61.8283 221.004 64.8583 225.396 68.3113 228.993L77.1224 226.211C69.2501 220.705 63.185 209.794 61.5318 196.273C58.8812 174.616 68.5541 154.458 83.1347 151.249C88.6513 150.035 94.0782 151.43 98.8401 154.796C100.904 156.445 100.943 159.105 100.943 159.105L82.3073 186.252C81.871 186.056 81.4062 185.967 80.9221 186.018C78.7246 186.247 77.0362 189.146 77.1543 192.493C77.2698 195.839 79.1466 198.366 81.345 198.137C83.5418 197.907 85.2293 195.009 85.1129 191.663C85.102 191.378 85.0752 191.104 85.0417 190.833L111.197 164.71C110.427 159.13 107.929 151.767 105.101 147.735C98.4557 142.528 90.6939 140.041 82.7679 141.284C70.6386 143.184 60.9908 153.367 56.2414 167.312L13.7617 218.717L53.0866 184.711C52.9418 188.327 53.0783 192.041 53.5431 195.81Z" fill="url(#paint16_linear_16_1108)"/>
<path d="M148.601 175.242C148.583 172.63 148.029 170.248 147.095 168.241C146.647 167.486 145.505 166.697 144.756 167.573C143.962 168.497 139.45 174.114 139.45 174.114C139.45 174.114 134.693 174.703 133.67 175.654C132.646 176.602 128.956 180.682 128.59 181.234C128.234 181.777 127.992 182.456 128.177 183.008C129.849 187.896 133.643 191.047 138.034 190.589C143.925 189.973 148.656 183.103 148.601 175.242Z" fill="url(#paint17_linear_16_1108)"/>
<path d="M137.564 54.4609C137.967 54.5137 139.747 53.8596 141.678 51.5063C143.607 49.1546 144.642 46.9646 145.024 45.9186C145.406 44.8734 145.429 41.2915 145.43 40.1693C145.43 39.0454 145.385 38.3963 145.23 38.2489C145.074 38.1007 143.117 39.0764 142.869 38.9398C142.621 38.8008 141.525 36.4441 140.91 35.6477C140.611 35.2616 139.933 35.3789 139.295 35.6954C138.658 36.0112 135.129 37.3201 134.624 37.2582C132.255 36.96 130.202 35.9726 129.625 35.6737C129.049 35.3747 128.785 35.5438 128.698 35.7557C128.611 35.9676 128.357 36.6167 128.357 36.6167C125.223 32.6704 122.203 26.8742 122.203 26.8742C122.203 26.8742 121.471 28.8214 121.421 29.8247C115.321 22.1642 114.643 12.6914 114.643 12.6914C114.17 14.4242 113.75 17.2766 116.367 24.7369C118.986 32.1973 122.395 35.9517 122.395 35.9517C122.395 35.9517 122.603 34.574 122.855 32.9569C124.033 35.734 127.388 40.32 127.388 40.32C127.388 40.32 127.242 42.2781 127.181 44.8315C122.923 41.9079 120.112 37.383 120.112 37.383C120.112 37.383 120.068 38.5328 120.232 39.4289C115.183 34.9735 113.035 29.2636 112.07 25.9965C112.111 28.1748 112.377 34.322 121.159 43.4497C129.939 52.5766 137.163 54.4107 137.564 54.4609ZM139.436 46.3784L141.027 46.7117C141.027 46.7117 138.665 51.1479 137.372 52.6143L136.181 51.6763L139.436 46.3784ZM138.351 46.066C138.351 46.066 136.338 49.8422 135.236 51.0909L134.223 50.2936L136.993 45.7804L138.351 46.066ZM135.674 45.4203C135.674 45.4203 134.012 48.5383 133.102 49.5675L132.266 48.9101L134.554 45.1858L135.674 45.4203ZM132.111 44.5903L132.997 44.7746C132.997 44.7746 131.685 47.2343 130.967 48.045L130.308 47.5274L132.111 44.5903Z" fill="url(#paint18_linear_16_1108)"/>
<path d="M66.165 62.7534C66.3408 60.9335 66.8199 57.9772 68.0853 53.9455C68.2352 53.4715 68.4262 52.9833 68.6372 52.4916C70.3742 49.563 76.1796 40.988 89.1715 31.8485C99.027 27.0732 110.277 23.7031 110.277 23.7031C110.277 23.7031 99.9633 24.0766 88.7402 28.9106C82.5403 32.8518 77.0121 37.7913 72.926 43.8413L35.0977 89.6165L66.165 62.7534Z" fill="url(#paint19_linear_16_1108)"/>
<defs>
<linearGradient id="paint0_linear_16_1108" x1="139.131" y1="14.488" x2="-14.2995" y2="14.488" gradientUnits="userSpaceOnUse">
<stop stop-color="#212661"/>
<stop offset="1" stop-color="#E01541"/>
</linearGradient>
<linearGradient id="paint1_linear_16_1108" x1="139.131" y1="30.6015" x2="-14.2934" y2="30.6015" gradientUnits="userSpaceOnUse">
<stop stop-color="#212661"/>
<stop offset="1" stop-color="#E01541"/>
</linearGradient>
<linearGradient id="paint2_linear_16_1108" x1="139.132" y1="3.17494" x2="-14.2982" y2="3.17494" gradientUnits="userSpaceOnUse">
<stop stop-color="#212661"/>
<stop offset="1" stop-color="#E01541"/>
</linearGradient>
<linearGradient id="paint3_linear_16_1108" x1="139.135" y1="12.6267" x2="-14.3054" y2="12.6267" gradientUnits="userSpaceOnUse">
<stop stop-color="#212661"/>
<stop offset="1" stop-color="#E01541"/>
</linearGradient>
<linearGradient id="paint4_linear_16_1108" x1="139.131" y1="23.2791" x2="-14.3023" y2="23.2791" gradientUnits="userSpaceOnUse">
<stop stop-color="#212661"/>
<stop offset="1" stop-color="#E01541"/>
</linearGradient>
<linearGradient id="paint5_linear_16_1108" x1="139.131" y1="50.6887" x2="-14.2955" y2="50.6887" gradientUnits="userSpaceOnUse">
<stop stop-color="#212661"/>
<stop offset="1" stop-color="#E01541"/>
</linearGradient>
<linearGradient id="paint6_linear_16_1108" x1="139.131" y1="54.8795" x2="-14.292" y2="54.8795" gradientUnits="userSpaceOnUse">
<stop stop-color="#212661"/>
<stop offset="1" stop-color="#E01541"/>
</linearGradient>
<linearGradient id="paint7_linear_16_1108" x1="139.131" y1="54.6275" x2="-14.2961" y2="54.6275" gradientUnits="userSpaceOnUse">
<stop stop-color="#212661"/>
<stop offset="1" stop-color="#E01541"/>
</linearGradient>
<linearGradient id="paint8_linear_16_1108" x1="139.13" y1="43.9015" x2="-14.2954" y2="43.9015" gradientUnits="userSpaceOnUse">
<stop stop-color="#212661"/>
<stop offset="1" stop-color="#E01541"/>
</linearGradient>
<linearGradient id="paint9_linear_16_1108" x1="139.13" y1="136.082" x2="-14.2964" y2="136.082" gradientUnits="userSpaceOnUse">
<stop stop-color="#212661"/>
<stop offset="1" stop-color="#E01541"/>
</linearGradient>
<linearGradient id="paint10_linear_16_1108" x1="139.131" y1="120.277" x2="-14.2943" y2="120.277" gradientUnits="userSpaceOnUse">
<stop stop-color="#212661"/>
<stop offset="1" stop-color="#E01541"/>
</linearGradient>
<linearGradient id="paint11_linear_16_1108" x1="139.132" y1="140.089" x2="-14.2944" y2="140.089" gradientUnits="userSpaceOnUse">
<stop stop-color="#212661"/>
<stop offset="1" stop-color="#E01541"/>
</linearGradient>
<linearGradient id="paint12_linear_16_1108" x1="139.13" y1="133.675" x2="-14.296" y2="133.675" gradientUnits="userSpaceOnUse">
<stop stop-color="#212661"/>
<stop offset="1" stop-color="#E01541"/>
</linearGradient>
<linearGradient id="paint13_linear_16_1108" x1="139.131" y1="97.3452" x2="-14.2968" y2="97.3452" gradientUnits="userSpaceOnUse">
<stop stop-color="#212661"/>
<stop offset="1" stop-color="#E01541"/>
</linearGradient>
<linearGradient id="paint14_linear_16_1108" x1="139.131" y1="138.085" x2="-14.3014" y2="138.085" gradientUnits="userSpaceOnUse">
<stop stop-color="#212661"/>
<stop offset="1" stop-color="#E01541"/>
</linearGradient>
<linearGradient id="paint15_linear_16_1108" x1="139.131" y1="200.028" x2="-14.2932" y2="200.028" gradientUnits="userSpaceOnUse">
<stop stop-color="#212661"/>
<stop offset="1" stop-color="#E01541"/>
</linearGradient>
<linearGradient id="paint16_linear_16_1108" x1="139.131" y1="188.892" x2="-14.2959" y2="188.892" gradientUnits="userSpaceOnUse">
<stop stop-color="#212661"/>
<stop offset="1" stop-color="#E01541"/>
</linearGradient>
<linearGradient id="paint17_linear_16_1108" x1="139.131" y1="178.91" x2="-14.2914" y2="178.91" gradientUnits="userSpaceOnUse">
<stop stop-color="#212661"/>
<stop offset="1" stop-color="#E01541"/>
</linearGradient>
<linearGradient id="paint18_linear_16_1108" x1="139.131" y1="33.5778" x2="-14.2954" y2="33.5778" gradientUnits="userSpaceOnUse">
<stop stop-color="#212661"/>
<stop offset="1" stop-color="#E01541"/>
</linearGradient>
<linearGradient id="paint19_linear_16_1108" x1="139.134" y1="56.66" x2="-14.292" y2="56.66" gradientUnits="userSpaceOnUse">
<stop stop-color="#212661"/>
<stop offset="1" stop-color="#E01541"/>
</linearGradient>
</defs>
</svg>
