<svg width="257" height="165" viewBox="0 0 257 165" fill="none" xmlns="http://www.w3.org/2000/svg">
<path fill-rule="evenodd" clip-rule="evenodd" d="M130.157 125.877C119.268 121.366 120.298 121.383 115.648 120.374C127.096 109.979 149.375 89.6115 151.011 85.6583C154.633 76.8825 136.517 65.8032 133.602 63.1444L126.409 56.6445C140.655 54.9744 136.849 55.484 156.498 51.6662C161.75 59.2771 167.827 67.4399 168.341 67.8534C177.534 75.2066 189.847 79.5762 201.628 84.1585L202.471 87.4085C204.074 86.9906 205.682 86.6673 207.279 86.4591C208.742 86.2611 210.303 86.165 211.959 86.165C214.82 86.165 217.444 86.5144 219.804 87.1784C224.659 88.5428 228.56 91.2175 231.211 94.8184C233.911 98.4746 235.402 103.157 235.402 108.471C235.402 111.308 234.988 114.298 234.12 117.38C231.456 126.874 225.142 135.508 217.084 141.8C209.089 148.047 199.45 151.908 190.059 151.908C187.197 151.908 184.573 151.554 182.216 150.893C177.36 149.53 173.459 146.853 170.803 143.252C168.106 139.596 166.62 134.916 166.62 129.6C166.62 126.759 167.032 123.772 167.897 120.688C169.529 114.874 172.539 109.376 176.477 104.541C180.608 99.472 185.761 95.1431 191.43 91.9456L185.439 81.258C178.468 85.1909 172.112 90.5376 166.989 96.8234C162.016 102.927 158.201 109.927 156.104 117.382C154.916 121.622 154.349 125.718 154.349 129.601C154.349 137.575 156.691 144.743 160.928 150.491C165.212 156.292 171.352 160.565 178.906 162.686C182.38 163.66 186.114 164.179 190.059 164.179C202.213 164.179 214.529 159.309 224.611 151.435C234.637 143.607 242.531 132.74 245.912 120.69C247.1 116.451 247.67 112.351 247.67 108.472C247.67 100.499 245.328 93.3303 241.088 87.5817C236.81 81.7836 230.667 77.5072 223.112 75.39C219.637 74.413 215.905 73.8932 211.96 73.8932C209.971 73.8932 207.876 74.0432 205.695 74.3315C203.576 74.6139 201.475 75.0289 199.405 75.5706L200.473 79.7043C191.342 67.7645 195.619 72.6235 180.674 58.9C174.347 44.5314 177.552 51.6924 170.831 36.9118L170.889 37.0152C165 21.4978 161.772 19.1448 142.391 24.6254C132.813 27.4371 131.364 27.8535 121.794 30.6943C98.4841 37.6136 83.0031 39.2692 95.6185 61.9723C98.803 67.6947 116.609 79.3869 127.403 86.5217L116.704 99.8142C107.778 111.138 100.948 118.819 99.563 123.339L99.4421 123.282C95.6986 131.488 89.3283 138.716 81.7174 143.879C74.338 148.888 65.8404 151.908 57.5364 151.908C54.6737 151.908 52.0513 151.554 49.691 150.893C44.8365 149.53 40.9385 146.853 38.2841 143.252C35.5874 139.599 34.0964 134.916 34.0964 129.6C34.0964 126.762 34.51 123.772 35.3749 120.688C38.038 111.196 44.356 102.56 52.411 96.2701C60.4063 90.0265 70.0455 86.165 79.4357 86.165C82.9288 86.165 86.0943 86.6979 88.8769 87.6866C91.6565 88.6753 94.078 90.1211 96.0816 91.9412L104.326 82.88C101.125 79.9766 97.3003 77.6848 92.9525 76.1355C88.8565 74.6809 84.3208 73.8917 79.4357 73.8917C67.2818 73.8917 54.9693 78.7608 44.886 86.6367C34.8624 94.4646 26.9661 105.331 23.5851 117.38C22.3969 121.62 21.8261 125.719 21.8261 129.6C21.8261 137.573 24.1689 144.741 28.409 150.49C32.6899 156.291 38.8302 160.563 46.3843 162.685C49.8599 163.659 53.5919 164.177 57.5364 164.177C68.3084 164.177 79.2056 160.351 88.5711 153.992C97.9788 147.61 105.887 138.616 110.559 128.366L110.412 128.295C115.187 128.033 121.662 127.21 130.157 125.877ZM239.667 72.6715C239.77 72.7312 239.873 72.7924 239.974 72.8492C258.163 83.3256 258.001 96.2993 255.248 115.959C250.609 94.9975 250.964 90.4036 240.215 73.5291C240.036 73.2467 239.853 72.9613 239.667 72.6715ZM152.801 108.168C152.244 114.483 148.653 139.657 152.368 144.098C151.028 145.114 150.147 144.428 149.311 143.141C141.256 130.706 146.131 119.09 152.801 108.168ZM46.1702 77.0004C31.6182 84.5793 23.2443 96.1289 17.3735 111.705C15.7092 116.115 16.2697 116.039 15.8722 119.42C8.85978 119.008 20.073 74.7537 46.1702 77.0004ZM123.562 54.0702L121.955 52.617C131.303 48.9375 140.659 45.2347 150.003 41.6644C150.515 42.5701 151.166 43.633 151.912 44.8008C134.933 49.7005 138.673 48.4439 123.562 54.0702ZM167.209 14.6673C163.518 14.6994 159.617 14.9294 157.307 15.0328C156.327 15.0765 155.631 15.1012 155.358 15.0736L147.596 13.3365C153.86 7.28795 152.103 7.93591 159.831 4.43696C178.412 -3.97041 193.541 -1.47032 194.132 20.9955C193.832 23.4737 192.625 25.6199 190.882 27.1372C188.379 30.2255 184.561 32.197 180.28 32.197C172.751 32.197 166.647 26.0932 166.647 18.5638C166.646 17.2067 166.842 15.8992 167.209 14.6673ZM103.248 108.907C93.7402 131.762 74.2506 151.749 47.6074 145.9C72.3097 142.214 85.3269 133.415 94.2672 111.935C94.9778 110.228 95.6665 108.443 96.3261 106.572C96.9697 104.66 99.0403 103.633 100.954 104.277C102.864 104.921 103.89 106.996 103.248 108.907ZM230.993 113.153C225.745 127.794 219.06 138.945 203.805 145.255C196.57 148.251 189.974 149.216 183.069 145.532C187.581 145.44 191.331 145.635 195.719 144.143C210.079 139.251 217.677 129.448 222.336 116.342C222.881 114.805 223.386 113.223 223.858 111.6C224.286 109.63 226.23 108.377 228.201 108.805C230.169 109.235 231.419 111.183 230.993 113.153Z" fill="#305B4F"/>
<path fill-rule="evenodd" clip-rule="evenodd" d="M134.028 15.868C62.8314 14.4629 97.7889 15.9889 29.1641 11.2712C106.115 4.66791 68.2145 7.1403 142.867 3.84375L134.028 15.868Z" fill="#D57C32"/>
<path fill-rule="evenodd" clip-rule="evenodd" d="M109.507 30.0086C49.8544 28.6006 79.0385 30.1295 21.9531 25.4118V25.4089C87.4037 18.8085 55.2623 21.278 118.382 17.9844L109.507 30.0086Z" fill="#D57C32"/>
<path fill-rule="evenodd" clip-rule="evenodd" d="M84.9775 44.1493C34.5668 42.7383 59.1366 44.2701 11.2812 39.5495C67.525 32.9462 39.9935 35.4186 93.8843 32.125L84.9775 44.1493Z" fill="#D57C32"/>
<path fill-rule="evenodd" clip-rule="evenodd" d="M60.4487 58.2821C19.2825 56.874 39.2351 58.4059 0.605469 53.6853C47.6527 47.082 24.7239 49.5544 69.3875 46.2578L60.4487 58.2821Z" fill="#D57C32"/>
</svg>
