<svg width="257" height="196" viewBox="0 0 257 196" fill="none" xmlns="http://www.w3.org/2000/svg">
<path d="M114.36 54.972C112.738 54.9728 111.116 54.9735 109.494 54.9751C106.6 54.9766 103.707 54.9782 100.814 54.9805C101.353 54.4139 101.904 53.8557 102.46 53.3022C102.576 53.1872 102.693 53.0722 102.809 52.958C103.983 51.8049 105.196 50.6917 106.456 49.6337C106.494 49.6015 106.532 49.5693 106.571 49.5371C107.722 48.5757 108.91 47.661 110.146 46.8139C110.498 46.5716 110.856 46.3355 111.216 46.1039C111.191 46.0702 111.167 46.0365 111.142 46.0027C110.646 45.3196 110.156 44.6496 109.718 44.0508C109.718 44.0508 108.04 45.6455 101.746 47.8266C100.364 48.3058 100.034 48.693 99.1768 49.9925C96.3509 54.2744 93.4 58.3139 89.9553 62.1212C86.7506 65.664 83.1311 69.0857 79.1406 71.7384C75.3855 74.2339 70.8997 75.3732 66.9375 77.5045C66.995 77.5566 67.0717 77.5973 67.1575 77.6318C67.9955 77.9699 70.0847 77.5137 71.385 77.2193C71.7522 77.1365 72.0589 77.066 72.2521 77.0315C74.9577 76.5462 77.6226 75.8033 80.1871 74.8142C80.7184 74.6095 81.2988 74.3803 81.8937 74.1258C83.9492 73.2456 86.1955 72.0389 87.3256 70.2924C87.331 70.2848 87.3348 70.2771 87.3402 70.2687C87.5686 69.2413 87.9205 68.2446 88.4572 67.3032C89.0138 66.3272 89.7437 65.4862 90.5878 64.7463C90.6238 64.7126 90.6599 64.6781 90.6974 64.6443C90.748 64.6006 90.7986 64.5562 90.85 64.5133C91.0616 64.3316 91.2878 64.1506 91.5469 63.9712C91.5806 63.9475 91.6205 63.9275 91.6542 63.9045C94.4442 61.948 98.1625 60.8938 101.674 60.249C101.943 60.1953 102.217 60.1386 102.477 60.0911C104.274 59.7637 106.102 59.5652 107.924 59.3697C110.566 59.0354 114.331 58.4067 114.954 56.9178C115.099 56.5721 115.178 55.8514 115.191 55.0188C115.191 55.0027 115.192 54.9874 115.192 54.9713C115.045 54.9713 114.897 54.9713 114.75 54.9713C114.618 54.972 114.49 54.972 114.36 54.972Z" fill="#0098DB"/>
<path d="M167.271 86.4047C167.271 86.4047 185.34 87.0816 192.415 87.202C209.73 87.4964 227.045 87.7908 244.36 88.0852C248.442 88.1542 252.524 88.224 256.605 88.293C231.086 84.3738 170.949 74.7582 170.949 74.7582C171.6 71.394 171.85 65.8939 171.85 65.8939C171.85 65.8939 188.974 66.4045 195.353 66.6989C210.889 67.4165 226.425 68.1341 241.961 68.8525C245.701 69.025 249.44 69.1983 253.18 69.3708C227.696 65.9936 171.475 57.3938 171.475 57.3938C171.475 57.3938 170.745 48.298 168.937 42.7075C180.666 42.4207 191.628 42.1332 203.357 41.8465C196.159 40.6819 188.961 39.5173 181.764 38.3528C177.545 37.6704 167.077 35.5705 167.077 35.5705C167.077 35.5705 166.108 33.6991 165.795 33.0321C164.864 31.0471 163.714 29.2079 162.432 27.43C180.693 27.8271 197.941 28.4658 216.203 28.8621C205.266 27.0674 194.329 25.2726 183.392 23.4778C175.983 22.2618 168.575 21.0459 161.165 19.83C157.198 19.1791 153.519 18.1356 153.519 18.1356C153.519 18.1356 145.385 11.8129 129.59 11.7492C127.121 11.7393 127.079 12.2123 126.076 9.93376C125.407 8.41422 124.453 6.99971 123.393 5.72627C120.871 2.69791 117.697 0.783539 113.824 0C117.494 1.49041 120.214 4.84076 121.591 8.48322C122.065 9.7375 122.577 11.2693 122.464 12.6378C122.331 14.2494 119.805 16.2925 119.948 17.2838C127.163 16.048 133.867 15.2192 141.009 17.3881C148.072 19.5333 152.414 22.5555 156.761 28.4635C165.399 40.2058 166.515 57.2259 165.473 70.9693C164.896 78.5808 161.002 83.8892 156.204 89.4905C153.889 92.193 151.455 94.7583 148.883 97.2178C147.389 98.6469 145.863 100.043 144.321 101.42C143.471 102.18 139.965 104.369 139.729 105.42C139.263 107.499 141.373 111.791 141.92 113.908C142.923 113.684 144.064 113.478 145.274 113.311C146.064 111.335 145.049 107.406 145.331 107.206C145.887 106.811 148.729 106.693 149.379 106.718C156.043 106.965 162.706 107.212 169.37 107.459C187.451 108.13 205.532 108.801 223.613 109.472C228.07 109.637 232.527 109.802 236.983 109.968C212.949 106.821 188.914 103.675 164.879 100.529C161.48 100.084 154.682 99.1943 154.682 99.1943C154.682 99.1943 158.936 95.7021 160.529 94.168C163.287 91.513 167.271 86.4047 167.271 86.4047Z" fill="#0098DB"/>
<path d="M88.4034 138.853C88.3513 137.308 88.1604 135.101 87.7932 132.816C86.1594 129.726 84.5256 126.637 82.8926 123.547C83.1755 124.692 81.9396 125.342 80.2629 125.682C89.1701 141.634 78.8814 162.172 67.977 174.322C62.4777 180.449 55.8843 185.693 48.5327 189.425C45.0389 191.2 41.3612 192.632 37.5501 193.556C34.107 194.391 30.0919 193.802 26.832 194.742C43.8077 199.296 62.1258 187.377 72.9412 175.326C75.8377 172.098 78.449 168.601 80.6754 164.878C82.2011 162.327 82.4694 162.485 85.2463 161.74C89.5197 160.595 93.7924 159.449 98.0658 158.304C93.7341 157.559 89.4016 156.813 85.0699 156.068C87.2412 150.623 88.6028 144.742 88.4034 138.853Z" fill="#0098DB"/>
<path d="M164.099 118.445C170.738 125.865 172.386 133.907 169.303 143.516C166.259 153.003 159.706 161.462 151.785 167.419C167.28 160.432 178.075 146.663 176.819 128.58C192.658 127.54 210.031 127.268 225.87 126.229C205.28 123.634 184.689 121.04 164.099 118.445Z" fill="#0098DB"/>
<path d="M93.266 124.72C93.9714 126.166 94.5541 127.773 95.415 129.128C95.5776 129.383 95.9295 130.672 96.217 130.772C97.1186 131.089 98.7025 129.103 99.1066 128.521C102.399 123.775 101.006 115.713 100.915 110.379C99.2124 111.133 97.5119 111.893 95.8145 112.66C95.2755 112.904 93.3711 113.416 93.0805 113.901C92.7554 114.445 93.6816 116.93 93.7981 117.51C93.8303 117.669 93.8679 117.833 93.9078 117.999C94.2167 119.285 94.7151 120.747 94.7174 122.009C94.7174 122.021 94.7189 122.032 94.7189 122.044C94.7135 123.071 94.7419 123.326 94.4092 123.692C94.2006 123.92 93.8526 124.191 93.266 124.72Z" fill="#133A50"/>
<path d="M145.272 113.309C144.062 113.476 142.922 113.683 141.918 113.906C141.918 113.906 142.159 114.839 142.78 117.25C149.973 114.647 158.866 114.206 164.982 119.528C162.837 116.68 159.82 114.635 156.417 113.592C153.369 112.658 148.994 112.796 145.272 113.309Z" fill="#133A50"/>
<path d="M135.599 120.703C138.081 119.208 137.758 119.321 137.031 116.515C136.403 114.093 135.776 111.672 135.148 109.25C133.454 110.642 132.491 110.888 132.383 112.622C132.38 112.673 132.37 112.713 132.369 112.767C132.339 113.73 133.037 114.84 133.32 115.867C133.424 116.243 133.476 116.609 133.411 116.951C133.324 117.411 132.853 117.878 132.238 118.327C131.214 119.071 129.788 119.764 129.052 120.287C128.67 120.558 128.355 120.826 128.088 121.094C126.352 122.832 126.814 124.589 126.703 127.577C129.401 124.968 132.382 122.641 135.599 120.703Z" fill="#133A50"/>
<path d="M165.829 128.338C164.661 124.766 161.919 122.085 158.347 120.938C158.799 121.25 159.209 121.581 159.597 121.922C160.706 122.894 161.56 123.98 162.198 125.153C165.586 131.381 162.806 140.043 158.784 147.065C156.784 150.557 154.48 153.643 152.48 155.819C149.325 159.251 145.258 162.707 140.745 165.247C136.527 167.622 131.919 169.198 127.297 169.2C126.309 169.201 125.32 169.127 124.334 168.976C123.919 168.913 123.504 168.84 123.09 168.748C123.339 172.034 134.237 170.394 136.305 169.837C141.777 168.365 146.818 165.353 151.132 161.727C159.921 154.337 169.8 140.482 165.829 128.338Z" fill="#133A50"/>
<path d="M153.834 144.269C153.879 143.332 153.789 142.396 153.495 141.497C152.991 139.954 151.915 138.833 150.559 138.204C149.813 137.858 148.983 137.662 148.113 137.632C148.087 137.631 148.064 137.626 148.039 137.625C148.376 138.93 148.524 141.67 149.353 142.719C149.754 143.226 150.9 143.357 151.471 143.921C152.874 145.306 152.889 147.575 152.349 149.341C153.152 147.811 153.747 146.038 153.834 144.269Z" fill="#133A50"/>
<path d="M144.135 157.074C142.46 157.413 140.605 157.113 139.508 155.684C138.171 155.858 136.834 156.032 135.496 156.207C137.726 158.655 141.366 158.27 144.135 157.074Z" fill="#133A50"/>
<path d="M126.304 148.825C126.047 148.859 125.824 148.887 125.619 148.914C123.787 149.16 123.945 149.295 123.375 151.819C127.436 151.289 131.497 150.758 135.558 150.229C136.514 150.104 138.318 150.211 139.155 149.759C140.266 149.16 141.243 146.496 142.398 145.465C144.248 143.815 144.043 144.569 143.715 142.315C143.552 141.199 143.131 140.059 142.846 138.965C141.585 134.099 140.324 129.233 139.063 124.367C136.84 125.617 136.116 125.6 136.076 127.675C136.05 129.096 136.88 130.902 137.22 132.268V132.269C137.67 134.079 139.212 137.535 139.451 139.891C139.499 140.355 139.5 140.781 139.428 141.138C139.355 141.496 138.331 142.406 137.844 142.89C137.841 142.893 137.836 142.898 137.832 142.901C137.762 142.97 137.7 143.033 137.654 143.087C137.053 143.784 136.397 145.378 135.74 146.526C135.731 146.542 135.721 146.56 135.712 146.576C135.409 147.097 135.107 147.521 134.811 147.715L134.809 147.716C134.168 148.135 132.491 148.019 131.755 148.115C131.368 148.165 130.982 148.216 130.595 148.267C129.167 148.453 127.74 148.639 126.311 148.826C126.311 148.824 126.308 148.825 126.304 148.825Z" fill="#133A50"/>
<path d="M102.394 160.44C103.351 161.036 105.415 159.849 106.681 159.418C103.233 157.414 102.09 152.03 100.509 148.381C98.4779 143.696 96.4469 139.012 94.416 134.327C92.4963 129.899 90.5742 125.637 88.2712 121.398L88.2704 121.398C87.8165 120.562 86.9341 117.978 86.1413 117.479C85.3509 116.982 82.6929 118.332 81.5682 118.902C79.7197 119.837 72.3604 124.569 70.8639 126.23C71.5723 127.539 72.1128 128.885 72.5206 130.255C75.8281 141.377 69.7376 154.212 62.3093 163.771C60.1397 166.563 57.8581 169.08 55.6623 171.188C53.2258 173.527 50.3937 175.874 47.3025 177.996C39.1743 183.576 29.2405 187.576 19.8871 185.684C19.4248 185.59 18.964 185.483 18.504 185.36C17.9559 185.214 17.41 185.054 16.8672 184.863C29.6744 195.255 49.3618 184.138 59.3577 175.031C66.0223 168.959 71.3668 161.541 74.8391 153.208C78.3543 144.773 80.3997 133.171 73.5127 125.773C74.5861 126.021 77.872 126.168 80.261 125.683C81.9377 125.344 83.1736 124.693 82.8907 123.548C84.5244 126.638 86.1582 129.727 87.7912 132.817C89.1866 135.455 90.5811 138.094 91.9765 140.732C94.5939 145.683 97.2121 150.635 99.8295 155.586C100.382 156.635 101.38 159.807 102.394 160.44Z" fill="#133A50"/>
<path d="M118.152 124.981C120.623 128.1 123.088 131.709 124.123 135.585C124.1 131.595 123.961 127.432 123.072 123.531C122.142 119.445 120.253 115.577 119.195 111.497C122.688 111.105 126.193 110.478 129.571 109.5C128.404 109.784 126.499 108.293 125.686 107.77C136.897 103.701 145.443 95.269 154.193 87.4926C150.492 88.1397 146.259 89.0942 142.507 88.5077C145.573 87.7188 148.569 86.5657 151.426 85.2133C153.75 84.1139 156.206 82.8788 158.242 81.2918C160.305 79.6841 160.113 78.4206 160.182 75.7388C160.43 66.1623 157.051 56.7813 150.76 49.5638C154.467 51.6423 157.763 54.7335 160.247 58.1636C159.048 50.4394 155.597 36.1386 146.231 34.0303C148.716 33.118 151.67 33.2843 154.249 33.6431C150.406 28.0725 142.981 25.6851 136.461 25.5509C139.291 24.6631 142.589 24.8011 145.53 24.7865C142.079 22.7395 138.075 21.0183 134.016 20.934C131.371 20.8788 128.658 21.3626 126.055 21.7935C124.767 22.0066 123.484 22.245 122.203 22.4973C120.202 22.8898 120.32 22.4421 119.95 24.3495C117.94 34.7364 115.759 38.8481 109.717 44.0507C110.155 44.6487 110.645 45.3195 111.141 46.0026C111.166 46.0364 111.19 46.0701 111.215 46.1038C112.696 48.1447 114.214 50.2707 114.587 50.9009C115.012 51.6208 115.208 53.4716 115.189 54.9727C115.189 54.9888 115.188 55.0041 115.188 55.0202C115.175 55.8529 115.096 56.5735 114.951 56.9193C114.328 58.4082 110.564 59.0368 107.921 59.3711C107.285 59.4516 106.713 59.5152 106.267 59.5697C104.855 59.7414 103.285 59.9538 101.671 60.2497C98.1593 60.8945 94.441 61.9487 91.6511 63.9052C91.3743 64.0992 91.1044 64.3016 90.8468 64.5139C90.7962 64.5576 90.7426 64.6006 90.6943 64.645C90.6559 64.6772 90.6222 64.714 90.5846 64.747C89.7405 65.4868 89.0107 66.3279 88.4541 67.3039C87.9174 68.2446 87.5647 69.242 87.337 70.2693C86.7865 72.7503 86.9797 75.4122 87.1952 77.9207C87.3861 80.1433 87.6675 82.359 87.9688 84.5693C88.0109 84.8767 88.0401 85.441 88.0792 86.1042C88.1742 87.7311 88.3283 89.9628 88.8673 90.6137C88.8964 90.649 88.9248 90.6896 88.957 90.7157C89.8517 91.4387 93.7449 91.0339 94.8611 91.1083C96.5884 91.2233 98.315 91.3375 100.042 91.4525C99.7456 88.4694 99.8897 86.542 97.4218 85.1014C95.7842 84.1453 94.2884 83.3672 93.2979 81.6698C95.3625 83.0988 99.2266 81.9703 101.435 81.3753C97.4532 78.8384 94.0515 75.1553 92.2307 70.7669C97.5268 75.1546 104.692 75.3179 111.343 75.8055C110.155 79.7347 108.657 84.2496 105.959 87.5655C105.43 88.2156 104.855 88.8205 104.228 89.3648C104.196 89.3924 104.166 89.4223 104.135 89.4499C101.76 91.4655 98.3633 94.605 95.3127 94.6809C90.8392 94.7913 86.1249 93.7494 81.6399 93.5049C81.8246 93.0878 81.9818 92.6815 82.1167 92.2836C83.6125 87.8821 82.1121 84.6375 78.7649 82.5476C77.7812 81.9335 76.6473 81.4129 75.3716 80.9989C73.9233 80.5289 72.2366 80.174 70.6788 79.6672C69.9075 79.4165 69.1654 79.1313 68.5037 78.771C66.3716 77.611 64.7555 75.3324 62.6609 74.0099C68.3535 72.1316 73.3943 70.2463 78.5134 67.0371C82.9156 64.2778 87.6805 60.9573 90.9718 56.9277C96.9641 49.5922 96.6536 44.7468 96.1284 43.1292C95.1709 40.1798 93.5371 35.8979 91.5269 33.4568C91.8397 39.0857 90.0503 46.3086 86.3442 50.6548C87.36 45.8294 87.692 40.7341 87.1967 35.832C84.0173 43.215 81.8392 51.3118 75.7856 56.9822C73.1735 59.4294 69.7036 61.0578 66.722 63.0312C64.9218 64.2226 63.137 65.4378 61.3614 66.6637C59.3696 68.0391 56.9116 70.5507 54.6492 71.4002C52.4005 72.2435 49.8966 71.6823 47.5 72.8293C46.2219 73.4411 44.9922 74.2376 43.8706 75.1001C40.6843 77.5512 38.0668 81.0211 37.8997 85.1803C37.7234 89.5711 40.337 94.0914 44.2815 96.0533C46.6704 97.2409 53.0123 98.867 53.628 94.8212C49.327 94.1427 40.2373 93.0671 42.4882 86.2606C43.5608 83.0183 47.5192 83.3794 50.26 82.8842C52.3829 82.5008 54.4491 81.8331 56.5567 81.3684C54.8401 80.9061 51.6722 79.3904 53.6978 77.5021C56.1411 75.2251 64.215 82.7224 64.7823 83.2575C68.125 86.4139 72.0404 89.8509 70.4357 94.8044C69.7327 96.9764 68.6203 99.1031 67.7095 101.192C66.6361 103.653 65.7882 107.533 64.0478 109.514C63.7465 109.856 61.7823 111.611 61.2387 111.916C60.4092 112.38 59.9055 112.261 58.6765 112.104C56.2684 111.795 53.8273 111.815 51.4146 112.073C28.7311 114.491 7.95965 135.386 2.04247 156.738C-1.43438 169.285 0.915468 184.901 14.4426 190.222C-3.19159 177.196 7.91824 150.623 18.8648 137.263C28.9511 124.954 45.1915 113.579 61.8513 114.644C60.8776 116.966 61.7532 119.559 62.858 121.77C63.0136 122.08 63.1731 122.384 63.3325 122.678C65.2377 126.177 63.0458 129.97 62.2185 131.309C61.458 132.54 60.6691 133.754 59.8664 134.957C59.5996 135.357 59.3251 135.752 59.0537 136.149C58.5048 136.951 57.949 137.749 57.3824 138.539C57.0542 138.997 56.7246 139.453 56.3903 139.906C55.8168 140.685 55.2326 141.456 54.6431 142.224C54.3418 142.616 54.0443 143.01 53.7384 143.398C52.8406 144.539 51.9298 145.67 50.9968 146.782C50.1473 144.844 48.2904 143.671 46.2173 143.492C47.0108 142.484 47.7913 141.467 48.5626 140.442C48.6561 140.319 48.7466 140.193 48.8393 140.069C53.3182 134.091 57.4268 127.821 61.0731 121.305C61.2188 121.045 61.3698 120.788 61.5132 120.528C58.7363 120.326 57.226 120.144 55.8483 122.672C55.629 123.074 55.399 123.471 55.1767 123.871C54.9053 124.36 54.6339 124.847 54.3586 125.332C53.8841 126.167 53.4003 126.996 52.9119 127.823C52.6574 128.254 52.4075 128.687 52.1498 129.115C52.0839 129.226 52.0203 129.337 51.9543 129.447C49.0249 134.284 45.6485 141.031 41.2194 144.499C38.5468 146.592 35.6787 148.451 33.7957 151.05C32.6242 152.669 31.8323 154.573 31.7127 157.004C31.6467 158.339 31.8729 159.468 32.2984 160.41C33.7988 163.729 37.9304 164.607 41.8534 162.911C35.569 164.184 35.6518 157.105 38.2056 153.464C40.2128 150.602 45.1846 146.808 48.7512 149.394C47.7791 150.496 43.3484 153.897 43.2725 155.353C43.0195 160.221 49.8314 152.817 50.3551 152.286C50.4639 153.269 50.3673 154.233 50.0668 155.177C50.0791 155.155 50.0875 155.131 50.099 155.108C50.8059 153.717 50.996 152.045 51.7926 150.799C52.2388 150.101 52.9441 149.479 53.5705 148.863C53.7338 148.703 53.8956 148.543 54.0412 148.382C55.8575 146.382 57.6162 144.328 59.3044 142.218C62.9024 137.72 66.2029 132.975 69.0695 127.977C69.3425 127.502 69.6162 127.027 69.8807 126.547C66.2489 127.363 68.4271 122.91 68.7797 121.142C69.1853 119.11 69.3026 117.377 67.8153 115.694C84.3278 114.333 97.8197 100.672 109.503 90.1568C107.895 94.0607 105.986 97.2087 102.596 101.331C106.75 99.1161 114 95.6822 122.659 79.4847C124.966 75.1691 126.422 70.5116 126.946 65.6019C127.614 59.332 126.907 52.8751 126.135 46.649C128.838 49.2403 129.349 53.9661 129.616 57.4437C131.143 49.156 129.407 40.1345 126.67 32.3053C128.893 35.2915 131.326 38.625 132.427 42.213C131.685 38.3911 132.579 34.8706 130.535 31.1936C135.394 33.5473 135.898 42.1877 136.168 46.7548C136.563 53.4417 135.042 60.0396 132.929 66.3448C130.772 72.784 127.925 78.9818 124.742 84.9749C123.08 88.1052 121.324 91.1895 119.408 94.1719C117.428 97.2547 114.482 99.9771 112.667 103.081C112.534 103.31 112.413 103.551 112.294 103.793C109.982 108.487 110.326 115.555 110.535 120.476C110.701 124.373 112.292 129.324 110.987 132.939C110.559 134.125 109.998 135.296 109.382 136.455C108.256 138.576 106.942 140.656 105.87 142.701V142.702C105.336 143.72 104.921 144.43 104.652 145.026C104.063 146.331 104.172 147.099 105.279 149.37C107.512 144.963 109.744 140.557 111.976 136.15C112.279 140.912 112.584 143.533 110.445 147.614C109.34 149.721 108.236 151.828 107.132 153.935C108.803 153.717 110.474 153.499 112.146 153.281C112.084 154.56 112.396 158.519 111.598 159.328C111.193 159.74 109.068 159.659 108.444 159.74C108.623 160.842 108.874 161.939 109.225 162.999C109.843 164.869 110.219 164.758 109.347 166.258C108.436 167.824 105.908 169.411 104.569 170.594C102.775 172.181 94.497 177.804 97.4456 180.946C99.1292 182.74 105.75 178.601 107.615 177.79C111.764 175.984 115.2 173.292 115.826 168.485C117.098 170.077 118.626 171.377 120.432 172.306C117.475 164.21 120.131 156.735 120.369 148.896C120.617 140.918 120.54 132.685 118.152 124.981ZM86.8854 102.412C85.7929 103.242 84.6974 104.068 83.5949 104.885C83.1058 105.248 82.6089 105.601 82.1167 105.959C81.5831 106.348 81.0541 106.742 80.5152 107.123C79.2118 104.724 77.8464 103.379 78.5747 100.844C78.6161 100.701 78.6744 100.556 78.7212 100.412C79.2226 98.8654 80 97.306 80.5987 95.8003C80.9821 98.3817 80.4086 99.0057 82.7086 99.5041C85.0401 100.009 87.7617 99.7793 90.1538 99.9096C89.0666 100.747 87.978 101.582 86.8854 102.412Z" fill="#133A50"/>
<path d="M121.773 173.19C121.814 173.132 121.773 173.191 121.773 173.19Z" fill="#133A50"/>
<path d="M122.368 172.399C122.479 172.192 122.209 172.612 122.368 172.399Z" fill="#133A50"/>
<path d="M93.6586 24.5325C101.551 24.0902 108.156 20.0881 114.396 15.459C112.085 16.5055 109.463 16.6672 106.981 16.2548C104.983 15.9228 103.886 15.9926 103.856 14.1878C103.816 11.828 106.523 8.50908 107.825 6.65527C104.111 7.63508 101.101 11.2062 99.0154 14.2622C99.1526 10.4419 101.15 6.46743 102.889 3.12244C99.7951 4.62205 97.1255 7.23334 94.8033 9.72962C95.3407 6.75877 96.9729 4.10379 99.0537 1.96094C94.0611 4.83442 91.0588 9.13238 89.596 14.6685C89.0172 16.8597 88.5771 19.2946 88.9605 21.5601C89.5025 24.7595 90.6241 24.7027 93.6586 24.5325Z" fill="#133A50"/>
<path d="M117.365 16.4102C115.439 18.2701 113.079 19.6869 110.757 20.9903C105.974 23.6767 99.6912 27.8497 93.9258 26.6406C94.6396 31.5634 95.9253 36.4418 97.8856 41.018C98.673 42.8565 99.1139 44.4512 101.225 44.8399C103.195 45.2033 105.157 44.2196 106.704 43.0911C112.522 38.8445 116.186 29.8001 109.856 24.392C112.042 23.3501 117.717 19.4523 117.365 16.4102Z" fill="#133A50"/>
</svg>
