<svg width="257" height="234" viewBox="0 0 257 234" fill="none" xmlns="http://www.w3.org/2000/svg">
<path d="M145.052 98.4827L143.048 97.3364C143.048 97.3364 139.396 94.9023 137.965 94.9023C136.924 94.9023 135.664 95.2416 135.05 95.4263C134.436 95.2416 133.176 94.9023 132.135 94.9023C130.704 94.9023 127.053 97.3364 127.053 97.3364L125.05 98.4827C125.05 98.4827 124.118 98.6261 127.625 101.704C130.516 104.239 133.906 104.496 135.05 104.496C136.194 104.496 139.584 104.24 142.475 101.704C145.981 98.627 145.052 98.4827 145.052 98.4827ZM138.581 101.22C136.527 101.755 134.08 101.625 132.237 101.24C130.395 100.858 129.369 100.024 129.369 100.024C134.232 99.3834 141.211 100.067 141.211 100.067C141.211 100.067 140.634 100.687 138.581 101.22Z" fill="#603813"/>
<path d="M129.023 81.3483C129.023 81.3483 128.863 79.0051 128.308 77.483C127.752 75.9609 126.211 73.9018 121.446 73.5766C115.007 73.137 112.551 71.1875 112.551 71.1875C113.563 74.5354 116.161 76.0537 118.618 76.8185C118.641 77.1944 118.696 77.6339 118.79 78.1541C119.087 79.8215 120.617 81.3249 122.898 80.8581C124.504 80.5301 125.248 79.5497 125.477 78.455C127.824 79.5731 129.023 81.3483 129.023 81.3483Z" fill="#603813"/>
<path d="M138.821 88.6713C138.216 88.377 138.232 88.45 136.707 88.1164C136.263 88.018 136.04 88.2851 135.869 88.5157C135.096 89.5645 133.086 89.3292 132.374 88.3854C132.208 88.1661 131.98 87.9167 131.542 88.0798C130.77 88.3657 129.799 88.6525 129.243 89.2074C128.972 89.4782 128.867 89.7435 128.933 89.9937C129.011 90.2918 129.317 90.5111 129.868 90.6638C130.477 90.8382 131.059 90.3827 131.621 90.3827C131.763 90.3827 131.885 90.4464 132.106 90.5692C133.648 91.4296 134.919 91.3434 136.142 90.7088C137.247 90.1371 137.676 90.9853 138.716 90.7107C139.519 90.5008 139.721 90.1212 139.75 89.8381C139.791 89.4117 139.444 88.974 138.821 88.6713Z" fill="#603813"/>
<path d="M143.605 148.391C139.9 149.114 134.233 150.257 128.786 148.391C122.635 146.282 113.724 144.655 107.809 149.322C107.809 149.322 118.391 148.701 125.24 151.812C132.09 154.927 140.372 154.927 147.22 151.812C154.068 148.701 164.651 149.322 164.651 149.322C158.736 144.655 149.988 147.145 143.605 148.391Z" fill="#603813"/>
<path d="M256.833 41.0538C221.905 72.7987 208.83 77.47 192.014 81.0287C172.993 84.6644 153.095 77.8383 129.266 62.3895C115.598 53.5278 100.121 47.4628 83.9228 45.0737C64.277 42.1748 50.7505 45.3521 39.5522 47.7833C57.5503 41.2216 80.5618 33.9279 98.35 31.984C102.761 36.0133 116.729 40.707 125.439 43.0408C153.015 50.4264 171.807 44.7635 171.15 41.9733C171.15 41.9733 170.941 41.2207 170.612 40.051C188.717 44.3052 235.753 53.5268 254.134 39.5308C252.248 39.6517 221.616 49.8275 168.969 31.8537C163.989 12.5087 151.081 -2.04402 128.639 0.235388C112.429 1.88308 103.104 15.9185 98.3968 26.1599C86.1507 28.2678 68.1394 32.1358 51.9567 38.5973C39.2157 43.6847 31.9116 47.7374 24.6517 51.164C21.2794 52.7564 -1.75271 63.6417 1.16966 69.9204C3.07041 74.0021 15.6502 85.5557 61.2524 90.868L53.2933 101.551C45.6724 111.776 45.6725 126.063 53.2923 136.291L119.577 225.251C123.36 230.329 129.159 233.243 135.488 233.243C141.815 233.243 147.614 230.329 151.399 225.251L217.682 136.292C225.304 126.063 225.304 111.775 217.681 101.549L204.106 83.3297C233.943 71.0207 258.515 45.7064 256.833 41.0538ZM126.097 6.8093C144.026 0.740569 155.146 13.5491 160.867 28.4665C143.642 30.4938 120.232 23.7062 109.906 19.8072C113.767 14.5763 119.184 9.14963 126.097 6.8093ZM163.146 89.3C164.219 89.4772 165.323 89.6262 166.461 89.7433C167.426 90.5025 168.369 91.5813 169.014 93.1343C170.922 97.7269 169.884 101.835 166.242 104.751C160.258 109.535 155.127 104.807 153.986 104.176C153.988 104.167 153.989 104.16 153.989 104.152C157.508 104.821 166.574 98.4523 163.146 89.3ZM112.385 60.9255C132.117 71.121 141.377 84.3326 159.825 88.6411C157.226 97.0239 149.863 103.469 143.12 109.066C140.704 111.07 138.252 112.072 135.799 112.072C133.347 112.072 130.894 111.07 128.478 109.066C125.068 106.235 120.376 101.983 117.026 97.5863C110.978 89.6468 109.143 81.3549 108.768 75.3462C108.248 67.0271 111.237 60.9162 112.385 60.9255ZM101.828 93.1334C103.735 88.5408 108.243 88.0207 108.243 88.0207C103.388 97.9012 113.269 104.921 116.909 104.141C115.869 104.662 110.668 109.601 104.601 104.749C100.959 101.835 99.9218 97.7269 101.828 93.1334ZM21.6449 57.4108C23.1389 60.2413 27.5056 63.07 34.9605 66.0345C45.9564 70.4059 59.9825 71.8211 72.3261 71.8211C77.8053 71.8202 82.9434 71.539 87.3447 71.1172C87.6184 72.9824 87.9408 74.587 88.6981 77.2178C74.5296 78.5675 33.2829 74.7332 18.9054 65.6455C16.3841 64.0522 14.9126 62.4476 14.4993 60.8665C16.6587 59.7024 19.0515 58.5383 21.6449 57.4108ZM18.0478 75.9329C8.67333 71.3834 4.37131 68.0665 7.11091 65.3597C8.07066 64.4112 9.46437 63.7888 10.8243 62.965C11.7457 65.2003 13.7026 67.2783 16.6831 69.1631C32.6099 79.2273 75.1435 82.9107 90.015 81.2152C90.6964 83.0129 91.4368 84.6203 92.2138 86.0759C73.687 86.2118 37.1444 85.1976 18.0478 75.9329ZM69.7815 144.496L59.9647 131.321C54.4939 123.978 54.4939 113.864 59.9647 106.522L70.8903 91.8587C78.8035 92.571 87.6709 93.139 97.6349 93.5158C96.6761 95.2375 93.6328 104.035 102.266 109.408C101.761 117.345 105.272 123.262 111.174 128.337C101.02 137.654 83.2939 142.149 69.7815 144.496ZM115.526 171.675C98.5918 167.895 81.6762 155.334 73.0084 148.153C91.6355 144.861 106.448 138.678 114.55 130.862C114.556 130.865 114.562 130.869 114.566 130.873C115.057 130.399 116.302 129.063 116.631 128.674C114.747 136.915 110.313 139.421 110.313 139.421C110.313 139.421 119.039 139.18 121.249 129.3C122.57 123.395 121.499 113.885 121.313 108.205C125.694 112.391 129.744 116.231 135.798 116.231C142.382 116.231 146.349 111.673 149.639 108.891C149.527 112.569 149.553 114.073 149.553 115.114C149.541 115.12 149.525 115.129 149.525 115.129C149.525 115.129 149.497 125.169 150.566 130.71C151.368 134.866 154.628 138.217 157.13 139.57C161.696 142.039 166.304 141.379 168.116 144.621C170.254 148.449 168.766 152.552 161.876 154.892C166.426 155.282 170.993 154.127 174.486 150.342C176.601 148.052 177.52 145.359 177.16 142.726C183.254 144.936 190.164 146.761 197.706 148.106C173.391 166.031 155.358 180.566 115.526 171.675ZM211.008 106.523C216.482 113.865 216.482 123.979 211.008 131.322L201.192 144.497C201.192 144.497 184.822 141.521 177.152 138.011C174.812 134.371 171.454 133.13 168.442 131.12C161.031 126.179 167.504 123.448 169.481 121.76C176.631 115.649 173.587 109.498 170.521 106.549C175.971 102.392 175.927 96.785 172.991 92.1184C173.887 91.4567 173.903 90.7631 174.781 90.0423C181.964 89.8671 188.921 88.5315 195.946 86.3074L211.008 106.523Z" fill="#603813"/>
</svg>
