<svg width="257" height="251" viewBox="0 0 257 251" fill="none" xmlns="http://www.w3.org/2000/svg">
<path fill-rule="evenodd" clip-rule="evenodd" d="M255.366 53.782C255.157 53.8859 255.051 53.9897 254.843 54.0935C250.371 57.9418 244.751 60.6488 239.345 62.727C233.203 65.1213 226.96 67.2029 221.032 70.113C220.931 70.113 220.931 70.113 220.931 70.113C218.639 71.1561 216.559 72.4035 214.373 73.6497C214.373 73.7535 214.373 73.7535 214.272 73.7535C213.857 74.0651 213.333 74.2728 212.918 74.5843C212.71 74.7966 212.61 74.8993 212.402 75.0043C212.295 75.0043 212.295 75.0043 212.295 75.0043C208.136 77.9145 204.803 81.7638 202.31 86.0286V86.1325C198.461 92.6866 196.69 100.281 196.899 107.875C196.899 108.707 197.731 109.226 198.461 109.019C198.668 108.915 198.976 108.811 199.084 108.499C203.864 101.53 208.862 94.6666 215.727 89.6703C216.874 88.8395 218.122 88.0075 219.262 87.1756C219.262 87.1756 219.262 87.1756 219.37 87.0717C220.825 86.0286 222.279 85.094 223.635 84.1582C223.742 84.1582 223.742 84.1582 223.742 84.1582V84.0543C226.651 82.1804 229.67 80.4138 232.788 78.9587C229.978 81.0369 227.277 83.0158 224.574 85.1978C224.574 85.1978 224.574 85.1978 224.467 85.3017C223.635 85.9248 222.804 86.6563 221.972 87.3844C221.972 87.3844 221.972 87.3844 221.864 87.3844C221.864 87.3844 221.864 87.3844 221.864 87.4883C220.102 88.9433 218.43 90.4019 216.768 92.0646C213.026 95.6024 209.694 99.5557 206.884 104.132C201.996 111.933 198.771 121.402 199.294 130.763C199.294 131.698 200.018 132.529 200.956 132.529C201.164 132.529 201.271 132.425 201.479 132.425C202.103 132.218 202.726 131.49 202.726 130.763C202.411 126.082 203.142 121.506 204.705 117.134C204.805 117.134 204.913 117.03 205.013 116.926C211.565 112.765 220.102 111.726 227.068 108.189C236.121 103.509 243.088 95.6024 247.561 86.4498C252.448 76.5655 252.864 65.6417 256.821 55.4494C257.236 54.4062 256.197 53.5743 255.366 53.782Z" fill="#8DBF82"/>
<path fill-rule="evenodd" clip-rule="evenodd" d="M242.147 119.216C242.147 119.528 242.147 119.737 242.045 120.048C239.235 128.161 238.92 137.111 239.029 145.432C239.343 155.001 239.861 164.47 239.444 174.039C239.444 174.039 239.444 174.039 239.343 174.039C239.343 174.143 239.343 174.143 239.343 174.143C239.235 177.679 238.82 181.217 238.296 184.754C238.296 184.754 238.197 184.754 238.197 184.858C238.088 185.69 237.988 186.417 237.781 187.249C237.781 187.565 237.673 187.876 237.573 188.084C237.573 188.188 237.573 188.188 237.573 188.188C237.573 188.292 237.573 188.292 237.573 188.292C236.011 195.365 232.785 201.917 228.419 207.64C228.419 207.744 228.419 207.744 228.419 207.744L228.311 207.847C221.76 216.376 212.607 223.139 202.408 226.989C201.269 227.404 200.122 226.573 200.015 225.426C199.913 225.115 200.015 224.699 200.23 224.283C206.881 214.087 213.332 203.79 216.141 191.827C216.665 189.849 217.181 187.77 217.596 185.689V185.585C217.596 185.585 217.596 185.481 217.705 185.481C218.221 183.087 218.745 180.593 219.161 178.199C219.161 178.095 219.161 178.095 219.161 178.095C219.161 178.095 219.161 177.991 219.26 177.991C220.1 173.103 220.823 168.11 221.03 163.219C219.892 168.006 218.637 172.792 217.291 177.472C217.291 177.576 217.291 177.576 217.291 177.576V177.679C216.767 179.134 216.351 180.697 215.834 182.256C215.834 182.36 215.834 182.36 215.834 182.36C214.788 185.585 213.748 188.603 212.501 191.723C209.691 198.692 206.366 205.35 201.894 211.592C197.628 217.52 192.425 223.035 186.498 227.613C183.164 228.027 179.63 228.445 176.09 228.651C194.088 219.395 183.687 208.471 185.35 187.04C186.498 172.27 193.257 158.641 202.933 147.614C213.439 135.651 227.797 129.099 239.029 118.177C240.175 117.031 241.939 117.865 242.147 119.216ZM184.834 228.86C184.203 229.276 183.686 229.692 183.063 230.108C183.579 229.691 184.203 229.276 184.834 228.86ZM182.956 230.108C182.44 230.528 181.815 230.942 181.192 231.255C181.815 230.839 182.44 230.528 182.956 230.108Z" fill="#53A175"/>
<path fill-rule="evenodd" clip-rule="evenodd" d="M13.7072 62.9399C7.36428 57.1162 6.53233 43.9053 17.4527 39.4294C4.34686 28.9255 17.0374 9.16054 30.8737 14.7765C30.3532 -0.514831 50.6363 -4.98846 57.0877 6.35082C67.0712 -4.26151 84.0299 5.93542 81.6367 18.2093C130.634 9.78364 188.263 19.249 157.369 58.2586C157.369 58.2586 157.369 58.2586 157.369 58.3624C157.161 58.5701 156.955 58.7778 156.846 58.8817C157.686 66.4754 156.846 74.3819 155.5 82.2872C153.937 101.118 181.402 105.277 173.181 116.305C169.856 120.674 163.505 117.345 161.742 124.523C160.387 129.726 175.575 137.632 161.011 142.313C162.989 143.456 166.315 146.681 166.315 148.556C164.86 149.283 159.972 149.595 158.408 163.325C155.707 186.628 128.764 171.647 115.97 169.36C103.276 166.965 100.881 199.008 118.048 216.276C90.1663 203.585 65.4084 172.689 59.0655 142.209C55.11 155.315 73.5226 204.208 116.386 223.454C136.771 232.607 163.715 233.127 185.254 230.216C87.8804 300.226 -49.3321 169.671 24.6311 75.2161C17.7689 78.1262 7.05276 93.0033 0.914062 113.39C1.43331 95.9181 5.59306 78.7551 13.7072 62.9399ZM54.1776 18.7286C55.6327 -2.49144 32.5376 4.89576 36.4896 16.962C39.6132 24.5557 51.3679 38.4936 51.3679 38.4936C51.3679 38.4936 52.9303 35.58 54.1776 18.7286ZM34.7242 77.6081C34.7242 77.6081 42.5245 81.7679 46.9969 73.5511C49.8067 65.7485 50.5371 47.5435 50.5371 47.5435C49.914 47.7547 17.2451 69.1824 34.7242 77.6081ZM14.958 55.4523C14.958 55.4523 17.7689 63.7742 26.61 60.7567C34.0999 57.1162 47.1043 44.4257 47.1043 44.4257C46.5804 44.113 7.9874 37.2474 14.958 55.4523ZM18.5986 23.8253C18.5986 23.8253 14.0223 31.4202 22.0326 36.2066C29.6263 39.4282 47.8277 41.0956 47.8277 41.0956C47.6189 40.5764 27.8562 6.76736 18.5986 23.8253ZM69.7817 69.3901C66.8635 61.5887 55.5242 47.4431 55.5242 47.4431C55.5242 47.4431 54.278 51.0802 52.1987 67.1043C49.7051 87.3885 72.7991 82.7083 69.7817 69.3901ZM58.6501 44.5296C58.6501 44.5296 75.6019 80.1075 86.6331 63.7753C86.6331 63.7753 91.7286 56.597 84.031 51.1852C76.6485 47.3358 58.6501 44.5296 58.6501 44.5296ZM71.3383 8.32628C71.3383 8.32628 63.6395 4.16536 59.167 12.3834C56.3561 20.1848 55.6327 38.3909 55.6327 38.3909C56.1485 38.182 88.9189 16.7543 71.3383 8.32628ZM90.4813 33.7096C90.4813 33.7096 88.6108 25.0762 79.4513 27.0505C71.6521 29.964 57.4027 41.3045 57.4027 41.3045C57.9197 41.5122 95.4776 52.4349 90.4813 33.7096Z" fill="#8DBF82"/>
<path fill-rule="evenodd" clip-rule="evenodd" d="M183.481 26.527C183.581 26.527 183.581 26.527 183.688 26.6308C186.183 28.8175 189.408 30.3764 192.534 31.5199C195.961 32.8745 199.5 34.1207 202.935 35.6796C202.935 35.7835 202.935 35.7835 202.935 35.7835C204.183 36.3074 205.429 37.0343 206.675 37.7613C206.991 37.9701 207.199 38.0728 207.507 38.2817C207.615 38.3855 207.716 38.3855 207.823 38.4894C210.216 40.1556 212.087 42.3376 213.542 44.7319C213.542 44.8358 213.542 44.8358 213.542 44.8358C215.621 48.4774 216.768 52.8449 216.559 57.1108C216.559 57.6301 216.144 57.9417 215.727 57.734C215.519 57.734 215.413 57.6301 215.312 57.5262C212.609 53.573 209.801 49.7236 205.844 46.8112C205.22 46.3958 204.597 45.8754 203.865 45.3562C203.865 45.3562 203.865 45.3562 203.766 45.3562C203.033 44.7331 202.202 44.2126 201.372 43.6934C199.709 42.5464 197.938 41.6118 196.275 40.781C197.837 41.9233 199.393 43.0668 200.856 44.3177H200.956C201.372 44.7331 201.896 45.1496 202.311 45.4612C202.411 45.565 202.411 45.565 202.411 45.565C203.45 46.397 204.39 47.2278 205.328 48.167C207.408 50.2452 209.278 52.4318 210.941 55.0304C213.751 59.5063 215.521 64.8107 215.204 70.114C215.204 70.6344 214.789 71.1572 214.272 71.0533C214.165 71.0533 214.063 71.0533 213.957 71.0533C213.648 70.9494 213.232 70.5294 213.333 70.114C213.44 67.5155 213.024 64.9135 212.193 62.4164C212.086 62.4164 211.985 62.3126 211.985 62.3126C208.237 59.9217 203.449 59.2986 199.499 57.3197C194.296 54.7177 190.346 50.1413 187.845 45.0446C185.042 39.4252 184.835 33.1861 182.54 27.4628C182.335 26.8385 182.958 26.3193 183.481 26.527Z" fill="#53A175"/>
</svg>
