<svg width="257" height="146" viewBox="0 0 257 146" fill="none" xmlns="http://www.w3.org/2000/svg">
<path d="M72.8653 143.479C33.9686 143.479 2.28665 111.832 2.28665 72.9001C2.28665 33.9686 33.9686 2.28662 72.8653 2.28662C93.1849 2.28662 112.354 10.9303 125.703 26.0568C119.255 34.0383 114.515 43.3093 111.797 53.1381C111.065 51.8833 110.298 50.5938 109.601 49.4087C101.48 36.8266 87.7826 29.2982 72.8653 29.2982C48.8511 29.2982 29.2982 48.8511 29.2982 72.9001C29.2982 96.9142 48.8511 116.467 72.8653 116.467C91.6514 116.467 108.242 104.512 114.202 86.7021C115.491 82.8682 116.223 78.8949 116.397 74.8867H143.444C143.339 78.5115 142.956 82.1363 142.294 85.6914C140.098 97.7159 134.73 109.043 126.784 118.419C113.295 134.347 93.638 143.479 72.8653 143.479Z" fill="#E2DED7"/>
<path fill-rule="evenodd" clip-rule="evenodd" d="M128.317 26.0218C120.51 35.258 114.968 46.4112 112.529 58.7145C111.657 56.9021 109.706 53.3819 107.893 50.4542C100.191 38.4645 87.1204 31.2847 72.8653 31.2847C49.9316 31.2847 31.2849 49.9662 31.2849 72.8999C31.2849 95.8336 49.9316 114.48 72.8653 114.48C91.1983 114.48 106.813 102.56 112.32 86.0398C113.714 81.927 114.481 77.5006 114.481 72.8999H145.465C145.465 77.3961 145.047 81.7876 144.246 86.0398C141.945 98.7265 136.299 110.263 128.283 119.708C114.968 135.462 95.067 145.465 72.8653 145.465C32.8533 145.465 0.299988 112.912 0.299988 72.8999C0.299988 32.8531 32.8533 0.299805 72.8653 0.299805C94.5094 0.299805 114.62 9.78 128.317 26.0218ZM4.27331 72.8999C4.27331 110.716 35.0491 141.492 72.8653 141.492C93.0804 141.492 112.145 132.639 125.25 117.164C132.988 108.032 138.216 97.0187 140.342 85.3427C140.865 82.5544 141.213 79.6964 141.388 76.8733H118.28C117.966 80.4283 117.234 83.9137 116.084 87.3293C109.845 105.941 92.4879 118.454 72.8653 118.454C47.7706 118.454 27.3116 98.0294 27.3116 72.8999C27.3116 47.7705 47.7706 27.3114 72.8653 27.3114C88.4448 27.3114 102.77 35.1534 111.204 48.2584C113.923 40.3118 117.966 32.8183 123.124 26.1612C110.194 12.2197 92.0696 4.27312 72.8653 4.27312C35.0491 4.27312 4.27331 35.0489 4.27331 72.8999Z" fill="#2D292B"/>
<path d="M132.535 73.4229C132.535 40.7302 106.011 14.2065 73.3184 14.2065C40.6256 14.2065 14.1369 40.7302 14.1369 73.4229C14.1369 106.116 40.6256 132.604 73.3184 132.604C106.011 132.604 132.535 106.116 132.535 73.4229Z" stroke="#2D292B" stroke-width="11.4" stroke-miterlimit="10" stroke-linecap="round"/>
<path d="M230.264 71.2967C228.696 71.2967 227.023 71.2967 225.35 71.227C211.06 70.8436 198.338 68.8221 186.488 64.9882C173.906 60.9452 162.125 54.7412 151.53 46.5506C143.792 40.6255 136.857 33.7245 130.897 26.0916C136.613 19.6436 143.339 14.3807 150.937 10.3726C158.117 19.6436 167.249 27.5554 177.461 33.376C182.828 36.4082 188.475 38.9177 194.295 40.7998C199.802 42.5773 205.762 43.9018 212.071 44.7382C217.752 45.4702 223.886 45.8536 230.299 45.8536C236.015 45.8536 241.975 45.5747 248.562 44.9822C251.978 52.9289 253.895 61.2937 254.244 69.9723C245.495 70.8785 237.653 71.2967 230.264 71.2967Z" fill="#E2DED7"/>
<path fill-rule="evenodd" clip-rule="evenodd" d="M178.437 31.6335C183.665 34.596 189.172 37.0358 194.888 38.883C200.569 40.7303 206.424 41.9501 212.315 42.7518C218.275 43.5534 224.304 43.8671 230.299 43.8671C236.886 43.8671 243.404 43.4837 249.782 42.8563C253.825 51.7092 256.126 61.4682 256.265 71.75C247.9 72.6562 239.152 73.2836 230.264 73.2836C228.615 73.2836 226.953 73.2603 225.28 73.2139C212.28 72.8653 198.966 71.0878 185.896 66.8705C173 62.7229 160.975 56.3447 150.31 48.1541C142.085 41.7759 134.661 34.352 128.352 25.9872C134.73 18.4936 142.607 12.2897 151.495 7.86328C158.745 17.5526 167.981 25.6735 178.437 31.6335ZM133.511 26.1614C139.122 33.167 145.605 39.4755 152.75 44.9824C163.171 53.0336 174.708 59.133 187.115 63.1063C198.791 66.8705 211.304 68.892 225.385 69.2405C227.058 69.3103 228.696 69.3102 230.264 69.3102C237.026 69.3102 244.241 68.9617 252.152 68.1949C251.664 60.9105 250.026 53.8352 247.273 47.0736C241.208 47.5964 235.632 47.8404 230.299 47.8404C223.782 47.8404 217.578 47.457 211.792 46.6902C205.414 45.8537 199.314 44.4945 193.668 42.6821C187.743 40.7651 181.957 38.2208 176.485 35.084C166.552 29.4377 157.594 21.8047 150.415 12.9171C144.106 16.4373 138.425 20.8637 133.511 26.1614Z" fill="#2D292B"/>
<path d="M150.589 29.2983C150.589 29.2983 178.576 63.1064 235.144 59.1331" stroke="#2D292B" stroke-width="11.4" stroke-miterlimit="10"/>
<path d="M168.364 111.518C158.431 107.579 150.415 99.9113 145.953 90.2917C144.675 90.1058 143.374 90.0013 142.05 89.978L113.226 90.222C119.848 117.164 141.562 138.25 168.887 143.966V116.885C168.887 115.073 168.713 113.26 168.364 111.518Z" fill="#2D292B"/>
<path d="M256.3 72.8999C256.3 32.8531 223.712 0.299805 183.7 0.299805C148.358 0.299805 118.837 25.7081 112.424 59.2373L141.98 58.9933C142.817 58.9933 143.653 59.0166 144.489 59.063C150.205 42.9258 165.611 31.2847 183.7 31.2847C206.634 31.2847 225.28 49.9662 225.28 72.8999C225.28 90.1873 214.685 105.035 199.593 111.309C199.779 113.144 199.872 115.003 199.872 116.885V143.653C232.146 136.264 256.3 107.335 256.3 72.8999Z" fill="#2D292B"/>
<path fill-rule="evenodd" clip-rule="evenodd" d="M243.544 73.4229C243.544 106.116 217.02 132.604 184.327 132.604C151.634 132.604 125.146 106.116 125.146 73.4229C125.146 40.7302 151.634 14.2065 184.327 14.2065C217.02 14.2065 243.544 40.7302 243.544 73.4229ZM129.119 73.4229C129.119 103.885 153.9 128.631 184.327 128.631C214.789 128.631 239.57 103.885 239.57 73.4229C239.57 42.9608 214.789 18.1799 184.327 18.1799C153.9 18.1799 129.119 42.9608 129.119 73.4229Z" fill="#E2DED7"/>
<path d="M183.7 143.479C179.413 143.479 175.091 143.095 170.874 142.328V116.885C170.874 114.968 170.665 113.016 170.281 111.134C167.876 99.2493 158.222 90.0828 146.232 88.3401C144.838 88.131 143.444 88.0264 142.05 87.9916L79.2086 88.5144L78.9995 61.4679L142.015 60.98C142.851 60.98 143.688 61.0148 144.385 61.0497C172.094 62.2347 194.992 83.9137 197.641 111.483C197.816 113.33 197.885 115.143 197.885 116.885V142.05C193.25 142.991 188.475 143.479 183.7 143.479Z" fill="#E2DED7"/>
<path fill-rule="evenodd" clip-rule="evenodd" d="M144.49 59.0629C173.383 60.2827 196.875 82.7982 199.593 111.308C199.779 113.144 199.872 115.003 199.872 116.885V143.653C194.679 144.838 189.276 145.465 183.7 145.465C178.611 145.465 173.662 144.942 168.887 143.966V116.885C168.887 115.073 168.713 113.26 168.364 111.518C166.099 100.539 157.141 91.9298 145.953 90.2917C144.675 90.1058 143.374 90.0013 142.05 89.978L113.226 90.222L77.222 90.5009L76.978 59.516L112.424 59.2371L141.98 58.9932C142.817 58.9932 143.653 59.0164 144.49 59.0629ZM112.459 63.2104L80.9862 63.4544L81.1604 86.4927L113.191 86.2487L142.015 86.0047H142.05C143.514 86.0396 145.047 86.1441 146.511 86.3533C159.337 88.2354 169.654 98.0641 172.233 110.751C172.651 112.737 172.86 114.829 172.86 116.885V140.655C176.45 141.213 180.075 141.492 183.7 141.492C187.813 141.492 191.89 141.143 195.899 140.411V116.885C195.899 115.212 195.829 113.469 195.655 111.692C193.11 85.0985 171.013 64.1863 144.315 63.0362C143.618 63.0013 142.817 62.9665 142.015 62.9665L112.459 63.2104Z" fill="#2D292B"/>
<path d="M79.2086 71.0527H130.478" stroke="#2D292B" stroke-width="11.4" stroke-miterlimit="10" stroke-linecap="round"/>
<path d="M79.2086 78.8252H130.478" stroke="#2D292B" stroke-width="11.4" stroke-miterlimit="10" stroke-linecap="round"/>
</svg>
