<svg width="257" height="223" viewBox="0 0 257 223" fill="none" xmlns="http://www.w3.org/2000/svg">
<path d="M185.238 194.582C165.682 211.761 140.035 222.181 111.954 222.181C72.1179 222.181 37.1665 201.202 17.5625 169.69C21.2026 170.173 24.9781 170.124 28.5303 169.707C38.7988 168.51 49.3083 165.32 59.2634 168.14C72.6092 171.917 80.78 185.214 92.5587 192.55C103.341 199.266 116.566 200.624 129.27 200.769C148.085 200.986 166.919 198.88 185.238 194.582Z" fill="url(#paint0_linear_16_338)"/>
<path d="M210.984 161.481C208.269 166.808 205.127 171.894 201.624 176.682C179.368 184.773 155.753 189.16 132.076 189.466C114.986 189.69 96.844 187.425 83.4175 176.851C73.7593 169.242 66.3354 157.351 54.235 155.173C46.1356 153.719 38.0373 157.142 29.85 157.986C22.9888 158.692 15.9745 157.44 9.6988 154.579C7.44897 149.301 5.60153 143.812 4.1875 138.156C9.74741 142.069 16.9624 143.893 23.8639 144.392C33.5935 145.106 43.4369 143.765 53.1023 145.059C65.3713 146.706 76.6277 152.474 88.1333 157.023C126.981 172.392 171.069 173.661 210.984 161.481Z" fill="url(#paint1_linear_16_338)"/>
<path d="M217.682 76.8827C214.227 75.9342 210.821 74.8098 207.471 73.6047C195.105 69.1372 183.094 63.4893 170.237 60.7337C146.415 55.632 121.636 60.8547 98.2626 67.7562C64.5246 77.7196 31.8478 91.234 0.914062 108.002C2.54531 48.0871 51.637 2.4863e-08 111.954 2.4863e-08C161.366 -0.00103437 203.26 32.2743 217.682 76.8827Z" fill="url(#paint2_linear_16_338)"/>
<path d="M256.217 93.4098C253.975 88.1954 247.322 86.8858 241.674 86.3635C234.435 85.6963 227.18 85.1739 219.917 84.7963C213.931 84.4747 207.944 84.2574 201.951 84.1374C188.67 77.8949 174.931 72.6557 160.436 70.9127C143.603 68.8884 126.529 71.6916 110.146 76.0547C101.204 78.4327 92.3982 81.2691 83.5758 84.0733C87.9389 83.1175 92.3258 82.2973 96.753 81.6787C110.926 79.6937 125.614 79.8302 139.288 84.0733C141.08 84.6277 142.848 85.2546 144.599 85.9135C99.4362 89.6177 54.7151 98.769 11.7617 113.207C14.8949 112.38 18.0291 111.568 21.1706 110.789C27.3253 109.262 33.512 107.84 39.7142 106.515C46.0054 105.173 52.3204 103.943 58.6602 102.81C62.4524 102.136 70.3189 99.1062 73.3559 102.288C64.3494 107.799 52.667 110.837 43.0409 115.658C33.4954 120.43 24.1993 127.082 14.3332 131.044C55.5271 114.501 98.8094 99.0824 143.113 101.934C109.504 108.411 76.907 120.085 46.8257 136.402C54.652 140.621 63.4009 143.159 72.0785 145.313C104.74 153.444 138.405 157.164 172.029 157.55C180.449 157.646 188.87 157.534 197.282 157.228C202.038 157.059 208.595 158.288 213.255 156.754C213.424 156.705 213.592 156.641 213.761 156.577C219.562 154.344 224.801 147.112 228.85 142.621C233.895 137.029 238.579 131.107 242.854 124.897C246.952 118.943 250.681 112.724 253.991 106.296C256.065 102.288 257.993 97.5556 256.217 93.4098ZM160.018 84.8688C160.009 84.8688 160.009 84.8688 160.009 84.8688C157.431 84.0733 154.9 83.1651 152.4 82.1452C149.717 81.0529 142.727 75.7899 140.155 76.0226C153.855 74.7855 178.673 77.027 194.751 84.0412C183.174 83.9523 171.58 84.2254 160.018 84.8688Z" fill="url(#paint3_linear_16_338)"/>
<defs>
<linearGradient id="paint0_linear_16_338" x1="64.0936" y1="124.667" x2="140.807" y2="242.882" gradientUnits="userSpaceOnUse">
<stop stop-color="#5AA0FC"/>
<stop offset="1" stop-color="#90FF95"/>
</linearGradient>
<linearGradient id="paint1_linear_16_338" x1="67.1893" y1="102.548" x2="137.615" y2="193.095" gradientUnits="userSpaceOnUse">
<stop stop-color="#5AA0FC"/>
<stop offset="1" stop-color="#90FF95"/>
</linearGradient>
<linearGradient id="paint2_linear_16_338" x1="7.13775" y1="132.722" x2="147.989" y2="38.4013" gradientUnits="userSpaceOnUse">
<stop stop-color="#EB2B1D"/>
<stop offset="1" stop-color="#F5AA2A"/>
</linearGradient>
<linearGradient id="paint3_linear_16_338" x1="86.5626" y1="143.665" x2="284.006" y2="69.4667" gradientUnits="userSpaceOnUse">
<stop stop-color="#343B87"/>
<stop offset="1" stop-color="#61ACEC"/>
</linearGradient>
</defs>
</svg>
