<svg width="257" height="188" viewBox="0 0 257 188" fill="none" xmlns="http://www.w3.org/2000/svg">
<path d="M37.0312 88.6953C37.2322 88.9454 37.4232 89.1871 37.6242 89.4287C37.6073 89.2868 37.5904 89.1449 37.5736 89.003C37.3909 88.8948 37.2153 88.7951 37.0312 88.6953Z" fill="url(#paint0_linear_16_309)"/>
<path d="M37.0312 88.6953C37.2322 88.9454 37.4232 89.1871 37.6242 89.4287C37.6073 89.2868 37.5904 89.1449 37.5736 89.003C37.3909 88.8948 37.2153 88.7951 37.0312 88.6953Z" fill="url(#paint1_linear_16_309)"/>
<path d="M41.7188 111.52C42.2189 112.429 42.736 113.321 43.2614 114.204C43.0703 113.662 42.8863 113.12 42.7022 112.578C42.3693 112.229 42.0363 111.878 41.7188 111.52Z" fill="url(#paint2_linear_16_309)"/>
<path d="M37.0312 88.6953C37.2322 88.9454 37.4232 89.1871 37.6242 89.4287C37.6073 89.2868 37.5904 89.1449 37.5736 89.003C37.3909 88.8948 37.2153 88.7951 37.0312 88.6953Z" fill="url(#paint3_linear_16_309)"/>
<path d="M41.7188 111.52C42.2189 112.429 42.736 113.321 43.2614 114.204C43.0703 113.662 42.8863 113.12 42.7022 112.578C42.3693 112.229 42.0363 111.878 41.7188 111.52Z" fill="url(#paint4_linear_16_309)"/>
<path d="M37.0312 88.6953C37.2322 88.9454 37.4232 89.1871 37.6242 89.4287C37.6073 89.2868 37.5904 89.1449 37.5736 89.003C37.3909 88.8948 37.2153 88.7951 37.0312 88.6953Z" fill="url(#paint5_linear_16_309)"/>
<path d="M79.2539 164.292C98.0358 179.046 121.714 187.844 147.434 187.844C172.437 187.844 195.505 179.538 214.022 165.517C225.915 156.527 235.931 145.184 243.379 132.174C243.654 131.691 243.921 131.206 244.188 130.723C244.339 130.456 244.489 130.189 244.631 129.914C245.515 128.287 246.358 126.636 247.167 124.951C242.514 120.747 236.35 118.188 229.595 118.188C226.308 118.188 223.164 118.787 220.27 119.897C216.833 121.198 213.748 123.209 211.18 125.744C210.838 126.069 209.637 127.762 209.353 128.254C208.044 130.515 206.643 132.716 205.158 134.851C187.794 159.947 158.803 176.376 125.977 176.376C109.02 176.378 93.0902 171.99 79.2539 164.292Z" fill="url(#paint6_linear_16_309)"/>
<path d="M42.7031 112.58C42.8872 113.122 43.0698 113.664 43.2623 114.207C60.0674 142.346 90.817 161.195 125.98 161.195C155.498 161.195 183.867 147.291 201.995 124.001C204.832 120.356 207.406 116.507 209.675 112.486C213.907 104.99 215.373 96.1286 220.396 89.0475C225.173 82.3134 233.388 78.3948 241.596 78.3948C247.26 78.3948 252.504 80.1876 256.791 83.2407C248.468 70.8697 234.907 69.1711 229.488 69.1641C216.859 69.15 206.299 76.2972 200.247 87.0847C192.985 100.034 184.662 112.403 172.988 121.784C156.018 135.419 134.605 142.922 112.842 142.922C85.1872 142.92 60.2585 131.262 42.7031 112.58Z" fill="url(#paint7_linear_16_309)"/>
<path d="M37.5703 89.0041C37.5872 89.146 37.604 89.2879 37.6209 89.4298C55.2521 111.49 82.3993 125.617 112.84 125.617C127.571 125.617 142.232 122.231 155.44 115.7C167.387 109.795 179.977 100.88 187.845 89.9904C192.061 84.1541 195.269 77.663 199.48 71.8225C203.226 66.6268 207.816 61.9651 213.311 58.6732C226.749 50.6212 244.93 52.7723 256.914 62.5411C256.09 56.3339 255.391 51.6328 251.396 46.6662C247.854 42.2643 243.369 38.6156 238.314 36.0866C230.104 31.977 220.417 31.5429 211.779 34.5678C203.026 37.6321 196.144 44.1597 189.475 50.3444C182.427 56.8804 175.455 63.3912 167.848 69.2865C161.577 74.1463 155.074 78.7013 148.372 82.9486C135.528 91.0877 121.687 98.0424 106.736 101.268C91.3378 104.591 75.5851 103.193 60.5447 98.7505C52.5503 96.3859 44.8271 93.1095 37.5703 89.0041Z" fill="url(#paint8_linear_16_309)"/>
<path d="M217.465 114.279C217.465 114.279 220.729 100.658 232.477 92.0088C238.753 87.3892 255.605 92.1521 255.605 92.1521C255.605 92.1521 255.638 110.285 249.447 116.595C249.447 116.595 240.31 101.877 217.465 114.279Z" fill="url(#paint9_linear_16_309)"/>
<path d="M177.324 48.8195C177.324 48.8195 168.512 59.9161 161.006 59.2628C153.501 58.6095 102.59 46.2091 101.611 46.2091C100.631 46.2091 54.6165 37.7243 49.3941 36.7451C44.1732 35.7658 39.5719 44.3109 56.2477 59.2909C67.7363 69.612 99.0001 94.8357 99.0001 94.8357C99.0001 94.8357 88.2308 96.7943 73.8705 92.5512C59.5115 88.3082 50.0461 81.1287 50.0461 81.1287L1.74676 15.2052C1.74676 15.2052 -4.78082 10.6362 18.7162 11.6154C42.2133 12.5947 81.3759 16.1845 81.3759 16.1845C81.3759 16.1845 111.075 1.17216 124.78 0.192883C138.487 -0.786395 152.846 2.15144 160.679 4.7619C168.512 7.37237 192.335 18.469 191.356 18.469C190.376 18.469 181.408 21.0794 163.211 16.1845C145.013 11.2895 134.57 9.65688 119.558 13.248C104.546 16.8378 91.4918 24.9965 91.4918 24.9965L177.324 48.8195Z" fill="url(#paint10_linear_16_309)"/>
<defs>
<linearGradient id="paint0_linear_16_309" x1="36.8879" y1="88.9469" x2="37.87" y2="89.2043" gradientUnits="userSpaceOnUse">
<stop stop-color="#EB2B1D"/>
<stop offset="1" stop-color="#F5AA2A"/>
</linearGradient>
<linearGradient id="paint1_linear_16_309" x1="36.8879" y1="88.9469" x2="37.87" y2="89.2043" gradientUnits="userSpaceOnUse">
<stop stop-color="#EB2B1D"/>
<stop offset="1" stop-color="#F5AA2A"/>
</linearGradient>
<linearGradient id="paint2_linear_16_309" x1="41.2314" y1="112.532" x2="44.0434" y2="113.269" gradientUnits="userSpaceOnUse">
<stop stop-color="#EB2B1D"/>
<stop offset="1" stop-color="#F5AA2A"/>
</linearGradient>
<linearGradient id="paint3_linear_16_309" x1="36.8879" y1="88.9469" x2="37.87" y2="89.2043" gradientUnits="userSpaceOnUse">
<stop stop-color="#EB2B1D"/>
<stop offset="1" stop-color="#F5AA2A"/>
</linearGradient>
<linearGradient id="paint4_linear_16_309" x1="41.2314" y1="112.532" x2="44.0434" y2="113.269" gradientUnits="userSpaceOnUse">
<stop stop-color="#EB2B1D"/>
<stop offset="1" stop-color="#F5AA2A"/>
</linearGradient>
<linearGradient id="paint5_linear_16_309" x1="36.8879" y1="88.9469" x2="37.87" y2="89.2043" gradientUnits="userSpaceOnUse">
<stop stop-color="#EB2B1D"/>
<stop offset="1" stop-color="#F5AA2A"/>
</linearGradient>
<linearGradient id="paint6_linear_16_309" x1="108.054" y1="123.137" x2="296.902" y2="201.461" gradientUnits="userSpaceOnUse">
<stop stop-color="#5AA0FC"/>
<stop offset="1" stop-color="#90FF95"/>
</linearGradient>
<linearGradient id="paint7_linear_16_309" x1="120.188" y1="93.8902" x2="309.037" y2="172.215" gradientUnits="userSpaceOnUse">
<stop stop-color="#5AA0FC"/>
<stop offset="1" stop-color="#90FF95"/>
</linearGradient>
<linearGradient id="paint8_linear_16_309" x1="131.533" y1="66.5296" x2="320.382" y2="144.854" gradientUnits="userSpaceOnUse">
<stop stop-color="#5AA0FC"/>
<stop offset="1" stop-color="#90FF95"/>
</linearGradient>
<linearGradient id="paint9_linear_16_309" x1="168.817" y1="124.754" x2="259.76" y2="98.6458" gradientUnits="userSpaceOnUse">
<stop stop-color="#5AA0FC"/>
<stop offset="1" stop-color="#90FF95"/>
</linearGradient>
<linearGradient id="paint10_linear_16_309" x1="134.893" y1="58.8453" x2="-47.6595" y2="-57.1516" gradientUnits="userSpaceOnUse">
<stop stop-color="#343B87"/>
<stop offset="1" stop-color="#61ACEC"/>
</linearGradient>
</defs>
</svg>
