<svg width="199" height="256" viewBox="0 0 199 256" fill="none" xmlns="http://www.w3.org/2000/svg">
<path d="M64.3747 25.4609C64.5275 26.1739 64.7821 27.2433 65.0367 28.5674C64.4256 29.0257 63.8145 29.484 63.3562 29.7896C60.9118 31.2664 59.5878 33.0997 56.1758 33.2015C56.1758 33.2015 59.7914 28.4655 61.3701 26.0211C62.6432 25.9193 63.458 25.7665 64.3747 25.4609Z" fill="#FF3F3E"/>
<path d="M74.1525 22.1016L73.6942 23.2219C73.2359 23.2219 71.7591 23.9349 70.3841 24.7497C70.2144 24.2404 70.0616 23.833 69.9258 23.5275C72.1156 22.8145 74.1525 22.1016 74.1525 22.1016Z" fill="#FF3F3E"/>
<path d="M65.2909 29.6914C66.2584 34.6821 67.4806 42.4226 67.0223 48.5846C65.3418 49.9086 63.865 50.7743 63.865 50.7743C63.865 50.7743 61.777 49.3994 59.5873 47.5661C58.1105 48.279 55.4624 48.8392 53.018 47.7698C50.6245 46.6494 49.3004 41.0986 48.4856 38.9597C47.6708 36.8209 46.6523 33.7145 46.6523 33.7145C47.2634 34.5293 49.5551 34.9876 50.1662 34.4783C50.7773 33.9691 50.7773 31.0664 51.1847 30.9645C51.5921 30.9136 51.8976 32.3904 52.5087 33.4089C53.1198 34.4274 54.3929 35.1404 57.1938 34.733C60.4021 34.2237 62.8465 31.4738 64.3742 30.4044C64.6288 30.2007 64.9344 29.946 65.2909 29.6914Z" fill="black"/>
<path d="M74.5572 27.701C74.4044 29.4325 72.673 32.5898 72.2147 33.4046C72.1807 32.8954 72.1128 32.3692 72.011 31.826C71.6545 29.6871 71.2471 27.9557 70.8906 26.5298C71.96 24.8492 73.6915 24.2891 73.6915 24.2891C73.6915 24.2891 74.7609 25.664 74.5572 27.701Z" fill="black"/>
<path d="M75.2714 20.2681C74.6094 21.1848 71.2484 21.5922 67.9892 22.356L65.5957 23.1199C64.1189 23.5273 62.9476 23.731 62.2346 24.0366C59.9939 24.9532 54.4431 24.1384 51.4895 24.8514C48.5868 25.5643 45.3276 24.1893 45.3276 24.1893L45.2766 22.1014C45.2766 22.1014 44.36 22.407 42.4248 21.3885C40.5406 20.37 40.5915 14.2081 42.6285 13.6988C41.9156 11.2544 43.2396 7.84244 45.0729 5.49989C44.7674 7.38412 44.36 10.2868 44.8692 12.1201C45.1748 13.1386 46.1933 15.634 47.059 16.1941C46.1933 12.884 45.9387 8.55539 47.0081 5.85637C47.8229 3.8703 49.5543 2.18977 49.5543 2.18977C52.2024 0.662026 55.5126 0.0509249 59.4847 0C55.92 3.97215 54.0867 10.7961 55.1561 15.2266C56.9385 7.48596 61.0124 2.64809 64.5263 0.203697C67.7855 0.712946 68.4984 1.78237 68.4984 1.78237C68.4984 1.78237 68.7021 1.78237 69.0586 1.83329C69.3641 1.83329 69.7715 1.88422 70.1789 1.98607H70.2299C70.841 2.13884 70.8919 3.31012 70.8919 3.81937C70.8919 3.92122 70.8919 4.02307 70.8919 4.02307L72.4196 5.55082L72.6233 5.75452C72.6233 5.75452 74.4566 4.93972 74.7622 5.95822C75.0677 6.97672 74.4566 8.14799 74.4566 8.14799C74.4566 8.14799 74.8131 9.11557 75.2205 9.82851C74.202 12.884 70.3826 17.62 64.8827 19.0459C71.5539 17.62 74.3039 15.2266 75.9334 13.4442C75.9844 13.8516 76.4427 14.0553 76.5955 15.1756C76.9519 18.0274 76.0862 19.1478 75.2714 20.2681Z" fill="black"/>
<path d="M45.4318 31.0653C46.2466 29.5885 47.0614 28.2135 47.9781 26.8385C46.705 26.7876 45.6864 26.5839 44.2605 25.9219C44.2605 25.9219 43.955 29.1811 45.4318 31.0653Z" fill="#FF3F3E"/>
<path d="M49.7081 32.7957C50.1155 31.8791 49.9118 29.5875 51.2359 29.5875C52.2035 29.5875 52.5599 31.6245 54.0368 32.643C55.3608 30.4023 56.8207 28.2804 58.4163 26.2773C56.3793 26.3283 54.2914 26.3792 52.4071 26.532C51.5414 26.6338 50.7776 26.6847 50.1155 26.7866C48.9443 28.569 47.7221 30.3513 46.5508 32.1337C48.0276 33.2541 49.3517 33.5596 49.7081 32.7957Z" fill="#FF3F3E"/>
<path d="M94.1154 221.523C94.1154 221.523 85.0508 224.63 81.7916 217.398C81.7916 217.398 77.0555 224.07 76.75 225.801L93.3515 225.597L95.2867 226.107L94.1154 221.523Z" fill="#FF3F3E"/>
<path fill-rule="evenodd" clip-rule="evenodd" d="M147.892 189.949C148.146 217.958 137.198 240.823 123.397 240.925C112.499 241.027 103.078 226.819 99.5131 206.958L97.2214 207.976C97.2214 207.976 95.6937 217.398 91.8743 219.689C88.0549 221.981 82.9624 218.416 80.9255 209.25C78.8885 200.083 83.4717 190.407 83.4717 190.407L76.1894 178.389C77.6153 184.857 78.4301 191.884 78.532 199.217C78.7866 230.434 65.5971 255.846 49.0465 255.999C32.4958 256.151 18.797 230.995 18.4915 199.778C18.2369 168.612 31.4264 143.149 47.977 142.996C49.9631 142.996 51.8982 143.353 53.7315 144.015L54.1899 142.131L58.2129 120.131L44.6669 115.242L18.2878 114.376C18.2878 114.376 15.9962 118.043 17.7785 125.58C19.5609 133.117 25.7737 132.455 25.2645 134.492C24.7552 136.529 19.5609 138.82 13.1953 129.247C9.98701 124.46 9.5287 119.724 9.83425 116.21C8.5102 116.006 6.98244 115.497 6.16765 115.089C4.89452 114.529 4.28342 111.779 4.28342 111.779C4.28342 111.779 0.718677 110.455 0.311277 109.844C-0.0961221 109.284 -0.0961252 105.414 0.514974 104.09C1.12607 102.817 6.0658 99.1499 9.01945 97.724C11.9222 96.349 14.3666 99.5573 14.3666 99.5573L23.2784 97.2148C23.2784 97.2148 31.5283 86.1131 32.6486 84.6363C33.4634 83.465 35.3476 71.956 36.2643 65.3867L48.69 69.5116C47.4168 76.2337 45.8891 84.84 45.1762 89.4742C43.8521 97.6221 39.5235 101.391 35.3986 103.988C32.8523 105.617 27.1996 107.196 23.1256 108.265C33.9217 108.113 51.5927 107.909 64.3748 107.96C64.2221 107.756 64.1202 107.603 64.1202 107.603C64.1202 107.603 63.8656 104.039 64.3748 102.307C64.8841 100.474 66.4118 98.6916 69.9766 98.1823C73.5413 97.6731 83.4717 93.8537 83.4717 93.8537L94.9298 86.215C94.9298 86.215 92.6382 81.3771 90.8558 74.5022C89.5318 69.3588 88.6151 62.0765 88.2587 58.7155C87.1383 69.0023 90.9068 84.84 90.9068 84.84C90.9068 84.84 86.5272 89.7797 82.4532 92.326C79.6523 94.1083 73.3886 95.3814 69.722 95.9925C70.6386 93.5991 72.4719 83.7196 74.0506 80.5623C74.7126 79.2892 75.782 73.5347 75.782 73.5347C75.782 73.5347 75.3746 73.2291 67.9905 69.8681C60.6064 66.5579 51.4399 59.3775 50.8288 59.9886C50.5742 60.1923 49.9122 63.2987 49.0974 67.4746L36.5698 63.146C36.7226 62.1275 36.7735 61.3636 36.7735 61.058C36.7735 59.1738 36.3661 53.1137 36.468 49.9564C36.5698 46.85 39.0142 39.4659 40.2874 37.8363C41.6114 36.2576 44.6669 33.966 44.6669 33.966C47.8752 46.6972 49.9631 49.1925 52.764 50.211C55.6158 51.2295 58.5185 50.1092 58.5185 50.1092L63.2545 53.5721C63.2545 53.5721 67.5322 51.5351 70.6386 47.8685C73.796 44.2528 73.745 37.989 73.6432 34.5262C74.9163 33.1003 76.1385 29.892 76.3422 28.4661C77.1061 28.4661 79.2959 28.2115 81.4856 28.9244C85.305 30.0957 87.6985 36.8178 87.6985 36.8178C87.6985 36.8178 87.9022 32.9984 87.5457 30.8595C89.4808 32.1836 91.9253 35.0863 94.115 38.5492C97.1196 43.1834 97.5779 48.3777 98.5964 53.6739C101.55 68.9514 103.332 81.1225 101.041 85.1965C98.7492 89.2705 102.569 91.3075 97.7307 94.363C92.9947 97.3675 84.9994 103.631 84.7448 103.784C85.1013 103.682 92.1799 100.78 97.7307 97.9786C97.7307 97.9786 103.332 95.7379 104.351 93.5991C104.402 93.4972 104.453 93.3954 104.504 93.1917C104.504 93.0898 104.504 93.0389 104.555 92.8861C104.555 92.8182 104.555 92.7503 104.555 92.6824C104.555 92.5806 104.555 92.4278 104.606 92.275V92.2241C104.606 92.0543 104.606 91.8676 104.606 91.6639C104.606 91.5111 104.656 91.3584 104.656 91.1547V91.0528C105.013 81.5299 102.721 49.8036 100.939 42.4195C103.18 46.2389 105.013 51.7388 105.013 51.7388C105.013 51.7388 110.055 49.7527 111.888 45.2204C113.416 47.9194 112.346 53.1138 112.346 53.1138C112.346 53.1138 116.318 52.0443 118.152 49.2944C119.577 53.8267 117.031 61.4145 117.031 61.4145C117.031 61.4145 124.925 64.1135 125.23 71.1412C125.332 73.331 124.976 75.6735 124.415 77.8123C123.295 81.9882 120.902 85.7057 117.642 88.4557L115.707 90.0853C114.689 90.951 113.772 91.6639 113.212 92.275C111.43 94.2611 107.05 97.8258 103.791 101.085C107.457 107.96 107.865 113.358 108.985 122.372L113.67 137.598L115.503 142.538C117.184 140.348 120.392 139.432 122.48 139.381C136.23 139.279 147.637 161.889 147.892 189.949ZM71.3516 199.319C71.1988 186.333 68.0414 174.773 63.1527 166.931L58.0092 194.278C58.5185 195.398 58.824 196.773 58.824 198.301C58.875 201.764 57.3981 204.615 55.5648 204.615C54.088 204.615 52.8658 202.884 52.3566 200.389H46.7039C46.2965 202.833 45.0743 204.615 43.5975 204.615C41.7642 204.615 40.2874 201.866 40.2364 198.403C40.1855 195.958 40.9494 193.819 42.0188 192.801L50.676 156.797C49.8273 156.627 48.9785 156.542 48.1298 156.542C35.5004 156.695 25.4682 175.996 25.7228 199.727C25.9265 223.458 36.3152 242.555 48.9446 242.453C61.5231 242.351 71.5553 222.999 71.3516 199.319ZM45.7363 193.616C46.1947 194.38 46.5511 195.398 46.7548 196.569H52.3056C52.6112 194.38 53.5788 192.648 54.801 192.19L58.824 161.431C58.0092 160.65 57.1775 159.954 56.3287 159.343L45.7363 193.616ZM80.4162 169.528C76.9533 161.686 73.5923 154.047 71.8608 150.279C68.2451 142.232 66.6155 134.696 67.2266 128.024C67.3794 126.293 67.1757 124.714 67.3794 121.251L67.0739 119.876L63.7128 140.959L80.4162 169.528ZM93.7585 211.541C93.453 212.05 90.2447 217.092 87.1383 213.527C83.7773 209.657 84.1337 201.102 84.1337 201.102C84.1337 201.102 82.5551 210.115 86.68 215.055C90.6521 219.791 93.5548 212.152 93.7585 211.541ZM104.911 198.097L116.624 193.361C116.454 192.546 116.369 191.681 116.369 190.764C116.318 185.468 118.559 181.19 121.36 181.139C123.906 181.139 126.096 184.704 126.452 189.389L130.73 187.657C130.883 186.079 131.392 184.755 132.156 184.042L117.846 152.621L105.319 152.061L101.652 143.913L91.2123 120.538C91.2123 120.538 88.5642 115.904 88.7679 111.423C88.9716 107.247 90.6012 105.719 90.8049 105.566C90.4484 105.719 86.4763 107.553 86.4763 111.983C86.4763 115.14 88.5133 120.793 89.8373 124.663C87.5457 131.895 86.1707 140.043 85.5596 143.607C89.1753 148.802 91.6197 165.862 94.9808 178.185L109.953 177.931L110.513 182.412L104.707 183.278C104.504 185.57 104.402 187.912 104.453 190.356C104.453 193.005 104.656 195.602 104.911 198.097ZM141.424 190C141.221 169.223 132.818 152.417 122.582 152.519C122.107 152.519 121.614 152.57 121.105 152.672L133.48 183.482C134.906 183.583 136.077 185.824 136.128 188.574C136.128 191.375 134.957 193.667 133.429 193.718C132.818 193.718 132.207 193.259 131.749 192.597L125.943 195.143C125.128 198.148 123.448 200.236 121.513 200.236C120.443 200.236 119.425 199.574 118.559 198.454L105.879 204.106C108.68 218.06 115.503 227.888 123.295 227.786C133.531 227.735 141.628 210.777 141.424 190ZM33.6162 250.244C14.5703 237.564 10.5981 204.921 13.1444 185.162C15.7415 165.607 24.2969 151.603 35.7041 146.103C33.9217 147.07 24.3988 153.283 19.51 174.162C14.1119 197.18 14.8249 230.74 33.6162 250.244Z" fill="black"/>
<path d="M42.9847 106.026L42.8828 103.785C42.8828 103.785 50.9799 101.493 56.0214 103.836C56.0214 105.007 56.0214 106.026 56.0214 106.026H42.9847Z" fill="black"/>
<path d="M147.076 126.293C147.076 122.066 143.664 118.705 139.488 118.705C143.664 118.705 147.076 115.293 147.076 111.066C147.076 115.293 150.437 118.705 154.664 118.705C150.437 118.705 147.076 122.066 147.076 126.293Z" fill="black"/>
<path d="M159.603 169.937C159.603 165.761 156.191 162.35 152.016 162.35C156.191 162.35 159.603 158.988 159.603 154.762C159.603 158.988 163.015 162.35 167.191 162.35C163.015 162.35 159.603 165.761 159.603 169.937Z" fill="black"/>
<path d="M164.899 145.899C164.899 140.501 160.519 136.172 155.172 136.172C160.519 136.172 164.899 131.793 164.899 126.395C164.899 131.793 169.278 136.172 174.676 136.172C169.278 136.172 164.899 140.501 164.899 145.899Z" fill="black"/>
<path d="M181.402 120.488C181.402 117.483 178.958 115.039 175.902 115.039C178.958 115.039 181.402 112.594 181.402 109.59C181.402 112.594 183.847 115.039 186.851 115.039C183.847 115.039 181.402 117.483 181.402 120.488Z" fill="black"/>
<path d="M193.316 142.792C193.316 139.788 190.872 137.344 187.867 137.344C190.872 137.344 193.316 134.899 193.316 131.895C193.316 134.899 195.761 137.344 198.816 137.344C195.761 137.344 193.316 139.788 193.316 142.792Z" fill="black"/>
<path d="M114.536 166.83C113.262 168.46 110.716 173.552 110.716 173.552L96.4062 173.603C97.4247 171.821 98.4942 168.867 99.971 166.321C100.005 166.253 100.039 166.185 100.073 166.117V166.423C100.073 166.423 102.008 165.455 105.063 165.557C108.17 165.659 110.411 165.812 110.003 164.284C109.647 163.011 105.216 160.872 101.499 163.316C102.11 161.941 102.619 160.566 103.077 159.293C103.841 159.039 105.42 158.58 107.559 158.631C110.665 158.682 112.906 158.784 112.499 157.307C112.091 155.983 107.712 153.946 103.943 156.391C104.554 154.15 104.758 152.673 104.758 152.673L104.3 150.178C104.3 150.178 104.452 142.692 111.225 151.043C115.198 149.057 116.114 143.965 116.114 143.965C116.114 143.965 119.781 151.349 120.545 155.117C121.461 159.344 115.248 165.964 114.536 166.83Z" fill="#FF3F3E"/>
<path d="M95.3906 227.074L95.8998 230.282H77.6687L77.4141 228.245L95.3906 227.074Z" fill="black"/>
<path d="M65.4453 23.1186C65.4453 23.1186 69.5702 36.1554 68.348 47.4098C70.4869 45.882 70.9961 40.8914 70.7415 37.8359C70.5378 34.8313 69.9267 28.3129 68.4499 22.2529C66.2601 20.114 65.4453 23.1186 65.4453 23.1186Z" fill="black"/>
<path d="M179.72 54.8477C179.873 52.0468 179.924 49.5515 180.229 46.7506C180.535 44.2044 180.993 41.5054 182.928 38.2462C179.414 39.6721 176.664 42.9822 173.762 45.4775C170.604 48.1256 167.142 50.57 163.22 51.945C158.535 53.6764 154.461 52.8107 149.725 52.3015C156.6 50.9774 163.068 50.8246 168.72 46.3942C171.623 44.1025 174.577 40.0795 177.581 37.9406C180.586 35.8527 183.539 34.987 187.053 34.6814C186.391 32.1352 176.002 31.9315 173.813 31.9824C166.989 32.0333 161.183 35.2925 155.531 39.1119C135.925 52.4542 110.258 28.7741 94.4716 25.5149C82.4024 23.0705 76.9535 23.6816 75.7313 24.6492C75.6294 24.7001 76.0368 26.5334 75.9859 26.5844C76.0877 26.5334 77.6155 26.6353 78.7358 26.7371C80.5691 26.839 90.7032 25.9733 97.9854 32.8481C104.046 33.8157 108.272 34.987 115.86 42.3202C123.397 49.6024 132.156 64.4725 141.017 69.1067C146.873 72.1622 154.003 72.4168 160.267 70.4307C166.581 68.4447 172.081 64.3197 176.359 59.2782C177.53 57.8523 178.651 56.3754 179.72 54.8477Z" fill="#FF3F3E"/>
<path d="M179.718 54.8449C179.107 55.456 177.529 57.8495 176.357 59.2754C172.08 64.3169 166.58 68.4418 160.265 70.4279C154.001 72.414 146.872 72.1594 141.016 69.1039C132.155 64.4697 126.909 52.706 119.423 46.1367C119.678 46.5441 123.396 57.8495 125.789 62.3818C128.182 66.965 131.289 73.1269 129.557 79.6963C127.52 87.3859 118.965 92.5803 118.965 92.5803C118.66 95.0247 124.312 96.0432 125.891 96.858C129.15 98.5894 132.46 100.321 136.025 101.034C139.641 101.747 143.664 101.288 146.515 98.9968C148.247 97.5709 149.571 95.5339 151.608 94.6682C153.543 93.9043 155.682 94.2608 157.719 94.2099C163.83 94.0571 169.228 89.8303 172.538 84.6869C175.288 80.3583 177.376 74.8075 178.191 69.7659C178.547 67.678 178.293 65.59 178.751 63.4512C179.566 59.9883 179.769 56.2199 179.718 54.8449Z" fill="black"/>
<path d="M94.9806 214.293L95.8972 230.283L92.9436 229.469L92.1797 217.705" fill="black"/>
<path d="M98.5456 211.285C98.5456 211.285 100.99 233.641 115.402 240.312C106.541 239.956 97.629 228.294 98.5456 211.285Z" fill="black"/>
<path d="M120.288 187.506L116.367 167.391L118.353 164.539L122.886 185.673" fill="black"/>
<path d="M115.043 96.9609L121.154 140.909L117.589 142.03L110.867 100.729L115.043 96.9609Z" fill="black"/>
</svg>
