<svg width="257" height="132" viewBox="0 0 257 132" fill="none" xmlns="http://www.w3.org/2000/svg">
<path d="M84.6186 72.7052C81.9677 44.0503 107.972 14.7643 136.879 14.7643C138.983 14.7643 141.045 14.8485 143.064 15.0168V0.5H58.1097C52.9341 0.5 48.7684 4.66567 48.7684 9.84122C48.7684 15.0168 52.9341 19.3087 58.1097 19.3087H66.0623C71.2379 19.3087 75.5298 23.4743 75.5298 28.6499C75.5298 33.8254 71.2379 37.9911 66.0623 37.9911H33.2418C28.0663 37.9911 23.9006 42.1568 23.9006 47.3324C23.9006 52.5079 28.0663 56.7998 33.2418 56.7998H54.4489C59.6245 56.7998 63.9164 60.9655 63.9164 66.141C63.9164 71.3166 59.6245 75.4822 54.4489 75.4822H47.1274C41.9519 75.4822 37.66 79.6479 37.66 84.8235C37.66 89.999 41.9519 94.1647 47.1274 94.1647H61.1392C66.3148 94.1647 70.6067 98.4566 70.6067 103.632C70.6067 108.808 66.3148 112.973 61.1392 112.973H10.1412C4.9657 112.973 0.799988 117.139 0.799988 122.315C0.799988 127.49 4.9657 131.656 10.1412 131.656H122.993V121.936C101.912 114.867 87.017 96.8156 84.6186 72.7052Z" fill="#024E7F"/>
<path fill-rule="evenodd" clip-rule="evenodd" d="M256.8 70.6855C256.8 78.4278 255.117 85.9597 251.751 93.2812C248.469 100.603 244.008 107.125 238.37 112.847C232.732 118.57 226.252 123.156 218.93 126.607C211.609 130.141 203.866 131.908 195.703 131.908C189.476 131.908 183.922 130.73 179.041 128.374C176.263 126.985 173.739 125.218 171.467 123.325V68.1609H161.242C162.504 65.0471 163.977 62.0596 165.66 59.1983C168.437 54.6539 171.719 50.4883 175.506 46.7013C179.293 42.8302 183.459 39.4639 188.003 36.6027C192.547 33.8255 197.386 31.6375 202.52 30.0386C207.653 28.4396 212.913 27.6401 218.299 27.6401C224.442 27.6401 229.954 28.8604 234.835 31.3009C239.632 33.7414 243.63 36.9393 246.828 40.8946C250.11 44.8499 252.592 49.4363 254.275 54.6539C255.958 59.7874 256.8 65.1313 256.8 70.6855ZM232.437 72.2003C232.437 69.0865 232.058 66.0991 231.301 63.2378C230.544 60.4607 229.407 57.9781 227.893 55.79C226.294 53.6861 224.316 52.003 221.96 50.7407C219.519 49.4784 216.658 48.8472 213.376 48.8472C208.495 48.8472 204.035 50.0254 199.995 52.3818C196.04 54.7381 192.674 57.7256 189.897 61.3443C187.119 65.0471 184.974 69.1707 183.459 73.7151C182.028 78.2595 181.313 82.6776 181.313 86.9695C181.313 90.1674 181.692 93.197 182.449 96.0583C183.206 98.9196 184.342 101.444 185.857 103.632C187.456 105.736 189.434 107.461 191.79 108.808C194.231 110.07 197.092 110.701 200.374 110.701C205.423 110.701 209.926 109.523 213.881 107.167C217.836 104.726 221.16 101.655 223.853 97.9518C226.63 94.249 228.776 90.1253 230.291 85.581C231.722 81.0366 232.437 76.5763 232.437 72.2003Z" fill="#F6931E"/>
<g style="mix-blend-mode:multiply" opacity="0.5">
<path d="M182.449 96.0581C181.692 93.1968 181.313 90.1672 181.313 86.9693C181.313 82.6774 182.028 78.2593 183.459 73.7149C183.543 73.6307 183.585 73.5466 183.585 73.4624H171.467V123.324C173.739 125.218 176.264 126.985 179.041 128.374C181.313 129.384 183.669 130.183 186.11 130.772V103.885C186.025 103.8 185.941 103.716 185.857 103.632C184.342 101.444 183.206 98.9194 182.449 96.0581Z" fill="#662D91"/>
</g>
<path d="M135.743 84.8235H159.222L158.338 89.1154C147.398 99.8031 136.542 105.147 125.77 105.147C121.899 105.147 118.449 104.39 115.419 102.875C112.474 101.444 109.949 99.3823 107.845 96.6894C105.741 93.9964 104.143 90.8406 103.049 87.2219C101.955 83.6032 101.408 79.6479 101.408 75.356C101.408 68.9602 102.501 62.859 104.69 57.0523C106.793 51.1614 109.697 46.028 113.4 41.6519C117.018 37.1917 121.226 33.6572 126.023 31.0483C130.82 28.4395 135.911 27.1351 141.297 27.1351C147.104 27.1351 152.237 28.7341 156.697 31.9319C161.074 35.1298 164.061 39.6742 165.66 45.5651C171.088 39.001 179.419 30.7958 190.528 26.1252C187.835 18.6354 183.08 12.6183 176.264 8.07397C168.69 3.02466 159.264 0.5 147.987 0.5C138.057 0.5 128.421 2.56179 119.08 6.6854C109.823 10.809 101.576 16.4474 94.3385 23.6006C87.1012 30.6696 81.3365 38.9589 77.0446 48.4684C72.7527 58.0621 70.6067 68.2028 70.6067 78.8905C70.6067 86.8011 71.7428 93.9964 74.015 100.476C76.2872 106.956 79.5272 112.511 83.7349 117.139C87.9427 121.768 92.9078 125.344 98.6304 127.869C104.353 130.393 110.665 131.656 117.565 131.656C123.793 131.656 129.642 130.562 135.112 128.374C140.666 126.102 146.346 122.651 152.153 118.023L149.502 130.772H174.244L188.634 63.2377H140.287L135.743 84.8235Z" fill="#024E7F"/>
<path d="M42.5831 9.84122C42.5831 4.66567 38.4174 0.5 33.2418 0.5C28.0663 0.5 23.9006 4.66567 23.9006 9.84122C23.9006 15.0168 28.0663 19.3087 33.2418 19.3087C38.4174 19.3087 42.5831 15.0168 42.5831 9.84122Z" fill="#024E7F"/>
</svg>
