<svg width="196" height="256" viewBox="0 0 196 256" fill="none" xmlns="http://www.w3.org/2000/svg">
<path d="M98.2499 256C44.5236 256 0.78125 212.258 0.78125 158.531V97.4686C0.78125 43.7423 44.5236 0 98.2499 0C151.976 0 195.719 43.7423 195.719 97.4686V158.531C195.719 212.258 151.976 256 98.2499 256Z" fill="url(#paint0_linear_17_4399)"/>
<mask id="mask0_17_4399" style="mask-type:luminance" maskUnits="userSpaceOnUse" x="7" y="6" width="183" height="244">
<path d="M98.2478 249.284C48.1234 249.284 7.49219 208.653 7.49219 158.528V97.4767C7.49219 47.3578 48.1234 6.72656 98.2478 6.72656C148.367 6.72656 189.003 47.3578 189.003 97.4767V158.528C189.003 208.653 148.367 249.284 98.2478 249.284Z" fill="white"/>
</mask>
<g mask="url(#mask0_17_4399)">
<path d="M98.2508 249.267C48.1099 249.267 7.51172 208.669 7.51172 158.528V97.4656C7.51172 47.3247 48.1099 6.72656 98.2508 6.72656C148.392 6.72656 188.99 47.3247 188.99 97.4656V158.528C188.99 208.669 148.392 249.267 98.2508 249.267Z" fill="url(#paint1_linear_17_4399)"/>
<g style="mix-blend-mode:screen">
<path d="M25.3288 44.569C33.2168 43.4106 41.1599 40.1561 48.9927 41.7006C53.8468 42.6935 58.0942 45.3964 62.7277 47.0512C81.9235 54.0014 103.602 42.2522 123.294 47.3822C128.7 48.7612 133.719 51.3537 138.959 53.3947C152.474 58.5246 167.147 59.4623 181.543 60.2346C196.106 61.0068 210.687 61.6136 225.286 62.0549C211.992 60.1794 198.809 64.9784 185.405 65.53C179.944 65.7506 174.483 65.2542 169.077 64.7577C153.338 63.2868 137.599 61.8342 121.86 60.4001C109.78 59.2968 97.5891 58.1936 85.5641 59.7933C79.1103 60.6207 72.7117 62.2755 66.1476 62.3858C55.8326 62.6065 45.8485 59.021 35.5887 58.4694C22.1847 57.7524 9.00131 62.1652 -4.4027 62.441C-7.21588 62.4962 -10.1945 62.3307 -12.6768 61.0068C-15.2142 59.683 -17.1999 56.9249 -16.7586 54.1118C-16.3725 51.5744 -14.2213 49.7541 -12.1803 48.1544C-8.04329 45.0103 1.44432 36.3501 6.68457 39.1633C9.66324 40.7629 11.3732 43.0797 14.9035 44.0725C18.2683 44.9551 21.9089 45.0654 25.3288 44.569Z" fill="#6B4535"/>
</g>
<g style="mix-blend-mode:screen">
<path d="M166.21 21.7321C161.08 22.394 156.115 24.1592 150.986 23.8834C146.021 23.5524 141.443 21.2357 136.589 19.967C131.9 18.6983 126.991 18.4225 122.137 18.2018C117.779 18.0363 113.366 17.8709 109.119 18.7534C103.272 20.0221 98.0315 23.1663 92.3499 24.9314C81.7039 28.1859 70.2306 26.3104 59.2536 24.4901C53.6824 23.5524 48.0009 22.6698 42.4297 23.4421C37.2997 24.1592 32.5008 26.2553 27.426 27.0827C15.9526 28.9581 4.25858 24.2695 -7.38029 25.2624C-10.9106 25.5933 -14.3857 26.4207 -17.6953 27.7446C-2.80197 30.0613 12.3672 32.4332 27.2054 29.8407C30.184 29.3442 33.1627 28.6272 36.1414 28.8478C41.9884 29.2891 46.8425 33.2055 52.2482 35.4119C59.033 38.2803 66.9209 38.3906 73.816 35.798C78.3943 34.0329 82.5865 31.1645 87.4406 30.4475C93.8393 29.4546 100.403 32.4332 106.637 30.9991C111.491 29.8407 115.462 26.2001 120.316 24.9866C129.473 22.725 138.078 29.4546 146.683 33.2606C160.583 39.3835 179.614 39.1628 194.011 34.9155C188.66 24.4901 177.518 20.3531 166.21 21.7321Z" fill="#6B4535"/>
</g>
<g style="mix-blend-mode:screen">
<path d="M153.796 105.301C153.796 135.97 128.919 160.792 98.2498 160.792C67.5805 160.792 42.7031 135.97 42.7031 105.301C42.7031 74.6313 67.5805 49.7539 98.2498 49.7539C128.919 49.7539 153.796 74.6313 153.796 105.301Z" fill="#6B4535"/>
</g>
<g style="mix-blend-mode:screen">
<path d="M142.326 105.3C142.326 129.626 122.579 149.373 98.2529 149.373C73.9272 149.373 54.1797 129.626 54.1797 105.3C54.1797 80.9189 73.9272 61.2266 98.2529 61.2266C122.579 61.2266 142.326 80.9189 142.326 105.3Z" fill="#6B4535"/>
</g>
<path style="mix-blend-mode:screen" d="M131.953 105.301C131.953 123.89 116.839 139.004 98.25 139.004C79.6609 139.004 64.5469 123.89 64.5469 105.301C64.5469 86.7116 79.6609 71.5977 98.25 71.5977C116.839 71.5977 131.953 86.7116 131.953 105.301Z" fill="url(#paint2_linear_17_4399)"/>
<path d="M239.681 232.72L-39.5967 209.388L-113.953 213.249L-99.9424 179.104C-99.9424 179.104 21.8521 104.638 50.3149 107.23C78.7777 109.878 239.681 232.72 239.681 232.72Z" fill="url(#paint3_linear_17_4399)"/>
<path d="M41.3237 121.296C43.0889 130.122 48.4395 136.3 36.8558 144.795C25.2169 153.344 5.30392 151.524 2.5459 162.556C-0.156969 173.643 13.9641 186.11 -33.3636 206.685C-33.3636 206.685 -35.7355 207.733 -39.5967 209.388L-113.953 213.249L-99.9424 179.104C-99.9424 179.104 21.8521 104.638 50.3149 107.23C50.3149 107.23 39.6138 112.415 41.3237 121.296Z" fill="url(#paint4_linear_17_4399)"/>
<path d="M297.106 185.668L174.153 231.341L132.286 246.896L-18.5781 190.191C-13.2276 189.364 131.845 111.367 146.242 112.58C146.72 112.617 147.345 112.728 148.117 112.911C169.795 117.821 297.106 185.668 297.106 185.668Z" fill="url(#paint5_linear_17_4399)"/>
<path d="M297.102 185.666L174.149 231.339C134.93 209.55 151.534 178.164 161.573 166.911C174.26 152.68 153.63 148.819 146.238 140.324C138.847 131.829 146.238 112.578 146.238 112.578C146.238 112.578 146.9 112.688 148.114 112.909C169.792 117.818 297.102 185.666 297.102 185.666Z" fill="url(#paint6_linear_17_4399)"/>
<path d="M-22.9369 178.828C-22.9369 178.828 36.0849 167.52 107.794 191.57C107.794 191.57 96.596 221.687 95.1618 222.405C93.7276 223.122 -50.0759 213.689 -48.6417 212.586C-47.2075 211.483 -22.9369 178.828 -22.9369 178.828Z" fill="url(#paint7_linear_17_4399)"/>
<path d="M4.80859 177.176C4.80859 177.176 18.3229 188.263 41.2697 188.042C64.2165 187.767 73.6489 188.484 87.1081 196.316C100.622 204.094 8.83531 208.341 8.61467 207.68C8.39402 206.962 4.80859 177.176 4.80859 177.176Z" fill="url(#paint8_linear_17_4399)"/>
<path d="M252.258 209.609C252.258 209.609 245.418 252.138 243.597 252.855C241.777 253.572 -61.1094 251.421 -61.1094 249.6C-61.1094 247.78 -20.0699 171.383 -20.0699 171.383C-20.0699 171.383 -16.981 175.906 -9.14817 180.981C3.59391 189.089 28.8574 198.577 73.8684 192.509C107.682 187.986 136.034 185.89 162.511 187.545C193.015 189.42 221.037 196.205 252.258 209.609Z" fill="url(#paint9_linear_17_4399)"/>
<path d="M165.105 188.096C165.105 188.096 151.867 189.365 113.365 202.272C74.9179 215.235 47.7789 200.066 28.8588 228.474C9.93878 256.826 -25.9707 188.427 -22.2198 185.283C-21.3372 184.511 -16.3176 182.911 -9.14678 180.98C3.5953 189.089 28.8588 198.577 73.8698 192.509C107.683 187.986 136.036 185.89 162.513 187.545C164.168 187.931 165.105 188.096 165.105 188.096Z" fill="url(#paint10_linear_17_4399)"/>
<path d="M-23.6536 227.979C-23.6536 227.979 -16.7034 214.851 72.8221 217.774C162.403 220.698 152.915 199.185 239.186 234.488L237.145 254.456C237.145 254.456 -37.9402 256.828 -36.6163 256.607C-33.5273 256.111 -7.43641 231.895 -23.6536 227.979Z" fill="url(#paint11_linear_17_4399)"/>
<path d="M61.1293 234.982C70.5618 235.809 80.5458 232.72 89.3163 236.361C95.4943 238.953 99.9072 244.58 105.534 248.22C110.829 251.695 117.117 253.405 122.137 257.267C122.633 257.598 123.13 258.039 123.24 258.646C123.681 260.08 121.916 261.128 120.482 261.569C110.663 264.493 100.238 264.272 90.0334 264.382C76.8501 264.493 63.6667 265.155 50.5937 263.831C46.4015 263.445 42.1541 262.783 38.2928 261.018C36.8587 260.411 35.4797 259.583 34.3765 258.425C33.0526 256.991 32.2804 255.06 31.5081 253.185C30.5152 250.592 29.4672 247.834 29.9085 245.076C30.2946 242.263 32.2252 239.891 33.7145 237.354C36.1968 233.162 37.0242 224.722 43.7538 228.307C49.5456 231.396 54.3446 234.43 61.1293 234.982Z" fill="url(#paint12_linear_17_4399)"/>
</g>
<defs>
<linearGradient id="paint0_linear_17_4399" x1="266.317" y1="15.9408" x2="266.317" y2="265.366" gradientUnits="userSpaceOnUse">
<stop stop-color="#88390A"/>
<stop offset="1" stop-color="#4C1E0A"/>
</linearGradient>
<linearGradient id="paint1_linear_17_4399" x1="-63.823" y1="129.455" x2="-63.823" y2="7.72497" gradientUnits="userSpaceOnUse">
<stop stop-color="#FFD67F"/>
<stop offset="0.571" stop-color="#FFBF0B"/>
<stop offset="1" stop-color="#FF9A0B"/>
</linearGradient>
<linearGradient id="paint2_linear_17_4399" x1="131.938" y1="75.0468" x2="131.938" y2="127.06" gradientUnits="userSpaceOnUse">
<stop stop-color="white"/>
<stop offset="0.552" stop-color="#ECDABA"/>
<stop offset="1" stop-color="#F8B248"/>
</linearGradient>
<linearGradient id="paint3_linear_17_4399" x1="88.6112" y1="85.4071" x2="86.5185" y2="173.998" gradientUnits="userSpaceOnUse">
<stop stop-color="#FF9508"/>
<stop offset="0.43" stop-color="#C25808"/>
<stop offset="1" stop-color="#4C1E0A"/>
</linearGradient>
<linearGradient id="paint4_linear_17_4399" x1="21.0197" y1="110.979" x2="7.05456" y2="187.788" gradientUnits="userSpaceOnUse">
<stop stop-color="#FF9508"/>
<stop offset="0.43" stop-color="#C25808"/>
<stop offset="1" stop-color="#4C1E0A"/>
</linearGradient>
<linearGradient id="paint5_linear_17_4399" x1="167.968" y1="118.662" x2="170.018" y2="206.011" gradientUnits="userSpaceOnUse">
<stop stop-color="#FF9508"/>
<stop offset="0.43" stop-color="#C25808"/>
<stop offset="1" stop-color="#4C1E0A"/>
</linearGradient>
<linearGradient id="paint6_linear_17_4399" x1="171.843" y1="6.96833" x2="268.069" y2="115.162" gradientUnits="userSpaceOnUse">
<stop stop-color="#FF9508"/>
<stop offset="0.43" stop-color="#C25808"/>
<stop offset="1" stop-color="#4C1E0A"/>
</linearGradient>
<linearGradient id="paint7_linear_17_4399" x1="36.2619" y1="175.406" x2="43.4312" y2="210.356" gradientUnits="userSpaceOnUse">
<stop stop-color="#FF9508"/>
<stop offset="0.43" stop-color="#C25808"/>
<stop offset="1" stop-color="#4C1E0A"/>
</linearGradient>
<linearGradient id="paint8_linear_17_4399" x1="65.5905" y1="156.572" x2="56.0846" y2="193.011" gradientUnits="userSpaceOnUse">
<stop stop-color="#FF9508"/>
<stop offset="0.43" stop-color="#C25808"/>
<stop offset="1" stop-color="#4C1E0A"/>
</linearGradient>
<linearGradient id="paint9_linear_17_4399" x1="106.73" y1="180.749" x2="106.459" y2="217.624" gradientUnits="userSpaceOnUse">
<stop stop-color="#FF9508"/>
<stop offset="0.43" stop-color="#C25808"/>
<stop offset="1" stop-color="#4C1E0A"/>
</linearGradient>
<linearGradient id="paint10_linear_17_4399" x1="82.0556" y1="173.387" x2="78.9183" y2="241.065" gradientUnits="userSpaceOnUse">
<stop stop-color="#FF9508"/>
<stop offset="0.43" stop-color="#C25808"/>
<stop offset="1" stop-color="#4C1E0A"/>
</linearGradient>
<linearGradient id="paint11_linear_17_4399" x1="104.088" y1="207.278" x2="108.293" y2="262.41" gradientUnits="userSpaceOnUse">
<stop stop-color="#FF9508"/>
<stop offset="0.43" stop-color="#C25808"/>
<stop offset="1" stop-color="#4C1E0A"/>
</linearGradient>
<linearGradient id="paint12_linear_17_4399" x1="26.7946" y1="190.105" x2="106.032" y2="241.874" gradientUnits="userSpaceOnUse">
<stop stop-color="#FF9508"/>
<stop offset="0.43" stop-color="#C25808"/>
<stop offset="1" stop-color="#4C1E0A"/>
</linearGradient>
</defs>
</svg>
