<svg width="257" height="167" viewBox="0 0 257 167" fill="none" xmlns="http://www.w3.org/2000/svg">
<path d="M0.0820312 114.399C26.9117 77.2751 133.485 143.604 157.567 118.731C188.961 86.3581 138.888 53.2868 114.015 76.8559C152.117 29.5779 207.174 77.2285 191.104 118.87C214.952 110.253 230.929 97.5371 256.082 112.536C209.642 115.703 197.113 140.856 159.663 146.725C115.832 156.274 49.1301 104.105 0.0820312 114.399Z" fill="url(#paint0_linear_17_4765)"/>
<path style="mix-blend-mode:overlay" d="M78.1484 111.558C95.0102 125.252 116.483 133.45 139.866 133.45C158.917 133.45 176.664 128 191.662 118.638C191.476 118.7 191.29 118.777 191.103 118.87C207.173 77.2285 152.116 29.5779 114.015 76.8559C138.888 53.2868 188.961 86.3581 157.566 118.731C145.316 131.4 111.732 120.454 78.1484 111.558Z" fill="url(#paint1_linear_17_4765)"/>
<path style="mix-blend-mode:overlay" d="M181.509 72.0572C165.393 54.2173 136.7 48.7209 114.016 76.8549C130.924 60.8781 159.384 70.9859 166.138 89.245C171.914 84.1678 177.037 78.392 181.509 72.0572Z" fill="url(#paint2_linear_17_4765)"/>
<path d="M256.082 119.662C208.059 119.615 197.113 147.982 159.663 153.804C115.832 163.4 41.165 105.595 0.0820312 121.525C50.7603 116.028 115.832 174.579 159.663 165.03C197.113 159.207 213.648 125.996 256.082 119.662Z" fill="url(#paint3_linear_17_4765)"/>
<path style="mix-blend-mode:overlay" d="M230.137 122.922C202.282 130.561 189.24 149.193 159.662 153.804C133.718 159.487 96.9666 141.554 62.7773 129.257C65.1063 132.797 67.6682 136.197 70.4629 139.411C102.696 153.757 134.649 170.479 159.662 165.03C186.772 160.791 202.935 142.252 225.898 129.909C227.435 127.626 228.833 125.297 230.137 122.922Z" fill="url(#paint4_linear_17_4765)"/>
<path fill-rule="evenodd" clip-rule="evenodd" d="M206.058 105.409C205.452 107.272 204.148 108.809 202.332 109.601H202.285C200.282 110.439 198.139 108.902 198.279 106.759C199.024 95.7666 195.904 84.4013 189.243 74.7128C179.834 60.9719 165.115 52.7739 149.93 52.7739C139.822 52.7739 124.824 56.4071 110.663 73.8744C109.173 75.7375 109.313 78.7652 111.176 80.2557C111.968 80.9544 112.992 81.2805 114.017 81.2805C115.089 81.2805 116.206 80.9078 117.045 80.0694C122.96 74.5265 129.761 73.3154 134.466 73.3154C146.11 73.3154 157.522 80.3023 161.621 89.8977C165.115 98.2354 162.646 107.132 154.355 115.656C154.138 115.904 153.889 116.137 153.61 116.355C150.209 119.196 145.225 119.243 141.499 116.821C126.314 107.039 102.605 91.7608 96.3636 46.8118C98.7392 47.7899 101.068 48.7681 103.397 49.7929C103.77 49.3271 104.096 48.8613 104.515 48.5352C104.422 49.0476 104.422 49.6997 104.375 50.2121C105.897 50.8952 107.403 51.5939 108.893 52.3081C109.546 51.5163 110.105 50.7244 110.99 50.0723C111.129 51.1437 110.663 52.0752 110.384 53.0068C112.216 53.8763 114.017 54.7768 115.787 55.7084C116.206 55.1961 116.532 54.5905 116.952 54.2645C116.952 54.9166 116.812 55.5687 116.765 56.2208C118.039 56.8729 119.281 57.5406 120.492 58.2237C118.861 52.9603 114.902 48.3955 109.872 46.0665C106.844 44.6691 103.49 44.0636 100.137 44.2499C101.037 43.9083 101.953 43.5667 102.885 43.2252C102.698 42.2936 102.233 41.2688 102.372 40.2907C103.118 41.0825 103.677 41.8744 104.608 42.6196C106.192 42.0607 107.776 41.5483 109.359 41.0825C109.359 40.6633 109.406 40.2441 109.266 39.7783C109.918 39.7783 110.105 40.4304 110.431 40.7565C111.176 40.5701 111.906 40.3838 112.62 40.1975C113.148 40.0422 113.676 39.918 114.204 39.8249C114.343 38.8001 114.11 37.7288 114.483 36.7041C115.182 37.4027 115.228 38.5207 115.741 39.4988C117.138 39.2504 118.52 39.0641 119.886 38.9399C120.026 38.3343 119.793 37.6357 120.259 37.0767C120.445 37.6822 120.818 38.2412 120.958 38.8933C124.451 38.707 127.944 39.033 131.345 40.1044C128.457 35.5862 123.659 32.3256 118.442 31.2077C113.179 30.1364 107.543 31.2077 103.024 34.1422C100.882 35.5396 99.0186 37.3562 97.5281 39.4057C98.2734 37.9617 99.0652 36.6109 99.9036 35.2135C99.205 34.5614 98.1802 34.0956 98.0871 32.9777C99.0186 33.3503 99.9036 33.5367 100.742 33.8627C101.146 33.2417 101.549 32.6206 101.953 31.9995C102.326 31.4095 102.698 30.8195 103.071 30.2295C102.838 29.9966 102.559 29.7637 102.605 29.4377C102.978 29.4843 103.304 29.4843 103.583 29.5308C104.422 28.2887 105.307 27.0621 106.238 25.8511C105.679 25.2921 105.074 24.8263 104.655 24.0811C105.493 24.0811 106.285 24.3605 107.17 24.64C107.884 23.7084 108.614 22.7924 109.359 21.8918C109.033 21.5192 108.661 21.1931 108.661 20.6808C109.126 20.7739 109.592 21.0068 110.011 21.0534C110.663 20.246 111.3 19.4542 111.921 18.6779C104.375 18.771 99.7173 23.2892 96.4102 28.739C94.4073 32.0461 93.3825 35.9588 93.3825 39.8715L93.2428 39.8249C92.5907 38.4275 91.7988 37.0767 90.9138 35.7725C87.9793 31.8132 83.6475 28.739 78.8032 27.9006C73.959 27.0621 68.6489 28.5993 65.4349 32.3256C66.3665 32.4498 67.2981 32.6051 68.2297 32.7914C68.6489 32.279 69.2079 31.953 69.5805 31.4872C69.4408 32.0461 69.3476 32.5119 69.2079 32.9777C70.3568 33.2261 71.4903 33.5211 72.6082 33.8627C73.4466 32.9311 74.0521 31.7201 75.2166 31.1145C74.8905 32.2324 74.7974 33.3504 74.7042 34.4683C75.6669 34.7788 76.614 35.1359 77.5456 35.5396C77.8716 35.3533 78.1977 35.2135 78.384 34.7943C78.384 35.1204 78.4306 35.493 78.4306 35.9122C79.4864 36.347 80.5111 36.8128 81.5048 37.3096C82.2967 36.4712 82.9488 35.5396 83.7872 34.9806C83.9269 36.1451 83.4611 37.1699 83.0419 38.148C84.0046 38.6759 84.9206 39.2349 85.7901 39.8249C86.023 39.5454 86.1162 38.8933 86.7683 39.2193C86.3491 39.4522 86.6285 39.9646 86.582 40.2907C87.5135 40.9428 88.4296 41.6259 89.3301 42.3402C85.5572 40.6167 81.3651 39.8715 77.2661 40.2907C70.4655 41.0359 64.1307 44.9952 60.5441 50.771C62.6557 50.2431 64.7518 49.7773 66.8323 49.3736C66.8789 49.001 66.8789 48.5352 66.8323 48.2092C67.4844 48.3955 67.4844 48.9078 67.7173 49.2339C69.3631 48.9234 71.0089 48.6594 72.6547 48.4421C72.7479 47.2776 72.7013 46.0665 72.8876 44.9952C73.3534 46.0665 73.8658 47.1378 74.2384 48.2092C76.0395 47.9918 77.8406 47.7899 79.6416 47.6036C79.7348 46.9981 79.7348 46.2994 80.2006 45.9733C80.2006 46.5789 80.5266 46.9981 80.713 47.5105C82.4519 47.3863 84.1754 47.2776 85.8833 47.1844C86.0696 46.1597 85.9764 45.1349 86.5354 44.0636C86.8614 44.9952 87.5601 45.9268 87.7464 47.0913C88.1191 47.0913 88.4917 47.0913 88.8643 47.0913C87.3738 48.116 86.0696 49.3736 84.9051 50.7244C82.1103 53.9384 79.8745 57.8511 79.6882 62.0898C79.5019 65.2106 80.4801 68.378 82.3898 70.8933C82.7624 69.8996 83.1506 68.9059 83.5543 67.9122C82.8556 67.3067 82.0172 66.7943 81.5048 66.0025C82.483 66.049 83.3214 66.049 84.253 66.1888C84.7809 64.9467 85.3088 63.689 85.8367 62.4159C85.6038 62.0432 85.2777 61.6706 85.138 61.298C85.464 61.3445 85.7901 61.3911 86.0696 61.4843C86.8148 60.2732 86.7683 60.3664 87.5135 59.1087C86.6751 58.1771 85.8367 57.0592 85.0448 55.9413C86.3025 55.9879 87.0943 56.8729 88.1656 57.2921C88.6625 56.1742 89.1749 55.0563 89.7028 53.9384C89.3767 53.4726 89.0972 52.9137 88.9109 52.3547C89.2836 52.541 89.6562 52.7739 90.1686 52.9602C90.5412 52.1839 90.9138 51.4231 91.2865 50.6779C91.7057 67.0272 96.0841 82.5847 102.139 95.1145C106.145 103.359 98.646 112.489 89.7959 110.067C89.7028 110.035 89.6096 110.004 89.5165 109.973C78.4772 106.992 67.205 103.918 56.4451 101.729C51.5077 100.704 47.8279 96.6982 47.1758 91.7143C46.7722 88.3916 46.5703 85.0068 46.5703 81.56C46.5703 35.5862 84.579 -1.49099 130.879 0.0461281C172.008 1.44351 206.058 33.8627 209.365 74.8525C210.204 85.5658 208.992 95.8598 206.058 105.409ZM176.713 32.1393C176.713 32.1393 169.679 34.2354 166.372 33.7696C163.065 33.2572 159.618 33.7696 157.383 34.7477C156.591 35.0738 155.845 35.0738 155.24 34.8875C155.333 34.1422 155.286 33.6764 154.541 33.9559C154.495 33.9093 153.936 34.1888 153.936 34.1888C153.936 34.1888 153.237 31.3009 148.905 30.5556C144.62 29.8103 138.937 22.4508 138.937 22.4508C138.937 22.4508 144.62 34.9806 151.001 35.493C151.281 35.493 151.56 35.493 151.793 35.5396C150.815 35.9122 149.417 36.2849 147.741 36.3314C147.741 36.3314 148.719 40.3838 150.256 40.7099C151.793 40.9894 156.684 39.6386 156.684 39.6386C156.684 39.6386 155.519 37.9151 155.193 36.4712C156.218 36.8904 157.615 37.1699 159.246 37.3096C162.925 37.6822 176.713 32.1393 176.713 32.1393Z" fill="url(#paint5_linear_17_4765)"/>
<path style="mix-blend-mode:overlay" fill-rule="evenodd" clip-rule="evenodd" d="M196.742 37.6822C194.227 48.675 189.895 58.969 184.026 68.2383C174.85 58.41 162.553 52.7739 149.93 52.7739C139.822 52.7739 124.824 56.4071 110.663 73.8744C109.173 75.7375 109.313 78.7652 111.176 80.2557C111.968 80.9544 112.992 81.2805 114.017 81.2805C115.089 81.2805 116.206 80.9078 117.045 80.0694C122.96 74.5265 129.761 73.3154 134.466 73.3154C146.11 73.3154 157.522 80.3023 161.621 89.8977C161.947 90.6895 162.227 91.5279 162.46 92.3664C153.097 99.8656 142.337 105.688 130.599 109.368C116.812 98.934 101.254 81.9326 96.3636 46.8118C98.7392 47.7899 101.068 48.7681 103.397 49.7929C103.77 49.3271 104.096 48.8613 104.515 48.5352C104.422 49.0476 104.422 49.6997 104.375 50.2121C105.897 50.8952 107.403 51.5939 108.893 52.3081C109.546 51.5163 110.105 50.7244 110.99 50.0723C111.129 51.1437 110.663 52.0752 110.384 53.0068C112.216 53.8763 114.017 54.7768 115.787 55.7084C116.206 55.1961 116.532 54.5905 116.952 54.2645C116.952 54.9166 116.812 55.5687 116.765 56.2208C118.039 56.8729 119.281 57.5406 120.492 58.2237C118.861 52.9603 114.902 48.3955 109.872 46.0665C106.844 44.6691 103.49 44.0636 100.137 44.2499C101.037 43.9083 101.953 43.5667 102.885 43.2252C102.698 42.2936 102.233 41.2688 102.372 40.2907C103.118 41.0825 103.677 41.8744 104.608 42.6196C106.192 42.0607 107.776 41.5483 109.359 41.0825C109.359 40.6633 109.406 40.2441 109.266 39.7783C109.918 39.7783 110.105 40.4304 110.431 40.7565C111.176 40.5701 111.906 40.3838 112.62 40.1975C113.148 40.0422 113.676 39.918 114.204 39.8249C114.343 38.8001 114.11 37.7288 114.483 36.7041C115.182 37.4027 115.228 38.5207 115.741 39.4988C117.138 39.2504 118.52 39.0641 119.886 38.9399C120.026 38.3343 119.793 37.6357 120.259 37.0767C120.445 37.6822 120.818 38.2412 120.958 38.8933C124.451 38.707 127.944 39.033 131.345 40.1044C128.457 35.5862 123.659 32.3256 118.442 31.2077C113.179 30.1364 107.543 31.2077 103.024 34.1422C100.882 35.5396 99.0186 37.3562 97.5281 39.4057C98.2734 37.9617 99.0652 36.6109 99.9037 35.2135C99.205 34.5614 98.1802 34.0956 98.0871 32.9777C99.0186 33.3503 99.9036 33.5367 100.742 33.8627C101.146 33.2417 101.549 32.6206 101.953 31.9995C102.326 31.4095 102.698 30.8195 103.071 30.2295C102.838 29.9966 102.559 29.7637 102.605 29.4377C102.978 29.4843 103.304 29.4843 103.583 29.5308C104.422 28.2887 105.307 27.0621 106.238 25.8511C105.679 25.2921 105.074 24.8263 104.655 24.0811C105.493 24.0811 106.285 24.3605 107.17 24.64C107.884 23.7084 108.614 22.7924 109.359 21.8918C109.033 21.5192 108.661 21.1931 108.661 20.6808C109.126 20.7739 109.592 21.0068 110.011 21.0534C110.663 20.246 111.3 19.4542 111.921 18.6779C104.375 18.771 99.7173 23.2892 96.4102 28.739C94.4073 32.0461 93.3825 35.9588 93.3825 39.8715L93.2428 39.8249C92.5907 38.4275 91.7989 37.0767 90.9138 35.7725C87.9793 31.8132 83.6475 28.739 78.8032 27.9006C73.959 27.0621 68.6489 28.5993 65.4349 32.3256C66.3665 32.4498 67.2981 32.6051 68.2297 32.7914C68.6489 32.279 69.2079 31.953 69.5805 31.4872C69.4408 32.0461 69.3476 32.5119 69.2079 32.9777C70.3568 33.2261 71.4903 33.5211 72.6082 33.8627C73.4466 32.9311 74.0521 31.7201 75.2166 31.1145C74.8905 32.2324 74.7974 33.3504 74.7042 34.4683C75.6669 34.7788 76.614 35.1359 77.5456 35.5396C77.8716 35.3533 78.1977 35.2135 78.384 34.7943C78.384 35.1204 78.4306 35.493 78.4306 35.9122C79.4864 36.347 80.5111 36.8128 81.5048 37.3096C82.2967 36.4712 82.9488 35.5396 83.7872 34.9806C83.9269 36.1451 83.4611 37.1699 83.0419 38.148C84.0046 38.6759 84.9206 39.2349 85.7901 39.8249C86.023 39.5454 86.1162 38.8933 86.7683 39.2193C86.3491 39.4522 86.6285 39.9646 86.582 40.2907C87.5135 40.9428 88.4296 41.6259 89.3301 42.3402C85.5572 40.6167 81.3651 39.8715 77.2661 40.2907C70.4655 41.0359 64.1307 44.9952 60.5441 50.771C62.6557 50.2431 64.7518 49.7773 66.8323 49.3736C66.8789 49.001 66.8789 48.5352 66.8323 48.2092C67.4844 48.3955 67.4844 48.9078 67.7173 49.2339C69.3631 48.9234 71.0089 48.6594 72.6547 48.4421C72.7479 47.2776 72.7013 46.0665 72.8876 44.9952C73.3534 46.0665 73.8658 47.1378 74.2384 48.2092C76.0395 47.9918 77.8406 47.7899 79.6416 47.6036C79.7348 46.9981 79.7348 46.2994 80.2006 45.9733C80.2006 46.5789 80.5266 46.9981 80.713 47.5105C82.4519 47.3863 84.1754 47.2776 85.8833 47.1844C86.0696 46.1597 85.9764 45.1349 86.5354 44.0636C86.8614 44.9952 87.5601 45.9268 87.7464 47.0913C88.1191 47.0913 88.4917 47.0913 88.8643 47.0913C87.3738 48.116 86.0696 49.3736 84.9051 50.7244C82.1103 53.9384 79.8745 57.8511 79.6882 62.0898C79.5019 65.2106 80.4801 68.378 82.3898 70.8933C82.7625 69.8996 83.1506 68.9059 83.5543 67.9122C82.8556 67.3067 82.0172 66.7943 81.5048 66.0025C82.483 66.049 83.3214 66.049 84.253 66.1888C84.7809 64.9467 85.3088 63.689 85.8367 62.4159C85.6038 62.0432 85.2777 61.6706 85.138 61.298C85.4641 61.3445 85.7901 61.3911 86.0696 61.4843C86.8149 60.2732 86.7683 60.3664 87.5135 59.1087C86.6751 58.1771 85.8367 57.0592 85.0448 55.9413C86.3025 55.9879 87.0943 56.8729 88.1657 57.2921C88.6625 56.1742 89.1749 55.0563 89.7028 53.9384C89.3767 53.4726 89.0972 52.9137 88.9109 52.3547C89.2836 52.541 89.6562 52.7739 90.1686 52.9602C90.5412 52.1839 90.9138 51.4231 91.2865 50.6779C91.7057 67.0272 96.0841 82.5847 102.139 95.1145C106.145 103.359 98.646 112.489 89.7959 110.067C89.7028 110.035 89.6096 110.004 89.5165 109.973C78.4772 106.992 67.205 103.918 56.4451 101.729C51.5077 100.704 47.8279 96.6982 47.1758 91.7143C46.7722 88.3916 46.5703 85.0068 46.5703 81.56C46.5703 35.5862 84.579 -1.49099 130.879 0.0461281C158.361 0.977715 182.629 15.7434 196.742 37.6822ZM176.713 32.1393C176.713 32.1393 169.679 34.2354 166.372 33.7696C163.065 33.2572 159.618 33.7696 157.383 34.7477C156.591 35.0738 155.845 35.0738 155.24 34.8875C155.333 34.1422 155.286 33.6764 154.541 33.9559C154.495 33.9093 153.936 34.1888 153.936 34.1888C153.936 34.1888 153.237 31.3009 148.905 30.5556C144.62 29.8103 138.937 22.4508 138.937 22.4508C138.937 22.4508 144.62 34.9806 151.001 35.493C151.281 35.493 151.56 35.493 151.793 35.5396C150.815 35.9122 149.417 36.2849 147.741 36.3314C147.741 36.3314 148.719 40.3838 150.256 40.7099C151.793 40.9894 156.684 39.6386 156.684 39.6386C156.684 39.6386 155.519 37.9151 155.193 36.4712C156.218 36.8904 157.615 37.1699 159.246 37.3096C162.926 37.6822 176.713 32.1393 176.713 32.1393Z" fill="url(#paint6_linear_17_4765)"/>
<path d="M81.5039 66.0004C82.0163 66.7922 82.8547 67.3046 83.5534 67.9101C83.2118 68.7486 82.8858 69.587 82.5752 70.4254C86.255 70.2857 89.8882 69.9596 93.4748 69.4473C92.2172 63.3919 91.4253 57.1037 91.2856 50.6758C90.9129 51.4211 90.5403 52.1818 90.1677 52.9582C89.6553 52.7718 89.2827 52.539 88.91 52.3526C89.0963 52.9116 89.3758 53.4705 89.7019 53.9363C89.174 55.0542 88.6616 56.1721 88.1647 57.2901C87.0934 56.8708 86.3016 55.9858 85.0439 55.9393C85.8358 57.0572 86.6742 58.1751 87.5126 59.1066C86.7674 60.3643 86.8139 60.2711 86.0687 61.4822C85.7892 61.389 85.4631 61.3425 85.1371 61.2959C85.2768 61.6685 85.6029 62.0411 85.8358 62.4138C85.3079 63.6869 84.78 64.9446 84.2521 66.1867C83.3205 66.047 82.4821 66.047 81.5039 66.0004Z" fill="url(#paint7_linear_17_4765)"/>
<path d="M48.1055 65.6296C57.7474 68.797 68.0414 70.5204 78.7081 70.5204C79.826 70.5204 80.9439 70.4738 82.0618 70.4738C80.385 68.0051 79.4999 65.024 79.6863 62.0895C79.8726 57.8508 82.1084 53.9381 84.9031 50.7242C86.0676 49.3734 87.3718 48.1157 88.8624 47.091C88.4897 47.091 88.1171 47.091 87.7445 47.091C87.5582 45.9265 86.8595 44.9949 86.5334 44.0633C85.9745 45.1347 86.0676 46.1594 85.8813 47.1841C84.1734 47.2773 82.45 47.386 80.711 47.5102C80.5247 46.9978 80.1986 46.5786 80.1986 45.9731C79.7328 46.2991 79.7328 46.9978 79.6397 47.6034C77.8386 47.7897 76.0375 47.9915 74.2365 48.2089C73.8638 47.1376 73.3515 46.0662 72.8857 44.9949C72.6994 46.0662 72.7459 47.2773 72.6528 48.4418C71.007 48.6592 69.3612 48.9231 67.7154 49.2336C67.4825 48.9076 67.4825 48.3952 66.8304 48.2089C66.8769 48.5349 66.8769 49.0007 66.8304 49.3734C64.7498 49.7771 62.6538 50.2429 60.5422 50.7708C64.1288 44.9949 70.4636 41.0357 77.2641 40.2904C81.3631 39.8712 85.5553 40.6165 89.3282 42.3399C88.4276 41.6257 87.5116 40.9425 86.58 40.2904C86.6266 39.9643 86.3471 39.452 86.7663 39.2191C86.1142 38.893 86.0211 39.5451 85.7882 39.8246C84.9187 39.2346 84.0026 38.6757 83.04 38.1478C83.4592 37.1696 83.925 36.1448 83.7852 34.9804C82.9468 35.5393 82.2947 36.4709 81.5029 37.3093C80.5092 36.8125 79.4844 36.3467 78.4286 35.9119C78.4286 35.4927 78.382 35.1201 78.382 34.794C78.1957 35.2132 77.8697 35.353 77.5436 35.5393C76.612 35.1356 75.6649 34.7785 74.7023 34.468C74.7954 33.3501 74.8886 32.2322 75.2146 31.1143C74.0502 31.7198 73.4446 32.9309 72.6062 33.8624C71.4883 33.5209 70.3549 33.2259 69.2059 32.9774C69.3457 32.5116 69.4388 32.0459 69.5785 31.4869C69.2059 31.9527 68.647 32.2788 68.2277 32.7911C67.2962 32.6048 66.3646 32.4495 65.433 32.3253C68.647 28.599 73.957 27.0619 78.8013 27.9003C83.6455 28.7387 87.9774 31.813 90.9119 35.7722C91.7969 37.0764 92.5887 38.4272 93.2409 39.8246L93.3806 39.8712C93.3806 35.9585 94.4053 32.0459 96.4082 28.7387C99.7154 23.2889 104.373 18.7708 111.919 18.6776C111.298 19.4539 110.662 20.2458 110.009 21.0531C109.59 21.0066 109.124 20.7737 108.659 20.6805C108.659 21.1929 109.031 21.5189 109.357 21.8916C108.612 22.7921 107.882 23.7082 107.168 24.6397C106.283 24.3603 105.491 24.0808 104.653 24.0808C105.072 24.8261 105.678 25.2919 106.236 25.8508C105.305 27.0619 104.42 28.2885 103.581 29.5306C103.302 29.484 102.976 29.484 102.603 29.4374C102.557 29.7635 102.836 29.9964 103.069 30.2293C102.696 30.8193 102.324 31.4093 101.951 31.9993C101.547 32.6203 101.144 33.2414 100.74 33.8624C99.9017 33.5364 99.0167 33.3501 98.0851 32.9774C98.1783 34.0953 99.203 34.5611 99.9017 35.2133C99.0633 36.6106 98.2714 37.9614 97.5261 39.4054C99.0167 37.3559 100.88 35.5393 103.023 34.1419C107.541 31.2074 113.177 30.1361 118.44 31.2074C123.657 32.3253 128.455 35.5859 131.343 40.1041C127.942 39.0328 124.449 38.7067 120.956 38.893C120.816 38.2409 120.443 37.682 120.257 37.0764C119.791 37.6354 120.024 38.3341 119.884 38.9396C118.518 39.0638 117.136 39.2501 115.739 39.4985C115.226 38.5204 115.18 37.4025 114.481 36.7038C114.108 37.7285 114.341 38.7999 114.202 39.8246C113.674 39.9178 113.146 40.042 112.618 40.1972C111.904 40.3836 111.174 40.5699 110.429 40.7562C110.103 40.4301 109.916 39.778 109.264 39.778C109.404 40.2438 109.357 40.663 109.357 41.0822C107.774 41.548 106.19 42.0604 104.606 42.6194C103.675 41.8741 103.116 41.0823 102.37 40.2904C102.231 41.2686 102.696 42.2933 102.883 43.2249C101.951 43.5665 101.035 43.9081 100.135 44.2496C103.488 44.0633 106.842 44.6689 109.87 46.0662C114.9 48.3952 118.859 52.96 120.49 58.2234C119.279 57.5403 118.037 56.8726 116.763 56.2205C116.81 55.5684 116.95 54.9163 116.95 54.2642C116.531 54.5903 116.204 55.1958 115.785 55.7082C114.015 54.7766 112.214 53.876 110.382 53.0066C110.662 52.075 111.127 51.1434 110.988 50.0721C110.103 50.7242 109.544 51.516 108.891 52.3079C107.401 51.5936 105.895 50.895 104.373 50.2118C104.42 49.6994 104.42 49.0473 104.513 48.5349C104.094 48.861 103.768 49.3268 103.395 49.7926C101.066 48.7678 98.7372 47.7897 96.3617 46.8115C97.4796 54.73 99.1098 61.7169 101.159 67.9119C119.931 63.5335 136.653 53.7052 149.509 40.2438C148.437 39.1259 147.739 36.3312 147.739 36.3312C149.416 36.2846 150.813 35.9119 151.791 35.5393C151.558 35.4927 151.279 35.4927 150.999 35.4927C144.618 34.9804 138.935 22.4505 138.935 22.4505C138.935 22.4505 144.618 29.8101 148.903 30.5553C153.235 31.3006 153.934 34.1885 153.934 34.1885C153.934 34.1885 154.493 33.909 154.539 33.9556C154.819 33.8625 154.958 33.8625 155.052 33.9556C160.641 27.0153 165.299 19.3297 168.839 11.0386C157.567 4.47089 144.618 0.511649 130.877 0.045856C90.0735 -1.30494 55.6979 27.3413 48.1055 65.6296Z" fill="url(#paint8_linear_17_4765)"/>
<defs>
<linearGradient id="paint0_linear_17_4765" x1="247.098" y1="147.874" x2="32.0886" y2="147.874" gradientUnits="userSpaceOnUse">
<stop stop-color="#0BECF0"/>
<stop offset="1" stop-color="#017BFC"/>
</linearGradient>
<linearGradient id="paint1_linear_17_4765" x1="189.889" y1="133.456" x2="92.6192" y2="133.456" gradientUnits="userSpaceOnUse">
<stop stop-color="white"/>
<stop offset="1"/>
</linearGradient>
<linearGradient id="paint2_linear_17_4765" x1="179.122" y1="89.2543" x2="122.433" y2="89.2543" gradientUnits="userSpaceOnUse">
<stop stop-color="white"/>
<stop offset="1"/>
</linearGradient>
<linearGradient id="paint3_linear_17_4765" x1="-0.657649" y1="118.746" x2="264.19" y2="118.746" gradientUnits="userSpaceOnUse">
<stop stop-color="#D3F86B"/>
<stop offset="1" stop-color="#39B130"/>
</linearGradient>
<linearGradient id="paint4_linear_17_4765" x1="62.2873" y1="122.92" x2="235.465" y2="122.92" gradientUnits="userSpaceOnUse">
<stop stop-color="white"/>
<stop offset="1"/>
</linearGradient>
<linearGradient id="paint5_linear_17_4765" x1="171.17" y1="-0.68936" x2="171.17" y2="110.176" gradientUnits="userSpaceOnUse">
<stop stop-color="#FCDA3F"/>
<stop offset="1" stop-color="#F64E29"/>
</linearGradient>
<linearGradient id="paint6_linear_17_4765" x1="162.247" y1="-0.640917" x2="162.247" y2="102.644" gradientUnits="userSpaceOnUse">
<stop stop-color="white"/>
<stop offset="1"/>
</linearGradient>
<linearGradient id="paint7_linear_17_4765" x1="103.794" y1="50.5393" x2="103.794" y2="69.0411" gradientUnits="userSpaceOnUse">
<stop stop-color="white"/>
<stop offset="1"/>
</linearGradient>
<linearGradient id="paint8_linear_17_4765" x1="129.081" y1="-0.403635" x2="129.081" y2="65.549" gradientUnits="userSpaceOnUse">
<stop stop-color="white"/>
<stop offset="1"/>
</linearGradient>
</defs>
</svg>
