<svg width="257" height="172" viewBox="0 0 257 172" fill="none" xmlns="http://www.w3.org/2000/svg">
<path d="M181.694 24.4058C180.567 24.0138 179.44 23.4747 178.362 23.1807C179.146 24.1118 179.93 24.9939 180.812 25.7779C179.832 27.3787 178.884 28.9796 177.97 30.5804C177.333 30.4334 176.696 30.1393 176.206 30.4334C176.745 30.6784 177.039 31.1684 177.431 31.5605C176.581 33.0959 175.748 34.6641 174.931 36.2649C173.902 35.9709 172.971 35.4318 171.746 35.5298C172.481 36.2159 173.069 37.294 174.049 37.9311C173.886 38.2904 173.723 38.6335 173.559 38.9602C175.127 38.0291 176.892 37.343 178.656 36.804C182.821 35.5788 187.379 35.1378 191.446 36.7059C194.435 37.8821 196.983 40.1363 198.552 42.9785C197.441 42.9132 196.346 42.8479 195.268 42.7825C194.974 41.9004 194.827 40.9203 194.337 40.0873C193.945 41.0183 193.602 41.8024 193.357 42.7335C191.952 42.7008 190.548 42.6682 189.143 42.6355C188.898 42.2435 188.702 41.8024 188.408 41.5084C188.261 41.9004 188.212 42.2925 188.163 42.6355C187.215 42.6028 186.251 42.5865 185.271 42.5865C184.732 41.4594 184.095 40.2833 183.458 39.1562C182.968 40.3813 183.458 41.4594 183.36 42.5865C182.119 42.6192 180.877 42.6355 179.636 42.6355C179.293 42.1455 178.901 41.6064 178.46 41.2144C178.509 41.6554 178.558 42.1455 178.509 42.6355C177.627 42.6682 176.761 42.7008 175.911 42.7335C177.382 42.6845 182.086 48.369 183.311 49.4961C186.055 52.0934 188.8 54.7396 191.397 57.4839C196.64 62.9724 201.59 68.804 205.51 75.3216C208.206 79.683 213.106 88.2098 216.683 97.0306C216.928 94.3844 217.075 91.7381 217.075 89.0429C217.075 61.2573 204.383 36.5099 184.487 20.1914C183.507 21.5962 182.576 23.001 181.694 24.4058Z" fill="url(#paint0_linear_17_4732)"/>
<path d="M256.082 136.329C234.667 106.143 152.045 160.832 92.2107 160.881C48.9396 160.93 34.2872 132.556 0.0820312 142.455C37.3745 143.337 48.9396 171.809 92.2107 171.809C152.045 171.76 214.82 119.521 256.082 136.329Z" fill="url(#paint1_linear_17_4732)"/>
<path d="M68.3948 120.012C66.4347 116.19 60.3581 113.348 54.1835 113.348C50.6062 113.348 47.4209 114.328 45.2647 116.092C45.232 116.092 45.2157 116.092 45.2157 116.092C44.3336 116.778 43.8925 117.905 44.2846 118.983C44.4806 119.539 44.6766 120.094 44.8726 120.649C47.1759 126.677 52.6154 131.038 58.986 131.528C59.3127 131.561 59.6393 131.577 59.966 131.577C62.9553 131.577 65.0135 130.45 66.9737 127.804C70.159 123.443 68.8359 120.845 68.3948 120.012Z" fill="url(#paint2_linear_17_4732)"/>
<path d="M107.843 126.969C99.8554 116.531 98.3362 106.975 100.786 99.2817C101.424 98.9877 102.012 98.6937 102.551 98.2526C103.776 99.8698 105.736 100.948 107.941 100.948C109.362 100.948 110.685 100.507 111.764 99.7718C112.891 102.026 115.243 103.594 117.938 103.594C119.702 103.594 121.319 102.908 122.545 101.781C123.819 103.398 125.779 104.427 127.984 104.427C130.532 104.427 132.786 103.006 133.963 100.899C134.845 101.34 135.825 101.536 136.903 101.536C139.598 101.536 141.901 100.017 143.028 97.7626C143.224 97.7626 143.42 97.7626 143.616 97.7626C146.263 97.7626 148.664 96.3414 149.693 93.7932C150.771 91.0489 149.938 88.1087 148.125 85.8545C144.009 80.709 138.618 76.2006 132.835 73.1133C127.935 70.467 122.496 68.8499 116.909 68.5558C111.813 68.3108 106.618 69.1929 101.865 71.0061C97.0621 72.8192 92.6517 75.5635 88.7803 78.9448C84.909 82.4241 81.5767 86.4915 79.0284 91.0489C77.9177 93.0091 76.9539 95.0673 76.1372 97.2235C75.8921 97.7626 73.8339 103.545 74.177 103.692C64.4251 99.4777 52.2719 100.752 42.569 112.807C54.6731 102.957 82.1647 114.13 70.3546 130.302C56.6823 149.119 31.592 111.631 0.0820312 135.3C34.2872 125.401 48.9396 153.775 92.2107 153.726C152.045 153.677 215.604 104.378 255.739 124.519C230.943 86.2955 129.111 154.853 107.843 126.969Z" fill="url(#paint3_linear_17_4732)"/>
<path d="M201.148 101.881C199.286 89.2374 191.298 71.2037 170.177 45.8683C170.046 48.4492 169.981 51.0464 169.981 53.66C169.393 53.807 168.805 53.905 168.364 54.1501C168.805 54.2971 169.442 54.5911 169.932 54.7871C169.932 56.4533 169.948 58.1358 169.981 59.8346C168.952 60.0796 167.972 60.3247 167.041 60.8637C167.972 61.4518 169.05 61.4028 170.03 61.5498C170.063 63.608 170.144 65.6662 170.275 67.7244C169.638 67.9204 168.903 67.9204 168.413 68.2144C169.001 68.4594 169.687 68.6064 170.324 68.8514C170.422 70.2889 170.52 71.7264 170.618 73.1638C166.404 69.3905 163.856 63.804 163.758 58.1194C163.709 54.6891 164.591 51.3078 166.208 48.3185C165.489 49.0046 164.77 49.707 164.052 50.4257C163.267 49.8377 162.532 49.0046 161.552 48.7106C161.944 49.7397 162.483 50.6217 162.777 51.7489C161.601 52.9903 160.458 54.2481 159.347 55.5222C158.955 55.3752 158.514 55.2282 158.171 54.8851C157.877 55.5222 158.416 55.9632 158.563 56.4043C158.073 57.025 157.583 57.6294 157.093 58.2174C156.766 58.6422 156.44 59.0669 156.113 59.4916C155.084 59.1975 154.202 58.5605 153.075 58.4625C153.467 59.3936 154.447 59.9326 155.182 60.8637C154.365 62.0398 153.597 63.2486 152.879 64.49C152.29 64.343 151.751 63.853 151.016 64C151.506 64.441 151.849 65.0291 152.388 65.4211C150.771 68.6064 149.595 71.9877 149.154 75.6141C146.165 71.0076 145.136 65.1761 146.312 59.8346C147.537 54.4931 150.918 49.6906 155.525 46.7014C157.73 45.2802 160.18 44.3492 162.777 43.8101C161.111 43.9081 159.494 44.0551 157.877 44.2511C157.534 43.3201 157.534 42.1929 156.554 41.6049C156.505 42.634 156.309 43.5651 156.26 44.4472C155.508 44.5452 154.757 44.6595 154.006 44.7902C153.287 44.8882 152.568 45.0026 151.849 45.1332C151.751 44.7902 151.653 44.4472 151.31 44.3492C151.212 44.6922 151.065 44.9862 151.016 45.2802C149.481 45.5416 147.962 45.852 146.459 46.2113C146.165 45.4763 146.018 44.6922 145.479 44.0061C145.087 44.7902 145.038 45.6723 144.891 46.5544C143.747 46.8484 142.588 47.1424 141.411 47.4364C141.264 46.9954 141.117 46.5054 140.627 46.3093C140.48 46.7504 140.48 47.2894 140.382 47.6815C139.37 47.9428 138.357 48.2205 137.344 48.5145C140.627 41.4579 146.802 39.0567 153.271 38.2726C157.24 37.7825 161.307 38.4686 164.934 40.1348L164.983 39.9877C163.905 38.8116 162.973 37.4885 162.189 36.1164C159.739 31.706 158.661 26.4135 159.935 21.513C161.209 16.6126 164.885 12.3001 169.687 10.928C169.426 11.8428 169.181 12.7739 168.952 13.7213C168.266 13.8683 167.727 14.2603 167.139 14.4073C167.727 14.5544 168.217 14.6034 168.756 14.7014C168.495 15.8775 168.266 17.0536 168.07 18.2297C166.894 18.6218 165.473 18.7197 164.444 19.5038C165.62 19.6998 166.747 20.0429 167.825 20.4349C167.694 21.4477 167.613 22.4768 167.58 23.5222C167.237 23.7672 166.992 24.0122 166.551 24.0122C166.796 24.1593 167.188 24.3553 167.531 24.5513C167.498 25.6947 167.515 26.8545 167.58 28.0306C166.453 28.3737 165.326 28.5697 164.444 29.1577C165.424 29.7458 166.6 29.7458 167.678 29.7948C167.776 30.8729 167.907 31.951 168.07 33.0291C167.727 33.1271 167.09 32.9311 167.139 33.6662C167.531 33.4211 167.874 33.8622 168.217 33.9602C168.413 35.1363 168.658 36.2797 168.952 37.3905C168.952 33.1761 170.03 28.9127 172.137 25.2864C174.147 21.9051 177.087 19.0628 180.468 17.1026C165.767 6.37059 147.684 0 128.082 0C78.9306 0 39.0898 39.8407 39.0898 89.0413C39.0898 93.5988 39.4329 98.0582 40.0699 102.469C40.462 104.772 43.1572 105.85 44.9214 104.38C51.831 98.6462 58.7897 97.2741 63.8862 97.2741C65.5197 97.2741 67.1531 97.4048 68.7866 97.6661C70.2078 97.9112 71.6289 97.1761 72.1189 95.853C79.0286 77.4273 96.4252 64.294 115.047 64.294C124.701 64.294 139.01 67.8224 152.486 84.5329C152.928 85.072 153.222 85.66 153.369 86.2481C154.839 89.6294 154.741 93.5008 153.026 96.6371C151.408 99.4793 148.615 101.39 145.332 101.881C143.274 104.331 140.235 105.801 136.903 105.801C136.413 105.801 135.956 105.768 135.531 105.703C133.473 107.565 130.826 108.643 127.984 108.643C125.877 108.643 123.819 108.104 122.104 106.977C120.78 107.516 119.359 107.81 117.938 107.81C115.047 107.81 112.401 106.732 110.392 104.919C109.607 105.082 108.791 105.164 107.941 105.164C105.589 105.164 103.874 107.222 104.217 109.525C104.952 114.279 107.304 119.326 111.176 124.423C113.871 127.902 118.673 129.617 125.926 129.617C138.226 129.617 154.888 124.815 172.578 119.718C174.473 119.195 176.352 118.656 178.214 118.101C179.145 117.856 179.635 116.827 179.243 115.945C174.098 103.841 171.01 90.2175 177.724 78.2603C177.822 78.1133 177.92 78.0153 178.067 78.0153C178.263 77.9663 178.41 78.0153 178.508 78.1133C188.505 86.7871 190.416 100.018 189.828 112.76C189.779 113.838 190.808 114.671 191.837 114.377C192.229 114.279 192.605 114.181 192.964 114.083C198.404 112.711 201.981 107.418 201.148 101.881Z" fill="url(#paint4_linear_17_4732)"/>
<path d="M103.334 19.9449C105.981 20.0919 108.578 21.072 110.146 22.1991C110.685 22.5911 111.273 22.6891 111.763 22.6401C111.812 22.0521 111.959 21.709 112.449 22.0521C112.498 22.0031 112.89 22.3461 112.89 22.3461C112.89 22.3461 113.919 20.1899 117.399 20.3369C120.829 20.4839 126.416 15.7305 126.416 15.7305C126.416 15.7305 119.996 24.5023 114.948 23.8162C114.703 23.7672 114.507 23.7672 114.311 23.7182C114.997 24.1593 116.027 24.6983 117.35 25.0413C117.35 25.0413 115.88 27.9816 114.654 27.9816C113.429 27.9816 109.901 26.1194 109.901 26.1194C109.901 26.1194 111.077 24.9433 111.518 23.9142C110.685 24.0612 109.558 24.0122 108.284 23.8652C105.344 23.5222 95.6406 16.9556 95.6406 16.9556C95.6406 16.9556 100.688 19.7488 103.334 19.9449Z" fill="#1A1934"/>
<path d="M93.0922 35.0859C90.691 35.2329 88.3878 36.115 87.0157 37.0951C86.5256 37.4871 85.9866 37.5361 85.5455 37.5361C85.4965 36.997 85.3495 36.703 84.9085 36.997C84.8595 36.948 84.5164 37.2421 84.5164 37.2421C84.5164 37.2421 83.5853 35.3309 80.498 35.4779C77.4108 35.6249 72.3633 31.3125 72.3633 31.3125C72.3633 31.3125 78.1948 39.2022 82.7033 38.5652C82.8993 38.5652 83.0463 38.5162 83.2423 38.4672C82.6052 38.9082 81.7232 39.3983 80.5471 39.6433C80.5471 39.6433 81.8212 42.3385 82.9483 42.2895C84.0754 42.2895 87.2117 40.6234 87.2117 40.6234C87.2117 40.6234 86.1826 39.5943 85.7415 38.6632C86.5256 38.8102 87.5057 38.7612 88.6818 38.6142C91.2791 38.3202 100.002 32.4396 100.002 32.4396C100.002 32.4396 95.4445 34.9388 93.0922 35.0859Z" fill="#1A1934"/>
<path d="M121.468 43.2222C119.459 44.0553 117.744 45.4274 116.813 46.7015C116.47 47.1426 116.078 47.3876 115.637 47.4856C115.49 47.0446 115.294 46.7995 115 47.1916C114.951 47.1916 114.706 47.4856 114.706 47.4856C114.706 47.4856 113.383 46.1135 110.736 47.0936C108.139 48.1227 102.602 45.8194 102.602 45.8194C102.602 45.8194 109.805 50.9649 113.481 49.1518C113.644 49.0864 113.807 49.0211 113.971 48.9557C113.53 49.4458 112.893 50.1319 111.961 50.7199C111.961 50.7199 113.824 52.6311 114.804 52.2881C115.735 51.994 117.989 49.6418 117.989 49.6418C117.989 49.6418 116.764 49.0538 116.127 48.3677C116.862 48.2697 117.695 47.9757 118.675 47.5346C120.831 46.5545 126.712 39.0078 126.712 39.0078C126.712 39.0078 123.478 42.4381 121.468 43.2222Z" fill="#1A1934"/>
<path d="M122.106 106.976C120.783 107.515 119.362 107.809 117.941 107.809C115.05 107.809 112.403 106.731 110.394 104.918C109.61 105.081 108.793 105.163 107.944 105.163C105.592 105.163 103.876 107.221 104.22 109.524C104.318 110.145 104.448 110.782 104.612 111.436C112.501 111.289 120.146 110.308 127.546 108.642C125.586 108.544 123.723 108.005 122.106 106.976Z" fill="url(#paint5_linear_17_4732)"/>
<path d="M133.766 107.026C135.138 106.634 136.51 106.209 137.882 105.752C137.555 105.785 137.229 105.801 136.902 105.801C136.412 105.801 135.954 105.768 135.53 105.703C134.974 106.193 134.386 106.634 133.766 107.026Z" fill="url(#paint6_linear_17_4732)"/>
<path style="mix-blend-mode:overlay" d="M184.487 20.1914C183.507 21.5962 182.576 23.001 181.694 24.4058C180.567 24.0138 179.44 23.4747 178.362 23.1807C179.146 24.1118 179.93 24.9939 180.812 25.7779C179.832 27.3787 178.884 28.9796 177.97 30.5804C177.333 30.4334 176.696 30.1393 176.206 30.4334C176.745 30.6784 177.039 31.1684 177.431 31.5605C176.581 33.0959 175.748 34.6641 174.931 36.2649C173.902 35.9709 172.971 35.4318 171.746 35.5298C172.481 36.2159 173.069 37.294 174.049 37.9311C173.886 38.2904 173.723 38.6335 173.559 38.9602C175.127 38.0291 176.892 37.343 178.656 36.804C182.821 35.5788 187.379 35.1378 191.446 36.7059C194.435 37.8821 196.983 40.1363 198.552 42.9785C197.441 42.9132 196.346 42.8479 195.268 42.7825C194.974 41.9004 194.827 40.9203 194.337 40.0873C193.945 41.0183 193.602 41.8024 193.357 42.7335C191.952 42.7008 190.548 42.6682 189.143 42.6355C188.898 42.2435 188.702 41.8024 188.408 41.5084C188.261 41.9004 188.212 42.2925 188.163 42.6355C187.215 42.6028 186.251 42.5865 185.271 42.5865C184.732 41.4594 184.095 40.2833 183.458 39.1562C182.968 40.3813 183.458 41.4594 183.36 42.5865C182.119 42.6192 180.877 42.6355 179.636 42.6355C179.293 42.1455 178.901 41.6064 178.46 41.2144C178.509 41.6554 178.558 42.1455 178.509 42.6355C177.627 42.6682 176.761 42.7008 175.911 42.7335C177.382 42.6845 182.086 48.369 183.311 49.4961C186.055 52.0934 188.8 54.7396 191.397 57.4839C192.736 58.8887 194.06 60.3098 195.366 61.7473C199.042 56.2098 202.276 50.3292 204.971 44.1056C199.581 34.9908 192.671 26.856 184.487 20.1914Z" fill="url(#paint7_linear_17_4732)"/>
<path style="mix-blend-mode:overlay" d="M169.981 53.66C169.393 53.807 168.805 53.905 168.364 54.1501C168.805 54.2971 169.442 54.5911 169.932 54.7871C169.932 56.4533 169.948 58.1358 169.981 59.8346C168.952 60.0796 167.972 60.3247 167.041 60.8637C167.972 61.4518 169.05 61.4028 170.03 61.5498C170.063 63.608 170.144 65.6662 170.275 67.7244C169.638 67.9204 168.903 67.9204 168.413 68.2144C169.001 68.4594 169.687 68.6064 170.324 68.8514C170.422 70.2889 170.52 71.7264 170.618 73.1638C166.404 69.3905 163.856 63.804 163.758 58.1194C163.709 54.6891 164.591 51.3078 166.208 48.3185C165.489 49.0046 164.77 49.707 164.052 50.4257C163.267 49.8377 162.532 49.0046 161.552 48.7106C161.944 49.7397 162.483 50.6217 162.777 51.7489C161.601 52.9903 160.458 54.2481 159.347 55.5222C158.955 55.3752 158.514 55.2282 158.171 54.8851C157.877 55.5222 158.416 55.9632 158.563 56.4043C158.073 57.025 157.583 57.6294 157.093 58.2174C156.766 58.6422 156.44 59.0669 156.113 59.4916C155.084 59.1975 154.202 58.5605 153.075 58.4625C153.467 59.3936 154.447 59.9326 155.182 60.8637C154.365 62.0398 153.597 63.2486 152.878 64.49C152.29 64.343 151.751 63.853 151.016 64C151.506 64.441 151.849 65.0291 152.388 65.4211C150.771 68.6064 149.595 71.9877 149.154 75.6141C146.165 71.0076 145.136 65.1761 146.312 59.8346C147.537 54.4931 150.918 49.6906 155.525 46.7014C157.73 45.2802 160.18 44.3492 162.777 43.8101C161.111 43.9081 159.494 44.0551 157.877 44.2511C157.534 43.3201 157.534 42.1929 156.554 41.6049C156.505 42.634 156.309 43.5651 156.26 44.4472C155.508 44.5452 154.757 44.6595 154.006 44.7902C153.287 44.8882 152.568 45.0026 151.849 45.1332C151.751 44.7902 151.653 44.4472 151.31 44.3492C151.212 44.6922 151.065 44.9862 151.016 45.2802C149.481 45.5416 147.962 45.852 146.459 46.2113C146.165 45.4763 146.018 44.6922 145.479 44.0061C145.087 44.7902 145.038 45.6723 144.891 46.5544C143.747 46.8484 142.588 47.1424 141.411 47.4364C141.264 46.9954 141.117 46.5054 140.627 46.3093C140.48 46.7504 140.48 47.2894 140.382 47.6815C139.37 47.9428 138.357 48.2205 137.344 48.5145C140.627 41.4579 146.802 39.0567 153.271 38.2726C157.24 37.7825 161.307 38.4686 164.934 40.1348L164.983 39.9877C163.905 38.8116 162.973 37.4885 162.189 36.1164C159.739 31.706 158.661 26.4135 159.935 21.513C161.209 16.6126 164.885 12.3001 169.687 10.928C169.426 11.8428 169.181 12.7739 168.952 13.7213C168.266 13.8683 167.727 14.2603 167.139 14.4073C167.727 14.5544 168.217 14.6034 168.756 14.7014C168.495 15.8775 168.266 17.0536 168.07 18.2297C166.894 18.6218 165.473 18.7197 164.444 19.5038C165.62 19.6998 166.747 20.0429 167.825 20.4349C167.694 21.4477 167.613 22.4768 167.58 23.5222C167.237 23.7672 166.992 24.0122 166.551 24.0122C166.796 24.1593 167.188 24.3553 167.531 24.5513C167.498 25.6947 167.515 26.8545 167.58 28.0306C166.453 28.3737 165.326 28.5697 164.444 29.1577C165.424 29.7458 166.6 29.7458 167.678 29.7948C167.776 30.8729 167.907 31.951 168.07 33.0291C167.727 33.1271 167.09 32.9311 167.139 33.6662C167.531 33.4211 167.874 33.8622 168.217 33.9602C168.413 35.1363 168.658 36.2797 168.952 37.3905C168.952 33.1761 170.03 28.9127 172.137 25.2864C174.147 21.9051 177.087 19.0628 180.468 17.1026C165.767 6.37059 147.684 0 128.082 0C78.9306 0 39.0898 39.8407 39.0898 89.0413C39.0898 89.8908 39.1062 90.7565 39.1389 91.6386C43.4023 94.5789 47.9107 97.2741 52.5661 99.6263C56.7805 97.8132 60.7009 97.2741 63.8862 97.2741C65.5197 97.2741 67.1531 97.4048 68.7866 97.6661C70.2078 97.9112 71.6289 97.1761 72.1189 95.853C79.0286 77.4273 96.4252 64.294 115.047 64.294C124.701 64.294 139.01 67.8224 152.486 84.5329C152.928 85.072 153.222 85.66 153.369 86.2481C154.839 89.6294 154.741 93.5008 153.026 96.6371C151.408 99.4793 148.615 101.39 145.332 101.881C144.695 102.616 144.009 103.253 143.176 103.792C154.937 99.2343 165.669 92.7167 175.078 84.6309C175.715 82.4747 176.548 80.3185 177.724 78.2603C177.822 78.1133 177.92 78.0153 178.067 78.0153C178.263 77.9663 178.41 78.0153 178.508 78.1133C179.161 78.6687 179.766 79.2404 180.321 79.8285C183.196 77.0189 185.924 74.0623 188.505 70.9586C183.947 63.5099 177.92 55.1792 170.177 45.8683C170.046 48.4492 169.981 51.0464 169.981 53.66Z" fill="url(#paint8_linear_17_4732)"/>
<path style="mix-blend-mode:overlay" d="M155.818 4.41041C147.096 1.56815 137.785 0 128.082 0C82.5076 0 44.9701 34.2542 39.7266 78.4073C47.5183 80.5145 55.653 81.6417 64.1308 81.6417C70.1584 81.6417 76.039 81.0536 81.7725 79.9755C90.3483 70.3706 102.403 64.294 115.047 64.294C116.027 64.294 117.007 64.343 118.036 64.441C137.638 50.4747 151.604 29.1087 155.818 4.41041Z" fill="url(#paint9_linear_17_4732)"/>
<path style="mix-blend-mode:overlay" d="M211.194 118.197C194.385 119.863 148.174 136.671 127.935 141.621C107.647 146.619 85.105 135.691 80.3516 119.569C75.5981 103.495 87.8983 92.7633 89.9565 91.3912C90.3485 91.1625 90.7569 90.9665 91.1816 90.8031C92.3087 90.3131 93.5338 91.0972 93.8278 92.2733C94.7589 96.0466 98.5813 96.8797 101.522 94.6745C102.355 94.0374 103.58 94.1844 104.217 95.0175C106.128 97.5168 108.627 98.1048 110.979 96.4387C111.96 95.8016 113.234 96.1446 113.773 97.2227C115.439 100.359 119.212 100.653 121.564 98.3498C122.299 97.6638 123.476 97.7618 124.113 98.5459C126.318 101.437 129.895 101.633 131.855 98.1048C132.394 97.1737 133.522 96.7817 134.502 97.3207C137.001 98.5949 139.549 98.2028 140.774 95.1155C141.068 94.3315 141.852 93.7924 142.734 93.8414C148.125 94.1354 147.096 89.872 143.175 85.9517C138.226 81.0022 132.835 77.0328 126.71 74.7786C126.71 74.7786 126.122 74.5336 125.142 74.2396C125.011 74.2069 124.864 74.1579 124.701 74.0926C118.82 72.3284 101.031 68.212 88.7803 78.944C84.909 82.4234 81.5767 86.4907 79.0284 91.0482C77.9177 93.0083 76.9539 95.0665 76.1372 97.2227C75.8921 97.7618 73.8339 103.544 74.177 103.691C64.4251 99.4769 52.2719 100.751 42.569 112.806C54.6731 102.956 82.1647 114.129 70.3546 130.301C56.6823 149.119 31.592 111.63 0.0820312 135.299C34.2872 125.4 48.9396 153.774 92.2107 153.725C152.045 153.676 215.604 104.377 255.739 124.518C242.508 114.864 227.953 116.531 211.194 118.197Z" fill="url(#paint10_linear_17_4732)"/>
<defs>
<linearGradient id="paint0_linear_17_4732" x1="259.546" y1="1.01934" x2="259.546" y2="125.124" gradientUnits="userSpaceOnUse">
<stop stop-color="#FCDA3F"/>
<stop offset="1" stop-color="#F64E29"/>
</linearGradient>
<linearGradient id="paint1_linear_17_4732" x1="256.58" y1="171.792" x2="-1.65127" y2="171.792" gradientUnits="userSpaceOnUse">
<stop stop-color="#D3F86B"/>
<stop offset="1" stop-color="#39B130"/>
</linearGradient>
<linearGradient id="paint2_linear_17_4732" x1="63.2601" y1="1.01783" x2="63.2601" y2="125.122" gradientUnits="userSpaceOnUse">
<stop stop-color="#FCDA3F"/>
<stop offset="1" stop-color="#F64E29"/>
</linearGradient>
<linearGradient id="paint3_linear_17_4732" x1="10.9517" y1="68.5289" x2="257.479" y2="68.5289" gradientUnits="userSpaceOnUse">
<stop stop-color="#0BECF0"/>
<stop offset="1" stop-color="#017BFC"/>
</linearGradient>
<linearGradient id="paint4_linear_17_4732" x1="171.953" y1="1.01783" x2="171.953" y2="125.122" gradientUnits="userSpaceOnUse">
<stop stop-color="#FCDA3F"/>
<stop offset="1" stop-color="#F64E29"/>
</linearGradient>
<linearGradient id="paint5_linear_17_4732" x1="67.5018" y1="-21.9617" x2="120.988" y2="115.737" gradientUnits="userSpaceOnUse">
<stop stop-color="white"/>
<stop offset="1"/>
</linearGradient>
<linearGradient id="paint6_linear_17_4732" x1="135.741" y1="104.942" x2="136.724" y2="107.47" gradientUnits="userSpaceOnUse">
<stop stop-color="white"/>
<stop offset="1"/>
</linearGradient>
<linearGradient id="paint7_linear_17_4732" x1="192.489" y1="-39.7196" x2="235.386" y2="77.6031" gradientUnits="userSpaceOnUse">
<stop stop-color="white"/>
<stop offset="1"/>
</linearGradient>
<linearGradient id="paint8_linear_17_4732" x1="135.686" y1="-36.4413" x2="189.963" y2="103.293" gradientUnits="userSpaceOnUse">
<stop stop-color="white"/>
<stop offset="1"/>
</linearGradient>
<linearGradient id="paint9_linear_17_4732" x1="89.2374" y1="-39.0983" x2="182.795" y2="59.1039" gradientUnits="userSpaceOnUse">
<stop stop-color="white"/>
<stop offset="1"/>
</linearGradient>
<linearGradient id="paint10_linear_17_4732" x1="16.0708" y1="71.8452" x2="254.578" y2="71.8452" gradientUnits="userSpaceOnUse">
<stop stop-color="white"/>
<stop offset="1"/>
</linearGradient>
</defs>
</svg>
