<svg width="257" height="240" viewBox="0 0 257 240" fill="none" xmlns="http://www.w3.org/2000/svg">
<path d="M219.611 144.246C164.261 144.246 111.206 165.374 71.043 202.769C87.6481 212.961 107.156 218.834 128.081 218.834C176.209 218.834 217.046 187.784 231.694 144.651C227.644 144.381 223.594 144.246 219.611 144.246Z" fill="url(#paint0_linear_17_4697)"/>
<path d="M57.2716 96.1872C57.3166 96.2322 57.3616 96.2772 57.4066 96.3222C56.5516 98.5272 55.7416 100.732 54.9766 102.937C54.0991 102.937 53.2891 102.667 52.6816 103.14C53.4241 103.342 53.8966 103.882 54.5041 104.287C53.7841 106.402 53.0866 108.54 52.4116 110.7C51.0616 110.565 49.7791 110.16 48.2266 110.565C49.3741 111.24 50.3191 112.455 51.7366 113.062C51.6016 113.512 51.4666 113.962 51.3316 114.412C53.0866 112.86 55.1116 111.645 57.2041 110.565C62.1316 108.135 67.7342 106.515 73.1342 107.595C77.1842 108.405 80.8967 110.632 83.4617 113.872C82.0667 114.007 80.6717 114.165 79.2767 114.345C78.7367 113.265 78.3317 112.117 77.5217 111.172C77.2517 112.455 77.0492 113.535 76.9142 114.682C75.1592 114.952 73.4042 115.222 71.6492 115.492C71.2442 115.087 70.9067 114.615 70.4342 114.277C70.3667 114.817 70.3667 115.29 70.4342 115.695C69.2192 115.92 68.0042 116.145 66.7892 116.37C65.8442 115.087 64.8317 113.737 63.7516 112.455C63.4141 114.075 64.2916 115.29 64.4266 116.775C62.8516 117.045 61.2766 117.337 59.7016 117.652C59.2291 117.112 58.6216 116.572 57.9466 116.167C58.0816 116.707 58.2166 117.247 58.3516 117.922C57.2716 118.147 56.1691 118.372 55.0441 118.597C56.8666 118.26 64.0891 124.267 65.8441 125.415C69.8942 128.047 73.8767 130.747 77.7917 133.582C83.9342 138.105 89.8743 142.965 95.3418 148.432C93.0468 129.532 92.9118 110.497 96.6918 91.8672C83.0567 92.7447 69.8942 94.2297 57.2716 96.1872Z" fill="url(#paint1_linear_17_4697)"/>
<path d="M41.8803 104.217C42.2403 105.567 42.6453 106.917 43.0953 108.267C42.6903 108.469 41.8803 108.334 42.0828 109.279C42.5553 108.874 43.0278 109.347 43.5003 109.347C44.0404 110.742 44.6029 112.114 45.1879 113.464C44.2429 108.334 44.6478 102.934 46.3354 98.0742C44.4903 98.3892 42.6453 98.7267 40.8003 99.0867C41.0028 100.099 41.1378 101.044 41.4078 102.057C40.0578 102.799 38.6403 103.272 37.6953 104.149C39.1128 104.689 40.5303 104.419 41.8803 104.217Z" fill="url(#paint2_linear_17_4697)"/>
<path d="M88.5907 163.148C78.1281 147.488 64.2231 134.528 48.563 123.795C49.013 127.08 49.5305 130.365 50.1155 133.65C49.4405 133.92 48.698 134.19 48.2255 134.595C48.833 134.663 49.643 134.865 50.318 135C50.678 137.115 51.083 139.23 51.533 141.345C50.318 141.885 49.103 142.358 48.023 143.235C49.373 143.775 50.6555 143.505 51.938 143.438C52.478 146.048 53.0405 148.613 53.6255 151.133C52.8155 151.538 51.938 151.74 51.4655 152.145C52.208 152.348 53.0855 152.415 53.963 152.55C54.368 154.35 54.818 156.128 55.313 157.883C49.1705 154.103 44.7154 147.69 43.3654 140.603C42.5554 136.35 42.8929 131.895 44.1755 127.778C43.4554 128.768 42.7354 129.803 42.0154 130.883C40.8679 130.343 39.7204 129.465 38.4379 129.33C39.1804 130.478 40.0579 131.49 40.6654 132.84C39.4504 134.64 38.3029 136.463 37.2229 138.308C36.6829 138.24 36.1429 138.173 35.6029 137.835C35.4004 138.645 36.1429 139.118 36.4804 139.59C35.9854 140.49 35.5129 141.368 35.0629 142.223C34.7029 142.808 34.3654 143.415 34.0504 144.045C32.7004 143.91 31.4854 143.303 30.0679 143.37C30.7429 144.518 32.0929 144.923 33.1729 145.935C32.4079 147.555 31.7329 149.22 31.1479 150.93C30.3379 150.93 29.5954 150.39 28.7179 150.795C29.3929 151.268 30.0004 151.875 30.7429 152.28C29.3929 156.6 28.7179 161.123 28.9879 165.713C24.1953 160.65 21.6303 153.63 21.9003 146.61C22.2378 139.658 25.4103 132.908 30.4729 128.183C32.9029 125.888 35.8054 124.133 38.9104 122.918C36.8854 123.39 34.8604 123.93 32.8354 124.538C32.2279 123.458 31.9579 122.04 30.6079 121.568C30.7429 122.85 30.7429 124.065 30.8779 125.145C29.9329 125.46 29.0104 125.775 28.1104 126.09C27.2554 126.36 26.4004 126.653 25.5454 126.968C25.3429 126.563 25.1403 126.158 24.6678 126.09C24.6678 126.563 24.5328 126.968 24.5328 127.373C22.6878 128.048 20.8653 128.768 19.0653 129.533C18.5253 128.723 18.1203 127.71 17.3103 126.968C16.9728 128.048 17.1078 129.195 17.1753 130.343C15.7803 130.928 14.3853 131.535 12.9903 132.165C12.6528 131.693 12.3828 131.153 11.7078 130.95C11.7078 131.558 11.7753 132.233 11.7078 132.773C10.5378 133.313 9.34525 133.875 8.13025 134.46C10.6953 124.943 17.8503 120.555 25.7478 118.058C30.6079 116.573 35.8729 116.573 40.8004 117.788V117.653C39.2479 116.37 37.7629 114.953 36.4129 113.4C33.5779 109.89 31.4854 105.705 30.6754 101.25C24.3303 102.735 14.8128 105.435 8.06276 107.393C3.06774 108.878 -0.172292 113.535 0.0977095 118.733C2.12272 155.723 19.8753 188.528 46.808 210.601C49.4405 212.761 53.3555 212.491 55.6505 209.993C56.4605 209.048 57.2705 208.171 57.878 207.563C68.0706 196.898 79.2756 187.313 91.2232 178.943C93.9232 177.12 94.6657 173.475 93.0457 170.573C91.5607 167.94 89.8057 164.97 88.5907 163.148Z" fill="url(#paint3_linear_17_4697)"/>
<path d="M247.486 107.799C226.494 103.007 172.763 91.5991 137.866 90.9241C139.418 96.7966 139.486 103.074 137.866 108.879C136.696 106.764 135.503 104.627 134.288 102.467C134.963 101.589 135.773 100.712 136.381 99.7666C135.436 99.8341 134.423 100.442 133.276 100.779C131.521 97.7641 129.721 94.7716 127.875 91.8016C128.235 91.4416 128.618 91.1041 129.023 90.7891C128.708 90.7891 128.393 90.7891 128.078 90.7891C121.778 90.7891 115.568 90.9241 109.448 91.1941C106.95 112.187 107.423 133.382 112.283 154.037C112.418 154.779 112.688 155.724 112.958 156.804C113.97 160.652 118.29 162.677 121.935 160.922C126.075 158.897 130.283 157.007 134.558 155.252C137.123 154.239 138.743 151.607 138.541 148.839C137.191 130.142 139.351 110.364 153.863 97.2691C153.998 97.1341 154.201 97.0666 154.403 97.1341C154.673 97.1341 154.808 97.2691 154.943 97.4716C163.381 111.917 161.626 128.252 156.563 143.574C155.956 145.464 157.643 147.219 159.533 146.679C178.906 141.279 199.088 138.444 219.608 138.444C228.653 138.444 237.834 138.984 246.946 140.132H247.014C250.389 140.537 253.494 138.242 254.101 134.867C255.091 129.782 255.744 124.584 256.059 119.274C256.396 113.874 252.751 108.947 247.486 107.799Z" fill="url(#paint4_linear_17_4697)"/>
<path d="M219.607 144.246C157.44 144.246 101.347 170.301 61.6566 212.016C58.8216 214.986 59.4291 219.846 63.0066 221.939C82.0417 233.212 104.317 239.692 128.077 239.692C183.967 239.692 231.487 203.916 249.038 154.034C250.388 150.186 247.688 146.001 243.638 145.596C235.718 144.696 227.707 144.246 219.607 144.246Z" fill="url(#paint5_linear_17_4697)"/>
<path d="M96.8282 70.8063C96.5582 71.7513 96.4907 72.8313 96.5582 73.8438C94.7582 75.0138 92.9582 76.1838 91.1582 77.3538C89.9432 75.7338 89.6732 73.7763 87.7832 72.4938C87.9857 74.7888 88.1207 77.0838 88.4582 79.1763C86.1632 80.3238 86.2982 80.2563 84.0032 81.4038C83.7332 81.0888 83.3732 80.7738 82.9232 80.4588C82.8557 81.1338 82.9232 82.0113 82.9232 82.7538C80.9432 84.1038 78.9856 85.4763 77.0506 86.8713C75.8356 85.7913 74.6206 84.9138 73.2031 83.9688C73.2706 85.3863 73.8106 86.6688 74.2156 88.0188C82.0457 87.1188 89.9657 86.4214 97.9757 85.9263C98.7182 81.8088 100.001 71.6838 101.891 70.4688C100.631 71.2788 99.3708 72.0888 98.1108 72.8988C97.5707 72.0888 97.2333 71.4813 96.8282 70.8063Z" fill="url(#paint6_linear_17_4697)"/>
<path d="M235.675 89.2355C226.225 38.4077 181.675 0 128.08 0C74.5521 0 30.0018 38.4752 20.5518 89.2355C19.7418 93.4205 23.5218 96.9305 27.5718 95.9855C28.5168 95.7605 29.4618 95.558 30.4068 95.378C30.9468 89.1005 34.5918 82.958 40.1944 80.1904C40.0594 81.4054 39.9694 82.6204 39.9244 83.8355C39.1144 84.2405 38.5069 84.7805 37.8319 85.118C38.5744 85.1855 39.1819 85.118 39.8569 85.118C39.7669 86.648 39.7444 88.178 39.7894 89.708C38.4394 90.4505 36.6844 90.8555 35.5368 92.138C37.0894 92.0705 38.5069 92.273 39.9919 92.543C39.9919 92.813 40.0144 93.083 40.0594 93.353C43.2094 92.723 46.4044 92.138 49.6444 91.598C53.2894 86.1305 58.757 81.8779 65.0345 79.8529C63.6845 82.373 62.4245 84.893 61.2545 87.413C60.7145 87.3455 60.1745 87.143 59.7695 87.008C59.7695 87.8855 60.4445 88.088 60.782 88.4255C60.5795 88.898 60.377 89.3705 60.1745 89.843C63.4145 89.348 66.677 88.898 69.962 88.493C70.232 84.2405 71.7171 79.9879 74.2146 76.4779C78.4671 70.4704 85.3521 66.8254 92.4397 64.6654C95.4097 63.7879 98.5822 63.1128 101.687 62.9778C101.147 62.6628 100.607 62.3253 100.067 61.9653C100.877 60.1428 100.675 58.0503 101.08 56.3628C99.2572 57.3753 98.4472 58.9953 97.2322 60.3453C94.6222 58.8603 91.9897 57.4428 89.3346 56.0928C89.5371 55.1478 89.4696 54.2028 89.9421 53.2578C88.9971 53.3253 88.3896 54.3378 87.6471 55.2153C84.8121 53.7303 81.9546 52.3353 79.0746 51.0303C79.5471 49.0728 79.8171 47.0478 80.0871 44.9552C78.8721 46.4403 77.7246 48.2628 76.5771 49.8828C73.9221 48.6678 71.2445 47.5203 68.5445 46.4403C68.5445 45.7653 69.017 44.9552 68.207 44.1452C67.937 44.6177 67.5995 45.2927 67.127 45.9002C63.662 44.5052 60.1295 43.2002 56.5295 41.9852C67.1945 36.8552 80.2896 36.9227 90.9546 42.1877C97.3672 45.3602 102.902 50.4228 106.75 56.4303C106.142 54.5403 105.4 52.7178 104.657 50.8953C105.062 50.4228 105.13 49.4778 105.94 49.4778C105.265 48.3978 104.59 49.2078 103.982 49.4103C103.217 47.7003 102.385 46.0353 101.485 44.4152C102.97 43.3352 104.657 42.2552 105.535 40.4327C103.712 40.5002 101.89 41.3102 99.9997 41.7827C98.9647 40.0727 97.8847 38.4077 96.7597 36.7877C97.1647 36.2477 97.4347 35.5727 97.7047 35.1002C97.0972 35.5727 96.4897 35.5052 95.8147 35.3702C94.7797 33.9752 93.6997 32.6027 92.5747 31.2527C93.7897 29.6327 95.0047 28.1477 96.4897 26.7301C94.2622 26.5951 92.1696 27.8101 90.1446 28.3502C88.7496 26.8201 87.3321 25.3351 85.8921 23.8951C86.4996 23.2876 87.1746 22.7476 87.8496 22.0726C86.9046 22.4101 85.7571 22.3426 84.6096 22.7476C83.4396 21.6226 82.2246 20.5201 80.9646 19.4401C89.1321 16.9426 98.4472 19.6426 104.792 25.3801C111.137 31.1852 114.647 39.6902 115.187 48.2628C115.39 50.9628 115.255 53.7303 114.917 56.4303L115.052 56.5653C118.697 50.7603 123.827 46.0353 129.902 42.9977C139.825 38.0702 150.895 35.7752 162.168 42.6602C160.458 43.2452 158.77 43.8077 157.105 44.3477C156.565 43.8752 156.025 43.1327 155.485 42.5927C154.945 43.3352 155.215 44.1452 155.35 44.9552C153.415 45.6302 151.502 46.3053 149.612 46.9803C148.532 45.8327 147.655 44.6177 146.372 43.8752C146.237 45.3602 146.777 46.6427 147.047 47.9253C144.572 48.8253 142.12 49.7928 139.69 50.8278C139.352 50.4903 138.812 50.2203 138.407 49.8153C138.002 50.2203 138.137 50.8278 138.34 51.4353C137.215 51.9303 136.112 52.4253 135.032 52.9203C133.862 53.4603 132.692 54.0228 131.522 54.6078C130.577 53.3928 129.43 52.2453 128.417 50.8278C127.54 52.5828 128.62 54.2028 129.025 55.8228C126.46 57.0378 124.03 58.3203 121.6 59.7378C125.785 58.1178 130.172 57.1728 134.627 57.1053C143.942 57.0378 153.257 60.6828 160.008 67.1629C165.408 72.4279 168.985 79.4479 170.2 86.8055C190.518 88.5605 210.16 91.6655 228.588 95.9855C232.705 96.9305 236.418 93.353 235.675 89.2355Z" fill="url(#paint7_linear_17_4697)"/>
<path d="M123.354 79.7149C122.476 79.7824 121.531 80.1874 120.586 80.5249C118.089 76.8124 115.591 73.1674 113.026 69.5898C111.901 74.8099 110.956 80.0524 110.191 85.3174C114.601 85.1824 119.056 85.0924 123.556 85.0474C122.881 84.0349 122.274 83.0224 121.599 82.0774C122.206 81.3349 122.814 80.3899 123.354 79.7149Z" fill="url(#paint8_linear_17_4697)"/>
<path d="M157.237 77.4894C156.022 77.9619 155.752 79.1094 154.942 79.9194C152.827 78.7944 150.645 77.7819 148.395 76.8819C148.53 74.9244 149.475 73.2369 149.07 71.5494C147.585 72.7644 146.91 74.5194 145.762 75.8694C144.907 75.5544 144.029 75.2619 143.129 74.9919C141.914 74.5869 140.654 74.1819 139.349 73.7769C139.214 72.9669 139.484 71.8869 138.539 71.2119C138.337 72.0894 137.864 72.6294 137.459 73.2369C134.669 72.4719 131.857 71.7519 129.022 71.0769C128.347 69.1869 128.347 67.4319 127.942 65.6094C126.794 66.8919 126.524 68.7819 125.917 70.4019C124.252 70.0419 122.587 69.7044 120.922 69.3894C125.984 72.1569 130.439 76.1394 133.544 81.067C134.354 82.3495 135.097 83.6995 135.704 85.117C145.515 85.252 155.19 85.6795 164.73 86.3995C162.165 84.2845 159.442 82.417 156.562 80.797C156.967 79.7845 156.967 78.5694 157.237 77.4894Z" fill="url(#paint9_linear_17_4697)"/>
<path d="M121.935 160.919C126.075 158.894 130.282 157.004 134.557 155.249C137.122 154.237 138.742 151.604 138.54 148.837C137.932 139.994 138.067 130.949 139.89 122.512C128.617 123.862 118.155 125.752 108.367 127.912C108.975 136.687 110.257 145.394 112.282 154.034C112.417 154.777 112.687 155.722 112.957 156.802C113.97 160.649 118.29 162.674 121.935 160.919Z" fill="url(#paint10_linear_17_4697)"/>
<path d="M159.533 146.678C178.906 141.278 199.089 138.443 219.609 138.443C228.654 138.443 237.834 138.983 246.946 140.13H247.014C250.389 140.535 253.494 138.24 254.101 134.865C254.776 131.445 255.294 127.98 255.654 124.47C219.811 119.475 188.289 118.665 160.816 120.488C160.748 128.183 159.061 136.013 156.563 143.573C155.956 145.463 157.643 147.218 159.533 146.678Z" fill="url(#paint11_linear_17_4697)"/>
<path style="mix-blend-mode:overlay" d="M95.3395 148.431C94.6645 142.806 94.1919 137.158 93.9219 131.488C89.1969 132.793 84.6969 134.166 80.4219 135.606C85.6194 139.521 90.6819 143.773 95.3395 148.431Z" fill="url(#paint12_linear_17_4697)"/>
<path style="mix-blend-mode:overlay" d="M53.6255 151.133C52.8155 151.538 51.938 151.741 51.4655 152.146C52.208 152.348 53.0855 152.416 53.963 152.551C54.368 154.351 54.818 156.128 55.313 157.883C51.8705 155.791 48.968 152.821 46.8755 149.378C40.1255 152.753 34.2529 156.128 29.1904 159.301C28.9204 161.393 28.8529 163.553 28.9879 165.713C27.7729 164.453 26.6929 163.058 25.7479 161.528C20.9553 164.701 17.0403 167.671 14.0703 170.101C22.1029 185.761 33.3079 199.531 46.808 210.601C49.4405 212.761 53.3555 212.491 55.6505 209.993C56.4605 209.048 57.2705 208.171 57.878 207.563C68.0706 196.898 79.2756 187.313 91.2232 178.943C93.9232 177.121 94.6657 173.476 93.0457 170.573C91.5607 167.941 89.8057 164.971 88.5907 163.148C82.8532 154.576 76.1031 146.813 68.6106 139.793C62.8731 142.02 57.5405 144.315 52.613 146.611C52.9505 148.096 53.288 149.648 53.6255 151.133Z" fill="url(#paint13_linear_17_4697)"/>
<path style="mix-blend-mode:overlay" d="M94.735 34.0202C94.06 33.0752 93.3175 32.1302 92.575 31.2527C93.79 29.6327 95.005 28.1477 96.49 26.7301C94.2625 26.5951 92.17 27.8101 90.1449 28.3502C88.7499 26.8201 87.3324 25.3351 85.8924 23.8951C86.4999 23.2876 87.1749 22.7476 87.8499 22.0726C86.9049 22.4101 85.7574 22.3426 84.6099 22.7476C83.4399 21.6226 82.2249 20.5201 80.9649 19.4401C89.1325 16.9426 98.4475 19.6426 104.793 25.3801C107.493 27.8777 109.653 30.8477 111.34 34.0877C122.343 34.6952 133.143 36.1802 143.538 38.6102C149.613 37.8002 155.823 38.8127 162.168 42.6602C161.538 42.8852 160.908 43.0877 160.278 43.2677C189.303 52.9203 215.088 69.5254 235.676 91.1255C235.766 90.5405 235.766 89.9105 235.676 89.2355C226.226 38.4077 181.675 0 128.08 0C91.9675 0 59.9723 17.4826 39.9922 44.4827C57.2048 38.4077 75.6324 34.7627 94.735 34.0202Z" fill="url(#paint14_linear_17_4697)"/>
<path style="mix-blend-mode:overlay" d="M245.258 146.001C244.763 145.776 244.223 145.641 243.638 145.596C235.718 144.696 227.707 144.246 219.607 144.246C157.44 144.246 101.347 170.301 61.6566 212.016C58.8216 214.986 59.4291 219.846 63.0066 221.939C75.9667 229.634 90.4117 235.034 105.734 237.734C154.402 170.166 219.742 151.064 245.258 146.001Z" fill="url(#paint15_linear_17_4697)"/>
<defs>
<linearGradient id="paint0_linear_17_4697" x1="168.67" y1="143.813" x2="168.67" y2="213.55" gradientUnits="userSpaceOnUse">
<stop stop-color="#E5AA57"/>
<stop offset="1" stop-color="#DA5965"/>
</linearGradient>
<linearGradient id="paint1_linear_17_4697" x1="-18.7783" y1="103.183" x2="252.369" y2="50.3875" gradientUnits="userSpaceOnUse">
<stop stop-color="#0BECF0"/>
<stop offset="1" stop-color="#017BFC"/>
</linearGradient>
<linearGradient id="paint2_linear_17_4697" x1="-8.38241" y1="104.259" x2="273.374" y2="56.4694" gradientUnits="userSpaceOnUse">
<stop stop-color="#0BECF0"/>
<stop offset="1" stop-color="#017BFC"/>
</linearGradient>
<linearGradient id="paint3_linear_17_4697" x1="-15.3713" y1="100.744" x2="304.289" y2="46.5263" gradientUnits="userSpaceOnUse">
<stop stop-color="#0BECF0"/>
<stop offset="1" stop-color="#017BFC"/>
</linearGradient>
<linearGradient id="paint4_linear_17_4697" x1="-13.1523" y1="125.516" x2="241.436" y2="75.9451" gradientUnits="userSpaceOnUse">
<stop stop-color="#0BECF0"/>
<stop offset="1" stop-color="#017BFC"/>
</linearGradient>
<linearGradient id="paint5_linear_17_4697" x1="161.214" y1="105.675" x2="227.261" y2="251.74" gradientUnits="userSpaceOnUse">
<stop stop-color="#D3F86B"/>
<stop offset="1" stop-color="#39B130"/>
</linearGradient>
<linearGradient id="paint6_linear_17_4697" x1="92.9031" y1="1.20461" x2="92.9031" y2="82.1679" gradientUnits="userSpaceOnUse">
<stop stop-color="#FCDA3F"/>
<stop offset="1" stop-color="#F64E29"/>
</linearGradient>
<linearGradient id="paint7_linear_17_4697" x1="149.577" y1="1.20623" x2="149.577" y2="82.1695" gradientUnits="userSpaceOnUse">
<stop stop-color="#FCDA3F"/>
<stop offset="1" stop-color="#F64E29"/>
</linearGradient>
<linearGradient id="paint8_linear_17_4697" x1="126.136" y1="1.20325" x2="126.136" y2="82.1672" gradientUnits="userSpaceOnUse">
<stop stop-color="#FCDA3F"/>
<stop offset="1" stop-color="#F64E29"/>
</linearGradient>
<linearGradient id="paint9_linear_17_4697" x1="147.769" y1="1.20528" x2="147.769" y2="82.1686" gradientUnits="userSpaceOnUse">
<stop stop-color="#FCDA3F"/>
<stop offset="1" stop-color="#F64E29"/>
</linearGradient>
<linearGradient id="paint10_linear_17_4697" x1="-2.77488" y1="151.036" x2="257.18" y2="78.7523" gradientUnits="userSpaceOnUse">
<stop stop-color="white"/>
<stop offset="1"/>
</linearGradient>
<linearGradient id="paint11_linear_17_4697" x1="20.3336" y1="170.2" x2="248.273" y2="106.82" gradientUnits="userSpaceOnUse">
<stop stop-color="white"/>
<stop offset="1"/>
</linearGradient>
<linearGradient id="paint12_linear_17_4697" x1="96.9021" y1="111.364" x2="98.0685" y2="153.952" gradientUnits="userSpaceOnUse">
<stop stop-color="white"/>
<stop offset="1"/>
</linearGradient>
<linearGradient id="paint13_linear_17_4697" x1="6.9713" y1="143.782" x2="289.865" y2="65.1198" gradientUnits="userSpaceOnUse">
<stop stop-color="white"/>
<stop offset="1"/>
</linearGradient>
<linearGradient id="paint14_linear_17_4697" x1="159.115" y1="1.14211" x2="159.115" y2="77.8711" gradientUnits="userSpaceOnUse">
<stop stop-color="white"/>
<stop offset="1"/>
</linearGradient>
<linearGradient id="paint15_linear_17_4697" x1="260.154" y1="171.831" x2="118.8" y2="282.722" gradientUnits="userSpaceOnUse">
<stop stop-color="white"/>
<stop offset="1"/>
</linearGradient>
</defs>
</svg>
