<svg width="257" height="256" viewBox="0 0 257 256" fill="none" xmlns="http://www.w3.org/2000/svg">
<path d="M256.07 128.007C256.07 198.678 198.752 255.995 128.082 255.995C57.4117 255.995 0.09375 198.678 0.09375 128.007C0.09375 57.2773 57.4117 0.0195312 128.082 0.0195312C198.752 0.0195312 256.07 57.2773 256.07 128.007Z" fill="url(#paint0_linear_17_4282)"/>
<path d="M128.083 57.8164C89.2901 57.8164 57.8945 89.2119 57.8945 128.005C57.8945 166.738 89.2901 198.194 128.083 198.194C166.877 198.194 198.272 166.738 198.272 128.005C198.272 89.2119 166.877 57.8164 128.083 57.8164Z" fill="url(#paint1_linear_17_4282)"/>
<mask id="mask0_17_4282" style="mask-type:luminance" maskUnits="userSpaceOnUse" x="0" y="0" width="257" height="256">
<path d="M256.082 127.994C256.082 198.688 198.77 255.994 128.082 255.994C57.3879 255.994 0.0820312 198.688 0.0820312 127.994C0.0820312 57.3059 57.3879 0 128.082 0C198.77 0 256.082 57.3059 256.082 127.994Z" fill="white"/>
</mask>
<g mask="url(#mask0_17_4282)">
<path d="M193.461 141.48H244.103C230.089 123.496 207.475 123.496 193.461 141.48Z" fill="white"/>
<path d="M233.215 141.48H256.07C249.755 133.361 239.53 133.361 233.215 141.48Z" fill="white"/>
<path d="M176.859 141.48H205.127C197.369 133.361 184.678 133.361 176.859 141.48Z" fill="white"/>
<path d="M-0.507812 92.3404H49.5326C35.6993 74.5376 13.3255 74.5376 -0.507812 92.3404Z" fill="white"/>
<path d="M28.7227 92.3398H102.58C82.1913 64.6732 49.1117 64.6732 28.7227 92.3398Z" fill="white"/>
<path d="M121.348 35.1407H135.662C131.693 30.0885 125.317 30.0885 121.348 35.1407Z" fill="white"/>
<path d="M132.773 35.1412H143.9C140.833 31.1717 135.841 31.1717 132.773 35.1412Z" fill="white"/>
<path d="M106.25 35.1436H127.301C121.467 27.2646 112.084 27.2646 106.25 35.1436Z" fill="white"/>
</g>
<mask id="mask1_17_4282" style="mask-type:luminance" maskUnits="userSpaceOnUse" x="0" y="0" width="257" height="256">
<path d="M256.082 127.994C256.082 198.688 198.77 255.994 128.082 255.994C57.3879 255.994 0.0820312 198.688 0.0820312 127.994C0.0820312 57.3059 57.3879 0 128.082 0C198.77 0 256.082 57.3059 256.082 127.994Z" fill="white"/>
</mask>
<g mask="url(#mask1_17_4282)">
<path d="M233.936 189.713L233.455 183.819C232.913 179.729 232.492 175.579 231.831 171.489C231.049 167.4 230.508 163.31 229.545 159.28L228.222 153.205L226.598 147.191C224.313 139.252 221.666 131.433 218.238 123.915C216.494 120.126 214.69 116.457 212.584 112.908C211.021 110.202 209.397 107.676 207.532 105.15L248.551 128.967C248.551 128.967 247.589 112.668 233.936 104.067C229.786 101.421 225.034 100.519 220.584 100.458L241.695 96.549C241.695 96.549 232.793 89.873 221.125 92.4592C217.396 93.2411 214.449 94.6244 212.043 96.128L233.816 74.9571C233.816 74.9571 218.779 74.8969 211.201 83.6179C205.127 90.6549 204.224 97.2106 204.224 100.759C203.262 96.7295 200.916 89.5722 195.203 81.152C185.339 66.597 174.332 62.9883 174.332 62.9883L203.683 102.624C201.458 100.458 195.082 94.9853 187.143 93.3012C175.295 90.8353 166.032 94.5643 166.032 94.5643L204.224 103.406H204.285C202.54 103.345 190.752 103.045 179.204 112.427C168.017 121.449 166.273 136.966 166.273 136.966L199.714 107.676C195.744 111.826 190.692 118.923 190.391 128.606C189.85 142.981 204.645 154.348 204.645 154.348L204.525 105.811C206.209 108.578 207.713 111.645 209.036 114.713C210.66 118.321 211.923 122.05 213.186 125.84C215.532 133.418 217.216 141.176 218.419 148.995L219.261 154.889L219.802 160.784C220.283 164.693 220.343 168.663 220.584 172.572C220.704 176.542 220.644 180.511 220.704 184.42L220.403 192.299C213.366 194.104 206.51 196.51 199.834 199.577V199.517C199.653 197.893 199.473 196.269 199.232 194.705C198.691 191.457 198.09 188.27 197.127 185.142C196.285 182.015 195.203 178.947 193.88 176C192.677 173.414 191.353 170.888 189.609 168.602L205.788 177.985C205.788 177.985 205.367 171.61 200.014 168.242C198.39 167.159 196.526 166.858 194.722 166.798L203.082 165.294C203.082 165.294 199.593 162.648 195.022 163.671C193.579 163.971 192.376 164.513 191.474 165.114L200.014 156.814C200.014 156.814 194.06 156.814 191.113 160.182C188.707 162.949 188.346 165.535 188.406 166.918C187.985 165.355 187.083 162.528 184.858 159.22C181.009 153.506 176.678 152.123 176.678 152.123L188.166 167.64C187.324 166.798 184.798 164.693 181.67 164.031C177.039 163.009 173.37 164.513 173.37 164.513L188.406 167.941V168.001C187.745 167.941 183.114 167.821 178.543 171.489C174.152 175.038 173.49 181.173 173.49 181.173L186.602 169.625C185.038 171.249 183.053 174.015 182.933 177.865C182.753 183.518 188.527 187.969 188.527 187.969V168.963C189.97 171.369 190.993 174.076 191.895 176.782C192.797 179.729 193.458 182.797 193.94 185.864C194.421 188.931 194.661 191.999 194.782 195.126C194.842 196.69 194.842 198.194 194.842 199.757L194.722 202.103C192.256 203.366 189.85 204.749 187.444 206.253C170.483 204.509 152.921 210.162 139.93 223.154H166.032H223.05H332.272C305.448 196.329 268.88 185.202 233.936 189.713Z" fill="url(#paint2_linear_17_4282)"/>
</g>
<mask id="mask2_17_4282" style="mask-type:luminance" maskUnits="userSpaceOnUse" x="0" y="0" width="257" height="256">
<path d="M128.082 0C57.3879 0 0.0820312 57.3059 0.0820312 127.994C0.0820312 198.688 57.3879 255.994 128.082 255.994C198.77 255.994 256.082 198.688 256.082 127.994C256.082 57.3059 198.77 0 128.082 0Z" fill="white"/>
</mask>
<g mask="url(#mask2_17_4282)">
<path d="M144.02 155.855C144.02 226.586 229.606 233.803 256.069 207.339V257.44L72.5078 257.5V155.855H144.02Z" fill="url(#paint3_linear_17_4282)"/>
<path d="M256.07 207.336C191.955 262.729 114.79 252.505 99.0318 212.088C90.7318 190.856 97.4079 169.565 118.519 169.325C144.501 169.024 149.974 206.795 114.008 209.02C139.69 218.703 168.8 200.901 168.619 169.866C168.379 139.433 136.322 120.728 102.34 131.073C69.7413 140.936 32.1509 186.586 0.09375 186.586V270.308H256.07V207.336Z" fill="url(#paint4_linear_17_4282)"/>
</g>
<path d="M78.7647 49.6367C71.1864 49.6367 66.2546 53.065 66.2546 53.065C66.2546 53.065 61.3227 49.6367 53.7445 49.6367C46.1662 49.6367 41.2344 53.065 41.2344 53.065C41.2344 53.065 46.1662 50.6592 53.7445 52.1628C61.3227 53.7266 66.2546 58.1171 66.2546 58.1171C66.2546 58.1171 71.1864 53.7266 78.7647 52.1628C86.2828 50.6592 91.2146 53.065 91.2146 53.065C91.2146 53.065 86.2828 49.6367 78.7647 49.6367Z" fill="url(#paint5_linear_17_4282)"/>
<path d="M163.145 88.25C159.657 88.25 157.431 89.7536 157.431 89.7536C157.431 89.7536 155.146 88.25 151.718 88.25C148.229 88.25 146.004 89.7536 146.004 89.7536C146.004 89.7536 148.229 88.671 151.718 89.3927C155.146 90.1145 157.431 92.0993 157.431 92.0993C157.431 92.0993 159.657 90.1145 163.145 89.3927C166.634 88.671 168.859 89.7536 168.859 89.7536C168.859 89.7536 166.634 88.25 163.145 88.25Z" fill="url(#paint6_linear_17_4282)"/>
<path d="M149.795 144.848C136.683 144.848 128.082 150.742 128.082 150.742C128.082 150.742 119.482 144.848 106.37 144.848C93.1983 144.848 84.5977 150.742 84.5977 150.742C84.5977 150.742 93.1983 146.592 106.37 149.238C119.482 151.945 128.082 159.583 128.082 159.583C128.082 159.583 136.683 151.945 149.795 149.238C162.966 146.592 171.567 150.742 171.567 150.742C171.567 150.742 162.966 144.848 149.795 144.848Z" fill="url(#paint7_linear_17_4282)"/>
<defs>
<linearGradient id="paint0_linear_17_4282" x1="256.079" y1="-4.03783" x2="256.079" y2="292.91" gradientUnits="userSpaceOnUse">
<stop offset="0.17" stop-color="#FEC224"/>
<stop offset="0.868" stop-color="#8F1E72"/>
</linearGradient>
<linearGradient id="paint1_linear_17_4282" x1="57.8795" y1="192.656" x2="57.8795" y2="15.2676" gradientUnits="userSpaceOnUse">
<stop stop-color="#FFDB5E"/>
<stop offset="0.705" stop-color="#FFD7C2"/>
</linearGradient>
<linearGradient id="paint2_linear_17_4282" x1="234.745" y1="-5.0811" x2="353.429" y2="113.603" gradientUnits="userSpaceOnUse">
<stop offset="0.099" stop-color="#7A2F11"/>
<stop offset="0.896" stop-color="#380A00"/>
</linearGradient>
<linearGradient id="paint3_linear_17_4282" x1="317.888" y1="132.045" x2="165.467" y2="284.465" gradientUnits="userSpaceOnUse">
<stop offset="0.169" stop-color="#287FD4"/>
<stop offset="0.992" stop-color="#230CA1"/>
</linearGradient>
<linearGradient id="paint4_linear_17_4282" x1="276.562" y1="161.236" x2="67.6314" y2="370.166" gradientUnits="userSpaceOnUse">
<stop offset="0.24" stop-color="#2D91F2"/>
<stop offset="0.764" stop-color="#230CA1"/>
</linearGradient>
<linearGradient id="paint5_linear_17_4282" x1="41.2434" y1="49.6524" x2="91.2387" y2="49.6524" gradientUnits="userSpaceOnUse">
<stop stop-color="#7A2F11"/>
<stop offset="1" stop-color="#380A00"/>
</linearGradient>
<linearGradient id="paint6_linear_17_4282" x1="145.978" y1="88.2223" x2="168.87" y2="88.2223" gradientUnits="userSpaceOnUse">
<stop stop-color="#7A2F11"/>
<stop offset="1" stop-color="#380A00"/>
</linearGradient>
<linearGradient id="paint7_linear_17_4282" x1="84.6043" y1="144.845" x2="171.56" y2="144.845" gradientUnits="userSpaceOnUse">
<stop stop-color="#7A2F11"/>
<stop offset="1" stop-color="#380A00"/>
</linearGradient>
</defs>
</svg>
