<svg width="189" height="256" viewBox="0 0 189 256" fill="none" xmlns="http://www.w3.org/2000/svg">
<path d="M143.516 59.0563C143.826 58.8791 144.114 58.7019 144.424 58.5469C144.069 58.6133 143.737 58.7905 143.516 59.0563Z" fill="url(#paint0_linear_17_1754)"/>
<path d="M33.1069 191.793C18.046 205.326 2.45359 219.877 3.78249 238.127L36.8499 236.599C33.2397 229.91 31.0471 222.269 30.582 213.897C30.0725 205.414 31.0692 198.061 33.1069 191.793Z" fill="url(#paint1_linear_17_1754)"/>
<path d="M94.6127 126.832C94.1698 128.294 93.6382 129.733 93.018 131.151C88.389 141.339 78.0236 147.873 67.2153 147.873C65.6206 147.873 64.048 147.74 62.4755 147.452C59.8177 146.965 57.47 146.256 55.3438 145.37C58.2673 151.948 59.9728 158.814 58.2452 163.244C58.0385 163.731 57.8244 164.226 57.6029 164.728C60.5043 163.487 63.4722 162.579 66.3736 162.004C85.9527 158.194 104.956 168.028 111.534 185.392C112.213 187.179 112.76 188.965 113.173 190.752C113.306 188.05 113.328 185.2 113.239 182.203C112.597 160.298 101.501 138.393 94.6127 126.832Z" fill="url(#paint2_linear_17_1754)"/>
<path d="M64.578 107.893C65.7297 103.065 66.6156 95.2468 65.4196 84.3941C58.753 67.7386 57.0476 49.6434 60.9014 32.5449C62.9833 22.9104 67.6566 14.1175 74.8105 6.52062C75.0763 6.23269 75.3421 5.96691 75.63 5.67898C73.3709 5.3689 70.8903 5.28031 68.1439 5.45749C48.8748 6.78639 35.6744 15.1806 29.6279 26.742C26.7708 32.2127 22.2083 23.8627 19.1739 30.4187C17.9779 33.01 19.4619 41.4707 19.4619 41.4707C19.4619 41.4707 8.71994 58.4141 10.7797 64.7043C12.2637 69.2225 13.4818 72.5226 11.7542 76.9966L5.48628 76.7086C5.48628 76.7086 8.25482 78.547 11.2227 78.1704C10.514 79.6544 9.51727 81.2269 8.09978 83.0431C-0.560215 94.0729 -2.48712 92.7883 5.84065 98.6133C8.94141 100.762 6.85947 101.16 5.61916 103.73C4.37886 106.299 4.37886 106.099 7.28029 107.074C10.1596 108.071 7.28029 108.647 6.85948 110.042C6.46081 111.415 6.85947 110.418 9.53942 112.589C12.2415 114.759 11.0012 119.101 9.14075 124.217C7.28029 129.355 11.3999 135.645 24.6224 131.902C35.5637 128.801 38.9967 127.583 40.9014 127.163C40.1705 119.654 43.9136 112.5 50.4917 109.112C54.8549 106.875 59.7497 106.52 64.578 107.893Z" fill="url(#paint3_linear_17_1754)"/>
<path d="M162.054 81.3167C168.145 90.6632 160.659 98.1051 152.132 98.548C146.506 98.8581 140.526 96.1782 137.514 90.7297C130.471 78.0609 140.061 58.9247 161.191 61.7818C176.894 63.9081 192.863 78.7918 186.905 100.143C182.076 120.32 156.672 129.157 134.635 127.341C90.0944 124.063 57.9129 81.6046 62.2983 40.5195C63.1842 31.3943 66.883 24.1297 70.9361 18.7255C85.1996 -0.322046 106.861 -3.35636 118.245 3.02235C132.154 10.8186 134.524 30.8849 121.036 37.5516L120.881 37.618L120.238 37.8838C119.729 37.9281 113.394 41.5161 106.551 36.865C100.792 32.9669 99.8175 25.1485 106.019 21.4276C115.255 16.6436 116.318 23.2216 112.885 24.2183L112.442 24.329C101.678 27.5848 110.515 35.1596 116.384 32.834C126.108 29.0688 124.823 13.4764 113.328 9.0024C104.225 5.45867 86.1963 10.442 76.9826 25.37C65.2661 44.3733 72.9516 71.2613 87.9239 91.6156C90.9803 95.5359 95.7201 100.962 99.8397 103.974C99.4853 103.686 99.8175 103.952 99.7511 103.908C101.169 104.705 114.303 116.444 135.476 118.171C170.05 121.516 187.015 97.7507 176.141 80.3643C171.777 73.7862 166.484 70.2646 161.279 69.3123C149.363 67.1196 139.463 78.7917 144.424 87.2745C147.281 92.125 154.081 93.9633 157.16 89.7109C157.58 89.2236 158.444 88.2269 158.023 88.7142C157.735 89.0686 158.001 88.6699 157.979 88.692C159.219 86.6987 158.289 85.1483 157.89 84.1959C152.996 79.9435 157.115 75.8239 162.054 81.3167Z" fill="url(#paint4_linear_17_1754)"/>
<path d="M74.832 66.9186C74.832 66.9186 88.6304 86.4312 107.767 84.1721C116.249 83.1754 121.587 77.0625 122.207 71.1046C124.156 52.1456 99.5717 52.9208 107.634 68.779C110.934 75.2463 97.0246 83.109 74.832 66.9186Z" fill="url(#paint5_linear_17_1754)"/>
<path d="M72.1977 86.3906C72.1977 86.3906 87.6573 112.969 81.9873 130.577C79.4845 138.373 72.242 142.337 65.9962 141.872C46.107 140.388 51.179 117.42 66.1291 127.764C72.2199 131.972 78.9308 114.165 72.1977 86.3906Z" fill="url(#paint6_linear_17_1754)"/>
<path d="M118.622 124.374C132.132 140.122 155.255 176.667 146.042 220.21C136.717 264.263 61.723 271.218 52.9301 220.897C45.001 175.559 93.9266 165.017 107.349 191.063C117.515 210.753 101.723 227.763 87.1492 225.26C80.0618 224.064 75.765 214.297 81.7672 208.627C87.7694 202.957 94.8568 209.557 92.3541 215.227C92.3541 215.227 100.638 210.642 98.5778 199.413C96.0972 185.969 69.5635 181.517 66.1083 202.691C62.6753 223.865 82.9189 247.342 107.349 239.103C125.045 233.123 136.54 215.781 131.49 181.008C126.374 145.792 97.426 114.164 97.426 114.164L118.622 124.374Z" fill="url(#paint7_linear_17_1754)"/>
<defs>
<linearGradient id="paint0_linear_17_1754" x1="131.85" y1="72.191" x2="9.61421" y2="203.055" gradientUnits="userSpaceOnUse">
<stop stop-color="#FFB9A0"/>
<stop offset="0.44" stop-color="#FF6A80"/>
<stop offset="1" stop-color="#B9B9DC"/>
</linearGradient>
<linearGradient id="paint1_linear_17_1754" x1="178.954" y1="102.91" x2="52.2457" y2="238.563" gradientUnits="userSpaceOnUse">
<stop stop-color="#FFB9A0"/>
<stop offset="0.44" stop-color="#FF6A80"/>
<stop offset="1" stop-color="#B9B9DC"/>
</linearGradient>
<linearGradient id="paint2_linear_17_1754" x1="221.615" y1="81.5057" x2="23.8147" y2="293.269" gradientUnits="userSpaceOnUse">
<stop stop-color="#FFB9A0"/>
<stop offset="0.44" stop-color="#FF6A80"/>
<stop offset="1" stop-color="#B9B9DC"/>
</linearGradient>
<linearGradient id="paint3_linear_17_1754" x1="168.486" y1="109.568" x2="40.1502" y2="246.963" gradientUnits="userSpaceOnUse">
<stop stop-color="#FFB9A0"/>
<stop offset="0.44" stop-color="#FF6A80"/>
<stop offset="1" stop-color="#B9B9DC"/>
</linearGradient>
<linearGradient id="paint4_linear_17_1754" x1="198.799" y1="117.603" x2="-23.4451" y2="355.535" gradientUnits="userSpaceOnUse">
<stop stop-color="#FFB9A0"/>
<stop offset="0.44" stop-color="#FF6A80"/>
<stop offset="1" stop-color="#B9B9DC"/>
</linearGradient>
<linearGradient id="paint5_linear_17_1754" x1="127.011" y1="62.4187" x2="-51.3668" y2="253.388" gradientUnits="userSpaceOnUse">
<stop stop-color="#FFB9A0"/>
<stop offset="0.44" stop-color="#FF6A80"/>
<stop offset="1" stop-color="#B9B9DC"/>
</linearGradient>
<linearGradient id="paint6_linear_17_1754" x1="172.752" y1="84.2963" x2="22.0622" y2="245.623" gradientUnits="userSpaceOnUse">
<stop stop-color="#FFB9A0"/>
<stop offset="0.44" stop-color="#FF6A80"/>
<stop offset="1" stop-color="#B9B9DC"/>
</linearGradient>
<linearGradient id="paint7_linear_17_1754" x1="293.334" y1="161.205" x2="129.284" y2="336.835" gradientUnits="userSpaceOnUse">
<stop stop-color="#FFB9A0"/>
<stop offset="0.44" stop-color="#FF6A80"/>
<stop offset="1" stop-color="#B9B9DC"/>
</linearGradient>
</defs>
</svg>
