<svg width="257" height="257" viewBox="0 0 257 257" fill="none" xmlns="http://www.w3.org/2000/svg">
<path d="M128.5 256.6C57.9558 256.6 0.5 199.144 0.5 128.6C0.5 58.0559 57.9558 0.600098 128.5 0.600098C162.663 0.600098 194.829 13.9103 219.01 38.0906C224.777 43.8583 224.777 53.3973 219.01 59.1651C213.242 64.9329 203.703 64.9329 197.935 59.1651C179.523 40.5308 154.677 30.3263 128.5 30.3263C74.3717 30.3263 30.2262 74.4719 30.2262 128.6C30.2262 182.728 74.3717 226.874 128.5 226.874C177.526 226.874 218.344 190.714 225.665 143.463H128.5C120.292 143.463 113.637 136.808 113.637 128.6C113.637 120.392 120.292 113.737 128.5 113.737H241.637C249.845 113.737 256.5 120.392 256.5 128.6C256.5 199.144 199.044 256.6 128.5 256.6Z" fill="#024E7F"/>
<path d="M86.129 128.6L157.782 169.862V87.3384L86.129 128.6Z" fill="#024E7F"/>
<path d="M172.868 163.429C161.11 178.735 141.589 187.609 120.292 184.503C95.2246 180.954 75.2592 160.545 72.3753 135.255C68.3823 101.092 95.2246 72.0318 128.5 72.0318C146.469 72.0318 162.663 80.4616 172.868 93.7718C175.751 97.0994 179.966 99.0959 184.403 99.0959C196.826 99.0959 203.925 84.8983 196.382 75.1375C178.857 52.9538 150.684 39.4217 119.627 42.7493C77.9213 46.9642 45.0894 81.349 42.4273 123.054C39.0998 173.19 79.0305 215.117 128.5 215.117C156.008 215.117 180.41 202.25 196.382 182.063C203.925 172.302 197.27 158.105 184.625 158.105H183.959C179.523 158.105 175.53 160.101 172.868 163.429Z" fill="#F6931E"/>
</svg>
