<svg width="257" height="232" viewBox="0 0 257 232" fill="none" xmlns="http://www.w3.org/2000/svg">
<path d="M254.727 117.466C251.032 132.667 241.979 154.629 225.446 172.86C233.098 160.724 237.758 148.307 240.052 138.85C245.48 116.52 232.713 105.977 232.713 105.977C232.713 105.977 219.631 96.4151 218.354 84.297C217.862 79.6735 217.25 75.4705 216.655 72.0377C215.184 63.4214 212.066 54.787 205.815 48.6754C181.753 25.2606 151.875 35.8215 130.457 51.6171C111.246 65.7849 94.7307 57.116 84.5918 57.571C73.6645 58.0621 63.051 61.4932 54.1538 67.8511C44.2235 74.9432 35.1867 85.8196 39.0399 100.881C46.6938 130.88 15.1175 148.095 15.1175 148.095C15.4329 148.602 15.7302 149.11 16.0636 149.619C10.7042 143.629 5.3991 136.466 0.25 127.939C0.25 127.939 35.9767 108.448 27.3243 74.5063C22.9636 57.4659 33.1731 45.1556 44.4337 37.1339C54.4856 29.953 66.5001 26.0653 78.8465 25.5053C90.3174 24.9977 109.004 34.8049 130.755 18.763C154.974 0.899619 188.793 -11.0443 216.008 15.4534C223.084 22.3534 226.604 32.1424 228.267 41.8806C228.933 45.7683 229.634 50.515 230.194 55.733C231.629 69.4459 246.428 80.2861 246.428 80.2861C246.428 80.2861 260.873 92.1956 254.727 117.466Z" fill="url(#paint0_linear_18_17029)"/>
<path d="M240.049 138.847C237.755 148.304 233.097 160.721 225.443 172.857C220.013 178.864 213.78 184.433 206.652 189.233C206.88 188.899 207.09 188.567 207.3 188.234C213.517 178.356 217.318 168.27 219.174 160.582C223.587 142.421 213.202 133.839 213.202 133.839C213.202 133.839 202.572 126.064 201.521 116.204C201.136 112.456 200.627 109.023 200.154 106.239C198.945 99.2342 196.406 92.2111 191.328 87.2377C171.766 68.2017 147.458 76.7818 130.049 89.6374C114.41 101.161 100.978 94.1032 92.7473 94.4711C83.8501 94.8735 75.2174 97.6591 67.984 102.843C59.9113 108.604 52.5547 117.449 55.6902 129.69C61.2236 151.389 41.5568 164.839 37.1091 167.588C30.1565 163.315 23.0644 157.484 16.0593 149.62C15.7276 149.112 15.4286 148.605 15.1133 148.096C15.1133 148.096 46.6895 130.881 39.0357 100.882C35.1825 85.8203 44.2193 74.9456 54.1496 67.8518C63.0467 61.4955 73.6587 58.0628 84.5876 57.5717C94.7281 57.1167 111.243 65.7856 130.453 51.6178C151.871 35.8206 181.749 25.2613 205.811 48.6761C212.062 54.7877 215.179 63.4221 216.651 72.0384C217.247 75.4712 217.86 79.6742 218.349 84.2977C219.627 96.4174 232.709 105.978 232.709 105.978C232.709 105.978 245.479 116.518 240.049 138.847Z" fill="white"/>
<path d="M153.044 183.165C153.044 183.165 156.293 214.57 137.521 231.176H189.863C189.863 231.176 171.814 174.862 180.838 151.4C180.838 151.4 200.692 132.63 189.863 126.492C179.035 120.356 167.122 137.682 167.122 137.682L109.005 96.2773C109.005 96.2773 99.6201 99.7791 105.756 125.769C111.893 151.76 86.625 155.008 86.625 155.008C86.625 155.008 96.01 164.393 97.4537 169.447C97.4537 169.447 94.2049 171.973 97.4537 175.222C100.703 178.471 100.702 178.471 100.702 178.471C100.702 178.471 93.8436 187.856 101.064 187.496C101.064 187.496 109.215 209.993 136.981 197.972C139.749 196.774 142.23 194.992 144.265 192.767L153.044 183.165Z" fill="#242424"/>
<path d="M212.755 133.852C212.755 133.852 202.125 126.06 201.076 116.207C200.686 112.457 200.182 109.036 199.716 106.239C198.512 99.2435 195.966 92.2088 190.894 87.2338C171.326 68.2093 145.656 75.5166 128.246 88.3803C112.603 99.9038 100.459 92.8116 92.2185 93.1795C83.3181 93.5869 74.7691 97.6684 67.5406 102.837C59.4762 108.609 52.1114 117.45 55.26 129.693C60.7786 151.398 41.1135 164.845 36.6641 167.586C62.4112 183.462 86.1184 177.847 96.1654 174.174C94.4358 171.454 97.0211 169.452 97.0211 169.452C95.5642 164.4 86.1776 155.013 86.1776 155.013C86.1776 155.013 111.458 151.768 105.319 125.768C99.1776 99.7872 108.564 96.269 108.564 96.269L108.729 96.3856C107.996 96.8603 106.357 99.4488 110.722 113.584C110.722 113.584 110.88 108.923 111.567 104.986C116.492 117.353 130.296 138.447 167.124 137.68V137.073C169.355 134.072 179.812 121.036 189.419 126.487C200.263 132.628 180.402 151.398 180.402 151.398C177.546 158.802 177.39 169.47 178.536 180.624L181.703 200.989L181.723 201.086C190.856 198.21 198.978 194.128 206.207 189.232C206.44 188.902 206.653 188.572 206.867 188.242C213.066 178.37 216.874 168.266 218.74 160.589C223.15 142.42 212.755 133.852 212.755 133.852Z" fill="url(#paint1_linear_18_17029)"/>
<defs>
<linearGradient id="paint0_linear_18_17029" x1="0.247208" y1="86.4306" x2="256.25" y2="86.4306" gradientUnits="userSpaceOnUse">
<stop stop-color="#FF9DA7"/>
<stop offset="1" stop-color="#BA4369"/>
</linearGradient>
<linearGradient id="paint1_linear_18_17029" x1="36.6614" y1="138.365" x2="219.83" y2="138.365" gradientUnits="userSpaceOnUse">
<stop stop-color="#FF9DA7"/>
<stop offset="1" stop-color="#BA4369"/>
</linearGradient>
</defs>
</svg>
