<svg width="198" height="256" viewBox="0 0 198 256" fill="none" xmlns="http://www.w3.org/2000/svg">
<path d="M56.9031 173.989C64.4681 173.388 75.5565 177.753 93.7231 202.201C107.738 221.059 111.341 227.403 108.906 229.579C105.542 232.588 100.908 225.138 83.8349 203.393C70.2489 186.089 60.7964 188.624 55.1796 186.175C48.1192 183.095 50.3799 174.51 56.9031 173.989Z" fill="#991554"/>
<path d="M31.453 147.261C31.8489 146.401 32.7155 145.426 36.4498 146.268C41.854 147.487 47.203 151.849 51.8153 160.77C55.9455 168.765 56.4803 171.323 55.7914 171.695C55.0724 172.081 53.4073 168.54 51.1199 164.001C48.3585 158.518 44.3476 153.344 36.7452 151.646C31.8173 150.547 30.8379 148.589 31.453 147.261Z" fill="#991554"/>
<path d="M23.7291 158.213C23.8272 157.314 24.3157 156.167 27.9575 155.797C33.2262 155.26 39.3988 157.592 46.2888 164.276C52.4598 170.267 53.7224 172.423 53.208 172.969C52.6765 173.537 50.092 170.836 46.6418 167.414C42.4701 163.285 37.2647 159.81 29.8587 160.581C25.0598 161.082 23.5781 159.606 23.7291 158.213Z" fill="#991554"/>
<path d="M90.8762 138.674C88.9863 158.154 90.0575 188.513 109.177 205.054C128.297 221.594 149.238 215.127 165.301 235.602C181.363 256.086 179.258 255.129 187.248 255.965C195.235 256.803 204.516 242.502 191.097 234.637C177.679 226.771 171.903 216.033 172.166 206.515C172.429 196.997 168.483 179.993 139.552 182.835C110.622 185.674 119.751 172.832 125.327 167.246C130.904 161.663 149.28 144.647 159.204 114.411C168.783 85.2307 152.833 60.2942 132.27 54.761C108.326 48.3189 91.7331 49.6432 96.1043 35.5525C103.203 12.6552 99.3728 -1.25371 85.5775 0.0892267C70.1592 1.59283 74.4721 22.4112 79.3261 37.319C83.8783 51.3059 94.5269 101.025 90.8762 138.674Z" fill="#FFCCDF"/>
<path d="M168.555 227.77C166.427 222.239 156.739 207.445 156.144 206.511C147.239 192.494 141.952 187.773 125.449 188.823C112.926 189.621 108.765 185.83 116.268 176.031C119.127 172.232 142.005 146.174 140.352 120.611C139.345 109.59 135.998 100.066 127.858 94.1177C105.653 77.8946 92.0383 89.077 90.6426 100.246C91.7437 113.246 92.0497 126.582 90.8779 138.676C88.9881 158.156 90.0592 188.514 109.179 205.056C126.998 220.47 146.381 215.92 161.96 231.785C166.187 236.092 170.615 233.126 168.555 227.77Z" fill="#E35991"/>
<path d="M176.15 227.675C171.326 218.269 163.197 199.057 152.115 190.363C147.391 186.656 139.953 185.772 132.501 185.83C121.957 185.909 117.477 185.052 116.282 182.289C113.344 175.505 133.674 160.958 146.104 133.728C146.944 131.888 147.621 129.936 148.314 127.954C156.832 103.742 141.182 77.8293 125.412 69.7449C104.375 58.9584 86.2501 64.3058 88.9035 84.3452C89.5162 88.9737 90.2465 96.4674 90.6213 100.417C91.8994 89.192 105.54 77.8123 127.857 94.1174C141.444 104.048 150.266 132.934 119.867 171.473C119.859 171.483 119.851 171.494 119.842 171.502C116.882 175.332 110.757 181.901 113.019 185.904C114.806 188.896 120.635 189.038 124.119 188.89C141.51 188.232 145.001 190.316 156.145 206.51C157.722 208.759 161.983 215.577 165.122 221.094C166.051 222.709 167.948 226.021 168.556 227.769C170.256 232.663 167.458 235.385 162.672 232.507C175.408 247.238 182.757 240.558 176.15 227.675Z" fill="#F792BA"/>
<path d="M118.397 191.819C113.032 192.507 110.031 190.761 109.213 188.454C108.491 186.416 109.553 184.04 110.519 182.068C110.519 182.068 118.052 169.015 125.377 154.285C127.946 149.12 131.646 136.221 125.734 126.691C115.63 110.395 103.072 112.65 97.919 116.97C91.1239 122.669 91.3869 132.793 90.8724 138.678C89.0767 159.233 90.0536 188.516 109.174 205.058C122.915 216.943 137.596 216.948 150.733 223.611C157.928 226.336 153.49 215.404 150.396 209.57C145.779 200.871 141.726 188.818 118.397 191.819Z" fill="#BF3272"/>
<path d="M141.191 209.934C141.052 203.648 132.462 195.572 125.832 194.904C119.204 194.235 107.225 196.869 105.683 191.538C104.14 186.209 107.943 181.265 114.37 170.727C120.801 160.188 122.334 153.667 116.833 146.018C108.944 135.043 97.4953 137.989 95.0715 150.617C93.4584 159.018 95.0066 176.103 95.6071 180.647C96.8323 189.903 100.453 197.536 108.119 203.302C117.475 210.338 141.345 216.975 141.191 209.934Z" fill="#991554"/>
<path d="M88.7855 186.844C82.6315 171.535 81.3064 154.824 81.2748 143.548C81.2107 121.021 77.805 90.574 62.5118 80.2711C55.9618 75.8569 48.7887 78.5403 42.4765 78.9582C35.7374 79.4037 31.5569 77.8019 29.9397 70.7635C24.8462 48.6159 15.1933 37.9146 4.71109 43.7416C-6.99965 50.2518 6.30719 66.7476 17.256 77.961C27.5305 88.4821 59.589 127.759 74.4254 161.458C77.7669 169.059 82.5406 178.247 88.7855 186.844Z" fill="#FFCCDF"/>
<path d="M43.2461 109.813C54.6607 125.404 66.8088 144.162 74.425 161.458C74.6149 161.894 74.8299 162.353 75.0295 162.797C74.3382 159.515 71.3496 147.877 68.2556 137.234C63.692 121.529 58.2797 111.636 48.669 109.829C46.2022 109.365 44.4689 109.51 43.2461 109.813Z" fill="#E35991"/>
<path d="M71.7369 133.441C68.6315 111.414 60.7296 93.9821 48.0703 89.9167C39.1534 87.0532 33.664 90.5691 32.0703 95.1903C35.5725 99.5729 39.3668 104.509 43.2447 109.807C43.2569 109.805 43.2699 109.804 43.2845 109.801C44.5057 109.507 46.2267 109.367 48.6684 109.828C58.2791 111.635 63.6914 121.528 68.255 137.233C71.3514 147.892 74.3457 159.546 75.0329 162.811C77.5127 168.294 80.7147 174.496 84.6356 180.673C84.6453 180.652 84.655 180.626 84.664 180.604C76.9877 167.336 73.6795 147.241 71.7369 133.441Z" fill="#F792BA"/>
</svg>
