<svg width="186" height="257" viewBox="0 0 186 257" fill="none" xmlns="http://www.w3.org/2000/svg">
<path d="M93.2664 136.296C117.584 136.296 137.553 117.74 139.817 94.0152H146.206V80.7398H95.828V60.8388H161.8H168.847V53.7946V32.5756H170.646C170.646 32.5756 175.783 12.7726 175.783 11.0898C175.783 11.0015 175.762 10.9129 175.762 10.8246L175.783 10.7635H175.762C175.585 5.14385 170.984 0.640915 165.32 0.640915C159.656 0.640915 155.059 5.1455 154.882 10.7635H154.868L154.882 10.8246C154.873 10.9129 154.868 11.0015 154.868 11.0898C154.868 12.771 159.991 32.5756 159.991 32.5756H161.797V53.7946H95.8256H88.7735V80.7398H40.3224V94.0152H46.697C48.9611 117.74 68.9417 136.296 93.2664 136.296Z" fill="#40290F"/>
<path d="M0.591438 157.684H10.0375V237.749H0.591438V256.641H185.909V237.749H176.468V157.684H185.909V138.799H0.591438V157.684ZM36.1247 165.933H150.377V225.468H36.1247V165.933Z" fill="#40290F"/>
<path d="M39.7322 221.879H146.784V169.538H39.7322V221.879ZM82.4533 192.184H104.051V199.304H82.4533V192.184Z" fill="#40290F"/>
</svg>
