<svg width="257" height="93" viewBox="0 0 257 93" fill="none" xmlns="http://www.w3.org/2000/svg">
<path d="M31.2363 39.3588C27.9019 41.5887 24.7135 44.9091 24.5216 48.8712C24.498 49.0846 24.498 49.3223 24.5216 49.5357C24.9776 45.7168 28.4295 42.869 31.6429 40.9707C37.5186 37.4827 39.4134 34.8976 42.2661 28.2539C38.7169 34.8274 36.8707 35.5371 31.2363 39.3588Z" fill="url(#paint0_linear_18_16555)"/>
<path d="M46.9726 19.1914C46.3519 35.8487 67.1624 41.9677 67.1624 50.532C67.1624 53.687 66.0113 56.5577 64.1179 58.7397C66.8023 56.4382 68.5303 53.0232 68.5303 49.2266C68.5303 39.9977 50.4265 36.3207 46.9726 19.1914Z" fill="url(#paint1_linear_18_16555)"/>
<path d="M221.247 37.508C228.465 23.3447 210.746 11.6239 200.508 22.0163C211.392 14.5197 226.14 25.9311 220.433 38.4095C228.897 36.2033 237.313 42.5384 237.313 51.2925C237.313 54.1625 236.38 56.938 234.677 59.1922C237.313 56.7719 238.873 53.3332 238.873 49.7264C238.872 40.4496 230.023 34.827 221.247 37.508Z" fill="url(#paint2_linear_18_16555)"/>
<path d="M196.29 37.6224C195.86 37.573 195.426 37.5508 194.997 37.5508C191.16 37.5508 187.417 39.3059 184.492 42.3435C187.084 40.4201 190.031 39.6145 193.054 39.4011C194.395 39.2816 197.468 39.5909 200.007 40.8011L198.282 37.9532C197.635 37.8107 196.844 37.6919 196.29 37.6224Z" fill="url(#paint3_linear_18_16555)"/>
<path d="M77.0717 46.0718C77.0717 36.4704 79.8194 27.5161 84.5586 19.9326C76.2466 7.89352 62.3613 0 46.6264 0C21.181 0 0.554688 20.627 0.554688 46.0718C0.554688 71.5151 21.181 92.1421 46.6264 92.1421C62.3613 92.1421 76.2466 84.2486 84.5586 72.2109C79.8194 64.6274 77.0717 55.6731 77.0717 46.0718ZM49.2219 60.0084C49.4138 68.5025 56.2417 75.4751 65.3524 74.9065L65.4962 78.382H27.9728L28.116 75.0955C37.4671 75.546 44.1519 68.4956 44.2951 59.8375C34.4886 67.5948 20.7716 62.0048 20.7716 49.8114C20.7716 38.5181 41.0518 35.3777 46.6146 14.9043C46.6383 14.9043 47.43 18.2943 49.6369 22.6609C55.4868 34.237 72.4799 40.8648 72.4799 49.7148C72.4806 61.5766 59.4607 68.7854 49.2219 60.0084Z" fill="url(#paint4_linear_18_16555)"/>
<path d="M210.483 0C193.275 0 178.281 9.4415 170.369 23.4192C173.881 30.2068 175.874 37.9037 175.874 46.071C175.874 54.2384 173.881 61.936 170.369 68.7222C178.281 82.6999 193.275 92.1414 210.483 92.1414C235.929 92.1414 256.556 71.5144 256.556 46.071C256.556 20.627 235.929 0 210.483 0ZM227.843 63.746C222.33 63.746 214.823 62.0687 212.088 57.846C212.281 68.0472 218.406 75.8205 229.268 75.0844L229.435 78.3813H210.147H189.792V75.099C200.914 75.6926 207.516 68.3169 207.636 58.14C204.831 62.2439 198.222 63.86 192.899 63.86C184.839 63.86 178.407 57.349 178.407 49.3783C178.407 39.5809 188.102 32.6981 197.406 35.5438C192.564 26.0787 199.474 14.5804 210.455 14.5804C221.437 14.5804 228.333 26.0564 223.489 35.5223C232.792 32.6765 242.442 39.5281 242.442 49.3255C242.442 57.2969 235.9 63.746 227.843 63.746Z" fill="url(#paint5_linear_18_16555)"/>
<path d="M107.074 45.7876L117.362 60.2825L110.215 45.7876L117.362 31.3164L107.074 45.7876Z" fill="url(#paint6_linear_18_16555)"/>
<path d="M145.393 45.7863L129.805 23.8164L141.338 45.7863L129.805 67.7778L145.393 45.7863Z" fill="url(#paint7_linear_18_16555)"/>
<path d="M126.473 0C101.028 0 80.4023 20.627 80.4023 46.0718C80.4023 71.5151 101.029 92.1421 126.473 92.1421C151.917 92.1421 172.543 71.5151 172.543 46.0718C172.542 20.627 151.917 0 126.473 0ZM126.472 77.6479L104.052 46.0718L126.472 14.4956L148.892 46.0718L126.472 77.6479Z" fill="url(#paint8_linear_18_16555)"/>
<path d="M46.4103 90.5107C21.9068 90.5107 1.9707 70.576 1.9707 46.0718C1.9707 21.5675 21.9068 1.63281 46.4103 1.63281C60.6591 1.63281 74.03 8.47882 82.3914 19.9987C77.6981 27.8776 75.2249 36.8673 75.2249 46.0718C75.2249 55.2756 77.6988 64.2659 82.3914 72.1442C74.0294 83.6654 60.6591 90.5107 46.4103 90.5107ZM26.053 80.044H66.9811L66.6975 73.1896L65.0348 73.2932C64.7213 73.3126 64.4106 73.3224 64.1034 73.3224C57.8051 73.3224 52.717 69.2804 51.1398 63.4826C53.5692 64.8311 56.1681 65.5324 58.8039 65.5324C67.2675 65.5324 73.8959 58.5842 73.8959 49.7155C73.8959 44.2166 68.6097 39.7679 63.0135 35.0587C58.3083 31.098 53.4434 27.0046 50.8771 21.9248C50.0388 20.267 48.8634 17.6583 48.023 14.6464C47.6914 13.453 46.8629 13.2736 46.3999 13.2736H45.1515L44.8248 14.4782C41.943 25.0882 35.0087 30.7477 28.8939 35.7405C23.5458 40.1058 18.9255 43.8774 18.9255 49.8142C18.9255 54.178 20.5673 58.1248 23.55 60.9309C26.3707 63.5841 30.1451 65.0445 34.1773 65.0445C36.9056 65.0445 39.5706 64.382 42.0347 63.1065C40.5563 69.2136 35.3048 73.4996 28.7458 73.4996C28.4928 73.4996 28.237 73.4934 27.9799 73.4816L26.3429 73.4023L26.053 80.044Z" fill="url(#paint9_linear_18_16555)"/>
<path d="M210.268 90.5107C194.579 90.5107 180.002 82.1654 172.012 68.6708C174.601 63.4513 176.246 57.944 176.927 52.2275C178.287 59.7582 184.935 65.4921 192.908 65.4921C196.871 65.4921 201.953 63.9963 205.688 61.3625C203.898 68.652 197.937 73.7346 190.501 73.7346C190.195 73.7346 188.755 73.6199 188.755 73.6199V80.044H230.939V73.3599C230.939 73.3599 229.35 73.5114 228.976 73.5114C220.937 73.5114 215.811 67.7143 214.119 61.1373C217.997 63.8197 223.437 65.3795 227.629 65.3795C236.583 65.3795 243.865 58.1776 243.865 49.3262C243.865 40.4575 236.572 33.2417 227.606 33.2417C227.034 33.2417 226.463 33.2716 225.896 33.332C227.095 29.1044 226.491 24.5509 224.118 20.6729C221.163 15.8378 215.984 12.949 210.268 12.949C204.558 12.949 199.384 15.8378 196.426 20.675C194.048 24.5613 193.437 29.1211 194.641 33.355C194.078 33.2952 193.512 33.2646 192.945 33.2646C185.501 33.2646 179.208 38.2401 177.281 45.009C177.13 37.4616 175.358 30.2256 172.012 23.4728C180.001 9.97816 194.579 1.63281 210.268 1.63281C234.773 1.63281 254.707 21.5682 254.707 46.0718C254.708 70.576 234.774 90.5107 210.268 90.5107Z" fill="url(#paint10_linear_18_16555)"/>
<path d="M126.259 90.5107C101.754 90.5107 81.8184 70.576 81.8184 46.0718C81.8184 21.5675 101.754 1.63281 126.259 1.63281C150.763 1.63281 170.7 21.5682 170.7 46.0718C170.7 70.576 150.763 90.5107 126.259 90.5107ZM101.836 46.0718L126.257 80.4659L150.682 46.0718L126.257 11.6777L101.836 46.0718Z" fill="url(#paint11_linear_18_16555)"/>
<path d="M20.6027 44.0212C22.4176 41.0323 25.508 38.5036 28.8952 35.7398C35.0107 30.747 41.9443 25.0875 44.8261 14.4775L45.1528 13.2729H46.4012C46.8642 13.2729 47.6927 13.4516 48.0243 14.6457C48.8646 17.6576 50.0401 20.2656 50.8784 21.9241C53.4447 27.0032 58.3096 31.0973 63.0147 35.058C66.559 38.0392 69.972 40.9162 72.0037 44.0226H75.2943C75.6342 35.5383 78.049 27.2902 82.3927 19.9987C74.0306 8.47813 60.6605 1.63281 46.4117 1.63281C22.5955 1.63281 3.09945 20.4672 2.02344 44.0226H20.6027V44.0212Z" fill="url(#paint12_linear_18_16555)"/>
<path d="M177.607 44.0226C179.843 37.7647 185.87 33.2646 192.946 33.2646C193.513 33.2646 194.079 33.2952 194.643 33.355C193.439 29.1211 194.05 24.5613 196.427 20.675C199.385 15.8371 204.559 12.949 210.27 12.949C215.986 12.949 221.165 15.8378 224.12 20.6729C226.492 24.5509 227.097 29.1045 225.897 33.332C226.464 33.2723 227.035 33.2417 227.608 33.2417C234.695 33.2417 240.718 37.7549 242.94 44.0226H254.657C253.583 20.4672 234.088 1.63281 210.27 1.63281C194.581 1.63281 180.003 9.97816 172.014 23.4728C175.213 29.9302 176.956 36.8325 177.237 44.0226H177.607Z" fill="url(#paint13_linear_18_16555)"/>
<path d="M103.293 44.0226L126.259 11.6777L149.225 44.0226H170.648C169.572 20.4672 150.077 1.63281 126.26 1.63281C102.443 1.63281 82.9464 20.4672 81.8711 44.0226H103.293Z" fill="url(#paint14_linear_18_16555)"/>
<defs>
<linearGradient id="paint0_linear_18_16555" x1="33.385" y1="-3.5532" x2="33.385" y2="77.3073" gradientUnits="userSpaceOnUse">
<stop stop-color="#EC2224"/>
<stop offset="1" stop-color="#C1272D"/>
</linearGradient>
<linearGradient id="paint1_linear_18_16555" x1="57.7448" y1="-3.55364" x2="57.7448" y2="77.307" gradientUnits="userSpaceOnUse">
<stop stop-color="#EC2224"/>
<stop offset="1" stop-color="#C1272D"/>
</linearGradient>
<linearGradient id="paint2_linear_18_16555" x1="219.69" y1="-3.5526" x2="219.69" y2="77.3069" gradientUnits="userSpaceOnUse">
<stop stop-color="#EC2224"/>
<stop offset="1" stop-color="#C1272D"/>
</linearGradient>
<linearGradient id="paint3_linear_18_16555" x1="192.25" y1="-3.55561" x2="192.25" y2="77.3062" gradientUnits="userSpaceOnUse">
<stop stop-color="#EC2224"/>
<stop offset="1" stop-color="#C1272D"/>
</linearGradient>
<linearGradient id="paint4_linear_18_16555" x1="42.5568" y1="-31.7176" x2="42.5568" y2="58.6677" gradientUnits="userSpaceOnUse">
<stop stop-color="#EC2224"/>
<stop offset="1" stop-color="#C1272D"/>
</linearGradient>
<linearGradient id="paint5_linear_18_16555" x1="213.463" y1="-31.7183" x2="213.463" y2="58.667" gradientUnits="userSpaceOnUse">
<stop stop-color="#EC2224"/>
<stop offset="1" stop-color="#C1272D"/>
</linearGradient>
<linearGradient id="paint6_linear_18_16555" x1="112.218" y1="-3.55322" x2="112.218" y2="77.306" gradientUnits="userSpaceOnUse">
<stop stop-color="#4E4E4E"/>
<stop offset="1"/>
</linearGradient>
<linearGradient id="paint7_linear_18_16555" x1="137.599" y1="-3.55541" x2="137.599" y2="77.305" gradientUnits="userSpaceOnUse">
<stop stop-color="#4E4E4E"/>
<stop offset="1"/>
</linearGradient>
<linearGradient id="paint8_linear_18_16555" x1="126.472" y1="-3.55431" x2="126.472" y2="77.3053" gradientUnits="userSpaceOnUse">
<stop stop-color="#4E4E4E"/>
<stop offset="1"/>
</linearGradient>
<linearGradient id="paint9_linear_18_16555" x1="42.1808" y1="3.82696" x2="42.1808" y2="64.4273" gradientUnits="userSpaceOnUse">
<stop stop-color="#EE4023"/>
<stop offset="1" stop-color="#C1272D"/>
</linearGradient>
<linearGradient id="paint10_linear_18_16555" x1="213.36" y1="3.82696" x2="213.36" y2="64.4273" gradientUnits="userSpaceOnUse">
<stop stop-color="#EE4023"/>
<stop offset="1" stop-color="#C1272D"/>
</linearGradient>
<linearGradient id="paint11_linear_18_16555" x1="126.26" y1="19.3748" x2="126.26" y2="75.0891" gradientUnits="userSpaceOnUse">
<stop stop-color="#5A5A59"/>
<stop offset="1"/>
</linearGradient>
<linearGradient id="paint12_linear_18_16555" x1="42.2086" y1="48.6931" x2="42.2086" y2="-11.3272" gradientUnits="userSpaceOnUse">
<stop stop-color="#EE4023"/>
<stop offset="1" stop-color="#C1272D"/>
</linearGradient>
<linearGradient id="paint13_linear_18_16555" x1="213.335" y1="48.6945" x2="213.335" y2="-11.3258" gradientUnits="userSpaceOnUse">
<stop stop-color="#EE4023"/>
<stop offset="1" stop-color="#C1272D"/>
</linearGradient>
<linearGradient id="paint14_linear_18_16555" x1="126.259" y1="48.6945" x2="126.259" y2="-11.3258" gradientUnits="userSpaceOnUse">
<stop stop-color="#5A5A59"/>
<stop offset="1"/>
</linearGradient>
</defs>
</svg>
