<svg width="257" height="182" viewBox="0 0 257 182" fill="none" xmlns="http://www.w3.org/2000/svg">
<path d="M112.633 12.7051C112.633 12.7051 150.025 17.1156 167.212 19.7943C159.281 24.462 106.049 36.4769 106.049 36.4769L188.342 31.4562C188.342 31.4562 169.96 43.282 111.116 56.2374C141.103 56.2399 188.981 53.648 188.981 53.648C188.981 53.648 156.816 64.9828 130.109 68.8699C159.334 72.6968 196.138 66.4687 230.427 62.3934C244.951 5.39524 182.156 -0.614652 112.633 12.7051Z" fill="#C0922D"/>
<path d="M241.676 118.18C235.23 123.662 220.978 128.966 158.863 129.981C152.344 130.087 135.431 127.892 133.692 129.667C128.428 132.455 141.348 138.693 143.505 138.951C149.636 139.687 151.002 136.545 152.903 144.179C154.403 150.2 165.029 148.623 171.619 146.727C177.762 144.961 183.556 138.587 189.79 144.092C195.952 149.534 202.66 147.939 206.264 142.181C207.009 143.884 208.55 145.138 210.809 146.079C214.412 147.582 218.593 143.644 220.785 141.493C224.086 138.251 226.671 147.322 232.334 144.114C233.754 143.309 234.986 142.557 235.452 140.961C236.142 138.599 234.932 135.082 239.315 136.29C244.614 137.75 254.821 135.801 256.421 130.056C257.931 124.629 246.185 118.244 241.676 118.18Z" fill="#336A34"/>
<path d="M237.304 144.699C243.918 182.899 161.545 178.866 145.484 174.68C161.373 171.905 177.361 167.289 181.564 166.104C170.313 164.435 145.484 160.871 145.484 160.871C231.904 156.746 237.304 144.699 237.304 144.699Z" fill="#C0922D"/>
<path d="M234.546 69.625C234.546 69.625 244.167 82.014 235.923 90.2547C226.989 95.4384 186.105 98.6779 173.395 97.0574C180.61 94.4655 200.192 89.2833 200.192 89.2833C200.192 89.2833 173.016 86.5543 163.398 85.9067C191.226 79.7516 203.846 77.9436 203.846 77.9436L146.941 78.592C198.818 72.1138 234.546 69.625 234.546 69.625Z" fill="#5C290D"/>
<path d="M238.274 93.8477C233.635 106.348 173.599 103.264 165.811 102.302C170.598 104.453 180.191 108.238 189.47 108.787C180.215 112.476 156.486 116.981 156.486 116.981C156.486 116.981 186.603 119.124 194.498 115.766C183.27 120.543 150.492 123.727 150.492 123.727C180.53 127.186 221.26 122.699 235.492 116.252C242.026 113.293 244.926 97.333 238.274 93.8477Z" fill="#B33625"/>
<path d="M175.199 109.385C175.199 109.385 147.071 106.587 127.018 108.031C133.151 110.009 150.494 114.793 175.199 109.385Z" fill="#B33625"/>
<path d="M153.756 118.244C153.756 118.244 135.607 115.847 122.613 117.576C126.549 119.464 137.689 123.999 153.756 118.244Z" fill="#B33625"/>
<path d="M13.7758 64.0133C13.6597 61.6948 15.1269 57.1854 14.9443 53.8843C26.9803 55.4861 35.0887 55.3563 44.803 53.4858C51.7388 52.3952 40.9939 50.0581 27.963 49.5631C20.7253 48.8433 18.8394 48.5925 16.3871 48.6266C17.0233 46.7107 16.8367 46.7967 17.7667 44.6779C17.7667 44.6779 36.7587 45.698 44.7487 44.6309C50.1142 43.9338 55.3118 42.4837 49.9081 41.9205C38.0717 40.6862 28.1034 41.2039 19.569 40.6911C31.6601 15.5309 48.9692 7.31943 148.659 3.75618C120.043 -1.58342 49.7417 -4.90484 25.0043 20.3398C15.6414 29.8139 9.31907 52.9048 13.7758 64.0133Z" fill="#00B596"/>
<path d="M17.583 66.918C14.6649 70.9259 10.0784 76.5276 9.81627 85.1424C9.62151 90.6849 11.4222 96.4229 16.1264 101.315L16.4226 101.44C16.9728 105.717 17.2235 107.302 17.437 108.623C-2.54189 111.027 -8.64752 142.968 20.6918 140.334C24.1618 148.335 29.8763 150.096 37.3582 146.295C41.2761 151.181 49.0842 151.706 54.7427 147.181C60.5035 152.53 66.6335 150.177 73.0783 146.043C81.1185 141.202 91.5129 158.543 105.692 147.256C87.5812 155.835 85.8341 134.368 68.3603 142.573C60.4093 146.424 61.586 145.696 55.7506 138.867C50.51 146.652 42.3359 142.515 42.3359 138.848C32.1509 145.404 29.4243 143.738 25.1282 134.314C20.3153 135.345 11.0538 134.174 9.08431 129.907C7.47756 126.543 8.0383 121.065 12.3173 118.026C12.9478 122.789 22.4933 128.981 34.9562 130.251C42.5744 130.721 37.428 128.608 33.7 126.893C22.0551 121.405 19.5079 117.341 17.4775 115.391C19.3115 114.976 20.2691 114.987 21.5837 114.969C29.2977 126.41 52.3326 129.512 66.558 128.808C60.7283 127.734 56.2675 126.67 51.5552 125.361C71.6403 126.697 90.9262 121.108 108.81 112.724C90.2161 117.361 73.3623 121.814 52.2628 119.16C42.3415 117.618 31.414 113.795 25.263 106.455C25.2492 106.305 25.2305 106.155 25.2151 106.006C31.6534 109.908 43.0841 112.744 50.6544 113.239C57.673 113.94 95.3155 112.02 65.404 109.533C37.471 107.311 34.1447 106.51 28.2898 104.933C44.7517 107.031 80.6349 107.146 112.823 102.966C90.8418 101.117 33.7925 99.8644 22.1387 95.824C22.1428 95.8256 22.2751 95.884 22.3311 95.9214L21.8084 96.2484C21.3938 96.1129 21.0091 95.9684 20.6513 95.8216C18.2671 92.5943 17.1327 88.0037 18.1032 83.1786C33.4866 92.9262 60.0288 89.4295 61.0723 89.3792C62.8576 89.3637 64.0756 89.3142 64.1462 88.9612C64.2128 88.6342 63.1911 88.0499 61.4659 87.4649C57.5359 86.2817 56.8802 86.5422 37.4872 84.4007C33.3324 83.7539 21.6672 81.7358 18.229 82.5432C18.6558 80.6232 19.4657 78.7511 20.3973 77.0778C39.3966 83.8115 100.92 86.7581 145.898 78.1084C120.949 78.8217 39.1362 78.9515 17.583 66.918Z" fill="#00B596"/>
<path d="M28.5022 167.133C28.6661 167.231 28.5338 167.152 28.5647 167.17C27.7694 166.724 27.2987 166.461 26.4937 165.569C33.2413 168.414 41.6304 168.392 49.4053 169.372C47.9893 169.197 66.5861 172.653 83.5146 171.136C87.0421 170.818 91.1621 170.245 83.5665 169.186C82.527 169.042 50.5617 164.71 48.2717 164.571C40.7289 164.24 31.2336 165.089 24.5194 162.395C24.2126 161.692 23.9538 160.972 23.7395 160.249C30.0083 163.497 42.4776 164.318 48.0104 164.371C57.8123 164.356 89.6405 162.1 62.0434 160.172C38.1686 158.463 32.9045 160.68 23.1764 157.951C22.3616 154.033 22.2691 150.022 22.3568 146.051C19.0207 153.691 18.275 167.258 25.5922 171.685C44.7498 183.727 99.4871 184.252 134.504 176.857C109.001 174.721 44.5055 174.894 28.5022 167.133Z" fill="#00B596"/>
<path d="M32.0185 68.6966C43.3331 71.6869 51.7864 71.8784 63.3817 69.8205C94.6119 64.6343 42.8965 67.2716 28.9933 65.5618C20.4459 64.6326 29.5743 68.0393 32.0185 68.6966Z" fill="#00B596"/>
<path d="M52.123 61.418C52.0686 61.0642 51.1979 60.9116 49.9799 60.755C36.1407 58.5867 29.1027 58.8383 22.6855 58.9592C17.1405 58.4536 22.0647 61.0106 24.5551 61.7856C35.3422 64.6964 52.502 63.8638 52.123 61.418Z" fill="#00B596"/>
<path d="M29.104 33.2324C28.9239 34.5097 38.622 37.5617 40.1443 37.7768C44.9768 38.5923 54.1831 36.8963 49.3742 35.1776C39.771 31.6671 29.2858 31.9316 29.104 33.2324Z" fill="#00B596"/>
<path d="M42.4413 25.2381C41.1356 25.4304 39.778 25.4856 39.4104 26.1105C38.7117 27.266 43.4678 31.0898 48.3919 29.199C49.627 28.7316 50.7517 28.0986 50.7477 27.4056C50.742 26.4318 47.6827 24.4777 42.4413 25.2381Z" fill="#00B596"/>
<path d="M60.3667 19.9547C60.3667 17.5852 45.8881 18.2563 53.1947 21.5339C57.4339 23.4295 60.3667 20.9277 60.3667 19.9547Z" fill="#00B596"/>
<path d="M26.2877 90.924C22.6961 91.2632 22.778 91.7534 26.1806 92.4099C33.3387 93.7082 44.293 97.5604 51.8934 98.5025C67.4862 100.104 102.668 98.6121 71.6142 95.586C33.0425 91.828 32.7821 90.3771 26.2877 90.924Z" fill="#00B596"/>
<path d="M70.1212 134.486C63.915 134.403 65.9689 135.299 61.018 135.809C59.9752 135.956 58.8107 136.215 60.1927 137.597C61.8506 139.336 68.723 139.514 72.9671 136.476C74.8279 135.144 72.4527 134.552 70.1212 134.486Z" fill="#00B596"/>
<path d="M44.3512 152.219C46.3588 152.219 16.1098 151.248 27.8374 154.208C41.2489 157.835 44.7026 157.506 53.1518 156.489C71.3064 154.305 49.6089 152.219 44.3512 152.219ZM44.2319 152.215C44.236 152.215 44.2352 152.215 44.2425 152.215C44.2368 152.215 44.2384 152.215 44.2319 152.215Z" fill="#00B596"/>
<path d="M223.137 50.7101C222.722 47.7733 222.182 43.8278 221.07 39.9643C216.786 25.2196 202.698 16.2778 186.995 12.9361C184.496 12.381 182.669 12.226 182.674 11.856C182.656 9.46696 207.295 11.2806 216.992 23.0488C217.467 23.6161 218.04 24.2369 218.564 24.9339C219.059 25.6448 219.657 26.363 220.155 27.2085C221.229 28.8486 222.195 30.7791 223.012 32.824C223.774 34.8885 224.378 37.0673 224.744 39.2194C226.016 46.866 224.916 63.7166 223.137 50.7101Z" fill="#FDECF2"/>
<path d="M208.392 90.62C216.236 88.7431 220.085 89.561 229.676 84.1354C229.379 84.3513 229.594 84.1939 229.529 84.2409C232.626 81.8065 233.456 78.5678 233.331 74.7303C233.308 73.3021 233.16 72.2341 233.517 72.1092C235.74 71.3123 245.776 95.4419 208.562 92.5635C204.5 92.23 204.103 91.6255 208.392 90.62Z" fill="#FDECF2"/>
<path d="M198.133 117.467C198.132 116.759 202.891 116.214 207.883 115.483C210.382 115.123 212.934 114.694 215.012 114.274C222.8 112.731 226.152 111.824 228.762 110.522C233.564 108.174 235.105 104.075 235.155 106.597C235.258 107.768 234.169 110.867 230.897 113.437C219.804 122.211 198.132 118.463 198.133 117.467Z" fill="#FDECF2"/>
<path d="M203.629 108.718C203.624 107.999 207.386 107.432 211.284 106.72C214.872 106.048 224.014 104.002 229.97 101.788C230.647 101.479 233.763 100.045 234.206 100.618C234.643 101.193 232.231 103.546 231.712 104.057C225.605 109.267 219.304 110.571 211.557 110.252C207.378 110.073 203.631 109.381 203.629 108.718Z" fill="#FDECF2"/>
<path d="M237.984 132.365C237.974 131.641 240.53 131.155 242.983 130.622C246.225 129.908 246.443 129.565 247.225 129.055C247.255 129.036 247.26 129.033 247.284 129.082C247.282 129.123 247.334 129.202 247.411 129.111C247.42 129.08 247.438 129.049 247.459 129.013C247.676 127.537 246.921 126.558 245.89 125.705C245.587 125.446 244.827 124.95 244.855 124.59C244.975 122.997 251.672 123.494 252.305 129.098C252.383 129.949 252.164 130.859 251.8 131.518C248.973 136.501 238.001 133.527 237.984 132.365Z" fill="#FDECF2"/>
<path d="M224.24 138.517C224.348 137.832 225.356 137.305 226.065 136.688C226.82 136.086 227.211 135.497 227.321 135.41C227.321 135.41 228.091 135.251 229.183 134.739C229.335 134.657 229.523 134.593 229.701 134.46C232.819 131.626 233.812 141.207 226.801 140.16C225.258 139.994 224.127 139.188 224.24 138.517Z" fill="#FDECF2"/>
<path d="M178.177 132.762C184.676 133.247 181.474 133.033 186.678 133.279C186.492 133.263 186.633 133.274 186.593 133.271C213.167 131.953 200.318 133.068 212.128 132.897C220.046 132.784 225.899 130.482 221.385 133.457C219.349 134.927 215.082 135.969 212.492 136.423C208.998 137.029 199.751 137.746 192.372 137.618C185.514 137.681 180.359 136.181 173.757 134.547C166.265 133.091 171.136 132.396 178.177 132.762Z" fill="#FDECF2"/>
<path d="M190.803 169.491C202.556 167.834 206.494 165.809 212.255 163.872C216.497 162.355 225.003 160.691 229.294 156.203C230.588 154.944 231.74 152.848 231.688 154.995C231.729 155.965 230.695 159.489 226.032 162.785C217.433 169.015 201.158 172.803 190.768 171.44C185.882 170.536 185.969 169.901 190.803 169.491Z" fill="#FDECF2"/>
<path d="M147.392 95.6241C142.388 95.3709 130.629 93.6335 128.358 93.2018C117.076 91.0903 140.634 90.2634 147.633 90.6189C150.259 90.7714 162.51 91.7793 169.212 91.3062C180.9 91.0067 161.458 96.4421 147.392 95.6241Z" fill="#5C290D"/>
<path d="M161.483 83.9082C161.497 84.6085 158.304 85.1944 154.92 85.493C149.309 86.001 149.035 86.2047 136.622 85.7365C132.311 85.8282 136.07 83.3223 139.749 82.2722C145.286 80.5884 149.213 80.8992 155.078 81.9525C158.419 82.5595 161.47 83.2249 161.483 83.9082Z" fill="#5C290D"/>
<path d="M111.097 25.1636C105.387 25.0793 84.156 23.4149 84.1836 22.1928C84.2445 19.5059 125.742 20.6412 137.546 19.9758C152.08 19.3112 126.637 25.4955 111.097 25.1636Z" fill="#C0922D"/>
<path d="M112.012 29.4782C112.225 30.1193 110.317 31.2659 108.083 31.9906C103.467 33.5008 101.982 33.3555 98.3552 32.9522C95.558 32.6584 93.1333 32.3866 95.317 30.7141C97.3465 29.2372 101.371 28.321 102.403 28.2326C103.433 28.1409 111.694 28.4996 112.012 29.4782Z" fill="#C0922D"/>
<path d="M157.095 41.3888C127.514 49.1937 131.098 46.5012 96.9097 46.8899C91.2236 46.9913 90.7578 46.4127 96.6208 44.9586C112.272 41.1859 126.079 42.7067 138.649 41.4984C143.42 41.0464 151.311 39.8226 156.746 39.4664C163.874 39.0558 163.486 39.7577 157.095 41.3888Z" fill="#C0922D"/>
<path d="M151.831 59.1494C138.582 62.1332 132.377 64.338 127.151 65.1065C117.263 66.6686 84.2911 63.7059 112.51 61.8419C135.901 59.491 140.535 56.9324 151.71 57.2034C157.134 57.7982 157.18 58.4393 151.831 59.1494Z" fill="#C0922D"/>
<path d="M161.482 166.998C161.649 168.259 142.227 171.914 135.308 171.909C122.282 172.406 105.334 165.908 115.771 166.809C143.474 167.625 161.291 165.539 161.482 166.998Z" fill="#C0922D"/>
<path d="M130.314 149.476C129.363 149.448 126.363 149.002 123.555 148.478C109.686 145.933 126.825 144.354 130.53 144.471C131.516 144.519 134.939 144.898 138.183 145.427C154.21 147.372 134.904 149.707 130.314 149.476Z" fill="#336A34"/>
<path d="M128.5 136.872C128.786 138.337 116.249 140.639 111.801 140.295C104.696 139.892 97.3127 136.965 97.5813 135.9C97.7672 135.155 101.795 135.333 104.144 135.354C105.184 135.369 128.249 135.566 128.5 136.872Z" fill="#336A34"/>
<path d="M104.891 132.143C103.717 132.113 83.1272 130.525 83.1524 129.092C83.1694 128.12 96.7302 126.082 118.789 128.13C147.382 129.547 113.477 132.544 104.891 132.143Z" fill="#336A34"/>
</svg>
