<svg width="257" height="120" viewBox="0 0 257 120" fill="none" xmlns="http://www.w3.org/2000/svg">
<path d="M41.5195 107.746C57.4879 116.007 72.5737 118.106 87.193 116.946C82.8486 115.385 78.7968 113.212 75.1347 110.528C64.3028 112.242 53.1563 111.712 41.5195 107.746Z" fill="url(#paint0_linear_18_16673)"/>
<path d="M239.384 87.1153C189.76 75.0432 139.97 96.2286 90.1701 100.834C82.0318 101.583 73.8853 101.866 65.7461 101.51C68.4589 104.918 71.618 107.953 75.1338 110.528C78.7959 113.211 82.8477 115.384 87.1922 116.946C92.1759 118.735 97.5438 119.72 103.15 119.72C113.533 119.72 123.141 116.426 130.982 110.83C139.85 116.441 150.377 119.72 161.687 119.72C175.433 119.72 188.021 114.891 197.897 106.844C203.638 109.818 210.31 111.522 217.421 111.522C233.071 111.522 246.481 103.22 252.801 91.2869C248.332 89.6141 243.853 88.2037 239.384 87.1153Z" fill="url(#paint1_linear_18_16673)"/>
<path d="M60.2937 45.1688C68.422 29.6641 84.748 18.814 102.868 18.814C122 18.814 139.958 30.833 147.233 48.5154C143.233 38.7966 137.639 29.7035 129.184 23.2535C128.256 22.5447 123.859 19.5292 120.184 17.6826C129.781 10.2339 139.452 3.32759 151.615 0.993475C163.13 -1.21808 174.958 0.287386 185.591 5.26293C198.478 11.2903 208.141 21.7911 213.591 33.8613C174.659 31.8931 100.477 84.1363 58.9127 85.0033C57.2297 85.039 55.0977 70.8862 54.9834 69.2335C54.3907 60.9451 56.4496 52.5023 60.2937 45.1688Z" fill="url(#paint2_linear_18_16673)"/>
<path d="M202.53 42.6856C168.8 50.5477 137.845 66.6405 105.3 78.0651C93.7952 82.1114 82.0478 85.6281 70.0352 87.8643C56.3387 90.4125 42.3093 91.2539 28.4985 89.2015C18.7212 87.7482 9.97101 83.3918 0.472656 81.4665C4.24273 83.818 6.04089 85.029 8.25427 86.2738C30.1357 98.5755 54.3924 99.8194 78.8896 97.5602C125.095 93.2826 169.813 77.016 216.494 77.1194C229.808 77.1541 243.169 78.5379 256.058 81.9385C256.301 80.3946 256.473 78.826 256.473 77.2236C256.472 50.0858 225.783 37.2665 202.53 42.6856ZM165.236 64.6119C164.591 64.5899 164.014 64.3823 163.657 63.9442C162.227 62.179 167.485 59.7818 168.903 61.5223C170.078 62.9628 167.287 64.6805 165.236 64.6119ZM248.54 68.1972C247.353 68.1387 245.728 65.0381 245.001 64.1509C243.295 62.1095 241.738 60.2766 239.675 58.5946C232.562 52.7959 222.394 50.9858 213.435 51.2968C200.628 51.7349 188.084 54.894 175.876 58.5946C173.639 59.2742 172.359 59.6556 172.359 59.6556C172.082 59.737 171.783 59.586 171.703 59.3098C171.644 59.1132 171.773 58.9174 171.991 58.7107C172.775 57.9964 174.826 57.2693 175.276 57.0617C182.4 53.7535 189.802 50.9749 197.446 49.1182C207.947 46.571 219.026 45.5566 229.496 48.7377C237.15 51.091 243.698 56.3227 247.455 63.4028C247.873 64.1857 250.511 68.2896 248.54 68.1972Z" fill="url(#paint3_linear_18_16673)"/>
<defs>
<linearGradient id="paint0_linear_18_16673" x1="82.3432" y1="105.379" x2="65.5527" y2="111.883" gradientUnits="userSpaceOnUse">
<stop stop-color="#FCB614"/>
<stop offset="1" stop-color="#F37421"/>
</linearGradient>
<linearGradient id="paint1_linear_18_16673" x1="396.993" y1="-941.802" x2="192.149" y2="-47.1761" gradientUnits="userSpaceOnUse">
<stop stop-color="#29A9E1"/>
<stop offset="1" stop-color="#0D72B9"/>
</linearGradient>
<linearGradient id="paint2_linear_18_16673" x1="144.673" y1="2.15761" x2="122.09" y2="100.786" gradientUnits="userSpaceOnUse">
<stop stop-color="#29A9E1"/>
<stop offset="1" stop-color="#0D72B9"/>
</linearGradient>
<linearGradient id="paint3_linear_18_16673" x1="252.365" y1="30.4063" x2="50.5299" y2="113.833" gradientUnits="userSpaceOnUse">
<stop stop-color="#FCB614"/>
<stop offset="1" stop-color="#F37421"/>
</linearGradient>
</defs>
</svg>
