<svg width="256" height="158" viewBox="0 0 256 158" fill="none" xmlns="http://www.w3.org/2000/svg">
<path d="M82.8585 157.707H78.4037C35.1926 157.707 0 122.515 0 79.3036C0 36.0925 35.1926 0.899902 78.4037 0.899902H124.139L100.529 22.4312H78.4037C47.0719 22.4312 21.5313 47.9718 21.5313 79.3036C21.5313 109.15 44.8445 133.8 74.0974 136.028L138.394 71.7305L153.689 86.8766L82.8585 157.707Z" fill="#024E7F"/>
<path d="M156.807 124.742H135.276V90.1436H100.529V68.4639H156.807V124.742Z" fill="#024E7F"/>
<path d="M177.596 0.899902C140.77 0.899902 109.736 26.589 101.42 61.0391H123.842C131.415 38.6168 152.65 22.4312 177.596 22.4312C208.928 22.4312 234.469 47.9718 234.469 79.3036C234.469 110.635 208.928 136.176 177.596 136.176C172.993 136.176 168.538 135.582 164.381 134.543V156.519C168.637 157.311 173.043 157.707 177.596 157.707C220.808 157.707 256 122.515 256 79.3036C256 36.0925 220.808 0.899902 177.596 0.899902Z" fill="#EA1C24"/>
</svg>
