<svg width="257" height="165" viewBox="0 0 257 165" fill="none" xmlns="http://www.w3.org/2000/svg">
<path d="M250.349 142.807C269.309 111.437 239.777 73.0294 201.736 80.9552C202.489 62.9752 190.815 48.4589 175.081 40.0365C160.558 11.7592 146.933 0 146.933 0C158.707 15.5503 164.893 27.4761 167.91 36.7173C176.232 62.2044 161.324 75.4941 153.907 87.274C147.147 98.0128 150.514 110.56 150.514 110.56C141.986 112.372 146.679 113.87 147.731 113.741C166.572 111.443 174.996 121.748 174.996 121.748C180.965 120.951 187.124 128.252 187.124 128.252C187.124 128.252 178.139 120.522 168.391 133.041C160.622 143.029 131.317 153.758 108.547 149.626C75.0844 143.556 21.7018 153.181 17.862 155.733C17.7077 155.835 24.3552 155.152 34.2226 154.564C43.0814 160.697 53.5381 163.879 64.2244 164.118C64.2244 164.118 201.653 164.118 201.785 164.118C216.633 164.871 234.403 158.154 234.403 158.154C241.021 154.424 246.529 149.126 250.349 142.807Z" fill="url(#paint0_linear_18_17086)"/>
<path d="M115.511 119.707C113.126 111.357 108.784 97.6243 129.829 70.792C143.429 53.4602 144.475 24.2111 140.732 2.86132C140.665 2.4931 141.902 19.5895 137.919 31.3655C105.416 31.7727 78.9259 50.9579 76.371 75.2865C44.3253 69.1077 13.6558 91.124 14.8078 120.87C8.34248 118.905 3.23727 116.854 0.25 115.557C3.76303 117.438 8.64976 120.666 15.0405 123.839C53.4303 142.904 80.1427 127.771 115.511 119.707Z" fill="url(#paint1_linear_18_17086)"/>
<path d="M141.766 107.509C141.766 107.509 139.541 92.1805 154.87 75.8451C166.063 63.9142 164.355 45.3507 157.836 30.7812C160.791 40.6435 162.96 60.3422 153.629 72.3003C141.766 87.4999 138.431 96.6504 141.766 107.509Z" fill="url(#paint2_linear_18_17086)"/>
<path d="M165.269 119.416C165.241 120.016 164.758 120.495 164.149 120.495C162.556 120.495 162.703 117.978 164.342 118.275C163.955 118.021 163.496 117.871 162.998 117.871C159.769 117.871 159.775 122.759 162.998 122.759C164.696 122.759 165.916 121.05 165.269 119.416Z" fill="url(#paint3_linear_18_17086)"/>
<defs>
<linearGradient id="paint0_linear_18_17086" x1="347.429" y1="-38.1924" x2="51.1762" y2="183.875" gradientUnits="userSpaceOnUse">
<stop stop-color="white"/>
<stop offset="0.291" stop-color="#00C0F3"/>
<stop offset="0.7249" stop-color="#1C75BC"/>
<stop offset="0.8785" stop-color="#2556A2"/>
<stop offset="1" stop-color="#2B3990"/>
</linearGradient>
<linearGradient id="paint1_linear_18_17086" x1="316.375" y1="-79.8324" x2="20.0226" y2="142.31" gradientUnits="userSpaceOnUse">
<stop stop-color="white"/>
<stop offset="0.291" stop-color="#00C0F3"/>
<stop offset="0.7249" stop-color="#1C75BC"/>
<stop offset="0.8785" stop-color="#2556A2"/>
<stop offset="1" stop-color="#2B3990"/>
</linearGradient>
<linearGradient id="paint2_linear_18_17086" x1="327.949" y1="-64.3928" x2="31.5957" y2="157.75" gradientUnits="userSpaceOnUse">
<stop stop-color="white"/>
<stop offset="0.291" stop-color="#00C0F3"/>
<stop offset="0.7249" stop-color="#1C75BC"/>
<stop offset="0.8785" stop-color="#2556A2"/>
<stop offset="1" stop-color="#2B3990"/>
</linearGradient>
<linearGradient id="paint3_linear_18_17086" x1="258.227" y1="48.9107" x2="144.021" y2="134.518" gradientUnits="userSpaceOnUse">
<stop stop-color="white"/>
<stop offset="0.291" stop-color="#00C0F3"/>
<stop offset="0.7249" stop-color="#1C75BC"/>
<stop offset="0.8785" stop-color="#2556A2"/>
<stop offset="1" stop-color="#2B3990"/>
</linearGradient>
</defs>
</svg>
