<svg width="257" height="168" viewBox="0 0 257 168" fill="none" xmlns="http://www.w3.org/2000/svg">
<path d="M28.9053 124.03C26.3323 117.299 24.8945 111.573 24.0898 107.375C31.5389 108.022 38.9512 108.219 45.9988 108.054C47.2229 112.171 49.2842 117.914 52.6679 124.631C44.5645 124.894 36.6166 124.657 28.9053 124.03Z" fill="url(#paint0_linear_18_16615)"/>
<path d="M35.8398 146.65C26.2995 145.768 16.5568 144.23 6.81065 142.068C3.4654 136.542 1.22726 130.35 0.25 123.973C8.91551 125.75 17.5802 127.045 26.0689 127.832C28.7119 134.323 31.9931 140.634 35.8398 146.65Z" fill="url(#paint1_linear_18_16615)"/>
<path d="M50.842 165.605C46.6433 165.391 42.3251 165.082 37.9453 164.679C26.9819 162.135 17.0914 155.765 10.1523 146.902C19.7627 148.859 29.3439 150.217 38.721 150.943C42.3456 156.104 46.4084 161.018 50.842 165.605Z" fill="url(#paint2_linear_18_16615)"/>
<path d="M101.154 142.174C96.0683 136.681 91.5459 130.721 87.6719 124.411C94.7639 122.878 101.737 120.94 108.458 118.633C113.126 124.448 118.347 129.939 124.024 135.003C116.651 137.867 108.979 140.274 101.154 142.174Z" fill="url(#paint3_linear_18_16615)"/>
<path d="M72.5821 146.83C67.5001 141.085 63.0298 134.885 59.2617 128.353C67.4642 127.823 75.5873 126.79 83.4763 125.273C87.2606 131.62 91.6796 137.639 96.6463 143.214C88.7948 144.912 80.7205 146.127 72.5821 146.83Z" fill="url(#paint4_linear_18_16615)"/>
<path d="M149.202 148.288C143.06 144.718 137.187 140.669 131.692 136.225C140.517 132.408 146.457 129.111 153.623 124.843C147.494 119.743 141.521 114.774 132.498 103.753C118.46 111.153 103.801 116.932 85.5216 120.747C81.915 114.334 79.5948 108.727 78.1562 104.619C92.9091 101.718 107.275 96.9275 120.395 89.587C139.9 78.6765 156.892 59.2944 166.06 37.5708C196.705 35.9392 215.878 59.9778 210.878 83.3936C199.188 110.719 178.292 133.79 149.202 148.288Z" fill="url(#paint5_linear_18_16615)"/>
<path d="M92.1424 164.459C86.307 160.257 80.9056 155.594 76.0312 150.553C84.0902 149.73 92.0706 148.417 99.8187 146.637C104.584 151.579 109.858 156.177 115.546 160.353C108.051 162.154 100.204 163.531 92.1424 164.459Z" fill="url(#paint6_linear_18_16615)"/>
<path d="M64.8917 165.973C62.2341 165.973 59.5176 165.933 56.7985 165.851C52.107 161.338 47.8015 156.455 43.9531 151.292C52.7579 151.763 61.7455 151.713 70.9201 151.016C75.5416 156.063 80.6637 160.77 86.2069 165.065C74.666 166.075 64.7285 165.973 64.8917 165.973Z" fill="url(#paint7_linear_18_16615)"/>
<path d="M158.289 24.5391C136.971 91.2645 55.4862 103.266 3.50424 92.6621C2.66707 94.2646 1.90936 95.9125 1.24219 97.6048C52.9149 110.354 140.195 99.9215 161.959 30.0908C160.837 28.1688 159.607 26.3193 158.289 24.5391Z" fill="url(#paint8_radial_18_16615)"/>
<path d="M158.293 24.5366C147.276 9.66327 129.64 0 109.707 0C74.8641 0 46.7875 29.4793 49.3503 64.9828C29.1114 64.9828 12.0324 76.3503 3.50781 92.6596C55.4898 103.264 136.975 91.2629 158.293 24.5366Z" fill="url(#paint9_radial_18_16615)"/>
<path d="M222.699 86.5455C220.647 86.1653 218.545 85.933 216.398 85.8672C198.947 126.568 162.92 157.456 108.77 167.999C109.102 167.999 111.571 167.999 115.532 167.999C169.171 157.423 205.2 126.841 222.699 86.5455Z" fill="url(#paint10_radial_18_16615)"/>
<path d="M256.248 126.895C256.248 106.781 241.786 90.0808 222.699 86.5391C205.199 126.835 169.17 157.416 115.531 167.993C138.693 167.993 213.261 167.993 215.149 167.993C237.85 167.993 256.248 149.594 256.248 126.895Z" fill="url(#paint11_radial_18_16615)"/>
<path d="M83.4788 125.273C77.9476 126.336 72.301 127.157 66.5938 127.738C68.8011 134.486 71.9755 140.796 75.9512 146.508C82.9475 145.781 89.8823 144.679 96.6479 143.215C91.6813 137.639 87.2632 131.62 83.4788 125.273Z" fill="url(#paint12_linear_18_16615)"/>
<path d="M99.8187 146.637C92.9412 148.218 85.8808 149.428 78.7461 150.255C83.002 155.599 87.9959 160.328 93.5793 164.284C101.135 163.361 108.499 162.047 115.546 160.352C109.858 156.177 104.584 151.579 99.8187 146.637Z" fill="url(#paint13_linear_18_16615)"/>
<path d="M120.395 89.581C107.275 96.9215 92.9083 101.712 78.1562 104.613C79.5957 108.721 81.9149 114.328 85.5216 120.741C103.801 116.926 118.461 111.147 132.498 103.747C141.52 114.768 147.494 119.737 153.623 124.837C146.457 129.105 140.517 132.402 131.692 136.219C137.187 140.663 143.06 144.712 149.202 148.282C175.026 135.411 194.388 115.779 206.59 92.4154C202.361 68.7125 186.589 49.0084 165.297 39.3203C155.968 60.3297 139.371 78.9652 120.395 89.581Z" fill="url(#paint14_linear_18_16615)"/>
<path d="M63.8281 94.2847C100.85 89.0644 137.4 71.7171 154.106 35.3116C112.104 24.0756 70.2179 52.0925 63.8281 94.2847Z" fill="url(#paint15_radial_18_16615)"/>
<path d="M207.273 113.223C187.262 140.109 156.554 159.907 115.531 167.995C126.765 167.995 150.088 167.995 171.35 167.995C190.891 156.771 204.688 136.685 207.273 113.223Z" fill="url(#paint16_radial_18_16615)"/>
<defs>
<linearGradient id="paint0_linear_18_16615" x1="261.017" y1="-12.237" x2="1.36832" y2="137.321" gradientUnits="userSpaceOnUse">
<stop stop-color="white"/>
<stop offset="0.2247" stop-color="#F8991D"/>
<stop offset="0.6685" stop-color="#F37021"/>
<stop offset="1" stop-color="#B72025"/>
</linearGradient>
<linearGradient id="paint1_linear_18_16615" x1="264.302" y1="-6.53218" x2="4.6535" y2="143.026" gradientUnits="userSpaceOnUse">
<stop stop-color="white"/>
<stop offset="0.2247" stop-color="#F8991D"/>
<stop offset="0.6685" stop-color="#F37021"/>
<stop offset="1" stop-color="#B72025"/>
</linearGradient>
<linearGradient id="paint2_linear_18_16615" x1="276.44" y1="14.5908" x2="16.8167" y2="164.134" gradientUnits="userSpaceOnUse">
<stop stop-color="white"/>
<stop offset="0.2247" stop-color="#F8991D"/>
<stop offset="0.6685" stop-color="#F37021"/>
<stop offset="1" stop-color="#B72025"/>
</linearGradient>
<linearGradient id="paint3_linear_18_16615" x1="283.747" y1="27.2368" x2="24.1027" y2="176.792" gradientUnits="userSpaceOnUse">
<stop stop-color="white"/>
<stop offset="0.2247" stop-color="#F8991D"/>
<stop offset="0.6685" stop-color="#F37021"/>
<stop offset="1" stop-color="#B72025"/>
</linearGradient>
<linearGradient id="paint4_linear_18_16615" x1="279.425" y1="19.7354" x2="19.7808" y2="169.291" gradientUnits="userSpaceOnUse">
<stop stop-color="white"/>
<stop offset="0.2247" stop-color="#F8991D"/>
<stop offset="0.6685" stop-color="#F37021"/>
<stop offset="1" stop-color="#B72025"/>
</linearGradient>
<linearGradient id="paint5_linear_18_16615" x1="280.8" y1="22.1292" x2="21.1622" y2="171.681" gradientUnits="userSpaceOnUse">
<stop stop-color="white"/>
<stop offset="0.2247" stop-color="#F8991D"/>
<stop offset="0.6685" stop-color="#F37021"/>
<stop offset="1" stop-color="#B72025"/>
</linearGradient>
<linearGradient id="paint6_linear_18_16615" x1="292.377" y1="42.2177" x2="32.7341" y2="191.772" gradientUnits="userSpaceOnUse">
<stop stop-color="white"/>
<stop offset="0.2247" stop-color="#F8991D"/>
<stop offset="0.6685" stop-color="#F37021"/>
<stop offset="1" stop-color="#B72025"/>
</linearGradient>
<linearGradient id="paint7_linear_18_16615" x1="285.901" y1="30.9863" x2="26.2648" y2="180.537" gradientUnits="userSpaceOnUse">
<stop stop-color="white"/>
<stop offset="0.2247" stop-color="#F8991D"/>
<stop offset="0.6685" stop-color="#F37021"/>
<stop offset="1" stop-color="#B72025"/>
</linearGradient>
<radialGradient id="paint8_radial_18_16615" cx="0" cy="0" r="1" gradientUnits="userSpaceOnUse" gradientTransform="translate(81.5998 63.411) scale(63.1208 63.1208)">
<stop offset="0.0275" stop-color="white"/>
<stop offset="0.3352" stop-color="#47A7DE"/>
<stop offset="1" stop-color="#232365"/>
</radialGradient>
<radialGradient id="paint9_radial_18_16615" cx="0" cy="0" r="1" gradientUnits="userSpaceOnUse" gradientTransform="translate(12.4117 -37.6303) scale(152.08 152.08)">
<stop offset="0.0275" stop-color="white"/>
<stop offset="0.3352" stop-color="#47A7DE"/>
<stop offset="1" stop-color="#232365"/>
</radialGradient>
<radialGradient id="paint10_radial_18_16615" cx="0" cy="0" r="1" gradientUnits="userSpaceOnUse" gradientTransform="translate(165.735 126.933) scale(49.6558 49.6558)">
<stop offset="0.0275" stop-color="white"/>
<stop offset="0.3352" stop-color="#47A7DE"/>
<stop offset="1" stop-color="#232365"/>
</radialGradient>
<radialGradient id="paint11_radial_18_16615" cx="0" cy="0" r="1" gradientUnits="userSpaceOnUse" gradientTransform="translate(161.614 59.2989) scale(119.28 119.28)">
<stop offset="0.0275" stop-color="white"/>
<stop offset="0.3352" stop-color="#47A7DE"/>
<stop offset="1" stop-color="#232365"/>
</radialGradient>
<linearGradient id="paint12_linear_18_16615" x1="68.1603" y1="140.915" x2="159.556" y2="103.988" gradientUnits="userSpaceOnUse">
<stop stop-color="white"/>
<stop offset="0.0202" stop-color="#FFFDFA"/>
<stop offset="0.035" stop-color="#FFF7EF"/>
<stop offset="0.048" stop-color="#FFF0DF"/>
<stop offset="0.0601" stop-color="#FFE7CB"/>
<stop offset="0.0715" stop-color="#FFDBB2"/>
<stop offset="0.0823" stop-color="#FECD94"/>
<stop offset="0.0928" stop-color="#FCBD73"/>
<stop offset="0.1026" stop-color="#FAAA49"/>
<stop offset="0.1114" stop-color="#F8991D"/>
<stop offset="0.1809" stop-color="#F37021"/>
<stop offset="0.1817" stop-color="#F16F21"/>
<stop offset="0.1988" stop-color="#D85324"/>
<stop offset="0.2171" stop-color="#C83E25"/>
<stop offset="0.2374" stop-color="#BE2E25"/>
<stop offset="0.261" stop-color="#B82325"/>
<stop offset="0.2956" stop-color="#B72025"/>
</linearGradient>
<linearGradient id="paint13_linear_18_16615" x1="85.9396" y1="161.716" x2="169.023" y2="114.173" gradientUnits="userSpaceOnUse">
<stop stop-color="white"/>
<stop offset="0.0202" stop-color="#FFFDFA"/>
<stop offset="0.035" stop-color="#FFF7EF"/>
<stop offset="0.048" stop-color="#FFF0DF"/>
<stop offset="0.0601" stop-color="#FFE7CB"/>
<stop offset="0.0715" stop-color="#FFDBB2"/>
<stop offset="0.0823" stop-color="#FECD94"/>
<stop offset="0.0928" stop-color="#FCBD73"/>
<stop offset="0.1026" stop-color="#FAAA49"/>
<stop offset="0.1114" stop-color="#F8991D"/>
<stop offset="0.1809" stop-color="#F37021"/>
<stop offset="0.1817" stop-color="#F16F21"/>
<stop offset="0.1988" stop-color="#D85324"/>
<stop offset="0.2171" stop-color="#C83E25"/>
<stop offset="0.2374" stop-color="#BE2E25"/>
<stop offset="0.261" stop-color="#B82325"/>
<stop offset="0.2956" stop-color="#B72025"/>
</linearGradient>
<linearGradient id="paint14_linear_18_16615" x1="181.745" y1="50.8395" x2="124.509" y2="122.846" gradientUnits="userSpaceOnUse">
<stop stop-color="white"/>
<stop offset="0.2247" stop-color="#F8991D"/>
<stop offset="0.6685" stop-color="#F37021"/>
<stop offset="1" stop-color="#B72025"/>
</linearGradient>
<radialGradient id="paint15_radial_18_16615" cx="0" cy="0" r="1" gradientUnits="userSpaceOnUse" gradientTransform="translate(94.338 34.2235) scale(74.6141 74.6141)">
<stop offset="0.0275" stop-color="white"/>
<stop offset="0.3352" stop-color="#47A7DE"/>
<stop offset="1" stop-color="#232365"/>
</radialGradient>
<radialGradient id="paint16_radial_18_16615" cx="0" cy="0" r="1" gradientUnits="userSpaceOnUse" gradientTransform="translate(206.043 148.734) scale(63.2796 63.2796)">
<stop offset="0.0275" stop-color="white"/>
<stop offset="0.3352" stop-color="#47A7DE"/>
<stop offset="1" stop-color="#232365"/>
</radialGradient>
</defs>
</svg>
