<svg width="257" height="137" viewBox="0 0 257 137" fill="none" xmlns="http://www.w3.org/2000/svg">
<path d="M255.188 87.6735C255.083 87.4841 255.121 87.2759 255.121 87.0756C255.119 85.9773 254.993 84.8891 254.9 83.7974C254.797 82.5762 254.401 81.4251 254.15 80.24C253.162 75.5967 252.323 70.9078 249.574 66.8675C249.405 66.6174 249.276 66.3368 249.141 66.0643C247.769 63.2726 245.999 60.7608 243.859 58.5049C243.199 57.8094 242.508 57.1492 241.657 56.6937C240.706 56.1847 239.798 55.6157 238.936 54.9679C238.44 54.5955 237.88 54.3374 237.245 54.388C236.828 54.4212 236.747 54.234 236.69 53.8754C235.916 48.9906 234.441 44.3205 232.266 39.8839C229.507 34.2559 225.931 29.251 220.923 25.3727C220.886 25.3445 220.875 25.2823 220.826 25.1803V25.1789C221.777 25.155 222.668 24.9461 223.581 24.9989C223.988 25.0227 224.392 25.0047 224.79 24.8897C225.727 24.6193 226.031 23.6634 225.382 22.9382C225.142 22.6693 224.834 22.456 224.542 22.2398C223.012 21.114 221.202 20.6137 219.446 20.0099C217.386 19.3028 215.29 18.6991 213.183 17.8502C213.183 17.8264 213.189 17.8054 213.194 17.7852C214.332 17.4171 215.397 17.0831 216.452 16.7252C217.462 16.3825 218.378 15.8699 219.148 15.1208C219.479 14.799 219.631 14.3999 219.461 13.9567C219.303 13.5446 218.957 13.3349 218.519 13.2879C218.217 13.2554 217.914 13.2062 217.611 13.204C213.529 13.1773 209.442 12.9633 205.378 13.5402C204.045 13.7297 202.696 13.546 201.367 13.7687C200.276 13.9517 199.162 13.969 198.084 14.2734C198.165 14.0203 198.22 13.8063 198.301 13.6024C199.426 10.7443 200.014 7.73863 200.729 4.76769C201.114 3.16978 200.64 1.99847 199.238 1.1359C198.506 0.686169 197.729 0.347786 196.87 0.22704C196.289 0.145337 195.706 0.0759236 195.123 0.000728152C194.715 5.1191e-06 194.308 0 193.901 0C192.831 0.247277 191.808 0.589279 191.277 1.66371C190.651 2.92974 190.098 4.22541 189.621 5.55868C188.857 7.68873 188.009 9.78843 187.188 11.9235C187.056 11.844 186.971 11.7927 186.886 11.7421C185.373 10.839 183.88 9.91785 182.145 9.45005C179.054 8.61711 175.968 7.77334 172.816 7.1913C172.234 7.08356 171.656 6.99752 171.063 7.05536C170.509 7.10887 170.092 7.37205 169.897 7.89553C169.692 8.44648 169.841 8.94826 170.274 9.33291C171.122 10.0863 171.934 10.8889 173.005 11.3458C173.536 11.5729 173.925 11.985 174.384 12.5049C174.382 12.5106 174.384 12.5164 174.381 12.5229C174.371 12.549 174.354 12.5634 174.339 12.5815C173.685 12.4759 173.159 12.3776 172.634 12.3176C170.867 12.1159 169.154 12.5678 167.457 12.9033C164.955 13.3978 162.5 14.123 160.004 14.6675C158.719 14.948 157.479 15.4237 156.295 16.0101C155.514 16.3969 154.733 16.8047 154.156 17.4895C153.303 18.5031 153.559 19.7468 154.741 20.3288C154.994 20.4532 155.269 20.5399 155.54 20.6158C156.531 20.8942 157.548 20.9058 158.564 20.8667C159.772 20.8197 160.966 20.9289 162.283 21.1473C162.291 21.1711 162.291 21.1921 162.294 21.2138C161.187 22.0265 160.341 22.9339 159.722 24.0394C159.652 24.1645 159.516 24.2209 159.375 24.2686C157.456 24.9128 155.915 26.1138 154.56 27.5765C153.676 28.5309 152.747 29.4383 151.81 30.3414C150.29 31.8077 148.787 33.2949 147.765 35.185C146.538 37.4531 144.978 39.5239 143.821 41.834C143.72 42.0371 143.641 42.0675 143.469 41.9215C142.619 41.1984 141.572 40.9504 140.522 40.7104C139.107 40.3872 137.652 41.0061 136.99 42.3162C136.272 43.7355 135.967 45.2792 136.086 46.8569C136.216 48.5914 137.167 50.0223 138.071 51.4409C138.571 52.2247 139.11 53.0084 140.01 53.4104C140.33 53.5536 140.229 53.7871 140.201 54.0257C139.815 57.2888 139.167 60.5424 139.863 63.885C139.858 63.8886 139.855 63.893 139.85 63.8966C139.843 63.9009 139.838 63.9024 139.831 63.906C138.782 63.4787 138.014 62.7896 137.482 61.8678C136.843 60.7593 136.154 59.6857 135.429 58.6344C135.28 58.4189 135.244 58.2114 135.291 57.9511C135.538 56.5694 135.678 55.1725 135.605 53.7705C135.454 50.8856 134.224 48.6449 131.597 47.2777C130.553 46.734 129.437 46.3789 128.307 46.0796C127.663 45.909 127.141 45.4094 126.435 45.4159C126.388 45.4166 126.317 45.3052 126.294 45.2344C126.147 44.7586 125.844 44.3487 125.831 43.81C125.812 43.0414 125.047 42.3697 124.279 42.4066C122.98 42.4695 122.128 43.2114 121.507 44.2894C120.389 43.6228 119.763 43.711 118.88 44.721C118.507 45.1469 118.148 45.5952 117.856 46.0782C117.665 46.3941 117.443 46.5221 117.098 46.5865C115.829 46.8215 114.907 47.5025 114.482 48.757C114.367 49.0997 114.34 49.4743 114.213 49.8112C113.749 51.0403 113.653 52.2926 113.883 53.5803C113.927 53.8269 113.959 54.0583 113.798 54.3287C112.912 55.8138 112.204 57.3785 111.892 59.0957C111.801 59.5982 111.736 60.1238 112.02 60.5786C112.255 60.9531 112.08 61.0782 111.785 61.2611C110.248 62.2119 108.718 63.1757 107.343 64.3579C104.463 66.8343 100.97 67.9687 97.3384 68.9911C97.3348 68.9882 97.3297 68.9868 97.3261 68.9846C97.5344 66.8524 97.5951 64.7664 97.9356 62.7043C97.9725 62.4823 98.0868 62.3898 98.2733 62.3341C100.317 61.7203 101.749 60.3176 103.01 58.6843C103.794 57.6691 103.94 56.5643 103.591 55.3525C103.173 53.8985 101.933 53.1328 100.463 53.4755C100.041 53.5739 99.6355 53.7438 99.219 53.8819C99.206 53.8233 99.185 53.7828 99.1908 53.7459C99.6854 50.3513 100.127 46.948 100.693 43.5656C101.34 39.6981 101.926 35.8292 102.066 31.9046C102.071 31.7643 102.04 31.6059 102.17 31.5091C102.49 31.2697 102.344 31.0138 102.202 30.7651C101.882 30.2083 101.353 29.8924 100.796 29.6465C99.8517 29.2293 98.8821 28.87 97.9306 28.4687C95.8584 27.5953 93.8426 26.5917 91.7212 25.8304C86.5638 23.9787 81.1924 22.9548 75.8788 21.7083C71.114 20.5905 66.2335 20.1459 61.4254 19.2753C57.7234 18.6051 53.9507 18.5407 50.2256 18.0527C47.4622 17.6904 44.6771 17.6427 41.897 17.5184C36.3542 17.2711 30.8078 17.2053 25.2622 17.227C23.3931 17.2342 21.5046 17.3767 19.8633 18.4388C16.8041 20.4177 13.8766 22.5854 11.3308 25.1955C8.94765 27.6387 6.83857 30.3341 4.70779 32.9999C3.88859 34.0252 3.10916 35.1213 2.84019 36.4488C2.56833 37.7886 2.92696 39.1139 3.18002 40.4074C3.60733 42.5931 4.1807 44.7507 4.48799 46.961C4.54366 47.363 4.56463 47.7693 4.61596 48.1721C4.91313 50.5075 5.25368 52.8385 5.50601 55.1783C6.08878 60.5851 6.27532 66.0339 7.34903 71.3879C8.09809 75.1238 8.12267 78.987 9.30483 82.6499C9.39377 82.9247 9.32435 83.1488 9.14938 83.3816C8.51456 84.2254 7.88768 85.0706 7.16393 85.8457C6.26158 86.8131 5.48432 87.8781 4.88348 89.0668C4.51763 89.7906 4.14454 90.5121 3.73675 91.2128C1.91688 94.3413 0.747736 97.6904 0.313193 101.286C0.185216 102.347 0.206186 103.412 0.812088 104.35C1.02683 104.682 1.17143 105.015 1.26904 105.391C1.75564 107.272 3.9674 108.641 5.75257 108.127C6.20953 107.995 6.47343 108.063 6.81398 108.377C7.60209 109.104 8.48274 109.712 9.6367 109.551C10.0279 109.497 10.3243 109.563 10.6598 109.76C11.847 110.459 13.0545 110.144 13.8563 109.033C14.3972 108.283 14.7449 107.521 14.57 106.568C14.4977 106.174 14.5222 105.757 14.5403 105.352C14.6271 103.487 14.6719 101.616 15.4586 99.8653C15.8034 99.0982 16.2004 98.9933 16.8641 99.5443C16.9878 99.647 17.0839 99.7829 17.1996 99.8964C18.6189 101.289 20.3217 102.148 22.2688 102.487C23.1654 102.643 24.0865 102.718 24.9758 102.373C25.8767 102.024 26.1392 101.462 25.8283 100.56C25.7827 100.429 25.7799 100.283 25.735 100.152C25.5695 99.6643 25.7849 99.5978 26.2289 99.6028C30.4752 99.6469 34.7216 99.6282 38.968 99.5233C39.3143 99.5146 39.8761 99.3223 39.9658 99.6043C40.088 99.9904 39.6577 100.345 39.3403 100.634C39.3252 100.648 39.31 100.661 39.2933 100.673C38.1914 101.469 37.1293 102.317 35.9565 103.017C35.1627 103.491 34.3565 103.751 33.4173 103.664C32.7123 103.599 31.9929 103.611 31.2858 103.667C28.6113 103.878 26.5933 105.079 25.4849 107.608C24.7069 109.385 25.1855 111.11 25.6873 112.836C25.6982 112.874 25.7184 112.933 25.7444 112.94C26.3489 113.098 26.1529 113.63 26.2267 114.015C26.3677 114.751 26.4226 115.504 26.5737 116.238C27.0777 118.689 28.0581 120.987 28.9005 123.328C29.0588 123.769 29.3328 124.154 29.6112 124.53C30.8324 126.179 32.3103 127.572 33.9993 128.719C35.0752 129.45 36.2769 130.003 37.5696 130.208C39.9368 130.583 42.1125 129.954 44.1391 128.737C44.3105 128.634 44.4507 128.477 44.6756 128.476C45.9062 128.471 46.6517 127.739 47.0276 126.688C47.6205 125.033 47.6118 123.285 46.6921 121.802C45.2085 119.41 43.1247 117.82 40.0901 118.034C39.8096 118.055 39.6317 117.998 39.5081 117.734C38.9535 116.54 38.3715 115.36 37.626 114.27C37.6137 114.251 37.6506 114.199 37.6709 114.147C39.0468 114.151 40.4336 114.167 41.795 113.907C44.847 113.326 47.627 112.081 50.1909 110.344C51.3239 109.575 52.1951 108.571 52.7801 107.33C53.1409 106.564 53.4192 105.762 53.9854 105.096C54.1965 104.849 54.3013 104.48 54.3708 104.149C54.7973 102.107 54.9788 100.051 54.5262 97.9905C54.4358 97.5798 54.4994 97.4641 54.9123 97.4236C57.3381 97.1857 59.7639 96.9472 62.1831 96.6565C62.7514 96.5878 62.8584 96.723 62.8418 97.2602C62.7095 101.519 62.836 105.78 62.5027 110.04C62.2352 113.461 61.9272 116.873 61.5353 120.282C61.3704 121.71 61.1571 123.143 61.2475 124.592C61.3502 126.232 61.9886 126.933 63.5844 127.315C65.9653 127.886 68.4055 127.972 70.819 128.273C72.2347 128.449 73.6678 128.27 75.077 128.469C77.7385 128.844 80.4057 128.988 83.094 128.9C85.6716 128.816 88.2448 129.064 90.8217 129.108C91.6142 129.122 92.4066 129.168 93.1933 129.04C94.4326 128.837 94.8967 128.236 94.8064 126.98C94.6805 125.238 93.8903 123.745 92.9662 122.334C90.5658 118.668 87.2904 116.443 82.7823 116.28C81.6833 116.24 80.5829 116.235 79.4195 116.217C79.4094 116.206 79.3956 116.197 79.3877 116.186C79.6415 115.506 79.8743 114.873 80.029 114.215C80.6306 111.654 80.5923 109.059 80.4505 106.458C80.4216 105.932 80.311 105.397 80.4419 104.881C80.6631 104.008 80.734 103.124 80.7643 102.229C80.8518 99.6491 80.6089 97.073 80.7079 94.4903C80.734 93.8041 80.9516 93.6863 81.5582 93.6357C84.5125 93.3906 87.4734 93.1968 90.4118 92.7861C91.4978 92.6342 92.5259 92.1975 93.5873 91.9734C94.4882 91.7832 94.7876 91.2359 95.0623 90.5382C95.0992 90.4442 95.1296 90.3473 95.1621 90.2511C95.8128 88.3257 95.8815 86.3092 96.0869 84.3136C96.1302 83.8906 96.0073 83.3606 96.2199 83.0671C96.4722 82.7171 97.0543 83.0071 97.4787 82.8907C97.4982 82.8856 97.5192 82.8856 97.5387 82.882C101.733 82.1018 105.602 80.5321 108.98 77.9133C110.73 76.5569 112.461 75.1766 114.314 73.9663C117.163 72.1052 119.76 69.991 121.629 67.0953C121.816 66.8054 121.94 66.8148 122.157 67.0606C122.856 67.8523 123.587 68.6165 124.282 69.4126C125.997 71.3807 127.876 73.1912 129.986 74.7103C133.348 77.1295 136.877 79.2943 140.637 81.0585C140.955 81.2074 141.143 81.4135 141.281 81.7324C141.893 83.1481 142.58 84.5276 143.38 85.8486C148.211 93.8229 154.688 100.092 162.839 104.627C165.558 106.14 168.397 107.378 171.344 108.375C171.581 108.456 171.881 108.455 171.811 108.861C171.509 110.607 171.477 112.377 171.39 114.139C171.29 116.167 171.232 118.196 171.559 120.219C171.744 121.36 172.018 122.472 172.461 123.606C172.446 123.629 172.423 123.645 172.402 123.662C171.143 123.642 169.95 123.619 168.766 123.742C167.047 123.92 165.327 124.17 163.805 125.054C160.835 126.778 158.772 129.302 157.486 132.468C157.203 133.163 157.05 133.904 157.029 134.663C157.002 135.66 157.498 136.263 158.483 136.447C159.33 136.606 160.182 136.559 161.035 136.544C163.612 136.501 166.184 136.298 168.763 136.322C170.428 136.337 172.111 136.532 173.756 136.261C177.054 135.715 180.399 135.873 183.705 135.463C185.378 135.256 187.046 135.042 188.684 134.645C189.733 134.391 190.357 133.721 190.527 132.627C190.658 131.775 190.644 130.927 190.551 130.077C190.328 128.04 190.055 126.007 189.878 123.965C189.689 121.782 189.508 119.597 189.343 117.412C189.195 115.458 189.148 113.525 189.31 111.578C189.344 111.162 189.457 110.979 189.918 110.97C192.545 110.925 195.142 110.589 197.712 110.072C198.271 109.96 198.285 110.116 198.258 110.581C198.084 113.515 199.171 115.887 201.515 117.669C203.348 119.061 205.453 119.919 207.586 120.709C208.732 121.133 209.92 121.371 211.142 121.482C212.158 121.574 213.179 121.54 214.308 121.613C214.312 121.621 214.312 121.631 214.316 121.641C213.669 122.54 213.149 123.412 212.741 124.346C212.249 125.472 211.533 126.452 210.769 127.403C210.331 127.948 209.797 128.346 209.118 128.475C206.597 128.952 205.326 131.343 205.041 133.251C204.712 135.441 205.884 136.75 208.111 136.813C208.745 136.831 209.365 136.703 209.99 136.677C212.348 136.581 214.669 136.316 216.97 135.743C219.35 135.151 221.055 133.82 222.036 131.596C222.626 130.259 223.07 128.867 223.32 127.42C223.411 126.897 223.607 126.419 223.848 125.942C224.97 123.713 225.925 121.416 226.519 118.982C226.839 117.677 226.941 116.374 226.396 115.1C225.301 112.539 223.272 111.309 220.57 111.104C219.742 111.041 218.904 111.079 218.073 111.11C217.442 111.134 216.873 110.994 216.325 110.69C215.186 110.056 214.167 109.248 213.092 108.521C212.113 107.858 211.672 106.993 211.545 105.845C211.481 105.267 211.661 105.044 212.124 104.779C224.464 97.7439 232.533 87.427 236.026 73.6069C236.208 72.8853 236.354 72.1507 236.54 71.3048C236.578 71.2947 236.613 71.2889 236.646 71.2881C237.515 72.484 238.494 73.4356 239.153 74.6394C240.464 77.0341 241.321 79.5719 241.628 82.2898C241.649 82.4706 241.672 82.6036 241.539 82.7858C240.631 84.0215 239.572 85.1053 238.363 86.0424C237.323 86.8478 236.389 87.8413 235.148 88.317C233.992 88.761 232.848 89.0936 232.097 90.2186C231.701 90.8108 231.534 91.3234 231.961 91.9242C232.323 92.4354 232.826 92.7774 233.392 93.0232C235.862 94.0941 238.346 94.1317 240.84 93.1057C241.21 92.9531 241.585 92.8107 241.992 92.6502C242.002 92.7868 242.017 92.8649 242.013 92.943C241.869 95.6305 241.05 98.1264 239.72 100.437C239.19 101.357 239.112 102.227 239.339 103.207C239.575 104.23 240.237 105 241.255 105.036C242.065 105.064 242.75 105.292 243.479 105.592C244.354 105.952 245.281 105.718 246.161 105.438C246.389 105.365 246.548 105.321 246.752 105.524C248.337 107.099 251.154 106.678 252.371 105.048C252.467 104.92 252.569 104.77 252.703 104.705C253.936 104.102 254.497 103.002 254.918 101.784C255.877 99.0114 256.266 96.1446 256.249 93.2286C256.243 91.3248 256.153 89.4081 255.188 87.6735ZM193.855 2.06282C195.246 2.15682 196.654 2.1973 197.884 2.99336C198.003 3.07 198.125 3.14737 198.227 3.24498C198.404 3.41344 198.625 3.63325 198.474 3.86534C198.331 4.08442 198.115 3.82847 197.942 3.77207C197.074 3.48864 196.165 3.38886 195.283 3.17629C194.543 2.99842 193.814 2.77934 193.108 2.42072C193.344 2.16983 193.591 2.04475 193.855 2.06282ZM162.745 23.8709C163.847 22.73 165.24 22.0872 166.72 21.6071C167.254 21.4336 167.679 21.1516 167.81 20.5746C167.972 19.8588 167.57 19.2768 166.772 19.031C165.347 18.5914 163.858 18.5263 162.397 18.3021C161.301 18.1344 160.203 17.9645 158.997 18.0122C159.284 17.7194 159.595 17.6731 159.866 17.608C162.761 16.9074 165.618 16.0759 168.468 15.2133C169.433 14.9205 170.443 14.7687 171.435 14.5655C171.877 14.4751 172.323 14.5243 172.768 14.5879C173.868 14.7448 174.957 14.6747 176.027 14.3847C177.1 14.0941 177.403 13.4282 176.97 12.395C176.802 11.993 176.517 11.6792 176.248 11.3487C176.035 11.0863 175.751 10.873 175.625 10.4825C176.586 10.6018 177.479 10.8549 178.364 11.1239C179.393 11.4369 180.432 11.7037 181.498 11.8541C183.217 12.0971 184.765 12.9249 186.444 13.2995C186.749 13.3674 186.646 13.554 186.582 13.7123C186.384 14.1997 186.206 14.7 185.956 15.1606C184.679 17.5097 185.953 20.5761 188.914 21.2246C190.374 21.5442 191.837 21.9448 193.361 21.7192C194.617 21.5334 195.669 20.9651 196.455 19.9629C196.82 19.4995 197.057 18.9796 196.583 18.425C196.42 18.3759 196.257 18.3267 196.095 18.2776C195.698 18.3144 195.354 18.4916 195.044 18.7215C193.99 19.5038 192.825 19.754 191.537 19.5161C190.506 19.3252 189.438 19.3021 188.498 18.741C187.873 18.3679 187.471 17.4656 187.827 16.8691C189.354 14.3146 189.796 11.4037 190.612 8.61566C191.043 7.13995 191.315 5.62665 191.631 4.06996C193.672 5.5623 195.886 5.59339 198.248 4.80311C197.956 6.56659 197.566 8.18474 197.129 9.79494C196.623 11.6567 196.379 13.5677 196.114 15.4736C196.068 15.8077 196.024 16.1627 196.186 16.4917C196.241 16.603 196.299 16.7064 196.171 16.8127C195.648 17.2429 195.78 17.7129 196.095 18.1908C196.26 18.1922 196.425 18.193 196.591 18.1937C196.929 18.0151 197.08 17.6695 196.95 17.3745C196.64 16.6703 197.357 16.3745 197.471 15.8496C197.494 15.7383 197.599 15.7332 197.703 15.8229C198.482 16.4909 199.41 16.3348 200.316 16.2805C204.043 16.0578 207.751 15.5821 211.487 15.4809C211.707 15.4751 211.928 15.4801 212.296 15.4801C211.779 15.8576 211.29 15.8655 210.844 15.9624C209.814 16.1851 208.781 16.3847 207.774 16.7035C207.021 16.9421 206.606 17.3954 206.61 18.0042C206.615 18.6116 207.02 19.0924 207.78 19.3057C209.014 19.6506 210.301 19.7106 211.554 19.9514C213.865 20.3946 216.064 21.2557 218.356 21.7712C219.006 21.9173 219.642 22.1291 220.279 22.3236C220.436 22.3706 220.642 22.3627 220.748 22.675C219.317 22.6649 217.94 22.7336 216.559 22.5109C214.28 22.1436 211.994 21.837 209.774 21.1617C209.158 20.9745 208.486 20.9918 207.838 21.0974C206.984 21.2369 206.582 22.0091 206.962 22.7857C207.254 23.3836 207.746 23.8153 208.247 24.2324C209.369 25.1681 210.566 26.014 211.581 27.0747C211.538 27.1998 211.41 27.1636 211.325 27.2085C208.838 26.6358 206.351 26.0661 203.865 25.4884C202.992 25.2852 202.258 24.8398 201.636 24.1927C201.299 23.842 200.956 23.4848 200.566 23.2007C199.569 22.4748 198.382 22.9382 198.139 24.1428C197.923 25.2122 198.277 26.2352 198.479 27.2634C198.743 28.6104 199.066 29.9451 199.387 31.3883C198.464 30.6855 197.668 29.9914 197.012 29.1635C195.925 27.7919 194.641 26.6018 193.505 25.2743C192.71 24.346 191.696 24.3843 190.905 25.3438C189.608 26.9178 188.615 28.6863 187.684 30.4932C187.307 31.2264 186.945 31.9696 186.393 32.7223C186.393 31.4613 186.337 30.2965 186.407 29.1397C186.506 27.4803 186.658 25.8231 187.047 24.1963C187.188 23.6078 187.031 23.0561 186.512 22.6794C185.993 22.3041 185.444 22.3475 184.903 22.6367C184.528 22.8377 184.154 23.0438 183.798 23.2766C180.063 25.7219 176.117 27.8129 172.299 30.1165C171.835 30.3963 171.383 30.6978 170.853 31.0355C170.932 30.3464 171.195 29.8251 171.506 29.3385C172.519 27.7515 173.802 26.4001 175.211 25.1594C175.728 24.7032 176.251 24.2484 176.725 23.7495C177.296 23.1501 177.388 22.4668 177.046 21.9202C176.713 21.3895 176.119 21.1986 175.312 21.3837C173.887 21.7105 172.522 22.2152 171.164 22.756C168.28 23.9049 165.23 24.3127 162.157 24.7856C162.202 24.3077 162.513 24.1117 162.745 23.8709ZM138.534 47.0745C138.173 45.7 138.591 44.3899 139.164 43.1376C139.254 42.9409 139.442 42.745 139.688 42.7739C140.76 42.9012 141.829 43.0487 142.579 43.9705C142.819 44.2655 142.859 44.5475 142.748 44.9235C142.152 46.9473 141.261 48.8705 140.704 51.0736C139.841 49.7049 138.914 48.5235 138.534 47.0745ZM101.366 55.4747C101.852 55.6446 102.006 56.5549 101.602 57.0603C100.756 58.1181 99.6803 58.9055 98.4273 59.7109C98.5712 58.6459 98.6601 57.7161 98.8322 56.8022C98.9624 56.1103 100.698 55.2405 101.366 55.4747ZM72.9267 24.3431C71.7185 25.2086 70.4908 25.5845 69.258 25.685C66.8503 25.8802 64.4404 25.7566 62.1101 24.988C60.7522 24.5405 59.4407 23.4921 58.9823 22.4191C63.6082 23.0575 68.18 23.6887 72.9267 24.3431ZM19.5083 23.0604C21.2233 21.5862 23.1943 20.9557 25.4523 20.9998C31.7687 21.1241 38.0873 21.0735 44.4037 21.2832C48.1852 21.409 51.9298 21.96 55.7055 22.1017C56.3128 22.1241 56.5304 22.3323 56.6649 22.9512C57.1349 25.1203 58.5629 26.5881 60.4363 27.6423C62.1484 28.6054 64.0355 29.003 65.9769 29.0941C68.0498 29.1917 70.1083 29.1592 72.0916 28.353C73.6952 27.7016 74.9989 26.6763 76.1579 25.4356C76.3553 25.2237 76.4999 25.0856 76.8137 25.1558C80.9422 26.0798 85.1127 26.818 89.1732 28.0414C91.3683 28.703 93.4955 29.5518 95.6646 30.2828C96.452 30.5481 97.2582 30.7549 98.0557 30.9892C97.9754 31.0304 97.8959 31.0716 97.8156 31.1128C90.889 31.2148 83.9732 31.4375 77.0682 32.1092C72.9816 32.5068 68.937 33.2053 64.8533 33.5726C62.3256 33.7996 59.7841 33.864 57.2491 34.0136C56.4994 34.0578 55.7517 34.1402 55.0034 34.211C54.7814 34.232 54.5725 34.2992 54.4459 34.0086C53.4952 31.8156 51.6218 30.8215 49.4426 30.3681C45.7789 29.606 42.1587 29.8902 38.5479 30.8851C35.4613 31.7354 32.9415 33.3774 30.8881 35.7822C30.5309 36.2008 30.1636 36.4156 29.6047 36.4278C27.2679 36.4814 24.9325 36.5016 22.5978 36.3541C22.2717 36.3331 22.1481 36.2999 22.2182 35.9051C22.652 33.4518 22.0382 31.1258 21.0823 28.922C20.3282 27.1839 18.8575 26.0603 17.0897 25.3625C16.9993 25.3271 16.9111 25.2866 16.755 25.2201C17.6385 24.3915 18.6399 23.8073 19.5083 23.0604ZM33.3435 41.3951C35.3441 43.4738 37.5826 45.0442 40.6071 45.272C42.816 45.4383 44.9547 45.1252 47.1028 44.7435C47.1426 44.7825 47.1831 44.8215 47.2228 44.8606C47.0963 44.9567 46.9806 45.0739 46.8418 45.1455C44.21 46.491 41.4849 47.2972 38.4749 46.781C36.7598 46.4867 35.0961 46.0897 33.6761 45.0406C32.2329 43.9749 31.2959 42.523 30.6777 40.8535C30.5606 40.5368 30.6068 40.3387 31.003 40.3742C31.0428 40.3778 31.0847 40.3763 31.1245 40.3691C32.1049 40.1912 33.0095 40.1768 33.3435 41.3951ZM33.2285 36.0779C35.0311 34.9521 36.7714 33.8047 38.8978 33.3716C41.5868 32.8235 44.2476 32.2278 47.0255 32.5575C48.5612 32.7397 50.0203 33.0788 51.2993 33.9869C51.4728 34.1098 51.6934 34.1958 51.7808 34.5039C45.5751 34.9268 39.3765 35.1445 33.2285 36.0779ZM41.2441 43.2764C39.4249 43.2417 37.7851 42.6871 36.3 41.6431C35.903 41.364 35.4808 41.1189 35.0694 40.86C34.7823 40.6793 34.4895 40.5043 34.248 40.1413C37.3332 39.6432 40.3323 39.2585 43.3503 39.0387C46.2468 38.8276 49.1454 38.6519 52.0419 38.4415C52.4243 38.4133 52.5784 38.5087 52.5191 38.8934C52.4757 39.1732 52.4381 39.4545 52.3976 39.735C52.3325 40.184 52.1207 40.4349 51.6247 40.5029C51.146 40.5687 50.7267 40.8564 50.2957 41.0813C47.4593 42.557 44.4551 43.3386 41.2441 43.2764ZM15.3255 27.3813C17.1628 28.1332 18.5293 29.3298 18.9537 31.3804C19.2523 32.8235 19.7071 34.2501 19.3087 35.7504C19.188 36.2059 18.7845 36.4387 18.3579 36.2854C18.1316 36.2037 18.2061 36.0258 18.2039 35.8805C18.1699 33.9645 17.6053 32.1757 16.8367 30.4534C16.2431 29.1238 15.2489 28.2193 13.6864 28.0089C14.3046 27.079 14.421 27.0111 15.3255 27.3813ZM7.22611 35.2435C8.89921 33.313 10.5962 31.402 12.2678 29.4701C12.5346 29.1621 12.7038 29.131 13.1123 29.3002C14.4962 29.8721 15.2055 30.9422 15.6278 32.2979C16.0059 33.5104 16.5713 34.6564 16.9169 35.8841C17.016 36.2355 16.9777 36.3158 16.6031 36.3592C13.1897 36.7532 9.76685 36.7265 6.23411 36.584C6.58189 36.1104 6.87327 35.6499 7.22611 35.2435ZM7.37867 43.6054C7.28106 42.4117 7.08657 41.2331 6.76554 40.077C6.69468 39.8218 6.6701 39.6743 7.05475 39.7314C9.51885 40.098 11.9844 40.4667 14.6256 40.2093C14.1788 40.8803 13.7291 41.3199 13.1781 41.6265C11.4971 42.5599 9.76179 43.3755 7.9195 43.9517C7.54208 44.0703 7.41121 43.998 7.37867 43.6054ZM7.63462 46.3638C7.61438 46.1114 7.68379 46.0167 7.94408 45.9618C10.1204 45.5063 12.0061 44.3913 13.8773 43.2677C14.8707 42.672 15.5836 41.7696 16.0782 40.7277C16.2799 40.304 16.4997 40.0539 16.9762 40.163C17.6204 40.0336 17.5597 40.3315 17.3623 40.7494C16.8186 41.8976 15.9885 42.8231 14.977 43.5439C12.9222 45.0081 10.74 46.2358 8.23908 46.8012C7.78863 46.9039 7.66716 46.7658 7.63462 46.3638ZM22.7771 100.183C21.2392 99.5985 19.7273 98.9586 18.6609 97.6015C18.368 97.2284 18.0412 96.8864 17.5351 96.7245C17.0124 96.5574 16.8229 95.9739 16.4441 95.6131C16.337 95.5112 16.4983 95.3543 16.5547 95.2321C17.1902 93.8547 17.8294 92.4795 18.4714 91.105C18.5589 90.9185 18.671 90.7305 18.4895 90.5483C18.3211 90.3791 18.1027 90.3329 17.8699 90.3733C17.2473 90.4818 16.8229 90.873 16.4643 91.3603C15.3161 92.9199 14.3863 94.5901 13.8397 96.4605C13.6589 97.0795 13.4615 97.6969 13.2215 98.2949C12.5614 99.9347 12.6091 101.688 12.3763 103.396C12.1912 104.752 12.1507 106.109 12.586 107.435C12.6713 107.694 12.578 107.83 12.3155 107.835C12.0328 107.842 11.7494 107.829 11.4667 107.82C11.1825 107.811 11.1102 107.659 11.1102 107.383C11.1095 104.213 11.3322 101.064 11.9352 97.9457C12.0646 97.2776 12.249 96.5929 11.9931 95.9045C11.9157 95.6963 11.7942 95.5474 11.5585 95.5481C11.3525 95.5481 11.2375 95.6746 11.15 95.8546C9.71551 98.7822 8.83197 101.847 8.82474 105.133C8.82329 105.717 8.98887 106.276 9.13492 106.976C8.47045 106.532 7.85443 106.296 7.23117 106.07C6.95714 105.971 6.70119 105.797 6.74746 105.397C7.08729 102.462 7.16971 99.4944 7.8443 96.6008C7.90865 96.3261 8.00916 96.06 8.07278 95.7852C8.12629 95.5539 8.29837 95.3579 8.03229 95.0774C7.80743 94.8395 8.12701 94.5243 8.22101 94.2495C8.28463 94.0622 8.38369 93.8866 8.47623 93.7101C8.52179 93.6234 8.59264 93.554 8.48057 93.4614C8.38513 93.3833 8.30126 93.3819 8.21522 93.4643C8.12701 93.5482 8.0323 93.6284 7.95927 93.7246C6.34257 95.8373 5.14956 98.1322 4.86468 100.828C4.68393 102.539 4.79672 104.226 5.26308 105.94C4.91602 105.898 4.70128 105.702 4.50172 105.491C4.01657 104.975 3.60589 104.386 3.01011 103.979C2.78235 103.823 2.84164 103.585 2.84598 103.368C2.87345 101.788 3.36367 100.291 3.75411 98.788C4.18648 97.1229 4.63548 95.4244 5.3831 93.8887C6.30931 91.9864 7.17116 89.9981 8.66206 88.4298C10.1732 86.8406 11.3937 85.007 12.9294 83.4409C14.836 81.4967 16.5229 79.3543 18.3717 77.358C19.4092 76.238 20.5523 75.2265 21.8646 74.4348C23.5985 73.3878 25.1349 72.0394 26.9743 71.1501C27.9049 70.7003 28.8412 70.2737 29.8187 69.9455C31.7348 69.302 33.5431 68.3649 35.5119 67.8631C36.7504 67.5472 38.0432 67.5407 39.2745 67.1864C39.469 67.1307 39.6672 67.0881 39.8602 67.0302C40.6931 66.7815 40.9419 66.8487 41.4371 67.5407C41.9476 68.2529 42.3431 69.0149 42.5231 69.8934C42.6554 70.5376 42.5094 71.0488 42.0741 71.5109C40.6143 73.0596 38.8306 74.1738 36.9124 75.0002C33.5257 76.4593 30.267 78.0948 27.4457 80.5148C25.7654 81.9558 23.7959 83.01 22.117 84.4625C20.8828 85.5305 19.6948 86.6251 18.8192 88.0206C18.6609 88.2722 18.5907 88.484 18.6573 88.8036C18.8373 89.672 18.9436 90.5555 19.0788 91.4333C19.0231 91.7435 19.3731 91.5215 19.4215 91.6943C19.6673 93.3248 20.4272 94.7679 21.0809 96.2509C21.7186 97.6991 22.4987 99.0324 23.8226 99.9745C23.9614 100.073 24.1386 100.172 24.1632 100.439C23.6708 100.484 23.2008 100.345 22.7771 100.183ZM16.3067 62.0442C15.1195 60.3675 13.4702 59.596 11.5245 59.2424C10.8463 59.1195 10.171 59.1463 9.47547 59.0682C10.0835 58.5432 10.8312 58.3083 11.5788 58.181C14.1817 57.7378 15.4043 58.4464 16.4397 60.3154C17.2965 61.8612 18.089 63.4338 18.2408 65.2421C18.3153 66.1279 18.1764 66.9731 17.8533 67.7952C17.854 67.9427 17.8193 68.0678 17.645 68.1263C17.5691 67.9073 17.5807 67.707 17.705 67.5154C17.8337 65.5393 17.4838 63.7072 16.3067 62.0442ZM16.332 67.5566C16.251 68.1769 16.123 68.7915 16.0139 69.4083C15.9604 69.7112 15.8953 70.004 15.5641 70.1443C14.2243 70.7119 12.9142 71.3633 11.4313 71.5101C11.137 71.539 10.9765 71.5043 10.9215 71.1797C10.3098 67.5819 9.78131 63.9739 9.58031 60.3248C9.57814 60.2894 9.60634 60.2518 9.64683 60.144C11.1392 60.6393 12.7457 60.7579 14.0819 61.7651C16.0493 63.248 16.6371 65.2212 16.332 67.5566ZM54.6911 78.9971C55.1849 77.8808 55.5204 76.763 55.592 75.5815C55.7554 72.8774 55.6556 70.1797 55.0981 67.5284C54.6788 65.5335 53.4706 63.9212 52.159 62.4202C51.441 61.5988 50.5929 60.8888 49.7788 60.1563C49.0304 59.4832 48.0876 59.1882 47.1339 58.9069C47.964 58.8166 48.7745 58.891 49.5713 59.0863C53.4503 60.0385 55.8696 62.5915 57.0836 66.2674C58.5376 70.6714 57.8435 74.8252 55.1885 78.6378C55.08 78.7918 55.0164 79.0246 54.6911 78.9971ZM53.2226 69.307C53.451 70.6078 53.5205 71.9259 53.6774 73.2338C53.9528 75.5302 53.3563 77.6161 52.2082 79.5756C51.6449 80.5357 51.0361 81.4714 50.6522 82.5248C50.5604 82.7771 50.3637 82.9008 50.1446 83.0172C45.1911 85.6389 39.3107 84.0504 36.3354 79.3088C36.052 78.8569 36.0072 78.6436 36.5516 78.3818C37.3173 78.0138 38.0208 77.5243 38.6571 76.9495C39.1292 76.5236 39.6917 76.2366 40.2564 75.9611C41.4379 75.3834 42.4356 74.5801 43.3669 73.6532C44.8737 72.1529 45.1904 70.474 44.3596 68.5421C43.9649 67.6238 43.4739 66.7555 42.8297 65.9985C41.9049 64.911 40.7445 64.2747 39.2557 64.4027C38.6694 64.4533 38.0801 64.4757 37.4923 64.5104C37.3419 64.6131 37.1669 64.684 37.01 64.5806C36.9269 64.5256 37.0064 64.4128 37.1011 64.3637C38.289 62.4758 39.8508 60.9755 41.9353 60.165C43.043 59.7341 44.2627 59.7153 45.4297 60.1506C45.6199 60.2214 45.8079 60.2966 45.9995 60.3624C50.2726 61.8381 52.4648 64.9905 53.2226 69.307ZM23.1466 96.2169C24.0945 97.0173 25.221 97.4345 25.286 98.9326C24.4632 98.0613 23.5652 97.4554 23.1466 96.2169ZM51.2885 103.455C50.7064 106.037 48.9849 107.725 46.5569 108.751C44.0675 109.803 41.56 110.771 38.8696 111.189C37.6484 111.378 36.5473 111.872 35.5618 112.636C34.8438 113.193 34.8734 113.273 35.1981 114.089C35.8054 115.614 36.6463 117.021 37.3057 118.516C37.78 119.592 38.5038 120.302 39.7047 120.497C41.0019 120.708 42.0922 121.373 43.1088 122.17C44.2346 123.054 44.5729 124.265 44.544 125.628C44.5389 125.861 44.4985 126.067 44.1832 126.084C42.8615 126.158 41.5745 126.413 40.3041 126.791C39.8653 126.922 39.3794 126.894 38.848 126.945C37.5718 126.926 36.3694 126.471 35.2689 125.756C34.6761 125.37 34.1403 124.895 33.5958 124.438C32.0746 123.164 31.2286 121.495 30.4745 119.671C29.3018 116.834 28.6272 113.899 28.0256 110.917C27.4797 108.213 29.4051 106.334 31.8353 106.471C32.8461 106.528 33.8822 106.735 34.8677 106.436C37.7446 105.564 39.8949 103.723 41.5065 101.229C41.7799 100.806 41.8804 100.285 41.8767 99.7713C41.8746 99.4539 41.9968 99.3917 42.3019 99.3541C44.7074 99.0584 47.1086 98.7309 49.5112 98.4185C49.9928 98.3563 50.4779 98.3202 50.9609 98.2681C51.1735 98.2457 51.3138 98.2963 51.329 98.5436C51.428 100.185 51.6485 101.859 51.2885 103.455ZM79.8049 118.264C81.5611 118.659 83.381 118.723 85.091 119.376C86.0909 119.758 87.0193 120.224 87.8305 120.916C89.4566 122.303 90.7762 123.929 91.7161 125.86C91.941 126.321 91.7769 126.367 91.3749 126.327C89.8608 126.176 88.3359 126.202 86.8241 125.968C85.2385 125.723 83.629 125.673 82.0231 125.699C80.1693 125.729 78.3371 125.582 76.5086 125.26C74.6619 124.936 72.7763 125.176 70.9159 124.973C68.8589 124.748 66.7751 124.894 64.7239 124.537C64.2778 124.46 64.1881 124.325 64.2416 123.875C64.7014 120.008 65.4397 116.173 65.5785 112.269C65.6443 110.422 65.684 108.575 65.7491 106.728C65.8214 104.699 66.0383 102.677 66.0441 100.644C66.0477 99.284 66.0803 97.924 65.8923 96.5719C65.8511 96.2769 65.8641 96.1135 66.2408 96.0434C69.8118 95.3774 73.3525 94.5488 76.9547 94.0514C77.7009 93.9487 77.6994 93.9437 77.6987 94.7195C77.698 95.7556 77.6987 96.7917 77.6987 97.8271C77.8245 101.952 77.4485 106.063 77.3401 110.182C77.3075 111.417 77.1644 112.651 77.0349 113.882C76.9178 114.997 76.9518 116.113 76.9496 117.229C76.9482 117.855 77.3364 118.144 77.951 118.029C78.5989 117.909 79.1982 118.128 79.8049 118.264ZM74.782 78.3927C74.6988 78.4281 74.6164 78.4635 74.5332 78.499C72.7495 79.3182 71.2275 80.4504 70.1372 82.1192C68.3282 84.887 67.4526 87.9504 67.2306 91.2193C67.2053 91.5931 67.1178 91.7623 66.7375 91.8129C66.1952 91.8859 65.658 92.0016 65.1237 92.1202C64.8634 92.178 64.7513 92.1231 64.7434 91.8396C64.5966 86.6953 66.4237 82.5291 70.8205 79.6623C71.8653 78.9812 73.0568 78.6219 74.2802 78.3869C74.3771 78.2683 74.5173 78.2763 74.6497 78.2618C74.693 78.3052 74.7379 78.3493 74.782 78.3927ZM90.4884 88.7545C89.0937 89.0581 87.6686 89.0928 86.2565 89.2497C82.3406 89.6843 78.3856 89.6958 74.4913 90.343C72.97 90.596 71.4575 90.9011 69.9434 91.194C69.566 91.267 69.305 91.2605 69.4359 90.7291C70.0606 87.5542 70.5573 84.2977 72.9137 81.7642C73.8529 80.7541 75.0162 80.0448 76.2707 79.5148C77.7385 78.8937 79.2033 78.2539 80.7578 77.8562C81.1476 77.7564 81.5112 77.7492 81.8923 77.8367C84.7808 78.5026 86.892 80.2566 88.5521 82.6231C89.761 84.3468 90.4147 86.2991 90.8333 88.3445C90.9049 88.6988 90.7169 88.7046 90.4884 88.7545ZM95.1187 55.3879C94.7919 57.9648 94.3718 60.5294 93.9958 63.0998C93.8013 64.428 93.7095 65.7656 93.656 67.1054C93.6379 67.5609 93.5107 67.6752 93.0508 67.5443C92.4493 67.3729 91.8152 67.3187 91.2035 67.1755C88.3041 66.4966 85.9449 64.9255 83.9435 62.7629C83.6565 62.4527 83.663 62.2597 84.0151 62.0001C84.9102 61.3407 85.5414 60.4918 85.7287 59.3639C85.7974 58.9482 85.8068 58.536 85.399 58.2743C84.984 58.0075 84.6261 58.202 84.2898 58.4644C83.266 59.2641 82.1034 59.8671 81.1078 60.708C80.7123 61.0421 80.2076 61.0507 79.7196 61.0659C79.0905 61.0847 78.4593 61.0797 77.8498 61.2698C77.5382 61.3667 77.2381 61.4896 76.9872 61.7058C76.398 62.2134 76.4992 62.9661 77.2533 63.1591C78.7529 63.5423 80.2864 63.7852 81.8214 63.3695C82.1865 63.2704 82.2885 63.3681 82.4736 63.6385C84.9984 67.3404 88.3865 69.5804 92.9677 69.7597C93.2121 69.7691 93.387 69.7365 93.3596 70.0937C93.027 74.3856 92.9532 78.6956 92.4796 82.9789C92.476 83.0129 92.45 83.0447 92.4008 83.151C92.1593 82.6853 91.9432 82.2602 91.719 81.8394C89.5167 77.7058 86.1372 75.2005 81.504 74.3697C79.6046 74.0292 77.7515 74.0783 75.9063 74.6329C74.3735 75.0935 72.8045 75.4593 71.31 76.0204C67.449 77.4694 64.9964 80.3499 63.3118 84.0229C62.1347 86.5904 61.98 89.2223 62.528 91.9307C62.6328 92.4484 62.5085 92.541 62.0385 92.5873C58.6634 92.9198 55.2847 93.2271 51.9341 93.7615C49.2878 94.183 46.6538 94.6768 44.0068 95.0911C40.6859 95.611 37.3332 95.6739 33.9791 95.7021C30.4239 95.7317 26.8695 95.7701 23.315 95.8178C23.0092 95.8221 22.8393 95.7426 22.699 95.462C21.8003 93.6624 20.9767 91.8382 20.6297 89.8347C20.5914 89.6141 20.6861 89.4912 20.7844 89.3416C22.2283 87.1515 23.9383 85.2109 26.1233 83.7316C26.5817 83.4214 27.1139 83.2102 27.6294 82.9969C28.8491 82.4944 30.0002 81.877 31.0696 81.1019C31.6256 80.6984 32.2148 80.3449 32.7918 80.1236C33.7354 82.07 35.0274 83.7048 36.7432 84.9694C41.2231 88.2722 46.066 88.6525 51.0658 86.4075C59.1008 82.8003 62.8151 72.2903 58.9483 64.3803C55.203 56.7183 45.2699 54.1465 38.4626 59.3646C36.2682 61.0471 34.3543 62.9234 33.0876 65.4027C32.9639 65.6449 32.7622 65.7411 32.5344 65.8372C30.8541 66.5465 29.0682 66.9463 27.3922 67.6889C25.1646 68.6758 23.1451 69.9751 21.1937 71.4067C20.4084 71.9823 19.6109 72.5441 18.7946 73.074C16.5822 74.5122 14.8744 76.4622 13.2367 78.4867C12.933 78.8619 12.6293 79.2372 12.2649 79.6884C11.8983 78.551 11.7906 77.4665 11.6424 76.3906C11.5679 75.8476 11.5383 75.2966 11.4349 74.7602C11.3344 74.2374 11.4146 74.1051 12.0169 74.142C14.8548 74.3148 19.407 72.4804 20.5798 68.717C21.3954 66.0982 21.2811 63.5626 20.1554 61.0688C19.6543 59.9582 19.0752 58.8961 18.3818 57.8853C16.332 54.8999 12.0133 55.0279 9.92591 56.5152C9.73069 56.6547 9.53186 56.7899 9.25783 56.9801C9.17396 56.2737 9.09443 55.641 9.02502 55.0083C8.86161 53.5146 8.59843 52.036 8.30704 50.5632C8.24125 50.2291 8.29114 50.0809 8.63892 50.0303C11.6048 49.5986 14.1282 48.1865 16.4209 46.3609C18.2726 44.8859 19.5603 43.0219 19.6565 40.5397C19.6681 40.2469 19.7527 40.1616 20.0477 40.1732C22.5848 40.2737 25.1161 40.5303 27.6583 40.4841C28.0538 40.4768 28.0119 40.7472 28.0234 40.9721C28.0986 42.3893 28.6358 43.6415 29.3307 44.8541C31.1411 48.013 34.0803 49.3644 37.4793 49.9941C41.889 50.8104 45.8823 49.7085 49.6024 47.3543C50.2025 46.9747 50.8286 46.6306 51.3991 46.2098C53.9789 44.3075 55.4726 41.8405 55.2565 38.534C55.2312 38.1429 55.435 38.1653 55.683 38.1371C57.5412 37.9231 59.4074 37.8059 61.275 37.7539C64.94 37.6527 68.5501 37.0721 72.1696 36.5645C75.6503 36.0765 79.1541 35.7735 82.6551 35.5132C87.3128 35.1662 91.9844 34.997 96.6494 34.7425C97.376 34.7027 98.0998 34.6174 98.9023 34.5465C98.6449 35.6412 98.4085 36.7113 98.1417 37.7734C96.6819 43.5671 95.8685 49.4714 95.1187 55.3879ZM119.911 65.3629C117.801 67.5819 115.411 69.456 112.858 71.1342C110.976 72.3713 109.146 73.6756 107.375 75.0747C104.295 77.507 100.732 78.9176 96.9147 79.7296C96.5373 79.8098 96.4643 79.6862 96.5055 79.3362C96.7839 76.9755 96.8092 74.5968 97.0051 72.2303C97.0297 71.9317 97.0065 71.6699 97.4527 71.586C101.097 70.8992 104.532 69.6845 107.497 67.3758C109.45 65.8553 111.386 64.3116 113.316 62.7621C113.904 62.29 114.406 61.7318 114.691 61.0117C114.818 60.6936 114.855 60.3718 114.62 60.0927C114.395 59.8259 114.099 59.823 113.72 60.0211C114.031 58.7652 114.221 57.604 114.609 56.4819C114.833 56.466 114.818 56.6916 114.873 56.8123C116.192 59.7095 117.891 62.3638 119.966 64.7751C120.191 65.0397 120.107 65.1561 119.911 65.3629ZM187.292 131.943C186.206 132.093 185.118 132.22 184.024 132.276C180.258 132.467 176.479 132.445 172.741 133.051C171.656 133.228 170.551 133.114 169.456 133.13C167.627 133.156 165.811 133.3 163.996 133.53C162.791 133.684 161.568 133.695 160.352 133.766C160.136 133.779 159.907 133.797 160.085 133.453C161.633 130.46 163.619 127.948 166.959 126.76C168.606 126.174 170.334 126.104 172.007 125.709C172.708 125.544 173.404 125.331 174.161 125.5C174.588 125.596 174.916 125.153 174.928 124.6C174.937 124.133 174.93 123.667 174.93 123.2C174.821 120.645 174.481 118.107 174.441 115.546C174.411 113.599 174.258 111.654 174.158 109.708C174.145 109.444 174.053 109.186 174.536 109.315C178.333 110.332 182.198 110.905 186.128 111.009C186.626 111.022 186.68 111.179 186.566 111.612C186.151 113.18 186.193 114.788 186.2 116.391C186.216 120.417 186.583 124.412 187.246 128.382C187.417 129.402 187.501 130.435 187.641 131.46C187.681 131.756 187.626 131.897 187.292 131.943ZM212.015 110.775C212.989 111.645 213.999 112.453 215.101 113.146C216.033 113.733 217.058 114.024 218.165 113.993C218.814 113.975 219.464 113.943 220.114 113.912C222.379 113.801 224.336 115.542 223.872 118.137C223.665 119.295 223.48 120.457 223.255 121.611C223.103 122.39 222.827 123.117 222.312 123.754C221.397 124.887 220.791 126.183 220.354 127.573C220.032 128.596 219.643 129.599 219.259 130.601C218.828 131.726 217.948 132.421 216.807 132.549C215.087 132.743 213.431 133.256 211.716 133.443C210.526 133.572 209.338 133.71 208.15 133.852C207.681 133.909 207.576 133.737 207.734 133.306C208.135 132.215 208.72 131.353 209.944 131.011C211.694 130.521 212.66 129.122 213.583 127.685C214.476 126.298 215.058 124.757 215.825 123.307C215.994 122.988 216.107 122.625 216.099 122.256C216.09 121.806 216.115 121.475 216.698 121.368C217.102 121.293 217.077 120.714 216.625 120.337C215.875 119.712 215.068 119.158 214.107 118.903C213.343 118.702 212.57 118.532 211.797 118.373C208.811 117.757 206.012 116.667 203.397 115.1C202.065 114.302 201.289 113.108 200.926 111.629C200.776 111.02 200.698 110.393 200.563 109.78C200.515 109.561 200.531 109.437 200.77 109.375C203.932 108.542 206.968 107.367 210.045 105.889C209.701 108.012 210.577 109.491 212.015 110.775ZM218.346 96.5524C211.927 102.268 204.43 105.78 195.983 107.303C176.577 110.803 156.657 101.422 146.393 84.7019C146.109 84.2391 145.889 83.7294 145.342 83.4799C145.161 83.3975 145.088 83.1748 145.006 82.8936C147.09 83.5776 149.122 84.1451 151.199 84.4777C154.74 85.0446 158.236 84.7199 161.679 83.7229C163.826 83.1011 165.937 82.4012 167.88 81.2725C168.112 81.138 168.361 81.0332 168.623 81.0252C170.624 80.9623 172.01 79.8221 173.227 78.397C173.767 77.7644 174.314 77.131 174.79 76.4499C176.36 74.1998 176.413 71.803 175.304 69.3678C174.772 68.1994 173.389 67.592 172.073 67.7836C171.921 67.8053 171.786 67.84 171.73 67.9824C171.673 68.1292 171.738 68.2652 171.861 68.357C172.137 68.563 172.409 68.7742 172.699 68.9585C173.279 69.3266 173.646 69.8392 173.781 70.508C173.928 71.2339 174.172 71.9194 174.135 72.7053C174.047 74.591 172.842 75.7493 171.631 76.9242C170.965 77.5713 170.153 78.055 169.441 78.632C167.846 79.9241 165.94 80.2068 164.08 80.7071C160.072 81.7844 156.001 81.8531 151.934 81.2985C148.237 80.7946 144.715 79.5943 141.365 77.9545C136.041 75.3487 131.277 71.9345 126.908 67.9326C124.222 65.4728 121.574 62.9957 119.353 60.0905C117.627 57.8318 116.353 55.3619 115.845 52.5631C115.6 51.2103 115.321 49.7779 116.253 48.5097C116.43 48.2689 116.578 47.9971 116.907 47.9031C116.727 52.2247 119.021 55.4855 121.464 58.6799C121.718 59.0125 122.134 59.4868 122.468 59.3046C122.796 59.1253 122.602 58.5288 122.459 58.1369C121.59 55.7639 120.883 53.3316 119.763 51.0519C119.245 49.9985 119.162 48.8315 119.034 47.6804C118.935 46.7773 119.886 45.5424 120.878 45.4057C120.477 46.9754 120.593 48.522 121.12 50.0129C121.771 51.8581 122.717 53.5543 123.977 55.064C124.269 55.414 124.672 55.6265 125.065 55.8124C125.498 56.0163 125.672 55.8283 125.613 55.3691C125.517 54.6186 125.268 53.9245 124.905 53.268C124.313 52.1994 124.027 51.0237 123.667 49.8698C123.318 48.7512 122.575 47.7918 122.366 46.6017C122.243 45.8981 122.356 45.1527 122.956 44.7369C123.426 44.4109 123.947 44.1281 124.627 44.0233C123.892 45.6321 124.486 47.0629 125.01 48.5104C125.742 50.5371 126.865 52.3324 128.195 54.0084C128.715 54.6642 129.335 55.2108 130.082 55.6287C130.234 55.3308 129.988 55.1913 129.881 55.0279C128.811 53.3967 128.052 51.6419 127.759 49.7049C127.675 49.1532 127.786 48.5632 127.337 48.0766C127.834 47.9552 128.244 47.919 128.672 48.1583C129.291 48.5032 130.03 48.5068 130.663 48.8698C132.589 49.9739 133.659 51.5985 133.83 53.811C133.894 54.6512 133.94 55.4928 134 56.4175C133.768 56.2006 133.599 56.0343 133.421 55.876C133.223 55.7003 132.98 55.6244 132.749 55.7538C132.502 55.8919 132.594 56.1341 132.654 56.3532C132.998 57.6272 133.498 58.8462 134.094 60.0154C134.819 61.439 135.449 62.9357 136.523 64.1446C139.243 67.2066 142.589 69.2203 146.609 70.1176C149.381 70.7365 152.185 71.0785 155.009 70.9368C157.507 70.8109 159.939 70.2072 162.252 69.2073C164.209 68.3613 166.215 67.665 168.29 67.1748C169.245 66.9492 170.181 67.1423 171.121 67.2934C171.254 67.3144 171.425 67.5241 171.543 67.2985C171.639 67.1177 171.45 67.0136 171.359 66.895C170.965 66.3831 170.442 66.0592 169.85 65.8061C167.986 65.0086 166.107 65.0144 164.211 65.65C163.347 65.9399 162.486 66.2428 161.639 66.5798C158.353 67.8856 154.979 68.3577 151.443 67.9687C149.067 67.7077 146.758 67.2659 144.509 66.4677C143.799 66.2154 143.13 65.8806 142.461 65.5429C142.275 65.4497 142.104 65.3658 142.19 65.0882C142.617 63.7231 142.701 62.3009 142.878 60.8938C142.884 60.8396 142.933 60.7904 142.974 60.7152C144.123 61.371 145.234 62.1374 146.554 62.3413C150.353 62.9292 154.132 63.2046 157.81 61.6031C159.453 60.888 160.811 59.8454 162.025 58.5151C162.169 58.6951 162.294 58.8491 162.417 59.0038C163.893 60.8591 165.886 61.4361 168.156 61.3197C168.275 61.3132 168.392 61.2655 168.509 61.2337C168.99 61.1014 169.516 60.9322 169.604 60.3986C169.678 59.9525 169.175 59.7565 168.868 59.5244C168.532 59.2699 168.138 59.0906 167.766 58.8852C166.742 58.3191 165.845 57.6156 165.135 56.6655C163.917 55.0351 163.805 53.1834 163.974 51.2645C164.001 50.9608 164.047 50.6593 164.071 50.3564C164.117 49.757 163.872 49.5379 163.284 49.6702C162.348 49.8806 161.766 50.5321 161.404 51.3534C160.749 52.8364 160.51 54.3916 160.921 55.9866C161.033 56.4197 160.946 56.6012 160.571 56.8485C158.289 58.3574 155.773 59.1839 153.085 59.5541C152.274 59.6654 151.46 59.6517 150.651 59.6032C148.574 59.4789 146.454 59.5613 144.53 58.5389C144.37 58.4536 144.202 58.3799 144.033 58.3104C143.448 58.0675 143.308 57.6959 143.364 57.0249C143.699 52.9867 145.147 49.2552 146.403 45.465C146.886 44.0096 147.502 42.638 148.301 41.3315C149.179 39.8948 150.019 38.4335 150.831 36.9586C151.604 35.5559 152.61 34.3303 153.708 33.1916C155.248 31.5944 156.55 29.7955 158.07 28.1845C158.168 28.0812 158.268 27.9799 158.362 27.8729C158.966 27.1803 159.556 26.8238 160.637 26.9937C162.933 27.3531 165.246 27.0704 167.525 26.5483C168.783 26.2598 170.063 26.0617 171.37 25.5628C171.261 25.954 171.034 26.1557 170.859 26.3784C169.646 27.9286 168.83 29.6458 168.655 31.6276C168.53 33.039 169.259 33.6818 170.65 33.3889C171.428 33.2248 172.159 32.9103 172.848 32.522C176.411 30.5105 180.241 28.9712 183.555 26.5136C183.598 26.4811 183.663 26.4768 183.796 26.4341C183.728 27.3343 183.645 28.1896 183.601 29.0471C183.504 30.9335 183.408 32.8214 183.778 34.6947C183.857 35.0938 183.965 35.4843 184.147 35.8494C184.742 37.041 186.013 37.2774 186.962 36.3396C187.628 35.6817 188.154 34.9044 188.666 34.1214C189.456 32.9132 190.059 31.6031 190.71 30.3204C191.078 29.5959 191.494 28.9011 191.921 28.2113C192.109 27.9091 192.229 27.8519 192.487 28.1484C193.18 28.9445 193.932 29.6914 194.605 30.504C196.154 32.3753 198.054 33.8213 200.09 35.1025C201.035 35.6976 201.963 35.2956 202.237 34.198C202.515 33.0766 202.252 31.9761 202.021 30.8865C201.741 29.5619 201.41 28.2482 201.1 26.9236C204.41 28.5851 208.061 28.9278 211.54 29.8692C212.557 30.1447 213.586 30.3667 214.552 30.8048C214.753 30.8959 214.973 30.9487 215.188 31.0022C215.773 31.1475 216.287 31.0174 216.655 30.5272C217.009 30.0565 216.981 29.5352 216.715 29.0348C216.269 28.1968 215.65 27.497 214.874 26.9547C213.445 25.9547 212.154 24.7834 210.708 23.6815C210.867 23.6721 210.964 23.6396 211.044 23.6649C213.155 24.3474 215.376 24.4971 217.524 25.001C217.695 25.0415 217.815 25.0965 217.908 25.2498C218.989 27.027 220.406 28.5482 221.688 30.1722C226.142 35.8169 229.711 41.9294 231.756 48.8727C236.826 66.0845 231.599 84.7503 218.346 96.5524ZM242.975 101.763C242.837 102.011 242.718 102.269 242.573 102.512C242.461 102.699 242.512 103.067 242.154 103C241.734 102.921 241.334 102.751 241.028 102.44C240.914 102.324 241.086 102.234 241.156 102.149C242.814 100.143 243.595 97.7909 243.866 95.243C243.894 94.9805 243.928 94.8532 244.231 94.8337C244.505 94.8156 244.773 94.6906 245.137 94.5857C244.734 97.133 244.207 99.5522 242.975 101.763ZM246.33 103.221C245.844 103.131 245.363 103.138 244.877 103.159C244.79 103.107 244.648 103.157 244.611 103.014C246.529 101.293 247.112 99.0136 247.305 96.5719C247.372 95.7238 247.492 94.8728 247.28 94.0304C247.227 93.8179 247.303 93.726 247.478 93.6675C248.097 93.4607 248.738 93.3718 249.38 93.2843C249.752 93.2337 249.639 93.4983 249.627 93.6776C249.544 94.9762 249.254 96.2393 248.961 97.5024C248.557 99.2406 248.004 100.928 247.379 102.598C247.167 103.161 246.832 103.314 246.33 103.221ZM253.469 93.7803C253.164 96.3376 252.786 98.882 252.164 101.385C252.036 101.9 251.844 102.388 251.608 102.862C251.555 102.969 251.528 103.112 251.391 103.136C250.54 103.279 249.799 103.73 248.988 103.981C248.824 104.031 248.635 104.004 248.394 104.016C248.69 103.634 248.961 103.312 249.201 102.969C251.247 100.046 252.062 96.8184 251.537 93.2821C251.477 92.8779 251.621 92.8273 251.916 92.8027C252.099 92.7875 252.282 92.7861 252.463 92.7608C253.623 92.6003 253.611 92.5974 253.469 93.7803ZM253.059 90.8534C250.441 90.5606 247.877 90.7826 245.419 91.8057C244.913 92.0168 244.429 92.2684 243.964 92.5619C243.842 92.6393 243.661 92.9878 243.527 92.5952C243.438 92.3349 242.889 92.1007 243.419 91.7579C244.469 91.079 245.182 90.0848 245.883 89.0885C246.528 88.1695 246.91 87.1551 246.751 86.0026C246.7 85.6346 246.611 85.2485 246.207 85.1248C245.834 85.0106 245.54 85.2593 245.292 85.4979C244.411 86.3439 243.571 87.2477 242.917 88.2679C241.724 90.1282 239.942 90.8917 237.889 91.1781C236.498 91.3718 235.109 91.2793 233.731 90.7341C235.488 90.3798 236.996 89.5903 238.329 88.4204C239.625 87.2845 241.018 86.2564 242.025 84.7662C242.072 84.9593 242.173 85.1299 242.135 85.2593C241.923 85.9759 242.385 85.7329 242.676 85.6302C243.236 85.4336 243.532 84.9448 243.746 84.4445C244.37 82.9883 244.627 81.4525 244.569 79.872C244.476 77.3443 243.768 74.9756 242.442 72.8398C241.195 70.8341 239.475 69.2535 237.475 67.9926C237.215 67.8284 237.035 67.7034 237.078 67.344C237.518 63.6761 237.451 60.0088 237.044 56.3431C237.125 56.2296 236.994 56.0372 237.186 55.9649C238.011 57.1362 239.002 58.1398 240.15 59.0031C240.886 59.5562 241.367 60.3602 241.98 61.0348C244.714 64.0499 246.368 67.746 248.411 71.1949C249.149 72.4407 249.505 73.8491 249.873 75.2431C250.353 77.0652 250.841 78.8858 251.352 80.6999C251.652 81.7693 252.208 82.7424 252.511 83.8241C252.858 85.0648 252.906 86.3381 253.144 87.5868C253.318 88.5007 253.408 89.4305 253.547 90.3509C253.607 90.7537 253.559 90.9091 253.059 90.8534Z" fill="#122307"/>
<path d="M124.17 36.1692C124.227 36.5734 124.366 37.042 124.832 37.0564C125.292 37.0709 125.299 36.5676 125.373 36.2336C125.718 34.6596 125.974 33.0624 126.387 31.5071C127.125 28.7314 127.447 25.908 127.585 23.0534C127.616 22.1496 127.512 21.2668 127.105 20.4505C126.584 19.4094 125.52 19.3132 124.813 20.2322C124.478 20.6674 124.225 21.1533 124.032 21.6659C123.232 23.7851 122.914 26.0012 123.112 28.2311C123.346 30.8875 123.8 33.5251 124.17 36.1692Z" fill="#122307"/>
<path d="M115.687 35.5391C117.33 37.0929 119.368 38.1311 121.049 39.6358C121.271 39.8339 121.55 39.7876 121.806 39.7565C122.045 39.7269 122.121 39.6177 121.999 39.3357C121.365 37.8644 120.599 36.4624 119.784 35.0879C118.574 33.0482 117.646 30.8488 116.264 28.9074C115.731 28.1591 115.136 27.465 114.352 26.9697C113.723 26.5727 113.048 26.3869 112.347 26.7976C111.674 27.1917 111.512 27.8503 111.473 28.5669C111.497 29.3499 111.724 30.0802 112.054 30.7808C112.923 32.6274 114.219 34.1494 115.687 35.5391Z" fill="#122307"/>
<path d="M129.771 37.1625C131.684 36.0194 133.462 34.6775 135.253 33.3579C136.002 32.8062 136.744 32.2329 137.293 31.4556C137.569 31.0666 137.739 30.6451 137.813 30.2135C137.838 29.3964 137.002 28.8701 136.256 29.2518C134.741 30.0269 133.269 30.8758 132.154 32.209C131.036 33.5452 129.831 34.8148 129.015 36.3809C128.838 36.7215 128.391 37.109 128.682 37.4098C128.95 37.6882 129.43 37.3664 129.771 37.1625Z" fill="#122307"/>
<path d="M159.752 40.9389C159.72 40.6027 159.631 40.5116 159.308 40.7119C158.793 41.0315 158.258 41.3322 157.653 41.445C157.496 41.4739 157.261 41.5752 157.159 41.3626C157.09 41.2166 157.214 41.0647 157.299 40.9259C157.723 40.2289 158.227 39.5977 158.826 39.0431C158.952 38.9267 159.11 38.8399 158.978 38.5941C158.456 37.6245 156.476 37.1733 155.619 37.8653C154.622 38.6707 154.022 39.7437 153.669 40.9548C153.196 42.5773 152.935 44.2403 152.873 45.9271C152.834 46.9733 152.999 47.9928 153.609 48.8894C154.718 50.5198 156.775 50.7237 158.177 49.3406C158.677 48.8482 159.021 48.2546 159.286 47.6103C159.812 46.327 159.932 44.9799 159.906 43.5303C159.94 42.7147 159.836 41.8275 159.752 40.9389Z" fill="#122307"/>
<path d="M168.299 83.4285C165.511 84.3923 162.543 84.7452 159.829 85.9577C159.334 86.179 158.793 86.2968 158.272 86.4588C156.549 86.9945 154.744 86.9316 152.982 87.1746C152.109 87.2953 151.269 87.5028 150.637 88.2193C151.789 88.1167 152.932 88.1666 154.027 88.4312C156.441 89.014 158.729 88.6655 160.968 87.7168C162.364 87.1254 163.772 86.5781 165.245 86.1884C166.559 85.8406 167.778 85.2296 168.951 84.5463C169.925 83.9795 170.164 83.4517 169.908 82.5117C169.435 82.9492 168.902 83.2203 168.299 83.4285Z" fill="#122307"/>
<path d="M213.175 92.9324C212.473 93.4031 211.894 93.9945 211.543 94.7776C210.903 96.2027 211.707 97.4383 213.46 97.4326C214.518 97.319 215.6 96.8874 216.238 95.7247C216.733 94.8217 216.537 93.6981 215.816 93.0408C215.102 92.3872 214.067 92.3352 213.175 92.9324Z" fill="#122307"/>
<path d="M217.993 86.8639C217.235 87.122 216.351 88.3006 216.32 89.0974C216.29 89.8291 216.462 90.0098 217.183 90.0012C217.586 89.9968 218.753 89.7083 219.117 89.5232C219.837 89.1574 220.148 88.391 219.863 87.6846C219.575 86.9695 218.747 86.6065 217.993 86.8639Z" fill="#122307"/>
<path d="M223.914 80.6914C223.248 80.6943 222.692 81.0898 222.424 81.7507C222.127 82.4838 222.239 83.4787 222.668 83.8756C222.835 84.0304 223.026 84.1258 223.264 84.1454C224.164 84.2169 225.204 83.4729 225.416 82.5937C225.652 81.6126 224.922 80.6878 223.914 80.6914Z" fill="#122307"/>
<path d="M213.165 89.6533C213.157 88.8717 212.502 88.2549 211.694 88.2658C210.861 88.2773 210.202 88.9635 210.219 89.8C210.235 90.5694 210.842 91.1087 211.677 91.0979C212.523 91.0863 213.175 90.4537 213.165 89.6533Z" fill="#122307"/>
<path d="M216.062 84.0033C217.084 83.9968 217.816 83.383 217.805 82.5406C217.795 81.8241 217.202 81.25 216.469 81.25C215.661 81.2493 214.999 81.9723 214.992 82.8616C214.986 83.6548 215.318 84.0084 216.062 84.0033Z" fill="#122307"/>
<path d="M72.5609 41.6179C70.6694 40.7061 68.9515 40.9006 67.3464 42.2071C66.4353 42.9482 65.546 43.7204 64.669 44.4977C62.3285 46.5706 61.4869 49.1352 62.4811 52.1821C63.212 54.4228 64.4354 56.2362 66.8113 57.0047C67.6103 57.2636 68.4389 57.3301 69.1742 57.3547C72.7127 57.7632 75.9439 54.8891 76.7559 52.023C77.2179 50.394 76.9417 48.8063 76.5968 47.2141C76.0654 44.7638 74.9382 42.7639 72.5609 41.6179ZM68.1872 54.1451C67.3724 54.0822 66.6992 53.7207 66.204 53.091C65.2365 51.8596 64.8504 50.4331 64.9068 48.8793C64.9162 48.6212 64.9914 48.3818 65.2192 48.0695C65.2691 48.6378 65.3038 49.0875 65.3486 49.5365C65.4686 50.7498 66.055 51.7179 66.9364 52.5255C67.551 53.0881 68.1829 53.6296 68.9298 54.0157C69.0802 54.0041 69.1821 54.0981 69.3896 54.2471C68.9197 54.2731 68.5502 54.3179 68.1872 54.1451ZM72.7127 52.9022C72.4502 53.1661 72.1697 53.2414 71.8349 53.0946C70.4785 52.4988 69.1301 51.8958 68.039 50.8459C67.5575 50.3832 67.1923 49.8677 67.0636 49.2068C66.8359 48.0355 66.5741 46.87 66.9689 45.6734C67.0767 45.3466 67.2733 45.0725 67.4064 44.7645C67.5285 44.4811 67.8518 44.2251 68.2581 44.3329C68.5972 44.4225 68.7736 44.3264 68.6211 43.975C68.4685 43.6236 68.7288 43.6077 68.9211 43.5288C70.6969 42.8022 73.1133 43.8701 73.8052 45.6726C74.2332 46.7876 74.3504 47.9502 74.3858 49.1266C74.4473 50.6601 73.7524 51.8553 72.7127 52.9022Z" fill="#122307"/>
<path d="M87.7565 42.904C86.9199 42.7601 86.2454 42.9994 85.6597 43.5916C85.4023 43.8526 85.4124 44.011 85.7125 44.2503C86.5591 44.9249 87.3031 45.6964 87.7211 46.7252C87.8447 47.0304 87.9539 47.3543 87.7102 47.637C87.4615 47.9269 87.1397 47.7693 86.8607 47.6789C86.0241 47.4071 85.2772 46.9776 84.5715 46.2104C84.3322 48.146 84.2924 49.9181 84.6171 51.6888C84.8152 52.7712 85.048 53.8406 85.7653 54.7241C86.6611 55.8282 87.9365 56.022 89.1245 55.2455C89.8171 54.7928 90.2632 54.1479 90.5156 53.3786C91.3709 50.7655 91.4722 48.1395 90.6624 45.4867C90.2134 44.0139 89.2712 43.165 87.7565 42.904Z" fill="#122307"/>
<path d="M48.653 88.7424C47.6682 88.7257 46.6451 89.9346 46.7406 91.0033C46.7991 91.6555 47.3486 92.0813 48.0109 91.9881C48.9523 91.855 49.8077 90.8514 49.7925 89.8985C49.7817 89.2253 49.316 88.7532 48.653 88.7424Z" fill="#122307"/>
<path d="M57.3856 85.2149C56.5129 85.2084 55.6691 86.0551 55.6641 86.9422C55.6605 87.5734 56.176 88.1034 56.818 88.1287C57.6582 88.162 58.4434 87.3045 58.455 86.3406C58.4629 85.6502 58.0551 85.2199 57.3856 85.2149Z" fill="#122307"/>
<path d="M53.7278 89.8639C53.4444 90.0584 53.3258 90.3585 53.32 90.7793C53.2954 90.9586 53.4003 91.169 53.5326 91.3801C53.6367 91.5464 53.7762 91.6542 53.9071 91.4872C54.1132 91.224 54.4248 91.1076 54.6468 90.8733C54.8998 90.6051 55.116 90.3036 54.8239 89.976C54.5231 89.6391 54.1132 89.6008 53.7278 89.8639Z" fill="#122307"/>
<path d="M70.2438 98.9798C70.3631 98.9422 70.4838 98.9306 70.6046 98.9328C71.0246 98.8779 71.4447 98.8236 71.8648 98.7687C72.6081 98.5713 73.3456 98.3587 74.0484 98.042C74.4388 97.8656 74.809 97.6617 75.0447 97.2792C75.3889 96.7203 75.352 96.6054 74.6984 96.5584C72.6717 96.4145 70.6436 96.4304 68.6198 96.6032C68.0566 96.6509 67.4919 96.7529 66.9959 97.0594C66.4703 97.3841 66.4399 97.9965 66.9359 98.3638C67.2338 98.585 67.5881 98.6863 67.9474 98.7615C68.7037 98.9212 69.4716 98.9719 70.2438 98.9798Z" fill="#122307"/>
<path d="M74.6647 99.1298C74.4768 99.0611 74.2714 99.0242 74.0711 99.0091C73.4645 98.9628 72.8564 98.9339 72.2491 98.8984C71.7907 98.9671 71.3323 99.0358 70.8739 99.1045C70.1024 99.2693 69.3324 99.4429 68.558 99.594C68.2608 99.6518 68.0136 99.7306 67.9261 100.063C67.8321 100.423 68.0309 100.646 68.284 100.829C68.566 101.033 68.8884 101.155 69.2326 101.219C71.1009 101.57 72.8991 101.102 74.7009 100.733C75.1108 100.65 75.7153 100.573 75.7247 100.067C75.7363 99.4928 75.1412 99.3055 74.6647 99.1298Z" fill="#122307"/>
<path d="M179.907 111.091C178.65 110.872 177.435 110.441 176.155 110.342C175.761 110.312 175.35 110.32 175.197 110.788C175.043 111.259 175.401 111.501 175.715 111.711C176.582 112.292 177.537 112.677 178.558 112.908C180.504 113.349 182.436 112.959 184.372 112.827C184.599 112.812 184.858 112.783 185.053 112.482C184.448 112.3 183.944 111.935 183.343 111.858C182.171 111.71 181.061 111.293 179.907 111.091Z" fill="#122307"/>
<path d="M183.423 114.061C183.258 114.074 183.083 113.965 182.914 113.906C181.677 113.479 180.435 113.135 179.122 113.578C178.849 113.67 178.56 113.746 178.54 114.104C178.518 114.496 178.82 114.643 179.111 114.712C179.916 114.906 180.729 115.077 181.529 115.106C182.27 115.058 182.985 115.04 183.593 114.613C183.748 114.505 183.976 114.277 183.945 114.171C183.877 113.942 183.627 114.044 183.423 114.061Z" fill="#122307"/>
<path d="M208.899 109.55C209.397 109.01 209.235 108.402 208.534 108.202C208.196 108.106 207.848 108.113 207.512 108.204C205.762 108.68 204.142 109.436 202.648 110.465C202.338 110.68 202.392 110.819 202.711 110.96C203.022 111.096 203.344 111.075 203.671 111.098C205.198 110.904 206.697 110.591 208.141 110.044C208.423 109.938 208.687 109.778 208.899 109.55Z" fill="#122307"/>
<path d="M209.295 110.043C208.328 110.22 207.473 110.685 206.627 111.158C206.132 111.435 205.689 111.792 205.286 112.195C205.184 112.296 205.048 112.391 205.124 112.549C205.228 112.77 205.359 112.568 205.476 112.544C205.848 112.463 206.228 112.401 206.589 112.281C207.601 111.943 208.67 111.771 209.624 111.265C209.913 111.111 210.175 110.917 210.233 110.575C210.238 110.208 209.804 109.949 209.295 110.043Z" fill="#122307"/>
</svg>
