<svg width="232" height="260" viewBox="0 0 232 260" fill="none" xmlns="http://www.w3.org/2000/svg">
<path d="M210.001 228.035C153.901 267.986 77.9049 267.986 21.8047 228.035C27.0541 220.642 32.3034 213.248 37.5528 205.855C84.2635 239.121 147.541 239.121 194.252 205.855C199.502 213.248 204.751 220.642 210.001 228.035Z" fill="#FBF8EC" stroke="#0E172F" stroke-width="3" stroke-miterlimit="10" stroke-linecap="round" stroke-linejoin="round"/>
<path d="M230.249 204.332C223.118 211.833 215.43 218.474 207.314 224.254C204.009 219.598 200.703 214.943 197.398 210.288C204.634 205.135 211.487 199.215 217.845 192.527C218.146 196.161 218.314 199.843 218.348 203.565C222.241 203.986 226.211 204.244 230.249 204.332Z" fill="#FBF8EC" stroke="#0E172F" stroke-width="3" stroke-miterlimit="10" stroke-linecap="round" stroke-linejoin="round"/>
<path d="M1.55469 204.332C8.68616 211.833 16.3732 218.474 24.4893 224.254C27.7951 219.598 31.1 214.943 34.4059 210.288C27.1708 205.135 20.3171 199.215 13.9594 192.527C13.6596 196.16 13.49 199.843 13.4561 203.565C9.56259 203.986 5.59301 204.244 1.55469 204.332Z" fill="#FBF8EC" stroke="#0E172F" stroke-width="3" stroke-miterlimit="10" stroke-linecap="round" stroke-linejoin="round"/>
<path d="M194.321 28.2175L194.326 28.2129C159.472 2.72151 125.06 -0.518313 92.1376 3.37058C83.5283 4.33043 78.7171 7.98738 78.0763 15.1124C77.4355 22.2375 82.6922 28.5329 89.8182 29.1737C112.414 29.7916 163.555 35.9046 176.791 47.2467L176.794 47.2439C178.868 49.3305 181.655 50.7304 184.815 51.0137C191.94 51.6545 198.235 46.3969 198.876 39.2718C199.267 34.9016 197.436 30.8495 194.321 28.2175Z" fill="#FBF8EC" stroke="#0E172F" stroke-width="3" stroke-miterlimit="10" stroke-linecap="round" stroke-linejoin="round"/>
<path d="M94.9042 14.1055C94.9042 14.1055 92.2777 21.8393 100.044 23.858" stroke="#0E172F" stroke-width="3" stroke-miterlimit="10" stroke-linecap="round" stroke-linejoin="round"/>
<path d="M120.083 2.11328C120.083 2.11328 112.622 2.21046 112.656 9.09808" stroke="#0E172F" stroke-width="3" stroke-miterlimit="10" stroke-linecap="round" stroke-linejoin="round"/>
<path d="M143.547 28.0962C143.238 28.0009 137.486 25.8776 139.489 18.2383" stroke="#0E172F" stroke-width="3" stroke-miterlimit="10" stroke-linecap="round" stroke-linejoin="round"/>
<path d="M151.508 6.97179C151.508 6.97179 145.248 6.21729 142.367 12.2285" stroke="#0E172F" stroke-width="3" stroke-miterlimit="10" stroke-linecap="round" stroke-linejoin="round"/>
<path d="M165.927 37.9541C165.927 37.9541 161.112 33.6196 164.619 26.5312" stroke="#0E172F" stroke-width="3" stroke-miterlimit="10" stroke-linecap="round" stroke-linejoin="round"/>
<path d="M180.406 37C180.496 35.403 181.204 33.8418 182.504 32.705C185.068 30.4626 188.964 30.723 191.207 33.2862C192.145 34.3597 192.645 35.6661 192.722 36.9872" stroke="#0E172F" stroke-width="3" stroke-miterlimit="10" stroke-linecap="round" stroke-linejoin="round"/>
<path d="M191.449 42.4203C191.208 42.732 190.933 43.0253 190.626 43.2948C188.062 45.5372 184.166 45.2769 181.923 42.7136C181.553 42.2901 181.25 41.8308 181.016 41.3477" stroke="#0E172F" stroke-width="3" stroke-miterlimit="10" stroke-linecap="round" stroke-linejoin="round"/>
<path d="M195.767 46.6773C200.389 41.3658 199.829 33.3134 194.518 28.6918C189.206 24.0702 181.154 24.6296 176.532 29.9412C171.911 35.2527 172.47 43.3051 177.781 47.9267C183.093 52.5482 191.145 51.9889 195.767 46.6773Z" stroke="#0E172F" stroke-width="3" stroke-miterlimit="10" stroke-linecap="round" stroke-linejoin="round"/>
<path d="M81.6211 191.67C83.5802 182.278 86.1581 172.845 91.2223 164.696C96.2865 156.547 104.163 149.741 113.569 147.844" stroke="#0E172F" stroke-width="3" stroke-miterlimit="10" stroke-linecap="round" stroke-linejoin="round"/>
<path d="M123.796 148.195C119.595 157.176 123.673 168.615 131.641 174.516C139.609 180.418 150.467 181.358 160.079 178.928" stroke="#0E172F" stroke-width="3" stroke-miterlimit="10" stroke-linecap="round" stroke-linejoin="round"/>
<path d="M160.758 198.115C156.409 201.237 151.722 203.918 146.763 206.088C144.459 207.096 141.705 206.383 140.281 204.31C139.412 203.045 138.799 201.615 138.543 200.098C138.158 197.806 138.625 195.321 140.101 193.534C140.825 192.663 141.761 191.984 142.741 191.416C145.657 189.747 149.278 189.078 152.441 190.224C152.67 190.307 149.09 186.09 149.328 186.044L155.549 173.062C156.154 170.532 156.997 167.782 159.197 166.388C160.802 165.371 162.919 165.307 164.67 166.031C166.421 166.764 167.815 168.231 168.649 169.936C169.208 171.091 169.538 172.347 169.841 173.594C169.883 173.767 169.925 173.95 169.966 174.143C171.937 183.227 168.307 192.693 160.758 198.115Z" fill="#FBF8EC" stroke="#0E172F" stroke-width="3" stroke-miterlimit="10" stroke-linecap="round" stroke-linejoin="round"/>
<path d="M157.073 174.37C156.84 173.17 156.248 172.187 155.106 171.618C153.694 170.916 149.968 170.144 148.563 171.178C147.968 171.617 147.781 172.429 147.781 173.169C147.781 176.481 147.021 179.204 145.411 182.137C144.334 184.097 143.067 187.355 146.076 188.171C146.732 188.349 149.778 189.764 150.451 189.668C152.855 189.328 154.056 187.31 154.761 185.187C155.547 182.826 157.727 177.743 157.073 174.37Z" fill="#FBF8EC" stroke="#0E172F" stroke-width="3" stroke-miterlimit="10" stroke-linecap="round" stroke-linejoin="round"/>
<path d="M86.1457 206.575C72.7601 200.965 61.296 191.674 53.0149 179.971C50.316 176.156 51.8158 170.816 56.1383 169.041C68.2863 164.053 75.4169 179.789 74.8026 185.308C74.4543 188.48 78.2863 190.846 81.22 192.111L89.5075 194.219C89.5075 194.219 91.0201 197.712 91.4143 199.582C91.7581 201.251 91.7251 202.693 91.4492 203.933C90.9321 206.261 88.3441 207.497 86.1457 206.575Z" fill="#FBF8EC" stroke="#0E172F" stroke-width="3" stroke-miterlimit="10" stroke-linecap="round" stroke-linejoin="round"/>
<path d="M87.5918 195.154C88.8139 195.187 89.903 194.823 90.7042 193.832C91.6971 192.605 93.2583 189.136 92.5533 187.54C92.2545 186.862 91.5027 186.505 90.7794 186.344C87.5451 185.626 85.0524 184.294 82.5387 182.085C80.8582 180.608 77.9549 178.665 76.5036 181.426C76.1873 182.027 74.1457 184.693 74.0926 185.372C73.9028 187.792 75.6125 189.403 77.5313 190.551C79.6701 191.83 84.1577 195.061 87.5918 195.154Z" fill="#FBF8EC" stroke="#0E172F" stroke-width="3" stroke-miterlimit="10" stroke-linecap="round" stroke-linejoin="round"/>
<path d="M44.714 61.4375C44.2427 68.6524 43.7825 76.0002 45.4969 83.0235C47.2121 90.0468 51.476 96.8244 58.0858 99.7535C62.1223 101.542 66.7171 101.768 71.0818 101.103C75.4465 100.438 79.6324 98.9256 83.7523 97.3396" stroke="#0E172F" stroke-width="3" stroke-miterlimit="10" stroke-linecap="round" stroke-linejoin="round"/>
<path d="M57.7995 32.2591C54.2718 32.5249 51.1667 36.1131 51.1667 36.1131C44.8658 43.4023 45.2371 54.397 45.2371 54.397L31.1538 60.08C29.1773 71.9392 41.9019 72.4333 41.9019 72.4333L49.0673 72.1867C52.9984 70.6511 55.0813 69.3383 56.7003 67.1115C58.7694 64.2659 58.5741 60.3431 56.1346 57.8083C54.754 56.3735 53.3917 55.509 53.3917 55.509C52.672 47.8037 56.7379 43.9432 58.1277 42.8614C58.9005 42.2591 59.6238 41.5917 60.2646 40.85C61.4913 39.4309 62.0789 38.1859 62.3035 37.1408C62.8884 34.4135 60.5809 32.0492 57.7995 32.2591Z" fill="#FBF8EC" stroke="#0E172F" stroke-width="3" stroke-miterlimit="10" stroke-linecap="round" stroke-linejoin="round"/>
<path d="M48.7216 79.2114L40.072 79.4626C37.9754 79.5231 36.2262 77.8729 36.1657 75.7763C36.1052 73.6797 37.7553 71.9305 39.852 71.87L48.5016 71.6188C50.5982 71.5583 52.3474 73.2085 52.4079 75.3051C52.4684 77.4008 50.8182 79.15 48.7216 79.2114Z" fill="#FBF8EC" stroke="#0E172F" stroke-width="3" stroke-miterlimit="10" stroke-linecap="round" stroke-linejoin="round"/>
<path d="M37.7341 57.6636C37.7341 61.9 37.4105 65.3351 34.6318 65.3351C31.854 65.3351 29.6016 61.9009 29.6016 57.6636C29.6016 53.4273 31.854 49.9922 34.6318 49.9922C37.4105 49.9931 37.7341 53.4273 37.7341 57.6636Z" fill="#FBF8EC" stroke="#0E172F" stroke-width="3" stroke-miterlimit="10" stroke-linecap="round" stroke-linejoin="round"/>
<path d="M45.2392 54.9271C45.2392 58.8261 44.8935 61.988 41.9269 61.988C38.9603 61.988 36.5547 58.827 36.5547 54.9271C36.5547 51.0272 38.9603 47.8672 41.9269 47.8672C44.8935 47.8672 45.2392 51.0282 45.2392 54.9271Z" fill="#FBF8EC" stroke="#0E172F" stroke-width="3" stroke-miterlimit="10" stroke-linecap="round" stroke-linejoin="round"/>
<path d="M49.3059 65.3349C42.9913 58.4518 47.8207 51.0407 53.3864 55.5044L56.1293 57.8037" fill="#FBF8EC"/>
<path d="M49.3059 65.3349C42.9913 58.4518 47.8207 51.0407 53.3864 55.5044L56.1293 57.8037" stroke="#0E172F" stroke-width="3" stroke-miterlimit="10" stroke-linecap="round" stroke-linejoin="round"/>
<path d="M158.352 155.525C83.7248 169.091 54.7222 132.811 83.7184 33.223C85.0596 28.6172 88.9925 25.2161 93.745 24.5606C108.66 22.5043 142.039 20.8587 169.144 40.9193C112.504 111.171 95.5895 155.133 158.352 155.525Z" fill="#DD6D00" stroke="#0E172F" stroke-width="3" stroke-miterlimit="10" stroke-linecap="round" stroke-linejoin="round"/>
<path d="M158.35 155.524C95.5875 155.132 112.503 111.169 169.141 40.918L172.595 44.6254C174.95 47.1529 175.049 51.0399 172.826 53.6838L156.048 73.6463C149.912 80.9584 144.282 88.6756 139.387 96.8733C118.056 132.55 124.381 152.108 158.35 155.524Z" fill="#FBF8EC" stroke="#0E172F" stroke-width="3" stroke-miterlimit="10" stroke-linecap="round" stroke-linejoin="round"/>
<path d="M97.087 41.8129C95.9713 44.6668 92.978 46.1648 90.4019 45.1573C87.8249 44.1507 86.6405 41.0199 87.7553 38.1661C88.871 35.3122 91.8642 33.8142 94.4403 34.8217C97.0182 35.8292 98.2027 38.9591 97.087 41.8129Z" fill="#FBF8EC" stroke="#0E172F" stroke-width="3" stroke-miterlimit="10" stroke-linecap="round" stroke-linejoin="round"/>
<path d="M139.252 71.2621C137.643 75.3802 133.325 77.54 129.607 76.0879C125.89 74.6348 124.18 70.1189 125.789 66.0008C127.398 61.8827 131.717 59.7228 135.434 61.175C139.152 62.628 140.862 67.144 139.252 71.2621Z" fill="#FBF8EC" stroke="#0E172F" stroke-width="3" stroke-miterlimit="10" stroke-linecap="round" stroke-linejoin="round"/>
<path d="M92.7761 91.9816C94.3854 87.8638 92.676 83.3477 88.9581 81.8947C85.2402 80.4417 80.9216 82.602 79.3123 86.7198C77.703 90.8376 79.4124 95.3537 83.1304 96.8067C86.8483 98.2597 91.1668 96.0994 92.7761 91.9816Z" fill="#FBF8EC" stroke="#0E172F" stroke-width="3" stroke-miterlimit="10" stroke-linecap="round" stroke-linejoin="round"/>
<path d="M99.3065 118.256C98.5264 123.615 93.971 127.39 89.1314 126.686C84.2928 125.981 81.0016 121.065 81.7827 115.705C82.5628 110.346 87.1182 106.572 91.9578 107.276C96.7974 107.98 100.088 112.897 99.3065 118.256Z" fill="#FBF8EC" stroke="#0E172F" stroke-width="3" stroke-miterlimit="10" stroke-linecap="round" stroke-linejoin="round"/>
<path d="M116.853 140.786C117.71 145.501 114.954 149.951 110.698 150.726C106.441 151.499 102.295 148.305 101.437 143.59C100.58 138.875 103.336 134.425 107.593 133.651C111.85 132.876 115.996 136.071 116.853 140.786Z" fill="#FBF8EC" stroke="#0E172F" stroke-width="3" stroke-miterlimit="10" stroke-linecap="round" stroke-linejoin="round"/>
<path d="M132.593 38.4844C131.563 39.6092 130.564 40.7937 129.921 42.1762C128.454 45.3298 129.892 49.7394 133.867 49.7458C135.774 49.7486 137.613 48.4395 138.233 46.6371C137.675 48.2057 137.112 49.7963 136.981 51.4565C136.765 54.1921 138.248 57.6346 141.672 57.6575C147.58 57.696 147.58 46.4254 147.58 46.4254" stroke="#0E172F" stroke-width="3" stroke-miterlimit="10" stroke-linecap="round" stroke-linejoin="round"/>
<path d="M119.116 96.2773C119.458 97.7642 119.743 99.287 119.621 100.807C119.343 104.274 115.917 107.401 112.456 105.448C110.796 104.511 109.841 102.464 110.19 100.59C109.902 102.23 109.608 103.891 108.903 105.4C107.741 107.886 104.754 110.151 101.765 108.482C96.6051 105.603 102.163 95.7969 102.163 95.7969" stroke="#0E172F" stroke-width="3" stroke-miterlimit="10" stroke-linecap="round" stroke-linejoin="round"/>
<path d="M112.8 64.1527C112.223 67.1019 110.418 69.2315 108.771 68.9088C107.124 68.5861 106.257 65.933 106.836 62.9838C107.414 60.0346 109.217 57.9049 110.865 58.2276C112.511 58.5503 113.378 61.2034 112.8 64.1527Z" fill="#0E172F"/>
<path d="M101.261 61.887C100.684 64.8363 98.8793 66.9659 97.2319 66.6432C95.5845 66.3205 94.7182 63.6674 95.2966 60.7182C95.8751 57.768 97.6784 55.6393 99.3258 55.962C100.972 56.2847 101.84 58.9369 101.261 61.887Z" fill="#0E172F"/>
<path d="M94.043 51.9298C94.043 51.9298 97.8466 44.5857 102.253 49.9075" stroke="#0E172F" stroke-width="3" stroke-miterlimit="10" stroke-linecap="round" stroke-linejoin="round"/>
<path d="M118.374 56.2988C118.374 56.2988 116.792 48.29 111.016 52.0817" stroke="#0E172F" stroke-width="3" stroke-miterlimit="10" stroke-linecap="round" stroke-linejoin="round"/>
<path d="M118.372 72.3734C99.3662 85.5913 90.6267 71.2293 90.6267 71.2293L87.7188 66.8555" stroke="#0E172F" stroke-width="3" stroke-miterlimit="10" stroke-linecap="round" stroke-linejoin="round"/>
<path d="M115.945 67.6055C115.945 67.6055 116.913 72.3928 120.894 73.3031" stroke="#0E172F" stroke-width="3" stroke-miterlimit="10" stroke-linecap="round" stroke-linejoin="round"/>
<path d="M90.6242 64.0547C90.6242 64.0547 89.3857 67.4641 85.3125 67.1653" stroke="#0E172F" stroke-width="3" stroke-miterlimit="10" stroke-linecap="round" stroke-linejoin="round"/>
<path d="M133.836 90.9737C140.636 90.5098 147.538 90.0523 154.214 91.4339C160.889 92.8154 167.426 96.2936 170.989 102.105C172.879 105.186 173.844 108.765 174.23 112.358C174.781 117.482 174.187 122.726 172.503 127.596" stroke="#0E172F" stroke-width="3" stroke-miterlimit="10" stroke-linecap="round" stroke-linejoin="round"/>
<path d="M177.038 123.407L167.623 121.379L159.678 124.358C157.268 125.262 155.478 127.473 155.394 130.045C155.348 131.452 155.773 132.996 157.194 134.415C157.194 134.415 153.717 140.644 160.38 142.382C160.38 142.382 162.987 142.961 164.726 142.382C164.726 142.382 166.174 146.438 172.403 144.265C172.403 144.265 179.5 147.741 182.252 139.63C182.252 139.63 185.584 130.794 177.038 123.407Z" fill="#FBF8EC" stroke="#0E172F" stroke-width="3" stroke-miterlimit="10" stroke-linecap="round" stroke-linejoin="round"/>
<path d="M179.533 126.51L164.738 122.429C162.716 121.871 161.529 119.779 162.087 117.758C162.644 115.735 164.736 114.549 166.758 115.106L181.552 119.188C183.575 119.745 184.761 121.837 184.204 123.859C183.646 125.88 181.554 127.067 179.533 126.51Z" fill="#FBF8EC" stroke="#0E172F" stroke-width="3" stroke-miterlimit="10" stroke-linecap="round" stroke-linejoin="round"/>
<path d="M157.195 134.41C157.195 134.41 165.162 138.611 165.741 130.789" stroke="#0E172F" stroke-width="3" stroke-miterlimit="10" stroke-linecap="round" stroke-linejoin="round"/>
<path d="M164.727 142.383C164.727 142.383 168.203 141.948 169.941 137.023" stroke="#0E172F" stroke-width="3" stroke-miterlimit="10" stroke-linecap="round" stroke-linejoin="round"/>
<path d="M172.609 144.148C172.609 144.148 176.086 143.714 177.824 138.789" stroke="#0E172F" stroke-width="3" stroke-miterlimit="10" stroke-linecap="round" stroke-linejoin="round"/>
</svg>
