<svg width="260" height="226" viewBox="0 0 260 226" fill="none" xmlns="http://www.w3.org/2000/svg">
<path d="M235.807 190.679C173.009 235.401 87.9389 235.401 25.1406 190.679C31.0172 182.404 36.8932 174.128 42.7691 165.852C95.0571 203.089 165.89 203.089 218.178 165.852C224.055 174.128 229.931 182.404 235.807 190.679Z" fill="#FBF8EC" stroke="#0E172F" stroke-width="3" stroke-miterlimit="10" stroke-linecap="round" stroke-linejoin="round"/>
<path d="M258.472 164.144C250.489 172.54 241.884 179.974 232.799 186.444C229.099 181.233 225.399 176.022 221.699 170.811C229.798 165.044 237.47 158.416 244.587 150.93C244.923 154.997 245.112 159.119 245.15 163.286C249.508 163.756 253.952 164.046 258.472 164.144Z" fill="#FBF8EC" stroke="#0E172F" stroke-width="3" stroke-miterlimit="10" stroke-linecap="round" stroke-linejoin="round"/>
<path d="M2.47266 164.144C10.455 172.54 19.0603 179.974 28.1454 186.444C31.8458 181.233 35.5455 176.022 39.2458 170.811C31.1467 165.043 23.4747 158.416 16.358 150.93C16.022 154.997 15.8326 159.119 15.7949 163.286C11.4367 163.756 6.99242 164.046 2.47266 164.144Z" fill="#FBF8EC" stroke="#0E172F" stroke-width="3" stroke-miterlimit="10" stroke-linecap="round" stroke-linejoin="round"/>
<path d="M130.471 2C106.951 54.083 90.7407 94.8826 58.7656 149.031C101.593 176.217 157.973 173.711 202.177 149.031C170.201 94.8826 155.475 55.8691 130.471 2Z" fill="#DD6D00"/>
<path d="M130.471 2C106.951 54.083 90.7407 94.8826 58.7656 149.031C101.593 176.217 157.973 173.711 202.177 149.031C170.201 94.8826 155.475 55.8691 130.471 2Z" stroke="#0E172F" stroke-width="3" stroke-miterlimit="10" stroke-linecap="round" stroke-linejoin="round"/>
<path d="M116.495 139.706C116.564 144.495 113.382 148.348 108.467 148.345C103.551 148.348 100.368 144.494 100.439 139.706C100.369 134.917 103.551 131.064 108.467 131.066C113.383 131.064 116.565 134.917 116.495 139.706Z" fill="#0E172F"/>
<path d="M149.344 59.6506C149.423 65.0688 145.823 69.4291 140.261 69.4262C134.699 69.4291 131.098 65.0688 131.177 59.6506C131.098 54.2325 134.699 49.8722 140.261 49.875C145.823 49.8722 149.423 54.2325 149.344 59.6506Z" fill="#0E172F"/>
<path d="M156.582 75.6654C156.626 78.6752 154.625 81.0978 151.536 81.0963C148.445 81.0978 146.445 78.6759 146.489 75.6654C146.445 72.6555 148.445 70.233 151.536 70.2344C154.626 70.233 156.626 72.6555 156.582 75.6654Z" stroke="#0E172F" stroke-width="3" stroke-miterlimit="10" stroke-linecap="round" stroke-linejoin="round"/>
<path d="M125.352 128.052C125.396 131.062 123.395 133.484 120.305 133.483C117.215 133.484 115.215 131.063 115.259 128.052C115.214 125.042 117.215 122.62 120.305 122.621C123.395 122.62 125.396 125.042 125.352 128.052Z" fill="#0E172F"/>
<path d="M145.484 131.618C145.537 135.243 143.128 138.16 139.406 138.158C135.685 138.16 133.276 135.243 133.329 131.618C133.276 127.993 135.685 125.076 139.406 125.078C143.128 125.076 145.537 127.993 145.484 131.618Z" stroke="#0E172F" stroke-width="3" stroke-miterlimit="10" stroke-linecap="round" stroke-linejoin="round"/>
<path d="M96.7259 123.739C96.7786 127.364 94.3703 130.282 90.6485 130.279C86.9275 130.282 84.5185 127.364 84.5712 123.739C84.5185 120.114 86.9275 117.197 90.6485 117.199C94.3703 117.197 96.7786 120.114 96.7259 123.739Z" stroke="#0E172F" stroke-width="3" stroke-miterlimit="10" stroke-linecap="round" stroke-linejoin="round"/>
<path d="M100.197 107.81C100.23 110.06 98.7352 111.871 96.4252 111.87C94.1151 111.871 92.6201 110.06 92.6529 107.81C92.6201 105.56 94.1158 103.749 96.4252 103.75C98.7352 103.749 100.23 105.56 100.197 107.81Z" fill="#FBF8EC" stroke="#0E172F" stroke-width="3" stroke-miterlimit="10" stroke-linecap="round" stroke-linejoin="round"/>
<path d="M128.166 47.4427C128.199 49.693 126.704 51.504 124.394 51.5026C122.084 51.504 120.589 49.693 120.622 47.4427C120.589 45.1924 122.085 43.3814 124.394 43.3828C126.704 43.3814 128.199 45.1924 128.166 47.4427Z" fill="#FBF8EC" stroke="#0E172F" stroke-width="3" stroke-miterlimit="10" stroke-linecap="round" stroke-linejoin="round"/>
<path d="M171.944 107.064C171.976 109.314 170.481 111.125 168.171 111.124C165.861 111.125 164.366 109.314 164.399 107.064C164.366 104.814 165.862 103.002 168.171 103.004C170.481 103.002 171.976 104.814 171.944 107.064Z" fill="#FBF8EC" stroke="#0E172F" stroke-width="3" stroke-miterlimit="10" stroke-linecap="round" stroke-linejoin="round"/>
<path d="M161.768 120.63C161.801 122.88 160.306 124.692 157.995 124.69C155.685 124.692 154.19 122.88 154.223 120.63C154.19 118.38 155.686 116.569 157.995 116.57C160.306 116.57 161.801 118.38 161.768 120.63Z" fill="#FBF8EC" stroke="#0E172F" stroke-width="3" stroke-miterlimit="10" stroke-linecap="round" stroke-linejoin="round"/>
<path d="M136.55 32.7003C136.603 36.3252 134.194 39.2425 130.473 39.2404C126.752 39.2425 124.343 36.3252 124.395 32.7003C124.343 29.0753 126.751 26.158 130.473 26.1602C134.194 26.158 136.603 29.0753 136.55 32.7003Z" stroke="#0E172F" stroke-width="3" stroke-miterlimit="10" stroke-linecap="round" stroke-linejoin="round"/>
<path d="M125.687 68.8511C128.153 71.5656 128.874 75.5379 127.101 78.7492C126.385 80.047 125.324 81.1775 123.959 81.9897C119.861 84.4265 114.563 83.0803 112.127 78.9827C109.69 74.8851 107.514 63.7505 116.803 51.5039C119.045 58.8157 121.943 64.7322 125.687 68.8511Z" fill="#FBF8EC" stroke="#0E172F" stroke-width="3" stroke-miterlimit="10" stroke-linecap="round" stroke-linejoin="round"/>
<path d="M123.959 81.986C123.959 81.986 118.613 78.9085 116.672 68.9492" stroke="#0E172F" stroke-width="3" stroke-miterlimit="10" stroke-linecap="round" stroke-linejoin="round"/>
<path d="M161.398 130.451C158.149 132.155 156.111 135.64 156.676 139.264C156.904 140.728 157.512 142.154 158.517 143.385C161.532 147.079 166.97 147.63 170.664 144.616C174.358 141.602 180.219 131.888 175.691 117.199C171.077 123.301 166.326 127.865 161.398 130.451Z" fill="#FBF8EC" stroke="#0E172F" stroke-width="3" stroke-miterlimit="10" stroke-linecap="round" stroke-linejoin="round"/>
<path d="M158.52 143.381C158.52 143.381 164.596 142.323 169.835 133.633" stroke="#0E172F" stroke-width="3" stroke-miterlimit="10" stroke-linecap="round" stroke-linejoin="round"/>
<path opacity="0.6" d="M163.879 91.8385C164.633 96.4302 160.719 100.343 156.128 99.591C153.347 99.1347 151.105 96.8922 150.648 94.1116C149.894 89.5192 153.808 85.6053 158.401 86.3592C161.181 86.8155 163.423 89.0579 163.879 91.8385Z" fill="#DD6D00"/>
<path opacity="0.6" d="M112.051 91.8385C112.804 96.4302 108.891 100.343 104.299 99.591C101.519 99.1347 99.2764 96.8922 98.8201 94.1116C98.0662 89.5192 101.98 85.6053 106.573 86.3592C109.352 86.8155 111.595 89.0579 112.051 91.8385Z" fill="#DD6D00"/>
<path d="M152.27 99.8672C151.297 103.947 149.137 107.79 145.814 110.839C136.952 118.971 123.176 118.378 115.044 109.516C112.524 106.77 110.843 103.551 109.984 100.175" stroke="#0E172F" stroke-width="3" stroke-miterlimit="10" stroke-linecap="round" stroke-linejoin="round"/>
<path d="M157.917 101.293C157.917 101.293 152.272 101.875 149.777 96.5156" stroke="#0E172F" stroke-width="3" stroke-miterlimit="10" stroke-linecap="round" stroke-linejoin="round"/>
<path d="M104.938 101.293C104.938 101.293 110.583 101.875 113.077 96.5156" stroke="#0E172F" stroke-width="3" stroke-miterlimit="10" stroke-linecap="round" stroke-linejoin="round"/>
<path d="M138.661 103.75C140.431 103.75 141.865 101.338 141.865 98.3634C141.865 95.3883 140.431 92.9766 138.661 92.9766C136.892 92.9766 135.457 95.3883 135.457 98.3634C135.457 101.338 136.892 103.75 138.661 103.75Z" fill="#0E172F"/>
<path d="M123.849 103.75C125.618 103.75 127.053 101.338 127.053 98.3634C127.053 95.3883 125.618 92.9766 123.849 92.9766C122.079 92.9766 120.645 95.3883 120.645 98.3634C120.645 101.338 122.079 103.75 123.849 103.75Z" fill="#0E172F"/>
<path d="M208.144 157.137C188.931 171.93 161.253 181.213 130.478 181.213C100.7 181.213 73.8045 172.52 54.6832 158.546C51.4299 156.161 50.7821 151.555 53.2096 148.331L53.3021 148.21L53.3449 148.146C55.6585 145.077 59.9084 144.187 63.2258 146.124C81.443 156.795 104.893 163.216 130.478 163.216C156.896 163.216 181.036 156.375 199.495 145.07C202.777 143.063 207.041 143.888 209.397 146.9C209.433 146.935 209.469 146.978 209.497 147.021C211.889 150.196 211.298 154.716 208.144 157.137Z" fill="#FBF8EC" stroke="#0E172F" stroke-width="3" stroke-miterlimit="10" stroke-linecap="round" stroke-linejoin="round"/>
<path d="M60.6891 145.199L54.2109 158.156" stroke="#0E172F" stroke-width="3" stroke-miterlimit="10" stroke-linecap="round" stroke-linejoin="round"/>
<path d="M66.4981 147.965L59.543 161.868" stroke="#0E172F" stroke-width="3" stroke-miterlimit="10" stroke-linecap="round" stroke-linejoin="round"/>
<path d="M72.1452 150.805L64.9766 165.128" stroke="#0E172F" stroke-width="3" stroke-miterlimit="10" stroke-linecap="round" stroke-linejoin="round"/>
<path d="M78.0399 153.383L70.6719 168.105" stroke="#0E172F" stroke-width="3" stroke-miterlimit="10" stroke-linecap="round" stroke-linejoin="round"/>
<path d="M83.9906 155.617L76.4375 170.716" stroke="#0E172F" stroke-width="3" stroke-miterlimit="10" stroke-linecap="round" stroke-linejoin="round"/>
<path d="M90.1906 157.598L82.4453 173.067" stroke="#0E172F" stroke-width="3" stroke-miterlimit="10" stroke-linecap="round" stroke-linejoin="round"/>
<path d="M96.4265 159.254L88.4961 175.086" stroke="#0E172F" stroke-width="3" stroke-miterlimit="10" stroke-linecap="round" stroke-linejoin="round"/>
<path d="M94.8086 176.855V176.848L102.917 160.652" stroke="#0E172F" stroke-width="3" stroke-miterlimit="10" stroke-linecap="round" stroke-linejoin="round"/>
<path d="M109.439 161.742L101.152 178.301" stroke="#0E172F" stroke-width="3" stroke-miterlimit="10" stroke-linecap="round" stroke-linejoin="round"/>
<path d="M116.225 162.535L107.746 179.478" stroke="#0E172F" stroke-width="3" stroke-miterlimit="10" stroke-linecap="round" stroke-linejoin="round"/>
<path d="M123.05 163.035L114.379 180.348" stroke="#0E172F" stroke-width="3" stroke-miterlimit="10" stroke-linecap="round" stroke-linejoin="round"/>
<path d="M130.14 163.215L121.277 180.927" stroke="#0E172F" stroke-width="3" stroke-miterlimit="10" stroke-linecap="round" stroke-linejoin="round"/>
<path d="M137.288 163.059L128.219 181.19" stroke="#0E172F" stroke-width="3" stroke-miterlimit="10" stroke-linecap="round" stroke-linejoin="round"/>
<path d="M144.742 162.535L135.438 181.122" stroke="#0E172F" stroke-width="3" stroke-miterlimit="10" stroke-linecap="round" stroke-linejoin="round"/>
<path d="M142.707 180.71L152.261 161.624V161.617" stroke="#0E172F" stroke-width="3" stroke-miterlimit="10" stroke-linecap="round" stroke-linejoin="round"/>
<path d="M160.147 160.234L150.309 179.897" stroke="#0E172F" stroke-width="3" stroke-miterlimit="10" stroke-linecap="round" stroke-linejoin="round"/>
<path d="M157.996 178.656V178.649L168.169 158.324" stroke="#0E172F" stroke-width="3" stroke-miterlimit="10" stroke-linecap="round" stroke-linejoin="round"/>
<path d="M166.078 176.873V176.866L176.657 155.723" stroke="#0E172F" stroke-width="3" stroke-miterlimit="10" stroke-linecap="round" stroke-linejoin="round"/>
<path d="M174.336 174.493L185.427 152.339V152.332" stroke="#0E172F" stroke-width="3" stroke-miterlimit="10" stroke-linecap="round" stroke-linejoin="round"/>
<path d="M194.931 147.703L183.121 171.302" stroke="#0E172F" stroke-width="3" stroke-miterlimit="10" stroke-linecap="round" stroke-linejoin="round"/>
<path d="M203.857 143.988L192.281 167.11" stroke="#0E172F" stroke-width="3" stroke-miterlimit="10" stroke-linecap="round" stroke-linejoin="round"/>
<path d="M202.426 161.213V161.206L209.516 147.047" stroke="#0E172F" stroke-width="3" stroke-miterlimit="10" stroke-linecap="round" stroke-linejoin="round"/>
</svg>
