<svg width="243" height="256" viewBox="0 0 243 256" fill="none" xmlns="http://www.w3.org/2000/svg">
<path d="M35.9619 248.502C20.2718 248.502 7.50781 235.737 7.50781 220.048C7.50781 204.359 20.2718 191.594 35.9619 191.594H207.049C222.738 191.594 235.503 204.359 235.503 220.048C235.503 235.737 222.738 248.502 207.049 248.502H35.9619Z" fill="#AD4040"/>
<path d="M207.048 254.214V252.428H35.9616C27.0132 252.427 18.9281 248.806 13.0622 242.943C7.19931 237.077 3.578 228.992 3.57722 220.044C3.578 211.095 7.19931 203.01 13.0622 197.144C18.9281 191.281 27.0132 187.66 35.9616 187.659H207.048C215.997 187.66 224.082 191.281 229.948 197.144C235.811 203.01 239.432 211.095 239.433 220.044C239.432 228.992 235.811 237.077 229.948 242.943C224.082 248.806 215.997 252.427 207.048 252.428V254.214V256C226.908 256 243.004 239.902 243.005 220.044C243.004 200.184 226.907 184.087 207.048 184.086H35.9616C16.102 184.087 0.00545481 200.184 0.00390625 220.044C0.00545481 239.903 16.102 256 35.9616 256H207.048V254.214Z" fill="#064C1A"/>
<path d="M129.243 42.659C133.155 40.9664 137.213 39.2382 141.414 38.3865C141.919 36.0908 142.539 32.8806 142.691 31.9166C140.527 32.5438 137.775 32.2124 136.211 31.3645C136 31.2507 136.098 30.9271 136.338 30.9395C138.16 31.03 139.829 31.0781 141.634 30.5345C139.377 30.3084 137.08 29.4544 134.893 27.8067C134.761 27.7076 134.832 27.4451 135.016 27.514C140.465 29.5643 147.044 28.9821 151.267 24.5958C154.63 21.103 155.759 16.0733 154.321 11.57C152.203 6.2662 146.68 2.84543 140.917 2.45209C137.464 2.21671 134.082 2.90814 130.842 4.05872C128.707 4.81675 126.713 5.92474 124.661 6.86782C124.068 7.14114 124.04 7.97194 124.619 8.27469C126.759 9.39507 128.909 10.5178 131.161 11.4043C133.345 12.2646 141.009 14.7887 139.662 9.48024C139.544 9.0118 140.235 8.82675 140.382 9.28203C141.029 11.2789 139.872 13.5135 137.981 14.4085C134.733 15.9447 130.743 13.9099 127.807 12.5479C120.38 9.10162 113.161 3.48266 104.536 4.04324C96.3816 4.57362 90.1122 12.2166 91.4138 20.3442C92.0743 24.4665 94.346 28.2837 97.8063 30.6491C101.107 32.9054 104.783 33.3568 108.589 34.1218C109.218 34.248 109.107 35.1066 108.589 35.2871C107.937 35.5147 107.275 35.6711 106.607 35.7656C106.601 35.7803 106.601 35.7934 106.595 35.8081C106.438 36.2116 106.29 36.618 106.136 37.023C106.072 37.2359 105.294 39.8785 104.325 43.1429C107.407 42.1665 110.638 41.5835 113.866 41.2436C115.809 41.0392 117.756 40.8456 119.711 40.8139C121.828 40.769 123.897 41.0818 125.978 41.4256C126.151 41.4542 126.335 41.4883 126.462 41.6106C126.716 41.8584 126.395 42.2687 126.129 42.3586C125.831 42.4592 125.563 42.3431 125.265 42.3315C124.84 42.3152 124.413 42.3222 123.988 42.316C123.156 42.3036 122.324 42.2889 121.492 42.2827C119.812 42.2695 118.13 42.2904 116.456 42.4375C112.407 42.7922 108.319 43.6547 104.487 45.012C104.223 45.1057 103.955 45.1909 103.688 45.2799C102.619 48.8695 101.466 52.7123 100.813 54.7804C103.562 53.8148 106.244 52.6077 108.868 51.4742C115.661 48.5389 122.451 45.5974 129.243 42.659Z" fill="#AD4040"/>
<path d="M158.884 60.2959C157.243 60.8286 155.688 61.6052 154.272 62.5893C149.187 66.1231 146.589 72.7293 148.266 78.7547C149.02 81.464 150.739 83.9215 152.967 85.6342C154.081 86.4914 155.312 87.2246 156.63 87.7186C157.763 88.1429 158.95 88.3667 160.106 88.7012C161.086 85.5986 161.867 82.4279 162.43 79.2263C162.916 76.4621 163.242 73.6755 163.397 70.8904C163.61 67.0724 163.74 63.1429 163.356 59.3164C162.663 59.5162 161.908 59.5696 161.206 59.7059C160.421 59.8584 159.645 60.0489 158.884 60.2959ZM151.288 80.2127C151.254 80.27 151.209 80.3157 151.151 80.3498C151.092 80.3846 151.027 80.4016 150.959 80.4016C150.89 80.4016 150.826 80.3838 150.767 80.3498C150.709 80.3157 150.664 80.27 150.629 80.2127C150.561 80.1136 150.55 79.975 150.591 79.8643C150.601 79.8364 150.611 79.8093 150.621 79.7814C150.651 79.6978 150.7 79.615 150.782 79.5724C150.837 79.543 150.897 79.5275 150.959 79.5244C151.035 79.5205 151.112 79.5538 151.171 79.5995C151.209 79.6243 151.239 79.6568 151.261 79.6978C151.272 79.7257 151.284 79.7536 151.296 79.7814C151.306 79.8093 151.316 79.8364 151.326 79.8643C151.367 79.975 151.357 80.1136 151.288 80.2127ZM155.692 64.3152C154.87 65.2606 153.833 65.9597 153.004 66.9082C152.199 67.8296 151.542 68.8842 151.05 70.0038C150.454 71.3596 150.07 72.8036 149.964 74.2833C149.867 75.6414 150.18 76.9514 150.142 78.2987C150.138 78.4466 149.931 78.5139 149.855 78.3761C149.172 77.1419 149.183 75.4989 149.28 74.1214C149.381 72.6751 149.703 71.2218 150.293 69.8946C151.264 67.7143 153.191 64.8471 155.6 64.158C155.696 64.1309 155.751 64.2478 155.692 64.3152Z" fill="#AD4040"/>
<path d="M99.2239 127.823C99.4547 123.525 96.1477 119.394 92.2701 117.828C91.3046 121.998 90.6147 126.202 90.8052 130.509C90.9151 132.984 91.2086 135.446 91.67 137.877C95.9208 136.53 98.9854 132.255 99.2239 127.823Z" fill="#AD4040"/>
<path d="M121.705 185.619C120.813 185.509 120.718 185.792 121.519 186.202C122.82 186.87 124.518 186.801 125.907 186.794C127.978 186.784 130.043 186.589 132.081 186.225C135.447 185.624 139.688 184.738 141.666 181.639C142.676 180.055 142.965 178.173 143.075 176.331C143.208 174.104 143.159 171.855 143.056 169.631C142.962 167.606 142.757 165.589 142.44 163.586C142.316 162.807 142.192 162.004 142.031 161.207C142.573 164.982 142.732 168.828 142.587 172.63C142.448 176.278 141.628 179.974 138.506 182.225C135.267 184.561 130.74 185.207 126.867 185.547C125.304 185.684 123.444 185.833 121.705 185.619Z" fill="#E5E3DC"/>
<path d="M113.051 117.046C112.379 115.857 111.919 114.564 111.518 113.263C111.161 112.101 110.981 110.845 110.168 109.894C109.787 109.448 109.291 109.09 108.729 108.921C108.303 108.793 107.84 108.779 107.41 108.898C106.997 109.013 106.63 109.289 106.327 109.586C105.131 110.75 105.18 112.354 105.824 113.81C106.614 115.593 108.304 116.895 109.832 118.165C110.228 118.324 110.628 118.472 111.031 118.608C109.042 117.071 107.763 114.697 108.051 111.918C108.07 111.73 108.326 111.682 108.387 111.873C109.072 114.018 109.764 115.689 111.431 117.287C112.461 118.275 113.722 119.046 115.069 119.56C114.217 118.835 113.509 117.857 113.051 117.046Z" fill="#AD4040"/>
<path d="M137.181 90.0324C138.696 89.519 139.659 89.9132 140.238 90.7904C140.095 87.4262 139.191 83.4471 135.313 85.0042C131.852 86.3933 130.885 91.6127 130.54 94.891C130.203 98.102 130.427 101.327 130.447 104.545C131.336 104.257 132.262 104.079 133.185 104.007C133.085 102.203 132.921 99.5499 133.192 97.0203L136.962 95.7296L133.745 94.1531C134.331 92.2166 135.374 90.6448 137.181 90.0324Z" fill="#E5E3DC"/>
<path d="M36.9453 108.805C40.6921 106.426 45.9549 107.449 49.2727 110.227C49.4237 108.894 49.8619 107.58 50.5022 106.365C49.6823 106.097 48.894 105.329 48.1995 104.886C47.3261 104.33 46.4264 103.807 45.4841 103.375C43.5143 102.472 41.2697 101.97 39.118 102.434C37.2783 102.83 35.5028 103.981 34.8315 105.809C34.2532 107.387 34.6062 108.784 35.3418 110.162C35.8157 109.629 36.3747 109.167 36.9453 108.805Z" fill="#E5E3DC"/>
<path d="M139.581 92.336C139.139 91.4022 137.725 91.3031 137.18 92.1966C136.645 93.0715 137.014 94.8245 138.105 95.0947C139.686 95.4857 140.075 93.3805 139.581 92.336Z" fill="#E5E3DC"/>
<path d="M65.5436 121.505C67.295 119.976 68.2497 117.77 67.6024 115.474C66.9574 113.187 65.2772 111.355 63.7194 109.636C63.4654 109.355 63.8665 108.949 64.1367 109.219C66.0283 111.111 67.7356 113.151 68.444 115.742C70.2899 114.298 71.456 112.322 71.528 109.933C71.6047 107.401 70.0491 105.071 70.3449 102.542C70.4618 101.544 70.7638 100.621 71.3197 99.7775C71.8331 98.9986 72.5028 98.3257 72.9798 97.5228C74.1311 95.5832 72.7777 93.0978 70.6585 92.6138C68.4828 92.1175 66.2869 93.4276 65.1293 95.2139C64.4627 96.2429 64.1212 97.3424 63.9424 98.544C63.81 99.4345 63.7643 100.383 63.2858 101.174C62.1933 102.979 60.0462 102.642 58.431 101.86C56.1004 100.732 53.807 99.5746 51.3162 98.8274C48.9368 98.1143 46.4219 97.745 43.9458 98.1004C41.7979 98.4085 39.5564 99.2897 38.5978 101.262C40.6752 100.687 42.9175 100.98 44.9338 101.728C46.1153 102.166 47.238 102.743 48.315 103.396C48.9228 103.763 49.516 104.156 50.1036 104.556C50.4675 104.803 50.8353 105.016 51.121 105.321C51.6971 104.441 52.3754 103.633 53.1187 102.935C53.3432 102.724 53.6715 103.051 53.457 103.273C50.4923 106.351 50.0525 110.672 50.3932 114.746C50.4079 114.922 50.1369 114.991 50.0587 114.836C49.4099 113.552 49.1621 112.188 49.2256 110.831C47.0506 109.698 45.0081 108.557 42.4592 108.487C40.2377 108.425 37.928 109.055 36.3408 110.679C35.5526 111.486 34.8843 112.623 35.1422 113.791C35.414 115.02 36.5003 115.359 37.6354 115.384C39.7012 115.43 41.705 115.341 43.7537 115.705C45.7677 116.063 47.7676 116.729 49.54 117.758C51.3433 118.805 52.7455 120.291 54.318 121.632C55.9479 123.021 57.807 123.808 59.9711 123.712C62.0067 123.621 64.0035 122.849 65.5436 121.505Z" fill="#E5E3DC"/>
<path d="M70.7714 118.166C70.2859 117.451 69.6688 116.688 68.718 116.777C68.7002 116.778 68.6832 116.777 68.6669 116.776C68.8589 117.944 68.8876 119.261 68.4075 120.341C67.8841 121.519 67.0076 122.5 65.9871 123.274C64.1343 124.679 61.7379 125.463 59.4088 125.358C59.2122 125.349 59.0194 125.332 58.8281 125.312C59.5319 126.752 61.0565 127.715 62.6771 127.775C64.653 127.849 66.5361 126.857 67.9647 125.552C69.3599 124.278 70.4454 122.621 70.9309 120.786C71.1624 119.912 71.3072 118.954 70.7714 118.166Z" fill="#E5E3DC"/>
<path d="M86.8227 187.531C85.1874 183.715 83.913 179.591 83.0992 175.515C82.3055 171.536 81.9083 167.477 81.9486 163.419C81.978 160.431 81.731 155.899 78.2483 154.888C78.1508 154.861 78.0516 154.84 77.9525 154.824C77.4771 154.985 76.4102 155.537 75.9766 155.785C76.5046 155.923 77.0095 156.173 77.44 156.504C79.2038 157.855 79.6583 160.335 79.8813 162.408C79.9966 163.481 80.1143 164.553 80.2398 165.625C80.8135 170.524 81.5266 175.436 82.7438 180.223C83.8409 184.538 85.4762 188.895 88.3132 192.385C88.9419 193.158 90.9535 194.959 91.3282 195.2C91.5876 195.17 92.1242 194.927 92.365 194.855C89.7518 193.078 88.0499 190.397 86.8227 187.531Z" fill="#E5E3DC"/>
<path d="M159.664 131.635C155.366 130.835 150.768 132.031 147.385 134.796C145.685 136.186 144.115 138.025 143.406 140.132C142.837 141.82 143.057 143.29 143.825 144.646C144.79 143.215 146.021 141.985 147.292 141.165C147.588 140.974 147.892 141.342 147.748 141.621C146.8 143.464 145.266 144.934 144.432 146.864C143.644 148.685 143.259 150.933 144.333 152.725C145.125 154.047 146.902 154.945 148.413 154.38C150.002 153.785 150.908 151.754 151.762 150.409C151.868 150.241 152.161 150.298 152.152 150.514C152.059 152.755 151.372 155.091 149.11 156.033C149.08 156.045 149.05 156.054 149.019 156.065C149.58 157.311 150.436 158.308 151.773 158.918C153.341 159.633 155.115 159.434 156.603 158.615C160.149 156.663 160.911 152.459 161.076 148.74C161.087 148.491 161.415 148.46 161.496 148.683C162.3 150.882 162.366 152.973 161.653 155.133C162.661 157.022 165.098 158.069 167.172 157.686C169.707 157.217 171.609 155.112 172.462 152.772C174.084 148.323 173.028 142.981 170.585 139.037C168.186 135.162 164.135 132.467 159.664 131.635ZM157.697 139.497C157.245 140.378 155.912 139.463 156.583 138.637C156.99 138.137 157.406 137.645 157.803 137.137C158.163 136.675 158.444 136.128 159.001 135.885C159.134 135.826 159.296 135.892 159.297 136.054C159.301 136.658 158.932 137.128 158.654 137.64C158.322 138.252 158.015 138.878 157.697 139.497ZM160.358 140.972C160.218 141.758 158.939 141.431 159.146 140.639C159.502 139.278 159.763 137.859 160.246 136.538C160.404 136.11 161.136 136.138 161.094 136.653C160.977 138.102 160.613 139.542 160.358 140.972ZM162.494 140.121C162.223 139.128 161.718 137.917 161.869 136.882C161.917 136.556 162.431 136.425 162.634 136.681C163.28 137.494 163.451 138.794 163.714 139.785C163.925 140.573 162.709 140.905 162.494 140.121Z" fill="#E5E3DC"/>
<path d="M161.891 130.111C164.34 130.837 166.552 132.063 168.435 133.67C168.343 129.801 166.012 126.365 161.956 125.613C159.874 125.226 157.767 125.695 156.032 126.9C154.871 127.707 154.104 128.671 153.469 129.776C156.23 129.197 159.13 129.293 161.891 130.111Z" fill="#E5E3DC"/>
<path d="M159.503 90.524C156.346 90.8244 152.858 88.8624 150.666 86.8655C145.479 82.1416 144.544 74.2982 147.54 68.1163C149.02 65.0633 151.456 62.5268 154.362 60.7947C155.784 59.9476 157.328 59.2864 158.92 58.835C160.189 58.475 161.851 58.0197 163.233 58.2504C163.208 58.0475 163.181 57.8439 163.153 57.6418C162.169 50.7894 158.786 42.8345 151.54 40.7888C148.794 40.0137 145.843 39.9564 143.035 40.4148C136.568 41.4694 130.538 44.6153 124.586 47.2061C118.353 49.9199 112.124 52.6454 105.885 55.3476C100.394 57.7262 94.4189 60.1195 88.309 59.3646C85.623 59.0332 82.9587 58.2334 80.6901 56.7204C78.471 55.2392 77.0548 53.1332 75.2515 51.2292C74.4904 50.4255 73.634 49.6737 72.5446 49.3748C71.3429 49.045 70.1111 49.3857 69.0666 50.012C66.8405 51.3477 65.5877 53.8571 65.2137 56.3627C64.4364 61.5759 67.0875 66.728 70.9566 70.0698C74.9496 73.5185 80.1953 75.1925 85.4318 74.5676C88.1247 74.2463 90.6365 73.5254 93.0468 72.268C95.4688 71.0044 97.4479 69.1608 99.1621 67.0486C99.4068 66.7474 99.1311 67.6564 98.9453 67.9723C98.2601 69.1368 97.3929 69.9815 96.4351 70.9378C93.6121 73.7538 90.8463 75.1383 87.0647 76.1371C86.0171 76.4135 86.4716 77.2838 87.3148 77.1228C90.3198 76.549 93.3333 75.2172 96.0379 73.8855C106.349 68.8085 115.413 61.689 125.094 55.566C127.975 53.7441 130.941 52.0592 133.97 50.4944C136.669 49.0999 139.508 47.5762 142.521 46.9854C144.649 46.5688 148.173 46.3574 149.2 48.8088C149.577 49.7085 149.47 50.8165 148.575 51.3508C147.899 51.755 147.058 51.731 146.446 51.2416C146.203 51.048 146.53 50.6299 146.777 50.8119C147.754 51.5304 148.563 50.3024 148.276 49.4004C148.022 48.6021 147.202 48.1708 146.447 47.9726C144.787 47.5359 142.969 47.8479 141.358 48.3334C138.485 49.1991 135.714 50.6617 133.086 52.1181C132.975 52.1793 132.942 52.321 133.01 52.427C134.592 54.9078 135.009 58.0909 134.558 60.9596C133.755 66.0776 129.588 70.2487 124.559 71.3451C119.738 72.3958 114.432 70.316 111.731 66.186C111.664 66.0838 111.528 66.0552 111.428 66.1233C109.256 67.589 107.072 69.0338 104.855 70.426C101.981 72.2308 99.0406 74.1565 95.9636 75.743C95.8575 75.7972 95.8164 75.9242 95.8691 76.031C96.6163 77.5463 97.214 79.386 97.7003 80.8997C98.1292 82.2338 98.3925 83.5934 98.5295 84.9693C98.5473 85.1466 98.7533 85.2287 98.8896 85.1141C99.6902 84.4428 100.737 83.9635 101.904 84.1424C106.665 84.8725 107.873 88.9398 107.815 94.0377C107.803 95.0629 107.526 95.1085 107.199 94.1368C106.707 92.6742 106.291 91.1822 105.579 89.8063C104.753 88.212 103.233 86.329 101.251 86.4242C99.1637 86.5249 98.0425 88.6208 97.348 90.3281C97.2806 90.4938 96.782 92.0734 96.5954 92.6332C96.5598 92.74 96.6109 92.8569 96.7146 92.9003C97.0328 93.0335 97.334 93.2247 97.6097 93.4779C97.6623 93.5259 97.6229 93.6304 97.5493 93.6235C95.5122 93.45 93.17 94.3815 93.0817 96.7129C92.9911 99.1038 95.3821 99.8642 97.3542 100.056C97.4657 100.067 97.5323 100.194 97.4479 100.282C97.0321 100.717 96.7402 101.002 96.2857 101.117C96.3166 101.129 96.3476 101.141 96.3786 101.153C96.0286 102.579 95.6833 103.989 95.3813 105.373C95.3767 105.395 95.372 105.417 95.3674 105.438C95.3201 105.655 95.5904 105.798 95.739 105.634C97.4006 103.799 100.031 102.895 102.471 102.896C103.39 102.897 104.429 103.012 105.428 103.28C105.624 103.332 105.783 103.117 105.67 102.949C104.907 101.812 104.002 100.808 102.753 100.017C100.551 98.6207 97.9287 98.5278 95.4038 98.4542C95.0693 98.4449 94.861 97.9215 95.2172 97.7666C96.5869 97.1712 98.1075 96.9978 99.5841 97.1821C101.587 97.4322 103.5 98.3086 105.06 99.5792C105.079 99.5947 105.099 99.6102 105.117 99.6265C106.058 100.402 106.887 101.329 107.418 102.436C107.702 103.028 107.887 103.679 108.064 104.313C108.205 104.822 108.315 105.342 108.349 105.869C108.361 106.062 108.138 106.176 107.989 106.051C106.23 104.575 104.633 104.312 102.47 104.205C99.6499 104.066 97.4378 105.441 95.1583 106.871C95.118 106.896 95.0755 106.895 95.0383 106.88C94.2555 110.204 93.3086 113.512 92.5064 116.838C94.686 117.615 96.5915 119.021 98.0278 120.845C99.6577 122.915 100.407 125.23 100.66 127.825C101.195 133.309 97.2055 138.359 92.127 140.046C93.0902 144.173 94.5451 148.188 96.4459 151.98C98.1323 155.345 100.149 158.559 102.498 161.502C102.649 161.691 102.804 161.877 102.958 162.064C103.549 160.765 104.195 159.491 104.912 158.257C106.014 156.36 107.287 154.545 108.776 152.929C109.301 152.357 110.507 150.664 111.26 151.873C111.263 151.877 111.264 151.88 111.266 151.883C111.777 152.717 111.127 153.381 110.651 154.02C110.136 154.71 109.64 155.413 109.17 156.136C108.231 157.581 107.401 159.098 106.732 160.688C106.177 162.008 105.706 163.359 105.296 164.729C105.585 165.036 105.877 165.341 106.173 165.641C107.49 166.973 108.896 168.421 110.536 169.35C111.377 169.826 112.459 170.259 113.356 169.671C113.997 169.251 114.339 168.411 114.432 167.674C114.681 165.693 113.592 163.691 113.155 161.801C112.282 158.032 112.313 154.074 113.194 150.31C114.988 142.662 120.342 137.082 126.341 132.376C129.315 130.043 132.426 127.884 135.333 125.466C138.13 123.138 140.755 120.604 143.187 117.898C146.631 114.066 149.762 109.867 152.46 105.435C151.58 105.43 150.399 105.581 149.686 105.707C149.326 105.77 149 105.475 149.032 105.111C149.044 104.968 149.069 104.825 149.104 104.686C149.145 104.522 149.261 104.385 149.415 104.317C150.733 103.737 152.148 103.51 153.559 103.578C154.268 102.342 154.943 101.09 155.579 99.8239C156.453 98.088 157.26 96.3188 157.997 94.5209C158.537 93.2061 159.038 91.872 159.503 90.524ZM87.3079 71.287C84.9897 72.9819 81.8856 73.1228 79.1477 72.6908C76.4145 72.2595 73.7719 70.9262 71.7688 69.0199C69.7952 67.1415 68.4169 64.6591 67.7596 62.0219C67.4228 60.6708 67.3144 59.2477 67.3957 57.8586C67.4808 56.3937 67.8842 55.209 68.4092 53.8633C68.4882 53.662 68.7917 53.7363 68.739 53.9539C68.1552 56.372 68.4007 59.1524 69.0728 61.521C69.7441 63.8879 71.0448 66.0722 72.8683 67.7315C74.7591 69.4512 77.1346 70.4724 79.6262 70.9548C82.1101 71.4357 84.5909 71.0493 87.057 70.6939C87.4256 70.6405 87.6145 71.0632 87.3079 71.287ZM90.4383 70.0172C89.8436 70.0172 89.8444 69.0942 90.4383 69.0942C91.0329 69.095 91.0322 70.0172 90.4383 70.0172ZM129.23 84.5597C131.121 80.4251 134.76 76.4708 139.694 78.5575C144.76 80.6992 146.382 87.3773 145.221 92.3165C145.174 92.5186 144.886 92.5008 144.829 92.3165C143.546 88.1323 143.765 83.348 139.642 80.6566C135.213 77.7654 132.024 81.4564 129.313 84.624C129.271 84.6743 129.207 84.6101 129.23 84.5597ZM112.679 101.342C113.457 99.6822 115.73 99.1898 117.413 99.2099C119.396 99.2331 121.136 100.415 122.387 101.894C122.456 101.977 122.364 102.123 122.264 102.054C120.738 101.009 118.986 100.587 117.127 100.65C115.603 100.702 114.362 101.53 112.896 101.719C112.687 101.746 112.608 101.491 112.679 101.342ZM120.546 104.175C119.577 103.861 118.743 103.281 117.752 103.001C116.633 102.684 115.622 102.723 114.484 102.862C114.369 102.876 114.336 102.704 114.427 102.653C116.286 101.61 119.705 101.664 120.933 103.673C121.084 103.921 120.83 104.268 120.546 104.175ZM124.296 123.556C121.763 126.773 115.655 125.412 112.925 123.241C112.752 123.103 112.939 122.788 113.143 122.866C114.995 123.579 116.88 124.073 118.882 123.971C120.679 123.879 122.3 123.085 124.069 123.007C124.374 122.995 124.454 123.356 124.296 123.556ZM138.285 116.457C138.211 117.397 137.721 118.232 137.049 118.874C136.802 119.109 136.31 118.878 136.441 118.52C136.882 117.314 137.343 116.147 136.883 114.897C132.158 118.925 125.232 121.589 119.086 121.744C113.877 121.875 107.717 120.044 104.443 115.749C104.426 115.776 104.408 115.802 104.392 115.833C104.21 116.178 104.309 116.532 104.184 116.879C104.151 116.97 104.054 117.018 103.964 116.969C103.488 116.705 103.573 115.928 103.722 115.494C103.85 115.12 104.119 114.735 104.469 114.512C104.345 114.244 104.232 113.967 104.14 113.673C103.421 111.393 104.076 108.774 106.34 107.657C107.181 107.242 108.148 107.154 109.037 107.444C109.816 107.699 110.416 108.143 110.957 108.753C111.241 109.074 111.5 109.452 111.698 109.827C112.457 111.263 112.568 112.946 113.065 114.476C113.386 115.465 113.839 116.373 114.395 117.211C114.73 117.685 115.109 118.126 115.555 118.517C116.175 119.059 116.915 119.345 117.594 119.751C118.196 119.762 118.806 119.753 119.43 119.715C125.577 119.341 130.355 116.428 135.544 113.575C134.92 112.908 133.994 112.554 133.063 112.608C132.575 112.647 132.47 111.842 132.948 111.756C132.987 111.749 133.025 111.748 133.063 111.742L133.079 111.74C134.423 111.667 135.879 111.86 136.902 112.818C137.06 112.966 137.206 113.126 137.338 113.297C138.026 114.182 138.372 115.345 138.285 116.457ZM143.558 111.336C141.041 109.391 139.285 107.021 136.03 106.159C132.33 105.179 129.235 106.314 125.977 107.935C125.865 107.991 125.698 107.867 125.787 107.745C126.673 106.527 127.928 105.603 129.341 104.971C128.665 100.166 128.549 95.083 129.9 90.3924C130.857 87.0692 132.888 82.9647 136.905 82.9291C141.388 82.8896 142.38 87.7141 142.381 91.2619C142.382 96.0648 141.155 100.858 139.266 105.263C141.669 106.481 143.817 108.52 144.032 111.14C144.055 111.408 143.726 111.465 143.558 111.336ZM145.631 108.477C145.14 108.902 144.527 107.973 144.29 107.664C143.958 107.233 143.666 106.772 143.326 106.348C142.774 105.661 142.212 104.95 141.459 104.472C141.409 104.44 141.443 104.337 141.511 104.344C142.61 104.453 143.577 105.042 144.358 105.8C144.76 106.189 145.167 106.612 145.447 107.099C145.627 107.41 145.98 108.176 145.631 108.477ZM145.907 105.53C145.238 105.362 144.83 103.437 142.489 103.564C142.377 103.571 142.793 103.309 142.893 103.279C145.305 102.547 146.505 104.192 146.449 105.118C146.432 105.397 146.189 105.602 145.907 105.53Z" fill="#E5E3DC"/>
<path d="M127.749 68.6697C130.308 67.1165 132.163 64.6086 132.897 61.7074C133.668 58.6614 133.073 55.6603 131.707 52.8945C124.935 56.7536 118.576 61.2777 112.125 65.65C115.971 70.2454 122.491 71.8613 127.749 68.6697ZM131.029 57.7562C131.404 57.7562 131.403 58.3377 131.029 58.3377C130.654 58.3377 130.655 57.7562 131.029 57.7562ZM126.829 67.4774C127.396 66.9307 128.087 66.5382 128.642 65.9691C129.207 65.3899 129.703 64.7372 130.102 64.0326C130.523 63.2893 130.832 62.4902 131.019 61.6563C131.165 61.0075 131.134 60.2998 131.514 59.7307C131.561 59.6602 131.659 59.6587 131.706 59.7307C132.523 60.9865 131.394 63.2699 130.73 64.3988C129.948 65.7298 128.567 67.3837 126.995 67.7623C126.833 67.8018 126.702 67.5989 126.829 67.4774Z" fill="#AD4040"/>
<path d="M139.266 105.26C141.155 100.855 142.382 96.0625 142.381 91.2588C142.381 87.7111 141.389 82.8865 136.906 82.926C132.889 82.9609 130.857 87.0661 129.9 90.3893C128.549 95.0799 128.664 100.163 129.342 104.968C127.929 105.6 126.673 106.524 125.787 107.742C125.698 107.864 125.865 107.988 125.977 107.932C129.236 106.311 132.33 105.176 136.03 106.156C139.285 107.019 141.04 109.388 143.558 111.333C143.726 111.463 144.055 111.405 144.033 111.136C143.818 108.518 141.67 106.478 139.266 105.26ZM133.191 97.0172C132.92 99.5467 133.084 102.2 133.184 104.004C132.262 104.076 131.335 104.254 130.446 104.542C130.426 101.324 130.202 98.0988 130.539 94.8879C130.884 91.6096 131.851 86.3902 135.312 85.0011C139.19 83.444 140.094 87.4231 140.237 90.7873C139.658 89.91 138.695 89.5159 137.18 90.0293C135.373 90.641 134.331 92.2135 133.743 94.15L136.961 95.7264L133.191 97.0172ZM138.106 95.0892C137.014 94.819 136.646 93.066 137.18 92.1911C137.726 91.2975 139.14 91.3967 139.581 92.3304C140.075 93.375 139.687 95.4802 138.106 95.0892Z" fill="#064C1A"/>
<path d="M144.361 105.804C143.579 105.045 142.613 104.456 141.514 104.348C141.445 104.341 141.411 104.444 141.462 104.476C142.215 104.953 142.776 105.664 143.328 106.352C143.669 106.776 143.961 107.237 144.292 107.668C144.529 107.977 145.142 108.905 145.634 108.48C145.982 108.179 145.63 107.413 145.451 107.104C145.169 106.616 144.762 106.192 144.361 105.804Z" fill="#064C1A"/>
<path d="M142.891 103.276C142.791 103.306 142.376 103.568 142.488 103.562C144.828 103.434 145.237 105.359 145.906 105.528C146.187 105.599 146.43 105.395 146.447 105.115C146.503 104.19 145.303 102.544 142.891 103.276Z" fill="#064C1A"/>
<path d="M129.315 84.6262C132.026 81.4587 135.215 77.7677 139.644 80.6588C143.766 83.3502 143.548 88.1345 144.831 92.3187C144.887 92.503 145.176 92.5208 145.223 92.3187C146.383 87.3788 144.761 80.7014 139.696 78.5598C134.761 76.4731 131.123 80.4273 129.231 84.562C129.208 84.6123 129.273 84.6766 129.315 84.6262Z" fill="#064C1A"/>
<path d="M136.903 112.817C135.881 111.859 134.424 111.667 133.079 111.739L133.064 111.741C133.025 111.747 132.988 111.748 132.948 111.755C132.471 111.841 132.576 112.646 133.064 112.607C133.995 112.553 134.921 112.907 135.545 113.575C130.355 116.427 125.577 119.341 119.43 119.715C118.807 119.753 118.197 119.761 117.594 119.75C116.915 119.344 116.175 119.059 115.556 118.516C115.11 118.125 114.73 117.684 114.395 117.211C113.84 116.372 113.388 115.465 113.066 114.475C112.569 112.946 112.458 111.263 111.698 109.826C111.5 109.452 111.242 109.074 110.957 108.752C110.417 108.142 109.817 107.698 109.037 107.444C108.149 107.153 107.181 107.241 106.341 107.656C104.077 108.773 103.422 111.393 104.141 113.673C104.233 113.966 104.347 114.243 104.47 114.511C104.12 114.734 103.85 115.12 103.722 115.493C103.574 115.928 103.489 116.705 103.965 116.968C104.055 117.018 104.152 116.971 104.185 116.878C104.309 116.532 104.211 116.177 104.392 115.832C104.408 115.801 104.426 115.776 104.443 115.748C107.719 120.044 113.878 121.874 119.087 121.743C125.234 121.588 132.159 118.926 136.883 114.896C137.343 116.147 136.883 117.314 136.441 118.52C136.31 118.878 136.803 119.108 137.049 118.874C137.721 118.232 138.212 117.396 138.286 116.456C138.372 115.344 138.028 114.182 137.339 113.295C137.205 113.125 137.06 112.965 136.903 112.817ZM111.433 117.286C109.766 115.688 109.074 114.018 108.389 111.873C108.328 111.681 108.072 111.73 108.053 111.918C107.765 114.696 109.044 117.071 111.032 118.608C110.63 118.472 110.23 118.324 109.834 118.164C108.306 116.895 106.616 115.593 105.826 113.81C105.181 112.354 105.132 110.751 106.329 109.585C106.633 109.29 107 109.012 107.412 108.898C107.842 108.779 108.305 108.793 108.73 108.921C109.293 109.09 109.788 109.448 110.17 109.894C110.984 110.846 111.163 112.101 111.52 113.263C111.921 114.564 112.382 115.857 113.053 117.046C113.51 117.857 114.219 118.835 115.07 119.559C113.724 119.046 112.464 118.274 111.433 117.286Z" fill="#064C1A"/>
<path d="M124.072 123.01C122.304 123.087 120.682 123.881 118.885 123.973C116.883 124.075 114.997 123.581 113.146 122.868C112.942 122.789 112.754 123.106 112.928 123.243C115.658 125.415 121.765 126.774 124.299 123.558C124.457 123.357 124.377 122.996 124.072 123.01Z" fill="#064C1A"/>
<path d="M112.894 101.721C114.361 101.531 115.602 100.704 117.126 100.652C118.985 100.588 120.737 101.01 122.262 102.055C122.363 102.124 122.455 101.979 122.385 101.896C121.135 100.417 119.395 99.2347 117.412 99.2115C115.729 99.1921 113.456 99.6838 112.678 101.343C112.607 101.493 112.686 101.748 112.894 101.721Z" fill="#064C1A"/>
<path d="M114.427 102.651C114.336 102.702 114.37 102.874 114.484 102.86C115.621 102.722 116.633 102.683 117.752 102.999C118.743 103.279 119.577 103.858 120.547 104.173C120.831 104.266 121.085 103.919 120.933 103.671C119.705 101.662 116.286 101.608 114.427 102.651Z" fill="#064C1A"/>
<path d="M155.599 64.1563C153.189 64.8455 151.262 67.7126 150.292 69.893C149.701 71.2209 149.381 72.6734 149.278 74.1198C149.182 75.4972 149.17 77.1403 149.854 78.3745C149.93 78.5115 150.136 78.4449 150.14 78.2971C150.178 76.9506 149.865 75.6405 149.963 74.2816C150.07 72.8027 150.453 71.3587 151.048 70.0022C151.54 68.8826 152.197 67.828 153.003 66.9066C153.832 65.9581 154.869 65.2589 155.69 64.3135C155.749 64.2462 155.694 64.1292 155.599 64.1563Z" fill="#064C1A"/>
<path d="M126.999 67.7647C128.57 67.3861 129.952 65.733 130.734 64.4013C131.397 63.2724 132.526 60.989 131.709 59.7331C131.662 59.6611 131.565 59.6627 131.517 59.7331C131.137 60.3022 131.168 61.0091 131.023 61.6588C130.836 62.4927 130.527 63.2917 130.106 64.035C129.706 64.7396 129.211 65.3923 128.645 65.9715C128.09 66.5406 127.4 66.9332 126.832 67.4798C126.705 67.6006 126.837 67.8035 126.999 67.7647Z" fill="#064C1A"/>
<path d="M131.031 58.3393C131.405 58.3393 131.406 57.7578 131.031 57.7578C130.657 57.7578 130.656 58.3393 131.031 58.3393Z" fill="#064C1A"/>
<path d="M151.295 79.7769C151.284 79.749 151.272 79.7211 151.26 79.6933C151.238 79.6522 151.208 79.6197 151.17 79.5949C151.111 79.5493 151.034 79.516 150.958 79.5198C150.896 79.5229 150.836 79.5384 150.781 79.5678C150.699 79.6112 150.65 79.6941 150.62 79.7769C150.61 79.8048 150.6 79.8319 150.59 79.8597C150.55 79.9705 150.56 80.1091 150.629 80.2082C150.663 80.2655 150.708 80.3111 150.766 80.3452C150.825 80.3801 150.889 80.3971 150.958 80.3971C151.027 80.3971 151.092 80.3793 151.15 80.3452C151.208 80.3111 151.253 80.2655 151.287 80.2082C151.356 80.1091 151.366 79.9705 151.326 79.8597C151.315 79.8319 151.305 79.804 151.295 79.7769Z" fill="#064C1A"/>
<path d="M87.0579 70.695C84.5918 71.0504 82.111 71.4367 79.6271 70.9559C77.1355 70.4735 74.7592 69.4522 72.8692 67.7326C71.045 66.0733 69.7449 63.8898 69.0736 61.5221C68.4016 59.1535 68.1561 56.3731 68.7399 53.955C68.7926 53.7366 68.4891 53.6623 68.4101 53.8644C67.8851 55.2109 67.4817 56.3948 67.3966 57.8597C67.316 59.2488 67.4237 60.6719 67.7605 62.023C68.4178 64.6602 69.796 67.1426 71.7697 69.021C73.772 70.9273 76.4146 72.2598 79.1486 72.6918C81.8857 73.1239 84.9906 72.983 87.3088 71.2881C87.6146 71.0651 87.4257 70.6423 87.0579 70.695Z" fill="#064C1A"/>
<path d="M90.4379 69.0977C89.844 69.0977 89.8432 70.0206 90.4379 70.0206C91.0318 70.0198 91.0325 69.0977 90.4379 69.0977Z" fill="#064C1A"/>
<path d="M173.662 140.952C172.789 138.801 171.549 136.851 170.013 135.189C170.052 135.12 170.086 135.045 170.105 134.957C171.006 130.675 168.548 126.442 164.752 124.684C165.781 119.036 165.654 112.81 161.97 108.093C161.961 108.083 161.953 108.073 161.944 108.062C161.833 107.918 161.72 107.776 161.603 107.636C160.068 105.797 157.912 104.464 155.607 103.887C158.749 97.8938 161.288 91.7359 162.913 85.1329C163.67 82.0566 164.287 78.9456 164.721 75.8074C165.312 71.5442 165.515 67.2276 165.379 62.9234C165.311 60.8049 165.162 58.6896 164.936 56.5851C164.704 54.4287 164.278 52.1299 163.599 50.0734C162.968 48.1656 162.275 46.3506 161.047 44.7332C159.536 42.744 157.568 41.108 155.362 39.9427C154.639 39.5602 153.888 39.228 153.119 38.9524C151.616 38.4142 150.043 38.0751 148.453 37.9319C146.763 37.7793 145.095 37.8351 143.449 38.0457C144.096 35.3032 144.424 33.7662 145.224 30.3447C153.394 28.7411 159.839 19.291 156.522 10.3218C154.296 4.30094 148.869 0.757825 142.611 0.0996855C140.627 -0.108596 138.631 0.0392924 136.657 0.270028C134.998 0.463599 133.399 0.689688 131.811 1.21852C128.713 2.24987 125.805 3.8023 122.64 4.64162C121.248 5.01095 119.796 5.23937 118.354 5.11006C116.774 4.37682 115.169 3.70474 113.517 3.1581C106.351 0.788019 98.3717 1.37957 93.1236 7.30902C91.0052 9.7031 89.675 12.6074 89.1492 15.648C89.0122 15.775 88.9866 15.991 89.0703 16.156C88.5701 19.6619 89.1307 23.3212 90.8217 26.5763C92.9812 30.7341 97.5587 34.5397 102.45 35.5897C103.525 35.8204 104.154 36.9346 103.791 37.9714C102.046 42.9585 98.7945 52.9986 98.1084 55.635C95.3776 56.3923 92.5832 56.8236 89.716 56.6254C86.9363 56.4333 84.2155 55.7009 81.9051 54.0981C79.6743 52.5503 78.3883 50.0625 76.3349 48.3289C74.0244 46.3777 71.1456 45.8714 68.3729 47.1768C65.7017 48.4342 63.8573 50.9963 62.9661 53.7535C61.138 59.4105 63.2619 65.7286 67.0768 70.0491C70.0562 73.4234 74.1127 75.7067 78.482 76.6552C81.5713 79.3606 86.4965 79.2955 90.2448 78.1403C90.9146 77.9336 91.5758 77.7013 92.2301 77.4466C94.402 81.8507 95.1151 86.748 95.0214 91.657C94.9563 92.0209 94.9052 92.3817 94.8673 92.7348C94.5429 92.7975 94.2177 92.9051 93.9002 93.0553C92.4616 93.7351 91.6331 95.142 91.5882 96.7177C91.5704 97.334 91.685 97.9379 91.9103 98.4939C91.9754 98.6913 92.0559 98.888 92.1581 99.0823C92.4957 99.7227 93.2158 100.45 94.0311 100.892C94.0078 101.019 93.9862 101.147 93.9629 101.274C93.4852 103.826 92.9068 106.361 92.3238 108.896C91.4086 109.843 90.9641 111.286 90.3501 112.412C89.5937 113.798 88.6459 115.075 87.8244 116.425C86.1528 119.173 84.1303 121.653 82.0708 124.119C80.3565 126.171 78.1684 129.135 75.2935 129.497C72.904 129.798 70.6904 128.14 69.961 125.963C71.5227 124.296 72.976 121.894 72.6934 119.668C72.5657 118.662 72.0198 117.702 71.2192 117.068C70.7779 116.719 70.1917 116.35 69.5901 116.191C70.9908 115.176 71.9455 113.667 72.5331 112.023C73.3895 109.627 72.7507 107.414 72.0515 105.068C71.6505 103.723 71.1356 102.172 71.8092 100.835C72.3102 99.8388 73.1286 99.0506 73.724 98.116C74.8258 96.3847 74.9597 94.2392 73.5266 92.6209C72.0399 90.9423 69.6412 90.5977 67.6141 91.41C65.4849 92.2624 64.1229 94.2276 63.5205 96.3847C63.2 97.5322 63.1883 98.7571 62.8268 99.8868C62.236 101.734 60.5148 101.394 59.1032 100.705C56.6124 99.4904 54.1889 98.2624 51.4998 97.5283C48.6442 96.7486 45.5936 96.4691 42.6915 97.1706C40.5003 97.7002 38.1868 99.1543 37.8879 101.499C37.7973 101.534 37.706 101.567 37.6161 101.605C35.7509 102.402 34.0792 103.965 33.6193 105.999C33.2662 107.558 33.5752 109.661 34.9147 110.696C34.2341 111.646 33.8462 112.771 34.0784 113.956C34.5779 116.499 37.0269 116.399 39.0733 116.439C41.6618 116.489 44.4283 116.956 46.803 118.02C47.9993 118.556 49.1553 119.178 50.1943 119.983C51.1932 120.758 52.0642 121.681 53.0034 122.524C54.4963 123.863 56.1493 124.829 58.0587 125.202C58.1617 127.222 59.8752 128.839 61.8775 129.245C63.2131 129.517 64.5619 129.32 65.8186 128.835C66.4999 131.411 69.34 133.313 71.755 134.002C74.8498 134.884 77.8927 134.157 80.3906 132.188C82.7823 130.304 84.6607 127.72 86.4648 125.294C87.5449 123.841 88.5739 122.349 89.5472 120.823C89.716 120.559 89.8802 120.291 90.0459 120.026C89.6757 122.458 89.4288 124.908 89.3869 127.39C89.1663 140.548 93.8507 153.641 102.229 163.744C100.983 166.738 99.9652 169.82 98.7952 172.843C98.1588 174.487 97.4635 176.101 96.7085 177.694C96.0938 178.991 95.6106 180.698 94.2185 181.384C92.4608 182.25 91.6393 180.481 91.2777 179.083C90.8581 177.462 90.5197 175.815 90.1937 174.173C89.5077 170.72 89.0013 167.247 88.6127 163.75C88.3285 161.196 87.9847 158.464 86.5399 156.268C85.0742 154.04 82.7668 152.735 80.0886 152.742C74.2157 152.754 70.6385 158.375 70.1987 163.699C69.9192 167.075 70.7066 170.461 71.7504 173.649C72.688 176.512 73.8641 179.298 75.295 181.951C76.7267 184.605 78.4099 187.116 80.3046 189.462C82.1544 191.753 84.2202 194.158 86.7668 195.695C89.2003 197.164 92.1767 197.583 94.6629 195.983C97.0237 194.465 98.3407 191.879 99.3651 189.358C100.597 186.326 101.398 183.139 102.06 179.941C102.734 176.679 103.266 173.39 103.952 170.132C104.201 168.949 104.471 167.768 104.777 166.597C105.242 167.083 105.713 167.564 106.197 168.033C107.548 169.341 108.963 170.854 110.772 171.509C112.462 172.122 114.323 171.713 115.366 170.189C116.397 168.685 116.272 166.779 115.794 165.107C115.218 163.094 113.219 157.685 114.069 155.116C117.582 161.728 126.387 162.943 133.245 162.114C133.324 163.671 132.765 167.335 131.732 168.56C130.434 170.097 128.642 170.694 126.698 170.888C124.871 171.07 122.933 171.057 121.283 171.972C119.884 172.748 118.968 174.086 118.441 175.567C117.894 177.103 117.774 178.799 117.776 180.418C117.778 182.078 117.885 183.816 118.582 185.348C120.339 189.207 125.366 188.825 128.885 188.516C132.758 188.176 137.285 187.53 140.524 185.193C143.646 182.942 144.465 179.246 144.605 175.598C144.776 171.094 144.524 166.525 143.71 162.088C143.173 159.161 142.275 154.488 138.548 154.174C136.367 153.99 134.584 155.559 132.726 156.431C130.702 157.381 128.307 157.719 126.087 157.659C121.688 157.541 117.853 155.324 114.799 152.266C114.713 152.18 114.62 152.118 114.524 152.076C114.824 150.396 115.303 148.748 115.96 147.174C117.49 143.511 120.055 140.455 122.974 137.812C125.871 135.188 129.092 132.974 132.226 130.651C135.276 128.39 138.233 126.029 140.976 123.4C146.332 118.267 150.963 112.377 154.541 105.875C156.42 106.571 158.086 107.917 159.233 109.742C161.915 114.013 161.325 119.286 159.391 123.725C159.361 123.793 159.338 123.866 159.322 123.941C157.874 124.169 156.489 124.729 155.286 125.622C153.885 126.664 152.565 128.356 152.056 130.142C150.116 130.724 148.273 131.65 146.63 132.905C144.301 134.683 142.184 137.168 141.427 140.053C140.894 142.086 141.179 144.94 142.846 146.368C141.594 149.04 141.384 152.069 143.365 154.396C144.448 155.668 146.2 156.481 147.879 156.332C148.061 157.894 149.16 159.332 150.435 160.185C152.3 161.433 154.684 161.515 156.724 160.659C158.727 159.818 160.293 158.239 161.203 156.287C161.944 157.867 163.436 159.019 165.214 159.356C167.721 159.831 170.293 158.723 172.02 156.916C175.95 152.8 175.667 145.896 173.662 140.952ZM34.8303 105.812C35.5008 103.984 37.277 102.833 39.1167 102.437C41.2684 101.973 43.5131 102.475 45.4828 103.378C46.4259 103.81 47.3249 104.333 48.1982 104.889C48.8935 105.332 49.6818 106.099 50.501 106.368C49.8606 107.583 49.4224 108.897 49.2714 110.23C45.9536 107.451 40.6908 106.428 36.9441 108.808C36.3726 109.17 35.8144 109.632 35.3397 110.165C34.6057 108.786 34.2519 107.39 34.8303 105.812ZM54.3151 121.633C52.7425 120.292 51.3403 118.807 49.537 117.759C47.7646 116.729 45.7647 116.063 43.7508 115.706C41.702 115.342 39.6982 115.431 37.6324 115.385C36.4981 115.36 35.411 115.021 35.1392 113.792C34.8806 112.624 35.5496 111.487 36.3378 110.68C37.9251 109.056 40.2355 108.426 42.4562 108.488C45.0059 108.558 47.0484 109.698 49.2226 110.832C49.1599 112.189 49.4069 113.554 50.0557 114.837C50.1339 114.992 50.405 114.923 50.3902 114.747C50.0496 110.673 50.4893 106.353 53.4541 103.274C53.6685 103.052 53.3403 102.725 53.1157 102.936C52.3716 103.634 51.6941 104.442 51.1181 105.322C50.8324 105.017 50.4646 104.803 50.1007 104.556C49.513 104.157 48.9199 103.765 48.3121 103.397C47.235 102.745 46.1123 102.167 44.9308 101.729C42.9146 100.981 40.6722 100.689 38.5948 101.263C39.5534 99.2906 41.7942 98.4087 43.9428 98.1013C46.419 97.7459 48.9338 98.1152 51.3132 98.8284C53.804 99.5748 56.0975 100.732 58.4281 101.861C60.0432 102.643 62.1903 102.98 63.2828 101.174C63.7613 100.384 63.8078 99.4354 63.9394 98.545C64.1182 97.3433 64.4597 96.2438 65.1264 95.2148C66.2839 93.4293 68.4798 92.1184 70.6555 92.6147C72.7755 93.0987 74.1282 95.5833 72.9768 97.5237C72.4999 98.3274 71.8301 98.9995 71.3167 99.7784C70.7608 100.622 70.4581 101.545 70.3419 102.543C70.0462 105.072 71.6017 107.402 71.525 109.934C71.453 112.322 70.287 114.299 68.4411 115.743C67.7326 113.153 66.0253 111.112 64.1337 109.22C63.8635 108.95 63.4632 109.357 63.7164 109.637C65.2743 111.356 66.9544 113.188 67.5994 115.475C68.2467 117.771 67.2928 119.977 65.5406 121.506C64.0006 122.85 62.0037 123.622 59.9658 123.712C57.804 123.809 55.9442 123.022 54.3151 121.633ZM67.9672 125.555C66.5387 126.86 64.6556 127.852 62.6796 127.778C61.0591 127.718 59.5345 126.755 58.8307 125.314C59.0219 125.335 59.2147 125.351 59.4114 125.361C61.7404 125.464 64.1368 124.682 65.9897 123.277C67.0102 122.504 67.8867 121.522 68.4101 120.343C68.8894 119.263 68.8615 117.947 68.6695 116.779C68.6857 116.78 68.7028 116.781 68.7206 116.779C69.6722 116.69 70.2885 117.454 70.774 118.168C71.3098 118.957 71.1658 119.914 70.9343 120.789C70.448 122.624 69.3625 124.281 67.9672 125.555ZM91.3304 195.205C90.9564 194.964 88.9441 193.163 88.3153 192.389C85.4784 188.9 83.8439 184.542 82.7459 180.228C81.5288 175.441 80.8149 170.529 80.2419 165.63C80.1165 164.558 79.9988 163.485 79.8834 162.412C79.6612 160.34 79.2059 157.86 77.4421 156.508C77.0116 156.178 76.5068 155.928 75.9787 155.79C76.4123 155.542 77.48 154.99 77.9547 154.829C78.0538 154.845 78.1529 154.865 78.2504 154.893C81.7332 155.904 81.9794 160.435 81.9507 163.424C81.9113 167.481 82.3077 171.541 83.1013 175.52C83.9143 179.596 85.1896 183.72 86.8248 187.536C88.0528 190.402 89.7547 193.083 92.3672 194.86C92.1271 194.931 91.5898 195.174 91.3304 195.205ZM138.508 182.227C141.629 179.976 142.449 176.281 142.589 172.632C142.733 168.83 142.575 164.985 142.033 161.209C142.194 162.005 142.318 162.809 142.442 163.589C142.759 165.591 142.963 167.609 143.058 169.633C143.162 171.857 143.21 174.106 143.076 176.333C142.966 178.175 142.677 180.057 141.667 181.641C139.69 184.74 135.449 185.626 132.083 186.227C130.044 186.591 127.979 186.786 125.908 186.796C124.519 186.803 122.821 186.872 121.52 186.205C120.721 185.794 120.815 185.512 121.707 185.621C123.446 185.835 125.306 185.687 126.868 185.549C130.742 185.21 135.269 184.564 138.508 182.227ZM163.397 70.8892C163.242 73.6743 162.917 76.4609 162.43 79.2251C161.867 82.4267 161.086 85.5974 160.107 88.7C158.951 88.3655 157.764 88.1417 156.631 87.7174C155.312 87.2242 154.083 86.4902 152.968 85.633C150.74 83.9203 149.021 81.462 148.266 78.7536C146.589 72.7273 149.188 66.1219 154.273 62.5881C155.689 61.604 157.244 60.8266 158.885 60.2947C159.646 60.0477 160.422 59.8572 161.208 59.7047C161.909 59.5684 162.664 59.515 163.357 59.3152C163.74 63.1417 163.61 67.0712 163.397 70.8892ZM103.689 45.2821C103.954 45.1923 104.222 45.1079 104.487 45.0142C108.32 43.6569 112.407 42.7944 116.456 42.4397C118.131 42.2926 119.813 42.2725 121.493 42.2849C122.324 42.2911 123.156 42.3058 123.988 42.3182C124.413 42.3244 124.841 42.3174 125.266 42.3337C125.563 42.3453 125.831 42.4614 126.129 42.3608C126.395 42.2709 126.717 41.8606 126.462 41.6128C126.336 41.4905 126.151 41.4564 125.978 41.4278C123.897 41.084 121.829 40.7712 119.712 40.8161C117.757 40.8478 115.809 41.0414 113.866 41.2458C110.638 41.5857 107.408 42.1687 104.325 43.1451C105.294 39.8807 106.072 37.2389 106.136 37.0252C106.29 36.6202 106.438 36.2137 106.595 35.8103C106.602 35.7956 106.602 35.7825 106.607 35.7678C107.274 35.6733 107.937 35.5169 108.589 35.2892C109.107 35.1081 109.219 34.2502 108.589 34.124C104.783 33.359 101.107 32.9076 97.8065 30.6513C94.3462 28.2859 92.0737 24.4694 91.414 20.3464C90.1124 12.2187 96.3818 4.57503 104.536 4.04543C113.16 3.48485 120.38 9.10458 127.807 12.5501C130.744 13.9121 134.734 15.9469 137.981 14.4107C139.872 13.5157 141.029 11.2819 140.383 9.28422C140.236 8.82894 139.544 9.01399 139.663 9.48243C141.009 14.7909 133.345 12.2667 131.161 11.4065C128.909 10.5192 126.759 9.39726 124.619 8.27687C124.04 7.97413 124.069 7.14255 124.662 6.87C126.713 5.92693 128.706 4.81893 130.842 4.06091C134.082 2.91033 137.465 2.2189 140.917 2.45428C146.681 2.84761 152.203 6.26839 154.321 11.5722C155.759 16.0754 154.63 21.1052 151.268 24.598C147.045 28.9835 140.466 29.5665 135.016 27.5162C134.832 27.4473 134.761 27.709 134.893 27.8089C137.08 29.4566 139.377 30.3106 141.634 30.5367C139.83 31.0803 138.161 31.0322 136.338 30.9417C136.099 30.93 136 31.2529 136.211 31.3667C137.775 32.2138 140.527 32.546 142.692 31.9188C142.539 32.8828 141.919 36.0922 141.414 38.3887C137.213 39.2396 133.156 40.9678 129.243 42.6612C122.452 45.5996 115.661 48.5411 108.869 51.4772C106.245 52.6115 103.562 53.8178 100.814 54.7833C101.466 52.7145 102.62 48.8717 103.689 45.2821ZM90.8077 130.513C90.6173 126.205 91.3072 122.001 92.2727 117.832C96.1511 119.397 99.458 123.529 99.2265 127.827C98.988 132.258 95.9234 136.534 91.6726 137.88C91.2111 135.45 90.9169 132.987 90.8077 130.513ZM153.561 103.579C152.15 103.51 150.735 103.737 149.417 104.318C149.263 104.386 149.147 104.523 149.106 104.687C149.071 104.826 149.046 104.969 149.034 105.112C149.002 105.476 149.328 105.772 149.687 105.708C150.401 105.582 151.582 105.431 152.461 105.436C149.764 109.868 146.633 114.067 143.189 117.899C140.756 120.605 138.132 123.139 135.334 125.467C132.428 127.885 129.317 130.044 126.343 132.377C120.344 137.083 114.989 142.663 113.196 150.311C112.313 154.075 112.283 158.033 113.157 161.801C113.594 163.692 114.683 165.694 114.433 167.675C114.34 168.412 113.998 169.252 113.358 169.672C112.461 170.26 111.379 169.827 110.538 169.351C108.897 168.422 107.491 166.974 106.175 165.642C105.878 165.342 105.586 165.037 105.298 164.73C105.708 163.359 106.178 162.008 106.734 160.689C107.403 159.099 108.232 157.582 109.172 156.137C109.641 155.415 110.138 154.711 110.653 154.021C111.129 153.383 111.778 152.718 111.268 151.884C111.266 151.881 111.264 151.877 111.262 151.874C110.509 150.664 109.303 152.358 108.777 152.93C107.289 154.546 106.015 156.361 104.914 158.258C104.197 159.492 103.552 160.766 102.96 162.065C102.807 161.877 102.65 161.692 102.499 161.503C100.15 158.56 98.134 155.346 96.4476 151.981C94.5467 148.189 93.0919 144.175 92.1287 140.046C97.2072 138.36 101.196 133.31 100.662 127.826C100.409 125.231 99.6601 122.915 98.0295 120.846C96.5924 119.022 94.6869 117.616 92.5081 116.839C93.311 113.513 94.2572 110.205 95.04 106.881C95.0771 106.896 95.1197 106.897 95.16 106.872C97.4395 105.442 99.6524 104.067 102.472 104.206C104.635 104.312 106.231 104.576 107.991 106.052C108.139 106.176 108.363 106.063 108.351 105.87C108.317 105.343 108.207 104.823 108.066 104.314C107.89 103.68 107.704 103.029 107.419 102.437C106.889 101.331 106.06 100.403 105.119 99.6274C105.099 99.6119 105.081 99.5957 105.061 99.5802C103.501 98.3104 101.589 97.4339 99.5858 97.183C98.1084 96.9987 96.5885 97.1722 95.2188 97.7676C94.8627 97.9224 95.0709 98.4451 95.4054 98.4551C97.9311 98.5287 100.553 98.6216 102.755 100.018C104.004 100.81 104.909 101.814 105.672 102.95C105.785 103.118 105.626 103.333 105.43 103.28C104.43 103.013 103.391 102.897 102.472 102.897C100.032 102.896 97.4023 103.801 95.7407 105.635C95.5913 105.8 95.321 105.657 95.369 105.439C95.3737 105.417 95.3783 105.396 95.383 105.374C95.6849 103.99 96.0303 102.58 96.3803 101.154C96.3493 101.142 96.3183 101.13 96.2873 101.118C96.7418 101.003 97.033 100.718 97.4495 100.283C97.5339 100.195 97.4673 100.068 97.3558 100.057C95.3837 99.8643 92.9928 99.1048 93.0834 96.7138C93.1716 94.3817 95.5138 93.4502 97.551 93.6244C97.6245 93.6306 97.664 93.5269 97.6114 93.4788C97.3357 93.2257 97.0345 93.0344 96.7163 92.9012C96.6125 92.8579 96.5614 92.741 96.5971 92.6341C96.7837 92.0743 97.2823 90.4948 97.3497 90.3291C98.0442 88.621 99.1661 86.5258 101.253 86.4251C103.235 86.3299 104.755 88.213 105.58 89.8072C106.293 91.1831 106.709 92.6744 107.201 94.1378C107.528 95.1095 107.805 95.0646 107.816 94.0386C107.874 88.9408 106.667 84.8735 101.906 84.1433C100.739 83.9645 99.6919 84.4445 98.8912 85.1151C98.755 85.2296 98.5482 85.1476 98.5312 84.9703C98.3942 83.5944 98.1309 82.2355 97.702 80.9006C97.2157 79.3869 96.618 77.5472 95.8708 76.032C95.8181 75.9251 95.8599 75.7981 95.9652 75.7439C99.043 74.1574 101.983 72.231 104.856 70.4269C107.073 69.0348 109.257 67.59 111.429 66.1242C111.531 66.0561 111.666 66.0848 111.733 66.187C114.433 70.3162 119.74 72.3967 124.56 71.346C129.59 70.2496 133.756 66.0786 134.56 60.9606C135.011 58.0911 134.594 54.9088 133.012 52.428C132.943 52.3211 132.977 52.1802 133.087 52.119C135.716 50.6618 138.486 49.2 141.36 48.3343C142.971 47.8489 144.788 47.5368 146.448 47.9735C147.203 48.1725 148.024 48.603 148.278 49.4013C148.565 50.3033 147.757 51.5314 146.779 50.8128C146.531 50.6309 146.205 51.0482 146.448 51.2425C147.06 51.7319 147.9 51.7559 148.577 51.3517C149.471 50.8175 149.578 49.7087 149.202 48.8098C148.174 46.3584 144.651 46.569 142.523 46.9863C139.509 47.5771 136.671 49.1009 133.972 50.4954C130.943 52.0602 127.977 53.7443 125.096 55.5669C115.414 61.6899 106.351 68.8095 96.0396 73.8864C93.335 75.2182 90.3207 76.55 87.3165 77.1237C86.4733 77.2847 86.0188 76.4152 87.0664 76.138C90.8488 75.1392 93.6137 73.7548 96.4368 70.9387C97.3953 69.9825 98.2618 69.1377 98.947 67.9732C99.1328 67.6573 99.4085 66.7483 99.1638 67.0495C97.4495 69.1618 95.4705 71.0053 93.0485 72.2689C90.6382 73.5264 88.1264 74.2472 85.4335 74.5686C80.1962 75.1934 74.9512 73.5194 70.9583 70.0708C67.0892 66.729 64.438 61.5769 65.2154 56.3636C65.5886 53.8581 66.8422 51.3494 69.0682 50.013C70.1127 49.3858 71.3446 49.0459 72.5463 49.3758C73.6357 49.6754 74.4921 50.4272 75.2532 51.2302C77.0565 53.1341 78.4727 55.2402 80.6918 56.7214C82.9604 58.2351 85.6247 59.0341 88.3107 59.3655C94.4205 60.1205 100.396 57.7272 105.887 55.3486C112.125 52.6463 118.354 49.9209 124.588 47.207C130.541 44.6162 136.57 41.4703 143.037 40.4158C145.844 39.9582 148.795 40.0147 151.542 40.7897C158.788 42.8354 162.17 50.7904 163.154 57.6428C163.184 57.8448 163.209 58.0485 163.235 58.2513C161.852 58.0206 160.19 58.4759 158.922 58.8359C157.33 59.2873 155.785 59.9486 154.364 60.7956C151.458 62.5277 149.021 65.0643 147.542 68.1172C144.546 74.2991 145.481 82.1418 150.667 86.8665C152.859 88.8633 156.348 90.8262 159.504 90.525C159.04 91.873 158.539 93.2063 158 94.5218C157.263 96.3197 156.455 98.0889 155.582 99.8249C154.944 101.091 154.269 102.343 153.561 103.579ZM112.128 65.6512C118.579 61.2788 124.937 56.7547 131.71 52.8956C133.076 55.6614 133.67 58.6625 132.9 61.7085C132.166 64.609 130.311 67.1176 127.752 68.6709C122.494 71.8624 115.974 70.2465 112.128 65.6512ZM156.036 126.904C157.77 125.699 159.877 125.231 161.96 125.617C166.015 126.37 168.346 129.805 168.438 133.674C166.554 132.068 164.343 130.841 161.894 130.115C159.133 129.296 156.233 129.2 153.473 129.78C154.107 128.675 154.874 127.711 156.036 126.904ZM172.463 152.772C171.61 155.112 169.709 157.217 167.174 157.686C165.1 158.069 162.663 157.022 161.655 155.133C162.368 152.974 162.302 150.882 161.498 148.684C161.417 148.461 161.089 148.492 161.078 148.74C160.913 152.459 160.151 156.663 156.605 158.615C155.117 159.434 153.343 159.633 151.775 158.918C150.437 158.309 149.582 157.311 149.021 156.066C149.052 156.054 149.082 156.045 149.112 156.033C151.374 155.091 152.06 152.756 152.154 150.514C152.163 150.298 151.87 150.241 151.764 150.409C150.909 151.755 150.004 153.785 148.415 154.38C146.904 154.946 145.127 154.047 144.335 152.725C143.261 150.933 143.646 148.685 144.434 146.864C145.268 144.935 146.802 143.464 147.75 141.621C147.894 141.342 147.59 140.974 147.294 141.165C146.023 141.985 144.792 143.216 143.827 144.646C143.059 143.29 142.839 141.82 143.408 140.132C144.116 138.025 145.686 136.186 147.387 134.796C150.771 132.031 155.369 130.835 159.666 131.635C164.136 132.467 168.188 135.162 170.587 139.037C173.029 142.981 174.085 148.323 172.463 152.772Z" fill="#064C1A"/>
<path d="M160.248 136.541C159.764 137.862 159.503 139.281 159.148 140.641C158.94 141.434 160.219 141.761 160.359 140.975C160.614 139.545 160.98 138.104 161.097 136.655C161.138 136.14 160.405 136.112 160.248 136.541Z" fill="#064C1A"/>
<path d="M159.002 135.884C158.445 136.126 158.163 136.675 157.803 137.136C157.407 137.644 156.99 138.136 156.584 138.637C155.913 139.463 157.245 140.377 157.698 139.496C158.016 138.877 158.323 138.251 158.654 137.639C158.932 137.127 159.302 136.658 159.298 136.054C159.297 135.892 159.134 135.826 159.002 135.884Z" fill="#064C1A"/>
<path d="M162.636 136.681C162.433 136.426 161.919 136.557 161.871 136.882C161.72 137.918 162.225 139.128 162.496 140.121C162.71 140.906 163.926 140.574 163.716 139.784C163.452 138.795 163.282 137.496 162.636 136.681Z" fill="#064C1A"/>
<path d="M111.27 147.509C113.821 143.171 116.118 139.227 119.688 135.581C123.204 131.988 127.605 129.636 131.249 126.277C131.48 126.064 131.187 125.753 130.935 125.869C126.253 128.028 121.019 132.055 117.422 135.754C114.399 138.862 111.429 143.002 111.051 147.45C111.041 147.569 111.214 147.603 111.27 147.509Z" fill="#064C1A"/>
<path d="M133.259 124.927C133.754 124.927 133.755 124.156 133.259 124.156C132.763 124.156 132.762 124.927 133.259 124.927Z" fill="#064C1A"/>
<path d="M135.945 122.932C136.527 122.932 136.528 122.027 135.945 122.027C135.363 122.027 135.362 122.932 135.945 122.932Z" fill="#064C1A"/>
<path d="M147.385 42.5988C149.233 43.514 151.258 43.7192 153.003 44.9588C155.011 46.3858 156.149 48.2696 157.362 50.3377C157.551 50.6598 158.122 50.5398 158.095 50.1387C157.932 47.6912 156.287 45.3885 154.366 43.9592C152.596 42.6406 149.671 41.1927 147.447 42.1241C147.263 42.2008 147.162 42.488 147.385 42.5988Z" fill="#064C1A"/>
<path d="M158.26 53.065C158.81 53.065 158.811 52.2109 158.26 52.2109C157.711 52.2109 157.71 53.065 158.26 53.065Z" fill="#064C1A"/>
<path d="M104.503 6.57032C99.9595 8.32407 96.4629 11.5033 95.4509 16.3805C95.1141 17.9027 94.8942 19.4861 95.0134 21.1338C92.1184 14.4231 97.1202 6.56103 104.503 6.57032Z" fill="#E5E3DC"/>
</svg>
