<svg width="253" height="256" viewBox="0 0 253 256" fill="none" xmlns="http://www.w3.org/2000/svg">
<path d="M118.878 40.1852C117.39 40.2222 115.92 40.3329 114.437 40.1036C113.816 40.0073 111.888 39.8015 111.906 38.7889C111.922 37.9341 114.065 37.8111 114.618 37.7148C115.423 37.575 116.227 37.3344 117.017 37.1275C118.543 36.728 120.088 36.2413 121.512 35.5891C126.131 33.4744 130.218 30.0407 133.14 25.6974C133.795 24.7217 134.403 23.6946 135.226 22.8745C136.05 22.0544 137.146 21.4502 138.274 21.5498C139.986 21.7009 141.264 23.472 141.48 25.2744C141.826 28.1644 140.412 30.966 138.418 32.8356C137.641 33.565 136.823 34.2442 135.97 34.8707C132.35 37.5336 128.106 39.2566 123.739 39.8406C122.127 40.0577 120.501 40.1438 118.878 40.1852Z" fill="#E5E3DC"/>
<path d="M121.343 56.4693C121.787 57.2391 121.48 58.7808 120.573 59.018C119.259 59.3615 118.936 57.511 119.347 56.5924C119.714 55.7712 120.89 55.6839 121.343 56.4693Z" fill="#E5E3DC"/>
<path d="M98.5218 70.0668C98.6057 68.4803 98.7422 66.1475 98.5162 63.9232L95.3834 62.7876L98.0575 61.4014C97.5696 59.6985 96.7025 58.3156 95.201 57.7774C93.9423 57.3254 93.1413 57.6722 92.6602 58.4442C92.7788 55.486 93.5295 51.9874 96.7529 53.3569C99.6294 54.5786 100.433 59.1681 100.719 62.0503C101 64.8731 100.814 67.7094 100.797 70.5389C100.059 70.2861 99.2882 70.1306 98.5218 70.0668Z" fill="#E5E3DC"/>
<path d="M95.2012 59.6763C95.6454 60.4461 95.3388 61.9868 94.4326 62.2251C93.1179 62.5686 92.7957 60.718 93.2063 59.7994C93.5733 58.9782 94.7481 58.8909 95.2012 59.6763Z" fill="#E5E3DC"/>
<path d="M85.8111 18.4427C83.3955 17.9515 80.962 17.5521 78.5185 17.2634C73.4848 16.6682 68.412 16.5619 63.3693 17.1068C58.4543 17.6382 53.5895 18.7403 48.9598 20.5797C47.8219 21.0317 46.5744 21.5833 45.375 22.2658C46.6091 20.6692 47.9349 19.1509 49.3346 17.7166C53.6667 13.2759 58.6523 9.63404 64.1458 6.99022C69.7065 4.31394 75.7706 2.6905 81.8716 2.32128C82.8987 2.25862 83.9818 2.0673 84.6408 3.0944C85.0816 3.78025 85.3792 4.60037 85.7193 5.3444C86.4969 7.04392 87.251 8.75575 87.9805 10.4776C89.3444 13.6932 90.5673 16.949 92.1337 20.0449C92.0956 20.0471 92.0565 20.0482 92.0184 20.0505C90.0739 19.2069 87.8373 18.8544 85.8111 18.4427Z" fill="#AD4040"/>
<path d="M106.569 124.529C106.127 123.433 105.976 122.166 105.895 121.033C105.835 120.212 105.783 118.59 106.181 117.455C104.997 116.682 103.776 115.985 102.533 115.32C101.253 114.637 99.844 113.836 98.442 113.488C96.4785 113.001 95.7848 114.33 95.8217 116.213C95.8541 117.886 96.0813 119.571 96.3901 121.209C96.9025 123.928 97.5861 127.925 100.137 129.365C103.275 131.138 104.769 126.509 106.569 124.529ZM104.742 120.318C104.061 120.374 103.346 120.267 102.657 120.271C102.087 120.275 101.504 120.294 101.025 119.923C100.877 119.808 100.845 119.62 100.969 119.468C101.768 118.489 103.875 118.779 104.882 119.22C105.427 119.457 105.367 120.267 104.742 120.318ZM103.769 122.886C103.639 122.867 103.55 122.79 103.444 122.757C103.301 122.714 103.25 122.518 103.357 122.406C103.434 122.326 103.448 122.261 103.538 122.164C103.654 122.044 103.838 122.02 103.988 121.981C104.3 121.902 104.589 121.852 104.91 121.841C105.212 121.831 105.345 122.308 105.068 122.456C104.783 122.61 104.512 122.715 104.203 122.803C104.063 122.845 103.912 122.907 103.769 122.886Z" fill="#064C1A"/>
<path d="M65.0128 18.9342C69.6627 18.556 74.354 18.6668 78.9927 19.1423C81.2953 19.3784 83.5867 19.7062 85.8658 20.1235C86.4118 20.2231 86.9622 20.3439 87.5161 20.4681C81.1264 21.3419 74.834 23.4219 69.3662 27.0424C63.5124 30.9192 58.5504 36.5257 55.5798 43.1471C54.4822 45.5928 53.6084 48.1695 53.1206 50.8279C50.1714 48.485 47.0397 46.3827 44.0244 44.1417C43.1596 43.4984 42.2936 42.855 41.4287 42.2106C40.5885 41.5851 39.3286 40.9508 38.7144 40.0579C37.6795 38.5542 38.4537 35.709 38.8777 34.0945C39.6207 31.2605 41.0528 28.6413 42.618 26.2011C44.9766 23.8784 48.4483 22.7953 51.4547 21.7481C55.8439 20.2175 60.4099 19.3079 65.0128 18.9342Z" fill="#AD4040"/>
<path d="M107.371 115.205C106.634 113.753 105.907 112.258 105.059 110.868C105.391 110.833 105.723 110.797 106.053 110.755C108.545 110.442 111.013 109.904 113.407 109.133C113.055 110.374 112.859 111.665 112.63 112.938C110.674 112.558 108.597 113.549 107.371 115.205Z" fill="#E5E3DC"/>
<path d="M166.604 70.0822C164.489 71.4438 161.143 71.455 158.814 70.8956C157.369 70.5488 156.259 69.3147 157.876 68.141C158.766 67.4954 159.963 67.1978 160.998 66.9561C162.302 66.6507 163.598 66.5836 164.928 66.5903C165.671 66.5936 166.489 66.7223 167.269 66.7044C168.322 67.6219 167.923 69.2341 166.604 70.0822Z" fill="#AD4040"/>
<path d="M178.203 64.4257C177.407 63.1312 176.697 61.7785 175.895 60.4851C175.615 60.0353 174.933 60.4504 175.209 60.9092C175.988 62.2003 176.817 63.5093 177.452 64.89C177.874 65.8108 178.228 66.7663 178.601 67.7117C176.122 66.9431 174.306 64.6674 172.849 62.4543C172.003 61.1699 171.331 59.7601 170.994 58.2284C170.632 56.5859 170.529 53.8425 172.864 54.4814C175.748 55.2702 177.97 58.2698 179.048 61.0692C179.845 63.1345 179.987 65.0869 179.879 67.1512C179.352 66.2225 178.765 65.3387 178.203 64.4257Z" fill="#E5E3DC"/>
<path d="M121.528 59.5767L124.202 58.1904C123.714 56.4875 122.847 55.1046 121.346 54.5665C120.087 54.1156 119.286 54.4613 118.805 55.2333C118.923 52.2751 119.674 48.7765 122.897 50.1459C125.774 51.3677 126.577 55.9572 126.864 58.8393C127.145 61.6622 126.958 64.4985 126.942 67.328C126.204 67.0752 125.433 66.9185 124.666 66.8559C124.75 65.2693 124.887 62.9365 124.661 60.7123L121.528 59.5767Z" fill="#E5E3DC"/>
<path d="M185.357 66.3403C184.566 66.9434 183.701 67.458 182.771 67.7758C182.571 67.844 182.372 67.891 182.174 67.928C182.482 67.5968 182.774 67.2567 183.054 66.9837C183.909 66.1501 184.663 65.3289 185.166 64.21C185.268 63.9852 185.003 63.7312 184.825 63.9315C184.023 64.8333 183.042 65.5404 182.099 66.2642C181.918 66.4019 181.716 66.5372 181.508 66.676C182.091 65.2998 182.888 63.9404 183.648 62.8674C184.342 61.8873 188.105 57.9714 188.811 60.4843C189.446 62.7533 186.86 65.1924 185.357 66.3403Z" fill="#E5E3DC"/>
<path d="M126.153 97.647C131.953 91.4822 135.366 82.4431 133.224 73.7821C132.912 72.5212 132.44 71.3139 132.106 70.0608C131.755 68.7428 131.629 67.3734 131.52 66.0129C131.292 63.124 131.229 60.2128 131.095 57.3183C130.892 52.9582 129.868 47.9749 128.828 44.3442C127.528 44.7224 126.21 45.0502 124.881 45.3288C126.189 46.432 127.226 48.0767 127.951 49.755C127.97 49.7997 127.916 49.8557 127.882 49.812C126.524 48.1338 125.022 46.2899 123.237 45.6443C122.012 45.8603 120.78 46.0359 119.544 46.1635C119.462 46.2149 119.381 46.2653 119.298 46.3235C115.872 48.6898 116.053 52.8967 114.987 56.5765C114.94 56.7388 114.701 56.7544 114.661 56.5765C113.922 53.2435 114.545 49.0132 116.776 46.3738C113.569 46.5327 110.357 46.394 107.208 45.9308C103.07 45.3221 98.9226 44.2212 95.0492 42.5597C93.1875 41.7608 91.3313 40.5066 89.3275 40.2179C87.2486 39.9181 85.2538 41.0929 85.0557 43.4234C84.7794 46.6658 86.4968 49.9922 84.6563 53.0242C82.9299 55.8672 79.3217 56.6123 76.4216 55.6837C75.2726 55.3156 74.2029 54.745 73.1893 54.0748C73.5361 57.3194 73.8102 60.582 73.921 63.8445C74.0127 66.5432 74.5889 70.684 72.2461 72.5447C70.391 74.0171 68.5024 72.7282 67.6432 70.8295C67.6163 71.202 67.5604 71.5802 67.4709 71.9606C67.3993 72.265 66.9819 72.1866 66.9696 71.889C66.8947 70.1861 66.3162 68.2696 65.2869 66.946C64.0528 65.3595 62.1642 64.7184 60.317 64.3379C56.7143 63.5962 53.256 65.4747 52.1685 69.2989C51.2163 72.6454 52.3452 76.0455 54.518 78.5461C57.0869 81.501 60.7231 81.7035 64.2206 80.9326C64.4567 80.8812 64.6525 80.9897 64.7633 81.1564C65.0351 81.2347 65.2511 81.4708 65.231 81.8747C65.0038 86.3243 66.352 90.2738 68.6222 93.9649C70.9605 97.7667 74.0586 100.444 77.7765 102.637C85.4193 107.145 94.9441 108.63 103.587 107.933C111.87 107.262 120.22 103.954 126.153 97.647ZM64.3929 72.2985C64.3325 72.8132 63.6993 72.8121 63.6366 72.2985C63.3916 70.298 61.8565 69.4981 60.3315 69.6637C59.9925 70.185 60.0283 71.164 60.0988 71.6832C60.1805 72.2795 60.4748 72.6867 60.8037 73.1555C60.891 73.2797 60.7981 73.4744 60.6683 73.508C59.2742 73.8727 58.8144 71.3565 59.3738 69.8975C58.5906 70.2007 57.8902 70.7657 57.4707 71.559C56.843 72.7483 56.8654 74.1771 57.6956 75.2612C58.5224 76.342 59.686 76.596 60.9156 76.822C61.1248 76.86 61.0823 77.1644 60.9156 77.227C57.1719 78.63 54.5247 73.0336 56.3205 69.9669C58.4508 66.3261 64.9524 67.5636 64.3929 72.2985ZM101.809 52.9649C101.828 53.0097 101.775 53.0656 101.74 53.022C99.4866 50.2361 96.836 46.9914 93.155 49.5334C89.7291 51.8998 89.9104 56.1066 88.8441 59.7854C88.7971 59.9476 88.5577 59.9633 88.5185 59.7854C87.5541 55.442 88.9023 49.5703 93.1125 47.6873C97.2131 45.8524 100.237 49.3298 101.809 52.9649ZM104.512 73.5181C101.805 72.0926 99.2326 71.0946 96.158 71.9562C93.4526 72.7147 91.9937 74.798 89.9014 76.5087C89.7616 76.6228 89.4886 76.5725 89.5065 76.3364C89.6844 74.0327 91.4701 72.2403 93.4672 71.1696C91.8986 67.2962 90.8782 63.0815 90.8782 58.859C90.8782 55.7396 91.7028 51.497 95.4285 51.5317C98.7671 51.563 100.455 55.1713 101.251 58.0937C102.373 62.2189 102.278 66.6875 101.715 70.9134C102.89 71.4683 103.933 72.2806 104.67 73.3525C104.744 73.4588 104.605 73.5673 104.512 73.5181ZM111.586 91.273C115.038 90.4137 117.868 88.9872 120.547 86.5347C120.867 86.2427 121.393 86.6119 121.155 87.0314C119.357 90.1989 115.767 92.1736 112.527 93.1884C108.726 94.3777 104.541 94.86 100.595 94.4225C96.8942 94.0119 93.2221 92.7129 90.1811 90.4148C87.9949 88.7623 85.9038 86.6868 85.0613 84.0173C85.049 84.3149 85.0266 84.5789 84.9696 84.9101C84.9125 85.2368 84.5478 85.314 84.3094 85.1943C82.9657 84.5185 83.3618 82.3905 84.428 81.586C85.0826 81.0926 85.83 81.0479 86.5796 81.3074C87.2487 81.539 88.1415 81.9967 88.4324 82.7183C88.5062 82.9018 88.4234 83.1211 88.212 83.1244C87.4982 83.1356 86.6434 82.4285 85.8949 82.5661C87.6716 84.6259 89.3152 86.8435 91.517 88.4199C94.3802 90.4696 97.6572 91.575 101.076 91.9924C104.574 92.422 108.162 92.1244 111.586 91.273ZM130.655 70.3081C127.948 68.8827 125.375 67.8847 122.301 68.7462C120.754 69.1803 119.615 70.0485 118.53 71.032C118.668 71.1595 118.804 71.2759 118.925 71.4023C118.989 71.4034 119.054 71.4046 119.114 71.4068C121.041 71.4661 123.074 72.2605 123.713 74.3628C125.344 79.7366 118.632 82.9454 114.532 82.9152C114.196 82.913 113.926 82.3994 114.231 82.1466C116.528 80.2401 119.823 79.1525 121.28 76.3062C121.721 75.4447 122.052 74.4724 121.331 73.64C120.824 73.056 119.824 72.8546 119.114 72.7707C118.373 72.6834 117.589 72.6834 116.851 72.7908C116.111 72.8993 115.468 73.3021 114.743 73.4263C114.607 73.4498 114.444 73.3346 114.499 73.1679C114.836 72.1273 115.932 71.6876 117.061 71.5108C116.497 70.938 116.025 70.2208 115.788 69.7431C115.144 68.4486 114.621 66.4347 115.655 65.2162C115.774 65.0764 116.055 65.0943 116.13 65.2811C116.628 66.5141 116.54 67.8914 117.147 69.1154C117.227 69.2754 117.312 69.4332 117.403 69.5876C118.045 68.9386 118.811 68.3904 119.612 67.9608C118.043 64.0873 117.023 59.8726 117.023 55.6501C117.023 52.5308 117.849 48.2882 121.575 48.3228C124.913 48.3542 126.602 51.9635 127.397 54.8848C128.519 59.01 128.424 63.4787 127.862 67.7045C129.036 68.2595 130.079 69.0718 130.816 70.1436C130.887 70.2477 130.748 70.3573 130.655 70.3081Z" fill="#E5E3DC"/>
<path d="M206.983 70.0592C206.273 69.4114 205.561 68.7647 204.952 68.0363C204.715 67.7544 204.338 68.1639 204.563 68.4469C205.154 69.1887 205.652 70.0312 206.153 70.8692C204.233 70.2829 202.567 69.1585 201.356 67.3079C200.619 66.1846 199.477 63.9492 200.732 62.7621C202.159 61.4139 204.053 64.126 204.811 65.2437C205.631 66.452 206.28 67.8047 206.757 69.201C206.843 69.4528 206.915 69.747 206.983 70.0592Z" fill="#E5E3DC"/>
<path d="M113.577 119.648C113.531 120.911 113.328 122.117 112.822 123.267C111.733 125.74 108.615 126.572 107.694 123.424C107.35 122.244 107.247 120.873 107.334 119.643C107.367 119.186 107.53 118.738 107.683 118.295C107.713 118.265 107.741 118.23 107.766 118.194C108.686 116.845 111.661 114.484 113.091 116.441C113.704 117.279 113.613 118.662 113.577 119.648Z" fill="#064C1A"/>
<path d="M27.8954 137.155C32.9179 136.53 38.3376 139.618 41.6527 143.449C42.7995 144.774 43.858 146.388 44.4924 148.126C39.6724 150.478 36.6235 154.973 37.6585 159.397C37.6652 159.427 37.692 159.439 37.7278 159.442C37.8207 160.147 38.0075 160.829 38.3018 161.446C39.1197 163.167 41.5386 164.463 41.6147 166.515C41.6829 168.332 39.8223 167.65 38.718 167.711C37.8598 167.758 37.0934 168.071 36.4322 168.648C34.8099 170.065 34.5369 172.31 34.5704 174.402C34.6118 176.99 34.9061 179.791 34.359 182.337C34.0949 183.565 33.4628 184.8 32.3014 185.308C30.9107 185.916 29.9977 184.641 29.5614 183.392C29.0792 182.011 28.8532 180.458 28.8241 178.992C28.8017 177.856 29.0479 176.655 28.5365 175.62C28.4068 175.358 27.9805 175.27 27.7936 175.519C26.5506 177.182 27.3931 180.407 27.882 182.263C28.08 183.016 28.3072 183.872 28.6428 184.66C27.6918 185.69 26.6222 186.338 25.2583 185.64C24.0119 185.002 23.212 183.576 22.6078 182.319C21.9175 180.885 21.4487 179.327 21.198 177.739C20.9586 176.223 21.0168 174.749 20.4999 173.297C20.3723 172.939 19.908 172.823 19.7044 173.187C18.6449 175.087 19.0432 177.433 19.5388 179.481C19.7167 180.216 19.9405 180.961 20.2101 181.693C17.2239 182.032 15.0914 178.745 14.2668 176.005C13.3046 172.807 13.1155 169.395 13.3471 166.064C13.5675 162.893 14.2993 159.758 15.0735 156.695C15.8119 153.771 16.6052 150.83 17.6345 148.003C19.3911 143.171 22.6011 137.814 27.8954 137.155Z" fill="#E5E3DC"/>
<path d="M42.3416 154.503C42.0004 154.398 41.6625 154.262 41.3302 154.095C41.2474 154.016 41.1702 153.925 41.1019 153.819C41.055 153.745 41.0024 153.689 40.9453 153.641C40.9688 153.61 40.9901 153.58 41.0147 153.551C42.1223 152.184 43.4907 151.424 45.0705 150.684C45.1622 151.938 44.9127 153.321 43.8476 154.04C43.4157 154.332 42.8619 154.521 42.3416 154.503Z" fill="#E5E3DC"/>
<path d="M38.1099 170.055C38.6671 170.375 39.3127 170.479 39.9639 170.653C40.9753 170.925 42.0069 171.134 43.025 171.376C45.0647 171.859 47.101 172.362 49.1496 172.812C51.1478 173.251 53.1808 173.501 55.1712 173.975C57.0117 174.414 59.2225 175.179 59.8289 177.315C60.6244 180.113 57.5118 180.913 55.5728 180.737C53.4224 180.542 51.2631 179.998 49.1384 179.601C44.9819 178.824 40.8399 177.962 36.6722 177.25C36.6432 176.056 36.5984 174.862 36.6118 173.666C36.6253 172.526 36.7673 171.246 37.5931 170.417C37.7575 170.253 37.9309 170.136 38.1099 170.055Z" fill="#E5E3DC"/>
<path d="M56.8471 159.71C51.677 160.405 46.1163 164.164 44.9818 169.853C44.9158 169.841 44.8498 169.828 44.7827 169.815C43.9827 169.667 43.1827 169.519 42.3827 169.368C43.0261 168.902 43.4714 168.174 43.5877 167.224C43.7981 165.509 42.9925 164.083 41.8759 162.924C40.5959 161.597 39.4066 160.405 39.2578 158.449C39.2746 158.419 39.2858 158.392 39.2835 158.371C39.2119 157.601 39.3887 156.57 39.8374 155.517C39.8586 155.533 39.8765 155.552 39.8989 155.568C45.2828 159.198 52.0563 155.928 54.615 150.185C54.8366 149.688 55.0313 149.186 55.2036 148.68C55.311 148.67 55.4184 148.643 55.5202 148.595C56.7218 148.024 57.6661 147.76 59.0278 147.694C59.5458 147.669 60.0638 147.681 60.5807 147.698C60.3044 151.665 60.7899 155.796 61.0529 159.788C59.6868 159.554 58.277 159.518 56.8471 159.71Z" fill="#E5E3DC"/>
<path d="M7.57284 170.501C7.30991 169.499 7.26627 167.72 7.6366 166.703C8.08078 165.482 10.0052 166.193 11.0088 166.245C10.9529 167.418 10.9428 168.592 10.9931 169.757C11.0368 170.767 11.1173 171.815 11.2538 172.865C10.7694 172.778 10.2569 172.763 9.76018 172.669C8.54512 172.439 7.91297 171.795 7.57284 170.501Z" fill="#E5E3DC"/>
<path d="M52.0661 182.055C50.2257 181.744 48.3829 181.448 46.5391 181.153C46.5491 186.892 51.8513 191.42 56.7172 192.858C62.4747 194.559 67.7881 190.379 70.5763 185.276C73.1653 180.537 73.483 174.768 70.9533 169.928C68.5579 165.346 63.9259 161.931 58.8542 162.164C56.2383 162.283 53.6392 163.403 51.4944 164.962C49.5185 166.398 48.1379 168.172 46.887 170.214C48.76 170.583 50.6329 170.987 52.479 171.459C55.9396 172.344 61.6434 173.23 61.5472 178.26C61.5114 180.1 60.2538 181.501 58.7031 182.152C56.5885 183.038 54.2244 182.42 52.0661 182.055ZM62.0966 165.353C63.6081 165.191 65.0514 166.46 66.1882 167.383C67.5207 168.465 68.7011 169.757 69.6007 171.263C71.2599 174.041 72.0823 178.558 70.0124 181.323C69.7215 181.711 69.2012 181.28 69.2851 180.875C69.5995 179.351 70.0247 177.908 69.8949 176.325C69.7606 174.687 69.2281 173.141 68.4337 171.733C67.0262 169.238 64.6117 166.941 62.0261 165.904C61.7419 165.79 61.7945 165.386 62.0966 165.353Z" fill="#E5E3DC"/>
<path d="M73.8466 140.613C72.4984 142.692 70.5919 144.345 68.4415 145.419C67.6259 145.826 66.7878 146.12 65.923 146.341C63.9952 144.951 59.6877 145.504 57.7554 145.648C57.1669 145.692 56.4978 145.763 55.8959 145.962C57.1524 138.739 53.9547 131.199 48.582 126.57C52.762 124.996 57.1624 124.116 61.5998 123.923C64.0937 123.814 66.5909 123.956 69.0692 124.271C71.3259 124.557 74.3367 125.553 76.6538 127.138C77.0376 131.821 76.3953 136.679 73.8466 140.613Z" fill="#E5E3DC"/>
<path d="M123.265 121.532C123.51 119.915 123.641 118.275 123.602 116.637C123.566 115.001 122.89 107.844 120.092 109.426C118.033 110.591 116.569 112.546 115.117 114.428C115.926 115.504 116.115 116.964 116.139 118.357C116.167 119.967 116.029 121.714 115.477 123.253C116.263 123.965 116.934 124.821 117.91 125.346C119.228 126.055 121.171 126.727 122.169 125.209C122.876 124.14 123.073 122.795 123.265 121.532ZM117.476 119.195C117.614 119.126 117.755 119.041 117.902 118.992C118.062 118.939 118.234 118.912 118.398 118.871C118.785 118.777 118.873 119.421 118.47 119.442C118.304 119.451 118.129 119.475 117.962 119.468C117.808 119.461 117.651 119.421 117.499 119.395C117.414 119.381 117.397 119.234 117.476 119.195ZM119.22 116.516C118.898 116.637 118.568 116.728 118.248 116.853C117.917 116.983 117.626 117.189 117.308 117.347C116.866 117.568 116.315 116.966 116.745 116.575C117.403 115.979 118.371 115.681 119.22 115.821C119.582 115.882 119.502 116.411 119.22 116.516Z" fill="#064C1A"/>
<path d="M52.1793 149.695C50.99 151.963 48.8485 153.764 46.4822 154.473C48.3059 151.553 46.9174 147.435 45.3678 144.718C42.1746 139.117 35.795 134.888 29.5821 134.606C26.3665 134.46 23.4094 135.712 20.9222 137.814C20.5374 138.14 20.176 138.48 19.8314 138.833C19.2026 138.068 19.1231 136.849 19.3637 135.902C19.7184 134.506 20.8249 133.53 21.7345 132.553C23.7014 130.439 25.8071 128.542 28.254 127.069C32.5884 124.462 37.7944 123.929 42.4958 125.729C46.8369 127.391 50.2896 131.056 52.1782 135.473C54.0512 139.853 54.4405 145.387 52.1793 149.695Z" fill="#E5E3DC"/>
<path d="M108.817 133.005C108.063 132.172 107.314 131.333 106.571 130.488C106.26 130.133 105.972 129.754 105.656 129.411C106.47 128.501 107.286 127.433 107.869 126.371C109.997 128.103 113.27 126.91 114.766 124.707C115.617 125.676 116.868 126.429 117.905 126.957C116.33 130.418 114.507 133.753 112.458 136.924C111.231 135.63 110.015 134.328 108.817 133.005Z" fill="#E5E3DC"/>
<path d="M121.108 106.687C119.256 106.565 117.42 108.265 116.204 109.569C115.583 110.233 114.991 110.972 114.484 111.767C114.639 110.738 114.763 109.703 114.762 108.667C118.907 107.158 122.791 104.921 126.128 101.902C126.88 104.008 127.946 106.013 128.78 108.081C129.73 110.436 130.672 112.867 131.343 115.33C131.415 115.594 131.454 115.854 131.473 116.113C131.406 116.343 131.4 116.587 131.467 116.805C131.417 117.373 131.261 117.925 131.038 118.461C130.991 118.523 130.957 118.597 130.941 118.681C130.427 119.816 129.636 120.878 128.955 121.843C127.745 123.561 126.341 125.048 124.867 126.494C124.703 126.329 124.539 126.162 124.377 125.994C124.849 125.125 125.109 124.091 125.289 123.155C125.714 120.944 125.961 118.651 125.897 116.395C125.808 113.304 125.009 106.944 121.108 106.687Z" fill="#E5E3DC"/>
<path d="M77.4764 105.738C77.7125 105.868 77.9508 105.997 78.1902 106.12C85.8162 110.032 94.9348 111.614 103.46 111.007C103.991 112.407 104.65 113.765 105.319 115.106C104.049 114.149 102.737 113.255 101.349 112.501C99.8398 111.68 98.0642 110.868 96.3423 111.366C92.4275 112.499 93.8037 118.85 94.3407 121.808C94.9102 124.942 95.84 129.193 98.6057 130.975C98.2511 131.556 98.0195 132.217 97.8695 132.897C89.9459 129.676 82.0983 126.256 74.3906 122.492C74.733 119.654 75.3349 116.804 75.8362 113.998C76.3285 111.231 76.8621 108.477 77.4764 105.738Z" fill="#E5E3DC"/>
<path d="M247.369 78.9039C247.86 78.1688 248.128 77.2133 248.046 76.3362C247.562 75.6559 246.966 75.0674 246.287 74.5594C245.286 74.047 244.21 73.67 243.168 73.3477C240.163 72.4169 237.105 71.646 234.055 70.9019C229.053 69.6802 224 68.6889 218.925 67.8609C219.159 68.1294 219.364 68.4315 219.522 68.7795C220.115 70.0774 219.723 71.2298 218.939 72.1237C219.678 72.1383 220.415 72.2535 220.999 72.3497C222.72 72.6339 224.723 73.2359 226.121 74.3883C227.125 75.2151 227.459 76.6226 226.561 77.6967C225.481 78.9867 223.479 79.2396 221.967 79.4409C219.474 79.7732 213.722 80.0507 213.422 76.1616C213.371 75.4948 213.471 74.9197 213.68 74.4252C211.69 74.6445 209.682 74.2864 208.026 72.974C207.99 72.9774 207.954 72.9785 207.915 72.9752C205.121 72.7592 202.326 71.0239 200.612 68.718C200.025 67.9281 199.42 66.7812 199.107 65.6042C195.655 65.4028 192.2 65.2697 188.741 65.207C188.302 65.7788 187.821 66.2957 187.352 66.7365C185.512 68.4673 182.404 70.5585 179.839 69.5627C177.222 69.2953 175.1 67.4727 173.397 65.3413C172.612 65.3648 171.826 65.3872 171.041 65.4163C170.29 65.4599 169.539 65.5102 168.788 65.5617C168.866 65.7183 168.872 65.8951 168.822 66.0585C169.431 66.7343 169.673 67.7222 169.266 69.1219C168.133 73.0177 162.402 73.3757 159.312 72.955C157.744 72.7424 155.745 72.2859 155.123 70.5193C154.644 69.161 155.142 67.7502 156.053 66.7622C154.029 66.9782 151.963 67.2254 149.937 67.6204C149.105 67.9997 148.288 68.417 147.495 68.8824C146.171 69.66 143.583 70.978 143.236 72.7648C142.859 74.7071 145.793 75.2341 147.036 75.5519C148.986 76.0497 150.974 76.4503 152.945 76.8396C160.974 78.4284 169.125 78.8323 177.266 79.2865C194.222 80.232 211.206 81.1606 228.19 81.0353C232.867 81.0006 237.594 81.0834 242.264 80.8518C243.978 80.7657 246.285 80.5251 247.369 78.9039ZM177.911 75.7141C176.129 76.2903 173.552 76.7345 171.782 75.8472C169.959 74.9331 171.469 72.2826 172.285 71.1514C172.563 70.7643 172.945 70.5383 173.415 70.6648C173.8 70.7688 174.003 70.9489 174.086 71.1738C175.423 72.2054 176.758 73.2403 178.087 74.2831C178.588 74.6758 178.562 75.5037 177.911 75.7141ZM202.835 74.0526C202.87 75.9949 200.979 76.6293 199.526 77.0332C195.503 78.152 191 77.643 186.927 77.0522C184.428 76.6886 181.215 75.0663 182.545 71.8026C183.272 70.0158 185.08 69.2505 186.784 68.9619C187.822 68.7862 189.449 68.6229 190.831 68.8634C193.798 68.6654 196.846 69.3423 199.548 70.5462C201.002 71.1951 202.8 72.1125 202.835 74.0526ZM241.886 76.9325C241.873 76.928 241.861 76.9247 241.85 76.9213C241.725 77.116 241.511 77.2615 241.316 77.3275C240.248 77.69 239.165 77.9596 238.09 78.2874C237.333 78.5179 236.506 78.9889 235.703 78.971C234.012 78.9319 234.136 76.4481 234.153 75.2005C234.203 71.8821 238.746 74.0783 241.114 75.4176C241.339 75.4355 241.56 75.5619 241.72 75.7085C241.772 75.7555 241.811 75.7991 241.846 75.8427C241.995 75.9323 242.126 76.0106 242.229 76.0732C242.659 76.3328 242.374 77.0981 241.886 76.9325Z" fill="#E5E3DC"/>
<path d="M229.058 75.921C228.951 74.7004 228.327 73.5357 227.345 72.7279C226.233 71.8115 224.888 71.2085 223.613 70.8124C226.832 71.4121 229.897 72.0622 232.879 72.7771C232.433 73.4059 232.18 74.2193 232.167 75.1714L232.164 75.3381C232.138 76.8161 232.303 78.011 232.666 78.9207C232.451 78.9218 232.237 78.9218 232.023 78.9218C230.739 78.9229 229.457 78.924 228.179 78.933C228.842 78.0648 229.153 77.003 229.058 75.921ZM201.877 78.4217C203.237 77.7839 204.706 76.6203 204.821 74.3994C205.649 74.7138 206.499 74.9275 207.344 75.0316C208.557 75.8618 209.937 76.3641 211.463 76.5286C211.537 77.2021 211.736 78.001 212.201 78.7674C208.747 78.679 205.297 78.5604 201.877 78.4217ZM244.349 77.1383C244.446 76.7501 244.459 76.3585 244.395 75.9904C244.69 76.109 244.987 76.2388 245.275 76.3809C245.551 76.5968 245.8 76.8262 246.023 77.0656C245.968 77.286 245.874 77.5064 245.751 77.6911C245.339 78.3053 244.231 78.5548 243.303 78.6644C243.803 78.3232 244.186 77.7862 244.349 77.1383ZM179.322 77.2939C179.88 76.8642 180.267 76.2231 180.388 75.4836C180.567 74.3804 180.142 73.2727 179.277 72.5958C178.64 72.0957 178.003 71.5978 177.364 71.1022C178.032 71.3629 178.713 71.5385 179.41 71.6292C179.739 71.7388 180.079 71.8182 180.427 71.8664C180.008 73.5144 180.395 74.7988 180.839 75.629C181.246 76.391 181.811 76.9929 182.436 77.465C181.388 77.4091 180.351 77.352 179.322 77.2939ZM153.314 74.7709C151.238 74.3603 149.368 73.9821 147.506 73.5055L147.143 73.416C146.796 73.332 145.889 73.1127 145.367 72.8644C145.732 72.4135 146.627 71.778 148.037 70.9679L148.462 70.7229C149.102 70.3481 149.793 69.9867 150.523 69.6466C151.328 69.4944 152.144 69.3646 152.959 69.2516C152.935 69.9296 153.035 70.6077 153.263 71.2543C154.374 74.405 157.78 74.8682 159.063 75.0428C159.802 75.1423 160.619 75.196 161.423 75.196C164.772 75.196 167.442 74.367 169.184 72.8442C168.945 73.6476 168.847 74.5079 169.039 75.3415C169.157 75.8606 169.38 76.3305 169.69 76.7322C164.211 76.3641 158.687 75.8349 153.314 74.7709ZM171.447 67.5073C171.808 67.4939 172.167 67.4827 172.527 67.4727C172.868 67.862 173.212 68.2223 173.558 68.5568C173.426 68.5378 173.293 68.5288 173.163 68.5288C172.48 68.5288 171.84 68.7739 171.302 69.2315C171.441 68.5937 171.479 68.0198 171.447 67.5073Z" fill="#AD4040"/>
<path d="M155.477 116.96C155.097 116.239 154.692 115.54 154.249 114.86C154.014 114.5 153.218 113.669 153.207 113.219C153.195 112.69 153.804 111.996 154.218 111.864C154.494 111.777 154.907 111.793 155.185 111.806C155.853 111.834 156.464 112.047 157.055 112.365C159.517 113.693 161.194 116.261 162.561 118.735C163.945 121.239 165.1 123.95 166.067 126.661C166.191 127.01 166.665 126.876 166.596 126.506C165.856 122.487 164.269 118.968 162.168 115.548C161.155 113.901 159.924 112.013 158.333 110.883C158.555 110.546 158.791 110.216 159.177 109.998C159.99 109.538 160.678 110.283 161.294 110.947C161.37 111.433 161.775 111.889 162.286 111.917C162.854 112.45 163.423 112.983 163.993 113.517C166.784 116.739 169.319 120.241 170.607 124.36C171.028 125.706 171.337 127.096 171.429 128.512C171.514 129.827 171.612 131.619 170.958 132.78C170.295 133.952 168.541 134.64 167.413 135.228C166.22 135.849 164.992 136.417 163.757 136.936C163.351 137.106 162.054 137.888 161.647 137.736C161.383 137.638 161.408 136.671 161.364 136.334C161.192 135.035 160.966 133.75 160.707 132.467C160.151 129.722 159.553 127.015 158.653 124.368C157.781 121.815 156.725 119.33 155.477 116.96Z" fill="#E5E3DC"/>
<path d="M208.312 70.8564C208.103 70.2019 207.96 69.3303 207.799 68.8928C207.517 68.1275 207.212 67.3656 206.868 66.6294C206.808 66.4985 206.741 66.3586 206.668 66.2109C208.613 66.4123 210.555 66.6406 212.492 66.8979C210.859 67.6352 209.023 69.0819 208.312 70.8564Z" fill="#E5E3DC"/>
<path d="M142.4 170.075C142.724 169.736 143.052 169.425 143.385 169.138C143.131 166.943 142.643 164.781 142.407 162.565C142.177 160.4 141.925 158.236 141.607 156.083C140.965 151.731 140.25 147.449 139.203 143.179C138.185 139.025 136.991 134.915 135.572 130.895C134.806 128.725 133.984 126.577 133.1 124.458C132.658 123.397 132.037 122.272 131.567 121.125C131.245 121.639 130.912 122.13 130.607 122.59C129.161 124.765 127.479 126.85 125.511 128.516C125.136 128.834 124.57 128.941 124.204 128.516C123.87 128.128 123.531 127.747 123.188 127.372C123.16 127.391 123.135 127.412 123.107 127.43C122.192 128.023 121.144 128.048 120.126 127.817C118.403 132.052 115.708 136.027 113.311 139.854C113.003 140.346 112.483 140.365 112.069 140.023C110.341 138.601 108.718 137.033 107.171 135.397C106.424 134.608 105.698 133.799 104.991 132.971C104.517 132.415 103.977 131.879 103.506 131.303C102.511 131.83 101.401 131.942 100.22 131.663C99.9965 131.611 99.7839 131.543 99.5781 131.465C99.4315 132.312 99.2435 133.117 99.22 134.003C99.2077 134.5 98.7344 134.966 98.2466 134.787C91.1968 132.191 84.2678 129.249 77.4339 126.075C79.0003 131.372 78.4554 137.427 75.3618 142.029C73.8223 144.32 71.7256 146.22 69.3123 147.407C68.0603 148.022 66.7177 148.487 65.3437 148.665C64.1208 148.823 63.0993 148.514 61.9805 148.305C62.607 152.184 62.5925 156.273 62.8017 160.201C66.3898 161.293 69.5673 163.762 71.8151 167.057C75.495 172.453 75.7881 179.463 73.1443 185.41C72.2548 187.411 70.9659 189.36 69.3973 191.02C82.8503 193.846 97.0439 194.428 110.414 190.784C116.675 189.078 122.646 186.386 128.132 182.762C130.799 181 133.356 179.043 135.751 176.886C138.115 174.757 140.199 172.378 142.4 170.075ZM65.9501 155.007C66.1851 154.876 66.3932 154.916 66.6461 154.958C66.9023 154.999 67.1585 155.04 67.4136 155.082C67.7112 155.13 67.6373 155.64 67.3431 155.632C67.0992 155.626 66.8553 155.619 66.6114 155.612C66.3753 155.605 66.1459 155.617 65.9501 155.458C65.8147 155.346 65.77 155.108 65.9501 155.007ZM78.8247 143.512C78.31 146.917 76.5646 149.984 73.8447 151.916C71.2333 153.769 66.74 154.955 63.9978 152.876C63.6655 152.623 63.7885 152.109 64.2025 152.073C65.6794 151.946 67.154 152.182 68.6331 152.029C70.1905 151.867 71.7032 151.311 73.057 150.49C75.6259 148.934 77.5055 146.359 78.3503 143.372C78.4431 143.046 78.8739 143.187 78.8247 143.512ZM111.214 153.38C107.968 153.38 107.963 148.042 111.214 148.042C114.461 148.042 114.467 153.38 111.214 153.38ZM116.363 166.557C116.332 166.801 116.301 167.045 116.27 167.288C116.147 167.755 115.923 168.159 115.601 168.502C115.425 168.646 115.25 168.789 115.075 168.933C114.669 169.182 114.232 169.307 113.763 169.309C113.405 169.324 113.071 169.244 112.76 169.072C112.438 168.961 112.158 168.771 111.923 168.502C111.669 168.253 111.49 167.959 111.385 167.617C111.222 167.29 111.148 166.936 111.161 166.558C111.193 166.314 111.223 166.07 111.254 165.826C111.377 165.36 111.601 164.956 111.923 164.612C112.099 164.469 112.275 164.326 112.449 164.183C112.855 163.933 113.293 163.809 113.762 163.807C114.12 163.792 114.453 163.872 114.763 164.044C115.085 164.155 115.365 164.345 115.6 164.612C115.854 164.862 116.033 165.156 116.138 165.497C116.301 165.824 116.376 166.177 116.363 166.557Z" fill="#AD4040"/>
<path d="M169.112 93.9819C175.472 94.698 181.854 95.206 188.244 95.5058C201.108 96.11 214.015 95.8717 226.854 94.8311C232.775 94.3512 239.17 94.1811 244.57 91.2732C248.797 88.9964 252.173 83.4917 250.133 78.5598C249.846 78.8093 249.347 78.816 249.099 78.4502C248.978 78.9939 248.774 79.5142 248.485 79.9595C246.359 83.222 241.669 83.0721 238.375 83.3362C228.332 84.1406 218.147 83.8766 208.086 83.6315C198.075 83.3876 188.069 82.8114 178.07 82.2554C168.712 81.734 159.158 81.4677 150.008 79.1327C147.776 78.5632 145.214 77.9344 143.19 76.7506C141.609 75.8265 140.708 74.0934 141.29 72.1992C141.442 71.708 141.671 71.2638 141.952 70.8555C140.363 71.9329 138.908 73.3013 138.088 75.1093C137.061 77.3727 137.289 80.021 138.221 82.2755C140.424 87.6012 145.62 89.9799 150.669 91.1916C156.703 92.636 162.969 93.2916 169.112 93.9819ZM195.478 85.7081C199.939 85.8916 204.38 86.2899 208.847 86.3895C213.4 86.4913 217.949 86.6412 222.503 86.6535C226.833 86.6647 231.169 86.63 235.496 86.4387C239.57 86.2586 243.338 85.5358 247.074 83.7624C247.299 83.6562 247.581 83.9538 247.36 84.1552C244.527 86.7374 240.684 87.355 237.069 87.6694C232.685 88.051 228.238 87.9782 223.842 87.976C219.204 87.9738 214.55 87.9413 209.918 87.6862C205.119 87.4211 200.255 87.242 195.478 86.6882C194.9 86.6222 194.871 85.6835 195.478 85.7081ZM188.496 85.4911C188.53 85.4038 188.59 85.3199 188.671 85.274C188.706 85.2583 188.739 85.2438 188.774 85.2281C188.85 85.2069 188.926 85.2069 189.002 85.2281L189.075 85.2382C189.123 85.2494 189.169 85.2796 189.215 85.3009C189.254 85.3188 189.292 85.3355 189.331 85.3534C189.421 85.3937 189.51 85.5325 189.532 85.6287C189.554 85.7316 189.548 85.8312 189.509 85.9285C189.428 86.1344 189.205 86.2608 188.996 86.1948C188.882 86.159 188.773 86.1243 188.671 86.0572C188.489 85.9364 188.411 85.7014 188.496 85.4911ZM177.551 85.5123C177.529 85.3937 177.564 85.2561 177.673 85.1957C177.769 85.142 177.919 85.1409 177.994 85.2393C178.065 85.3333 178.136 85.4273 178.207 85.5213C178.284 85.6242 178.338 85.7473 178.297 85.8815C178.269 85.9733 178.217 86.0527 178.136 86.1031C177.952 86.2172 177.667 86.1187 177.622 85.8815C177.598 85.7596 177.575 85.6365 177.551 85.5123Z" fill="#E5E3DC"/>
<path d="M160.847 108.804C160.726 108.67 160.603 108.539 160.475 108.418C159.371 107.385 157.272 108.586 156.562 110.026C156.006 109.879 155.413 109.828 154.78 109.907C153.607 110.05 152.229 110.786 151.824 112.047C151.679 112.496 151.689 112.935 151.783 113.365C151.749 113.387 151.716 113.413 151.685 113.443C149.48 115.59 145.521 115.807 142.691 115.991C139.468 116.199 136.24 115.995 133.072 115.352C132.625 112.907 131.425 110.43 130.506 108.198C129.513 105.785 128.499 103.199 127.016 101.059C127.78 100.312 128.514 99.5237 129.211 98.689C132.653 94.5661 134.925 89.3321 135.698 83.8789C136.609 85.9398 137.966 87.7993 139.563 89.2236C144.134 93.2973 150.216 94.396 155.946 95.2911C160.687 96.0329 165.446 96.6572 170.213 97.1708C169.496 99.0303 170.919 101.613 171.9 103.059C171.91 103.074 171.923 103.089 171.933 103.105C168.876 105.704 165.546 107.964 162.042 109.825C161.646 109.483 161.248 109.142 160.847 108.804Z" fill="#E5E3DC"/>
<path d="M137.349 129.846C136.582 127.855 135.772 125.882 134.912 123.933C134.264 122.462 133.632 120.509 132.645 119.13C132.856 118.636 133.019 118.129 133.118 117.616C136.709 118.284 140.344 118.448 143.976 117.969C146.855 117.589 150.316 117.181 152.372 114.812C152.539 115.125 152.714 115.427 152.868 115.717C154.588 118.968 156.16 122.245 157.272 125.792C158.297 129.06 158.961 132.374 159.169 135.799C158.008 136.114 156.848 137.056 155.825 137.578C154.242 138.383 152.59 139.009 150.903 139.522C147.638 140.516 144.4 140.772 141.031 140.724C139.961 137.041 138.723 133.414 137.349 129.846Z" fill="#E5E3DC"/>
<path d="M195.519 197.114C195.014 198.378 194.431 199.588 193.789 200.756C188.955 198.526 184.082 196.392 179.196 194.292C174.615 192.323 169.974 189.896 165.18 188.568C165.057 188.534 164.947 188.538 164.838 188.547C162.765 188.724 161.031 190.082 159.318 191.19C157.269 192.514 155.141 193.715 152.991 194.842C140.566 201.349 126.076 205.767 112.169 203.126C107.797 202.295 103.566 200.713 99.8646 198.082C98.9561 197.435 98.098 196.727 97.2812 195.973C100.185 195.806 103.081 195.485 105.958 194.954C116.3 193.043 126.246 188.633 134.605 181.879C136.597 180.269 138.522 178.563 140.326 176.72C142.136 174.873 143.692 172.661 145.641 170.979C147.968 168.971 150.713 169.344 153.537 169.375C156.437 169.406 159.355 169.489 162.251 169.662C168.102 170.012 173.431 172.877 178.779 175.179C184.532 177.656 190.331 180.041 196.045 182.617C196.753 182.936 197.613 183.224 197.838 184.099C197.983 184.661 197.893 185.379 197.869 185.954C197.813 187.25 197.706 188.545 197.504 189.826C197.11 192.32 196.448 194.785 195.519 197.114Z" fill="#064C1A"/>
<path d="M164.962 193.289C165.882 193.524 166.774 193.908 167.654 194.276C169.031 194.852 170.422 195.389 171.803 195.955C174.66 197.124 177.487 198.359 180.326 199.573C184.011 201.149 187.594 203.051 191.279 204.649C190.175 206.145 188.965 207.559 187.647 208.878C183.306 207.458 179.03 205.78 174.802 204.024C170.401 202.197 166.224 199.828 161.992 197.612C162.461 197.075 162.907 196.518 163.319 195.93C163.841 195.186 164.57 194.258 164.962 193.289Z" fill="#064C1A"/>
<path d="M90.4209 196.086C91.6874 197.901 93.2191 199.534 94.979 200.956C104.587 208.718 117.827 209.587 129.31 207.29C136.182 205.915 142.601 203.13 148.998 200.224C152.143 198.794 155.261 197.263 158.2 195.398C159.705 194.442 161.35 193.634 162.877 192.66C163.014 192.859 163.223 192.997 163.497 193.044C163.018 193.694 162.588 194.419 162.129 194.965C161.212 196.054 160.267 197.115 159.229 198.075C159.064 198.228 158.896 198.375 158.726 198.521C153.338 202.559 147.211 205.28 140.914 207.343C128.19 211.513 114.294 214.721 100.938 212.76C95.1603 211.912 89.4508 210.16 84.3455 207.139C81.7319 205.593 79.3063 203.743 77.1413 201.552C75.0983 199.484 73.0821 196.935 72.8125 193.852C78.6092 195.108 84.5111 195.91 90.4209 196.086Z" fill="#064C1A"/>
<path d="M39.3417 229.172C39.0564 230.697 38.8517 232.241 38.7342 233.804C38.5966 235.635 38.5831 237.485 38.6704 239.322C38.2587 239.017 37.7988 238.758 37.32 238.532C37.1656 238.061 37.0201 237.597 36.9384 237.148C36.6979 235.827 36.7818 234.507 37.1902 233.231C37.6489 231.797 38.3996 230.404 39.3417 229.172Z" fill="#064C1A"/>
<path d="M86.7479 226.893C83.8601 230.036 81.0015 233.612 77.1247 235.389C74.8792 236.418 72.5766 236.427 70.1711 236.343C67.4612 236.249 64.757 235.969 62.074 235.558C57.0829 234.791 52.1734 233.588 47.1721 232.885C45.0329 232.584 42.8814 232.29 40.75 231.894C41.1841 228.602 42.0568 225.357 43.3603 222.332C46.4169 223.122 49.6123 223.447 52.7048 224.001C54.2813 224.283 55.8622 224.53 57.4487 224.735C57.8717 224.79 58.3225 224.822 58.7846 224.856C59.9818 225.11 61.1801 225.356 62.3806 225.575C62.582 225.676 62.7744 225.792 62.9557 225.928C62.9926 225.954 63.0295 225.976 63.0675 225.998C62.4074 227.6 61.8402 229.244 61.5202 230.94C61.4374 231.379 61.9498 231.809 62.2855 231.454C62.3851 231.508 62.5048 231.505 62.5988 231.383C62.9926 230.871 63.3014 230.284 63.5822 229.68C64.644 228.055 65.5212 226.277 66.3469 224.511C67.506 222.033 68.6774 219.56 69.8007 217.063C70.3176 215.914 70.8323 214.764 71.3347 213.608C72.9391 210.577 74.6006 207.562 76.0137 204.449C78.1775 206.512 80.583 208.317 83.1105 209.828C86.9504 212.122 90.9983 213.727 95.1604 214.785C94.8852 215.544 90.8227 222.459 86.7479 226.893Z" fill="#064C1A"/>
<path d="M41.003 236.491C44.1604 236.988 47.2943 237.699 50.4382 238.288C56.1667 239.361 61.9287 240.467 67.7299 240.983C72.6741 241.422 77.2759 241.192 81.7255 238.657C85.8093 236.33 89.2755 232.753 92.039 228.854C93.6311 226.606 95.1181 224.28 96.7203 222.04C97.3949 221.097 99.0329 217.672 99.5565 216.643C103.075 215.035 104.516 218.404 107.161 217.255C104.976 224.34 102.194 231.136 97.8772 237.115C93.9411 242.567 88.4151 246.276 82.2111 248.165C75.4086 250.237 68.3184 250.004 61.3648 249.057C57.8271 248.574 54.305 247.87 50.86 246.891C49.1191 246.396 47.3782 245.915 45.672 245.297C44.3786 244.83 41.8869 244.412 41.1149 243.089C40.6148 242.232 40.6372 240.866 40.5477 239.912C40.4682 239.065 40.4168 238.218 40.4067 237.367C40.4033 237.044 40.4201 236.72 40.4279 236.397C40.6204 236.428 40.8117 236.461 41.003 236.491Z" fill="#064C1A"/>
<path d="M99.8145 215.719C101.2 215.941 102.59 216.132 103.992 216.246C103.107 216.424 102.218 216.584 101.313 216.698C100.701 216.775 100.089 216.826 99.4766 216.868C99.6052 216.493 99.7149 216.109 99.8145 215.719Z" fill="#064C1A"/>
<path d="M75.1527 203.601C75.024 203.799 74.8987 204.001 74.7734 204.202C74.7768 204.188 74.7813 204.174 74.7846 204.16C74.8495 203.914 74.911 203.665 74.9715 203.418C75.0319 203.48 75.0923 203.54 75.1527 203.601Z" fill="#E5E3DC"/>
<path d="M199.686 191.616C199.717 191.405 199.743 191.192 199.771 190.98C200.218 191.114 200.655 191.267 201.082 191.445C201.425 192.339 201.867 193.222 202.096 194.072C202.487 195.525 202.513 197.012 202.174 198.481C201.39 201.876 199.233 205.219 196.495 207.187C196.247 207.366 195.962 207.544 195.668 207.728C195.413 207.573 195.131 207.45 194.864 207.31C194.43 207.082 193.997 206.855 193.562 206.626C194.964 204.72 196.175 202.658 197.125 200.46C198.343 197.644 199.238 194.679 199.686 191.616Z" fill="#064C1A"/>
<path d="M198.296 75.2169C196.556 75.6365 194.739 75.8793 192.954 75.8793C191.138 75.8804 189.325 75.7193 187.517 75.5649C186.293 75.4597 184.09 75.3456 183.699 73.7669C183.126 71.4621 186.227 70.7091 187.695 70.5603C187.742 70.5558 187.789 70.5514 187.836 70.5469C187.925 70.6051 188.032 70.6409 188.158 70.6375C191.772 70.5648 195.318 70.8255 198.678 72.3918C199.265 72.666 201.026 73.3406 200.738 74.1865C200.511 74.8466 198.898 75.0715 198.296 75.2169Z" fill="#AD4040"/>
<path d="M174.492 74.4821C174.039 74.4496 173.557 74.2639 173.111 74.2706C173.015 74.2203 172.939 74.1834 172.879 74.1599C172.936 73.9988 173 73.8399 173.078 73.6877C173.215 73.3968 173.542 72.9437 173.797 72.4727C174.536 73.1384 175.277 73.7996 176.018 74.462C175.512 74.5112 175.002 74.519 174.492 74.4821Z" fill="#E5E3DC"/>
<path d="M236.081 76.797C235.991 76.7075 235.943 75.8091 235.945 75.3984C236.029 75.4063 236.129 75.413 236.255 75.4163C236.494 75.4689 236.73 75.526 236.966 75.5864C237.517 75.7251 238.07 75.8583 238.623 75.9903C238.822 76.0384 239.021 76.0888 239.219 76.1402C238.708 76.345 238.192 76.5329 237.671 76.6784C237.235 76.8015 236.418 77.1304 236.081 76.797Z" fill="#E5E3DC"/>
<path d="M220.184 74.3711C220.381 74.3577 220.555 74.2693 220.69 74.1406C221.165 74.2245 221.637 74.3353 222.109 74.483C222.825 74.7079 224.481 75.0995 224.931 75.8167C225.657 76.9769 222.951 77.2723 222.466 77.3562C221.306 77.5587 220.124 77.6113 218.951 77.5397C218.074 77.486 216.443 77.43 215.775 76.6849C214.985 75.8032 215.714 74.7627 216.604 74.3912C217.72 73.9247 219.033 74.4494 220.184 74.3711Z" fill="#AD4040"/>
<path d="M214.254 72.8275C212.917 73.0938 211.587 73.0535 210.364 72.5959C211.793 72.1909 213.18 71.6975 214.565 71.1392C214.795 71.0463 214.786 70.61 214.503 70.648C213.496 70.7823 212.505 70.9266 211.507 71.1235C210.978 71.2276 210.457 71.3529 209.936 71.4872C209.725 71.5409 209.516 71.6214 209.32 71.6718C210.105 70.3728 211.298 69.3446 212.586 68.6374C214.098 67.8061 216.522 67.503 217.81 68.9988C219.761 71.2645 215.647 72.5501 214.254 72.8275Z" fill="#E5E3DC"/>
<path d="M188.67 85.2688C188.705 85.2532 188.738 85.2386 188.773 85.223C188.849 85.2017 188.925 85.2017 189.001 85.223L189.074 85.233C189.122 85.2442 189.168 85.2744 189.214 85.2957C189.253 85.3136 189.291 85.3304 189.33 85.3483C189.42 85.3886 189.509 85.5273 189.531 85.6235C189.553 85.7265 189.547 85.826 189.508 85.9234C189.427 86.1292 189.204 86.2557 188.995 86.1897C188.881 86.1539 188.772 86.1192 188.67 86.052C188.489 85.9312 188.411 85.6962 188.495 85.4848C188.53 85.3986 188.59 85.3136 188.67 85.2688Z" fill="#064C1A"/>
<path d="M202.838 74.0474C202.803 72.1062 201.005 71.1887 199.552 70.542C196.849 69.3382 193.802 68.6613 190.835 68.8593C189.452 68.6188 187.826 68.7821 186.788 68.9578C185.085 69.2453 183.277 70.0117 182.549 71.7985C181.22 75.0622 184.432 76.6845 186.932 77.0481C191.003 77.64 195.508 78.1479 199.531 77.0291C200.982 76.6241 202.873 75.9908 202.838 74.0474ZM200.737 74.1828C200.512 74.8429 198.899 75.0678 198.297 75.2132C196.557 75.6328 194.74 75.8756 192.954 75.8756C191.138 75.8767 189.326 75.7156 187.518 75.5612C186.294 75.456 184.091 75.3419 183.699 73.7632C183.126 71.4584 186.228 70.7054 187.696 70.5566C187.743 70.5521 187.79 70.5477 187.837 70.5432C187.925 70.6014 188.033 70.6372 188.159 70.6338C191.773 70.5611 195.318 70.8218 198.678 72.3881C199.265 72.6623 201.026 73.3369 200.737 74.1828Z" fill="#064C1A"/>
<path d="M195.476 85.7062C199.937 85.8897 204.378 86.288 208.845 86.3876C213.398 86.4894 217.947 86.6393 222.501 86.6517C226.83 86.6628 231.167 86.6282 235.494 86.4368C239.567 86.2567 243.336 85.5339 247.071 83.7606C247.296 83.6543 247.578 83.9519 247.358 84.1533C244.525 86.7356 240.682 87.3532 237.067 87.6676C232.683 88.0491 228.236 87.9764 223.84 87.9741C219.202 87.9719 214.548 87.9394 209.916 87.6843C205.117 87.4192 200.252 87.2402 195.476 86.6863C194.898 86.6203 194.869 85.6816 195.476 85.7062Z" fill="#064C1A"/>
<path d="M65.9509 155.003C66.1859 154.872 66.394 154.913 66.6469 154.954C66.9031 154.995 67.1593 155.037 67.4144 155.078C67.712 155.126 67.6381 155.637 67.3439 155.629C67.1 155.622 66.8561 155.615 66.6122 155.609C66.3761 155.602 66.1467 155.613 65.9509 155.454C65.8156 155.342 65.7708 155.104 65.9509 155.003Z" fill="#064C1A"/>
<path d="M242.23 76.0779C242.127 76.0152 241.996 75.9369 241.846 75.8474C241.811 75.8038 241.771 75.7601 241.72 75.7131C241.56 75.5666 241.339 75.4401 241.114 75.4222C238.747 74.083 234.203 71.8867 234.154 75.2052C234.135 76.4527 234.013 78.9365 235.703 78.9757C236.508 78.9936 237.334 78.5225 238.09 78.2921C239.166 77.9631 240.249 77.6946 241.317 77.3321C241.511 77.2661 241.725 77.1206 241.85 76.926C241.863 76.9304 241.875 76.9338 241.886 76.9371C242.375 77.1027 242.66 76.3375 242.23 76.0779ZM239.22 76.1484C238.709 76.3531 238.193 76.5411 237.671 76.6865C237.235 76.8085 236.417 77.1374 236.08 76.804C235.991 76.7145 235.943 75.8161 235.945 75.4055C236.029 75.4133 236.128 75.42 236.255 75.4234C236.493 75.4759 236.729 75.533 236.965 75.5934C237.517 75.7322 238.07 75.8653 238.622 75.9973C238.823 76.0466 239.022 76.098 239.22 76.1484Z" fill="#064C1A"/>
<path d="M177.996 85.2373C178.067 85.3313 178.138 85.4253 178.209 85.5192C178.286 85.6222 178.34 85.7452 178.299 85.8795C178.272 85.9712 178.219 86.0507 178.138 86.101C177.954 86.2152 177.67 86.1167 177.624 85.8795C177.6 85.7564 177.577 85.6334 177.553 85.5092C177.531 85.3906 177.567 85.2529 177.675 85.1925C177.771 85.1388 177.921 85.1377 177.996 85.2373Z" fill="#064C1A"/>
<path d="M247.071 72.5882C244.393 71.2635 241.411 70.6135 238.556 69.865C235.255 68.999 231.935 68.2292 228.606 67.493C222.023 66.0352 215.375 64.9275 208.693 64.1164C207.534 63.9754 206.375 63.8478 205.216 63.7259C203.999 61.9872 202.363 60.4824 200.633 61.2588C199.699 61.6784 199.202 62.3598 199 63.1598C196.052 62.9315 193.102 62.7614 190.15 62.6552C190.534 61.5039 190.582 60.2843 190.025 59.1039C188.743 56.3885 185.103 59.2852 183.895 60.6759C183.394 61.2521 182.952 61.8843 182.551 62.5455L180.763 62.475C180.451 61.0754 179.934 59.7361 179.319 58.6049C177.897 55.9891 174.38 51.8606 171.084 52.9928C169.452 53.5534 169.206 55.5315 169.342 57.099C169.517 59.1039 170.394 60.865 171.429 62.5187C171.488 62.6138 171.549 62.71 171.61 62.8062C170.308 62.8744 169.005 62.9516 167.702 63.0456C160.997 63.5301 154.067 64.0269 147.497 65.5999C145.741 66.0206 144.008 66.6002 142.391 67.3845C139.535 68.6253 137.008 70.4781 135.562 73.5034C135.494 73.6232 135.429 73.744 135.364 73.8671C135.316 73.6455 135.267 73.4251 135.212 73.2047C134.517 70.3841 133.413 67.8623 133.234 64.913C133.064 62.1024 132.934 59.2874 132.785 56.4758C132.557 52.1571 132.056 47.8003 131.023 43.6572C131.117 43.6259 131.212 43.5968 131.306 43.5643C138.151 41.198 145.512 36.8535 147.066 28.7386C147.731 25.2668 147.161 21.5623 144.916 18.8435C143.008 16.5342 139.966 15.082 137.053 15.3639C133.255 15.7309 131.406 19.1635 128.472 21.2289C124.754 23.8459 120.516 24.1804 116.206 23.3648C112.036 22.5749 107.981 21.2938 103.776 20.6751C100.342 20.1705 96.8747 19.9187 93.4097 20.0004C92.4519 15.5317 90.6204 11.3282 88.8202 7.1628C88.3256 6.0171 87.8199 4.877 87.3042 3.7425C86.8812 2.8105 86.4975 1.77557 85.7814 1.04049C84.4802 -0.294287 82.4987 -0.00898343 80.8507 0.109614C67.5711 1.07182 54.5903 7.65062 45.5042 17.9384C43.205 20.5408 41.1228 23.3883 39.3539 26.4203C37.4149 29.7433 35.7255 33.5183 35.9146 37.5148C35.9996 39.3183 36.5244 40.9138 37.8703 42.0953C39.3438 43.3887 41.021 44.4728 42.5862 45.6375C45.9831 48.165 49.2747 50.9095 52.7878 53.2591C52.7778 53.3699 52.7666 53.4806 52.7588 53.5914C52.5037 56.9849 52.6569 60.3235 54.5724 63.1161C54.0645 63.3701 53.5688 63.6811 53.0899 64.0705C50.3611 66.2892 49.1606 70.0395 49.6003 73.5952C50.0254 77.0323 52.0192 80.1035 54.8935 81.7605C57.5228 83.2765 60.9476 83.7386 63.7145 82.4218C63.1237 91.4777 68.1921 99.5546 75.1927 104.335C75.1748 104.387 75.1591 104.442 75.1468 104.499C74.4621 107.591 73.8344 110.706 73.3768 113.846C72.9281 116.916 72.7626 119.97 72.4526 123.051C71.4591 122.777 70.4589 122.569 69.5492 122.368C67.0162 121.807 64.4227 121.547 61.8359 121.521C56.47 121.467 51.1823 122.603 46.2146 124.733C46.1889 124.744 46.1665 124.757 46.1419 124.769C44.3294 123.634 42.3468 122.812 40.2557 122.396C33.9678 121.143 28.1286 123.125 23.2314 127.393C20.8885 129.433 18.662 131.99 17.4201 134.958C16.7097 136.655 16.4904 139.671 18.3566 140.571C17.0968 142.274 16.1469 144.203 15.3514 146.29C13.9461 149.975 12.9492 153.914 12.1414 157.79C11.6704 160.05 11.3034 162.378 11.1099 164.714C9.6878 164.204 7.59109 163.423 6.37603 164.752C5.30641 165.921 5.21579 168.348 5.28851 169.86C5.3713 171.61 6.08177 173.124 7.60116 173.915C8.53763 174.403 10.2853 174.84 11.5574 174.675C11.9702 176.675 12.6539 178.604 13.7884 180.203C15.4342 182.521 18.1149 183.726 20.7375 182.962C21.1571 183.862 21.6561 184.714 22.2558 185.459C23.4026 186.884 25.0204 187.91 26.8385 187.653C27.8824 187.507 28.9285 186.953 29.4085 185.999C29.7375 186.419 30.1324 186.769 30.6225 186.993C31.9953 187.624 33.791 187.144 34.8371 186.051C36.088 184.744 36.4762 182.847 36.6161 181.061C36.6564 180.546 36.6754 180.032 36.6843 179.518C39.3752 180.004 42.0738 180.444 44.7725 180.877C43.9154 188.481 51.5739 194.856 58.137 195.761C61.8102 196.266 65.3435 194.717 68.1809 192.207C68.229 192.532 68.4315 192.821 68.8388 192.924C69.3031 193.042 69.7685 193.156 70.2351 193.268C70.225 193.335 70.2127 193.4 70.2116 193.472C70.1232 196.742 71.6236 199.529 73.5939 201.9C73.3858 202.255 73.2582 202.689 73.1127 203.127C72.6372 204.551 72.1416 205.965 71.5822 207.356C70.526 209.98 69.302 212.529 68.0869 215.073C66.8327 217.701 65.6187 220.349 64.4014 222.995C64.3254 223.16 64.2493 223.325 64.1732 223.491C63.8364 223.328 63.4336 223.309 63.0633 223.481C62.3372 223.399 61.5898 223.348 60.8737 223.393C58.3664 222.72 55.7998 222.218 53.279 221.725C50.1105 221.107 46.9296 220.551 43.7252 220.194C43.5037 220.124 43.2833 220.054 43.0606 219.988C42.6523 219.866 42.3077 220.017 42.0604 220.298C41.991 220.001 41.906 219.704 41.793 219.405C40.1886 215.181 35.6371 211.827 31.3408 211.521C31.3911 211.375 31.4571 211.237 31.5321 211.102C31.7961 210.627 31.6988 210.02 31.2982 209.668C30.7433 209.18 30.1716 208.689 29.6043 208.267C28.321 207.314 27.7202 208.16 26.6886 209.256C24.2518 211.848 22.2166 215.069 20.4913 218.217C20.1523 218.836 19.7753 219.434 19.434 220.046C18.8936 221.015 19.1778 222.257 20.0572 222.889C20.9959 223.564 21.6695 224.272 20.6983 225.516C19.9968 226.415 19.0357 226.837 18.0668 227.304C14.3332 229.104 10.6959 230.626 8.00058 234.083C5.56486 237.208 3.75794 241.013 2.35938 244.76C1.71717 246.481 0.409239 249.562 1.05929 251.52C1.5057 252.865 2.8651 252.8 2.95908 251.436C3.7915 254.945 7.25879 256.525 10.4609 255.846C14.7819 254.928 17.2087 249.596 20.3414 246.624C22.2826 244.783 24.5829 243.072 27.2089 242.611C30.0049 242.12 31.6809 244.574 34.2934 244.595C35.7658 244.606 37.1766 243.666 37.7361 242.214C37.9084 241.766 37.9442 241.302 37.9039 240.832C38.197 240.937 38.4902 241.041 38.7844 241.144C38.8907 242.641 39.0843 244.187 40.2512 245.186C41.6229 246.362 43.535 247.209 45.1562 247.933C46.7707 248.654 48.4121 249.32 50.1015 249.816C53.9872 250.961 57.9994 251.82 61.9959 252.397C69.5425 253.486 77.455 253.342 84.7185 250.709C91.5602 248.23 97.0537 243.698 101.088 237.356C104.984 231.231 107.795 223.878 108.624 216.512C108.643 216.493 108.662 216.473 108.677 216.452C113.401 216.48 118.153 216.003 122.818 215.184C129.954 213.929 137.08 212.059 143.935 209.613C150.045 207.432 155.875 204.564 161.043 200.479C164.417 202.155 167.888 203.635 171.347 205.095C175.02 206.646 178.63 208.352 182.322 209.856C183.284 210.248 184.25 210.633 185.217 211.011C185.988 211.314 187.162 212.044 188.003 212.024C189.329 211.992 190.831 209.969 191.698 208.961C192.144 209.321 192.805 209.49 193.29 209.683C193.332 209.7 193.376 209.719 193.419 209.737C193.203 210.187 193.149 210.704 193.357 211.315C194.128 213.58 196.008 213.519 197.736 212.827C197.87 213.367 198.046 213.904 198.301 214.437C200.485 218.999 205.888 222.285 210.724 222.185C210.681 222.353 210.62 222.514 210.548 222.673C210.296 223.233 210.461 223.902 210.942 224.254C211.608 224.742 212.292 225.234 212.966 225.647C214.49 226.581 215.085 225.573 216.138 224.241C218.627 221.089 220.609 217.274 222.249 213.574C222.572 212.845 222.938 212.138 223.264 211.418C223.779 210.276 223.348 208.917 222.304 208.299C221.192 207.642 220.373 206.918 221.345 205.426C222.047 204.348 223.085 203.777 224.125 203.155C228.138 200.755 232.069 198.68 234.766 194.532C237.204 190.784 238.878 186.34 240.099 182.001C240.659 180.009 241.841 176.426 240.932 174.302C240.308 172.843 238.794 173.056 238.814 174.592C237.56 170.751 233.534 169.339 230.014 170.43C225.263 171.901 223.037 178.119 219.804 181.768C217.8 184.029 215.384 186.18 212.487 186.966C209.403 187.804 207.301 185.229 204.376 185.475C202.728 185.614 201.235 186.811 200.744 188.495C200.689 188.684 200.657 188.873 200.64 189.063C200.446 188.983 200.251 188.905 200.054 188.833C200.036 188.826 200.02 188.825 200.001 188.819C200.05 188.166 200.083 187.511 200.087 186.858C200.094 185.589 200.166 184.043 199.582 182.893C198.891 181.531 197.402 181.148 196.145 180.607C194.49 179.893 192.838 179.171 191.184 178.453L180.767 173.931C177.343 172.445 173.922 170.954 170.508 169.443C167.353 168.048 164.189 167.494 160.791 167.296C157.283 167.091 153.75 166.759 150.239 166.681C148.432 166.64 146.874 166.988 145.454 167.723C145.499 165.92 145.561 164.161 145.378 162.315C145.161 160.125 144.861 157.945 144.515 155.774C143.829 151.462 142.79 147.15 141.652 142.943C144.923 143.148 148.343 142.612 151.455 141.65C153.153 141.125 154.81 140.407 156.392 139.572C157.221 139.135 158.395 138.59 159.274 137.857C159.362 138.866 159.634 139.816 160.69 140.19C161.956 140.637 163.479 139.761 164.609 139.279C166.262 138.574 167.833 137.731 169.359 136.758C170.492 136.037 171.92 135.302 172.654 134.091C173.546 132.62 173.699 130.594 173.521 128.615C173.564 128.593 173.607 128.568 173.65 128.539C177.482 125.948 181.322 123.314 184.826 120.236C186.52 118.749 188.154 117.138 189.559 115.344C190.705 113.879 192.036 112.346 192.861 110.612C198.571 110.5 204.404 105.709 205.667 99.9238C205.766 99.4684 205.192 99.21 204.957 99.6072C203.278 102.455 201.193 104.886 198.371 106.489C195.217 108.282 191.697 108.226 188.218 108.219C187.648 108.218 187.405 109.078 187.922 109.375C188.928 109.953 189.99 110.312 191.076 110.487C190.025 111.741 189.06 113.095 187.9 114.247C186.393 115.744 184.857 117.192 183.245 118.564C180.03 121.298 176.592 123.703 173.118 126.047C172.997 125.493 172.864 124.967 172.728 124.49C171.157 119.027 167.646 114.922 163.696 111.302C167.062 109.408 170.118 107.064 172.863 104.265C173.957 105.439 175.477 106.533 176.85 106.283C177.024 106.252 177.085 106.016 177.007 105.872C176.656 105.205 175.953 104.739 175.424 104.224C174.832 103.645 174.276 103.012 173.755 102.362C172.604 100.927 171.673 99.22 171.537 97.3203C180.32 98.2265 189.137 98.7434 197.962 98.8587C204.972 98.9504 211.985 98.7982 218.983 98.3641C222.483 98.1471 225.979 97.8685 229.47 97.525C232.715 97.2061 235.999 96.9275 239.183 96.16C244.405 94.9002 249.894 91.6947 251.989 86.171C254.026 80.8095 252.028 75.0396 247.071 72.5882ZM9.76164 172.664C8.54658 172.434 7.91443 171.79 7.5743 170.495C7.31138 169.493 7.26773 167.714 7.63807 166.697C8.08225 165.476 10.0067 166.187 11.0103 166.239C10.9543 167.412 10.9442 168.586 10.9946 169.751C11.0382 170.761 11.1188 171.809 11.2553 172.859C10.7719 172.773 10.2595 172.758 9.76164 172.664ZM38.7352 233.8C38.5976 235.632 38.5841 237.481 38.6714 239.318C38.2597 239.013 37.7998 238.754 37.321 238.528C37.1666 238.057 37.0211 237.593 36.9395 237.144C36.6989 235.823 36.7839 234.503 37.1912 233.227C37.6499 231.793 38.4007 230.399 39.3438 229.168C39.0585 230.693 38.8527 232.237 38.7352 233.8ZM217.809 68.9968C219.762 71.2624 215.648 72.5491 214.255 72.8254C212.918 73.0917 211.587 73.0514 210.365 72.5938C211.793 72.1888 213.181 71.6954 214.566 71.1371C214.795 71.0442 214.786 70.6079 214.503 70.6459C213.496 70.7802 212.505 70.9245 211.507 71.1214C210.979 71.2255 210.457 71.3508 209.936 71.4851C209.726 71.5388 209.516 71.6193 209.321 71.6697C210.105 70.3707 211.299 69.3425 212.587 68.6354C214.097 67.8052 216.522 67.502 217.809 68.9968ZM220.183 74.3739C220.38 74.3605 220.554 74.2721 220.689 74.1434C221.164 74.2273 221.636 74.3381 222.108 74.4858C222.824 74.7107 224.48 75.1023 224.93 75.8195C225.656 76.9797 222.95 77.2751 222.465 77.359C221.305 77.5615 220.123 77.6141 218.951 77.5425C218.073 77.4888 216.442 77.4328 215.774 76.6877C214.984 75.806 215.713 74.7655 216.603 74.3941C217.72 73.9275 219.033 74.4522 220.183 74.3739ZM212.493 66.9023C210.86 67.6407 209.024 69.0874 208.313 70.8619C208.104 70.2073 207.961 69.3358 207.8 68.8983C207.518 68.133 207.213 67.3711 206.869 66.6349C206.808 66.504 206.741 66.3641 206.668 66.2164C208.614 66.4167 210.556 66.645 212.493 66.9023ZM200.731 62.7637C202.158 61.4155 204.052 64.1276 204.809 65.2453C205.63 66.4536 206.279 67.8063 206.756 69.2026C206.842 69.4544 206.914 69.7486 206.982 70.0608C206.272 69.413 205.56 68.7663 204.95 68.0379C204.714 67.756 204.337 68.1654 204.562 68.4485C205.153 69.1903 205.651 70.0328 206.152 70.8708C204.232 70.2845 202.566 69.1601 201.354 67.3095C200.618 66.1851 199.476 63.9497 200.731 62.7637ZM183.647 62.8655C184.34 61.8854 188.103 57.9694 188.809 60.4824C189.447 62.7514 186.861 65.1905 185.356 66.3384C184.565 66.9414 183.7 67.4561 182.771 67.7739C182.57 67.8421 182.371 67.8891 182.173 67.926C182.482 67.5948 182.774 67.2547 183.054 66.9817C183.908 66.1482 184.662 65.3269 185.166 64.2081C185.268 63.9832 185.003 63.7292 184.825 63.9295C184.023 64.8313 183.041 65.5384 182.098 66.2623C181.918 66.3999 181.715 66.5353 181.507 66.674C182.09 65.2967 182.888 63.9373 183.647 62.8655ZM170.994 58.229C170.632 56.5866 170.529 53.8431 172.864 54.4809C175.748 55.2697 177.97 58.2693 179.048 61.0686C179.845 63.134 179.987 65.0864 179.879 67.1507C179.351 66.2231 178.764 65.3393 178.202 64.4263C177.407 63.1318 176.696 61.778 175.894 60.4857C175.614 60.0359 174.932 60.451 175.208 60.9098C175.987 62.2009 176.816 63.5099 177.45 64.8906C177.873 65.8114 178.227 66.7669 178.599 67.7123C176.121 66.9437 174.305 64.6679 172.847 62.4549C172.003 61.1704 171.331 59.7618 170.994 58.229ZM157.877 68.1386C158.767 67.493 159.964 67.1954 160.998 66.9537C162.302 66.6483 163.598 66.5812 164.928 66.5879C165.671 66.5924 166.489 66.7199 167.269 66.702C168.323 67.6195 167.925 69.2317 166.605 70.0798C164.49 71.4414 161.144 71.4526 158.815 70.8932C157.371 70.5464 156.261 69.3123 157.877 68.1386ZM143.237 72.7617C143.584 70.9749 146.172 69.6569 147.496 68.8793C148.289 68.4138 149.106 67.9954 149.938 67.6172C151.964 67.2223 154.03 66.975 156.054 66.7591C155.143 67.7481 154.645 69.1579 155.124 70.5161C155.747 72.2828 157.745 72.7393 159.313 72.9519C162.404 73.3714 168.135 73.0145 169.267 69.1187C169.674 67.719 169.432 66.7322 168.823 66.0553C168.872 65.892 168.866 65.7152 168.789 65.5585C169.54 65.5071 170.291 65.4567 171.042 65.4131C171.827 65.384 172.613 65.3616 173.398 65.3381C175.101 67.4695 177.223 69.2921 179.84 69.5595C182.406 70.5553 185.513 68.4642 187.353 66.7333C187.822 66.2925 188.303 65.7756 188.742 65.2039C192.2 65.2665 195.656 65.3997 199.108 65.6011C199.421 66.7781 200.026 67.9249 200.613 68.7148C202.326 71.0219 205.122 72.7561 207.917 72.972C207.955 72.9753 207.991 72.9731 208.027 72.9709C209.683 74.2833 211.691 74.6413 213.681 74.422C213.472 74.9154 213.372 75.4916 213.423 76.1585C213.723 80.0476 219.475 79.7701 221.968 79.4378C223.48 79.2364 225.482 78.9835 226.562 77.6935C227.46 76.6194 227.125 75.2119 226.122 74.3851C224.724 73.2338 222.722 72.6308 221 72.3466C220.416 72.2503 219.679 72.1351 218.94 72.1206C219.724 71.2277 220.116 70.0742 219.523 68.7763C219.365 68.4295 219.16 68.1263 218.926 67.8578C224 68.6868 229.054 69.6781 234.056 70.8988C237.106 71.6439 240.165 72.4137 243.169 73.3446C244.211 73.6679 245.287 74.045 246.288 74.5563C246.967 75.0642 247.563 75.6528 248.047 76.333C248.129 77.2102 247.863 78.1657 247.37 78.9008C246.286 80.522 243.979 80.7625 242.265 80.8475C237.595 81.078 232.868 80.9963 228.191 81.031C211.206 81.1574 194.222 80.2277 177.267 79.2823C169.125 78.828 160.974 78.4241 152.946 76.8354C150.974 76.4449 148.986 76.0455 147.037 75.5476C145.794 75.2298 142.86 74.7029 143.237 72.7617ZM121.654 37.404C122.296 37.2921 122.938 37.0997 123.57 36.9352C124.789 36.6163 126.023 36.227 127.161 35.7067C130.85 34.0184 134.114 31.275 136.447 27.8066C136.971 27.0278 137.455 26.2066 138.114 25.5521C138.772 24.8976 139.647 24.4142 140.548 24.4937C141.915 24.6145 142.935 26.0287 143.108 27.4687C143.385 29.7768 142.255 32.0134 140.663 33.5071C140.042 34.0889 139.389 34.6315 138.707 35.1327C135.816 37.2585 132.426 38.6347 128.939 39.1024C127.651 39.2747 126.353 39.3441 125.056 39.3765C123.868 39.4067 122.693 39.494 121.509 39.3116C121.014 39.2344 119.474 39.0699 119.489 38.2621C119.5 37.5785 121.212 37.4812 121.654 37.404ZM49.334 17.7157C53.6661 13.275 58.6517 9.6332 64.1452 6.98938C69.7059 4.31311 75.77 2.68966 81.871 2.32044C82.8981 2.25779 83.9812 2.06647 84.6402 3.09357C85.081 3.77942 85.3786 4.59953 85.7187 5.34356C86.4963 7.04308 87.2504 8.75491 87.9799 10.4779C89.3438 13.6935 90.5667 16.9493 92.132 20.0452C92.0939 20.0474 92.0559 20.0485 92.0167 20.0508C90.0722 19.2071 87.8356 18.8547 85.8094 18.443C83.3938 17.9518 80.9603 17.5524 78.5168 17.2637C73.4831 16.6685 68.4103 16.5622 63.3676 17.1071C58.4526 17.6385 53.5878 18.7406 48.958 20.58C47.8213 21.032 46.5727 21.5836 45.3733 22.2661C46.6085 20.6683 47.9332 19.1512 49.334 17.7157ZM53.1201 50.8267C50.1709 48.4839 47.0392 46.3816 44.024 44.1405C43.1591 43.4972 42.2931 42.8539 41.4282 42.2094C40.588 41.584 39.3282 40.9496 38.7139 40.0568C37.679 38.553 38.4532 35.7078 38.8773 34.0933C39.6202 31.2593 41.0523 28.6401 42.6176 26.1999C44.9761 23.8772 48.4479 22.7941 51.4542 21.7469C55.8423 20.2174 60.4072 19.3078 65.0112 18.9341C69.6611 18.556 74.3524 18.6667 78.9911 19.1422C81.2937 19.3783 83.5851 19.7062 85.8642 20.1235C86.4102 20.2231 86.9607 20.3428 87.5145 20.4681C81.1237 21.3419 74.8324 23.4218 69.3646 27.0424C63.5108 30.9192 58.5488 36.5257 55.5782 43.147C54.4818 45.5917 53.608 48.1684 53.1201 50.8267ZM68.6195 93.9637C66.3494 90.2715 65 86.3232 65.2271 81.8735C65.2484 81.4696 65.0313 81.2335 64.7595 81.1552C64.6487 80.9874 64.4529 80.8789 64.2168 80.9315C60.7204 81.7023 57.0831 81.4998 54.5142 78.5449C52.3414 76.0455 51.2136 72.6442 52.1647 69.2977C53.2522 65.4735 56.7105 63.595 60.3132 64.3368C62.1604 64.7172 64.049 65.3572 65.2831 66.9448C66.3135 68.2684 66.892 70.185 66.9658 71.8878C66.9792 72.1855 67.3955 72.2638 67.4671 71.9594C67.5566 71.5779 67.6125 71.2009 67.6394 70.8272C68.4986 72.727 70.3873 74.0159 72.2412 72.5435C74.5852 70.6828 74.0078 66.5431 73.9161 63.8434C73.8053 60.5808 73.5312 57.3183 73.1843 54.0736C74.198 54.7438 75.2676 55.3144 76.4167 55.6825C79.3167 56.6101 82.925 55.866 84.6514 53.023C86.4919 49.991 84.7744 46.6647 85.0508 43.4222C85.2499 41.0917 87.2449 39.9169 89.3225 40.2168C91.3275 40.5054 93.1825 41.7608 95.0443 42.5585C98.9177 44.22 103.065 45.3209 107.203 45.9296C110.352 46.3928 113.564 46.5315 116.771 46.3726C114.54 49.0131 113.917 53.2434 114.656 56.5754C114.696 56.7533 114.935 56.7376 114.982 56.5754C116.048 52.8955 115.867 48.6886 119.293 46.3223C119.376 46.2652 119.457 46.2138 119.539 46.1623C120.775 46.0347 122.008 45.8591 123.232 45.6431C125.017 46.2887 126.52 48.1326 127.877 49.8108C127.913 49.8545 127.966 49.7985 127.946 49.7538C127.22 48.0744 126.184 46.4308 124.876 45.3276C126.205 45.0502 127.522 44.7223 128.823 44.343C129.863 47.9737 130.888 52.957 131.09 57.3172C131.224 60.2116 131.287 63.1228 131.515 66.0117C131.623 67.3722 131.75 68.7417 132.1 70.0596C132.434 71.3128 132.906 72.52 133.218 73.7809C135.361 82.443 131.947 91.481 126.147 97.6458C120.214 103.953 111.864 107.261 103.578 107.929C94.9358 108.626 85.4099 107.141 77.7671 102.634C74.0559 100.442 70.9579 97.7656 68.6195 93.9637ZM131.466 116.803C131.416 117.37 131.26 117.923 131.036 118.459C130.989 118.52 130.956 118.594 130.94 118.678C130.425 119.813 129.634 120.875 128.954 121.841C127.744 123.558 126.339 125.045 124.866 126.492C124.701 126.326 124.538 126.16 124.376 125.993C124.848 125.123 125.108 124.09 125.288 123.153C125.713 120.942 125.96 118.65 125.895 116.393C125.806 113.302 125.007 106.942 121.106 106.684C119.254 106.562 117.418 108.264 116.202 109.566C115.581 110.231 114.989 110.969 114.482 111.765C114.636 110.735 114.761 109.7 114.759 108.664C118.905 107.155 122.788 104.918 126.126 101.9C126.878 104.005 127.944 106.01 128.777 108.078C129.727 110.433 130.669 112.864 131.341 115.327C131.412 115.591 131.451 115.852 131.47 116.11C131.404 116.339 131.399 116.583 131.466 116.803ZM112.63 112.933C110.675 112.553 108.597 113.545 107.371 115.2C106.633 113.748 105.906 112.253 105.058 110.864C105.39 110.829 105.723 110.792 106.053 110.751C108.544 110.438 111.012 109.899 113.407 109.129C113.055 110.368 112.86 111.659 112.63 112.933ZM113.577 119.647C113.531 120.91 113.328 122.116 112.822 123.266C111.733 125.739 108.615 126.571 107.694 123.423C107.349 122.244 107.246 120.872 107.334 119.642C107.366 119.185 107.529 118.737 107.683 118.294C107.713 118.264 107.741 118.229 107.766 118.193C108.685 116.844 111.66 114.483 113.09 116.441C113.703 117.278 113.613 118.661 113.577 119.647ZM105.891 121.032C105.974 122.164 106.124 123.432 106.566 124.527C104.766 126.509 103.272 131.136 100.133 129.364C97.5818 127.924 96.8982 123.926 96.3858 121.208C96.077 119.57 95.8499 117.885 95.8174 116.212C95.7805 114.329 96.4742 113 98.4377 113.486C99.8397 113.834 101.247 114.635 102.528 115.319C103.771 115.983 104.992 116.681 106.177 117.454C105.78 118.588 105.832 120.212 105.891 121.032ZM107.87 126.373C109.998 128.105 113.27 126.913 114.766 124.71C115.618 125.678 116.867 126.431 117.906 126.96C116.33 130.42 114.508 133.755 112.458 136.926C111.232 135.634 110.014 134.332 108.817 133.008C108.063 132.174 107.315 131.335 106.572 130.491C106.261 130.136 105.972 129.757 105.657 129.413C106.47 128.504 107.286 127.435 107.87 126.373ZM115.477 123.257C116.028 121.718 116.166 119.971 116.138 118.361C116.114 116.968 115.925 115.508 115.116 114.433C116.567 112.551 118.032 110.594 120.091 109.431C122.889 107.847 123.565 115.006 123.602 116.642C123.639 118.28 123.508 119.92 123.264 121.536C123.072 122.8 122.874 124.145 122.17 125.216C121.172 126.732 119.227 126.061 117.91 125.353C116.933 124.826 116.262 123.971 115.477 123.257ZM75.8349 113.995C76.3294 111.229 76.862 108.475 77.4762 105.736C77.7123 105.866 77.9506 105.995 78.19 106.118C85.8161 110.03 94.9347 111.612 103.46 111.005C103.991 112.404 104.65 113.763 105.319 115.104C104.049 114.147 102.736 113.253 101.349 112.498C99.8397 111.678 98.0641 110.865 96.3422 111.364C92.4273 112.497 93.8035 118.848 94.3406 121.806C94.9089 124.94 95.8398 129.19 98.6056 130.973C98.2509 131.553 98.0193 132.215 97.8694 132.895C89.9457 129.674 82.0982 126.254 74.3905 122.49C74.7317 119.652 75.3336 116.802 75.8349 113.995ZM61.6021 123.922C64.096 123.813 66.5932 123.955 69.0715 124.27C71.3282 124.556 74.339 125.552 76.6561 127.137C77.0399 131.82 76.3977 136.679 73.8489 140.612C72.5007 142.692 70.5942 144.344 68.4438 145.418C67.6282 145.825 66.7902 146.119 65.9253 146.34C63.9964 144.951 59.69 145.503 57.7577 145.648C57.1692 145.691 56.5002 145.762 55.8982 145.961C57.1547 138.738 53.957 131.198 48.5844 126.569C52.7643 124.995 57.1648 124.114 61.6021 123.922ZM41.8769 162.921C40.5969 161.594 39.4076 160.402 39.2588 158.446C39.2756 158.416 39.2857 158.389 39.2845 158.367C39.2129 157.597 39.3897 156.566 39.8384 155.513C39.8596 155.53 39.8775 155.549 39.8999 155.565C45.2838 159.193 52.0572 155.925 54.616 150.182C54.8376 149.685 55.0323 149.183 55.2046 148.677C55.312 148.667 55.4194 148.642 55.5212 148.592C56.7228 148.021 57.6671 147.757 59.0288 147.691C59.5468 147.666 60.0648 147.678 60.5817 147.695C60.3054 151.662 60.7909 155.793 61.0539 159.785C59.6878 159.55 58.2769 159.513 56.8481 159.706C51.678 160.401 46.1173 164.16 44.9828 169.849C44.9168 169.837 44.8508 169.823 44.7837 169.811C43.9837 169.662 43.1826 169.515 42.3837 169.364C43.0271 168.898 43.4724 168.17 43.5887 167.22C43.7991 165.506 42.9935 164.079 41.8769 162.921ZM40.946 153.642C40.9695 153.611 40.9908 153.581 41.0154 153.552C42.123 152.185 43.4914 151.425 45.0712 150.685C45.1629 151.939 44.9134 153.322 43.8483 154.041C43.4164 154.333 42.8626 154.522 42.3423 154.504C42.0011 154.399 41.6632 154.264 41.3309 154.097C41.2481 154.018 41.1709 153.927 41.1027 153.821C41.0557 153.746 41.002 153.69 40.946 153.642ZM19.3658 135.901C19.7205 134.505 20.827 133.529 21.7366 132.551C23.7035 130.438 25.8092 128.539 28.2561 127.068C32.5905 124.461 37.7965 123.927 42.4979 125.728C46.839 127.39 50.2917 131.054 52.1803 135.472C54.0521 139.851 54.4415 145.385 52.1814 149.693C50.9921 151.961 48.8506 153.761 46.4843 154.471C48.308 151.551 46.9195 147.433 45.3699 144.716C42.1767 139.115 35.7971 134.885 29.5842 134.603C26.3686 134.458 23.4115 135.71 20.9243 137.812C20.5394 138.137 20.1781 138.478 19.8335 138.83C19.2047 138.067 19.1252 136.848 19.3658 135.901ZM34.5697 174.398C34.6111 176.986 34.9054 179.787 34.3583 182.333C34.0942 183.561 33.4621 184.796 32.3007 185.304C30.91 185.912 29.997 184.637 29.5607 183.388C29.0785 182.007 28.8525 180.454 28.8234 178.988C28.801 177.852 29.0471 176.651 28.5358 175.616C28.406 175.354 27.9798 175.266 27.7929 175.515C26.5499 177.178 27.3924 180.403 27.8813 182.259C28.0793 183.012 28.3065 183.868 28.6421 184.656C27.6911 185.686 26.6215 186.334 25.2576 185.636C24.0112 184.998 23.2113 183.572 22.6071 182.315C21.9168 180.881 21.4479 179.322 21.1973 177.735C20.9579 176.219 21.0161 174.745 20.4992 173.293C20.3716 172.935 19.9073 172.819 19.7037 173.183C18.6441 175.083 19.0424 177.429 19.5381 179.477C19.716 180.212 19.9398 180.957 20.2094 181.689C17.2232 182.028 15.0907 178.741 14.2661 176.001C13.3039 172.803 13.1148 169.39 13.3464 166.06C13.5668 162.889 14.2985 159.754 15.0728 156.691C15.8112 153.767 16.6045 150.824 17.6338 147.999C19.3915 143.172 22.6015 137.815 27.8958 137.154C32.9183 136.529 38.338 139.617 41.6531 143.448C42.7999 144.774 43.8584 146.387 44.4927 148.126C39.6728 150.478 36.6239 154.972 37.6589 159.395C37.6656 159.425 37.6924 159.437 37.7282 159.441C37.8211 160.146 38.0079 160.827 38.3022 161.444C39.1201 163.165 41.539 164.461 41.6151 166.513C41.6833 168.33 39.8227 167.648 38.7184 167.709C37.8603 167.756 37.0938 168.069 36.4326 168.646C34.8092 170.061 34.5362 172.306 34.5697 174.398ZM36.6709 177.247C36.6418 176.053 36.5971 174.859 36.6105 173.663C36.6239 172.523 36.766 171.243 37.5917 170.414C37.7551 170.25 37.9285 170.135 38.1086 170.052C38.6658 170.372 39.3114 170.476 39.9626 170.65C40.974 170.922 42.0056 171.131 43.0237 171.373C45.0634 171.856 47.0997 172.359 49.1471 172.809C51.1454 173.248 53.1783 173.498 55.1688 173.972C57.0092 174.411 59.2201 175.176 59.8265 177.312C60.622 180.11 57.5094 180.91 55.5704 180.734C53.42 180.539 51.2606 179.995 49.136 179.598C44.9806 178.821 40.8386 177.959 36.6709 177.247ZM56.715 192.858C51.848 191.422 46.5469 186.893 46.5369 181.153C48.3796 181.448 50.2235 181.745 52.064 182.056C54.2222 182.422 56.5863 183.039 58.702 182.151C60.2516 181.501 61.5103 180.099 61.5462 178.26C61.6424 173.23 55.9385 172.343 52.4779 171.458C50.6307 170.986 48.7589 170.582 46.886 170.213C48.1368 168.171 49.5175 166.398 51.4934 164.961C53.6382 163.402 56.2372 162.283 58.8531 162.162C63.9248 161.929 68.5568 165.345 70.9523 169.926C73.4831 174.767 73.1642 180.535 70.5752 185.274C67.787 190.378 62.4737 194.558 56.715 192.858ZM97.8772 237.11C93.9411 242.562 88.4152 246.271 82.2112 248.159C75.4086 250.231 68.3185 249.999 61.3649 249.051C57.8271 248.569 54.305 247.864 50.8601 246.886C49.1192 246.391 47.3782 245.91 45.672 245.293C44.3786 244.825 41.887 244.408 41.115 243.084C40.6148 242.227 40.6372 240.861 40.5477 239.908C40.4683 239.061 40.4168 238.214 40.4067 237.362C40.3877 235.666 40.4839 233.961 40.6876 232.278C41.1027 228.854 42.0045 225.475 43.3583 222.332C46.4149 223.122 49.6103 223.447 52.7028 224.001C54.2793 224.283 55.8602 224.53 57.4467 224.735C57.8696 224.79 58.3205 224.822 58.7826 224.856C59.9798 225.11 61.1781 225.356 62.3786 225.575C62.58 225.676 62.7724 225.792 62.9537 225.928C62.9906 225.955 63.0275 225.976 63.0655 225.998C62.4054 227.601 61.8382 229.244 61.5182 230.94C61.4354 231.379 61.9478 231.81 62.2835 231.454C62.383 231.509 62.5028 231.505 62.5967 231.383C62.9906 230.871 63.2994 230.285 63.5802 229.68C64.642 228.055 65.5192 226.277 66.3449 224.511C67.504 222.033 68.6754 219.561 69.7987 217.063C70.3156 215.914 70.8303 214.764 71.3327 213.608C72.936 210.577 74.5974 207.562 76.0105 204.449C78.1744 206.513 80.5799 208.317 83.1074 209.828C89.6201 213.719 96.7248 215.652 103.991 216.243C103.26 216.39 102.525 216.518 101.782 216.625C102.225 216.715 102.618 216.941 102.881 217.439C103.102 217.858 103.175 218.213 103.14 218.516C104.534 218.212 105.896 217.797 107.161 217.248C104.976 224.335 102.194 231.13 97.8772 237.11ZM199.687 191.615C199.719 191.404 199.744 191.191 199.772 190.98C200.22 191.113 200.656 191.266 201.084 191.444C201.426 192.338 201.868 193.221 202.097 194.071C202.489 195.524 202.516 197.011 202.176 198.482C201.391 201.876 199.234 205.219 196.496 207.187C196.248 207.366 195.964 207.544 195.67 207.729C195.415 207.573 195.133 207.45 194.865 207.31C194.431 207.082 193.998 206.855 193.564 206.627C194.966 204.72 196.176 202.658 197.126 200.461C198.345 197.644 199.24 194.679 199.687 191.615ZM145.643 170.985C147.97 168.977 150.715 169.35 153.539 169.38C156.439 169.412 159.356 169.495 162.253 169.668C168.104 170.018 173.433 172.882 178.781 175.185C184.534 177.662 190.333 180.046 196.048 182.623C196.756 182.942 197.615 183.229 197.84 184.106C197.985 184.668 197.895 185.385 197.87 185.961C197.814 187.257 197.708 188.552 197.506 189.833C197.111 192.325 196.448 194.79 195.52 197.119C193.717 201.64 190.991 205.534 187.646 208.882C183.305 207.462 179.029 205.784 174.801 204.029C170.401 202.202 166.223 199.832 161.991 197.617C162.46 197.08 162.907 196.522 163.318 195.934C164.082 194.841 165.313 193.361 165.234 191.925C165.223 191.729 165.042 191.622 164.878 191.709C163.713 192.322 162.977 193.954 162.127 194.962C161.21 196.05 160.265 197.112 159.227 198.072C159.062 198.225 158.894 198.372 158.724 198.517C153.336 202.555 147.209 205.275 140.912 207.339C128.188 211.509 114.292 214.718 100.936 212.757C95.1584 211.909 89.449 210.157 84.3437 207.136C81.7301 205.59 79.3044 203.74 77.1395 201.548C75.0965 199.481 73.0803 196.932 72.8107 193.848C83.7037 196.208 94.9693 196.989 105.96 194.958C116.302 193.047 126.248 188.638 134.607 181.883C136.599 180.273 138.524 178.567 140.328 176.725C142.139 174.878 143.694 172.666 145.643 170.985ZM142.409 162.564C142.645 164.781 143.133 166.942 143.386 169.138C143.053 169.426 142.725 169.736 142.4 170.075C140.199 172.378 138.116 174.756 135.753 176.886C133.358 179.043 130.803 181 128.134 182.762C122.65 186.386 116.677 189.078 110.416 190.784C97.0448 194.427 82.8511 193.846 69.3993 191.02C70.9679 189.358 72.2568 187.411 73.1463 185.41C75.7901 179.462 75.497 172.452 71.8171 167.057C69.5694 163.762 66.3919 161.292 62.8037 160.2C62.5945 156.273 62.6102 152.184 61.9825 148.305C63.1013 148.513 64.1228 148.823 65.3457 148.665C66.7197 148.487 68.0623 148.023 69.3143 147.406C71.7276 146.219 73.8243 144.319 75.3639 142.029C78.4575 137.426 79.0023 131.372 77.436 126.075C84.2698 129.249 91.1988 132.191 98.2487 134.787C98.7365 134.967 99.2086 134.499 99.2221 134.003C99.2444 133.116 99.4335 132.312 99.579 131.465C99.7848 131.542 99.9985 131.611 100.221 131.663C101.402 131.942 102.511 131.829 103.507 131.303C103.978 131.879 104.518 132.415 104.992 132.971C105.698 133.799 106.425 134.608 107.171 135.397C108.719 137.034 110.342 138.601 112.07 140.023C112.484 140.364 113.004 140.344 113.312 139.854C115.709 136.028 118.403 132.051 120.127 127.817C121.145 128.048 122.193 128.024 123.108 127.429C123.136 127.412 123.162 127.39 123.189 127.371C123.531 127.748 123.87 128.129 124.205 128.517C124.569 128.942 125.137 128.835 125.512 128.517C127.478 126.851 129.162 124.767 130.607 122.59C130.912 122.131 131.244 121.641 131.567 121.126C132.037 122.272 132.656 123.398 133.099 124.459C133.983 126.578 134.806 128.725 135.572 130.896C136.992 134.914 138.185 139.026 139.203 143.179C140.25 147.45 140.966 151.732 141.607 156.084C141.926 158.237 142.179 160.399 142.409 162.564ZM155.823 137.577C154.24 138.383 152.589 139.008 150.901 139.522C147.637 140.515 144.399 140.772 141.03 140.724C139.961 137.04 138.724 133.415 137.349 129.846C136.581 127.855 135.771 125.882 134.912 123.933C134.263 122.462 133.632 120.508 132.644 119.13C132.856 118.635 133.019 118.128 133.117 117.616C136.709 118.284 140.344 118.447 143.976 117.968C146.856 117.589 150.315 117.181 152.372 114.812C152.538 115.124 152.714 115.426 152.867 115.716C154.588 118.968 156.16 122.245 157.273 125.791C158.298 129.06 158.962 132.374 159.17 135.798C158.006 136.115 156.847 137.056 155.823 137.577ZM163.99 113.517C166.781 116.739 169.315 120.241 170.604 124.36C171.025 125.706 171.334 127.096 171.425 128.512C171.51 129.827 171.609 131.619 170.954 132.78C170.292 133.952 168.538 134.64 167.41 135.228C166.217 135.849 164.989 136.417 163.754 136.936C163.347 137.107 162.051 137.888 161.643 137.736C161.379 137.638 161.405 136.671 161.36 136.334C161.189 135.035 160.963 133.75 160.704 132.468C160.147 129.722 159.55 127.015 158.649 124.368C157.781 121.817 156.724 119.331 155.476 116.963C155.096 116.24 154.691 115.543 154.248 114.863C154.013 114.502 153.217 113.671 153.206 113.221C153.194 112.691 153.803 111.998 154.217 111.866C154.493 111.779 154.906 111.796 155.184 111.808C155.852 111.836 156.463 112.05 157.054 112.368C159.516 113.696 161.193 116.263 162.56 118.737C163.944 121.241 165.099 123.952 166.066 126.663C166.19 127.012 166.664 126.878 166.595 126.509C165.855 122.49 164.268 118.97 162.167 115.551C161.154 113.904 159.923 112.015 158.332 110.885C158.554 110.548 158.79 110.218 159.176 110C159.989 109.54 160.677 110.285 161.293 110.949C161.37 111.436 161.774 111.891 162.285 111.919C162.852 112.45 163.42 112.983 163.99 113.517ZM171.902 103.063C171.912 103.078 171.924 103.093 171.935 103.109C168.878 105.708 165.548 107.968 162.045 109.829C161.649 109.485 161.25 109.145 160.85 108.807C160.729 108.672 160.606 108.542 160.478 108.421C159.374 107.388 157.275 108.589 156.565 110.029C156.009 109.881 155.416 109.831 154.783 109.909C153.611 110.053 152.232 110.789 151.827 112.05C151.682 112.498 151.692 112.939 151.786 113.368C151.753 113.39 151.719 113.416 151.688 113.446C149.483 115.593 145.524 115.81 142.694 115.994C139.471 116.202 136.243 115.998 133.074 115.355C132.627 112.91 131.427 110.433 130.508 108.201C129.515 105.788 128.501 103.202 127.017 101.062C127.782 100.315 128.516 99.5266 129.213 98.692C132.655 94.569 134.927 89.3351 135.7 83.8818C136.61 85.9427 137.968 87.8022 139.565 89.2265C144.136 93.3002 150.218 94.399 155.947 95.294C160.689 96.0347 165.447 96.6601 170.215 97.1737C169.497 99.0332 170.921 101.617 171.902 103.063ZM244.571 91.2707C239.17 94.1797 232.776 94.3497 226.855 94.8286C214.016 95.8691 201.108 96.1074 188.245 95.5032C181.854 95.2034 175.473 94.6954 169.113 93.9794C162.97 93.2879 156.703 92.6334 150.671 91.1845C145.622 89.9728 140.427 87.5942 138.224 82.2685C137.292 80.014 137.062 77.3657 138.091 75.1023C138.912 73.2942 140.365 71.9259 141.954 70.8484C141.673 71.2568 141.444 71.7021 141.293 72.1922C140.71 74.0875 141.612 75.8194 143.193 76.7436C145.217 77.9273 147.779 78.5561 150.011 79.1256C159.161 81.4607 168.714 81.7281 178.072 82.2483C188.072 82.8055 198.077 83.3806 208.089 83.6245C218.149 83.8695 228.334 84.1336 238.377 83.3291C241.671 83.0651 246.361 83.215 248.487 79.9525C248.777 79.5072 248.98 78.988 249.101 78.4431C249.349 78.809 249.848 78.8023 250.135 78.5528C252.175 83.4891 248.798 88.9938 244.571 91.2707Z" fill="#064C1A"/>
<path d="M73.8463 151.917C71.2349 153.771 66.7416 154.957 63.9994 152.877C63.6671 152.624 63.7901 152.111 64.2041 152.075C65.681 151.947 67.1556 152.184 68.6347 152.03C70.1921 151.869 71.7048 151.313 73.0586 150.492C75.6275 148.936 77.5072 146.361 78.3519 143.374C78.4447 143.046 78.8755 143.188 78.8263 143.512C78.3116 146.917 76.5673 149.985 73.8463 151.917Z" fill="#064C1A"/>
<path d="M115.601 168.502C115.426 168.645 115.25 168.789 115.075 168.933C114.669 169.181 114.232 169.307 113.763 169.309C113.405 169.323 113.072 169.244 112.761 169.072C112.438 168.961 112.159 168.771 111.924 168.502C111.67 168.253 111.491 167.958 111.385 167.617C111.222 167.289 111.148 166.936 111.162 166.558C111.193 166.314 111.223 166.07 111.255 165.826C111.378 165.359 111.601 164.955 111.924 164.612C112.099 164.469 112.275 164.326 112.449 164.182C112.856 163.933 113.293 163.809 113.762 163.806C114.12 163.792 114.453 163.871 114.763 164.044C115.085 164.154 115.365 164.345 115.6 164.612C115.854 164.861 116.033 165.156 116.138 165.497C116.301 165.825 116.376 166.178 116.362 166.556C116.331 166.8 116.301 167.044 116.269 167.288C116.147 167.755 115.924 168.16 115.601 168.502Z" fill="#064C1A"/>
<path d="M111.218 153.385C107.972 153.385 107.966 148.047 111.218 148.047C114.465 148.047 114.47 153.385 111.218 153.385Z" fill="#064C1A"/>
<path d="M119.216 116.522C118.894 116.643 118.564 116.733 118.244 116.859C117.913 116.988 117.622 117.194 117.304 117.353C116.862 117.574 116.312 116.972 116.741 116.581C117.399 115.985 118.367 115.687 119.216 115.827C119.579 115.888 119.498 116.417 119.216 116.522Z" fill="#064C1A"/>
<path d="M103.354 122.405C103.431 122.324 103.444 122.26 103.535 122.163C103.65 122.043 103.835 122.019 103.985 121.98C104.297 121.9 104.586 121.851 104.907 121.84C105.209 121.83 105.342 122.307 105.065 122.455C104.779 122.609 104.509 122.714 104.2 122.802C104.062 122.841 103.911 122.904 103.768 122.883C103.638 122.864 103.549 122.787 103.443 122.754C103.299 122.713 103.246 122.517 103.354 122.405Z" fill="#064C1A"/>
<path d="M63.6379 72.2962C63.3929 70.2957 61.8578 69.4957 60.3328 69.6613C59.9938 70.1827 60.0296 71.1617 60.1001 71.6808C60.1818 72.2772 60.4761 72.6844 60.805 73.1532C60.8923 73.2774 60.7994 73.4721 60.6696 73.5057C59.2756 73.8704 58.8157 71.3541 59.3751 69.8952C58.5919 70.1984 57.8915 70.7634 57.472 71.5566C56.8443 72.746 56.8667 74.1747 57.6969 75.2589C58.5237 76.3397 59.6873 76.5937 60.9169 76.8197C61.1261 76.8577 61.0836 77.162 60.9169 77.2247C57.1732 78.6277 54.5261 73.0313 56.3218 69.9645C58.4543 66.3227 64.9559 67.5601 64.3965 72.2951C64.3338 72.8109 63.7006 72.8097 63.6379 72.2962Z" fill="#064C1A"/>
<path d="M104.74 120.316C104.059 120.372 103.344 120.264 102.655 120.269C102.085 120.272 101.502 120.291 101.024 119.921C100.875 119.805 100.843 119.617 100.968 119.465C101.766 118.486 103.873 118.776 104.88 119.217C105.425 119.454 105.365 120.264 104.74 120.316Z" fill="#064C1A"/>
<path d="M178.089 74.2785C176.76 73.2358 175.426 72.2009 174.089 71.1693C174.006 70.9444 173.802 70.7643 173.417 70.6602C172.946 70.5338 172.566 70.7598 172.287 71.1469C171.472 72.2781 169.96 74.9275 171.785 75.8427C173.555 76.7299 176.132 76.2858 177.914 75.7095C178.563 75.4992 178.59 74.6713 178.089 74.2785ZM176.016 74.4542C175.509 74.5012 175 74.5101 174.491 74.4732C174.038 74.4408 173.556 74.255 173.11 74.2618C173.014 74.2114 172.938 74.1745 172.878 74.151C172.935 73.9899 172.999 73.831 173.077 73.6788C173.214 73.3879 173.541 72.9348 173.796 72.4638C174.534 73.1306 175.274 73.793 176.016 74.4542Z" fill="#064C1A"/>
<path d="M62.0934 165.358C63.605 165.196 65.0483 166.464 66.1851 167.387C67.5176 168.469 68.698 169.762 69.5975 171.268C71.2568 174.046 72.0791 178.562 70.0093 181.327C69.7184 181.715 69.1981 181.285 69.282 180.88C69.5964 179.356 70.0215 177.912 69.8918 176.329C69.7575 174.691 69.2249 173.145 68.4306 171.738C67.0231 169.243 64.6086 166.946 62.023 165.908C61.7388 165.794 61.7914 165.39 62.0934 165.358Z" fill="#064C1A"/>
<path d="M117.9 118.997C118.06 118.945 118.232 118.917 118.395 118.877C118.782 118.783 118.871 119.426 118.468 119.447C118.301 119.456 118.127 119.481 117.96 119.473C117.806 119.466 117.649 119.426 117.497 119.4C117.411 119.386 117.394 119.238 117.472 119.199C117.612 119.131 117.753 119.046 117.9 118.997Z" fill="#064C1A"/>
<path d="M130.654 70.3091C130.747 70.3584 130.886 70.2487 130.812 70.1413C130.075 69.0706 129.032 68.2583 127.857 67.7022C128.42 63.4775 128.516 59.0077 127.393 54.8825C126.597 51.9601 124.909 48.3507 121.571 48.3205C117.845 48.2858 117.02 52.5285 117.019 55.6478C117.018 59.8715 118.038 64.0861 119.608 67.9585C118.807 68.3881 118.041 68.9363 117.398 69.5852C117.308 69.432 117.223 69.2742 117.143 69.1131C116.537 67.8891 116.624 66.5118 116.126 65.2788C116.051 65.092 115.769 65.0741 115.651 65.2139C114.617 66.4323 115.139 68.4463 115.784 69.7408C116.022 70.2185 116.493 70.9357 117.057 71.5085C115.928 71.6853 114.832 72.1261 114.495 73.1656C114.441 73.3323 114.602 73.4475 114.739 73.424C115.464 73.2998 116.107 72.897 116.847 72.7885C117.585 72.6811 118.368 72.68 119.11 72.7684C119.82 72.8523 120.82 73.0525 121.327 73.6377C122.048 74.4701 121.717 75.4424 121.276 76.3039C119.82 79.1502 116.523 80.2377 114.226 82.1443C113.922 82.3971 114.192 82.9107 114.527 82.9129C118.628 82.9431 125.34 79.7343 123.709 74.3605C123.07 72.2582 121.037 71.4638 119.11 71.4045C119.05 71.4023 118.985 71.4011 118.921 71.4C118.8 71.2736 118.664 71.1572 118.526 71.0297C119.61 70.0462 120.749 69.178 122.297 68.7439C125.373 67.8857 127.946 68.8837 130.654 70.3091ZM119.346 56.591C119.713 55.7698 120.889 55.6825 121.342 56.4679C121.786 57.2377 121.48 58.7795 120.573 59.0167C119.259 59.3601 118.937 57.5085 119.346 56.591ZM124.659 60.7117L121.526 59.5761L124.2 58.1898C123.712 56.487 122.845 55.1041 121.343 54.5659C120.085 54.115 119.284 54.4607 118.803 55.2327C118.921 52.2745 119.672 48.7759 122.895 50.1454C125.772 51.3671 126.575 55.9566 126.862 58.8388C127.142 61.6616 126.956 64.4979 126.94 67.3274C126.201 67.0746 125.431 66.9179 124.664 66.8553C124.748 65.2688 124.883 62.936 124.659 60.7117Z" fill="#064C1A"/>
<path d="M103.142 51.9244C100.477 48.6294 97.3423 44.7907 92.9877 47.7981C88.9353 50.5975 89.1501 55.573 87.8881 59.9253C87.8321 60.1166 87.5491 60.1356 87.5032 59.9253C86.3631 54.7875 87.9574 47.8418 92.9363 45.6142C97.7876 43.4436 101.365 47.5565 103.224 51.8573C103.248 51.9099 103.185 51.977 103.142 51.9244Z" fill="#064C1A"/>
<path d="M121.153 87.0326C119.355 90.2001 115.765 92.1748 112.525 93.1896C108.724 94.3789 104.54 94.8612 100.594 94.4237C96.8925 94.0131 93.2204 92.7141 90.1794 90.416C87.9932 88.7635 85.9021 86.688 85.0596 84.0184C85.0473 84.3161 85.0249 84.5801 84.9678 84.9113C84.9108 85.238 84.546 85.3152 84.3077 85.1955C82.964 84.5197 83.3601 82.3917 84.4263 81.5872C85.0808 81.0938 85.8282 81.049 86.5779 81.3086C87.2469 81.5402 88.1398 81.9978 88.4307 82.7195C88.5045 82.903 88.4217 83.1223 88.2102 83.1256C87.4964 83.1368 86.6416 82.4297 85.8931 82.5673C87.6698 84.6271 89.3134 86.8447 91.5153 88.4211C94.3784 90.4708 97.6555 91.5762 101.075 91.9936C104.572 92.421 108.16 92.1245 111.583 91.2719C115.036 90.4126 117.865 88.9861 120.544 86.5336C120.865 86.2427 121.392 86.613 121.153 87.0326Z" fill="#064C1A"/>
<path d="M106.607 75.9671C105.736 74.7006 104.502 73.7395 103.112 73.0827C103.778 68.0849 103.891 62.7983 102.563 57.919C101.622 54.4629 99.6247 50.1934 95.6752 50.1565C91.268 50.1151 90.2924 55.1331 90.2924 58.8231C90.2913 63.8187 91.4985 68.8043 93.3547 73.3859C90.9928 74.6525 88.8804 76.7738 88.669 79.4982C88.6477 79.7779 88.971 79.8372 89.1355 79.7029C91.6104 77.68 93.3368 75.2152 96.5367 74.3179C100.174 73.2986 103.216 74.479 106.419 76.1651C106.531 76.2233 106.695 76.0946 106.607 75.9671ZM93.0459 59.9374C93.48 58.9663 94.8707 58.8633 95.4066 59.792C95.9314 60.7027 95.57 62.5253 94.497 62.8061C92.9418 63.2134 92.5603 61.0238 93.0459 59.9374ZM102.027 72.6385C101.153 72.3387 100.242 72.1541 99.3349 72.0802C99.4345 70.2039 99.5945 67.4437 99.3282 64.8133L95.6214 63.4707L98.7844 61.8305C98.2071 59.8166 97.1822 58.1809 95.4066 57.5442C93.9174 57.0105 92.9698 57.42 92.4014 58.333C92.5413 54.8344 93.4308 50.6958 97.2427 52.3148C100.645 53.7603 101.596 59.1889 101.935 62.598C102.267 65.9367 102.047 69.291 102.027 72.6385Z" fill="#064C1A"/>
<path d="M225.742 176.829C226.927 175.715 227.488 174.388 228.924 173.484C229.978 172.822 231.509 172.213 232.736 172.611C233.814 172.96 234.907 174.272 234.267 175.497C233.626 176.724 231.998 176.226 230.976 176.195C229.101 176.138 227.322 176.162 225.742 176.829Z" fill="#E5E3DC"/>
<path d="M13.6081 250.734C13.3451 251.559 12.7499 252.297 12.2453 252.79C11.4532 253.563 10.6711 253.896 9.5892 253.864C8.7758 253.839 7.40521 253.31 8.00827 252.174C8.45916 251.325 10.0278 251.257 10.7886 251.285C11.9354 251.327 12.8887 251.494 13.6081 250.734Z" fill="#E5E3DC"/>
<path d="M110.334 114.58C110.842 113.946 112.843 114.945 113.653 116.107C114.223 116.923 115.138 119.9 113.57 120.212C112.959 120.308 113.676 118.773 112.183 116.677C111.048 115.084 109.451 115.689 110.334 114.58Z" fill="#E5E3DC"/>
<path d="M88.5437 16.3544C87.7896 13.7083 86.7927 10.8385 85.8819 8.23604L85.4009 6.90126C84.4521 3.59955 82.1439 2.98419 79.189 3.55704C70.1689 4.79224 61.3189 8.81111 54.6875 15.4414C63.0139 10.2555 72.194 6.20086 81.8418 5.25879C83.5223 5.47025 83.9866 7.40249 84.6949 8.78874C85.8842 11.2625 87.2156 13.9701 88.5437 16.3544Z" fill="#E5E3DC"/>
<path d="M130.27 127.914C134.753 140.417 136.819 154.151 139.111 167.269C139.6 154.079 137.229 139.068 130.27 127.914Z" fill="#E5E3DC"/>
</svg>
