<svg width="257" height="256" viewBox="0 0 257 256" fill="none" xmlns="http://www.w3.org/2000/svg">
<path d="M128.249 249.459C61.2762 249.459 6.78906 194.972 6.78906 127.999C6.78906 61.0255 61.2762 6.53906 128.249 6.53906C195.222 6.53906 249.709 61.0255 249.709 127.999C249.709 194.972 195.223 249.459 128.249 249.459ZM128.249 12.8078C64.7324 12.8078 13.0578 64.4824 13.0578 127.999C13.0578 191.515 64.7324 243.19 128.249 243.19C191.766 243.19 243.44 191.515 243.44 127.999C243.44 64.4824 191.766 12.8078 128.249 12.8078Z" fill="#641E09"/>
<path d="M128.25 256C57.671 256 0.25 198.579 0.25 128C0.25 57.4203 57.671 0 128.25 0C198.829 0 256.25 57.4203 256.25 128C256.25 198.579 198.83 256 128.25 256ZM128.25 2.78611C59.2068 2.78611 3.03611 58.9568 3.03611 128C3.03611 197.043 59.2068 253.214 128.25 253.214C197.293 253.214 253.464 197.043 253.464 128C253.464 58.9568 197.293 2.78611 128.25 2.78611Z" fill="#D66145"/>
<path d="M220.689 154.657C220.54 154.657 220.387 154.637 220.237 154.596C219.309 154.348 218.758 153.393 219.006 152.463C221.139 144.518 222.22 136.287 222.22 128C222.22 103.221 212.661 79.8431 195.303 62.1729C194.63 61.4868 194.64 60.3842 195.326 59.71C196.012 59.0357 197.114 59.0462 197.789 59.7323C215.789 78.0579 225.703 102.303 225.703 128C225.703 136.592 224.581 145.126 222.37 153.366C222.161 154.144 221.457 154.657 220.689 154.657Z" fill="#D66145"/>
<path d="M35.8105 154.657C35.0415 154.657 34.3387 154.144 34.1298 153.366C31.9183 145.125 30.7969 136.592 30.7969 128C30.7969 102.302 40.7105 78.0576 58.7109 59.732C59.3851 59.0459 60.487 59.0362 61.1738 59.7097C61.8599 60.384 61.8696 61.4866 61.1961 62.1726C43.8386 79.8428 34.2795 103.221 34.2795 128C34.2795 136.287 35.3605 144.517 37.4933 152.463C37.7426 153.392 37.1917 154.347 36.2625 154.596C36.1121 154.637 35.9602 154.657 35.8105 154.657Z" fill="#D66145"/>
<path d="M94.9262 157.384C94.3836 157.519 93.2991 159.739 93.5701 161.003C93.841 162.266 95.9627 165.52 95.9627 165.52C95.9627 165.52 96.2824 168.074 98.5879 169.103C100.893 170.131 105.822 171.894 105.822 171.894C105.822 171.894 127.73 180.167 131.263 179.895C134.797 179.624 168.837 170.944 168.837 170.944L173.99 157.383L130.186 158.029L94.9262 157.384Z" fill="#FFC046"/>
<path d="M80.635 108.749L96.217 97.1279C96.217 97.1279 102.221 91.5967 102.992 90.4398C103.763 89.2836 109.156 86.0468 109.156 86.0468C109.156 86.0468 128.241 83.4474 133.444 82.4144C138.648 81.3815 142.503 81.9053 144.43 82.4144C146.357 82.9236 146.242 95.3064 146.242 95.3064C146.242 95.3064 155.223 113.761 156.572 114.917C157.921 116.073 162.744 122.691 162.744 122.691C162.744 122.691 165.067 114.531 167.565 113.953C170.063 113.375 177.772 114.146 177.772 114.146C177.772 114.146 180.855 117.856 181.434 119.567C182.012 121.277 180.855 124.168 181.434 126.867C182.012 129.565 168.704 137.209 168.704 137.209L161.138 138.194L145.629 139.626L135.401 138.32L129.059 140.476L111.034 140.697L104.857 136.695L80.6357 135.346L77.6406 116.073L80.635 108.749Z" fill="#FFC046"/>
<path d="M72.5052 137.924C82.4154 139.651 96.1746 140.567 111.035 140.694C110.307 138.57 110.249 136.236 111.225 133.896C115.59 123.441 127.456 124.715 129.703 133.095C130.375 135.598 130.017 138.166 129.06 140.473C134.627 140.292 140.194 140.008 145.631 139.622C146.63 136.645 148.909 134.126 152.367 133.815C156.828 133.413 159.885 135.477 161.14 138.19C171.527 136.984 180.8 135.349 187.81 133.295C188.39 126.289 187.919 119.794 186.525 114.658C185.531 110.995 183.56 107.207 180.826 103.484C177.678 108.14 171.751 107.344 170.399 103.287C165.387 109.346 156.853 103.83 159.056 97.5612C151.743 101.253 147.137 91.7905 152.774 88.0459C149.32 85.3929 150.52 82.8352 152.291 81.073C136.439 73.6063 117.959 70.91 103.084 78.5481C88.9286 85.8164 68.1637 105.525 71.2786 130.799C71.5628 133.121 71.9696 135.507 72.5052 137.924ZM167.289 120.97C169.607 115.748 175.716 116.303 176.82 120.452C177.924 124.6 173.106 129.2 170.547 127.979C167.988 126.759 165.992 123.889 167.289 120.97ZM146.28 111.874C151.635 117.125 148.33 124.606 142.808 124.162C137.286 123.716 133.766 115.582 136.351 112.885C138.936 110.19 143.286 108.939 146.28 111.874ZM138.376 84.929C142.868 85.886 144.02 90.9442 141.208 92.5748C138.395 94.206 132.354 91.1573 132.608 88.8644C132.861 86.5707 135.865 84.3941 138.376 84.929ZM95.5957 134.029C93.0367 132.809 91.0411 129.939 92.3374 127.019C94.6561 121.797 100.765 122.352 101.869 126.501C102.973 130.65 98.1555 135.248 95.5957 134.029ZM105.796 96.5582C104.258 94.8378 104.643 91.1483 106.718 89.6361C110.429 86.9315 114.964 89.4508 114.3 92.634C113.636 95.8171 107.334 98.2786 105.796 96.5582ZM117.112 116.48C114.267 115.124 112.049 111.934 113.49 108.688C116.067 102.883 122.859 103.5 124.086 108.112C125.313 112.724 119.957 117.836 117.112 116.48ZM125.174 97.0646C123.177 97.1558 121.617 94.6051 122.406 93.4259C123.196 92.2467 124.583 91.0835 125.801 92.0886C127.979 93.887 127.171 96.9733 125.174 97.0646ZM103.307 81.7284C116.551 73.9545 130.663 77.6719 130.663 77.6719C130.663 77.6719 113.674 79.5142 104.416 84.2401C99.8042 86.5944 87.6498 95.3024 87.6498 95.3024C87.6498 95.3024 95.595 86.2552 103.307 81.7284ZM83.6754 109.822C86.5834 102.856 94.4897 103.705 95.9872 109.289C97.484 114.873 91.3351 120.959 88.0064 119.28C84.6784 117.6 82.0504 113.716 83.6754 109.822Z" fill="#641E09"/>
<path d="M77.6406 153.21C86.3646 172.086 104.198 189.013 135.861 189.329C163.395 189.607 178.751 169.627 184.885 148.871C175.372 151.109 130.425 160.579 77.6406 153.21ZM158.049 166.455C158.966 163.334 165.45 161.391 166.839 163.234C168.237 165.071 167.55 168.717 165.364 170.059C161.442 172.449 157.125 169.575 158.049 166.455ZM146.45 163.269C147.238 162.088 148.626 160.925 149.841 161.932C152.024 163.725 151.218 166.817 149.221 166.908C147.223 166.999 145.663 164.45 146.45 163.269ZM126.377 161.927C133.151 158.619 142.419 164.895 141.08 169.536C139.74 174.186 135.417 178.496 130.049 177.409C120.451 175.476 119.611 165.228 126.377 161.927ZM101.669 167.218C98.4173 167.135 94.8664 161.375 96.2818 159.553C97.6964 157.731 101.395 157.449 103.253 159.221C106.585 162.383 104.922 167.294 101.669 167.218ZM153.766 182.664C143.236 188.03 126.688 184.93 121.77 184.326C116.861 183.723 105.821 178.481 105.821 178.481C105.821 178.481 128.712 183.744 142.941 182.468C147.32 182.079 164.983 176.079 164.983 176.079C164.983 176.079 164.288 177.305 153.766 182.664Z" fill="#641E09"/>
<path d="M212.396 131.773C212.161 128.265 206.6 125.592 197.633 123.719C200.227 124.927 201.716 126.328 201.837 127.941C203.242 147.233 58.7006 150.318 57.637 134.878C57.5193 133.151 58.7194 131.532 61.0047 130.044C51.4177 132.994 45.6177 136.562 45.8754 140.653C46.1951 145.616 58.6066 148.922 76.5142 150.649C76.5142 150.649 128.318 158.192 185.732 145.736C201.998 142.37 212.795 137.687 212.396 131.773Z" fill="#D66145"/>
</svg>
