<svg width="257" height="211" viewBox="0 0 257 211" fill="none" xmlns="http://www.w3.org/2000/svg">
<path d="M219.833 69.2699C219.89 68.136 219.92 66.994 219.92 65.8449C219.92 29.4795 190.441 0 154.077 0C124.794 0 99.9906 19.1197 91.4325 45.5515C85.6429 39.8495 77.7007 36.3286 68.9326 36.3286C51.22 36.3286 36.8621 50.6875 36.8621 68.3991C36.8621 71.348 37.2679 74.2 38.0123 76.9113C36.6123 76.7328 35.1878 76.6309 33.7399 76.6309C15.2431 76.6309 0.25 91.625 0.25 110.121C0.25 128.616 15.2431 143.611 33.7399 143.611C39.1522 143.611 91.1399 140.346 104.692 142.759C112.724 144.188 116.044 149.286 119.308 162.342C120.954 168.924 123.369 180.881 129.385 190.764C128.793 180.053 129.012 168.342 131.05 154.045C132.822 141.504 135.488 130.215 138.42 120.351C135.453 120.178 117.073 120.486 105.325 119.13C98.6976 118.366 99.6326 111.302 100.42 105.709C102.096 93.8092 107.364 65.9387 111.952 53.7027C119.594 33.3267 141.696 29.8966 165.437 32.7516C170.074 33.3094 185.145 35.4619 187.069 44.5257C188.019 49.0112 184.722 53.4162 179.16 61.6581C169.735 75.6255 164.174 85.7314 162.308 89.6489C166.678 89.7988 176.837 89.965 184.052 90.5799C191.53 91.2172 192.42 91.9778 193.254 93.021C198.434 99.5346 171.331 123.759 154.247 151.761C147.582 162.677 140.377 172.285 134.996 192.949C142.681 179.844 161.133 152.611 173.09 147.157C177.134 145.311 182.17 144.972 187.849 145.029C198.633 145.135 209.918 145.935 220.2 144.581C227.656 143.599 234.092 141.82 237.878 138.498C248.866 132.037 256.248 120.099 256.248 106.431C256.25 86.1525 240.013 69.6778 219.833 69.2699Z" fill="url(#paint0_linear_18_15842)"/>
<path d="M88.2654 120.47C76.367 115.602 28.2602 108.362 23.3189 107.297C15.1983 105.548 8.50623 100.789 4.14308 94.4453C1.66122 99.1225 0.25 104.454 0.25 110.119C0.25 128.614 15.2432 143.608 33.7399 143.608C38.4599 143.608 78.6031 141.126 97.784 142.092C97.7758 141.8 97.7687 141.498 97.7595 141.223C97.3466 128.661 95.3174 123.355 88.2654 120.47Z" fill="url(#paint1_linear_18_15842)"/>
<path d="M219.835 69.2702C219.892 68.1363 219.922 66.9943 219.922 65.8451C219.922 33.7451 196.947 7.02372 166.547 1.19531C196.756 10.4498 215.365 41.4496 208.591 72.9063C208.364 73.9555 208.111 74.9915 207.838 76.0163C226.181 80.356 237.765 98.5896 233.779 117.103C231.092 129.582 222.005 139.031 210.703 142.769C207.101 144.774 195.926 145.132 195.93 145.192C204.161 145.399 212.466 145.6 220.204 144.582C227.659 143.6 234.096 141.82 237.882 138.498C248.87 132.038 256.252 120.099 256.252 106.431C256.252 86.1528 240.015 69.678 219.835 69.2702Z" fill="url(#paint2_linear_18_15842)"/>
<path d="M113.647 114.111C108.288 113.064 109.441 106.308 110.393 100.961C112.418 89.5832 118.256 63.0025 122.674 51.4385C130.032 32.1822 148.24 29.9165 167.439 33.779C171.187 34.5325 183.355 37.3121 184.421 46.1281C184.948 50.4903 182.015 54.576 177.026 62.249C168.567 75.2528 163.474 84.7194 161.737 88.4024C162.071 88.435 162.461 88.4717 162.873 88.5095C165.154 83.9801 170.533 74.4462 179.163 61.6597C184.724 53.4177 188.022 49.0127 187.071 44.5272C185.147 35.4634 170.077 33.3109 165.439 32.7532C141.698 29.8981 119.596 33.3272 111.955 53.7042C107.366 65.9402 102.099 93.8107 100.422 105.71C99.6351 111.303 98.7 118.367 105.328 119.132C117.074 120.487 135.456 120.178 138.422 120.353C135.491 130.216 132.824 141.506 131.052 154.046C129.602 164.229 129.074 173.098 129.101 181.233C130.262 144.768 142.267 123.942 144.734 116.076C142.325 115.769 123.15 115.967 113.647 114.111Z" fill="url(#paint3_linear_18_15842)"/>
<path d="M193.257 93.0223C192.423 91.9792 191.532 91.2185 184.055 90.5812C182.433 90.4436 180.66 90.3284 178.84 90.2305C179.032 90.259 179.227 90.2876 179.412 90.3171C185.472 91.2817 186.157 92.0557 186.78 93.0998C190.643 99.6124 167.206 121.66 151.726 147.814C144.354 160.266 133.011 182.522 131.309 210.903C136.707 177.032 145.904 165.434 154.251 151.762C171.334 123.76 198.437 99.5359 193.257 93.0223Z" fill="url(#paint4_linear_18_15842)"/>
<path d="M18.1227 121.683C15.8957 103.322 26.2311 93.4523 44.5932 91.2253C46.0309 91.051 47.4574 90.9806 48.8686 90.9888C47.8031 88.3866 47.0567 85.6039 46.7018 82.6775C44.5697 65.0954 57.0943 49.1122 74.6774 46.979C83.3823 45.9237 91.6905 48.4636 98.1246 53.4264C103.437 26.1564 125.759 4.18878 154.828 0.662784C156.508 0.458851 158.178 0.341589 159.841 0.266134C157.94 0.100948 156.02 0 154.077 0C124.794 0 99.9906 19.1197 91.4325 45.5515C85.6429 39.8495 77.7007 36.3286 68.9326 36.3286C51.22 36.3286 36.8621 50.6875 36.8621 68.3991C36.8621 71.348 37.2679 74.2 38.0123 76.9113C36.6123 76.7328 35.1878 76.6309 33.7399 76.6309C15.2432 76.6309 0.25 91.625 0.25 110.121C0.25 128.616 15.2432 143.611 33.7399 143.611C34.9747 143.611 38.6424 143.44 43.7214 143.207C30.7054 141.69 19.7705 135.272 18.1227 121.683Z" fill="url(#paint5_linear_18_15842)"/>
<defs>
<linearGradient id="paint0_linear_18_15842" x1="128.251" y1="161.959" x2="128.251" y2="-7.41643" gradientUnits="userSpaceOnUse">
<stop offset="0.1624" stop-color="#401BDB"/>
<stop offset="1" stop-color="#FF5F6B"/>
</linearGradient>
<linearGradient id="paint1_linear_18_15842" x1="49.0167" y1="161.956" x2="49.0167" y2="-7.41869" gradientUnits="userSpaceOnUse">
<stop offset="0.1624" stop-color="#401BDB"/>
<stop offset="1" stop-color="#FF5F6B"/>
</linearGradient>
<linearGradient id="paint2_linear_18_15842" x1="211.4" y1="161.959" x2="211.4" y2="-7.41647" gradientUnits="userSpaceOnUse">
<stop stop-color="#FF8B2C"/>
<stop offset="0.0492" stop-color="#E47B44"/>
<stop offset="0.1513" stop-color="#B35E72"/>
<stop offset="0.2525" stop-color="#894698"/>
<stop offset="0.3507" stop-color="#6933B5"/>
<stop offset="0.4451" stop-color="#5326CA"/>
<stop offset="0.5341" stop-color="#451ED7"/>
<stop offset="0.612" stop-color="#401BDB"/>
</linearGradient>
<linearGradient id="paint3_linear_18_15842" x1="143.552" y1="196.085" x2="143.552" y2="-5.73845" gradientUnits="userSpaceOnUse">
<stop stop-color="#FF8B2C"/>
<stop offset="0.0803" stop-color="#E47B44"/>
<stop offset="0.2473" stop-color="#B35E72"/>
<stop offset="0.4126" stop-color="#894698"/>
<stop offset="0.5731" stop-color="#6933B5"/>
<stop offset="0.7274" stop-color="#5326CA"/>
<stop offset="0.8728" stop-color="#451ED7"/>
<stop offset="1" stop-color="#401BDB"/>
</linearGradient>
<linearGradient id="paint4_linear_18_15842" x1="162.606" y1="196.083" x2="162.606" y2="-5.74079" gradientUnits="userSpaceOnUse">
<stop stop-color="#21EADB"/>
<stop offset="0.0737" stop-color="#27BFDB"/>
<stop offset="0.1714" stop-color="#2F8EDB"/>
<stop offset="0.2682" stop-color="#3565DB"/>
<stop offset="0.3621" stop-color="#3A44DB"/>
<stop offset="0.4524" stop-color="#3D2EDB"/>
<stop offset="0.5375" stop-color="#3F20DB"/>
<stop offset="0.612" stop-color="#401BDB"/>
</linearGradient>
<linearGradient id="paint5_linear_18_15842" x1="65.8835" y1="-2.68335" x2="113.346" y2="197.901" gradientUnits="userSpaceOnUse">
<stop stop-color="#21EADB"/>
<stop offset="0.0737" stop-color="#27BFDB"/>
<stop offset="0.1714" stop-color="#2F8EDB"/>
<stop offset="0.2682" stop-color="#3565DB"/>
<stop offset="0.3621" stop-color="#3A44DB"/>
<stop offset="0.4524" stop-color="#3D2EDB"/>
<stop offset="0.5375" stop-color="#3F20DB"/>
<stop offset="0.612" stop-color="#401BDB"/>
</linearGradient>
</defs>
</svg>
