<svg width="264" height="235" viewBox="0 0 264 235" fill="none" xmlns="http://www.w3.org/2000/svg">
<path d="M228.217 79.832C245.523 79.832 259.553 93.8618 259.553 111.168" stroke="#263238" stroke-width="7" stroke-miterlimit="10" stroke-linecap="round"/>
<path d="M241.565 82.8135C241.705 81.8373 241.804 80.8465 241.804 79.8315C241.804 68.3884 232.528 59.1125 221.085 59.1125C218.075 59.1125 215.222 59.7686 212.642 60.9231C209.802 42.159 193.605 27.7763 174.048 27.7763C167.249 27.7763 160.858 29.5178 155.292 32.5738C151.379 24.0679 145.062 16.9069 137.223 11.9276C137.503 12.1046 137.784 12.2793 138.061 12.4624C134.058 11.3879 126.398 7.26474 122.056 7.19198C96.4446 6.76147 82.239 22.9571 79.451 44.4704C76.3574 43.636 73.1074 43.1837 69.7494 43.1837C49.216 43.1837 32.5717 59.8292 32.5717 80.3614C32.5717 83.7376 33.0301 87.0058 33.8741 90.1152C24.232 95.4583 21.3518 106.986 22.4129 115.121C24.6225 132.059 43.1804 140.032 50.1025 142.501C51.8548 142.806 45.8374 142.501 47.6771 142.501H228.219C245.525 142.501 259.555 128.472 259.555 111.165C259.554 98.6356 252.195 87.8256 241.565 82.8135Z" fill="url(#paint0_linear_18_15799)"/>
<path d="M241.564 82.819C241.705 81.8428 241.803 80.852 241.803 79.837C241.803 68.3939 232.527 59.118 221.084 59.118C218.074 59.118 215.222 59.7741 212.641 60.9286C209.801 42.1645 193.604 27.7818 174.047 27.7818C167.249 27.7818 160.858 29.5233 155.291 32.5793C147.646 15.9617 130.863 4.41797 111.371 4.41797C89.7849 4.41797 71.5095 18.5714 65.3053 38.1031C62.2117 37.2688 58.9617 36.8165 55.6037 36.8165C35.0703 36.8165 18.4248 53.462 18.4248 73.9942C18.4248 77.3715 18.8832 80.6386 19.7272 83.7479C10.0851 89.0911 3.55469 99.3675 3.55469 111.172C3.55469 128.478 17.5844 142.508 34.8908 142.508H228.218C245.525 142.508 259.554 128.478 259.554 111.172C259.553 98.6411 252.194 87.8311 241.564 82.819Z" stroke="#263238" stroke-width="7" stroke-miterlimit="10" stroke-linecap="round"/>
<path d="M222.203 84.0996C222.203 84.0996 222.492 83.5442 223.063 82.6977C223.371 82.2818 223.654 81.7725 224.217 81.285C224.747 80.7962 225.403 80.2008 226.166 79.6963C226.929 79.2501 227.775 78.6934 228.752 78.3357C229.727 77.9767 230.79 77.5935 231.929 77.4516C233.069 77.2115 234.255 77.2079 235.469 77.2176C236.074 77.2345 236.669 77.3316 237.273 77.4116L238.178 77.5486L239.057 77.7718C240.241 78.0555 241.358 78.4994 242.429 78.9857C242.966 79.2234 243.457 79.5338 243.949 79.8225C244.445 80.105 244.923 80.396 245.351 80.7477C246.251 81.382 247.032 82.1035 247.728 82.8178C248.425 83.5321 248.998 84.2961 249.501 84.9982C249.969 85.7477 250.39 86.411 250.679 87.0756C250.968 87.7365 251.211 88.298 251.352 88.8098C251.635 89.826 251.708 90.4324 251.708 90.4324C251.708 90.4324 251.08 90.2929 250.134 90.0043C249.673 89.8648 249.114 89.6962 248.473 89.5022C247.872 89.3118 247.196 89.0972 246.457 88.8631C245.759 88.6424 245.003 88.4023 244.203 88.1488C243.425 87.899 242.631 87.6407 241.82 87.3958C241.025 87.112 240.186 86.9228 239.381 86.6548C238.561 86.4353 237.754 86.1746 236.939 85.9902C236.537 85.8593 236.132 85.7647 235.73 85.6883C235.327 85.6119 234.928 85.4736 234.529 85.4021C234.13 85.3402 233.735 85.2517 233.338 85.1547C232.94 85.0383 232.551 85.0492 232.158 84.9534C231.37 84.7836 230.601 84.7254 229.832 84.6078C229.062 84.478 228.326 84.4889 227.591 84.3798C226.864 84.3276 226.197 84.2791 225.606 84.2367C224.979 84.1421 224.342 84.2342 223.841 84.2039C222.823 84.1833 222.203 84.0996 222.203 84.0996Z" fill="#263238"/>
<path d="M30.1458 101.084C30.1458 101.084 29.9566 101.016 29.6025 100.889C29.2641 100.742 28.7378 100.573 28.1254 100.271C27.5215 99.9529 26.7344 99.5503 25.9462 99.0082C25.13 98.4831 24.2702 97.8161 23.3656 97.0315C22.4839 96.2299 21.5671 95.3058 20.6916 94.2411C19.8208 93.1751 18.9804 91.9781 18.2189 90.6696C16.6933 88.0551 15.5448 84.97 14.9276 81.7806C14.6317 80.1834 14.4437 78.5657 14.4267 76.9698C14.377 76.1742 14.428 75.3836 14.4716 74.605L14.5031 74.0241C14.5189 73.7343 14.5371 73.6433 14.5541 73.4445C14.5808 73.1098 14.639 72.7532 14.6972 72.3433C14.9106 70.7899 15.2502 69.4086 15.6613 68.0819C16.0784 66.7673 16.5769 65.5643 17.1129 64.496C18.1849 62.3543 19.3976 60.7657 20.3326 59.7397C21.2833 58.7174 21.9249 58.2227 21.9249 58.2227C21.9249 58.2227 21.9273 58.424 21.9309 58.7999C21.9127 59.1637 21.9382 59.7167 21.9139 60.3788C21.8958 61.7164 21.8642 63.5646 21.8909 65.6698C21.8982 66.7225 21.9297 67.8442 21.9855 69.0084C22.034 70.1593 22.1177 71.4108 22.222 72.5883C22.325 73.8895 22.4851 75.0962 22.6392 76.3816C22.718 77.0159 22.8223 77.6513 22.9229 78.2868C23.0054 78.9259 23.1266 79.5601 23.2625 80.1907C23.4662 81.4665 23.7912 82.7155 24.0713 83.9622C24.2314 84.5795 24.4073 85.1895 24.5479 85.8067C24.7335 86.407 24.9093 87.0073 25.0706 87.6064C25.4441 88.7839 25.8055 89.942 26.1936 91.0407C26.5768 92.1431 26.9721 93.1909 27.3444 94.1804C27.7325 95.1591 28.0914 96.0819 28.4371 96.9029C28.779 97.7397 29.0762 98.4697 29.3223 99.07C29.8717 100.318 30.1458 101.084 30.1458 101.084Z" fill="#263238"/>
<path d="M174.046 27.7784C174.046 27.7784 174.529 27.7178 175.433 27.605C175.886 27.5553 176.444 27.4947 177.099 27.4219C177.427 27.3904 177.778 27.337 178.156 27.3164C178.539 27.3225 178.948 27.3285 179.378 27.3346C180.243 27.354 181.222 27.354 182.285 27.4049C183.326 27.5177 184.451 27.6875 185.669 27.8524C186.881 28.0404 188.123 28.4357 189.478 28.7571C190.819 29.1161 192.151 29.7127 193.601 30.2305C194.31 30.5216 194.992 30.9048 195.711 31.2565C196.414 31.6348 197.182 31.9501 197.874 32.4085C199.265 33.3132 200.775 34.1876 202.129 35.3469C204.988 37.4946 207.563 40.319 209.892 43.489C210.437 44.3112 210.986 45.1407 211.539 45.9762C212.074 46.8251 212.492 47.748 212.976 48.6454L213.68 50.0096L214.262 51.4382C214.628 52.4023 215.043 53.3591 215.349 54.3548C215.907 56.363 216.535 58.3821 216.778 60.4886C216.948 61.5327 217.127 62.5781 217.15 63.6392L217.24 65.2266L217.283 66.0209L217.303 66.4175L217.314 66.6164L217.319 66.7158L217.321 66.7655C217.32 66.8783 217.329 66.5848 217.319 67.0299L217.158 69.8979C217.115 70.3963 217.137 70.8062 217.041 71.3774L216.795 73.0243C216.601 74.0999 216.51 75.2629 216.192 76.2476C215.912 77.2602 215.632 78.2704 215.354 79.2769C215.049 80.2726 214.629 81.2282 214.27 82.1947L213.688 83.6233L212.985 84.9875C212.501 85.8849 212.082 86.8078 211.548 87.6567C210.995 88.4923 210.447 89.3229 209.902 90.1464C207.571 93.3176 204.997 96.1432 202.137 98.2909C200.784 99.4514 199.272 100.322 197.882 101.229C197.189 101.688 196.42 102.002 195.717 102.38C194.997 102.731 194.316 103.116 193.606 103.407C192.154 103.925 190.821 104.519 189.48 104.881C188.126 105.201 186.883 105.595 185.67 105.783C184.451 105.947 183.326 106.118 182.285 106.229C181.231 106.275 180.266 106.274 179.405 106.293C178.976 106.3 178.569 106.306 178.187 106.312C177.804 106.293 177.443 106.239 177.111 106.207C176.448 106.135 175.885 106.074 175.429 106.024C174.526 105.91 174.045 105.85 174.045 105.85C174.045 105.85 174.52 105.74 175.412 105.537C175.852 105.442 176.394 105.325 177.033 105.186C177.668 105.069 178.388 104.873 179.181 104.62C179.975 104.375 180.851 104.13 181.786 103.822C182.702 103.43 183.693 103.057 184.735 102.64C185.769 102.202 186.821 101.614 187.936 101.074C189.041 100.503 190.127 99.7534 191.283 99.0706C192.377 98.269 193.531 97.4747 194.639 96.5555C195.698 95.5671 196.887 94.6867 197.881 93.5237C200.054 91.4076 201.897 88.7894 203.596 86.0353C205.276 83.2437 206.485 80.1161 207.471 76.9C207.662 76.0803 207.854 75.2568 208.047 74.4298C208.164 74.0126 208.224 73.61 208.266 73.2183L208.438 72.0335L208.624 70.8487C208.701 70.4776 208.681 69.9234 208.715 69.4686L208.843 66.5994C208.832 67.0153 208.84 66.6916 208.836 66.774L208.834 66.734L208.83 66.654L208.823 66.4939L208.807 66.1737L208.778 65.5334L208.723 64.2528C208.728 63.3942 208.583 62.5526 208.455 61.711L208.276 60.4486C208.235 60.0241 208.167 59.6057 208.053 59.1971C207.86 58.3712 207.668 57.5478 207.477 56.7268C206.498 53.5071 205.278 50.3832 203.604 47.5879C201.905 44.8326 200.061 42.2132 197.888 40.0958C196.895 38.9316 195.703 38.0537 194.645 37.0629C193.537 36.1436 192.381 35.3518 191.288 34.5477C190.13 33.8638 189.045 33.118 187.939 32.5444C186.822 32.0047 185.771 31.419 184.735 30.98C183.692 30.564 182.701 30.1893 181.784 29.7988C180.861 29.4944 179.998 29.2507 179.207 29.0057C178.424 28.7535 177.696 28.5558 177.043 28.4382C176.398 28.2999 175.849 28.1835 175.404 28.0889C174.52 27.8864 174.046 27.7784 174.046 27.7784Z" fill="#263238"/>
<path d="M111.371 101.079C111.371 101.079 110.774 101.134 109.656 101.235C109.097 101.279 108.408 101.334 107.598 101.398C107.192 101.425 106.759 101.477 106.292 101.489C105.82 101.47 105.32 101.449 104.79 101.427C103.727 101.376 102.53 101.347 101.229 101.254C99.9558 101.08 98.5794 100.847 97.0914 100.612C95.6119 100.35 94.096 99.8372 92.448 99.414C91.6112 99.2273 90.8302 98.8453 89.9922 98.536C89.1591 98.2074 88.3054 97.8702 87.4346 97.5258C86.5736 97.156 85.7478 96.6745 84.8746 96.2319C84.0221 95.7565 83.0907 95.3612 82.2528 94.7888C80.5708 93.6585 78.7384 92.5756 77.1061 91.1397C73.6475 88.4851 70.5466 85.012 67.738 81.1374C67.0819 80.1321 66.421 79.1183 65.7552 78.0972C65.1088 77.0615 64.6092 75.9349 64.0259 74.8423L63.1794 73.1797L62.4821 71.4382C62.0419 70.2643 61.5399 69.1001 61.1712 67.8899C60.8365 66.6663 60.5018 65.4378 60.1647 64.2057C59.779 62.9821 59.6869 61.6942 59.4552 60.4318C59.2503 59.1633 59.032 57.8936 59.0065 56.6045L58.8986 54.6763L58.8465 53.711L58.821 53.2283L58.8089 52.987L58.8028 52.8657L58.7992 52.8051C58.8004 52.6887 58.7919 52.9785 58.8016 52.5298L58.9968 48.979C59.049 48.3666 59.0211 47.8427 59.1375 47.1588L59.4358 45.1748L59.7463 43.1969L59.9112 42.2122L60.1574 41.2832C60.4945 40.0511 60.8292 38.8227 61.1639 37.5991C61.5314 36.3876 62.0383 35.2258 62.4712 34.0483L63.1685 32.3068L64.0162 30.6442C64.5995 29.5516 65.1004 28.4238 65.7467 27.3881C66.4125 26.3658 67.0722 25.352 67.7271 24.3455C70.5369 20.4697 73.6378 16.9953 77.0964 14.3395C78.7299 12.9024 80.5635 11.8231 82.2443 10.6892C83.0823 10.1169 84.0148 9.72151 84.8674 9.24613C85.7417 8.80592 86.5663 8.32206 87.4286 7.95219C88.3005 7.609 89.153 7.27187 89.9874 6.94322C90.8266 6.6352 91.6075 6.25199 92.4431 6.06523C94.0924 5.642 95.6082 5.13145 97.0889 4.8683C98.5781 4.63546 99.9545 4.4002 101.228 4.22799C102.518 4.13946 103.703 4.11157 104.76 4.06064C105.288 4.03881 105.788 4.01819 106.258 4C106.73 4.0097 107.174 4.06307 107.585 4.08975C108.402 4.15402 109.097 4.20858 109.661 4.25345C110.777 4.35653 111.372 4.41111 111.372 4.41111C111.372 4.41111 110.783 4.52631 109.678 4.74096C109.131 4.84161 108.457 4.96531 107.664 5.11083C107.27 5.18723 106.846 5.25394 106.399 5.35217C105.955 5.47222 105.484 5.60076 104.986 5.73537C103.995 6.01187 102.899 6.28594 101.729 6.63641C100.579 7.08754 99.3361 7.52654 98.0252 8.01283C96.7227 8.52459 95.3996 9.22916 93.9881 9.8719C92.5922 10.5546 91.2183 11.463 89.7509 12.2888C89.0391 12.746 88.3515 13.2747 87.6311 13.7731C86.9314 14.3019 86.1589 14.7469 85.487 15.3618C84.1373 16.5757 82.6263 17.6647 81.353 19.1054C78.5807 21.7285 76.2111 24.9955 74.0331 28.4553C71.8793 31.96 70.3113 35.9025 69.0477 39.9711C68.8003 41.0092 68.5529 42.0509 68.3043 43.095L68.1188 43.876L68.0169 44.6388L67.7925 46.1607L67.5549 47.6827C67.4566 48.1653 67.4821 48.8347 67.4384 49.4023L67.2759 52.9555C67.2881 52.5431 67.2808 52.8706 67.2844 52.7918L67.2869 52.8427L67.2917 52.9446L67.3014 53.1471L67.3208 53.5533L67.3584 54.3646L67.43 55.9872C67.4275 57.0738 67.6106 58.1398 67.7731 59.2057L68.0048 60.8053L68.1103 61.6057L68.2958 62.3891C68.5444 63.4344 68.793 64.4761 69.0404 65.5142C70.2956 69.5864 71.8745 73.5265 74.0222 77.0348C76.2014 80.4947 78.571 83.7641 81.3432 86.3884C82.6154 87.8291 84.13 88.9144 85.4786 90.132C86.1504 90.7468 86.9241 91.1919 87.6238 91.7206C88.3442 92.2178 89.0318 92.749 89.7436 93.2062C91.2122 94.032 92.5862 94.9391 93.982 95.6231C95.3936 96.2658 96.7179 96.968 98.0203 97.481C99.3324 97.966 100.575 98.4062 101.725 98.8562C102.884 99.203 103.967 99.4759 104.955 99.7511C105.451 99.8857 105.921 100.013 106.362 100.134C106.815 100.234 107.249 100.3 107.648 100.377C108.448 100.522 109.127 100.646 109.679 100.747C110.784 100.964 111.371 101.079 111.371 101.079Z" fill="#263238"/>
<path d="M133.401 117.764C133.401 117.764 133.717 117.584 134.308 117.246C134.881 116.904 135.832 116.487 136.827 115.792C137.337 115.456 137.893 115.106 138.478 114.7C139.045 114.232 139.67 113.772 140.316 113.268C140.954 112.75 141.579 112.132 142.252 111.533C142.91 110.913 143.527 110.18 144.199 109.48C144.804 108.705 145.459 107.937 146.052 107.086C146.597 106.193 147.262 105.369 147.731 104.374C148.843 102.508 149.632 100.36 150.314 98.1653C150.967 95.9437 151.255 93.5862 151.383 91.2117C151.424 88.8251 151.149 86.4203 150.633 84.058L150.11 82.2256C150.01 81.9103 149.926 81.4907 149.815 81.2627L149.501 80.5011C149.267 79.9882 149.159 79.4922 148.862 78.9477L148.077 77.336C146.887 75.2792 145.579 73.2977 143.991 71.6133C142.395 69.9603 140.722 68.3984 138.891 67.2342C138.025 66.5575 137.062 66.1173 136.174 65.568C135.262 65.0756 134.333 64.6815 133.443 64.2643C132.528 63.9417 131.648 63.5621 130.781 63.3063C129.91 63.0734 129.074 62.8006 128.273 62.6259C127.469 62.4659 126.704 62.3373 125.987 62.1736C125.271 62.0754 124.604 62.0135 123.994 61.9432C122.771 61.7746 121.801 61.8171 121.123 61.771C120.44 61.7358 120.076 61.7164 120.076 61.7164C120.076 61.7164 120.407 61.5685 121.027 61.292C121.345 61.1598 121.735 60.9961 122.195 60.8033C122.428 60.7111 122.676 60.5935 122.948 60.5013C123.223 60.4261 123.517 60.3473 123.827 60.2636C124.45 60.0999 125.146 59.8998 125.918 59.7167C126.691 59.5796 127.539 59.4802 128.457 59.3516C129.375 59.2437 130.353 59.2825 131.404 59.2462C132.452 59.2425 133.537 59.4135 134.7 59.5081C135.835 59.7082 137.03 59.9459 138.248 60.2709C139.441 60.665 140.716 61.0215 141.931 61.6121C144.439 62.6502 146.87 64.2437 149.177 66.1561C149.732 66.6594 150.301 67.1614 150.853 67.6914C151.404 68.2213 151.884 68.8265 152.407 69.4025L153.177 70.2841L153.87 71.2349C154.312 71.8861 154.795 72.5192 155.201 73.2031C155.977 74.5892 156.803 75.9474 157.404 77.6076L157.885 78.8046C158.059 79.2229 158.109 79.5031 158.226 79.8584L158.891 82.0958C159.552 85.2634 159.872 88.5171 159.593 91.6992C159.536 92.4923 159.397 93.2757 159.288 94.0543L159.096 95.2148L158.805 96.3487C158.598 97.0981 158.442 97.8537 158.189 98.5752C157.917 99.2883 157.648 99.9965 157.381 100.699C156.182 103.444 154.728 105.959 152.956 108.014C152.136 109.087 151.161 109.982 150.271 110.867C149.33 111.705 148.372 112.457 147.448 113.145C146.452 113.752 145.562 114.396 144.625 114.863C143.67 115.304 142.816 115.781 141.947 116.096C141.07 116.397 140.269 116.688 139.517 116.915C138.735 117.104 138.012 117.244 137.378 117.379C137.062 117.444 136.763 117.505 136.482 117.564C136.201 117.6 135.937 117.606 135.692 117.627C135.202 117.661 134.784 117.69 134.447 117.713C133.764 117.747 133.401 117.764 133.401 117.764Z" fill="#263238"/>
<path d="M71.943 206.745C94.771 206.745 113.277 188.24 113.277 165.412C113.277 142.584 94.771 124.078 71.943 124.078C49.1151 124.078 30.6094 142.584 30.6094 165.412C30.6094 188.24 49.1151 206.745 71.943 206.745Z" fill="url(#paint1_linear_18_15799)"/>
<path d="M191.164 206.745C213.992 206.745 232.497 188.24 232.497 165.412C232.497 142.584 213.992 124.078 191.164 124.078C168.336 124.078 149.83 142.584 149.83 165.412C149.83 188.24 168.336 206.745 191.164 206.745Z" fill="url(#paint2_linear_18_15799)"/>
<path d="M71.9439 112.887C42.9361 112.887 19.4219 136.402 19.4219 165.409C19.4219 194.417 42.9373 217.931 71.9439 217.931C100.952 217.931 124.466 194.415 124.466 165.409C124.466 136.402 100.95 112.887 71.9439 112.887ZM71.9439 202.167C51.6433 202.167 35.187 185.711 35.187 165.41C35.187 145.109 51.6433 128.653 71.9439 128.653C92.2445 128.653 108.701 145.109 108.701 165.41C108.701 185.711 92.2445 202.167 71.9439 202.167Z" fill="#263238"/>
<path d="M191.163 112.887C162.155 112.887 138.641 136.402 138.641 165.409C138.641 194.417 162.156 217.931 191.163 217.931C220.17 217.931 243.685 194.415 243.685 165.409C243.686 136.402 220.17 112.887 191.163 112.887ZM191.163 202.167C170.862 202.167 154.406 185.711 154.406 165.41C154.406 145.109 170.862 128.653 191.163 128.653C211.463 128.653 227.92 145.109 227.92 165.41C227.92 185.711 211.463 202.167 191.163 202.167Z" fill="#263238"/>
<path d="M150.351 143.443C144.528 140.501 138.192 138.867 131.555 138.867C124.918 138.867 118.581 140.501 112.758 143.443" stroke="#263238" stroke-width="11" stroke-miterlimit="10"/>
<path d="M249.96 154.117H234.012V140.777H250.304C253.893 140.777 256.802 143.687 256.802 147.275C256.802 151.054 253.739 154.117 249.96 154.117Z" fill="#263238"/>
<path d="M28.7486 154.117H13.1448C9.36601 154.117 6.30273 151.054 6.30273 147.275C6.30273 143.687 9.212 140.777 12.8004 140.777H28.7486C28.939 140.777 29.093 140.931 29.093 141.122V153.771C29.0942 153.963 28.939 154.117 28.7486 154.117Z" fill="#263238"/>
<path d="M80.5026 177.871C79.6319 177.871 78.7976 178.024 78.0178 178.293C79.1274 178.883 79.8926 180.037 79.8926 181.382C79.8926 183.321 78.321 184.893 76.3819 184.893C75.037 184.893 73.8837 184.129 73.2931 183.018C73.0239 183.798 72.8711 184.632 72.8711 185.503C72.8711 189.717 76.2873 193.134 80.5026 193.134C84.7167 193.134 88.1341 189.718 88.1341 185.503C88.1341 181.287 84.7167 177.871 80.5026 177.871Z" fill="#263238"/>
<path d="M182.606 177.871C181.735 177.871 180.901 178.024 180.121 178.293C181.231 178.883 181.996 180.037 181.996 181.382C181.996 183.321 180.425 184.893 178.485 184.893C177.141 184.893 175.987 184.129 175.397 183.018C175.127 183.798 174.975 184.632 174.975 185.503C174.975 189.717 178.391 193.134 182.606 193.134C186.82 193.134 190.238 189.718 190.238 185.503C190.238 181.287 186.82 177.871 182.606 177.871Z" fill="#263238"/>
<path d="M43.4452 165.413C43.4452 165.413 43.3822 165.235 43.2633 164.9C43.1651 164.567 42.9771 164.077 42.8243 163.456C42.7418 163.146 42.6497 162.801 42.549 162.426C42.4787 162.035 42.4423 161.607 42.3865 161.141C42.2822 160.207 42.1961 159.113 42.2907 157.987C42.3174 157.412 42.3683 156.814 42.4205 156.188C42.5224 155.577 42.6606 154.95 42.7904 154.295C43.0171 152.97 43.5641 151.673 44.0637 150.287C44.7113 148.984 45.3395 147.577 46.2647 146.335C47.0809 145.01 48.1772 143.871 49.2213 142.691C50.4013 141.647 51.5376 140.546 52.863 139.73C54.1 138.797 55.5128 138.177 56.814 137.524C58.2001 137.025 59.4965 136.476 60.822 136.249C61.4781 136.119 62.1062 135.983 62.7162 135.879C63.342 135.827 63.9423 135.779 64.5159 135.751C65.6558 135.655 66.7121 135.749 67.6313 135.854C68.0909 135.911 68.5141 135.946 68.9058 136.016C69.2951 136.116 69.6541 136.207 69.9767 136.289C70.6158 136.443 71.1081 136.631 71.4392 136.731C71.769 136.851 71.9449 136.915 71.9449 136.915C71.9449 136.915 71.7715 136.996 71.4464 137.149C71.1227 137.281 70.6558 137.519 70.0725 137.733C69.7851 137.847 69.4661 137.975 69.1193 138.113C68.7809 138.295 68.4159 138.45 68.0339 138.636C67.2663 138.987 66.4138 139.337 65.5382 139.841C65.0992 140.063 64.6432 140.293 64.1703 140.532C63.7203 140.802 63.2547 141.08 62.7757 141.367C61.7982 141.858 60.896 142.61 59.8955 143.193C58.9787 143.935 57.977 144.577 57.076 145.393C56.1228 146.136 55.2666 147.012 54.3644 147.834C53.5422 148.735 52.6617 149.588 51.9184 150.542C51.0974 151.439 50.4631 152.446 49.7149 153.36C49.1316 154.361 48.3785 155.263 47.8873 156.24C47.6036 156.713 47.3404 157.184 47.0542 157.635C46.8153 158.108 46.5849 158.565 46.363 159.004C45.8573 159.893 45.5153 160.708 45.1648 161.461C44.9805 161.837 44.8228 162.197 44.6422 162.536C44.5039 162.897 44.3766 163.229 44.2614 163.53C44.0455 164.131 43.8102 164.601 43.6781 164.922C43.5253 165.244 43.4452 165.413 43.4452 165.413Z" fill="#263238"/>
<path d="M161.74 165.413C161.74 165.413 161.677 165.235 161.558 164.9C161.46 164.567 161.272 164.077 161.119 163.456C161.037 163.146 160.944 162.801 160.844 162.426C160.773 162.035 160.737 161.607 160.681 161.141C160.578 160.207 160.491 159.113 160.585 157.987C160.612 157.412 160.663 156.814 160.715 156.188C160.817 155.577 160.955 154.95 161.085 154.295C161.312 152.97 161.859 151.673 162.358 150.287C163.006 148.984 163.634 147.577 164.559 146.335C165.376 145.01 166.472 143.871 167.516 142.691C168.696 141.647 169.832 140.546 171.158 139.73C172.395 138.797 173.808 138.177 175.109 137.524C176.495 137.025 177.791 136.476 179.117 136.249C179.773 136.119 180.401 135.983 181.011 135.879C181.638 135.827 182.237 135.779 182.811 135.751C183.951 135.655 185.007 135.749 185.926 135.854C186.386 135.911 186.809 135.946 187.201 136.016C187.59 136.116 187.948 136.207 188.271 136.289C188.91 136.443 189.403 136.631 189.735 136.731C190.065 136.851 190.241 136.915 190.241 136.915C190.241 136.915 190.067 136.996 189.742 137.149C189.419 137.281 188.952 137.519 188.368 137.733C188.081 137.847 187.762 137.975 187.415 138.113C187.077 138.295 186.712 138.45 186.33 138.636C185.562 138.987 184.71 139.337 183.834 139.841C183.395 140.063 182.939 140.293 182.466 140.532C182.016 140.802 181.551 141.08 181.072 141.367C180.094 141.858 179.192 142.61 178.191 143.193C177.275 143.935 176.273 144.577 175.372 145.393C174.419 146.136 173.563 147.012 172.66 147.834C171.838 148.735 170.958 149.588 170.214 150.542C169.393 151.439 168.759 152.446 168.011 153.36C167.427 154.361 166.674 155.263 166.183 156.24C165.899 156.713 165.636 157.184 165.349 157.635C165.11 158.108 164.88 158.565 164.658 159.004C164.152 159.893 163.81 160.708 163.46 161.461C163.275 161.837 163.118 162.197 162.937 162.536C162.799 162.897 162.671 163.229 162.556 163.53C162.341 164.131 162.105 164.601 161.973 164.922C161.82 165.244 161.74 165.413 161.74 165.413Z" fill="#263238"/>
<path d="M152.797 210.691C152.777 210.735 152.769 210.782 152.748 210.826L151.961 212.728C150.749 215.174 149.376 217.53 147.678 219.577C145.962 221.584 144.155 223.49 142.136 224.954C141.19 225.791 140.114 226.358 139.136 227.053C138.124 227.681 137.085 228.194 136.094 228.738C135.067 229.172 134.085 229.664 133.109 230.019C132.126 230.346 131.188 230.714 130.279 230.971C129.369 231.208 128.502 231.412 127.69 231.647C126.89 231.808 126.144 231.925 125.454 232.048C124.089 232.33 122.897 232.339 122.137 232.44C121.36 232.527 120.945 232.575 120.945 232.575C120.945 232.575 121.336 232.72 122.069 232.993C122.437 233.121 122.89 233.28 123.423 233.467C123.691 233.557 123.972 233.67 124.284 233.759C124.606 233.826 124.95 233.896 125.312 233.972C126.042 234.116 126.869 234.298 127.78 234.452C128.676 234.554 129.654 234.611 130.715 234.691C131.775 234.753 132.892 234.636 134.098 234.605C135.299 234.538 136.531 234.263 137.856 234.073C139.143 233.768 140.495 233.409 141.868 232.952C143.208 232.421 144.643 231.92 145.995 231.159C148.796 229.796 151.471 227.804 153.982 225.452C154.582 224.833 155.188 224.208 155.797 223.579C156.391 222.934 156.898 222.206 157.457 221.51L158.278 220.445L159.007 219.308C159.475 218.535 159.978 217.772 160.398 216.962C160.567 216.613 160.739 216.263 160.91 215.912L152.797 210.691Z" fill="#263238"/>
<defs>
<linearGradient id="paint0_linear_18_15799" x1="66.3404" y1="31.194" x2="209.424" y2="174.277" gradientUnits="userSpaceOnUse">
<stop stop-color="#2196F3"/>
<stop offset="1" stop-color="#0D47A1"/>
</linearGradient>
<linearGradient id="paint1_linear_18_15799" x1="42.715" y1="136.185" x2="101.17" y2="194.64" gradientUnits="userSpaceOnUse">
<stop stop-color="white"/>
<stop offset="1" stop-color="#B0BEC5"/>
</linearGradient>
<linearGradient id="paint2_linear_18_15799" x1="161.936" y1="136.185" x2="220.392" y2="194.64" gradientUnits="userSpaceOnUse">
<stop stop-color="white"/>
<stop offset="1" stop-color="#B0BEC5"/>
</linearGradient>
</defs>
</svg>
