<svg width="257" height="225" viewBox="0 0 257 225" fill="none" xmlns="http://www.w3.org/2000/svg">
<path d="M256.195 92.8674C258.054 105.159 240.997 116.795 229.162 118.861C228.119 124.408 225.201 126.324 225.201 126.324C234.006 127.485 234.37 133.991 233.067 137.773C239.318 144.834 236.971 161.728 209.202 159.656C181.433 157.585 175.237 133.226 180.918 117.745C186.599 102.264 196.238 96.9699 201.24 97.0714C205.826 86.2799 219.84 89.9633 225.258 96.9233C226.612 96.0158 227.967 94.0996 227.967 94.0996C222.132 92.3842 213.537 85.575 217.393 77.4059C221.25 69.2367 253.228 73.2497 256.195 92.8674Z" fill="#101020"/>
<path d="M230.728 111.802C240.992 109.232 250.684 100.761 249.017 92.9944C247.351 85.228 228.388 75.2403 224.22 79.7784C220.051 84.3165 229.272 89.3104 233.752 91.9333C239.379 90.7237 244.016 93.9014 244.016 93.9014C238.024 93.6484 230.625 98.9931 228.541 102.019C230.677 105.398 230.728 111.802 230.728 111.802Z" fill="#FF8A24"/>
<path d="M216.397 124.155C220.41 113.01 219.838 102.571 206.137 97.9802C213.067 92.4841 221.819 96.8224 224.058 106.455C226.297 116.087 221.867 124.912 216.397 124.155Z" fill="#FFF5DC"/>
<path d="M206.548 129.552C208.527 137.924 207.432 145.135 206.389 147.656C211.704 146.346 213.215 141.454 213.164 139.588C218.53 137.118 228.012 139.842 228.793 145.642C229.573 151.441 218.944 155.575 203.992 152.094C189.04 148.612 185.395 137.517 186.178 126.17C186.961 114.824 194.934 103.781 202.644 104.084C210.355 104.388 216.397 116.088 206.548 129.552Z" fill="#FFF5DC"/>
<path d="M213.425 135.804C213.425 135.804 219.834 131.821 227.18 134.696C227.024 131.116 221.606 129.703 221.606 129.703C219.626 131.418 214.416 131.921 212.02 130.307C213.738 133.384 213.425 135.804 213.425 135.804Z" fill="#FFF5DC"/>
<path d="M0.490325 97.5239C-1.36855 109.815 13.9269 122.358 26.535 123.163C27.5777 128.71 30.4957 130.626 30.4957 130.626C21.6909 131.787 21.3272 138.293 22.6303 142.075C16.3792 149.136 18.7262 166.029 46.495 163.958C74.2639 161.887 80.4603 137.528 74.7793 122.047C69.0983 106.566 59.4591 101.272 54.4575 101.373C49.8711 90.582 35.8569 94.2652 30.4394 101.225C29.0847 100.318 27.7299 98.4015 27.7299 98.4015C33.5649 96.6861 42.1603 89.8769 38.3037 81.7078C34.447 73.5388 3.45742 77.9062 0.490325 97.5239Z" fill="#101020"/>
<path d="M24.9697 116.103C14.7056 113.532 5.01382 105.062 6.68 97.2951C8.34619 89.5287 27.3091 79.541 31.4776 84.0792C35.6462 88.6174 26.4252 93.6112 21.9451 96.2341C16.3182 95.0246 11.6817 98.2023 11.6817 98.2023C17.6732 97.9493 25.072 103.294 27.1564 106.319C25.0208 109.698 24.9697 116.103 24.9697 116.103Z" fill="#FF8A24"/>
<path d="M9.2013 106.211C6.17673 96.6198 15.2545 88.9787 21.4866 84.5156C14.9492 87.1481 7.6824 92.6225 6.67957 97.2969C6.03733 100.29 7.0869 103.386 9.2013 106.211Z" fill="#FFF5DC"/>
<path d="M39.3018 128.455C35.2884 117.311 35.8601 106.872 49.5618 102.281C42.6318 96.7849 33.8796 101.123 31.6406 110.755C29.4017 120.388 33.8314 129.213 39.3018 128.455Z" fill="#FFF5DC"/>
<path d="M49.148 133.853C47.1693 142.224 48.2644 149.436 49.3068 151.957C43.9924 150.647 42.4809 145.755 42.5327 143.889C37.166 141.419 27.6843 144.143 26.9036 149.943C26.123 155.742 36.7519 159.876 51.704 156.395C66.6561 152.913 70.3017 141.818 69.5185 130.471C68.7353 119.125 60.7627 108.081 53.0519 108.385C45.3411 108.688 39.2991 120.389 49.148 133.853Z" fill="#FFF5DC"/>
<path d="M42.2702 140.105C42.2702 140.105 35.8613 136.122 28.5156 138.997C28.6715 135.417 34.0896 134.004 34.0896 134.004C36.0696 135.718 41.2796 136.222 43.676 134.608C41.9574 137.684 42.2702 140.105 42.2702 140.105Z" fill="#FFF5DC"/>
<path d="M150.211 133.601C151.09 142.532 150.705 156.805 150.952 160.752C154.412 159.436 162.43 162.245 162.587 170.45C179.021 167.46 197.289 176.659 197.289 190.175C197.289 199.265 191.482 203.211 191.482 203.211C195.189 208.474 194.818 224.142 165.039 224.142C135.26 224.142 130.811 217.325 130.07 214.813C126.486 220.913 115.613 224.74 99.5492 224.74C83.4857 224.74 72.4883 217.923 72.4883 210.627C72.4883 203.331 76.566 202.015 76.566 202.015C70.6348 192.447 77.9252 181.922 89.911 177.616C83.2384 167.449 95.1007 162.665 100.29 162.306C98.9312 149.389 99.4256 140.538 100.167 132.046C100.908 123.554 117.343 123.315 118.455 134.319C119.567 145.323 119.072 159.556 119.196 162.426C121.42 162.426 125.498 165.057 126.239 167.091C127.969 165.416 131.058 165.177 131.058 165.177C131.058 165.177 129.123 143.046 128.834 134.439C128.34 119.727 148.975 121.043 150.211 133.601Z" fill="#101020"/>
<path d="M134.269 136.353C134.838 127.279 144.402 127.263 144.525 135.755C144.649 144.247 143.908 159.796 144.031 164.221C144.155 168.647 137.729 171.278 136.617 163.862C135.505 156.447 134.022 140.3 134.269 136.353Z" fill="#FF8A24"/>
<path d="M134.43 142.191C134.835 148.77 135.821 158.553 136.617 163.863C137.261 168.157 139.686 169.078 141.591 168.237C138.203 164.022 135.949 151.038 134.43 142.191Z" fill="#FFF5DC"/>
<path d="M150.705 166.614C149.279 172.931 138.225 177.498 132.294 171.398C127.474 172.714 129.507 179.642 134.573 181.077C138.838 176.949 148.691 172.62 155.277 171.47C156.518 169.143 154.288 165.537 150.705 166.614Z" fill="#FFF5DC"/>
<path d="M112.915 137.19C112.823 132.287 106.994 129.057 105.969 136.473C104.944 143.888 106.424 157.643 106.31 162.188C106.197 166.733 112.459 168.886 112.915 162.188C113.37 155.49 113.028 143.29 112.915 137.19Z" fill="#FF8A24"/>
<path d="M110.639 166.315C108.375 163.405 106.827 155.994 105.633 145.73C105.772 152.253 106.385 159.206 106.31 162.19C106.238 165.053 108.695 166.964 110.639 166.315Z" fill="#FFF5DC"/>
<path d="M117.342 168.767C121.468 170.119 122.321 174.848 120.848 176.724C116.152 175.05 107.355 172.896 96.8301 174.986C94.14 173.192 94.9488 168.494 101.773 167.93C102.638 171.996 112.029 176.063 117.342 168.767Z" fill="#FFF5DC"/>
<path d="M106.84 179.892C92.7407 179.791 82.745 188.264 82.2507 194.723C81.7564 201.181 84.8457 202.258 104.245 204.052C123.645 205.846 128.464 200.105 128.217 193.646C127.97 187.187 123.645 180.011 106.84 179.892Z" fill="#FFF5DC"/>
<path d="M136.372 193.286C136.057 199.378 141.685 207.16 165.286 206.203C188.887 205.246 191.235 194.362 190.37 188.98C189.505 183.598 186.91 176.302 166.769 176.541C146.628 176.78 136.742 186.109 136.372 193.286Z" fill="#FFF5DC"/>
<path d="M186.294 207.4C185.305 214.815 181.598 217.566 163.064 217.566C144.529 217.566 130.689 214.576 134.396 205.605C139.462 210.868 164.917 216.848 186.294 207.4Z" fill="#FFF5DC"/>
<path d="M127.229 207.28C127.97 213.738 119.567 218.403 101.033 218.403C82.4979 218.403 75.084 211.227 80.3972 206.203C83.61 210.031 112.648 214.456 127.229 207.28Z" fill="#FFF5DC"/>
<path d="M43.2054 61.7194C29.366 63.3937 36.0386 74.6368 34.0614 78.7032C32.0844 82.7698 26.0514 83.8075 27.0329 88.9894C28.3922 96.1657 34.7885 95.0938 36.5185 99.3995C38.2484 103.705 34.6794 109.681 45.1825 112.193C45.4297 132.287 90.4936 136.526 127.069 136.526C174.93 136.526 214.714 122.16 215.209 97.2819C226.906 93.7735 220.975 84.524 221.964 80.3778C222.952 76.2314 228.883 72.5636 228.554 67.9389C228.224 63.3142 221.964 55.9784 214.55 55.0214C218.504 46.0908 216.477 0 128.992 0C41.508 0 39.4161 48.0047 43.2054 61.7194Z" fill="#101020"/>
<path d="M47.7737 69.8521C45.4857 64.1522 39.2477 67.9385 40.1126 72.7227C40.9776 77.5069 41.9662 80.8559 38.5063 83.248C35.0464 85.64 32.328 89.4675 36.2821 91.6202C40.2363 93.7732 42.4605 95.9261 42.3368 99.2749C42.2133 102.624 43.8195 105.375 47.7737 104.418C51.7279 103.461 56.7939 107.408 58.2768 108.963C59.7595 110.518 62.3545 112.671 65.0729 110.159C67.7914 107.647 74.5874 108.006 77.553 110.159C80.5186 112.312 84.5551 115.78 88.3444 108.445C84.761 107.249 59.0183 105.415 47.8973 89.7064C41.033 80.0111 43.7119 72.0282 47.7737 69.8521Z" fill="#FFF5DC"/>
<path d="M52.923 74.6323C52.923 74.6323 70.3891 93.4531 132.007 93.4531C162.655 93.4531 194.943 81.6521 204.664 66.9805C210.265 73.2 191.813 103.659 131.513 103.659C65.6112 103.659 45.2779 87.4852 52.923 74.6323Z" fill="#FF8A24"/>
<path d="M52.9219 74.6328C50.432 78.8189 50.9129 83.3568 54.9661 87.5739C52.4234 82.7307 54.2882 79.2711 56.1821 77.276C53.8931 75.6785 52.9219 74.6328 52.9219 74.6328Z" fill="#FFF5DC"/>
<path d="M208.947 62.5159C213.396 57.2533 223.116 65.5459 220.151 70.0112C217.185 74.4765 213.561 78.6228 214.714 81.3339C215.867 84.045 216.856 90.105 213.561 90.5833C210.265 91.0617 200.875 91.2212 199.227 96.8029C197.579 102.385 196.426 105.414 191.813 104.777C187.2 104.139 183.081 106.531 181.434 109.401C179.786 112.272 172.207 108.126 168.418 105.893C181.763 103.182 192.549 97.5348 201.039 89.786C211.223 80.4909 216.197 71.4464 208.947 62.5159Z" fill="#FFF5DC"/>
<path d="M126.736 129.017C66.2709 129.017 55.7265 119.29 52.9258 114.186C55.5618 115.94 60.6693 118.173 63.6348 118.014C66.6004 117.854 67.9184 113.389 70.884 113.708C73.8496 114.027 76.8152 119.449 84.8881 118.811C92.961 118.173 95.2675 112.91 96.2561 109.561C111.249 110.997 134.479 111.316 148.483 109.402C161.861 107.574 167.924 114.665 175.832 116.419C183.741 118.173 185.059 112.432 187.2 111.475C189.342 110.518 193.955 111.953 198.074 110.199C202.193 108.445 204.335 99.3551 207.63 97.4414C209.442 103.821 198.568 129.017 126.736 129.017Z" fill="#FF8A24"/>
<path d="M126.569 85.9611C167.099 85.9611 208.946 69.057 208.946 46.8901C208.946 24.7232 177.148 7.5 125.91 7.5C74.6714 7.5 49.6289 30.4642 49.6289 50.7174C49.6289 70.9707 71.8707 85.9611 126.569 85.9611Z" fill="#FF8A24"/>
<path d="M49.6289 50.7168C49.6289 56.0531 51.1753 61.0235 54.4504 65.4514C48.6494 51.6524 54.1146 20.0147 110.576 8.23828C69.6717 12.3153 49.6289 32.5994 49.6289 50.7168Z" fill="#FFF5DC"/>
<path d="M131.481 76.329C110.287 76.329 85.5145 66.1226 77.1121 81.4321C68.7096 96.7416 84.526 114.922 129.174 114.922C173.823 114.922 185.85 92.1167 181.896 78.7211C190.298 67.2389 187.497 56.8732 177.612 54.0026C167.727 51.132 159.324 62.7737 155.7 71.8636C150.263 74.4154 143.343 76.329 131.481 76.329Z" fill="#101020"/>
<path d="M175.222 83.6652C176.581 87.8515 172.75 108.543 129.132 108.543C85.5129 108.543 80.9411 92.1572 82.3003 86.1769C83.6596 80.1967 95.3982 77.8046 105.531 80.077C115.663 82.3496 136.561 84.8313 149.529 80.0088C145.365 88.7952 133.827 92.8748 121.1 92.3965C108.372 91.9181 95.1511 89.8848 91.0734 88.2102C91.3206 91.5592 100.094 98.9747 122.953 98.9747C145.813 98.9747 160.641 95.8651 175.222 83.6652Z" fill="#FF8A24"/>
<path d="M149.398 89.1671C149.398 89.1671 155.824 86.0574 160.766 76.0105C165.709 65.9636 170.281 57.9501 176.459 59.6246C182.638 61.2992 185.603 75.4125 162.249 86.5358C165.956 83.1868 173.37 74.0969 173.494 67.997C170.775 72.9007 162.743 83.5455 149.398 89.1671Z" fill="#FFF5DC"/>
<path d="M100.091 28.4159C94.593 33.1694 92.8759 36.7254 91.9136 37.3752C90.2025 38.5307 84.9809 31.2401 95.0018 23.0866C105.023 14.9331 110.24 21.8124 109.308 23.1158C108.963 23.5973 104.411 24.6811 100.091 28.4159Z" fill="#101020"/>
<path d="M159.314 34.1946C153.949 29.301 150.141 27.951 149.389 27.0789C148.053 25.5281 155.108 19.8655 164.362 28.8283C173.616 37.7909 166.984 43.4136 165.562 42.6268C165.037 42.3359 163.53 38.0396 159.314 34.1946Z" fill="#101020"/>
<path d="M119.51 27.3291C110.75 26.4632 100.564 31.7397 98.9478 45.3389C97.3319 58.9383 106.075 66.5399 115.557 67.2751C125.04 68.0103 133.289 61.203 135.026 49.4548C136.763 37.7065 131.856 28.5494 119.51 27.3291Z" fill="#101020"/>
<path d="M118.835 34.7243C113.286 33.7989 106.644 39.4523 106.308 46.9824C105.972 54.5128 108.798 59.3587 116.231 60.3421C123.664 61.3256 127.008 53.2903 127.802 48.0764C128.597 42.8626 127.152 36.1112 118.835 34.7243Z" fill="#FFF5DC"/>
<path d="M121.014 40.8118C117.547 40.2594 114.167 43.269 113.796 46.8343C113.425 50.3996 114.828 53.9789 118.376 54.271C121.329 54.5143 124.122 52.8625 125.114 48.509C125.656 46.1296 125.378 41.5069 121.014 40.8118Z" fill="#101020"/>
<path d="M121.514 44.8906C121.506 45.8662 120.682 46.6509 119.674 46.643C118.666 46.6352 117.855 45.8378 117.863 44.8619C117.872 43.8862 118.695 43.1016 119.703 43.1094C120.711 43.1173 121.522 43.9149 121.514 44.8906Z" fill="#FFF5DC"/>
<path d="M145.412 32.2384C138.031 31.5319 129.451 35.822 128.092 46.885C126.734 57.9479 134.102 64.1339 142.091 64.7343C150.081 65.3347 157.029 59.7986 158.489 50.2416C159.95 40.6845 155.814 33.2338 145.412 32.2384Z" fill="#101020"/>
<path d="M144.847 38.253C140.171 37.4988 134.577 42.0964 134.296 48.2223C134.014 54.3481 136.397 58.2911 142.659 59.0928C148.921 59.8946 151.737 53.3586 152.405 49.1172C153.073 44.8758 151.854 39.3831 144.847 38.253Z" fill="#FFF5DC"/>
<path d="M142.734 43.3115C139.813 42.8613 136.966 45.3089 136.654 48.2092C136.342 51.1096 137.525 54.0215 140.514 54.2601C143.002 54.4587 145.355 53.1156 146.19 49.5742C146.646 47.6385 146.41 43.8778 142.734 43.3115Z" fill="#101020"/>
<path d="M142.851 47.2943C142.844 48.1681 142.106 48.8706 141.203 48.8634C140.301 48.8564 139.575 48.1422 139.582 47.2684C139.589 46.3946 140.327 45.6921 141.23 45.6993C142.133 45.7065 142.858 46.4206 142.851 47.2943Z" fill="#FFF5DC"/>
</svg>
