<svg width="190" height="256" viewBox="0 0 190 256" fill="none" xmlns="http://www.w3.org/2000/svg">
<path d="M143.361 32.6147C130.709 46.7474 122.163 41.6504 120.721 19.4094C112.42 40.1443 99.227 31.2893 93.5252 0C87.8235 31.2893 74.6307 40.1443 66.3292 19.4094C64.9004 41.6504 56.341 46.7474 43.6893 32.6147C50.2402 50.0031 48.3747 64.4063 40.7031 69.2068C56.2772 60.287 74.2965 55.1774 93.5252 55.1774C112.755 55.1774 130.787 60.287 146.347 69.2068C138.676 64.4189 136.784 50.0031 143.361 32.6147ZM70.8466 48.3038C69.0314 48.3038 67.5774 46.8363 67.5774 45.0346C67.5774 43.2328 69.0323 41.7654 70.8466 41.7654C72.6483 41.7654 74.1158 43.2328 74.1158 45.0346C74.1149 46.8373 72.6483 48.3038 70.8466 48.3038ZM93.5243 48.3038C92.5466 42.6754 90.5256 40.6196 85.7503 39.3512C90.5256 38.0943 92.5466 36.0259 93.5243 30.4101C94.5155 36.0259 96.523 38.0943 101.311 39.3512C96.524 40.6206 94.5155 42.6764 93.5243 48.3038ZM116.216 48.3038C114.415 48.3038 112.947 46.8363 112.947 45.0346C112.947 43.2328 114.415 41.7654 116.216 41.7654C118.018 41.7654 119.486 43.2328 119.486 45.0346C119.486 46.8373 118.018 48.3038 116.216 48.3038Z" fill="url(#paint0_linear_18_15658)"/>
<path d="M88.7409 216.267C93.2157 211.236 91.0247 202.438 83.1792 199.046C75.2979 195.636 65.8178 198.097 61.7371 197.784C56.9618 197.414 54.5273 194.245 55.1562 190.643C55.6557 187.79 57.5511 181.43 57.9781 178.37C58.4689 174.825 56.0218 172.982 56.3686 170.353C56.5879 168.706 58.096 167.809 59.8948 167.388C58.0448 166.473 56.8362 165.123 57.3425 162.806C58.0496 159.62 61.9574 156.22 62.4231 153.244C63.2085 148.234 58.0177 145.44 59.0891 141.596C60.2098 137.603 70.8337 137.065 78.9439 132.618C87.4367 127.969 83.2246 113.447 94.2639 101.445C88.8916 113.201 89.9011 127.209 97.424 144.138C101.011 152.178 109.535 165.539 111.649 175.993C114.703 191.009 109.177 209.229 88.7409 216.267Z" fill="url(#paint1_linear_18_15658)"/>
<path d="M124.611 221.887C157.956 163.314 89.699 138.886 104.329 96.4023C105.339 113.823 127.358 131.109 140.283 151.138C158.912 179.995 152.627 205.47 124.611 221.887Z" fill="url(#paint2_linear_18_15658)"/>
<path d="M188.005 176.164C183.208 206.784 164.197 231.659 138.747 245.089C165.229 223.912 175.836 194.138 173.961 166.107C173.963 166.094 173.963 166.094 173.964 166.082C173.113 153.22 169.628 140.715 163.853 129.595C152.279 107.341 131.68 90.4729 108.971 84.6609C94.9907 81.0894 80.201 81.6903 66.2422 87.8017C90.6887 74.8785 121.579 72.2923 150.983 86.8404C152.435 87.5495 153.867 88.3088 155.306 89.1068L155.331 89.1107C179.856 109.694 193.324 142.225 188.005 176.164Z" fill="url(#paint3_linear_18_15658)"/>
<path d="M138.748 245.087C138.734 245.098 138.734 245.098 138.719 245.108C121.35 254.269 100.983 258.125 80.0786 254.849C70.44 253.339 61.3763 250.407 53.0391 246.326C100.687 264.423 142.89 235.874 162.475 201.591C169.169 189.885 173.23 177.52 173.963 166.105C175.836 194.135 165.23 223.911 138.748 245.087Z" fill="url(#paint4_linear_18_15658)"/>
<path d="M155.306 89.1101C124.625 72.0694 91.8825 74.2479 66.2429 87.8049C55.731 93.3627 46.4045 100.838 38.9088 109.682C12.7223 140.611 8.77105 188.196 37.4906 216.016C17.9227 201.381 -2.45572 174.789 1.283 147.769C1.31391 147.487 1.35738 147.208 1.40182 146.928C2.69926 138.649 5.03717 130.795 8.25613 123.47C25.0794 85.1975 66.07 61.4735 109.316 68.2496C126.902 71.0058 142.596 78.4417 155.306 89.1101Z" fill="url(#paint5_linear_18_15658)"/>
<path d="M83.3013 243.54C62.2109 247.746 32.4422 236.461 18.3868 217.182C4.30818 197.862 -2.49009 173.234 1.27664 147.766C-2.45628 174.787 17.9182 201.377 37.4909 216.02C43.612 220.596 49.6461 224.007 54.8504 225.899C80.6639 235.287 110.79 232.982 120.942 202.297C119.359 227.04 102.093 239.789 83.3013 243.54Z" fill="url(#paint6_linear_18_15658)"/>
<path d="M88.7419 216.269C104.206 203.948 103.167 182.743 94.8146 161.147C86.8097 140.45 83.0082 114.833 94.2659 101.445C88.8936 113.201 89.9031 127.209 97.4259 144.138C101.013 152.178 109.537 165.539 111.651 175.993C114.704 191.011 109.178 209.231 88.7419 216.269Z" fill="url(#paint7_linear_18_15658)"/>
<path d="M124.611 221.887C157.956 163.314 89.699 138.886 104.329 96.4023C96.5127 127.995 177.789 175.423 124.611 221.887Z" fill="url(#paint8_linear_18_15658)"/>
<path d="M150.983 86.84C141.139 82.653 124.578 80.8397 108.971 84.6606C94.9907 81.089 80.201 81.6899 66.2422 87.8013C90.6878 74.8781 121.578 72.2929 150.983 86.84Z" fill="url(#paint9_linear_18_15658)"/>
<path d="M138.746 245.087C147.582 237.834 157.894 220.168 162.472 201.591C169.166 189.885 173.226 177.52 173.96 166.105C175.834 194.135 165.228 223.911 138.746 245.087Z" fill="url(#paint10_linear_18_15658)"/>
<path d="M37.4906 216.015C17.9227 201.38 -2.45572 174.789 1.283 147.768C1.31391 147.486 1.35738 147.207 1.40182 146.927C2.69926 138.649 5.03717 130.795 8.25613 123.469C4.90868 168.282 19.7099 201.947 37.4906 216.015Z" fill="url(#paint11_linear_18_15658)"/>
<path d="M66.3275 19.4102C68.1939 51.0211 53.4565 50.2367 43.6875 32.6155C56.3402 46.7482 64.8987 41.6512 66.3275 19.4102Z" fill="url(#paint12_linear_18_15658)"/>
<path d="M93.5241 0C89.2251 39.1531 72.3516 45.1389 66.3281 19.4094C74.6296 40.1453 87.8223 31.2893 93.5241 0Z" fill="url(#paint13_linear_18_15658)"/>
<path d="M120.72 19.4102C118.854 51.0211 133.591 50.2367 143.36 32.6155C130.707 46.7482 122.149 41.6512 120.72 19.4102Z" fill="url(#paint14_linear_18_15658)"/>
<path d="M93.5234 0C97.8225 39.1531 114.696 45.1389 120.719 19.4094C112.419 40.1453 99.2262 31.2893 93.5234 0Z" fill="url(#paint15_linear_18_15658)"/>
<defs>
<linearGradient id="paint0_linear_18_15658" x1="84.8266" y1="-9.07618" x2="94.9595" y2="75.2858" gradientUnits="userSpaceOnUse">
<stop offset="0.1902" stop-color="#D64545"/>
<stop offset="0.956" stop-color="#FDA158"/>
<stop offset="1" stop-color="#FFA659"/>
</linearGradient>
<linearGradient id="paint1_linear_18_15658" x1="87.4172" y1="85.7904" x2="82.7447" y2="215.91" gradientUnits="userSpaceOnUse">
<stop offset="0.1902" stop-color="#D64545"/>
<stop offset="0.956" stop-color="#FDA158"/>
<stop offset="1" stop-color="#FFA659"/>
</linearGradient>
<linearGradient id="paint2_linear_18_15658" x1="139.485" y1="212.806" x2="113.832" y2="78.624" gradientUnits="userSpaceOnUse">
<stop stop-color="#FF3E54"/>
<stop offset="0.6567" stop-color="#FF99A2"/>
<stop offset="1" stop-color="#FFCBCC"/>
</linearGradient>
<linearGradient id="paint3_linear_18_15658" x1="119.324" y1="52.0704" x2="142.429" y2="244.434" gradientUnits="userSpaceOnUse">
<stop offset="0.1902" stop-color="#D64545"/>
<stop offset="0.956" stop-color="#FDA158"/>
<stop offset="1" stop-color="#FFA659"/>
</linearGradient>
<linearGradient id="paint4_linear_18_15658" x1="189.081" y1="181.641" x2="62.7923" y2="268.465" gradientUnits="userSpaceOnUse">
<stop stop-color="#FF3E54"/>
<stop offset="0.6567" stop-color="#FF99A2"/>
<stop offset="1" stop-color="#FFCBCC"/>
</linearGradient>
<linearGradient id="paint5_linear_18_15658" x1="-3.64785" y1="178.062" x2="147.878" y2="78.6564" gradientUnits="userSpaceOnUse">
<stop stop-color="#FF3E54"/>
<stop offset="0.6567" stop-color="#FF99A2"/>
<stop offset="1" stop-color="#FFCBCC"/>
</linearGradient>
<linearGradient id="paint6_linear_18_15658" x1="111.846" y1="241.678" x2="-11.2024" y2="153.556" gradientUnits="userSpaceOnUse">
<stop stop-color="#D64545"/>
<stop offset="0.9456" stop-color="#FDA158"/>
<stop offset="1" stop-color="#FFA659"/>
</linearGradient>
<linearGradient id="paint7_linear_18_15658" x1="149.12" y1="93.2024" x2="35.1833" y2="231.821" gradientUnits="userSpaceOnUse">
<stop stop-color="#7B728C"/>
<stop offset="1" stop-color="#FFA659" stop-opacity="0"/>
</linearGradient>
<linearGradient id="paint8_linear_18_15658" x1="165.392" y1="97.975" x2="61.5252" y2="224.343" gradientUnits="userSpaceOnUse">
<stop stop-color="#7B728C"/>
<stop offset="1" stop-color="#FFA659" stop-opacity="0"/>
</linearGradient>
<linearGradient id="paint9_linear_18_15658" x1="69.9786" y1="50.548" x2="131.054" y2="108.682" gradientUnits="userSpaceOnUse">
<stop stop-color="#7B728C"/>
<stop offset="1" stop-color="#FFA659" stop-opacity="0"/>
</linearGradient>
<linearGradient id="paint10_linear_18_15658" x1="207.311" y1="145.298" x2="104.292" y2="270.634" gradientUnits="userSpaceOnUse">
<stop stop-color="#7B728C"/>
<stop offset="1" stop-color="#FFA659" stop-opacity="0"/>
</linearGradient>
<linearGradient id="paint11_linear_18_15658" x1="10.9839" y1="279.631" x2="26.2198" y2="101.733" gradientUnits="userSpaceOnUse">
<stop stop-color="#7B728C"/>
<stop offset="1" stop-color="#FFA659" stop-opacity="0"/>
</linearGradient>
<linearGradient id="paint12_linear_18_15658" x1="57.3288" y1="73.807" x2="54.4807" y2="15.0934" gradientUnits="userSpaceOnUse">
<stop stop-color="#7B728C"/>
<stop offset="1" stop-color="#FFA659" stop-opacity="0"/>
</linearGradient>
<linearGradient id="paint13_linear_18_15658" x1="80.1205" y1="54.3346" x2="79.9014" y2="3.94594" gradientUnits="userSpaceOnUse">
<stop stop-color="#7B728C"/>
<stop offset="1" stop-color="#FFA659" stop-opacity="0"/>
</linearGradient>
<linearGradient id="paint14_linear_18_15658" x1="129.719" y1="73.807" x2="132.567" y2="15.0934" gradientUnits="userSpaceOnUse">
<stop stop-color="#7B728C"/>
<stop offset="1" stop-color="#FFA659" stop-opacity="0"/>
</linearGradient>
<linearGradient id="paint15_linear_18_15658" x1="106.928" y1="54.3346" x2="107.147" y2="3.94593" gradientUnits="userSpaceOnUse">
<stop stop-color="#7B728C"/>
<stop offset="1" stop-color="#FFA659" stop-opacity="0"/>
</linearGradient>
</defs>
</svg>
