<svg width="259" height="234" viewBox="0 0 259 234" fill="none" xmlns="http://www.w3.org/2000/svg">
<path d="M161.47 107.752L37.5039 21.3438" stroke="#545253" stroke-width="3" stroke-linecap="round" stroke-linejoin="round"/>
<path d="M44.636 11.2383L47.8451 28.4723L30.4922 31.4437" stroke="#545253" stroke-width="3" stroke-linecap="round" stroke-linejoin="round"/>
<path d="M56.5227 19.4375L59.7318 36.7904L42.3789 39.7618" stroke="#545253" stroke-width="3" stroke-linecap="round" stroke-linejoin="round"/>
<path d="M68.4055 27.7578L71.6146 45.1107L54.2617 48.0821" stroke="#545253" stroke-width="3" stroke-linecap="round" stroke-linejoin="round"/>
<path d="M245.619 76.1369C244.193 64.7268 239.795 54.6241 231.357 46.6607C211.864 28.357 182.626 28.4758 163.133 46.7796C161.707 48.087 160.638 49.6321 159.33 51.1772C158.736 50.583 158.617 50.4641 158.498 50.3452C158.102 50.0283 157.706 49.6717 157.31 49.2755C146.018 37.5088 132.35 31.9226 115.948 33.3489C96.3367 35.0129 79.9346 47.9681 74.3484 66.8662C69.1188 84.8134 72.209 101.929 81.5986 117.855C88.6111 130.097 98.4761 139.962 109.054 148.995C121.177 159.336 133.657 169.32 145.781 179.541C150.297 183.345 154.576 187.386 158.855 191.308C166.699 184.533 174.306 177.758 182.032 171.34C189.757 164.803 197.958 158.623 205.446 151.848C213.053 145.073 220.66 138.061 227.316 130.454C240.865 115.003 247.996 97.0555 245.619 76.1369Z" fill="url(#paint0_linear_19_17610)" stroke="#545253" stroke-width="3" stroke-linecap="round" stroke-linejoin="round"/>
<path d="M255.246 173.121L186.191 124.984" stroke="#545253" stroke-width="3" stroke-linecap="round" stroke-linejoin="round"/>
<path d="M252.634 152.559L256.675 174.071L235.043 177.875" stroke="#545253" stroke-width="3" stroke-linecap="round" stroke-linejoin="round"/>
<path d="M194.989 119.871C194.989 119.871 183.223 120.584 181.559 134.49" stroke="#545253" stroke-width="3" stroke-linecap="round" stroke-linejoin="round"/>
<path d="M8.97558 17.304C6.47961 18.4925 8.26245 22.2959 10.7584 21.1073C13.2544 20.0376 11.4715 16.1154 8.97558 17.304Z" fill="#545253"/>
<path d="M17.8896 0.187527C15.3937 1.37608 17.1765 5.2983 19.6725 4.10974C22.2873 2.92119 20.3856 -0.882173 17.8896 0.187527Z" fill="#545253"/>
<path d="M63.294 61.8743C60.6792 62.944 62.5809 66.8662 65.0768 65.6777C67.5728 64.608 65.79 60.6857 63.294 61.8743Z" fill="#545253"/>
<path d="M1.84677 34.0615C-0.649198 35.2501 1.2525 39.1723 3.74846 37.9837C6.24443 36.7952 4.46159 32.873 1.84677 34.0615Z" fill="#545253"/>
<path d="M22.6435 46.7819C20.1476 47.8516 21.9304 51.7739 24.4264 50.5853C27.0412 49.3968 25.1395 45.5934 22.6435 46.7819Z" fill="#545253"/>
<path d="M13.4951 61.8743C10.9991 62.944 12.782 66.8662 15.2779 65.6777C17.7739 64.608 15.9911 60.6857 13.4951 61.8743Z" fill="#545253"/>
<path d="M36.5498 61.8743C34.0538 62.944 35.8367 66.8662 38.3326 65.6777C40.8286 64.608 39.0458 60.6857 36.5498 61.8743Z" fill="#545253"/>
<path d="M197.247 194.281C195.227 192.379 192.374 195.588 194.395 197.49C196.415 199.273 199.268 196.064 197.247 194.281Z" fill="#545253"/>
<path d="M200.337 177.046C198.317 175.145 195.464 178.354 197.485 180.256C199.624 182.038 202.477 178.829 200.337 177.046Z" fill="#545253"/>
<path d="M163.728 229.578C161.707 227.676 158.855 230.885 160.875 232.787C162.896 234.57 165.748 231.479 163.728 229.578Z" fill="#545253"/>
<path d="M177.989 190.593C175.969 188.692 173.116 191.901 175.137 193.802C177.157 195.585 180.01 192.376 177.989 190.593Z" fill="#545253"/>
<path d="M178.349 210.796C176.328 208.895 173.476 212.104 175.496 214.006C177.517 215.788 180.488 212.579 178.349 210.796Z" fill="#545253"/>
<path d="M149.825 199.628C147.686 197.845 144.833 201.054 146.973 202.837C148.993 204.739 151.846 201.53 149.825 199.628Z" fill="#545253"/>
<path d="M161.708 212.109C159.688 210.207 156.835 213.416 158.856 215.318C160.876 217.101 163.729 213.892 161.708 212.109Z" fill="#545253"/>
<defs>
<linearGradient id="paint0_linear_19_17610" x1="238.91" y1="168.854" x2="185.812" y2="316.433" gradientUnits="userSpaceOnUse">
<stop stop-color="white"/>
<stop offset="1" stop-color="#545253"/>
</linearGradient>
</defs>
</svg>
