<svg width="258" height="179" viewBox="0 0 258 179" fill="none" xmlns="http://www.w3.org/2000/svg">
<g style="mix-blend-mode:multiply">
<path d="M83.5395 44.1172L87.0494 51.371L95.1222 52.541L89.2724 58.2738L90.6763 66.2296L83.5395 62.4857L76.2857 66.2296L77.6897 58.2738L71.8398 52.541L79.9126 51.371L83.5395 44.1172Z" fill="#E66444"/>
<path d="M83.5395 44.1172L87.0494 51.371L95.1222 52.541L89.2724 58.2738L90.6763 66.2296L83.5395 62.4857L76.2857 66.2296L77.6897 58.2738L71.8398 52.541L79.9126 51.371L83.5395 44.1172Z" stroke="#E66444" stroke-width="3" stroke-linecap="round" stroke-linejoin="round"/>
</g>
<g style="mix-blend-mode:multiply">
<path d="M120.51 2L128.232 17.6776L145.43 20.1345L133.029 32.3022L135.954 49.5007L120.51 41.4279L105.067 49.5007L107.991 32.3022L95.5898 20.1345L112.788 17.6776L120.51 2Z" fill="url(#paint0_linear_19_17603)" style="mix-blend-mode:multiply"/>
<path d="M120.51 2L128.232 17.6776L145.43 20.1345L133.029 32.3022L135.954 49.5007L120.51 41.4279L105.067 49.5007L107.991 32.3022L95.5898 20.1345L112.788 17.6776L120.51 2Z" stroke="#545253" stroke-width="3" stroke-linecap="round" stroke-linejoin="round"/>
</g>
<path d="M4.68359 99.927C14.1603 112.329 30.7739 121.103 49.8443 121.103C69.8508 121.22 87.2833 111.627 96.643 98.2891" stroke="#545253" stroke-width="3" stroke-linecap="round" stroke-linejoin="round"/>
<path d="M89.2695 107.883C92.7014 111.861 96.2503 115.761 99.9162 119.582Z" fill="#545253"/>
<path d="M89.2695 107.883C92.7014 111.861 96.2503 115.761 99.9162 119.582" stroke="#545253" stroke-width="3" stroke-linecap="round" stroke-linejoin="round"/>
<path d="M79.4453 114.551C82.0192 119.153 84.7102 123.677 87.5181 128.122Z" fill="#545253"/>
<path d="M79.4453 114.551C82.0192 119.153 84.7102 123.677 87.5181 128.122" stroke="#545253" stroke-width="3" stroke-linecap="round" stroke-linejoin="round"/>
<path d="M68.4492 119.113C70.0872 124.105 71.7641 129.097 73.4801 134.089Z" fill="#545253"/>
<path d="M68.4492 119.113C70.0872 124.105 71.7641 129.097 73.4801 134.089" stroke="#545253" stroke-width="3" stroke-linecap="round" stroke-linejoin="round"/>
<path d="M56.7461 121.453C57.2921 126.601 57.8771 131.788 58.501 137.014Z" fill="#545253"/>
<path d="M56.7461 121.453C57.2921 126.601 57.8771 131.788 58.501 137.014" stroke="#545253" stroke-width="3" stroke-linecap="round" stroke-linejoin="round"/>
<path d="M44.8137 121.453C44.2678 126.601 43.7218 131.788 43.1758 137.014Z" fill="#545253"/>
<path d="M44.8137 121.453C44.2678 126.601 43.7218 131.788 43.1758 137.014" stroke="#545253" stroke-width="3" stroke-linecap="round" stroke-linejoin="round"/>
<path d="M33.1129 119.113C31.5529 124.105 29.876 129.097 28.082 134.089Z" fill="#545253"/>
<path d="M33.1129 119.113C31.5529 124.105 29.876 129.097 28.082 134.089" stroke="#545253" stroke-width="3" stroke-linecap="round" stroke-linejoin="round"/>
<path d="M22.2327 114.551C19.5808 119.153 16.8509 123.677 14.043 128.122Z" fill="#545253"/>
<path d="M22.2327 114.551C19.5808 119.153 16.8509 123.677 14.043 128.122" stroke="#545253" stroke-width="3" stroke-linecap="round" stroke-linejoin="round"/>
<path d="M12.4043 107.883C8.97242 111.861 5.38452 115.761 1.64062 119.582Z" fill="#545253"/>
<path d="M12.4043 107.883C8.97242 111.861 5.38452 115.761 1.64062 119.582" stroke="#545253" stroke-width="3" stroke-linecap="round" stroke-linejoin="round"/>
<path d="M144.023 99.927C153.5 112.329 170.231 121.103 189.184 121.103C209.308 121.22 226.74 111.627 236.1 98.2891" stroke="#545253" stroke-width="3" stroke-linecap="round" stroke-linejoin="round"/>
<path d="M228.609 107.883C232.041 111.861 235.629 115.761 239.373 119.582Z" fill="#545253"/>
<path d="M228.609 107.883C232.041 111.861 235.629 115.761 239.373 119.582" stroke="#545253" stroke-width="3" stroke-linecap="round" stroke-linejoin="round"/>
<path d="M218.781 114.551C221.433 119.153 224.163 123.677 226.971 128.122Z" fill="#545253"/>
<path d="M218.781 114.551C221.433 119.153 224.163 123.677 226.971 128.122" stroke="#545253" stroke-width="3" stroke-linecap="round" stroke-linejoin="round"/>
<path d="M207.902 119.113C209.462 124.105 211.139 129.097 212.933 134.089Z" fill="#545253"/>
<path d="M207.902 119.113C209.462 124.105 211.139 129.097 212.933 134.089" stroke="#545253" stroke-width="3" stroke-linecap="round" stroke-linejoin="round"/>
<path d="M196.203 121.457C196.749 126.605 197.295 131.792 197.841 137.018Z" fill="#545253"/>
<path d="M196.203 121.457C196.749 126.605 197.295 131.792 197.841 137.018" stroke="#545253" stroke-width="3" stroke-linecap="round" stroke-linejoin="round"/>
<path d="M184.267 121.457C183.721 126.605 183.136 131.792 182.512 137.018Z" fill="#545253"/>
<path d="M184.267 121.457C183.721 126.605 183.136 131.792 182.512 137.018" stroke="#545253" stroke-width="3" stroke-linecap="round" stroke-linejoin="round"/>
<path d="M172.57 119.113C170.932 124.105 169.255 129.097 167.539 134.089Z" fill="#545253"/>
<path d="M172.57 119.113C170.932 124.105 169.255 129.097 167.539 134.089" stroke="#545253" stroke-width="3" stroke-linecap="round" stroke-linejoin="round"/>
<path d="M161.573 114.551C158.999 119.153 156.308 123.677 153.5 128.122Z" fill="#545253"/>
<path d="M161.573 114.551C158.999 119.153 156.308 123.677 153.5 128.122" stroke="#545253" stroke-width="3" stroke-linecap="round" stroke-linejoin="round"/>
<path d="M151.744 107.883C148.312 111.861 144.764 115.761 141.098 119.582Z" fill="#545253"/>
<path d="M151.744 107.883C148.312 111.861 144.764 115.761 141.098 119.582" stroke="#545253" stroke-width="3" stroke-linecap="round" stroke-linejoin="round"/>
<path d="M256.459 131.751C254.002 130.698 252.13 134.442 254.704 135.612C257.161 136.782 258.916 132.921 256.459 131.751Z" fill="#545253"/>
<path d="M254.352 114.667C251.895 113.497 250.14 117.358 252.597 118.528C255.054 119.581 256.809 115.837 254.352 114.667Z" fill="#545253"/>
<path d="M235.165 174.688C232.708 173.635 230.953 177.496 233.41 178.549C235.867 179.719 237.622 175.858 235.165 174.688Z" fill="#545253"/>
<path d="M237.272 133.972C234.815 132.802 232.943 136.663 235.517 137.716C237.974 138.886 239.728 135.025 237.272 133.972Z" fill="#545253"/>
<path d="M243.473 152.812C241.017 151.642 239.262 155.503 241.718 156.673C244.175 157.726 245.93 153.982 243.473 152.812Z" fill="#545253"/>
<path d="M213.402 150.703C210.828 149.533 209.073 153.394 211.53 154.447C214.104 155.617 215.859 151.756 213.402 150.703Z" fill="#545253"/>
<path d="M228.145 158.894C225.688 157.724 223.933 161.585 226.39 162.755C228.847 163.808 230.602 160.064 228.145 158.894Z" fill="#545253"/>
<path d="M78.2739 29.3772C76.2849 27.5053 73.477 30.6642 75.466 32.5361C77.4549 34.2911 80.3798 31.1322 78.2739 29.3772Z" fill="#545253"/>
<path d="M81.4322 12.4136C79.3263 10.5416 76.5183 13.7005 78.5073 15.4555C80.6132 17.3274 83.4211 14.1685 81.4322 12.4136Z" fill="#545253"/>
<path d="M45.2778 64.1233C43.2888 62.2514 40.4809 65.4103 42.4699 67.2822C44.4588 69.0372 47.3837 65.8783 45.2778 64.1233Z" fill="#545253"/>
<path d="M59.3168 25.7522C57.3279 23.8803 54.52 27.0392 56.5089 28.9111C58.4979 30.6661 61.3058 27.5072 59.3168 25.7522Z" fill="#545253"/>
<path d="M59.6684 45.6401C57.6795 43.7682 54.8715 46.9271 56.8605 48.682C58.9664 50.554 61.7743 47.3951 59.6684 45.6401Z" fill="#545253"/>
<path d="M31.5889 34.6395C29.483 32.8846 26.6751 35.9265 28.781 37.7984C30.77 39.6704 33.5779 36.5115 31.5889 34.6395Z" fill="#545253"/>
<path d="M43.2895 46.9241C41.3006 45.0522 38.4926 48.2111 40.4816 50.083C42.4705 51.838 45.2784 48.6791 43.2895 46.9241Z" fill="#545253"/>
<defs>
<linearGradient id="paint0_linear_19_17603" x1="143.402" y1="31.9243" x2="142.596" y2="78.6329" gradientUnits="userSpaceOnUse">
<stop stop-color="white"/>
<stop offset="1" stop-color="#545253"/>
</linearGradient>
</defs>
</svg>
