<svg width="260" height="247" viewBox="0 0 260 247" fill="none" xmlns="http://www.w3.org/2000/svg">
<path d="M242.541 4.03516L14.7812 231.794" stroke="#545253" stroke-width="3" stroke-linecap="round" stroke-linejoin="round"/>
<path d="M207.469 2.18458L244.752 2L244.383 39.0986" stroke="#545253" stroke-width="3" stroke-linecap="round" stroke-linejoin="round"/>
<path d="M1.67578 218.864L27.8847 218.68L27.7001 244.889" stroke="#545253" stroke-width="3" stroke-linecap="round" stroke-linejoin="round"/>
<path d="M16.9961 203.552L43.205 203.367L43.0205 229.576" stroke="#545253" stroke-width="3" stroke-linecap="round" stroke-linejoin="round"/>
<path d="M32.1289 188.411L58.3379 188.227L58.1532 214.435" stroke="#545253" stroke-width="3" stroke-linecap="round" stroke-linejoin="round"/>
<path d="M16.8164 4.03516L244.76 231.794" stroke="#545253" stroke-width="3" stroke-linecap="round" stroke-linejoin="round"/>
<path d="M14.9659 39.0986L14.7812 2L51.8799 2.18458" stroke="#545253" stroke-width="3" stroke-linecap="round" stroke-linejoin="round"/>
<path d="M231.653 244.889L231.469 218.68L257.678 218.864" stroke="#545253" stroke-width="3" stroke-linecap="round" stroke-linejoin="round"/>
<path d="M216.517 229.576L216.332 203.367L242.541 203.552" stroke="#545253" stroke-width="3" stroke-linecap="round" stroke-linejoin="round"/>
<path d="M201.192 214.435L201.008 188.227L227.217 188.411" stroke="#545253" stroke-width="3" stroke-linecap="round" stroke-linejoin="round"/>
<path d="M225.198 80.8095C221.322 78.9638 218.553 85.0546 222.429 86.7157C226.305 88.5614 229.074 82.4706 225.198 80.8095Z" fill="#545253"/>
<path d="M221.87 53.6763C217.994 51.8306 215.225 57.9214 219.101 59.7671C222.977 61.6128 225.746 55.522 221.87 53.6763Z" fill="#545253"/>
<path d="M191.604 148.543C187.728 146.698 184.96 152.789 188.836 154.634C192.712 156.295 195.48 150.389 191.604 148.543Z" fill="#545253"/>
<path d="M194.924 84.1294C191.048 82.2837 188.28 88.3745 192.156 90.2202C196.032 91.8813 198.8 85.9751 194.924 84.1294Z" fill="#545253"/>
<path d="M204.706 113.852C200.83 112.006 198.061 118.097 201.937 119.943C205.813 121.789 208.582 115.698 204.706 113.852Z" fill="#545253"/>
<path d="M157.272 110.528C153.396 108.682 150.628 114.773 154.504 116.619C158.379 118.28 161.148 112.374 157.272 110.528Z" fill="#545253"/>
<path d="M180.719 123.446C176.658 121.6 173.89 127.691 177.766 129.537C181.826 131.382 184.595 125.291 180.719 123.446Z" fill="#545253"/>
</svg>
