<svg width="224" height="260" viewBox="0 0 224 260" fill="none" xmlns="http://www.w3.org/2000/svg">
<path d="M34.457 223.937L128.135 61.7422L221.814 223.937H34.457Z" stroke="#545253" stroke-width="3" stroke-linecap="round" stroke-linejoin="round"/>
<path d="M34.457 223.934L128.135 257.998L221.814 223.934H34.457Z" fill="url(#paint0_linear_19_17608)" stroke="#545253" stroke-width="3" stroke-linecap="round" stroke-linejoin="round"/>
<path d="M128.136 143.809C112.652 143.809 99.3613 152.97 93.4258 166.26C99.3613 179.422 112.652 188.712 128.136 188.712C143.62 188.712 156.91 179.422 162.846 166.26C156.91 152.97 143.62 143.809 128.136 143.809Z" stroke="#545253" stroke-width="3" stroke-linecap="round" stroke-linejoin="round"/>
<path d="M142.587 166.268C142.587 174.268 136.135 180.72 128.135 180.72C120.135 180.72 113.684 174.268 113.684 166.268C113.684 158.268 120.135 151.688 128.135 151.688C136.135 151.688 142.587 158.268 142.587 166.268Z" fill="#545253" stroke="#545253" stroke-width="3" stroke-linecap="round" stroke-linejoin="round"/>
<path d="M133.299 166.259C133.299 169.098 130.977 171.291 128.138 171.291C125.299 171.291 122.977 169.098 122.977 166.259C122.977 163.42 125.299 161.098 128.138 161.098C130.977 161.098 133.299 163.42 133.299 166.259Z" fill="white"/>
<path d="M108.011 133.613C105.43 134.646 102.979 135.936 100.656 137.484" stroke="#545253" stroke-width="3" stroke-linecap="round" stroke-linejoin="round"/>
<path d="M155.621 136.584C155.621 136.584 135.621 127.68 116.008 131.422" stroke="#545253" stroke-width="3" stroke-linecap="round" stroke-linejoin="round"/>
<path d="M72.9102 21.4883C78.5016 28.4561 84.0931 35.3809 89.6845 42.2627" stroke="#545253" stroke-width="3" stroke-linecap="round" stroke-linejoin="round"/>
<path d="M128.141 2C128.141 10.9463 128.141 19.8926 128.141 28.8389" stroke="#545253" stroke-width="3" stroke-linecap="round" stroke-linejoin="round"/>
<path d="M183.368 21.4883C177.777 28.4561 172.185 35.3809 166.594 42.2627" stroke="#545253" stroke-width="3" stroke-linecap="round" stroke-linejoin="round"/>
<path d="M9.55509 197.737C6.84538 199.027 8.78089 203.156 11.4906 201.995C14.3293 200.704 12.2648 196.446 9.55509 197.737Z" fill="#545253"/>
<path d="M19.3637 179.157C16.654 180.447 18.5895 184.705 21.2992 183.415C24.0089 182.125 22.0734 177.995 19.3637 179.157Z" fill="#545253"/>
<path d="M68.5277 246.128C65.818 247.418 67.7535 251.547 70.4632 250.257C73.1729 249.095 71.2374 244.837 68.5277 246.128Z" fill="#545253"/>
<path d="M1.94571 215.936C-0.763991 217.226 1.17151 221.484 3.88121 220.194C6.59091 218.904 4.65541 214.646 1.94571 215.936Z" fill="#545253"/>
<path d="M24.5277 229.739C21.818 230.9 23.7535 235.158 26.4632 233.868C29.1729 232.578 27.2374 228.449 24.5277 229.739Z" fill="#545253"/>
<path d="M14.4627 246.128C11.753 247.418 13.8175 251.547 16.5272 250.257C19.2369 249.095 17.1724 244.837 14.4627 246.128Z" fill="#545253"/>
<path d="M39.4939 246.128C36.7842 247.418 38.8488 251.547 41.5585 250.257C44.2682 249.095 42.3327 244.837 39.4939 246.128Z" fill="#545253"/>
<defs>
<linearGradient id="paint0_linear_19_17608" x1="125.037" y1="249.318" x2="125.037" y2="180.101" gradientUnits="userSpaceOnUse">
<stop stop-color="white"/>
<stop offset="1" stop-color="#545253"/>
</linearGradient>
</defs>
</svg>
