<svg width="257" height="254" viewBox="0 0 257 254" fill="none" xmlns="http://www.w3.org/2000/svg">
<path opacity="0.5" fill-rule="evenodd" clip-rule="evenodd" d="M139.971 11.0511L140.53 11.121C140.53 10.9811 140.53 10.8413 140.53 10.7014C141.509 5.3156 146.685 1.67845 152.071 2.65768C157.457 3.56697 161.024 8.7429 160.115 14.1287C160.068 14.2686 160.045 14.4085 160.045 14.5483L160.534 14.6882C160.581 14.5483 160.628 14.4084 160.674 14.2686C162.493 9.16257 168.228 6.50466 173.334 8.39318C178.51 10.2117 181.168 15.9472 179.28 21.0532C179.233 21.1931 179.186 21.333 179.14 21.4729L179.629 21.6827C179.676 21.5428 179.723 21.4263 179.769 21.333C182.567 16.5767 188.582 14.968 193.339 17.6959C198.095 20.4237 199.704 26.509 196.976 31.1953C196.929 31.3352 196.859 31.4751 196.766 31.6149L197.186 31.8947C197.279 31.8015 197.372 31.6849 197.465 31.545C200.963 27.3483 207.258 26.7887 211.454 30.3559C215.651 33.8532 216.141 40.1482 212.644 44.3449C212.55 44.4382 212.457 44.5314 212.364 44.6247L212.713 44.9744C212.807 44.8812 212.923 44.7879 213.063 44.6947C217.26 41.1974 223.485 41.757 227.052 45.9537C230.549 50.1504 229.99 56.3755 225.793 59.9427C225.7 60.036 225.583 60.1059 225.444 60.1525L225.793 60.5722C225.886 60.5256 226.003 60.4556 226.143 60.3623C230.899 57.6345 236.915 59.2432 239.712 63.9995C242.44 68.7558 240.761 74.841 236.075 77.5688C235.935 77.6155 235.795 77.6854 235.655 77.7787L235.935 78.1983C236.029 78.1517 236.145 78.1051 236.285 78.0585C241.461 76.1699 247.126 78.8279 249.015 84.0038C250.904 89.1797 248.246 94.8453 243.07 96.7338C242.93 96.7804 242.79 96.827 242.65 96.8737C242.697 97.0136 242.743 97.1768 242.79 97.3633C242.93 97.3167 243.07 97.2934 243.21 97.2934C248.595 96.3141 253.771 99.9513 254.681 105.337C255.66 110.723 252.093 115.829 246.637 116.808C246.497 116.855 246.357 116.878 246.217 116.878C246.264 117.064 246.287 117.228 246.287 117.368C246.427 117.368 246.567 117.368 246.707 117.368C252.163 117.368 256.639 121.844 256.639 127.3C256.639 132.755 252.163 137.232 246.707 137.232C246.567 137.232 246.427 137.232 246.287 137.232V137.722C246.38 137.722 246.497 137.745 246.637 137.792C252.093 138.701 255.66 143.877 254.681 149.263C253.771 154.648 248.595 158.285 243.21 157.306C243.07 157.306 242.953 157.283 242.86 157.236L242.72 157.726C242.813 157.773 242.93 157.819 243.07 157.866C248.246 159.754 250.904 165.42 249.015 170.596C247.126 175.702 241.461 178.36 236.285 176.541C236.145 176.494 236.029 176.448 235.935 176.401L235.725 176.821C235.819 176.914 235.935 176.984 236.075 177.031C240.761 179.759 242.44 185.844 239.712 190.6C236.915 195.286 230.899 196.965 226.143 194.237C226.003 194.144 225.886 194.051 225.793 193.957L225.444 194.377C225.583 194.47 225.7 194.564 225.793 194.657C229.99 198.224 230.549 204.449 227.052 208.646C223.485 212.843 217.26 213.402 213.063 209.905C212.923 209.812 212.807 209.695 212.713 209.555L212.364 209.975C212.457 210.068 212.55 210.161 212.644 210.255C216.141 214.451 215.651 220.746 211.454 224.244C207.258 227.741 200.963 227.251 197.465 223.055C197.372 222.915 197.279 222.798 197.186 222.705L196.766 222.985C196.859 223.125 196.929 223.241 196.976 223.334C199.704 228.091 198.095 234.176 193.339 236.904C188.582 239.632 182.567 238.023 179.769 233.267C179.723 233.173 179.676 233.057 179.629 232.917C179.443 232.963 179.28 233.033 179.14 233.127C179.186 233.267 179.233 233.406 179.28 233.546C181.168 238.652 178.51 244.388 173.334 246.206C168.228 248.095 162.493 245.437 160.674 240.331C160.628 240.191 160.581 240.051 160.534 239.911C160.348 239.958 160.185 240.005 160.045 240.051C160.045 240.191 160.068 240.331 160.115 240.471C161.024 245.857 157.457 250.963 152.071 251.942C146.685 252.921 141.509 249.284 140.53 243.898C140.53 243.758 140.53 243.618 140.53 243.479C140.344 243.479 140.157 243.502 139.971 243.548C139.971 243.688 139.971 243.828 139.971 243.968C139.971 249.424 135.564 253.9 130.038 253.9C124.583 253.9 120.176 249.424 120.176 243.968C120.176 243.828 120.176 243.688 120.176 243.548L119.617 243.479C119.617 243.618 119.617 243.758 119.617 243.898C118.637 249.284 113.461 252.921 108.076 251.942C102.69 250.963 99.1227 245.857 100.032 240.471C100.079 240.331 100.102 240.191 100.102 240.051L99.6123 239.911C99.5657 240.051 99.5191 240.191 99.4724 240.331C97.6539 245.437 91.9184 248.095 86.8124 246.206C81.6364 244.388 78.9785 238.652 80.8671 233.546C80.9137 233.406 80.9603 233.267 81.0069 233.127L80.5173 232.917C80.4707 233.057 80.4241 233.173 80.3774 233.267C77.5796 238.023 71.5644 239.632 66.8081 236.904C62.0518 234.176 60.4431 228.091 63.171 223.334C63.2176 223.241 63.2875 223.125 63.3808 222.985L62.9611 222.705C62.8679 222.798 62.7746 222.915 62.6813 223.055C59.1841 227.251 52.889 227.811 48.6923 224.244C44.4956 220.746 44.006 214.451 47.5033 210.255C47.5965 210.161 47.6898 210.068 47.783 209.975L47.4333 209.555C47.3401 209.695 47.2235 209.812 47.0836 209.905C42.8869 213.402 36.6618 212.843 33.0946 208.646C29.5973 204.449 30.1569 198.224 34.3536 194.657C34.4468 194.564 34.5634 194.47 34.7033 194.377L34.3536 193.957C34.2603 194.051 34.1437 194.144 34.0039 194.237C29.2476 196.965 23.2323 195.356 20.5045 190.6C17.7067 185.844 19.3853 179.759 24.0717 177.031C24.2116 176.984 24.3514 176.914 24.4913 176.821C24.3981 176.681 24.3281 176.518 24.2815 176.331C24.1416 176.425 24.0017 176.494 23.8618 176.541C18.6859 178.36 13.0203 175.702 11.1318 170.596C9.24331 165.42 11.9012 159.754 17.0772 157.866C17.2171 157.819 17.3569 157.773 17.4968 157.726C17.4502 157.586 17.4036 157.423 17.3569 157.236C17.217 157.283 17.0772 157.306 16.9373 157.306C11.5515 158.285 6.37556 154.648 5.46628 149.263C4.48705 143.877 8.05424 138.701 13.51 137.792C13.6498 137.745 13.7897 137.722 13.9296 137.722C13.883 137.535 13.8597 137.372 13.8597 137.232C13.7198 137.232 13.5799 137.232 13.44 137.232C7.98429 137.232 3.50781 132.755 3.50781 127.3C3.50781 121.844 7.98429 117.368 13.44 117.368C13.5799 117.368 13.7198 117.368 13.8597 117.368V116.878C13.7664 116.831 13.6498 116.808 13.51 116.808C8.05424 115.829 4.48705 110.723 5.46628 105.337C6.37556 99.9513 11.5515 96.3141 16.9373 97.2934C17.0772 97.2934 17.1937 97.3167 17.287 97.3633L17.4269 96.8737C17.3336 96.827 17.2171 96.7804 17.0772 96.7338C11.9012 94.8453 9.24331 89.1797 11.1318 84.0038C13.0203 78.8279 18.6859 76.1699 23.8618 78.0585C24.0017 78.1051 24.1183 78.1517 24.2116 78.1983L24.4214 77.7787C24.3281 77.6854 24.2116 77.6155 24.0717 77.5688C19.3853 74.841 17.7067 68.7558 20.5045 63.9995C23.2323 59.2432 29.2476 57.6345 34.0039 60.3623C34.1437 60.4556 34.2603 60.5256 34.3536 60.5722L34.7033 60.1525C34.5634 60.1059 34.4468 60.036 34.3536 59.9427C30.1569 56.3755 29.5973 50.1504 33.0946 45.9537C36.6618 41.757 42.8869 41.1974 47.0836 44.6947C47.2235 44.7879 47.3401 44.8812 47.4333 44.9744L47.783 44.6247C47.6898 44.5314 47.5965 44.4382 47.5033 44.3449C44.006 40.1482 44.4956 33.8532 48.6923 30.3559C52.889 26.7887 59.1841 27.3483 62.6813 31.545C62.7746 31.6849 62.8679 31.8015 62.9611 31.8947L63.3808 31.6149C63.2875 31.4751 63.2176 31.3585 63.171 31.2652C60.4431 26.509 62.0518 20.4237 66.8081 17.6959C71.5644 14.968 77.5796 16.5767 80.3075 21.333C80.4008 21.4263 80.4707 21.5428 80.5173 21.6827L81.0069 21.4729C80.9603 21.333 80.9137 21.1931 80.8671 21.0532C78.9785 15.9472 81.6364 10.2117 86.8124 8.39318C91.9184 6.50466 97.6539 9.16257 99.4724 14.2686C99.5191 14.4084 99.5657 14.5483 99.6123 14.6882C99.7989 14.6416 99.9621 14.595 100.102 14.5483C100.102 14.4085 100.079 14.2686 100.032 14.1287C99.1227 8.7429 102.69 3.56697 108.076 2.65768C113.461 1.67845 118.637 5.3156 119.617 10.7014C119.617 10.8413 119.64 10.9811 119.687 11.121C119.826 11.121 119.99 11.0977 120.176 11.0511C120.176 10.9112 120.176 10.7713 120.176 10.6314C120.176 5.1757 124.583 0.699219 130.038 0.699219C135.564 0.699219 139.971 5.1757 139.971 10.6314C139.971 10.7713 139.971 10.9112 139.971 11.0511ZM108.565 6.5746C107.236 6.78443 106.327 8.04345 106.537 9.3724C106.817 10.7014 108.076 11.6107 109.405 11.4008C110.734 11.121 111.643 9.86202 111.363 8.53306C111.153 7.20411 109.894 6.29482 108.565 6.5746ZM87.9315 12.1702C86.6725 12.5899 85.973 13.9888 86.4627 15.2478C86.9523 16.5767 88.3512 17.2062 89.6102 16.7166C90.8692 16.297 91.4987 14.8981 91.079 13.5691C90.5894 12.3101 89.1905 11.6806 87.9315 12.1702ZM207.398 204.589C187.533 224.453 160.185 236.694 130.038 236.694C99.9621 236.694 72.6135 224.453 52.7491 204.589C32.9547 184.795 20.6444 157.446 20.6444 127.3C20.6444 97.1535 32.9547 69.8049 52.7491 50.0105C72.6135 30.1461 99.9621 17.9057 130.038 17.9057C160.185 17.9057 187.533 30.1461 207.398 50.0105C227.192 69.8049 239.502 97.1535 239.502 127.3C239.502 157.446 227.192 184.795 207.398 204.589ZM130.038 234.106C100.662 234.106 73.9425 222.145 54.6377 202.77C35.2629 183.396 23.2323 156.747 23.2323 127.3C23.2323 97.8529 35.2629 71.2038 54.6377 51.8291C73.9425 32.4543 100.662 20.4937 130.038 20.4937C159.485 20.4937 186.204 32.4543 205.509 51.8291C224.884 71.2038 236.915 97.8529 236.915 127.3C236.915 156.747 224.884 183.396 205.509 202.77C186.204 222.145 159.485 234.106 130.038 234.106ZM35.9623 48.6116C35.123 49.6608 35.2629 51.1996 36.3121 52.1088C37.3612 52.9482 38.9 52.8083 39.7394 51.7591C40.6486 50.7799 40.5088 49.2411 39.4596 48.3318C38.4104 47.4925 36.8716 47.6324 35.9623 48.6116ZM23.7919 66.1678C23.0924 67.3569 23.5121 68.8257 24.6312 69.5252C25.8203 70.2246 27.3591 69.8049 27.9886 68.6159C28.688 67.4268 28.2684 65.958 27.0793 65.2585C25.9602 64.629 24.4214 64.9787 23.7919 66.1678ZM14.769 85.5426C14.2794 86.8715 14.9788 88.2704 16.2378 88.6901C17.4968 89.1797 18.8957 88.4803 19.3853 87.2213C19.805 85.9623 19.1755 84.5634 17.9165 84.0737C16.6575 83.6541 15.2586 84.2836 14.769 85.5426ZM9.24331 106.246C9.03347 107.575 9.94276 108.834 11.2717 109.044C12.6007 109.324 13.8597 108.415 14.0695 107.086C14.3493 105.757 13.44 104.498 12.1111 104.218C10.7821 104.008 9.52309 104.917 9.24331 106.246ZM7.42474 127.51C7.42474 128.839 8.54386 129.958 9.87282 129.958C11.2717 129.958 12.3209 128.839 12.3209 127.51C12.3209 126.181 11.2717 125.062 9.87282 125.062C8.54386 125.062 7.42474 126.181 7.42474 127.51ZM9.3832 148.843C9.59304 150.172 10.8521 151.011 12.181 150.801C13.51 150.591 14.4192 149.263 14.1395 147.934C13.9296 146.605 12.6706 145.765 11.3417 145.975C10.0127 146.185 9.10342 147.514 9.3832 148.843ZM14.9089 169.477C15.3985 170.736 16.7974 171.365 18.0564 170.945C19.3154 170.456 20.0149 169.057 19.5252 167.798C19.0356 166.539 17.6367 165.839 16.3777 166.329C15.1187 166.749 14.4892 168.148 14.9089 169.477ZM24.0017 188.781C24.7012 189.971 26.17 190.39 27.3591 189.691C28.4782 189.061 28.8979 187.522 28.2684 186.333C27.5689 185.214 26.0301 184.795 24.911 185.494C23.7219 186.124 23.3023 187.662 24.0017 188.781ZM36.3121 206.268C37.1514 207.317 38.6902 207.457 39.7394 206.617C40.7885 205.708 40.9284 204.169 40.0191 203.12C39.1798 202.141 37.641 202.001 36.5918 202.84C35.5427 203.75 35.4028 205.289 36.3121 206.268ZM51.4202 221.376C52.4694 222.215 54.0082 222.145 54.8475 221.096C55.7568 220.047 55.6169 218.508 54.5677 217.599C53.5185 216.759 51.9797 216.899 51.1404 217.949C50.2311 218.998 50.371 220.537 51.4202 221.376ZM68.9764 233.616C70.0955 234.316 71.6343 233.896 72.3338 232.707C72.9633 231.518 72.5436 230.049 71.4245 229.35C70.2354 228.72 68.7666 229.07 68.0671 230.259C67.3677 231.448 67.7873 232.917 68.9764 233.616ZM88.3512 242.639C89.6102 243.059 91.0091 242.429 91.4987 241.17C91.9184 239.841 91.2889 238.442 90.0299 238.023C88.7708 237.533 87.3719 238.163 86.8823 239.492C86.3927 240.751 87.0922 242.15 88.3512 242.639ZM108.985 248.095C110.314 248.305 111.573 247.465 111.853 246.136C112.063 244.807 111.153 243.548 109.824 243.269C108.495 243.059 107.236 243.968 107.027 245.297C106.817 246.626 107.656 247.885 108.985 248.095ZM130.318 249.913C131.647 249.913 132.766 248.794 132.766 247.465C132.766 246.136 131.647 245.017 130.318 245.017C128.919 245.017 127.87 246.136 127.87 247.465C127.87 248.864 128.919 249.913 130.318 249.913ZM151.582 248.025C152.91 247.815 153.82 246.556 153.61 245.157C153.33 243.828 152.071 242.989 150.742 243.199C149.413 243.409 148.504 244.738 148.784 246.066C148.994 247.395 150.253 248.235 151.582 248.025ZM172.215 242.429C173.474 242.01 174.174 240.611 173.684 239.282C173.195 238.023 171.796 237.393 170.537 237.883C169.278 238.303 168.648 239.701 169.068 240.961C169.557 242.289 170.956 242.919 172.215 242.429ZM191.59 233.406C192.779 232.707 193.129 231.238 192.499 230.049C191.8 228.86 190.331 228.44 189.142 229.14C187.953 229.839 187.533 231.308 188.233 232.497C188.932 233.686 190.401 234.036 191.59 233.406ZM209.076 221.096C210.126 220.187 210.265 218.648 209.356 217.669C208.517 216.62 206.978 216.48 205.929 217.319C204.88 218.228 204.74 219.767 205.649 220.816C206.488 221.796 208.027 221.935 209.076 221.096ZM224.184 205.918C225.024 204.939 224.884 203.4 223.835 202.491C222.786 201.651 221.247 201.791 220.407 202.77C219.568 203.82 219.638 205.358 220.687 206.268C221.736 207.107 223.275 206.967 224.184 205.918ZM236.355 188.432C237.054 187.243 236.635 185.774 235.516 185.074C234.327 184.375 232.788 184.795 232.158 185.984C231.459 187.103 231.878 188.642 232.998 189.341C234.187 189.971 235.725 189.551 236.355 188.432ZM245.378 169.057C245.867 167.728 245.168 166.329 243.909 165.909C242.65 165.42 241.251 166.049 240.761 167.378C240.342 168.637 240.971 170.036 242.23 170.456C243.489 170.946 244.888 170.316 245.378 169.057ZM250.904 148.353C251.113 147.024 250.204 145.765 248.875 145.555C247.546 145.276 246.287 146.185 246.077 147.514C245.798 148.843 246.707 150.102 248.036 150.382C249.365 150.591 250.624 149.682 250.904 148.353ZM252.722 127.09C252.722 125.691 251.603 124.642 250.274 124.642C248.875 124.642 247.826 125.691 247.826 127.09C247.826 128.419 248.875 129.538 250.274 129.538C251.603 129.538 252.722 128.419 252.722 127.09ZM250.764 105.757C250.554 104.428 249.295 103.588 247.966 103.798C246.637 104.008 245.728 105.267 246.007 106.596C246.217 107.925 247.476 108.834 248.805 108.624C250.134 108.345 251.043 107.086 250.764 105.757ZM245.238 85.1229C244.748 83.8639 243.349 83.2344 242.09 83.6541C240.831 84.1437 240.132 85.5426 240.622 86.8016C241.111 88.0606 242.51 88.7601 243.769 88.2704C245.028 87.7808 245.658 86.3819 245.238 85.1229ZM236.145 65.7481C235.446 64.629 233.977 64.2093 232.788 64.9088C231.669 65.5383 231.249 67.0771 231.878 68.1962C232.578 69.3853 234.117 69.8049 235.236 69.1055C236.425 68.476 236.845 66.9372 236.145 65.7481ZM223.835 48.2619C222.995 47.2826 221.457 47.1427 220.407 47.9821C219.358 48.8914 219.218 50.4302 220.128 51.4094C220.967 52.4586 222.506 52.5985 223.555 51.7591C224.604 50.8498 224.744 49.311 223.835 48.2619ZM208.727 33.2237C207.677 32.3144 206.139 32.4543 205.299 33.5034C204.39 34.5526 204.53 36.0914 205.579 36.9308C206.628 37.84 208.167 37.7002 209.006 36.651C209.916 35.6018 209.776 34.063 208.727 33.2237ZM191.17 20.9833C190.051 20.2838 188.513 20.7035 187.813 21.8926C187.184 23.0117 187.533 24.5505 188.722 25.2499C189.911 25.8794 191.38 25.5297 192.08 24.3407C192.779 23.1516 192.359 21.6827 191.17 20.9833ZM171.796 11.9604C170.537 11.5407 169.138 12.1702 168.648 13.4292C168.228 14.6882 168.858 16.1571 170.117 16.5767C171.376 17.0664 172.775 16.3669 173.264 15.1079C173.754 13.8489 173.055 12.45 171.796 11.9604ZM151.162 6.50466C149.833 6.22488 148.574 7.13417 148.294 8.46312C148.084 9.79208 148.994 11.0511 150.323 11.3309C151.651 11.5407 152.91 10.6314 153.12 9.30246C153.33 7.97351 152.491 6.7145 151.162 6.50466ZM68.5567 21.1931C67.3677 21.8926 67.0179 23.3614 67.6474 24.5505C68.3469 25.7396 69.8157 26.0893 71.0048 25.4598C72.1939 24.7603 72.6135 23.2915 71.9141 22.1024C71.2146 20.9133 69.7458 20.5636 68.5567 21.1931ZM51.0705 33.5034C50.0213 34.3428 49.8814 35.8816 50.7907 36.9308C51.63 37.9799 53.1688 38.1198 54.218 37.2805C55.2672 36.3712 55.4071 34.8324 54.4978 33.7832C53.6584 32.734 52.1196 32.6641 51.0705 33.5034ZM129.829 4.68609C128.5 4.68609 127.381 5.73526 127.381 7.13416C127.381 8.46312 128.5 9.58224 129.829 9.58224C131.227 9.58224 132.277 8.46312 132.277 7.13416C132.277 5.73526 131.227 4.68609 129.829 4.68609Z" fill="#5F2B31"/>
<path fill-rule="evenodd" clip-rule="evenodd" d="M137.103 10.3519H137.593C137.64 10.212 137.663 10.0721 137.663 9.9322C138.642 4.54643 143.748 0.979229 149.204 1.88851C154.59 2.86775 158.157 8.04368 157.248 13.4294C157.201 13.5227 157.154 13.6393 157.108 13.7792L157.667 13.9191C157.667 13.7792 157.691 13.6626 157.737 13.5693C159.626 8.3934 165.361 5.73549 170.467 7.62401C175.643 9.51252 178.301 15.1781 176.413 20.354C176.366 20.4473 176.319 20.5639 176.273 20.7037L176.762 20.9136C176.809 20.8203 176.856 20.7037 176.902 20.5638C179.63 15.8076 185.715 14.1988 190.472 16.9267C195.228 19.6546 196.837 25.7398 194.109 30.4961C194.015 30.6359 193.945 30.7525 193.899 30.8458L194.318 31.1256C194.412 31.0323 194.505 30.939 194.598 30.8458C198.096 26.6491 204.321 26.0895 208.517 29.5868C212.714 33.154 213.274 39.3791 209.776 43.5758C209.683 43.669 209.59 43.7856 209.497 43.9255L209.846 44.2752C209.94 44.182 210.056 44.0887 210.196 43.9954C214.393 40.4282 220.618 40.9878 224.115 45.1845C227.682 49.3812 227.123 55.6763 222.926 59.1735C222.833 59.2668 222.716 59.36 222.576 59.4533L222.856 59.873C222.996 59.7797 223.136 59.7098 223.276 59.6631C227.962 56.9353 234.047 58.544 236.775 63.3003C239.503 67.9866 237.894 74.0718 233.138 76.7997C233.045 76.8929 232.928 76.9629 232.788 77.0095L232.998 77.4991C233.138 77.4525 233.278 77.4059 233.418 77.3592C238.524 75.4707 244.259 78.1286 246.148 83.3046C247.966 88.4106 245.308 94.1461 240.202 95.9646C240.063 96.0113 239.923 96.0579 239.783 96.1045C239.829 96.291 239.876 96.4542 239.923 96.5941C240.063 96.5941 240.202 96.5708 240.342 96.5242C245.728 95.6149 250.904 99.1821 251.813 104.568C252.793 109.954 249.155 115.13 243.77 116.039C243.63 116.085 243.49 116.109 243.35 116.109C243.35 116.295 243.373 116.482 243.42 116.668C243.56 116.668 243.7 116.668 243.84 116.668C249.295 116.668 253.772 121.075 253.772 126.531C253.772 132.056 249.295 136.463 243.84 136.463C243.7 136.463 243.56 136.463 243.42 136.463L243.35 136.952C243.49 136.999 243.63 137.022 243.77 137.022C249.155 138.002 252.793 143.108 251.813 148.563C250.904 153.949 245.728 157.516 240.342 156.607C240.202 156.56 240.063 156.514 239.923 156.467L239.783 157.027C239.923 157.073 240.063 157.12 240.202 157.167C245.308 158.985 247.966 164.721 246.148 169.827C244.259 175.003 238.524 177.66 233.418 175.772C233.278 175.725 233.138 175.679 232.998 175.632L232.788 176.122C232.928 176.168 233.045 176.215 233.138 176.262C237.894 179.059 239.503 185.075 236.775 189.831C234.047 194.587 227.962 196.196 223.276 193.468C223.136 193.421 222.996 193.351 222.856 193.258L222.576 193.678C222.716 193.771 222.833 193.864 222.926 193.958C227.123 197.455 227.682 203.75 224.115 207.947C220.618 212.143 214.393 212.633 210.196 209.136C210.056 209.042 209.94 208.949 209.846 208.856L209.497 209.206C209.59 209.299 209.683 209.415 209.776 209.555C213.274 213.752 212.714 219.977 208.517 223.544C204.321 227.042 198.096 226.482 194.598 222.285C194.505 222.192 194.412 222.076 194.318 221.936L193.899 222.215C193.945 222.355 194.015 222.495 194.109 222.635C196.837 227.391 195.228 233.407 190.472 236.204C185.715 238.932 179.63 237.254 176.902 232.567C176.856 232.427 176.786 232.288 176.692 232.148C176.552 232.241 176.413 232.334 176.273 232.427C176.319 232.521 176.366 232.637 176.413 232.777C178.301 237.953 175.643 243.619 170.467 245.507C165.361 247.396 159.626 244.738 157.737 239.562C157.691 239.422 157.667 239.282 157.667 239.142C157.481 239.235 157.294 239.282 157.108 239.282C157.154 239.422 157.201 239.562 157.248 239.702C158.157 245.088 154.59 250.263 149.204 251.243C143.748 252.152 138.642 248.585 137.663 243.129C137.663 242.989 137.64 242.849 137.593 242.709C137.453 242.756 137.29 242.779 137.103 242.779C137.103 242.919 137.103 243.059 137.103 243.199C137.103 248.655 132.697 253.131 127.171 253.131C121.716 253.131 117.239 248.655 117.239 243.199C117.286 243.059 117.309 242.919 117.309 242.779H116.749C116.749 242.873 116.726 242.989 116.679 243.129C115.77 248.585 110.594 252.152 105.208 251.173C99.8227 250.263 96.1856 245.088 97.1648 239.702C97.2114 239.562 97.2348 239.445 97.2348 239.352L96.7451 239.212C96.6985 239.305 96.6519 239.422 96.6052 239.562C94.7167 244.738 89.0512 247.396 83.8752 245.507C78.7693 243.619 76.1114 237.953 77.9999 232.777C78.0465 232.637 78.0931 232.521 78.1397 232.427L77.6501 232.218C77.6035 232.311 77.5336 232.427 77.4403 232.567C74.7124 237.254 68.6272 238.932 63.9409 236.204C59.1846 233.407 57.5759 227.391 60.3038 222.635C60.3504 222.495 60.4203 222.379 60.5136 222.285L60.0939 221.936C60.0007 222.076 59.9074 222.192 59.8142 222.285C56.3169 226.482 50.0218 227.042 45.8251 223.544C41.6284 219.977 41.0689 213.752 44.6361 209.555C44.7293 209.415 44.8226 209.299 44.9158 209.206L44.5661 208.856C44.4262 208.949 44.3096 209.042 44.2164 209.136C40.0197 212.633 33.7946 212.143 30.2274 207.947C26.7301 203.75 27.2897 197.455 31.4864 193.958C31.5797 193.864 31.6962 193.771 31.8361 193.678L31.4864 193.258C31.3931 193.351 31.2766 193.421 31.1367 193.468C26.3804 196.196 20.3651 194.587 17.5673 189.831C14.8395 185.075 16.4482 179.059 21.2045 176.262C21.3444 176.215 21.4609 176.168 21.5542 176.122C21.5076 175.935 21.4376 175.772 21.3444 175.632C21.2511 175.679 21.1345 175.725 20.9946 175.772C15.8187 177.66 10.1531 175.003 8.26463 169.827C6.37612 164.721 9.03403 158.985 14.21 157.167C14.3499 157.12 14.4664 157.073 14.5597 157.027C14.5131 156.84 14.4664 156.654 14.4198 156.467C14.3265 156.514 14.21 156.56 14.0701 156.607C8.68431 157.516 3.50837 153.949 2.52914 148.563C1.61985 143.108 5.18705 138.002 10.5728 137.022C10.7127 137.022 10.8759 136.999 11.0624 136.952C11.0158 136.813 10.9925 136.649 10.9925 136.463C10.8526 136.463 10.7127 136.463 10.5728 136.463C5.04716 136.463 0.640625 132.056 0.640625 126.531C0.640625 121.075 5.04716 116.668 10.5728 116.668C10.7127 116.668 10.8526 116.668 10.9925 116.668V116.109C10.8526 116.109 10.7127 116.085 10.5728 116.039C5.18705 115.13 1.61985 109.954 2.52914 104.568C3.50837 99.1821 8.68431 95.6149 14.0701 96.5242C14.1633 96.5708 14.2799 96.5941 14.4198 96.5941L14.5597 96.1045C14.4198 96.0579 14.3032 96.0113 14.21 95.9646C9.03403 94.1461 6.37612 88.4106 8.26463 83.2346C10.1531 78.1286 15.8187 75.4707 20.9946 77.3592C21.1345 77.4059 21.2511 77.4525 21.3444 77.4991L21.5542 77.0095C21.4609 76.9629 21.3444 76.8929 21.2045 76.7997C16.4482 74.0718 14.8395 67.9866 17.5673 63.3003C20.3651 58.544 26.3804 56.9353 31.1367 59.6631C31.2766 59.7098 31.3931 59.7797 31.4864 59.873L31.7662 59.4533C31.6729 59.36 31.5797 59.2668 31.4864 59.1735C27.2897 55.6763 26.7301 49.3812 30.2274 45.1845C33.7946 40.9878 40.0197 40.4282 44.2164 43.9954C44.3563 44.0887 44.4729 44.182 44.5661 44.2752L44.9158 43.9255C44.8226 43.7856 44.7293 43.669 44.6361 43.5758C41.0689 39.3791 41.6284 33.154 45.8251 29.5868C50.0218 26.0895 56.3169 26.6491 59.8142 30.8458C59.9074 30.939 60.0007 31.0323 60.0939 31.1256L60.5136 30.8458C60.4203 30.7525 60.3504 30.6359 60.3038 30.4961C57.5759 25.7398 59.1846 19.6546 63.9409 16.9267C68.6272 14.1988 74.7124 15.8076 77.4403 20.5638C77.5336 20.7037 77.6035 20.8203 77.6501 20.9136L78.1397 20.7037C78.0931 20.6105 78.0465 20.4939 77.9999 20.354C76.1114 15.1781 78.7693 9.51252 83.8752 7.62401C89.0512 5.73549 94.7167 8.3934 96.6052 13.5693C96.6519 13.7092 96.6985 13.8258 96.7451 13.9191C96.9317 13.8724 97.0949 13.8258 97.2348 13.7792C97.2348 13.6393 97.2114 13.5227 97.1648 13.4294C96.1856 8.04368 99.8227 2.86775 105.208 1.88851C110.594 0.979229 115.77 4.54643 116.679 9.9322C116.726 10.0721 116.749 10.212 116.749 10.3519C116.936 10.3519 117.122 10.3519 117.309 10.3519C117.309 10.212 117.286 10.0721 117.239 9.9322C117.239 4.40654 121.716 0 127.171 0C132.697 0 137.103 4.40654 137.103 9.9322C137.103 10.0721 137.103 10.212 137.103 10.3519ZM105.698 5.80544C104.369 6.08522 103.46 7.34423 103.67 8.67318C103.949 10.0021 105.208 10.9114 106.537 10.6316C107.866 10.4218 108.776 9.1628 108.496 7.83384C108.286 6.50489 107.027 5.59561 105.698 5.80544ZM85.0643 11.401C83.7353 11.8907 83.1059 13.2896 83.5955 14.5486C84.0151 15.8076 85.414 16.4371 86.743 16.0174C88.002 15.5278 88.6315 14.1289 88.2118 12.8699C87.7222 11.6109 86.3233 10.9114 85.0643 11.401ZM204.461 203.89C184.666 223.684 157.318 235.995 127.171 235.995C97.0949 235.995 69.7463 223.684 49.8819 203.89C30.0875 184.025 17.7772 156.677 17.7772 126.531C17.7772 96.4542 30.0875 69.0358 49.8819 49.2413C69.7463 29.4469 97.0949 17.1365 127.171 17.1365C157.318 17.1365 184.666 29.4469 204.461 49.2413C224.325 69.0358 236.635 96.4542 236.635 126.531C236.635 156.677 224.325 184.025 204.461 203.89ZM127.171 233.407C97.7943 233.407 71.0753 221.376 51.7005 202.001C32.3957 182.696 20.3651 155.977 20.3651 126.531C20.3651 97.1537 32.3957 70.4347 51.7005 51.0599C71.0753 31.7551 97.7943 19.7245 127.171 19.7245C156.618 19.7245 183.337 31.7551 202.642 51.0599C222.017 70.4347 233.977 97.1537 233.977 126.531C233.977 155.977 222.017 182.696 202.642 202.001C183.337 221.376 156.618 233.407 127.171 233.407ZM33.0951 47.9124C32.2558 48.9615 32.3957 50.5003 33.4449 51.3397C34.4241 52.249 36.0328 52.1091 36.8722 51.0599C37.7115 50.0107 37.5716 48.4719 36.5924 47.6326C35.5432 46.7233 34.0044 46.8632 33.0951 47.9124ZM20.8547 65.4686C20.2252 66.5877 20.6449 68.1265 21.764 68.756C22.9531 69.4554 24.4219 69.0358 25.1214 67.9167C25.8208 66.7276 25.4012 65.1888 24.2121 64.5593C23.023 63.8598 21.5542 64.2795 20.8547 65.4686ZM11.9018 84.8434C11.4122 86.1024 12.1116 87.5013 13.3706 87.9909C14.6296 88.4105 16.0285 87.7811 16.5182 86.522C16.9378 85.263 16.3083 83.7942 15.0493 83.3745C13.7903 82.8849 12.3214 83.5843 11.9018 84.8434ZM6.37612 105.477C6.16628 106.806 7.07556 108.065 8.40452 108.345C9.73348 108.555 10.9925 107.645 11.2023 106.316C11.4821 104.988 10.5728 103.729 9.24386 103.519C7.9149 103.239 6.6559 104.148 6.37612 105.477ZM4.55754 126.81C4.55754 128.139 5.67666 129.258 7.00562 129.258C8.40452 129.258 9.4537 128.139 9.4537 126.81C9.4537 125.411 8.40452 124.362 7.00562 124.362C5.67666 124.362 4.55754 125.411 4.55754 126.81ZM6.44606 148.074C6.72584 149.403 7.98485 150.312 9.31381 150.032C10.6428 149.822 11.5521 148.563 11.2723 147.234C11.0624 145.905 9.80343 144.996 8.47447 145.276C7.14551 145.486 6.23622 146.745 6.44606 148.074ZM12.0417 168.707C12.5313 169.967 13.9302 170.666 15.1892 170.176C16.4482 169.687 17.0777 168.288 16.658 167.029C16.1684 165.77 14.7695 165.14 13.5105 165.56C12.2515 166.05 11.552 167.448 12.0417 168.707ZM21.1345 188.082C21.764 189.271 23.3028 189.621 24.4919 188.992C25.611 188.292 26.0307 186.823 25.3312 185.634C24.7017 184.445 23.1629 184.025 21.9739 184.725C20.8547 185.424 20.4351 186.893 21.1345 188.082ZM33.3749 205.569C34.2842 206.618 35.823 206.758 36.8722 205.848C37.9213 205.009 38.0612 203.47 37.1519 202.421C36.3126 201.372 34.7738 201.232 33.7246 202.071C32.6755 202.981 32.5356 204.519 33.3749 205.569ZM48.553 220.677C49.6022 221.516 51.141 221.376 51.9803 220.327C52.8896 219.278 52.7497 217.739 51.7005 216.9C50.6513 216.06 49.1126 216.13 48.2732 217.179C47.3639 218.229 47.5038 219.767 48.553 220.677ZM66.1092 232.847C67.2283 233.547 68.7671 233.127 69.3966 232.008C70.0961 230.819 69.6764 229.28 68.5573 228.65C67.3682 227.951 65.8294 228.371 65.1999 229.56C64.5005 230.679 64.9201 232.218 66.1092 232.847ZM85.484 241.87C86.743 242.36 88.1419 241.66 88.6315 240.401C89.0512 239.142 88.4217 237.743 87.1627 237.254C85.9036 236.834 84.4348 237.463 84.0151 238.722C83.5255 239.981 84.225 241.38 85.484 241.87ZM106.118 247.396C107.447 247.606 108.706 246.696 108.986 245.367C109.195 244.038 108.286 242.779 106.957 242.569C105.628 242.29 104.369 243.199 104.159 244.528C103.88 245.857 104.789 247.116 106.118 247.396ZM127.451 249.214C128.78 249.214 129.899 248.095 129.899 246.766C129.899 245.367 128.78 244.318 127.451 244.318C126.052 244.318 125.003 245.367 125.003 246.766C125.003 248.095 126.052 249.214 127.451 249.214ZM148.714 247.326C150.043 247.046 150.953 245.787 150.673 244.458C150.463 243.129 149.204 242.22 147.875 242.5C146.546 242.709 145.637 243.968 145.847 245.297C146.126 246.626 147.385 247.536 148.714 247.326ZM169.348 241.73C170.607 241.24 171.237 239.842 170.817 238.583C170.327 237.324 168.928 236.624 167.669 237.114C166.41 237.603 165.711 239.002 166.201 240.261C166.69 241.52 168.089 242.15 169.348 241.73ZM188.723 232.637C189.842 231.938 190.262 230.469 189.632 229.28C188.933 228.161 187.394 227.741 186.275 228.441C185.086 229.07 184.666 230.609 185.366 231.728C186.065 232.917 187.534 233.337 188.723 232.637ZM206.209 220.327C207.188 219.488 207.328 217.949 206.489 216.9C205.65 215.85 204.041 215.711 203.062 216.62C202.012 217.459 201.873 218.998 202.712 220.047C203.621 221.096 205.16 221.236 206.209 220.327ZM221.247 205.219C222.157 204.17 222.017 202.631 220.968 201.792C219.918 200.882 218.38 201.022 217.54 202.071C216.631 203.12 216.771 204.659 217.82 205.499C218.869 206.408 220.408 206.268 221.247 205.219ZM233.488 187.663C234.187 186.474 233.768 185.005 232.578 184.305C231.459 183.676 229.921 184.025 229.291 185.215C228.592 186.404 229.011 187.872 230.13 188.572C231.319 189.271 232.858 188.852 233.488 187.663ZM242.511 168.288C242.93 167.029 242.301 165.63 241.042 165.14C239.783 164.721 238.384 165.35 237.894 166.609C237.405 167.868 238.104 169.267 239.363 169.757C240.622 170.246 242.021 169.547 242.511 168.288ZM247.966 147.654C248.246 146.325 247.337 144.996 246.008 144.786C244.679 144.576 243.42 145.416 243.14 146.745C242.93 148.074 243.84 149.403 245.169 149.612C246.498 149.822 247.757 148.983 247.966 147.654ZM249.855 126.321C249.785 124.992 248.736 123.873 247.337 123.873C246.008 123.873 244.889 124.992 244.889 126.321C244.889 127.65 246.008 128.769 247.337 128.769C248.736 128.769 249.785 127.65 249.855 126.321ZM247.896 105.057C247.687 103.729 246.428 102.819 245.099 103.029C243.77 103.309 242.86 104.568 243.07 105.897C243.35 107.226 244.609 108.135 245.938 107.855C247.267 107.645 248.176 106.386 247.896 105.057ZM242.371 84.4237C241.881 83.1647 240.482 82.4652 239.223 82.9548C237.964 83.3745 237.265 84.7734 237.754 86.1024C238.174 87.3614 239.643 87.9909 240.902 87.5712C242.161 87.0816 242.79 85.6827 242.371 84.4237ZM233.278 65.0489C232.578 63.8598 231.11 63.5101 229.921 64.1396C228.731 64.8391 228.382 66.3079 229.011 67.497C229.711 68.6861 231.18 69.0358 232.369 68.4063C233.558 67.7068 233.977 66.238 233.278 65.0489ZM220.968 47.5626C220.128 46.5135 218.589 46.3736 217.54 47.2829C216.491 48.1222 216.351 49.661 217.26 50.7102C218.1 51.7593 219.639 51.8992 220.688 50.9899C221.737 50.1506 221.877 48.6118 220.968 47.5626ZM205.859 32.4545C204.81 31.6152 203.271 31.7551 202.362 32.8042C201.523 33.7835 201.663 35.3222 202.712 36.2315C203.691 37.0709 205.3 36.931 206.139 35.9518C206.979 34.9026 206.909 33.3638 205.859 32.4545ZM188.303 20.2141C187.114 19.5846 185.645 20.0043 184.946 21.1234C184.316 22.3125 184.666 23.7813 185.855 24.4808C187.044 25.1802 188.513 24.7605 189.213 23.5715C189.912 22.3824 189.492 20.9136 188.303 20.2141ZM168.928 11.2612C167.669 10.7715 166.271 11.401 165.781 12.73C165.291 13.989 165.991 15.3879 167.25 15.8775C168.509 16.2972 169.908 15.6677 170.397 14.4087C170.817 13.0797 170.187 11.6808 168.928 11.2612ZM148.295 5.73549C146.966 5.52566 145.637 6.43495 145.427 7.76391C145.217 9.09286 146.056 10.3519 147.385 10.5617C148.714 10.7715 150.043 9.9322 150.253 8.60324C150.463 7.27429 149.624 6.01527 148.295 5.73549ZM65.6895 20.4939C64.5005 21.1234 64.0808 22.6622 64.7802 23.8513C65.4797 24.9704 66.9485 25.3901 68.1376 24.6906C69.3267 24.0611 69.6764 22.5223 69.0469 21.3332C68.3474 20.2141 66.8786 19.7945 65.6895 20.4939ZM48.2033 32.7343C47.1541 33.6436 47.0142 35.1824 47.9235 36.2315C48.7628 37.2807 50.3016 37.3507 51.3508 36.5113C52.4 35.672 52.5399 34.0632 51.6306 33.084C50.7912 32.0348 49.2524 31.8949 48.2033 32.7343ZM126.961 3.91693C125.632 3.91693 124.513 5.03605 124.513 6.365C124.513 7.69396 125.632 8.81308 126.961 8.81308C128.29 8.81308 129.409 7.69396 129.409 6.365C129.409 5.03605 128.29 3.91693 126.961 3.91693Z" fill="#FEFEFE"/>
<path d="M166.06 57.2844C165.431 36.3708 143.888 33.7129 134.375 36.2309L134.445 36.3708L134.515 36.3009C146.056 37.0003 154.449 42.1063 161.094 49.7303C153.82 42.3162 145.426 38.1195 135.424 38.5391C147.944 67.1467 152.701 46.5129 166.06 57.2844Z" fill="#8F4049"/>
<path d="M123.812 157.444C153.329 157.444 177.39 142.686 177.39 124.57C177.39 106.524 153.329 91.7656 123.812 91.7656C94.2951 91.7656 70.1641 106.524 70.1641 124.57C70.1641 142.686 94.2951 157.444 123.812 157.444Z" fill="#F6B096"/>
<path d="M131.508 46.9309C131.788 46.3714 132.347 40.7758 132.417 39.6567C132.627 37.6982 131.928 36.7889 133.676 35.5299C134.376 35.0403 134.795 35.32 135.565 35.5299C136.194 35.6698 137.034 36.7889 136.404 37.1386C136.194 37.2785 135.844 37.4883 135.425 38.0479C135.005 38.6075 135.005 38.8872 134.655 39.4468C134.515 39.7266 133.606 43.014 133.606 43.2238C133.606 43.7834 133.256 44.4828 133.047 45.3222C132.767 46.2315 132.627 47.0708 132.557 47.4905C132.557 47.9102 131.578 50.708 131.228 51.897C130.878 53.0861 130.669 53.2959 130.319 54.2052C129.969 55.0446 129.549 55.6741 129.13 56.5833C128.78 57.4926 128.081 58.7516 127.591 60.0107C127.031 61.2697 126.822 61.8292 126.612 62.5287C126.402 63.2981 125.702 64.4872 125.213 65.8161C124.653 67.0751 124.164 68.2642 124.094 68.7538C123.954 69.3133 123.464 70.9221 123.394 72.1811C123.254 73.5101 123.114 73.7898 123.184 74.5592C123.324 75.2587 123.184 75.3986 122.905 75.3986C122.695 75.4685 121.366 75.5385 120.317 75.5385C119.267 75.4685 119.827 74.6292 120.387 74.2095C121.016 73.7898 121.016 73.0204 121.436 72.4609C121.855 71.9013 121.716 70.7822 121.995 70.5724C122.275 70.2926 122.485 68.6139 122.905 67.9145C123.324 67.1451 123.814 64.9068 124.793 63.7178C125.702 62.5287 126.052 60.3604 126.542 59.8708C127.031 59.4511 128.78 54.6948 129.06 54.2052C129.34 53.7856 129.969 51.7572 130.319 51.1976C130.669 50.638 131.368 47.2107 131.508 46.9309Z" fill="#8F4049"/>
<path d="M91.5689 202.561H99.6126H107.656H115.7H123.814H131.857H139.901H147.945H155.988C166.76 174.956 177.508 147.375 188.233 119.816C182.847 119.816 177.531 125.552 172.146 125.552C166.76 125.552 161.374 119.816 155.988 119.816C150.672 119.816 145.287 125.552 139.901 125.552C134.515 125.552 129.129 119.816 123.814 119.816C118.428 119.816 113.042 125.552 107.656 125.552C102.27 125.552 96.9547 119.816 91.5689 119.816C86.1831 119.816 80.7974 125.552 75.4116 125.552C70.0958 125.552 64.71 119.816 59.3242 119.816C70.0958 147.375 80.844 174.956 91.5689 202.561Z" fill="#FEFEFE"/>
<path fill-rule="evenodd" clip-rule="evenodd" d="M91.1487 203.122L91.0088 202.772L58.8341 120.027L58.4844 119.258H59.3237C62.1215 119.258 64.9193 120.727 67.6472 122.196C70.3051 123.594 72.8931 124.993 75.4111 124.993C77.9991 124.993 80.587 123.594 83.2449 122.196C85.9728 120.727 88.7706 119.258 91.5684 119.258C94.3662 119.258 97.164 120.727 99.8919 122.196C102.48 123.594 105.138 124.993 107.656 124.993C110.244 124.993 112.832 123.594 115.49 122.196C118.217 120.727 120.945 119.258 123.813 119.258C126.611 119.258 129.339 120.727 132.137 122.196C134.725 123.594 137.382 124.993 139.9 124.993C142.418 124.993 145.076 123.594 147.664 122.196C150.462 120.727 153.19 119.258 155.988 119.258C158.856 119.258 161.583 120.727 164.311 122.196C166.969 123.594 169.557 124.993 172.145 124.993C174.663 124.993 177.321 123.594 179.909 122.196C182.707 120.727 185.435 119.258 188.232 119.258H189.072L188.792 120.027L156.547 202.772L156.407 203.122H91.1487ZM91.9181 202.003H155.638L187.393 120.447C185.085 120.657 182.777 121.916 180.399 123.175C177.671 124.644 174.943 126.112 172.075 126.112C169.277 126.112 166.55 124.644 163.752 123.175C161.164 121.776 158.506 120.377 155.988 120.377C153.47 120.377 150.812 121.776 148.224 123.175C145.426 124.644 142.698 126.112 139.9 126.112C137.033 126.112 134.305 124.644 131.577 123.175C128.919 121.776 126.331 120.377 123.743 120.377C121.225 120.377 118.567 121.776 115.979 123.175C113.181 124.644 110.454 126.112 107.656 126.112C104.788 126.112 102.06 124.644 99.3323 123.175C96.6744 121.776 94.0864 120.377 91.4985 120.377C88.9804 120.377 86.3225 121.776 83.7345 123.175C81.0067 124.644 78.2089 126.112 75.4111 126.112C72.6133 126.112 69.8155 124.644 67.0876 123.175C64.7794 121.916 62.4013 120.657 60.1631 120.447L91.9181 202.003Z" fill="#EE7886"/>
<path d="M172.774 126.042L148.643 202.841L147.523 202.561L171.724 125.762L172.774 126.042Z" fill="#EE7886"/>
<path d="M156.687 119.886L140.6 202.84L139.48 202.631L155.568 119.676L156.687 119.886Z" fill="#EE7886"/>
<path d="M140.46 126.25L132.416 202.77L131.297 202.7L139.341 126.18L140.46 126.25Z" fill="#EE7886"/>
<path d="M123.254 202.491V119.816H124.373V202.491H123.254Z" fill="#EE7886"/>
<path d="M108.077 125.48L116.26 202.77L115.141 202.84L107.027 125.62L108.077 125.48Z" fill="#EE7886"/>
<path d="M91.9902 119.605L108.148 202.63L107.028 202.84L90.8711 119.815L91.9902 119.605Z" fill="#EE7886"/>
<path d="M75.6937 125.27L99.9647 202.489L98.9155 202.839L74.6445 125.619L75.6937 125.27Z" fill="#EE7886"/>
<path d="M77.8602 136.043L76.741 132.406L76.1815 130.517L74.7826 126.111C73.5935 125.971 72.4744 125.691 71.2853 125.202C70.9123 125.062 70.5392 124.898 70.1662 124.712C69.933 124.619 69.6999 124.525 69.4667 124.432C68.674 124.012 67.9046 123.593 67.1586 123.173C66.4591 122.8 65.783 122.45 65.1301 122.124C63.4515 121.285 61.8427 120.585 60.1641 120.445L61.7028 124.432L64.1509 130.517L65.1301 133.175L66.2493 136.043L68.6274 142.198L69.187 143.457L70.376 146.675L71.705 150.032L74.0831 156.187L74.5727 157.376L75.1323 158.775L76.1815 161.433L76.5312 162.482L76.8809 163.322L77.3006 164.441L77.6503 165.35L88.212 192.419L90.8 198.994L91.9191 202.001H93.8776H98.6338L93.8776 186.753L90.8 176.961L88.212 168.847L85.9738 161.643L85.9038 161.573L85.2743 159.405L85.1344 159.125L84.5049 157.027L84.435 156.817L83.9454 155.278L83.3858 153.599L83.2459 152.97L81.2175 146.675L80.3782 143.877L79.8186 142.198L77.8602 136.043Z" fill="#8F4049"/>
<path d="M77.3716 130.517L79.0503 136.043L81.0087 142.198L81.918 145.136L82.4076 146.674L83.9464 151.501L84.3661 152.899L84.5759 153.599L85.5551 156.537L86.0448 158.145L86.1846 158.635L86.8841 160.733L86.954 161.013L88.213 165.07L90.801 173.253L93.8786 183.046L99.8239 202.001H99.9638H106.679H106.888L106.679 200.952L99.9638 166.679L99.3343 163.321L98.8447 160.733L98.7748 160.244L98.0054 156.467L97.3758 153.179L96.1168 146.674L95.2075 142.198L94.648 139.19L94.5081 138.561L94.0185 136.043L92.9693 130.517L91.7802 124.432L91.0108 120.375C90.1016 120.445 89.2622 120.655 88.3529 121.005C86.8841 121.494 85.3453 122.333 83.7366 123.173C83.4568 123.313 83.177 123.476 82.8972 123.662C82.4309 123.896 81.9413 124.152 81.4284 124.432C79.8896 125.131 78.3508 125.761 76.7421 126.041C76.5089 126.087 76.2524 126.11 75.9727 126.11L76.7421 128.698L77.3716 130.517Z" fill="#8F4049"/>
<path d="M95.2065 136.043L95.7661 139.19L96.3956 142.198L97.2349 146.674L98.354 152.48L98.6338 153.599L98.8436 154.718L99.4032 157.796L99.4731 158.285L99.9628 160.803L100.103 161.153L100.173 161.713L100.592 163.951L106.677 195.076L108.006 202.001H112.833H115.071L112.833 180.528L111.224 165.56L111.084 164.58L111.014 163.461L110.874 162.482L110.734 161.223L110.455 158.495L110.385 157.306L110.245 156.397V156.327L109.195 146.674L108.776 142.198L108.426 139.19L108.076 136.043L107.517 130.517L107.027 126.11C106.747 126.064 106.444 126.017 106.118 125.971C104.649 125.761 103.18 125.131 101.711 124.432C101.152 124.105 100.592 123.802 100.033 123.523C99.7996 123.429 99.5664 123.313 99.3333 123.173C97.7245 122.333 96.1158 121.424 94.507 120.935C93.7143 120.655 92.9216 120.468 92.1289 120.375L92.8983 124.432L94.0874 130.517L94.507 132.685L95.2065 136.043Z" fill="#8F4049"/>
<path d="M109.194 136.043L109.543 139.19L109.893 142.198L110.383 146.674L111.362 156.257L111.432 156.607V157.026L111.572 158.075V158.145L111.712 159.474L111.922 161.573L111.992 162.412L112.131 163.321L112.271 164.51L112.341 165.42L112.831 169.826L115.629 196.475L116.188 202.001H118.217H123.253V159.964V159.264V157.446V156.257V146.674V142.198V136.183V136.043V130.517V124.432V120.375C121.434 120.515 119.616 121.284 117.797 122.264C117.191 122.543 116.585 122.846 115.978 123.173C115.232 123.592 114.463 124.012 113.67 124.432C112.971 124.758 112.295 125.038 111.642 125.271C110.453 125.761 109.334 126.041 108.145 126.11L108.634 130.517L109.194 136.043Z" fill="#8F4049"/>
<path d="M124.371 136.043V142.198V146.674V153.809V157.446V157.516V158.845V202.001H131.366L134.653 170.386L135.352 163.811L135.562 161.922L135.632 161.503L135.842 159.404L135.982 157.796L136.122 156.676V156.607L136.332 154.578L136.472 153.249L136.681 151.361L137.171 146.674L137.241 146.115L137.661 142.198L138.29 136.043L138.85 130.517L139.339 126.18L139.899 126.25H140.458L140.039 130.517L139.409 136.043L138.78 142.198L138.29 146.674L137.87 150.591V150.801L137.661 153.109L137.591 153.319L137.381 155.487L137.311 156.397L137.241 156.746V156.816V157.026L136.891 160.104L136.681 162.062V162.482L136.472 164.3L134.653 181.157L132.485 202.001H134.653H137.241H139.619L140.319 198.434L146.474 166.749L146.684 165.49L146.893 164.51L147.103 163.321L147.313 162.412L147.453 161.573L147.733 160.244L148.152 158.215L148.362 156.886L148.572 155.837V155.697L148.992 153.599L150.321 146.674L151.23 142.198L151.79 139.19L152.419 136.043L152.629 134.994L153.468 130.517L154.657 124.432L155.427 120.375C154.517 120.445 153.538 120.725 152.629 121.074C151.16 121.634 149.691 122.403 148.222 123.173C147.616 123.499 147.033 123.802 146.474 124.082C146.287 124.175 146.101 124.292 145.914 124.432C144.235 125.201 142.627 125.831 141.018 126.041C140.645 126.087 140.272 126.11 139.899 126.11C138.22 126.11 136.542 125.621 134.863 124.851C134.536 124.712 134.233 124.572 133.954 124.432C133.161 124.012 132.368 123.592 131.575 123.173C130.829 122.8 130.107 122.427 129.407 122.054C127.659 121.214 125.98 120.515 124.371 120.375V124.432V130.517V136.043Z" fill="#8F4049"/>
<path d="M154.661 130.517L153.542 136.043L152.983 139.19L152.633 140.869L152.353 142.198L151.514 146.674L150.325 152.83L150.255 153.179L150.185 153.459L149.905 154.998L149.485 156.956L149.136 158.985L148.856 160.454L148.716 161.013L148.506 162.272L148.296 163.041L148.086 164.44L147.877 165.28L146.478 172.624L140.742 202.001H146.478H147.737L153.122 184.794L159.278 165.28L162.075 156.327L162.565 154.858L163.964 150.381L164.663 148.213L165.153 146.674L165.643 145.136L166.552 142.198L168.51 136.043L169.699 132.126L170.189 130.517L171.588 126.11C170.982 126.064 170.352 125.947 169.699 125.761C168.51 125.481 167.321 124.991 166.132 124.432C165.526 124.105 164.897 123.756 164.244 123.383C164.104 123.336 163.964 123.266 163.824 123.173C161.866 122.124 159.977 121.144 158.089 120.655C157.576 120.515 157.086 120.422 156.62 120.375L155.85 124.432L154.661 130.517Z" fill="#8F4049"/>
<path d="M171.378 130.517L169.699 135.903V136.043L167.741 142.198L167.181 143.877L166.342 146.675L164.943 151.011L164.663 151.921L164.174 153.529L163.125 156.677L162.075 160.034L159.278 168.987L153.122 188.572L148.926 202.001H153.122H155.641L159.278 192.629L162.075 185.424L164.663 178.849L170.469 163.811L171.168 162.203L171.308 161.783L171.938 160.104L173.407 156.397L173.826 155.278L174.176 154.439L174.736 153.04L177.184 146.675L178.932 142.198L181.31 136.043L183.479 130.517L185.857 124.432L187.396 120.445C185.437 120.655 183.339 121.634 181.31 122.684C181.031 122.87 180.751 123.033 180.471 123.173C179.678 123.593 178.886 124.012 178.093 124.432C177.86 124.525 177.627 124.619 177.393 124.712C176.88 124.945 176.368 125.178 175.855 125.411C174.805 125.761 173.826 126.041 172.777 126.111L171.378 130.517Z" fill="#8F4049"/>
<path d="M139.063 90.0182C139.342 84.0728 137.804 74.2805 130.11 73.651C129.55 73.5811 128.851 73.721 127.662 73.9308C126.612 74.2106 125.913 74.7002 125.144 75.2598C123.815 76.239 119.198 76.8685 117.52 76.7286C109.546 76.169 106.608 81.0652 108.707 89.0389C111.015 97.6422 122.206 108.414 129.2 101.629C136.335 99.0411 138.643 98.2017 139.063 90.0182Z" fill="#EE7886"/>
</svg>
