<svg width="257" height="141" viewBox="0 0 257 141" fill="none" xmlns="http://www.w3.org/2000/svg">
<path d="M205.528 38.1859C200.854 38.1859 196.376 38.8349 192.092 40.0033C180.797 16.3116 156.651 0.0195312 128.676 0.0195312C100.7 0.0195312 76.5541 16.3116 65.26 40.0033C60.976 38.8349 56.4973 38.1859 51.8239 38.1859C23.5886 38.1859 0.675781 61.0986 0.675781 89.3339C0.675781 90.1128 0.697421 90.8917 0.740694 91.6706C2.88268 134.64 57.3411 134.445 117.836 74.7295C120.562 71.6787 123.353 68.5631 126.274 65.5124L116.148 57.6585L90.3796 40.1331C89.9253 39.8735 89.9253 39.2893 90.2498 38.8999L93.1058 36.0439C93.69 35.4597 94.5338 35.2649 95.4425 35.4597C95.4425 35.4597 131.532 45.2609 142.047 49.48C155.418 37.0175 171.71 26.6321 173.787 28.7092C175.929 30.8512 165.284 46.8836 152.822 60.125C157.106 70.2507 167.102 107.119 167.102 107.119C167.296 108.028 167.102 108.871 166.518 109.521L163.662 112.312C163.337 112.701 162.753 112.636 162.428 112.182L144.903 86.413L136.854 76.0276C136.768 76.1142 136.681 76.2007 136.595 76.2873C94.404 118.478 131.272 140.417 164.051 140.417H205.528C233.763 140.417 256.676 117.504 256.676 89.3339C256.676 61.0986 233.763 38.1859 205.528 38.1859Z" fill="url(#paint0_linear_18_14785)"/>
<mask id="mask0_18_14785" style="mask-type:luminance" maskUnits="userSpaceOnUse" x="0" y="0" width="257" height="141">
<path d="M205.533 38.1923C200.866 38.1923 196.355 38.8284 192.064 39.9967C180.77 16.344 156.637 0 128.675 0C100.712 0 76.5788 16.344 65.2847 39.9967C60.9942 38.8284 56.4831 38.1923 51.8162 38.1923C23.5873 38.1923 0.707031 61.0726 0.707031 89.3014C0.707031 90.089 0.726501 90.8722 0.765447 91.6511C2.85551 134.614 57.3399 134.426 117.815 74.7294C120.541 71.6917 123.378 68.589 126.279 65.5059C126.279 65.5059 126.279 65.5037 126.279 65.4994L116.128 57.6324L90.359 40.1201C89.95 39.841 89.8916 39.2568 90.2421 38.9063L93.0721 36.0698C93.6628 35.4791 94.5456 35.2519 95.4413 35.4596C95.4413 35.4596 131.557 45.2544 142.078 49.5124C155.41 37.0304 171.709 26.6256 173.76 28.6767C175.922 30.8381 165.316 46.8706 152.847 60.1314C157.105 70.2377 167.107 107.125 167.107 107.125C167.315 108.021 167.088 108.897 166.497 109.488L163.654 112.318C163.303 112.669 162.719 112.617 162.44 112.201L144.928 86.4324L136.866 76.0276C136.767 76.1184 136.667 76.2093 136.567 76.3002H136.574C94.3833 118.484 131.29 140.417 164.056 140.417H205.533C233.762 140.417 256.642 117.53 256.642 89.3014C256.642 61.0726 233.762 38.1923 205.533 38.1923Z" fill="white"/>
</mask>
<g mask="url(#mask0_18_14785)">
<g style="mix-blend-mode:multiply">
<path d="M245.641 124.12C245.641 161.248 215.588 191.301 178.46 191.301C141.332 191.301 111.215 161.248 111.215 124.12C111.215 86.9926 141.332 56.875 178.46 56.875C215.588 56.875 245.641 86.9926 245.641 124.12Z" fill="#00D6EE"/>
</g>
<g style="mix-blend-mode:multiply">
<path d="M116.797 116.267C116.797 150.604 88.9514 178.45 54.6146 178.45C20.2779 178.45 -7.63281 150.604 -7.63281 116.267C-7.63281 81.8654 20.2779 54.0195 54.6146 54.0195C88.9514 54.0195 116.797 81.8654 116.797 116.267Z" fill="#00D6EE"/>
</g>
</g>
<defs>
<linearGradient id="paint0_linear_18_14785" x1="0.706288" y1="-0.00318412" x2="256.645" y2="-0.00318412" gradientUnits="userSpaceOnUse">
<stop stop-color="#00D6EE"/>
<stop offset="1" stop-color="#009AE1"/>
</linearGradient>
</defs>
</svg>
