<svg width="264" height="264" viewBox="0 0 264 264" fill="none" xmlns="http://www.w3.org/2000/svg">
<path d="M131.903 252.064C65.6962 252.064 11.8398 198.208 11.8398 132.001C11.8398 65.7939 65.6962 11.9375 131.903 11.9375C198.11 11.9375 251.966 65.7939 251.966 132.001C251.966 198.208 198.11 252.064 131.903 252.064Z" fill="#542F07"/>
<path fill-rule="evenodd" clip-rule="evenodd" d="M218.353 45.5477C241.475 68.629 254.19 99.3231 254.19 132.001C254.19 164.68 241.475 195.374 218.353 218.455C195.272 241.577 164.578 254.292 131.9 254.292C99.2215 254.292 68.5274 241.577 45.4461 218.455C22.3243 195.374 9.60938 164.68 9.60938 132.001C9.60938 99.3231 22.3243 68.629 45.4461 45.5477C68.5274 22.4259 99.2215 9.71094 131.9 9.71094C164.578 9.71094 195.272 22.4259 218.353 45.5477ZM14.0232 132.001C14.0232 197.115 66.7862 249.878 131.9 249.878C197.013 249.878 249.776 197.115 249.776 132.001C249.776 66.8878 197.013 14.1247 131.9 14.1247C66.7862 14.1247 14.0232 66.8878 14.0232 132.001Z" fill="#542F07"/>
<path d="M259.902 132C259.902 202.702 202.604 260 131.902 260C61.2007 260 3.90234 202.702 3.90234 132C3.90234 61.2983 61.2007 4 131.902 4C202.604 4 259.902 61.2983 259.902 132Z" stroke="#542F07" stroke-width="6.8" stroke-miterlimit="10"/>
<mask id="mask0_18_14666" style="mask-type:luminance" maskUnits="userSpaceOnUse" x="14" y="14" width="236" height="236">
<path d="M249.785 132.002C249.785 197.107 197.006 249.887 131.9 249.887C66.7949 249.887 14.0156 197.107 14.0156 132.002C14.0156 66.8964 66.7949 14.1172 131.9 14.1172C197.006 14.1172 249.785 66.8964 249.785 132.002Z" fill="white"/>
</mask>
<g mask="url(#mask0_18_14666)">
<path d="M17.9102 207.239C17.9102 207.239 40.6675 129.856 93.795 108.799C96.3866 107.746 99.0997 110.216 98.2898 112.929C91.1224 137.63 97.3989 155.124 131.899 155.124C149.19 155.124 159.395 150.71 164.375 143.219C167.615 143.421 170.935 143.097 173.932 141.923C178.062 140.303 181.382 136.942 181.99 132.447C182.678 127.183 180.37 122.04 175.916 119.773C173.365 118.477 170.166 118.072 167.169 118.477C166.724 116.209 166.197 115.359 165.509 112.929C164.699 110.216 167.412 107.746 170.004 108.799C223.131 129.856 245.889 207.239 245.889 207.239L208.473 292.802L55.8931 289.886L17.9102 207.239Z" fill="white" stroke="white" stroke-width="24.4" stroke-linecap="round" stroke-linejoin="round"/>
<path d="M67.8795 197.438C66.8671 197.357 65.9358 196.952 65.0449 196.466C64.154 195.94 63.3847 195.252 62.6558 194.482C61.279 192.862 60.4691 190.757 60.2262 188.611C59.9427 186.505 60.1857 184.359 60.6716 182.294C61.198 180.309 61.9269 178.244 63.0202 176.382C64.1136 174.519 65.4498 172.818 67.0696 171.36C68.6893 169.903 70.5115 168.688 72.4552 167.756C76.3021 165.813 80.5944 165.003 84.7248 164.8C93.1879 164.193 102.339 168.364 106.753 175.855C109.021 179.54 109.993 183.954 109.507 188.125C109.183 190.19 108.656 192.296 107.442 194.037C107.158 194.482 106.753 194.847 106.429 195.252C106.227 195.414 106.024 195.576 105.822 195.738C105.619 195.94 105.417 196.102 105.174 196.223C104.283 196.79 103.271 197.033 102.339 197.155C104.121 196.345 105.498 194.968 106.105 193.308C106.753 191.648 106.915 189.785 106.794 188.003C106.591 184.399 105.295 180.998 103.149 178.244C102.096 176.868 100.882 175.653 99.5454 174.6C98.1281 173.547 96.6703 172.697 95.0506 172.008C93.5119 171.32 91.8516 170.794 90.1509 170.551C88.4502 170.267 86.7899 170.186 84.9272 170.267C83.1455 170.348 81.3638 170.51 79.6226 170.915C77.9218 171.239 76.2211 171.765 74.6419 172.454C73.0626 173.142 71.5644 173.993 70.1876 175.045C68.8513 176.098 67.6365 177.353 66.6241 178.73C66.3407 179.054 66.1382 179.459 65.8953 179.824C65.6523 180.188 65.4498 180.552 65.2474 180.957L64.9234 181.524L64.64 182.132L64.1136 183.387C63.4657 185.047 62.9797 186.748 62.8988 188.489C62.7773 190.271 63.1012 192.012 63.9111 193.632C64.7615 195.171 66.0572 196.669 67.8795 197.438Z" fill="#542F07"/>
<path d="M56.9883 202.052C60.3897 198.61 64.8845 196.262 69.5008 194.723C74.117 193.184 78.9358 192.293 83.876 192.131C88.7757 192.01 93.7969 192.658 98.4941 194.318C103.151 195.978 107.484 198.57 110.683 202.255C106.188 200.473 101.815 199.218 97.4008 198.489C92.9465 197.76 88.4922 197.517 84.0379 197.639C79.5432 197.76 75.0079 198.205 70.5131 198.894C66.0183 199.582 61.564 200.554 56.9883 202.052Z" fill="#542F07"/>
<path d="M97.7241 178.975C97.7241 184.604 93.1483 189.22 87.4792 189.22C81.8101 189.22 77.2344 184.604 77.2344 178.975C77.2344 173.306 81.8101 168.73 87.4792 168.73C93.1483 168.73 97.7241 173.306 97.7241 178.975Z" fill="#542F07"/>
<path d="M92.823 174.436C92.823 176.947 90.7983 178.971 88.3282 178.971C85.8176 178.971 83.793 176.947 83.793 174.436C83.793 171.966 85.8176 169.941 88.3282 169.941C90.7983 169.941 92.823 171.966 92.823 174.436Z" fill="white"/>
<path d="M195.918 197.438C197.74 196.669 199.036 195.171 199.886 193.632C200.696 192.012 201.02 190.271 200.898 188.489C200.817 186.748 200.331 185.047 199.683 183.387L199.157 182.132L198.874 181.524L198.55 180.957C198.347 180.552 198.145 180.188 197.902 179.824C197.659 179.459 197.456 179.054 197.173 178.73C196.161 177.353 194.946 176.098 193.609 175.045C192.233 173.993 190.734 173.142 189.155 172.454C187.576 171.765 185.875 171.239 184.174 170.915C182.433 170.51 180.651 170.348 178.87 170.267C177.007 170.186 175.347 170.267 173.646 170.551C171.945 170.794 170.285 171.32 168.746 172.008C167.127 172.697 165.669 173.547 164.252 174.6C162.915 175.653 161.701 176.868 160.648 178.244C158.502 180.998 157.206 184.399 157.003 188.003C156.882 189.785 157.044 191.648 157.692 193.308C158.299 194.968 159.676 196.345 161.458 197.155C160.526 197.033 159.514 196.79 158.623 196.223C158.38 196.102 158.178 195.94 157.975 195.738C157.773 195.576 157.57 195.414 157.368 195.252C157.044 194.847 156.639 194.482 156.355 194.037C155.141 192.296 154.614 190.19 154.29 188.125C153.804 183.954 154.776 179.54 157.044 175.855C161.458 168.364 170.609 164.193 179.072 164.8C183.203 165.003 187.495 165.813 191.342 167.756C193.285 168.688 195.108 169.903 196.727 171.36C198.347 172.818 199.683 174.519 200.777 176.382C201.87 178.244 202.599 180.309 203.125 182.294C203.611 184.359 203.854 186.505 203.571 188.611C203.328 190.757 202.518 192.862 201.141 194.482C200.412 195.252 199.643 195.94 198.752 196.466C197.861 196.952 196.93 197.357 195.918 197.438Z" fill="#542F07"/>
<path d="M206.808 202.052C202.232 200.554 197.778 199.582 193.283 198.894C188.788 198.205 184.253 197.76 179.758 197.639C175.304 197.517 170.849 197.76 166.395 198.489C161.981 199.218 157.608 200.473 153.113 202.255C156.312 198.57 160.645 195.978 165.302 194.318C169.999 192.658 175.02 192.01 179.92 192.131C184.86 192.293 189.679 193.184 194.295 194.723C198.911 196.262 203.406 198.61 206.808 202.052Z" fill="#542F07"/>
<path d="M166.074 178.975C166.074 184.604 170.65 189.22 176.319 189.22C181.988 189.22 186.564 184.604 186.564 178.975C186.564 173.306 181.988 168.73 176.319 168.73C170.65 168.73 166.074 173.306 166.074 178.975Z" fill="#542F07"/>
<path d="M170.973 174.436C170.973 176.947 172.997 178.971 175.467 178.971C177.978 178.971 180.003 176.947 180.003 174.436C180.003 171.966 177.978 169.941 175.467 169.941C172.997 169.941 170.973 171.966 170.973 174.436Z" fill="white"/>
<path d="M125.584 76.0781C125.017 79.3176 125.625 82.2331 127.042 84.5413C127.771 85.7156 128.702 86.9304 129.593 88.4286C130.038 89.198 130.443 90.0484 130.767 90.9797C130.889 91.4657 131.01 91.9921 131.091 92.478C131.132 92.9639 131.172 93.4498 131.172 93.9358C131.172 94.9076 131.051 95.9604 130.727 96.8918C130.403 97.8636 129.957 98.7545 129.431 99.5239C128.338 101.063 127.123 102.156 126.111 103.249C125.058 104.302 124.248 105.274 123.762 106.61C123.519 107.258 123.357 107.947 123.276 108.716C123.195 109.485 123.235 110.255 123.235 111.105C122.304 109.769 121.656 108.108 121.656 106.246C121.656 104.383 122.507 102.561 123.397 101.144C124.329 99.6858 125.301 98.5115 125.908 97.3372C126.515 96.2034 126.799 95.1506 126.799 93.9763C126.799 93.6793 126.772 93.3689 126.718 93.0449C126.718 92.7615 126.637 92.478 126.556 92.1946C126.421 91.6276 126.205 91.0202 125.908 90.3723C125.301 89.0766 124.45 87.6593 123.883 85.999C122.588 82.5166 123.276 78.4672 125.584 76.0781Z" fill="white"/>
<path d="M134.733 79.5625C134.773 81.7896 135.138 83.8953 135.988 85.7175C136.798 87.5397 138.053 89.0785 139.39 90.8197C140.726 92.5609 142.143 94.6261 142.872 97.0962C143.52 99.6473 143.479 102.117 142.953 104.547C142.467 106.936 141.495 109.244 140.078 111.269L139.106 112.605C138.782 112.97 138.539 113.415 138.256 113.82C137.729 114.63 137.203 115.48 136.838 116.371C136.407 117.262 136.083 118.18 135.867 119.125C135.583 120.056 135.502 121.028 135.462 122.04C135.381 124.024 135.826 126.13 136.555 128.236C134.935 126.697 133.68 124.632 133.113 122.324C132.546 119.975 132.668 117.424 133.356 115.116C133.72 113.941 134.166 112.848 134.733 111.795C135.016 111.269 135.3 110.702 135.624 110.216L136.514 108.88C137.527 107.26 138.256 105.478 138.701 103.616C139.106 101.793 139.187 99.8093 138.823 98.149C138.458 96.3673 137.527 94.6261 136.514 92.7229C135.462 90.8602 134.287 88.714 133.882 86.3249C133.477 83.9763 133.842 81.5872 134.733 79.5625Z" fill="white"/>
<path d="M59.7412 131.066C61.118 131.228 62.4543 131.552 63.75 131.957C66.1797 132.767 68.4068 133.779 70.5934 134.953C74.9667 137.262 78.8946 140.258 82.1746 143.741C78.2872 140.906 73.9949 138.8 69.5406 137.424C67.354 136.735 65.0458 136.168 62.8592 135.885C60.6725 135.642 58.5264 135.723 56.7852 136.33C56.7852 136.33 58.4049 130.904 59.7412 131.066Z" fill="#542F07"/>
<path d="M72.052 120.579C77.964 123.049 83.2687 126.531 87.561 130.824C81.6894 127.463 75.2105 125.559 68.8125 125.033C68.8125 125.033 71.3636 120.295 72.052 120.579Z" fill="#542F07"/>
<path d="M204.058 131.066C202.682 131.228 201.345 131.552 200.05 131.957C197.62 132.767 195.393 133.779 193.206 134.953C188.833 137.262 184.905 140.258 181.625 143.741C185.512 140.906 189.805 138.8 194.259 137.424C196.446 136.735 198.754 136.168 200.94 135.885C203.127 135.642 205.273 135.723 207.014 136.33C207.014 136.33 205.395 130.904 204.058 131.066Z" fill="#542F07"/>
<path d="M68.4062 207.238C77.8007 214.041 87.9646 219.467 98.6954 223.112C109.426 226.756 120.643 228.619 131.9 228.619C143.157 228.578 154.374 226.756 165.105 223.112C175.836 219.467 185.999 214.041 195.394 207.238C187.498 215.782 177.536 222.545 166.644 227.121C155.71 231.737 143.805 234.085 131.9 234.085C119.995 234.085 108.09 231.737 97.1566 227.121C86.2639 222.545 76.3025 215.782 68.4062 207.238Z" fill="#542F07"/>
<path d="M74.5619 214.242C74.8453 216.874 75.0073 219.425 75.2502 221.895C75.3717 223.11 75.5337 224.325 75.7767 225.459C75.9386 226.026 76.0601 226.552 76.2626 226.998C76.4651 227.443 76.6675 227.808 76.8295 227.889C76.9105 227.969 77.1939 228.05 77.5989 228.05C78.0038 228.05 78.5302 227.97 79.0161 227.848C80.1095 227.565 81.2433 227.119 82.3366 226.633C84.6043 225.621 86.8719 224.447 89.3015 223.394C87.7627 225.58 85.8595 227.403 83.6324 228.941C82.5391 229.711 81.3648 230.359 79.9475 230.845C79.2591 231.087 78.5302 231.29 77.6394 231.33C76.789 231.33 75.6957 231.209 74.7643 230.44C73.914 229.711 73.5495 228.901 73.2661 228.172C72.9826 227.403 72.8611 226.674 72.7396 225.985C72.5777 224.568 72.6182 223.232 72.7396 221.895C72.9826 219.263 73.5495 216.672 74.5619 214.242Z" fill="#542F07"/>
<path d="M189.24 214.242C190.252 216.672 190.819 219.263 191.062 221.895C191.183 223.232 191.224 224.568 191.062 225.985C190.94 226.674 190.819 227.403 190.535 228.172C190.252 228.901 189.888 229.711 189.037 230.44C188.106 231.209 187.012 231.33 186.162 231.33C185.271 231.29 184.542 231.087 183.854 230.845C182.437 230.359 181.262 229.711 180.169 228.941C177.942 227.403 176.039 225.58 174.5 223.394C176.93 224.447 179.197 225.621 181.465 226.633C182.558 227.119 183.692 227.565 184.785 227.848C185.271 227.97 185.798 228.05 186.203 228.05C186.608 228.05 186.891 227.969 186.972 227.889C187.134 227.808 187.336 227.443 187.539 226.998C187.741 226.552 187.863 226.026 188.025 225.459C188.268 224.325 188.43 223.11 188.551 221.895C188.794 219.425 188.956 216.874 189.24 214.242Z" fill="#542F07"/>
<path d="M172.029 129.449C171.139 127.708 167.211 127.303 164.336 127.586C163.931 127.627 163.647 127.991 163.688 128.396C163.688 130.259 163.485 131.919 163.04 133.418C162.878 133.944 163.283 134.47 163.85 134.43C168.142 134.227 173.892 132.972 172.029 129.449Z" fill="white"/>
</g>
<path d="M238.764 188.083C236.618 183.507 234.31 179.012 231.92 174.598C229.518 170.171 226.98 165.838 224.308 161.6C218.963 153.096 212.969 145.038 206.288 137.628C202.968 133.943 199.404 130.42 195.638 127.221C191.872 123.941 187.944 120.944 183.774 118.312C179.643 115.68 175.27 113.372 170.735 111.55L169.884 111.185L169.439 111.023C169.317 110.983 169.115 110.902 169.115 110.902C168.913 110.861 168.71 110.861 168.548 110.902C168.143 110.983 167.779 111.388 167.738 111.752C167.711 111.779 167.711 111.82 167.738 111.874C167.711 111.928 167.711 111.968 167.738 111.995C167.738 112.076 167.738 112.117 167.738 112.157C167.779 112.238 167.738 112.198 167.819 112.4C167.981 112.967 168.143 113.493 168.346 114.101C168.791 115.194 169.277 116.692 169.52 118.029L166.807 116.126C169.034 115.802 171.302 115.842 173.529 116.328C174.622 116.571 175.715 116.935 176.809 117.462C177.862 117.988 178.874 118.636 179.805 119.406C181.587 121.025 182.923 123.05 183.733 125.237C184.503 127.423 184.826 129.772 184.624 132.08C184.462 134.429 183.571 136.858 182.194 138.802C180.818 140.746 178.995 142.284 176.971 143.378C172.921 145.605 168.427 146.131 164.175 145.888L166.604 144.673C165.187 146.82 163.405 148.723 161.381 150.302C159.356 151.841 157.129 153.056 154.861 154.028C153.727 154.513 152.594 154.918 151.419 155.323C150.245 155.647 149.111 156.012 147.937 156.255C145.588 156.781 143.24 157.145 140.891 157.388C136.153 157.874 131.497 157.915 126.799 157.672C124.451 157.55 122.102 157.267 119.753 156.943C117.405 156.538 115.056 156.093 112.748 155.364C110.399 154.635 108.132 153.704 105.945 152.529C103.758 151.314 101.693 149.776 99.8711 147.953C98.0894 146.091 96.6316 143.945 95.5788 141.596C94.5259 139.288 93.878 136.818 93.5136 134.388C92.8252 129.448 93.2301 124.589 94.121 119.972C94.5799 117.651 95.1333 115.37 95.7812 113.129L96.0242 112.279C96.0647 112.157 96.0647 112.076 96.0647 111.995C96.0917 111.833 96.0647 111.671 95.9837 111.509C95.8622 111.185 95.4573 110.902 95.1333 110.861C94.9714 110.861 94.8499 110.861 94.5664 110.942L93.0277 111.59L91.4889 112.198C91.003 112.441 90.4766 112.643 89.9907 112.886C88.9783 113.372 87.966 113.817 86.9941 114.344C86.0223 114.87 85.01 115.316 84.0786 115.923C80.1912 118.069 76.5063 120.539 72.9429 123.293C65.897 128.76 59.4585 135.117 53.7085 142.041C47.9179 148.925 42.6537 156.336 37.9565 164.07C33.2188 171.804 28.9264 179.862 25.0391 188.083C31.599 171.116 40.1836 154.756 51.4003 140.179C57.0289 132.93 63.3459 126.087 70.5133 120.215C74.1172 117.3 77.9236 114.627 81.9325 112.238C82.9043 111.59 83.9571 111.064 84.9695 110.497C85.9818 109.89 87.0346 109.404 88.0875 108.877C88.6139 108.634 89.1403 108.351 89.6667 108.108L91.2865 107.419L92.8657 106.691C93.6756 106.367 94.6879 106.164 95.6598 106.286C97.6034 106.488 99.3042 107.703 100.155 109.404C100.6 110.254 100.843 111.226 100.802 112.198C100.762 112.684 100.681 113.17 100.559 113.615L100.357 114.425C99.7496 116.53 99.2637 118.677 98.8992 120.863C98.1299 125.156 97.8869 129.488 98.5348 133.619C99.1422 137.709 100.843 141.474 103.677 144.269C106.431 147.144 110.237 149.006 114.287 150.262C116.311 150.869 118.417 151.274 120.563 151.638C122.709 151.922 124.896 152.165 127.083 152.246C131.497 152.489 135.951 152.408 140.284 151.962C142.47 151.679 144.616 151.395 146.722 150.909C147.775 150.707 148.787 150.383 149.8 150.1C150.812 149.776 151.824 149.452 152.756 149.006C156.603 147.427 159.963 145.038 162.15 141.717C162.717 140.908 163.648 140.462 164.58 140.543C166.321 140.665 168.062 140.624 169.763 140.3C171.423 140.057 173.043 139.531 174.42 138.761C175.837 137.992 177.052 136.939 177.902 135.724C178.793 134.51 179.319 133.173 179.441 131.635C179.805 128.476 178.712 125.156 176.485 123.171C174.339 121.147 170.775 120.418 167.495 120.863H167.455C166.199 121.025 165.025 120.175 164.782 118.92C164.62 117.826 164.296 116.895 163.891 115.64C163.689 115.032 163.486 114.384 163.284 113.736C163.243 113.615 163.162 113.291 163.122 113.048C163.041 112.805 163.041 112.522 163.041 112.238C163.014 111.995 163.014 111.739 163.041 111.469C163.068 111.199 163.108 110.929 163.162 110.659C163.689 108.553 165.349 106.893 167.455 106.407C168.467 106.164 169.601 106.245 170.573 106.569C170.856 106.691 170.978 106.731 171.14 106.812L171.585 107.015L172.476 107.379C177.214 109.485 181.749 111.995 186.041 114.87C194.626 120.62 202.117 127.747 208.677 135.562C215.237 143.337 220.906 151.841 225.887 160.668C230.868 169.496 235.119 178.688 238.764 188.083Z" fill="#542F07"/>
</svg>
