<svg width="257" height="237" viewBox="0 0 257 237" fill="none" xmlns="http://www.w3.org/2000/svg">
<path d="M229.817 84.1722C237.162 104.248 197.228 137.708 140.265 158.98C83.3568 180.199 31.1272 181.232 23.6192 161.156C16.1656 141.135 56.2083 107.621 113.171 86.3485C170.08 65.1302 222.309 63.6612 229.817 84.1722Z" fill="url(#paint0_linear_18_14570)"/>
<path d="M230.525 88.5819C230.906 109.746 192.659 140.05 139.831 159.092C97.9928 174.217 58.6574 178.025 37.6023 170.68C37.1126 149.516 75.4144 119.212 128.242 100.17C170.081 85.1 209.416 81.2915 230.525 88.5819Z" fill="url(#paint1_linear_18_14570)"/>
<path d="M230.525 88.5819C230.906 109.746 192.659 140.05 139.831 159.092C97.9928 174.217 58.6574 178.025 37.6023 170.68C37.1126 149.516 75.4144 119.212 128.242 100.17C170.081 85.1 209.416 81.2915 230.525 88.5819Z" fill="url(#paint2_linear_18_14570)"/>
<path d="M166.652 141.625C166.652 151.636 158.546 159.742 148.535 159.742C138.524 159.742 130.363 151.636 130.363 141.625C130.363 131.614 138.524 123.508 148.535 123.508C158.546 123.508 166.652 131.614 166.652 141.625Z" fill="url(#paint3_linear_18_14570)"/>
<path d="M198.753 106.642C198.753 110.668 195.488 113.932 191.462 113.932C187.436 113.932 184.172 110.668 184.172 106.642C184.172 102.616 187.436 99.3516 191.462 99.3516C195.488 99.3516 198.753 102.616 198.753 106.642Z" fill="url(#paint4_linear_18_14570)"/>
<path d="M87.0534 157.783C87.0534 161.809 83.7891 165.073 79.763 165.073C75.737 165.073 72.4727 161.809 72.4727 157.783C72.4727 153.757 75.737 150.492 79.763 150.492C83.7891 150.492 87.0534 153.757 87.0534 157.783Z" fill="url(#paint5_linear_18_14570)"/>
<path d="M121.061 122.689C121.061 125.844 118.504 128.402 115.294 128.402C112.139 128.402 109.527 125.844 109.527 122.689C109.527 119.479 112.139 116.922 115.294 116.922C118.504 116.922 121.061 119.479 121.061 122.689Z" fill="url(#paint6_linear_18_14570)"/>
<path d="M246.954 83.8984C268.39 142.82 237.977 207.944 179.055 229.38C120.134 250.816 55.0101 220.403 33.5742 161.481C33.5742 161.481 98.9156 176.334 157.239 152.667C215.562 128.946 246.954 83.8984 246.954 83.8984Z" fill="url(#paint7_radial_18_14570)"/>
<path style="mix-blend-mode:multiply" d="M94.944 165.728C87.9256 186.729 70.6246 196.032 57.2952 200.221C47.2301 189.449 39.0692 176.555 33.683 161.811C33.6286 161.702 33.5742 161.593 33.5742 161.484C33.5742 161.484 60.3419 167.578 94.944 165.728Z" fill="url(#paint8_linear_18_14570)"/>
<path style="mix-blend-mode:multiply" d="M155.555 235.202C122.748 239.664 90.0502 229.49 65.7852 208.38C102.237 211.046 117.199 197.608 126.339 179.11C129.222 173.397 131.888 166.869 133.357 160.286C141.3 158.327 149.353 155.824 157.241 152.669C169.483 147.663 180.581 141.733 190.375 135.477C173.128 153.594 146.795 181.069 141.736 194.725C137.927 204.79 138.363 223.451 155.555 235.202Z" fill="url(#paint9_linear_18_14570)"/>
<path style="mix-blend-mode:multiply" d="M251.905 143.474C242.602 135.205 223.342 141.352 215.453 153.648C201.689 175.302 215.78 190.971 224.158 199.186C214.8 209.469 203.484 218.119 190.427 224.539C183.517 213.005 174.323 190.318 188.74 165.509C193.963 156.586 203.266 149.622 211.319 143.202C219.969 136.293 228.456 129.927 235.366 121.168C241.568 113.333 245.213 97.2293 247.063 84.1719C254.136 103.867 255.496 124.269 251.905 143.474Z" fill="url(#paint10_linear_18_14570)"/>
<path style="mix-blend-mode:multiply" d="M248.969 155.335C245.324 167.522 239.665 178.947 232.266 189.23C231.903 189.121 231.559 188.994 231.232 188.849C222.691 185.04 219.209 174.159 223.452 164.584C227.696 154.954 238.088 150.275 246.629 154.029C247.463 154.392 248.243 154.827 248.969 155.335Z" fill="url(#paint11_linear_18_14570)"/>
<path d="M256.313 87.0562C256.313 87.0562 256.313 87.0744 256.313 87.1107C256.204 88.5977 255.95 90.1211 255.551 91.6807C251.906 105.065 236.781 120.625 214.039 135.26C210.376 137.654 206.513 139.993 202.451 142.278C185.694 151.854 165.781 160.722 143.91 168.121C73.8356 191.679 10.1808 190.373 1.69347 165.183C-6.41299 141.136 34.609 89.5045 99.7872 65.6748C100.549 68.1774 101.256 70.7345 102.018 73.2916C51.2028 92.0616 19.8106 133.682 25.4144 150.276C31.3447 167.849 81.398 166.924 137.218 148.1C193.039 129.33 233.462 99.8416 227.532 82.2141C223.833 71.1153 202.56 67.4157 173.344 70.8433C178.893 67.9054 188.578 60.8326 188.85 60.615C205.987 59.2549 220.949 60.1254 232.374 63.0633C243.854 66.0556 251.743 71.1697 254.898 78.3513C255.08 78.8228 255.261 79.2943 255.442 79.7659C256.204 82.1053 256.53 84.5536 256.313 87.0562Z" fill="url(#paint12_linear_18_14570)"/>
<path d="M139.397 193.092C95.6544 204.79 53.4899 203.43 23.6211 191.732C51.2049 197.826 85.3173 196.846 120.518 187.434C160.18 176.771 193.259 157.511 214.042 135.259C232.757 115.292 241.462 92.8769 235.967 72.3659C235.097 69.156 233.9 66.0548 232.376 63.0625C243.856 66.0548 251.799 71.169 254.9 78.405C258.437 87.5995 255.988 100.494 253.649 107.566C242.061 142.549 197.774 177.424 139.397 193.092Z" fill="url(#paint13_linear_18_14570)"/>
<path d="M144.455 74.2695C144.455 74.2695 154.574 95.107 117.578 111.374C128.677 102.833 128.84 86.3476 118.884 81.2335L144.455 74.2695Z" fill="url(#paint14_linear_18_14570)"/>
<path d="M118.936 29.548C118.936 29.548 106.15 10.1795 73.2891 33.7372C86.3465 28.5142 100.601 36.7839 99.8935 47.9371L118.936 29.548Z" fill="url(#paint15_linear_18_14570)"/>
<path d="M102.998 84.2814L89.7773 61.1045C101.475 39.9406 126.066 14.5331 151.419 5.44735C184.824 -6.57634 209.361 4.84889 212.136 6.26344C212.172 6.26344 212.209 6.28158 212.245 6.31785C212.245 6.35412 212.245 6.40852 212.245 6.48106C212.082 9.52779 209.797 36.8939 181.995 59.0915C163.062 74.2707 127.426 84.8799 102.998 84.2814Z" fill="url(#paint16_linear_18_14570)"/>
<path d="M196.465 44.5651C210.665 26.3935 212.134 8.87482 212.242 6.48097C212.242 6.40842 212.242 6.35403 212.242 6.31775C212.206 6.28148 212.17 6.26335 212.134 6.26335C209.957 5.17523 194.289 -2.16956 171.384 0.659543C169.534 10.8878 186.781 40.7022 196.465 44.5651Z" fill="url(#paint17_linear_18_14570)"/>
<path d="M95.8141 88.3622L82.5391 65.0765L89.775 60.9961L103.05 84.2274L95.8141 88.3622Z" fill="url(#paint18_linear_18_14570)"/>
<path opacity="0.2" d="M212.246 6.31707C170.952 11.2136 139.396 23.4549 95.5997 71.2232L91.4648 63.9328C104.849 45.7069 128.189 19.5377 152.889 9.3638C185.478 -4.07445 212.246 6.31707 212.246 6.31707Z" fill="url(#paint19_linear_18_14570)"/>
<g style="mix-blend-mode:multiply" opacity="0.4">
<path d="M141.299 61.2659C134.009 65.4007 124.814 62.8437 120.679 55.6077C116.544 48.3717 119.047 39.1227 126.337 34.9879C133.573 30.853 142.768 33.4101 146.903 40.6461C151.038 47.8821 148.535 57.1311 141.299 61.2659Z" fill="#999999"/>
</g>
<path d="M141.733 60.18C134.497 64.3148 125.248 61.7577 121.113 54.5218C116.978 47.2858 119.535 38.0368 126.771 33.902C134.007 29.7671 143.256 32.3242 147.391 39.5602C151.526 46.7961 148.969 56.0451 141.733 60.18Z" fill="url(#paint20_linear_18_14570)"/>
<path d="M140.156 57.4026C134.444 60.667 127.153 58.654 123.889 52.9414C120.625 47.2287 122.638 39.9384 128.35 36.674C134.063 33.4097 141.353 35.4227 144.617 41.1353C147.882 46.8479 145.923 54.1383 140.156 57.4026Z" fill="url(#paint21_linear_18_14570)"/>
<g style="mix-blend-mode:multiply" opacity="0.4">
<path d="M168.664 41.3566C163.822 44.1313 157.674 42.4447 154.954 37.6026C152.179 32.7605 153.866 26.6126 158.708 23.8379C163.55 21.1176 169.698 22.8042 172.418 27.6463C175.193 32.434 173.506 38.5819 168.664 41.3566Z" fill="#999999"/>
</g>
<path d="M168.991 40.6482C164.149 43.3685 158.001 41.6819 155.226 36.8398C152.506 32.052 154.193 25.9042 158.98 23.1295C163.823 20.3548 169.97 22.0414 172.745 26.8835C175.52 31.7256 173.833 37.8735 168.991 40.6482Z" fill="url(#paint22_linear_18_14570)"/>
<path d="M167.959 38.797C164.096 40.9733 159.254 39.6131 157.078 35.8047C154.901 31.9963 156.207 27.1542 160.07 24.9779C163.878 22.8017 168.72 24.1075 170.897 27.9159C173.073 31.7787 171.767 36.6208 167.959 38.797Z" fill="url(#paint23_linear_18_14570)"/>
<path d="M220.678 40.1018L222.8 48.6979L224.922 40.1018L233.464 37.98L224.922 35.8581L222.8 27.3164L220.678 35.8581L212.137 37.98L220.678 40.1018Z" fill="url(#paint24_linear_18_14570)"/>
<path d="M235.421 17.7987L236.727 23.1305L238.033 17.7987L243.365 16.493L238.033 15.1872L236.727 9.85547L235.421 15.1872L230.035 16.493L235.421 17.7987Z" fill="url(#paint25_linear_18_14570)"/>
<defs>
<linearGradient id="paint0_linear_18_14570" x1="29.1615" y1="98.2982" x2="192.205" y2="31.9123" gradientUnits="userSpaceOnUse">
<stop stop-color="#9059FC"/>
<stop offset="1" stop-color="#401BDB"/>
</linearGradient>
<linearGradient id="paint1_linear_18_14570" x1="125.206" y1="200.6" x2="60.9561" y2="57.8224" gradientUnits="userSpaceOnUse">
<stop stop-color="#9059FC"/>
<stop offset="1" stop-color="#401BDB"/>
</linearGradient>
<linearGradient id="paint2_linear_18_14570" x1="123.619" y1="196.133" x2="73.2344" y2="88.7919" gradientUnits="userSpaceOnUse">
<stop stop-color="#401BDB"/>
<stop offset="1" stop-color="#E46BF8"/>
</linearGradient>
<linearGradient id="paint3_linear_18_14570" x1="130.388" y1="123.494" x2="166.646" y2="123.494" gradientUnits="userSpaceOnUse">
<stop offset="0.005" stop-color="#FF5F6B"/>
<stop offset="1" stop-color="#E46BF8"/>
</linearGradient>
<linearGradient id="paint4_linear_18_14570" x1="184.189" y1="99.3548" x2="198.764" y2="99.3548" gradientUnits="userSpaceOnUse">
<stop offset="0.005" stop-color="#FF5F6B"/>
<stop offset="1" stop-color="#E46BF8"/>
</linearGradient>
<linearGradient id="paint5_linear_18_14570" x1="72.4928" y1="150.495" x2="87.0676" y2="150.495" gradientUnits="userSpaceOnUse">
<stop offset="0.005" stop-color="#FF5F6B"/>
<stop offset="1" stop-color="#E46BF8"/>
</linearGradient>
<linearGradient id="paint6_linear_18_14570" x1="109.549" y1="116.92" x2="121.055" y2="116.92" gradientUnits="userSpaceOnUse">
<stop offset="0.005" stop-color="#FF5F6B"/>
<stop offset="1" stop-color="#E46BF8"/>
</linearGradient>
<radialGradient id="paint7_radial_18_14570" cx="0" cy="0" r="1" gradientUnits="userSpaceOnUse" gradientTransform="translate(132.02 119.241) scale(134.743 134.743)">
<stop stop-color="#401BDB"/>
<stop offset="1" stop-color="#E46BF8"/>
</radialGradient>
<linearGradient id="paint8_linear_18_14570" x1="33.5639" y1="161.47" x2="94.9211" y2="161.47" gradientUnits="userSpaceOnUse">
<stop stop-color="#401BDB"/>
<stop offset="0.992" stop-color="#E46BF8"/>
</linearGradient>
<linearGradient id="paint9_linear_18_14570" x1="65.7852" y1="135.497" x2="190.389" y2="135.497" gradientUnits="userSpaceOnUse">
<stop stop-color="#401BDB"/>
<stop offset="0.992" stop-color="#E46BF8"/>
</linearGradient>
<linearGradient id="paint10_linear_18_14570" x1="314.145" y1="245.37" x2="212.33" y2="300.061" gradientUnits="userSpaceOnUse">
<stop stop-color="#401BDB"/>
<stop offset="0.992" stop-color="#E46BF8"/>
</linearGradient>
<linearGradient id="paint11_linear_18_14570" x1="221.622" y1="152.732" x2="248.984" y2="152.732" gradientUnits="userSpaceOnUse">
<stop stop-color="#401BDB"/>
<stop offset="0.992" stop-color="#E46BF8"/>
</linearGradient>
<linearGradient id="paint12_linear_18_14570" x1="293.791" y1="248.681" x2="-46.8692" y2="137.844" gradientUnits="userSpaceOnUse">
<stop offset="0.118" stop-color="#401BDB"/>
<stop offset="0.623" stop-color="#E46BF8"/>
<stop offset="1" stop-color="#FF8B2C"/>
</linearGradient>
<linearGradient id="paint13_linear_18_14570" x1="307.443" y1="180.334" x2="47.6053" y2="223.275" gradientUnits="userSpaceOnUse">
<stop offset="0.118" stop-color="#401BDB"/>
<stop offset="0.785" stop-color="#E46BF8"/>
</linearGradient>
<linearGradient id="paint14_linear_18_14570" x1="107.775" y1="119.319" x2="97.9815" y2="76.0383" gradientUnits="userSpaceOnUse">
<stop stop-color="#401BDB"/>
<stop offset="1" stop-color="#E46BF8"/>
</linearGradient>
<linearGradient id="paint15_linear_18_14570" x1="83.9444" y1="54.221" x2="71.5901" y2="34.415" gradientUnits="userSpaceOnUse">
<stop stop-color="#401BDB"/>
<stop offset="1" stop-color="#E46BF8"/>
</linearGradient>
<linearGradient id="paint16_linear_18_14570" x1="89.7866" y1="0.00731448" x2="212.254" y2="0.00731448" gradientUnits="userSpaceOnUse">
<stop stop-color="#FF5F6B"/>
<stop offset="1" stop-color="#E46BF8"/>
</linearGradient>
<linearGradient id="paint17_linear_18_14570" x1="190.694" y1="44.7228" x2="170.826" y2="9.60055" gradientUnits="userSpaceOnUse">
<stop stop-color="#401BDB"/>
<stop offset="1" stop-color="#E46BF8"/>
</linearGradient>
<linearGradient id="paint18_linear_18_14570" x1="97.8788" y1="91.1293" x2="85.216" y2="70.3103" gradientUnits="userSpaceOnUse">
<stop stop-color="#401BDB"/>
<stop offset="1" stop-color="#E46BF8"/>
</linearGradient>
<linearGradient id="paint19_linear_18_14570" x1="198.696" y1="-17.4692" x2="212.251" y2="6.31651" gradientUnits="userSpaceOnUse">
<stop stop-color="white"/>
<stop offset="1" stop-color="#E46BF8"/>
</linearGradient>
<linearGradient id="paint20_linear_18_14570" x1="118.868" y1="36.6266" x2="143.911" y2="24.4865" gradientUnits="userSpaceOnUse">
<stop offset="0.58" stop-color="#401BDB"/>
<stop offset="1" stop-color="#E46BF8"/>
</linearGradient>
<linearGradient id="paint21_linear_18_14570" x1="116.325" y1="43.5194" x2="136.889" y2="31.738" gradientUnits="userSpaceOnUse">
<stop stop-color="#401BDB"/>
<stop offset="1" stop-color="#E46BF8"/>
</linearGradient>
<linearGradient id="paint22_linear_18_14570" x1="153.731" y1="24.9358" x2="170.426" y2="16.8423" gradientUnits="userSpaceOnUse">
<stop offset="0.58" stop-color="#401BDB"/>
<stop offset="1" stop-color="#E46BF8"/>
</linearGradient>
<linearGradient id="paint23_linear_18_14570" x1="152.036" y1="29.5306" x2="165.745" y2="21.6764" gradientUnits="userSpaceOnUse">
<stop stop-color="#401BDB"/>
<stop offset="1" stop-color="#E46BF8"/>
</linearGradient>
<linearGradient id="paint24_linear_18_14570" x1="212.112" y1="27.2946" x2="233.489" y2="27.2946" gradientUnits="userSpaceOnUse">
<stop offset="0.005" stop-color="#FF8B2C"/>
<stop offset="0.347" stop-color="#FF5F6B"/>
<stop offset="1" stop-color="#E46BF8"/>
</linearGradient>
<linearGradient id="paint25_linear_18_14570" x1="230.062" y1="9.85928" x2="243.358" y2="9.85928" gradientUnits="userSpaceOnUse">
<stop offset="0.005" stop-color="#FF8B2C"/>
<stop offset="0.347" stop-color="#FF5F6B"/>
<stop offset="1" stop-color="#E46BF8"/>
</linearGradient>
</defs>
</svg>
