<svg width="257" height="228" viewBox="0 0 257 228" fill="none" xmlns="http://www.w3.org/2000/svg">
<path d="M124.563 100.402C144.419 100.402 156.474 102.766 160.079 104.48C156.474 106.135 144.419 108.557 124.563 108.557C104.648 108.557 92.5923 106.135 88.9875 104.48C92.5923 102.766 104.648 100.402 124.563 100.402ZM88.1602 109.385C90.2876 110.212 93.065 110.862 96.6698 111.453C104.175 112.753 114.044 113.462 124.563 113.462C135.023 113.462 144.891 112.753 152.397 111.453C156.001 110.862 158.779 110.212 160.906 109.385V119.195C160.906 139.287 144.596 155.597 124.563 155.597C104.47 155.597 88.1602 139.287 88.1602 119.195V109.385Z" fill="url(#paint0_linear_18_14532)"/>
<path fill-rule="evenodd" clip-rule="evenodd" d="M184.959 161.921C184.959 173.74 145.424 176.872 124.505 176.872C103.644 176.872 64.1094 173.74 64.1094 161.921C64.1094 154.948 77.9967 151.225 91.3522 149.275C84.379 141.415 80.1242 131.133 80.1242 119.846V85.6886C80.1242 76.5289 108.076 74.0469 124.505 74.0469C140.992 74.0469 168.885 76.5289 168.885 85.6886V89.7662C172.194 90.0617 175.267 90.8299 178.163 92.2482C184.545 95.3211 189.332 100.64 191.696 107.317C196.482 121.027 189.214 136.156 175.504 140.943L160.08 146.379C159.331 147.364 158.543 148.329 157.716 149.275C171.012 151.225 184.959 154.948 184.959 161.921ZM168.885 94.3165V98.7486C170.855 98.985 172.667 99.4972 174.322 100.285C178.518 102.353 181.65 105.84 183.245 110.272C186.436 119.373 181.59 129.36 172.549 132.551L166.344 134.678C165.674 136.57 164.867 138.401 163.921 140.174L173.967 136.688C185.373 132.669 191.341 120.2 187.382 108.795C185.432 103.299 181.472 98.8668 176.213 96.3257C173.908 95.262 171.426 94.5529 168.885 94.3165ZM167.88 129.36L171.012 128.237C177.749 125.873 181.295 118.486 178.931 111.75C177.808 108.499 175.445 105.899 172.372 104.422C171.249 103.89 170.126 103.594 168.885 103.358V119.846C168.885 123.096 168.53 126.287 167.88 129.36ZM84.6745 85.6886C85.0881 87.166 95.9616 92.78 124.505 92.78C153.166 92.78 163.98 87.166 164.335 85.6886C163.98 84.2112 153.166 78.5972 124.505 78.5972C95.9616 78.5972 85.0881 84.2112 84.6745 85.6886ZM84.6745 119.846C84.6745 131.369 89.6385 141.829 97.5572 149.098C97.6754 149.176 97.7936 149.295 97.9118 149.452C104.944 155.775 114.281 159.676 124.505 159.676C134.728 159.676 144.065 155.775 151.156 149.452C151.275 149.295 151.393 149.176 151.511 149.098C153.481 147.285 155.254 145.296 156.83 143.129C156.83 143.09 156.83 143.07 156.83 143.07C159.253 139.702 161.144 136.038 162.385 132.196C163.685 128.296 164.335 124.16 164.335 119.846V91.3618C155.766 95.9121 136.915 97.3304 124.505 97.3304C112.154 97.3304 93.3024 95.9121 84.6745 91.3618V119.846ZM180.409 161.921C180.409 160.208 173.79 155.835 153.638 153.293C145.838 160.089 135.674 164.226 124.505 164.226C113.395 164.226 103.23 160.089 95.4298 153.293C75.2784 155.835 68.6597 160.208 68.6597 161.921C68.6597 165.467 88.3975 172.322 124.505 172.322C160.671 172.322 180.409 165.467 180.409 161.921Z" fill="url(#paint1_linear_18_14532)"/>
<path d="M127.517 66.4817C126.572 66.4817 125.626 66.0089 125.154 65.1225C121.076 57.6765 121.549 49.5805 126.454 42.3118C128.817 38.8252 132.009 29.7245 126.335 25.1742C125.154 24.2878 124.976 22.574 125.863 21.3921C126.808 20.2693 128.463 20.0329 129.645 20.9784C137.623 27.3016 135.2 39.0024 130.945 45.3256C128.286 49.2259 125.922 55.3718 129.881 62.5223C130.59 63.8224 130.117 65.4179 128.817 66.1862C128.404 66.3635 127.931 66.4817 127.517 66.4817Z" fill="url(#paint2_linear_18_14532)"/>
<path d="M145.604 66.4817C144.658 66.4817 143.772 66.0089 143.299 65.1225C139.162 57.6765 139.635 49.5805 144.599 42.3118C146.904 38.8252 150.154 29.7245 144.422 25.1742C143.299 24.2878 143.063 22.574 144.008 21.3921C144.895 20.2693 146.608 20.0329 147.79 20.9784C155.709 27.3016 153.286 39.0024 149.031 45.3256C146.372 49.2259 144.067 55.3718 147.967 62.5223C148.677 63.8224 148.204 65.4179 146.904 66.1862C146.49 66.3635 146.076 66.4817 145.604 66.4817Z" fill="url(#paint3_linear_18_14532)"/>
<path d="M109.375 66.4817C108.43 66.4817 107.543 66.0089 107.011 65.1225C102.934 57.6765 103.407 49.5805 108.371 42.3118C110.675 38.8252 113.926 29.7245 108.193 25.1742C107.011 24.2878 106.834 22.574 107.78 21.3921C108.666 20.2693 110.38 20.0329 111.562 20.9784C119.48 27.3016 117.058 39.0024 112.803 45.3256C110.143 49.2259 107.839 55.3718 111.739 62.5223C112.448 63.8224 111.975 65.4179 110.675 66.1862C110.262 66.3635 109.848 66.4817 109.375 66.4817Z" fill="url(#paint4_linear_18_14532)"/>
<path d="M128.639 227.222C73.9166 227.222 29.418 182.665 29.418 128.002C29.418 95.0267 45.7282 64.2972 73.0893 45.8004C74.4484 44.8549 76.3395 45.2095 77.285 46.5687C78.2305 47.987 77.876 49.878 76.4577 50.8235C50.8104 68.1975 35.5048 97.0359 35.5048 128.002C35.5048 179.355 77.285 221.136 128.639 221.136C179.992 221.136 221.773 179.355 221.773 128.002C221.773 97.0359 206.467 68.1975 180.82 50.8235C179.401 49.878 179.047 47.987 179.992 46.5687C180.938 45.2095 182.829 44.8549 184.188 45.8004C211.549 64.2972 227.859 95.0267 227.859 128.002C227.859 182.665 183.361 227.222 128.639 227.222Z" fill="url(#paint5_linear_18_14532)"/>
<path d="M240.508 186.741C240.035 186.741 239.582 186.622 239.148 186.386C237.671 185.677 237.021 183.845 237.789 182.308C246.299 165.348 250.554 147.029 250.554 128C250.554 60.7498 195.891 6.02771 128.641 6.02771C61.3904 6.02771 6.72743 60.7498 6.72743 128C6.72743 147.029 11.0414 165.348 19.492 182.308C20.2602 183.845 19.6102 185.677 18.1328 186.386C16.6554 187.154 14.8235 186.563 14.0552 185.027C5.19096 167.18 0.640625 147.974 0.640625 128C0.640625 57.3814 58.0811 0 128.641 0C199.2 0 256.641 57.3814 256.641 128C256.641 147.974 252.149 167.18 243.226 185.027C242.694 186.09 241.63 186.741 240.508 186.741Z" fill="url(#paint6_linear_18_14532)"/>
<defs>
<linearGradient id="paint0_linear_18_14532" x1="44.9805" y1="14.5555" x2="259.453" y2="197.682" gradientUnits="userSpaceOnUse">
<stop offset="0.073" stop-color="#512B06"/>
<stop offset="0.625" stop-color="#B16E39"/>
<stop offset="0.999" stop-color="#DFA463"/>
</linearGradient>
<linearGradient id="paint1_linear_18_14532" x1="60.1211" y1="-19.4404" x2="275.213" y2="164.215" gradientUnits="userSpaceOnUse">
<stop offset="0.073" stop-color="#512B06"/>
<stop offset="0.625" stop-color="#B16E39"/>
<stop offset="0.999" stop-color="#DFA463"/>
</linearGradient>
<linearGradient id="paint2_linear_18_14532" x1="118.017" y1="-61.3913" x2="333.196" y2="122.338" gradientUnits="userSpaceOnUse">
<stop offset="0.073" stop-color="#512B06"/>
<stop offset="0.625" stop-color="#B16E39"/>
<stop offset="0.999" stop-color="#DFA463"/>
</linearGradient>
<linearGradient id="paint3_linear_18_14532" x1="123.008" y1="-72.6064" x2="338.183" y2="111.12" gradientUnits="userSpaceOnUse">
<stop offset="0.073" stop-color="#512B06"/>
<stop offset="0.625" stop-color="#B16E39"/>
<stop offset="0.999" stop-color="#DFA463"/>
</linearGradient>
<linearGradient id="paint4_linear_18_14532" x1="113.039" y1="-50.1762" x2="328.199" y2="133.538" gradientUnits="userSpaceOnUse">
<stop offset="0.073" stop-color="#512B06"/>
<stop offset="0.625" stop-color="#B16E39"/>
<stop offset="0.999" stop-color="#DFA463"/>
</linearGradient>
<linearGradient id="paint5_linear_18_14532" x1="88.7826" y1="-59.9899" x2="321.595" y2="138.796" gradientUnits="userSpaceOnUse">
<stop offset="0.073" stop-color="#512B06"/>
<stop offset="0.625" stop-color="#B16E39"/>
<stop offset="0.999" stop-color="#DFA463"/>
</linearGradient>
<linearGradient id="paint6_linear_18_14532" x1="94.3938" y1="-87.4094" x2="309.439" y2="96.2057" gradientUnits="userSpaceOnUse">
<stop offset="0.073" stop-color="#512B06"/>
<stop offset="0.625" stop-color="#B16E39"/>
<stop offset="0.999" stop-color="#DFA463"/>
</linearGradient>
</defs>
</svg>
