<svg width="257" height="205" viewBox="0 0 257 205" fill="none" xmlns="http://www.w3.org/2000/svg">
<path d="M115.564 0C61.166 0 16.6719 44.4941 16.6719 98.8917V169.955C16.6719 189.04 32.2875 204.656 51.383 204.656H205.723C224.818 204.656 240.434 189.04 240.434 169.955V98.8917C240.434 44.4941 195.94 0 141.542 0H115.564Z" fill="#0C0C0E"/>
<mask id="mask0_18_14272" style="mask-type:luminance" maskUnits="userSpaceOnUse" x="19" y="2" width="219" height="201">
<path d="M115.562 2.61719H141.542C194.492 2.61719 237.815 45.9404 237.815 98.8913V169.95C237.815 187.601 223.373 202.041 205.725 202.041H51.3804C33.7305 202.041 19.2891 187.601 19.2891 169.95V98.8913C19.2891 45.9404 62.6123 2.61719 115.562 2.61719Z" fill="white"/>
</mask>
<g mask="url(#mask0_18_14272)">
<path d="M19.2891 202.038H237.82V2.61328H19.2891V202.038Z" fill="url(#paint0_linear_18_14272)"/>
</g>
<path opacity="0.42" d="M115.566 2.61328H141.544C194.498 2.61328 237.821 45.9365 237.821 98.8896V119.276L135.734 141.381L37.7722 134.038C37.7722 134.038 12.0781 136.763 23.1634 109.57C34.2486 82.3876 60.2272 92.1925 87.3439 84.3573C114.472 76.5331 138.535 71.751 176.365 83.9743C214.184 96.1976 214.567 65.6448 206.546 66.3999C198.525 67.1659 200.429 61.4427 200.429 46.9214C200.429 32.4001 196.861 20.2096 180.184 27.432C163.507 34.6653 162.993 28.581 104.918 26.6769C55.5436 25.0464 27.267 73.5457 19.9023 88.1108C25.3082 40.1805 66.2568 2.61328 115.566 2.61328Z" fill="#FFFF00"/>
<path opacity="0.34" d="M237.82 139.511V169.954C237.82 187.605 223.376 202.039 205.725 202.039H203.82C240.118 175.119 200.001 185.789 195.033 178.917C190.065 172.033 174.023 174.331 158.746 180.821C143.459 187.321 135.438 183.502 117.863 176.235C100.289 168.98 96.0869 171.65 80.8105 177.385C65.5231 183.119 59.0339 183.874 38.4064 177.002C29.6521 174.091 23.5787 173.347 19.486 173.456C19.3547 172.296 19.2891 171.136 19.2891 169.954V136.578C60.0735 136.72 141.632 138.701 148.044 137.268C154.26 135.889 207.935 137.497 237.82 139.511Z" fill="#5E17A9"/>
<path d="M29.8384 129.664H227.272C237.678 129.664 246.192 138.178 246.192 148.584C246.192 158.991 237.678 167.505 227.272 167.505H29.8384C19.4316 167.505 10.918 158.991 10.918 148.584C10.918 138.178 19.4316 129.664 29.8384 129.664Z" fill="#0C0C0E"/>
<mask id="mask1_18_14272" style="mask-type:luminance" maskUnits="userSpaceOnUse" x="13" y="132" width="231" height="33">
<path d="M27.6989 132.383H229.397C237.133 132.383 243.464 138.712 243.464 146.45V150.72C243.464 158.457 237.133 164.786 229.397 164.786H27.6989C19.9622 164.786 13.6328 158.457 13.6328 150.72V146.45C13.6328 138.712 19.9622 132.383 27.6989 132.383Z" fill="white"/>
</mask>
<g mask="url(#mask1_18_14272)">
<path d="M13.6406 164.789H243.465V132.387H13.6406V164.789Z" fill="url(#paint1_linear_18_14272)"/>
</g>
<path d="M27.7024 132.387H229.403C237.14 132.387 243.465 138.712 243.465 146.448V150.716C238.989 162.83 229.403 164.789 212.42 155.422C195.436 146.044 183.005 144.533 176.319 154.842C169.633 165.161 152.627 160.193 136.771 151.406C120.915 142.618 116.713 149.491 105.441 158.661C94.17 167.831 88.8298 164.789 83.2817 160.193C77.7446 155.597 73.3564 152.741 66.4733 159.427C59.6011 166.113 48.5268 159.044 42.9787 156.374C37.4416 153.693 34.3885 149.688 23.8832 152.172C19.6045 153.178 16.1903 151.854 13.6406 149.917V146.448C13.6406 138.712 19.9657 132.387 27.7024 132.387Z" fill="#5E17A9"/>
<path d="M49.3038 121.314L121.79 111.914L144.103 116.762L224.107 126.764C225.967 125.834 228.09 125.013 230.016 124.509C238.158 122.408 242.513 126.643 240.532 135.058C239.941 137.564 238.803 139.851 237.151 141.821C231.515 148.518 221.393 150.116 213.153 149.011C208.327 148.365 203.425 146.724 199.376 143.988C193.926 140.289 184.493 136.295 178.3 140.552C176.932 141.493 175.903 142.751 175.181 144.24C174.174 146.297 172.817 148.135 171.055 149.602C161.436 157.678 145.996 150.565 136.88 145.224C119.952 135.31 119.448 142.117 107.794 153.771C103.658 157.907 98.1861 161.934 92.0033 160.37C86.9805 159.111 83.041 154.46 79.5611 150.882C73.8161 144.984 69.9751 145.421 65.576 152.337C59.5355 161.836 51.8097 160.359 45.7036 152.13C44.8062 150.915 43.5478 149.164 42.2565 148.365C41.1732 147.687 39.7396 147.479 38.4812 147.358C35.5375 147.074 32.375 147.139 29.4095 147.139C23.3689 147.139 18.0288 144.896 14.2534 140.136C12.7324 138.232 11.1894 135.441 10.6094 133.034L10.5 132.574L10.5547 132.104C11.2988 124.63 24.9447 122.923 30.657 122.266C36.7084 121.555 43.1976 121.237 49.3038 121.314Z" fill="#0C0C0E"/>
<path d="M13.3242 132.389C13.3242 132.389 16.2351 144.35 29.4104 144.35C42.5857 144.35 43.5487 144.547 47.9369 150.467C52.3359 156.387 57.8731 159.254 63.2242 150.85C68.5644 142.446 74.4955 141.68 81.5537 148.935C88.6228 156.19 94.16 163.456 105.814 151.802C117.469 140.148 119.384 131.744 138.293 142.829C157.202 153.903 168.277 151.988 172.676 143.015C177.064 134.042 189.101 133.659 200.942 141.68C212.793 149.701 234.569 148.18 237.819 134.425C241.059 120.669 224.633 129.643 224.633 129.643L143.644 119.52L121.671 114.738L49.4689 124.105C49.4689 124.105 14.2106 123.613 13.3242 132.389Z" fill="#F9FCBA"/>
<mask id="mask2_18_14272" style="mask-type:luminance" maskUnits="userSpaceOnUse" x="13" y="128" width="226" height="30">
<path d="M13.8438 133.917C15.1405 137.145 19.1806 144.351 29.409 144.351C42.5888 144.351 43.5441 144.541 47.9377 150.463C52.3313 156.385 57.8706 159.251 63.2185 150.845C68.5674 142.44 74.4886 141.676 81.5567 148.935C88.6248 156.194 94.1641 163.453 105.816 151.801C117.468 140.147 119.379 131.743 138.289 142.823C157.2 153.902 168.28 151.99 172.673 143.013C177.067 134.037 189.101 133.653 200.944 141.675C212.787 149.698 234.572 148.18 237.815 134.421C238.575 131.198 238.255 129.222 237.319 128.087C234.679 128.043 232.134 129.129 230.981 132.472C228.095 140.838 221.554 146.353 205.728 136.126C189.902 125.898 170.39 135.362 168.669 140.52C166.95 145.677 154.323 149.72 139.444 139.183C124.565 128.645 110.219 136.769 106.971 142.048C103.724 147.326 99.5207 153.318 93.9814 149.307C88.4431 145.295 85.1942 136.769 69.7219 141.283C54.2496 145.797 58.2613 150.644 54.2496 147.588C50.239 144.531 39.7326 140.901 34.3837 141.666C29.0348 142.43 19.289 137.655 19.289 137.655C17.6661 136.467 15.7828 135.171 13.8438 133.917Z" fill="white"/>
</mask>
<g mask="url(#mask2_18_14272)">
<path d="M13.8438 163.455H238.569V125.898H13.8438V163.455Z" fill="url(#paint2_linear_18_14272)"/>
</g>
<path d="M116.9 102.078C124.823 102.078 131.29 108.545 131.29 116.468V122.388C131.29 130.3 124.823 136.767 116.9 136.767H19.2885C11.3767 136.767 4.89844 130.3 4.89844 122.388V116.468C4.89844 108.545 11.3767 102.078 19.2885 102.078H116.9Z" fill="#332C2B"/>
<path d="M116.898 104.812H19.2871C12.8745 104.812 7.63281 110.054 7.63281 116.467V122.387C7.63281 128.789 12.8745 134.041 19.2871 134.041H116.898C123.311 134.041 128.553 128.789 128.553 122.387V116.467C128.553 110.054 123.311 104.812 116.898 104.812Z" fill="#D73C2C"/>
<path d="M116.898 104.812H19.2871C12.8745 104.812 7.63281 110.054 7.63281 116.467V122.387C7.63281 124.466 8.19091 126.414 9.15389 128.11C15.8729 129.73 31.007 132.564 40.2976 127.913C52.5318 121.807 55.5849 126.939 62.0741 129.664C68.5743 132.389 92.7363 127.53 96.9384 121.61C101.141 115.69 108.779 120.439 117.38 125.046C121.133 127.06 124.154 128.001 126.66 128.734C127.852 126.906 128.553 124.718 128.553 122.387V116.467C128.553 110.054 123.311 104.812 116.898 104.812Z" fill="#8A0028"/>
<path d="M239.125 104.812H141.514C135.101 104.812 129.859 110.054 129.859 116.467V122.387C129.859 128.789 135.101 134.041 141.514 134.041H239.125C245.538 134.041 250.779 128.789 250.779 122.387V116.467C250.779 110.054 245.538 104.812 239.125 104.812Z" fill="#D73C2C"/>
<path d="M181.477 104.812H141.514C135.101 104.812 129.859 110.054 129.859 116.467V122.387C129.859 125.67 131.238 128.657 133.46 130.78C136.228 130.561 141.36 129.828 144.512 127.344C148.999 123.809 148.9 122.179 161.036 125.626C173.161 129.062 183.163 131.448 191.02 127.246C198.888 123.043 209.415 119.684 214.525 122.945C217.71 124.98 226.945 131.601 235.295 134.041H239.125C245.538 134.041 250.779 128.789 250.779 122.387V116.467C250.779 111.247 247.31 106.804 242.561 105.338C229.626 106.52 205.355 109.19 205.355 109.19L181.477 104.812Z" fill="#8A0028"/>
<path d="M94.7737 111.761C93.3621 112.309 92.027 112.888 90.8124 113.468C85.8005 115.81 80.9527 118.71 76.3676 121.807C74.2556 123.241 72.0889 124.762 70.0754 126.359L67.7117 128.241L65.9499 125.79C63.4549 122.321 59.0449 120.056 55.1273 118.612C53.3108 117.944 51.2973 117.342 49.2072 116.828L46.6137 118.776C39.1177 124.39 28.0544 126.874 18.7638 126.983H17.954C8.37892 126.983 0.554688 119.159 0.554688 109.595C0.554688 100.02 8.37892 92.1953 17.954 92.1953H239.155C248.73 92.1953 256.555 100.02 256.555 109.595C256.555 119.159 248.73 126.983 239.155 126.983H233.574L233.279 126.928C228.53 125.933 224.349 123.427 220.902 120.056C219.206 118.393 217.094 117.145 214.928 116.193C213.308 115.482 211.448 114.858 209.478 114.355L210.912 115.635L208.854 117.78C205.298 121.522 196.718 123.974 191.794 124.74C182.865 126.129 173.563 124.893 165.991 119.695C161.493 116.62 156.503 114.256 151.316 112.549L151.655 112.812L147.322 114.793C143.459 116.554 138.688 122.42 136.149 125.823L135.285 126.983H126.771L125.994 126.37C123.576 124.455 120.851 122.814 118.148 121.347C114.132 119.17 109.919 117.288 105.673 115.602C103.703 114.814 101.679 114.037 99.6652 113.37L94.7737 111.761Z" fill="#0C0C0E"/>
<mask id="mask3_18_14272" style="mask-type:luminance" maskUnits="userSpaceOnUse" x="3" y="95" width="251" height="30">
<path d="M17.9545 95.0703H239.156C247.14 95.0703 253.673 101.603 253.673 109.588C253.673 117.573 247.14 124.105 239.156 124.105H233.869C230.285 123.354 226.489 121.486 222.915 117.993C214.51 109.779 197.32 109.875 197.32 109.875C201.427 111.021 206.776 115.796 206.776 115.796C202.955 119.808 182.515 127.545 167.616 117.324C152.717 107.104 135.908 106.628 135.908 106.628C141.829 108.825 146.126 112.168 146.126 112.168C141.72 114.182 136.732 120.222 133.844 124.105H127.776C118.109 116.463 100.568 110.64 100.568 110.64C103.147 108.921 108.4 106.437 108.4 106.437C92.9281 104.527 68.2856 124.105 68.2856 124.105C60.167 112.834 35.6219 111.977 35.6219 111.977C41.1612 112.837 44.8862 116.466 44.8862 116.466C35.5737 123.45 22.0679 124.064 18.7259 124.105H17.9545C9.97045 124.105 3.4375 117.573 3.4375 109.588C3.4375 101.603 9.97045 95.0703 17.9545 95.0703Z" fill="white"/>
</mask>
<g mask="url(#mask3_18_14272)">
<path d="M3.43359 127.542H253.678V95.0742H3.43359V127.542Z" fill="url(#paint3_linear_18_14272)"/>
</g>
<path opacity="0.26" d="M249.727 99.6562C252.167 102.261 253.677 105.762 253.677 109.592C253.677 117.57 247.144 124.103 239.156 124.103H233.87C230.281 123.348 226.495 121.487 222.916 117.997C214.512 109.779 197.321 109.877 197.321 109.877C201.424 111.026 206.775 115.797 206.775 115.797C202.956 119.802 182.515 127.539 167.621 117.329C152.717 107.108 135.909 106.627 135.909 106.627C141.829 108.826 146.129 112.164 146.129 112.164C141.719 114.178 136.729 120.218 133.841 124.103H127.778C118.104 116.465 100.574 110.643 100.574 110.643C103.145 108.925 108.398 106.441 108.398 106.441C92.9247 104.526 68.2811 124.103 68.2811 124.103C60.1724 112.832 35.6163 111.978 35.6163 111.978C41.1644 112.832 44.885 116.465 44.885 116.465C44.885 116.465 20.6026 122.801 13.9383 115.688C7.27401 108.575 18.1404 103.847 33.0447 106.331C47.9381 108.816 62.9738 107.032 67.9966 112.635C73.0194 118.237 108.223 95.4542 116.901 102.075C125.579 108.706 143.93 93.4406 164.557 106.047C185.185 118.653 191.018 97.8397 214.414 104.81C237.821 111.77 251.478 117.504 249.945 101.462C249.891 100.838 249.814 100.236 249.727 99.6562Z" fill="#006633"/>
<defs>
<linearGradient id="paint0_linear_18_14272" x1="144.365" y1="553.339" x2="-40.4905" y2="-54.675" gradientUnits="userSpaceOnUse">
<stop stop-color="#114FEE"/>
<stop offset="0.57" stop-color="#FF0066"/>
<stop offset="1" stop-color="#FFFF00"/>
</linearGradient>
<linearGradient id="paint1_linear_18_14272" x1="127.276" y1="252.364" x2="124.038" y2="-29.1852" gradientUnits="userSpaceOnUse">
<stop stop-color="#114FEE"/>
<stop offset="0.57" stop-color="#FF0066"/>
<stop offset="1" stop-color="#FFFF00"/>
</linearGradient>
<linearGradient id="paint2_linear_18_14272" x1="123.067" y1="195.442" x2="123.067" y2="113.306" gradientUnits="userSpaceOnUse">
<stop stop-color="#F9D92E"/>
<stop offset="1" stop-color="#F9FCBA"/>
</linearGradient>
<linearGradient id="paint3_linear_18_14272" x1="124.391" y1="264.769" x2="127.448" y2="12.628" gradientUnits="userSpaceOnUse">
<stop stop-color="#009933"/>
<stop offset="1" stop-color="#99FF00"/>
</linearGradient>
</defs>
</svg>
