<svg width="214" height="256" viewBox="0 0 214 256" fill="none" xmlns="http://www.w3.org/2000/svg">
<path d="M6.52344 147.773C6.52344 147.773 10.131 190.535 22.6204 215.602C26.2869 222.965 32.9825 230.964 46.7758 238.219C59.3142 244.816 85.8419 256.384 106.821 253.747C127.349 251.169 189.345 211.299 208.06 194.114C211.187 191.231 212.099 188.928 211.677 186.114C210.903 181.056 205.687 177.644 199.197 176.674L6.52344 147.773Z" fill="#FF8DD4"/>
<path d="M6.52344 147.773C6.52344 147.773 10.131 190.535 22.6204 215.602C26.2869 222.965 32.9825 230.964 46.7758 238.219C59.3142 244.816 85.8419 256.384 106.821 253.747C127.349 251.169 189.345 211.299 208.06 194.114C211.187 191.231 212.099 188.928 211.677 186.114C210.903 181.056 205.687 177.644 199.197 176.674L6.52344 147.773Z" fill="#FF8DD4"/>
<path d="M117.508 237.501C126.703 239.795 151.692 224.933 177.475 206.905C203.11 188.984 212.09 186.112 205.051 181.955C195.709 176.426 176.063 186.112 176.063 186.112L132.428 203.219L120.812 215.022" fill="white"/>
<path d="M106.086 162.704L6.52344 147.773C6.52344 147.773 7.55278 159.959 10.4055 175.134C16.6208 175.438 23.8557 169.507 30.0121 171.262C34.5413 172.556 26.6888 206.142 46.0503 206.897C63.01 207.554 50.2952 184.438 55.883 179.448C60.8043 175.046 63.9218 196.212 76.5974 194.427C88.8025 192.712 107.88 164.4 107.88 164.4L106.086 162.704Z" fill="#ED54B6"/>
<path d="M208.178 180.32C214.05 186.634 200.129 194.359 159.475 220.494C118.468 246.855 100.89 249.894 93.1557 226.651C64.2359 227.611 39.8257 219.828 24.6992 213.318C28.5715 220.073 35.2476 227.249 47.7272 233.817C60.2656 240.415 86.7933 251.982 107.772 249.345C128.3 246.767 190.297 206.897 209.011 189.712C210.236 188.584 211.54 183.516 208.178 180.32Z" fill="#ED54B6"/>
<path d="M100.429 255.999C78.4006 255.999 53.5492 243.891 45.9026 239.872C33.7956 233.49 25.6294 225.834 20.9434 216.432C8.43442 191.326 4.80721 149.692 4.66016 147.927L8.38541 147.613C8.42462 148.035 12.1107 190.307 24.2962 214.766C28.6096 223.432 36.2464 230.559 47.6476 236.559C55.8236 240.862 84.2531 254.695 106.585 251.891C126.809 249.342 188.815 209.247 206.794 192.728C209.706 190.052 210.118 188.317 209.824 186.395C209.235 182.513 204.951 179.415 198.922 178.523L199.481 174.827C207.285 175.984 212.667 180.209 213.519 185.836C214.059 189.395 212.804 192.277 209.324 195.483C190.59 212.697 128.299 252.93 107.056 255.597C104.889 255.871 102.674 255.999 100.429 255.999Z" fill="#33002C"/>
<path d="M186.181 99.3828C186.181 99.3828 198.68 166.771 202.895 184.721C202.895 184.721 172.123 207.101 140.87 226.561C112.538 244.197 106.823 241.737 100.49 236.717C92.8436 230.669 77.3936 197.916 81.4815 170.114C80.1973 133.645 127.008 114.313 186.181 99.3828Z" fill="#FFD5AB"/>
<path d="M202.895 184.721C202.611 183.485 202.278 182.015 201.915 180.358C180.113 195.357 139.978 222.061 123.234 227.218C105.235 232.757 94.7062 194.151 93.2749 178.476C92.5103 170.153 103.48 163.34 110.431 160.899C114.93 159.32 118.763 166.977 124.822 164.957C131.459 162.742 127.783 156.095 133.351 145.547C137.949 136.841 173.358 123.332 188.534 111.99C187.102 104.363 186.181 99.3828 186.181 99.3828C127.008 114.313 80.1973 133.645 81.4815 170.114C77.3936 197.916 92.8436 230.669 100.49 236.717C106.823 241.737 112.538 244.197 140.87 226.561C172.123 207.101 202.895 184.721 202.895 184.721Z" fill="#E5B385"/>
<path d="M200.139 171.916L98.3118 234.53L89.3516 218.737L196.462 153.496L200.139 171.916Z" fill="#FF8DD4"/>
<path d="M199.158 166.965L97.4295 229.51L90.8123 217.844L89.3516 218.736L98.3118 234.529L200.139 171.916L199.158 166.965Z" fill="#ED54B6"/>
<path d="M102.115 210.965L89.3516 218.739L98.3118 234.532L112.958 225.523C108.684 222.65 105.056 217.259 102.115 210.965Z" fill="#ED54B6"/>
<path d="M197.423 158.31L196.462 153.496L89.3516 218.737L91.6259 222.756L197.423 158.31Z" fill="white"/>
<path d="M83.1945 201.759L193.001 135.548L190.05 120.039L80.8711 183.025" fill="#FF8DD4"/>
<path d="M190.052 120.039L188.993 120.647L190.973 131.068L82.5391 196.456L83.1959 201.759L193.003 135.548L190.052 120.039Z" fill="#ED54B6"/>
<path d="M130.173 154.586L116.281 162.595C118.771 164.213 121.448 166.075 124.82 164.958C129.29 163.458 129.084 159.948 130.173 154.586Z" fill="#ED54B6"/>
<path d="M96.1544 193.957C94.6055 188.035 93.6448 182.506 93.2723 178.477C93.184 177.556 93.2527 176.654 93.4291 175.781L80.8711 183.026L83.1945 201.76L96.1544 193.957Z" fill="#ED54B6"/>
<path d="M190.58 124.794L192.658 135.754L193.001 135.548L190.05 120.039L80.8711 183.025L81.4593 187.741L190.58 124.794Z" fill="white"/>
<path d="M109.477 242.295C105.154 242.295 102.301 240.54 99.3207 238.187C91.4193 231.923 75.3811 198.748 79.6357 169.838L83.3316 170.378C79.3416 197.523 94.4485 229.56 101.644 235.256C106.781 239.314 111.212 242.824 139.877 224.972C167.581 207.718 195.246 187.935 200.795 183.936C196.364 164.515 184.462 100.382 184.345 99.7253L188.021 99.0391C188.139 99.7155 200.55 166.594 204.716 184.298L205 185.504L204 186.239C203.687 186.455 172.806 208.875 141.857 228.149C124.898 238.707 115.673 242.295 109.477 242.295Z" fill="#33002C"/>
<path d="M81.6288 184.316L80.1289 181.728L189.308 118.742L190.798 121.33L81.6288 184.316Z" fill="#33002C"/>
<path d="M83.9708 203.044L82.4219 200.485L192.229 134.273L193.778 136.832L83.9708 203.044Z" fill="#33002C"/>
<path d="M90.1251 220.011L88.5664 217.462L195.687 152.211L197.246 154.77L90.1251 220.011Z" fill="#33002C"/>
<path d="M99.0959 235.803L97.5273 233.254L199.354 170.641L200.923 173.189L99.0959 235.803Z" fill="#33002C"/>
<path d="M7.21886 100.188C3.85633 106.589 0.454592 132.813 4.84647 154.459C9.24815 176.104 19.8945 168.095 22.2669 167.301C24.6491 166.517 31.5605 163.135 33.678 170.83C34.1877 172.712 34.6779 185.878 37.1385 192.446C40.0109 200.103 44.3342 203.093 49.2848 201.22C54.3237 199.309 51.8337 189.898 51.52 186.27C51.2847 183.545 51.3631 177.036 55.8824 175.82C60.7743 174.497 65.1172 181.692 66.568 183.731C68.0189 185.78 70.8717 188.78 75.5381 188.819C88.2529 188.908 84.5571 171.35 88.0765 167.036C90.8312 163.664 107.526 152.351 111.046 150.635C114.565 148.92 116.702 151.253 118.104 152.625C119.82 154.302 121.721 156.047 125.094 154.929C128.005 153.978 128.78 150.753 128.515 146.861C128.27 143.283 127.799 141.263 130.378 138.636C132.662 136.303 172.022 114.873 181.345 106.599C186.433 102.08 187.943 100.609 188.119 95.8644C188.296 91.1098 185.874 77.895 176.894 74.6599C164.983 70.366 132.809 75.1696 109.173 77.0323C93.4585 78.2773 43.7362 83.0417 21.0415 90.1393C16.7477 91.4823 10.8265 93.3351 7.21886 100.188Z" fill="white"/>
<path d="M90.9909 118.469C74.9723 120.576 59.7576 112.939 43.5625 115.39C57.4636 106.597 68.1786 100.725 88.9616 98.411C116.587 95.3327 130.665 103.518 130.665 103.518C118.96 108.793 115.705 115.214 90.9909 118.469Z" fill="#F9CFEB"/>
<path d="M118.104 152.626C119.82 154.302 121.722 156.047 125.094 154.93C128.006 153.979 128.78 150.754 128.516 146.862C128.271 143.284 127.8 141.264 130.378 138.637C132.662 136.304 172.023 114.874 181.346 106.6C186.433 102.08 187.943 100.61 188.12 95.8649C188.169 94.3454 187.963 91.973 187.365 89.3359C181.15 104.943 138.466 122.54 128.065 132.196C123.094 136.823 128.388 150.499 123.232 150.41C118.075 150.322 115.938 138.539 111.085 141.588C105.154 145.313 87.3515 154.567 82.4695 163.41C76.6561 173.948 81.4206 183.997 73.6563 184.369C65.647 184.761 58.3828 159.341 49.7167 168.654C42.6093 176.301 50.1578 201.045 41.629 195.104C33.0903 189.173 38.9821 156.92 33.355 156.391C27.7279 155.871 18.2187 161.322 11.0133 159.91C8.76831 159.479 6.74882 157.626 5.02344 155.293C9.52315 175.889 19.9245 168.086 22.2674 167.302C24.6496 166.517 31.561 163.135 33.6785 170.831C34.1883 172.713 34.6784 185.879 37.1391 192.447C40.0114 200.103 44.3347 203.093 49.2853 201.221C54.3242 199.309 51.8342 189.898 51.5205 186.271C51.2852 183.546 51.3636 177.036 55.883 175.821C60.7748 174.497 65.1177 181.693 66.5686 183.732C68.0194 185.781 70.8722 188.781 75.5386 188.82C88.2534 188.908 84.5576 171.35 88.077 167.037C90.8317 163.665 107.527 152.352 111.046 150.636C114.565 148.92 116.703 151.254 118.104 152.626Z" fill="#F9CFEB"/>
<path fill-rule="evenodd" clip-rule="evenodd" d="M46.4822 203.641C45.2764 203.641 44.1 203.376 42.9727 202.866C39.8356 201.455 37.2868 198.171 35.3849 193.102C33.5811 188.269 32.8262 180.446 32.3263 175.27C32.1694 173.613 31.9832 171.741 31.8753 171.329C31.4244 169.692 30.7087 168.614 29.7578 168.123C27.9638 167.202 25.2679 168.202 23.6602 168.79C23.3563 168.898 23.0916 169.006 22.8661 169.074C22.719 169.123 22.3563 169.3 22.0328 169.457C20.0133 170.427 15.8175 172.447 11.5825 170.349C7.53373 168.329 4.72999 163.261 3.01442 154.83C-1.51471 132.518 2.14193 105.833 5.57308 99.3141C9.52381 91.7852 16.1116 89.7265 20.4643 88.3638C46.6489 80.1682 106.488 75.3744 109.027 75.1686C114.39 74.747 120.076 74.1784 126.105 73.5804C146.672 71.5511 167.935 69.4434 177.533 72.8942C187.356 76.443 190.199 90.197 189.983 95.932C189.777 101.608 187.522 103.608 182.581 107.99C176.601 113.303 158.848 123.724 145.878 131.332C139.329 135.175 132.555 139.155 131.702 139.949C129.997 141.694 130.085 142.86 130.3 145.684C130.327 146.024 130.353 146.373 130.379 146.733C130.84 153.546 128.085 155.918 125.683 156.703C121.134 158.202 118.419 155.546 116.792 153.958L116.615 153.781C115.017 152.203 113.9 151.321 111.86 152.311C108.557 153.928 92.0774 165.104 89.5285 168.221C88.7247 169.212 88.3423 171.957 87.9796 174.603C87.0973 181.015 85.7739 190.681 75.6373 190.681C75.6046 190.681 75.5686 190.681 75.5294 190.681C71.3728 190.651 67.7456 188.622 65.0497 184.818C64.9124 184.622 64.7458 184.387 64.5693 184.122C63.1969 182.113 59.5402 176.76 56.364 177.623C52.8348 178.574 53.3249 185.338 53.3838 186.112C53.4328 186.671 53.5504 187.416 53.6779 188.279C54.3739 192.975 55.5405 200.847 49.9428 202.964C48.7664 203.415 47.6096 203.641 46.4822 203.641ZM28.0128 164.016C29.1696 164.016 30.346 164.232 31.4636 164.8C33.3948 165.79 34.7379 167.653 35.4829 170.339C35.6692 171.025 35.7966 172.309 36.0515 174.907C36.5025 179.593 37.2573 187.426 38.8945 191.789C40.4042 195.828 42.3551 198.484 44.5118 199.465C45.7764 200.033 47.1195 200.043 48.6194 199.474C51.4035 198.416 50.5114 192.416 49.9722 188.828C49.835 187.906 49.7173 187.103 49.6585 186.436C49.4428 183.946 49.2174 175.682 55.3934 174.005C61.1382 172.456 65.7065 179.152 67.6574 182.015C67.824 182.26 67.9711 182.475 68.0985 182.652C70.0984 185.485 72.608 186.926 75.5588 186.946C75.585 186.946 75.6111 186.946 75.6373 186.946C82.0192 186.946 83.2446 181.623 84.274 174.103C84.7543 170.643 85.1563 167.663 86.6366 165.859C89.7638 162.016 106.841 150.605 110.223 148.948C114.792 146.723 117.801 149.693 119.242 151.115L119.419 151.281C121.252 153.095 122.36 153.86 124.517 153.154C126.173 152.605 126.889 150.536 126.654 146.988C126.627 146.635 126.601 146.298 126.575 145.978C126.34 142.929 126.134 140.292 129.046 137.321C129.977 136.361 133.888 134.037 143.986 128.106C156.818 120.577 174.396 110.264 180.101 105.196C185.15 100.716 186.101 99.7454 186.248 95.7947C186.395 91.8048 184.228 79.2859 176.268 76.4136C167.455 73.2471 145.692 75.4038 126.477 77.3057C120.429 77.9037 114.713 78.4723 109.321 78.8938C106.802 79.0997 47.3645 83.8641 21.6015 91.9224C17.3664 93.2556 12.1217 94.8928 8.87679 101.059C5.59268 107.314 2.47523 133.381 6.68085 154.085C8.11213 161.104 10.3767 165.575 13.2491 166.996C15.8371 168.28 18.6997 166.908 20.4153 166.084C20.9152 165.839 21.3074 165.653 21.6799 165.526C21.876 165.467 22.1014 165.379 22.3661 165.28C23.7092 164.79 25.8071 164.016 28.0128 164.016Z" fill="#33002C"/>
<path d="M95.4414 151.205C122.106 132.706 148.967 114.501 177.162 98.4141C164.329 108.384 150.928 117.531 137.36 126.432C123.714 135.216 109.99 143.95 95.4414 151.205Z" fill="#33002C"/>
<path d="M181.718 93.0006C182.993 90.8046 183.355 88.2067 183.159 85.7265C182.963 83.2757 182.159 80.9327 180.855 79.0407L183.483 77.6094C185.581 82.6483 185.208 88.7851 181.718 93.0006Z" fill="#33002C"/>
<path d="M15.169 96.832C12.7574 100.91 13.1888 105.979 14.0417 110.449C16.9826 123.389 26.0213 136.673 35.1678 146.143C40.0302 151.093 45.6671 155.456 52.1275 158.093C52.4608 158.201 53.745 158.681 54.0881 158.808C54.5979 158.965 55.5978 159.24 56.0978 159.397C56.8331 159.534 58.0977 159.857 58.8525 159.936L60.2446 160.132C60.5289 160.142 62.0386 160.259 62.3621 160.279C62.9405 160.279 63.9405 160.259 64.4992 160.259C62.4013 160.681 60.2152 160.867 58.0487 160.75C57.6271 160.72 56.3233 160.573 55.8821 160.534C55.3626 160.436 54.2156 160.24 53.7254 160.152C53.3137 160.053 52.0393 159.71 51.6079 159.603C40.8439 156.269 32.2268 148.25 25.4821 139.486C18.659 130.242 12.6888 119.536 12.1398 107.812C12.0908 104.028 12.6006 99.7828 15.169 96.832Z" fill="#33002C"/>
<path d="M68.5781 159.909C70.9505 158.537 73.8033 158.106 76.4698 158.762C74.1072 160.145 71.2446 160.556 68.5781 159.909Z" fill="#33002C"/>
<path d="M123.232 81.4732C123.232 102.325 105.86 119.226 84.4304 119.226C63.0003 119.226 45.6289 102.325 45.6289 81.4732C45.6289 60.6314 63.0003 43.7305 84.4304 43.7305C105.86 43.7305 123.232 60.6314 123.232 81.4732Z" fill="#FF3E63"/>
<path d="M84.4304 43.7305C63.0003 43.7305 45.6289 60.6314 45.6289 81.4732C45.6289 84.1397 45.9132 86.7473 46.4524 89.257C46.4034 88.4335 46.374 87.6002 46.374 86.7571C46.374 81.2183 47.5994 75.9539 49.8051 71.2091C50.1384 72.5718 50.8149 73.7482 51.8442 74.6109C55.5106 77.7185 62.3043 75.7284 67.0099 70.1602C71.7155 64.5919 72.5488 57.5629 68.8823 54.4553C68.3235 53.9847 67.6961 53.6318 67.0197 53.3965C72.4311 50.6026 78.6072 49.0144 85.1656 49.0144C103.86 49.0144 119.458 61.8666 123.144 78.9831C121.82 59.2981 104.998 43.7305 84.4304 43.7305Z" fill="white"/>
<path d="M79.9216 76.9525C78.1864 80.7463 74.3533 82.707 71.3437 81.3247C68.3439 79.9523 67.3047 75.7761 69.0399 71.9822C70.7653 68.1981 74.6082 66.2375 77.6178 67.6099C80.6176 68.9824 81.6568 73.1684 79.9216 76.9525Z" fill="white"/>
<path d="M84.4298 115.48C68.6073 115.48 55.1964 105.255 50.8438 91.2661C50.8438 91.2661 59.8334 100.962 86.7042 99.3833C111.222 97.9324 119.486 81.4727 119.486 81.4727C119.486 100.226 103.762 115.48 84.4298 115.48Z" fill="#E20041"/>
<path fill-rule="evenodd" clip-rule="evenodd" d="M84.4317 121.088C62.0017 121.088 43.7578 103.324 43.7578 81.4725C43.7578 59.6308 62.0017 41.8672 84.4317 41.8672C106.852 41.8672 125.106 59.6308 125.106 81.4725C125.106 103.324 106.852 121.088 84.4317 121.088ZM84.4317 45.6022C64.0702 45.6022 47.5027 61.6993 47.5027 81.4725C47.5027 101.256 64.0702 117.353 84.4317 117.353C104.793 117.353 121.361 101.256 121.361 81.4725C121.361 61.6993 104.793 45.6022 84.4317 45.6022Z" fill="#33002C"/>
<path d="M74 57.2372C75.4999 62.1584 91.9498 64.4524 94.9398 54.6883C90.4597 51.8944 76.5979 52.4237 74 57.2372Z" fill="#E20041"/>
<path d="M85.1745 61.4746C92.0368 24.0652 67.0678 4.11547 62.5779 2.25284C60.1075 1.2333 56.4508 2.22343 55.3431 5.61537C54.8627 7.09567 55.1274 8.88968 55.5489 9.19358C60.3231 12.6149 86.645 25.5553 82.3512 61.4158" fill="#58DB4D"/>
<path d="M83.9981 59.0431C88.292 23.1728 61.9701 10.2423 57.1959 6.81112C56.7744 6.51702 56.5097 4.72301 56.9998 3.24271C57.0096 3.1937 57.0292 3.15449 57.0488 3.10547C56.3038 3.71327 55.696 4.53675 55.3431 5.61511C54.8627 7.09541 55.1274 8.88942 55.5489 9.19332C60.3231 12.6147 86.645 25.555 82.3512 61.4155L85.1745 61.4743C85.3216 60.6606 85.449 59.8666 85.5764 59.0725L83.9981 59.0431Z" fill="#2EAA21"/>
<path d="M62.5778 2.25315C60.2348 1.28262 56.8331 2.13551 55.5391 5.10591C57.137 3.9001 59.2839 3.68443 60.9309 4.37066C62.1563 4.88043 64.9208 6.74306 68.1461 9.95854C67.9794 9.99775 67.8324 10.0762 67.705 10.184C66.7442 10.9977 67.4207 13.3701 69.2147 15.4778C71.0087 17.5953 73.2438 18.6443 74.2045 17.8208C74.3026 17.7326 74.381 17.6247 74.4496 17.5071C81.0865 27.0653 86.9194 41.7408 83.8804 61.4455L85.1744 61.4749C92.0368 24.0655 67.0677 4.11578 62.5778 2.25315Z" fill="white"/>
<path fill-rule="evenodd" clip-rule="evenodd" d="M87.0181 61.8066L84.2438 61.2968C84.234 61.4145 84.2143 61.5223 84.2045 61.64L80.4891 61.189C84.2634 29.7498 63.9705 16.8193 56.3338 11.947C55.5495 11.4471 54.9319 11.0451 54.4515 10.7118C53.0104 9.67268 53.0104 6.74149 53.5692 5.03572C54.2064 3.07506 55.5691 1.53594 57.4121 0.692852C59.2747 -0.169838 61.4805 -0.228656 63.2941 0.526198C65.8822 1.60456 73.617 7.38851 79.7342 17.5741C85.1163 26.5245 90.7433 41.4746 87.0181 61.8066ZM57.0004 7.91788C57.3631 8.16297 57.8337 8.46687 58.3434 8.79038C64.745 12.8784 82.4694 24.1718 84.4986 49.0329C84.6163 20.4465 65.294 5.40824 61.8628 3.97696C61.0001 3.62404 59.8924 3.66325 58.9708 4.08479C58.3532 4.37889 57.52 4.9769 57.1278 6.19251C56.9121 6.82972 56.9416 7.54536 57.0004 7.91788Z" fill="#33002C"/>
<path d="M74 57.2364C76.8332 60.4322 86.7737 60.0499 90.3813 58.3245C92.0577 57.6089 93.5576 56.4717 94.9398 54.6875C95.0183 55.8051 94.7536 56.9619 94.2242 58.0304C91.3224 63.5007 83.7837 64.4124 78.5291 62.2066C76.5292 61.3145 74.0392 59.6774 74 57.2364Z" fill="#33002C"/>
<path d="M60.3633 118.469C60.3633 118.469 70.9509 107.255 89.3516 118.469C89.3516 118.469 95.4101 107.098 106.027 107.098C113.615 107.098 118.565 115.558 118.565 115.558C99.0667 124.42 79.5876 131.88 60.3633 118.469Z" fill="white"/>
<path d="M60.3633 118.469C65.2355 111.332 75.4113 110.175 83.0579 113.057C85.6754 113.988 88.1262 115.282 90.3124 116.89L87.8321 117.41C91.5084 112.273 96.3022 106.626 102.988 105.626C109.782 104.587 116.046 109.567 118.565 115.557C114.615 111.881 109.135 108.263 103.655 109.538C98.3217 110.704 93.9984 115.067 90.8614 119.537L90.0967 120.89C86.7636 119.263 83.401 117.586 79.8915 116.547C73.4213 114.498 66.3629 114.979 60.3633 118.469Z" fill="#33002C"/>
</svg>
