<svg width="250" height="257" viewBox="0 0 250 257" fill="none" xmlns="http://www.w3.org/2000/svg">
<path fill-rule="evenodd" clip-rule="evenodd" d="M246.783 223.04C241.849 235.375 227.973 231.366 217.026 231.366C201.71 231.366 186.447 231.366 171.234 231.366C160.287 231.366 144.561 234.141 135.156 226.895C123.438 217.952 118.504 203.151 114.187 189.429C110.795 178.945 108.483 167.073 103.24 157.359C99.3859 150.267 94.6064 144.408 88.9017 139.012C86.846 168.409 84.7902 197.806 82.7345 227.203C82.5803 229.516 81.0385 231.366 78.5716 231.366C75.2824 231.366 71.9933 231.366 68.7041 231.366C67.0081 231.366 65.0037 230.133 64.6953 228.282C59.556 194.568 54.4681 160.803 49.4315 126.986C46.9646 111.259 44.1894 96.6122 50.2024 81.04C55.7529 66.8554 66.5455 53.9042 78.7258 44.1908C68.2415 42.0323 54.9819 42.9574 48.5064 49.2788C47.7355 50.5122 46.1936 51.1289 44.3435 50.358C30.4672 45.1159 -6.38193 31.7022 2.25218 9.80856C7.18596 -2.52588 21.2164 1.63697 32.009 1.63697C47.3243 1.63697 62.6396 1.63697 77.9549 1.63697C88.9017 1.63697 104.474 -1.13826 113.879 5.95405C125.751 15.0507 130.53 29.852 134.847 43.4199C138.239 53.9042 140.552 65.9303 145.794 75.6436C149.649 82.736 154.428 88.5948 160.133 93.837C162.189 64.5427 164.245 35.197 166.3 5.79986C166.455 3.48715 168.151 1.63697 170.463 1.63697C173.752 1.63697 177.042 1.63697 180.331 1.63697C182.027 1.63697 184.031 2.8704 184.34 4.56639C189.479 38.3833 194.618 72.1489 199.758 105.863C202.07 121.744 204.845 136.237 198.832 151.809C193.282 166.148 182.489 178.945 170.463 188.658C180.948 190.971 194.207 190.046 200.528 183.724C201.299 182.491 202.841 181.874 204.691 182.491C218.568 187.733 255.417 201.147 246.783 223.04ZM88.1308 38.1778C111.566 46.041 124.517 104.63 138.702 143.946C141.786 151.038 149.803 176.324 161.675 185.112C161.367 184.958 162.292 184.649 162.6 184.495C167.842 180.332 172.776 175.707 177.247 170.619C190.044 155.818 196.52 139.937 193.59 120.356C191.74 107.816 189.839 95.276 187.886 82.736C184.185 58.4782 180.536 34.1691 176.939 9.80856C176.014 9.80856 175.14 9.80856 174.318 9.80856C172.056 40.6447 169.846 71.5322 167.688 102.471C167.534 106.171 163.525 107.559 160.75 105.401C148.57 95.533 139.473 83.9694 134.539 69.1681C129.297 53.75 126.059 36.0193 117.425 22.143C109.254 9.03766 98.7692 9.80856 85.0472 9.80856C73.1239 9.80856 61.2006 9.80856 49.2773 9.80856C38.4846 9.80856 27.7434 9.80856 17.0536 9.80856C15.3062 9.80856 13.5588 9.80856 11.8114 9.80856C11.7086 9.91135 11.6573 9.96271 11.6573 9.96271C-0.368832 23.9931 33.8592 37.7152 44.6518 41.7239C55.4445 33.244 76.4131 34.3233 88.1308 38.1778ZM204.537 191.125C193.59 199.605 172.468 198.834 160.904 194.825C138.548 186.654 111.566 92.9119 110.333 89.0574C107.403 81.9651 98.1525 50.2038 87.3599 47.737C87.8224 47.8911 86.7432 48.1995 86.4348 48.5079C81.1927 52.6707 76.2589 57.2961 71.7877 62.3841C58.9907 77.1854 52.5151 93.0661 55.4445 112.647C57.3974 125.187 59.299 137.727 61.1492 150.267C64.8495 174.525 68.5499 198.783 72.2502 223.04C73.0725 223.04 73.9462 223.04 74.8713 223.04C77.0298 192.204 79.1883 161.368 81.3468 130.532C81.6552 126.677 85.5097 125.29 88.2849 127.603C100.465 137.47 109.562 148.879 114.496 163.835C119.738 179.253 122.976 196.984 131.764 210.86C139.781 223.811 150.266 223.04 163.988 223.04C175.911 223.04 187.834 223.04 199.758 223.04C210.55 223.04 221.291 223.04 231.981 223.04C233.729 223.04 235.476 223.04 237.223 223.04C237.326 223.04 237.378 222.989 237.378 222.886C249.404 208.856 215.33 195.288 204.537 191.125Z" fill="#EF97AC"/>
<path d="M29.4487 256.963C81.6068 256.963 192.368 256.963 244.526 256.963C245.879 256.963 247.232 256.963 248.584 256.963C249.479 256.963 249.479 253.879 248.584 253.879C196.486 253.879 85.6649 253.879 33.5068 253.879C32.1541 253.879 30.8014 253.879 29.4487 253.879C28.5536 253.879 28.5536 256.963 29.4487 256.963Z" fill="#F9C7D6"/>
</svg>
