<svg width="257" height="180" viewBox="0 0 257 180" fill="none" xmlns="http://www.w3.org/2000/svg">
<path d="M147.2 117.056C143.25 121.144 133.134 120.313 128.907 117.68C122.185 113.522 120.384 101.327 117.82 94.4669C114.771 86.0826 111.93 77.6289 108.327 69.5217C105.555 63.3547 102.16 56.6334 96.3395 52.8223C95.8544 52.4759 95.0229 52.4759 94.4686 52.8223C88.2323 57.3263 82.4118 63.7705 79.6401 71.0462C76.8684 78.0447 78.1156 84.5582 79.2243 91.6952C81.534 106.847 83.8207 121.999 86.0842 137.151C86.2228 137.982 87.1236 138.537 87.8858 138.537C89.3641 138.537 90.8654 138.537 92.3898 138.537C93.4292 138.537 94.1221 137.705 94.1914 136.666C95.2077 122.207 96.224 107.725 97.2403 93.2197C96.224 93.6816 95.1846 94.1205 94.1221 94.5363C97.9332 97.5851 101.051 100.98 103.407 105.277C105.763 109.642 106.803 115.047 108.327 119.759C110.267 125.856 112.485 132.508 117.82 136.527C122.047 139.784 129.045 138.537 133.965 138.537C140.848 138.537 147.708 138.537 154.545 138.537C159.465 138.537 165.77 140.408 167.918 134.864C171.799 124.956 155.238 118.996 149.002 116.64C146.784 115.74 145.814 119.343 148.031 120.174C151.427 121.422 169.512 128.004 163.761 134.795C162.86 135.765 162.999 134.864 164.384 134.864C163.368 134.864 162.352 134.864 161.336 134.864C156.485 134.864 151.658 134.864 146.853 134.864C141.495 134.864 136.136 134.864 130.778 134.864C124.611 134.864 119.83 135.211 116.226 129.321C112.277 123.085 110.822 115.116 108.535 108.187C106.248 101.465 102.16 96.3379 96.7552 91.9032C95.4387 90.9331 93.7064 91.5567 93.5678 93.2197C92.5515 107.725 91.5352 122.207 90.5189 136.666C91.1195 136.065 91.7431 135.465 92.3898 134.864C90.8654 134.864 89.3641 134.864 87.8858 134.864C88.4864 135.326 89.0869 135.765 89.6874 136.181C87.9782 124.817 86.2459 113.453 84.4905 102.089C83.659 96.4533 82.8044 90.8176 81.9267 85.1818C80.6102 76.3817 83.5897 69.2446 89.341 62.5925C91.2812 60.3059 93.4985 58.2271 95.8544 56.3562C96.0392 56.2638 96.2009 56.1484 96.3395 56.0098C94.7458 57.1877 95.7852 56.8413 97.0324 58.0885C99.1112 60.1673 100.636 62.7311 102.091 65.2949C108.119 75.8274 111.514 87.9535 115.672 99.3174C118.513 107.078 120.592 118.65 129.392 122.115C134.866 124.263 145.329 124.332 149.833 119.689C151.496 117.957 148.863 115.393 147.2 117.056Z" fill="#EF97AC"/>
<path d="M93.565 93.2201C92.6642 105.831 95.7131 118.304 97.584 130.776C97.7226 131.539 98.6234 132.093 99.3856 132.093C100.864 132.093 102.365 132.093 103.89 132.093C104.929 132.093 105.622 131.261 105.691 130.291C106.107 124.286 106.523 118.304 106.938 112.345C107.123 110.127 107.285 107.887 107.423 105.623C107.562 103.614 104.998 100.634 103.82 99.1099C101.88 96.3382 99.3163 94.0516 96.7525 91.9035C94.8816 90.4484 92.2485 93.0122 94.1194 94.5366C96.1981 96.2689 98.1383 98.0705 99.9399 100.08C100.841 101.05 103.82 104.515 103.682 106.108C103.497 108.788 103.312 111.467 103.127 114.146C102.758 119.505 102.388 124.887 102.019 130.291C102.619 129.645 103.243 129.021 103.89 128.421C102.365 128.421 100.864 128.421 99.3856 128.421C99.9861 128.882 100.587 129.321 101.187 129.737C100.171 123.224 99.1777 116.71 98.2076 110.197C97.1682 103.475 96.8218 99.6643 97.2375 93.2201C97.4454 90.8641 93.7729 90.8641 93.565 93.2201Z" fill="#EF97AC"/>
<path d="M158.703 110.68C154.753 114.699 144.637 113.868 140.41 111.235C133.689 107.077 131.818 94.9508 129.323 88.0216C126.274 79.6373 123.433 71.2529 119.83 63.0764C117.058 56.9094 113.663 50.1881 107.843 46.377C107.357 46.0306 106.457 46.0306 105.972 46.377C102.507 48.9408 99.5275 51.9897 96.7558 55.2464C96.1321 56.0086 96.0628 57.048 96.7558 57.8795C104.655 65.9867 108.12 78.2514 111.861 88.6453C115.187 97.9304 117.474 109.156 123.295 117.263C128.492 124.4 138.678 124.539 146.369 121.698C147.339 121.351 148.309 120.866 149.141 120.242C149.372 120.104 149.603 119.942 149.834 119.757C148.309 121.143 153.09 122.252 153.991 122.598C157.664 124.261 162.791 126.756 164.454 130.775C164.731 131.537 165.355 132.091 166.256 132.091C171.661 132.091 178.59 133.962 179.837 126.964C181.431 117.679 166.81 112.551 160.505 110.195C158.287 109.294 157.317 112.898 159.534 113.729C163.623 115.323 177.828 119.896 176.095 126.756C175.887 127.587 175.333 128.28 174.709 128.835C174.987 128.627 176.58 128.419 174.64 128.419C171.822 128.419 169.028 128.419 166.256 128.419C166.81 128.881 167.388 129.32 167.988 129.736C165.009 122.46 155.793 119.203 149.002 116.639C148.448 116.362 147.616 116.639 147.2 117.055C143.528 120.866 133.966 120.312 129.808 118.233C122.879 114.768 121.147 103.543 118.791 97.0296C113.732 83.2405 109.852 66.1253 99.3889 55.2464C99.3889 56.1241 99.3889 57.0018 99.3889 57.8795C101.121 55.8008 102.923 53.8606 104.932 51.9897C105.694 51.2968 106.526 50.6732 107.288 49.9802C107.773 49.6338 106.041 49.4259 107.843 50.9503C111.584 54.2763 113.94 59.2654 116.019 63.6308C121.077 74.2325 124.819 85.735 128.561 96.8217C131.125 104.513 133.758 112.898 141.934 116.085C146.993 118.025 157.248 117.471 161.336 113.244C162.999 111.581 160.366 108.948 158.703 110.68Z" fill="#EF97AC"/>
<path d="M1.7561 179.836C62.2482 179.836 190.924 179.836 251.485 179.836C253.056 179.836 254.626 179.836 256.197 179.836C257.236 179.836 257.236 178.242 256.197 178.242C195.636 178.242 66.9601 178.242 6.46797 178.242C4.89735 178.242 3.32672 178.242 1.7561 178.242C0.716717 178.242 0.716717 179.836 1.7561 179.836Z" fill="#F9C7D6"/>
<path d="M141.585 99.1795C154.658 76.8674 167.708 54.5553 180.735 32.2432C181.22 31.4117 179.973 30.7188 179.488 31.481C166.461 53.8393 153.434 76.1745 140.407 98.4866C139.922 99.2488 141.169 100.011 141.585 99.1795Z" fill="#F9C7D6"/>
<path d="M161.059 99.3163C168.404 91.9714 175.772 84.6033 183.163 77.2121C183.787 76.5885 182.747 75.5491 182.124 76.1728C174.779 83.5639 167.434 90.9551 160.089 98.3463C159.396 98.9699 160.435 100.009 161.059 99.3163Z" fill="#F9C7D6"/>
<path d="M177.617 108.534C194.154 95.877 210.715 83.1965 227.299 70.493C227.992 69.9386 227.299 68.6914 226.537 69.315C209.999 81.9724 193.461 94.6528 176.924 107.356C176.231 107.841 176.924 109.089 177.617 108.534Z" fill="#F9C7D6"/>
<path d="M185.865 120.729C201.017 116.71 216.145 112.668 231.251 108.603C232.152 108.395 231.805 107.009 230.905 107.286C215.753 111.305 200.601 115.324 185.449 119.343C184.617 119.621 184.964 121.006 185.865 120.729Z" fill="#F9C7D6"/>
<path d="M185.656 135.834C200.808 135.834 215.96 135.834 231.112 135.834C232.013 135.834 232.013 134.379 231.112 134.379C215.96 134.379 200.808 134.379 185.656 134.379C184.755 134.379 184.755 135.834 185.656 135.834Z" fill="#F9C7D6"/>
<path d="M135.353 73.678C139.511 59.8195 143.645 45.938 147.756 32.0334C147.964 31.1326 146.648 30.7861 146.37 31.6869C142.259 45.5454 138.148 59.4269 134.036 73.3315C133.759 74.163 135.145 74.5788 135.353 73.678Z" fill="#F9C7D6"/>
<path d="M122.81 49.8422C123.18 33.6278 123.572 17.4134 123.988 1.19904C123.988 0.298238 122.533 0.298238 122.533 1.19904C122.163 17.4134 121.794 33.6278 121.424 49.8422C121.355 50.743 122.81 50.743 122.81 49.8422Z" fill="#F9C7D6"/>
<path d="M95.5761 14.2248C96.8696 23.5561 98.163 32.9106 99.4565 42.2881C99.5258 43.1889 100.912 42.7732 100.773 41.8724C99.4796 32.541 98.2092 23.2097 96.962 13.8783C96.8234 12.9775 95.4375 13.324 95.5761 14.2248Z" fill="#F9C7D6"/>
<path d="M63.9118 8.33781C70.1019 22.7506 76.292 37.1403 82.4821 51.5068C82.8285 52.4076 84.0758 51.6454 83.7293 50.8139C77.5392 36.4473 71.3491 22.0577 65.159 7.64489C64.8126 6.81338 63.5653 7.5063 63.9118 8.33781Z" fill="#F9C7D6"/>
<path d="M47.2799 32.2459C55.5487 44.1641 63.8176 56.0824 72.0865 68.0007C72.5715 68.7629 73.8188 68.0007 73.2644 67.2384C64.9956 55.3202 56.7267 43.4019 48.4578 31.4837C47.9728 30.7215 46.7255 31.4837 47.2799 32.2459Z" fill="#F9C7D6"/>
<path d="M66.4732 86.1504C60.4217 79.4983 54.3933 72.8463 48.3879 66.1942C47.7643 65.5013 46.7249 66.5407 47.3485 67.1643C53.4001 73.8164 59.4516 80.4684 65.5031 87.1205C66.0574 87.8134 67.0968 86.8433 66.4732 86.1504Z" fill="#F9C7D6"/>
<path d="M71.6719 113.937C51.2076 99.0622 30.7664 84.1644 10.3483 69.2435C9.58608 68.7584 8.89316 69.9364 9.58608 70.4907C30.0504 85.3654 50.5147 100.263 70.979 115.184C71.7412 115.669 72.4341 114.491 71.6719 113.937Z" fill="#F9C7D6"/>
<path d="M64.7431 122.393C48.5749 117.727 32.4068 113.061 16.2386 108.396C15.3378 108.119 14.922 109.504 15.8228 109.782C31.991 114.447 48.1592 119.113 64.3274 123.779C65.2282 124.056 65.5746 122.67 64.7431 122.393Z" fill="#F9C7D6"/>
<path d="M71.3253 134.379C57.4207 134.379 43.5391 134.379 29.6807 134.379C28.7106 134.379 28.7106 135.834 29.6807 135.834C43.5391 135.834 57.4207 135.834 71.3253 135.834C72.2261 135.834 72.2261 134.379 71.3253 134.379Z" fill="#F9C7D6"/>
</svg>
