<svg width="257" height="201" viewBox="0 0 257 201" fill="none" xmlns="http://www.w3.org/2000/svg">
<path d="M209.432 82.1788C209.432 127.063 173.035 163.459 128.151 163.459C83.2677 163.459 46.8711 127.063 46.8711 82.1788C46.8711 37.2951 83.2677 0.898438 128.151 0.898438C173.035 0.898438 209.432 37.2951 209.432 82.1788Z" fill="#EF97AC"/>
<path opacity="0.2" d="M198.418 82.1775C198.418 121.022 166.999 152.523 128.154 152.523C89.3092 152.523 57.8906 121.022 57.8906 82.1775C57.8906 43.4143 89.3092 11.9141 128.154 11.9141C166.999 11.9141 198.418 43.4143 198.418 82.1775Z" fill="#F9C7D6"/>
<path opacity="0.2" d="M182.339 82.1795C182.339 112.129 158.102 136.366 128.152 136.366C98.2837 136.366 73.9648 112.129 73.9648 82.1795C73.9648 52.3114 98.2837 28.0742 128.152 28.0742C158.102 28.0742 182.339 52.3114 182.339 82.1795Z" fill="#F9C7D6"/>
<path d="M192.133 132.287C195.071 128.533 197.764 124.534 199.967 120.291C197.193 115.557 189.848 109.845 173.364 103.806C173.364 103.806 168.957 108.621 153.615 108.621C133.947 108.621 131.173 89.8512 124.236 71.2449C116.402 50.1903 107.344 20.3222 95.2658 7.91797C87.2683 11.4271 80.0053 16.1603 73.64 21.9544C68.2539 29.9518 64.2552 40.1527 66.6218 51.1696L78.9444 117.026V132.287H85.881V117.026H85.9626L90.6958 64.5531C97.714 70.1024 104.324 77.2838 107.425 86.2605C115.749 109.927 118.85 132.287 135.988 132.287C149.208 132.287 179.321 132.287 192.133 132.287Z" fill="white"/>
<path d="M150.596 83.4035C150.596 83.4035 152.228 77.6094 156.88 76.7117C152.228 75.8956 150.596 70.1016 150.596 70.1016C150.596 70.1016 148.882 75.8956 144.23 76.7117C148.882 77.6094 150.596 83.4035 150.596 83.4035Z" fill="white"/>
<path d="M144.231 52.8827C144.231 52.8827 147.332 42.1106 156.064 40.4785C147.332 38.8463 144.231 28.0742 144.231 28.0742C144.231 28.0742 141.13 38.8463 132.398 40.4785C141.13 42.1106 144.231 52.8827 144.231 52.8827Z" fill="white"/>
<path d="M182.337 82.1817C182.337 82.1817 184.459 74.8371 190.416 73.7762C184.459 72.6337 182.337 65.2891 182.337 65.2891C182.337 65.2891 180.215 72.6337 174.258 73.7762C180.215 74.8371 182.337 82.1817 182.337 82.1817Z" fill="white"/>
<path d="M253.257 183.208H3.05078L21.3307 156.441L3.05078 132.285H253.257L235.059 157.746L253.257 183.208Z" fill="#595356"/>
<path d="M1.25404 200.672C88.2469 200.672 -18.0052 200.672 68.9877 200.672C71.2727 200.672 73.5305 200.672 75.7611 200.672C77.23 200.672 77.23 198.387 75.7611 198.387C-11.2318 198.387 95.0203 198.387 8.02739 198.387C5.79681 198.387 3.53903 198.387 1.25404 198.387C-0.214887 198.387 -0.214887 200.672 1.25404 200.672Z" fill="#F9C7D6"/>
<path d="M180.543 200.672C267.536 200.672 161.284 200.672 248.277 200.672C250.562 200.672 252.82 200.672 255.05 200.672C256.519 200.672 256.519 198.387 255.05 198.387C168.057 198.387 274.309 198.387 187.316 198.387C185.086 198.387 182.828 198.387 180.543 198.387C179.074 198.387 179.074 200.672 180.543 200.672Z" fill="#F9C7D6"/>
</svg>
