<svg width="257" height="151" viewBox="0 0 257 151" fill="none" xmlns="http://www.w3.org/2000/svg">
<path d="M126.584 37.6868C126.584 37.6868 152.122 46.6639 158.7 65.3144C165.201 83.965 167.677 101.532 181.066 101.532C194.531 101.532 229.975 101.532 229.975 101.532C229.975 101.532 243.363 91.1621 210.551 79.0895C210.551 79.0895 207.068 82.8815 194.995 82.8815C179.518 82.8815 177.351 68.1778 171.934 53.474C164.969 34.9782 156.843 7.66025 145.467 0.695312C145.467 0.695312 122.096 17.3338 126.584 37.6868Z" fill="#EF97AC"/>
<path d="M126.586 37.6875L136.259 89.5376H141.754L145.469 48.2897C136.414 41.17 126.586 37.6875 126.586 37.6875Z" fill="#595356"/>
<path d="M136.258 89.5312H141.752V101.526H136.258V89.5312Z" fill="#EF97AC"/>
<path d="M114.669 46.8939C114.669 46.8939 92.8451 54.5554 87.1958 70.4973C81.6238 86.4393 79.5344 101.53 68.0035 101.53C56.4727 101.53 26.1365 101.53 26.1365 101.53C26.1365 101.53 14.7605 92.7077 42.775 82.3377C42.775 82.3377 45.7931 85.588 56.0857 85.588C69.3965 85.588 71.2538 72.9737 75.8971 60.4369C81.856 44.4949 88.7435 21.1237 98.4944 15.2422C98.4944 15.2422 118.538 29.4816 114.669 46.8939Z" fill="#EF97AC"/>
<path d="M114.666 46.8906L106.463 91.234H101.665L98.4922 55.945C106.231 49.8314 114.666 46.8906 114.666 46.8906Z" fill="#595356"/>
<path d="M106.463 91.2344H101.742V101.527H106.463V91.2344Z" fill="#EF97AC"/>
<path d="M1.29474 116.233C83.7905 116.233 166.286 116.233 248.782 116.233C250.949 116.233 253.09 116.233 255.205 116.233C256.598 116.233 256.598 114.066 255.205 114.066C172.709 114.066 90.2137 114.066 7.71796 114.066C5.60268 114.066 3.46161 114.066 1.29474 114.066C-0.0982467 114.066 -0.0982467 116.233 1.29474 116.233Z" fill="#F9C7D6"/>
<path d="M1.29474 150.905C83.7905 150.905 166.286 150.905 248.782 150.905C250.949 150.905 253.09 150.905 255.205 150.905C256.598 150.905 256.598 148.738 255.205 148.738C172.709 148.738 90.2137 148.738 7.71796 148.738C5.60268 148.738 3.46161 148.738 1.29474 148.738C-0.0982467 148.738 -0.0982467 150.905 1.29474 150.905Z" fill="#F9C7D6"/>
</svg>
