<svg width="257" height="157" viewBox="0 0 257 157" fill="none" xmlns="http://www.w3.org/2000/svg">
<path d="M97.1517 41.6486C97.1517 44.038 95.0549 45.9398 92.5192 45.9398C89.9348 45.9398 87.8867 44.038 87.8867 41.6486C87.8867 39.308 89.9348 37.4062 92.5192 37.4062C95.0549 37.4062 97.1517 39.308 97.1517 41.6486Z" fill="#520095"/>
<path d="M104.999 45.5958C104.999 47.9364 102.903 49.887 100.367 49.887C97.7824 49.887 95.7344 47.9364 95.7344 45.5958C95.7344 43.2552 97.7824 41.3047 100.367 41.3047C102.903 41.3047 104.999 43.2552 104.999 45.5958Z" fill="#520095"/>
<path d="M113.386 46.764C114.264 49.0071 112.996 51.4452 110.606 52.2254C108.168 53.0544 105.535 51.8841 104.657 49.641C103.828 47.4467 105.048 45.0085 107.486 44.1796C109.875 43.3994 112.557 44.5697 113.386 46.764Z" fill="#520095"/>
<path d="M121.972 48.0843C122.849 50.3274 121.582 52.7655 119.143 53.5458C116.754 54.326 114.121 53.2044 113.243 50.9613C112.365 48.767 113.633 46.3288 116.071 45.4999C118.461 44.7197 121.143 45.89 121.972 48.0843Z" fill="#520095"/>
<path d="M130.55 48.7614C131.379 50.9557 130.16 53.3939 127.722 54.2228C125.333 55.003 122.651 53.8327 121.822 51.6384C120.944 49.3953 122.212 46.9572 124.601 46.177C127.039 45.3967 129.673 46.5183 130.55 48.7614Z" fill="#520095"/>
<path d="M139.133 48.7614C139.962 50.9557 138.694 53.3939 136.305 54.2228C133.866 55.003 131.233 53.8327 130.355 51.6384C129.526 49.3953 130.794 46.9572 133.184 46.177C135.622 45.3967 138.255 46.5183 139.133 48.7614Z" fill="#520095"/>
<path d="M162.641 41.6486C162.641 44.038 164.737 45.9398 167.273 45.9398C169.858 45.9398 171.954 44.038 171.954 41.6486C171.954 39.308 169.858 37.4062 167.273 37.4062C164.737 37.4062 162.641 39.308 162.641 41.6486Z" fill="#520095"/>
<path d="M154.789 45.5958C154.789 47.9364 156.886 49.887 159.422 49.887C162.006 49.887 164.103 47.9364 164.103 45.5958C164.103 43.2552 162.006 41.3047 159.422 41.3047C156.886 41.3047 154.789 43.2552 154.789 45.5958Z" fill="#520095"/>
<path d="M146.837 46.764C146.008 49.0071 147.227 51.4452 149.665 52.2254C152.055 53.0544 154.737 51.8841 155.614 49.641C156.443 47.4467 155.176 45.0085 152.786 44.1796C150.348 43.3994 147.715 44.5697 146.837 46.764Z" fill="#520095"/>
<path d="M138.793 48.0843C137.964 50.3274 139.232 52.7655 141.621 53.5458C144.059 54.326 146.693 53.2044 147.57 50.9613C148.399 48.7182 147.18 46.2801 144.742 45.4999C142.353 44.7197 139.671 45.89 138.793 48.0843Z" fill="#520095"/>
<path d="M120.701 154.292L118.506 154.975C118.506 154.975 114.751 147.758 100.318 134.592C85.2499 120.792 72.0352 116.988 72.0352 116.988L83.9333 109.625L131.233 126.692L120.701 154.292Z" fill="#7A32A3"/>
<path d="M139.037 154.292L141.182 154.975C141.182 154.975 144.986 147.758 159.371 134.592C174.487 120.792 187.702 116.988 187.702 116.988L175.804 109.625L128.504 126.692L139.037 154.292Z" fill="#7A32A3"/>
<path d="M171.17 38.7188C155.371 53.5427 104.316 53.2989 88.5658 38.7188C88.5658 38.7188 72.0839 74.8033 72.0352 117.422C78.6669 117.032 88.517 120.104 98.2208 126.687C110.85 135.367 118.457 155.067 118.457 155.067C118.457 155.067 122.212 156.237 126.601 156.676V156.725C126.601 156.725 127.43 156.969 129.868 156.92C132.306 156.969 133.135 156.725 133.135 156.725V156.676C137.524 156.237 141.279 155.067 141.279 155.067C141.279 155.067 148.837 135.367 161.515 126.687C171.219 120.104 181.069 117.032 187.701 117.422C187.603 74.8033 171.17 38.7188 171.17 38.7188Z" fill="#C782DC"/>
<path d="M105.441 53.4922C105.441 53.4922 100.662 67.2921 98.0286 86.9923C95.3954 106.693 96.712 118.493 96.712 118.493" stroke="#A72DD8" stroke-width="1.3" stroke-linecap="round" stroke-linejoin="round"/>
<path d="M151.715 53.4922C151.715 53.4922 156.494 67.2921 159.127 86.9923C161.76 106.693 160.443 118.493 160.443 118.493" stroke="#A72DD8" stroke-width="1.3" stroke-linecap="round" stroke-linejoin="round"/>
<path d="M121.58 72.5138C121.238 72.6601 120.897 72.2212 121.092 71.7823C122.457 68.8078 126.115 60.957 126.554 61.152L128.943 62.176C129.089 62.2736 129.236 62.4686 129.187 62.7124C128.748 65.2969 126.944 71.441 126.163 74.0254C126.017 74.4643 125.53 74.5131 125.383 74.123L124.359 71.8311C124.262 71.5873 124.067 71.4897 123.872 71.5873L121.58 72.5138Z" fill="#520095"/>
<path d="M136.793 72.5138C137.183 72.6601 137.476 72.2212 137.281 71.7823C135.964 68.8078 132.258 60.957 131.82 61.152L129.479 62.176C129.284 62.2736 129.186 62.4686 129.235 62.7124C129.674 65.2969 131.478 71.441 132.21 74.0254C132.356 74.4643 132.844 74.5131 133.039 74.123L134.014 71.8311C134.111 71.5873 134.306 71.4897 134.55 71.5873L136.793 72.5138Z" fill="#520095"/>
<path d="M128.308 58.0321C128.308 58.0321 115.629 49.3523 114.508 50.5226C113.337 51.6929 111.582 54.5699 111.582 59.2024C111.582 64.9564 114.508 68.4186 115.044 68.4186C118.896 68.4186 128.308 60.324 128.308 60.324V58.0321Z" fill="#7B14BA"/>
<path d="M130.066 58.0321C130.066 58.0321 142.745 49.3523 143.915 50.5226C145.085 51.6929 146.792 54.5699 146.792 59.2024C146.792 64.9564 143.915 68.4186 143.33 68.4186C139.526 68.4186 130.066 60.324 130.066 60.324V58.0321Z" fill="#7B14BA"/>
<path d="M130.163 63.4427H128.261C127.139 63.4427 126.262 62.565 126.262 61.4922V57.5911C126.262 56.5184 127.139 55.6406 128.261 55.6406H130.163C131.236 55.6406 132.113 56.5184 132.113 57.5911V61.4922C132.113 62.565 131.236 63.4427 130.163 63.4427Z" fill="#7B14BA"/>
<path d="M129.234 77.7812L129.576 149.707" stroke="white" stroke-linecap="round" stroke-linejoin="round" stroke-dasharray="2.16 2.16"/>
<path d="M214.521 95.822C205.695 98.0651 194.723 102.99 177.754 96.6022C160.784 90.1655 159.175 75.9755 166.002 62.7607C181.118 33.2104 248.362 -11.3589 256.116 4.14768C260.992 13.8515 218.227 38.4768 218.227 38.4768C218.227 38.4768 252.8 19.3617 255.823 28.9193C259.871 41.6951 221.884 57.5919 221.884 57.5919C221.884 57.5919 251.971 44.2796 254.165 54.5686C255.872 62.5657 224.859 76.7069 224.859 76.7069C224.859 76.7069 248.167 66.9544 249.63 76.5607C250.557 82.5585 225.688 93.0425 214.521 95.822Z" fill="#A72DD8"/>
<path d="M185.02 81.3911C180.681 81.8788 174.731 74.7594 177.804 67.8838C181.266 60.228 194.676 57.7899 201.746 65.4944C208.329 72.7113 207.842 82.854 197.601 90.2172C192.042 94.2646 174.536 97.3854 163.809 85.4385" stroke="#C782DC" stroke-width="3.1" stroke-linecap="round" stroke-linejoin="round"/>
<path d="M251.385 7.66127C251.385 9.66055 249.825 11.221 247.825 11.221C245.875 11.221 244.266 9.66055 244.266 7.66127C244.266 5.71075 245.875 4.10156 247.825 4.10156C249.825 4.10156 251.385 5.71075 251.385 7.66127Z" fill="#C782DC"/>
<path d="M251.385 34.1378C251.385 36.1371 249.825 37.7463 247.825 37.7463C245.875 37.7463 244.266 36.1371 244.266 34.1378C244.266 32.1873 245.875 30.5781 247.825 30.5781C249.825 30.5781 251.385 32.1873 251.385 34.1378Z" fill="#C782DC"/>
<path d="M249.387 57.591C249.387 59.5415 247.778 61.1506 245.778 61.1506C243.828 61.1506 242.219 59.5415 242.219 57.591C242.219 55.6404 243.828 54.0312 245.778 54.0312C247.778 54.0312 249.387 55.6404 249.387 57.591Z" fill="#C782DC"/>
<path d="M245.291 77.9738C245.291 79.9243 243.682 81.5335 241.732 81.5335C239.781 81.5335 238.172 79.9243 238.172 77.9738C238.172 75.9745 239.781 74.4141 241.732 74.4141C243.682 74.4141 245.291 75.9745 245.291 77.9738Z" fill="#C782DC"/>
<path d="M42.4861 95.822C51.3122 98.0651 62.2839 102.99 79.2534 96.6022C96.2229 90.1655 97.8321 75.9755 91.0053 62.7607C75.8887 33.2104 8.64464 -11.3589 0.891335 4.14768C-3.98496 13.8515 38.7801 38.4768 38.7801 38.4768C38.7801 38.4768 4.20721 19.3617 1.18391 28.9193C-2.86342 41.6951 35.1229 57.5919 35.1229 57.5919C35.1229 57.5919 5.03619 44.2796 2.84185 54.5686C1.13515 62.5657 32.1484 76.7069 32.1484 76.7069C32.1484 76.7069 8.8397 66.9544 7.37681 76.5607C6.45031 82.5585 31.3194 93.0425 42.4861 95.822Z" fill="#A72DD8"/>
<path d="M72.1347 81.3911C76.4746 81.8788 82.4725 74.7594 79.3516 67.8838C75.9382 60.228 62.4309 57.7899 55.3115 65.4944C48.631 72.7113 49.1674 82.854 59.4563 90.2172C65.0641 94.2646 82.7163 97.3854 93.4929 85.4385" stroke="#C782DC" stroke-width="3.1" stroke-linecap="round" stroke-linejoin="round"/>
<path d="M6.89062 7.66127C6.89062 9.66055 8.4998 11.221 10.4503 11.221C12.4496 11.221 14.01 9.66055 14.01 7.66127C14.01 5.71075 12.4496 4.10156 10.4503 4.10156C8.4998 4.10156 6.89062 5.71075 6.89062 7.66127Z" fill="#C782DC"/>
<path d="M6.89062 34.1378C6.89062 36.1371 8.4998 37.7463 10.4503 37.7463C12.4496 37.7463 14.01 36.1371 14.01 34.1378C14.01 32.1873 12.4496 30.5781 10.4503 30.5781C8.4998 30.5781 6.89062 32.1873 6.89062 34.1378Z" fill="#C782DC"/>
<path d="M8.9375 57.591C8.9375 59.5415 10.5467 61.1506 12.4972 61.1506C14.4477 61.1506 16.0569 59.5415 16.0569 57.591C16.0569 55.6404 14.4477 54.0312 12.4972 54.0312C10.5467 54.0312 8.9375 55.6404 8.9375 57.591Z" fill="#C782DC"/>
<path d="M12.9844 77.9738C12.9844 79.9243 14.5935 81.5335 16.5441 81.5335C18.5433 81.5335 20.1525 79.9243 20.1525 77.9738C20.1525 75.9745 18.5433 74.4141 16.5441 74.4141C14.5935 74.4141 12.9844 75.9745 12.9844 77.9738Z" fill="#C782DC"/>
</svg>
