<svg width="257" height="182" viewBox="0 0 257 182" fill="none" xmlns="http://www.w3.org/2000/svg">
<path fill-rule="evenodd" clip-rule="evenodd" d="M103.605 107.305H57.9693C36.902 107.305 19.7656 90.1683 19.7656 69.0396C19.7656 47.9723 36.902 30.8359 57.9693 30.8359H103.605C108.027 30.8359 111.59 34.3983 111.59 38.8206V99.32C111.59 103.742 108.027 107.305 103.605 107.305ZM57.9693 46.8053C45.6852 46.8053 35.735 56.8169 35.735 69.0396C35.735 81.3237 45.6852 91.3353 57.9693 91.3353H95.6202V46.8053H57.9693Z" fill="#374059"/>
<path fill-rule="evenodd" clip-rule="evenodd" d="M103.603 181.931H49.8597C24.8615 181.931 4.53125 161.601 4.53125 136.603C4.53125 111.666 24.8615 91.3359 49.8597 91.3359H103.603C108.025 91.3359 111.587 94.8983 111.587 99.3206V173.947C111.587 178.369 108.025 181.931 103.603 181.931ZM49.8597 107.305C33.6446 107.305 20.5006 120.449 20.5006 136.603C20.5006 152.818 33.6446 165.962 49.8597 165.962H95.6181V107.305H49.8597Z" fill="#374059"/>
<path fill-rule="evenodd" clip-rule="evenodd" d="M199.234 107.305H153.598C149.176 107.305 145.613 103.742 145.613 99.32V38.8206C145.613 34.3983 149.176 30.8359 153.598 30.8359H199.234C220.301 30.8359 237.437 47.9723 237.437 69.0396C237.437 90.1683 220.301 107.305 199.234 107.305ZM161.583 91.3353H199.234C211.518 91.3353 221.468 81.3237 221.468 69.0396C221.468 56.8169 211.518 46.8053 199.234 46.8053H161.583V91.3353Z" fill="#374059"/>
<path fill-rule="evenodd" clip-rule="evenodd" d="M207.341 181.931H153.598C149.176 181.931 145.613 178.369 145.613 173.947V99.3206C145.613 94.8983 149.176 91.3359 153.598 91.3359H207.341C232.339 91.3359 252.67 111.666 252.67 136.603C252.67 161.601 232.339 181.931 207.341 181.931ZM161.583 165.962H207.341C223.556 165.962 236.7 152.818 236.7 136.603C236.7 120.449 223.556 107.305 207.341 107.305H161.583V165.962Z" fill="#374059"/>
<path d="M127.619 167.74C124.67 146.529 122.377 125.257 120.739 103.924C120.371 98.6417 119.511 93.2981 118.897 88.0159C117.546 77.2673 119.02 66.6415 121.661 56.0771C123.073 50.795 124.793 45.4513 127.619 40.1692C127.987 39.3707 129.216 39.3707 129.584 40.1692C134.866 50.365 137.139 60.9908 138.429 72.0465C139.841 82.7337 137.323 93.3595 136.463 103.924C134.825 125.257 132.532 146.529 129.584 167.74C129.523 168.293 128.97 168.661 128.478 168.538C127.987 168.477 127.68 168.17 127.619 167.74Z" fill="#374059"/>
<path d="M128.603 49.4383C128.521 49.4383 128.46 49.4383 128.419 49.4383C127.068 49.3154 126.024 48.087 126.147 46.7358C126.269 45.6302 128.788 18.298 154.4 5.09255C155.567 4.47834 157.041 4.9697 157.655 6.19812C158.331 7.36511 157.84 8.8392 156.611 9.4534C133.456 21.369 131.06 46.92 131.06 47.1657C130.937 48.4556 129.893 49.4383 128.603 49.4383Z" fill="#374059"/>
<path d="M158.205 14.2499C161.952 12.5916 163.61 8.23069 161.952 4.54545C160.294 0.798787 155.933 -0.859556 152.186 0.798803C148.439 2.45716 146.781 6.81802 148.439 10.5033C150.098 14.2499 154.459 15.9083 158.205 14.2499Z" fill="#374059"/>
<path d="M128.603 49.4383C127.313 49.4383 126.269 48.4556 126.146 47.1657C126.146 46.8586 123.689 21.369 100.595 9.4534C99.3666 8.8392 98.8752 7.36511 99.5508 6.19812C100.165 4.9697 101.639 4.47834 102.806 5.09255C128.419 18.298 130.937 45.6302 131.06 46.7358C131.182 48.087 130.138 49.3154 128.787 49.4383C128.746 49.4383 128.685 49.4383 128.603 49.4383Z" fill="#374059"/>
<path d="M105.014 0.798803C101.267 -0.859556 96.9064 0.798787 95.248 4.54545C93.5897 8.23069 95.248 12.5916 98.9947 14.2499C102.741 15.9083 107.102 14.2499 108.761 10.5033C110.419 6.81802 108.761 2.45716 105.014 0.798803Z" fill="#374059"/>
<path d="M38.9869 25.0565C38.9869 25.0565 38.2498 0.119731 26.7642 2.57656C16.3841 4.84912 11.2861 10.8069 24.4302 29.4174C24.4302 29.4174 9.93489 19.4058 6.43391 24.3809C2.87151 29.2946 22.219 35.1909 22.219 35.1909L38.9869 25.0565Z" fill="#E59E5E"/>
<path d="M38.9898 25.0556C38.9898 25.0556 21.3007 -2.33801 9.44649 7.7964C-2.46913 17.8694 18.5367 26.5911 18.5367 26.5911C18.5367 26.5911 5.69982 20.9404 5.02419 29.3551C4.34856 37.7697 24.8017 35.4357 24.8017 35.4357L38.9898 25.0556Z" fill="#D6594C"/>
<path d="M22.0352 39.0653C27.0102 32.3704 33.6437 26.904 41.137 23.2188C36.1005 29.9136 29.5285 35.38 22.0352 39.0653Z" fill="#374059"/>
<path d="M39.4796 25.1843C39.3977 25.1843 39.3363 25.1638 39.2954 25.1228C39.1725 25 39.1111 24.8157 39.1725 24.6315C40.7695 21.9904 41.6908 19.0422 41.875 15.9712C41.875 15.7869 42.0593 15.6641 42.2436 15.6641C42.4892 15.6641 42.6121 15.8483 42.6121 16.0326C42.4278 19.165 41.4451 22.2975 39.7867 25C39.7253 25.1229 39.6025 25.1843 39.4796 25.1843Z" fill="#374059"/>
<path d="M39.297 25.242C39.2561 25.2011 39.2151 25.1601 39.1742 25.1192C39.0513 24.9963 39.0513 24.7507 39.1742 24.6278C41.3853 22.5395 43.1051 19.8984 44.0878 17.0117C44.1492 16.8274 44.3335 16.7046 44.5178 16.766C44.702 16.8888 44.8249 17.0731 44.7634 17.2573C43.7193 20.2055 41.9995 22.9695 39.6655 25.1192C39.6041 25.242 39.4199 25.242 39.297 25.242Z" fill="#374059"/>
<path d="M66.446 82.1191C66.446 82.1191 47.7741 74.8101 52.7492 66.764C57.2329 59.5163 63.1907 57.2438 73.6936 72.2918C73.6936 72.2918 70.0084 58.595 74.7378 57.2438C79.4672 55.8925 78.6687 72.169 78.6687 72.169L66.446 82.1191Z" fill="#7FC16C"/>
<path d="M66.4432 82.1195C66.4432 82.1195 50.4738 61.3593 61.3453 55.0329C72.2167 48.768 73.1381 67.0714 73.1381 67.0714C73.1381 67.0714 72.401 55.77 78.9116 57.5512C85.4836 59.3324 78.1746 74.1962 78.1746 74.1962L66.4432 82.1195Z" fill="#57A386"/>
<path d="M81.6783 73.0859C75.2291 75.0514 69.2713 78.5524 64.4805 83.2818C70.9296 81.3163 76.826 77.7539 81.6783 73.0859Z" fill="#374059"/>
<path d="M66.3831 82.5506C66.4241 82.5097 66.4241 82.4687 66.3831 82.4278C66.3831 82.2435 66.1989 82.1821 66.076 82.1821C63.6806 82.6735 61.1624 82.5506 58.7669 81.875C58.6441 81.875 58.4599 81.9364 58.3984 82.0593C58.3984 82.2435 58.4599 82.4278 58.6441 82.4278C61.0395 83.1648 63.6806 83.2877 66.1989 82.7349C66.2603 82.7349 66.3831 82.612 66.3831 82.5506Z" fill="#374059"/>
<path d="M66.5064 82.426C66.5064 82.3851 66.4859 82.3441 66.4449 82.3032C66.3835 82.1803 66.1993 82.1189 66.0764 82.1803C63.8653 83.2859 61.4085 83.8387 58.9516 83.8387C58.8288 83.8387 58.706 83.9615 58.6445 84.0844C58.706 84.2686 58.7674 84.3915 58.9516 84.3915C61.5313 84.4529 64.0496 83.8387 66.3221 82.6717C66.445 82.6717 66.5064 82.5489 66.5064 82.426Z" fill="#374059"/>
<path d="M41.6903 143.726C41.6903 143.726 40.9533 113.937 54.8958 116.149C67.4256 118.175 73.8748 124.993 59.3795 148.026C59.3795 148.026 75.9631 135.128 80.5696 140.84C85.1147 146.552 62.3277 154.782 62.3277 154.782L41.6903 143.726Z" fill="#D6594C"/>
<path d="M41.6914 143.723C41.6914 143.723 61.0389 109.942 75.9027 121.243C90.7665 132.544 66.1983 144.276 66.1983 144.276C66.1983 144.276 81.1849 136.721 82.5362 146.733C83.826 156.744 59.3192 155.27 59.3192 155.27L41.6914 143.723Z" fill="#E59E5E"/>
<path d="M62.8195 159.384C56.4318 151.707 48.2014 145.565 38.9883 141.695C45.4375 149.373 53.6678 155.454 62.8195 159.384Z" fill="#374059"/>
<path d="M41.1382 143.909C41.1792 143.909 41.2406 143.889 41.3225 143.848C41.5067 143.664 41.5682 143.418 41.4453 143.234C39.357 140.224 38.0672 136.723 37.6372 133.099C37.6372 132.853 37.3916 132.669 37.2073 132.731C36.9616 132.792 36.7773 132.976 36.7773 133.222C37.2073 136.969 38.5585 140.592 40.7083 143.725C40.8311 143.848 40.954 143.909 41.1382 143.909Z" fill="#374059"/>
<path d="M41.3249 143.969C41.3658 143.928 41.4068 143.887 41.4477 143.847C41.632 143.662 41.632 143.355 41.4477 143.232C38.6224 140.898 36.4727 137.827 35.1214 134.449C34.9986 134.265 34.7529 134.142 34.5686 134.203C34.3229 134.326 34.2615 134.572 34.3229 134.756C35.7356 138.257 38.0082 141.451 40.895 143.908C41.0178 143.969 41.202 144.031 41.3249 143.969Z" fill="#374059"/>
<path d="M22.8358 96.1192C22.8358 96.1192 10.5517 101.217 0.601562 91.8197C0.601562 91.8197 11.2888 86.5375 22.8358 96.1192Z" fill="#57A386"/>
<path d="M23.2019 96.2421C23.2019 96.2421 8.89088 90.1 8.46094 74.0078C8.46094 74.0078 21.7892 78.6144 23.2019 96.2421Z" fill="#57A386"/>
<path d="M23.3253 96.4322C23.3253 96.4322 7.78583 94.5281 2.93359 79.2344C2.93359 79.2344 16.9989 79.91 23.3253 96.4322Z" fill="#7FC16C"/>
<path d="M13.0056 68.114C13.0056 68.114 6.18793 54.0487 16.4452 41.7031C16.4452 41.7031 23.4471 53.9258 13.0056 68.114Z" fill="#57A386"/>
<path d="M13.0699 65.7812C13.7455 76.6527 18.5978 86.6029 23.2657 96.2459C22.4673 95.1403 21.7302 93.9734 20.9932 92.8678C16.1409 84.8217 12.0872 75.3629 13.0699 65.7812Z" fill="#7FC16C"/>
<path d="M13.2554 68.235C13.2554 68.235 1.03269 58.5305 4.84077 42.9297C4.84077 42.9297 16.5107 50.853 13.2554 68.235Z" fill="#7FC16C"/>
<path d="M96.909 26.7166C96.909 26.7166 92.3025 11.7914 76.3945 9.70312C76.3945 9.70312 79.527 23.3999 96.909 26.7166Z" fill="#57A386"/>
<path d="M97.0911 26.8391C97.0911 26.8391 96.8454 11.2382 82.1044 4.78906C82.1044 4.78906 81.3059 18.8544 97.0911 26.8391Z" fill="#7FC16C"/>
<path d="M70.07 13.5732C70.07 13.5732 58.1544 3.43881 43.5977 10.2565C43.5977 10.2565 53.6092 20.1452 70.07 13.5732Z" fill="#57A386"/>
<path d="M67.7344 13.4453C78.4216 15.2265 87.8189 21.1229 96.9092 26.7736C95.8651 25.8523 94.8209 24.9924 93.7767 24.1325C86.2834 18.4818 77.316 13.4453 67.7344 13.4453Z" fill="#7FC16C"/>
<path d="M70.1284 13.8783C70.1284 13.8783 61.7751 0.672835 45.8672 2.82256C45.8672 2.82256 52.5006 15.2295 70.1284 13.8783Z" fill="#7FC16C"/>
<path d="M97.0918 26.7783C97.0918 26.7783 80.5082 33.9031 66.75 21.4961C66.75 21.4961 81.1839 14.0028 97.0918 26.7783Z" fill="#7FC16C"/>
<path d="M14.1748 172.962C14.1748 175.849 11.8408 178.244 8.89263 178.244C6.00586 178.244 3.67188 175.849 3.67188 172.962C3.67188 170.075 6.00586 167.68 8.89263 167.68C11.8408 167.68 14.1748 170.075 14.1748 172.962Z" fill="#D6594C"/>
<path d="M12.4569 171.673C12.4569 172.656 11.6585 173.454 10.6757 173.454C9.693 173.454 8.89453 172.656 8.89453 171.673C8.89453 170.752 9.693 169.953 10.6757 169.953C11.6585 169.953 12.4569 170.752 12.4569 171.673Z" fill="#F9F3E4"/>
<path d="M50.8418 18.1184C53.6057 17.0743 56.6153 18.4869 57.5981 21.1894C58.6422 23.9534 57.2295 26.963 54.527 28.0071C51.7631 28.9899 48.7535 27.5772 47.7707 24.8747C46.7266 22.1107 48.1393 19.1011 50.8418 18.1184Z" fill="#D6594C"/>
<path d="M50.2922 20.1452C51.2135 19.8381 52.1963 20.268 52.5648 21.1893C52.8719 22.1106 52.4419 23.1548 51.5206 23.4619C50.5993 23.8304 49.5552 23.3391 49.2481 22.4177C48.8795 21.4964 49.3709 20.5137 50.2922 20.1452Z" fill="#F9F3E4"/>
<path d="M5.14616 99.6262C7.48014 98.7663 9.99838 99.9333 10.8583 102.267C11.7182 104.601 10.5512 107.119 8.21719 107.979C5.88321 108.839 3.36497 107.672 2.50508 105.338C1.64519 103.066 2.81217 100.486 5.14616 99.6262Z" fill="#D6594C"/>
<path d="M4.65281 101.349C5.45128 101.103 6.31115 101.472 6.55684 102.27C6.86394 103.007 6.434 103.867 5.69695 104.174C4.89848 104.481 4.0386 104.051 3.7315 103.314C3.48582 102.516 3.85434 101.656 4.65281 101.349Z" fill="#F9F3E4"/>
<path d="M90.3986 116.143C91.3813 118.845 90.03 121.855 87.3275 122.838C84.6864 123.882 81.6768 122.531 80.6327 119.828C79.6499 117.126 81.0012 114.116 83.7037 113.133C86.3448 112.151 89.3544 113.502 90.3986 116.143Z" fill="#D6594C"/>
<path d="M88.3106 115.591C88.6792 116.512 88.1878 117.495 87.3279 117.863C86.4066 118.171 85.4239 117.741 85.0553 116.819C84.7482 115.959 85.1782 114.915 86.0995 114.608C86.9594 114.24 88.0035 114.731 88.3106 115.591Z" fill="#F9F3E4"/>
<path d="M47.035 56.1345C49.1233 56.1959 50.7817 57.9771 50.7202 60.0654C50.6588 62.1537 48.8776 63.8121 46.7893 63.7506C44.6396 63.6892 42.9812 61.908 43.1041 59.8197C43.1655 57.7314 44.8853 56.073 47.035 56.1345Z" fill="#D6594C"/>
<path d="M46.0523 57.3672C46.7894 57.3672 47.3421 57.9814 47.2807 58.7185C47.2807 59.3941 46.6665 59.9469 45.9909 59.9469C45.2538 59.8854 44.7011 59.3326 44.7625 58.5956C44.7625 57.92 45.3767 57.3672 46.0523 57.3672Z" fill="#F9F3E4"/>
<path d="M45.316 66.5179C46.8515 66.5794 48.0185 67.8078 47.9571 69.3433C47.8956 70.8788 46.6672 72.0458 45.1317 71.9844C43.5962 71.9844 42.4292 70.6945 42.4906 69.159C42.552 67.6235 43.7804 66.4565 45.316 66.5179Z" fill="#D6594C"/>
<path d="M4.10381 159.32C5.57791 159.382 6.80633 160.672 6.74491 162.207C6.68349 163.681 5.39365 164.91 3.91956 164.848C2.38404 164.787 1.15563 163.497 1.21705 162.023C1.27847 160.487 2.56829 159.32 4.10381 159.32Z" fill="#D6594C"/>
<path d="M3.85502 111.237C5.39053 111.237 6.55754 112.527 6.49612 114.062C6.4347 115.536 5.20628 116.765 3.67076 116.703C2.13524 116.642 0.96824 115.352 1.02966 113.878C1.09108 112.342 2.3195 111.175 3.85502 111.237Z" fill="#D6594C"/>
<path d="M88.4956 125.479C90.0312 125.479 91.1981 126.769 91.1367 128.304C91.0753 129.778 89.8469 131.007 88.3114 130.945C86.7759 130.884 85.6089 129.594 85.6703 128.12C85.7317 126.584 86.9601 125.417 88.4956 125.479Z" fill="#D6594C"/>
<path d="M75.2261 109.82C76.7616 109.882 77.9286 111.172 77.8672 112.707C77.8672 114.181 76.5774 115.41 75.0418 115.348C73.5063 115.287 72.3393 113.997 72.4008 112.523C72.4622 110.987 73.6906 109.82 75.2261 109.82Z" fill="#D6594C"/>
<path d="M53.9766 50.9789C55.4507 51.0403 56.6791 52.2687 56.6177 53.8042C56.5563 55.3398 55.2665 56.5067 53.7924 56.4453C52.2569 56.3839 51.0898 55.1555 51.0898 53.62C51.1513 52.0845 52.4411 50.9175 53.9766 50.9789Z" fill="#D6594C"/>
<path d="M218.215 25.0565C218.215 25.0565 218.952 0.119731 230.438 2.57656C240.818 4.84912 245.916 10.8069 232.772 29.4174C232.772 29.4174 247.267 19.4058 250.768 24.3809C254.33 29.2946 234.983 35.1909 234.983 35.1909L218.215 25.0565Z" fill="#E59E5E"/>
<path d="M218.215 25.0556C218.215 25.0556 235.904 -2.33801 247.758 7.7964C259.674 17.8694 238.668 26.5911 238.668 26.5911C238.668 26.5911 251.505 20.9404 252.18 29.3551C252.856 37.7697 232.403 35.4357 232.403 35.4357L218.215 25.0556Z" fill="#D6594C"/>
<path d="M235.164 39.0653C230.189 32.3704 223.556 26.904 216.062 23.2188C221.099 29.9136 227.671 35.38 235.164 39.0653Z" fill="#374059"/>
<path d="M217.722 25.1843C217.804 25.1843 217.866 25.1638 217.907 25.1228C218.029 25 218.091 24.8157 218.029 24.6315C216.432 21.9904 215.511 19.0422 215.327 15.9712C215.327 15.7869 215.143 15.6641 214.958 15.6641C214.713 15.6641 214.59 15.8483 214.59 16.0326C214.774 19.165 215.757 22.2975 217.415 25C217.477 25.1229 217.599 25.1843 217.722 25.1843Z" fill="#374059"/>
<path d="M217.904 25.242C217.945 25.2011 217.986 25.1601 218.027 25.1192C218.15 24.9963 218.15 24.7507 218.027 24.6278C215.816 22.5395 214.096 19.8984 213.113 17.0117C213.052 16.8274 212.868 16.7046 212.684 16.766C212.499 16.8888 212.376 17.0731 212.438 17.2573C213.482 20.2055 215.202 22.9695 217.536 25.1192C217.597 25.242 217.781 25.242 217.904 25.242Z" fill="#374059"/>
<path d="M190.762 82.1191C190.762 82.1191 209.434 74.8101 204.459 66.764C199.975 59.5163 194.017 57.2438 183.514 72.2918C183.514 72.2918 187.199 58.595 182.47 57.2438C177.741 55.8925 178.539 72.169 178.539 72.169L190.762 82.1191Z" fill="#7FC16C"/>
<path d="M190.761 82.1195C190.761 82.1195 206.73 61.3593 195.858 55.0329C184.987 48.768 184.066 67.0714 184.066 67.0714C184.066 67.0714 184.803 55.77 178.292 57.5512C171.72 59.3324 179.029 74.1962 179.029 74.1962L190.761 82.1195Z" fill="#57A386"/>
<path d="M175.527 73.0859C181.977 75.0514 187.934 78.5524 192.725 83.2818C186.276 81.3163 180.38 77.7539 175.527 73.0859Z" fill="#374059"/>
<path d="M190.82 82.5506C190.779 82.5097 190.779 82.4687 190.82 82.4278C190.82 82.2435 191.004 82.1821 191.127 82.1821C193.522 82.6735 196.041 82.5506 198.436 81.875C198.559 81.875 198.743 81.9364 198.804 82.0593C198.804 82.2435 198.743 82.4278 198.559 82.4278C196.163 83.1648 193.522 83.2877 191.004 82.7349C190.943 82.7349 190.82 82.612 190.82 82.5506Z" fill="#374059"/>
<path d="M190.699 82.426C190.699 82.3851 190.72 82.3441 190.761 82.3032C190.822 82.1803 191.006 82.1189 191.129 82.1803C193.34 83.2859 195.797 83.8387 198.254 83.8387C198.377 83.8387 198.5 83.9615 198.561 84.0844C198.5 84.2686 198.438 84.3915 198.254 84.3915C195.674 84.4529 193.156 83.8387 190.884 82.6717C190.761 82.6717 190.699 82.5489 190.699 82.426Z" fill="#374059"/>
<path d="M215.51 143.726C215.51 143.726 216.247 113.937 202.305 116.149C189.775 118.175 183.326 124.993 197.821 148.026C197.821 148.026 181.237 135.128 176.631 140.84C172.086 146.552 194.873 154.782 194.873 154.782L215.51 143.726Z" fill="#D6594C"/>
<path d="M215.511 143.723C215.511 143.723 196.164 109.942 181.3 121.243C166.436 132.544 191.004 144.276 191.004 144.276C191.004 144.276 176.018 136.721 174.666 146.733C173.377 156.744 197.883 155.27 197.883 155.27L215.511 143.723Z" fill="#E59E5E"/>
<path d="M194.383 159.384C200.771 151.707 209.001 145.565 218.214 141.695C211.765 149.373 203.534 155.454 194.383 159.384Z" fill="#374059"/>
<path d="M216.066 143.909C216.025 143.909 215.964 143.889 215.882 143.848C215.698 143.664 215.636 143.418 215.759 143.234C217.848 140.224 219.137 136.723 219.567 133.099C219.567 132.853 219.813 132.669 219.997 132.731C220.243 132.792 220.427 132.976 220.427 133.222C219.997 136.969 218.646 140.592 216.496 143.725C216.373 143.848 216.251 143.909 216.066 143.909Z" fill="#374059"/>
<path d="M215.882 143.969C215.841 143.928 215.8 143.887 215.759 143.847C215.575 143.662 215.575 143.355 215.759 143.232C218.585 140.898 220.734 137.827 222.086 134.449C222.208 134.265 222.454 134.142 222.638 134.203C222.884 134.326 222.945 134.572 222.884 134.756C221.471 138.257 219.199 141.451 216.312 143.908C216.189 143.969 216.005 144.031 215.882 143.969Z" fill="#374059"/>
<path d="M234.367 96.1192C234.367 96.1192 246.651 101.217 256.601 91.8197C256.601 91.8197 245.914 86.5375 234.367 96.1192Z" fill="#57A386"/>
<path d="M234 96.2421C234 96.2421 248.311 90.1 248.741 74.0078C248.741 74.0078 235.413 78.6144 234 96.2421Z" fill="#57A386"/>
<path d="M233.875 96.4322C233.875 96.4322 249.414 94.5281 254.267 79.2344C254.267 79.2344 240.201 79.91 233.875 96.4322Z" fill="#7FC16C"/>
<path d="M244.194 68.114C244.194 68.114 251.012 54.0487 240.755 41.7031C240.755 41.7031 233.753 53.9258 244.194 68.114Z" fill="#57A386"/>
<path d="M244.133 65.7812C243.458 76.6527 238.605 86.6029 233.938 96.2459C234.736 95.1403 235.473 93.9734 236.21 92.8678C241.062 84.8217 245.116 75.3629 244.133 65.7812Z" fill="#7FC16C"/>
<path d="M243.948 68.235C243.948 68.235 256.171 58.5305 252.363 42.9297C252.363 42.9297 240.693 50.853 243.948 68.235Z" fill="#7FC16C"/>
<path d="M160.297 26.7166C160.297 26.7166 164.903 11.7914 180.811 9.70312C180.811 9.70312 177.679 23.3999 160.297 26.7166Z" fill="#57A386"/>
<path d="M160.109 26.8391C160.109 26.8391 160.355 11.2382 175.096 4.78906C175.096 4.78906 175.894 18.8544 160.109 26.8391Z" fill="#7FC16C"/>
<path d="M187.137 13.5732C187.137 13.5732 199.052 3.43881 213.609 10.2565C213.609 10.2565 203.597 20.1452 187.137 13.5732Z" fill="#57A386"/>
<path d="M189.472 13.4453C178.785 15.2265 169.387 21.1229 160.297 26.7736C161.341 25.8523 162.385 24.9924 163.429 24.1325C170.923 18.4818 179.89 13.4453 189.472 13.4453Z" fill="#7FC16C"/>
<path d="M187.074 13.8783C187.074 13.8783 195.427 0.672835 211.335 2.82256C211.335 2.82256 204.702 15.2295 187.074 13.8783Z" fill="#7FC16C"/>
<path d="M160.109 26.7783C160.109 26.7783 176.693 33.9031 190.451 21.4961C190.451 21.4961 176.017 14.0028 160.109 26.7783Z" fill="#7FC16C"/>
<path d="M243.027 172.962C243.027 175.849 245.361 178.244 248.31 178.244C251.196 178.244 253.53 175.849 253.53 172.962C253.53 170.075 251.196 167.68 248.31 167.68C245.361 167.68 243.027 170.075 243.027 172.962Z" fill="#D6594C"/>
<path d="M244.75 171.673C244.75 172.656 245.548 173.454 246.531 173.454C247.514 173.454 248.312 172.656 248.312 171.673C248.312 170.752 247.514 169.953 246.531 169.953C245.548 169.953 244.75 170.752 244.75 171.673Z" fill="#F9F3E4"/>
<path d="M206.359 18.1184C203.595 17.0743 200.586 18.4869 199.603 21.1894C198.559 23.9534 199.971 26.963 202.674 28.0071C205.438 28.9899 208.447 27.5772 209.43 24.8747C210.474 22.1107 209.062 19.1011 206.359 18.1184Z" fill="#D6594C"/>
<path d="M206.914 20.1452C205.993 19.8381 205.01 20.268 204.641 21.1893C204.334 22.1106 204.764 23.1548 205.685 23.4619C206.607 23.8304 207.651 23.3391 207.958 22.4177C208.327 21.4964 207.835 20.5137 206.914 20.1452Z" fill="#F9F3E4"/>
<path d="M252.057 99.6262C249.723 98.7663 247.205 99.9333 246.345 102.267C245.485 104.601 246.652 107.119 248.986 107.979C251.32 108.839 253.838 107.672 254.698 105.338C255.558 103.066 254.391 100.486 252.057 99.6262Z" fill="#D6594C"/>
<path d="M252.547 101.349C251.749 101.103 250.889 101.472 250.643 102.27C250.336 103.007 250.766 103.867 251.503 104.174C252.302 104.481 253.161 104.051 253.469 103.314C253.714 102.516 253.346 101.656 252.547 101.349Z" fill="#F9F3E4"/>
<path d="M166.805 116.143C165.822 118.845 167.173 121.855 169.876 122.838C172.517 123.882 175.526 122.531 176.57 119.828C177.553 117.126 176.202 114.116 173.499 113.133C170.858 112.151 167.849 113.502 166.805 116.143Z" fill="#D6594C"/>
<path d="M168.893 115.591C168.525 116.512 169.016 117.495 169.876 117.863C170.797 118.171 171.78 117.741 172.149 116.819C172.456 115.959 172.026 114.915 171.104 114.608C170.245 114.24 169.2 114.731 168.893 115.591Z" fill="#F9F3E4"/>
<path d="M210.167 56.1345C208.079 56.1959 206.421 57.9771 206.482 60.0654C206.544 62.1537 208.325 63.8121 210.413 63.7506C212.563 63.6892 214.221 61.908 214.098 59.8197C214.037 57.7314 212.317 56.073 210.167 56.1345Z" fill="#D6594C"/>
<path d="M211.151 57.3672C210.414 57.3672 209.861 57.9814 209.923 58.7185C209.923 59.3941 210.537 59.9469 211.212 59.9469C211.949 59.8854 212.502 59.3326 212.441 58.5956C212.441 57.92 211.827 57.3672 211.151 57.3672Z" fill="#F9F3E4"/>
<path d="M211.889 66.5179C210.354 66.5794 209.187 67.8078 209.248 69.3433C209.31 70.8788 210.538 72.0458 212.074 71.9844C213.609 71.9844 214.776 70.6945 214.715 69.159C214.653 67.6235 213.425 66.4565 211.889 66.5179Z" fill="#D6594C"/>
<path d="M253.1 159.32C251.626 159.382 250.398 160.672 250.459 162.207C250.521 163.681 251.81 164.91 253.285 164.848C254.82 164.787 256.049 163.497 255.987 162.023C255.926 160.487 254.636 159.32 253.1 159.32Z" fill="#D6594C"/>
<path d="M253.347 111.237C251.811 111.237 250.644 112.527 250.705 114.062C250.767 115.536 251.995 116.765 253.531 116.703C255.066 116.642 256.233 115.352 256.172 113.878C256.11 112.342 254.882 111.175 253.347 111.237Z" fill="#D6594C"/>
<path d="M168.71 125.479C167.174 125.479 166.007 126.769 166.069 128.304C166.13 129.778 167.359 131.007 168.894 130.945C170.43 130.884 171.597 129.594 171.535 128.12C171.474 126.584 170.245 125.417 168.71 125.479Z" fill="#D6594C"/>
<path d="M181.975 109.82C180.44 109.882 179.273 111.172 179.334 112.707C179.334 114.181 180.624 115.41 182.16 115.348C183.695 115.287 184.862 113.997 184.801 112.523C184.739 110.987 183.511 109.82 181.975 109.82Z" fill="#D6594C"/>
<path d="M203.225 50.9789C201.751 51.0403 200.523 52.2687 200.584 53.8042C200.646 55.3398 201.935 56.5067 203.41 56.4453C204.945 56.3839 206.112 55.1555 206.112 53.62C206.051 52.0845 204.761 50.9175 203.225 50.9789Z" fill="#D6594C"/>
<path d="M116.809 4.78906C123.811 7.61441 128.11 16.3361 125.96 23.5838C122.889 17.0732 120.002 11.1768 116.809 4.78906Z" fill="#E59E5E"/>
<path d="M79.8359 50.2422C86.3465 52.3305 89.5404 60.0081 89.2333 66.4572C88.9876 73.0293 86.1623 79.0485 82.4156 84.2692C82.8455 81.0754 83.7054 78.0658 84.3196 75.1176C86.3465 66.5187 86.5308 56.937 79.8359 50.2422Z" fill="#E59E5E"/>
<path d="M30.2648 127.689C30.0191 120.38 36.284 113.193 43.5931 112.641C38.9865 117.8 34.8099 122.468 30.2648 127.689Z" fill="#E59E5E"/>
<path d="M87.9385 140.281C94.8176 146.853 90.8867 160.366 81.5508 162.208C82.9635 160.489 84.1305 158.892 85.1132 157.233C88.1228 152.013 88.737 146.3 87.8771 140.281H87.9385Z" fill="#E59E5E"/>
<path d="M104.031 22.2969C110.173 22.5426 115.455 28.746 114.78 34.8267C110.665 30.8343 107.348 26.9648 104.031 22.2969Z" fill="#E59E5E"/>
<path d="M140.395 4.78906C137.201 11.1768 134.315 17.0732 131.244 23.5838C129.094 16.3361 133.393 7.61441 140.395 4.78906Z" fill="#E59E5E"/>
<path d="M177.371 50.2422C170.676 56.937 170.86 66.5187 172.887 75.1176C173.501 78.0658 174.361 81.0754 174.791 84.2692C171.044 79.0485 168.219 73.0293 167.973 66.4572C167.666 60.0081 170.86 52.3305 177.371 50.2422Z" fill="#E59E5E"/>
<path d="M226.934 127.689C222.389 122.468 218.212 117.8 213.605 112.641C220.915 113.193 227.179 120.38 226.934 127.689Z" fill="#E59E5E"/>
<path d="M169.263 140.281C168.465 146.3 169.079 152.013 172.089 157.233C173.072 158.892 174.238 160.489 175.651 162.208C166.315 160.366 162.384 146.853 169.263 140.281Z" fill="#E59E5E"/>
<path d="M153.17 22.2969C149.854 26.9648 146.537 30.8343 142.422 34.8267C141.746 28.746 147.028 22.5426 153.17 22.2969Z" fill="#E59E5E"/>
</svg>
