<svg width="141" height="263" viewBox="0 0 141 263" fill="none" xmlns="http://www.w3.org/2000/svg">
<path d="M33.9405 241.596C29.4745 225.184 29.3024 207.658 33.2335 191.122C36.759 176.294 43.7287 162.525 37.5271 147.079C33.6027 137.304 26.5313 128.907 20.5175 120.327C16.6339 114.786 12.9259 108.807 11.0628 102.246C9.95023 98.3274 8.14391 88.235 11.4673 85.0454C12.8795 83.6908 14.9982 83.4676 16.9495 83.3166C31.7668 82.1694 46.8132 80.7801 60.5104 74.5606C72.5063 69.1138 80.486 53.7774 84.5928 41.7009C87.4238 33.3766 88.5632 23.9933 85.0545 15.9311C81.5457 7.86891 72.311 1.91116 63.8667 4.3616C58.3624 5.95869 54.1935 10.7332 52.1012 16.0689C50.0088 21.4047 49.7303 27.2725 49.9032 33.001C49.9828 35.6382 50.1163 38.4367 48.822 40.7358C47.5277 43.0348 44.1818 44.3813 42.1773 42.666C41.1822 41.8145 40.7773 40.4619 40.5991 39.1644C40.2988 36.9732 40.7048 34.3842 42.5893 33.222C49.5143 28.9506 50.2923 40.5551 52.019 44.4902C53.6518 48.2117 55.2553 52.0561 57.6626 55.3599C63.5239 63.4039 73.8263 63.5606 82.5551 61.0588C95.2322 57.4254 129.291 37.3106 134.738 32.9867C135.93 32.0402 137.192 30.8262 137.132 29.3048C137.05 27.2121 134.637 26.1285 132.605 25.6243C125.931 23.969 119.049 23.3592 112.198 22.7686C82.4433 20.2025 52.4796 17.891 22.7566 20.8038C16.9556 21.3722 9.50035 21.3765 5.11005 25.7836C4.10103 26.7965 3.39585 28.2133 3.58009 29.6312C3.76683 31.0654 4.79585 32.2276 5.79416 33.2741C15.2849 43.2244 26.472 50.659 37.5124 58.6605C46.4012 65.1027 55.8209 71.9742 65.7301 76.7711C74.5829 81.0568 83.7876 84.5445 92.8599 88.3242C99.5586 91.1153 107.729 94.4059 103.372 103.416C100.433 109.495 95.8652 112.835 91.677 117.779C84.973 125.692 78.394 133.255 75.6779 143.389C71.7936 157.883 81.0905 168.038 92.138 176.133C100.357 182.155 109.455 187.856 114.171 196.888C119.87 207.806 117.732 221.487 111.773 232.266C105.813 243.044 96.5265 251.528 87.4063 259.805" stroke="black" stroke-width="7" stroke-miterlimit="10"/>
</svg>
