<svg width="256" height="256" viewBox="0 0 256 256" fill="none" xmlns="http://www.w3.org/2000/svg">
<path fill-rule="evenodd" clip-rule="evenodd" d="M127.998 0C163.344 0 195.345 14.328 218.508 37.4897C241.674 60.6533 256 92.6542 256 128C256 163.346 241.674 195.345 218.508 218.509C195.347 241.672 163.346 256 127.998 256C92.6523 256 60.6532 241.672 37.4897 218.509C14.3262 195.345 0 163.346 0 128C0 92.6542 14.3262 60.6533 37.4897 37.4897C60.6532 14.328 92.6523 0 127.998 0ZM214.54 41.4584C192.392 19.3107 161.795 5.61181 127.998 5.61181C94.2028 5.61181 63.6061 19.3125 41.4584 41.4584C19.3089 63.6062 5.61178 94.2028 5.61178 128C5.61178 161.797 19.3107 192.392 41.4584 214.542C63.6044 236.689 94.2028 250.386 127.998 250.386C161.795 250.386 192.392 236.689 214.54 214.542C236.688 192.392 250.386 161.797 250.386 128C250.386 94.2028 236.688 63.6062 214.54 41.4584Z" fill="#355D74"/>
<path fill-rule="evenodd" clip-rule="evenodd" d="M127.159 172.276C128.38 172.477 129.203 173.634 129 174.853C128.797 176.073 127.642 176.897 126.421 176.694C108.504 173.643 96.9383 162.788 89.0312 148.809C81.2756 135.098 77.1073 118.448 73.8817 103.323C73.6233 102.113 74.3985 100.923 75.6086 100.666C76.8204 100.41 78.009 101.183 78.2656 102.395C81.4199 117.188 85.4813 133.435 92.9251 146.6C100.219 159.493 110.821 169.492 127.159 172.276Z" fill="#355D74"/>
<path fill-rule="evenodd" clip-rule="evenodd" d="M126.058 42.264C126.049 41.0272 127.042 40.0186 128.277 40.0079C129.512 39.999 130.52 40.9934 130.531 42.2266C130.855 75.5622 116.893 80.6412 103.192 85.6221C92.7027 89.4376 82.3862 93.187 80.5043 112.831C80.3885 114.061 79.296 114.962 78.0646 114.848C76.835 114.732 75.9332 113.64 76.0491 112.41C78.2001 89.9472 89.8353 85.7165 101.665 81.4146C113.89 76.9683 126.35 72.4382 126.058 42.264Z" fill="#355D74"/>
<path fill-rule="evenodd" clip-rule="evenodd" d="M101.603 46.6588C102.177 46.4289 102.829 46.7069 103.059 47.2825C103.289 47.8546 103.009 48.5086 102.436 48.7367C96.5743 51.0855 84.9301 58.3421 79.1063 72.246C75.4084 81.0726 74.0612 92.5938 78.0299 107.266C78.1903 107.864 77.8339 108.479 77.2369 108.638C76.6381 108.798 76.0233 108.442 75.8647 107.845C71.748 92.6241 73.1684 80.6182 77.0355 71.3852C83.1587 56.7703 95.4266 49.1323 101.603 46.6588Z" fill="#355D74"/>
<path fill-rule="evenodd" clip-rule="evenodd" d="M100.157 48.0133C100.007 47.2595 99.9397 46.5004 99.9414 45.7465C99.9486 42.8756 101.018 40.2114 102.604 38.1655C104.217 36.0876 106.382 34.6245 108.54 34.1968C108.968 34.1131 109.408 34.0703 109.855 34.0703C110.354 34.0703 110.777 34.3982 110.921 34.849C111.063 35.2857 111.163 35.7473 111.224 36.2231C111.518 38.5238 110.858 41.1683 109.456 43.4405C108.057 45.7091 105.91 47.6337 103.224 48.4998C102.641 48.6869 102.034 48.8259 101.396 48.9061C100.808 48.9792 100.269 48.5818 100.157 48.0098V48.0133ZM102.18 45.7483C102.178 45.9853 102.189 46.2277 102.206 46.4701C102.319 46.438 102.433 46.4059 102.542 46.3685C104.684 45.677 106.414 44.1159 107.555 42.2661C108.693 40.4181 109.235 38.3063 109.005 36.5064L108.991 36.3977L108.969 36.4012C107.337 36.7238 105.662 37.8804 104.377 39.5359C103.069 41.2236 102.185 43.4085 102.18 45.7483Z" fill="#355D74"/>
<path fill-rule="evenodd" clip-rule="evenodd" d="M94.7961 52.8328C94.4824 52.9753 94.1706 53.1446 93.8676 53.3353C94.1278 53.6667 94.4058 53.9715 94.6998 54.2531C96.195 55.677 98.0947 56.4646 99.9695 56.6856C101.83 56.9048 103.646 56.568 105 55.7393C105.141 55.652 105.275 55.5593 105.407 55.4649C105.301 55.3098 105.187 55.1566 105.066 55.0087C104.025 53.7363 102.391 52.7722 100.547 52.3338C98.6917 51.89 96.6423 51.9827 94.7961 52.8328ZM96.4712 49.9921C98.0234 49.7248 99.597 49.7996 101.064 50.1507C103.377 50.7032 105.451 51.9417 106.802 53.5883C107.215 54.0927 107.565 54.6469 107.836 55.2403C108.032 55.668 107.935 56.1546 107.629 56.4753C107.201 56.9262 106.708 57.32 106.166 57.6515C104.389 58.7403 102.058 59.1894 99.7146 58.915C97.3872 58.6423 95.0242 57.6551 93.1548 55.8766C92.4972 55.2511 91.9002 54.5257 91.3887 53.7006C91.0484 53.2302 90.7436 52.7329 90.4781 52.2143C89.1148 49.5501 88.8956 46.5153 89.4659 43.8207C90.045 41.0942 91.4458 38.6812 93.308 37.3144C93.5771 37.1183 93.8641 36.9383 94.167 36.778C94.609 36.5106 95.1935 36.5783 95.5624 36.9686C95.8154 37.2377 96.0489 37.53 96.2645 37.8436C97.5922 39.7843 98.1696 42.5626 97.8648 45.3444C97.692 46.9323 97.2375 48.5308 96.4712 49.9921ZM92.5952 51.4285L92.6968 51.3358C94.4432 49.6909 95.3913 47.3903 95.639 45.1074C95.8796 42.8959 95.4697 40.7306 94.4949 39.2247C93.1423 40.2904 92.1141 42.1509 91.6596 44.2823C91.1856 46.5206 91.3584 49.0226 92.4722 51.195C92.5114 51.2734 92.5524 51.3519 92.5952 51.4285Z" fill="#355D74"/>
<path fill-rule="evenodd" clip-rule="evenodd" d="M84.3886 61.16C84.0696 61.3507 83.7577 61.5681 83.4583 61.8105C83.747 62.0992 84.05 62.3647 84.3672 62.6035C86.0032 63.842 87.9688 64.4052 89.8507 64.4034C91.7165 64.4034 93.4844 63.8546 94.7478 62.8708L94.7514 62.8726C94.8922 62.7639 95.0259 62.648 95.1542 62.5269C95.0348 62.3843 94.9047 62.2453 94.7675 62.1117C93.6055 60.9836 91.8947 60.228 90.0289 60.007C88.147 59.7861 86.1315 60.1121 84.3886 61.16ZM85.6967 58.1608C87.2132 57.7099 88.785 57.6012 90.282 57.7776C92.629 58.0557 94.8138 59.0358 96.3268 60.5042C96.8008 60.964 97.2107 61.4754 97.5439 62.0279C97.7845 62.4306 97.7435 62.9243 97.4762 63.2772C97.0966 63.7779 96.6404 64.2323 96.1254 64.6351L96.1236 64.6369L96.1254 64.6404C94.477 65.9235 92.212 66.6381 89.8507 66.6381C87.509 66.6381 85.0587 65.9378 83.0146 64.391C82.3089 63.8563 81.6495 63.2166 81.0579 62.4645C80.6747 62.0493 80.3254 61.6055 80.0136 61.1368C78.3473 58.649 77.7913 55.6392 78.0675 52.8787C78.3473 50.0862 79.4861 47.5093 81.1969 45.9303C81.4446 45.7004 81.7101 45.4902 81.9899 45.2995C82.398 44.9912 82.9807 44.9947 83.3871 45.3387C83.6597 45.5686 83.9181 45.8252 84.1641 46.1103C85.7002 47.8782 86.577 50.5727 86.577 53.3812C86.5752 54.978 86.2954 56.6211 85.6967 58.1608ZM81.9846 60.0569L81.8723 59.8929C80.5161 57.8667 80.0653 55.3914 80.2951 53.0997C80.5143 50.9166 81.343 48.9314 82.5816 47.7071C83.7025 49.0793 84.3387 51.1697 84.3405 53.383C84.3405 55.6873 83.6437 58.093 82.079 59.9464L81.9846 60.0569Z" fill="#355D74"/>
<path fill-rule="evenodd" clip-rule="evenodd" d="M77.0188 72.5401C76.7266 72.8145 76.4504 73.1121 76.1937 73.4364C76.502 73.6307 76.8193 73.8036 77.1418 73.955C78.9916 74.8158 81.0392 74.928 82.8926 74.5057C84.7371 74.0833 86.373 73.1352 87.4173 71.8753C87.5367 71.7292 87.6472 71.5813 87.7523 71.428C87.6187 71.3265 87.4815 71.2338 87.3371 71.1429C85.9827 70.3035 84.165 69.9489 82.3009 70.1503C80.4226 70.3534 78.5194 71.1251 77.0188 72.5401ZM77.6408 69.3287C79.0362 68.5464 80.5563 68.0866 82.0639 67.9227C84.4092 67.6696 86.7401 68.1383 88.5115 69.2397C89.0622 69.58 89.5576 69.9792 89.9853 70.4318C90.3096 70.774 90.372 71.2676 90.1849 71.6704L90.1867 71.6722C89.9176 72.2478 89.5665 72.7967 89.1459 73.3028C87.7916 74.9388 85.7101 76.1541 83.3934 76.687C81.0838 77.2162 78.5212 77.0719 76.1955 75.9866C75.415 75.6248 74.6594 75.1526 73.9483 74.5663C73.5099 74.2562 73.1018 73.9229 72.7258 73.5665C70.5731 71.5171 69.4022 68.7014 69.0993 65.9321C68.7945 63.1502 69.3701 60.3791 70.7085 58.4438C70.917 58.1426 71.1451 57.861 71.3875 57.6026C71.7189 57.2355 72.2696 57.1214 72.7294 57.3585C73.0502 57.526 73.362 57.7202 73.6632 57.943C75.5201 59.3223 76.9244 61.7406 77.5054 64.4654C77.8368 66.023 77.9045 67.6892 77.6408 69.3287ZM74.3778 72.0482L74.4919 71.8326C75.6164 69.6691 75.791 67.1706 75.3152 64.9341C74.8607 62.7938 73.8218 60.9226 72.4638 59.848C71.4908 61.3414 71.0845 63.4924 71.3269 65.6987C71.5764 67.9815 72.5262 70.2893 74.2691 71.9484L74.3778 72.0482Z" fill="#355D74"/>
<path fill-rule="evenodd" clip-rule="evenodd" d="M74.9742 87.4953C74.8976 87.8089 74.8352 88.1243 74.7906 88.4487C74.9778 88.4433 75.1631 88.4309 75.3449 88.4131C77.4976 88.2046 79.4383 87.1157 80.8979 85.6312C82.3556 84.1485 83.3161 82.288 83.5122 80.5238C83.5229 80.424 83.5318 80.3259 83.5389 80.2297L83.3785 80.2226C81.7568 80.1905 79.9409 80.9122 78.3851 82.1793C76.8026 83.4642 75.5106 85.3069 74.9742 87.4953ZM73.9121 84.1093C74.7051 82.6623 75.7708 81.4184 76.9719 80.44C78.9304 78.8451 81.2721 77.9433 83.4141 77.9843C83.9292 77.995 84.4317 78.0556 84.9093 78.175C85.4047 78.2962 85.7398 78.7292 85.7612 79.2139C85.8075 79.7289 85.7986 80.2493 85.7415 80.7679C85.4885 83.024 84.2963 85.3657 82.4946 87.1995C80.6965 89.0314 78.2728 90.3751 75.5569 90.6407C74.878 90.7066 74.1865 90.7066 73.4879 90.63C72.8286 90.6121 72.2031 90.532 71.6114 90.4019C68.8973 89.8049 66.6055 88.1315 65.0106 86.0411C63.4156 83.9525 62.5067 81.4237 62.5566 79.1248C62.5673 78.6027 62.6243 78.1037 62.7259 77.635L62.7277 77.6368C62.8293 77.177 63.2107 76.8134 63.7025 76.7635C64.1587 76.7136 64.6292 76.7154 65.1032 76.7618C67.2685 76.9774 69.5317 78.1964 71.3138 80.0693C72.3884 81.1974 73.2973 82.5714 73.9121 84.1093ZM72.5167 88.2918C72.5114 88.0138 72.4935 87.7358 72.4632 87.465C72.2138 85.175 71.1356 83.1274 69.6903 81.6126C68.2682 80.1192 66.5164 79.1533 64.8805 78.9894L64.7967 78.9805L64.7896 79.1676C64.7504 80.9675 65.4917 82.983 66.7873 84.6813C68.0829 86.3761 69.9256 87.7323 72.0908 88.2081C72.2334 88.2402 72.3759 88.2687 72.5167 88.2918Z" fill="#355D74"/>
<path fill-rule="evenodd" clip-rule="evenodd" d="M80.6067 112.325C80.9453 113.517 80.2539 114.758 79.0635 115.096C77.873 115.437 76.6309 114.745 76.2923 113.555C75.6953 111.479 74.2251 109.217 72.4359 107.572C71.4308 106.649 70.3526 105.949 69.3226 105.641C68.5349 105.405 67.7829 105.42 67.1609 105.792C66.6316 106.109 66.1184 106.689 65.6444 107.592C64.9565 108.9 64.6517 110.702 64.7498 112.719C64.8763 115.31 65.6693 118.178 67.1752 120.787C68.665 123.372 70.857 125.698 73.7885 127.238C76.3422 128.58 79.484 129.332 83.2442 129.148C84.4792 129.089 85.5289 130.045 85.5859 131.278C85.6447 132.513 84.6895 133.561 83.4563 133.619C78.8353 133.844 74.9255 132.894 71.7034 131.201C67.9718 129.241 65.1899 126.29 63.3009 123.012C61.428 119.762 60.4389 116.178 60.2803 112.928C60.1449 110.128 60.6225 107.523 61.6846 105.503C62.5596 103.832 63.6484 102.679 64.8656 101.95C66.6815 100.866 68.6561 100.76 70.6075 101.342C72.3165 101.854 73.9917 102.909 75.4726 104.274C77.8338 106.446 79.7923 109.49 80.6067 112.325Z" fill="#355D74"/>
<path fill-rule="evenodd" clip-rule="evenodd" d="M104.56 166.442C104.507 165.207 105.465 164.163 106.7 164.107C107.935 164.056 108.98 165.013 109.033 166.248C109.564 178.264 108.718 187.681 104.886 195.039C100.971 202.556 94.0976 207.765 82.653 211.147C81.4644 211.497 80.2205 210.816 79.873 209.629C79.5237 208.444 80.2027 207.198 81.3878 206.849C91.5439 203.844 97.5726 199.362 100.903 192.967C104.316 186.416 105.057 177.699 104.56 166.442Z" fill="#355D74"/>
<path fill-rule="evenodd" clip-rule="evenodd" d="M90.0714 150.362C89.8148 149.151 90.59 147.962 91.8 147.705C93.0118 147.449 94.2005 148.222 94.4589 149.434C96.5297 159.129 96.9609 171.215 94.8242 182.716C93.0118 192.486 89.3425 201.863 83.2549 209.08C82.4548 210.023 81.0416 210.143 80.0971 209.342C79.1543 208.542 79.0349 207.129 79.8351 206.185C85.3809 199.61 88.7402 190.966 90.4225 181.911C92.4469 171.01 92.037 159.554 90.0714 150.362Z" fill="#355D74"/>
<path fill-rule="evenodd" clip-rule="evenodd" d="M97.3886 68.9296C96.7934 69.0989 96.1732 68.7532 96.0039 68.1579C95.8346 67.5609 96.1804 66.9408 96.7756 66.7732C103.79 64.7738 108.822 62.1238 112.565 58.8216C116.291 55.5336 118.77 51.5739 120.68 46.9422C120.914 46.372 121.568 46.0993 122.14 46.3345C122.712 46.568 122.985 47.222 122.749 47.7941C120.716 52.7233 118.059 56.9557 114.046 60.4967C110.05 64.0253 104.736 66.8374 97.3886 68.9296Z" fill="#355D74"/>
<path fill-rule="evenodd" clip-rule="evenodd" d="M127.538 17.9632C128.773 18.0416 129.712 19.1055 129.636 20.3404C129.557 21.5754 128.493 22.5146 127.258 22.438C125.138 22.2972 123.092 22.2509 121.123 22.2954C103.295 22.7017 89.0755 30.4074 78.9515 43.5307C68.6867 56.834 62.5635 75.7116 61.0683 98.2478C60.7404 103.197 60.6317 108.292 60.7511 113.508C60.8152 116.254 61.0131 119.695 61.2376 123.518C62.8272 150.773 65.5289 197.098 29.2136 206.034C28.0124 206.329 26.7988 205.595 26.503 204.394C26.2072 203.193 26.9414 201.981 28.1425 201.684C60.8384 193.637 58.2722 149.645 56.7646 123.762C56.5436 119.993 56.3458 116.602 56.2781 113.595C56.1551 108.195 56.262 102.979 56.5935 97.9663C58.1493 74.5372 64.5915 54.8113 75.407 40.7935C86.3614 26.5956 101.743 18.2608 121.035 17.8188C123.186 17.7707 125.355 17.8188 127.538 17.9632Z" fill="#355D74"/>
<path fill-rule="evenodd" clip-rule="evenodd" d="M58.0955 84.431C58.3325 83.2138 59.5105 82.4208 60.7259 82.6596C61.9413 82.8966 62.7343 84.0746 62.499 85.2918C59.5996 99.9173 56.4471 113.982 53.2073 126.813C49.9763 139.622 46.6474 151.224 43.3951 160.952C41.4099 166.888 39.0611 173.084 35.5486 178.295C31.9024 183.706 27.0409 188.032 20.1282 189.93C18.9378 190.255 17.7081 189.551 17.3838 188.359C17.0595 187.168 17.7616 185.94 18.9538 185.614C24.6565 184.049 28.7303 180.387 31.8294 175.786C35.0639 170.987 37.2719 165.145 39.1502 159.528C42.3437 149.972 45.637 138.48 48.8554 125.72C52.0739 112.98 55.2085 98.9942 58.0955 84.431Z" fill="#355D74"/>
<path fill-rule="evenodd" clip-rule="evenodd" d="M71.59 130.173C71.4349 128.947 72.3028 127.83 73.5289 127.675C74.7532 127.518 75.8723 128.386 76.0273 129.612C76.2501 131.363 76.5085 133.322 76.758 135.198C78.77 150.378 80.0727 160.192 75.8777 179.494C73.6803 189.602 68.8669 198.213 63.4405 204.816C56.0502 213.81 47.3269 219.156 42.3869 219.582C41.152 219.689 40.0649 218.773 39.958 217.54C39.8493 216.305 40.767 215.216 42.0002 215.111C45.9832 214.769 53.3753 210.019 59.985 201.975C65.0052 195.866 69.4604 187.898 71.4919 178.548C75.5284 159.975 74.2684 150.475 72.3188 135.779C72.0961 134.088 71.8626 132.333 71.59 130.173Z" fill="#355D74"/>
<path fill-rule="evenodd" clip-rule="evenodd" d="M7.12641 146.7C6.76821 147.882 5.52075 148.548 4.33745 148.19C3.15414 147.832 2.48765 146.584 2.84763 145.403C7.11394 131.387 17.1595 128.174 27.7255 124.793C39.0489 121.172 51.0423 117.335 55.4565 97.3043C55.7221 96.0996 56.9161 95.3369 58.1225 95.6042C59.329 95.8697 60.09 97.0637 59.8244 98.2702C54.856 120.808 41.5973 125.05 29.0763 129.054C19.6616 132.067 10.7102 134.929 7.12641 146.7Z" fill="#355D74"/>
<path fill-rule="evenodd" clip-rule="evenodd" d="M13.492 168.974C13.2211 170.18 12.0218 170.939 10.8171 170.667C9.61059 170.396 8.85321 169.198 9.12587 167.992C11.8756 155.89 19.2445 153.241 27.321 150.337C34.5206 147.749 42.3653 144.926 47.0629 133.275C47.5227 132.126 48.8271 131.568 49.9748 132.029C51.1225 132.489 51.6821 133.792 51.2205 134.941C45.7727 148.455 36.9371 151.632 28.8304 154.548C21.9604 157.016 15.6964 159.268 13.492 168.974Z" fill="#355D74"/>
<path fill-rule="evenodd" clip-rule="evenodd" d="M128.579 176.685C127.364 176.907 126.199 176.104 125.974 174.887C125.753 173.671 126.557 172.506 127.772 172.281L127.89 172.26C129.105 172.037 130.271 172.841 130.493 174.058C130.716 175.273 129.912 176.44 128.697 176.663L128.579 176.685Z" fill="#355D74"/>
<path fill-rule="evenodd" clip-rule="evenodd" d="M127.704 22.4416C126.471 22.5182 125.407 21.5808 125.329 20.3441C125.252 19.1091 126.189 18.0452 127.426 17.9668L128.171 17.9294C129.404 17.8599 130.463 18.8062 130.529 20.0429C130.598 21.2779 129.65 22.3347 128.415 22.4024L128.1 22.4167C128.02 22.4202 127.936 22.4255 127.704 22.4416Z" fill="#355D74"/>
<path fill-rule="evenodd" clip-rule="evenodd" d="M79.3525 215.635C78.8928 214.489 79.4506 213.185 80.5982 212.723C81.7477 212.264 83.0504 212.823 83.5101 213.969C86.4452 221.247 92.3849 227.823 99.8091 233.317C108.324 239.617 118.76 244.462 128.9 247.317C130.092 247.652 130.785 248.889 130.452 250.079C130.117 251.272 128.882 251.967 127.69 251.632C117.069 248.64 106.112 243.546 97.1449 236.91C89.0952 230.958 82.6227 223.74 79.3525 215.635Z" fill="#355D74"/>
<path fill-rule="evenodd" clip-rule="evenodd" d="M73.7656 200.652C76.6811 200.652 79.3132 201.893 81.2147 203.901C83.0895 205.881 84.2496 208.604 84.2496 211.594C84.2496 214.588 83.0895 217.31 81.2147 219.289C79.3132 221.296 76.6811 222.538 73.7656 222.538C70.8537 222.538 68.2198 221.296 66.3201 219.289C64.4453 217.31 63.2852 214.586 63.2852 211.594C63.2852 208.602 64.4453 205.881 66.3201 203.901C68.2198 201.894 70.8537 200.652 73.7656 200.652ZM77.9695 206.989C76.8896 205.847 75.4033 205.143 73.7674 205.143C72.1314 205.143 70.6452 205.849 69.567 206.989C68.4621 208.157 67.776 209.784 67.776 211.596C67.776 213.408 68.4621 215.037 69.567 216.205C70.6469 217.345 72.1332 218.051 73.7674 218.051C75.4033 218.051 76.8896 217.345 77.9695 216.205C79.0762 215.037 79.7588 213.408 79.7588 211.596C79.7588 209.784 79.0744 208.157 77.9695 206.989Z" fill="#355D74"/>
<path fill-rule="evenodd" clip-rule="evenodd" d="M65.1721 212.488C66.3144 212.02 67.6225 212.565 68.0929 213.709C68.5634 214.853 68.0181 216.159 66.874 216.63C63.4702 218.027 61.485 219.713 60.4532 221.449C59.7902 222.562 59.5193 223.705 59.5087 224.794C59.4997 225.936 59.767 227.05 60.1734 228.039C60.8506 229.691 61.8271 230.904 62.5293 231.323C63.595 231.952 63.9478 233.328 63.3187 234.394C62.6897 235.461 61.3139 235.812 60.25 235.183C58.8689 234.362 57.0904 232.316 56.0336 229.741C55.4205 228.249 55.0196 226.547 55.0356 224.758C55.0517 222.915 55.5007 221.007 56.5932 219.166C58.0865 216.658 60.7615 214.301 65.1721 212.488Z" fill="#355D74"/>
<path fill-rule="evenodd" clip-rule="evenodd" d="M75.6576 218.595C75.458 218.008 75.7734 217.372 76.3597 217.173C76.9442 216.975 77.5805 217.288 77.7783 217.876C77.7907 217.912 81.9697 230.625 94.0131 238.513C94.5316 238.852 94.6778 239.547 94.3374 240.065C93.9988 240.584 93.302 240.73 92.7852 240.391C80.0878 232.072 75.6701 218.632 75.6576 218.595Z" fill="#355D74"/>
<path fill-rule="evenodd" clip-rule="evenodd" d="M69.8469 218.44C70.419 218.204 71.073 218.479 71.3065 219.049C71.5417 219.621 71.2691 220.275 70.697 220.51C70.6863 220.514 67.14 221.94 67.14 226.058C67.14 226.678 66.6374 227.183 66.0173 227.183C65.3971 227.183 64.8945 226.678 64.8945 226.058C64.8963 220.432 69.8327 218.447 69.8469 218.44Z" fill="#355D74"/>
<path fill-rule="evenodd" clip-rule="evenodd" d="M72.744 219.845C72.9935 219.278 73.6546 219.022 74.2213 219.271C74.788 219.521 75.0446 220.184 74.7952 220.749C74.7898 220.761 72.9008 224.972 74.2088 230.529C74.3496 231.131 73.9736 231.735 73.3695 231.874C72.7672 232.015 72.163 231.639 72.024 231.036C70.5449 224.749 72.7386 219.859 72.744 219.845Z" fill="#355D74"/>
<path fill-rule="evenodd" clip-rule="evenodd" d="M75.6979 208.515C75.2773 208.062 75.3023 207.355 75.7567 206.932C76.2076 206.512 76.9169 206.537 77.3392 206.989C77.3517 207.002 81.8514 211.732 77.3356 216.208C76.8973 216.645 76.188 216.643 75.7514 216.205C75.3148 215.766 75.3183 215.059 75.7549 214.62C78.715 211.687 75.7068 208.524 75.6979 208.515Z" fill="#355D74"/>
<path fill-rule="evenodd" clip-rule="evenodd" d="M130.158 176.695C128.938 176.898 127.783 176.073 127.582 174.854C127.378 173.633 128.202 172.479 129.422 172.277C145.759 169.495 156.362 159.494 163.656 146.599C171.1 133.435 175.161 117.188 178.316 102.394C178.572 101.183 179.763 100.411 180.973 100.666C182.183 100.924 182.958 102.115 182.7 103.323C179.476 118.447 175.306 135.098 167.552 148.809C159.641 162.789 148.077 173.644 130.158 176.695Z" fill="#355D74"/>
<path fill-rule="evenodd" clip-rule="evenodd" d="M126.06 42.2305C126.069 40.9973 127.08 40.0029 128.315 40.0118C129.548 40.0225 130.544 41.0293 130.533 42.2679C130.241 72.4421 142.698 76.9722 154.925 81.4185C166.752 85.7186 178.388 89.9493 180.539 112.414C180.654 113.644 179.753 114.736 178.521 114.852C177.292 114.966 176.199 114.066 176.083 112.835C174.202 93.1927 163.885 89.4414 153.399 85.626C139.695 80.645 125.734 75.5661 126.06 42.2305Z" fill="#355D74"/>
<path fill-rule="evenodd" clip-rule="evenodd" d="M154.146 48.7358C153.572 48.5059 153.292 47.8536 153.522 47.2816C153.752 46.7077 154.404 46.4297 154.978 46.6578C161.156 49.1314 173.422 56.7694 179.544 71.386C183.411 80.619 184.831 92.6249 180.715 107.846C180.556 108.443 179.939 108.799 179.341 108.639C178.744 108.478 178.389 107.864 178.548 107.267C182.516 92.5946 181.171 81.0735 177.473 72.2468C171.649 58.3412 160.007 51.0863 154.146 48.7358Z" fill="#355D74"/>
<path fill-rule="evenodd" clip-rule="evenodd" d="M154.369 46.4704C154.389 46.2263 154.398 45.9857 154.398 45.7487C154.39 43.4088 153.507 41.2239 152.198 39.5363C150.914 37.8808 149.238 36.7242 147.604 36.4016L147.585 36.3981L147.57 36.5068C147.341 38.3085 147.882 40.4185 149.021 42.2665C150.162 44.1163 151.892 45.6774 154.034 46.3688C154.146 46.4063 154.259 46.4384 154.369 46.4704ZM156.634 45.7487C156.636 46.5025 156.568 47.2616 156.418 48.0155L156.417 48.0137C156.304 48.5858 155.766 48.9832 155.18 48.9101C154.544 48.8281 153.932 48.6909 153.352 48.5038C150.666 47.6377 148.517 45.7148 147.118 43.4444C145.717 41.174 145.056 38.5277 145.35 36.227C145.411 35.7494 145.512 35.2896 145.653 34.8512C145.797 34.4021 146.22 34.0742 146.719 34.0742C147.166 34.0742 147.606 34.117 148.036 34.2008C150.192 34.6267 152.357 36.0898 153.97 38.1695C155.556 40.2117 156.625 42.876 156.634 45.7487Z" fill="#355D74"/>
<path fill-rule="evenodd" clip-rule="evenodd" d="M162.71 53.3384C162.406 53.1477 162.095 52.9784 161.782 52.8358C159.934 51.984 157.886 51.8931 156.031 52.3369C154.187 52.7752 152.552 53.7393 151.513 55.0117C151.39 55.1596 151.276 55.3129 151.173 55.468C151.303 55.5642 151.437 55.6551 151.578 55.7424C152.93 56.5711 154.748 56.9079 156.607 56.6887C158.483 56.4677 160.383 55.68 161.878 54.2562C162.172 53.9746 162.45 53.668 162.71 53.3384ZM155.512 50.1502C156.981 49.7991 158.553 49.7243 160.105 49.9916C159.34 48.5321 158.882 46.9318 158.711 45.3457C158.408 42.5639 158.984 39.7856 160.313 37.8449C160.525 37.5313 160.761 37.239 161.014 36.9699C161.383 36.5779 161.967 36.5101 162.407 36.7792C162.712 36.9396 162.997 37.1178 163.266 37.3156C165.13 38.6843 166.531 41.0954 167.108 43.822C167.681 46.5165 167.461 49.5514 166.096 52.2156C165.831 52.7342 165.528 53.2314 165.186 53.7019C164.674 54.527 164.079 55.2523 163.421 55.8779C161.552 57.6564 159.189 58.6436 156.86 58.9163C154.516 59.1907 152.187 58.7416 150.41 57.6528C149.867 57.3213 149.375 56.9275 148.944 56.4766C148.639 56.1541 148.543 55.6693 148.739 55.2416C149.011 54.6482 149.361 54.0939 149.774 53.5896C151.123 51.9412 153.198 50.7026 155.512 50.1502ZM163.881 51.3371L163.981 51.4298C164.024 51.3531 164.065 51.2747 164.106 51.1963C165.218 49.0239 165.391 46.5219 164.917 44.2836C164.466 42.1522 163.434 40.2917 162.083 39.226C161.11 40.7319 160.698 42.8972 160.939 45.1087C161.187 47.3934 162.135 49.694 163.881 51.3371Z" fill="#355D74"/>
<path fill-rule="evenodd" clip-rule="evenodd" d="M173.121 61.8087C172.82 61.5663 172.51 61.3489 172.191 61.1582C170.447 60.1103 168.431 59.7825 166.551 60.0035C164.687 60.2244 162.974 60.98 161.814 62.1081C161.675 62.2418 161.547 62.3808 161.426 62.5233C161.552 62.6445 161.688 62.7603 161.83 62.8691L161.832 62.8673C163.097 63.8528 164.865 64.3998 166.729 64.3998C168.611 64.4016 170.58 63.8403 172.214 62.6C172.53 62.3629 172.835 62.0992 173.121 61.8087ZM166.298 57.7776C167.795 57.6012 169.367 57.7099 170.883 58.1608C170.283 56.6211 170.003 54.978 170.003 53.3812C170.003 50.5727 170.88 47.8781 172.416 46.1103C172.662 45.8269 172.92 45.5686 173.193 45.3387C173.601 44.9947 174.18 44.9912 174.59 45.2995C174.872 45.4902 175.137 45.7022 175.383 45.9303C177.094 47.511 178.233 50.0861 178.512 52.8787C178.789 55.6391 178.233 58.6473 176.568 61.1368C176.254 61.6055 175.907 62.051 175.524 62.4645C174.932 63.2165 174.271 63.8563 173.565 64.391C171.523 65.9378 169.073 66.6381 166.729 66.6381C164.368 66.6381 162.103 65.9235 160.454 64.6404L160.458 64.6369L160.454 64.6351C159.939 64.2323 159.485 63.7797 159.104 63.2772H159.105C158.838 62.9243 158.797 62.4289 159.038 62.0279C159.371 61.4737 159.781 60.9622 160.255 60.5042C161.766 59.0358 163.949 58.0557 166.298 57.7776ZM174.499 59.9429C172.934 58.0913 172.239 55.6837 172.239 53.3794C172.239 51.1661 172.877 49.0775 173.997 47.7035C175.237 48.9296 176.066 50.913 176.285 53.0961C176.513 55.3861 176.064 57.8632 174.706 59.8894L174.593 60.0533L174.499 59.9429Z" fill="#355D74"/>
<path fill-rule="evenodd" clip-rule="evenodd" d="M180.383 73.4354C180.126 73.1111 179.85 72.8135 179.557 72.5391C178.057 71.1241 176.155 70.3524 174.277 70.1493C172.415 69.9479 170.595 70.3025 169.241 71.1419C169.097 71.2328 168.959 71.3255 168.826 71.427C168.929 71.5803 169.04 71.7282 169.161 71.8743C170.203 73.1342 171.841 74.0805 173.685 74.5047C175.539 74.927 177.586 74.8166 179.436 73.954C179.759 73.8026 180.074 73.6297 180.383 73.4354ZM174.514 67.9217C176.02 68.0856 177.542 68.5472 178.937 69.3277C178.672 67.6882 178.739 66.022 179.069 64.4662C179.65 61.7414 181.054 59.3231 182.911 57.9438C183.213 57.721 183.524 57.5268 183.845 57.3592C184.307 57.1204 184.857 57.2363 185.189 57.6034C185.431 57.8618 185.658 58.1434 185.866 58.4446C187.204 60.3799 187.782 63.151 187.477 65.9329C187.174 68.704 186.003 71.5179 183.85 73.5673C183.474 73.9237 183.068 74.2588 182.628 74.5671C181.917 75.1534 181.161 75.6256 180.381 75.9874C178.053 77.0709 175.493 77.217 173.183 76.6877C170.864 76.1549 168.785 74.9377 167.43 73.3035C167.01 72.7974 166.659 72.2486 166.39 71.673L166.393 71.6712C166.206 71.2684 166.27 70.7748 166.593 70.4326C167.019 69.98 167.516 69.5808 168.065 69.2404C169.84 68.1373 172.169 67.6686 174.514 67.9217ZM182.086 71.8298C182.124 71.9028 182.161 71.9741 182.2 72.0454L182.307 71.9438C184.05 70.2847 185.002 67.9769 185.251 65.6941C185.494 63.4878 185.085 61.3369 184.112 59.8435C182.755 60.9181 181.717 62.7893 181.261 64.9296C180.787 67.1679 180.962 69.6663 182.086 71.8298Z" fill="#355D74"/>
<path fill-rule="evenodd" clip-rule="evenodd" d="M181.794 88.4426C181.749 88.1183 181.687 87.8029 181.61 87.4892C181.072 85.3008 179.78 83.4581 178.197 82.1733C176.64 80.9062 174.824 80.1862 173.204 80.2165L173.044 80.2237C173.051 80.3199 173.06 80.4179 173.07 80.5177C173.268 82.282 174.229 84.1425 175.687 85.6252C177.144 87.1114 179.087 88.1985 181.24 88.407C181.421 88.4248 181.605 88.4373 181.794 88.4426ZM179.611 80.434C180.814 81.4123 181.879 82.6562 182.672 84.1033C183.285 82.5653 184.196 81.1913 185.271 80.0615C187.051 78.1885 189.316 76.9714 191.481 76.754C191.957 76.7076 192.426 76.7058 192.882 76.7557C193.374 76.8056 193.757 77.1692 193.857 77.629L193.858 77.6272C193.962 78.0959 194.017 78.5948 194.03 79.117C194.079 81.4159 193.171 83.9447 191.574 86.0333C189.979 88.1237 187.689 89.797 184.975 90.394C184.381 90.5241 183.756 90.6043 183.098 90.6221C182.4 90.6987 181.708 90.6988 181.029 90.6328C178.313 90.3691 175.891 89.0254 174.09 87.1916C172.288 85.3579 171.094 83.0144 170.843 80.7601C170.784 80.2415 170.777 79.7211 170.823 79.2061C170.845 78.7231 171.181 78.2883 171.677 78.1672C172.154 78.0495 172.655 77.9872 173.17 77.9765C175.312 77.9373 177.652 78.8408 179.611 80.434ZM184.119 87.4589C184.091 87.7298 184.071 88.0078 184.066 88.2858C184.208 88.2626 184.349 88.2377 184.492 88.2038C186.655 87.728 188.5 86.3718 189.795 84.6771C191.091 82.9788 191.832 80.9632 191.793 79.1633L191.786 78.9762L191.702 78.9851C190.068 79.1491 188.316 80.115 186.894 81.6084C185.447 83.1214 184.369 85.1689 184.119 87.4589Z" fill="#355D74"/>
<path fill-rule="evenodd" clip-rule="evenodd" d="M180.288 113.555C179.951 114.746 178.709 115.439 177.517 115.097C176.325 114.76 175.635 113.518 175.972 112.326C176.788 109.49 178.745 106.447 181.108 104.274C182.592 102.909 184.266 101.856 185.975 101.343C187.924 100.76 189.901 100.865 191.715 101.95C192.934 102.679 194.021 103.834 194.898 105.504C196.02 107.641 196.493 110.435 196.273 113.415C196.038 116.619 195.012 120.105 193.144 123.255C191.26 126.431 188.523 129.284 184.877 131.2C181.489 132.98 177.348 133.941 172.427 133.579C171.192 133.492 170.262 132.421 170.349 131.184C170.437 129.949 171.51 129.019 172.743 129.106C176.772 129.402 180.106 128.644 182.79 127.236C185.643 125.736 187.796 123.487 189.286 120.974C190.788 118.437 191.613 115.648 191.802 113.097C191.963 110.923 191.665 108.975 190.934 107.587C190.46 106.684 189.947 106.104 189.418 105.787C188.796 105.415 188.046 105.401 187.256 105.636C186.226 105.944 185.15 106.644 184.145 107.568C182.355 109.218 180.887 111.477 180.288 113.555Z" fill="#355D74"/>
<path fill-rule="evenodd" clip-rule="evenodd" d="M147.551 166.248C147.604 165.013 148.648 164.056 149.883 164.107C151.12 164.161 152.077 165.205 152.024 166.442C151.525 177.698 152.266 186.416 155.68 192.97C159.011 199.366 165.038 203.848 175.194 206.853C176.381 207.2 177.06 208.448 176.713 209.633C176.365 210.819 175.118 211.5 173.932 211.151C162.488 207.769 155.614 202.56 151.699 195.043C147.866 187.681 147.018 178.264 147.551 166.248Z" fill="#355D74"/>
<path fill-rule="evenodd" clip-rule="evenodd" d="M162.126 149.434C162.383 148.222 163.573 147.45 164.785 147.705C165.995 147.963 166.769 149.15 166.512 150.362C164.548 159.554 164.138 171.007 166.163 181.908C167.843 190.963 171.204 199.61 176.75 206.182C177.549 207.127 177.431 208.54 176.486 209.34C175.544 210.138 174.129 210.021 173.33 209.078C167.241 201.861 163.573 192.482 161.759 182.714C159.624 171.214 160.056 159.13 162.126 149.434Z" fill="#355D74"/>
<path fill-rule="evenodd" clip-rule="evenodd" d="M159.805 66.7793C160.402 66.9486 160.746 67.567 160.577 68.164C160.408 68.7592 159.788 69.1031 159.192 68.9356C151.845 66.8417 146.533 64.0296 142.534 60.5046C138.52 56.9636 135.865 52.7311 133.83 47.8019C133.596 47.2298 133.867 46.5758 134.441 46.3423C135.011 46.1071 135.665 46.3798 135.901 46.95C137.809 51.5817 140.288 55.5415 144.014 58.8294C147.759 62.1281 152.791 64.778 159.805 66.7793Z" fill="#355D74"/>
<path fill-rule="evenodd" clip-rule="evenodd" d="M129.327 22.4372C128.092 22.5139 127.028 21.5765 126.95 20.3397C126.871 19.1047 127.812 18.0409 129.046 17.9625C131.23 17.8181 133.397 17.77 135.55 17.8199C154.841 18.2618 170.222 26.5966 181.177 40.7945C191.994 54.8124 198.436 74.5383 199.99 97.9673C200.324 102.98 200.431 108.197 200.308 113.596C200.24 116.603 200.042 119.994 199.821 123.763C198.312 149.646 195.747 193.639 228.443 201.685C229.644 201.98 230.378 203.194 230.083 204.395C229.787 205.596 228.573 206.331 227.372 206.035C191.057 197.099 193.76 150.774 195.35 123.519C195.571 119.696 195.772 116.255 195.835 113.509C195.954 108.293 195.845 103.201 195.517 98.2525C194.022 75.7127 187.899 56.8368 177.634 43.5336C167.508 30.4103 153.291 22.7046 135.463 22.2982C133.492 22.2483 131.448 22.2947 129.327 22.4372Z" fill="#355D74"/>
<path fill-rule="evenodd" clip-rule="evenodd" d="M194.081 85.2917C193.843 84.0745 194.637 82.8966 195.853 82.6596C197.068 82.4208 198.246 83.2156 198.485 84.4309C201.372 98.9941 204.507 112.98 207.723 125.722C210.944 138.482 214.235 149.972 217.43 159.53C219.309 165.147 221.517 170.989 224.751 175.788C227.85 180.387 231.924 184.051 237.627 185.616C238.819 185.942 239.521 187.17 239.197 188.36C238.872 189.553 237.643 190.256 236.452 189.932C229.54 188.034 224.678 183.707 221.032 178.297C217.519 173.084 215.171 166.89 213.185 160.954C209.933 151.225 206.606 139.62 203.373 126.812C200.133 113.98 196.981 99.9173 194.081 85.2917Z" fill="#355D74"/>
<path fill-rule="evenodd" clip-rule="evenodd" d="M180.553 129.612C180.708 128.386 181.826 127.518 183.052 127.675C184.278 127.83 185.144 128.949 184.989 130.173C184.716 132.329 184.483 134.09 184.258 135.778C182.309 150.473 181.049 159.975 185.085 178.546C187.117 187.897 191.572 195.866 196.592 201.973C203.202 210.019 210.594 214.767 214.577 215.109C215.812 215.216 216.728 216.303 216.621 217.538C216.514 218.771 215.427 219.687 214.19 219.58C209.252 219.154 200.527 213.808 193.136 204.814C187.712 198.211 182.897 189.6 180.699 179.492C176.506 160.19 177.807 150.375 179.821 135.199C180.07 133.324 180.329 131.369 180.553 129.612Z" fill="#355D74"/>
<path fill-rule="evenodd" clip-rule="evenodd" d="M253.733 145.408C254.091 146.59 253.424 147.837 252.241 148.195C251.06 148.554 249.81 147.887 249.452 146.706C245.87 134.935 236.919 132.073 227.504 129.061C214.983 125.057 201.724 120.815 196.756 98.2774C196.49 97.071 197.251 95.877 198.458 95.6114C199.664 95.3459 200.858 96.1069 201.124 97.3116C205.54 117.342 217.53 121.179 228.855 124.8C239.419 128.179 249.466 131.39 253.733 145.408Z" fill="#355D74"/>
<path fill-rule="evenodd" clip-rule="evenodd" d="M247.459 167.993C247.73 169.2 246.972 170.397 245.766 170.668C244.559 170.939 243.364 170.182 243.091 168.975C240.885 159.27 234.621 157.017 227.754 154.547C219.648 151.632 210.81 148.455 205.364 134.941C204.904 133.792 205.462 132.489 206.61 132.029C207.758 131.567 209.062 132.127 209.52 133.275C214.216 144.926 222.064 147.749 229.262 150.336C237.338 153.243 244.707 155.891 247.459 167.993Z" fill="#355D74"/>
<path fill-rule="evenodd" clip-rule="evenodd" d="M128.815 172.289C130.03 172.514 130.836 173.679 130.613 174.894C130.39 176.112 129.225 176.915 128.007 176.692L127.89 176.671C126.674 176.448 125.869 175.281 126.092 174.066C126.314 172.849 127.48 172.045 128.697 172.268L128.815 172.289Z" fill="#355D74"/>
<path fill-rule="evenodd" clip-rule="evenodd" d="M129.161 17.9668C130.396 18.0452 131.335 19.1091 131.258 20.3441C131.18 21.579 130.116 22.5182 128.881 22.4416C128.649 22.4255 128.569 22.4202 128.487 22.4167L128.172 22.4024C126.937 22.3346 125.989 21.2779 126.058 20.0429C126.126 18.8079 127.181 17.8599 128.418 17.9294L129.161 17.9668Z" fill="#355D74"/>
<path fill-rule="evenodd" clip-rule="evenodd" d="M173.075 213.969C173.534 212.822 174.839 212.264 175.985 212.724C177.134 213.185 177.69 214.488 177.231 215.636C173.962 223.74 167.488 230.96 159.44 236.914C150.473 243.55 139.516 248.643 128.895 251.635C127.703 251.97 126.466 251.275 126.131 250.083C125.796 248.893 126.491 247.656 127.683 247.321C137.823 244.466 148.259 239.621 156.772 233.321C164.2 227.825 170.138 221.247 173.075 213.969Z" fill="#355D74"/>
<path fill-rule="evenodd" clip-rule="evenodd" d="M182.812 205.141C181.178 205.141 179.69 205.847 178.61 206.988C177.505 208.155 176.821 209.782 176.821 211.594C176.821 213.407 177.505 215.036 178.61 216.203C179.692 217.343 181.178 218.049 182.812 218.049C184.448 218.049 185.934 217.343 187.013 216.203C188.119 215.036 188.803 213.407 188.803 211.594C188.803 209.782 188.119 208.155 187.013 206.988C185.934 205.847 184.448 205.141 182.812 205.141ZM175.363 203.901C177.265 201.893 179.898 200.652 182.81 200.652C185.724 200.652 188.356 201.893 190.258 203.901C192.132 205.881 193.294 208.604 193.294 211.594C193.294 214.588 192.134 217.309 190.258 219.289C188.356 221.296 185.724 222.538 182.81 222.538C179.897 222.538 177.265 221.296 175.363 219.289C173.486 217.309 172.328 214.586 172.328 211.594C172.33 208.602 173.488 205.881 175.363 203.901Z" fill="#355D74"/>
<path fill-rule="evenodd" clip-rule="evenodd" d="M189.712 216.621C188.568 216.151 188.023 214.845 188.493 213.7C188.962 212.556 190.27 212.013 191.414 212.48C195.835 214.297 198.523 216.671 200.027 219.2C201.139 221.073 201.595 223.019 201.613 224.892C201.629 226.715 201.223 228.445 200.602 229.955C199.564 232.487 197.837 234.496 196.472 235.306C195.406 235.937 194.032 235.583 193.403 234.519C192.772 233.451 193.127 232.077 194.191 231.448C194.868 231.044 195.8 229.866 196.463 228.255C196.876 227.244 197.149 226.102 197.14 224.928C197.129 223.805 196.849 222.627 196.167 221.481C195.123 219.727 193.125 218.024 189.712 216.621Z" fill="#355D74"/>
<path fill-rule="evenodd" clip-rule="evenodd" d="M179.068 218.696C179.259 218.108 179.891 217.785 180.479 217.978C181.068 218.168 181.39 218.801 181.198 219.389C181.187 219.426 177.193 232.067 164.66 240.134C164.139 240.469 163.446 240.318 163.111 239.796C162.776 239.277 162.929 238.582 163.45 238.249C175.302 230.618 179.056 218.73 179.068 218.696Z" fill="#355D74"/>
<path fill-rule="evenodd" clip-rule="evenodd" d="M185.886 220.51C185.314 220.273 185.041 219.621 185.275 219.049C185.51 218.479 186.164 218.204 186.734 218.44C186.749 218.447 191.687 220.432 191.687 226.058C191.687 226.678 191.184 227.183 190.564 227.183C189.944 227.183 189.441 226.678 189.441 226.058C189.441 221.94 185.897 220.514 185.886 220.51Z" fill="#355D74"/>
<path fill-rule="evenodd" clip-rule="evenodd" d="M181.788 220.743C181.542 220.177 181.801 219.517 182.368 219.27C182.936 219.022 183.594 219.282 183.841 219.849C183.848 219.861 185.955 224.561 184.645 230.662C184.517 231.268 183.92 231.655 183.316 231.525C182.711 231.397 182.325 230.801 182.453 230.197C183.608 224.799 181.792 220.756 181.788 220.743Z" fill="#355D74"/>
<path fill-rule="evenodd" clip-rule="evenodd" d="M179.242 206.99C179.662 206.538 180.371 206.511 180.824 206.933C181.277 207.354 181.302 208.063 180.881 208.516C180.874 208.526 177.864 211.688 180.824 214.623C181.262 215.06 181.264 215.769 180.828 216.207C180.393 216.646 179.683 216.647 179.245 216.211C174.729 211.732 179.229 207.003 179.242 206.99Z" fill="#355D74"/>
<path fill-rule="evenodd" clip-rule="evenodd" d="M125.472 130.672C126.067 130.838 126.415 131.456 126.249 132.052C126.082 132.649 125.463 132.994 124.868 132.827L120.217 131.512C119.721 131.373 119.399 130.924 119.399 130.433L119.397 103.964C118.474 102.628 112.778 95.975 92.5126 99.3681C91.9014 99.4697 91.3257 99.0563 91.2224 98.4451C91.1208 97.8356 91.5342 97.2581 92.1437 97.1566C115.019 93.3269 120.94 102.166 121.457 103.029C121.573 103.205 121.641 103.415 121.641 103.643V129.587L125.472 130.672Z" fill="#355D74"/>
<path fill-rule="evenodd" clip-rule="evenodd" d="M136.458 104.192C136.155 104.732 135.472 104.925 134.932 104.622C134.392 104.319 134.2 103.636 134.503 103.095C134.519 103.066 139.856 93.1382 163.856 97.1568C164.467 97.2584 164.878 97.8357 164.777 98.4452C164.675 99.0565 164.098 99.4681 163.487 99.3683C141.056 95.6117 136.474 104.167 136.458 104.192Z" fill="#355D74"/>
<path fill-rule="evenodd" clip-rule="evenodd" d="M111.726 110.722C111.978 110.157 112.641 109.904 113.204 110.157C113.767 110.408 114.022 111.069 113.769 111.634C113.175 112.96 111.83 114.084 110.021 114.847C108.369 115.546 106.302 115.963 104.076 115.963C101.848 115.963 99.7828 115.546 98.129 114.847C96.322 114.084 94.9765 112.96 94.3831 111.634C94.13 111.069 94.3848 110.406 94.948 110.157C95.5111 109.904 96.174 110.157 96.4253 110.722C96.7817 111.516 97.7066 112.242 98.9969 112.785C100.378 113.368 102.139 113.716 104.076 113.716C106.009 113.716 107.772 113.368 109.153 112.785C110.443 112.24 111.37 111.516 111.726 110.722Z" fill="#355D74"/>
<path fill-rule="evenodd" clip-rule="evenodd" d="M157.308 110.722C157.56 110.157 158.221 109.904 158.786 110.157C159.351 110.408 159.604 111.069 159.351 111.634C158.757 112.96 157.413 114.084 155.605 114.847C153.951 115.546 151.884 115.963 149.658 115.963C147.432 115.963 145.365 115.546 143.711 114.847C141.904 114.084 140.56 112.96 139.965 111.634C139.712 111.069 139.967 110.406 140.53 110.157C141.095 109.904 141.756 110.157 142.007 110.722C142.364 111.516 143.289 112.242 144.579 112.785C145.96 113.368 147.722 113.716 149.658 113.716C151.591 113.716 153.354 113.368 154.735 112.785C156.027 112.24 156.952 111.516 157.308 110.722Z" fill="#355D74"/>
<path fill-rule="evenodd" clip-rule="evenodd" d="M127.074 146.096C126.67 145.802 126.331 145.511 126.021 145.246C125.312 144.636 124.827 144.223 123.909 144.597C122.815 145.045 120.395 146.18 118.504 147.078C121.591 147.899 124.822 148.309 128.058 148.309C131.292 148.309 134.523 147.899 137.61 147.078C135.719 146.18 133.297 145.045 132.205 144.597C131.287 144.223 130.802 144.636 130.093 145.246C129.783 145.51 129.444 145.802 129.042 146.096L128.724 146.329C128.313 146.636 127.76 146.616 127.374 146.317L127.074 146.096ZM127.477 143.546C127.659 143.701 127.849 143.865 128.058 144.03C128.265 143.863 128.457 143.701 128.639 143.546C129.963 142.412 130.868 141.637 133.048 142.528C135.026 143.337 140.636 146.042 141.124 146.278C141.397 146.397 141.621 146.625 141.728 146.93C141.935 147.513 141.628 148.152 141.046 148.361C136.929 149.824 132.492 150.557 128.06 150.557C123.628 150.557 119.188 149.824 115.072 148.361C114.803 148.263 114.569 148.067 114.436 147.791C114.167 147.233 114.402 146.563 114.958 146.294C114.976 146.287 121.003 143.373 123.068 142.53C125.249 141.635 126.155 142.412 127.477 143.546Z" fill="#355D74"/>
<path fill-rule="evenodd" clip-rule="evenodd" d="M118.594 154.318C118.08 153.974 117.943 153.279 118.287 152.766C118.631 152.252 119.324 152.115 119.839 152.459L120.078 152.618C122.176 154.02 123.721 155.054 127.64 155.054C128.26 155.054 128.762 155.556 128.762 156.176C128.762 156.797 128.26 157.299 127.64 157.299C123.052 157.299 121.261 156.1 118.832 154.476L118.594 154.318Z" fill="#355D74"/>
<path fill-rule="evenodd" clip-rule="evenodd" d="M135.441 152.459C135.954 152.115 136.651 152.252 136.995 152.766C137.337 153.279 137.2 153.974 136.688 154.318L136.449 154.476C134.02 156.1 132.228 157.299 127.642 157.299C127.022 157.299 126.52 156.797 126.52 156.176C126.52 155.556 127.022 155.054 127.642 155.054C131.559 155.054 133.108 154.02 135.205 152.618L135.441 152.459Z" fill="#355D74"/>
<path fill-rule="evenodd" clip-rule="evenodd" d="M68.1455 113.02C68.0403 113.631 67.4629 114.041 66.8517 113.938C66.2404 113.833 65.8306 113.253 65.9339 112.644C66.1442 111.423 66.6111 110.397 67.2883 109.711C67.8942 109.094 68.648 108.748 69.5248 108.75C70.3178 108.75 71.1732 109.049 72.0607 109.712C73.5808 110.853 75.3059 113.186 77.0506 117.158C77.5905 118.387 77.2983 118.947 76.466 119.311C76.434 119.325 76.4037 119.337 76.3716 119.348C76.1381 119.437 75.935 119.453 75.6997 119.471C75.5144 119.485 75.2738 119.505 75.1455 119.599C75.092 119.637 75.035 119.696 74.9798 119.767C74.8176 119.981 74.6964 120.275 74.6768 120.606C74.659 120.943 74.7552 121.323 75.0332 121.704C75.1812 121.904 75.3807 122.108 75.6391 122.305C76.131 122.681 76.2255 123.383 75.8494 123.876C75.4734 124.366 74.7713 124.461 74.2794 124.087C73.8428 123.752 73.4953 123.393 73.2262 123.028C72.6078 122.185 72.3958 121.299 72.4403 120.49C72.4831 119.674 72.7896 118.942 73.1995 118.407C73.3848 118.165 73.5969 117.956 73.8196 117.792C74.1226 117.57 74.4149 117.441 74.6857 117.365C73.228 114.207 71.8718 112.368 70.7152 111.503C70.2394 111.147 69.8402 110.987 69.5213 110.985C69.2842 110.985 69.0668 111.093 68.8815 111.281C68.5322 111.635 68.2774 112.245 68.1455 113.02Z" fill="#355D74"/>
<path fill-rule="evenodd" clip-rule="evenodd" d="M190.628 112.646C190.732 113.255 190.322 113.834 189.712 113.939C189.101 114.045 188.522 113.633 188.418 113.022C188.285 112.246 188.028 111.639 187.677 111.281C187.49 111.093 187.274 110.985 187.037 110.985C186.717 110.987 186.319 111.147 185.843 111.503C184.687 112.368 183.329 114.207 181.873 117.365C182.146 117.441 182.436 117.57 182.737 117.792C182.962 117.956 183.172 118.165 183.359 118.407C183.769 118.942 184.074 119.676 184.116 120.49C184.159 121.299 183.951 122.185 183.331 123.028C183.061 123.393 182.714 123.75 182.277 124.087C181.786 124.461 181.083 124.366 180.707 123.876C180.331 123.384 180.426 122.681 180.918 122.305C181.178 122.108 181.376 121.904 181.524 121.704C181.802 121.323 181.898 120.943 181.88 120.606C181.862 120.275 181.739 119.981 181.579 119.767C181.522 119.696 181.467 119.639 181.413 119.599C181.285 119.503 181.044 119.483 180.861 119.471C180.624 119.451 180.42 119.435 180.189 119.348C180.157 119.337 180.125 119.325 180.096 119.311C179.266 118.947 178.972 118.388 179.512 117.158C181.258 113.186 182.983 110.853 184.501 109.712C185.387 109.049 186.244 108.75 187.037 108.75C187.912 108.748 188.668 109.094 189.272 109.711C189.951 110.398 190.42 111.425 190.628 112.646Z" fill="#355D74"/>
<path fill-rule="evenodd" clip-rule="evenodd" d="M102.006 196.807C101.471 196.499 101.286 195.815 101.594 195.28C101.901 194.744 102.584 194.56 103.12 194.868L128.557 209.554C129.092 209.863 129.277 210.545 128.971 211.08C128.664 211.615 127.98 211.798 127.444 211.493L102.006 196.807Z" fill="#355D74"/>
<path fill-rule="evenodd" clip-rule="evenodd" d="M152.88 194.868C153.415 194.56 154.097 194.745 154.406 195.28C154.714 195.814 154.529 196.499 153.994 196.807L128.557 211.493C128.022 211.799 127.338 211.614 127.031 211.08C126.725 210.543 126.908 209.861 127.443 209.554L152.88 194.868Z" fill="#355D74"/>
<path fill-rule="evenodd" clip-rule="evenodd" d="M97.3367 202.733C96.8003 202.423 96.6185 201.737 96.9286 201.202C97.2386 200.668 97.9248 200.486 98.4594 200.796L122.694 214.787C123.229 215.097 123.41 215.783 123.102 216.316C122.792 216.852 122.106 217.034 121.571 216.724L97.3367 202.733Z" fill="#355D74"/>
<path fill-rule="evenodd" clip-rule="evenodd" d="M157.544 200.794C158.079 200.485 158.763 200.671 159.07 201.205C159.378 201.74 159.193 202.424 158.658 202.733L134.425 216.724C133.891 217.032 133.206 216.847 132.898 216.312C132.591 215.776 132.777 215.093 133.31 214.787L157.544 200.794Z" fill="#355D74"/>
<path fill-rule="evenodd" clip-rule="evenodd" d="M127.999 211.051C124.635 211.051 121.906 213.932 121.906 217.488C121.906 221.043 124.635 223.925 127.999 223.925C131.366 223.925 134.096 221.043 134.096 217.488C134.096 213.934 131.366 211.051 127.999 211.051Z" fill="#355D74"/>
<path fill-rule="evenodd" clip-rule="evenodd" d="M127.996 213.298C126.954 213.298 126.002 213.75 125.311 214.481C124.593 215.24 124.147 216.302 124.147 217.489C124.147 218.676 124.593 219.74 125.311 220.497C126.004 221.23 126.954 221.681 127.996 221.681C129.042 221.681 129.992 221.23 130.686 220.497C131.404 219.74 131.847 218.678 131.847 217.489C131.847 216.302 131.404 215.238 130.686 214.481C129.992 213.75 129.041 213.298 127.996 213.298ZM122.064 211.394C123.577 209.798 125.674 208.809 127.996 208.809C130.32 208.809 132.416 209.798 133.931 211.394C135.419 212.966 136.338 215.122 136.338 217.491C136.338 219.857 135.419 222.014 133.931 223.586C132.418 225.184 130.32 226.173 127.996 226.173C125.676 226.173 123.577 225.184 122.064 223.586C120.576 222.014 119.656 219.857 119.656 217.491C119.656 215.122 120.576 212.966 122.064 211.394Z" fill="#355D74"/>
</svg>
