<svg width="216" height="257" viewBox="0 0 216 257" fill="none" xmlns="http://www.w3.org/2000/svg">
<path fill-rule="evenodd" clip-rule="evenodd" d="M168.343 248.387C167.258 249.127 165.778 248.85 165.039 247.764C164.299 246.681 164.578 245.199 165.664 244.46C179.269 235.119 190.491 222.558 198.231 207.872C205.683 193.729 209.902 177.606 209.902 160.494C209.902 132.389 198.51 106.947 180.094 88.5295C161.679 70.1122 136.237 58.7216 108.132 58.7216C80.0291 58.7216 54.587 70.1122 36.1698 88.5295C17.7543 106.947 6.36371 132.389 6.36371 160.494C6.36371 177.66 10.6079 193.829 18.1046 208.006C25.8853 222.72 37.1741 235.299 50.8539 244.631C51.9368 245.373 52.2174 246.851 51.4776 247.935C50.7377 249.02 49.2598 249.301 48.1733 248.561C33.8573 238.795 22.045 225.629 13.8979 210.223C6.04382 195.371 1.59766 178.448 1.59766 160.495C1.59766 131.075 13.5208 104.443 32.7994 85.1645C52.0798 65.8859 78.7121 53.9609 108.13 53.9609C137.549 53.9609 164.184 65.8859 183.461 85.1645C202.742 104.443 214.665 131.075 214.665 160.495C214.665 178.393 210.245 195.268 202.436 210.088C194.335 225.46 182.587 238.609 168.343 248.387Z" fill="#355D74"/>
<path fill-rule="evenodd" clip-rule="evenodd" d="M45.6088 255.139C44.8011 256.172 43.3089 256.356 42.276 255.549C41.2431 254.741 41.059 253.249 41.8668 252.216C44.8082 248.44 48.4002 244.966 52.5283 241.878C56.6527 238.792 61.2955 236.097 66.3474 233.868C84.1035 226.038 83.9355 220.16 83.4655 203.776C83.4208 202.189 83.3726 200.51 83.3351 198.635C83.3083 197.325 84.3501 196.242 85.66 196.215C86.9699 196.189 88.0546 197.23 88.0796 198.542C88.1154 200.286 88.1654 202.013 88.2119 203.644C88.748 222.381 88.9392 229.104 68.2632 238.223C63.5114 240.32 59.1796 242.827 55.375 245.675C51.5829 248.511 48.293 251.69 45.6088 255.139Z" fill="#355D74"/>
<path fill-rule="evenodd" clip-rule="evenodd" d="M128.163 198.172C128.183 196.862 129.262 195.817 130.574 195.836C131.884 195.856 132.931 196.935 132.91 198.245C132.87 200.282 132.819 202.08 132.77 203.774C132.302 220.158 132.134 226.035 149.888 233.866C154.94 236.095 159.583 238.791 163.708 241.876C167.836 244.966 171.426 248.438 174.369 252.214C175.175 253.247 174.993 254.739 173.958 255.547C172.925 256.353 171.433 256.17 170.627 255.137C167.941 251.688 164.651 248.509 160.859 245.673C157.054 242.825 152.724 240.317 147.971 238.221C127.295 229.102 127.488 222.381 128.024 203.642C128.074 201.894 128.128 200.036 128.163 198.172Z" fill="#355D74"/>
<path fill-rule="evenodd" clip-rule="evenodd" d="M152.149 143.764C152.261 142.454 153.417 141.484 154.727 141.595C156.037 141.707 157.008 142.863 156.895 144.171C156.545 148.194 155.955 152.71 155.002 157.581C154.061 162.405 152.749 167.598 150.941 173.032C141.973 199.995 109.136 213.418 109.042 213.455C108.432 213.709 107.78 213.689 107.217 213.455C107.12 213.418 74.2836 199.995 65.3162 173.032C63.4916 167.553 62.171 162.303 61.2239 157.426C60.2696 152.51 59.6835 147.96 59.3403 143.918C59.2313 142.608 60.2071 141.457 61.5188 141.348C62.8287 141.241 63.9777 142.215 64.0885 143.526C64.4191 147.44 64.982 151.827 65.8952 156.531C66.8173 161.272 68.0861 166.329 69.8196 171.542C77.259 193.905 102.964 206.357 108.128 208.666C113.293 206.357 138.998 193.903 146.435 171.542C148.149 166.392 149.411 161.379 150.331 156.668C151.244 152.006 151.811 147.653 152.149 143.764Z" fill="#355D74"/>
<path fill-rule="evenodd" clip-rule="evenodd" d="M105.745 103.031C105.745 101.715 106.812 100.648 108.127 100.648C109.444 100.648 110.511 101.715 110.511 103.031C110.511 114.737 104.525 123.019 95.9612 129.372C87.714 135.492 77.1597 139.733 67.3935 143.568C57.1287 147.601 43.5258 155.795 32.6856 164.846C23.8094 172.255 16.8703 180.131 15.3924 186.512C15.1225 187.681 14.6686 189.706 14.3881 192.15C14.1147 194.536 14.011 197.32 14.4202 200.062C14.6115 201.361 13.7108 202.569 12.4116 202.76C11.1089 202.949 9.90261 202.051 9.7114 200.75C9.41832 198.775 9.34862 196.804 9.41116 194.942C8.4676 194.909 7.59375 194.313 7.256 193.371C3.22086 182.164 -2.05091 161.944 3.06003 142.315C6.4429 129.323 14.322 116.646 29.9907 107.053C31.1112 106.369 32.573 106.723 33.2574 107.843C33.9401 108.964 33.588 110.425 32.4676 111.11C18.0122 119.959 10.7586 131.6 7.65808 143.505C3.44067 159.703 6.81638 176.492 10.3029 187.554C10.4709 186.709 10.6317 185.996 10.7586 185.451C12.4974 177.95 20.0476 169.201 29.6351 161.197C40.847 151.836 54.97 143.339 65.6637 139.138C75.1511 135.41 85.3944 131.3 93.1341 125.554C100.557 120.047 105.745 112.947 105.745 103.031Z" fill="#355D74"/>
<path fill-rule="evenodd" clip-rule="evenodd" d="M105.464 71.4665C105.629 70.1656 106.815 69.2452 108.118 69.4096C109.417 69.5758 110.338 70.7624 110.173 72.0616C108.098 88.0806 102.782 99.0549 94.6438 107.783C86.6039 116.405 75.8995 122.71 62.8702 129.513C60.2879 130.861 58.0023 132.017 55.6541 133.205C34.0274 144.147 7.44692 157.595 8.76755 182.538C8.83545 183.848 7.82578 184.965 6.51588 185.033C5.20598 185.099 4.08907 184.093 4.02117 182.781C2.53792 154.753 30.6445 140.53 53.5133 128.961C56.117 127.646 58.651 126.361 60.674 125.305C73.2708 118.727 83.5892 112.669 91.1627 104.545C98.6414 96.5262 103.536 86.3704 105.464 71.4665Z" fill="#355D74"/>
<path fill-rule="evenodd" clip-rule="evenodd" d="M5.49096 157.569C5.16751 158.843 3.87191 159.615 2.59775 159.29C1.32359 158.966 0.549794 157.671 0.875036 156.397C6.1754 135.678 24.9822 126.535 43.3941 117.582C50.6013 114.079 57.7458 110.605 63.8343 106.52C71.9653 101.064 78.9634 94.0824 84.3799 85.6368C89.523 77.6166 93.2418 68.274 95.1486 57.6607C95.3809 56.3705 96.614 55.5127 97.9024 55.745C99.1927 55.9755 100.052 57.2086 99.8199 58.4988C97.7952 69.7643 93.8441 79.6824 88.3811 88.2066C82.6089 97.2061 75.1462 104.647 66.4737 110.466C60.0904 114.75 52.8082 118.291 45.4599 121.864C28.0399 130.334 10.2463 138.985 5.49096 157.569Z" fill="#355D74"/>
<path fill-rule="evenodd" clip-rule="evenodd" d="M31.8384 111.397C30.6965 112.044 29.2472 111.646 28.5985 110.504C27.9516 109.362 28.3519 107.912 29.492 107.264L31.8509 105.927C54.4338 93.13 75.5566 81.1604 82.1097 58.5025C82.4742 57.2426 83.7913 56.5189 85.0512 56.8834C86.311 57.248 87.0348 58.5632 86.6702 59.8249C79.5774 84.3431 57.6433 96.7738 34.1938 110.06L31.8384 111.397Z" fill="#355D74"/>
<path fill-rule="evenodd" clip-rule="evenodd" d="M105.746 103.031C105.746 101.715 106.813 100.648 108.128 100.648C109.443 100.648 110.51 101.715 110.51 103.031C110.51 112.947 115.698 120.049 123.123 125.556C130.865 131.302 141.108 135.412 150.595 139.14C160.288 142.948 172.801 150.287 183.409 158.606C192.68 165.872 200.556 173.946 203.978 181.185C209.089 191.997 207.688 196.473 205.658 202.955C205.397 203.786 205.64 202.996 205.39 203.805C205.004 205.06 203.674 205.764 202.42 205.378C201.167 204.994 200.461 203.664 200.847 202.41C201.28 201.019 201.033 201.807 201.115 201.541C202.818 196.103 203.994 192.347 199.677 183.217C196.59 176.687 189.222 169.199 180.484 162.348C170.233 154.311 158.174 147.231 148.862 143.571C139.096 139.736 128.54 135.494 120.293 129.375C111.733 123.017 105.746 114.737 105.746 103.031ZM212.386 182.245C215.453 169.896 217.256 153.5 211.882 137.928C207.938 126.498 200.164 115.56 186.267 107.053C185.148 106.369 183.684 106.723 183 107.843C182.317 108.964 182.671 110.425 183.792 111.11C196.61 118.958 203.764 128.998 207.377 139.472C212.386 153.993 210.665 169.441 207.768 181.11C207.454 182.384 208.233 183.673 209.509 183.985C210.785 184.298 212.07 183.521 212.386 182.245Z" fill="#355D74"/>
<path fill-rule="evenodd" clip-rule="evenodd" d="M106.083 72.8257C105.913 71.5247 106.83 70.3328 108.131 70.1648C109.432 69.995 110.624 70.9118 110.792 72.2127C112.23 83.0332 117.28 92.6815 124.255 100.993C132.829 111.217 144.293 119.41 155.584 125.304C157.607 126.36 160.141 127.643 162.743 128.96C184.788 140.115 211.708 153.736 212.278 179.893C212.303 181.203 211.263 182.287 209.951 182.312C208.641 182.339 207.556 181.297 207.531 179.986C207.022 156.693 181.503 143.78 160.602 133.204C158.255 132.016 155.968 130.858 153.386 129.512C141.595 123.354 129.607 114.776 120.604 104.047C113.1 95.0976 107.655 84.6452 106.083 72.8257Z" fill="#355D74"/>
<path fill-rule="evenodd" clip-rule="evenodd" d="M215.378 156.4C215.702 157.674 214.933 158.97 213.658 159.293C212.383 159.619 211.088 158.847 210.763 157.573C206.009 138.989 188.214 130.338 170.794 121.868C163.447 118.295 156.161 114.755 149.78 110.47C141.1 104.646 133.632 97.1956 127.858 88.1853C122.39 79.6558 118.444 69.7216 116.425 58.4436C116.192 57.1534 117.052 55.9221 118.342 55.6898C119.632 55.4593 120.865 56.317 121.096 57.6055C122.999 68.2348 126.716 77.5882 131.861 85.6174C137.279 94.0719 144.285 101.063 152.423 106.522C158.509 110.607 165.656 114.081 172.861 117.584C191.271 126.539 210.08 135.681 215.378 156.4Z" fill="#355D74"/>
<path fill-rule="evenodd" clip-rule="evenodd" d="M186.769 107.264C187.911 107.911 188.309 109.362 187.664 110.504C187.015 111.646 185.564 112.044 184.424 111.397L182.065 110.06C158.616 96.772 136.681 84.3413 129.59 59.8249C129.226 58.565 129.95 57.2498 131.21 56.8834C132.468 56.5189 133.785 57.2426 134.151 58.5025C140.706 81.1604 161.829 93.13 184.41 105.927L186.769 107.264Z" fill="#355D74"/>
<path fill-rule="evenodd" clip-rule="evenodd" d="M62.8561 66.7446C63.1921 68.0134 62.4326 69.3144 61.1638 69.6485C59.895 69.9827 58.594 69.225 58.2598 67.9544C56.1404 59.9842 55.8009 58.8494 54.0871 53.1416C53.1864 50.1376 51.8783 45.7808 49.3586 37.2173C48.9887 35.9574 49.7107 34.6368 50.9687 34.2669C51.6335 34.0721 52.3162 34.1811 52.8666 34.5135C69.4682 43.765 80.7998 42.2568 88.8522 35.307C97.2299 28.073 102.421 14.9919 106.297 1.7642C106.662 0.50434 107.979 -0.219412 109.239 0.145145C110.497 0.509701 111.222 1.82675 110.858 3.08661C106.769 17.0416 101.204 30.918 91.9599 38.8989C83.2731 46.3973 71.6359 48.7062 55.4846 41.1881C56.8821 45.9041 57.8917 49.2673 58.6459 51.7853C60.3418 57.4305 60.6795 58.5546 62.8561 66.7446Z" fill="#355D74"/>
<path fill-rule="evenodd" clip-rule="evenodd" d="M105.595 169.879C106.356 170.082 106.808 170.865 106.604 171.626C106.402 172.389 105.62 172.841 104.857 172.636L100.192 171.387C99.5545 171.217 99.1327 170.64 99.1327 170.009L99.131 145.006C98.0444 143.593 92.2491 137.742 72.5148 140.869C71.7374 140.993 71.0083 140.462 70.885 139.686C70.7617 138.909 71.2924 138.178 72.0698 138.057C94.6651 134.474 100.938 142.571 101.701 143.709C101.883 143.95 101.99 144.249 101.99 144.572V168.914L105.595 169.879Z" fill="#355D74"/>
<path fill-rule="evenodd" clip-rule="evenodd" d="M116.785 145.301C116.381 145.976 115.506 146.196 114.83 145.792C114.156 145.387 113.935 144.513 114.339 143.837C114.355 143.809 119.812 134.209 144.053 138.053C144.831 138.174 145.36 138.907 145.238 139.682C145.115 140.46 144.386 140.989 143.609 140.866C121.29 137.329 116.799 145.278 116.785 145.301Z" fill="#355D74"/>
<path fill-rule="evenodd" clip-rule="evenodd" d="M91.4757 151.111C91.8117 150.399 92.6605 150.094 93.3754 150.43C94.0866 150.766 94.3922 151.615 94.0562 152.328C93.4218 153.671 92.0136 154.797 90.1301 155.55C88.4431 156.225 86.3362 156.629 84.0702 156.629C81.8061 156.629 79.7009 156.225 78.014 155.55C76.1304 154.797 74.7204 153.671 74.086 152.328C73.7501 151.615 74.0539 150.766 74.7669 150.43C75.4799 150.094 76.3306 150.398 76.6665 151.111C76.9864 151.784 77.8513 152.413 79.0755 152.903C80.43 153.445 82.1652 153.766 84.0702 153.766C85.9788 153.766 87.714 153.443 89.0668 152.903C90.2909 152.413 91.1576 151.784 91.4757 151.111Z" fill="#355D74"/>
<path fill-rule="evenodd" clip-rule="evenodd" d="M137.187 151.111C137.523 150.399 138.373 150.094 139.086 150.43C139.798 150.766 140.103 151.615 139.767 152.328C139.133 153.671 137.723 154.797 135.841 155.55C134.154 156.225 132.047 156.629 129.783 156.629C127.517 156.629 125.412 156.225 123.725 155.55C121.841 154.797 120.431 153.671 119.797 152.328C119.461 151.615 119.765 150.766 120.478 150.43C121.191 150.094 122.04 150.398 122.377 151.111C122.696 151.784 123.562 152.413 124.786 152.903C126.141 153.445 127.876 153.766 129.783 153.766C131.69 153.766 133.425 153.443 134.78 152.903C136 152.413 136.867 151.784 137.187 151.111Z" fill="#355D74"/>
<path fill-rule="evenodd" clip-rule="evenodd" d="M135.746 229.328C136.547 228.29 138.041 228.097 139.077 228.901C140.117 229.702 140.307 231.194 139.506 232.232C127.74 247.476 109.089 255.103 109.035 255.126C108.428 255.38 107.773 255.36 107.211 255.126C107.157 255.103 88.4162 247.442 76.6521 232.123C75.8551 231.079 76.0553 229.589 77.0989 228.792C78.1425 227.997 79.6347 228.195 80.4299 229.239C89.9281 241.607 104.38 248.655 108.122 250.338C111.855 248.657 126.244 241.639 135.746 229.328Z" fill="#355D74"/>
<path fill-rule="evenodd" clip-rule="evenodd" d="M127.437 220.92C128.023 219.747 129.447 219.272 130.62 219.858C131.79 220.443 132.265 221.869 131.679 223.039C125.216 235.958 109.052 242.362 109.005 242.38C108.414 242.616 107.785 242.6 107.236 242.38C107.188 242.361 90.7739 235.859 84.4085 222.741C83.8384 221.559 84.3335 220.139 85.5165 219.569C86.6977 218.999 88.1184 219.494 88.6903 220.675C93.4313 230.45 104.859 236.129 108.123 237.591C111.357 236.142 122.621 230.541 127.437 220.92Z" fill="#355D74"/>
<path fill-rule="evenodd" clip-rule="evenodd" d="M156.224 231.164C155.129 231.888 153.654 231.588 152.931 230.494C152.207 229.4 152.507 227.922 153.601 227.199C163.061 220.894 171.141 212.67 177.283 203.086C183.287 193.72 187.44 183.061 189.225 171.627C189.427 170.331 190.639 169.445 191.935 169.645C193.23 169.845 194.117 171.059 193.916 172.354C192.024 184.474 187.631 195.757 181.286 205.658C174.79 215.79 166.24 224.488 156.224 231.164ZM21.8994 169.234C21.7457 167.931 22.6803 166.745 23.9848 166.591C25.2912 166.436 26.4742 167.369 26.6279 168.675C28.0468 180.571 32.0051 191.681 37.9452 201.446C44.0479 211.482 52.2469 220.106 61.9309 226.713C63.0156 227.452 63.2944 228.932 62.5545 230.017C61.8147 231.1 60.335 231.38 59.2521 230.64C49.0123 223.657 40.3452 214.536 33.8886 203.924C27.5929 193.575 23.4005 181.815 21.8994 169.234Z" fill="#355D74"/>
<path fill-rule="evenodd" clip-rule="evenodd" d="M145.895 214.067C144.801 214.79 143.325 214.49 142.602 213.397C141.878 212.303 142.176 210.827 143.27 210.101C151.957 204.311 159.133 196.439 164.084 187.202C168.85 178.301 171.555 168.116 171.555 157.289V156.258C171.548 155.966 171.539 155.616 171.527 155.23C171.486 153.92 172.515 152.823 173.827 152.782C175.136 152.743 176.234 153.77 176.275 155.08C176.286 155.403 176.294 155.763 176.303 156.183L176.323 157.289C176.323 168.903 173.412 179.848 168.274 189.436C162.945 199.377 155.229 207.844 145.895 214.067ZM39.995 154.948C40.0361 153.638 41.1334 152.609 42.4433 152.65C43.7532 152.691 44.7825 153.786 44.7414 155.096C44.7289 155.5 44.7164 155.873 44.711 156.199C44.7092 156.284 44.7074 156.617 44.7074 157.287C44.7074 167.99 47.3523 178.067 52.0236 186.9C56.8736 196.069 63.9074 203.909 72.4334 209.724C73.5181 210.464 73.7969 211.944 73.0571 213.028C72.3155 214.113 70.8376 214.392 69.7528 213.654C60.5925 207.405 53.0315 198.977 47.8169 189.116C42.79 179.609 39.9414 168.778 39.9414 157.287C39.9414 157.199 39.9503 156.778 39.9646 156.106C39.9736 155.679 39.9861 155.298 39.995 154.948Z" fill="#355D74"/>
<path fill-rule="evenodd" clip-rule="evenodd" d="M107.26 182.421C106.853 182.141 106.517 181.867 106.209 181.621C105.445 180.999 104.921 180.575 103.883 180.979C102.705 181.435 100.1 182.591 98.1767 183.46C101.383 184.296 104.749 184.714 108.122 184.714C111.494 184.714 114.862 184.296 118.065 183.46C116.144 182.593 113.536 181.435 112.36 180.979C111.32 180.575 110.799 181.001 110.032 181.621C109.725 181.869 109.39 182.141 108.983 182.421L108.663 182.645C108.322 182.882 107.879 182.866 107.559 182.632L107.26 182.421ZM107.409 180.145C107.63 180.323 107.864 180.515 108.123 180.704C108.382 180.516 108.617 180.323 108.836 180.145C110.109 179.112 110.983 178.404 113.048 179.205C115.003 179.962 120.752 182.587 121.146 182.766C121.385 182.87 121.583 183.072 121.673 183.338C121.839 183.835 121.571 184.375 121.072 184.541C116.964 185.924 112.541 186.617 108.122 186.617C103.704 186.617 99.2793 185.924 95.1709 184.541C94.9296 184.46 94.7206 184.285 94.6098 184.035C94.3917 183.558 94.6008 182.995 95.078 182.777C95.094 182.768 101.175 179.989 103.196 179.205C105.264 178.406 106.134 179.112 107.409 180.145Z" fill="#355D74"/>
<path fill-rule="evenodd" clip-rule="evenodd" d="M98.7481 190.227C98.3049 189.946 98.1709 189.36 98.4515 188.917C98.7302 188.472 99.3164 188.34 99.7614 188.619L100.001 188.77C102.135 190.121 103.709 191.119 107.701 191.119C108.227 191.119 108.654 191.544 108.654 192.071C108.654 192.597 108.228 193.024 107.701 193.024C103.166 193.024 101.393 191.9 98.9893 190.379L98.7481 190.227Z" fill="#355D74"/>
<path fill-rule="evenodd" clip-rule="evenodd" d="M115.64 188.611C116.085 188.332 116.673 188.464 116.95 188.909C117.229 189.352 117.097 189.939 116.652 190.219L116.412 190.369C114.007 191.892 112.234 193.014 107.699 193.014C107.171 193.014 106.746 192.587 106.746 192.062C106.746 191.534 107.171 191.109 107.699 191.109C111.691 191.109 113.265 190.112 115.399 188.761L115.64 188.611Z" fill="#355D74"/>
<path fill-rule="evenodd" clip-rule="evenodd" d="M158.888 67.9562C158.554 69.2268 157.255 69.9845 155.986 69.6503C154.715 69.3144 153.958 68.0152 154.292 66.7464C156.472 58.5564 156.808 57.4323 158.502 51.7853C159.258 49.2673 160.268 45.9041 161.663 41.1881C145.512 48.7062 133.875 46.3973 125.188 38.8989C115.944 30.918 110.379 17.0398 106.29 3.08661C105.924 1.82854 106.651 0.511488 107.909 0.145145C109.169 -0.219412 110.484 0.50434 110.849 1.7642C114.725 14.9901 119.916 28.073 128.294 35.307C136.345 42.2568 147.678 43.7632 164.28 34.5135C164.83 34.1811 165.511 34.0721 166.179 34.2669C167.437 34.6368 168.158 35.9574 167.788 37.2173C165.27 45.7808 163.962 50.1394 163.061 53.1416C161.351 58.8512 161.009 59.986 158.888 67.9562Z" fill="#355D74"/>
<path fill-rule="evenodd" clip-rule="evenodd" d="M110.81 56.312C110.826 57.6219 109.775 58.6977 108.465 58.7138C107.155 58.7299 106.079 57.6791 106.065 56.3674L105.754 31.7652C105.74 30.4553 106.789 29.3813 108.099 29.3634C109.409 29.3491 110.484 30.3981 110.5 31.7098L110.81 56.312Z" fill="#355D74"/>
<path fill-rule="evenodd" clip-rule="evenodd" d="M80.1849 57.9088C80.8782 59.0221 80.5369 60.4892 79.42 61.1844C78.3049 61.8778 76.8377 61.5347 76.1444 60.4196L70.9888 52.1581C70.2936 51.0429 70.6367 49.5776 71.75 48.8824C72.8669 48.189 74.3323 48.5304 75.0275 49.6455L80.1849 57.9088Z" fill="#355D74"/>
<path fill-rule="evenodd" clip-rule="evenodd" d="M140.421 60.4188C139.728 61.5339 138.262 61.8752 137.145 61.1836C136.03 60.4885 135.689 59.0213 136.382 57.908L141.54 49.6447C142.233 48.5296 143.699 48.19 144.815 48.8816C145.931 49.5768 146.272 51.0422 145.579 52.1573L140.421 60.4188Z" fill="#355D74"/>
</svg>
