<svg width="131" height="257" viewBox="0 0 131 257" fill="none" xmlns="http://www.w3.org/2000/svg">
<path d="M61.3099 6.14721C58.1116 7.91489 55.0891 9.90324 52.2872 12.1038C46.5283 10.3579 40.3281 9.40008 33.8672 9.40008H4.79379C2.39929 9.40008 0.457031 7.45782 0.457031 5.06332C0.457031 2.66883 2.39808 0.726562 4.79379 0.726562H33.8672C43.6925 0.727775 53.0026 2.67488 61.3099 6.14721ZM101.655 255.685C102.472 256.386 103.475 256.727 104.471 256.727C105.695 256.727 106.911 256.211 107.769 255.209C109.326 253.389 109.113 250.652 107.293 249.094L74.8816 221.364L68.2121 227.071L101.655 255.685ZM126.07 0.727765H96.997C87.1705 0.727765 77.8604 2.6761 69.5543 6.14721C68.8559 6.43939 68.1697 6.7522 67.4859 7.065C66.7924 7.38265 66.1098 7.71485 65.4321 8.05311C62.235 9.65227 59.2088 11.4781 56.3949 13.5198C55.8178 13.9381 55.2479 14.3637 54.6878 14.8001C54.1277 15.2366 53.5833 15.6876 53.0426 16.1398C41.1198 26.1106 33.6841 40.0751 33.6841 55.5235C33.6841 70.9719 41.1198 84.9364 53.0426 94.9072C56.213 93.8318 59.2258 92.5018 62.0434 90.9426C50.0225 82.4752 42.3564 69.7426 42.3564 55.5235C42.3564 41.3057 50.0225 28.5718 62.0434 20.1044C62.5902 19.7188 63.1504 19.3479 63.7141 18.9805C64.2779 18.6143 64.8514 18.2579 65.4321 17.9099C68.2582 16.215 71.282 14.7419 74.4694 13.5186C75.1362 13.2628 75.8091 13.0167 76.4892 12.7827C77.1791 12.5463 77.8738 12.3159 78.577 12.1025C84.3359 10.3567 90.5349 9.39888 96.997 9.39888H126.07C128.465 9.39888 130.407 7.45659 130.407 5.0621C130.407 2.66882 128.465 0.727765 126.07 0.727765ZM96.997 101.648C90.5349 101.648 84.3359 100.69 78.577 98.9445C75.7739 101.145 72.7526 103.133 69.5543 104.901C77.8617 108.373 87.1717 110.32 96.997 110.32H121.658C120.39 146.825 103.132 181.024 72.7368 207.03L68.2097 210.903L66.8203 212.091L65.4309 213.28L58.7615 218.987L57.3721 220.176L55.9826 221.364L23.5715 249.094C21.7517 250.651 21.5383 253.389 23.0962 255.209C23.9534 256.211 25.1694 256.727 26.3927 256.727C27.3905 256.727 28.392 256.385 29.2092 255.685L62.6521 227.072L64.0415 225.883L65.4309 224.694L72.1003 218.987L73.4897 217.798L74.8791 216.609L78.3733 213.62C111.44 185.328 130.405 146.097 130.405 105.984V101.647H96.997V101.648ZM77.8217 16.1398C74.6512 17.2152 71.6372 18.5452 68.8208 20.1056C80.8417 28.573 88.5078 41.3057 88.5078 55.5247C88.5078 69.7438 80.8417 82.4764 68.8208 90.9439C68.274 91.3294 67.7138 91.7004 67.1501 92.0677C66.5863 92.4339 66.0128 92.7903 65.4321 93.1383C62.606 94.8332 59.5823 96.3063 56.3949 97.5296C55.728 97.7854 55.0552 98.0315 54.375 98.2655C53.6851 98.502 52.9904 98.7323 52.2872 98.9457C46.5283 100.692 40.3281 101.649 33.866 101.649H0.457031V105.986C0.457031 146.1 19.4214 185.331 52.4885 213.622L55.9838 216.612L62.6533 210.905L58.1262 207.033C27.7325 181.027 10.4739 146.827 9.20572 110.323H33.8672C43.6937 110.323 53.0038 108.375 61.3111 104.903C62.0095 104.611 62.6957 104.298 63.3795 103.986C64.073 103.668 64.7556 103.336 65.4333 102.998C68.6304 101.398 71.6554 99.5725 74.4706 97.532C75.0477 97.1138 75.6175 96.6882 76.1776 96.2517C76.7378 95.8153 77.2821 95.3643 77.8229 94.912C89.7456 84.9412 97.1825 70.9756 97.1825 55.5284C97.1825 40.0811 89.7444 26.1106 77.8217 16.1398ZM32.325 127.968V123.631H51.1197C55.9705 123.631 60.6819 122.464 64.7471 120.256L66.8167 119.132L68.8862 120.256C72.9514 122.465 77.664 123.631 82.5136 123.631H101.307V127.968C101.307 148.554 91.5982 168.667 74.6694 183.149L66.8155 189.87L58.9615 183.149C42.0339 168.665 32.325 148.554 32.325 127.968ZM41.155 132.304C42.371 148.991 50.5874 164.569 64.6004 176.56L66.8155 178.456L69.0317 176.56C83.0447 164.571 91.2611 148.991 92.4772 132.304H82.5136C77.0215 132.304 71.6408 131.137 66.8167 128.914C61.9925 131.137 56.6131 132.304 51.1197 132.304H41.155Z" fill="url(#paint0_linear_20_17926)"/>
<defs>
<linearGradient id="paint0_linear_20_17926" x1="0.456668" y1="128.727" x2="130.407" y2="128.727" gradientUnits="userSpaceOnUse">
<stop stop-color="#F3D674"/>
<stop offset="0.0083" stop-color="#EACC6D"/>
<stop offset="0.0386" stop-color="#CFAD57"/>
<stop offset="0.0703" stop-color="#B99545"/>
<stop offset="0.1036" stop-color="#AA8439"/>
<stop offset="0.1395" stop-color="#A17931"/>
<stop offset="0.1829" stop-color="#9E762F"/>
<stop offset="0.3033" stop-color="#BF9C4E"/>
<stop offset="0.4238" stop-color="#DBBD67"/>
<stop offset="0.4902" stop-color="#E6C971"/>
<stop offset="0.5443" stop-color="#E0C26C"/>
<stop offset="0.6225" stop-color="#CFAF5C"/>
<stop offset="0.715" stop-color="#B49043"/>
<stop offset="0.778" stop-color="#9E762F"/>
<stop offset="0.818" stop-color="#A37B33"/>
<stop offset="0.8666" stop-color="#B08A3D"/>
<stop offset="0.9198" stop-color="#C6A34F"/>
<stop offset="0.9757" stop-color="#E4C568"/>
<stop offset="1" stop-color="#F3D674"/>
</linearGradient>
</defs>
</svg>
