<svg width="173" height="257" viewBox="0 0 173 257" fill="none" xmlns="http://www.w3.org/2000/svg">
<path d="M11.8438 160.905V14.6484" stroke="#F9F3E4" stroke-width="13" stroke-miterlimit="10" stroke-linecap="round" stroke-linejoin="round"/>
<path d="M46.7119 81.3547H11.8477V11.625H46.7119C65.9671 11.625 81.5762 27.2342 81.5762 46.4893C81.5762 65.7444 65.9671 81.3547 46.7119 81.3547Z" stroke="#F9F3E4" stroke-width="13" stroke-miterlimit="10" stroke-linecap="round" stroke-linejoin="round"/>
<path d="M11.8438 81.3516C11.8438 81.3516 49.722 163.21 87.9876 163.21" stroke="#F9F3E4" stroke-width="13" stroke-miterlimit="10" stroke-linecap="round" stroke-linejoin="round"/>
<path d="M87.9883 242.756V96.5" stroke="#F9F3E4" stroke-width="13" stroke-miterlimit="10" stroke-linecap="round" stroke-linejoin="round"/>
<path d="M122.853 163.213H87.9883V93.4844H122.853C142.108 93.4844 157.717 109.094 157.717 128.349C157.718 147.603 142.108 163.213 122.853 163.213Z" stroke="#F9F3E4" stroke-width="13" stroke-miterlimit="10" stroke-linecap="round" stroke-linejoin="round"/>
<path d="M87.9883 163.211C87.9883 163.211 125.866 245.069 164.132 245.069" stroke="#F9F3E4" stroke-width="13" stroke-miterlimit="10" stroke-linecap="round" stroke-linejoin="round"/>
<path d="M131.375 35.4545L114.919 76.421L99.3906 36.8409L116.569 29.5078L131.375 35.4545Z" fill="#D84882"/>
<path d="M126.448 47.7053L99.3867 36.8359" stroke="#462C47" stroke-miterlimit="10"/>
<path d="M116.566 29.5078L126.448 47.7103" stroke="#462C47" stroke-miterlimit="10"/>
<path d="M131.374 35.4531L114.918 76.4196L153.512 58.5794L146.179 41.3999L131.374 35.4531Z" fill="#D84882"/>
<path d="M153.511 58.5815L126.449 47.7109" stroke="#462C47" stroke-miterlimit="10"/>
<path d="M114.918 76.4182L126.45 47.7075L146.179 41.3984" stroke="#462C47" stroke-miterlimit="10"/>
<path d="M143.597 6.01562L152.219 36.2053L126.234 20.7436L132.686 9.13128L143.597 6.01562Z" fill="#AF3359"/>
<path d="M146.176 15.0547L126.234 20.7511" stroke="#462C47" stroke-miterlimit="10"/>
<path d="M132.688 9.13281L146.178 15.0487" stroke="#462C47" stroke-miterlimit="10"/>
<path d="M143.598 6.01524L152.22 36.2049L166.12 9.35149L154.508 2.89844L143.598 6.01524Z" fill="#AF3359"/>
<path d="M166.119 9.35156L146.176 15.0468" stroke="#462C47" stroke-miterlimit="10"/>
<path d="M152.218 36.2049L146.176 15.0468L154.507 2.89844" stroke="#462C47" stroke-miterlimit="10"/>
<path d="M150.089 77.25L151.614 80.0399C152.019 80.7805 152.628 81.3897 153.369 81.7943L156.158 83.3202L153.369 84.846C152.628 85.2506 152.019 85.8598 151.614 86.6004L150.089 89.3892L148.563 86.6004C148.158 85.8598 147.549 85.2506 146.808 84.846L144.02 83.3202L146.808 81.7943C147.549 81.3897 148.158 80.7805 148.563 80.0399L150.089 77.25Z" fill="#AF3359"/>
<path d="M163.784 36.2031L165.31 38.9919C165.714 39.7325 166.323 40.3417 167.064 40.7463L169.853 42.2721L167.064 43.798C166.323 44.2026 165.714 44.8117 165.31 45.5524L163.784 48.3412L162.258 45.5524C161.853 44.8117 161.244 44.2026 160.504 43.798L157.715 42.2721L160.504 40.7463C161.244 40.3417 161.853 39.7325 162.258 38.9919L163.784 36.2031Z" fill="#E59E5E"/>
<path d="M121.507 2.73438L122.682 4.88311C122.994 5.45344 123.462 5.92204 124.033 6.23407L126.181 7.40901L124.033 8.58395C123.462 8.89597 122.994 9.36458 122.682 9.93491L121.507 12.0836L120.332 9.93491C120.02 9.36458 119.551 8.89597 118.981 8.58395L116.832 7.40901L118.981 6.23407C119.551 5.92204 120.02 5.45344 120.332 4.88311L121.507 2.73438Z" fill="#E59E5E"/>
<path d="M38.3743 158.023L40.2465 161.447C40.7436 162.355 41.4911 163.103 42.3998 163.6L45.8229 165.472L42.3998 167.344C41.4911 167.841 40.7436 168.589 40.2465 169.497L38.3743 172.921L36.5022 169.497C36.005 168.589 35.2575 167.841 34.3489 167.344L30.9258 165.472L34.3489 163.6C35.2575 163.103 36.005 162.355 36.5022 161.447L38.3743 158.023Z" fill="#E59E5E"/>
<path d="M121.292 242.414L122.448 244.526C122.754 245.087 123.216 245.548 123.777 245.855L125.889 247.011L123.777 248.166C123.216 248.473 122.755 248.935 122.448 249.496L121.292 251.608L120.137 249.496C119.83 248.935 119.369 248.474 118.807 248.166L116.695 247.011L118.807 245.855C119.369 245.549 119.829 245.087 120.137 244.526L121.292 242.414Z" fill="#E59E5E"/>
<path d="M167.062 221.672L168.217 223.784C168.524 224.345 168.985 224.806 169.546 225.113L171.659 226.269L169.546 227.424C168.985 227.731 168.525 228.192 168.217 228.754L167.062 230.866L165.906 228.754C165.6 228.192 165.138 227.732 164.577 227.424L162.465 226.269L164.577 225.113C165.138 224.807 165.599 224.345 165.906 223.784L167.062 221.672Z" fill="#E59E5E"/>
<path d="M79.4903 0.398438L80.9327 3.0352C81.3156 3.73468 81.8905 4.31072 82.5911 4.69361L85.2279 6.13486L82.5911 7.57725C81.8916 7.96013 81.3156 8.53504 80.9327 9.23566L79.4903 11.8713L78.0491 9.23566C77.6662 8.53618 77.0913 7.96013 76.3907 7.57725L73.7539 6.13486L76.3907 4.69361C77.0902 4.31072 77.6662 3.73468 78.0491 3.0352L79.4903 0.398438Z" fill="#E59E5E"/>
<path d="M71.0255 129.062L72.4667 131.699C72.8496 132.399 73.4256 132.975 74.1251 133.358L76.7619 134.799L74.1251 136.241C73.4256 136.624 72.8496 137.199 72.4667 137.9L71.0255 140.536L69.5831 137.9C69.2002 137.2 68.6253 136.624 67.9247 136.241L65.2891 134.799L67.9247 133.358C68.6242 132.975 69.2002 132.4 69.5831 131.699L71.0255 129.062Z" fill="#E59E5E"/>
<path d="M43.3536 93.2422L44.7949 95.8778C45.1777 96.5773 45.7526 97.1533 46.4533 97.5362L49.09 98.9775L46.4533 100.42C45.7538 100.803 45.1777 101.378 44.7949 102.078L43.3536 104.714L41.9112 102.078C41.5283 101.379 40.9534 100.803 40.2528 100.42L37.6172 98.9775L40.2528 97.5362C40.9523 97.1533 41.5283 96.5773 41.9112 95.8778L43.3536 93.2422Z" fill="#E59E5E"/>
<path d="M68.6517 189.93L70.5238 193.353C71.021 194.261 71.7685 195.009 72.6771 195.506L76.1002 197.378L72.6771 199.25C71.7685 199.748 71.021 200.495 70.5238 201.404L68.6517 204.827L66.7795 201.404C66.2824 200.495 65.5349 199.748 64.6262 199.25L61.2031 197.378L64.6262 195.506C65.5349 195.009 66.2824 194.261 66.7795 193.353L68.6517 189.93Z" fill="#E59E5E"/>
<path d="M10.2025 215.578L12.0746 219.001C12.5718 219.91 13.3193 220.657 14.2279 221.155L17.651 223.027L14.2279 224.899C13.3193 225.396 12.5718 226.143 12.0746 227.052L10.2025 230.475L8.33031 227.052C7.83313 226.143 7.08565 225.396 6.17701 224.899L2.75391 223.027L6.17701 221.155C7.08565 220.657 7.83313 219.91 8.33031 219.001L10.2025 215.578Z" fill="#E59E5E"/>
<path d="M41.7891 212.228L58.244 253.194L73.7731 213.614L56.5947 206.281L41.7891 212.228Z" fill="#D84882"/>
<path d="M73.7712 213.609L46.7109 224.479" stroke="#462C47" stroke-miterlimit="10"/>
<path d="M56.59 206.281L46.707 224.484" stroke="#462C47" stroke-miterlimit="10"/>
<path d="M41.7861 212.227L58.241 253.193L19.6484 235.353L26.9804 218.174L41.7861 212.227Z" fill="#D84882"/>
<path d="M46.7087 224.477L19.6484 235.346" stroke="#462C47" stroke-miterlimit="10"/>
<path d="M26.9805 218.172L46.7099 224.48L58.241 253.19" stroke="#462C47" stroke-miterlimit="10"/>
<path d="M27.436 183.266L18.8125 213.455L44.7984 197.994L38.3465 186.382L27.436 183.266Z" fill="#AF3359"/>
<path d="M44.8014 198L24.8594 192.305" stroke="#462C47" stroke-miterlimit="10"/>
<path d="M38.3495 186.383L24.8594 192.299" stroke="#462C47" stroke-miterlimit="10"/>
<path d="M27.4369 183.272L18.8134 213.462L4.91406 186.608L16.5263 180.156L27.4369 183.272Z" fill="#AF3359"/>
<path d="M24.8572 192.306L4.91406 186.609" stroke="#462C47" stroke-miterlimit="10"/>
<path d="M16.5273 180.156L24.8582 192.305L18.8144 213.462" stroke="#462C47" stroke-miterlimit="10"/>
<path d="M123.482 115.883L114.859 146.071L140.845 130.61L134.392 118.998L123.482 115.883Z" fill="#AF3359"/>
<path d="M140.846 130.602L120.902 124.906" stroke="#462C47" stroke-miterlimit="10"/>
<path d="M134.392 119L120.902 124.916" stroke="#462C47" stroke-miterlimit="10"/>
<path d="M123.479 115.882L114.856 146.071L100.957 119.218L112.568 112.766L123.479 115.882Z" fill="#AF3359"/>
<path d="M120.899 124.907L100.957 119.211" stroke="#462C47" stroke-miterlimit="10"/>
<path d="M112.57 112.766L120.901 124.914L114.858 146.071" stroke="#462C47" stroke-miterlimit="10"/>
<path d="M41.1758 32.9106L49.5775 63.1632L63.6734 36.4126L52.1091 29.875L41.1758 32.9106Z" fill="#AF3359"/>
<path d="M63.6757 36.4062L43.6914 41.9552" stroke="#462C47" stroke-miterlimit="10"/>
<path d="M52.1114 29.875L43.6914 41.9616" stroke="#462C47" stroke-miterlimit="10"/>
<path d="M41.1769 32.9062L49.5786 63.1588L23.707 47.5062L30.2447 35.9431L41.1769 32.9062Z" fill="#AF3359"/>
<path d="M43.6902 41.9531L23.707 47.5021" stroke="#462C47" stroke-miterlimit="10"/>
<path d="M30.2422 35.9453L43.6878 41.9595L49.5762 63.161" stroke="#462C47" stroke-miterlimit="10"/>
<path d="M154.614 194.461L145.57 226.126L172.826 209.908L166.059 197.729L154.614 194.461Z" fill="#AF3359"/>
<path d="M172.827 209.904L151.91 203.93" stroke="#462C47" stroke-miterlimit="10"/>
<path d="M166.06 197.727L151.91 203.932" stroke="#462C47" stroke-miterlimit="10"/>
<path d="M154.616 194.456L145.572 226.121L130.992 197.955L143.171 191.188L154.616 194.456Z" fill="#AF3359"/>
<path d="M151.91 203.935L130.992 197.961" stroke="#462C47" stroke-miterlimit="10"/>
<path d="M143.172 191.188L151.91 203.929L145.571 226.121" stroke="#462C47" stroke-miterlimit="10"/>
<path d="M153.574 168.188L164.58 187.726L169.772 166.763L160.634 164.211L153.574 168.188Z" fill="#D84882"/>
<path d="M169.772 166.766L156.867 174.036" stroke="#462C47" stroke-miterlimit="10"/>
<path d="M160.634 164.211L156.867 174.033" stroke="#462C47" stroke-miterlimit="10"/>
<path d="M153.574 168.188L164.58 187.725L143.961 181.303L146.513 172.165L153.574 168.188Z" fill="#D84882"/>
<path d="M156.867 174.039L143.961 181.309" stroke="#462C47" stroke-miterlimit="10"/>
<path d="M146.516 172.172L156.87 174.039L164.583 187.732" stroke="#462C47" stroke-miterlimit="10"/>
<path d="M59.4102 104.151L65.622 125.698L75.5016 106.494L67.197 101.906L59.4102 104.151Z" fill="#D84882"/>
<path d="M75.4987 106.492L61.2656 110.595" stroke="#462C47" stroke-miterlimit="10"/>
<path d="M67.1941 101.906L61.2656 110.597" stroke="#462C47" stroke-miterlimit="10"/>
<path d="M59.4098 104.156L65.6217 125.703L47.0352 114.706L51.6229 106.401L59.4098 104.156Z" fill="#D84882"/>
<path d="M61.2682 110.602L47.0352 114.705" stroke="#462C47" stroke-miterlimit="10"/>
<path d="M51.625 106.398L61.2703 110.6L65.6237 125.7" stroke="#462C47" stroke-miterlimit="10"/>
<path d="M55.1602 170.139L61.0555 188.042L68.7509 171.6L61.6304 168.008L55.1602 170.139Z" fill="#AF3359"/>
<path d="M68.749 171.602L56.9219 175.497" stroke="#462C47" stroke-miterlimit="10"/>
<path d="M61.6285 168.008L56.9219 175.495" stroke="#462C47" stroke-miterlimit="10"/>
<path d="M55.1612 170.141L61.0565 188.044L45.0977 179.392L48.6899 172.271L55.1612 170.141Z" fill="#AF3359"/>
<path d="M56.9248 175.492L45.0977 179.387" stroke="#462C47" stroke-miterlimit="10"/>
<path d="M48.6914 172.266L56.9263 175.491L61.058 188.038" stroke="#462C47" stroke-miterlimit="10"/>
<path d="M104.336 8.95312L97.6875 26.5921L113.998 18.6224L110.71 11.3567L104.336 8.95312Z" fill="#AF3359"/>
<path d="M114.003 18.6189L102.352 14.2266" stroke="#462C47" stroke-miterlimit="10"/>
<path d="M110.714 11.3672L102.352 14.2405" stroke="#462C47" stroke-miterlimit="10"/>
<path d="M104.339 8.94933L97.6906 26.5883L90.6992 9.83512L97.9649 6.54688L104.339 8.94933Z" fill="#AF3359"/>
<path d="M102.35 14.2349L90.6992 9.84375" stroke="#462C47" stroke-miterlimit="10"/>
<path d="M97.9618 6.54688L102.347 14.2263L97.6875 26.5883" stroke="#462C47" stroke-miterlimit="10"/>
<path d="M164.557 92.4219L165.319 93.8162C165.521 94.1866 165.827 94.4906 166.197 94.694L167.591 95.4564L166.197 96.2187C165.827 96.421 165.523 96.725 165.319 97.0953L164.557 98.4897L163.794 97.0953C163.592 96.725 163.287 96.421 162.918 96.2187L161.523 95.4564L162.918 94.694C163.288 94.4917 163.592 94.1877 163.794 93.8162L164.557 92.4219Z" fill="#E59E5E"/>
<path d="M164.824 152.375L165.586 153.769C165.788 154.14 166.093 154.444 166.464 154.647L167.858 155.41L166.464 156.172C166.093 156.374 165.789 156.678 165.586 157.05L164.824 158.444L164.061 157.05C163.859 156.679 163.554 156.375 163.183 156.172L161.789 155.41L163.183 154.647C163.554 154.445 163.858 154.141 164.061 153.769L164.824 152.375Z" fill="#E59E5E"/>
<path d="M98.8159 63.8594L100.201 66.3921C100.569 67.0653 101.122 67.6174 101.794 67.9854L104.327 69.3706L101.794 70.7559C101.122 71.1239 100.569 71.6771 100.201 72.3491L98.8159 74.8819L97.4307 72.3491C97.0627 71.6771 96.5095 71.1239 95.8374 70.7559L93.3047 69.3706L95.8374 67.9854C96.5095 67.6174 97.0627 67.0642 97.4307 66.3921L98.8159 63.8594Z" fill="#E59E5E"/>
<path d="M160.92 60.2969L163.201 64.4663C163.806 65.5738 164.716 66.4836 165.824 67.0894L169.993 69.3695L165.824 71.6497C164.716 72.2555 163.806 73.1652 163.201 74.2728L160.92 78.4422L158.64 74.2728C158.034 73.1652 157.125 72.2555 156.017 71.6497L151.848 69.3695L156.017 67.0894C157.125 66.4836 158.034 65.5738 158.64 64.4663L160.92 60.2969Z" fill="#AF3359"/>
<path d="M126.737 173.922L129.017 178.091C129.623 179.199 130.532 180.109 131.64 180.714L135.809 182.995L131.64 185.275C130.532 185.88 129.623 186.79 129.017 187.898L126.737 192.067L124.457 187.898C123.851 186.79 122.941 185.88 121.834 185.275L117.664 182.995L121.834 180.714C122.941 180.109 123.851 179.199 124.457 178.091L126.737 173.922Z" fill="#AF3359"/>
<path d="M8.55177 236.484L10.6216 240.268C11.1714 241.272 11.9966 242.098 13.0012 242.647L16.7844 244.717L13.0012 246.786C11.9966 247.335 11.1703 248.161 10.6216 249.165L8.55177 252.948L6.48305 249.165C5.93329 248.161 5.10809 247.334 4.10344 246.786L0.320312 244.717L4.10344 242.647C5.10809 242.097 5.93444 241.272 6.48305 240.268L8.55177 236.484Z" fill="#AF3359"/>
<path d="M28.1668 246.25L29.4423 248.583C29.7806 249.202 30.2904 249.712 30.9098 250.05L33.2426 251.326L30.9098 252.601C30.2904 252.94 29.7806 253.449 29.4423 254.069L28.1668 256.402L26.8901 254.069C26.5518 253.449 26.0421 252.94 25.4226 252.601L23.0898 251.326L25.4226 250.05C26.0421 249.711 26.5518 249.202 26.8901 248.583L28.1668 246.25Z" fill="#AF3359"/>
<path d="M109.236 233.547L110.511 235.88C110.85 236.499 111.36 237.009 111.979 237.347L114.312 238.624L111.979 239.899C111.36 240.238 110.85 240.747 110.511 241.367L109.236 243.7L107.96 241.367C107.622 240.747 107.112 240.238 106.493 239.899L104.16 238.624L106.493 237.347C107.112 237.009 107.622 236.499 107.96 235.88L109.236 233.547Z" fill="#AF3359"/>
</svg>
