<svg width="257" height="221" viewBox="0 0 257 221" fill="none" xmlns="http://www.w3.org/2000/svg">
<path d="M176.33 125.726L204.863 0H128.666H52.4652L80.9985 125.726L21.2031 151.79H128.666H236.127L176.33 125.726Z" fill="#5711A8"/>
<path d="M153.422 66.5506C154.635 55.4341 161.855 49.7646 167.863 46.9369C171.928 24.2277 162.633 10.1113 146.854 9.80541C137.392 9.61944 131.682 12.4837 128.434 17.4024C134.143 24.1286 139.578 34.0198 138.876 46.9508C138.876 46.9508 138.471 32.2469 125.717 23.927C124.45 29.2245 124.572 35.6952 125.346 42.7812C132.098 48.1622 138.412 56.2006 136.782 66.9034C136.782 66.9034 133.29 56.7394 126.38 50.5277C126.501 51.3324 126.632 52.144 126.765 52.9574C128.199 61.8249 128.736 69.6843 128.693 76.5982C134.858 82.1669 133.497 88.4273 133.497 88.4273C132.239 85.4917 130.424 83.4165 128.54 81.9287C127.393 104.148 120.23 114.812 120.23 114.812L125.57 118.857C149.438 93.3268 162.121 70.3152 166.747 52.0623C157.626 54.8988 153.422 66.5506 153.422 66.5506Z" fill="#FF9D00"/>
<path d="M177.946 124.195L184.028 98.1328H73.3164L79.3856 124.195H177.946Z" fill="#FFDE55"/>
<path d="M72.5876 9.4585L86.5371 86.6743C87.0898 89.7384 91.7495 88.4192 91.195 85.3655L77.2508 8.15322C76.6964 5.08732 72.0401 6.40998 72.5876 9.4585Z" fill="#8938E8"/>
<path d="M128.132 190.086L105.117 203.304C122.287 199.897 128.132 220.933 128.132 220.933C128.132 220.933 133.977 199.897 151.147 203.304L128.132 190.086Z" fill="#FF9D00"/>
<path d="M128.669 128.961C128.669 128.961 114.966 129.517 118.574 153.977C122.186 178.438 128.669 190.079 128.669 190.079C128.669 190.079 135.151 178.438 138.761 153.977C142.373 129.517 128.669 128.961 128.669 128.961Z" fill="#FFC32C"/>
<path d="M152.499 137.111C152.499 137.111 141.196 132.225 134.581 153.433C127.97 174.637 128.683 186.584 128.683 186.584C128.683 186.584 138.464 179.691 150.924 161.296C163.377 142.904 152.499 137.111 152.499 137.111Z" fill="#FF9D00"/>
<path d="M104.834 137.111C104.834 137.111 116.147 132.225 122.759 153.433C129.365 174.637 128.65 186.584 128.65 186.584C128.65 186.584 118.872 179.691 106.416 161.296C93.9593 142.904 104.834 137.111 104.834 137.111Z" fill="#FF9D00"/>
<path d="M211.79 150.129C158.344 122.835 128.67 183.101 128.67 183.101C128.67 183.101 99.0054 122.835 45.5555 150.129C-7.89257 177.422 18.2632 180.83 33.0469 183.101C47.8307 185.383 59.3 241.101 128.67 194.479C198.035 241.101 209.51 185.383 224.299 183.101C239.079 180.83 265.237 177.423 211.79 150.129ZM59.9969 172.995C85.6417 150.557 116.629 185.283 116.629 185.283C77.6276 207.184 59.9969 172.995 59.9969 172.995ZM140.71 185.283C140.71 185.283 171.701 150.557 197.344 172.995C197.344 172.995 179.72 207.184 140.71 185.283Z" fill="#FFC32C"/>
<path d="M37.0281 170.609C37.0281 173.28 34.8642 175.443 32.1928 175.443C29.5249 175.443 27.3594 173.28 27.3594 170.609C27.3594 167.938 29.5249 165.777 32.1928 165.777C34.8642 165.776 37.0281 167.938 37.0281 170.609Z" fill="#FFDE55"/>
<path d="M48.9679 162.652C48.9679 164.378 47.5671 165.779 45.8412 165.779C44.1136 165.779 42.7109 164.378 42.7109 162.652C42.7109 160.923 44.1136 159.527 45.8412 159.527C47.5688 159.527 48.9679 160.923 48.9679 162.652Z" fill="#FFDE55"/>
<path d="M59.7655 157.816C59.7655 158.756 59.0007 159.523 58.0587 159.523C57.1184 159.523 56.3555 158.756 56.3555 157.816C56.3555 156.874 57.1202 156.109 58.0587 156.109C59.0025 156.109 59.7655 156.874 59.7655 157.816Z" fill="#FFDE55"/>
<path d="M72.1613 154.404C72.1613 155.346 71.3949 156.107 70.4528 156.107C69.5108 156.107 68.7461 155.344 68.7461 154.404C68.7461 153.464 69.5091 152.695 70.4528 152.695C71.3966 152.695 72.1613 153.462 72.1613 154.404Z" fill="#FFDE55"/>
<path d="M220.316 170.609C220.316 173.28 222.479 175.443 225.148 175.443C227.814 175.443 229.982 173.28 229.982 170.609C229.982 167.938 227.814 165.777 225.148 165.777C222.479 165.776 220.316 167.938 220.316 170.609Z" fill="#FFDE55"/>
<path d="M208.383 162.652C208.383 164.378 209.782 165.779 211.511 165.779C213.234 165.779 214.635 164.378 214.635 162.652C214.635 160.923 213.234 159.527 211.511 159.527C209.782 159.527 208.383 160.923 208.383 162.652Z" fill="#FFDE55"/>
<path d="M197.574 157.816C197.574 158.756 198.337 159.523 199.283 159.523C200.221 159.523 200.986 158.756 200.986 157.816C200.986 156.874 200.221 156.109 199.283 156.109C198.337 156.109 197.574 156.874 197.574 157.816Z" fill="#FFDE55"/>
<path d="M185.188 154.404C185.188 155.346 185.95 156.107 186.894 156.107C187.841 156.107 188.603 155.344 188.603 154.404C188.603 153.464 187.84 152.695 186.894 152.695C185.95 152.695 185.188 153.462 185.188 154.404Z" fill="#FFDE55"/>
<path d="M50.62 212.687C50.62 212.687 0.291675 226.628 0.674043 214.938C1.08074 202.445 1.08074 202.445 50.62 212.687Z" fill="#7D1ED8"/>
<path d="M206.461 212.687C206.461 212.687 256.789 226.628 256.403 214.938C256 202.445 256 202.445 206.461 212.687Z" fill="#7D1ED8"/>
<path d="M209.387 207.205C209.387 207.205 261.206 200.701 256.352 190.065C251.166 178.687 251.166 178.687 209.387 207.205Z" fill="#5711A8"/>
<path d="M48.182 207.205C48.182 207.205 -3.63583 200.701 1.21503 190.065C6.3996 178.687 6.39961 178.687 48.182 207.205Z" fill="#5711A8"/>
</svg>
