<svg width="257" height="131" viewBox="0 0 257 131" fill="none" xmlns="http://www.w3.org/2000/svg">
<path d="M225.061 18.8419C225.061 18.8419 222.003 47.2851 204.569 31.6874C204.569 31.6874 188.054 16.3949 173.985 16.3949C173.985 16.3949 161.635 15.5077 152.326 26.029C152.304 25.9553 152.274 25.885 152.25 25.8122C152.313 25.11 152.35 24.3996 152.35 23.6811C152.35 10.6023 141.748 0 128.669 0C115.59 0 104.988 10.6023 104.988 23.6811C104.988 24.3996 105.026 25.1092 105.088 25.8122C105.064 25.885 105.035 25.9553 105.012 26.029C95.7033 15.5077 83.3538 16.3949 83.3538 16.3949C69.2848 16.3949 52.7696 31.6874 52.7696 31.6874C35.3362 47.2851 32.2779 18.8419 32.2779 18.8419C18.4748 120.831 109.401 100.045 109.416 100.041L119.06 111.537L128.705 123.033L138.35 111.537L147.922 100.128C147.924 100.129 238.866 120.839 225.061 18.8419ZM80.2357 74.536C63.8654 67.3865 55.5595 50.2232 55.5595 50.2232C55.5595 50.2232 73.795 44.6516 90.1653 51.801C106.536 58.9505 114.841 76.1139 114.841 76.1139C114.841 76.1139 96.606 81.6855 80.2357 74.536ZM177.009 74.536C160.639 81.6855 142.403 76.1147 142.403 76.1147C142.403 76.1147 150.71 58.9513 167.08 51.8018C183.45 44.6524 201.685 50.224 201.685 50.224C201.685 50.224 193.379 67.3865 177.009 74.536Z" fill="#00ACC1"/>
<path opacity="0.43" d="M225.064 18.8419C225.064 18.8419 222.006 47.2851 204.572 31.6874C204.572 31.6874 188.057 16.3949 173.988 16.3949C173.988 16.3949 161.638 15.5077 152.329 26.029C152.307 25.9553 152.277 25.885 152.253 25.8122C152.316 25.11 152.353 24.3996 152.353 23.6811C152.353 10.6023 141.751 0 128.672 0V122.991L128.708 123.034L138.353 111.538L147.925 100.129C147.927 100.129 238.869 120.839 225.064 18.8419ZM177.012 74.536C160.642 81.6855 142.406 76.1147 142.406 76.1147C142.406 76.1147 150.713 58.9513 167.082 51.8018C183.453 44.6524 201.688 50.224 201.688 50.224C201.688 50.224 193.382 67.3865 177.012 74.536Z" fill="white"/>
<path d="M143.305 23.1016C143.305 31.1833 128.672 60.7895 128.672 60.7895C128.672 60.7895 114.039 31.1833 114.039 23.1016C114.039 15.02 120.59 8.46875 128.672 8.46875C136.754 8.46793 143.305 15.02 143.305 23.1016Z" fill="#EF2787"/>
<path d="M132.237 31.3179C136.975 29.3707 139.238 23.9508 137.291 19.2122C135.344 14.4736 129.924 12.2107 125.185 14.1579C120.447 16.1051 118.184 21.525 120.131 26.2636C122.078 31.0022 127.498 33.2651 132.237 31.3179Z" fill="#00ACC1"/>
<path d="M149.903 50.313C149.903 51.841 148.665 53.0792 147.137 53.0792C145.609 53.0792 144.371 51.841 144.371 50.313C144.371 48.7851 145.609 47.5469 147.137 47.5469C148.664 47.5469 149.903 48.7851 149.903 50.313Z" fill="#FDD835"/>
<path d="M163.583 38.5552C163.583 40.0832 162.345 41.3214 160.817 41.3214C159.289 41.3214 158.051 40.0832 158.051 38.5552C158.051 37.0273 159.289 35.7891 160.817 35.7891C162.345 35.7891 163.583 37.0273 163.583 38.5552Z" fill="#FDD835"/>
<path d="M178.645 35.0402C180.173 35.0402 181.411 33.8017 181.411 32.274C181.411 30.7463 180.173 29.5078 178.645 29.5078C177.117 29.5078 175.879 30.7463 175.879 32.274C175.879 33.8017 177.117 35.0402 178.645 35.0402Z" fill="#FDD835"/>
<path d="M200.716 38.5552C200.716 40.0832 199.478 41.3214 197.95 41.3214C196.422 41.3214 195.184 40.0832 195.184 38.5552C195.184 37.0273 196.422 35.7891 197.95 35.7891C199.477 35.7891 200.716 37.0273 200.716 38.5552Z" fill="#FDD835"/>
<path d="M107.441 50.313C107.441 51.841 108.68 53.0792 110.208 53.0792C111.736 53.0792 112.974 51.841 112.974 50.313C112.974 48.7851 111.736 47.5469 110.208 47.5469C108.68 47.5469 107.441 48.7851 107.441 50.313Z" fill="#FDD835"/>
<path d="M93.7656 38.5552C93.7656 40.0832 95.0039 41.3214 96.5318 41.3214C98.0597 41.3214 99.298 40.0832 99.298 38.5552C99.298 37.0273 98.0597 35.7891 96.5318 35.7891C95.0039 35.7891 93.7656 37.0273 93.7656 38.5552Z" fill="#FDD835"/>
<path d="M75.9336 32.274C75.9336 33.8019 77.1718 35.0402 78.6998 35.0402C80.2277 35.0402 81.4659 33.8019 81.4659 32.274C81.4659 30.746 80.2277 29.5078 78.6998 29.5078C77.1718 29.5078 75.9336 30.746 75.9336 32.274Z" fill="#FDD835"/>
<path d="M56.625 38.5552C56.625 40.0832 57.864 41.3214 59.3911 41.3214C60.9191 41.3214 62.1573 40.0832 62.1573 38.5552C62.1573 37.0273 60.9191 35.7891 59.3911 35.7891C57.8632 35.7891 56.625 37.0273 56.625 38.5552Z" fill="#FDD835"/>
<path d="M54.2695 69.7539C54.2695 69.7539 78.7951 98.2888 119.829 86.026C119.829 86.026 77.3801 111.024 54.2695 69.7539Z" fill="#FDD835"/>
<path d="M203.072 69.7539C203.072 69.7539 178.545 98.2888 137.512 86.026C137.512 86.026 179.96 111.024 203.072 69.7539Z" fill="#FDD835"/>
<path d="M244.042 76.9727C244.042 76.9727 216.001 86.9325 215.27 130.746C215.27 130.746 229.46 98.2484 251.835 101.058" fill="#FDD835"/>
<path d="M244.014 76.9609L240.102 84.8863L231.355 86.1572L237.684 92.3263L236.191 101.037L244.014 96.924L251.836 101.037L250.342 92.3263L256.671 86.1572L247.925 84.8863L244.014 76.9609Z" fill="#EF2787"/>
<path d="M13.3014 76.9727C13.3014 76.9727 41.342 86.9325 42.0736 130.746C42.0736 130.746 27.8827 98.2484 5.50781 101.058" fill="#FDD835"/>
<path d="M13.3291 76.9609L17.2411 84.8863L25.9864 86.1572L19.6578 92.3263L21.1522 101.037L13.3291 96.924L5.50613 101.037L7.00051 92.3263L0.671875 86.1572L9.41805 84.8863L13.3291 76.9609Z" fill="#EF2787"/>
</svg>
