<svg width="257" height="221" viewBox="0 0 257 221" fill="none" xmlns="http://www.w3.org/2000/svg">
<path d="M152.944 115.621C152.944 110.042 148.442 105.519 142.873 105.477L142.872 105.474C142.872 105.474 142.839 105.474 142.815 105.475C142.808 105.475 142.802 105.474 142.796 105.474C142.763 105.474 142.731 105.478 142.699 105.478C142.63 105.481 142.543 105.485 142.433 105.492C141.944 105.51 141.465 105.559 140.997 105.643C140.92 105.654 140.838 105.667 140.757 105.679C140.755 105.679 140.752 105.679 140.75 105.681C138.02 106.102 133.066 107.392 128.383 111.377C128.383 111.377 119.584 105.374 113.894 105.474L113.893 105.477C113.868 105.477 113.844 105.474 113.819 105.474C108.214 105.474 103.672 110.017 103.672 115.621C103.672 119.178 105.505 122.303 108.275 124.114C111.701 126.82 126.517 138.486 128.316 139.343L148.365 124.106L148.364 124.101C151.121 122.286 152.944 119.168 152.944 115.621Z" fill="#EF2787"/>
<path d="M128.324 99.4518C128.324 99.4518 122.249 12.7592 199.089 9.15625C199.089 9.15625 136.551 41.6675 142.206 99.4518H128.324Z" fill="#00ACC1"/>
<path d="M136.171 125.83C136.171 125.83 142.248 39.137 65.4062 35.5352C65.4062 35.5352 127.944 68.0464 122.289 125.83H136.171Z" fill="#AB47BC"/>
<path d="M128.148 149.815C128.148 149.815 134.223 63.1225 57.3828 59.5195C57.3828 59.5195 119.921 92.0308 114.266 149.815H128.148Z" fill="#00ACC1"/>
<path d="M121.745 172.228C121.745 172.228 127.822 85.5354 50.9805 81.9336C50.9805 81.9336 113.518 114.445 107.863 172.228H121.745Z" fill="#FDD835"/>
<path d="M137.879 159.986C137.879 159.986 131.804 73.2932 208.644 69.6914C208.644 69.6914 146.106 102.203 151.761 159.986H137.879Z" fill="#AB47BC"/>
<path d="M139.129 122.409C139.129 122.409 133.053 35.7162 209.894 32.1133C209.894 32.1133 147.356 64.6245 153.011 122.409H139.129Z" fill="#FDD835"/>
<path d="M28.7539 131.686C28.7539 131.686 70.6149 86.5955 128.26 151.43C128.26 151.43 180.643 87.2367 226.992 136.489" stroke="#F0EE4B" stroke-width="2" stroke-miterlimit="10"/>
<path d="M119.497 105.804C119.497 105.804 110.39 30.7975 146.284 0C146.284 0 120.422 80.7805 141.271 107.46C162.12 134.14 140.363 118.503 140.363 118.503L121.273 115.202L119.497 105.804Z" fill="#AB47BC"/>
<path d="M254.804 102.552C254.804 102.552 250.802 139.772 227.989 119.361C227.989 119.361 206.377 99.3499 187.968 99.3499C187.968 99.3499 171.808 98.1891 159.627 111.956C157.394 104.644 150.597 99.3242 142.553 99.3242C136.944 99.3242 120.398 99.3242 114.789 99.3242C106.746 99.3242 99.9493 104.644 97.7149 111.956C85.5343 98.1891 69.3741 99.3499 69.3741 99.3499C50.964 99.3499 29.3531 119.361 29.3531 119.361C6.54129 139.772 2.53841 102.552 2.53841 102.552C-15.5243 236.01 103.457 208.811 103.476 208.806L103.571 208.92C116.689 224.556 140.746 224.556 153.864 208.92C153.864 208.92 272.868 236.021 254.804 102.552ZM65.2919 175.43C43.871 166.075 33.0019 143.616 33.0019 143.616C33.0019 143.616 56.8639 136.325 78.2848 145.681C99.7058 155.036 110.575 177.495 110.575 177.495C110.575 177.495 86.7129 184.787 65.2919 175.43ZM191.925 175.43C170.504 184.786 146.642 177.496 146.642 177.496C146.642 177.496 157.511 155.037 178.933 145.682C200.354 136.327 224.216 143.617 224.216 143.617C224.216 143.617 213.346 166.075 191.925 175.43Z" fill="#EF2787"/>
<path opacity="0.3" d="M254.805 102.552C254.805 102.552 250.803 139.772 227.99 119.361C227.99 119.361 206.378 99.3499 187.969 99.3499C187.969 99.3499 171.809 98.1891 159.628 111.956C157.395 104.644 150.598 99.3242 142.554 99.3242C136.945 99.3242 128.672 99.3242 128.672 99.3242V220.646C138.724 220.603 147.383 216.402 153.866 208.919C153.866 208.919 272.868 236.021 254.805 102.552ZM191.926 175.43C170.505 184.786 146.643 177.496 146.643 177.496C146.643 177.496 157.512 155.037 178.934 145.682C200.355 136.327 224.217 143.617 224.217 143.617C224.217 143.617 213.347 166.075 191.926 175.43Z" fill="white"/>
<path d="M136.171 99.4518C136.171 99.4518 142.248 12.7592 65.4062 9.15625C65.4062 9.15625 127.944 41.6675 122.289 99.4518H136.171Z" fill="#FDD835"/>
<path d="M146.645 177.498C146.645 177.498 151.346 117.184 224.219 143.618C224.219 143.618 174.807 126.962 146.645 177.498Z" fill="#FDD835"/>
<path d="M110.574 177.486C110.574 177.486 105.873 117.173 33 143.606C33 143.606 82.4132 126.951 110.574 177.486Z" fill="#FDD835"/>
<path d="M21.1747 136.997C21.1747 138.692 19.8005 140.066 18.1069 140.066C16.4121 140.066 15.0391 138.692 15.0391 136.997C15.0391 135.303 16.4132 133.93 18.1069 133.93C19.8005 133.93 21.1747 135.303 21.1747 136.997Z" fill="white"/>
<path d="M25.7098 159.986C25.7098 161.681 24.3357 163.054 22.642 163.054C20.9472 163.054 19.5742 161.679 19.5742 159.986C19.5742 158.292 20.9484 156.918 22.642 156.918C24.3357 156.918 25.7098 158.291 25.7098 159.986Z" fill="white"/>
<path d="M39.0536 179.1C39.0536 180.795 37.6794 182.168 35.9858 182.168C34.291 182.168 32.918 180.794 32.918 179.1C32.918 177.405 34.2921 176.031 35.9858 176.031C37.6794 176.032 39.0536 177.405 39.0536 179.1Z" fill="white"/>
<path d="M59.1992 191.772C59.1992 193.467 57.8251 194.841 56.1314 194.841C54.4367 194.841 53.0625 193.467 53.0625 191.772C53.0625 190.077 54.4367 188.703 56.1314 188.703C57.8251 188.704 59.1992 190.077 59.1992 191.772Z" fill="white"/>
<path d="M85.077 194.842C85.077 196.537 83.7029 197.91 82.0092 197.91C80.3144 197.91 78.9414 196.536 78.9414 194.842C78.9414 193.148 80.3155 191.773 82.0092 191.773C83.704 191.773 85.077 193.148 85.077 194.842Z" fill="white"/>
<path d="M112.789 193.638C112.789 195.333 111.415 196.706 109.72 196.706C108.025 196.706 106.652 195.332 106.652 193.638C106.652 191.944 108.026 190.57 109.72 190.57C111.416 190.569 112.789 191.943 112.789 193.638Z" fill="white"/>
<path d="M236.172 136.997C236.172 138.692 237.546 140.066 239.24 140.066C240.934 140.066 242.307 138.692 242.307 136.997C242.307 135.303 240.933 133.93 239.24 133.93C237.546 133.93 236.172 135.303 236.172 136.997Z" fill="white"/>
<path d="M231.637 159.986C231.637 161.681 233.011 163.054 234.705 163.054C236.399 163.054 237.772 161.679 237.772 159.986C237.772 158.292 236.398 156.918 234.705 156.918C233.011 156.918 231.637 158.291 231.637 159.986Z" fill="white"/>
<path d="M218.293 179.1C218.293 180.795 219.667 182.168 221.362 182.168C223.057 182.168 224.43 180.794 224.43 179.1C224.43 177.405 223.056 176.031 221.362 176.031C219.666 176.032 218.293 177.405 218.293 179.1Z" fill="white"/>
<path d="M201.216 194.839C202.911 194.839 204.284 193.465 204.284 191.771C204.284 190.077 202.911 188.703 201.216 188.703C199.522 188.703 198.148 190.077 198.148 191.771C198.148 193.465 199.522 194.839 201.216 194.839Z" fill="white"/>
<path d="M172.266 194.842C172.266 196.537 173.64 197.91 175.335 197.91C177.029 197.91 178.402 196.536 178.402 194.842C178.402 193.148 177.028 191.773 175.335 191.773C173.639 191.773 172.266 193.148 172.266 194.842Z" fill="white"/>
<path d="M144.555 193.638C144.555 195.333 145.929 196.706 147.622 196.706C149.316 196.706 150.691 195.332 150.691 193.638C150.691 191.944 149.317 190.57 147.622 190.57C145.928 190.57 144.555 191.943 144.555 193.638Z" fill="white"/>
<path d="M128.672 139.345L112.624 115.1C110.67 112.147 112.787 108.207 116.327 108.207H141.018C144.559 108.207 146.676 112.147 144.722 115.1L128.672 139.345Z" fill="#FDD835"/>
<path d="M151.643 138.621C151.643 138.621 155.764 118.045 180.777 116.426C175.863 126.118 168.51 134.343 159.477 140.384C155.766 142.864 151.998 146.027 149.391 149.814L151.643 138.621Z" fill="#FDD835"/>
<path d="M182.621 127.799C182.621 127.799 190.401 115.8 206.652 121.06C201.104 125.966 194.381 129.327 187.14 130.883C184.168 131.522 180.986 132.579 178.383 134.323L182.621 127.799Z" fill="#FDD835"/>
<path d="M208.366 129.91C208.366 129.91 215.08 123.696 224.327 129.515C220.115 131.684 215.416 132.709 210.682 132.533C208.738 132.461 206.599 132.614 204.711 133.286L208.366 129.91Z" fill="#FDD835"/>
<path d="M105.704 138.621C105.704 138.621 101.583 118.045 76.5703 116.426C81.4837 126.118 88.837 134.343 97.8706 140.384C101.581 142.864 105.349 146.027 107.957 149.814L105.704 138.621Z" fill="#FDD835"/>
<path d="M74.7182 127.799C74.7182 127.799 66.9381 115.8 50.6875 121.06C56.2355 125.966 62.9587 129.327 70.1992 130.883C73.172 131.522 76.3538 132.579 78.9568 134.323L74.7182 127.799Z" fill="#FDD835"/>
<path d="M48.9719 129.91C48.9719 129.91 42.2587 123.696 33.0117 129.515C37.2235 131.684 41.9224 132.709 46.6559 132.533C48.5998 132.461 50.7392 132.614 52.6273 133.286L48.9719 129.91Z" fill="#FDD835"/>
</svg>
