<svg width="257" height="231" viewBox="0 0 257 231" fill="none" xmlns="http://www.w3.org/2000/svg">
<path d="M219.942 47.9614C206.339 41.7216 194.469 77.0429 158.763 85.1835C133.066 91.0463 99.4049 90.0037 75.2558 81.2937C73.2908 80.5879 71.398 79.826 69.5694 79.0159C64.7733 76.8954 60.488 74.4123 56.8532 71.5763C54.8209 76.7141 53.042 81.9698 51.5454 87.3145C48.0341 99.7195 46.0708 112.596 45.6738 125.573C45.4652 132.065 45.7916 138.571 46.4164 145.061L46.9987 149.921C47.1976 151.542 47.5192 153.143 47.7735 154.757L48.1793 157.177C48.318 157.983 48.5178 158.776 48.6838 159.577L49.7288 164.377C52.876 177.101 57.6713 189.48 63.8902 201.174C56.8083 189.989 51.0209 177.904 46.8351 165.196L45.3995 160.388C45.1677 159.584 44.903 158.787 44.6993 157.976L44.097 155.537C43.7112 153.907 43.258 152.287 42.9276 150.643L41.9515 145.701C40.803 139.084 39.9561 132.384 39.6601 125.639C39.0482 112.156 40.07 98.5405 42.7712 85.2164C43.7008 80.5702 44.8308 75.9586 46.1462 71.3902C40.7244 74.1837 32.3424 77.3661 23.2771 76.5858C23.0445 76.5617 22.8119 76.5457 22.5793 76.5136C7.72575 74.9256 2.26394 64.3147 1.7346 60.5211C1.72658 60.481 1.72658 60.4329 1.71856 60.3928C1.71856 60.3928 1.71054 60.4409 1.70252 60.5291C1.30952 63.3924 -4.75382 111.362 17.7752 156.099C27.3354 175.083 42.0446 193.481 64.5094 207.613C74.639 212.947 147.471 211.479 191.872 157.093C237.466 101.24 233.553 54.2011 219.942 47.9614ZM169.935 116.952C161.474 101.802 178.99 89.0734 191.919 78.8635C210.077 64.5313 213.814 47.9453 221.265 51.6988C228.716 55.4603 228.09 79.5533 221.129 96.2756C211.817 118.644 180.691 136.201 169.935 116.952Z" fill="url(#paint0_linear_21_5)"/>
<path d="M23.0882 71.7255L23.235 71.7431C23.3152 71.7544 23.3946 71.76 23.474 71.7672L23.6969 71.788C24.1188 71.8241 24.5383 71.8458 24.9569 71.8618C29.6833 64.5217 38.4158 57.9643 45.7078 52.2081C63.8657 37.8759 67.6032 21.2819 75.054 25.0434C82.5129 28.7969 81.8873 52.8898 74.9177 69.6121C74.1646 71.4207 73.2591 73.1924 72.2453 74.9192C73.7772 75.5792 75.3299 76.204 76.8811 76.7614C76.8915 76.7654 76.9027 76.7686 76.9132 76.7727C87.3564 46.8329 82.618 25.3786 73.7387 21.3067C60.1283 15.0589 48.2583 50.3883 12.56 58.5289C10.5765 58.9812 8.54419 59.3871 6.47656 59.7544L6.50544 59.8996C6.80299 61.6969 10.6768 70.3973 23.0882 71.7255Z" fill="url(#paint1_linear_21_5)"/>
<path d="M69.1562 205.17C69.1562 205.17 130.315 216.978 195.843 147.628C195.843 147.628 162.261 115.411 119.941 121.691C77.6209 127.971 69.1562 205.17 69.1562 205.17Z" fill="url(#paint2_radial_21_5)"/>
<path d="M175.915 204.647C121.946 239.078 60.0217 240.073 29.6248 204.11C21.4521 194.453 16.295 182.984 13.9531 170.48C15.7497 176.712 18.3643 182.583 21.8531 187.997C23.3208 190.283 24.9489 192.488 26.7294 194.597C55.9714 229.189 117.078 226.494 168.392 190.291V197.052C168.392 198.231 168.665 199.345 169.138 200.34C170.357 202.866 172.931 204.623 175.915 204.647Z" fill="url(#paint3_linear_21_5)"/>
<path d="M236.946 142.297C235.735 141.158 234.115 140.468 232.334 140.468H225.718C222.044 140.525 219.077 143.524 219.077 147.213V148.834H217.457C213.735 148.834 210.704 151.865 210.704 155.579V157.88C209.878 157.56 208.979 157.391 208.041 157.391H203.846C238.887 114.635 247.108 62.2786 220.489 30.791C199.78 6.29701 163.127 0.490317 125.28 12.0315C115.439 15.0311 105.534 19.2017 95.7891 24.5191C149.156 -8.31596 209.605 -8.73302 239.521 26.6605C264.055 55.6859 261.44 100.952 236.946 142.297Z" fill="url(#paint4_linear_21_5)"/>
<path opacity="0.3" d="M168.39 197.051C168.39 198.23 168.663 199.345 169.136 200.339C118.023 234.297 58.9695 235.572 30.1125 200.7C26.8482 196.754 24.1053 192.503 21.8516 187.996C23.3193 190.282 24.9474 192.487 26.7279 194.597C55.9699 229.188 117.076 226.493 168.39 190.29V197.051Z" fill="url(#paint5_radial_21_5)"/>
<path opacity="0.3" d="M225.719 140.47C222.046 140.526 219.079 143.526 219.079 147.215V148.835H217.458C213.737 148.835 210.705 151.867 210.705 155.58V157.882C209.879 157.561 208.981 157.393 208.043 157.393H203.848C238.889 114.636 247.109 62.28 220.49 30.7924C199.782 6.29839 163.129 0.491703 125.281 12.0329C165.704 -2.14697 205.564 3.33891 227.692 30.0786C250.63 57.7967 248.345 100.922 225.719 140.47Z" fill="url(#paint6_radial_21_5)"/>
<path d="M226.076 181.439H209.623V164.985C209.623 164.115 208.917 163.41 208.047 163.41H194.007C193.137 163.41 192.431 164.115 192.431 164.985V181.439H175.978C175.107 181.439 174.402 182.144 174.402 183.014V197.054C174.402 197.924 175.108 198.629 175.978 198.629H192.431V215.082C192.431 215.953 193.137 216.658 194.007 216.658H208.047C208.917 216.658 209.623 215.953 209.623 215.082V198.629H226.076C226.946 198.629 227.651 197.924 227.651 197.054V183.014C227.651 182.144 226.946 181.439 226.076 181.439Z" fill="url(#paint7_linear_21_5)"/>
<path d="M240.709 154.852H233.073V147.216C233.073 146.812 232.745 146.484 232.341 146.484H225.826C225.421 146.484 225.094 146.812 225.094 147.216V154.852H217.458C217.054 154.852 216.727 155.179 216.727 155.583V162.099C216.727 162.503 217.054 162.831 217.458 162.831H225.094V170.467C225.094 170.871 225.421 171.198 225.826 171.198H232.341C232.745 171.198 233.073 170.871 233.073 170.467V162.831H240.709C241.112 162.831 241.44 162.503 241.44 162.099V155.583C241.44 155.179 241.113 154.852 240.709 154.852Z" fill="url(#paint8_linear_21_5)"/>
<defs>
<linearGradient id="paint0_linear_21_5" x1="198.621" y1="2.06917" x2="27.839" y2="181.451" gradientUnits="userSpaceOnUse">
<stop stop-color="#60C4DB"/>
<stop offset="1" stop-color="#1E7C8F"/>
</linearGradient>
<linearGradient id="paint1_linear_21_5" x1="107.288" y1="-6.77975" x2="34.7979" y2="76.1532" gradientUnits="userSpaceOnUse">
<stop stop-color="#60C4DB"/>
<stop offset="1" stop-color="#1E7C8F"/>
</linearGradient>
<radialGradient id="paint2_radial_21_5" cx="0" cy="0" r="1" gradientUnits="userSpaceOnUse" gradientTransform="translate(148.589 209.961) rotate(59.7939) scale(79.2182 72.551)">
<stop stop-color="white" stop-opacity="0.3"/>
<stop offset="0.9066" stop-color="white" stop-opacity="0.028"/>
<stop offset="1" stop-color="white" stop-opacity="0"/>
</radialGradient>
<linearGradient id="paint3_linear_21_5" x1="106.723" y1="155.849" x2="73.7091" y2="244.662" gradientUnits="userSpaceOnUse">
<stop stop-color="#60C4DB"/>
<stop offset="1" stop-color="#1E7C8F"/>
</linearGradient>
<linearGradient id="paint4_linear_21_5" x1="205.828" y1="-19.1264" x2="138.264" y2="162.635" gradientUnits="userSpaceOnUse">
<stop stop-color="#60C4DB"/>
<stop offset="1" stop-color="#1E7C8F"/>
</linearGradient>
<radialGradient id="paint5_radial_21_5" cx="0" cy="0" r="1" gradientUnits="userSpaceOnUse" gradientTransform="translate(193.149 182.282) scale(48.6892 48.6892)">
<stop stop-color="white"/>
<stop offset="0.9066" stop-color="white" stop-opacity="0.0934"/>
<stop offset="1" stop-color="white" stop-opacity="0"/>
</radialGradient>
<radialGradient id="paint6_radial_21_5" cx="0" cy="0" r="1" gradientUnits="userSpaceOnUse" gradientTransform="translate(263.157 -18.4319) scale(172.127 172.127)">
<stop stop-color="white"/>
<stop offset="0.9066" stop-color="white" stop-opacity="0.0934"/>
<stop offset="1" stop-color="white" stop-opacity="0"/>
</radialGradient>
<linearGradient id="paint7_linear_21_5" x1="215.494" y1="169.231" x2="153.789" y2="257.966" gradientUnits="userSpaceOnUse">
<stop stop-color="#60C4DB"/>
<stop offset="1" stop-color="#1E7C8F"/>
</linearGradient>
<linearGradient id="paint8_linear_21_5" x1="243.345" y1="141.073" x2="193.38" y2="203.324" gradientUnits="userSpaceOnUse">
<stop stop-color="#60C4DB"/>
<stop offset="1" stop-color="#1E7C8F"/>
</linearGradient>
</defs>
</svg>
