<svg width="257" height="229" viewBox="0 0 257 229" fill="none" xmlns="http://www.w3.org/2000/svg">
<path d="M206.178 66.7019C206.102 67.3796 205.651 67.6054 205.048 67.1537C204.521 66.8525 202.564 64.9702 199.401 64.7443C193.98 64.3678 188.258 67.1537 184.644 70.8431C176.06 79.6524 172.823 87.2571 167.1 93.9583C164.691 96.8194 161.905 99.4547 158.14 101.939C154.15 104.575 148.879 103.445 145.566 100.584C135.853 92.4524 145.34 76.6407 151.138 69.3372C161.227 56.5373 171.994 50.6643 181.256 49.3844C191.495 48.0291 200.154 52.0949 204.07 59.022C205.801 62.1843 206.328 65.6478 206.178 66.7019Z" fill="#A34896"/>
<g style="mix-blend-mode:multiply" opacity="0.25">
<path d="M168.154 89.9701C167.954 91.3253 167.602 92.6555 167.1 93.9606C164.691 96.8218 161.905 99.4571 158.14 101.942C154.15 104.577 148.879 103.448 145.566 100.586C135.853 92.4548 145.34 76.6431 151.138 69.3396C161.227 56.5396 171.994 50.6667 181.256 49.3867C179.75 53.0008 175.081 57.2173 172.747 59.6267C168.983 63.3161 167.627 66.2525 166.573 69.7913C164.992 75.2878 169.585 80.8595 168.154 89.9701Z" fill="#A34896"/>
</g>
<path d="M191.268 56.6133L188.407 58.1192L185.546 59.625C183.688 60.6791 181.881 61.7834 180.124 62.938C176.586 65.3474 173.197 67.9073 170.11 70.8438C166.948 73.705 164.087 76.792 161.452 80.1802C160.849 81.0085 160.172 81.8367 159.569 82.7402L157.762 85.3755L156.106 88.0861C155.554 89.0398 155.001 89.9684 154.449 90.8719C154.851 89.868 155.277 88.8892 155.729 87.9355L157.16 84.999C157.612 84.0202 158.214 83.1167 158.741 82.2132C159.343 81.2343 159.946 80.4061 160.548 79.5026C162.957 75.8885 165.894 72.6509 169.056 69.7144C172.294 66.7779 175.757 64.1427 179.522 61.9591C183.211 59.7756 187.127 57.8933 191.268 56.6133Z" fill="#61255B"/>
<path d="M209.64 73.632C205.047 76.1167 199.55 72.2014 200.454 67.0062C201.056 63.5427 204.369 61.2838 207.757 61.8862C213.404 62.865 214.91 70.8462 209.64 73.632Z" fill="#68BD9F"/>
<path d="M206.328 64.8995C207.006 64.7489 207.683 64.9748 208.361 65.276C208.963 65.5771 209.49 66.1042 209.942 66.7065C210.319 67.3842 210.469 68.1371 210.394 68.8148C210.319 69.5677 210.018 70.1701 209.566 70.6971C209.415 70.0195 209.34 69.4171 209.189 68.8901C209.039 68.3881 208.838 67.9112 208.587 67.4595C208.06 66.6312 207.307 65.8783 206.328 64.8995Z" fill="white"/>
<g style="mix-blend-mode:multiply" opacity="0.25">
<path d="M209.64 73.6326C205.047 76.1172 199.55 72.202 200.454 67.0067C200.906 64.3714 202.939 62.4138 205.423 61.8867C204.294 65.1996 203.842 70.2443 209.64 73.6326Z" fill="#68BD9F"/>
</g>
<path d="M50.4702 40.127C50.3196 40.8047 50.6961 41.1812 51.449 40.9553C51.9761 40.8047 54.4608 39.7506 57.4725 40.5788C62.8184 42.0094 67.1854 46.527 69.369 51.1952C74.6395 62.3387 75.1666 70.621 78.3289 78.828C79.6089 82.2916 81.416 85.7551 84.1265 89.3692C86.9877 93.1339 92.3336 93.8115 96.4747 92.2303C108.296 87.7127 104.531 69.7175 101.519 60.8328C96.3241 45.4729 88.0418 36.3623 79.7595 32.0706C70.5737 27.4024 61.0113 28.3812 55.0631 33.5765C52.2773 35.9859 50.6961 39.0729 50.4702 40.127Z" fill="#A34896"/>
<g style="mix-blend-mode:multiply" opacity="0.25">
<path d="M78.6301 74.6827C78.3791 76.038 78.2788 77.4184 78.329 78.8238C79.6089 82.2874 81.416 85.7509 84.1266 89.365C86.9877 93.1297 92.3336 93.8073 96.4747 92.2261C108.296 87.7085 104.531 69.7133 101.519 60.8286C96.3242 45.4687 88.0418 36.3582 79.7595 32.0664C79.9854 35.9817 82.9219 41.5534 84.4277 44.5652C86.6866 49.2334 87.063 52.5463 86.8372 56.1604C86.4607 61.8827 80.2866 65.6474 78.6301 74.6827Z" fill="#A34896"/>
</g>
<path d="M67.8633 35.6055C71.3268 38.1655 74.4138 41.2525 77.1997 44.5654C80.0609 47.8031 82.4703 51.4925 84.5032 55.2571C86.5361 59.0971 88.1926 63.163 89.322 67.3041C89.6232 68.3583 89.8491 69.4124 90.0749 70.4665C90.3008 71.5206 90.5267 72.5747 90.6773 73.7041L91.0538 76.8664C91.1542 77.9708 91.2295 79.05 91.2796 80.1041C91.0287 79.05 90.8279 77.9959 90.6773 76.9417L89.9997 73.7794L89.1714 70.6924C88.8702 69.7136 88.4938 68.6594 88.1926 67.6806C86.8373 63.69 85.1809 59.7748 83.1479 56.0101C81.1903 52.2454 78.8562 48.7066 76.2962 45.2431C75.0413 43.5364 73.7111 41.8799 72.3056 40.2737L70.1221 37.9396L67.8633 35.6055Z" fill="#61255B"/>
<path d="M44.9724 45.6212C48.4359 49.3858 54.9112 47.5788 55.8147 42.3835C56.4171 38.92 54.0077 35.6824 50.6195 35.08C44.9724 34.1012 40.8313 41.1788 44.9724 45.6212Z" fill="#68BD9F"/>
<path d="M50.9193 38.3947C49.7146 38.9971 48.7358 39.4489 47.9075 40.1265C47.5562 40.4277 47.2299 40.8041 46.9287 41.2559C46.5522 41.7077 46.3264 42.2347 45.9499 42.8371C45.6487 42.1594 45.5734 41.4818 45.7993 40.8041C45.9499 40.0512 46.4017 39.4489 46.9287 38.9218C47.5311 38.47 48.2087 38.1689 48.9616 38.0936C49.6393 38.0183 50.3169 38.0936 50.9193 38.3947Z" fill="white"/>
<g style="mix-blend-mode:multiply" opacity="0.25">
<path d="M44.9727 45.623C48.4362 49.3877 54.9114 47.5807 55.815 42.3854C56.2667 39.7501 54.9867 37.1902 52.8032 35.9102C52.8032 39.449 51.5232 44.2678 44.9727 45.623Z" fill="#68BD9F"/>
</g>
<path d="M168.905 38.9953C166.872 44.7177 166.42 47.0518 165.893 50.0635C164.086 61.207 161.902 77.5457 153.771 89.0657C151.06 92.8806 147.496 95.2649 143.079 96.2186C141.347 96.5951 139.615 96.7456 137.884 96.3692C135.926 95.9927 133.742 95.9174 131.333 92.8304C128.622 89.3669 128.095 84.021 128.246 79.5034C128.321 77.621 129.074 73.5552 129.3 72.3505C131.484 57.8941 145.564 38.0165 161.902 32.1436C164.914 31.0895 168.001 30.4871 171.088 30.4871C173.874 30.4118 171.465 31.8424 168.905 38.9953Z" fill="#F7BA47"/>
<path d="M161.225 41.8555C159.794 43.7378 158.364 45.5449 157.159 47.4272C155.854 49.2845 154.599 51.1919 153.394 53.1495C151.085 57.0648 148.927 61.0805 146.919 65.1965C144.886 69.2624 143.004 73.4036 141.498 77.6953C139.992 81.9871 139.013 86.4294 137.809 90.8717C138.11 88.6129 138.486 86.3541 138.863 84.0953C139.239 81.8365 139.766 79.5777 140.369 77.3188C141.649 72.8765 143.531 68.6601 145.564 64.5189C147.597 60.3777 149.856 56.3119 152.416 52.5472C153.721 50.6398 155.101 48.7825 156.557 46.9754C157.987 45.1684 159.493 43.4366 161.225 41.8555Z" fill="#BF771F"/>
<g style="mix-blend-mode:multiply" opacity="0.25">
<path d="M153.771 89.0666C151.06 92.8815 147.496 95.2658 143.079 96.2195C141.347 96.596 139.615 96.7466 137.884 96.3701C135.926 95.9936 133.742 95.9184 131.333 92.8313C128.622 89.3678 128.095 84.0219 128.246 79.5043C128.321 77.622 129.074 73.5561 129.3 72.3514C131.484 57.895 145.564 38.0174 161.902 32.1445C159.041 34.9304 156.632 37.1139 151.738 45.6974C143.305 60.3797 151.286 64.6715 153.921 74.8361C155.276 80.182 154.975 84.7749 153.771 89.0666Z" fill="#BF771F"/>
</g>
<path d="M176.663 35.9103C172.07 38.3197 166.574 34.4045 167.477 29.2845C168.08 25.7457 171.393 23.4869 174.705 24.0892C180.428 25.068 181.934 33.0492 176.663 35.9103Z" fill="#A34896"/>
<path d="M173.348 27.0973C174.025 27.022 174.703 27.1726 175.381 27.4738C175.983 27.775 176.51 28.302 176.962 28.9044C177.263 29.582 177.489 30.3349 177.414 31.0126C177.338 31.7655 177.037 32.4432 176.585 32.9702C176.435 32.2173 176.359 31.6902 176.209 31.1632C176.058 30.611 175.857 30.1342 175.606 29.7326C175.079 28.8291 174.326 28.0761 173.348 27.0973Z" fill="white"/>
<g style="mix-blend-mode:multiply" opacity="0.25">
<path d="M176.663 35.906C172.07 38.3154 166.574 34.4001 167.477 29.2801C167.929 26.6449 169.962 24.6119 172.447 24.1602C171.242 27.4731 170.866 32.5178 176.663 35.906Z" fill="#A34896"/>
</g>
<path d="M94.8176 26.3448C94.8176 32.4436 94.5164 34.7777 93.9894 37.7894C92.0317 48.9329 88.7188 65.0458 92.4835 78.5986C93.7886 83.1163 96.3737 86.5547 100.239 88.9139C101.745 89.8927 103.326 90.5703 105.133 90.7962C107.09 91.0221 109.123 91.6997 112.436 89.5915C116.201 87.2574 118.46 82.3633 119.815 77.9963C120.342 76.2645 120.945 72.1987 121.17 70.9187C123.881 56.6129 117.18 33.1965 103.702 22.2789C101.218 20.246 98.507 18.6648 95.6458 17.6107C93.0105 16.6319 94.7423 18.7401 94.8176 26.3448Z" fill="#F7BA47"/>
<path d="M101.141 31.6914C102.195 33.7243 103.023 35.8326 103.851 38.0161C104.604 40.1745 105.282 42.358 105.884 44.5666C107.089 49.0843 107.842 53.6019 108.369 58.1948C108.971 62.7125 109.272 67.3807 109.046 71.9736C108.896 74.3077 108.67 76.5665 108.294 78.8253C107.842 81.1594 107.465 83.3429 106.938 85.6018C107.315 81.0088 107.917 76.4912 107.842 71.9736C107.842 67.3807 107.465 62.863 106.863 58.3454C106.361 53.8278 105.658 49.3352 104.755 44.8678C104.303 42.609 103.776 40.4004 103.174 38.242C102.571 35.9832 101.894 33.7996 101.141 31.6914Z" fill="#BF771F"/>
<g style="mix-blend-mode:multiply" opacity="0.25">
<path d="M92.4844 78.601C93.7895 83.1186 96.3745 86.557 100.24 88.9162C101.745 89.8951 103.327 90.5727 105.134 90.7986C107.091 91.0245 109.124 91.7021 112.437 89.5939C116.202 87.2598 118.461 82.3657 119.816 77.9986C120.343 76.2669 120.945 72.201 121.171 70.921C123.882 56.6152 117.181 33.1988 103.703 22.2812C105.51 25.7448 107.016 28.6059 108.823 38.3941C111.91 55.034 102.95 56.4646 97.0773 65.1987C93.9902 69.7163 92.7856 74.1587 92.4844 78.601Z" fill="#BF771F"/>
</g>
<path d="M88.5707 20.8506C92.1095 24.6905 98.5095 22.8082 99.413 17.6882C100.015 14.1494 97.6813 10.9871 94.293 10.3847C88.5707 9.40592 84.5049 16.4835 88.5707 20.8506Z" fill="#A34896"/>
<path d="M94.5923 13.6981C93.3123 14.3005 92.3335 14.7522 91.5805 15.3546C91.179 15.7059 90.8276 16.1075 90.5264 16.5593C90.2253 17.011 89.9241 17.5381 89.5476 18.1404C89.3217 17.4628 89.2464 16.7099 89.4723 16.0322C89.6229 15.3546 89.9994 14.6769 90.6017 14.2252C91.2041 13.7734 91.8817 13.4722 92.5594 13.3969C93.237 13.2463 93.9899 13.3216 94.5923 13.6981Z" fill="white"/>
<g style="mix-blend-mode:multiply" opacity="0.25">
<path d="M88.5703 20.8485C92.1091 24.6885 98.5091 22.8062 99.4126 17.6862C99.8644 15.0509 98.5844 12.4909 96.4762 11.2109C96.4009 14.6745 95.1209 19.5685 88.5703 20.8485Z" fill="#A34896"/>
</g>
<path d="M120.566 94.1863C112.51 91.0993 109.573 77.7723 109.95 68.8876C109.95 68.5864 109.95 68.2853 109.95 67.9841C111.154 50.7418 121.921 33.8007 132.764 20.1726C133.441 19.269 134.194 18.5914 134.721 19.5702C136.528 22.8078 137.507 26.7984 138.411 30.4878C138.561 31.0902 138.712 31.6674 138.863 32.2196C140.82 39.7489 142.251 47.4289 142.703 55.1842C144.058 82.9676 127.343 96.8216 120.566 94.1863Z" fill="#68BD9F"/>
<path d="M131.786 32.9688C131.335 37.4864 130.732 42.004 130.13 46.5216C129.452 51.0393 128.699 55.5569 128.022 59.9992C127.193 64.5168 126.44 68.9592 125.537 73.4768L124.182 80.1027C123.655 82.3615 123.203 84.6203 122.676 86.8038C122.826 84.545 123.128 82.2862 123.429 80.0274L124.332 73.2509C125.01 68.7333 125.763 64.2157 126.44 59.7733C127.269 55.2557 128.022 50.8134 128.925 46.2957C129.829 41.8534 130.732 37.4111 131.786 32.9688Z" fill="#156B62"/>
<g style="mix-blend-mode:multiply" opacity="0.25">
<path d="M120.566 94.1868C112.51 91.0998 109.573 77.7728 109.95 68.8881C110.929 67.081 112.209 65.3493 114.919 63.994C119.587 61.5093 121.696 62.1117 125.987 60.8317C131.71 59.0999 132.011 53.9046 132.688 51.5705C134.194 46.6011 133.216 39.5235 138.411 30.4883C138.561 31.0906 138.712 31.6679 138.863 32.22C140.82 39.7494 142.251 47.4294 142.703 55.1846C144.058 82.968 127.343 96.8221 120.566 94.1868Z" fill="#68BD9F"/>
</g>
<path d="M137.659 21.8273C133.066 24.2367 127.57 20.3968 128.473 15.2015C129.076 11.738 132.389 9.47916 135.777 10.0815C141.424 10.985 142.93 19.0415 137.659 21.8273Z" fill="#FF4B70"/>
<path d="M134.348 13.0929C135.025 12.9423 135.778 13.0929 136.381 13.4693C136.983 13.7705 137.585 14.2223 137.962 14.8999C138.338 15.5023 138.489 16.2552 138.414 17.0081C138.414 17.6858 138.112 18.3634 137.661 18.8905C137.435 18.2128 137.435 17.6105 137.209 17.0834C137.108 16.5815 136.908 16.1046 136.606 15.6529C136.155 14.7493 135.326 14.0717 134.348 13.0929Z" fill="white"/>
<g style="mix-blend-mode:multiply" opacity="0.25">
<path d="M137.659 21.8279C133.066 24.2373 127.57 20.3973 128.473 15.202C128.925 12.5667 130.958 10.6091 133.443 10.082C132.313 13.395 131.862 18.4396 137.659 21.8279Z" fill="#FF4B70"/>
</g>
<path d="M125.538 192.897C125.011 193.65 124.559 194.177 123.43 193.876C115.901 191.843 110.555 176.784 115.976 166.77C116.578 165.641 116.879 165.565 118.084 166.092C126.366 169.707 131.336 184.464 125.538 192.897Z" fill="#A34896"/>
<path d="M87.2123 187.624C85.7817 187.699 85.2546 187.247 85.0287 186.494C81.7158 175.953 92.0311 163.605 100.916 163.078C101.669 163.078 102.271 163.153 102.422 163.831C104.078 174.146 96.624 186.72 87.2123 187.624Z" fill="#A34896"/>
<path d="M64.0218 159.916C63.1936 159.614 63.1183 159.464 63.3442 158.56C64.323 153.892 67.7112 150.052 72.003 148.094C76.8218 145.836 84.8029 145.986 89.3205 148.923C90.0735 149.374 90.1488 149.751 89.8476 150.504C87.2876 156.753 80.2853 161.572 71.4006 161.497C70.3465 161.421 66.2807 161.045 64.0218 159.916Z" fill="#A34896"/>
<path d="M132.614 158.865C132.614 158.489 132.614 158.037 132.539 157.585C132.463 156.983 132.765 156.682 133.292 156.531C134.045 156.23 137.056 155.929 139.842 156.456C150.383 158.188 156.181 166.771 154.826 174.376C154.75 175.053 154.6 175.204 153.922 175.204C144.511 176.032 134.045 168.955 132.614 158.865Z" fill="#A34896"/>
<path d="M171.846 153.894C168.458 161.122 154.302 167.597 143.912 165.866C143.385 165.79 143.234 165.941 143.46 166.468C146.02 173.094 149.107 187.174 146.397 193.95C146.171 194.402 145.794 194.628 145.267 194.703C141.201 194.929 136.307 192.369 132.994 190.261C127.498 186.797 124.411 183.56 121.55 180.698C121.023 180.171 120.947 180.171 120.721 180.924C119.065 185.141 117.409 189.056 112.891 194.778C110.783 197.414 106.943 201.404 103.63 201.856C100.016 202.383 93.9168 190.713 93.3898 178.139C93.1639 173.546 94.8957 175.88 83.6769 179.569C78.7075 181.226 70.5758 183.108 65.6817 181.15C65.1295 180.899 64.8284 180.473 64.7782 179.87C64.7782 179.419 64.8033 178.942 64.8534 178.44C65.5311 171.211 72.157 160.595 76.4487 155.324C78.1052 153.367 74.3405 155.701 65.1546 149.226C59.9594 145.612 54.9147 139.965 54.0111 133.715C53.9359 132.887 54.237 132.586 55.0653 132.586C58.9052 132.435 113.569 131.908 113.794 131.908C114.924 131.833 115.827 132.209 116.881 132.586C116.881 132.586 125.39 135.673 135.705 139.362C150.99 144.934 170.189 151.936 171.244 152.313C172.147 152.689 172.298 152.99 171.846 153.894Z" fill="#F7BA47"/>
<path d="M107.619 174.898C107.694 178.211 107.242 181.524 106.715 184.762C106.489 186.343 106.113 188 105.736 189.581C105.536 190.384 105.335 191.187 105.134 191.99C104.908 192.743 104.532 193.571 104.456 194.324C104.231 193.496 104.381 192.668 104.381 191.84C104.431 191.036 104.507 190.208 104.607 189.355C104.758 187.698 104.984 186.117 105.209 184.461C105.812 181.223 106.489 178.061 107.619 174.898Z" fill="#BF771F"/>
<path d="M131.637 170.457C134.272 172.565 136.23 175.426 137.811 178.438C139.317 181.45 140.521 184.612 140.973 187.925C139.317 184.989 137.961 182.052 136.456 179.116C134.95 176.179 133.368 173.393 131.637 170.457Z" fill="#BF771F"/>
<path d="M86.4625 162.777C83.9025 164.961 81.3425 166.994 78.9331 169.177C76.4484 171.361 74.1896 173.77 71.8555 176.18C73.2108 173.017 75.3943 170.382 77.879 168.048C80.439 165.789 83.3001 163.907 86.4625 162.777Z" fill="#BF771F"/>
<path d="M62.1406 136.801C64.6253 138.005 67.0347 138.984 69.5947 139.813C72.0794 140.641 74.7147 141.168 77.35 142.071C74.6394 142.373 71.7782 142.071 69.1429 141.243C66.5077 140.415 63.9477 138.909 62.1406 136.801Z" fill="#BF771F"/>
<path d="M163.261 154.045C160.777 155.4 157.915 155.927 155.13 155.927C152.344 155.852 149.558 155.325 147.148 153.895C149.859 154.12 152.494 154.346 155.13 154.422C157.84 154.422 160.475 154.196 163.261 154.045Z" fill="#BF771F"/>
<g style="mix-blend-mode:multiply" opacity="0.25">
<path d="M171.841 153.891C168.453 161.119 154.298 167.595 143.907 165.863C143.38 165.787 143.23 165.938 143.455 166.465C146.015 173.091 149.102 187.171 146.392 193.947C146.166 194.399 145.79 194.625 145.262 194.7C141.197 194.926 136.303 192.366 132.99 190.258C127.493 186.794 124.406 183.557 121.545 180.696C121.018 180.169 120.943 180.169 120.717 180.922C119.06 185.138 117.404 189.053 112.886 194.776C110.778 197.411 106.938 201.401 103.625 201.853C100.011 202.38 93.9121 190.71 93.3851 178.136C93.1592 173.543 94.8909 175.877 83.6722 179.566C78.7028 181.223 70.5711 183.105 65.677 181.147C65.1248 180.896 64.8236 180.47 64.7734 179.867C64.7734 179.416 64.7985 178.939 64.8487 178.437C67.5593 175.651 71.5499 172.79 76.1428 170.757C79.004 169.552 82.091 169.025 85.2533 169.176C93.1592 169.477 99.9356 175.124 107.841 175.726C109.573 175.877 111.38 175.952 113.112 175.5C125.234 172.338 123.427 156.075 129.601 146.286C132.161 142.221 133.968 140.639 135.7 139.359C150.985 144.931 170.185 151.933 171.239 152.31C172.142 152.686 172.293 152.988 171.841 153.891Z" fill="#BF771F"/>
</g>
<path d="M149.555 142.224C135.25 174.299 105.057 178.289 89.0946 158.337C89.0444 158.236 88.9942 158.161 88.944 158.111C88.8436 158.01 88.7683 157.885 88.7181 157.734C81.0381 147.795 76.8217 132.134 79.6076 111.203C82.544 89.518 102.497 61.2828 127.344 67.0804C138.638 69.7157 146.318 76.7934 150.986 86.0545C151.036 86.2051 151.112 86.3807 151.212 86.5815C158.817 102.393 157.461 124.454 149.555 142.224Z" fill="white"/>
<g style="mix-blend-mode:multiply" opacity="0.25">
<path d="M149.555 142.224C135.249 174.299 105.056 178.29 89.0938 158.337C108.143 153.368 130.882 172.869 146.091 137.857C153.244 121.443 146.919 101.565 151.211 86.582C158.816 102.394 157.46 124.455 149.555 142.224Z" fill="#8F93B0"/>
</g>
<path d="M123.957 145.237C121.547 149.529 116.202 152.465 111.232 151.411C109.425 150.959 107.769 150.131 106.338 148.926C104.155 147.044 102.649 144.333 102.122 141.472C101.745 139.665 103.176 141.472 106.112 139.816C108.672 138.46 111.006 138.46 113.039 140.493C113.491 140.87 113.491 140.87 113.943 140.644C115.147 140.042 116.503 139.891 117.783 140.267C118.611 140.493 119.364 140.945 120.042 141.623C121.171 142.752 121.623 143.505 123.505 144.107C124.183 144.333 124.484 144.333 123.957 145.237Z" fill="#FF4B70"/>
<g style="mix-blend-mode:multiply" opacity="0.25">
<path d="M123.955 145.235C121.545 149.527 116.199 152.463 111.23 151.409C109.423 150.957 107.767 150.129 106.336 148.924C110.101 149.301 114.468 148.247 114.995 145.31C115.446 142.449 116.802 140.943 117.781 140.266C118.609 140.492 119.362 140.943 120.039 141.621C121.169 142.75 121.621 143.503 123.503 144.106C124.181 144.331 124.482 144.331 123.955 145.235Z" fill="#FF4B70"/>
</g>
<path d="M100.465 137.934C100.841 139.214 101.594 140.192 102.573 140.87C103.552 141.623 104.606 142.15 105.735 142.677C107.994 143.581 110.404 144.258 112.813 144.71C115.222 145.087 117.632 145.312 120.117 145.162C121.321 145.087 122.526 144.861 123.655 144.484C124.785 144.032 125.839 143.43 126.667 142.451C126.14 143.581 125.086 144.484 123.956 145.162C122.752 145.689 121.547 146.141 120.267 146.367C117.632 146.743 115.072 146.592 112.512 146.216C110.027 145.689 107.542 144.936 105.208 143.731C104.079 143.129 103.025 142.376 102.046 141.472C101.142 140.494 100.465 139.289 100.465 137.934Z" fill="#8A294B"/>
<path d="M139.542 133.036C139.392 133.638 139.467 134.316 139.768 134.843C140.07 135.295 140.672 135.521 141.274 135.445C142.479 135.37 143.458 134.617 143.909 133.563C144.964 131.455 144.512 128.669 142.705 127.389C141.801 126.711 140.672 126.561 139.618 126.711C138.488 126.937 137.51 127.464 136.606 128.217C134.799 129.648 133.594 131.831 133.067 134.09C132.465 136.424 132.766 138.758 133.368 141.168C133.895 143.577 134.799 146.062 134.573 148.697C134.498 150.052 134.121 151.332 133.444 152.537C132.766 153.666 131.712 154.645 130.432 155.097C129.227 155.549 127.797 155.549 126.592 154.946C125.387 154.344 124.634 153.215 124.258 152.01C124.785 153.139 125.688 154.118 126.743 154.57C127.872 155.022 129.152 154.871 130.206 154.419C131.26 153.892 132.088 153.064 132.615 152.01C133.142 151.031 133.368 149.826 133.444 148.697C133.444 146.288 132.615 143.954 132.013 141.544C131.637 140.264 131.411 139.059 131.26 137.704C131.21 136.349 131.31 135.044 131.561 133.789C132.164 131.154 133.594 128.744 135.702 127.088C136.757 126.259 138.037 125.582 139.392 125.431C140.747 125.205 142.328 125.507 143.382 126.41C144.512 127.314 145.189 128.669 145.34 130.024C145.491 131.304 145.265 132.735 144.587 133.864C143.909 135.069 142.629 135.897 141.274 135.897C140.597 135.897 139.919 135.521 139.618 134.918C139.241 134.316 139.317 133.638 139.542 133.036Z" fill="#A34896"/>
<path d="M90.9793 124.756C90.904 125.434 90.7534 126.036 90.3017 126.563C89.7746 127.015 88.9464 127.09 88.3441 126.865C87.0641 126.413 86.0852 125.208 85.8594 123.853C85.6335 122.573 85.8594 121.142 86.4617 119.938C87.0641 118.733 88.1182 117.754 89.4735 117.227C90.8287 116.775 92.3346 116.926 93.6146 117.603C94.8193 118.206 95.7981 119.335 96.5511 120.389C97.9817 122.648 98.5087 125.434 98.2075 128.069C98.0569 129.374 97.7056 130.654 97.1534 131.909C96.6264 133.114 95.9487 134.243 95.2711 135.222C93.8405 137.33 92.2593 139.288 91.5064 141.547C91.1299 142.676 90.9793 143.806 91.1299 144.935C91.2805 146.14 91.8829 147.194 92.7111 148.022C93.5393 148.85 94.6687 149.377 95.8734 149.302C97.0781 149.227 98.2075 148.624 99.1111 147.721C98.3581 148.7 97.2287 149.528 95.8734 149.679C94.5934 149.904 93.2381 149.453 92.184 148.549C91.1299 147.721 90.4523 146.441 90.2264 145.161C89.9252 143.806 90.0758 142.45 90.377 141.17C91.1299 138.61 92.7111 136.502 94.0664 134.469C95.4217 132.436 96.4758 130.253 96.7017 127.919C97.0028 125.585 96.5511 123.175 95.2711 121.218C94.6687 120.163 93.9158 119.335 92.937 118.808C92.0334 118.281 90.904 118.055 89.8499 118.356C87.6664 118.959 86.3111 121.443 86.6123 123.778C86.6876 124.907 87.4405 125.961 88.4946 126.488C89.0217 126.714 89.624 126.714 90.1511 126.338C90.6029 126.036 90.8287 125.434 90.9793 124.756Z" fill="#A34896"/>
<path d="M122.977 88.2373C123.127 86.5809 123.579 84.9244 124.181 83.3433C124.784 81.7621 125.612 80.2562 126.591 78.9009C127.645 77.5456 129 76.3409 130.732 75.6633C132.388 75.0609 134.271 75.1362 135.777 75.8892C134.12 75.8139 132.539 76.0397 131.184 76.7927C129.904 77.4703 128.774 78.5997 127.795 79.8797C125.913 82.3644 124.482 85.3009 122.977 88.2373Z" fill="#A34896"/>
<path d="M121.395 88.0098C121.019 84.6968 120.642 81.4592 119.588 78.4474C119.136 76.9416 118.459 75.511 117.405 74.4569C116.426 73.2522 115.071 72.4992 113.414 72.0475C115.071 71.8969 116.878 72.3487 118.233 73.5534C119.663 74.6828 120.492 76.3392 121.019 77.9957C121.621 79.5769 121.847 81.3086 121.922 82.9651C121.922 84.6968 121.847 86.3533 121.395 88.0098Z" fill="#A34896"/>
<path d="M111.004 123.324C109.799 124.454 108.67 125.734 107.917 127.164C107.24 128.595 106.788 130.251 107.089 131.682C107.164 132.435 107.541 133.112 107.992 133.489C108.294 133.639 108.52 133.865 108.896 133.941C108.971 134.016 109.197 134.016 109.348 134.016C109.498 134.016 109.649 134.016 109.95 134.091C110.477 134.091 111.004 134.242 111.456 134.543C111.908 134.844 112.359 135.371 112.51 135.597C112.962 136.049 113.564 136.425 114.242 136.501C114.844 136.576 115.522 136.501 116.124 136.124L116.35 136.049C116.501 135.948 116.626 135.873 116.727 135.823C116.977 135.723 117.228 135.647 117.479 135.597C118.082 135.447 118.609 135.522 119.061 135.597C119.889 135.823 120.491 135.974 121.094 135.748C121.696 135.522 122.148 134.995 122.524 134.317C123.202 132.962 123.503 131.305 123.277 129.724C123.051 128.143 122.374 126.562 121.545 125.131C122.675 126.411 123.503 127.917 123.955 129.574C124.406 131.305 124.256 133.112 123.578 134.844C123.277 135.672 122.599 136.576 121.621 136.952C120.642 137.404 119.512 137.178 118.759 137.028C118.408 136.977 118.082 136.977 117.781 137.028C117.68 137.028 117.555 137.078 117.404 137.178C117.354 137.178 117.279 137.203 117.178 137.254L116.877 137.479C116.049 137.931 114.995 138.157 113.941 138.007C112.962 137.856 112.058 137.329 111.381 136.576C111.004 136.124 110.929 135.974 110.628 135.748C110.427 135.597 110.151 135.522 109.8 135.522C109.649 135.522 109.423 135.447 109.197 135.447C108.896 135.371 108.67 135.371 108.444 135.221C107.917 135.07 107.541 134.844 107.089 134.468C106.336 133.79 105.96 132.811 105.884 131.832C105.658 129.95 106.411 128.218 107.315 126.788C108.294 125.357 109.574 124.152 111.004 123.324Z" fill="#8F93B0"/>
<path d="M119.813 157.281C120.039 156.904 120.265 156.452 120.265 156.076C120.265 155.624 120.039 155.323 119.738 155.097C119.135 154.645 118.307 154.796 117.78 155.248C117.479 155.398 117.178 155.85 116.952 156.076C116.801 156.452 116.5 156.754 116.425 157.13C116.35 157.506 116.35 157.883 116.35 158.259C116.425 158.636 116.425 159.012 116.651 159.389C116.877 160.066 117.404 160.819 118.006 161.346C118.533 162.024 119.361 162.401 120.039 162.852C121.62 163.605 123.427 163.831 125.234 163.229C123.728 164.434 121.545 164.659 119.587 163.982C117.78 163.304 115.973 161.949 115.22 159.916C114.994 159.464 114.919 158.862 114.844 158.335C114.844 157.808 114.844 157.205 115.07 156.678C115.22 156.151 115.597 155.699 115.898 155.248C116.274 154.871 116.576 154.495 117.103 154.194C118.081 153.667 119.512 153.667 120.265 154.57C120.641 154.947 120.867 155.624 120.717 156.151C120.566 156.678 120.19 156.979 119.813 157.281Z" fill="#68BD9F"/>
<path d="M101.895 154.194C101.594 153.817 101.368 153.365 101.443 152.838C101.443 152.311 101.82 151.784 102.272 151.483C103.326 150.956 104.681 151.333 105.434 152.236C105.81 152.688 105.961 153.14 106.262 153.591C106.337 154.118 106.563 154.645 106.488 155.248C106.563 155.775 106.337 156.302 106.187 156.829C105.961 157.356 105.66 157.883 105.283 158.26C103.928 159.841 101.82 160.594 99.7869 160.594C97.8292 160.594 95.7963 159.69 94.7422 158.034C96.2481 159.163 98.0551 159.615 99.7869 159.389C100.615 159.238 101.443 159.088 102.196 158.711C102.949 158.335 103.627 157.883 104.154 157.205C104.455 156.98 104.606 156.603 104.832 156.302C104.907 155.925 105.057 155.549 105.057 155.172C105.133 154.796 104.982 154.42 104.982 154.043C104.756 153.742 104.681 153.29 104.455 152.989C104.079 152.387 103.326 151.935 102.573 152.161C102.272 152.236 101.97 152.537 101.82 152.914C101.669 153.29 101.745 153.742 101.895 154.194Z" fill="#68BD9F"/>
<path d="M123.43 96.5211C124.86 93.9611 126.291 91.4765 128.098 89.1423C129.905 86.8082 132.013 84.7 134.498 82.9682C135.778 82.2153 137.058 81.3871 138.564 80.9353C140.07 80.4835 141.877 80.4083 143.307 81.4624C144.738 82.5165 145.19 84.173 145.19 85.6788C145.19 87.1847 144.888 88.6906 144.437 90.0459C144.587 88.6153 144.663 87.1847 144.437 85.7541C144.286 84.3988 143.684 83.0435 142.63 82.4412C141.651 81.8388 140.295 81.8388 139.015 82.2906C137.735 82.7424 136.531 83.4953 135.401 84.2483C133.067 85.8294 130.959 87.7871 129.077 89.8953C127.119 92.0788 125.312 94.3376 123.43 96.5211Z" fill="#68BD9F"/>
<path d="M118.233 95.6144C117.179 92.9038 116.2 90.1932 115.146 87.5579C114.017 84.9227 112.737 82.3627 111.005 80.1039C110.177 78.9745 109.273 77.845 108.219 77.0921C107.165 76.1886 105.96 75.7368 104.756 75.9627C103.626 76.2639 102.572 77.318 101.97 78.5227C101.292 79.7274 100.916 81.158 100.539 82.5885C100.539 81.0827 100.765 79.6521 101.292 78.2215C101.819 76.7909 102.798 75.3604 104.454 74.8333C106.111 74.3062 107.843 74.9839 109.123 75.8874C110.403 76.8662 111.306 77.9956 112.21 79.2003C114.017 81.6097 115.372 84.3203 116.275 87.1062C117.179 89.892 117.781 92.7532 118.233 95.6144Z" fill="#68BD9F"/>
<path d="M172.221 99.8329C171.769 100.661 171.167 101.414 170.64 102.242C166.649 108.492 167.703 110.449 164.24 116.398C162.583 119.259 160.324 121.593 157.162 122.346C156.409 122.572 153.171 122.195 151.44 120.614C147.901 117.301 146.47 115.343 143.534 114.063C137.736 111.654 130.659 113.687 125.463 117.226C124.911 117.577 124.334 117.929 123.732 118.28C123.355 118.506 123.205 118.43 122.903 118.129C122.502 117.577 122.176 116.975 121.925 116.322C119.59 110.449 122.753 99.9082 132.089 93.4329C134.197 91.9271 136.757 91.0235 137.209 90.9483C137.586 90.873 137.887 91.1741 137.887 91.5506C137.837 91.8016 137.761 92.0777 137.661 92.3788C136.456 95.6918 136.833 100.209 139.844 102.167C143.308 104.351 147.524 98.7035 149.859 95.3906C151.967 92.4541 157.84 86.0541 161.153 86.9577C162.884 87.4847 160.851 88.9153 161.228 96.2188C161.228 97.5741 161.454 98.8541 161.906 100.059C161.956 100.109 161.981 100.134 161.981 100.134C162.282 100.887 162.809 101.263 163.637 101.339C166.724 101.791 169.209 98.4776 171.844 98.9294C172.371 99.08 172.522 99.3811 172.221 99.8329Z" fill="#FF4B70"/>
<g style="mix-blend-mode:multiply" opacity="0.25">
<path d="M172.222 99.8327C171.77 100.661 171.168 101.414 170.641 102.242C166.65 108.491 167.704 110.449 164.241 116.397C162.584 119.258 160.326 121.593 157.163 122.346C156.41 122.571 153.173 122.195 151.441 120.614C147.902 117.301 146.472 115.343 143.535 114.063C137.737 111.654 130.66 113.687 125.465 117.226C124.912 117.577 124.335 117.928 123.733 118.28C123.356 118.506 123.206 118.43 122.905 118.129C122.503 117.577 122.177 116.975 121.926 116.322C122.227 113.988 122.98 112.106 124.034 110.299C126.82 105.931 132.316 104.275 136.909 105.329C142.556 106.76 147.752 111.503 154.302 109.395C157.766 108.266 160.401 104.426 161.756 100.586C161.806 100.435 161.857 100.259 161.907 100.059C161.957 100.109 161.982 100.134 161.982 100.134C162.283 100.887 162.81 101.263 163.639 101.339C166.726 101.79 169.21 98.4774 171.846 98.9292C172.373 99.0798 172.523 99.3809 172.222 99.8327Z" fill="#8A294B"/>
</g>
<path d="M163.334 106.759C163.033 109.168 160.849 111.502 158.063 111.277C157.386 111.201 156.708 110.825 156.256 110.222C155.805 109.695 155.579 108.942 155.579 108.34C155.428 106.985 155.654 105.78 155.729 104.575C155.805 103.371 155.88 102.166 155.579 101.262C155.278 100.359 154.374 99.8319 153.546 100.133C152.642 100.359 151.739 101.187 150.835 102.015L148.275 104.5C147.296 105.404 146.318 106.157 145.188 106.834C144.134 107.512 142.779 107.888 141.424 107.964C140.144 108.114 138.788 108.039 137.584 107.512C136.304 106.985 135.249 105.931 134.572 104.877C134.195 104.35 133.894 103.822 133.593 103.295C133.442 103.07 133.367 102.919 133.141 102.768C132.915 102.542 132.689 102.317 132.464 102.241C132.087 101.94 131.56 101.94 131.108 102.015C130.581 102.166 130.129 102.467 129.678 102.844C128.021 104.5 126.967 106.759 125.988 108.942C126.289 107.813 126.666 106.608 127.193 105.479C127.72 104.425 128.322 103.295 129.151 102.317C129.602 101.865 130.129 101.488 130.807 101.187C131.485 101.037 132.313 101.037 132.915 101.413C133.292 101.488 133.518 101.79 133.819 101.94C134.045 102.166 134.346 102.467 134.496 102.693L135.551 104.199C136.228 105.102 137.056 105.855 138.035 106.232C139.089 106.608 140.219 106.684 141.348 106.533C143.532 106.382 145.489 105.027 147.221 103.371L149.856 100.886C150.76 100.058 151.663 99.1542 153.169 98.7025C154.751 98.2507 156.407 99.3801 156.859 100.811C157.235 102.241 157.085 103.521 156.859 104.726C156.708 105.931 156.482 107.135 156.482 108.265C156.558 108.792 156.708 109.319 156.934 109.771C157.235 110.147 157.687 110.448 158.139 110.524C159.193 110.749 160.473 110.373 161.376 109.695C162.28 109.018 162.958 107.964 163.334 106.759Z" fill="#8A294B"/>
<path d="M145.715 116.021C144.36 119.032 141.574 120.99 138.487 122.044C135.325 123.098 129.376 122.571 126.666 121.442C126.616 121.442 126.54 121.417 126.44 121.367C125.386 120.839 123.805 119.861 123.428 118.731C123.378 118.53 123.378 118.305 123.428 118.054C124.934 110.825 132.313 107.211 138.487 108.792C141.348 109.545 143.908 111.352 145.64 114.44C145.791 114.741 145.866 115.042 145.866 115.343C145.866 115.544 145.816 115.77 145.715 116.021Z" fill="#331330"/>
<path d="M145.866 115.344C145.816 115.344 145.791 115.319 145.791 115.269C139.993 111.806 132.087 113.462 126.214 116.85C124.558 117.829 123.805 118.432 123.428 118.733C123.378 118.532 123.378 118.306 123.428 118.055C125.687 107.514 140.219 104.653 145.64 114.441C145.791 114.742 145.866 115.043 145.866 115.344Z" fill="#68BD9F"/>
<g style="mix-blend-mode:multiply" opacity="0.25">
<path d="M145.713 116.021C144.358 119.033 141.572 120.991 138.485 122.045C135.323 123.099 129.375 122.572 126.664 121.442C126.815 121.442 126.965 121.417 127.116 121.367C130.504 120.915 133.591 118.958 135.624 116.247C138.033 113.235 138.184 110.6 138.41 109.094C138.41 108.994 138.435 108.893 138.485 108.793C141.346 109.546 143.906 111.353 145.638 114.44C145.789 114.741 145.864 115.042 145.864 115.344C145.864 115.544 145.814 115.77 145.713 116.021Z" fill="#331330"/>
</g>
<path d="M71.4008 82.6665C71.6267 83.57 71.8526 84.4735 72.0785 85.4523C73.8102 92.6805 72.1538 94.1864 73.4338 100.963C74.0361 104.125 75.4667 107.137 78.1773 108.944C78.7796 109.32 82.0173 110.073 84.2008 109.17C88.5678 107.212 90.5254 105.782 93.8384 105.631C100.088 105.255 106.036 109.546 109.801 114.591C110.202 115.093 110.629 115.595 111.081 116.097C111.307 116.398 111.532 116.473 111.909 116.247C112.461 115.846 112.963 115.369 113.415 114.817C117.556 110.073 118.083 99.0805 111.382 89.8947C109.876 87.7864 107.768 86.0547 107.391 85.9041C107.09 85.6782 106.638 85.8288 106.563 86.2053C106.513 86.5064 106.488 86.7825 106.488 87.0335C106.563 90.5723 104.681 94.7135 101.217 95.5417C97.2266 96.5205 95.1184 89.7441 93.989 85.8288C93.0102 82.3653 89.5466 74.3841 86.1584 74.1583C84.2761 74.083 85.7819 76.1159 82.9961 82.8923C82.5443 84.097 81.942 85.3017 81.0384 86.2806C81.0384 86.2806 81.0133 86.3057 80.9631 86.3559C80.4361 86.9582 79.8337 87.1088 79.0808 86.9582C75.9938 86.3558 74.7138 82.3653 72.0785 81.9135C71.5514 81.9135 71.3255 82.1394 71.4008 82.6665Z" fill="#FF4B70"/>
<g style="mix-blend-mode:multiply" opacity="0.25">
<path d="M71.4008 82.6631C71.6267 83.5666 71.8526 84.4701 72.0785 85.4489C73.8102 92.6772 72.1538 94.183 73.4338 100.959C74.0361 104.122 75.4667 107.134 78.1773 108.941C78.7796 109.317 82.0173 110.07 84.2008 109.166C88.5678 107.209 90.5254 105.778 93.8384 105.628C100.088 105.251 106.036 109.543 109.801 114.588C110.202 115.09 110.629 115.592 111.081 116.094C111.307 116.395 111.532 116.47 111.909 116.244C112.461 115.843 112.963 115.366 113.415 114.814C113.942 112.555 113.867 110.522 113.415 108.489C112.285 103.444 107.617 100.056 102.949 99.6042C97.1513 99.0018 90.676 101.712 85.1796 97.5713C82.2431 95.3877 81.0384 90.8701 81.0384 86.8795C81.0384 86.6788 81.0384 86.478 81.0384 86.2772C81.0384 86.2772 81.0133 86.3023 80.9631 86.3525C80.4361 86.9548 79.8337 87.1054 79.0808 86.9548C75.9938 86.3525 74.7138 82.3619 72.0785 81.9102C71.5514 81.9102 71.3255 82.136 71.4008 82.6631Z" fill="#8A294B"/>
</g>
<path d="M77.5774 92.1525C77.5021 93.3572 77.728 94.5619 78.4057 95.5407C79.0833 96.5196 80.0621 97.2725 81.1162 97.4231C81.6433 97.4984 82.1703 97.3478 82.5468 97.0466C82.9233 96.7454 83.2245 96.2937 83.4503 95.7666C83.9021 94.7878 84.0527 93.5831 84.2786 92.3784C84.5044 91.1737 84.7303 89.8937 85.6339 88.689C86.4621 87.4843 88.4197 86.9572 89.775 87.9361C91.055 88.7643 91.5821 89.969 92.1844 91.0984L93.8409 94.336C94.9703 96.369 96.3256 98.3266 98.3585 99.2301C99.4126 99.7572 100.467 100.058 101.521 99.9831C102.575 99.9831 103.629 99.5313 104.608 98.929L106.038 97.8748C106.34 97.6489 106.716 97.4984 107.017 97.4231C107.318 97.2725 107.62 97.1219 107.996 97.1219C108.674 96.9713 109.427 97.2725 110.029 97.649C110.556 98.1007 110.933 98.7031 111.234 99.3054C111.686 100.435 111.911 101.715 111.987 102.92C112.137 104.124 112.137 105.404 112.062 106.609C111.836 104.2 111.61 101.64 110.556 99.6066C110.255 99.0795 109.954 98.7031 109.502 98.4019C109.126 98.1007 108.598 97.9501 108.147 98.1007C107.846 98.1007 107.62 98.2513 107.394 98.3266C107.093 98.4772 106.942 98.5525 106.716 98.7031C106.264 99.0795 105.813 99.5313 105.286 99.9078C104.307 100.661 102.951 101.263 101.596 101.338C100.241 101.414 98.9609 101.037 97.7562 100.51C96.5515 99.9831 95.422 99.1548 94.5938 98.176C93.7656 97.1972 93.0879 96.1431 92.4856 95.0137L90.8291 91.7761C90.3021 90.7219 89.6997 89.6678 88.9468 89.1408C88.2691 88.6137 87.215 88.7643 86.688 89.5172C86.0103 90.2702 85.7091 91.4749 85.408 92.6043C85.1068 93.7337 84.8809 95.0137 84.3539 96.2184C84.0527 96.7454 83.6762 97.3478 83.0739 97.7996C82.4715 98.176 81.6433 98.2513 81.0409 98.176C78.3304 97.4231 77.0504 94.4866 77.5774 92.1525Z" fill="#8A294B"/>
<path d="M91.0547 106.759C91.3559 109.997 93.3888 112.783 95.9488 114.816C98.5088 116.849 104.306 118.279 107.243 118.129C107.293 118.129 107.368 118.129 107.469 118.129C108.673 117.978 110.48 117.602 111.158 116.623C111.309 116.472 111.409 116.271 111.459 116.02C112.363 108.717 106.641 102.844 100.316 102.317C97.3794 102.091 94.2923 102.919 91.657 105.253C91.4563 105.454 91.3057 105.705 91.2053 106.006C91.1049 106.207 91.0547 106.458 91.0547 106.759Z" fill="#331330"/>
<path d="M91.2031 106.004C91.2031 106.004 91.2282 106.004 91.2784 106.004C97.829 104.648 104.756 108.79 109.198 113.985C110.478 115.415 110.93 116.244 111.156 116.62C111.307 116.47 111.407 116.269 111.457 116.018C112.812 105.326 100.013 97.7966 91.6549 105.251C91.4541 105.452 91.3035 105.702 91.2031 106.004Z" fill="#68BD9F"/>
<g style="mix-blend-mode:multiply" opacity="0.25">
<path d="M91.0547 106.759C91.3559 109.997 93.3888 112.783 95.9488 114.816C98.5088 116.849 104.306 118.279 107.243 118.129C107.142 118.079 107.017 118.028 106.866 117.978C103.779 116.322 101.521 113.536 100.466 110.298C99.2617 106.609 99.9394 104.124 100.241 102.618C100.241 102.518 100.266 102.417 100.316 102.317C97.3794 102.091 94.2923 102.919 91.657 105.253C91.4563 105.454 91.3057 105.705 91.2053 106.006C91.1049 106.207 91.0547 106.458 91.0547 106.759Z" fill="#331330"/>
</g>
<path d="M58.6033 192.442C60.0339 191.237 62.2927 191.463 63.4974 192.969C64.7021 194.475 64.4762 196.658 62.9703 197.863C61.4645 199.143 59.2809 198.917 58.0762 197.411C58.0762 197.361 58.0512 197.336 58.001 197.336C56.8716 195.83 57.0974 193.646 58.6033 192.442ZM52.5798 189.957C51.4504 188.376 51.9022 186.192 53.4833 185.138C55.1398 184.009 57.248 184.461 58.3774 186.042C59.4315 187.698 59.0551 189.882 57.3986 190.936C55.8927 191.99 53.8598 191.614 52.7304 190.183C52.6802 190.133 52.63 190.057 52.5798 189.957ZM64.2503 199.294C65.6809 197.938 67.8644 197.938 69.2197 199.369C70.575 200.724 70.575 202.908 69.2197 204.263C67.7891 205.693 65.6056 205.618 64.2503 204.263C64.15 204.163 64.0496 204.062 63.9492 203.962C62.895 202.606 62.9703 200.574 64.2503 199.294ZM47.761 182.127C46.7822 180.47 47.3845 178.287 49.1163 177.383C50.7728 176.404 52.881 177.007 53.8598 178.738C54.7633 180.395 54.161 182.578 52.5045 183.482C50.9986 184.31 49.1163 183.934 48.0622 182.578C47.9618 182.428 47.8614 182.277 47.761 182.127ZM70.575 205.618C71.855 204.112 74.0385 203.886 75.5444 205.091C77.0503 206.371 77.2762 208.555 75.9962 210.061C74.7915 211.566 72.6079 211.717 71.1021 210.512C70.9013 210.362 70.7256 210.186 70.575 209.985C69.5962 208.705 69.5209 206.898 70.575 205.618ZM43.6198 173.92C42.7916 172.188 43.5446 170.08 45.3516 169.251C47.0834 168.498 49.1916 169.251 49.9445 171.058C50.7728 172.79 50.0198 174.898 48.2128 175.651C46.7069 176.329 44.9751 175.877 44.0716 174.672C43.8708 174.421 43.7202 174.17 43.6198 173.92ZM77.5773 211.19C78.6315 209.533 80.815 209.082 82.3961 210.136C84.0526 211.19 84.5044 213.373 83.4503 215.03C82.3961 216.611 80.2126 217.063 78.5562 216.009C78.255 215.808 77.9789 215.557 77.7279 215.256C76.8244 214.126 76.7491 212.47 77.5773 211.19ZM40.081 165.411C39.4787 163.604 40.3822 161.647 42.1893 160.969C43.9963 160.291 46.0292 161.195 46.7069 163.002C47.3845 164.809 46.4057 166.842 44.5987 167.52C43.1681 168.047 41.5869 167.595 40.6834 166.39C40.4324 166.089 40.2316 165.763 40.081 165.411ZM85.1067 215.933C85.9349 214.202 88.0432 213.524 89.7749 214.352C91.5067 215.256 92.1843 217.364 91.3561 219.096C90.5279 220.828 88.4196 221.505 86.6879 220.677C86.1859 220.426 85.7844 220.1 85.4832 219.698C84.655 218.644 84.5044 217.213 85.1067 215.933ZM37.2199 156.753C36.6928 154.87 37.7469 152.988 39.6293 152.386C41.4363 151.858 43.394 152.913 43.9963 154.795C44.5234 156.602 43.4693 158.56 41.5869 159.162C40.1563 159.538 38.7257 159.011 37.8222 157.957C37.5712 157.606 37.3705 157.204 37.2199 156.753ZM93.1631 219.773C93.7655 217.966 95.7984 216.988 97.6055 217.665C99.4125 218.268 100.391 220.3 99.7137 222.108C99.1114 223.915 97.1537 224.893 95.2714 224.291C94.669 224.065 94.0667 223.613 93.6902 223.162C93.0126 222.183 92.7114 220.978 93.1631 219.773ZM34.9611 147.943C34.5093 146.061 35.714 144.178 37.5963 143.727C39.4787 143.275 41.361 144.48 41.7375 146.362C42.1893 148.244 40.9846 150.127 39.1022 150.578C37.7469 150.88 36.3916 150.353 35.5634 149.298C35.2622 148.897 35.0615 148.445 34.9611 147.943ZM33.154 138.983C32.7775 137.101 34.0575 135.294 36.0152 134.993C37.8975 134.616 39.7046 135.896 40.0057 137.778C40.3822 139.736 39.1022 141.543 37.2199 141.844C35.8646 142.07 34.5846 141.543 33.8317 140.564C33.4803 140.113 33.2544 139.586 33.154 138.983ZM101.596 222.635C101.973 220.752 103.855 219.548 105.737 219.924C107.62 220.3 108.824 222.183 108.448 224.065C108.071 225.947 106.189 227.152 104.307 226.776C103.478 226.625 102.725 226.098 102.274 225.496C101.671 224.743 101.37 223.689 101.596 222.635ZM31.7987 130.023C31.5728 128.141 32.9281 126.334 34.8105 126.108C36.7681 125.882 38.4999 127.237 38.7257 129.12C38.9516 131.077 37.5963 132.809 35.714 133.035C34.434 133.261 33.2293 132.659 32.4764 131.755C32.0999 131.303 31.874 130.701 31.7987 130.023ZM110.33 224.366C110.481 222.409 112.212 220.978 114.17 221.204C116.052 221.355 117.483 223.011 117.332 224.969C117.182 226.926 115.45 228.282 113.492 228.131C112.514 228.056 111.685 227.529 111.083 226.851C110.556 226.173 110.255 225.27 110.33 224.366ZM30.8199 121.063C30.6693 119.106 32.0999 117.374 34.0575 117.223C35.9399 117.073 37.6716 118.503 37.8222 120.461C37.9728 122.343 36.5422 124.075 34.6599 124.226C33.3799 124.301 32.3258 123.774 31.5728 122.87C31.1964 122.343 30.8952 121.741 30.8199 121.063ZM119.215 225.044C119.14 223.086 120.721 221.505 122.603 221.43C124.561 221.355 126.142 222.86 126.217 224.818C126.292 226.7 124.787 228.357 122.829 228.432C121.699 228.432 120.645 227.905 119.968 227.077C119.516 226.475 119.29 225.797 119.215 225.044ZM30.2175 112.028C30.1423 110.07 31.6481 108.414 33.6058 108.339C35.4881 108.263 37.1446 109.769 37.2199 111.652C37.3705 113.609 35.8646 115.266 33.907 115.341C32.7775 115.416 31.6481 114.889 30.9705 113.986C30.594 113.459 30.2928 112.781 30.2175 112.028ZM128.175 224.592C127.874 222.71 129.154 220.903 131.036 220.602C132.994 220.3 134.801 221.656 135.102 223.538C135.328 225.42 134.048 227.227 132.165 227.529C130.885 227.755 129.605 227.227 128.852 226.249C128.501 225.797 128.275 225.245 128.175 224.592ZM136.909 223.162C136.382 221.279 137.511 219.322 139.394 218.795C141.201 218.268 143.158 219.397 143.685 221.204C144.212 223.086 143.158 225.044 141.276 225.571C139.845 225.947 138.415 225.42 137.586 224.366C137.285 224.015 137.059 223.613 136.909 223.162ZM145.492 220.602C144.739 218.795 145.568 216.762 147.299 216.009C149.106 215.256 151.139 216.084 151.892 217.816C152.721 219.623 151.892 221.656 150.085 222.409C148.579 223.086 146.923 222.559 145.944 221.355C145.743 221.154 145.593 220.903 145.492 220.602ZM153.624 216.988C152.645 215.331 153.248 213.148 154.904 212.169C156.561 211.19 158.744 211.792 159.723 213.449C160.702 215.105 160.099 217.289 158.443 218.268C156.937 219.096 154.979 218.719 153.925 217.364C153.825 217.264 153.724 217.138 153.624 216.988ZM161.304 212.395C160.175 210.813 160.476 208.63 162.057 207.501C163.563 206.371 165.746 206.672 166.951 208.253C168.08 209.759 167.779 211.943 166.198 213.148C164.692 214.277 162.509 213.976 161.379 212.47C161.329 212.47 161.304 212.445 161.304 212.395ZM168.608 202.079C170.038 200.724 172.222 200.799 173.502 202.23C174.857 203.661 174.782 205.844 173.351 207.199C171.92 208.479 169.737 208.404 168.382 206.973C168.331 206.923 168.281 206.848 168.231 206.748C167.102 205.392 167.252 203.284 168.608 202.079ZM174.556 195.905C175.836 194.475 178.095 194.324 179.525 195.604C180.956 196.959 181.106 199.143 179.826 200.574C178.546 202.004 176.287 202.155 174.857 200.875C174.706 200.724 174.556 200.574 174.405 200.423C173.426 199.143 173.426 197.185 174.556 195.905ZM179.977 189.279C181.106 187.698 183.365 187.322 184.871 188.527C186.452 189.656 186.753 191.839 185.624 193.421C184.494 194.926 182.311 195.303 180.73 194.174C180.479 193.973 180.253 193.747 180.052 193.496C179.073 192.291 178.998 190.559 179.977 189.279ZM184.796 182.127C185.85 180.47 187.958 179.943 189.614 180.922C191.271 181.976 191.798 184.159 190.744 185.741C189.765 187.397 187.582 187.924 185.925 186.945C185.574 186.694 185.273 186.418 185.022 186.117C184.118 184.988 184.043 183.407 184.796 182.127ZM189.012 174.597C189.916 172.865 192.024 172.188 193.756 173.016C195.487 173.92 196.165 176.028 195.262 177.759C194.358 179.491 192.25 180.169 190.518 179.265C190.066 179.014 189.69 178.713 189.389 178.362C188.56 177.308 188.41 175.802 189.012 174.597ZM192.626 166.691C193.379 164.96 195.412 164.131 197.219 164.809C199.026 165.562 199.854 167.595 199.101 169.402C198.349 171.209 196.316 172.037 194.509 171.284C193.982 171.058 193.454 170.682 193.153 170.23C192.4 169.251 192.174 167.971 192.626 166.691ZM195.638 158.635C196.316 156.753 198.273 155.774 200.08 156.376C201.963 156.978 202.941 159.011 202.339 160.818C201.737 162.625 199.704 163.68 197.897 163.077C197.219 162.851 196.617 162.4 196.24 161.872C195.563 160.969 195.262 159.764 195.638 158.635ZM198.123 150.277C198.574 148.395 200.457 147.266 202.339 147.793C204.221 148.244 205.351 150.127 204.899 152.009C204.372 153.891 202.49 155.021 200.607 154.569C199.854 154.343 199.177 153.891 198.725 153.364C198.123 152.536 197.821 151.407 198.123 150.277ZM199.93 141.844C200.306 139.887 202.113 138.682 204.071 138.983C205.953 139.36 207.233 141.167 206.857 143.124C206.48 145.007 204.673 146.287 202.791 145.91C201.887 145.76 201.134 145.233 200.683 144.63C200.08 143.877 199.779 142.823 199.93 141.844ZM201.285 133.261C201.511 131.303 203.243 129.948 205.125 130.174C207.083 130.4 208.438 132.131 208.212 134.089C207.986 135.971 206.254 137.327 204.297 137.101C203.393 137.026 202.565 136.499 201.963 135.821C201.436 135.143 201.134 134.164 201.285 133.261ZM202.038 124.602C202.113 122.644 203.77 121.139 205.727 121.289C207.61 121.364 209.116 123.021 209.04 124.979C208.89 126.861 207.233 128.367 205.351 128.291C204.297 128.216 203.393 127.689 202.791 126.936C202.264 126.259 201.963 125.43 202.038 124.602Z" fill="#68BD9F"/>
<path d="M45.9748 75.8438C45.9748 75.8438 47.5258 47.9248 32.9565 41.1634C18.3796 34.3945 6.82202 12.0925 6.16696 5.59466C5.51943 -0.903195 0.632867 23.1532 5.91849 37.5042L14.5923 38.7465L6.52084 40.3277C6.52084 40.3277 22.2648 67.0494 45.9748 75.8438Z" fill="black"/>
<path d="M45.949 75.8121C45.949 75.8121 47.5302 47.9534 32.9232 41.1769C18.3915 34.4005 6.79626 12.1135 6.19391 5.56299C5.51626 -0.912273 0.622168 23.1817 5.89273 37.4876L14.5515 38.7676L6.49508 40.3487C6.49508 40.3487 22.2315 67.078 45.949 75.8121Z" fill="#68BD9F"/>
<g style="mix-blend-mode:multiply" opacity="0.5">
<path d="M46.0258 71.4468C43.3152 68.9621 40.6047 66.5527 37.8941 64.1433C32.3224 59.0986 27.353 54.4304 22.6095 48.4822C20.7522 46.1732 18.9703 43.7889 17.2636 41.3293C16.4103 40.0744 15.582 38.7693 14.7789 37.414C14.3773 36.8619 14.0009 36.2846 13.6495 35.6823C13.5993 35.5819 13.5491 35.5066 13.4989 35.4564C13.3985 35.2054 13.273 34.9544 13.1224 34.7034C11.6166 31.9929 10.2613 29.2823 9.05658 26.4211C8.45423 25.0156 7.90208 23.56 7.40012 22.0541C7.19933 21.3514 6.97345 20.6235 6.72247 19.8706C6.72247 19.7953 6.72247 19.6447 6.64718 19.5694C6.59698 19.3184 6.54679 19.0674 6.49659 18.8165C5.84405 15.9553 5.46758 13.069 5.36719 10.1577C5.36719 10.1075 5.36719 10.0573 5.36719 10.0071C5.36719 9.9569 5.36719 9.9067 5.36719 9.8565C5.36719 9.50513 5.36719 9.17887 5.36719 8.87769C5.41738 8.12475 5.49267 7.37182 5.59307 6.61888C5.69346 5.96633 5.79385 5.28868 5.89424 4.58594C5.99463 4.68633 6.09503 5.0126 6.19542 5.56476C6.79777 12.1153 18.393 34.4023 32.9247 41.1787C43.9176 46.2234 45.7246 63.3151 46.0258 71.4468Z" fill="#68BD9F"/>
</g>
<path d="M14.8572 55.7857L15.0078 55.4093C21.0313 58.5716 27.0548 55.4846 27.8077 55.1081C25.5991 52.2469 23.516 49.4862 21.5583 46.8258L21.483 46.7505C19.1489 43.5881 17.0407 40.5011 15.1583 37.6399C13.6525 35.2305 12.3725 32.8964 11.2431 30.6376V30.8635C11.2431 30.8635 4.99369 31.4659 1.60547 27.7012L1.90664 27.4753C5.06898 30.9388 10.716 30.5623 11.1678 30.487C7.85485 23.4847 6.42427 17.0847 5.82192 12.5671C4.91839 5.94126 5.52074 1.64951 5.59604 1.57422L5.89721 1.64952C5.89721 1.64952 5.29486 5.94126 6.19839 12.4918C6.95133 18.5153 9.21014 27.7012 15.4595 37.4141C16.865 39.5725 18.396 41.8062 20.0524 44.1152C21.1818 43.1364 22.236 36.5858 22.6124 32.4447H22.9889C22.9136 33.5741 21.8595 42.9858 20.2783 44.4164C20.7301 45.0187 21.1818 45.6462 21.6336 46.2987C23.9677 44.1905 24.4195 33.5741 24.4195 33.4988H24.7959C24.7959 33.9505 24.2689 44.3411 21.8595 46.5999C28.4101 55.5599 36.7677 65.5739 46.1041 75.7386C46.5559 76.2656 46.7064 76.4162 46.7064 76.4915L46.4053 76.7174C46.4053 76.6421 46.1794 76.4162 45.8029 76.0398C39.3277 68.9621 33.3042 61.9598 28.1089 55.4093C27.5065 55.7104 21.1818 59.0234 14.8572 55.7857Z" fill="#156B62"/>
<path d="M39.023 80.1047L36.8094 85.0741L37.103 79.0657C35.6473 78.3178 34.036 77.5949 32.2691 76.8972C13.9351 69.6916 3.37139 63.4196 1.54928 61.1006C-0.280359 58.774 8.90548 76.453 14.9214 81.1287L18.2871 79.4271L16.6833 83.9673L20.5233 80.4812L19.6725 85.3828C19.6725 85.3828 40.4159 107.61 51.4389 94.7268C51.4389 94.7268 50.8291 86.8812 39.023 80.1047Z" fill="black"/>
<path d="M39.0245 80.107L36.841 85.0764L37.1422 79.0529C35.6865 78.2999 34.0551 77.5721 32.2481 76.8693C13.9517 69.7164 3.41057 63.3918 1.52822 61.133C-0.27883 58.7988 8.90701 76.4929 14.9305 81.1611L18.3187 79.4293L16.6623 83.947L20.5023 80.4835L19.674 85.3776C19.674 85.3776 40.4551 107.589 51.448 94.714C51.448 94.714 50.8456 86.8834 39.0245 80.107Z" fill="#FF4B70"/>
<g style="mix-blend-mode:multiply" opacity="0.5">
<path d="M47.1553 92.1532C40.0024 89.4426 33.4518 85.6026 26.5248 82.365C26.0731 82.1642 25.6715 81.9132 25.3201 81.612C24.6174 81.2105 23.8895 80.8089 23.1366 80.4073C18.9201 78.0732 14.8543 75.4379 11.2402 72.2003C7.55078 68.8121 4.31315 64.8968 1.3014 60.9062C1.07552 61.358 9.35783 76.7932 14.9296 81.1603L18.3178 79.4285L16.6613 83.9461L20.5013 80.4826L19.6731 85.3767C19.6731 85.3767 40.2283 107.362 51.2965 94.939C49.9412 94.0355 48.6612 93.132 47.3059 92.2284C47.2557 92.2284 47.2055 92.2034 47.1553 92.1532Z" fill="#FF4B70"/>
</g>
<path d="M53.0281 94.3334C46.7034 92.2252 41.1317 89.8911 36.2376 87.5569C36.3882 86.9546 38.4211 81.0064 38.1199 78.8982L37.8188 78.9735C38.1199 80.9311 36.1623 86.7287 35.9364 87.4816C29.6117 84.4699 24.3412 81.3829 20.1247 78.5217C20.4259 77.5429 21.9318 72.2723 20.8024 69.7123L20.5012 69.7876C21.5553 72.197 20.2 77.1664 19.8236 78.3711C15.9836 75.7358 12.8965 73.2511 10.4871 71.0676C2.88245 64.1406 0.473051 58.9453 0.473051 58.9453L0.171875 59.0206C0.171875 59.0959 2.58128 64.2912 10.2612 71.2935C11.4157 72.3476 12.6204 73.3515 13.8753 74.3052C12.9718 74.9829 9.88477 76.1123 8.3036 76.7146L8.3789 76.9405C8.60478 76.8652 12.9718 75.3593 14.1012 74.5311C18.7694 78.2205 23.8894 81.5334 29.0847 84.3193C28.6329 86.5028 23.5129 91.2463 23.5129 91.3216L23.6635 91.5475C23.8894 91.3216 28.7835 86.804 29.3106 84.4699C33.1505 86.5028 36.9905 88.3099 40.6799 89.8911H40.5293C40.2282 91.9993 34.4305 97.571 34.3552 97.6463L34.5811 97.8722C34.807 97.6463 40.454 92.2251 40.7552 89.9663C41.3074 90.2173 41.8595 90.4432 42.4117 90.644C42.487 92.6769 36.6894 98.3992 36.6141 98.4745L36.8399 98.6251C37.0658 98.3992 42.5623 93.0534 42.7129 90.7946C46.327 92.3004 49.7905 93.5804 52.9528 94.6346L53.0281 94.3334Z" fill="#8A294B"/>
<path d="M187.957 116.644C187.957 116.644 198.461 90.7355 214.521 90.8334C230.588 90.9313 250.556 75.6843 253.922 70.0825C257.28 64.4806 251.437 88.3261 240.542 99.0555L232.162 96.4805L238.788 101.352C238.788 101.352 213.15 118.805 187.957 116.644Z" fill="black"/>
<path d="M187.957 116.623C187.957 116.623 198.423 90.7217 214.536 90.8723C230.573 90.9476 250.526 75.663 253.914 70.0912C257.303 64.5195 251.43 88.3123 240.512 99.0793L232.154 96.5194L238.78 101.338C238.78 101.338 213.18 118.806 187.957 116.623Z" fill="#68BD9F"/>
<g style="mix-blend-mode:multiply" opacity="0.5">
<path d="M189.84 112.71C193.228 111.581 196.767 110.527 200.23 109.473C207.459 107.364 213.934 105.256 220.71 101.868C223.421 100.563 226.056 99.1573 228.616 97.6514C229.971 96.8984 231.302 96.0953 232.607 95.242C233.159 94.8404 233.736 94.4639 234.338 94.1126C234.389 94.0624 234.464 94.0122 234.564 93.962C234.765 93.8114 234.991 93.6357 235.242 93.4349C237.727 91.7032 240.136 89.7455 242.395 87.7126C243.549 86.6585 244.679 85.5793 245.783 84.475C246.285 83.8726 246.787 83.2954 247.289 82.7432C247.364 82.6679 247.44 82.5926 247.515 82.5173C247.665 82.3166 247.816 82.1158 247.967 81.915C249.824 79.606 251.405 77.1464 252.71 74.5362C252.76 74.486 252.785 74.4609 252.785 74.4609C252.785 74.4107 252.811 74.3605 252.861 74.3103C252.961 74.0091 253.087 73.6829 253.237 73.3315C253.488 72.679 253.739 72.0013 253.99 71.2986C254.191 70.646 254.392 69.9684 254.592 69.2656C254.442 69.3158 254.216 69.5919 253.915 70.0939C250.527 75.6656 230.574 90.9502 214.536 90.8749C202.414 90.7997 193.454 105.407 189.84 112.71Z" fill="#68BD9F"/>
</g>
<path d="M224.699 111.73L224.623 111.353C217.922 111.655 213.781 106.384 213.179 105.631C216.442 104.025 219.529 102.419 222.44 100.812H222.515C225.979 98.93 229.216 97.0476 232.153 95.2405C234.562 93.7347 236.67 92.1535 238.628 90.5723L238.553 90.7982C238.553 90.7982 243.899 93.9606 248.567 92.0029L248.416 91.7017C244.125 93.4335 239.23 90.7229 238.779 90.497C244.802 85.5277 248.793 80.4077 251.277 76.4924C254.892 70.9207 256.172 66.7795 256.172 66.7042L255.795 66.6289C255.795 66.6289 254.515 70.7701 250.976 76.3418C247.663 81.4618 241.715 88.8406 231.927 94.9394C229.769 96.2445 227.434 97.5997 224.925 99.0052C224.322 97.6499 226.205 91.25 227.56 87.3347L227.259 87.1841C226.882 88.2382 223.795 97.1982 224.623 99.2311C223.971 99.5825 223.293 99.9339 222.591 100.285C221.386 97.4241 225.452 87.6359 225.527 87.5606L225.15 87.41C225 87.7865 221.009 97.4241 222.289 100.511C212.501 105.782 200.68 111.353 187.88 116.549C187.278 116.775 187.052 116.85 186.977 116.925L187.202 117.226C187.202 117.226 187.579 117.076 188.031 116.85C196.915 113.236 205.273 109.471 212.878 105.782C213.254 106.309 217.546 112.031 224.699 111.73Z" fill="#156B62"/>
<path d="M223.598 63.0544L227.626 66.7739L224.968 61.3753C226.027 60.1355 227.239 58.8605 228.605 57.5504C242.798 43.9975 250.131 34.247 250.907 31.4235C251.675 28.5999 250.146 48.2968 246.404 54.8549L242.609 54.5688L245.9 58.1302L240.945 56.3909L243.678 60.5546C243.678 60.5546 233.205 88.7973 217.853 81.1625C217.853 81.1625 215.308 73.7385 223.598 63.0544Z" fill="black"/>
<path d="M223.569 63.0131L227.634 66.7778L224.999 61.3566C226.053 60.1519 227.258 58.8719 228.613 57.5166C242.768 43.9638 250.147 34.2509 250.9 31.3897C251.653 28.6038 250.147 48.2555 246.383 54.8814L242.618 54.5802L245.931 58.119L240.961 56.3872L243.672 60.5284C243.672 60.5284 233.206 88.7636 217.846 81.1589C217.846 81.1589 215.286 73.7048 223.569 63.0131Z" fill="#FF4B70"/>
<g style="mix-blend-mode:multiply" opacity="0.5">
<path d="M220.785 77.1686C226.357 72.0486 230.949 66.0251 236.145 60.378C236.446 60.0267 236.697 59.6502 236.898 59.2486C237.45 58.5961 237.977 57.9435 238.479 57.291C241.491 53.5263 244.201 49.611 246.234 45.244C248.418 40.7264 249.848 35.9829 251.053 31.1641C251.429 31.4652 249.848 48.7828 246.385 54.8816L242.62 54.5804L245.933 58.1192L240.964 56.3875L243.674 60.5286C243.674 60.5286 233.284 88.5379 218.074 81.2344C218.978 79.9544 219.806 78.6744 220.71 77.3191C220.76 77.269 220.785 77.2187 220.785 77.1686Z" fill="#FF4B70"/>
</g>
<path d="M216.266 81.4602C221.235 77.0179 225.527 72.8015 229.216 68.8109C228.764 68.3591 224.548 63.6156 223.946 61.658L224.247 61.5827C224.774 63.465 228.84 67.9826 229.367 68.585C234.11 63.465 237.724 58.7215 240.586 54.4298C239.908 53.6768 236.444 49.3851 236.444 46.5992H236.746C236.746 49.2345 239.983 53.2251 240.736 54.2039C243.296 50.2886 245.178 46.8251 246.534 43.9639C250.901 34.7028 251.051 29.0558 251.051 28.9805H251.353C251.353 29.0558 251.202 34.7781 246.835 44.0392C246.182 45.4447 245.48 46.8251 244.727 48.1804C245.781 48.4816 249.094 48.4063 250.825 48.2557V48.5568C250.6 48.5568 245.931 48.858 244.576 48.4816C241.715 53.6768 238.251 58.5709 234.562 63.1638C235.767 64.9709 242.393 67.3803 242.468 67.4556L242.393 67.7568C242.091 67.6062 235.767 65.2721 234.336 63.3897C231.626 66.7026 228.764 69.7897 225.979 72.6508L226.129 72.5756C227.183 74.4579 234.788 77.3191 234.863 77.3191L234.788 77.6202C234.411 77.5449 227.108 74.6838 225.903 72.8014C225.451 73.203 225.025 73.6046 224.623 74.0061C225.376 75.8885 233.056 78.9002 233.131 78.9755L232.981 79.2014C232.68 79.1261 225.451 76.265 224.397 74.232C221.611 77.0179 218.901 79.5026 216.416 81.6861L216.266 81.4602Z" fill="#8A294B"/>
<path d="M216.188 39.4464L215.134 41.7052C215.059 41.8558 214.908 41.9311 214.682 41.9311L212.273 42.3076C211.896 42.3829 211.746 42.9099 212.047 43.2111L213.779 44.8676C213.929 45.0182 213.929 45.1687 213.929 45.3193L213.478 47.7287C213.478 48.1805 213.854 48.4817 214.23 48.3311L216.414 47.1264C216.565 47.0511 216.715 47.0511 216.866 47.1264L219.049 48.2558C219.426 48.4817 219.877 48.1805 219.802 47.7287L219.35 45.3193C219.35 45.1687 219.426 45.0182 219.501 44.8676L221.308 43.1358C221.609 42.8346 221.383 42.3829 221.007 42.3076L218.597 41.9311C218.372 41.9311 218.296 41.8558 218.221 41.7052L217.092 39.4464C216.941 39.0699 216.339 39.0699 216.188 39.4464Z" fill="white"/>
<path d="M25.4731 0.970458L25.0213 6.09043C25.0213 6.3916 24.7954 6.69278 24.4942 6.91866L20.0519 9.40336C19.299 9.85512 19.3743 10.9845 20.1272 11.2857L24.8707 13.3186C25.1719 13.4692 25.3978 13.7704 25.4731 14.0716L26.4519 19.1163C26.6778 19.9445 27.7319 20.2457 28.3342 19.568L31.7224 15.728C31.9483 15.5022 32.2495 15.3516 32.626 15.4269L37.6707 15.9539C38.5742 16.1045 39.1765 15.1257 38.7248 14.3727L36.0895 10.0057C35.9389 9.70454 35.9389 9.32806 36.0895 9.02689L38.1977 4.35868C38.5742 3.53045 37.8212 2.70221 36.993 2.8528L32.0236 3.98221C31.6471 4.0575 31.346 3.98221 31.0448 3.75633L27.2801 0.292807C26.6778 -0.309543 25.6236 0.0669329 25.4731 0.970458Z" fill="#F7BA47"/>
<path d="M27.6559 5.11412L27.43 7.5988C27.3547 7.74939 27.2794 7.89998 27.1289 7.97527L25.0206 9.17998C24.6442 9.40586 24.6442 9.93291 25.0206 10.0835L27.2794 11.0623C27.5053 11.1376 27.5806 11.2882 27.5806 11.4388L28.1077 13.9235C28.183 14.3 28.71 14.4505 29.0112 14.1494L30.5924 12.267C30.743 12.1164 30.8935 12.0411 31.0441 12.1164L33.5288 12.4176C33.9806 12.4176 34.2818 11.9658 34.0559 11.5894L32.7759 9.48115C32.7006 9.33056 32.7006 9.17998 32.7759 9.02939L33.7547 6.77058C33.9806 6.39411 33.6041 5.94235 33.2276 6.01764L30.743 6.5447C30.5924 6.61999 30.4418 6.54469 30.2912 6.4694L28.4842 4.81294C28.183 4.51176 27.6559 4.66236 27.6559 5.11412Z" fill="#BF771F"/>
<path d="M8.90963 98.9303L7.17788 102.77C7.10259 102.996 6.8767 103.222 6.57553 103.297L2.35908 104.05C1.68143 104.201 1.45555 105.029 1.98261 105.556L5.06965 108.417C5.29553 108.568 5.44612 108.869 5.37083 109.17L4.84377 113.387C4.69318 114.064 5.52141 114.591 6.12377 114.215L9.81316 112.107C10.039 111.956 10.3402 111.956 10.6414 112.107L14.4061 113.914C15.0837 114.215 15.8367 113.688 15.6861 112.935L14.7825 108.794C14.7825 108.493 14.8578 108.267 15.0084 108.041L17.9449 104.954C18.4719 104.427 18.1708 103.523 17.4178 103.448L13.2014 102.996C12.9002 102.996 12.6743 102.846 12.5237 102.544L10.4908 98.855C10.1896 98.1773 9.21081 98.2526 8.90963 98.9303Z" fill="#F7BA47"/>
<path d="M9.50938 102.695L8.60585 104.577C8.60585 104.728 8.45526 104.803 8.30468 104.803L6.34703 105.179C5.97056 105.255 5.81998 105.706 6.12116 105.932L7.62703 107.288C7.70232 107.363 7.77762 107.513 7.77762 107.664L7.47644 109.697C7.47644 110.073 7.85291 110.299 8.15409 110.149L9.88584 109.095C10.0364 109.019 10.187 109.019 10.2623 109.095L12.1447 109.998C12.4458 110.149 12.8223 109.848 12.747 109.546L12.2952 107.513C12.2952 107.363 12.3705 107.212 12.4458 107.137L13.8764 105.631C14.1023 105.405 13.9517 104.953 13.5752 104.953L11.5423 104.728C11.3917 104.652 11.3164 104.577 11.2411 104.502L10.2623 102.695C10.1117 102.393 9.65996 102.393 9.50938 102.695Z" fill="#BF771F"/>
</svg>
