<svg width="257" height="244" viewBox="0 0 257 244" fill="none" xmlns="http://www.w3.org/2000/svg">
<path d="M60.5312 198.931L102.524 242.93C103.126 243.531 104.396 243.264 105.266 242.395C106.202 241.458 106.469 240.255 105.934 239.653L62.6041 196.523L60.5312 198.931Z" fill="#F7BA47"/>
<path d="M59.6647 172.786C67.9563 181.212 69.7617 192.847 63.6768 198.798C57.6587 204.749 46.0237 202.743 37.7321 194.318C29.4406 185.892 27.702 174.257 33.7201 168.306C39.805 162.355 51.44 164.361 59.6647 172.786Z" fill="#FF4B70"/>
<path d="M34.9883 170.445C34.9883 170.445 44.751 188.299 48.6961 183.551C52.7082 178.804 34.9883 170.445 34.9883 170.445Z" fill="white"/>
<path d="M38.4023 168.035C38.4023 168.035 50.3717 177.463 51.709 172.983C53.0464 168.57 38.4023 168.035 38.4023 168.035Z" fill="white"/>
<path d="M46.625 175.125C46.625 175.125 52.5094 181.678 53.713 179.271C54.9166 176.864 46.625 175.125 46.625 175.125Z" fill="white"/>
<path d="M39.8047 181.812C39.8047 181.812 46.224 187.831 43.8167 188.967C41.4095 190.104 39.8047 181.812 39.8047 181.812Z" fill="white"/>
<path d="M32.8516 174.055C32.8516 174.055 42.0793 186.225 37.5991 187.495C33.119 188.699 32.8516 174.055 32.8516 174.055Z" fill="white"/>
<path d="M59.2605 172.048C55.7834 187.762 38.3309 195.05 38.1972 195.117L37.9297 194.649C38.1303 194.582 55.2484 187.36 58.6587 171.914L59.2605 172.048Z" fill="white"/>
<path d="M61.5374 174.388C58.0603 190.102 40.6078 197.39 40.4741 197.457L40.2734 196.922C40.4072 196.855 57.5922 189.7 61.0024 174.254L61.5374 174.388Z" fill="white"/>
<path d="M44.7517 198.731C44.7963 198.776 44.8186 198.843 44.8186 198.932C44.8186 199.021 44.7963 199.088 44.7517 199.132C44.7071 199.177 44.6848 199.221 44.6848 199.266C44.6848 199.266 44.6625 199.288 44.6179 199.333C44.5734 199.333 44.5511 199.355 44.5511 199.4C44.5065 199.4 44.4619 199.422 44.4173 199.467C44.3728 199.467 44.3059 199.467 44.2168 199.467C44.1276 199.467 44.0607 199.444 44.0162 199.4C43.927 199.4 43.8601 199.377 43.8156 199.333C43.6818 199.132 43.6149 198.865 43.7487 198.664C43.7487 198.62 43.771 198.575 43.8156 198.53C43.9047 198.486 43.9716 198.441 44.0162 198.397C44.1945 198.352 44.3505 198.352 44.4842 198.397C44.5288 198.441 44.5734 198.486 44.6179 198.53C44.6625 198.575 44.7071 198.642 44.7517 198.731Z" fill="#F7BA47"/>
<path d="M62.6077 181.679C62.474 181.946 62.1397 182.08 61.8722 181.946C61.6047 181.812 61.471 181.478 61.6047 181.211C61.7385 180.943 62.0728 180.809 62.3402 180.943C62.474 181.032 62.5854 181.144 62.6746 181.277C62.7192 181.411 62.6969 181.545 62.6077 181.679ZM61.0698 184.554C60.8692 184.821 60.5348 184.888 60.2674 184.688C60.0668 184.554 59.933 184.22 60.1336 183.952C60.2674 183.685 60.6017 183.618 60.8692 183.752C61.0029 183.841 61.0921 183.93 61.1366 184.019C61.1812 184.197 61.1589 184.376 61.0698 184.554ZM59.2644 187.162C59.0637 187.429 58.6625 187.496 58.4619 187.296C58.1945 187.095 58.1276 186.761 58.3282 186.493C58.5288 186.226 58.8631 186.226 59.1306 186.426C59.2198 186.471 59.2866 186.538 59.3312 186.627C59.3981 186.827 59.3312 187.028 59.2644 187.162ZM57.1915 189.636C56.9909 189.903 56.5897 189.903 56.3891 189.703C56.1216 189.502 56.1216 189.168 56.3222 188.9C56.5228 188.7 56.924 188.633 57.1246 188.9C57.2137 188.945 57.2583 189.012 57.2583 189.101C57.3252 189.302 57.3252 189.502 57.1915 189.636ZM54.918 191.976C54.7174 192.177 54.3161 192.177 54.1155 191.909C53.9149 191.709 53.9149 191.374 54.1155 191.174C54.383 190.906 54.7174 190.973 54.918 191.174C54.9625 191.218 55.0071 191.285 55.0517 191.374C55.1186 191.575 55.1186 191.776 54.918 191.976ZM52.5107 194.049C52.2433 194.25 51.9089 194.25 51.7083 193.982C51.5077 193.782 51.5746 193.447 51.7752 193.247C52.0426 193.046 52.377 193.046 52.5776 193.314C52.6222 193.358 52.6444 193.403 52.6444 193.447C52.7782 193.648 52.7113 193.915 52.5107 194.049ZM49.9697 196.055C49.7023 196.189 49.368 196.189 49.1674 195.921C48.9668 195.654 49.0336 195.32 49.3011 195.119C49.5685 194.918 49.9029 194.985 50.1035 195.253C50.1035 195.297 50.1258 195.342 50.1704 195.386C50.2372 195.587 50.1703 195.855 49.9697 196.055ZM47.295 197.794C47.0276 197.994 46.6933 197.927 46.4927 197.66C46.3589 197.393 46.4258 197.058 46.6932 196.858C46.9607 196.724 47.2951 196.791 47.4957 197.058C47.4957 197.103 47.4957 197.125 47.4957 197.125C47.6294 197.393 47.4956 197.66 47.295 197.794Z" fill="#F7BA47"/>
<path d="M63.876 178.338C63.9429 178.471 63.9429 178.605 63.876 178.739C63.8091 178.873 63.6754 179.006 63.5417 179.073C63.4971 179.073 63.4302 179.073 63.341 179.073C63.2519 179.073 63.185 179.051 63.1404 179.006C62.873 178.939 62.7392 178.538 62.8061 178.271C62.8507 178.226 62.8953 178.182 62.9398 178.137C63.029 178.092 63.0959 178.048 63.1404 178.003C63.2742 177.936 63.4079 177.936 63.5417 178.003C63.6754 178.07 63.8091 178.204 63.876 178.338Z" fill="#F7BA47"/>
<path d="M49.9024 200.67C49.9024 200.67 49.9024 200.692 49.9024 200.736C49.9024 200.781 49.9024 200.826 49.9024 200.87C49.9024 200.915 49.9024 200.959 49.9024 201.004C49.9024 201.004 49.8801 201.026 49.8355 201.071C49.8355 201.115 49.8355 201.138 49.8355 201.138C49.791 201.182 49.7686 201.227 49.7686 201.271C49.7241 201.271 49.6795 201.294 49.6349 201.338C49.6349 201.338 49.6126 201.338 49.568 201.338C49.4789 201.383 49.412 201.405 49.3675 201.405C49.2783 201.405 49.1891 201.383 49.1 201.338C48.8994 201.271 48.7656 201.071 48.7656 200.803C48.7656 200.759 48.7879 200.692 48.8325 200.603C48.8771 200.558 48.9216 200.514 48.9662 200.469C49.0108 200.38 49.0777 200.335 49.1669 200.335C49.3006 200.268 49.4343 200.268 49.568 200.335C49.6572 200.38 49.7241 200.424 49.7686 200.469C49.8132 200.514 49.8578 200.58 49.9024 200.67Z" fill="#F7BA47"/>
<path d="M64.4777 186.961C64.3439 187.228 63.9427 187.295 63.7421 187.094C63.4747 186.894 63.4078 186.559 63.6084 186.292C63.809 186.024 64.1433 186.024 64.4108 186.158C64.5 186.247 64.5668 186.336 64.6114 186.426C64.6783 186.626 64.6114 186.827 64.4777 186.961ZM62.3379 189.635C62.1373 189.903 61.7361 189.903 61.5355 189.702C61.268 189.502 61.268 189.167 61.4686 188.9C61.6692 188.699 62.0036 188.632 62.271 188.833C62.3602 188.922 62.4048 189.011 62.4048 189.1C62.4717 189.301 62.4716 189.502 62.3379 189.635ZM59.9975 192.176C59.7969 192.444 59.4626 192.444 59.1952 192.243C58.9945 191.976 58.9945 191.641 59.1952 191.441C59.3958 191.173 59.7301 191.173 59.9975 191.441C60.0421 191.485 60.0867 191.552 60.1313 191.641C60.1981 191.775 60.1313 192.043 59.9975 192.176ZM57.5903 194.65C57.3228 194.851 56.9885 194.851 56.7879 194.583C56.5873 194.383 56.5873 194.049 56.7879 193.848C56.9885 193.58 57.3897 193.647 57.5903 193.848C57.6349 193.893 57.6795 193.959 57.7241 194.049C57.7909 194.249 57.724 194.45 57.5903 194.65ZM55.0493 196.991C54.7819 197.191 54.4475 197.124 54.2469 196.924C54.0463 196.656 54.0463 196.322 54.3138 196.121C54.5144 195.921 54.8487 195.921 55.0493 196.188C55.0939 196.233 55.1385 196.277 55.1831 196.322C55.25 196.523 55.1831 196.79 55.0493 196.991ZM52.3746 199.197C52.174 199.398 51.8397 199.331 51.6391 199.13C51.4385 198.863 51.4385 198.529 51.706 198.328C51.9066 198.127 52.3078 198.194 52.5084 198.395C52.5084 198.44 52.5307 198.484 52.5752 198.529C52.6421 198.796 52.5752 199.064 52.3746 199.197Z" fill="#F7BA47"/>
<path d="M66.5543 183.616C66.5989 183.705 66.5989 183.794 66.5543 183.883C66.5543 183.928 66.5543 183.994 66.5543 184.084C66.5097 184.128 66.4874 184.151 66.4874 184.151C66.4428 184.195 66.4205 184.217 66.4205 184.217C66.376 184.262 66.3536 184.284 66.3536 184.284C66.3091 184.329 66.2645 184.351 66.2199 184.351C66.0862 184.418 65.9524 184.418 65.8187 184.351C65.6181 184.284 65.4844 184.084 65.4844 183.95C65.4844 183.905 65.4844 183.861 65.4844 183.816C65.4844 183.772 65.4844 183.749 65.4844 183.749C65.4844 183.705 65.4844 183.66 65.4844 183.616C65.5735 183.482 65.685 183.393 65.8187 183.348C65.8633 183.304 65.9079 183.281 65.9525 183.281C65.997 183.281 66.0193 183.281 66.0193 183.281C66.0639 183.281 66.1085 183.281 66.1531 183.281C66.1976 183.281 66.2422 183.304 66.2868 183.348C66.2868 183.348 66.3091 183.37 66.3536 183.415C66.3982 183.415 66.4205 183.437 66.4205 183.482C66.4651 183.482 66.4874 183.504 66.4874 183.549C66.532 183.593 66.5543 183.616 66.5543 183.616Z" fill="#F7BA47"/>
<path d="M170.463 196.322C175.412 194.115 178.086 190.036 181.029 184.152C183.904 178.334 184.773 178.936 182.299 187.696C186.846 179.003 192.329 165.83 193.332 167.1C194.268 168.371 191.861 173.988 191.861 173.988C200.22 165.496 210.718 163.021 222.152 166.499C233.586 169.976 240.474 180.942 234.991 192.51C229.508 204.145 214.864 198.127 207.776 194.182C210.383 198.06 206.304 200.601 196.074 195.586C200.487 197.993 198.08 200.869 194.001 198.394C186.044 193.647 173.205 200.334 169.661 198.06C168.056 196.99 170.463 196.322 170.463 196.322Z" fill="#68BD9F"/>
<path d="M226.9 187.632C226.944 187.587 226.966 187.565 226.966 187.565C227.1 187.498 227.1 187.364 227.1 187.23C224.426 182.55 220.413 179.34 215.398 178.07C209.581 176.598 202.694 177.802 197.01 181.413C194.201 183.151 191.727 185.158 189.253 187.097C182.834 192.179 176.816 197.06 166.986 197.127C166.852 197.127 166.719 197.261 166.719 197.394C166.719 197.528 166.852 197.595 166.986 197.595C177.016 197.528 183.369 192.379 189.587 187.498C191.995 185.559 194.536 183.553 197.21 181.814C202.827 178.27 209.581 177.067 215.332 178.538C220.146 179.741 224.091 182.884 226.632 187.498C226.699 187.565 226.833 187.632 226.9 187.632Z" fill="#156B62"/>
<path d="M180.962 193.581C181.006 193.581 181.051 193.559 181.095 193.514C185.241 188.834 187.18 182.281 188.183 178.737C188.317 178.291 188.429 177.89 188.518 177.533C188.585 177.466 188.518 177.332 188.384 177.266C188.25 177.266 188.117 177.332 188.117 177.399C187.983 177.756 187.849 178.157 187.715 178.603C186.712 182.08 184.773 188.633 180.761 193.18C180.694 193.314 180.694 193.448 180.761 193.514C180.85 193.559 180.917 193.581 180.962 193.581Z" fill="#156B62"/>
<path d="M172.135 187.028C173.539 183.484 172.536 171.381 171.467 166.566C170.33 161.752 171.533 160.481 173.339 165.563C171.199 159.211 172.737 158.074 172.737 158.074L174.81 161.752C176.816 152.39 186.445 146.506 194.937 147.242C203.496 147.91 203.63 160.615 184.907 167.569C193.265 165.496 191.059 167.168 191.059 167.168C187.381 168.505 181.831 169.977 179.758 176.53C177.685 183.083 176.014 186.827 173.54 188.499C172.47 189.234 171.333 188.967 172.135 187.028Z" fill="#A34896"/>
<path d="M170.933 190.704C170.978 190.704 171 190.682 171 190.637C173.675 188.297 174.744 182.947 176.082 176.728C178.422 165.495 181.364 151.519 194.671 149.246C194.872 149.246 194.938 149.112 194.938 148.912C194.872 148.778 194.738 148.711 194.604 148.711C180.829 150.984 177.887 165.16 175.547 176.595C174.209 182.747 173.14 188.029 170.665 190.236C170.532 190.303 170.532 190.503 170.599 190.637C170.732 190.704 170.866 190.771 170.933 190.704Z" fill="#61255B"/>
<path d="M169.594 204.281C172.001 204.816 182.098 203.813 186.244 206.22C186.712 206.688 181.63 206.688 181.63 206.688C185.04 207.023 188.985 208.226 190.055 209.162C190.724 209.697 185.04 208.627 185.04 208.627C189.253 209.296 193.265 212.907 194.535 217.588C196.475 224.943 186.779 230.159 182.834 221.065C179.223 212.573 177.885 210.767 174.074 208.226C177.685 211.837 176.615 212.171 176.615 212.171C173.94 208.962 170.263 206.488 168.925 205.551C167.989 204.883 168.19 203.947 169.594 204.281Z" fill="#F7BA47"/>
<path d="M187.248 219.592C187.292 219.592 187.337 219.592 187.381 219.592C187.515 219.592 187.649 219.392 187.582 219.258C185.175 208.693 178.02 206.888 172.269 205.416C169.728 204.815 167.455 204.213 166.117 202.942C165.984 202.875 165.783 202.875 165.649 203.009C165.583 203.076 165.583 203.277 165.716 203.41C167.187 204.748 169.461 205.35 172.136 206.018C177.752 207.422 184.64 209.161 187.047 219.392C187.047 219.526 187.114 219.592 187.248 219.592Z" fill="#BF771F"/>
<path d="M66.6844 108.392C61.6693 106.252 58.9946 102.106 56.1193 96.2219C53.1771 90.4044 52.3079 91.0062 54.8489 99.8328C50.3019 91.0731 44.7518 77.967 43.7488 79.2375C42.8127 80.4412 45.2199 86.1249 45.2199 86.1249C36.8614 77.5658 26.3632 75.1586 14.9289 78.6357C3.4945 82.1128 -3.39288 93.0123 2.09027 104.647C7.57341 116.215 22.2174 110.197 29.3054 106.252C26.7644 110.13 30.7765 112.671 41.0072 107.656C36.6608 110.13 39.0012 112.939 43.0801 110.532C51.0374 105.717 63.876 112.471 67.42 110.13C69.0248 109.127 66.6844 108.392 66.6844 108.392Z" fill="#68BD9F"/>
<path d="M10.1815 99.6986C10.1815 99.6986 10.1593 99.6986 10.1147 99.6986C9.98095 99.6318 9.98097 99.4312 10.0478 99.3643C12.6557 94.6167 16.6677 91.407 21.6828 90.1365C27.5003 88.6655 34.3877 89.9359 40.1383 93.4799C42.8798 95.2185 45.4208 97.2245 47.828 99.1637C54.2473 104.312 60.2654 109.127 70.095 109.261C70.2287 109.261 70.3624 109.328 70.3624 109.461C70.3624 109.595 70.2287 109.729 70.095 109.729C60.1317 109.595 53.7124 104.513 47.5606 99.5649C45.0865 97.6257 42.6124 95.6197 39.8708 93.8811C34.2539 90.404 27.5003 89.1335 21.8165 90.6046C16.9352 91.8751 12.99 94.951 10.449 99.5649C10.3822 99.6986 10.3153 99.6986 10.1815 99.6986Z" fill="#156B62"/>
<path d="M56.1211 105.648C56.0766 105.648 56.032 105.625 55.9874 105.581C51.9085 100.967 49.9693 94.3471 48.8994 90.8031C48.7657 90.3573 48.6543 89.9784 48.5651 89.6664C48.4982 89.5326 48.632 89.3989 48.6988 89.332C48.8326 89.332 48.9663 89.3989 49.0332 89.5326C49.1223 89.8447 49.2338 90.2236 49.3675 90.6694C50.3705 94.1465 52.3097 100.7 56.3217 105.313C56.3886 105.38 56.3886 105.514 56.3217 105.648C56.2326 105.692 56.1657 105.692 56.1211 105.648Z" fill="#156B62"/>
<path d="M65.0137 99.0981C63.6095 95.621 64.5456 83.5179 65.6824 78.7034C66.7522 73.889 65.5487 72.6185 63.7432 77.7004C65.883 71.2811 64.345 70.2113 64.345 70.2113L62.339 73.889C60.333 64.4606 50.6372 58.5763 42.145 59.3118C33.6528 59.9805 33.4522 72.6853 52.1751 79.7065C43.8167 77.6336 46.0233 79.2384 46.0233 79.2384C49.701 80.6426 55.251 82.0468 57.3239 88.5999C59.3968 95.2198 61.1354 98.8975 63.5426 100.569C64.6125 101.305 65.7492 101.037 65.0137 99.0981Z" fill="#A34896"/>
<path d="M66.15 102.774C66.1054 102.774 66.0831 102.774 66.0831 102.774C63.4753 100.434 62.3385 95.0175 61.0012 88.7988C58.6608 77.565 55.7855 63.5897 42.412 61.3831C42.2782 61.3162 42.1445 61.1825 42.1445 61.0487C42.2114 60.8481 42.3451 60.7812 42.4789 60.7812C56.2536 63.0547 59.1958 77.2976 61.603 88.6651C62.8735 94.8169 63.9434 100.099 66.4843 102.306C66.5512 102.44 66.6181 102.574 66.4843 102.707C66.4175 102.841 66.2837 102.841 66.15 102.774Z" fill="#61255B"/>
<path d="M67.5561 116.348C65.082 116.883 54.985 115.947 50.8392 118.287C50.3711 118.755 55.453 118.755 55.453 118.755C52.0428 119.089 48.1645 120.293 47.0277 121.229C46.4259 121.831 52.1096 120.761 52.1096 120.761C47.8301 121.363 43.818 124.974 42.6144 129.721C40.6753 137.01 50.3042 142.226 54.2494 133.132C57.8603 124.639 59.2645 122.834 63.009 120.36C59.3982 123.904 60.535 124.305 60.535 124.305C63.1428 121.029 66.8205 118.554 68.1579 117.618C69.094 117.017 68.8934 116.013 67.5561 116.348Z" fill="#F7BA47"/>
<path d="M49.8343 131.66C49.7898 131.705 49.7452 131.727 49.7006 131.727C49.5669 131.66 49.5 131.526 49.5 131.326C51.9741 120.827 59.062 119.022 64.8127 117.551C67.4205 116.882 69.6271 116.28 71.0313 115.077C71.0982 114.943 71.2988 114.943 71.4326 115.077C71.4994 115.211 71.4994 115.344 71.4326 115.478C69.8946 116.815 67.6211 117.417 64.9464 118.086C59.3964 119.49 52.4422 121.296 50.0349 131.459C50.0349 131.593 49.9681 131.66 49.8343 131.66Z" fill="#BF771F"/>
<path d="M115.965 62.9224C118.306 58.3754 133.685 61.1839 154.347 69.1411L183.301 0C208.376 2.13976 260.199 40.7893 255.919 43.7314C252.442 46.1387 225.829 86.1924 216.334 100.703C234.187 112.405 244.953 122.769 242.746 127.182C239.336 133.869 208.243 124.842 173.271 107.122C138.232 89.3352 112.622 69.5423 115.965 62.9224Z" fill="#A34896"/>
<path opacity="0.5" d="M248.163 34.4375C241.409 41.9935 234.589 49.4158 228.303 57.3062C227.835 57.8412 226.765 59.2454 226.698 59.3123C226.698 59.3123 225.695 60.5827 225.361 61.0508C224.157 62.6556 222.998 64.2827 221.884 65.9322C219.61 69.2755 217.47 72.6858 215.531 76.1629C214.551 77.946 213.637 79.7292 212.79 81.5123C211.92 83.3846 211.185 84.9226 210.784 85.9925C210.583 86.5943 210.383 87.1961 210.182 87.7979C210.182 87.7979 210.182 87.9985 210.115 88.1322C210.115 88.3997 210.048 89.1352 210.048 89.5364C210.048 89.6702 210.07 89.8262 210.115 90.0045C210.382 90.8069 210.583 91.5425 210.851 92.3449C213.392 99.9678 215.13 109.396 206.972 114.277C201.556 117.554 194.401 116.283 188.784 114.411C188.428 114.322 188.093 114.211 187.781 114.077C216.467 127.049 239.804 132.934 242.746 127.183C244.953 122.77 234.187 112.405 216.334 100.703C225.829 86.1931 252.442 46.1393 255.919 43.7321C257.123 42.8628 253.913 39.252 248.163 34.4375Z" fill="#223147"/>
<path d="M221.683 95.0832L217.136 102.974C217.136 102.974 173.672 94.9495 154.348 69.1386L158.226 59.2422C158.226 59.2422 186.578 83.7157 221.683 95.0832Z" fill="#F7BA47"/>
<path opacity="0.43" d="M167.456 66.4633C165.517 65.0591 163.845 63.7886 162.508 62.7188C162.842 68.4025 163.444 74.0862 164.648 79.7031C166.854 81.5086 169.128 83.1802 171.535 84.7851C169.663 78.767 168.258 72.682 167.456 66.4633Z" fill="white"/>
<path d="M228.172 49.7459C227.57 53.0893 229.71 56.2321 233.053 56.8339C236.396 57.5026 239.539 55.296 240.141 51.9526C240.743 48.6761 238.536 45.4664 235.26 44.8646C231.916 44.2628 228.773 46.4694 228.172 49.7459Z" fill="#68BD9F"/>
<path d="M207.107 49.6164C206.839 50.9538 207.709 52.2243 209.046 52.4917C210.383 52.6923 211.654 51.8231 211.921 50.4857C212.122 49.2152 211.253 47.9447 209.915 47.6773C208.578 47.4098 207.308 48.2791 207.107 49.6164Z" fill="#68BD9F"/>
<path d="M179.156 36.1077C178.153 41.9252 181.965 47.4752 187.782 48.5451C193.533 49.615 199.15 45.8035 200.153 39.9861C201.222 34.1686 197.411 28.6186 191.594 27.5487C185.843 26.4788 180.226 30.3571 179.156 36.1077Z" fill="#FEB847"/>
<path d="M184.706 56.7048C184.371 58.6439 185.642 60.5831 187.648 60.9174C189.654 61.3186 191.526 59.9813 191.927 58.0421C192.262 56.0361 190.991 54.0969 188.985 53.7626C186.979 53.3614 185.107 54.6987 184.706 56.7048Z" fill="#FEB847"/>
<path d="M181.966 17.7181C181.565 19.7241 182.902 21.5964 184.908 21.9976C186.847 22.332 188.786 21.0615 189.121 19.0555C189.522 17.0494 188.184 15.1771 186.178 14.7759C184.239 14.4416 182.3 15.7121 181.966 17.7181Z" fill="#68BD9F"/>
<path d="M211.855 64.1254C210.05 67.335 211.119 71.4808 214.329 73.2863C217.539 75.1586 221.618 74.0887 223.49 70.879C225.362 67.6694 224.225 63.5905 221.016 61.7182C217.806 59.8459 213.727 60.9158 211.855 64.1254Z" fill="#68BD9F"/>
<path d="M168.322 58.3049C167.921 60.4447 169.325 62.5176 171.465 62.9188C173.605 63.32 175.678 61.9158 176.079 59.776C176.48 57.5694 175.076 55.5634 172.936 55.1622C170.73 54.761 168.657 56.1652 168.322 58.3049Z" fill="#68BD9F"/>
<path d="M221.953 118.22C221.351 121.497 223.491 124.573 226.767 125.175C229.977 125.776 233.12 123.637 233.722 120.36C234.323 117.151 232.184 114.008 228.907 113.406C225.697 112.804 222.555 114.944 221.953 118.22Z" fill="#F7BA47"/>
<path d="M123.989 68.2715C123.588 70.6119 125.126 72.8185 127.466 73.2197C129.74 73.6209 131.947 72.1498 132.415 69.8095C132.816 67.4691 131.278 65.2625 129.004 64.8613C126.664 64.3932 124.457 65.9312 123.989 68.2715Z" fill="#FEB847"/>
<path d="M155.353 89.7361C154.885 92.4108 156.624 94.9518 159.299 95.4198C161.973 95.8879 164.514 94.1494 164.982 91.4746C165.45 88.8668 163.712 86.3258 161.037 85.7909C158.429 85.3228 155.888 87.0614 155.353 89.7361Z" fill="#FEB847"/>
<path d="M142.447 76.1606C141.779 79.7714 144.186 83.3154 147.797 83.9841C151.475 84.6528 154.952 82.2455 155.62 78.5678C156.289 74.9569 153.882 71.4129 150.271 70.7443C146.593 70.0756 143.116 72.4828 142.447 76.1606Z" fill="#68BD9F"/>
<path d="M169.728 92.5445C169.528 93.7481 170.263 94.818 171.467 95.0854C172.603 95.286 173.74 94.4836 173.941 93.3469C174.141 92.2101 173.406 91.0734 172.202 90.8728C171.066 90.6722 169.929 91.4077 169.728 92.5445Z" fill="#FEB847"/>
<path d="M208.713 91.4749C208.713 91.4749 241.612 74.5574 239.673 81.6453C237.734 88.7333 231.315 90.0038 233.321 95.955C235.327 101.906 235.928 115.681 206.573 99.7664C206.573 99.7664 205.905 93.414 208.713 91.4749Z" fill="#F7BA47"/>
<path d="M209.98 90.8699C209.98 90.8699 237.196 77.4964 238.199 80.4385C239.135 83.4476 214.193 91.6054 209.98 90.8699Z" fill="#BF771F"/>
<path d="M203.83 90.0033C203.83 90.0033 187.715 56.7701 184.973 63.5906C182.298 70.4111 186.645 75.2924 181.429 78.8364C176.28 82.3804 167.588 93.0123 200.553 97.8937C200.553 97.8937 204.967 93.2798 203.83 90.0033Z" fill="#F7BA47"/>
<path d="M203.296 88.6663C203.296 88.6663 189.321 61.7855 186.78 63.5909C184.239 65.4632 199.485 86.7272 203.296 88.6663Z" fill="#BF771F"/>
<path d="M210.451 100.099C210.451 100.099 224.493 123.569 217.138 143.563L212.591 127.381L208.312 141.69C208.312 141.69 207.242 106.184 203.363 99.9651C203.363 99.9651 208.378 96.5548 210.451 100.099Z" fill="#F7BA47"/>
<path opacity="0.43" d="M215.465 118.022C212.656 113.608 209.112 109.931 205.301 106.387C205.702 108.259 205.969 110.399 206.304 112.672C207.775 114.545 209.045 116.484 210.45 118.423C212.857 121.9 215.398 125.243 217.671 128.854C218.206 129.746 218.741 130.637 219.276 131.529C219.276 128.787 219.076 126.113 218.674 123.505C217.671 121.633 216.601 119.827 215.465 118.022Z" fill="white"/>
<path d="M197.814 95.0845C197.814 95.0845 172.203 104.58 165.383 124.774L179.091 115.011L173.407 128.853C173.407 128.853 196.476 101.771 203.43 99.3641C203.43 99.3641 201.692 93.6134 197.814 95.0845Z" fill="#F7BA47"/>
<path opacity="0.43" d="M192.598 97.4258C190.859 98.2951 188.786 99.4318 186.58 100.769C183.169 107.991 180.495 115.48 178.422 123.17C181.03 120.228 184.373 116.55 187.783 112.939C189.121 107.657 190.726 102.441 192.598 97.4258Z" fill="white"/>
<path d="M199.751 93.3469C199.082 96.824 201.423 100.167 204.9 100.836C208.377 101.438 211.72 99.1643 212.322 95.6872C212.991 92.2101 210.65 88.8667 207.173 88.198C203.696 87.5962 200.353 89.8697 199.751 93.3469Z" fill="#F7BA47"/>
<path opacity="0.36" d="M254.719 44.9351C247.03 44.467 239.407 42.3272 232.185 39.4519C221.553 35.1724 211.79 29.5555 203.365 21.732C196.745 15.5133 188.186 7.68978 183.305 0C209.316 4.81447 260.002 40.8561 255.923 43.7314C255.655 43.9097 255.254 44.311 254.719 44.9351Z" fill="white"/>
<path d="M207.574 98.9617L205.1 96.8888L202.024 97.758L203.227 94.8159L201.422 92.0743L204.632 92.3418L206.638 89.8008L207.44 92.9436L210.449 94.0803L207.707 95.752L207.574 98.9617Z" fill="white"/>
<path d="M197.68 90.5389C197.68 90.5389 185.176 77.8341 184.173 80.91C183.236 83.9859 197.68 90.5389 197.68 90.5389Z" fill="white"/>
<path d="M195.406 91.6753C195.406 91.6753 185.175 87.7969 186.111 90.7391C187.114 93.6144 195.406 91.6753 195.406 91.6753Z" fill="white"/>
<path d="M197.745 87.4603C197.745 87.4603 192.73 77.7645 191.527 80.573C190.323 83.3814 197.745 87.4603 197.745 87.4603Z" fill="white"/>
<path d="M213.793 96.4231C213.793 96.4231 231.245 92.4111 230.376 95.5538C229.507 98.6298 213.793 96.4231 213.793 96.4231Z" fill="white"/>
<path d="M215.129 98.6289C215.129 98.6289 225.828 100.836 223.421 102.775C221.08 104.714 215.129 98.6289 215.129 98.6289Z" fill="white"/>
<path d="M215.398 93.8137C215.398 93.8137 224.827 88.3305 224.359 91.3396C223.891 94.3486 215.398 93.8137 215.398 93.8137Z" fill="white"/>
</svg>
