<svg width="257" height="196" viewBox="0 0 257 196" fill="none" xmlns="http://www.w3.org/2000/svg">
<path d="M123.504 33.3988C122.191 37.2601 122.655 39.1136 122.5 39.1136C122.346 38.8047 122.191 37.7235 121.265 36.2562C121.11 35.9473 120.569 35.87 120.106 36.4879C116.863 40.6581 118.716 47.2997 118.639 47.2997C118.562 47.3769 117.712 46.0641 117.249 45.1373C116.94 44.5968 116.785 43.9789 116.476 43.3611C116.476 43.2066 116.399 43.0522 116.245 43.0522C116.013 43.0522 115.859 43.0522 115.704 43.2839C115.704 43.2839 114.314 44.674 113.465 48.8443C112.692 53.0145 113.078 54.6363 112.461 58.266C112.229 59.7333 111.688 62.1274 111.07 63.5175C111.07 63.4402 110.993 62.1274 110.221 60.8917C109.835 60.4283 109.294 60.1194 109.14 60.66C109.063 60.8917 109.063 67.0699 108.136 71.7808C108.084 71.8323 108.059 71.9095 108.059 72.0125C108.059 72.1669 108.213 72.3986 108.445 72.3986C108.754 72.4758 110.066 70.6224 112.924 69.7729C115.55 69.0006 116.785 69.7729 116.94 69.464C117.403 68.6917 115.009 67.6877 115.009 67.6877C115.086 67.6105 116.245 67.4561 116.554 67.3788C118.793 67.1472 119.257 67.6877 119.565 67.2244C119.643 67.1471 119.565 66.9927 119.488 66.9154C118.716 65.6798 117.017 65.062 117.017 64.9848C117.094 64.8303 120.724 64.5986 123.427 61.9729C123.581 61.8185 124.045 61.2778 124.122 60.8917C124.354 60.0422 121.651 59.7333 121.651 59.6561C121.651 59.5789 127.288 57.6482 133.158 51.5472C135.088 49.5393 137.946 46.064 138.563 43.3611C138.641 43.0522 138.486 42.8205 138.1 42.7433C136.247 42.5116 132.849 42.7433 132.308 42.8977C132.231 42.8977 132.231 42.8978 132.231 42.8205C132.154 42.5888 138.177 40.9671 142.579 32.781C144.047 30.078 144.973 26.5255 144.819 23.1275C144.819 22.8186 144.69 22.7414 144.433 22.8958C143.969 23.2047 143.815 23.4364 142.811 24.1315C142.734 24.2087 141.807 24.7493 141.73 24.6721C141.653 24.6721 142.193 24.1315 142.348 23.8998C143.12 22.5869 144.047 20.7335 143.892 19.1889C143.738 17.876 143.12 17.3355 142.27 17.2582C134.702 16.3315 126.053 25.8305 123.504 33.3988Z" fill="#A34896"/>
<g style="mix-blend-mode:multiply" opacity="0.35">
<path d="M133.31 30.1555C132.615 31.1594 132.847 31.2367 132.615 31.4684C130.839 33.2446 109.447 70.0048 109.37 70.0048C108.134 72.2444 108.134 72.2444 108.211 72.3216C108.752 72.7078 108.675 71.9355 110.837 70.6999C114.544 68.5375 116.706 69.8504 116.938 69.4643C117.324 68.8464 115.548 67.8425 115.007 67.7653C115.007 67.7138 115.007 67.688 115.007 67.688C115.007 67.688 115.007 67.688 115.085 67.688C115.934 67.5335 116.475 67.3019 118.251 67.3791C119.1 67.3791 119.255 67.4563 119.409 67.3791C119.796 67.1474 119.178 66.5296 118.869 66.2207C118.096 65.4484 117.015 65.0623 117.015 64.985C117.093 64.8306 120.645 64.6762 123.425 61.9732C123.58 61.8187 124.043 61.2781 124.12 60.892C124.275 60.1969 122.421 59.8108 121.726 59.6564C121.417 59.6564 121.803 59.6564 123.734 58.6524C129.294 55.795 134.623 50.6208 136.708 47.1455C137.403 46.0643 138.253 44.6742 138.562 43.3614C138.639 43.0525 138.485 42.8208 138.098 42.7436C137.017 42.5891 135.395 42.5891 134.392 42.6663C128.445 43.0525 136.94 43.3614 142.578 32.7812C144.045 30.0783 144.972 26.5258 144.817 23.1278C144.817 22.2783 143.89 23.4367 142.809 24.1318C142.732 24.209 141.805 24.8268 141.728 24.6724C141.651 24.6724 142.191 24.1318 142.346 23.9001C143.273 22.4328 144.354 19.9615 143.659 18.3397C143.659 18.2625 143.582 18.1852 143.427 18.2625C141.265 19.807 139.72 22.2011 138.793 22.9734C138.639 23.1278 137.403 24.6723 137.326 24.7496C137.094 25.0585 136.863 25.3674 136.554 25.6763C136.399 25.8823 136.245 26.0882 136.09 26.2941C134.546 28.5337 135.241 27.2209 133.31 30.1555Z" fill="#A34896"/>
</g>
<path d="M140.033 21.5033L139.724 21.8894L139.029 22.6617L137.794 24.2063C136.97 25.236 136.172 26.3171 135.4 27.4498C133.907 29.6122 132.439 31.826 130.998 34.0914C128.166 38.5705 125.437 43.127 122.812 47.7606L114.78 61.5843C112 66.0635 109.219 70.62 106.594 75.2536C107.829 72.9368 109.065 70.5427 110.301 68.2259C111.614 65.9091 113.004 63.5922 114.316 61.2754C116.942 56.6418 119.568 52.0081 122.194 47.3745C124.897 42.8181 127.677 38.2617 130.611 33.7825C132.053 31.5686 133.572 29.3805 135.168 27.2181C135.992 26.137 136.815 25.1073 137.639 24.129L138.952 22.5845L139.647 21.8894L140.033 21.5033Z" fill="#61255B"/>
<path d="M72.9211 28.765C74.8518 32.3947 76.5508 33.3214 76.4736 33.4759C76.1647 33.3214 75.238 32.7036 73.4617 32.3947C73.1528 32.3175 72.7667 32.6264 72.9211 33.3987C73.6934 38.6501 79.8716 41.8164 79.7944 41.8937C79.7944 41.8937 78.2499 41.7392 77.2459 41.4303C76.6281 41.1986 76.0874 40.9669 75.4696 40.7353C75.3152 40.658 75.2379 40.5808 75.0835 40.7353C74.929 40.8125 74.7746 41.0442 74.8518 41.1986C74.929 41.2758 74.929 43.2838 77.4003 46.6818C79.8716 50.0798 81.3389 50.9293 83.5785 53.7867C84.5052 55.0223 85.9726 57.0302 86.4359 58.4203C86.4359 58.4203 85.432 57.5708 83.9646 57.3392C83.4241 57.1847 82.8063 57.3392 83.1152 57.8798C83.1924 58.1114 87.6716 62.3589 90.529 66.2203C90.529 66.2718 90.5805 66.349 90.6834 66.452C90.7607 66.5292 91.0696 66.6064 91.224 66.452C91.533 66.2203 90.9924 64.0579 92.3052 61.2777C93.5409 58.8837 94.931 58.5748 94.8537 58.1886C94.6221 57.3391 92.228 58.4203 92.228 58.4203C92.228 58.3431 92.9231 57.3392 93.0775 57.1075C94.4676 55.254 95.1627 55.254 95.0082 54.7907C94.931 54.6362 94.8537 54.6362 94.6993 54.6362C93.3092 54.3273 91.6874 55.0995 91.6874 55.0995C91.6102 54.9451 93.8498 52.1649 93.7725 48.3807C93.7725 48.1491 93.6953 47.454 93.4637 47.1451C93.0003 46.3729 90.9151 48.1491 90.9151 48.0719C90.8379 48.0719 93.2319 42.5115 92.8458 34.0937C92.6913 31.3135 92.0735 26.9115 90.529 24.5947C90.2973 24.363 90.0656 24.2858 89.7567 24.5175C88.3666 25.6759 86.2042 28.3016 85.8953 28.8422C85.8953 28.8422 85.8181 28.9194 85.8181 28.8422C85.5864 28.6878 88.5211 23.2046 85.5864 14.4007C84.5825 11.466 82.5746 8.45419 80.0261 6.2146C79.7686 6.00866 79.6142 6.06015 79.5627 6.36906C79.4855 6.83243 79.5627 7.14134 79.4083 8.29975C79.331 8.53143 79.1766 9.53537 79.0221 9.53537C79.0221 9.53537 78.9449 8.84033 78.8677 8.53142C78.4815 7.0641 77.7093 5.13343 76.4736 4.2067C75.4697 3.43443 74.6201 3.51165 73.9251 4.05224C68.133 8.91757 69.137 21.8145 72.9211 28.765Z" fill="#FF4B70"/>
<g style="mix-blend-mode:multiply" opacity="0.35">
<path d="M81.0295 33.2431C83.6552 42.3559 86.3582 51.4688 89.0611 60.5816C89.4215 61.7658 89.7819 62.9499 90.1423 64.134C90.8373 66.5281 90.8374 66.5281 90.9918 66.5281C91.6869 66.4508 90.9918 65.9103 91.6096 63.439C92.5364 59.2687 95.0077 58.6509 94.8532 58.1875C94.6987 57.4925 92.6908 58.1103 92.3047 58.4192C92.2532 58.4192 92.2275 58.4192 92.2275 58.4192C92.2275 58.342 92.2275 58.342 92.2275 58.342C92.768 57.6469 92.9998 57.0291 94.2354 55.7935C94.8532 55.1757 95.0077 55.0984 95.0077 54.944C95.0849 54.4806 94.2354 54.5578 93.772 54.5578C92.6908 54.635 91.6869 55.0984 91.6869 55.0984C91.5324 54.944 93.8492 52.241 93.772 48.3796C93.772 48.1479 93.6948 47.4529 93.4631 47.144C93.077 46.5262 91.5324 47.6074 90.9918 48.0707C90.7601 48.2252 91.0691 47.9163 91.6096 45.8311C93.3086 39.8846 93.1542 32.3936 92.073 28.5322C91.6869 27.2966 91.2235 25.752 90.5284 24.5936C90.2968 24.3619 90.0651 24.2847 89.7562 24.5164C88.9067 25.2114 87.8255 26.447 87.2077 27.1421C83.3463 31.7757 89.3701 25.752 85.5859 14.3996C84.582 11.5421 82.574 8.45307 80.0255 6.21347C79.4077 5.67288 79.5622 7.06299 79.4077 8.29862C79.3305 8.45308 79.176 9.53424 79.0216 9.53424C79.0216 9.53424 78.9443 8.83921 78.8671 8.5303C78.4038 6.83129 77.3998 4.36001 75.7008 3.74219C75.6236 3.74219 75.5463 3.7422 75.5463 3.89665C74.1563 13.0867 78.481 24.2847 81.0295 33.2431Z" fill="#FF4B70"/>
</g>
<path d="M75.6981 8.22266C75.4664 8.22266 75.5436 8.45434 75.5436 8.60879L75.6208 9.14939L75.6981 10.0761L76.0069 12.084C76.2129 13.4226 76.4446 14.7355 76.702 16.0227C77.2683 18.5969 77.9119 21.1711 78.6327 23.7454C79.9713 28.8939 81.4129 34.0166 82.9574 39.1136L87.5911 54.4047C88.9812 59.5017 90.4485 64.6759 92.0702 69.6957C91.1435 67.2244 90.2168 64.6759 89.4445 62.2046C88.595 59.6561 87.9 57.0304 87.1277 54.5591C85.5059 49.4621 83.8842 44.3651 82.2624 39.2681C80.7951 34.1711 79.3277 29.0741 78.0921 23.8999C77.4743 21.3256 76.9079 18.7256 76.3931 16.0999C76.1871 14.7613 76.0069 13.4226 75.8525 12.084L75.6208 10.1533L75.5436 9.14939V8.60879C75.5436 8.53157 75.4664 8.22266 75.6981 8.22266Z" fill="#8A294B"/>
<path d="M107.13 24.3626C106.667 28.3784 107.517 30.1546 107.439 30.2319C107.208 29.9229 106.822 28.919 105.586 27.6061C105.354 27.3745 104.814 27.3745 104.505 28.1467C102.188 32.8576 105.431 38.9586 105.354 39.0358C105.277 39.0358 104.119 38.0318 103.501 37.1823C103.115 36.6417 102.806 36.1011 102.42 35.6378C102.342 35.4833 102.265 35.3289 102.111 35.3289C101.879 35.4061 101.725 35.4833 101.647 35.715C101.647 35.715 100.566 37.3368 100.566 41.5843C100.643 45.8318 101.416 47.3764 101.57 51.006C101.647 52.4734 101.647 54.9446 101.338 56.412C101.261 56.412 100.952 55.0991 99.9483 54.0951C99.485 53.6318 98.9444 53.4773 98.8672 54.0179C98.8672 54.2496 100.103 60.3506 100.18 65.1387C100.18 65.1901 100.18 65.2674 100.18 65.3703C100.257 65.5248 100.412 65.7565 100.643 65.6793C100.952 65.6793 101.802 63.5941 104.505 62.1268C106.822 60.8139 108.212 61.3545 108.366 60.9684C108.598 60.1961 106.049 59.7327 106.049 59.7327C106.127 59.6555 107.208 59.1921 107.517 59.1149C109.679 58.4199 110.22 58.806 110.374 58.3426C110.451 58.1882 110.374 58.111 110.297 57.9565C109.293 56.9526 107.517 56.7209 107.517 56.6436C107.517 56.4892 110.992 55.4852 113.077 52.3189C113.231 52.1645 113.54 51.5466 113.54 51.1605C113.54 50.2338 110.915 50.5427 110.837 50.4654C110.837 50.3882 115.934 47.2991 120.414 40.0397C121.881 37.7229 123.889 33.7843 123.966 31.0041C123.966 30.618 123.734 30.4636 123.425 30.4636C121.572 30.618 118.251 31.5447 117.711 31.7764C117.711 31.7764 117.711 31.8536 117.633 31.7764C117.556 31.5447 123.117 28.6873 125.742 19.8062C126.592 16.7943 126.669 13.1646 125.897 9.84384C125.794 9.58642 125.639 9.56065 125.433 9.76659C125.047 10.0755 124.97 10.3844 124.121 11.2339C124.043 11.3884 123.194 12.1606 123.194 12.0834C123.117 12.0062 123.503 11.3884 123.58 11.1567C124.121 9.6894 124.584 7.68147 124.121 6.21415C123.734 4.97851 122.962 4.59237 122.113 4.6696C114.544 5.36464 108.057 16.4854 107.13 24.3626Z" fill="#F7BA47"/>
<g style="mix-blend-mode:multiply" opacity="0.25">
<path d="M116.09 19.11C115.627 20.2684 115.858 20.3456 115.704 20.5773C114.314 22.7397 101.108 63.0524 101.031 63.2068C100.258 65.6009 100.258 65.6009 100.413 65.6781C101.031 65.9098 100.799 65.1375 102.652 63.4385C105.819 60.5811 108.213 61.4306 108.367 60.9673C108.599 60.3495 106.591 59.7316 106.128 59.7316C106.076 59.7316 106.05 59.7316 106.05 59.7316C106.05 59.6544 106.05 59.6544 106.128 59.6544C106.9 59.3455 107.44 58.9594 109.217 58.6504C110.066 58.496 110.221 58.5732 110.298 58.496C110.684 58.1098 109.912 57.7237 109.526 57.4148C108.599 56.8742 107.518 56.7197 107.518 56.6425C107.44 56.4881 110.916 55.5613 113.078 52.3178C113.232 52.1633 113.541 51.5455 113.541 51.1594C113.541 50.3871 111.688 50.3871 110.916 50.4643C110.684 50.4643 111.07 50.4643 112.692 49.0742C117.48 45.0584 121.65 38.8802 122.963 35.0961C123.426 33.8604 123.967 32.3159 123.967 31.003C123.967 30.6169 123.735 30.4624 123.427 30.4624C122.345 30.5397 120.724 30.9258 119.797 31.1575C114.005 32.7792 122.423 31.3119 125.743 19.805C126.593 16.7931 126.67 13.1635 125.898 9.84271C125.666 9.07044 125.048 10.3833 124.122 11.2328C124.044 11.3872 123.272 12.1595 123.195 12.0823C123.118 12.005 123.504 11.3873 123.581 11.1556C124.199 9.45658 124.739 6.83083 123.735 5.44074C123.658 5.36351 123.581 5.28628 123.504 5.44074C121.65 7.37142 120.724 9.99716 119.951 11.0011C119.797 11.1556 118.947 12.9318 118.87 13.009C118.716 13.3952 118.561 13.7813 118.329 14.0902C118.226 14.2962 118.124 14.5278 118.021 14.7852C116.939 17.3337 117.403 15.8664 116.09 19.11Z" fill="#BF771F"/>
</g>
<path d="M120.802 9.30167L120.57 9.76501L120.107 10.6145L119.18 12.3908C118.614 13.5749 118.073 14.7848 117.559 16.0205C116.529 18.4917 115.576 20.963 114.701 23.4343C112.848 28.4283 111.123 33.4739 109.527 38.5709L104.584 53.7846C102.808 58.8044 101.032 63.747 99.4102 68.844C100.182 66.2955 100.8 63.747 101.573 61.1985C102.345 58.65 103.272 56.1015 104.044 53.553C105.666 48.5332 107.21 43.4362 108.832 38.3392C110.531 33.3194 112.23 28.2224 114.161 23.2798C115.139 20.8085 116.169 18.3373 117.25 15.866C117.816 14.6818 118.408 13.4977 119.026 12.3136L120.03 10.6145L120.57 9.68781L120.802 9.30167Z" fill="#BF771F"/>
<path d="M89.2931 23.5147C90.0653 27.5305 91.3782 28.9206 91.301 28.9978C91.0693 28.7661 90.3742 27.9938 88.7525 27.1443C88.5208 26.9899 87.9802 27.1443 87.903 27.9938C87.2079 33.1681 92.1505 37.9562 92.0732 38.0334C92.0732 38.1106 90.6831 37.4928 89.7564 36.875C89.2158 36.4889 88.7525 36.1027 88.2891 35.7166C88.1347 35.6394 88.0574 35.4849 87.903 35.5621C87.6713 35.6393 87.5168 35.7938 87.5168 36.0255C87.5168 36.0255 87.0535 37.9562 88.3663 41.8948C89.7564 45.9106 90.9148 47.1463 92.2277 50.5443C92.7683 52.0116 93.5406 54.3284 93.695 55.8729C93.6178 55.7957 92.9228 54.7145 91.6099 54.0195C91.0693 53.7878 90.4515 53.7878 90.6059 54.3284C90.6832 54.5601 93.695 59.8888 95.3168 64.4452C95.3168 64.5482 95.3426 64.6254 95.3941 64.6769C95.4713 64.8313 95.7029 64.9858 95.9346 64.9085C96.2435 64.7541 96.398 62.5145 98.4831 60.2749C100.259 58.3442 101.804 58.4214 101.804 58.0353C101.804 57.1858 99.2554 57.4947 99.1782 57.4947C99.2554 57.4175 100.105 56.6452 100.337 56.4907C102.19 55.1006 102.885 55.3324 102.885 54.7918C102.885 54.6373 102.808 54.6373 102.653 54.56C101.418 53.865 99.6416 54.1739 99.6416 54.0967C99.5643 54.0195 102.576 51.9343 103.58 48.3046C103.657 48.073 103.735 47.3779 103.657 47.069C103.426 46.1423 100.954 47.2234 100.877 47.2234C100.877 47.1462 104.739 42.5898 106.746 34.3265C107.441 31.6235 108.137 27.2988 107.287 24.5958C107.21 24.2869 106.978 24.2097 106.669 24.2869C104.893 24.982 102.113 26.9126 101.649 27.2988C101.649 27.376 101.572 27.376 101.572 27.376C101.418 27.1444 105.82 22.7424 105.511 13.3978C105.434 10.3087 104.352 6.8335 102.576 3.97609C102.422 3.71866 102.267 3.71866 102.113 3.97609C101.881 4.43945 101.881 4.74838 101.341 5.82957C101.263 5.98402 100.8 6.91077 100.646 6.91077C100.646 6.83354 100.8 6.13848 100.8 5.82957C100.877 4.36224 100.645 2.2771 99.796 1.04146C99.0237 -0.0397273 98.1742 -0.194163 97.4019 0.191974C90.4515 3.12662 87.6713 15.7919 89.2931 23.5147Z" fill="#A34896"/>
<g style="mix-blend-mode:multiply" opacity="0.35">
<path d="M96.1647 15.7895C96.0875 17.0251 96.242 17.0251 96.1647 17.334C95.6241 19.7281 95.5469 62.2031 95.5469 62.3576C95.5469 64.9061 95.5469 64.8289 95.7013 64.9061C96.3192 64.9833 95.8558 64.2883 97.0914 62.1259C99.2538 58.419 101.802 58.4962 101.802 58.0328C101.802 57.3378 99.7172 57.3378 99.2538 57.4923C99.2538 57.4923 99.2281 57.4923 99.1766 57.4923C99.2538 57.4151 99.1766 57.415 99.2538 57.415C99.9489 56.8744 100.258 56.4111 101.88 55.5616C102.575 55.0982 102.806 55.0982 102.883 54.9437C103.115 54.5576 102.266 54.4032 101.802 54.2487C100.721 53.9398 99.64 54.1715 99.64 54.0943C99.5627 54.017 102.575 52.0091 103.579 48.3022C103.656 48.0705 103.733 47.3755 103.656 47.0666C103.501 46.2943 101.648 46.9121 100.953 47.1438C100.721 47.2982 101.107 47.1438 102.266 45.2903C105.509 40.0388 107.594 32.8567 107.672 28.8409C107.672 27.528 107.672 25.9062 107.285 24.5934C107.208 24.2845 106.977 24.2073 106.668 24.2845C105.586 24.7479 104.196 25.5973 103.424 26.1379C98.4043 29.3815 105.895 25.4429 105.509 13.3954C105.432 10.3835 104.351 6.83106 102.575 3.97364C102.111 3.2786 101.88 4.66871 101.339 5.82712C101.262 5.90435 100.798 6.90832 100.644 6.90832C100.644 6.8311 100.798 6.13603 100.798 5.82712C100.876 4.12812 100.567 1.42516 99.1766 0.421202C99.0993 0.343974 99.0221 0.343974 98.9449 0.421202C97.7865 2.89248 97.7093 5.67269 97.2459 6.90832C97.1687 7.06278 96.937 8.99344 96.937 9.14789C96.8598 9.53403 96.8597 9.92016 96.7053 10.3063C96.6538 10.5637 96.6281 10.8212 96.6281 11.0786C96.3964 13.7815 96.3964 12.3142 96.1647 15.7895Z" fill="#A34896"/>
</g>
<path d="M97.864 4.66854C97.6323 4.59131 97.6323 4.90024 97.6323 4.97747L97.4778 5.51802L97.3234 6.44476L97.0145 8.4527C96.86 9.73983 96.7313 11.0527 96.6284 12.3913C96.3709 15.0685 96.2165 17.72 96.165 20.3457C95.9591 25.6486 95.8818 30.9773 95.9333 36.3318V52.2406C95.7788 57.6465 95.7017 62.898 95.7789 68.2267C95.6244 65.601 95.47 62.898 95.3927 60.2723C95.3927 57.5693 95.3927 54.9436 95.3927 52.2406C95.3155 46.9891 95.2383 41.6605 95.2383 36.3318C95.2383 31.0031 95.3155 25.6744 95.6244 20.3457C95.7789 17.6685 95.9848 15.017 96.2422 12.3913C96.3967 11.0527 96.6026 9.71406 96.86 8.37545L97.2462 6.44476L97.4778 5.44081L97.5551 4.97747C97.6323 4.90024 97.6323 4.59131 97.864 4.66854Z" fill="#61255B"/>
<path d="M45.0389 53.9415C48.0507 56.6444 48.5913 58.4979 48.7458 58.4979C48.6685 58.1118 48.2824 57.1078 48.3596 55.3316C48.4369 55.0227 48.7458 54.6365 49.5953 55.0227C54.3834 56.9534 56.0051 63.7494 56.0824 63.7494C56.1596 63.6721 56.3141 62.2048 56.2368 61.1236C56.2368 60.5058 56.0824 59.888 56.0052 59.1929C56.0052 59.0385 55.9279 58.9613 56.0824 58.8068C56.3141 58.7296 56.4685 58.6524 56.7002 58.7296C56.7002 58.8068 58.6309 59.2702 61.3338 62.5138C64.114 65.6801 64.5774 67.3018 66.817 70.1592C67.7437 71.3949 69.4427 73.2484 70.6784 74.0979C70.6784 74.0206 70.0605 72.8622 70.1378 71.3949C70.1378 70.7771 70.4467 70.3137 70.91 70.6998C71.0645 70.8543 74.1536 76.183 77.2427 79.8127C77.2942 79.9156 77.3456 79.9929 77.3971 80.0443C77.5516 80.1988 77.4744 80.4305 77.3199 80.5849C77.011 80.8166 75.0031 79.8127 72.0685 80.4305C69.4427 81.0483 68.7477 82.3612 68.4388 82.2067C67.6665 81.7434 69.2882 79.7354 69.2882 79.6582C69.1338 79.6582 68.0526 80.0444 67.821 80.1988C65.6586 81.0483 65.5041 81.7434 65.118 81.5117C64.9635 81.4345 64.9635 81.28 64.9635 81.2028C65.0408 79.7354 66.1992 78.3454 66.1219 78.3454C66.0447 78.1909 62.8012 79.8127 59.1715 78.8087C58.8626 78.7315 58.2447 78.4998 58.0131 78.2681C57.3952 77.5731 59.5576 76.0285 59.5576 75.9513C59.5576 75.8741 53.6111 76.9553 45.5022 74.484C42.7993 73.7117 38.7062 72.0899 36.8527 70.0048C36.621 69.7731 36.6211 69.5414 36.93 69.3098C38.3973 68.1513 41.4864 66.684 42.027 66.5295C42.027 66.5295 42.1042 66.5296 42.1042 66.4523C41.9498 66.2207 35.926 67.7652 28.0488 62.8226C25.5003 61.1236 22.9518 58.4979 21.4072 55.486C21.3043 55.2286 21.4073 55.0999 21.7162 55.0999C22.1795 55.0999 22.4112 55.2543 23.6469 55.3316C23.8013 55.3316 24.8825 55.4088 24.8825 55.3316C24.8825 55.2543 24.2647 55.0227 23.9558 54.8682C22.6429 54.1732 20.9439 53.0148 20.3261 51.5475C19.7855 50.389 20.0944 49.6168 20.7894 49.0762C26.8904 44.597 39.1696 48.6128 45.0389 53.9415Z" fill="#A34896"/>
<g style="mix-blend-mode:multiply" opacity="0.35">
<path d="M34.8481 55.9489C36.0065 56.4895 35.852 56.6439 36.1609 56.7212C38.555 57.4162 75.238 78.9626 75.3153 78.9626C77.4776 80.2755 77.4776 80.2755 77.4776 80.4299C77.1687 80.9705 76.8598 80.2755 74.3113 80.2755C70.0638 80.1983 68.8281 82.4379 68.442 82.2062C67.8242 81.8201 68.9053 80.1211 69.2915 79.7349C69.2915 79.7349 69.2915 79.7092 69.2915 79.6577C69.2143 79.6577 69.2143 79.6577 69.2143 79.6577C68.3648 79.9666 67.747 80.0438 66.2796 80.9705C65.5074 81.4339 65.4301 81.5884 65.2757 81.5884C64.8123 81.5111 65.044 80.7389 65.1984 80.2755C65.4301 79.1943 66.2024 78.4221 66.1252 78.3448C66.0479 78.1904 62.8816 79.8121 59.1747 78.8082C58.8658 78.731 58.248 78.4993 58.0163 78.2676C57.4757 77.727 58.943 76.4142 59.4836 76.028C59.7153 75.7963 59.4064 76.028 57.244 76.1052C50.9886 76.3369 43.8065 74.4062 40.254 72.3983C39.1728 71.7805 37.7055 71.0082 36.856 70.0042C36.6243 69.7726 36.6243 69.5409 36.9332 69.3092C37.7827 68.6142 39.25 67.8419 40.0995 67.3785C45.5054 64.7528 38.2461 69.232 28.0521 62.8221C25.5036 61.1231 22.955 58.4974 21.4105 55.4855C21.0243 54.7132 22.4145 55.2538 23.6501 55.331C23.8046 55.331 24.8857 55.4083 24.8857 55.331C24.8857 55.2538 24.2679 55.0221 23.959 54.8677C22.4145 54.0954 20.2521 52.4736 20.0977 50.7746C20.0977 50.6202 20.0976 50.543 20.2521 50.543C22.8778 50.8519 25.4263 52.1647 26.662 52.3964C26.8164 52.3964 28.6699 53.1687 28.7471 53.1687C29.1332 53.3231 29.4422 53.5548 29.8283 53.6321C30.0857 53.735 30.3174 53.838 30.5234 53.9409C32.9946 55.1766 31.759 54.3271 34.8481 55.9489Z" fill="#A34896"/>
</g>
<path d="M24.808 51.7028L25.3486 51.8572L26.2754 52.1661L28.1288 52.7839C29.4159 53.2473 30.6515 53.7622 31.8357 54.3285C34.307 55.4097 36.7268 56.5681 39.0951 57.8037C43.806 60.1978 48.4396 62.8235 53.0732 65.5265C57.6296 68.2294 62.1861 71.0096 66.7425 73.7898C68.9821 75.1027 71.2989 76.4156 73.6158 77.8056C75.8553 79.1957 78.095 80.7403 80.3345 82.1304C75.7781 79.4274 71.1445 76.8017 66.4336 74.2532L52.6871 66.1443C48.1049 63.4156 43.4713 60.7899 38.7862 58.2671C36.4693 56.98 34.1011 55.7701 31.6813 54.6374C30.4971 54.0196 29.3129 53.4533 28.1288 52.9384L26.2754 52.2433L25.2714 51.8572L24.808 51.7028Z" fill="#61255B"/>
<path d="M54.8495 38.0314C57.2435 41.3522 57.3979 43.2828 57.4752 43.2828C57.5524 42.8967 57.3979 41.8155 57.8613 40.1165C57.9385 39.8076 58.3247 39.5759 59.0197 40.0393C63.3445 43.0511 63.5761 49.9244 63.6534 49.9244C63.7306 49.9244 64.194 48.5343 64.3484 47.4531C64.4257 46.8353 64.4257 46.1403 64.5029 45.5224C64.5029 45.368 64.5029 45.2135 64.6573 45.1363C64.889 45.0591 65.0435 45.0591 65.1979 45.2135C65.1979 45.2135 66.9742 46.1402 68.9821 49.8472C70.99 53.5541 71.1444 55.2531 72.7662 58.4966C73.4612 59.8867 74.6197 62.0491 75.7009 63.1303C75.7009 63.1303 75.392 61.8174 75.7009 60.4273C75.8553 59.8095 76.3187 59.4234 76.6276 59.8867C76.782 60.0412 78.6355 65.9105 80.9523 70.158C81.0038 70.2095 81.0295 70.2867 81.0295 70.3896C81.1068 70.5441 81.0295 70.7758 80.7979 70.9302C80.489 71.0847 78.79 69.6174 75.7009 69.6946C72.9979 69.6946 72.0712 70.853 71.7622 70.5441C71.1444 70.0035 73.1523 68.3045 73.1523 68.3045C72.9979 68.3045 71.9167 68.459 71.6078 68.5362C69.3682 68.9223 69.0593 69.5401 68.6732 69.2312C68.5187 69.154 68.5959 68.9996 68.6732 68.9223C68.9821 67.5323 70.4494 66.3739 70.3722 66.3739C70.2949 66.2194 66.8197 67.0689 63.4217 65.3699C63.19 65.2154 62.6494 64.9065 62.4177 64.5204C61.9544 63.7481 64.4256 62.6669 64.4256 62.6669C64.4256 62.5897 58.4019 62.358 50.9881 58.265C48.5941 56.9521 44.8871 54.4808 43.4198 52.0868C43.2653 51.7779 43.3426 51.5462 43.6515 51.3917C45.3505 50.5422 48.6713 49.77 49.2891 49.77C49.2891 49.77 49.3663 49.7699 49.3663 49.6927C49.2891 49.461 43.0337 49.6927 36.3921 43.2056C34.2297 40.966 32.299 37.8769 31.4495 34.6334C31.3466 34.3244 31.4495 34.1957 31.7585 34.2472C32.299 34.4017 32.4535 34.6334 33.6119 34.9423C33.7664 35.0195 34.8476 35.3284 34.8476 35.174C34.9248 35.174 34.307 34.7878 34.0753 34.5561C32.9169 33.6294 31.5268 32.0848 31.2179 30.6175C30.9089 29.3047 31.3723 28.6096 32.1446 28.2235C39.0951 25.1344 50.2158 31.6215 54.8495 38.0314Z" fill="#F7BA47"/>
<g style="mix-blend-mode:multiply" opacity="0.25">
<path d="M44.502 37.8774C45.4287 38.7269 45.2743 38.8041 45.5832 38.9586C47.7455 40.117 79.0999 68.8456 79.1771 68.9228C81.1078 70.6218 81.1078 70.6218 80.9533 70.7762C80.6444 71.3168 80.4127 70.4673 77.9414 69.9267C73.7711 69 72.1494 70.9307 71.7632 70.6218C71.2999 70.1584 72.69 68.6139 73.1533 68.3822C73.1533 68.3822 73.1533 68.3565 73.1533 68.305C73.0761 68.305 73.0761 68.305 73.0761 68.305C72.2266 68.4594 71.6088 68.3822 69.9098 69C69.1375 69.2317 68.9831 69.3861 68.8286 69.3089C68.3652 69.2317 68.7514 68.4594 69.0603 67.996C69.5236 67.0693 70.4504 66.4515 70.3731 66.3743C70.3731 66.2198 66.8207 67.0693 63.4227 65.3703C63.191 65.2158 62.6504 64.907 62.4187 64.5208C62.0326 63.903 63.6544 62.9762 64.3494 62.6673C64.5811 62.5901 64.2722 62.6673 62.1098 62.2812C56.0088 61.2 49.3673 57.802 46.3554 55.1763C45.3515 54.3268 44.1158 53.2456 43.4208 52.0872C43.2663 51.7783 43.3436 51.5466 43.6525 51.3922C44.6564 50.9288 46.2782 50.4654 47.2049 50.1565C52.997 48.7664 44.9653 51.6239 36.3931 43.2061C34.2307 41.0437 32.3 37.8773 31.4505 34.6338C31.2188 33.7843 32.4545 34.6338 33.6129 34.9427C33.7674 35.02 34.8485 35.3289 34.8485 35.1744C34.9258 35.1744 34.3079 34.7883 34.0763 34.5566C32.6862 33.4754 30.9099 31.4675 31.1416 29.6913C31.1416 29.614 31.1416 29.5368 31.2961 29.614C33.8446 30.3863 36.0069 32.1625 37.1654 32.7031C37.397 32.7803 39.0188 33.8616 39.096 33.9388C39.405 34.1705 39.7139 34.4021 40.1 34.6338C40.3059 34.7368 40.5119 34.8655 40.7178 35.0199C42.8802 36.7189 41.799 35.715 44.502 37.8774Z" fill="#BF771F"/>
</g>
<path d="M35.5424 31.6225L36.0057 31.8542L36.8552 32.3948L38.5542 33.3987C39.6869 34.1195 40.7938 34.866 41.875 35.6383C44.0374 37.2343 46.1483 38.8819 48.2077 40.5809C52.3007 43.9016 56.3166 47.4541 60.2552 51.0838C64.1938 54.7135 68.0551 58.3432 71.8393 62.0501C73.8472 63.8263 75.8551 65.6025 77.7857 67.456C79.7164 69.2322 81.4927 71.1629 83.4234 73.0936C79.562 69.3867 75.5462 65.9114 71.5303 62.4362L59.7918 51.5472C55.8789 47.9432 51.9146 44.4165 47.8988 40.967C45.8394 39.2165 43.78 37.5433 41.7206 35.9472C40.6394 35.1235 39.5582 34.3255 38.477 33.5532L36.8552 32.472L36.0057 31.9314L35.5424 31.6225Z" fill="#BF771F"/>
<path d="M70.0642 28.6102C71.2998 32.4716 70.8365 34.325 70.9137 34.4022C71.0682 34.0161 71.2998 32.9349 72.2266 31.4676C72.381 31.2359 72.9216 31.0814 73.385 31.7765C76.6285 35.9468 74.6206 42.5883 74.6978 42.5883C74.775 42.6655 75.6246 41.4299 76.1652 40.426C76.3968 39.8854 76.6285 39.2676 76.8602 38.6497C76.9375 38.5725 76.9374 38.418 77.1691 38.3408C77.4008 38.3408 77.5553 38.4181 77.6325 38.6497C77.6325 38.6497 79.0998 40.0398 79.7949 44.1329C80.5671 48.3804 80.181 50.0022 80.7216 53.6319C80.9533 55.0992 81.4166 57.5705 82.0344 58.8833C82.0344 58.8833 82.1889 57.5705 82.9612 56.3348C83.2701 55.7942 83.8107 55.4853 83.9651 56.1031C84.0423 56.3348 83.9651 62.4358 84.8918 67.1467C84.8918 67.2496 84.8918 67.3526 84.8918 67.4556C84.8918 67.61 84.7374 67.8417 84.5057 67.8417C84.1968 67.9189 82.9612 65.9882 80.0265 65.1387C77.478 64.2892 76.2424 65.1387 76.0107 64.7526C75.6246 63.9803 78.0186 63.0536 78.0186 63.0536C77.9414 62.9764 76.783 62.7447 76.5513 62.7447C74.2345 62.4358 73.7711 62.8992 73.5394 62.513C73.385 62.3586 73.5394 62.2813 73.5394 62.2041C74.3889 60.9685 76.0107 60.3506 76.0107 60.2734C76.0107 60.1962 72.381 59.8873 69.678 57.1843C69.5236 57.0299 69.1375 56.4893 69.0602 56.1031C68.8285 55.2536 71.5315 54.9447 71.5315 54.9447C71.5315 54.8675 65.8939 52.7824 60.1019 46.6042C58.1712 44.5962 55.4682 41.0438 54.8504 38.3408C54.7732 38.0319 54.9276 37.8003 55.2365 37.8003C57.09 37.5686 60.5652 37.8002 61.1058 37.9547H61.183C61.183 37.6458 55.2365 36.024 50.9118 27.7607C49.5217 24.9805 48.6722 21.428 48.8266 18.03C48.8781 17.7211 49.0326 17.6439 49.29 17.7983C49.6762 18.1073 49.8306 18.3389 50.8346 19.034C50.989 19.1884 51.9157 19.729 51.9157 19.6518C51.993 19.6518 51.4524 19.1112 51.2979 18.8023C50.5256 17.4894 49.6762 15.636 49.8306 14.1686C49.9851 12.8558 50.6801 12.3152 51.5296 12.1607C59.0207 11.3885 67.5929 21.0419 70.0642 28.6102Z" fill="#A34896"/>
<g style="mix-blend-mode:multiply" opacity="0.35">
<path d="M60.2563 25.2118C60.9514 26.2929 60.7197 26.293 60.9513 26.5246C62.6503 28.3781 83.579 65.37 83.579 65.4473C84.8918 67.6869 84.8918 67.6869 84.7374 67.7641C84.1968 68.1502 84.274 67.378 82.1117 66.0651C78.482 63.9027 76.3196 65.1383 76.0107 64.7522C75.7018 64.1344 77.478 63.2077 78.0186 63.0532C78.0186 62.976 78.0186 62.976 77.9414 62.976C77.0919 62.8215 76.5513 62.5898 74.7751 62.6671C73.9256 62.6671 73.7711 62.7443 73.6167 62.6671C73.2305 62.3582 73.8483 61.8176 74.2345 61.4314C74.9295 60.7364 76.0107 60.3503 76.0107 60.273C76.0107 60.1186 72.4582 59.8869 69.678 57.1839C69.5236 57.0295 69.1375 56.4889 69.0602 56.1027C68.8285 55.4077 70.682 55.0215 71.4543 54.9443C71.686 54.8671 71.2998 54.9443 69.4464 53.8632C63.9632 50.9285 58.6345 45.677 56.6266 42.2018C56.0088 41.0434 55.1593 39.6533 54.8504 38.3404C54.7732 38.0315 54.9276 37.7999 55.2365 37.7999C56.395 37.6454 58.0167 37.6454 59.0207 37.7226C64.9672 38.186 56.4722 38.3405 50.9118 27.7603C49.5217 24.9801 48.6722 21.4276 48.8266 18.0296C48.9039 17.1801 49.7534 18.3385 50.8346 19.0336C50.9118 19.1108 51.8385 19.7287 51.9157 19.6514C51.993 19.6514 51.4524 19.1108 51.2979 18.8019C50.4484 17.3346 49.3673 14.8633 50.0623 13.2415C50.1395 13.1643 50.1395 13.1643 50.294 13.2415C52.4563 14.7861 53.9237 17.1801 54.9276 17.9524C55.0821 18.1069 56.2405 19.6514 56.3177 19.7286C56.5494 20.0375 56.7811 20.4237 57.0128 20.7326C57.2187 20.887 57.3731 21.0672 57.4761 21.2732C59.0207 23.59 58.3256 22.2771 60.2563 25.2118Z" fill="#A34896"/>
</g>
<path d="M53.6908 16.4838L53.9997 16.8699L54.6948 17.565L56.0076 19.1095C56.8314 20.1392 57.6551 21.1946 58.4789 22.2758C60.0234 24.4382 61.5165 26.6521 62.9581 28.9174C65.8155 33.3966 68.5185 38.0302 71.1442 42.5866C73.6927 47.2975 76.2412 51.9311 78.7897 56.642C80.1026 58.9588 81.4154 61.2757 82.7283 63.5925C83.964 65.9093 85.1223 68.3806 86.2808 70.6974C83.7323 66.0638 81.1065 61.4301 78.3263 56.8737L70.5264 42.9728C67.9521 38.3391 65.2749 33.7312 62.4947 29.1491C61.1046 26.8837 59.6631 24.6441 58.17 22.4303C57.4492 21.3491 56.6769 20.2679 55.8532 19.1867L54.6175 17.6422L53.9997 16.8699L53.6908 16.4838Z" fill="#61255B"/>
<path d="M112.458 80.4303C108.751 85.8362 101.723 91.5511 95.3908 92.4006C87.8225 93.4045 80.4859 91.4739 75.0028 87.8442C73.4067 86.866 72.0166 85.7591 70.8325 84.5234C61.7969 75.565 64.2682 64.2898 71.0642 61.5869C74.3077 60.274 75.5434 61.1235 75.6206 60.8918C75.6978 60.7373 68.9018 54.0958 73.6899 42.5117C74.4622 40.6582 74.6167 40.6582 77.2424 36.0246C79.9453 31.3909 79.7909 29.5375 80.4087 29.383C81.3354 29.0741 80.7948 29.5375 84.9651 32.4721C85.9691 33.1672 86.8958 33.7078 87.6681 34.1711C90.1394 35.5612 91.9928 36.3335 94.773 39.0365C98.9433 42.9751 101.337 48.5354 100.333 54.0958C100.333 54.173 100.256 54.3275 100.333 54.4047C100.411 54.482 100.488 54.3275 100.565 54.2503C101.801 53.478 103.114 53.0146 104.504 52.7829C113.848 51.3156 122.498 65.9116 112.458 80.4303Z" fill="#68BD9F"/>
<path d="M111.459 63.2853C112.077 65.216 111.845 67.1467 111.305 69.0774C110.841 70.4675 109.992 71.9348 109.76 72.2437C109.374 72.7071 109.22 72.7071 108.679 72.4754C102.192 69.618 97.7128 61.4319 103.428 58.7289C105.744 57.5705 109.374 58.42 110.996 61.7408C111.228 62.2814 111.382 62.7448 111.459 63.2853Z" fill="#A34896"/>
<path d="M80.1013 73.5556C79.7152 76.5675 78.0934 79.811 77.0122 80.9694C76.8578 81.2011 76.6261 81.2011 76.2399 81.0467C72.7647 79.6566 68.7489 74.6367 70.2935 70.0031C72.1469 64.3655 81.1825 64.2883 80.1013 73.5556Z" fill="#A34896"/>
<path d="M89.6786 59.8112C88.9836 60.429 88.2885 60.5834 87.439 60.3518C79.4846 58.1122 75.546 48.6132 78.944 41.1994C79.7935 39.4231 82.1103 36.9519 82.8826 37.0291C92.9994 38.342 97.1697 52.7063 89.6786 59.8112Z" fill="#A34896"/>
<path d="M83.7304 43.3583C83.9621 43.1266 84.3482 43.0494 84.6572 43.1266C88.2868 44.3623 90.4492 50.5405 87.669 53.8612C87.2057 54.4018 86.974 54.479 86.2789 54.1701C82.1859 52.2394 81.2591 46.0613 83.7304 43.3583Z" fill="#FF4B70"/>
<g style="mix-blend-mode:multiply" opacity="0.25">
<path d="M112.459 80.4311C108.752 85.837 101.725 91.5518 95.392 92.4013C87.8237 93.4053 80.4871 91.4746 75.0039 87.8449C79.1742 79.8905 86.7425 81.0489 89.6771 76.0291C91.6078 72.7084 91.4533 69.3875 90.2949 66.144C88.9048 62.2826 80.4871 51.0847 85.3524 38.5738C86.4336 36.0253 87.0514 35.0214 87.6692 34.1719C90.1405 35.562 91.9939 36.3342 94.7741 39.0372C98.9444 42.9758 101.338 48.5362 100.334 54.0965C100.334 54.1738 100.257 54.3282 100.334 54.4055C100.412 54.4827 100.489 54.3282 100.566 54.251C101.802 53.4787 103.115 53.0153 104.505 52.7837C113.849 51.3163 122.499 65.9123 112.459 80.4311Z" fill="#68BD9F"/>
</g>
<path d="M148.294 153.333C145.437 155.65 143.274 156.345 141.498 156.885C140.726 157.04 141.961 157.117 143.583 163.681C145.514 171.558 142.425 178.895 134.547 178.972C132.539 179.05 132.617 178.818 132.617 179.436C132.848 185.382 128.06 196.271 121.959 195.422C118.252 194.958 114.391 192.333 111.765 189.63C108.136 186 108.985 184.919 108.136 185.537C104.429 188.085 100.953 188.162 98.0188 186.463C93.6941 184.069 90.7595 177.814 90.2961 170.709C90.2961 170.323 90.2961 170.246 89.91 170.4C82.7278 172.408 71.2982 168.392 71.3754 160.978C71.3754 160.438 71.6071 160.206 72.3021 158.97C77.708 150.012 73.7694 142.444 79.3298 129.161C82.0328 122.828 85.6625 117.036 90.8367 112.479C98.5594 105.683 108.522 103.367 122.654 110.626C123.736 111.167 125.048 111.939 126.439 112.788C127.417 113.406 128.421 114.101 129.45 114.874C143.351 125.299 139.876 131.246 152.464 138.968C154.935 140.513 155.244 147.463 148.294 153.333Z" fill="#A34896"/>
<path d="M83.2664 141.205C82.7259 141.128 82.2625 140.819 81.9536 140.355C81.7219 139.892 81.6446 139.351 81.7991 138.734C81.9536 138.193 82.4169 137.73 82.8803 137.498C83.3437 137.266 83.8843 137.266 84.4249 137.498C84.8882 137.73 85.2743 138.116 85.506 138.579C85.7377 138.965 85.8149 139.429 85.6605 139.892C85.506 140.355 85.1971 140.742 84.7337 140.973C84.3476 141.205 83.807 141.359 83.2664 141.205Z" fill="#F7BA47"/>
<path d="M83.267 148.083C82.7264 148.16 82.1858 148.006 81.7996 147.697C81.4135 147.388 81.1046 146.848 81.0273 146.307C81.0273 145.689 81.1818 145.149 81.5679 144.762C81.9541 144.376 82.4174 144.145 82.958 144.145C83.5758 144.145 84.0392 144.376 84.4254 144.685C84.8115 144.994 85.0432 145.457 85.0432 145.921C85.1204 146.461 84.8887 146.925 84.657 147.234C84.2709 147.62 83.8075 147.929 83.267 148.083Z" fill="#F7BA47"/>
<path d="M85.4284 154.491C84.4245 155.032 83.1888 154.569 82.8027 153.487C82.571 152.947 82.571 152.329 82.8027 151.866C83.0344 151.402 83.4977 151.093 83.9611 150.862C84.5017 150.707 85.0423 150.784 85.5056 151.016C85.969 151.171 86.3552 151.557 86.5096 152.02C86.8958 152.947 86.4324 154.028 85.4284 154.491Z" fill="#F7BA47"/>
<path d="M89.0574 160.285C88.2079 160.98 86.895 160.825 86.2772 159.899C85.5821 158.972 85.8911 157.659 86.8178 157.119C87.8217 156.501 88.9802 156.732 89.5208 157.582C90.1386 158.431 89.9069 159.59 89.0574 160.285Z" fill="#F7BA47"/>
<path d="M93.9225 165.147C93.5364 165.533 93.073 165.842 92.5324 165.842C92.0691 165.92 91.4512 165.765 91.0651 165.379C90.2156 164.529 90.2156 163.294 90.9879 162.522C91.8374 161.749 93.073 161.672 93.768 162.367C94.1542 162.676 94.3859 163.139 94.3859 163.68C94.3859 164.143 94.2314 164.684 93.9225 165.147Z" fill="#F7BA47"/>
<path d="M99.641 168.857C99.1776 169.783 97.942 170.247 96.938 169.629C95.9341 169.088 95.6251 167.775 96.3202 166.849C96.938 165.922 98.0964 165.69 98.9459 166.154C99.7954 166.617 100.182 167.853 99.641 168.857Z" fill="#F7BA47"/>
<path d="M106.05 171.172C105.818 172.253 104.737 172.949 103.579 172.562C103.038 172.408 102.652 172.022 102.42 171.558C102.189 171.095 102.111 170.554 102.343 170.014C102.729 169.01 103.81 168.392 104.814 168.701C105.741 169.01 106.282 170.091 106.05 171.172Z" fill="#F7BA47"/>
<path d="M112.844 171.79C112.922 172.331 112.69 172.871 112.304 173.257C111.995 173.566 111.454 173.798 110.836 173.798C109.678 173.721 108.829 172.717 108.983 171.636C109.137 170.555 109.987 169.705 110.991 169.782C111.454 169.782 111.918 170.014 112.304 170.4C112.613 170.709 112.844 171.25 112.844 171.79Z" fill="#F7BA47"/>
<path d="M119.562 170.478C119.717 171.018 119.716 171.559 119.485 172.022C119.253 172.486 118.79 172.872 118.172 173.026C117.631 173.181 117.091 173.026 116.627 172.794C116.164 172.486 115.855 172.022 115.778 171.482C115.701 170.941 115.855 170.4 116.087 169.937C116.319 169.551 116.705 169.242 117.168 169.088C117.631 169.01 118.172 169.088 118.558 169.319C119.021 169.551 119.408 169.937 119.562 170.478Z" fill="#F7BA47"/>
<path d="M125.591 167.31C125.9 167.774 126.054 168.314 125.977 168.855C125.822 169.318 125.514 169.782 125.05 170.091C124.51 170.399 123.969 170.477 123.428 170.322C122.965 170.168 122.502 169.859 122.27 169.318C122.038 168.855 121.961 168.314 122.116 167.851C122.27 167.31 122.502 166.924 122.965 166.693C123.351 166.384 123.815 166.384 124.355 166.461C124.818 166.615 125.282 166.847 125.591 167.31Z" fill="#F7BA47"/>
<path d="M130.529 162.6C130.992 162.986 131.224 163.45 131.301 163.99C131.301 164.531 131.147 165.071 130.76 165.457C130.374 165.921 129.834 166.153 129.293 166.075C128.752 166.075 128.289 165.844 127.903 165.457C127.517 165.071 127.285 164.531 127.285 164.067C127.285 163.527 127.44 163.063 127.826 162.677C128.135 162.368 128.598 162.137 129.139 162.137C129.602 162.137 130.143 162.291 130.529 162.6Z" fill="#F7BA47"/>
<path d="M134.317 156.883C135.321 157.424 135.707 158.659 135.089 159.663C134.78 160.127 134.317 160.436 133.853 160.59C133.313 160.667 132.772 160.59 132.309 160.281C131.845 159.972 131.536 159.509 131.459 159.046C131.305 158.505 131.382 158.042 131.614 157.578C132.154 156.729 133.313 156.42 134.317 156.883Z" fill="#F7BA47"/>
<path d="M136.788 150.552C137.869 150.783 138.487 151.942 138.101 153.023C137.715 154.104 136.556 154.645 135.552 154.258C134.471 153.795 134.008 152.714 134.317 151.787C134.626 150.783 135.707 150.243 136.788 150.552Z" fill="#F7BA47"/>
<path d="M137.789 143.758C138.33 143.758 138.793 144.067 139.179 144.453C139.488 144.839 139.72 145.38 139.643 145.92C139.488 147.079 138.484 147.851 137.403 147.696C136.245 147.465 135.55 146.538 135.627 145.534C135.704 144.993 135.936 144.607 136.322 144.298C136.708 143.99 137.249 143.758 137.789 143.758Z" fill="#F7BA47"/>
<path d="M137.174 136.958C138.256 136.727 139.337 137.422 139.491 138.58C139.568 139.198 139.414 139.739 139.105 140.125C138.796 140.511 138.256 140.82 137.715 140.82C137.174 140.897 136.634 140.665 136.248 140.356C135.862 140.125 135.63 139.661 135.553 139.198C135.398 138.194 136.093 137.19 137.174 136.958Z" fill="#F7BA47"/>
<path d="M134.702 130.625C135.243 130.316 135.783 130.239 136.247 130.394C136.504 130.497 136.736 130.625 136.942 130.78C137.148 130.986 137.328 131.217 137.482 131.475C137.714 132.015 137.714 132.633 137.482 133.097C137.328 133.56 136.865 133.946 136.401 134.178C135.861 134.332 135.32 134.332 134.857 134.101C134.393 133.946 134.007 133.637 133.776 133.174C133.673 132.968 133.621 132.736 133.621 132.479C133.621 132.273 133.673 132.041 133.776 131.784C133.93 131.32 134.239 130.857 134.702 130.625Z" fill="#F7BA47"/>
<path d="M130.225 125.53C130.534 125.067 131.075 124.758 131.615 124.758C132.079 124.758 132.696 124.912 133.082 125.298C133.546 125.762 133.778 126.302 133.778 126.843C133.7 127.384 133.469 127.847 133.082 128.233C132.619 128.542 132.079 128.696 131.615 128.696C131.152 128.696 130.688 128.542 130.302 128.233C129.993 127.924 129.762 127.461 129.762 126.997C129.762 126.457 129.916 125.993 130.225 125.53Z" fill="#F7BA47"/>
<path d="M89.2923 137.965C88.2111 137.965 87.2843 136.961 87.4388 135.802C87.516 134.567 88.6744 133.794 89.7556 134.103C90.8368 134.335 91.5318 135.262 91.4546 136.188C91.3002 137.115 90.4507 137.965 89.2923 137.965Z" fill="#68BD9F"/>
<path d="M90.2166 144.684C89.676 144.838 89.1354 144.761 88.672 144.452C88.2859 144.22 87.8997 143.757 87.8225 143.139C87.5908 141.981 88.3631 140.977 89.4443 140.822C90.6027 140.745 91.5294 141.44 91.7611 142.367C91.8383 142.83 91.7611 143.371 91.4522 143.757C91.2205 144.143 90.7572 144.529 90.2166 144.684Z" fill="#68BD9F"/>
<path d="M93.0744 150.863C92.611 151.172 92.0704 151.249 91.607 151.095C91.0665 150.94 90.6031 150.632 90.2942 150.091C90.1912 149.834 90.114 149.576 90.0625 149.319C90.0625 149.061 90.114 148.804 90.217 148.546C90.3714 148.006 90.7575 147.62 91.2209 147.388C91.7615 147.156 92.3021 147.156 92.7655 147.311C93.0229 147.414 93.2288 147.542 93.3833 147.697C93.5892 147.8 93.7437 147.954 93.8467 148.16C94.0783 148.624 94.1555 149.087 94.0011 149.628C93.8466 150.091 93.5378 150.554 93.0744 150.863Z" fill="#68BD9F"/>
<path d="M97.6315 155.884C97.2453 156.348 96.782 156.579 96.2414 156.579C95.984 156.579 95.7266 156.553 95.4691 156.502C95.2117 156.399 94.98 156.245 94.7741 156.039C94.3107 155.653 94.1562 155.035 94.1562 154.571C94.1562 154.031 94.388 153.49 94.8513 153.181C95.2375 152.795 95.778 152.641 96.3186 152.641C96.782 152.641 97.2454 152.795 97.5543 153.104C97.7602 153.31 97.8889 153.516 97.9404 153.722C98.0434 153.928 98.0949 154.159 98.0949 154.417C98.1721 154.957 97.9404 155.421 97.6315 155.884Z" fill="#68BD9F"/>
<path d="M103.503 159.28C103.117 160.361 101.881 160.902 100.8 160.284C100.259 160.053 99.9504 159.589 99.796 159.126C99.6415 158.585 99.7188 158.045 100.028 157.581C100.259 157.118 100.723 156.809 101.186 156.655C101.649 156.5 102.19 156.5 102.576 156.732C103.426 157.118 103.889 158.276 103.503 159.28Z" fill="#68BD9F"/>
<path d="M110.145 160.669C110.145 161.209 109.913 161.673 109.45 162.059C109.063 162.368 108.523 162.6 107.905 162.522C106.747 162.368 105.974 161.209 106.283 160.128C106.515 159.047 107.519 158.429 108.446 158.506C108.909 158.609 109.295 158.841 109.604 159.201C109.913 159.588 110.145 160.128 110.145 160.669Z" fill="#68BD9F"/>
<path d="M116.785 159.435C117.016 159.976 116.939 160.517 116.707 160.98C116.476 161.443 116.012 161.829 115.472 161.984C114.854 162.138 114.313 162.061 113.85 161.752C113.387 161.521 113.155 160.98 113.001 160.439C112.923 159.899 113.078 159.435 113.309 158.972C113.567 158.56 113.927 158.277 114.391 158.123C114.854 157.968 115.317 158.123 115.781 158.277C116.167 158.509 116.553 158.895 116.785 159.435Z" fill="#68BD9F"/>
<path d="M122.5 155.805C122.886 156.191 123.041 156.732 123.041 157.272C122.963 157.736 122.732 158.276 122.191 158.662C121.728 158.971 121.187 159.126 120.647 159.049C120.106 158.894 119.72 158.585 119.411 158.122C119.102 157.658 119.025 157.118 119.102 156.654C119.179 156.191 119.411 155.728 119.797 155.419C120.183 155.187 120.647 155.033 121.11 155.11C121.651 155.187 122.114 155.419 122.5 155.805Z" fill="#68BD9F"/>
<path d="M126.59 150.397C127.131 150.629 127.44 151.092 127.594 151.633C127.672 152.096 127.594 152.714 127.285 153.178C127.131 153.435 126.925 153.641 126.668 153.795C126.462 153.95 126.23 154.027 125.973 154.027C125.432 154.104 124.891 154.027 124.505 153.641C124.042 153.332 123.81 152.791 123.656 152.328C123.604 152.071 123.604 151.839 123.656 151.633C123.707 151.376 123.81 151.144 123.965 150.938C124.196 150.552 124.583 150.32 125.123 150.166C125.587 150.088 126.127 150.166 126.59 150.397Z" fill="#68BD9F"/>
<path d="M128.834 143.989C129.452 144.143 129.838 144.452 130.147 144.838C130.456 145.302 130.533 145.842 130.379 146.46C129.993 147.618 128.834 148.159 127.83 147.773C126.826 147.31 126.209 146.306 126.517 145.379C126.595 144.916 126.904 144.529 127.367 144.298C127.83 143.989 128.294 143.912 128.834 143.989Z" fill="#68BD9F"/>
<path d="M129.141 137.191C129.681 137.191 130.222 137.346 130.608 137.655C130.814 137.809 130.969 138.015 131.072 138.273C131.175 138.53 131.252 138.813 131.303 139.122C131.303 139.431 131.252 139.688 131.149 139.894C131.046 140.152 130.891 140.383 130.685 140.589C130.299 140.976 129.759 141.13 129.218 141.13C128.678 141.053 128.214 140.821 127.828 140.512C127.674 140.306 127.545 140.1 127.442 139.894C127.339 139.688 127.287 139.457 127.287 139.199C127.236 138.942 127.262 138.71 127.365 138.504C127.468 138.298 127.596 138.092 127.751 137.886C128.06 137.578 128.6 137.269 129.141 137.191Z" fill="#68BD9F"/>
<path d="M127.364 130.628C127.904 130.473 128.445 130.473 128.908 130.628C129.372 130.859 129.835 131.245 129.99 131.863C130.144 132.404 130.144 132.944 129.835 133.408C129.603 133.871 129.14 134.18 128.6 134.335C128.059 134.489 127.518 134.412 127.132 134.18C126.669 133.948 126.283 133.562 126.128 133.099C126.051 132.635 126.051 132.172 126.283 131.709C126.514 131.245 126.9 130.859 127.364 130.628Z" fill="#68BD9F"/>
<path d="M123.737 124.912C124.124 124.526 124.664 124.372 125.205 124.449C125.745 124.449 126.286 124.758 126.595 125.221C127.29 126.225 127.058 127.538 126.054 128.079C125.128 128.619 123.892 128.388 123.351 127.615C122.811 126.843 122.965 125.685 123.737 124.912Z" fill="#68BD9F"/>
<path d="M138.099 158.508C138.948 160.052 139.72 161.674 140.107 163.45C140.415 165.227 140.415 167.08 139.875 168.934C139.566 169.783 139.18 170.633 138.562 171.405C138.021 172.177 137.326 172.795 136.554 173.335C135.087 174.417 133.156 174.88 131.457 174.726C134.778 173.799 137.481 171.482 138.407 168.393C138.871 166.926 139.025 165.304 138.871 163.605C138.794 161.906 138.408 160.284 138.099 158.508Z" fill="#61255B"/>
<path d="M93.7695 170.016C94.4646 171.637 94.928 173.259 95.623 174.804C96.3181 176.348 97.0903 177.738 98.326 178.742C99.4844 179.746 100.952 180.441 102.496 180.827C104.118 181.214 105.817 181.291 107.516 181.059C105.971 181.909 104.118 182.218 102.342 182.063C100.488 181.831 98.7121 181.136 97.322 179.901C95.8547 178.665 95.0052 176.889 94.4646 175.19C94.0012 173.491 93.8468 171.792 93.7695 170.016Z" fill="#61255B"/>
<path d="M150.145 140.824C150.222 142.292 149.913 143.836 149.296 145.226C148.678 146.616 147.828 147.929 146.824 149.088C145.82 150.169 144.662 151.173 143.349 151.945C142.036 152.717 140.569 153.258 139.102 153.335C140.414 152.64 141.573 151.791 142.654 150.941C143.735 150.014 144.816 149.088 145.743 148.006C146.67 146.977 147.494 145.87 148.214 144.686C148.987 143.527 149.604 142.214 150.145 140.824Z" fill="#61255B"/>
<path d="M74.543 160.516C76.7053 162.524 79.1766 163.836 81.8023 164.763C84.4281 165.613 87.2083 166.076 90.2201 166.076C88.83 166.694 87.2855 166.925 85.8182 166.925C84.2736 166.925 82.7291 166.694 81.339 166.23C79.8717 165.69 78.4815 164.995 77.3231 164.068C76.0875 163.141 75.0836 161.906 74.543 160.516Z" fill="#61255B"/>
<path d="M128.754 177.66C129.063 180.209 128.754 182.834 127.982 185.383C127.596 186.619 127.132 187.854 126.36 189.013C125.974 189.63 125.588 190.171 125.125 190.634C124.893 190.866 124.738 191.098 124.352 191.407C124.043 191.638 123.657 191.87 123.271 192.024C122.344 192.256 121.572 192.024 120.954 191.793C120.285 191.587 119.641 191.329 119.024 191.02C117.865 190.403 116.784 189.63 115.78 188.704C113.927 186.85 112.382 184.688 111.301 182.294C112.923 184.379 114.699 186.232 116.629 187.777C117.556 188.549 118.637 189.244 119.719 189.708C120.723 190.171 122.113 190.712 122.808 190.557C123.194 190.48 123.503 190.094 124.043 189.63C124.455 189.167 124.816 188.704 125.125 188.24C125.82 187.236 126.36 186.155 126.901 184.997C127.75 182.68 128.445 180.209 128.754 177.66Z" fill="#61255B"/>
<g style="mix-blend-mode:multiply" opacity="0.25">
<path d="M148.295 153.333C145.437 155.65 143.275 156.345 141.499 156.886C140.726 157.04 141.962 157.118 143.584 163.682C145.514 171.559 142.425 178.896 134.548 178.973C132.54 179.05 132.617 178.818 132.617 179.436C132.849 185.383 128.061 196.272 121.96 195.422C118.253 194.959 114.392 192.333 111.766 189.63C108.136 186.001 108.986 184.919 108.136 185.537C104.429 188.086 100.954 188.163 98.0195 186.464C102.035 181.83 101.031 174.03 103.889 169.397C105.279 167.157 108.291 164.918 110.685 163.682C115.859 160.979 122.192 160.67 126.13 155.11C131.768 147.155 127.057 136.343 125.744 129.161C124.74 123.601 125.049 117.809 126.439 112.789C127.417 113.407 128.421 114.102 129.451 114.874C143.352 125.3 139.877 131.246 152.465 138.969C154.936 140.514 155.245 147.464 148.295 153.333Z" fill="#A34896"/>
</g>
<path d="M130.686 102.284C131.072 107.69 131.072 113.482 130.3 119.429C128.987 129.468 126.207 137.963 118.252 144.373C114.236 147.694 110.761 148.466 107.286 148.389C104.583 148.312 101.571 147.694 98.7138 146.613C94.6207 144.991 90.6049 142.52 87.7475 139.585C74.0782 125.762 66.896 106.223 66.9733 95.8745C67.1277 81.8191 76.3178 69.9261 88.0564 65.6786C100.644 61.1222 118.793 67.4548 126.13 82.7458C128.215 87.1478 129.991 94.1755 130.686 102.284Z" fill="white"/>
<g style="mix-blend-mode:multiply" opacity="0.25">
<path d="M130.683 102.285C131.069 107.691 131.069 113.483 130.297 119.43C128.984 129.469 126.204 137.964 118.249 144.374C114.234 147.695 110.758 148.467 107.283 148.39C104.58 148.313 101.568 147.695 98.7109 146.614C103.036 141.362 106.511 142.752 116.01 137.964C130.451 130.628 119.717 111.398 130.683 102.285Z" fill="#8F93B0"/>
</g>
<path d="M90.9883 69.3086C91.915 71.0848 92.5328 72.9383 93.1506 74.7917C93.6912 76.568 94.2318 78.4986 94.6952 80.3521C95.6991 84.059 96.4714 87.8432 96.9348 91.7818C95.313 88.1521 94.2318 84.4452 93.2278 80.7382C92.7645 78.8076 92.3011 76.9541 91.9922 75.0234C91.5289 73.1699 91.2972 71.2393 90.9883 69.3086Z" fill="#A34896"/>
<path d="M94.0034 93.5601C91.7638 91.166 89.447 89.0037 87.0529 86.9958C84.5044 84.9879 82.1877 82.9799 79.1758 81.5898C80.8748 81.6671 82.4965 82.2077 83.9638 82.98C85.4312 83.7522 86.744 84.7562 87.9797 85.8374C90.5282 87.9225 92.7678 90.471 94.0034 93.5601Z" fill="#68BD9F"/>
<path d="M107.133 74.3281C106.206 75.7182 105.589 77.1083 104.893 78.5756C104.276 80.0172 103.709 81.4588 103.194 82.9003C102.036 85.9122 101.032 88.8469 100.337 92.0132C100.028 90.3914 100.183 88.6924 100.414 87.0706C100.723 85.4489 101.187 83.9043 101.727 82.3597C102.268 80.8924 102.963 79.3479 103.89 77.9578C104.739 76.645 105.743 75.2549 107.133 74.3281Z" fill="#68BD9F"/>
<path d="M101.183 69.9258C100.952 71.5476 100.488 72.8604 100.179 74.1733C99.7933 75.5634 99.5616 76.799 99.3299 78.4208C98.4032 77.1079 98.2487 75.3317 98.6349 73.7872C99.0982 72.3198 99.8705 70.9297 101.183 69.9258Z" fill="#FF4B70"/>
<path d="M88.21 81.2801C87.0516 80.1989 86.2021 79.0405 85.3526 78.0365C84.4259 76.8781 83.5764 75.9514 82.418 74.793C83.1902 74.793 84.0398 75.1019 84.6576 75.488C85.4299 75.8742 85.9705 76.4148 86.5111 77.0326C87.515 78.191 88.21 79.6583 88.21 81.2801Z" fill="#FF4B70"/>
<path d="M97.9414 120.51C98.5592 121.977 99.8721 123.136 101.108 123.059C101.314 123.059 101.468 123.033 101.571 122.981C101.726 122.981 101.957 122.904 102.266 122.827C102.807 122.75 103.502 123.059 103.811 123.29C104.197 123.522 104.429 123.754 104.737 123.831C104.995 123.934 105.201 123.96 105.355 123.908C105.51 123.908 105.741 123.754 105.896 123.522C105.947 123.419 105.999 123.316 106.05 123.213C106.128 123.059 106.205 122.75 106.282 122.518C106.514 122.132 106.977 121.591 107.518 121.437C107.981 121.205 108.367 121.205 108.599 121.128C109.139 120.896 109.525 120.278 109.834 119.583C110.143 118.965 110.221 118.116 110.066 117.344C110.529 118.039 110.684 118.888 110.529 119.815C110.375 120.587 110.143 121.591 109.217 122.132C108.753 122.441 108.29 122.518 108.058 122.672C107.826 122.827 107.749 122.904 107.595 123.213C107.595 123.367 107.518 123.522 107.44 123.676C107.389 123.934 107.286 124.165 107.131 124.371C106.823 124.835 106.359 125.221 105.741 125.453C104.428 125.762 103.502 124.912 102.961 124.449C102.73 124.294 102.575 124.217 102.343 124.217C102.266 124.217 102.112 124.217 101.803 124.294C101.545 124.294 101.314 124.294 101.108 124.294C100.104 124.14 99.2543 123.599 98.7137 122.904C98.2503 122.132 98.0186 121.282 97.9414 120.51Z" fill="#8F93B0"/>
<path d="M114.854 125.532C114.931 126.15 115.472 126.845 115.008 129.239C114.545 132.096 112.46 135.031 109.602 136.189C107.363 137.116 104.891 136.884 102.806 135.88C101.571 135.263 100.412 134.413 99.4855 133.332C98.2499 131.787 96.7826 128.775 98.8677 129.007C99.4856 129.084 100.258 129.316 101.03 128.698C102.729 127.463 105.046 127.154 105.973 127.463C106.668 127.694 106.359 126.922 108.212 126.304C108.264 126.304 108.315 126.304 108.367 126.304C111.301 125.455 111.687 126.459 112.846 125.609C113.103 125.455 113.386 125.274 113.695 125.069C114.236 124.76 114.777 124.914 114.854 125.532Z" fill="#FF4B70"/>
<g style="mix-blend-mode:multiply" opacity="0.25">
<path d="M114.852 125.532C114.929 126.15 115.47 126.845 115.007 129.239C114.543 132.096 112.458 135.031 109.601 136.189C107.361 137.116 104.89 136.884 102.805 135.88C105.739 134.876 109.215 133.177 108.442 130.629C107.902 128.698 108.056 127.231 108.365 126.304C111.3 125.455 111.686 126.459 112.844 125.609C113.102 125.455 113.385 125.274 113.694 125.069C114.234 124.76 114.775 124.914 114.852 125.532Z" fill="#FF4B70"/>
</g>
<path d="M115.01 123.906C115.01 125.914 114.237 127.922 112.924 129.544C111.689 131.166 109.99 132.478 107.905 133.096C105.82 133.637 103.58 133.405 101.649 132.633C99.7958 131.861 98.0968 130.548 97.0156 128.849C98.5602 130.162 100.259 130.934 102.035 131.475C103.889 131.938 105.742 132.092 107.441 131.552C109.14 131.166 110.762 130.007 112.075 128.694C113.388 127.381 114.469 125.837 115.01 123.906Z" fill="#8A294B"/>
<path d="M132.228 83.8248C136.166 86.0644 138.637 90.8525 136.784 95.0228C135.162 98.7297 131.919 98.5752 132.845 99.1158C141.031 103.904 139.024 115.874 128.366 119.118C125.972 119.658 123.655 119.658 121.416 118.886C119.639 118.268 113.152 113.48 108.055 114.252C108.004 114.252 107.927 114.278 107.824 114.33C105.816 114.639 104.503 115.874 104.117 117.033C103.499 118.577 102.804 115.951 99.4831 116.492C99.0713 116.595 98.6593 116.698 98.2475 116.801C93.5366 118.654 90.2931 125.682 89.4436 126.763C85.0416 132.092 77.4733 132.787 72.1446 129.157C67.5882 125.991 66.507 120.044 69.1328 115.951C69.21 115.797 69.3644 115.642 69.2872 115.565C69.21 115.411 68.9783 115.488 68.8238 115.488C62.0278 116.338 57.7031 107.688 63.4179 100.66C63.8813 99.9653 63.2635 100.583 60.9466 99.1158C56.1585 96.1812 54.3823 88.9218 57.7031 82.898C58.2694 81.8683 58.9645 80.9159 59.7882 80.0406C61.4872 78.1872 65.4259 75.8703 67.9744 75.9476C71.3724 75.9476 68.8239 79.2683 75.311 86.6049C82.1842 94.2505 86.2 91.702 94.9267 97.3396C98.0158 99.3475 98.7881 100.892 99.5603 101.742C99.6376 101.278 99.792 94.8683 107.592 87.2228C112.148 82.8208 113.925 76.411 113.77 70.2328C113.693 67.4526 111.994 64.8268 115.469 63.5912C119.64 62.0466 123.578 62.8189 126.667 64.7496C132.923 68.6882 135.703 77.5694 130.297 82.6664C129.833 83.1297 130.606 82.8981 132.228 83.8248Z" fill="#FF4B70"/>
<g style="mix-blend-mode:multiply" opacity="0.25">
<path d="M98.2475 116.805C93.5366 118.659 90.2931 125.686 89.4436 126.768C85.0416 132.096 77.4733 132.791 72.1446 129.162C67.5882 125.995 66.507 120.049 69.1328 115.956C69.21 115.801 69.3644 115.647 69.2872 115.57C69.21 115.415 68.9783 115.492 68.8238 115.492C62.0278 116.342 57.7031 107.692 63.4179 100.665C63.8813 99.9696 63.2635 100.587 60.9466 99.1201C56.1585 96.1855 54.3823 88.9261 57.7031 82.9023C59.5565 88.4627 61.0239 89.8528 65.1169 93.4825C66.9704 95.1043 68.1288 95.9538 68.7466 98.5023C69.21 100.279 68.6694 101.823 67.7426 103.522C66.6615 105.298 64.9625 107.692 67.8199 109.469C70.1367 110.936 71.2951 110.473 72.6852 112.558C73.4575 113.716 74.5387 117.114 75.002 119.894C75.4654 122.443 78.3228 123.91 80.9486 123.678C85.2733 123.215 89.7525 118.195 95.8534 116.96C96.7802 116.728 97.6296 116.728 98.2475 116.805Z" fill="#8A294B"/>
</g>
<g style="mix-blend-mode:multiply" opacity="0.25">
<path d="M132.231 83.8291C136.169 86.0687 138.641 90.8568 136.787 95.0271C135.165 98.734 131.922 98.5795 132.849 99.1201C141.035 103.908 139.027 115.878 128.369 119.122C125.975 119.663 123.659 119.663 121.419 118.89C119.643 118.273 113.156 113.484 108.059 114.257C108.11 114.257 108.136 114.231 108.136 114.179C114.314 109.777 125.358 115.57 129.296 109.314C131.536 105.762 127.674 103.677 128.215 97.5756C128.369 95.9538 129.914 94.5637 130.841 93.2508C131.922 91.5518 131.536 89.7756 129.837 88.7717C127.057 86.9954 122.809 85.3736 125.126 78.5004C125.975 76.0291 127.752 72.3994 127.211 67.7658C127.134 66.7618 126.902 65.6034 126.67 64.7539C132.926 68.6925 135.706 77.5737 130.3 82.6707C129.837 83.134 130.609 82.9024 132.231 83.8291Z" fill="#8A294B"/>
</g>
<path d="M118.717 66.0664C119.798 69.5416 120.184 73.3258 119.798 77.0327C119.592 78.8862 119.206 80.7139 118.64 82.5158C118.022 84.2921 117.018 85.9138 116.014 87.5356C113.775 90.5475 110.994 93.0188 108.523 95.6445C106.052 98.193 103.889 101.128 103.117 104.757C103.194 102.904 103.735 101.128 104.507 99.4287C105.357 97.7297 106.515 96.2623 107.674 94.795C109.99 91.9376 112.693 89.4663 114.701 86.6089C116.864 83.7515 117.945 80.3535 118.64 76.8782C118.949 75.0763 119.103 73.2743 119.103 71.4723C119.103 69.6961 118.949 67.8426 118.717 66.0664Z" fill="#8A294B"/>
<path d="M65.3516 80.1211C65.9694 81.8201 66.7674 83.4419 67.7456 84.9864C68.6208 86.531 69.6248 87.9983 70.7575 89.3884C72.9198 92.2458 75.6228 94.5626 78.7892 96.1072C81.9555 97.6517 85.5079 98.3468 88.9831 99.6596C90.7594 100.277 92.4584 101.127 93.9257 102.131C95.4703 103.212 96.7831 104.602 97.8643 105.992C95.2386 103.444 92.0722 101.745 88.597 100.818L83.3455 99.3507C81.5693 98.8873 79.8703 98.2695 78.1713 97.4973C74.7733 95.7983 71.8387 93.1725 69.7535 90.0834C67.7456 87.0715 66.0466 83.6736 65.3516 80.1211Z" fill="#8A294B"/>
<path d="M124.895 96.2609C124.973 101.667 122.424 105.683 119.335 107.304C116.323 108.926 114.238 108.231 111.458 107.382C110.454 107.073 109.373 106.764 108.06 106.532C107.519 106.455 106.979 106.378 106.438 106.069C106.387 106.069 106.361 106.043 106.361 105.992C105.897 105.76 105.82 105.683 105.975 105.142C106.979 101.59 110.299 99.35 113.543 98.1916C115.937 97.2648 118.331 96.8015 120.571 95.7975C121.291 95.4886 121.986 95.1025 122.656 94.6391C123.042 94.4074 123.814 93.558 124.355 93.7896C124.406 93.7896 124.432 93.7896 124.432 93.7896C124.973 94.1758 124.818 95.7203 124.895 96.2609Z" fill="#331330"/>
<path d="M124.432 93.7896C124.2 94.7164 123.505 95.952 123.428 96.2609C120.339 102.902 115.474 101.744 110.994 103.211C109.81 103.572 108.703 104.112 107.674 104.833C106.901 105.374 106.515 105.76 106.361 105.992C105.897 105.76 105.82 105.683 105.975 105.142C106.979 101.59 110.299 99.35 113.543 98.1916C116.632 97.0332 119.876 96.5698 122.656 94.6391C123.042 94.4074 123.814 93.558 124.355 93.7896C124.406 93.7896 124.432 93.7896 124.432 93.7896Z" fill="#68BD9F"/>
<g style="mix-blend-mode:multiply" opacity="0.25">
<path d="M124.891 96.2609C124.968 101.667 122.419 105.683 119.33 107.304C116.318 108.926 114.233 108.231 111.453 107.382C112.225 106.687 113.384 105.837 115.314 104.988C119.716 102.902 120.411 98.0371 120.566 95.7975C121.287 95.4886 121.982 95.1025 122.651 94.6391C123.037 94.4074 123.81 93.558 124.35 93.7896C124.402 93.7896 124.427 93.7896 124.427 93.7896C124.968 94.1758 124.813 95.7203 124.891 96.2609Z" fill="#331330"/>
</g>
<path d="M74.7727 109.389C77.3212 114.177 81.5687 116.339 85.0439 116.262C88.4419 116.262 89.9093 114.641 91.9172 112.555C92.6122 111.783 93.4617 110.934 94.4657 110.084C94.8518 109.698 95.3152 109.389 95.6241 108.926C95.6756 108.874 95.7013 108.823 95.7013 108.771C96.0102 108.385 95.933 108.231 95.5468 107.844C92.9983 105.296 88.9825 104.91 85.5845 105.528C83.1132 105.914 80.7964 106.686 78.3251 106.841C77.5528 106.943 76.7549 106.943 75.9311 106.841C75.4677 106.841 74.3093 106.532 74.0004 106.995C74.0004 106.995 74.0004 107.021 74.0004 107.072C73.6915 107.613 74.541 108.926 74.7727 109.389Z" fill="#331330"/>
<path d="M74 107.072C74.6178 107.69 75.7762 108.462 76.0079 108.694C82.0316 112.942 85.5841 109.543 90.2178 108.617C91.4534 108.359 92.7147 108.308 94.0019 108.462C94.9286 108.54 95.392 108.694 95.7009 108.771C96.0098 108.385 95.9326 108.231 95.5464 107.844C92.9979 105.296 88.9821 104.91 85.5841 105.528C82.2633 106.068 79.3287 107.149 75.9307 106.841C75.4673 106.841 74.3089 106.532 74 106.995C74 106.995 74 107.021 74 107.072Z" fill="#68BD9F"/>
<g style="mix-blend-mode:multiply" opacity="0.25">
<path d="M74.7727 109.388C77.3212 114.176 81.5687 116.338 85.0439 116.261C88.4419 116.261 89.9093 114.639 91.9172 112.554C90.9132 112.322 89.4459 112.168 87.3607 112.322C82.5726 112.708 79.4835 108.77 78.3251 106.839C77.5528 106.942 76.7549 106.942 75.9311 106.839C75.4677 106.839 74.3093 106.53 74.0004 106.994C74.0004 106.994 74.0004 107.019 74.0004 107.071C73.6915 107.611 74.541 108.924 74.7727 109.388Z" fill="#331330"/>
</g>
<path d="M40.1162 85.1737L37.4442 90.3171L38.147 83.9458C36.6487 83.0551 34.9832 82.1825 33.1503 81.3278C14.1292 72.4698 3.31736 65.1178 1.53341 62.5306C-0.258266 59.9358 8.35261 79.3276 14.4381 84.6872L18.1219 83.0963L16.1294 87.8226L20.431 84.3706L19.2108 89.5216C19.2108 89.5216 39.7996 114.497 52.3568 101.53C52.3568 101.53 52.2178 93.1513 40.1162 85.1737Z" fill="black"/>
<path d="M40.0962 85.1386L37.4705 90.3128L38.1656 83.9802C36.6725 83.0534 34.9992 82.1782 33.1458 81.3544C14.1478 72.4733 3.33603 65.1367 1.55979 62.511C-0.293663 59.9625 8.35577 79.3465 14.4567 84.6752L18.0864 83.1306L16.1557 87.8415L20.4033 84.3663L19.1676 89.5406C19.1676 89.5406 39.7874 114.485 52.3754 101.511C52.3754 101.511 52.221 93.1702 40.0962 85.1386Z" fill="#FF4B70"/>
<g style="mix-blend-mode:multiply" opacity="0.5">
<path d="M47.9746 98.5009C40.5608 95.1801 33.842 90.6237 26.6598 86.7623C26.1965 86.5049 25.8103 86.196 25.5014 85.8356C24.7292 85.3722 23.9569 84.9089 23.1846 84.4455C18.8599 81.6653 14.6896 78.6535 11.1371 74.9466C7.35296 71.0852 4.26385 66.7604 1.32921 62.2812C1.0203 62.7446 8.82027 79.7346 14.4579 84.6772L18.0876 83.1327L16.1569 87.8436L20.4044 84.3683L19.1688 89.5426C19.1688 89.5426 39.5568 114.255 52.1449 101.744C50.832 100.741 49.4419 99.6593 48.1291 98.6554C48.0776 98.6039 48.0261 98.5524 47.9746 98.5009Z" fill="#FF4B70"/>
</g>
<path d="M54.0766 101.283C47.5123 98.5031 41.7202 95.7229 36.6232 92.9427C36.9321 92.2477 39.4034 86.0695 39.249 83.8299L38.94 83.9071C39.0945 85.9923 36.7005 92.016 36.3143 92.7883C29.8272 89.1586 24.4213 85.6061 20.0966 82.2854C20.4827 81.2042 22.4134 75.7983 21.4094 72.9409L21.1005 73.0181C22.0273 75.6438 20.251 80.8953 19.8649 82.0537C15.849 79.0418 12.76 76.1844 10.3659 73.7131C2.72039 65.836 0.480804 60.1983 0.480804 60.1211L0.171875 60.2756C0.171875 60.3528 2.41149 65.9904 10.1342 73.9448C11.2669 75.129 12.4768 76.2874 13.7639 77.4201C12.76 78.0379 9.4392 79.0418 7.7402 79.5052L7.81741 79.8141C7.97186 79.8141 12.76 78.424 13.9956 77.6517C18.7065 81.8992 23.9579 85.6834 29.2866 89.0042C28.6688 91.2438 22.954 96.0319 22.8768 96.1091L23.1084 96.3408C23.3401 96.1091 28.8232 91.6299 29.5183 89.1586C33.4569 91.6299 37.3955 93.7923 41.1797 95.723H41.0252C40.6391 97.8853 34.0747 103.446 34.0747 103.523L34.2292 103.755C34.5381 103.523 40.8708 98.1942 41.3341 95.8002C41.9005 96.0576 42.4668 96.3407 43.0331 96.6497C42.9559 98.7348 36.3916 104.45 36.3916 104.527L36.546 104.759C36.8549 104.527 43.0331 99.1209 43.342 96.8041C47.1262 98.6576 50.6786 100.202 53.9222 101.592L54.0766 101.283Z" fill="#8A294B"/>
<path d="M154.055 161.255C154.055 161.255 183.988 168.028 193.966 153.478C203.951 138.936 230.209 130.495 237.36 130.974C244.511 131.453 219.366 121.776 202.855 124.881L199.936 134.04L199.696 125.02C199.696 125.02 167.894 137.191 154.055 161.255Z" fill="black"/>
<path d="M154.086 161.287C154.086 161.287 183.973 168.005 193.935 153.487C203.975 138.968 230.232 130.473 237.337 130.936C244.519 131.477 219.343 121.746 202.894 124.912L199.959 134.025L199.727 124.99C199.727 124.99 167.91 137.192 154.086 161.287Z" fill="#68BD9F"/>
<g style="mix-blend-mode:multiply" opacity="0.5">
<path d="M158.797 162.058C161.963 159.664 165.13 157.192 168.219 154.644C174.706 149.47 180.652 144.99 187.912 140.975C190.743 139.379 193.652 137.886 196.638 136.495C198.183 135.775 199.753 135.08 201.349 134.41C202.018 134.153 202.714 133.87 203.434 133.561C203.537 133.561 203.614 133.535 203.666 133.484C203.975 133.381 204.284 133.278 204.593 133.175C207.759 132.016 211.003 131.09 214.246 130.317C215.945 129.905 217.618 129.571 219.266 129.313C220.141 129.21 220.991 129.107 221.814 129.004C221.892 129.004 222.046 129.004 222.123 128.927C222.432 128.927 222.715 128.927 222.973 128.927C226.216 128.721 229.434 128.824 232.626 129.236C232.678 129.236 232.704 129.236 232.704 129.236C232.755 129.288 232.832 129.313 232.935 129.313C233.296 129.365 233.63 129.442 233.939 129.545C234.763 129.699 235.561 129.905 236.333 130.163C237.054 130.369 237.775 130.6 238.496 130.858C238.341 130.961 237.955 130.987 237.337 130.935C230.232 130.472 203.975 138.967 193.935 153.486C186.444 164.452 167.601 163.293 158.797 162.058Z" fill="#68BD9F"/>
</g>
<path d="M181.501 131.245L181.81 131.476C177.331 137.346 179.493 144.451 179.802 145.377C183.303 143.472 186.675 141.696 189.919 140.049H189.996C193.857 138.118 197.564 136.342 201.039 134.874C203.897 133.639 206.677 132.635 209.38 131.863H209.071C209.071 131.785 209.612 124.989 214.245 122.055L214.477 122.364C210.152 125.144 209.534 131.322 209.457 131.863C217.72 129.546 224.825 129.082 229.922 129.314C237.182 129.546 241.738 131.013 241.815 131.013L241.661 131.399C241.661 131.399 237.105 129.932 229.922 129.7C223.204 129.469 212.855 130.241 201.194 135.261C198.62 136.342 195.917 137.577 193.085 138.968C194.012 140.358 200.885 142.674 205.287 143.91L205.21 144.296C204.051 143.987 194.012 141.207 192.776 139.122C192.004 139.482 191.231 139.868 190.459 140.28C192.39 143.138 203.742 145.609 203.82 145.609L203.742 146.072C203.279 145.918 192.081 143.524 190.15 140.435C179.261 145.918 166.828 153.1 154.162 161.363C153.467 161.75 153.313 161.904 153.236 161.981L153.004 161.595C153.081 161.518 153.39 161.363 153.931 161.055C162.735 155.34 171.384 150.088 179.493 145.609C179.261 144.914 176.79 137.423 181.501 131.245Z" fill="#156B62"/>
<path d="M24.5744 125.608C28.8219 126.303 30.7525 125.531 30.8298 125.608C30.4436 125.84 29.3624 126.226 27.9723 127.461C27.7406 127.693 27.6635 128.234 28.4357 128.62C33.3783 131.323 40.0198 128.234 40.0198 128.234C40.0971 128.311 38.9386 129.469 38.0119 130.087C37.4713 130.551 36.8535 130.859 36.2357 131.168C36.1584 131.246 36.004 131.323 36.004 131.555C36.004 131.786 36.0812 131.941 36.3129 132.018C36.3129 132.018 38.0119 133.254 42.4911 133.408C46.9703 133.562 48.6693 132.867 52.5307 132.867C54.1525 132.867 56.7782 132.945 58.3227 133.408C58.2455 133.408 56.9326 133.717 55.7742 134.798C55.2336 135.184 55.002 135.802 55.6198 135.879C55.9287 135.957 62.3386 134.875 67.4356 135.107C67.5385 135.107 67.6415 135.081 67.7445 135.03C67.8989 135.03 68.1306 134.798 68.1306 134.644C68.1306 134.257 65.891 133.254 64.5009 130.319C63.2653 127.77 63.8831 126.38 63.4969 126.226C62.6474 125.84 62.0297 128.543 62.0297 128.543C61.9524 128.465 61.4891 127.307 61.4118 126.998C60.794 124.681 61.2573 124.063 60.794 123.909C60.5623 123.832 60.4851 123.909 60.4078 123.986C59.2494 124.99 58.8633 126.844 58.7861 126.844C58.7089 126.844 57.7821 123.137 54.5386 120.743C54.3841 120.588 53.6891 120.202 53.303 120.202C52.3762 120.125 52.5307 122.982 52.4534 122.982C52.3762 122.982 49.2871 117.422 41.9505 112.325C39.4792 110.626 35.3862 108.309 32.4516 108.155C32.0654 108.077 31.911 108.309 31.911 108.618C31.911 110.626 32.7604 114.178 32.9921 114.719C32.9921 114.796 33.0693 114.796 32.9921 114.873C32.6832 114.873 29.9802 108.85 20.6357 105.683C17.5466 104.602 13.6853 104.293 10.1328 104.988C9.82391 105.091 9.77241 105.271 9.97835 105.529C10.3645 105.915 10.6734 105.992 11.5229 106.919C11.6774 107.073 12.4497 107.923 12.3724 108C12.2952 108.077 11.6773 107.614 11.3684 107.537C9.90112 106.919 7.81601 106.301 6.19424 106.687C4.88137 107.073 4.41797 107.846 4.41797 108.772C4.80411 116.804 16.2338 124.218 24.5744 125.608Z" fill="#A34896"/>
<g style="mix-blend-mode:multiply" opacity="0.35">
<path d="M19.4757 115.877C20.7113 116.418 20.7113 116.186 21.0202 116.418C23.1826 117.885 65.3488 134.026 65.426 134.026C67.9745 134.953 67.9745 135.03 68.0518 134.798C68.3607 134.257 67.5111 134.412 65.8121 132.327C62.9547 128.852 63.9587 126.38 63.4953 126.226C62.8003 125.917 62.1052 128.002 62.028 128.543C61.9508 128.543 61.9508 128.543 61.9508 128.465C61.6419 127.616 61.333 127.075 61.1013 125.145C60.9468 124.295 61.0241 124.063 60.8696 123.986C60.5607 123.6 60.0973 124.372 59.7884 124.759C59.0934 125.685 58.9389 126.844 58.7845 126.844C58.63 126.921 57.8577 123.137 54.537 120.743C54.3053 120.588 53.7647 120.202 53.3013 120.202C52.5291 120.125 52.4518 122.133 52.4518 122.905C52.4518 123.214 52.4518 122.751 51.0617 120.974C47.0459 115.646 40.7132 110.935 36.7746 109.39C35.4618 108.85 33.84 108.232 32.4499 108.155C32.0638 108.077 31.9093 108.309 31.9093 108.618C31.9093 109.854 32.2182 111.553 32.4499 112.557C33.84 118.735 32.6816 109.776 20.6341 105.683C17.545 104.602 13.6837 104.293 10.1312 104.988C9.28169 105.22 10.5945 105.992 11.5213 106.919C11.6757 107.073 12.448 107.923 12.3708 108C12.2936 108.077 11.6757 107.614 11.3668 107.537C9.66781 106.765 6.88763 106.069 5.34308 107.073C5.26585 107.151 5.18863 107.151 5.34308 107.305C7.27377 109.313 10.054 110.549 11.0579 111.398C11.2124 111.553 13.0659 112.557 13.1431 112.634C13.5292 112.788 13.9153 112.943 14.2242 113.252C14.4817 113.355 14.7134 113.458 14.9193 113.561C17.6223 114.873 16.0777 114.333 19.4757 115.877Z" fill="#A34896"/>
</g>
<path d="M9.05437 109.93C8.89991 110.161 9.20886 110.239 9.28609 110.316L9.74943 110.625L10.6762 111.165L12.5296 112.247C13.7652 112.916 15.0266 113.559 16.3138 114.177C18.8365 115.361 21.4108 116.52 24.0365 117.652C29.2365 119.815 34.4622 121.9 39.7137 123.908L55.6225 129.854C60.874 132.017 66.0482 134.102 71.3769 136.033C68.7512 135.106 66.0482 134.334 63.3453 133.33C60.7195 132.403 58.0938 131.322 55.4681 130.318C50.1394 128.387 44.8107 126.456 39.482 124.526C34.2305 122.441 28.9791 120.355 23.8048 118.039C21.2306 116.906 18.6821 115.696 16.1593 114.409C14.8722 113.791 13.6365 113.122 12.4524 112.401L10.5989 111.243L9.74943 110.625L9.28609 110.393C9.20886 110.239 8.89991 110.161 9.05437 109.93Z" fill="#61255B"/>
<path d="M42.4933 164.223L41.3349 166.463C41.2576 166.617 41.1032 166.772 40.9487 166.772L38.4774 167.158C38.0141 167.235 37.8596 167.698 38.1685 168.007L40.022 169.784C40.0992 169.938 40.1765 170.093 40.1765 170.247L39.7131 172.718C39.6358 173.182 40.0992 173.49 40.4853 173.259L42.725 172.1C42.8794 172.023 43.0338 172.023 43.1883 172.1L45.4279 173.259C45.8141 173.49 46.2774 173.104 46.2002 172.718L45.7368 170.247C45.7368 170.093 45.7368 169.861 45.8913 169.784L47.6675 168.007C47.9764 167.698 47.8219 167.158 47.4358 167.158L44.8873 166.772C44.7329 166.772 44.5784 166.617 44.5012 166.463L43.42 164.223C43.1883 163.837 42.6477 163.837 42.4933 164.223Z" fill="white"/>
<path d="M250.694 61.2005L246.138 63.749C245.829 63.9807 245.443 63.9807 245.134 63.8262L240.423 61.5094C239.574 61.1233 238.647 61.8184 238.879 62.7451L239.883 67.8421C239.96 68.2282 239.883 68.5371 239.651 68.846L236.021 72.6302C235.326 73.248 235.789 74.3292 236.639 74.4837L241.89 75.0242C242.199 75.1015 242.508 75.2559 242.74 75.6421L245.211 80.1985C245.597 81.048 246.756 80.9707 247.142 80.1985L249.304 75.4104C249.459 75.1015 249.768 74.8698 250.077 74.7926L255.251 73.8658C256.178 73.7114 256.486 72.553 255.791 72.0124L251.93 68.4599C251.698 68.2282 251.544 67.8421 251.621 67.4559L252.316 62.2817C252.471 61.355 251.467 60.7372 250.694 61.2005Z" fill="#F7BA47"/>
<path d="M248.457 65.3707L246.217 66.6064C246.063 66.7608 245.909 66.7608 245.754 66.6836L243.437 65.5252C243.051 65.3707 242.665 65.6796 242.742 66.143L243.206 68.6143C243.283 68.7687 243.206 69.0005 243.128 69.0777L241.352 70.9311C241.043 71.24 241.198 71.7806 241.661 71.7806L244.21 72.0895C244.364 72.0895 244.518 72.244 244.596 72.3984L245.754 74.638C245.986 75.0242 246.526 74.9469 246.758 74.5608L247.762 72.244C247.839 72.0895 247.994 72.0123 248.148 71.9351L250.697 71.5489C251.083 71.4717 251.237 70.9311 250.928 70.6222L249.075 68.9232C248.92 68.7688 248.843 68.6143 248.92 68.4598L249.229 65.9113C249.307 65.5252 248.843 65.139 248.457 65.3707Z" fill="#BF771F"/>
</svg>
