<svg width="257" height="177" viewBox="0 0 257 177" fill="none" xmlns="http://www.w3.org/2000/svg">
<path fill-rule="evenodd" clip-rule="evenodd" d="M127.432 63.5323V122.169C127.432 144.923 121.831 158.284 109.229 166.627C98.6682 173.512 82.7401 176.196 66.2868 176.196C34.8196 176.196 15.313 161.493 7.76703 132.087H37.5229C41.8987 132.087 45.9829 133.954 49.0168 137.105C51.4089 139.497 54.2678 141.714 57.8268 143.114C67.6288 146.965 83.7319 145.507 89.333 137.513C92.0752 133.721 93.9422 127.77 93.8839 118.551V109.858C93.7089 110.15 93.4755 110.5 93.2421 110.792C93.0087 111.142 92.7559 111.511 92.4836 111.9C86.4936 120.302 78.6754 125.611 69.029 127.828C58.5853 130.22 48.2 129.345 37.9313 125.261C4.67476 111.9 -7.16922 68.8416 5.60828 37.4521C22.2949 -3.62256 74.0467 -7.12324 107.77 14.2309C121.773 23.1577 127.432 39.5526 127.432 63.5323ZM67.2203 99.531C68.1539 99.4532 69.0874 99.3365 70.0209 99.1809C70.9544 98.9864 71.8685 98.7725 72.7631 98.5391C76.9639 97.3139 80.873 95.2135 84.257 92.1795C86.5325 90.1375 88.3995 87.7453 89.7998 85.1782C89.8776 85.0615 89.9554 84.9253 90.0331 84.7698C96.3344 73.1008 94.4673 57.2894 88.2828 45.9705C81.3398 33.193 69.0874 30.8592 55.0846 34.4182C44.991 36.9854 37.6979 44.2201 35.1891 56.4725C34.664 58.9814 34.3722 61.7819 34.3139 64.8158C34.275 65.3215 34.2555 65.8271 34.2555 66.3328C34.2555 73.2175 35.0724 80.0438 38.6314 85.8199C44.8159 95.7386 56.2515 100.581 67.2203 99.531Z" fill="#3DBB4C"/>
<path d="M256.549 70.7671V111.842C256.724 125.494 253.457 139.206 246.339 150.583C230.819 175.379 197.096 181.33 170.607 172.345C164.014 170.07 157.83 166.744 152.579 162.193C152.345 161.999 152.112 161.785 151.879 161.552C142.31 152.975 136.184 141.248 133.442 128.587C132.741 125.203 132.216 121.76 131.983 118.318C131.905 117.462 131.866 116.607 131.866 115.751H131.75V71.5839L158.705 71.4089L232.219 70.8838L256.549 70.7671Z" fill="#F99300"/>
<path d="M256.549 66.0996L131.75 72.1675V76.6017H131.866C132.041 80.9192 132.566 85.2367 133.442 89.4375C136.184 102.098 142.31 113.826 151.879 122.461C152.112 122.655 152.345 122.85 152.579 123.044C157.83 127.595 164.014 130.921 170.607 133.196C197.096 142.181 230.819 136.23 246.339 111.433C253.457 100.056 256.724 86.3452 256.549 72.7509V72.6926V66.0996Z" fill="white"/>
<path d="M248.906 31.7344C231.052 -4.84777 174.166 -10.5072 147.794 19.8904C133.792 36.0519 128.832 60.0899 133.442 81.4441C136.184 94.1049 142.31 105.832 151.879 114.467C152.112 114.662 152.345 114.856 152.579 115.051C157.83 119.602 164.014 122.986 170.607 125.203C197.096 134.188 230.819 128.295 246.339 103.44C259.466 82.4943 259.583 53.672 248.906 31.7344Z" fill="#3578B9"/>
<path d="M94.059 88.7957L127.432 61.1986V2.38708C127.432 1.57026 126.732 0.870117 125.915 0.870117H108.003C100.302 0.870117 94.059 7.11302 94.059 14.7562V88.7957Z" fill="#3DBB4C"/>
<path d="M25.0371 43.5785L24.4536 42.3533L25.2121 41.1864C26.3012 39.4749 27.4097 37.8024 28.5377 36.1687L30.2297 33.7183L34.0222 37.4523L27.6042 48.8296L25.0371 43.5785Z" fill="#FA9400"/>
<path fill-rule="evenodd" clip-rule="evenodd" d="M34.0805 34.0099L34.3722 34.3016L37.1728 36.9855L35.2474 40.3111L33.2637 43.8118L32.0384 45.9706L27.4292 54.1389L23.2867 45.6789L23.17 45.4455C23.0533 45.1732 22.9367 44.9204 22.82 44.687L21.5947 42.1782L23.1117 39.8444C24.2202 38.094 25.3871 36.402 26.4957 34.7684L29.8213 29.9258L34.0805 34.0099ZM27.3125 42.5283C27.4681 42.8394 27.6237 43.17 27.7793 43.5201C28.8295 41.6142 29.8991 39.7277 30.9882 37.8607L30.6382 37.5689C29.5102 39.2026 28.4016 40.8557 27.3125 42.5283Z" fill="white"/>
<path d="M27.5459 51.6299C30.1131 53.2246 32.6608 54.8389 35.1891 56.4725C34.664 58.9813 34.3722 61.7819 34.3139 64.8158C31.455 60.0315 29.2379 55.5973 27.5459 51.6299Z" fill="black"/>
<path d="M126.674 79.1689C126.946 79.13 127.199 79.0911 127.432 79.0522V118.202C122.123 118.027 116.872 117.56 111.621 116.685C105.261 115.576 99.3683 114.117 93.8839 112.367V109.858C93.7089 110.15 93.4755 110.5 93.2421 110.792C93.0087 111.142 92.7559 111.511 92.4836 111.9C82.8567 108.633 74.4551 104.374 67.2203 99.5313C68.1539 99.4535 69.0874 99.3368 70.0209 99.1812C70.9544 98.9867 71.8685 98.7728 72.7631 98.5394C76.9639 97.3142 80.873 95.2137 84.257 92.1798C86.5325 90.1378 88.3995 87.7456 89.7998 85.1784C89.8776 85.0618 89.9553 84.9256 90.0331 84.77C97.793 86.9871 105.728 88.3874 114.013 88.9125C118.505 89.2042 122.531 86.287 124.398 82.4363C125.332 81.5027 126.149 80.4525 126.674 79.1689Z" fill="#2A8235"/>
<path d="M234.203 65.4576L232.219 70.8836L217.633 111.083C216.233 114.992 212.149 117.384 207.773 116.859C204.972 116.568 202.463 115.051 200.947 112.775L195.987 105.365C179.884 111.725 156.254 118.26 131.983 118.318C131.905 117.462 131.866 116.607 131.866 115.751H131.75V78.3518C141.727 76.5431 150.945 73.9759 158.705 71.4088C163.256 69.9501 167.223 68.4332 170.549 67.2079L166.348 60.9067C164.423 57.9895 164.423 54.4304 166.348 51.5715C168.273 48.771 171.657 47.254 175.275 47.6624H175.333L226.502 53.9637C229.302 54.3137 231.811 55.7724 233.27 57.9895C234.787 60.2649 235.137 62.9488 234.203 65.4576Z" fill="#214A73"/>
<path d="M220.084 36.052C218.392 34.0099 215.941 32.843 213.316 32.7846L165.006 32.5513H164.948C161.564 32.5513 158.588 34.4183 157.13 37.4522C155.613 40.5445 156.021 44.0452 158.18 46.6707L162.789 52.4468C149.486 59.9733 122.648 73.5676 96.4511 73.5676C75.1552 73.5676 49.5419 64.6992 29.763 40.5445L21.7698 39.7277C21.7698 39.7277 42.8906 104.49 113.721 108.458C143.01 110.033 172.591 97.8974 190.853 87.3953L196.337 94.2217C197.971 96.2637 200.48 97.489 203.105 97.489C207.248 97.489 210.748 94.6301 211.624 90.6043L221.776 43.3451C222.359 40.7779 221.717 38.094 220.084 36.052Z" fill="white"/>
<path d="M213.257 38.7942L164.948 38.5024C162.672 38.5024 161.389 41.128 162.847 42.9366L171.833 54.0805C155.321 64.3492 87.5244 101.573 40.3235 52.6802L30.1131 43.5784C28.9851 45.8344 27.8571 48.071 26.7291 50.2881C35.7142 65.9828 53.6261 88.6206 85.1906 98.7142C123.873 111.083 169.849 93.8133 192.253 79.5772L201.005 90.4293C202.464 92.238 205.322 91.5378 205.789 89.3207L215.941 42.0615C216.291 40.4278 215.008 38.7942 213.257 38.7942Z" fill="#FA9400"/>
<path d="M5.60828 37.4524C-7.16922 68.8419 4.67476 111.9 37.9313 125.261C44.3492 127.828 50.806 129.112 57.3017 129.112V98.8894C49.8336 97.1974 42.9489 92.7632 38.6314 85.8202C35.0724 80.044 34.2555 73.2177 34.2555 66.333C34.2555 48.0711 42.4822 37.6274 55.0846 34.4184C69.029 30.9178 81.1647 33.1932 88.1078 45.679V5.24606C56.5433 -4.61421 19.261 3.7291 5.60828 37.4524Z" fill="#3DBB4C"/>
</svg>
