<svg width="257" height="161" viewBox="0 0 257 161" fill="none" xmlns="http://www.w3.org/2000/svg">
<path d="M51.3613 102.489C51.3613 102.489 36.198 79.5501 30.5215 87.6372C24.845 95.6465 47.24 95.3355 51.3613 102.489Z" fill="#A34896"/>
<path d="M50.3489 102.334C50.3489 102.334 30.4422 91.4476 29.4313 99.4569C28.3427 107.544 44.5168 98.6793 50.3489 102.334Z" fill="#A34896"/>
<path d="M204.938 99.9235C204.938 99.9235 220.49 77.2952 226.011 85.4601C231.609 93.6249 209.214 92.8473 204.938 99.9235Z" fill="#A34896"/>
<path d="M206.027 99.8468C206.027 99.8468 226.09 89.2713 226.945 97.3584C227.878 105.446 211.859 96.3475 206.027 99.8468Z" fill="#A34896"/>
<path d="M51.7501 110.263C51.8278 114.462 48.6396 117.884 44.7516 117.961C40.8636 117.961 37.6754 114.618 37.5977 110.419C37.5977 106.22 40.7081 102.798 44.5961 102.798C48.5619 102.72 51.7501 106.142 51.7501 110.263Z" fill="#68BD9F"/>
<path d="M56.728 124.418C56.728 128.617 53.6176 132.038 49.7296 132.038C45.7638 132.116 42.5756 128.695 42.5756 124.573C42.4979 120.374 45.6083 116.953 49.5741 116.875C53.4621 116.875 56.6503 120.219 56.728 124.418Z" fill="#68BD9F"/>
<path d="M64.6577 136.238C64.6577 140.359 61.5473 143.859 57.6593 143.859C53.6935 143.859 50.5053 140.515 50.5053 136.316C50.4275 132.117 53.6157 128.695 57.5037 128.695C61.3918 128.695 64.5799 132.039 64.6577 136.238Z" fill="#68BD9F"/>
<path d="M77.8765 142.692C77.8765 146.814 74.7661 150.235 70.8003 150.313C66.9123 150.313 63.7241 146.969 63.7241 142.77C63.6463 138.571 66.7567 135.15 70.7225 135.15C74.6105 135.072 77.7987 138.493 77.8765 142.692Z" fill="#68BD9F"/>
<path d="M92.0288 145.025C92.0288 149.224 88.9184 152.645 85.0303 152.723C81.0646 152.723 77.8764 149.379 77.8764 145.18C77.7986 140.981 80.9868 137.56 84.8748 137.56C88.7628 137.482 91.951 140.904 92.0288 145.025Z" fill="#68BD9F"/>
<path d="M106.185 143.937C106.185 148.136 103.075 151.558 99.1866 151.558C95.2208 151.636 92.0326 148.214 92.0326 144.015C91.9549 139.894 95.1431 136.472 99.0311 136.395C102.919 136.395 106.107 139.738 106.185 143.937Z" fill="#68BD9F"/>
<path d="M119.244 137.951C119.244 142.15 116.133 145.571 112.245 145.649C108.357 145.649 105.091 142.305 105.091 138.106C105.013 133.907 108.202 130.486 112.09 130.486C115.978 130.408 119.166 133.829 119.244 137.951Z" fill="#68BD9F"/>
<path d="M130.056 128.304C130.056 132.426 126.946 135.925 122.98 135.925C119.092 135.925 115.904 132.581 115.904 128.382C115.826 124.183 118.936 120.762 122.902 120.762C126.79 120.762 129.978 124.105 130.056 128.304Z" fill="#68BD9F"/>
<path d="M205.48 108.864C205.558 113.063 208.746 116.407 212.634 116.407C216.6 116.329 219.711 112.908 219.633 108.786C219.633 104.587 216.445 101.166 212.557 101.243C208.591 101.243 205.48 104.665 205.48 108.864Z" fill="#68BD9F"/>
<path d="M200.816 123.097C200.894 127.296 204.082 130.639 207.97 130.562C211.936 130.562 215.047 127.14 214.969 122.941C214.969 118.742 211.781 115.398 207.815 115.398C203.927 115.476 200.816 118.898 200.816 123.097Z" fill="#68BD9F"/>
<path d="M193.117 134.992C193.195 139.191 196.383 142.612 200.271 142.534C204.159 142.534 207.347 139.113 207.27 134.914C207.27 130.715 204.004 127.371 200.116 127.371C196.228 127.449 193.117 130.87 193.117 134.992Z" fill="#68BD9F"/>
<path d="M180.056 141.683C180.056 145.882 183.244 149.304 187.21 149.226C191.098 149.226 194.208 145.804 194.208 141.605C194.131 137.406 190.943 134.062 187.055 134.062C183.166 134.14 179.978 137.562 180.056 141.683Z" fill="#68BD9F"/>
<path d="M165.902 144.401C165.98 148.523 169.168 151.944 173.056 151.866C176.944 151.866 180.133 148.445 180.055 144.246C180.055 140.047 176.789 136.703 172.901 136.703C169.013 136.781 165.902 140.202 165.902 144.401Z" fill="#68BD9F"/>
<path d="M151.75 143.472C151.828 147.671 155.016 151.015 158.904 151.015C162.792 151.015 165.98 147.516 165.902 143.394C165.902 139.195 162.636 135.852 158.748 135.852C154.86 135.852 151.75 139.273 151.75 143.472Z" fill="#68BD9F"/>
<path d="M138.531 137.79C138.609 141.989 141.797 145.333 145.685 145.333C149.651 145.255 152.761 141.833 152.684 137.634C152.684 133.513 149.495 130.092 145.53 130.169C141.642 130.169 138.531 133.591 138.531 137.79Z" fill="#68BD9F"/>
<path d="M127.566 128.305C127.644 132.504 130.832 135.848 134.72 135.848C138.686 135.77 141.797 132.349 141.719 128.15C141.719 123.951 138.531 120.607 134.643 120.685C130.677 120.685 127.566 124.106 127.566 128.305Z" fill="#68BD9F"/>
<path d="M125.389 92.1475C125.389 92.1475 120.567 64.6981 86.975 64.4648C86.975 64.4648 87.0528 73.0963 91.6406 76.8288C91.6406 76.8288 76.8661 68.3529 65.5909 73.2518C65.5909 73.2518 76.0108 82.272 76.3218 87.3264C76.3218 87.3264 57.6593 67.0309 33.3203 82.4275C33.3203 82.4275 46.2285 88.3373 47.9393 106.533C49.65 124.729 62.1694 146.813 93.2736 143.547C93.2736 143.547 129.354 141.137 125.389 92.1475Z" fill="#FF4B70"/>
<path d="M112.948 112.908C112.948 112.908 104.55 84.759 65.2812 99.9223C65.2812 99.9223 78.8115 140.902 112.948 112.908Z" fill="#331330"/>
<path d="M84.4851 125.975C84.6406 125.353 85.2627 124.964 85.8848 125.042C86.5069 125.198 86.9734 125.82 86.8179 126.442C86.7402 127.064 86.1181 127.53 85.496 127.375C85.4441 127.375 85.4182 127.375 85.4182 127.375C84.7961 127.219 84.4073 126.597 84.4851 125.975ZM81.919 126.442C81.2969 126.208 80.9081 125.586 81.1414 124.964C81.3747 124.342 81.9968 124.031 82.6189 124.187C83.2409 124.42 83.6297 125.12 83.3965 125.664C83.1632 126.286 82.5411 126.597 81.9968 126.442C81.9449 126.442 81.919 126.442 81.919 126.442ZM87.9843 126.597C88.0621 125.897 88.6064 125.431 89.2285 125.431C89.9283 125.509 90.3949 126.053 90.3949 126.675C90.3171 127.375 89.7728 127.841 89.1507 127.841C89.047 127.841 88.9693 127.815 88.9174 127.764C88.3731 127.686 87.9843 127.142 87.9843 126.597ZM78.4976 125.042C77.8755 124.731 77.6422 124.031 77.9532 123.409C78.2643 122.865 78.9641 122.631 79.5084 122.865C80.1305 123.176 80.3638 123.876 80.0528 124.498C79.8195 124.964 79.2752 125.198 78.7308 125.12C78.6272 125.068 78.5494 125.042 78.4976 125.042ZM91.5613 126.675C91.4835 126.053 91.9501 125.431 92.6499 125.353C93.272 125.353 93.8164 125.82 93.8941 126.442C93.9719 127.142 93.5053 127.686 92.8055 127.764C92.7018 127.764 92.5722 127.738 92.4167 127.686C91.9501 127.608 91.5613 127.219 91.5613 126.675ZM75.3094 123.176C74.765 122.787 74.6095 122.087 74.9983 121.543C75.3094 120.998 76.087 120.843 76.6313 121.232C77.1756 121.543 77.2534 122.32 76.9423 122.865C76.6313 123.254 76.1647 123.409 75.6982 123.331C75.5427 123.279 75.4131 123.228 75.3094 123.176ZM95.0605 126.286C94.905 125.664 95.3716 125.042 95.9936 124.887C96.6157 124.731 97.2378 125.198 97.3933 125.82C97.4711 126.442 97.0823 127.064 96.4602 127.219C96.3047 127.271 96.1232 127.271 95.9159 127.219C95.5271 127.064 95.1383 126.753 95.0605 126.286ZM72.3545 120.921C71.8879 120.532 71.8102 119.832 72.199 119.288C72.6655 118.821 73.3654 118.743 73.9097 119.132C74.3763 119.599 74.454 120.299 73.9874 120.843C73.7542 121.154 73.2876 121.31 72.821 121.232C72.6655 121.18 72.51 121.076 72.3545 120.921ZM98.5597 125.509C98.3265 124.886 98.6375 124.264 99.2596 124.031C99.8817 123.798 100.582 124.187 100.737 124.809C100.97 125.431 100.659 126.053 100.037 126.286H99.9594C99.7521 126.338 99.5447 126.338 99.3373 126.286C98.9485 126.208 98.6375 125.897 98.5597 125.509ZM69.7106 118.51C69.2441 118.044 69.2441 117.266 69.7106 116.799C70.1772 116.333 70.877 116.333 71.3436 116.799C71.8102 117.266 71.8102 118.044 71.3436 118.51C71.0326 118.821 70.6437 118.899 70.2549 118.821C70.0476 118.769 69.8661 118.666 69.7106 118.51ZM101.903 124.42C101.592 123.798 101.903 123.098 102.526 122.865C103.07 122.554 103.77 122.865 104.081 123.487C104.314 124.109 104.003 124.731 103.381 125.042C103.174 125.146 102.94 125.146 102.681 125.042C102.37 124.964 102.059 124.731 101.903 124.42ZM67.2223 115.789C66.8335 115.244 66.9112 114.544 67.3778 114.156C67.9221 113.689 68.622 113.767 69.0885 114.233C69.4773 114.778 69.3996 115.477 68.933 115.944C68.622 116.177 68.2332 116.255 67.8444 116.177C67.637 116.125 67.4297 115.996 67.2223 115.789ZM105.092 122.942C104.858 122.398 105.014 121.698 105.636 121.387C106.18 121.076 106.958 121.31 107.191 121.932C107.502 122.476 107.269 123.176 106.725 123.487C106.414 123.642 106.18 123.642 105.869 123.565C105.558 123.487 105.247 123.254 105.092 122.942ZM65.045 112.911C64.6562 112.367 64.734 111.667 65.2783 111.278C65.8226 110.89 66.6002 110.967 66.9113 111.512C67.3001 112.056 67.2223 112.834 66.678 113.145C66.3669 113.378 66.0559 113.456 65.6671 113.378C65.4079 113.326 65.2005 113.171 65.045 112.911ZM108.28 121.309C107.891 120.765 108.124 120.065 108.669 119.677C109.213 119.366 109.913 119.521 110.302 120.143C110.613 120.687 110.457 121.387 109.835 121.698C109.602 121.932 109.291 121.932 108.98 121.854C108.669 121.776 108.435 121.621 108.28 121.309ZM63.0232 109.879C62.7122 109.334 62.8677 108.635 63.412 108.246C63.9564 107.935 64.6562 108.09 65.045 108.635C65.356 109.179 65.2005 109.957 64.6562 110.268C64.3452 110.423 64.0341 110.501 63.7231 110.423C63.4898 110.345 63.1788 110.19 63.0232 109.879ZM111.235 119.443C110.924 118.899 111.001 118.199 111.546 117.81C112.09 117.499 112.868 117.577 113.256 118.121C113.568 118.666 113.412 119.443 112.868 119.754C112.634 119.988 112.246 120.065 111.935 119.988C111.701 119.91 111.468 119.754 111.235 119.443ZM61.2347 106.768C60.9237 106.146 61.0792 105.446 61.7013 105.135C62.2456 104.824 62.9455 105.058 63.2565 105.68C63.5675 106.224 63.412 106.924 62.79 107.235C62.5567 107.39 62.2456 107.39 62.0123 107.313C61.6235 107.235 61.3903 107.079 61.2347 106.768ZM114.19 117.499C113.801 116.955 113.879 116.177 114.423 115.789C114.967 115.4 115.667 115.555 116.056 116.022C116.445 116.566 116.367 117.344 115.823 117.733C115.512 117.888 115.2 117.966 114.812 117.888C114.552 117.836 114.345 117.707 114.19 117.499ZM59.6018 103.502C59.2907 102.958 59.6018 102.258 60.1461 101.947C60.7682 101.714 61.468 101.947 61.7013 102.569C62.0123 103.114 61.7791 103.813 61.157 104.124C60.8978 104.228 60.6386 104.254 60.3794 104.202C60.0683 104.124 59.7573 103.891 59.6018 103.502ZM116.989 115.322C116.6 114.855 116.678 114.078 117.144 113.689C117.196 113.637 117.222 113.611 117.222 113.611C117.326 113.508 117.481 113.43 117.689 113.378C118.311 113.145 118.933 113.533 119.166 114.156C119.322 114.622 119.088 115.166 118.7 115.477C118.7 115.477 118.674 115.477 118.622 115.477C118.389 115.711 118 115.789 117.611 115.711C117.352 115.659 117.144 115.529 116.989 115.322ZM58.1243 100.236C57.891 99.6144 58.2021 98.9145 58.8242 98.6812C59.4463 98.448 60.1461 98.759 60.3794 99.3811C60.6127 99.9254 60.3016 100.625 59.6795 100.859C59.4203 100.962 59.187 100.988 58.9797 100.936C58.5909 100.859 58.2798 100.547 58.1243 100.236ZM59.524 98.0592C59.2907 97.4371 59.6018 96.7372 60.2239 96.504C60.8459 96.2707 61.468 96.5817 61.7013 97.2038C61.9346 97.8259 61.6235 98.5257 61.0015 98.759C60.7941 98.8108 60.5608 98.8108 60.3016 98.759C59.9906 98.6812 59.6795 98.448 59.524 98.0592ZM115.589 111.745C115.278 111.123 115.511 110.423 116.134 110.19C116.678 109.879 117.378 110.112 117.689 110.656C118 111.278 117.767 111.978 117.144 112.289C116.911 112.367 116.6 112.445 116.367 112.367C116.056 112.289 115.745 112.056 115.589 111.745ZM62.8677 96.815C62.6344 96.1929 62.9455 95.5708 63.5676 95.3376C64.1896 95.182 64.8895 95.4931 65.045 96.1152C65.2783 96.7372 64.9672 97.3593 64.3452 97.5926C64.1378 97.6444 63.9304 97.6444 63.7231 97.5926C63.3343 97.5148 62.9455 97.2038 62.8677 96.815ZM113.879 108.79C113.567 108.246 113.723 107.468 114.267 107.157C114.812 106.768 115.512 106.924 115.9 107.468C116.289 108.012 116.056 108.79 115.512 109.101C115.278 109.334 114.889 109.334 114.656 109.257C114.345 109.179 114.112 109.023 113.879 108.79ZM66.2114 95.7264C66.0559 95.1043 66.3669 94.4822 66.989 94.3267C67.6111 94.0934 68.3109 94.4822 68.4665 95.1043C68.622 95.7264 68.3109 96.4262 67.6889 96.5817C67.4815 96.6335 67.2741 96.6335 67.0668 96.5817C66.678 96.5039 66.3669 96.1929 66.2114 95.7264ZM111.935 105.991C111.546 105.446 111.623 104.747 112.09 104.358C112.634 103.891 113.334 103.969 113.801 104.513C114.19 105.058 114.112 105.757 113.567 106.146C113.256 106.38 112.868 106.457 112.557 106.38C112.297 106.328 112.09 106.198 111.935 105.991ZM69.6329 94.7932C69.4774 94.1711 69.8661 93.5491 70.4882 93.3935C71.1103 93.238 71.7324 93.6268 71.8879 94.2489C72.0434 94.871 71.6546 95.5708 71.0325 95.7264C70.877 95.7264 70.6956 95.7004 70.4882 95.6486C70.0994 95.5708 69.7106 95.2598 69.6329 94.7932ZM73.0543 94.0156C72.9766 93.3935 73.3654 92.7715 73.9874 92.6159C74.6873 92.5382 75.3094 92.927 75.3871 93.5491C75.5427 94.2489 75.0761 94.871 74.454 94.9488C74.2985 95.0006 74.143 95.0006 73.9874 94.9488C73.5209 94.871 73.1321 94.4822 73.0543 94.0156ZM109.679 103.425C109.213 102.958 109.213 102.258 109.679 101.792C110.146 101.325 110.846 101.325 111.312 101.792C111.779 102.258 111.779 102.958 111.312 103.425C111.001 103.736 110.613 103.813 110.224 103.736C110.016 103.684 109.835 103.58 109.679 103.425ZM76.5535 93.3935C76.4758 92.7715 76.9423 92.1494 77.5644 92.0716C78.1865 91.9938 78.8086 92.4604 78.8864 93.0825C78.9641 93.7046 78.4975 94.3267 77.8755 94.4044C77.7199 94.4044 77.5644 94.4044 77.4089 94.4044C77.0201 94.2489 76.6313 93.8601 76.5535 93.3935ZM107.113 101.17C106.647 100.703 106.569 100.003 106.958 99.4588C107.347 98.9923 108.124 98.9145 108.591 99.3033C109.135 99.6921 109.213 100.47 108.824 101.014C108.513 101.325 108.047 101.481 107.58 101.403C107.424 101.351 107.269 101.273 107.113 101.17ZM80.0528 93.0047C80.0528 92.3049 80.5193 91.7606 81.1414 91.6828C81.8412 91.6828 82.3856 92.1494 82.3856 92.7715C82.4633 93.4713 81.9968 94.0156 81.2969 94.0934C81.1933 94.0934 81.0896 94.0675 80.9859 94.0156C80.5193 93.9379 80.1305 93.4713 80.0528 93.0047ZM104.392 99.1478C103.847 98.8367 103.692 98.0592 104.003 97.5148C104.392 96.9705 105.092 96.815 105.636 97.2038C106.18 97.5148 106.336 98.2924 106.025 98.8368C105.714 99.2256 105.169 99.4588 104.703 99.3033C104.599 99.3033 104.495 99.2515 104.392 99.1478ZM83.6297 92.7715C83.6297 92.0716 84.0963 91.6051 84.7961 91.6051C85.4182 91.5273 85.9626 92.0716 85.9626 92.7715C85.9626 93.3936 85.4182 93.9379 84.7961 93.9379C84.6925 93.9379 84.5888 93.9119 84.4851 93.8601C84.0185 93.7823 83.6297 93.3158 83.6297 92.7715ZM101.359 97.5148C101.359 97.5148 101.385 97.5148 101.437 97.5148C100.815 97.2038 100.582 96.504 100.893 95.8819C101.126 95.3376 101.826 95.1043 102.448 95.3376C102.992 95.6486 103.303 96.3484 102.992 96.9705C102.759 97.4371 102.137 97.6703 101.67 97.5926C101.566 97.5407 101.463 97.5148 101.359 97.5148ZM87.129 92.7715C87.2067 92.1494 87.751 91.6828 88.3731 91.6828C89.073 91.7606 89.5395 92.3049 89.4618 92.927C89.4618 93.6268 88.8397 94.0934 88.2176 94.0156C88.1658 94.0156 88.1139 94.0156 88.0621 94.0156C87.5178 93.8601 87.129 93.3936 87.129 92.7715ZM98.2487 96.1152C97.6266 95.9596 97.3156 95.2598 97.5489 94.6377C97.7821 94.0156 98.482 93.7046 99.1041 93.9379C99.7261 94.1712 100.037 94.871 99.8039 95.4153C99.5706 96.0374 98.9485 96.3484 98.4042 96.1929C98.3524 96.1929 98.3005 96.167 98.2487 96.1152ZM90.6282 93.0825C90.7837 92.4604 91.4058 91.9938 92.0279 92.1493C92.6499 92.2271 93.1165 92.8492 92.961 93.4713C92.8832 94.0934 92.2611 94.5599 91.6391 94.4822C91.5872 94.4303 91.5613 94.4044 91.5613 94.4044C90.9392 94.2489 90.5504 93.7046 90.6282 93.0825ZM94.9828 95.1043C94.3607 94.9488 93.9719 94.3266 94.1274 93.7046C94.2829 93.0825 94.9828 92.6937 95.6048 92.8492C96.2269 93.0047 96.6157 93.6268 96.4602 94.3267C96.3047 94.9488 95.6048 95.2598 94.9828 95.1043Z" fill="white"/>
<path d="M117.534 87.1704C117.534 87.1704 98.8715 64.7754 95.5278 71.074C92.1064 77.2948 114.968 83.9822 117.534 87.1704Z" fill="#68BD9F"/>
<path d="M91.3312 86.9377C91.3312 86.9377 78.112 70.9968 75.7014 75.5069C73.2908 79.9392 89.465 84.6826 91.3312 86.9377Z" fill="white"/>
<path d="M64.5817 90.1262C64.5817 90.1262 47.0079 79.3175 46.1525 84.2942C45.2971 89.2709 62.1712 88.571 64.5817 90.1262Z" fill="white"/>
<path d="M95.4492 135.074C98.3264 134.763 101.126 134.53 103.77 133.83C106.336 133.13 108.824 131.964 110.612 130.175C111.546 129.32 112.09 128.231 111.934 127.376C111.779 126.365 111.157 125.898 109.913 126.054C109.291 126.132 108.591 126.287 108.046 126.52C107.424 126.676 106.958 126.987 106.647 127.453C106.569 127.609 106.491 127.92 106.491 128.153C106.491 128.387 106.569 128.698 106.724 128.853C106.958 129.009 107.269 129.086 107.58 129.009C107.891 129.009 108.202 128.775 108.28 128.387C108.28 128.775 108.046 129.164 107.658 129.32C107.269 129.553 106.88 129.553 106.413 129.397C105.947 129.164 105.714 128.775 105.636 128.309C105.48 127.842 105.558 127.376 105.714 126.987C105.791 126.598 106.102 126.132 106.413 125.898C106.724 125.587 107.113 125.354 107.424 125.198C107.813 124.965 108.124 124.81 108.513 124.732C108.824 124.576 109.187 124.447 109.602 124.343C110.016 124.239 110.457 124.188 110.924 124.188C111.39 124.265 111.857 124.343 112.323 124.576C112.79 124.887 113.179 125.198 113.412 125.665C113.671 126.08 113.853 126.52 113.956 126.987C114.06 127.453 114.086 127.92 114.034 128.387C113.982 128.853 113.853 129.294 113.645 129.709C113.256 130.486 112.712 131.186 112.168 131.73C109.99 133.908 107.036 135.074 104.081 135.541C101.126 135.929 98.2486 135.618 95.4492 135.074Z" fill="white"/>
<path d="M106.027 87.8694C106.027 87.4806 106.338 87.2473 106.649 87.0918C107.038 87.014 107.426 87.0918 107.815 87.3251C108.126 87.4806 108.36 87.8694 108.515 88.1805C108.619 88.5433 108.697 88.9063 108.748 89.2691C108.8 89.632 108.826 89.9949 108.826 90.3577C108.748 90.7466 108.671 91.1354 108.437 91.5242C108.049 92.3018 107.349 92.8461 106.571 93.0794C105.871 93.3904 105.016 93.3904 104.16 93.2349C103.383 93.0016 102.683 92.6128 102.061 92.1462C101.517 91.6797 101.05 91.0576 100.584 90.5133C100.195 89.8912 99.8837 89.2691 99.6504 88.647C99.1061 87.4028 98.7173 86.3142 98.0952 85.2256C97.836 84.7072 97.5249 84.1888 97.1621 83.6704C96.851 83.2038 96.4622 82.6595 96.1512 82.2707C95.7624 81.8819 95.3736 81.5709 94.9848 81.4931C94.596 81.4153 94.1294 81.4931 93.8184 81.8041C93.7147 81.9078 93.6628 82.0892 93.6628 82.3484C93.6628 82.5817 93.7406 82.815 93.8961 83.0483C94.2072 83.5926 94.6737 84.0592 94.9848 84.6035C94.5182 84.2147 93.9739 83.9037 93.4296 83.4371C93.1963 83.2038 92.8852 82.8928 92.8075 82.504C92.652 82.1152 92.7297 81.5708 92.963 81.182C93.1185 80.7932 93.5073 80.4822 93.8961 80.3267C94.259 80.1193 94.6737 80.0156 95.1403 80.0156C96.0734 80.0934 96.7733 80.5599 97.3176 81.0265C97.8619 81.4931 98.3285 82.0374 98.7173 82.5817C99.1838 83.1001 99.5726 83.6445 99.8837 84.2147C100.247 84.7849 100.584 85.3811 100.895 86.0032L101.672 87.7917C102.139 88.8803 102.683 89.8912 103.461 90.591C103.824 90.9539 104.238 91.2131 104.705 91.3686C105.094 91.5241 105.638 91.5242 106.105 91.4464C106.571 91.3687 106.96 91.1354 107.193 90.7466C107.504 90.4355 107.66 89.8912 107.66 89.2691C107.737 88.7248 107.737 88.1805 107.426 87.7917C107.271 87.5584 107.038 87.4806 106.727 87.4806C106.416 87.4028 106.104 87.5584 106.027 87.8694Z" fill="#68BD9F"/>
<path d="M52.6055 96.582C55.016 99.6924 56.8045 103.347 57.8154 107.313C58.9041 111.201 58.7485 115.322 59.7594 118.899C59.9668 119.781 60.2778 120.61 60.6926 121.388C60.7962 121.595 60.9258 121.776 61.0814 121.932C61.1591 122.165 61.3146 122.321 61.3924 122.476C61.6516 122.787 61.9367 123.072 62.2478 123.332C62.8698 123.876 63.6475 124.187 64.1918 124.109C64.8139 124.031 65.2804 123.643 65.5137 122.865C65.747 122.087 65.8247 121.232 65.5915 120.377C65.5396 120.014 65.3841 119.677 65.1249 119.366C65.0212 119.21 64.8916 119.081 64.7361 118.977C64.5806 118.873 64.4251 118.796 64.2695 118.744C63.4919 118.51 62.5588 118.822 62.3255 119.521C62.17 119.91 62.2478 120.377 62.481 120.843C62.6366 121.232 62.9476 121.699 63.2586 122.087C62.8698 121.776 62.481 121.388 62.17 120.999C61.859 120.61 61.6257 120.066 61.7034 119.444C61.7812 118.822 62.17 118.277 62.7143 118.044C63.1809 117.733 63.803 117.577 64.425 117.655C64.7361 117.707 65.0471 117.811 65.3582 117.966C65.6174 118.07 65.8507 118.251 66.058 118.51C66.5246 118.899 66.7579 119.444 66.9911 119.988C67.1985 120.506 67.3022 121.051 67.3022 121.621C67.354 122.191 67.3022 122.761 67.1467 123.332C67.0689 123.954 66.7579 124.498 66.2913 125.042C65.8247 125.509 65.2027 125.898 64.5028 126.053C63.803 126.131 63.1809 126.053 62.5588 125.82C61.9886 125.664 61.4702 125.405 61.0036 125.042C60.537 124.679 60.1223 124.265 59.7594 123.798C59.5261 123.565 59.3706 123.332 59.2151 123.098C59.0596 122.891 58.93 122.684 58.8263 122.476C58.282 121.465 57.8932 120.454 57.6599 119.444C57.0378 117.422 56.8823 115.4 56.7268 113.456C56.6749 112.471 56.6231 111.486 56.5713 110.501C56.4676 109.568 56.338 108.609 56.1825 107.624C55.4826 103.892 54.2384 100.159 52.6055 96.582Z" fill="#68BD9F"/>
<path d="M72.4333 128.849C72.8221 128.616 73.0554 128.149 73.0554 127.761C73.0554 127.372 72.8221 126.983 72.5111 126.75C72.2778 126.516 71.889 126.283 71.5002 126.128C71.0336 125.972 70.6448 125.894 70.256 125.894C69.945 125.817 69.7117 125.972 69.4784 126.205C69.2451 126.361 69.0896 126.672 69.0119 126.983C68.9341 127.372 68.9341 127.605 69.0119 127.994C69.1156 128.305 69.2711 128.616 69.4784 128.927C69.945 129.549 70.5671 130.093 71.2669 130.56C71.9408 131.027 72.6666 131.415 73.4442 131.726C74.9994 132.348 76.7101 132.737 78.4209 132.815C81.8423 133.048 85.4193 132.348 88.9963 131.804C92.5733 131.26 96.228 130.793 99.8827 130.482C96.3835 131.649 92.8843 132.582 89.3073 133.515C87.5966 133.904 85.8081 134.37 83.9419 134.681C82.0756 134.992 80.2094 135.148 78.2654 134.992C76.3213 134.915 74.3773 134.448 72.5888 133.67C71.7335 133.204 70.8781 132.737 70.1005 132.115C69.3229 131.493 68.6231 130.793 68.0787 129.86C67.7677 129.394 67.5344 128.849 67.4567 128.305C67.3789 127.761 67.3789 127.061 67.6122 126.516C67.8455 125.972 68.2343 125.506 68.7008 125.194C69.1674 124.806 69.8672 124.65 70.4116 124.806C70.9559 124.883 71.4224 125.117 71.8112 125.35C72.2778 125.583 72.6666 125.894 72.9776 126.361C73.1332 126.568 73.2628 126.802 73.3664 127.061C73.4183 127.32 73.4183 127.579 73.3664 127.838C73.3146 128.098 73.2109 128.305 73.0554 128.46C72.8221 128.694 72.6666 128.771 72.4333 128.849Z" fill="#68BD9F"/>
<path d="M131.532 92.1478C131.532 92.1478 135.887 64.5429 169.479 63.6875C169.479 63.6875 169.557 72.3189 165.047 76.1292C165.047 76.1292 179.588 67.42 191.019 72.0856C191.019 72.0856 180.755 81.3391 180.521 86.3935C180.521 86.3935 198.795 65.7093 223.445 80.6393C223.445 80.6393 210.615 86.8601 209.293 105.056C207.893 123.252 195.762 145.647 164.658 142.848C164.658 142.848 128.5 141.215 131.532 92.1478Z" fill="#FF4B70"/>
<path d="M144.363 112.598C144.363 112.598 152.217 84.2927 191.797 98.7561C191.797 98.7561 179.044 139.969 144.363 112.598Z" fill="#331330"/>
<path d="M157.579 125.742C156.957 125.587 156.646 124.887 156.801 124.265C157.035 123.643 157.657 123.332 158.279 123.487C158.901 123.643 159.29 124.342 159.056 124.965C158.901 125.587 158.279 125.898 157.657 125.742C157.657 125.742 157.631 125.742 157.579 125.742ZM160.223 125.276C160.378 124.576 161 124.187 161.623 124.265C162.245 124.42 162.633 125.042 162.556 125.664C162.4 126.287 161.778 126.753 161.156 126.598C161.156 126.598 161.13 126.598 161.078 126.598C160.534 126.442 160.145 125.898 160.223 125.276ZM154.158 124.576C153.535 124.342 153.302 123.643 153.535 123.021C153.769 122.398 154.469 122.165 155.013 122.398C155.635 122.632 155.946 123.332 155.713 123.876C155.479 124.42 154.857 124.731 154.313 124.576C154.261 124.576 154.209 124.576 154.158 124.576ZM163.722 125.82C163.722 125.198 164.344 124.654 164.966 124.731C165.588 124.731 166.133 125.353 166.055 125.975C166.055 126.598 165.433 127.142 164.811 127.064C164.759 127.064 164.681 127.064 164.577 127.064C164.033 126.909 163.644 126.442 163.722 125.82ZM150.892 123.098C150.27 122.787 150.036 122.087 150.347 121.543C150.581 120.921 151.28 120.688 151.903 120.999C152.447 121.232 152.68 121.932 152.447 122.554C152.214 123.098 151.591 123.332 151.125 123.176C151.021 123.176 150.943 123.15 150.892 123.098ZM167.221 125.975C167.221 125.353 167.688 124.809 168.31 124.731C169.01 124.654 169.554 125.198 169.554 125.82C169.632 126.442 169.165 127.064 168.465 127.064C168.362 127.064 168.258 127.064 168.154 127.064C167.61 126.909 167.299 126.52 167.221 125.975ZM147.703 121.388C147.081 121.077 146.926 120.377 147.237 119.755C147.548 119.21 148.248 119.055 148.87 119.366C149.414 119.677 149.57 120.377 149.259 120.999C149.025 121.465 148.481 121.621 147.937 121.543C147.833 121.491 147.755 121.439 147.703 121.388ZM170.721 125.664C170.643 125.042 171.032 124.42 171.654 124.265C172.276 124.109 172.898 124.576 173.053 125.198C173.209 125.82 172.82 126.442 172.12 126.598C171.965 126.598 171.809 126.598 171.654 126.598C171.187 126.442 170.876 126.131 170.721 125.664ZM144.593 119.521C144.049 119.133 143.893 118.433 144.204 117.888C144.593 117.344 145.293 117.189 145.837 117.577C146.382 117.888 146.537 118.666 146.226 119.21C145.915 119.599 145.448 119.755 144.982 119.677C144.826 119.625 144.697 119.573 144.593 119.521ZM141.638 117.5C141.094 117.111 140.938 116.333 141.327 115.867C141.716 115.322 142.494 115.167 143.038 115.556C143.504 115.944 143.66 116.722 143.271 117.189C142.96 117.655 142.494 117.811 142.027 117.655C141.871 117.655 141.742 117.603 141.638 117.5ZM174.22 124.887C173.986 124.265 174.298 123.565 174.92 123.332C175.542 123.098 176.164 123.409 176.397 124.031C176.63 124.654 176.319 125.353 175.697 125.587C175.49 125.638 175.257 125.638 174.997 125.587C174.686 125.509 174.298 125.276 174.22 124.887ZM138.761 115.322C138.761 115.322 138.735 115.296 138.683 115.245C138.294 115.011 138.061 114.467 138.217 114C138.372 113.378 139.072 112.989 139.694 113.145C139.85 113.197 140.005 113.301 140.161 113.456C140.161 113.456 140.187 113.456 140.238 113.456C140.705 113.845 140.783 114.622 140.394 115.167C140.083 115.478 139.616 115.633 139.228 115.556C139.072 115.504 138.917 115.426 138.761 115.322ZM177.486 123.565C177.175 123.021 177.408 122.321 177.952 122.01C178.574 121.699 179.274 121.932 179.585 122.476C179.896 123.098 179.663 123.798 179.041 124.109C178.808 124.187 178.497 124.265 178.263 124.187C177.952 124.109 177.641 123.876 177.486 123.565ZM180.596 121.854C180.207 121.31 180.363 120.61 180.907 120.221C181.451 119.832 182.151 119.988 182.54 120.532C182.929 121.077 182.773 121.776 182.229 122.165C181.918 122.399 181.607 122.399 181.296 122.321C180.985 122.321 180.752 122.087 180.596 121.854ZM140.161 112.056C139.539 111.745 139.305 111.045 139.616 110.501C139.85 109.879 140.55 109.646 141.172 109.957C141.716 110.19 142.027 110.89 141.716 111.512C141.483 111.979 140.938 112.29 140.394 112.134C140.29 112.134 140.213 112.108 140.161 112.056ZM183.473 119.832C183.007 119.288 183.084 118.588 183.551 118.122C184.095 117.733 184.795 117.733 185.262 118.277C185.651 118.744 185.573 119.521 185.106 119.91C184.795 120.143 184.406 120.221 184.095 120.143C183.836 120.092 183.629 119.988 183.473 119.832ZM141.716 108.868C141.172 108.557 141.016 107.78 141.327 107.235C141.716 106.691 142.416 106.535 142.96 106.846C143.504 107.235 143.66 107.935 143.349 108.479C143.038 108.946 142.571 109.101 142.105 109.024C141.949 108.972 141.82 108.92 141.716 108.868ZM186.117 117.422C185.651 116.955 185.573 116.255 186.039 115.789C186.506 115.322 187.206 115.245 187.75 115.711C188.217 116.178 188.217 116.877 187.75 117.422C187.439 117.733 186.972 117.811 186.584 117.733C186.428 117.681 186.273 117.577 186.117 117.422ZM143.66 105.913C143.116 105.524 143.038 104.747 143.427 104.203C143.815 103.736 144.593 103.658 145.06 104.047C145.604 104.436 145.682 105.136 145.293 105.68C144.982 106.069 144.515 106.224 144.049 106.069C143.893 106.069 143.764 106.017 143.66 105.913ZM188.45 114.856C187.983 114.389 187.906 113.689 188.294 113.145C188.683 112.678 189.461 112.601 189.927 112.99C190.472 113.378 190.549 114.156 190.161 114.622C189.85 115.011 189.383 115.167 188.916 115.011C188.761 115.011 188.605 114.959 188.45 114.856ZM145.837 103.114C145.371 102.647 145.371 101.947 145.837 101.481C146.226 101.014 147.004 100.937 147.47 101.403C147.937 101.87 147.937 102.647 147.548 103.114C147.237 103.425 146.77 103.503 146.382 103.425C146.174 103.373 145.993 103.269 145.837 103.114ZM190.627 112.056C190.161 111.668 190.005 110.89 190.316 110.423H190.394C190.705 109.879 191.483 109.724 192.027 110.112C192.571 110.423 192.649 111.201 192.338 111.745C192.027 112.134 191.483 112.29 191.016 112.212C190.912 112.16 190.783 112.108 190.627 112.056ZM148.326 100.626C147.937 100.081 148.015 99.3814 148.481 98.9148C148.948 98.526 149.725 98.6038 150.114 99.0704C150.581 99.6147 150.503 100.315 150.036 100.781C149.725 101.014 149.336 101.092 148.948 101.014C148.714 100.937 148.481 100.781 148.326 100.626ZM192.649 109.101C192.105 108.713 191.871 108.013 192.26 107.468C192.571 106.924 193.271 106.691 193.815 107.08C194.437 107.391 194.593 108.091 194.282 108.635C193.971 109.101 193.427 109.335 192.96 109.179C192.856 109.179 192.753 109.153 192.649 109.101ZM151.125 98.3705C150.736 97.8262 150.892 97.1264 151.436 96.7376C151.98 96.3488 152.68 96.5043 153.069 97.0486C153.38 97.5929 153.302 98.3705 152.758 98.6816C152.447 98.9149 152.136 98.9149 151.825 98.8371C151.514 98.8371 151.28 98.6038 151.125 98.3705ZM154.08 96.5043C153.769 95.8822 154.002 95.1823 154.546 94.8713C155.168 94.5603 155.868 94.7935 156.179 95.4156C156.49 95.9599 156.257 96.6598 155.635 96.9708C155.376 97.1264 155.117 97.1523 154.857 97.0486C154.546 96.9709 154.235 96.8153 154.08 96.5043ZM194.437 105.991C193.815 105.68 193.582 104.98 193.893 104.436C194.204 103.814 194.904 103.58 195.526 103.892C196.07 104.203 196.304 104.902 195.993 105.524C195.759 105.991 195.215 106.224 194.671 106.147C194.567 106.095 194.489 106.043 194.437 105.991ZM157.268 94.9491C157.035 94.327 157.268 93.6272 157.89 93.3939C158.512 93.1606 159.212 93.4716 159.445 94.0937C159.679 94.638 159.368 95.3379 158.745 95.5712C158.538 95.6748 158.305 95.7007 158.046 95.6489C157.735 95.5711 157.424 95.2601 157.268 94.9491ZM160.534 93.7049C160.378 93.0828 160.767 92.383 161.389 92.2275C162.011 92.0719 162.633 92.4607 162.867 93.0828C163.022 93.7049 162.633 94.327 162.011 94.4825C161.804 94.5343 161.597 94.5603 161.389 94.5603C161 94.4048 160.689 94.0937 160.534 93.7049ZM195.993 102.881C195.448 102.57 195.137 101.87 195.448 101.325C195.682 100.703 196.381 100.392 197.004 100.703C197.548 100.937 197.859 101.636 197.548 102.259C197.315 102.803 196.77 103.036 196.226 102.881C196.122 102.881 196.045 102.881 195.993 102.881ZM163.955 92.7718C163.878 92.1497 164.266 91.5276 164.966 91.4499C165.588 91.2943 166.21 91.7609 166.288 92.383C166.444 93.0051 165.977 93.6272 165.355 93.7827C165.2 93.7827 165.044 93.7827 164.889 93.7827C164.422 93.6272 164.033 93.3161 163.955 92.7718ZM167.455 92.2275C167.377 91.6054 167.843 90.9833 168.543 90.9833C169.165 90.9055 169.787 91.3721 169.787 91.9942C169.865 92.694 169.399 93.2383 168.777 93.3161C168.621 93.3161 168.491 93.3161 168.388 93.3161C167.921 93.1606 167.532 92.7718 167.455 92.2275ZM197.392 99.6147C196.848 99.3814 196.537 98.6816 196.693 98.0595C196.926 97.4374 197.626 97.1264 198.248 97.3596C198.87 97.5929 199.181 98.2928 198.948 98.9148C198.714 99.4592 198.092 99.7702 197.548 99.6147C197.496 99.6147 197.444 99.6147 197.392 99.6147ZM170.954 91.9942C170.954 91.2944 171.498 90.75 172.12 90.75C172.82 90.75 173.364 91.2943 173.364 91.9164C173.364 92.6162 172.82 93.0828 172.198 93.1606C172.094 93.1606 171.991 93.1347 171.887 93.0828C171.343 93.0051 171.032 92.5385 170.954 91.9942ZM174.531 91.9164C174.531 91.2943 175.075 90.8278 175.775 90.8278C176.397 90.9055 176.941 91.4499 176.864 92.0719C176.864 92.694 176.319 93.2384 175.619 93.1606C175.568 93.1606 175.49 93.1606 175.386 93.1606C174.842 93.0051 174.453 92.5385 174.531 91.9164ZM178.03 92.1497C178.108 91.5276 178.73 91.061 179.352 91.1388C179.974 91.2166 180.441 91.7609 180.363 92.4607C180.285 93.0828 179.741 93.5494 179.119 93.4716C179.067 93.4716 179.015 93.4716 178.963 93.4716C178.341 93.3161 177.952 92.7718 178.03 92.1497ZM195.993 97.5152C195.371 97.2819 195.06 96.582 195.293 95.96C195.526 95.3379 196.148 95.0268 196.77 95.2601C197.392 95.4934 197.703 96.1155 197.548 96.7376C197.315 97.3596 196.693 97.6707 196.148 97.5152C196.096 97.5152 196.045 97.5152 195.993 97.5152ZM181.529 92.6163C181.685 91.9942 182.307 91.5276 182.929 91.6054C183.551 91.7609 184.018 92.383 183.862 93.0051C183.784 93.6272 183.162 94.0937 182.54 93.9382C182.488 93.9382 182.462 93.9382 182.462 93.9382C181.84 93.7827 181.451 93.2384 181.529 92.6163ZM192.649 96.4265C192.027 96.1932 191.716 95.5712 191.871 94.9491C192.105 94.327 192.727 93.9382 193.349 94.1715C193.971 94.327 194.36 95.0268 194.126 95.6489C193.971 96.1932 193.349 96.582 192.727 96.4265C192.727 96.4265 192.701 96.4265 192.649 96.4265ZM185.028 93.2383C185.184 92.6163 185.806 92.1497 186.428 92.3052C187.05 92.4607 187.517 93.0828 187.361 93.7049C187.206 94.327 186.584 94.7935 185.962 94.638C185.962 94.638 185.936 94.638 185.884 94.638C185.262 94.4825 184.873 93.8604 185.028 93.2383ZM189.305 95.4156C188.683 95.2601 188.294 94.638 188.528 94.0159C188.683 93.3939 189.305 93.0051 189.927 93.1606C190.549 93.3161 190.938 93.9382 190.783 94.638C190.627 95.2601 190.005 95.5711 189.383 95.4156C189.331 95.4156 189.305 95.4156 189.305 95.4156Z" fill="white"/>
<path d="M139.309 87.0139C139.309 87.0139 157.582 64.2302 161.082 70.451C164.581 76.6718 141.875 83.748 139.309 87.0139Z" fill="#68BD9F"/>
<path d="M165.512 86.2374C165.512 86.2374 178.498 70.0632 180.986 74.4956C183.474 78.9279 167.3 83.9046 165.512 86.2374Z" fill="white"/>
<path d="M192.262 88.9607C192.262 88.9607 209.68 77.7632 210.691 82.7399C211.624 87.7165 194.75 87.4055 192.262 88.9607Z" fill="white"/>
<path d="M159.759 133.436C156.882 132.892 154.16 132.503 151.516 131.57C149.028 130.715 146.617 129.393 144.907 127.449C144.129 126.516 143.662 125.505 143.818 124.572C144.129 123.639 144.673 123.172 145.917 123.405C146.54 123.561 147.239 123.794 147.784 123.95C148.328 124.183 148.872 124.572 149.106 125.038C149.183 125.272 149.261 125.505 149.261 125.738C149.183 126.049 149.106 126.282 148.95 126.438C148.717 126.593 148.406 126.671 148.095 126.516C147.784 126.516 147.473 126.282 147.473 125.894C147.317 126.282 147.628 126.671 147.939 126.827C148.328 127.06 148.717 127.138 149.183 126.982C149.65 126.827 149.961 126.36 150.039 125.971C150.194 125.505 150.194 125.038 150.117 124.649C149.961 124.183 149.728 123.794 149.417 123.483C149.183 123.172 148.795 122.939 148.484 122.705C148.095 122.472 147.784 122.317 147.473 122.161C147.11 122.006 146.747 121.876 146.384 121.772C145.969 121.617 145.529 121.539 145.062 121.539C144.596 121.539 144.129 121.617 143.662 121.772C143.196 122.006 142.729 122.394 142.496 122.783C142.185 123.146 141.952 123.561 141.796 124.027C141.692 124.494 141.641 124.961 141.641 125.427C141.692 125.894 141.796 126.334 141.952 126.749C142.263 127.604 142.729 128.304 143.274 128.926C145.373 131.259 148.25 132.659 151.127 133.281C154.005 133.825 156.882 133.825 159.759 133.436Z" fill="white"/>
<path d="M150.897 87.4042C150.897 87.0931 150.508 86.7821 150.197 86.7043C149.808 86.6265 149.42 86.7043 149.109 86.9376C148.72 87.1709 148.486 87.4819 148.409 87.8707C148.253 88.2336 148.175 88.5706 148.175 88.8816C148.124 89.2445 148.098 89.6074 148.098 89.9702C148.175 90.359 148.253 90.7478 148.486 91.1366C148.875 91.9142 149.653 92.3808 150.353 92.6919C151.13 92.9251 151.986 93.0029 152.841 92.7696C153.619 92.5364 154.318 92.1475 154.863 91.681C155.407 91.1367 155.874 90.5923 156.34 89.9702C156.729 89.3482 156.962 88.7261 157.273 88.104C157.74 86.8599 158.129 85.7712 158.751 84.6825C159.01 84.1641 159.295 83.6457 159.606 83.1273C159.917 82.583 160.306 82.1165 160.617 81.7277C161.006 81.2611 161.395 80.95 161.783 80.8723C162.172 80.7945 162.639 80.8723 162.95 81.1833C163.054 81.287 163.131 81.4685 163.183 81.7277C163.183 81.8832 163.028 82.1942 162.872 82.4275C162.561 82.9718 162.095 83.4384 161.861 83.9827C162.328 83.5939 162.872 83.2828 163.339 82.8163C163.65 82.583 163.883 82.272 163.961 81.8832C164.116 81.4166 164.039 80.9501 163.805 80.5612C163.572 80.1724 163.261 79.8614 162.872 79.7059C162.457 79.4985 162.043 79.4207 161.628 79.4726C160.695 79.5503 159.995 79.9391 159.451 80.4835C158.829 80.95 158.44 81.4943 158.051 82.0387C157.636 82.5571 157.247 83.1014 156.885 83.6717C156.522 84.2937 156.211 84.8899 155.951 85.4601L155.252 87.2486C154.785 88.415 154.241 89.3482 153.463 90.1258C153.1 90.4887 152.686 90.7479 152.219 90.9034C151.83 91.0589 151.364 91.1367 150.897 91.0589C150.43 90.9034 149.964 90.6701 149.731 90.359C149.42 90.048 149.264 89.5037 149.186 88.8816C149.109 88.3373 149.186 87.793 149.497 87.4042C149.575 87.1709 149.886 87.0931 150.119 87.0931C150.43 87.0153 150.742 87.1709 150.897 87.4042Z" fill="#68BD9F"/>
<path d="M204.472 95.1797C202.061 98.2901 200.351 102.023 199.417 105.988C198.329 109.954 198.562 114.075 197.707 117.575C197.448 118.508 197.136 119.363 196.774 120.141C196.67 120.348 196.566 120.53 196.463 120.685C196.307 120.918 196.229 121.074 196.074 121.229C195.866 121.592 195.607 121.903 195.296 122.163C194.674 122.629 193.896 122.94 193.352 122.94C192.73 122.862 192.263 122.474 191.952 121.696C191.719 120.996 191.641 120.063 191.875 119.208C191.927 118.845 192.082 118.508 192.341 118.197C192.445 118.041 192.575 117.886 192.73 117.73C192.834 117.627 192.989 117.549 193.197 117.497C193.896 117.341 194.907 117.575 195.141 118.352C195.296 118.741 195.218 119.208 194.985 119.596C194.83 120.063 194.519 120.452 194.285 120.841C194.674 120.53 194.985 120.219 195.296 119.752C195.607 119.363 195.84 118.819 195.763 118.197C195.685 117.575 195.218 117.03 194.752 116.797C194.208 116.486 193.585 116.408 192.963 116.486C192.652 116.486 192.367 116.59 192.108 116.797C191.849 116.953 191.616 117.134 191.408 117.341C190.942 117.73 190.631 118.275 190.475 118.819C190.268 119.389 190.164 119.959 190.164 120.53C190.112 121.048 190.164 121.618 190.319 122.24C190.475 122.785 190.786 123.407 191.253 123.873C191.719 124.34 192.341 124.729 193.041 124.806C193.741 124.962 194.441 124.806 194.985 124.651C195.555 124.444 196.074 124.158 196.54 123.796C197.007 123.433 197.422 123.018 197.784 122.551C198.018 122.318 198.096 122.085 198.251 121.851C198.407 121.644 198.562 121.411 198.718 121.152C199.184 120.219 199.573 119.13 199.806 118.119C200.351 116.097 200.428 114.075 200.584 112.131C200.636 111.146 200.688 110.162 200.739 109.177C200.843 108.243 200.947 107.284 201.05 106.299C201.673 102.489 202.839 98.7567 204.472 95.1797Z" fill="#68BD9F"/>
<path d="M185.188 127.761C184.799 127.605 184.566 127.139 184.566 126.75C184.566 126.361 184.721 125.972 185.032 125.739C185.343 125.428 185.732 125.272 186.121 125.117C186.51 124.961 186.898 124.806 187.287 124.806C187.598 124.806 187.909 124.884 188.143 125.039C188.376 125.272 188.531 125.584 188.609 125.895C188.687 126.206 188.687 126.517 188.609 126.828C188.505 127.191 188.35 127.528 188.143 127.839C187.676 128.461 187.054 129.005 186.432 129.472C185.758 129.99 185.032 130.405 184.255 130.716C182.699 131.416 180.989 131.727 179.278 131.882C175.856 132.193 172.279 131.493 168.703 131.027C165.048 130.56 161.471 130.171 157.738 129.938C161.237 131.027 164.814 131.96 168.391 132.737C170.18 133.126 171.968 133.515 173.835 133.826C175.623 134.059 177.567 134.215 179.511 134.059C181.377 133.904 183.321 133.437 185.11 132.582C185.965 132.193 186.821 131.649 187.598 131.027C188.376 130.405 189.076 129.627 189.62 128.694C189.853 128.227 190.087 127.761 190.164 127.139C190.242 126.594 190.164 125.972 189.931 125.428C189.698 124.884 189.387 124.417 188.842 124.028C188.376 123.717 187.676 123.562 187.132 123.717C186.587 123.873 186.121 124.106 185.732 124.339C185.343 124.573 184.877 124.884 184.566 125.35C184.41 125.558 184.306 125.791 184.255 126.05C184.203 126.309 184.203 126.568 184.255 126.828C184.306 127.035 184.41 127.242 184.566 127.45C184.799 127.605 184.954 127.761 185.188 127.761Z" fill="#68BD9F"/>
<path d="M45.5279 110.73C45.2947 111.741 44.2838 112.363 43.2729 112.129C42.262 111.896 41.6399 110.885 41.8732 109.874C42.1065 108.864 43.1174 108.241 44.1282 108.475C45.1391 108.708 45.7612 109.719 45.5279 110.73Z" fill="white"/>
<path d="M50.7389 125.117C50.5056 126.205 49.4947 126.827 48.4838 126.516C47.4729 126.283 46.8508 125.272 47.0841 124.261C47.3174 123.25 48.3283 122.628 49.3392 122.861C50.3501 123.095 50.9721 124.106 50.7389 125.117Z" fill="white"/>
<path d="M58.7504 138.261C58.5172 139.272 57.5063 139.894 56.4954 139.661C55.4067 139.427 54.7847 138.417 55.0957 137.406C55.329 136.395 56.3399 135.773 57.3508 136.006C58.3616 136.239 58.9837 137.25 58.7504 138.261Z" fill="white"/>
<path d="M72.2001 146.89C71.9668 147.901 70.8781 148.523 69.8673 148.29C68.8564 148.056 68.2343 147.046 68.5453 146.035C68.7786 145.024 69.7895 144.402 70.8004 144.635C71.8113 144.868 72.4333 145.879 72.2001 146.89Z" fill="white"/>
<path d="M87.6766 149.222C87.4433 150.233 86.4325 150.855 85.3438 150.622C84.3329 150.388 83.7108 149.378 84.0219 148.367C84.2552 147.356 85.2661 146.734 86.2769 146.967C87.2878 147.2 87.9099 148.211 87.6766 149.222Z" fill="white"/>
<path d="M101.516 148.21C101.283 149.221 100.272 149.843 99.2612 149.61C98.2503 149.377 97.6282 148.366 97.8615 147.355C98.0948 146.344 99.1056 145.722 100.117 145.955C101.127 146.189 101.75 147.199 101.516 148.21Z" fill="white"/>
<path d="M115.356 139.425C115.045 140.436 114.034 141.058 113.023 140.825C112.012 140.592 111.39 139.581 111.623 138.57C111.934 137.559 112.945 136.937 113.956 137.17C114.967 137.403 115.589 138.414 115.356 139.425Z" fill="white"/>
<path d="M122.977 132.116C122.744 133.127 121.655 133.749 120.645 133.438C119.634 133.205 119.012 132.194 119.323 131.183C119.556 130.172 120.567 129.55 121.578 129.783C122.589 130.017 123.211 131.105 122.977 132.116Z" fill="white"/>
<path d="M138.84 132.581C138.607 133.592 137.596 134.214 136.585 133.981C135.575 133.67 134.952 132.659 135.186 131.648C135.419 130.637 136.508 130.015 137.519 130.248C138.529 130.559 139.151 131.57 138.84 132.581Z" fill="white"/>
<path d="M146.462 141.214C146.228 142.225 145.217 142.847 144.206 142.614C143.196 142.381 142.574 141.37 142.807 140.359C143.04 139.348 144.051 138.726 145.062 138.959C146.15 139.192 146.773 140.203 146.462 141.214Z" fill="white"/>
<path d="M160.845 146.191C160.611 147.202 159.523 147.824 158.512 147.591C157.501 147.357 156.879 146.269 157.19 145.258C157.423 144.247 158.434 143.625 159.445 143.936C160.456 144.169 161.078 145.18 160.845 146.191Z" fill="white"/>
<path d="M175.387 148.293C175.154 149.303 174.143 149.926 173.132 149.692C172.121 149.459 171.499 148.37 171.733 147.359C171.966 146.349 172.977 145.726 173.988 146.038C174.998 146.271 175.621 147.282 175.387 148.293Z" fill="white"/>
<path d="M189.462 144.402C189.228 145.413 188.217 146.035 187.206 145.801C186.196 145.568 185.574 144.557 185.807 143.546C186.04 142.535 187.051 141.913 188.062 142.147C189.073 142.38 189.695 143.391 189.462 144.402Z" fill="white"/>
<path d="M203.071 136.546C202.76 137.557 201.749 138.179 200.738 137.946C199.727 137.713 199.105 136.702 199.338 135.691C199.649 134.68 200.66 134.058 201.671 134.291C202.682 134.524 203.304 135.535 203.071 136.546Z" fill="white"/>
<path d="M212.012 123.718C211.779 124.729 210.768 125.351 209.757 125.04C208.746 124.806 208.124 123.795 208.358 122.785C208.591 121.774 209.602 121.152 210.613 121.385C211.623 121.618 212.246 122.629 212.012 123.718Z" fill="white"/>
<path d="M216.133 108.632C215.9 109.643 214.889 110.265 213.878 110.032C212.867 109.799 212.245 108.788 212.479 107.777C212.712 106.766 213.801 106.144 214.811 106.377C215.822 106.61 216.444 107.621 216.133 108.632Z" fill="white"/>
<path d="M145.009 86.3148L134.488 86.7892L145.149 82.0924C145.185 78.9198 145.043 75.5009 144.722 71.8358C141.323 33.811 143.042 10.0785 145.491 4.89967C147.933 -0.271393 125.25 30.965 122.365 45.4362L128.229 49.783L118.967 50.9494L128.33 54.5885L119.107 57.349C119.107 57.349 98.5552 112.551 130.421 120.498C130.421 120.498 143.485 112.644 145.009 86.3148Z" fill="black"/>
<path d="M144.985 86.3147L134.487 86.7813L145.14 82.1157C145.192 78.9535 145.063 75.532 144.752 71.8513C141.33 33.8265 143.041 10.1096 145.451 4.89963C147.94 -0.310314 125.234 30.9493 122.357 45.4128L128.189 49.7673L118.935 50.9338L128.344 54.5885L119.091 57.3879C119.091 57.3879 98.5618 112.52 130.444 120.529C130.444 120.529 143.507 112.676 144.985 86.3147Z" fill="#F7BA47"/>
<path opacity="0.15" d="M129.899 114.464C129.899 105.055 129.354 95.646 129.665 86.237C129.976 76.9058 130.832 67.5745 132.154 58.321C134.642 41.2137 138.686 24.573 144.44 8.32106C144.803 6.81769 145.14 5.67724 145.451 4.89963C147.939 -0.310314 125.233 30.9493 122.356 45.4128L128.188 49.7673L118.934 50.9338L128.343 54.5885L119.09 57.3879C119.09 57.3879 98.7944 111.82 129.821 120.296C129.873 118.378 129.899 116.434 129.899 114.464Z" fill="#223147"/>
<path d="M130.988 65.5556L131.066 66.0999C131.144 66.0999 141.953 64.8557 147.396 58.6349L146.929 58.2461C141.719 64.3114 131.144 65.5556 130.988 65.5556Z" fill="#BF771F"/>
<path d="M147.708 91.2907L147.241 90.9019C141.254 98.2114 129.279 96.1119 129.123 96.0341V96.4229C128.968 84.059 129.823 72.3172 131.301 61.5862C133.089 61.1197 143.431 58.3981 147.941 50.311L147.397 50C143.198 57.6205 133.556 60.4199 131.378 60.9642C136.2 25.2721 147.319 0.622102 147.475 0.311061L146.93 0C146.775 0.311042 139.388 16.7963 134.022 42.2239C129.046 39.8134 123.991 28.5381 123.991 28.3825L123.447 28.6159C123.602 29.1602 128.657 40.4354 133.867 42.7682C131.767 53.0326 129.979 64.6967 129.046 77.2939C121.736 76.2052 114.815 66.6407 114.738 66.4851L114.271 66.8739C114.504 67.2627 120.492 75.4276 127.335 77.5271C127.905 77.6827 128.475 77.8123 129.046 77.9159C128.423 87.2472 128.268 97.2005 128.89 107.387C123.369 108.009 110.072 99.1445 109.917 99.0668L109.605 99.5333C110.072 99.8444 118.47 105.443 124.847 107.387C126.402 107.854 127.801 108.087 128.968 108.009C129.227 112.156 129.616 116.33 130.134 120.529L130.756 120.451C129.668 112.364 129.201 104.355 129.123 96.6562C129.901 96.8117 141.643 98.6002 147.708 91.2907Z" fill="#BF771F"/>
<path d="M137.985 124.343C136.818 129.008 132.075 131.885 127.409 130.719C122.744 129.63 119.867 124.887 121.033 120.221C122.122 115.478 126.865 112.601 131.531 113.767C136.274 114.934 139.151 119.677 137.985 124.343Z" fill="#A34896"/>
<path opacity="0.33" d="M135.419 120.298C134.953 122.398 132.853 123.642 130.754 123.175C128.654 122.631 127.332 120.531 127.877 118.432C128.343 116.332 130.443 115.088 132.542 115.555C134.642 116.099 135.964 118.199 135.419 120.298Z" fill="white"/>
<path d="M44.8284 160.03C44.7506 160.263 44.4396 160.418 44.2063 160.341C38.9964 158.397 28.732 148.365 28.3432 147.977C28.1877 147.743 28.1877 147.51 28.3432 147.277C28.4987 147.121 28.8098 147.121 28.9653 147.277C29.043 147.432 39.4629 157.619 44.5174 159.485C44.7507 159.563 44.9062 159.796 44.8284 160.03Z" fill="#FEB847"/>
<path d="M31.9974 150.079C28.1872 151.246 20.7999 151.557 16.9119 150.935C14.8902 150.546 12.6351 149.846 11.5465 148.058C10.4578 146.269 11.3132 143.314 13.4127 143.236C10.7689 140.8 8.15091 138.389 5.5589 136.005C4.62578 135.149 3.69265 134.294 3.22609 133.128C2.68177 131.961 2.83729 130.484 3.77042 129.706C4.70354 128.929 6.56979 129.317 6.72531 130.562C3.69265 126.518 1.51536 121.775 0.426715 116.876C0.115674 115.632 -0.0398457 114.232 0.737758 113.221C1.4376 112.21 3.45937 112.288 3.61489 113.532C4.08145 110.81 3.53713 108.089 3.22609 105.289C2.99281 102.568 3.14833 99.6129 4.7813 97.4356C6.49203 95.2583 10.1468 94.4029 12.013 96.5025C12.8684 97.4356 13.1794 98.8353 13.4127 100.157C14.0866 103.527 14.7605 106.922 15.4345 110.344C15.7455 108.866 16.0566 107.389 16.9897 106.223C17.845 105.056 19.478 104.279 20.7999 104.823C22.5884 105.523 22.9772 107.778 23.055 109.644C23.2883 114.465 22.9772 119.286 22.2774 124.03C22.6662 122.474 23.1328 120.841 24.2214 119.675C25.31 118.509 27.3318 117.964 28.576 118.975C29.3536 119.597 29.6646 120.608 29.8979 121.541C30.831 125.352 30.5978 129.473 29.3536 133.205C29.9757 131.883 30.6755 130.639 31.7642 129.706C32.8528 128.851 34.5635 128.54 35.7299 129.317C36.6631 129.939 37.0519 131.106 37.2074 132.194C38.5293 138.493 35.9632 145.025 31.9974 150.079Z" fill="#FEB847"/>
<path opacity="0.49" d="M12.5586 119.443C13.1807 117.344 16.1356 106.846 17.7685 103.425L17.2242 103.191C15.669 106.38 13.1807 115.167 12.2476 118.432C12.1439 118.07 12.0143 117.681 11.8588 117.266C10.6146 112.911 10.0703 108.324 10.3035 103.736C10.3035 103.191 9.44818 103.191 9.44818 103.736C9.13713 108.79 9.91474 113.845 11.3922 118.588C8.35953 115.944 1.59437 111.279 1.28333 111.045L0.894531 111.59C0.972292 111.59 9.52594 117.422 11.781 119.754C12.6104 122.295 13.5954 124.757 14.7359 127.142C15.7209 129.215 16.7836 131.237 17.9241 133.207C13.6472 131.574 1.7499 127.919 1.20557 127.764L1.05006 128.308C1.20558 128.386 14.9692 132.585 18.4684 134.062C20.4383 137.38 22.6156 140.516 25.0003 143.471C21.2678 142.694 9.44818 142.694 8.90386 142.694V143.316C9.05938 143.316 22.2009 143.238 25.2335 144.171L25.5446 144.249V144.171C26.7887 145.675 28.0848 147.126 29.4326 148.526C32.9318 152.18 36.8198 155.446 40.8634 158.401C41.3299 158.79 41.7965 158.013 41.3299 157.701C35.6534 153.425 30.3657 148.604 25.8556 143.16C26.6332 140.361 29.4326 131.03 33.3206 127.375L32.9318 126.908C30.91 128.775 28.966 132.196 27.1776 137.095C26.3222 139.272 25.7001 141.372 25.3891 142.616C24.6115 141.631 23.8339 140.62 23.0562 139.583C21.7084 137.717 20.4383 135.773 19.246 133.751C19.6348 131.963 22.6674 120.454 25.8556 116.177L25.3891 115.789C22.3564 119.91 19.557 130.097 18.7794 133.051C16.2133 128.775 14.1138 124.187 12.5586 119.443Z" fill="#E0BC91"/>
<path d="M211.548 157.155C211.625 157.388 211.936 157.543 212.17 157.466C217.38 155.522 227.566 145.491 228.033 145.102C228.188 144.946 228.188 144.635 228.033 144.48C227.877 144.246 227.566 144.246 227.411 144.48C227.333 144.557 216.913 154.744 211.859 156.61C211.625 156.688 211.47 156.921 211.548 157.155Z" fill="#FEB847"/>
<path d="M224.378 147.28C228.188 148.368 235.497 148.68 239.463 148.057C241.485 147.746 243.74 146.969 244.829 145.258C245.917 143.47 245.062 140.437 242.962 140.359C245.554 137.974 248.172 135.564 250.816 133.127C251.749 132.272 252.682 131.417 253.149 130.25C253.616 129.162 253.538 127.606 252.605 126.829C251.672 126.051 249.805 126.518 249.65 127.762C252.682 123.641 254.86 118.975 255.948 113.998C256.182 112.754 256.415 111.355 255.637 110.344C254.86 109.333 252.916 109.411 252.682 110.655C252.294 107.933 252.838 105.211 253.071 102.49C253.382 99.6905 253.227 96.7356 251.516 94.5583C249.883 92.381 246.228 91.6034 244.362 93.6251C243.507 94.636 243.196 95.958 242.962 97.2799C242.288 100.65 241.615 104.045 240.941 107.466C240.63 106.067 240.319 104.512 239.385 103.345C238.53 102.179 236.897 101.401 235.497 102.023C233.787 102.645 233.398 104.9 233.32 106.767C233.087 111.588 233.32 116.409 234.098 121.152C233.631 119.675 233.242 118.042 232.154 116.876C230.987 115.709 229.043 115.165 227.799 116.098C227.022 116.72 226.71 117.731 226.477 118.664C225.544 122.552 225.777 126.596 227.022 130.328C226.399 129.084 225.7 127.762 224.611 126.907C223.445 125.973 221.812 125.662 220.645 126.44C219.712 127.062 219.323 128.229 219.09 129.317C217.768 135.616 220.412 142.148 224.378 147.28Z" fill="#FEB847"/>
<path opacity="0.49" d="M243.82 116.642C243.198 114.465 240.243 104.045 238.61 100.624L239.154 100.312C240.632 103.501 243.198 112.288 244.131 115.554C244.235 115.191 244.338 114.828 244.442 114.465C245.686 110.033 246.308 105.445 246.075 100.857C245.997 100.313 246.93 100.313 246.93 100.857C247.164 105.989 246.464 110.966 244.986 115.787C248.019 113.065 254.784 108.4 255.095 108.244L255.484 108.711C255.329 108.788 246.853 114.543 244.598 116.953C243.768 119.442 242.783 121.904 241.643 124.34C240.606 126.414 239.517 128.436 238.377 130.406C242.731 128.695 254.551 125.04 255.173 124.885L255.329 125.507C255.173 125.507 241.332 129.706 237.91 131.183C235.94 134.501 233.763 137.663 231.378 140.67C235.111 139.815 246.93 139.893 247.475 139.893V140.437C247.319 140.437 234.178 140.437 231.145 141.292L230.834 141.448L230.756 141.37C229.564 142.822 228.294 144.247 226.946 145.647C223.447 149.302 219.559 152.568 215.515 155.6C215.049 155.911 214.582 155.134 215.049 154.823C220.725 150.624 226.013 145.802 230.523 140.281C229.745 137.482 226.946 128.151 223.058 124.496L223.447 124.107C225.391 125.896 227.335 129.317 229.201 134.216C229.979 136.471 230.601 138.493 230.99 139.737C231.767 138.752 232.545 137.741 233.322 136.704C234.67 134.838 235.94 132.92 237.133 130.95C236.666 129.084 233.711 117.653 230.523 113.298L230.99 112.987C234.022 117.109 236.822 127.218 237.599 130.173C240.088 125.896 242.265 121.308 243.82 116.642Z" fill="#BF771F"/>
</svg>
