<svg width="204" height="256" viewBox="0 0 204 256" fill="none" xmlns="http://www.w3.org/2000/svg">
<path d="M8.2713 70.1211C8.2713 70.1211 3.42439 74.1602 1.40485 82.6423C1.16251 83.3693 7.22114 90.0742 7.22114 90.0742C7.22114 90.0742 0.677816 86.5198 0.597034 87.2468C0.435471 89.751 0.435461 92.4168 0.83937 95.4058C1.00093 96.2944 20.5501 107.927 20.5501 107.927C20.5501 107.927 1.56641 99.5256 1.72797 100.172C3.98986 109.462 9.5638 120.933 21.1156 134.746L33.1521 136.685L22.7312 136.766C22.7312 136.766 38.5644 154.134 56.9827 147.914C56.9827 147.914 54.3976 152.922 46.481 153.569C46.481 153.569 55.6094 154.942 61.0217 151.307" fill="#00ACC1"/>
<path d="M8.1875 70.2001C8.1875 70.2001 13.7614 67.292 22.4051 68.6653C23.1321 68.8269 27.0097 76.9858 27.0097 76.9858C27.0097 76.9858 26.2018 69.5539 26.9289 69.7962C29.2715 70.5233 31.7758 71.6542 34.3608 73.1891C35.1686 73.593 38.3191 96.2118 38.3191 96.2118C38.3191 96.2118 37.9152 75.451 38.3999 75.8549C41.2272 77.8744 44.0546 80.4594 47.0435 83.6907C47.3666 84.0946 48.5784 89.9917 48.5784 89.9917C48.5784 89.9917 49.4669 86.4373 50.1132 87.2451C54.3138 92.4151 58.5953 98.8776 62.7959 107.117L59.8878 118.912L64.0077 109.379C64.0077 109.379 73.863 130.706 61.0187 145.246C61.0187 145.246 66.6735 144.842 70.2279 137.734C70.2279 137.734 68.0468 146.7 62.5536 150.336C62.5536 150.336 67.8044 148.074 68.7738 146.297C68.7738 146.297 66.108 150.982 63.0383 150.901" fill="#00ACC1"/>
<path d="M10.8555 73.6758L83.8821 187.336L86.3864 185.478L10.8555 73.6758Z" fill="#06314F"/>
<path d="M134.05 23.5925L132.192 32.0746L104.968 142.665C97.0519 140.807 90.5085 131.517 90.2662 131.113C97.6981 137.979 104.565 135.96 104.565 135.96C82.9151 124.327 85.1769 94.7612 85.1769 94.7612L94.3053 104.293L85.6616 91.4491C88.4082 68.8302 94.2245 53.7241 100.849 43.6264C101.252 42.8993 109.896 67.6993 109.896 67.6993C109.896 67.6993 103.676 39.5873 104.403 38.6987C106.826 35.7097 109.331 33.3671 111.754 31.4283C112.562 30.8628 114.905 39.9104 114.905 39.9104C114.905 39.9104 115.874 28.601 116.682 28.1163C125.487 23.1078 132.838 23.5117 134.05 23.5925Z" fill="#7CB342"/>
<path d="M155.053 56.3885C155.619 60.7507 155.699 65.6784 155.296 71.1715C155.215 71.8178 150.772 78.038 150.772 78.038C150.772 78.038 154.811 75.7761 154.649 77.0686C153.518 85.3891 151.176 95.0021 147.298 105.988L133.888 113.582L146.248 109.139C146.248 109.139 135.1 136.605 110.543 137.413C110.543 137.413 115.793 142.259 125.487 139.432C125.487 139.432 115.309 145.087 107.23 143.229L132.192 32.0732L134.212 23.6719C135.423 24.1566 142.128 27.0647 147.783 35.3852C148.348 36.2738 144.228 46.5331 144.067 46.8562C144.309 46.6139 150.287 39.7474 150.691 40.636C152.064 43.3826 153.195 46.6139 154.003 50.3298C154.326 51.4608 136.716 73.1911 136.15 73.9181C136.716 73.3526 154.972 55.5807 155.053 56.3885Z" fill="#7CB342"/>
<path d="M134.207 23.6706L132.188 32.0719L134.045 23.5898C134.045 23.6437 134.072 23.6437 134.126 23.5898C134.18 23.6437 134.207 23.6706 134.207 23.6706Z" fill="#7E976F"/>
<path d="M107.228 143.23C107.713 143.392 113.691 145.977 116.114 145.492C115.064 145.735 109.409 146.785 107.066 144.119L107.228 143.23Z" fill="#7E976F"/>
<path d="M134.207 23.6706L132.188 32.0719L134.045 23.5898C134.045 23.6437 134.072 23.6437 134.126 23.5898C134.126 23.6437 134.153 23.6706 134.207 23.6706Z" fill="#7E976F"/>
<path d="M133.242 29.0859L91.5586 194.931L95.3553 195.658L133.242 29.0859Z" fill="#06314F"/>
<path d="M59.8911 0.0823437C59.8911 0.0823437 41.3113 -0.644692 51.1667 25.6094C51.1667 25.6094 48.824 26.0941 47.0468 19.3892C47.0468 19.3892 42.3614 34.8185 53.7517 50.894C53.7517 50.894 46.4813 48.7129 44.9465 38.5344C44.9465 38.5344 42.0383 58.2452 55.2865 69.9585C55.2865 69.9585 51.8129 72.0588 49.7126 65.5155C47.6122 59.053 52.2168 96.3741 60.3758 102.998L68.5347 112.369L59.4064 105.664C59.4064 105.664 61.4259 120.205 74.5934 126.263L64.6572 122.709C64.6572 122.709 69.9888 133.291 74.9973 131.918C73.2201 133.211 72.0083 135.149 71.1197 137.33C73.3008 134.745 75.8051 132.645 78.7132 131.433C78.7132 131.433 85.9836 132.968 88.8917 127.394C88.8917 127.394 84.1256 130.222 81.4598 129.899C85.1758 127.798 88.3801 125.079 91.0728 121.74C91.0728 121.74 87.8415 123.678 83.7217 124.486C83.7217 124.486 93.2539 114.469 90.265 104.695L82.7523 114.227C82.7523 114.227 85.9028 109.218 88.5686 104.048C91.1536 99.2015 92.0422 93.7083 91.1536 88.296L84.2064 45.4009C84.2064 45.4009 82.1868 52.9136 78.6324 54.8523C78.067 55.0947 76.1282 55.5794 76.1282 55.5794C76.1282 55.5794 83.8832 47.9051 83.237 40.6348C82.6715 33.3644 77.2591 15.1885 73.7047 11.311C73.7047 11.311 70.0696 32.0719 66.9999 32.395C66.9999 32.395 74.0279 5.65628 67.9692 1.69798C65.465 0.405471 62.7992 -0.240783 59.8911 0.0823437Z" fill="#FDD835"/>
<path d="M59.7305 16.1602L85.5806 179.582L88.8926 174.896L59.7305 16.1602Z" fill="#06314F"/>
<path d="M199.16 60.7502C199.16 60.7502 187.931 48.229 177.107 71.171C177.107 71.171 175.329 69.8785 178.561 64.5469C178.561 64.5469 165.555 71.2518 162.324 88.7006C162.324 88.7006 159.173 82.642 164.828 75.2909C164.828 75.2909 150.206 85.7925 151.014 101.706C151.014 101.706 147.46 100.899 150.287 95.4055C153.195 89.9124 131.95 116.409 132.757 125.86L131.869 137.008L130.415 126.91C130.415 126.91 122.256 137.331 126.618 149.691L122.66 141.047C122.66 141.047 119.186 151.145 123.225 153.488C121.286 153.164 119.267 153.649 117.328 154.376C120.398 154.215 123.225 154.538 125.891 155.588C125.891 155.588 129.445 161.323 134.939 159.708C134.939 159.708 130.092 158.334 128.557 156.476C132.327 157.554 136.123 157.904 139.947 157.527C139.947 157.527 136.635 156.638 133.484 154.538C133.484 154.538 146.006 154.376 150.529 146.298L139.543 147.429C139.543 147.429 144.794 146.298 149.883 144.763C154.568 143.39 158.769 140.482 161.677 136.523L185.104 105.019C185.104 105.019 178.965 108.411 175.491 107.361C174.925 107.2 173.391 106.23 173.391 106.23C173.391 106.23 183.246 106.392 187.527 101.383C191.89 96.4557 200.291 81.5111 200.533 76.7449C200.533 76.7449 184.781 87.4889 182.681 85.7117C182.681 85.7117 204.411 73.4329 203.118 67.0511C202.472 64.5469 201.18 62.4466 199.16 60.7502Z" fill="#00ACC1"/>
<path d="M188.657 70.7656L99.0703 190.403L104.16 189.596L188.657 70.7656Z" fill="#06314F"/>
<path fill-rule="evenodd" clip-rule="evenodd" d="M114.984 234.107L105.856 245.012L96.6465 255.998L87.3567 245.012L78.1475 234.026C78.1475 234.026 -8.93513 253.898 4.31307 156.233C4.31307 156.233 7.2212 183.537 23.943 168.593C23.943 168.593 39.6955 153.89 53.186 153.89C53.186 153.89 65.0609 153.083 73.9469 163.18C75.5625 157.768 80.571 153.89 86.3873 153.89C90.5072 153.89 94.1423 155.829 96.5658 158.737C98.9892 155.829 102.624 153.89 106.744 153.89C112.641 153.89 117.569 157.768 119.185 163.18C128.151 153.083 139.946 153.89 139.946 153.89C153.436 153.89 169.189 168.593 169.189 168.593C185.91 183.537 188.818 156.233 188.818 156.233C202.067 253.898 114.984 234.107 114.984 234.107ZM83.3176 211.084C83.3176 211.084 75.401 194.685 59.7293 187.819C44.0577 180.952 26.6088 186.284 26.6088 186.284C26.6088 186.284 34.5254 202.763 50.1971 209.549C65.8687 216.415 83.3176 211.084 83.3176 211.084ZM166.442 186.284C166.442 186.284 148.993 180.952 133.321 187.819C117.65 194.685 109.733 211.084 109.733 211.084C109.733 211.084 127.182 216.415 142.854 209.549C158.525 202.763 166.442 186.284 166.442 186.284Z" fill="#06314F"/>
<path d="M109.734 211.083C109.734 211.083 125.568 176.024 166.443 186.283C166.443 186.283 122.983 164.23 109.734 211.083Z" fill="#EEE8E1"/>
<path d="M108.441 202.766C108.441 202.766 110.218 173.927 141.642 170.292C141.642 170.292 105.21 166.414 108.441 202.766Z" fill="#FDD835"/>
<path d="M83.3181 211.083C83.3181 211.083 67.4849 176.024 26.6094 186.283C26.6094 186.283 70.0699 164.23 83.3181 211.083Z" fill="#EEE8E1"/>
<path d="M84.6075 202.766C84.6075 202.766 82.8303 173.927 51.4062 170.292C51.4062 170.292 87.8388 166.414 84.6075 202.766Z" fill="#FDD835"/>
<path d="M9.88658 184.506C9.40189 184.506 8.99798 184.264 8.59407 183.941C8.27094 183.618 8.10938 183.133 8.10938 182.648C8.10938 182.164 8.27094 181.76 8.59407 181.356C9.32111 180.71 10.5328 180.71 11.1791 181.356C11.5022 181.76 11.7446 182.164 11.7446 182.648C11.7446 183.133 11.5022 183.618 11.1791 183.941C10.856 184.264 10.3713 184.506 9.88658 184.506Z" fill="#FDD835"/>
<path d="M65.1426 225.787C65.1426 224.817 65.8697 224.009 66.9198 223.929C67.8892 223.929 68.697 224.656 68.7778 225.706C68.7778 226.675 67.97 227.483 67.0006 227.564C67.0006 227.564 66.9737 227.564 66.9198 227.564C65.9504 227.564 65.1426 226.756 65.1426 225.787ZM59.7303 227.402C58.7609 227.402 58.0338 226.514 58.1146 225.544C58.1146 224.494 59.0032 223.767 59.9726 223.848C61.0228 223.929 61.7498 224.736 61.669 225.787C61.5882 226.675 60.7804 227.402 59.8918 227.402C59.838 227.402 59.7841 227.402 59.7303 227.402ZM72.1706 225.383C72.0899 224.413 72.8169 223.525 73.7863 223.363C74.7557 223.282 75.6443 224.009 75.8058 224.979C75.8866 225.948 75.2403 226.837 74.1902 226.998C74.1363 226.998 74.0825 226.998 74.0286 226.998C73.14 226.998 72.3322 226.352 72.1706 225.383ZM52.5407 226.514C51.5713 226.352 50.925 225.464 51.0866 224.494C51.2482 223.444 52.2176 222.798 53.1869 223.04C54.1563 223.202 54.8026 224.09 54.641 225.14C54.4794 225.948 53.7524 226.594 52.8638 226.594C52.7561 226.594 52.6484 226.568 52.5407 226.514ZM45.4319 224.817C44.4625 224.494 43.9778 223.525 44.3009 222.555C44.5433 221.586 45.5934 221.101 46.5628 221.344C47.5322 221.667 48.0169 222.717 47.6938 223.606C47.4514 224.413 46.7244 224.898 45.9974 224.898C45.8358 224.898 45.6473 224.871 45.4319 224.817ZM38.6462 222.151C37.7576 221.667 37.3537 220.617 37.7576 219.728C38.2423 218.839 39.2925 218.436 40.1811 218.839C41.0697 219.324 41.4736 220.374 41.0697 221.263C40.7466 221.909 40.1003 222.313 39.3733 222.313C39.1578 222.313 38.9155 222.259 38.6462 222.151ZM32.2645 218.516C31.4567 217.951 31.2143 216.82 31.7798 216.012C32.3453 215.204 33.3954 214.962 34.284 215.527C35.0918 216.093 35.3342 217.224 34.7687 218.032C34.4456 218.516 33.8801 218.839 33.2338 218.839C32.9107 218.839 32.5876 218.732 32.2645 218.516ZM26.4482 214.073C25.7212 213.427 25.6404 212.215 26.2866 211.488C27.0137 210.761 28.1446 210.68 28.8716 211.327C29.5987 212.054 29.6795 213.185 29.0332 213.912C28.6293 214.316 28.1446 214.477 27.6599 214.477C27.256 214.477 26.7713 214.316 26.4482 214.073ZM21.3589 208.822C20.7127 208.095 20.7935 206.965 21.5205 206.318C22.3283 205.672 23.4593 205.753 24.1055 206.48C24.7518 207.207 24.671 208.338 23.8632 208.984C23.54 209.307 23.1361 209.469 22.7322 209.469C22.1668 209.469 21.6821 209.226 21.3589 208.822ZM16.916 203.006C16.3505 202.198 16.5928 201.067 17.4814 200.502C18.2892 199.936 19.4202 200.179 19.9049 200.987C20.4703 201.875 20.3088 202.925 19.4202 203.491C19.097 203.706 18.7739 203.814 18.4508 203.814C17.8853 203.814 17.3199 203.491 16.916 203.006ZM13.2808 196.705C12.7961 195.817 13.1192 194.766 14.0078 194.282C14.8964 193.878 16.0274 194.201 16.512 195.09C16.916 195.978 16.5928 197.028 15.7042 197.513C15.435 197.621 15.1657 197.675 14.8964 197.675C14.2502 197.675 13.6039 197.351 13.2808 196.705ZM10.2918 190.081C9.96872 189.112 10.4534 188.062 11.342 187.738C12.3114 187.415 13.3616 187.819 13.6847 188.789C14.0078 189.677 13.5231 190.727 12.6345 191.131C12.4191 191.185 12.2037 191.212 11.9883 191.212C11.2612 191.212 10.615 190.808 10.2918 190.081Z" fill="#FDD835"/>
<path d="M81.0572 225.867C80.5725 225.867 80.0878 225.705 79.7647 225.382C79.4416 225.059 79.1992 224.574 79.1992 224.09C79.1992 223.605 79.4416 223.12 79.7647 222.797C80.411 222.151 81.6227 222.151 82.2689 222.797C82.6728 223.12 82.8344 223.605 82.8344 224.09C82.8344 224.574 82.6728 225.059 82.2689 225.382C81.9458 225.705 81.4611 225.867 81.0572 225.867Z" fill="#FDD835"/>
<path d="M90.1059 236.126C89.3789 235.399 89.4597 234.268 90.1059 233.622C90.833 232.895 92.0447 232.976 92.6909 233.622C93.418 234.349 93.3372 235.48 92.6102 236.207C92.287 236.53 91.8831 236.692 91.3984 236.692C90.9137 236.692 90.4291 236.53 90.1059 236.126ZM84.9359 230.714C84.2089 230.068 84.2089 228.856 84.9359 228.21C85.6629 227.483 86.7939 227.563 87.5209 228.29C88.1672 228.937 88.1672 230.148 87.4401 230.795C87.117 231.118 86.6323 231.279 86.2284 231.279C85.7437 231.279 85.259 231.118 84.9359 230.714Z" fill="#FDD835"/>
<path d="M96.5662 242.105C96.0816 242.105 95.5969 241.944 95.2738 241.62C94.9506 241.217 94.7891 240.813 94.7891 240.328C94.7891 239.843 94.9506 239.359 95.2738 239.035C96.0008 238.389 97.2125 238.389 97.8588 239.035C98.1819 239.359 98.3435 239.843 98.3435 240.328C98.3435 240.813 98.1819 241.217 97.8588 241.62C97.5356 241.944 97.0509 242.105 96.5662 242.105Z" fill="#FDD835"/>
<path d="M99.7152 236.127C98.9074 235.561 98.7459 234.431 99.3113 233.623C99.8768 232.815 101.008 232.653 101.816 233.219C102.623 233.865 102.785 234.996 102.219 235.804C101.896 236.208 101.331 236.45 100.765 236.45C100.361 236.45 100.038 236.369 99.7152 236.127ZM103.835 230.472C103.027 229.907 102.866 228.776 103.512 227.968C104.077 227.16 105.208 226.999 106.016 227.645C106.824 228.21 106.986 229.341 106.42 230.149C106.016 230.634 105.451 230.876 104.966 230.876C104.562 230.876 104.158 230.715 103.835 230.472Z" fill="#FDD835"/>
<path d="M109.09 225.222C108.686 225.222 108.201 225.061 107.878 224.738C107.474 224.334 107.312 223.93 107.312 223.445C107.312 222.96 107.474 222.476 107.878 222.153C108.524 221.506 109.736 221.506 110.382 222.153C110.705 222.476 110.948 222.96 110.948 223.445C110.948 223.93 110.705 224.334 110.382 224.738C110.059 225.061 109.574 225.222 109.09 225.222Z" fill="#FDD835"/>
<path d="M123.466 227.161C122.416 227.161 121.689 226.273 121.689 225.304C121.769 224.334 122.577 223.526 123.547 223.526C124.597 223.607 125.324 224.415 125.324 225.465C125.243 226.434 124.516 227.161 123.547 227.161C123.493 227.161 123.466 227.161 123.466 227.161ZM128.959 225.384C128.959 224.415 129.686 223.526 130.655 223.526C131.706 223.446 132.513 224.173 132.594 225.223C132.675 226.192 131.867 227.081 130.898 227.081C130.844 227.081 130.817 227.081 130.817 227.081C129.848 227.081 129.04 226.354 128.959 225.384ZM116.034 226.515C115.065 226.434 114.338 225.546 114.499 224.496C114.58 223.526 115.549 222.799 116.519 222.961C117.488 223.122 118.215 224.011 118.053 224.98C117.973 225.869 117.165 226.596 116.276 226.596C116.222 226.596 116.142 226.569 116.034 226.515ZM136.229 224.819C136.068 223.849 136.714 222.88 137.683 222.718C138.734 222.557 139.622 223.203 139.784 224.173C139.945 225.223 139.299 226.111 138.33 226.273C138.222 226.273 138.114 226.273 138.007 226.273C137.118 226.273 136.391 225.707 136.229 224.819ZM143.338 223.446C143.096 222.476 143.661 221.426 144.631 221.184C145.6 220.941 146.569 221.426 146.812 222.395C147.135 223.365 146.569 224.334 145.6 224.657C145.438 224.711 145.277 224.738 145.115 224.738C144.308 224.738 143.581 224.173 143.338 223.446ZM150.285 221.184C149.881 220.295 150.366 219.245 151.255 218.841C152.143 218.437 153.194 218.841 153.597 219.73C154.001 220.699 153.597 221.749 152.709 222.153C152.44 222.261 152.197 222.315 151.982 222.315C151.255 222.315 150.609 221.83 150.285 221.184ZM156.909 218.114C156.344 217.225 156.586 216.094 157.475 215.61C158.364 215.044 159.414 215.367 159.979 216.175C160.464 217.064 160.222 218.195 159.333 218.679C159.064 218.841 158.767 218.922 158.444 218.922C157.798 218.922 157.233 218.599 156.909 218.114ZM162.968 214.075C162.322 213.348 162.403 212.217 163.21 211.571C163.937 210.924 165.068 211.005 165.715 211.813C166.361 212.54 166.28 213.671 165.472 214.317C165.149 214.64 164.745 214.721 164.341 214.721C163.857 214.721 163.291 214.479 162.968 214.075ZM168.381 209.309C167.653 208.582 167.573 207.451 168.3 206.724C168.946 205.997 170.077 205.916 170.804 206.643C171.531 207.289 171.612 208.42 170.966 209.147C170.562 209.551 170.077 209.713 169.592 209.713C169.188 209.713 168.704 209.632 168.381 209.309ZM173.147 203.735C172.339 203.169 172.096 202.038 172.662 201.231C173.227 200.423 174.358 200.261 175.166 200.827C176.055 201.392 176.216 202.523 175.651 203.331C175.247 203.816 174.762 204.058 174.116 204.058C173.793 204.058 173.47 203.95 173.147 203.735ZM177.105 197.676C176.216 197.191 175.893 196.141 176.378 195.253C176.863 194.364 177.994 194.041 178.801 194.526C179.69 195.01 180.013 196.061 179.528 196.949C179.205 197.595 178.64 197.919 177.994 197.919C177.67 197.919 177.374 197.838 177.105 197.676ZM180.417 191.214C179.448 190.81 179.044 189.76 179.448 188.871C179.771 187.902 180.821 187.498 181.79 187.902C182.679 188.225 183.164 189.275 182.76 190.244C182.437 190.89 181.79 191.375 181.063 191.375C180.848 191.375 180.632 191.321 180.417 191.214Z" fill="#FDD835"/>
<path d="M183.57 184.506C183.085 184.506 182.601 184.264 182.278 183.941C181.955 183.618 181.793 183.133 181.793 182.648C181.793 182.164 181.955 181.76 182.278 181.356C183.005 180.71 184.216 180.71 184.863 181.356C185.186 181.76 185.347 182.164 185.347 182.648C185.347 183.133 185.186 183.618 184.863 183.941C184.54 184.264 184.055 184.506 183.57 184.506Z" fill="#FDD835"/>
</svg>
