<svg width="257" height="188" viewBox="0 0 257 188" fill="none" xmlns="http://www.w3.org/2000/svg">
<path d="M123.267 98.2924C120.724 87.4856 98.3256 47.3247 101.841 17.2227C80.0774 30.4601 65.5312 54.3921 65.5312 81.7269C65.5312 91.7859 67.1392 100.536 70.729 109.286C88.0049 113.474 113.956 108.277 123.267 98.2924Z" fill="#DD2F58"/>
<path d="M217.498 89.018C217.373 90.4389 217.211 91.8474 217.012 93.2435C216.937 93.7421 216.85 94.2531 216.75 94.7766C215.479 102.368 213.011 109.846 209.383 116.951C209.271 117.138 208.823 118.036 208.075 119.344C207.8 119.843 207.476 120.416 207.102 121.064C206.953 121.289 206.803 121.538 206.654 121.812C206.504 122.037 206.392 122.261 206.242 122.485C206.018 122.859 205.769 123.246 205.494 123.645C204.073 125.838 202.515 127.982 200.82 130.076C200.783 130.114 200.745 130.151 200.708 130.189C197.866 133.704 194.65 137.032 191.06 140.098C190.487 140.596 189.901 141.083 189.303 141.556C189.303 141.556 189.29 141.569 189.266 141.594C188.941 141.843 188.63 142.092 188.331 142.342C187.408 143.064 186.461 143.775 185.489 144.473C185.215 144.672 184.928 144.872 184.629 145.071C184.205 145.37 183.781 145.657 183.357 145.931C182.734 146.355 182.111 146.766 181.488 147.165C178.122 149.297 174.794 151.092 171.503 152.587C170.656 152.961 169.821 153.31 168.998 153.634C168.599 153.809 168.188 153.971 167.764 154.121C166.742 154.519 165.72 154.893 164.698 155.242C163.688 155.579 162.641 155.915 161.632 156.215C155.088 158.047 148.656 158.87 142.411 158.87C141.813 158.87 141.202 158.857 140.579 158.832C140.18 158.832 139.769 158.82 139.345 158.795C139.046 158.795 138.747 158.757 138.447 158.757C137.874 158.732 137.313 158.695 136.765 158.645C136.266 158.62 135.78 158.583 135.306 158.533C135.256 158.508 135.194 158.496 135.119 158.496C134.646 158.446 134.16 158.396 133.661 158.346C133.013 158.271 132.365 158.196 131.717 158.122C130.869 157.997 130.021 157.86 129.174 157.71C128.6 157.611 128.027 157.511 127.454 157.411C126.731 157.262 126.02 157.112 125.322 156.962C124.624 156.813 123.926 156.651 123.228 156.476C122.979 156.427 122.73 156.364 122.48 156.289C122.007 156.19 121.545 156.078 121.097 155.953C120.847 155.878 120.611 155.816 120.386 155.766C113.992 154.008 107.897 151.69 102.175 149.11C99.9318 148.088 97.7505 147.053 95.6315 146.006C95.1329 145.732 94.6343 145.47 94.1358 145.221C93.2383 144.772 92.3533 144.311 91.4808 143.837C90.9324 143.563 90.3839 143.276 89.8355 142.977C82.6185 139.088 76.2615 135.237 71.0638 132.47C70.4655 132.133 69.9046 131.871 69.3437 131.572C67.1748 130.45 65.2303 129.59 63.5102 128.992C63.3233 128.955 63.1363 128.88 62.9493 128.842C62.6751 128.743 62.4009 128.668 62.1267 128.618C61.653 128.468 61.2043 128.369 60.7805 128.319C60.7306 128.319 60.6808 128.319 60.6309 128.319C60.606 128.319 60.5811 128.319 60.5561 128.319C60.4813 128.281 60.3692 128.281 60.2944 128.281C60.257 128.281 60.2196 128.281 60.1822 128.281C60.0326 128.257 59.883 128.244 59.7335 128.244C59.534 128.244 59.3346 128.257 59.1352 128.281H59.0604C59.0105 128.281 58.9731 128.294 58.9482 128.319C58.9108 128.319 58.9108 128.319 58.9108 128.319C53.8252 128.655 47.8796 132.096 47.2813 132.47C47.8048 132.245 52.3669 130.301 57.0411 130.488C50.1981 138.191 25.6677 163.581 0.277344 162.16C0.277344 162.16 0.289811 162.16 0.31474 162.16C0.875647 161.712 19.5351 147.128 25.7799 118.783C25.7799 118.783 25.5182 92.0469 4.20369 71.1064C4.20369 71.1064 39.1669 74.2848 60.5935 111.753C60.5935 111.753 97.8751 121.513 118.554 108.425C119.863 107.603 121.059 106.743 122.218 105.733C122.368 105.621 122.518 105.471 122.667 105.322C123.041 104.985 123.415 104.611 123.789 104.237C124.425 107.304 124.574 110.445 124.163 113.511C123.378 119.494 120.611 125.253 116.348 129.553C116.398 129.553 116.422 129.54 116.422 129.515C116.447 129.515 116.472 129.503 116.497 129.478C116.447 129.528 116.385 129.565 116.31 129.59C119.264 128.319 121.845 126.225 123.826 123.719C126.631 120.242 128.388 116.054 129.548 111.753C132.801 99.8622 132.203 86.6996 127.117 75.5188C129.622 72.8265 132.614 70.5454 135.867 68.8253C131.754 69.1245 127.603 69.7976 123.752 71.1811C128.837 64.7868 136.241 60.1126 144.281 58.6168C134.371 58.729 124.462 61.8701 116.273 67.4792C115.949 66.5817 115.637 65.6843 115.338 64.7868C128.912 53.98 154.302 51.1007 173.523 63.478C159.65 38.0503 124.013 41.7896 110.589 49.3432C108.458 41.3409 106.85 33.376 106.251 26.2712C106.226 26.2463 106.214 26.2213 106.214 26.1964C105.915 20.2508 106.438 14.6043 108.046 9.4814C108.146 9.20718 108.246 8.93295 108.345 8.65873C108.345 8.6338 108.358 8.60887 108.383 8.58395C108.482 8.30972 108.595 8.04797 108.719 7.79868C108.819 7.52446 108.931 7.27517 109.056 7.0508C109.106 6.97602 109.143 6.90123 109.168 6.82644C109.268 6.65193 109.367 6.48989 109.467 6.34032C109.517 6.2406 109.579 6.14088 109.654 6.04117C109.779 5.8168 109.916 5.61737 110.065 5.44287C110.041 5.41794 110.041 5.40547 110.065 5.40547C110.215 5.18111 110.377 4.96921 110.552 4.76978C110.577 4.71992 110.614 4.68253 110.664 4.6576C110.838 4.43323 111.025 4.22134 111.225 4.0219C111.449 3.83494 111.673 3.61057 111.898 3.4236C112.347 3.02473 112.833 2.67573 113.356 2.37658C113.63 2.20208 113.905 2.04003 114.179 1.89046C124.649 -3.53164 171.541 1.25476 201.306 35.5823C208.972 44.4446 214.095 55.3636 216.413 67.0678C217.834 74.21 218.208 81.614 217.498 89.018Z" fill="#21476D"/>
<g style="mix-blend-mode:multiply">
<path d="M124.165 113.512C123.38 119.495 120.613 125.254 116.35 129.554C116.4 129.554 116.425 129.541 116.425 129.516C116.4 129.541 116.362 129.566 116.312 129.591C119.267 123.122 120.127 115.419 118.556 108.426C119.865 107.604 121.062 106.744 122.221 105.734C122.37 105.622 122.52 105.472 122.669 105.323C123.043 104.986 123.417 104.612 123.791 104.238C124.427 107.305 124.577 110.446 124.165 113.512Z" fill="#8FB0E2"/>
</g>
<g style="mix-blend-mode:multiply">
<path d="M37.2576 116.838C35.6496 133.329 13.2507 157.523 0.3125 162.159C0.873407 161.711 19.5329 147.127 25.7777 118.783C25.7777 118.783 25.5159 92.046 4.20145 71.1055C31.5363 84.4551 37.2576 116.838 37.2576 116.838Z" fill="#8FB0E2"/>
</g>
<g style="mix-blend-mode:soft-light" opacity="0.5">
<path d="M216.413 67.0678C207.139 28.2157 142.56 -8.46762 113.355 2.37658C113.63 2.20208 113.904 2.04003 114.178 1.89046C124.648 -3.53164 171.54 1.25476 201.306 35.5823C208.971 44.4446 214.094 55.3636 216.413 67.0678Z" fill="white"/>
</g>
<g style="mix-blend-mode:soft-light" opacity="0.5">
<path d="M122.218 105.732C105.166 121.213 74.8774 119.082 56.517 115.38C52.142 96.8698 27.7986 75.2562 4.20312 71.1055C4.20312 71.1055 39.1663 74.2839 60.593 111.753C60.593 111.753 102.624 122.746 122.218 105.732Z" fill="white"/>
</g>
<path d="M256.272 150.867C248.12 142.79 237.912 136.769 226.918 133.479C225.771 133.13 224.625 132.818 223.478 132.544C223.353 132.519 223.229 132.494 223.104 132.469C222.73 132.369 222.356 132.282 221.982 132.207C221.633 132.133 221.297 132.07 220.973 132.02C220.25 131.871 219.527 131.734 218.804 131.609C213.718 130.712 208.483 130.412 203.323 130.674C204.071 129.253 204.818 127.72 205.492 126.262C207.623 121.662 209.231 117.399 209.381 116.951C209.268 117.138 208.82 118.035 208.072 119.344C207.798 119.842 207.473 120.416 207.099 121.064C206.95 121.288 206.8 121.538 206.651 121.812C206.501 122.036 206.389 122.261 206.239 122.485C206.015 122.859 205.766 123.245 205.492 123.644C204.818 124.729 204.071 125.85 203.248 126.972C203.123 127.147 202.999 127.321 202.874 127.496C202.201 128.356 201.528 129.216 200.817 130.076C200.78 130.113 200.743 130.151 200.705 130.188C200.506 130.437 200.306 130.674 200.107 130.899C197.414 134.114 194.423 137.218 191.058 140.097C190.484 140.596 189.898 141.082 189.3 141.556C189.3 141.556 189.288 141.568 189.263 141.593C188.939 141.842 188.627 142.092 188.328 142.341C187.405 143.064 186.458 143.774 185.486 144.472C185.212 144.672 184.925 144.871 184.626 145.071C184.202 145.37 183.778 145.657 183.354 145.931C182.731 146.355 182.108 146.766 181.485 147.165C178.119 149.296 174.791 151.091 171.501 152.587C170.653 152.961 169.818 153.31 168.995 153.634C168.596 153.808 168.185 153.971 167.761 154.12C166.739 154.519 165.717 154.893 164.695 155.242C163.685 155.578 162.638 155.915 161.629 156.214C155.085 158.046 148.653 158.869 142.408 158.869C141.81 158.869 141.199 158.857 140.576 158.832C140.177 158.832 139.766 158.819 139.342 158.794C139.043 158.794 138.744 158.757 138.445 158.757C137.871 158.732 137.31 158.695 136.762 158.645C136.263 158.62 135.777 158.582 135.303 158.533C135.254 158.508 135.191 158.495 135.116 158.495C134.643 158.445 134.157 158.395 133.658 158.346C133.01 158.271 132.362 158.196 131.714 158.121C130.866 157.997 130.018 157.859 129.171 157.71C128.597 157.61 128.024 157.51 127.451 157.411C126.728 157.261 126.017 157.112 125.319 156.962C124.621 156.812 123.923 156.65 123.225 156.476C122.976 156.426 122.727 156.364 122.477 156.289C122.004 156.189 121.543 156.077 121.094 155.952C120.844 155.878 120.608 155.815 120.383 155.765C114.213 154.12 111.409 152.923 111.222 152.849C111.371 152.961 113.578 154.905 118.588 156.812C119.536 157.186 120.595 157.548 121.767 157.897C113.54 166.049 107.295 176.145 103.967 187.214C102.846 183.848 102.023 180.445 101.425 176.968C99.8915 167.769 100.153 158.233 102.173 149.109C99.9289 148.087 97.7476 147.053 95.6286 146.006C95.13 145.731 94.6315 145.47 94.1329 145.22C93.2354 144.772 92.3504 144.31 91.4779 143.837C90.9295 143.563 90.381 143.276 89.8326 142.977C82.6156 139.088 76.2586 135.236 71.0609 132.469C70.4626 132.133 69.9017 131.871 69.3408 131.572C67.1719 130.45 65.2275 129.59 63.5073 128.991C63.3204 128.954 63.1334 128.879 62.9464 128.842C62.6722 128.742 62.398 128.667 62.1238 128.618C61.1515 128.356 60.1419 128.244 59.1323 128.281H59.0575C59.0076 128.281 58.9702 128.293 58.9453 128.318C59.0201 128.281 59.0575 128.281 59.1323 128.281H59.1697C60.5532 128.057 61.9742 128.169 63.3578 128.244C65.564 128.393 67.8076 128.692 70.0139 128.954C72.7436 129.328 75.436 129.702 78.1657 130.076C79.5867 130.275 81.0076 130.462 82.4286 130.637C82.4286 130.637 82.466 130.649 82.5408 130.674C86.2054 131.123 89.9822 131.572 93.6467 131.871C95.4416 132.02 97.3861 132.133 99.368 132.207C102.509 132.319 105.538 132.245 108.193 131.946C111.484 131.572 114.251 130.861 116.307 129.627C116.307 129.627 116.307 129.615 116.307 129.59C117.504 129.066 118.663 128.431 119.71 127.645C119.71 127.645 119.723 127.645 119.748 127.645C121.281 126.523 122.664 125.215 123.824 123.719C126.628 120.241 128.386 116.053 129.545 111.753C132.798 99.8617 132.2 86.6991 127.114 75.5183C129.582 72.9008 132.462 70.6571 135.64 68.9744C135.715 68.9246 135.79 68.8747 135.864 68.8248C133.209 69.0118 130.517 69.3484 127.937 69.9467C126.516 70.2832 125.095 70.6945 123.749 71.1807C128.834 64.7863 136.238 60.1121 144.278 58.6163C134.369 58.7285 124.459 61.8696 116.27 67.4787C115.946 66.5812 115.634 65.6838 115.335 64.7863C128.498 54.3161 152.766 51.2872 171.762 62.3931C172.361 62.7421 172.947 63.1036 173.52 63.4775C173.47 63.3778 173.42 63.2781 173.37 63.1784C173.37 63.1784 173.358 63.1659 173.333 63.141C171.762 60.3365 169.93 57.8685 167.836 55.737C151.682 38.9472 122.44 42.6866 110.586 49.3427C110.549 49.3801 110.511 49.4175 110.474 49.4175C110.324 48.894 110.175 48.358 110.025 47.8095C108.043 40.4804 106.622 33.1512 106.248 26.2707C106.224 26.2458 106.211 26.2209 106.211 26.1959C105.912 20.2503 106.435 14.6039 108.043 9.48091C108.143 9.20669 108.243 8.93246 108.343 8.65824C108.343 8.63331 108.355 8.60838 108.38 8.58345C108.48 8.30923 108.592 8.04748 108.716 7.79819C108.816 7.52397 108.928 7.27467 109.053 7.05031C109.103 6.97552 109.14 6.90073 109.165 6.82595C109.265 6.65144 109.365 6.4894 109.464 6.33983C109.514 6.24011 109.577 6.14039 109.651 6.04067C109.776 5.81631 109.913 5.61688 110.063 5.44238C110.038 5.41745 110.038 5.40498 110.063 5.40498C110.212 5.18062 110.374 4.96872 110.549 4.76929C110.574 4.71943 110.611 4.68203 110.661 4.65711C110.835 4.43274 111.022 4.22085 111.222 4.02141C111.446 3.83444 111.671 3.61008 111.895 3.42311C111.92 3.39818 111.945 3.37325 111.97 3.34832C112.393 2.99931 112.855 2.67524 113.353 2.37609C113.627 2.20158 113.902 2.03954 114.176 1.88997C121.767 -1.51287 167.686 12.2107 195.395 42.9857C188.141 48.894 178.531 49.0061 178.531 49.0061C178.93 49.0809 179.341 49.1432 179.765 49.1931C188.851 50.6889 200.219 48.8192 200.219 48.8192C200.219 48.8192 200.219 48.8067 200.219 48.7818C200.817 49.567 201.378 50.3149 201.939 51.1002C202.188 51.4243 202.425 51.7608 202.65 52.1098C195.881 57.6441 186.346 58.2424 186.346 58.2424C186.62 58.2923 186.894 58.3421 187.169 58.392C195.732 59.8877 206.576 58.2424 206.576 58.2424C207 58.9404 207.399 59.6509 207.773 60.3739C207.947 60.7229 208.134 61.0719 208.333 61.4209C201.939 65.3472 193.825 64.7863 193.825 64.7863C193.949 64.8362 194.074 64.886 194.199 64.9359C201.079 67.1795 210.315 67.0673 210.988 67.0673C211.462 68.2141 211.911 69.3733 212.335 70.545C214.503 76.4906 215.551 79.2203 216.298 88.4566C216.722 88.6311 217.121 88.8181 217.495 89.0175C228.451 94.1778 237.987 102.33 244.755 112.389C249.766 119.83 253.243 128.281 254.964 137.069C255.861 141.593 256.31 146.23 256.272 150.867Z" fill="#102E51"/>
<g style="mix-blend-mode:soft-light" opacity="0.5">
<path d="M168.1 55.8859C168.025 55.8361 167.938 55.7862 167.838 55.7363C151.684 38.9465 122.442 42.6859 110.588 49.342C110.551 49.3794 110.513 49.4168 110.476 49.4168C110.326 48.8933 110.177 48.3573 110.027 47.8089C108.045 40.4797 106.624 33.1505 106.25 26.27C106.225 26.2451 106.213 26.2202 106.213 26.1953C105.914 20.2497 106.437 14.6032 108.045 9.48024C108.145 9.20602 108.245 8.93179 108.344 8.65757C108.344 8.63264 108.357 8.60772 108.382 8.58279C108.481 8.30857 108.594 8.04681 108.718 7.79752C108.818 7.5233 108.93 7.27401 109.055 7.04964C109.105 6.97486 109.142 6.90007 109.167 6.82528C109.267 6.65078 109.366 6.48873 109.466 6.33916C109.516 6.23944 109.578 6.13972 109.653 6.04001C109.778 5.81565 109.902 5.61621 110.027 5.44171C110.027 5.41678 110.04 5.40431 110.064 5.40431C110.214 5.17995 110.376 4.96805 110.551 4.76862C110.576 4.71876 110.613 4.68137 110.663 4.65644C110.837 4.43208 111.024 4.22018 111.224 4.02075C111.448 3.83378 111.672 3.60941 111.897 3.42244C111.922 3.39751 111.947 3.37259 111.972 3.34766C103.483 10.976 113.879 44.3686 113.879 44.3686C113.879 44.3686 150.786 33.7488 168.1 55.8859Z" fill="white"/>
</g>
<g style="mix-blend-mode:multiply">
<path d="M135.642 68.9727C133.96 70.805 132.613 72.8242 131.417 75.0304C135.418 88.2304 134.857 102.365 129.734 115.191C128.65 117.996 127.304 120.726 125.396 123.081C123.901 124.989 121.956 126.634 119.75 127.644C121.283 126.522 122.667 125.213 123.826 123.717C126.63 120.24 128.388 116.051 129.547 111.751C132.8 99.8599 132.202 86.6973 127.117 75.5166C129.585 72.899 132.464 70.6554 135.642 68.9727Z" fill="#8FB0E2"/>
</g>
<g style="mix-blend-mode:multiply">
<path d="M171.763 62.3917C164.584 58.9889 156.32 57.8671 148.504 59.2506C140.764 60.6342 133.509 64.411 127.938 69.9452C126.517 70.2818 125.096 70.6931 123.75 71.1792C128.835 64.7849 136.239 60.1107 144.279 58.6149C134.369 58.7271 124.46 61.8682 116.271 67.4773C115.947 66.5798 115.635 65.6824 115.336 64.7849C128.499 54.3146 152.767 51.2857 171.763 62.3917Z" fill="#8FB0E2"/>
</g>
<g style="mix-blend-mode:soft-light" opacity="0.5">
<path d="M178.719 49.1178C179.068 49.1427 179.417 49.1676 179.766 49.1926C188.852 50.6883 200.22 48.8186 200.22 48.8186C200.22 48.8186 200.22 48.8062 200.22 48.7812C200.818 49.5665 201.379 50.3144 201.94 51.0997C194.2 52.371 186.123 51.698 178.719 49.1178Z" fill="white"/>
</g>
<g style="mix-blend-mode:soft-light" opacity="0.5">
<path d="M206.577 58.2422C207.001 58.9402 207.4 59.6507 207.774 60.3736C200.669 61.0467 193.527 60.2988 186.684 58.3544C186.858 58.3793 187.02 58.3918 187.17 58.3918C195.733 59.8875 206.577 58.2422 206.577 58.2422Z" fill="white"/>
</g>
<g style="mix-blend-mode:soft-light" opacity="0.5">
<path d="M256.273 150.867C248.121 142.79 237.913 136.769 226.919 133.479C225.772 133.13 224.625 132.818 223.478 132.544C223.354 132.519 223.229 132.494 223.105 132.469C222.731 132.369 222.357 132.282 221.983 132.207C221.634 132.132 221.297 132.07 220.973 132.02C220.25 131.871 219.527 131.734 218.804 131.609C213.719 130.712 208.484 130.412 203.323 130.674C204.071 129.253 204.819 127.72 205.492 126.262C207.624 121.662 209.231 117.399 209.381 116.951C209.269 117.138 208.82 118.035 208.072 119.344C207.798 119.842 207.474 120.416 207.1 121.064C206.95 121.288 206.801 121.538 206.651 121.812C206.502 122.036 206.39 122.261 206.24 122.485C206.016 122.859 205.766 123.245 205.492 123.644C204.819 124.728 204.071 125.85 203.248 126.972C203.124 127.147 202.999 127.321 202.875 127.496C202.201 128.356 201.528 129.216 200.818 130.076C200.78 130.113 200.743 130.151 200.706 130.188C200.506 130.437 200.307 130.674 200.107 130.898C196.966 134.675 193.377 138.265 189.301 141.556C189.301 141.556 189.288 141.568 189.263 141.593C188.939 141.842 188.627 142.092 188.328 142.341C187.406 143.064 186.459 143.774 185.486 144.472C185.212 144.672 184.926 144.871 184.626 145.071C184.203 145.37 183.779 145.657 183.355 145.931C182.732 146.355 182.109 146.766 181.485 147.165C178.12 149.296 174.792 151.091 171.501 152.587C170.654 152.961 169.818 153.31 168.996 153.634C168.597 153.808 168.186 153.97 167.762 154.12C165.718 154.918 163.673 155.616 161.629 156.214C155.085 158.046 148.654 158.869 142.409 158.869C141.81 158.869 141.2 158.857 140.576 158.832C140.178 158.832 139.766 158.819 139.342 158.794C139.043 158.794 138.744 158.757 138.445 158.757C137.872 158.732 137.311 158.695 136.762 158.645C136.264 158.62 135.778 158.582 135.304 158.532C135.254 158.508 135.192 158.495 135.117 158.495C134.643 158.445 134.157 158.395 133.659 158.346C133.01 158.271 132.362 158.196 131.714 158.121C130.867 157.996 130.019 157.859 129.171 157.71C128.598 157.61 128.025 157.51 127.451 157.411C126.728 157.261 126.018 157.112 125.32 156.962C124.622 156.812 123.924 156.65 123.226 156.476C122.976 156.426 122.727 156.364 122.478 156.289C122.004 156.189 121.543 156.077 121.094 155.952C120.845 155.878 120.608 155.815 120.384 155.765C114.214 154.12 111.409 152.923 111.222 152.849C111.372 152.961 113.578 154.905 118.589 156.812C119.536 157.186 120.596 157.548 121.767 157.897C113.541 166.049 107.296 176.145 103.968 187.214C102.846 183.848 102.023 180.445 101.425 176.968C99.892 167.769 100.154 158.233 102.173 149.109C99.9294 148.087 97.7481 147.053 95.6292 146.006C95.1306 145.731 94.632 145.47 94.1334 145.22C93.2359 144.772 92.351 144.31 91.4784 143.837C90.93 143.563 90.3816 143.276 89.8331 142.977C82.6161 139.088 76.2592 135.236 71.0614 132.469C70.4631 132.132 69.9022 131.871 69.3413 131.572C67.1725 130.45 65.228 129.59 63.5079 128.991C63.3209 128.954 63.1339 128.879 62.947 128.842C61.713 128.43 60.4416 128.206 59.1328 128.281H59.1702C66.1255 127.907 79.0263 134.638 88.3 138.415C99.3311 142.864 110.474 147.352 122.216 149.334C143.905 152.961 167.35 147.053 182.981 131.534C206.614 108.013 207.773 77.7993 205.604 70.5823C200.818 69.4979 198.238 68.1517 194.124 64.8984C194.162 64.9358 194.199 64.9358 194.199 64.9358C201.08 67.1795 210.316 67.0673 210.989 67.0673C211.463 68.214 211.911 69.3732 212.335 70.5449C214.504 76.4905 215.551 79.2203 216.299 88.4565C216.723 88.631 217.122 88.818 217.495 89.0174C228.452 94.1778 237.987 102.33 244.756 112.389C249.766 119.83 253.244 128.281 254.964 137.068C255.862 141.593 256.31 146.23 256.273 150.867Z" fill="white"/>
</g>
<g style="mix-blend-mode:multiply">
<path d="M121.772 157.897C113.545 166.049 107.301 176.145 103.972 187.214C102.851 183.848 102.028 180.445 101.43 176.968C105.468 169.003 111.376 162.048 118.593 156.812C119.541 157.186 120.6 157.548 121.772 157.897Z" fill="#8FB0E2"/>
</g>
<g style="mix-blend-mode:multiply">
<path d="M256.277 150.905C248.126 142.828 237.917 136.77 226.923 133.479C225.777 133.155 224.63 132.856 223.483 132.582C223.358 132.532 223.234 132.495 223.109 132.47C222.735 132.37 222.361 132.283 221.987 132.208C221.638 132.133 221.302 132.071 220.978 132.021C220.255 131.871 219.532 131.734 218.809 131.61C213.723 130.712 208.488 130.413 203.328 130.675C204.076 129.254 204.824 127.721 205.497 126.262C207.628 121.663 209.236 117.4 209.386 116.951C209.161 117.363 206.693 122.186 203.253 126.973C203.128 127.147 203.004 127.322 202.879 127.496C202.019 128.656 201.084 129.815 200.112 130.899C195.064 136.994 188.856 142.529 181.49 147.165C164.251 158.122 147.312 160.291 131.719 158.122C168.365 160.291 204.487 133.367 217.051 91C217.164 97.3195 214.658 113.324 210.208 125.589C218.435 124.692 226.811 125.327 234.776 127.534C241.993 129.516 248.836 132.769 254.969 137.069C255.866 141.594 256.315 146.231 256.277 150.905Z" fill="#8FB0E2"/>
</g>
<path d="M173.671 16.8852C174.606 16.9226 175.466 17.3339 176.176 18.007C175.242 16.6234 173.97 15.8008 172.512 15.8008C169.67 15.8008 167.352 19.1662 167.352 23.3543C167.352 27.3929 169.483 30.6461 172.175 30.9079C170.156 30.0478 168.66 27.3181 168.66 24.0648C168.66 24.015 168.66 23.9776 168.66 23.9526C168.997 24.8127 169.52 25.4858 170.306 25.7849C172.063 26.4206 174.195 24.9249 175.092 22.4569C175.99 20.0263 175.316 17.5957 173.671 16.8852Z" fill="#EEFFFF"/>
</svg>
