<svg width="259" height="222" viewBox="0 0 259 222" fill="none" xmlns="http://www.w3.org/2000/svg">
<path d="M208.734 51.6169C212.652 50.6058 216.823 52.6912 219.225 55.7877C224.154 62.6127 221.942 71.4599 220.868 78.9801C219.161 90.1023 222.827 102.552 232.18 109.313C238.246 113.863 247.725 114.116 252.907 108.049C248.231 115.001 237.804 115.127 231.358 110.577C221.057 103.879 217.013 90.4183 218.972 78.6641C220.109 71.2704 222.827 63.1183 218.466 56.3565C216.444 53.26 212.652 51.0482 208.734 51.6169Z" fill="#CDAA5F"/>
<path d="M133.912 6.18163C132.332 4.79135 130.625 3.40107 128.603 2.70593C123.864 0.873296 118.619 2.95872 113.942 4.98094C100.798 10.7316 87.3373 16.6087 76.6574 26.2143C75.8991 26.8462 75.8359 28.0469 76.5311 28.8052L79.6276 32.2809C80.0699 32.7865 80.5123 33.292 81.1442 33.5448C82.1553 33.9872 83.2928 33.608 84.3672 33.2288C94.4151 29.5636 104.779 26.783 115.269 24.824C120.62 23.8129 125.991 23.0124 131.384 22.4226C136.25 21.917 142.632 22.6122 147.182 20.9691C144.528 15.408 138.525 10.2261 133.912 6.18163Z" fill="#CDAA5F" stroke="#E9E4C8" stroke-width="2.7" stroke-linecap="round" stroke-linejoin="round"/>
<path d="M84.2409 32.977C83.293 30.9548 82.0291 29.1221 80.4492 27.6055" stroke="#E9E4C8" stroke-width="1.3" stroke-linecap="round" stroke-linejoin="round"/>
<path d="M88.7262 31.1443C87.5255 29.2484 86.072 27.479 84.4922 25.8359" stroke="#E9E4C8" stroke-width="1.3" stroke-linecap="round" stroke-linejoin="round"/>
<path d="M93.971 30.0055C92.8335 27.4778 91.0009 25.3292 88.7891 23.8125" stroke="#E9E4C8" stroke-width="1.3" stroke-linecap="round" stroke-linejoin="round"/>
<path d="M97.3852 27.7307C96.2477 25.4557 94.7311 23.4335 92.8984 21.6641" stroke="#E9E4C8" stroke-width="1.3" stroke-linecap="round" stroke-linejoin="round"/>
<path d="M101.748 26.1494C100.864 23.8112 99.4733 21.6626 97.6406 20.0195" stroke="#E9E4C8" stroke-width="1.3" stroke-linecap="round" stroke-linejoin="round"/>
<path d="M106.926 24.762C105.662 22.4238 103.956 20.3384 101.934 18.6953" stroke="#E9E4C8" stroke-width="1.3" stroke-linecap="round" stroke-linejoin="round"/>
<path d="M106.359 17.0508C108.824 18.6306 110.783 21.032 111.92 23.7494" stroke="#E9E4C8" stroke-width="1.3" stroke-linecap="round" stroke-linejoin="round"/>
<path d="M111.352 15.6602C113.879 17.4928 115.902 20.0206 117.102 22.9275" stroke="#E9E4C8" stroke-width="1.3" stroke-linecap="round" stroke-linejoin="round"/>
<path d="M115.836 14.5234C118.49 16.5457 120.576 19.7054 121.903 22.2963" stroke="#E9E4C8" stroke-width="1.3" stroke-linecap="round" stroke-linejoin="round"/>
<path d="M120.516 13.3242C123.107 15.2832 125.192 17.9374 126.456 20.9075" stroke="#E9E4C8" stroke-width="1.3" stroke-linecap="round" stroke-linejoin="round"/>
<path d="M125.254 11.3008C128.161 13.8286 131.005 17.2411 133.09 20.5272" stroke="#E9E4C8" stroke-width="1.3" stroke-linecap="round" stroke-linejoin="round"/>
<path d="M130.438 10.7305C133.85 13.1951 136.947 17.4291 139.095 21.0311" stroke="#E9E4C8" stroke-width="1.3" stroke-linecap="round" stroke-linejoin="round"/>
<path d="M72.173 135.856C71.9202 136.615 71.6674 137.436 71.9834 138.195C72.4257 139.395 73.8792 139.838 75.2063 140.027C79.1244 140.722 83.6112 141.291 86.7709 138.826C88.1611 137.689 89.1091 136.046 89.8674 134.403C92.9007 128.02 94.1646 120.753 93.4695 113.738C93.4695 113.738 86.7077 115.824 86.0757 116.013C83.6112 116.961 81.273 118.162 79.1875 119.805C74.5112 123.533 73.816 130.358 72.173 135.856Z" fill="#CDAA5F" stroke="#E9E4C8" stroke-width="2.7" stroke-linecap="round" stroke-linejoin="round"/>
<path d="M82.1524 118.918C79.9406 122.141 78.6135 125.933 78.2344 129.851" stroke="#E9E4C8" stroke-width="1.3" stroke-linecap="round" stroke-linejoin="round"/>
<path d="M85.3793 117.973C84.2418 121.259 83.3571 124.671 82.8516 128.084" stroke="#E9E4C8" stroke-width="1.3" stroke-linecap="round" stroke-linejoin="round"/>
<path d="M88.6004 116.582C88.4108 119.742 87.7156 122.901 86.5781 125.808" stroke="#E9E4C8" stroke-width="1.3" stroke-linecap="round" stroke-linejoin="round"/>
<path d="M50.6184 44.2253C48.7226 44.4781 46.7635 44.7941 44.9309 45.4892C40.0649 47.2587 36.5892 51.5559 33.3031 55.6003C31.7865 57.5593 30.2066 59.5816 29.8906 61.9829C31.4705 62.9941 33.4295 62.8677 35.2621 62.6781C37.158 62.5096 39.0538 62.32 40.9496 62.1093C41.8344 62.0461 42.7191 61.9829 43.4774 61.6038C44.2358 61.2878 44.8045 60.719 45.4364 60.2135C50.2392 55.9163 54.9788 49.9128 60.5399 46.6899C67.2385 42.7718 54.4101 43.6566 50.6184 44.2253Z" fill="#CDAA5F" stroke="#E9E4C8" stroke-width="2.7" stroke-linecap="round" stroke-linejoin="round"/>
<path d="M215.94 43.97C214.613 43.4012 213.096 43.97 211.769 44.5387C200.836 49.4679 192.242 59.3262 188.829 70.7644C187.249 76.0727 186.997 82.4553 190.788 86.4366C194.011 89.7859 200.204 89.5963 205.007 88.206C204.186 87.7637 203.301 87.2581 202.542 86.6262C198.561 83.3401 198.498 77.2102 199.699 72.2178C201.784 63.9394 206.65 56.4824 213.285 51.1741C214.676 50.0998 216.382 48.52 217.835 46.8137C217.393 45.5498 216.635 44.2859 215.94 43.97Z" fill="#E9E4C8" stroke="#CDAA5F" stroke-width="2" stroke-miterlimit="10"/>
<path d="M220.804 37.6528C218.086 33.3556 211.767 34.3035 206.711 34.3667C198.243 34.6195 190.154 31.1438 182.129 28.4264C148.636 17.1778 110.656 18.6945 79.0585 34.4931C47.5245 50.3549 23.1947 80.8145 16.6857 115.508C13.1468 134.34 14.7266 154.12 21.2989 172.13C10.2398 186.602 2.59332 197.851 2.27734 216.051C2.27734 218.073 2.97247 220.664 4.99469 220.601C5.81622 220.601 6.51136 219.969 7.2065 219.463C12.894 215.229 18.2023 209.099 22.8787 200.505C26.86 193.237 29.2613 186.792 36.9079 183.632C40.6995 182.115 44.9968 182.178 49.1044 182.621C54.7287 183.253 60.2898 184.453 65.5981 186.286C67.8731 187.108 70.6537 187.866 72.4231 186.286C74.1926 184.643 73.6238 181.736 72.7391 179.587C67.6835 167.264 55.0447 158.544 41.7738 158.038C41.7106 152.793 41.9634 147.358 43.796 142.429C45.6919 137.437 50.7474 130.991 55.803 129.411C57.446 128.842 58.5835 127.642 60.2898 127.894C58.6467 132.002 55.7398 138.069 54.0967 142.176C53.9072 142.745 53.6544 143.44 53.9072 144.009C54.1599 144.515 54.7919 144.767 55.2974 144.957C63.1335 141.228 70.8433 134.467 74.5085 126.63C75.2669 124.924 75.962 123.155 77.2259 121.701C78.1106 120.753 79.2481 119.995 80.3856 119.3C85.6939 116.14 92.4557 114.75 98.1432 112.475C107.938 108.431 118.745 106.598 129.235 105.271C137.766 104.133 146.361 102.996 154.955 103.249C166.33 103.501 178.842 105.776 188.195 99.2673C194.957 100.531 200.581 100.026 207.027 97.6243C208.101 97.2451 209.176 96.7395 209.808 95.7916C211.008 93.959 209.871 91.4312 208.101 90.1041C207.154 89.3458 206.079 88.7771 205.005 88.2083C200.202 89.5986 194.009 89.7881 190.786 86.4388C186.995 82.4576 187.247 76.075 188.827 70.7666C192.24 59.3285 200.834 49.4701 211.767 44.541C213.094 43.9722 214.611 43.4035 215.938 43.9722C216.633 44.2882 217.391 45.5521 217.833 46.816C220.488 43.8458 222.447 40.307 220.804 37.6528Z" fill="#CDAA5F" stroke="#E9E4C8" stroke-width="2.7" stroke-linecap="round" stroke-linejoin="round"/>
<path d="M170.059 86.7539C175.241 91.999 180.802 95.9803 187.5 99.0768C180.17 98.3817 173.218 93.3893 170.059 86.7539Z" fill="#E9E4C8"/>
<path d="M183.711 91.3047C187.439 93.3901 190.536 94.5908 194.644 95.6651C190.662 97.1818 185.607 95.0964 183.711 91.3047Z" fill="#E9E4C8"/>
<path d="M182.698 39.9883C182.445 41.8209 179.854 42.8952 177.01 42.516C174.103 42.0737 172.018 40.241 172.271 38.4084C172.587 36.5758 175.114 35.4383 177.958 35.8806C180.865 36.323 182.951 38.1556 182.698 39.9883Z" fill="#E9E4C8"/>
<path d="M36.7188 58.4421C39.7521 58.063 42.7854 57.9366 45.8819 58.1262" stroke="#E9E4C8" stroke-width="1.3" stroke-linecap="round" stroke-linejoin="round"/>
<path d="M40.9531 54.8392C43.5441 54.6496 46.1351 54.776 48.726 55.2184" stroke="#E9E4C8" stroke-width="1.3" stroke-linecap="round" stroke-linejoin="round"/>
<path d="M44.2383 51.1112C47.082 50.9216 49.989 51.1112 52.8327 51.6167" stroke="#E9E4C8" stroke-width="1.3" stroke-linecap="round" stroke-linejoin="round"/>
<path d="M47.7773 48.1444C50.6211 47.8284 53.4648 48.018 56.2454 48.5868" stroke="#E9E4C8" stroke-width="1.3" stroke-linecap="round" stroke-linejoin="round"/>
<path d="M15.2969 147.169C18.583 103.438 45.5038 66.5326 88.0336 53.8937C101.431 49.9756 115.65 48.775 129.489 50.6708C108.698 48.8382 87.5912 53.2618 69.3913 63.2465C37.6045 80.9409 19.7837 111.527 15.2969 147.169Z" fill="#E9E4C8"/>
<path d="M117.669 65.1415C107.179 63.8776 96.3092 66.4685 87.5252 72.3456C86.7669 72.8512 85.9453 73.4831 85.8189 74.431C85.5662 75.8845 87.2092 76.8956 88.5363 77.4012C95.8669 80.3713 103.893 82.5831 109.138 88.4602C110.212 89.7241 111.413 91.2407 113.119 91.1775C114.888 91.1775 116.089 89.5345 116.974 88.0178C119.291 84.2262 121.587 80.4345 123.862 76.6428" stroke="#E9E4C8" stroke-width="2.7" stroke-linecap="round" stroke-linejoin="round"/>
<path d="M119.123 57.5586C118.744 67.0378 122.725 75.8218 129.993 81.8252C121.209 77.9704 116.153 66.7218 119.123 57.5586Z" fill="#E9E4C8"/>
<path d="M89.1719 77.339C93.8483 73.8634 99.2198 71.3356 104.844 69.9453" stroke="#E9E4C8" stroke-width="1.3" stroke-linecap="round" stroke-linejoin="round"/>
<path d="M94.4766 79.8039C98.5842 76.5178 103.387 73.99 108.443 72.4102" stroke="#E9E4C8" stroke-width="1.3" stroke-linecap="round" stroke-linejoin="round"/>
<path d="M99.9141 82.3312C103.643 79.2979 107.813 76.8333 112.237 74.9375" stroke="#E9E4C8" stroke-width="1.3" stroke-linecap="round" stroke-linejoin="round"/>
<path d="M105.41 84.9222C108.254 82.0153 111.287 79.0451 115.079 77.7812" stroke="#E9E4C8" stroke-width="1.3" stroke-linecap="round" stroke-linejoin="round"/>
<path d="M109.707 88.9037C112.403 85.9968 115.1 83.1109 117.796 80.2461" stroke="#E9E4C8" stroke-width="1.3" stroke-linecap="round" stroke-linejoin="round"/>
<path d="M56.2461 129.22C67.8739 121.889 80.7655 116.265 94.3523 113.863C81.3975 118.54 69.0114 123.974 56.2461 129.22Z" fill="#E9E4C8"/>
<path d="M21.0477 171.501C19.7207 160.884 23.3227 150.078 29.3894 141.42C42.0283 123.852 63.1352 114.878 83.4838 109.76C93.8477 107.485 104.528 106.663 115.081 106.979C104.591 107.358 94.0373 108.496 83.7998 111.024C54.9199 118.417 19.7839 137.376 21.0477 171.501Z" fill="#E9E4C8"/>
<path d="M214.991 34.4922C202.541 38.5366 192.557 47.5102 187.059 59.3276C190.155 46.5623 201.972 36.072 214.991 34.4922Z" fill="#E9E4C8"/>
<path d="M130.375 49.0273C128.732 61.7294 127.784 69.4391 136.378 79.8662C126.078 71.9669 126.078 60.2759 130.375 49.0273Z" fill="#E9E4C8"/>
<path d="M22.8789 138.448C29.3247 117.531 45.6921 100.026 65.9143 91.6214L70.5907 89.852C73.3712 88.9673 77.4789 87.8298 80.3226 87.3242C77.6052 88.2089 73.5608 89.536 70.9066 90.6103L66.3566 92.6325C46.8296 101.859 31.0942 118.542 22.8789 138.448Z" fill="#E9E4C8"/>
<path d="M149.014 103.25C150.784 121.324 141.684 132.067 123.105 130.297C118.302 129.665 113.31 126.632 111.793 121.892C113.942 126.19 118.681 128.465 123.231 128.844C132.331 129.476 142.758 126.316 146.297 117.153C148.067 112.856 148.572 108.053 149.014 103.25Z" fill="#CDAA5F"/>
<path d="M176.441 52.9453C160.706 56.737 152.238 72.662 150.405 87.7022C149.584 92.821 149.394 98.0661 149.015 103.248C148.825 100.657 148.699 98.0661 148.636 95.4119C148.51 87.5127 149.457 79.487 152.68 72.0932C156.788 62.4245 165.698 53.8932 176.441 52.9453Z" fill="#E9E4C8"/>
<path d="M181.878 59.3281C178.528 61.224 175.874 63.1198 173.094 65.774C174.231 62.1087 178.023 59.3281 181.878 59.3281Z" fill="#E9E4C8"/>
<path d="M219.349 142.87C219.349 132.948 211.323 124.859 201.339 124.859C191.417 124.859 183.328 132.948 183.328 142.87H219.349Z" fill="#CDAA5F"/>
<path d="M135.934 178.703C125.823 178.703 115.586 178.513 105.664 178.071C95.1739 177.628 87.1482 177.06 79.6912 176.238L78.9961 176.175V173.142L79.6912 173.078C92.3933 171.941 106.043 171.372 122.537 171.309C122.453 171.014 122.39 170.719 122.347 170.424C122.305 170.045 122.305 169.687 122.347 169.35C111.731 169.224 102.884 168.971 94.6683 168.465C93.594 168.402 92.7725 167.517 92.7093 166.317C92.7093 165.116 93.4676 164.168 94.6051 164.042C105.095 163.22 116.028 162.651 127.845 162.272C127.593 161.851 127.382 161.43 127.213 161.008C126.961 160.439 126.834 159.808 126.834 159.176C117.797 159.428 108.95 159.681 99.9134 159.744C97.4489 159.681 96.1218 157.722 95.869 155.826C95.6794 153.93 96.5009 151.845 98.3968 151.087C98.3968 150.708 98.46 150.349 98.5864 150.012C98.797 149.296 99.1762 148.664 99.7238 148.117C99.2815 146.474 99.5343 144.704 100.419 143.377C101.241 142.176 102.504 141.481 104.021 141.418C107.897 141.418 111.794 141.418 115.712 141.418C151.67 141.418 189.46 142.492 225.986 143.503L237.361 143.819L256.446 144.451C257.015 144.451 257.52 145.02 257.52 145.652C257.52 146.284 257.015 146.789 256.446 146.789C226.113 148.053 189.46 149.064 157.168 149.949L142.19 150.392L137.577 150.518C137.577 150.56 137.577 150.581 137.577 150.581C159.948 150.644 184.088 151.024 211.388 151.782L227.313 152.287C227.945 152.287 228.451 152.856 228.451 153.488C228.388 154.12 227.945 154.626 227.377 154.626L211.452 155.637C190.408 156.837 166.394 157.785 149.458 158.417C149.711 158.796 149.9 159.155 150.027 159.492C150.343 160.25 150.469 161.071 150.343 161.83C153.924 161.788 157.505 161.767 161.086 161.767C170.122 161.767 179.665 161.83 190.281 162.019C199.002 162.209 210.504 162.525 222.131 163.346C222.763 163.346 223.269 163.915 223.206 164.547C223.206 165.179 222.763 165.621 222.195 165.685C199.697 167.644 175.747 168.781 148.952 169.16C149.079 169.497 149.163 169.834 149.205 170.171C149.289 170.635 149.268 171.119 149.142 171.625C160.074 172.004 171.829 172.51 183.646 173.837L184.278 173.9V176.68L183.646 176.807C175.999 177.565 167.974 178.071 157.61 178.387C150.595 178.576 143.265 178.703 135.934 178.703Z" fill="#CDAA5F"/>
<path fill-rule="evenodd" clip-rule="evenodd" d="M226.109 142.746L237.358 143.062C237.358 143.062 237.358 143.062 254.673 143.63L256.443 143.694C257.454 143.757 258.275 144.641 258.275 145.716C258.212 146.664 257.454 147.485 256.443 147.548C231.607 148.559 202.538 149.444 175.111 150.203C186.613 150.392 198.683 150.708 211.448 151.024C211.575 151.024 227.373 151.53 227.373 151.53C228.384 151.593 229.206 152.478 229.143 153.552C229.143 154.5 228.384 155.321 227.436 155.384L211.448 156.396C190.91 157.533 167.591 158.481 150.718 159.113C150.718 159.155 150.718 159.197 150.718 159.239C150.971 159.808 151.098 160.44 151.161 161.072C154.384 161.009 157.733 161.009 161.082 161.009C170.056 161.009 179.661 161.135 190.278 161.325C198.999 161.514 210.563 161.83 222.191 162.589C223.202 162.652 224.024 163.537 223.961 164.611C223.897 165.559 223.202 166.317 222.254 166.443C200.01 168.339 176.375 169.54 149.96 169.919C149.96 169.961 149.96 170.003 149.96 170.046C150.002 170.34 150.023 170.635 150.023 170.93C160.703 171.246 172.141 171.815 183.706 173.142L183.643 174.596H185.033V176.049V177.376L183.706 177.503C176.186 178.261 167.844 178.766 157.607 179.146C150.592 179.335 143.261 179.462 135.931 179.462C125.82 179.462 115.582 179.209 105.598 178.83C95.1073 178.387 87.0816 177.818 79.5615 176.997L78.2344 176.871V175.48V173.774V172.447L79.6247 172.321C92.074 171.183 105.471 170.614 121.586 170.551C121.586 170.383 121.586 170.214 121.586 170.046C111.222 169.982 102.627 169.666 94.6649 169.224C93.1483 169.161 92.0108 167.96 92.0108 166.317C91.9476 164.737 93.0219 163.473 94.5385 163.347C104.713 162.525 115.203 161.957 126.578 161.514C126.578 161.43 126.557 161.367 126.515 161.325C126.346 160.903 126.22 160.44 126.136 159.934C117.668 160.187 108.757 160.377 99.8469 160.503C97.3191 160.44 95.4233 158.607 95.1705 155.89C94.9177 153.868 95.7392 151.593 97.6983 150.582C97.7404 150.329 97.7825 150.076 97.8246 149.823C98.0774 149.107 98.4355 148.454 98.8989 147.864C98.583 146.158 98.8989 144.325 99.7837 142.998C100.732 141.545 102.248 140.723 104.018 140.66C107.851 140.66 111.748 140.66 115.709 140.66C151.729 140.66 189.52 141.734 226.109 142.746ZM104.018 142.177C100.732 142.303 99.6573 145.779 100.605 148.307C100.036 148.812 99.5309 149.444 99.2781 150.266C99.1517 150.708 99.0885 151.15 99.1517 151.593C95.4864 152.478 95.8656 158.923 99.9101 158.987C109.2 158.923 118.426 158.671 127.716 158.418C127.526 159.176 127.589 160.061 127.842 160.693C128.221 161.578 128.79 162.399 129.485 162.968C117.857 163.284 106.229 163.916 94.6649 164.8C93.0219 164.99 93.1483 167.644 94.7281 167.707C104.27 168.276 113.813 168.529 123.355 168.592C123.102 169.098 122.976 169.666 123.102 170.362C123.166 170.993 123.418 171.562 123.734 172.068C109.01 172.068 94.2858 172.51 79.7511 173.837V175.48C88.4087 176.428 97.0663 176.934 105.661 177.313C115.582 177.755 125.82 177.945 135.931 177.945C143.198 177.945 150.466 177.818 157.607 177.629C166.264 177.376 174.859 176.934 183.516 176.049L183.579 174.596C171.699 173.268 159.882 172.7 148.064 172.321C148.38 171.752 148.57 170.993 148.443 170.235C148.38 169.54 148.127 168.971 147.748 168.466C172.584 168.087 197.356 167.075 222.128 164.927C222.318 164.927 222.444 164.737 222.444 164.548C222.444 164.295 222.318 164.105 222.128 164.105C211.511 163.347 200.831 163.031 190.215 162.778C180.546 162.589 170.814 162.525 161.082 162.525C157.164 162.525 153.246 162.546 149.328 162.589C149.77 161.83 149.77 160.756 149.391 159.808C149.075 159.113 148.57 158.355 147.938 157.723C168.982 156.964 191.921 156.016 211.385 154.879L227.31 153.931C227.5 153.868 227.689 153.678 227.689 153.489C227.689 153.236 227.5 153.046 227.31 153.046L211.385 152.478C187.182 151.909 161.651 151.403 136.563 151.34C136.605 151.214 136.668 151.066 136.752 150.898C136.837 150.561 136.879 150.203 136.879 149.823C140.102 149.697 142.187 149.634 142.187 149.634C177.513 148.686 221.306 147.485 256.379 146.095C256.569 146.032 256.759 145.905 256.759 145.653C256.759 145.4 256.632 145.21 256.379 145.21L237.358 144.578C198.114 143.504 155.458 142.114 115.709 142.114C111.791 142.114 107.894 142.135 104.018 142.177Z" fill="#E9E4C8"/>
</svg>
