<svg width="257" height="195" viewBox="0 0 257 195" fill="none" xmlns="http://www.w3.org/2000/svg">
<path d="M251.868 74.7928C241.765 48.7549 219.997 44.0681 205.416 53.0251C218.956 77.6049 207.395 140.721 156.152 164.571C160.735 178.424 160.318 193.109 160.318 193.109H198.23C203.645 179.048 207.707 161.239 206.978 138.846C214.894 147.178 227.809 148.845 235.516 143.845C258.95 128.743 259.575 94.6858 251.868 74.7928Z" fill="#4C8FBF"/>
<path d="M151.467 103.014C150.634 105.618 152.196 108.43 154.8 109.159C157.404 109.992 160.112 108.534 160.945 105.93C161.674 103.327 160.216 100.514 157.612 99.7854C155.008 98.9522 152.3 100.41 151.467 103.014Z" fill="#4C8FBF"/>
<path d="M128.969 77.4956C126.366 76.6624 123.554 78.1205 122.824 80.8285C121.991 83.4323 123.449 86.1402 126.053 86.9734C128.657 87.7025 131.469 86.2444 132.198 83.6406C133.031 81.0368 131.573 78.2247 128.969 77.4956Z" fill="#4C8FBF"/>
<path d="M56.8953 83.9554C51.0629 82.289 48.4591 82.9139 48.4591 86.3509C48.4591 89.7879 51.7919 93.7456 55.6455 95.5162C59.6033 97.3909 60.8531 103.536 65.3316 115.722C72.8305 136.448 95.3273 139.781 123.136 128.22C153.34 116.138 165.109 140.718 157.193 153.529C154.381 158.215 146.674 166.027 130.01 166.339C125.115 180.712 129.281 194.044 129.281 194.044H82.6208C82.6208 194.044 78.1422 179.462 81.2668 163.84C74.3928 163.215 67.7271 162.277 61.5822 160.923C55.5414 176.025 63.561 194.044 63.561 194.044C63.561 194.044 34.7111 194.044 21.9004 194.044C10.1313 157.278 10.9645 126.449 14.5057 108.535C9.29812 109.681 5.75694 120.721 5.75694 130.199C5.75694 138.218 1.7992 140.51 0.75768 133.011C-2.67932 107.181 13.2559 89.0588 19.0884 83.6429C32.628 54.1681 54.3957 38.6495 89.8072 41.774C90.6404 50.6269 90.8487 62.0836 101.785 77.1855C99.285 62.7085 97.8269 39.8993 107.825 20.5271C124.698 -12.1765 179.482 -4.46924 181.877 34.171C160.422 26.4638 136.988 33.9627 126.469 50.4186C116.366 66.0413 114.595 97.8075 101.264 110.514C94.5982 116.867 77.4132 121.346 69.706 104.265C67.4147 99.474 68.352 96.4536 71.0599 95.0996C73.6637 93.6415 77.5174 91.0377 77.5174 87.6007C77.5174 84.1637 74.1845 82.3931 69.3935 83.7471C64.6025 85.1011 61.2697 85.2052 56.8953 83.9554Z" fill="#4C8FBF"/>
</svg>
