<svg width="257" height="256" viewBox="0 0 257 256" fill="none" xmlns="http://www.w3.org/2000/svg">
<path fill-rule="evenodd" clip-rule="evenodd" d="M192.599 203.379C190.432 196.551 177.21 193.191 167.889 203.162C176.234 197.96 189.998 199.802 188.698 210.748C187.939 217.684 184.037 224.187 176.018 230.581C165.722 238.818 154.017 247.813 137.869 252.148C129.091 253.665 125.731 246.513 128.874 242.178C143.938 225.162 166.047 190.157 148.815 144.856C136.027 111.259 94.302 95.4361 57.5624 96.845C21.4731 118.845 4.56641 99.7712 4.56641 99.7712C4.56641 99.7712 25.3747 90.6675 32.6359 82.431C36.1039 78.5294 37.1877 73.1106 37.4044 68.0169C40.2222 68.2337 43.907 68.6672 47.8086 68.1253C50.518 67.8002 52.7938 66.608 54.6362 64.7656C57.7792 69.5342 60.5969 76.2535 61.8975 86.0074C73.277 84.9236 117.169 80.3718 153.259 98.7958C152.283 100.747 152.825 102.047 152.825 102.047C152.825 102.047 147.298 100.638 144.914 105.298C142.854 109.2 144.914 111.367 144.914 111.367C145.672 108.008 150.116 104.648 156.185 105.732C156.185 105.732 156.51 103.456 157.919 101.397C163.879 104.865 169.732 109.2 174.934 114.294C172.008 116.353 172.116 118.629 172.116 118.629C164.421 113.752 157.702 122.097 159.544 126.215C161.929 121.121 168.54 120.146 173.85 122.422C173.85 122.422 175.042 119.171 178.185 117.436C183.821 123.614 188.481 130.442 191.732 136.944C187.506 137.811 185.23 140.412 185.013 142.146C177.427 135.102 168.106 143.013 169.298 147.999C169.298 147.999 172.658 143.555 178.619 144.097C182.737 144.422 186.097 146.698 186.097 146.698C186.097 146.698 188.914 142.146 193.791 141.713C196.717 148.757 198.343 156.127 198.993 163.388C195.2 163.063 190.54 165.23 189.89 167.831C183.062 159.378 172.224 166.314 172.658 171.733C172.658 171.733 176.776 167.506 182.954 168.915C187.072 169.891 190.323 172.708 190.323 172.708C190.323 172.708 194.008 168.373 199.21 168.698C199.427 180.945 196.934 192.866 192.599 203.379ZM167.889 221.153C167.889 219.093 166.155 217.359 164.096 217.359C162.037 217.359 160.303 219.093 160.303 221.153C160.303 223.212 162.037 224.946 164.096 224.946C166.155 224.946 167.889 223.212 167.889 221.153Z" fill="#3378B7"/>
<path fill-rule="evenodd" clip-rule="evenodd" d="M247.438 255.079C243.211 255.512 237.034 254.32 217.093 255.079C212.107 255.296 211.132 252.369 216.009 248.576C224.354 242.074 234.108 233.078 240.61 215.738C243.211 208.802 246.571 196.664 249.064 190.812C250.689 185.826 256.108 183.55 256.108 196.881C256.108 199.157 255.891 227.876 256.108 233.078C257.192 254.754 252.965 254.537 247.438 255.079ZM242.019 228.31C242.886 229.936 244.729 230.477 246.138 229.719C247.547 228.96 247.98 227.009 247.113 225.492C246.246 223.975 244.404 223.325 242.995 224.083C241.586 224.95 241.152 226.793 242.019 228.31ZM232.265 248.576C232.374 246.951 231.073 245.542 229.339 245.325C227.605 245.108 225.98 246.3 225.871 247.926C225.654 249.552 226.955 250.961 228.689 251.177C230.531 251.286 232.049 250.202 232.265 248.576ZM246.788 240.123C244.945 238.497 241.911 238.822 240.069 240.882C238.226 242.941 238.335 245.975 240.177 247.601C242.128 249.335 245.054 249.01 246.896 246.842C248.739 244.783 248.63 241.749 246.788 240.123ZM253.182 213.896C253.29 212.704 252.315 211.728 251.123 211.512C249.822 211.403 248.739 212.27 248.63 213.354C248.414 214.546 249.389 215.63 250.689 215.738C251.882 215.847 253.074 214.98 253.182 213.896Z" fill="#FBB03B"/>
<path d="M5.54097 234.379C3.37344 231.236 0.447265 234.921 0.338889 238.605C0.230513 242.073 -0.636477 249.226 9.87602 253.67C18.221 257.138 26.1324 253.67 27.8664 250.96C30.2507 247.167 13.9943 246.625 5.54097 234.379Z" fill="#8CC63F"/>
<path d="M7.27118 128.28C7.27118 130.014 5.97067 131.423 4.23665 131.423C2.50263 131.423 1.09375 130.014 1.09375 128.28C1.09375 126.546 2.50263 125.137 4.23665 125.137C5.97067 125.137 7.27118 126.546 7.27118 128.28Z" fill="#8C6239"/>
<path d="M13.1295 84.1697C13.1295 87.3126 10.6368 89.8053 7.49393 89.8053C4.35102 89.8053 1.75 87.3126 1.75 84.1697C1.75 81.0268 4.35102 78.4258 7.49393 78.4258C10.6368 78.4258 13.1295 81.0268 13.1295 84.1697Z" fill="#8C6239"/>
<path d="M13.5599 170.653C13.5599 174.121 10.7421 176.939 7.27409 176.939C3.80605 176.939 0.988281 174.121 0.988281 170.653C0.988281 167.185 3.80605 164.367 7.27409 164.367C10.7421 164.367 13.5599 167.185 13.5599 170.653Z" fill="#8C6239"/>
<path d="M207.771 130.878C207.771 133.154 206.037 134.888 203.761 134.888C201.593 134.888 199.859 133.154 199.859 130.878C199.859 128.711 201.593 126.977 203.761 126.977C206.037 126.977 207.771 128.711 207.771 130.878Z" fill="#8C6239"/>
<path d="M169.625 248.25C169.625 250.201 168.107 251.718 166.265 251.718C164.314 251.718 162.797 250.093 162.797 248.25C162.797 246.408 164.314 244.891 166.265 244.891C168.107 244.891 169.625 246.408 169.625 248.25Z" fill="#8C6239"/>
<path d="M17.0303 115.272C17.0303 117.874 14.9711 120.041 12.3701 120.041C9.76908 120.041 7.60156 117.874 7.60156 115.272C7.60156 112.671 9.76908 110.504 12.3701 110.504C14.9711 110.504 17.0303 112.671 17.0303 115.272Z" fill="#8C6239"/>
<path d="M16.5944 186.584C16.5944 188.318 15.1855 189.727 13.4515 189.727C11.7175 189.727 10.3086 188.318 10.3086 186.584C10.3086 184.85 11.7175 183.441 13.4515 183.441C15.1855 183.441 16.5944 184.85 16.5944 186.584Z" fill="#8C6239"/>
<path d="M88.4501 205.553C101.672 198.834 104.165 186.696 104.273 179.326C104.273 174.558 103.623 162.961 91.0512 154.942C78.5879 146.922 60.7058 145.946 45.0996 152.449C29.4935 159.06 21.9071 169.031 23.4244 171.415C25.5919 174.991 30.0353 170.981 39.8976 167.73C48.676 164.696 58.755 165.237 62.6566 170.006C67.4251 175.642 66.3414 183.119 61.7896 187.563C57.3462 191.898 47.2672 191.356 38.8138 187.455C29.3851 183.119 25.3752 178.676 22.8825 182.036C21.1485 184.312 27.5427 195.041 42.3902 203.169C57.2378 211.297 75.2282 212.164 88.4501 205.553Z" fill="#E58961"/>
<path d="M82.2729 185.068C78.4798 184.851 75.4452 182.467 75.5536 179.866C75.7703 177.265 78.9133 175.314 82.7064 175.422C86.4996 175.639 89.5341 177.915 89.3174 180.624C89.209 183.225 86.0661 185.176 82.2729 185.068Z" fill="white"/>
<path d="M200.725 120.475C216.439 118.633 223.05 111.913 223.158 116.465C223.267 124.16 224.459 128.495 229.986 130.121C240.282 133.047 249.927 124.052 251.661 110.396C253.395 96.6324 245.592 83.0854 236.38 80.376C228.035 77.8833 221.75 81.7848 221.533 87.5288C221.533 89.2628 221.641 91.1052 221.641 92.9476C221.966 105.302 207.336 96.4156 195.956 96.6324C183.601 96.8491 183.276 122.534 200.725 120.475Z" fill="#C69C6D"/>
<path d="M233.891 137.163C231.94 137.163 230.026 136.874 228.147 136.296C222.837 134.779 219.911 131.419 218.393 127.734C211.782 134.454 207.447 147.784 207.339 168.917C207.122 204.79 193.033 211.834 188.481 228.958C187.614 232.426 187.506 235.46 188.048 237.845C187.976 237.989 187.94 238.098 187.94 238.17C186.206 242.722 179.161 247.598 176.56 248.574C174.067 249.441 181.329 253.884 181.329 253.884C181.329 253.884 188.807 246.84 196.501 246.19C203.112 247.599 208.856 245.106 210.59 244.239C225.004 236.544 235.408 214.219 244.295 186.366C252.207 161.765 252.64 143.015 247.221 132.286C243.32 135.429 238.768 137.163 233.891 137.163Z" fill="#8CC63F"/>
<path d="M128.004 131.098C114.241 116.142 95.2746 107.146 74.4664 105.738C53.7665 104.437 33.7169 110.94 18.2191 123.945C12.9087 128.388 11.3914 135.433 13.9925 141.393L6.94802 143.561C4.99725 144.211 4.347 146.812 5.97264 148.329L13.559 155.374C15.0762 156.891 17.6773 156.024 18.1108 153.965L19.4113 148.004C25.372 152.231 33.8253 152.123 39.5693 147.246C58.4267 131.423 87.2548 133.373 103.836 151.364C120.526 169.571 118.792 196.99 99.9348 212.813C81.1857 228.636 52.3577 226.794 35.7761 208.695C30.7908 203.276 22.8793 201.976 16.4851 204.902L15.1846 198.616C14.6427 196.557 12.1501 195.798 10.5244 197.207L2.93809 204.252C1.42082 205.769 1.9627 208.37 4.02185 209.02L9.76581 210.754C6.29777 216.39 6.83963 223.868 11.6082 228.961C25.372 244.026 44.3378 253.021 65.1461 254.321C85.8459 255.622 105.896 249.228 121.393 236.114C153.581 209.128 156.507 161.985 128.004 131.098Z" fill="#EAA4A4"/>
<path d="M152.065 55.014C149.356 54.6889 149.572 56.9648 148.163 59.5658C146.755 62.3836 145.237 64.8763 144.153 64.7679C143.07 64.6595 145.129 60.4328 144.804 57.3983C144.479 54.6889 143.07 53.6051 140.36 53.3884C132.232 52.7381 123.237 52.6298 114.458 52.9549C109.798 53.1716 103.079 52.8465 100.803 54.6889C99.5025 55.7727 99.3941 58.2653 99.069 59.4575C98.6355 60.8663 96.3596 61.2999 96.6847 58.0486C96.7931 56.3145 96.0344 54.9057 95.2758 54.9057C92.1329 55.014 90.5072 55.4475 88.0146 55.9894C76.31 58.3737 68.1818 61.9501 68.2901 66.3935C68.3985 69.9699 70.0242 73.0045 81.4037 74.7385C91.9162 76.3641 99.8276 77.1228 113.375 79.7238C114.567 80.0489 116.084 80.2657 117.059 80.1573C119.986 80.0489 121.936 74.9553 122.045 72.3542C122.153 69.7532 124.321 71.2705 124.537 73.0045C124.646 74.7385 123.128 79.3987 123.887 80.916C124.429 82.1081 125.296 82.2165 126.38 82.4332C131.148 83.6254 134.616 84.0589 150.873 88.719C171.031 94.5714 180.243 57.8318 152.065 55.014Z" fill="#F7931E"/>
<path d="M20.8205 76.9071C27.4314 77.4489 30.5743 75.2814 29.8157 70.2961C29.6712 69.0679 29.5267 67.8035 29.3822 66.503C29.599 58.3747 39.0277 62.8181 46.8308 61.7344C55.3925 60.5422 52.2496 43.4188 42.7125 46.7785C32.2 50.4633 29.2738 55.3402 27.5398 52.5224C26.456 47.3203 24.9388 43.4188 22.121 43.0937C14.5347 42.4434 7.38181 48.6209 7.27344 58.3747C7.27344 68.1286 14.1012 76.3652 20.7121 76.9071H20.8205Z" fill="#C69C6D"/>
<path d="M151.091 31.2813C150.224 25.8624 151.524 20.7688 154.884 16.5421C157.268 13.5075 160.52 11.34 163.337 10.1479C159.327 8.19712 154.342 6.13797 149.248 6.35472C139.928 6.8966 132.559 20.552 130.499 28.3551C128.223 36.7001 123.347 35.5079 123.347 29.6556C123.347 23.6949 128.223 13.2908 130.499 7.43849C132.775 1.47779 127.898 1.04429 127.248 0.935912C120.312 -0.256227 111.534 -0.0394809 105.573 1.36941C96.4692 3.53693 86.9321 15.35 84.6562 23.6949C82.3803 32.1483 77.395 30.8478 77.395 24.9954C77.395 19.1431 81.0798 11.1233 83.3557 5.27096C84.006 3.42857 85.3065 1.15267 82.1636 0.719163C70.5673 -1.01486 62.981 0.610773 56.9119 3.2118C48.3502 7.00497 43.0398 16.1086 39.6801 23.3698C35.9953 31.2813 32.5273 30.4143 32.5273 24.5619C32.5273 18.7096 35.9953 9.28089 37.2958 6.67986C39.2466 2.45318 24.8325 2.88668 13.3447 10.3646C6.84208 14.5913 2.61543 19.685 2.83218 28.3551C2.94056 32.9069 5.32483 37.0252 9.33475 40.4932C12.586 38.0006 16.5959 36.5917 20.931 36.5917C25.8079 36.5917 29.4927 38.5425 31.9854 44.5032C35.4534 42.6608 41.1974 39.843 45.0989 39.843C51.7099 39.843 57.237 45.3702 58.2124 52.7398C63.4145 52.6314 68.7249 52.1979 74.1437 51.3309C94.952 48.188 132.992 46.2372 154.667 48.8382C158.46 49.3801 163.554 47.4293 164.855 46.0204C161.387 45.1534 152.933 42.6608 151.091 31.2813Z" fill="#DB9F40"/>
<path d="M250.143 58.6998C254.912 55.015 259.464 44.1774 252.853 34.5319C249.06 29.0047 252.853 29.2215 253.936 21.31C255.562 9.82213 247.976 4.40332 242.449 3.42794C229.769 1.26041 226.951 7.76299 224.566 7.76299C218.714 7.76299 217.089 0.718525 208.418 1.15203C199.64 1.47716 198.556 8.19649 193.246 7.76299C189.344 7.54623 185.334 -1.23224 176.664 2.56092C168.102 6.35409 172.329 15.2409 168.428 15.4577C165.068 15.6744 155.964 20.6598 157.482 30.1969C158.89 38.4335 164.96 39.3005 167.669 40.0591C173.846 41.9015 181.216 34.3152 185.118 39.3005C189.019 44.3941 187.285 45.3695 193.463 49.7046C203.65 56.8574 208.093 46.67 211.345 55.7736C213.404 61.1925 215.896 62.8181 217.739 64.4437C219.148 65.6359 219.906 68.3453 219.906 69.8626C219.906 72.2468 221.098 74.5227 223.916 74.306C225.65 74.1976 230.202 71.8133 238.222 74.0892C243.532 75.7149 248.084 79.3997 251.661 84.385C254.587 80.9169 255.562 75.9316 254.912 72.1385C253.503 63.9019 245.375 62.493 250.143 58.6998Z" fill="#009245"/>
<path d="M216.441 81.7831C213.515 82.5417 210.48 83.3003 207.771 83.9506C203.869 84.926 206.362 78.5318 210.047 73.8716C211.564 71.9208 214.49 68.0193 217.2 64.0094C215.574 62.6005 213.406 60.8664 211.672 56.3146C208.963 60.4329 205.495 65.2015 200.943 69.8617C198.125 72.5711 198.017 68.9947 199.209 65.635C200.726 61.3 202.569 56.7481 204.194 52.088C201.919 52.5215 199.101 52.8466 195.416 50.8958C194.91 52.4853 194.26 54.1471 193.465 55.8811C188.805 65.635 186.312 53.7136 186.312 53.7136L182.736 37.6739C179.16 36.9153 174.391 40.275 169.948 40.3833C173.958 44.61 176.992 50.6791 178.184 57.6152C178.943 61.8418 179.051 75.0637 170.273 91.862C168.539 95.2217 173.958 100.315 176.775 101.941C178.076 102.7 179.593 103.242 181.11 103.458C182.736 95.7636 188.48 90.2364 195.85 90.128C195.994 90.128 196.139 90.128 196.283 90.128C200.51 90.128 204.736 90.995 208.53 91.862C211.022 92.4039 213.406 92.9458 215.141 93.0542V92.9458C215.141 92.2233 215.104 91.5369 215.032 90.8867C215.032 89.6945 215.032 88.5024 215.032 87.3102C215.14 85.2511 215.574 83.4087 216.441 81.7831Z" fill="#8CC63F"/>
</svg>
