<svg width="221" height="256" viewBox="0 0 221 256" fill="none" xmlns="http://www.w3.org/2000/svg">
<path fill-rule="evenodd" clip-rule="evenodd" d="M175.898 247.069C174.529 249.864 172.83 252.877 170.858 256C170.858 256 168.557 240.549 130.478 248.001C121.054 250.576 111.083 251.836 100.728 251.562C83.9074 251.069 68.6761 246.85 55.4719 239.837C47.5274 231.838 40.2953 223.072 34.1589 213.648C33.2274 212.223 32.296 210.799 31.4194 209.374L28.8991 204.936C28.4608 204.169 28.0773 203.457 27.639 202.69L26.5432 200.444C25.8309 198.91 25.0091 197.376 24.3516 195.841C21.6121 189.65 19.3658 183.185 17.7221 176.61C14.5443 163.406 13.9417 149.545 16.188 136.012C17.2838 129.218 19.0371 122.534 21.4478 116.123C23.9133 109.713 26.8171 103.412 30.7072 97.6592C26.598 103.248 23.3654 109.384 20.5712 115.794C17.8865 122.15 15.8045 128.834 14.38 135.628C11.4762 149.325 11.4214 163.571 14.106 177.378C15.5306 184.281 17.5578 191.075 20.0781 197.595C20.7355 199.238 21.5026 200.827 22.16 202.471L23.201 204.882C23.5846 205.704 24.0229 206.471 24.4064 207.238L26.8171 211.949C27.639 213.484 28.5704 215.018 29.447 216.552C31.3098 219.693 33.264 222.761 35.3094 225.756C-6.0016 188.5 -14.5487 119.246 32.1317 74.2643C32.6796 73.7164 33.2457 73.1867 33.8301 72.6754C25.557 69.8263 23.3106 62.4846 23.3106 62.4846C23.3106 62.4846 39.4186 42.377 68.7308 47.8559C66.2105 48.8786 63.7816 50.0475 61.4439 51.3624C60.0742 52.0747 58.7592 52.9513 57.3895 53.7731C56.1293 54.7045 54.8144 55.5812 53.609 56.5674C51.0887 58.485 48.8972 60.7314 46.7604 62.9777C49.1163 60.8957 51.4723 58.8685 54.1021 57.2248C55.3623 56.3482 56.732 55.636 58.047 54.8141C59.6906 53.8279 86.6469 43.0344 116.178 46.267C117.11 45.9383 118.096 45.6095 119.082 45.3904C125.109 43.6371 131.903 41.1168 135.354 35.6927C136.122 34.4325 136.615 32.6793 136.286 31.4739C134.533 29.5015 133.108 27.1456 132.341 24.5705C129.109 14.051 137.601 3.96976 147.353 1.33988C156.722 -1.50916 166.749 0.518037 175.46 4.29849C166.749 1.17551 156.777 -0.194221 147.956 3.09313C137.163 6.764 130.15 19.6395 139.299 28.5701C141.655 31.3643 140.779 34.9804 139.409 37.8295C136.779 42.8701 132.286 45.9383 127.41 48.2394C133.272 49.8283 138.697 52.7869 143.025 56.8961C147.079 73.1685 140.45 101.221 121.986 111.357C138.368 105.713 149.874 87.5233 151.134 68.8949C155.188 79.3049 154.038 93.7144 134.642 110.589C132.505 112.398 130.423 113.986 128.451 115.247C131.081 117.219 132.615 120.232 131.519 124.396C130.15 129.492 125.602 133.437 124.78 138.587C123.958 142.312 127.794 142.97 130.697 143.134C132.999 143.299 135.245 143.737 137.491 144.614C141.107 145.874 144.34 149.545 143.573 153.599C141.053 166.091 121.274 174.09 110.425 177.706C121 173.159 134.752 166.584 139.902 155.9C141.546 152.229 140.012 149.216 136.231 148.12C131.848 146.641 127.739 148.394 123.246 145.819C116.836 141.819 120.397 133.053 123.191 127.958C124.123 126.15 125.821 123.52 125.218 121.547C124.725 120.78 123.739 120.452 122.698 120.232C121.602 119.958 120.342 119.904 119.137 119.904C108.124 123.739 100.399 120.78 99.3032 120.671C99.3032 120.671 91.6875 114.425 79.7435 121.383C79.7435 121.383 92.3998 118.041 98.2074 124.122C94.0982 141.162 78.6477 152.394 78.6477 152.394C71.799 149.654 65.2243 138.861 61.8822 130.971C33.8301 156.229 37.6106 207.566 62.0466 220.442C62.0466 220.442 50.8148 209.813 47.911 198.964C53.5542 205.977 62.4849 213.812 74.7029 214.525C74.7029 214.525 66.4297 219.401 68.1282 226.359C68.5299 226.87 69.0596 227.4 69.7171 227.948C71.5251 229.811 73.4427 231.454 75.4151 233.043C77.972 234.979 80.6384 236.751 83.4143 238.358C88.9481 241.536 94.8653 244.001 101.002 245.645C104.07 246.412 107.193 247.124 110.371 247.508C111.905 247.727 113.494 247.836 115.082 248.001C116.671 248.056 118.205 248.22 119.794 248.22C126.15 248.33 132.451 247.672 138.587 246.521C132.396 247.453 126.095 247.782 119.849 247.453C118.26 247.398 116.726 247.179 115.137 247.015C113.603 246.795 112.069 246.631 110.535 246.357C107.467 245.809 104.399 245.042 101.44 244.111C95.5228 242.303 89.8247 239.673 84.6197 236.331C83.3778 235.564 82.1542 234.742 80.9488 233.865C94.9201 238.741 117.384 240.002 136.889 221.483C139.135 221.702 141.272 222.524 142.97 224.113C144.176 225.263 145.217 226.688 146.038 228.277C146.915 229.811 147.572 231.454 147.846 233.208C148.504 236.769 147.901 240.604 146.148 243.946C148.34 240.878 149.6 237.043 149.49 233.043C149.381 231.071 148.997 229.099 148.23 227.236C147.518 225.428 146.531 223.62 145.107 222.031C143.737 220.442 141.929 219.127 139.902 218.36C145.326 212.552 150.422 205.101 154.969 195.677C154.969 195.677 158.969 196.718 163.845 199.403C163.68 199.677 163.516 199.951 163.352 200.225C161.653 203.183 160.064 205.868 157.654 207.073C160.448 206.251 162.859 203.293 164.721 201.156C164.941 200.882 165.16 200.553 165.434 200.279C168.392 202.087 171.57 204.443 174.255 207.566C173.926 207.786 173.597 208.114 173.214 208.333C170.42 210.306 167.844 212.114 165.16 212.223C168.064 212.607 171.461 210.963 174.036 209.758C174.529 209.539 175.022 209.265 175.515 208.991C177.542 211.621 179.241 214.744 180.282 218.305C178.912 218.962 171.844 222.085 170.255 222.414C171.844 222.359 178.912 220.332 180.665 219.839C181.487 223.455 181.651 227.564 180.884 232.221C179.46 232.55 178.09 232.934 176.72 233.427C175.296 233.975 173.762 234.577 172.721 235.673C173.981 234.797 175.46 234.523 176.939 234.194C178.145 234.03 179.35 233.92 180.61 233.81C179.843 237.426 178.583 241.317 176.611 245.59C175.077 245.316 173.597 245.042 172.063 244.933C170.529 244.823 168.885 244.768 167.461 245.316C168.94 244.987 170.474 245.371 171.899 245.7C173.269 246.083 174.584 246.576 175.898 247.069ZM99.358 94.865C99.358 97.1661 101.221 99.029 103.522 99.029C105.878 99.029 107.741 97.1661 107.741 94.865C107.741 92.5091 105.878 90.6462 103.522 90.6462C101.221 90.6462 99.358 92.5091 99.358 94.865Z" fill="url(#paint0_linear_22_5951)"/>
<path d="M75.6338 43.5821C83.8522 41.7192 93.9882 40.1851 104.836 40.1851C108.453 40.1851 112.069 40.3495 115.52 40.6782C116.178 40.5139 116.835 40.2947 117.602 40.0756C120.67 39.1989 123.848 38.1031 126.478 36.569C120.616 35.6376 114.534 35.1445 108.398 35.1445C94.4813 35.1445 81.1127 37.6648 68.7852 42.3219C69.1139 42.395 69.4244 42.4498 69.7166 42.4863L75.6338 43.5821Z" fill="url(#paint1_linear_22_5951)"/>
<path d="M185.156 230.523C186.855 228.825 188.115 228.167 189.759 226.359Z" fill="url(#paint2_linear_22_5951)"/>
<path d="M182.421 79.0859C180.448 79.0859 178.805 80.7296 178.805 82.702C178.805 84.7292 180.448 86.3181 182.421 86.3181C184.448 86.3181 186.037 84.7292 186.037 82.702C186.037 80.7296 184.448 79.0859 182.421 79.0859Z" fill="url(#paint3_linear_22_5951)"/>
<path fill-rule="evenodd" clip-rule="evenodd" d="M220.276 147.025C220.276 175.625 209.537 201.705 191.84 221.484C190.891 222.543 189.923 223.584 188.936 224.607C185.211 191.404 151.954 189.213 151.954 189.213L150.036 193.267C145.927 201.759 141.16 208.937 135.901 214.635L134.476 216.224L133.106 217.484C123.354 226.798 111.958 231.51 99.3562 231.51C86.6451 231.51 75.1942 225.757 73.6601 224.168L73.4409 223.949C73.8792 221.867 76.6735 219.785 77.4953 219.237L93.0006 210.087L75.0298 209.046C65.2773 208.499 54.4838 198.472 49.3337 192.391C48.8588 190.418 48.4936 188.373 48.2379 186.254C46.5394 172.612 49.0597 154.257 60.4559 140.45C63.9076 146.642 69.5509 154.641 76.5639 157.49L79.4129 158.586L81.8236 156.832C82.5359 156.339 98.0413 144.888 103.082 127.027C104.452 127.191 106.095 127.356 107.958 127.356C111.3 127.356 114.642 126.917 117.985 125.986C109.711 141.601 116.834 148.285 120.34 150.477L120.505 150.586C124.285 152.723 127.737 152.778 130.531 152.888C132.12 152.888 133.38 152.942 134.421 153.326L134.586 153.381L134.75 153.435C134.86 153.435 134.933 153.454 134.969 153.49C134.969 153.527 134.969 153.563 134.969 153.6C131.298 162.366 88.3436 185.761 88.3436 185.761C88.3436 185.761 143.133 183.186 148.94 154.696L148.995 154.586C150.31 147.409 145.05 141.437 139.407 139.464C136.887 138.478 134.202 137.93 131.079 137.711C130.97 137.674 130.86 137.656 130.75 137.656C131.243 136.506 132.065 135.191 132.887 133.93C134.312 131.575 135.955 128.999 136.777 125.822C137.654 122.425 137.435 119.192 136.229 116.398C136.887 115.85 137.544 115.284 138.202 114.699C151.132 103.468 156.885 92.5098 158.748 83.0861C160.501 73.9363 156.611 64.5674 149.05 59.1432C148.831 57.9379 148.612 56.7325 148.338 55.5271L147.954 53.993L146.749 52.8973C144.448 50.7057 141.818 48.7881 139.024 47.1444C140.886 45.4459 142.585 43.364 143.955 40.8984C188.334 55.7463 220.276 97.66 220.276 147.025ZM161.925 63.1428C161.925 65.0057 163.405 66.485 165.268 66.485C167.13 66.485 168.664 65.0057 168.664 63.1428C168.664 61.28 167.13 59.7459 165.268 59.7459C163.405 59.7459 161.925 61.28 161.925 63.1428ZM168.226 104.892C168.226 101.879 165.815 99.4681 162.802 99.4681C159.843 99.4681 157.433 101.879 157.433 104.892C157.433 107.851 159.843 110.262 162.802 110.262C165.815 110.262 168.226 107.851 168.226 104.892ZM184.553 121.986C184.553 120.507 183.348 119.302 181.814 119.302C180.335 119.302 179.129 120.507 179.129 121.986C179.129 123.466 180.335 124.671 181.814 124.671C183.348 124.671 184.553 123.466 184.553 121.986ZM190.251 84.8942C190.251 78.7578 185.266 73.7719 179.129 73.7719C172.993 73.7719 168.007 78.7578 168.007 84.8942C168.007 91.0305 172.993 96.0163 179.129 96.0163C185.266 96.0163 190.251 91.0305 190.251 84.8942Z" fill="url(#paint4_linear_22_5951)"/>
<defs>
<linearGradient id="paint0_linear_22_5951" x1="119.319" y1="-180.785" x2="267.558" y2="-5.44915" gradientUnits="userSpaceOnUse">
<stop stop-color="#196EE2"/>
<stop offset="1" stop-color="#0B1866"/>
</linearGradient>
<linearGradient id="paint1_linear_22_5951" x1="148.353" y1="88.3015" x2="72.29" y2="22.0527" gradientUnits="userSpaceOnUse">
<stop stop-color="#EA1C1C"/>
<stop offset="1" stop-color="#E7D800"/>
</linearGradient>
<linearGradient id="paint2_linear_22_5951" x1="187.555" y1="224.32" x2="191.552" y2="228.996" gradientUnits="userSpaceOnUse">
<stop stop-color="#EAEAEA"/>
<stop offset="1" stop-color="white"/>
</linearGradient>
<linearGradient id="paint3_linear_22_5951" x1="204.641" y1="108.844" x2="156.864" y2="67.2323" gradientUnits="userSpaceOnUse">
<stop stop-color="#EA1C1C"/>
<stop offset="1" stop-color="#E7D800"/>
</linearGradient>
<linearGradient id="paint4_linear_22_5951" x1="680.548" y1="799.243" x2="-513.799" y2="-240.995" gradientUnits="userSpaceOnUse">
<stop stop-color="#EA1C1C"/>
<stop offset="1" stop-color="#E7D800"/>
</linearGradient>
</defs>
</svg>
