<svg width="257" height="150" viewBox="0 0 257 150" fill="none" xmlns="http://www.w3.org/2000/svg">
<path d="M256.7 74.6791C256.7 115.844 223.352 149.226 182.187 149.226C162.219 149.226 144.094 141.376 130.748 128.61C136.824 122.807 141.944 115.98 145.767 108.437C154.846 118.199 167.783 124.343 182.187 124.343C201.165 124.343 217.686 113.659 226.014 97.9922C233.66 84.885 244.992 77.4098 250.522 74.6791C244.992 72.0167 233.66 64.5074 226.014 51.4002C217.651 35.733 201.165 25.0493 182.187 25.0493C167.783 25.0493 154.812 31.1933 145.767 40.9895C141.91 33.4119 136.824 26.5853 130.748 20.7826C139.589 12.3517 150.511 6.037 162.697 2.7602H162.731C168.909 1.08766 175.463 0.200195 182.187 0.200195C196.659 0.200195 210.176 4.33033 221.611 11.4642C242.671 24.6397 256.7 48.021 256.7 74.6791Z" fill="url(#paint0_linear_1_723)"/>
<path style="mix-blend-mode:multiply" d="M182.187 25.0493C167.783 25.0493 154.812 31.1933 145.767 40.9895C141.91 33.4119 136.824 26.5853 130.748 20.7826C144.094 8.01673 162.219 0.200195 182.187 0.200195" fill="url(#paint1_linear_1_723)"/>
<path style="mix-blend-mode:multiply" d="M182.187 124.343C167.783 124.343 154.812 118.199 145.767 108.437C141.91 115.98 136.824 122.807 130.748 128.61C144.094 141.376 162.219 149.192 182.187 149.192" fill="url(#paint2_linear_1_723)"/>
<path d="M154.675 55.4279C148.429 32.0466 131.055 13.1709 108.595 4.8082C107.731 4.48962 106.855 4.1938 105.967 3.92073C105.922 3.89798 105.876 3.87522 105.831 3.85246C103.646 3.14704 101.416 2.53264 99.1405 2.00926C99.095 2.00926 99.0495 1.99788 99.004 1.97513C93.7816 0.814594 88.2861 0.200195 82.6883 0.200195C48.2136 0.200195 19.2003 23.6157 10.7011 55.4279C8.9944 61.0941 4.8984 63.5175 0.699997 65.7021H25.9928C30.9763 65.1901 34.0483 61.5378 36.6083 56.2471C37.1772 54.7908 37.8257 53.3799 38.5539 52.0146C38.588 51.9463 38.588 51.9122 38.6221 51.8781C46.8483 35.9378 63.5053 25.0493 82.6883 25.0493C103.578 25.0493 121.464 37.9858 128.768 56.2471C131.328 61.5378 134.4 65.1901 139.384 65.7021H164.642C160.512 63.5175 156.382 61.0941 154.675 55.4279ZM92.6552 83.6903C92.6552 95.2957 100.13 98.6749 106.309 98.6749C110.678 98.6749 108.8 98.6749 112.179 98.6749C115.49 98.6749 118.835 101.235 119.04 104.853C119.063 105.217 119.052 105.593 119.006 105.979C118.835 107.55 118.05 109.29 116.446 111.065C107.606 119.291 95.7272 124.343 82.6883 124.343C61.7987 124.343 43.9128 111.407 36.6083 93.1453C34.0483 87.8546 30.9763 84.2023 25.9928 83.6903H0.699997C4.8984 85.8749 8.9944 88.2983 10.7011 93.9645C17.1864 118.267 35.6867 137.689 59.4093 145.506C64.4611 147.144 69.7517 148.305 75.2131 148.851C75.2358 148.851 75.2472 148.851 75.2472 148.851C77.7048 149.101 80.1852 149.226 82.6883 149.226C117.163 149.226 146.176 125.777 154.675 93.9645C156.382 88.2983 160.512 85.8749 164.642 83.6903H92.6552Z" fill="url(#paint3_linear_1_723)"/>
<path style="mix-blend-mode:multiply" d="M164.642 65.7018H139.384C134.4 65.1898 131.328 61.5376 128.768 56.2469C121.464 37.9856 103.578 25.049 82.6883 25.049C63.5053 25.049 46.8824 35.9376 38.588 51.8778C57.8051 6.6853 90.1293 -0.516838 105.831 3.85223C105.876 3.87498 105.922 3.88636 105.967 3.88636C106.9 4.15943 107.776 4.46663 108.595 4.80796C131.055 13.1706 148.429 32.0464 154.675 55.4277C156.382 61.0938 160.512 63.5173 164.642 65.7018Z" fill="url(#paint4_linear_1_723)"/>
<path style="mix-blend-mode:multiply" d="M119.006 105.98C117.982 124.138 92.1432 152.708 59.4093 145.506C35.6525 137.689 17.1864 118.267 10.7011 93.9646C8.9944 88.2984 4.86426 85.875 0.734131 83.6904H25.9928C30.9763 84.2024 34.0483 87.8547 36.6083 93.1454C43.9128 111.407 61.7987 124.343 82.6883 124.343C95.7272 124.343 107.606 119.292 116.446 111.065C118.05 109.29 118.835 107.55 119.006 105.98Z" fill="url(#paint5_linear_1_723)"/>
<path style="mix-blend-mode:multiply" d="M226.014 51.4C217.651 35.7328 201.165 25.049 182.187 25.049C167.783 25.049 154.812 31.193 145.767 40.9893C141.91 33.4117 136.824 26.585 130.748 20.7824C139.589 12.3514 150.545 6.03675 162.697 2.75995C195.123 -2.76965 210.518 21.9429 226.014 51.4Z" fill="url(#paint6_linear_1_723)"/>
<path style="mix-blend-mode:multiply" d="M226.014 97.9922C217.651 113.659 201.165 124.343 182.187 124.343C167.783 124.343 154.812 118.199 145.767 108.403C141.91 115.98 136.824 122.807 130.748 128.61C139.589 137.041 150.545 143.355 162.697 146.632C195.123 152.162 210.518 127.449 226.014 97.9922Z" fill="url(#paint7_linear_1_723)"/>
<path style="mix-blend-mode:multiply" d="M99.004 1.97513C83.7464 -1.26754 62.3448 6.1394 50.5005 14.5362C37.1885 23.957 30.8739 36.7229 25.1053 53.1069C20.6339 65.7703 16.2307 65.7021 7.356 65.7021H0.699997C4.8984 63.5175 8.9944 61.0941 10.7011 55.4279C19.2003 23.6157 48.2136 0.200195 82.6883 0.200195C88.2861 0.200195 93.7816 0.814594 99.004 1.97513Z" fill="url(#paint8_linear_1_723)"/>
<path style="mix-blend-mode:multiply" d="M164.642 83.6904C160.512 85.875 156.382 88.2984 154.675 93.9646C146.176 125.777 117.163 149.226 82.6883 149.226C80.1851 149.226 77.7048 149.101 75.2472 148.851C126.823 146.871 137.848 104.853 136.755 97.9923C135.697 91.1315 124.126 92.4627 113.101 92.4627C102.11 92.4627 96.7171 91.9507 92.6552 83.6904H164.642Z" fill="url(#paint9_linear_1_723)"/>
<path style="mix-blend-mode:multiply" d="M250.522 74.6791C244.992 72.0167 233.66 64.5074 226.014 51.4002C217.651 35.733 201.165 25.0493 182.187 25.0493C167.783 25.0493 154.812 31.1933 145.767 40.9895C141.91 33.4119 136.824 26.5853 130.748 20.7826C139.589 12.3517 150.511 6.037 162.697 2.7602H162.731C168.909 1.08766 175.463 0.200195 182.187 0.200195C196.659 0.200195 210.176 4.33033 221.611 11.4642C240.555 25.3565 224.034 57.6125 250.522 74.6791Z" fill="url(#paint10_linear_1_723)"/>
<path style="mix-blend-mode:multiply" d="M250.522 74.6792C244.992 77.3757 233.66 84.8851 226.014 97.9923C217.651 113.659 201.165 124.343 182.187 124.343C167.783 124.343 154.812 118.199 145.767 108.403C141.91 115.981 136.824 122.807 130.748 128.61C139.589 137.041 150.511 143.355 162.697 146.632H162.731C168.909 148.305 175.463 149.192 182.187 149.192C196.659 149.192 210.176 145.062 221.611 137.928C240.555 124.036 224.034 91.78 250.522 74.6792Z" fill="url(#paint11_linear_1_723)"/>
<defs>
<linearGradient id="paint0_linear_1_723" x1="332.089" y1="62.1471" x2="252.001" y2="201.022" gradientUnits="userSpaceOnUse">
<stop stop-color="#62FF5C"/>
<stop offset="1" stop-color="#41A83C"/>
</linearGradient>
<linearGradient id="paint1_linear_1_723" x1="105.913" y1="23.2494" x2="149.572" y2="-6.03338" gradientUnits="userSpaceOnUse">
<stop stop-color="#7B728C"/>
<stop offset="1" stop-color="#E1D9FF" stop-opacity="0"/>
</linearGradient>
<linearGradient id="paint2_linear_1_723" x1="105.913" y1="126.151" x2="149.572" y2="155.434" gradientUnits="userSpaceOnUse">
<stop stop-color="#7B728C"/>
<stop offset="1" stop-color="#E1D9FF" stop-opacity="0"/>
</linearGradient>
<linearGradient id="paint3_linear_1_723" x1="181.36" y1="20.7986" x2="143.329" y2="178.626" gradientUnits="userSpaceOnUse">
<stop stop-color="#FFD23D"/>
<stop offset="1" stop-color="#E32020"/>
</linearGradient>
<linearGradient id="paint4_linear_1_723" x1="34.6552" y1="-82.4348" x2="125.804" y2="11.4766" gradientUnits="userSpaceOnUse">
<stop stop-color="#7B728C"/>
<stop offset="1" stop-color="#E1D9FF" stop-opacity="0"/>
</linearGradient>
<linearGradient id="paint5_linear_1_723" x1="126.43" y1="210.653" x2="34.8944" y2="140.321" gradientUnits="userSpaceOnUse">
<stop stop-color="#7B728C"/>
<stop offset="1" stop-color="#E1D9FF" stop-opacity="0"/>
</linearGradient>
<linearGradient id="paint6_linear_1_723" x1="317.174" y1="10.8536" x2="167.405" y2="59.055" gradientUnits="userSpaceOnUse">
<stop stop-color="#7B728C"/>
<stop offset="1" stop-color="#E1D9FF" stop-opacity="0"/>
</linearGradient>
<linearGradient id="paint7_linear_1_723" x1="317.174" y1="138.537" x2="167.405" y2="90.3361" gradientUnits="userSpaceOnUse">
<stop stop-color="#7B728C"/>
<stop offset="1" stop-color="#E1D9FF" stop-opacity="0"/>
</linearGradient>
<linearGradient id="paint8_linear_1_723" x1="189.985" y1="268.16" x2="-26.6663" y2="-2.65483" gradientUnits="userSpaceOnUse">
<stop stop-color="#7B728C"/>
<stop offset="1" stop-color="#E1D9FF" stop-opacity="0"/>
</linearGradient>
<linearGradient id="paint9_linear_1_723" x1="250.391" y1="342.273" x2="44.4265" y2="84.8165" gradientUnits="userSpaceOnUse">
<stop stop-color="#7B728C"/>
<stop offset="1" stop-color="#E1D9FF" stop-opacity="0"/>
</linearGradient>
<linearGradient id="paint10_linear_1_723" x1="282.737" y1="91.6915" x2="196.894" y2="79.035" gradientUnits="userSpaceOnUse">
<stop stop-color="#7B728C"/>
<stop offset="1" stop-color="#E1D9FF" stop-opacity="0"/>
</linearGradient>
<linearGradient id="paint11_linear_1_723" x1="282.737" y1="57.7006" x2="196.894" y2="70.3571" gradientUnits="userSpaceOnUse">
<stop stop-color="#7B728C"/>
<stop offset="1" stop-color="#E1D9FF" stop-opacity="0"/>
</linearGradient>
</defs>
</svg>
