<svg width="257" height="223" viewBox="0 0 257 223" fill="none" xmlns="http://www.w3.org/2000/svg">
<path d="M34.0823 39.1754L106.107 111.201L34.0823 183.225C25.7441 173.931 19.1613 163.4 14.4765 151.848C9.22885 138.907 6.56806 125.231 6.56806 111.2C6.56806 97.1693 9.22885 83.4934 14.4765 70.5527C19.1613 59.0002 25.7441 48.4693 34.0823 39.1754ZM33.9682 30.5898C-10.5519 75.1099 -10.5519 147.291 33.9682 191.811L114.579 111.2L33.9682 30.5898Z" fill="#00276B"/>
<path d="M175.965 191.816C131.444 147.295 131.444 75.1111 175.965 30.5898L256.578 111.203L175.965 191.816Z" fill="#00276B"/>
<path d="M214.738 112.423C215.413 108.266 212.59 104.348 208.432 103.674C204.275 102.999 200.357 105.822 199.683 109.98C199.008 114.137 201.831 118.055 205.989 118.73C210.146 119.404 214.064 116.581 214.738 112.423Z" fill="white"/>
<path d="M58.9766 166.801L64.1682 171.992V161.609L58.9766 166.801Z" fill="#00276B"/>
<path d="M70.3789 155.4V178.203L76.7712 184.596V149.008L70.3789 155.4Z" fill="#00276B"/>
<path d="M82.9844 142.799V190.806L89.377 197.199V136.406L82.9844 142.799Z" fill="#00276B"/>
<path d="M95.5859 130.197V203.409L101.978 209.801V123.805L95.5859 130.197Z" fill="#00276B"/>
<path d="M108.188 117.595V216.012L114.58 222.404V111.203L108.188 117.595Z" fill="#00276B"/>
<path d="M120.789 115.02V218.58C123.14 215.781 125.271 212.86 127.181 209.84V123.759C125.271 120.739 123.14 117.819 120.789 115.02Z" fill="#00276B"/>
<path d="M133.391 135.703V197.901C141.679 178.048 141.679 155.556 133.391 135.703Z" fill="#00276B"/>
<path d="M58.9766 55.6018L64.1682 60.7931V50.4102L58.9766 55.6018Z" fill="#00276B"/>
<path d="M70.3789 44.1973V67.0001L76.7712 73.3927V37.8047L70.3789 44.1973Z" fill="#00276B"/>
<path d="M82.9844 31.5954V79.6033L89.377 85.9956V25.2031L82.9844 31.5954Z" fill="#00276B"/>
<path d="M95.5859 18.9939V92.2056L101.978 98.5979V12.6016L95.5859 18.9939Z" fill="#00276B"/>
<path d="M108.188 6.39262V104.809L114.58 111.201V0L108.188 6.39262Z" fill="#00276B"/>
<path d="M120.789 3.82031V107.38C123.14 104.581 125.271 101.661 127.181 98.6406V12.5601C125.271 9.53964 123.14 6.61978 120.789 3.82031Z" fill="#00276B"/>
<path d="M133.391 24.5039V86.7022C141.679 66.849 141.679 44.3571 133.391 24.5039Z" fill="#00276B"/>
</svg>
