<svg width="257" height="256" viewBox="0 0 257 256" fill="none" xmlns="http://www.w3.org/2000/svg">
<path d="M128.357 0C126.109 0 123.885 0.0616786 121.661 0.183035V79.8226C121.661 81.1177 121.136 82.2915 120.292 83.147C119.437 83.9905 118.263 84.5157 116.968 84.5157C114.401 84.5157 112.312 82.4626 112.277 79.8962L110.993 1.17179C106.545 1.77062 102.16 2.60219 97.8711 3.66455L99.8506 86.7379C100.022 94.0332 103.822 100.777 109.993 104.699L111.202 105.48C115.309 108.095 117.678 112.714 117.409 117.576L112.794 200.445C112.328 208.804 111.021 217.094 108.891 225.189L101.526 253.177C110.176 255.021 119.156 256 128.357 256H128.367C137.569 256 146.549 255.023 155.199 253.177L147.834 225.189C145.703 217.092 144.396 208.802 143.931 200.445L139.315 117.576C139.047 112.714 141.416 108.095 145.522 105.48L146.732 104.699C152.903 100.777 156.703 94.0312 156.874 86.7379L158.854 3.66455C154.564 2.60219 150.178 1.77062 145.731 1.17179L144.448 79.8962C144.412 82.4626 142.321 84.5157 139.757 84.5157C138.462 84.5157 137.288 83.9905 136.433 83.147C135.589 82.2915 135.064 81.1177 135.064 79.8226V0.183035C132.84 0.0616786 130.615 0 128.367 0H128.357Z" fill="#294C25"/>
<path d="M88.7855 95.0576C88.0892 92.4674 87.6973 89.7677 87.6376 87.0183L85.7437 7.28125C75.5418 10.8861 65.9248 15.7364 57.0917 21.6868C53.3893 43.5707 62.7119 63.889 62.7119 63.889C51.1413 57.9266 47.6219 41.5535 46.669 29.4696C42.7338 32.7322 39.0076 36.2257 35.4883 39.94C37.9194 55.1752 47.9263 85.367 88.7855 95.0576Z" fill="#58AD53"/>
<path d="M167.941 95.0576C168.638 92.4674 169.03 89.7677 169.089 87.0183L170.983 7.28125C181.185 10.8861 190.802 15.7364 199.635 21.6868C203.338 43.5707 194.015 63.889 194.015 63.889C205.586 57.9266 209.105 41.5535 210.058 29.4696C213.993 32.7322 217.719 36.2257 221.239 39.94C218.808 55.1752 208.801 85.367 167.941 95.0576Z" fill="#58AD53"/>
<path d="M24.7339 136.845C58.8111 132.995 88.4777 158.691 102.09 172.963L104.485 130.039C93.9169 118.542 53.4475 81.0548 1.09127 114.35C0.613805 118.834 0.371094 123.392 0.371094 127.998C0.371094 185.216 37.9179 233.675 89.7132 250.048L97.0801 222.081C98.8885 215.227 100.036 208.188 100.502 201.126C80.7308 160.977 24.7339 136.845 24.7339 136.845Z" fill="#58AD53"/>
<path d="M231.997 136.845C197.92 132.995 168.253 158.691 154.641 172.963L152.246 130.039C162.814 118.542 203.283 81.0548 255.64 114.35C256.117 118.834 256.36 123.392 256.36 127.998C256.36 185.216 218.813 233.675 167.018 250.048L159.651 222.081C157.842 215.227 156.694 208.188 156.229 201.126C175.998 160.977 231.997 136.845 231.997 136.845Z" fill="#58AD53"/>
<path d="M49.0442 88.8403C39.7216 80.8009 33.8209 71.6972 30.1046 63.7553C28.1371 59.5516 26.6828 55.4713 25.5966 51.6953C23.6668 54.2856 21.8325 56.9494 20.1096 59.6869C19.5347 60.5901 18.9617 61.5192 18.4106 62.4483C17.0658 64.6844 15.7965 66.9563 14.6108 69.29C17.4458 71.9896 22.9187 76.5236 30.3613 79.6888C29.7008 79.4561 20.1833 76.0959 11.2885 76.2192C10.9821 76.8916 10.6896 77.5521 10.4091 78.2345C8.87923 81.6743 7.59802 85.2195 6.46603 88.8064C5.98657 90.3264 5.53297 91.8543 5.10325 93.3882C4.88839 94.1581 4.31146 98.4732 3.72656 98.7736C16.8609 92.0413 30.2658 88.6572 43.7781 88.6572C45.5606 88.6572 47.3213 88.7169 49.0442 88.8403Z" fill="#58AD53"/>
<path d="M207.676 88.8403C216.998 80.8009 222.899 71.6972 226.615 63.7553C228.583 59.5516 230.037 55.4713 231.123 51.6953C233.053 54.2856 234.887 56.9494 236.61 59.6869C237.185 60.5901 237.758 61.5192 238.309 62.4483C239.652 64.6844 240.923 66.9563 242.109 69.29C239.274 71.9896 233.801 76.5236 226.359 79.6888C227.019 79.4561 236.537 76.0959 245.432 76.2192C245.738 76.8916 246.03 77.5521 246.311 78.2345C247.841 81.6743 249.122 85.2195 250.254 88.8064C250.733 90.3264 251.187 91.8543 251.617 93.3882C251.832 94.1581 252.409 98.4732 252.993 98.7736C239.859 92.0413 226.454 88.6572 212.942 88.6572C211.157 88.6572 209.399 88.7169 207.676 88.8403Z" fill="#58AD53"/>
</svg>
