<svg width="257" height="175" viewBox="0 0 257 175" fill="none" xmlns="http://www.w3.org/2000/svg">
<path fill-rule="evenodd" clip-rule="evenodd" d="M68.7027 64.971C68.8545 64.7686 70.6256 64.0096 71.5364 65.0722C73.8134 67.7541 76.0399 70.4866 78.3169 73.219C79.582 74.737 80.8976 76.2551 82.112 77.8237C82.4662 78.1779 82.6686 78.1779 83.0229 77.8743C86.6155 75.0912 90.2082 72.3082 93.7503 69.5251C94.5093 68.9685 95.1671 68.3613 95.8249 67.7035C96.3309 67.2987 96.584 67.2481 97.0394 67.7541C97.596 68.4119 98.102 69.0697 98.6586 69.7275C98.7598 69.8287 98.8104 69.8793 99.0128 70.0817C99.2658 69.2215 99.4176 68.4625 99.6706 67.7035C99.8224 67.2987 99.9742 66.8939 100.177 66.5397C100.379 66.0842 100.581 65.5782 100.834 65.1734C101.037 64.971 101.34 64.7686 101.593 64.6674C102.251 64.465 102.96 64.4144 103.618 64.212C108.779 62.8458 113.89 61.4289 119.051 60.1133C119.658 59.9109 119.911 59.7085 119.81 59.1013C119.506 57.5833 120.164 56.6724 121.277 55.711C135.446 43.9715 144.655 36.1284 144.908 35.9766C145.363 36.7862 164.794 57.5327 179.418 73.472C185.996 80.6911 192.608 87.8765 199.254 95.0281C199.81 95.6353 200.519 96.0907 201.227 96.6473C201.328 96.5461 201.531 96.3943 201.733 96.1919C204.297 93.9992 206.878 91.7896 209.475 89.5632C209.829 89.2596 210.082 88.956 210.538 89.5126C210.892 89.968 211.6 90.0692 212.056 90.474C225.212 100.797 238.368 111.136 251.525 121.493C253.043 122.707 254.46 124.023 255.927 125.288C256.585 125.844 256.737 126.603 256.281 127.16C255.876 127.716 255.067 127.818 254.358 127.261C252.942 126.198 251.575 125.035 250.158 123.921C236.8 113.329 223.441 102.736 210.082 92.1438C210.032 92.0932 209.981 92.0426 209.829 91.8908C209.627 92.8523 209.475 93.7125 209.273 94.5727C209.02 95.8377 208.767 97.1534 208.564 98.4184C208.514 98.6208 208.666 98.8738 208.817 99.0256C219.798 107.881 231.487 115.926 242.771 124.427C242.973 124.579 243.125 124.731 243.277 124.883C243.243 124.95 243.209 125.018 243.175 125.085C242.669 124.984 242.062 124.933 241.657 124.68C230.458 117.866 219.292 111.018 208.16 104.136C207.502 103.782 207.046 103.732 206.388 104.086C205.022 104.845 203.605 105.452 202.239 106.211C201.683 106.464 201.683 106.565 202.189 106.919C203.15 107.628 204.061 108.336 205.022 108.994C205.882 109.652 206.793 110.259 207.654 110.917C207.856 111.018 207.957 111.22 208.109 111.372C207.906 111.473 207.755 111.575 207.552 111.676C207.147 111.878 206.692 112.03 206.388 112.283C205.478 112.992 204.617 113.751 203.707 114.56C204.719 115.471 205.68 116.331 206.591 117.191C213.439 123.331 220.27 129.471 227.084 135.61C227.439 135.914 227.742 136.217 227.995 136.572C228.299 137.078 228.248 137.584 227.843 138.039C227.439 138.444 226.933 138.495 226.427 138.241C226.123 138.09 225.769 137.837 225.465 137.584C217.807 130.668 210.167 123.77 202.543 116.888C199.456 114.155 196.369 111.372 193.333 108.589C192.929 108.235 192.574 108.134 192.068 108.437C190.753 109.247 189.336 110.006 187.919 110.765C194.143 118.76 200.873 126.35 206.793 134.598C206.726 134.666 206.658 134.716 206.591 134.75C200.789 128.847 194.986 122.926 189.184 116.989C189.117 117.023 189.066 117.056 189.032 117.09C191.158 121.695 193.283 126.35 195.459 131.056C195.256 130.904 195.054 130.904 194.953 130.753C193.637 129.032 192.423 127.312 191.056 125.642C185.338 118.659 179.57 111.726 173.801 104.794C173.7 104.642 173.599 104.541 173.447 104.389C168.893 110.36 164.339 116.331 159.734 122.302C159.937 122.505 160.139 122.707 160.392 122.859C162.112 124.073 163.883 125.288 165.705 126.451C177.006 133.671 188.324 140.89 199.658 148.109C200.232 148.446 200.789 148.8 201.328 149.171C201.48 149.273 201.581 149.374 201.733 149.526C201.699 149.559 201.683 149.61 201.683 149.677C201.227 149.576 200.772 149.526 200.367 149.374C186.873 143.808 173.396 138.241 159.937 132.675C159.582 132.574 159.329 132.574 159.076 132.878C158.267 133.536 157.457 134.193 156.597 134.902C157.558 136.319 158.469 137.786 159.38 139.203C159.734 139.76 159.734 140.013 159.178 140.417C159.026 140.519 158.925 140.67 158.773 140.822C151.84 148.665 138.634 165.819 131.701 173.662C131.347 174.067 131.094 174.523 130.689 174.826C130.133 175.18 129.829 174.472 129.374 174.32L105.642 158.937L150.677 119.974L97.596 153.725L90.1576 148.767C91.6251 147.856 93.0925 146.995 94.5599 146.085C102.42 141.092 110.297 136.083 118.191 131.056C118.292 131.006 118.393 130.904 118.595 130.803C118.342 130.55 118.191 130.297 117.988 130.095C110.853 122.555 103.719 114.965 96.584 107.425C95.6731 106.464 95.2177 105.452 95.2177 104.187C95.2177 102.129 95.1503 100.088 95.0153 98.0642C94.9647 97.5582 94.8129 97.0522 94.5093 96.6979C90.4612 91.7896 86.4131 86.9319 82.365 82.0236C82.0108 81.5682 81.7578 81.5176 81.2518 81.8718C77.4736 84.638 73.6616 87.3873 69.8159 90.1198C69.5123 90.3222 69.4617 90.5246 69.5629 90.8788C70.4738 94.6233 73.105 104.895 73.864 105.705C81.4542 113.7 88.9938 121.746 96.5333 129.791C97.0394 130.297 97.5454 130.82 98.0514 131.36C98.102 131.461 98.1526 131.562 98.2032 131.765C87.7794 123.314 77.4061 114.864 67.0329 106.413C66.1221 107.071 65.2618 107.678 64.4016 108.286C57.2837 113.379 50.1827 118.456 43.0985 123.517C42.6431 123.82 42.4407 124.073 42.5925 124.63C43.0479 126.3 43.4528 128.02 43.8576 129.791C44.2118 129.69 44.3636 129.69 44.5154 129.639C44.5154 129.741 44.566 129.791 44.5154 129.842C44.06 130.297 43.554 130.803 43.0479 131.259C39.742 134.193 36.4361 137.128 33.1301 140.063L22.9593 133.687L38.6456 119.924L19.569 131.562L0.542969 119.62M75.8375 78.0767C73.7122 75.4455 71.6376 72.8648 69.4617 70.1829C69.3099 75.2431 69.1075 80.1514 68.9051 85.2115C71.2834 82.732 73.5098 80.455 75.8375 78.0767ZM143.694 49.5883C143.795 49.6895 143.947 49.9425 144.2 50.0943C151.587 54.8508 158.958 59.6073 166.312 64.3638C166.414 64.4144 166.515 64.5156 166.565 64.5156C166.768 64.465 167.021 64.465 167.122 64.3638C167.173 64.2626 167.173 63.959 167.071 63.8578C166.97 63.6554 166.768 63.5036 166.616 63.3518C160.712 56.6724 154.809 50.01 148.906 43.3643C147.995 42.3523 147.084 41.2897 146.173 40.2777C145.971 40.0753 145.616 39.9741 145.363 39.9741C145.262 39.9234 145.06 40.2777 145.009 40.5307C144.908 40.8343 144.908 41.1379 144.857 41.4415C144.453 44.0727 144.098 46.704 143.694 49.5883ZM199.051 98.722C198.9 98.5196 198.798 98.3678 198.697 98.2666C191.95 90.9126 185.187 83.5585 178.406 76.2045C178.052 75.7997 177.596 75.3949 177.141 75.0912C165.806 67.5348 154.489 59.9784 143.188 52.4219C142.833 52.1689 142.53 52.1183 142.125 52.3207C141.417 52.6243 140.708 52.8773 140 53.1304C139.443 53.3328 138.937 53.5858 138.381 53.7882C145.11 61.9856 151.79 70.1323 158.419 78.2791C158.368 78.2791 158.216 78.3803 158.216 78.3297C151.975 73.0335 145.735 67.7204 139.494 62.3904C139.443 62.4916 139.342 62.5928 139.342 62.6434C137.115 66.9951 134.94 71.3468 132.764 75.6985C132.663 75.9009 132.713 76.3057 132.814 76.5587C134.383 79.6454 136.002 82.732 137.571 85.8693C137.672 86.0211 137.672 86.2741 137.723 86.4765C137.52 86.3753 137.267 86.3753 137.115 86.2235C134.585 84.2501 132.005 82.3272 129.475 80.3032C128.867 79.7972 128.412 79.7466 127.754 80.1008C126.034 80.9104 124.313 81.6694 122.593 82.4284C122.441 82.5296 122.34 82.6814 122.239 82.8838C121.986 83.5417 121.783 84.1995 121.581 84.8573C120.873 87.1849 120.164 89.5632 119.506 91.8908C119.354 92.3462 119.506 92.5993 119.759 92.9029C126.068 100.527 132.376 108.151 138.684 115.775C138.836 115.977 138.988 116.179 139.089 116.382C139.021 116.449 138.971 116.5 138.937 116.534C138.735 116.382 138.482 116.281 138.33 116.078C130.537 109.23 122.745 102.365 114.952 95.4835C114.649 95.1799 114.244 94.9269 113.94 94.7245C113.788 95.0787 113.738 95.4329 113.535 95.6859C110.229 100.51 106.923 105.3 103.618 110.057C103.314 110.512 103.314 110.765 103.668 111.119C109.234 116.888 114.783 122.656 120.316 128.425C120.67 128.83 120.923 128.88 121.429 128.627C133.438 121.172 145.465 113.734 157.508 106.312C157.71 106.211 158.014 106.16 158.267 106.059C158.368 106.312 158.469 106.616 158.469 106.869C158.368 107.881 158.267 108.893 158.166 109.955C165.047 105.654 171.575 100.898 178.052 96.1413C178.254 96.3437 178.507 96.5462 178.71 96.7992C181.712 100.341 184.714 103.866 187.717 107.375C188.02 107.729 188.223 107.78 188.577 107.527C189.032 107.172 189.538 106.818 190.044 106.413C192.878 104.018 195.712 101.606 198.545 99.1774C198.697 99.0256 198.849 98.8738 199.051 98.722Z" fill="url(#paint0_linear_22_20686)"/>
<path d="M65.6685 62.1382C65.8204 61.9864 65.9216 61.8852 66.0734 61.784L68.654 59.8612C68.654 59.8612 72.6009 60.1142 74.625 62.4418C76.2948 64.4659 77.9646 66.4899 79.6345 68.4634C79.6345 68.4634 82.8729 72.3091 83.1259 72.6633C84.0705 71.9548 84.9982 71.2464 85.909 70.538C87.6969 69.1549 89.4848 67.7549 91.2727 66.3381C91.7281 65.9839 92.2342 65.5791 92.7402 65.0731L93.145 64.7189C93.5498 64.3647 99.3183 61.1262 100.482 60.772C101.039 60.6202 101.545 60.519 101.95 60.4684C102.152 60.4346 102.354 60.3841 102.557 60.3166C104.446 59.8106 106.335 59.3046 108.224 58.7985C110.788 58.1239 113.335 57.4492 115.865 56.7745C116.27 55.2227 117.214 53.8228 118.699 52.5746C128.465 44.4784 145.669 31.4233 145.669 31.4233L201.28 91.2845C201.954 90.711 202.629 90.1207 203.304 89.5134C204.063 85.1111 204.518 80.6076 204.518 76.0029C204.518 34.004 170.514 0 128.515 0C87.7307 0 54.4351 32.1823 52.6641 72.5621L65.6685 62.1382Z" fill="url(#paint1_linear_22_20686)"/>
<defs>
<linearGradient id="paint0_linear_22_20686" x1="0.523234" y1="35.9983" x2="256.546" y2="35.9983" gradientUnits="userSpaceOnUse">
<stop stop-color="#000792"/>
<stop offset="1" stop-color="#155FFF"/>
</linearGradient>
<linearGradient id="paint1_linear_22_20686" x1="104.325" y1="-51.6617" x2="225.882" y2="69.8954" gradientUnits="userSpaceOnUse">
<stop stop-color="#FF0000"/>
<stop offset="1" stop-color="#FF9500"/>
</linearGradient>
</defs>
</svg>
