<svg width="257" height="215" viewBox="0 0 257 215" fill="none" xmlns="http://www.w3.org/2000/svg">
<path d="M166.885 207.959C166.885 186.803 149.613 169.531 128.458 169.531C107.2 169.531 89.928 186.803 89.928 207.959C89.928 208.027 89.928 208.061 89.928 208.061C89.928 211.536 92.994 214.397 96.4689 214.397H160.345C163.819 214.397 166.885 211.536 166.885 208.061C166.885 208.061 166.885 208.027 166.885 207.959Z" fill="#D0B252"/>
<path d="M210.116 78.7769H46.6969C15.4234 78.7769 -6.75417 109.131 2.54613 138.871L18.3873 189.358C22.0665 204.075 35.2505 214.398 50.4784 214.398H64.7866C64.5141 212.285 64.3778 210.139 64.3778 207.959C64.3778 179.036 83.796 154.406 110.368 146.638L95.3447 132.33L108.018 114.445H147.672L160.345 132.228L145.934 146.536C172.711 154.099 192.436 178.832 192.436 207.959C192.368 210.139 192.231 212.285 192.027 214.398H206.335C221.563 214.398 234.747 204.075 238.426 189.358L254.267 138.871C263.568 109.131 241.39 78.7769 210.116 78.7769Z" fill="#4B4F75"/>
<path d="M38.7253 170.145L40.7693 162.991L47.9234 160.947L40.7693 158.903L38.7253 151.851L36.7834 158.903L29.6293 160.947L36.7834 162.991L38.7253 170.145Z" fill="white"/>
<path d="M58.2456 145.617L62.2315 131.717L76.1308 127.731L62.2315 123.746L58.2456 109.846L54.2598 123.746L40.3605 127.731L54.2598 131.717L58.2456 145.617Z" fill="white"/>
<path d="M218.088 170.145L216.044 162.991L208.89 160.947L216.044 158.903L218.088 151.851L220.03 158.903L227.184 160.947L220.03 162.991L218.088 170.145Z" fill="white"/>
<path d="M198.568 145.617L194.582 131.717L180.683 127.731L194.582 123.746L198.568 109.846L202.553 123.746L216.453 127.731L202.553 131.717L198.568 145.617Z" fill="white"/>
<path fill-rule="evenodd" clip-rule="evenodd" d="M188.654 63.0381H68.1591C82.7738 56.1907 76.233 42.7001 68.1591 28.903C84.7157 33.9108 97.8996 43.1089 128.458 0.899902C159.016 43.1089 172.098 33.9108 188.654 28.903C180.58 42.7001 174.039 56.1907 188.654 63.0381ZM100.863 47.6057C100.863 45.6639 99.3304 44.0287 97.2864 44.0287C95.3446 44.0287 93.8117 45.6639 93.8117 47.6057C93.8117 49.5475 95.3446 51.1828 97.2864 51.1828C99.3304 51.1828 100.863 49.5475 100.863 47.6057ZM142.562 40.4517L131.524 37.3856L128.356 26.3479L125.29 37.3856L114.252 40.4517L125.29 43.6199L128.356 54.5555L131.524 43.6199L142.562 40.4517ZM163.104 47.6057C163.104 45.6639 161.469 44.0287 159.527 44.0287C157.585 44.0287 155.95 45.6639 155.95 47.6057C155.95 49.5475 157.585 51.0806 159.527 51.0806C161.469 51.0806 163.104 49.5475 163.104 47.6057Z" fill="#D0B252"/>
</svg>
