<svg width="218" height="256" viewBox="0 0 218 256" fill="none" xmlns="http://www.w3.org/2000/svg">
<path fill-rule="evenodd" clip-rule="evenodd" d="M164.163 54.256C162.877 53.693 161.389 53.2909 160.182 52.8888C142.221 47.0714 123.791 44.3907 104.891 44.8464C101.191 44.9268 96.3391 45.3021 90.3342 45.9723C78.0293 47.3395 65.8853 50.1544 54.2238 54.2158C54.0228 54.2962 53.9021 54.5375 53.9825 54.7385L58.2852 65.1132C58.3254 65.1936 58.2852 65.3545 58.1646 65.3545L55.2291 65.9577C55.1219 65.9577 55.0415 65.9174 54.9878 65.837C53.5 62.9015 51.9317 59.6444 51.2883 56.3872C51.0873 55.1809 50.9666 54.4168 50.2428 53.3713C45.2834 46.16 40.3775 38.9218 35.5253 31.6569C34.6004 30.2897 33.957 29.1235 33.8766 27.4748C33.6755 23.6145 36.7316 20.4377 40.6322 20.5986C48.1116 20.9203 50.5645 31.7373 42.7232 34.15C42.616 34.1768 42.5892 34.2304 42.6428 34.3108C43.7687 36.0266 44.7338 37.434 45.538 38.5331C47.428 41.1067 50.8862 42.6347 53.6206 40.3426C54.2908 39.8065 54.9744 38.7878 55.6714 37.2865C57.0118 34.4717 58.245 31.2547 59.3709 27.6357C61.3011 21.4966 63.0973 15.3844 64.7593 9.29901C64.813 9.08455 64.9068 9.05774 65.0408 9.21859C68.5795 13.6687 72.2254 17.958 75.9785 22.0864C79.1954 25.6251 83.9405 29.3648 88.7257 30.4103C89.4763 30.5711 90.1331 30.4103 90.6961 29.9277C90.7765 29.8741 90.8033 29.7937 90.7765 29.6865C90.6961 26.3087 91.8622 24.7404 93.9934 21.5637C98.7116 14.4327 103.43 7.39565 108.148 0.452384C108.59 -0.150795 109.475 -0.150795 109.877 0.452384C114.971 7.98542 120.051 15.5185 125.117 23.0515C126.605 25.3034 127.45 26.9521 127.249 29.4854C127.209 29.9277 127.53 30.2897 127.973 30.3299C129.125 30.4907 130.291 30.3165 131.471 29.8071C136.618 27.5552 140.117 24.5796 143.896 20.3171C147.087 16.7248 150.223 13.0253 153.306 9.21859C153.386 9.13817 153.547 9.17838 153.588 9.29901C155.223 15.4648 156.992 21.6307 158.896 27.7965C159.861 31.0537 162.233 38.9352 165.289 40.8252C167.622 42.2326 170.517 41.2273 172.206 39.2167C172.93 38.3589 174.109 36.7236 175.744 34.3108C175.798 34.2304 175.785 34.1768 175.704 34.15C170.517 32.7024 168.908 26.3489 172.769 22.6896C178.881 16.8991 187.929 24.0166 183.063 31.3352C177.943 39.0022 172.755 46.6157 167.501 54.1756C167.447 54.2292 167.394 54.4034 167.34 54.6983C166.697 58.6391 165.249 61.8158 163.198 65.9174C163.171 65.9979 163.118 66.0247 163.037 65.9979L160.062 65.3947C159.981 65.3545 159.941 65.3143 159.981 65.2338L164.324 54.6983C164.405 54.4839 164.351 54.3364 164.163 54.256ZM109.274 10.7466C112.25 16.2959 115.091 21.939 117.799 27.6759C118.885 30.0484 120.855 35.1151 118.804 37.2463C118.724 37.3536 118.751 37.4206 118.885 37.4474C121.78 37.6887 124.179 37.8227 126.083 37.8495C133.924 37.9701 144.741 34.5521 148.601 26.9119C149.834 24.5259 150.88 22.0462 151.738 19.4726C151.778 19.352 151.657 19.2716 151.577 19.352C144.62 26.751 137.06 34.8336 126.002 34.713C123.911 34.6728 123.348 32.5415 123.308 30.8124C123.228 28.9224 122.785 27.5955 121.659 25.9066C117.638 19.7943 113.469 13.6955 109.153 7.61011C109.073 7.50288 108.993 7.50288 108.912 7.61011C104.569 13.7223 100.347 19.9686 96.2453 26.3489C95.2802 27.8233 94.7843 29.5122 94.7575 31.4156C94.7575 32.8632 93.9532 34.7532 92.2241 34.7532C85.9108 34.6728 81.3267 32.5817 76.5415 28.6812C72.976 25.8127 69.692 22.636 66.6895 19.1509C66.6493 19.0705 66.5287 19.1509 66.5287 19.2716C67.4535 22.3277 68.9816 27.314 71.1933 29.6463C76.4208 35.1151 83.5785 37.8093 91.0982 37.8495C93.3232 37.8763 95.9906 37.7155 99.1004 37.367C99.2076 37.3402 99.2478 37.2865 99.221 37.2061C97.5321 32.7426 100.307 27.2335 102.317 23.2526C104.462 19.0437 106.687 14.8751 108.993 10.7466C109.033 10.626 109.194 10.626 109.274 10.7466ZM152.019 19.7139C152.019 22.4081 151.698 25.1023 151.778 27.7965C151.939 36.4019 157.85 45.731 165.772 49.2697C165.852 49.3233 165.933 49.3769 166.013 49.4305C166.093 49.5378 166.187 49.578 166.295 49.5512C166.429 49.5512 166.549 49.4708 166.656 49.3099C167.595 47.9963 168.466 46.6425 169.27 45.2485C169.351 45.1413 169.324 45.1145 169.19 45.1681C163.882 46.6559 159.82 42.8358 157.971 38.2918C155.478 32.2869 153.521 26.0942 152.1 19.7139C152.1 19.6871 152.086 19.6737 152.06 19.6737C152.033 19.6737 152.019 19.6871 152.019 19.7139ZM66.1668 19.7541C64.4779 26.0272 62.8694 32.1394 60.2958 38.0506C58.3656 42.5945 54.7064 46.8972 49.1169 45.0877C48.956 45.034 48.9158 45.0743 48.9963 45.2083L51.7709 49.3099C51.8111 49.4305 51.9317 49.4305 52.0122 49.3903C55.0415 48.2912 57.5748 46.5487 59.6122 44.1628C63.1911 40.0209 66.207 34.0696 66.3276 28.3997C66.3812 25.5044 66.3544 22.636 66.2472 19.7943C66.2472 19.6603 66.2204 19.6469 66.1668 19.7541ZM165.611 49.7522C150.934 44.967 135.412 41.9511 120.372 40.6643C97.4919 38.6537 73.6462 42.9564 52.2936 49.9131C52.173 49.9533 52.173 50.0739 52.2936 50.1141C52.4813 50.1946 52.7226 50.1946 53.0175 50.1141C75.0938 43.9215 97.8538 39.5786 120.895 41.5088C136.055 42.7956 151.054 45.9321 165.732 50.1141C165.852 50.1544 165.933 50.1141 165.973 50.0337C166.013 49.9533 165.973 49.8327 165.892 49.7925C165.892 49.7925 165.839 49.7925 165.732 49.7925C165.678 49.7925 165.638 49.7791 165.611 49.7522Z" fill="url(#paint0_linear_22_20599)"/>
<path d="M113.779 51.2811C113.779 53.8144 111.728 55.825 109.235 55.825C106.742 55.825 104.691 53.8144 104.691 51.2811C104.691 48.7879 106.742 46.7773 109.235 46.7773C111.728 46.7773 113.779 48.7879 113.779 51.2811Z" fill="url(#paint1_linear_22_20599)"/>
<path d="M82.7366 54.3755C82.7366 56.5872 80.927 58.3967 78.7154 58.3967C76.5037 58.3967 74.7344 56.5872 74.7344 54.3755C74.7344 52.1639 76.5037 50.3945 78.7154 50.3945C80.927 50.3945 82.7366 52.1639 82.7366 54.3755Z" fill="url(#paint2_linear_22_20599)"/>
<path d="M143.294 54.4185C143.294 56.6301 141.484 58.3995 139.313 58.3995C137.101 58.3995 135.332 56.6301 135.332 54.4185C135.332 52.247 137.101 50.4375 139.313 50.4375C141.484 50.4375 143.294 52.247 143.294 54.4185Z" fill="url(#paint3_linear_22_20599)"/>
<path d="M61.6643 65.8374C61.5839 65.7972 61.5839 65.757 61.6241 65.7167C92.346 55.9452 125.722 56.3474 156.404 65.5961C156.484 65.6363 156.484 65.7972 156.404 65.7972C154.956 66.2797 153.616 66.9499 152.382 67.8078C152.222 67.8882 152.021 67.9284 151.86 67.8882C124.033 60.1273 94.236 59.7252 66.4897 67.8882C66.2887 67.9284 66.0876 67.8882 65.9267 67.7676C64.64 66.8293 63.2191 66.1859 61.6643 65.8374Z" fill="url(#paint4_linear_22_20599)"/>
<path fill-rule="evenodd" clip-rule="evenodd" d="M29.5755 80.3936C30.0312 80.7421 30.4601 81.0236 30.8623 81.238C34.8835 83.3023 38.9181 85.3531 42.9661 87.3905C43.0063 87.4307 43.0063 87.5111 42.9661 87.5111C39.2264 89.5619 36.4919 91.3312 32.2295 94.1863C30.3797 95.4194 28.4897 96.5722 26.5596 97.6445C26.5194 97.6445 26.5596 97.7249 26.5998 97.7249C27.9402 97.5909 29.2806 97.4703 30.621 97.363C36.0496 96.8403 41.2772 95.4329 46.3439 93.3016C46.5047 93.248 46.5315 93.2882 46.4243 93.4223C45.2715 95.138 43.9043 96.8537 42.3227 98.5694C33.5833 108.033 23.0343 114.668 10.6759 118.474C10.3273 118.582 10.0057 118.689 9.71077 118.796C9.54992 118.876 9.59014 119.077 9.75098 119.077L22.096 120.163C22.2569 120.203 22.2569 120.404 22.1363 120.445C16.1849 122.335 10.8769 128.97 8.70547 134.358C7.39188 137.682 7.07019 141.301 7.74039 145.215C7.76719 145.296 7.794 145.296 7.82081 145.215C11.9626 135.524 19.804 129.171 28.2083 123.26C35.1247 118.354 42.7248 114.373 49.2391 108.944C53.0995 105.727 56.1958 101.626 59.1715 97.4837C59.1715 97.4435 59.2519 97.4032 59.2921 97.4435C59.3323 97.4837 59.3323 97.5239 59.3323 97.5641C58.5817 99.3066 57.8177 101.022 57.0402 102.711C53.448 110.486 48.3008 116.906 41.5988 121.973C39.5078 123.581 36.8807 125.444 33.7173 127.562C25.7553 132.87 19.804 139.787 17.9944 149.397C17.4315 152.494 17.4717 155.349 18.2357 158.324C18.2357 158.365 18.2759 158.365 18.3161 158.365C18.3965 158.365 18.3966 158.324 18.3966 158.284C17.9944 146.261 29.8972 137.012 39.0655 131.543C43.1135 129.13 45.7809 127.522 47.0677 126.718C50.8476 124.305 53.019 121.169 55.0296 117.268C55.0296 117.241 55.0564 117.228 55.1101 117.228C55.1369 117.228 55.1369 117.255 55.1101 117.308C54.4131 120.632 53.2335 123.755 51.5714 126.678C49.2391 130.94 45.5396 134.72 42.8052 138.942C35.6877 149.88 35.0443 161.823 35.6073 174.49C35.9022 180.521 36.2373 186.54 36.6126 192.545C36.6528 193.389 36.8538 194.475 36.8941 195.44C36.8941 195.467 36.9075 195.48 36.9343 195.48C36.9611 195.48 36.9745 195.467 36.9745 195.44C37.0013 193.966 37.0549 192.478 37.1353 190.976C37.3766 186.205 38.3685 181.607 40.111 177.184C41.2772 174.168 43.1269 169.182 43.8909 164.678C44.6147 160.657 45.0571 155.711 45.7005 151.569C46.8264 144.29 49.1587 137.495 53.582 131.583C53.6222 131.543 53.6624 131.543 53.6624 131.543C53.7026 131.583 53.7429 131.624 53.7026 131.664C51.9735 136.811 50.928 142.762 51.9333 148.07C52.4159 150.724 53.5418 153.941 53.7831 156.515C54.2656 161.501 52.9788 165.442 51.2095 170.629C49.333 176.152 48.971 181.781 50.1238 187.518C50.1506 187.545 50.1774 187.558 50.2042 187.558C50.231 187.558 50.2444 187.532 50.2444 187.478C50.8074 176.862 56.9196 170.147 63.5144 162.627C63.5948 162.587 63.7154 162.627 63.6752 162.707C62.1874 168.136 61.0212 174.289 61.2223 179.878C61.5038 186.593 63.8361 192.585 66.9324 198.456C68.943 202.289 70.9536 205.962 72.9642 209.474C73.2054 209.903 73.2725 209.876 73.1652 209.394C70.5112 198.858 71.1948 188.322 77.5885 179.315C77.803 178.993 77.8566 179.02 77.7494 179.395C74.6933 190.172 77.1462 201.07 83.9018 210.077C84.3844 210.721 84.7061 211.284 85.068 211.967C88.6066 219.165 93.1908 226.604 95.9252 233.682C98.6194 240.638 96.2067 249.163 93.5527 255.919C93.5527 255.946 93.5393 255.959 93.5125 255.959C93.4857 255.932 93.4723 255.905 93.4723 255.879C94.5982 245.625 92.0649 235.813 85.832 227.529C82.7223 223.374 79.6662 219.192 76.6637 214.983C76.6637 214.983 76.6503 214.983 76.6235 214.983C76.5967 214.983 76.5967 214.996 76.6235 215.023C78.4732 220.13 80.2023 225.599 80.524 230.947C80.6849 233.641 80.2828 237.059 80.0817 240.115C80.0549 240.089 80.0281 240.075 80.0013 240.075C80.0013 240.075 80.0013 240.062 80.0013 240.035C80.0013 234.003 76.7039 229.5 72.7229 225.438C64.2382 216.833 55.2709 207.745 51.2899 195.963C51.2899 195.963 51.2765 195.963 51.2497 195.963C51.2229 195.963 51.2095 195.976 51.2095 196.003C51.491 200.466 51.0889 204.568 50.164 208.951C50.1238 208.991 50.0434 208.991 50.0032 208.951C47.8317 200.748 45.4994 192.706 44.0518 184.341C43.8909 183.296 43.7703 181.768 43.5692 180.521C43.5424 180.307 43.4888 180.307 43.4084 180.521C39.5882 190.695 39.2263 200.386 43.2475 210.761C46.0356 217.999 49.6949 224.768 54.2254 231.068C54.2254 231.108 54.2254 231.148 54.1852 231.188C54.1852 231.188 54.1048 231.229 54.1048 231.188C52.2148 229.54 50.164 227.811 48.4751 226.202C40.0708 217.918 34.3205 208.348 33.0739 196.526C32.7522 193.389 32.5244 191.097 32.3903 189.649C31.7469 183.296 30.4869 177.063 28.6104 170.951C27.6185 167.707 26.9349 165.335 26.5596 163.833C25.6347 159.852 26.2379 155.308 27.4845 151.368C27.4845 151.368 27.4711 151.354 27.4442 151.327C27.4442 151.327 27.4308 151.341 27.404 151.368C24.4686 155.55 22.5786 160.375 22.2971 165.522C22.096 169.503 22.5786 172.64 23.3024 177.103C24.0664 181.768 24.4283 185.508 24.3881 189.851C24.3881 190.601 24.2943 190.601 24.1066 189.851C22.3373 182.813 19.8442 176.058 17.351 169.222C14.1743 160.576 12.4452 152.856 13.732 144.21C13.9196 143.004 14.0939 141.797 14.2547 140.591C14.2815 140.51 14.2547 140.51 14.1743 140.591C11.145 144.156 9.12099 148.231 8.10229 152.815C7.53932 155.228 7.04338 157.627 6.61445 160.013C6.57424 160.134 6.4536 160.134 6.41339 160.053C4.83172 155.657 3.63876 151.234 2.83452 146.784C1.73539 140.779 2.33857 134.961 4.64406 129.332C6.05148 125.914 8.90653 123.903 12.2843 122.857C12.4452 122.817 12.4452 122.576 12.2843 122.536C8.34356 121.437 4.59044 119.895 1.02498 117.911C0.890944 117.831 0.90435 117.777 1.0652 117.75C5.16682 116.986 8.1425 116.464 11.3192 114.212C16.4664 110.593 21.4124 108.703 26.8009 106.371C31.385 104.387 35.6475 101.853 39.5882 98.7705C40.6338 97.9662 40.5533 97.8456 39.347 98.4085C35.929 100.057 30.9427 101.947 26.8411 101.987C21.8146 102.068 16.7881 99.7355 12.4452 97.363C12.3245 97.2826 12.3648 97.1218 12.5256 97.1218C16.1447 97.363 21.5331 96.9609 24.0262 93.8646C25.5543 91.9746 27.3638 89.8032 29.8972 89.3608C31.5593 89.066 33.1946 88.8649 34.803 88.7577C34.9639 88.7577 34.9639 88.5968 34.8432 88.5164C32.9935 87.8328 30.7818 87.1894 29.2538 86.1439C25.0315 83.2888 21.6537 77.0962 19.5225 72.9946C19.4689 72.8874 19.4957 72.8471 19.6029 72.8739C24.4283 73.1554 29.6961 73.075 34.2803 75.4877C34.3607 75.5145 34.3875 75.4877 34.3607 75.4073L30.2591 64.1882C30.2189 64.0675 30.3395 63.9871 30.4199 64.0675C36.3177 69.4559 43.2341 71.7078 51.1693 70.8231C52.8984 70.6221 54.6275 70.0189 56.3566 69.4961C59.1715 68.6115 60.5789 68.8528 62.9514 70.3004C68.2192 73.5576 75.015 73.3967 80.9664 72.4316C81.0066 72.4316 81.0468 72.3914 81.0468 72.3512C81.0468 72.2708 81.0066 72.2306 80.9664 72.2306C78.2051 71.7748 75.6852 70.7695 73.4065 69.2147C73.2457 69.1342 73.3261 68.893 73.4869 68.893C78.6073 68.6785 83.6203 69.3085 88.5262 70.7829C105.174 75.729 108.391 89.2 109.235 104.641C109.235 104.641 109.249 104.641 109.276 104.641C109.276 104.641 109.289 104.628 109.316 104.601C109.343 104.601 109.356 104.601 109.356 104.601C109.276 97.7249 110.2 90.527 113.055 84.2539C118.484 72.311 133.041 68.1289 145.185 69.0136C145.305 69.0136 145.346 69.1342 145.265 69.2147C142.651 71.2253 140.078 71.8687 136.941 72.5925C136.901 72.5925 136.901 72.6729 136.941 72.6729C140.802 73.1822 144.662 73.1822 148.522 72.6729C151.94 72.2306 153.911 70.6623 156.484 69.4559C158.978 68.2898 161.39 69.3755 163.843 70.0993C172.489 72.5925 181.416 70.0189 187.93 64.1077C188.011 64.0675 188.131 64.1077 188.091 64.1882L183.909 75.4877C183.882 75.5681 183.896 75.5816 183.949 75.5279C185.96 74.402 187.957 73.7586 189.941 73.5978C192.809 73.3565 195.678 73.1286 198.546 72.9142C198.627 72.8874 198.653 72.9142 198.627 72.9946C196.643 76.8013 194.31 80.3668 191.63 83.691C189.498 86.3047 186.724 87.4307 183.668 88.3555C183.56 88.4092 183.493 88.4628 183.467 88.5164C183.386 88.5968 183.467 88.6773 183.547 88.6773C186.362 88.9185 189.74 88.9989 191.75 91.2106C193.118 92.6984 194.646 94.6286 196.254 95.5535C198.908 97.1218 202.849 97.2826 205.865 97.162C206.026 97.162 206.039 97.2022 205.905 97.2826C201.039 100.419 193.962 103.033 188.091 101.585C184.606 100.701 181.255 99.4541 178.038 97.8456C177.85 97.7651 177.824 97.8054 177.958 97.9662C178.279 98.4085 178.842 98.7704 179.244 99.0519C182.542 101.706 186.121 103.918 189.981 105.687C194.887 107.939 200.074 109.869 204.538 112.724C206.629 114.091 208.438 115.378 210.569 116.182C212.795 116.96 215.087 117.469 217.446 117.71C217.566 117.71 217.566 117.871 217.486 117.911C213.813 119.922 209.966 121.45 205.945 122.496C205.865 122.536 205.865 122.616 205.905 122.656C211.816 125.149 213.786 127.643 215.194 133.996C217.124 142.722 214.953 151.85 211.776 160.013C211.736 160.094 211.615 160.094 211.615 160.013C210.931 155.992 210.167 151.609 208.599 148.03C207.527 145.671 206.16 143.366 204.497 141.114C204.283 140.819 204.216 140.846 204.296 141.194C205.61 147.279 205.516 153.351 204.015 159.41C201.401 170.066 196.616 179.838 194.163 190.574C194.163 190.601 194.15 190.615 194.123 190.615C194.083 190.615 194.042 190.574 194.042 190.534C193.908 186.861 194.123 183.189 194.686 179.516C195.892 171.755 197.581 164.557 194.083 156.997C193.144 155.014 192.193 153.298 191.228 151.85C190.745 151.126 190.638 151.18 190.906 152.011C192.756 157.239 192.193 161.742 190.624 167.211C188.775 173.766 186.684 180.843 186.04 187.197C185.692 190.413 185.357 193.644 185.035 196.888C183.507 210.922 174.62 222.623 163.803 231.148C163.669 231.255 163.656 231.229 163.763 231.068C169.232 223.428 173.977 214.5 176.47 205.332C178.762 196.928 177.636 188.604 174.741 180.521C174.741 180.441 174.66 180.481 174.62 180.521C174.017 186.794 172.65 192.545 170.84 198.536C169.795 202.048 168.843 205.587 167.985 209.152C167.985 209.192 167.945 209.192 167.945 209.152C167.516 206.659 167.154 204.139 166.859 201.592C166.618 199.662 166.698 197.732 166.698 195.762C166.698 195.735 166.685 195.721 166.658 195.721C166.631 195.721 166.618 195.735 166.618 195.762C162.717 208.107 152.785 217.275 144.461 226.283C140.842 230.143 138.108 234.647 138.309 240.196C138.309 240.25 138.282 240.263 138.228 240.236C138.228 240.209 138.215 240.182 138.188 240.156C137.545 234.727 136.901 230.062 138.389 224.352C139.193 221.216 140.145 218.133 141.244 215.104C141.244 215.104 141.244 215.063 141.204 215.023C141.177 215.023 141.15 215.037 141.123 215.063C137.022 221.135 132.317 226.604 128.738 233.239C124.998 240.236 123.832 248.077 124.677 255.919C124.677 255.959 124.677 255.999 124.637 255.999C124.61 255.999 124.583 255.986 124.556 255.959C121.862 248.64 119.489 240.437 122.586 232.837C125.32 226.162 129.221 219.768 132.357 213.173C133.322 211.203 134.529 209.514 135.695 207.705C141.365 199.059 143.174 189.167 140.158 179.154C140.158 179.154 140.172 179.141 140.199 179.114C140.199 179.114 140.212 179.127 140.239 179.154C146.713 188.282 147.557 198.979 144.743 209.595C144.702 209.635 144.743 209.675 144.783 209.715C144.823 209.715 144.903 209.715 144.903 209.675C147.289 205.359 149.622 201.07 151.9 196.807C155.881 189.448 157.892 181.647 156.685 173.243C156.163 169.745 155.399 166.327 154.554 162.909C154.527 162.721 154.568 162.694 154.675 162.828C160.506 169.021 166.738 175.213 167.704 184.221C167.811 185.266 167.918 186.312 168.025 187.357C168.025 187.384 168.039 187.398 168.065 187.398C168.092 187.398 168.106 187.384 168.106 187.357C168.95 181.688 169.071 176.54 167.221 171.072C165.572 166.125 163.924 161.742 164.446 156.394C164.688 153.579 165.854 150.684 166.296 147.789C167.181 142.159 166.417 137.133 164.607 131.784C164.607 131.744 164.647 131.704 164.688 131.664C164.728 131.624 164.808 131.664 164.808 131.704C168.293 136.422 170.639 141.596 171.845 147.226C173.132 153.258 173.615 160.013 174.58 165.402C175.505 170.871 178.4 176.5 179.767 181.688C180.866 186.057 181.349 190.481 181.215 194.957C181.215 195.011 181.228 195.065 181.255 195.118C181.282 195.172 181.309 195.159 181.335 195.078C181.523 193.738 181.684 192.049 181.818 190.011C182.354 181.326 182.716 174.302 182.904 168.94C183.346 157.761 181.376 147.226 174.741 137.897C172.328 134.519 169.071 130.86 167.221 127.884C165.184 124.667 163.803 121.142 163.079 117.308C163.079 117.268 163.119 117.228 163.16 117.228C163.2 117.188 163.24 117.228 163.24 117.268C165.009 121.557 167.891 124.881 171.886 127.241C180.612 132.388 189.257 137.414 195.57 145.577C198.586 149.518 200.114 153.459 200.074 158.365C200.074 158.418 200.088 158.445 200.114 158.445C200.141 158.445 200.168 158.432 200.195 158.405C202.809 149.035 197.782 138.741 190.946 132.549C186.603 128.608 180.853 125.23 176.389 121.852C167.985 115.458 162.516 107.135 158.696 97.4032C158.696 97.363 158.696 97.3228 158.736 97.2826C158.736 97.2826 158.817 97.2826 158.817 97.3228C162.396 102.269 165.572 106.612 170.88 110.633C174.218 113.166 177.716 115.418 182.059 118.112C189.619 122.777 197.098 127.844 203.211 134.278C206.589 137.816 209.041 141.583 210.569 145.577C210.569 145.631 210.583 145.631 210.61 145.577C211.494 140.591 210.771 136.007 208.438 131.825C205.583 126.557 201.522 122.455 195.771 120.324C195.691 120.284 195.691 120.123 195.812 120.123L208.559 119.118C208.72 119.118 208.72 118.876 208.599 118.836C194.324 114.332 180.411 105.606 171.845 93.2614C171.805 93.2212 171.845 93.181 171.926 93.181C178.239 95.9958 184.834 97.2424 191.67 97.7249C191.938 97.7249 191.951 97.6713 191.71 97.5641C186.08 94.4678 180.772 90.8085 175.183 87.6317C175.103 87.5915 175.103 87.4709 175.183 87.4307C179.043 85.4737 182.917 83.4899 186.804 81.4793C187.367 81.1576 187.917 80.8091 188.453 80.4338C188.533 80.3802 188.52 80.3534 188.413 80.3534C188.279 80.3802 188.158 80.407 188.051 80.4338C180.759 82.5516 173.521 82.5248 166.336 80.3534C166.296 80.3132 166.256 80.273 166.296 80.2327C166.296 80.1925 166.336 80.1523 166.377 80.1523C172.891 80.4338 178.118 80.3534 181.054 73.5978C181.094 73.5576 181.014 73.5173 180.974 73.5173C177.354 76.1713 173.172 76.1713 168.87 75.8094C166.94 75.6754 165.358 75.662 164.125 75.7692C161.028 76.0507 158.374 77.5787 155.761 79.1872C150.975 82.1629 141.043 79.3883 136.177 77.3777C136.097 77.3375 136.017 77.4581 136.097 77.5385C141.405 82.6052 149.648 84.4148 153.147 90.6878C153.227 90.8085 153.107 90.9291 152.986 90.8487C148.563 88.3287 143.791 87.0688 138.671 87.0688C138.59 87.0688 138.55 87.1894 138.63 87.2296C140.56 87.9132 142.652 88.6773 144.3 89.7228C152.021 94.4276 154.594 104.239 155.56 112.402C155.56 112.523 155.439 112.603 155.358 112.523L155.037 112.201C154.956 112.121 154.889 112.148 154.836 112.282C154.031 114.614 154.434 116.705 155.278 119.037C157.208 124.506 159.661 130.216 156.525 135.926C154.836 138.982 150.533 142.642 147.598 145.175C147.169 145.524 147.035 145.43 147.195 144.894C147.879 142.4 149.166 140.631 150.372 138.5C150.453 138.379 150.332 138.259 150.252 138.339C147.946 139.438 145.52 140.162 142.973 140.51C142.933 140.51 142.933 140.47 142.893 140.47C142.893 140.43 142.933 140.39 142.933 140.35C148.04 138.5 151.297 134.68 151.176 129.211C151.136 127.361 150.493 125.149 150.01 123.219C149.394 120.646 149.38 118.045 149.97 115.418C149.97 115.391 149.957 115.365 149.93 115.338C149.89 115.338 149.849 115.338 149.849 115.378C148.884 117.308 148.241 119.279 147.879 121.49C147.638 123.179 147.598 124.627 146.592 126.195C145.909 127.241 144.26 128.206 143.416 129.13C142.29 130.39 141.405 131.825 140.762 133.433C140.735 133.54 140.681 133.554 140.601 133.473C137.732 130.793 134.837 128.179 131.915 125.632C129.583 123.621 130.95 121.571 131.955 119.319C132.357 118.354 131.513 114.855 131.272 113.488C131.231 113.408 131.272 113.287 131.352 113.247C132.679 111.558 135.574 110.633 137.424 110.874C140.359 111.196 142.45 109.025 143.295 106.411C143.737 105.044 144.059 103.395 145.788 103.033C147.102 102.738 148.375 102.497 149.608 102.309C149.97 102.269 150.252 101.947 150.292 101.585C150.493 99.8964 146.472 99.2932 145.386 99.2932C142.089 99.2396 138.59 99.2128 134.891 99.2128C134.649 99.2128 134.408 98.9715 134.448 98.7302L134.73 94.9503C134.73 94.7493 134.448 94.6688 134.368 94.8297C132.478 98.7302 129.663 102.872 126.044 105.446C125.159 106.049 124.234 106.25 123.149 105.767C121.674 105.124 120.267 104.333 118.926 103.395C118.766 103.288 118.725 103.328 118.806 103.515C119.771 105.928 121.46 108.381 124.114 109.185C124.221 109.212 124.275 109.279 124.275 109.386C124.355 110.432 124.435 111.464 124.516 112.483C124.838 116.303 126.004 118.434 127.371 121.49C128.457 124.024 127.652 125.391 125.843 127.12C125.468 127.495 125.548 127.656 126.084 127.602L129.623 127.321C129.703 127.321 129.784 127.348 129.864 127.401C130.588 127.857 131.352 128.474 132.156 129.251C134.247 131.235 136.271 133.313 138.228 135.484C139.113 136.476 139.703 137.387 139.998 138.218C140.681 140.108 138.51 142.441 137.142 143.406C132.92 146.341 128.497 147.749 123.551 148.915C123.511 148.915 123.47 148.995 123.47 149.076C123.47 149.116 123.511 149.196 123.591 149.196C128.872 149.759 133.832 148.915 138.469 146.663C139.716 146.06 141.043 145.175 142.29 144.411C142.477 144.304 142.651 144.317 142.812 144.451C143.938 145.577 144.501 149.598 142.45 150.161C136.285 151.877 130.025 153.016 123.671 153.579C123.511 153.579 123.39 153.74 123.43 153.861C123.43 153.888 123.484 153.914 123.591 153.941C130.065 155.469 136.177 154.183 142.692 153.258C142.96 153.231 143.08 153.351 143.054 153.62C142.651 156.796 140.641 156.796 138.067 157.038C133.188 157.493 128.323 158.083 123.47 158.807C123.35 158.847 123.31 159.008 123.39 159.048L123.631 159.209C123.712 159.263 123.792 159.303 123.873 159.33C129.221 159.812 135.212 160.013 140.44 158.686C140.56 158.646 140.681 158.767 140.641 158.928C139.032 164.986 135.333 168.136 129.542 168.377C126.084 168.498 122.988 167.332 119.61 166.005C116.795 164.906 114.409 163.807 112.452 162.707C110.2 161.421 110.2 156.314 110.402 154.223C110.455 153.633 110.777 153.15 111.367 152.775C113.096 151.649 114.664 151.247 115.428 149.116C116.112 147.306 116.232 145.617 118.203 144.733C119.409 144.17 121.42 144.25 122.867 144.17C126.808 143.888 129.1 137.253 128.215 133.996C128.175 133.875 128.095 133.795 128.014 133.755C127.666 133.648 127.384 133.795 127.17 134.197C125.722 136.529 124.275 139.706 120.897 138.54C117.841 137.495 114.141 137.856 111.125 138.54C110.04 138.781 109.276 139.063 108.19 138.781C105.643 138.138 103.043 137.83 100.389 137.856C98.8607 137.897 97.6543 138.741 96.2871 138.781C93.8744 138.902 92.5474 136.57 91.5823 134.76C91.4215 134.438 91.14 134.077 90.8585 133.875C90.5368 133.634 90.0945 133.835 90.0543 134.197C89.6521 137.133 90.577 140.953 92.6278 142.923C95.121 145.376 98.1369 143.325 100.791 145.054C102.922 146.422 102.359 149.277 104.088 150.805C105.536 152.132 107.989 152.293 108.19 154.343C108.431 156.756 108.471 161.501 105.898 162.828C103.726 163.927 100.55 165.281 96.3675 166.889C92.4268 168.418 88.2849 169.141 84.3844 167.452C80.7921 165.924 78.567 163.043 77.7092 158.807C77.6824 158.7 77.7092 158.659 77.7896 158.686C83.0172 160.053 89.0892 159.812 94.3972 159.289C94.4776 159.289 94.5446 159.276 94.5982 159.249C94.7054 159.169 94.7725 159.115 94.7993 159.088C94.9065 158.901 94.8395 158.78 94.5982 158.726C89.0222 157.976 83.4595 157.319 77.9102 156.756C76.1811 156.595 75.578 154.947 75.3367 153.499C75.3099 153.392 75.3635 153.338 75.4975 153.338C81.5695 153.981 88.5664 155.751 94.5982 153.941C94.7993 153.901 94.7591 153.62 94.558 153.579C88.419 153.043 82.4006 151.931 76.5028 150.242C75.9935 150.108 75.5109 149.893 75.0552 149.598C74.9748 149.545 74.9212 149.478 74.8944 149.397C74.4922 147.909 74.1705 145.617 75.5377 144.411C75.6182 144.371 75.7388 144.331 75.8192 144.411C81.9314 147.95 87.0786 149.96 94.4374 149.236C94.6518 149.21 94.6652 149.129 94.4776 148.995C94.4776 148.968 94.424 148.928 94.3167 148.875C94.2631 148.848 94.1961 148.821 94.1157 148.794C89.5315 147.95 81.5695 145.255 78.8351 141.194C77.3473 139.023 78.2319 137.495 79.8404 135.605C81.8242 133.299 84.1029 130.94 86.6765 128.527C88.3654 126.919 90.2151 127.442 92.3463 127.643C92.8557 127.696 92.9227 127.549 92.5474 127.2C90.2955 124.989 89.6923 123.501 91.2606 120.485C93.1372 116.946 94.0218 113.287 93.9146 109.507C93.9146 109.4 93.9682 109.333 94.0754 109.306C96.7294 108.18 98.5122 106.236 99.4236 103.475C99.4236 103.355 99.3432 103.314 99.2628 103.355C97.976 104.36 94.3569 106.853 92.7485 105.808C88.486 103.033 85.7918 99.0921 83.5801 94.5884C83.5399 94.4678 83.3389 94.508 83.3389 94.6688L83.7812 98.9715C83.7812 99.0519 83.741 99.0921 83.6606 99.0921C80.2291 99.2262 76.8111 99.2664 73.4065 99.2128C71.6372 99.1726 68.2996 99.5747 67.4954 101.384C67.4417 101.465 67.4417 101.558 67.4954 101.666C67.6964 102.028 67.9779 102.269 68.4604 102.309C71.1949 102.591 73.6478 102.51 74.6129 105.164C75.2965 107.054 75.578 108.26 77.3071 109.829C79.0362 111.397 80.7251 110.633 82.6553 111.035C83.741 111.276 87.1188 112.443 86.8373 114.011C86.4352 116.142 85.7918 118.515 86.9177 120.565C88.0169 122.63 87.5879 124.493 85.6309 126.155C82.8965 128.487 80.2559 130.913 77.7092 133.433C77.669 133.514 77.5886 133.473 77.5483 133.433C76.5833 131.074 75.1356 129.117 73.2054 127.562C70.7927 125.592 71.034 123.903 70.5113 121.128C70.1091 119.091 69.4791 117.201 68.6213 115.458C68.2728 114.761 68.1924 114.788 68.38 115.539C68.943 117.63 69.01 119.895 68.5811 122.335C68.2996 123.903 67.5356 126.235 67.3345 128.366C66.6911 134.358 70.1091 138.218 75.3769 140.309C75.4171 140.35 75.4573 140.39 75.4171 140.47C75.4171 140.51 75.3769 140.551 75.2965 140.551C72.7765 140.202 70.404 139.411 68.179 138.178C68.0181 138.098 67.8573 138.259 67.9779 138.419C69.3049 140.51 70.7525 142.642 71.2351 145.135C71.2753 145.296 71.1144 145.376 70.9938 145.296C68.4738 143.097 66.0343 140.819 63.6752 138.46C58.0455 132.91 60.4985 125.511 62.9112 119.077C63.7556 116.745 64.198 114.694 63.4742 112.402C63.4339 112.201 63.1927 112.121 63.0318 112.241L62.5895 112.563C62.4555 112.67 62.4152 112.644 62.4689 112.483C62.5761 112.215 62.6431 111.947 62.6699 111.678C63.3133 106.411 64.7207 101.022 67.3345 96.3577C70.1493 91.4117 74.2912 88.9185 79.5589 87.2296C79.5992 87.2296 79.6394 87.1894 79.6394 87.1492C79.6394 87.109 79.5992 87.109 79.5589 87.109C74.4386 86.9749 69.6668 88.1411 65.2435 90.6074C65.1228 90.6878 65.0022 90.5672 65.0826 90.4466C66.5035 88.1411 68.3666 86.2779 70.6721 84.8571C74.5324 82.5248 78.3526 80.4338 82.0521 77.6592C82.6419 77.2302 82.5882 77.123 81.8912 77.3375C76.8245 78.9862 69.9081 81.037 64.6001 80.2327C62.7906 79.9513 61.0212 78.7047 59.3323 77.82C56.5175 76.2518 53.9037 75.4877 50.6465 75.729C45.9015 76.1311 41.3978 76.4126 37.3766 73.5978C37.2962 73.5442 37.2828 73.5576 37.3364 73.638C39.548 80.0317 45.1777 80.5142 51.0085 80.1925C51.0487 80.1523 51.0889 80.1925 51.0889 80.2327C51.0889 80.3132 51.0889 80.3534 51.0085 80.3534C43.8775 82.5248 36.7466 82.5114 29.6157 80.3132C29.4816 80.2595 29.4682 80.2864 29.5755 80.3936ZM58.327 188.322C56.7185 194.864 57.6166 201.016 61.0212 206.78C63.2329 210.56 65.9271 213.817 68.5007 217.315C68.5409 217.356 68.5811 217.356 68.6213 217.356C68.6615 217.356 68.6615 217.315 68.6615 217.275C66.5973 211.243 64.0907 205.386 61.1419 199.702C59.1313 195.882 58.126 192.545 58.4879 188.363C58.5415 187.719 58.4879 187.706 58.327 188.322ZM159.782 189.489C159.701 193.309 158.937 195.842 157.047 199.501C154.072 205.413 151.337 211.042 149.286 217.356C149.286 217.382 149.3 217.409 149.327 217.436C149.353 217.436 149.367 217.423 149.367 217.396C156.324 208.227 162.798 200.627 159.782 188.081C159.755 188.081 159.742 188.095 159.742 188.121C159.768 188.39 159.782 188.845 159.782 189.489Z" fill="url(#paint5_linear_22_20599)"/>
<path d="M109.113 191.621L107.866 199.904C107.866 199.985 107.786 199.985 107.746 199.944C106.271 197.291 104.756 194.65 103.202 192.023C101.593 189.288 100.668 186.996 100.91 184.061C100.963 183.444 100.802 183.377 100.427 183.86C97.5317 187.345 95.749 191.353 95.0788 195.883C95.0788 195.964 94.918 196.004 94.918 195.883C93.6312 192.224 92.1433 188.725 90.6153 185.187C90.3338 184.543 90.1327 183.82 89.9317 183.136C89.8781 183.029 89.811 183.015 89.7306 183.096C88.5243 184.302 87.8541 185.777 87.72 187.519C87.72 187.64 87.519 187.64 87.4788 187.519C86.4332 184.141 85.7898 180.844 86.0311 177.466C86.1115 175.898 86.9158 174.852 88.3232 174.289C93.4703 172.118 98.5907 169.893 103.684 167.614C105.695 166.729 107.183 166.233 108.148 166.126C110.024 165.912 111.914 166.274 113.818 167.212C117.088 168.847 122.302 171.126 129.46 174.048C130.479 174.477 131.176 174.892 131.551 175.295C133.642 177.546 131.792 184.744 130.747 187.599C130.693 187.76 130.653 187.76 130.626 187.599C130.264 185.911 129.701 184.463 128.495 183.136C128.415 183.055 128.361 183.069 128.334 183.176C128.12 184.222 127.892 185.012 127.65 185.549C126.31 188.444 125.064 191.379 123.911 194.355C123.79 194.677 123.67 195.36 123.509 195.803C123.428 195.99 123.375 195.99 123.348 195.803C122.544 191.46 120.855 186.795 117.678 183.498C117.571 183.391 117.517 183.417 117.517 183.578C117.718 187.278 116.673 189.449 114.662 192.948C113.295 195.253 111.981 197.599 110.721 199.985C110.641 200.146 110.587 200.132 110.56 199.944L109.153 191.621C109.153 191.487 109.14 191.487 109.113 191.621Z" fill="url(#paint6_linear_22_20599)"/>
<path d="M85.4286 190.415C85.4554 190.388 85.4822 190.375 85.509 190.375C85.5358 190.402 85.5493 190.429 85.5493 190.455C85.2678 192.064 84.9863 193.753 85.0265 195.321C85.3482 205.294 93.2297 210.964 99.4626 219.488C106.258 228.777 106.138 238.71 103.162 249.487C103.135 249.513 103.108 249.527 103.082 249.527C103.055 249.5 103.041 249.473 103.041 249.446C103.39 239.581 100.575 230.748 94.5969 222.947C92.8544 220.668 91.0583 218.416 89.2085 216.191C87.8815 214.623 86.3937 212.974 85.6699 211.084C83.0159 204.382 82.9355 197.493 85.4286 190.415Z" fill="url(#paint7_linear_22_20599)"/>
<path d="M121.702 215.788C127.693 208.55 134.972 201.191 132.438 190.817C132.438 190.79 132.438 190.763 132.438 190.736C132.492 190.656 132.532 190.656 132.559 190.736C135.253 197.733 135.575 208.268 130.508 214.421C125.482 220.493 120.375 226.364 117.761 233.924C116.045 238.937 115.241 244.111 115.348 249.446C115.348 249.499 115.335 249.526 115.308 249.526C115.268 249.526 115.228 249.486 115.228 249.486C114.692 247.395 114.209 245.29 113.78 243.172C112.172 234.916 113.525 227.423 117.841 220.694C118.324 219.943 119.611 218.308 121.702 215.788Z" fill="url(#paint8_linear_22_20599)"/>
<path d="M90.7364 109.91C90.7364 109.91 87.0369 100.38 76.1797 101.908C76.1797 101.908 76.8633 107.216 80.9649 108.543C85.1068 109.91 90.7364 109.91 90.7364 109.91Z" fill="url(#paint9_linear_22_20599)"/>
<path d="M127.895 109.91C127.895 109.91 131.594 100.38 142.451 101.908C142.451 101.908 141.808 107.216 137.666 108.543C133.524 109.91 127.895 109.91 127.895 109.91Z" fill="url(#paint10_linear_22_20599)"/>
<defs>
<linearGradient id="paint0_linear_22_20599" x1="237.199" y1="-48.2769" x2="-82.6657" y2="273.51" gradientUnits="userSpaceOnUse">
<stop stop-color="#FFCF45"/>
<stop offset="0.32" stop-color="#FFF68A"/>
<stop offset="0.68" stop-color="#CF9A15"/>
<stop offset="1" stop-color="#FFE35F"/>
</linearGradient>
<linearGradient id="paint1_linear_22_20599" x1="241.818" y1="-73.002" x2="-115.002" y2="285.962" gradientUnits="userSpaceOnUse">
<stop stop-color="#FFCF45"/>
<stop offset="0.32" stop-color="#FFF68A"/>
<stop offset="0.68" stop-color="#CF9A15"/>
<stop offset="1" stop-color="#FFE35F"/>
</linearGradient>
<linearGradient id="paint2_linear_22_20599" x1="234.388" y1="-94.1977" x2="-122.38" y2="264.715" gradientUnits="userSpaceOnUse">
<stop stop-color="#FFCF45"/>
<stop offset="0.32" stop-color="#FFF68A"/>
<stop offset="0.68" stop-color="#CF9A15"/>
<stop offset="1" stop-color="#FFE35F"/>
</linearGradient>
<linearGradient id="paint3_linear_22_20599" x1="252.407" y1="-51.3724" x2="-104.39" y2="307.569" gradientUnits="userSpaceOnUse">
<stop stop-color="#FFCF45"/>
<stop offset="0.32" stop-color="#FFF68A"/>
<stop offset="0.68" stop-color="#CF9A15"/>
<stop offset="1" stop-color="#FFE35F"/>
</linearGradient>
<linearGradient id="paint4_linear_22_20599" x1="219.061" y1="-42.3018" x2="-57.9558" y2="236.381" gradientUnits="userSpaceOnUse">
<stop stop-color="#FFCF45"/>
<stop offset="0.32" stop-color="#FFF68A"/>
<stop offset="0.68" stop-color="#CF9A15"/>
<stop offset="1" stop-color="#FFE35F"/>
</linearGradient>
<linearGradient id="paint5_linear_22_20599" x1="378.443" y1="70.7342" x2="38.8014" y2="412.418" gradientUnits="userSpaceOnUse">
<stop stop-color="#FFCF45"/>
<stop offset="0.32" stop-color="#FFF68A"/>
<stop offset="0.68" stop-color="#CF9A15"/>
<stop offset="1" stop-color="#FFE35F"/>
</linearGradient>
<linearGradient id="paint6_linear_22_20599" x1="343.097" y1="-22.658" x2="-11.9095" y2="334.483" gradientUnits="userSpaceOnUse">
<stop stop-color="#FFCF45"/>
<stop offset="0.32" stop-color="#FFF68A"/>
<stop offset="0.68" stop-color="#CF9A15"/>
<stop offset="1" stop-color="#FFE35F"/>
</linearGradient>
<linearGradient id="paint7_linear_22_20599" x1="502.15" y1="-78.9437" x2="14.7987" y2="411.337" gradientUnits="userSpaceOnUse">
<stop stop-color="#FFCF45"/>
<stop offset="0.32" stop-color="#FFF68A"/>
<stop offset="0.68" stop-color="#CF9A15"/>
<stop offset="1" stop-color="#FFE35F"/>
</linearGradient>
<linearGradient id="paint8_linear_22_20599" x1="355.859" y1="97.7299" x2="90.231" y2="364.955" gradientUnits="userSpaceOnUse">
<stop stop-color="#FFCF45"/>
<stop offset="0.32" stop-color="#FFF68A"/>
<stop offset="0.68" stop-color="#CF9A15"/>
<stop offset="1" stop-color="#FFE35F"/>
</linearGradient>
<linearGradient id="paint9_linear_22_20599" x1="92.3168" y1="103.3" x2="80.9875" y2="114.698" gradientUnits="userSpaceOnUse">
<stop stop-color="#FFCF45"/>
<stop offset="0.32" stop-color="#FFF68A"/>
<stop offset="0.68" stop-color="#CF9A15"/>
<stop offset="1" stop-color="#FFE35F"/>
</linearGradient>
<linearGradient id="paint10_linear_22_20599" x1="244.073" y1="2.65819" x2="-10.0404" y2="258.299" gradientUnits="userSpaceOnUse">
<stop stop-color="#FFCF45"/>
<stop offset="0.32" stop-color="#FFF68A"/>
<stop offset="0.68" stop-color="#CF9A15"/>
<stop offset="1" stop-color="#FFE35F"/>
</linearGradient>
</defs>
</svg>
