<svg width="221" height="256" viewBox="0 0 221 256" fill="none" xmlns="http://www.w3.org/2000/svg">
<path d="M93.2925 244.28C93.2925 244.28 92.5334 245.907 94.5939 247.317C96.6002 248.726 107.445 251.275 113.355 251.004C119.212 250.787 124.309 247.425 128.375 242.599C132.496 237.773 138.244 224.705 138.244 224.705C138.244 224.705 83.7492 224.488 83.0985 224.597C82.4478 224.705 93.2925 244.28 93.2925 244.28Z" fill="#590800"/>
<path d="M161.397 244.712C161.397 240.862 167.199 237.338 201.848 236.795C202.716 236.795 202.824 235.494 201.903 235.386C193.444 234.247 179.725 232.891 165.41 233.705C153.698 234.301 150.227 235.982 149.414 241.35H61.1917L59.6192 239.94C58.7516 239.235 57.5587 238.802 56.3115 238.802H23.2349C20.7407 238.802 18.7344 240.428 18.7344 242.489V246.99C18.7344 249.05 20.7407 250.677 23.2349 250.677H56.3115C57.5587 250.677 58.7516 250.243 59.6192 249.538L61.1917 248.128H149.414C150.227 253.442 153.698 255.177 165.41 255.774C179.671 256.533 193.389 255.232 201.903 254.093C202.77 253.984 202.716 252.683 201.794 252.629C165.789 252.141 161.397 248.454 161.397 244.712Z" fill="url(#paint0_linear_22_20410)"/>
<path d="M158.249 79.1671C158.141 75.8594 157.49 72.6602 156.622 70.0033C155.701 67.292 154.67 64.9604 153.586 62.8999C152.556 60.8394 151.471 59.05 150.495 57.4233C149.627 55.9411 148.76 54.4952 147.892 53.0853C146.428 50.5368 145.344 47.6629 144.856 44.7891C144.368 41.9152 144.53 38.8786 146.374 35.8963C144.693 35.8963 142.795 36.4386 141.006 37.523C139.271 38.6075 137.644 40.2342 136.397 42.1863C133.848 46.0904 132.493 50.9706 132.655 56.2846C132.71 57.6402 132.818 58.8873 132.981 60.0802C133.143 61.2732 133.36 62.5203 133.577 63.659C134.011 65.9364 134.607 68.1596 135.15 70.1659C135.638 72.1722 136.126 74.0158 136.451 75.6425C136.776 77.2693 136.939 78.6249 136.993 79.9805C137.047 81.553 136.939 83.1797 136.668 84.8064C135.041 85.9451 132.926 86.3789 130.432 85.674C124.413 83.8846 118.666 69.1899 121.268 53.4649C122.57 49.6692 123.871 45.7109 124.847 41.5898C126.149 35.9505 126.908 30.0943 126.365 24.2381C125.877 18.4904 124.142 13.1222 121.431 8.83852C118.774 4.5006 114.978 1.40983 111.291 0C114.002 7.53714 113.189 15.3454 110.857 23.0994C109.664 26.9494 107.929 31.0162 105.977 35.4083C104.079 39.8005 101.802 44.6264 99.7957 50.1572C99.4704 51.0971 99.145 52.0189 98.8197 52.9227C97.8979 55.4712 97.1387 58.1282 96.7049 60.9478C96.2169 63.2795 95.8374 65.6653 95.6747 68.1054C95.4578 71.2504 95.512 74.4496 95.9458 77.5404C95.9458 77.8657 96 78.1369 96.0543 78.408C94.6987 88.1683 89.4932 89.9577 86.3482 81.7157C83.5828 74.5581 88.3545 59.7007 78.4315 47.5003C82.3899 57.2606 63.7368 81.2276 70.4606 100.314C77.2386 119.401 138.403 110.617 138.403 110.617C138.403 110.617 141.331 110.129 144.802 106.55C148.218 104.219 151.363 100.965 153.694 97.061C156.731 91.964 158.52 85.7282 158.249 79.1671Z" fill="url(#paint1_linear_22_20410)"/>
<path d="M210.523 135.776C203.745 131.71 195.503 131.222 188.129 133.933C187.767 134.041 187.406 134.15 187.044 134.258C187.424 133.879 187.749 133.553 188.129 133.119C192.629 127.86 195.774 120.973 197.13 113.545C198.431 106.17 197.943 98.2534 195.666 90.662C193.334 83.2333 190.189 77.7025 188.075 73.0392C186.99 70.6533 186.068 68.5928 185.418 66.5865C185.255 66.0985 185.092 65.5563 184.984 65.1225C184.875 64.6345 184.713 64.1465 184.658 63.6584C184.442 62.6824 184.333 61.7064 184.225 60.6761C183.845 56.5009 184.604 52.1087 185.96 47.9335C186.719 45.8729 187.641 43.8667 188.725 41.9688C189.81 40.0167 191.165 38.2274 192.575 36.4922C190.406 36.7091 187.966 37.1971 185.58 38.1731C183.249 39.1492 180.863 40.5048 178.585 42.2942C174.139 45.9272 170.126 51.2954 168.12 58.1276C167.578 59.8085 167.198 61.5979 166.982 63.4415C166.819 64.3634 166.765 65.3394 166.71 66.2612C166.656 67.2372 166.656 68.159 166.71 69.1351C166.819 72.8765 167.524 76.5095 168.446 79.8714C170.289 86.5952 172.838 92.2887 174.302 97.1689C175.224 100.368 175.874 103.622 176.2 106.767C165.572 109.424 162.535 91.9092 162.535 91.9092C155.594 104.164 156.408 128.782 162.752 125.853C151.528 126.341 140.303 107.471 140.303 107.471C140.303 107.471 137.755 99.2836 127.561 99.2836C118.831 99.2836 112.324 107.146 110.643 109.369C108.962 107.146 102.455 99.2836 93.725 99.2836C83.531 99.2836 80.9824 107.471 80.9824 107.471C80.9824 107.471 69.7581 126.341 58.5338 125.853C68.5652 128.998 68.511 90.6078 62.221 88.0593C62.221 88.0593 50.7255 108.719 45.0863 106.767C45.4116 103.622 46.0623 100.368 46.9841 97.1689C48.4481 92.2887 50.9966 86.5952 52.8403 79.8714C53.7621 76.5095 54.467 72.8765 54.5754 69.1351C54.6297 68.159 54.6297 67.2372 54.5754 66.2612C54.5212 65.3394 54.467 64.3634 54.3043 63.4415C54.0874 61.5979 53.7078 59.8085 53.1656 58.1276C51.1593 51.2954 47.1468 45.9272 42.7004 42.2942C40.423 40.5048 38.0371 39.1492 35.7055 38.1731C33.3197 37.1971 30.8796 36.7091 28.7106 36.4922C30.1205 38.2274 31.4761 40.0167 32.5605 41.9688C33.645 43.8667 34.5668 45.8729 35.326 47.9335C36.6816 52.1087 37.4407 56.5009 37.0611 60.6761C36.9527 61.7064 36.8442 62.6824 36.6273 63.6584C36.5731 64.1465 36.4104 64.6345 36.302 65.1225C36.1935 65.5563 36.0309 66.0985 35.8682 66.5865C35.2175 68.5928 34.2957 70.6533 33.2112 73.0392C31.0965 77.7025 27.9515 83.2333 25.6199 90.662C23.3425 98.2534 22.8545 106.17 24.1558 113.545C25.5114 120.973 28.6564 127.86 33.157 133.119C33.5366 133.553 33.8619 133.879 34.2415 134.258C33.88 134.15 33.5185 134.041 33.157 133.933C25.7826 131.222 17.5405 131.71 10.7625 135.776C7.23798 137.891 3.60499 140.331 0.351562 143.205C13.0942 161.045 31.9641 169.721 51.3762 155.46C52.4065 156.436 41.6701 163.593 50.346 182.518C59.0218 201.388 86.0795 206.485 85.0492 221.776C85.483 222.21 104.407 221.938 110.643 221.83C116.879 221.938 135.803 222.21 136.237 221.776C135.206 206.485 162.264 201.388 170.94 182.518C179.616 163.593 168.879 156.436 169.91 155.46C189.322 169.721 208.192 161.045 220.934 143.205C217.681 140.331 214.048 137.891 210.523 135.776Z" fill="url(#paint2_linear_22_20410)"/>
<path d="M171.696 180.786C164.539 178.671 155.809 177.749 147.946 181.49C130.595 189.624 123.979 216.682 123.979 216.682C123.979 216.682 122.949 199.872 125.498 180.46C128.046 161.048 161.719 141.636 161.719 141.636C161.719 141.636 155.592 133.502 138.24 143.208C122.569 151.993 96.0539 151.993 80.329 143.208C62.9774 133.502 56.8501 141.636 56.8501 141.636C56.8501 141.636 90.5231 161.048 93.0716 180.46C95.6201 199.872 94.6441 216.682 94.6441 216.682C94.6441 216.682 87.9746 189.624 70.6229 181.49C63.6281 178.183 55.9825 178.562 49.3672 180.135C49.6564 180.894 49.9817 181.689 50.3432 182.521C59.019 201.391 86.0767 206.488 85.0465 221.779C85.4803 222.213 104.404 221.942 110.64 221.833C116.876 221.942 135.8 222.213 136.234 221.779C135.204 206.488 162.261 201.391 170.937 182.521C171.19 181.906 171.443 181.328 171.696 180.786Z" fill="url(#paint3_linear_22_20410)"/>
<path d="M126.043 170.754L151.04 153.891C151.04 153.891 154.619 160.018 146.431 169.236C138.243 178.4 126.043 170.754 126.043 170.754Z" fill="white"/>
<path d="M95.2988 170.754L70.2473 153.891C70.2473 153.891 66.6686 160.018 74.8564 169.236C83.0442 178.4 95.2988 170.754 95.2988 170.754Z" fill="white"/>
<path d="M158.521 60.8915C158.521 60.8915 167.63 49.0707 168.227 34.8639C168.932 19.4643 151.851 8.89062 151.851 8.89062C151.851 8.89062 159.226 18.2714 154.074 29.6584C148.11 42.8891 154.508 55.3064 158.521 60.8915Z" fill="url(#paint4_linear_22_20410)"/>
<path d="M95.3528 144.724C95.3528 144.724 104.462 132.903 105.113 118.696C105.818 103.296 88.6832 92.7227 88.6832 92.7227C88.6832 92.7227 96.0577 102.103 90.9064 113.49C84.9418 126.721 91.3402 139.193 95.3528 144.724Z" fill="url(#paint5_linear_22_20410)"/>
<path d="M124.307 141.038C124.307 141.038 116.932 131.44 116.444 119.945C115.848 107.473 129.729 98.8516 129.729 98.8516C129.729 98.8516 123.71 106.497 127.886 115.715C132.766 126.452 127.56 136.537 124.307 141.038Z" fill="url(#paint6_linear_22_20410)"/>
<path d="M62.0596 66.9658C62.0596 66.9658 55.0105 55.3618 59.3484 43.5952C62.6561 34.7567 61.1378 28.6836 61.1378 28.6836C61.1378 28.6836 67.8074 33.8891 68.675 43.8663C69.7594 57.0428 62.0596 66.9658 62.0596 66.9658Z" fill="url(#paint7_linear_22_20410)"/>
<path d="M109.125 108.286C109.125 108.286 102.076 96.6821 106.468 84.9697C109.776 76.077 108.204 70.0039 108.204 70.0039C108.204 70.0039 114.927 75.2094 115.741 85.2409C116.879 98.3631 109.125 108.286 109.125 108.286Z" fill="url(#paint8_linear_22_20410)"/>
<path d="M114.273 165.112L121.919 173.842L151.037 153.887L160.201 161.587L154.074 141.633L123.979 166.142L114.273 165.112Z" fill="url(#paint9_linear_22_20410)"/>
<path d="M93.832 246.288C93.832 246.288 116.823 252.415 127.559 244.281C122.462 257.024 103.05 259.084 93.832 246.288Z" fill="#E10000"/>
<path d="M107.01 165.112L99.3641 173.842L70.2459 153.887L61.082 161.587L67.2093 141.633L97.3036 166.142L107.01 165.112Z" fill="url(#paint10_linear_22_20410)"/>
<path d="M128.59 211.095C122.192 210.661 113.95 212.125 110.642 212.83C107.335 212.125 99.0925 210.661 92.6941 211.095C84.5605 211.583 77.891 220.801 78.4332 228.934C78.9212 237.122 93.7244 244.28 93.7244 244.28C93.7244 244.28 95.2968 239.671 92.6941 235.062C90.1456 230.453 86.0788 228.446 86.0788 228.446C96.1102 229.693 102.834 233.76 101.912 244.28H108.148H113.137H119.372C116.986 233.923 124.74 230.29 135.206 228.446C135.206 228.446 131.139 230.453 128.59 235.062C126.042 239.671 127.56 244.28 127.56 244.28C127.56 244.28 142.363 237.122 142.851 228.934C143.393 220.801 136.724 211.583 128.59 211.095Z" fill="url(#paint11_linear_22_20410)"/>
<defs>
<linearGradient id="paint0_linear_22_20410" x1="109.259" y1="258.418" x2="109.259" y2="232.207" gradientUnits="userSpaceOnUse">
<stop stop-color="#AA0000"/>
<stop offset="1" stop-color="#590800"/>
</linearGradient>
<linearGradient id="paint1_linear_22_20410" x1="185.924" y1="23.3413" x2="182.957" y2="229.607" gradientUnits="userSpaceOnUse">
<stop offset="0.003" stop-color="#B50E0B"/>
<stop offset="0.218" stop-color="#FF0000"/>
<stop offset="0.682" stop-color="#FA9200"/>
<stop offset="1" stop-color="#FA9200"/>
</linearGradient>
<linearGradient id="paint2_linear_22_20410" x1="188.639" y1="43.4931" x2="188.639" y2="375.063" gradientUnits="userSpaceOnUse">
<stop stop-color="#FF0000"/>
<stop offset="0.682" stop-color="#FA9200"/>
<stop offset="1" stop-color="#FA9200"/>
</linearGradient>
<linearGradient id="paint3_linear_22_20410" x1="49.3498" y1="138.449" x2="171.676" y2="138.449" gradientUnits="userSpaceOnUse">
<stop stop-color="#AD0000"/>
<stop offset="1" stop-color="#F82F00"/>
</linearGradient>
<linearGradient id="paint4_linear_22_20410" x1="93.7725" y1="74.7973" x2="82.7896" y2="23.7268" gradientUnits="userSpaceOnUse">
<stop stop-color="#FF0000"/>
<stop offset="1" stop-color="#F8D700"/>
</linearGradient>
<linearGradient id="paint5_linear_22_20410" x1="30.6095" y1="158.637" x2="19.6266" y2="107.566" gradientUnits="userSpaceOnUse">
<stop stop-color="#FF0000"/>
<stop offset="1" stop-color="#F8D700"/>
</linearGradient>
<linearGradient id="paint6_linear_22_20410" x1="176.813" y1="152.32" x2="185.72" y2="110.908" gradientUnits="userSpaceOnUse">
<stop stop-color="#FF0000"/>
<stop offset="1" stop-color="#F8D700"/>
</linearGradient>
<linearGradient id="paint7_linear_22_20410" x1="13.642" y1="77.3486" x2="5.73502" y2="40.5804" gradientUnits="userSpaceOnUse">
<stop stop-color="#FF0000"/>
<stop offset="1" stop-color="#F8D700"/>
</linearGradient>
<linearGradient id="paint8_linear_22_20410" x1="60.7284" y1="118.695" x2="52.8213" y2="81.9267" gradientUnits="userSpaceOnUse">
<stop stop-color="#FF0000"/>
<stop offset="1" stop-color="#F8D700"/>
</linearGradient>
<linearGradient id="paint9_linear_22_20410" x1="125.987" y1="183.768" x2="125.987" y2="125.785" gradientUnits="userSpaceOnUse">
<stop stop-color="#AA0000"/>
<stop offset="1" stop-color="#590800"/>
</linearGradient>
<linearGradient id="paint10_linear_22_20410" x1="72.7857" y1="183.768" x2="72.7857" y2="125.785" gradientUnits="userSpaceOnUse">
<stop stop-color="#AA0000"/>
<stop offset="1" stop-color="#590800"/>
</linearGradient>
<linearGradient id="paint11_linear_22_20410" x1="78.4002" y1="211.01" x2="142.884" y2="211.01" gradientUnits="userSpaceOnUse">
<stop stop-color="#AD0000"/>
<stop offset="1" stop-color="#930000"/>
</linearGradient>
</defs>
</svg>
