<svg width="257" height="256" viewBox="0 0 257 256" fill="none" xmlns="http://www.w3.org/2000/svg">
<path fill-rule="evenodd" clip-rule="evenodd" d="M256.246 128.06C256.246 198.631 198.877 256 128.186 256C57.6151 256 0.246094 198.631 0.246094 128.06C0.246094 57.489 57.6151 0 128.186 0C198.877 0 256.246 57.489 256.246 128.06ZM9.00748 147.263C27.3704 153.504 68.0567 169.466 102.382 197.671C109.703 194.31 117.384 191.07 125.546 187.829C91.1003 163.586 51.9742 143.662 7.44722 129.26C7.52723 135.421 8.04733 141.422 9.00748 147.263ZM16.6887 174.507C31.0909 180.748 57.015 193.23 77.0581 210.153C83.059 206.952 89.4201 203.752 96.1411 200.551C65.0562 175.587 29.0506 160.825 10.3277 154.224C11.8879 161.185 14.0483 168.026 16.6887 174.507ZM71.2972 213.273C54.9747 200.071 34.6915 189.51 20.6493 183.029C28.8106 198.751 40.2124 212.553 54.0145 223.355C59.2953 220.114 65.0562 216.754 71.2972 213.273ZM226.241 198.631C174.153 207.272 126.986 230.196 99.8617 245.438C102.342 246.078 104.862 246.639 107.423 247.119C134.067 232.596 175.594 213.393 221.561 204.752C223.161 202.752 224.721 200.711 226.241 198.631ZM239.083 176.188C214.119 178.108 188.435 182.429 150.39 197.071C123.265 207.512 97.1012 220.834 72.4974 235.237C74.5777 236.277 76.6581 237.277 78.7384 238.237C103.702 222.995 167.552 187.949 236.443 181.828C237.323 179.988 238.203 178.108 239.083 176.188ZM248.685 137.902C240.404 134.061 230.082 129.74 223.721 127.46C201.157 119.539 175.593 115.458 147.389 115.458C125.906 115.458 103.342 117.978 80.8987 122.539C79.2184 120.739 76.9381 119.419 74.8978 118.459C74.1777 118.298 73.4175 118.218 72.6174 118.218C72.3774 117.498 72.0573 116.858 71.6572 116.298L73.3375 115.938V115.698L70.4571 99.8556L100.942 94.2147L102.742 104.176C104.262 103.936 106.183 103.616 108.503 103.216C108.503 103.216 108.543 103.216 108.623 103.216V78.9723H104.182L124.946 46.0872H186.275L207.879 76.572H149.669L131.667 52.5682L115.104 80.4126V102.376C117.664 102.136 120.585 101.856 123.865 101.536V99.9756C123.865 97.2152 128.066 97.2152 128.066 99.9756V101.296C130.226 101.176 138.868 100.816 139.828 100.816C140.668 100.816 141.748 100.696 142.948 100.696V99.9756C142.948 97.2152 147.149 97.2152 147.149 99.9756V100.696C149.189 100.696 151.11 100.696 151.95 100.696V81.3727H202.118V103.336C203.078 103.456 204.638 103.456 205.598 103.696C205.838 101.536 205.838 102.376 205.838 100.696V86.2935C205.838 84.2532 207.518 82.5729 209.559 82.5729C212.679 82.5729 214.48 78.9723 212.679 76.3319L205.238 65.5302C206.078 65.5302 209.199 64.6901 211.359 65.5302C215.2 66.9705 218.44 69.7309 219.52 73.8115C221.561 72.7314 223.961 72.3713 226.481 72.8514C232.242 74.2916 234.643 81.3727 231.282 87.2536C231.202 87.2536 231.162 87.2936 231.162 87.3736C237.523 87.6137 242.204 93.6146 241.604 100.216C244.244 101.536 246.165 103.816 247.125 106.577C237.043 50.1678 187.595 7.20112 128.186 7.20112C67.9367 7.20112 17.8889 51.488 8.88746 109.217C10.2077 108.617 11.6479 108.257 13.0881 108.617C12.248 105.977 14.1683 103.216 16.9287 103.216C15.3685 95.6549 22.2095 92.6545 26.6502 95.2949C26.8903 88.6939 35.2916 86.6535 38.4121 92.4144C39.4922 91.5743 40.9324 91.0942 42.2527 90.9742C41.1725 87.7337 42.7327 84.2532 45.9732 83.053C43.5729 79.8125 45.9733 75.3718 49.8139 75.6118C49.5738 72.3713 52.5743 69.8509 55.6948 70.8111C57.9751 67.6906 62.4158 67.3305 65.1762 70.091C67.9367 68.8908 71.0572 70.571 71.5373 73.5715C72.8575 73.4515 74.0576 73.9316 75.0178 74.8917C48.8537 79.8125 49.0937 79.2124 48.6137 80.5326C39.3722 103.576 39.0121 103.216 39.8523 104.416C40.4524 105.256 41.7726 105.016 42.9728 104.896L43.9329 109.097C42.0126 109.937 40.2124 111.257 38.8921 112.938C33.2513 111.137 26.8903 113.658 23.8898 119.179C23.6498 119.179 23.6497 119.419 23.6497 119.539C22.8096 121.219 22.3296 123.139 22.3296 125.06C21.3694 125.42 20.5293 126.02 19.8092 126.74C21.2494 127.22 22.7296 127.74 24.2498 128.3C24.8899 127.98 25.53 127.78 26.1701 127.7C24.3699 119.539 33.4913 113.298 40.3324 118.098C40.3324 118.018 40.3324 117.938 40.3324 117.858C42.9728 111.617 51.3741 110.297 55.8148 115.458C61.5757 111.737 69.1369 115.338 69.857 122.179C77.1781 120.259 83.5391 127.46 80.6587 134.421C82.819 135.381 84.3793 136.941 85.3394 138.862C79.3385 138.022 73.8176 141.022 71.2972 146.063C70.097 145.943 67.2166 146.543 67.2166 146.543C68.4168 147.143 74.0577 148.823 74.5377 148.463C75.8579 145.103 78.2583 143.662 80.8987 142.942C85.4594 141.742 88.82 144.263 89.5401 144.863C91.8204 141.982 95.421 141.022 98.7815 141.502C104.182 142.342 105.983 147.623 106.223 148.703C112.944 146.063 120.145 151.344 119.425 158.545C126.626 160.105 129.386 168.866 124.706 174.267C128.066 176.068 130.106 179.548 129.866 183.389C130.746 184.029 131.627 184.629 132.507 185.189C164.792 173.307 202.718 163.586 244.604 160.825C244.764 160.105 244.924 159.385 245.084 158.665C205.478 152.544 163.232 157.225 130.586 165.146C130.226 162.985 129.266 161.065 127.946 159.505C161.431 151.224 205.358 146.183 246.525 152.664C246.845 150.984 247.165 149.303 247.485 147.623C215.2 138.142 182.795 136.581 154.71 138.382C138.508 139.462 109.463 144.143 108.623 144.143C107.783 142.822 104.422 139.702 103.942 139.342C138.508 131.901 193.356 125.54 248.325 141.502C248.485 140.302 248.605 139.102 248.685 137.902ZM192.996 99.4956C192.996 94.5748 189.876 90.6142 186.035 90.6142C182.195 90.6142 178.954 94.5748 178.954 99.4956V111.137C183.755 111.697 188.435 112.378 192.996 113.178V99.4956ZM161.311 85.8134V101.056C164.352 101.216 167.432 101.416 170.553 101.656V85.8134H161.311ZM138.148 104.536V108.377H143.308V104.416C141.548 104.416 139.828 104.456 138.148 104.536ZM146.909 108.377H151.83V108.017V104.416C150.15 104.416 148.509 104.416 146.909 104.416V108.377ZM128.066 104.896V108.377H134.547V104.536C132.307 104.616 130.146 104.736 128.066 104.896ZM115.104 106.097V108.377H123.865V105.136C120.585 105.456 117.664 105.777 115.104 106.097ZM107.423 107.057C105.903 107.297 104.582 107.497 103.462 107.657L104.302 112.338C105.743 112.098 107.183 111.897 108.623 111.737L107.423 107.057ZM82.0989 100.096L76.578 101.056L78.3783 110.897L84.0192 109.817L82.0989 100.096ZM248.805 131.781C249.165 126.5 249.765 122.419 248.325 116.898C247.725 115.458 247.005 115.218 247.005 115.218C246.285 111.257 242.804 108.737 238.963 108.977C237.883 104.056 232.602 101.536 228.162 103.576C224.681 99.9756 218.8 100.576 216.16 104.776C210.879 102.016 204.398 106.097 204.758 112.098C202.238 112.458 201.277 114.858 201.277 114.858C202.478 115.098 203.678 115.378 204.878 115.698C206.198 114.498 207.398 114.378 208.599 114.258C208.359 113.058 207.638 110.657 209.919 108.497C211.359 107.177 213.519 106.577 215.56 107.537C216.04 107.777 217.12 108.497 217.6 108.857C218.08 107.657 218.92 105.376 221.681 104.776C223.481 104.296 225.641 105.016 227.442 107.297C229.722 105.857 231.762 105.977 233.323 106.697C235.963 108.137 235.963 110.897 236.083 112.098C237.283 111.737 240.524 110.657 242.804 114.498C244.124 116.778 243.044 118.699 242.564 119.899C244.724 120.499 245.924 121.939 246.285 123.739C246.645 125.9 245.925 127.94 244.004 129.38C245.604 130.1 247.205 130.9 248.805 131.781Z" fill="#649632"/>
<path d="M128.066 95.0552H137.308V78.9727H128.066V95.0552Z" fill="#649632"/>
<path d="M55.5742 100.698L57.4945 110.54L63.0154 109.46L61.2151 99.7383L55.5742 100.698Z" fill="#649632"/>
<path d="M93.6223 57.7318C100.103 57.7318 105.384 52.451 105.384 45.9699C105.384 39.4889 100.103 34.3281 93.6223 34.3281C87.1413 34.3281 81.9805 39.4889 81.9805 45.9699C81.9805 52.451 87.1413 57.7318 93.6223 57.7318Z" fill="#649632"/>
<path d="M88.2201 75.25L51.1344 82.5711L43.4531 101.774L44.0532 101.654C44.8933 101.654 45.6135 102.134 45.7335 102.854L47.0537 108.735C47.6138 108.655 48.2139 108.615 48.854 108.615L47.8938 103.094L54.8549 84.3714L68.177 96.4933C68.257 96.4933 68.297 96.4933 68.297 96.4933L103.583 90.0123L88.2201 75.25Z" fill="#649632"/>
</svg>
