<svg width="257" height="256" viewBox="0 0 257 256" fill="none" xmlns="http://www.w3.org/2000/svg">
<path d="M238.95 128C238.95 189.034 189.467 238.465 128.485 238.465C67.5025 238.465 18.0195 189.034 18.0195 128C18.0195 67.0181 67.5025 17.5352 128.485 17.5352C189.467 17.5352 238.95 67.0181 238.95 128Z" fill="#B21919"/>
<path fill-rule="evenodd" clip-rule="evenodd" d="M128.486 252.15C107.464 252.15 86.7034 246.79 68.388 236.592L65.0579 234.771L68.492 233.158C76.5571 229.411 85.8189 223.376 90.9701 219.421C98.827 213.385 102.938 208.286 106.268 200.637C108.661 195.07 109.754 190.283 110.066 188.514L110.638 185.704L113.032 187.265C114.957 188.514 119.64 192.416 122.45 201.21C123.907 205.736 124.427 209.171 124.791 211.876C125.364 215.727 125.676 218.016 128.069 220.67L128.642 221.346C132.96 226.133 134.105 227.746 135.51 237.06C136.082 240.91 136.499 245.229 136.759 249.912L136.915 251.889L134.938 251.993C132.804 252.097 130.619 252.15 128.486 252.15ZM73.5392 234.979C90.4498 243.72 109.39 248.299 128.486 248.299C129.908 248.299 131.347 248.264 132.804 248.195C132.544 244.345 132.18 240.806 131.712 237.632C130.411 229.099 129.63 228.215 125.78 223.896L125.155 223.219C122.034 219.733 121.565 216.507 120.993 212.449C120.629 209.847 120.16 206.621 118.807 202.406C117.194 197.359 114.905 194.237 113.136 192.416C112.512 194.914 111.419 198.348 109.806 202.198C106.216 210.523 101.741 215.987 93.3636 222.439C88.5766 226.133 80.9278 231.18 73.5392 234.979ZM39.8221 215.519L32.9538 207.193C14.5343 184.976 4.33594 156.878 4.33594 128C4.33594 59.5771 60.0628 3.90234 128.486 3.90234C196.908 3.90234 252.635 59.5771 252.635 128C252.635 130.914 252.479 134.088 252.219 137.678L251.751 143.349L248.681 138.562C248.195 137.834 247.761 137.106 247.38 136.377C242.541 127.271 239.315 122.016 229.637 119.102C225.162 117.749 221.572 117.021 218.658 116.397C214.86 115.616 212.102 115.044 210.125 113.691C209.292 113.119 208.668 112.546 208.043 112.026C206.014 110.257 203.777 108.332 195.92 106.094C193.526 105.418 191.497 104.949 189.78 104.533C183.536 103.076 180.154 102.296 174.066 96.6763C167.51 90.6926 164.128 84.5007 163.243 82.7836L162.515 81.3267L163.816 80.3381C163.92 80.2861 163.972 80.182 163.972 80.182C164.076 79.8698 163.868 79.1414 162.983 78.0487C159.341 73.3137 160.486 65.5088 160.902 63.2194C161.786 58.5885 160.954 50.7836 155.751 44.0194C150.391 37.0471 144.355 34.1332 143.211 33.6129L142.586 33.3007L142.274 32.7284C141.806 31.7397 139.048 26.9528 133.064 26.9528C132.544 26.9528 132.006 26.9874 131.451 27.0568L130.047 27.2129C121.773 28.3056 112.355 29.5023 102.625 35.8503C92.9993 42.0942 86.2351 45.2682 82.5408 45.2682C81.6042 45.2682 80.8237 45.0601 80.1994 44.6958C79.2107 47.0893 78.014 51.2519 79.679 54.634C81.0319 57.4438 84.2059 59.2649 89.0969 60.0454L90.9701 60.3056L90.6579 62.2308C90.5538 63.1153 90.2937 65.6129 90.6059 68.995C90.814 71.3365 91.1782 72.4292 91.4384 73.4178C91.7506 74.3544 92.0107 75.2389 92.0628 76.6958V77.3723C92.1148 79.7658 92.2189 81.1706 93.2595 82.0552C93.4676 82.2286 93.6584 82.3847 93.8319 82.5235C95.601 83.9284 96.1213 84.917 96.2774 89.1316C96.3815 91.6812 96.2774 93.8666 96.1733 95.7397C96.1213 97.4568 96.0172 98.8617 96.1213 100.267C96.2774 102.92 96.6937 102.972 98.0465 103.232C98.3587 103.284 98.4628 103.284 98.879 102.92C99.2433 102.66 99.8156 102.192 100.7 102.192C101.273 102.192 101.689 102.4 102.001 102.556C103.926 103.649 104.394 104.793 104.967 106.51C105.279 107.395 105.539 107.499 106.32 107.707L107.985 108.176L107.725 109.893C107.62 110.621 107.62 111.974 109.181 112.702C111.211 113.639 112.355 114.055 112.876 114.211L114.541 114.784L114.177 116.501C114.02 117.073 113.76 118.53 114.437 119.519C114.922 120.212 115.859 120.611 117.247 120.715C121.825 120.976 123.282 120.195 125.52 118.894C126.248 118.53 126.873 118.166 127.653 117.802C130.047 116.605 133.012 115.564 135.042 114.888L140.973 112.962L137.175 117.906C135.458 120.195 133.116 123.161 132.076 124.254C131.295 124.982 130.099 125.867 128.746 126.855C127.185 128 125.416 129.249 124.739 130.081C123.803 131.33 123.022 132.527 122.762 132.995L122.19 133.984L120.681 133.932C118.651 133.932 113.136 134.348 106.06 138.458C97.318 143.506 90.2937 153.652 88.3685 157.502C86.9115 160.572 84.6221 166.452 84.2059 167.597L83.8937 168.481L83.0091 168.741C81.9164 169.106 76.2969 171.135 72.6546 176.39C68.9603 181.697 67.7636 187.681 67.5554 188.774L67.3473 189.815L61.6758 192.208L60.7912 191.167C56.4205 186.207 53.576 182.929 52.2579 181.333C50.1246 178.836 47.4189 172.384 46.7424 170.406L45.962 168.013L48.4595 167.857C50.853 167.649 63.2888 166.14 69.6888 153.236C73.3831 145.691 73.4872 138.354 70.001 131.486C68.5788 128.26 66.4801 125.346 63.705 122.745C61.5197 120.403 59.8546 119.05 59.4384 118.738L58.814 118.27L58.7099 117.593C58.2416 115.356 53.6628 95.7397 34.7229 94.4389C34.272 94.4042 33.821 94.3869 33.3701 94.3869C22.1831 94.3869 13.0254 103.336 10.6319 111.974C8.13431 121.288 12.9213 133.203 18.905 137.678L19.7896 138.302L19.6855 139.343C19.6335 140.176 19.4774 143.245 20.5701 147.252C21.7148 151.571 24.5766 157.815 31.5489 163.226L32.1733 163.746L32.2774 164.579C32.4855 167.128 33.6823 180.136 33.5262 187.265C33.4221 191.636 33.7863 198.348 36.2319 205.32L39.8221 215.519ZM8.23838 128.676C8.34244 153.34 16.1473 177.431 30.3522 197.463C29.7278 193.509 29.6237 189.919 29.6758 187.213C29.8319 180.865 28.8433 169.21 28.5311 165.775C21.1424 159.844 18.1246 153.028 16.8237 148.293C15.8872 144.702 15.7831 141.841 15.7831 140.123C12.7652 137.574 10.0075 133.411 8.23838 128.676ZM51.2693 171.395C52.362 173.945 54.027 177.483 55.2238 178.888C56.4725 180.345 58.9701 183.31 62.7685 187.629L63.9652 187.109C64.5376 184.559 66.0465 179.2 69.5327 174.205C73.227 168.897 78.4823 166.4 80.9278 165.463C81.7603 163.33 83.5815 158.595 84.9343 155.837C86.9636 151.675 94.6644 140.644 104.134 135.128C111.367 130.966 117.299 130.185 120.056 130.081C120.473 129.457 121.045 128.572 121.721 127.74C122.71 126.491 124.531 125.138 126.456 123.785C127.653 122.953 128.798 122.068 129.318 121.548C129.457 121.444 129.596 121.288 129.734 121.08C129.63 121.149 129.509 121.218 129.37 121.288C128.642 121.6 128.069 121.964 127.497 122.276C124.999 123.681 122.814 124.93 117.038 124.566C113.708 124.41 112.043 122.901 111.263 121.704C110.274 120.299 110.118 118.686 110.17 117.385C109.494 117.073 108.661 116.709 107.62 116.241C105.019 115.096 103.978 112.91 103.822 110.881C102.834 110.361 101.897 109.476 101.325 107.759C101.064 106.979 100.908 106.667 100.752 106.406C99.9717 106.875 98.9311 107.343 97.3701 107.083C93.4156 106.354 92.479 103.961 92.2709 100.527C92.1668 98.9137 92.2709 97.4048 92.3229 95.6357C92.427 93.7625 92.5311 91.7332 92.427 89.2877C92.3229 86.2698 92.2189 86.1658 91.4384 85.5934C91.2302 85.42 91.0221 85.2465 90.814 85.0731C88.3685 82.9918 88.3164 80.234 88.2124 77.4763V76.8519C88.1603 75.9153 88.0042 75.395 87.7961 74.5625C87.4839 73.5219 87.0156 72.117 86.7554 69.4113C86.5473 67.0178 86.5473 64.9885 86.6514 63.5316C81.4481 62.3869 77.962 59.9414 76.1928 56.3511C72.8628 49.4308 77.5977 41.1576 77.8059 40.7934L81.1359 35.0178L82.3327 41.4178C83.2693 41.5218 87.4319 41.1576 100.492 32.6763C111.003 25.8601 120.889 24.5593 129.578 23.4145L130.931 23.2584C131.66 23.1544 132.371 23.1023 133.064 23.1023C140.401 23.1023 144.199 28.3056 145.396 30.3869C147.529 31.4796 153.513 34.8097 158.82 41.6779C164.804 49.4308 165.741 58.5365 164.7 63.9479C164.024 67.6942 163.92 72.9495 166.053 75.7072C167.614 77.7365 168.186 79.6097 167.666 81.3267C167.597 81.6389 167.475 81.9338 167.302 82.2113C168.603 84.5527 171.62 89.2357 176.668 93.8666C182.027 98.8097 184.733 99.434 190.56 100.787C192.486 101.255 194.515 101.723 196.96 102.452C205.65 104.845 208.251 107.135 210.541 109.112C211.165 109.632 211.686 110.101 212.31 110.517C213.663 111.454 216.056 111.974 219.438 112.65C222.404 113.275 226.099 114.055 230.729 115.408C240.147 118.27 244.414 123.265 248.733 130.81C248.767 129.873 248.785 128.954 248.785 128.052C248.785 61.7105 194.827 7.75275 128.486 7.75275C70.8335 7.75275 22.4953 48.5983 10.892 102.868C15.9912 95.6357 24.9408 89.9121 34.9831 90.6406C55.4319 91.9934 61.2595 111.558 62.3002 116.136C63.1847 116.813 64.6937 118.166 66.4628 120.039C69.5327 122.953 71.9262 126.283 73.4872 129.873C77.5457 137.782 77.4416 146.263 73.1229 154.953C67.1392 167.076 56.4725 170.458 51.2693 171.395Z" fill="#F4F4F4"/>
<path fill-rule="evenodd" clip-rule="evenodd" d="M256.484 128C256.484 198.608 199.04 256 128.484 256C57.9283 256 0.484375 198.608 0.484375 128C0.484375 57.4439 57.9283 0 128.484 0C199.04 0 256.484 57.4439 256.484 128ZM134.832 250.068C134.624 246.426 134.26 241.847 133.584 237.372C132.231 228.215 131.19 227.07 127.236 222.647L126.611 221.919C123.853 218.849 123.437 216.039 122.917 212.189C122.501 209.483 122.032 206.205 120.627 201.834C117.974 193.509 113.603 189.971 111.99 188.878C111.626 190.751 110.533 195.642 108.036 201.418C104.549 209.379 100.283 214.686 92.1657 220.93C86.5982 225.197 77.3364 231.128 69.3234 234.927C86.8583 244.657 106.995 250.224 128.484 250.224C130.635 250.224 132.751 250.172 134.832 250.068ZM250.292 137.522C250.501 134.348 250.709 131.226 250.709 128C250.709 60.5138 195.971 5.82764 128.484 5.82764C60.9982 5.82764 6.31202 60.5138 6.31202 128C6.31202 157.659 16.8746 184.819 34.4616 205.945C31.9641 199.024 31.4437 192.208 31.5998 187.213C31.7559 180.085 30.5071 166.712 30.351 164.787C22.9624 159.011 19.9445 152.351 18.6958 147.72C17.551 143.506 17.6551 140.228 17.7592 139.239C11.2031 134.348 5.99982 121.6 8.75754 111.506C11.3592 102.14 21.2453 92.4618 33.3689 92.4618C33.8893 92.4618 34.3922 92.4791 34.8779 92.5138C55.2226 93.8667 60.1136 114.784 60.5819 117.177C61.1023 117.593 62.8714 118.998 65.0567 121.34C67.3462 123.525 69.9478 126.647 71.7169 130.602C74.5266 136.169 76.3478 144.078 71.4047 154.068C64.6405 167.805 51.6323 169.574 48.5624 169.782C49.2388 171.655 51.8405 177.795 53.7136 180.085C55.7949 182.53 60.9982 188.514 62.1949 189.919L65.6291 188.462C65.8893 187.005 67.1901 180.865 71.0925 175.246C75.047 169.574 81.0827 167.389 82.3836 166.92C82.9039 165.672 85.1413 159.792 86.6502 156.67C88.6275 152.663 95.964 142.049 105.07 136.794C112.562 132.475 118.494 132.006 120.679 132.006C120.853 132.006 120.992 132.006 121.096 132.006C121.46 131.434 122.188 130.185 123.229 128.885C124.062 127.844 125.883 126.543 127.6 125.294C128.849 124.358 130.045 123.525 130.67 122.901C131.71 121.86 134.26 118.582 135.665 116.709C133.844 117.333 130.878 118.374 128.484 119.519C127.756 119.883 127.132 120.247 126.507 120.559C124.114 121.912 122.345 122.953 117.141 122.641C115.112 122.537 113.655 121.808 112.823 120.611C111.782 118.998 112.042 117.021 112.302 116.033C111.626 115.824 110.429 115.408 108.4 114.472C105.902 113.327 105.59 111.037 105.798 109.58C104.653 109.268 103.717 108.8 103.145 107.135C102.624 105.574 102.312 105.002 101.063 104.273C100.647 104.065 100.543 104.117 100.127 104.429C99.6584 104.793 98.9819 105.366 97.6811 105.106C95.1836 104.689 94.351 103.597 94.1949 100.371C94.0909 98.8618 94.1429 97.3528 94.247 95.6358C94.351 93.7626 94.4551 91.6813 94.351 89.1837C94.1949 85.2813 93.8307 84.9691 92.634 84.0325C92.4605 83.8938 92.2524 83.7377 92.0096 83.5642C90.2925 82.0553 90.1884 79.9219 90.1364 77.4244V76.748C90.0844 75.5512 89.8762 74.8748 89.6161 73.9902C89.3039 72.9496 88.9397 71.7008 88.6795 69.2032C88.3153 65.665 88.6275 63.0114 88.7836 61.9187C83.2161 61.0341 79.5738 58.9008 77.9088 55.4667C74.9949 49.4829 79.2616 42.0423 79.4697 41.7301L80.1982 40.4813L80.4584 41.8862C80.5624 42.5626 80.9267 43.3431 82.5397 43.3431C85.8177 43.3431 92.3738 40.2211 101.532 34.2374C111.678 27.6813 121.304 26.4325 129.837 25.3398L131.19 25.1317C131.814 25.0623 132.439 25.0276 133.063 25.0276C140.14 25.0276 143.418 30.6992 143.99 31.8439C145.187 32.3642 151.639 35.4862 157.31 42.8228C162.878 50.1073 163.762 58.5366 162.826 63.5837C161.993 67.8504 161.993 73.626 164.491 76.852C165.688 78.361 166.104 79.6618 165.792 80.7545C165.636 81.3268 165.271 81.6911 164.959 81.8992C165.792 83.5642 169.018 89.4439 175.366 95.2715C181.089 100.527 184.107 101.255 190.143 102.66C191.912 103.076 193.993 103.545 196.439 104.273C204.712 106.563 207.105 108.696 209.291 110.517C209.915 111.089 210.488 111.61 211.216 112.078C212.881 113.223 215.431 113.743 219.021 114.524C221.987 115.096 225.629 115.876 230.156 117.229C240.562 120.351 244.101 126.179 249.096 135.441C249.443 136.169 249.842 136.863 250.292 137.522Z" fill="#F4F4F4"/>
<path fill-rule="evenodd" clip-rule="evenodd" d="M256.484 128C256.484 198.608 199.04 256 128.484 256C57.9283 256 0.484375 198.608 0.484375 128C0.484375 57.4439 57.9283 0 128.484 0C199.04 0 256.484 57.4439 256.484 128ZM248.888 146.732C249.2 141.997 244.049 131.018 237.545 125.346C231.04 119.675 226.045 121.132 219.281 118.686C212.517 116.293 199.665 114.94 198.468 123.993C197.219 133.047 207.626 141.164 207.626 141.164C207.626 141.164 195.346 136.013 193.733 127.896C192.068 119.779 201.174 114.367 201.174 114.367C194.93 113.951 189.362 118.686 186.293 118.01C174.221 115.408 162.201 124.774 162.201 124.774C162.201 124.774 167.145 117.698 175.366 115.876C183.431 114.107 190.871 113.639 193.057 110.725C191.027 109.945 181.974 108.384 176.823 104.429C170.162 99.3301 164.491 91.3171 161.837 86.7902C161.265 88.4553 160.224 89.9122 160.224 89.9122C159.912 86.1138 155.853 84.5008 155.853 84.5008C156.218 87.987 153.512 90.9528 153.512 90.9528C151.171 85.5935 143.938 87.2065 142.533 87.5707C142.429 88.3512 142.221 89.1317 142.013 90.0683C141.076 93.8146 139.151 96.052 136.862 96.052C136.723 96.052 136.601 96.052 136.497 96.052C134.78 95.8439 133.948 94.6992 133.584 94.0228C133.271 93.7106 133.011 93.2943 132.751 92.826C131.242 90.1203 130.201 89.548 130.826 88.3512C131.45 87.1024 132.231 87.7789 131.866 86.0618C131.866 86.0618 132.855 86.426 133.063 87.3106C133.063 87.3453 133.063 87.3973 133.063 87.4667C133.115 88.4553 135.249 88.1431 134.936 87.3626C134.676 86.5301 133.688 86.374 133.948 84.9691C134.156 83.5122 135.145 82.9919 134.676 82.2114C134.676 82.2114 131.762 79.2976 132.803 77.6325C133.896 75.9154 135.093 79.8699 135.093 79.8699C135.093 79.8699 135.613 77.7366 134.572 76.852C134.572 76.852 138.683 76.1756 139.619 80.078C140.556 84.0325 139.671 86.9984 140.088 88.6634C140.504 90.3805 139.047 91.9935 139.099 91.8374C139.099 91.7333 139.411 90.2764 138.839 89.9122C138.214 89.4959 139.515 88.7675 138.423 87.987C137.33 87.2065 137.174 88.6634 135.925 89.1837C134.676 89.7041 133.948 88.8195 133.948 88.8195C133.948 88.8195 132.439 88.8715 132.907 90.1203C133.323 91.3691 135.04 92.3057 136.029 91.3691C136.029 91.3691 136.029 92.3057 135.197 92.7219C135.197 92.7219 136.497 92.878 137.538 91.8374C137.538 91.8374 136.601 93.3984 135.145 93.3984C135.145 93.3984 135.04 93.8146 135.145 94.2829C135.457 94.5951 135.925 94.9073 136.601 94.9593C138.475 95.1675 140.14 93.1902 140.972 89.8081C141.857 86.2179 141.701 84.2927 141.545 81.587V81.2748C141.493 80.3382 141.128 79.1935 140.608 77.9967C139.619 76.4358 138.058 74.9268 135.665 74.7187C130.774 74.3545 130.358 77.9967 130.358 77.9967L130.149 78.361C124.582 81.4829 128.536 88.1951 128.536 88.1951C128.536 88.1951 125.727 91.9415 123.853 91.161C121.98 90.3285 122.969 90.5886 121.772 84.9171C120.627 79.2455 118.442 76.1756 112.562 73.9382C106.735 71.6488 109.597 70.0358 109.857 64.9886C110.169 59.9415 104.445 55.8829 99.9706 57.7041C99.9706 57.7041 92.2697 62.1789 92.2177 67.5382C92.1136 72.8455 95.9641 71.4927 95.808 74.8228C95.5998 78.1528 92.8941 76.5398 93.3624 79.2455C93.8307 81.9512 97.6291 82.6797 104.653 84.1366C111.678 85.5415 111.938 87.4667 110.065 87.7268C110.065 87.7268 110.481 92.1496 106.995 93.3984C103.457 94.6471 100.127 91.265 100.127 91.265C100.127 91.265 99.9706 95.2195 101.74 96.6764C103.561 98.0813 105.018 100.006 105.07 102.088C105.07 102.088 107.879 103.128 110.065 106.563L109.961 108.384C109.961 108.384 112.562 108.852 114.019 110.621C114.019 110.621 112.666 110.257 111.574 111.089C111.574 111.089 110.481 113.535 114.54 114.42C118.598 115.304 121.98 117.333 127.392 116.345C132.803 115.304 138.839 113.951 140.712 112.286C142.637 110.569 141.909 103.076 141.961 103.337C142.065 103.597 143.99 108.904 146.123 113.535C148.309 118.114 150.026 128.312 149.922 132.735C149.922 132.735 143.314 126.439 141.701 122.641C141.701 122.641 138.839 128.833 131.606 130.029C131.606 130.029 133.479 127.48 132.699 124.254C132.699 124.254 129.421 128.833 123.697 134.192C117.922 139.499 107.775 143.714 107.775 143.714C107.775 143.714 116.361 138.667 118.962 134.608C111.574 136.429 102.676 139.967 93.8827 150.218C85.1413 160.52 84.4128 169.158 84.4128 169.158C84.4128 169.158 75.047 172.176 70.8323 179.98C66.5657 187.837 69.7397 196.839 69.7397 196.839C70.8323 198.868 71.821 204.332 71.821 204.332C70.5722 200.117 65.7852 195.226 65.7852 195.226C67.138 198.14 67.6063 202.771 67.7624 206.361C66.9299 200.273 63.808 195.174 63.808 195.174C63.808 195.174 52.2567 186.485 49.551 179.252C47.3136 173.372 44.0876 170.25 42.9949 169.314C37.6356 168.689 33.473 166.14 31.4437 164.839C31.4437 164.839 31.4437 164.856 31.4437 164.891C33.6291 166.4 35.086 167.076 35.086 167.076C35.086 167.076 34.5657 177.275 34.9299 185.236C35.2941 193.145 37.6356 208.13 45.6486 214.478C50.3836 218.172 53.1933 222.439 54.7543 225.405C55.847 226.237 56.9917 227.07 58.1364 227.902C67.5543 222.491 69.3754 214.894 69.3754 214.894C69.9478 222.647 64.9527 228.111 62.0909 230.556C62.5765 230.868 63.0622 231.18 63.5478 231.493C67.4502 230.608 74.6307 228.163 84.4128 221.502C99.7624 211.044 100.855 200.637 100.855 200.637C92.2697 207.141 81.3949 202.719 81.3949 202.719C81.3949 202.719 90.2925 203.343 96.7966 196.943C103.301 190.543 103.092 181.177 101.115 172.8C99.138 164.371 91.021 165.463 91.021 165.463C96.1722 163.85 98.1494 165.724 98.1494 165.724C95.1836 159.792 98.1494 153.756 98.1494 153.756C96.7966 159.063 100.023 166.816 100.023 166.816C99.2941 163.486 101.323 159.428 101.323 159.428C100.647 162.706 101.948 168.169 101.948 168.169C103.821 169.782 101.844 174.309 111.053 181.958C120.263 189.659 133.219 186.849 133.219 186.849C133.219 186.849 122.397 191.532 122.969 199.128C123.489 206.673 127.808 201.834 131.346 214.27C133.584 222.283 138.995 225.873 142.533 227.382C144.562 227.33 148.413 226.602 147.684 222.075C146.748 215.987 145.135 213.021 142.013 210.732C138.891 208.39 138.787 208.286 139.879 205.32C140.92 202.302 138.11 196.631 140.244 189.763C140.244 189.763 140.4 203.551 147.58 207.037C154.761 210.576 168.029 205.841 168.029 205.841C168.029 205.841 161.525 210.159 155.541 211.096C149.61 212.085 151.223 217.496 152.992 221.242C154.761 225.041 165.844 226.966 174.897 226.394C183.951 225.873 187.906 229.932 187.906 229.932C187.906 229.932 181.401 228.683 173.128 231.285C164.907 233.834 158.247 234.25 159.756 240.494C160.276 242.628 162.253 243.928 164.699 244.761C179.112 240.286 192.38 233.21 203.984 224.052C203.411 224.052 203.047 224 203.047 224C204.244 223.48 205.336 222.855 206.377 222.127C207.591 221.121 208.788 220.098 209.967 219.057C215.379 213.229 216.732 205.424 213.506 202.719C209.187 199.128 202.943 196.319 202.943 196.319C207.105 196.527 211.476 195.122 215.066 193.509C219.906 191.376 222.299 185.86 220.53 180.865C218.657 175.662 215.691 169.834 211.684 169.158C204.4 168.013 203.411 173.58 195.814 180.189C188.27 186.745 175.522 188.462 175.522 188.462C181.558 186.953 186.084 181.906 186.084 181.906C196.387 178.367 199.249 171.603 199.249 171.603C188.998 175.922 178.8 174.933 178.8 174.933C178.8 174.933 185.46 175.193 197.115 169.626C208.719 164.059 210.175 158.075 210.175 158.075C208.979 155.109 211.164 151.519 211.164 151.519C211.528 155.005 214.702 154.849 214.702 154.849C214.858 149.698 210.332 148.241 210.332 148.241C217.096 149.333 217.72 154.016 217.72 154.016C229.74 153.184 237.961 164.059 237.961 164.059C227.658 154.849 217.72 160.052 217.72 160.052C227.502 162.393 230.26 178.472 235.619 184.039C235.88 184.351 236.244 184.715 236.556 185.028C241.863 174.985 245.818 164.163 248.211 152.663C246.078 154.849 243.788 155.889 243.788 155.889C243.788 155.889 248.627 151.467 248.888 146.732ZM134.832 250.068C134.624 246.426 134.26 241.847 133.584 237.372C132.231 228.215 131.19 227.07 127.236 222.647L126.611 221.919C123.853 218.849 123.437 216.039 122.917 212.189C122.501 209.483 122.032 206.205 120.627 201.834C117.974 193.509 113.603 189.971 111.99 188.878C111.626 190.751 110.533 195.642 108.036 201.418C104.549 209.379 100.283 214.686 92.1657 220.93C86.5982 225.197 77.3364 231.128 69.3234 234.927C86.8583 244.657 106.995 250.224 128.484 250.224C130.635 250.224 132.751 250.172 134.832 250.068ZM149.453 248.403C151.691 247.987 153.928 247.519 156.114 246.998C155.385 244.709 154.813 241.535 150.806 241.691C150.806 241.691 153.252 240.338 151.639 235.343C150.442 231.597 148.985 229.047 146.227 228.735C146.123 228.77 146.002 228.787 145.863 228.787C139.099 229.515 137.122 232.325 140.972 241.171C142.481 244.605 145.863 246.842 149.453 248.403ZM250.709 128C250.709 60.5138 195.971 5.82764 128.484 5.82764C60.9982 5.82764 6.31202 60.5138 6.31202 128C6.31202 157.659 16.8746 184.819 34.4616 205.945C31.9641 199.024 31.4437 192.208 31.5998 187.213C31.7559 180.085 30.5071 166.712 30.351 164.787C22.9624 159.011 19.9445 152.351 18.6958 147.72C17.551 143.506 17.6551 140.228 17.7592 139.239C11.2031 134.348 5.99982 121.6 8.75754 111.506C11.3592 102.14 21.2453 92.4618 33.3689 92.4618C33.8893 92.4618 34.3922 92.4791 34.8779 92.5138C55.2226 93.8667 60.1136 114.784 60.5819 117.177C61.1023 117.593 62.8714 118.998 65.0567 121.34C67.3462 123.525 69.9478 126.647 71.7169 130.602C74.5266 136.169 76.3478 144.078 71.4047 154.068C64.6405 167.805 51.6323 169.574 48.5624 169.782C49.2388 171.655 51.8405 177.795 53.7136 180.085C55.7949 182.53 60.9982 188.514 62.1949 189.919L65.6291 188.462C65.8893 187.005 67.1901 180.865 71.0925 175.246C75.047 169.574 81.0827 167.389 82.3836 166.92C82.9039 165.672 85.1413 159.792 86.6502 156.67C88.6275 152.663 95.964 142.049 105.07 136.794C112.562 132.475 118.494 132.006 120.679 132.006C120.853 132.006 120.992 132.006 121.096 132.006C121.46 131.434 122.188 130.185 123.229 128.885C124.062 127.844 125.883 126.543 127.6 125.294C128.849 124.358 130.045 123.525 130.67 122.901C131.71 121.86 134.26 118.582 135.665 116.709C133.844 117.333 130.878 118.374 128.484 119.519C127.756 119.883 127.132 120.247 126.507 120.559C124.114 121.912 122.345 122.953 117.141 122.641C115.112 122.537 113.655 121.808 112.823 120.611C111.782 118.998 112.042 117.021 112.302 116.033C111.626 115.824 110.429 115.408 108.4 114.472C105.902 113.327 105.59 111.037 105.798 109.58C104.653 109.268 103.717 108.8 103.145 107.135C102.624 105.574 102.312 105.002 101.063 104.273C100.647 104.065 100.543 104.117 100.127 104.429C99.6584 104.793 98.9819 105.366 97.6811 105.106C95.1836 104.689 94.351 103.597 94.1949 100.371C94.0909 98.8618 94.1429 97.3528 94.247 95.6358C94.351 93.7626 94.4551 91.6813 94.351 89.1837C94.1949 85.2813 93.8307 84.9691 92.634 84.0325C92.4605 83.8938 92.2524 83.7377 92.0096 83.5642C90.2925 82.0553 90.1884 79.9219 90.1364 77.4244V76.748C90.0844 75.5512 89.8762 74.8748 89.6161 73.9902C89.3039 72.9496 88.9397 71.7008 88.6795 69.2032C88.3153 65.665 88.6275 63.0114 88.7836 61.9187C83.2161 61.0341 79.5738 58.9008 77.9088 55.4667C74.9949 49.4829 79.2616 42.0423 79.4697 41.7301L80.1982 40.4813L80.4584 41.8862C80.5624 42.5626 80.9267 43.3431 82.5397 43.3431C85.8177 43.3431 92.3738 40.2211 101.532 34.2374C111.678 27.6813 121.304 26.4325 129.837 25.3398L131.19 25.1317C131.814 25.0623 132.439 25.0276 133.063 25.0276C140.14 25.0276 143.418 30.6992 143.99 31.8439C145.187 32.3642 151.639 35.4862 157.31 42.8228C162.878 50.1073 163.762 58.5366 162.826 63.5837C161.993 67.8504 161.993 73.626 164.491 76.852C165.688 78.361 166.104 79.6618 165.792 80.7545C165.636 81.3268 165.271 81.6911 164.959 81.8992C165.792 83.5642 169.018 89.4439 175.366 95.2715C181.089 100.527 184.107 101.255 190.143 102.66C191.912 103.076 193.993 103.545 196.439 104.273C204.712 106.563 207.105 108.696 209.291 110.517C209.915 111.089 210.488 111.61 211.216 112.078C212.881 113.223 215.431 113.743 219.021 114.524C221.987 115.096 225.629 115.876 230.156 117.229C240.562 120.351 244.101 126.179 249.096 135.441C249.443 136.169 249.842 136.863 250.292 137.522C250.501 134.348 250.709 131.226 250.709 128ZM39.1445 124.722C39.1445 124.722 26.9169 132.839 25.3559 143.037C23.899 152.715 28.9982 159.167 32.8486 161.873C30.4031 159.74 28.5299 156.878 27.4372 153.08C22.7543 136.221 38.8323 124.41 48.0941 124.098C53.1413 123.889 60.2177 124.774 65.0567 128.676C62.9234 125.554 57.5641 123.421 57.5641 123.421C57.5641 123.421 55.2746 119.571 57.0437 119.935C61.4145 120.819 64.2242 122.537 65.9933 124.098C62.7673 120.091 59.8014 117.958 59.7494 117.958L59.5933 117.802V117.698C56.9917 116.345 50.5917 113.639 42.4746 114.732C37.7397 115.356 33.8372 116.813 30.9234 118.218C23.1706 122.901 18.1754 132.475 18.2795 138.042L20.1527 139.135C20.1527 139.135 19.5803 143.714 21.6616 149.698C21.1413 145.535 21.2974 140.176 23.899 134.972C29.3104 124.254 35.7104 122.433 35.7104 122.433C29.4145 126.231 26.7088 132.006 26.7088 132.006C28.3738 129.613 32.4323 126.699 33.5771 125.815C30.4551 128.156 28.4258 132.267 28.4258 132.267C31.0275 128.52 39.1445 124.722 39.1445 124.722ZM40.1332 97.3528C40.1332 97.3528 22.286 95.6878 15.6779 110.569C15.6779 110.569 23.3787 97.1967 38.9364 98.7057C45.9608 99.3821 51.112 102.348 53.5575 107.083C54.4941 108.904 55.3787 109.945 56.1071 110.621C54.8584 106.979 51.3201 102.192 47.938 99.226C43.9836 95.7919 37.8958 94.0748 31.5478 94.491C25.1998 94.9073 15.886 100.111 11.6714 109.112C9.17381 114.472 9.69413 119.727 10.4746 123.161C10.3706 121.028 10.4746 118.79 10.9429 116.293C13.7527 101.255 31.7559 95.0114 40.1332 97.3528ZM139.411 88.6634C141.388 81.7431 136.393 80.2341 136.393 80.2341C139.619 82.4715 139.411 88.6634 139.411 88.6634ZM233.07 191.22C231.873 190.127 230.936 189.242 230.364 188.774C229.532 190.543 227.294 195.694 225.161 202.719C227.971 199.024 230.676 195.226 233.07 191.22Z" fill="#353535"/>
<path d="M148.57 182.063C140.921 175.299 141.805 169.523 141.805 169.523C141.805 169.523 138.007 189.296 165.272 187.995C162.722 187.995 154.866 187.631 148.57 182.063Z" fill="#353535"/>
<path d="M108.191 98.291C108.191 98.291 110.897 98.0308 118.286 103.234C125.674 108.437 126.455 115.618 126.455 115.618C126.455 115.618 127.808 109.322 122.656 103.13C117.557 96.9902 108.191 98.291 108.191 98.291Z" fill="#353535"/>
<path d="M143.26 163.745C146.07 162.809 148.1 163.901 148.1 163.901C148.1 163.901 144.301 161.612 145.134 158.49C145.966 155.368 147.007 149.801 147.579 146.731C148.1 143.609 147.423 141.684 147.423 141.684C147.007 146.835 143.937 157.293 140.659 159.323C137.433 161.352 129.992 161.04 129.992 161.04C129.992 161.04 137.537 161.612 139.202 163.381C140.815 165.098 138.421 170.718 140.867 176.077C140.867 176.077 139.046 165.15 143.26 163.745Z" fill="#353535"/>
</svg>
