<svg width="257" height="205" viewBox="0 0 257 205" fill="none" xmlns="http://www.w3.org/2000/svg">
<path d="M90.4311 25.0489C83.877 24.5598 65.6822 24.5598 48.8569 27.3966C27.8252 31.016 8.06521 38.5483 9.92382 50.8738C12.8585 69.8512 12.6628 88.8286 21.4668 106.241C32.325 128.153 46.607 131.479 64.5083 143.413C67.5408 145.37 70.3776 147.717 72.3341 150.652C76.7361 157.108 79.9642 183.031 73.8992 190.172C73.2145 190.955 72.6276 191.444 72.2363 191.835C71.3559 192.422 71.3559 192.422 72.2363 191.737C72.6276 191.444 73.1167 190.857 73.7036 190.074C78.8882 182.933 74.2905 157.793 70.0842 152.217C58.639 137.153 33.6945 138.913 16.967 108.686C7.67394 91.8611 4.54362 68.5796 0.924211 49.5043C-2.59737 31.4073 28.8034 24.7554 53.9436 23.2881C76.9317 22.0164 93.9527 25.0489 90.4311 25.0489Z" fill="url(#paint0_linear_22_20233)"/>
<path d="M20.5859 45.2016C54.8235 44.6147 71.1598 40.1149 98.8433 27.8872C108.039 23.8765 115.766 22.1157 117.527 30.9196C119.288 41.7778 121.244 57.1359 121.734 68.581C122.418 85.9933 119.582 103.112 109.506 117.785C102.854 127.763 84.8548 141.947 82.2136 151.045C79.6703 160.044 83.9744 183.717 92.974 188.51C95.1261 189.586 91.1154 187.728 90.9198 187.63C82.018 182.445 77.7138 158.284 79.6703 150.36C82.3114 139.991 99.3324 126.394 106.18 115.633C115.18 101.253 116.745 85.6998 115.375 69.0701C109.799 5.48598 101.191 54.6903 20.5859 45.2016Z" fill="url(#paint1_linear_22_20233)"/>
<path d="M73.9935 178.531C77.4172 192.226 45.723 203.769 60.2984 200.443C68.5155 198.584 76.6346 193.595 84.0691 192.715C91.1123 191.834 96.0033 194.28 106.568 193.4C114.883 192.617 111.264 191.737 106.079 190.269C99.0358 188.313 87.982 184.596 87.0037 176.574C88.8624 184.693 103.242 187.922 110.481 189.78C117.818 191.737 119.676 195.258 107.155 197.41C92.5796 200.247 75.5586 202.986 60.9832 204.649C48.2664 206.019 51.201 201.91 58.1463 197.312C65.3851 192.617 74.9717 185.28 73.9935 178.531Z" fill="url(#paint2_linear_22_20233)"/>
<path d="M67.8339 72.2011C63.921 74.8423 59.6168 76.2118 55.2148 76.6031C71.5511 81.6898 90.822 83.5484 108.332 68.1904C108.528 68.0926 109.017 67.6035 109.017 67.6035C105.495 45.0067 90.9198 56.6475 67.8339 72.2011Z" fill="url(#paint3_linear_22_20233)"/>
<path d="M55.7038 79.637C33.4983 72.6916 16.9664 59.5835 18.9229 75.5285C20.1945 86.191 21.9553 95.7776 27.042 105.755C27.1725 106.081 27.3029 106.375 27.4333 106.636C30.1723 112.407 34.183 117.983 40.6393 123.461C49.3454 130.896 58.2472 135.884 67.7359 140.971C72.9204 143.808 77.029 145.178 80.4527 139.308C90.0392 123.168 109.897 116.516 110.093 83.2564C110.093 79.4413 109.995 75.235 109.506 70.6374C91.8978 86.4845 72.1378 84.7237 55.7038 79.637Z" fill="url(#paint4_linear_22_20233)"/>
<path d="M94.3435 4.41043C94.1479 1.76924 96.4956 0.49756 97.9629 0.301917C99.3324 0.106273 104.615 -1.45888 100.408 5.09518C96.2021 11.7471 101.582 16.0512 98.9412 14.4861C96.3978 13.0187 94.4413 7.05161 94.3435 4.41043Z" fill="url(#paint5_linear_22_20233)"/>
<path d="M114.006 2.16001C117.332 -0.481175 122.321 -0.481166 122.712 3.04042C123.005 6.562 131.125 10.0836 118.701 10.7683C106.278 11.4531 105.691 22.3113 105.202 17.518C104.811 12.7248 110.778 4.8012 114.006 2.16001Z" fill="url(#paint6_linear_22_20233)"/>
<path d="M225.129 75.6252C221.02 72.2992 209.086 64.0822 196.76 58.3107C181.207 51.1697 164.773 47.1591 160.469 56.0608C153.817 69.8537 145.013 82.2771 142.958 97.7329C140.122 117.102 148.045 125.71 154.404 141.753C155.48 144.394 156.262 147.133 156.262 149.97C156.164 156.23 146.578 174.719 139.339 176.675C138.556 176.968 137.97 176.969 137.578 176.969C136.698 177.066 136.698 177.066 137.578 176.969C137.97 176.969 138.556 176.773 139.339 176.479C145.893 174.229 154.306 155.546 154.11 149.97C153.425 134.905 136.209 124.732 138.948 97.2438C140.415 81.9836 148.926 65.2561 155.088 51.1697C161.055 37.5725 184.728 47.4525 201.945 57.9194C217.596 67.506 227.379 77.1903 225.129 75.6252Z" fill="url(#paint7_linear_22_20233)"/>
<path d="M170.055 57.2344C192.847 72.2989 205.662 76.7987 229.335 81.2985C237.258 82.7658 243.128 85.1136 240.291 91.7655C236.574 99.689 230.9 110.645 225.911 118.373C218.477 130.209 208.89 140.187 195.586 145.274C186.684 148.796 168.392 149.969 162.62 154.763C156.849 159.458 148.925 177.066 152.74 184.207C153.621 185.968 151.86 182.935 151.762 182.74C148.241 175.305 156.36 157.404 161.251 153.1C167.707 147.524 185.022 146.35 194.412 142.241C206.836 136.959 214.955 127.47 221.509 115.83C246.747 71.5164 218.77 99.9825 170.055 57.2344Z" fill="url(#paint8_linear_22_20233)"/>
<path d="M144.722 169.145C140.809 179.611 114.691 172.862 125.745 177.264C132.005 179.709 139.636 180.198 144.918 183.035C149.907 185.676 152.059 189.491 159.396 193.6C165.167 196.926 163.211 194.676 160.472 191.35C156.754 186.85 151.179 179.416 154.211 173.742C151.668 179.905 159.689 188.513 163.602 193.111C167.515 197.611 167.221 200.839 157.928 196.535C147.07 191.839 134.744 185.872 124.375 180.394C115.376 175.503 119.191 174.133 125.843 174.231C132.69 174.427 142.277 173.938 144.722 169.145Z" fill="url(#paint9_linear_22_20233)"/>
<path d="M188.838 96.3601C185.12 96.3601 181.697 95.2841 178.566 93.6211C186.979 104.284 198.913 114.261 217.304 112.109C217.499 112.109 218.086 112.012 218.086 112.012C225.912 95.5775 211.043 96.5558 188.838 96.3601Z" fill="url(#paint10_linear_22_20233)"/>
<path d="M177.493 95.7744C166.047 81.1012 161.156 65.0584 155.189 76.4057C151.276 83.938 148.048 91.079 146.874 99.9807C146.809 100.242 146.744 100.502 146.679 100.763C145.798 105.752 145.994 111.23 147.755 117.686C150.2 126.588 153.722 133.925 157.635 141.555C159.787 145.761 161.841 148.5 166.732 146.25C180.329 139.99 196.47 144.587 211.632 122.773C213.393 120.328 215.252 117.491 217.013 114.263C198.231 116.708 186.003 106.633 177.493 95.7744Z" fill="url(#paint11_linear_22_20233)"/>
<path d="M237.067 63.7879C238.143 61.9293 240.295 62.2227 241.273 62.7119C242.251 63.201 246.458 64.5705 240.686 67.016C235.013 69.4615 236.578 74.7439 235.502 72.5918C234.524 70.3419 235.893 65.5487 237.067 63.7879Z" fill="url(#paint12_linear_22_20233)"/>
<path d="M251.053 71.2228C254.379 71.0272 257.705 73.2771 256.335 75.7226C254.966 78.1682 258.683 84.2331 250.173 79.0486C241.76 73.864 236.38 80.7115 238.238 77.3856C240.097 74.0596 247.727 71.5163 251.053 71.2228Z" fill="url(#paint13_linear_22_20233)"/>
<defs>
<linearGradient id="paint0_linear_22_20233" x1="286.112" y1="-20.3697" x2="218.583" y2="187.531" gradientUnits="userSpaceOnUse">
<stop offset="0.005" stop-color="#BBBDBF"/>
<stop offset="1" stop-color="#404041"/>
</linearGradient>
<linearGradient id="paint1_linear_22_20233" x1="280.873" y1="-14.1468" x2="214.511" y2="190.161" gradientUnits="userSpaceOnUse">
<stop offset="0.005" stop-color="#BBBDBF"/>
<stop offset="1" stop-color="#404041"/>
</linearGradient>
<linearGradient id="paint2_linear_22_20233" x1="196.217" y1="-128.922" x2="117.218" y2="114.29" gradientUnits="userSpaceOnUse">
<stop offset="0.005" stop-color="#BBBDBF"/>
<stop offset="1" stop-color="#404041"/>
</linearGradient>
<linearGradient id="paint3_linear_22_20233" x1="61.1468" y1="32.6821" x2="111.161" y2="85.4572" gradientUnits="userSpaceOnUse">
<stop stop-color="#EC1C24"/>
<stop offset="1" stop-color="#7A0608"/>
</linearGradient>
<linearGradient id="paint4_linear_22_20233" x1="97.3925" y1="47.5104" x2="123.619" y2="145.093" gradientUnits="userSpaceOnUse">
<stop stop-color="#EC1C24"/>
<stop offset="1" stop-color="#AD1B1F"/>
</linearGradient>
<linearGradient id="paint5_linear_22_20233" x1="93.7214" y1="0.903519" x2="101.768" y2="-0.337573" gradientUnits="userSpaceOnUse">
<stop stop-color="#EC1C24"/>
<stop offset="1" stop-color="#AD1B1F"/>
</linearGradient>
<linearGradient id="paint6_linear_22_20233" x1="102.904" y1="2.68141" x2="124.187" y2="-0.601179" gradientUnits="userSpaceOnUse">
<stop stop-color="#EC1C24"/>
<stop offset="1" stop-color="#AD1B1F"/>
</linearGradient>
<linearGradient id="paint7_linear_22_20233" x1="374.38" y1="134.475" x2="235.713" y2="240.56" gradientUnits="userSpaceOnUse">
<stop offset="0.005" stop-color="#BBBDBF"/>
<stop offset="1" stop-color="#404041"/>
</linearGradient>
<linearGradient id="paint8_linear_22_20233" x1="368.12" y1="136.195" x2="231.85" y2="240.447" gradientUnits="userSpaceOnUse">
<stop offset="0.005" stop-color="#BBBDBF"/>
<stop offset="1" stop-color="#404041"/>
</linearGradient>
<linearGradient id="paint9_linear_22_20233" x1="364.5" y1="22.3405" x2="202.28" y2="146.445" gradientUnits="userSpaceOnUse">
<stop offset="0.005" stop-color="#BBBDBF"/>
<stop offset="1" stop-color="#404041"/>
</linearGradient>
<linearGradient id="paint10_linear_22_20233" x1="202.408" y1="67.356" x2="211.365" y2="124.73" gradientUnits="userSpaceOnUse">
<stop stop-color="#EC1C24"/>
<stop offset="1" stop-color="#7A0608"/>
</linearGradient>
<linearGradient id="paint11_linear_22_20233" x1="219.519" y1="93.5392" x2="192.519" y2="169.595" gradientUnits="userSpaceOnUse">
<stop stop-color="#EC1C24"/>
<stop offset="1" stop-color="#AD1B1F"/>
</linearGradient>
<linearGradient id="paint12_linear_22_20233" x1="238.236" y1="61.2289" x2="244.091" y2="64.0617" gradientUnits="userSpaceOnUse">
<stop stop-color="#EC1C24"/>
<stop offset="1" stop-color="#AD1B1F"/>
</linearGradient>
<linearGradient id="paint13_linear_22_20233" x1="243.464" y1="66.5616" x2="258.947" y2="74.0541" gradientUnits="userSpaceOnUse">
<stop stop-color="#EC1C24"/>
<stop offset="1" stop-color="#AD1B1F"/>
</linearGradient>
</defs>
</svg>
