<svg width="212" height="256" viewBox="0 0 212 256" fill="none" xmlns="http://www.w3.org/2000/svg">
<path fill-rule="evenodd" clip-rule="evenodd" d="M140.426 95.9591V39.0703H194.363V95.9591H140.426ZM143.753 56.781H188.298V51.8435H143.753V56.781ZM143.753 72.2376H188.298V67.3H143.753V72.2376ZM143.753 83.991V88.3382H188.298V83.991H143.753Z" fill="#1D365C"/>
<path d="M140.426 161.704C148.744 164.28 156.741 167.125 162.913 169.432C177.081 174.745 187.708 187.143 190.821 201.902H192.001C192.824 201.902 193.611 202.027 194.363 202.278V157.84H140.426V161.704Z" fill="#1D365C"/>
<path fill-rule="evenodd" clip-rule="evenodd" d="M140.426 100.305H194.363V154.134H140.426V100.305ZM143.7 112.648H188.298V107.711H143.7V112.648ZM143.7 128.105H188.298V123.168H143.7V128.105ZM143.7 139.859V144.152H188.298V139.859H143.7Z" fill="#1D365C"/>
<path d="M140.426 100.308H194.363V95.9609H140.426V100.308Z" fill="#1D365C"/>
<path d="M140.426 157.84H194.363V154.137H140.426V157.84Z" fill="#1D365C"/>
<path d="M188.298 107.711H143.699V112.702H188.298V107.711Z" fill="white"/>
<path d="M188.298 123.168H143.699V128.159H188.298V123.168Z" fill="white"/>
<path d="M188.298 144.208V139.914H143.699V144.208H188.298Z" fill="white"/>
<path d="M188.298 51.8438H143.699V56.7813H188.298V51.8438Z" fill="white"/>
<path d="M188.298 67.3008H143.699V72.2383H188.298V67.3008Z" fill="white"/>
<path d="M188.298 88.3394V83.9922H143.699V88.3394H188.298Z" fill="white"/>
<path fill-rule="evenodd" clip-rule="evenodd" d="M74.5217 62.0947H73.6094V26.0293L140.427 0V39.0708H138.978V161.221C135.382 160.147 131.679 159.074 128.083 158.162C126.205 153.653 121.804 150.594 116.705 150.594H94.2181C89.1196 150.594 84.7188 153.653 82.8404 158.162C80.1033 158.859 77.3125 159.611 74.5217 160.469V62.0947ZM121.75 55.7081H129.639V36.119C129.639 34.0796 127.868 32.4695 125.722 32.4695C123.521 32.4695 121.75 34.0796 121.75 36.119V55.7081ZM121.75 94.0812H129.639V74.4385C129.639 72.4527 127.868 70.789 125.722 70.789C123.521 70.789 121.75 72.4527 121.75 74.4385V94.0812ZM121.75 132.454H129.639V112.865C129.639 110.826 127.868 109.216 125.722 109.216C123.521 109.216 121.75 110.826 121.75 112.865V132.454ZM102.966 55.7081H110.855V36.119C110.855 34.0796 109.084 32.4695 106.938 32.4695C104.737 32.4695 102.966 34.0796 102.966 36.119V55.7081ZM102.966 94.0812H110.855V74.4385C110.855 72.4527 109.084 70.789 106.938 70.789C104.737 70.789 102.966 72.4527 102.966 74.4385V94.0812ZM102.966 132.454H110.855V112.865C110.855 110.826 109.084 109.216 106.938 109.216C104.737 109.216 102.966 110.826 102.966 112.865V132.454ZM84.2358 55.7081H92.1251V36.0654C92.1251 34.0796 90.354 32.4159 88.1536 32.4159C86.0068 32.4159 84.2358 34.0796 84.2358 36.0654V55.7081ZM84.2358 94.0812H92.1251V74.4921C92.1251 72.4527 90.354 70.8426 88.1536 70.8426C86.0068 70.8426 84.2358 72.4527 84.2358 74.4921V94.0812ZM84.2358 132.454H92.1251V112.865C92.1251 110.826 90.354 109.216 88.1536 109.216C86.0068 109.216 84.2358 110.826 84.2358 112.865V132.454Z" fill="#1D365C"/>
<path d="M138.98 95.9591H140.429V39.0703H138.98V95.9591Z" fill="#1D365C"/>
<path d="M140.429 100.305H138.98V154.134H140.429V100.305Z" fill="#1D365C"/>
<path d="M140.429 157.84H138.98V161.221C139.481 161.4 139.964 161.561 140.429 161.704V157.84Z" fill="#1D365C"/>
<path d="M140.429 95.9609H138.98V100.308H140.429V95.9609Z" fill="#1D365C"/>
<path d="M140.429 154.137H138.98V157.84H140.429V154.137Z" fill="#1D365C"/>
<path d="M92.1276 36.1182C92.1276 34.0788 90.3565 32.4688 88.1561 32.4688C86.0094 32.4688 84.2383 34.0788 84.2383 36.1182V55.7073H92.1276V36.1182Z" fill="white"/>
<path d="M110.854 36.1182C110.854 34.0788 109.083 32.4688 106.936 32.4688C104.736 32.4688 102.965 34.0788 102.965 36.1182V55.7073H110.854V36.1182Z" fill="white"/>
<path d="M129.639 36.1182C129.639 34.0788 127.868 32.4688 125.721 32.4688C123.521 32.4688 121.75 34.0788 121.75 36.1182V55.7073H129.639V36.1182Z" fill="white"/>
<path d="M92.1276 74.4932C92.1276 72.4538 90.3565 70.8438 88.1561 70.8438C86.0094 70.8438 84.2383 72.4538 84.2383 74.4932V94.0823H92.1276V74.4932Z" fill="white"/>
<path d="M110.854 74.4932C110.854 72.4538 109.083 70.8438 106.936 70.8438C104.736 70.8438 102.965 72.4538 102.965 74.4932V94.0823H110.854V74.4932Z" fill="white"/>
<path d="M129.639 74.4932C129.639 72.4538 127.868 70.8438 125.721 70.8438C123.521 70.8438 121.75 72.4538 121.75 74.4932V94.0823H129.639V74.4932Z" fill="white"/>
<path d="M92.1276 112.864C92.1276 110.825 90.3565 109.215 88.1561 109.215C86.0094 109.215 84.2383 110.825 84.2383 112.864V132.453H92.1276V112.864Z" fill="white"/>
<path d="M110.854 112.864C110.854 110.825 109.083 109.215 106.936 109.215C104.736 109.215 102.965 110.825 102.965 112.864V132.453H110.854V112.864Z" fill="white"/>
<path d="M129.639 112.864C129.639 110.825 127.868 109.215 125.721 109.215C123.521 109.215 121.75 110.825 121.75 112.864V132.453H129.639V112.864Z" fill="white"/>
<path fill-rule="evenodd" clip-rule="evenodd" d="M18.9219 201.901C18.4925 201.901 18.0811 201.936 17.6875 202.008V62.0938H73.6103V160.737C64.2182 163.528 54.9336 166.855 48.0103 169.431C33.7881 174.744 23.2154 187.142 20.1026 201.901H18.9219ZM60.3004 146.3C60.3004 147.481 61.7495 148.447 63.5742 148.447C65.3989 148.447 66.9017 147.481 66.9017 146.3V74.8132C66.9017 73.6325 65.3989 72.6665 63.5742 72.6665C61.7495 72.6665 60.3004 73.6325 60.3004 74.8132V146.3ZM48.6543 146.3C48.6543 147.481 50.1034 148.393 51.9281 148.393C53.7529 148.393 55.2556 147.481 55.2556 146.3V74.7595C55.2556 73.5788 53.7529 72.6128 51.9281 72.6128C50.1034 72.6128 48.6543 73.5788 48.6543 74.7595V146.3ZM36.9545 146.3C36.9545 147.481 38.4573 148.447 40.282 148.447C42.1067 148.447 43.5558 147.481 43.5558 146.3V74.7595C43.5558 73.5788 42.1067 72.6128 40.282 72.6128C38.4573 72.6128 36.9545 73.5788 36.9545 74.7595V146.3ZM25.3085 146.3C25.3085 147.481 26.8112 148.447 28.6359 148.447C30.4606 148.447 31.9097 147.481 31.9097 146.3V74.8132C31.9097 73.6325 30.4606 72.6665 28.6359 72.6665C26.8112 72.6665 25.3085 73.6325 25.3085 74.8132V146.3Z" fill="#1D365C"/>
<path d="M74.5217 160.468V62.0938H73.6094V160.737C73.9314 160.629 74.2355 160.54 74.5217 160.468Z" fill="#1D365C"/>
<path d="M28.636 148.448C30.4608 148.448 31.9098 147.482 31.9098 146.301V74.8147C31.9098 73.634 30.4608 72.668 28.636 72.668C26.8113 72.668 25.3086 73.634 25.3086 74.8147V146.301C25.3086 147.482 26.8113 148.448 28.636 148.448Z" fill="#F6F5F1"/>
<path d="M40.2845 148.448C42.1092 148.448 43.612 147.482 43.612 146.301V74.8147C43.612 73.634 42.1092 72.668 40.2845 72.668C38.4598 72.668 36.957 73.634 36.957 74.8147V146.301C36.957 147.482 38.4598 148.448 40.2845 148.448Z" fill="#F6F5F1"/>
<path d="M51.9261 148.448C53.7509 148.448 55.2536 147.482 55.2536 146.301V74.8147C55.2536 73.634 53.7509 72.668 51.9261 72.668C50.1014 72.668 48.6523 73.634 48.6523 74.8147V146.301C48.6523 147.482 50.1014 148.448 51.9261 148.448Z" fill="#F6F5F1"/>
<path d="M63.5746 148.448C65.3993 148.448 66.902 147.482 66.902 146.301V74.8147C66.902 73.634 65.3993 72.668 63.5746 72.668C61.7498 72.668 60.3008 73.634 60.3008 74.8147V146.301C60.3008 147.482 61.7498 148.448 63.5746 148.448Z" fill="#F6F5F1"/>
<path d="M26.916 239.523H10.7617L16.9336 211.078C17.2556 209.093 19.0267 207.59 21.1198 207.59H26.916V239.523Z" fill="#F77D39"/>
<path d="M193.4 244.137L184.813 205.227C182.344 191.703 172.952 180.486 160.071 175.656C143.112 169.323 119.874 161.648 106.027 161.272V161.219C105.866 161.219 105.651 161.219 105.49 161.219C105.276 161.219 105.115 161.219 104.9 161.219V161.272C91.1071 161.648 67.8149 169.323 50.9093 175.656C38.0288 180.486 28.6368 191.703 26.1143 205.227L17.5273 244.137H105.598H193.4Z" fill="#E07019"/>
<path d="M124.378 165.191C124.217 160.951 120.729 157.57 116.435 157.57H105.755H105.165H94.4846C90.2448 157.57 86.7026 160.951 86.5953 165.191L83.5898 244.353H105.165H105.755H127.383L124.378 165.191Z" fill="#F77D39"/>
<path d="M208.908 256H3.1425C1.74711 256 0.566406 254.819 0.566406 253.424V242.1C0.566406 240.65 1.74711 239.523 3.1425 239.523H208.908C210.304 239.523 211.484 240.65 211.484 242.1V253.424C211.484 254.819 210.304 256 208.908 256Z" fill="#F77D39"/>
<path d="M184.004 239.523H200.158L193.986 211.078C193.664 209.093 191.893 207.59 189.854 207.59H184.004V239.523Z" fill="#F77D39"/>
</svg>
