<svg width="204" height="256" viewBox="0 0 204 256" fill="none" xmlns="http://www.w3.org/2000/svg">
<path d="M134.644 126.23C133.759 126.07 132.875 125.869 131.99 125.788C129.738 125.547 127.486 125.426 125.234 125.104C123.666 124.863 122.459 125.306 121.534 126.432C121.213 124.863 120.891 123.295 120.569 121.767C120.435 121.767 120.301 121.78 120.167 121.807C118.719 126.19 117.915 131.177 111.521 131.096C111.548 131.23 111.575 131.351 111.601 131.458C112.406 131.74 113.17 132.061 113.974 132.303C115.904 132.906 117.071 134.193 117.352 136.244C117.432 136.766 117.593 137.289 117.634 137.772C117.915 139.943 118.759 141.793 120.368 143.361C124.148 147.142 126.561 151.766 128.612 156.793C126.548 158.08 124.483 159.353 122.419 160.613C122.499 160.828 122.593 161.042 122.7 161.257C124.926 160.479 127.151 159.702 129.376 158.924C130.462 160.975 130.301 161.377 128.21 161.98C126.762 162.383 125.355 162.785 123.947 163.307C123.384 163.509 122.942 163.911 122.459 164.232C122.513 164.447 122.566 164.648 122.62 164.836C124.952 164.648 127.285 164.447 129.617 164.232C130.301 166.605 129.899 167.128 127.607 167.289C125.515 167.449 123.464 167.771 121.373 168.053C121.373 168.214 121.373 168.388 121.373 168.575C123.599 168.897 125.81 169.219 128.009 169.541C127.888 171.873 127.003 172.677 124.872 172.637C122.902 172.597 120.931 172.637 118.92 172.798C120.569 174.326 122.902 173.964 124.751 174.929C122.902 177.664 118.357 179.473 115.382 178.267C112.164 176.94 109.028 175.331 106.012 173.562C104.162 172.476 102.835 170.707 102.754 168.415C102.754 167.852 103.157 167.007 103.639 166.685C105.047 165.841 105.77 164.715 105.972 163.106C106.213 160.774 107.258 159.809 109.631 159.527C110.395 159.447 111.199 159.367 111.963 159.407C113.974 159.527 115.1 158.2 115.985 156.753C116.869 155.345 116.99 153.777 115.864 151.927C115.02 153.334 114.256 154.541 113.371 155.868C111.199 154.018 108.867 154.099 106.414 154.541C102.835 155.225 99.2559 155.144 95.6768 154.34C93.5857 153.857 91.6555 154.219 89.9263 156.029C89.1622 154.621 88.5188 153.415 87.6341 151.806C87.3526 152.651 87.0711 153.133 86.9907 153.696C86.5483 156.35 89.0014 159.97 92.0978 159.447C92.5402 159.367 93.0227 159.447 93.5053 159.487C95.6768 159.728 96.8028 160.694 97.0441 162.865C97.2452 164.675 98.0897 165.881 99.6178 166.846C100.1 167.128 100.462 168.093 100.382 168.696C100.181 170.546 99.0548 171.913 97.6071 172.999C93.9477 175.733 89.6448 177.02 85.2615 178.026C83.2508 178.468 80.6369 177.061 78.7067 174.849C80.6771 174.205 82.5672 173.602 84.4974 172.999C84.4706 172.838 84.4572 172.677 84.4572 172.516C83.8942 172.436 83.3312 172.275 82.7682 172.315C81.5618 172.356 80.3152 172.516 79.0686 172.597C76.6558 172.798 76.0124 172.235 75.4494 169.46C77.5941 169.192 79.7388 168.911 81.8836 168.616C81.8836 168.455 81.8836 168.294 81.8836 168.133C80.2214 167.838 78.5458 167.557 76.8568 167.289C76.5351 167.208 76.2134 167.248 75.9319 167.208C73.7202 166.846 73.68 166.766 73.9212 164.152C76.2268 164.366 78.5324 164.594 80.838 164.836C80.8916 164.648 80.9586 164.46 81.0391 164.273C80.3554 163.83 79.7522 163.307 78.9882 163.026C77.6209 162.503 76.1732 162.061 74.7255 161.699C73.5995 161.377 73.5191 160.694 73.8006 159.688C74.1625 158.442 74.9266 158.924 75.6102 159.206C76.7362 159.688 77.8622 160.251 78.9882 160.694C79.5109 160.895 80.1141 160.975 80.6771 161.096C80.7576 160.935 80.838 160.787 80.9184 160.653C78.9077 159.326 76.8568 157.999 74.9668 156.753C75.8917 154.662 76.8568 152.771 77.5807 150.801C78.6665 147.986 80.275 145.613 82.6476 143.723C84.3768 142.396 85.5832 140.748 85.6636 138.576C85.8647 134.876 87.5939 132.584 91.2131 131.74C91.4544 131.659 91.6555 131.539 91.8968 131.418C91.8968 131.418 91.8968 131.338 91.937 131.096C86.0256 130.855 85.2213 126.029 83.291 121.767C83.0095 123.335 82.6878 124.903 82.3661 126.552C81.0391 124.622 79.1088 124.944 77.0579 125.386C75.4896 125.708 73.8006 125.627 72.1518 125.748C71.1867 125.828 70.2618 126.029 69.2967 126.15C69.2699 126.311 69.2296 126.485 69.176 126.673C69.8597 126.995 70.4629 127.477 71.1867 127.638C73.6397 128.12 75.5298 129.367 77.0981 131.297C78.1035 132.584 79.4305 133.388 81.1597 133.63C81.7227 133.75 82.4465 134.514 82.6074 135.077C83.291 137.611 82.3259 139.702 80.6771 141.592C78.0633 144.528 75.5298 147.544 73.0365 150.52C72.3529 151.404 71.7899 152.41 71.0259 153.576C66.2404 148.831 65.8785 143.16 66.9241 136.726C66.2002 137.249 65.8383 137.41 65.6372 137.691C64.4308 139.3 62.9831 140.788 62.0984 142.557C60.892 145.091 58.9618 145.694 56.75 145.613C57.3934 143.884 58.1575 142.195 58.7205 140.426C60.5703 134.193 62.2593 127.96 64.1493 121.767C65.6774 116.78 68.6532 112.88 73.1974 110.225C73.881 109.863 74.5244 109.421 75.3287 108.939C71.9106 108.496 68.613 108.054 65.3155 107.652C65.3155 107.464 65.3155 107.276 65.3155 107.089C69.2162 107.37 72.7148 106.003 76.2134 104.636C77.9024 103.952 79.6316 103.429 81.3608 102.987C84.2964 102.303 87.3124 102.102 90.248 102.947C95.1943 104.354 97.8886 107.973 99.2961 112.678C100.221 115.815 100.905 119.032 101.95 122.209C102.486 119.85 103.036 117.491 103.599 115.131C103.599 115.078 103.612 115.024 103.639 114.971C105.931 103.268 114.819 100.453 124.309 103.389C126.36 104.032 128.33 105.038 130.381 105.641C132.955 106.405 135.529 106.928 138.263 107.612C135.126 108.054 131.99 108.496 128.813 108.979C130.019 109.783 131.306 110.507 132.472 111.351C136.735 114.488 138.866 118.871 140.234 123.818C142.003 130.171 143.893 136.485 145.823 142.798C146.145 143.764 146.829 144.648 147.351 145.493C145.301 146.016 143.491 145.292 142.244 143.361C141.118 141.592 139.872 139.863 138.705 138.134C138.344 137.611 138.102 137.048 137.821 136.525C137.553 136.686 137.298 136.86 137.057 137.048C137.11 138.04 137.177 139.032 137.258 140.024C137.62 144.608 136.454 148.79 133.598 152.49C132.633 153.696 132.191 153.696 131.507 152.369C129.537 148.549 126.802 145.372 123.826 142.316C121.936 140.345 120.609 138.174 120.971 135.279C121.092 134.394 121.373 133.791 122.298 133.67C124.389 133.429 125.958 132.303 127.245 130.775C128.531 129.206 130.1 128.322 132.03 127.879C132.955 127.678 133.799 127.196 134.684 126.834C134.657 126.646 134.644 126.445 134.644 126.23Z" fill="url(#paint0_linear_22_20092)"/>
<path d="M114.175 200.345C118.518 206.498 115.743 212.088 112.767 217.718C121.212 209.353 128.37 200.225 130.22 187.96C134.081 196.485 134.241 211.283 122.539 220.171C124.228 219.286 126.038 218.562 127.646 217.476C135.448 212.168 139.67 204.769 140.193 195.359C140.676 187.517 139.107 179.957 137.338 172.397C137.298 172.196 137.257 171.995 137.137 171.633C137.378 171.794 137.499 171.834 137.539 171.914C142.405 179.957 147.23 188.08 150.649 196.887C153.222 203.442 154.147 210.198 152.177 217.034C150.287 223.589 145.944 228.334 140.153 231.551C134.764 234.567 129.094 237.101 123.545 239.835C119 242.087 114.617 244.54 111.601 248.883C112.727 241.564 115.502 235.331 122.539 231.913C126.721 229.902 130.944 227.972 135.207 226.122C142.164 223.147 144.737 217.396 145.139 210.359C145.3 207.101 144.938 203.844 144.617 200.667C144.134 203.201 143.893 205.855 143.129 208.308C140.957 215.064 136.212 219.366 129.657 221.779C125.394 223.348 121.051 224.715 116.909 226.444C114.295 227.57 111.802 228.978 109.59 230.707C105.006 234.246 102.995 239.272 102.432 244.942C102.312 246.269 102.191 247.596 101.95 248.923C101.588 246.591 101.347 244.219 100.904 241.926C99.8587 236.296 96.9231 231.712 91.8562 229.098C86.9903 226.565 81.8028 224.675 76.6554 222.744C71.8298 220.895 67.2052 218.844 64.0283 214.541C60.8112 210.238 59.1223 205.493 59.5244 200.064C58.2778 207.584 57.5539 215.064 62.5404 221.618C63.8675 223.388 65.9988 224.715 68.0095 225.76C71.5885 227.61 75.2882 229.219 78.9878 230.707C86.5078 233.763 90.5291 239.514 92.0975 247.275C92.1511 247.516 92.1913 247.771 92.2181 248.039C92.2181 248.28 92.2181 248.521 92.2181 249.004C87.7142 242.57 80.7572 240.117 74.2828 236.94C70.181 234.889 65.9586 233.039 62.1785 230.506C52.1251 223.79 48.7069 214.42 51.4414 202.678C52.8087 196.847 55.3422 191.498 58.1571 186.271C60.6102 181.767 63.1838 177.383 65.7173 172.96C65.8782 172.638 66.1194 172.357 66.5618 172.196C66.039 174.367 65.5162 176.539 65.1141 178.71C63.9479 184.863 62.9023 191.016 63.7066 197.289C65.1543 207.986 70.9049 215.506 80.7572 219.849C81.0789 220.01 81.4006 220.09 82.1245 220.291C69.7387 211.766 69.3767 198.093 73.5992 187.517C74.0817 193.71 76.2533 199.018 79.4704 203.965C82.6473 208.83 86.0252 213.576 90.3683 217.436C89.3629 214.581 88.1565 211.766 87.4729 208.83C86.7893 205.814 87.3523 202.839 89.4836 200.305C89.4836 203.764 91.0117 206.578 92.7811 209.313C96.4003 215.064 100.261 220.694 101.91 227.53C103.478 220.171 107.781 214.3 111.561 208.187C113.049 205.814 114.175 203.281 114.175 200.345Z" fill="url(#paint1_linear_22_20092)"/>
<path fill-rule="evenodd" clip-rule="evenodd" d="M128.774 23.6054C134.485 25.0129 138.305 22.5197 140.155 17.2115C141.241 19.3428 142.206 21.7556 143.573 23.8467C145.101 26.1791 147.675 27.0236 150.852 27.5464C146.589 29.9994 145.423 33.5382 146.147 37.9215C144.578 37.4792 143.171 37.077 141.683 36.6749C141.603 37.1977 141.482 37.4792 141.522 37.7606C142.688 43.5916 145.222 48.5781 150.329 51.9159C153.667 54.0874 157.326 54.1276 160.342 51.8757C158.533 51.0714 156.924 50.3073 155.315 49.5835C158.492 45.4415 158.693 44.3155 156.924 40.6962C158.854 40.8571 161.026 41.5407 162.956 41.0984C164.927 40.656 166.616 39.0877 168.184 38.1628C168.546 39.892 168.787 42.2646 169.551 44.3959C170.396 46.6077 172.286 48.0956 174.779 49.1411C171.079 50.3073 168.747 52.3984 168.305 56.2589C167.138 55.6155 166.093 55.0525 164.766 54.3287C161.106 65.2668 155.878 75.1996 149.243 84.3683C149.082 84.2879 148.922 84.2074 148.761 84.127C149.042 83.4032 149.283 82.6391 149.645 81.9555C150.932 79.1807 152.34 76.4864 153.586 73.7117C154.551 71.4597 154.471 71.4195 152.38 70.2533C143.814 65.4277 134.525 62.854 124.994 61.0444C114.82 59.1141 104.485 58.5913 94.1505 59.1945C79.5931 60.0792 65.5183 62.9344 52.3685 69.6501C49.1916 71.2989 49.1112 71.4195 50.5991 74.6768C51.7653 77.3711 53.1325 79.985 54.4194 82.6391C54.6606 83.2021 54.8617 83.8053 54.9019 84.489C47.7841 75.4811 42.7172 65.3472 39.1382 54.208C38.0524 54.8112 37.1275 55.2536 36.0417 55.8568C35.6396 51.9159 33.468 49.6237 29.8086 48.5379C35.4385 43.9938 35.8004 43.3101 35.9613 36.6749C37.5698 37.6802 39.098 39.1279 40.9076 39.6105C42.677 40.0528 44.6877 39.4898 46.6179 39.4094C44.4464 42.8678 45.2506 46.0849 48.6286 48.7792C46.819 49.5835 45.13 50.3475 43.1193 51.2322C45.0496 52.8408 46.8592 53.2831 48.8297 53.1223C52.2478 52.881 54.8215 51.0714 57.0332 48.6586C59.8482 45.5621 61.5372 41.9027 62.4219 37.8411C62.5023 37.4792 62.4219 37.0368 62.4219 36.4738C61.3763 36.7955 60.4514 37.077 59.2852 37.4389C60.1297 32.8144 58.682 29.356 54.2585 27.0236C57.1137 26.3802 59.6069 25.6965 61.4165 23.6054C63.186 21.5143 64.0304 19.1015 64.2717 16.367C65.639 18.5787 66.8856 20.7503 69.218 21.9969C71.5102 23.2033 73.9632 23.0424 76.8586 22.5197C73.5611 26.4606 73.8426 30.2005 76.5369 33.7393C73.6415 34.1414 70.907 34.5436 67.8909 34.9457C68.9365 38.8062 70.8266 41.4201 73.6817 43.3906C79.4323 47.3315 86.9924 46.8087 92.3811 42.0233C96.322 38.4845 98.4131 33.9806 99.338 28.8734C99.5793 27.5062 99.0163 26.903 97.7295 26.9432C95.3971 27.0638 93.0647 27.2247 90.6117 27.3855C93.0245 21.836 92.3409 16.8093 86.912 12.4662C96.0405 13.0695 100.102 7.9221 102.435 0C104.445 8.04274 108.748 12.8684 117.756 12.3054C115.343 14.5171 113.493 16.568 112.97 19.4232C112.528 22.198 113.172 24.8521 114.418 27.5464C112.769 27.2649 111.362 26.9432 109.954 26.7823C105.209 26.2193 104.445 27.1442 105.772 31.6884C107.381 37.2379 110.397 41.782 115.705 44.4763C123.627 48.4977 133.158 44.6372 136.214 35.8304C133.721 35.388 131.308 34.9457 129.096 34.5436C129.619 32.8948 130.624 31.0048 130.584 29.1549C130.544 27.3051 129.418 25.4553 128.774 23.6054ZM41.2695 54.6906C42.6368 58.2696 44.1247 61.4063 46.4168 64.0604C46.6179 64.3419 47.4624 64.3017 47.8645 64.1006C49.7948 63.2561 51.6446 62.2106 53.5749 61.3661C65.076 56.4198 77.1401 53.7657 89.5661 52.5995C100.665 51.5539 111.724 51.9963 122.742 53.6853C134.404 55.4547 145.704 58.5511 156.12 64.3017C156.482 64.4625 157.246 64.4223 157.447 64.2212C159.498 61.4465 161.267 58.5511 162.474 55.0525C156.924 57.3849 151.576 58.5109 146.227 55.4145C140.959 52.3582 138.908 47.2913 137.943 41.4201C137.581 41.9429 137.38 42.2646 137.139 42.6265C132.394 49.3422 125.919 52.0365 117.917 50.428C110.92 49.0607 106.577 44.2351 103.681 38.0019C103.158 36.876 102.716 35.6695 102.153 34.2621C101.872 34.9457 101.711 35.4283 101.51 35.8706C100.384 38.0421 99.4989 40.4148 98.1316 42.4254C90.8127 53.2429 75.6924 53.8059 67.7703 43.5916C67.2073 42.8276 66.6845 42.0233 66.0813 41.1788C65.0358 47.0098 63.0653 52.1974 57.7169 55.2134C52.288 58.2696 46.8994 57.1436 41.2695 54.6906ZM99.4587 13.552C96.6437 14.9997 95.5177 18.1364 96.5231 20.9513C97.7697 24.3293 101.309 26.1791 104.928 25.3346C108.225 24.5303 110.517 21.273 110.035 18.0559C109.593 15.0801 107.381 13.0292 104.606 13.1097C104.807 13.5118 105.008 13.8335 105.129 14.2356C105.652 15.7638 104.847 17.5332 103.319 18.4179C101.63 19.3428 99.7804 19.1015 98.6946 17.7744C97.6893 16.5278 97.8501 15.5627 99.4587 13.552ZM137.179 26.5008C135.088 27.667 134.364 29.4766 135.128 31.6482C135.973 34.0208 138.386 35.4283 140.919 34.9859C142.97 34.624 144.619 32.6535 144.659 30.482C144.699 28.1094 143.493 26.6617 141.04 26.1791C141.643 27.9083 141.321 29.1147 140.074 29.8788C138.949 30.5222 137.823 30.6026 136.817 29.5973C135.772 28.5115 136.254 27.4659 137.179 26.5008ZM63.7489 25.978C61.9393 27.5062 61.698 29.5168 62.9044 31.4471C64.1913 33.498 66.9258 34.3827 69.0974 33.4578C71.2689 32.5329 72.3949 30.1603 71.8319 27.8681C71.3091 25.8574 69.6603 24.7314 67.529 24.9325C68.6148 26.2193 68.655 27.4659 67.4084 28.6321C66.5639 29.3962 65.5586 29.7581 64.4326 29.1549C63.1055 28.4311 63.1457 27.3453 63.7489 25.978ZM162.876 45.1198C161.307 45.8838 160.543 47.4924 161.066 49.3824C161.629 51.3529 163.6 52.7603 165.61 52.6397C167.5 52.4789 169.069 51.0714 169.31 49.302C169.551 47.4924 168.666 46.0849 166.776 45.4415C167.138 46.8087 166.857 48.0151 165.409 48.2564C164.605 48.3771 163.439 48.0956 162.956 47.5326C162.554 47.05 162.876 45.924 162.876 45.1198ZM39.7414 43.8731C40.5859 45.723 40.2239 47.5326 38.8165 47.9347C38.2535 48.0956 37.409 48.0151 36.9264 47.6934C36.4438 47.3717 36.2428 46.6077 35.9211 46.0447C35.1168 47.9347 35.4787 49.6639 36.8862 50.7497C38.3741 51.9159 40.425 51.9159 41.9129 50.8301C43.441 49.6639 44.004 47.8141 43.3204 46.0045C42.7172 44.3557 41.551 43.6721 39.7414 43.8731Z" fill="url(#paint2_linear_22_20092)"/>
<path d="M52.4476 154.981C52.0856 163.064 50.1152 170.182 45.6515 176.536C41.6703 182.206 38.0913 188.158 36.6838 195.034C35.6383 200.101 34.9546 205.208 34.3112 210.316C33.5069 216.549 31.456 222.38 28.3194 227.969C28.3194 227.487 28.3194 227.044 28.3194 226.562C28.5204 221.897 27.6759 217.353 26.1478 212.929C23.735 206.093 20.9602 199.337 19.0702 192.34C16.215 181.724 15.652 170.866 18.5072 160.089C19.1104 157.796 20.0755 155.665 20.8396 153.494C14.888 156.55 7.48867 171.429 6.12141 182.729C5.92034 181.12 5.71926 179.472 5.59862 177.863C4.79435 167.367 4.79436 156.952 7.32782 146.617C8.57444 141.711 10.3438 137.006 13.4805 132.904C15.2097 130.612 17.3812 128.883 20.1158 127.877C18.8289 130.371 17.3812 132.703 16.3357 135.196C15.2901 137.77 14.6065 140.464 14.0435 143.239C19.7941 132.824 28.0379 125.063 38.2924 119.232C38.2119 119.071 38.1449 118.923 38.0913 118.789C34.3916 119.513 30.6518 120.116 26.9923 121.001C21.7243 122.207 16.5367 123.735 11.2688 124.982C7.72995 125.786 4.19115 125.585 0.652344 124.379C1.34938 124.164 2.05982 123.95 2.78366 123.735C9.057 121.805 14.325 118.146 19.1104 113.762C20.719 112.288 22.2739 110.773 23.7752 109.218C29.4051 103.267 36.2817 101.538 44.0831 103.508C49.713 104.915 55.3027 106.564 60.6914 108.092C56.7504 109.701 52.4476 109.902 48.0241 108.937C40.5443 107.248 34.0699 109.379 28.3194 114.245C28.2121 114.352 28.1049 114.46 27.9976 114.567C27.9574 114.647 27.9172 114.728 27.8368 114.969C31.818 113.441 35.8795 112.797 40.0215 113.119C42.9973 113.36 45.933 113.964 48.9088 114.285C52.3269 114.687 55.7853 114.969 59.2035 115.331C59.7665 115.371 60.3294 115.411 60.9327 115.693C59.9675 116.055 59.0426 116.376 58.1177 116.698C48.9892 120.116 39.9813 123.816 31.7375 129.124C20.4777 136.322 13.9631 146.858 10.4645 159.526C10.4645 159.646 10.5047 159.727 10.5047 159.807C12.1937 157.113 13.7218 154.338 15.5314 151.724C20.7994 144.124 27.2336 137.69 36.0002 134.312C40.5845 132.542 45.4906 131.658 50.2358 130.411C53.1312 129.647 56.0266 128.923 59.0024 128.32C52.7291 135.036 46.0536 141.309 41.0671 149.03C36.1208 156.751 32.582 165.115 29.1236 173.6C28.9226 163.989 29.5258 154.539 33.5873 145.612C29.8877 149.593 27.4347 154.217 25.625 159.284C22.8101 167.005 22.8101 175.048 23.2122 183.091C23.6144 190.611 25.1827 197.89 27.5955 205.007C27.7162 205.409 27.877 205.771 28.0379 206.174C28.0781 206.254 28.1987 206.294 28.5606 206.576C28.3194 203.64 28.1183 200.986 27.9172 198.292C27.314 190.45 27.877 182.85 31.7777 175.772C34.2308 171.348 37.6891 167.85 41.7507 164.914C45.6514 162.14 50.1152 159.968 52.4476 154.981Z" fill="url(#paint3_linear_22_20092)"/>
<path d="M151.613 155.507C153.584 159.287 156.841 161.659 160.259 163.911C168.06 169.099 173.489 175.975 175.379 185.305C176.425 190.372 176.103 195.479 175.701 200.586C175.5 202.557 175.379 204.527 175.5 206.618C175.701 206.256 175.942 205.894 176.063 205.492C180.285 192.624 181.974 179.434 179.803 166.002C178.556 158.241 175.259 151.284 169.951 145.373C172.082 149.957 173.409 154.823 173.932 159.85C174.454 164.354 174.575 168.898 174.575 173.522C168.181 156.07 158.852 140.628 144.375 128.644C144.509 128.483 144.629 128.336 144.737 128.202C146.707 128.684 148.637 129.247 150.568 129.73C154.147 130.534 157.685 131.338 161.264 132.102C171.117 134.274 178.717 139.864 184.83 147.585C188.006 151.606 190.741 155.989 193.234 159.608C191.545 152.651 188.167 145.614 183.342 139.301C178.114 132.424 171.157 127.759 163.436 124.22C157.685 121.607 151.814 119.234 145.983 116.781C145.139 116.419 144.294 116.097 143.45 115.454C145.3 115.333 147.109 115.333 148.919 115.092C152.819 114.569 156.68 113.926 160.541 113.403C165.889 112.719 171.157 113.041 176.264 115.172C175.138 113.524 171.036 110.789 168.06 109.663C163.717 108.014 159.294 108.175 154.83 109.181C150.688 110.105 146.667 109.462 142.887 107.934C146.385 107.089 149.924 106.285 153.463 105.36C156.318 104.636 159.093 103.631 161.988 103.108C168.704 101.902 174.575 103.792 179.562 108.537C182.779 111.593 185.956 114.73 189.334 117.545C193.154 120.762 197.658 122.853 202.483 124.22C202.725 124.261 202.926 124.341 203.247 124.462C201.478 125.306 197.416 125.829 194.642 125.266C189.736 124.261 184.91 123.014 180.044 121.928C175.299 120.842 170.514 119.837 165.607 119.033C175.621 125.266 184.106 132.866 189.575 143.644C189.776 140.386 187.443 134.314 183.503 127.88C186.197 128.966 188.288 130.534 189.937 132.706C193.757 137.732 195.647 143.603 196.894 149.716C198.824 159.166 198.663 168.697 197.939 178.227C197.778 179.756 197.618 181.324 197.376 182.852C196.009 171.311 191.183 161.499 182.819 153.174C182.779 153.496 182.698 153.657 182.738 153.737C186.599 161.7 187.242 170.144 186.8 178.831C186.318 189.085 183.141 198.576 179.401 207.986C177.39 213.012 175.54 218.119 175.42 223.629C175.379 225.076 175.42 226.524 175.42 228.374C174.857 227.449 174.414 226.846 174.093 226.162C171.237 220.13 169.548 213.776 169.026 207.141C168.262 197.007 165.567 187.517 159.817 178.991C156.881 174.608 153.986 170.185 152.86 164.917C152.176 161.86 151.774 158.764 151.251 155.668C151.358 155.614 151.479 155.56 151.613 155.507Z" fill="url(#paint4_linear_22_20092)"/>
<path d="M54.2578 85.6942C55.2632 85.1714 56.1076 84.6888 56.9924 84.3269C72.9572 77.3699 89.7263 74.7963 107.058 75.5201C120.007 76.0429 132.594 78.3351 144.658 83.2814C145.945 83.8041 147.192 84.4476 148.438 85.0105C149.202 85.3725 149.524 85.8952 149.041 86.7397C148.398 87.8657 147.795 88.9917 147.272 90.1579C146.709 91.3241 145.985 91.4849 144.779 91.0024C138.867 88.5091 132.755 86.4582 126.482 85.091C114.94 82.5977 103.319 81.9543 91.5761 82.9194C80.2761 83.8443 69.4988 86.6593 59.0432 91.0024C57.7564 91.5252 57.0728 91.2839 56.4696 90.0775C55.7859 88.6298 55.0621 87.2625 54.2578 85.6942Z" fill="url(#paint5_linear_22_20092)"/>
<path d="M112.044 192.584C113.049 194.877 113.009 197.169 112.245 199.863C111.32 197.129 109.631 195.641 107.258 194.756C107.258 197.732 107.258 200.547 107.258 203.482C106.173 200.748 105.127 198.094 104.082 195.44C103.921 195.44 103.76 195.426 103.599 195.399C102.996 197.41 102.393 199.421 101.669 201.713C101.025 199.421 100.503 197.45 99.9396 195.52C99.7787 195.493 99.6179 195.466 99.457 195.44C98.3712 198.134 97.3257 200.868 96.1997 203.683C96.1997 200.708 96.1997 197.812 96.1997 194.836C93.7869 195.56 92.2588 197.048 91.4947 199.381C91.3607 199.354 91.24 199.327 91.1328 199.3C91.0524 198.174 90.9317 197.088 90.9317 195.962C90.9719 194.917 91.1328 193.831 91.2936 192.544C86.8299 194.434 84.4573 197.772 83.2107 202.155C82.9694 199.541 83.2509 197.008 84.015 194.474C84.216 193.71 84.015 192.786 83.9748 191.941C83.2107 192.343 82.3662 192.625 81.6826 193.147C81.0392 193.67 80.5164 194.434 79.9534 195.078C79.9132 188.322 84.578 182.008 91.3741 180.359C99.1353 178.51 106.937 178.711 114.537 181.244C120.489 183.255 124.028 188.724 123.706 194.635C122.861 193.871 121.936 192.987 120.931 192.263C120.569 192.021 119.926 192.102 119.443 192.062C119.403 192.584 119.202 193.147 119.282 193.63C119.725 196.163 120.167 198.697 120.609 201.19C120.69 201.472 120.65 201.793 120.65 201.713C119.403 199.783 118.277 197.45 116.709 195.52C115.583 194.193 113.854 193.348 112.406 192.303C112.272 192.41 112.151 192.504 112.044 192.584Z" fill="url(#paint6_linear_22_20092)"/>
<path d="M28.523 96.9566C33.429 96.1926 36.8472 96.5143 39.4209 97.9218C35.6408 97.6001 32.4237 98.8869 29.1664 99.9325C26.4318 100.817 23.6973 101.26 20.7617 100.134C24.0592 99.852 25.2656 97.1979 26.9144 95.0264C28.6034 92.8548 30.8017 91.5278 33.5094 91.0452C33.992 90.9648 34.4746 90.7637 35.0778 90.6029C32.5041 85.3751 32.4639 80.3484 36.2842 75.6836C34.8365 80.1473 35.0778 84.41 37.5308 88.4313C39.9839 92.3723 43.6835 94.6242 47.8657 96.273C44.6889 92.9755 43.4825 88.8737 43.1205 84.4502C43.201 84.611 43.2814 84.7719 43.3618 84.973C43.4422 85.1606 43.5093 85.3483 43.5629 85.5359C48.0668 98.9673 61.5786 100.174 69.6616 95.6698C72.9189 93.8602 76.136 92.0506 80.0367 91.7289C79.2726 91.6082 78.5086 91.4474 77.7847 91.3669C76.9804 91.2865 76.2164 91.3267 75.4523 91.2865C74.6481 91.2865 73.8438 91.2865 72.9993 91.2865C77.3424 89.0345 87.2349 90.3214 93.2268 97.6001C91.5378 96.7958 90.0499 96.0317 88.5218 95.3883C81.9669 92.7744 75.6936 92.8951 69.8626 97.399C66.726 99.8118 63.1872 101.461 59.1658 101.943C54.5412 102.466 50.2786 101.38 46.2572 99.1684C43.6835 97.7609 41.2305 96.1524 38.6166 94.7851C35.2789 92.9755 32.3835 93.2972 29.7696 95.5894C29.3674 95.9111 29.0859 96.3534 28.523 96.9566Z" fill="url(#paint7_linear_22_20092)"/>
<path d="M167.456 75.6406C171.196 80.3456 171.477 85.3321 168.662 90.761C173.247 91.1229 176.263 93.6161 178.515 97.2756C179.6 98.9646 181.169 99.9699 183.3 100.131C181.169 101.217 178.957 100.935 176.785 100.493C175.096 100.171 173.448 99.4471 171.759 99.045C169.426 98.4418 167.094 97.9592 164.882 97.4767C168.019 96.1094 171.517 96.2702 175.096 96.9539C174.091 94.7823 170.552 93.0531 168.059 93.7368C166.37 94.1791 164.802 94.9834 163.274 95.7877C160.177 97.3962 157.282 99.4471 154.065 100.734C148.636 102.986 143.167 102.463 137.979 99.7286C136.411 98.9243 134.883 97.9994 133.475 96.9941C127.886 92.8119 121.974 92.8521 115.781 95.3453C114.334 95.9485 112.966 96.6724 111.277 97.4364C116.143 90.962 126.237 88.7101 131.947 91.5652C129.213 91.5652 126.559 91.5652 123.904 91.5652C123.878 91.6993 123.851 91.8467 123.824 92.0076C128.248 92.0076 131.706 94.3802 135.446 96.23C143.006 99.9297 155.03 98.3211 159.654 87.0613C159.936 86.3375 160.177 85.6136 160.499 84.7691C160.861 87.9058 158.609 93.1336 155.512 96.4311C158.729 95.9485 164.078 92.088 166.129 88.6699C168.622 84.5681 168.984 80.1848 167.456 75.6406Z" fill="url(#paint8_linear_22_20092)"/>
<path d="M43.6385 200.746C42.1506 207.864 42.9951 214.379 45.8905 220.571C48.8261 226.805 53.1692 231.67 59.9653 233.802C50.2336 231.63 44.4428 225.035 40.2204 216.108C40.14 217.877 39.9389 219.365 40.0193 220.813C40.14 222.421 40.4214 223.99 40.7432 225.558C41.0649 227.046 41.5474 228.494 42.03 230.142C36.5609 224.191 37.325 209.875 43.6385 200.746Z" fill="url(#paint9_linear_22_20092)"/>
<path d="M143.812 233.722C155.354 230.786 161.587 216.349 160.783 205.693C160.662 204.326 160.501 202.958 160.34 201.551C164.724 207.06 168.182 221.939 161.989 229.942C162.512 227.609 163.196 225.438 163.437 223.226C163.678 220.934 163.477 218.642 163.477 215.907C159.777 226.202 149.764 233.722 143.812 233.722Z" fill="url(#paint10_linear_22_20092)"/>
<path d="M77.4195 71.0563C77.4195 74.6756 75.0067 77.4503 71.7896 77.5709C68.492 77.6916 65.2749 74.6756 64.9532 71.2172C64.7924 69.2065 65.2347 67.3969 66.6422 65.9492C68.4518 64.0189 71.0255 63.3353 73.0764 64.1396C75.7305 65.2253 77.3793 67.8794 77.4195 71.0563Z" fill="url(#paint11_linear_22_20092)"/>
<path d="M125.879 71.0189C125.879 67.1182 128.895 63.7805 132.313 63.8207C135.57 63.8609 138.426 66.9976 138.426 70.5364C138.426 74.3164 135.249 77.5738 131.629 77.5738C128.332 77.5335 125.879 74.7588 125.879 71.0189Z" fill="url(#paint12_linear_22_20092)"/>
<path d="M108.263 66.4726C108.223 70.0918 105.448 73.1481 102.271 73.0676C98.5314 72.9872 95.636 69.8103 95.6762 65.9096C95.7566 62.3708 98.652 59.5156 102.151 59.5156C105.287 59.5156 108.344 62.974 108.263 66.4726Z" fill="url(#paint13_linear_22_20092)"/>
<path d="M55.3826 183.537C52.447 173.483 52.7285 163.55 56.6292 153.738C56.6292 154.502 56.6292 155.307 56.6292 156.433C57.5541 155.87 58.2377 155.427 59.4844 154.703C59.4039 155.628 59.5246 156.312 59.2431 156.754C56.8302 160.977 55.2217 165.481 54.9804 170.306C54.7391 174.207 55.0609 178.148 55.1815 182.049C55.1815 182.531 55.3021 183.054 55.3826 183.537Z" fill="url(#paint14_linear_22_20092)"/>
<path d="M148.558 182.973C148.692 181.123 148.826 179.274 148.96 177.424C149.523 170.185 148.317 163.268 144.617 156.915C144.335 156.392 144.335 155.708 144.215 155.105C144.349 155.051 144.496 154.998 144.657 154.944C145.421 155.427 146.226 155.95 147.15 156.553C147.15 155.427 147.15 154.542 147.15 153.617C150.609 157.799 151.534 175.373 148.558 182.973Z" fill="url(#paint15_linear_22_20092)"/>
<path d="M89.8477 234.93C94.3114 237.021 96.3221 240.278 96.4427 244.661C96.6036 248.441 95.7591 252.061 94.1505 255.559C95.2363 248.281 94.1505 241.485 89.8477 234.93Z" fill="url(#paint16_linear_22_20092)"/>
<path d="M109.749 256.002C107.779 251.176 106.653 246.31 108.02 241.123C108.824 238.107 110.795 236.217 113.931 234.93C109.669 241.565 108.382 248.522 109.749 256.002Z" fill="url(#paint17_linear_22_20092)"/>
<path d="M97.0859 157.234C100.102 157.234 102.877 157.234 105.812 157.234C105.048 158.32 104.244 159.205 103.721 160.21C103.319 161.055 103.399 162.1 102.997 162.945C102.756 163.467 102.072 164.111 101.55 164.111C101.067 164.151 100.102 163.427 100.102 163.065C100.182 160.653 98.7749 159.044 97.0859 157.234Z" fill="url(#paint18_linear_22_20092)"/>
<path d="M112.85 92.0496C109.11 95.1461 106.014 98.3229 105.169 103.43C103.883 96.2318 106.818 91.8485 112.85 92.0496Z" fill="url(#paint19_linear_22_20092)"/>
<path d="M91.9766 92.0109C97.0837 91.7696 99.6574 95.5497 98.9737 102.668C98.1293 100.898 97.3652 98.7668 96.199 96.917C94.9524 95.0671 93.2634 93.4988 91.9766 92.0109Z" fill="url(#paint20_linear_22_20092)"/>
<path d="M82.6481 129.167C80.3157 130.856 78.6267 130.173 77.3398 127.277C79.1897 127.961 80.758 128.524 82.6481 129.167Z" fill="url(#paint21_linear_22_20092)"/>
<path d="M125.998 127.398C125.073 130.173 123.505 130.776 121.293 129.248C123.022 128.565 124.51 127.961 125.998 127.398Z" fill="url(#paint22_linear_22_20092)"/>
<path d="M145.821 142.798C143.891 136.485 142.001 130.171 140.232 123.818C138.864 118.871 136.733 114.488 132.471 111.351C131.304 110.507 130.017 109.783 128.811 108.979C131.988 108.496 135.125 108.054 138.261 107.612C135.527 106.928 132.953 106.405 130.379 105.641C128.328 105.038 126.358 104.032 124.307 103.389C114.817 100.453 105.929 103.268 103.637 114.971C103.61 115.024 103.597 115.078 103.597 115.131C103.034 117.491 102.484 119.85 101.948 122.209C101.868 121.941 101.787 121.659 101.707 121.365V154.983C103.262 154.983 104.83 154.836 106.412 154.541C108.865 154.099 111.197 154.018 113.369 155.868C114.254 154.541 115.018 153.334 115.862 151.927C116.988 153.777 116.868 155.345 115.983 156.753C115.098 158.2 113.972 159.527 111.962 159.407C111.197 159.367 110.393 159.447 109.629 159.527C107.257 159.809 106.211 160.774 105.97 163.106C105.769 164.715 105.045 165.841 103.637 166.685C103.155 167.007 102.753 167.852 102.753 168.415C102.833 170.707 104.16 172.476 106.01 173.562C109.026 175.331 112.163 176.94 115.38 178.267C118.356 179.473 122.9 177.664 124.749 174.929C122.9 173.964 120.567 174.326 118.918 172.798C120.929 172.637 122.9 172.597 124.87 172.637C127.001 172.677 127.886 171.873 128.007 169.541C125.808 169.219 123.597 168.897 121.372 168.575C121.372 168.388 121.372 168.214 121.372 168.053C123.463 167.771 125.514 167.449 127.605 167.289C129.897 167.128 130.299 166.605 129.615 164.232C127.283 164.447 124.951 164.648 122.618 164.836C122.565 164.648 122.511 164.447 122.457 164.232C122.94 163.911 123.382 163.509 123.945 163.307C125.353 162.785 126.76 162.383 128.208 161.98C130.299 161.377 130.46 160.975 129.374 158.924C127.149 159.702 124.924 160.479 122.699 161.257C122.591 161.042 122.498 160.828 122.417 160.613C124.481 159.353 126.546 158.08 128.61 156.793C126.559 151.766 124.146 147.142 120.366 143.361C118.758 141.793 117.913 139.943 117.632 137.772C117.591 137.289 117.431 136.766 117.35 136.244C117.069 134.193 115.902 132.906 113.972 132.303C113.168 132.061 112.404 131.74 111.6 131.458C111.573 131.351 111.546 131.23 111.519 131.096C117.913 131.177 118.717 126.19 120.165 121.807C120.299 121.78 120.433 121.767 120.567 121.767C120.889 123.295 121.211 124.863 121.532 126.432C122.457 125.306 123.664 124.863 125.232 125.104C127.484 125.426 129.736 125.547 131.988 125.788C132.873 125.869 133.757 126.07 134.642 126.23C134.642 126.445 134.655 126.646 134.682 126.834C133.798 127.196 132.953 127.678 132.028 127.879C130.098 128.322 128.53 129.206 127.243 130.775C125.956 132.303 124.388 133.429 122.296 133.67C121.372 133.791 121.09 134.394 120.969 135.279C120.607 138.174 121.935 140.345 123.825 142.316C126.8 145.372 129.535 148.549 131.505 152.369C132.189 153.696 132.631 153.696 133.596 152.49C136.452 148.79 137.618 144.608 137.256 140.024C137.175 139.032 137.108 138.04 137.055 137.048C137.296 136.86 137.551 136.686 137.819 136.525C138.1 137.048 138.342 137.611 138.704 138.134C139.87 139.863 141.116 141.592 142.242 143.361C143.489 145.292 145.299 146.016 147.35 145.493C146.827 144.648 146.143 143.764 145.821 142.798Z" fill="url(#paint23_linear_22_20092)"/>
<path d="M150.647 196.887C147.229 188.08 142.403 179.957 137.537 171.914C137.497 171.834 137.377 171.794 137.135 171.633C137.256 171.995 137.296 172.196 137.336 172.397C139.106 179.957 140.674 187.517 140.192 195.359C139.669 204.769 135.446 212.168 127.645 217.476C126.036 218.562 124.227 219.286 122.538 220.171C134.24 211.283 134.079 196.485 130.219 187.96C128.369 200.225 121.211 209.353 112.766 217.718C115.742 212.088 118.516 206.498 114.173 200.345C114.173 203.281 113.047 205.814 111.559 208.187C107.779 214.3 103.476 220.171 101.908 227.53C101.854 227.262 101.787 226.994 101.707 226.726V247.235C101.787 247.798 101.868 248.361 101.948 248.923C102.19 247.596 102.31 246.269 102.431 244.942C102.994 239.272 105.005 234.246 109.589 230.707C111.801 228.978 114.294 227.57 116.908 226.444C121.05 224.715 125.393 223.348 129.656 221.779C136.21 219.366 140.956 215.064 143.127 208.308C143.891 205.855 144.132 203.201 144.615 200.667C144.937 203.844 145.299 207.101 145.138 210.359C144.736 217.396 142.162 223.147 135.205 226.122C130.942 227.972 126.72 229.902 122.538 231.913C115.5 235.331 112.726 241.564 111.6 248.883C114.616 244.54 118.999 242.087 123.543 239.835C129.093 237.101 134.763 234.567 140.151 231.551C145.942 228.334 150.285 223.589 152.175 217.034C154.146 210.198 153.221 203.442 150.647 196.887Z" fill="url(#paint24_linear_22_20092)"/>
<path fill-rule="evenodd" clip-rule="evenodd" d="M174.775 49.1411C171.076 50.3073 168.743 52.3984 168.301 56.2589C167.135 55.6155 166.089 55.0525 164.762 54.3287C161.103 65.2668 155.875 75.1996 149.24 84.3683C149.079 84.2879 148.918 84.2074 148.757 84.127C149.039 83.4032 149.28 82.6391 149.642 81.9555C150.929 79.1807 152.336 76.4864 153.583 73.7117C154.548 71.4597 154.467 71.4195 152.376 70.2533C143.811 65.4277 134.521 62.854 124.991 61.0444C117.27 59.5967 109.508 58.9533 101.707 58.9533V52.0365C108.744 52.0767 115.742 52.6397 122.739 53.6853C134.401 55.4547 145.701 58.5511 156.116 64.3017C156.478 64.4625 157.242 64.4223 157.443 64.2212C159.494 61.4465 161.263 58.5511 162.47 55.0525C156.92 57.3849 151.572 58.5109 146.224 55.4145C140.956 52.3582 138.905 47.2913 137.94 41.4201C137.578 41.9429 137.377 42.2646 137.135 42.6265C132.39 49.3422 125.916 52.0365 117.913 50.428C110.916 49.0607 106.573 44.2351 103.677 38.0019C103.155 36.876 102.712 35.6695 102.149 34.2621C101.948 34.7044 101.828 35.0663 101.707 35.388V25.3748C102.712 25.6161 103.798 25.5759 104.924 25.3346C108.222 24.5303 110.514 21.273 110.031 18.0559C109.589 15.0801 107.377 13.0292 104.602 13.1097C104.803 13.5118 105.005 13.8335 105.125 14.2356C105.648 15.7638 104.844 17.5332 103.316 18.4179C102.793 18.6994 102.23 18.8602 101.707 18.9406V2.21175C101.975 1.51472 102.216 0.777465 102.431 0C104.442 8.04274 108.744 12.8684 117.752 12.3054C115.339 14.5171 113.49 16.568 112.967 19.4232C112.525 22.198 113.168 24.8521 114.415 27.5464C112.766 27.2649 111.358 26.9432 109.951 26.7823C105.206 26.2193 104.442 27.1442 105.769 31.6884C107.377 37.2379 110.393 41.782 115.701 44.4763C123.623 48.4977 133.154 44.6372 136.21 35.8304C133.717 35.388 131.304 34.9457 129.093 34.5436C129.615 32.8948 130.621 31.0048 130.58 29.1549C130.54 27.3051 129.414 25.4553 128.771 23.6054C134.481 25.0129 138.301 22.5197 140.151 17.2115C141.237 19.3428 142.202 21.7556 143.569 23.8467C145.098 26.1791 147.671 27.0236 150.848 27.5464C146.585 29.9994 145.419 33.5382 146.143 37.9215C144.575 37.4792 143.167 37.077 141.679 36.6749C141.599 37.1977 141.478 37.4792 141.519 37.7606C142.685 43.5916 145.218 48.5781 150.325 51.9159C153.663 54.0874 157.323 54.1276 160.339 51.8757C158.529 51.0714 156.92 50.3073 155.312 49.5835C158.489 45.4415 158.69 44.3155 156.92 40.6962C158.851 40.8571 161.022 41.5407 162.952 41.0984C164.923 40.656 166.612 39.0877 168.18 38.1628C168.542 39.892 168.783 42.2646 169.548 44.3959C170.392 46.6077 172.282 48.0956 174.775 49.1411ZM140.915 34.9859C142.966 34.624 144.615 32.6535 144.655 30.482C144.695 28.1094 143.489 26.6617 141.036 26.1791C141.639 27.9083 141.318 29.1147 140.071 29.8788C138.945 30.5222 137.819 30.6026 136.814 29.5973C135.768 28.5115 136.251 27.4659 137.175 26.5008C135.084 27.667 134.361 29.4766 135.125 31.6482C135.969 34.0208 138.382 35.4283 140.915 34.9859ZM166.773 45.4415C167.135 46.8087 166.853 48.0151 165.406 48.2564C164.601 48.3771 163.435 48.0956 162.952 47.5326C162.55 47.05 162.872 45.924 162.872 45.1198C161.304 45.8838 160.54 47.4924 161.062 49.3824C161.625 51.3529 163.596 52.7603 165.607 52.6397C167.497 52.4789 169.065 51.0714 169.306 49.302C169.548 47.4924 168.663 46.0849 166.773 45.4415Z" fill="url(#paint25_linear_22_20092)"/>
<path d="M151.613 155.507C153.584 159.287 156.841 161.659 160.259 163.911C168.06 169.099 173.489 175.975 175.379 185.305C176.425 190.372 176.103 195.479 175.701 200.586C175.5 202.557 175.379 204.527 175.5 206.618C175.701 206.256 175.942 205.894 176.063 205.492C180.285 192.624 181.974 179.434 179.803 166.002C178.556 158.241 175.259 151.284 169.951 145.373C172.082 149.957 173.409 154.823 173.932 159.85C174.454 164.354 174.575 168.898 174.575 173.522C168.181 156.07 158.852 140.628 144.375 128.644C144.509 128.483 144.629 128.336 144.737 128.202C146.707 128.684 148.637 129.247 150.568 129.73C154.147 130.534 157.685 131.338 161.264 132.102C171.117 134.274 178.717 139.864 184.83 147.585C188.006 151.606 190.741 155.989 193.234 159.608C191.545 152.651 188.167 145.614 183.342 139.301C178.114 132.424 171.157 127.759 163.436 124.22C157.685 121.607 151.814 119.234 145.983 116.781C145.139 116.419 144.294 116.097 143.45 115.454C145.3 115.333 147.109 115.333 148.919 115.092C152.819 114.569 156.68 113.926 160.541 113.403C165.889 112.719 171.157 113.041 176.264 115.172C175.138 113.524 171.036 110.789 168.06 109.663C163.717 108.014 159.294 108.175 154.83 109.181C150.688 110.105 146.667 109.462 142.887 107.934C146.385 107.089 149.924 106.285 153.463 105.36C156.318 104.636 159.093 103.631 161.988 103.108C168.704 101.902 174.575 103.792 179.562 108.537C182.779 111.593 185.956 114.73 189.334 117.545C193.154 120.762 197.658 122.853 202.483 124.22C202.725 124.261 202.926 124.341 203.247 124.462C201.478 125.306 197.416 125.829 194.642 125.266C189.736 124.261 184.91 123.014 180.044 121.928C175.299 120.842 170.514 119.837 165.607 119.033C175.621 125.266 184.106 132.866 189.575 143.644C189.776 140.386 187.443 134.314 183.503 127.88C186.197 128.966 188.288 130.534 189.937 132.706C193.757 137.732 195.647 143.603 196.894 149.716C198.824 159.166 198.663 168.697 197.939 178.227C197.778 179.756 197.618 181.324 197.376 182.852C196.009 171.311 191.183 161.499 182.819 153.174C182.779 153.496 182.698 153.657 182.738 153.737C186.599 161.7 187.242 170.144 186.8 178.831C186.318 189.085 183.141 198.576 179.401 207.986C177.39 213.012 175.54 218.119 175.42 223.629C175.379 225.076 175.42 226.524 175.42 228.374C174.857 227.449 174.414 226.846 174.093 226.162C171.237 220.13 169.548 213.776 169.026 207.141C168.262 197.007 165.567 187.517 159.817 178.991C156.881 174.608 153.986 170.185 152.86 164.917C152.176 161.86 151.774 158.764 151.251 155.668C151.358 155.614 151.479 155.56 151.613 155.507Z" fill="url(#paint26_linear_22_20092)"/>
<path d="M148.435 85.0134C147.189 84.4504 145.942 83.807 144.655 83.2842C132.591 78.3379 120.004 76.0458 107.055 75.523C105.259 75.4426 103.476 75.4023 101.707 75.4023V82.48C109.991 82.48 118.275 83.3244 126.479 85.0938C132.752 86.4611 138.864 88.512 144.776 91.0052C145.982 91.4878 146.706 91.327 147.269 90.1608C147.792 88.9946 148.395 87.8686 149.039 86.7426C149.521 85.8981 149.199 85.3753 148.435 85.0134Z" fill="url(#paint27_linear_22_20092)"/>
<path d="M114.535 181.241C110.313 179.833 106.01 179.15 101.707 179.109V201.589C102.391 199.337 102.994 197.366 103.597 195.396C103.758 195.423 103.919 195.436 104.08 195.436C105.125 198.09 106.171 200.744 107.257 203.479V194.753C109.629 195.637 111.318 197.125 112.243 199.86C113.007 197.165 113.047 194.873 112.042 192.581C112.149 192.501 112.27 192.407 112.404 192.299C113.852 193.345 115.581 194.19 116.707 195.517C118.275 197.447 119.401 199.779 120.648 201.709C120.648 201.79 120.688 201.468 120.607 201.187C120.165 198.693 119.723 196.16 119.28 193.627C119.2 193.144 119.401 192.581 119.441 192.058C119.924 192.098 120.567 192.018 120.929 192.259C121.935 192.983 122.859 193.868 123.704 194.632C124.026 188.72 120.487 183.251 114.535 181.241Z" fill="url(#paint28_linear_22_20092)"/>
<path d="M167.456 75.6406C171.196 80.3456 171.477 85.3321 168.662 90.761C173.247 91.1229 176.263 93.6161 178.515 97.2756C179.6 98.9646 181.169 99.9699 183.3 100.131C181.169 101.217 178.957 100.935 176.785 100.493C175.096 100.171 173.448 99.4471 171.759 99.045C169.426 98.4418 167.094 97.9592 164.882 97.4767C168.019 96.1094 171.517 96.2702 175.096 96.9539C174.091 94.7823 170.552 93.0531 168.059 93.7368C166.37 94.1791 164.802 94.9834 163.274 95.7877C160.177 97.3962 157.282 99.4471 154.065 100.734C148.636 102.986 143.167 102.463 137.979 99.7286C136.411 98.9243 134.883 97.9994 133.475 96.9941C127.886 92.8119 121.974 92.8521 115.781 95.3453C114.334 95.9485 112.966 96.6724 111.277 97.4364C116.143 90.962 126.237 88.7101 131.947 91.5652C129.213 91.5652 126.559 91.5652 123.904 91.5652C123.878 91.6993 123.851 91.8467 123.824 92.0076C128.248 92.0076 131.706 94.3802 135.446 96.23C143.006 99.9297 155.03 98.3211 159.654 87.0613C159.936 86.3375 160.177 85.6136 160.499 84.7691C160.861 87.9058 158.609 93.1336 155.512 96.4311C158.729 95.9485 164.078 92.088 166.129 88.6699C168.622 84.5681 168.984 80.1848 167.456 75.6406Z" fill="url(#paint29_linear_22_20092)"/>
<path d="M143.812 233.722C155.354 230.786 161.587 216.349 160.783 205.693C160.662 204.326 160.501 202.958 160.34 201.551C164.724 207.06 168.182 221.939 161.989 229.942C162.512 227.609 163.196 225.438 163.437 223.226C163.678 220.934 163.477 218.642 163.477 215.907C159.777 226.202 149.764 233.722 143.812 233.722Z" fill="url(#paint30_linear_22_20092)"/>
<path d="M125.879 71.0189C125.879 67.1182 128.895 63.7805 132.313 63.8207C135.57 63.8609 138.426 66.9976 138.426 70.5364C138.426 74.3164 135.249 77.5738 131.629 77.5738C128.332 77.5335 125.879 74.7588 125.879 71.0189Z" fill="url(#paint31_linear_22_20092)"/>
<path d="M102.149 59.5156C101.989 59.5156 101.841 59.529 101.707 59.5558V73.0274C101.895 73.0542 102.082 73.0676 102.27 73.0676C105.447 73.1481 108.222 70.0918 108.262 66.4726C108.342 62.974 105.286 59.5156 102.149 59.5156Z" fill="url(#paint32_linear_22_20092)"/>
<path d="M148.558 182.973C148.692 181.123 148.826 179.274 148.96 177.424C149.523 170.185 148.317 163.268 144.617 156.915C144.335 156.392 144.335 155.708 144.215 155.105C144.349 155.051 144.496 154.998 144.657 154.944C145.421 155.427 146.226 155.95 147.15 156.553C147.15 155.427 147.15 154.542 147.15 153.617C150.609 157.799 151.534 175.373 148.558 182.973Z" fill="url(#paint33_linear_22_20092)"/>
<path d="M109.749 256.002C107.779 251.176 106.653 246.31 108.02 241.123C108.824 238.107 110.795 236.217 113.931 234.93C109.669 241.565 108.382 248.522 109.749 256.002Z" fill="url(#paint34_linear_22_20092)"/>
<path d="M101.707 157.234V164.111C102.19 163.99 102.793 163.427 102.994 162.945C103.396 162.1 103.316 161.055 103.718 160.21C104.24 159.205 105.045 158.32 105.809 157.234H101.707Z" fill="url(#paint35_linear_22_20092)"/>
<path d="M112.85 92.0496C109.11 95.1461 106.014 98.3229 105.169 103.43C103.883 96.2318 106.818 91.8485 112.85 92.0496Z" fill="url(#paint36_linear_22_20092)"/>
<path d="M125.998 127.398C125.073 130.173 123.505 130.776 121.293 129.248C123.022 128.565 124.51 127.961 125.998 127.398Z" fill="url(#paint37_linear_22_20092)"/>
<defs>
<linearGradient id="paint0_linear_22_20092" x1="-28.0184" y1="54.6774" x2="275.032" y2="143.668" gradientUnits="userSpaceOnUse">
<stop stop-color="#FFCF45"/>
<stop offset="0.32" stop-color="#FFF68A"/>
<stop offset="0.68" stop-color="#CF9A15"/>
<stop offset="1" stop-color="#FFE35F"/>
</linearGradient>
<linearGradient id="paint1_linear_22_20092" x1="-48.3126" y1="118.971" x2="250.586" y2="206.743" gradientUnits="userSpaceOnUse">
<stop stop-color="#FFCF45"/>
<stop offset="0.32" stop-color="#FFF68A"/>
<stop offset="0.68" stop-color="#CF9A15"/>
<stop offset="1" stop-color="#FFE35F"/>
</linearGradient>
<linearGradient id="paint2_linear_22_20092" x1="6.40665" y1="-35.3901" x2="299.164" y2="50.5781" gradientUnits="userSpaceOnUse">
<stop stop-color="#FFCF45"/>
<stop offset="0.32" stop-color="#FFF68A"/>
<stop offset="0.68" stop-color="#CF9A15"/>
<stop offset="1" stop-color="#FFE35F"/>
</linearGradient>
<linearGradient id="paint3_linear_22_20092" x1="-18.1914" y1="50.1179" x2="371.858" y2="164.656" gradientUnits="userSpaceOnUse">
<stop stop-color="#FFCF45"/>
<stop offset="0.32" stop-color="#FFF68A"/>
<stop offset="0.68" stop-color="#CF9A15"/>
<stop offset="1" stop-color="#FFE35F"/>
</linearGradient>
<linearGradient id="paint4_linear_22_20092" x1="-30.8992" y1="4.47172" x2="287.277" y2="97.9043" gradientUnits="userSpaceOnUse">
<stop stop-color="#FFCF45"/>
<stop offset="0.32" stop-color="#FFF68A"/>
<stop offset="0.68" stop-color="#CF9A15"/>
<stop offset="1" stop-color="#FFE35F"/>
</linearGradient>
<linearGradient id="paint5_linear_22_20092" x1="-3.83045" y1="43.9926" x2="258.368" y2="120.987" gradientUnits="userSpaceOnUse">
<stop stop-color="#FFCF45"/>
<stop offset="0.32" stop-color="#FFF68A"/>
<stop offset="0.68" stop-color="#CF9A15"/>
<stop offset="1" stop-color="#FFE35F"/>
</linearGradient>
<linearGradient id="paint6_linear_22_20092" x1="-46.4426" y1="133.561" x2="241.698" y2="218.174" gradientUnits="userSpaceOnUse">
<stop stop-color="#FFCF45"/>
<stop offset="0.32" stop-color="#FFF68A"/>
<stop offset="0.68" stop-color="#CF9A15"/>
<stop offset="1" stop-color="#FFE35F"/>
</linearGradient>
<linearGradient id="paint7_linear_22_20092" x1="-12.0152" y1="54" x2="267.935" y2="136.208" gradientUnits="userSpaceOnUse">
<stop stop-color="#FFCF45"/>
<stop offset="0.32" stop-color="#FFF68A"/>
<stop offset="0.68" stop-color="#CF9A15"/>
<stop offset="1" stop-color="#FFE35F"/>
</linearGradient>
<linearGradient id="paint8_linear_22_20092" x1="-11.3261" y1="27.6307" x2="262.999" y2="108.186" gradientUnits="userSpaceOnUse">
<stop stop-color="#FFCF45"/>
<stop offset="0.32" stop-color="#FFF68A"/>
<stop offset="0.68" stop-color="#CF9A15"/>
<stop offset="1" stop-color="#FFE35F"/>
</linearGradient>
<linearGradient id="paint9_linear_22_20092" x1="-48.8549" y1="164.514" x2="236.096" y2="248.19" gradientUnits="userSpaceOnUse">
<stop stop-color="#FFCF45"/>
<stop offset="0.32" stop-color="#FFF68A"/>
<stop offset="0.68" stop-color="#CF9A15"/>
<stop offset="1" stop-color="#FFE35F"/>
</linearGradient>
<linearGradient id="paint10_linear_22_20092" x1="-164.265" y1="100.884" x2="264.121" y2="226.68" gradientUnits="userSpaceOnUse">
<stop stop-color="#FFCF45"/>
<stop offset="0.32" stop-color="#FFF68A"/>
<stop offset="0.68" stop-color="#CF9A15"/>
<stop offset="1" stop-color="#FFE35F"/>
</linearGradient>
<linearGradient id="paint11_linear_22_20092" x1="-14.0385" y1="36.5458" x2="296.431" y2="127.715" gradientUnits="userSpaceOnUse">
<stop stop-color="#FFCF45"/>
<stop offset="0.32" stop-color="#FFF68A"/>
<stop offset="0.68" stop-color="#CF9A15"/>
<stop offset="1" stop-color="#FFE35F"/>
</linearGradient>
<linearGradient id="paint12_linear_22_20092" x1="-26.9207" y1="14.8955" x2="291.889" y2="108.514" gradientUnits="userSpaceOnUse">
<stop stop-color="#FFCF45"/>
<stop offset="0.32" stop-color="#FFF68A"/>
<stop offset="0.68" stop-color="#CF9A15"/>
<stop offset="1" stop-color="#FFE35F"/>
</linearGradient>
<linearGradient id="paint13_linear_22_20092" x1="-17.8242" y1="22.2018" x2="294.853" y2="114.02" gradientUnits="userSpaceOnUse">
<stop stop-color="#FFCF45"/>
<stop offset="0.32" stop-color="#FFF68A"/>
<stop offset="0.68" stop-color="#CF9A15"/>
<stop offset="1" stop-color="#FFE35F"/>
</linearGradient>
<linearGradient id="paint14_linear_22_20092" x1="-93.0231" y1="88.2957" x2="386.947" y2="229.239" gradientUnits="userSpaceOnUse">
<stop stop-color="#FFCF45"/>
<stop offset="0.32" stop-color="#FFF68A"/>
<stop offset="0.68" stop-color="#CF9A15"/>
<stop offset="1" stop-color="#FFE35F"/>
</linearGradient>
<linearGradient id="paint15_linear_22_20092" x1="-38.3048" y1="78.4731" x2="254.984" y2="164.598" gradientUnits="userSpaceOnUse">
<stop stop-color="#FFCF45"/>
<stop offset="0.32" stop-color="#FFF68A"/>
<stop offset="0.68" stop-color="#CF9A15"/>
<stop offset="1" stop-color="#FFE35F"/>
</linearGradient>
<linearGradient id="paint16_linear_22_20092" x1="-64.5845" y1="179.257" x2="232.949" y2="266.628" gradientUnits="userSpaceOnUse">
<stop stop-color="#FFCF45"/>
<stop offset="0.32" stop-color="#FFF68A"/>
<stop offset="0.68" stop-color="#CF9A15"/>
<stop offset="1" stop-color="#FFE35F"/>
</linearGradient>
<linearGradient id="paint17_linear_22_20092" x1="110.385" y1="224.837" x2="122.084" y2="228.273" gradientUnits="userSpaceOnUse">
<stop stop-color="#FFCF45"/>
<stop offset="0.32" stop-color="#FFF68A"/>
<stop offset="0.68" stop-color="#CF9A15"/>
<stop offset="1" stop-color="#FFE35F"/>
</linearGradient>
<linearGradient id="paint18_linear_22_20092" x1="-47.6142" y1="112.66" x2="260.721" y2="203.202" gradientUnits="userSpaceOnUse">
<stop stop-color="#FFCF45"/>
<stop offset="0.32" stop-color="#FFF68A"/>
<stop offset="0.68" stop-color="#CF9A15"/>
<stop offset="1" stop-color="#FFE35F"/>
</linearGradient>
<linearGradient id="paint19_linear_22_20092" x1="-97.6566" y1="29.0086" x2="368.661" y2="165.943" gradientUnits="userSpaceOnUse">
<stop stop-color="#FFCF45"/>
<stop offset="0.32" stop-color="#FFF68A"/>
<stop offset="0.68" stop-color="#CF9A15"/>
<stop offset="1" stop-color="#FFE35F"/>
</linearGradient>
<linearGradient id="paint20_linear_22_20092" x1="-3.8116" y1="60.4761" x2="249.418" y2="134.837" gradientUnits="userSpaceOnUse">
<stop stop-color="#FFCF45"/>
<stop offset="0.32" stop-color="#FFF68A"/>
<stop offset="0.68" stop-color="#CF9A15"/>
<stop offset="1" stop-color="#FFE35F"/>
</linearGradient>
<linearGradient id="paint21_linear_22_20092" x1="-18.1384" y1="98.2463" x2="243.361" y2="175.037" gradientUnits="userSpaceOnUse">
<stop stop-color="#FFCF45"/>
<stop offset="0.32" stop-color="#FFF68A"/>
<stop offset="0.68" stop-color="#CF9A15"/>
<stop offset="1" stop-color="#FFE35F"/>
</linearGradient>
<linearGradient id="paint22_linear_22_20092" x1="121.552" y1="126.541" x2="126.587" y2="128.019" gradientUnits="userSpaceOnUse">
<stop stop-color="#FFCF45"/>
<stop offset="0.32" stop-color="#FFF68A"/>
<stop offset="0.68" stop-color="#CF9A15"/>
<stop offset="1" stop-color="#FFE35F"/>
</linearGradient>
<linearGradient id="paint23_linear_22_20092" x1="261.913" y1="161.888" x2="6.03666" y2="220.212" gradientUnits="userSpaceOnUse">
<stop stop-color="#FFCF45"/>
<stop offset="0.32" stop-color="#FFF68A"/>
<stop offset="0.68" stop-color="#CF9A15"/>
<stop offset="1" stop-color="#FFE35F"/>
</linearGradient>
<linearGradient id="paint24_linear_22_20092" x1="266.203" y1="230.497" x2="36.7237" y2="282.805" gradientUnits="userSpaceOnUse">
<stop stop-color="#FFCF45"/>
<stop offset="0.32" stop-color="#FFF68A"/>
<stop offset="0.68" stop-color="#CF9A15"/>
<stop offset="1" stop-color="#FFE35F"/>
</linearGradient>
<linearGradient id="paint25_linear_22_20092" x1="229.28" y1="74.7219" x2="-19.0458" y2="131.326" gradientUnits="userSpaceOnUse">
<stop stop-color="#FFCF45"/>
<stop offset="0.32" stop-color="#FFF68A"/>
<stop offset="0.68" stop-color="#CF9A15"/>
<stop offset="1" stop-color="#FFE35F"/>
</linearGradient>
<linearGradient id="paint26_linear_22_20092" x1="262.678" y1="237.763" x2="-38.7512" y2="306.471" gradientUnits="userSpaceOnUse">
<stop stop-color="#FFCF45"/>
<stop offset="0.32" stop-color="#FFF68A"/>
<stop offset="0.68" stop-color="#CF9A15"/>
<stop offset="1" stop-color="#FFE35F"/>
</linearGradient>
<linearGradient id="paint27_linear_22_20092" x1="218.689" y1="70.6262" x2="-2.94312" y2="121.145" gradientUnits="userSpaceOnUse">
<stop stop-color="#FFCF45"/>
<stop offset="0.32" stop-color="#FFF68A"/>
<stop offset="0.68" stop-color="#CF9A15"/>
<stop offset="1" stop-color="#FFE35F"/>
</linearGradient>
<linearGradient id="paint28_linear_22_20092" x1="253.272" y1="174.509" x2="21.7127" y2="227.29" gradientUnits="userSpaceOnUse">
<stop stop-color="#FFCF45"/>
<stop offset="0.32" stop-color="#FFF68A"/>
<stop offset="0.68" stop-color="#CF9A15"/>
<stop offset="1" stop-color="#FFE35F"/>
</linearGradient>
<linearGradient id="paint29_linear_22_20092" x1="222.49" y1="86.1151" x2="1.00211" y2="136.601" gradientUnits="userSpaceOnUse">
<stop stop-color="#FFCF45"/>
<stop offset="0.32" stop-color="#FFF68A"/>
<stop offset="0.68" stop-color="#CF9A15"/>
<stop offset="1" stop-color="#FFE35F"/>
</linearGradient>
<linearGradient id="paint30_linear_22_20092" x1="255.611" y1="216.152" x2="29.1581" y2="267.771" gradientUnits="userSpaceOnUse">
<stop stop-color="#FFCF45"/>
<stop offset="0.32" stop-color="#FFF68A"/>
<stop offset="0.68" stop-color="#CF9A15"/>
<stop offset="1" stop-color="#FFE35F"/>
</linearGradient>
<linearGradient id="paint31_linear_22_20092" x1="223.388" y1="58.4871" x2="-20.3727" y2="114.05" gradientUnits="userSpaceOnUse">
<stop stop-color="#FFCF45"/>
<stop offset="0.32" stop-color="#FFF68A"/>
<stop offset="0.68" stop-color="#CF9A15"/>
<stop offset="1" stop-color="#FFE35F"/>
</linearGradient>
<linearGradient id="paint32_linear_22_20092" x1="223.96" y1="49.1373" x2="-13.2387" y2="103.205" gradientUnits="userSpaceOnUse">
<stop stop-color="#FFCF45"/>
<stop offset="0.32" stop-color="#FFF68A"/>
<stop offset="0.68" stop-color="#CF9A15"/>
<stop offset="1" stop-color="#FFE35F"/>
</linearGradient>
<linearGradient id="paint33_linear_22_20092" x1="319.893" y1="159.656" x2="-100.157" y2="255.404" gradientUnits="userSpaceOnUse">
<stop stop-color="#FFCF45"/>
<stop offset="0.32" stop-color="#FFF68A"/>
<stop offset="0.68" stop-color="#CF9A15"/>
<stop offset="1" stop-color="#FFE35F"/>
</linearGradient>
<linearGradient id="paint34_linear_22_20092" x1="271.189" y1="227.168" x2="30.3095" y2="282.075" gradientUnits="userSpaceOnUse">
<stop stop-color="#FFCF45"/>
<stop offset="0.32" stop-color="#FFF68A"/>
<stop offset="0.68" stop-color="#CF9A15"/>
<stop offset="1" stop-color="#FFE35F"/>
</linearGradient>
<linearGradient id="paint35_linear_22_20092" x1="107.464" y1="164.561" x2="102.083" y2="165.788" gradientUnits="userSpaceOnUse">
<stop stop-color="#FFCF45"/>
<stop offset="0.32" stop-color="#FFF68A"/>
<stop offset="0.68" stop-color="#CF9A15"/>
<stop offset="1" stop-color="#FFE35F"/>
</linearGradient>
<linearGradient id="paint36_linear_22_20092" x1="215.47" y1="80.9571" x2="7.17996" y2="128.435" gradientUnits="userSpaceOnUse">
<stop stop-color="#FFCF45"/>
<stop offset="0.32" stop-color="#FFF68A"/>
<stop offset="0.68" stop-color="#CF9A15"/>
<stop offset="1" stop-color="#FFE35F"/>
</linearGradient>
<linearGradient id="paint37_linear_22_20092" x1="222.281" y1="107.752" x2="12.223" y2="155.634" gradientUnits="userSpaceOnUse">
<stop stop-color="#FFCF45"/>
<stop offset="0.32" stop-color="#FFF68A"/>
<stop offset="0.68" stop-color="#CF9A15"/>
<stop offset="1" stop-color="#FFE35F"/>
</linearGradient>
</defs>
</svg>
