<svg width="243" height="256" viewBox="0 0 243 256" fill="none" xmlns="http://www.w3.org/2000/svg">
<path d="M160.197 84.3431C160.103 84.2961 160.032 84.249 159.985 84.2019C159.915 84.8376 159.42 85.4028 158.714 85.4028C158.007 85.4028 157.442 84.8376 157.442 84.1312C157.442 83.7074 157.654 83.2835 158.007 83.0716C157.678 82.9774 157.301 82.8833 156.877 82.7891C156.689 83.0245 156.547 83.3071 156.453 83.6367C156.312 84.4138 156.524 85.1908 157.018 85.756C157.654 86.3211 158.149 86.3917 158.855 86.4624C159.42 86.3917 159.915 86.1798 160.268 85.756C160.692 85.4028 160.621 84.6964 160.197 84.3431Z" fill="#E0BC68"/>
<path d="M154.333 187.552C150.165 196.312 143.737 200.126 143.737 200.126C143.596 186.775 130.81 172.365 130.81 172.365C132.788 189.813 127.207 198.784 127.207 198.784C122.333 179.499 108.84 170.245 108.84 170.245C112.726 185.928 107.004 191.579 107.004 191.579C100.081 173.495 37.7757 140.152 70.9769 87.4542C64.5486 88.2312 57.9084 92.1871 57.9084 92.1871C70.6944 61.5996 111.737 55.7364 111.737 55.7364C93.0875 51.1447 72.1778 57.785 64.0541 66.4738C64.0541 66.4738 67.7981 65.7674 72.6723 64.7785C59.0386 72.4077 41.9435 92.2578 46.6765 131.746L52.6103 114.368C51.4094 125.035 49.7847 144.603 85.317 178.864C99.5865 192.638 101.988 199.703 102.271 207.756C102.271 207.756 116.682 204.224 115.905 189.883C124.664 205.354 120.991 215.597 120.991 215.597C120.991 215.597 135.401 206.343 135.401 192.356C135.401 192.356 139.004 199.773 138.298 209.027C140.911 208.603 152.85 204.012 154.333 187.552Z" fill="url(#paint0_linear_22_20144)"/>
<path d="M184.214 130.049C183.084 132.169 181.671 133.652 180.188 134.782C182.236 135.418 184.073 136.407 185.556 138.032C186.333 134.712 185.768 131.815 185.344 130.191C185.203 129.626 184.497 129.555 184.214 130.049Z" fill="url(#paint1_linear_22_20144)"/>
<path d="M193.116 119.031C191.562 119.596 189.937 119.95 188.171 120.091C187.559 120.091 186.9 120.044 186.193 119.95C186.052 121.362 185.699 122.846 184.992 124.4C184.851 124.894 185.275 125.389 185.769 125.177C187.535 124.471 190.856 122.705 193.116 119.031Z" fill="url(#paint2_linear_22_20144)"/>
<path d="M129.044 81.2392C130.316 80.9567 131.305 80.7447 131.94 80.6035C132.223 78.9787 132.293 77.2833 132.082 75.5173C131.093 68.1 125.583 62.7313 119.79 63.5083C113.927 64.2854 109.971 70.9256 110.889 78.3429C111.172 80.3915 111.808 82.3695 112.726 83.9942C106.227 88.6565 102.766 96.4977 102.766 96.4977C106.015 92.4711 111.949 88.4446 114.986 86.5373C115.646 86.2076 116.305 85.878 116.964 85.5483C116.258 84.4181 115.622 83.0052 115.34 81.5218C114.351 76.4356 116.541 71.6321 120.285 70.7844C124.029 70.0073 127.843 73.3981 128.832 78.4842C129.02 79.4261 129.091 80.3444 129.044 81.2392Z" fill="url(#paint3_linear_22_20144)"/>
<path d="M126.856 91.1969C115.766 89.9253 94.9265 103.983 100.366 125.458C101.284 121.361 102.556 118.676 105.311 115.992C100.225 134.005 121.276 148.981 120.499 166.995C130.953 147.356 103.121 120.23 126.079 103.983C120.781 104.407 114.282 107.444 111.245 110.552C112.728 103.347 120.71 95.294 126.856 91.1969Z" fill="url(#paint4_linear_22_20144)"/>
<path d="M102.414 80.1074C97.6103 80.8138 93.2306 82.7917 90.8288 84.1339C93.6544 76.0102 105.734 69.158 105.663 69.158C85.5307 67.3214 74.7227 82.933 74.7227 82.933C80.162 80.1074 83.9766 78.6946 88.5683 77.7762C84.683 79.6129 59.8174 114.086 90.0517 150.536C64.4797 103.348 102.414 80.1074 102.414 80.1074Z" fill="url(#paint5_linear_22_20144)"/>
<path d="M126.926 58.9864C132.012 61.6707 134.202 65.1321 134.202 65.1321C145.928 61.035 158.785 65.2734 162.246 67.4633C164.295 68.8054 163.871 66.8275 163.73 66.1211C161.61 55.9488 153.769 51.781 148.966 50.1562C151.226 52.4168 153.063 56.8671 153.416 60.9643C140.206 55.2424 126.926 58.9864 126.926 58.9864Z" fill="url(#paint6_linear_22_20144)"/>
<path fill-rule="evenodd" clip-rule="evenodd" d="M187.256 100.737C187.821 102.15 189.305 104.198 193.684 106.318C198.7 108.719 198.064 111.121 197.075 112.463C192.978 116.066 188.669 116.419 182.311 115.077C181.675 114.936 180.333 114.512 179.485 114.3C179.344 114.253 179.203 114.206 179.062 114.159C178.591 113.97 178.12 113.782 177.649 113.594C180.969 113.17 184.289 111.686 186.55 109.92C185.066 110.485 183.653 110.768 182.17 110.98C178.567 111.333 173.622 111.545 171.15 108.649C170.373 107.448 170.02 106.035 170.09 104.693C172.986 107.307 178.355 107.024 181.675 105.54C178.143 105.682 172.845 105.117 171.009 101.726C171.527 100.831 172.28 99.9599 173.269 99.1122C167.971 100.101 165.357 106.247 168.112 110.98C168.819 112.181 169.666 113.17 170.585 114.088C168.112 114.936 166.064 116.843 164.156 119.881C163.309 121.082 162.461 123.059 162.108 123.837C158.858 130.406 160.271 133.656 167.123 136.057C170.585 137.258 175.106 137.823 178.638 138.812C180.262 139.236 181.322 139.66 182.452 140.861C184.995 143.828 186.055 147.219 184.854 151.104C183.371 155.837 180.192 159.369 175.741 161.629C177.013 158.804 177.225 156.119 175.741 153.364C173.198 157.038 170.443 159.298 165.569 158.097C169.596 156.896 170.09 149.126 168.465 148.42C164.015 146.654 154.832 143.121 153.278 142.132C147.061 138.106 146.637 133.656 147.414 129.064C148.262 124.543 150.452 121.293 151.512 117.903C153.772 111.121 152.995 106.6 149.463 102.079C150.099 102.362 150.805 102.715 151.441 103.139C155.397 105.611 157.799 109.638 157.94 114.441C160.2 108.79 156.81 102.291 151.865 99.1828C149.11 97.4168 145.719 96.781 142.47 96.2866C140.562 96.004 138.726 95.2976 137.313 93.9554C135.194 92.0481 134.558 89.2931 135.971 85.4785C137.949 80.0391 138.796 73.5402 135.617 68.5953C159.211 61.6725 173.198 79.5447 174.964 84.8427C175.388 85.5491 175.812 86.8207 176.307 87.5977C177.578 89.5757 178.214 90.7059 180.616 91.7655C188.245 95.2269 196.51 98.6883 204.351 102.079C202.091 102.715 197.004 103.209 188.386 99.6067C187.75 99.3241 186.973 100.031 187.256 100.737ZM153.066 83.3593C153.419 84.207 153.631 85.1253 154.055 85.973C155.185 88.0922 156.88 88.7986 159 88.8693C159.706 88.9399 160.624 88.7986 161.401 88.6573C162.744 88.4454 164.156 88.6573 165.357 89.3637C166.629 89.9995 167.618 90.6353 168.536 91.1298C168.819 91.271 169.172 90.9885 169.031 90.6353C168.395 88.6573 165.075 85.1253 165.075 85.1253C165.028 85.0782 165.004 85.0076 165.004 84.9134C165.004 84.8427 165.004 84.7721 165.075 84.7014C165.922 83.995 166.205 82.8648 165.993 81.6639C165.145 78.9795 162.249 77.708 162.249 77.708C162.249 77.708 164.086 79.474 164.015 81.8052C164.015 83.0061 162.814 83.0061 159.777 81.6639C152.995 78.697 147.697 79.8272 147.697 79.8272C147.697 79.8272 149.887 80.7455 150.735 81.1694C150.782 81.1694 150.852 81.1929 150.946 81.24C151.865 81.7345 152.642 82.4409 153.066 83.3593ZM171.009 96.4985C167.759 94.0967 166.982 93.3196 165.145 92.3307C164.368 91.8362 163.379 91.6949 162.461 91.7655C156.668 92.3307 152.571 88.8693 152.571 88.8693C155.114 94.3086 159.353 94.6618 161.684 94.3792C162.885 94.3086 164.015 94.5205 165.075 95.015C167.335 96.1453 169.454 96.781 170.726 97.0636C171.079 97.1342 171.22 96.7104 171.009 96.4985Z" fill="url(#paint7_linear_22_20144)"/>
<path d="M238.75 49.2345C209.928 39.0622 180.189 32.5633 150.025 29.8789L148.33 39.6273C176.586 42.0998 204.489 47.963 231.545 57.2169C225.964 90.7713 215.015 122.772 198.908 152.37C179.694 187.691 153.91 218.208 122.334 243.073C122.145 243.262 121.957 243.426 121.769 243.568C121.58 243.426 121.392 243.262 121.203 243.073C89.627 218.208 63.843 187.691 44.6287 152.37C28.5226 122.772 17.5026 90.7713 11.9926 57.2169C39.0481 47.963 66.9512 42.0998 95.2076 39.6273L93.5122 29.8789C63.3486 32.5633 33.6087 39.0622 4.78726 49.2345L0.972656 50.5767L1.53777 54.6032C7.04776 90.842 18.6329 125.315 35.9399 157.103C55.79 193.624 82.4216 225.201 115.058 250.844C116.329 251.88 117.577 252.845 118.802 253.74L121.769 256L124.736 253.74C125.96 252.845 127.208 251.88 128.479 250.844C161.116 225.13 187.747 193.624 207.597 157.103C224.904 125.315 236.489 90.842 241.999 54.6032L242.565 50.5767L238.75 49.2345Z" fill="url(#paint8_linear_22_20144)"/>
<path fill-rule="evenodd" clip-rule="evenodd" d="M99.5864 34.9672L95.2773 10.4549C100.01 13.2099 105.591 17.9428 105.52 22.6757C104.39 23.9473 103.825 25.6426 104.037 27.4793C104.531 31.0113 107.851 33.6957 111.595 33.6957C115.269 33.6957 118.165 31.0113 118.094 27.4793C118.024 25.2894 116.823 23.3115 114.986 22.04C113.432 19.7088 113.149 18.296 113.432 15.6823C114.209 8.75948 121.768 0 121.768 0C121.768 0 129.326 8.75948 130.103 15.6823C130.386 18.296 130.103 19.7088 128.549 22.04C126.713 23.3115 125.512 25.2894 125.441 27.4793C125.37 31.0113 128.267 33.6957 131.94 33.6957C135.684 33.6957 139.004 31.0113 139.499 27.4793C139.71 25.6426 139.145 23.9473 138.015 22.6757C137.944 17.9428 143.525 13.2099 148.258 10.4549L143.949 34.9672C142.042 34.9672 140.346 36.3094 140.134 37.8635C139.852 39.4176 141.123 40.6892 142.96 40.6892L142.042 45.634C136.602 46.9056 129.468 48.0358 121.203 47.9652C113.432 47.9652 106.721 46.8349 101.494 45.634L100.575 40.6892C102.412 40.6892 103.684 39.4176 103.401 37.8635C103.189 36.3094 101.494 34.9672 99.5864 34.9672ZM116.893 40.336C116.893 43.091 119.083 45.2808 121.838 45.2808C124.523 45.2808 126.783 43.091 126.783 40.336C126.783 37.6516 124.523 35.4617 121.838 35.4617C119.083 35.4617 116.893 37.6516 116.893 40.336Z" fill="url(#paint9_linear_22_20144)"/>
<defs>
<linearGradient id="paint0_linear_22_20144" x1="218.38" y1="8.95165" x2="228.191" y2="266.513" gradientUnits="userSpaceOnUse">
<stop offset="0.004" stop-color="#EAD09A"/>
<stop offset="0.17" stop-color="#DFB968"/>
<stop offset="0.42" stop-color="#DFB968"/>
<stop offset="0.984" stop-color="#965D24"/>
</linearGradient>
<linearGradient id="paint1_linear_22_20144" x1="184.484" y1="10.172" x2="194.32" y2="268.374" gradientUnits="userSpaceOnUse">
<stop offset="0.004" stop-color="#EAD09A"/>
<stop offset="0.17" stop-color="#DFB968"/>
<stop offset="0.42" stop-color="#DFB968"/>
<stop offset="0.984" stop-color="#965D24"/>
</linearGradient>
<linearGradient id="paint2_linear_22_20144" x1="186.908" y1="1.71634" x2="197.509" y2="280.002" gradientUnits="userSpaceOnUse">
<stop offset="0.004" stop-color="#EAD09A"/>
<stop offset="0.17" stop-color="#DFB968"/>
<stop offset="0.42" stop-color="#DFB968"/>
<stop offset="0.984" stop-color="#965D24"/>
</linearGradient>
<linearGradient id="paint3_linear_22_20144" x1="134.037" y1="11.547" x2="144.192" y2="278.13" gradientUnits="userSpaceOnUse">
<stop offset="0.004" stop-color="#EAD09A"/>
<stop offset="0.17" stop-color="#DFB968"/>
<stop offset="0.42" stop-color="#DFB968"/>
<stop offset="0.984" stop-color="#965D24"/>
</linearGradient>
<linearGradient id="paint4_linear_22_20144" x1="214.948" y1="9.6243" x2="224.722" y2="266.195" gradientUnits="userSpaceOnUse">
<stop offset="0.004" stop-color="#EAD09A"/>
<stop offset="0.17" stop-color="#DFB968"/>
<stop offset="0.42" stop-color="#DFB968"/>
<stop offset="0.984" stop-color="#965D24"/>
</linearGradient>
<linearGradient id="paint5_linear_22_20144" x1="195.392" y1="10.4816" x2="205.203" y2="268.041" gradientUnits="userSpaceOnUse">
<stop offset="0.004" stop-color="#EAD09A"/>
<stop offset="0.17" stop-color="#DFB968"/>
<stop offset="0.42" stop-color="#DFB968"/>
<stop offset="0.984" stop-color="#965D24"/>
</linearGradient>
<linearGradient id="paint6_linear_22_20144" x1="148.216" y1="11.8477" x2="158.286" y2="276.177" gradientUnits="userSpaceOnUse">
<stop offset="0.004" stop-color="#EAD09A"/>
<stop offset="0.17" stop-color="#DFB968"/>
<stop offset="0.42" stop-color="#DFB968"/>
<stop offset="0.984" stop-color="#965D24"/>
</linearGradient>
<linearGradient id="paint7_linear_22_20144" x1="232.332" y1="9.96407" x2="242.099" y2="266.362" gradientUnits="userSpaceOnUse">
<stop offset="0.004" stop-color="#EAD09A"/>
<stop offset="0.17" stop-color="#DFB968"/>
<stop offset="0.42" stop-color="#DFB968"/>
<stop offset="0.984" stop-color="#965D24"/>
</linearGradient>
<linearGradient id="paint8_linear_22_20144" x1="230.031" y1="-5.0742" x2="228.09" y2="205.475" gradientUnits="userSpaceOnUse">
<stop offset="0.004" stop-color="#EAD09A"/>
<stop offset="0.17" stop-color="#DFB968"/>
<stop offset="0.42" stop-color="#DFB968"/>
<stop offset="0.984" stop-color="#965D24"/>
</linearGradient>
<linearGradient id="paint9_linear_22_20144" x1="144.027" y1="14.1388" x2="154.037" y2="276.914" gradientUnits="userSpaceOnUse">
<stop offset="0.004" stop-color="#EAD09A"/>
<stop offset="0.17" stop-color="#DFB968"/>
<stop offset="0.42" stop-color="#DFB968"/>
<stop offset="0.984" stop-color="#965D24"/>
</linearGradient>
</defs>
</svg>
