<svg width="257" height="246" viewBox="0 0 257 246" fill="none" xmlns="http://www.w3.org/2000/svg">
<path d="M116.117 153.54C118.974 152.137 120.231 150.877 124.679 148.912C134.931 144.386 143.96 140.513 155.88 138.885C173.694 136.45 188.252 139.024 200.258 147.74C209.403 154.379 218.288 166.054 221.95 180.925C226.421 199.085 222.988 212.412 217.355 227.213C221.054 224.643 228.907 211.335 231.266 206.013C239.822 186.721 240.536 167.29 230.494 148.455C213.37 116.336 177.926 112.606 145.754 130.396C125.571 141.558 120.008 150.861 116.117 153.54Z" fill="#EA2C2E"/>
<path d="M89.3407 158.821C52.2916 143.481 38.3962 126.495 41.3364 85.1484C40.0957 86.0896 39.709 87.0878 38.9295 88.346C19.1015 120.331 36.3175 152.804 63.3711 173.204C90.0058 193.288 130.378 202.304 122.209 245.163C146.377 203.44 132.922 176.867 89.3407 158.821Z" fill="#EA2C2E"/>
<path d="M256.664 111.738C220.568 55.617 129.42 67.9969 111.875 141.726C142.606 98.8336 205.903 68.4494 256.664 111.738Z" fill="#EA2C2E"/>
<path d="M28.3905 22.3965C26.558 18.7663 26.8576 14.3654 26.9645 10.3237C24.4358 14.798 22.3037 16.7051 20.5769 23.3787C18.4585 31.5665 19.8235 33.711 20.9175 40.8707C21.6622 40.3535 21.247 40.6432 21.9457 40.0265C34.8503 28.6399 49.9479 29.9118 65.263 36.3703C75.4039 40.6469 72.8504 43.9489 79.059 41.3667C83.9274 39.3403 88.679 36.4598 92.3179 32.8147C93.6755 31.4558 98.2604 26.575 98.3698 24.362C94.5768 27.3234 83.6962 27.7212 77.8133 27.4614C78.4647 26.6222 77.8804 27.2637 78.7047 26.6272C82.1969 23.9319 81.1861 25.568 85.9464 20.666C87.4656 19.1008 91.9201 14.1503 92.211 11.9535C88.4751 13.8196 83.5196 15.3786 78.7382 16.3582C73.8114 17.3665 67.7432 17.6661 63.1322 18.6892C63.4479 17.2944 67.829 11.4612 68.9952 9.9047L75.067 0.727278C65.4309 4.12001 51.6138 9.60384 44.9837 14.9062C44.2701 9.74805 48.6935 2.56973 49.2243 0C47.6591 1.38494 42.0422 4.88335 40.344 6.83395C37.3417 10.2826 35.7665 11.0447 32.6025 15.5849C31.5943 17.0308 29.2247 21.5288 28.3905 22.3965Z" fill="#EA2C2E"/>
<path d="M52.7441 201.199C51.6986 199.795 37.9847 190.042 26.8206 175.518C19.1537 165.542 13.6214 152.23 13.5244 135.994C13.4237 119.102 23.0835 99.054 31.7114 84.844C33.0479 82.6435 34.3483 80.5848 35.4423 78.1953C32.2895 79.7095 23.8431 87.4461 21.3853 90.1911C17.4741 94.5585 13.0856 99.3511 9.78234 105.003C-10.993 140.543 6.25284 170.903 36.1609 191.361C39.709 193.788 48.9013 200.012 52.7441 201.199Z" fill="#EA2C2E"/>
<path d="M28.7695 44.7504C31.7843 44.6037 39.6141 43.5383 42.2435 45.3285C39.9908 45.3957 36.7572 45.2427 34.9085 46.532C61.7483 53.4691 39.9796 123.174 86.0395 136.702C59.8176 101.083 76.0105 24.7284 28.7695 44.7504Z" fill="#EA2C2E"/>
<path d="M114.438 108.918C116.054 105.219 118.5 101.82 120.621 98.6722C127.187 88.9291 128.555 88.0166 136.042 79.835L145.274 71.7392C156.457 63.1423 176.006 53.214 194.568 52.4258C171.121 49.4334 147.214 57.8773 131.961 74.9118C127.127 80.3099 121.288 89.2548 118.574 96.1746C117.64 98.5578 114.548 106.499 114.438 108.918Z" fill="#EA2C2E"/>
<path d="M152.547 218.528C160.604 213.092 165.725 196.023 161.05 183.685C156.658 172.09 145.889 166.737 129.965 167.535C139.085 173.124 145.655 176.645 150.761 186.08C155.073 194.046 156.396 201.349 154.903 210.561C154.373 213.833 153.332 215.696 152.547 218.528Z" fill="#EA2C2E"/>
<path d="M129.852 156.977C143.276 156.662 152.106 157.583 160.074 164.803C172.902 176.424 169.867 189.68 170.641 192.52C174.694 177.768 172.77 167.775 163.982 159.265C154.405 149.994 135.378 152.134 129.852 156.977Z" fill="#EA2C2E"/>
<path d="M33.7259 57.5753C27.0921 57.3702 24.4341 57.8451 20.7418 61.4915C17.7655 64.4292 16.3682 70.2847 20.3726 73.0385C24.6144 75.9575 29.9142 74.0977 32.3982 71.0879C36.2944 66.3636 34.7727 63.2444 33.7259 57.5753Z" fill="#EA2C2E"/>
<path d="M8.1875 55.4203C15.239 53.3703 21.5695 53.8327 29.2078 53.8253C28.0106 52.8307 19.6922 48.4906 17.7553 48.0568C16.016 47.6689 8.97943 52.597 8.1875 55.4203Z" fill="#EA2C2E"/>
</svg>
