<svg width="257" height="173" viewBox="0 0 257 173" fill="none" xmlns="http://www.w3.org/2000/svg">
<path d="M121.003 76.3397L104.524 42.8596C105.882 40.6853 106.126 37.8829 104.91 35.4134L103.446 32.4381L103.03 31.5931L110.085 28.1205L104.772 17.3255C105.178 18.1489 105.59 18.987 106.017 19.8543C120.128 12.9089 128.019 19.2933 128.019 19.2933C128.019 19.2933 128.019 19.2933 133.898 16.3997C121.384 -9.02341 97.5722 2.69736 97.5722 2.69736L61.4127 20.4953L65.7295 29.2648L59.1154 32.5207L57.5683 29.3784C56.0385 26.2705 52.2793 24.9911 49.1714 26.5209L42.1185 29.9927L41.4645 30.3154C40.6876 30.6974 40.025 31.2197 39.4916 31.8358C39.2248 32.1438 38.9908 32.4751 38.7912 32.8253C38.6914 32.9999 38.6002 33.1789 38.5176 33.3622C38.2698 33.9111 38.102 34.4945 38.0194 35.0934C37.855 36.2902 38.0331 37.5473 38.607 38.7123L45.5817 52.881C47.1115 55.9889 50.8707 57.2683 53.9786 55.7385L54.6325 55.4167L61.6855 51.9449C64.7933 50.415 66.0728 46.6558 64.543 43.5479L63.2437 40.909L69.8587 37.6531L73.9277 45.9193L81.4237 42.2298L81.8393 43.0747L83.3038 46.0501C84.6331 48.751 87.3417 50.3126 90.1605 50.3221L106.367 83.2464C109.172 82.355 112.003 81.5187 114.746 80.8062C115.818 78.323 118.187 76.5738 121.003 76.3397Z" fill="#1D365C"/>
<path d="M141.904 80.8043C145.02 81.6131 148.249 82.5837 151.426 83.6128L172.432 47.806C181.158 48.5167 189.934 44.3092 194.661 36.2522C199.387 28.196 198.778 18.4826 193.9 11.212L185.791 25.0339C184.342 27.5051 181.163 28.3336 178.691 26.8838L170.027 21.8004C167.555 20.3506 166.727 17.1713 168.177 14.7001L176.285 0.878216C167.56 0.167502 158.783 4.37499 154.057 12.4321C149.331 20.4882 149.94 30.2016 154.818 37.4714L132.043 76.2922H135.013C138.107 76.2931 140.751 78.1361 141.904 80.8043Z" fill="#1D365C"/>
<path d="M181.895 132.616L176.673 108.905C175.144 100.672 169.424 93.8352 161.579 90.9046C151.258 87.049 137.086 82.3649 128.664 82.1248V82.1016C128.556 82.1016 128.436 82.1119 128.326 82.1136C128.217 82.1119 128.097 82.1016 127.989 82.1016V82.1248C119.567 82.3649 105.395 87.049 95.0734 90.9046C87.2297 93.8344 81.5087 100.671 79.9798 108.905L74.7578 132.616H128.417H181.895Z" fill="#E07019"/>
<path d="M190.773 129.813H186.012L182.266 112.49C182.053 111.251 180.979 110.346 179.722 110.346H176.188V129.813H141.557L139.839 84.5334C139.749 81.9349 137.616 79.875 135.016 79.875H128.517H128.141H121.642C119.042 79.875 116.909 81.9349 116.819 84.5334L115.101 129.813H80.4703V110.346H76.9356C75.6794 110.346 74.6056 111.251 74.3913 112.49L70.645 129.813H66.5589C65.3852 129.813 64.4336 130.765 64.4336 131.939V141.912C84.1443 137.756 106.028 135.485 128.666 135.485C151.305 135.485 173.188 137.756 192.899 141.912V131.939C192.898 130.765 191.947 129.813 190.773 129.813Z" fill="#F77D39"/>
<path d="M256.664 172.677C231.925 153.06 183.881 139.754 128.664 139.754C73.4469 139.754 25.4023 153.06 0.664062 172.677C34.9685 159.799 79.7168 152.007 128.664 152.007C177.611 152.007 222.36 159.798 256.664 172.677Z" fill="#1D365C"/>
</svg>
