<svg width="257" height="223" viewBox="0 0 257 223" fill="none" xmlns="http://www.w3.org/2000/svg">
<path d="M28.0942 222.131C18.6204 222.131 9.99021 216.969 5.00972 208.326C-0.526894 198.72 -0.518032 186.804 5.03137 177.228L99.7601 13.7721C104.757 5.1488 113.38 0 122.825 0C132.269 0 140.89 5.1488 145.889 13.7721L240.618 177.23C246.168 186.804 246.175 198.72 240.639 208.328C235.658 216.971 227.027 222.133 217.554 222.133L28.0942 222.131Z" fill="#E07019"/>
<path d="M217.552 213.405L28.0936 213.404C13.4562 213.404 4.63309 195.317 12.5802 181.603L107.31 18.1462C114.589 5.58669 131.058 5.58669 138.336 18.1462L233.065 181.604C241.012 195.318 232.189 213.405 217.552 213.405Z" fill="white"/>
<path d="M28.0969 204.676C23.709 204.676 21.2256 201.503 20.1351 199.61C18.2305 196.307 17.2304 190.989 20.1351 185.978L114.864 22.5222C116.73 19.3006 119.633 17.4531 122.827 17.4531C126.019 17.4531 128.922 19.3006 130.789 22.5222L225.518 185.979C228.423 190.99 227.422 196.306 225.518 199.611C224.428 201.503 221.943 204.677 217.555 204.677L28.0969 204.676Z" fill="#1D365C"/>
<path d="M28.2184 195.949C28.0944 195.833 27.8916 195.6 27.6928 195.253C27.4546 194.839 26.3384 192.67 27.681 190.353L122.411 26.8971C122.564 26.6333 122.708 26.4473 122.822 26.3242C122.935 26.4473 123.079 26.6333 123.233 26.8971L217.962 190.355C219.305 192.671 218.189 194.844 217.951 195.255C217.753 195.602 217.548 195.835 217.425 195.951L28.2184 195.949Z" fill="#FFFDFB"/>
<mask id="mask0_22_19565" style="mask-type:luminance" maskUnits="userSpaceOnUse" x="27" y="26" width="224" height="173">
<path d="M28.2094 198.95C28.0854 198.834 27.8905 195.599 27.6917 195.253C27.4535 194.839 28.6011 183.496 29.9437 181.179L52.0498 139.135L67.2206 120.497L122.41 26.8971C122.563 26.6333 122.707 26.4473 122.821 26.3242C122.934 26.4473 123.078 26.6333 123.231 26.8971L138.715 26.6284C150.244 61.9849 159.899 48.2246 184.832 58.911C195.592 63.5224 201.832 77.1508 205.585 86.5812C210.59 99.1565 242.035 113.037 247.09 125.781C263.351 166.768 218.055 195.072 217.948 195.255C217.75 195.602 217.545 195.835 217.422 195.951L28.2094 198.95Z" fill="white"/>
</mask>
<g mask="url(#mask0_22_19565)">
<path d="M167.84 103.11H162.525V77.7292H154.316V72.4141H167.84V103.11Z" fill="#E07019"/>
<path d="M157.807 70.2969H152.914V77.7322H157.807V70.2969Z" fill="#1D365C"/>
<path d="M177.273 71.8281L178.212 106.359L185.692 106.674L189.205 71.8281H177.273Z" fill="#1D365C"/>
<path d="M41.8409 160.623L212.124 156.184L210.656 144.504L206.695 113.01C205.631 104.55 198.41 98.2262 189.883 98.2863L151.539 98.5559L143.059 61.4838L91.7422 61.1875C91.7422 61.1875 83.3049 105.393 56.8217 111.394C41.4117 114.89 42.4187 132.152 41.456 144.503C40.77 153.376 41.8409 160.623 41.8409 160.623Z" fill="#E07019"/>
<path d="M41.8409 160.623L212.124 156.183L210.656 144.504H41.456C40.77 153.375 41.8409 160.623 41.8409 160.623Z" fill="#1D365C"/>
<path d="M97.4805 94.0321L114.555 101.711L130.72 108.978L139.759 113.047L134.842 69.7507L119.445 69.105L105.765 68.5322L100.059 68.2891L97.4805 94.0321Z" fill="#E2E2E2"/>
<path d="M199.648 113.966H212.125C212.125 110.583 209.383 107.84 205.999 107.84H199.648V113.966Z" fill="#1D365C"/>
<path d="M172.56 129.719H177.453V107.843H172.56V129.719Z" fill="#FFFDFB"/>
<path d="M162.736 129.719H167.629V107.843H162.736V129.719Z" fill="#FFFDFB"/>
<path d="M152.916 129.719H157.809V107.843H152.916V129.719Z" fill="#FFFDFB"/>
<path d="M105.379 69.2655L114.553 101.71L130.718 108.978L119.443 69.1041L105.764 68.5312L105.379 69.2655Z" fill="white"/>
<path d="M138.047 134.091C138.047 135.457 139.155 136.565 140.521 136.565C141.888 136.565 142.995 135.458 142.995 134.091C142.995 132.725 141.888 131.617 140.521 131.617C139.155 131.617 138.047 132.724 138.047 134.091Z" fill="#1D365C"/>
<path d="M130.966 127.006C132.332 127.006 133.439 125.898 133.439 124.532C133.439 123.166 132.332 122.059 130.966 122.059C129.6 122.059 128.492 123.166 128.492 124.532C128.492 125.898 129.6 127.006 130.966 127.006Z" fill="#1D365C"/>
<path d="M131.988 174.378C133.872 169.204 134.827 163.763 134.827 158.174L134.826 158.029H131.441C131.419 152.759 130.473 147.708 128.749 143.032L131.923 141.862C130.017 136.687 127.236 131.918 123.657 127.688L121.069 129.877C117.774 125.983 113.816 122.675 109.366 120.12L111.055 117.177C106.254 114.421 101.056 112.547 95.6062 111.609L95.0314 114.954C92.5963 114.536 90.0972 114.304 87.5419 114.304C84.8972 114.304 82.3114 114.551 79.7946 114.999L79.1991 111.658C73.757 112.626 68.5708 114.53 63.7872 117.315L65.4939 120.246C61.0607 122.827 57.1176 126.156 53.8459 130.07L51.2474 127.897C47.6931 132.148 44.9391 136.936 43.062 142.128L46.2452 143.279C44.5601 147.939 43.6378 152.966 43.6378 158.208C43.6378 158.238 43.6398 158.268 43.6398 158.297L40.2578 158.304C40.2686 163.857 41.2332 169.294 43.127 174.465L46.3013 173.302C48.077 178.153 50.6903 182.597 53.9561 186.473L51.3635 188.656C54.9286 192.889 59.162 196.433 63.9456 199.193L65.6406 196.253C69.999 198.768 74.8269 200.552 79.9649 201.447L79.3832 204.791C82.0575 205.255 84.8027 205.492 87.5419 205.492C90.3117 205.492 93.0874 205.25 95.7893 204.774L95.2007 201.432C100.334 200.529 105.159 198.735 109.511 196.214L111.213 199.15C115.991 196.381 120.217 192.829 123.774 188.591L121.178 186.413C124.438 182.529 127.041 178.077 128.808 173.221L131.988 174.378Z" fill="#1D365C"/>
<path d="M112.826 177.784C123.636 163.828 121.086 143.752 107.131 132.942C93.1749 122.132 73.0983 124.682 62.2882 138.637C51.4781 152.593 54.0282 172.67 67.9838 183.48C81.9395 194.29 102.016 191.74 112.826 177.784Z" fill="#FFFDFB"/>
<path d="M87.5448 182.96C73.8986 182.96 62.7969 171.858 62.7969 158.212C62.7969 144.566 73.8986 133.465 87.5448 133.465C101.191 133.465 112.293 144.567 112.293 158.212C112.292 171.858 101.19 182.96 87.5448 182.96ZM87.5448 135.684C75.1231 135.684 65.0164 145.79 65.0164 158.212C65.0164 170.633 75.1221 180.74 87.5448 180.74C99.9665 180.74 110.072 170.633 110.072 158.212C110.072 145.79 99.9665 135.684 87.5448 135.684Z" fill="#1D365C"/>
<path d="M105.322 158.21C105.322 168.029 97.3621 175.99 87.5419 175.99C77.7226 175.99 69.7617 168.029 69.7617 158.21C69.7617 148.391 77.7217 140.43 87.5419 140.43C97.3621 140.431 105.322 148.391 105.322 158.21Z" fill="#1D365C"/>
<path d="M97.9326 158.21C97.9326 163.949 93.2809 168.601 87.5425 168.601C81.8041 168.601 77.1523 163.949 77.1523 158.21C77.1523 152.472 81.8041 147.82 87.5425 147.82C93.2809 147.82 97.9326 152.472 97.9326 158.21Z" fill="#FFFDFB"/>
</g>
<path d="M253.942 176.918C255.881 171.591 256.865 165.99 256.865 160.237L256.864 160.088H253.379C253.358 154.663 252.382 149.463 250.608 144.647L253.876 143.444C251.915 138.116 249.051 133.206 245.366 128.85L242.701 131.104C239.31 127.095 235.234 123.689 230.652 121.058L232.391 118.028C227.449 115.192 222.098 113.263 216.487 112.297L215.895 115.74C213.388 115.309 210.815 115.072 208.185 115.072C205.462 115.072 202.8 115.326 200.209 115.787L199.596 112.347C193.993 113.344 188.655 115.304 183.729 118.172L185.486 121.19C180.922 123.846 176.863 127.274 173.495 131.302L170.819 129.066C167.16 133.442 164.324 138.372 162.392 143.716L165.669 144.9C163.934 149.699 162.984 154.873 162.984 160.27C162.984 160.301 162.986 160.33 162.986 160.362L159.504 160.368C159.515 166.085 160.509 171.683 162.458 177.006L165.727 175.809C167.555 180.802 170.245 185.377 173.607 189.368L170.937 191.616C174.608 195.973 178.966 199.623 183.892 202.463L185.637 199.437C190.124 202.025 195.095 203.863 200.383 204.784L199.784 208.226C202.538 208.705 205.364 208.949 208.184 208.949C211.036 208.949 213.893 208.701 216.674 208.21L216.068 204.769C221.354 203.838 226.32 201.992 230.802 199.396L232.554 202.42C237.472 199.57 241.823 195.913 245.485 191.551L242.814 189.308C246.169 185.31 248.85 180.726 250.67 175.727L253.942 176.918Z" fill="#1D365C"/>
<path d="M237.528 172.288C244.168 156.071 236.405 137.543 220.188 130.903C203.972 124.263 185.443 132.027 178.804 148.243C172.164 164.459 179.927 182.988 196.144 189.628C212.36 196.267 230.889 188.504 237.528 172.288Z" fill="#FFFDFB"/>
<path d="M208.185 185.752C194.137 185.752 182.707 174.323 182.707 160.274C182.707 146.225 194.137 134.797 208.185 134.797C222.234 134.797 233.664 146.225 233.664 160.274C233.664 174.323 222.234 185.752 208.185 185.752ZM208.185 137.081C195.396 137.081 184.993 147.485 184.993 160.274C184.993 173.063 195.396 183.467 208.185 183.467C220.974 183.467 231.378 173.062 231.378 160.274C231.378 147.485 220.974 137.081 208.185 137.081Z" fill="#1D365C"/>
<path d="M226.492 160.274C226.492 170.383 218.297 178.578 208.188 178.578C198.078 178.578 189.883 170.383 189.883 160.274C189.883 150.164 198.078 141.969 208.188 141.969C218.297 141.969 226.492 150.164 226.492 160.274Z" fill="#1D365C"/>
<path d="M218.878 160.274C218.878 166.182 214.088 170.971 208.181 170.971C202.273 170.971 197.484 166.181 197.484 160.274C197.484 154.367 202.273 149.578 208.181 149.578C214.088 149.578 218.878 154.367 218.878 160.274Z" fill="#FFFDFB"/>
</svg>
