<svg width="256" height="196" viewBox="0 0 256 196" fill="none" xmlns="http://www.w3.org/2000/svg">
<path d="M250.951 127.165L206.674 134.972L245.61 112.492L231.072 87.3103L192.136 109.79L221.035 75.3493L198.762 56.6583L169.861 91.1004L185.239 48.8513L157.916 38.9072L142.538 81.1552V36.1953H113.462V81.1552L98.085 38.9072L70.7617 48.8513L86.1387 91.1004L57.2383 56.6583L34.9647 75.3493L63.8651 109.79L24.9277 87.3103L10.3897 112.492L49.3259 134.972L5.0497 127.165L0 155.799L44.2773 163.607H211.724L256 155.799L250.951 127.165Z" fill="url(#paint0_linear_22_19508)"/>
<path d="M171.512 104.921C168.216 93.2008 151.734 54.1545 151.405 31.0692C151.228 18.6399 162.612 5.85354 162.612 5.85354C162.612 5.85354 145.706 0 128.001 0C110.296 0 93.39 5.85354 93.39 5.85354C93.39 5.85354 104.775 18.6411 104.597 31.0692C104.267 54.1545 87.7859 93.2008 84.489 104.921C81.1943 116.635 80.8633 182.992 80.8633 183.056C95.0374 192.29 128.001 191.934 128.001 191.934C128.001 191.934 160.965 192.289 175.139 183.056C175.137 182.947 174.806 116.632 171.512 104.921Z" fill="url(#paint1_linear_22_19508)"/>
<path d="M242.598 144.878C242.598 144.878 218.202 141.16 184.191 141.16C150.181 141.16 125.785 144.878 125.785 144.878C125.755 144.999 129.215 177.374 161.184 187.903L163.795 193.782C163.795 193.782 168.226 195.52 184.191 195.52C200.157 195.52 204.588 193.782 204.588 193.782L207.199 187.903C239.168 177.374 242.627 144.998 242.598 144.878Z" fill="url(#paint2_linear_22_19508)"/>
<defs>
<linearGradient id="paint0_linear_22_19508" x1="128" y1="25.9042" x2="128" y2="196.224" gradientUnits="userSpaceOnUse">
<stop stop-color="#FF3358"/>
<stop offset="0.1433" stop-color="#F42F52"/>
<stop offset="0.396" stop-color="#D62341"/>
<stop offset="0.7258" stop-color="#A71127"/>
<stop offset="1" stop-color="#7A000E"/>
</linearGradient>
<linearGradient id="paint1_linear_22_19508" x1="50.5037" y1="95.9677" x2="166.726" y2="95.9677" gradientUnits="userSpaceOnUse">
<stop stop-color="#FFF3E3"/>
<stop offset="0.1641" stop-color="#FCEDDA"/>
<stop offset="0.4324" stop-color="#F5DEC1"/>
<stop offset="0.7699" stop-color="#EAC69A"/>
<stop offset="0.8298" stop-color="#E8C192"/>
</linearGradient>
<linearGradient id="paint2_linear_22_19508" x1="125.784" y1="168.34" x2="242.597" y2="168.34" gradientUnits="userSpaceOnUse">
<stop offset="0.1526" stop-color="#195275"/>
<stop offset="0.36" stop-color="#154868"/>
<stop offset="0.743" stop-color="#092F46"/>
<stop offset="1" stop-color="#001B2B"/>
</linearGradient>
</defs>
</svg>
