<svg width="222" height="256" viewBox="0 0 222 256" fill="none" xmlns="http://www.w3.org/2000/svg">
<path d="M109.014 256.001C168.897 256.001 217.442 250.781 217.442 244.342C217.442 237.903 168.897 232.684 109.014 232.684C49.1309 232.684 0.585938 237.903 0.585938 244.342C0.585938 250.781 49.1309 256.001 109.014 256.001Z" fill="#F2F2F2"/>
<path d="M98.0439 202.373C137.3 202.373 169.123 170.55 169.123 131.294C169.123 92.038 137.3 60.2148 98.0439 60.2148C58.788 60.2148 26.9648 92.038 26.9648 131.294C26.9648 170.55 58.788 202.373 98.0439 202.373Z" fill="url(#paint0_linear_22_19492)"/>
<path d="M171.909 38.3787H142.164L134.59 2.67176C134.59 2.67176 143.263 0 157.037 0C170.811 0 179.484 2.67176 179.484 2.67176L171.909 38.3787Z" fill="url(#paint1_linear_22_19492)"/>
<path d="M157.039 242.066C157.039 242.066 184.232 241.616 190.758 239.109C190.759 239.013 221.692 206.065 221.692 159.044C221.692 94.729 174.783 79.3601 173.082 55.7374C171.817 38.1554 190.128 24.5344 190.128 24.5344C190.102 24.5199 183.06 20.5234 157.039 20.5234C131.017 20.5234 123.976 24.5199 123.951 24.5344C123.951 24.5344 142.262 38.1554 140.996 55.7374C139.296 79.3588 92.3867 94.729 92.3867 159.044C92.3867 206.065 123.32 239.013 123.321 239.109C129.845 241.616 157.039 242.066 157.039 242.066Z" fill="url(#paint2_linear_22_19492)"/>
<path d="M182.26 217.587C182.26 217.587 162.185 213.859 98.0419 213.859C33.8986 213.859 13.8242 217.587 13.8242 217.587C13.8255 217.608 28.9282 236.13 72.7663 241.575L75.9996 246.166C75.9996 246.166 83.5838 247.409 98.0406 247.409C112.497 247.409 120.082 246.166 120.082 246.166L123.315 241.575C167.156 236.131 182.258 217.608 182.26 217.587Z" fill="url(#paint3_linear_22_19492)"/>
<defs>
<linearGradient id="paint0_linear_22_19492" x1="41.9885" y1="75.2392" x2="148.598" y2="181.849" gradientUnits="userSpaceOnUse">
<stop stop-color="#FF3358"/>
<stop offset="1" stop-color="#7A000E"/>
</linearGradient>
<linearGradient id="paint1_linear_22_19492" x1="136.675" y1="-3.62407" x2="175.4" y2="35.1008" gradientUnits="userSpaceOnUse">
<stop stop-color="#FF3358"/>
<stop offset="1" stop-color="#7A000E"/>
</linearGradient>
<linearGradient id="paint2_linear_22_19492" x1="236.263" y1="131.296" x2="74.2028" y2="131.296" gradientUnits="userSpaceOnUse">
<stop offset="0.2303" stop-color="#195275"/>
<stop offset="0.399" stop-color="#164A6B"/>
<stop offset="0.6873" stop-color="#0C3650"/>
<stop offset="1" stop-color="#001B2B"/>
</linearGradient>
<linearGradient id="paint3_linear_22_19492" x1="206.456" y1="230.634" x2="69.0995" y2="230.634" gradientUnits="userSpaceOnUse">
<stop stop-color="#FFF3E3"/>
<stop offset="1" stop-color="#E8C192"/>
</linearGradient>
</defs>
</svg>
