<svg width="218" height="257" viewBox="0 0 218 257" fill="none" xmlns="http://www.w3.org/2000/svg">
<path d="M109.002 82.6196C101.125 82.6196 93.6977 83.97 86.721 86.5581L95.8357 95.6728C99.9993 94.5475 104.5 93.9849 109.002 93.9849C138.709 93.9849 162.902 118.178 162.902 147.998C162.902 177.705 138.709 201.899 109.002 201.899C79.2943 201.899 55.1009 177.705 55.1009 147.998C55.1009 128.868 65.1157 112.102 80.0819 102.424L71.8675 94.3225C54.8758 106.025 43.7356 125.718 43.7356 147.998C43.7356 184.007 72.9927 213.264 109.002 213.264C145.01 213.264 174.38 184.007 174.38 147.998C174.38 111.877 145.01 82.6196 109.002 82.6196Z" fill="#D0B252"/>
<path d="M109.002 104.113L81.2072 76.206C77.4563 77.7064 73.8554 79.4693 70.4046 81.4948L109.002 120.204L124.418 104.675C120.142 103.213 115.641 102.312 111.027 102.087L109.002 104.113ZM62.9778 58.0891C61.1023 56.2137 59.527 54.1132 58.2517 51.7876C54.8759 53.588 51.6125 55.5385 48.4617 57.639C50.1871 60.7148 52.3252 63.528 54.8759 66.0786L58.7017 69.9045C62.0775 67.879 65.4534 65.8535 69.0543 64.1656L62.9778 58.0891Z" fill="#D0B252"/>
<path d="M175.955 62.3652C173.93 65.7411 171.567 68.8918 168.754 71.705L160.202 80.2571C180.682 95.7859 193.847 120.317 193.847 147.999C193.847 194.81 155.813 232.844 109.002 232.844C62.1901 232.844 24.1558 194.81 24.1558 147.999C24.1558 101.187 62.1901 63.0404 109.002 63.0404C121.042 63.0404 132.52 65.6285 142.985 70.1296L155.025 58.0892C156.901 56.1387 158.439 54.0382 159.639 51.7877C144.56 43.7982 127.344 39.1846 109.002 39.1846C90.7721 39.1846 73.4429 43.7982 58.3642 51.7877C54.9884 53.5881 51.725 55.5386 48.5742 57.6391C19.4296 77.1063 0.300049 110.302 0.300049 147.999C0.300049 207.863 49.0244 256.7 109.002 256.7C168.979 256.7 217.703 207.863 217.703 147.999C217.703 113.228 201.387 82.2826 175.955 62.3652Z" fill="#4B4F75"/>
<path d="M174.267 38.9595C174.267 49.1995 170.329 58.8769 163.127 66.0786L136.571 92.5226C132.857 90.7221 128.919 89.2593 124.98 88.134L142.985 70.1296L155.025 58.0892C156.901 56.1387 158.439 54.0382 159.639 51.7877C159.751 51.7877 159.751 51.7877 159.751 51.7877C165.153 41.5477 163.69 28.607 155.025 19.9424C144.56 9.47734 127.456 9.47734 116.991 19.9424L109.002 27.9318L101.125 19.9424C95.9483 14.8787 89.1967 12.0655 81.9949 12.0655C74.7932 12.0655 68.0415 14.8787 62.9778 19.9424C57.914 25.0061 55.1009 31.7578 55.1009 38.9595C55.1009 43.5731 56.2262 47.8492 58.3642 51.7877C54.9884 53.5881 51.725 55.5386 48.5742 57.6391C45.4234 52.0127 43.7356 45.5986 43.7356 38.9595C43.7356 28.7195 47.6741 19.1547 54.9884 11.9529C62.1901 4.63865 71.7549 0.700195 81.9949 0.700195C92.2349 0.700195 101.8 4.63867 109.002 11.8404C116.203 4.63867 125.768 0.700195 136.008 0.700195C146.248 0.700195 155.813 4.63865 163.127 11.9529C170.329 19.1547 174.267 28.7195 174.267 38.9595Z" fill="#D0B252"/>
</svg>
