<svg width="169" height="258" viewBox="0 0 169 258" fill="none" xmlns="http://www.w3.org/2000/svg">
<path d="M167.534 109.845C167.496 109.688 167.472 109.529 167.447 109.37C167.383 108.966 167.317 108.55 167.071 108.163C167.076 108.003 167.027 107.851 166.925 107.714C166.706 106.878 166.31 106.107 165.716 105.365C165.698 105.031 165.511 104.791 165.357 104.595L165.118 104.271C164.924 104.007 164.739 103.757 164.611 103.476C164.592 103.436 164.565 103.399 164.531 103.37C164.46 103.309 164.403 103.231 164.344 103.156C164.199 102.969 163.994 102.705 163.64 102.641L163.649 102.377C163.651 102.3 163.626 102.225 163.576 102.167L163.241 101.775C163.222 101.752 163.179 101.728 163.134 101.706C162.869 101.34 162.537 101.05 162.217 100.77C161.915 100.508 161.632 100.26 161.418 99.9662C161.028 99.4314 160.51 99.147 160.01 98.8711C159.754 98.7295 159.512 98.5977 159.293 98.4347C158.206 97.6252 156.994 97.0433 155.783 96.7493C155.622 96.6293 155.445 96.5687 155.286 96.5164C155.092 96.4505 154.968 96.4061 154.883 96.301C154.769 96.1635 154.632 96.1705 154.519 96.2202C154.409 96.0839 154.217 95.9143 153.944 95.9899L153.572 96.0088C153.073 95.5333 152.467 95.3096 151.879 95.0929C151.71 95.031 151.542 94.9677 151.376 94.9005C151.131 94.6957 150.849 94.6095 150.594 94.6689C150.448 94.6566 150.286 94.599 150.113 94.5124C150.002 94.4584 149.892 94.4061 149.777 94.3669C149.48 94.1446 149.039 93.8444 148.457 93.9763C148.421 93.9855 148.37 93.9815 148.362 93.9789C147.509 93.4414 146.565 93.2529 145.651 93.071C145.418 93.0239 145.185 92.9782 145.025 92.951C144.205 92.5375 143.325 92.3568 142.475 92.1819C142.154 92.116 141.834 92.0501 141.516 91.9719C141.344 91.8198 141.133 91.7389 140.888 91.7279C140.721 91.5878 140.515 91.5421 140.312 91.6106C139.986 91.3359 139.624 91.1325 139.272 90.9356L139.112 90.8455C137.624 90.0061 136.675 89.0591 136.135 87.8738C136.18 87.7055 136.218 87.4348 136.059 87.1654V86.7317C136.16 86.5796 136.174 86.4179 136.171 86.3168C136.32 85.891 136.338 85.4989 136.222 85.1219C136.254 84.9751 136.282 84.7839 136.198 84.5884C136.214 83.9217 136.216 83.2186 136.098 82.5233C136.175 82.2443 136.222 81.9023 136.055 81.5547C136.078 81.1724 135.916 80.8652 135.746 80.6037C135.73 80.4758 135.715 80.348 135.702 80.2196C135.614 79.4492 135.525 78.6516 135.1 77.9173C134.918 77.6022 134.742 77.2853 134.564 76.9689L134.41 76.7021C134.179 76.0702 133.754 75.2014 132.726 74.8568C132.715 74.8419 132.705 74.8269 132.694 74.8111C132.585 74.6577 132.412 74.4151 132.082 74.3883C132.005 74.3211 131.908 74.2508 131.784 74.2104C131.767 74.1928 131.747 74.1752 131.725 74.1607C131.639 74.0113 131.52 73.9278 131.415 73.8821C131.193 73.6988 130.938 73.5991 130.712 73.509C130.553 73.4457 130.402 73.3864 130.272 73.3042C129.976 73.1196 129.711 73.2194 129.509 73.3367C129.031 73.2018 128.488 73.1011 127.933 73.284C127.544 73.1939 127.21 73.3336 126.938 73.4523C126.737 73.5371 126.555 73.6074 126.397 73.603C126.139 73.5964 125.957 73.8012 125.802 73.9898C125.758 74.0438 125.715 74.0974 125.672 74.1405L125.425 74.3883C124.982 74.507 124.636 74.7615 124.282 75.0405C123.99 75.0229 123.802 75.2101 123.682 75.3248C123.665 75.3424 123.647 75.3587 123.63 75.3732C123.182 75.3314 123.037 75.7045 122.974 75.8513C122.967 75.8663 122.96 75.8821 122.953 75.8957C122.237 76.1423 121.393 76.4762 121.137 77.5121C121.125 77.5472 121.039 77.6294 120.987 77.6778C120.931 77.7305 120.876 77.7828 120.828 77.8408L120.057 78.7514C119.924 78.9105 119.878 79.0964 119.921 79.2823C119.903 79.3025 119.886 79.3214 119.867 79.3416C119.686 79.5367 119.467 79.774 119.399 80.119C119.393 80.1243 119.386 80.13 119.38 80.1339C119.277 80.2056 119.063 80.3537 119.056 80.6296C118.631 81.0379 118.276 81.5591 118.512 82.3203C118.531 82.3796 118.517 82.4886 118.505 82.5936C118.504 82.6125 118.501 82.6327 118.5 82.653C118.055 83.0182 118.058 83.5315 118.089 83.9437C118.043 84.0324 118.026 84.1296 118.039 84.2267C117.991 84.29 117.938 84.3533 117.885 84.4165C117.637 84.7158 117.38 85.0252 117.444 85.3689C117.494 85.6409 117.455 85.9129 117.413 86.1999C117.369 86.511 117.322 86.8332 117.381 87.1821C117.492 87.8545 117.445 88.5453 117.38 89.1922C117.316 89.804 117.245 90.4935 117.509 91.1615C117.471 91.5131 117.459 91.9912 117.644 92.4698C117.579 92.5827 117.55 92.6987 117.556 92.82C117.402 93.158 117.46 93.5016 117.727 93.8009C117.731 93.8224 117.735 93.8453 117.739 93.8668C117.76 93.9732 117.785 94.1107 117.862 94.2426C117.776 95.1694 118.001 96.0492 118.231 96.9515C118.292 97.194 118.365 97.4322 118.437 97.6709C118.568 98.0993 118.69 98.5045 118.754 98.9304L118.784 99.1633C118.828 99.5474 118.878 99.9798 119.17 100.352L119.967 102.682C120.012 103.007 120.168 103.271 120.303 103.504C120.379 103.632 120.45 103.753 120.5 103.876C120.456 104.276 120.58 104.626 120.689 104.937L120.695 104.959C120.602 105.142 120.505 105.386 120.585 105.647C120.228 105.88 119.816 106.019 119.425 106.142C119.278 106.207 119.13 106.268 118.982 106.33C118.361 106.59 117.72 106.857 117.167 107.316C116.899 107.356 116.688 107.502 116.514 107.62C116.364 107.724 116.235 107.813 116.117 107.813C116.111 107.812 116.109 107.812 116.103 107.813C115.247 107.813 114.935 108.423 114.769 108.807L114.338 109.156L114.18 109.228C114.156 109.239 114.133 109.254 114.112 109.271C113.363 109.894 112.872 110.505 112.576 111.187C112.141 111.483 112.108 111.849 112.181 112.086C112.177 112.086 112.175 112.086 112.171 112.086C111.824 112.086 111.539 112.283 111.392 112.638C111.374 112.683 111.351 112.715 111.318 112.743L111.037 110.611C110.989 110.386 111.052 110.148 111.119 109.896L111.172 109.688C111.289 109.188 111.38 108.469 110.901 107.818C110.944 107.669 110.929 107.527 110.918 107.421C110.891 107.14 110.857 106.861 110.825 106.58C110.7 105.511 110.581 104.499 110.717 103.463C110.782 102.973 110.7 102.472 110.48 102.012C110.307 101.651 110.249 101.281 110.283 100.772L110.304 100.52C110.344 100.039 110.387 99.5434 110.24 99.038C110.347 98.7027 110.281 98.3942 110.223 98.1165C110.197 97.9952 110.17 97.8739 110.162 97.7311C110.143 97.5693 110.084 97.4213 110.033 97.2894C109.912 96.9822 109.898 96.8948 110.051 96.7453C110.317 96.4896 110.098 95.9613 110.071 95.9007C110.009 95.7618 109.986 95.6045 109.962 95.437C109.958 95.4089 109.954 95.3804 109.948 95.3522C110.037 95.2283 110.152 95.0099 109.991 94.7866C109.789 94.5049 109.747 94.1591 109.702 93.7926C109.673 93.5662 109.644 93.3333 109.578 93.1C109.623 92.9668 109.617 92.8227 109.557 92.6825C109.393 92.3041 109.374 91.8796 109.355 91.4296C109.33 90.8209 109.303 90.1929 108.923 89.615C108.924 89.611 108.926 89.604 108.927 89.5961C108.942 89.5381 108.959 89.4656 108.962 89.3873C108.981 88.7378 108.817 88.1142 108.461 87.4827C108.457 87.4045 108.46 87.3249 108.462 87.2471C108.469 86.9953 108.479 86.7123 108.325 86.428L108.256 86.1612C108.299 85.8795 108.173 85.6589 108.077 85.5227C108.038 85.295 107.988 85.0445 107.863 84.802C107.862 84.7897 107.86 84.7791 107.858 84.7738C107.856 84.5207 107.74 84.3291 107.648 84.1744L107.638 84.1581C107.653 83.9977 107.603 83.8444 107.488 83.6989C107.45 83.4093 107.279 83.2111 107.137 83.0467C107.096 82.9984 107.054 82.9496 107.017 82.8986C106.989 82.8608 106.958 82.823 106.927 82.7852C106.895 82.7461 106.846 82.6881 106.841 82.6736C106.922 82.1643 106.732 81.7564 106.565 81.3952C106.51 81.2752 106.454 81.1553 106.409 81.0313C106.29 80.7066 106.074 80.4644 105.882 80.25C105.679 80.021 105.503 79.8241 105.445 79.5156C104.634 77.1785 102.817 75.7344 100.964 74.5259C100.73 74.2214 100.351 74.0798 99.8892 74.1058C99.4836 74.1396 99.1404 73.9695 98.7862 73.7784C98.4293 73.2343 98.0184 72.6401 97.1817 72.605L97.0564 72.4929C96.5756 71.9744 95.9423 71.8451 95.3833 71.7304C95.2555 71.705 95.1258 71.6777 94.998 71.6469C94.7567 71.5863 94.598 71.7102 94.497 71.8421L94.1775 71.7287C93.7235 71.3973 93.2344 71.4514 92.783 71.5213L92.7118 71.5011C92.4719 71.4294 92.126 71.3301 91.8065 71.563C91.7648 71.5604 91.727 71.5656 91.6892 71.574C90.9241 70.9706 89.9933 70.6498 88.9183 70.6203C87.9634 70.3268 86.9922 70.1312 86.0315 70.0425C85.9344 70.0346 85.8377 70.0332 85.7406 70.0332C85.4927 70.0332 85.3446 70.028 85.1978 69.9146C84.993 69.7586 84.8124 69.7542 84.6898 69.7801C84.5874 69.8016 84.5 69.8486 84.4244 69.9119C84.3123 69.7893 84.1321 69.6869 83.8517 69.7691C83.8003 69.7841 83.7533 69.8122 83.7168 69.85C83.5349 69.6236 83.2374 69.5858 83.077 69.5656C82.9921 69.5533 82.906 69.5428 82.8585 69.5213C82.8128 69.4997 82.7628 69.4905 82.7078 69.4931C82.6147 69.4905 82.492 69.4716 82.3668 69.4404C82.158 69.392 81.9062 69.3301 81.6368 69.4079C81.1679 68.9499 80.5944 69.0844 80.1334 69.1925C80.0635 69.2088 80.0055 69.2395 79.9528 69.28C79.6012 68.9741 79.2387 69.1873 79.0703 69.2866C79.0194 69.3173 78.9666 69.3485 78.9315 69.3608C78.891 69.3745 78.8506 69.3903 78.8128 69.4065C78.779 69.4202 78.7267 69.4457 78.6981 69.4294C78.43 69.1692 78.1013 69.1855 77.8521 69.2057C77.5612 68.9702 77.2312 69.0185 76.9983 69.0466C76.9376 69.0545 76.8757 69.0642 76.815 69.0668C76.6427 69.0128 76.4485 68.9723 76.2305 69.0238L75.8693 68.9807C75.3898 68.6845 74.9908 69.0682 74.8563 69.1991C74.5544 69.4848 74.347 69.5037 74.0305 69.2637C73.7383 69.0414 73.4891 69.0778 73.3678 69.1209C73.279 69.1517 73.1982 69.2044 73.1292 69.2743C72.833 69.1073 72.488 69.153 72.2551 69.1868L72.15 69.2004C71.6517 69.2611 71.1692 69.3973 70.702 69.5292L70.357 69.625C70.3074 69.6386 70.2102 69.6399 70.1171 69.6386C69.8582 69.6131 69.2777 69.6333 69.0905 70.2165C68.9841 70.2771 68.8439 70.2784 68.6326 70.2719L68.459 70.2692C67.8204 70.2745 67.3744 70.5478 67.0997 71.106C66.3711 71.5072 65.9021 72.1097 65.6679 72.9421C65.4552 73.7006 65.4187 74.4442 65.4091 75.0743C65.2557 75.7076 65.3431 76.3273 65.6758 76.9685C65.6785 77.3011 65.805 77.5789 65.9211 77.778C65.9246 77.8223 65.9518 77.8632 65.9711 77.9072C65.9716 77.9784 65.987 78.0443 66.0146 78.1089C66.0151 78.1607 66.0085 78.2135 66.0287 78.2614C66.0195 78.5092 66.1447 78.6938 66.2458 78.827C66.2366 78.9535 66.2647 79.1113 66.3873 79.2717C66.3979 79.3403 66.4317 79.4035 66.4818 79.451C66.6137 79.9911 66.8901 80.4934 67.3427 81.0203C67.7211 81.8769 68.2559 82.6341 68.7745 83.3684L69.134 83.8817C69.4021 84.2671 69.7027 84.5229 70.0512 84.6591C70.4484 85.2924 70.978 85.9687 71.8565 86.3348C72.0718 86.4236 72.2336 86.5247 72.3386 86.6328C72.6471 86.9531 72.9837 87.2498 73.3085 87.5368C73.955 88.1054 74.5654 88.6429 74.9653 89.3232L75.1767 89.8541C75.1402 90.1463 75.2035 90.417 75.2602 90.6596C75.3116 90.8749 75.356 91.0652 75.3318 91.2441C75.2764 91.3368 75.2536 91.4423 75.2659 91.5486C75.0976 91.8057 75.0637 92.0914 75.1688 92.3744C75.0584 92.7286 74.964 93.1303 75.0338 93.5614C74.9275 93.7702 74.9235 93.9872 74.9205 94.1661C74.9191 94.2804 74.9165 94.3828 74.891 94.4636C74.8128 94.5256 74.7592 94.6104 74.7333 94.7115C74.4344 95.3553 74.2199 96.0453 74.0745 96.8574L73.3727 99.1756C72.9525 100.007 72.8326 100.857 73.0158 101.704C72.9055 101.833 72.7759 102.029 72.8176 102.277C72.4524 102.654 72.3258 103.127 72.4405 103.687C71.7537 104.068 71.6728 104.291 71.7967 105.195C71.2092 105.879 71.1406 106.706 71.1744 107.51C70.9978 107.824 70.9833 108.146 70.9995 108.391C70.9323 108.552 70.916 108.73 70.9499 108.934C70.7842 109.527 70.931 110.073 71.1221 110.626C71.098 111.043 71.2338 111.399 71.3647 111.744C71.4495 111.964 71.5291 112.172 71.5599 112.385C71.7783 113.851 72.3131 115.164 73.1481 116.295C73.1375 116.622 73.3393 116.837 73.4794 116.989L73.6302 117.158C73.7836 117.722 74.1097 118.124 74.6027 118.354L74.8075 118.63C75.221 119.193 75.6495 119.777 76.296 120.181C76.3553 120.237 76.412 120.297 76.4683 120.356C76.7038 120.601 76.9693 120.877 77.3815 120.981C77.4975 121.084 77.6359 121.184 77.81 121.239C78.0956 121.63 78.4837 121.855 78.8581 122.074C78.924 122.114 78.9912 122.151 79.0563 122.192C79.3393 122.623 79.7339 122.887 80.1312 123.124L78.8418 123.389C78.71 123.376 78.5777 123.38 78.4459 123.378C78.3206 123.377 78.187 123.382 78.0525 123.365C77.4694 123.285 76.8778 123.299 76.3052 123.312L75.8622 123.32C75.6588 123.321 75.4957 123.407 75.3599 123.519C74.9288 123.358 74.5315 123.491 74.2015 123.599C74.1114 123.627 74.0222 123.657 73.9321 123.68C73.1762 123.49 72.4933 123.681 71.8292 123.87C71.6447 123.921 71.4614 123.973 71.2755 124.016C71.0936 124.06 70.9617 124.206 70.9173 124.394L70.6924 124.488C70.3192 124.378 69.9567 124.472 69.6846 124.542C69.3898 124.62 69.1015 124.723 68.8132 124.826L68.4954 124.937C68.0415 124.943 67.675 125.148 67.3506 125.33C67.1621 125.436 66.9841 125.536 66.8009 125.594C66.6646 125.578 66.5517 125.621 66.4533 125.695C66.3065 125.709 66.1702 125.791 66.0516 125.953C66.0164 126.019 65.9923 126.094 65.9681 126.169C65.9518 126.218 65.929 126.291 65.9211 126.303C65.2557 126.525 64.4796 126.844 63.7712 127.53C63.293 127.992 62.5991 128.31 61.8973 128.632C61.8367 128.66 61.787 128.707 61.7558 128.765C61.7057 128.856 61.6587 128.949 61.6116 129.043C61.5215 129.223 61.431 129.404 61.3154 129.565C60.9247 130.107 60.6729 130.71 60.5745 131.326C60.5543 131.401 60.5218 131.475 60.4897 131.548C60.3912 131.777 60.2594 132.084 60.4022 132.441L60.3539 133.066C60.2313 133.41 60.2286 133.735 60.3486 134.037C60.2691 134.433 60.3891 134.793 60.6989 135.087L60.7446 135.298C60.7081 135.472 60.7551 135.62 60.789 135.724L60.8131 135.803C61.0689 136.806 61.7479 137.452 62.4444 138.044C62.5358 138.151 62.6224 138.266 62.7072 138.38C62.9832 138.747 63.2675 139.125 63.7312 139.363C64.3051 139.659 64.883 139.95 65.4609 140.241L66.0793 140.55C66.5873 140.717 67.0602 140.951 67.5598 141.199C67.7699 141.303 67.98 141.408 68.1325 141.469C68.9178 142.087 69.8055 142.785 70.4076 143.723L70.4115 143.745C70.4225 143.803 70.4493 143.857 70.4898 143.898L70.502 143.912C70.6827 144.42 70.8198 144.955 70.9521 145.473C71.1314 146.179 71.3186 146.911 71.6231 147.614C71.9127 148.279 72.1325 148.998 72.3452 149.693C72.5043 150.215 72.6655 150.74 72.8558 151.253C73.5282 153.061 74.405 154.891 76.2912 156.087C76.3263 156.127 76.361 156.164 76.4001 156.196C76.9657 156.675 77.7431 157.25 78.7508 157.487C79.846 158.209 81.3129 159.066 83.0524 159.404C84.2231 160.552 85.4611 160.941 86.8322 160.599C86.9574 160.639 87.1042 160.669 87.2484 160.664C87.3372 160.711 87.4435 160.731 87.534 160.72C87.6685 160.774 87.8021 160.767 87.9221 160.709C87.9234 160.709 87.9247 160.709 87.9247 160.709C88.061 160.709 88.1928 160.673 88.3181 160.602C89.3205 160.589 90.2873 160.369 91.2154 160.12L91.3139 160.094C92.1867 159.861 93.4664 159.441 94.5093 158.484C94.6209 158.379 94.7193 158.251 94.8138 158.123C94.9175 157.983 95.0252 157.837 95.1236 157.801C95.8483 157.534 96.4908 157.126 97.1118 156.73C97.2397 156.648 97.3675 156.567 97.4972 156.486C97.4919 156.513 97.4866 156.541 97.4809 156.571C97.4379 156.788 97.3851 157.05 97.5064 157.317L97.4941 157.363C97.2137 157.609 97.1939 157.876 97.2397 158.077C97.1843 158.168 97.1346 158.28 97.128 158.415C96.9597 158.708 96.9421 159.022 96.9285 159.301C96.918 159.487 96.9083 159.663 96.8543 159.788C96.6332 160.289 96.4745 160.81 96.3194 161.314C96.1577 161.844 96.0043 162.343 95.7859 162.825C95.7011 162.929 95.6607 163.054 95.6716 163.182C95.6418 163.231 95.6097 163.277 95.5772 163.324C95.4546 163.5 95.3157 163.698 95.2752 163.966C94.9386 164.606 94.8402 165.29 94.7606 165.902C94.6648 166.061 94.5624 166.282 94.5651 166.549C94.5382 166.596 94.5084 166.643 94.4802 166.689C94.3471 166.904 94.1841 167.168 94.1959 167.511C94.0843 167.722 94.0368 167.947 93.9938 168.148C93.9546 168.336 93.9168 168.514 93.836 168.633C93.3442 169.348 93.0858 170.147 92.8349 170.918C92.653 171.478 92.482 172.008 92.2517 172.468C91.872 173.002 91.6198 173.595 91.3763 174.167C91.1298 174.745 90.8968 175.291 90.5466 175.776C90.4455 175.914 90.3998 176.106 90.4306 176.266C90.4631 176.433 90.3848 176.547 90.2323 176.752C90.1796 176.823 90.1273 176.895 90.0803 176.97C89.6545 177.655 89.1926 178.477 88.9729 179.411C88.9311 179.456 88.8718 179.504 88.8111 179.553C88.6156 179.713 88.3018 179.969 88.3651 180.426C88.3154 180.516 88.2952 180.617 88.3057 180.723L88.2359 180.89C87.9366 181.094 87.596 181.415 87.5863 181.958L86.8779 183.118C86.7715 183.223 86.7162 183.358 86.7149 183.499C86.5747 183.69 86.3971 183.945 86.4578 184.294L86.4499 184.32C85.8799 184.597 85.7885 185.155 85.7199 185.569C85.7076 185.643 85.6957 185.718 85.6944 185.744C85.6461 185.873 85.5248 185.993 85.3952 186.121C85.1526 186.362 84.8498 186.662 84.8981 187.221C84.9293 187.357 84.8687 187.445 84.6973 187.639C84.6164 187.733 84.5237 187.838 84.456 187.962C84.227 188.378 84.0249 188.811 83.8241 189.242C83.4386 190.066 83.0765 190.844 82.5241 191.525C82.2697 191.839 81.9677 192.269 81.8719 192.829C81.7168 193.08 81.5771 193.337 81.4382 193.596C81.1473 194.13 80.8739 194.637 80.4735 195.075C80.0196 195.57 79.7423 196.178 79.4725 196.765C79.385 196.959 79.2962 197.152 79.2017 197.341C79.0901 197.562 78.9416 197.761 78.7856 197.971C78.6322 198.177 78.4731 198.39 78.3426 198.635C78.1325 199.025 77.9383 199.423 77.7432 199.821C77.3538 200.616 76.9512 201.436 76.4379 202.166C75.9514 202.509 75.592 203.035 75.4236 203.656C75.3133 204.063 75.1314 204.446 74.8321 204.898C74.6933 205.108 74.5333 205.304 74.3729 205.499C74.0494 205.895 73.7154 206.303 73.5322 206.834C73.2531 207.15 72.9622 207.521 72.818 207.995C72.5447 208.056 72.372 208.248 72.2388 208.396C72.1931 208.448 72.1487 208.497 72.0986 208.542C71.8182 208.79 71.7189 209.105 71.631 209.382C71.573 209.567 71.5221 209.729 71.4276 209.851C71.2228 209.908 70.9507 209.988 70.8053 210.257C70.6317 210.58 70.3891 210.866 70.1316 211.168C69.7475 211.619 69.3515 212.083 69.1696 212.707C69.0646 212.729 68.9758 212.773 68.9002 212.841C68.7899 212.939 68.7235 213.072 68.7033 213.241C68.6589 213.282 68.5996 213.324 68.5376 213.367C68.3452 213.503 68.0876 213.685 68.0217 214.043L67.4047 214.711C67.014 214.888 66.9195 215.244 66.851 215.506C66.8387 215.551 66.8268 215.595 66.8132 215.64C66.7042 215.784 66.5789 215.916 66.455 216.049C66.2867 216.229 66.114 216.413 65.9685 216.627C65.9914 216.566 66.0155 216.505 66.0384 216.443C66.2972 215.766 66.5653 215.067 66.6203 214.297C67.0716 213.224 67.3331 212.249 67.4148 211.346C67.4227 211.306 67.4377 211.267 67.4513 211.228C67.4904 211.114 67.5427 210.964 67.5185 210.786L67.5348 210.673C67.555 210.546 67.5752 210.42 67.5805 210.29C67.6451 208.835 67.7141 207.115 67.7369 205.396C67.776 202.66 68.1399 199.898 68.4915 197.227C68.5724 196.61 68.6545 195.992 68.7314 195.375C68.865 195.169 68.8541 194.96 68.8202 194.812C68.8659 194.708 68.8743 194.586 68.8215 194.458C68.8352 194.401 68.851 194.343 68.8659 194.287C68.9455 193.993 69.0356 193.665 68.967 193.299C69.0615 193.04 69.0571 192.797 68.9534 192.569C68.9775 192.346 69.0127 192.125 69.0461 191.903C69.0918 191.616 69.1362 191.327 69.1604 191.034C69.2614 189.763 69.1942 188.493 69.1296 187.263L69.1107 186.905C69.0958 186.608 69.0971 186.307 69.0984 186.008C69.0997 185.527 69.1024 185.03 69.0351 184.538C68.9595 183.975 68.9099 183.409 68.8584 182.844C68.818 182.397 68.7776 181.951 68.7253 181.504C68.7912 181.309 68.8369 181.05 68.713 180.782C68.7253 180.662 68.7037 180.518 68.6079 180.369C68.6145 180.245 68.5891 180.101 68.4893 179.953C68.4568 179.332 68.3465 178.837 68.1606 178.459C68.0986 178.167 68.0542 177.87 68.0085 177.574C67.914 176.957 67.816 176.318 67.5774 175.725C66.9956 173.903 66.3706 172.483 65.6095 171.258L65.3133 170.776C64.6681 169.728 64.0023 168.645 63.1524 167.696C63.1388 167.643 63.1133 167.596 63.0782 167.554C63.0658 167.468 63.0417 167.359 62.9555 167.267C61.5694 165.777 60.4352 164.369 59.4895 162.964C57.9698 160.702 56.6105 158.931 55.2099 157.387C55.0267 157.184 54.8487 156.975 54.6725 156.765C54.1833 156.185 53.6784 155.585 53.0209 155.125C52.6492 154.562 52.1266 154.106 51.4274 153.732C51.1027 153.56 50.8574 153.442 50.5977 153.526C50.3204 153.612 50.1705 153.887 49.9741 154.268C49.884 154.365 49.8313 154.482 49.8234 154.61C49.8019 154.647 49.7856 154.686 49.7777 154.729L49.4367 155.3C49.3734 155.373 49.3263 155.451 49.3193 155.485L48.9176 156.105C48.6293 156.553 48.3411 157.002 48.0392 157.441L47.6217 158.057C47.1514 158.751 46.6667 159.468 46.1292 160.113C45.5421 160.816 44.7862 161.76 44.192 162.773C43.6924 163.325 43.3056 163.859 43.0108 164.402C42.8328 164.542 42.7132 164.716 42.6526 164.918C42.6232 164.951 42.5985 164.988 42.5783 165.028C42.29 165.28 42.1406 165.598 42.0501 165.846C42.022 165.875 41.9974 165.908 41.9789 165.943C41.7838 166.09 41.7271 166.269 41.7174 166.411C41.285 167.079 41.0046 167.682 40.8407 168.302C40.5185 169.52 40.5282 170.794 40.8675 172.197C40.8539 172.382 40.8367 172.57 40.8191 172.757C40.7748 173.221 40.7304 173.703 40.7519 174.182C40.7611 174.392 40.7383 174.604 40.7167 174.814C40.6737 175.23 40.6293 175.66 40.7813 176.106C40.7422 176.373 40.726 176.644 40.7115 176.913C40.6834 177.41 40.6561 177.879 40.4715 178.326L40.3867 178.53C40.1402 179.118 39.8857 179.727 39.8479 180.348C39.2889 182.321 39.5812 184.072 40.7141 185.558C40.7304 185.613 40.7559 185.664 40.7897 185.711C41.0376 186.286 41.4335 186.735 41.8176 187.17C42.0277 187.407 42.2259 187.632 42.3995 187.875L42.4074 187.904C42.4236 187.957 42.4518 188.004 42.4909 188.042L43.6805 190.605L44.1789 192.565C44.1209 192.792 44.218 192.98 44.2962 193.092C44.3041 193.202 44.3028 193.314 44.3015 193.426C44.2975 193.759 44.2936 194.13 44.5115 194.486L44.6662 196.212L44.6298 196.59C44.6003 196.916 44.5704 197.244 44.534 197.571C44.3749 199.012 44.3169 200.295 44.356 201.453C44.1877 203.421 44.3441 205.127 44.8249 206.635C44.9945 207.527 45.2358 208.29 45.5606 208.966C45.5553 209.082 45.5768 209.222 45.6669 209.367C45.7152 210.759 46.6772 211.435 47.4384 211.825C47.608 212.05 47.8278 212.2 48.0242 212.334C48.1697 212.432 48.3072 212.526 48.4162 212.641C48.8003 213.052 49.2191 213.434 49.6234 213.804C49.9038 214.06 50.1851 214.318 50.4558 214.584L51.093 215.209C52.3675 216.453 53.685 217.738 54.7327 219.214C54.7353 219.455 54.8676 219.632 54.959 219.754C54.9656 219.764 54.9739 219.773 54.9805 219.782C55.021 220.536 55.1475 221.278 55.2701 221.997C55.3549 222.491 55.4398 222.984 55.4965 223.485C55.5057 223.561 55.5382 223.617 55.5721 223.659C55.587 223.909 55.4995 224.132 55.2824 224.406C55.2231 224.483 55.1519 224.551 55.0803 224.62C54.9186 224.776 54.7366 224.952 54.6386 225.214L53.5246 226.25C52.7432 226.976 51.9631 227.702 51.1778 228.424C50.5217 229.024 49.8616 229.62 49.2002 230.215L48.225 231.098L48.073 231.207C47.9504 231.293 47.8278 231.38 47.7148 231.482C46.156 232.876 44.4737 234.181 42.8829 235.399C41.9828 236.088 41.0173 236.73 40.0822 237.351C39.6001 237.671 39.1188 237.99 38.6433 238.317C38.4724 238.434 38.297 238.546 38.1235 238.659C37.6805 238.944 37.2221 239.239 36.8195 239.62C36.5871 239.672 36.3889 239.753 36.21 239.854C35.8883 239.952 35.5675 240.054 35.2502 240.156C34.7624 240.312 34.2764 240.469 33.7995 240.606C32.7286 240.912 31.7046 241.25 30.9382 242.009C30.8362 242.109 30.7725 242.222 30.6885 242.328C30.155 242.375 29.6523 242.571 29.1074 242.938C28.8758 243.038 28.6411 243.132 28.4055 243.225C27.6659 243.52 26.9021 243.824 26.2244 244.323C26.1221 244.312 25.9805 244.303 25.8421 244.368C25.2277 244.673 24.5729 244.93 23.9388 245.178C23.233 245.455 22.5026 245.741 21.8091 246.1C21.5951 246.112 21.4698 246.172 21.3661 246.229C21.3551 246.235 21.3446 246.241 21.3336 246.246C21.2097 246.217 21.0858 246.237 20.9741 246.303L20.7439 246.331C20.5039 246.259 20.3127 246.365 20.1998 246.45C19.9344 246.475 19.6962 246.56 19.4654 246.642C19.2541 246.717 19.0532 246.788 18.8537 246.803C18.525 246.64 18.2354 246.782 18.0561 246.87C18.0359 246.879 18.017 246.89 17.9967 246.899C17.4553 246.786 16.9662 246.951 16.5201 247.152C16.1725 247.156 15.8776 247.198 15.6096 247.28C15.3538 247.167 15.0976 247.202 14.9038 247.231C14.8242 247.241 14.7473 247.252 14.6801 247.254C14.2973 247.053 13.9176 247.135 13.6144 247.204C13.5471 247.219 13.4795 247.233 13.4403 247.242C13.0497 247.278 12.6792 247.207 12.278 247.135C11.9734 247.081 11.6596 247.025 11.3336 247.013C11.1085 246.875 10.8769 246.931 10.7179 246.983C10.3623 246.953 10.0239 247.005 9.75191 247.063C9.46362 246.964 9.18059 246.983 8.9301 247.001C8.85319 247.006 8.77805 247.01 8.70378 247.013C8.29288 247.02 7.88329 247.067 7.67323 247.358C7.47107 247.637 7.52908 248.012 7.6785 248.486C7.70267 248.564 7.73255 248.642 7.762 248.72L7.79979 248.822C7.8121 248.855 7.82792 248.884 7.84945 248.911L8.61721 249.869C8.64006 249.899 8.66994 249.925 8.70202 249.944C8.82199 250.013 8.93625 250.096 9.05227 250.178C9.37001 250.405 9.72861 250.661 10.2107 250.699C10.9178 251.036 11.6451 250.975 12.4199 250.917C12.7258 250.893 12.9451 250.948 13.247 251.13C13.9677 251.366 14.6599 251.266 15.3349 251.168L15.6676 251.121C15.6715 251.12 15.6755 251.118 15.6786 251.118C15.6812 251.118 15.6838 251.118 15.6865 251.117L16.2604 251.011C16.5984 251.029 16.9178 251.009 17.2329 250.989C17.7542 250.958 18.2459 250.926 18.7324 251.074C19.5002 251.312 20.2521 251.409 20.9741 251.409C22.5545 251.409 23.9915 250.947 25.1328 250.495C25.382 250.454 25.6421 250.462 25.9234 250.469C26.3492 250.481 26.8001 250.495 27.2058 250.336C27.2207 250.337 27.2691 250.355 27.3121 250.383C27.8131 250.709 28.3238 250.572 28.6591 250.484C29.4391 250.275 30.4495 249.96 31.3627 249.361C31.7006 249.252 32.1146 249.08 32.4552 248.736C32.8525 248.647 33.1206 248.396 33.3605 248.172C33.4348 248.103 33.5073 248.033 33.5855 247.969C33.8575 247.961 34.072 247.852 34.257 247.724C35.3632 248.131 36.4974 248.506 37.677 248.808C38.1727 248.935 38.6794 249.04 39.1856 249.144C39.5249 249.214 39.8659 249.284 40.2026 249.361C40.5137 249.432 40.8626 249.468 41.1993 249.502C41.575 249.541 41.9644 249.582 42.2624 249.669C43.3052 249.976 44.2791 250.126 45.2085 250.078C45.2476 250.082 45.2841 250.09 45.3202 250.098C45.3914 250.113 45.4766 250.132 45.5777 250.132C45.6357 250.132 45.699 250.125 45.7662 250.109L45.8796 250.111C46.0062 250.115 46.1354 250.118 46.3134 250.105C47.0231 250.048 47.7346 249.991 48.4443 249.929C49.3953 249.846 50.3477 249.758 51.3044 249.657C54.1442 249.355 56.9392 249.362 59.6499 249.371C60.259 249.372 60.8689 249.376 61.482 249.372C61.6815 249.473 61.8955 249.438 62.0463 249.387C62.1408 249.42 62.2603 249.42 62.4071 249.344C62.469 249.351 62.531 249.359 62.593 249.368C62.88 249.406 63.2008 249.449 63.5857 249.341C63.8336 249.401 64.0854 249.368 64.3306 249.239C64.5649 249.234 64.7885 249.24 65.0162 249.246C65.3058 249.252 65.5954 249.259 65.8973 249.247C67.1784 249.189 68.4959 248.972 69.7717 248.762L70.176 248.695C70.4884 248.643 70.7983 248.608 71.1081 248.573C71.6051 248.515 72.1184 248.457 72.6357 248.335C73.2417 248.19 73.8455 248.071 74.4489 247.952C74.9152 247.859 75.3823 247.768 75.8512 247.664C76.1167 247.717 76.3553 247.683 76.583 247.564C76.5843 247.564 76.5843 247.564 76.5856 247.564C76.7728 247.564 76.9266 247.482 77.0273 247.412C77.1767 247.41 77.3261 247.355 77.4716 247.253C78.1206 247.149 78.6528 246.985 79.0989 246.756C79.4153 246.66 79.7322 246.581 80.0486 246.5C80.7021 246.336 81.3767 246.166 82.0341 245.867C84.0223 245.097 85.6079 244.331 87.0251 243.458L87.5815 243.118C88.7993 242.372 90.0588 241.601 91.2093 240.673C91.2726 240.655 91.3293 240.623 91.3776 240.579C91.4611 240.56 91.5688 240.534 91.6646 240.455C93.4967 238.941 95.186 237.685 96.8279 236.612C99.4616 234.894 101.563 233.383 103.441 231.861C103.688 231.66 103.942 231.465 104.196 231.27C104.893 230.734 105.614 230.177 106.215 229.498C106.863 229.085 107.43 228.542 107.949 227.838C108.182 227.523 108.382 227.25 108.3 226.964C108.223 226.697 107.958 226.582 107.617 226.447C107.543 226.386 107.431 226.33 107.26 226.337C107.235 226.329 107.208 226.323 107.178 226.319L106.66 226.065C106.595 226.015 106.528 225.98 106.455 225.956L105.888 225.647C105.493 225.434 105.099 225.221 104.716 224.995L104.165 224.675C103.541 224.314 102.897 223.94 102.342 223.511C101.734 223.039 100.913 222.44 99.9472 221.97C99.488 221.575 99.0217 221.277 98.5247 221.063C98.4034 220.908 98.2403 220.81 98.0426 220.775C98.0171 220.755 97.9885 220.738 97.9578 220.726C97.7424 220.481 97.4458 220.374 97.2045 220.316C97.1843 220.299 97.1628 220.284 97.1399 220.274C97.0296 220.126 96.8393 220.047 96.6723 220.064C96.0663 219.734 95.4937 219.541 94.8806 219.462C93.6804 219.301 92.3655 219.466 90.8542 219.964C90.667 219.973 90.4798 219.98 90.2939 219.985C89.8157 220.002 89.3214 220.018 88.816 220.097C88.5949 220.131 88.3809 220.135 88.1656 220.14C87.7424 220.151 87.3059 220.162 86.8239 220.363C86.5584 220.353 86.2728 220.375 85.9915 220.393C85.4835 220.43 85.0053 220.461 84.5799 220.339L84.3901 220.285C83.8258 220.121 83.2356 219.951 82.605 219.993C80.6502 219.702 78.8493 220.175 77.0888 221.442C77.0229 221.464 76.9701 221.492 76.9526 221.515C76.3087 221.813 75.7603 222.248 75.2307 222.67C74.9319 222.907 74.6352 223.144 74.3847 223.322L74.2973 223.354C74.2608 223.368 74.2274 223.388 74.1989 223.414L71.2447 224.9L69.0988 225.622C68.8646 225.588 68.6814 225.703 68.5601 225.789C68.4322 225.815 68.3056 225.829 68.1777 225.843C67.8411 225.879 67.4596 225.921 67.0703 226.167L65.2192 226.533L64.7222 226.549C64.426 226.56 64.1307 226.569 63.8371 226.574C63.0742 226.588 62.3535 226.625 61.6609 226.68C62.0784 226.324 62.5046 225.971 62.9371 225.612C63.682 224.995 64.451 224.357 65.1906 223.688C66.4783 222.521 67.6802 221.104 68.8413 219.732C69.3827 219.094 69.9202 218.461 70.5091 217.806C70.6049 217.702 70.7288 217.568 70.7908 217.38C70.8325 217.344 70.8664 217.301 70.8905 217.251C71.0575 217.121 71.25 216.926 71.3432 216.639L71.3836 216.599C71.5225 216.514 71.7651 216.348 71.8416 216.041L71.8468 216.037C71.918 215.971 71.9883 215.905 72.049 215.829L72.7802 214.882C73.5752 213.855 74.3698 212.83 75.142 211.786C75.2523 211.639 75.3643 211.492 75.476 211.346C75.6671 211.095 75.8587 210.845 76.0376 210.587L76.3136 210.194C76.6664 209.693 77.0207 209.19 77.3494 208.673C77.8385 207.905 78.1888 207.238 78.4336 206.612L78.5966 206.318C78.7421 206.058 78.8862 205.8 79.0238 205.535L79.2501 205.106C79.7673 204.119 80.3035 203.101 80.7144 202.041C81.5322 200.602 82.3795 199.115 83.4531 197.821C83.5476 197.707 83.5933 197.58 83.6351 197.469L83.6456 197.414C85.1438 195.314 86.5865 193.046 87.9348 190.671C88.0856 190.408 88.2622 190.167 88.4508 189.911C88.6635 189.623 88.8832 189.324 89.0594 188.989C89.1539 188.905 89.2049 188.795 89.2088 188.677C89.4875 188.39 89.6602 188.087 89.7327 187.754C89.7758 187.714 89.8228 187.677 89.8702 187.639C90.0399 187.505 90.2504 187.339 90.3392 187.047C90.5035 186.796 90.6745 186.551 90.8454 186.306C91.2875 185.674 91.7441 185.021 92.0834 184.292C92.3743 184.045 92.6718 183.74 92.7501 183.28C93.2229 182.586 93.538 181.817 93.84 181.069C94.1594 180.564 94.3682 180.015 94.5717 179.485L94.6631 179.237C94.7589 179.057 94.86 178.878 94.9593 178.698C95.1882 178.29 95.4255 177.869 95.5978 177.417C96.3805 175.375 96.9233 173.671 97.31 172.052C97.3421 171.917 97.3895 171.785 97.4365 171.653C97.5363 171.369 97.6493 171.051 97.6348 170.693C98.5321 169.117 98.9373 167.37 99.3293 165.681L99.4493 165.162C99.6 164.52 99.7121 163.862 99.8198 163.227C99.9503 162.453 100.085 161.653 100.293 160.888C100.49 160.155 100.667 159.417 100.844 158.68L101.075 157.722C101.493 156.996 101.717 156.294 101.76 155.578C101.766 155.455 101.812 155.319 101.861 155.173C101.884 155.106 101.906 155.037 101.925 154.971L102.146 154.233C102.316 153.67 102.486 153.108 102.634 152.54C102.792 151.935 102.978 151.35 103.205 150.753C103.394 150.256 103.444 149.739 103.494 149.239C103.53 148.862 103.565 148.505 103.654 148.167C103.753 147.821 103.875 147.481 103.996 147.142C104.228 146.491 104.468 145.82 104.558 145.062C104.559 144.983 104.596 144.885 104.636 144.781C104.704 144.605 104.791 144.374 104.736 144.109C104.801 143.957 104.824 143.807 104.806 143.662C104.995 143.376 105.017 143.066 105.04 142.789C105.048 142.671 105.056 142.553 105.063 142.499C105.257 142.064 105.35 141.685 105.354 141.315C105.368 141.277 105.384 141.238 105.4 141.2C105.47 141.032 105.563 140.81 105.509 140.547C105.669 140.17 105.804 139.728 105.74 139.232C105.77 139.158 105.783 139.081 105.778 139.002C105.812 138.948 105.836 138.892 105.852 138.831C105.866 138.855 105.879 138.881 105.894 138.908C105.92 138.955 105.946 139.002 105.971 139.048C105.797 139.411 105.957 139.752 106.058 139.97C106.092 140.041 106.127 140.111 106.146 140.181C106.429 141.168 106.876 142.094 107.307 142.99C107.426 143.236 107.544 143.483 107.66 143.731C107.951 144.355 108.332 144.939 108.7 145.505C108.837 145.715 108.974 145.926 109.107 146.138C109.184 146.262 109.299 146.332 109.384 146.384L109.425 146.41C109.569 146.595 109.716 146.776 109.861 146.96C110.496 147.75 111.094 148.498 111.53 149.38C111.743 149.809 112.057 150.194 112.39 150.438C112.607 150.595 112.768 150.827 112.938 151.072C113.163 151.397 113.415 151.759 113.836 151.978C114.149 152.601 114.573 153.148 114.984 153.677C115.481 154.32 115.951 154.925 116.219 155.593L116.25 155.8C116.273 155.974 116.298 156.148 116.349 156.314C116.77 157.688 117.174 159.174 117.288 160.735C117.199 161.002 117.269 161.238 117.327 161.433C117.362 161.553 117.393 161.658 117.38 161.744C117.294 162.296 117.422 162.854 117.769 163.442L117.777 163.535C117.707 163.717 117.719 163.896 117.808 164.047C117.795 164.178 117.822 164.338 117.954 164.5C118.075 165.145 118.207 165.728 118.506 166.278C118.637 166.969 118.832 167.676 119.525 168.138L119.642 168.297C119.779 168.794 120.197 168.93 120.477 169.022C120.614 169.066 120.741 169.108 120.782 169.138C120.899 169.275 121.05 169.359 121.227 169.384C121.244 169.406 121.26 169.429 121.278 169.452C121.419 169.64 121.656 169.98 122.135 169.896C122.81 170.335 123.475 170.528 124.196 170.489C124.879 170.908 125.653 171.006 126.553 170.802C126.647 170.78 126.715 170.729 126.768 170.665C126.923 170.788 127.128 170.916 127.465 170.846C127.786 170.78 128.073 170.796 128.317 170.889C128.495 171.074 128.746 171.14 129.037 171.079C129.13 171.059 129.224 171.042 129.317 171.026C129.665 170.964 130.061 170.894 130.442 170.628C130.509 170.582 130.661 170.616 130.825 170.65C131.07 170.703 131.396 170.772 131.706 170.621C131.912 170.643 132.096 170.603 132.273 170.549C132.687 170.68 133.015 170.493 133.259 170.349C133.387 170.276 133.507 170.206 133.584 170.194C133.689 170.19 133.794 170.191 133.899 170.197C134.238 170.203 134.615 170.217 134.971 170.019C135.382 170.244 135.828 170.167 136.106 170.116C136.685 170.016 137.26 170.027 137.873 170.035C138.184 170.04 138.494 170.045 138.801 170.035C138.916 170.079 139.036 170.079 139.15 170.04C139.278 170.062 139.412 170.103 139.552 170.148C139.806 170.23 140.091 170.321 140.421 170.291C140.841 170.428 141.272 170.475 141.636 170.441C141.911 170.486 142.187 170.518 142.464 170.549C142.715 170.578 142.967 170.608 143.216 170.647C143.379 170.673 143.542 170.712 143.705 170.751C144.151 170.857 144.652 170.977 145.18 170.841L145.394 170.869C145.395 170.869 145.396 170.869 145.398 170.871L145.65 170.903C145.995 170.948 146.339 170.993 146.683 171.042C147.126 171.108 147.44 170.954 147.616 170.625L147.98 170.798C148.089 170.905 148.223 170.952 148.383 170.935C148.845 171.115 149.306 171.094 149.749 171.068C149.883 171.062 150.016 171.055 150.16 171.053C150.28 171.052 150.402 171.053 150.528 171.052C150.809 171.059 151.088 171.059 151.38 170.999C151.488 171.032 151.605 171.028 151.716 170.979C151.749 170.977 151.783 170.968 151.815 170.956C151.876 170.964 151.937 170.962 151.995 170.955C152.173 171.06 152.357 171.113 152.518 171.153C153.324 171.358 154.135 171.344 154.919 171.334C155.533 171.322 156.112 171.315 156.693 171.401C156.809 171.419 156.902 171.378 156.97 171.331L157.075 171.344C157.253 171.403 157.435 171.418 157.613 171.385C157.807 171.439 157.988 171.373 158.101 171.315C158.491 171.311 158.866 171.24 159.228 171.17C159.504 171.117 159.767 171.066 160.031 171.046C160.83 171.261 161.424 170.83 161.906 170.487C162.806 169.855 163.793 168.934 163.544 167.369C163.664 167.169 163.645 166.99 163.62 166.893C163.401 166.077 163.181 165.262 162.961 164.448L162.82 163.925C162.818 163.828 162.787 163.738 162.728 163.663L162.352 162.689C162.309 162.313 162.103 162.045 161.921 161.808L161.835 161.693C161.752 161.472 161.686 161.245 161.621 161.018C161.505 160.617 161.386 160.202 161.168 159.811C161.168 159.593 161.062 159.422 160.946 159.264C160.936 159.201 160.908 159.141 160.867 159.092L160.797 158.845C160.818 158.745 160.81 158.644 160.771 158.545C160.791 158.337 160.714 158.167 160.656 158.038C160.619 157.953 160.587 157.881 160.585 157.864C160.641 157.554 160.611 157.258 160.497 156.986L160.502 156.896C160.704 156.548 160.759 156.181 160.812 155.825L160.825 155.694C160.891 155.51 160.89 155.322 160.821 155.15C160.842 155.005 160.911 154.86 160.991 154.697C161.104 154.467 161.231 154.207 161.23 153.888C161.23 153.84 161.203 153.804 161.18 153.761C161.192 153.741 161.243 153.698 161.278 153.67C161.32 153.635 161.361 153.601 161.394 153.566C161.684 153.274 161.804 152.939 161.753 152.566C162.049 152.358 162.31 152.116 162.444 151.719C162.488 151.586 162.579 151.441 162.692 151.321C163.47 150.499 163.574 149.497 163.649 148.52C163.829 148.308 163.842 148.059 163.842 147.833C164.086 147.263 164.017 146.712 163.949 146.18C163.933 146.05 163.917 145.919 163.906 145.788C163.878 145.477 163.742 145.219 163.622 144.992C163.469 144.698 163.375 144.505 163.421 144.298C163.587 143.759 163.289 143.344 163.141 143.139L162.399 141.939C162.374 141.876 162.338 141.819 162.292 141.771C162.213 141.489 162.009 141.183 161.519 141.066C161.633 140.747 161.477 140.504 161.346 140.342C161.297 140.094 161.1 139.978 160.998 139.917C160.972 139.902 160.94 139.885 160.955 139.912C160.812 139.659 160.598 139.513 160.409 139.385C160.351 139.346 160.295 139.307 160.239 139.265C159.908 138.808 159.481 138.473 159.028 138.3C158.709 138.075 158.205 137.788 157.583 137.892C157.573 137.894 157.565 137.895 157.556 137.896C157.537 137.879 157.517 137.862 157.495 137.845C157.475 137.745 157.407 137.658 157.306 137.617C156.961 137.483 156.628 137.321 156.294 137.16C155.747 136.896 155.181 136.624 154.565 136.459C154.436 136.341 154.291 136.27 154.16 136.206C154.035 136.144 153.927 136.091 153.858 136.012C153.78 135.92 153.509 135.664 153.066 135.857C153.059 135.846 153.052 135.835 153.046 135.826C152.981 135.72 152.865 135.534 152.634 135.481C152.337 135.28 151.953 135.049 151.509 134.914C151.319 134.663 151.051 134.523 150.722 134.502C150.707 134.492 150.691 134.483 150.674 134.475L150.548 134.303C150.583 134.224 150.605 134.13 150.583 134.024C150.55 133.858 150.427 133.733 150.224 133.654C150.134 133.617 150.046 133.574 149.96 133.531L149.81 133.462C149.699 133.427 149.545 133.388 149.4 133.417C149.335 133.327 149.25 133.236 149.128 133.173C149.048 133.131 148.958 133.127 148.872 133.158C148.454 133.321 148.154 133.376 147.846 133.173C147.552 132.972 147.274 133.085 147.079 133.212C146.964 133.171 146.848 133.135 146.732 133.098C146.153 132.917 145.652 132.759 145.34 132.253C145.208 132.044 144.948 131.902 144.677 131.89C144.556 131.84 144.433 131.767 144.305 131.69C144.042 131.533 143.748 131.356 143.369 131.341C143.092 131.177 142.779 131.006 142.395 130.971L142.153 130.878C141.854 130.582 141.509 130.452 141.121 130.456C140.908 130.256 140.645 130.067 140.29 130.009C140.286 130.005 140.282 130.001 140.276 129.997C140.19 129.924 140.071 129.824 139.902 129.815C139.413 129.789 138.983 129.568 138.529 129.335C138.337 129.236 138.145 129.137 137.949 129.052C137.882 129 137.792 128.955 137.677 128.946C137.469 128.736 137.207 128.659 136.99 128.596C136.942 128.582 136.894 128.568 136.848 128.553C136.521 128.341 136.169 128.238 135.829 128.136C135.733 128.108 135.636 128.08 135.542 128.049C135.247 127.802 134.902 127.793 134.622 127.785C134.481 127.781 134.352 127.777 134.245 127.746C134.234 127.69 134.209 127.641 134.172 127.595C134.118 127.528 134.043 127.481 133.849 127.462C133.579 127.391 133.376 127.481 133.23 127.733L133.132 127.641C132.749 127.286 132.356 126.919 131.795 126.75C131.689 126.65 131.559 126.588 131.41 126.565C131.38 126.542 131.348 126.523 131.314 126.508C131.216 126.411 131.087 126.363 130.96 126.374C130.604 126.205 130.21 126.147 129.784 126.194C129.674 126.083 129.522 125.962 129.304 125.937C128.571 125.526 127.893 125.254 127.258 125.114C126.742 124.939 126.061 124.757 125.309 124.847C125.088 124.679 124.847 124.575 124.614 124.474C124.547 124.446 124.48 124.418 124.415 124.388C124.358 124.343 124.295 124.31 124.229 124.291C124.299 124.198 124.347 124.08 124.316 123.941C124.251 123.65 123.912 123.592 123.785 123.572C123.708 123.558 123.632 123.541 123.555 123.525L123.392 123.49C123.35 123.482 123.3 123.483 123.257 123.495C123.249 123.49 123.239 123.484 123.23 123.479C123.145 123.435 122.894 123.301 122.654 123.422C122.474 123.516 122.421 123.69 122.397 123.837L122.292 123.856C122.135 123.829 121.995 123.872 121.878 123.901C121.681 123.955 121.677 123.947 121.622 123.876C121.451 123.662 121.065 123.605 120.782 123.682C120.662 123.671 120.528 123.632 120.386 123.592C120.044 123.492 119.613 123.37 119.205 123.651C118.887 123.875 118.516 123.944 118.122 124.018C117.875 124.063 117.623 124.111 117.373 124.197C116.995 124.053 116.654 124.169 116.375 124.266C116.604 124.152 116.83 124.02 117.047 123.864C117.446 123.577 117.837 123.311 118.234 123.198C118.845 123.024 119.427 122.778 119.99 122.539C120.476 122.332 120.98 122.119 121.489 121.96C122.028 121.793 122.541 121.549 123.035 121.313C123.232 121.219 123.429 121.126 123.627 121.037C124.157 121.018 124.665 120.909 125.159 120.804C125.466 120.737 125.774 120.671 126.084 120.628C126.372 120.589 126.661 120.531 126.948 120.473C127.637 120.334 128.288 120.202 128.953 120.329C129.185 120.54 129.473 120.492 129.634 120.465C129.837 120.43 130.038 120.39 130.24 120.349C130.799 120.239 131.328 120.134 131.872 120.127C131.872 120.127 131.873 120.127 131.874 120.127C131.907 120.133 131.954 120.155 132.004 120.178C132.157 120.245 132.423 120.366 132.71 120.207C132.851 120.259 133.043 120.319 133.221 120.219C133.58 120.017 133.98 120.04 134.402 120.07C134.624 120.084 134.842 120.096 134.996 120.081C135.53 120.162 135.966 120.082 136.323 119.845C136.436 119.907 136.556 119.934 136.662 119.914L139.515 120.209C139.611 120.303 139.748 120.406 139.945 120.41C140.385 120.589 140.842 120.684 141.284 120.776C141.499 120.821 141.715 120.865 141.928 120.92C142.046 121.042 142.192 121.109 142.354 121.117C142.453 121.181 142.566 121.206 142.68 121.187C142.879 121.25 143.058 121.194 143.182 121.157C143.21 121.148 143.24 121.14 143.265 121.133C143.695 121.38 144.157 121.4 144.568 121.417C144.759 121.427 144.949 121.434 145.092 121.455L145.232 121.506C145.355 121.552 145.494 121.605 145.646 121.625L146.362 121.722C147.096 121.824 147.855 121.931 148.612 121.971C148.9 121.987 149.19 122.027 149.477 122.067C149.973 122.136 150.482 122.206 151.001 122.156L151.199 122.137C151.88 122.072 152.523 122.009 153.19 122.009C153.197 122.009 153.204 122.009 153.21 122.009C154.74 122.048 156.38 121.989 157.986 121.8L158.221 121.773C158.852 121.702 159.502 121.629 160.125 121.361C161.192 120.901 162.074 120.48 162.903 119.935C163.851 119.689 164.522 119.304 165.011 118.725C165.372 118.295 165.775 117.868 166.183 117.463C166.622 117.204 166.762 116.796 166.885 116.435C166.928 116.308 166.969 116.182 167.027 116.064C167.267 115.796 167.308 115.484 167.314 115.206C167.532 115.011 167.537 114.736 167.539 114.575L167.542 114.516C168.087 112.917 167.838 111.337 167.534 109.845ZM159.412 116.435L159.303 116.465C159.005 116.543 158.694 116.622 158.406 116.811C158.028 116.827 157.675 116.955 157.332 117.202L156.473 117.328C156.24 117.274 156.053 117.361 155.891 117.464C155.335 117.233 154.779 117.32 154.296 117.45C153.912 117.436 153.527 117.408 153.143 117.38C152.196 117.31 151.215 117.239 150.233 117.378C150.146 117.342 150.053 117.33 149.957 117.347C149.852 117.311 149.743 117.308 149.635 117.344C149.13 117.231 148.595 117.152 148.046 117.322C147.881 117.296 147.737 117.331 147.635 117.371C147.295 117.277 146.986 117.258 146.684 117.309C146.405 117.242 146.122 117.239 145.83 117.301C145.64 117.227 145.455 117.247 145.309 117.284C145.104 117.223 144.885 117.228 144.647 117.303C143.634 117.094 142.692 116.992 141.774 116.992C141.766 116.992 141.758 116.992 141.75 116.992C141.576 116.915 141.41 116.92 141.288 116.936C141.184 116.864 141.044 116.796 140.861 116.827C140.647 116.737 140.424 116.734 140.205 116.816C140.148 116.8 140.089 116.795 140.04 116.796C139.662 116.512 139.202 116.291 138.607 116.109C137.874 115.887 137.114 115.616 136.283 115.282C136.203 115.25 136.124 115.212 136.043 115.173C135.717 115.015 135.319 114.819 134.843 114.976C134.08 114.756 133.291 114.537 132.484 114.513C131.774 114.425 131.138 114.476 130.538 114.657C130.314 114.586 130.099 114.639 129.899 114.704C129.581 114.635 129.305 114.756 129.166 114.83C127.743 115.019 126.296 115.537 124.624 116.456C124.376 116.469 124.121 116.546 123.91 116.735C123.181 116.785 122.517 117.031 121.873 117.271C121.707 117.333 121.54 117.395 121.375 117.453C121.169 117.525 120.96 117.582 120.75 117.64C120.315 117.76 119.866 117.883 119.447 118.124C119.287 118.113 119.137 118.154 119.002 118.248C118.605 118.291 118.245 118.417 117.935 118.536C117.045 118.874 116.169 119.274 115.323 119.662L115.082 119.771C115.116 119.647 115.198 119.518 115.333 119.37C115.525 119.158 115.591 118.934 115.531 118.704C115.608 118.611 115.696 118.491 115.732 118.33C116.073 117.97 116.431 117.543 116.614 116.988C116.665 116.968 116.72 116.942 116.774 116.903C117.618 116.295 118.166 115.458 118.554 114.772C118.823 114.652 119.134 114.495 119.301 114.154C119.478 113.794 119.7 113.459 119.935 113.105C120.352 112.473 120.785 111.82 120.949 111.006C120.97 110.898 121.001 110.832 121.054 110.781C121.366 110.473 121.522 110.077 121.512 109.602C121.511 109.47 121.582 109.331 121.665 109.172C121.774 108.965 121.897 108.729 121.878 108.44C121.862 108.207 121.905 108.134 121.924 108.113C121.96 108.076 122.055 108.054 122.19 108.054C122.192 108.054 122.193 108.054 122.194 108.054C122.312 108.054 122.464 108 122.527 107.732C122.542 107.667 122.564 107.603 122.585 107.538C122.625 107.412 122.672 107.27 122.682 107.115C122.724 107.013 122.76 106.899 122.792 106.753C122.924 105.841 122.806 104.861 122.432 103.758C121.58 101.246 120.614 98.3995 120.214 95.4349C120.17 95.1035 120.139 94.7695 120.106 94.4351C120.043 93.7495 119.976 93.0424 119.782 92.3173C119.71 92.134 119.692 91.9521 119.722 91.7596C119.726 91.7341 119.726 91.7069 119.724 91.6801C119.706 91.4981 119.698 91.3148 119.69 91.1316C119.681 90.9026 119.67 90.675 119.643 90.4526C119.61 90.1806 119.601 89.9055 119.593 89.6321C119.573 89.0635 119.554 88.4763 119.341 87.8997C120.112 87.4119 120.042 86.6293 119.985 85.9907L119.969 85.7912C119.966 85.7587 119.954 85.7279 119.935 85.6967C119.947 85.5943 119.927 85.4906 119.877 85.3842C119.88 85.3816 119.881 85.3777 119.884 85.375C119.966 85.2484 120.118 85.0195 120.012 84.7202C120.006 84.7013 120.001 84.6824 119.993 84.6635C119.978 84.631 119.993 84.591 120.07 84.4535C120.131 84.3392 120.215 84.188 120.227 84.0105C120.617 83.7587 120.795 83.3961 120.743 82.965C120.987 82.7589 121.159 82.4666 121.255 82.0935C121.478 81.2339 121.979 80.5132 122.485 79.8628C122.553 79.7766 122.636 79.7068 122.718 79.6338C122.922 79.4572 123.173 79.2365 123.242 78.859C123.252 78.8037 123.261 78.7487 123.268 78.6934L124.267 77.9392C124.311 77.9406 124.353 77.9366 124.392 77.9217C125.176 77.6457 125.875 77.1983 126.53 76.5558C126.556 76.5303 126.577 76.4991 126.593 76.4657C126.629 76.3914 126.663 76.3189 126.701 76.249C127.136 76.0293 127.623 75.9528 128.135 75.8707C128.322 75.8408 128.509 75.8113 128.694 75.7749C128.878 75.872 129.135 75.919 129.461 75.7669L129.471 75.7656C129.473 75.7669 129.476 75.7683 129.477 75.7696C129.535 75.8017 129.604 75.8206 129.668 75.8048C129.814 75.7832 129.988 75.8439 130.18 75.9111C130.447 76.0069 130.778 76.1238 131.152 76.0095C132.183 76.6846 132.909 77.2919 133.463 77.9173C133.49 77.9994 133.519 78.0803 133.555 78.1598C133.556 78.1638 133.559 78.1678 133.561 78.1748C133.589 78.2974 133.645 78.4117 133.705 78.4886C133.712 78.5141 133.72 78.5369 133.729 78.5584C133.722 78.7443 133.75 78.9276 133.814 79.1069C133.795 79.1473 133.786 79.193 133.787 79.2387C133.8 80.0755 133.947 80.9215 134.234 81.825C134.245 81.8558 134.273 81.9085 134.299 81.9489C134.289 81.999 134.279 82.0421 134.263 82.0676C134.002 82.5123 133.967 82.9848 134.173 83.4967L134.23 83.607C134.275 83.6958 134.322 83.7837 134.355 83.8628L134.364 83.8843L134.339 84.0716C134.308 84.3181 134.277 84.5646 134.225 84.8085C134.114 85.3526 134.194 85.8066 134.474 86.1893C134.249 86.6675 134.245 87.1645 134.276 87.6725C133.916 88.2584 134.167 88.8393 134.319 89.1935C134.886 90.5124 135.755 91.637 136.594 92.7255C136.776 92.9624 136.96 93.1997 137.138 93.4384C137.176 93.6133 137.272 93.7455 137.343 93.8453L137.407 93.9367C138.134 95.0899 139.243 95.7337 140.315 96.3573C140.475 96.45 140.635 96.5432 140.793 96.6377C140.859 96.7023 140.935 96.7493 141.019 96.7792C142.392 97.8809 143.645 98.552 144.95 98.8873C145.105 99.0033 145.241 99.0249 145.384 99.0328C145.683 99.162 145.981 99.2956 146.278 99.4274C147.736 100.075 149.241 100.746 150.856 101.098C151.164 101.312 151.48 101.443 151.815 101.495C152.564 101.917 153.38 102.322 154.245 102.464C155.218 102.802 156.182 103.241 157.109 103.768C157.715 104.114 158.355 104.359 159.011 104.498L159.41 104.72C159.622 104.952 159.866 105.126 160.104 105.295C160.234 105.39 160.366 105.482 160.489 105.586C162.464 107.246 163.249 109.02 162.962 111.173C162.9 111.634 162.793 112.103 162.69 112.556C162.577 113.052 162.46 113.564 162.397 114.085C162.25 114.284 162.164 114.501 162.088 114.724L161.917 114.866C161.302 115.38 160.718 115.864 160.028 116.2C159.879 116.207 159.738 116.257 159.605 116.35C159.536 116.361 159.47 116.389 159.412 116.435ZM119.018 126.427C119.105 126.468 119.199 126.479 119.29 126.464C119.36 126.489 119.439 126.499 119.514 126.492C120.106 126.811 120.356 126.804 120.888 126.407C121.292 126.579 121.79 126.791 122.295 126.5C122.321 126.501 122.349 126.51 122.378 126.515C122.393 126.517 122.406 126.52 122.419 126.523C122.666 126.718 122.941 126.767 123.173 126.769C123.381 127.018 123.632 127.039 123.862 126.99C123.907 126.974 123.948 126.953 123.989 126.927C124.676 127.043 125.242 127.243 125.717 127.537C126.032 127.731 126.271 127.663 126.457 127.554C126.47 127.559 126.487 127.563 126.508 127.567C126.778 127.744 127.071 127.843 127.355 127.94C127.665 128.045 127.957 128.145 128.144 128.293C128.364 128.559 128.664 128.625 128.945 128.478L129.366 128.543C129.408 128.533 129.491 128.58 129.595 128.648C129.686 128.707 129.796 128.777 129.93 128.817C129.949 128.83 129.971 128.839 129.994 128.845C130.322 128.949 130.637 129.087 130.97 129.233C131.56 129.49 132.169 129.757 132.862 129.824C133.115 129.846 133.329 129.985 133.577 130.146C133.784 130.281 133.998 130.419 134.256 130.5C134.357 130.601 134.542 130.743 134.768 130.702C134.919 130.674 135.022 130.579 135.095 130.474L137.22 131.349C137.244 131.358 137.269 131.365 137.297 131.369L137.423 131.384L138.015 131.772C138.12 131.835 138.218 131.913 138.315 131.991C138.568 132.192 138.853 132.417 139.254 132.464C139.332 132.509 139.418 132.532 139.508 132.532C139.51 132.532 139.511 132.532 139.514 132.532C139.842 132.761 140.208 132.792 140.533 132.82C140.687 132.832 140.839 132.844 140.925 132.859L141.24 133.015C141.296 133.091 141.358 133.153 141.421 133.199C141.507 133.266 141.598 133.317 141.759 133.372C141.806 133.379 141.85 133.383 141.895 133.378C142.092 133.494 142.285 133.615 142.478 133.734C142.99 134.055 143.52 134.385 144.098 134.634C144.138 134.653 144.18 134.675 144.22 134.695C144.427 134.801 144.759 134.974 145.118 134.742L145.368 134.857C145.57 134.966 145.773 135.075 145.962 135.202C146.516 135.575 147.128 135.769 147.72 135.958C147.921 136.022 148.123 136.086 148.321 136.157C148.531 136.34 148.783 136.52 149.129 136.52C149.132 136.52 149.133 136.52 149.136 136.52C149.168 136.536 149.202 136.554 149.234 136.571C149.353 136.633 149.539 136.731 149.745 136.731C149.768 136.926 149.928 137.045 150.199 137.246C150.237 137.274 150.28 137.293 150.326 137.301C150.445 137.328 150.564 137.317 150.67 137.278C150.707 137.316 150.754 137.348 150.815 137.368C150.826 137.372 150.835 137.375 150.845 137.378C150.995 137.499 151.221 137.649 151.512 137.607C151.547 137.602 151.579 137.591 151.611 137.576C151.674 137.541 151.687 137.534 151.871 137.757C152.055 137.977 152.35 138.265 152.812 138.3C152.854 138.324 152.9 138.343 152.949 138.354C153.269 138.641 153.712 138.961 154.328 138.977C154.362 138.988 154.401 138.972 154.436 138.961L154.523 139.052C154.809 139.36 155.158 139.734 155.707 139.773C155.826 139.958 156.008 140.258 156.475 140.207C156.637 140.193 156.739 140.224 156.757 140.242C157.205 140.883 157.848 141.24 158.779 141.368C158.803 141.374 158.867 141.417 158.909 141.445C158.94 141.465 158.971 141.486 159.002 141.505L159.2 141.728C159.306 141.847 159.486 141.867 159.614 141.771L159.653 141.743C159.677 141.752 159.701 141.761 159.725 141.767C159.725 141.886 159.753 142.018 159.813 142.163C159.867 142.298 159.952 142.399 160.027 142.489L160.101 142.58C160.137 142.628 160.187 142.666 160.245 142.686L160.57 142.801C160.571 142.82 160.574 142.834 160.577 142.845C160.612 143.195 160.777 143.625 161.347 143.789C161.395 143.913 161.457 144.025 161.535 144.13C161.56 144.164 161.586 144.193 161.65 144.269L161.67 144.297C161.665 144.489 161.759 144.623 161.858 144.713L161.864 144.822C161.873 145.059 161.884 145.345 162.039 145.598C161.925 145.943 161.931 146.291 161.936 146.603C161.938 146.706 161.939 146.809 161.936 146.912C161.792 147.042 161.71 147.211 161.643 147.352C161.618 147.403 161.594 147.453 161.567 147.499C161.39 147.8 161.23 148.108 161.07 148.416C160.876 148.791 160.674 149.179 160.449 149.538L160.379 149.647C160.166 149.98 159.902 150.392 159.991 150.952C159.941 151.022 159.91 151.1 159.902 151.18C159.429 151.731 159.338 152.404 159.256 153.002C159.238 153.132 159.221 153.261 159.199 153.389C159.197 153.403 159.194 153.416 159.191 153.431C159.176 153.557 159.114 153.694 159.05 153.838C158.934 154.099 158.791 154.418 158.878 154.801C158.793 155.143 158.758 155.554 159.032 155.922C159.022 155.956 159.011 155.988 159.001 156.022C158.923 156.267 158.829 156.569 158.954 156.907C158.958 156.966 158.96 157.025 158.961 157.085C158.968 157.303 158.975 157.528 159.028 157.707C159.02 157.747 159.019 157.789 159.026 157.829C159.045 157.938 159.078 158.042 159.125 158.139L159.403 158.003L159.283 158.117L159.138 158.136C159.204 158.636 159.342 159.109 159.549 159.541C159.558 159.621 159.569 159.7 159.585 159.771C159.612 159.901 159.648 160.023 159.704 160.154C159.715 160.177 159.727 160.2 159.739 160.222C159.739 160.227 159.739 160.231 159.739 160.236C159.7 161.185 160.078 161.974 160.445 162.739C160.591 163.044 160.737 163.348 160.854 163.659C160.876 163.719 160.92 163.802 161.011 163.872C161.079 164.117 161.164 164.359 161.249 164.599C161.418 165.075 161.578 165.525 161.605 166.006C161.611 166.115 161.645 166.217 161.703 166.306C161.695 166.36 161.691 166.421 161.697 166.486C161.697 166.488 161.698 166.491 161.698 166.494C161.597 166.578 161.487 166.687 161.416 166.84C161.391 166.86 161.364 166.882 161.338 166.91C161.318 166.93 161.277 166.985 161.264 167.011C161.159 167.06 161.032 167.092 160.899 167.124C160.753 167.159 160.59 167.198 160.432 167.269C160.234 167.273 160.073 167.349 159.938 167.417C159.868 167.401 159.789 167.389 159.705 167.389C159.636 167.389 159.564 167.397 159.489 167.416C157.709 166.988 155.926 167.169 154.249 167.346L153.167 167.293C152.275 167.249 151.382 167.205 150.489 167.179C150.034 167.167 149.604 167.066 149.089 166.937C148.728 166.844 148.362 166.716 148.009 166.592C147.484 166.407 146.939 166.216 146.362 166.124C146.163 165.996 145.936 165.926 145.685 165.915C144.245 165.339 142.757 164.747 141.113 164.703C140.951 164.572 140.709 164.466 140.379 164.509L140.234 164.48C139.803 164.345 139.344 164.211 138.856 164.176C138.754 164.129 138.645 164.117 138.544 164.141C137.913 163.936 137.286 163.982 136.678 164.024L136.385 164.043C135.487 164.095 134.617 164.304 133.774 164.505C133.196 164.642 132.598 164.785 132.002 164.874C131.813 164.904 131.618 164.917 131.426 164.93C131.046 164.957 130.652 164.984 130.263 165.135C129.85 165.096 129.459 165.168 129.081 165.236C128.985 165.253 128.89 165.269 128.794 165.283C128.433 165.161 128.17 165.256 127.998 165.384C127.208 165.539 126.491 165.666 125.769 165.675C125.514 165.594 125.253 165.624 124.989 165.759C124.954 165.76 124.921 165.76 124.887 165.76C123.739 165.76 122.784 165.356 121.972 164.527C121.731 164.099 121.424 163.734 121.18 163.462L121.109 163.381C120.745 162.975 120.402 162.592 120.311 162.08C120.197 161.446 120.007 160.802 119.736 160.122C119.491 159.424 119.293 158.694 119.1 157.989C119.006 157.642 118.912 157.296 118.81 156.951C118.745 156.724 118.701 156.488 118.658 156.254C118.574 155.797 118.486 155.325 118.244 154.882C118.246 154.844 118.245 154.808 118.24 154.77C118.242 154.757 118.244 154.744 118.244 154.734C118.249 154.596 118.218 154.466 118.151 154.347C118.149 154.345 118.147 154.339 118.143 154.334C118.17 154.001 118.106 153.698 117.952 153.431C117.946 153.386 117.934 153.345 117.915 153.307C117.911 153.128 117.83 152.987 117.752 152.885C117.744 152.513 117.532 152.256 117.329 152.035C117.225 151.616 116.933 151.37 116.672 151.15L116.634 151.118C116.601 150.859 116.449 150.677 116.333 150.537C116.297 150.494 116.26 150.451 116.229 150.406C116.044 150.136 115.832 149.883 115.622 149.63C115.266 149.205 114.932 148.805 114.722 148.325C114.268 147.283 113.453 146.579 112.734 145.959C111.458 144.862 110.167 143.621 109.359 141.992C109.285 141.844 109.213 141.693 109.14 141.542C108.863 140.959 108.576 140.357 108.156 139.825C108.223 139.209 108.251 138.507 108.038 137.846C107.84 137.228 107.749 136.752 107.741 136.307C107.734 135.878 107.664 135.469 107.597 135.073L107.55 134.8C107.524 134.638 107.482 134.478 107.439 134.318C107.361 134.023 107.287 133.743 107.33 133.471C107.426 133.364 107.481 133.236 107.493 133.094C107.668 132.908 107.769 132.692 107.808 132.43C107.919 131.657 108.035 131.015 108.207 130.456C108.39 130.154 108.669 129.978 109.014 129.78C109.015 129.78 109.015 129.78 109.015 129.778C109.236 129.65 109.487 129.599 109.753 129.545C109.992 129.496 110.239 129.446 110.481 129.337C111.487 129.613 112.233 129.109 112.845 128.621C113.203 128.801 113.533 128.659 113.761 128.559C113.841 128.525 113.92 128.489 114.01 128.469C114.189 128.422 114.37 128.387 114.552 128.35C114.993 128.263 115.449 128.173 115.901 127.915C115.904 127.917 115.908 127.915 115.911 127.916C115.915 127.918 115.916 127.922 115.92 127.923L115.924 127.925C115.957 127.936 115.99 127.94 116.022 127.94C116.036 127.94 116.047 127.929 116.06 127.927C116.072 127.926 116.083 127.933 116.094 127.93C116.215 127.9 116.315 127.844 116.395 127.798C116.44 127.77 116.486 127.744 116.52 127.733C116.665 127.759 116.795 127.709 116.861 127.664C116.982 127.693 117.105 127.645 117.177 127.546C117.276 127.416 117.311 127.278 117.319 127.154C117.338 127.141 117.355 127.126 117.373 127.11C117.595 127.109 117.8 127.04 117.974 126.908C118.009 126.898 118.042 126.887 118.075 126.873L118.382 126.851C118.436 126.905 118.512 126.957 118.618 126.972C118.697 126.979 118.817 126.974 118.942 126.871C119.101 126.746 119.071 126.572 119.018 126.427ZM126.544 127.254L126.526 127.311L126.513 127.294L126.544 127.254ZM97.1935 134.565C96.8648 134.924 96.7114 135.342 96.733 135.81C96.4205 136.322 96.221 136.886 96.1401 137.491C96.0083 137.743 95.9986 138.011 96.112 138.277C96.0676 139.128 96.0984 140.012 96.2051 140.902C96.3519 142.3 96.275 143.36 95.9762 144.293C95.8712 144.497 95.7578 144.698 95.6448 144.899C95.3552 145.417 95.0546 145.952 94.8745 146.553C94.6925 146.764 94.4701 147.042 94.4231 147.427C94.2627 147.613 94.0606 147.859 94.0768 148.215L93.6338 149.155C93.5275 149.269 93.4774 149.411 93.4897 149.562C93.0305 150.393 92.5334 151.268 91.9608 152.085L88.9434 154.319C88.8436 154.382 88.6929 154.478 88.6578 154.661C88.6402 154.743 88.6727 154.885 88.721 154.953C88.732 154.969 88.7412 154.984 88.7491 154.999C88.6995 155.069 88.6494 155.14 88.6024 155.216C88.5391 155.259 88.4745 155.307 88.4152 155.365C87.498 155.553 86.7891 155.576 86.1277 155.437C85.5107 155.31 84.8832 155.227 84.2741 155.147C83.5169 155.047 82.7328 154.943 81.9866 154.753L81.868 154.719C81.6944 154.671 81.5164 154.621 81.3573 154.621C81.2281 154.621 81.1095 154.655 81.0163 154.75C80.9451 154.824 80.8801 154.866 80.9152 154.879C80.7966 154.835 80.6968 154.781 80.597 154.703C80.5228 154.643 80.4639 154.58 80.4019 154.499C80.2499 154.312 80.0798 154.14 79.9414 154.007C79.6153 153.551 79.3309 153.047 79.0576 152.559C78.9297 152.332 78.8018 152.104 78.6682 151.88C78.6669 151.863 78.6656 151.845 78.6656 151.841C78.659 151.774 78.652 151.706 78.6441 151.666C78.6401 151.606 78.6388 151.542 78.6375 151.481C78.6361 151.379 78.6335 151.278 78.6172 151.144C78.4933 150.596 78.2077 150.136 77.9814 149.809C77.8979 149.676 77.817 149.541 77.7388 149.406L77.6605 149.052C77.4667 148.164 77.2672 147.245 77.0246 146.351C76.8765 145.802 76.6476 145.109 76.1813 144.528C76.1518 144.198 75.9497 143.972 75.8029 143.83C75.6777 143.495 75.4702 143.224 75.2342 142.917C74.4151 141.846 73.7809 140.941 73.2391 140.068C72.7486 139.281 72.198 138.654 71.5577 138.148C71.5471 138.126 71.5348 138.1 71.5212 138.068C71.4161 137.828 71.2557 137.647 71.0145 137.516C70.978 137.502 70.9433 137.491 70.9094 137.483C70.8813 137.454 70.8514 137.427 70.8207 137.404C70.8044 137.359 70.7829 137.313 70.7574 137.266C70.488 136.833 70.1496 136.558 69.7255 136.425C67.9488 135.863 66.2419 135.254 64.8826 133.981C64.8571 133.959 64.8272 133.938 64.7965 133.925C64.7828 133.919 64.7697 133.914 64.756 133.908C64.7534 133.906 64.7521 133.903 64.7508 133.901C64.0208 132.758 64.077 132.046 64.9973 130.848C65.5457 130.133 66.2731 129.712 67.0421 129.268C67.2522 129.146 67.4623 129.024 67.6697 128.896C68.5007 128.381 69.4588 128.061 70.3843 127.751L70.9688 127.553C71.1612 127.486 71.3098 127.358 71.439 127.244L71.4768 127.214C71.5941 127.172 71.7124 127.131 71.831 127.092C72.1206 127.125 72.3162 127.029 72.4546 126.937C72.5328 126.926 72.6124 126.921 72.6972 126.92L72.9921 126.913C73.341 126.906 73.7018 126.899 74.0617 126.816C74.1545 126.794 74.2529 126.785 74.3513 126.774C74.633 126.745 74.9912 126.708 75.2553 126.439C75.766 126.727 76.2331 126.486 76.5676 126.267C76.8708 126.397 77.1415 126.217 77.338 126.05C77.6733 126.244 77.9334 126.203 78.1097 126.109C78.1879 126.163 78.2714 126.191 78.3615 126.195C78.4612 126.19 78.5742 126.164 78.67 126.093C78.8827 126.151 79.0501 126.128 79.1807 126.069C79.1859 126.071 79.1916 126.074 79.1969 126.075C79.8812 126.346 80.5048 126.129 81.0558 125.936L81.1745 125.896C81.2026 125.886 81.2299 125.872 81.254 125.854C81.7805 125.903 82.325 125.946 82.8722 125.766C82.9491 125.82 83.0457 125.865 83.1631 125.871C83.2264 125.92 83.3033 125.968 83.4364 125.958C83.5916 125.942 83.7678 125.976 83.955 126.011C84.2987 126.074 84.7254 126.156 85.1688 125.911C85.3398 125.814 85.6294 125.818 85.7858 125.915C86.3527 126.278 86.8151 126.081 87.211 125.876C87.7107 126.376 87.9181 126.345 88.616 125.965C88.6604 125.971 88.7034 125.977 88.7478 125.982C88.8555 125.996 88.9891 126.012 89.0348 126.047C89.672 126.53 90.3471 126.379 90.8037 126.222C91.1473 126.102 91.4813 126.072 91.8839 126.129C92.0157 126.135 92.1559 126.172 92.3027 126.209C92.5545 126.273 92.8309 126.35 93.1487 126.289L93.5569 126.321C94.1146 126.447 94.6442 126.37 95.1614 126.293C95.3271 126.268 95.4928 126.244 95.6519 126.227C95.8175 126.206 95.9885 126.246 96.1757 126.283C96.4587 126.336 96.7738 126.394 97.1104 126.303C97.3289 126.571 97.6035 126.612 97.7974 126.59L98.7523 126.49C98.929 126.494 99.1026 126.521 99.2775 126.547C99.7086 126.609 100.189 126.68 100.701 126.459C100.909 126.371 101.292 126.43 101.473 126.458C102.043 126.554 102.568 126.547 103.074 126.445C103.125 126.489 103.177 126.521 103.227 126.547L102.667 127.092C101.93 127.809 101.194 128.527 100.443 129.229C100.276 129.387 100.122 129.57 100.103 129.842C99.2762 130.714 98.569 131.759 97.909 133.078C97.633 133.442 97.2599 133.931 97.1935 134.565ZM73.3595 109.75C73.3516 109.548 73.3432 109.345 73.3581 109.144C73.3678 109.014 73.4214 108.874 73.4781 108.726C73.5832 108.454 73.711 108.118 73.5871 107.734C73.5845 107.675 73.5695 107.618 73.544 107.569C73.5871 107.376 73.6223 107.159 73.5695 106.937C73.6407 106.941 73.6746 106.93 73.715 106.919C73.8108 106.892 73.944 106.825 74.0398 106.648C74.1931 106.357 74.339 106.044 74.3092 105.67C74.4344 105.419 74.4102 105.162 74.3913 104.951C74.3777 104.799 74.3698 104.69 74.3966 104.602C74.9073 104.256 74.9732 103.744 74.9438 103.296C75.127 103.112 75.232 102.922 75.294 102.665C75.3872 102.289 75.4636 101.908 75.5392 101.528C75.6983 100.74 75.8477 99.9965 76.14 99.2811C76.1439 99.2718 76.1479 99.2622 76.151 99.2543C76.2076 99.1035 76.2239 98.9523 76.2384 98.8192C76.2573 98.643 76.2723 98.5309 76.3395 98.4514C76.8633 97.8278 76.8769 97.0987 76.8893 96.4562C76.8932 96.258 76.8972 96.0602 76.9055 95.92C76.9609 95.7218 76.9701 95.5416 76.935 95.3729L76.9363 95.3716C76.9455 95.3593 76.9904 95.2828 76.9969 95.2705C77.2958 94.7449 77.6043 94.2008 77.5814 93.51C77.5814 93.4775 77.5748 93.4454 77.5639 93.4155C77.4588 93.118 77.4681 92.878 77.5933 92.6583C77.6227 92.6069 77.6364 92.5493 77.6337 92.4913C77.6271 92.3283 77.577 92.1665 77.5164 92.0817C77.4856 91.9714 77.4316 91.8835 77.3815 91.815C77.345 91.5913 77.2672 91.3865 77.1916 91.19C77.1349 91.0419 77.0826 90.9004 77.0501 90.7629C77.2887 90.1094 76.9587 89.6163 76.6502 89.2836C76.4362 88.4429 75.951 87.713 75.1362 87.0002C75.116 86.9219 75.0808 86.8411 75.0272 86.7497C74.9182 86.6003 74.7833 86.4869 74.5838 86.3981C74.5825 86.3968 74.5799 86.3968 74.5772 86.3968C74.5746 86.3928 74.5733 86.3902 74.5706 86.3876C74.2582 85.7314 73.7488 85.2076 73.0079 84.7681C72.8167 84.6103 72.6335 84.442 72.4515 84.275C72.027 83.8857 71.5893 83.4831 71.0439 83.2014C70.9363 83.099 70.8268 82.9993 70.7178 82.8995C70.256 82.4763 69.8178 82.0751 69.4948 81.5728C69.4987 81.5525 69.5014 81.531 69.5058 81.5095C69.5137 81.4396 69.4992 81.3666 69.4601 81.306C69.3238 81.0893 69.2175 80.8481 69.1059 80.5919C68.8756 80.068 68.6154 79.4778 68.0415 79.095C68.0388 79.0898 68.0362 79.084 68.0336 79.0788C68.0309 78.9816 68.0037 78.8902 67.954 78.8054L67.9527 78.7246C67.9351 78.6222 67.9083 78.5308 67.8626 78.4257C67.8261 78.3559 67.7927 78.2829 67.7699 78.2346C67.7444 78.1647 67.7132 78.0944 67.6838 78.0258C67.6635 77.9801 67.6433 77.9326 67.6244 77.8856L67.6231 77.8127C67.6231 77.694 67.6218 77.5771 67.5989 77.4637C67.4574 76.7364 67.3577 75.8795 67.6987 74.9812L67.715 74.8436C68.0248 74.558 68.3614 74.267 68.7306 74.0231C69.0299 74.0095 69.2764 73.9194 69.501 73.821C69.7005 73.7335 69.8635 73.6676 70.0345 73.6795C70.5152 73.7494 70.9477 73.6514 71.3656 73.5582L71.6834 73.491C72.1712 73.3965 72.6656 73.2941 73.1529 73.3147C73.5867 73.3363 74.0217 73.2809 74.4366 73.2299C74.9995 73.164 75.5278 73.0981 76.0301 73.1895C76.3883 73.2919 76.7214 73.2435 76.9974 73.048C77.4245 73.0897 77.846 73.153 78.2692 73.2176C79.1745 73.3534 80.1092 73.4936 81.0835 73.4184C81.6034 73.3767 82.1259 73.3552 82.6502 73.3323C83.1701 73.3121 83.69 73.2892 84.2073 73.2488C84.3018 73.3029 84.4028 73.3349 84.5079 73.3459C84.8972 73.6505 85.327 73.6127 85.6799 73.5789C85.8162 73.5652 85.9559 73.5463 86.0394 73.5547C87.1658 73.8553 88.3053 74.246 89.4299 74.7157C89.5525 74.8397 89.6901 74.9109 89.8395 74.9271C89.9876 75.0647 90.148 75.0818 90.2693 75.0836C90.3594 75.1346 90.4459 75.1521 90.5211 75.1552C90.6815 75.2576 90.8406 75.3613 90.9992 75.4664C91.5393 75.8245 92.097 76.1937 92.7277 76.4415C93.5143 76.75 94.3563 77.0748 95.2317 77.3306C95.8285 77.5055 96.4174 77.8008 97.0854 78.2614C97.2726 78.3906 97.4572 78.5228 97.6418 78.656C98.0716 78.9645 98.5159 79.2836 98.9887 79.5534C99.3539 79.7595 99.6475 80.01 99.8844 80.3185C100.092 80.5879 100.322 80.8384 100.552 81.0863C100.757 81.3086 100.962 81.5297 101.147 81.7652C101.319 81.9863 101.514 82.1748 101.704 82.3568C101.953 82.5954 102.188 82.8217 102.344 83.0938C102.569 83.4858 102.825 83.8562 103.074 84.2144C103.33 84.5849 103.594 84.9676 103.816 85.3636C103.909 85.5306 103.997 85.7033 104.086 85.8756C104.335 86.3634 104.591 86.8657 104.983 87.2968C105.053 87.6915 105.181 88.0619 105.305 88.4232C105.343 88.5335 105.381 88.6442 105.417 88.7558C105.402 88.7866 105.389 88.8191 105.376 88.8543C105.169 89.4133 105.301 89.9468 105.44 90.3498C105.831 91.4775 106.061 92.5146 106.143 93.521C106.402 96.6557 107.02 99.4727 108.036 102.131C108.226 102.63 108.261 103.165 108.27 103.576L108.278 104.148C108.287 104.919 108.297 105.715 108.428 106.545L108.566 107.094C108.512 107.438 108.507 107.707 108.546 107.904C108.54 107.998 108.534 108.091 108.538 108.2C108.548 108.312 108.565 108.409 108.598 108.542L108.607 108.567C108.57 109.562 108.631 110.431 108.786 111.212C108.695 111.526 108.785 111.805 108.839 111.983C108.847 112.067 108.854 112.153 108.859 112.268C108.864 112.302 108.871 112.335 108.881 112.383C108.824 112.716 108.925 113.008 109.033 113.295C109.031 113.423 109.021 113.536 108.994 113.671C108.9 114.763 108.966 115.918 109.193 117.196C109.118 117.326 109.082 117.475 109.089 117.628C109.092 117.681 109.088 117.712 109.091 117.721C109.048 117.729 108.959 117.73 108.901 117.729H108.871C108.641 117.578 108.41 117.465 108.19 117.563C107.931 117.674 107.884 117.976 107.857 118.139C107.823 118.353 107.862 118.557 107.971 118.738C107.925 118.983 107.95 119.2 108.05 119.394L107.982 121.058C107.94 121.108 107.88 121.156 107.816 121.209C107.71 121.296 107.582 121.4 107.485 121.551C107.481 121.55 107.477 121.548 107.474 121.547C107.338 121.331 107.132 121.174 106.901 121.112C106.311 120.954 105.841 120.584 105.344 120.194C105.235 120.107 105.125 120.021 105.016 119.937C104.587 119.404 104.03 119.007 103.318 118.726L103.265 118.684C103.212 118.643 103.16 118.602 103.112 118.557C102.816 118.27 102.457 118.212 102.142 118.161C101.922 118.125 101.734 118.096 101.591 117.998C100.917 117.541 100.245 117.527 99.6686 117.569C99.4572 117.585 99.2726 117.654 99.1096 117.715C98.9615 117.769 98.8305 117.817 98.7053 117.818C98.4157 117.67 98.1744 117.707 98.0114 117.769C97.6071 117.928 97.2032 118.088 96.8002 118.249L96.0188 118.559C95.8839 118.613 95.7951 118.698 95.7345 118.785C95.2414 118.647 94.7822 118.803 94.3242 118.979C93.9551 118.93 93.6519 119.072 93.3838 119.196C93.2651 119.251 93.1522 119.302 93.0414 119.335C92.8678 119.316 92.7074 119.341 92.5699 119.412C92.2965 119.467 92.0808 119.614 91.8909 119.776C91.6633 119.802 91.4545 119.883 91.2647 120.016C91.0129 120.036 90.8511 120.142 90.758 120.234C90.2838 120.693 89.6883 120.953 89.0581 121.229L88.9263 121.287C88.6907 121.276 88.525 121.387 88.4156 121.462C88.3778 121.488 88.3216 121.526 88.3079 121.53C88.2354 121.508 88.1546 121.513 88.0829 121.544C87.7867 121.685 87.509 121.858 87.2422 122.025C86.7289 122.346 86.2442 122.649 85.665 122.703C85.3903 122.474 85.0532 122.223 84.5914 122.18C84.0069 121.912 83.4017 121.841 82.9372 121.809C82.6436 121.788 82.4239 121.737 82.242 121.646C82.1761 121.501 82.0697 121.385 81.9295 121.309C81.8904 121.287 81.8096 121.266 81.799 121.279C81.7762 121.258 81.7506 121.24 81.7234 121.227C81.7071 121.199 81.6869 121.171 81.6614 121.147C81.1103 120.59 80.4072 120.327 79.8548 120.158C79.8249 120.15 79.7955 120.146 79.7647 120.146C79.7282 120.158 79.6663 120.151 79.6192 120.162C79.4268 119.972 79.1868 119.888 78.9833 119.816C78.9644 119.809 78.9455 119.802 78.9266 119.796C78.8809 119.504 78.6867 119.253 78.3206 119.033C78.0376 118.864 77.7467 118.688 77.3964 118.605C77.2712 118.462 77.1055 118.281 76.8655 118.209C76.8616 118.189 76.8545 118.167 76.8453 118.147C76.5772 117.529 76.1356 117.061 75.7084 116.61C75.4241 116.31 75.156 116.026 74.938 115.701C74.8194 115.526 74.6445 115.308 74.3843 115.177C74.2819 114.771 74.1514 114.374 74.0204 113.977C73.7699 113.213 73.5326 112.492 73.479 111.649C73.4439 111.53 73.4104 111.413 73.3902 111.366C73.3902 111.27 73.374 111.179 73.3432 111.082C73.3432 111.08 73.327 110.992 73.327 110.992C73.3177 110.948 73.3054 110.911 73.2905 110.876C73.3889 110.491 73.374 110.116 73.3595 109.75ZM91.0594 123.247L91.0656 123.266L91.0603 123.262L91.0594 123.247ZM108.466 126.035C108.488 126.022 108.509 126.009 108.531 125.996C108.554 125.995 108.574 125.991 108.597 125.994C108.834 126.178 109.006 126.358 109.129 126.55C109.045 126.62 108.957 126.697 108.873 126.787C108.789 126.776 108.711 126.776 108.641 126.787C108.616 126.762 108.588 126.738 108.562 126.714C108.588 126.521 108.589 126.267 108.466 126.035ZM102.458 123.443C101.628 123.584 100.769 123.731 99.92 123.743C99.8905 123.743 99.862 123.747 99.8338 123.755C99.7653 123.777 99.695 123.789 99.6251 123.797C99.2195 123.693 98.8086 123.674 98.4113 123.657L98.2188 123.647C98.1001 123.589 97.9723 123.578 97.847 123.616C97.4765 123.508 97.1061 123.493 96.7466 123.48C96.5717 123.473 96.3963 123.466 96.2241 123.447C95.9925 123.334 95.7675 123.331 95.5613 123.337H95.4655C95.1491 123.299 94.8982 123.392 94.6371 123.451C94.4688 123.489 94.3084 123.524 94.1506 123.541C94.1357 123.526 94.1212 123.513 94.1049 123.5C94.0742 123.475 94.039 123.458 94.0026 123.446C93.8356 123.396 93.6751 123.393 93.5336 123.39C93.4488 123.389 93.364 123.389 93.2577 123.369C93.139 123.354 93.0247 123.323 92.9074 123.29C92.7039 123.236 92.4873 123.176 92.2218 123.191C92.2232 123.185 92.2245 123.18 92.2258 123.174C92.2798 123.146 92.3321 123.111 92.3862 123.068C92.5277 122.933 92.6288 122.786 92.7255 122.644L92.7971 122.54C92.805 122.529 92.816 122.51 92.8265 122.49L92.9491 122.458C93.3789 122.347 93.8219 122.233 94.2465 122.035C94.7083 122.12 95.0871 121.92 95.397 121.762C95.4563 121.731 95.5169 121.7 95.5776 121.67C95.9213 121.665 96.1893 121.511 96.4262 121.375C96.4882 121.34 96.5488 121.305 96.6121 121.273C96.7523 121.281 96.8789 121.242 96.9865 121.192C97.353 121.265 97.822 121.334 98.1691 120.913C98.3616 120.917 98.5194 120.85 98.6609 120.764C98.6903 120.771 98.7242 120.776 98.7606 120.779C98.8846 120.784 99.0287 120.783 99.1188 120.787L99.2564 120.798C99.3926 120.81 99.5486 120.823 99.7064 120.795C100.8 120.611 101.607 120.742 102.32 121.228C102.602 121.416 102.96 121.459 103.344 121.316C103.387 121.334 103.431 121.347 103.474 121.357C103.487 121.365 103.499 121.373 103.51 121.38C103.524 121.454 103.561 121.545 103.648 121.609C103.69 121.642 103.728 121.681 103.767 121.72C103.898 121.851 104.091 122.044 104.372 122.064C104.464 122.248 104.59 122.46 104.769 122.65C104.535 122.742 104.324 122.914 104.244 123.241C104.029 123.199 103.814 123.229 103.626 123.256C103.234 123.31 102.846 123.376 102.458 123.443ZM118.795 126.391L118.712 126.418L118.743 126.368C118.761 126.374 118.778 126.382 118.795 126.391ZM118.707 126.427L118.809 126.431L118.719 126.508C118.71 126.487 118.702 126.466 118.695 126.447L118.707 126.427ZM114.721 125.296C114.647 125.22 114.593 125.168 114.578 125.158C114.601 125.119 114.694 125.048 114.817 124.963C114.79 124.994 114.767 125.03 114.751 125.073C114.721 125.145 114.712 125.219 114.721 125.296ZM65.8424 203.413C65.798 203.649 65.7883 203.854 65.8143 204.044C65.7967 204.084 65.7738 204.13 65.74 204.191C65.5462 204.663 65.5567 205.134 65.5677 205.589L65.573 205.873C65.5796 208.349 65.5326 210.577 64.8861 212.76C64.3042 214.722 63.7167 216.634 62.9098 218.449C62.8936 218.483 62.872 218.517 62.8505 218.554C62.7833 218.664 62.6132 218.947 62.7279 219.22C62.6066 219.404 62.5459 219.606 62.4963 219.805C62.3535 219.94 62.2862 220.104 62.2282 220.241L62.2242 220.252C61.9412 220.494 61.6732 220.723 61.3541 220.849C61.3339 220.784 61.3001 220.719 61.257 220.653C61.242 220.572 61.2231 220.489 61.2042 220.407C61.1599 220.214 61.1181 220.032 61.1462 219.897C61.2596 219.354 61.083 218.906 60.9278 218.51L60.8443 218.294C60.2541 216.682 59.1616 215.415 58.1042 214.19C57.8858 213.938 57.6692 213.685 57.4538 213.429C57.384 213.345 57.249 213.186 57.0319 213.116L56.9106 212.972C56.7828 212.821 56.6545 212.669 56.52 212.522C54.6408 210.465 53.0592 208.241 51.8199 205.912C51.1866 204.725 50.6276 203.477 50.1574 202.204L50.0967 202.033C49.9592 201.641 49.7895 201.153 49.3558 200.925C48.817 200.638 48.6728 200.167 48.4909 199.571L48.4558 199.452C48.3789 199.185 48.294 198.886 48.0611 198.641L47.1237 195.054C47.1778 194.734 47.0754 194.456 46.9919 194.228C46.9352 194.072 46.8816 193.925 46.8816 193.79C46.8952 192.241 46.4988 190.673 45.6357 188.856C45.2477 188.034 44.69 186.975 43.8264 186.063C43.4331 185.65 43.0718 185.182 42.7216 184.732L42.5612 184.526C42.3256 184.226 42.2188 183.958 42.2206 183.736L42.2421 183.666C42.3204 183.565 42.3524 183.446 42.3366 183.328C42.3718 183.247 42.3823 183.162 42.3705 183.076C42.4012 182.995 42.4096 182.908 42.3933 182.822C42.4311 182.727 42.439 182.628 42.4135 182.528L42.6667 181.561C42.8754 180.766 43.0841 179.971 43.2863 179.175C43.3764 178.812 43.448 178.386 43.3065 177.949L43.3118 177.889C43.4089 176.968 43.5087 176.019 43.4063 175.061C43.4441 174.963 43.4507 174.86 43.4278 174.759C43.4559 174.658 43.4494 174.55 43.4089 174.448L43.4696 173.924C43.6704 173.719 43.6862 173.453 43.6933 173.329C43.7324 172.643 43.9561 171.957 44.3775 171.23C44.6873 170.691 44.8855 170.124 45.078 169.576L45.1707 169.311C45.2621 169.05 45.35 168.802 45.4845 168.573C45.7662 168.094 46.0382 167.609 46.3116 167.124C46.6364 166.547 46.9607 165.969 47.3312 165.35C47.5008 165.065 47.6761 164.772 47.703 164.385C47.7153 164.211 47.8321 164.095 48.0238 163.922C48.1881 163.771 48.3753 163.6 48.4698 163.347C48.7731 162.527 49.2231 161.804 49.6986 161.039C49.9196 160.685 50.1389 160.329 50.3195 160.003L50.3841 159.918C51.0482 159.052 51.7324 158.158 52.2901 157.181C53.6467 158.605 54.8359 160.213 55.9865 161.771C56.3732 162.293 56.7595 162.817 57.1532 163.335C57.6033 163.926 58.037 164.528 58.4695 165.132C59.3264 166.324 60.2128 167.557 61.2148 168.679C63.1722 170.87 64.5719 173.557 65.7545 177.386C65.8165 177.595 65.8824 177.804 65.9483 178.011L66.0116 178.177C66.0507 178.804 66.2111 179.392 66.382 179.935C66.3873 180.068 66.3886 180.203 66.3781 180.324C66.2744 181.012 66.4348 181.646 66.5895 182.257C66.6378 182.446 66.6853 182.634 66.7297 182.846C66.7604 182.953 66.7864 183.059 66.8053 183.153C66.8202 183.239 66.8347 183.327 66.8633 183.428C66.8633 183.429 66.8646 183.435 66.8659 183.443C66.8105 183.922 66.8765 184.393 66.9617 184.869C66.8905 185.419 66.9468 185.955 67.0008 186.475C67.0465 186.909 67.0883 187.32 67.0615 187.774C67.0694 187.895 67.0601 188.018 67.0522 188.14C67.036 188.372 67.0171 188.631 67.094 188.894C67.0791 188.935 67.0646 188.985 67.0496 189.05C66.9753 190.424 66.8286 191.818 66.687 193.167C66.593 194.061 66.4985 194.956 66.4229 195.852C66.419 195.904 66.4282 195.957 66.4497 196.004C66.4862 196.086 66.5051 196.177 66.5038 196.289C66.4339 196.625 66.3557 196.998 66.4541 197.396C66.4462 197.416 66.4379 197.44 66.4299 197.467C66.2766 197.752 66.2669 198.048 66.2845 198.271C66.1887 198.502 66.1782 198.717 66.2507 198.915C66.2507 198.919 66.2493 198.923 66.2493 198.926C66.2344 199.011 66.2212 199.096 66.2155 199.173C66.2089 199.229 66.2045 199.287 66.2019 199.345C66.1465 199.505 66.1197 199.678 66.1223 199.866C66.1008 199.932 66.0753 200.004 66.0388 200.101C65.8354 200.887 65.7721 201.554 65.8406 202.199C65.8419 202.213 65.8595 202.291 65.8622 202.303C65.8811 202.384 65.9013 202.464 65.9052 202.511C65.9052 202.513 65.896 202.644 65.896 202.647C65.8824 202.732 65.8745 202.815 65.8771 202.901C65.8771 202.91 65.8797 202.928 65.8837 202.948C65.8745 202.99 65.8701 203.034 65.8732 203.077C65.8556 203.121 65.8424 203.173 65.8354 203.237C65.8345 203.295 65.8371 203.354 65.8424 203.413ZM54.393 247.85L54.3178 247.548C54.2383 247.551 54.1561 247.548 54.0119 247.574C53.9702 247.57 53.9284 247.57 53.8841 247.578C53.8423 247.567 53.7751 247.564 53.7294 247.562C53.6674 247.567 53.6041 247.577 53.5408 247.591C53.3066 247.574 53.0948 247.591 52.8917 247.641C52.8566 247.63 52.8148 247.614 52.7568 247.588C52.3002 247.461 51.8124 247.529 51.3452 247.595L51.0477 247.635C48.4817 247.945 46.1833 248.176 44.0497 247.827C42.1327 247.513 40.2698 247.187 38.5603 246.644C38.5308 246.635 38.5023 246.62 38.4741 246.605C38.392 246.564 38.2518 246.496 38.0848 246.496C37.9973 246.496 37.9002 246.515 37.8018 246.567C37.6334 246.474 37.4423 246.441 37.252 246.418C37.143 246.315 37.0015 246.264 36.8534 246.219C36.7831 246.133 36.7242 246.05 36.6657 245.966C36.7694 245.896 36.8666 245.816 36.9721 245.748C37.3737 245.675 37.655 245.434 37.9055 245.22L37.9459 245.186C37.9837 245.177 38.014 245.142 38.0496 245.126C38.3977 245.068 38.7308 244.925 39.0503 244.784L39.2902 244.678C41.0591 243.925 42.5814 242.734 44.0523 241.582C44.3555 241.344 44.6583 241.107 44.9629 240.874C45.1097 240.762 45.2551 240.634 45.3412 240.456L45.503 240.331C45.6981 240.182 45.8937 240.032 46.0848 239.876C46.3393 239.668 46.5999 239.476 46.8565 239.274L46.9335 239.229C47.4872 238.925 48.0396 238.62 48.5915 238.312C48.8016 238.195 49.0389 238.11 49.2894 238.02C49.8862 237.805 50.5639 237.561 50.9234 236.802C51.0811 236.471 51.5914 236.022 52.1741 235.571C52.7463 235.224 53.3198 234.884 53.8964 234.566C55.2662 233.81 56.6742 233.12 58.0805 232.52L58.273 232.439C58.7054 232.261 59.1959 232.059 59.4908 231.657C59.9258 231.066 60.4901 230.853 61.1476 230.605L61.2781 230.557C61.5637 230.453 61.8859 230.337 62.1671 230.091L66.1166 228.74C66.4141 228.77 66.716 228.633 66.9736 228.523C67.1555 228.446 67.3265 228.372 67.4803 228.356C69.0672 228.179 70.7565 227.615 72.7961 226.578C74.1606 225.884 75.1521 225.253 76.0117 224.534C76.5113 224.115 77.0558 223.719 77.5823 223.336L77.8653 223.132C78.2331 222.862 78.543 222.719 78.8365 222.682L78.8796 222.69C78.9684 222.745 79.0831 222.77 79.2207 222.739C79.2989 222.759 79.3837 222.761 79.4725 222.739C79.5454 222.758 79.6315 222.762 79.7339 222.731C79.8267 222.758 79.9277 222.749 80.0301 222.714L80.9974 222.838C81.7748 222.939 82.5531 223.04 83.3345 223.134C83.6926 223.174 84.1172 223.192 84.5874 223.002L84.667 223.001C85.5991 222.979 86.5624 222.958 87.5701 222.742C87.6509 222.763 87.756 222.767 87.8759 222.724C87.9634 222.741 88.0698 222.73 88.1897 222.669L88.718 222.662C88.9104 222.828 89.1759 222.808 89.3069 222.804C90.0153 222.752 90.6674 222.885 91.3302 223.192C91.8298 223.423 92.3783 223.545 92.9091 223.661L93.168 223.717C93.4185 223.773 93.6558 223.824 93.8593 223.921C94.3054 224.134 94.7593 224.336 95.212 224.539C95.7402 224.775 96.2667 225.011 96.8301 225.284C97.0832 225.408 97.3636 225.539 97.7705 225.527C97.9226 225.504 97.9955 225.582 98.137 225.743C98.2649 225.886 98.4227 226.064 98.6934 226.129C99.4722 226.315 100.127 226.653 100.819 227.01C101.144 227.177 101.47 227.344 101.758 227.468L101.833 227.521C102.573 228.029 103.334 228.552 104.2 228.961C102.446 230.436 100.539 231.769 98.6921 233.06C98.0751 233.491 97.4567 233.924 96.8437 234.361C96.1419 234.862 95.4291 235.35 94.718 235.838C93.3157 236.799 91.865 237.793 90.5097 238.88C87.8342 241.027 84.7575 242.7 80.536 244.305C80.311 244.387 80.0846 244.476 79.8596 244.564L79.6456 244.652C78.9789 244.77 78.332 245 77.7932 245.215C77.6368 245.239 77.4795 245.26 77.3419 245.266C77.3204 245.266 77.3002 245.265 77.28 245.265C76.6186 245.265 75.9611 245.486 75.3239 245.699C75.1165 245.769 74.909 245.839 74.6853 245.905C74.568 245.948 74.4498 245.986 74.3417 246.018C74.2516 246.042 74.1637 246.065 74.0547 246.104L74.0587 246.114C74.0573 246.114 74.0547 246.114 74.0534 246.114C73.5524 246.114 73.0444 246.238 72.5258 246.38C72.5232 246.38 72.5205 246.38 72.5179 246.38C71.9668 246.38 71.4038 246.499 70.8598 246.613C70.3979 246.71 69.9615 246.802 69.4992 246.83C69.37 246.855 69.2421 246.861 69.1138 246.868C68.8769 246.88 68.6128 246.895 68.3311 247.002C68.2893 246.992 68.2397 246.984 68.1733 246.976C66.767 247.075 65.3524 247.107 63.9852 247.137C63.0773 247.157 62.1693 247.177 61.2548 247.216C61.213 247.218 61.1726 247.229 61.1348 247.247C61.0285 247.3 60.9195 247.332 60.7859 247.347C60.4506 247.319 60.0761 247.29 59.6543 247.437C59.634 247.432 59.6125 247.426 59.5883 247.422C59.3203 247.31 59.0254 247.336 58.7788 247.38C58.5257 247.308 58.2857 247.336 58.1051 247.427C58.0498 247.424 57.9948 247.422 57.9421 247.422C57.8533 247.422 57.7698 247.426 57.6806 247.434C57.5242 247.402 57.3506 247.398 57.1581 247.422C57.0948 247.41 57.0262 247.395 56.9318 247.372C56.1601 247.274 55.4864 247.294 54.81 247.438C54.7995 247.439 54.7252 247.464 54.7142 247.466C54.6197 247.497 54.5257 247.53 54.4813 247.541C54.4514 247.541 54.4207 247.543 54.4044 247.547L54.393 247.85C54.3934 247.85 54.3934 247.85 54.393 247.85ZM74.1676 246.384L74.0679 246.256V246.139L74.1676 246.384Z" fill="black"/>
<path d="M162.16 257.002H6.76403C3.63899 257.002 1.10547 254.468 1.10547 251.343V73.8265C1.10547 70.7015 3.63899 68.168 6.76403 68.168H162.16C165.285 68.168 167.818 70.7015 167.818 73.8265V251.343C167.818 254.468 165.285 257.002 162.16 257.002Z" stroke="black" stroke-width="2" stroke-miterlimit="10"/>
<path d="M120.962 68.1647H47.9648C47.9648 64.2442 51.1431 61.0664 55.0631 61.0664H113.864C117.784 61.066 120.962 64.2442 120.962 68.1647Z" fill="black"/>
<path d="M97.0027 47.5898H71.9219V62.9756H97.0027V47.5898Z" stroke="black" stroke-width="6" stroke-miterlimit="10" stroke-linecap="round" stroke-linejoin="round"/>
<path d="M97.0027 15.543H71.9219V36.5236H97.0027V15.543Z" stroke="black" stroke-width="6" stroke-miterlimit="10" stroke-linecap="round" stroke-linejoin="round"/>
<path d="M99.7695 42.0547H69.1562V47.5871H99.7695V42.0547Z" stroke="black" stroke-width="6" stroke-miterlimit="10" stroke-linecap="round" stroke-linejoin="round"/>
<path d="M97.0027 36.5234H71.9219V42.0559H97.0027V36.5234Z" stroke="black" stroke-width="6" stroke-miterlimit="10" stroke-linecap="round" stroke-linejoin="round"/>
<path d="M109.258 55.82H60.3677C59.1421 55.82 58.1484 54.8264 58.1484 53.6007V3.21931C58.1484 1.99364 59.1421 1 60.3677 1H109.258C110.483 1 111.477 1.99364 111.477 3.21931V53.6007C111.477 54.8264 110.483 55.82 109.258 55.82Z" stroke="black" stroke-width="2" stroke-miterlimit="10"/>
<path d="M130.633 192.32H38.5306C37.2993 192.32 36.3008 191.321 36.3008 190.09V136.785C36.3008 135.553 37.2993 134.555 38.5306 134.555H130.633C131.865 134.555 132.863 135.553 132.863 136.785V190.089C132.863 191.321 131.865 192.32 130.633 192.32Z" fill="black"/>
<path d="M125.371 186.174H43.7884C42.5571 186.174 41.5586 185.176 41.5586 183.945V142.609C41.5586 141.377 42.5571 140.379 43.7884 140.379H125.371C126.602 140.379 127.601 141.377 127.601 142.609V183.945C127.601 185.176 126.602 186.174 125.371 186.174Z" stroke="#F5F4F3" stroke-width="1.5427" stroke-miterlimit="10"/>
<path d="M22.3639 238.087H38.9876C39.3519 237.839 39.7171 237.593 40.0854 237.35C41.0201 236.729 41.9861 236.088 42.8861 235.398C42.9155 235.375 42.9463 235.35 42.9762 235.328H22.3643C20.6697 235.328 19.2902 234.169 19.2902 232.747V89.9025C19.2902 88.4799 20.6697 87.3215 22.3643 87.3215H42.4268V84.5625H22.3643C19.1474 84.5625 16.5313 86.9576 16.5313 89.9025V232.747C16.5308 235.692 19.147 238.087 22.3639 238.087Z" fill="black"/>
<path d="M149.637 122.152V133.418C149.7 133.429 149.76 133.444 149.81 133.46L149.96 133.529C150.046 133.572 150.133 133.615 150.224 133.651C150.427 133.731 150.55 133.856 150.583 134.022C150.605 134.128 150.583 134.223 150.548 134.301L150.561 134.318H152.395V122.152H150.999H150.229H149.637Z" fill="black"/>
<path d="M152.397 232.746V171.115C152.267 171.078 152.131 171.033 151.997 170.953C151.939 170.96 151.878 170.962 151.817 170.954C151.785 170.967 151.751 170.975 151.718 170.977C151.607 171.026 151.49 171.03 151.382 170.998C151.09 171.057 150.811 171.057 150.53 171.05C150.404 171.052 150.282 171.05 150.162 171.052C150.018 171.053 149.885 171.059 149.751 171.067C149.714 171.069 149.675 171.066 149.638 171.068V232.747C149.638 234.169 148.258 235.328 146.564 235.328H98.7509C98.1418 235.743 97.505 236.169 96.8313 236.609C96.5148 236.815 96.1949 237.035 95.875 237.255V238.087H146.564C149.78 238.086 152.397 235.691 152.397 232.746Z" fill="black"/>
<path d="M136.223 85.1215C136.339 85.4986 136.321 85.8906 136.172 86.3165V87.5478C136.172 87.5531 136.174 87.5584 136.174 87.5637H146.562C148.257 87.5637 149.636 88.7221 149.636 90.1447V94.2673C149.685 94.3007 149.736 94.3345 149.779 94.3662C149.894 94.4053 150.004 94.4576 150.114 94.5116C150.288 94.5978 150.45 94.6558 150.595 94.6681H152.395V90.1447C152.395 87.1998 149.779 84.8047 146.562 84.8047H136.241C136.251 84.9203 136.243 85.0306 136.223 85.1215Z" fill="black"/>
<path d="M72.6377 248.33C72.1205 248.452 71.6072 248.51 71.1101 248.568C70.8003 248.604 70.4905 248.638 70.178 248.69L69.7737 248.757C68.498 248.967 67.1804 249.184 65.8994 249.242C65.5975 249.254 65.3078 249.247 65.0182 249.241C64.7906 249.236 64.5669 249.229 64.3327 249.234C64.0874 249.363 63.8356 249.396 63.5878 249.337C63.2024 249.444 62.882 249.401 62.595 249.363C62.5331 249.354 62.4711 249.346 62.4091 249.339C62.2624 249.415 62.1424 249.415 62.0483 249.382C61.8976 249.434 61.6831 249.468 61.484 249.367C60.871 249.371 60.261 249.367 59.6519 249.366C57.4449 249.358 55.1803 249.362 52.8828 249.523V249.575H160.442V248.195H73.2763C73.0631 248.241 72.8509 248.279 72.6377 248.33Z" fill="black"/>
</svg>
