<svg width="256" height="233" viewBox="0 0 256 233" fill="none" xmlns="http://www.w3.org/2000/svg">
<path d="M139.626 29.9939C139.626 27.8332 137.875 26.082 135.715 26.082H122.674C120.513 26.082 118.762 27.8332 118.762 29.9939C118.762 32.1545 120.513 33.9057 122.674 33.9057H135.715C137.875 33.9066 139.626 32.1545 139.626 29.9939Z" fill="url(#paint0_linear_22_19383)"/>
<path d="M129.192 23.4728H144.841C144.841 23.4728 150.057 23.4728 150.057 18.2564C150.057 13.04 144.841 0 129.193 0C113.544 0 108.328 13.0409 108.328 18.2564C108.328 23.4728 113.545 23.4728 113.545 23.4728H129.192Z" fill="url(#paint1_linear_22_19383)"/>
<path d="M41.8381 72.3242C34.9514 87.4998 30.2986 103.073 30.0061 119.858C29.4797 139.027 34.5001 158.005 43.9514 174.635C52.0267 188.842 63.8067 200.983 77.4447 209.919C92.91 220.05 110.321 225.252 128.577 227.206C128.783 227.229 128.989 227.25 129.195 227.272C95.6064 229.159 63.2329 214.048 43.4082 186.695C21.7711 156.843 18.5371 117.621 34.4073 84.5035C36.5586 80.237 39.1538 76.2667 41.8381 72.3242Z" fill="url(#paint2_linear_22_19383)"/>
<path d="M6.60305 98.3867C3.63646 114.786 2.93171 131.024 6.75161 147.37C10.7349 165.221 19.6199 182.15 32.1408 195.493C56.3379 221.278 91.9853 232.725 126.783 227.614C127.586 227.501 128.389 227.387 129.193 227.273C96.795 237.406 61.7873 230.401 35.698 208.576C8.01995 185.424 -6.24291 146.371 2.62066 110.977C3.69681 106.681 5.08215 102.542 6.60305 98.3867Z" fill="url(#paint3_linear_22_19383)"/>
<path d="M214.145 72.3242C223.409 85.9297 230.245 101.833 231.324 118.461C232.595 138.047 229.32 156.758 220.304 174.298C205.105 203.864 174.232 224.73 141.046 227.265C136.28 227.629 131.555 227.54 126.789 227.272C144.487 225.377 161.373 220.671 176.584 211.168C190.453 202.504 202.244 190.678 210.8 176.742C220.808 160.44 226.07 141.239 226.012 122.126C225.96 104.761 221.536 88.6113 214.402 72.8897C214.317 72.7021 214.232 72.5127 214.145 72.3242Z" fill="url(#paint4_linear_22_19383)"/>
<path d="M249.38 98.3867C255.036 113.845 257.775 130.937 254.756 147.324C251.199 166.627 243.449 183.969 230.418 198.772C208.208 224 172.67 236.66 139.57 230.566C135.22 229.766 131.005 228.592 126.789 227.273C144.412 229.764 161.938 229.329 179.01 223.834C194.722 218.778 209.47 210.047 221.124 198.303C246.639 172.592 256.455 136.061 249.812 100.782C249.668 99.9837 249.523 99.1852 249.38 98.3867Z" fill="url(#paint5_linear_22_19383)"/>
<path d="M200.102 133.014C200.102 172.178 168.356 203.924 129.192 203.924C90.0271 203.924 58.2812 172.178 58.2812 133.014C58.2812 113.92 65.8282 96.5947 78.0939 83.8443C78.2749 83.6475 78.4643 83.459 78.6537 83.2696C80.6955 82.7858 84.0837 82.135 88.0986 81.9688C73.1709 94.0533 63.8616 112.981 65.662 133.301C67.9229 116.8 73.6175 101.29 85.4142 89.1072C87.9472 86.4906 90.6325 84.1387 93.4533 82.0514C96.5007 82.2937 99.692 82.8982 102.792 84.07C107.458 85.8397 111.905 88.9094 115.308 94.0143C127.717 112.625 145.738 112.625 156.673 102.877C167.29 93.3941 175.722 85.7868 181.25 84.8638C192.948 97.5102 200.102 114.426 200.102 133.014Z" fill="url(#paint6_linear_22_19383)"/>
<path d="M214.169 125.881C211.19 91.4661 187.286 62.7379 154.444 52.892C152.712 43.5382 141.921 36.4062 129.042 36.4062C116.179 36.4062 105.411 43.5149 103.649 52.8465C103.452 52.9068 103.263 52.9746 103.074 53.0275C95.6328 55.1446 88.5018 58.4417 82.0059 62.6237C67.2064 72.1447 55.6742 86.3314 49.3297 102.741C36.2925 136.452 47.144 175.693 75.6456 197.993C100.109 217.133 132.641 221.103 161.43 210.191C195.227 197.389 217.27 161.711 214.169 125.881ZM129.042 40.7322C138.768 40.7322 147.04 45.2698 149.566 51.5234C142.844 49.852 135.954 49.0052 129.042 49.0052C122.123 49.0052 115.234 49.852 108.511 51.5234C111.045 45.2689 119.318 40.7322 129.042 40.7322ZM129.156 214.26C85.1823 214.26 49.534 178.015 49.534 133.3C49.534 88.5933 85.1823 52.3479 129.156 52.3479C173.137 52.3479 208.785 88.5933 208.785 133.3C208.785 178.015 173.137 214.26 129.156 214.26Z" fill="url(#paint7_linear_22_19383)"/>
<path d="M129.156 68.6405C116.013 70.1456 103.822 74.3722 93.4554 82.0556C91.5946 81.9117 89.7952 81.8969 88.1016 81.9721C99.3691 72.8522 113.843 67.6266 129.156 68.6405Z" fill="url(#paint8_linear_22_19383)"/>
<defs>
<linearGradient id="paint0_linear_22_19383" x1="118.762" y1="29.994" x2="139.626" y2="29.994" gradientUnits="userSpaceOnUse">
<stop stop-color="#EDCF7B"/>
<stop offset="0.5" stop-color="#F8EDCE"/>
<stop offset="1" stop-color="#EDCF7B"/>
</linearGradient>
<linearGradient id="paint1_linear_22_19383" x1="108.327" y1="11.7362" x2="150.057" y2="11.7362" gradientUnits="userSpaceOnUse">
<stop stop-color="#EDCF7B"/>
<stop offset="0.5" stop-color="#F8EDCE"/>
<stop offset="1" stop-color="#EDCF7B"/>
</linearGradient>
<linearGradient id="paint2_linear_22_19383" x1="24.4683" y1="149.877" x2="129.195" y2="149.877" gradientUnits="userSpaceOnUse">
<stop stop-color="#EDCF7B"/>
<stop offset="0.5" stop-color="#F8EDCE"/>
<stop offset="1" stop-color="#EDCF7B"/>
</linearGradient>
<linearGradient id="paint3_linear_22_19383" x1="0.000215489" y1="165.108" x2="129.193" y2="165.108" gradientUnits="userSpaceOnUse">
<stop stop-color="#EDCF7B"/>
<stop offset="0.5" stop-color="#F8EDCE"/>
<stop offset="1" stop-color="#EDCF7B"/>
</linearGradient>
<linearGradient id="paint4_linear_22_19383" x1="126.789" y1="149.916" x2="231.588" y2="149.916" gradientUnits="userSpaceOnUse">
<stop stop-color="#EDCF7B"/>
<stop offset="0.5" stop-color="#F8EDCE"/>
<stop offset="1" stop-color="#EDCF7B"/>
</linearGradient>
<linearGradient id="paint5_linear_22_19383" x1="126.789" y1="165.233" x2="256" y2="165.233" gradientUnits="userSpaceOnUse">
<stop stop-color="#EDCF7B"/>
<stop offset="0.5" stop-color="#F8EDCE"/>
<stop offset="1" stop-color="#EDCF7B"/>
</linearGradient>
<linearGradient id="paint6_linear_22_19383" x1="58.2818" y1="142.947" x2="200.102" y2="142.947" gradientUnits="userSpaceOnUse">
<stop stop-color="#EDCF7B"/>
<stop offset="0.5" stop-color="#F8EDCE"/>
<stop offset="1" stop-color="#EDCF7B"/>
</linearGradient>
<linearGradient id="paint7_linear_22_19383" x1="43.86" y1="126.293" x2="214.46" y2="126.293" gradientUnits="userSpaceOnUse">
<stop stop-color="#EDCF7B"/>
<stop offset="0.5" stop-color="#F8EDCE"/>
<stop offset="1" stop-color="#EDCF7B"/>
</linearGradient>
<linearGradient id="paint8_linear_22_19383" x1="87.07" y1="75.2853" x2="129.156" y2="75.2853" gradientUnits="userSpaceOnUse">
<stop stop-color="#EDCF7B"/>
<stop offset="0.5" stop-color="#F8EDCE"/>
<stop offset="1" stop-color="#EDCF7B"/>
</linearGradient>
</defs>
</svg>
