<svg width="149" height="256" viewBox="0 0 149 256" fill="none" xmlns="http://www.w3.org/2000/svg">
<path d="M121.394 5.69103C111.284 9.56234 116.233 22.6942 119.204 34.9648C119.231 35.0803 119.26 35.2022 119.291 35.328C119.38 35.7001 119.467 36.0714 119.551 36.441C119.612 36.6872 119.653 36.9181 119.694 37.149C119.713 37.2525 119.729 37.3511 119.746 37.4521C120.365 41.8038 117.325 43.2719 114.947 42.8429C112.559 42.4124 111.519 40.1038 111.393 39.8063C111.275 39.5073 111.212 39.3172 111.212 39.3172L110.657 37.4489C107.289 26.0323 103.012 12.8812 94.0945 4.39044C84.8877 -3.34256 73.2176 -0.0213221 71.6348 7.84719C69.926 16.3387 76.4178 22.2612 78.0768 23.6155C78.2019 23.7141 78.327 23.8127 78.4537 23.9106C79.9563 25.0724 81.5504 26.1557 83.2174 27.1252C101.637 37.8418 80.9522 52.0994 70.8265 37.5067C65.3387 29.5981 55.8649 24.5857 45.5628 22.5298C45.5451 22.5266 29.1377 19.5597 21.5828 29.3086C14.3806 38.602 21.4561 54.072 36.8499 50.4613C37.6325 50.2127 38.4167 49.9858 39.2009 49.7805C46.6613 47.8272 54.088 47.9716 59.1468 52.8219C67.385 48.6419 76.5725 47.9964 86.0303 50.9937C98.4637 54.9356 107.27 63.8505 111.496 76.773C112.207 78.9485 112.73 81.0605 113.115 83.0315C123.437 78.558 137.179 69.6486 142.158 52.9165C150.53 24.7798 137.134 -0.337246 121.394 5.69103Z" fill="url(#paint0_linear_22_19326)"/>
<path d="M103.575 174.621C105.865 176.966 107.564 179.754 109.002 182.693C110.406 185.648 111.47 188.819 112.119 192.154C112.77 195.488 113.016 198.993 112.76 202.574C112.514 206.154 111.755 209.806 110.451 213.343C109.168 216.888 107.317 220.289 105.071 223.39C103.95 224.914 102.678 226.454 101.478 227.72C100.879 228.39 100.224 229.019 99.5919 229.669C98.9335 230.295 98.264 230.912 97.5792 231.516C92.0866 236.348 85.38 239.998 78.6244 242.147C71.8576 244.341 65.1414 245.176 58.9904 245.437C52.8226 245.696 47.1544 245.414 42.0947 245.297C39.5737 245.256 37.1938 245.239 34.9671 245.392C32.7348 245.552 30.6115 245.842 28.4633 246.531C26.3232 247.219 24.0925 248.317 21.8962 249.959C19.6511 251.563 17.5374 253.681 15.2417 255.999C14.6916 252.796 14.7438 249.488 15.5111 246.13C16.2601 242.78 17.8357 239.391 20.1731 236.396C22.5016 233.389 25.5607 230.911 28.7384 229.008C31.9305 227.086 35.2213 225.736 38.399 224.659C44.7665 222.527 50.6865 221.45 56.0284 220.333C61.3815 219.245 66.1677 218.189 70.4472 216.814C74.7371 215.443 78.5162 213.757 82.2199 211.518C84.0345 210.396 85.9861 209.056 87.492 207.868C89.0853 206.625 90.5559 205.225 91.9663 203.637C94.7599 200.463 97.2048 196.379 99.1188 191.457C100.084 189.004 100.923 186.359 101.654 183.557C102.397 180.746 103.02 177.811 103.575 174.621Z" fill="url(#paint1_linear_22_19326)"/>
<path d="M60.4652 189.77C60.8356 190.536 60.9719 191.437 60.9792 192.316C60.9848 193.205 60.8701 194.113 60.6352 194.986C60.1749 196.731 59.3594 198.444 58.3034 199.895C56.2042 202.877 53.4049 205.155 50.4846 206.955C49.7525 207.389 49.006 207.806 48.2531 208.222C47.5001 208.611 46.7392 208.936 45.9726 209.286C44.4323 210.004 42.8863 210.506 41.3155 211.022C40.9274 211.145 40.5217 211.293 40.1464 211.394L39.0318 211.7C38.2901 211.911 37.5404 212.087 36.7947 212.282C35.3024 212.645 33.8046 212.954 32.3084 213.247C29.3287 213.806 26.3506 214.207 23.5001 214.517C20.6648 214.838 17.985 215.085 15.5674 215.457C13.1483 215.844 10.936 216.372 8.52802 217.559C8.22893 217.707 7.90419 217.826 7.61232 218.009C7.31403 218.182 7.01975 218.366 6.70382 218.538L5.75684 219.078C5.46256 219.29 5.14824 219.492 4.83312 219.701C3.53894 220.506 2.31853 221.48 0.867188 222.386C0.942561 220.722 1.13741 219.055 1.62253 217.451C1.73238 217.043 1.84143 216.631 1.97213 216.227L2.45244 215.037C2.61361 214.634 2.79723 214.242 2.97604 213.84C3.14684 213.434 3.40503 213.074 3.62393 212.684C3.85246 212.3 4.09462 211.921 4.33758 211.536L4.522 211.249L4.73449 210.982L5.16588 210.448C5.45455 210.089 5.75765 209.739 6.06315 209.383C6.36304 209.02 6.71906 208.732 7.05744 208.407C7.40143 208.091 7.74702 207.769 8.10545 207.46C8.46548 207.16 8.84154 206.905 9.21601 206.626L10.3651 205.824C10.7491 205.581 11.1412 205.369 11.5341 205.143C14.6966 203.351 17.8799 202.286 20.8997 201.42C23.9186 200.582 26.8326 199.955 29.7328 199.421L31.893 199.032L34.054 198.68C34.7724 198.571 35.4861 198.442 36.2085 198.348L37.2902 198.199L38.3014 198.043C39.6268 197.82 41.0132 197.707 42.3026 197.448L44.2919 197.139C44.931 197.009 45.5765 196.881 46.2364 196.77C48.8079 196.241 51.3498 195.666 53.773 194.715C55.019 194.257 56.1705 193.668 57.334 192.912C57.9041 192.526 58.4742 192.096 58.9954 191.582C59.1277 191.454 59.2664 191.323 59.4003 191.186L59.7732 190.755C60.0161 190.456 60.2591 190.138 60.4652 189.77Z" fill="url(#paint2_linear_22_19326)"/>
<path d="M116.036 136.467C97.9516 131.216 89.7472 122.169 89.7472 122.169C85.7243 118.117 83.0301 112.425 85.0163 104.584C86.7747 97.6406 94.2896 90.8217 109.811 94.9825C109.996 95.0322 110.174 95.0996 110.347 95.1749C110.348 94.9143 110.343 94.77 110.343 94.77C110.343 94.77 112.352 63.2904 84.8912 54.5831C57.4304 45.8759 34.658 71.9976 33.9876 115.199C33.3181 158.4 55.4202 177.823 39.3456 194.903C39.3456 194.903 70.1557 189.21 66.8064 157.73C66.8064 157.73 76.8535 184.857 60.4437 204.615C60.4437 204.615 102.975 195.572 100.295 158.735C100.295 158.735 128.091 180.168 118.715 220.02C118.715 220.02 140.181 209.187 146.867 185.86C154.967 155.782 134.12 141.716 116.036 136.467ZM89.7464 72.6455C92.9369 72.6455 95.5229 75.2322 95.5229 78.422C95.5229 81.6117 92.9361 84.1985 89.7464 84.1985C86.5558 84.1985 83.9699 81.6117 83.9699 78.422C83.9699 75.2322 86.5558 72.6455 89.7464 72.6455Z" fill="url(#paint3_linear_22_19326)"/>
<path opacity="0.5" d="M68.8684 49.6C66.1518 44.3928 59.2342 34.7049 44.7938 33.0058C44.7938 33.0058 47.4278 34.2014 50.5542 37.9644C38.3461 35.3095 27.9831 38.6901 26.1236 32.6706C24.2537 26.6151 31.3284 23.168 31.3284 23.168C27.7185 24.1615 24.1423 26.0017 21.5828 29.3045C14.3806 38.5979 21.4561 54.0679 36.8499 50.4572C37.6325 50.2086 38.4167 49.9817 39.2009 49.7764C46.6613 47.8231 54.088 47.9675 59.1468 52.8178C62.2636 51.2374 65.5167 50.1637 68.8684 49.6Z" fill="url(#paint4_linear_22_19326)"/>
<path opacity="0.5" d="M101.897 31.5025C100.055 19.2791 89.7523 16.0974 89.7523 16.0974C94.0166 19.9487 96.204 27.8188 96.204 27.8188C92.3527 17.1021 76.9477 14.2556 78.2876 6.05109C78.6837 3.62551 79.9875 1.64255 81.624 0.046875C76.5973 0.446194 72.5287 3.42986 71.6395 7.84723C69.9307 16.3388 76.4225 22.2612 78.0815 23.6155C78.2066 23.7141 78.3317 23.8128 78.4583 23.9106C79.961 25.0725 81.5551 26.1558 83.2221 27.1252C99.8404 36.7939 84.6277 49.3427 74.0578 40.9859C84.3952 50.3017 103.739 43.7258 101.897 31.5025Z" fill="url(#paint5_linear_22_19326)"/>
<path opacity="0.5" d="M70.7379 37.385C70.6449 37.2527 70.5446 37.1268 70.4492 36.9961C70.5454 37.126 70.6393 37.2559 70.7379 37.385Z" fill="url(#paint6_linear_22_19326)"/>
<path opacity="0.5" d="M131.114 25.3887C131.114 25.3887 131.554 28.5215 130.205 32.3728C128.004 26.6019 124.061 20.8615 123.663 14.5879C123.413 10.6508 125.286 7.41376 127.732 4.90238C125.7 4.62093 123.571 4.85667 121.398 5.68899C111.288 9.5603 116.237 22.6921 119.208 34.9628C119.234 35.0782 119.263 35.2001 119.295 35.326C119.384 35.6981 119.471 36.0693 119.555 36.439C119.616 36.6851 119.657 36.9161 119.698 37.147C119.717 37.2504 119.733 37.3491 119.75 37.4501C120.368 41.8017 117.328 43.2699 114.951 42.8409C112.563 42.4103 111.522 40.1018 111.397 39.8043C111.279 39.5052 111.216 39.3152 111.216 39.3152L110.66 37.4477C110.489 36.8664 110.313 36.2786 110.137 35.6892C113.188 49.331 122.822 53.483 128.287 47.9214L128.291 47.931C128.289 47.9302 137.943 40.5669 131.114 25.3887Z" fill="url(#paint7_linear_22_19326)"/>
<path opacity="0.5" d="M54.1701 136.469C54.1701 136.469 55.0649 145.67 49.8754 155.928C49.2475 150.256 48.0632 143.806 46.1332 136.469C35.5215 96.1356 44.9785 66.6181 69.9488 53.2617C49.6156 56.3584 34.5313 80.1604 33.9876 115.2C33.3181 158.401 55.4202 177.824 39.3456 194.905C39.3456 194.905 68.5704 180.486 54.1701 136.469Z" fill="url(#paint8_linear_22_19326)"/>
<path opacity="0.5" d="M87.4129 160.77C87.4129 160.77 84.3651 168.272 78.0521 174.789C78.0994 174.058 78.1299 173.322 78.1195 172.575C77.8685 154.24 65.31 142.184 66.0637 130.379C66.0637 130.379 61.2807 139.121 66.8119 157.732C66.8119 157.732 76.859 184.859 60.4492 204.617C60.4492 204.617 88.6694 190.659 87.4129 160.77Z" fill="url(#paint9_linear_22_19326)"/>
<path opacity="0.5" d="M86.6858 90.5826C92.3781 90.5826 96.9928 85.968 96.9928 80.2757C96.9928 74.5834 92.3781 69.9688 86.6858 69.9688C80.9935 69.9688 76.3789 74.5834 76.3789 80.2757C76.3789 85.968 80.9935 90.5826 86.6858 90.5826ZM89.7497 72.6501C92.9402 72.6501 95.5262 75.2369 95.5262 78.4266C95.5262 81.6164 92.9394 84.2031 89.7497 84.2031C86.5591 84.2031 83.9732 81.6164 83.9732 78.4266C83.9732 75.2369 86.5599 72.6501 89.7497 72.6501Z" fill="url(#paint10_linear_22_19326)"/>
<path opacity="0.5" d="M125.328 181.709C124.292 174.153 121.231 164.374 112.859 157.254C97.2068 143.942 94.7684 147.96 88.5781 137.914C88.5781 137.914 89.0544 145.547 100.3 158.737C100.301 158.739 128.095 180.171 118.719 220.022C118.72 220.021 139.152 199.198 128.603 170.315C128.603 170.315 127.994 176.725 125.328 181.709Z" fill="url(#paint11_linear_22_19326)"/>
<path d="M108.839 98.6253C108.839 98.6253 110.346 103.983 115.872 107.333C121.398 110.682 127.091 115.705 125.249 125.417C125.249 125.417 121.398 117.379 115.872 115.705C110.347 114.03 102.644 113.026 100.3 109.007C100.3 109.007 102.086 115.923 111.518 117.546C111.518 117.546 96.6158 119.221 88.5781 105.825C88.5781 105.825 92.597 94.2713 108.839 98.6253Z" fill="url(#paint12_linear_22_19326)"/>
<path opacity="0.5" d="M114.035 111.525C104.73 107.364 98.5964 105.508 96.7177 98.4375C90.4376 100.493 88.5781 105.819 88.5781 105.819C96.6158 119.215 111.518 117.541 111.518 117.541C102.086 115.917 100.3 109.001 100.3 109.001C102.644 113.02 110.346 114.025 115.872 115.699C121.398 117.373 125.249 125.411 125.249 125.411C125.249 125.411 124.96 116.412 114.035 111.525Z" fill="url(#paint13_linear_22_19326)"/>
<path opacity="0.5" d="M103.574 174.621C103.019 177.81 102.396 180.746 101.654 183.558C100.922 186.361 100.084 189.005 99.1181 191.459C97.2041 196.381 94.7593 200.464 91.9657 203.638C90.5544 205.226 89.0838 206.627 87.4914 207.87C85.9855 209.058 84.0338 210.397 82.2192 211.52C78.5155 213.759 74.7364 215.445 70.4465 216.816C66.1671 218.19 61.3809 219.247 56.0277 220.334C50.6858 221.452 44.7658 222.527 38.3984 224.661C35.2198 225.737 31.9299 227.087 28.7377 229.009C25.5608 230.912 22.5018 233.391 20.1724 236.398C17.835 239.393 16.2586 242.782 15.5105 246.132C14.9299 248.669 14.7599 251.178 14.9484 253.634C14.9508 253.629 14.9532 253.625 14.9556 253.62L15.2411 256C15.2411 256 19.2799 234.613 51.9648 232.604C51.9648 232.604 49.1679 231.284 44.7947 230.304C48.5802 229.153 52.8035 228.216 57.5232 227.581C96.7046 222.305 107.394 201.412 103.574 174.621Z" fill="url(#paint14_linear_22_19326)"/>
<path d="M29.6415 207.615C29.6415 207.615 27.75 206.361 24.5257 205.365C38.1756 203.2 56.3286 201.776 60.4637 189.77C60.2576 190.138 60.0146 190.456 59.7693 190.756L59.3964 191.187C59.2633 191.324 59.1246 191.456 58.9915 191.582C58.4695 192.096 57.8994 192.527 57.3301 192.913C56.1666 193.669 55.0151 194.257 53.7691 194.716C51.3459 195.666 48.804 196.242 46.2325 196.771C45.5726 196.882 44.9271 197.011 44.288 197.14L42.2987 197.449C41.0093 197.708 39.6229 197.821 38.2974 198.044L37.2863 198.199L36.2046 198.349C35.4822 198.443 34.7677 198.571 34.0501 198.68L31.8891 199.033L29.7289 199.422C26.8286 199.955 23.9147 200.582 20.8958 201.42C20.5494 201.52 20.2006 201.622 19.8502 201.727C19.7091 201.77 19.5663 201.815 19.4236 201.859C19.2167 201.922 19.0099 201.986 18.8014 202.053C18.6186 202.112 18.4341 202.172 18.2505 202.233C18.0845 202.288 17.9185 202.344 17.7518 202.401C17.5441 202.472 17.3372 202.545 17.1287 202.619C16.9876 202.67 16.8457 202.722 16.7037 202.774C16.4768 202.858 16.2499 202.942 16.0222 203.031C15.9075 203.075 15.7928 203.123 15.6782 203.169C15.4264 203.27 15.1738 203.371 14.9212 203.479C14.8908 203.492 14.8603 203.506 14.8298 203.519C14.1811 203.796 13.5316 204.096 12.8813 204.424C12.4307 204.651 11.9801 204.888 11.5302 205.143C11.1373 205.369 10.7452 205.58 10.3611 205.823L9.2121 206.625C8.83764 206.903 8.46157 207.159 8.10154 207.459C7.74312 207.768 7.39672 208.09 7.05353 208.406C6.71515 208.731 6.35913 209.019 6.05924 209.383C5.75374 209.738 5.45064 210.088 5.16198 210.448L4.73058 210.982L4.51809 211.248L4.33367 211.536C4.09071 211.921 3.84855 212.299 3.62003 212.683C3.40192 213.074 3.14293 213.433 2.97214 213.839C2.79332 214.242 2.6105 214.634 2.44853 215.036L1.96823 216.226C1.83833 216.63 1.72847 217.043 1.61862 217.45C1.1327 219.054 0.938655 220.722 0.863281 222.385C0.863281 222.385 1.16478 221.098 2.02997 219.246C4.29358 215.174 10.8527 208.481 29.6415 207.615Z" fill="url(#paint15_linear_22_19326)"/>
<defs>
<linearGradient id="paint0_linear_22_19326" x1="18.7534" y1="41.5151" x2="144.732" y2="41.5151" gradientUnits="userSpaceOnUse">
<stop stop-color="#FF6E40"/>
<stop offset="1" stop-color="#E040FB"/>
</linearGradient>
<linearGradient id="paint1_linear_22_19326" x1="14.8741" y1="215.311" x2="112.86" y2="215.311" gradientUnits="userSpaceOnUse">
<stop stop-color="#E040FB"/>
<stop offset="1" stop-color="#651FFF"/>
</linearGradient>
<linearGradient id="paint2_linear_22_19326" x1="0.866787" y1="206.078" x2="60.9799" y2="206.078" gradientUnits="userSpaceOnUse">
<stop stop-color="#E040FB"/>
<stop offset="1" stop-color="#651FFF"/>
</linearGradient>
<linearGradient id="paint3_linear_22_19326" x1="33.9724" y1="136.466" x2="148.666" y2="136.466" gradientUnits="userSpaceOnUse">
<stop stop-color="#00C853"/>
<stop offset="1" stop-color="#448AFF"/>
</linearGradient>
<linearGradient id="paint4_linear_22_19326" x1="17.0811" y1="37.9937" x2="70.329" y2="37.9937" gradientUnits="userSpaceOnUse">
<stop stop-color="#FF6E40"/>
<stop offset="1" stop-color="#E040FB"/>
</linearGradient>
<linearGradient id="paint5_linear_22_19326" x1="61.9222" y1="22.7159" x2="103.151" y2="22.7159" gradientUnits="userSpaceOnUse">
<stop stop-color="#FF6E40"/>
<stop offset="1" stop-color="#E040FB"/>
</linearGradient>
<linearGradient id="paint6_linear_22_19326" x1="61.9205" y1="37.1906" x2="103.148" y2="37.1906" gradientUnits="userSpaceOnUse">
<stop stop-color="#FF6E40"/>
<stop offset="1" stop-color="#E040FB"/>
</linearGradient>
<linearGradient id="paint7_linear_22_19326" x1="108.193" y1="27.552" x2="139.963" y2="27.552" gradientUnits="userSpaceOnUse">
<stop stop-color="#FF6E40"/>
<stop offset="1" stop-color="#E040FB"/>
</linearGradient>
<linearGradient id="paint8_linear_22_19326" x1="8.91471" y1="124.083" x2="106.325" y2="124.083" gradientUnits="userSpaceOnUse">
<stop stop-color="#00C853"/>
<stop offset="1" stop-color="#448AFF"/>
</linearGradient>
<linearGradient id="paint9_linear_22_19326" x1="36.2516" y1="167.498" x2="117.971" y2="167.498" gradientUnits="userSpaceOnUse">
<stop stop-color="#00C853"/>
<stop offset="1" stop-color="#448AFF"/>
</linearGradient>
<linearGradient id="paint10_linear_22_19326" x1="-135.959" y1="80.2765" x2="481.815" y2="80.2765" gradientUnits="userSpaceOnUse">
<stop stop-color="#00C853"/>
<stop offset="1" stop-color="#448AFF"/>
</linearGradient>
<linearGradient id="paint11_linear_22_19326" x1="88.5777" y1="178.967" x2="131.627" y2="178.967" gradientUnits="userSpaceOnUse">
<stop stop-color="#00C853"/>
<stop offset="1" stop-color="#448AFF"/>
</linearGradient>
<linearGradient id="paint12_linear_22_19326" x1="88.5785" y1="111.53" x2="125.602" y2="111.53" gradientUnits="userSpaceOnUse">
<stop stop-color="#FF6E40"/>
<stop offset="1" stop-color="#E040FB"/>
</linearGradient>
<linearGradient id="paint13_linear_22_19326" x1="85.4629" y1="111.925" x2="125.248" y2="111.925" gradientUnits="userSpaceOnUse">
<stop stop-color="#FF6E40"/>
<stop offset="1" stop-color="#E040FB"/>
</linearGradient>
<linearGradient id="paint14_linear_22_19326" x1="-12.669" y1="215.311" x2="104.299" y2="215.311" gradientUnits="userSpaceOnUse">
<stop stop-color="#E040FB"/>
<stop offset="1" stop-color="#651FFF"/>
</linearGradient>
<linearGradient id="paint15_linear_22_19326" x1="-43.1193" y1="206.079" x2="60.4631" y2="206.079" gradientUnits="userSpaceOnUse">
<stop stop-color="#E040FB"/>
<stop offset="1" stop-color="#651FFF"/>
</linearGradient>
</defs>
</svg>
