<svg width="257" height="241" viewBox="0 0 257 241" fill="none" xmlns="http://www.w3.org/2000/svg">
<path d="M125.644 63.8616C122.589 56.4264 126.664 46.6467 138.039 45.46C138.039 45.46 139.105 35.1562 149.193 34.3133C149.193 34.3133 149.673 23.4246 161.656 22.9536C161.656 22.9536 164.072 17.2327 172.496 16.5716C173.889 16.4621 173.76 23.1727 168.745 26.0479C168.745 26.0479 171.246 32.9042 162.182 37.774C162.182 37.774 162.185 45.1697 154.579 49.5839C154.579 49.5839 159.441 60.472 146.558 69.1712C133.675 77.8703 125.644 63.8616 125.644 63.8616Z" fill="#FFE4C6"/>
<path opacity="0.54" d="M138.037 45.4609C126.243 46.9002 122.687 56.67 125.643 63.8625C125.643 63.8625 133.674 77.8713 146.557 69.1716C159.44 60.4725 154.578 49.5843 154.578 49.5843C154.676 49.5274 146.13 50.2048 138.037 45.4609Z" fill="#FFD3A2"/>
<path opacity="0.54" d="M161.654 22.9531C149.604 23.5758 149.191 34.3128 149.191 34.3128C148.605 34.3621 155.476 37.7785 162.18 37.773C169.568 34.108 169.516 28.1866 168.743 26.0469C165.69 26.1959 163.438 24.9904 161.654 22.9531Z" fill="#FFD3A2"/>
<path opacity="0.34" d="M158.896 31.7398C152.754 37.4465 148.147 44.2753 143.748 51.3649C140.086 57.2649 136.135 64.2055 131.105 69.6662C134.729 72.151 140.018 73.5875 146.558 69.1712C159.441 60.472 154.579 49.5839 154.579 49.5839C162.186 45.1691 162.182 37.774 162.182 37.774C171.247 32.9041 168.745 26.0479 168.745 26.0479C172.464 23.9158 173.494 19.6769 173.211 17.6719C169.057 22.9558 163.831 27.1558 158.896 31.7398Z" fill="#FFD3A2"/>
<path d="M118.631 58.2041C118.631 58.2041 115.325 66.4602 104.56 72.9922C93.7955 79.5242 86.0246 87.0716 84.1582 107.864C82.2917 128.656 73.5148 138.723 71.2185 141.988C68.9216 145.253 74.6501 168.543 101.263 181.014C127.876 193.485 130.03 201.118 141.532 198.538C153.034 195.958 154.431 188.647 153.786 187.25C153.141 185.852 144.666 176.391 142.722 158.652C140.778 140.913 146.073 139.292 141.759 126.395C141.759 126.395 149.995 130.433 157.266 134.383C164.537 138.333 180.132 137.02 185.505 126.764C190.878 116.508 188.619 106.413 187.813 105.171C187.007 103.93 166.441 90.9748 159.27 79.5998C152.098 68.2248 119.598 56.3075 118.631 58.2041Z" fill="#FAF7EF"/>
<path opacity="0.85" d="M142.721 158.653C140.777 140.914 146.072 139.294 141.758 126.397C141.758 126.397 128.529 127.208 117.185 119.201C93.9297 102.787 97.6675 87.0767 96.4593 78.8359C89.9875 84.6494 85.5142 92.7615 84.1582 107.866C82.2917 128.659 73.5148 138.725 71.2185 141.99C68.9216 145.255 74.6501 168.545 101.263 181.016C127.876 193.488 130.03 201.121 141.532 198.541C153.034 195.96 154.431 188.649 153.786 187.252C153.141 185.854 144.665 176.393 142.721 158.653Z" fill="#FAF7EF"/>
<path opacity="0.77" d="M139.088 189.829C133.92 182.53 129.817 174.407 126.937 165.942C123.97 157.222 123.732 147.943 120.162 139.415C115.966 129.392 110.469 120.039 106.55 109.871C95.186 97.0289 97.4353 85.4939 96.4593 78.8359C89.9875 84.6494 85.5142 92.7615 84.1582 107.866C82.2917 128.659 73.5148 138.725 71.2185 141.99C68.9216 145.255 74.6501 168.545 101.263 181.016C127.876 193.488 130.03 201.121 141.532 198.541C142.866 198.241 144.059 197.876 145.134 197.465C142.971 195.037 140.959 192.471 139.088 189.829Z" fill="#FAF7EF"/>
<path d="M78.9179 129.195C76.6806 128.718 67.8939 132.491 72.75 147.936C77.6067 163.38 97.0927 168 108.352 175.938C119.611 183.877 128.559 188.496 128.559 188.496C128.559 188.496 130.292 172.327 107.918 156.017C85.5457 139.708 78.9179 129.195 78.9179 129.195Z" fill="#E13F7D"/>
<path opacity="0.32" d="M100.507 163.135C94.031 158.982 87.9453 154.176 83.9852 147.446C80.6992 141.864 79.2703 135.554 78.7193 129.17C76.211 128.936 68.0261 132.913 72.7503 147.938C77.607 163.382 97.093 168.002 108.352 175.94C117.276 182.233 124.744 186.437 127.459 187.911C122.655 176.458 110.924 169.815 100.507 163.135Z" fill="#E13F7D"/>
<path d="M79.7013 83.1289C79.7013 83.1289 77.1749 96.4082 82.5157 111.42C87.8566 126.432 99.5482 129.533 108.209 140.901C116.869 152.27 117.056 163.922 117.056 163.922C117.056 163.922 104.549 156.225 92.6196 149.382C78.9384 141.535 72.3729 129.896 71.3099 110.41C70.2469 90.9233 79.7013 83.1289 79.7013 83.1289Z" fill="#FFE62F"/>
<path opacity="0.55" d="M96.6664 143.323C91.2927 137.581 85.3686 132.146 81.7436 125.052C75.0916 112.033 77.049 97.6306 79.5907 83.8135C79.6559 83.3704 79.7014 83.1289 79.7014 83.1289C79.7014 83.1289 70.2464 90.9233 71.31 110.41C72.373 129.896 78.9385 141.535 92.6197 149.382C98.5854 152.804 104.695 156.44 109.313 159.22C105.818 153.39 101.299 148.274 96.6664 143.323Z" fill="#FFE62F"/>
<path d="M71.3105 139.637C71.3105 139.637 64.9439 145.197 68.1472 159.426C71.351 173.655 84.5263 186.476 106.472 191.34C128.417 196.205 134.272 203.68 135.317 204.593C136.361 205.507 138.711 198.98 131.4 187.492C124.09 176.005 103.073 169.738 90.9323 163.603C78.7916 157.468 72.3127 148.383 71.3105 139.637Z" fill="#46D5C9"/>
<path opacity="0.3" d="M124.225 190.497C116.842 186.272 108.093 185.397 100.144 182.669C93.0425 180.233 86.4699 176.263 81.1488 170.946C74.0812 163.883 69.8302 154.854 68.1702 145.25C67.1981 148.424 66.7123 153.052 68.1466 159.423C71.3505 173.651 84.5257 186.473 106.471 191.337C128.416 196.202 134.272 203.676 135.316 204.59C135.84 205.049 136.693 203.632 136.488 200.656C132.999 196.598 128.806 193.119 124.225 190.497Z" fill="#46D5C9"/>
<path d="M132.447 60.0697C126.49 66.0585 130.977 76.9324 143.647 80.7042C156.316 84.476 169.293 78.2599 168.919 66.4134C168.895 65.6609 167.545 68.3291 160.831 69.8538C148.997 72.5412 141.866 50.6033 132.447 60.0697Z" fill="#7F48BB"/>
<path opacity="0.21" d="M156.337 73.8795C150.212 73.8559 143.979 71.7458 138.723 68.6969C135.752 66.9729 133.32 64.5845 130.82 62.2969C127.63 68.4516 132.427 77.3626 143.648 80.7034C155.547 84.2457 167.714 78.9777 168.842 68.5112C165.857 71.8367 161.695 73.9003 156.337 73.8795Z" fill="#7F48BB"/>
<path opacity="0.39" d="M114.602 97.2516C114.6 102.56 127.719 102.383 128.023 97.8447C128.299 93.7214 114.603 92.2947 114.602 97.2516Z" fill="#F76BD9"/>
<path d="M122.412 89.0559C123.533 90.4399 125.043 91.7685 126.958 91.4016C127.53 91.2921 127.407 90.3293 126.819 90.3764C125.178 90.5078 124.129 89.5007 123.156 88.3117C122.726 87.7865 121.989 88.5346 122.412 89.0559Z" fill="#7F48BB"/>
<path d="M126.762 87.0596C127.021 88.1659 127.873 89.2541 129.003 89.563C129.561 89.7158 129.942 88.8855 129.405 88.6089C128.605 88.1976 128.001 87.6899 127.769 86.7819C127.602 86.1307 126.609 86.4062 126.762 87.0596Z" fill="#7F48BB"/>
<path d="M130.663 85.6395C130.888 86.5152 131.434 87.2633 132.206 87.7349C132.797 88.0952 133.324 87.1806 132.746 86.8115C132.212 86.4703 131.839 85.9725 131.67 85.3624C131.492 84.7145 130.496 84.9872 130.663 85.6395Z" fill="#7F48BB"/>
<path d="M144.052 89.5554C141.598 87.1412 138.821 84.7885 135.141 85.4829C130.474 86.363 127.233 90.5045 122.591 91.7274C121.604 91.9875 122.021 93.4953 123.013 93.2559C126.306 92.4624 128.725 90.6781 131.517 88.8626C133.356 87.6654 135.544 86.5629 137.803 87.1089C139.864 87.6073 141.463 89.2536 142.922 90.6852C143.657 91.4059 144.787 90.2777 144.052 89.5554Z" fill="#7F48BB"/>
<path opacity="0.82" d="M173.043 114.539C171.304 114.545 171.118 119.204 173.043 119.204C174.797 119.204 174.731 114.534 173.043 114.539Z" fill="#FF8786"/>
<path opacity="0.82" d="M182.934 110.285C181.382 110.28 181.969 114.107 183.107 114.111C184.432 114.117 184.468 110.29 182.934 110.285Z" fill="#FF8786"/>
<path d="M105.464 62.1172C105.464 62.1172 91.3187 75.0438 95.3605 99.4379C99.4022 123.832 115.623 134.08 115.812 135.524C116.001 136.967 91.4781 138.405 82.521 115.457C73.5644 92.5094 87.209 65.286 105.464 62.1172Z" fill="#7F48BB"/>
<path opacity="0.21" d="M105.295 134.42C97.861 129.838 93.6094 120.886 91.6723 112.641C87.6196 95.3874 91.6822 76.1846 103.18 62.6484C86.0987 67.5791 73.9422 93.4777 82.5208 115.457C88.2089 130.03 100.173 134.767 108.101 135.915C107.139 135.472 106.2 134.979 105.295 134.42Z" fill="#7F48BB"/>
<path d="M104.022 59.8858C104.022 59.8858 92.7885 68.2712 95.23 83.3484C97.6715 98.4251 103.3 103.766 104.022 102.322C104.744 100.879 101.088 86.8776 107.896 77.7841C114.704 68.6901 119.824 67.5356 121.162 65.948C122.498 64.3603 114.993 50.0706 104.022 59.8858Z" fill="#46D5C9"/>
<path opacity="0.3" d="M99.1513 79.0139C102.719 70.4413 109.567 63.3254 117.9 59.2656C114.842 56.3126 109.936 54.5984 104.022 59.8894C104.022 59.8894 92.7885 68.2747 95.23 83.352C95.7662 86.6626 96.4563 89.5034 97.2142 91.9065C96.8725 87.6068 97.3796 83.2709 99.1513 79.0139Z" fill="#46D5C9"/>
<path d="M119.823 63.255C119.823 63.255 103.446 56.7104 92.3314 75.1859C81.2171 93.662 83.5107 116.851 88.3269 125.261C88.3269 125.261 74.3822 115.665 74.4063 90.9417C74.4309 65.8766 97.3836 45.6617 118.313 51.691L119.823 63.255Z" fill="#E13F7D"/>
<path opacity="0.32" d="M98.131 59.3033C77.9309 69.6493 74.4434 92.7291 79.2349 113.575C83.2553 121.765 88.324 125.262 88.324 125.262C83.5078 116.852 81.2142 93.6629 92.3285 75.1868C103.443 56.7112 119.82 63.2558 119.82 63.2558L118.773 55.2369C111.743 54.3727 104.376 56.1044 98.131 59.3033Z" fill="#E13F7D"/>
<path d="M119.06 67.4467C119.585 70.5613 130.797 70.1993 131.783 67.4467C132.769 64.6941 130.714 57.7503 125.129 52.0299C119.545 46.3089 116.323 46.6781 115.353 47.6765C114.384 48.6743 118.037 61.3829 119.06 67.4467Z" fill="#FAF7EF"/>
<path d="M121.158 56.471C120.37 56.9814 121.825 67.0273 122.888 67.4737C123.953 67.9195 126.641 67.5974 126.748 66.3071C126.855 65.0168 122.235 55.7744 121.158 56.471Z" fill="#FFC585"/>
<path d="M159.679 88.3927C162.124 91.9953 165.191 95.0107 168.841 97.3849C170.003 98.1407 171.081 96.2819 169.925 95.5299C166.591 93.3623 163.767 90.5993 161.533 87.3083C160.762 86.1714 158.9 87.2448 159.679 88.3927Z" fill="#FDFCF9"/>
<path d="M171.444 99.4366C172.386 100.205 173.382 100.873 174.474 101.409C174.992 101.664 175.631 101.549 175.937 101.025C176.211 100.557 176.076 99.8139 175.554 99.562C174.628 99.1162 173.741 98.5861 172.938 97.942C172.494 97.5849 171.878 97.5077 171.444 97.942C171.071 98.3144 170.999 99.074 171.444 99.4366Z" fill="#FDFCF9"/>
<path opacity="0.79" d="M165.104 22.2357C165.88 21.4071 166.8 20.7543 167.849 20.3151C168.471 20.0538 168.207 19.0242 167.564 19.2838C166.337 19.7794 165.253 20.5111 164.348 21.4799C163.878 21.9821 164.632 22.7396 165.104 22.2357Z" fill="#FFDAB2"/>
<path opacity="0.79" d="M169.64 19.3616C170.001 19.2997 170.343 19.1688 170.66 18.9864C171.257 18.643 170.715 17.7104 170.121 18.0625C169.88 18.2054 169.634 18.2914 169.359 18.3424C169.078 18.3944 168.918 18.7339 168.99 18.9924C169.072 19.2904 169.357 19.4098 169.64 19.3616Z" fill="#FFDAB2"/>
<path opacity="0.79" d="M141.848 42.5875C142.394 41.2671 143.289 40.1153 144.432 39.2582C144.981 38.8469 144.444 37.9104 143.888 38.3272C142.495 39.3711 141.473 40.6926 140.808 42.3005C140.543 42.9418 141.586 43.2206 141.848 42.5875Z" fill="#FFDAB2"/>
<path opacity="0.79" d="M146.052 38.0396C146.574 37.6984 147.135 37.3857 147.601 36.9689C147.785 36.8051 147.787 36.4979 147.64 36.3144C147.476 36.109 147.229 36.0778 146.997 36.1863C146.473 36.4305 145.997 36.8035 145.516 37.1233C144.95 37.499 145.476 38.4147 146.052 38.0396Z" fill="#FFDAB2"/>
<path opacity="0.79" d="M121.849 52.3159C123.494 53.9589 124.797 55.7881 126.007 57.763C126.36 58.3381 127.218 57.832 126.909 57.2361C125.816 55.1298 124.282 53.2278 122.609 51.5563C122.119 51.0672 121.36 51.8263 121.849 52.3159Z" fill="#FCFAF5"/>
<path opacity="0.79" d="M127.116 59.0504C127.406 59.8062 127.696 60.5625 127.987 61.3183C128.232 61.9574 129.272 61.6787 129.022 61.033C128.731 60.2777 128.439 59.522 128.148 58.7662C127.902 58.1309 126.869 58.4064 127.116 59.0504Z" fill="#FCFAF5"/>
<path opacity="0.5" d="M139.371 61.0006C139.978 61.3275 140.515 61.7268 141.013 62.2027C141.508 62.6764 142.251 61.9371 141.766 61.4491C141.222 60.9025 140.59 60.4425 139.911 60.0766C139.305 59.7502 138.764 60.6731 139.371 61.0006Z" fill="#AE8CD4"/>
<path opacity="0.5" d="M142.646 63.6119C144.276 65.5769 146.206 67.2188 148.402 68.5201C149 68.8744 149.543 67.9439 148.946 67.589C146.829 66.3305 144.977 64.7494 143.397 62.8616C142.957 62.3364 142.214 63.0905 142.646 63.6119Z" fill="#AE8CD4"/>
<path opacity="0.5" d="M97.1585 115.773C98.9806 120.528 101.42 124.985 104.572 128.991C104.938 129.455 105.757 128.832 105.399 128.353C102.412 124.367 99.9686 120.149 98.1777 115.492C97.9357 114.865 96.9143 115.137 97.1585 115.773Z" fill="#AE8CD4"/>
<path opacity="0.5" d="M105.647 130.731C106.115 131.425 106.705 131.996 107.384 132.481C107.62 132.649 107.982 132.522 108.118 132.287C108.276 132.02 108.164 131.72 107.926 131.553C107.398 131.182 106.935 130.719 106.541 130.208C106.37 129.988 106.095 129.869 105.832 130.023C105.603 130.157 105.49 130.499 105.647 130.731Z" fill="#AE8CD4"/>
<path opacity="0.5" d="M93.1954 59.9864C96.6002 57.4742 100.246 55.5004 104.199 53.9894C104.834 53.7468 104.564 52.7172 103.915 52.9581C99.8764 54.4527 96.1183 56.5043 92.6554 59.063C92.1083 59.4677 92.6401 60.396 93.1954 59.9864Z" fill="#F0A1BF"/>
<path opacity="0.5" d="M106.451 53.6956C107.226 53.43 107.964 53.3725 108.775 53.3506C109.462 53.3314 109.424 52.39 108.775 52.3111C107.913 52.2059 106.982 52.391 106.169 52.6731C105.528 52.8949 105.802 53.9179 106.451 53.6956Z" fill="#F0A1BF"/>
<path opacity="0.5" d="M109.458 163.575C112.686 165.393 115.477 167.714 117.924 170.489C118.377 171.002 119.108 170.255 118.672 169.742C116.229 166.862 113.287 164.498 110.001 162.648C109.397 162.308 108.855 163.235 109.458 163.575Z" fill="#F0A1BF"/>
<path opacity="0.5" d="M119.51 172.464C119.976 173.055 120.442 173.645 120.908 174.236C121.087 174.463 121.472 174.42 121.661 174.236C121.886 174.016 121.839 173.706 121.661 173.482C121.193 172.894 120.725 172.305 120.258 171.716C120.078 171.491 119.698 171.533 119.511 171.716C119.286 171.936 119.334 172.241 119.51 172.464Z" fill="#F0A1BF"/>
<path opacity="0.5" d="M105.066 77.6273C102.855 80.7025 101.467 84.156 100.94 87.9076C100.844 88.5867 101.884 88.8791 101.979 88.194C102.491 84.5191 103.822 81.1817 105.985 78.1646C106.386 77.6071 105.463 77.0753 105.066 77.6273Z" fill="#A4EAE5"/>
<path opacity="0.5" d="M100.742 90.4731C100.74 91.3483 100.716 92.2262 100.744 93.1008C100.766 93.7805 101.779 93.7816 101.801 93.1008C101.83 92.2262 101.806 91.3483 101.803 90.4731C101.801 89.7908 100.744 89.7897 100.742 90.4731Z" fill="#A4EAE5"/>
<path opacity="0.5" d="M93.693 170.302C100.283 173.035 106.868 175.778 113.466 178.489C114.419 178.88 114.827 177.337 113.891 176.949C107.306 174.206 100.709 171.494 94.1147 168.774C93.1716 168.385 92.763 169.917 93.693 170.302Z" fill="#A4EAE5"/>
<path opacity="0.5" d="M115.814 179.842C117.056 180.416 118.106 181.22 119.003 182.253C119.679 183.032 120.778 181.904 120.128 181.127C119.173 179.984 117.97 179.087 116.613 178.473C115.693 178.057 114.885 179.413 115.814 179.842Z" fill="#A4EAE5"/>
<path opacity="0.5" d="M101.229 138.337C103.273 140.766 105.167 143.299 106.959 145.919C107.537 146.764 108.921 145.973 108.344 145.109C106.507 142.359 104.498 139.728 102.368 137.199C101.699 136.404 100.565 137.548 101.229 138.337Z" fill="#FFF7BF"/>
<path opacity="0.5" d="M108.116 147.945C108.641 148.967 109.146 150.003 109.707 151.007C110.21 151.908 111.512 151.116 111.075 150.207C110.578 149.17 110.022 148.16 109.49 147.142C109.015 146.233 107.648 147.036 108.116 147.945Z" fill="#FFF7BF"/>
<path d="M124.758 13.0598C124.752 15.3786 127.929 15.4848 127.929 13.0154C127.93 11.0893 124.763 10.8872 124.758 13.0598Z" fill="#46D5C9"/>
<path d="M207.598 129.052C207.592 131.371 210.769 131.477 210.77 129.008C210.77 127.081 207.604 126.88 207.598 129.052Z" fill="#F996E4"/>
<path d="M232.625 9.39782C231.551 10.4247 233.234 12.8295 234.721 11.267C235.974 9.94932 234.34 7.75756 232.625 9.39782Z" fill="#F996E4"/>
<path d="M185.098 84.1812C184.832 85.6216 186.893 86.0471 187.087 84.61C187.28 83.1735 185.365 82.7409 185.098 84.1812Z" fill="#F996E4"/>
<path d="M254.86 177.505C254.593 178.946 256.655 179.371 256.848 177.935C257.042 176.497 255.126 176.065 254.86 177.505Z" fill="#46D5C9"/>
<path d="M231.777 206.291C231.562 207.459 233.233 207.804 233.389 206.638C233.546 205.474 231.993 205.122 231.777 206.291Z" fill="#F996E4"/>
<path d="M248.707 118.357C248.49 119.524 250.162 119.87 250.319 118.705C250.476 117.54 248.922 117.189 248.707 118.357Z" fill="#46D5C9"/>
<path d="M249.531 46.5174C249.315 47.685 250.987 48.0306 251.143 46.8652C251.3 45.6997 249.746 45.3492 249.531 46.5174Z" fill="#46D5C9"/>
<path d="M106.738 35.0289C106.522 36.1971 108.194 36.5421 108.351 35.3767C108.507 34.2112 106.954 33.8613 106.738 35.0289Z" fill="#F996E4"/>
<path d="M188.925 174.447C188.71 175.615 190.381 175.96 190.538 174.795C190.695 173.629 189.141 173.279 188.925 174.447Z" fill="#46D5C9"/>
<path d="M163.031 165.564C162.766 167.004 164.827 167.43 165.021 165.993C165.214 164.556 163.298 164.124 163.031 165.564Z" fill="#F996E4"/>
<path d="M226.722 74.569C224.665 76.6639 227.618 79.8918 229.828 77.768C231.567 76.0959 229.068 72.1796 226.722 74.569Z" fill="#46D5C9"/>
<path d="M246.679 236.765C248.234 238.855 251.512 236.442 249.979 234.224C248.446 232.006 245.025 234.541 246.679 236.765Z" fill="#46D5C9"/>
<path d="M225.734 94.5703C225.734 94.5703 232.332 127.203 228.257 150.769C223.163 180.218 209.188 191.248 209.188 191.248L227.596 182.45C227.596 182.45 237.253 167.993 238.93 139.329C240.564 111.4 235.898 99.2069 235.898 99.2069L232.581 104.682L225.734 94.5703Z" fill="#F76BD9"/>
<path opacity="0.35" d="M236.914 102.816C236.869 104.738 236.79 106.66 236.677 108.58C235.89 121.867 233.53 135.874 228.591 148.644C228.488 149.359 228.377 150.068 228.257 150.768C223.163 180.218 209.188 191.248 209.188 191.248L227.596 182.45C227.596 182.45 237.253 167.993 238.93 139.329C240.058 120.041 238.183 108.261 236.914 102.816Z" fill="#F76BD9"/>
<path d="M237.209 151.254C237.209 151.254 231.759 166.356 209.187 191.249C201.062 200.209 190.845 206.465 180.828 210.826V222.497C189.788 219.144 199.129 214.276 207.618 207.208C237.351 182.451 237.485 146.156 237.209 151.254Z" fill="#FAA3E7"/>
<path d="M216.241 187.461C221.397 183.604 226.367 179.47 231.078 175.062C237.391 159.891 237.374 148.214 237.21 151.254C237.21 151.254 231.76 166.356 209.188 191.249C208.113 192.434 207.001 193.568 205.859 194.66C209.407 192.41 212.857 189.994 216.241 187.461Z" fill="#F886E0"/>
<path opacity="0.79" d="M228.668 104.483C228.8 105.727 228.931 106.972 229.062 108.215C229.145 108.996 230.378 109.005 230.295 108.215C230.163 106.971 230.032 105.727 229.9 104.483C229.818 103.703 228.585 103.694 228.668 104.483Z" fill="#FBB5EC"/>
<path opacity="0.79" d="M229.415 110.926C229.577 114.453 229.872 117.966 230.297 121.472C230.391 122.249 231.625 122.258 231.529 121.472C231.104 117.966 230.81 114.453 230.647 110.926C230.611 110.136 229.379 110.132 229.415 110.926Z" fill="#FBB5EC"/>
<path d="M218.141 39.8561C217.375 39.8819 211.914 34.6276 210.885 35.2552C209.855 35.8828 210.876 42.2456 210.409 43.2654C209.94 44.2939 203.909 47.6598 204.181 48.9595C204.454 50.2591 211.354 50.2361 212.145 51.1501C212.906 52.028 213.747 59.3366 215.005 59.4407C216.595 59.5716 219.174 53.3085 219.884 52.7126C220.741 51.9919 227.201 54.0862 228.099 52.8369C229.12 51.4152 223.316 46.8871 223.168 45.9517C223.041 45.146 225.977 38.9826 225.468 38.2192C224.579 36.8867 219.248 39.8189 218.141 39.8561Z" fill="#FFE62F"/>
<path opacity="0.7" d="M223.169 45.9546C223.042 45.149 225.978 38.985 225.469 38.2221C224.974 37.4795 223.1 38.0611 221.346 38.7276C220.666 44.287 217.415 49.7593 212.934 53.6154C213.504 56.0541 214.161 59.3736 215.006 59.4437C216.596 59.5745 219.175 53.3114 219.885 52.7156C220.742 51.9948 227.202 54.0891 228.1 52.8399C229.121 51.4181 223.317 46.89 223.169 45.9546Z" fill="#FFE62F"/>
<path d="M211.613 39.8764C211.613 40.9997 211.613 42.1235 211.613 43.2468C211.613 44.0398 212.846 44.0409 212.846 43.2468C212.846 42.1235 212.846 40.9997 212.846 39.8764C212.846 39.0834 211.613 39.0823 211.613 39.8764Z" fill="#FFFCE6"/>
<path d="M210.183 47.1502C210.907 46.6408 211.602 46.0921 212.263 45.5033C212.856 44.9748 211.982 44.1057 211.391 44.632C210.809 45.1517 210.2 45.6364 209.561 46.086C208.918 46.539 209.533 47.608 210.183 47.1502Z" fill="#FFFCE6"/>
<path d="M198.292 233.384C198.126 233.039 199.427 229.48 198.932 229.136C198.436 228.792 195.733 230.544 195.172 230.537C194.607 230.529 191.849 228.45 191.309 228.837C190.77 229.224 192.174 232.376 191.915 232.922C191.667 233.447 188.494 235.308 188.701 235.904C188.962 236.658 192.347 236.573 192.764 236.777C193.266 237.024 193.613 240.402 194.366 240.56C195.222 240.74 196.121 237.17 196.52 236.915C196.862 236.694 200.274 236.791 200.521 236.405C200.951 235.729 198.533 233.883 198.292 233.384Z" fill="#FFE62F"/>
<path opacity="0.7" d="M198.294 233.383C198.128 233.038 199.428 229.479 198.933 229.134C198.755 229.01 198.287 229.161 197.738 229.401C196.89 232.305 195.29 234.982 193.082 237.336C193.441 238.365 193.781 240.436 194.368 240.559C195.224 240.739 196.123 237.169 196.521 236.913C196.864 236.693 200.276 236.79 200.523 236.404C200.953 235.728 198.535 233.882 198.294 233.383Z" fill="#FFE62F"/>
<path d="M191.836 235.338C192.323 234.948 192.81 234.558 193.298 234.167C193.558 233.959 193.515 233.514 193.298 233.296C193.041 233.039 192.687 233.087 192.426 233.296C191.939 233.687 191.452 234.077 190.965 234.467C190.704 234.675 190.747 235.121 190.965 235.338C191.221 235.595 191.576 235.547 191.836 235.338Z" fill="#FFFCE6"/>
<path d="M192.373 231.406C192.523 231.756 192.674 232.105 192.825 232.454C192.956 232.76 193.405 232.829 193.667 232.675C193.983 232.49 194.021 232.139 193.888 231.832C193.738 231.483 193.587 231.134 193.437 230.784C193.305 230.478 192.856 230.41 192.594 230.564C192.278 230.748 192.24 231.1 192.373 231.406Z" fill="#FFFCE6"/>
<path d="M192.765 21.509C195.35 21.4877 199.854 16.0149 197.672 14.31C195.802 12.8493 193.128 17.2186 193.128 17.2186C193.128 17.2186 191.969 11.9358 189.796 13.4304C187.624 14.925 190.743 21.5255 192.765 21.509Z" fill="#F76BD9"/>
<path opacity="0.34" d="M197.673 14.3113C197.492 14.17 197.304 14.0846 197.111 14.043C196.039 16.8596 194.084 19.2573 191.555 20.8981C191.969 21.2837 192.387 21.5131 192.766 21.5104C195.351 21.489 199.856 16.0162 197.673 14.3113Z" fill="#F76BD9"/>
<path opacity="0.79" d="M190.059 16.4315C190.228 17.0706 190.43 17.6993 190.663 18.3187C190.847 18.8094 191.641 18.5964 191.455 18.1002C191.222 17.4808 191.021 16.8526 190.85 16.2129C190.715 15.7025 189.923 15.9194 190.059 16.4315Z" fill="#FDD7F5"/>
<path opacity="0.79" d="M190.784 15.1325C190.756 15.0564 190.725 14.9808 190.737 14.897C190.769 14.6763 190.681 14.4578 190.45 14.3921C190.256 14.3368 189.978 14.46 189.945 14.6791C189.91 14.9162 189.907 15.1232 189.992 15.351C190.175 15.8418 190.969 15.6293 190.784 15.1325Z" fill="#FDD7F5"/>
<path d="M95.4729 1.55991C95.4789 3.87873 92.3013 3.98498 92.3008 1.5161C92.3008 -0.41114 95.4668 -0.612681 95.4729 1.55991Z" fill="#46D5C9"/>
<path d="M42.8908 136.119C42.8963 138.437 39.7193 138.544 39.7188 136.075C39.7188 134.147 42.8854 133.946 42.8908 136.119Z" fill="#F996E4"/>
<path d="M24.8742 9.39782C25.9476 10.4247 24.2647 12.8295 22.7783 11.267C21.5252 9.94932 23.1595 7.75756 24.8742 9.39782Z" fill="#F996E4"/>
<path d="M67.4359 65.4312C67.7021 66.8716 65.6407 67.2971 65.4473 65.86C65.2535 64.4235 67.1698 63.9909 67.4359 65.4312Z" fill="#F996E4"/>
<path d="M13.6585 172.759C13.9247 174.199 11.8633 174.625 11.6699 173.188C11.4766 171.751 13.3923 171.319 13.6585 172.759Z" fill="#46D5C9"/>
<path d="M33.6899 207.186C33.9057 208.353 32.2342 208.699 32.0776 207.533C31.9204 206.367 33.4741 206.017 33.6899 207.186Z" fill="#F996E4"/>
<path d="M54.1318 106.798C54.3475 107.966 52.6761 108.311 52.5189 107.146C52.3623 105.981 53.916 105.631 54.1318 106.798Z" fill="#46D5C9"/>
<path d="M7.9716 46.5174C8.18739 47.685 6.51536 48.0306 6.35873 46.8652C6.20209 45.6997 7.75582 45.3492 7.9716 46.5174Z" fill="#46D5C9"/>
<path d="M165.714 3.15802C165.93 4.32565 164.258 4.67123 164.101 3.50579C163.944 2.34036 165.498 1.98985 165.714 3.15802Z" fill="#F996E4"/>
<path d="M65.7217 180.623C65.9375 181.79 64.266 182.136 64.1088 180.971C63.9516 179.805 65.5059 179.455 65.7217 180.623Z" fill="#46D5C9"/>
<path d="M2.86554 120.935C3.1317 122.375 1.07028 122.801 0.876958 121.364C0.683632 119.927 2.59937 119.495 2.86554 120.935Z" fill="#F996E4"/>
<path d="M32.1905 72.2448C34.247 74.3396 31.294 77.5676 29.0847 75.4437C27.3459 73.7717 29.8449 69.8553 32.1905 72.2448Z" fill="#46D5C9"/>
<path d="M10.8271 236.765C9.27279 238.855 5.99391 236.442 7.52738 234.224C9.06029 232.006 12.481 234.541 10.8271 236.765Z" fill="#46D5C9"/>
<path d="M31.7696 94.5703C31.7696 94.5703 25.1719 127.203 29.247 150.769C34.3403 180.218 48.3163 191.248 48.3163 191.248L29.9075 182.45C29.9075 182.45 20.2505 167.993 18.5736 139.329C16.9399 111.4 21.6049 99.2069 21.6049 99.2069L24.9227 104.682L31.7696 94.5703Z" fill="#F76BD9"/>
<path opacity="0.35" d="M20.5898 102.816C20.6353 104.738 20.7141 106.66 20.8275 108.58C21.6139 121.867 23.9738 135.874 28.9121 148.644C29.0151 149.359 29.1257 150.068 29.2468 150.768C34.3401 180.218 48.316 191.248 48.316 191.248L29.9078 182.45C29.9078 182.45 20.2508 167.993 18.5738 139.329C17.4451 120.041 19.3209 108.261 20.5898 102.816Z" fill="#F76BD9"/>
<path d="M76.1851 210.612C66.3271 206.261 56.3114 200.063 48.3198 191.249C25.7477 166.356 20.2974 151.254 20.2974 151.254C20.0219 146.156 20.1555 182.451 49.8889 207.209C58.2222 214.148 67.3764 218.964 76.1851 222.311V210.612Z" fill="#FAA3E7"/>
<path d="M41.2652 187.461C36.1095 183.604 31.1394 179.47 26.4295 175.062C20.116 159.891 20.133 148.214 20.2973 151.254C20.2973 151.254 25.7477 166.356 48.3197 191.249C49.3937 192.434 50.5066 193.568 51.6479 194.66C48.099 192.41 44.6498 189.994 41.2652 187.461Z" fill="#F886E0"/>
<path opacity="0.79" d="M27.6009 104.483C27.4695 105.727 27.3386 106.972 27.2072 108.215C27.1239 109.003 28.3567 108.997 28.4394 108.215C28.5708 106.971 28.7017 105.727 28.8332 104.483C28.9164 103.695 27.6836 103.701 27.6009 104.483Z" fill="#FBB5EC"/>
<path opacity="0.79" d="M26.8557 110.926C26.6931 114.453 26.3995 117.966 25.974 121.472C25.8787 122.257 27.112 122.25 27.2062 121.472C27.6318 117.966 27.9253 114.453 28.088 110.926C28.1247 110.133 26.8924 110.135 26.8557 110.926Z" fill="#FBB5EC"/>
<path d="M39.36 39.8561C40.125 39.8819 45.5864 34.6276 46.616 35.2552C47.6456 35.8828 46.6242 42.2456 47.0908 43.2654C47.5613 44.2939 53.5922 47.6598 53.3194 48.9595C53.0467 50.2591 46.1472 50.2361 45.3558 51.1501C44.5951 52.028 43.7533 59.3366 42.4959 59.4407C40.9055 59.5716 38.326 53.3085 37.6173 52.7126C36.7596 51.9919 30.2994 54.0862 29.4017 52.8369C28.3803 51.4152 34.1845 46.8871 34.3324 45.9517C34.46 45.146 31.5239 38.9826 32.0327 38.2192C32.9216 36.8867 38.2531 39.8189 39.36 39.8561Z" fill="#FFE62F"/>
<path opacity="0.7" d="M34.3324 45.9546C34.4594 45.149 31.5234 38.985 32.0327 38.2221C32.5278 37.4795 34.4019 38.0611 36.1561 38.7276C36.8358 44.287 40.0873 49.7593 44.5683 53.6154C43.9976 56.0541 43.3404 59.3736 42.4959 59.4437C40.9055 59.5745 38.326 53.3114 37.6173 52.7156C36.7596 51.9948 30.2994 54.0891 29.4017 52.8399C28.3803 51.4181 34.1845 46.89 34.3324 45.9546Z" fill="#FFE62F"/>
<path d="M44.6562 39.8764C44.6562 40.9997 44.6562 42.1235 44.6562 43.2468C44.6562 44.0398 45.8885 44.0409 45.8885 43.2468C45.8885 42.1235 45.8885 40.9997 45.8885 39.8764C45.8885 39.0834 44.6562 39.0823 44.6562 39.8764Z" fill="#FFFCE6"/>
<path d="M47.9424 46.0861C47.3033 45.6365 46.6954 45.1518 46.1121 44.632C45.5217 44.1057 44.6476 44.9743 45.2408 45.5034C45.9018 46.0921 46.5962 46.6409 47.3203 47.1502C47.9703 47.607 48.5865 46.539 47.9424 46.0861Z" fill="#FFFCE6"/>
<path d="M59.2092 233.384C59.3757 233.039 58.075 229.48 58.5701 229.136C59.0652 228.792 61.769 230.544 62.3298 230.537C62.895 230.529 65.6531 228.45 66.1925 228.837C66.732 229.224 65.3278 232.376 65.5863 232.922C65.8344 233.447 69.0075 235.308 68.8005 235.904C68.5393 236.658 65.1536 236.573 64.7379 236.777C64.2352 237.024 63.8885 240.402 63.1355 240.56C62.2795 240.74 61.3802 237.17 60.982 236.915C60.6397 236.694 57.2272 236.791 56.9808 236.405C56.5509 235.729 58.9688 233.883 59.2092 233.384Z" fill="#FFE62F"/>
<path opacity="0.7" d="M59.2092 233.383C59.3757 233.038 58.075 229.479 58.5701 229.134C58.7486 229.01 59.2163 229.161 59.7651 229.401C60.6129 232.305 62.2132 234.982 64.4208 237.336C64.0616 238.365 63.722 240.436 63.1355 240.559C62.2795 240.739 61.3802 237.169 60.982 236.913C60.6397 236.693 57.2272 236.79 56.9808 236.404C56.5509 235.728 58.9688 233.882 59.2092 233.383Z" fill="#FFE62F"/>
<path d="M66.5356 234.465C66.0482 234.075 65.5613 233.685 65.0739 233.294C64.8143 233.087 64.4561 233.041 64.2025 233.294C63.9873 233.51 63.9413 233.957 64.2025 234.166C64.69 234.556 65.1768 234.947 65.6643 235.337C65.9238 235.545 66.282 235.59 66.5356 235.337C66.7508 235.121 66.7968 234.675 66.5356 234.465Z" fill="#FFFCE6"/>
<path d="M64.0652 230.784C63.9146 231.134 63.764 231.483 63.6134 231.832C63.4819 232.138 63.523 232.493 63.8346 232.675C64.0948 232.827 64.545 232.761 64.6775 232.454C64.8281 232.105 64.9787 231.756 65.1293 231.406C65.2608 231.101 65.2197 230.746 64.9081 230.564C64.6479 230.411 64.1977 230.476 64.0652 230.784Z" fill="#FFFCE6"/>
<path d="M64.7361 21.509C62.1511 21.4877 57.6471 16.0149 59.829 14.31C61.6992 12.8493 64.373 17.2186 64.373 17.2186C64.373 17.2186 65.5318 11.9358 67.7044 13.4304C69.8765 14.925 66.7575 21.5255 64.7361 21.509Z" fill="#F76BD9"/>
<path opacity="0.34" d="M59.829 14.3113C60.0097 14.17 60.1981 14.0846 60.3909 14.043C61.4632 16.8596 63.4184 19.2573 65.9475 20.8981C65.5329 21.2837 65.115 21.5131 64.7361 21.5104C62.1511 21.489 57.6471 16.0162 59.829 14.3113Z" fill="#F76BD9"/>
<path opacity="0.79" d="M66.6549 16.2134C66.4846 16.8525 66.2841 17.4813 66.0514 18.1007C65.8657 18.5963 66.6593 18.8099 66.8438 18.3192C67.0761 17.6998 67.2776 17.0716 67.4474 16.4319C67.5832 15.9199 66.7907 15.7019 66.6549 16.2134Z" fill="#FDD7F5"/>
<path opacity="0.79" d="M67.5115 15.347C67.5964 15.1191 67.5942 14.9121 67.5592 14.675C67.5263 14.4559 67.2492 14.3332 67.0537 14.388C66.8187 14.4537 66.7338 14.6722 66.7667 14.8929C66.7793 14.9762 66.7475 15.0523 66.719 15.1284C66.5345 15.6252 67.328 15.8393 67.5115 15.347Z" fill="#FDD7F5"/>
</svg>
