<svg width="244" height="256" viewBox="0 0 244 256" fill="none" xmlns="http://www.w3.org/2000/svg">
<path d="M207.937 47.1677C217.237 45.0409 218.616 37.7662 222.05 30.5277C215.279 35.8796 207.501 38.8654 199.023 40.2679C198.222 39.7093 197.433 39.1785 196.65 38.6628C199.738 21.6502 228.866 16.165 228.866 16.165C242.223 35.8472 221.821 59.0851 221.821 59.0851L228.189 63.6571C263.01 27.7843 226.885 0 226.885 0L189.423 19.5264C189.414 19.4579 189.384 19.3947 189.312 19.3435C187.833 18.288 145.921 4.57199 130.501 5.27515L121.768 11.3543L113.606 5.6734C98.186 4.97025 56.2747 18.6862 54.7953 19.7417C54.7231 19.7929 54.6937 19.8561 54.6847 19.9247L17.2219 0.398252C17.2219 0.398252 -18.9024 28.1826 15.9187 64.0554L22.2862 59.4834C22.2862 59.4834 1.88426 36.2455 15.2411 16.5632C15.2411 16.5632 44.3693 22.0484 47.4574 39.0611C46.6745 39.576 45.8847 40.1068 45.0845 40.6661C36.6067 39.2629 28.8284 36.2778 22.0574 30.9259C25.4903 38.1645 26.8703 45.4392 36.1708 47.5659C26.0813 56.1378 14.943 68.2028 3.1927 85.1575L12.6318 86.5645C12.6318 86.5645 -0.976531 121.734 14.0087 145.65L22.2877 135.802C22.2877 135.802 16.5925 151.628 61.7395 190.315C61.7395 190.315 59.4396 166.048 73.6736 168.158L81.9766 190.315L80.09 194.39C79.411 195.174 78.5422 195.89 77.4167 196.513C74.1682 198.309 69.746 198.047 66.8197 196.456C66.4343 209.753 65.2982 229.293 78.7997 238.671C78.0122 236.507 78.092 233.784 79.2506 231.802C84.6138 248.206 103.841 256.366 121.708 255.987C131.192 255.786 145.507 252.751 152.657 246.834C156.9 243.322 158.537 237.741 161.017 233.138C162.826 234.963 161.507 238.395 160.832 240.545C170.416 234.662 174.449 225.969 175.58 215.854C176.277 209.626 177.986 201.297 175.447 195.235C175.615 198.272 171.356 198.58 168.811 197.831C166.958 197.285 165.43 196.009 164.25 194.49L162.133 189.917L170.436 167.76C184.67 165.65 182.37 189.917 182.37 189.917C227.517 151.23 221.822 135.404 221.822 135.404L230.101 145.251C245.086 121.336 231.478 86.1663 231.478 86.1663L240.917 84.7592C229.164 67.8045 218.026 55.7388 207.937 47.1677ZM121.311 156.095L123.119 128.061L124.277 154.995C123.231 155.169 122.242 155.548 121.311 156.095ZM173.976 28.1886C163.537 25.504 157.387 27.0811 157.387 27.0811C140.891 28.4679 126.727 35.1222 121.474 37.8739C113.528 34.0758 100.099 28.6049 86.7195 27.4794C86.7195 27.4794 80.5696 25.9022 70.1307 28.5868L65.8041 25.7208L83.9521 15.8729L78.4165 24.6653C94.2065 15.8111 115.946 24.447 121.407 26.8794V27.0804C121.407 27.0804 121.492 27.039 121.623 26.9758C122.315 27.2882 122.7 27.4786 122.7 27.4786V26.4811C128.16 24.0487 149.9 15.4121 165.69 24.267L160.155 15.4746L178.302 25.3218L173.976 28.1886Z" fill="#282828"/>
<path d="M225.564 123.478C221.415 122.507 212.404 118.17 209.618 115.114C210.258 131.578 202.12 147.501 192.604 161.496C191.799 160.856 190.602 159.584 189.141 157.996C190.767 152.989 188.524 145.762 190.782 140.816C193.334 135.222 199.222 132.61 202.813 127.905C211.418 116.62 202.323 101.894 203.475 89.555C202.587 95.4045 207.194 116.522 197.498 127.573C193.493 132.143 186.755 133.799 183.977 139.001C181.703 143.248 180.95 146.718 181.342 149.842C179.535 148.133 177.683 146.575 175.884 145.423C175.891 145.273 175.899 145.107 175.906 144.941C176.373 136.397 177.803 132.903 184.353 127.205C192.657 119.977 195.631 115.912 195.473 105.38C195.36 98.0094 194.795 86.7996 191.919 81.5222C191.897 95.1034 194.313 111.997 181.236 121.204C175.793 125.036 168.483 125.616 166.067 132.241C164.501 136.555 164.275 145.431 164.297 151.303C164.297 151.31 164.297 151.31 164.297 151.318C163.251 153.531 162.107 155.624 160.819 156.641C154.94 161.27 150.317 161.557 143.097 161.677C143.926 171.118 143.67 177.901 136.766 188.644C138.242 183.178 139.077 170.666 135.464 167.85C133.732 166.503 130.871 166.066 127.762 165.976C127.74 166.179 127.717 166.382 127.672 166.586C122.425 166.826 112.6 165.17 108.64 168.249C105.026 171.065 103.122 184.036 104.695 188.568C98.281 180.009 96.429 168.167 101.006 162.076C93.794 161.956 89.1716 161.669 83.2844 157.04C81.997 156.016 80.8527 153.938 79.7987 151.724C79.8063 151.717 79.7987 151.709 79.7987 151.709C79.8289 145.83 79.6105 136.954 78.0371 132.64C75.628 126.015 68.3179 125.435 62.8674 121.603C49.7981 112.396 52.2071 95.5024 52.1921 81.9212C49.3162 87.1911 48.7516 98.4084 48.6387 105.779C48.4731 116.311 51.4468 120.376 59.7581 127.604C66.3003 133.295 67.7307 136.796 68.205 145.34C68.2125 145.506 68.2201 145.664 68.2276 145.815C68.2276 145.815 68.2276 145.815 68.2276 145.822C66.4283 146.974 64.5688 148.532 62.7544 150.241C63.1534 147.117 62.4081 143.647 60.1346 139.4C57.349 134.198 50.6111 132.542 46.606 127.972C36.917 116.913 41.5168 95.8035 40.6285 89.954C41.7803 102.293 32.6935 117.019 41.2985 128.304C44.8895 133.009 50.7692 135.621 53.3213 141.215C55.5799 146.161 53.3364 153.388 54.9625 158.395C53.502 159.983 52.305 161.255 51.4995 161.895C41.9836 147.9 33.8454 131.977 34.4853 115.513C31.7073 118.569 22.6883 122.906 18.5477 123.877C15.4761 107.766 30.1264 91.7984 40.5381 80.6338C31.9256 78.029 23.2379 78.4732 28.9218 68.1894C31.9558 62.7087 40.5005 58.154 46.4103 55.9256C60.4357 50.6332 73.5878 52.5905 88.4037 52.8013C82.3509 49.6093 79.0384 44.0609 71.9918 41.6217C84.3609 41.8852 114.67 44.5427 121.935 56.8667C128.778 44.2039 159.615 41.4937 172.112 41.2227C165.073 43.6694 161.753 49.2103 155.708 52.4023C170.516 52.1915 183.676 50.2341 197.693 55.5266C203.611 57.755 212.155 62.3097 215.182 67.7904C220.866 78.0742 212.186 77.63 203.573 80.2348C213.977 91.3994 228.635 107.375 225.564 123.478Z" fill="#FFF3D2"/>
<path d="M131.876 211.314C148.425 209.934 147.115 197.96 147.14 188.57C139.437 203.34 133.722 205.686 121.699 205.305C109.782 204.928 100.72 205.187 95.0626 188.57C91.9263 191.035 95.6995 201.375 97.5658 203.846C100.128 207.238 100.649 213.916 131.876 211.314Z" fill="#FFF3D2"/>
<path d="M157.753 200.489C155.303 206.987 148.718 220.966 136.148 220.796C123.331 220.622 114.078 220.947 105.533 220.796C97.6375 220.656 95.7629 219.147 90.8559 213.48C87.1979 209.256 87.2596 202.552 84.0781 199.422C83.8259 200.987 83.4314 202.473 83.0226 204.107C80.1656 204.531 78.4228 202.317 75.9219 202.079C73.4277 207.77 75.0448 219.127 78.6306 224.018C78.7608 222.145 78.9995 220.201 79.8171 218.46C81.9807 219.213 82.9248 223.63 84.0789 225.599C85.9828 228.848 88.6117 231.901 91.4153 234.614C96.8764 239.899 105.925 243.529 113.904 244.234C119.97 244.77 126.687 244.869 132.054 242.171C138.924 238.716 140.252 233.081 142.935 227.182C144.453 230.173 144.207 234.079 144.349 237.298C151.366 232.054 157.285 228.267 159.938 219.746C160.863 216.775 160.932 202.573 157.753 200.489Z" fill="#FFF3D2"/>
<path d="M95.8124 146.352C95.5707 149.495 96.5735 152.291 98.9721 154.582C101.698 157.188 104.289 156.586 107.052 157.971C111.85 160.377 112.991 165.973 115.572 169.879C118.656 167.455 115.309 158.484 116.729 154.864C110.39 154.458 95.6167 152.735 95.8124 146.352Z" fill="#282828"/>
<path d="M102.899 67.793C91.4203 70.7991 86.971 86.0795 88.3661 95.6955C85.2696 91.7649 82.0038 87.878 77.1006 85.2265C70.3017 81.5504 64.0937 81.4013 56.0195 81.1882C69.2085 87.4767 52.1793 104.157 70.8768 110.736C82.1363 114.698 94.3112 108.237 99.5442 119.583C100.728 129.521 91.3676 141.278 102.698 149.234C102.227 141.349 105.799 138.299 107.367 131.114C109.206 122.688 106.512 114.94 102.565 107.752C95.847 95.5208 93.8023 78.2416 102.899 67.793Z" fill="#282828"/>
<path d="M188.086 80.7937C180.011 81.006 173.804 81.1558 167.005 84.8319C162.101 87.4835 158.836 91.3704 155.739 95.3009C157.134 85.6857 152.686 70.4045 141.207 67.3984C150.304 77.8471 148.259 95.1263 141.541 107.358C137.594 114.545 134.9 122.293 136.739 130.719C138.307 137.904 141.879 140.954 141.409 148.84C152.739 140.884 143.379 129.127 144.562 119.189C149.795 107.843 161.97 114.303 173.23 110.342C191.926 103.763 174.897 87.0822 188.086 80.7937Z" fill="#282828"/>
<path d="M148.291 145.953C148.533 149.097 147.53 151.892 145.131 154.184C142.405 156.79 139.814 156.187 137.052 157.572C132.253 159.979 131.113 165.574 128.531 169.481C125.447 167.057 128.795 158.085 127.374 154.465C133.714 154.06 148.487 152.336 148.291 145.953Z" fill="#282828"/>
<path d="M175.182 88.2781C178.909 93.0187 175.849 100.011 170.691 102.887C165.038 106.039 157.64 105.295 151.52 107.851C152.024 104.292 157.998 98.7772 160.938 96.9922C163.717 95.3051 166.505 93.8845 169.038 91.9406C171.087 90.3687 172.668 87.7955 175.182 88.2781Z" fill="#FFF3D2"/>
<path d="M132.617 161.714C130.667 162.726 130.128 166.301 127.408 167.532C125.553 168.373 122.983 168.769 120.366 168.699C116.581 167.471 114.723 165.399 112.084 163.215C107.277 159.237 103.726 160.5 98.2773 161.351C104.603 163.134 103.929 167.66 107.433 171.22C110.985 174.83 117.637 175.366 121.411 172.386C123.675 175.314 128.245 175.452 132.339 173.688C136.949 171.7 138.425 167.247 140.601 163.533C137.676 163.456 134.594 160.687 132.617 161.714Z" fill="#FFF3D2"/>
<path d="M120.181 65.3552C117.293 58.9139 109.519 52.9823 101.859 51.1122C106.424 49.7646 115.066 52.9145 119.232 55.0413C119.328 53.9444 118.741 51.643 119.313 50.7283C120.299 49.1533 125.123 47.9209 126.968 46.9023C126.606 48.7619 125.407 51.3441 124.356 53.1479C127.841 49.6103 136.533 49.8617 140.626 51.5805C137.846 51.3667 132.626 53.7938 129.968 54.7981C127.209 55.8408 125.246 57.4127 123.504 59.5794C121.326 62.2866 121.059 64.3607 120.181 65.3552Z" fill="#282828"/>
<path d="M140.317 62.6477C144.279 62.193 144.006 63.0445 143.055 63.6197C139.415 64.1865 136.558 66.2614 132.952 67.1271C133.128 64.252 134.076 61.2761 136.099 59.1192C132.93 61.2542 129.433 63.0949 126.554 65.6079C124.688 67.2371 122.169 69.613 120.31 72.1757C117.658 67.6609 113.942 63.4473 109.887 61.9574C111.953 63.4962 113.336 65.8104 114.207 67.9093C109.001 67.8694 105.655 64.7354 101.05 64.0179C100.1 63.4427 99.8259 62.5913 103.788 63.046C92.1589 55.3151 74.7217 59.1041 61.1562 56.8787C69.2327 63.7333 84.693 62.3571 94.5221 66.107C102.724 69.2366 109.557 75.6997 114.109 82.7222C114.898 84.8031 115.936 86.9087 116.55 88.3557C118.276 92.421 120.347 96.3411 122.256 100.356C123.341 97.4191 124.105 94.3077 124.454 91.1578C126.109 88.175 136.147 67.3951 149.583 65.7088C160.174 64.38 174.873 63.3351 182.949 56.4805C169.383 58.7066 151.946 54.9168 140.317 62.6477Z" fill="#282828"/>
<path d="M68.9267 88.6726C65.1994 93.4132 68.2597 100.406 73.4181 103.281C79.0712 106.434 86.4686 105.689 92.5892 108.246C92.0848 104.686 86.111 99.1717 83.1704 97.3867C80.3917 95.6996 77.6039 94.2783 75.0706 92.3352C73.0207 90.7633 71.4404 88.19 68.9267 88.6726Z" fill="#FFF3D2"/>
<path d="M110.988 161.019C113.61 166.505 119.278 172.64 126.968 168.053C132.055 165.019 133.026 157.985 138.24 154.768C128.642 152.52 114.827 153.427 104.695 154.057C106.915 155.526 111.115 160.954 110.988 161.019Z" fill="#282828"/>
</svg>
