<svg width="219" height="256" viewBox="0 0 219 256" fill="none" xmlns="http://www.w3.org/2000/svg">
<path d="M218.999 31.1801C218.999 31.1801 152.561 25.7728 109.597 0C66.6339 25.7728 0.195312 31.1801 0.195312 31.1801C0.195312 48.5926 1.65854 64.8878 4.14749 80.196L27.7793 78.5659L6.06865 90.7685C6.56115 93.2126 7.03535 95.6731 7.58076 98.0603L22.4412 92.8565L9.46938 105.688C14.1481 123.833 20.3023 140.265 27.2889 155.025L47.2229 146.535L31.7376 164.012C36.2475 172.709 40.9995 180.78 45.8654 188.212L56.2934 179.868L49.5491 193.731C52.5 198.013 55.4692 202.029 58.4263 205.857L75.1122 192.504L64.7596 213.785C88.4545 242.245 109.597 256 109.597 256C109.597 256 130.74 242.245 154.435 213.785L144.082 192.504L160.766 205.857C163.725 202.027 166.693 198.011 169.644 193.731L162.899 179.868L173.327 188.212C178.193 180.782 182.945 172.711 187.455 164.012L171.97 146.535L191.904 155.025C198.89 140.263 205.045 123.833 209.723 105.688L196.751 92.8565L211.612 98.0603C212.157 95.6711 212.633 93.2126 213.124 90.7685L191.411 78.5659L215.043 80.196C217.536 64.8878 218.999 48.5926 218.999 31.1801ZM40.3075 76.4514L35.6919 71.6444C32.3604 68.1766 31.1312 63.1966 32.4621 58.5769C34.3874 51.9017 41.0687 47.7847 47.8945 49.0648L52.6526 49.9561C50.3733 52.4329 48.2242 55.5181 47.0112 59.159C47.0112 59.159 49.8278 55.4489 54.6857 55.0561C54.6857 55.0561 47.9026 62.4253 40.3075 76.4514ZM130.309 193.546C116.918 198.347 102.273 198.347 88.8819 193.546C87.6282 193.096 86.8732 191.818 87.0848 190.506L87.9009 185.408C88.1878 183.621 89.6124 182.235 91.4054 181.999L109.595 179.602L127.785 181.999C129.578 182.235 131.005 183.621 131.29 185.408L132.106 190.506C132.317 191.818 131.562 193.096 130.309 193.546ZM160.889 114.63C160.889 123.074 159.291 131.396 156.24 139.182C153.924 135.445 151.069 132.256 147.607 130.659C147.607 130.659 150.916 134.355 152.803 144.335C153.013 145.448 152.811 146.604 152.258 147.593C151.564 148.835 150.831 150.058 150.054 151.256L145.855 157.73C142.811 154.026 139.229 150.957 135.242 149.846C135.242 149.846 138.502 152.475 141.718 160.317C142.312 161.768 142.161 163.42 141.309 164.737C139.221 167.957 135.179 174.19 133.052 177.467C132.234 178.728 130.675 179.284 129.24 178.826L113.727 173.873C112.628 173.523 111.881 172.501 111.881 171.347V160.705C111.881 158.764 112.976 156.987 114.708 156.114L119.637 153.631C123.269 151.802 126.338 149.024 128.518 145.591C128.837 145.088 128.445 144.437 127.85 144.486L109.591 145.985L91.3321 144.486C90.7378 144.437 90.3451 145.088 90.6646 145.591C92.8442 149.024 95.9132 151.802 99.5459 153.631L104.475 156.114C106.209 156.987 107.304 158.764 107.304 160.705V171.347C107.304 172.501 106.557 173.523 105.458 173.873L89.9442 178.826C88.5115 179.284 86.9505 178.728 86.1344 177.467C84.0077 174.188 79.966 167.957 77.8779 164.737C77.0252 163.422 76.8746 161.768 77.4689 160.317C80.6844 152.475 83.9446 149.846 83.9446 149.846C79.9578 150.955 76.378 154.024 73.3314 157.73L69.133 151.256C68.3556 150.058 67.6229 148.835 66.929 147.593C66.3754 146.604 66.1739 145.448 66.3835 144.335C68.2701 134.355 71.5772 130.659 71.5772 130.659C68.1134 132.258 65.2582 135.448 62.9442 139.182C59.8936 131.396 58.296 123.072 58.296 114.63V103.653C58.296 84.9907 66.1475 67.1895 79.9273 54.6044L109.589 63.333L139.251 54.6044C153.031 67.1895 160.882 84.9907 160.882 103.653V114.63H160.889ZM183.501 71.6444L178.885 76.4514C171.288 62.4253 164.507 55.0561 164.507 55.0561C169.365 55.451 172.181 59.159 172.181 59.159C170.968 55.5181 168.819 52.4329 166.54 49.9561L171.298 49.0648C178.126 47.7847 184.807 51.9038 186.73 58.5769C188.061 63.1966 186.832 68.1766 183.501 71.6444Z" fill="url(#paint0_linear_22_18310)"/>
<path d="M73.1891 94.3299L69.2227 93.6562C69.2227 93.6562 74.3613 109.137 92.6713 105.938C87.8481 99.7799 80.9002 95.6405 73.1891 94.3299Z" fill="url(#paint1_linear_22_18310)"/>
<path d="M126.516 105.938C144.826 109.135 149.964 93.6562 149.964 93.6562L145.998 94.3299C138.287 95.6405 131.341 99.7799 126.516 105.938Z" fill="url(#paint2_linear_22_18310)"/>
<defs>
<linearGradient id="paint0_linear_22_18310" x1="33.3025" y1="-19.3188" x2="214.363" y2="217.452" gradientUnits="userSpaceOnUse">
<stop stop-color="#FFB74D"/>
<stop offset="1" stop-color="#F4511E"/>
</linearGradient>
<linearGradient id="paint1_linear_22_18310" x1="5.56566" y1="1.89499" x2="186.627" y2="238.667" gradientUnits="userSpaceOnUse">
<stop stop-color="#FFB74D"/>
<stop offset="1" stop-color="#F4511E"/>
</linearGradient>
<linearGradient id="paint2_linear_22_18310" x1="42.0424" y1="-26.0012" x2="223.104" y2="210.771" gradientUnits="userSpaceOnUse">
<stop stop-color="#FFB74D"/>
<stop offset="1" stop-color="#F4511E"/>
</linearGradient>
</defs>
</svg>
