<svg width="170" height="256" viewBox="0 0 170 256" fill="none" xmlns="http://www.w3.org/2000/svg">
<path d="M49.7578 116.061L45.9258 115.41C45.9258 115.41 50.8914 130.368 68.5843 127.279C63.922 121.328 57.2103 117.329 49.7578 116.061Z" fill="url(#paint0_linear_22_18293)"/>
<path d="M101.293 127.279C118.986 130.368 123.951 115.41 123.951 115.41L120.119 116.061C112.665 117.329 105.953 121.328 101.293 127.279Z" fill="url(#paint1_linear_22_18293)"/>
<path d="M160.744 54.6992H9.13139C4.08848 54.6992 0 58.7877 0 63.8306V178.89C0 197.586 10.1713 214.803 26.5476 223.826L84.9379 255.999L143.328 223.826C159.705 214.803 169.876 197.586 169.876 178.89V63.8306C169.876 58.7877 165.787 54.6992 160.744 54.6992ZM17.986 98.7891L13.5251 94.1451C10.3077 90.7933 9.11715 85.9824 10.4053 81.5174C12.2654 75.0683 18.7207 71.0897 25.3184 72.325L29.9156 73.1879C27.7137 75.5811 25.6358 78.5625 24.4636 82.0791C24.4636 82.0791 27.1845 78.4954 31.8794 78.1148C31.8794 78.1148 25.3265 85.2376 17.986 98.7891ZM104.951 211.933C92.0118 216.573 77.862 216.573 64.923 211.933C63.7121 211.5 62.9815 210.264 63.185 208.995L63.9726 204.068C64.2493 202.342 65.625 201.003 67.3589 200.775L84.9359 198.459L102.513 200.775C104.247 201.003 105.622 202.342 105.899 204.07L106.687 208.995C106.892 210.264 106.162 211.5 104.951 211.933ZM134.5 135.681C134.5 143.84 132.958 151.88 130.009 159.404C127.772 155.794 125.013 152.712 121.665 151.168C121.665 151.168 124.862 154.739 126.685 164.382C126.889 165.458 126.694 166.573 126.158 167.53C125.487 168.731 124.781 169.911 124.03 171.069L119.974 177.323C117.031 173.743 113.571 170.778 109.719 169.705C109.719 169.705 112.871 172.245 115.977 179.824C116.551 181.226 116.406 182.823 115.582 184.093C113.565 187.205 109.658 193.227 107.605 196.395C106.813 197.614 105.307 198.152 103.923 197.708L88.9327 192.921C87.8704 192.582 87.15 191.595 87.15 190.481V180.198C87.15 178.322 88.2062 176.606 89.8831 175.762L94.6473 173.362C98.1557 171.594 101.123 168.91 103.229 165.592C103.538 165.106 103.158 164.477 102.584 164.524L84.94 165.973L67.2959 164.524C66.722 164.477 66.3414 165.106 66.6507 165.592C68.757 168.91 71.7242 171.594 75.2326 173.362L79.9968 175.762C81.6716 176.606 82.7299 178.322 82.7299 180.198V190.481C82.7299 191.597 82.0094 192.584 80.9471 192.921L65.9568 197.708C64.5729 198.15 63.0649 197.614 62.2753 196.395C60.2199 193.227 56.3146 187.205 54.2978 184.093C53.4736 182.823 53.3271 181.224 53.903 179.824C57.0106 172.247 60.1609 169.705 60.1609 169.705C56.3085 170.778 52.8489 173.743 49.9062 177.323L45.8502 171.069C45.0993 169.911 44.3911 168.729 43.7215 167.53C43.1863 166.573 42.991 165.458 43.1945 164.382C45.0179 154.737 48.213 151.168 48.213 151.168C44.8653 152.712 42.1077 155.794 39.8712 159.404C36.9224 151.88 35.3798 143.838 35.3798 135.681V125.074C35.3798 107.041 42.9665 89.8409 56.282 77.6793L84.942 86.1126L113.602 77.6793C126.917 89.8389 134.504 107.041 134.504 125.074V135.681H134.5ZM156.349 94.1451L151.888 98.7891C144.547 85.2355 137.996 78.1148 137.996 78.1148C142.689 78.4954 145.412 82.0791 145.412 82.0791C144.24 78.5605 142.164 75.5791 139.96 73.1879L144.557 72.325C151.155 71.0877 157.61 75.0683 159.468 81.5174C160.757 85.9824 159.568 90.7933 156.349 94.1451Z" fill="url(#paint2_linear_22_18293)"/>
<path d="M43.4833 29.358L51.0395 51.4304H118.828L126.384 29.356L126.386 29.3783L130.381 25.705L129.978 20.2938L125.983 23.9671L126.262 27.7198C122.937 31.4684 112.918 41.8106 105.087 39.9709C98.1637 38.3449 90.6706 21.3154 87.0848 12.1128L90.3043 7.57251L84.9337 0L79.5631 7.57251L82.7826 12.1128C79.1968 21.3154 71.7037 38.3449 64.7803 39.9709C56.9494 41.8106 46.9307 31.4684 43.6034 27.7198L43.8822 23.9671L39.8873 20.2938L39.4844 25.705L43.4792 29.3783L43.4833 29.358Z" fill="url(#paint3_linear_22_18293)"/>
<defs>
<linearGradient id="paint0_linear_22_18293" x1="57.2553" y1="1.57154" x2="57.2553" y2="254.727" gradientUnits="userSpaceOnUse">
<stop stop-color="#FFB74D"/>
<stop offset="1" stop-color="#F4511E"/>
</linearGradient>
<linearGradient id="paint1_linear_22_18293" x1="112.621" y1="1.57154" x2="112.621" y2="254.727" gradientUnits="userSpaceOnUse">
<stop stop-color="#FFB74D"/>
<stop offset="1" stop-color="#F4511E"/>
</linearGradient>
<linearGradient id="paint2_linear_22_18293" x1="84.9375" y1="1.57176" x2="84.9375" y2="254.725" gradientUnits="userSpaceOnUse">
<stop stop-color="#FFB74D"/>
<stop offset="1" stop-color="#F4511E"/>
</linearGradient>
<linearGradient id="paint3_linear_22_18293" x1="84.9333" y1="1.57128" x2="84.9333" y2="254.724" gradientUnits="userSpaceOnUse">
<stop stop-color="#FFB74D"/>
<stop offset="1" stop-color="#F4511E"/>
</linearGradient>
</defs>
</svg>
