<svg width="257" height="201" viewBox="0 0 257 201" fill="none" xmlns="http://www.w3.org/2000/svg">
<path d="M122.72 166.058C111.312 177.745 95.4507 185.072 77.8275 185.072C43.4159 185.072 15.5898 157.153 15.5898 122.742C15.5898 99.1825 28.6681 78.5912 48.0536 68.0173L48.2391 67.9245C66.6971 56.052 63.0797 35.5535 41.7463 34.5332C49.7232 39.8202 46.1985 49.6521 36.1811 57.1651H36.0884C14.4768 70.9854 0.0999756 95.1941 0.0999756 122.742C0.0999756 165.687 34.8826 200.562 77.8275 200.562C99.6246 200.562 119.288 191.565 133.387 177.188C129.491 173.849 125.874 170.139 122.72 166.058Z" fill="#4B4F75"/>
<path fill-rule="evenodd" clip-rule="evenodd" d="M65.8623 17.2811L76.0652 45.1072L46.8478 17.2811H65.8623ZM69.9434 14.2202L77.8275 3.18251L85.7116 14.2202H69.9434ZM89.7927 17.2811H108.9L80.8884 45.1999L89.7927 17.2811ZM63.9144 14.1274H46.2913L55.1029 1.79121L63.9144 14.1274ZM86.5463 17.1883L78.384 42.6956L69.1087 17.1883H86.5463ZM100.459 1.79121L109.364 14.1274H91.6478L100.459 1.79121ZM66.8826 13.0144L57.8855 0.492662H75.8797L66.8826 13.0144ZM88.5869 13.0144L79.6826 0.399902H97.584L88.5869 13.0144Z" fill="#D0B252"/>
<path d="M155.648 122.742C155.648 138.046 151.196 152.238 143.682 164.203C142.198 163.028 140.807 161.76 139.509 160.4C135.335 156.133 134.407 149.733 136.448 144.075C138.859 137.49 140.158 130.255 140.158 122.742C140.158 99.1825 126.987 78.5912 107.601 68.0173H107.509C89.0506 56.0521 92.668 35.5535 114.001 34.5332C105.932 39.8202 109.549 49.6521 119.567 57.1651C122.597 59.082 125.441 61.1844 128.1 63.4723C131.996 66.8115 135.613 70.5216 138.859 74.6028C149.34 87.8665 155.648 104.562 155.648 122.742Z" fill="#4B4F75"/>
<path d="M148.691 68.0173H148.598C145.136 69.9342 141.889 72.1293 138.859 74.6028C135.613 70.5216 131.996 66.8115 128.1 63.4723C130.759 61.1844 133.572 59.082 136.54 57.1651H136.633C146.651 49.6521 150.268 39.8202 142.198 34.5332C163.532 35.5535 167.149 56.052 148.691 68.0173Z" fill="#D0B252"/>
<path d="M220.112 57.1651H220.019C210.001 49.6521 206.477 39.8202 214.454 34.5332C193.12 35.5535 189.503 56.052 207.961 67.9245L208.054 68.0173C229.016 79.426 242.651 102.429 240.425 128.4C237.735 158.73 212.784 183.032 182.361 184.98C146.094 187.206 116.042 158.545 116.042 122.742C116.042 115.322 117.341 108.087 119.752 101.409C121.793 95.8434 120.865 89.4434 116.691 85.1767C115.393 83.8163 114.032 82.5178 112.61 81.281C104.17 94.5448 99.7174 110.406 100.738 127.472C102.964 166.151 134.222 197.687 172.9 200.377C218.349 203.438 256.1 167.542 256.1 122.742C256.1 95.1941 241.723 70.9854 220.112 57.1651Z" fill="#D0B252"/>
</svg>
