<svg width="257" height="222" viewBox="0 0 257 222" fill="none" xmlns="http://www.w3.org/2000/svg">
<path d="M104.62 33.9006C104.62 35.9293 102.973 37.5778 100.941 37.5778C98.9103 37.5778 97.2617 35.9293 97.2617 33.9006C97.2617 31.8661 98.9103 30.2188 100.941 30.2188C102.973 30.2187 104.62 31.8661 104.62 33.9006Z" fill="#784600"/>
<path d="M152.766 33.9006C152.766 35.9293 154.412 37.5778 156.445 37.5778C158.475 37.5778 160.126 35.9293 160.126 33.9006C160.126 31.8661 158.475 30.2188 156.445 30.2188C154.412 30.2187 152.766 31.8661 152.766 33.9006Z" fill="#784600"/>
<path d="M123.016 63.3308H121.181C121.181 47.7675 100.66 34.8036 100.453 34.6758L101.429 33.1133C102.31 33.6632 123.016 46.7572 123.016 63.3308Z" fill="#784600"/>
<path d="M136.206 63.3308H134.367C134.367 46.7572 155.075 33.6632 155.956 33.1133L156.93 34.6758C156.721 34.8036 136.206 47.7849 136.206 63.3308Z" fill="#784600"/>
<path d="M104.438 92.8589L88.5431 77.0375L88.0955 76.591L88.1071 76.0737L88.7372 54.4429L88.8139 54.6696L82.8477 45.8516L89.4557 54.1988L89.5254 54.2871L89.5347 54.429L90.774 76.033L90.3393 75.0692L107.537 89.4618C108.51 90.2756 108.637 91.73 107.825 92.7042C107.006 93.6785 105.555 93.8075 104.581 92.9949C104.532 92.9519 104.482 92.903 104.438 92.8589Z" fill="#784600"/>
<path d="M149.847 89.4697L167.042 75.0771L166.611 76.0408L167.852 54.4368L167.861 54.295L167.93 54.2066L174.535 45.8594L168.568 54.6775L168.646 54.4508L169.274 76.0815L169.285 76.5989L168.841 77.0453L152.949 92.8667C152.048 93.7631 150.59 93.7607 149.694 92.862C148.797 91.9587 148.8 90.5009 149.703 89.6045C149.747 89.5557 149.798 89.5092 149.847 89.4697Z" fill="#784600"/>
<path d="M153.801 144.504H103.59C103.555 145.094 103.555 145.685 103.555 146.272C103.555 150.077 104.069 153.854 104.971 157.493H152.419C153.324 153.854 153.837 150.077 153.837 146.272C153.837 145.685 153.837 145.094 153.801 144.504Z" fill="#784600"/>
<path d="M128.686 109.641C121.583 109.641 112.073 115.457 107.051 127.508H150.343C145.32 115.456 135.787 109.641 128.686 109.641Z" fill="#784600"/>
<path d="M128.685 193.961C130.489 193.961 138.879 186.049 145.466 174.496H111.926C118.511 186.049 126.883 193.961 128.685 193.961Z" fill="#784600"/>
<path d="M146.011 82.4396C148.454 79.8761 149.083 77.1139 149.083 75.7514C149.083 73.2332 147.261 69.656 144.406 66.3543C144.881 67.2413 145.175 68.2353 145.175 69.3119C145.175 72.7822 142.359 75.5956 138.889 75.5956C135.419 75.5956 132.601 72.7822 132.601 69.3119C132.601 65.8393 135.419 63.0259 138.889 63.0259C140.017 63.0259 141.057 63.3456 141.971 63.8653C138.243 60.4566 133.475 57.8164 128.69 57.8164C123.912 57.8164 119.143 60.4578 115.411 63.8653C116.327 63.3456 117.37 63.0259 118.495 63.0259C121.964 63.0259 124.784 65.8393 124.784 69.3119C124.784 72.7822 121.964 75.5956 118.495 75.5956C115.023 75.5956 112.209 72.7822 112.209 69.3119C112.209 68.2353 112.505 67.2413 112.98 66.3543C110.123 69.656 108.301 73.2332 108.301 75.7514C108.301 77.1116 108.927 79.8761 111.369 82.4396C115.877 79.8808 121.708 78.488 128.69 78.488C135.675 78.4869 141.506 79.8808 146.011 82.4396Z" fill="#784600"/>
<path d="M53.356 77.2368C69.9819 77.2368 106.848 101.508 123.631 101.508V103.957C123.631 103.957 94.418 113.007 81.9273 113.925C80.709 114.013 79.3662 114.062 77.9293 114.062C65.5456 114.062 46.2272 110.529 40.3794 99.972C34.0969 88.6264 41.728 79.1155 50.96 77.4367C51.7006 77.3007 52.4992 77.2368 53.356 77.2368ZM53.356 74.6094C52.333 74.6094 51.3704 74.6896 50.4868 74.8512C44.5868 75.9231 39.4192 79.7619 37.0022 84.8655C34.6236 89.8844 35.0096 95.703 38.0811 101.246C44.8333 113.437 66.3071 116.69 77.9293 116.69C79.4092 116.69 80.8217 116.641 82.1215 116.543C94.7656 115.615 123.202 106.842 124.406 106.47L126.26 105.894V103.957V101.508V98.8803H123.631C115.787 98.8803 102.386 92.8094 89.4271 86.9361C75.4355 80.5966 62.2171 74.6094 53.356 74.6094Z" fill="#784600"/>
<path d="M107.669 126.246L89.6477 136.131L89.0409 136.464L88.8676 137.039L79.4985 168.253L63.8398 174.483L80.1193 169.167L80.3541 169.091L80.4518 168.832L91.6171 138.686L105.441 132.195C105.912 130.551 106.432 128.967 107.05 127.504C107.237 127.056 107.469 126.679 107.669 126.246Z" fill="#784600"/>
<path d="M103.929 139.762C103.908 139.781 103.878 139.788 103.859 139.806L95.0051 148.238L94.3773 148.837L94.3727 149.577L94.1785 191.298L84.0781 201.008L94.9761 191.858L95.1167 191.738L95.133 191.523L98.0848 150.585L103.559 146.031C103.559 145.521 103.559 145.008 103.591 144.5C103.636 142.861 103.751 141.284 103.929 139.762Z" fill="#784600"/>
<path d="M177.887 168.256L168.517 137.043L168.349 136.467L167.736 136.135L149.727 126.254C149.924 126.682 150.157 127.06 150.344 127.507C150.961 128.97 151.482 130.557 151.951 132.203L165.772 138.689L176.939 168.835L177.036 169.095L177.265 169.17L193.552 174.487L177.887 168.256Z" fill="#784600"/>
<path d="M153.829 146.04L159.297 150.587L162.249 191.527L162.264 191.742L162.403 191.861L173.302 201.012L163.202 191.302L163.009 149.581L163.007 148.841L162.377 148.242L153.523 139.81C153.503 139.792 153.481 139.771 153.461 139.754C153.636 141.278 153.754 142.863 153.798 144.504C153.829 145.015 153.829 145.527 153.829 146.04Z" fill="#784600"/>
<path d="M126.111 102.873L125.447 100.973L124.581 98.4922L122.098 99.3572C120.611 99.8792 118.622 100.209 116.196 100.392C118.951 101.102 121.461 101.51 123.633 101.51V103.96C123.633 103.96 123.441 104.021 123.112 104.119C120.032 106.378 102.601 119.039 94.0208 122.774C88.7974 125.048 80.0735 127.36 72.1075 127.36C66.5819 127.36 61.4224 126.249 58.0451 123.233C53.4262 119.114 52.6322 114.207 54.0784 110.07C53.2472 109.76 52.438 109.426 51.6429 109.079C51.2534 110.155 50.979 111.264 50.8581 112.39C50.3605 117.081 52.2915 121.627 56.2943 125.195C59.8587 128.377 65.1798 129.991 72.1064 129.991C80.8942 129.991 89.9704 127.399 95.0695 125.182C104.661 121.009 124.36 106.467 125.195 105.851L126.748 104.701L126.111 102.873Z" fill="#784600"/>
<path d="M205.744 109.076C204.948 109.426 204.142 109.76 203.31 110.07C204.752 114.207 203.964 119.115 199.339 123.233C195.962 126.249 190.803 127.36 185.281 127.36C177.308 127.36 168.59 125.048 163.364 122.774C154.783 119.039 137.352 106.378 134.273 104.119C133.947 104.021 133.753 103.96 133.753 103.96V101.51C135.926 101.51 138.433 101.102 141.189 100.392C138.762 100.209 136.776 99.8791 135.287 99.3571L132.808 98.4922L131.938 100.968L131.272 102.873L130.633 104.701L132.191 105.851C133.025 106.469 152.72 121.009 162.315 125.182C167.41 127.399 176.483 129.991 185.279 129.991C192.2 129.991 197.526 128.377 201.089 125.195C205.094 121.627 207.028 117.081 206.528 112.39C206.41 111.264 206.135 110.154 205.744 109.076Z" fill="#784600"/>
<path d="M204.025 77.2368C204.884 77.2368 205.685 77.3007 206.421 77.4367C215.654 79.1166 223.285 88.6264 217.003 99.972C211.159 110.53 191.84 114.062 179.453 114.062C178.015 114.062 176.671 114.013 175.454 113.925C162.963 113.007 133.751 103.957 133.751 103.957V101.508C150.535 101.508 187.403 77.2414 204.025 77.2368ZM204.025 74.6094C195.165 74.6117 181.949 80.5966 167.958 86.9361C154.998 92.8094 141.596 98.8803 133.752 98.8803H131.125V101.508V103.957V105.894L132.974 106.47C134.18 106.842 162.619 115.615 175.262 116.543C176.562 116.641 177.968 116.69 179.453 116.69C191.074 116.69 212.549 113.437 219.301 101.246C222.379 95.6984 222.759 89.8855 220.375 84.8655C217.958 79.7619 212.793 75.9231 206.891 74.8512C206.015 74.6896 205.053 74.6094 204.025 74.6094Z" fill="#784600"/>
<path d="M134.268 104.116C133.942 104.019 133.748 103.957 133.748 103.957V101.507C138.808 101.507 145.697 99.2974 153.304 96.2131C150.779 84.7165 139.385 81.1172 128.685 81.1172C117.993 81.1172 106.598 84.7165 104.07 96.2131C111.678 99.2974 118.566 101.507 123.628 101.507V103.957C123.628 103.957 123.436 104.019 123.11 104.116C121.246 105.483 114.172 110.622 106.93 115.33C111.605 125.329 120.422 133.244 128.685 133.244C136.952 133.244 145.768 125.33 150.445 115.33C143.208 110.622 136.129 105.483 134.268 104.116Z" fill="#784600"/>
<path d="M192.691 221.7H64.6947L0.695312 110.849L64.6947 0L192.691 0.0023416L256.695 110.853L192.691 221.7ZM68.0662 215.859H189.32L249.955 110.853L189.32 5.84077L68.0662 5.83842L7.43937 110.849L68.0662 215.859Z" fill="#784600"/>
</svg>
