<svg width="257" height="183" viewBox="0 0 257 183" fill="none" xmlns="http://www.w3.org/2000/svg">
<path fill-rule="evenodd" clip-rule="evenodd" d="M146.958 91.0373H130.893V107.103H146.958V91.0373ZM110.424 127.571H126.489V111.506H110.424V127.571ZM110.424 91.0373H126.489V107.103H110.424V91.0373ZM146.958 127.571H130.893V111.506H146.958V127.571ZM32.9531 98.3767L41.4299 112.07L59.2316 101.05V160.43H75.3365V91.0799L128.691 58.0506L142.676 66.7084C142.03 63.935 141.591 61.0991 141.342 58.2369C140.951 54.373 140.864 50.4829 140.779 46.5924L128.691 39.1094L32.9531 98.3767Z" fill="#00A651"/>
<path fill-rule="evenodd" clip-rule="evenodd" d="M198.046 157.243C198.079 156.972 198.118 156.7 198.148 156.429V89.9576C215.211 77.6671 213.534 58.5841 209.704 45.282C201.85 18.0105 166.252 -1.8487 125.926 0.136725C152.259 13.6294 146.841 39.8122 148.647 57.5501C150.678 81.1146 168.269 93.9989 178.748 95.1932C184.541 73.4613 181.061 52.6744 172.976 30.7409C190.982 56.9012 200.786 123.885 159.66 153.434C165.065 154.15 192.727 156.297 198.046 157.243Z" fill="#067141"/>
<path fill-rule="evenodd" clip-rule="evenodd" d="M244.547 81.4344C244.547 81.4344 241.595 81.1958 238.371 83.7025C235.135 86.2028 230.87 93.2602 223.455 96.9299C216.041 100.603 210.42 96.7575 208.866 95.044C207.305 93.3388 208.472 90.9967 208.472 90.9967C208.472 90.9967 204.822 89.4913 208.044 84.5398C221.969 68.8253 244.547 81.4344 244.547 81.4344Z" fill="#00A651"/>
<path fill-rule="evenodd" clip-rule="evenodd" d="M223.097 116.36C223.097 116.36 222.029 114.741 219.435 114.089C216.839 113.43 211.478 114.078 206.593 111.733C201.706 109.392 201.422 104.941 201.679 103.448C201.929 101.954 203.607 101.611 203.607 101.611C203.607 101.611 202.911 99.1212 206.765 98.7852C220.49 99.6264 223.097 116.36 223.097 116.36Z" fill="#00A651"/>
<path fill-rule="evenodd" clip-rule="evenodd" d="M164.853 119.442C164.853 119.442 165.499 117.613 167.861 116.356C170.221 115.091 175.58 114.429 179.757 110.977C183.936 107.527 183.14 103.138 182.531 101.751C181.929 100.362 180.217 100.433 180.217 100.433C180.217 100.433 180.293 97.8483 176.472 98.4503C163.353 102.573 164.853 119.442 164.853 119.442Z" fill="#00A651"/>
<path fill-rule="evenodd" clip-rule="evenodd" d="M0.691406 181.584C85.7546 155.937 171.107 158.173 256.691 182.674C184.751 134.481 73.3311 136.55 0.691406 181.584Z" fill="#85B642"/>
<path fill-rule="evenodd" clip-rule="evenodd" d="M109.875 6.74739C109.875 6.74739 111.815 6.76766 113.768 8.59451C115.729 10.4178 118.09 15.2747 122.708 18.1095C127.325 20.9465 131.219 18.7734 132.335 17.7483C133.454 16.7289 132.833 15.1325 132.833 15.1325C132.833 15.1325 135.303 14.368 133.497 10.9469C125.351 -0.131193 109.875 6.74739 109.875 6.74739Z" fill="#00A651"/>
<path fill-rule="evenodd" clip-rule="evenodd" d="M115.512 37.3524C115.512 37.3524 116.723 35.8374 119.365 35.4246C122.01 35.0036 127.29 36.1368 132.368 34.2463C137.447 32.3586 138.136 27.9519 138.016 26.4418C137.903 24.9321 136.262 24.4379 136.262 24.4379C136.262 24.4379 137.182 22.0212 133.375 21.3357C119.63 20.925 115.512 37.3524 115.512 37.3524Z" fill="#00A651"/>
</svg>
