<svg width="257" height="256" viewBox="0 0 257 256" fill="none" xmlns="http://www.w3.org/2000/svg">
<path d="M214.846 256C196.275 256 180.631 242.66 177.41 224.801C186.236 210.939 190.996 194.779 190.996 178.18V144.065C190.996 139.51 190.516 135.045 189.592 130.721C189.595 130.725 189.595 130.725 189.601 130.731C189.601 130.731 216.601 157.731 244.14 185.27C270.211 211.34 251.691 256 214.846 256ZM65.6677 144.064C65.6677 139.525 66.168 135.029 67.1384 130.66C67.1133 130.68 67.0876 130.705 67.0624 130.731C67.0624 130.731 40.0625 157.731 12.5231 185.269C-13.5472 211.34 4.97249 256 41.8178 256C60.3883 256 76.033 242.66 79.2512 224.801C70.4272 210.945 65.6671 194.779 65.6671 178.18L65.6677 144.064ZM153.306 43.2406L157.867 32.5997C162.447 21.9102 172.927 15.0002 184.562 15.0002H184.566C188.79 15.0002 192.201 11.5058 192.056 7.24614C191.922 3.14464 188.392 -0.0255594 184.286 0.000155326C166.751 0.109723 150.991 10.5605 144.081 26.6954L137.851 41.2343H140.382C144.886 41.2343 149.227 41.9392 153.306 43.2406ZM72.0975 15.0002H72.1014C83.7362 15.0002 94.2166 21.9102 98.7967 32.5997L103.357 43.2406C107.437 41.9398 111.777 41.2349 116.281 41.2349H118.812L112.582 26.696C105.672 10.5611 89.9122 0.110303 72.377 0.00073536C68.2716 -0.0244204 64.7425 3.14519 64.6078 7.24669C64.463 11.5058 67.8708 15.0002 72.0975 15.0002ZM84.3416 200.836H172.324C174.162 195.31 175.33 189.559 175.781 183.699H80.8847C81.338 189.559 82.5042 195.31 84.3416 200.836ZM80.6678 168.699H175.998V151.564H80.6678V168.699ZM81.2581 136.564H175.41C173.436 124.047 166.602 113.162 156.901 105.895C163.613 100.857 167.965 92.836 167.965 83.8163C167.965 68.6071 155.592 56.2344 140.383 56.2344H116.283C101.074 56.2344 88.7014 68.6077 88.7014 83.8163C88.7014 92.8354 93.0528 100.857 99.766 105.892C90.0604 113.168 83.2325 124.059 81.2581 136.564ZM98.2013 225.183L122.666 253.412C124.09 255.056 126.158 256 128.334 256C130.508 256 132.576 255.055 134.002 253.412L158.467 225.183C161.016 222.24 163.303 219.111 165.324 215.836H91.3439C93.3636 219.113 95.6522 222.24 98.2013 225.183Z" fill="#FFBF0A"/>
</svg>
