<svg width="256" height="256" viewBox="0 0 256 256" fill="none" xmlns="http://www.w3.org/2000/svg">
<path d="M189.255 122.784C152.823 100.731 103.554 75.2926 44.8401 55.7031C33.9206 68.103 25.4976 82.7474 20.3828 98.8771C61.1674 119.018 117.402 147.395 163.487 170.759C174.369 153.73 182.773 137.447 189.255 122.784Z" fill="#26A7E2"/>
<path d="M194.527 121.135C206.636 128.547 217.272 135.545 226.298 141.77C228.682 133.841 230.492 126.274 231.841 119.241C233.133 112.501 234.067 106.009 234.724 99.8424C226.507 91.4342 218.324 83.5529 210.249 76.1641C207.556 86.0543 204.05 97.1204 199.469 109.013C197.972 112.896 196.329 116.947 194.527 121.135Z" fill="#6ED1FF"/>
<path d="M167.215 172.648C180.822 179.548 193.449 185.964 204.429 191.549C213.763 175.836 220.36 160.334 224.997 145.923C215.923 139.635 205.165 132.527 192.841 124.969C186.361 139.569 177.989 155.745 167.215 172.648Z" fill="#26A7E2"/>
<path d="M138.453 14.8203C158.805 28.2461 182.753 45.9287 207.955 68.4807C210.493 58.3138 212.097 49.7228 213.111 43.1589C192.846 26.0576 166.874 15.535 138.453 14.8203Z" fill="#94DDFF"/>
<path d="M228.572 148.414C223.895 162.68 217.321 177.961 208.152 193.441C218.222 198.564 226.704 202.885 233.053 206.12C241.723 194.172 248.268 180.586 252.1 165.896C246.944 161.815 239.034 155.772 228.572 148.414Z" fill="#26A7E2"/>
<path d="M182.367 228.765C189.659 230.541 197.207 232.239 205.005 233.846C214.651 227.014 223.244 218.805 230.506 209.498C224.178 206.272 215.825 202.017 205.994 197.016C199.442 207.627 191.647 218.296 182.367 228.765Z" fill="#128AE0"/>
<path d="M161.209 174.266C115.457 151.072 59.7914 122.982 19.1995 102.93C16.321 113.256 14.75 124.126 14.75 135.372C14.75 141.58 15.221 147.678 16.1267 153.634C33.7335 167.903 70.3848 192.914 131.259 213.852C142.823 200.526 152.731 187.204 161.209 174.266Z" fill="#128AE0"/>
<path d="M235.952 119.841C234.501 127.441 232.531 135.645 229.887 144.26C239.938 151.297 247.755 157.204 253.147 161.426C254.996 153.031 256.001 144.32 256.001 135.368C256.001 130.813 255.726 126.324 255.233 121.9C249.649 115.594 244.052 109.523 238.463 103.703C237.835 108.889 237.014 114.283 235.952 119.841Z" fill="#6ED1FF"/>
<path d="M128.324 217.218C71.8992 197.598 36.208 174.509 17.2344 159.797C25.8534 201.709 56.2256 235.655 96.0205 249.392C107.966 238.823 118.709 228.034 128.324 217.218Z" fill="#006AB5"/>
<path d="M174.599 231.104C159.502 227.244 145.513 223.058 132.575 218.68C123.049 229.497 112.411 240.295 100.594 250.883C111.61 254.196 123.282 255.998 135.379 255.998C139.705 255.998 143.975 255.759 148.184 255.314C158.048 247.494 166.817 239.379 174.599 231.104Z" fill="#006AB5"/>
<path d="M190.93 118.941C192.617 114.999 194.168 111.177 195.581 107.511C200.432 94.9217 204.066 83.2794 206.788 73.0186C178.952 47.929 152.59 28.8088 130.909 14.8594C98.2573 16.05 68.934 30.2102 47.9102 52.3521C105.915 71.884 154.683 97.0378 190.93 118.941Z" fill="#6ED1FF"/>
<path d="M202.266 195.121C191.245 189.516 178.582 183.082 164.94 176.164C156.581 188.956 146.851 202.12 135.52 215.299C148.524 219.649 162.6 223.804 177.791 227.628C187.459 216.922 195.53 205.991 202.266 195.121Z" fill="#128AE0"/>
<path d="M156.148 254.185C172.132 251.409 187.028 245.494 200.192 237.087C192.976 235.552 185.966 233.945 179.186 232.266C172.306 239.724 164.652 247.061 156.148 254.185Z" fill="#006AB5"/>
<path d="M211.445 71.6284C219.289 78.7555 227.241 86.3601 235.231 94.4389C236.029 84.8928 236.176 76.2557 235.996 68.8586C230.528 60.6019 224.081 53.0533 216.804 46.3906C215.679 53.1735 213.988 61.7217 211.445 71.6284Z" fill="#94DDFF"/>
<path d="M239.047 98.3292C244.081 103.511 249.123 108.9 254.161 114.47C251.735 100.597 246.946 87.5447 240.213 75.7344C240.177 82.5453 239.852 90.1383 239.047 98.3292Z" fill="#94DDFF"/>
<path d="M29.9952 196.223C40.8422 215.01 36.2725 234.485 36.2725 234.485C36.2725 234.485 55.7468 229.915 74.5343 240.762C75.6788 241.422 76.7739 242.115 77.8228 242.832L166.593 135.379L119.554 98.3592L190.275 25.9821C176.192 15.0132 171.652 0 171.652 0C171.652 0 157.072 13.6942 135.378 13.6942C113.684 13.6942 99.1035 0 99.1035 0C99.1035 0 93.3235 19.1498 74.536 29.9968C55.7484 40.8439 36.2742 36.2742 36.2742 36.2742C36.2742 36.2742 40.8439 55.7484 29.9968 74.536C19.1498 93.3235 1.06197e-07 99.1035 1.06197e-07 99.1035C1.06197e-07 99.1035 13.6942 113.684 13.6942 135.378C13.6942 157.072 1.06197e-07 171.652 1.06197e-07 171.652C-0.00164662 171.655 19.1482 177.435 29.9952 196.223Z" fill="#EDBC17"/>
<path d="M125.488 103.023C79.6757 146.351 36.044 169.355 14.3203 179.145C19.6771 182.974 25.5362 188.495 29.9939 196.217C40.8409 215.004 36.2712 234.479 36.2712 234.479C36.2712 234.479 55.7455 229.909 74.533 240.756C75.6775 241.416 76.7726 242.11 77.8215 242.826L166.592 135.373L125.488 103.023Z" fill="#ECA223"/>
<path d="M208.171 131.271C208.084 130.586 207.664 129.99 207.048 129.677L151.367 101.418L201.302 17.5812C201.815 16.7233 201.642 15.6216 200.894 14.9596C200.145 14.2976 199.032 14.2614 198.243 14.8723L85.2228 102.427C84.6629 102.862 84.3616 103.552 84.4258 104.257C84.49 104.963 84.9083 105.589 85.5357 105.915L139.163 133.839L71.6801 247.037C71.1564 247.916 71.3491 249.046 72.1362 249.699C72.5216 250.02 72.9942 250.18 73.4668 250.18C73.9575 250.18 74.4482 250.009 74.8385 249.663L207.483 133.093C208 132.638 208.258 131.957 208.171 131.271Z" fill="#20122E"/>
</svg>
