<svg width="87" height="257" viewBox="0 0 87 257" fill="none" xmlns="http://www.w3.org/2000/svg">
<path fill-rule="evenodd" clip-rule="evenodd" d="M46.7422 103.503C46.2273 103.879 48.5443 69.817 44.6628 51.3799C44.1479 57.1823 46.1282 72.035 45.1183 87.1847C41.7913 137.624 42.425 128.554 41.4546 119.068C40.2664 107.721 33.3748 101.82 28.5031 92.8683C27.1168 90.2939 26.0474 86.4916 25.4929 84.1547C24.681 85.0855 26.7604 91.1454 26.7802 91.185C29.5923 100.889 41.7121 108.058 41.2566 128.336C40.7813 149.17 42.524 126.93 34.9986 116.237C30.5627 109.919 25.592 105.602 23.2551 99.6015C18.7597 88.1155 23.7304 71.9162 28.4635 60.5291C28.3645 61.0242 28.3248 70.1933 28.3248 70.2527C28.305 85.8381 40.9397 88.0957 42.326 105.919C42.4052 106.968 42.8805 107.919 42.9003 108.394C43.9697 102.374 41.9497 93.0069 36.8602 86.4322C25.0176 71.124 30.3448 54.7465 32.7014 42.7851C33.0975 46.2508 32.8797 58.4695 40.9595 74.7679C41.7715 76.3918 42.4844 78.0949 43.2369 79.7584C42.6428 77.0453 41.8309 74.4312 40.7021 71.936C35.771 61.1232 35.7512 54.7663 34.0283 35.5172C33.8698 33.7943 34.0283 32.0516 34.0481 30.3089C34.1471 30.3287 36.2463 43.2604 37.078 46.8845C38.1078 51.2413 41.6724 63.2224 40.9595 59.1231C39.4346 50.3105 37.9494 41.4781 36.3453 32.6853C30.7211 2.06902 19.8093 -3.27794 29.5329 3.05919C35.4145 6.90108 40.108 11.951 44.3459 17.4762C61.7335 40.0126 53.0793 61.242 50.6236 69.5199C52.5842 64.9453 60.5254 49.4985 54.6636 32.0516C53.4556 28.487 49.4552 20.9814 49.3562 20.8626C49.5939 20.9616 49.9107 21.0012 50.0494 21.1993C52.7228 24.9421 55.5745 28.586 58.0302 32.4675C67.021 46.7458 72.2689 61.9352 73.7542 72.8469C77.9526 103.483 48.3066 103.166 45.6134 134.139C45.3757 136.317 45.2965 137.05 45.2569 137.367C45.3955 137.07 45.6728 136.298 46.148 134.258C48.7027 125.94 51.4356 118.811 58.3866 111.622C67.2784 102.414 71.5164 98.5519 74.2691 92.5515C78.0516 84.3528 76.9426 77.6592 76.7049 71.2626C81.1409 86.1351 80.1904 100.413 71.9719 113.622C62.9613 128.119 48.7819 135.149 45.8708 149.17C45.6926 149.843 45.5737 150.675 45.4549 151.388C52.0297 129.168 82.1707 129.208 85.6958 89.1849C85.6958 89.1254 86.0324 86.3331 86.1116 86.353C87.0226 95.6012 84.1907 106.216 80.8439 114.89C71.8531 138.1 62.6642 142.179 51.8713 155.467C48.8809 159.171 44.9994 165.567 44.643 169.865C46.4253 166.617 50.2078 160.2 53.1387 157.349C65.001 145.803 73.4374 141.149 80.6855 129.921C84.7056 123.702 76.6455 142.991 59.6541 161.745C54.1289 167.845 49.1186 174.38 45.0391 181.549C41.613 187.569 38.8801 193.965 36.2859 200.382C35.4739 202.362 34.7214 204.362 33.8698 206.343C33.454 207.333 33.0183 208.323 32.5232 209.293C32.2856 209.769 32.0413 210.244 31.7905 210.719C31.5726 211.096 31.3548 211.69 31.0181 211.967C30.9785 212.007 30.8993 212.026 30.8597 211.987C30.6815 211.868 30.9389 210.779 30.9785 210.581C31.0577 210.026 31.1568 209.472 31.2756 208.917C31.4934 207.808 31.7905 206.699 32.1073 205.61C32.7608 203.432 33.553 201.293 34.3253 199.134C34.8204 197.807 35.2957 196.461 35.7116 195.094C37.0978 190.658 38.3256 186.183 39.3158 181.648C40.2664 177.39 40.9793 173.073 41.5536 168.736C42.1873 163.983 42.623 159.21 42.9993 154.438C43.4746 148.556 43.8508 142.674 44.2469 136.793C44.7618 129.148 45.2965 121.504 45.8906 113.88C46.1547 110.421 46.4319 106.968 46.7224 103.523C46.7224 103.509 46.729 103.503 46.7422 103.503ZM49.3562 20.8626C49.3562 20.8494 49.3562 20.8494 49.3562 20.8626ZM28.4635 60.5093C28.4635 60.5225 28.4635 60.5291 28.4635 60.5291C28.4635 60.5159 28.4635 60.5093 28.4635 60.5093ZM36.7018 75.8571C35.5729 73.8371 33.1569 67.6584 32.1271 64.6284C31.7509 66.9257 32.6618 69.0842 33.5332 71.0646C35.2165 74.9263 41.0189 86.65 43.9499 90.1948C42.8805 87.2837 44.0489 88.8086 36.7018 75.8571ZM57.4559 86.2935C66.9022 76.3324 68.7637 64.5294 65.4763 51.6373C65.1793 50.4689 62.387 41.5771 61.1195 41.181C63.0801 47.8548 65.2585 54.6277 65.1397 62.7273C64.803 83.3626 49.6335 83.9567 47.4551 102.275C48.5839 99.7005 50.1682 93.9773 57.4559 86.2935ZM59.5155 50.1322C59.5155 50.3699 59.5155 50.6075 59.4957 50.865C55.5151 73.4212 56.743 61.6381 53.6734 73.5004C60.5848 61.4203 59.9709 54.0732 59.5155 50.1322ZM68.0112 82.7685C70.9223 74.154 69.9717 71.5003 69.437 74.154C66.5853 88.0164 58.1886 94.1159 51.0791 103.463C48.267 107.166 47.9898 110.137 47.8512 111.602C52.3862 100.314 63.397 96.3735 68.0112 82.7685ZM50.1682 86.8877C53.0001 83.2636 62.6246 71.2626 62.7236 59.2419C61.1393 68.609 56.6835 74.7283 51.5148 83.7587C50.5642 85.3826 50.7623 85.8975 50.1682 86.8877ZM78.0318 83.5012C77.9328 79.3029 78.309 96.9479 67.1596 111.464C65.2387 113.959 66.4467 113.444 63.9713 115.939C63.9184 116.019 63.8722 116.091 63.8326 116.157C66.9814 112.395 78.5467 103.364 78.0318 83.5012Z" fill="url(#paint0_radial_35_136)"/>
<path d="M29.1364 150.813C39.3748 157.665 39.256 171.191 36.6816 183.251C36.7014 182.657 36.4637 180.003 36.4637 179.964C34.9983 162.992 26.4827 158.101 20.3238 152.912C5.82762 140.654 8.60012 123.524 8.48129 123.504C8.65953 124.454 8.85756 125.405 9.01599 126.356C11.8083 143.406 22.1259 146.139 29.1364 150.813Z" fill="url(#paint1_radial_35_136)"/>
<path d="M36.6819 183.252C36.6819 183.331 36.6621 183.371 36.6621 183.371C36.6621 183.331 36.6687 183.292 36.6819 183.252Z" fill="url(#paint2_radial_35_136)"/>
<path d="M39.3535 142.477C39.3535 142.45 39.3535 142.424 39.3535 142.397C39.3667 142.45 39.3667 142.477 39.3535 142.477Z" fill="url(#paint3_radial_35_136)"/>
<path d="M19.3139 93.086C20.106 113.305 41.7117 111.919 39.3551 142.397C39.2165 141.743 37.0183 136.674 36.8797 136.377C30.6019 123.069 18.6208 116.712 18.0663 97.9577C18.0267 97.1458 17.789 96.314 17.6306 95.5021C16.0067 101.641 16.4424 109.899 17.3533 114.89C21.5913 137.703 39.058 130.099 38.1669 157.527C36.5826 153.863 34.0873 150.873 31.295 148.1C17.2543 134.178 7.27334 124.376 19.6506 84.7686C19.5515 89.3432 19.2149 90.5908 19.3139 93.086Z" fill="url(#paint4_radial_35_136)"/>
<path d="M19.6504 84.6494C19.6702 84.6692 19.6702 84.7088 19.6504 84.7682C19.6504 84.7286 19.6504 84.689 19.6504 84.6494Z" fill="url(#paint5_radial_35_136)"/>
<path d="M0.836477 133.505C7.49047 162.478 32.0271 157.091 33.2351 176.42C27.096 163.527 12.9166 165.726 3.58916 144.358C0.143345 136.496 0.202763 130.772 0.836477 133.505Z" fill="url(#paint6_radial_35_136)"/>
<path d="M63.7336 256.703H10.2244L5.41211 213.67C5.41211 209.313 8.93714 205.769 13.2939 205.769H60.6442C65.0208 205.769 68.5458 209.313 68.5458 213.67L63.7336 256.703Z" fill="url(#paint7_radial_35_136)"/>
<path d="M48.8198 209.71H25.1348V200.857H48.8198V209.71Z" fill="url(#paint8_radial_35_136)"/>
<path d="M48.068 203.015H25.8881C24.4226 203.015 23.2344 201.827 23.2344 200.381C23.2344 198.916 24.4226 197.728 25.8881 197.728H48.068C49.5335 197.728 50.7217 198.916 50.7217 200.381C50.7217 201.827 49.5335 203.015 48.068 203.015Z" fill="url(#paint9_radial_35_136)"/>
<defs>
<radialGradient id="paint0_radial_35_136" cx="0" cy="0" r="1" gradientUnits="userSpaceOnUse" gradientTransform="translate(93.7114 84.235) scale(161.887 161.887)">
<stop stop-color="#FF9900"/>
<stop offset="0.473" stop-color="#E15D0F"/>
<stop offset="0.783" stop-color="#991600"/>
<stop offset="1" stop-color="#5D3101"/>
</radialGradient>
<radialGradient id="paint1_radial_35_136" cx="0" cy="0" r="1" gradientUnits="userSpaceOnUse" gradientTransform="translate(93.7083 84.2333) scale(161.888 161.888)">
<stop stop-color="#FF9900"/>
<stop offset="0.473" stop-color="#E15D0F"/>
<stop offset="0.783" stop-color="#991600"/>
<stop offset="1" stop-color="#5D3101"/>
</radialGradient>
<radialGradient id="paint2_radial_35_136" cx="0" cy="0" r="1" gradientUnits="userSpaceOnUse" gradientTransform="translate(36.6647 183.311) scale(0.0425932 0.0425759)">
<stop stop-color="#FF9900"/>
<stop offset="0.473" stop-color="#E15D0F"/>
<stop offset="0.783" stop-color="#991600"/>
<stop offset="1" stop-color="#5D3101"/>
</radialGradient>
<radialGradient id="paint3_radial_35_136" cx="0" cy="0" r="1" gradientUnits="userSpaceOnUse" gradientTransform="translate(39.3527 142.436) scale(0.0255466 0.0255481)">
<stop stop-color="#FF9900"/>
<stop offset="0.473" stop-color="#E15D0F"/>
<stop offset="0.783" stop-color="#991600"/>
<stop offset="1" stop-color="#5D3101"/>
</radialGradient>
<radialGradient id="paint4_radial_35_136" cx="0" cy="0" r="1" gradientUnits="userSpaceOnUse" gradientTransform="translate(93.6998 84.2333) scale(161.878 161.878)">
<stop stop-color="#FF9900"/>
<stop offset="0.473" stop-color="#E15D0F"/>
<stop offset="0.783" stop-color="#991600"/>
<stop offset="1" stop-color="#5D3101"/>
</radialGradient>
<radialGradient id="paint5_radial_35_136" cx="0" cy="0" r="1" gradientUnits="userSpaceOnUse" gradientTransform="translate(19.6506 84.7106) scale(0.0398051 0.0398076)">
<stop stop-color="#FF9900"/>
<stop offset="0.473" stop-color="#E15D0F"/>
<stop offset="0.783" stop-color="#991600"/>
<stop offset="1" stop-color="#5D3101"/>
</radialGradient>
<radialGradient id="paint6_radial_35_136" cx="0" cy="0" r="1" gradientUnits="userSpaceOnUse" gradientTransform="translate(93.7104 84.2357) scale(161.887 161.887)">
<stop stop-color="#FF9900"/>
<stop offset="0.473" stop-color="#E15D0F"/>
<stop offset="0.783" stop-color="#991600"/>
<stop offset="1" stop-color="#5D3101"/>
</radialGradient>
<radialGradient id="paint7_radial_35_136" cx="0" cy="0" r="1" gradientUnits="userSpaceOnUse" gradientTransform="translate(93.7116 84.2333) scale(161.89 161.89)">
<stop stop-color="#FF9900"/>
<stop offset="0.473" stop-color="#E15D0F"/>
<stop offset="0.783" stop-color="#991600"/>
<stop offset="1" stop-color="#5D3101"/>
</radialGradient>
<radialGradient id="paint8_radial_35_136" cx="0" cy="0" r="1" gradientUnits="userSpaceOnUse" gradientTransform="translate(93.7099 84.2348) scale(161.888 161.888)">
<stop stop-color="#FF9900"/>
<stop offset="0.473" stop-color="#E15D0F"/>
<stop offset="0.783" stop-color="#991600"/>
<stop offset="1" stop-color="#5D3101"/>
</radialGradient>
<radialGradient id="paint9_radial_35_136" cx="0" cy="0" r="1" gradientUnits="userSpaceOnUse" gradientTransform="translate(36.9778 200.374) scale(9.89108 9.89111)">
<stop stop-color="#FF9900"/>
<stop offset="0.473" stop-color="#E15D0F"/>
<stop offset="0.783" stop-color="#991600"/>
<stop offset="1" stop-color="#5D3101"/>
</radialGradient>
</defs>
</svg>
