<svg width="151" height="257" viewBox="0 0 151 257" fill="none" xmlns="http://www.w3.org/2000/svg">
<path d="M75.4495 115.553C75.3765 115.553 75.3108 115.553 75.2523 115.553C71.9003 115.553 69.1836 118.182 69.1836 121.424C69.1836 124.667 71.9003 127.296 75.2523 127.296C75.3108 127.296 75.3765 127.296 75.4495 127.296C75.508 127.296 75.5664 127.296 75.6248 127.296C78.9769 127.296 81.6936 124.667 81.6936 121.424C81.6936 118.182 78.9769 115.553 75.6248 115.553C75.5664 115.553 75.508 115.553 75.4495 115.553Z" fill="url(#paint0_linear_35_135)"/>
<path d="M57.7458 143.99C57.9429 144.253 55.0729 146.334 50.5377 146.795C41.7961 147.693 36.056 143.925 36.538 146.093C37.1514 148.876 45.7178 154.397 53.9336 155.821C60.9444 157.026 62.9601 154.003 61.3607 149.818C60.5501 147.671 59.1698 145.765 57.7458 143.99Z" fill="url(#paint1_linear_35_135)"/>
<path d="M93.1296 143.99C92.9325 144.253 95.8025 146.334 100.338 146.795C109.079 147.693 114.819 143.925 114.337 146.093C113.724 148.876 105.158 154.397 96.9418 155.821C89.9309 157.026 87.9153 154.003 89.5147 149.818C90.3253 147.671 91.7056 145.765 93.1296 143.99Z" fill="url(#paint2_linear_35_135)"/>
<path d="M53.2983 127.383C42.4972 124.36 34.61 128.698 29.9654 134.679C29.1547 137.33 34.4129 134.92 35.6398 134.46C49.5519 129.421 60.9883 136.344 65.5892 145.809C67.32 149.358 68.5907 154.134 69.4232 159.261C72.2933 139.762 69.5766 131.94 53.2983 127.383Z" fill="url(#paint3_linear_35_135)"/>
<path d="M97.5763 127.383C108.377 124.36 116.265 128.698 120.909 134.679C121.72 137.33 116.462 134.92 115.235 134.46C101.323 129.421 89.8862 136.344 85.2854 145.809C83.5765 149.358 82.2839 154.134 81.4513 159.261C78.5813 139.762 81.298 131.94 97.5763 127.383Z" fill="url(#paint4_linear_35_135)"/>
<path fill-rule="evenodd" clip-rule="evenodd" d="M115.674 198.259C121.37 187.063 123.144 200.428 125.773 209.06C128.381 217.714 133.573 218.634 130.199 205.817C128.578 199.749 128.337 187.611 138.809 159.612C144.593 143.969 138.678 143.421 140.956 140.047C142.249 138.141 148.559 137.922 149.829 142.807C152.919 154.529 124.831 176.92 140.584 217.319C143.103 223.848 139.905 229.632 133.595 231.714C116.922 237.235 117.317 206.913 111.598 208.446C107.151 209.608 108.203 220.299 85.5707 231.21C93.0855 233.773 93.9399 230.574 98.4531 230.005C94.5534 237.673 90.3249 237.607 77.574 241.507C82.1091 246.02 84.1905 243.325 87.674 244.574C84.1467 249.942 79.962 253.754 75.4488 256.624C70.9356 253.754 66.7291 249.942 63.2017 244.574C66.6853 243.325 68.7666 246.02 73.3237 241.507C60.5508 237.607 56.3224 237.673 52.4226 230.005C56.9577 230.574 57.8122 233.773 65.305 231.21C42.6731 220.299 43.7248 209.608 39.2773 208.446C33.559 206.913 33.9534 237.235 17.2807 231.714C10.971 229.632 7.77228 223.848 10.2918 217.319C26.0443 176.92 -2.04289 154.529 1.04626 142.807C2.31698 137.922 8.62673 138.141 9.91936 140.047C12.2198 143.421 6.28248 143.969 12.0664 159.612C22.5389 187.611 22.2979 199.749 20.6985 205.817C17.3026 218.634 22.4951 217.714 25.1022 209.06C27.7313 200.428 29.5059 187.063 35.2022 198.259C48.4571 224.308 102.419 224.308 115.674 198.259ZM84.1247 203.364C82.1967 206.562 79.1952 207.395 75.4488 208.556C71.6805 207.395 68.679 206.562 66.751 203.364C62.5664 196.375 88.3093 196.375 84.1247 203.364ZM92.1215 188.969C89.5581 197.864 61.3176 197.864 58.7542 188.969C66.5538 191.818 84.9354 192.19 92.1215 188.969ZM76.4785 185.311C75.9527 185.946 74.923 185.946 74.3972 185.311C67.474 176.591 71.8119 177.161 75.4488 176.81C79.0638 177.161 83.4236 176.591 76.4785 185.311ZM92.472 7.19143C105.683 19.8329 98.8475 34.0517 109.999 55.0842C113.395 61.4816 122.662 67.9009 127.811 72.0636C142.49 83.8725 142.512 113.34 139.269 122.038C138.196 132.62 136.312 128.391 128.797 165.615C128.819 165.636 128.797 165.702 128.819 165.746C128.797 165.724 128.775 165.702 128.775 165.702C128.468 167.236 127.986 168.638 127.198 169.514C127.11 163.971 126.628 124.667 126.628 124.141C126.913 105.891 112.716 94.2573 93.5017 97.6532C89.1419 98.42 86.3375 99.7345 81.5833 102.145C73.1922 106.395 72.272 99.7565 56.0814 97.4341C37.5245 94.805 23.9629 106.307 24.2478 124.141C24.2478 124.667 23.7658 163.971 23.6781 169.514C22.8894 168.638 22.4074 167.236 22.1007 165.702C22.1007 165.702 22.0788 165.724 22.0569 165.746C22.0788 165.702 22.0569 165.636 22.0788 165.615C14.564 128.391 12.6799 132.62 11.6063 122.038C8.079 112.573 7.7942 82.9962 23.0647 72.0636C28.4543 68.2077 37.4807 61.4816 40.8766 55.0842C52.0282 34.0517 45.1926 19.8329 58.4256 7.19143C69.5991 -2.49229 83.4894 -0.586221 92.472 7.19143Z" fill="url(#paint5_linear_35_135)"/>
<defs>
<linearGradient id="paint0_linear_35_135" x1="80.9511" y1="-12.1059" x2="80.9511" y2="258.271" gradientUnits="userSpaceOnUse">
<stop stop-color="#FDD186"/>
<stop offset="0.181" stop-color="#D4380C"/>
<stop offset="0.498" stop-color="#691B06"/>
<stop offset="0.758" stop-color="#D4380C"/>
<stop offset="1" stop-color="#FDD186"/>
</linearGradient>
<linearGradient id="paint1_linear_35_135" x1="52.0871" y1="-12.1057" x2="52.0871" y2="258.27" gradientUnits="userSpaceOnUse">
<stop stop-color="#FDD186"/>
<stop offset="0.181" stop-color="#D4380C"/>
<stop offset="0.498" stop-color="#691B06"/>
<stop offset="0.758" stop-color="#D4380C"/>
<stop offset="1" stop-color="#FDD186"/>
</linearGradient>
<linearGradient id="paint2_linear_35_135" x1="104.574" y1="-12.1057" x2="104.574" y2="258.27" gradientUnits="userSpaceOnUse">
<stop stop-color="#FDD186"/>
<stop offset="0.181" stop-color="#D4380C"/>
<stop offset="0.498" stop-color="#691B06"/>
<stop offset="0.758" stop-color="#D4380C"/>
<stop offset="1" stop-color="#FDD186"/>
</linearGradient>
<linearGradient id="paint3_linear_35_135" x1="63.4765" y1="-12.104" x2="63.4765" y2="258.27" gradientUnits="userSpaceOnUse">
<stop stop-color="#FDD186"/>
<stop offset="0.181" stop-color="#D4380C"/>
<stop offset="0.498" stop-color="#691B06"/>
<stop offset="0.758" stop-color="#D4380C"/>
<stop offset="1" stop-color="#FDD186"/>
</linearGradient>
<linearGradient id="paint4_linear_35_135" x1="114.06" y1="-12.104" x2="114.06" y2="258.27" gradientUnits="userSpaceOnUse">
<stop stop-color="#FDD186"/>
<stop offset="0.181" stop-color="#D4380C"/>
<stop offset="0.498" stop-color="#691B06"/>
<stop offset="0.758" stop-color="#D4380C"/>
<stop offset="1" stop-color="#FDD186"/>
</linearGradient>
<linearGradient id="paint5_linear_35_135" x1="294.963" y1="-12.1026" x2="294.963" y2="258.272" gradientUnits="userSpaceOnUse">
<stop stop-color="#FDD186"/>
<stop offset="0.181" stop-color="#D4380C"/>
<stop offset="0.498" stop-color="#691B06"/>
<stop offset="0.758" stop-color="#D4380C"/>
<stop offset="1" stop-color="#FDD186"/>
</linearGradient>
</defs>
</svg>
