<svg width="196" height="257" viewBox="0 0 196 257" fill="none" xmlns="http://www.w3.org/2000/svg">
<path fill-rule="evenodd" clip-rule="evenodd" d="M195.133 106.538C195.438 107.066 195.98 108.456 194.577 110.054C194.257 110.415 193.826 110.818 193.215 111.319C192.214 112.152 190.741 113.25 188.712 114.668C185.084 117.211 179.803 120.714 172.548 125.398C167.392 128.719 161.513 132.458 155.203 136.447C157.399 135.14 159.539 133.862 161.61 132.652C170.004 127.719 176.356 124.119 181.026 121.645C189.059 117.392 190.56 117.295 191.811 117.614C192.575 117.809 193.215 118.282 193.59 118.935C193.882 119.449 194.424 120.797 193.173 122.409C192.853 122.84 192.395 123.299 191.755 123.855C190.713 124.758 189.184 125.926 187.085 127.427C184.612 129.164 181.387 131.332 177.329 133.973C178.872 133.097 180.22 132.347 181.429 131.693C187.28 128.539 188.406 128.33 189.587 128.636C190.31 128.816 190.907 129.275 191.269 129.901C191.561 130.387 192.089 131.707 190.935 133.306C190.629 133.723 190.213 134.181 189.601 134.723C188.642 135.613 187.224 136.752 185.265 138.198C181.804 140.769 176.745 144.244 169.796 148.844C159.956 155.362 147.434 163.381 134.55 171.595C143.709 166.008 152.465 160.713 159.928 156.321C166.738 152.305 171.895 149.372 175.675 147.371C182.318 143.854 183.583 143.785 184.751 144.077C185.501 144.271 186.126 144.73 186.502 145.383C186.794 145.884 187.322 147.204 186.085 148.747C185.821 149.094 185.445 149.455 184.931 149.914C184.097 150.651 182.888 151.61 181.22 152.86C178.26 155.042 173.938 158.058 168.003 162.075C157.024 169.497 141.972 179.364 127.392 188.899C123.195 191.65 118.942 194.43 114.773 197.168C116.955 195.834 119.151 194.5 121.333 193.165C134.217 185.299 147.545 177.168 157.566 171.248C162.986 168.065 167.044 165.73 170.004 164.146C174.897 161.519 176.203 161.172 177.412 161.477C178.135 161.658 178.733 162.117 179.094 162.742C179.316 163.117 179.942 164.479 178.76 166.05C178.496 166.397 178.135 166.773 177.635 167.217C176.856 167.926 175.703 168.816 174.132 169.955C171.936 171.554 168.948 173.597 165.043 176.182C168.253 174.57 169.296 174.403 170.296 174.653C171.033 174.847 171.644 175.306 172.006 175.945C172.228 176.321 172.854 177.683 171.631 179.156C171.422 179.42 171.158 179.684 170.783 180.018C170.213 180.504 169.407 181.129 168.281 181.949C166.321 183.381 163.458 185.355 159.511 187.995C154.188 191.539 147.517 195.889 140.248 200.601C142.639 199.155 144.89 197.793 146.947 196.584C150.491 194.486 153.16 192.943 155.092 191.901C158.358 190.136 159.372 189.788 160.498 190.08C161.207 190.261 161.791 190.691 162.152 191.317C162.36 191.678 162.944 192.943 161.93 194.402C161.721 194.68 161.471 194.972 161.11 195.333C160.581 195.834 159.817 196.487 158.775 197.321C156.982 198.752 154.341 200.726 150.714 203.325C144.473 207.828 136.357 213.457 127.698 219.461C129.7 218.266 131.576 217.14 133.299 216.125C136.051 214.499 138.122 213.318 139.623 212.512C142.208 211.122 143.125 210.747 144.237 211.038C144.932 211.219 145.516 211.65 145.877 212.275C146.113 212.692 146.586 213.818 145.766 215.152C145.613 215.43 145.391 215.694 145.099 216.014C144.71 216.445 144.14 217.001 143.348 217.682C142.027 218.863 140.095 220.462 137.441 222.574C132.563 226.438 125.961 231.483 119.568 236.361C119.364 236.519 119.155 236.681 118.942 236.848C119.035 236.866 119.132 236.889 119.234 236.917C119.901 237.084 120.485 237.529 120.833 238.126C121.541 239.349 121.124 240.934 119.887 241.642C119.656 241.772 119.415 241.865 119.165 241.92C117.803 242.588 112.341 245.895 108.282 248.355C105.294 250.162 102.195 252.038 99.8184 253.442C98.5258 254.206 97.539 254.762 96.8163 255.152C95.9129 255.638 95.1625 256.041 94.3286 256.041C94.1155 256.041 93.8931 256.013 93.6614 255.958C92.9943 255.777 92.4106 255.346 92.0631 254.735C91.5906 253.928 91.3404 252.636 92.8136 251.065C93.175 250.662 93.7031 250.176 94.4119 249.551C95.6211 248.494 97.3862 247.035 99.8184 245.117C104.252 241.601 110.117 237.125 116.316 232.372C109.617 236.458 102.806 240.586 97.5112 243.699C94.4675 245.492 92.1882 246.799 90.5065 247.688C87.5601 249.273 86.6289 249.578 85.531 249.3C84.8361 249.12 84.2523 248.675 83.891 248.05C83.6269 247.605 83.1266 246.396 84.0994 244.964C84.3079 244.658 84.5859 244.339 84.975 243.95C85.5449 243.394 86.3788 242.671 87.5045 241.768C89.4781 240.183 92.3411 238.029 96.2882 235.194C101.542 231.413 108.13 226.799 114.981 222.032C107.893 226.354 101.055 230.496 95.2736 233.887C90.6177 236.639 87.0876 238.64 84.4886 240.016C80.0273 242.365 78.832 242.629 77.6923 242.337C76.9557 242.157 76.3581 241.698 75.9968 241.059C75.7188 240.586 75.1907 239.308 76.3025 237.793C76.5666 237.431 76.914 237.042 77.4144 236.583C78.1927 235.861 79.3323 234.943 80.9028 233.762C83.1405 232.08 86.2259 229.898 90.2703 227.147C90.1405 227.221 90.0108 227.295 89.8811 227.369C84.9194 230.315 81.1669 232.442 78.4151 233.901C73.7591 236.375 72.5222 236.639 71.327 236.347C70.5903 236.153 69.9927 235.708 69.6175 235.055C69.3951 234.679 68.7697 233.317 69.9649 231.775C70.229 231.441 70.5626 231.094 71.0351 230.677C71.7717 230.037 72.8419 229.203 74.3151 228.133C76.233 226.744 78.832 224.978 82.1676 222.769C78.4984 224.895 75.5659 226.549 73.2588 227.772C67.8246 230.691 66.6849 230.871 65.5175 230.566C64.7948 230.385 64.1972 229.94 63.8219 229.301C63.5439 228.8 63.0019 227.48 64.2388 225.924C64.5168 225.576 64.906 225.187 65.4341 224.714C66.2958 223.95 67.5466 222.949 69.27 221.671C72.3276 219.391 76.789 216.264 82.9181 212.123C94.2452 204.451 109.672 194.361 124.585 184.59C131.076 180.351 137.677 176.029 143.959 171.887C135.634 176.946 126.739 182.394 118.025 187.731C103.349 196.737 89.492 205.229 78.7069 211.622C72.8975 215.055 68.5334 217.557 65.3646 219.266C59.8609 222.213 58.7073 222.393 57.5538 222.102C56.8172 221.921 56.2196 221.462 55.8443 220.823C55.5663 220.336 55.0382 219.03 56.2057 217.459C56.4975 217.07 56.8867 216.653 57.4426 216.153C58.3321 215.347 59.6385 214.318 61.4453 212.984C64.628 210.649 69.2978 207.439 75.7188 203.2C87.6157 195.347 104.057 184.896 119.943 174.792C123.96 172.235 128.018 169.663 132.021 167.106C130.418 168.088 128.801 169.075 127.17 170.066C109.672 180.74 91.5906 191.776 77.5534 200.017C69.951 204.492 64.225 207.745 60.0277 209.982C52.7172 213.874 51.3969 213.957 50.2016 213.651C49.4511 213.471 48.8396 212.998 48.4643 212.359C48.1725 211.845 47.6304 210.496 48.8952 208.912C49.201 208.537 49.6179 208.12 50.2016 207.62C51.1606 206.8 52.5504 205.757 54.4684 204.409C57.8735 202.005 62.8768 198.739 69.7287 194.402C70.6181 193.837 71.5262 193.263 72.4527 192.679C70.6459 193.763 68.8948 194.805 67.2131 195.806C60.9728 199.503 56.303 202.185 52.9396 204.02C47.1162 207.161 46.0043 207.369 44.823 207.064C44.1003 206.883 43.5027 206.438 43.1413 205.799C42.8356 205.271 42.2796 203.881 43.6972 202.255C44.0308 201.866 44.4894 201.435 45.1427 200.893C46.2128 199.989 47.7972 198.794 49.9793 197.265C53.8708 194.527 59.5412 190.747 67.2965 185.744C75.288 180.587 84.836 174.528 94.9957 168.149C84.5581 174.556 74.6347 180.587 66.2958 185.535C58.7073 190.024 52.9813 193.29 48.784 195.514C41.543 199.35 40.0559 199.42 38.8746 199.128C38.1101 198.933 37.4708 198.461 37.0817 197.793C36.7898 197.293 36.2478 195.945 37.4847 194.291C37.8183 193.832 38.2908 193.332 38.9718 192.721C40.0837 191.72 41.7098 190.427 43.9752 188.787C47.9918 185.869 53.8569 181.908 61.9317 176.654C76.8446 166.953 97.136 154.278 116.76 142.02C117.279 141.696 117.803 141.367 118.331 141.033C99.0401 152.847 79.3601 164.869 63.9053 173.972C55.1077 179.156 48.4504 182.936 43.5722 185.521C35.2193 189.941 33.6627 190.052 32.3702 189.719C31.6058 189.524 30.9665 189.051 30.5912 188.384C30.2854 187.856 29.7295 186.453 31.161 184.799C31.5224 184.382 32.0088 183.923 32.7037 183.339C33.8712 182.38 35.5807 181.129 37.9434 179.503C38.3881 179.198 38.8514 178.883 39.3332 178.558C30.9248 182.978 29.2709 183.089 27.9922 182.769C27.2139 182.575 26.5746 182.088 26.1993 181.421C25.8936 180.921 25.3516 179.559 26.5885 177.905C26.936 177.433 27.4224 176.932 28.1034 176.321C29.2292 175.32 30.9109 174.041 33.218 172.401C37.304 169.511 43.3081 165.577 51.5636 160.379C52.1659 160 52.7774 159.61 53.3982 159.212C52.7218 159.62 52.0547 160.013 51.3969 160.393C43.4471 165.091 37.4708 168.496 33.1624 170.831C30.758 172.123 28.9234 173.068 27.5197 173.694C25.3238 174.695 24.2814 174.931 23.2668 174.681C22.5441 174.486 21.9326 174.041 21.5712 173.402C20.2509 171.095 22.5997 168.982 23.7255 167.968C25.0319 166.8 26.9499 165.299 29.6183 163.368C34.3576 159.949 41.2512 155.32 50.702 149.205C59.2633 143.66 69.2005 137.364 79.7354 130.762C68.8253 137.419 58.4572 143.674 49.5762 148.899C40.7786 154.097 34.1492 157.864 29.2987 160.449C21.0153 164.841 19.4726 164.952 18.194 164.632C17.4296 164.438 16.8041 163.965 16.415 163.298C16.1231 162.784 15.5672 161.394 16.8736 159.698C17.2489 159.212 17.7909 158.67 18.5275 158.017C19.7784 156.933 21.6129 155.515 24.1563 153.722C28.6871 150.512 35.2888 146.161 44.3505 140.408C45.7218 139.537 47.1301 138.647 48.5755 137.739C46.4213 139.018 44.3505 140.255 42.3491 141.436C34.4271 146.12 28.4787 149.525 24.1563 151.846C16.6791 155.862 15.4004 155.96 14.1913 155.654C13.4547 155.459 12.8292 155.001 12.454 154.348C12.1621 153.833 11.6062 152.457 12.9265 150.79C13.2879 150.331 13.7743 149.845 14.4831 149.233C15.6506 148.232 17.3601 146.94 19.7367 145.3C21.4323 144.105 23.4614 142.743 25.8241 141.2C24.3509 142.015 23.0074 142.747 21.7936 143.396C13.7326 147.718 12.3289 147.829 11.1059 147.51C10.3554 147.329 9.74383 146.856 9.36858 146.217C9.06282 145.689 8.50689 144.271 9.89671 142.59C10.272 142.145 10.8001 141.631 11.5228 141.019C12.6764 140.06 14.3164 138.837 16.5401 137.294C11.0503 140.213 9.82722 140.394 8.67367 140.102C7.95096 139.921 7.33944 139.463 6.96418 138.823C6.67232 138.295 6.11639 136.905 7.52011 135.307C7.83977 134.946 8.27062 134.543 8.88214 134.042C9.89671 133.222 11.3699 132.152 13.413 130.762C14.7333 129.859 16.276 128.83 18.055 127.677C17.9623 127.723 17.8697 127.769 17.777 127.816C9.39638 132.277 7.85367 132.388 6.57503 132.055C5.81063 131.86 5.18521 131.402 4.80996 130.734C4.5042 130.206 3.94826 128.816 5.35199 127.176C5.69944 126.773 6.17198 126.329 6.8391 125.759C7.95096 124.828 9.57705 123.619 11.8425 122.048C15.8591 119.241 21.7102 115.405 29.7573 110.29C32.94 108.261 36.3868 106.093 40.0142 103.827C37.1929 105.509 34.4966 107.107 31.9532 108.608C24.2675 113.139 18.4858 116.447 14.2886 118.699C7.00588 122.618 5.75504 122.715 4.57369 122.409C3.83708 122.229 3.22556 121.77 2.8642 121.131C2.57234 120.617 2.01641 119.268 3.28115 117.614C3.61471 117.184 4.08724 116.697 4.75436 116.1C5.85232 115.127 7.46452 113.89 9.68824 112.291C13.6492 109.456 19.417 105.593 27.3529 100.492C31.2305 98.0041 35.4695 95.3217 39.9586 92.4865C37.3457 94.0431 34.8163 95.5441 32.398 96.9617C24.2119 101.771 18.0411 105.287 13.552 107.691C5.75504 111.861 4.4486 111.958 3.22555 111.652C2.47505 111.458 1.86353 110.999 1.48827 110.36C1.21031 109.859 0.668279 108.511 1.87743 106.885C2.21098 106.454 2.65573 105.982 3.29504 105.398C4.35131 104.467 5.89402 103.258 8.02045 101.729C11.7869 99.0047 17.3045 95.3078 24.8651 90.4295C29.4237 87.4831 34.5244 84.2587 39.9447 80.8536C35.4695 83.5638 31.2444 86.0933 27.3529 88.4004C20.5428 92.4309 15.4143 95.3634 11.6757 97.3509C5.11572 100.853 3.87877 100.923 2.73912 100.631C1.98861 100.45 1.37709 99.9915 1.00183 99.3383C0.709971 98.8241 0.16794 97.4898 1.41878 95.8915C1.72454 95.5024 2.15539 95.0715 2.75301 94.5434C3.72589 93.7095 5.15741 92.6255 7.11706 91.2495C8.00655 90.6195 9.00259 89.9338 10.1052 89.1926C5.2408 91.7638 4.17064 91.9166 3.07268 91.6248C2.34997 91.4441 1.75234 90.9994 1.39099 90.36C1.15472 89.957 0.501498 88.5116 1.90522 86.9272C2.19708 86.6075 2.57234 86.2462 3.11437 85.8014C3.98996 85.0648 5.2686 84.1058 7.01978 82.855C10.1469 80.6313 14.7055 77.5737 20.9458 73.5015C26.1299 70.1103 32.1756 66.2188 38.6522 62.0771C34.4132 64.6344 30.4105 67.0388 26.797 69.1652C20.779 72.7232 16.2621 75.3082 12.9682 77.0594C7.06147 80.2143 5.97741 80.2699 4.87945 79.9919C4.14284 79.8113 3.54521 79.3526 3.16996 78.7133C2.892 78.2408 2.36386 76.9621 3.46183 75.4472C3.72589 75.072 4.08725 74.6828 4.60148 74.2103C5.37979 73.4876 6.53334 72.5703 8.13164 71.4028C10.9113 69.3598 14.9974 66.594 20.6123 62.9388C21.5295 62.3458 22.4746 61.7343 23.4475 61.1042C19.7923 63.2446 16.9292 64.8707 14.775 66.052C10.3554 68.4425 9.28519 68.7344 8.11774 68.4286C7.40893 68.2479 6.8252 67.8032 6.46385 67.1778C6.24148 66.8025 5.62995 65.4683 6.7974 63.9395C7.01978 63.6337 7.33944 63.3002 7.77028 62.8971C8.4513 62.2717 9.43807 61.4656 10.7862 60.4232C13.1489 58.6026 16.5957 56.1009 21.335 52.7931C27.8949 48.1928 36.1922 42.5223 44.7674 36.7128C40.3756 39.3674 36.22 41.8552 32.537 44.0233C28.0895 46.6362 24.74 48.5402 22.2801 49.8467C18.0828 52.0843 16.9292 52.3761 15.7896 52.0843C15.0669 51.9036 14.4692 51.4589 14.1079 50.8195C13.9133 50.486 13.3435 49.2768 14.2608 47.9009C14.4136 47.6785 14.6082 47.4423 14.8584 47.1643C15.2197 46.7751 15.734 46.2748 16.4289 45.6494C17.638 44.5653 19.3753 43.0782 21.7797 41.1047C26.1994 37.4494 32.0366 32.7935 38.2074 27.8596C38.9301 27.2759 39.6807 26.6783 40.4312 26.0807C38.7495 26.9562 38.124 27.0396 37.3179 26.8312C36.6369 26.6644 36.0393 26.2057 35.6919 25.6081C34.983 24.3712 35.4 22.8007 36.6369 22.0919C36.9288 21.9251 37.2346 21.8139 37.5542 21.7722C39.1942 21.0078 45.504 17.1441 50.1877 14.2672C53.3843 12.3075 56.6921 10.2784 59.2077 8.79124C63.669 6.16448 64.4473 5.84482 65.6565 6.15058C66.3375 6.31736 66.9212 6.7621 67.2687 7.37362C67.9497 8.54108 67.6856 9.79192 66.5043 11.0984C66.1151 11.5153 65.5453 12.0573 64.7948 12.7522C63.4883 13.9336 61.5843 15.5597 58.9714 17.7139C54.1765 21.6749 47.6999 26.859 41.4179 31.8762C40.0281 32.9881 38.5827 34.1416 37.1373 35.3091C43.864 31.2647 51.4525 26.6366 58.8602 22.1197C68.2554 16.3797 77.1364 10.9733 84.0161 6.90108C87.7269 4.71906 90.5065 3.12076 92.5218 2.0228C95.9269 0.188231 96.9692 -0.159226 98.1089 0.132637C98.8177 0.299416 99.4014 0.744161 99.7628 1.36958C99.9712 1.74483 100.597 3.09296 99.4153 4.59397C99.1929 4.87194 98.9011 5.1777 98.498 5.53906C97.8726 6.10888 96.9831 6.84549 95.7462 7.79057C93.578 9.44446 90.4092 11.7238 86.0591 14.7675C78.0259 20.3824 67.4216 27.5678 56.1918 35.184C55.5339 35.6288 54.8761 36.0689 54.2182 36.5043C54.6537 36.2449 55.0892 35.9808 55.5246 35.7121C69.1449 27.401 83.2378 18.798 94.2035 12.3492C100.152 8.86074 104.655 6.30346 107.949 4.55228C113.856 1.41128 114.954 1.35568 116.052 1.63365C116.788 1.81433 117.386 2.27297 117.761 2.91229C118.039 3.39872 118.567 4.66347 117.469 6.19227C117.205 6.56753 116.844 6.95668 116.329 7.42922C115.537 8.16582 114.384 9.08311 112.785 10.2506C110.492 11.9322 107.323 14.1004 103.168 16.8383C103.853 16.4306 104.53 16.0322 105.197 15.6431C111.368 12.0017 116.01 9.34717 119.415 7.5404C125.002 4.56618 126.433 4.21872 127.698 4.53838C128.435 4.71906 129.046 5.1777 129.408 5.83092C129.644 6.23397 130.297 7.66549 128.893 9.26378C128.602 9.59734 128.212 9.9587 127.67 10.4173C126.781 11.1678 125.488 12.1407 123.696 13.4055C120.527 15.6709 115.899 18.7702 109.561 22.9119C103.738 26.72 96.858 31.1396 89.5198 35.8372C98.359 30.4864 106.74 25.4552 113.856 21.2719C120.777 17.1997 125.989 14.2255 129.769 12.1963C136.204 8.73565 137.496 8.51328 138.706 8.81904C139.442 9.01362 140.04 9.45836 140.401 10.0977C140.693 10.598 141.235 11.9461 139.984 13.5305C139.679 13.9058 139.262 14.3227 138.678 14.8231C137.983 15.4346 137.038 16.1573 135.815 17.0468C136.158 16.8522 136.496 16.6715 136.829 16.5048C144.001 12.7105 145.405 12.6272 146.6 12.9329C147.364 13.1275 147.99 13.5861 148.365 14.2533C148.657 14.7536 149.199 16.0878 147.962 17.6722C147.656 18.0753 147.239 18.5061 146.642 19.0343C145.683 19.882 144.265 20.9661 142.319 22.3559C138.859 24.8298 133.8 28.2071 126.837 32.6823C113.939 40.9935 96.8997 51.5283 78.8459 62.7025C71.2158 67.4279 63.4605 72.2228 56.0111 76.8648C64.9338 71.4862 74.2873 65.8018 83.474 60.2009C101.208 49.4297 117.956 39.2423 130.937 31.5983C137.913 27.4705 143.153 24.4824 146.933 22.4393C153.368 18.937 154.577 18.7146 155.787 19.0204C156.509 19.2149 157.107 19.6597 157.482 20.299C157.774 20.7993 158.316 22.1475 157.051 23.7597C156.732 24.1766 156.287 24.6213 155.662 25.1634C154.647 26.0529 153.146 27.1925 151.089 28.6657C147.42 31.2647 142.055 34.8366 134.675 39.562C122.069 47.6507 105.03 58.1995 88.1438 68.6371C104.961 58.3941 121.75 48.1928 134.925 40.4375C143.056 35.6427 149.185 32.1542 153.632 29.7776C161.332 25.6498 162.694 25.5386 163.903 25.8583C164.64 26.039 165.251 26.4976 165.627 27.1508C165.932 27.679 166.488 29.0688 165.085 30.6949C164.751 31.0979 164.278 31.5288 163.625 32.0708C162.541 32.9881 160.943 34.1694 158.733 35.7121C154.8 38.4362 149.06 42.2026 141.18 47.206C131.353 53.4463 119.081 61.0625 106.212 68.9984C120.318 60.3954 133.397 52.4456 144.084 46.1219C151.52 41.7301 157.093 38.5335 161.137 36.3515C168.17 32.5572 169.379 32.4739 170.547 32.7657C171.283 32.9464 171.895 33.405 172.27 34.0444C172.562 34.5725 173.118 35.9762 171.742 37.6857C171.367 38.1443 170.824 38.6725 170.088 39.3118C169.073 40.1596 167.683 41.2158 165.849 42.5223C172.909 38.8809 174.369 38.8115 175.578 39.1172C176.342 39.3118 176.981 39.7843 177.357 40.4514C177.662 40.9796 178.218 42.3694 176.815 43.9955C176.481 44.3707 176.022 44.8016 175.383 45.3297C174.313 46.1914 172.742 47.3311 170.574 48.8043C170.306 48.9896 170.023 49.1795 169.727 49.3741C177.371 45.2741 178.663 45.1629 179.872 45.4826C180.609 45.6633 181.22 46.1219 181.596 46.7751C181.887 47.2894 182.443 48.6653 181.123 50.3331C180.776 50.7639 180.289 51.2504 179.594 51.848C178.455 52.8209 176.773 54.0856 174.452 55.6978C173.146 56.6151 171.631 57.6297 169.921 58.7554C170.913 58.218 171.848 57.7131 172.729 57.2405C181.151 52.7653 182.707 52.6541 183.972 52.9738C184.737 53.1683 185.376 53.6409 185.751 54.2941C186.057 54.8222 186.599 56.1843 185.265 57.8104C184.931 58.2134 184.473 58.6581 183.833 59.2141C182.763 60.1175 181.206 61.2849 179.052 62.7998C175.202 65.4822 169.56 69.1652 161.805 74.0713C147.406 83.1608 128.254 94.8492 107.963 107.219C90.5204 117.851 72.5778 128.803 57.5399 138.184C71.8829 129.581 88.6442 119.324 104.947 109.331C125.141 96.9617 144.223 85.2872 159.178 76.434C167.239 71.6808 173.298 68.2062 177.704 65.8574C185.306 61.7852 186.668 61.688 187.892 61.9937C188.628 62.1744 189.254 62.6469 189.629 63.3002C189.935 63.8144 190.477 65.1764 189.142 66.7747C188.837 67.15 188.406 67.5669 187.794 68.0812C186.807 68.9289 185.348 70.0408 183.333 71.4584C179.733 74.0018 174.452 77.5042 167.197 82.1601C153.688 90.8326 135.509 102.132 116.26 114.084C96.8858 126.12 76.9002 138.531 60.5697 148.955C73.0503 141.492 87.4072 132.764 102.417 123.646C122.917 111.194 144.098 98.3098 160.29 88.8034C169.032 83.6472 175.619 79.9086 180.4 77.3374C188.642 72.9177 190.004 72.7927 191.269 73.1262C192.005 73.3069 192.617 73.7794 192.992 74.4188C193.284 74.933 193.84 76.2811 192.603 77.9489C192.256 78.4214 191.769 78.9218 191.074 79.5472C189.935 80.5479 188.253 81.8404 185.932 83.4943C181.804 86.4129 175.758 90.3739 167.461 95.6136C165.905 96.5865 164.292 97.5918 162.625 98.6295C164.32 97.6196 165.96 96.6467 167.545 95.7109C174.702 91.458 180.067 88.3865 183.944 86.2879C190.504 82.7438 191.797 82.5075 193.048 82.8272C193.77 83.0079 194.382 83.4665 194.757 84.1058C195.063 84.634 195.619 86.0377 194.174 87.6638C193.84 88.039 193.381 88.4699 192.728 88.998C191.644 89.8875 190.046 91.0411 187.85 92.5421C185.223 94.3349 181.79 96.5865 177.454 99.3661C180.22 97.7678 182.569 96.4614 184.542 95.3912C191.408 91.6943 192.603 91.6109 193.77 91.9027C194.493 92.0834 195.105 92.5421 195.48 93.1814C196.745 95.3773 194.577 97.3092 193.659 98.1292C192.603 99.0603 191.06 100.269 188.934 101.812C185.14 104.55 179.594 108.289 171.95 113.25C157.816 122.437 138.33 134.612 119.484 146.384C104.544 155.71 89.2001 165.299 76.1774 173.611C87.8381 166.536 101.139 158.336 114.106 150.331C132.285 139.115 151.061 127.524 165.376 119.046C173.104 114.474 178.955 111.138 183.236 108.872C190.629 104.981 192.13 104.898 193.34 105.203C194.104 105.398 194.743 105.87 195.133 106.538ZM106.017 133.097C94.1479 140.269 82.2093 147.496 71.4798 154.07C82.2232 147.621 94.0645 140.408 106.017 133.097ZM116.385 240.711C116.496 240.887 116.617 241.045 116.746 241.184C116.607 241.045 116.487 240.887 116.385 240.711Z" fill="#E93337"/>
<path fill-rule="evenodd" clip-rule="evenodd" d="M163.083 104.94C163.333 105.384 163.834 106.594 162.847 108.053C162.638 108.359 162.36 108.692 161.957 109.095C161.36 109.693 160.484 110.471 159.289 111.458C157.218 113.181 154.202 115.516 150.061 118.616C143.709 123.355 135.662 129.192 127.518 135.057C133.258 131.555 138.817 128.191 143.417 125.481C147.017 123.355 149.727 121.812 151.728 120.756C155.022 119.005 156.176 118.629 157.329 118.921C158.038 119.102 158.636 119.547 158.997 120.172C159.456 120.964 159.706 122.243 158.288 123.758C157.969 124.105 157.51 124.55 156.885 125.106C155.828 126.065 154.272 127.385 152.159 129.137C148.24 132.389 143.028 136.558 137.524 140.992C136.978 141.427 136.422 141.872 135.857 142.326C136.829 141.742 137.747 141.186 138.594 140.7C140.095 139.81 141.221 139.157 142.041 138.712C143.32 138.018 144.251 137.517 145.391 137.809C146.072 137.99 146.655 138.434 147.003 139.032C147.712 140.255 147.295 141.84 146.058 142.548C145.794 142.701 145.516 142.799 145.238 142.84C143.598 143.619 136.718 147.802 131.145 151.207C126.962 153.736 122.653 156.377 119.29 158.337C117.455 159.421 116.065 160.213 115.051 160.755C113.286 161.7 112.396 162.075 111.312 161.797C110.617 161.617 110.047 161.186 109.686 160.574C109.019 159.407 109.269 158.17 110.437 156.877C110.812 156.46 111.354 155.932 112.077 155.265C113.341 154.112 115.162 152.555 117.65 150.484C122.236 146.676 128.365 141.742 134.3 136.975C134.356 136.938 134.411 136.896 134.467 136.85C130.617 139.185 126.572 141.659 122.598 144.091C114.689 148.928 107.212 153.5 101.375 156.947C98.2201 158.809 95.8574 160.171 94.1201 161.103C91.7574 162.381 90.6594 162.84 89.7699 162.84C89.5198 162.84 89.2974 162.798 89.0611 162.742C88.3662 162.562 87.7686 162.117 87.4211 161.506C87.2127 161.144 86.615 159.852 87.6852 158.406C87.8659 158.17 88.1021 157.92 88.4079 157.614C88.8665 157.183 89.5337 156.613 90.4371 155.877C92.0215 154.598 94.3286 152.833 97.4974 150.484C103.376 146.12 111.284 140.422 119.665 134.376C124.168 131.124 128.768 127.816 133.146 124.647C127.837 127.844 122.222 131.249 116.719 134.599C106.42 140.853 96.7052 146.76 89.1306 151.221C85.0445 153.639 81.973 155.39 79.7632 156.586C76.0385 158.601 74.9683 158.976 73.8009 158.67C73.092 158.49 72.5083 158.045 72.147 157.433C71.9385 157.058 71.3409 155.752 72.4527 154.278C72.6612 154.014 72.9253 153.736 73.2866 153.389C73.8287 152.889 74.6208 152.235 75.7049 151.388C77.5951 149.914 80.3747 147.885 84.1828 145.175C91.257 140.158 100.819 133.584 110.937 126.621C117.427 122.16 124.043 117.615 130.242 113.32C124.516 116.795 118.456 120.492 112.507 124.133C101.014 131.166 89.1445 138.421 80.194 143.702C75.3575 146.565 71.7161 148.65 69.0616 150.067C64.6002 152.444 63.3911 152.764 62.2236 152.472C61.5009 152.277 60.9033 151.832 60.5419 151.207C60.264 150.721 59.7358 149.442 60.8616 147.941C61.1118 147.607 61.4453 147.26 61.904 146.829C62.6406 146.162 63.6968 145.3 65.1422 144.188C67.6995 142.243 71.4243 139.588 76.5388 136.058C84.9055 130.29 95.8991 122.938 106.92 115.6C95.2042 122.785 83.4045 129.998 74.1344 135.474C68.589 138.74 64.4056 141.117 61.3341 142.743C56.2196 145.467 54.8714 145.773 53.6484 145.453C52.9118 145.272 52.3003 144.814 51.925 144.174C51.6471 143.688 51.1189 142.395 52.2725 140.881C52.5365 140.533 52.884 140.172 53.3704 139.727C54.1348 139.046 55.2467 138.143 56.7755 136.989C59.4718 134.974 63.3911 132.194 68.7836 128.525C77.5117 122.59 88.9638 115.044 100.444 107.497C88.4496 114.905 76.233 122.424 66.8517 127.983C61.4731 131.18 57.4148 133.487 54.4267 135.071C49.4789 137.684 48.103 137.99 46.88 137.684C46.1434 137.503 45.5179 137.045 45.1427 136.391C44.8647 135.891 44.3366 134.585 45.5596 133.056C45.8237 132.736 46.1711 132.389 46.6437 131.958C47.422 131.263 48.5616 130.346 50.1043 129.178C52.8562 127.107 56.8589 124.258 62.3348 120.464C72.4527 113.459 86.1564 104.286 99.4153 95.4055C100.759 94.4975 102.102 93.5941 103.446 92.6953C101.764 93.7238 100.096 94.7523 98.4146 95.7808C85.392 103.8 71.9107 112.083 61.6399 118.157C56.0806 121.451 51.8833 123.841 48.7979 125.467C43.7112 128.164 42.3074 128.483 41.0844 128.178C40.3478 127.997 39.7363 127.524 39.361 126.885C39.1386 126.496 38.4993 125.106 39.7779 123.549C40.042 123.23 40.3895 122.882 40.8759 122.451C41.6542 121.77 42.78 120.881 44.3366 119.741C47.0745 117.726 51.0772 114.96 56.5531 111.277C62.5294 107.247 69.7704 102.494 77.4144 97.4902C69.8676 102.104 62.6823 106.455 56.706 109.985C51.522 113.056 47.6027 115.294 44.7535 116.823C40.0142 119.352 38.7356 119.686 37.5125 119.38C36.7898 119.199 36.1922 118.741 35.8169 118.101C35.5946 117.726 34.9692 116.35 36.1922 114.849C36.4285 114.557 36.7342 114.252 37.1651 113.876C37.8183 113.306 38.7634 112.57 40.0698 111.625C42.363 109.971 45.7264 107.678 50.3545 104.648C51.6239 103.805 52.9581 102.929 54.3572 102.021C49.6596 104.773 46.0183 106.83 43.2664 108.289C38.0685 111.055 36.7203 111.375 35.4973 111.069C34.7607 110.874 34.1631 110.416 33.7878 109.776C32.6204 107.747 34.4827 105.982 35.1915 105.329C35.9559 104.606 37.0678 103.689 38.6105 102.521C41.2929 100.451 45.2122 97.657 50.563 93.9462C54.9687 90.9164 60.0138 87.4974 65.3785 83.8978C61.626 86.1493 58.0402 88.2896 54.7603 90.2215C49.3399 93.4181 45.2261 95.7391 42.1962 97.3374C37.1234 100.034 35.8031 100.339 34.58 100.02C33.8434 99.839 33.2458 99.3804 32.8705 98.7411C32.6481 98.3658 32.0366 97.0038 33.2319 95.5306C33.4404 95.2804 33.7044 95.0025 34.0797 94.6828C34.6356 94.1825 35.4417 93.5431 36.5397 92.7231C38.4715 91.2638 41.2929 89.2764 45.1705 86.6079C49.882 83.3696 55.6358 79.492 61.9179 75.3086C58.7629 77.2127 55.7609 79.0056 53.0091 80.6178C48.381 83.3418 44.8925 85.3293 42.3074 86.6913C37.9017 89.0262 36.7064 89.2903 35.5668 88.9984C34.8441 88.8177 34.2464 88.3591 33.8712 87.7198C33.6766 87.3723 33.0929 86.1215 34.0797 84.6761C34.2742 84.3981 34.5244 84.1062 34.8719 83.7588C35.3722 83.2584 36.0949 82.633 37.0817 81.813C38.7912 80.4093 41.3068 78.4913 44.7396 75.948C50.9938 71.3198 59.5691 65.2046 67.8802 59.2701C62.6128 62.4806 57.5399 65.5382 53.3148 68.026C49.9098 70.0273 47.3525 71.4866 45.4762 72.4873C42.2796 74.1829 41.2373 74.5303 40.1115 74.2524C39.4027 74.0717 38.819 73.627 38.4576 73.0015C38.0129 72.2371 37.7627 71.0002 39.0691 69.4992C39.3471 69.1656 39.7641 68.7348 40.3339 68.1927C41.279 67.2755 42.6688 66.0107 44.5589 64.3429C48.0474 61.2575 52.8423 57.1436 57.4704 53.1548C57.7113 52.951 57.9522 52.7472 58.1931 52.5433C57.0952 53.0854 56.4836 53.1826 55.7331 52.9881C55.0521 52.8213 54.4684 52.3765 54.1209 51.7789C53.4121 50.542 53.8291 48.9715 55.066 48.2627C55.3162 48.1098 55.5803 48.0125 55.8443 47.9708C57.1508 47.3315 61.9179 44.4128 65.4341 42.2447C68.1721 40.5769 70.9934 38.8397 73.1754 37.561C74.3707 36.8522 75.288 36.3241 75.969 35.9627C77.1503 35.3373 77.9981 34.9481 79.0544 35.2261C79.7354 35.3929 80.3191 35.8376 80.6666 36.4492C81.1113 37.2136 81.3615 38.4505 80.0551 39.9654C79.7493 40.3268 79.3185 40.7715 78.7208 41.3552C77.7202 42.3142 76.2608 43.6484 74.2734 45.4135C70.6043 48.6657 65.6426 52.9325 60.8199 57.0602C60.2223 57.5884 59.5968 58.1165 58.9575 58.6724C63.405 55.9901 68.2277 53.0437 72.9531 50.1667C80.5415 45.5386 87.713 41.1746 93.3001 37.8807C96.3299 36.0878 98.5953 34.7814 100.249 33.8919C102.987 32.4187 104.016 32.0156 105.155 32.3075C105.864 32.4882 106.448 32.919 106.795 33.5444C107.004 33.8919 107.587 35.1427 106.601 36.5881C106.406 36.88 106.142 37.1858 105.795 37.5471C105.266 38.0613 104.516 38.7285 103.487 39.5763C101.695 41.0495 99.0818 43.0508 95.5099 45.7054C88.9083 50.5837 79.9161 57.0047 71.2297 63.2033C69.8676 64.1762 68.4917 65.1629 67.1158 66.1358C71.4659 63.4951 75.9412 60.7433 80.3608 58.0331C89.9089 52.1959 98.9289 46.6783 105.906 42.5366C109.658 40.3129 112.494 38.7007 114.537 37.5888C117.983 35.7403 119.04 35.379 120.207 35.6709C120.916 35.8515 121.5 36.2963 121.861 36.9217C122.083 37.2969 122.695 38.6312 121.541 40.16C121.305 40.4796 120.985 40.8132 120.541 41.2162C119.86 41.8556 118.859 42.6756 117.483 43.7179C115.093 45.5386 111.604 48.0264 106.837 51.3342C101.319 55.1423 94.6621 59.6314 87.6574 64.3151C97.9143 58.047 107.574 52.1403 114.995 47.7484C119.067 45.3301 122.111 43.579 124.321 42.3837C128.199 40.2851 129.158 40.0349 130.256 40.3129C130.964 40.4935 131.548 40.9383 131.909 41.5637C132.132 41.939 132.743 43.2871 131.562 44.7742C131.34 45.0522 131.048 45.344 130.659 45.6915C130.061 46.2335 129.185 46.9284 127.99 47.8318C125.891 49.4023 122.806 51.5843 118.581 54.4891C110.742 59.8677 100.208 66.8585 89.075 74.2802C84.294 77.449 79.4574 80.6734 74.7459 83.8144C79.8605 80.7012 85.1418 77.4768 90.3259 74.308C102.181 67.067 113.383 60.2291 122.042 55.1006C126.711 52.3487 130.214 50.3335 132.743 48.9715C137.107 46.6227 138.164 46.3308 139.331 46.6366C140.04 46.8172 140.638 47.262 140.999 47.8874C141.277 48.3738 141.805 49.6664 140.665 51.1952C140.387 51.5565 140.026 51.9457 139.512 52.4043C138.706 53.1409 137.524 54.0721 135.898 55.2674C133.939 56.7267 131.34 58.5335 128.06 60.7572C132.146 58.3528 135.37 56.546 137.858 55.2257C142.931 52.5155 144.265 52.2098 145.474 52.5294C146.211 52.7101 146.808 53.1687 147.184 53.8081C147.406 54.1972 148.045 55.587 146.753 57.1297C146.503 57.4216 146.183 57.7413 145.724 58.1304C145.015 58.7558 143.959 59.5619 142.528 60.6043C139.998 62.4667 136.315 65.01 131.242 68.4151C123.765 73.4185 114.05 79.7839 104.071 86.2744C114.008 80.173 123.723 74.2385 131.479 69.6521C136.843 66.4694 140.888 64.1622 143.848 62.5917C148.796 59.965 150.102 59.6592 151.311 59.965C152.048 60.1596 152.659 60.6182 153.021 61.2575C153.243 61.6467 153.883 63.0226 152.604 64.5653C152.354 64.8572 152.034 65.1907 151.589 65.5799C150.867 66.2192 149.824 67.0392 148.393 68.1094C145.863 70.0134 142.18 72.6402 137.107 76.1286C127.726 82.6191 114.787 91.2916 102.278 99.6723C98.234 102.382 94.1479 105.12 90.1313 107.817C93.3696 105.815 96.6496 103.8 99.9018 101.785C112.785 93.835 126.1 85.6211 136.246 79.6032C141.735 76.351 145.891 73.9883 148.949 72.3761C153.994 69.7077 155.397 69.4019 156.634 69.7076C157.385 69.9022 157.996 70.3609 158.386 71.0141C158.594 71.3893 159.219 72.7514 158.01 74.2941C157.774 74.5998 157.44 74.9334 156.982 75.3503C156.273 75.9897 155.245 76.8097 153.827 77.8659C151.325 79.7422 147.656 82.3134 142.639 85.7184C133.341 92.0421 120.527 100.464 108.13 108.609C106.42 109.721 104.711 110.846 103.001 111.972C104.623 110.972 106.244 109.976 107.865 108.984C120.402 101.298 132.229 94.0435 141.499 88.5537C146.503 85.5933 150.269 83.4391 153.021 81.9798C157.593 79.5198 158.83 79.2001 160.039 79.5059C160.762 79.6866 161.36 80.1313 161.735 80.7707C161.944 81.1459 162.555 82.494 161.388 84.0089C161.151 84.3147 160.846 84.6483 160.401 85.0513C159.72 85.6628 158.747 86.4689 157.385 87.4835C155.008 89.2903 151.534 91.7642 146.767 95.0441C137.941 101.132 125.766 109.234 113.995 117.073C113.188 117.61 112.378 118.148 111.562 118.685C122.82 111.805 134.3 104.787 143.139 99.575C148.17 96.6147 151.965 94.4465 154.73 92.9733C159.636 90.3604 160.693 90.2076 161.805 90.4855C162.527 90.6662 163.125 91.1248 163.5 91.7642C164.654 93.7516 162.875 95.5028 162.208 96.1699C161.471 96.8926 160.415 97.796 158.941 98.9635C156.384 101.006 152.673 103.772 147.573 107.427C139.943 112.876 130.325 119.533 120.568 126.246C129.116 121.062 137.51 115.989 144.265 112.014C148.865 109.318 152.326 107.344 154.842 105.996C159.192 103.661 160.248 103.383 161.415 103.675C162.124 103.856 162.708 104.314 163.083 104.94Z" fill="white"/>
</svg>
