<svg width="257" height="243" viewBox="0 0 257 243" fill="none" xmlns="http://www.w3.org/2000/svg">
<path fill-rule="evenodd" clip-rule="evenodd" d="M128.563 203.137C125.451 208.473 120.013 212.961 114.638 214.851C115.024 215.609 115.333 216.432 115.564 217.319C117.235 223.684 114.51 231.051 109.868 235.5C103.195 241.89 92.8832 243.433 84.1143 241.569C74.5997 239.55 66.268 233.533 62.9507 224.198C60.7007 217.846 61.755 209.335 65.2137 202.649L65.3551 202.379C44.3972 208.422 16.7791 201.852 6.13306 181.999C-1.24719 168.229 -1.5172 149.521 6.64737 136.021C11.8675 127.38 20.2507 122.276 29.1739 120.617C25.0723 97.5252 46.7245 85.4776 65.4194 93.9893C78.2127 99.8138 79.3699 122.353 71.6553 127.921C76.2455 129.875 80.6556 130.633 83.4586 129.116C84.9372 117.056 80.5528 109.868 75.7569 102.012C51.6618 62.5397 65.278 26.1913 99.8391 9.12925C110.575 3.83192 119.563 1.0804 128.563 0.900391V5.51626C121.08 5.70912 113.584 7.90777 104.288 12.1251C70.5367 27.4127 56.8562 61.6911 79.9228 99.4667C86.8401 110.807 92.9732 120.862 84.8472 143.504C82.7128 149.444 79.2542 155.23 73.854 160.18C63.0793 170.068 38.1613 179.068 27.3095 165.812C21.215 158.38 21.7165 144.031 31.7968 140.47C35.6155 139.107 40.0642 139.659 43.6258 141.382C47.3673 143.195 50.2089 146.345 50.5689 150.087C51.096 155.641 46.133 157.814 41.17 156.67C44.6415 154.459 45.8759 152.324 45.7087 150.537C45.5287 148.634 43.8058 146.885 41.5043 145.767C26.1909 138.348 22.5522 164.526 39.1385 167.085C41.2728 167.406 43.4715 167.445 45.4901 167.316C66.6923 153.79 61.7164 129.592 41.98 125.529C30.5496 123.176 17.5506 127.406 10.8261 138.541C-11.8161 176.008 35.8598 212.948 80.0899 188.505C99.8906 171.945 94.1947 160.103 94.1818 160.064C105.844 166.609 93.5904 183.401 80.6042 194.163C67.348 205.156 66.7952 231.463 85.2587 235.371C97.2034 237.904 114.484 232.414 110.845 218.554C110.55 217.435 110.061 216.522 109.431 215.802C106.577 212.562 100.855 213.218 97.3705 215.905C94.2847 218.284 92.7418 223.028 96.9848 225.291C99.1834 226.474 101.459 225.998 101.755 223.26C105.625 227.953 101.189 231.527 94.6961 229.598C83.0729 223.375 92.3946 207.316 105.908 208.885C122.803 210.852 128.563 184.712 128.563 184.712V203.137ZM80.2571 141.858C80.8356 140.277 81.3242 138.772 81.7357 137.319C79.0227 138.258 76.0012 138.039 72.9025 137.088C65.2137 134.722 48.0488 120.335 47.9074 112.093C47.7016 101.254 61.485 100.56 65.8051 107.258C67.9395 110.576 66.7566 114.111 64.8022 116.182C60.9321 120.245 56.1876 116.297 58.5534 112.723C61.3178 116.94 62.6807 112.003 61.0221 109.11C58.9649 105.523 52.459 107.438 53.0504 112.543C53.6547 117.75 59.8392 124.989 64.7637 123.395C68.6981 122.135 71.1539 117.3 71.3339 113.597C71.6682 107.22 69.4438 101.19 63.4008 98.438C48.9745 91.8807 30.5496 100.92 34.034 120.052C46.5573 119.46 59.2349 125.4 65.2137 137.589C69.521 146.41 68.1966 154.909 63.3108 161.839C71.0639 157.403 77.0041 150.923 80.2571 141.858Z" fill="black"/>
<path fill-rule="evenodd" clip-rule="evenodd" d="M106.436 81.4395C110.794 81.4395 114.742 83.4067 117.583 86.5825C120.412 89.7197 122.161 94.0656 122.161 98.8486C122.161 103.632 120.412 107.965 117.583 111.115C114.742 114.291 110.794 116.258 106.436 116.258C102.077 116.258 98.1298 114.291 95.2754 111.115C92.4596 107.965 90.7109 103.632 90.7109 98.8486C90.7109 94.0656 92.4596 89.7197 95.2754 86.5825C98.1298 83.4067 102.077 81.4395 106.436 81.4395ZM116.13 87.8811C113.649 85.1167 110.216 83.3938 106.436 83.3938C102.656 83.3938 99.2227 85.1167 96.7283 87.8811C94.2211 90.6841 92.6653 94.5542 92.6653 98.8486C92.6653 103.13 94.2211 107.013 96.7283 109.816C99.2227 112.581 102.656 114.303 106.436 114.303C110.216 114.303 113.649 112.581 116.13 109.816C118.65 107.013 120.206 103.13 120.206 98.8486C120.206 94.5542 118.65 90.6841 116.13 87.8811Z" fill="#332C2B"/>
<path d="M119.885 80.7082C119.872 80.6696 116.053 66.2305 96.0723 75.5651C96.8566 71.5278 98.6181 69.4706 103.157 68.712C116.066 66.5777 121.993 75.5137 119.885 80.7082Z" fill="#332C2B"/>
<path d="M108.467 87.9844C113.301 87.9844 117.223 92.356 117.223 97.7433C117.223 103.131 113.301 107.502 108.467 107.502C103.633 107.502 99.7109 103.131 99.7109 97.7433C99.7109 96.8561 99.8138 96.0075 100.007 95.1975C100.74 96.0847 101.781 96.6504 102.951 96.6504C105.137 96.6504 106.911 94.6703 106.911 92.2274C106.911 90.7616 106.268 89.4501 105.278 88.653C106.268 88.2158 107.335 87.9844 108.467 87.9844Z" fill="black"/>
<path fill-rule="evenodd" clip-rule="evenodd" d="M161.839 86.5825C164.668 89.7197 166.416 94.0656 166.416 98.8486C166.416 103.632 164.668 107.965 161.839 111.115C158.998 114.291 155.05 116.258 150.692 116.258C146.333 116.258 142.386 114.291 139.531 111.115C136.715 107.965 134.967 103.632 134.967 98.8486C134.967 94.0656 136.715 89.7197 139.531 86.5825C142.386 83.4067 146.333 81.4395 150.692 81.4395C155.05 81.4395 158.998 83.4067 161.839 86.5825ZM136.921 98.8486C136.921 103.13 138.477 107.013 140.984 109.816C143.479 112.581 146.912 114.303 150.692 114.303C154.472 114.303 157.905 112.581 160.386 109.816C162.906 107.013 164.462 103.13 164.462 98.8486C164.462 94.5542 162.906 90.6841 160.386 87.8811C157.905 85.1167 154.472 83.3938 150.692 83.3938C146.912 83.3938 143.479 85.1167 140.984 87.8811C138.477 90.6841 136.921 94.5542 136.921 98.8486Z" fill="#332C2B"/>
<path d="M137.242 80.7082C137.255 80.6696 141.061 66.2305 161.042 75.5651C160.27 71.5278 158.509 69.4706 153.97 68.712C141.048 66.5777 135.134 75.5137 137.242 80.7082Z" fill="#332C2B"/>
<path d="M148.659 87.9844C143.812 87.9844 139.891 92.356 139.891 97.7433C139.891 103.131 143.812 107.502 148.659 107.502C153.494 107.502 157.416 103.131 157.416 97.7433C157.416 96.8561 157.313 96.0075 157.12 95.1975C156.387 96.0847 155.345 96.6504 154.175 96.6504C151.99 96.6504 150.215 94.6703 150.215 92.2274C150.215 90.7616 150.858 89.4501 151.848 88.653C150.858 88.2158 149.778 87.9844 148.659 87.9844Z" fill="black"/>
<path fill-rule="evenodd" clip-rule="evenodd" d="M147.579 120.039C147.579 120.039 153.918 139.055 128.562 139.84C103.207 139.055 109.546 120.039 109.546 120.039C115.769 124.128 141.343 124.128 147.579 120.039ZM117.466 131.804C120.269 134.71 124.204 136.522 128.562 136.522C132.921 136.522 136.856 134.71 139.659 131.804C136.856 128.898 132.921 127.085 128.562 127.085C124.204 127.085 120.269 128.898 117.466 131.804Z" fill="black"/>
<path fill-rule="evenodd" clip-rule="evenodd" d="M128.562 184.712C128.562 184.712 134.323 210.852 151.218 208.885C164.731 207.316 174.053 223.375 162.429 229.598C155.923 231.527 151.488 227.953 155.358 223.26C155.666 225.998 157.942 226.474 160.141 225.291C164.371 223.028 162.841 218.284 159.755 215.905C156.271 213.218 150.549 212.562 147.695 215.802C147.065 216.522 146.576 217.435 146.28 218.554C142.629 232.414 159.909 237.904 171.867 235.371C190.33 231.463 189.777 205.156 176.521 194.163C163.535 183.401 151.282 166.609 162.944 160.064C162.931 160.103 157.235 171.945 177.036 188.505C221.253 212.948 268.929 176.008 246.287 138.541C239.575 127.406 226.576 123.176 215.145 125.529C195.409 129.592 190.42 153.79 211.635 167.316C213.654 167.445 215.853 167.406 217.987 167.085C234.56 164.526 230.935 138.348 215.621 145.767C213.32 146.885 211.597 148.634 211.417 150.537C211.237 152.324 212.471 154.459 215.956 156.67C210.993 157.814 206.029 155.641 206.557 150.087C206.917 146.345 209.758 143.195 213.5 141.382C217.048 139.659 221.497 139.107 225.329 140.47C235.396 144.031 235.911 158.38 229.816 165.812C218.964 179.068 194.046 170.068 183.272 160.18C177.871 155.23 174.413 149.444 172.278 143.504C164.139 120.862 170.285 110.807 177.203 99.4667C200.256 61.6911 186.589 27.4127 152.838 12.1251C143.542 7.90777 136.033 5.70912 128.562 5.51626V0.900391C137.563 1.0804 146.55 3.83192 157.286 9.12925C191.848 26.1913 205.464 62.5397 181.369 102.012C176.573 109.868 172.188 117.056 173.654 129.116C176.47 130.633 180.88 129.875 185.47 127.921C177.756 122.353 178.913 99.8138 191.706 93.9893C210.401 85.4776 232.04 97.5252 227.939 120.617C236.875 122.276 245.258 127.38 250.478 136.021C258.63 149.521 258.373 168.229 250.992 181.999C240.346 201.852 212.728 208.422 191.77 202.379L191.912 202.649C195.371 209.335 196.425 217.846 194.175 224.198C190.858 233.533 182.526 239.55 173.011 241.569C164.229 243.433 153.918 241.89 147.257 235.5C142.616 231.051 139.89 223.684 141.562 217.319C141.793 216.432 142.102 215.609 142.474 214.851C137.113 212.961 131.674 208.473 128.562 203.137V184.712ZM193.815 161.826C188.929 154.896 187.592 146.41 191.912 137.589C197.878 125.4 210.568 119.46 223.079 120.052C226.576 100.92 208.138 91.8807 193.725 98.438C187.682 101.19 185.457 107.22 185.779 113.597C185.972 117.3 188.427 122.135 192.362 123.395C197.286 124.976 203.471 117.737 204.075 112.543C204.667 107.425 198.161 105.523 196.103 109.097C194.432 112.003 195.808 116.94 198.559 112.723C200.938 116.284 196.181 120.245 192.323 116.169C190.369 114.099 189.186 110.576 191.32 107.245C195.641 100.56 209.424 101.254 209.218 112.093C209.064 120.335 191.912 134.722 184.223 137.088C181.124 138.039 178.103 138.245 175.377 137.307C175.797 138.764 176.29 140.281 176.856 141.858C180.121 150.923 186.062 157.403 193.815 161.826Z" fill="black"/>
</svg>
