<svg width="256" height="245" viewBox="0 0 256 245" fill="none" xmlns="http://www.w3.org/2000/svg">
<path fill-rule="evenodd" clip-rule="evenodd" d="M166.498 87.6477C164.269 121.192 75.7266 143.472 34.1648 156.273C54.7169 119.273 94.9499 63.0797 131.536 57.9122C169.082 33.92 169.362 -23.8236 225.571 11.2567C246.359 7.9199 256 15.1545 256 15.1545C224.906 19.8348 217.613 22.6105 201.017 70.831C186.696 112.452 166.144 136.725 137.191 148.772L131.226 162.311L158.23 203.74L181.292 196.033C187.67 193.892 194.654 197.377 196.795 203.77C198.936 210.163 195.451 217.146 189.058 219.272L114.055 244.342C107.662 246.483 100.678 242.999 98.5524 236.606C96.4116 230.228 99.896 223.244 106.289 221.103L128.214 213.78L100.826 174.477C98.3014 170.845 95.4962 167.937 97.3269 162.931C98.0652 160.894 98.8624 159.063 99.5416 157.587C91.4507 158.34 82.8874 158.561 73.822 158.325L47.2904 204.287C34.4897 223.406 0 216.393 0 216.393L44.6328 160.997C87.3315 145.642 166.912 119.539 166.498 87.6477ZM29.204 166.8L29.3516 166.741L29.2335 166.785L29.204 166.8ZM133.367 212.053L153.063 205.468L126.324 167.095C123.785 163.463 120.98 160.554 122.81 155.549C123.091 154.796 123.371 154.073 123.652 153.379C119.828 154.412 115.886 155.269 111.796 155.977L105.757 169.694L133.367 212.053Z" fill="#01052D"/>
<path d="M196.279 9.75C199.335 9.75 201.815 12.2304 201.815 15.2867C201.815 18.3281 199.335 20.8085 196.279 20.8085C193.223 20.8085 190.742 18.3281 190.742 15.2867C190.742 12.2304 193.223 9.75 196.279 9.75Z" fill="white"/>
</svg>
