<svg width="257" height="217" viewBox="0 0 257 217" fill="none" xmlns="http://www.w3.org/2000/svg">
<path d="M195.211 129.186H128.193V121.293H195.211C218.268 121.293 238.116 112.056 250.221 92.0218C250.937 90.8352 251.616 89.6244 252.261 88.3926C245.012 110.636 227.259 129.186 195.211 129.186Z" fill="#1A1A1A"/>
<path d="M232.943 176.67C225.788 204.578 178.756 238.998 152.729 198.039L128.193 159.426V155.826L148.538 187.844C157.653 202.189 171.252 210.896 188.538 208.671C202.616 206.859 215.888 198.075 225.125 187.587C227.914 184.421 230.654 180.702 232.943 176.67Z" fill="#1A1A1A"/>
<path d="M191.97 26.039L128.193 116.327H195.211C295.357 116.327 256.094 -64.7435 191.97 26.039ZM171.832 104.998H161.569L164.858 98.548C170.125 90.26 181.813 104.998 171.832 104.998ZM222.12 80.2001H211.858L215.146 73.7484C220.413 65.4604 232.102 80.2001 222.12 80.2001ZM227.241 30.8709H216.979L220.268 24.4208C225.534 16.1328 237.224 30.8709 227.241 30.8709Z" fill="#1A1A1A"/>
<path d="M204.755 137.059H128.193V146.569L152.729 185.18C192.018 247.01 279.215 137.059 204.755 137.059ZM150.571 165.107L147.283 158.656H157.547C167.527 158.656 155.838 173.396 150.571 165.107ZM181.942 186.553L178.654 180.101H188.916C198.898 180.101 187.209 194.841 181.942 186.553ZM208.706 155.36L205.416 148.908H215.68C225.66 148.908 213.973 163.648 208.706 155.36Z" fill="#1A1A1A"/>
<path d="M61.1749 129.186H128.192V121.293H61.1749C38.1179 121.293 18.2699 112.056 6.16509 92.0218C5.44896 90.8352 4.77001 89.6244 4.125 88.3926C11.3736 110.636 29.1267 129.186 61.1749 129.186Z" fill="#1A1A1A"/>
<path d="M23.4434 176.67C30.5982 204.578 77.6303 238.998 103.657 198.039L128.193 159.426V155.826L107.849 187.844C98.7328 202.189 85.1344 210.896 67.8485 208.671C53.7699 206.859 40.498 198.075 31.261 187.587C28.4725 184.421 25.7324 180.702 23.4434 176.67Z" fill="#1A1A1A"/>
<path d="M64.417 26.039C0.293072 -64.7435 -38.9698 116.327 61.1758 116.327H128.193L64.417 26.039ZM36.1192 24.4208L39.4073 30.8709H29.1454C19.1631 30.8709 30.8525 16.1328 36.1192 24.4208ZM34.2666 80.2001C24.2844 80.2001 35.9737 65.4604 41.2404 73.7484L44.5285 80.2001H34.2666ZM91.5283 98.548L94.818 104.998H84.5545C74.5738 104.998 86.2615 90.26 91.5283 98.548Z" fill="#1A1A1A"/>
<path d="M51.632 137.059C-22.8282 137.059 64.3688 247.01 103.658 185.18L128.194 146.569V137.059H51.632ZM47.6811 155.36C42.4144 163.648 30.7267 148.908 40.7073 148.908H50.9708L47.6811 155.36ZM74.4448 186.553C69.1781 194.841 57.4888 180.101 67.471 180.101H77.7329L74.4448 186.553ZM105.816 165.107C100.549 173.396 88.8597 158.656 98.8403 158.656H109.104L105.816 165.107Z" fill="#1A1A1A"/>
<path d="M175.248 34.3242L128.193 90.2748L81.1387 34.3242L128.193 100.448L175.248 34.3242Z" fill="#1A1A1A"/>
</svg>
