<svg width="257" height="184" viewBox="0 0 257 184" fill="none" xmlns="http://www.w3.org/2000/svg">
<path d="M65.6442 98.6153C65.6442 98.6153 63.6805 88.5303 69.3375 85.1117C69.3375 85.1117 79.7471 62.0923 112.311 84.1062L104.235 96.6096L154.156 43.84C154.156 43.84 218.103 35.3335 252.946 0.490234C255.58 12.6335 256.516 23.7647 255.99 33.9258C255.823 34.6132 250.914 53.7843 220.545 61.9214C220.545 61.9214 238.201 63.1043 252.938 53.3873C249.763 65.0048 244.329 74.9939 237.16 83.4385C232.172 87.3776 222.565 92.2722 206.338 91.0565C206.338 91.0565 215.098 94.7958 225.91 94.3633C216.902 101.626 206.287 107.277 194.638 111.405C190.322 111.853 184.316 111.268 176.843 107.584C176.843 107.584 180.644 111.395 186.576 113.977C169.464 118.856 150.544 120.732 131.447 119.873L153.158 124.581L208.436 182.732C208.436 182.732 202.021 183.596 192.833 183.702L179.727 171.939L185.761 183.623C179.628 183.412 172.825 182.795 166.115 181.431L157.943 169.887L160.592 180.116C146.606 176.292 133.998 168.684 130.073 154.035L139.493 153.274C139.59 153.266 87.6989 148.433 83.1144 109.67C81.5556 96.4979 73.0163 91.4534 65.6442 98.6153Z" fill="#1A1A1A"/>
<path d="M88.1144 69.7351L80.139 61.3062C80.139 61.3062 29.9678 54.632 2.63074 27.2949C0.568536 36.8068 -0.168821 45.5288 0.238626 53.4898C5.05176 57.2791 11.5078 60.9592 20.1588 63.8403C20.1588 63.8403 11.1556 63.9047 0.864255 60.1049C2.56502 72.348 7.16129 82.6052 13.8855 91.0038C18.7275 92.7164 24.88 93.8862 32.6057 93.7692C32.6057 93.7692 26.5702 95.9313 18.4581 96.114C26.9435 104.619 37.8841 110.837 50.21 114.945C53.35 114.615 56.9723 113.747 61.0639 112.025C61.0639 112.025 58.564 114.249 54.5289 116.28C62.8448 118.666 71.7061 120.147 80.8119 120.771C79.6001 117.5 78.7418 113.994 78.2976 110.239C76.5166 95.1874 69.3561 101.771 62.5911 108.343C60.4356 103.273 57.6439 88.2529 65.5524 81.856C70.192 73.5244 79.0297 69.5629 88.1144 69.7351Z" fill="#1A1A1A"/>
</svg>
