<svg width="257" height="167" viewBox="0 0 257 167" fill="none" xmlns="http://www.w3.org/2000/svg">
<path d="M33.7026 9.72163C41.7075 27.3067 55.2443 31.2459 55.2443 31.2459C67.2973 51.7363 52.1719 89.7218 110.256 99.8059L106.757 90.9008L142.377 133.835L150.159 166.413L153.39 165.548L149.69 133.835L143.592 96.4416L133.295 87.6687L144.086 90.6453C231.188 113.985 256.449 25.1621 256.449 25.1621L135.953 27.282C130.624 32.6122 123.549 39.6863 114.792 48.4432C93.0193 70.2158 69.2894 62.1427 67.8215 28.1386C66.3535 -5.86692 36.5079 3.18478 36.5079 3.18478L0.449219 0.449219L33.7026 9.72163Z" fill="black"/>
<path d="M104.025 103.547L129.153 133.835L136.936 166.414L140.167 165.548L136.535 134.413L112.2 105.082L109.422 104.6C107.606 104.283 105.804 103.933 104.025 103.547Z" fill="black"/>
<path d="M192.475 115.649C192.475 115.649 186.149 130.532 157.499 130.532L151.821 125.956L148.121 96.7852L192.475 115.649Z" fill="black"/>
</svg>
