<svg width="257" height="257" viewBox="0 0 257 257" fill="none" xmlns="http://www.w3.org/2000/svg">
<path d="M128.64 168.214C150.589 168.214 168.383 150.421 168.383 128.471C168.383 106.522 150.589 88.7285 128.64 88.7285C106.691 88.7285 88.8974 106.522 88.8974 128.471C88.8974 150.421 106.691 168.214 128.64 168.214Z" fill="#056677"/>
<path d="M128.64 0.470703C128.64 21.127 171.443 16.0741 147.057 48.5847C137.08 61.8826 141.79 67.3554 146.154 74.368C150.567 88.289 135.15 90.3118 128.64 79.0367C122.13 90.3118 106.713 88.289 111.126 74.368C115.49 67.3554 120.2 61.8826 110.223 48.5847C85.8371 16.0741 128.64 21.127 128.64 0.470703Z" fill="url(#paint0_linear_35_126)"/>
<path d="M128.64 15.6973C134.769 24.6339 150.499 26.2148 141.669 38.5137C134.78 48.1172 131.39 51.6304 135.763 66.4324C135.763 66.4324 128.64 62.8835 128.64 53.6615C128.64 62.8835 121.518 66.4324 121.518 66.4324C125.758 52.0805 122.671 48.1666 115.748 38.7058C106.62 26.2313 122.481 24.6806 128.64 15.6973Z" fill="white"/>
<path d="M219.151 37.9609C204.544 52.568 238.38 79.2627 198.152 85.0045C181.692 87.3567 181.154 94.5532 179.282 102.601C172.558 115.564 160.226 106.092 163.596 93.5157C151.02 96.8861 141.548 84.5544 154.511 77.8299C162.559 75.9581 169.755 75.4201 172.107 58.9604C177.849 18.7291 204.544 52.568 219.151 37.9609Z" fill="url(#paint1_linear_35_126)"/>
<path d="M208.384 48.7281C206.397 59.3801 216.401 71.6213 201.462 74.0778C189.8 75.9936 184.917 76.0841 177.545 89.64C177.545 89.64 175.017 82.0949 181.538 75.5736C175.017 82.0949 167.472 79.5671 167.472 79.5671C180.616 72.4173 181.203 67.4686 182.998 55.8834C185.364 40.6066 197.677 50.7262 208.384 48.7281Z" fill="white"/>
<path d="M159.49 54.4082C157.583 58.9918 167.549 61.8298 159.131 66.7894C155.686 68.8177 156.227 70.4672 156.548 72.4269C156.241 75.9236 152.631 74.9493 152.228 71.8451C149.741 73.7444 146.508 71.8698 148.772 69.1882C150.389 68.0355 151.942 67.2587 150.957 63.3833C148.55 53.9142 157.583 58.9918 159.49 54.4082Z" fill="url(#paint2_linear_35_126)"/>
<path d="M158.085 57.7871C158.617 60.3369 161.963 62.1429 158.867 64.0559C156.449 65.549 155.373 66.0184 154.975 69.7044C154.975 69.7044 153.721 68.258 154.574 66.2132C153.721 68.258 151.813 68.3897 151.813 68.3897C154.08 65.5957 153.757 64.4429 153.095 61.7038C152.222 58.089 155.886 59.2116 158.085 57.7871Z" fill="white"/>
<path d="M256.64 128.47C235.984 128.47 241.037 171.273 208.526 146.887C195.228 136.91 189.756 141.62 182.743 145.984C168.822 150.397 166.799 134.981 178.074 128.47C166.799 121.96 168.822 106.543 182.743 110.957C189.756 115.321 195.228 120.03 208.526 110.054C241.037 85.6673 235.984 128.47 256.64 128.47Z" fill="url(#paint3_linear_35_126)"/>
<path d="M241.413 128.472C232.476 134.6 230.895 150.33 218.597 141.5C208.993 134.611 205.477 131.222 190.678 135.594C190.678 135.594 194.227 128.472 203.449 128.472C194.227 128.472 190.678 121.349 190.678 121.349C205.03 125.59 208.944 122.502 218.404 115.58C230.879 106.451 232.43 122.312 241.413 128.472Z" fill="white"/>
<path d="M202.826 97.9172C198.234 99.8083 203.276 108.86 193.815 106.415C189.945 105.416 189.16 106.964 188.002 108.575C185.312 110.831 183.448 107.589 185.361 105.108C182.257 104.694 181.297 101.082 184.793 100.788C186.753 101.117 188.4 101.664 190.445 98.2274C195.437 89.8314 198.234 99.8083 202.826 97.9172Z" fill="url(#paint4_linear_35_126)"/>
<path d="M199.439 99.3121C198.014 101.491 199.104 105.134 195.561 104.296C192.797 103.643 191.704 103.212 188.814 105.54C188.814 105.54 188.951 103.632 191.002 102.787C188.951 103.632 187.51 102.372 187.51 102.372C191.087 102.002 191.674 100.956 193.145 98.5518C195.083 95.3818 196.878 98.7632 199.439 99.3121Z" fill="white"/>
<path d="M219.151 218.981C204.544 204.374 177.849 238.21 172.107 197.981C169.755 181.522 162.559 180.984 154.511 179.112C141.548 172.387 151.02 160.056 163.596 163.426C160.226 150.847 172.558 141.378 179.282 154.341C181.154 162.388 181.692 169.585 198.152 171.934C238.38 177.679 204.544 204.374 219.151 218.981Z" fill="url(#paint5_linear_35_126)"/>
<path d="M208.384 208.215C197.732 206.228 185.49 216.232 183.034 201.293C181.118 189.631 181.028 184.748 167.472 177.376C167.472 177.376 175.017 174.848 181.538 181.369C175.017 174.848 177.545 167.303 177.545 167.303C184.694 180.447 189.643 181.032 201.228 182.829C216.505 185.195 206.386 197.505 208.384 208.215Z" fill="white"/>
<path d="M202.702 159.321C198.116 157.413 195.283 167.379 190.321 158.961C188.293 155.516 186.643 156.057 184.683 156.378C181.187 156.068 182.161 152.462 185.265 152.058C183.366 149.572 185.241 146.338 187.922 148.603C189.075 150.219 189.854 151.77 193.727 150.787C203.196 148.38 198.116 157.413 202.702 159.321Z" fill="url(#paint6_linear_35_126)"/>
<path d="M199.324 157.916C196.774 158.449 194.968 161.794 193.055 158.698C191.559 156.28 191.092 155.204 187.406 154.806C187.406 154.806 188.85 153.552 190.897 154.406C188.85 153.552 188.721 151.645 188.721 151.645C191.515 153.912 192.668 153.588 195.407 152.926C199.022 152.053 197.899 155.718 199.324 157.916Z" fill="white"/>
<path d="M128.64 256.471C128.64 235.815 85.8371 240.865 110.223 208.357C120.2 195.057 115.49 189.587 111.126 182.574C106.713 168.653 122.13 166.63 128.64 177.905C135.15 166.63 150.567 168.653 146.154 182.574C141.79 189.587 137.08 195.057 147.057 208.357C171.443 240.865 128.64 235.815 128.64 256.471Z" fill="url(#paint7_linear_35_126)"/>
<path d="M128.64 241.243C122.511 232.306 106.782 230.725 115.611 218.424C122.5 208.823 125.89 205.307 121.518 190.508C121.518 190.508 128.64 194.057 128.64 203.279C128.64 194.057 135.763 190.508 135.763 190.508C131.522 204.86 134.61 208.774 141.532 218.234C150.661 230.709 134.799 232.26 128.64 241.243Z" fill="white"/>
<path d="M159.194 202.654C157.303 198.062 148.251 203.107 150.696 193.646C151.695 189.776 150.147 188.991 148.536 187.833C146.28 185.143 149.522 183.28 152 185.193C152.417 182.088 156.029 181.128 156.323 184.624C155.994 186.584 155.447 188.231 158.884 190.276C167.28 195.268 157.303 198.062 159.194 202.654Z" fill="url(#paint8_linear_35_126)"/>
<path d="M157.799 199.27C155.62 197.846 151.978 198.935 152.815 195.392C153.468 192.628 153.899 191.536 151.572 188.646C151.572 188.646 153.479 188.783 154.325 190.833C153.479 188.783 154.739 187.342 154.739 187.342C155.11 190.918 156.155 191.505 158.56 192.977C161.73 194.914 158.346 196.709 157.799 199.27Z" fill="white"/>
<path d="M38.1294 218.981C52.7365 204.374 18.9002 177.679 59.1288 171.934C75.5885 169.585 76.1265 162.388 77.9984 154.341C84.7228 141.378 97.0546 150.847 93.6841 163.426C106.26 160.056 115.732 172.387 102.769 179.112C94.7216 180.984 87.5251 181.522 85.1729 197.981C79.4311 238.21 52.7365 204.374 38.1294 218.981Z" fill="url(#paint9_linear_35_126)"/>
<path d="M48.8967 208.215C50.8838 197.563 40.8795 185.321 55.8187 182.865C67.4808 180.946 72.3636 180.859 79.7357 167.303C79.7357 167.303 82.2636 174.848 75.7423 181.369C82.2636 174.848 89.8087 177.376 89.8087 177.376C76.6645 184.526 76.0771 189.474 74.2821 201.059C71.9162 216.336 59.6036 206.217 48.8967 208.215Z" fill="white"/>
<path d="M97.7901 202.532C99.6976 197.946 89.7318 195.11 98.1497 190.151C101.594 188.123 101.054 186.473 100.732 184.513C101.04 181.017 104.649 181.991 105.052 185.095C107.539 183.196 110.772 185.07 108.508 187.752C106.891 188.905 105.338 189.681 106.323 193.557C108.73 203.026 99.6976 197.946 97.7901 202.532Z" fill="url(#paint10_linear_35_126)"/>
<path d="M99.1954 199.154C98.6629 196.602 95.3172 194.799 98.4132 192.886C100.831 191.393 101.907 190.923 102.305 187.234C102.305 187.234 103.559 188.681 102.706 190.728C103.559 188.681 105.467 188.552 105.467 188.552C103.2 191.346 103.524 192.499 104.185 195.238C105.058 198.853 101.394 197.73 99.1954 199.154Z" fill="white"/>
<path d="M0.640015 128.47C21.2964 128.47 16.2434 85.6673 48.754 110.054C62.0519 120.03 67.5247 115.321 74.5374 110.957C88.4583 106.543 90.4811 121.96 79.206 128.47C90.4811 134.981 88.4583 150.397 74.5374 145.984C67.5247 141.62 62.0519 136.91 48.754 146.887C16.2434 171.273 21.2964 128.47 0.640015 128.47Z" fill="url(#paint11_linear_35_126)"/>
<path d="M15.8674 128.471C24.8041 122.342 26.385 106.613 38.6838 115.442C48.2874 122.331 51.8033 125.721 66.6025 121.349C66.6025 121.349 63.0537 128.471 53.8316 128.471C63.0537 128.471 66.6025 135.594 66.6025 135.594C52.2507 131.353 48.3368 134.441 38.876 141.363C26.4015 150.492 24.8507 134.63 15.8674 128.471Z" fill="white"/>
<path d="M54.4547 159.024C59.0465 157.133 54.0045 148.081 63.4654 150.527C67.3353 151.526 68.1203 149.978 69.2786 148.366C71.9683 146.11 73.832 149.352 71.919 151.833C75.0232 152.247 75.9838 155.859 72.4871 156.153C70.5274 155.824 68.8806 155.278 66.8358 158.714C61.8433 167.11 59.0465 157.133 54.4547 159.024Z" fill="url(#paint12_linear_35_126)"/>
<path d="M57.8416 157.63C59.266 155.451 58.1764 151.809 61.7198 152.646C64.4836 153.299 65.576 153.73 68.4662 151.402C68.4662 151.402 68.3289 153.31 66.2786 154.155C68.3289 153.31 69.7699 154.57 69.7699 154.57C66.1936 154.94 65.6062 155.986 64.1351 158.39C62.1973 161.56 60.4023 158.176 57.8416 157.63Z" fill="white"/>
<path d="M38.1294 37.9609C52.7365 52.568 79.4311 18.7291 85.1729 58.9604C87.5251 75.4201 94.7216 75.9581 102.769 77.8299C115.732 84.5544 106.26 96.8861 93.6841 93.5157C97.0546 106.092 84.7228 115.564 77.9984 102.601C76.1265 94.5532 75.5885 87.3567 59.1288 85.0045C18.9002 79.2627 52.7365 52.568 38.1294 37.9609Z" fill="url(#paint13_linear_35_126)"/>
<path d="M48.8967 48.728C59.5487 50.7151 71.7899 40.7109 74.2464 55.6501C76.1622 67.3094 76.2528 72.1949 89.8087 79.5671C89.8087 79.5671 82.2636 82.0949 75.7423 75.5736C82.2636 82.0949 79.7357 89.64 79.7357 89.64C72.5859 76.4958 67.6373 75.9084 56.052 74.1134C40.7752 71.7475 50.8948 59.4349 48.8967 48.728Z" fill="white"/>
<path d="M54.5781 97.619C59.1645 99.5293 61.997 89.5634 66.9593 97.9813C68.9876 101.426 70.6372 100.885 72.5969 100.564C76.0936 100.871 75.1192 104.481 72.015 104.884C73.9143 107.371 72.0397 110.604 69.3582 108.34C68.2054 106.72 67.4259 105.17 63.5532 106.155C54.0841 108.562 59.1645 99.5293 54.5781 97.619Z" fill="url(#paint14_linear_35_126)"/>
<path d="M57.9568 99.0254C60.5066 98.4929 62.3126 95.1472 64.2256 98.2432C65.7215 100.661 66.1881 101.737 69.8742 102.135C69.8742 102.135 68.4305 103.389 66.3829 102.536C68.4305 103.389 68.5595 105.297 68.5595 105.297C65.7654 103.03 64.6126 103.354 61.8735 104.015C58.2587 104.888 59.3813 101.224 57.9568 99.0254Z" fill="white"/>
<path d="M97.7901 54.4082C99.6976 58.9918 89.7318 61.8298 98.1497 66.7894C101.594 68.8177 101.054 70.4672 100.732 72.4269C101.04 75.9236 104.649 74.9493 105.052 71.8451C107.539 73.7444 110.772 71.8698 108.508 69.1882C106.891 68.0355 105.338 67.2587 106.323 63.3833C108.73 53.9142 99.6976 58.9918 97.7901 54.4082Z" fill="url(#paint15_linear_35_126)"/>
<path d="M99.1954 57.7871C98.6629 60.3369 95.3172 62.1429 98.4132 64.0559C100.831 65.549 101.907 66.0184 102.305 69.7044C102.305 69.7044 103.559 68.258 102.706 66.2132C103.559 68.258 105.467 68.3897 105.467 68.3897C103.2 65.5957 103.524 64.4429 104.185 61.7038C105.058 58.089 101.394 59.2116 99.1954 57.7871Z" fill="white"/>
<path d="M145.97 145.804C155.542 136.231 155.542 120.711 145.97 111.138C136.397 101.565 120.877 101.565 111.304 111.138C101.731 120.711 101.731 136.231 111.304 145.804C120.877 155.376 136.397 155.376 145.97 145.804Z" fill="white"/>
<defs>
<linearGradient id="paint0_linear_35_126" x1="128.64" y1="88.7282" x2="128.64" y2="0.470345" gradientUnits="userSpaceOnUse">
<stop stop-color="#056677"/>
<stop offset="1" stop-color="#5EFCA1"/>
</linearGradient>
<linearGradient id="paint1_linear_35_126" x1="156.742" y1="100.369" x2="219.15" y2="37.961" gradientUnits="userSpaceOnUse">
<stop stop-color="#056677"/>
<stop offset="1" stop-color="#5EFCA1"/>
</linearGradient>
<linearGradient id="paint2_linear_35_126" x1="151.334" y1="73.9946" x2="159.491" y2="54.4086" gradientUnits="userSpaceOnUse">
<stop stop-color="#056677"/>
<stop offset="1" stop-color="#5EFCA1"/>
</linearGradient>
<linearGradient id="paint3_linear_35_126" x1="168.383" y1="128.47" x2="256.641" y2="128.47" gradientUnits="userSpaceOnUse">
<stop stop-color="#056677"/>
<stop offset="1" stop-color="#5EFCA1"/>
</linearGradient>
<linearGradient id="paint4_linear_35_126" x1="183.207" y1="105.997" x2="202.825" y2="97.9165" gradientUnits="userSpaceOnUse">
<stop stop-color="#056677"/>
<stop offset="1" stop-color="#5EFCA1"/>
</linearGradient>
<linearGradient id="paint5_linear_35_126" x1="156.743" y1="156.572" x2="219.151" y2="218.98" gradientUnits="userSpaceOnUse">
<stop stop-color="#056677"/>
<stop offset="1" stop-color="#5EFCA1"/>
</linearGradient>
<linearGradient id="paint6_linear_35_126" x1="183.116" y1="151.164" x2="202.702" y2="159.322" gradientUnits="userSpaceOnUse">
<stop stop-color="#056677"/>
<stop offset="1" stop-color="#5EFCA1"/>
</linearGradient>
<linearGradient id="paint7_linear_35_126" x1="128.64" y1="168.214" x2="128.64" y2="256.472" gradientUnits="userSpaceOnUse">
<stop stop-color="#056677"/>
<stop offset="1" stop-color="#5EFCA1"/>
</linearGradient>
<linearGradient id="paint8_linear_35_126" x1="151.114" y1="183.038" x2="159.195" y2="202.657" gradientUnits="userSpaceOnUse">
<stop stop-color="#056677"/>
<stop offset="1" stop-color="#5EFCA1"/>
</linearGradient>
<linearGradient id="paint9_linear_35_126" x1="100.537" y1="156.572" x2="38.1294" y2="218.98" gradientUnits="userSpaceOnUse">
<stop stop-color="#056677"/>
<stop offset="1" stop-color="#5EFCA1"/>
</linearGradient>
<linearGradient id="paint10_linear_35_126" x1="105.946" y1="182.946" x2="97.7889" y2="202.532" gradientUnits="userSpaceOnUse">
<stop stop-color="#056677"/>
<stop offset="1" stop-color="#5EFCA1"/>
</linearGradient>
<linearGradient id="paint11_linear_35_126" x1="88.8975" y1="128.47" x2="0.639657" y2="128.47" gradientUnits="userSpaceOnUse">
<stop stop-color="#056677"/>
<stop offset="1" stop-color="#5EFCA1"/>
</linearGradient>
<linearGradient id="paint12_linear_35_126" x1="74.0738" y1="150.944" x2="54.455" y2="159.025" gradientUnits="userSpaceOnUse">
<stop stop-color="#056677"/>
<stop offset="1" stop-color="#5EFCA1"/>
</linearGradient>
<linearGradient id="paint13_linear_35_126" x1="100.538" y1="100.369" x2="38.1299" y2="37.9609" gradientUnits="userSpaceOnUse">
<stop stop-color="#056677"/>
<stop offset="1" stop-color="#5EFCA1"/>
</linearGradient>
<linearGradient id="paint14_linear_35_126" x1="74.1645" y1="105.778" x2="54.5785" y2="97.6207" gradientUnits="userSpaceOnUse">
<stop stop-color="#056677"/>
<stop offset="1" stop-color="#5EFCA1"/>
</linearGradient>
<linearGradient id="paint15_linear_35_126" x1="105.946" y1="73.9946" x2="97.789" y2="54.4086" gradientUnits="userSpaceOnUse">
<stop stop-color="#056677"/>
<stop offset="1" stop-color="#5EFCA1"/>
</linearGradient>
</defs>
</svg>
