<svg width="228" height="257" viewBox="0 0 228 257" fill="none" xmlns="http://www.w3.org/2000/svg">
<path d="M113.72 35.039C113.72 35.039 131.296 25.7188 156.001 35.408L137.351 41.9463C137.351 41.9463 154.064 39.0398 165.204 39.7677C165.204 39.7677 143.129 64.4704 113.72 71.4949C84.3107 64.4704 62.2354 39.7677 62.2354 39.7677C73.3753 39.0398 90.0888 41.9463 90.0888 41.9463L71.4384 35.408C96.1436 25.7188 113.72 35.039 113.72 35.039Z" fill="#474443"/>
<path d="M113.72 78.7572C152.195 68.759 203.273 25.9518 168.415 0.441406C168.415 0.441406 222.768 5.23239 227.37 68.4474C198.469 38.6521 158.396 92.4746 113.72 113.737C69.043 92.4746 28.9703 38.6521 0.0698242 68.4474C4.67136 5.23239 59.0248 0.441406 59.0248 0.441406C24.1668 25.9518 75.2448 68.759 113.72 78.7572Z" fill="#474443"/>
<path d="M132.139 131.129C132.139 131.129 160.182 144.455 183.04 120.769L173.076 124.032C173.076 124.032 195.359 108.622 181.823 78.2188C181.823 78.2188 213.266 88.2145 214.724 119.66L205.978 114.662C200.267 146.584 158.534 153.758 132.139 131.129Z" fill="#474443"/>
<path d="M128.459 114.129C130.722 127.323 119.734 145.669 113.72 155.513C107.705 145.669 96.7168 127.323 98.9802 114.129C102.739 116.342 106.598 118.421 110.586 120.321L113.72 121.811L116.853 120.321C120.841 118.421 124.7 116.342 128.459 114.129Z" fill="#474443"/>
<path d="M113.72 256.442C124.531 248.861 132.702 233.865 132.702 233.865V248.186C164.04 230.091 173.171 198.686 173.171 198.686V217.675C203.213 187.633 192.721 151.035 192.721 151.035C192.721 151.035 173.565 164.401 141.349 151.947C141.349 151.947 139.726 167.918 134.312 180.1C134.312 180.1 132.146 163.588 129.167 152.488C129.167 152.488 124.259 169.815 113.72 181.184C103.181 169.815 98.2727 152.488 98.2727 152.488C95.2939 163.588 93.1277 180.1 93.1277 180.1C87.7136 167.918 86.0908 151.947 86.0908 151.947C53.8751 164.401 34.7187 151.035 34.7187 151.035C34.7187 151.035 24.2269 187.633 54.2689 217.675V198.686C54.2689 198.686 63.3997 230.091 94.738 248.186V233.865C94.738 233.865 102.909 248.861 113.72 256.442Z" fill="#474443"/>
<path d="M95.3012 131.129C95.3012 131.129 67.2582 144.455 44.4001 120.769L54.3635 124.032C54.3635 124.032 32.0812 108.622 45.6165 78.2188C45.6165 78.2188 14.1736 88.2145 12.7153 119.66L21.4622 114.662C27.173 146.584 68.9059 153.758 95.3012 131.129Z" fill="#474443"/>
<path d="M168.946 87.4375C188.242 113.127 153.964 138.894 136.521 111.161L168.946 87.4375Z" fill="#474443"/>
<path d="M58.4935 87.4375C39.1974 113.127 73.4746 138.894 90.9186 111.161L58.4935 87.4375Z" fill="#474443"/>
<path d="M113.72 226.486C121.367 221.124 127.148 210.512 127.148 210.512V220.645C149.318 207.845 155.779 170.602 155.779 170.602C155.779 170.602 149.318 192.822 127.148 205.622V195.489C127.148 195.489 121.367 206.1 113.72 211.462C106.072 206.1 100.291 195.489 100.291 195.489V205.622C78.1212 192.822 71.6602 170.602 71.6602 170.602C71.6602 170.602 78.1212 207.845 100.291 220.645V210.512C100.291 210.512 106.072 221.124 113.72 226.486Z" fill="#FEFEFE"/>
</svg>
