<svg width="180" height="256" viewBox="0 0 180 256" fill="none" xmlns="http://www.w3.org/2000/svg">
<path fill-rule="evenodd" clip-rule="evenodd" d="M134.549 249.309C144.787 240.357 177.983 213.191 159.454 199.597C133.467 180.531 56.0693 186.199 52.3303 143.795C50.0306 117.689 79.1091 103.32 95.8628 86.7836C102.319 80.4126 124.013 55.4139 118.281 46.066C114.328 39.6184 97.0679 46.032 92.1662 48.8384C55.8777 69.6082 41.2873 129.762 43.9021 169.053C45.2648 189.559 43.8127 219.762 64.5484 231.588C89.5342 245.842 128.331 217.062 146.665 202.318C126.279 228.918 94.1337 264.155 56.3292 254.308C24.0822 245.91 2.60139 202.855 0.540008 171.932C-3.07141 117.685 16.8722 48.0249 63.143 15.8248C91.0078 -3.565 135.141 -9.43353 155.276 23.2691C176.676 58.0243 147.031 98.5716 121.9 122.007C118.012 125.631 105.402 135.635 98.7969 141.427C110.564 149.974 135.196 161.26 143.364 165.774C199.665 196.926 184.618 223.292 134.549 249.3V249.309Z" fill="#1DA9FF"/>
<path fill-rule="evenodd" clip-rule="evenodd" d="M117.842 56.1953C144.063 3.00832 72.7891 -15.6065 31.3178 50.0883C27.2294 56.5657 23.1793 63.5458 19.2315 70.875C4.45802 102.709 -1.58516 139.998 0.544313 171.943C2.60126 202.865 24.0865 245.921 56.3335 254.319C94.1382 264.165 126.283 228.928 146.669 202.329C128.335 217.072 89.5428 245.853 64.5527 231.599C43.8171 219.768 45.2736 189.57 43.9064 169.064C41.2916 129.773 55.882 69.6188 92.1703 48.849C97.0721 46.0425 114.333 39.6289 118.285 46.0766C119.809 48.5593 119.396 52.1495 117.846 56.1994L117.842 56.1953Z" fill="#F73737"/>
<path fill-rule="evenodd" clip-rule="evenodd" d="M160.101 33.4883C163.721 51.3536 150.906 79.3546 107.821 112.083C91.2971 124.633 90.9651 133.747 98.9586 141.289C105.606 135.476 118.046 125.604 121.904 122.01C144.608 100.84 170.99 65.7012 160.101 33.4883Z" fill="#75D1B0"/>
<path fill-rule="evenodd" clip-rule="evenodd" d="M153.871 230.967C212.381 170.187 29.3163 166.959 60.128 119.359C54.7919 126.403 51.4957 134.329 52.3304 143.8C56.0652 186.204 133.467 180.536 159.454 199.602C170.271 207.54 163.457 220.108 153.871 230.972V230.967Z" fill="#FFDD4D"/>
</svg>
