<svg width="257" height="124" viewBox="0 0 257 124" fill="none" xmlns="http://www.w3.org/2000/svg">
<path fill-rule="evenodd" clip-rule="evenodd" d="M134.027 33.0475C137.247 25.1783 136.466 19.6896 134.105 16.5813C135.344 14.05 137.069 11.5234 138.69 9.40828C139.623 11.2168 141.507 12.4532 143.683 12.4532C146.784 12.4532 149.298 9.94134 149.298 6.84039C149.298 3.73944 146.784 1.22509 143.683 1.22509C140.582 1.22509 138.067 3.73944 138.067 6.84039C138.067 7.19332 138.101 7.53895 138.165 7.87485C135.585 10.2724 133.569 12.8816 132.245 14.8069C129.755 13.1202 126.489 13.1202 123.999 14.8069C122.675 12.8816 120.659 10.2724 118.079 7.87485C118.142 7.53895 118.177 7.19332 118.177 6.84039C118.177 3.73944 115.662 1.22509 112.561 1.22509C109.46 1.22509 106.946 3.73944 106.946 6.84039C106.946 9.94134 109.46 12.4532 112.561 12.4532C114.737 12.4532 116.621 11.2168 117.553 9.40828C119.174 11.5234 120.9 14.05 122.139 16.5813C119.778 19.6896 118.997 25.1783 122.217 33.0475C31.1017 -43.6169 -48.374 39.045 35.7945 41.8368C46.1464 42.18 50.7833 47.878 49.1841 52.4029C42.3883 71.6244 110.933 47.0992 120.484 42.6838C107.238 49.4358 85.5922 57.0178 70.7569 60.1991C46.5189 65.3957 51.1411 89.512 77.6281 82.4144C92.186 78.5151 92.8043 86.4354 89.2384 101.249C81.7027 132.546 127.55 138.606 125.211 73.4669C126.043 76.6701 127.014 79.7272 128.122 82.558C129.229 79.7272 130.201 76.6701 131.033 73.4669C128.694 138.606 174.541 132.546 167.005 101.249C163.44 86.4354 164.058 78.5151 178.616 82.4144C205.103 89.512 209.725 65.3957 185.487 60.1991C170.652 57.0178 149.006 49.4358 135.76 42.6838C145.311 47.0992 213.856 71.6244 207.06 52.4029C205.461 47.878 210.097 42.18 220.449 41.8368C304.618 39.045 225.142 -43.6169 134.027 33.0475Z" fill="black"/>
</svg>
