<svg width="257" height="215" viewBox="0 0 257 215" fill="none" xmlns="http://www.w3.org/2000/svg">
<path fill-rule="evenodd" clip-rule="evenodd" d="M113.196 60.4159C112.921 61.7981 112.667 63.2043 112.429 64.6292C110.619 75.4673 110.94 84.9019 109.806 95.3068C108.826 104.293 103.594 112.939 93.5363 111.318C81.6727 109.407 77.8042 93.9518 74.0323 83.9518C68.9815 70.5619 64.3448 57.0644 59.5397 43.6317C55.9425 60.8221 51.8285 84.2723 49.9475 92.2302C45.3924 111.501 26.915 170.101 0.238281 138.288C32.5448 162.222 37.9611 66.325 39.3758 52.4997C40.5072 41.4413 41.4698 14.032 52.4277 8.32609C64.7036 1.93441 72.0219 15.9185 76.0153 24.8723C78.0164 29.3592 81.9824 38.9667 86.3811 49.4669C90.5953 28.8737 100.56 10.7568 123.805 3.02645C135.711 -0.932917 164.014 0.273061 185.428 3.35652C116.011 12.7765 113.196 60.4143 113.196 60.4143V60.4149L113.196 60.4159Z" fill="#2B2B2A"/>
<path fill-rule="evenodd" clip-rule="evenodd" d="M256.239 205.001C235.222 236.892 204.934 175.152 196.775 160.199C183.882 136.57 164.628 100.734 137.201 92.2477C127.623 89.2843 115.901 86.1642 114.861 73.9783C113.331 56.0439 144.853 44.3199 158.969 38.0995C162.297 36.633 166.667 34.7925 171.294 32.7711C160.242 32.2778 148.803 32.2192 141.553 31.9894C122.595 31.388 116.417 44.2226 113.195 60.4177V60.4172C113.195 60.4172 116.01 12.7795 185.427 3.35938C194.505 4.66657 202.346 6.31167 207.172 8.0435C218.348 12.0546 226.027 22.1662 220.84 33.8277C213.495 50.3388 170.654 60.2449 146.886 71.5752C172.019 82.1402 188.122 106.668 199.9 130.194C208.851 148.074 224.65 185.991 233.116 199.862C239.825 210.853 248.898 212.375 256.238 205.001L256.239 205.001Z" fill="#FF6600"/>
<path fill-rule="evenodd" clip-rule="evenodd" d="M162.765 32.4626C154.633 32.2327 146.938 32.1562 141.553 31.9855C122.595 31.3841 116.417 44.2187 113.195 60.4138V60.4133C113.195 60.4133 116.01 12.7756 185.427 3.35547C193.563 4.52699 200.704 5.96986 205.573 7.50337L162.764 32.4618L162.765 32.4626Z" fill="url(#paint0_linear_26_42164)"/>
<defs>
<linearGradient id="paint0_linear_26_42164" x1="157.02" y1="30.6631" x2="141.309" y2="8.76371" gradientUnits="userSpaceOnUse">
<stop stop-color="white"/>
<stop offset="1"/>
</linearGradient>
</defs>
</svg>
