<svg width="238" height="257" viewBox="0 0 238 257" fill="none" xmlns="http://www.w3.org/2000/svg">
<path d="M96.6958 76.0474C108.74 73.5307 121.683 75.5081 131.93 81.6202C142.177 87.5525 149.907 97.2599 152.783 108.046C153.143 109.484 153.862 111.102 154.761 112.36C159.075 118.473 167.524 119.911 173.456 115.596C179.569 111.282 181.007 102.833 176.692 96.9004L176.153 96.1814C171.299 89.3502 165.726 83.2381 159.435 78.2046C153.143 73.1712 146.312 69.2163 138.941 66.5198C137.143 65.8007 135.346 65.0816 133.548 64.5423C131.571 64.0029 129.773 63.4637 127.796 63.1041C125.998 62.7446 124.02 62.3851 122.223 62.2053C120.305 61.9656 118.388 61.7859 116.47 61.666C108.74 61.3065 101.19 62.2053 93.8195 64.003C79.2583 67.7781 66.3151 76.5867 56.7874 88.2716C47.6193 99.5969 42.7655 114.338 42.406 128.899C42.7655 143.46 47.6193 158.201 56.7874 169.526C66.3151 181.211 79.2583 190.02 93.8195 193.615C101.19 195.593 108.74 196.492 116.47 196.132C118.388 196.012 120.305 195.832 122.223 195.593C124.02 195.413 125.998 194.874 127.796 194.514C129.773 194.334 131.571 193.615 133.548 193.256C135.346 192.537 137.143 191.997 138.941 191.278C146.312 188.582 153.143 184.447 159.435 179.593C165.726 174.56 171.299 168.448 176.153 161.617L176.692 160.898C181.007 154.786 179.569 146.516 173.456 142.202C167.524 137.887 159.075 139.326 154.761 145.438C153.862 146.696 153.143 148.314 152.783 149.752C149.907 160.358 142.177 170.246 131.93 176.178C121.683 182.29 108.74 184.088 96.6958 181.751C84.4716 179.593 73.326 172.223 65.596 162.516C58.0458 152.988 54.0909 140.943 53.5516 128.899C54.0909 116.675 58.0458 104.81 65.596 95.2825C73.326 85.3953 84.4716 78.2046 96.6958 76.0474Z" fill="url(#paint0_linear_1_674)"/>
<path d="M182.086 92.0468C186.22 97.9791 194.31 99.5971 200.422 95.4624C206.354 91.5075 207.972 83.2383 204.017 77.3059H203.837C197.725 68.1378 190.355 59.8685 181.726 53.0373C173.097 46.3859 163.569 40.9929 153.503 37.3976C133.189 30.0271 110.718 29.308 90.5839 35.7796C80.3372 38.8356 70.8095 43.6894 62.1807 49.6217C53.7316 55.7338 46.1814 63.1043 40.0693 71.5534C27.6653 88.092 21.5532 108.585 21.5532 128.899C21.5532 149.033 27.6653 169.706 40.0693 186.245C46.1814 194.514 53.7316 202.065 62.1807 208.177C70.8095 214.109 80.3372 218.783 90.5839 222.019C110.718 228.49 133.189 227.771 153.503 220.401C163.569 216.805 173.097 211.412 181.726 204.581C190.355 197.93 197.725 189.661 203.837 180.492H204.017C207.972 174.38 206.354 166.291 200.422 162.156C194.31 158.201 186.22 159.819 182.086 165.751C181.846 166.111 181.606 166.53 181.366 167.01C173.816 181.391 160.873 193.436 145.413 200.267C130.133 207.098 112.156 208.716 95.4376 204.581C86.9886 202.604 78.899 199.188 71.5286 194.514C64.3379 189.661 57.6865 183.728 52.2934 176.897C41.3276 163.414 35.3953 146.337 34.4965 128.899C35.3953 111.462 41.3276 94.2041 52.2934 80.9013C57.6865 74.0701 64.3379 68.1377 71.5286 63.284C78.899 58.61 86.9886 55.1945 95.4376 53.2171C112.156 49.0824 130.133 50.7004 145.413 57.5315C160.873 64.3627 173.816 76.4071 181.366 90.7885C181.606 91.2679 181.846 91.6873 182.086 92.0468Z" fill="url(#paint1_linear_1_674)"/>
<path d="M232.78 184.807C227.027 180.313 218.758 181.571 214.264 187.324C214.144 187.563 213.964 187.803 213.724 188.043V188.222C207.612 197.75 200.242 206.559 191.253 213.749C186.939 217.345 182.085 220.581 177.232 223.457C172.198 226.333 167.165 229.03 161.772 231.007C150.986 235.142 139.48 237.299 127.796 238.018C116.111 238.198 104.426 237.119 93.1004 234.063C70.4497 227.412 49.7765 213.749 35.3951 194.694L32.6986 191.099C31.7997 189.84 31.0807 188.582 30.1818 187.324L27.8448 183.548L26.5865 181.571L25.6876 179.594C24.2495 176.897 22.9911 174.38 21.7327 171.684L18.4969 163.235C14.7218 152.269 12.7444 140.584 12.2051 128.899C12.7444 117.214 14.7218 105.529 18.4969 94.5636L21.7327 86.1145C22.9911 83.418 24.2495 80.7215 25.6876 78.2048L26.5865 76.0476L27.8448 74.2499L30.1818 70.4747C31.0807 69.2163 31.7997 67.958 32.6986 66.6996L35.3951 63.1043C49.7765 44.0489 70.4497 30.3866 93.1004 23.7352C104.426 20.6791 116.111 19.6006 127.796 19.7804C139.48 20.3197 150.986 22.4768 161.772 26.7912C167.165 28.7687 172.198 31.4652 177.232 34.1618C182.085 37.2178 186.939 40.2738 191.253 44.049C200.242 51.2397 207.612 60.0482 213.724 69.5759C213.964 69.9354 214.144 70.235 214.264 70.4747C218.758 76.2273 227.027 77.3059 232.78 72.9915C238.532 68.6771 239.611 60.4077 235.297 54.6552C218.398 32.1842 195.029 14.9266 168.603 7.01681C155.48 2.70239 141.638 0.72501 127.975 0.904778C114.493 1.08454 100.83 3.24167 87.8872 7.55609C62.3602 16.5445 39.5297 32.9033 24.2495 55.0147C16.5195 65.8008 10.2276 77.8452 6.4525 90.6087C2.67739 103.013 0.699951 115.956 0.699951 128.899C0.699951 141.842 2.67739 154.786 6.4525 167.19C10.2276 179.953 16.5195 191.818 24.2495 202.784C39.5297 224.895 62.3602 241.254 87.8872 250.242C100.83 254.557 114.493 256.534 127.975 256.894C141.638 256.894 155.48 255.096 168.603 250.782C195.029 242.692 218.398 225.614 235.297 203.143C239.611 197.391 238.532 189.121 232.78 184.807Z" fill="url(#paint2_linear_1_674)"/>
<defs>
<linearGradient id="paint0_linear_1_674" x1="42.442" y1="61.5761" x2="179.182" y2="61.5761" gradientUnits="userSpaceOnUse">
<stop stop-color="#2B75E0"/>
<stop offset="1" stop-color="#6BF9C6"/>
</linearGradient>
<linearGradient id="paint1_linear_1_674" x1="21.5209" y1="31.3573" x2="206.196" y2="31.3573" gradientUnits="userSpaceOnUse">
<stop stop-color="#2B75E0"/>
<stop offset="1" stop-color="#6BF9C6"/>
</linearGradient>
<linearGradient id="paint2_linear_1_674" x1="0.696356" y1="0.849049" x2="237.964" y2="0.849049" gradientUnits="userSpaceOnUse">
<stop stop-color="#2B75E0"/>
<stop offset="1" stop-color="#6BF9C6"/>
</linearGradient>
</defs>
</svg>
