<svg width="257" height="219" viewBox="0 0 257 219" fill="none" xmlns="http://www.w3.org/2000/svg">
<path fill-rule="evenodd" clip-rule="evenodd" d="M229.387 165.926C227.871 160.159 229.545 160.283 222.444 157.166C210.324 151.845 188.35 147.574 174.466 143.014C148.038 134.334 116.63 116.73 133.789 83.5862C140.443 70.7334 161.839 53.487 171.757 40.0934C145.488 37.325 76.5311 43.7677 61.2976 44.3078C49.0455 44.7422 -7.22926 47.4116 1.07568 23.3418C3.68055 15.7924 7.25171 15.7335 14.0059 12.6507C13.9496 12.9519 11.0117 25.173 11.9648 26.1976L12.1189 26.1948C12.3989 25.8936 12.2221 25.8974 12.4589 25.6185L12.9265 25.5995C36.868 26.7646 85.1517 13.9335 110.496 8.92252C136.882 3.70456 199.922 -11.1611 214.376 19.9337C227.61 48.4019 191.011 75.7836 171.703 90.7328C164.443 96.3538 164.991 96.6425 159.77 102.359C160.331 108.032 174.522 116.192 178.924 118.693C191.801 126.008 236.034 143.882 235.221 159.49C235.008 163.592 233.218 165.487 229.387 165.927L229.387 165.926ZM176.207 32.3452C176.325 32.0105 176.434 31.6789 176.523 31.354L176.354 31.4543C176.293 31.7495 176.244 32.0469 176.207 32.3452ZM180.311 41.981C180.536 42.1277 180.771 42.2655 181.014 42.3939C180.813 42.2498 180.571 42.1134 180.311 41.981Z" fill="black"/>
<path fill-rule="evenodd" clip-rule="evenodd" d="M27.0988 53.8401C28.6146 59.6073 26.9406 59.4831 34.0422 62.6011C46.1622 67.9214 68.1351 72.1925 82.0199 76.7528C108.448 85.4325 139.856 103.036 122.697 136.18C116.042 149.034 94.6481 166.279 84.7295 179.672C111.001 182.442 179.948 176 195.188 175.459C207.441 175.024 263.715 172.354 255.41 196.425C252.806 203.975 249.235 204.033 242.48 207.116C242.537 206.815 245.475 194.593 244.521 193.57L244.367 193.57C244.089 193.877 244.261 193.877 244.026 194.148C243.151 194.184 243.866 194.182 242.553 194.027C226.681 192.155 164.95 207.095 145.991 210.845C119.604 216.063 56.565 230.928 42.1105 199.834C28.8759 171.365 65.4762 143.983 84.7841 129.034C92.0383 123.417 91.4977 123.129 96.7166 117.408C96.1542 111.734 81.9664 103.575 77.5629 101.074C64.6861 93.7598 20.4519 75.8855 21.265 60.2772C21.479 56.175 23.2687 54.2802 27.0993 53.8398L27.0988 53.8401ZM80.2787 187.422C80.1607 187.756 80.0525 188.088 79.9635 188.413L80.132 188.314C80.1933 188.018 80.2421 187.72 80.2787 187.422ZM76.1725 177.783C75.9476 177.637 75.7135 177.5 75.4704 177.371C75.6708 177.515 75.9119 177.651 76.1725 177.783Z" fill="#FF6600"/>
</svg>
