<svg width="253" height="257" viewBox="0 0 253 257" fill="none" xmlns="http://www.w3.org/2000/svg">
<path d="M126.344 0.191406C126.344 0.191406 166.288 0.620562 190.024 18.7779C230.014 -22.0156 278.581 11.8297 234.86 64.0706C234.86 64.0706 227.505 53.2668 214.571 40.4348C214.571 40.4348 225.957 42.2348 234.554 49.8183C254.538 10.1045 211.935 10.9168 198.139 37.3915C198.139 37.3915 262.551 86.7408 241.909 160.283L227.606 145.474C227.606 145.474 233.794 194.366 205.797 226.115C205.797 226.115 195.349 208.668 184.951 196.648C196.211 177.527 184.343 147.097 162.129 131.627C171.768 142.403 177.236 152.813 179.643 162.401C177.568 167.224 171.552 178.338 159.508 180.353C159.508 180.353 172.18 183.111 181.094 176.153C180.906 180.313 180.142 184.23 178.915 187.851C173.667 191.046 165.307 194.436 156.397 191.335C156.397 191.335 164.116 198.038 173.657 198.265C171.257 201.701 168.41 204.661 165.312 207.061C160.664 207.301 155.492 206.478 150.733 203.283C150.733 203.283 153.726 207.662 158.827 211.097C135.302 222.459 113.972 199.309 145.544 183.462C158.578 176.919 161.012 162.262 148.434 155.921C148.434 155.921 156.043 169.92 146.1 167.892C136.16 165.862 132.86 172.105 126.344 172.105C119.828 172.105 116.528 165.862 106.588 167.892C96.6456 169.92 104.255 155.921 104.255 155.921C91.6763 162.262 94.1099 176.919 107.145 183.462C138.716 199.309 117.386 222.459 93.8612 211.097C98.9617 207.662 101.956 203.283 101.956 203.283C97.1957 206.478 92.0237 207.301 87.3762 207.061C84.2785 204.661 81.4311 201.701 79.0316 198.265C88.5717 198.038 96.2914 191.335 96.2914 191.335C87.3813 194.436 79.0214 191.046 73.7727 187.851C72.5466 184.23 71.7819 180.313 71.5946 176.153C80.5081 183.111 93.18 180.353 93.18 180.353C81.1365 178.338 75.1198 167.224 73.0456 162.401C75.4519 152.813 80.9202 142.403 90.5591 131.627C68.3453 147.097 56.4772 177.527 67.7373 196.648C57.3389 208.668 46.891 226.115 46.891 226.115C18.8938 194.366 25.0825 145.474 25.0825 145.474L10.7791 160.283C-9.86285 86.7408 54.5494 37.3915 54.5494 37.3915C40.7535 10.9168 -1.85029 10.1045 18.1343 49.8183C26.731 42.2348 38.1172 40.4348 38.1172 40.4348C25.183 53.2668 17.8278 64.0706 17.8278 64.0706C-25.8931 11.8297 22.6745 -22.0156 62.6641 18.7779C86.4004 0.620562 126.344 0.191406 126.344 0.191406Z" fill="black"/>
<path d="M141.976 82.7852C141.976 82.7852 132.289 107.739 156.228 125.186L152.526 112.557C185.54 120.636 174.081 86.6408 189.195 84.5104C169.873 67.4685 140.963 115.195 141.976 82.7852Z" fill="white"/>
<path d="M214.724 76.4453C214.724 76.4453 230.344 103.022 231.054 120.064L212.594 115.093C212.594 115.093 220.36 151.886 206.659 179.354C206.659 179.354 199.564 145.607 183.633 128.281C210.613 117.641 194.554 83.6966 214.724 76.4453Z" fill="white"/>
<path d="M126.344 216.164C126.344 216.164 140.929 230.226 163.042 222.16C163.042 222.16 165.629 240.318 149.754 256.193L147.674 244.527C147.674 244.527 139.047 249.19 126.344 247.113C113.642 249.19 105.014 244.527 105.014 244.527L102.935 256.193C87.0597 240.318 89.6465 222.16 89.6465 222.16C111.76 230.226 126.344 216.164 126.344 216.164Z" fill="black"/>
<path d="M126.344 15.9492C169.319 20.2084 183.207 41.5537 198.161 57.7287C181.375 43.3248 156.877 31.0786 126.344 31.0786C95.8112 31.0786 71.3137 43.3248 54.5273 57.7287C69.4813 41.5537 83.3692 20.2084 126.344 15.9492Z" fill="white"/>
<path d="M126.344 40.9844C160.732 44.3938 171.844 61.4731 183.811 74.4158C170.378 62.89 150.775 53.0909 126.344 53.0909C101.913 53.0909 82.3097 62.89 68.8765 74.4158C80.8434 61.4731 91.9554 44.3938 126.344 40.9844Z" fill="white"/>
<path d="M110.712 82.7852C110.712 82.7852 120.399 107.739 96.4602 125.186L100.162 112.557C67.1483 120.636 78.6077 86.6408 63.4937 84.5104C82.8158 67.4685 111.726 115.195 110.712 82.7852Z" fill="white"/>
<path d="M37.9638 76.4453C37.9638 76.4453 22.3439 103.022 21.6338 120.064L40.0942 115.093C40.0942 115.093 32.3286 151.886 46.0291 179.354C46.0291 179.354 53.1238 145.607 69.0553 128.281C42.0748 117.641 58.134 83.6966 37.9638 76.4453Z" fill="white"/>
</svg>
