<svg width="253" height="257" viewBox="0 0 253 257" fill="none" xmlns="http://www.w3.org/2000/svg">
<path d="M134.779 70.6457C135.308 73.8844 136.127 76.909 137.069 79.8235C145.663 74.6765 155.679 71.6672 166.422 71.6672C169.095 71.6672 171.716 71.869 174.288 72.2238C178.374 66.5293 183.371 61 189.53 55.9601C198.344 48.7518 208.647 43.3051 220.315 39.4945C202.412 21.1787 179.071 8.22405 152.89 3.24219C137.565 27.8151 131.464 50.3727 134.779 70.6457Z" fill="#8E89FF"/>
<path d="M131.413 189.051C134.881 186.213 137.863 183.155 140.444 179.98C129.444 174.368 120.526 165.319 115.064 154.233C107.476 153.664 99.4913 152.071 91.3135 148.979C60.8688 137.464 36.5772 108.766 18.8027 63.5469C7.39551 82.6945 0.820312 105.059 0.820312 128.969C0.820312 156.147 9.31609 181.329 23.7632 202.054C72.6124 211.917 108.776 207.571 131.413 189.051Z" fill="#FF8237"/>
<path d="M98.6895 128.792C102.255 130.156 105.788 131.083 109.268 131.746C109.222 130.817 109.127 129.899 109.127 128.96C109.127 116.425 113.198 104.868 120.027 95.439C117.14 89.0565 114.852 81.9675 113.568 74.117C109.837 51.3056 115.173 26.8428 129.409 0.973164C129.214 0.973164 129.018 0.960938 128.822 0.960938C91.2702 0.960938 57.492 17.1329 34.0781 42.8924C49.8923 89.5642 71.5782 118.428 98.6895 128.792Z" fill="#FF8237"/>
<path d="M199.769 190.99C198.999 186.274 197.708 181.938 196.115 177.91C187.46 183.192 177.307 186.25 166.419 186.25C165.117 186.25 163.841 186.14 162.56 186.057C158.098 192.932 152.385 199.651 145.021 205.676C126.353 220.949 101.209 228.594 69.8923 228.597C62.577 228.597 54.9039 228.148 46.9219 227.313C69.1216 245.818 97.6703 256.963 128.828 256.963C151.486 256.963 172.753 251.054 191.206 240.723C199.354 222.924 202.274 206.3 199.769 190.99Z" fill="#8E89FF"/>
<path d="M203.319 72.4449C200.478 74.7508 197.973 77.2188 195.734 79.7755C202.417 83.7818 208.215 89.1092 212.775 95.3969H252.348C248.651 81.7633 242.758 69.0319 235.076 57.6094C222.583 60.5178 211.952 65.4323 203.319 72.4449Z" fill="#28246E"/>
<path d="M212.758 162.539C216.477 169.836 219.434 178.136 220.969 187.518C222.581 197.369 222.486 207.532 220.74 217.975C235.557 202.672 246.603 183.693 252.347 162.523H212.773C212.767 162.53 212.758 162.539 212.758 162.539Z" fill="#28246E"/>
</svg>
