<svg width="134" height="257" viewBox="0 0 134 257" fill="none" xmlns="http://www.w3.org/2000/svg">
<path d="M18.0496 240.763C37.5484 257.936 65.7639 261.863 91.0459 249.884C119.146 236.57 140.415 212.285 131.831 144.9C123.302 77.9469 78.2919 32.6562 78.2919 32.6562C78.2919 32.6562 69.7325 63.2106 42.4523 65.5894C42.4523 65.5894 106.792 106.434 106.642 166.839C106.518 216.772 79.1593 232.814 52.1138 229.663C25.5172 226.563 20.3696 203.011 28.9347 190.263C37.4996 177.514 52.1974 188.429 46.8079 202.06C46.8079 202.06 57.6069 199.376 57.7544 187.75C57.7544 187.75 78.4492 189.815 84.3358 175.172C84.3358 175.172 74.4721 180.573 63.5403 171.954C49.6124 160.972 38.2273 154.906 19.6946 164.164C-3.30641 175.653 -6.70229 218.966 18.0496 240.763ZM92.8939 85.2416C85.8263 91.0732 70.2863 60.9802 71.3415 60.0214C73.5822 57.9866 99.8473 79.5049 92.8939 85.2416ZM105.181 79.958L104.29 81.0251C103.953 81.4286 103.509 82.1661 103.179 82.8095C102.835 83.4856 102.525 84.1931 102.271 84.9275C101.745 86.3932 101.391 87.9442 101.166 89.529C100.781 92.7037 100.956 96.0143 101.629 99.2583L102.168 100.815L100.929 99.6163C98.571 97.3359 95.6631 95.5661 92.6552 94.6352C89.6401 93.6595 86.499 93.7455 83.6998 94.6292L83.6954 94.6295L81.7593 94.848L81.2 93.2749C80.7728 92.0669 80.1495 90.6945 79.5261 89.4243C78.8788 88.1402 78.178 86.8721 77.4265 85.6356C75.9267 83.1578 74.2184 80.7913 72.3164 78.5912C68.5574 74.1396 63.9701 70.3862 58.8864 67.4406C58.4516 67.1879 58.262 66.6261 58.4896 66.1688C58.7247 65.6899 59.3017 65.4946 59.7807 65.7297C65.2558 68.4278 70.3392 72.0448 74.623 76.4799C76.7918 78.6702 78.7649 81.0569 80.5421 83.5943C81.4328 84.8598 82.2682 86.1682 83.061 87.5081C83.5872 88.4262 84.0751 89.3458 84.5515 90.3062C87.759 90.1846 90.9433 90.8379 93.6337 92.2679C96.3208 93.6613 98.5175 95.6261 100.396 97.8487C99.5498 95.1415 98.9575 92.3271 98.8735 89.4065C98.8572 87.6595 98.9884 85.8877 99.3341 84.129C99.5017 83.2479 99.7347 82.3745 100.021 81.5032C100.178 81.061 100.327 80.6469 100.506 80.2209C96.5644 75.8153 92.8885 71.2893 89.6148 66.2626C88.6856 64.9209 87.9773 63.5608 87.1789 62.208C86.3473 60.7335 85.6932 59.1642 85.3176 57.5115C84.5928 54.1931 84.9033 50.7314 86.4042 47.6496C86.6043 47.2397 87.091 47.0475 87.519 47.2214C87.9659 47.4045 88.1829 47.9139 87.9998 48.3636L87.969 48.4339C86.9004 51.0566 86.7978 54.1937 87.6206 56.9182C88.0267 58.296 88.6802 59.6 89.4606 60.7979C90.3435 62.0796 91.1745 63.4472 92.1161 64.613C93.9094 67.0218 95.9147 69.4216 97.9115 71.7653C99.9293 74.0936 102.027 76.4014 104.117 78.6258L105.181 79.958ZM110.006 144.759C109.815 144.283 110.045 143.744 110.518 143.553L110.671 143.494C110.671 143.494 111.526 143.149 112.752 142.802C113.383 142.702 114.061 142.404 114.768 142.089C115.511 141.878 116.26 141.57 116.944 141.141C118.425 140.484 119.663 139.488 120.681 138.792C121.639 138.019 122.236 137.533 122.273 137.474C122.52 137.032 123.082 136.874 123.526 137.124C123.97 137.373 124.123 137.934 123.876 138.377C123.911 138.313 123.638 139.446 122.753 140.691C122.278 141.272 121.759 142.044 120.982 142.599C120.215 143.165 119.441 143.865 118.473 144.206C117.561 144.671 116.608 144.981 115.69 145.176C114.77 145.386 113.914 145.513 113.176 145.48C111.691 145.457 110.741 145.332 110.741 145.332C110.424 145.287 110.134 145.079 110.006 144.759ZM107.883 133.727L107.991 133.67C107.991 133.67 108.811 133.237 110.025 132.751C110.642 132.543 111.355 132.29 112.042 131.892C112.738 131.548 113.58 131.329 114.228 130.842C114.9 130.391 115.684 130.118 116.235 129.623C116.856 129.201 117.374 128.793 117.84 128.413C118.704 127.602 119.19 127.136 119.212 127.041C119.375 126.56 119.902 126.305 120.383 126.469C120.86 126.634 121.118 127.156 120.952 127.638C121.003 127.542 120.861 128.828 120.034 130.167C119.586 130.797 119.085 131.616 118.3 132.183C117.583 132.852 116.752 133.423 115.838 133.863C114.959 134.394 113.996 134.589 113.136 134.925C112.254 135.219 111.409 135.3 110.69 135.381C109.245 135.509 108.294 135.485 108.294 135.485C107.967 135.478 107.652 135.297 107.489 134.989C107.25 134.533 107.427 133.968 107.883 133.727ZM104.428 123.551L104.513 123.489C104.513 123.489 105.269 122.96 106.412 122.325C106.995 122.032 107.683 121.707 108.327 121.24C108.99 120.824 109.796 120.499 110.422 119.977C111.039 119.449 111.837 119.133 112.344 118.601C112.928 118.123 113.46 117.712 113.881 117.294C114.71 116.444 115.151 115.993 115.169 115.889C115.299 115.399 115.805 115.107 116.292 115.237C116.785 115.369 117.078 115.872 116.944 116.364C116.994 116.26 116.924 117.587 116.161 118.937C115.761 119.607 115.291 120.408 114.564 121.025C113.91 121.733 113.127 122.323 112.279 122.853C110.591 123.848 108.798 124.608 107.391 124.853C105.997 125.154 105.057 125.247 105.057 125.247C104.728 125.28 104.398 125.139 104.197 124.852C103.901 124.429 104.004 123.846 104.428 123.551ZM103.168 115.143C101.778 115.475 100.844 115.593 100.844 115.593C100.521 115.633 100.183 115.501 99.9721 115.22C99.6683 114.805 99.7533 114.219 100.171 113.912L100.256 113.848C100.256 113.848 101.003 113.3 102.129 112.637C102.701 112.331 103.379 111.988 104.013 111.506C104.669 111.074 105.465 110.731 106.076 110.192C106.681 109.649 107.469 109.315 107.966 108.768C108.536 108.279 109.061 107.854 109.469 107.426C110.282 106.557 110.705 106.096 110.723 105.992C110.843 105.496 111.338 105.192 111.834 105.312C112.325 105.43 112.632 105.927 112.511 106.421C112.557 106.317 112.518 107.645 111.789 109.013C111.409 109.693 110.953 110.506 110.246 111.139C109.606 111.864 108.838 112.473 108.006 113.022C106.34 114.059 104.568 114.862 103.168 115.143Z" fill="#A20000"/>
<path d="M31.6754 91.7885C31.7541 89.3634 43.8887 87.5296 60.7436 98.8352C77.5984 110.141 76.8178 127.825 72.1535 130.939C68.27 133.535 63.3242 131.809 60.7919 120.512C58.2598 109.214 52.7282 99.0509 43.0859 96.1171C33.4624 93.1888 31.6025 94.0767 31.6754 91.7885Z" fill="#A20000"/>
<path d="M55.4667 137.53L51.702 136.286C50.7961 135.834 49.9038 135.336 49.0248 134.82C47.372 133.662 45.7244 132.461 44.3507 131.012C41.5319 128.181 39.0632 125.055 36.9886 121.709C32.7235 115.092 29.3596 107.991 26.7922 100.609L26.7873 100.605L26.1211 99.3633L27.4106 100.156C30.8194 102.261 34.0812 104.546 37.3303 106.844L42.1173 110.392C42.9341 110.965 43.599 111.567 44.4189 112.283L46.7252 114.33C48.3262 115.628 49.4073 117.462 50.7669 119.008C51.4692 119.773 51.8637 120.761 52.3816 121.655C52.8435 122.586 53.41 123.46 53.7716 124.431L54.7897 127.368C55.1689 128.333 55.2474 129.39 55.4574 130.397C55.686 131.404 55.6953 132.449 55.7535 133.479C55.8361 134.479 55.7281 135.634 55.5936 136.589L55.4667 137.53ZM53.891 133.609C53.7406 132.667 53.6536 131.722 53.3516 130.807C53.0502 129.901 52.9579 128.945 52.5555 128.075L51.4904 125.435C51.1194 124.564 50.5437 123.789 50.0862 122.965C49.5507 122.181 49.2391 121.262 48.5618 120.571C47.287 119.162 46.3235 117.479 44.8131 116.283L42.6525 114.397C41.9582 113.824 41.2041 113.035 40.4129 112.435L35.7934 108.68C32.7752 106.11 29.7642 103.525 26.901 100.763L27.5243 100.314L27.5248 100.318C30.9509 107.251 34.7089 114.03 39.0128 120.36C40.0771 121.955 41.2684 123.443 42.4131 124.965C42.97 125.738 43.6197 126.423 44.2234 127.157C44.8147 127.902 45.4597 128.587 46.1383 129.241C47.4201 130.621 48.8119 131.864 50.2735 133.013L52.5648 134.576L53.9953 135.272C53.9703 134.727 53.9721 134.178 53.891 133.609Z" fill="#A20000"/>
<path d="M42.5221 126.847C44.839 129.07 41.9719 130.525 42.1101 132.109C42.2483 133.694 47.8874 138.429 46.1649 140.321C44.4427 142.213 36.2279 132.913 30.5815 123.098C24.9346 113.283 20.4947 92.3295 23.5204 92.0657C26.5455 91.8017 25.8948 94.3268 26.4161 98.6366C26.9366 102.946 39.1947 123.654 42.5221 126.847Z" fill="#A20000"/>
<path d="M70.1109 20.5298C70.4788 20.7928 70.6524 21.2723 70.5015 21.7256C69.6919 24.1982 68.957 26.6962 68.0764 29.1412C66.9574 31.4955 66.1266 33.986 64.7653 36.2215L62.7969 39.6096C62.1327 40.7315 61.2671 41.7299 60.5157 42.7931C59.7464 43.8538 58.9668 44.9018 58.0213 45.8191C57.1095 46.7586 56.258 47.7604 55.2958 48.6428L52.2964 51.1815C51.2688 51.9901 50.1444 52.6713 49.0705 53.4181C48.0184 54.2036 46.7922 54.7055 45.6605 55.3599C44.5352 56.0299 43.288 56.4559 42.0959 56.9862C39.6785 57.9839 37.1545 58.6896 34.6033 59.2481C32.0238 59.734 29.4617 60.0639 26.7669 60.0132L26.7626 60.0112C26.6856 60.0109 26.6027 59.9977 26.5223 59.9639L26.4608 59.9352L4.29882 50.4081C3.78761 50.1671 3.40891 49.6691 3.35647 49.0682C3.27742 48.1633 3.94285 47.3657 4.84283 47.2825L4.90562 47.277C7.32736 47.0593 9.96274 46.2714 12.425 45.4804L16.0826 43.9842L19.5779 42.1349C20.7551 41.5333 21.745 40.7121 22.8366 40.0183C23.9216 39.3471 24.9776 38.5546 26.001 37.5963L29.0156 34.972L31.5807 31.9768C32.4185 30.9667 33.3332 30.0135 34.1079 28.9617L36.0861 25.5818C36.7595 24.4594 37.4666 23.3584 37.8329 22.0997L39.2025 18.4504C39.5657 17.2076 39.7431 15.9152 40.0327 14.6515C40.3721 13.3922 40.3807 12.0892 40.4726 10.8C40.6181 9.50553 40.5517 8.22039 40.4669 6.93499C40.4429 5.67388 40.1807 4.33087 39.9637 3.24981L39.9635 3.24748L39.9219 3.03333C39.8343 2.54898 39.9343 2.02976 40.2458 1.59656C40.8524 0.745139 42.0324 0.54442 42.8882 1.15276L70.028 20.4761L70.1109 20.5298ZM40.739 4.32545L43.6593 2.23332L43.6595 2.23564C43.9935 3.82844 44.2224 5.19883 44.2557 6.6728C44.3459 8.12301 44.3993 9.57244 44.2343 11.0092C44.1237 12.4478 44.087 13.8957 43.7101 15.2945C43.3878 16.6972 43.1635 18.1298 42.7523 19.5043L41.207 23.5315C40.7746 24.9164 39.9996 26.125 39.2583 27.3534L37.0483 31.0367C36.1992 32.1752 35.205 33.2053 34.2877 34.2903L31.4741 37.5025L28.2745 40.2445C27.2882 41.1608 26.1596 42.0058 24.9122 42.788C23.6999 43.5585 22.5414 44.474 21.2766 45.1123L17.4959 47.0686L13.5374 48.65C10.7894 49.4955 8.14726 50.3066 5.0978 50.5636L5.70046 47.4328L5.70511 47.4346L27.1428 58.4902L26.8414 58.4166L26.846 58.416C31.7716 58.3972 36.8259 57.2647 41.4263 55.3389C42.565 54.8179 43.7535 54.3989 44.8258 53.7428C45.8994 53.1003 47.0683 52.6152 48.0628 51.848C49.0793 51.1175 50.1514 50.4588 51.1219 49.6732L53.9608 47.2163C54.8662 46.3616 55.6706 45.3913 56.5311 44.4859C57.4205 43.6035 58.1575 42.5885 58.8797 41.5612C59.5935 40.5326 60.4077 39.5747 61.0346 38.488L62.8855 35.2099C64.1722 33.0542 64.9399 30.6237 65.9982 28.3492C66.7301 26.2325 67.3492 24.0714 68.0152 21.9286L40.739 4.32545Z" fill="#A20000"/>
<path d="M68.1853 26.3255C57.3157 22.2715 49.7965 17.5695 42.9981 12.0195L41.9565 13.0859C48.9348 19.5999 56.4739 24.8449 66.8684 29.539L68.1853 26.3255Z" fill="#A20000"/>
<path d="M64.2944 34.2487C50.887 28.5109 45.9245 24.0394 40.7493 20.1016L39.708 21.1674C45.8072 26.5469 52.8526 32.5311 61.7724 36.8546C62.4557 37.201 62.8452 37.4007 62.8452 37.4007L64.2944 34.2487Z" fill="#A20000"/>
<path d="M58.7038 42.6138C49.9333 38.955 41.8221 31.5216 37.0522 27.2852L35.9414 28.2805C40.0985 32.5657 48.4921 41.3675 57.1128 45.7013L58.7038 42.6138Z" fill="#A20000"/>
<path d="M52.3685 49.3002C44.5466 45.6545 36.6655 38.3547 31.9858 34.1172L30.875 35.1125C32.3247 36.6487 47.8332 52.2316 49.9398 52.0911L52.3685 49.3002Z" fill="#A20000"/>
<path d="M45.4018 54.1572C37.1811 48.1149 38.8157 50.4196 26.3422 39.5234L25.2715 40.5608C29.4568 44.9115 26.4985 41.8375 30.4645 45.9559C31.3944 46.9953 32.5471 47.9382 33.6583 48.9255C37.4781 52.4077 38.8681 53.1051 42.6288 56.4312L45.4018 54.1572Z" fill="#A20000"/>
<path d="M35.422 58.1712C29.1552 54.0949 27.9961 54.2251 18.6307 44.0039L17.4995 44.9736C25.0564 55.1075 27.7122 56.9517 31.3968 59.6175L35.422 58.1712Z" fill="#A20000"/>
</svg>
