<svg width="234" height="257" viewBox="0 0 234 257" fill="none" xmlns="http://www.w3.org/2000/svg">
<path fill-rule="evenodd" clip-rule="evenodd" d="M116.671 0.710938L211.383 46.7818L192.874 56.1166L129.829 39.0669C126.046 36.637 121.072 35.6721 116.671 35.6721C112.635 35.6721 108.283 36.4653 104.695 38.3754C101.173 40.2506 98.2114 43.4098 98.2114 47.6282C98.2114 51.8451 101.173 55.0043 104.695 56.8795C108.283 58.7896 112.635 59.5828 116.671 59.5828C118.372 59.5828 120.081 59.4445 121.759 59.1528L164.13 70.612L116.671 94.544L21.96 46.7818L116.671 0.710938Z" fill="#1A85F8"/>
<path fill-rule="evenodd" clip-rule="evenodd" d="M116.671 178.191H129.573C132.689 178.191 135.239 180.741 135.239 183.858V183.859C135.239 186.976 132.689 189.526 129.573 189.526H116.671H103.77C100.653 189.526 98.1035 186.976 98.1035 183.859V183.858C98.1035 180.741 100.653 178.191 103.77 178.191H116.671Z" fill="#1A85F8"/>
<path fill-rule="evenodd" clip-rule="evenodd" d="M132.903 197.051C131.595 204.988 124.827 211.036 116.671 211.036C108.516 211.036 101.747 204.988 100.439 197.051H116.671H132.903Z" fill="#1A85F8"/>
<path fill-rule="evenodd" clip-rule="evenodd" d="M174.979 140.434L214.48 179.375C216.013 180.887 216.58 182.944 216.037 185.027C215.495 187.111 213.996 188.632 211.921 189.203L169.392 200.921L201.279 182.938L197.735 177.211C164.497 189.869 141.763 209.385 141.763 209.385C151.795 187.448 190.421 165.39 190.421 165.39L174.979 140.434Z" fill="#1A85F8"/>
<path fill-rule="evenodd" clip-rule="evenodd" d="M217.096 197.653C208.389 198.116 161.986 201.746 127.661 227.408C127.661 227.408 180.129 210.295 226.462 216.053C227.527 216.185 228.513 215.702 229.059 214.777C229.604 213.851 229.553 212.756 228.92 211.886L219.368 198.736C218.827 197.993 218.016 197.604 217.096 197.653Z" fill="#1A85F8"/>
<path fill-rule="evenodd" clip-rule="evenodd" d="M116.671 256.709C125.717 256.709 133.315 246.569 133.315 246.569C164.029 231.213 211.422 235.585 227.581 237.673C229.054 237.863 230.396 237.454 231.51 236.474C232.625 235.494 233.202 234.216 233.202 232.732V231.954C233.202 229.393 231.289 227.267 228.742 226.998C213.322 225.372 161.484 221.406 129.835 237.23C129.835 237.23 125.717 245.744 116.671 245.744C107.625 245.744 103.507 237.23 103.507 237.23C71.8586 221.406 20.0209 225.372 4.60012 226.998C2.05329 227.267 0.140137 229.393 0.140137 231.954V232.732C0.140137 234.216 0.717582 235.494 1.83296 236.474C2.94682 237.454 4.28861 237.863 5.76109 237.673C21.9204 235.585 69.3133 231.213 100.027 246.569C100.027 246.569 107.625 256.709 116.671 256.709Z" fill="#1A85F8"/>
<path fill-rule="evenodd" clip-rule="evenodd" d="M116.671 105.412L64.2636 78.9844C53.6128 131.275 98.5242 140.145 98.5242 173.068H116.671H134.818C134.818 140.145 179.729 131.275 169.079 78.9844L116.671 105.412Z" fill="#1A85F8"/>
<path fill-rule="evenodd" clip-rule="evenodd" d="M58.3629 140.434L18.8627 179.375C17.3294 180.887 16.7626 182.944 17.3051 185.027C17.8476 187.111 19.3459 188.632 21.4217 189.203L63.9504 200.921L32.0634 182.938L35.607 177.211C68.845 189.869 91.5795 209.385 91.5795 209.385C81.5472 187.448 42.9208 165.39 42.9208 165.39L58.3629 140.434Z" fill="#1A85F8"/>
<path fill-rule="evenodd" clip-rule="evenodd" d="M16.2462 197.653C24.9535 198.116 71.3571 201.746 105.682 227.408C105.682 227.408 53.2133 210.295 6.88103 216.053C5.8158 216.185 4.82959 215.702 4.28406 214.777C3.73853 213.851 3.79018 212.756 4.42233 211.886L13.9745 198.736C14.5154 197.993 15.3269 197.604 16.2462 197.653Z" fill="#1A85F8"/>
<path fill-rule="evenodd" clip-rule="evenodd" d="M116.671 40.2188C121.286 40.2188 125.374 41.4147 127.905 43.2564L204.512 63.9745V103.798C202.92 103.271 201.216 102.985 199.448 102.985C197.679 102.985 195.977 103.271 194.383 103.798V74.0828L121.927 54.4892C120.306 54.8417 118.531 55.0363 116.671 55.0363C108.987 55.0363 102.758 51.719 102.758 47.6283C102.758 43.536 108.987 40.2188 116.671 40.2188Z" fill="#1A85F8" stroke="#1A85F8" stroke-width="0.9" stroke-miterlimit="2.6131"/>
<path d="M208.223 127.881C213.072 123.032 213.072 115.171 208.223 110.322C203.374 105.473 195.512 105.473 190.664 110.322C185.815 115.171 185.815 123.032 190.664 127.881C195.512 132.73 203.374 132.73 208.223 127.881Z" fill="#1A85F8"/>
</svg>
