<svg width="257" height="119" viewBox="0 0 257 119" fill="none" xmlns="http://www.w3.org/2000/svg">
<path fill-rule="evenodd" clip-rule="evenodd" d="M132.242 72.5387C138.211 61.507 179.074 -7.9798 256.75 1.58939L245.445 23.5898L186.167 45.2839L239.334 36.1177L221.917 67.2843C221.917 67.2843 175.658 59.7749 135.168 86.646C135.293 88.4216 135.359 90.2765 135.359 92.1864C135.359 93.2922 135.337 94.3796 135.294 95.4438C145.071 88.7638 185.046 64.8601 224.403 90.146L211.911 99.5953L172.125 95.698L204.983 105.067L186.485 118.07C186.485 118.07 163.517 102.038 134.257 104.989C133.072 111.218 131.048 115.325 128.75 115.325C126.452 115.325 124.428 111.218 123.243 104.989C93.9829 102.038 71.0149 118.07 71.0149 118.07L52.5174 105.067L85.3745 95.698L45.5889 99.5953L33.0968 90.146C72.4542 64.8601 112.429 88.7638 122.206 95.4438C122.163 94.3796 122.14 93.2922 122.14 92.1864C122.14 90.2765 122.207 88.4216 122.332 86.646C81.8416 59.7749 35.5828 67.2843 35.5828 67.2843L18.1659 36.1177L71.3329 45.2839L12.0552 23.5898L0.75 1.58939C78.4257 -7.9798 119.289 61.507 125.258 72.5387C126.272 70.3271 127.468 69.0483 128.75 69.0483C130.032 69.0483 131.228 70.3271 132.242 72.5387Z" fill="#16A085"/>
</svg>
