<svg width="240" height="257" viewBox="0 0 240 257" fill="none" xmlns="http://www.w3.org/2000/svg">
<path fill-rule="evenodd" clip-rule="evenodd" d="M189.328 164.296L239.9 193.06L237.92 196.296C214.164 234.049 173.491 256.7 129.039 256.7C58.3103 256.7 0.900024 199.352 0.900024 128.7C0.900024 58.0485 58.3103 0.700195 129.039 0.700195C173.491 0.700195 214.164 23.1721 237.92 60.9249L239.9 64.3406L189.328 92.9249L187.349 90.0485C174.391 70.453 152.615 58.7676 129.039 58.7676C90.5249 58.7676 59.2102 90.2283 59.2102 128.7C59.2102 167.172 90.5249 198.453 129.039 198.453C152.615 198.453 174.391 186.768 187.349 167.172L189.328 164.296ZM225.322 201.329L195.807 210.678H195.627C176.731 226.318 152.615 234.947 127.959 234.947C69.4685 234.947 21.5966 187.307 21.5966 128.7C21.5966 70.0934 69.4685 22.453 127.959 22.453C152.615 22.453 176.731 31.0822 195.627 46.7226H195.807L225.322 56.071C202.646 25.8687 167.372 8.25073 129.039 8.25073C62.6296 8.25073 8.45867 62.3631 8.45867 128.7C8.45867 195.217 62.6296 249.15 129.039 249.15C167.372 249.15 202.646 231.532 225.322 201.329ZM187.709 78.1833L190.228 52.1159C172.771 37.9136 150.635 30.0036 127.959 30.0036C73.6078 30.0036 29.1552 74.2283 29.1552 128.7C29.1552 183.172 73.6078 227.397 127.959 227.397C150.635 227.397 172.771 219.666 190.228 205.464L187.709 179.397C173.131 196.296 151.715 206.183 129.039 206.183C86.3856 206.183 51.6514 171.487 51.6514 128.7C51.6514 86.0934 86.3856 51.3968 129.039 51.3968C151.715 51.3968 173.131 61.2844 187.709 78.1833ZM194.908 81.2395L225.322 63.9811L197.607 55.3519L194.908 81.2395ZM197.427 202.228L225.142 193.419L194.908 176.341L197.427 202.228Z" fill="url(#paint0_linear_1_673)"/>
<defs>
<linearGradient id="paint0_linear_1_673" x1="0.885627" y1="0.626489" x2="239.947" y2="0.626489" gradientUnits="userSpaceOnUse">
<stop stop-color="#2B75E0"/>
<stop offset="1" stop-color="#6BF9C6"/>
</linearGradient>
</defs>
</svg>
