<svg width="257" height="224" viewBox="0 0 257 224" fill="none" xmlns="http://www.w3.org/2000/svg">
<path fill-rule="evenodd" clip-rule="evenodd" d="M108.15 124.451C120.928 127.875 130.368 124.524 140.808 127.321C159.069 132.215 169.906 150.984 165.013 169.246C161.7 181.608 152.028 190.569 140.459 193.549C121.332 198.476 113.051 186.226 96.547 181.804C87.8065 179.462 78.6848 179.02 69.7578 180.556L93.5551 156.758L81.3335 134.042L22.0711 193.304L0.152344 215.223C4.23803 217.384 8.62801 219.123 13.282 220.37C15.891 221.069 18.506 221.593 21.1139 221.948C23.3564 222.254 25.5934 222.435 27.8172 222.496C53.7992 223.211 67.6948 203.462 89.1991 209.224C113.322 215.687 115.928 229.35 147.807 220.974C168.842 215.448 186.401 199.104 192.433 176.593C201.226 143.779 182.252 110.066 149.914 100.399C149.332 100.225 148.746 100.059 148.155 99.9011C135.376 96.4771 125.936 99.8283 115.496 97.0314C97.2356 92.138 86.3983 73.368 91.2912 55.1067C94.604 42.7439 104.277 33.7834 115.846 30.8033C134.972 25.8764 143.254 38.1262 159.758 42.5485C168.498 44.8905 177.62 45.3325 186.546 43.7968L162.749 67.5943L174.971 90.3109L234.234 31.0484L256.152 9.12976C252.067 6.96846 247.677 5.22927 243.023 3.98229C240.413 3.28273 237.799 2.75954 235.191 2.40419C232.948 2.09866 230.712 1.91782 228.488 1.85646C202.506 1.1412 188.61 20.8907 167.105 15.1286C142.983 8.66491 140.376 -4.99774 108.498 3.37809C87.4631 8.90482 69.9034 25.2486 63.8716 47.7593C55.0791 80.5737 74.0527 114.287 106.391 123.953C106.973 124.127 107.559 124.293 108.15 124.451Z" fill="black"/>
</svg>
