<svg width="257" height="231" viewBox="0 0 257 231" fill="none" xmlns="http://www.w3.org/2000/svg">
<path fill-rule="evenodd" clip-rule="evenodd" d="M128.509 0.789062L162.272 61.0305L141.938 149.271C141.938 149.271 141.276 131.838 143.067 119.846C145.463 103.8 141.785 91.9201 128.509 91.9201C115.234 91.9201 111.557 103.8 113.953 119.846C115.744 131.838 115.08 149.271 115.08 149.271L94.748 61.0305L128.509 0.789062Z" fill="#0C1A3F"/>
<path fill-rule="evenodd" clip-rule="evenodd" d="M216.956 57.9375L215.618 115.971L153.847 180.913C152.015 173.368 147.039 165.85 144.359 157.629L166.756 87.0855L216.956 57.9375Z" fill="#0C1A3F"/>
<path fill-rule="evenodd" clip-rule="evenodd" d="M256.51 137.12L230.716 178.541L154.498 200.173C155.48 195.028 155.365 189.349 154.53 184.286L207.716 136.738L256.51 137.12Z" fill="#0C1A3F"/>
<path fill-rule="evenodd" clip-rule="evenodd" d="M251.26 211.341L214.875 230.28L152.154 213.771C154.147 207.801 153.966 202.505 153.966 202.505L216.114 190.191L251.26 211.341Z" fill="#0C1A3F"/>
<path fill-rule="evenodd" clip-rule="evenodd" d="M153.966 202.508C155.218 239.27 101.802 239.27 103.053 202.508C107.624 228.575 149.394 228.575 153.966 202.508Z" fill="#0C1A3F"/>
<path fill-rule="evenodd" clip-rule="evenodd" d="M144.358 157.628C135.495 124.549 144.571 96.4961 128.508 96.4961C112.448 96.4961 121.523 124.549 112.66 157.628C115.947 149.346 120.001 138.805 122.24 124.741C122.843 126.289 123.469 127.781 124.059 129.18L128.508 158.93L132.959 129.18C133.549 127.781 134.174 126.289 134.779 124.741C137.017 138.805 141.07 149.346 144.358 157.628Z" fill="#0C1A3F"/>
<path fill-rule="evenodd" clip-rule="evenodd" d="M40.0645 57.9375L41.4026 115.971L103.173 180.913C105.005 173.368 109.98 165.85 112.661 157.629L90.264 87.0855L40.0645 57.9375Z" fill="#0C1A3F"/>
<path fill-rule="evenodd" clip-rule="evenodd" d="M0.509766 137.12L26.3023 178.541L102.52 200.173C101.539 195.028 101.654 189.349 102.488 184.286L49.3037 136.738L0.509766 137.12Z" fill="#0C1A3F"/>
<path fill-rule="evenodd" clip-rule="evenodd" d="M5.75977 211.341L42.1427 230.28L104.865 213.771C102.872 207.801 103.052 202.505 103.052 202.505L40.9036 190.191L5.75977 211.341Z" fill="#0C1A3F"/>
</svg>
