<svg width="257" height="231" viewBox="0 0 257 231" fill="none" xmlns="http://www.w3.org/2000/svg">
<path opacity="0.8" d="M76.4797 69.507C74.8372 69.8763 76.0222 68.7427 75.4662 68.0827C75.3159 68.154 75.1449 68.2122 74.9989 68.3084C74.3008 68.7687 72.7083 68.8685 72.7042 68.0037C72.6979 66.6679 73.0581 67.1424 72.8951 64.4081C72.842 63.517 72.4325 64.773 71.8763 64.8103C72.23 63.6478 73.3745 63.9283 71.6877 62.4211C70.8226 61.6479 69.2917 61.0546 68.9546 57.9938C68.9302 57.7726 68.9691 57.6787 69.1939 53.9463C69.2269 53.3976 68.2938 50.8124 70.8901 47.8257C72.1703 46.3529 73.109 46.1807 75.0533 45.4141C79.3181 43.7326 79.6495 43.5225 80.5533 43.3828C81.423 43.2483 81.0197 42.9804 80.933 42.6441C79.9273 38.7516 82.867 38.0651 85.3953 37.1944C85.9934 36.9887 86.6117 36.8271 87.241 37.1281C87.6244 37.3114 87.9894 37.5031 88.2534 37.8595C89.7205 39.8411 94.3404 41.8059 90.4315 45.5092C90.4588 45.84 90.6741 46.012 90.8881 46.1785C94.1676 48.7315 94.7058 49.3632 93.6109 54.7033C92.963 57.8633 92.83 57.7246 93.1266 58.6782C93.3708 59.4635 94.1696 60.4832 94.1551 62.6622C94.1504 63.3632 94.0936 63.8764 94.5529 63.9056C95.1372 63.9429 96.1726 63.5797 96.9452 64.7667C97.4672 65.569 97.5951 66.271 98.5147 66.4203C98.0521 66.987 97.2168 66.6044 96.7777 66.1057C95.6955 64.8762 96.2155 64.3047 94.5149 64.977C94.7511 65.5956 95.5614 66.8559 95.7545 67.1475C96.5909 68.4109 97.8221 69.1476 99.2149 69.6362C101.23 70.3432 105.874 65.1199 117.92 58.2955C128.49 52.3075 126.254 51.4138 147.126 32.7913C160.702 20.6784 152.994 27.4748 158.85 22.0343C159.642 21.2988 159.072 22.1917 157.886 19.1925C157.076 17.1441 158.4 15.2202 160.376 14.345C163.173 13.1068 164.719 12.6483 166.512 10.3712C167.637 8.94245 171.632 4.78098 173.505 4.04934C176.586 2.84607 176.736 0.820585 179.062 0.312066C179.596 0.195136 180.124 0.352671 180.653 0.387223C181.387 0.435049 181.636 3.25952 180.862 4.67986C174.799 15.804 173.991 13.361 169.97 19.9464C169.601 20.5503 168.887 20.8555 169.526 22.1313C172.32 27.7129 178.269 34.766 182.287 39.5239C208.7 70.8028 208.219 68.3683 199.629 80.1156C194.686 86.8759 186.724 93.0718 176.691 101.268C159.568 115.256 162.076 114.602 159.329 133.183C157.923 142.694 154.223 161.065 154.544 163.389C155.521 170.459 159.022 181.542 156.118 195.883C152.683 212.852 150.783 210.653 153.126 220.129C153.453 221.451 153.741 223.639 153.717 226.497C153.705 227.864 153.248 229.003 151.939 229.427C147.172 230.972 143.007 229.614 138.037 228.785C136.392 228.51 134.309 228.806 133.708 228.806C129.252 228.81 127.277 229.935 125.495 229.901C121.977 229.833 117.991 230.224 118.368 228.198C118.429 227.872 118.462 227.559 118.455 227.222C118.438 226.28 119.233 225.34 120.137 225.275C121.314 225.191 121.51 224.836 124.052 224.306C124.834 224.143 124.485 223.705 125.771 223.641C127.81 223.541 128.086 223.793 128.82 223.598C132.779 222.549 136.37 220.364 138.953 217.581C143.482 212.7 143.558 212.83 143.511 211.827C143.501 211.61 143.696 195.509 143.11 187.05C142.283 175.125 140.696 176.112 140.385 170.712C140.292 169.101 140.583 175.816 140.111 158.616C139.898 150.876 138.868 148.234 137.927 139.431C136.706 128.002 138.063 124.845 133.352 115.921C132.876 115.02 132.597 115.483 130.092 115.458C125.253 115.408 120.321 114.353 116.012 112.025C102.886 104.931 104.111 107.148 96.3772 106.585C91.6463 106.241 90.7532 101.397 88.6494 96.0361C87.9479 94.2483 87.0446 91.8348 86.0664 90.9483C84.5163 91.4365 81.3316 92.8096 77.3869 93.9227C73.7265 94.9554 72.3897 94.9431 69.5317 95.996C66.4561 97.129 64.2073 97.6327 58.1906 99.0321C46.2229 101.816 49.4265 102.015 42.4316 103.949C27.6238 108.043 27.0739 107.582 26.0543 108.543C22.5695 111.826 17.4847 112.194 12.6991 112.026C8.62278 111.882 3.28225 113.977 1.09513 113.537C0.659426 113.449 0.450162 113.091 1.03462 112.892C1.12558 112.861 1.8541 112.767 2.10182 112.471C2.52054 111.971 2.71693 111.977 7.43337 109.08C10.8003 107.011 13.4809 107.214 17.1151 106.449C27.8633 104.186 21.6026 103.514 44.5777 95.3464C47.8527 94.182 50.4416 93.422 51.566 92.8897C51.607 92.8704 63.0868 85.5666 72.134 83.0736C75.9195 82.0306 79.8652 80.5429 83.511 78.9578C85.3526 78.1573 88.4402 75.5038 87.4362 73.7957C85.2183 70.0212 85.8987 70.0241 82.7863 72.676C81.315 73.9298 78.4119 74.6257 77.7783 71.4741C77.7373 71.2703 77.7747 71.0519 77.7552 70.8422C77.6888 70.1303 76.9785 70.499 76.7667 70.492C76.6269 70.4873 76.4895 70.4147 76.298 70.3557C76.3632 70.012 76.4797 69.3366 76.4797 69.507ZM163.703 26.5382C162.824 26.701 161.987 26.4933 161.224 26.8855C160.508 26.8702 160.167 27.3592 159.846 27.8916C150.974 42.5951 137.305 52.9384 136.736 53.7007C131.002 61.3867 128.184 61.8739 122.798 67.0188C119.194 70.4623 119.522 71.1577 118.765 71.9777C118.397 72.3758 118.221 72.8503 118.246 73.3803C118.87 86.4818 130.225 94.5189 136.094 92.5487C143.994 89.8969 146.385 84.0586 162.759 86.6461C172.059 81.7233 180.15 73.3918 187.618 66.1966C176.588 55.7069 178.287 55.784 168.907 37.6444C165.463 30.9823 165.394 29.5102 163.703 26.5382ZM118.909 228.387C118.954 228.766 119.135 229.049 119.499 228.95C119.426 228.779 119.58 228.923 118.909 228.387Z" fill="url(#paint0_linear_35_111)"/>
<path opacity="0.8" d="M224.006 150.888C233.753 156.488 246.471 153.543 256.675 147.42C249.076 141.589 233.477 137.331 224.045 148.839C216.509 151.242 210.027 154.837 204.518 159.078C208.344 153.603 211.979 147.268 214.996 141.357C216.593 140.56 217.989 139.754 219.149 138.836C225.425 133.99 226.866 124.536 225.093 117.375C212.724 124.502 210.779 134.717 213.573 140.744C209.433 148.848 204.133 157.748 198.8 164.022C195.409 167.278 192.458 170.73 189.93 174.188C191.902 168.724 193.8 162.197 195.303 156.281C199.896 151.884 202.085 146.371 201.958 140.299C201.859 135.134 200.075 131.055 200.075 131.055C190.333 141.196 190.042 149.993 193.16 155.535C193.349 155.87 193.524 156.139 193.687 156.375C191.381 165.389 188.185 175.709 185.272 181.28C184.443 182.687 183.677 184.071 182.98 185.413C183.524 180.997 183.726 175.636 183.212 169.829C188.368 158.782 182.687 150.423 178.512 147.25C173.157 158.897 176.722 167.677 181.816 170.485C182.459 178.327 181.784 185.283 180.752 190.042C177.982 196.249 176.763 200.977 176.73 202.252C176.716 202.785 177.137 203.23 177.67 203.244C178.204 203.257 178.647 202.835 178.663 202.302C178.69 201.225 179.927 196.665 182.698 190.613C182.714 190.59 182.74 190.581 182.753 190.556C182.807 190.456 187.341 182.27 198.015 177.724C203.693 180.273 212.337 179.466 218.085 173.108C218.085 173.108 214.481 170.745 209.851 170.027C204.257 169.165 199.429 171.732 197.457 176.26C192.491 178.343 188.823 181.157 186.25 183.693C187.968 180.675 190.014 177.508 192.405 174.35C197.843 168.929 204.529 165.006 211.343 163.167C213.293 164.431 216.78 165.997 220.666 166.269C225.515 166.745 229.013 165.293 233.177 163.172C228.211 157.831 217.518 152.263 210.998 161.662C206.533 162.862 202.127 164.918 198.065 167.681C204.674 160.734 213.207 154.488 224.006 150.888Z" fill="url(#paint1_linear_35_111)"/>
<path opacity="0.8" d="M66.9752 152.099C57.2277 157.699 44.5102 154.754 34.3057 148.631C41.9048 142.8 57.5045 138.542 66.9358 150.05C74.4716 152.453 80.9536 156.047 86.4627 160.289C82.6374 154.814 79.0017 148.479 75.9853 142.568C74.3879 141.771 72.9916 140.965 71.8322 140.047C65.5559 135.201 64.1152 125.746 65.8885 118.586C78.2575 125.712 80.2024 135.927 77.4084 141.955C81.548 150.058 86.8485 158.959 92.1812 165.233C95.5726 168.489 98.5235 171.941 101.051 175.399C99.0793 169.935 97.1813 163.408 95.6782 157.491C91.0853 153.095 88.896 147.581 89.0233 141.51C89.1221 136.344 90.9063 132.266 90.9063 132.266C100.648 142.406 100.939 151.204 97.8214 156.746C97.6318 157.081 97.4567 157.35 97.2941 157.585C99.5999 166.6 102.796 176.92 105.71 182.49C106.538 183.898 107.304 185.281 108.001 186.624C107.457 182.207 107.255 176.847 107.769 171.04C102.613 159.993 108.294 151.634 112.469 148.461C117.824 160.107 114.259 168.888 109.165 171.695C108.522 179.538 109.198 186.493 110.229 191.253C112.999 197.459 114.218 202.187 114.251 203.462C114.265 203.995 113.844 204.44 113.311 204.455C112.777 204.468 112.334 204.046 112.318 203.513C112.291 202.436 111.054 197.875 108.283 191.823C108.268 191.801 108.241 191.791 108.228 191.767C108.174 191.666 103.64 183.48 92.9659 178.934C87.2885 181.484 78.6442 180.677 72.8961 174.318C72.8961 174.318 76.5005 171.955 81.1306 171.237C86.7249 170.375 91.5526 172.942 93.5244 177.47C98.4901 179.553 102.158 182.368 104.732 184.903C103.013 181.886 100.968 178.718 98.5766 175.56C93.1383 170.139 86.4524 166.216 79.6388 164.377C77.6887 165.642 74.2015 167.207 70.3158 167.479C65.4663 167.956 61.9683 166.503 57.8043 164.383C62.7704 159.042 73.4634 153.474 79.9836 162.873C84.4482 164.072 88.8546 166.128 92.9165 168.891C86.3072 161.945 77.774 155.699 66.9752 152.099Z" fill="url(#paint2_linear_35_111)"/>
<defs>
<linearGradient id="paint0_linear_35_111" x1="89.2574" y1="54.454" x2="211.071" y2="247.767" gradientUnits="userSpaceOnUse">
<stop offset="0.3503" stop-color="#00C1B2"/>
<stop offset="0.5599" stop-color="#56D6CC"/>
<stop offset="0.865" stop-color="#CFF3F0"/>
<stop offset="1" stop-color="white"/>
</linearGradient>
<linearGradient id="paint1_linear_35_111" x1="205.348" y1="163.136" x2="173.741" y2="203.919" gradientUnits="userSpaceOnUse">
<stop offset="0.3503" stop-color="#00C1B2"/>
<stop offset="0.5599" stop-color="#56D6CC"/>
<stop offset="0.865" stop-color="#CFF3F0"/>
<stop offset="1" stop-color="white"/>
</linearGradient>
<linearGradient id="paint2_linear_35_111" x1="73.1599" y1="148.195" x2="114.453" y2="211.919" gradientUnits="userSpaceOnUse">
<stop offset="0.3503" stop-color="#00C1B2"/>
<stop offset="0.5599" stop-color="#56D6CC"/>
<stop offset="0.865" stop-color="#CFF3F0"/>
<stop offset="1" stop-color="white"/>
</linearGradient>
</defs>
</svg>
