<svg width="257" height="97" viewBox="0 0 257 97" fill="none" xmlns="http://www.w3.org/2000/svg">
<path fill-rule="evenodd" clip-rule="evenodd" d="M128.07 30.8777L90.5014 95.9486H73.1816L119.41 15.8783L128.07 0.878906L136.73 15.8783L182.959 95.9486H165.639L128.07 30.8777Z" fill="black"/>
<path fill-rule="evenodd" clip-rule="evenodd" d="M73.8925 86.4949L0.0703125 96.701C0.0703125 96.701 20.4651 51.2998 89.7667 59.0006L73.8925 86.4949Z" fill="black"/>
<path fill-rule="evenodd" clip-rule="evenodd" d="M89.7669 59.0002L23.3203 47.9512C23.3203 47.9512 36.6153 21.6749 101.018 39.512L89.7669 59.0002Z" fill="black"/>
<path fill-rule="evenodd" clip-rule="evenodd" d="M101.018 39.5135L55.5703 17.9533C55.5703 17.9533 74.426 -0.17562 111.122 22.0134L101.018 39.5135Z" fill="black"/>
<path fill-rule="evenodd" clip-rule="evenodd" d="M111.121 22.0119L90.8184 3.70182C90.8184 3.70182 106.311 -5.75171 120.623 5.55559L111.121 22.0119Z" fill="black"/>
<path fill-rule="evenodd" clip-rule="evenodd" d="M182.247 86.4949L256.069 96.701C256.069 96.701 235.675 51.2998 166.373 59.0006L182.247 86.4949Z" fill="black"/>
<path fill-rule="evenodd" clip-rule="evenodd" d="M166.374 59.0002L232.821 47.9512C232.821 47.9512 219.526 21.6749 155.123 39.512L166.374 59.0002Z" fill="black"/>
<path fill-rule="evenodd" clip-rule="evenodd" d="M155.123 39.5135L200.572 17.9533C200.572 17.9533 181.715 -0.17562 145.02 22.0134L155.123 39.5135Z" fill="black"/>
<path fill-rule="evenodd" clip-rule="evenodd" d="M145.019 22.0119L165.322 3.70182C165.322 3.70182 149.829 -5.75171 135.518 5.55559L145.019 22.0119Z" fill="black"/>
<path fill-rule="evenodd" clip-rule="evenodd" d="M128.071 65.9525L120.676 53.1445L112.016 68.1443L119.41 80.9518L128.071 95.9513L136.73 80.9518L144.125 68.1439L135.465 53.1445L128.071 65.9525Z" fill="black"/>
</svg>
