<svg width="257" height="257" viewBox="0 0 257 257" fill="none" xmlns="http://www.w3.org/2000/svg">
<path d="M11.6363 254.836C9.38209 257.044 5.74779 256.998 3.4936 254.744C3.07957 254.33 2.89555 254.1 2.48151 253.732C0.227328 251.478 0.181319 247.844 2.3895 245.589C54.9718 191.351 188.659 55.9619 241.241 1.67746C243.449 -0.576723 248.142 0.389367 251.684 3.93166C252.328 4.57571 252.65 4.89774 253.294 5.54179C256.836 9.08408 257.802 13.7765 255.502 15.9846C201.264 68.567 65.8747 202.254 11.6363 254.836Z" fill="#EC4444"/>
<path d="M245.886 254.836C248.14 257.044 251.775 256.998 254.029 254.744C254.443 254.33 254.627 254.1 255.041 253.732C257.295 251.478 257.341 247.844 255.133 245.589C202.551 191.351 68.8638 55.9619 16.2815 1.67746C14.0733 -0.576723 9.38093 0.389367 5.83864 3.93166C5.19459 4.57571 4.87257 4.89774 4.22851 5.54179C0.686223 9.08408 -0.27984 13.7765 1.97434 15.9846C56.2588 68.567 191.648 202.254 245.886 254.836Z" fill="#EC4444"/>
<path fill-rule="evenodd" clip-rule="evenodd" d="M224.264 140.287C224.724 143.462 225.046 146.682 225.046 149.948C225.046 192.594 181.849 227.281 128.76 227.281C75.6721 227.281 32.4746 192.594 32.4746 149.948C32.4746 146.268 32.8426 142.634 33.4407 139.091L33.3487 117.102C32.7966 113.789 32.4746 110.385 32.4746 106.981C32.4746 64.3353 75.6721 29.6484 128.76 29.6484C181.849 29.6484 225.046 64.3353 225.046 106.981C225.046 110.247 224.724 113.467 224.264 116.642V140.287ZM39.6972 106.981C39.6972 145.67 79.6285 177.136 128.76 177.136C177.893 177.136 217.824 145.67 217.824 106.981C217.824 68.3376 177.893 36.871 128.76 36.871C79.6285 36.871 39.6972 68.3376 39.6972 106.981Z" fill="#32283D"/>
<path fill-rule="evenodd" clip-rule="evenodd" d="M128.762 36.8242C177.895 36.8242 217.826 68.2908 217.826 106.98C217.826 145.623 177.895 177.09 128.762 177.09C79.6305 177.09 39.6992 145.623 39.6992 106.98C39.6992 68.2908 79.6305 36.8242 128.762 36.8242ZM128.762 72.6151C108.107 72.6151 91.4074 85.9102 91.4074 102.334C91.4074 118.757 108.107 132.098 128.762 132.098C149.418 132.098 166.118 118.757 166.118 102.334C166.118 85.9102 149.418 72.6151 128.762 72.6151Z" fill="#FFF8F0"/>
<path d="M91.4062 102.336C91.4062 118.759 108.106 132.1 128.761 132.1C149.417 132.1 166.116 118.759 166.116 102.336C166.116 85.9123 149.417 72.6172 128.761 72.6172C108.106 72.6172 91.4062 85.9123 91.4062 102.336Z" fill="#EC4444"/>
</svg>
