<svg width="248" height="257" viewBox="0 0 248 257" fill="none" xmlns="http://www.w3.org/2000/svg">
<path d="M135.709 133.759C135.709 139.243 135.982 144.714 136.527 150.173C137.048 155.607 137.83 161.041 138.872 166.401C140.845 176.599 141.552 186.909 141.068 197.108C141.019 197.951 140.969 198.795 140.919 199.639C140.895 200.036 140.857 200.445 140.808 200.867C140.783 201.363 140.746 201.847 140.696 202.318C139.133 219.477 134.108 236.3 125.808 251.672L123.389 256.102L121.007 251.672C110.808 232.876 105.56 211.921 105.56 190.78C105.56 184.006 106.119 177.195 107.198 170.458C107.322 169.763 107.446 169.069 107.57 168.374C107.669 167.704 107.781 167.046 107.905 166.401C109.989 155.644 111.069 144.739 111.069 133.759V71.9736H110.994C110.994 71.9736 93.9848 71.0431 86.6152 55.4851H99.1584C99.1584 55.4851 103.662 62.4825 115.833 64.3807V19.0094C113.749 16.9995 112.409 14.1708 112.409 11.0815C112.409 5.01462 117.322 0.101562 123.389 0.101562C129.456 0.101562 134.369 5.01462 134.369 11.0815C134.369 14.1708 133.066 16.9995 130.982 19.0094V64.3807C143.078 62.4453 147.582 55.4851 147.582 55.4851H160.125C152.718 71.0431 135.709 71.9736 135.709 71.9736V133.759Z" fill="#0E1925"/>
<path d="M179.776 60.5477C185.769 61.4037 191.798 62.0365 197.828 62.5203C203.858 63.0042 209.925 63.3764 215.991 63.5997C221.624 63.7982 227.257 63.9347 232.889 64.0091C229.54 69.1827 225.483 74.6169 220.569 79.9766C213.907 78.7855 207.245 77.4828 200.657 76.0313C191.091 73.9097 181.6 71.5276 172.258 68.5872C181.116 72.8303 190.235 76.5523 199.466 79.9766C204.652 81.9368 209.875 83.7979 215.135 85.5596C210.52 89.9888 205.309 94.3063 199.391 98.2889C194.143 95.1996 188.97 92.0359 183.833 88.7233C177.245 84.4802 170.732 80.051 164.442 75.2496C169.801 81.056 175.459 86.6018 181.302 91.9987C185.099 95.5346 188.97 98.9961 192.915 102.383C187.555 105.51 181.712 108.413 175.31 110.907C171.774 106.924 168.424 102.718 165.223 98.4005C163.288 95.7579 161.427 93.0781 159.677 90.3238C157.928 87.5695 156.253 84.7408 154.764 81.8004C155.62 84.9641 156.663 88.1278 157.816 91.2543C158.97 94.3436 160.273 97.4328 161.65 100.485C163.635 104.877 165.794 109.207 168.126 113.475C162.916 115.224 157.332 116.676 151.414 117.867L146.39 88.2767L140.77 106.105V77.1851C140.77 77.1851 162.878 76.4407 168.833 52.0987C168.833 52.0987 200.359 53.4759 247.256 32.707C247.256 32.707 244.763 43.4636 236.835 57.4956C229.887 58.2648 222.914 58.9224 215.917 59.4683C209.912 59.9149 203.895 60.2499 197.865 60.4732C191.836 60.6593 185.806 60.7338 179.776 60.5477Z" fill="#FF0040"/>
<path d="M68.1169 60.5477C62.1245 61.4037 56.0948 62.0365 50.0279 62.5203C43.9983 63.0042 37.9314 63.3764 31.8645 63.5997C26.2319 63.7982 20.5992 63.9347 14.9666 64.0091C18.3164 69.1827 22.4106 74.6169 27.3237 79.9766C33.9861 78.7855 40.6112 77.4828 47.2364 76.0313C56.7648 73.9097 66.2559 71.5276 75.5982 68.5872C66.777 72.8303 57.6208 76.5523 48.3902 79.9766C43.2042 81.9368 37.9934 83.7979 32.7578 85.5596C37.3359 89.9888 42.5839 94.3063 48.5019 98.2889C53.7127 95.1996 58.9235 92.0359 64.0227 88.7233C70.6479 84.4802 77.1614 80.051 83.4516 75.2496C78.0919 81.056 72.3972 86.6018 66.5909 91.9987C62.7572 95.5346 58.8863 98.9961 54.9782 102.383C60.3379 105.51 66.1815 108.413 72.5461 110.907C76.082 106.924 79.469 102.718 82.67 98.4005C84.5682 95.7579 86.4292 93.0781 88.2158 90.3238C89.9651 87.5695 91.64 84.7408 93.1288 81.8004C92.2728 84.9641 91.2306 88.1278 90.0396 91.2543C88.8857 94.3436 87.6203 97.4328 86.2431 100.485C84.2332 104.877 82.062 109.207 79.7296 113.475C84.9776 115.224 90.5234 116.676 96.4414 117.867L101.466 88.2767L107.086 106.105V77.1851C107.086 77.1851 84.9776 76.4407 79.0596 52.0987C79.0596 52.0987 47.5342 53.4759 0.599609 32.707C0.599609 32.707 3.09336 43.4636 11.0212 57.4956C17.9938 58.2648 24.9664 58.9224 31.9389 59.4683C37.9438 59.9149 43.961 60.2499 49.9907 60.4732C56.0204 60.6593 62.05 60.7338 68.1169 60.5477Z" fill="#FF0040"/>
<path d="M117.21 81.6518L111.068 83.0289V80.5352L117.21 81.6518Z" fill="#EEEEEC"/>
<path d="M112.52 169.264L107.197 170.455C107.321 169.761 107.445 169.066 107.569 168.371L112.52 169.264Z" fill="#EEEEEC"/>
<path d="M135.709 116.043V118.165L130.498 117.011L135.709 116.043Z" fill="#EEEEEC"/>
<path d="M114.902 84.9259L111.068 85.782V84.2188L114.902 84.9259Z" fill="#EEEEEC"/>
<path d="M141.067 197.105C141.018 197.949 140.968 198.793 140.919 199.636L134.814 198.259L141.067 197.105Z" fill="#EEEEEC"/>
<path d="M140.808 200.867C140.783 201.363 140.746 201.847 140.696 202.319L137.123 201.537L140.808 200.867Z" fill="#EEEEEC"/>
<path d="M122.793 73.2031V235.036L123.947 244.639V73.2031H122.793Z" fill="#EEEEEC"/>
<path d="M125.101 73.2031V235.036L123.947 244.639V73.2031H125.101Z" fill="#EEEEEC"/>
<path d="M114.494 11.0813C114.494 15.9943 118.477 19.9769 123.39 19.9769V2.14844C118.477 2.14844 114.494 6.16821 114.494 11.0813Z" fill="#EEEEEC"/>
<path d="M117.693 21.0938L123.09 24.4063C123.872 24.9274 123.574 26.2673 122.681 26.2673H117.693V21.0938Z" fill="#EEEEEC"/>
<path d="M117.693 26.2656L123.09 29.6154C123.872 30.0993 123.574 31.4764 122.681 31.4764H117.693V26.2656Z" fill="#EEEEEC"/>
<path d="M117.693 31.4766L123.09 34.7892C123.872 35.273 123.574 36.6502 122.681 36.6502H117.693V31.4766Z" fill="#EEEEEC"/>
<path d="M117.693 36.6523L123.09 39.9649C123.872 40.4488 123.574 41.8259 122.681 41.8259H117.693V36.6523Z" fill="#EEEEEC"/>
<path d="M117.693 41.8242L123.09 45.174C123.872 45.6579 123.574 47.035 122.681 47.035H117.693V41.8242Z" fill="#EEEEEC"/>
<path d="M117.693 47.0352L123.09 50.3477C123.872 50.8316 123.574 52.2088 122.681 52.2088H117.693V47.0352Z" fill="#EEEEEC"/>
<path d="M117.693 52.2109L123.09 55.5235C123.872 56.0074 123.574 57.3845 122.681 57.3845H117.693V52.2109Z" fill="#EEEEEC"/>
<path d="M117.693 57.3828L123.09 60.7326C123.872 61.2165 123.574 62.5936 122.681 62.5936H117.693V57.3828Z" fill="#EEEEEC"/>
</svg>
