<svg width="200" height="258" viewBox="0 0 200 258" fill="none" xmlns="http://www.w3.org/2000/svg">
<path d="M93.4005 63.9069L87.2656 237.557L99.8761 256.6V60.7969L93.4005 63.9069Z" fill="#0E1925" stroke="#0E1925" stroke-width="2" stroke-linejoin="round"/>
<path d="M106.352 63.9069L112.444 237.557L99.834 256.6V60.7969L106.352 63.9069Z" fill="#EEEEEC" stroke="#0E1925" stroke-width="2" stroke-linejoin="round"/>
<path d="M91.8668 92.4531C91.8242 93.3904 91.8242 93.859 91.8242 94.4981L96.9792 94.2424L91.8668 92.4531Z" fill="#EEEEEC"/>
<path d="M90.0352 139.953L95.4883 141.87L90.0352 142.126V139.953Z" fill="#EEEEEC"/>
<path d="M87.2656 207.777L92.7614 209.694L87.2656 209.95V207.777Z" fill="#EEEEEC"/>
<path d="M108.652 123.426L103.199 124.193L108.652 125.599V123.426Z" fill="#0E1925"/>
<path d="M91.6543 95.9883C91.6543 96.4711 91.6543 96.9824 91.6543 97.522L95.6164 97.3516L91.6543 95.9883Z" fill="#EEEEEC"/>
<path d="M110.697 181.789L105.158 182.172L110.697 183.919V181.789Z" fill="#0E1925"/>
<path d="M110.697 185.328L106.564 185.584L110.697 186.904V185.328Z" fill="#0E1925"/>
<path d="M139.539 60.7996L131.53 55.2186L129.059 57.6896H106.352V10.315H106.905C108.524 10.315 109.845 8.99435 109.845 7.33283C109.845 5.71392 108.524 4.35062 106.905 4.35062H104.094C103.838 2.26307 102.049 0.601562 99.8759 0.601562C97.6606 0.601562 95.8712 2.26307 95.6156 4.35062H92.8464C91.1849 4.35062 89.8642 5.71392 89.8642 7.33283C89.8642 8.99435 91.1849 10.315 92.8464 10.315H93.3576V57.6896H70.6929L68.2219 55.2186L60.1699 60.7996L68.2219 66.3806L70.6929 63.9096H99.8759H129.059L131.53 66.3806L139.539 60.7996Z" fill="#0E1925"/>
<path d="M93.3574 12.4453L101.452 16.1092L93.3574 14.2772V12.4453Z" fill="#EEEEEC"/>
<path d="M106.352 21.0916L98.2578 19.4727L106.352 22.9235V21.0916Z" fill="#EEEEEC"/>
<path d="M93.3574 25.8633L101.452 29.5697L93.3574 27.6952V25.8633Z" fill="#EEEEEC"/>
<path d="M106.352 34.5561L98.2578 32.8945L106.352 36.3454V34.5561Z" fill="#EEEEEC"/>
<path d="M93.3574 39.2852L101.452 42.9916L93.3574 41.1597V39.2852Z" fill="#EEEEEC"/>
<path d="M106.352 47.9744L98.2578 46.3555L106.352 49.8063V47.9744Z" fill="#EEEEEC"/>
<path d="M131.743 57.9453L128.889 60.7997H135.876L131.743 57.9453Z" fill="#EEEEEC"/>
<path d="M70.8212 60.7997L66.7313 57.9453L63.877 60.7997" fill="#EEEEEC"/>
<path d="M99.8755 86.1928L88.3301 59.2251L99.8755 47.6797L111.378 59.2251L99.8755 86.1928Z" fill="#0E1925"/>
<path d="M99.875 52.6602V77.2421L107.245 60.0305L99.875 52.6602Z" fill="#EEEEEC"/>
<path d="M118.75 179.574L114.873 74.345L140.051 74.0468L187.98 13.9766L192.155 24.1161C193.561 27.5243 192.837 31.4864 190.238 34.1704L145.079 81.3319L121.903 81.7153L118.75 179.574Z" fill="#FF0040"/>
<path d="M193.774 56.8787L151.128 89.683L124.629 88.405L124.757 84.4003L148.401 85.0819L193.305 37.75L196.713 45.802C198.375 49.7214 197.139 54.28 193.774 56.8787Z" fill="#FF0040"/>
<path d="M193.388 78.5209L154.364 97.2237L124.414 95.1361L124.499 91.7279L153.214 92.9207L195.944 60.0312L198.245 67.1885C199.694 71.6619 197.606 76.5186 193.388 78.5209Z" fill="#FF0040"/>
<path d="M191.983 97.5234L157.091 105.746L124.201 101.613L124.329 98.2476L155.642 100.804L197.478 81.5898L198.756 85.5093C200.461 90.7069 197.308 96.2453 191.983 97.5234Z" fill="#FF0040"/>
<path d="M187.041 111.625L157.006 112.946L124.031 107.45L124.116 104.297L157.262 108.984L195.775 100.25C197.01 105.916 192.835 111.369 187.041 111.625Z" fill="#FF0040"/>
<path d="M80.7035 179.574L84.5804 74.345L59.402 74.0468L11.5163 13.9766L7.34119 24.1161C5.89269 27.5243 6.65954 31.4864 9.21572 34.1704L54.3749 81.3319L77.5509 81.7153L80.7035 179.574Z" fill="#FF0040"/>
<path d="M5.68113 56.8787L48.3693 89.683L74.8684 88.405L74.7406 84.4003L51.0533 85.0819L6.14976 37.75L2.78413 45.802C1.12261 49.7214 2.31549 54.28 5.68113 56.8787Z" fill="#FF0040"/>
<path d="M6.10683 78.5209L45.0886 97.2237L75.0385 95.1361L74.9533 91.7279L46.2388 92.9207L3.50805 60.0312L1.20749 67.1885C-0.241012 71.6619 1.84653 76.5186 6.10683 78.5209Z" fill="#FF0040"/>
<path d="M7.47039 97.5234L42.4048 105.746L75.2517 101.613L75.1665 98.2476L43.8533 100.804L1.97459 81.5898L0.696502 85.5093C-0.965014 90.7069 2.14501 96.2453 7.47039 97.5234Z" fill="#FF0040"/>
<path d="M12.4547 111.625L42.4472 112.946L75.4219 107.45L75.3367 104.297L42.1916 108.984L3.67847 100.25C2.44298 105.916 6.61808 111.369 12.4547 111.625Z" fill="#FF0040"/>
</svg>
