<svg width="257" height="158" viewBox="0 0 257 158" fill="none" xmlns="http://www.w3.org/2000/svg">
<path d="M256.699 28.2148L232.299 51.0559C229.041 54.106 224.847 55.8736 220.41 56.0816L162.146 59.0277L164.053 52.4076L256.699 28.2148Z" fill="#0E1925"/>
<path d="M222.558 60.2773L214.621 67.7639C211.294 70.8833 206.926 72.6857 202.351 72.8243L157.709 74.2454L161.106 62.5303L222.558 60.2773Z" fill="#0E1925"/>
<path d="M205.195 76.7773L197.327 84.1599C193.896 87.3833 189.424 89.1857 184.745 89.2203L153.309 89.6362L156.671 78.0598L205.195 76.7773Z" fill="#0E1925"/>
<path d="M187.587 92.9609L180.17 99.893C176.566 103.255 171.748 105.092 166.757 104.919L148.941 104.364L152.199 93.1689L187.587 92.9609Z" fill="#0E1925"/>
<path d="M0.699219 28.2148L25.1 51.0559C28.358 54.106 32.5519 55.8736 36.9884 56.0816L95.2521 59.0277L93.3457 52.4076L0.699219 28.2148Z" fill="#0E1925"/>
<path d="M34.8398 60.2773L42.777 67.7639C46.1044 70.8833 50.4716 72.6857 55.0467 72.8243L99.689 74.2454L96.2923 62.5303L34.8398 60.2773Z" fill="#0E1925"/>
<path d="M52.2031 76.7773L60.071 84.1599C63.5023 87.3833 67.9735 89.1857 72.6526 89.2203L104.089 89.6362L100.727 78.0598L52.2031 76.7773Z" fill="#0E1925"/>
<path d="M69.8125 92.9609L77.2298 99.893C80.8344 103.255 85.6522 105.092 90.6432 104.919L108.459 104.364L105.2 93.1689L69.8125 92.9609Z" fill="#0E1925"/>
<path d="M158.473 56.8809C159.547 53.1376 159.062 49.1517 157.156 45.7896L138.612 12.9665C134.349 5.44524 126.343 0.800781 117.712 0.800781L100.833 9.50048L99.8277 14.2836L91.3359 19.8639V30.2966L95.5645 23.6765H110.919C112.513 23.6765 113.449 25.4095 112.617 26.7266L100.729 45.6163C98.5106 49.0823 97.9214 53.3109 99.0305 57.2621L119.099 127.726L118.405 128.385C110.572 136.253 106.17 146.859 106.17 157.95L122.911 141.209C124.575 147.032 132.824 147.032 134.488 141.209L151.229 157.95C151.229 146.859 146.827 136.253 138.994 128.385L138.3 127.726L158.473 56.8809Z" fill="#0E1925"/>
<path d="M113.137 8.77344L102.08 14.2151H108.423L113.137 8.77344Z" fill="#EEEEEC"/>
<path d="M96.916 50.1211L102.219 56.8798L107.522 50.1211L112.79 56.8798L118.093 50.1211L123.396 56.8798L128.699 50.1211L134.002 56.8798L139.271 50.1211L144.574 56.8798L149.877 50.1211L155.18 56.8798L160.483 50.1211" stroke="#EEEEEC" stroke-width="4" stroke-miterlimit="10" stroke-linecap="round"/>
<path d="M103.016 73.5859L109.982 73.8286L103.743 76.2548L103.016 73.5859Z" fill="#EEEEEC"/>
<path d="M103.918 77.33L108.25 76.9141L104.473 79.3403L103.918 77.33Z" fill="#EEEEEC"/>
<path d="M150.847 33.3828L146.029 38.4432L152.164 35.809L150.847 33.3828Z" fill="#EEEEEC"/>
<path d="M152.822 36.6758L149.426 39.4139L153.828 38.5128L152.822 36.6758Z" fill="#EEEEEC"/>
<path d="M112.444 25.6523L117.262 30.7474L111.127 28.1132L112.444 25.6523Z" fill="#EEEEEC"/>
<path d="M110.468 28.9805L113.865 31.7186L109.463 30.8175L110.468 28.9805Z" fill="#EEEEEC"/>
<path d="M144.018 110.605L136.947 110.813L143.255 113.274L144.018 110.605Z" fill="#EEEEEC"/>
<path d="M143.083 114.346L138.785 113.93L142.528 116.356L143.083 114.346Z" fill="#EEEEEC"/>
<path d="M163.463 124.848L165.335 128.591L169.494 129.215L166.478 132.126L167.172 136.285L163.463 134.31L159.754 136.285L160.448 132.126L157.467 129.215L161.626 128.591L163.463 124.848Z" fill="#FF0040"/>
<path d="M182.492 112.926L183.948 115.907L187.275 116.392L184.884 118.714L185.438 122.007L182.492 120.447L179.511 122.007L180.101 118.714L177.709 116.392L181.002 115.907L182.492 112.926Z" fill="#FF0040"/>
<path d="M201.485 101.004L202.594 103.222L205.02 103.569L203.252 105.302L203.668 107.763L201.485 106.584L199.301 107.763L199.717 105.302L197.949 103.569L200.41 103.222L201.485 101.004Z" fill="#FF0040"/>
<path d="M220.514 89.0781L221.207 90.5339L222.801 90.7765L221.657 91.8856L221.935 93.48L220.514 92.7174L219.058 93.48L219.335 91.8856L218.191 90.7765L219.786 90.5339L220.514 89.0781Z" fill="#FF0040"/>
<path d="M93.9352 124.848L92.0635 128.591L87.9043 129.215L90.9197 132.126L90.2265 136.285L93.9352 134.31L97.6438 136.285L96.9506 132.126L99.9314 129.215L95.7722 128.591L93.9352 124.848Z" fill="#FF0040"/>
<path d="M74.9061 112.926L73.4504 115.907L70.123 116.392L72.5146 118.714L71.96 122.007L74.9061 120.447L77.8869 122.007L77.2977 118.714L79.6892 116.392L76.3965 115.907L74.9061 112.926Z" fill="#FF0040"/>
<path d="M55.9123 101.004L54.8032 103.222L52.377 103.569L54.1446 105.302L53.7287 107.763L55.9123 106.584L58.0959 107.763L57.68 105.302L59.4476 103.569L56.9868 103.222L55.9123 101.004Z" fill="#FF0040"/>
<path d="M36.8852 89.0781L36.192 90.5339L34.5977 90.7765L35.7414 91.8856L35.4642 93.48L36.8852 92.7174L38.341 93.48L38.0637 91.8856L39.2075 90.7765L37.6131 90.5339L36.8852 89.0781Z" fill="#FF0040"/>
</svg>
