<svg width="195" height="258" viewBox="0 0 195 258" fill="none" xmlns="http://www.w3.org/2000/svg">
<path d="M0.0234375 256.193H194.089" stroke="#F23839" stroke-width="3" stroke-miterlimit="10"/>
<path d="M120.408 79.1142C122.18 82.6828 123.703 86.7871 122.442 90.57C121.681 92.901 119.849 94.8527 117.589 95.7801C115.316 96.6962 112.64 96.5767 110.475 95.4586C106.99 93.6502 105.146 89.6179 104.813 85.7165C104.218 78.6628 107.645 71.9534 110.868 65.6489C114.104 59.3321 117.327 52.4691 116.28 45.4505C115.222 38.2537 109.903 32.5324 104.848 27.31C101.291 23.6343 98.9237 19.5185 98.3651 14.4393C97.8549 9.89966 98.9692 5.19976 101.419 1.34766C101.765 0.804271 101.31 0.0939728 100.675 0.204927C94.899 1.213 89.9449 5.56771 87.4689 10.9542C84.769 16.8547 84.7927 23.7301 86.3622 30.0345C87.2783 33.6628 88.6818 37.1953 89.229 40.9071C89.7761 44.6179 89.3475 48.6986 86.9691 51.5891C84.5784 54.4796 79.8557 55.5863 76.9652 53.1832C75.3474 51.8271 74.5745 49.662 74.455 47.5568C74.3668 45.9759 74.602 44.4083 74.9206 42.8588C75.0486 42.2348 74.3602 41.7473 73.8177 42.0811C67.7323 45.8185 64.1865 53.3046 63.3681 60.4521C62.4994 68.1487 64.6408 75.9041 67.8651 82.9464C69.7684 87.1096 72.124 91.6777 70.7195 96.0314C69.6726 99.2671 66.4843 101.67 63.095 101.765C59.7047 101.86 56.3742 99.6474 55.149 96.4838C54.1257 93.8313 54.542 90.845 55.3396 88.1214C56.1485 85.3855 57.3377 82.7681 57.8735 79.9848C58.9034 74.6666 57.3367 68.9396 53.8431 64.8191C53.4126 64.3118 52.5875 64.6058 52.5363 65.2687C52.2907 68.473 50.5003 71.4612 48.5837 74.1564C46.3001 77.3684 43.421 80.1043 41.0066 83.2205C34.8225 91.2016 32.4593 100.341 32.9543 109.44C34.9676 146.447 75.9031 168.177 109.456 159.149C123.596 155.344 138.557 145.832 145.719 132.75C152.916 119.603 154.572 101.75 145.824 88.8886C142.26 83.6491 136.959 79.0763 136.166 72.7889C135.55 67.9012 137.869 63.1254 138.164 58.2074C138.519 52.2671 135.609 46.2765 130.858 42.7288C130.285 42.3011 129.498 42.8483 129.712 43.5311C130.281 45.3491 130.206 47.4525 130.005 49.3776C129.508 54.1173 126.555 58.4104 124.086 62.0349C122.802 63.9182 121.747 65.9467 120.93 68.0738C119.447 71.924 118.571 75.4158 120.408 79.1142Z" fill="#1F1F1F"/>
<path d="M104.609 112.262C104.087 115.502 102.931 118.63 101.229 121.428C101.174 121.518 101.084 121.585 100.982 121.611C97.6979 122.467 94.3095 122.912 90.906 122.912C87.7462 122.912 84.5645 122.509 81.4569 121.726C81.3763 121.706 81.3032 121.662 81.2473 121.599C77.9158 117.841 75.8172 112.985 75.4843 107.975C75.0519 101.432 77.638 94.7614 82.3142 90.1696C82.61 89.8794 83.0946 90.1904 82.9609 90.5821C81.9642 93.5105 81.3848 96.5745 81.9642 99.6044C82.6356 103.157 85.3298 106.53 88.9136 106.999C90.116 107.155 91.3963 106.967 92.3958 106.281C93.7548 105.344 94.3873 103.618 94.4489 101.971C94.6054 97.6917 91.5603 94.0454 90.154 90.0083C88.4527 85.1377 89.3062 79.4753 92.2773 75.2713C92.5058 74.9489 93.0255 75.1443 92.9838 75.5378C92.5912 79.2742 94.0118 83.2809 95.8695 86.5413C97.9853 90.2426 100.726 93.5845 102.53 97.4413C104.679 102.026 105.413 107.264 104.609 112.262Z" fill="#F2F2F2"/>
<path d="M160.131 245.683C159.896 245.683 159.662 245.677 159.428 245.643L141.756 243.614C139.993 243.415 138.446 242.434 137.509 240.92C136.573 239.409 136.382 237.587 136.985 235.919C138.207 232.557 139.158 228.987 139.81 225.311L139.98 224.352L139.027 224.149C135.144 223.325 131.372 221.95 127.812 220.062C122.112 217.012 117.178 212.735 113.546 207.696L112.092 205.681L111.731 208.139C111.229 211.553 110.279 214.918 108.909 218.139C101.901 234.509 85.8661 245.087 68.0556 245.087C36.6944 245.087 11.1797 219.573 11.1797 188.212C11.1797 164.607 22.662 142.315 41.896 128.578C56.1351 118.412 75.1272 112.582 94.0046 112.582C107.333 112.582 119.956 115.45 130.507 120.875C139.726 125.615 147.993 131.71 155.076 138.993C158.839 142.855 162.241 147.158 165.187 151.78C170.691 160.404 174.535 170.161 176.301 179.997L176.383 180.449L176.777 180.684C178.141 181.496 179.335 182.561 180.323 183.848C182.642 186.877 183.468 190.742 182.591 194.45C182.328 195.57 182.04 196.639 181.731 197.628C178.574 208.005 172 216.523 163.693 221.004L162.939 221.411L163.219 222.22C165.242 228.08 166.142 234.112 165.896 240.149C165.827 241.747 165.092 243.262 163.879 244.304C162.837 245.194 161.505 245.683 160.131 245.683Z" fill="#F2F2F2"/>
<path d="M161.278 154.279C158.518 149.948 155.319 145.898 151.747 142.226C144.976 135.268 137.018 129.443 128.389 125.005C103.439 112.186 68.0684 115.599 44.5973 132.358C26.6824 145.15 15.8203 166.202 15.8203 188.217C15.8203 217.064 39.206 240.45 68.0532 240.45C84.4706 240.45 98.5646 230.504 104.639 216.308C107.432 209.779 108.208 202.51 106.841 195.541C104.767 184.978 96.2944 177.741 85.3895 177.739C79.9917 177.738 74.3178 179.486 70.8299 183.489C69.1713 185.392 70.8821 188.306 73.3297 187.689C73.9376 187.536 74.5739 187.455 75.2292 187.455C80.8537 187.455 85.4142 192.015 85.4142 197.64C85.4142 205.026 79.4265 211.015 72.039 211.015C62.3386 211.015 54.4751 203.152 54.4751 193.451C54.4751 185.887 58.3196 178.68 64.5112 174.362C71.2822 169.641 80.3909 168.292 88.3616 168.935C96.7552 169.613 105.029 172.899 111.203 178.699C114.272 181.582 116.767 185.058 118.46 188.916C120.37 193.271 120.798 198.035 122.457 202.479C122.463 202.496 122.469 202.513 122.476 202.53C123.565 205.438 126.606 207.135 129.674 206.656C144.625 204.322 159.629 201.461 172.84 194.009C173.54 193.614 172.756 189.743 172.713 189.003C172.008 176.689 167.904 164.673 161.278 154.279Z" fill="#F23839"/>
<path d="M117.565 203.373C117.496 203.267 117.422 203.152 117.345 203.031C115.225 199.683 115.844 195.138 119.054 192.816C119.075 192.8 119.096 192.785 119.117 192.771C121.899 190.785 125.823 190.792 128.893 192.305C131.978 193.8 134.052 196.738 135.461 199.849C135.194 196.131 136.204 192.322 138.337 189.252C139.682 187.293 141.513 185.587 143.761 184.849C147.001 183.774 150.742 184.911 153.238 187.256C155.734 189.602 157.08 192.99 157.505 196.386C158.529 192.795 160.765 189.123 163.807 186.952C165.731 185.552 168.031 184.588 170.403 184.652L170.492 184.655C174.844 184.804 177.968 188.899 176.973 193.139C176.752 194.079 176.503 195.011 176.218 195.936C173.64 204.397 168.204 212.306 160.276 216.277C150.819 220.974 139.669 219.831 130.529 214.966C125.326 212.181 120.781 208.185 117.565 203.373Z" fill="#B8F250" stroke="#B8F250" stroke-width="2" stroke-miterlimit="10" stroke-linecap="round" stroke-linejoin="round"/>
<path d="M160.135 236.598C159.875 229.39 157.792 222.601 154.222 216.184L146.495 217.599C146.217 223.268 145.196 229.062 143.524 234.543C142.993 236.283 144.149 238.078 145.957 238.285L156.899 239.544C158.646 239.744 160.199 238.355 160.135 236.598Z" fill="#B8F250" stroke="#B8F250" stroke-width="2" stroke-miterlimit="10" stroke-linecap="round" stroke-linejoin="round"/>
<path d="M126.744 128.432C125.134 127.705 123.2 127.066 121.673 127.955C120.304 128.752 119.802 130.605 120.24 132.127C120.677 133.649 121.871 134.853 123.21 135.7C124.932 136.788 126.909 137.417 128.711 138.36C132.284 140.23 135.52 142.687 138.56 145.323C140.086 146.646 141.567 148.021 143.03 149.414C144.099 150.433 145.136 151.448 146.435 152.178C148.002 153.058 150.651 153.564 151.206 151.226C151.752 148.928 149.347 146.721 148.071 145.106C144.46 140.542 140.148 136.535 135.339 133.257C132.619 131.405 129.742 129.785 126.744 128.432Z" fill="#F2F2F2"/>
<path d="M156.746 160.521C157.109 160.079 157.217 159.483 157.248 158.913C157.303 157.875 157.132 156.804 156.607 155.907C156.083 155.011 155.173 154.31 154.141 154.184C151.647 153.879 150.63 156.805 151.719 158.704C152.535 160.125 155.294 162.291 156.746 160.521Z" fill="#F2F2F2"/>
</svg>
