<svg width="229" height="257" viewBox="0 0 229 257" fill="none" xmlns="http://www.w3.org/2000/svg">
<path d="M54.2634 214.768H11.1609L0.0078125 256.395H43.1104H154.404C195.333 256.395 228.814 222.913 228.814 181.985C228.814 178.988 228.634 176.025 228.285 173.119C227.271 164.636 224.804 156.581 221.165 149.213C216.028 138.837 208.547 129.813 199.422 122.84L199.287 123.02C190.398 135.334 178.479 144.808 164.926 150.677C175.471 153.967 183.785 162.461 186.793 173.119C187.593 175.946 188.021 178.921 188.021 181.985C188.021 200.01 173.274 214.768 155.249 214.768H54.2634Z" fill="black"/>
<path d="M28.7227 149.214H71.8252H132.243C157.016 149.214 179.052 136.946 192.594 118.2C195.016 114.854 197.156 111.305 199.004 107.576C203.904 97.6739 206.653 86.5434 206.653 74.8045C206.653 63.0544 203.904 51.9239 199.004 42.0213C186.826 17.417 161.433 0.394531 132.243 0.394531H111.706H68.6032L57.4502 42.0213H91.3825H100.553H133.088C151.113 42.0213 165.86 56.7794 165.86 74.8045C165.86 92.8296 151.113 107.576 133.088 107.576H91.3825H82.9895H39.8757L28.7227 149.214Z" fill="black"/>
<path d="M69.6138 157.461H26.5113L13.3867 206.433H56.4893L69.6138 157.461Z" fill="black"/>
<path d="M42.0977 99.3278H85.2002L98.3473 50.2656H55.2335L42.0977 99.3278Z" fill="black"/>
</svg>
