<svg width="253" height="257" viewBox="0 0 253 257" fill="none" xmlns="http://www.w3.org/2000/svg">
<path d="M217.454 47.6892C217.016 49.3182 218.331 50.6339 219.898 50.9472C221.715 51.1978 223.594 50.3207 224.597 48.8796C228.105 43.8048 225.599 37.2889 220.524 34.5322C219.209 33.7803 217.705 33.3418 216.139 33.1538C211.878 32.8405 206.929 34.7828 204.798 38.7299C204.422 39.4817 204.151 40.2753 203.984 41.1107C203.859 41.7999 203.545 42.865 203.921 43.4289C204.36 43.3035 204.736 42.677 205.049 42.4264C205.508 42.0087 205.989 41.6328 206.49 41.2987C207.43 40.6721 208.495 40.1083 209.623 39.8577C211.753 39.2938 214.134 39.4817 216.076 40.4842C216.577 40.7975 217.141 41.1734 217.517 41.6119C218.018 42.2385 218.331 42.9903 218.519 43.7421C218.645 44.306 218.707 44.8699 218.582 45.4337C218.457 46.2482 217.83 46.6868 217.58 47.376C217.538 47.4595 217.496 47.5639 217.454 47.6892Z" fill="url(#paint0_linear_35_104)"/>
<path d="M188.32 51.9508C187.777 52.0762 187.213 52.3685 186.629 52.828C186.462 52.9115 186.483 52.9951 186.691 53.0786C188.112 53.4127 189.49 53.7469 190.826 54.081C197.133 55.6265 202.668 58.4876 207.429 62.6645C210.228 65.1706 212.358 67.9482 213.82 70.9973C218.582 80.9591 213.319 94.1788 201.352 95.4318C198.679 95.6824 196.068 94.9724 193.521 93.3016C190.137 91.1088 187.067 87.1617 189.761 83.0893C188.32 81.4603 186.002 81.0217 184.06 81.9615C183.559 82.2121 182.619 82.9013 182.243 83.2772C180.927 84.6556 180.301 86.2845 180.05 88.1641C179.486 92.5498 182.243 97.1235 185.501 99.8175C188.467 102.198 191.954 103.786 195.964 104.579C200.266 105.582 204.464 105.352 208.557 103.89C216.243 101.175 221.359 96.121 223.907 88.728C225.285 85.1777 225.87 81.6482 225.661 78.1397C224.972 68.9297 220.712 61.2861 213.444 55.7727C205.863 50.0713 197.468 48.5049 188.32 51.9508Z" fill="url(#paint1_linear_35_104)"/>
<path fill-rule="evenodd" clip-rule="evenodd" d="M192.768 64.1031C200.662 64.6043 208.494 68.2381 210.624 76.5709C211.251 80.4972 210.332 83.8804 207.867 86.7207C204.735 90.2919 199.472 91.6076 195.337 88.7882C193.917 87.7858 193.311 86.5119 193.52 84.9664C193.582 84.5279 193.958 84.2146 194.397 84.2772C194.522 84.319 194.627 84.3608 194.71 84.4025C197.905 86.2195 200.913 88.0364 204.359 85.405C206.531 83.776 207.533 81.5414 207.366 78.7012C207.178 75.4432 204.86 73.0624 202.166 71.5587C200.788 70.7442 199.159 70.243 197.592 70.3057C198.156 72.1226 197.78 74.2528 196.652 75.8191C195.587 77.3854 193.207 78.0746 191.39 77.7614C189.134 77.3228 187.255 75.5685 186.377 73.501C179.674 75.8191 175.037 81.3952 175.225 88.7256C175.225 88.8509 175.1 88.9135 174.975 88.9135C174.891 88.9135 174.828 88.8718 174.787 88.7882C173.826 86.9086 173.387 84.9455 173.471 82.8989C173.847 72.6238 182.18 63.5392 192.768 64.1031Z" fill="url(#paint2_linear_35_104)"/>
<path d="M204.297 80.0196C204.297 78.2027 202.856 76.7617 201.039 76.7617C199.222 76.7617 197.719 78.2027 197.719 80.0196C197.719 81.8366 199.222 83.2776 201.039 83.2776C202.856 83.2776 204.297 81.8366 204.297 80.0196Z" fill="url(#paint3_linear_35_104)"/>
<path d="M179.86 102.135C178.983 97.7494 175.412 92.2986 170.776 91.2335C170.588 91.1709 169.397 91.0456 169.397 91.0456C169.397 91.0456 170.901 95.8698 170.838 98.4386C170.838 100.757 170.212 103.012 168.458 104.579C166.891 105.957 164.698 106.458 162.694 106.208C159.895 105.832 157.932 104.119 156.804 101.07C156.47 100.151 156.387 99.3575 156.554 98.6892C156.804 97.7703 157.097 97.7494 157.431 98.6265C158.057 100.256 160.25 102.198 162.13 101.884C163.633 101.634 164.636 100.506 164.26 99.0025C164.218 98.8354 164.135 98.7101 164.009 98.6265C162.882 97.8747 161.065 96.6843 160.939 95.3686C160.626 92.7998 162.631 90.1684 165.137 89.4792C164.135 87.9129 162.255 87.0984 160.375 86.9731C154.235 86.7852 149.724 92.6745 148.659 98.188C148.283 100.068 148.283 102.01 148.534 103.952C149.286 109.152 152.481 113.914 156.93 116.671C159.999 118.55 163.633 119.553 167.205 119.177C170.024 118.926 173.094 117.798 175.349 115.919C176.164 115.292 176.916 114.54 177.48 113.726C179.735 110.405 180.612 106.082 179.86 102.135Z" fill="url(#paint4_linear_35_104)"/>
<path fill-rule="evenodd" clip-rule="evenodd" d="M227.668 148.309C223.616 150.899 219.46 151.4 215.2 149.813C210.751 148.121 207.681 142.169 210.438 137.783C211.879 135.528 214.072 134.525 216.641 135.653C217.81 136.154 218.374 137.052 218.332 138.347C218.332 138.472 218.207 138.598 218.082 138.723C216.202 140.164 215.137 142.733 217.894 144.048C220.463 145.302 223.595 143.861 225.537 141.981C232.116 133.836 225.976 122.684 218.207 118.11C211.065 113.913 202.231 113.474 194.712 116.168C192.666 116.92 192.728 117.129 194.9 116.795C199.411 116.168 204.152 117.108 209.122 119.614C211.837 121.034 213.947 123.06 215.45 125.691C215.638 125.942 215.889 126.13 216.14 126.192C216.975 126.36 217.852 126.568 218.771 126.819C222.029 127.508 224.786 130.014 225.036 133.46C225.203 135.632 224.41 137.282 222.655 138.41C222.488 138.535 222.384 138.514 222.342 138.347C222.259 138.096 222.238 137.846 222.279 137.595C220.525 133.147 216.202 131.831 211.754 132.144C206.575 132.479 201.5 133.356 196.529 134.776L187.695 138.096C176.292 143.234 167.646 151.066 160.755 161.09C158.499 164.411 156.682 167.919 154.427 171.114C154.364 171.24 154.239 171.24 154.176 171.177C154.134 171.177 154.113 171.156 154.113 171.114C152.798 168.859 155.993 161.842 157.121 159.837C163.344 148.685 172.324 140.268 184.061 134.588C191.58 130.891 199.411 128.009 207.744 127.195C206.909 127.07 205.697 126.777 204.11 126.318C200.602 125.19 194.963 125.629 191.204 126.443C185.44 127.696 180.302 129.388 175.353 132.52C169.15 136.53 164.075 141.354 159.313 146.993C158.06 148.455 156.912 149.98 155.868 151.567C154.301 153.885 152.422 156.266 151.482 159.273C151.357 159.733 151.231 159.712 151.106 159.21C150.814 157.623 150.814 155.973 151.106 154.261C151.419 150.376 152.046 146.555 152.986 142.795C154.239 137.533 156.181 132.458 157.998 127.446C158.248 126.756 158.499 126.067 158.624 125.378C160.065 126.506 161.068 128.135 161.506 129.952C161.82 130.954 161.945 132.082 161.882 133.147C161.841 133.69 161.778 134.233 161.694 134.776C161.632 135.027 161.569 135.841 161.444 135.966C164.702 132.332 167.27 129.659 169.15 127.947C174.037 123.478 179.801 119.322 186.442 115.479C190.87 112.931 195.297 111.302 199.725 110.592C214.573 108.211 230.299 112.973 234.184 129.262C235.812 136.092 233.682 144.111 227.668 148.309Z" fill="url(#paint5_linear_35_104)"/>
<path d="M148.91 127.822C150.602 124.564 151.416 120.554 149.913 117.234C148.221 113.412 144.086 111.031 139.888 111.783C136.317 112.347 135.064 115.605 135.941 118.925C136.254 117.923 137.445 117.484 138.51 117.359C139.324 117.296 140.264 117.296 141.016 117.672C141.956 118.111 142.582 118.863 143.021 119.802C143.835 121.745 143.334 124.251 141.642 125.629C140.014 127.008 137.382 127.133 135.69 125.817C134.751 130.892 135.565 136.03 137.006 140.979C137.466 142.692 138.03 144.383 138.698 146.054C139.032 146.889 139.366 147.725 139.7 148.56C140.014 149.249 140.327 150.314 140.765 150.878C140.765 150.836 140.744 150.816 140.703 150.816C138.572 148.309 137.069 145.302 135.878 142.232C134.688 139.225 133.623 136.092 132.808 132.96C132.495 131.581 131.806 130.078 130.804 129.075C129.738 127.947 127.922 127.258 126.418 127.008C127.358 126.068 128.047 124.752 128.172 123.374C127.232 122.685 126.042 122.246 124.852 122.371C122.22 122.622 121.092 125.567 120.967 127.947C119.965 133.962 125.29 139.726 129.049 143.736C132.871 147.871 136.63 152.006 140.577 156.016C142.958 158.522 145.464 160.965 148.033 163.221C147.657 162.908 147.407 162.03 147.156 161.529C146.864 160.944 146.613 160.36 146.404 159.775C145.903 158.522 145.506 157.269 145.214 156.016C144.65 153.51 144.274 150.878 144.211 148.309C144.169 146.513 144.274 144.738 144.525 142.984C145.276 137.638 146.738 132.584 148.91 127.822Z" fill="url(#paint6_linear_35_104)"/>
<path d="M191.576 154.325C192.578 154.032 193.121 153.093 193.205 151.505C193.497 150.336 193.142 149.333 192.14 148.498C188.13 145.178 181.551 148.248 177.918 150.942C170.525 156.392 164.322 164.287 160.124 172.118L158.307 175C158.14 175.293 158.182 175.522 158.433 175.689C160.813 177.485 163.006 179.469 165.011 181.641C165.429 182.143 165.7 182.059 165.826 181.391C167.016 171.93 174.346 162.846 182.241 157.959C185.123 156.204 188.193 155.265 191.576 154.325Z" fill="url(#paint7_linear_35_104)"/>
<path d="M186.128 173.497C186.211 173.538 186.274 173.601 186.316 173.685C186.253 173.559 190.075 171.68 190.388 171.492C191.641 170.865 192.894 170.552 194.273 170.301C197.343 169.737 200.538 169.863 203.483 170.99C204.986 171.492 206.365 172.306 207.618 173.309C220.148 183.208 212.63 202.254 197.03 202.755C196.988 202.755 196.946 202.776 196.904 202.818C196.904 202.818 196.842 202.881 196.904 202.943C198.846 205.951 201.227 208.331 205.174 208.394C207.346 208.436 209.33 208.081 211.126 207.329C218.206 204.698 222.654 198.746 224.283 191.541C227.103 180.827 223.281 169.737 214.196 163.472C213.445 162.929 212.338 162.282 210.876 161.53C209.184 160.653 207.179 159.964 205.864 158.523C204.423 156.894 204.047 154.701 204.673 152.571C205.049 151.13 206.052 149.876 207.367 149.313C204.736 148.811 201.916 149.25 199.661 150.691C196.654 152.633 195.401 155.954 195.401 159.462C195.401 159.588 195.317 159.671 195.15 159.713C191.85 159.922 188.864 160.862 186.191 162.532C183.371 164.161 181.429 166.542 180.113 169.487C182.306 170.552 184.311 171.868 186.128 173.497Z" fill="url(#paint8_linear_35_104)"/>
<path d="M182.181 200.439C182.933 200.94 183.685 201.692 184.562 202.13C184.771 202.214 184.875 202.151 184.875 201.943C184.75 199.812 183.559 197.056 182.682 194.988C180.176 189.224 180.427 183.543 183.434 177.946C183.559 177.759 183.497 177.508 183.371 177.383C182.787 176.673 182.097 176.046 181.304 175.503C179.988 174.563 178.61 176.38 177.983 177.508C173.848 184.337 174.976 195.865 182.181 200.439Z" fill="url(#paint9_linear_35_104)"/>
<path fill-rule="evenodd" clip-rule="evenodd" d="M192.642 176.505C206.426 169.362 216.951 188.597 202.854 195.927C189.823 202.13 180.299 183.522 192.642 176.505ZM199.158 191.854C197.216 193.609 194.522 194.549 191.89 194.423C198.657 197.619 207.867 190.476 205.486 183.02C204.421 179.136 199.596 177.068 196.15 178.885C189.823 181.642 192.391 191.792 199.158 191.854Z" fill="url(#paint10_linear_35_104)"/>
<path d="M197.592 184.522C199.033 185.336 200.787 184.961 201.601 183.707C202.353 182.392 202.04 180.512 200.662 179.635C199.221 178.758 197.404 179.134 196.652 180.45C195.9 181.703 196.213 183.645 197.592 184.522Z" fill="url(#paint11_linear_35_104)"/>
<path d="M189.323 202.003C191.014 207.078 194.147 211.965 197.405 216.162C200.35 219.921 204.547 223.869 208.557 225.936C211.126 227.252 214.07 228.004 216.953 227.753C221.213 227.44 225.035 224.37 225.473 219.921C225.661 218.293 225.223 216.601 224.283 215.223C223.406 213.969 221.651 212.716 220.023 212.779C219.48 212.821 218.957 212.946 218.456 213.155C218.331 213.155 217.078 213.907 217.14 213.969C218.143 214.972 219.083 216.789 218.268 218.167C217.203 219.984 214.008 220.485 212.128 220.172C205.988 219.17 200.663 214.345 196.716 209.271C195.149 207.203 193.834 204.885 192.518 202.567L188.633 198.306C188.383 198.097 188.299 198.139 188.383 198.432L189.323 202.003Z" fill="url(#paint12_linear_35_104)"/>
<path d="M207.739 127.195C207.614 127.154 207.468 127.133 207.301 127.133C207.343 127.133 207.405 127.154 207.489 127.195C207.572 127.195 207.656 127.195 207.739 127.195Z" fill="url(#paint13_linear_35_104)"/>
<path d="M222.216 49.5075C220.901 49.5701 219.522 48.8183 219.021 47.5652C218.771 46.876 218.771 46.1242 218.708 45.3724C218.645 43.9314 218.395 42.4904 217.705 41.2373C216.703 39.483 214.949 38.2926 213.007 37.9167C211.064 37.4781 209.059 37.8541 207.305 38.7938C206.741 39.1071 206.177 39.483 205.676 39.9216C205.238 40.4228 204.924 40.924 204.611 41.5506C204.319 42.1353 204.089 42.7618 203.922 43.4301C204.36 43.3048 204.736 42.6783 205.05 42.4277C205.509 42.01 205.989 41.6341 206.491 41.3C207.43 40.6734 208.496 40.1096 209.623 39.859C211.753 39.2951 214.134 39.483 216.077 40.4855C216.578 40.7987 217.142 41.1747 217.518 41.6132C218.019 42.2397 218.332 42.9916 218.52 43.7434C218.645 44.3073 218.708 44.8712 218.583 45.435C218.457 46.2495 217.831 46.6881 217.58 47.3773C217.538 47.4608 217.497 47.5652 217.455 47.6905C217.016 49.3195 218.332 50.6352 219.898 50.9485C221.715 51.1991 223.595 50.322 224.597 48.8809C224.723 48.6721 224.848 48.4841 224.973 48.3171C224.221 49.0062 223.282 49.4448 222.216 49.5075Z" fill="url(#paint14_linear_35_104)"/>
<path d="M215.759 93.9904C214.068 95.7447 211.937 97.1231 209.745 98.1255C205.484 100.005 200.66 100.694 196.149 99.7545C191.575 98.8773 187.315 96.2459 184.746 92.4241C186.124 97.6243 190.072 101.822 194.896 104.328C195.23 104.453 195.585 104.537 195.961 104.579C200.263 105.581 204.461 105.351 208.554 103.89C215.07 101.592 219.748 97.5825 222.588 91.8602C224.155 86.0335 223.716 79.643 221.774 73.8789C221.962 78.014 221.461 82.2117 220.145 86.0962C219.205 88.9782 217.889 91.7976 215.759 93.9904Z" fill="url(#paint15_linear_35_104)"/>
<path d="M190.827 54.0783C197.134 55.6238 202.668 58.4849 207.43 62.6618C210.228 65.1679 212.358 67.9455 213.82 70.9946C214.76 72.9995 215.324 75.1923 215.512 77.3852C215.7 61.4087 199.536 49.818 186.566 52.9506C186.566 52.9924 186.608 53.0341 186.692 53.0759C188.112 53.41 189.49 53.7442 190.827 54.0783Z" fill="url(#paint16_linear_35_104)"/>
<path d="M174.975 88.9133C175.101 88.9133 175.226 88.8506 175.226 88.7253C175.038 81.395 179.674 75.8189 186.378 73.5007C187.255 75.5682 189.135 77.3225 191.39 77.7611C193.207 78.0744 195.588 77.3852 196.653 75.8189C197.781 74.2525 198.157 72.1223 197.593 70.3054C197.718 70.3054 197.843 70.3054 197.969 70.3054C197.092 68.9897 196.089 67.7993 194.836 66.7969C195.964 69.2403 194.899 72.4983 192.581 73.8766C193.27 72.6862 193.019 71.1199 192.205 70.0548C191.39 68.9271 190.012 68.3632 188.696 68.2379C187.318 68.1126 186.002 68.4258 184.686 68.9271C181.867 69.9922 179.424 72.0597 177.669 74.5658C175.978 77.0719 174.913 80.0793 174.537 83.0866C174.349 85.0288 174.411 87.0964 174.975 88.9133Z" fill="url(#paint17_linear_35_104)"/>
<path d="M204.297 80.0196C204.297 78.2027 202.856 76.7617 201.039 76.7617C199.222 76.7617 197.719 78.2027 197.719 80.0196C197.719 81.8366 199.222 83.2776 201.039 83.2776C202.856 83.2776 204.297 81.8366 204.297 80.0196Z" fill="url(#paint18_linear_35_104)"/>
<path d="M161.316 114.35C162.882 115.102 164.636 115.352 166.391 115.478C168.082 115.603 169.899 115.415 171.466 114.6C172.468 114.037 173.408 113.034 173.282 111.844C173.22 110.841 172.28 110.089 171.278 109.839C170.275 109.588 169.21 109.713 168.208 109.901C170.714 109.024 173.157 107.646 174.536 105.328C176.164 102.759 176.039 99.3131 174.661 96.5564C173.596 94.3009 171.841 92.484 169.774 91.043C169.586 91.043 169.398 91.043 169.398 91.043C169.398 91.043 170.902 95.8672 170.839 98.436C170.839 100.754 170.213 103.01 168.458 104.576C166.892 105.954 164.699 106.456 162.694 106.205C159.896 105.829 157.933 104.117 156.805 101.067C156.471 100.148 156.387 99.3549 156.554 98.6866C156.68 98.2272 156.805 97.9974 156.93 97.9974C156.429 96.3685 156.241 94.6768 156.429 92.9852C154.236 94.8648 152.92 97.6842 152.67 100.566C152.419 103.448 153.234 106.393 154.8 108.836C156.366 111.217 158.684 113.159 161.316 114.35Z" fill="url(#paint19_linear_35_104)"/>
<path d="M175.351 132.519C180.301 129.387 185.439 127.695 191.203 126.442C194.962 125.628 200.601 125.189 204.109 126.317C205.404 126.693 206.469 126.964 207.304 127.131C203.107 124.5 197.906 124.061 192.957 124.437C185.94 124.938 178.985 126.818 173.096 130.64C169.274 133.083 166.016 136.278 163.009 139.599C159.25 143.734 155.804 148.182 153.486 153.257C152.609 155.262 151.857 157.392 151.355 159.523C151.397 159.481 151.439 159.397 151.481 159.272C152.421 156.265 154.3 153.884 155.866 151.566C156.911 149.979 158.059 148.454 159.312 146.992C164.074 141.353 169.149 136.529 175.351 132.519Z" fill="url(#paint20_linear_35_104)"/>
<path d="M187.691 138.095L196.525 134.775C201.496 133.354 206.571 132.477 211.75 132.143C216.198 131.83 220.521 133.146 222.213 137.594C222.213 137.845 222.255 138.095 222.338 138.346C222.38 138.471 222.464 138.513 222.589 138.471C222.589 137.343 222.401 136.278 221.9 135.276C220.709 132.832 218.078 131.203 215.384 130.514C212.627 129.888 209.808 130.076 206.988 130.452C195.335 132.018 184.12 136.779 175.036 144.11C167.455 150.187 161.315 158.019 157.242 166.727C158.37 164.848 159.498 162.906 160.751 161.089C167.643 151.064 176.289 143.233 187.691 138.095Z" fill="url(#paint21_linear_35_104)"/>
<path d="M159.436 134.524C157.432 139.161 155.489 143.86 155.051 148.809C155.677 147.118 156.304 145.363 157.056 143.672C158.309 140.727 159.812 137.97 161.567 135.339C161.629 135.088 161.629 134.9 161.692 134.775C161.775 134.232 161.838 133.689 161.88 133.146C161.943 132.081 161.817 130.953 161.504 129.951C161.462 129.742 161.4 129.533 161.316 129.324C160.94 131.078 160.126 132.833 159.436 134.524Z" fill="url(#paint22_linear_35_104)"/>
<path d="M148.848 127.885C148.889 126.005 148.848 124.126 148.722 122.246C147.031 124 145.402 125.755 144.149 127.76C141.392 132.271 140.953 137.784 141.392 143.047C141.705 147.307 142.582 151.568 143.898 155.64C143.397 154.074 142.206 152.883 141.079 151.756C138.134 148.748 135.252 145.678 132.871 142.232C130.49 138.786 128.611 134.965 127.796 130.83C126.481 130.955 125.165 131.456 124.225 132.333C123.348 131.769 122.533 131.205 121.907 130.391C121.406 129.764 121.092 129.138 120.904 128.386C120.278 134.275 125.353 139.789 129.049 143.736C132.871 147.871 136.63 152.006 140.577 156.016C142.958 158.522 145.464 160.965 148.033 163.221C147.657 162.908 147.407 162.031 147.156 161.529C146.864 160.945 146.613 160.36 146.404 159.775C145.903 158.522 145.506 157.269 145.214 156.016C144.65 153.51 144.274 150.878 144.211 148.31C144.169 146.514 144.274 144.738 144.525 142.984C145.276 137.68 146.717 132.646 148.848 127.885Z" fill="url(#paint23_linear_35_104)"/>
<path d="M193.206 151.819C192.914 151.693 192.643 151.589 192.392 151.505C189.51 150.628 186.377 151.505 183.683 152.821C179.298 155.014 175.538 158.335 172.343 162.031C168.709 166.229 165.577 170.928 163.634 176.128C161.943 175.376 160.001 175.125 158.184 175.439C158.225 175.522 158.309 175.606 158.434 175.689C160.815 177.485 163.008 179.469 165.013 181.641C165.43 182.143 165.702 182.059 165.827 181.391C167.018 171.93 174.348 162.846 182.242 157.959C185.124 156.204 188.194 155.265 191.577 154.325C192.496 154.074 193.039 153.239 193.206 151.819Z" fill="url(#paint24_linear_35_104)"/>
<path d="M219.583 178.068C217.202 174.747 213.694 172.491 210.561 169.86C207.428 167.291 204.484 163.971 203.983 159.961C203.481 162.154 203.607 164.472 204.296 166.602C201.163 165.286 197.592 164.911 194.209 165.412C191.076 165.85 188.131 167.103 185.5 168.795C185.876 169.087 186.273 169.38 186.69 169.672C189.322 168.043 192.58 167.291 195.712 167.417C199.346 167.542 202.855 168.67 206.113 170.299C207.491 171.05 208.869 171.865 210.185 172.867C213.318 175.311 215.824 178.631 217.265 182.391C217.891 184.02 218.33 185.774 218.518 187.528C218.957 192.916 216.638 198.43 212.629 202.001C210.498 203.88 207.867 205.259 205.048 206.073C208.431 206.261 211.814 205.697 214.884 204.444C217.516 203.317 219.771 201.437 221.275 199.056C221.859 198.096 222.361 197.114 222.778 196.112C224.031 193.292 224.219 190.222 223.53 187.278C223.405 186.693 223.259 186.129 223.092 185.586C222.277 182.892 221.212 180.26 219.583 178.068Z" fill="url(#paint25_linear_35_104)"/>
<path d="M68.9036 230.512C68.5903 228.758 68.4024 226.439 68.4024 223.432C68.3397 213.408 68.3397 203.321 68.4024 193.421L68.3397 138.914V132.084V129.14C68.3397 128.388 68.4024 51.889 68.3397 34.1582C68.3397 31.0256 68.465 28.5195 68.7157 26.4519V26.3893V26.264C69.4048 21.753 71.0338 17.7432 73.6026 14.1094H63.5781V242.228H74.4797C71.535 238.469 69.7181 234.584 68.9036 230.512Z" fill="url(#paint26_linear_35_104)"/>
<path d="M42.9045 14.1094C45.4732 17.7432 47.1022 21.753 47.7914 26.264V26.3893V26.4519C48.042 28.5195 48.1673 31.0256 48.1673 34.1582C48.1046 51.889 48.1673 128.388 48.1673 129.14V132.084L48.23 138.914L48.1046 193.421C48.1673 203.321 48.1673 213.408 48.1046 223.432C48.1046 226.439 47.9167 228.758 47.6034 230.512C46.7889 234.584 44.972 238.469 42.0273 242.228H56.0615V14.1094H42.9045Z" fill="url(#paint27_linear_35_104)"/>
<path d="M89.4564 128.824L86.5117 131.832L189.325 242.226H195.152L89.4564 128.824Z" fill="url(#paint28_linear_35_104)"/>
<path d="M65.8963 230.512C65.771 228.758 65.7083 226.439 65.6457 223.432C65.6457 213.408 65.6457 203.321 65.6457 193.421V138.914V132.084V129.14C65.6457 128.388 65.7083 51.889 65.6457 34.1582C65.6457 31.0256 65.7083 28.5195 65.8336 26.4519V26.3893V26.264C66.1469 21.753 66.8361 17.7432 67.9638 14.1094H63.5781V242.228H68.3397C67.024 238.469 66.2722 234.584 65.8963 230.512Z" fill="url(#paint29_linear_35_104)"/>
<path d="M51.864 14.1094C52.6785 17.7432 53.1798 21.753 53.4304 26.264V26.3893V26.4519C53.493 28.5195 53.5557 31.0256 53.5557 34.1582C53.493 51.889 53.5557 128.388 53.5557 129.14V132.084V138.914L53.493 193.421C53.5557 203.321 53.5557 213.408 53.5557 223.432C53.493 226.439 53.493 228.758 53.3677 230.512C53.1171 234.584 52.4906 238.469 51.5508 242.228H56.0618V14.1094H51.864Z" fill="url(#paint30_linear_35_104)"/>
<path d="M147.094 64.9164C150.79 60.5307 154.361 56.0823 157.682 51.634C162.318 45.4314 167.769 36.9732 169.148 26.4476L169.21 26.2596V26.1343C169.523 21.686 168.834 17.9268 167.519 14.3556L198.845 14.293C198.469 14.5853 198.114 14.8569 197.78 15.1075C190.449 20.4956 183.746 27.3247 177.794 33.3394C167.581 43.7397 157.243 54.3281 147.094 64.9164Z" fill="url(#paint31_linear_35_104)"/>
<path d="M167.519 14.3594C168.834 17.9306 169.523 21.6897 169.21 26.1381V26.2634L169.148 26.4513C167.769 36.977 162.318 45.4351 157.682 51.6377C154.361 56.0861 150.79 60.5344 147.094 64.9201C157.118 53.8306 177.104 30.8997 176.979 22.8801C176.854 14.8606 167.519 14.3594 167.519 14.3594Z" fill="url(#paint32_linear_35_104)"/>
<path fill-rule="evenodd" clip-rule="evenodd" d="M252.915 249.431V256.698H135.003C134.94 256.698 134.878 256.636 134.878 256.573C134.878 256.573 134.878 256.552 134.878 256.51L137.634 251.811C137.76 251.435 137.948 251.039 138.198 250.621C138.323 250.496 138.47 250.412 138.637 250.37C145.027 248.929 149.914 246.924 153.548 241.16C156.681 235.271 155.24 229.006 151.857 223.806C147.471 216.976 141.769 211.338 136.319 205.574C121.992 190.453 107.582 175.396 93.0882 160.401C89.3917 156.517 85.3193 151.88 81.3095 147.745C81.5601 149.249 81.7063 150.69 81.7481 152.068C81.8734 165.225 81.8943 178.382 81.8108 191.539C81.8943 201.814 81.9361 212.09 81.9361 222.365C81.9778 226.959 83.4397 230.99 86.3217 234.457C90.7701 239.782 96.6594 243.792 103.05 247.05C105.807 248.512 108.48 249.535 111.07 250.12C111.237 250.161 111.362 250.245 111.445 250.37L112.636 252.939L114.515 256.385C114.599 256.594 114.536 256.698 114.328 256.698H0.800781V254.505V253.628V249.556C0.800781 249.556 0.884333 249.535 1.05141 249.493C13.2687 247.739 27.5535 239.531 30.6861 226.75C31.1874 224.495 31.438 222.594 31.438 221.049C31.5633 185.713 31.5633 150.377 31.5633 115.04V57.212C31.5633 49.7354 31.5424 42.2589 31.5006 34.7823C31.438 19.7457 18.8448 10.2224 5.37444 7.34041C4.12139 7.02715 0.800781 6.27532 0.800781 6.27532V1.63901V0.699219H1.05141H110.13H114.328C114.286 0.782756 114.223 0.866298 114.14 0.949835C113.054 2.57881 112.197 4.39573 111.571 6.40062C106.6 7.73721 102.507 9.21999 99.2909 10.849C92.2111 14.4202 86.3218 19.7457 83.0012 27.0134L82.3746 28.9556C82.0405 30.3757 81.8734 31.3573 81.8734 31.9003C81.9152 58.298 81.9152 84.6539 81.8734 110.968C81.8734 111.344 81.9987 111.407 82.2493 111.156C88.076 105.141 93.8401 98.876 99.5415 92.9867C112.197 79.8923 124.853 66.6725 137.321 53.4528C137.781 52.9934 138.574 52.0536 139.702 50.6334C142.292 47.7514 144.798 44.4517 147.22 40.7343C151.23 34.657 154.676 25.5097 152.922 18.4299C151.167 11.6634 145.09 8.4055 138.637 6.77653C138.303 6.69299 138.073 6.31709 137.948 5.64879C137.279 3.89451 136.36 2.30731 135.191 0.887179C135.149 0.803642 135.107 0.740987 135.066 0.699219H136.256L249.219 0.761875H252.853V0.949835V2.20289V6.52592C248.091 7.15245 234.871 10.4104 228.481 13.2298C219.626 17.0725 211.69 22.1264 204.673 28.3917C192.205 39.6692 180.238 52.701 168.271 65.1062C156.952 76.8014 145.591 88.5592 134.188 100.38C124.958 109.903 115.56 119.489 105.995 129.137L172.093 199.684C184.373 212.716 195.964 226.562 211.502 236.023C223.594 243.416 238.881 247.927 252.915 249.431ZM216.076 246.548C214.572 245.88 212.964 245.066 211.251 244.105C200.475 237.777 191.829 230.447 183.246 221.487C177.649 215.64 172.114 209.75 166.643 203.819C144.025 179.072 120.718 155.013 97.7245 130.641L94.216 126.944L94.7799 126.443L96.3462 124.752L97.8499 123.248L117.084 103.199C126.169 93.7385 135.316 84.4033 144.401 74.9427C156.639 62.1616 168.961 49.4639 181.366 36.8498C187.882 30.2087 193.959 24.0687 200.788 19.1191C205.341 15.6106 210.165 12.5406 215.261 9.90917C215.595 9.74209 215.888 9.53325 216.138 9.28264L159.312 9.40795C162.695 14.7961 164.7 19.3697 164.199 25.7603C163.071 34.3437 158.811 41.7368 153.673 48.6286C147.617 56.7734 140.934 64.6885 133.625 72.3739C126.232 80.0802 119.653 86.7214 112.824 93.8638C101.358 105.893 78.4275 129.137 75.5455 132.082V129.137C75.5455 129.137 75.6081 52.0745 75.5455 34.1558C75.5455 31.232 75.6499 28.8512 75.8588 27.0134C77.0492 19.3071 81.3095 13.8563 87.5748 9.3453L30.6235 9.4706C33.6726 11.8932 36.4711 14.7126 39.0189 17.9287C41.358 20.8943 42.4857 24.194 42.4022 27.8279V139.036V194.547L42.0263 216.037C42.2769 222.239 41.901 228.317 39.4575 233.83C37.3273 238.905 33.1922 243.103 28.7439 246.361C28.6186 246.423 28.6186 246.611 28.6812 246.736C28.723 246.778 28.7648 246.799 28.8066 246.799L29.1198 246.924C48.7301 246.862 68.2778 246.799 87.8881 246.987C88.3893 246.987 88.9532 247.238 89.517 247.3C89.5797 247.3 89.6423 247.238 89.6423 247.175C89.6423 247.133 89.6215 247.092 89.5797 247.05C88.076 246.173 86.5724 245.295 85.2567 244.168C80.8083 240.158 77.1744 235.334 76.0467 229.632C75.7543 228.17 75.6081 226.103 75.6081 223.43C75.5246 213.363 75.5246 203.36 75.6081 193.419L75.4828 138.974L81.1842 133.084C98.4346 151.63 115.831 170.05 133.374 188.344C140.308 195.654 147.137 203.068 153.861 210.586C157.746 214.972 160.878 218.668 163.071 223.43C166.079 229.695 166.705 236.963 162.695 242.915C161.818 244.251 160.92 245.588 160.001 246.924L215.95 247.05C216.869 247.05 216.911 246.883 216.076 246.548ZM216.389 9.40795C216.347 9.40795 216.326 9.40795 216.326 9.40795C216.368 9.40795 216.389 9.40795 216.389 9.40795Z" fill="url(#paint33_linear_35_104)"/>
<path fill-rule="evenodd" clip-rule="evenodd" d="M252.915 249.431V256.698H135.003C134.94 256.698 134.878 256.636 134.878 256.573C134.878 256.573 134.878 256.552 134.878 256.51L137.634 251.811C137.76 251.435 137.948 251.039 138.198 250.621C138.323 250.496 138.47 250.412 138.637 250.37C145.027 248.929 149.914 246.924 153.548 241.16C156.681 235.271 155.24 229.006 151.857 223.806C147.471 216.976 141.769 211.338 136.319 205.574C121.992 190.453 107.582 175.396 93.0882 160.401C89.3917 156.517 85.3193 151.88 81.3095 147.745C81.5601 149.249 81.7063 150.69 81.7481 152.068C81.8734 165.225 81.8943 178.382 81.8108 191.539C81.8943 201.814 81.9361 212.09 81.9361 222.365C81.9778 226.959 83.4397 230.99 86.3217 234.457C90.7701 239.782 96.6594 243.792 103.05 247.05C105.807 248.512 108.48 249.535 111.07 250.12C111.237 250.161 111.362 250.245 111.445 250.37L112.636 252.939L114.515 256.385C114.599 256.594 114.536 256.698 114.328 256.698H0.800781V254.505V253.628V249.556C0.800781 249.556 0.884333 249.535 1.05141 249.493C13.2687 247.739 27.5535 239.531 30.6861 226.75C31.1874 224.495 31.438 222.594 31.438 221.049C31.5633 185.713 31.5633 57.212 31.5633 57.212C31.5633 49.7354 31.5424 42.2589 31.5006 34.7823C31.438 19.7457 18.8448 10.2224 5.37444 7.34041C4.12139 7.02715 0.800781 6.27532 0.800781 6.27532V1.63901V0.699219H1.05141H110.13H114.328C114.286 0.782756 114.223 0.866298 114.14 0.949835C113.054 2.57881 112.197 4.39573 111.571 6.40062C106.6 7.73721 102.507 9.21999 99.2909 10.849C92.2111 14.4202 86.3218 19.7457 83.0012 27.0134L82.3746 28.9556C82.0405 30.3757 81.8734 31.3573 81.8734 31.9003C81.9152 58.298 81.9152 84.6539 81.8734 110.968C81.8734 111.344 81.9987 111.407 82.2493 111.156C88.076 105.141 93.8401 98.876 99.5415 92.9867C112.197 79.8923 124.853 66.6725 137.321 53.4528C137.781 52.9934 138.574 52.0536 139.702 50.6334C142.292 47.7514 144.798 44.4517 147.22 40.7343C151.23 34.657 154.676 25.5097 152.922 18.4299C151.167 11.6634 145.09 8.4055 138.637 6.77653C138.303 6.69299 138.073 6.31709 137.948 5.64879C137.279 3.89451 136.36 2.30731 135.191 0.887179C135.149 0.803642 135.107 0.740987 135.066 0.699219H136.256L249.219 0.761875H252.853V0.949835V2.20289V6.52592C248.091 7.15245 234.871 10.4104 228.481 13.2298C219.626 17.0725 211.69 22.1264 204.673 28.3917C192.205 39.6692 180.238 52.701 168.271 65.1062C156.952 76.8014 145.591 88.5592 134.188 100.38C124.958 109.903 115.56 119.489 105.995 129.137L172.093 199.684C184.373 212.716 195.964 226.562 211.502 236.023C223.594 243.416 238.881 247.927 252.915 249.431ZM216.076 246.548C214.572 245.88 212.964 245.066 211.251 244.105C200.475 237.777 191.829 230.447 183.246 221.487C177.649 215.64 172.114 209.75 166.643 203.819C144.025 179.072 120.718 155.013 97.7245 130.641L94.216 126.944L94.7799 126.443L96.3462 124.752L97.8499 123.248L117.084 103.199C126.169 93.7385 135.316 84.4033 144.401 74.9427C156.639 62.1616 168.961 49.4639 181.366 36.8498C187.882 30.2087 193.959 24.0687 200.788 19.1191C205.341 15.6106 210.165 12.5406 215.261 9.90917C215.595 9.74209 215.888 9.53325 216.138 9.28264L159.312 9.40795C162.695 14.7961 164.7 19.3697 164.199 25.7603C163.071 34.3437 158.811 41.7368 153.673 48.6286C147.617 56.7734 140.934 64.6885 133.625 72.3739C126.232 80.0802 119.653 86.7214 112.824 93.8638C101.358 105.893 78.4275 129.137 75.5455 132.082V129.137C75.5455 129.137 75.6081 52.0745 75.5455 34.1558C75.5455 31.232 75.6499 28.8512 75.8588 27.0134C77.0492 19.3071 81.3095 13.8563 87.5748 9.3453L30.6235 9.4706C33.6726 11.8932 36.4711 14.7126 39.0189 17.9287C41.358 20.8943 42.4857 24.194 42.4022 27.8279V139.036V194.547L42.0263 216.037C42.2769 222.239 41.901 228.317 39.4575 233.83C37.3273 238.905 33.1922 243.103 28.7439 246.361C28.6186 246.423 28.6186 246.611 28.6812 246.736C28.723 246.778 28.7648 246.799 28.8066 246.799L29.1198 246.924C48.7301 246.862 68.2778 246.799 87.8881 246.987C88.3893 246.987 88.9532 247.238 89.517 247.3C89.5797 247.3 89.6423 247.238 89.6423 247.175C89.6423 247.133 89.6215 247.092 89.5797 247.05C88.076 246.173 86.5724 245.295 85.2567 244.168C80.8083 240.158 77.1744 235.334 76.0467 229.632C75.7543 228.17 75.6081 226.103 75.6081 223.43C75.5246 213.363 75.5246 203.36 75.6081 193.419L75.4828 138.974L81.1842 133.084C98.4346 151.63 115.831 170.05 133.374 188.344C140.308 195.654 147.137 203.068 153.861 210.586C157.746 214.972 160.878 218.668 163.071 223.43C166.079 229.695 166.705 236.963 162.695 242.915C161.818 244.251 160.92 245.588 160.001 246.924L215.95 247.05C216.869 247.05 216.911 246.883 216.076 246.548ZM216.389 9.40795C216.347 9.40795 216.326 9.40795 216.326 9.40795C216.368 9.40795 216.389 9.40795 216.389 9.40795Z" fill="url(#paint34_linear_35_104)"/>
<path d="M28.6821 246.735C28.6194 246.61 28.6194 246.422 28.7448 246.359C33.1931 243.101 37.3282 238.903 39.4584 233.828C41.9018 228.315 42.2777 222.238 42.0271 216.035L42.4031 194.545V139.035V27.8263C42.4866 24.1924 41.3588 20.8927 39.0198 17.9272C36.4719 14.711 33.6734 11.8916 30.6243 9.46903L86.3853 9.34373C86.5106 9.21842 86.6359 9.09312 86.8238 9.03047L90.771 6.14844L24.4844 6.27375L27.9929 9.03047C30.9376 11.4113 33.6943 14.168 36.2004 17.3006C38.3306 19.9947 39.2704 22.8767 39.2078 26.1973V137.406V192.916L38.8318 214.343C39.1451 221.736 38.3933 227.062 36.3884 231.573C34.5715 235.771 31.0629 239.906 26.2386 243.414C25.4242 244.041 25.2362 245.169 25.8001 245.983C26.0089 246.275 26.3013 246.484 26.6772 246.61L27.2411 246.86H28.9954L28.8074 246.798C28.7656 246.798 28.7239 246.777 28.6821 246.735Z" fill="url(#paint35_linear_35_104)"/>
<path d="M75.5469 132.081C78.4289 129.136 101.36 105.892 112.825 93.8625C119.654 86.7201 126.233 80.079 133.626 72.3727C140.935 64.6873 147.618 56.7721 153.675 48.6273C158.812 41.7355 163.073 34.3425 164.2 25.7591C164.702 19.3685 162.697 14.7948 159.314 9.40669L216.14 9.28138L220.901 6.02344L154.928 6.2114L156.369 8.5922C159.627 13.855 161.444 18.0528 161.005 24.0048C159.815 32.9641 154.928 40.5451 150.793 46.0585C144.778 54.1407 138.074 62.035 130.807 69.6786C127.11 73.5631 123.539 77.1969 120.093 80.7681C116.71 84.2767 113.452 87.6599 110.069 91.1685C100.671 101.005 83.6291 118.36 75.5469 126.567C75.5469 128.196 75.5469 129.136 75.5469 129.136V132.081Z" fill="url(#paint36_linear_35_104)"/>
<path d="M94.7787 126.443L94.2148 126.944L97.7234 130.641C120.717 155.012 144.024 179.071 166.641 203.819C172.113 209.75 177.647 215.639 183.244 221.487C191.828 230.446 200.474 237.777 211.25 244.105C212.921 245.065 214.508 245.859 216.012 246.485C216.325 246.297 216.513 245.984 216.576 245.608C216.784 244.689 216.283 243.979 215.072 243.478C213.631 242.852 212.065 242.037 210.436 241.097C200.599 235.333 192.078 228.441 182.743 218.793C177.167 212.966 171.591 207.077 166.14 201.125C150.289 183.77 133.749 166.415 117.835 149.687C110.943 142.461 104.072 135.214 97.2222 127.946L95.2799 125.879L94.7787 126.443Z" fill="url(#paint37_linear_35_104)"/>
<path d="M96.9116 7.77898C89.08 11.7888 83.2533 17.6155 79.9954 24.6952L79.9327 24.8205L79.2436 26.8881V26.9507C78.8676 28.517 78.6797 29.5821 78.6797 30.2713C78.7423 56.7107 78.6797 114.727 78.6797 114.727C78.6797 114.727 81.8123 111.469 81.875 111.407C81.9376 85.2804 81.9376 58.1518 81.875 31.9003C81.875 31.3573 82.042 30.3757 82.3762 28.9556L83.0027 27.0134C86.3233 19.7457 92.2127 14.4202 99.2924 10.849C102.509 9.21999 106.602 7.73721 111.572 6.40062C112.199 4.39573 113.055 2.57881 114.141 0.949835C114.225 0.866298 114.287 0.782756 114.329 0.699219H110.131H109.881C109.421 1.61813 109.024 2.53704 108.69 3.45594C103.991 4.77165 100.044 6.21266 96.9116 7.77898Z" fill="url(#paint38_linear_35_104)"/>
<path d="M152.797 16.425C151.231 10.2851 146.219 6.02471 137.823 3.76921C137.823 3.70656 137.823 3.51859 137.823 3.51859L137.761 3.39329C137.385 2.47438 136.946 1.57636 136.445 0.699219H136.257H135.066C135.108 0.740987 135.15 0.803642 135.192 0.887179C136.361 2.30731 137.28 3.89451 137.948 5.64879C138.074 6.31709 138.303 6.69299 138.638 6.77653C145.091 8.4055 151.168 11.6634 152.922 18.4299C153.09 19.2653 153.215 20.1216 153.298 20.9987C153.298 19.4324 153.173 17.9287 152.797 16.425Z" fill="url(#paint39_linear_35_104)"/>
<path d="M151.543 221.299C147.596 215.159 142.584 209.896 137.697 204.821L135.817 202.816C121.595 187.842 107.06 172.618 92.587 157.644C90.7701 155.764 88.8905 153.696 86.8856 151.504C84.8807 149.373 82.8759 147.118 80.8083 145.05L77.9889 142.043C77.9889 142.043 78.5528 149.185 78.5528 150.438C78.6781 163.596 78.6781 176.878 78.6155 189.91C78.6781 200.31 78.7408 210.648 78.7408 220.735C78.8034 225.684 80.3697 230.07 83.5024 233.829C87.6374 238.779 93.0883 242.914 100.669 246.861C103.426 248.239 106.057 249.242 108.626 249.868L109.566 251.998L110.38 253.502H0.800781V253.627V254.505V256.697H114.328C114.536 256.697 114.599 256.593 114.515 256.384L112.636 252.938L111.445 250.37C111.362 250.244 111.237 250.161 111.07 250.119C108.48 249.534 105.807 248.511 103.05 247.049C96.6594 243.791 90.7701 239.781 86.3217 234.456C83.4397 230.989 81.9778 226.958 81.9361 222.364C81.9361 212.089 81.8943 201.814 81.8108 191.539C81.8943 178.382 81.8734 165.224 81.7481 152.067C81.7063 150.689 81.5601 149.248 81.3095 147.744C85.3193 151.879 89.3917 156.516 93.0882 160.4C107.582 175.395 121.992 190.453 136.319 205.573C141.769 211.337 147.471 216.976 151.857 223.805C153.673 226.561 154.864 229.569 155.177 232.701C155.24 229.005 153.987 225.12 151.543 221.299Z" fill="url(#paint40_linear_35_104)"/>
<path d="M4.12139 4.14636C3.36955 4.02106 1.86588 3.64514 0.800781 3.39453V6.27656C0.800781 6.27656 4.12139 7.02839 5.37444 7.34165C18.3436 10.0984 30.4982 19.0577 31.438 33.1546C31.3753 16.113 16.6519 6.90308 4.12139 4.14636Z" fill="url(#paint41_linear_35_104)"/>
<path d="M85.254 244.169C86.3817 245.171 88.5746 246.487 89.9529 247.301C90.2035 247.051 90.4542 246.675 90.4542 246.236C90.5168 245.61 90.2036 244.983 89.7023 244.67L89.1384 244.357C87.6348 243.668 85.6926 242.289 84.6901 241.349C79.6779 236.901 76.8585 232.39 75.9187 227.691C75.7934 226.877 75.6681 225.811 75.6055 224.621C75.6681 226.689 75.7934 228.38 76.044 229.633C77.1718 235.335 80.8056 240.159 85.254 244.169Z" fill="url(#paint42_linear_35_104)"/>
<path fill-rule="evenodd" clip-rule="evenodd" d="M252.914 249.43V256.698H135.002C134.939 256.698 134.877 256.635 134.877 256.573C134.877 256.573 134.877 256.552 134.877 256.51L136.694 253.503H249.719V249.18C234.933 247.363 220.147 242.539 209.057 235.772C195.775 227.69 185.249 216.287 175.1 205.323C173.178 203.276 171.257 201.209 169.336 199.12L169.148 198.932H169.899L168.96 198.744L102.172 127.446L103.237 126.38C112.76 116.795 122.283 107.146 131.431 97.6855C142.833 85.865 154.195 74.0863 165.514 62.3493C168.27 59.5091 171.048 56.6271 173.847 53.7033C182.931 44.18 192.392 34.2809 202.04 25.6348C209.12 19.2443 217.265 14.0441 226.224 10.1596C232.114 7.59087 243.892 4.52088 249.656 3.58109V0.761719H252.852V0.949679V2.20273V6.52577C248.09 7.15229 234.87 10.4102 228.48 13.2296C219.625 17.0723 211.689 22.1263 204.672 28.3916C192.204 39.6691 180.237 52.7008 168.27 65.1061C156.951 76.8012 145.59 88.5591 134.187 100.38C124.957 109.903 115.559 119.489 105.994 129.137L172.092 199.684C184.372 212.716 195.963 226.562 211.501 236.023C223.593 243.416 238.88 247.864 252.914 249.43Z" fill="url(#paint43_linear_35_104)"/>
<path d="M163.07 223.431C160.877 218.67 157.744 214.973 153.86 210.587C147.135 203.069 140.306 195.655 133.372 188.346C115.83 170.051 98.433 151.631 81.1826 133.086L79.9922 134.276C96.7205 152.132 113.699 170.176 130.553 187.782C137.507 195.049 144.399 202.505 151.04 210.023C154.987 214.472 157.995 217.918 160 222.429C163.132 229.007 163.07 235.523 159.749 240.41C158.872 241.747 157.974 243.062 157.055 244.357L155.363 246.801L160 246.863C160.919 245.568 161.817 244.253 162.694 242.916C166.704 236.964 166.077 229.696 163.07 223.431Z" fill="url(#paint44_linear_35_104)"/>
<defs>
<linearGradient id="paint0_linear_35_104" x1="212.887" y1="23.9758" x2="233.07" y2="44.1581" gradientUnits="userSpaceOnUse">
<stop stop-color="#898989"/>
<stop offset="0.278" stop-color="#676767"/>
<stop offset="0.627" stop-color="#C7C7C7"/>
<stop offset="1" stop-color="#676767"/>
</linearGradient>
<linearGradient id="paint1_linear_35_104" x1="207.979" y1="22.1394" x2="258.357" y2="72.5172" gradientUnits="userSpaceOnUse">
<stop stop-color="#898989"/>
<stop offset="0.278" stop-color="#676767"/>
<stop offset="0.627" stop-color="#C7C7C7"/>
<stop offset="1" stop-color="#676767"/>
</linearGradient>
<linearGradient id="paint2_linear_35_104" x1="187.397" y1="50.1628" x2="219.172" y2="81.9371" gradientUnits="userSpaceOnUse">
<stop stop-color="#898989"/>
<stop offset="0.278" stop-color="#676767"/>
<stop offset="0.627" stop-color="#C7C7C7"/>
<stop offset="1" stop-color="#676767"/>
</linearGradient>
<linearGradient id="paint3_linear_35_104" x1="201.019" y1="73.4505" x2="207.588" y2="80.019" gradientUnits="userSpaceOnUse">
<stop stop-color="#898989"/>
<stop offset="0.278" stop-color="#676767"/>
<stop offset="0.627" stop-color="#C7C7C7"/>
<stop offset="1" stop-color="#676767"/>
</linearGradient>
<linearGradient id="paint4_linear_35_104" x1="164.502" y1="70.8545" x2="196.523" y2="102.875" gradientUnits="userSpaceOnUse">
<stop stop-color="#898989"/>
<stop offset="0.278" stop-color="#676767"/>
<stop offset="0.627" stop-color="#C7C7C7"/>
<stop offset="1" stop-color="#676767"/>
</linearGradient>
<linearGradient id="paint5_linear_35_104" x1="183.022" y1="77.869" x2="255.548" y2="150.395" gradientUnits="userSpaceOnUse">
<stop stop-color="#898989"/>
<stop offset="0.278" stop-color="#676767"/>
<stop offset="0.627" stop-color="#C7C7C7"/>
<stop offset="1" stop-color="#676767"/>
</linearGradient>
<linearGradient id="paint6_linear_35_104" x1="150.609" y1="81.8832" x2="191.319" y2="122.592" gradientUnits="userSpaceOnUse">
<stop stop-color="#898989"/>
<stop offset="0.278" stop-color="#676767"/>
<stop offset="0.627" stop-color="#C7C7C7"/>
<stop offset="1" stop-color="#676767"/>
</linearGradient>
<linearGradient id="paint7_linear_35_104" x1="175.653" y1="129.588" x2="210.683" y2="164.617" gradientUnits="userSpaceOnUse">
<stop stop-color="#898989"/>
<stop offset="0.278" stop-color="#676767"/>
<stop offset="0.627" stop-color="#C7C7C7"/>
<stop offset="1" stop-color="#676767"/>
</linearGradient>
<linearGradient id="paint8_linear_35_104" x1="210.89" y1="118.357" x2="263.063" y2="170.529" gradientUnits="userSpaceOnUse">
<stop stop-color="#898989"/>
<stop offset="0.278" stop-color="#676767"/>
<stop offset="0.627" stop-color="#C7C7C7"/>
<stop offset="1" stop-color="#676767"/>
</linearGradient>
<linearGradient id="paint9_linear_35_104" x1="197.424" y1="153.378" x2="215.527" y2="171.481" gradientUnits="userSpaceOnUse">
<stop stop-color="#898989"/>
<stop offset="0.278" stop-color="#676767"/>
<stop offset="0.627" stop-color="#C7C7C7"/>
<stop offset="1" stop-color="#676767"/>
</linearGradient>
<linearGradient id="paint10_linear_35_104" x1="198.039" y1="163.815" x2="220.465" y2="186.241" gradientUnits="userSpaceOnUse">
<stop stop-color="#898989"/>
<stop offset="0.278" stop-color="#676767"/>
<stop offset="0.627" stop-color="#C7C7C7"/>
<stop offset="1" stop-color="#676767"/>
</linearGradient>
<linearGradient id="paint11_linear_35_104" x1="199.138" y1="176.281" x2="204.901" y2="182.045" gradientUnits="userSpaceOnUse">
<stop stop-color="#898989"/>
<stop offset="0.278" stop-color="#676767"/>
<stop offset="0.627" stop-color="#C7C7C7"/>
<stop offset="1" stop-color="#676767"/>
</linearGradient>
<linearGradient id="paint12_linear_35_104" x1="203.569" y1="182.976" x2="236.959" y2="216.367" gradientUnits="userSpaceOnUse">
<stop stop-color="#898989"/>
<stop offset="0.278" stop-color="#676767"/>
<stop offset="0.627" stop-color="#C7C7C7"/>
<stop offset="1" stop-color="#676767"/>
</linearGradient>
<linearGradient id="paint13_linear_35_104" x1="207.358" y1="127.264" x2="207.64" y2="126.982" gradientUnits="userSpaceOnUse">
<stop stop-color="#484848"/>
<stop offset="0.373" stop-color="#BBBBBB"/>
<stop offset="0.722" stop-color="#484848"/>
<stop offset="1" stop-color="#6E6E6E"/>
</linearGradient>
<linearGradient id="paint14_linear_35_104" x1="200.465" y1="47.5333" x2="217.62" y2="30.3777" gradientUnits="userSpaceOnUse">
<stop stop-color="#484848"/>
<stop offset="0.373" stop-color="#BBBBBB"/>
<stop offset="0.722" stop-color="#484848"/>
<stop offset="1" stop-color="#6E6E6E"/>
</linearGradient>
<linearGradient id="paint15_linear_35_104" x1="172.481" y1="92.941" x2="207.533" y2="57.8893" gradientUnits="userSpaceOnUse">
<stop stop-color="#484848"/>
<stop offset="0.373" stop-color="#BBBBBB"/>
<stop offset="0.722" stop-color="#484848"/>
<stop offset="1" stop-color="#6E6E6E"/>
</linearGradient>
<linearGradient id="paint16_linear_35_104" x1="175.97" y1="66.7912" x2="202.904" y2="39.8568" gradientUnits="userSpaceOnUse">
<stop stop-color="#484848"/>
<stop offset="0.373" stop-color="#BBBBBB"/>
<stop offset="0.722" stop-color="#484848"/>
<stop offset="1" stop-color="#6E6E6E"/>
</linearGradient>
<linearGradient id="paint17_linear_35_104" x1="164.044" y1="78.5255" x2="186.87" y2="55.6992" gradientUnits="userSpaceOnUse">
<stop stop-color="#484848"/>
<stop offset="0.373" stop-color="#BBBBBB"/>
<stop offset="0.722" stop-color="#484848"/>
<stop offset="1" stop-color="#6E6E6E"/>
</linearGradient>
<linearGradient id="paint18_linear_35_104" x1="194.451" y1="80.019" x2="201.019" y2="73.4505" gradientUnits="userSpaceOnUse">
<stop stop-color="#484848"/>
<stop offset="0.373" stop-color="#BBBBBB"/>
<stop offset="0.722" stop-color="#484848"/>
<stop offset="1" stop-color="#6E6E6E"/>
</linearGradient>
<linearGradient id="paint19_linear_35_104" x1="139.634" y1="102.536" x2="163.434" y2="78.7361" gradientUnits="userSpaceOnUse">
<stop stop-color="#484848"/>
<stop offset="0.373" stop-color="#BBBBBB"/>
<stop offset="0.722" stop-color="#484848"/>
<stop offset="1" stop-color="#6E6E6E"/>
</linearGradient>
<linearGradient id="paint20_linear_35_104" x1="142.221" y1="150.374" x2="187.782" y2="104.812" gradientUnits="userSpaceOnUse">
<stop stop-color="#484848"/>
<stop offset="0.373" stop-color="#BBBBBB"/>
<stop offset="0.722" stop-color="#484848"/>
<stop offset="1" stop-color="#6E6E6E"/>
</linearGradient>
<linearGradient id="paint21_linear_35_104" x1="150.115" y1="159.619" x2="201.103" y2="108.631" gradientUnits="userSpaceOnUse">
<stop stop-color="#484848"/>
<stop offset="0.373" stop-color="#BBBBBB"/>
<stop offset="0.722" stop-color="#484848"/>
<stop offset="1" stop-color="#6E6E6E"/>
</linearGradient>
<linearGradient id="paint22_linear_35_104" x1="133.022" y1="126.817" x2="146.209" y2="113.63" gradientUnits="userSpaceOnUse">
<stop stop-color="#484848"/>
<stop offset="0.373" stop-color="#BBBBBB"/>
<stop offset="0.722" stop-color="#484848"/>
<stop offset="1" stop-color="#6E6E6E"/>
</linearGradient>
<linearGradient id="paint23_linear_35_104" x1="92.3962" y1="134.762" x2="126.895" y2="100.263" gradientUnits="userSpaceOnUse">
<stop stop-color="#484848"/>
<stop offset="0.373" stop-color="#BBBBBB"/>
<stop offset="0.722" stop-color="#484848"/>
<stop offset="1" stop-color="#6E6E6E"/>
</linearGradient>
<linearGradient id="paint24_linear_35_104" x1="144.741" y1="168.511" x2="177.645" y2="135.607" gradientUnits="userSpaceOnUse">
<stop stop-color="#484848"/>
<stop offset="0.373" stop-color="#BBBBBB"/>
<stop offset="0.722" stop-color="#484848"/>
<stop offset="1" stop-color="#6E6E6E"/>
</linearGradient>
<linearGradient id="paint25_linear_35_104" x1="158.168" y1="178.77" x2="200.466" y2="136.472" gradientUnits="userSpaceOnUse">
<stop stop-color="#484848"/>
<stop offset="0.373" stop-color="#BBBBBB"/>
<stop offset="0.722" stop-color="#484848"/>
<stop offset="1" stop-color="#6E6E6E"/>
</linearGradient>
<linearGradient id="paint26_linear_35_104" x1="1258.72" y1="-1181.08" x2="1378.25" y2="-1061.55" gradientUnits="userSpaceOnUse">
<stop stop-color="#898989"/>
<stop offset="0.278" stop-color="#676767"/>
<stop offset="0.627" stop-color="#C7C7C7"/>
<stop offset="1" stop-color="#676767"/>
</linearGradient>
<linearGradient id="paint27_linear_35_104" x1="972.062" y1="-915.947" x2="1093.15" y2="-794.856" gradientUnits="userSpaceOnUse">
<stop stop-color="#898989"/>
<stop offset="0.278" stop-color="#676767"/>
<stop offset="0.627" stop-color="#C7C7C7"/>
<stop offset="1" stop-color="#676767"/>
</linearGradient>
<linearGradient id="paint28_linear_35_104" x1="143.292" y1="72.0358" x2="254.298" y2="183.041" gradientUnits="userSpaceOnUse">
<stop stop-color="#898989"/>
<stop offset="0.278" stop-color="#676767"/>
<stop offset="0.627" stop-color="#C7C7C7"/>
<stop offset="1" stop-color="#676767"/>
</linearGradient>
<linearGradient id="paint29_linear_35_104" x1="2913.92" y1="2859.67" x2="2797.47" y2="2976.12" gradientUnits="userSpaceOnUse">
<stop stop-color="#676767"/>
<stop offset="0.373" stop-color="#C7C7C7"/>
<stop offset="0.722" stop-color="#676767"/>
<stop offset="1" stop-color="#898989"/>
</linearGradient>
<linearGradient id="paint30_linear_35_104" x1="3056.12" y1="3014.12" x2="2939.8" y2="3130.44" gradientUnits="userSpaceOnUse">
<stop stop-color="#676767"/>
<stop offset="0.373" stop-color="#C7C7C7"/>
<stop offset="0.722" stop-color="#676767"/>
<stop offset="1" stop-color="#898989"/>
</linearGradient>
<linearGradient id="paint31_linear_35_104" x1="122.333" y1="40.166" x2="173.513" y2="-11.0131" gradientUnits="userSpaceOnUse">
<stop stop-color="#898989"/>
<stop offset="0.278" stop-color="#676767"/>
<stop offset="0.627" stop-color="#C7C7C7"/>
<stop offset="1" stop-color="#676767"/>
</linearGradient>
<linearGradient id="paint32_linear_35_104" x1="175.927" y1="-14.4722" x2="230.671" y2="40.2725" gradientUnits="userSpaceOnUse">
<stop stop-color="#6E6E6E"/>
<stop offset="0.278" stop-color="#484848"/>
<stop offset="0.627" stop-color="#BBBBBB"/>
<stop offset="1" stop-color="#484848"/>
</linearGradient>
<linearGradient id="paint33_linear_35_104" x1="128.803" y1="-127.307" x2="382.872" y2="126.762" gradientUnits="userSpaceOnUse">
<stop stop-color="#C18837"/>
<stop offset="0.278" stop-color="#9C6C2C"/>
<stop offset="0.627" stop-color="#FFBD62"/>
<stop offset="1" stop-color="#9C6C2C"/>
</linearGradient>
<linearGradient id="paint34_linear_35_104" x1="-129.156" y1="126.762" x2="124.913" y2="-127.307" gradientUnits="userSpaceOnUse">
<stop stop-color="#A2722F"/>
<stop offset="0.278" stop-color="#775222"/>
<stop offset="0.627" stop-color="#F2B35D"/>
<stop offset="1" stop-color="#775222"/>
</linearGradient>
<linearGradient id="paint35_linear_35_104" x1="259.477" y1="-228.847" x2="412.988" y2="-75.3358" gradientUnits="userSpaceOnUse">
<stop stop-color="#A2722F"/>
<stop offset="0.278" stop-color="#775222"/>
<stop offset="0.627" stop-color="#F2B35D"/>
<stop offset="1" stop-color="#775222"/>
</linearGradient>
<linearGradient id="paint36_linear_35_104" x1="139.183" y1="-57.6048" x2="274.871" y2="78.0841" gradientUnits="userSpaceOnUse">
<stop stop-color="#A2722F"/>
<stop offset="0.278" stop-color="#775222"/>
<stop offset="0.627" stop-color="#F2B35D"/>
<stop offset="1" stop-color="#775222"/>
</linearGradient>
<linearGradient id="paint37_linear_35_104" x1="154.551" y1="65.5575" x2="276.07" y2="187.077" gradientUnits="userSpaceOnUse">
<stop stop-color="#A2722F"/>
<stop offset="0.278" stop-color="#775222"/>
<stop offset="0.627" stop-color="#F2B35D"/>
<stop offset="1" stop-color="#775222"/>
</linearGradient>
<linearGradient id="paint38_linear_35_104" x1="178.732" y1="-99.3246" x2="253.557" y2="-24.4997" gradientUnits="userSpaceOnUse">
<stop stop-color="#A2722F"/>
<stop offset="0.278" stop-color="#775222"/>
<stop offset="0.627" stop-color="#F2B35D"/>
<stop offset="1" stop-color="#775222"/>
</linearGradient>
<linearGradient id="paint39_linear_35_104" x1="145.268" y1="-9.49438" x2="164.528" y2="9.76634" gradientUnits="userSpaceOnUse">
<stop stop-color="#A2722F"/>
<stop offset="0.278" stop-color="#775222"/>
<stop offset="0.627" stop-color="#F2B35D"/>
<stop offset="1" stop-color="#775222"/>
</linearGradient>
<linearGradient id="paint40_linear_35_104" x1="60.6724" y1="82.1745" x2="195.198" y2="216.701" gradientUnits="userSpaceOnUse">
<stop stop-color="#A2722F"/>
<stop offset="0.278" stop-color="#775222"/>
<stop offset="0.627" stop-color="#F2B35D"/>
<stop offset="1" stop-color="#775222"/>
</linearGradient>
<linearGradient id="paint41_linear_35_104" x1="15.662" y1="-11.4623" x2="45.8575" y2="18.7332" gradientUnits="userSpaceOnUse">
<stop stop-color="#A2722F"/>
<stop offset="0.278" stop-color="#775222"/>
<stop offset="0.627" stop-color="#F2B35D"/>
<stop offset="1" stop-color="#775222"/>
</linearGradient>
<linearGradient id="paint42_linear_35_104" x1="87.9994" y1="212.204" x2="106.782" y2="230.987" gradientUnits="userSpaceOnUse">
<stop stop-color="#A2722F"/>
<stop offset="0.278" stop-color="#775222"/>
<stop offset="0.627" stop-color="#F2B35D"/>
<stop offset="1" stop-color="#775222"/>
</linearGradient>
<linearGradient id="paint43_linear_35_104" x1="248.501" y1="-145.611" x2="451.873" y2="57.7607" gradientUnits="userSpaceOnUse">
<stop stop-color="#A2722F"/>
<stop offset="0.278" stop-color="#775222"/>
<stop offset="0.627" stop-color="#F2B35D"/>
<stop offset="1" stop-color="#775222"/>
</linearGradient>
<linearGradient id="paint44_linear_35_104" x1="139.24" y1="73.8534" x2="238.865" y2="173.479" gradientUnits="userSpaceOnUse">
<stop stop-color="#A2722F"/>
<stop offset="0.278" stop-color="#775222"/>
<stop offset="0.627" stop-color="#F2B35D"/>
<stop offset="1" stop-color="#775222"/>
</linearGradient>
</defs>
</svg>
