<svg width="194" height="257" viewBox="0 0 194 257" fill="none" xmlns="http://www.w3.org/2000/svg">
<path d="M193.473 160.366C193.473 213.632 150.303 256.802 97.0362 256.802C43.7698 256.802 0.599976 213.632 0.599976 160.366C0.599976 107.1 43.7698 63.9297 97.0362 63.9297C150.303 63.9297 193.473 107.1 193.473 160.366Z" fill="#E6E7EF"/>
<mask id="mask0_26_16368" style="mask-type:luminance" maskUnits="userSpaceOnUse" x="0" y="63" width="194" height="194">
<path d="M193.458 160.371C193.458 213.623 150.289 256.793 97.0362 256.793C43.784 256.793 0.614136 213.623 0.614136 160.371C0.614136 107.118 43.784 63.9531 97.0362 63.9531C150.289 63.9531 193.458 107.118 193.458 160.371Z" fill="white"/>
</mask>
<g mask="url(#mask0_26_16368)">
<path d="M202.72 81.9062H-8.64734V94.6449H202.72V81.9062Z" fill="white"/>
<path d="M202.72 105.965H-8.64734V118.656H202.72V105.965Z" fill="white"/>
<path d="M202.72 129.98H-8.64734V142.719H202.72V129.98Z" fill="white"/>
<path d="M202.72 153.996H-8.64734V166.735H202.72V153.996Z" fill="white"/>
<path d="M202.72 178.059H-8.64734V190.75H202.72V178.059Z" fill="white"/>
<path d="M202.72 202.07H-8.64734V214.809H202.72V202.07Z" fill="white"/>
<path d="M202.72 226.09H-8.64734V238.828H202.72V226.09Z" fill="white"/>
</g>
<path d="M118.126 135.832C119.73 135.738 122.514 137.248 120.674 140.362C119.541 142.249 118.22 144.042 117.371 146.07C116.239 148.665 115.861 151.779 113.88 153.855C109.964 157.865 108.737 136.21 118.126 135.832Z" fill="#ABAECB"/>
<path d="M61.3208 59.6816C59.1034 48.8302 62.8778 36.9408 70.9456 29.392C69.2943 34.4874 67.643 39.8188 68.5866 45.103C69.483 50.3871 72.0779 52.4631 77.7867 54.539C74.3426 45.9522 75.9939 41.4701 78.8719 36.7049C83.5427 28.9202 83.6371 26.8914 84.1561 18.3518C84.5807 10.4255 90.95 2.87671 98.546 0.800781C96.187 3.72595 93.7336 7.12292 94.2526 10.803C94.4885 12.5015 95.3377 14.0584 96.0926 15.5682C97.9327 19.2954 100.103 24.2021 100.244 28.4484C100.339 31.3263 98.6875 34.1572 98.8763 37.0823C99.1122 40.9511 99.1593 43.2629 103.453 42.6496C110.388 41.6588 117.418 19.6728 110.105 17.1251C116.522 19.3898 120.013 26.7027 119.919 33.4966C119.871 40.3378 116.993 46.7543 114.163 52.9349C111.049 59.776 115.248 62.2765 119.919 58.738C125.91 54.1616 130.062 47.2261 131.242 39.7716C134.733 52.6046 130.77 67.1361 121.192 76.3834C101.896 95.0668 66.8881 87.282 61.3208 59.6816Z" fill="#ABAECB"/>
<path d="M74.9559 75.391C70.7097 70.2012 68.7753 63.1714 69.8604 56.5662C72.88 63.7847 80.476 68.833 88.3079 68.8802C69.1527 50.4327 91.3274 46.5168 92.1767 25.8047C94.347 29.815 93.5921 34.6274 93.1203 39.1567C91.9879 49.9609 96.5172 53.7825 99.2537 53.4523C101.613 53.1692 109.869 47.0358 112.511 36.9392C115.72 44.7711 110.718 53.4523 108.69 60.2934C105.387 71.5223 118.739 69.8238 123.032 60.6237C120.862 81.8547 87.9305 91.1492 74.9559 75.391Z" fill="#D5D7E5"/>
<path d="M138.555 78.2256C135.016 74.8758 130.298 76.2912 129.449 79.5938C129.874 72.2809 120.532 70.6767 116.522 78.4143C118.22 71.6203 104.444 70.8655 102.792 78.7917C101.849 71.526 90.9028 70.8183 87.9776 79.0276C85.2412 72.2337 75.0975 73.6491 74.2954 80.9149C72.9744 76.0081 63.5383 77.0933 64.3876 85.6801C62.406 83.3682 58.207 83.6513 56.5557 86.1519C63.2081 93.7479 58.49 102.382 58.0654 104.175C56.9803 108.893 60.6603 110.638 62.4532 109.364C78.0698 98.3243 132.469 106.345 135.016 102.806C137.611 99.1736 127.703 80.3015 138.555 78.2256Z" fill="#2C357D"/>
<path d="M131.808 96.9542C135.677 99.3604 137.753 104.456 134.026 108.042C130.629 111.297 123.74 111.722 119.352 112.005C117.229 112.146 57.4993 120.12 58.3485 108.796C58.6316 104.881 62.1229 101.484 65.4255 99.7379C74.72 94.7839 119.258 89.2167 131.808 96.9542Z" fill="#D5D7E5"/>
<path d="M117.182 117.195C66.0861 127.811 52.6869 110.873 68.8697 106.768C84.2032 102.9 139.829 97.4738 130.629 110.354C127.656 114.553 122.23 116.157 117.182 117.195Z" fill="#2C357D"/>
<path d="M89.1571 195.56C89.7705 194.428 90.2895 194.522 90.2895 192.54C90.2895 186.266 88.591 153.381 87.7417 143.662C86.232 127.385 84.9109 126.111 85.713 124.743C87.2699 122.006 100.622 121.534 103.83 121.44C119.494 121.157 112.04 119.647 112.04 191.597C112.04 194.9 113.408 194.239 113.88 195.607C114.163 196.504 113.361 197.4 112.559 197.872C110.388 199.146 107.746 199.193 105.198 199.193C92.7428 199.287 86.5622 200.325 89.1571 195.56Z" fill="#2C357D"/>
<path d="M112.417 127.244C106.095 128.424 99.7727 129.132 93.309 128.943C88.3079 128.754 82.7878 131.16 80.4288 124.885C79.4852 122.385 80.1929 120.781 82.1745 119.224C88.3551 114.506 100.009 114.742 109.114 115.166C123.41 115.921 119.305 125.97 112.417 127.244Z" fill="#D5D7E5"/>
<path d="M92.6013 130.121C95.9511 150.22 97.3193 170.696 96.6116 191.078" stroke="#A6BCCB" stroke-width="2" stroke-linecap="round" stroke-linejoin="round"/>
<path d="M102.273 130.309C103.783 150.219 99.6783 170.317 101.566 190.227" stroke="#A6BCCB" stroke-width="2" stroke-linecap="round" stroke-linejoin="round"/>
<path d="M109.162 129.934C107.416 149.891 106.803 169.99 107.322 190.041" stroke="#A6BCCB" stroke-width="2" stroke-linecap="round" stroke-linejoin="round"/>
<path d="M92.1295 198.109C114.87 192.542 117.56 201.129 112.889 202.969C111.143 203.629 91.9408 203.488 89.393 203.96C87.2227 204.337 86.9868 202.827 87.5058 201.318C88.3551 199.147 89.8648 198.676 92.1295 198.109Z" fill="#D5D7E5"/>
<path d="M95.3849 216.837C92.3654 214.525 92.8844 211.081 92.2238 208.958C91.2802 205.797 89.0628 206.599 88.6853 205.938C88.4022 205.372 88.9684 203.627 91.752 202.872C92.5069 202.683 111.237 200.182 114.54 202.211C115.625 202.919 115.436 203.957 114.54 204.665C113.596 205.419 111.756 205.514 111.756 211.27C111.756 217.498 107.935 217.875 100.716 217.781C98.7347 217.733 97.0834 218.158 95.3849 216.837Z" fill="#2C357D"/>
<path d="M97.5552 216.933C98.0742 216.65 108.171 215.942 108.69 216.319C109.209 216.697 108.878 219.811 107.416 220.66C106.095 221.509 100.669 221.651 98.2629 220.99C96.706 220.566 95.8096 217.923 97.5552 216.933Z" fill="#D5D7E5"/>
<path d="M94.7716 222.314C94.111 219.53 97.2721 219.766 98.5931 219.436C102.745 218.492 108.548 218.35 109.964 219.955C111.804 222.125 106.425 228.447 103.028 228.966C99.5839 229.485 95.149 224.012 94.7716 222.314Z" fill="#2C357D"/>
<path d="M92.0352 205.988C96.3757 204.526 100.999 203.865 105.576 203.913C107.463 203.96 109.539 204.196 110.86 205.517" stroke="#A6BCCB" stroke-width="2" stroke-linecap="round" stroke-linejoin="round"/>
<path d="M73.4933 93.6515C73.7292 91.953 72.1723 82.7057 69.5302 83.555C67.7845 84.1211 68.3979 90.0658 68.7281 92.0002C69.2471 95.0197 69.1056 95.2085 72.361 94.6895C73.0687 94.5951 73.3518 94.4536 73.4933 93.6515Z" fill="#D5D7E5"/>
<path d="M84.7693 91.0557C85.0524 89.3573 83.4483 80.0628 80.8534 80.9592C79.1077 81.5253 79.6739 87.47 80.0513 89.4044C80.5703 92.3768 80.4288 92.5655 83.6842 92.0937C84.3447 91.9993 84.675 91.8106 84.7693 91.0557Z" fill="#D5D7E5"/>
<path d="M99.9142 88.4141C100.48 86.7628 99.2065 77.2796 95.3849 77.7514C92.8372 78.0345 93.0731 84.0735 93.309 86.0079C93.7336 89.0746 93.5449 89.2633 98.2157 89.2633C99.2065 89.2633 99.6311 89.1218 99.9142 88.4141Z" fill="#D5D7E5"/>
<path d="M112.936 88.2254C113.408 86.5269 112.794 77.1381 110.105 77.7514C108.312 78.1288 108.265 84.1207 108.407 86.0551C108.595 89.0746 108.454 89.2634 111.756 89.1218C112.417 89.0746 112.747 88.9331 112.936 88.2254Z" fill="#D5D7E5"/>
<path d="M125.25 90.491C125.675 88.7925 125.108 79.4037 122.419 80.017C120.626 80.3945 120.579 86.3863 120.721 88.3207C120.909 91.3403 120.721 91.529 124.023 91.3874C124.731 91.3403 125.061 91.1987 125.25 90.491Z" fill="#D5D7E5"/>
<path d="M133.978 103.042C132.704 101.202 130.676 99.8807 128.694 98.9371C126.429 97.8992 124.023 97.2858 121.57 96.9556C118.881 96.6253 116.144 96.5781 113.408 96.5781C110.608 96.6096 107.809 96.6882 105.01 96.814C93.9696 97.4274 83.0238 99.0315 72.361 101.721C70.8198 102.098 69.3101 102.507 67.8317 102.947C66.5107 103.325 65.1896 103.655 63.963 104.269C61.8399 105.259 59.9526 107.335 60.6603 109.883C60.7075 110.072 60.9906 109.977 60.9434 109.789C60.566 107.288 62.8778 105.401 64.9066 104.599C67.2184 103.702 69.7189 103.183 72.1251 102.57C77.252 101.312 82.4261 100.274 87.6474 99.4561C92.8687 98.6698 98.1214 98.1193 103.406 97.8048C108.595 97.5217 113.88 97.2858 119.069 97.6633C121.806 97.852 124.589 98.3238 127.137 99.3618C128.317 99.7864 129.449 100.4 130.487 101.107C131.525 101.815 132.421 102.664 133.365 103.561C133.648 103.844 134.214 103.466 133.978 103.042Z" fill="#2C357D"/>
<path d="M112.417 199.288C108.737 197.212 94.5357 197.4 90.1008 201.552C88.7325 202.826 95.0547 197.731 112.04 200.184C112.559 200.278 112.983 199.571 112.417 199.288Z" fill="white"/>
<path d="M98.4517 218.113C97.6024 218.443 101.141 217.877 103.83 218.16C104.444 218.207 105.057 218.396 105.67 218.301C107.038 218.113 104.208 215.989 98.4517 218.113Z" fill="white"/>
<path d="M114.634 121.958C112.228 121.864 112.087 122.194 108.784 122.43C102.368 122.949 96.5173 122.241 90.9972 122.996C85.7602 123.704 83.873 125.308 84.8638 125.261C108.265 123.704 104.868 124.836 111.709 123.892C115.531 123.326 115.578 121.958 114.634 121.958Z" fill="white"/>
<path d="M78.3529 97.8995C69.1055 100.023 67.3599 101.202 68.0676 101.061C73.1159 100.211 76.7016 98.7959 86.6566 97.239C104.443 94.4554 112.653 96.1067 116.239 95.5405C121.664 94.6913 101.471 92.7097 78.3529 97.8995Z" fill="white"/>
<path d="M127.515 101.107C121.051 97.1914 102.981 100.164 88.3079 101.626C80.0986 102.476 69.7661 103.372 63.4911 107.807C62.5947 108.467 68.2563 105.637 74.9559 104.316C80.3817 103.278 113.738 100.069 120.249 100.683C122.608 100.871 124.873 101.532 127.184 101.862C127.656 101.909 127.939 101.39 127.515 101.107Z" fill="white"/>
<path d="M71.4646 89.0769C71.323 87.9446 71.323 86.0574 70.2379 86.1989C67.8317 86.5292 72.4553 97.7109 71.4646 89.0769Z" fill="white"/>
<path d="M82.316 86.1002C81.7971 80.014 78.8719 83.0807 81.514 89.2141C82.2217 90.8182 82.4576 87.8459 82.316 86.1002Z" fill="white"/>
<path d="M96.6588 79.8259C96.6116 79.4957 94.7716 77.4669 94.9603 83.4588C94.9603 84.4496 95.0546 85.1101 95.3377 86.1481C96.2813 89.8281 96.7531 80.3921 96.6588 79.8259Z" fill="white"/>
<path d="M111.473 80.0159C111.379 79.4026 109.869 77.7984 109.775 82.7052C109.633 90.4899 112.04 84.5452 111.473 80.0159Z" fill="white"/>
<path d="M123.221 81.1479C120.768 78.6945 121.853 96.9532 123.41 85.0166C123.646 83.0351 123.929 81.8556 123.221 81.1479Z" fill="white"/>
<path d="M118.031 161.306C117.277 161.873 116.663 161.684 111.379 161.071C113.03 161.873 117.277 164.515 117.843 166.213C118.314 167.723 117.041 169.28 115.531 169.752C113.313 170.412 98.5932 167.251 94.9603 169.846C93.7808 170.648 90.6197 176.593 90.6197 182.679C90.6197 189.52 88.1664 189.473 88.3079 202.4C88.4495 213.299 88.4023 224.198 88.2607 235.049C88.072 245.901 88.072 252.223 87.6946 256.327C73.3518 254.959 59.9055 250.43 48.1104 243.447C52.9228 224.056 61.8398 205.467 66.2748 185.84C67.7845 179.046 68.7282 172.252 70.7097 159.419C71.559 154.135 70.9928 154.229 71.04 151.54C71.1343 149.747 72.6441 148.426 72.4082 146.633C69.7661 128.233 65.8502 125.119 89.4402 111.626C96.9891 107.332 101.282 114.928 84.7694 126.299C82.3632 127.95 82.835 127.903 83.7786 135.735C86.3264 133.989 89.6761 134.036 92.79 134.178C105.812 134.697 107.888 134.603 110.624 135.546C114.021 136.678 116.805 139.934 115.672 142.576C114.682 144.793 111.615 144.841 105.482 145.784C112.511 149.795 114.729 150.88 116.522 152.956C118.692 155.503 119.636 160.174 118.031 161.306Z" fill="#ABAECB"/>
<path d="M111.709 160.883C101.801 156.59 101.754 157.392 85.713 158.713" stroke="#2C357D" stroke-width="2" stroke-linecap="round" stroke-linejoin="round"/>
<path d="M105.246 146.491C96.7059 143.613 86.9396 144.745 79.2493 149.463" stroke="#2C357D" stroke-width="2" stroke-linecap="round" stroke-linejoin="round"/>
<path d="M83.354 136.02C80.7748 138.504 78.1956 140.973 75.6165 143.427" stroke="#2C357D" stroke-width="2" stroke-linecap="round" stroke-linejoin="round"/>
<path d="M100.197 164.422C99.8671 163.242 99.8671 161.969 100.292 160.789" stroke="#2C357D" stroke-width="2" stroke-linecap="round" stroke-linejoin="round"/>
<path d="M99.4424 152.106C99.348 150.69 99.4424 149.275 99.6783 147.859" stroke="#2C357D" stroke-width="2" stroke-linecap="round" stroke-linejoin="round"/>
<path d="M89.7233 139.841C89.4088 139.37 89.0785 138.882 88.7325 138.379" stroke="#2C357D" stroke-width="2" stroke-linecap="round" stroke-linejoin="round"/>
<path d="M73.2574 126.68C73.5405 127.576 74.4841 128.189 75.4277 128.095" stroke="#2C357D" stroke-width="2" stroke-linecap="round" stroke-linejoin="round"/>
<path d="M74.8144 187.684C77.2678 190.184 81.1837 191.081 84.4863 189.995" stroke="#2C357D" stroke-width="2" stroke-linecap="round" stroke-linejoin="round"/>
<path d="M82.8822 126.441C84.392 125.025 86.3735 124.176 88.1192 123.044C91.5162 120.968 94.3942 117.948 96.3286 114.457" stroke="#2C357D" stroke-width="2" stroke-linecap="round" stroke-linejoin="round"/>
<path d="M113.266 144.463C115.295 144.039 116.097 141.113 115.153 139.273" stroke="#2C357D" stroke-width="2" stroke-linecap="round" stroke-linejoin="round"/>
<path d="M91.4218 112.383C90.148 112.713 71.1343 125.971 76.4185 124.037C81.514 122.149 95.385 111.251 91.4218 112.383Z" fill="#D5D7E5"/>
<path d="M111.285 138.614C108.36 136.255 87.6002 136.349 96.4229 138C97.1306 138.142 113.88 140.737 111.285 138.614Z" fill="#D5D7E5"/>
<path d="M93.7336 148.143C90.1008 147.105 75.1918 153.993 88.6853 150.549C89.5818 150.313 96.3285 148.851 93.7336 148.143Z" fill="#D5D7E5"/>
<path d="M115.012 154.891C113.927 152.579 97.5081 146.54 109.775 153.428C111.473 154.419 115.861 156.683 115.012 154.891Z" fill="#D5D7E5"/>
<path d="M87.27 162.065C85.2412 162.678 85.8546 163.527 87.7418 163.339C88.9213 163.244 92.8844 162.82 93.828 162.112C96.0455 160.508 90.0536 161.216 87.27 162.065Z" fill="#D5D7E5"/>
<path d="M111.049 164.467C109.728 163.618 105.859 163.571 105.151 163.477C104.868 163.477 104.821 163.948 105.104 163.996C105.576 164.137 106.048 164.279 106.519 164.42C111.049 165.741 111.804 164.892 111.049 164.467Z" fill="#D5D7E5"/>
<path d="M83.1181 186.501C79.3437 184.095 70.8512 184.897 71.9835 173.243C73.3046 159.373 74.9559 148.615 71.8892 164.845C69.7189 176.074 67.5486 182.585 78.6831 186.595C83.9201 188.483 83.7786 186.879 83.1181 186.501Z" fill="#D5D7E5"/>
<path d="M69.2 188.106C66.8881 192.258 54.0079 237.787 54.0079 240.476C54.0551 248.214 72.2667 182.492 69.2 188.106Z" fill="#D5D7E5"/>
</svg>
