<svg width="257" height="138" viewBox="0 0 257 138" fill="none" xmlns="http://www.w3.org/2000/svg">
<path d="M61.7025 24.1851C53.2801 29.4791 45.7 36.5379 36.275 40.0271C27.0505 43.4362 14.9784 40.4282 11.4891 29.9604C7.35816 43.7169 19.9917 60.7622 30.3793 64.4921C45.4193 69.9065 65.633 53.3425 77.9457 67.6605C82.5178 72.9546 81.6756 80.2941 74.8575 81.377C63.1865 83.2219 53.0796 65.936 36.676 76.6845C31.021 80.3743 26.9703 87.4331 26.7697 94.933C30.4194 88.4758 38.5209 88.3154 45.0583 89.5988C58.1731 92.2057 68.8014 105.802 82.3975 104.559C87.09 104.117 91.5819 101.831 96.2743 102.032C107.264 102.553 111.234 120.441 90.5391 118.275C79.4296 117.112 69.0019 123.85 67.5581 137.927C82.7183 123.449 87.0499 127.901 97.9989 132.633C135.499 148.796 169.108 97.7003 153.065 45.1207C145.485 20.2546 100.566 -0.239822 61.7025 24.1851Z" fill="#D5D7E5"/>
<path d="M67.2372 113.22C52.839 111.455 48.9888 134.076 30.7002 120.199C45.2589 123.447 51.3952 97.6989 67.2372 113.22Z" fill="#D5D7E5"/>
<path d="M28.7751 76.7219C20.9944 69.0214 8.64163 89.4758 0.5 68.7407C7.59886 75.5588 21.7164 59.5563 28.7751 76.7219Z" fill="#D5D7E5"/>
<path d="M98.8412 127.458C101.328 123.929 106.141 125.012 109.83 123.488C119.777 119.237 118.213 98.2208 100.887 96.1754C94.3493 95.4133 82.5178 98.7823 77.7853 89.9589C94.2289 91.6834 99.4829 72.4323 89.8172 62.3655C81.1542 53.3416 60.0983 56.9512 56.248 36.6974C77.7853 63.5286 108.547 35.8952 78.7478 27.513C165.097 -9.94654 170.672 143.14 98.8412 127.458Z" fill="#F7F7FA"/>
<path d="M107.464 69.2627C107.464 107.083 123.306 137.725 142.838 137.725C162.41 137.725 178.252 107.083 178.252 69.2627C178.252 31.4422 162.41 0.800781 142.838 0.800781C123.306 0.800781 107.464 31.4422 107.464 69.2627Z" fill="#2C357D"/>
<path d="M111.475 69.2627C111.475 107.083 127.317 137.725 146.849 137.725C166.421 137.725 182.263 107.083 182.263 69.2627C182.263 31.4422 166.421 0.800781 146.849 0.800781C127.317 0.800781 111.475 31.4422 111.475 69.2627Z" fill="#ABAECB"/>
<path d="M178.613 69.2627C178.613 31.4422 162.41 0.800781 146.849 0.800781C166.421 0.800781 182.263 31.4422 182.263 69.2627C182.263 107.083 166.421 137.725 146.849 137.725C162.41 137.725 178.613 107.083 178.613 69.2627Z" fill="#2C357D"/>
<path d="M118.734 69.2632C118.734 99.8645 131.047 124.69 146.247 124.69C151.782 124.69 156.956 121.402 161.247 115.707C164.937 110.894 167.985 104.356 170.151 96.6559C171.715 91.1613 172.798 85.0651 173.359 78.608C173.627 75.5599 173.76 72.445 173.76 69.2632C173.76 66.0547 173.64 62.9263 173.359 59.8783C172.798 53.4612 171.715 47.365 170.151 41.8704C167.985 34.17 164.937 27.6326 161.247 22.8198C156.956 17.1247 151.782 13.8359 146.247 13.8359C131.047 13.8359 118.734 38.6619 118.734 69.2632Z" fill="white"/>
<path d="M166.461 69.2638C166.461 69.6649 166.501 70.6275 167.022 71.2291L173.359 78.6087C173.627 75.5606 173.76 72.4456 173.76 69.2638C173.76 66.0553 173.64 62.927 173.359 59.8789L167.022 67.2986C166.501 67.8601 166.461 68.8628 166.461 69.2638Z" fill="#2C357D"/>
<path d="M160.646 24.8256V49.0099C160.646 50.4136 161.247 51.296 161.768 51.296C161.956 51.296 162.143 51.189 162.33 50.9751L170.151 41.8709C167.985 34.1705 164.937 27.6331 161.247 22.8203C160.926 23.1412 160.646 23.8631 160.646 24.8256Z" fill="#2C357D"/>
<path d="M150.137 51.2955C150.699 51.2955 151.301 50.4131 151.301 49.0094V24.8251C151.301 23.4214 150.699 22.5391 150.178 22.5391C150.071 22.5391 149.964 22.5658 149.857 22.6193C145.766 24.8251 141.996 29.1967 138.988 35.2929C138.627 35.9747 138.627 36.817 138.667 37.2181C138.667 37.6191 138.787 38.3811 139.228 38.9025L149.576 50.9746C149.763 51.1885 149.95 51.2955 150.137 51.2955Z" fill="#2C357D"/>
<path d="M133.974 83.6197C134.162 83.6197 134.349 83.5261 134.536 83.3389L144.924 71.2267C145.445 70.6251 145.485 69.6626 145.485 69.2615C145.485 68.8605 145.445 67.8979 144.924 67.2963L134.536 55.1841C134.349 54.9702 134.162 54.8633 133.974 54.8633C133.533 54.8633 133.012 55.4248 132.852 56.5879C132.29 60.7188 132.009 64.9701 132.009 69.2615C132.009 73.5529 132.29 77.8042 132.852 81.9352C133.012 83.0983 133.533 83.6197 133.974 83.6197Z" fill="#2C357D"/>
<path d="M160.646 89.5165V113.701C160.646 114.663 160.926 115.385 161.247 115.706C164.937 110.893 167.985 104.356 170.151 96.6555L162.33 87.5513C162.17 87.3508 161.969 87.2305 161.768 87.2305C161.247 87.2305 160.646 88.1128 160.646 89.5165Z" fill="#2C357D"/>
<path d="M150.178 115.987C150.699 115.987 151.301 115.105 151.301 113.701V89.5165C151.301 88.1128 150.699 87.2305 150.137 87.2305C149.95 87.2305 149.763 87.3374 149.576 87.5513L139.228 99.6234C138.787 100.105 138.667 100.907 138.667 101.308C138.627 101.709 138.627 102.511 138.988 103.233C141.996 109.329 145.766 113.701 149.857 115.907C149.964 115.96 150.071 115.987 150.178 115.987Z" fill="#2C357D"/>
<path d="M151.14 69.2615C151.14 74.6358 153.306 79.0074 155.953 79.0074C158.64 79.0074 160.806 74.6358 160.806 69.2615C160.806 63.8872 158.64 59.5156 155.953 59.5156C153.306 59.5156 151.14 63.8872 151.14 69.2615Z" fill="#2C357D"/>
<path d="M146.849 137.725H221.126C240.658 137.725 256.5 107.083 256.5 69.2627C256.5 31.4422 240.658 0.800781 221.126 0.800781H146.849C166.421 0.800781 182.263 31.4422 182.263 69.2627C182.263 107.083 166.421 137.725 146.849 137.725Z" fill="#D5D7E5"/>
<mask id="mask0_26_16278" style="mask-type:luminance" maskUnits="userSpaceOnUse" x="146" y="0" width="111" height="138">
<path d="M146.861 137.712H221.114C240.642 137.712 256.5 107.071 256.5 69.2544C256.5 31.45 240.642 0.808594 221.114 0.808594H146.861C166.405 0.808594 182.243 31.45 182.243 69.2544C182.243 107.071 166.405 137.712 146.861 137.712Z" fill="white"/>
</mask>
<g mask="url(#mask0_26_16278)">
<path d="M190.124 139.29C205.003 139.29 222.289 107.085 222.289 69.2643C222.289 31.4438 203.078 -0.761719 192.209 -0.761719" stroke="#2C357D" stroke-width="4" stroke-linecap="round" stroke-linejoin="round"/>
<path d="M168.747 -1.20312C171.274 -1.20312 173.72 -0.68174 176.046 0.401137C188.439 2.16582 196.019 4.33159 196.821 4.57223C196.795 4.51875 196.755 4.47864 196.701 4.4519C194.495 2.48668 192.129 0.96263 189.642 0.0401801C182.183 -0.842164 176.969 -1.16302 169.709 -1.20312H168.747Z" fill="#2C357D"/>
<path d="M165.819 -1.20312C163.293 -1.16302 161.448 -0.842164 158.76 0.0401801C161.207 0.96263 163.573 2.48668 165.779 4.4519C165.833 4.47864 165.886 4.51875 165.94 4.57223C166.06 4.45191 169.389 2.12572 174.081 0.401137C171.755 -0.68174 169.268 -1.20312 166.782 -1.20312H165.819Z" fill="#2C357D"/>
<path d="M198.626 6.2948C200.391 8.09959 202.035 10.1851 203.559 12.5113C198.185 10.7466 193.011 9.10226 184.79 6.93651C183.961 6.02742 183.105 5.19855 182.223 4.4499C181.046 3.38039 179.83 2.47131 178.573 1.72266C194.977 4.4499 198.185 6.01405 198.626 6.2948Z" fill="#2C357D"/>
<path d="M176.608 1.72266C177.864 2.47131 179.081 3.38039 180.257 4.4499C181.14 5.19855 181.982 6.02742 182.784 6.93651C180.017 8.34024 177.29 9.74396 172.637 12.5113C171.113 10.1851 169.469 8.09959 167.744 6.2948C169.91 4.16915 170.151 3.92852 176.608 1.72266Z" fill="#2C357D"/>
<path d="M205.083 14.9975C206.567 17.5242 207.931 20.2916 209.174 23.2995C204 21.0135 199.067 18.8878 191.126 15.8798C189.682 13.313 188.118 10.9868 186.474 8.94141C198.746 12.551 205.083 14.9975 205.083 14.9975Z" fill="#2C357D"/>
<path d="M184.509 8.94141C186.153 10.9868 187.717 13.313 189.161 15.8798C186.073 17.8852 183.346 19.69 178.252 23.2995C177.009 20.2916 175.645 17.5242 174.201 14.9975C177.29 13.0724 180.177 11.2676 184.509 8.94141Z" fill="#2C357D"/>
<path d="M210.418 26.39C210.846 27.5665 211.26 28.7831 211.661 30.0397C212.169 31.6173 212.65 33.2349 213.105 34.8926C207.771 32.4461 204.001 30.7215 196.34 27.513C195.177 24.3045 193.934 21.3366 192.57 18.6094C204.241 23.3419 210.378 26.39 210.418 26.39Z" fill="#2C357D"/>
<path d="M190.605 18.6094C191.969 21.3366 193.212 24.3045 194.375 27.513C190.685 29.6788 188.119 31.2028 182.183 34.8926C181.728 33.2349 181.247 31.6173 180.739 30.0397C180.338 28.7831 179.923 27.5665 179.496 26.39C182.865 23.9435 185.993 21.6976 190.605 18.6094Z" fill="#2C357D"/>
<path d="M213.827 37.6593C214.495 40.3865 215.07 43.2207 215.551 46.1618C211.42 44.1565 207.169 42.071 199.549 38.5817C198.907 35.8277 198.185 33.1807 197.383 30.6406C201.634 32.3652 206.006 34.17 213.827 37.6593Z" fill="#2C357D"/>
<path d="M195.418 30.6406C196.22 33.1807 196.942 35.8277 197.584 38.5817C195.338 39.9052 191.166 42.3116 184.629 46.1618C184.148 43.2207 183.573 40.3865 182.905 37.6593C186.434 35.6539 189.723 33.7689 195.418 30.6406Z" fill="#2C357D"/>
<path d="M216.033 49.1702C216.46 52.1649 216.781 55.2263 216.995 58.3546C213.065 56.1889 209.014 53.983 201.674 50.213C201.273 47.1917 200.779 44.2639 200.19 41.4297C204.281 43.3949 208.533 45.3601 216.033 49.1702Z" fill="#2C357D"/>
<path d="M198.225 41.4297C198.813 44.2639 199.308 47.1917 199.709 50.213C195.164 52.9135 190.632 55.6274 186.113 58.3546C185.872 55.2263 185.538 52.1649 185.11 49.1702C189.843 46.3628 192.41 44.8387 198.225 41.4297Z" fill="#2C357D"/>
<path d="M217.236 61.5627C217.369 64.1028 217.436 66.6696 217.436 69.2632C217.436 69.9584 217.423 70.6535 217.396 71.3487C213.987 68.7418 213.987 68.7418 202.797 62.6857C202.664 59.4772 202.423 56.3489 202.075 53.3008C206.166 55.4665 210.057 57.5521 217.236 61.5627Z" fill="#2C357D"/>
<path d="M200.11 53.3008C200.458 56.3489 200.699 59.4772 200.832 62.6857C189.362 69.2231 189.362 69.2231 186.514 71.3487C186.514 70.6535 186.514 69.9584 186.514 69.2632C186.514 66.6696 186.447 64.1028 186.314 61.5627C194.295 56.7499 196.982 55.1457 200.11 53.3008Z" fill="#2C357D"/>
<path d="M217.316 74.7961C217.182 78.1116 216.955 81.3736 216.634 84.5821C212.008 81.6944 207.396 78.8068 202.797 75.9191C202.904 73.7266 202.958 71.5074 202.958 69.2614C202.958 68.1652 202.944 67.0689 202.918 65.9727C209.335 69.2213 209.335 69.2213 217.316 74.7961Z" fill="#2C357D"/>
<path d="M200.952 65.9727C200.979 67.0689 200.993 68.1652 200.993 69.2614C200.993 71.5074 200.939 73.7266 200.832 75.9191C194.816 79.4886 191.688 81.2533 185.712 84.5821C186.06 81.3736 186.287 78.1116 186.394 74.7961C195.097 68.9806 195.097 68.9806 200.952 65.9727Z" fill="#2C357D"/>
<path d="M216.233 87.7917C215.832 90.92 215.324 93.9547 214.709 96.8958C209.936 93.9681 206.968 92.2034 201.634 88.8745C202.062 85.7462 202.383 82.5511 202.597 79.2891C207.142 82.1233 211.688 84.9575 216.233 87.7917Z" fill="#2C357D"/>
<path d="M200.632 79.2891C200.418 82.5511 200.083 85.7462 199.629 88.8745C193.332 92.1633 190.043 93.8477 183.787 96.8958C184.402 93.9547 184.91 90.92 185.311 87.7917C191.568 84.4227 194.576 82.7783 200.632 79.2891Z" fill="#2C357D"/>
<path d="M214.067 99.8648C213.399 102.726 212.637 105.48 211.781 108.127C206.928 105.359 204.482 103.916 199.348 100.827C200.043 97.9931 200.645 95.052 201.153 92.0039C206.688 95.413 209.214 96.937 214.067 99.8648Z" fill="#2C357D"/>
<path d="M199.188 92.0039C198.68 95.052 198.078 97.9931 197.383 100.827C190.765 103.875 187.396 105.359 180.859 108.127C181.715 105.48 182.477 102.726 183.145 99.8648C189.602 96.8167 192.891 95.1723 199.188 92.0039Z" fill="#2C357D"/>
<path d="M210.899 110.774C209.99 113.314 209.014 115.733 207.971 118.033C203.279 115.586 200.953 114.343 196.1 111.656C197.035 109.116 197.878 106.469 198.626 103.715C203.76 106.723 206.166 108.127 210.899 110.774Z" fill="#2C357D"/>
<path d="M196.661 103.715C195.912 106.469 195.07 109.116 194.134 111.656C187.276 114.343 183.787 115.626 177.049 118.033C178.092 115.733 179.068 113.314 179.977 110.774C186.675 108.046 190.084 106.603 196.661 103.715Z" fill="#2C357D"/>
<path d="M206.648 120.721C205.164 123.569 203.559 126.135 201.835 128.421C200.19 127.419 196.741 125.293 191.648 121.684C192.129 120.801 192.597 119.879 193.051 118.916C193.8 117.392 194.495 115.815 195.137 114.184C199.388 117.633 200.712 118.635 200.712 118.635C201.394 119.036 202.396 119.357 206.648 120.721Z" fill="#2C357D"/>
<path d="M193.172 114.184C192.503 115.815 191.808 117.392 191.086 118.916C190.632 119.879 190.164 120.801 189.683 121.684C186.474 122.967 179.816 125.614 170.953 128.421C172.637 126.135 174.242 123.569 175.726 120.721C183.787 118.756 183.787 118.756 193.172 114.184Z" fill="#2C357D"/>
<path d="M200.07 130.666C198.974 131.922 197.851 133.059 196.701 134.075C195.819 134.877 194.91 135.585 193.974 136.2C191.287 134.997 188.84 133.754 184.99 131.348C186.795 129.342 188.479 127.056 190.084 124.449C191.888 125.652 195.618 128.139 200.07 130.666Z" fill="#2C357D"/>
<path d="M188.118 124.449C186.514 127.056 184.83 129.342 183.025 131.348C176.728 133.152 171.193 134.596 163.052 136.2C163.988 135.585 164.897 134.877 165.779 134.075C166.955 133.059 168.078 131.922 169.148 130.666C172.397 129.703 179.175 127.738 188.118 124.449Z" fill="#2C357D"/>
<path d="M191.487 137.685C189.041 138.928 186.434 139.65 183.787 139.731C181.541 139.65 179.415 139.289 176.167 138.086C178.292 137.124 180.298 135.8 182.223 134.076C182.517 133.835 182.811 133.568 183.105 133.273C185.512 134.757 188.199 136.322 191.487 137.685Z" fill="#2C357D"/>
<path d="M181.14 133.273C180.846 133.568 180.552 133.835 180.258 134.076C178.332 135.8 176.327 137.124 174.201 138.086C167.624 139.009 161.448 139.61 152.865 139.731C155.552 139.65 158.119 138.928 160.605 137.685C166.1 136.803 172.397 135.64 181.14 133.273Z" fill="#2C357D"/>
<path d="M207.811 -1.20312C210.338 -1.20312 212.784 -0.68174 215.15 0.401137C227.503 2.16582 235.083 4.33159 235.925 4.57223C235.872 4.51875 235.819 4.47864 235.765 4.4519C233.559 2.48668 231.193 0.96263 228.746 0.0401801C221.287 -0.842164 216.033 -1.16302 208.813 -1.20312H207.811Z" fill="#2C357D"/>
<path d="M204.883 -1.20312C202.356 -1.16302 200.511 -0.842164 197.824 0.0401801C200.311 0.96263 202.637 2.48668 204.883 4.4519C204.91 4.47864 204.95 4.51875 205.003 4.57223C205.164 4.45191 208.493 2.12572 213.185 0.401137C210.819 -0.68174 208.372 -1.20312 205.846 -1.20312H204.883Z" fill="#2C357D"/>
<path d="M237.73 6.2948C239.455 8.09959 241.099 10.1851 242.663 12.5113C237.249 10.7466 232.115 9.10226 223.853 6.93651C223.024 6.02742 222.182 5.19855 221.327 4.4499C220.123 3.38039 218.893 2.47131 217.637 1.72266C234.08 4.4499 237.249 6.01405 237.73 6.2948Z" fill="#2C357D"/>
<path d="M215.672 1.72266C216.928 2.47131 218.158 3.38039 219.361 4.4499C220.217 5.19855 221.059 6.02742 221.888 6.93651C219.081 8.34024 216.394 9.74396 211.741 12.5113C210.177 10.1851 208.533 8.09959 206.808 6.2948C209.014 4.16915 209.214 3.92852 215.672 1.72266Z" fill="#2C357D"/>
<path d="M244.187 14.9975C245.631 17.5242 246.995 20.2916 248.238 23.2995C243.064 21.0135 238.171 18.8878 230.23 15.8798C228.786 13.313 227.222 10.9868 225.578 8.94141C237.85 12.551 244.147 14.9975 244.187 14.9975Z" fill="#2C357D"/>
<path d="M223.613 8.94141C225.257 10.9868 226.821 13.313 228.265 15.8798C225.177 17.8852 222.409 19.69 217.356 23.2995C216.113 20.2916 214.749 17.5242 213.265 14.9975C216.353 13.0724 219.281 11.2676 223.613 8.94141Z" fill="#2C357D"/>
<path d="M249.481 26.39C249.909 27.5665 250.324 28.7831 250.725 30.0397C251.26 31.6173 251.741 33.2349 252.169 34.8926C246.875 32.4461 243.105 30.7215 235.404 27.513C234.281 24.3045 233.038 21.3366 231.634 18.6094C243.305 23.3419 249.481 26.39 249.481 26.39Z" fill="#2C357D"/>
<path d="M229.669 18.6094C231.032 21.3366 232.316 24.3045 233.439 27.513C229.749 29.6788 227.222 31.2028 221.287 34.8926C220.832 33.2349 220.351 31.6173 219.843 30.0397C219.442 28.7831 219.014 27.5665 218.559 26.39C221.928 23.9435 225.097 21.6976 229.669 18.6094Z" fill="#2C357D"/>
<path d="M252.89 37.6593C253.559 40.3865 254.134 43.2207 254.615 46.1618C250.524 44.1565 246.273 42.071 238.653 38.5817C238.011 35.8277 237.276 33.1807 236.447 30.6406C240.698 32.3652 245.11 34.17 252.89 37.6593Z" fill="#2C357D"/>
<path d="M234.482 30.6406C235.31 33.1807 236.046 35.8277 236.687 38.5817C234.441 39.9052 230.27 42.3116 223.733 46.1618C223.225 43.2207 222.637 40.3865 221.968 37.6593C225.498 35.6539 228.826 33.7689 234.482 30.6406Z" fill="#2C357D"/>
<path d="M255.096 49.1702C255.524 52.1649 255.858 55.2263 256.099 58.3546C252.168 56.1889 248.078 53.983 240.778 50.213C240.377 47.1917 239.883 44.2639 239.294 41.4297C243.385 43.3949 247.596 45.3601 255.096 49.1702Z" fill="#2C357D"/>
<path d="M237.289 41.4297C237.877 44.2639 238.385 47.1917 238.813 50.213C234.268 52.9135 229.722 55.6274 225.177 58.3546C224.936 55.2263 224.602 52.1649 224.174 49.1702C228.907 46.3628 231.514 44.8387 237.289 41.4297Z" fill="#2C357D"/>
<path d="M256.3 61.5627C256.433 64.1028 256.5 66.6696 256.5 69.2632C256.5 69.9584 256.5 70.6535 256.5 71.3487C253.051 68.7418 253.051 68.7418 241.901 62.6857C241.741 59.4772 241.487 56.3489 241.139 53.3008C245.27 55.4665 249.12 57.5521 256.3 61.5627Z" fill="#2C357D"/>
<path d="M239.174 53.3008C239.522 56.3489 239.762 59.4772 239.896 62.6857C228.425 69.2231 228.425 69.2231 225.578 71.3487C225.578 70.6535 225.578 69.9584 225.578 69.2632C225.578 66.6696 225.511 64.1028 225.377 61.5627C233.399 56.7499 236.046 55.1457 239.174 53.3008Z" fill="#2C357D"/>
<path d="M256.38 74.7961C256.273 78.1116 256.046 81.3736 255.698 84.5821C251.099 81.6944 246.487 78.8068 241.861 75.9191C241.968 73.7266 242.022 71.5074 242.022 69.2614C242.022 68.1652 242.008 67.0689 241.982 65.9727C248.399 69.2213 248.399 69.2213 256.38 74.7961Z" fill="#2C357D"/>
<path d="M240.016 65.9727C240.043 67.0689 240.056 68.1652 240.056 69.2614C240.056 71.5074 240.003 73.7266 239.896 75.9191C233.88 79.4886 230.752 81.2533 224.776 84.5821C225.123 81.3736 225.364 78.1116 225.498 74.7961C234.201 68.9806 234.201 68.9806 240.016 65.9727Z" fill="#2C357D"/>
<path d="M255.297 87.7917C254.896 90.92 254.388 93.9547 253.773 96.8958C249 93.9681 246.072 92.2034 240.698 88.8745C241.126 85.7462 241.46 82.5511 241.701 79.2891C246.219 82.1233 250.751 84.9575 255.297 87.7917Z" fill="#2C357D"/>
<path d="M239.735 79.2891C239.495 82.5511 239.161 85.7462 238.733 88.8745C232.396 92.1633 229.147 93.8477 222.891 96.8958C223.479 93.9547 223.987 90.92 224.415 87.7917C230.631 84.4227 233.639 82.7783 239.735 79.2891Z" fill="#2C357D"/>
<path d="M253.131 99.8648C252.463 102.726 251.701 105.48 250.845 108.127C246.032 105.359 243.586 103.916 238.412 100.827C239.107 97.9931 239.709 95.052 240.217 92.0039C245.751 95.413 248.278 96.937 253.131 99.8648Z" fill="#2C357D"/>
<path d="M238.251 92.0039C237.743 95.052 237.142 97.9931 236.447 100.827C229.869 103.875 226.46 105.359 219.963 108.127C220.792 105.48 221.54 102.726 222.209 99.8648C228.666 96.8167 231.955 95.1723 238.251 92.0039Z" fill="#2C357D"/>
<path d="M249.963 110.774C249.054 113.314 248.078 115.733 247.035 118.033C242.383 115.586 240.056 114.343 235.203 111.656C236.113 109.116 236.941 106.469 237.69 103.715C242.864 106.723 245.27 108.127 249.963 110.774Z" fill="#2C357D"/>
<path d="M235.725 103.715C234.976 106.469 234.147 109.116 233.238 111.656C226.38 114.343 222.851 115.626 216.113 118.033C217.182 115.733 218.172 113.314 219.081 110.774C225.738 108.046 229.188 106.603 235.725 103.715Z" fill="#2C357D"/>
<path d="M245.711 120.721C244.227 123.569 242.623 126.135 240.939 128.421C239.254 127.419 235.805 125.293 230.712 121.684C231.22 120.801 231.701 119.879 232.155 118.916C232.877 117.392 233.572 115.815 234.241 114.184C238.452 117.633 239.816 118.635 239.816 118.635C240.498 119.036 241.5 119.357 245.711 120.721Z" fill="#2C357D"/>
<path d="M232.236 114.184C231.594 115.815 230.912 117.392 230.19 118.916C229.709 119.879 229.228 120.801 228.746 121.684C225.538 122.967 218.88 125.614 210.017 128.421C211.741 126.135 213.345 123.569 214.789 120.721C222.851 118.756 222.851 118.756 232.236 114.184Z" fill="#2C357D"/>
<path d="M239.174 130.666C238.078 131.922 236.941 133.059 235.765 134.075C234.883 134.877 233.987 135.585 233.078 136.2C230.391 134.997 227.944 133.754 224.054 131.348C225.859 129.342 227.583 127.056 229.147 124.449C230.952 125.652 234.682 128.139 239.174 130.666Z" fill="#2C357D"/>
<path d="M227.182 124.449C225.618 127.056 223.894 129.342 222.089 131.348C215.792 133.152 210.297 134.596 202.156 136.2C203.092 135.585 204.001 134.877 204.883 134.075C206.033 133.059 207.156 131.922 208.252 130.666C211.501 129.703 218.238 127.738 227.182 124.449Z" fill="#2C357D"/>
<path d="M230.591 137.685C228.105 138.928 225.538 139.65 222.851 139.731C220.645 139.65 218.479 139.289 215.23 138.086C217.356 137.124 219.402 135.8 221.327 134.076C221.621 133.835 221.915 133.568 222.209 133.273C224.575 134.757 227.262 136.322 230.591 137.685Z" fill="#2C357D"/>
<path d="M220.244 133.273C219.95 133.568 219.655 133.835 219.361 134.076C217.436 135.8 215.391 137.124 213.265 138.086C206.688 139.009 200.551 139.61 191.969 139.731C194.616 139.65 197.222 138.928 199.669 137.685C205.204 136.803 211.5 135.64 220.244 133.273Z" fill="#2C357D"/>
</g>
</svg>
