<svg width="228" height="257" viewBox="0 0 228 257" fill="none" xmlns="http://www.w3.org/2000/svg">
<path d="M157.704 159.909C148.373 170.936 134.631 177.383 120.042 177.383C92.8978 177.383 70.8435 155.329 70.8435 128.015C70.8435 100.871 92.8978 78.8171 120.042 78.8171C134.631 78.8171 148.373 85.2638 157.704 96.291C161.945 101.38 169.409 102.059 174.499 97.9875L227.09 56.9324L219.286 47.2625C194.857 17.2346 158.722 0.100098 120.042 0.100098C65.2451 0.100098 18.2524 34.7084 0.0999756 83.3976H1.28749C15.7076 83.3976 29.1099 76.4421 37.9316 64.9059C56.7626 40.3069 86.6208 24.3599 120.042 24.3599C147.185 24.3599 172.802 34.8781 191.973 53.5395C179.419 63.3791 162.454 65.9238 147.694 59.8165C139.042 56.4235 129.712 54.5574 120.042 54.5574C79.4956 54.5574 46.4141 87.4692 46.4141 128.015C46.4141 168.731 79.4956 201.643 120.042 201.643C129.712 201.643 139.042 199.777 147.694 196.384C162.454 190.276 179.419 192.821 191.973 202.661C172.802 221.322 147.185 231.84 120.042 231.84C86.6208 231.84 56.7626 215.893 37.9316 191.294C29.1099 179.758 15.7076 172.803 1.28749 172.803H0.0999756C18.2524 221.492 65.2451 256.1 120.042 256.1C158.722 256.1 194.857 238.966 219.286 208.938L227.09 199.268L174.499 158.213C169.409 154.141 161.945 154.82 157.704 159.909Z" fill="url(#paint0_linear_1_668)"/>
<path d="M121.738 142.436C120.607 142.549 119.42 142.549 118.176 142.436C111.559 141.588 106.47 136.159 105.621 129.712C104.773 121.06 111.559 113.596 120.042 113.596C120.72 113.596 121.399 113.652 122.077 113.765C128.694 114.783 135.31 112.747 140.399 108.676L146.168 103.926C139.382 96.8004 129.881 92.2199 119.024 92.5592C100.702 93.0681 85.6029 107.828 84.585 126.15C83.5672 146.677 99.8534 163.642 120.042 163.642C130.39 163.642 139.721 159.231 146.168 152.106L139.891 147.186C134.801 143.114 128.354 141.757 121.738 142.436Z" fill="url(#paint1_linear_1_668)"/>
<defs>
<linearGradient id="paint0_linear_1_668" x1="0.138995" y1="0.0950012" x2="227.116" y2="0.0950012" gradientUnits="userSpaceOnUse">
<stop stop-color="#2B75E0"/>
<stop offset="1" stop-color="#6BF9C6"/>
</linearGradient>
<linearGradient id="paint1_linear_1_668" x1="84.5257" y1="92.5541" x2="146.142" y2="92.5541" gradientUnits="userSpaceOnUse">
<stop stop-color="#2B75E0"/>
<stop offset="1" stop-color="#6BF9C6"/>
</linearGradient>
</defs>
</svg>
