<svg width="253" height="257" viewBox="0 0 253 257" fill="none" xmlns="http://www.w3.org/2000/svg">
<path d="M171.291 101.949C168.168 84.6798 154.793 70.2566 136.533 66.6728C80.5009 55.6754 10.978 141.157 0.469727 192.954C9.77328 183.139 19.8288 175.8 30.2201 170.283C49.4 122.588 90.8709 70.8278 132.726 72.8286C150.862 73.6961 165.823 85.7205 171.291 101.949Z" fill="black"/>
<path d="M178.561 40.5472C176.402 32.4909 177.95 27.4533 181.183 24.3495C194.64 26.4354 230.312 32.9755 252.817 46.4493C252.817 46.4493 238.801 29.3401 197.961 19.6765C197.961 -5.52238 159.647 -5.52238 159.647 19.6765C159.647 43.4747 194.266 88.6814 171.291 101.947C165.056 85.9985 149.536 74.7017 131.38 74.7017C75.6609 74.7017 25.1553 169.618 24.8271 221.19C55.29 173.117 107.768 166.479 140.725 157.648C224.932 135.087 195.019 101.974 178.561 40.5472Z" fill="black"/>
<path d="M115.884 202.853C114.877 218.425 114.45 236.705 115.377 256.777H122.54C122.327 244.069 123.04 227.264 126.516 209.241C126.962 206.928 127.454 204.594 127.995 202.247C131.53 186.911 137.174 170.979 146.008 156.156C144.298 156.665 142.537 157.162 140.725 157.648C134.503 159.316 127.587 160.904 120.253 162.709C119.009 170.579 117.542 181.6 116.452 195.051C116.249 197.568 116.057 200.17 115.884 202.853Z" fill="black"/>
<path d="M95.6064 184.102C95.6064 172.68 110.034 165.328 110.034 165.328C101.308 167.677 92.2049 170.48 83.1414 174.17C81.2059 180.64 83.8478 188.057 96.2368 193.295C135.181 209.758 152.603 230.746 152.603 230.746L156.888 247.763L159.505 235.983L173.309 251.57C160.219 212.779 95.6064 184.102 95.6064 184.102Z" fill="black"/>
</svg>
