<svg width="2222" height="3250" viewBox="0 0 2222 3250" fill="none" xmlns="http://www.w3.org/2000/svg">
<mask id="mask0_26_16256" style="mask-type:luminance" maskUnits="userSpaceOnUse" x="0" y="0" width="2222" height="2587">
<path d="M1023.4 2400.56C972.49 2429.83 920.19 2432.49 874.92 2424.52C893.33 2495.63 961.08 2561.79 1070.82 2566.29C1070.82 2566.29 841.42 2657.6 744.53 2449.06C718.12 2392.23 723.23 2315.9 741.87 2229.49C664.52 2217.41 604.13 2156.86 580.8 2044.86C544.81 1872.1 264.07 2019.67 109.31 1886.5C-45.45 1753.33 30.13 1566.18 30.13 1566.18C76.92 1713.74 220.89 1796.52 336.06 1720.94C451.23 1645.36 400.84 1404.21 253.28 1447.4C105.72 1490.6 166.9 1620.17 166.9 1620.17C66.12 1540.98 69.7199 1368.23 195.69 1307.04C321.66 1245.85 235.28 1033.5 141.7 1022.7C48.13 1011.9 30.13 1116.28 30.13 1116.28C-38.26 986.721 15.7299 875.141 141.7 839.151C267.67 803.161 235.28 544.011 148.9 554.811C62.52 565.611 44.53 608.801 44.53 608.801C22.93 421.651 206.49 342.461 314.46 414.451C422.43 486.431 541.21 410.851 559.2 259.681C577.2 108.521 465.63 97.7208 465.63 97.7208C595.19 50.9408 699.57 90.5208 681.57 252.481C663.58 414.451 974.49 453.881 929.91 281.281C885.35 108.671 987.5 0.550781 987.5 0.550781C937.11 151.711 1052.28 227.291 1221.45 349.661C1252.24 371.941 1275.64 398.751 1293.32 427.721C1396.75 379.731 1457.95 325.151 1451.31 214.591C1451.31 214.591 1522 345.471 1434.28 500.661C1346.55 655.851 1657.07 698.221 1681.61 537.121C1706.14 376.021 1817.21 364.801 1930.25 443.521C1930.25 443.521 1819.69 425.081 1797.95 575.751C1776.21 726.421 1871.37 830.171 1994.29 788.591C2117.22 747.001 2274.03 870.991 2204.73 1046.18C2204.73 1046.18 2198.53 999.811 2117.88 967.021C2037.24 934.231 1938.88 1176.16 2051.25 1243.53C2163.61 1310.89 2186.87 1432.64 2087.29 1540.09C2087.29 1540.09 2096.91 1434.62 2003.73 1420.83C1910.55 1407.04 1772.15 1589.8 1877.99 1681.5C1983.84 1773.21 1942.6 1941.01 1824.77 1991.41C1824.77 1991.41 1917.4 1882.09 1786.04 1802.18C1654.68 1722.27 1543.6 1942.15 1635.29 2044.97C1726.97 2147.79 1887.46 2105.09 1970.85 1974.66C1970.85 1974.66 1995.41 2175 1811.46 2263.57C1627.5 2352.15 1394.52 2136.95 1315.05 2294.51C1244.19 2434.98 1130.8 2463.36 1023.4 2400.56Z" fill="white"/>
</mask>
<g mask="url(#mask0_26_16256)">
<path d="M-45.3999 2657.6H2274V0.5H-45.3999V2657.6Z" fill="url(#paint0_linear_26_16256)"/>
</g>
<path d="M595.5 453.699C595.5 453.699 951.8 508.499 759.9 1906.4L979.2 2098.3L787.4 2016L951.8 2235.3H842.2L1061.4 2345C1061.4 2345 1088.9 2865.7 979.2 3249.5C979.2 3249.5 1171.1 2756.1 1143.7 2153.1C1116.3 1550.1 979.2 919.699 869.6 645.599C869.6 645.599 1225.9 1166.4 1198.5 2345L1417.8 2180.5L1335.5 2153.1C1335.5 2153.1 1445.2 1988.6 1500 1769.4C1500 1769.4 1390.4 1879 1308.1 1906.4C1308.1 1906.4 1445.2 1741.9 1527.4 1550.1C1527.4 1550.1 1500 1139 1280.7 809.999C1061.4 481.099 705.1 453.699 595.5 453.699Z" fill="black"/>
<path opacity="0.3" d="M595.5 453.699C595.5 453.699 992.9 797.299 522.7 1969.7C551.8 1982.9 572.6 2005.6 580.8 2044.9C604.1 2156.9 664.5 2217.4 741.9 2229.5C723.2 2315.9 718.1 2392.2 744.5 2449.1C831.4 2636 1024.7 2582 1063.8 2568.8C1063.8 2567.87 1063.83 2566.9 1063.9 2565.9C958.2 2559 892.9 2494.1 874.9 2424.5C920.2 2432.5 972.5 2429.8 1023.4 2400.6C1036.8 2408.4 1050.3 2414.8 1063.8 2419.8C1062.9 2372.6 1061.4 2345 1061.4 2345L842.2 2235.3H951.8L787.4 2016L979.2 2098.3L759.9 1906.4C951.8 508.499 595.5 453.699 595.5 453.699Z" fill="#870000"/>
<path opacity="0.3" d="M1500 1769.4C1445.2 1988.6 1335.5 2153.1 1335.5 2153.1L1417.8 2180.5L1198.5 2345C1225.9 1166.4 869.6 645.6 869.6 645.6C979.2 919.7 1116.3 1550.1 1143.7 2153.1C1148 2249.3 1146.8 2342.7 1141.7 2431.8C1208.3 2427.4 1270.2 2383.4 1315 2294.5C1353.1 2219.1 1426.2 2229.1 1512.4 2250.3C1521.7 2169.6 1547.5 1982.1 1616.6 1608.2C1597.5 1110 1214.5 398.3 621.3 454.2C753.3 458.9 1076.5 503.6 1280.7 810C1500 1139 1527.4 1550.1 1527.4 1550.1C1445.2 1741.9 1308.1 1906.4 1308.1 1906.4C1390.4 1879 1500 1769.4 1500 1769.4Z" fill="#A70C00"/>
<defs>
<linearGradient id="paint0_linear_26_16256" x1="-1207.58" y1="421.141" x2="2339.02" y2="-1443.48" gradientUnits="userSpaceOnUse">
<stop stop-color="#FF0000"/>
<stop offset="1" stop-color="#FFFF00"/>
</linearGradient>
</defs>
</svg>
