<svg width="256" height="257" viewBox="0 0 256 257" fill="none" xmlns="http://www.w3.org/2000/svg">
<path d="M127.895 206.389C120.438 206.389 113.248 205.124 106.39 202.793V211.182C113.314 212.78 120.505 213.712 127.895 213.712C153.461 213.712 176.563 203.326 193.274 186.548V161.648C180.757 188.279 156.19 206.389 127.895 206.389Z" fill="url(#paint0_linear_35_92)"/>
<path d="M127.895 29.1602C76.9629 29.1602 35.6182 70.5049 35.6182 121.437C35.6182 155.192 53.7273 184.686 80.8244 200.797V187.082C64.2466 171.503 53.7273 147.868 53.7273 121.437C53.7273 74.4995 86.9495 36.4837 127.895 36.4837C156.19 36.4837 180.757 54.5928 193.274 81.2905V56.3238C176.563 39.5463 153.461 29.1602 127.895 29.1602Z" fill="url(#paint1_linear_35_92)"/>
<path d="M193.274 56.3243C180.358 43.5414 163.714 34.6866 145.937 31.1579C128.228 27.6293 109.453 29.4935 92.8084 36.4842C76.0308 43.3417 61.4503 55.259 51.3971 70.239C41.2773 85.2856 35.7513 103.328 35.6182 121.437C35.6847 116.91 35.8845 112.383 36.5502 107.855C37.216 103.395 38.1481 98.934 39.4131 94.6064C40.8112 90.2789 42.3425 86.0179 44.3398 81.8901C46.2706 77.7623 48.4677 73.8342 50.9976 70.0393C61.0508 54.8596 75.6979 42.809 92.5421 35.8849C109.32 28.8943 128.228 27.0967 146.07 30.7585C150.465 31.6906 154.925 32.889 159.186 34.4202C163.447 36.0181 167.575 37.8157 171.57 40.0128C175.564 42.2098 179.359 44.6066 183.021 47.3363C186.616 50.0882 190.034 53.0842 193.274 56.3243Z" fill="url(#paint2_linear_35_92)"/>
<path d="M193.274 186.617C188.014 192.476 181.823 197.536 174.965 201.464C168.041 205.392 160.651 208.122 153.128 210.452C149.333 211.651 145.538 212.583 141.61 213.248C139.679 213.515 137.682 213.848 135.751 213.981L132.755 214.247L129.826 214.38C125.831 214.513 121.903 214.247 117.975 213.848C114.047 213.315 110.119 212.649 106.324 211.584L105.991 211.517V211.185C106.057 208.388 106.19 205.592 106.324 202.796H106.457C106.59 205.592 106.723 208.388 106.79 211.185L106.523 210.785C110.318 211.584 114.18 212.183 118.108 212.516C121.969 212.916 125.897 213.115 129.759 212.982C137.549 212.849 145.405 211.917 152.995 209.986C154.859 209.52 156.723 208.854 158.587 208.255C160.451 207.589 162.249 206.79 164.046 206.058C167.597 204.371 171.037 202.507 174.366 200.466C175.209 199.977 176.03 199.467 176.829 198.934L179.359 197.336C180.891 196.205 182.555 195.206 184.086 193.941L186.417 192.21L188.747 190.346C190.278 189.147 191.676 187.749 193.207 186.551L193.274 186.617Z" fill="url(#paint3_linear_35_92)"/>
<path d="M127.895 206.389C120.438 206.389 113.248 205.124 106.39 202.793V204.857C113.248 206.855 120.438 207.986 127.895 207.986C154.792 207.986 178.627 193.739 193.274 171.968V161.648C180.757 188.28 156.19 206.389 127.895 206.389Z" fill="url(#paint4_linear_35_92)"/>
<path d="M127.895 34.8203C83.421 34.8203 47.3359 73.5685 47.3359 121.371C47.3359 150.333 60.5183 175.898 80.8245 191.611V187.083C64.2467 171.504 53.7274 147.869 53.7274 121.438C53.7274 74.5006 86.9496 36.4848 127.895 36.4848C156.19 36.4848 180.758 54.5939 193.274 81.2915V70.8388C178.627 49.0679 154.792 34.8203 127.895 34.8203Z" fill="url(#paint5_linear_35_92)"/>
<path d="M53.7271 121.435C53.7271 117.086 53.9712 112.736 54.4594 108.386C54.992 104.081 55.8131 99.8198 56.9228 95.6032C59.1864 87.1478 62.6484 79.0254 67.2423 71.5687C69.5725 67.8403 72.1691 64.3117 75.0319 60.9828C77.8947 57.7205 81.0239 54.6579 84.4194 51.8617C91.1437 46.2692 98.9333 41.8751 107.322 39.1454C111.45 37.7472 115.777 36.8151 120.172 36.2825C122.302 36.0828 124.499 35.883 126.696 35.883C127.828 35.8165 128.893 35.883 130.025 35.9496L133.287 36.0828C142.009 36.9483 150.664 39.3451 158.387 43.4063C166.11 47.5341 173.167 52.9935 179.026 59.4516C184.818 65.9762 189.612 73.3663 193.274 81.289C189.412 73.4329 184.486 66.1759 178.56 59.9176C172.635 53.5261 165.578 48.2665 157.921 44.3384C150.198 40.4769 141.809 38.0801 133.221 37.2812L129.958 37.148C128.893 37.148 127.828 37.0815 126.763 37.148C124.566 37.148 122.435 37.3478 120.305 37.5475C116.044 38.0801 111.783 39.0788 107.722 40.4103C99.5325 43.0069 91.876 47.3344 85.2183 52.7938C81.8228 55.5235 78.7602 58.5195 75.8974 61.7818C73.0568 65.0219 70.4602 68.4617 68.1078 72.1013C63.4474 79.4248 59.9853 87.4142 57.522 95.7364C56.3236 99.9086 55.4137 104.147 54.7923 108.453C54.1709 112.758 53.8158 117.086 53.7271 121.435Z" fill="url(#paint6_linear_35_92)"/>
<path d="M106.39 204.858C110.385 205.99 114.446 206.789 118.574 207.255C122.702 207.654 126.829 207.854 130.957 207.588C139.213 207.255 147.402 205.524 155.058 202.528C162.848 199.598 169.972 195.271 176.43 190.144C179.626 187.481 182.688 184.752 185.418 181.623C188.347 178.627 190.811 175.364 193.274 171.969C188.68 178.893 183.154 185.218 176.763 190.544C175.098 191.809 173.5 193.14 171.769 194.272C170.904 194.871 170.105 195.471 169.173 196.07L166.51 197.668C165.644 198.267 164.712 198.733 163.847 199.199L161.05 200.664L158.188 201.929C157.255 202.395 156.323 202.794 155.325 203.127C147.535 206.123 139.279 207.921 130.957 208.12C122.702 208.453 114.313 207.321 106.39 204.858Z" fill="url(#paint7_linear_35_92)"/>
<path d="M117.242 205.527C113.558 204.905 109.941 203.995 106.39 202.797V211.186C109.941 212.029 113.558 212.673 117.242 213.116V205.527Z" fill="url(#paint8_linear_35_92)"/>
<path d="M47.336 121.371C47.4692 128.095 48.2681 134.82 49.7328 141.344C51.2641 147.869 53.3946 154.194 56.2574 160.252C59.1203 166.311 62.6489 172.037 66.7101 177.296C70.8379 182.556 75.565 187.416 80.758 191.611C75.4318 187.616 70.5716 182.889 66.3107 177.629C62.1163 172.37 58.5876 166.644 55.6582 160.519C52.862 154.46 50.6649 148.002 49.2668 141.411C47.8686 134.82 47.2029 128.095 47.336 121.371Z" fill="url(#paint9_linear_35_92)"/>
<path d="M67.5088 170.77V191.209C71.6366 194.737 76.0973 198 80.8243 200.796V187.081C75.7644 182.354 71.3037 176.828 67.5088 170.77Z" fill="url(#paint10_linear_35_92)"/>
<path d="M35.6847 121.438C36.1507 129.36 37.2159 137.283 39.2799 144.873C39.7459 146.804 40.4117 148.668 40.8777 150.599C41.4103 152.529 42.1427 154.327 42.8085 156.258C43.4743 158.122 44.3398 159.919 45.1387 161.717C45.9376 163.515 47.0029 165.246 47.9349 166.977C48.867 168.708 50.0654 170.306 51.1307 171.97C52.2625 173.634 53.5275 175.166 54.6593 176.764C55.9243 178.295 57.1893 179.76 58.4542 181.291C59.7858 182.756 61.1839 184.154 62.5155 185.618C68.108 191.211 74.2997 196.138 81.0241 200.332L80.2917 200.798C80.3805 196.226 80.5358 191.655 80.7577 187.083H80.8909C81.0684 191.655 81.2016 196.226 81.2904 200.798L81.3569 201.73L80.4914 201.264C73.5673 197.269 67.1093 192.343 61.5834 186.55C60.2518 185.019 58.8537 183.621 57.5887 182.09C56.3237 180.492 55.0588 178.961 53.8604 177.363C52.7951 175.698 51.5967 174.034 50.5315 172.369C49.5328 170.638 48.4676 168.974 47.5355 167.176C46.6034 165.445 45.6047 163.714 44.7392 161.917C43.8737 160.119 43.0082 158.322 42.2093 156.457C41.4769 154.66 40.6114 152.796 39.9456 150.931C39.2799 149.001 38.6141 147.136 38.148 145.206C36.0841 137.483 35.152 129.427 35.5515 121.438H35.6847Z" fill="url(#paint11_linear_35_92)"/>
<path d="M180.491 221.303C164.779 229.558 146.869 234.219 127.895 234.219C64.9122 234.219 13.9137 183.154 13.9137 120.171C13.9137 57.2554 64.9122 6.19035 127.895 6.19035C190.877 6.19035 241.876 57.2554 241.876 120.171C241.876 154.925 226.363 186.017 201.862 206.922L212.115 224.166C238.746 200.73 255.591 166.443 255.591 128.161C255.591 57.6549 198.4 0.53125 127.895 0.53125C57.3889 0.53125 0.19873 57.6549 0.19873 128.161C0.19873 198.733 57.3889 255.857 127.895 255.857C150.331 255.857 171.436 250.064 189.745 239.878L180.491 221.303Z" fill="url(#paint12_linear_35_92)"/>
<path d="M180.491 221.305C164.779 229.56 146.869 234.221 127.895 234.221C64.9122 234.221 13.9137 183.156 13.9137 120.173C13.9137 57.2574 64.9122 6.1923 127.895 6.1923C190.877 6.1923 241.876 57.2574 241.876 120.173C241.876 154.927 226.363 186.019 201.862 206.924L206.523 214.714C231.822 192.743 247.801 160.32 247.801 124.168C247.801 57.9897 194.139 4.32812 127.895 4.32812C61.6499 4.32812 7.98828 57.9897 7.98828 124.168C7.98828 190.413 61.6499 244.074 127.895 244.074C148.467 244.074 167.841 238.948 184.752 229.76L180.491 221.305Z" fill="url(#paint13_linear_35_92)"/>
<path d="M7.98828 124.168C8.12144 134.488 9.453 144.807 12.1161 154.794C14.8458 164.714 18.6407 174.368 23.8338 183.222C33.9536 201.198 48.9335 216.311 66.5766 226.831C75.4314 232.09 84.8855 236.351 94.8055 239.148C99.7323 240.612 104.792 241.611 109.852 242.476C114.979 243.209 120.038 243.741 125.232 243.808C145.804 244.341 166.51 239.48 184.752 229.827C175.697 234.753 165.977 238.482 155.924 240.945C145.871 243.342 135.551 244.54 125.232 244.274C120.038 244.207 114.912 243.675 109.786 243.009C104.659 242.144 99.5991 241.145 94.6058 239.68C84.6857 236.884 75.1651 232.69 66.2437 227.43C48.5341 216.711 33.5541 201.531 23.4343 183.489C18.3078 174.501 14.4463 164.847 11.7832 154.86C9.25326 144.807 7.98828 134.488 7.98828 124.168Z" fill="url(#paint14_linear_35_92)"/>
<path d="M180.557 221.37C171.902 225.897 162.715 229.359 153.194 231.556C143.673 233.687 133.887 234.685 124.166 234.353C104.592 233.82 85.2848 228.028 68.5738 217.974C51.9294 207.721 37.815 193.274 28.3609 176.23L27.4289 174.632L26.6299 173.035L24.9655 169.772L23.4342 166.377C22.946 165.312 22.4799 164.202 22.0361 163.048L20.7045 159.652L19.5061 156.19C18.7072 153.86 18.108 151.463 17.4422 149.133C15.0454 139.679 13.9136 129.959 13.9136 120.172C13.9802 129.959 15.2451 139.679 17.7751 149.067C20.305 158.454 23.9002 167.575 28.7604 176.031C38.281 193.008 52.3289 207.255 68.9067 217.375C85.4846 227.495 104.726 233.287 124.166 233.887C133.887 234.286 143.607 233.354 153.127 231.223C162.648 229.16 171.836 225.831 180.557 221.37Z" fill="url(#paint15_linear_35_92)"/>
<path d="M241.875 120.172C242.009 128.428 241.21 136.683 239.479 144.739C237.814 152.795 235.151 160.585 231.756 168.108C228.227 175.564 223.966 182.688 218.973 189.213C213.979 195.738 208.187 201.73 201.862 206.923C208.054 201.53 213.647 195.471 218.573 188.88C223.433 182.355 227.694 175.298 231.09 167.841C234.552 160.385 237.215 152.595 239.013 144.606C240.81 136.617 241.742 128.428 241.875 120.172Z" fill="url(#paint16_linear_35_92)"/>
<path d="M206.523 214.714L211.183 210.319L215.578 205.726C216.976 204.061 218.44 202.53 219.838 200.865C221.103 199.201 222.502 197.537 223.767 195.806C228.826 188.948 233.154 181.558 236.683 173.835C240.278 166.045 243.008 157.923 244.872 149.601C245.271 147.537 245.737 145.406 246.07 143.342C246.336 141.212 246.669 139.081 246.936 136.951C247.135 134.887 247.335 132.756 247.535 130.626L247.801 124.168L247.668 130.626C247.601 132.756 247.402 134.887 247.268 137.017C247.069 139.148 246.736 141.278 246.47 143.409C246.137 145.473 245.671 147.603 245.271 149.734C243.474 158.056 240.81 166.245 237.282 174.101C233.687 181.891 229.293 189.281 224.099 196.072C222.834 197.803 221.436 199.467 220.105 201.132C218.707 202.73 217.242 204.327 215.844 205.925L211.317 210.453L206.523 214.714Z" fill="url(#paint17_linear_35_92)"/>
<path d="M154.992 230.958L164.779 250.466C173.501 247.803 181.89 244.274 189.746 239.88L180.491 221.305C172.502 225.499 163.98 228.761 154.992 230.958Z" fill="url(#paint18_linear_35_92)"/>
<path d="M230.025 204.794L219.838 187.617C214.579 194.741 208.587 201.199 201.862 206.925L212.115 224.168C218.706 218.309 224.765 211.851 230.025 204.794Z" fill="url(#paint19_linear_35_92)"/>
<path d="M201.862 206.922C202.861 208.253 203.793 209.651 204.725 211.049C205.657 212.447 206.523 213.846 207.388 215.31C208.32 216.708 209.119 218.173 209.918 219.638C210.784 221.036 211.583 222.501 212.382 224.032L211.916 223.899C225.497 212.048 236.616 197.268 244.073 180.823C251.596 164.378 255.524 146.269 255.59 128.16C255.657 146.269 251.796 164.378 244.339 180.956C236.949 197.468 225.897 212.381 212.315 224.365L212.049 224.565L211.916 224.298C210.983 222.9 210.051 221.502 209.186 220.037C208.32 218.639 207.388 217.241 206.589 215.776C205.79 214.312 204.925 212.914 204.126 211.382C203.327 209.918 202.595 208.453 201.862 206.922Z" fill="url(#paint20_linear_35_92)"/>
<path d="M0.198666 128.16C0.331821 150.331 6.3238 172.301 17.3091 191.409C28.2944 210.517 44.3396 226.695 63.3143 237.814C72.8349 243.339 83.0213 247.734 93.6071 250.73C104.193 253.726 115.178 255.323 126.23 255.457C137.215 255.656 148.267 254.458 158.986 251.795C169.705 249.132 180.025 245.071 189.679 239.744V239.944L180.957 222.234L189.878 239.811L189.945 239.944L189.812 240.011C170.637 251.063 148.334 256.455 126.23 256.189C104.06 255.989 81.8894 249.997 62.8482 238.612C43.7404 227.294 27.6952 210.983 16.7765 191.675C11.3171 182.088 6.98957 171.769 4.25989 161.05C1.46363 150.331 0.132088 139.212 0.198666 128.16Z" fill="url(#paint21_linear_35_92)"/>
<path d="M13.9137 120.174C13.7806 105.261 16.5768 90.2807 22.2359 76.4326C27.9616 62.5844 36.417 49.8681 46.9362 39.2822C57.5221 28.6298 70.2384 20.1079 84.02 14.3822C97.8682 8.58992 112.915 5.59392 127.895 5.52734C142.875 5.59392 157.921 8.58992 171.769 14.3822C185.618 20.1079 198.267 28.6298 208.853 39.2822C219.372 49.8681 227.828 62.5844 233.553 76.4326C239.213 90.2807 242.009 105.261 241.876 120.174C241.809 90.2807 229.359 60.8534 208.187 39.8814C197.668 29.4287 185.085 21.0399 171.303 15.3808C157.588 9.72174 142.742 6.8589 127.895 6.8589C113.048 6.8589 98.201 9.72174 84.486 15.3808C70.7045 21.0399 58.1213 29.4287 47.602 39.8814C26.4303 60.8534 13.9803 90.2807 13.9137 120.174Z" fill="url(#paint22_linear_35_92)"/>
<path d="M255.591 128.161C255.524 111.45 252.195 94.8061 245.737 79.3601C239.279 63.9806 229.825 49.8662 218.041 38.0819C206.19 26.2977 192.076 16.8436 176.63 10.4522C161.25 4.06073 144.539 0.864995 127.895 0.864995C111.25 0.864995 94.5393 4.06073 79.1598 10.4522C63.7138 16.8436 49.5994 26.2977 37.7485 38.0819C25.9643 49.8662 16.5102 63.9806 10.0522 79.3601C3.59418 94.8061 0.265308 111.45 0.19873 128.161C0.19873 111.45 3.39445 94.7395 9.78591 79.2935C16.1774 63.7809 25.6314 49.5998 37.4822 37.749C49.2665 25.8982 63.4475 16.3776 78.8935 9.98613C94.4061 3.5281 111.117 0.199219 127.895 0.199219C144.672 0.199219 161.383 3.5281 176.896 9.98613C192.342 16.3776 206.523 25.8982 218.307 37.749C230.158 49.5998 239.612 63.7809 246.003 79.2935C252.395 94.7395 255.591 111.45 255.591 128.161Z" fill="url(#paint23_linear_35_92)"/>
<path d="M245.205 99.1982C239.479 72.6338 224.366 48.2663 203.261 31.289C192.742 22.7005 180.758 15.9762 168.041 11.5155C155.258 6.98818 141.743 4.65796 128.161 4.65796C114.646 4.59139 101.131 6.85503 88.3478 11.3157C75.5649 15.7764 63.5143 22.4342 52.9951 30.8896C31.8234 47.8003 16.5771 72.0346 10.7183 98.599C13.5811 85.3501 18.7076 72.5006 25.8314 60.9827C32.9552 49.3982 42.0763 39.0786 52.6622 30.5567C63.248 22.0347 75.2986 15.3104 88.1481 10.7831C100.998 6.25584 114.579 3.99219 128.161 3.99219C141.81 3.99219 155.392 6.38898 168.174 10.9828C181.024 15.5101 193.008 22.301 203.594 30.8896C214.113 39.4781 223.168 49.8642 230.291 61.4487C237.349 73.0998 242.409 85.8827 245.205 99.1982Z" fill="url(#paint24_linear_35_92)"/>
<path fill-rule="evenodd" clip-rule="evenodd" d="M145.271 137.618L99.9986 137.751V233.223H87.2157V73.0372H80.8242V70.707H141.943C145.005 70.707 147.957 71.1065 150.797 71.9054C153.638 72.7044 156.301 73.8362 158.787 75.3009C161.272 76.7656 163.536 78.5188 165.578 80.5605C167.619 82.6022 169.373 84.8659 170.837 87.3514C172.302 89.8814 173.434 92.5667 174.233 95.4073C175.032 98.248 175.431 101.2 175.431 104.262C175.431 107.147 175.054 109.943 174.299 112.651C173.589 115.403 172.568 117.999 171.237 120.441C169.905 122.904 168.307 125.168 166.31 127.231C160.784 132.891 155.99 135.421 153.594 136.419L176.763 175.367C174.166 178.563 171.37 181.426 168.374 184.022L145.271 137.618ZM131.623 133.956C147.136 133.956 159.719 121.373 159.719 105.86V101.133C159.719 85.6204 147.136 73.0372 131.623 74.3688H100.065V133.956H131.623Z" fill="url(#paint25_linear_35_92)"/>
<path fill-rule="evenodd" clip-rule="evenodd" d="M145.272 137.616L99.9988 137.749V233.221H96.6699V72.5694H98.3344V72.5028H133.554C150.798 71.1047 164.779 84.4868 164.779 100.931V105.991C164.779 117.909 157.455 128.228 146.803 133.022L172.768 179.893C171.348 181.357 169.883 182.733 168.374 184.02L145.272 137.616ZM131.623 133.954C147.136 133.954 159.719 121.371 159.719 105.858V101.131C159.719 85.6186 147.136 73.0354 131.623 74.367H100.065V133.954H131.623Z" fill="url(#paint26_linear_35_92)"/>
<path d="M99.9989 97.8677L99.8657 92.0089C99.7992 90.0115 99.7992 88.0808 99.7992 86.15L99.666 74.3658V74.0995H99.9989C110.518 74.0329 121.037 74.0995 131.623 74.0995H131.557C135.618 73.7666 139.812 74.4324 143.541 75.9636C147.336 77.4949 150.664 80.0249 153.261 83.0875C155.924 86.2166 157.855 89.8784 158.854 93.8064C159.32 95.8038 159.652 97.8011 159.719 99.7984C159.786 101.862 159.719 103.86 159.719 105.857C159.652 103.86 159.719 101.862 159.586 99.7984C159.519 97.8011 159.186 95.8038 158.654 93.873C157.522 90.0115 155.591 86.4163 152.995 83.3538C150.398 80.3578 147.069 77.8944 143.341 76.4297C139.679 74.8984 135.618 74.2992 131.623 74.6321C121.037 74.6987 110.518 74.7652 99.9989 74.6987L100.265 74.3658L100.199 86.15C100.199 88.0808 100.199 90.0115 100.132 92.0089L99.9989 97.8677Z" fill="url(#paint27_linear_35_92)"/>
<path d="M99.9985 137.747L122.635 137.481L145.271 137.348H145.404L145.538 137.481C149.399 145.204 153.261 152.927 157.122 160.716L162.781 172.301C164.712 176.229 166.51 180.09 168.374 184.019C166.443 180.157 164.379 176.362 162.448 172.501L156.59 160.983C152.661 153.26 148.8 145.47 145.005 137.747L145.271 137.88H122.635L99.9985 137.747Z" fill="url(#paint28_linear_35_92)"/>
<path d="M153.594 136.419C156.656 134.954 159.453 132.957 162.049 130.76C164.646 128.496 167.176 126.166 169.04 123.37C170.971 120.573 172.502 117.511 173.567 114.315C174.699 111.053 175.298 107.657 175.431 104.262C175.564 107.657 175.098 111.119 174.1 114.448C173.101 117.777 171.503 120.906 169.572 123.769C167.575 126.632 165.045 128.962 162.382 131.159C159.719 133.29 156.789 135.154 153.594 136.419Z" fill="url(#paint29_linear_35_92)"/>
<path d="M174.233 95.4082C171.769 86.9528 165.977 79.6959 158.454 75.3683C154.725 73.2378 150.531 71.8397 146.203 71.2405C144.073 70.9742 141.943 71.0408 139.745 71.0408H133.154L106.989 70.9742L93.8734 70.9076L80.8242 70.7079L93.8734 70.5747L106.989 70.5081L133.154 70.375L139.745 70.4416C141.876 70.4416 144.14 70.4416 146.27 70.7079C150.664 71.3071 154.859 72.7718 158.654 74.9689C162.448 77.2325 165.844 80.1619 168.507 83.6239C171.17 87.1526 173.101 91.1472 174.233 95.4082Z" fill="url(#paint30_linear_35_92)"/>
<path d="M152.129 125.031C149 128.426 145.139 131.023 140.811 132.554C138.681 133.353 136.417 133.819 134.153 134.019C131.823 134.219 129.559 134.152 127.296 134.219L99.9989 134.285H99.666V133.952L99.7326 115.91C99.777 109.873 99.8657 103.859 99.9989 97.8672C100.132 103.859 100.221 109.873 100.265 115.91L100.332 133.952L99.9989 133.619L127.296 133.686C129.559 133.686 131.823 133.819 134.087 133.619C136.35 133.486 138.547 133.02 140.744 132.288C145.005 130.823 148.933 128.36 152.129 125.031Z" fill="url(#paint31_linear_35_92)"/>
<path d="M99.9986 233.221L87.2157 233.354H87.1491V233.221C87.0159 219.905 87.0159 206.523 86.9494 193.208L86.8828 153.128L87.016 113.115C87.016 99.7328 87.0825 86.4173 87.1491 73.0352L87.2157 73.1017L80.8242 73.0352H87.2157H87.2823C87.4154 86.4173 87.4154 99.7328 87.4154 113.115L87.5486 153.128L87.482 193.208C87.4154 206.523 87.4154 219.905 87.2823 233.221L87.2157 233.154L99.9986 233.221Z" fill="url(#paint32_linear_35_92)"/>
<path d="M164.779 105.992C164.712 101.597 164.712 97.2033 163.38 93.0089C162.116 88.8811 159.985 85.0196 156.989 81.8238C154.06 78.6947 150.398 76.1647 146.337 74.5669C142.342 72.969 137.881 72.3032 133.554 72.503C137.881 72.0369 142.409 72.5696 146.536 74.1008C150.664 75.6321 154.459 78.1621 157.455 81.4244C160.451 84.6201 162.715 88.6148 163.847 92.8757C164.113 93.941 164.446 95.0062 164.579 96.138L164.779 97.7359C164.845 98.3351 164.845 98.8677 164.845 99.4003C164.934 100.51 164.934 101.597 164.845 102.663L164.779 105.992Z" fill="url(#paint33_linear_35_92)"/>
<path d="M172.702 179.893C168.241 172.17 163.847 164.447 159.519 156.591C155.17 148.823 150.864 140.989 146.603 133.089L146.537 132.955L146.736 132.822C152.196 130.425 156.989 126.497 160.318 121.438C157.122 126.564 152.395 130.692 146.87 133.155L146.936 132.955C151.375 140.678 155.747 148.468 160.052 156.324C164.313 164.114 168.574 171.97 172.702 179.893Z" fill="url(#paint34_linear_35_92)"/>
<path d="M176.763 175.368L168.374 161.254L159.852 166.846L168.374 184.023C171.37 181.427 174.166 178.564 176.763 175.368Z" fill="url(#paint35_linear_35_92)"/>
<path d="M190.344 198.137C186.838 201.022 183.176 203.618 179.359 205.926L194.805 236.951C199.377 234.111 203.749 231.026 207.921 227.697L190.344 198.137Z" fill="url(#paint36_linear_35_92)"/>
<path d="M190.344 198.137C186.838 201.022 183.176 203.618 179.359 205.926L194.805 236.951C199.377 234.111 203.749 231.026 207.921 227.697L190.344 198.137Z" fill="url(#paint37_linear_35_92)"/>
<path d="M185.085 202.129C183.22 203.46 181.312 204.725 179.359 205.924L194.805 236.949C197.202 235.484 199.532 233.953 201.796 232.355L185.085 202.129Z" fill="url(#paint38_linear_35_92)"/>
<path d="M179.359 205.926C180.69 208.522 182.089 211.052 183.354 213.582L187.348 221.305C189.967 226.454 192.541 231.625 195.071 236.818L194.672 236.685C196.869 235.287 199.132 233.822 201.396 232.357C203.593 230.826 205.79 229.361 207.921 227.697C205.857 229.428 203.793 231.092 201.596 232.623C199.399 234.221 197.202 235.753 194.938 237.217L194.672 237.35L194.539 237.084C191.92 231.935 189.346 226.765 186.816 221.572L183.021 213.782C181.756 211.185 180.557 208.589 179.359 205.926Z" fill="url(#paint39_linear_35_92)"/>
<path d="M199.466 228.165C196.803 223.97 194.406 219.643 191.942 215.315C189.612 210.987 187.215 206.66 185.085 202.199C187.681 206.394 190.145 210.721 192.542 214.982C194.872 219.376 197.269 223.704 199.466 228.165Z" fill="url(#paint40_linear_35_92)"/>
<path d="M190.344 198.137C186.838 201.022 183.176 203.618 179.359 205.926L185.684 218.643L197.734 210.653L190.344 198.137Z" fill="url(#paint41_linear_35_92)"/>
<defs>
<linearGradient id="paint0_linear_35_92" x1="103.065" y1="209.023" x2="148.108" y2="140.466" gradientUnits="userSpaceOnUse">
<stop stop-color="#F7CC8F"/>
<stop offset="0.25" stop-color="#F7BB65"/>
<stop offset="0.434" stop-color="#FADEAC"/>
<stop offset="0.551" stop-color="#F1D48C"/>
<stop offset="0.654" stop-color="#F7BB65"/>
<stop offset="0.763" stop-color="#F2CE8C"/>
<stop offset="0.854" stop-color="#FFECC7"/>
<stop offset="1" stop-color="#F7C277"/>
</linearGradient>
<linearGradient id="paint1_linear_35_92" x1="-50.4561" y1="137.961" x2="63.1112" y2="-34.895" gradientUnits="userSpaceOnUse">
<stop stop-color="#F7CC8F"/>
<stop offset="0.25" stop-color="#F7BB65"/>
<stop offset="0.434" stop-color="#FADEAC"/>
<stop offset="0.551" stop-color="#F1D48C"/>
<stop offset="0.654" stop-color="#F7BB65"/>
<stop offset="0.763" stop-color="#F2CE8C"/>
<stop offset="0.854" stop-color="#FFECC7"/>
<stop offset="1" stop-color="#F7C277"/>
</linearGradient>
<linearGradient id="paint2_linear_35_92" x1="35.2939" y1="28.9196" x2="193.481" y2="28.9196" gradientUnits="userSpaceOnUse">
<stop stop-color="#FFECC7"/>
<stop offset="0.133" stop-color="#FFFAF0"/>
<stop offset="0.279" stop-color="#F7DDA3"/>
<stop offset="0.378" stop-color="#FFECC7"/>
<stop offset="0.556" stop-color="#F7DDA3"/>
<stop offset="0.598" stop-color="#F5DA9B"/>
<stop offset="0.684" stop-color="#FFECC7"/>
<stop offset="0.816" stop-color="#F7DDA3"/>
<stop offset="0.926" stop-color="#FFFAF0"/>
</linearGradient>
<linearGradient id="paint3_linear_35_92" x1="105.744" y1="186.526" x2="193.716" y2="186.526" gradientUnits="userSpaceOnUse">
<stop stop-color="#70552B"/>
<stop offset="0.21" stop-color="#866738"/>
<stop offset="0.309" stop-color="#70552B"/>
<stop offset="0.476" stop-color="#91713E"/>
<stop offset="0.686" stop-color="#70552B"/>
<stop offset="0.854" stop-color="#886939"/>
<stop offset="1" stop-color="#70552B"/>
</linearGradient>
<linearGradient id="paint4_linear_35_92" x1="134.139" y1="133.565" x2="196.592" y2="196.017" gradientUnits="userSpaceOnUse">
<stop offset="0.045" stop-color="#9E783C"/>
<stop offset="0.253" stop-color="#F0D19B"/>
<stop offset="0.38" stop-color="#9E783C"/>
<stop offset="0.678" stop-color="#BA9456"/>
<stop offset="0.795" stop-color="#E1BD7C"/>
<stop offset="0.891" stop-color="#9E783C"/>
</linearGradient>
<linearGradient id="paint5_linear_35_92" x1="125.537" y1="-44.1162" x2="267.483" y2="97.8294" gradientUnits="userSpaceOnUse">
<stop offset="0.045" stop-color="#9E783C"/>
<stop offset="0.253" stop-color="#F0D19B"/>
<stop offset="0.38" stop-color="#9E783C"/>
<stop offset="0.678" stop-color="#BA9456"/>
<stop offset="0.795" stop-color="#E1BD7C"/>
<stop offset="0.891" stop-color="#9E783C"/>
</linearGradient>
<linearGradient id="paint6_linear_35_92" x1="53.0679" y1="35.8731" x2="193.847" y2="35.8731" gradientUnits="userSpaceOnUse">
<stop stop-color="#70552B"/>
<stop offset="0.21" stop-color="#866738"/>
<stop offset="0.309" stop-color="#70552B"/>
<stop offset="0.476" stop-color="#91713E"/>
<stop offset="0.686" stop-color="#70552B"/>
<stop offset="0.854" stop-color="#886939"/>
<stop offset="1" stop-color="#70552B"/>
</linearGradient>
<linearGradient id="paint7_linear_35_92" x1="106.316" y1="171.989" x2="193.521" y2="171.989" gradientUnits="userSpaceOnUse">
<stop stop-color="#FFECC7"/>
<stop offset="0.133" stop-color="#FFFAF0"/>
<stop offset="0.279" stop-color="#F7DDA3"/>
<stop offset="0.378" stop-color="#FFECC7"/>
<stop offset="0.556" stop-color="#F7DDA3"/>
<stop offset="0.598" stop-color="#F5DA9B"/>
<stop offset="0.684" stop-color="#FFECC7"/>
<stop offset="0.816" stop-color="#F7DDA3"/>
<stop offset="0.926" stop-color="#FFFAF0"/>
</linearGradient>
<linearGradient id="paint8_linear_35_92" x1="105.241" y1="202.768" x2="115.997" y2="202.768" gradientUnits="userSpaceOnUse">
<stop stop-color="#47371F"/>
<stop offset="0.396" stop-color="#584425"/>
<stop offset="0.657" stop-color="#9E783C"/>
<stop offset="1" stop-color="#9E783C" stop-opacity="0"/>
</linearGradient>
<linearGradient id="paint9_linear_35_92" x1="47.0031" y1="121.404" x2="80.985" y2="121.404" gradientUnits="userSpaceOnUse">
<stop stop-color="#FFECC7"/>
<stop offset="0.133" stop-color="#FFFAF0"/>
<stop offset="0.279" stop-color="#F7DDA3"/>
<stop offset="0.378" stop-color="#FFECC7"/>
<stop offset="0.556" stop-color="#F7DDA3"/>
<stop offset="0.598" stop-color="#F5DA9B"/>
<stop offset="0.684" stop-color="#FFECC7"/>
<stop offset="0.816" stop-color="#F7DDA3"/>
<stop offset="0.926" stop-color="#FFFAF0"/>
</linearGradient>
<linearGradient id="paint10_linear_35_92" x1="81.4235" y1="200.778" x2="69.0254" y2="200.778" gradientUnits="userSpaceOnUse">
<stop stop-color="#47371F"/>
<stop offset="0.396" stop-color="#584425"/>
<stop offset="0.657" stop-color="#9E783C"/>
<stop offset="1" stop-color="#9E783C" stop-opacity="0"/>
</linearGradient>
<linearGradient id="paint11_linear_35_92" x1="34.961" y1="121.441" x2="81.4601" y2="121.441" gradientUnits="userSpaceOnUse">
<stop stop-color="#70552B"/>
<stop offset="0.21" stop-color="#866738"/>
<stop offset="0.309" stop-color="#70552B"/>
<stop offset="0.476" stop-color="#91713E"/>
<stop offset="0.686" stop-color="#70552B"/>
<stop offset="0.854" stop-color="#886939"/>
<stop offset="1" stop-color="#70552B"/>
</linearGradient>
<linearGradient id="paint12_linear_35_92" x1="-112.547" y1="172.152" x2="62.0868" y2="-93.6501" gradientUnits="userSpaceOnUse">
<stop stop-color="#F7CC8F"/>
<stop offset="0.25" stop-color="#F7BB65"/>
<stop offset="0.434" stop-color="#FADEAC"/>
<stop offset="0.551" stop-color="#F1D48C"/>
<stop offset="0.654" stop-color="#F7BB65"/>
<stop offset="0.763" stop-color="#F2CE8C"/>
<stop offset="0.854" stop-color="#FFECC7"/>
<stop offset="1" stop-color="#F7C277"/>
</linearGradient>
<linearGradient id="paint13_linear_35_92" x1="131.488" y1="-112.002" x2="359.82" y2="116.33" gradientUnits="userSpaceOnUse">
<stop offset="0.045" stop-color="#9E783C"/>
<stop offset="0.253" stop-color="#F0D19B"/>
<stop offset="0.38" stop-color="#9E783C"/>
<stop offset="0.678" stop-color="#BA9456"/>
<stop offset="0.795" stop-color="#E1BD7C"/>
<stop offset="0.891" stop-color="#9E783C"/>
</linearGradient>
<linearGradient id="paint14_linear_35_92" x1="7.66471" y1="124.199" x2="184.89" y2="124.199" gradientUnits="userSpaceOnUse">
<stop stop-color="#FFECC7"/>
<stop offset="0.133" stop-color="#FFFAF0"/>
<stop offset="0.279" stop-color="#F7DDA3"/>
<stop offset="0.378" stop-color="#FFECC7"/>
<stop offset="0.556" stop-color="#F7DDA3"/>
<stop offset="0.598" stop-color="#F5DA9B"/>
<stop offset="0.684" stop-color="#FFECC7"/>
<stop offset="0.816" stop-color="#F7DDA3"/>
<stop offset="0.926" stop-color="#FFFAF0"/>
</linearGradient>
<linearGradient id="paint15_linear_35_92" x1="13.5527" y1="120.203" x2="180.679" y2="120.203" gradientUnits="userSpaceOnUse">
<stop stop-color="#FFECC7"/>
<stop offset="0.133" stop-color="#FFFAF0"/>
<stop offset="0.279" stop-color="#F7DDA3"/>
<stop offset="0.378" stop-color="#FFECC7"/>
<stop offset="0.556" stop-color="#F7DDA3"/>
<stop offset="0.598" stop-color="#F5DA9B"/>
<stop offset="0.684" stop-color="#FFECC7"/>
<stop offset="0.816" stop-color="#F7DDA3"/>
<stop offset="0.926" stop-color="#FFFAF0"/>
</linearGradient>
<linearGradient id="paint16_linear_35_92" x1="201.671" y1="120.203" x2="242.236" y2="120.203" gradientUnits="userSpaceOnUse">
<stop stop-color="#FFECC7"/>
<stop offset="0.133" stop-color="#FFFAF0"/>
<stop offset="0.279" stop-color="#F7DDA3"/>
<stop offset="0.378" stop-color="#FFECC7"/>
<stop offset="0.556" stop-color="#F7DDA3"/>
<stop offset="0.598" stop-color="#F5DA9B"/>
<stop offset="0.684" stop-color="#FFECC7"/>
<stop offset="0.816" stop-color="#F7DDA3"/>
<stop offset="0.926" stop-color="#FFFAF0"/>
</linearGradient>
<linearGradient id="paint17_linear_35_92" x1="206.296" y1="124.199" x2="248.125" y2="124.199" gradientUnits="userSpaceOnUse">
<stop stop-color="#FFECC7"/>
<stop offset="0.133" stop-color="#FFFAF0"/>
<stop offset="0.279" stop-color="#F7DDA3"/>
<stop offset="0.378" stop-color="#FFECC7"/>
<stop offset="0.556" stop-color="#F7DDA3"/>
<stop offset="0.598" stop-color="#F5DA9B"/>
<stop offset="0.684" stop-color="#FFECC7"/>
<stop offset="0.816" stop-color="#F7DDA3"/>
<stop offset="0.926" stop-color="#FFFAF0"/>
</linearGradient>
<linearGradient id="paint18_linear_35_92" x1="201.588" y1="240.744" x2="164.466" y2="261.957" gradientUnits="userSpaceOnUse">
<stop stop-color="#47371F"/>
<stop offset="0.396" stop-color="#584425"/>
<stop offset="0.657" stop-color="#9E783C"/>
<stop offset="1" stop-color="#9E783C" stop-opacity="0"/>
</linearGradient>
<linearGradient id="paint19_linear_35_92" x1="176.958" y1="197.869" x2="211.159" y2="174.954" gradientUnits="userSpaceOnUse">
<stop stop-color="#47371F"/>
<stop offset="0.396" stop-color="#584425"/>
<stop offset="0.657" stop-color="#9E783C"/>
<stop offset="1" stop-color="#9E783C" stop-opacity="0"/>
</linearGradient>
<linearGradient id="paint20_linear_35_92" x1="201.438" y1="128.191" x2="256.069" y2="128.191" gradientUnits="userSpaceOnUse">
<stop stop-color="#70552B"/>
<stop offset="0.21" stop-color="#866738"/>
<stop offset="0.309" stop-color="#70552B"/>
<stop offset="0.476" stop-color="#91713E"/>
<stop offset="0.686" stop-color="#70552B"/>
<stop offset="0.854" stop-color="#886939"/>
<stop offset="1" stop-color="#70552B"/>
</linearGradient>
<linearGradient id="paint21_linear_35_92" x1="-0.280027" y1="128.191" x2="190.428" y2="128.191" gradientUnits="userSpaceOnUse">
<stop stop-color="#70552B"/>
<stop offset="0.21" stop-color="#866738"/>
<stop offset="0.309" stop-color="#70552B"/>
<stop offset="0.476" stop-color="#91713E"/>
<stop offset="0.686" stop-color="#70552B"/>
<stop offset="0.854" stop-color="#886939"/>
<stop offset="1" stop-color="#70552B"/>
</linearGradient>
<linearGradient id="paint22_linear_35_92" x1="13.2206" y1="5.53134" x2="242.569" y2="5.53134" gradientUnits="userSpaceOnUse">
<stop stop-color="#70552B"/>
<stop offset="0.21" stop-color="#866738"/>
<stop offset="0.309" stop-color="#70552B"/>
<stop offset="0.476" stop-color="#91713E"/>
<stop offset="0.686" stop-color="#70552B"/>
<stop offset="0.854" stop-color="#886939"/>
<stop offset="1" stop-color="#70552B"/>
</linearGradient>
<linearGradient id="paint23_linear_35_92" x1="-0.113519" y1="0.18457" x2="255.902" y2="0.18457" gradientUnits="userSpaceOnUse">
<stop stop-color="#FFECC7"/>
<stop offset="0.133" stop-color="#FFFAF0"/>
<stop offset="0.279" stop-color="#F7DDA3"/>
<stop offset="0.378" stop-color="#FFECC7"/>
<stop offset="0.556" stop-color="#F7DDA3"/>
<stop offset="0.598" stop-color="#F5DA9B"/>
<stop offset="0.684" stop-color="#FFECC7"/>
<stop offset="0.816" stop-color="#F7DDA3"/>
<stop offset="0.926" stop-color="#FFFAF0"/>
</linearGradient>
<linearGradient id="paint24_linear_35_92" x1="10.412" y1="3.97288" x2="245.503" y2="3.97288" gradientUnits="userSpaceOnUse">
<stop stop-color="#FFECC7"/>
<stop offset="0.133" stop-color="#FFFAF0"/>
<stop offset="0.279" stop-color="#F7DDA3"/>
<stop offset="0.378" stop-color="#FFECC7"/>
<stop offset="0.556" stop-color="#F7DDA3"/>
<stop offset="0.598" stop-color="#F5DA9B"/>
<stop offset="0.684" stop-color="#FFECC7"/>
<stop offset="0.816" stop-color="#F7DDA3"/>
<stop offset="0.926" stop-color="#FFFAF0"/>
</linearGradient>
<linearGradient id="paint25_linear_35_92" x1="182.699" y1="-12.9605" x2="281.837" y2="86.1777" gradientUnits="userSpaceOnUse">
<stop stop-color="#F7CC8F"/>
<stop offset="0.25" stop-color="#F7BB65"/>
<stop offset="0.434" stop-color="#FADEAC"/>
<stop offset="0.551" stop-color="#F1D48C"/>
<stop offset="0.654" stop-color="#F7BB65"/>
<stop offset="0.763" stop-color="#F2CE8C"/>
<stop offset="0.854" stop-color="#FFECC7"/>
<stop offset="1" stop-color="#F7C277"/>
</linearGradient>
<linearGradient id="paint26_linear_35_92" x1="197.8" y1="-34.5521" x2="305.012" y2="72.6599" gradientUnits="userSpaceOnUse">
<stop offset="0.045" stop-color="#9E783C"/>
<stop offset="0.253" stop-color="#F0D19B"/>
<stop offset="0.38" stop-color="#9E783C"/>
<stop offset="0.678" stop-color="#BA9456"/>
<stop offset="0.795" stop-color="#E1BD7C"/>
<stop offset="0.891" stop-color="#9E783C"/>
</linearGradient>
<linearGradient id="paint27_linear_35_92" x1="99.6906" y1="74.0336" x2="160.057" y2="74.0336" gradientUnits="userSpaceOnUse">
<stop stop-color="#70552B"/>
<stop offset="0.21" stop-color="#866738"/>
<stop offset="0.309" stop-color="#70552B"/>
<stop offset="0.476" stop-color="#91713E"/>
<stop offset="0.686" stop-color="#70552B"/>
<stop offset="0.854" stop-color="#886939"/>
<stop offset="1" stop-color="#70552B"/>
</linearGradient>
<linearGradient id="paint28_linear_35_92" x1="99.9925" y1="137.336" x2="168.699" y2="137.336" gradientUnits="userSpaceOnUse">
<stop stop-color="#70552B"/>
<stop offset="0.21" stop-color="#866738"/>
<stop offset="0.309" stop-color="#70552B"/>
<stop offset="0.476" stop-color="#91713E"/>
<stop offset="0.686" stop-color="#70552B"/>
<stop offset="0.854" stop-color="#886939"/>
<stop offset="1" stop-color="#70552B"/>
</linearGradient>
<linearGradient id="paint29_linear_35_92" x1="153.447" y1="104.26" x2="175.747" y2="104.26" gradientUnits="userSpaceOnUse">
<stop stop-color="#70552B"/>
<stop offset="0.21" stop-color="#866738"/>
<stop offset="0.309" stop-color="#70552B"/>
<stop offset="0.476" stop-color="#91713E"/>
<stop offset="0.686" stop-color="#70552B"/>
<stop offset="0.854" stop-color="#886939"/>
<stop offset="1" stop-color="#70552B"/>
</linearGradient>
<linearGradient id="paint30_linear_35_92" x1="80.7943" y1="70.393" x2="174.536" y2="70.393" gradientUnits="userSpaceOnUse">
<stop stop-color="#FFECC7"/>
<stop offset="0.133" stop-color="#FFFAF0"/>
<stop offset="0.279" stop-color="#F7DDA3"/>
<stop offset="0.378" stop-color="#FFECC7"/>
<stop offset="0.556" stop-color="#F7DDA3"/>
<stop offset="0.598" stop-color="#F5DA9B"/>
<stop offset="0.684" stop-color="#FFECC7"/>
<stop offset="0.816" stop-color="#F7DDA3"/>
<stop offset="0.926" stop-color="#FFFAF0"/>
</linearGradient>
<linearGradient id="paint31_linear_35_92" x1="99.664" y1="97.8572" x2="152.356" y2="97.8572" gradientUnits="userSpaceOnUse">
<stop stop-color="#FFECC7"/>
<stop offset="0.133" stop-color="#FFFAF0"/>
<stop offset="0.279" stop-color="#F7DDA3"/>
<stop offset="0.378" stop-color="#FFECC7"/>
<stop offset="0.556" stop-color="#F7DDA3"/>
<stop offset="0.598" stop-color="#F5DA9B"/>
<stop offset="0.684" stop-color="#FFECC7"/>
<stop offset="0.816" stop-color="#F7DDA3"/>
<stop offset="0.926" stop-color="#FFFAF0"/>
</linearGradient>
<linearGradient id="paint32_linear_35_92" x1="80.7943" y1="73.0092" x2="99.9926" y2="73.0092" gradientUnits="userSpaceOnUse">
<stop stop-color="#70552B"/>
<stop offset="0.21" stop-color="#866738"/>
<stop offset="0.309" stop-color="#70552B"/>
<stop offset="0.476" stop-color="#91713E"/>
<stop offset="0.686" stop-color="#70552B"/>
<stop offset="0.854" stop-color="#886939"/>
<stop offset="1" stop-color="#70552B"/>
</linearGradient>
<linearGradient id="paint33_linear_35_92" x1="133.534" y1="72.3385" x2="165.157" y2="72.3385" gradientUnits="userSpaceOnUse">
<stop stop-color="#FFECC7"/>
<stop offset="0.133" stop-color="#FFFAF0"/>
<stop offset="0.279" stop-color="#F7DDA3"/>
<stop offset="0.378" stop-color="#FFECC7"/>
<stop offset="0.556" stop-color="#F7DDA3"/>
<stop offset="0.598" stop-color="#F5DA9B"/>
<stop offset="0.684" stop-color="#FFECC7"/>
<stop offset="0.816" stop-color="#F7DDA3"/>
<stop offset="0.926" stop-color="#FFFAF0"/>
</linearGradient>
<linearGradient id="paint34_linear_35_92" x1="146.325" y1="121.414" x2="173.026" y2="121.414" gradientUnits="userSpaceOnUse">
<stop stop-color="#70552B"/>
<stop offset="0.21" stop-color="#866738"/>
<stop offset="0.309" stop-color="#70552B"/>
<stop offset="0.476" stop-color="#91713E"/>
<stop offset="0.686" stop-color="#70552B"/>
<stop offset="0.854" stop-color="#886939"/>
<stop offset="1" stop-color="#70552B"/>
</linearGradient>
<linearGradient id="paint35_linear_35_92" x1="158.16" y1="192.383" x2="146.424" y2="173.426" gradientUnits="userSpaceOnUse">
<stop stop-color="#47371F"/>
<stop offset="0.396" stop-color="#584425"/>
<stop offset="0.657" stop-color="#9E783C"/>
<stop offset="1" stop-color="#9E783C" stop-opacity="0"/>
</linearGradient>
<linearGradient id="paint36_linear_35_92" x1="202.012" y1="180.241" x2="227.839" y2="206.068" gradientUnits="userSpaceOnUse">
<stop stop-color="#F7CC8F"/>
<stop offset="0.25" stop-color="#F7BB65"/>
<stop offset="0.434" stop-color="#FADEAC"/>
<stop offset="0.551" stop-color="#F1D48C"/>
<stop offset="0.654" stop-color="#F7BB65"/>
<stop offset="0.763" stop-color="#F2CE8C"/>
<stop offset="0.854" stop-color="#FFECC7"/>
<stop offset="1" stop-color="#F7C277"/>
</linearGradient>
<linearGradient id="paint37_linear_35_92" x1="202.012" y1="180.241" x2="227.839" y2="206.068" gradientUnits="userSpaceOnUse">
<stop stop-color="#F7CC8F"/>
<stop offset="0.25" stop-color="#F7BB65"/>
<stop offset="0.434" stop-color="#FADEAC"/>
<stop offset="0.551" stop-color="#F1D48C"/>
<stop offset="0.654" stop-color="#F7BB65"/>
<stop offset="0.763" stop-color="#F2CE8C"/>
<stop offset="0.854" stop-color="#FFECC7"/>
<stop offset="1" stop-color="#F7C277"/>
</linearGradient>
<linearGradient id="paint38_linear_35_92" x1="197.718" y1="182.367" x2="223.618" y2="208.267" gradientUnits="userSpaceOnUse">
<stop offset="0.045" stop-color="#9E783C"/>
<stop offset="0.253" stop-color="#F0D19B"/>
<stop offset="0.38" stop-color="#9E783C"/>
<stop offset="0.678" stop-color="#BA9456"/>
<stop offset="0.795" stop-color="#E1BD7C"/>
<stop offset="0.891" stop-color="#9E783C"/>
</linearGradient>
<linearGradient id="paint39_linear_35_92" x1="179.04" y1="205.945" x2="208.12" y2="205.945" gradientUnits="userSpaceOnUse">
<stop stop-color="#70552B"/>
<stop offset="0.21" stop-color="#866738"/>
<stop offset="0.309" stop-color="#70552B"/>
<stop offset="0.476" stop-color="#91713E"/>
<stop offset="0.686" stop-color="#70552B"/>
<stop offset="0.854" stop-color="#886939"/>
<stop offset="1" stop-color="#70552B"/>
</linearGradient>
<linearGradient id="paint40_linear_35_92" x1="184.77" y1="202.174" x2="199.732" y2="202.174" gradientUnits="userSpaceOnUse">
<stop stop-color="#70552B"/>
<stop offset="0.21" stop-color="#866738"/>
<stop offset="0.309" stop-color="#70552B"/>
<stop offset="0.476" stop-color="#91713E"/>
<stop offset="0.686" stop-color="#70552B"/>
<stop offset="0.854" stop-color="#886939"/>
<stop offset="1" stop-color="#70552B"/>
</linearGradient>
<linearGradient id="paint41_linear_35_92" x1="194.386" y1="189.643" x2="206.776" y2="208.661" gradientUnits="userSpaceOnUse">
<stop stop-color="#47371F"/>
<stop offset="0.396" stop-color="#584425"/>
<stop offset="0.657" stop-color="#9E783C"/>
<stop offset="1" stop-color="#9E783C" stop-opacity="0"/>
</linearGradient>
</defs>
</svg>
