<svg width="257" height="243" viewBox="0 0 257 243" fill="none" xmlns="http://www.w3.org/2000/svg">
<path d="M53.916 156.101H149.712V149.496H53.916V156.101Z" fill="url(#paint0_linear_35_91)"/>
<path d="M149.712 149.494L137.698 149.62L125.747 149.683L101.782 149.809L77.8807 149.683H65.8669L53.916 149.494L65.8669 149.368L77.8807 149.305L101.782 149.18L125.747 149.305L137.698 149.368L149.712 149.494Z" fill="url(#paint1_linear_35_91)"/>
<path d="M53.916 156.096H149.712V153.832H53.916V156.096Z" fill="url(#paint2_linear_35_91)"/>
<path d="M53.916 156.1L65.8669 155.974L77.8807 155.911L101.782 155.785L125.747 155.911L137.698 155.974L149.712 156.1L137.698 156.288L125.747 156.351L101.782 156.414L77.8807 156.351L65.8669 156.288L53.916 156.1Z" fill="url(#paint3_linear_35_91)"/>
<path d="M149.712 153.834L137.698 154.023L125.747 154.086L101.782 154.149L77.8807 154.086L65.8669 154.023L53.916 153.834L65.8669 153.708L77.8807 153.645L101.782 153.52L125.747 153.645L137.698 153.708L149.712 153.834Z" fill="url(#paint4_linear_35_91)"/>
<path d="M90.146 149.496H53.916V156.101H85.9318L90.146 149.496Z" fill="url(#paint5_linear_35_91)"/>
<path d="M144.869 156.101V149.496H109.896L114.111 156.101H144.869Z" fill="url(#paint6_linear_35_91)"/>
<path d="M36.1157 171.193C29.6371 156.097 25.9889 139.114 25.9889 121.062C25.9889 59.4839 68.4459 9.54188 120.841 9.54188C147.133 9.54188 170.909 22.1217 188.08 42.4382L203.868 20.6122L171.098 11.4289C155.813 4.38414 138.767 0.484375 120.841 0.484375C54.2307 0.484375 0.200195 54.452 0.200195 121.062C0.200195 187.736 54.2307 241.703 120.841 241.703C178.142 241.703 226.072 201.825 238.4 148.235L255.823 132.636V119.427L212.36 150.185C201.541 197.674 164.682 232.646 120.841 232.646C88.4479 232.646 59.8287 213.524 42.7201 184.339C42.7201 184.339 37.0592 173.961 36.1157 171.193Z" fill="url(#paint7_linear_35_91)"/>
<path d="M203.868 20.6138L171.035 11.6821V11.6192C152.731 3.31647 132.415 -0.394581 112.413 1.1779C102.412 1.93269 92.4735 3.81968 82.9757 7.02754C73.4779 10.2354 64.3575 14.5126 55.929 19.9848C39.0091 30.6777 24.9825 45.8364 15.2331 63.3853C10.3899 72.1912 6.74172 81.5632 4.16284 91.3126C1.64687 100.999 0.325994 111.063 0.200195 121.064C0.200195 111.063 1.39527 100.999 3.78544 91.1868C6.23852 81.4374 9.94957 71.9396 14.7299 63.0708C24.4164 45.3961 38.5059 30.1116 55.4887 19.23C59.7029 16.4624 64.1688 14.0723 68.6346 11.8079L72.0941 10.2354C73.2682 9.69027 74.4424 9.20804 75.6165 8.78871L79.1388 7.40493L82.7241 6.20985C92.2848 3.00198 102.286 1.115 112.35 0.423112C132.477 -1.02357 152.92 2.75039 171.223 11.2418H171.161L203.868 20.6138Z" fill="url(#paint8_linear_35_91)"/>
<path d="M212.359 150.187C201.541 197.676 164.682 232.648 120.841 232.648C83.0385 232.648 50.3937 206.608 35.1721 168.931C35.0882 168.764 35.0044 168.575 34.9205 168.365C34.4173 167.024 33.9141 165.661 33.4109 164.277C33.2851 163.941 33.1593 163.606 33.0335 163.271C32.5723 161.887 32.111 160.503 31.6497 159.119C31.5659 158.826 31.482 158.532 31.3981 158.239C31.0207 156.897 30.6433 155.513 30.2659 154.087C30.224 153.961 30.1821 153.815 30.1401 153.647C29.7627 152.137 29.4063 150.628 29.0709 149.118C28.987 148.825 28.9241 148.531 28.8822 148.238C28.5467 146.728 28.2322 145.177 27.9387 143.583C27.9387 143.415 27.9177 143.248 27.8758 143.08C27.6242 141.528 27.3726 139.935 27.121 138.3C27.121 138.216 27.121 138.132 27.121 138.048C26.9113 136.413 26.7226 134.756 26.5549 133.079C26.5549 132.869 26.5339 132.639 26.492 132.387C26.3662 130.71 26.2614 129.032 26.1775 127.355C26.0936 125.258 26.0307 123.162 25.9888 121.065C26.0307 118.927 26.0936 116.788 26.1775 114.649C26.2614 112.93 26.3872 111.211 26.5549 109.492C26.5549 109.282 26.5759 109.093 26.6178 108.926C26.9113 105.529 27.3307 102.195 27.8758 98.9245C27.9177 98.7149 27.9596 98.4842 28.0016 98.2326C28.2951 96.6392 28.6096 95.0667 28.9451 93.5152C28.987 93.3055 29.0289 93.1168 29.0709 92.9491C29.4063 91.4815 29.7418 90.0348 30.0773 88.609C30.1611 88.4413 30.224 88.2526 30.2659 88.0429C30.6433 86.5753 31.0627 85.1076 31.5239 83.64C31.6078 83.3045 31.7126 82.99 31.8384 82.6965C32.2578 81.2289 32.719 79.8031 33.2222 78.4194C33.2642 78.3355 33.2851 78.2516 33.2851 78.1678C33.7883 76.784 34.2915 75.4421 34.7947 74.1422C34.9624 73.7648 35.1092 73.4084 35.235 73.0729C50.5195 35.4591 83.1014 9.5446 120.841 9.5446C147.133 9.5446 170.909 22.1245 188.08 42.4409L192.169 36.78C173.425 17.8473 148.391 6.21094 120.841 6.21094C64.7977 6.21094 19.007 54.2031 15.9878 114.712H16.1765C16.0507 116.809 15.9878 118.927 15.9878 121.065C15.9878 123.162 16.0297 125.237 16.1136 127.292H15.9878C18.8812 187.864 64.7348 235.982 120.841 235.982C168.77 235.982 209.215 200.821 221.794 152.829L212.359 150.187Z" fill="url(#paint9_linear_35_91)"/>
<path d="M221.794 152.828L219.341 161.257C218.398 164.024 217.328 166.792 216.322 169.559C215.19 172.264 213.869 174.843 212.611 177.548C212.317 178.218 211.982 178.868 211.605 179.497L210.535 181.384L208.334 185.221C202.233 195.285 194.559 204.406 185.627 212.079C176.633 219.69 166.443 225.854 155.373 230.006L147.007 232.71L138.39 234.597L129.647 235.667L120.841 235.981L129.647 235.478L138.327 234.157L146.818 232.144L155.121 229.314C166.003 225.099 176.192 218.998 184.998 211.387C193.93 203.839 201.541 194.782 207.768 184.844L209.969 181.07L211.038 179.183C211.458 178.554 211.814 177.904 212.108 177.233C213.366 174.654 214.687 172.012 215.882 169.371C216.951 166.603 218.146 163.961 219.152 161.194L221.794 152.828Z" fill="url(#paint10_linear_35_91)"/>
<path d="M192.169 36.7797C188.521 33.1735 184.663 29.8188 180.595 26.7158C176.444 23.6966 172.104 20.9291 167.638 18.476C158.643 13.6327 148.894 10.1104 138.83 8.22342C136.377 7.72022 133.798 7.46862 131.282 7.09123C128.703 6.90253 126.187 6.65093 123.609 6.65093C121.093 6.52513 118.514 6.65094 115.998 6.71384C114.677 6.77674 113.419 6.90253 112.161 7.02833C110.903 7.09123 109.582 7.27993 108.324 7.46863C103.292 8.09762 98.2601 9.1669 93.4169 10.6765C90.9009 11.3684 88.5736 12.249 86.1205 13.1296C83.7933 14.073 81.4031 15.0165 79.1387 16.2116C60.6463 24.8917 45.0473 39.3586 34.2286 56.7188C31.5239 61.0589 29.0709 65.5247 26.9952 70.1792C25.863 72.5065 24.9824 74.8967 23.976 77.2869C23.1583 79.677 22.2148 82.0672 21.5229 84.5203C18.378 94.2697 16.6168 104.459 15.9878 114.712C16.491 104.459 18.0635 94.2068 21.0826 84.3945C21.7745 81.9414 22.718 79.5512 23.5357 77.0982C24.4792 74.708 25.3598 72.3178 26.492 69.9906C28.5677 65.2731 31.0207 60.7444 33.7254 56.4043C44.4812 38.9183 60.0802 24.2627 78.6984 15.331C81.0257 14.1988 83.4159 13.2554 85.806 12.249C88.2591 11.4313 90.6493 10.4878 93.1653 9.8588C98.0714 8.34922 103.103 7.27993 108.261 6.65093C109.519 6.46223 110.777 6.33643 112.098 6.27353C113.356 6.14773 114.677 6.02194 115.935 5.95904C118.514 5.89614 121.093 5.77034 123.671 5.95904C126.25 5.95904 128.766 6.21064 131.345 6.46223C133.924 6.77673 136.44 7.09123 138.956 7.65733C149.083 9.54431 158.832 13.1296 167.827 18.0986C172.293 20.6146 176.633 23.4451 180.721 26.59C184.747 29.735 188.563 33.1315 192.169 36.7797Z" fill="url(#paint11_linear_35_91)"/>
<path d="M35.2349 73.0704C38.254 65.7111 41.9022 58.6035 46.2422 51.9362C50.5194 45.2689 55.803 39.2305 61.5268 33.6954C67.3135 28.286 73.7293 23.4428 80.7111 19.543C87.6929 15.7691 95.2408 12.8757 102.977 11.1145C118.576 7.52926 135.119 8.91305 150.026 14.574C157.448 17.4674 164.493 21.3042 170.909 26.0217C177.324 30.7391 183.048 36.3371 188.143 42.4384H188.017L192.169 36.7774L188.143 42.5013L188.08 42.5642L188.017 42.5013C182.86 36.4629 176.947 31.1165 170.594 26.462C164.178 21.7445 157.197 18.0335 149.775 15.203C142.415 12.3725 134.553 10.7371 126.69 10.171C118.828 9.54204 110.903 10.3597 103.166 11.9951C95.4924 13.6934 88.0074 16.5239 81.0885 20.2349C74.1066 24.0089 67.7538 28.7892 61.9671 34.1357C50.3307 44.9544 41.5248 58.4777 35.2349 73.0704Z" fill="url(#paint12_linear_35_91)"/>
<path d="M211.793 152.512C207.705 168.991 200.471 183.898 190.911 196.227L199.654 212.329C210.409 203.083 219.53 191.887 226.449 179.37L211.793 152.512Z" fill="url(#paint13_linear_35_91)"/>
<path d="M185.313 202.895C171.789 217.613 154.555 227.803 135.497 231.325C136 234.428 136.44 237.531 136.817 240.634C156.882 237.992 175.438 230.382 191.162 219.123C189.338 213.65 187.389 208.241 185.313 202.895Z" fill="url(#paint14_linear_35_91)"/>
<path d="M212.359 150.184C210.158 160.185 206.698 169.934 202.044 179.117C197.326 188.301 191.414 196.792 184.369 204.34C177.324 211.825 169.147 218.304 160.027 223.147C150.97 227.99 140.969 231.261 130.716 232.519C129.458 232.707 128.137 232.77 126.879 232.896L124.929 233.022H122.979L121.092 233.085C120.4 233.085 119.771 233.022 119.142 233.022L115.243 232.833C113.985 232.833 112.727 232.645 111.406 232.456L107.569 231.953C105.053 231.512 102.537 230.883 100.021 230.38C90.0201 227.676 80.6481 223.147 72.2196 217.171C63.7911 211.259 56.369 203.963 50.1419 195.786C43.9778 187.546 38.9458 178.488 35.1719 168.928C39.0716 178.425 44.2294 187.42 50.5193 195.471C56.7464 203.585 64.1685 210.819 72.597 216.668C80.9626 222.518 90.3346 226.984 100.21 229.625C102.726 230.129 105.179 230.758 107.695 231.135L111.532 231.638C112.79 231.764 114.048 231.953 115.306 231.953L119.142 232.141C119.771 232.141 120.4 232.204 121.092 232.204L122.979 232.141L124.866 232.079L126.816 231.953C128.074 231.89 129.332 231.764 130.59 231.575C140.717 230.38 150.655 227.235 159.65 222.455C168.707 217.675 176.884 211.322 183.929 203.9C198.018 188.992 207.642 170.123 212.359 150.184Z" fill="url(#paint15_linear_35_91)"/>
<path d="M181.665 225.034H232.362L123.231 34.3236C121.407 31.1786 116.941 31.1786 115.117 34.3236L23.7246 192.641C26.3244 196.164 29.092 199.518 32.0273 202.705C32.3208 202.328 32.5724 201.95 32.7821 201.573L98.3861 87.9767C100.147 84.8317 104.676 84.8317 106.437 87.9767L181.665 225.034Z" fill="url(#paint16_linear_35_91)"/>
<path d="M204.434 225.035L114.237 64.7674C112.601 61.9369 108.513 61.9369 106.877 64.7674L29.8887 200.253C30.5806 201.07 31.2725 201.888 32.0272 202.706C32.3208 202.328 32.5724 201.951 32.782 201.573L98.386 87.9772C100.147 84.8323 104.676 84.8323 106.437 87.9772L181.665 225.035H204.434Z" fill="url(#paint17_linear_35_91)"/>
<path d="M204.434 225.034L198.081 214.279L191.791 203.397L179.4 181.634L167.198 159.745L161.16 148.8L155.184 137.793L161.537 148.549L167.827 159.43L180.218 181.194L192.42 203.082L198.459 214.027L204.434 225.034Z" fill="url(#paint18_linear_35_91)"/>
<path d="M178.583 131.441H130.276L147.07 162.073H196.069L178.583 131.441Z" fill="url(#paint19_linear_35_91)"/>
<path d="M144.869 119.426L137.761 107.16L130.716 94.7693L116.627 70.0499L114.929 66.9678C114.3 65.9614 113.859 64.7663 113.104 64.0744C112.35 63.3826 111.28 63.0052 110.211 63.0681C109.142 63.1939 108.135 63.76 107.506 64.5777C105.179 68.6032 102.789 72.8175 100.462 76.9059L86.3723 101.562L58.1934 150.938L29.8887 200.251L57.7531 150.687L85.7433 101.248L99.7698 76.4656C102.097 72.3772 104.361 68.2887 106.815 64.0744C107.569 63.0681 108.827 62.3133 110.148 62.2504C111.406 62.0617 112.79 62.5649 113.733 63.4455C114.174 63.8858 114.551 64.5148 114.866 64.9551L115.746 66.5275L117.507 69.6096L131.282 94.4548L138.138 106.909L144.869 119.426Z" fill="url(#paint20_linear_35_91)"/>
<path d="M130.276 131.441H178.583L160.405 99.5508H112.79L130.276 131.441Z" fill="url(#paint21_linear_35_91)"/>
<path d="M48.1295 150.309L23.7246 192.64C26.3244 196.162 29.092 199.517 32.0273 202.704C32.3208 202.326 32.5724 201.949 32.7821 201.572L57.1242 159.429L48.1295 150.309Z" fill="url(#paint22_linear_35_91)"/>
<path d="M172.23 119.743C159.902 98.8603 147.825 77.7891 135.622 56.7807L126.565 41.0559L124.301 37.0932L123.168 35.1433C122.791 34.4514 122.477 33.8853 121.91 33.445C120.904 32.5016 119.394 32.1871 118.074 32.5645C117.382 32.7532 116.753 33.0676 116.25 33.5708C115.746 34.0111 115.432 34.6401 115.054 35.332L96.8136 66.7817L60.332 129.744L23.7246 192.643L59.8917 129.492L96.1846 66.4043L114.3 34.8917C114.677 34.2627 115.054 33.5079 115.683 32.9418C116.249 32.3757 117.004 31.9354 117.822 31.7468C119.457 31.3065 121.219 31.6839 122.477 32.7531C123.106 33.3192 123.609 34.074 123.923 34.703L125.055 36.6529L127.383 40.6156L136.377 56.4033C148.328 77.4746 160.468 98.4829 172.23 119.68V119.743Z" fill="url(#paint23_linear_35_91)"/>
<path d="M106.437 87.9805C112.79 99.3652 119.206 110.687 125.495 122.135L144.428 156.352C150.718 167.737 157.071 179.122 163.235 190.569L181.979 224.912L181.665 224.724L207.013 224.849L232.361 225.038L207.013 225.29L181.665 225.353H181.476L181.413 225.227L162.48 191.01C156.19 179.625 149.963 168.177 143.736 156.729L124.992 122.386C118.765 110.939 112.601 99.4281 106.437 87.9805Z" fill="url(#paint24_linear_35_91)"/>
<path d="M215.378 195.978C220.662 188.808 225.317 181.197 229.09 173.209C230.977 169.183 232.655 165.074 234.122 160.88C235.506 156.666 236.764 152.452 237.833 148.112V147.923L237.959 147.86L246.765 140.061L255.634 132.387L255.508 132.639L255.634 126.034L255.823 119.43L256.011 126.034L256.2 132.639V132.764L256.074 132.89L247.457 140.815L238.777 148.678L238.966 148.426C237.959 152.766 236.764 157.106 235.255 161.258C233.745 165.493 232.005 169.623 230.034 173.649C226.071 181.637 221.165 189.185 215.378 195.978Z" fill="url(#paint25_linear_35_91)"/>
<path d="M29.6369 151.633C23.347 157.923 17.057 164.234 10.7671 170.566C22.0261 195.474 41.462 215.916 65.6782 228.37C67.5023 224.282 69.2635 220.13 71.0246 216.042C51.1484 201.575 36.1784 178.68 29.6369 151.633Z" fill="url(#paint26_linear_35_91)"/>
<path d="M0.200195 121.062C0.514692 142.197 6.17563 163.142 16.8685 181.257C22.1521 190.315 28.6936 198.617 36.0528 206.102C43.5378 213.399 51.9034 219.94 61.0238 225.098C70.0813 230.382 79.8936 234.344 90.0204 237.112C100.147 239.816 110.651 241.137 121.156 241.2C131.66 241.263 142.164 239.942 152.291 237.238C162.48 234.596 172.356 230.57 181.476 225.35C172.419 230.759 162.669 234.973 152.479 237.804C142.29 240.634 131.723 242.144 121.156 242.207C110.526 242.269 99.9585 240.886 89.7059 238.244C79.4533 235.476 69.5781 231.514 60.3948 226.167C51.2115 220.947 42.783 214.342 35.2351 206.92C27.813 199.309 21.2086 190.944 16.0508 181.697C13.3461 177.169 11.0818 172.325 9.06898 167.482C8.12549 165.029 7.11911 162.576 6.30142 160.06C5.42083 157.544 4.72893 154.965 4.03704 152.449C1.39527 142.197 0.200195 131.63 0.200195 121.062Z" fill="url(#paint27_linear_35_91)"/>
<path d="M29.6369 151.633C27.0371 154.233 24.4372 156.832 21.8374 159.432C30.2659 185.598 47.1858 207.425 68.8861 220.948C69.5989 219.312 70.3118 217.677 71.0247 216.042C51.1485 201.575 36.1784 178.68 29.6369 151.633Z" fill="url(#paint28_linear_35_91)"/>
<path d="M15.9878 127.289C16.8684 142.196 20.3907 156.915 26.4291 170.564C32.5303 184.15 41.0846 196.667 51.8404 206.983C62.4704 217.361 75.4277 225.412 89.5171 230.381C96.4989 232.834 103.858 234.47 111.28 235.224C114.991 235.665 118.702 235.853 122.413 235.853C126.145 235.811 129.877 235.581 133.61 235.161C118.828 237.237 103.481 235.916 89.2655 231.073C75.0503 226.23 61.9672 218.116 51.1485 207.674C40.3927 197.233 31.7126 184.59 25.8001 170.878C22.7809 163.959 20.4536 156.789 18.8183 149.493C17.1829 142.196 16.2394 134.711 15.9878 127.289Z" fill="url(#paint29_linear_35_91)"/>
<path d="M194.874 119.43H80.2082L73.9812 130.185L69.6411 137.796H205.252L212.36 150.187L221.795 152.829C222.759 149.223 223.535 145.575 224.122 141.885L255.823 119.43H194.874Z" fill="url(#paint30_linear_35_91)"/>
<path d="M73.9812 130.184L69.6411 137.794H205.252L212.36 150.186L217.077 152.827H221.795C223.744 145.531 225.002 137.983 225.506 130.184H73.9812Z" fill="url(#paint31_linear_35_91)"/>
<path d="M225.505 130.183L206.573 130.434L187.64 130.56L149.775 130.623L111.909 130.56L92.9766 130.434L73.981 130.183L92.9766 129.931L111.909 129.805L149.775 129.68L187.64 129.805L206.573 129.931L225.505 130.183Z" fill="url(#paint32_linear_35_91)"/>
<path d="M115.558 119.43H80.2082L73.9812 130.185L69.6411 137.796H104.047L115.558 119.43Z" fill="url(#paint33_linear_35_91)"/>
<path d="M205.252 137.793L212.36 150.184L217.077 137.793H205.252Z" fill="url(#paint34_linear_35_91)"/>
<defs>
<linearGradient id="paint0_linear_35_91" x1="55.3508" y1="32.8103" x2="134.604" y2="230.943" gradientUnits="userSpaceOnUse">
<stop stop-color="#F7CC8F"/>
<stop offset="0.25" stop-color="#F7BB65"/>
<stop offset="0.434" stop-color="#FADEAC"/>
<stop offset="0.551" stop-color="#F1D48C"/>
<stop offset="0.654" stop-color="#F7BB65"/>
<stop offset="0.763" stop-color="#F2CE8C"/>
<stop offset="0.854" stop-color="#FFECC7"/>
<stop offset="1" stop-color="#F7C277"/>
</linearGradient>
<linearGradient id="paint1_linear_35_91" x1="53.9022" y1="149.184" x2="149.692" y2="149.184" gradientUnits="userSpaceOnUse">
<stop stop-color="#FFECC7"/>
<stop offset="0.133" stop-color="#FFFAF0"/>
<stop offset="0.279" stop-color="#F7DDA3"/>
<stop offset="0.378" stop-color="#FFECC7"/>
<stop offset="0.556" stop-color="#F7DDA3"/>
<stop offset="0.598" stop-color="#F5DA9B"/>
<stop offset="0.684" stop-color="#FFECC7"/>
<stop offset="0.816" stop-color="#F7DDA3"/>
<stop offset="0.926" stop-color="#FFFAF0"/>
</linearGradient>
<linearGradient id="paint2_linear_35_91" x1="53.6739" y1="33.4765" x2="132.927" y2="231.61" gradientUnits="userSpaceOnUse">
<stop offset="0.045" stop-color="#9E783C"/>
<stop offset="0.253" stop-color="#F0D19B"/>
<stop offset="0.38" stop-color="#9E783C"/>
<stop offset="0.551" stop-color="#F1D48C"/>
<stop offset="0.678" stop-color="#BA9456"/>
<stop offset="0.795" stop-color="#E1BD7C"/>
<stop offset="0.891" stop-color="#9E783C"/>
</linearGradient>
<linearGradient id="paint3_linear_35_91" x1="53.9022" y1="155.817" x2="149.692" y2="155.817" gradientUnits="userSpaceOnUse">
<stop stop-color="#70552B"/>
<stop offset="0.21" stop-color="#866738"/>
<stop offset="0.309" stop-color="#70552B"/>
<stop offset="0.476" stop-color="#91713E"/>
<stop offset="0.686" stop-color="#70552B"/>
<stop offset="0.854" stop-color="#886939"/>
<stop offset="1" stop-color="#70552B"/>
</linearGradient>
<linearGradient id="paint4_linear_35_91" x1="53.9022" y1="153.54" x2="149.692" y2="153.54" gradientUnits="userSpaceOnUse">
<stop stop-color="#FFECC7"/>
<stop offset="0.133" stop-color="#FFFAF0"/>
<stop offset="0.279" stop-color="#F7DDA3"/>
<stop offset="0.378" stop-color="#FFECC7"/>
<stop offset="0.556" stop-color="#F7DDA3"/>
<stop offset="0.598" stop-color="#F5DA9B"/>
<stop offset="0.684" stop-color="#FFECC7"/>
<stop offset="0.816" stop-color="#F7DDA3"/>
<stop offset="0.926" stop-color="#FFFAF0"/>
</linearGradient>
<linearGradient id="paint5_linear_35_91" x1="63.9988" y1="142.656" x2="80.9885" y2="156.131" gradientUnits="userSpaceOnUse">
<stop stop-color="#47371F"/>
<stop offset="0.449" stop-color="#584425"/>
<stop offset="0.758" stop-color="#9E783C"/>
<stop offset="1" stop-color="#9E783C" stop-opacity="0"/>
</linearGradient>
<linearGradient id="paint6_linear_35_91" x1="148.396" y1="146.34" x2="118.523" y2="160.702" gradientUnits="userSpaceOnUse">
<stop stop-color="#47371F"/>
<stop offset="0.449" stop-color="#584425"/>
<stop offset="0.758" stop-color="#9E783C"/>
<stop offset="1" stop-color="#9E783C" stop-opacity="0"/>
</linearGradient>
<linearGradient id="paint7_linear_35_91" x1="65.8778" y1="-175.52" x2="333.286" y2="91.8884" gradientUnits="userSpaceOnUse">
<stop stop-color="#F7CC8F"/>
<stop offset="0.25" stop-color="#F7BB65"/>
<stop offset="0.434" stop-color="#FADEAC"/>
<stop offset="0.551" stop-color="#F1D48C"/>
<stop offset="0.654" stop-color="#F7BB65"/>
<stop offset="0.763" stop-color="#F2CE8C"/>
<stop offset="0.854" stop-color="#FFECC7"/>
<stop offset="1" stop-color="#F7C277"/>
</linearGradient>
<linearGradient id="paint8_linear_35_91" x1="-0.252051" y1="0.129373" x2="203.977" y2="0.129373" gradientUnits="userSpaceOnUse">
<stop stop-color="#FFECC7"/>
<stop offset="0.133" stop-color="#FFFAF0"/>
<stop offset="0.279" stop-color="#F7DDA3"/>
<stop offset="0.378" stop-color="#FFECC7"/>
<stop offset="0.556" stop-color="#F7DDA3"/>
<stop offset="0.598" stop-color="#F5DA9B"/>
<stop offset="0.684" stop-color="#FFECC7"/>
<stop offset="0.816" stop-color="#F7DDA3"/>
<stop offset="0.926" stop-color="#FFFAF0"/>
</linearGradient>
<linearGradient id="paint9_linear_35_91" x1="133.049" y1="-107.863" x2="346.146" y2="105.234" gradientUnits="userSpaceOnUse">
<stop offset="0.045" stop-color="#9E783C"/>
<stop offset="0.253" stop-color="#F0D19B"/>
<stop offset="0.38" stop-color="#9E783C"/>
<stop offset="0.551" stop-color="#F1D48C"/>
<stop offset="0.678" stop-color="#BA9456"/>
<stop offset="0.795" stop-color="#E1BD7C"/>
<stop offset="0.891" stop-color="#9E783C"/>
</linearGradient>
<linearGradient id="paint10_linear_35_91" x1="120.841" y1="152.814" x2="222.263" y2="152.814" gradientUnits="userSpaceOnUse">
<stop stop-color="#FFECC7"/>
<stop offset="0.133" stop-color="#FFFAF0"/>
<stop offset="0.279" stop-color="#F7DDA3"/>
<stop offset="0.378" stop-color="#FFECC7"/>
<stop offset="0.556" stop-color="#F7DDA3"/>
<stop offset="0.598" stop-color="#F5DA9B"/>
<stop offset="0.684" stop-color="#FFECC7"/>
<stop offset="0.816" stop-color="#F7DDA3"/>
<stop offset="0.926" stop-color="#FFFAF0"/>
</linearGradient>
<linearGradient id="paint11_linear_35_91" x1="15.5116" y1="5.87098" x2="192.519" y2="5.87098" gradientUnits="userSpaceOnUse">
<stop stop-color="#FFECC7"/>
<stop offset="0.133" stop-color="#FFFAF0"/>
<stop offset="0.279" stop-color="#F7DDA3"/>
<stop offset="0.378" stop-color="#FFECC7"/>
<stop offset="0.556" stop-color="#F7DDA3"/>
<stop offset="0.598" stop-color="#F5DA9B"/>
<stop offset="0.684" stop-color="#FFECC7"/>
<stop offset="0.816" stop-color="#F7DDA3"/>
<stop offset="0.926" stop-color="#FFFAF0"/>
</linearGradient>
<linearGradient id="paint12_linear_35_91" x1="34.8134" y1="9.1332" x2="192.565" y2="9.1332" gradientUnits="userSpaceOnUse">
<stop stop-color="#70552B"/>
<stop offset="0.21" stop-color="#866738"/>
<stop offset="0.309" stop-color="#70552B"/>
<stop offset="0.476" stop-color="#91713E"/>
<stop offset="0.686" stop-color="#70552B"/>
<stop offset="0.854" stop-color="#886939"/>
<stop offset="1" stop-color="#70552B"/>
</linearGradient>
<linearGradient id="paint13_linear_35_91" x1="171.381" y1="144.264" x2="199.653" y2="126.386" gradientUnits="userSpaceOnUse">
<stop stop-color="#47371F"/>
<stop offset="0.449" stop-color="#584425"/>
<stop offset="0.758" stop-color="#9E783C"/>
<stop offset="1" stop-color="#9E783C" stop-opacity="0"/>
</linearGradient>
<linearGradient id="paint14_linear_35_91" x1="206.143" y1="226.525" x2="146.704" y2="254.548" gradientUnits="userSpaceOnUse">
<stop stop-color="#47371F"/>
<stop offset="0.449" stop-color="#584425"/>
<stop offset="0.758" stop-color="#9E783C"/>
<stop offset="1" stop-color="#9E783C" stop-opacity="0"/>
</linearGradient>
<linearGradient id="paint15_linear_35_91" x1="34.7316" y1="150.17" x2="212.849" y2="150.17" gradientUnits="userSpaceOnUse">
<stop stop-color="#FFECC7"/>
<stop offset="0.133" stop-color="#FFFAF0"/>
<stop offset="0.279" stop-color="#F7DDA3"/>
<stop offset="0.378" stop-color="#FFECC7"/>
<stop offset="0.556" stop-color="#F7DDA3"/>
<stop offset="0.598" stop-color="#F5DA9B"/>
<stop offset="0.684" stop-color="#FFECC7"/>
<stop offset="0.816" stop-color="#F7DDA3"/>
<stop offset="0.926" stop-color="#FFFAF0"/>
</linearGradient>
<linearGradient id="paint16_linear_35_91" x1="112.915" y1="-72.4933" x2="285.388" y2="99.9797" gradientUnits="userSpaceOnUse">
<stop stop-color="#F7CC8F"/>
<stop offset="0.25" stop-color="#F7BB65"/>
<stop offset="0.434" stop-color="#FADEAC"/>
<stop offset="0.551" stop-color="#F1D48C"/>
<stop offset="0.654" stop-color="#F7BB65"/>
<stop offset="0.763" stop-color="#F2CE8C"/>
<stop offset="0.854" stop-color="#FFECC7"/>
<stop offset="1" stop-color="#F7C277"/>
</linearGradient>
<linearGradient id="paint17_linear_35_91" x1="126.375" y1="-18.7566" x2="273.081" y2="161.148" gradientUnits="userSpaceOnUse">
<stop offset="0.045" stop-color="#9E783C"/>
<stop offset="0.253" stop-color="#F0D19B"/>
<stop offset="0.38" stop-color="#9E783C"/>
<stop offset="0.551" stop-color="#F1D48C"/>
<stop offset="0.678" stop-color="#BA9456"/>
<stop offset="0.795" stop-color="#E1BD7C"/>
<stop offset="0.891" stop-color="#9E783C"/>
</linearGradient>
<linearGradient id="paint18_linear_35_91" x1="154.771" y1="137.765" x2="204.842" y2="137.765" gradientUnits="userSpaceOnUse">
<stop stop-color="#FFECC7"/>
<stop offset="0.133" stop-color="#FFFAF0"/>
<stop offset="0.279" stop-color="#F7DDA3"/>
<stop offset="0.378" stop-color="#FFECC7"/>
<stop offset="0.556" stop-color="#F7DDA3"/>
<stop offset="0.598" stop-color="#F5DA9B"/>
<stop offset="0.684" stop-color="#FFECC7"/>
<stop offset="0.816" stop-color="#F7DDA3"/>
<stop offset="0.926" stop-color="#FFFAF0"/>
</linearGradient>
<linearGradient id="paint19_linear_35_91" x1="170.312" y1="121.501" x2="170.312" y2="154.17" gradientUnits="userSpaceOnUse">
<stop stop-color="#47371F"/>
<stop offset="0.449" stop-color="#584425"/>
<stop offset="0.758" stop-color="#9E783C"/>
<stop offset="1" stop-color="#9E783C" stop-opacity="0"/>
</linearGradient>
<linearGradient id="paint20_linear_35_91" x1="29.4861" y1="62.2007" x2="145.301" y2="62.2007" gradientUnits="userSpaceOnUse">
<stop stop-color="#FFECC7"/>
<stop offset="0.133" stop-color="#FFFAF0"/>
<stop offset="0.279" stop-color="#F7DDA3"/>
<stop offset="0.378" stop-color="#FFECC7"/>
<stop offset="0.556" stop-color="#F7DDA3"/>
<stop offset="0.598" stop-color="#F5DA9B"/>
<stop offset="0.684" stop-color="#FFECC7"/>
<stop offset="0.816" stop-color="#F7DDA3"/>
<stop offset="0.926" stop-color="#FFFAF0"/>
</linearGradient>
<linearGradient id="paint21_linear_35_91" x1="137.956" y1="137.465" x2="137.956" y2="109.031" gradientUnits="userSpaceOnUse">
<stop stop-color="#47371F"/>
<stop offset="0.449" stop-color="#584425"/>
<stop offset="0.758" stop-color="#9E783C"/>
<stop offset="1" stop-color="#9E783C" stop-opacity="0"/>
</linearGradient>
<linearGradient id="paint22_linear_35_91" x1="-4.13791" y1="152.964" x2="35.169" y2="123.633" gradientUnits="userSpaceOnUse">
<stop stop-color="#47371F"/>
<stop offset="0.449" stop-color="#584425"/>
<stop offset="0.758" stop-color="#9E783C"/>
<stop offset="1" stop-color="#9E783C" stop-opacity="0"/>
</linearGradient>
<linearGradient id="paint23_linear_35_91" x1="23.3151" y1="31.5511" x2="172.64" y2="31.5511" gradientUnits="userSpaceOnUse">
<stop stop-color="#FFECC7"/>
<stop offset="0.133" stop-color="#FFFAF0"/>
<stop offset="0.279" stop-color="#F7DDA3"/>
<stop offset="0.378" stop-color="#FFECC7"/>
<stop offset="0.556" stop-color="#F7DDA3"/>
<stop offset="0.598" stop-color="#F5DA9B"/>
<stop offset="0.684" stop-color="#FFECC7"/>
<stop offset="0.816" stop-color="#F7DDA3"/>
<stop offset="0.926" stop-color="#FFFAF0"/>
</linearGradient>
<linearGradient id="paint24_linear_35_91" x1="106.038" y1="87.9729" x2="232.375" y2="87.9729" gradientUnits="userSpaceOnUse">
<stop stop-color="#70552B"/>
<stop offset="0.21" stop-color="#866738"/>
<stop offset="0.309" stop-color="#70552B"/>
<stop offset="0.476" stop-color="#91713E"/>
<stop offset="0.686" stop-color="#70552B"/>
<stop offset="0.854" stop-color="#886939"/>
<stop offset="1" stop-color="#70552B"/>
</linearGradient>
<linearGradient id="paint25_linear_35_91" x1="214.901" y1="119.428" x2="256.466" y2="119.428" gradientUnits="userSpaceOnUse">
<stop stop-color="#70552B"/>
<stop offset="0.21" stop-color="#866738"/>
<stop offset="0.309" stop-color="#70552B"/>
<stop offset="0.476" stop-color="#91713E"/>
<stop offset="0.686" stop-color="#70552B"/>
<stop offset="0.854" stop-color="#886939"/>
<stop offset="1" stop-color="#70552B"/>
</linearGradient>
<linearGradient id="paint26_linear_35_91" x1="-62.393" y1="-0.61876" x2="160.559" y2="222.333" gradientUnits="userSpaceOnUse">
<stop stop-color="#F7CC8F"/>
<stop offset="0.25" stop-color="#F7BB65"/>
<stop offset="0.434" stop-color="#FADEAC"/>
<stop offset="0.551" stop-color="#F1D48C"/>
<stop offset="0.654" stop-color="#F7BB65"/>
<stop offset="0.763" stop-color="#F2CE8C"/>
<stop offset="0.854" stop-color="#FFECC7"/>
<stop offset="1" stop-color="#F7C277"/>
</linearGradient>
<linearGradient id="paint27_linear_35_91" x1="-0.409299" y1="121.091" x2="181.815" y2="121.091" gradientUnits="userSpaceOnUse">
<stop stop-color="#70552B"/>
<stop offset="0.21" stop-color="#866738"/>
<stop offset="0.309" stop-color="#70552B"/>
<stop offset="0.476" stop-color="#91713E"/>
<stop offset="0.686" stop-color="#70552B"/>
<stop offset="0.854" stop-color="#886939"/>
<stop offset="1" stop-color="#70552B"/>
</linearGradient>
<linearGradient id="paint28_linear_35_91" x1="7.90898" y1="64.2361" x2="174.122" y2="230.449" gradientUnits="userSpaceOnUse">
<stop offset="0.045" stop-color="#9E783C"/>
<stop offset="0.253" stop-color="#F0D19B"/>
<stop offset="0.38" stop-color="#9E783C"/>
<stop offset="0.551" stop-color="#F1D48C"/>
<stop offset="0.678" stop-color="#BA9456"/>
<stop offset="0.795" stop-color="#E1BD7C"/>
<stop offset="0.891" stop-color="#9E783C"/>
</linearGradient>
<linearGradient id="paint29_linear_35_91" x1="15.4978" y1="127.263" x2="133.667" y2="127.263" gradientUnits="userSpaceOnUse">
<stop stop-color="#FFECC7"/>
<stop offset="0.133" stop-color="#FFFAF0"/>
<stop offset="0.279" stop-color="#F7DDA3"/>
<stop offset="0.378" stop-color="#FFECC7"/>
<stop offset="0.556" stop-color="#F7DDA3"/>
<stop offset="0.598" stop-color="#F5DA9B"/>
<stop offset="0.684" stop-color="#FFECC7"/>
<stop offset="0.816" stop-color="#F7DDA3"/>
<stop offset="0.926" stop-color="#FFFAF0"/>
</linearGradient>
<linearGradient id="paint30_linear_35_91" x1="93.2969" y1="46.998" x2="211.482" y2="165.183" gradientUnits="userSpaceOnUse">
<stop stop-color="#F7CC8F"/>
<stop offset="0.25" stop-color="#F7BB65"/>
<stop offset="0.434" stop-color="#FADEAC"/>
<stop offset="0.551" stop-color="#F1D48C"/>
<stop offset="0.654" stop-color="#F7BB65"/>
<stop offset="0.763" stop-color="#F2CE8C"/>
<stop offset="0.854" stop-color="#FFECC7"/>
<stop offset="1" stop-color="#F7C277"/>
</linearGradient>
<linearGradient id="paint31_linear_35_91" x1="48.795" y1="29.7447" x2="208.33" y2="189.28" gradientUnits="userSpaceOnUse">
<stop offset="0.045" stop-color="#9E783C"/>
<stop offset="0.253" stop-color="#F0D19B"/>
<stop offset="0.38" stop-color="#9E783C"/>
<stop offset="0.551" stop-color="#F1D48C"/>
<stop offset="0.678" stop-color="#BA9456"/>
<stop offset="0.795" stop-color="#E1BD7C"/>
<stop offset="0.891" stop-color="#9E783C"/>
</linearGradient>
<linearGradient id="paint32_linear_35_91" x1="74.0118" y1="129.704" x2="225.534" y2="129.704" gradientUnits="userSpaceOnUse">
<stop stop-color="#FFECC7"/>
<stop offset="0.133" stop-color="#FFFAF0"/>
<stop offset="0.279" stop-color="#F7DDA3"/>
<stop offset="0.378" stop-color="#FFECC7"/>
<stop offset="0.556" stop-color="#F7DDA3"/>
<stop offset="0.598" stop-color="#F5DA9B"/>
<stop offset="0.684" stop-color="#FFECC7"/>
<stop offset="0.816" stop-color="#F7DDA3"/>
<stop offset="0.926" stop-color="#FFFAF0"/>
</linearGradient>
<linearGradient id="paint33_linear_35_91" x1="57.021" y1="105.86" x2="98.4294" y2="120.179" gradientUnits="userSpaceOnUse">
<stop stop-color="#47371F"/>
<stop offset="0.449" stop-color="#584425"/>
<stop offset="0.758" stop-color="#9E783C"/>
<stop offset="1" stop-color="#9E783C" stop-opacity="0"/>
</linearGradient>
<linearGradient id="paint34_linear_35_91" x1="217.66" y1="133.454" x2="217.66" y2="146.23" gradientUnits="userSpaceOnUse">
<stop stop-color="#47371F"/>
<stop offset="0.449" stop-color="#584425"/>
<stop offset="0.758" stop-color="#9E783C"/>
<stop offset="1" stop-color="#9E783C" stop-opacity="0"/>
</linearGradient>
</defs>
</svg>
