<svg width="257" height="155" viewBox="0 0 257 155" fill="none" xmlns="http://www.w3.org/2000/svg">
<path d="M143.775 29.2589C153.28 22.8323 145.125 5.63751 128.334 10.4697C111.544 5.63751 103.389 22.8323 112.894 29.2589C117.848 27.6768 122.987 26.0946 128.334 24.537C133.682 26.0946 138.821 27.6768 143.775 29.2589Z" fill="#DF7C09"/>
<path d="M147.602 19.6919C146.547 14.455 141.47 9.5124 133.731 9.63505C133.698 9.94575 133.682 10.2605 133.682 10.5794C133.682 16.0739 138.134 20.5259 143.628 20.5259C145.039 20.5259 146.388 20.2193 147.602 19.6919Z" fill="black"/>
<path d="M107.975 86.4217C32.4877 185.175 -93.2967 95.3257 112.894 29.257C117.848 27.6749 122.987 26.0927 128.334 24.5352C133.682 26.0927 138.821 27.6749 143.775 29.257C349.966 95.3257 224.181 185.175 148.693 86.4217C141.31 76.7573 134.405 65.2777 128.334 51.7991C122.264 65.2777 115.359 76.7573 107.975 86.4217Z" fill="#EAA416"/>
<path d="M128.335 154.957C70.6303 154.957 107.976 86.4234 107.976 86.4234C115.359 76.759 122.264 65.2794 128.335 51.8008C134.405 65.2794 141.31 76.759 148.694 86.4234C148.694 86.4234 186.039 154.957 128.335 154.957Z" fill="#DF7C09"/>
<path d="M140.28 28.1523C235.587 60.3711 163.362 126.624 129.218 53.736C135.068 66.3807 141.666 77.2225 148.694 86.4208C150.55 88.8492 152.43 91.1631 154.335 93.3625C154.343 93.3625 154.347 93.3625 154.347 93.3625C208.507 138.385 244.835 74.1073 180.091 42.465C174.118 39.9876 167.752 37.5224 160.958 35.0818C155.5 33.1195 149.785 31.1817 143.775 29.2561C142.623 28.8882 141.457 28.5203 140.28 28.1523Z" fill="#F7AF20"/>
<path d="M116.389 28.1523C21.0818 60.3711 93.3072 126.624 127.451 53.736C121.601 66.3807 115.003 77.2225 107.976 86.4208C106.119 88.8492 104.239 91.1631 102.334 93.3625C102.326 93.3625 102.322 93.3625 102.322 93.3625C48.1617 138.385 11.8343 74.1073 76.5785 42.465C82.5513 39.9876 88.9165 37.5224 95.711 35.0818C101.169 33.1195 106.884 31.1817 112.894 29.2561C114.046 28.8882 115.212 28.5203 116.389 28.1523Z" fill="#F7AF20"/>
<path fill-rule="evenodd" clip-rule="evenodd" d="M128.334 24.5352C132.431 25.7289 136.413 26.9349 140.28 28.1532C140.288 28.1532 140.296 28.1532 140.305 28.1532C235.575 60.3842 163.362 126.612 129.217 53.7368C128.923 53.0991 128.629 52.4532 128.334 51.7991C128.04 52.4532 127.746 53.0991 127.451 53.7368C93.3071 126.612 21.094 60.3842 116.364 28.1532C116.373 28.1532 116.381 28.1532 116.389 28.1532C120.256 26.9349 124.238 25.7289 128.334 24.5352ZM116.364 28.1532C116.373 28.1532 116.381 28.1532 116.389 28.1532H116.364ZM140.28 28.1532C140.288 28.1614 140.296 28.1654 140.305 28.1654L140.28 28.1532Z" fill="#FFBD38"/>
<path d="M127.451 53.7386C122.595 64.2369 117.223 73.4966 111.508 81.6034C110.347 83.2551 109.169 84.8617 107.975 86.4234C107.975 86.4234 106.381 89.3546 104.357 94.0028C109.361 98.2463 117.014 100.883 128.334 100.883C139.655 100.883 147.32 98.2463 152.324 94.0028C150.3 89.3546 148.693 86.4234 148.693 86.4234C147.5 84.8617 146.322 83.2551 145.161 81.6034C139.446 73.4966 134.074 64.2369 129.217 53.7386C128.923 53.1008 128.629 52.4549 128.334 51.8008C128.04 52.4549 127.746 53.1008 127.451 53.7386Z" fill="#BE4E01"/>
<path d="M128.334 117.916C112.893 117.916 104.259 113.011 99.8931 105.836C98.8629 109.098 97.9185 112.581 97.2317 116.138C100.089 126.587 108.723 134.51 128.334 134.51C147.945 134.51 156.579 126.587 159.437 116.138C158.75 112.581 157.806 109.098 156.776 105.836C152.41 113.011 143.775 117.916 128.334 117.916Z" fill="#BE4E01"/>
<path d="M100.384 104.329C103.793 94.1132 107.975 86.4234 107.975 86.4234C115.359 76.759 122.264 65.2794 128.335 51.8008C134.405 65.2794 141.31 76.759 148.694 86.4234C148.694 86.4234 152.876 94.1132 156.285 104.329C153.71 101.484 151.171 98.4548 148.694 95.217C141.31 85.5526 134.405 74.073 128.335 60.5944C122.264 74.073 115.359 85.5526 107.975 95.217C105.498 98.4548 102.959 101.484 100.384 104.329Z" fill="#782A00"/>
<path d="M109.067 19.6919C110.122 14.455 115.199 9.5124 122.938 9.63505C122.971 9.94575 122.987 10.2605 122.987 10.5794C122.987 16.0739 118.535 20.5259 113.041 20.5259C111.63 20.5259 110.281 20.2193 109.067 19.6919Z" fill="black"/>
<path d="M136.331 10.5053C136.368 10.444 150.447 -9.15464 168.942 8.02788C169.273 7.95429 169.617 7.91749 169.972 7.91749C172.634 7.91749 174.792 10.076 174.792 12.7497C174.792 15.4111 172.634 17.5819 169.972 17.5819C167.299 17.5819 165.14 15.4111 165.14 12.7497C165.14 12.3491 165.185 11.9607 165.275 11.5846C151.097 -1.30538 140.476 13.4856 140.452 13.5224L136.331 10.5053Z" fill="black"/>
<path d="M120.338 10.5053C120.301 10.444 106.234 -9.15464 87.7269 8.02788C87.3957 7.95429 87.0523 7.91749 86.6967 7.91749C84.0353 7.91749 81.8767 10.076 81.8767 12.7497C81.8767 15.4111 84.0353 17.5819 86.6967 17.5819C89.3703 17.5819 91.5289 15.4111 91.5289 12.7497C91.5289 12.3491 91.4839 11.9607 91.3939 11.5846C105.584 -1.30538 116.193 13.4856 116.217 13.5224L120.338 10.5053Z" fill="black"/>
</svg>
