<svg width="256" height="77" viewBox="0 0 256 77" fill="none" xmlns="http://www.w3.org/2000/svg">
<path d="M98.2755 27.2561C86.871 19.8295 70.2601 22.131 55.0181 26.3892C43.9078 29.4929 32.6171 32.6473 21.8359 31.7338C15.4344 31.1913 9.77216 29.2319 5.75506 25.0386C2.56437 21.7081 0.360917 17.0675 0.0178038 10.7157C-0.310953 4.62902 4.13975 4.76016 5.03493 10.7116C5.76519 15.5679 7.01302 19.1231 9.35895 21.572C27.4508 40.456 77.8397 3.15257 103.12 19.6158L98.2755 27.2561Z" fill="black"/>
<path fill-rule="evenodd" clip-rule="evenodd" d="M111.789 53.1119C119.058 41.6204 121.283 28.316 136.575 27.0597C133.491 26.6531 130.141 25.9096 126.464 24.7642C101.598 14.6076 85.7683 16.3074 75.8004 40.0351C71.2754 50.8051 64.1853 62.8126 48.8603 56.2037C22.3704 82.6926 15.8117 60.8209 10.3907 71.0606C10.3907 71.0606 24.1868 81.1421 42.4932 72.7848C64.4365 62.1103 93.52 81.9887 111.789 53.1119Z" fill="black"/>
<path fill-rule="evenodd" clip-rule="evenodd" d="M136.575 27.0616C121.283 28.3177 119.058 41.6222 111.789 53.1138C129.982 47.7157 152.813 65.8277 173.716 61.2725C176.08 60.7575 178.18 60.0771 180.062 59.2604C164.801 51.9024 154.43 40.7555 156.983 24.2773C151.285 26.8052 144.894 28.1584 136.575 27.0616Z" fill="black"/>
<path fill-rule="evenodd" clip-rule="evenodd" d="M156.983 24.2751C154.43 40.7532 164.801 51.9002 180.062 59.2581C203.558 70.5863 238.644 72.9326 256 71.923C248.665 60.7172 245.527 63.7787 234.55 62.3347C219.699 60.3815 204.993 54.5455 194.115 46.3344C183.329 38.1914 176.307 27.7126 176.644 16.3672C173.272 16.5761 169.769 17.4208 166.12 19.1472C163.147 21.0755 160.174 22.8597 156.983 24.2751Z" fill="black"/>
<path fill-rule="evenodd" clip-rule="evenodd" d="M176.644 16.3692C176.308 27.7146 183.329 38.1934 194.116 46.3365C198.39 39.5209 201.424 32.0149 208.186 27.0303C198.794 22.7791 188.525 15.6324 176.644 16.3692Z" fill="black"/>
<path fill-rule="evenodd" clip-rule="evenodd" d="M176.644 16.3689C188.525 15.6321 198.794 22.7786 208.186 27.03C212.348 28.914 216.337 30.2296 220.218 30.0383C220.218 30.0383 227.514 26.7222 226.851 17.9669C226.851 17.9669 224.463 14.3851 219.688 12.6609C218.195 7.08611 208.993 3.03595 204.068 4.50275C204.068 4.50275 199.425 -0.703666 193.323 0.357523C193.323 0.357523 193.058 4.46981 192.063 5.39817C181.105 8.50694 173.615 14.287 166.12 19.149C169.769 17.4224 173.272 16.5778 176.644 16.3689Z" fill="black"/>
<path fill-rule="evenodd" clip-rule="evenodd" d="M166.12 19.1472C160.996 54.315 227.225 70.8412 252.558 67.3458C247.369 61.6295 243.658 63.5326 234.55 62.3347C219.699 60.3815 204.993 54.5455 194.116 46.3344C183.329 38.1914 176.308 27.7126 176.645 16.3672C173.272 16.5761 169.769 17.4208 166.12 19.1472Z" fill="black"/>
<path fill-rule="evenodd" clip-rule="evenodd" d="M115.506 20.9258C115.506 20.9258 106.178 22.1693 98.9237 33.8706C92.7834 43.7765 94.8893 52.019 82.4253 57.5325C71.9113 62.183 57.2368 61.7696 48.4248 65.8135C40.2585 69.5611 33.3464 74.6554 20.7014 75.3267C26.3419 76.5702 33.9231 76.6987 42.4931 72.7864C64.4365 62.1119 93.5201 81.9903 111.789 53.1135C119.058 41.622 121.284 28.3175 136.575 27.0613C133.491 26.6547 130.141 25.9112 126.464 24.7658C122.597 23.1864 118.949 21.8934 115.506 20.9258Z" fill="black"/>
<path fill-rule="evenodd" clip-rule="evenodd" d="M163.4 47.1678C133.762 58.6781 113.06 33.8737 136.575 27.0625C121.283 28.3187 119.058 41.6231 111.789 53.1147C129.982 47.7166 152.813 65.8286 173.716 61.2734C176.08 60.7584 178.18 60.078 180.062 59.2613C173.325 56.0127 167.54 52.0259 163.4 47.1678Z" fill="black"/>
<path fill-rule="evenodd" clip-rule="evenodd" d="M176.649 18.0643C187.56 20.3093 196.956 31.5504 202.711 32.4412C204.266 30.4519 206.038 28.6139 208.186 27.0303C198.794 22.7789 188.524 15.6324 176.644 16.3692C173.272 16.5782 169.769 17.4228 166.12 19.1492C169.733 17.5368 173.264 17.3679 176.649 18.0643Z" fill="black"/>
<path fill-rule="evenodd" clip-rule="evenodd" d="M166.12 19.149C206.46 -4.11754 224.71 26.132 224.71 26.132C226.06 24.2255 227.123 21.5521 226.851 17.9669C226.851 17.9669 224.463 14.3851 219.688 12.6609C218.195 7.08612 208.993 3.03595 204.068 4.50275C204.068 4.50275 199.425 -0.703666 193.323 0.357523C193.323 0.357523 193.058 4.46981 192.063 5.39817C181.105 8.50694 173.615 14.287 166.12 19.149Z" fill="black"/>
<path fill-rule="evenodd" clip-rule="evenodd" d="M156.983 24.2773C156.983 24.2773 150.452 34.6101 158.507 48.77C160.84 52.8714 164.397 57.2943 169.692 61.8796C171.04 61.7617 172.382 61.5634 173.716 61.2725C176.08 60.7575 178.18 60.0771 180.062 59.2604C173.325 56.0119 167.54 52.0251 163.4 47.167C158.163 41.0212 155.557 33.4807 156.983 24.2773Z" fill="black"/>
<path fill-rule="evenodd" clip-rule="evenodd" d="M101.912 18.8806C101.912 18.8806 92.2537 15.2987 79.1213 22.4255C82.1688 22.4082 85.1293 22.6436 87.9467 23.1988C92.0139 20.3248 96.6447 18.9636 101.912 18.8806Z" fill="black"/>
</svg>
