<svg width="257" height="246" viewBox="0 0 257 246" fill="none" xmlns="http://www.w3.org/2000/svg">
<path fill-rule="evenodd" clip-rule="evenodd" d="M102.613 15.2803C82.2775 5.95009 61.4656 -7.68813 34.91 7.62389C8.35372 22.9352 -7.67379 61.6918 5.24525 117.674C7.96157 129.448 11.4843 142.47 15.663 155.564L19.4417 166.889C35.1965 212.092 58.34 254.109 82.7565 243.993C105.674 234.499 107.091 224.557 128.691 219.072C150.29 224.557 151.707 234.499 174.624 243.993C208.118 257.869 239.217 173.656 252.135 117.674C255.968 101.067 257.254 85.9759 256.472 72.5624C256.472 72.5624 255.908 62.3546 254.234 55.6451C249.366 32.7638 237.638 16.3678 222.472 7.62389C195.915 -7.68813 175.103 5.94998 154.767 15.2803C138.463 22.7622 118.919 22.7622 102.613 15.2803Z" fill="#0276DB"/>
<path fill-rule="evenodd" clip-rule="evenodd" d="M188.216 152.977C196.047 152.977 202.396 159.325 202.396 167.156C202.396 174.987 196.047 181.336 188.216 181.336C180.385 181.336 174.037 174.987 174.037 167.156C174.037 159.325 180.385 152.977 188.216 152.977ZM44.0267 63.4119H44.0273L62.7802 57.7832C68.2474 56.1427 74.0112 58.5134 76.5176 63.6414L76.8284 64.2774C79.1997 69.1277 84.4638 71.6167 89.7173 70.3714L176.757 49.7373C180.129 48.938 183.35 49.5912 186.143 51.6413C188.938 53.6912 190.527 56.5666 190.777 60.0233L194.139 106.557C194.526 111.925 191.252 116.709 186.108 118.292L100.658 144.566C99.4465 145.144 98.4976 146.198 98.0661 147.511C97.4797 149.297 97.9468 151.261 99.2738 152.591C100.408 153.727 102.005 154.237 103.56 153.999L104.35 153.811H104.35L191.806 133.019C194.125 132.534 196.525 133.337 198.087 135.119C199.649 136.9 200.13 139.386 199.344 141.621C198.708 143.435 197.318 144.856 195.57 145.549C195.158 145.692 194.734 145.813 194.298 145.91L100.173 166.862C96.8777 167.595 93.7582 166.954 91.0189 164.981C88.2797 163.007 86.684 160.25 86.3374 156.892L85.0086 144.037C84.6922 140.968 85.5743 138.058 87.3547 135.801C90.1529 132.253 90.6258 127.699 88.6154 123.652L65.8505 77.8316C63.9563 74.0181 60.4045 71.7028 56.1504 71.5074C54.0517 71.4108 48.0431 74.6286 44.2719 73.3858C41.8182 72.5781 39.897 68.4126 40.8421 66.0154C41.4865 64.3817 42.5091 63.8983 44.0267 63.4119ZM120.157 167.156C127.987 167.156 134.336 173.504 134.336 181.336C134.336 189.166 127.987 195.515 120.157 195.515C112.325 195.515 105.977 189.166 105.977 181.336C105.977 173.504 112.325 167.156 120.157 167.156Z" fill="white"/>
</svg>
