<svg width="257" height="233" viewBox="0 0 257 233" fill="none" xmlns="http://www.w3.org/2000/svg">
<path d="M169.732 190.987C169.769 190.911 169.8 190.832 169.838 190.756C169.8 190.832 169.765 190.911 169.726 190.987H169.732ZM169.838 190.756C170.467 189.472 171.075 188.178 171.626 186.86H171.605C171.053 188.175 170.465 189.474 169.838 190.756ZM169.683 125.509C161.25 108.49 146.469 95.1568 128.446 88.6385C128.43 88.6323 128.415 88.6276 128.399 88.623C120.573 85.7986 112.14 84.25 103.352 84.25H54.9303V16.9537H54.9613V0.765625H1.84566C0.608649 0.765625 -0.0392996 2.25065 0.814828 3.15903L13.6701 16.8762V216.138L0.814828 229.855C-0.0377495 230.763 0.608649 232.248 1.84566 232.248H13.6701V232.254H54.9303V232.248L54.9318 220.036C54.9318 219.01 56.158 218.478 56.9067 219.181L70.8518 232.248H103.352C109.776 232.248 116.069 231.422 122.124 229.847C113.984 226.285 106.455 221.312 99.8332 215.057H78.9776V208.181H93.3567C88.9605 202.896 85.3208 197.122 82.4871 190.99H54.9303V125.512H87.1096H103.35C113.395 125.512 122.394 130.066 128.404 137.214C133.192 142.909 136.083 150.25 136.083 158.257C136.083 164.605 134.279 170.675 130.932 175.894C130.934 175.893 130.935 175.89 130.937 175.887C131.648 176.793 132.397 177.676 133.225 178.505C136.593 181.873 140.664 184.296 145.11 185.64C150.324 177.716 153.172 168.471 153.273 158.789C153.561 131.03 130.047 108.319 102.289 108.319H37.7376V207.331H37.7361V215.059H30.8612L30.8628 16.9568H37.7392V101.444H102.324C133.735 101.444 159.965 126.504 160.151 157.913C160.21 167.905 157.695 177.51 152.939 185.989C153.166 186.38 153.22 186.473 153.446 186.865H171.605C175.356 177.922 177.345 168.244 177.345 158.258C177.345 146.501 174.578 135.388 169.683 125.509ZM127.016 228.381C127.477 228.226 127.942 228.085 128.398 227.92C128.374 227.912 128.353 227.902 128.329 227.894C127.891 228.052 127.46 228.232 127.016 228.381ZM126.531 228.54C125.077 229.018 123.611 229.456 122.127 229.844C123.611 229.458 125.077 229.018 126.531 228.54Z" fill="url(#paint0_linear_35_85)"/>
<path d="M15.2221 230.699L13.672 230.693H2.15137L15.2221 216.747V16.2591L2.15137 2.3125H53.413V15.3988L53.382 16.9489V85.7954H103.354C111.757 85.7954 120.007 87.237 127.874 90.0768C145.33 96.389 160.046 109.548 168.296 126.194C173.271 136.237 175.795 147.023 175.795 158.252C175.795 167.603 174.037 176.7 170.568 185.308H155.071C159.472 176.911 161.76 167.471 161.704 157.897C161.515 125.91 134.878 99.8861 102.328 99.8861H39.2912V15.3988H29.3145L29.313 216.603H39.2881L39.2896 109.864H102.291C115.445 109.864 128.356 115.288 137.717 124.746C146.883 134.006 151.858 146.088 151.726 158.765C151.633 167.674 149.123 176.3 144.454 183.789C140.672 182.461 137.187 180.269 134.324 177.404C133.833 176.91 133.348 176.376 132.836 175.762C135.981 170.483 137.638 164.451 137.638 158.251C137.638 150.207 134.781 142.379 129.596 136.209C123.048 128.42 113.484 123.954 103.357 123.954H53.3851V192.532H81.5078C83.8779 197.5 86.7736 202.226 90.1405 206.624H77.4278V216.603H99.2212C104.713 221.712 110.813 225.979 117.408 229.328C112.783 230.234 108.074 230.693 103.352 230.693H71.4644L57.9658 218.046C57.4589 217.568 56.8001 217.308 56.1118 217.308C54.6066 217.308 53.382 218.529 53.382 220.033V230.701H15.2221V230.699Z" fill="url(#paint1_linear_35_85)"/>
<path d="M129.98 88.0866C129.452 88.2634 128.922 88.4339 128.4 88.623C128.415 88.6292 128.431 88.6338 128.446 88.6385C128.958 88.454 129.463 88.2603 129.98 88.0866ZM85.2145 129.635H85.2192C85.754 128.366 86.3213 127.113 86.9243 125.881C86.3229 127.115 85.7493 128.366 85.2145 129.635ZM134.049 86.8543C134.252 86.7985 134.456 86.7489 134.659 86.6946C134.65 86.69 134.642 86.6869 134.633 86.6822C134.436 86.7334 134.245 86.8 134.049 86.8543ZM256.039 229.855L243.127 216.077V16.9166L256.02 3.15905C256.873 2.25222 256.226 0.765625 254.989 0.765625H201.874V0.82762H201.867V84.2485H153.447C146.954 84.2485 140.663 85.1135 134.659 86.6946C142.909 90.3189 150.403 95.3413 156.871 101.44H219.058V16.9522H225.935V215.065L220.399 215.056H219.051V208.179H219.057V108.318H163.343C167.682 113.523 171.368 119.291 174.25 125.509H201.864V190.987H174.31H169.73H169.725H153.447C144.695 190.987 136.473 187.584 130.305 181.418C129.465 180.577 128.682 179.695 127.947 178.784C127.916 178.747 127.887 178.706 127.857 178.669C127.512 178.237 127.178 177.796 126.856 177.348C126.854 177.345 126.851 177.341 126.848 177.338C126.507 176.862 126.179 176.378 125.864 175.887C122.516 170.666 120.714 164.597 120.714 158.255C120.714 151.78 122.61 145.744 125.865 140.657C122.294 136.095 117.377 132.635 111.716 130.892C106.543 138.758 103.523 148.158 103.523 158.255C103.523 171.583 108.716 184.124 118.143 193.565C127.566 202.988 140.105 208.179 153.449 208.179H177.812V215.056H153.447C138.267 215.056 124.001 209.15 113.277 198.426C102.551 187.683 96.6452 173.419 96.6452 158.255C96.6452 148.2 99.2821 138.755 103.884 130.553C103.647 130.144 103.59 130.046 103.353 129.635H85.2192C81.5097 138.443 79.4526 148.113 79.4526 158.255C79.4526 169.795 82.0972 180.928 87.0669 190.988C90.6043 198.145 95.309 204.764 101.119 210.582C108.943 218.406 118.214 224.259 128.33 227.895C128.353 227.903 128.375 227.914 128.398 227.922C128.856 228.086 129.319 228.227 129.78 228.381C130.015 228.46 130.251 228.536 130.489 228.615C131.789 229.043 133.094 229.45 134.421 229.782L134.672 229.844C140.728 231.421 147.023 232.247 153.449 232.247H185.938L199.883 219.179C200.632 218.477 201.858 219.009 201.858 220.035V232.247H201.869V232.253H243.129V232.247H255.009C256.245 232.248 256.891 230.763 256.039 229.855Z" fill="url(#paint2_linear_35_85)"/>
<path d="M203.406 230.699V220.031C203.406 218.528 202.182 217.306 200.676 217.306C199.988 217.306 199.329 217.568 198.822 218.044L185.325 230.692H153.447C147.245 230.692 141.059 229.9 135.062 228.339L134.792 228.272C133.437 227.932 132.103 227.508 130.976 227.137L129.737 226.73C129.464 226.641 129.193 226.554 128.923 226.457C118.818 222.82 109.855 217.117 102.218 209.48C96.6014 203.856 91.9712 197.401 88.4585 190.293C83.512 180.284 81.0039 169.503 81.0039 158.249C81.0039 148.895 82.7711 139.795 86.2573 131.179H101.777C97.4013 139.506 95.0947 148.83 95.0947 158.249C95.0947 173.826 101.162 188.481 112.179 199.515C123.197 210.532 137.852 216.601 153.447 216.601H179.36V206.623H153.447C140.519 206.623 128.368 201.594 119.237 192.462C110.102 183.315 105.071 171.163 105.071 158.249C105.071 149.198 107.592 140.402 112.369 132.735C116.874 134.336 120.847 137.093 123.965 140.774C120.819 146.065 119.161 152.083 119.161 158.249C119.161 164.825 121.027 171.211 124.557 176.717C124.867 177.199 125.188 177.675 125.521 178.144L125.597 178.249C125.933 178.717 126.282 179.177 126.645 179.63L126.747 179.762C127.525 180.726 128.356 181.655 129.206 182.506C135.67 188.971 144.278 192.53 153.444 192.53H203.414V123.952H175.232C172.858 118.995 169.951 114.271 166.567 109.861H217.505V206.623L217.499 208.173V216.601L227.481 216.613V15.3988H217.505V99.8861H157.479C151.999 94.797 145.916 90.5419 139.342 87.1951C143.997 86.2651 148.723 85.7954 153.442 85.7954H203.412V2.3125H254.68L241.572 16.2994V216.686L254.7 230.693H241.572V230.699H203.406Z" fill="url(#paint3_linear_35_85)"/>
<defs>
<linearGradient id="paint0_linear_35_85" x1="88.8863" y1="0.76516" x2="88.8863" y2="232.253" gradientUnits="userSpaceOnUse">
<stop stop-color="#A6773E"/>
<stop offset="0.1042" stop-color="#CAA355"/>
<stop offset="0.2279" stop-color="#F0D16E"/>
<stop offset="0.29" stop-color="#FFE377"/>
<stop offset="0.4319" stop-color="#E8C869"/>
<stop offset="0.6859" stop-color="#C49C52"/>
<stop offset="0.8838" stop-color="#AE8143"/>
<stop offset="1" stop-color="#A6773E"/>
</linearGradient>
<linearGradient id="paint1_linear_35_85" x1="-42.129" y1="46.5917" x2="133.577" y2="222.297" gradientUnits="userSpaceOnUse">
<stop stop-color="#A6773E"/>
<stop offset="0.1042" stop-color="#CAA355"/>
<stop offset="0.2279" stop-color="#F0D16E"/>
<stop offset="0.29" stop-color="#FFE377"/>
<stop offset="0.4319" stop-color="#E8C869"/>
<stop offset="0.6859" stop-color="#C49C52"/>
<stop offset="0.8838" stop-color="#AE8143"/>
<stop offset="1" stop-color="#A6773E"/>
</linearGradient>
<linearGradient id="paint2_linear_35_85" x1="167.94" y1="0.76671" x2="167.94" y2="232.255" gradientUnits="userSpaceOnUse">
<stop stop-color="#A53214"/>
<stop offset="0.3045" stop-color="#DD7A2B"/>
<stop offset="1" stop-color="#90160B"/>
</linearGradient>
<linearGradient id="paint3_linear_35_85" x1="139.142" y1="66.5873" x2="278.976" y2="206.421" gradientUnits="userSpaceOnUse">
<stop stop-color="#A53214"/>
<stop offset="0.3045" stop-color="#DD7A2B"/>
<stop offset="1" stop-color="#90160B"/>
</linearGradient>
</defs>
</svg>
