<svg width="236" height="257" viewBox="0 0 236 257" fill="none" xmlns="http://www.w3.org/2000/svg">
<path d="M102.311 242.315H102.322V225.15H86.9767V242.315H82.2556V225.15H66.9099V242.315H66.9331L55.8359 254.155C55.1046 254.934 55.6584 256.209 56.7214 256.209H112.522C113.585 256.209 114.139 254.934 113.408 254.155L102.311 242.315ZM173.564 36.8058L195.768 14.1057H202.368L178.345 38.6598C183.278 40.7144 188.06 43.1686 192.604 46.0375L223.839 14.1057H223.863L234.958 2.26557C235.689 1.48618 235.136 0.210938 234.073 0.210938H164.085C163.022 0.210938 162.468 1.48618 163.199 2.26557L174.295 14.1057L156.352 32.4495C162.231 33.3831 167.992 34.8358 173.564 36.8058ZM223.839 242.315L192.675 210.454L156.104 173.068L112.226 128.21L159.81 79.5629C154.086 77.3673 147.97 76.1982 141.69 76.1402L90.7642 128.21L202.366 242.315H195.766L86.975 131.091V180.293H102.321V168.725L113.9 180.577L157.944 225.601L174.293 242.316H174.27L169.194 247.734L163.175 254.156C162.443 254.936 162.997 256.211 164.06 256.211H234.051C235.114 256.211 235.668 254.936 234.937 254.156L223.839 242.315ZM66.9314 14.1057H66.9082V180.293H82.2539V14.1057H86.975V125.33L135.103 76.1269H113.748L113.771 75.986L102.321 87.6967V14.1057H102.309L113.406 2.26557C114.138 1.48618 113.584 0.210938 112.521 0.210938H56.7198C55.6568 0.210938 55.1029 1.48618 55.8342 2.26557L66.9314 14.1057Z" fill="url(#paint0_linear_35_84)"/>
<path d="M165.079 254.543L174.992 243.965H178.214L175.481 241.147L115.088 179.41L100.664 164.648V178.628H88.6353V135.15L195.07 243.966H206.308L93.0845 128.204L142.377 77.8019C147.323 77.9147 152.166 78.7371 156.81 80.2511L109.906 128.204L222.654 243.467L233.033 254.544L165.079 254.543ZM57.7383 254.543L70.7591 240.648H68.5668V226.8H80.596V243.965H88.6353V226.8H100.664V240.648H98.4954L101.101 243.441L111.505 254.543H57.7383ZM68.5668 178.627V15.7558H70.7359L68.1423 12.9632L57.74 1.86269H111.506L98.4838 15.7558H100.666V91.7563L114.335 77.777H131.165L88.6386 121.255V12.4392H80.5993V178.627H68.5668ZM192.351 43.9199C188.822 41.7625 185.091 39.8074 181.22 38.0845L206.31 12.4375H195.07L173.115 34.884C168.78 33.4048 164.298 32.2225 159.739 31.3485L176.59 14.119L165.102 1.85938H233.056L222.921 12.673L222.654 12.9333L192.351 43.9199Z" fill="url(#paint1_linear_35_84)"/>
<path d="M111.874 205.089H60.1868H55.6067H31.5185V205.092H26.7958V51.3069H31.5185V51.3417H60.1868H62.1818V35.996H46.8858V35.9844H1.29642C0.233461 35.9844 -0.320399 37.2596 0.410902 38.039L11.4517 49.821V206.613L0.410902 218.395C-0.320399 219.174 0.233461 220.45 1.29642 220.45H11.4534H26.7991H31.5218H46.8676H46.8875V220.438H55.61H60.7623H106.725H111.877H141.204C142.865 220.438 144.515 220.388 146.155 220.302L131.279 205.092H111.874V205.089ZM213.354 128.214C213.354 107.942 204.936 89.6065 191.428 76.4878L191.464 76.4513C177.928 63.3045 160.078 56.0645 141.202 56.0645H114.754H107.041V71.4102H114.754H141.202C151.135 71.4102 160.702 73.9689 169.141 78.7497L169.121 78.7729C186.35 88.5402 198.01 107.037 198.01 128.216C198.01 149.903 185.788 168.784 167.875 178.353L178.951 189.675C199.572 176.961 213.354 154.17 213.354 128.214ZM205.399 62.1006L205.444 62.0542C201.538 58.2617 197.338 54.8738 192.92 51.8707C177.762 41.5661 159.881 35.996 141.2 35.996H122.656H114.752H107.04V51.3417H114.752H141.2C161.31 51.3417 180.331 59.056 194.753 73.0635L194.715 73.1016C209.107 87.0792 218.073 106.614 218.073 128.214C218.073 155.487 203.785 179.469 182.316 193.119L193.244 204.293C217.483 187.659 233.419 159.767 233.419 128.214C233.421 102.304 222.663 78.8708 205.399 62.1006ZM111.65 185.02H106.723H60.7606H55.6083H46.8676V71.4085H62.1834V56.0628H60.1885H31.5202V200.366H55.6083H60.1885H111.875H126.661L111.875 185.249V185.019L111.65 185.02Z" fill="url(#paint2_linear_35_84)"/>
<path d="M2.31317 218.786L13.1102 207.266V49.1623L2.31152 37.6406H45.2277L46.886 37.6522H60.5237V49.683H33.1787L31.5204 49.6482H25.1394V206.75L130.579 206.747L142.337 218.768C141.955 218.773 141.575 218.776 141.201 218.776H45.2261V218.788L2.31317 218.786ZM184.914 193.401C206.756 178.729 219.733 154.511 219.733 128.212C219.733 107.393 211.684 87.8732 197.032 73.0598L197.043 73.0465L195.911 71.8692C181.175 57.5599 161.747 49.6797 141.202 49.6797H108.7V37.6489H141.202C159.427 37.6489 176.99 43.04 191.989 53.2384C196.028 55.9828 199.827 59.0241 203.297 62.2909L204.243 63.2876C221.989 80.5254 231.762 103.582 231.762 128.211C231.762 157.576 217.466 185.103 193.45 202.125L184.914 193.401ZM33.1787 198.706V57.7191H60.5237V69.7482H45.2079V186.677H110.952L122.717 198.706H33.1787ZM170.575 178.739C188.574 168.252 199.665 149.089 199.665 128.212C199.665 107.88 188.977 88.9478 171.643 78.3331L171.665 78.3066L169.957 77.3033C161.233 72.3617 151.29 69.7482 141.201 69.7482H108.698V57.7191H141.201C159.214 57.7191 176.273 64.4683 189.382 76.7544L190.272 77.6764C204.088 91.0936 211.694 109.041 211.694 128.214C211.694 152.398 199.57 174.483 179.197 187.556L170.575 178.739Z" fill="url(#paint3_linear_35_84)"/>
<defs>
<linearGradient id="paint0_linear_35_84" x1="145.397" y1="0.211932" x2="145.397" y2="256.209" gradientUnits="userSpaceOnUse">
<stop stop-color="#A6773E"/>
<stop offset="0.1042" stop-color="#CAA355"/>
<stop offset="0.2279" stop-color="#F0D16E"/>
<stop offset="0.29" stop-color="#FFE377"/>
<stop offset="0.4319" stop-color="#E8C869"/>
<stop offset="0.6859" stop-color="#C49C52"/>
<stop offset="0.8838" stop-color="#AE8143"/>
<stop offset="1" stop-color="#A6773E"/>
</linearGradient>
<linearGradient id="paint1_linear_35_84" x1="38.3979" y1="21.203" x2="252.386" y2="235.192" gradientUnits="userSpaceOnUse">
<stop stop-color="#A6773E"/>
<stop offset="0.1042" stop-color="#CAA355"/>
<stop offset="0.2279" stop-color="#F0D16E"/>
<stop offset="0.29" stop-color="#FFE377"/>
<stop offset="0.4319" stop-color="#E8C869"/>
<stop offset="0.6859" stop-color="#C49C52"/>
<stop offset="0.8838" stop-color="#AE8143"/>
<stop offset="1" stop-color="#A6773E"/>
</linearGradient>
<linearGradient id="paint2_linear_35_84" x1="116.749" y1="35.9837" x2="116.749" y2="220.446" gradientUnits="userSpaceOnUse">
<stop stop-color="#A53214"/>
<stop offset="0.3045" stop-color="#DD7A2B"/>
<stop offset="1" stop-color="#90160B"/>
</linearGradient>
<linearGradient id="paint3_linear_35_84" x1="1.10877" y1="38.8427" x2="179.84" y2="217.574" gradientUnits="userSpaceOnUse">
<stop stop-color="#A53214"/>
<stop offset="0.3045" stop-color="#DD7A2B"/>
<stop offset="1" stop-color="#90160B"/>
</linearGradient>
</defs>
</svg>
