<svg width="211" height="257" viewBox="0 0 211 257" fill="none" xmlns="http://www.w3.org/2000/svg">
<path d="M203.688 145.968C203.688 158.498 193.471 177.068 183.318 181.117C169.953 186.45 159.093 175.783 138.146 172.635C138.017 172.635 137.824 172.635 137.632 172.635C119.318 172.635 102.997 180.86 92.0734 193.775C88.6035 197.888 85.7119 202.386 83.4629 207.269C79.9288 214.916 77.9368 223.333 77.9368 232.265C77.9368 238.691 78.9649 244.924 80.8926 250.707C65.2782 245.566 51.3344 236.827 39.8324 225.582C36.7481 216.137 35.0774 206.048 35.0774 195.51C35.0774 186.193 38.2902 168.137 40.3465 156.442C41.3103 151.109 41.9529 147.06 41.9529 145.968C41.9529 140.185 42.724 134.659 44.0734 129.325C44.1591 129.026 44.2447 128.726 44.3304 128.426C44.3732 128.383 44.4375 128.319 44.5232 128.233C44.4803 128.233 44.4375 128.233 44.3947 128.233C47.479 117.181 53.3264 107.285 61.23 99.3174C66.4991 94.0483 72.6035 89.6788 79.4147 86.4017C79.4147 86.4017 79.4361 86.4017 79.479 86.4017C79.9074 86.1875 80.3786 85.9519 80.8926 85.6949C85.1979 83.7672 117.583 80.4258 122.146 81.3897C122.36 81.4325 122.595 81.4968 122.852 81.5824C123.11 81.6253 123.367 81.6681 123.624 81.711C124.395 81.968 125.166 82.1608 125.873 82.3535C150.419 88.2009 166.483 112.426 168.411 113.968C170.081 115.253 171.881 116.474 173.68 117.631C181.648 122.707 190.836 126.177 200.732 127.398L201.182 127.783C202.788 133.566 203.688 139.671 203.688 145.968Z" fill="url(#paint0_linear_26_15825)"/>
<path d="M44.3304 128.422C44.2447 128.722 44.159 129.022 44.0733 129.321C42.7239 134.655 41.9529 140.181 41.9529 145.964C41.9529 147.056 41.3103 151.105 40.3464 156.438C28.5231 156.181 17.5352 152.84 8.02515 147.121C8.02515 147.078 8.04657 147.056 8.08941 147.056C21.7119 144.872 33.985 138.446 43.495 129.193C43.7949 128.936 44.0733 128.679 44.3304 128.422Z" fill="url(#paint1_linear_26_15825)"/>
<path d="M79.4148 86.3987C72.6036 89.6758 66.4991 94.0453 61.2301 99.3144C53.3264 107.282 47.4791 117.178 44.3947 128.23C44.3519 128.273 44.3305 128.337 44.3305 128.423C44.0734 128.68 43.795 128.937 43.4951 129.194C32.3786 126.688 14.3224 113.708 14.3224 113.451C5.90476 104.648 0.699951 92.7602 0.699951 79.6518C0.699951 62.3666 9.69593 47.202 23.1899 38.463C28.3305 35.1216 39.7682 31.0092 39.3827 30.6879C41.9529 29.0815 44.1377 26.961 45.8084 24.455C48.2501 20.9208 49.5995 16.6799 49.5995 12.1176C49.5995 7.68389 48.3144 3.50718 46.0012 0.101562C56.475 2.47907 64.2501 11.7963 64.2501 22.9771C64.2501 24.712 64.0574 26.3827 63.6718 27.9891C63.372 29.5313 62.9007 30.9878 62.2582 32.3586C60.9088 35.5714 58.7883 38.3987 56.1538 40.712C55.3827 41.3546 52.4911 43.6678 51.9128 44.3104C47.5433 48.8726 44.8445 55.0413 44.8445 61.8526C44.8445 64.1658 45.1016 66.3505 45.6799 68.4068C47.9931 77.1457 54.8044 83.957 63.4148 86.3987C64.8284 86.7843 71.5112 89.7401 79.4148 86.3987Z" fill="url(#paint2_linear_26_15825)"/>
<path d="M210.499 79.9077C209.921 92.9519 200.154 108.695 168.411 113.964C166.483 112.422 150.419 88.1969 125.873 82.3495C125.144 82.1353 124.395 81.9211 123.624 81.707C123.367 81.6641 123.11 81.6213 122.853 81.5784C123.688 81.5142 129.15 81.7712 130.563 81.7712C140.009 81.7712 149.005 81.5784 158.451 74.1889C168.09 66.5423 165.391 54.0764 165.391 44.1166C165.391 25.9961 180.106 11.2812 198.226 11.2812C200.796 11.2812 203.367 11.6025 205.744 12.1808C205.83 12.2237 205.894 12.2879 205.937 12.3736C195.27 13.8515 187.045 23.0403 187.045 34.0925C187.045 40.2612 189.551 45.7873 193.6 49.7712C193.857 50.0282 208.828 66.0282 210.114 74.7029C210.371 76.3736 210.628 78.1085 210.499 79.9077Z" fill="url(#paint3_linear_26_15825)"/>
<path d="M206.065 203.926C203.045 209.067 199.511 213.95 195.656 218.512C176.121 241.516 147.013 256.103 114.499 256.103C102.74 256.103 91.4307 254.239 80.8926 250.705C78.9649 244.922 77.9368 238.689 77.9368 232.263C77.9368 223.332 79.9287 214.914 83.4629 207.267C85.7119 202.384 88.6034 197.886 92.0733 193.773C102.997 180.858 119.318 172.633 137.632 172.633C137.824 172.633 138.017 172.633 138.146 172.633C142.13 180.536 147.72 187.412 154.595 192.874C159.736 196.922 165.648 200.199 171.945 202.384C177.921 204.504 184.346 205.661 191.029 205.725C191.201 205.725 191.372 205.725 191.543 205.725C196.555 205.725 201.439 205.083 206.065 203.926Z" fill="url(#paint4_linear_26_15825)"/>
<path style="mix-blend-mode:overlay" d="M201.182 127.779L200.732 127.394C191.222 126.173 182.29 122.96 174.515 118.141C165.198 123.281 159.607 135.362 155.174 145.835C147.913 164.47 121.953 154.125 105.375 152.004C79.3505 148.341 54.1617 160.422 36.491 180.149C35.6557 186.06 35.0774 191.586 35.0774 195.506C35.0774 206.044 36.7481 216.133 39.8324 225.578C51.3344 236.823 65.2782 245.562 80.8926 250.703C78.9649 244.92 77.9368 238.687 77.9368 232.261C77.9368 223.329 79.9288 214.912 83.4629 207.265C85.7119 202.382 88.6035 197.884 92.0734 193.771C97.2139 187.667 103.575 182.655 110.772 178.992C118.869 174.944 127.929 172.631 137.632 172.631C137.824 172.631 138.017 172.631 138.146 172.631C159.093 175.779 169.953 186.446 183.318 181.113C193.471 177.064 203.688 158.494 203.688 145.964C203.688 139.667 202.788 133.562 201.182 127.779Z" fill="url(#paint5_linear_26_15825)"/>
<path style="mix-blend-mode:overlay" d="M43.495 129.193C33.985 138.446 21.7119 144.872 8.08941 147.056C8.04657 147.056 8.02515 147.078 8.02515 147.121C8.41069 147.335 8.79622 147.549 9.18177 147.763C19.6557 150.719 31.2219 150.012 41.9529 146.542C41.9529 146.285 41.9529 146.093 41.9529 145.964C41.9529 140.181 42.7239 134.655 44.0733 129.321C44.159 129.022 44.2447 128.722 44.3304 128.422C44.0733 128.679 43.7949 128.936 43.495 129.193Z" fill="url(#paint6_linear_26_15825)"/>
<path style="mix-blend-mode:overlay" d="M63.4148 86.3987C54.8044 83.957 47.9931 77.1457 45.6799 68.4068C45.1016 66.3505 44.8445 64.1658 44.8445 61.8526C44.8445 55.0413 47.5433 48.8726 51.9128 44.3104C52.4911 43.6678 55.3827 41.3546 56.1538 40.712C58.7883 38.3987 60.9088 35.5714 62.2582 32.3586C62.9008 30.9878 63.372 29.5313 63.6718 27.9891C64.0574 26.3827 64.2502 24.712 64.2502 22.9771C64.2502 11.7963 56.4751 2.47907 46.0012 0.101562C48.3144 3.50718 49.5995 7.68389 49.5995 12.1176C49.5995 16.6799 48.2501 20.9208 45.8084 24.455C44.459 26.4469 42.7883 28.2461 40.8606 29.6598C32.8285 40.5835 22.9329 49.451 18.1779 61.7883C9.37464 83.3787 28.459 109.66 51.6558 111.459C54.3546 107.09 57.5674 102.977 61.2301 99.3144C66.4991 94.0453 72.6036 89.6758 79.4148 86.3987C71.5112 89.7401 64.8285 86.7843 63.4148 86.3987Z" fill="url(#paint7_linear_26_15825)"/>
<path style="mix-blend-mode:overlay" d="M187.045 34.0925C187.045 23.0403 195.27 13.8515 205.937 12.3736C205.894 12.2879 205.83 12.2237 205.744 12.1808C203.367 11.6025 200.796 11.2812 198.226 11.2812C180.106 11.2812 165.391 25.9961 165.391 44.1166C165.391 54.0764 168.09 66.5423 158.451 74.1889C149.005 81.5784 140.009 81.7712 130.563 81.7712C129.15 81.7712 123.688 81.5142 122.853 81.5784C123.11 81.6213 123.367 81.6641 123.624 81.707C124.395 81.9211 125.144 82.1353 125.873 82.3495C139.045 85.4981 149.776 93.9158 157.23 101.305C172.845 101.755 189.808 97.6427 195.592 83.5704C201.053 69.1126 189.937 56.1969 188.33 41.4821C187.559 39.1688 187.045 36.727 187.045 34.0925Z" fill="url(#paint8_linear_26_15825)"/>
<path style="mix-blend-mode:overlay" d="M191.543 205.725C191.372 205.725 191.201 205.725 191.029 205.725C184.346 205.661 177.921 204.504 171.945 202.384C165.648 200.199 159.736 196.922 154.595 192.874C147.72 187.412 142.13 180.536 138.146 172.633C138.017 172.633 137.824 172.633 137.632 172.633C127.929 172.633 118.869 174.946 110.772 178.994C105.632 189.532 106.788 202.191 112.636 212.215C123.688 229.308 141.358 240.617 160.636 245.629C174.13 239.139 186.081 229.822 195.656 218.512C199.511 213.95 203.045 209.067 206.065 203.926C201.439 205.083 196.555 205.725 191.543 205.725Z" fill="url(#paint9_linear_26_15825)"/>
<defs>
<linearGradient id="paint0_linear_26_15825" x1="-45.053" y1="137.11" x2="147.357" y2="1.37874" gradientUnits="userSpaceOnUse">
<stop stop-color="#E7C650"/>
<stop offset="0.5" stop-color="#D38657"/>
<stop offset="1" stop-color="#B33D6C"/>
</linearGradient>
<linearGradient id="paint1_linear_26_15825" x1="8.04828" y1="128.405" x2="44.3413" y2="128.405" gradientUnits="userSpaceOnUse">
<stop stop-color="#E7C650"/>
<stop offset="0.5" stop-color="#D38657"/>
<stop offset="1" stop-color="#B33D6C"/>
</linearGradient>
<linearGradient id="paint2_linear_26_15825" x1="74.8198" y1="-115.084" x2="205.365" y2="96.0579" gradientUnits="userSpaceOnUse">
<stop stop-color="#FFF1BF"/>
<stop offset="0.495" stop-color="#E7C650"/>
<stop offset="1" stop-color="#B33D6C"/>
</linearGradient>
<linearGradient id="paint3_linear_26_15825" x1="298.184" y1="44.7476" x2="134.697" y2="203.157" gradientUnits="userSpaceOnUse">
<stop stop-color="#FFF1BF"/>
<stop offset="0.495" stop-color="#E7C650"/>
<stop offset="1" stop-color="#B33D6C"/>
</linearGradient>
<linearGradient id="paint4_linear_26_15825" x1="276.111" y1="275.105" x2="77.7781" y2="251.772" gradientUnits="userSpaceOnUse">
<stop stop-color="#E7C650"/>
<stop offset="0.5" stop-color="#D38657"/>
<stop offset="1" stop-color="#B33D6C"/>
</linearGradient>
<linearGradient id="paint5_linear_26_15825" x1="66.1836" y1="249.069" x2="-67.9148" y2="43.2981" gradientUnits="userSpaceOnUse">
<stop stop-color="#E8FFFF" stop-opacity="0"/>
<stop offset="1" stop-color="#E8FFFF"/>
</linearGradient>
<linearGradient id="paint6_linear_26_15825" x1="-15.0406" y1="57.2514" x2="118.869" y2="258.115" gradientUnits="userSpaceOnUse">
<stop stop-color="#E8FFFF" stop-opacity="0"/>
<stop offset="1" stop-color="#E8FFFF"/>
</linearGradient>
<linearGradient id="paint7_linear_26_15825" x1="134.952" y1="119.166" x2="15.77" y2="205.843" gradientUnits="userSpaceOnUse">
<stop stop-color="#E8FFFF" stop-opacity="0"/>
<stop offset="1" stop-color="#E8FFFF"/>
</linearGradient>
<linearGradient id="paint8_linear_26_15825" x1="211.121" y1="8.60173" x2="269.545" y2="85.2829" gradientUnits="userSpaceOnUse">
<stop stop-color="#E8FFFF" stop-opacity="0"/>
<stop offset="1" stop-color="#E8FFFF"/>
</linearGradient>
<linearGradient id="paint9_linear_26_15825" x1="227.035" y1="184.676" x2="95.632" y2="370.032" gradientUnits="userSpaceOnUse">
<stop stop-color="#E8FFFF" stop-opacity="0"/>
<stop offset="1" stop-color="#E8FFFF"/>
</linearGradient>
</defs>
</svg>
