<svg width="257" height="246" viewBox="0 0 257 246" fill="none" xmlns="http://www.w3.org/2000/svg">
<path d="M189.09 195.867C184.305 200.086 179.023 204.168 173.227 208.112C153.283 221.676 133.218 229.463 124.558 232.464C115.897 229.463 95.816 221.676 75.8717 208.112C70.0921 204.167 64.7934 200.086 60.0083 195.867H189.09Z" fill="url(#paint0_linear_35_80)"/>
<path d="M124.026 173.537H71.6006C75.3566 169.833 77.9628 164.14 78.7006 157.469H114.576C116.378 164.311 119.739 169.902 124.026 173.537Z" fill="url(#paint1_linear_35_80)"/>
<path d="M174.136 23.5264C168.837 23.5264 157.981 25.1208 155.134 25.55L120.939 17.9527L103.001 25.1898L99.0401 24.521L89.4019 28.1735L86.2638 46.5915L26.4473 59.7279V46.1286C38.846 37.2282 77.0549 12.9453 124.558 12.9453C146.817 12.9453 167.037 18.2785 183.534 24.864C179.778 24.1779 176.983 23.6979 175.852 23.5953C175.353 23.56 174.787 23.5264 174.136 23.5264Z" fill="url(#paint2_linear_35_80)"/>
<path d="M195.589 173.537H158.993C163.28 169.885 166.641 164.294 168.425 157.469H186.157C187.941 164.311 191.319 169.919 195.589 173.537Z" fill="url(#paint3_linear_35_80)"/>
<path d="M206.96 195.867C174.205 230.885 124.558 245.6 124.558 245.6C124.558 245.6 74.9108 230.886 42.1567 195.867H55.3613C60.9005 200.994 67.1602 205.951 74.1223 210.684C95.4559 225.193 117.133 233.253 124.558 235.757C131.967 233.253 153.661 225.193 174.977 210.684C181.957 205.951 188.216 200.995 193.755 195.867H206.96Z" fill="url(#paint4_linear_35_80)"/>
<path d="M6.29346 182.686V173.539H242.811V182.686H6.29346Z" fill="url(#paint5_linear_35_80)"/>
<path d="M242.81 186.719H6.2915V195.865H242.81V186.719Z" fill="url(#paint6_linear_35_80)"/>
<path d="M226.389 33.4808C221.965 32.5034 209.017 29.8455 197.253 27.5296C178.731 18.5266 153.35 9.83128 124.557 9.83128C74.4641 9.83128 34.747 36.1215 23.3256 44.5582V60.4207L13.9624 62.4789C13.9624 48.571 13.9624 39.9447 13.9624 39.9447C13.9624 39.9447 60.8312 0.484375 124.558 0.484375C171.923 0.48619 209.978 22.2826 226.389 33.4808Z" fill="url(#paint7_linear_35_80)"/>
<path d="M139.372 155.644C139.281 155.753 139.19 155.871 139.1 155.97C138.992 156.097 138.883 156.214 138.747 156.323C138.521 156.541 138.276 156.74 138.032 156.903C137.77 157.057 137.525 157.165 137.263 157.256C136.991 157.347 136.728 157.383 136.466 157.383C136.33 157.383 136.177 157.383 136.04 157.347C135.904 157.32 135.796 157.301 135.66 157.256C135.044 157.076 134.447 156.703 133.912 156.097C133.776 155.943 133.623 155.79 133.496 155.617C133.36 155.436 133.225 155.237 133.088 155.037C132.852 154.639 132.608 154.195 132.382 153.706C132.319 153.579 132.255 153.444 132.201 153.299C133.215 155.843 134.755 157.482 136.484 157.482C137.571 157.482 138.585 156.794 139.454 155.662C139.426 155.663 139.399 155.654 139.372 155.644ZM139.372 155.644C138.095 155.472 136.936 154.54 136.075 153.118C135.984 152.991 135.902 152.856 135.831 152.72C135.74 152.565 135.658 152.403 135.578 152.231C135.514 152.113 135.46 151.986 135.405 151.859C134.69 150.265 134.265 148.273 134.265 146.1C134.265 141.046 136.547 136.944 139.435 136.609C138.566 135.477 137.551 134.815 136.465 134.815C133.404 134.815 130.923 139.869 130.923 146.1C130.923 148.563 131.294 150.845 131.965 152.683C131.974 152.72 131.992 152.747 132.001 152.783C132.065 152.965 132.128 153.136 132.201 153.3C133.215 155.844 134.755 157.482 136.484 157.482C137.571 157.482 138.585 156.795 139.454 155.663C139.426 155.663 139.399 155.654 139.372 155.644ZM139.372 155.644C138.095 155.472 136.936 154.54 136.075 153.118C135.984 152.991 135.902 152.856 135.831 152.72C135.74 152.565 135.658 152.403 135.578 152.231C135.514 152.113 135.46 151.986 135.405 151.859C134.69 150.265 134.265 148.273 134.265 146.1C134.265 141.046 136.547 136.944 139.435 136.609C138.566 135.477 137.551 134.815 136.465 134.815C133.404 134.815 130.923 139.869 130.923 146.1C130.923 148.563 131.294 150.845 131.965 152.683C131.974 152.72 131.992 152.747 132.001 152.783C132.065 152.965 132.128 153.136 132.201 153.3C133.215 155.844 134.755 157.482 136.484 157.482C137.571 157.482 138.585 156.795 139.454 155.663C139.426 155.663 139.399 155.654 139.372 155.644ZM256.639 56.4983C256.63 56.4892 256.63 56.4801 256.63 56.4801C256.512 56.1634 256.331 55.8821 256.105 55.638C256.096 55.6108 256.096 55.5745 256.086 55.5473C256.059 55.3658 256.023 55.1943 255.987 55.0309C255.941 54.8313 255.887 54.6325 255.823 54.442C255.452 53.2922 254.809 52.2777 253.876 51.4446C250.091 48.058 242.982 48.6369 242.121 48.7277H237.24V48.7186C236.642 47.8129 235.818 47.1069 234.84 46.6632C234.84 46.6632 231.806 39.4996 226.509 38.1865C221.202 36.9006 180.078 28.5873 175.441 28.1436C170.805 27.7271 155.146 30.1627 155.146 30.1627L154.784 30.2081L154.793 30.1536L121.331 22.7188L103.509 29.9095L99.4967 29.2307L93.4657 31.5221L90.2324 50.3856L9.51507 68.1084L6.92516 65.0929L0.76709 66.9587L1.6546 117.121V117.211L13.5361 119.594H13.7711L8.79908 129.012L11.6068 152.82L11.6159 152.92H14.9036C14.8582 153.337 14.8582 153.735 14.8582 154.161C14.8582 154.83 14.8855 155.492 14.9218 156.145C14.9671 156.797 15.0307 157.439 15.1214 158.065C15.2394 158.97 15.4109 159.858 15.6196 160.718C15.674 160.953 15.7376 161.18 15.792 161.415C15.91 161.859 16.0452 162.284 16.1813 162.71C16.1722 162.719 16.1722 162.719 16.1813 162.719C18.264 169.122 22.6107 173.542 27.6553 173.542H35.8153C39.0304 173.542 41.9733 171.721 44.2375 168.733C46.5197 171.721 49.5171 173.542 52.7958 173.542H61.1817C68.4541 173.542 74.349 164.603 74.349 153.609C74.349 153.382 74.349 153.138 74.3309 152.921H118.253C118.317 153.292 118.38 153.654 118.452 154.017C118.525 154.398 118.606 154.778 118.696 155.149C118.76 155.411 118.832 155.674 118.896 155.937C118.986 156.299 119.086 156.652 119.185 157.005C119.194 157.041 119.203 157.068 119.212 157.105C119.348 157.603 119.502 158.092 119.656 158.581C119.665 158.617 119.674 158.645 119.692 158.681C119.819 159.052 119.955 159.414 120.091 159.768C120.191 160.039 120.299 160.302 120.407 160.565C123.568 168.353 129.246 173.542 135.73 173.542H147.259C155.708 173.542 162.781 164.758 164.755 152.922H189.252L189.832 152.877C189.95 153.583 190.086 154.271 190.24 154.959C190.467 155.974 190.729 156.961 191.027 157.911C191.299 158.781 191.598 159.614 191.924 160.429C195.085 168.289 200.79 173.542 207.301 173.542H218.83C228.148 173.542 235.774 162.873 236.77 149.19L240.827 148.882L244.377 146.265L245.618 130.697L245.6 130.652L244.287 127.709L243.761 126.532L238.853 127.465H189.252L175.107 126.958L175.125 126.858L175.66 123.009L175.641 122.928V122.909L172.843 112.052C172.834 112.015 172.825 111.988 172.825 111.952C172.688 111.336 172.544 110.493 172.399 109.453C172.372 109.235 172.335 109.009 172.308 108.782C172.054 106.88 171.792 104.444 171.511 101.655C170.913 95.5148 170.271 87.6453 169.609 79.9472C169.564 79.3946 169.51 78.8338 169.464 78.2811C169.464 78.2539 169.464 78.2267 169.455 78.1904C169.364 77.1123 169.274 76.0442 169.184 74.9934C169.039 73.3545 168.894 71.751 168.749 70.1938C168.586 68.3734 168.414 66.6075 168.251 64.9414C168.106 63.5103 167.961 62.1518 167.816 60.8659C167.771 60.4403 167.726 60.0238 167.68 59.6254C167.608 59.0183 167.535 58.4303 167.462 57.8686C167.417 57.4974 167.372 57.1353 167.326 56.7823C167.299 56.5291 167.263 56.2841 167.217 56.0491C167.19 55.8495 167.163 55.6416 167.136 55.4511C167.036 54.7088 166.918 54.0381 166.81 53.4501C166.864 54.1289 167.743 66.2644 168.214 79.9481C168.295 82.9818 168.386 86.1062 168.432 89.2125C168.522 94.9359 164.021 99.6992 158.28 99.8807L130.94 100.814L130.369 101.583L130.296 101.674C130.296 101.674 148.454 101.52 153.951 101.674C160.118 101.864 163.868 105.948 165.996 111.582C166.132 111.962 166.267 112.351 166.394 112.74C166.612 113.384 166.802 114.044 166.974 114.715C167.327 116.083 167.608 117.514 167.825 118.962C168.206 121.497 168.387 124.133 168.414 126.714L163.18 126.532H148.473C148.563 127.194 148.654 127.954 148.744 128.769C148.88 130.254 148.962 131.966 148.944 133.894H147.413C147.231 132.101 147.014 130.435 146.742 128.922C146.588 128.08 146.435 127.283 146.262 126.531C145.927 125.136 145.574 123.869 145.149 122.692C144.66 121.279 144.107 120.011 143.492 118.834C142.36 116.642 141.046 114.822 139.561 113.138C135.151 108.13 129.699 107.487 125.325 107.487H121.82C121.83 107.451 121.839 107.424 121.848 107.387C122.608 103.955 125.37 100.296 125.416 100.26L125.597 100.016L125.57 99.6992C125.57 99.5267 125.308 91.8568 125.126 82.6106C124.954 72.1603 124.909 59.7261 125.57 53.8485C126.765 43.4525 130.497 38.6611 132.045 37.0858C137.923 35.8634 145.792 34.269 152.023 33.1192C152.023 33.1192 169.945 29.8768 174.463 29.8768C179.01 29.8768 221.428 38.417 225.422 39.6122C229.063 40.6902 231.589 45.1187 231.988 45.87C232.033 45.9426 232.051 45.9789 232.051 45.9789L175.197 36.3525C172.081 35.8271 169.274 37.9016 168.613 40.7991C168.604 40.8354 168.595 40.8626 168.586 40.8989H172.027C172.887 40.8082 180.005 40.2111 183.772 43.6068C184.633 44.3491 185.231 45.2276 185.611 46.233C185.665 46.3782 185.711 46.5225 185.756 46.6677C185.801 46.8401 185.847 47.0116 185.892 47.1841C185.937 47.3474 185.974 47.5189 186.001 47.7004C186.01 47.7276 186.01 47.7639 186.019 47.7912C186.309 48.1079 186.536 48.4972 186.626 48.9318C186.635 48.9772 186.644 49.0316 186.653 49.0861C186.672 49.195 186.681 49.3039 186.681 49.4119V69.1003C186.681 70.0332 186.128 70.8571 185.304 71.2374L184.58 71.5632C183.212 72.1702 181.664 71.3907 181.347 69.9696C181.338 69.9333 181.328 69.897 181.319 69.8607L177.66 49.8375C177.642 49.7649 177.633 49.6923 177.624 49.6115C177.615 49.5389 177.615 49.4754 177.615 49.4037C177.615 49.322 177.615 49.2495 177.624 49.1678C177.742 48.018 178.702 47.0851 179.943 47.0851H183.176C183.158 47.0488 183.149 47.0125 183.131 46.9853C182.868 46.4327 182.533 45.9526 182.044 45.5361C179.499 43.2266 174.083 43.272 172.245 43.4716H168.54L171.139 71.0114C171.148 71.1475 171.167 71.2918 171.185 71.4279C171.212 71.555 171.239 71.6902 171.276 71.8082C171.303 71.9352 171.339 72.0704 171.384 72.1975C171.955 74.0995 173.485 75.5932 175.46 76.0914C181.183 77.5497 186.481 78.7539 191.408 79.7503C215.488 84.6497 230.167 84.5408 237.612 83.8258C240.184 83.5816 242.159 81.6796 242.648 79.3247H242.675C242.802 78.7267 242.838 78.1114 242.766 77.4862C242.757 77.341 242.739 77.2058 242.711 77.0606L242.693 76.9698L238.174 51.323H242.186L242.331 51.3139C244.188 51.1152 249.576 51.078 252.148 53.3784C252.619 53.795 252.981 54.2841 253.217 54.8367C253.235 54.8639 253.253 54.9002 253.262 54.9275H250.038C248.807 54.9275 247.829 55.8694 247.711 57.0101C247.701 57.0918 247.701 57.1644 247.701 57.2451C247.701 57.3087 247.701 57.3722 247.711 57.4357C247.711 57.4902 247.72 57.5446 247.729 57.59C247.729 57.6172 247.729 57.6535 247.738 57.6807L250.771 74.2447L251.406 77.704C251.415 77.7403 251.424 77.7856 251.433 77.8219C251.768 79.2439 253.317 80.0135 254.666 79.4064L255.39 79.0806C256.224 78.7004 256.767 77.8673 256.767 76.9526V57.2651C256.766 56.9874 256.721 56.7333 256.639 56.4983ZM200.944 153.045C200.863 152.72 200.772 152.376 200.699 152.031L215.579 150.854H215.615C214.574 156.976 211.585 161.386 208.062 161.386C204.965 161.386 202.276 157.999 200.944 153.045ZM243.327 136.88C243.354 137.007 243.381 137.134 243.399 137.269C243.426 137.469 243.445 137.677 243.445 137.885C243.445 139.326 242.757 140.475 241.896 140.475C241.226 140.475 240.647 139.787 240.42 138.8C240.393 138.673 240.366 138.547 240.347 138.411C240.329 138.238 240.32 138.067 240.32 137.885C240.32 136.463 241.027 135.286 241.896 135.286C242.458 135.286 242.956 135.794 243.228 136.545C243.264 136.654 243.299 136.762 243.327 136.88ZM233.003 140.539L220.098 141.119L215.579 141.345L201.832 141.961C201.207 141.988 200.745 141.59 200.582 141.055C200.573 141.019 200.564 140.992 200.564 140.955C200.546 140.919 200.546 140.874 200.537 140.837C200.501 140.557 200.564 140.248 200.746 139.986L200.809 139.877L204.912 134C205.156 133.647 205.528 133.447 205.926 133.447L230.767 133.356C231.256 133.356 231.7 133.646 231.917 134.089L232.47 135.285L234.09 138.771C234.127 138.844 234.154 138.925 234.172 138.998C234.362 139.733 233.827 140.502 233.003 140.539ZM196.343 152.946C196.398 153.163 196.452 153.38 196.507 153.597C196.507 153.634 196.516 153.661 196.525 153.688C196.552 153.761 196.57 153.824 196.598 153.888C196.725 154.449 196.905 154.975 197.087 155.49C197.241 155.979 197.412 156.441 197.612 156.903C197.657 156.994 197.703 157.066 197.73 157.147C197.948 157.664 198.174 158.125 198.409 158.596C199.568 160.779 200.999 162.536 202.638 163.776C202.728 163.849 202.819 163.921 202.909 163.985C198.942 162.454 195.727 158.125 194.351 152.52H194.36L196.216 152.366C196.254 152.565 196.299 152.755 196.343 152.946ZM15.2394 131.827L15.2757 131.764L20.401 122.961L70.8253 121.648L77.2094 136.301L77.2547 136.401H62.7289L61.4703 133.647L57.54 125.225L22.9728 125.733L17.2313 132.578L15.2394 131.827ZM109.097 114.466L112.801 111.405H117.701L113.354 115.417L112.801 115.934V135.884H109.097V114.466ZM53.3294 164.665C51.1106 164.665 49.1813 162.292 48.204 158.814C48.1949 158.778 48.1859 158.751 48.1859 158.714C48.1223 158.524 48.077 158.325 48.0407 158.125C47.9045 157.555 47.7966 156.958 47.7149 156.332C47.606 155.463 47.5425 154.548 47.5425 153.606C47.5425 153.361 47.5425 153.135 47.5606 152.918C47.606 151.451 47.7866 150.056 48.0951 148.816C49.028 145.084 51.0199 142.513 53.3294 142.513C55.6389 142.513 57.6308 145.084 58.5546 148.834C58.6272 149.142 58.6998 149.468 58.7633 149.794C58.9539 150.772 59.0619 151.822 59.0981 152.918C59.1163 153.135 59.1163 153.362 59.1163 153.606C59.1163 159.72 56.5264 164.665 53.3294 164.665ZM43.2048 157.645C42.9244 156.369 42.7792 155.019 42.7792 153.606C42.7792 153.361 42.7792 153.135 42.7973 152.918C42.9334 148.907 44.2647 145.357 46.2747 143.047C47.1259 142.042 48.1223 141.29 49.1995 140.81C49.3084 140.765 49.4082 140.719 49.5162 140.674C49.2449 140.873 48.9817 141.072 48.7376 141.344C48.538 141.498 48.3664 141.669 48.185 141.869C47.6323 142.449 47.1169 143.137 46.655 143.915V143.934C46.5188 144.133 46.4099 144.332 46.3201 144.532C46.1205 144.885 45.949 145.265 45.7947 145.645C45.7221 145.818 45.6313 146.016 45.5687 146.216C45.478 146.397 45.4145 146.614 45.3509 146.814C45.0342 147.638 44.8164 148.525 44.6358 149.431C44.5451 149.902 44.4634 150.391 44.4181 150.871C44.3727 151.08 44.3455 151.251 44.3455 151.451C44.3455 151.451 44.3455 151.451 44.3455 151.478C44.3001 151.94 44.2638 152.429 44.2638 152.918C44.2366 153.135 44.2366 153.38 44.2366 153.606C44.2366 154.594 44.3001 155.554 44.4271 156.486C44.5088 157.147 44.6268 157.799 44.7801 158.424C45.233 160.417 45.9662 162.2 46.8809 163.658C46.8991 163.676 46.9081 163.695 46.9172 163.713C46.8355 163.984 46.7448 164.247 46.6096 164.51C45.4326 163.278 44.4634 161.648 43.8019 159.746C43.5578 159.077 43.359 158.371 43.2048 157.645ZM28.1626 164.936C26.442 164.936 24.9021 163.45 23.8794 161.097C23.8068 160.942 23.7432 160.78 23.6806 160.616C23.608 160.444 23.5445 160.263 23.481 160.082C23.3812 159.793 23.2904 159.493 23.2097 159.185C22.7931 157.682 22.5572 155.97 22.5572 154.159C22.5572 153.733 22.5753 153.335 22.5935 152.918C22.9102 147.548 25.2832 143.383 28.1626 143.383C30.3451 143.383 32.2199 145.729 33.1618 149.161C33.3161 149.704 33.4422 150.284 33.533 150.872C33.651 151.533 33.7236 152.212 33.768 152.918C33.768 153.335 33.7952 153.733 33.7952 154.159C33.7952 160.1 31.287 164.936 28.1626 164.936ZM17.92 154.159C17.92 153.733 17.9382 153.317 17.9654 152.918C18.3093 147.566 20.8357 143.174 24.2233 141.679C24.3322 141.634 24.4402 141.589 24.5491 141.543C23.9692 141.96 23.4175 142.476 22.9102 143.047C22.5753 143.427 22.2677 143.844 21.9773 144.288C21.4428 145.112 20.9809 146.044 20.5825 147.041C20.5372 147.213 20.4646 147.394 20.401 147.575C19.9754 148.816 19.6497 150.165 19.4954 151.605C19.45 151.895 19.4228 152.203 19.4046 152.493C19.3774 152.629 19.3774 152.782 19.3774 152.918C19.3593 153.317 19.332 153.733 19.332 154.159C19.332 154.712 19.3593 155.291 19.4046 155.816C19.4228 156.105 19.45 156.423 19.4954 156.703C19.5135 156.903 19.5408 157.111 19.568 157.311C19.5952 157.51 19.6315 157.709 19.6587 157.9C19.695 158.099 19.7313 158.289 19.7767 158.488C19.8039 158.643 19.8402 158.805 19.8856 158.959C19.931 159.15 19.9763 159.331 20.0308 159.521C20.1306 159.883 20.2486 160.245 20.3656 160.599C20.3656 160.636 20.3838 160.663 20.3929 160.69C20.4564 160.862 20.5199 161.034 20.5834 161.206C20.7559 161.677 20.9364 162.121 21.1542 162.538C21.3993 163.054 21.6887 163.543 21.9782 164.005C22.6479 165.02 23.4093 165.871 24.2514 166.531C24.324 166.595 24.4057 166.658 24.4865 166.713C21.6334 165.608 19.3429 162.448 18.401 158.363C18.2467 157.72 18.1296 157.059 18.048 156.371C17.9654 155.654 17.92 154.911 17.92 154.159ZM120.118 107.484C115.635 107.484 113.906 107.484 113.906 107.484L113.915 107.384L114.222 104.487L116.632 100.059C116.632 100.059 116.632 98.8089 116.632 96.4813V84.4909H116.613L93.0855 80.7594L87.4075 111.478L87.9238 114.928L13.7629 116.993L4.20911 115.073V114.991L3.39421 68.868L6.05672 68.0621L8.55588 70.9688L92.4975 52.5399L95.7671 33.4132L99.7608 31.9014L103.8 32.5802L121.559 25.4166L146.989 31.0765L147.279 31.14L145.15 31.4023L123.307 29.6091L100.956 38.1856L98.5557 51.1814L98.5376 51.2722L117.519 54.2877C119.412 42.605 123.641 38.829 123.641 38.829C123.641 38.829 125.878 38.349 129.264 37.652C129.301 37.652 129.328 37.6429 129.364 37.6339C127.408 40.2692 124.863 45.2139 123.885 53.6452C123.152 60.2107 123.269 74.4017 123.487 85.3058C123.641 92.3605 123.84 98.0385 123.885 99.4514C123.197 100.456 120.734 103.997 120.118 107.484ZM186.418 138.247C186.482 138.473 186.509 138.718 186.509 138.972C186.509 140.674 185.133 142.069 183.421 142.069C181.908 142.069 180.632 140.964 180.369 139.524C180.351 139.443 180.342 139.37 180.333 139.288C180.324 139.179 180.315 139.08 180.315 138.972C180.315 137.26 181.719 135.883 183.421 135.883C184.798 135.883 185.957 136.771 186.364 138.011C186.382 138.094 186.409 138.166 186.418 138.247ZM136.465 130.885C138.44 130.885 140.232 132.262 141.627 134.544C142.098 135.332 142.542 136.237 142.904 137.261C142.913 137.279 142.922 137.306 142.931 137.325C142.976 137.47 143.031 137.596 143.076 137.741C143.094 137.786 143.112 137.832 143.121 137.877C143.248 138.239 143.366 138.61 143.474 138.991C143.529 139.181 143.574 139.38 143.629 139.571C143.674 139.743 143.71 139.924 143.747 140.096C143.783 140.214 143.81 140.331 143.828 140.449C143.91 140.811 143.983 141.182 144.037 141.562C144.281 143.021 144.417 144.569 144.417 146.172C144.417 154.576 140.849 161.387 136.484 161.387C133.767 161.387 131.377 158.815 129.964 154.858C129.901 154.694 129.837 154.532 129.792 154.36C129.71 154.133 129.637 153.898 129.566 153.663C129.52 153.536 129.484 153.408 129.448 153.282C129.402 153.128 129.357 152.984 129.321 152.83C129.312 152.802 129.302 152.757 129.302 152.73C128.786 150.737 128.506 148.474 128.506 146.101C128.504 137.695 132.072 130.885 136.465 130.885ZM131.275 128.341C130.741 128.721 130.252 129.156 129.763 129.627C129.518 129.871 129.301 130.116 129.057 130.378C129.029 130.405 129.057 130.405 129.057 130.405C128.812 130.667 128.586 130.958 128.369 131.247C127.771 132.044 127.219 132.932 126.73 133.901C126.548 134.217 126.395 134.525 126.259 134.834C126.195 135.015 126.105 135.187 126.015 135.395C125.815 135.83 125.644 136.301 125.489 136.79C125.308 137.279 125.154 137.768 125.018 138.276C125 138.384 124.955 138.52 124.909 138.629C124.801 139.136 124.664 139.652 124.556 140.177C124.466 140.711 124.358 141.246 124.285 141.779C124.249 142.069 124.203 142.332 124.176 142.621C124.131 142.993 124.085 143.391 124.067 143.798C124.004 144.55 123.977 145.32 123.977 146.099C123.977 146.877 124.004 147.656 124.067 148.426C124.085 148.825 124.131 149.205 124.176 149.585C124.203 149.866 124.249 150.138 124.285 150.427C124.403 151.224 124.556 152.021 124.729 152.8C124.738 152.828 124.747 152.855 124.756 152.891C124.792 153.045 124.829 153.19 124.865 153.326C124.892 153.435 124.919 153.543 124.956 153.652C124.983 153.77 125.01 153.887 125.046 154.005C125.083 154.123 125.119 154.232 125.155 154.349C125.201 154.548 125.264 154.747 125.337 154.938C125.355 155.01 125.382 155.092 125.409 155.164C125.428 155.21 125.437 155.255 125.455 155.301C125.464 155.346 125.482 155.382 125.491 155.419C125.491 155.446 125.5 155.464 125.509 155.491C125.6 155.735 125.682 155.98 125.772 156.224C125.88 156.532 126.016 156.841 126.152 157.148C126.351 157.574 126.55 158.018 126.75 158.416C126.859 158.634 126.994 158.878 127.13 159.104C127.302 159.411 127.483 159.72 127.655 160.009C127.927 160.435 128.217 160.833 128.498 161.205C128.697 161.449 128.878 161.676 129.059 161.874C129.685 162.607 130.345 163.242 131.069 163.776C131.16 163.849 131.251 163.921 131.341 163.985C127.99 162.699 125.192 159.43 123.571 155.065C123.471 154.839 123.389 154.594 123.308 154.359C123.208 154.069 123.117 153.788 123.027 153.489C122.964 153.299 122.918 153.109 122.864 152.918H122.873C122.864 152.882 122.855 152.855 122.846 152.819C122.293 150.736 121.986 148.472 121.986 146.099C121.984 137.56 125.932 130.405 131.275 128.341ZM239.143 79.6995C238.699 80.2975 238.056 80.6505 237.305 80.7413C236.372 80.832 235.375 80.8955 234.353 80.9591L233.583 79.3919L217.59 46.6813L217.626 46.6904L222.96 47.587L239.279 79.3465L239.288 79.3737L239.325 79.4554C239.261 79.5461 239.216 79.6087 239.143 79.6995ZM219.147 80.6777L218.594 79.5189L201.207 43.8918L201.243 43.9008L214.737 46.1922L231.78 79.41L232.55 80.9318L232.604 81.0317C231.535 81.077 230.431 81.0952 229.28 81.0952C226.509 81.0943 223.132 80.9854 219.147 80.6777ZM132 152.782C132.064 152.964 132.128 153.135 132.201 153.299C133.215 155.843 134.755 157.482 136.484 157.482C137.571 157.482 138.585 156.794 139.454 155.662C139.427 155.662 139.399 155.654 139.372 155.644C138.095 155.472 136.936 154.54 136.075 153.118C135.984 152.991 135.902 152.856 135.831 152.72C135.74 152.565 135.658 152.403 135.578 152.231C135.514 152.113 135.46 151.986 135.405 151.859C134.69 150.265 134.265 148.272 134.265 146.099C134.265 141.045 136.547 136.943 139.435 136.608C138.566 135.476 137.551 134.814 136.465 134.814C133.404 134.814 130.923 139.868 130.923 146.099C130.923 148.562 131.294 150.844 131.965 152.683C131.973 152.719 131.991 152.746 132 152.782ZM139.372 155.644C139.281 155.753 139.19 155.871 139.1 155.97C138.992 156.097 138.883 156.214 138.747 156.323C138.521 156.541 138.276 156.74 138.032 156.903C137.77 157.057 137.525 157.165 137.263 157.256C136.991 157.347 136.728 157.383 136.466 157.383C136.33 157.383 136.177 157.383 136.04 157.347C135.904 157.32 135.796 157.301 135.66 157.256C135.044 157.076 134.447 156.703 133.912 156.097C133.776 155.943 133.623 155.79 133.496 155.617C133.36 155.436 133.225 155.237 133.088 155.037C132.852 154.639 132.608 154.195 132.382 153.706C132.319 153.579 132.255 153.444 132.201 153.299C133.215 155.843 134.755 157.482 136.484 157.482C137.571 157.482 138.585 156.794 139.454 155.662C139.426 155.663 139.399 155.654 139.372 155.644Z" fill="url(#paint8_linear_35_80)"/>
<path d="M30.2913 147.442C29.6706 146.644 28.9609 146.156 28.1624 146.156C26.2113 146.156 24.5924 149.106 24.3265 152.92C24.282 153.319 24.2603 153.74 24.2603 154.161C24.2603 158.573 26.0117 162.166 28.1624 162.166C28.9609 162.166 29.6706 161.678 30.2913 160.88C28.2513 160.636 26.6324 157.731 26.6324 154.161C26.6324 153.74 26.6542 153.318 26.6986 152.92C27.0308 149.926 28.4945 147.664 30.2913 147.442Z" fill="url(#paint9_linear_35_80)"/>
<path d="M55.5028 146.682C54.8821 145.84 54.128 145.352 53.3294 145.352C51.2005 145.352 49.4709 148.677 49.3157 152.913C49.2939 153.134 49.2939 153.356 49.2939 153.6C49.2939 158.145 51.0898 161.826 53.3294 161.826C54.128 161.826 54.8812 161.337 55.5028 160.495C53.3966 160.251 51.7332 157.28 51.7332 153.6C51.7332 153.355 51.7332 153.134 51.7777 152.913C51.9546 149.52 53.5291 146.904 55.5028 146.682Z" fill="url(#paint10_linear_35_80)"/>
<path d="M156.526 39.9124L138.721 42.8616C136.282 43.2609 134.33 45.0568 133.687 47.4289C131.758 54.6578 131.802 68.7381 132.268 80.2456C132.644 90.1797 133.332 98.2062 133.332 98.2062H134.951V80.2239V68.6936C141.847 71.6202 152.025 73.4832 158.433 74.4587C161.671 74.946 164.553 72.5077 164.642 69.248C164.996 56.5208 164.465 49.1812 163.688 44.9461C163.09 41.5975 159.897 39.3579 156.526 39.9124Z" fill="url(#paint11_linear_35_80)"/>
<path d="M179.099 110.409L181.893 119.944C182.048 120.432 182.403 120.808 182.89 120.985L188.434 122.981C188.589 123.025 188.767 123.047 188.922 123.07L201.894 123.491C202.493 123.513 203.07 123.181 203.357 122.648L205.552 118.523C206.018 117.659 205.597 116.572 204.643 116.262L181.117 108.457C179.897 108.036 178.722 109.167 179.099 110.409Z" fill="url(#paint12_linear_35_80)"/>
<path d="M238.458 123.47L242.782 123.137C242.937 123.137 243.093 123.092 243.226 123.003L243.781 122.671C244.069 122.494 244.246 122.205 244.269 121.872L244.757 115.619C244.957 109.654 244.889 105.464 244.779 102.559C244.757 102.493 244.757 102.404 244.757 102.337C244.646 99.9426 244.468 98.457 244.336 97.5478C244.314 97.2819 244.27 97.0605 244.247 96.8826L244.202 96.3281L244.18 96.4397L243.692 98.9679C243.403 106.906 243.049 111.718 242.716 114.623L242.672 114.6L237.017 118.88C236.684 119.124 236.552 119.545 236.662 119.944L237.416 122.738C237.55 123.204 237.993 123.492 238.458 123.47Z" fill="url(#paint13_linear_35_80)"/>
<path d="M94.0381 75.655L116.644 79.2277C116.644 75.332 116.644 70.9716 116.644 66.1466C116.644 63.7037 116.746 61.4831 116.91 59.4268L97.6035 56.375L94.0381 75.655Z" fill="url(#paint14_linear_35_80)"/>
<path d="M51.29 67.8828L38.0128 70.6615L31.1978 112.096L45.4504 111.57L52.2846 69.6342L51.29 67.8828Z" fill="url(#paint15_linear_35_80)"/>
<path d="M30.6809 72.2031L21.6752 74.0879L21.0663 77.6098L21.1053 77.6779L15.0044 112.7L26.678 112.27L32.6773 75.7205L30.6809 72.2031Z" fill="url(#paint16_linear_35_80)"/>
<path d="M72.1141 63.5234L57.2915 66.6261L49.9746 111.402L66.3317 110.799L73.7185 66.3484L72.1141 63.5234Z" fill="url(#paint17_linear_35_80)"/>
<path d="M14.7855 75.5312L6.80891 77.201L5.99854 111.408L10.5495 112.42L16.4262 78.4206L14.7855 75.5312Z" fill="url(#paint18_linear_35_80)"/>
<path d="M78.3511 65.5254L78.352 65.5272L70.8545 110.633L82.1651 110.216L90.3696 59.7031L78.921 62.0997L78.3511 65.5254Z" fill="url(#paint19_linear_35_80)"/>
<path d="M242.671 96.2221L243.359 91.7873C243.648 89.9243 242.295 88.2836 240.588 88.3943C233.071 88.8154 213.381 89.1929 186.573 84.2254C184.777 83.915 183.202 85.5557 183.446 87.5295L184.178 93.4498C196.217 95.2466 218.568 97.7294 242.671 96.2221Z" fill="url(#paint20_linear_35_80)"/>
<path d="M235.908 106.769C238.946 106.591 241.452 104.108 241.94 100.826L242.406 97.8763C237.306 98.1866 232.295 98.3418 227.439 98.3418C209.611 98.3418 193.956 96.5459 184.399 95.1484L184.909 99.1177C185.309 102.399 187.725 104.905 190.719 105.193C200.031 106.059 220.232 107.632 235.908 106.769Z" fill="url(#paint21_linear_35_80)"/>
<defs>
<linearGradient id="paint0_linear_35_80" x1="73.3611" y1="-144.379" x2="135.069" y2="265.797" gradientUnits="userSpaceOnUse">
<stop stop-color="#FCAF17"/>
<stop offset="0.0343" stop-color="#FCAE16"/>
<stop offset="0.5782" stop-color="#FE9E06"/>
<stop offset="1" stop-color="#FF9800"/>
</linearGradient>
<linearGradient id="paint1_linear_35_80" x1="57.1779" y1="-96.5689" x2="118.886" y2="313.605" gradientUnits="userSpaceOnUse">
<stop stop-color="#FCAF17"/>
<stop offset="0.0343" stop-color="#FCAE16"/>
<stop offset="0.5782" stop-color="#FE9E06"/>
<stop offset="1" stop-color="#FF9800"/>
</linearGradient>
<linearGradient id="paint2_linear_35_80" x1="83.5019" y1="-100.536" x2="145.21" y2="309.637" gradientUnits="userSpaceOnUse">
<stop stop-color="#FCAF17"/>
<stop offset="0.1609" stop-color="#FDA911"/>
<stop offset="0.5739" stop-color="#FE9E06"/>
<stop offset="1" stop-color="#FF9800"/>
</linearGradient>
<linearGradient id="paint3_linear_35_80" x1="134.896" y1="-108.262" x2="196.604" y2="301.912" gradientUnits="userSpaceOnUse">
<stop stop-color="#FCAF17"/>
<stop offset="0.0343" stop-color="#FCAE16"/>
<stop offset="0.5782" stop-color="#FE9E06"/>
<stop offset="1" stop-color="#FF9800"/>
</linearGradient>
<linearGradient id="paint4_linear_35_80" x1="107.382" y1="-160.528" x2="129.161" y2="291.39" gradientUnits="userSpaceOnUse">
<stop stop-color="#00D2F4"/>
<stop offset="0.0756" stop-color="#00B3D2"/>
<stop offset="0.1933" stop-color="#0088A3"/>
<stop offset="0.3056" stop-color="#00677D"/>
<stop offset="0.4094" stop-color="#004F63"/>
<stop offset="0.5018" stop-color="#004053"/>
<stop offset="0.5732" stop-color="#003B4D"/>
<stop offset="0.6698" stop-color="#003041"/>
<stop offset="0.8065" stop-color="#002738"/>
<stop offset="1" stop-color="#002435"/>
</linearGradient>
<linearGradient id="paint5_linear_35_80" x1="110.412" y1="-115.301" x2="132.191" y2="336.615" gradientUnits="userSpaceOnUse">
<stop stop-color="#00D2F4"/>
<stop offset="0.0756" stop-color="#00B3D2"/>
<stop offset="0.1933" stop-color="#0088A3"/>
<stop offset="0.3056" stop-color="#00677D"/>
<stop offset="0.4094" stop-color="#004F63"/>
<stop offset="0.5018" stop-color="#004053"/>
<stop offset="0.5732" stop-color="#003B4D"/>
<stop offset="0.6698" stop-color="#003041"/>
<stop offset="0.8065" stop-color="#002738"/>
<stop offset="1" stop-color="#002435"/>
</linearGradient>
<linearGradient id="paint6_linear_35_80" x1="107.595" y1="-160.54" x2="129.375" y2="291.377" gradientUnits="userSpaceOnUse">
<stop stop-color="#00D2F4"/>
<stop offset="0.0756" stop-color="#00B3D2"/>
<stop offset="0.1933" stop-color="#0088A3"/>
<stop offset="0.3056" stop-color="#00677D"/>
<stop offset="0.4094" stop-color="#004F63"/>
<stop offset="0.5018" stop-color="#004053"/>
<stop offset="0.5732" stop-color="#003B4D"/>
<stop offset="0.6698" stop-color="#003041"/>
<stop offset="0.8065" stop-color="#002738"/>
<stop offset="1" stop-color="#002435"/>
</linearGradient>
<linearGradient id="paint7_linear_35_80" x1="112.303" y1="-115.389" x2="134.082" y2="336.529" gradientUnits="userSpaceOnUse">
<stop stop-color="#00D2F4"/>
<stop offset="0.0756" stop-color="#00B3D2"/>
<stop offset="0.1933" stop-color="#0088A3"/>
<stop offset="0.3056" stop-color="#00677D"/>
<stop offset="0.4094" stop-color="#004F63"/>
<stop offset="0.5018" stop-color="#004053"/>
<stop offset="0.5732" stop-color="#003B4D"/>
<stop offset="0.6698" stop-color="#003041"/>
<stop offset="0.8065" stop-color="#002738"/>
<stop offset="1" stop-color="#002435"/>
</linearGradient>
<linearGradient id="paint8_linear_35_80" x1="119.431" y1="-115.734" x2="141.21" y2="336.185" gradientUnits="userSpaceOnUse">
<stop stop-color="#00D2F4"/>
<stop offset="0.0756" stop-color="#00B3D2"/>
<stop offset="0.1933" stop-color="#0088A3"/>
<stop offset="0.3056" stop-color="#00677D"/>
<stop offset="0.4094" stop-color="#004F63"/>
<stop offset="0.5018" stop-color="#004053"/>
<stop offset="0.5732" stop-color="#003B4D"/>
<stop offset="0.6698" stop-color="#003041"/>
<stop offset="0.8065" stop-color="#002738"/>
<stop offset="1" stop-color="#002435"/>
</linearGradient>
<linearGradient id="paint9_linear_35_80" x1="14.664" y1="-110.682" x2="36.4432" y2="341.237" gradientUnits="userSpaceOnUse">
<stop stop-color="#00D2F4"/>
<stop offset="0.0756" stop-color="#00B3D2"/>
<stop offset="0.1933" stop-color="#0088A3"/>
<stop offset="0.3056" stop-color="#00677D"/>
<stop offset="0.4094" stop-color="#004F63"/>
<stop offset="0.5018" stop-color="#004053"/>
<stop offset="0.5732" stop-color="#003B4D"/>
<stop offset="0.6698" stop-color="#003041"/>
<stop offset="0.8065" stop-color="#002738"/>
<stop offset="1" stop-color="#002435"/>
</linearGradient>
<linearGradient id="paint10_linear_35_80" x1="39.76" y1="-111.899" x2="61.5393" y2="340.022" gradientUnits="userSpaceOnUse">
<stop stop-color="#00D2F4"/>
<stop offset="0.0756" stop-color="#00B3D2"/>
<stop offset="0.1933" stop-color="#0088A3"/>
<stop offset="0.3056" stop-color="#00677D"/>
<stop offset="0.4094" stop-color="#004F63"/>
<stop offset="0.5018" stop-color="#004053"/>
<stop offset="0.5732" stop-color="#003B4D"/>
<stop offset="0.6698" stop-color="#003041"/>
<stop offset="0.8065" stop-color="#002738"/>
<stop offset="1" stop-color="#002435"/>
</linearGradient>
<linearGradient id="paint11_linear_35_80" x1="139.561" y1="-116.711" x2="161.34" y2="335.208" gradientUnits="userSpaceOnUse">
<stop stop-color="#00D2F4"/>
<stop offset="0.0756" stop-color="#00B3D2"/>
<stop offset="0.1933" stop-color="#0088A3"/>
<stop offset="0.3056" stop-color="#00677D"/>
<stop offset="0.4094" stop-color="#004F63"/>
<stop offset="0.5018" stop-color="#004053"/>
<stop offset="0.5732" stop-color="#003B4D"/>
<stop offset="0.6698" stop-color="#003041"/>
<stop offset="0.8065" stop-color="#002738"/>
<stop offset="1" stop-color="#002435"/>
</linearGradient>
<linearGradient id="paint12_linear_35_80" x1="181.177" y1="-118.711" x2="202.957" y2="333.208" gradientUnits="userSpaceOnUse">
<stop stop-color="#00D2F4"/>
<stop offset="0.0756" stop-color="#00B3D2"/>
<stop offset="0.1933" stop-color="#0088A3"/>
<stop offset="0.3056" stop-color="#00677D"/>
<stop offset="0.4094" stop-color="#004F63"/>
<stop offset="0.5018" stop-color="#004053"/>
<stop offset="0.5732" stop-color="#003B4D"/>
<stop offset="0.6698" stop-color="#003041"/>
<stop offset="0.8065" stop-color="#002738"/>
<stop offset="1" stop-color="#002435"/>
</linearGradient>
<linearGradient id="paint13_linear_35_80" x1="229.513" y1="-121.039" x2="251.292" y2="330.88" gradientUnits="userSpaceOnUse">
<stop stop-color="#00D2F4"/>
<stop offset="0.0756" stop-color="#00B3D2"/>
<stop offset="0.1933" stop-color="#0088A3"/>
<stop offset="0.3056" stop-color="#00677D"/>
<stop offset="0.4094" stop-color="#004F63"/>
<stop offset="0.5018" stop-color="#004053"/>
<stop offset="0.5732" stop-color="#003B4D"/>
<stop offset="0.6698" stop-color="#003041"/>
<stop offset="0.8065" stop-color="#002738"/>
<stop offset="1" stop-color="#002435"/>
</linearGradient>
<linearGradient id="paint14_linear_35_80" x1="96.6942" y1="-114.642" x2="118.473" y2="337.276" gradientUnits="userSpaceOnUse">
<stop stop-color="#00D2F4"/>
<stop offset="0.0756" stop-color="#00B3D2"/>
<stop offset="0.1933" stop-color="#0088A3"/>
<stop offset="0.3056" stop-color="#00677D"/>
<stop offset="0.4094" stop-color="#004F63"/>
<stop offset="0.5018" stop-color="#004053"/>
<stop offset="0.5732" stop-color="#003B4D"/>
<stop offset="0.6698" stop-color="#003041"/>
<stop offset="0.8065" stop-color="#002738"/>
<stop offset="1" stop-color="#002435"/>
</linearGradient>
<linearGradient id="paint15_linear_35_80" x1="31.9874" y1="-111.526" x2="53.7667" y2="340.394" gradientUnits="userSpaceOnUse">
<stop stop-color="#00D2F4"/>
<stop offset="0.0756" stop-color="#00B3D2"/>
<stop offset="0.1933" stop-color="#0088A3"/>
<stop offset="0.3056" stop-color="#00677D"/>
<stop offset="0.4094" stop-color="#004F63"/>
<stop offset="0.5018" stop-color="#004053"/>
<stop offset="0.5732" stop-color="#003B4D"/>
<stop offset="0.6698" stop-color="#003041"/>
<stop offset="0.8065" stop-color="#002738"/>
<stop offset="1" stop-color="#002435"/>
</linearGradient>
<linearGradient id="paint16_linear_35_80" x1="13.9682" y1="-110.65" x2="35.7473" y2="341.267" gradientUnits="userSpaceOnUse">
<stop stop-color="#00D2F4"/>
<stop offset="0.0756" stop-color="#00B3D2"/>
<stop offset="0.1933" stop-color="#0088A3"/>
<stop offset="0.3056" stop-color="#00677D"/>
<stop offset="0.4094" stop-color="#004F63"/>
<stop offset="0.5018" stop-color="#004053"/>
<stop offset="0.5732" stop-color="#003B4D"/>
<stop offset="0.6698" stop-color="#003041"/>
<stop offset="0.8065" stop-color="#002738"/>
<stop offset="1" stop-color="#002435"/>
</linearGradient>
<linearGradient id="paint17_linear_35_80" x1="52.1415" y1="-112.498" x2="73.9207" y2="339.421" gradientUnits="userSpaceOnUse">
<stop stop-color="#00D2F4"/>
<stop offset="0.0756" stop-color="#00B3D2"/>
<stop offset="0.1933" stop-color="#0088A3"/>
<stop offset="0.3056" stop-color="#00677D"/>
<stop offset="0.4094" stop-color="#004F63"/>
<stop offset="0.5018" stop-color="#004053"/>
<stop offset="0.5732" stop-color="#003B4D"/>
<stop offset="0.6698" stop-color="#003041"/>
<stop offset="0.8065" stop-color="#002738"/>
<stop offset="1" stop-color="#002435"/>
</linearGradient>
<linearGradient id="paint18_linear_35_80" x1="1.33489" y1="-110.04" x2="23.1141" y2="341.878" gradientUnits="userSpaceOnUse">
<stop stop-color="#00D2F4"/>
<stop offset="0.0756" stop-color="#00B3D2"/>
<stop offset="0.1933" stop-color="#0088A3"/>
<stop offset="0.3056" stop-color="#00677D"/>
<stop offset="0.4094" stop-color="#004F63"/>
<stop offset="0.5018" stop-color="#004053"/>
<stop offset="0.5732" stop-color="#003B4D"/>
<stop offset="0.6698" stop-color="#003041"/>
<stop offset="0.8065" stop-color="#002738"/>
<stop offset="1" stop-color="#002435"/>
</linearGradient>
<linearGradient id="paint19_linear_35_80" x1="71.0422" y1="-113.408" x2="92.8215" y2="338.51" gradientUnits="userSpaceOnUse">
<stop stop-color="#00D2F4"/>
<stop offset="0.0756" stop-color="#00B3D2"/>
<stop offset="0.1933" stop-color="#0088A3"/>
<stop offset="0.3056" stop-color="#00677D"/>
<stop offset="0.4094" stop-color="#004F63"/>
<stop offset="0.5018" stop-color="#004053"/>
<stop offset="0.5732" stop-color="#003B4D"/>
<stop offset="0.6698" stop-color="#003041"/>
<stop offset="0.8065" stop-color="#002738"/>
<stop offset="1" stop-color="#002435"/>
</linearGradient>
<linearGradient id="paint20_linear_35_80" x1="203.338" y1="-119.773" x2="225.117" y2="332.146" gradientUnits="userSpaceOnUse">
<stop stop-color="#00D2F4"/>
<stop offset="0.0756" stop-color="#00B3D2"/>
<stop offset="0.1933" stop-color="#0088A3"/>
<stop offset="0.3056" stop-color="#00677D"/>
<stop offset="0.4094" stop-color="#004F63"/>
<stop offset="0.5018" stop-color="#004053"/>
<stop offset="0.5732" stop-color="#003B4D"/>
<stop offset="0.6698" stop-color="#003041"/>
<stop offset="0.8065" stop-color="#002738"/>
<stop offset="1" stop-color="#002435"/>
</linearGradient>
<linearGradient id="paint21_linear_35_80" x1="202.979" y1="-119.765" x2="224.758" y2="332.154" gradientUnits="userSpaceOnUse">
<stop stop-color="#00D2F4"/>
<stop offset="0.0756" stop-color="#00B3D2"/>
<stop offset="0.1933" stop-color="#0088A3"/>
<stop offset="0.3056" stop-color="#00677D"/>
<stop offset="0.4094" stop-color="#004F63"/>
<stop offset="0.5018" stop-color="#004053"/>
<stop offset="0.5732" stop-color="#003B4D"/>
<stop offset="0.6698" stop-color="#003041"/>
<stop offset="0.8065" stop-color="#002738"/>
<stop offset="1" stop-color="#002435"/>
</linearGradient>
</defs>
</svg>
