<svg width="257" height="135" viewBox="0 0 257 135" fill="none" xmlns="http://www.w3.org/2000/svg">
<path d="M46.5838 67.5676C46.5838 67.5676 60.6536 43.6916 87.0877 21.9473C90.346 19.2673 93.559 17.1065 96.6885 15.3763C88.1408 6.0519 75.8626 0.203125 62.2166 0.203125C36.393 0.203125 15.4597 21.1373 15.4597 46.96C15.4597 59.3056 20.252 70.5256 28.068 78.8831C38.3901 72.8826 46.5838 67.5676 46.5838 67.5676Z" fill="url(#paint0_linear_35_79)"/>
<path d="M180.508 107.312C192.612 81.5973 221.766 62.2159 240.301 47.8161C253.177 37.8129 260.557 28.3922 255.081 28.5022C146.825 24.2386 37.3088 71.9241 9.71237 97.7554C6.65794 100.615 0.908936 106.314 0.908936 108.385C17.9683 97.688 40.9891 95.992 60.6834 100.187C80.4416 104.396 99.4103 109.886 119.452 113.479C139.272 117.034 160.483 119.601 180.508 107.312Z" fill="url(#paint1_linear_35_79)"/>
<path d="M184.892 99.3723C177.607 101.618 169.47 101.609 162.274 99.9283C148.584 96.7306 136.683 88.5693 124.708 81.2035C112.734 73.8378 99.6992 66.941 85.6414 66.7765C66.2182 66.5496 48.3888 79.1391 29.7962 83.453C29.3366 83.725 28.8727 83.997 28.4242 84.2682C39.431 84.6477 50.3961 86.2516 61.0457 89.0613C44.7895 85.7093 27.8452 88.5693 12.5398 95.2656C11.5191 96.1141 10.576 96.9429 9.71309 97.7505C6.65867 100.61 0.909668 106.309 0.909668 108.38C17.9691 97.6831 40.9898 95.987 60.6841 100.182C80.4424 104.391 99.411 109.881 119.452 113.475C139.272 117.029 160.483 119.596 180.508 107.307C181.787 104.592 183.265 101.949 184.892 99.3723Z" fill="url(#paint2_linear_35_79)"/>
<path d="M255.082 28.5021C187.675 25.8476 119.784 43.3342 71.4805 63.1445C84.7479 61.5166 98.3256 62.6687 110.439 68.1141C119.459 72.1696 127.298 78.4047 135.806 83.4476C144.313 88.4906 154.078 92.4318 163.882 91.1391C178.436 89.2205 188.837 76.747 199.385 66.5374C211.323 54.9721 225.208 45.4225 240.238 38.3339C245.327 35.9335 251.338 34.4046 256.366 31.6094C257.344 29.6371 257.031 28.4637 255.082 28.5021Z" fill="url(#paint3_linear_35_79)"/>
<path d="M194.345 51.7188C207.309 45.8964 219.305 37.9679 229.824 28.4141C177.284 30.0564 125.983 42.645 85.5024 57.6699C96.1716 57.3313 107.354 60.2647 118.104 61.9488C143.793 65.971 170.626 62.3709 194.345 51.7188Z" fill="url(#paint4_linear_35_79)"/>
<path d="M180.508 107.316C169.902 110.566 156.853 112.674 142.761 109.078C127.087 105.079 113.599 95.3849 99.2491 87.9194C84.8988 80.4539 67.9246 75.1082 52.6943 80.5579C61.7049 78.8652 70.296 80.9595 77.4691 86.6693C81.2355 89.6674 84.4477 95.0438 81.7855 99.055C79.7262 102.157 75.1412 102.506 71.6808 101.13C68.2205 99.7551 65.4466 97.1091 62.3155 95.0941C52.9518 89.0697 40.7111 89.045 30.0931 92.4004C19.4759 95.755 10.1072 102.115 0.908936 108.39C5.81375 105.99 9.03361 104.914 14.2104 103.176C32.2718 97.1133 51.6676 98.7054 70.134 103.389C88.6004 108.073 107.126 112.994 126.001 115.578C144.878 118.161 165.469 119.011 180.508 107.316Z" fill="url(#paint5_linear_35_79)"/>
<path d="M4.30957 115.463C15.8886 110.357 28.6571 107.786 41.4939 107.448C47.914 107.283 54.3886 107.719 60.7456 108.689C63.9237 109.166 67.066 109.791 70.1877 110.452C73.3044 111.138 76.3836 111.918 79.4491 112.71C82.5069 113.528 85.54 114.383 88.5595 115.239L97.5693 117.846C100.58 118.73 103.498 119.504 106.489 120.243C109.483 120.937 112.497 121.599 115.533 122.183C121.606 123.351 127.743 124.294 133.921 124.973C137.012 125.351 140.113 125.556 143.231 125.752C144.787 125.809 146.354 125.908 147.917 125.893C149.489 125.957 151.051 125.876 152.639 125.873C149.596 126.738 146.461 127.299 143.308 127.729C140.153 128.124 136.975 128.342 133.793 128.475C127.428 128.689 121.054 128.392 114.709 127.734C111.537 127.398 108.371 126.953 105.213 126.405C102.059 125.861 98.8833 125.128 95.8306 124.388C92.7557 123.641 89.7158 122.822 86.6775 122.031L77.6226 119.606C71.6109 117.995 65.6197 116.513 59.603 115.344C53.5913 114.175 47.5337 113.411 41.4027 113.04C29.1406 112.293 16.7336 113.197 4.30957 115.463Z" fill="url(#paint6_linear_35_79)"/>
<path d="M11.5586 125.949C18.6796 122.211 26.7719 120.285 34.9468 119.872C39.0356 119.669 43.1824 119.882 47.2421 120.454C49.2716 120.732 51.2712 121.122 53.2563 121.524C55.2363 121.95 57.1865 122.443 59.1239 122.935C61.0544 123.456 62.9645 124 64.8601 124.544L70.4965 126.23C72.381 126.812 74.1675 127.306 76.017 127.807C77.8691 128.271 79.7348 128.727 81.6185 129.141C85.3841 129.968 89.1974 130.683 93.0466 131.273C94.9728 131.58 96.9059 131.81 98.8595 132.048C99.8333 132.14 100.817 132.256 101.801 132.303C102.791 132.411 103.777 132.417 104.787 132.491C100.992 133.852 96.9409 134.462 92.9178 134.779C88.8827 135.076 84.8324 135.012 80.7931 134.692C78.7738 134.526 76.7563 134.287 74.7413 133.97C72.7281 133.664 70.6841 133.211 68.7587 132.774C66.8111 132.326 64.8933 131.819 62.979 131.34L57.2982 129.835C53.5394 128.822 49.8182 127.883 46.0995 127.111C42.3851 126.339 38.6553 125.798 34.8556 125.465C27.2562 124.795 19.5247 125.054 11.5586 125.949Z" fill="url(#paint7_linear_35_79)"/>
<path d="M50.3374 70.5565C50.3374 70.5565 125.196 24.6864 201.021 22.7891C201.021 22.7891 192.883 5.31699 137.812 23.5975C86.7782 40.5392 50.3365 66.0797 50.3374 70.5565Z" fill="url(#paint8_linear_35_79)"/>
<path d="M63.5222 54.2959C63.5222 54.2959 92.4173 27.4917 131.461 19.078C131.461 19.078 122.846 7.84004 99.2391 20.8832C86.9361 27.681 62.9364 50.9814 63.5222 54.2959Z" fill="url(#paint9_linear_35_79)"/>
<defs>
<linearGradient id="paint0_linear_35_79" x1="56.074" y1="-14.026" x2="56.074" y2="86.4349" gradientUnits="userSpaceOnUse">
<stop stop-color="#F36E25"/>
<stop offset="0.2441" stop-color="#F15229"/>
<stop offset="0.5365" stop-color="#EF382D"/>
<stop offset="0.7978" stop-color="#ED282F"/>
<stop offset="1" stop-color="#ED2230"/>
</linearGradient>
<linearGradient id="paint1_linear_35_79" x1="141.694" y1="-39.9563" x2="121.656" y2="131.013" gradientUnits="userSpaceOnUse">
<stop stop-color="#00EFF4"/>
<stop offset="0.1445" stop-color="#00C9CF"/>
<stop offset="0.3468" stop-color="#009AA1"/>
<stop offset="0.5398" stop-color="#00747C"/>
<stop offset="0.7183" stop-color="#005A62"/>
<stop offset="0.8771" stop-color="#004A53"/>
<stop offset="1" stop-color="#00444D"/>
</linearGradient>
<linearGradient id="paint2_linear_35_79" x1="125.62" y1="2.84871" x2="85.1154" y2="127.772" gradientUnits="userSpaceOnUse">
<stop stop-color="#00EFF4"/>
<stop offset="0.1445" stop-color="#00C9CF"/>
<stop offset="0.3468" stop-color="#009AA1"/>
<stop offset="0.5398" stop-color="#00747C"/>
<stop offset="0.7183" stop-color="#005A62"/>
<stop offset="0.8771" stop-color="#004A53"/>
<stop offset="1" stop-color="#00444D"/>
</linearGradient>
<linearGradient id="paint3_linear_35_79" x1="209.801" y1="-42.6706" x2="118.134" y2="137.252" gradientUnits="userSpaceOnUse">
<stop stop-color="#00EFF4"/>
<stop offset="0.1445" stop-color="#00C9CF"/>
<stop offset="0.3468" stop-color="#009AA1"/>
<stop offset="0.5398" stop-color="#00747C"/>
<stop offset="0.7183" stop-color="#005A62"/>
<stop offset="0.8771" stop-color="#004A53"/>
<stop offset="1" stop-color="#00444D"/>
</linearGradient>
<linearGradient id="paint4_linear_35_79" x1="178.583" y1="-9.18075" x2="119.319" y2="138.765" gradientUnits="userSpaceOnUse">
<stop stop-color="#00EFF4"/>
<stop offset="0.1445" stop-color="#00C9CF"/>
<stop offset="0.3468" stop-color="#009AA1"/>
<stop offset="0.5398" stop-color="#00747C"/>
<stop offset="0.7183" stop-color="#005A62"/>
<stop offset="0.8771" stop-color="#004A53"/>
<stop offset="1" stop-color="#00444D"/>
</linearGradient>
<linearGradient id="paint5_linear_35_79" x1="94.803" y1="88.4365" x2="51.7411" y2="292.661" gradientUnits="userSpaceOnUse">
<stop stop-color="#00EFF4"/>
<stop offset="0.1445" stop-color="#00C9CF"/>
<stop offset="0.3468" stop-color="#009AA1"/>
<stop offset="0.5398" stop-color="#00747C"/>
<stop offset="0.7183" stop-color="#005A62"/>
<stop offset="0.8771" stop-color="#004A53"/>
<stop offset="1" stop-color="#00444D"/>
</linearGradient>
<linearGradient id="paint6_linear_35_79" x1="153.198" y1="117.979" x2="3.26107" y2="117.979" gradientUnits="userSpaceOnUse">
<stop stop-color="#00EFF4"/>
<stop offset="0.1445" stop-color="#00C9CF"/>
<stop offset="0.3468" stop-color="#009AA1"/>
<stop offset="0.5398" stop-color="#00747C"/>
<stop offset="0.7183" stop-color="#005A62"/>
<stop offset="0.8771" stop-color="#004A53"/>
<stop offset="1" stop-color="#00444D"/>
</linearGradient>
<linearGradient id="paint7_linear_35_79" x1="105.347" y1="127.384" x2="10.5098" y2="127.384" gradientUnits="userSpaceOnUse">
<stop stop-color="#00EFF4"/>
<stop offset="0.1445" stop-color="#00C9CF"/>
<stop offset="0.3468" stop-color="#009AA1"/>
<stop offset="0.5398" stop-color="#00747C"/>
<stop offset="0.7183" stop-color="#005A62"/>
<stop offset="0.8771" stop-color="#004A53"/>
<stop offset="1" stop-color="#00444D"/>
</linearGradient>
<linearGradient id="paint8_linear_35_79" x1="188.959" y1="-23.517" x2="76.4464" y2="100.591" gradientUnits="userSpaceOnUse">
<stop stop-color="#00EFF4"/>
<stop offset="0.1445" stop-color="#00C9CF"/>
<stop offset="0.3468" stop-color="#009AA1"/>
<stop offset="0.5398" stop-color="#00747C"/>
<stop offset="0.7183" stop-color="#005A62"/>
<stop offset="0.8771" stop-color="#004A53"/>
<stop offset="1" stop-color="#00444D"/>
</linearGradient>
<linearGradient id="paint9_linear_35_79" x1="123.737" y1="-2.07084" x2="76.921" y2="66.2979" gradientUnits="userSpaceOnUse">
<stop stop-color="#00EFF4"/>
<stop offset="0.1445" stop-color="#00C9CF"/>
<stop offset="0.3468" stop-color="#009AA1"/>
<stop offset="0.5398" stop-color="#00747C"/>
<stop offset="0.7183" stop-color="#005A62"/>
<stop offset="0.8771" stop-color="#004A53"/>
<stop offset="1" stop-color="#00444D"/>
</linearGradient>
</defs>
</svg>
