<svg width="256" height="257" viewBox="0 0 256 257" fill="none" xmlns="http://www.w3.org/2000/svg">
<path d="M128.042 256.4C198.564 256.4 255.983 198.862 255.983 128.459C255.983 57.9374 198.564 0.399902 128.042 0.399902C57.5202 0.399902 0.101868 57.9374 0.101868 128.459C0.101868 198.862 57.5202 256.4 128.042 256.4Z" fill="#FFCE2B"/>
<mask id="mask0_1_653" style="mask-type:luminance" maskUnits="userSpaceOnUse" x="0" y="0" width="256" height="257">
<path d="M128.042 256.364C198.529 256.364 255.995 198.898 255.995 128.412C255.995 57.9255 198.529 0.459473 128.042 0.459473C57.5679 0.459473 0.0900269 57.9255 0.0900269 128.412C0.0900269 198.898 57.5679 256.364 128.042 256.364Z" fill="white"/>
</mask>
<g mask="url(#mask0_1_653)">
<g style="mix-blend-mode:overlay">
<path d="M326.862 172.893C361.289 128.221 332.104 47.8116 262.058 -6.2712C191.893 -60.2349 106.719 -67.8589 72.2918 -23.3061C37.9837 21.3658 67.0502 101.775 137.215 155.858C207.261 209.822 292.435 217.446 326.862 172.893Z" fill="#F2F2F2"/>
</g>
</g>
<path d="M215.838 198.385C215.838 208.511 214.051 217.922 210.358 226.38C277.187 169.319 252.052 77.7117 171.404 49.0025C159.889 44.9522 148.611 42.9668 137.572 43.0462C121.491 43.0462 100.763 49.8364 100.763 69.1347C100.763 86.8843 131.616 103.324 145.673 111.305C181.53 131.675 215.838 150.735 215.838 198.385Z" fill="#282F42"/>
<path d="M118.393 63.774C129.353 63.774 140.67 65.7991 152.106 69.8494C223.462 95.2231 251.337 169.795 210.715 226.022C277.068 169.081 251.932 77.7117 171.404 49.0025C159.888 44.9522 148.611 42.9668 137.572 43.0462C122.205 43.0462 102.669 49.2407 100.882 66.5139C106.6 64.6079 112.794 63.774 118.393 63.774Z" fill="#387EB6"/>
<path d="M39.2941 59.3665C39.2147 49.1217 41.0015 39.7903 44.6547 31.3721C-22.1745 88.3139 2.96093 180.04 83.6087 208.63C95.1241 212.681 106.401 214.706 117.44 214.706C133.641 214.706 154.25 207.796 154.25 188.617C154.25 170.868 123.396 154.428 109.34 146.328C73.483 126.077 39.2941 106.897 39.2941 59.3665Z" fill="#282F42"/>
<path d="M136.738 193.859C125.66 193.859 114.462 191.834 102.907 187.903C31.5509 162.529 3.67561 87.957 44.2973 31.6108C-22.0554 88.6718 3.07998 180.041 83.6086 208.631C95.124 212.681 106.401 214.706 117.44 214.706C132.807 214.706 152.344 208.512 154.131 191.239C148.532 193.025 142.337 193.859 136.738 193.859Z" fill="#387EB6"/>
</svg>
