<svg width="257" height="201" viewBox="0 0 257 201" fill="none" xmlns="http://www.w3.org/2000/svg">
<path d="M115.549 43.1034C115.549 43.1034 94.1938 33.0973 111.824 14.3847C111.824 14.3847 111.65 23.4378 115.159 26.0368C115.159 26.0368 110.784 0.480099 148.036 0.696681C148.036 0.696681 129.627 6.32781 135.171 17.72C135.171 17.72 140.976 -10.349 178.921 13.8215C209.762 33.4439 192.262 77.7565 219.768 75.5474C219.768 75.5474 196.984 95.8195 168.915 67.1873L136.947 42.1938L115.549 43.1034Z" fill="url(#paint0_linear_35_75)"/>
<path style="mix-blend-mode:multiply" d="M155.746 28.0745C132.182 13.9101 125.555 35.0918 125.555 35.0918L123.042 26.7317C116.502 34.1388 114.509 42.3689 114.552 42.5855C115.159 42.932 115.549 43.1053 115.549 43.1053L136.947 42.1957L168.915 67.1892C196.984 95.8214 219.768 75.5493 219.768 75.5493C179.051 93.3956 189.706 48.4332 155.746 28.0745Z" fill="url(#paint1_linear_35_75)"/>
<path style="mix-blend-mode:screen" d="M178.92 13.8228C150.635 -4.19679 140.239 6.80557 136.73 13.5629L135.171 17.7213C135.171 17.7213 151.674 -0.29832 175.975 21.2732C198.716 41.4154 187.41 80.5301 219.768 75.5487C192.262 77.7578 209.762 33.4451 178.92 13.8228Z" fill="url(#paint2_linear_35_75)"/>
<path style="mix-blend-mode:screen" d="M117.065 30.0219C122.349 2.47265 148.036 0.696681 148.036 0.696681C110.784 0.480099 115.159 26.0368 115.159 26.0368C111.65 23.4378 111.823 14.3847 111.823 14.3847C105.456 27.0764 117.065 30.0219 117.065 30.0219Z" fill="url(#paint3_linear_35_75)"/>
<path d="M10.8093 151.956C14.9244 158.41 24.0641 161.659 32.6408 159.406C41.0441 157.197 49.1443 154.035 56.0749 149.487C55.9883 149.574 40.611 164.778 22.2448 169.066L22.2881 169.109C27.4861 174.307 36.4093 175.693 43.5998 172.531C51.3968 169.066 58.7172 164.691 64.5649 159.147C64.5649 159.147 58.8905 169.543 42.3003 180.502C60.6665 182.537 70.2394 169.239 73.1849 167.333L65.2147 115.137L64.8682 114.921C64.8682 114.921 5.2648 94.7785 3.61878 49.8594C3.61878 49.8594 2.83908 54.321 2.01607 61.6414C1.23638 68.7886 2.10271 75.8492 4.39847 82.4766C14.188 108.813 47.1951 119.642 49.4908 120.162C49.4908 120.162 37.059 120.075 20.5122 113.621C15.2276 111.715 9.42318 109.073 3.6621 105.304C2.6225 104.698 1.56847 104.048 0.5 103.355V103.528C0.528878 103.846 0.557754 104.164 0.586631 104.481C1.19306 111.369 5.30812 117.346 11.0692 121.158C21.5084 128.002 35.2397 132.074 50.7037 130.861C50.7037 130.861 50.6026 130.904 50.4005 130.991C50.516 130.991 50.6315 130.977 50.747 130.948C50.747 130.948 50.0973 131.164 48.8411 131.424C43.1233 132.984 26.7497 135.409 2.96903 130.255C5.22148 136.146 13.1484 142.686 20.6854 142.946C31.2113 143.293 41.9105 142.34 51.7 139.178C51.7 139.178 42.7768 148.707 10.8093 151.956Z" fill="url(#paint4_linear_35_75)"/>
<path style="mix-blend-mode:multiply" d="M42.3 180.505C60.6662 182.541 70.2391 169.243 73.1846 167.337L70.8022 151.656C69.9792 146.198 67.5535 141.087 63.655 137.145C57.8939 131.384 52.0462 130.994 50.7034 130.994C50.5301 131.038 49.8804 131.211 48.8408 131.427C43.123 132.987 26.7494 135.412 2.96875 130.258C5.2212 136.149 13.1481 142.69 20.6852 142.95C31.211 143.296 41.9102 142.343 51.6997 139.181C51.6997 139.181 42.7765 148.711 10.809 151.959C14.9241 158.413 24.0638 161.662 32.6405 159.41C41.0439 157.201 49.144 154.039 56.0746 149.49C55.988 149.577 40.6107 164.781 22.2445 169.069L22.2879 169.113C27.4858 174.311 36.409 175.697 43.5995 172.535C51.3965 169.069 58.7169 164.694 64.5646 159.15C64.5646 159.15 58.8902 169.546 42.3 180.505Z" fill="url(#paint5_linear_35_75)"/>
<path d="M65.2149 115.14L64.8684 114.923C64.8684 114.923 14.4915 97.8998 5.0918 60.2578C8.77369 76.9779 15.0546 104.657 65.9946 121.161L65.2149 115.14Z" fill="url(#paint6_linear_35_75)"/>
<path d="M3.61914 49.8594C3.61914 49.8594 3.61914 50.2492 3.70577 50.9856C3.67689 50.6102 3.64802 50.2348 3.61914 49.8594Z" fill="url(#paint7_linear_35_75)"/>
<path d="M49.4912 120.165L44.9863 118.648C47.3687 119.558 49.0147 120.078 49.4912 120.165Z" fill="url(#paint8_linear_35_75)"/>
<path d="M49.4908 120.162C49.4908 120.162 37.059 120.076 20.5122 113.621C15.2276 111.716 9.42318 109.073 3.6621 105.305C2.6225 104.698 1.56847 104.049 0.5 103.355C0.5 103.355 20.2523 128.089 49.4908 120.162Z" fill="url(#paint9_linear_35_75)"/>
<path d="M246.191 151.956C242.076 158.41 232.936 161.659 224.36 159.406C215.956 157.197 207.856 154.035 200.925 149.487C201.012 149.574 216.389 164.778 234.755 169.066L234.712 169.109C229.514 174.307 220.591 175.693 213.401 172.531C205.604 169.066 198.283 164.691 192.435 159.147C192.435 159.147 198.11 169.543 214.7 180.502C196.334 182.537 186.761 169.239 183.815 167.333L191.786 115.137L192.132 114.921C192.132 114.921 251.736 94.7785 253.382 49.8594C253.382 49.8594 254.161 54.321 254.984 61.6414C255.764 68.7886 254.898 75.8492 252.602 82.4766C242.812 108.813 209.805 119.642 207.509 120.162C207.509 120.162 219.941 120.075 236.488 113.621C241.773 111.715 247.577 109.073 253.338 105.304C254.378 104.698 255.432 104.048 256.5 103.355V103.528C256.471 103.846 256.443 104.164 256.414 104.481C255.807 111.369 251.692 117.346 245.931 121.158C235.492 128.002 221.761 132.074 206.297 130.861C206.297 130.861 206.398 130.904 206.6 130.991C206.484 130.991 206.369 130.977 206.253 130.948C206.253 130.948 206.903 131.164 208.159 131.424C213.877 132.984 230.251 135.409 254.031 130.255C251.779 136.146 243.852 142.686 236.315 142.946C225.789 143.293 215.09 142.34 205.3 139.178C205.3 139.178 214.224 148.707 246.191 151.956Z" fill="url(#paint10_linear_35_75)"/>
<path style="mix-blend-mode:multiply" d="M214.7 180.505C196.334 182.541 186.761 169.243 183.815 167.337L186.198 151.656C187.021 146.198 189.447 141.087 193.345 137.145C199.106 131.384 204.954 130.994 206.297 130.994C206.47 131.038 207.12 131.211 208.159 131.427C213.877 132.987 230.251 135.412 254.031 130.258C251.779 136.149 243.852 142.69 236.315 142.95C225.789 143.296 215.09 142.343 205.3 139.181C205.3 139.181 214.224 148.711 246.191 151.959C242.076 158.413 232.936 161.662 224.36 159.41C215.956 157.201 207.856 154.039 200.925 149.49C201.012 149.577 216.389 164.781 234.755 169.069L234.712 169.113C229.514 174.311 220.591 175.697 213.401 172.535C205.604 169.069 198.283 164.694 192.435 159.15C192.435 159.15 198.11 169.546 214.7 180.505Z" fill="url(#paint11_linear_35_75)"/>
<path d="M191.786 115.14L192.132 114.923C192.132 114.923 242.509 97.8998 251.909 60.2578C248.227 76.9779 241.946 104.657 191.006 121.161L191.786 115.14Z" fill="url(#paint12_linear_35_75)"/>
<path d="M253.381 49.8594C253.381 49.8594 253.381 50.2492 253.294 50.9856C253.323 50.6102 253.352 50.2348 253.381 49.8594Z" fill="url(#paint13_linear_35_75)"/>
<path d="M207.509 120.165L212.014 118.648C209.631 119.558 207.985 120.078 207.509 120.165Z" fill="url(#paint14_linear_35_75)"/>
<path d="M207.509 120.162C207.509 120.162 219.941 120.076 236.487 113.621C241.772 111.716 247.576 109.073 253.338 105.305C254.377 104.698 255.431 104.049 256.5 103.355C256.5 103.355 236.747 128.089 207.509 120.162Z" fill="url(#paint15_linear_35_75)"/>
<path fill-rule="evenodd" clip-rule="evenodd" d="M197.72 98.2478L184.898 167.554C184.898 167.554 157.132 191.984 128.37 200.648C99.608 191.984 71.8422 167.554 71.8422 167.554L59.0205 98.2478C95.4929 86.1192 128.37 46.4414 128.37 46.4414C128.37 46.4414 161.247 86.1192 197.72 98.2478ZM191.569 101.41C177.274 96.082 162.07 86.2492 146.346 72.128C138.073 64.7209 131.792 58.0502 128.37 54.2384C124.991 58.0502 118.667 64.7209 110.394 72.128C94.6699 86.2492 79.4658 96.082 65.1714 101.41L76.8235 164.392C81.7183 168.507 104.763 187.176 128.37 194.67C151.977 187.176 175.022 168.507 179.917 164.392L191.569 101.41Z" fill="url(#paint16_linear_35_75)"/>
<path d="M121.699 40.2468C82.5846 50.0363 75.5674 94.219 75.5674 94.219L129.366 103.662L183.122 94.219C183.122 94.219 176.105 50.0363 136.99 40.2468C131.965 38.9906 126.724 38.9906 121.699 40.2468Z" fill="url(#paint17_linear_35_75)"/>
<path style="mix-blend-mode:multiply" d="M121.699 40.2468C82.5846 50.0363 75.5674 94.219 75.5674 94.219L129.366 103.662L183.122 94.219C183.122 94.219 176.105 50.0363 136.99 40.2468C131.965 38.9906 126.724 38.9906 121.699 40.2468Z" fill="url(#paint18_radial_35_75)"/>
<path d="M159.731 87.2861L178.747 86.4198C178.747 86.4198 140.932 73.2949 129.366 53.5859C117.758 73.2949 79.9423 86.4198 79.9423 86.4198L98.9582 87.2861L75.5674 94.2167L81.8916 151.568C95.0164 171.06 119.1 176.085 119.1 176.085L112.126 129.476L104.979 126.487C98.3518 123.758 93.587 117.911 92.2875 110.894L109.787 116.351C110.654 116.741 111.433 117.174 112.256 117.651C116.545 120.293 120.14 123.932 122.826 128.177L129.366 138.443L135.864 128.177C138.549 123.932 142.145 120.293 146.476 117.651C147.256 117.174 148.079 116.741 148.902 116.351L166.402 110.894C165.102 117.911 160.338 123.758 153.71 126.487L146.563 129.476L139.589 176.085C139.589 176.085 163.673 171.06 176.798 151.568L183.122 94.2167L159.731 87.2861Z" fill="url(#paint19_linear_35_75)"/>
<path style="mix-blend-mode:screen" d="M113.816 82.262L93.4571 82.9118C113.123 75.548 121.699 64.459 126.724 57.3984C112.949 74.9849 79.9423 86.4204 79.9423 86.4204L98.9582 87.2867L75.5674 94.2174L81.8916 151.568L78.6428 95.95C100.171 94.7805 113.816 82.262 113.816 82.262Z" fill="url(#paint20_linear_35_75)"/>
<path style="mix-blend-mode:screen" d="M144.916 82.262L165.232 82.9118C145.566 75.548 136.99 64.459 131.965 57.3984C145.739 74.9849 178.79 86.4204 178.79 86.4204L159.731 87.2867L183.121 94.2174L176.797 151.568L180.046 95.95C158.518 94.7805 144.916 82.262 144.916 82.262Z" fill="url(#paint21_linear_35_75)"/>
<path style="mix-blend-mode:multiply" d="M166.401 110.894L148.902 116.351C148.079 116.741 147.256 117.174 146.476 117.651C142.144 120.293 138.549 123.932 135.863 128.177L129.366 138.443L122.825 128.177C120.14 123.932 116.544 120.293 112.256 117.651C111.476 117.174 110.653 116.741 109.787 116.351L92.2871 110.894C126.204 91.3578 129.366 53.5859 129.366 53.5859C129.366 53.5859 132.528 91.3578 166.401 110.894Z" fill="url(#paint22_linear_35_75)"/>
<path style="mix-blend-mode:multiply" d="M119.1 176.086L112.126 129.477L104.979 126.488C98.3952 123.759 93.587 117.912 92.2875 110.895L100.691 154.557L81.8916 151.569C95.0165 171.061 119.1 176.086 119.1 176.086Z" fill="url(#paint23_linear_35_75)"/>
<path style="mix-blend-mode:multiply" d="M139.589 176.086L146.563 129.477L153.71 126.488C160.337 123.759 165.102 117.912 166.402 110.895L157.998 154.557L176.798 151.569C163.673 171.061 139.589 176.086 139.589 176.086Z" fill="url(#paint24_linear_35_75)"/>
<defs>
<linearGradient id="paint0_linear_35_75" x1="179.365" y1="148.341" x2="81.6386" y2="9.03676" gradientUnits="userSpaceOnUse">
<stop stop-color="#890000"/>
<stop offset="1" stop-color="#C80000"/>
</linearGradient>
<linearGradient id="paint1_linear_35_75" x1="196.022" y1="10.4642" x2="184.628" y2="78.14" gradientUnits="userSpaceOnUse">
<stop stop-color="#890000"/>
<stop offset="1" stop-color="white"/>
</linearGradient>
<linearGradient id="paint2_linear_35_75" x1="190.099" y1="-13.3179" x2="259.837" y2="53.7755" gradientUnits="userSpaceOnUse">
<stop/>
<stop offset="1" stop-color="#C80000"/>
</linearGradient>
<linearGradient id="paint3_linear_35_75" x1="92.7688" y1="33.0337" x2="131.238" y2="-16.879" gradientUnits="userSpaceOnUse">
<stop/>
<stop offset="1" stop-color="#C80000"/>
</linearGradient>
<linearGradient id="paint4_linear_35_75" x1="-51.0101" y1="243.915" x2="-87.931" y2="165.899" gradientUnits="userSpaceOnUse">
<stop stop-color="#890000"/>
<stop offset="1" stop-color="#C80000"/>
</linearGradient>
<linearGradient id="paint5_linear_35_75" x1="70.5406" y1="133.902" x2="61.1186" y2="164.626" gradientUnits="userSpaceOnUse">
<stop stop-color="#890000"/>
<stop offset="1" stop-color="white"/>
</linearGradient>
<linearGradient id="paint6_linear_35_75" x1="30.8425" y1="148.138" x2="-3.47203" y2="112.176" gradientUnits="userSpaceOnUse">
<stop/>
<stop offset="1" stop-color="#C80000"/>
</linearGradient>
<linearGradient id="paint7_linear_35_75" x1="-2.22285" y1="55.8786" x2="-2.80345" y2="55.1775" gradientUnits="userSpaceOnUse">
<stop/>
<stop offset="1" stop-color="#C80000"/>
</linearGradient>
<linearGradient id="paint8_linear_35_75" x1="51.7896" y1="124.288" x2="13.7298" y2="91.922" gradientUnits="userSpaceOnUse">
<stop/>
<stop offset="1" stop-color="#C80000"/>
</linearGradient>
<linearGradient id="paint9_linear_35_75" x1="41.194" y1="138.438" x2="2.34057" y2="105.397" gradientUnits="userSpaceOnUse">
<stop/>
<stop offset="1" stop-color="#C80000"/>
</linearGradient>
<linearGradient id="paint10_linear_35_75" x1="308.01" y1="243.915" x2="344.931" y2="165.899" gradientUnits="userSpaceOnUse">
<stop stop-color="#890000"/>
<stop offset="1" stop-color="#C80000"/>
</linearGradient>
<linearGradient id="paint11_linear_35_75" x1="186.459" y1="133.902" x2="195.881" y2="164.626" gradientUnits="userSpaceOnUse">
<stop stop-color="#890000"/>
<stop offset="1" stop-color="white"/>
</linearGradient>
<linearGradient id="paint12_linear_35_75" x1="226.158" y1="148.138" x2="260.473" y2="112.176" gradientUnits="userSpaceOnUse">
<stop/>
<stop offset="1" stop-color="#C80000"/>
</linearGradient>
<linearGradient id="paint13_linear_35_75" x1="259.223" y1="55.8786" x2="259.804" y2="55.1775" gradientUnits="userSpaceOnUse">
<stop/>
<stop offset="1" stop-color="#C80000"/>
</linearGradient>
<linearGradient id="paint14_linear_35_75" x1="205.21" y1="124.288" x2="243.27" y2="91.9222" gradientUnits="userSpaceOnUse">
<stop/>
<stop offset="1" stop-color="#C80000"/>
</linearGradient>
<linearGradient id="paint15_linear_35_75" x1="215.806" y1="138.438" x2="254.659" y2="105.397" gradientUnits="userSpaceOnUse">
<stop/>
<stop offset="1" stop-color="#C80000"/>
</linearGradient>
<linearGradient id="paint16_linear_35_75" x1="104.182" y1="-63.4856" x2="259.51" y2="91.843" gradientUnits="userSpaceOnUse">
<stop stop-color="#D8AD56"/>
<stop offset="0.505" stop-color="#CC8232"/>
<stop offset="1" stop-color="#AD6225"/>
</linearGradient>
<linearGradient id="paint17_linear_35_75" x1="148.61" y1="36.2336" x2="148.61" y2="93.377" gradientUnits="userSpaceOnUse">
<stop stop-color="#D8AD56"/>
<stop offset="0.505" stop-color="#CC8232"/>
<stop offset="1" stop-color="#AD6225"/>
</linearGradient>
<radialGradient id="paint18_radial_35_75" cx="0" cy="0" r="1" gradientUnits="userSpaceOnUse" gradientTransform="translate(128.26 62.1541) scale(60.9821 60.9821)">
<stop offset="0.353" stop-color="white"/>
<stop offset="1" stop-color="#AD6225"/>
</radialGradient>
<linearGradient id="paint19_linear_35_75" x1="199.068" y1="50.8037" x2="199.068" y2="165.445" gradientUnits="userSpaceOnUse">
<stop stop-color="#D8AD56"/>
<stop offset="0.505" stop-color="#CC8232"/>
<stop offset="1" stop-color="#AD6225"/>
</linearGradient>
<linearGradient id="paint20_linear_35_75" x1="187.801" y1="43.8365" x2="187.801" y2="127.284" gradientUnits="userSpaceOnUse">
<stop stop-color="#D8AD56"/>
<stop offset="1"/>
</linearGradient>
<linearGradient id="paint21_linear_35_75" x1="244.2" y1="43.8365" x2="244.2" y2="127.284" gradientUnits="userSpaceOnUse">
<stop stop-color="#D8AD56"/>
<stop offset="1"/>
</linearGradient>
<linearGradient id="paint22_linear_35_75" x1="177.904" y1="81.8213" x2="177.904" y2="130.621" gradientUnits="userSpaceOnUse">
<stop stop-color="white"/>
<stop offset="1" stop-color="#AD6225"/>
</linearGradient>
<linearGradient id="paint23_linear_35_75" x1="34.2683" y1="144.641" x2="47.3832" y2="95.9699" gradientUnits="userSpaceOnUse">
<stop stop-color="white"/>
<stop offset="1" stop-color="#AD6225"/>
</linearGradient>
<linearGradient id="paint24_linear_35_75" x1="111.926" y1="192.674" x2="85.0302" y2="151.562" gradientUnits="userSpaceOnUse">
<stop stop-color="white"/>
<stop offset="1" stop-color="#AD6225"/>
</linearGradient>
</defs>
</svg>
