<svg width="248" height="257" viewBox="0 0 248 257" fill="none" xmlns="http://www.w3.org/2000/svg">
<path d="M247.486 51.0208L197.071 77.4336L179.997 85.3383C172.326 81.1766 163.621 78.793 154.441 78.6816C153.752 78.6816 153.063 78.6816 152.365 78.6906C118.476 79.342 89.6156 108.352 89.1215 142.231C89.0002 150.48 90.4252 158.385 93.1439 165.665L88.8708 171.968L66.8343 197.468C46.8454 176.529 34.5752 148.162 34.5752 116.936C34.5752 52.5104 86.8044 0.28125 151.239 0.28125C191.197 0.28125 226.463 20.3726 247.486 51.0208Z" fill="url(#paint0_linear_35_74)"/>
<path d="M247.488 51.0154L247.444 51.037C226.062 27.4605 195.195 12.653 160.862 12.653C96.3422 12.653 44.0348 64.9532 44.0348 129.48C44.0348 152.925 50.9377 174.76 62.836 193.057C45.2271 172.625 34.5723 146.022 34.5723 116.933C34.5723 52.5077 86.8068 0.28125 151.239 0.28125C191.203 0.280352 226.464 20.3681 247.488 51.0154Z" fill="url(#paint1_linear_35_74)"/>
<path d="M128.467 54.8708C141.571 42.2564 157.344 32.0625 157.344 32.0625C105.929 32.0625 36.0306 94.3912 67.7821 196.377L88.868 171.971V171.969C83.1494 161.504 79.9104 149.512 79.9104 136.765C79.9104 96.1064 112.861 63.1563 153.505 63.1563C169.812 63.1563 184.862 68.4653 197.067 77.431H197.074L206.821 72.3269L207.114 72.1733C166.441 42.3885 128.467 54.8708 128.467 54.8708Z" fill="url(#paint2_linear_35_74)"/>
<path d="M197.072 77.4322L184.523 88.0645C175.817 82.2272 165.474 78.8104 154.442 78.6801C153.753 78.6801 153.064 78.6801 152.366 78.6891C118.477 79.3405 89.6166 108.351 89.1224 142.23C89.0011 150.479 90.4261 158.383 93.1349 165.663L88.8709 171.966C83.1549 161.511 79.915 149.51 79.915 136.756C79.915 96.1075 112.863 63.1602 153.511 63.1602C169.812 63.1593 184.876 68.4575 197.072 77.4322Z" fill="url(#paint3_linear_35_74)"/>
<path d="M189.067 84.2137L197.072 77.4322C184.876 68.4575 169.812 63.1602 153.51 63.1602C112.862 63.1602 79.9141 96.1084 79.9141 136.756C79.9141 149.089 82.9508 160.713 88.3191 170.92L88.3209 170.923C84.029 158.736 79.5933 145.032 83.2932 131.681C105.929 50.004 174.626 68.8519 189.067 84.2137Z" fill="url(#paint4_linear_35_74)"/>
<path d="M209.945 172.504C207.343 172.332 204.875 171.509 202.732 170.178C200.588 168.837 198.77 166.978 197.479 164.723C194.157 158.902 189.057 150.947 183.693 146.253C174.489 138.197 149.954 137.719 149.954 137.719C149.954 137.719 145.942 143.571 154.759 154.675C163.568 165.8 182.921 164.265 182.921 164.265L188.671 196.46L188.782 197.303L191.546 230.047C123.863 215.583 151.664 186.854 95.8754 171.976C91.4154 163.046 88.9671 152.927 89.119 142.23C89.6167 108.348 118.48 79.3439 152.361 78.6935C153.061 78.6836 153.752 78.6836 154.443 78.6836C171.307 78.8866 186.577 86.7607 196.797 99.2161C189.29 102.589 175.219 107.506 150.796 111.641C150.796 111.641 160.793 115.349 203.879 110.178C205.636 113.744 207.049 117.544 208.055 121.516C214.333 146.232 209.945 172.504 209.945 172.504Z" fill="url(#paint5_linear_35_74)"/>
<path d="M209.949 172.505C207.342 172.328 204.875 171.508 202.733 170.177C200.592 168.836 198.768 166.974 197.483 164.721C194.159 158.903 189.057 150.943 183.695 146.25C174.488 138.197 149.955 137.713 149.955 137.713C149.955 137.713 145.943 143.569 154.759 154.676C163.567 165.801 182.922 164.265 182.922 164.265L183.006 164.749C177.848 167.058 172.141 168.333 166.127 168.333C143.168 168.333 124.558 149.723 124.558 126.764C124.558 103.806 143.168 85.1953 166.127 85.1953C176.47 85.1953 185.93 88.9841 193.21 95.241C194.467 96.5069 195.668 97.8294 196.804 99.2166C189.291 102.587 175.223 107.502 150.802 111.636C150.802 111.636 160.792 115.351 203.879 110.174C205.638 113.74 207.054 117.539 208.059 121.514C214.333 146.232 209.949 172.505 209.949 172.505Z" fill="url(#paint6_linear_35_74)"/>
<path d="M209.945 172.497C209.965 172.374 214.317 146.173 208.054 121.513C207.048 117.541 205.636 113.742 203.878 110.176C161.106 115.31 150.948 111.694 150.803 111.641L150.791 111.643C150.791 111.643 166.389 129.715 191.333 132.749C216.277 135.783 209.943 172.499 209.943 172.499L209.945 172.497Z" fill="url(#paint7_linear_35_74)"/>
<path d="M187.732 191.208C182.511 192.437 177.057 193.087 171.45 193.087C132.225 193.087 100.437 161.298 100.437 122.074C100.437 115.952 101.208 110.015 102.669 104.34C94.4003 115.027 89.3258 128.206 89.12 142.23C88.9673 152.928 91.4165 163.046 95.8764 171.976C151.665 186.854 123.863 215.582 191.547 230.047L188.783 197.303L188.672 196.46L187.732 191.208Z" fill="url(#paint8_linear_35_74)"/>
<path d="M0.610352 247.397C0.610352 247.397 64.9651 184.462 136.837 220.522C226.728 265.622 244.336 221.757 244.336 221.757C244.336 221.757 235.57 268.376 174.832 253.266C111.507 237.512 51.2708 221.139 0.610352 247.397Z" fill="url(#paint9_linear_35_74)"/>
<path d="M174.833 253.266C235.571 268.376 244.336 221.758 244.336 221.758C244.336 221.758 242.976 225.137 239.095 229.054C228.969 252.648 195.473 253.651 134.676 232.26C67.9526 208.783 0.611328 247.396 0.611328 247.396C51.2709 221.14 111.507 237.512 174.833 253.266Z" fill="url(#paint10_linear_35_74)"/>
<path d="M72.4824 202.879C72.4824 202.879 97.9097 186.658 143.942 217.127C143.942 217.127 98.1289 159.805 72.4824 202.879Z" fill="url(#paint11_linear_35_74)"/>
<path d="M143.942 217.126C98.8423 174.189 72.4824 202.878 72.4824 202.878C72.4824 202.878 97.9097 186.657 143.942 217.126Z" fill="url(#paint12_linear_35_74)"/>
<defs>
<linearGradient id="paint0_linear_35_74" x1="104.23" y1="185.19" x2="179.601" y2="-41.5405" gradientUnits="userSpaceOnUse">
<stop stop-color="#890000"/>
<stop offset="1" stop-color="#C80000"/>
</linearGradient>
<linearGradient id="paint1_linear_35_74" x1="61.9283" y1="170.24" x2="177.767" y2="15.4788" gradientUnits="userSpaceOnUse">
<stop/>
<stop offset="1" stop-color="#C80000"/>
</linearGradient>
<linearGradient id="paint2_linear_35_74" x1="195.349" y1="7.79101" x2="65.6089" y2="175.835" gradientUnits="userSpaceOnUse">
<stop stop-color="#890000"/>
<stop offset="1" stop-color="white"/>
</linearGradient>
<linearGradient id="paint3_linear_35_74" x1="155.048" y1="13.6328" x2="131.547" y2="141.497" gradientUnits="userSpaceOnUse">
<stop stop-color="#890000"/>
<stop offset="1" stop-color="#5B1111"/>
</linearGradient>
<linearGradient id="paint4_linear_35_74" x1="93.5792" y1="125.655" x2="213.078" y2="73.0749" gradientUnits="userSpaceOnUse">
<stop stop-color="#890000"/>
<stop offset="1" stop-color="#C80000"/>
</linearGradient>
<linearGradient id="paint5_linear_35_74" x1="221.17" y1="96.0911" x2="107.905" y2="204.001" gradientUnits="userSpaceOnUse">
<stop stop-color="#D8AD56"/>
<stop offset="0.5046" stop-color="#CC8232"/>
<stop offset="1" stop-color="#AD6225"/>
</linearGradient>
<linearGradient id="paint6_linear_35_74" x1="105.125" y1="43.5441" x2="190.383" y2="160.516" gradientUnits="userSpaceOnUse">
<stop stop-color="#D8AD56"/>
<stop offset="1"/>
</linearGradient>
<linearGradient id="paint7_linear_35_74" x1="210.842" y1="141.794" x2="157.71" y2="135.616" gradientUnits="userSpaceOnUse">
<stop stop-color="#D8AD56"/>
<stop offset="1"/>
</linearGradient>
<linearGradient id="paint8_linear_35_74" x1="96.3696" y1="136.356" x2="188.629" y2="204.726" gradientUnits="userSpaceOnUse">
<stop stop-color="white"/>
<stop offset="1" stop-color="#AD6225"/>
</linearGradient>
<linearGradient id="paint9_linear_35_74" x1="212.568" y1="198.839" x2="22.9011" y2="285.332" gradientUnits="userSpaceOnUse">
<stop stop-color="#D8AD56"/>
<stop offset="0.5046" stop-color="#CC8232"/>
<stop offset="1" stop-color="#AD6225"/>
</linearGradient>
<linearGradient id="paint10_linear_35_74" x1="57.1864" y1="250.24" x2="274.655" y2="224.704" gradientUnits="userSpaceOnUse">
<stop stop-color="white"/>
<stop offset="1" stop-color="#AD6225"/>
</linearGradient>
<linearGradient id="paint11_linear_35_74" x1="72.4824" y1="201.983" x2="143.942" y2="201.983" gradientUnits="userSpaceOnUse">
<stop stop-color="#890000"/>
<stop offset="1" stop-color="#C80000"/>
</linearGradient>
<linearGradient id="paint12_linear_35_74" x1="110.547" y1="187.436" x2="108.693" y2="205.353" gradientUnits="userSpaceOnUse">
<stop stop-color="#890000"/>
<stop offset="1" stop-color="white"/>
</linearGradient>
</defs>
</svg>
