<svg width="229" height="257" viewBox="0 0 229 257" fill="none" xmlns="http://www.w3.org/2000/svg">
<path d="M127.258 1.62555V82.849H132.399C138.34 82.849 144.077 83.7436 149.484 85.4008V32.9539L206.612 52.9542V142.985C206.612 181.324 182.962 214.243 149.484 227.918V210.739C149.484 198.678 139.301 189.121 127.263 189.858H127.258V233.857C119.183 234.947 110.643 234.947 102.567 233.857V212.084C102.567 199.81 92.6166 189.858 80.3411 189.858V227.918C46.8637 214.243 23.2129 181.324 23.2129 142.985V52.2402L80.3411 32.2399V82.8477H102.567V0.910156L0.987305 36.4739V141.532C0.987305 204.252 51.0699 256.296 113.788 256.905C177.12 257.519 228.837 206.179 228.837 142.985V37.1865L127.258 1.62555Z" fill="url(#paint0_linear_35_70)"/>
<path d="M80.3408 95.3477V177.355H102.566V117.573C102.566 105.299 92.6149 95.3477 80.3408 95.3477ZM127.258 95.3477V177.355H131.629C138.057 177.355 144.156 175.702 149.483 172.803V119.731C149.483 107.083 139.851 96.5159 127.258 95.3477Z" fill="url(#paint1_linear_35_70)"/>
<path d="M47.2432 68.9531C55.9223 77.6322 60.7897 82.4996 69.4688 91.1787H80.3413H127.258H132.399C138.577 91.1787 144.393 92.7443 149.484 95.4877C161.116 101.757 168.946 114.207 168.524 128.415C168.131 141.648 160.455 152.937 149.484 158.91C144.157 161.809 138.057 163.462 131.63 163.462H127.258H102.567H80.3413H69.4688C60.7897 172.141 55.9223 177.008 47.2432 185.688H80.3413H102.567H127.258H131.364C137.658 185.688 143.75 184.686 149.484 182.85C173.505 175.157 191.21 152.667 190.757 126.306C190.315 100.507 173.048 78.7338 149.484 71.5063C144.077 69.8477 138.342 68.9545 132.399 68.9545H127.258H102.567H80.3413H47.2432V68.9531Z" fill="url(#paint2_linear_35_70)"/>
<defs>
<linearGradient id="paint0_linear_35_70" x1="114.912" y1="-6.56459" x2="114.912" y2="274.697" gradientUnits="userSpaceOnUse">
<stop offset="0.0823" stop-color="#E9C166"/>
<stop offset="0.1821" stop-color="#D9AD59"/>
<stop offset="0.3853" stop-color="#B17A36"/>
<stop offset="0.4714" stop-color="#9E6226"/>
<stop offset="0.6298" stop-color="#88521E"/>
<stop offset="0.7895" stop-color="#7A4719"/>
<stop offset="0.9242" stop-color="#754317"/>
</linearGradient>
<linearGradient id="paint1_linear_35_70" x1="114.912" y1="92.9531" x2="114.912" y2="183.053" gradientUnits="userSpaceOnUse">
<stop offset="0.0823" stop-color="#E9C166"/>
<stop offset="0.1821" stop-color="#D9AD59"/>
<stop offset="0.3853" stop-color="#B17A36"/>
<stop offset="0.4714" stop-color="#9E6226"/>
<stop offset="0.6298" stop-color="#88521E"/>
<stop offset="0.7895" stop-color="#7A4719"/>
<stop offset="0.9242" stop-color="#754317"/>
</linearGradient>
<linearGradient id="paint2_linear_35_70" x1="119.004" y1="184.472" x2="119.004" y2="72.6805" gradientUnits="userSpaceOnUse">
<stop stop-color="#9E6226"/>
<stop offset="1" stop-color="#EDCB7E"/>
</linearGradient>
</defs>
</svg>
