<svg width="257" height="149" viewBox="0 0 257 149" fill="none" xmlns="http://www.w3.org/2000/svg">
<path d="M182.506 0.617188H4.6988C2.47678 0.617188 0.675781 2.41817 0.675781 4.64019V144.935C0.675781 147.157 2.47678 148.958 4.6988 148.958H182.505C223.468 148.958 256.676 115.751 256.676 74.7872C256.677 33.8249 223.469 0.617188 182.506 0.617188ZM124.199 138.275C124.199 140.497 122.398 142.298 120.176 142.298H92.3166C90.0946 142.298 88.2936 140.497 88.2936 138.275V94.8294C88.2936 92.6073 86.4926 90.8064 84.2706 90.8064H48.5343C46.3123 90.8064 44.5113 92.6073 44.5113 94.8294V138.275C44.5113 140.497 42.7103 142.298 40.4883 142.298H12.6291C10.4071 142.298 8.60613 140.497 8.60613 138.275V11.2959C8.60613 9.07384 10.4071 7.27285 12.6291 7.27285H40.4883C42.7103 7.27285 44.5113 9.07384 44.5113 11.2959V50.5925C44.5113 52.8145 46.3123 54.6155 48.5343 54.6155H84.2706C86.4926 54.6155 88.2936 52.8145 88.2936 50.5925V11.2959C88.2936 9.07384 90.0946 7.27285 92.3166 7.27285H120.172C122.397 7.27285 124.199 9.07615 124.199 11.2993V138.275ZM182.507 113.228H164.132C161.907 113.228 160.105 111.425 160.105 109.201V40.3753C160.105 38.151 161.908 36.3489 164.132 36.3489H181.689C202.606 36.3489 220.309 52.7185 220.929 73.6259C221.573 95.3499 204.088 113.228 182.507 113.228Z" fill="url(#paint0_linear_35_69)"/>
<path d="M84.271 90.8086H48.5347C46.3127 90.8086 44.5117 92.6096 44.5117 94.8316V96.2058C44.5117 93.9837 46.3127 92.1827 48.5347 92.1827H84.271C86.493 92.1827 88.294 93.9837 88.294 96.2058V94.8316C88.294 92.6096 86.493 90.8086 84.271 90.8086Z" fill="url(#paint1_linear_35_69)"/>
<path d="M182.506 0.617188H4.6988C2.47678 0.617188 0.675781 2.41817 0.675781 4.64019V6.01436C0.675781 3.79233 2.47678 1.99135 4.6988 1.99135H182.505C223.238 1.99135 256.287 34.8301 256.658 75.4754C256.661 75.2453 256.676 75.0185 256.676 74.7884C256.677 33.8249 223.469 0.617188 182.506 0.617188Z" fill="url(#paint2_linear_35_69)"/>
<path d="M40.4874 142.3H12.6294C10.4074 142.3 8.60645 140.499 8.60645 138.277V139.652C8.60645 141.874 10.4074 143.675 12.6294 143.675H40.4886C42.7106 143.675 44.5116 141.874 44.5116 139.652V138.277C44.5116 140.499 42.7095 142.3 40.4874 142.3ZM120.176 142.3H92.3169C90.0949 142.3 88.2939 140.499 88.2939 138.277V139.652C88.2939 141.874 90.0949 143.675 92.3169 143.675H120.176C122.398 143.675 124.199 141.874 124.199 139.652V138.277C124.199 140.499 122.398 142.3 120.176 142.3Z" fill="url(#paint3_linear_35_69)"/>
<path d="M182.507 113.23H164.132C161.908 113.23 160.105 111.427 160.105 109.203V110.578C160.105 112.802 161.909 114.604 164.132 114.604H182.507C203.838 114.604 221.155 97.1355 220.932 75.7539C220.418 96.5051 203.38 113.23 182.507 113.23Z" fill="url(#paint4_linear_35_69)"/>
<defs>
<linearGradient id="paint0_linear_35_69" x1="128.676" y1="-5.39361" x2="128.676" y2="152.584" gradientUnits="userSpaceOnUse">
<stop stop-color="#E9C166"/>
<stop offset="0.5422" stop-color="#9E6226"/>
<stop offset="1" stop-color="#754317"/>
</linearGradient>
<linearGradient id="paint1_linear_35_69" x1="66.4028" y1="96.1036" x2="66.4028" y2="67.382" gradientUnits="userSpaceOnUse">
<stop stop-color="#E9C166"/>
<stop offset="0.3003" stop-color="#9E6226"/>
<stop offset="1" stop-color="#754317"/>
</linearGradient>
<linearGradient id="paint2_linear_35_69" x1="128.676" y1="-1.05274" x2="128.676" y2="-45.0449" gradientUnits="userSpaceOnUse">
<stop offset="0.0029" stop-color="#F7D077"/>
<stop offset="0.5" stop-color="#9E6226"/>
<stop offset="1" stop-color="#754317"/>
</linearGradient>
<linearGradient id="paint3_linear_35_69" x1="66.4027" y1="157.711" x2="66.4027" y2="115.929" gradientUnits="userSpaceOnUse">
<stop stop-color="#E9C166"/>
<stop offset="0.5422" stop-color="#9E6226"/>
<stop offset="1" stop-color="#754317"/>
</linearGradient>
<linearGradient id="paint4_linear_35_69" x1="190.52" y1="135.265" x2="190.52" y2="72.4966" gradientUnits="userSpaceOnUse">
<stop stop-color="#E9C166"/>
<stop offset="0.5422" stop-color="#9E6226"/>
<stop offset="1" stop-color="#754317"/>
</linearGradient>
</defs>
</svg>
