<svg width="257" height="257" viewBox="0 0 257 257" fill="none" xmlns="http://www.w3.org/2000/svg">
<path d="M250.984 128.56C250.984 199.252 198.075 250.813 128.049 256.561C57.3582 256.561 0.0498047 199.252 0.0498047 128.56C0.0498047 84.5663 22.2441 45.7558 56.0477 22.7152C79.8767 11.2359 99.8671 5.38672 126.566 5.38672C197.257 5.38672 250.984 57.8674 250.984 128.56Z" fill="#344EA1"/>
<path d="M71.9476 127.269C74.2784 126.599 74.9487 127.019 74.2784 128.561C73.6082 130.1 65.6052 144.856 62.444 148.338C59.2728 151.829 49.5992 155.11 41.5162 158.192C33.4522 161.273 31.1413 168.576 31.0312 172.037C31.1623 167.226 31.3614 162.414 31.6405 157.861C31.6405 157.861 31.6405 157.851 31.6505 157.841C31.8205 157.45 34.5926 151.128 37.1835 146.607C39.8445 141.936 42.6856 138.024 47.2673 136.023C51.85 134.022 69.6067 127.929 71.9476 127.269Z" fill="#E36F1B"/>
<path d="M190.502 82.9727C193.063 85.3836 193.314 96.1666 190.223 101.609C189.803 102.38 189.291 103.041 188.723 103.56L179.108 112.234V112.244L156.971 132.231H156.961C157.609 128.779 157.949 125.238 157.949 121.596C157.949 118.656 157.73 115.774 157.301 112.954H157.311L190.502 82.9727Z" fill="white"/>
<path d="M192.282 62.3945C195.203 65.1456 195.123 78.8007 190.502 82.9722L157.31 112.954H157.3C156.499 107.69 154.989 102.67 152.866 97.9878L192.282 62.3945Z" fill="white"/>
<path d="M194.073 41.8203C196.995 44.5713 196.905 58.2264 192.282 62.398L152.867 97.9913C150.878 93.5987 148.345 89.5082 145.364 85.7978H145.376L150.898 80.8159L162.214 70.5911L194.073 41.8203Z" fill="white"/>
<path d="M130.089 216.152C145.015 229.907 163.772 239.602 184.58 243.425C167.533 251.838 148.346 256.558 128.049 256.558C124.698 256.558 121.387 256.429 118.105 256.179C124.257 252.127 124.628 242.313 122.377 238.562C120.126 234.81 114.573 231.87 114.573 231.87C118.376 228.84 121.816 226.018 123.356 224.578C127.168 221.016 130.089 216.152 130.089 216.152Z" fill="#FFC6A8"/>
<path d="M96.8463 157.379C101.549 180.41 113.444 200.817 130.089 216.151C130.089 216.151 127.168 221.014 123.356 224.576C121.817 226.016 118.375 228.838 114.574 231.868C108.972 236.34 102.579 241.281 100.348 242.952C96.5962 245.763 91.0351 243.141 89.7846 241.021C88.5342 238.889 82.651 225.134 82.651 225.134C82.651 225.134 79.7199 224.575 77.5881 224.134C75.4683 223.695 74.4679 222.944 73.9677 221.383C73.4675 219.823 73.0284 216.942 73.0284 216.942C73.0284 216.942 71.9069 216.881 69.406 216.512C66.9051 216.131 66.1448 215.072 65.7757 213.13C65.4045 211.19 64.7753 209.319 63.964 208.819C63.1437 208.319 59.0231 208.438 55.6408 207.128C52.2706 205.818 52.3286 204.376 53.1399 202.067C53.9602 199.746 58.642 185.369 58.8311 181.428C59.0221 177.496 57.8917 175.496 57.8917 175.496C63.4638 169.423 76.4086 159.76 80.5312 159.109C83.0511 158.709 90.4649 157.981 96.8463 157.379Z" fill="#FFC6A8"/>
<path d="M250.983 92.7891H250.973C247.673 118.858 233.938 141.686 214.091 156.932C214.081 156.942 214.071 156.952 214.062 156.942C197.834 169.418 177.536 176.82 155.509 176.82C143.625 176.82 132.23 174.66 121.726 170.707C121.595 170.668 121.466 170.627 121.335 170.568C117.323 169.088 113.822 166.536 111.171 163.264C109.531 161.235 108.211 158.933 107.311 156.432C107.311 156.432 105.531 156.592 102.87 156.832C101.148 156.982 99.0575 157.172 96.8467 157.381C101.549 180.412 113.445 200.819 130.089 216.153C145.015 229.908 163.772 239.603 184.58 243.425C197.864 236.882 209.85 228.1 220.043 217.564C235.41 201.679 246.703 181.841 252.225 159.702C254.726 149.739 256.046 139.305 256.046 128.561C256.045 116.148 254.276 104.143 250.983 92.7891Z" fill="#7A392E"/>
<path d="M252.224 159.704C246.702 181.843 235.409 201.681 220.042 217.565L220.032 217.555C209.999 220.727 199.325 222.448 188.241 222.448C146.755 222.448 110.821 194.467 102.869 156.834C105.53 156.594 107.31 156.434 107.31 156.434C108.21 158.935 109.532 161.236 111.17 163.266C120.455 184.094 145.113 199.63 171.873 199.63C204.677 199.629 233.807 183.963 252.224 159.704Z" fill="#8C4938"/>
<path d="M220.032 217.554L220.042 217.564C209.848 228.099 197.863 236.882 184.58 243.425C163.771 239.604 145.014 229.908 130.088 216.153C113.443 200.819 101.548 180.412 96.8457 157.381C99.0575 157.172 101.148 156.983 102.869 156.832C110.821 194.465 146.754 222.447 188.241 222.447C199.325 222.446 209.999 220.725 220.032 217.554Z" fill="#9E5841"/>
<path d="M250.984 92.787H250.974C247.673 118.856 233.938 141.684 214.091 156.93C214.081 156.94 214.071 156.95 214.062 156.94C208.869 159.541 204.117 160.101 200.077 159.351C200.846 154.619 201.247 149.767 201.247 144.816C201.247 129.161 197.256 114.434 190.233 101.609H190.223C193.314 96.1683 193.064 85.3842 190.502 82.9733C195.123 78.8018 195.203 65.1466 192.282 62.3956C196.904 58.2241 196.995 44.569 194.073 41.8179L162.211 70.5887C147.706 60.5949 130.119 54.7428 111.171 54.7428C102.809 54.7428 94.7163 55.8842 87.0334 58.015C83.311 42.138 71.9167 28.694 56.0508 22.7208C76.5685 8.73555 101.359 0.5625 128.049 0.5625C186.331 0.5615 235.509 39.5071 250.984 92.787Z" fill="#E33B3B"/>
<path d="M200.076 159.353C204.116 160.103 208.868 159.542 214.061 156.942C197.834 169.417 177.535 176.82 155.508 176.82C143.625 176.82 132.23 174.659 121.726 170.707C124.186 171.588 126.837 172.059 129.598 172.059C142.692 172.059 153.307 161.434 153.307 148.34C153.307 147.14 153.217 145.97 153.047 144.818C154.818 140.837 156.138 136.624 156.959 132.234H156.969L179.106 112.246C183.838 122.109 186.5 133.145 186.5 144.819C186.501 150.891 191.803 157.842 200.076 159.353Z" fill="#FF9B0F"/>
<path d="M201.247 144.818C201.247 149.768 200.847 154.62 200.076 159.352C191.803 157.841 186.501 150.89 186.501 144.818C186.501 133.143 183.84 122.108 179.107 112.244V112.234L188.722 103.561C189.29 103.041 189.802 102.381 190.223 101.609H190.233C197.255 114.435 201.247 129.161 201.247 144.818Z" fill="#E36F1B"/>
<path d="M162.211 70.5871L150.896 80.8119C139.361 73.6293 125.756 69.4877 111.17 69.4877C103.157 69.4877 95.4454 70.7382 88.2027 73.059C88.5818 67.9161 88.1616 62.8562 87.0322 58.0144C94.7151 55.8826 102.807 54.7422 111.17 54.7422C130.119 54.7412 147.706 60.5924 162.211 70.5871Z" fill="#E36F1B"/>
<path d="M157.3 112.957C157.73 115.776 157.948 118.658 157.948 121.599C157.948 125.242 157.608 128.782 156.96 132.234C156.14 136.625 154.818 140.837 153.048 144.819C151.857 136.826 146.675 130.133 139.602 126.841C139.832 125.132 139.942 123.381 139.942 121.599C139.942 112.696 136.982 104.484 131.98 97.9014L145.364 85.7969C148.346 89.5073 150.879 93.5988 152.867 97.9904C154.989 102.672 156.499 107.693 157.3 112.957Z" fill="#FFB026"/>
<path d="M158.539 135.265L181.745 118.455C180.955 116.342 180.078 114.268 179.107 112.246L156.969 132.234H156.959C156.139 136.624 154.818 140.837 153.048 144.818C153.062 144.92 153.068 145.023 153.081 145.125C153.136 145.524 153.181 145.927 153.216 146.331C153.23 146.491 153.239 146.651 153.251 146.813C153.263 146.993 153.282 147.172 153.29 147.354C155.476 143.587 157.242 139.54 158.528 135.262L158.539 135.265Z" fill="#E36F1B"/>
<path d="M153.048 144.82C153.218 145.971 153.308 147.141 153.308 148.342C153.308 161.437 142.693 172.062 129.598 172.062C126.837 172.062 124.186 171.59 121.727 170.709C121.596 170.67 121.466 170.619 121.335 170.57C117.324 169.089 113.823 166.537 111.172 163.266C109.532 161.237 108.211 158.935 107.311 156.434C106.391 153.913 105.891 151.182 105.891 148.341C105.891 140.947 109.273 134.345 114.574 129.994C118.665 126.643 123.897 124.633 129.599 124.633C133.181 124.633 136.563 125.422 139.603 126.843C146.675 130.135 151.857 136.826 153.048 144.82Z" fill="#FFB026"/>
<path d="M143.65 146.23C143.752 146.92 143.806 147.622 143.806 148.34C143.806 156.187 137.445 162.554 129.598 162.554C127.945 162.554 126.355 162.271 124.881 161.743C124.803 161.72 124.725 161.69 124.647 161.661C122.244 160.772 120.145 159.244 118.557 157.284C117.574 156.067 116.783 154.688 116.242 153.189C115.691 151.678 115.392 150.043 115.392 148.339C115.392 143.909 117.417 139.953 120.595 137.345C123.046 135.336 126.181 134.133 129.598 134.133C131.745 134.133 133.771 134.606 135.592 135.457C139.832 137.43 142.937 141.442 143.65 146.23Z" fill="#E36F1B"/>
<path d="M88.2038 73.0635C95.4465 70.7427 103.158 69.4922 111.171 69.4922C125.757 69.4922 139.362 73.6347 150.897 80.8164L145.375 85.7983H145.363L131.979 97.9028C136.981 104.485 139.941 112.697 139.941 121.601C139.941 123.382 139.832 125.133 139.601 126.843C136.561 125.422 133.179 124.633 129.597 124.633C123.896 124.633 118.663 126.644 114.572 129.994C102.858 125.012 94.0349 117.979 85.2817 106.975C80.3988 100.842 74.7467 89.8478 70.4951 81.4046C75.9592 77.8953 81.9004 75.0743 88.2038 73.0635Z" fill="#FF9B0F"/>
<path d="M158.488 144.001C158.072 141.201 157.246 138.538 156.092 136.059C155.309 139.08 154.297 142.01 153.048 144.82C153.218 145.97 153.308 147.141 153.308 148.341C153.308 161.436 142.693 172.061 129.599 172.061C126.837 172.061 124.186 171.59 121.727 170.709C127.616 172.924 133.794 174.554 140.174 175.579C151.077 171.338 158.808 160.742 158.808 148.341C158.808 146.862 158.699 145.419 158.488 144.001Z" fill="#E36F1B"/>
<path d="M109.196 127.442C110.926 128.346 112.71 129.199 114.573 129.992C118.665 126.641 123.897 124.631 129.599 124.631C133.18 124.631 136.563 125.42 139.603 126.841C139.833 125.131 139.943 123.38 139.943 121.599C139.943 121.406 139.935 121.214 139.931 121.021C136.719 119.803 133.246 119.129 129.599 119.129C122.575 119.129 116.129 121.605 111.088 125.733C110.43 126.274 109.805 126.848 109.196 127.442Z" fill="#E36F1B"/>
<path d="M114.573 129.992C109.272 134.343 105.89 140.945 105.89 148.338C105.89 151.18 106.39 153.911 107.311 156.432C107.311 156.432 105.531 156.592 102.87 156.832C101.148 156.982 99.0575 157.172 96.8467 157.381C90.4653 157.983 83.0525 158.711 80.5316 159.112C76.409 159.762 63.4642 169.426 57.8921 175.499C57.0328 176.429 56.3525 177.278 55.9014 178C52.5211 183.371 50.6394 192.374 48.8987 195.746C47.1381 199.126 31.9334 213.093 31.4132 212.502C31.0931 212.121 30.4809 192.165 31.0321 172.057C31.0321 172.045 31.0321 172.045 31.0321 172.036C31.1411 168.576 33.453 161.272 41.517 158.191C49.6 155.11 59.2736 151.83 62.4448 148.337C65.606 144.856 73.609 130.101 74.2792 128.56C74.9495 127.019 74.2792 126.598 71.9484 127.269C69.6075 127.929 51.8509 134.021 47.2691 136.022C42.6874 138.023 39.8464 141.934 37.1854 146.606C34.5944 151.128 31.8224 157.45 31.6523 157.84C32.0624 151.178 32.6647 145.075 33.514 140.354C42.3963 90.966 63.025 70.3273 64.1444 69.8271C64.6446 69.608 67.1256 74.7 70.4968 81.4015C74.7484 89.8436 80.4005 100.839 85.2834 106.972C94.0366 117.978 102.86 125.01 114.573 129.992Z" fill="#FFB026"/>
<path d="M89.0221 103.299C84.8725 97.0466 80.4078 86.2986 76.9565 77.6914C74.7367 78.8228 72.5819 80.0613 70.4951 81.4018C74.7467 89.844 80.3988 100.839 85.2817 106.972C94.0349 117.976 102.858 125.008 114.572 129.991C114.646 129.93 114.726 129.88 114.799 129.821C115.201 129.499 115.612 129.188 116.033 128.893C116.086 128.856 116.138 128.815 116.191 128.778C116.199 128.772 116.207 128.766 116.212 128.762C104.974 122.786 96.791 115.018 89.0221 103.299Z" fill="#E36F1B"/>
<path d="M156.045 136.227C153.165 129.95 148.128 124.866 141.873 121.956C141.24 121.661 140.59 121.395 139.932 121.145C139.934 121.295 139.942 121.446 139.942 121.598C139.942 123.379 139.833 125.13 139.602 126.84C146.674 130.132 151.856 136.823 153.048 144.817C154.273 142.061 155.267 139.187 156.045 136.227Z" fill="#FF9B0F"/>
<path d="M100.503 148.336C100.503 151.323 100.958 154.211 101.796 156.923C102.164 156.892 102.529 156.859 102.869 156.829C105.53 156.589 107.309 156.429 107.309 156.429C106.389 153.908 105.889 151.177 105.889 148.336C105.889 140.942 109.271 134.341 114.572 129.989C112.748 129.212 110.999 128.379 109.302 127.496C103.879 132.783 100.503 140.163 100.503 148.336Z" fill="#FF9B0F"/>
<path d="M190.502 82.9727L157.31 112.955H157.3C157.407 113.66 157.501 114.369 157.583 115.083C157.626 115.347 157.677 115.608 157.716 115.872H157.726L190.918 85.8897C191.186 85.6497 191.437 85.3736 191.673 85.0734C191.366 84.1471 190.972 83.4168 190.502 82.9727Z" fill="#DAE3F0"/>
<path d="M192.282 62.3945L152.867 97.9878C153.222 98.7731 153.555 99.5704 153.876 100.374L192.701 65.3136C192.969 65.0715 193.219 64.7954 193.455 64.4953C193.145 63.569 192.755 62.8377 192.282 62.3945Z" fill="#DAE3F0"/>
<path d="M119.192 255.353C122.494 252.68 132.576 243.196 138.556 223.202C135.617 220.99 132.788 218.641 130.088 216.152C130.088 216.152 127.167 221.015 123.356 224.577C121.816 226.017 118.375 228.839 114.573 231.869C114.573 231.869 120.126 234.809 122.377 238.561C124.487 242.078 124.294 250.921 119.192 255.353Z" fill="#E07B5C"/>
<path d="M118.104 256.179C118.104 256.179 118.502 255.911 119.184 255.359C118.846 255.654 118.486 255.927 118.104 256.179Z" fill="#E08763"/>
<path d="M64.2122 174.495C64.2122 174.495 64.4622 172.745 65.4626 171.744C66.463 170.744 77.4051 162.866 77.6862 162.772C77.9673 162.678 77.8112 163.678 77.6862 163.991C77.8743 166.555 77.061 172.307 74.1849 175.809C71.3088 179.31 68.9639 180.31 68.4017 180.686C67.8385 181.061 67.7455 180.623 67.9325 180.091C68.1206 179.56 68.2457 179.06 68.2457 179.06C68.2457 179.06 66.1199 175.903 65.6197 173.589C65.0565 174.526 64.0331 175.267 64.2122 174.495Z" fill="#E07B5C"/>
<path d="M73.0283 216.944C73.0283 216.944 75.3412 216.547 76.4666 216.153C77.592 215.758 80.6562 214.07 81.9066 213.82C83.1571 213.57 86.6584 212.945 86.7204 213.132C86.7835 213.32 85.9081 214.007 85.2199 214.257C84.5326 214.508 82.6569 214.571 82.0937 214.696C81.5315 214.821 77.9051 217.51 77.405 217.885C76.9048 218.26 73.4485 219.278 73.4485 219.278L73.0283 216.944Z" fill="#E07B5C"/>
</svg>
