<svg width="257" height="256" viewBox="0 0 257 256" fill="none" xmlns="http://www.w3.org/2000/svg">
<path d="M160.576 61.7422L148.351 99.1993L137.745 131.697L177.07 121.454L111.578 199.701C116.942 200.944 122.523 201.623 128.265 201.623C168.95 201.623 201.933 168.64 201.933 127.955C201.933 98.862 185.063 73.714 160.576 61.7422Z" fill="url(#paint0_linear_35_66)"/>
<path d="M128.265 54.2852C87.5799 54.2852 54.5977 87.2674 54.5977 127.953C54.5977 157.046 71.4677 182.194 95.9548 194.166L118.786 124.211L79.4603 134.454L144.952 56.2065C139.588 54.9638 134.007 54.2852 128.265 54.2852Z" fill="url(#paint1_linear_35_66)"/>
<path d="M232.541 163.969C230.428 161.857 229.6 158.776 230.381 155.932C232.051 149.848 233.183 143.588 233.745 137.326C234.029 134.158 236.172 131.401 239.204 130.3L256.265 124.109C255.998 115.08 254.767 106.085 252.597 97.3153L234.483 95.9211C232.488 95.7681 230.616 94.9092 229.209 93.5026C228.376 92.6697 227.745 91.6906 227.334 90.5927C226.205 87.5802 224.958 84.658 223.629 81.9064C222.301 79.1548 220.788 76.3622 219.131 73.6038C217.487 70.8672 217.595 67.3701 219.404 64.6922L229.576 49.6383C226.259 45.3396 222.645 41.2293 218.816 37.3989C216.285 34.8685 213.62 32.4214 210.874 30.1055L195.416 39.6179C192.67 41.3071 189.178 41.2702 186.519 39.5237C181.505 36.2286 176.163 33.3541 170.642 30.9453L170.632 30.9248L167.009 42.0267C199.739 56.8089 222.53 89.7105 222.53 127.956C222.53 180.017 180.326 222.221 128.265 222.221C117.358 222.221 106.894 220.348 97.1491 216.939L88.908 226.785L83.0088 233.832C86.6808 229.276 90.3527 228.721 91.1693 230.182C91.4506 230.981 91.6446 231.815 91.6732 232.684L92.2946 250.825C100.993 253.375 109.947 254.998 118.965 255.665L125.89 238.893C127.122 235.911 129.973 233.891 133.153 233.746C139.45 233.458 145.752 232.598 151.887 231.189C154.661 230.551 157.537 231.389 159.577 233.431C159.82 233.673 160.049 233.933 160.261 234.204L171.42 248.501C175.693 246.966 179.895 245.205 183.937 243.253C187.979 241.302 191.972 239.106 195.831 236.715L191.573 219.084C190.815 215.948 191.932 212.638 194.419 210.651C199.338 206.722 203.931 202.321 208.072 197.57C210.164 195.169 213.519 194.193 216.62 195.083L234.061 200.091C239.148 192.615 243.444 184.591 246.856 176.194L233.035 164.427C232.865 164.281 232.699 164.128 232.541 163.969Z" fill="url(#paint2_linear_35_66)"/>
<path d="M33.9989 127.955C33.9989 75.8937 76.2027 33.6899 128.264 33.6899C139.171 33.6899 149.635 35.5634 159.38 38.9718L173.52 22.0786C169.848 26.6354 166.176 27.1898 165.36 25.7287C165.078 24.9298 164.884 24.0955 164.854 23.227L164.234 5.08561C155.536 2.53613 146.582 0.912484 137.562 0.246094L130.638 17.0178C129.407 20.0002 126.556 22.0198 123.374 22.166C117.078 22.4541 110.776 23.3144 104.64 24.7236C101.867 25.3613 98.991 24.5229 96.9509 22.4814C96.7078 22.2383 96.4784 21.9789 96.2668 21.7085L85.1075 7.41116C80.8346 8.94604 76.6328 10.7076 72.5908 12.6603C68.5488 14.6117 64.5559 16.8075 60.6982 19.1986L64.956 36.8293C65.7139 39.966 64.5968 43.2761 62.1102 45.2616C57.1914 49.1903 52.5977 53.5914 48.4574 58.3422C46.3654 60.7428 43.0102 61.7192 39.909 60.8303L22.4681 55.8228C17.3815 63.2992 13.0854 71.3218 9.67291 79.7186L23.4937 91.4856C23.6657 91.6317 23.831 91.7846 23.9894 91.943C26.1033 94.0569 26.9308 97.1362 26.1497 99.9807C24.4796 106.064 23.3476 112.324 22.785 118.586C22.4996 121.754 20.357 124.511 17.3268 125.612L0.265625 131.804C0.531908 140.833 1.76362 149.827 3.93349 158.597L22.0489 159.991C24.044 160.146 25.9162 161.005 27.3227 162.41C28.1557 163.243 28.7866 164.222 29.1976 165.32C30.3269 168.332 31.5737 171.256 32.9023 174.006C34.231 176.758 35.7441 179.55 37.4018 182.309C39.0446 185.045 38.9381 188.544 37.1287 191.22L26.9567 206.274C30.2737 210.573 33.8883 214.684 37.7173 218.513C40.2477 221.044 42.9132 223.491 45.658 225.807L61.116 216.294C63.8622 214.604 67.3539 214.642 70.0126 216.389C75.0269 219.685 80.369 222.558 85.8899 224.967L85.8995 224.989L85.9049 224.974L89.5237 213.887C56.79 199.103 33.9989 166.202 33.9989 127.955Z" fill="url(#paint3_linear_35_66)"/>
<path d="M231.44 168.725C231.273 168.572 231.115 168.413 230.963 168.247C228.939 166.049 228.239 162.937 229.137 160.128C229.593 158.701 230.014 157.261 230.41 155.815C230.709 154.723 230.973 153.621 231.236 152.517C231.337 152.094 231.453 151.674 231.55 151.249C231.837 149.98 232.09 148.705 232.33 147.428C232.379 147.166 232.441 146.905 232.488 146.641C232.731 145.295 232.938 143.943 233.129 142.591C233.157 142.385 233.196 142.18 233.224 141.975C233.433 140.428 233.608 138.878 233.747 137.327C234.031 134.159 236.174 131.402 239.205 130.301L256.257 124.114C256.25 123.898 256.246 123.684 256.239 123.468C256.218 122.845 256.19 122.224 256.159 121.601C256.133 121.073 256.104 120.546 256.071 120.017C256.036 119.442 255.995 118.867 255.951 118.294C255.908 117.725 255.863 117.156 255.812 116.587C255.764 116.053 255.712 115.521 255.658 114.987C255.596 114.379 255.531 113.771 255.46 113.165C255.402 112.672 255.341 112.18 255.278 111.689C255.195 111.044 255.109 110.4 255.016 109.757C254.95 109.305 254.882 108.854 254.812 108.402C254.706 107.718 254.597 107.035 254.479 106.352C254.41 105.948 254.337 105.544 254.263 105.141C254.131 104.41 253.993 103.681 253.847 102.953C253.816 102.795 253.781 102.638 253.75 102.479L235.715 100.338C233.728 100.102 231.893 99.1667 230.546 97.7041C229.749 96.837 229.159 95.8333 228.793 94.719C228.337 93.3316 227.85 91.9688 227.347 90.6251C227.343 90.6142 227.337 90.6046 227.333 90.5937C226.469 88.29 225.52 86.0669 224.535 83.9052C223.541 81.7435 222.479 79.5682 221.298 77.4052C221.293 77.3984 221.292 77.3902 221.288 77.3833C220.597 76.1216 219.883 74.8584 219.129 73.6035C217.485 70.8669 217.593 67.3697 219.402 64.6919L229.569 49.6476C229.354 49.3704 229.137 49.0945 228.921 48.8187C228.392 48.1441 227.86 47.4723 227.317 46.8072C226.989 46.4071 226.656 46.0139 226.324 45.6192C225.786 44.9774 225.245 44.3356 224.694 43.7047C224.335 43.2937 223.97 42.8908 223.607 42.4852C223.104 41.924 222.6 41.3655 222.09 40.8138C221.001 39.6408 219.894 38.4787 218.755 37.3439C218.607 37.1965 218.449 37.0558 218.302 36.9097C217.168 35.7899 216.022 34.6825 214.851 33.6092L214.845 33.6051L199.008 42.4702C196.195 44.0447 192.707 43.8645 190.123 42.0087C185.25 38.5088 180.031 35.4158 174.615 32.7816L174.613 32.7789C174.609 32.7775 174.605 32.7748 174.601 32.7734L170.526 43.7033C171.094 43.9887 171.652 44.2919 172.213 44.5882C172.534 44.7575 172.857 44.9214 173.175 45.0935C173.849 45.4594 174.512 45.8404 175.176 46.2214C175.479 46.3962 175.785 46.5642 176.085 46.7417C176.744 47.1309 177.392 47.5337 178.041 47.9365C178.339 48.1223 178.642 48.3025 178.937 48.4923C179.57 48.8965 180.193 49.3157 180.816 49.735C181.118 49.9384 181.423 50.1365 181.724 50.3427C182.319 50.7537 182.905 51.1784 183.491 51.603C183.809 51.8338 184.131 52.0591 184.447 52.294C184.998 52.705 185.541 53.127 186.083 53.5503C186.421 53.8139 186.764 54.072 187.099 54.3396C187.601 54.7411 188.093 55.1549 188.586 55.5659C188.95 55.8704 189.319 56.1708 189.68 56.4808C190.126 56.8645 190.563 57.2605 191.003 57.6525C191.397 58.0048 191.795 58.353 192.184 58.7121C192.575 59.0726 192.957 59.4441 193.342 59.8114C193.765 60.2156 194.193 60.6171 194.609 61.0308C194.945 61.3627 195.272 61.7041 195.602 62.0427C196.054 62.5043 196.509 62.9645 196.951 63.4356C197.234 63.736 197.508 64.0446 197.788 64.3505C198.263 64.8694 198.74 65.3883 199.204 65.9181C199.441 66.1885 199.67 66.4657 199.903 66.7388C200.396 67.3151 200.888 67.8914 201.367 68.4786C201.563 68.7175 201.75 68.9633 201.942 69.2037C202.448 69.8346 202.949 70.4682 203.438 71.1127C203.596 71.323 203.749 71.5374 203.907 71.7491C204.415 72.4318 204.92 73.1173 205.411 73.8138C205.545 74.0036 205.672 74.1975 205.804 74.3873C206.307 75.1124 206.805 75.8416 207.287 76.5818C207.4 76.7566 207.51 76.9341 207.622 77.1089C208.11 77.8695 208.592 78.6342 209.059 79.4084C209.165 79.5832 209.264 79.7608 209.368 79.9356C209.832 80.7166 210.29 81.5005 210.731 82.2966C210.833 82.4809 210.93 82.6694 211.031 82.8551C211.463 83.6444 211.889 84.4378 212.299 85.2421C212.404 85.4483 212.502 85.6586 212.606 85.8648C212.999 86.6514 213.388 87.4406 213.761 88.2395C213.876 88.4867 213.984 88.7379 214.096 88.9851C214.443 89.7471 214.787 90.5118 215.114 91.2847C215.245 91.5947 215.367 91.9101 215.495 92.2214C215.789 92.9384 216.084 93.6553 216.361 94.3818C216.509 94.7682 216.644 95.1587 216.787 95.5479C217.029 96.2061 217.272 96.863 217.499 97.5266C217.661 98.0032 217.81 98.4852 217.966 98.9645C218.154 99.549 218.348 100.131 218.526 100.721C218.7 101.3 218.859 101.884 219.023 102.467C219.162 102.964 219.308 103.46 219.44 103.96C219.622 104.648 219.785 105.342 219.95 106.035C220.047 106.441 220.151 106.842 220.242 107.249C220.421 108.044 220.579 108.844 220.738 109.646C220.799 109.96 220.869 110.273 220.928 110.588C221.093 111.477 221.239 112.372 221.38 113.269C221.416 113.505 221.46 113.74 221.496 113.977C221.639 114.939 221.761 115.904 221.875 116.875C221.897 117.057 221.923 117.236 221.944 117.417C222.053 118.402 222.141 119.393 222.221 120.387C222.234 120.564 222.255 120.738 222.267 120.914C222.337 121.862 222.385 122.814 222.427 123.768C222.436 124.002 222.454 124.234 222.462 124.468C222.492 125.299 222.501 126.135 222.509 126.972C222.513 127.301 222.528 127.629 222.528 127.959C222.528 127.993 222.525 128.028 222.525 128.062C222.523 129.321 222.499 130.585 222.447 131.855C222.442 132.001 222.426 132.145 222.419 132.29C222.376 133.241 222.3 134.184 222.229 135.127C222.181 135.768 222.144 136.411 222.083 137.046C221.986 138.059 221.856 139.061 221.728 140.065C221.655 140.634 221.594 141.208 221.511 141.773C221.362 142.784 221.182 143.785 221.001 144.784C220.902 145.339 220.814 145.897 220.704 146.448C220.511 147.417 220.287 148.374 220.065 149.333C219.932 149.907 219.81 150.484 219.667 151.054C219.44 151.952 219.185 152.838 218.932 153.726C218.758 154.345 218.592 154.969 218.405 155.582C218.157 156.394 217.88 157.194 217.609 157.999C217.383 158.672 217.167 159.349 216.926 160.016C216.664 160.741 216.376 161.454 216.096 162.171C215.814 162.897 215.539 163.629 215.239 164.347C214.97 164.989 214.677 165.617 214.396 166.251C214.052 167.025 213.715 167.802 213.35 168.564C213.078 169.134 212.785 169.689 212.502 170.252C212.097 171.059 211.696 171.869 211.268 172.661C210.99 173.174 210.694 173.674 210.407 174.181C209.944 175.001 209.486 175.825 208.999 176.629C208.71 177.108 208.401 177.574 208.104 178.046C207.594 178.858 207.088 179.67 206.554 180.464C206.241 180.928 205.911 181.378 205.591 181.837C205.046 182.618 204.504 183.401 203.937 184.164C203.59 184.63 203.226 185.08 202.871 185.539C202.305 186.271 201.744 187.005 201.158 187.719C200.761 188.203 200.345 188.67 199.936 189.147C199.368 189.812 198.804 190.483 198.218 191.131C197.758 191.639 197.279 192.129 196.809 192.628C196.251 193.219 195.699 193.817 195.125 194.394C194.596 194.927 194.045 195.44 193.502 195.961C192.962 196.477 192.433 197.002 191.881 197.507C191.279 198.059 190.656 198.587 190.039 199.122C189.523 199.57 189.016 200.028 188.49 200.463C187.817 201.023 187.123 201.559 186.435 202.101C185.943 202.487 185.46 202.883 184.96 203.26C184.224 203.816 183.468 204.344 182.715 204.878C182.24 205.216 181.773 205.562 181.291 205.891C180.506 206.427 179.703 206.935 178.901 207.447C178.429 207.749 177.964 208.06 177.488 208.354C176.674 208.853 175.842 209.324 175.012 209.8C174.526 210.078 174.047 210.368 173.554 210.638C172.73 211.09 171.892 211.513 171.053 211.941C170.533 212.206 170.02 212.483 169.495 212.738C168.686 213.133 167.859 213.5 167.036 213.872C166.462 214.131 165.896 214.402 165.315 214.65C164.538 214.982 163.748 215.288 162.96 215.599C162.315 215.855 161.675 216.121 161.022 216.363C160.293 216.633 159.553 216.876 158.815 217.129C158.086 217.379 157.361 217.637 156.625 217.87C155.953 218.082 155.27 218.269 154.593 218.466C153.775 218.703 152.96 218.948 152.134 219.163C151.516 219.324 150.89 219.462 150.267 219.611C149.367 219.827 148.469 220.047 147.559 220.237C146.986 220.355 146.404 220.452 145.826 220.562C144.858 220.745 143.89 220.929 142.912 221.082C142.36 221.168 141.802 221.232 141.246 221.309C140.237 221.448 139.228 221.587 138.209 221.695C137.641 221.755 137.068 221.792 136.497 221.841C135.488 221.929 134.48 222.017 133.462 222.072C132.827 222.106 132.186 222.116 131.547 222.139C130.598 222.172 129.651 222.207 128.695 222.211C128.551 222.211 128.407 222.222 128.261 222.222C127.14 222.222 126.027 222.189 124.917 222.151C124.732 222.144 124.551 222.15 124.367 222.143C124.342 222.142 124.319 222.139 124.295 222.139C123.304 222.098 122.321 222.025 121.338 221.953C120.983 221.927 120.622 221.915 120.268 221.885C119.207 221.795 118.156 221.675 117.106 221.55C116.827 221.518 116.546 221.496 116.269 221.46C115.242 221.329 114.225 221.168 113.209 221.003C112.912 220.955 112.613 220.919 112.318 220.869C111.451 220.72 110.594 220.542 109.735 220.37C109.296 220.283 108.854 220.209 108.418 220.115C107.858 219.995 107.308 219.85 106.752 219.72C103.482 218.954 100.273 218.037 97.1469 216.943L88.9058 226.789L87.0732 228.979C87.1729 229.358 87.2494 229.744 87.2972 230.136C89.1926 229.171 90.6837 229.32 91.1672 230.186C91.4485 230.985 91.6424 231.819 91.671 232.688L92.291 250.82C92.4877 250.877 92.6843 250.937 92.8809 250.993C93.5405 251.183 94.2014 251.366 94.8624 251.546C95.2761 251.658 95.6899 251.769 96.105 251.876C96.8083 252.059 97.5129 252.236 98.2189 252.406C98.5971 252.498 98.974 252.589 99.3537 252.677C100.099 252.85 100.846 253.015 101.596 253.175C101.937 253.248 102.277 253.321 102.62 253.391C103.407 253.552 104.193 253.705 104.982 253.852C105.292 253.91 105.604 253.967 105.914 254.023C106.729 254.168 107.547 254.304 108.365 254.434C108.656 254.481 108.945 254.526 109.236 254.571C110.069 254.696 110.905 254.814 111.739 254.923C112.022 254.96 112.305 254.997 112.587 255.032C112.957 255.079 113.33 255.117 113.7 255.159L121.304 238.703C122.657 235.774 125.589 233.873 128.773 233.861C130.281 233.854 131.791 233.81 133.299 233.739C134.133 233.7 134.966 233.627 135.8 233.569C136.551 233.515 137.302 233.476 138.051 233.406C138.796 233.336 139.538 233.237 140.281 233.152C141.111 233.056 141.943 232.974 142.77 232.86C143.42 232.77 144.066 232.652 144.713 232.55C145.635 232.404 146.561 232.268 147.477 232.099C148.953 231.826 150.423 231.527 151.882 231.192C154.656 230.555 157.532 231.393 159.572 233.435C159.815 233.676 160.044 233.937 160.256 234.208L171.406 248.493C171.705 248.386 172.004 248.282 172.302 248.173C172.73 248.016 173.158 247.855 173.585 247.692C174.167 247.473 174.747 247.249 175.325 247.021C175.856 246.81 176.385 246.596 176.912 246.379C177.405 246.177 177.896 245.972 178.386 245.764C178.941 245.528 179.491 245.288 180.04 245.045C180.537 244.825 181.034 244.602 181.53 244.376C182.028 244.147 182.524 243.915 183.02 243.68C183.56 243.424 184.101 243.166 184.641 242.901C185.119 242.666 185.595 242.427 186.072 242.187C186.58 241.93 187.088 241.669 187.593 241.405C188.145 241.117 188.694 240.824 189.241 240.527C189.643 240.31 190.044 240.092 190.443 239.869C190.72 239.715 190.995 239.556 191.27 239.401L187.749 221.624C187.121 218.459 188.374 215.196 190.94 213.316C192.147 212.431 193.335 211.513 194.507 210.575C195.231 209.995 195.935 209.387 196.644 208.788C197.149 208.36 197.664 207.947 198.161 207.51C198.782 206.963 199.383 206.393 199.994 205.831C200.549 205.319 201.115 204.818 201.66 204.295C202.196 203.779 202.711 203.242 203.237 202.715C203.834 202.117 204.438 201.527 205.02 200.915C206.059 199.822 207.079 198.707 208.069 197.571C210.162 195.171 213.517 194.194 216.618 195.084L234.041 200.087C234.253 199.775 234.468 199.468 234.677 199.154C234.833 198.922 234.986 198.688 235.14 198.455C235.606 197.747 236.065 197.036 236.517 196.319C236.672 196.072 236.827 195.825 236.98 195.576C237.417 194.871 237.848 194.163 238.271 193.45C238.433 193.178 238.594 192.904 238.752 192.631C239.155 191.941 239.552 191.247 239.943 190.549C240.115 190.241 240.286 189.931 240.455 189.621C240.821 188.953 241.183 188.284 241.536 187.609C241.719 187.261 241.9 186.912 242.08 186.562C242.41 185.92 242.735 185.276 243.055 184.628C243.246 184.241 243.435 183.851 243.622 183.462C243.918 182.845 244.212 182.226 244.498 181.604C244.584 181.418 244.666 181.231 244.751 181.045L231.44 168.725Z" fill="url(#paint4_linear_35_66)"/>
<path d="M81.9288 223.142L86.0023 212.214C85.4342 211.929 84.8771 211.625 84.3158 211.329C83.9949 211.16 83.6713 210.996 83.3531 210.824C82.6799 210.458 82.0162 210.077 81.3526 209.696C81.0494 209.521 80.7435 209.353 80.4431 209.176C79.7849 208.788 79.1363 208.384 78.4877 207.981C78.19 207.795 77.8868 207.615 77.5919 207.425C76.9582 207.021 76.3356 206.602 75.7129 206.182C75.4111 205.979 75.1052 205.781 74.8048 205.575C74.2094 205.164 73.6236 204.739 73.0377 204.314C72.7196 204.083 72.3973 203.858 72.0818 203.623C71.5302 203.212 70.988 202.79 70.4459 202.368C70.1072 202.105 69.7645 201.847 69.4299 201.579C68.9274 201.178 68.4358 200.764 67.9429 200.353C67.5783 200.048 67.2095 199.748 66.849 199.438C66.4025 199.054 65.9655 198.658 65.5258 198.266C65.1312 197.914 64.7338 197.566 64.3446 197.207C63.9541 196.845 63.5717 196.475 63.1866 196.106C62.7633 195.702 62.3359 195.3 61.9194 194.886C61.5835 194.553 61.2571 194.213 60.9266 193.875C60.4746 193.413 60.0199 192.953 59.5775 192.482C59.2948 192.181 59.0217 191.873 58.7431 191.57C58.2665 191.049 57.7886 190.529 57.3243 189.998C57.0894 189.73 56.8628 189.454 56.6306 189.184C56.1363 188.606 55.6433 188.029 55.1626 187.44C54.9674 187.201 54.7803 186.955 54.5877 186.715C54.0839 186.084 53.5813 185.45 53.0925 184.806C52.9327 184.596 52.7811 184.381 52.6227 184.17C52.1147 183.487 51.6095 182.801 51.1192 182.105C50.9854 181.915 50.8584 181.721 50.726 181.531C50.2234 180.806 49.7264 180.077 49.243 179.337C49.1296 179.162 49.0204 178.985 48.9084 178.81C48.4195 178.049 47.9375 177.284 47.4705 176.51C47.3653 176.335 47.2656 176.158 47.1619 175.983C46.6976 175.202 46.2401 174.418 45.799 173.622C45.6966 173.438 45.5997 173.249 45.4986 173.064C45.0671 172.273 44.6411 171.48 44.2314 170.677C44.1262 170.47 44.0279 170.26 43.9241 170.054C43.5308 169.267 43.1417 168.478 42.7689 167.679C42.6528 167.432 42.5463 167.179 42.433 166.931C42.0861 166.169 41.742 165.407 41.4156 164.634C41.2831 164.323 41.1616 164.006 41.0332 163.693C40.7397 162.978 40.4461 162.261 40.1689 161.537C40.0214 161.15 39.8862 160.759 39.7428 160.371C39.5011 159.713 39.258 159.056 39.0314 158.392C38.8689 157.915 38.72 157.433 38.5643 156.954C38.3759 156.37 38.182 155.788 38.0044 155.198C37.8297 154.619 37.6713 154.033 37.5074 153.45C37.3681 152.953 37.222 152.459 37.0895 151.958C36.9093 151.269 36.7454 150.576 36.5802 149.882C36.4832 149.476 36.3795 149.075 36.288 148.668C36.1104 147.875 35.9507 147.074 35.7923 146.274C35.7294 145.959 35.6598 145.646 35.6011 145.329C35.4358 144.442 35.2897 143.547 35.1491 142.65C35.1122 142.412 35.0685 142.177 35.033 141.94C34.8896 140.979 34.7681 140.012 34.6534 139.042C34.6315 138.861 34.6056 138.682 34.5851 138.5C34.4759 137.515 34.3871 136.524 34.3079 135.53C34.2943 135.354 34.2738 135.179 34.2615 135.003C34.1918 134.055 34.144 133.103 34.1017 132.149C34.0908 131.915 34.0744 131.683 34.0648 131.448C34.0348 130.617 34.0266 129.781 34.0184 128.944C34.0143 128.615 33.9993 128.287 33.9993 127.957C33.9993 127.922 34.002 127.888 34.002 127.854C34.0047 126.594 34.028 125.331 34.0799 124.061C34.0853 123.915 34.1017 123.771 34.1085 123.626C34.1509 122.675 34.2273 121.732 34.2983 120.789C34.3461 120.148 34.383 119.505 34.4445 118.87C34.5414 117.857 34.6711 116.855 34.7995 115.851C34.8732 115.282 34.9333 114.709 35.0166 114.143C35.1655 113.131 35.3457 112.131 35.5273 111.13C35.627 110.576 35.7144 110.019 35.8237 109.468C36.0162 108.499 36.2415 107.54 36.4641 106.582C36.5966 106.008 36.7181 105.43 36.8615 104.861C37.0882 103.962 37.3449 103.075 37.5961 102.187C37.7709 101.569 37.9348 100.946 38.1233 100.333C38.3718 99.5189 38.649 98.7187 38.9194 97.9144C39.1447 97.2412 39.3604 96.5652 39.6008 95.8989C39.863 95.1737 40.1511 94.4609 40.431 93.744C40.7137 93.0175 40.9882 92.2856 41.2886 91.5687C41.5576 90.9269 41.8498 90.2987 42.1312 89.6651C42.4753 88.8908 42.8126 88.1138 43.1772 87.3519C43.4489 86.7824 43.7439 86.2253 44.0265 85.6627C44.4321 84.857 44.8322 84.0486 45.2596 83.2552C45.5382 82.7404 45.8359 82.2379 46.1227 81.7299C46.5842 80.9105 47.0417 80.0899 47.5265 79.2869C47.8173 78.8062 48.1259 78.3392 48.425 77.864C48.9344 77.0542 49.4396 76.2431 49.9722 75.4511C50.2849 74.9868 50.6153 74.5361 50.9349 74.0773C51.4797 73.2962 52.0219 72.5137 52.5886 71.7504C52.9341 71.2861 53.2986 70.8355 53.6523 70.378C54.219 69.6447 54.7816 68.9087 55.3688 68.1945C55.7648 67.7111 56.1813 67.2455 56.5869 66.7702C57.1563 66.1039 57.7203 65.4334 58.3075 64.7834C58.7677 64.274 59.247 63.7851 59.7168 63.2853C60.2753 62.6941 60.827 62.096 61.4005 61.5197C61.9303 60.9858 62.4806 60.4737 63.0241 59.952C63.5622 59.4358 64.0934 58.9101 64.645 58.4062C65.2486 57.8532 65.8727 57.3233 66.4899 56.7867C67.0047 56.3401 67.51 55.884 68.0344 55.4498C68.7089 54.8885 69.404 54.3519 70.095 53.8084C70.5852 53.4233 71.0672 53.0287 71.5657 52.6531C72.3017 52.0974 73.0582 51.5689 73.8106 51.035C74.2859 50.6977 74.7529 50.3508 75.2349 50.0217C76.0201 49.4864 76.823 48.9784 77.6246 48.4664C78.0971 48.1646 78.5614 47.8532 79.038 47.5596C79.8519 47.0598 80.6835 46.5887 81.5137 46.1135C81.9999 45.8349 82.4805 45.5454 82.9721 45.275C83.7956 44.823 84.634 44.3997 85.4725 43.9723C85.9927 43.7074 86.5062 43.4302 87.0306 43.1748C87.8403 42.7802 88.6665 42.4129 89.4886 42.0414C90.0621 41.782 90.6302 41.5116 91.2092 41.2631C91.9862 40.9312 92.7768 40.6253 93.5634 40.314C94.2093 40.0586 94.8484 39.7923 95.5011 39.5506C96.2303 39.2803 96.9704 39.0372 97.7078 38.7846C98.437 38.5347 99.1621 38.2766 99.8982 38.0431C100.57 37.8314 101.253 37.6443 101.93 37.4477C102.748 37.2101 103.563 36.9657 104.389 36.7499C105.007 36.5888 105.633 36.4509 106.256 36.302C107.156 36.0862 108.055 35.8664 108.964 35.6766C109.538 35.5564 110.119 35.4595 110.697 35.3516C111.665 35.1686 112.633 34.9842 113.611 34.8313C114.163 34.7453 114.721 34.6811 115.277 34.6046C116.286 34.4653 117.295 34.326 118.314 34.2182C118.882 34.1581 119.456 34.1212 120.026 34.0721C121.036 33.9847 122.043 33.8959 123.061 33.8413C123.696 33.8071 124.337 33.7962 124.977 33.7744C125.926 33.7416 126.872 33.7061 127.828 33.702C127.973 33.702 128.116 33.6911 128.262 33.6911C129.383 33.6911 130.496 33.7238 131.606 33.7621C131.791 33.7689 131.972 33.7634 132.157 33.7716C132.181 33.773 132.204 33.7757 132.228 33.7757C133.219 33.8167 134.202 33.8891 135.185 33.9614C135.54 33.9874 135.901 33.9997 136.255 34.0297C137.317 34.1198 138.37 34.24 139.421 34.3657C139.697 34.3984 139.977 34.4203 140.253 34.4544C141.284 34.5869 142.305 34.748 143.325 34.9132C143.618 34.961 143.913 34.9952 144.204 35.0457C145.073 35.1945 145.932 35.3734 146.794 35.5455C147.23 35.6329 147.671 35.7066 148.105 35.7995C148.665 35.9196 149.215 36.0644 149.771 36.1941C153.041 36.9602 156.25 37.8778 159.376 38.9717L169.45 26.9357C169.35 26.556 169.274 26.171 169.226 25.779C167.331 26.7431 165.839 26.5943 165.356 25.7285C165.075 24.9297 164.881 24.0953 164.851 23.2268L164.231 5.095C164.036 5.03765 163.84 4.97893 163.644 4.92158C162.983 4.73177 162.32 4.54742 161.657 4.36717C161.244 4.25519 160.832 4.14457 160.418 4.0367C159.714 3.85371 159.008 3.67756 158.3 3.5055C157.923 3.414 157.548 3.32388 157.169 3.23648C156.423 3.06306 155.674 2.89646 154.925 2.73669C154.585 2.66432 154.244 2.59195 153.903 2.52231C153.117 2.36117 152.329 2.20822 151.538 2.06074C151.228 2.00339 150.918 1.94604 150.608 1.89005C149.793 1.7453 148.975 1.60739 148.157 1.47902C147.866 1.43259 147.576 1.38752 147.286 1.34246C146.453 1.21683 145.618 1.0994 144.783 0.990153C144.5 0.953283 144.216 0.91641 143.933 0.880906C143.563 0.834477 143.192 0.797604 142.82 0.753906L135.215 17.2088C133.862 20.1379 130.93 22.0388 127.746 22.0524C126.24 22.0593 124.731 22.103 123.223 22.174C122.378 22.2136 121.533 22.2873 120.687 22.3474C119.947 22.4007 119.207 22.4389 118.468 22.5072C117.72 22.5768 116.974 22.6765 116.226 22.7625C115.4 22.8568 114.571 22.9387 113.748 23.0534C113.096 23.1435 112.452 23.261 111.803 23.3634C110.881 23.5081 109.957 23.6447 109.041 23.814C107.564 24.0871 106.095 24.3862 104.635 24.7207C101.862 25.3585 98.986 24.52 96.9458 22.4785C96.7028 22.2354 96.4734 21.976 96.2617 21.7056L85.112 7.42054C84.8115 7.52842 84.5098 7.63221 84.2093 7.74281C83.7846 7.89849 83.3613 8.05826 82.938 8.21803C82.3522 8.43925 81.7691 8.66457 81.1887 8.89398C80.6589 9.10428 80.1318 9.31729 79.6047 9.53442C79.1117 9.73652 78.6188 9.94136 78.1285 10.1503C77.5755 10.3852 77.0251 10.6255 76.4762 10.8686C75.9791 11.0884 75.4821 11.3096 74.9864 11.5377C74.4852 11.7671 73.9868 12.0006 73.4897 12.2355C72.9517 12.4908 72.4137 12.7476 71.877 13.0111C71.3977 13.246 70.9211 13.485 70.4432 13.7267C69.9338 13.9848 69.4258 14.2442 68.9192 14.5091C68.3703 14.7959 67.8227 15.0881 67.2778 15.3845C66.8736 15.6029 66.4694 15.8228 66.068 16.0454C65.7921 16.1983 65.519 16.3567 65.2445 16.5124L68.7663 34.2892C69.3931 37.4545 68.1409 40.7155 65.575 42.5972C64.3678 43.4821 63.1812 44.3984 62.0095 45.3365C61.2817 45.9182 60.5743 46.53 59.8615 47.1322C59.3604 47.5569 58.8483 47.9693 58.3539 48.4035C57.734 48.9484 57.1345 49.5165 56.5282 50.0763C55.9697 50.5898 55.403 51.0937 54.8554 51.6194C54.3228 52.1315 53.8121 52.6641 53.2918 53.1871C52.691 53.7893 52.082 54.3833 51.4975 54.9992C50.4583 56.093 49.4382 57.2059 48.4496 58.342C46.3575 60.7427 43.0024 61.7191 39.9012 60.8301L22.4768 55.8281C22.2678 56.1367 22.0534 56.4412 21.8472 56.7512C21.6875 56.9901 21.5304 57.2305 21.372 57.4695C20.9091 58.1727 20.453 58.8787 20.0037 59.5915C19.8467 59.8401 19.691 60.0913 19.5367 60.3412C19.1011 61.0431 18.6709 61.7491 18.249 62.4605C18.0851 62.735 17.924 63.0122 17.7628 63.2881C17.3614 63.9763 16.964 64.6673 16.5762 65.3623C16.4028 65.671 16.2334 65.9809 16.0627 66.2909C15.6954 66.9587 15.3349 67.6305 14.9799 68.3051C14.7982 68.6506 14.6193 68.9975 14.4405 69.3443C14.11 69.9875 13.7836 70.6334 13.4627 71.2834C13.2715 71.6712 13.0845 72.059 12.896 72.4496C12.5997 73.0668 12.3075 73.6854 12.0207 74.3067C11.9347 74.4924 11.8514 74.6795 11.7667 74.8666L25.0822 87.188C25.2474 87.3409 25.4072 87.5007 25.5588 87.6659C27.5825 89.8645 28.2831 92.9766 27.3845 95.7855C26.9284 97.2125 26.5078 98.6518 26.1118 100.099C25.8169 101.179 25.5561 102.269 25.2952 103.36C25.1901 103.797 25.0713 104.23 24.9716 104.668C24.6862 105.933 24.435 107.204 24.1946 108.478C24.1441 108.743 24.0826 109.007 24.0348 109.272C23.7918 110.618 23.5856 111.971 23.3944 113.325C23.3657 113.53 23.3275 113.734 23.2988 113.939C23.0899 115.486 22.9151 117.036 22.7758 118.588C22.4904 121.756 20.3479 124.513 17.3177 125.613L0.264648 131.801C0.271476 132.016 0.275574 132.231 0.282401 132.447C0.30425 133.068 0.331559 133.689 0.361602 134.311C0.387547 134.84 0.416217 135.372 0.448991 135.901C0.484495 136.472 0.525469 137.043 0.567802 137.614C0.611499 138.187 0.656558 138.761 0.708449 139.333C0.756244 139.863 0.808134 140.391 0.861391 140.92C0.924206 141.532 0.988403 142.142 1.06078 142.752C1.11813 143.243 1.17957 143.731 1.24239 144.222C1.32569 144.869 1.41172 145.515 1.50458 146.161C1.56876 146.61 1.63703 147.058 1.70667 147.506C1.81319 148.193 1.92379 148.88 2.04123 149.565C2.11087 149.968 2.1819 150.368 2.25564 150.77C2.38809 151.5 2.52601 152.231 2.67212 152.96C2.70353 153.118 2.73767 153.277 2.76907 153.434L20.8039 155.575C22.7908 155.811 24.6261 156.747 25.9726 158.209C26.77 159.075 27.36 160.08 27.7259 161.194C28.182 162.582 28.6695 163.946 29.1721 165.291C29.1762 165.3 29.1816 165.31 29.1857 165.321C30.0501 167.626 31.0005 169.85 31.9851 172.013C32.9779 174.174 34.0403 176.348 35.2201 178.509C35.2242 178.516 35.2269 178.524 35.231 178.533C35.922 179.794 36.6362 181.056 37.3886 182.311C39.0314 185.048 38.9248 188.546 37.1155 191.223L26.9489 206.267C27.1633 206.544 27.3805 206.82 27.5976 207.096C28.126 207.77 28.6572 208.442 29.2007 209.106C29.5271 209.505 29.8603 209.898 30.1921 210.293C30.7315 210.936 31.2723 211.578 31.824 212.21C32.1831 212.621 32.5491 213.026 32.9137 213.432C33.4135 213.989 33.9133 214.546 34.4226 215.094C35.5123 216.267 36.6212 217.43 37.76 218.568C37.9362 218.744 38.1233 218.911 38.3008 219.087C39.4069 220.178 40.5239 221.259 41.6669 222.307C41.6669 222.307 41.6696 222.31 41.6723 222.311L57.51 213.446C60.3231 211.871 63.8107 212.051 66.3943 213.907C71.268 217.407 76.4871 220.5 81.9029 223.134L81.9043 223.137C81.9193 223.14 81.9234 223.142 81.9288 223.142Z" fill="url(#paint5_linear_35_66)"/>
<path d="M170.642 30.9502L170.632 30.9297L170.096 32.5738L171.297 31.2533C171.078 31.155 170.863 31.0458 170.642 30.9502Z" fill="url(#paint6_linear_35_66)"/>
<path d="M85.8889 224.966L85.8984 224.988L85.9039 224.973L86.4351 223.344L85.2334 224.664C85.4533 224.761 85.6676 224.87 85.8889 224.966Z" fill="url(#paint7_linear_35_66)"/>
<path d="M111.578 199.704C116.942 200.946 122.523 201.625 128.265 201.625C168.95 201.625 201.933 168.643 201.933 127.957C201.933 127.914 201.933 127.871 201.933 127.828C201.922 121.311 195.635 116.622 189.329 118.263L137.745 131.699L177.07 121.456L111.578 199.704Z" fill="url(#paint8_linear_35_66)"/>
<path d="M128.265 54.2852C87.5799 54.2852 54.5977 87.2674 54.5977 127.953C54.5977 127.996 54.5977 128.039 54.5977 128.082C54.6086 134.599 60.8956 139.288 67.2017 137.647L79.4603 134.454L144.952 56.2065C139.588 54.9638 134.007 54.2852 128.265 54.2852Z" fill="url(#paint9_linear_35_66)"/>
<defs>
<linearGradient id="paint0_linear_35_66" x1="78.1574" y1="108.404" x2="210.149" y2="159.264" gradientUnits="userSpaceOnUse">
<stop stop-color="#15956F"/>
<stop offset="0.145" stop-color="#3AA66B"/>
<stop offset="0.3026" stop-color="#5BB668"/>
<stop offset="0.465" stop-color="#75C265"/>
<stop offset="0.632" stop-color="#87CA63"/>
<stop offset="0.8064" stop-color="#92CF62"/>
<stop offset="1" stop-color="#96D162"/>
</linearGradient>
<linearGradient id="paint1_linear_35_66" x1="151.442" y1="132.619" x2="61.8322" y2="111.125" gradientUnits="userSpaceOnUse">
<stop stop-color="#15956F"/>
<stop offset="0.145" stop-color="#3AA66B"/>
<stop offset="0.3026" stop-color="#5BB668"/>
<stop offset="0.465" stop-color="#75C265"/>
<stop offset="0.632" stop-color="#87CA63"/>
<stop offset="0.8064" stop-color="#92CF62"/>
<stop offset="1" stop-color="#96D162"/>
</linearGradient>
<linearGradient id="paint2_linear_35_66" x1="83.011" y1="142.886" x2="256.266" y2="142.886" gradientUnits="userSpaceOnUse">
<stop stop-color="#15956F"/>
<stop offset="1" stop-color="#96D162"/>
</linearGradient>
<linearGradient id="paint3_linear_35_66" x1="0.264123" y1="113.026" x2="173.52" y2="113.026" gradientUnits="userSpaceOnUse">
<stop stop-color="#15956F"/>
<stop offset="1" stop-color="#96D162"/>
</linearGradient>
<linearGradient id="paint4_linear_35_66" x1="139.726" y1="268.328" x2="167.275" y2="201.726" gradientUnits="userSpaceOnUse">
<stop stop-color="#15956F"/>
<stop offset="1" stop-color="#96D162"/>
</linearGradient>
<linearGradient id="paint5_linear_35_66" x1="20.9933" y1="219.218" x2="48.5423" y2="152.617" gradientUnits="userSpaceOnUse">
<stop stop-color="#15956F"/>
<stop offset="1" stop-color="#96D162"/>
</linearGradient>
<linearGradient id="paint6_linear_35_66" x1="82.6032" y1="244.712" x2="110.153" y2="178.108" gradientUnits="userSpaceOnUse">
<stop stop-color="#15956F"/>
<stop offset="1" stop-color="#96D162"/>
</linearGradient>
<linearGradient id="paint7_linear_35_66" x1="78.1134" y1="242.841" x2="105.661" y2="176.24" gradientUnits="userSpaceOnUse">
<stop stop-color="#15956F"/>
<stop offset="1" stop-color="#96D162"/>
</linearGradient>
<linearGradient id="paint8_linear_35_66" x1="169.646" y1="139.796" x2="123.732" y2="221.805" gradientUnits="userSpaceOnUse">
<stop stop-color="#15956F"/>
<stop offset="0.145" stop-color="#3AA66B"/>
<stop offset="0.3026" stop-color="#5BB668"/>
<stop offset="0.465" stop-color="#75C265"/>
<stop offset="0.632" stop-color="#87CA63"/>
<stop offset="0.8064" stop-color="#92CF62"/>
<stop offset="1" stop-color="#96D162"/>
</linearGradient>
<linearGradient id="paint9_linear_35_66" x1="85.013" y1="119.128" x2="130.368" y2="12.8182" gradientUnits="userSpaceOnUse">
<stop stop-color="#15956F"/>
<stop offset="0.145" stop-color="#3AA66B"/>
<stop offset="0.3026" stop-color="#5BB668"/>
<stop offset="0.465" stop-color="#75C265"/>
<stop offset="0.632" stop-color="#87CA63"/>
<stop offset="0.8064" stop-color="#92CF62"/>
<stop offset="1" stop-color="#96D162"/>
</linearGradient>
</defs>
</svg>
