<svg width="255" height="257" viewBox="0 0 255 257" fill="none" xmlns="http://www.w3.org/2000/svg">
<path d="M173.321 0.273438L152.369 28.5641C132.394 34.8395 114.837 42.8466 99.7482 52.5683C85.0199 38.3201 77.39 26.7638 76.2412 24.9635C89.7864 19.6311 104.549 16.7163 119.98 16.7163C124.352 16.7163 128.673 16.9564 132.925 17.4193C137.589 17.9337 142.304 17.0078 146.436 14.7788L173.321 0.273438Z" fill="#293E40"/>
<path d="M148.855 33.3008L135.652 51.1325L121.164 70.7645C113.997 65.4493 107.722 60.0998 102.304 55.0246C115.815 46.3831 131.349 39.1304 148.855 33.3008Z" fill="#293E40"/>
<path d="M119.141 73.5043L83.8893 121.238C82.4148 119.85 80.9917 118.444 79.5857 117.038C72.4016 109.854 65.7661 102.669 59.7822 95.7254C69.8468 80.757 83.0663 67.8119 99.3549 56.9414C104.996 62.2566 111.58 67.8976 119.141 73.5043Z" fill="#293E40"/>
<path d="M96.8175 54.508C80.7347 65.3442 67.601 78.2036 57.4506 93.0347C45.6543 79.1637 36.4126 66.4758 30.1201 57.3028C42.2251 43.5861 57.4163 32.647 74.6136 25.6172L73.1562 26.5088C73.362 26.8346 80.9748 39.0596 96.8175 54.508Z" fill="#293E40"/>
<path d="M55.4792 96.0024C53.2502 99.4487 51.1756 102.998 49.2724 106.65C39.002 126.282 34.5612 146.686 33.241 165.289C20.0558 151.949 9.03107 138.85 0.509574 127.928C0.492428 127.911 0.509574 127.911 0.509574 127.911C2.32703 102.175 12.2888 78.7022 27.8058 59.9961C34.2526 69.3577 43.5971 82.0971 55.4792 96.0024Z" fill="#293E40"/>
<path d="M52.752 163.398L80.0311 165.644L62.9024 192.186C54.2437 185.225 46.3394 178.127 39.3096 171.303C38.3495 170.36 37.3893 169.434 36.4463 168.508V168.491C37.475 149.527 41.7272 128.455 52.3062 108.223C54.0037 104.965 55.8383 101.793 57.81 98.707C63.6739 105.463 70.1208 112.441 77.0991 119.402C78.6423 120.928 80.2197 122.488 81.8314 124.031L52.752 163.398Z" fill="#293E40"/>
<path d="M39.3956 228.641L33.9433 237.076L33.7204 224.731C33.6689 221.422 32.383 218.25 30.1883 215.764C11.5336 194.658 0.200195 166.898 0.200195 136.499C0.200195 135.367 0.217339 134.236 0.251631 133.121C8.96173 144.094 19.9865 156.92 32.9831 169.865C31.7829 196.389 36.6866 218.645 39.3956 228.641Z" fill="#293E40"/>
<path d="M61.0331 195.086L41.8983 224.732C39.3093 214.393 35.64 195.464 36.2573 173.105C36.463 173.294 36.6688 173.5 36.8745 173.706C44.0758 180.684 52.1686 187.954 61.0331 195.086Z" fill="#293E40"/>
<path d="M243.52 27.4727L196.984 76.0177L143.321 130.847L179.65 131.447L74.3109 213.507L74.3092 213.509L49.1579 233.101C49.1836 233.12 49.2111 233.139 49.2385 233.158L28.2451 249.611L48.8356 241.981C54.2262 239.984 60.1793 240.441 65.2922 243.07C82.3317 251.835 101.732 256.643 122.297 256.252C186.822 255.027 238.354 203.624 239.724 139.103C240.135 119.726 235.941 101.373 228.168 85.0553C224.766 77.9175 224.797 69.6155 228.008 62.3902L243.52 27.4727Z" fill="#162533"/>
<path d="M182.036 0.273438L66.5993 157.786L94.7666 160.527L49.498 224.879L160.583 138.109L128.64 136.679L254.503 3.66488L196.141 20.9856L182.036 0.273438Z" fill="#F3AE39"/>
<path opacity="0.1" d="M128.631 136.674L160.578 138.109L49.4912 224.881L68.8969 197.286C102.069 171.929 132.565 149.59 133.528 146.668C134.963 142.363 115.427 144.76 112.557 141.873C109.754 139.037 250.069 7.82281 254.408 3.76953L128.631 136.674Z" fill="#593105"/>
<path d="M212.87 92.7461C217.347 101.465 220.388 110.94 222.07 120.66C222.895 125.526 223.306 130.464 223.423 135.407C223.449 140.352 223.219 145.31 222.559 150.226C221.278 160.059 218.464 169.7 214.336 178.741C210.188 187.779 204.659 196.173 198.075 203.628C191.446 211.046 183.741 217.496 175.267 222.696C166.765 227.84 157.538 231.802 147.916 234.22C138.306 236.667 128.349 237.637 118.492 237.181C108.643 236.643 98.8738 234.75 89.6904 231.324C108.484 236.884 128.637 236.905 147.244 231.712C165.852 226.496 182.832 215.848 195.59 201.418C208.441 187.065 217.002 168.951 219.999 149.856C223.03 130.76 220.597 110.754 212.87 92.7461Z" fill="#E6E7ED"/>
</svg>
