<svg width="257" height="156" viewBox="0 0 257 156" fill="none" xmlns="http://www.w3.org/2000/svg">
<path d="M129.244 65.6737L143.024 87.0371L146.652 93.9111C150.49 99.4475 161.274 114.546 165.021 117.877C168.675 121.124 180.801 126.556 185.164 128.375L185.393 128.47L198.123 136.327C203.958 122.056 218.857 82.3695 218.857 49.2117C218.857 44.3447 202.688 35.873 184.499 31.8309C184.499 31.8309 172.777 26.1723 180.861 7.57812H129.123C137.207 26.1723 125.485 31.8309 125.485 31.8309C114.979 34.1657 105.154 37.9781 98.7227 41.7195C109.645 48.485 124.268 59.6601 129.244 65.6737Z" fill="url(#paint0_linear_35_59)"/>
<path d="M178.319 22.7359C177.627 19.0769 178.009 14.1347 180.86 7.57812H129.121C131.972 14.1347 132.355 19.0769 131.662 22.7359H178.319Z" fill="url(#paint1_linear_35_59)"/>
<path d="M177.627 13.2393H132.355C128.783 13.2393 125.889 10.3437 125.889 6.77147C125.889 3.19923 128.784 0.304688 132.355 0.304688H177.627C181.199 0.304688 184.095 3.20028 184.095 6.77147C184.095 10.3437 181.199 13.2393 177.627 13.2393Z" fill="url(#paint2_linear_35_59)"/>
<path opacity="0.75" d="M182.795 102.321C182.795 102.321 185.714 44.3617 187.726 44.0808C189.738 43.7999 205.928 49.235 207.833 51.385C209.738 53.5351 196.776 120.383 194.329 119.871C191.882 119.36 181.474 125.361 182.795 102.321Z" fill="url(#paint3_linear_35_59)"/>
<path d="M205.787 144.741C205.787 144.741 219.261 146.358 225.459 145.819L236.777 140.43L256.18 146.358C256.18 146.358 242.167 149.861 223.843 150.131C205.519 150.4 159.978 142.316 143.54 134.77C127.102 127.225 89.3758 83.3013 74.2849 76.0252C74.2849 76.0252 95.3037 94.349 111.203 110.518C127.102 126.686 135.456 133.422 143.001 137.464C150.546 141.506 181.535 148.783 200.938 149.86C200.938 149.86 168.87 155.249 162.403 155.519C155.936 155.788 95.8436 143.123 88.5676 141.237C81.2915 139.351 65.9312 129.111 65.9312 129.111L96.9212 134.23C96.9212 134.23 79.9445 129.111 75.633 126.416C71.3214 123.72 61.3513 107.013 55.4223 100.546C49.4943 94.0785 41.1407 79.5275 41.1407 79.5275L52.4588 82.492C52.4588 82.492 42.7582 75.7548 38.716 72.7913C34.6739 69.8268 0.181641 50.9643 0.181641 50.9643C0.181641 50.9643 25.7814 42.3412 36.2914 41.533C46.8003 40.7248 64.5863 39.9165 64.5863 39.9165L86.4133 49.0784C86.4133 49.0784 75.0952 40.7248 69.4366 37.7602C63.7781 34.7957 58.1185 32.3711 58.1185 32.3711C58.1185 32.3711 79.6761 36.952 87.491 39.3777C95.3058 41.8034 120.367 59.8578 126.834 67.6726L130.606 83.8411L131.684 74.4099L140.038 88.1527L143.541 108.902L144.08 95.6981C144.08 95.6981 158.092 115.909 162.942 120.22C167.793 124.532 183.961 131.269 183.961 131.269L205.787 144.741Z" fill="url(#paint4_linear_35_59)"/>
<path opacity="0.45" d="M130.603 83.8404L126.83 67.6719L131.094 111.596L130.603 83.8404Z" fill="url(#paint5_linear_35_59)"/>
<path opacity="0.45" d="M112.818 105.531C112.818 105.531 106.081 78.179 100.826 68.4784C95.572 58.7777 86.4091 49.0759 86.4091 49.0759L64.582 39.9141C64.582 39.9141 86.5438 62.6851 95.7067 74.6757C104.87 86.6664 112.818 105.531 112.818 105.531Z" fill="url(#paint6_linear_35_59)"/>
<path opacity="0.45" d="M52.4569 82.4926L79.4048 92.6653L74.285 76.0258C49.6386 53.5493 0.179688 50.9648 0.179688 50.9648C0.179688 50.9648 34.672 69.8274 38.7141 72.7919C42.7562 75.7554 52.4569 82.4926 52.4569 82.4926Z" fill="url(#paint7_linear_35_59)"/>
<path opacity="0.45" d="M141.276 136.498C139.846 135.665 138.37 134.722 136.807 133.625C112.549 132.886 75.6328 126.418 75.6328 126.418C79.9443 129.113 96.9211 134.233 96.9211 134.233C127.052 138.492 138.003 137.219 141.276 136.498Z" fill="url(#paint8_linear_35_59)"/>
<path opacity="0.45" d="M55.4201 100.546C57.4761 102.789 60.0188 106.264 62.6418 109.958L123.902 122.93C122.595 121.72 121.217 120.416 119.768 119.02L50.0508 93.6289C51.8719 96.2394 53.7431 98.7163 55.4201 100.546Z" fill="url(#paint9_linear_35_59)"/>
<path opacity="0.45" d="M181.573 147.517C179.74 147.207 177.9 146.879 176.07 146.531C172.084 150.242 167.151 153.272 162.902 155.491C165.482 155.321 170.836 154.595 176.744 153.714C178.83 151.268 180.575 148.914 181.573 147.517Z" fill="url(#paint10_linear_35_59)"/>
<path d="M183.267 145.433C183.248 141.89 183.271 134.571 183.735 131.174C181.797 130.356 167.459 124.237 162.939 120.219C162.939 120.219 169.109 133.713 176.328 144.077C178.623 144.548 180.942 145.001 183.267 145.433Z" fill="url(#paint11_linear_35_59)"/>
<path d="M148.026 136.586C148.374 136.713 148.717 136.84 149.079 136.967C147.341 132.697 144.032 122.862 143.539 108.902L140.036 88.1523C140.036 88.1523 138.694 115.362 148.026 136.586Z" fill="url(#paint12_linear_35_59)"/>
<defs>
<linearGradient id="paint0_linear_35_59" x1="158.789" y1="38.2981" x2="158.789" y2="115.098" gradientUnits="userSpaceOnUse">
<stop stop-color="#4D4D4D"/>
<stop offset="1" stop-color="#303030"/>
</linearGradient>
<linearGradient id="paint1_linear_35_59" x1="154.99" y1="33.4475" x2="154.99" y2="7.84628" gradientUnits="userSpaceOnUse">
<stop stop-color="#4D4D4D" stop-opacity="0"/>
<stop offset="1" stop-color="#303030"/>
</linearGradient>
<linearGradient id="paint2_linear_35_59" x1="154.992" y1="0.709214" x2="154.992" y2="11.825" gradientUnits="userSpaceOnUse">
<stop stop-color="#4D4D4D"/>
<stop offset="1" stop-color="#303030"/>
</linearGradient>
<linearGradient id="paint3_linear_35_59" x1="200.062" y1="24.8173" x2="191.68" y2="105.24" gradientUnits="userSpaceOnUse">
<stop stop-color="#4D4D4D"/>
<stop offset="1" stop-color="#303030" stop-opacity="0"/>
</linearGradient>
<linearGradient id="paint4_linear_35_59" x1="191.944" y1="156.372" x2="-50.044" y2="3.8497" gradientUnits="userSpaceOnUse">
<stop stop-color="#B64AC1"/>
<stop offset="1" stop-color="#351F8B"/>
</linearGradient>
<linearGradient id="paint5_linear_35_59" x1="130.713" y1="107.391" x2="128.777" y2="76.7165" gradientUnits="userSpaceOnUse">
<stop stop-color="#B64AC1" stop-opacity="0"/>
<stop offset="1" stop-color="#351F8B"/>
</linearGradient>
<linearGradient id="paint6_linear_35_59" x1="99.4957" y1="91.1556" x2="76.0516" y2="39.4168" gradientUnits="userSpaceOnUse">
<stop stop-color="#B64AC1" stop-opacity="0"/>
<stop offset="1" stop-color="#351F8B"/>
</linearGradient>
<linearGradient id="paint7_linear_35_59" x1="48.5746" y1="88.5265" x2="27.7768" y2="42.6278" gradientUnits="userSpaceOnUse">
<stop stop-color="#B64AC1" stop-opacity="0"/>
<stop offset="1" stop-color="#351F8B"/>
</linearGradient>
<linearGradient id="paint8_linear_35_59" x1="128.931" y1="135.751" x2="75.3732" y2="127.667" gradientUnits="userSpaceOnUse">
<stop stop-color="#B64AC1" stop-opacity="0"/>
<stop offset="1" stop-color="#351F8B"/>
</linearGradient>
<linearGradient id="paint9_linear_35_59" x1="103.809" y1="118.757" x2="50.6552" y2="99.7593" gradientUnits="userSpaceOnUse">
<stop stop-color="#B64AC1" stop-opacity="0"/>
<stop offset="1" stop-color="#351F8B"/>
</linearGradient>
<linearGradient id="paint10_linear_35_59" x1="180.328" y1="145.662" x2="161.33" y2="161.83" gradientUnits="userSpaceOnUse">
<stop stop-color="#B64AC1" stop-opacity="0"/>
<stop offset="1" stop-color="#351F8B"/>
</linearGradient>
<linearGradient id="paint11_linear_35_59" x1="180.889" y1="142.489" x2="167.348" y2="112.376" gradientUnits="userSpaceOnUse">
<stop stop-color="#B64AC1" stop-opacity="0"/>
<stop offset="1" stop-color="#351F8B"/>
</linearGradient>
<linearGradient id="paint12_linear_35_59" x1="146.903" y1="136.264" x2="140.436" y2="90.386" gradientUnits="userSpaceOnUse">
<stop stop-color="#B64AC1" stop-opacity="0"/>
<stop offset="1" stop-color="#351F8B"/>
</linearGradient>
</defs>
</svg>
