<svg width="195" height="257" viewBox="0 0 195 257" fill="none" xmlns="http://www.w3.org/2000/svg">
<path fill-rule="evenodd" clip-rule="evenodd" d="M122.997 151.182C98.8936 157.346 71.8188 151.953 52.2281 134.893C48.1191 131.298 44.5605 127.409 41.5522 123.227C47.1653 147.55 61.363 157.346 62.6838 158.226C63.6743 158.777 11.836 126.969 12.7165 80.7438C12.7165 80.7438 1.60036 93.9511 0.939997 97.473C0.829937 97.8032 -6.76422 50.2572 46.0647 25.4936C46.0647 25.4936 28.1249 27.8049 25.7035 29.5659C25.2633 29.896 75.7809 -14.7884 130.701 15.148L123.107 0.399902C147.1 12.0663 165.59 36.2795 174.615 63.9046C176.816 70.8384 178.357 73.4799 179.017 82.835C179.238 85.3664 177.697 85.9167 175.165 85.3664C175.275 88.4481 175.275 91.4197 175.275 93.7309C175.055 97.6931 175.055 100.224 170.103 99.2339C163.499 97.8032 160.637 97.3629 155.354 91.8599C160.968 94.7215 163.719 93.7309 163.719 93.7309C163.059 86.1368 151.612 59.3922 147.21 66.326C145.889 68.307 144.899 78.9829 145.779 80.5237C146.55 82.1746 149.631 81.4042 149.631 81.4042C149.191 82.6149 147.76 83.9356 145.779 83.4953C143.908 83.1652 142.587 82.2847 142.587 82.2847C142.587 82.2847 141.267 72.0491 133.563 62.2537C132.535 61.0798 131.435 59.9792 130.261 58.9519C114.302 44.9743 89.2083 45.5246 74.13 60.2726C38.4705 94.9416 77.8721 144.028 122.997 151.182ZM172.194 78.7628C172.524 76.7817 169.662 66.436 169.552 66.7662C169.552 67.0964 166.36 69.9579 167.901 73.4799C169.332 77.0018 172.194 78.7628 172.194 78.7628Z" fill="#48D1EC"/>
<path d="M122.997 151.182C77.8721 144.028 38.4705 94.9416 74.13 60.2726C89.2083 45.5246 114.302 44.9743 130.261 58.9519C130.701 59.3188 131.141 59.7223 131.581 60.1626C89.0982 14.1574 48.3759 44.534 48.486 44.534C55.1997 42.9932 76.7715 43.9837 74.2401 45.5246C52.8884 52.7885 27.9047 72.5994 37.59 108.809C38.1403 101.435 42.5428 91.5297 47.0552 87.2374C57.7311 135.994 92.6201 148.541 122.997 151.182Z" fill="#387EB6"/>
<path fill-rule="evenodd" clip-rule="evenodd" d="M72.1489 105.618C96.3622 99.4543 123.437 104.847 143.028 122.017C147.1 125.539 150.732 129.501 153.704 133.573C148.09 109.36 133.893 99.5644 132.462 98.6839C131.581 98.0235 183.42 129.941 182.539 176.166C182.539 176.166 193.545 162.849 194.316 159.327C194.316 159.107 202.02 206.653 149.191 231.306C149.191 231.306 167.021 229.105 169.552 227.344C169.992 227.014 119.475 271.698 64.5548 241.652L72.1489 256.4C48.1558 244.844 29.6657 220.521 20.6408 193.005C18.3295 185.962 16.8987 183.43 16.1283 174.075C15.9082 171.544 17.449 170.993 20.0905 171.544C19.9804 168.352 19.9804 165.49 19.9804 163.069C20.0905 159.107 20.2005 156.686 25.1532 157.676C31.7568 158.997 34.6184 159.547 39.9013 164.94C34.1782 162.079 31.5367 163.069 31.5367 163.069C32.1971 170.663 43.6433 197.518 48.0457 190.584C49.2564 188.603 50.357 177.927 49.4765 176.276C48.7061 174.625 45.5144 175.396 45.5144 175.396C45.9546 174.295 47.4954 172.975 49.4765 173.305C51.2375 173.635 52.6683 174.515 52.6683 174.515C52.6683 174.515 53.989 184.861 61.5831 194.656C62.6104 195.757 63.7477 196.821 64.995 197.848C80.8437 211.826 106.047 211.275 121.126 196.637C156.785 161.858 117.384 112.882 72.1489 105.618ZM23.0621 178.037C22.7319 180.128 25.5935 190.364 25.5935 190.034C25.7035 189.704 28.8953 186.952 27.3544 183.32C25.8136 179.798 23.0621 178.037 23.0621 178.037Z" fill="#FFCB12"/>
<path d="M72.149 105.618C117.384 112.882 156.785 161.858 121.126 196.637C106.048 211.275 80.8437 211.826 64.9951 197.848C64.4814 197.481 64.0412 197.114 63.6743 196.748C106.158 242.753 146.88 212.266 146.77 212.376C140.056 213.807 118.484 212.926 121.016 211.386C142.367 204.122 167.351 184.311 157.556 147.991C157.115 155.475 152.603 165.27 148.201 169.563C137.525 120.806 102.636 108.369 72.149 105.618Z" fill="#FF8726"/>
</svg>
