<svg width="257" height="198" viewBox="0 0 257 198" fill="none" xmlns="http://www.w3.org/2000/svg">
<path d="M67.0435 74.2652C49.5808 43.6164 28.707 25.4409 24.2267 27.9865C19.7974 30.5321 67.7053 81.4947 67.7053 81.4947L67.0435 74.2652Z" fill="url(#paint0_linear_35_57)"/>
<path d="M67.7048 81.4986C67.7048 81.4986 34.714 35.5254 25.0408 38.2237C15.3676 40.8711 65.4647 84.706 65.4647 84.706L67.7048 81.4986Z" fill="url(#paint1_linear_35_57)"/>
<path d="M65.4648 84.7039C65.4648 84.7039 32.5249 46.2147 26.721 52.7314C20.9171 59.2481 64.0393 86.6895 64.0393 86.6895L65.4648 84.7039Z" fill="url(#paint2_linear_35_57)"/>
<path d="M65.4658 84.7054C65.4658 84.7054 33.1878 60.4715 30.0822 66.6318C27.0275 72.7921 63.4802 87.5565 63.4802 87.5565L65.4658 84.7054Z" fill="url(#paint3_linear_35_57)"/>
<path d="M64.7014 85.7762C64.7014 85.7762 34.1544 72.4882 34.1035 80.0741C34.1035 87.6599 63.0214 89.34 63.0214 89.34L64.7014 85.7762Z" fill="url(#paint4_linear_35_57)"/>
<path d="M63.4792 87.5548C63.4792 87.5548 37.6161 84.6528 38.9398 90.3549C40.2635 96.057 62.5628 91.5259 62.5628 91.5259L63.4792 87.5548Z" fill="url(#paint5_linear_35_57)"/>
<path d="M62.5629 91.5286C62.5629 91.5286 39.1945 91.274 41.8419 98.0962C44.5402 104.918 63.9376 96.1615 63.9376 96.1615L62.5629 91.5286Z" fill="url(#paint6_linear_35_57)"/>
<path d="M63.1223 93.4609C63.1223 93.4609 44.9978 99.3667 47.7979 104.712C50.6489 110.058 64.7006 97.7884 64.7006 97.7884L63.1223 93.4609Z" fill="url(#paint7_linear_35_57)"/>
<path d="M66.4838 95.3984C66.4838 95.3984 50.1411 105.224 54.1122 109.806C58.0324 114.389 69.0294 99.2677 69.0294 99.2677L66.4838 95.3984Z" fill="url(#paint8_linear_35_57)"/>
<path d="M81.9605 102.981C83.437 98.1447 63.6323 65.0012 56.4029 59.4009C49.1734 53.8006 61.7486 77.8309 61.7486 77.8309C61.7486 77.8309 52.279 71.3651 50.8026 74.929C49.3771 78.5437 61.4431 85.5695 61.4431 85.5695C61.4431 85.5695 52.5845 87.3514 53.5009 89.5915C54.4173 91.8316 60.1194 94.2245 62.9196 94.5809C62.9196 94.5809 58.3375 100.588 61.7486 104.05C65.1597 107.512 67.858 107.462 76.3602 108.276L81.9605 102.981Z" fill="url(#paint9_linear_35_57)"/>
<g style="mix-blend-mode:multiply" opacity="0.1">
<path d="M72.6437 81.7533C72.491 82.7206 72.1855 83.5861 71.5236 84.2988C71.0654 84.7571 70.4036 85.0625 69.7417 85.2153C68.8253 85.368 67.9089 85.1643 67.0434 84.808C66.1779 84.4516 65.4652 83.9934 64.6506 83.5352C64.2772 83.2976 63.8869 83.077 63.4796 82.8733C62.4614 82.3133 61.3922 81.8042 60.374 81.2441C59.2539 80.5823 58.1848 79.9204 57.1156 79.1568C56.1992 78.4949 55.2828 77.7312 54.5701 76.8148C53.9591 76.0511 53.45 75.1347 53.45 74.1165C53.45 74.0486 53.45 73.9808 53.45 73.9129C52.2281 73.7601 51.2099 73.9638 50.8026 74.9311C49.3771 78.5458 61.4431 85.5716 61.4431 85.5716C61.4431 85.5716 52.5845 87.3535 53.5009 89.5937C54.4173 91.8338 60.1194 94.2266 62.9196 94.583C62.9196 94.583 58.3375 100.591 61.7486 104.053C65.1597 107.515 67.858 107.464 76.3602 108.278L81.9605 102.983C82.6733 100.591 78.1931 91.2737 72.6437 81.7533Z" fill="#3C1243"/>
</g>
<path d="M111.795 96.6172C113.781 97.9918 111.846 100.079 120.45 102.981C129.055 105.883 146.263 116.371 145.906 117.949C145.499 119.527 123.505 101.556 108.283 107.36L105.482 100.232L111.795 96.6172Z" fill="url(#paint10_linear_35_57)"/>
<g style="mix-blend-mode:multiply" opacity="0.1">
<path d="M128.189 108.887C127.884 108.378 127.374 108.021 126.865 107.716C125.745 107.003 124.523 106.494 123.302 106.036C122.148 105.629 120.96 105.289 119.738 105.018C118.974 104.814 118.159 104.661 117.396 104.458C116.479 104.254 115.563 103.948 114.748 103.541C114.086 103.185 113.425 102.676 113.272 101.912C113.119 101.505 113.17 100.996 113.374 100.588C113.526 100.232 113.781 99.9264 114.036 99.6719C112.814 98.3991 112.966 97.3809 111.795 96.6172L105.482 100.232L108.283 107.36C114.443 105.018 121.774 106.545 128.291 109.141C128.257 109.074 128.223 108.989 128.189 108.887Z" fill="#3C1243"/>
</g>
<path d="M58.6426 155.625C58.6426 155.625 82.9274 182.862 90.8188 174.869C98.761 166.876 62.3591 151.195 62.3591 151.195L58.6426 155.625Z" fill="url(#paint11_linear_35_57)"/>
<g style="mix-blend-mode:multiply" opacity="0.1">
<path d="M90.9715 169.422C90.8018 169.727 90.5812 169.999 90.3096 170.236C89.8514 170.644 89.2405 170.847 88.6296 170.847C87.9677 170.847 87.2549 170.694 86.5931 170.491C85.8803 170.236 85.1676 169.931 84.5057 169.574C83.1311 168.913 81.9092 168.098 80.6873 167.182C79.9406 166.672 79.2109 166.146 78.4981 165.603C77.7175 164.992 76.9538 164.381 76.2071 163.77C75.4943 163.21 74.7816 162.65 74.0688 162.039C73.4579 161.581 72.8978 161.072 72.3887 160.512C71.8796 159.952 71.4723 159.341 71.2178 158.628C71.0141 157.967 70.9632 157.254 71.1159 156.541C71.1669 156.185 71.3196 155.828 71.5741 155.574C66.4321 152.926 62.3591 151.195 62.3591 151.195L58.6426 155.625C58.6426 155.625 82.9274 182.862 90.8188 174.869C92.397 173.291 92.2443 171.407 90.9715 169.422Z" fill="#3C1243"/>
</g>
<path d="M53.6016 155.115C53.6016 155.115 77.7846 193.859 89.1379 187.597C100.491 181.335 58.9982 152.366 58.4382 152.926C57.8781 153.435 53.6016 155.115 53.6016 155.115Z" fill="url(#paint12_linear_35_57)"/>
<g style="mix-blend-mode:multiply" opacity="0.1">
<path d="M90.1561 181.081C89.9016 181.539 89.5452 181.896 89.1379 182.15C88.6288 182.456 88.0179 182.558 87.4578 182.558C86.796 182.558 86.1341 182.456 85.5232 182.354C84.9122 182.218 84.3183 182.049 83.7413 181.845C82.4176 181.336 81.1957 180.521 80.0756 179.605C78.9556 178.637 77.9373 177.568 76.97 176.397C76.2233 175.481 75.5275 174.497 74.8826 173.444C74.2208 172.375 73.6099 171.153 73.2026 169.932C72.8462 168.761 72.6425 167.488 72.948 166.266C73.0498 165.706 73.3044 165.095 73.7117 164.637C73.8474 164.501 74.0002 164.365 74.1699 164.229C66.3295 157.815 58.6927 152.672 58.4382 152.927C57.8781 153.436 53.6016 155.116 53.6016 155.116C53.6016 155.116 77.7846 193.86 89.1379 187.598C91.5308 186.274 91.5817 183.932 90.1561 181.081Z" fill="#3C1243"/>
</g>
<path d="M50.0391 151.297C58.2868 177.873 76.2077 201.089 85.3208 197.423C94.434 193.706 52.6355 151.246 52.6355 151.246" fill="url(#paint13_linear_35_57)"/>
<g style="mix-blend-mode:multiply" opacity="0.1">
<path d="M68.3673 186.833C67.6545 185.255 67.0436 183.626 66.7381 181.946C66.4835 180.368 66.4835 178.637 67.0945 177.16C67.6036 175.938 68.6218 174.92 69.7928 174.36C70.8619 173.902 72.0329 173.749 73.153 173.953C73.1869 173.953 73.2208 173.953 73.2548 173.953C63.7343 162.548 52.6355 151.246 52.6355 151.246L50.0391 151.297C54.4175 165.4 61.5451 178.586 68.6218 187.292C68.52 187.122 68.4351 186.969 68.3673 186.833Z" fill="#3C1243"/>
</g>
<path d="M57.4711 166.214C43.5213 150.686 39.652 103.134 90.9201 85.9263C98.8114 83.2789 106.346 89.6428 109.91 93.6648C113.525 97.7378 112.507 100.945 109.452 101.76C109.452 101.76 111.896 103.847 110.521 105.935C109.146 108.022 99.015 108.531 97.7422 123.346C97.7422 123.346 96.3167 130.729 91.9892 128.641C91.9892 128.641 84.1997 143.813 73.8137 142.387C73.8137 142.387 73.5592 150.737 67.5007 153.69C67.5007 153.69 70.199 160.308 68.0098 161.988C68.0098 161.988 72.49 170.541 67.2461 172.934C62.0022 175.327 60.2712 166.214 60.2712 166.214C60.2712 166.214 59.1003 168.047 57.4711 166.214Z" fill="url(#paint14_linear_35_57)"/>
<g style="mix-blend-mode:multiply" opacity="0.1">
<path d="M52.38 125.74C52.8891 125.893 53.4491 125.893 53.9582 125.791C54.5182 125.689 55.0274 125.587 55.4856 125.282C56.402 124.722 57.0129 123.856 57.522 122.94C58.0311 122.024 58.3875 121.056 58.7948 120.14C58.8457 120.089 58.9476 120.089 58.9476 120.14C59.0833 120.378 59.2191 120.598 59.3549 120.802C60.1185 122.024 61.2386 123.449 62.7659 123.449C64.1915 123.5 65.3624 122.431 66.2279 121.464C66.8898 120.7 67.3989 119.936 68.0098 119.173C68.6208 118.358 69.2657 117.56 69.9445 116.78C71.3191 115.151 72.7446 113.623 74.3229 112.198C75.7484 110.874 77.2248 109.652 78.854 108.532C78.7522 108.43 78.6334 108.345 78.4976 108.278C77.3776 107.293 76.2575 106.326 75.1375 105.376C73.9835 104.391 72.8295 103.441 71.6755 102.524C70.4875 101.574 69.2826 100.692 68.0608 99.8771C67.6535 99.6056 67.2462 99.334 66.8389 99.0625C58.133 106.445 52.9909 115.202 50.4453 124.06C50.8526 124.824 51.5145 125.486 52.38 125.74Z" fill="#3C1243"/>
</g>
<g style="mix-blend-mode:multiply" opacity="0.1">
<path d="M97.8442 118.307C97.386 119.325 97.1823 120.394 96.7751 121.412C96.4187 122.227 95.9605 123.041 95.3495 123.754C94.5349 124.671 93.2112 125.485 91.9894 124.925C90.5129 124.263 90.0547 122.38 89.9529 120.852C89.291 122.94 88.5274 124.976 87.5091 126.962C85.6763 130.525 82.9271 133.987 78.9051 135.158C77.8359 135.413 76.7668 135.566 75.6976 135.515C74.6285 135.515 73.5593 135.311 72.6938 134.649C71.421 133.733 70.7592 132.256 70.3519 130.78C70.5555 132.307 70.6743 133.852 70.7083 135.413C70.7592 137.297 70.6065 139.18 70.301 141.013C70.0464 142.592 69.741 144.221 69.0282 145.646C68.6718 146.41 68.01 147.377 67.0426 147.275C66.5844 147.225 66.1771 146.97 65.8717 146.664C65.4644 146.206 65.1589 145.697 64.8534 145.188C64.9553 145.799 65.0571 146.41 65.1589 147.021C65.4135 148.905 65.5153 150.788 65.4135 152.672C65.3116 154.098 65.108 155.829 64.1407 157C64.0898 157.05 64.0389 157 63.9879 156.949C63.954 156.881 63.9031 156.813 63.8352 156.745C64.0388 157.61 64.0898 158.527 63.8861 159.392C63.6825 160.309 63.1733 161.174 62.3078 161.582C61.3914 162.04 60.1186 161.836 59.2531 161.429C58.1331 160.869 57.2676 159.851 56.6567 158.781C56.3003 158.069 55.9439 157.305 55.7402 156.541C55.7912 157.254 55.7911 157.967 55.6893 158.68C55.6384 159.647 55.3839 160.767 54.5693 161.429C54.4675 161.497 54.3487 161.565 54.2129 161.633C55.1802 163.364 56.3003 164.942 57.4712 166.215C59.1004 168.047 60.2714 166.215 60.2714 166.215C60.2714 166.215 62.0024 175.328 67.2463 172.935C72.4902 170.542 68.01 161.989 68.01 161.989C70.1992 160.309 67.5008 153.69 67.5008 153.69C73.5593 150.737 73.8139 142.388 73.8139 142.388C84.1999 143.813 91.9894 128.642 91.9894 128.642C96.3169 130.729 97.7424 123.347 97.7424 123.347C98.0988 119.529 99.0152 116.677 100.186 114.488C99.2188 115.659 98.4551 116.983 97.8442 118.307Z" fill="#3C1243"/>
</g>
<path d="M67.3475 101.863C67.3475 101.863 56.6052 117.646 62.1036 120.141C67.6021 122.635 71.2168 104.307 71.2168 104.307L67.3475 101.863Z" fill="url(#paint15_linear_35_57)"/>
<g style="mix-blend-mode:multiply" opacity="0.1">
<path d="M61.4941 119.733C61.4262 119.496 61.3922 119.258 61.3922 119.021C61.3413 118.308 61.494 117.544 61.5959 116.831C61.7486 115.966 62.0541 115.202 62.4105 114.438C62.9196 113.268 63.9378 112.3 65.1597 111.944C66.4834 111.536 67.858 111.842 68.9271 112.657C70.4036 108.533 71.2182 104.307 71.2182 104.307L67.3489 101.863C67.3489 101.863 57.5229 116.271 61.4941 119.733Z" fill="#3C1243"/>
</g>
<path d="M63.4794 101.508C63.4794 101.508 49.4787 114.49 54.2644 118.156C59.0501 121.822 66.7378 104.766 66.7378 104.766L63.4794 101.508Z" fill="url(#paint16_linear_35_57)"/>
<g style="mix-blend-mode:multiply" opacity="0.1">
<path d="M56.4548 113.472C57.2185 112.861 57.8804 112.097 58.7968 111.588C59.5604 111.181 60.4259 110.926 61.1387 110.417C62.0042 109.806 63.0734 109.756 64.0407 110.061C65.6189 107.21 66.739 104.766 66.739 104.766L63.4806 101.508C63.4806 101.508 51.8219 112.352 53.451 116.985C54.0111 115.61 55.182 114.541 56.4548 113.472Z" fill="#3C1243"/>
</g>
<path d="M62.1559 99.9805C62.1559 99.9805 40.8239 109.552 46.0678 114.592C51.3627 119.683 65.3125 103.646 65.3125 103.646L62.1559 99.9805Z" fill="url(#paint17_linear_35_57)"/>
<g style="mix-blend-mode:multiply" opacity="0.1">
<path d="M62.1563 99.9805C62.1563 99.9805 42.4026 108.839 45.61 114.032C45.6609 113.116 45.9664 112.25 46.4755 111.487C47.2901 110.265 48.3593 109.195 49.6321 108.381C50.803 107.617 52.2795 107.159 53.6541 106.803C54.4178 106.599 55.2323 106.344 56.0469 106.192C57.9307 105.835 59.9671 105.835 61.4436 107.312C61.5115 107.38 61.5793 107.431 61.6472 107.464C63.8364 105.377 65.3129 103.646 65.3129 103.646L62.1563 99.9805Z" fill="#3C1243"/>
</g>
<path d="M61.2904 96.0078C61.2904 96.0078 36.5982 104.205 40.213 108.838C43.7768 113.471 62.1559 99.9789 62.1559 99.9789L61.2904 96.0078Z" fill="url(#paint18_linear_35_57)"/>
<g style="mix-blend-mode:multiply" opacity="0.1">
<path d="M43.3695 105.783C44.4386 104.816 45.6096 104.205 46.9842 103.645C49.0207 102.83 51.6172 102.474 53.5518 103.645C54.0609 103.95 54.4852 104.34 54.8246 104.816C58.8976 102.372 62.1559 99.9789 62.1559 99.9789L61.2904 96.0078C61.2904 96.0078 36.5982 104.205 40.213 108.838C40.5184 109.245 40.9766 109.499 41.4858 109.652C41.4858 108.227 42.3003 106.699 43.3695 105.783Z" fill="#3C1243"/>
</g>
<path d="M61.6982 93.8711C61.6982 93.8711 28.3511 94.5839 31.5076 101.508C34.6641 108.432 61.6473 97.8422 61.6473 97.8422L61.6982 93.8711Z" fill="url(#paint19_linear_35_57)"/>
<g style="mix-blend-mode:multiply" opacity="0.1">
<path d="M31.3535 100.184C31.5911 99.9805 31.8796 99.7769 32.219 99.5732C32.8809 99.1659 33.6955 98.8604 34.4591 98.6059C35.5283 98.2495 36.5974 98.0459 37.6666 97.8422C39.143 97.5877 40.5685 97.2822 42.045 97.1295C43.4196 96.9767 44.7942 96.9767 46.1688 96.9767C47.798 96.9258 49.529 97.1294 50.9545 98.0459C51.9218 98.7077 52.7873 99.6241 53.3474 100.693C58.0822 99.2168 61.646 97.8422 61.646 97.8422L61.6969 93.8711C61.6969 93.8711 32.6772 94.482 31.3535 100.184Z" fill="#3C1243"/>
</g>
<path d="M61.9014 92.5448C61.9014 92.5448 22.4448 84.0935 22.1902 90.9666C21.9866 97.8905 61.2904 96.0068 61.2904 96.0068L61.9014 92.5448Z" fill="url(#paint20_linear_35_57)"/>
<g style="mix-blend-mode:multiply" opacity="0.1">
<path d="M25.5 88.6758C26.2128 88.7776 26.8746 89.1339 27.4346 89.5922C27.8928 89.9485 28.402 90.2031 28.962 90.4067C34.0022 92.3923 39.348 93.156 44.6937 93.8687C47.0356 94.1233 49.4285 94.327 51.8213 94.327C53.196 94.276 54.3669 95.0397 54.9779 96.1598C58.7453 96.1088 61.2909 96.007 61.2909 96.007L61.9019 92.545C61.9019 92.545 35.0205 86.792 25.5 88.6758Z" fill="#3C1243"/>
</g>
<path d="M61.9008 92.5457C61.9008 92.5457 15.8766 71.4174 13.331 79.8178C10.7854 88.1673 61.4935 94.9895 61.4935 94.9895L61.9008 92.5457Z" fill="url(#paint21_linear_35_57)"/>
<g style="mix-blend-mode:multiply" opacity="0.1">
<path d="M16.8945 77.8829C18.8801 79.003 20.9675 79.9703 23.0548 80.8358C25.5495 81.854 28.0442 82.8723 30.5898 83.7887C32.779 84.6033 35.0191 85.4178 37.3101 85.7742C39.7539 86.1306 42.2995 87.047 43.4195 89.4399C43.8268 90.3223 44.0644 91.2218 44.1323 92.1382C53.5509 93.9201 61.4932 94.9892 61.4932 94.9892L61.9005 92.5455C61.9005 92.5455 28.2478 77.1192 16.8945 77.8829Z" fill="#3C1243"/>
</g>
<path d="M62.6141 88.725C62.6141 88.725 13.3825 60.8254 5.69484 67.3421C-1.94191 73.8078 61.9013 92.5433 61.9013 92.5433L62.6141 88.725Z" fill="url(#paint22_linear_35_57)"/>
<g style="mix-blend-mode:multiply" opacity="0.1">
<path d="M33.2891 73.9141C33.323 74.525 33.323 75.1529 33.2891 75.7978C34.1376 76.239 35.0031 76.6633 35.8856 77.0706C38.6348 78.4452 41.384 79.7689 43.9805 81.4999C45.1515 82.3145 46.4243 83.1291 47.3916 84.2491C48.1044 85.0637 48.7153 85.9292 49.0208 86.9984C49.1565 87.5414 49.2244 88.0845 49.2244 88.6275C56.6066 91.0204 61.9014 92.5477 61.9014 92.5477L62.6142 88.7294C62.6142 88.7294 47.9007 80.3798 33.2891 73.9141Z" fill="#3C1243"/>
</g>
<path d="M58.9482 82.4667C30.285 61.9493 3.65815 54.1599 0.705271 58.3346C-2.24761 62.5603 62.6139 88.7289 62.6139 88.7289L58.9482 82.4667Z" fill="url(#paint23_linear_35_57)"/>
<g style="mix-blend-mode:multiply" opacity="0.1">
<path d="M40.4677 73.455C40.6035 74.5072 40.7562 75.5593 40.9259 76.6115C40.9259 77.5958 40.8071 78.5631 40.5695 79.5135C52.5847 84.6555 62.6143 88.7285 62.6143 88.7285L58.9487 82.4663C51.9228 77.4261 45.0498 73.2004 38.584 69.6875C39.4325 70.8076 40.0604 72.0634 40.4677 73.455Z" fill="#3C1243"/>
</g>
<path d="M84.5572 99.7726C83.8444 94.7832 51.9737 75.4368 43.0642 73.4003C34.1546 71.313 55.6393 87.9102 55.6393 87.9102C55.6393 87.9102 44.3369 85.9755 44.5406 89.8448C44.6933 93.7141 58.5922 95.0378 58.5922 95.0378C58.5922 95.0378 51.3118 100.384 53.0938 102.013C54.8248 103.642 61.0869 103.489 63.7343 102.624C63.7343 102.624 62.1051 110.006 66.6363 111.686C71.2183 113.417 73.6111 112.246 81.6552 109.395L84.5572 99.7726Z" fill="url(#paint24_linear_35_57)"/>
<path d="M104.82 98.7574C104.82 100.845 99.3725 100.998 99.2198 98.2992C99.067 95.6009 104.871 95.9064 104.82 98.7574Z" fill="url(#paint25_radial_35_57)"/>
<path d="M188.925 42.8556C209.29 14.0396 231.895 -2.04852 236.07 0.955264C240.244 3.90814 187.551 49.9323 187.551 49.9323L188.925 42.8556Z" fill="url(#paint26_linear_35_57)"/>
<path d="M187.551 49.9312C187.551 49.9312 224.92 7.47082 234.288 11.0855C243.605 14.6494 189.485 53.3422 189.485 53.3422L187.551 49.9312Z" fill="url(#paint27_linear_35_57)"/>
<path d="M189.486 53.3428C189.486 53.3428 226.041 18.2646 231.183 25.3414C236.325 32.4181 190.708 55.4811 190.708 55.4811L189.486 53.3428Z" fill="url(#paint28_linear_35_57)"/>
<path d="M189.486 53.3454C189.486 53.3454 224.004 32.4207 226.448 38.8355C228.943 45.2504 191.166 56.4001 191.166 56.4001L189.486 53.3454Z" fill="url(#paint29_linear_35_57)"/>
<path d="M190.148 54.5162C190.148 54.5162 221.866 44.232 221.154 51.8179C220.39 59.4037 191.472 58.2327 191.472 58.2327L190.148 54.5162Z" fill="url(#paint30_linear_35_57)"/>
<path d="M191.166 56.3991C191.166 56.3991 217.182 56.0428 215.298 61.5921C213.465 67.1415 191.675 60.4212 191.675 60.4212L191.166 56.3991Z" fill="url(#paint31_linear_35_57)"/>
<path d="M191.674 60.4219C191.674 60.4219 214.992 62.4583 211.683 68.975C208.374 75.4917 189.893 64.953 189.893 64.953L191.674 60.4219Z" fill="url(#paint32_linear_35_57)"/>
<path d="M190.962 62.3047C190.962 62.3047 208.425 69.9924 205.065 75.0326C201.756 80.0729 188.926 66.4795 188.926 66.4795L190.962 62.3047Z" fill="url(#paint33_linear_35_57)"/>
<path d="M187.398 63.9336C187.398 63.9336 202.722 75.2869 198.344 79.4617C193.966 83.6364 184.496 67.4974 184.496 67.4974L187.398 63.9336Z" fill="url(#paint34_linear_35_57)"/>
<path d="M171.26 69.9385C170.293 65.0001 193.203 33.944 200.993 29.0565C208.731 24.1689 193.865 46.8756 193.865 46.8756C193.865 46.8756 203.945 41.3771 205.015 45.0936C206.135 48.8102 193.407 54.6141 193.407 54.6141C193.407 54.6141 202.062 57.2615 200.942 59.3998C199.822 61.5381 193.865 63.3709 191.065 63.4728C191.065 63.4728 195.036 69.8876 191.268 72.9932C187.552 76.0989 184.854 75.7934 176.351 75.7425L171.26 69.9385Z" fill="url(#paint35_linear_35_57)"/>
<g style="mix-blend-mode:multiply" opacity="0.1">
<path d="M182.664 49.7275C182.664 50.6948 182.868 51.6112 183.479 52.324C183.937 52.884 184.497 53.2404 185.159 53.444C186.075 53.6986 187.042 53.5459 187.908 53.2913C188.773 53.0368 189.588 52.6295 190.403 52.2731C190.81 52.1034 191.217 51.9337 191.625 51.764C192.745 51.3058 193.814 50.8985 194.883 50.3893C196.054 49.8802 197.225 49.3202 198.294 48.6583C199.312 48.0983 200.33 47.4365 201.145 46.571C201.807 45.8582 202.367 44.9927 202.469 44.0254C202.503 43.9575 202.52 43.8896 202.52 43.8217C203.742 43.7708 204.709 44.0763 205.014 45.0945C206.134 48.8111 193.406 54.615 193.406 54.615C193.406 54.615 202.061 57.2624 200.941 59.4007C199.821 61.539 193.865 63.3718 191.065 63.4736C191.065 63.4736 195.036 69.8885 191.268 72.9941C187.552 76.0997 184.853 75.7943 176.351 75.7434L171.26 69.9394C170.802 67.4957 176.147 58.637 182.664 49.7275Z" fill="#3C1243"/>
</g>
<path d="M142.19 60.6758C140.102 61.8467 141.782 64.1378 132.975 66.1742C124.116 68.2107 105.991 76.9675 106.195 78.5967C106.399 80.1749 130.073 64.4432 144.684 71.7236L148.095 64.9014L142.19 60.6758Z" fill="url(#paint36_linear_35_57)"/>
<g style="mix-blend-mode:multiply" opacity="0.1">
<path d="M124.676 71.3163C125.032 70.8072 125.592 70.5017 126.102 70.2472C127.273 69.6362 128.545 69.2289 129.818 68.9235C131.04 68.6519 132.262 68.4313 133.484 68.2616C134.298 68.1598 135.062 68.058 135.877 67.9561C136.793 67.8034 137.76 67.6507 138.575 67.2943C139.288 66.9888 140 66.5815 140.255 65.8179C140.408 65.4106 140.408 64.9015 140.255 64.4942C140.153 64.1378 139.95 63.7814 139.644 63.5268C141.019 62.3559 140.968 61.3376 142.19 60.6758L148.095 64.9014L144.684 71.7236C138.728 68.7707 131.295 69.5853 124.574 71.52C124.608 71.4521 124.642 71.3842 124.676 71.3163Z" fill="#3C1243"/>
</g>
<path d="M189.333 124.622C189.333 124.622 162.451 149.365 155.374 140.608C148.298 131.902 186.023 119.836 186.023 119.836L189.333 124.622Z" fill="url(#paint37_linear_35_57)"/>
<g style="mix-blend-mode:multiply" opacity="0.1">
<path d="M155.834 135.16C155.969 135.5 156.156 135.805 156.394 136.077C156.801 136.484 157.361 136.739 157.972 136.79C158.634 136.891 159.346 136.79 160.008 136.637C160.772 136.484 161.536 136.28 162.248 135.975C163.623 135.415 164.947 134.753 166.27 133.989C167.051 133.548 167.832 133.09 168.612 132.615C169.427 132.072 170.242 131.546 171.056 131.037C171.82 130.527 172.583 130.018 173.347 129.509C173.958 129.102 174.62 128.644 175.18 128.135C175.74 127.625 176.198 127.065 176.504 126.404C176.809 125.742 176.911 125.029 176.809 124.316C176.809 123.96 176.707 123.603 176.453 123.298C181.798 121.16 186.024 119.836 186.024 119.836L189.333 124.622C189.333 124.622 162.452 149.365 155.375 140.608C154.001 138.928 154.357 137.044 155.834 135.16Z" fill="#3C1243"/>
</g>
<path d="M194.374 124.62C194.374 124.62 166.525 160.767 155.833 153.436C145.142 146.104 189.282 121.31 189.792 121.921C190.25 122.532 194.374 124.62 194.374 124.62Z" fill="url(#paint38_linear_35_57)"/>
<g style="mix-blend-mode:multiply" opacity="0.1">
<path d="M155.478 146.867C155.682 147.326 155.987 147.733 156.394 148.038C156.853 148.344 157.464 148.497 158.024 148.598C158.635 148.649 159.296 148.649 159.958 148.548C160.569 148.497 161.18 148.395 161.74 148.242C163.166 147.886 164.438 147.224 165.66 146.409C166.882 145.544 168.002 144.576 169.021 143.507C169.869 142.659 170.667 141.742 171.413 140.758C172.228 139.74 172.941 138.62 173.45 137.398C173.908 136.278 174.213 135.056 174.061 133.834C174.01 133.223 173.806 132.612 173.45 132.103C173.348 131.933 173.212 131.798 173.043 131.696C181.443 126.045 189.589 121.666 189.792 121.921C190.251 122.532 194.375 124.619 194.375 124.619C194.375 124.619 166.526 160.766 155.834 153.435C153.594 151.908 153.798 149.566 155.478 146.867Z" fill="#3C1243"/>
</g>
<path d="M198.345 121.106C187.501 146.817 167.391 168.149 158.685 163.566C149.979 159.035 195.749 120.852 195.749 120.852" fill="url(#paint39_linear_35_57)"/>
<g style="mix-blend-mode:multiply" opacity="0.1">
<path d="M176.605 154.708C177.47 153.231 178.234 151.653 178.641 150.024C179.1 148.497 179.252 146.766 178.794 145.187C178.387 143.965 177.521 142.845 176.401 142.184C175.383 141.573 174.212 141.369 173.041 141.42C173.041 141.42 173.024 141.42 172.99 141.42C183.58 130.983 195.748 120.852 195.748 120.852L198.344 121.106C192.591 134.75 184.191 147.173 176.299 155.166C176.401 154.996 176.503 154.844 176.605 154.708Z" fill="#3C1243"/>
</g>
<path d="M189.434 135.261C204.861 121.209 213.363 74.2687 164.029 52.0712C156.444 48.6601 148.349 54.2604 144.378 57.926C140.406 61.6426 141.068 64.9009 144.021 66.021C144.021 66.021 141.425 67.8538 142.545 70.043C143.716 72.2831 153.745 73.7596 153.542 88.6767C153.542 88.6767 154.305 96.1098 158.786 94.5315C158.786 94.5315 165.048 110.365 175.535 109.958C175.535 109.958 174.925 118.256 180.678 121.82C180.678 121.82 177.368 128.133 179.405 130.017C179.405 130.017 174.059 138.112 179.048 141.014C184.038 143.916 186.685 135.006 186.685 135.006C186.685 135.006 187.602 136.941 189.434 135.261Z" fill="url(#paint40_linear_35_57)"/>
<g style="mix-blend-mode:multiply" opacity="0.1">
<path d="M198.446 95.4975C197.937 95.5484 197.377 95.4975 196.868 95.3957C196.358 95.243 195.9 95.0393 195.442 94.7338C194.577 94.1229 194.067 93.1556 193.66 92.1883C193.253 91.2209 192.947 90.2536 192.642 89.2863C192.591 89.2354 192.54 89.1845 192.489 89.2354C192.353 89.473 192.201 89.6936 192.031 89.8972C191.165 91.0173 189.893 92.341 188.365 92.1883C186.94 92.0864 185.871 90.9155 185.107 89.8463C184.547 89.0826 184.089 88.2171 183.58 87.4026C183.037 86.5201 182.477 85.6716 181.9 84.857C180.678 83.126 179.405 81.4459 177.979 79.8676C176.707 78.3912 175.332 77.0166 173.855 75.7947C173.957 75.6929 174.059 75.608 174.161 75.5401C175.383 74.6916 176.605 73.8431 177.827 72.9945C179.048 72.146 180.287 71.3145 181.543 70.4999C182.833 69.6853 184.123 68.9216 185.412 68.2089C185.854 67.9713 186.295 67.7337 186.736 67.4961C194.627 75.7438 198.904 84.9588 200.584 94.0211C200.075 94.7338 199.362 95.2939 198.446 95.4975Z" fill="#3C1243"/>
</g>
<g style="mix-blend-mode:multiply" opacity="0.1">
<path d="M153.95 83.6353C154.307 84.7045 154.459 85.7736 154.765 86.8427C155.019 87.7082 155.376 88.5228 155.936 89.2865C156.649 90.2538 157.87 91.2211 159.143 90.8139C160.671 90.3047 161.282 88.421 161.587 86.9446C162.045 89.0829 162.605 91.2212 163.42 93.2576C164.896 96.9742 167.289 100.742 171.209 102.218C172.177 102.625 173.246 102.88 174.315 102.931C175.384 103.033 176.453 102.931 177.421 102.371C178.744 101.556 179.508 100.182 180.119 98.7052C179.746 100.233 179.474 101.76 179.304 103.287C179.101 105.171 178.999 107.055 179.152 108.938C179.253 110.517 179.355 112.146 179.966 113.673C180.272 114.437 180.832 115.506 181.799 115.506C182.257 115.506 182.664 115.251 183.021 114.946C183.479 114.59 183.835 114.08 184.141 113.622C183.971 114.199 183.818 114.793 183.683 115.404C183.275 117.237 182.919 119.121 182.868 121.004C182.817 122.481 182.868 124.161 183.734 125.434C183.785 125.485 183.835 125.485 183.835 125.434C183.903 125.366 183.971 125.298 184.039 125.23C183.734 126.096 183.632 127.012 183.734 127.878C183.835 128.794 184.243 129.71 185.057 130.22C185.974 130.729 187.196 130.678 188.163 130.321C189.334 129.863 190.25 128.947 190.963 127.979C191.421 127.318 191.829 126.554 192.083 125.79C192.032 126.503 191.93 127.216 191.93 127.979C191.93 128.947 192.032 130.067 192.796 130.78C192.898 130.881 193.016 130.966 193.152 131.034C191.981 132.663 190.708 134.089 189.436 135.26C187.603 136.94 186.686 135.005 186.686 135.005C186.686 135.005 184.039 143.915 179.05 141.013C174.06 138.111 179.406 130.016 179.406 130.016C177.37 128.132 180.679 121.819 180.679 121.819C174.926 118.255 175.537 109.957 175.537 109.957C165.049 110.364 158.787 94.5304 158.787 94.5304C154.307 96.1087 153.543 88.6756 153.543 88.6756C153.594 84.8572 152.983 81.9043 152.016 79.6133C152.881 80.8352 153.492 82.2607 153.95 83.6353Z" fill="#3C1243"/>
</g>
<path d="M185.923 70.2461C185.923 70.2461 195.036 86.996 189.334 88.9307C183.632 90.9162 181.799 72.3335 181.799 72.3335L185.923 70.2461Z" fill="url(#paint41_linear_35_57)"/>
<g style="mix-blend-mode:multiply" opacity="0.1">
<path d="M189.996 88.6252C190.097 88.3876 190.165 88.15 190.199 87.9125C190.301 87.1997 190.25 86.436 190.148 85.7232C190.097 84.8577 189.894 84.0432 189.639 83.2286C189.232 82.0576 188.316 80.9885 187.145 80.5303C185.872 79.9702 184.446 80.123 183.326 80.8357C182.257 76.6101 181.799 72.3335 181.799 72.3335L185.923 70.2461C185.923 70.2461 194.272 85.5705 189.996 88.6252Z" fill="#3C1243"/>
</g>
<path d="M189.843 70.2969C189.843 70.2969 202.469 84.5521 197.327 87.7596C192.185 90.9161 186.279 73.2497 186.279 73.2497L189.843 70.2969Z" fill="url(#paint42_linear_35_57)"/>
<g style="mix-blend-mode:multiply" opacity="0.1">
<path d="M195.647 82.923C194.934 82.1593 194.323 81.3447 193.509 80.7847C192.745 80.2756 191.93 79.9701 191.269 79.3591C190.454 78.6464 189.436 78.4937 188.468 78.7482C187.094 75.7444 186.279 73.2497 186.279 73.2497L189.843 70.2969C189.843 70.2969 200.382 82.2102 198.294 86.6904C197.836 85.214 196.767 84.043 195.647 82.923Z" fill="#3C1243"/>
</g>
<path d="M191.32 68.8711C191.32 68.8711 211.582 80.4789 205.829 85.0101C200.076 89.5412 187.807 72.2313 187.807 72.2313L191.32 68.8711Z" fill="url(#paint43_linear_35_57)"/>
<g style="mix-blend-mode:multiply" opacity="0.1">
<path d="M191.32 68.8711C191.32 68.8711 210.055 79.6134 206.389 84.501C206.389 83.5846 206.186 82.7191 205.778 81.9045C205.066 80.5808 204.098 79.4098 202.927 78.4934C201.807 77.577 200.433 77.017 199.109 76.5078C198.345 76.2024 197.531 75.8969 196.767 75.6933C194.883 75.1332 192.898 74.9296 191.269 76.2533C191.201 76.2872 191.133 76.3381 191.065 76.406C189.079 74.0641 187.807 72.2313 187.807 72.2313L191.32 68.8711Z" fill="#3C1243"/>
</g>
<path d="M192.54 65.0039C192.54 65.0039 216.265 75.5935 212.243 79.8701C208.221 84.0958 191.318 68.8732 191.318 68.8732L192.54 65.0039Z" fill="url(#paint44_linear_35_57)"/>
<g style="mix-blend-mode:multiply" opacity="0.1">
<path d="M209.443 76.5099C208.425 75.4408 207.305 74.728 205.981 74.0153C204.097 72.997 201.501 72.3861 199.464 73.3534C198.955 73.6249 198.497 73.9813 198.09 74.4226C194.322 71.5715 191.318 68.8732 191.318 68.8732L192.54 65.0039C192.54 65.0039 216.265 75.5935 212.243 79.8701C211.887 80.2265 211.428 80.4301 210.919 80.532C211.021 79.1064 210.359 77.5282 209.443 76.5099Z" fill="#3C1243"/>
</g>
<path d="M192.337 62.8633C192.337 62.8633 225.48 66.8344 221.611 73.402C217.793 79.9696 191.98 66.7835 191.98 66.7835L192.337 62.8633Z" fill="url(#paint45_linear_35_57)"/>
<g style="mix-blend-mode:multiply" opacity="0.1">
<path d="M221.917 72.1292C221.679 71.8916 221.424 71.654 221.153 71.4165C220.491 70.9582 219.727 70.5509 218.964 70.2455C217.996 69.7873 216.927 69.4818 215.858 69.1763C214.433 68.769 213.007 68.3108 211.531 68.0563C210.207 67.7508 208.832 67.5981 207.458 67.4453C205.879 67.2417 204.148 67.2926 202.621 68.0563C201.552 68.6163 200.635 69.4309 199.974 70.4491C195.442 68.5654 191.98 66.7835 191.98 66.7835L192.337 62.8633C192.337 62.8633 221.153 66.3253 221.917 72.1292Z" fill="#3C1243"/>
</g>
<path d="M192.234 61.5391C192.234 61.5391 232.353 56.9571 231.895 63.8302C231.436 70.7542 192.54 65.0012 192.54 65.0012L192.234 61.5391Z" fill="url(#paint46_linear_35_57)"/>
<g style="mix-blend-mode:multiply" opacity="0.1">
<path d="M228.891 61.2364C228.178 61.2873 227.465 61.5418 226.854 62.0001C226.345 62.2546 225.836 62.4582 225.276 62.611C220.083 64.0874 214.636 64.342 209.29 64.4947C206.897 64.5456 204.504 64.4947 202.162 64.2402C200.737 64.1383 199.515 64.7493 198.802 65.8184C195.035 65.3602 192.54 65.0038 192.54 65.0038L192.234 61.5418C192.234 61.5418 219.574 58.4362 228.891 61.2364Z" fill="#3C1243"/>
</g>
<path d="M192.234 61.5394C192.234 61.5394 240.142 44.9931 241.873 53.5972C243.553 62.2012 192.438 63.9832 192.438 63.9832L192.234 61.5394Z" fill="url(#paint47_linear_35_57)"/>
<g style="mix-blend-mode:multiply" opacity="0.1">
<path d="M238.462 51.3083C236.375 52.2756 234.237 52.9883 232.047 53.7011C229.451 54.4648 226.905 55.2285 224.309 55.8903C222.018 56.5013 219.727 57.0613 217.385 57.1631C214.941 57.3158 212.294 57.9777 210.97 60.2687C210.461 61.0833 210.138 61.9488 210.003 62.8652C200.431 63.7307 192.438 63.9853 192.438 63.9853L192.234 61.5415C192.234 61.5415 227.262 49.4245 238.462 51.3083Z" fill="#3C1243"/>
</g>
<path d="M191.93 57.6189C191.93 57.6189 243.656 34.7596 250.631 41.9381C257.657 49.1167 192.235 61.5391 192.235 61.5391L191.93 57.6189Z" fill="url(#paint48_linear_35_57)"/>
<g style="mix-blend-mode:multiply" opacity="0.1">
<path d="M222.578 45.7578C222.477 46.3688 222.409 46.9967 222.375 47.6416C221.492 47.981 220.593 48.3373 219.677 48.7107C216.825 49.7798 213.924 50.849 211.225 52.3254C209.952 52.9873 208.578 53.6491 207.509 54.6674C206.694 55.431 206.032 56.2456 205.625 57.2639C205.421 57.8069 205.302 58.333 205.269 58.8421C197.683 60.5222 192.235 61.5404 192.235 61.5404L191.93 57.6202C191.93 57.6202 207.407 50.7981 222.578 45.7578Z" fill="#3C1243"/>
</g>
<path d="M196.155 51.7635C226.753 34.1481 253.991 29.0569 256.537 33.4862C259.082 37.9155 191.93 57.6183 191.93 57.6183L196.155 51.7635Z" fill="url(#paint49_linear_35_57)"/>
<g style="mix-blend-mode:multiply" opacity="0.1">
<path d="M215.451 44.6382C215.213 45.6564 214.959 46.6746 214.687 47.6929C214.585 48.6772 214.619 49.6614 214.789 50.6457C202.316 54.5659 191.93 57.6206 191.93 57.6206L196.155 51.7658C203.639 47.4383 210.92 43.8745 217.691 41.0234C216.741 42.0756 215.994 43.2805 215.451 44.6382Z" fill="#3C1243"/>
</g>
<path d="M169.02 66.527C170.19 61.6395 203.792 45.4496 212.854 44.2786C221.968 43.1077 198.956 57.5157 198.956 57.5157C198.956 57.5157 210.411 56.7011 209.8 60.5704C209.24 64.3887 195.29 64.3378 195.29 64.3378C195.29 64.3378 202.01 70.3454 200.127 71.8219C198.192 73.2983 192.032 72.4837 189.435 71.3637C189.435 71.3637 190.351 78.8477 185.668 80.1204C180.933 81.3423 178.642 79.9677 170.954 76.353L169.02 66.527Z" fill="url(#paint50_linear_35_57)"/>
<path d="M148.91 63.4748C148.706 65.5622 154.154 66.224 154.561 63.5766C155.019 60.9292 149.215 60.6237 148.91 63.4748Z" fill="url(#paint51_linear_35_57)"/>
<defs>
<linearGradient id="paint0_linear_35_57" x1="14.1829" y1="38.0018" x2="37.105" y2="73.0597" gradientUnits="userSpaceOnUse">
<stop stop-color="#FFDC81"/>
<stop offset="0.481" stop-color="#FF5A6E"/>
<stop offset="1" stop-color="#FF4EA6"/>
</linearGradient>
<linearGradient id="paint1_linear_35_57" x1="12.5629" y1="49.05" x2="46.3802" y2="82.5206" gradientUnits="userSpaceOnUse">
<stop stop-color="#FFDC81"/>
<stop offset="0.481" stop-color="#FF5A6E"/>
<stop offset="1" stop-color="#FF4EA6"/>
</linearGradient>
<linearGradient id="paint2_linear_35_57" x1="19.5883" y1="58.9192" x2="50.5604" y2="84.896" gradientUnits="userSpaceOnUse">
<stop stop-color="#FFDC81"/>
<stop offset="0.481" stop-color="#FF5A6E"/>
<stop offset="1" stop-color="#FF4EA6"/>
</linearGradient>
<linearGradient id="paint3_linear_35_57" x1="28.0427" y1="70.1976" x2="53.8363" y2="84.1078" gradientUnits="userSpaceOnUse">
<stop stop-color="#FFDC81"/>
<stop offset="0.481" stop-color="#FF5A6E"/>
<stop offset="1" stop-color="#FF4EA6"/>
</linearGradient>
<linearGradient id="paint4_linear_35_57" x1="32.4346" y1="84.4087" x2="57.2065" y2="91.7174" gradientUnits="userSpaceOnUse">
<stop stop-color="#FFDC81"/>
<stop offset="0.481" stop-color="#FF5A6E"/>
<stop offset="1" stop-color="#FF4EA6"/>
</linearGradient>
<linearGradient id="paint5_linear_35_57" x1="38.4205" y1="94.5923" x2="53.9531" y2="97.7953" gradientUnits="userSpaceOnUse">
<stop stop-color="#FFDC81"/>
<stop offset="0.481" stop-color="#FF5A6E"/>
<stop offset="1" stop-color="#FF4EA6"/>
</linearGradient>
<linearGradient id="paint6_linear_35_57" x1="39.4964" y1="103.056" x2="56.9407" y2="105.491" gradientUnits="userSpaceOnUse">
<stop stop-color="#FFDC81"/>
<stop offset="0.481" stop-color="#FF5A6E"/>
<stop offset="1" stop-color="#FF4EA6"/>
</linearGradient>
<linearGradient id="paint7_linear_35_57" x1="50.6759" y1="116.382" x2="70.0994" y2="109.385" gradientUnits="userSpaceOnUse">
<stop stop-color="#FFDC81"/>
<stop offset="0.481" stop-color="#FF5A6E"/>
<stop offset="1" stop-color="#FF4EA6"/>
</linearGradient>
<linearGradient id="paint8_linear_35_57" x1="61.1854" y1="124.54" x2="72.1999" y2="117.945" gradientUnits="userSpaceOnUse">
<stop stop-color="#FFDC81"/>
<stop offset="0.481" stop-color="#FF5A6E"/>
<stop offset="1" stop-color="#FF4EA6"/>
</linearGradient>
<linearGradient id="paint9_linear_35_57" x1="12.5491" y1="83.7637" x2="34.4576" y2="122.675" gradientUnits="userSpaceOnUse">
<stop stop-color="#2FA27B"/>
<stop offset="1" stop-color="#5479BD"/>
</linearGradient>
<linearGradient id="paint10_linear_35_57" x1="151.286" y1="105.091" x2="113.45" y2="88.6335" gradientUnits="userSpaceOnUse">
<stop stop-color="#00C6DB"/>
<stop offset="0.667" stop-color="#9A2287"/>
<stop offset="1" stop-color="#3C1243"/>
</linearGradient>
<linearGradient id="paint11_linear_35_57" x1="96.8182" y1="168.488" x2="81.8142" y2="146.462" gradientUnits="userSpaceOnUse">
<stop stop-color="#FFDC81"/>
<stop offset="0.481" stop-color="#FF5A6E"/>
<stop offset="1" stop-color="#FF4EA6"/>
</linearGradient>
<linearGradient id="paint12_linear_35_57" x1="101.165" y1="178.385" x2="89.24" y2="152.732" gradientUnits="userSpaceOnUse">
<stop stop-color="#FFDC81"/>
<stop offset="0.481" stop-color="#FF5A6E"/>
<stop offset="1" stop-color="#FF4EA6"/>
</linearGradient>
<linearGradient id="paint13_linear_35_57" x1="98.6765" y1="192.567" x2="98.505" y2="170.966" gradientUnits="userSpaceOnUse">
<stop stop-color="#FFDC81"/>
<stop offset="0.481" stop-color="#FF5A6E"/>
<stop offset="1" stop-color="#FF4EA6"/>
</linearGradient>
<linearGradient id="paint14_linear_35_57" x1="17.8832" y1="100.193" x2="9.15958" y2="162.138" gradientUnits="userSpaceOnUse">
<stop stop-color="#2FA27B"/>
<stop offset="1" stop-color="#5479BD"/>
</linearGradient>
<linearGradient id="paint15_linear_35_57" x1="74.719" y1="130.539" x2="81.9534" y2="119.933" gradientUnits="userSpaceOnUse">
<stop stop-color="#FFDC81"/>
<stop offset="0.481" stop-color="#FF5A6E"/>
<stop offset="1" stop-color="#FF4EA6"/>
</linearGradient>
<linearGradient id="paint16_linear_35_57" x1="61.7611" y1="127.542" x2="76.4617" y2="113.045" gradientUnits="userSpaceOnUse">
<stop stop-color="#FFDC81"/>
<stop offset="0.481" stop-color="#FF5A6E"/>
<stop offset="1" stop-color="#FF4EA6"/>
</linearGradient>
<linearGradient id="paint17_linear_35_57" x1="46.0236" y1="120.129" x2="62.881" y2="115.025" gradientUnits="userSpaceOnUse">
<stop stop-color="#FFDC81"/>
<stop offset="0.481" stop-color="#FF5A6E"/>
<stop offset="1" stop-color="#FF4EA6"/>
</linearGradient>
<linearGradient id="paint18_linear_35_57" x1="41.4995" y1="112.896" x2="56.9442" y2="109.293" gradientUnits="userSpaceOnUse">
<stop stop-color="#FFDC81"/>
<stop offset="0.481" stop-color="#FF5A6E"/>
<stop offset="1" stop-color="#FF4EA6"/>
</linearGradient>
<linearGradient id="paint19_linear_35_57" x1="31.7942" y1="106.16" x2="57.3479" y2="102.409" gradientUnits="userSpaceOnUse">
<stop stop-color="#FFDC81"/>
<stop offset="0.481" stop-color="#FF5A6E"/>
<stop offset="1" stop-color="#FF4EA6"/>
</linearGradient>
<linearGradient id="paint20_linear_35_57" x1="21.8481" y1="95.0985" x2="51.0974" y2="96.9151" gradientUnits="userSpaceOnUse">
<stop stop-color="#FFDC81"/>
<stop offset="0.481" stop-color="#FF5A6E"/>
<stop offset="1" stop-color="#FF4EA6"/>
</linearGradient>
<linearGradient id="paint21_linear_35_57" x1="9.44543" y1="88.4051" x2="48.4552" y2="99.0029" gradientUnits="userSpaceOnUse">
<stop stop-color="#FFDC81"/>
<stop offset="0.481" stop-color="#FF5A6E"/>
<stop offset="1" stop-color="#FF4EA6"/>
</linearGradient>
<linearGradient id="paint22_linear_35_57" x1="-1.07081" y1="82.3865" x2="43.6639" y2="98.5946" gradientUnits="userSpaceOnUse">
<stop stop-color="#FFDC81"/>
<stop offset="0.481" stop-color="#FF5A6E"/>
<stop offset="1" stop-color="#FF4EA6"/>
</linearGradient>
<linearGradient id="paint23_linear_35_57" x1="-4.23113" y1="71.6847" x2="31.2766" y2="93.9033" gradientUnits="userSpaceOnUse">
<stop stop-color="#FFDC81"/>
<stop offset="0.481" stop-color="#FF5A6E"/>
<stop offset="1" stop-color="#FF4EA6"/>
</linearGradient>
<linearGradient id="paint24_linear_35_57" x1="94.0634" y1="76.4998" x2="49.3934" y2="64.5918" gradientUnits="userSpaceOnUse">
<stop stop-color="#2FA27B"/>
<stop offset="1" stop-color="#5479BD"/>
</linearGradient>
<radialGradient id="paint25_radial_35_57" cx="0" cy="0" r="1" gradientUnits="userSpaceOnUse" gradientTransform="translate(101.527 97.2515) rotate(-169.129) scale(4.1624)">
<stop stop-color="#00C6DB"/>
<stop offset="0.667" stop-color="#9A2287"/>
<stop offset="1" stop-color="#3C1243"/>
</radialGradient>
<linearGradient id="paint26_linear_35_57" x1="245.096" y1="11.9186" x2="218.848" y2="44.5616" gradientUnits="userSpaceOnUse">
<stop stop-color="#00C6DB"/>
<stop offset="0.667" stop-color="#9A2287"/>
<stop offset="1" stop-color="#3C1243"/>
</linearGradient>
<linearGradient id="paint27_linear_35_57" x1="245.625" y1="23.0671" x2="208.688" y2="53.0602" gradientUnits="userSpaceOnUse">
<stop stop-color="#00C6DB"/>
<stop offset="0.667" stop-color="#9A2287"/>
<stop offset="1" stop-color="#3C1243"/>
</linearGradient>
<linearGradient id="paint28_linear_35_57" x1="237.667" y1="32.2027" x2="204.297" y2="55.019" gradientUnits="userSpaceOnUse">
<stop stop-color="#00C6DB"/>
<stop offset="0.667" stop-color="#9A2287"/>
<stop offset="1" stop-color="#3C1243"/>
</linearGradient>
<linearGradient id="paint29_linear_35_57" x1="228.149" y1="42.5999" x2="201.116" y2="53.917" gradientUnits="userSpaceOnUse">
<stop stop-color="#00C6DB"/>
<stop offset="0.667" stop-color="#9A2287"/>
<stop offset="1" stop-color="#3C1243"/>
</linearGradient>
<linearGradient id="paint30_linear_35_57" x1="222.385" y1="56.3098" x2="197.016" y2="61.1554" gradientUnits="userSpaceOnUse">
<stop stop-color="#00C6DB"/>
<stop offset="0.667" stop-color="#9A2287"/>
<stop offset="1" stop-color="#3C1243"/>
</linearGradient>
<linearGradient id="paint31_linear_35_57" x1="215.428" y1="65.8606" x2="199.656" y2="67.5254" gradientUnits="userSpaceOnUse">
<stop stop-color="#00C6DB"/>
<stop offset="0.667" stop-color="#9A2287"/>
<stop offset="1" stop-color="#3C1243"/>
</linearGradient>
<linearGradient id="paint32_linear_35_57" x1="213.528" y1="74.1762" x2="195.929" y2="74.889" gradientUnits="userSpaceOnUse">
<stop stop-color="#00C6DB"/>
<stop offset="0.667" stop-color="#9A2287"/>
<stop offset="1" stop-color="#3C1243"/>
</linearGradient>
<linearGradient id="paint33_linear_35_57" x1="201.096" y1="86.3437" x2="182.452" y2="77.4756" gradientUnits="userSpaceOnUse">
<stop stop-color="#00C6DB"/>
<stop offset="0.667" stop-color="#9A2287"/>
<stop offset="1" stop-color="#3C1243"/>
</linearGradient>
<linearGradient id="paint34_linear_35_57" x1="189.838" y1="93.4288" x2="179.524" y2="85.7852" gradientUnits="userSpaceOnUse">
<stop stop-color="#00C6DB"/>
<stop offset="0.667" stop-color="#9A2287"/>
<stop offset="1" stop-color="#3C1243"/>
</linearGradient>
<linearGradient id="paint35_linear_35_57" x1="242.238" y1="57.6159" x2="216.621" y2="94.1928" gradientUnits="userSpaceOnUse">
<stop stop-color="#FFDC81"/>
<stop offset="0.481" stop-color="#FF5A6E"/>
<stop offset="1" stop-color="#FF4EA6"/>
</linearGradient>
<linearGradient id="paint36_linear_35_57" x1="102.079" y1="65.2461" x2="141.345" y2="52.5762" gradientUnits="userSpaceOnUse">
<stop stop-color="#2FA27B"/>
<stop offset="1" stop-color="#5479BD"/>
</linearGradient>
<linearGradient id="paint37_linear_35_57" x1="150.068" y1="133.676" x2="167.159" y2="113.227" gradientUnits="userSpaceOnUse">
<stop stop-color="#00C6DB"/>
<stop offset="0.667" stop-color="#9A2287"/>
<stop offset="1" stop-color="#3C1243"/>
</linearGradient>
<linearGradient id="paint38_linear_35_57" x1="144.772" y1="143.097" x2="159.154" y2="118.737" gradientUnits="userSpaceOnUse">
<stop stop-color="#00C6DB"/>
<stop offset="0.667" stop-color="#9A2287"/>
<stop offset="1" stop-color="#3C1243"/>
</linearGradient>
<linearGradient id="paint39_linear_35_57" x1="145.861" y1="157.454" x2="148.149" y2="135.974" gradientUnits="userSpaceOnUse">
<stop stop-color="#00C6DB"/>
<stop offset="0.667" stop-color="#9A2287"/>
<stop offset="1" stop-color="#3C1243"/>
</linearGradient>
<linearGradient id="paint40_linear_35_57" x1="235.317" y1="73.446" x2="237.927" y2="135.948" gradientUnits="userSpaceOnUse">
<stop stop-color="#FFDC81"/>
<stop offset="0.481" stop-color="#FF5A6E"/>
<stop offset="1" stop-color="#FF4EA6"/>
</linearGradient>
<linearGradient id="paint41_linear_35_57" x1="175.781" y1="98.0724" x2="169.621" y2="86.8093" gradientUnits="userSpaceOnUse">
<stop stop-color="#00C6DB"/>
<stop offset="0.667" stop-color="#9A2287"/>
<stop offset="1" stop-color="#3C1243"/>
</linearGradient>
<linearGradient id="paint42_linear_35_57" x1="188.972" y1="96.3591" x2="175.763" y2="80.4916" gradientUnits="userSpaceOnUse">
<stop stop-color="#00C6DB"/>
<stop offset="0.667" stop-color="#9A2287"/>
<stop offset="1" stop-color="#3C1243"/>
</linearGradient>
<linearGradient id="paint43_linear_35_57" x1="205.36" y1="90.5243" x2="189.084" y2="83.7932" gradientUnits="userSpaceOnUse">
<stop stop-color="#00C6DB"/>
<stop offset="0.667" stop-color="#9A2287"/>
<stop offset="1" stop-color="#3C1243"/>
</linearGradient>
<linearGradient id="paint44_linear_35_57" x1="210.57" y1="83.7735" x2="195.553" y2="78.6727" gradientUnits="userSpaceOnUse">
<stop stop-color="#00C6DB"/>
<stop offset="0.667" stop-color="#9A2287"/>
<stop offset="1" stop-color="#3C1243"/>
</linearGradient>
<linearGradient id="paint45_linear_35_57" x1="220.89" y1="78.0166" x2="195.827" y2="71.7799" gradientUnits="userSpaceOnUse">
<stop stop-color="#00C6DB"/>
<stop offset="0.667" stop-color="#9A2287"/>
<stop offset="1" stop-color="#3C1243"/>
</linearGradient>
<linearGradient id="paint46_linear_35_57" x1="231.871" y1="67.9856" x2="202.584" y2="66.9259" gradientUnits="userSpaceOnUse">
<stop stop-color="#00C6DB"/>
<stop offset="0.667" stop-color="#9A2287"/>
<stop offset="1" stop-color="#3C1243"/>
</linearGradient>
<linearGradient id="paint47_linear_35_57" x1="244.869" y1="62.5393" x2="205.008" y2="69.2604" gradientUnits="userSpaceOnUse">
<stop stop-color="#00C6DB"/>
<stop offset="0.667" stop-color="#9A2287"/>
<stop offset="1" stop-color="#3C1243"/>
</linearGradient>
<linearGradient id="paint48_linear_35_57" x1="255.926" y1="57.5828" x2="209.818" y2="69.3266" gradientUnits="userSpaceOnUse">
<stop stop-color="#00C6DB"/>
<stop offset="0.667" stop-color="#9A2287"/>
<stop offset="1" stop-color="#3C1243"/>
</linearGradient>
<linearGradient id="paint49_linear_35_57" x1="260.12" y1="47.2375" x2="222.606" y2="65.8693" gradientUnits="userSpaceOnUse">
<stop stop-color="#00C6DB"/>
<stop offset="0.667" stop-color="#9A2287"/>
<stop offset="1" stop-color="#3C1243"/>
</linearGradient>
<linearGradient id="paint50_linear_35_57" x1="161.827" y1="42.3985" x2="207.449" y2="34.9257" gradientUnits="userSpaceOnUse">
<stop offset="0.116" stop-color="#FFDC81"/>
<stop offset="0.549" stop-color="#FF5A6E"/>
<stop offset="1" stop-color="#FF4EA6"/>
</linearGradient>
<linearGradient id="paint51_linear_35_57" x1="149.172" y1="61.1578" x2="154.775" y2="61.7547" gradientUnits="userSpaceOnUse">
<stop stop-color="#2FA27B"/>
<stop offset="1" stop-color="#5479BD"/>
</linearGradient>
</defs>
</svg>
