<svg width="261" height="217" viewBox="0 0 261 217" fill="none" xmlns="http://www.w3.org/2000/svg">
<path d="M34.2825 181.351C65.948 223.034 240.133 245.165 239.391 146.475C238.649 47.7864 180.029 -15.2859 115.474 3.26404C50.9167 21.8154 -4.61355 130.151 34.2825 181.351Z" fill="#D9C5E6"/>
<path d="M24.5597 84.375L2.95911 152.089C0.522864 159.727 6.22166 167.527 14.2387 167.527H55.123C60.2756 167.527 64.8367 164.195 66.4025 159.286L90.2985 84.375H24.5597Z" fill="#00B796"/>
<path d="M24.5597 84.375L2.95911 152.089C0.522864 159.727 6.22166 167.527 14.2387 167.527H55.123C60.2756 167.527 64.8367 164.195 66.4025 159.286L90.2985 84.375H24.5597Z" stroke="#292B41" stroke-width="4" stroke-miterlimit="10" stroke-linecap="round" stroke-linejoin="round"/>
<path d="M130.168 175.525L101.152 84.5631C99.5282 79.4716 94.798 76.0156 89.4547 76.0156H36.1972C27.8829 76.0156 21.9736 84.1052 24.4995 92.0255L51.1347 175.525H130.168Z" fill="#F4C632"/>
<path d="M130.168 175.525L101.152 84.5631C99.5282 79.4716 94.798 76.0156 89.4547 76.0156H36.1972C27.8829 76.0156 21.9736 84.1052 24.4995 92.0255L51.1347 175.525H130.168Z" stroke="#292B41" stroke-width="4" stroke-miterlimit="10" stroke-linecap="round" stroke-linejoin="round"/>
<path d="M181.715 55.1602L142.733 177.367C140.818 183.367 135.245 187.44 128.946 187.44H65.3856C55.588 187.44 48.622 177.907 51.5987 168.572L87.7755 55.1616H181.715V55.1602Z" fill="#1DB3D5"/>
<path d="M181.715 55.1602L142.733 177.367C140.818 183.367 135.245 187.44 128.946 187.44H65.3856C55.588 187.44 48.622 177.907 51.5987 168.572L87.7755 55.1616H181.715V55.1602Z" stroke="#292B41" stroke-width="4" stroke-miterlimit="10" stroke-linecap="round" stroke-linejoin="round"/>
<path d="M234.071 204.159L186.463 54.9095C184.549 48.9091 178.975 44.8359 172.676 44.8359H101.649C91.8517 44.8359 84.8857 54.369 87.8624 63.7044L132.665 204.159H234.071Z" fill="#D90D8F"/>
<path d="M234.071 204.159L186.463 54.9095C184.549 48.9091 178.975 44.8359 172.676 44.8359H101.649C91.8517 44.8359 84.8857 54.369 87.8624 63.7044L132.665 204.159H234.071Z" stroke="#292B41" stroke-width="4" stroke-miterlimit="10" stroke-linecap="round" stroke-linejoin="round"/>
<path d="M130.842 83.7337L194.615 20.7539L258.39 83.7337V196.411C258.39 206.098 250.537 213.951 240.85 213.951H148.382C138.695 213.951 130.842 206.098 130.842 196.411V83.7337Z" fill="white"/>
<path d="M211.777 137.875H177.459V198.885H211.777V137.875Z" fill="white"/>
<path d="M130.842 83.7337L194.615 20.7539L258.39 83.7337V196.411C258.39 206.098 250.537 213.951 240.85 213.951H148.382C138.695 213.951 130.842 206.098 130.842 196.411V83.7337Z" stroke="#292B41" stroke-width="4" stroke-miterlimit="10" stroke-linecap="round" stroke-linejoin="round"/>
<path d="M211.777 129.586H177.459V190.596H211.777V129.586Z" fill="#292B41" stroke="#292B41" stroke-width="4" stroke-miterlimit="10" stroke-linecap="round" stroke-linejoin="round"/>
<path d="M194.616 81.8242C201.74 81.8242 207.516 87.5998 207.516 94.7237V106.609H181.717V94.7237C181.717 87.5984 187.492 81.8242 194.616 81.8242Z" fill="#292B41" stroke="#292B41" stroke-width="4" stroke-miterlimit="10" stroke-linecap="round" stroke-linejoin="round"/>
</svg>
