<svg width="139" height="257" viewBox="0 0 139 257" fill="none" xmlns="http://www.w3.org/2000/svg">
<path d="M92.0023 138.665C84.7901 147.932 71.8978 154.023 61.4719 155.63C83.7064 144.233 97.4208 115.982 99.9245 93.4109C93.086 98.1568 83.3701 103.314 74.8126 102.454C90.6571 95.5036 101.83 80.1449 109.192 64.8611C109.566 64.0016 110.014 63.03 110.425 62.0958C116.068 49.2782 120.44 35.8254 124.85 22.522C130.007 7.01393 138.9 2.86598 138.9 2.86598C112.817 -1.80514 82.959 1.44596 62.1445 18.8599C43.9085 34.1064 38.2284 56.2288 38.8637 79.4349C34.1552 68.7474 33.9684 56.5278 37.2568 45.3918C31.3525 53.5009 30.2688 66.58 31.0162 76.2586C31.0162 76.2586 28.5872 64.7863 29.4841 53.0151C17.115 77.6412 15.8071 103.164 20.5155 129.92C13.3033 115.645 11.846 98.8294 11.4349 83.0597C5.19428 104.696 2.2795 126.744 3.32583 148.979C3.88637 160.6 7.24957 170.69 12.0328 181.228C5.75482 180.63 0 181.265 0 181.265C9.71592 187.394 19.2076 194.98 24.2524 205.742L26.3825 207.274C39.3495 196.101 51.7186 184.666 68.3478 180.854C68.3478 180.854 64.723 177.715 56.016 177.64C61.173 173.455 85.0143 158.545 92.0023 138.665Z" fill="url(#paint0_linear_35_53)"/>
<path style="mix-blend-mode:multiply" d="M100.411 28.4275C88.8638 41.2825 79.26 55.7816 69.9551 70.3555C59.2676 87.1341 51.1585 104.399 45.5158 123.644C39.462 144.271 35.7999 165.459 30.6803 186.274C29.0361 192.888 26.9808 199.54 24.9629 206.229L26.3829 207.275C39.3499 196.102 51.7191 184.667 68.3482 180.855C68.3482 180.855 64.7234 177.716 56.0165 177.642C61.1734 173.456 85.0148 158.546 92.0028 138.666C84.7906 147.933 71.8983 154.025 61.4723 155.631C83.7069 144.234 97.4213 115.983 99.925 93.4121C93.0865 98.158 83.3706 103.315 74.8131 102.455C90.6575 95.5048 101.831 80.1462 109.192 64.8623C109.566 64.0028 110.015 63.0312 110.426 62.097C116.068 49.2794 120.441 35.8266 124.85 22.5232C130.007 7.01514 138.901 2.86719 138.901 2.86719C118.722 7.50094 110.5 17.2169 100.411 28.4275Z" fill="url(#paint1_linear_35_53)"/>
<path d="M65.2463 34.293C59.9399 41.8041 56.3152 53.538 56.6141 62.7681C56.9131 71.9982 58.5573 82.4615 56.3525 89.5243C51.3077 105.593 45.5903 121.848 41.1434 137.954C34.1927 163.066 25.5605 193.858 18.5352 211.235C20.4036 211.571 28.4006 214.038 30.269 214.374C34.9028 187.917 42.6007 136.908 57.1373 100.361C62.481 86.9458 67.9369 85.9742 72.9443 83.8068C84.3045 78.8741 95.2536 70.6156 101.382 60.4512C107.922 49.6516 111.322 38.5904 114.237 25.7729C116.591 15.3095 121.374 9.55473 121.374 9.55473C100.859 9.14368 77.6528 16.8043 65.2463 34.293Z" fill="url(#paint2_linear_35_53)"/>
<path d="M70.2544 35.3041C81.1288 19.796 102.99 15.3491 107.399 19.7586C111.697 24.0934 110.202 40.8347 98.7296 56.3802C92.6011 64.7134 77.6161 77.9794 68.6102 72.4862C58.3711 66.2829 61.398 47.86 70.2544 35.3041Z" fill="url(#paint3_linear_35_53)"/>
<path d="M92.7873 57.5364C87.0325 66.1312 76.7934 70.9518 70.8517 67.9249C62.7053 63.777 65.9938 48.792 70.5901 41.6919C76.6439 32.3123 87.1446 27.2675 94.581 31.8265C100.448 35.414 98.8411 48.4931 92.7873 57.5364Z" fill="url(#paint4_linear_35_53)"/>
<path d="M30.531 217.402L23.6551 215.272L16.7792 213.18C13.416 220.691 6.95117 224.241 6.95117 224.241C11.3607 242.701 11.3607 256.939 11.3607 256.939C11.3607 256.939 20.2919 243.523 32.7731 232.163C32.7731 232.163 29.2978 225.586 30.531 217.402Z" fill="url(#paint5_linear_35_53)"/>
<path d="M24.7762 228.351C24.0289 230.892 21.3757 232.35 18.8346 231.602C16.3309 230.818 14.9108 228.127 15.6582 225.549C16.443 223.007 19.0588 221.55 21.5999 222.297C24.1036 223.082 25.5236 225.773 24.7762 228.351Z" fill="white"/>
<path d="M34.1924 212.583L17.3764 207.426L15.7695 212.844L32.5856 218.001L34.1924 212.583Z" fill="url(#paint6_linear_35_53)"/>
<defs>
<linearGradient id="paint0_linear_35_53" x1="-83.7053" y1="211.607" x2="-89.631" y2="-6.98559" gradientUnits="userSpaceOnUse">
<stop stop-color="#5C43C3"/>
<stop offset="0.516" stop-color="#5CBFFC"/>
<stop offset="1" stop-color="#FF00C1"/>
</linearGradient>
<linearGradient id="paint1_linear_35_53" x1="43.4766" y1="-78.0676" x2="272.771" y2="25.1047" gradientUnits="userSpaceOnUse">
<stop stop-color="#3E417C"/>
<stop offset="1" stop-color="white" stop-opacity="0"/>
</linearGradient>
<linearGradient id="paint2_linear_35_53" x1="476.009" y1="326.018" x2="323.624" y2="510.561" gradientUnits="userSpaceOnUse">
<stop stop-color="#3B3F42"/>
<stop offset="1" stop-color="#121322"/>
</linearGradient>
<linearGradient id="paint3_linear_35_53" x1="148.922" y1="51.3626" x2="122.547" y2="98.9693" gradientUnits="userSpaceOnUse">
<stop offset="0.009" stop-color="#FF00C1"/>
<stop offset="1" stop-color="#9D3DEB"/>
</linearGradient>
<linearGradient id="paint4_linear_35_53" x1="41.5391" y1="50.8021" x2="58.2835" y2="20.5938" gradientUnits="userSpaceOnUse">
<stop stop-color="#FF9429"/>
<stop offset="1" stop-color="#F4D63B"/>
</linearGradient>
<linearGradient id="paint5_linear_35_53" x1="180.36" y1="4.358" x2="46.4409" y2="263.752" gradientUnits="userSpaceOnUse">
<stop stop-color="#3B3F42"/>
<stop offset="1" stop-color="#121322"/>
</linearGradient>
<linearGradient id="paint6_linear_35_53" x1="17.3585" y1="207.428" x2="34.242" y2="212.508" gradientUnits="userSpaceOnUse">
<stop stop-color="#3B3F42"/>
<stop offset="1" stop-color="#121322"/>
</linearGradient>
</defs>
</svg>
