<svg width="257" height="254" viewBox="0 0 257 254" fill="none" xmlns="http://www.w3.org/2000/svg">
<path d="M128.492 0.971096C128.637 0.826095 128.71 0.753598 128.71 0.753598L128.547 0.699219C128.547 0.80797 128.528 0.898596 128.492 0.971096Z" fill="url(#paint0_linear_35_51)"/>
<path d="M128.492 0.971096C128.637 0.826095 128.71 0.753598 128.71 0.753598L128.547 0.699219C128.547 0.80797 128.528 0.898596 128.492 0.971096Z" fill="url(#paint1_linear_35_51)"/>
<path d="M135.778 221.355L132.189 219.343C131.682 219.017 131.21 218.673 130.775 218.31C127.893 215.917 127.839 211.622 130.34 208.74C130.83 208.196 131.102 207.544 131.102 206.837C131.102 202.976 124.305 202.378 122.021 202.324C123.38 202.65 128.057 203.357 128.057 205.749C128.057 207.435 121.205 208.794 112.723 208.794C112.723 208.794 97.1169 208.74 97.1169 205.695C97.1169 203.52 101.848 202.541 103.153 202.215C100.869 202.269 94.1262 202.867 94.1262 206.728C94.1262 207.489 94.3981 208.196 94.9419 208.74C97.4975 211.622 97.5519 215.972 94.5612 218.419C94.1625 218.745 93.7094 219.053 93.2018 219.343L89.6674 221.355C87.7099 222.769 86.5137 224.998 86.5137 227.391V245.987C86.5137 250.065 89.8306 253.328 93.9087 253.328H106.089H119.356H131.537C135.615 253.328 138.932 250.065 138.932 245.987V227.391C138.932 224.998 137.735 222.769 135.778 221.355Z" fill="url(#paint2_linear_35_51)"/>
<path style="mix-blend-mode:multiply" d="M131.101 206.836C131.101 206.836 130.449 209.011 124.63 212.654C121.259 214.72 119.845 216.841 119.791 222.877V253.327H131.536C135.614 253.327 138.931 250.064 138.931 245.986V227.39C138.931 224.997 137.735 222.768 135.777 221.354L132.189 219.342C131.681 219.016 131.21 218.672 130.775 218.309C127.893 215.917 127.839 211.621 130.34 208.739C130.829 208.195 131.101 207.543 131.101 206.836Z" fill="url(#paint3_linear_35_51)"/>
<path d="M114.353 204.443L112.178 203.573L115.713 194.655C116.148 193.568 117.072 192.752 118.214 192.426C119.519 192.045 120.715 191.284 121.15 190.142C122.075 187.804 120.933 185.194 118.649 184.27C116.311 183.345 113.701 184.487 112.776 186.771C112.287 187.967 112.722 189.326 113.374 190.468C113.973 191.501 114.136 192.752 113.646 193.894L110.112 202.757L107.828 201.833C108.589 197.918 109.786 188.891 105.653 182.584C104.838 181.279 105.381 179.539 106.849 179.049C110.275 177.962 118.105 175.461 121.259 168.609L126.642 170.676C124.195 177.799 129.035 185.466 130.775 188.62C131.536 189.979 130.72 191.61 129.198 191.991C121.911 193.731 116.583 201.072 114.353 204.443Z" fill="url(#paint4_linear_35_51)"/>
<path d="M144.64 106.84L137.571 113.746L144.423 111.027C143.335 129.297 137.463 148.872 124.793 167.795C124.358 167.722 123.905 167.65 123.434 167.577C144.477 103.305 115.495 46.4287 62.0439 27.3972C103.696 44.1993 127.947 84.0565 124.956 130.058C117.616 124.24 110.329 114.507 101.956 103.197L112.994 102.599L97.2248 96.9435V96.8891C94.1254 92.811 90.8629 88.5697 87.3829 84.274C83.6853 79.5977 79.7159 74.6495 75.2028 69.5926L93.7448 66.2213L66.1221 60.0225C63.657 57.5575 61.0108 55.0744 58.1832 52.5731C53.5613 48.6037 48.45 44.5255 42.4687 40.6649L51.2232 38.0005L35.2368 36.2605C25.9386 30.986 14.6829 26.201 0.599609 22.4491C1.57837 22.3947 7.39654 18.3165 20.9904 14.5103C34.258 10.9215 55.3013 7.60457 77.7584 13.8577C84.6097 15.7065 91.5698 18.4797 98.3667 22.2316L100.759 35.9886L103.261 25.1678C105.762 26.7991 108.209 28.5754 110.601 30.4966L109.024 37.5111L112.831 32.291C122.074 40.1755 130.231 50.5068 136.049 63.4482L129.415 74.4864L138.006 68.2332C142.411 79.5977 144.912 92.7566 144.64 106.84Z" fill="url(#paint5_linear_35_51)"/>
<path style="mix-blend-mode:multiply" opacity="0.8" d="M51.2232 38.0025L42.4687 40.6669C48.45 44.5275 53.5613 48.6057 58.1832 52.5751C61.0108 55.0764 63.657 57.5595 66.1221 60.0245L93.7448 66.2233L75.2028 69.5946C79.7159 74.6515 83.6854 79.5997 87.3829 84.276C90.8629 88.5717 94.1254 92.813 97.2248 96.8911V96.9455L112.994 102.601L101.956 103.199C110.329 114.509 117.616 124.242 124.956 130.06C127.947 84.0585 103.696 44.2013 62.0439 27.3992C63.7114 27.9793 65.3789 28.6136 67.0464 29.3024C65.4696 28.5411 64.5995 28.1061 64.5995 28.1061C28.603 14.7298 4.35151 21.3092 1.03461 22.3423C0.87148 22.3967 0.70836 22.4511 0.599609 22.4511C14.6829 26.203 25.9386 30.988 35.2368 36.2625L51.2232 38.0025Z" fill="url(#paint6_linear_35_51)"/>
<path d="M98.3666 22.2316C91.5697 18.4797 84.6096 15.7065 77.7583 13.8577C55.3013 7.60457 34.2579 10.9215 20.9903 14.5103C8.48397 17.9903 2.55705 21.6878 0.925781 22.3403C5.65645 20.9809 59.8144 5.86455 100.433 33.8679L98.3666 22.2316Z" fill="url(#paint7_linear_35_51)"/>
<path d="M138.007 68.2344L131.809 72.6932C133.929 77.7501 139.041 91.9965 139.421 111.898L144.641 106.841C144.913 92.7577 142.412 79.5989 138.007 68.2344Z" fill="url(#paint8_linear_35_51)"/>
<path d="M139.421 112.985C139.584 124.349 138.17 137.508 133.82 151.809C140.345 138.052 143.662 124.186 144.424 111.027L139.421 112.985Z" fill="url(#paint9_linear_35_51)"/>
<path d="M112.831 32.2912L109.025 37.5112L110.602 30.4968C108.209 28.5755 105.763 26.7992 103.261 25.168L101.141 34.3574C112.723 42.5138 123.108 54.1501 130.938 70.6802C130.938 70.6802 131.047 70.9521 131.265 71.3871L136.05 63.4483C130.232 50.5069 122.075 40.1756 112.831 32.2912Z" fill="url(#paint10_linear_35_51)"/>
<path d="M129.143 167.849C129.143 167.849 157.309 104.665 256.599 115.866C256.599 115.866 245.887 142.456 204.344 146.153L192.49 137.399L195.861 148.165C195.861 148.165 160.843 145.283 129.143 167.849Z" fill="url(#paint11_linear_35_51)"/>
<path style="mix-blend-mode:multiply" d="M195.861 148.166L192.49 137.4L204.344 146.154C245.887 142.457 256.599 115.867 256.599 115.867C256.599 115.867 243.603 126.144 208.15 129.407C161.659 133.648 129.143 167.85 129.143 167.85C160.843 145.284 195.861 148.166 195.861 148.166Z" fill="url(#paint12_linear_35_51)"/>
<path d="M120.988 165.51C120.988 165.51 105.708 98.0298 6.14648 89.6016C6.14648 89.6016 11.4753 117.768 51.4956 129.513L64.8176 123.26L59.4345 133.156C59.4345 133.156 94.3435 137.18 120.988 165.51Z" fill="url(#paint13_linear_35_51)"/>
<path style="mix-blend-mode:multiply" d="M51.4956 129.513L64.8176 123.26L59.4345 133.156C59.4345 133.156 94.3435 137.18 120.988 165.51C119.193 157.625 96.0292 127.066 64.2739 117.116C23.601 104.392 6.14648 89.6016 6.14648 89.6016C6.14648 89.6016 11.4753 117.768 51.4956 129.513Z" fill="url(#paint14_linear_35_51)"/>
<defs>
<linearGradient id="paint0_linear_35_51" x1="128.307" y1="-0.0457253" x2="128.988" y2="1.04502" gradientUnits="userSpaceOnUse">
<stop stop-color="white"/>
<stop offset="1" stop-color="#7E68EA"/>
</linearGradient>
<linearGradient id="paint1_linear_35_51" x1="128.307" y1="-0.0457253" x2="128.988" y2="1.04502" gradientUnits="userSpaceOnUse">
<stop stop-color="white"/>
<stop offset="1" stop-color="#7E68EA"/>
</linearGradient>
<linearGradient id="paint2_linear_35_51" x1="86.5251" y1="202.224" x2="138.915" y2="202.224" gradientUnits="userSpaceOnUse">
<stop stop-color="#FC86E6"/>
<stop offset="1" stop-color="#7E68EA"/>
</linearGradient>
<linearGradient id="paint3_linear_35_51" x1="72.8019" y1="251.143" x2="72.8019" y2="193.043" gradientUnits="userSpaceOnUse">
<stop stop-color="white"/>
<stop offset="0.999" stop-color="#7E68EA"/>
</linearGradient>
<linearGradient id="paint4_linear_35_51" x1="111.691" y1="164.712" x2="137.15" y2="174.883" gradientUnits="userSpaceOnUse">
<stop stop-color="#FFD955"/>
<stop offset="1" stop-color="#FFB06A"/>
</linearGradient>
<linearGradient id="paint5_linear_35_51" x1="-0.380235" y1="201.771" x2="-55.0709" y2="59.1004" gradientUnits="userSpaceOnUse">
<stop stop-color="#FC86E6"/>
<stop offset="1" stop-color="#7E68EA"/>
</linearGradient>
<linearGradient id="paint6_linear_35_51" x1="13.6987" y1="105.753" x2="12.6127" y2="41.6902" gradientUnits="userSpaceOnUse">
<stop stop-color="white"/>
<stop offset="0.999" stop-color="#7E68EA"/>
</linearGradient>
<linearGradient id="paint7_linear_35_51" x1="112.142" y1="248.443" x2="29.7044" y2="-26.9434" gradientUnits="userSpaceOnUse">
<stop stop-color="white"/>
<stop offset="0.999" stop-color="white" stop-opacity="0"/>
</linearGradient>
<linearGradient id="paint8_linear_35_51" x1="96.2052" y1="220.019" x2="24.2741" y2="-20.271" gradientUnits="userSpaceOnUse">
<stop stop-color="white"/>
<stop offset="0.999" stop-color="white" stop-opacity="0"/>
</linearGradient>
<linearGradient id="paint9_linear_35_51" x1="83.2425" y1="226.987" x2="5.21422" y2="-33.6701" gradientUnits="userSpaceOnUse">
<stop stop-color="white"/>
<stop offset="0.999" stop-color="white" stop-opacity="0"/>
</linearGradient>
<linearGradient id="paint10_linear_35_51" x1="128.94" y1="208.267" x2="59.6592" y2="-23.1679" gradientUnits="userSpaceOnUse">
<stop stop-color="white"/>
<stop offset="0.999" stop-color="white" stop-opacity="0"/>
</linearGradient>
<linearGradient id="paint11_linear_35_51" x1="253.333" y1="88.9867" x2="180.439" y2="205.618" gradientUnits="userSpaceOnUse">
<stop stop-color="#FFD955"/>
<stop offset="1" stop-color="#FFB06A"/>
</linearGradient>
<linearGradient id="paint12_linear_35_51" x1="152.949" y1="150.655" x2="199.376" y2="95.5678" gradientUnits="userSpaceOnUse">
<stop stop-color="white"/>
<stop offset="1" stop-color="#FFB06A"/>
</linearGradient>
<linearGradient id="paint13_linear_35_51" x1="71.2209" y1="51.6491" x2="114.16" y2="145.105" gradientUnits="userSpaceOnUse">
<stop stop-color="#FFD955"/>
<stop offset="1" stop-color="#FFB06A"/>
</linearGradient>
<linearGradient id="paint14_linear_35_51" x1="39.3449" y1="173.976" x2="29.7228" y2="81.1222" gradientUnits="userSpaceOnUse">
<stop stop-color="white"/>
<stop offset="1" stop-color="#FFB06A"/>
</linearGradient>
</defs>
</svg>
