<svg width="138" height="257" viewBox="0 0 138 257" fill="none" xmlns="http://www.w3.org/2000/svg">
<path d="M41.9395 1.25641C42.1099 1.05186 42.1951 0.949579 42.1951 0.949579L42.0417 0.898438C42.0076 1.00071 41.9735 1.12004 41.9395 1.25641Z" fill="url(#paint0_linear_35_50)"/>
<path d="M41.9395 1.25641C42.1099 1.05186 42.1951 0.949579 42.1951 0.949579L42.0417 0.898438C42.0076 1.00071 41.9735 1.12004 41.9395 1.25641Z" fill="url(#paint1_linear_35_50)"/>
<path d="M100.952 100.057L80.8032 105.274L97.9346 107.83C100.44 108.188 101.975 110.694 101.207 113.098L99.571 118.058C98.6505 120.871 96.3493 123.019 93.4855 123.786L73.0814 129.053L88.6786 131.405C91.9514 131.865 93.9969 135.189 92.9742 138.36C88.1671 152.934 78.6554 165.412 66.5868 172.214C60.5524 175.64 54.7227 179.731 50.0691 183.873L74.2064 92.9492L21.2782 239.716L17.8008 238.591C31.9661 186.174 23.4771 156.361 30.3297 124.911C31.0456 121.433 34.8299 119.643 38.0004 121.229L50.3248 127.468L38.0516 112.535C36.2106 110.234 35.5969 107.166 36.5174 104.353L46.6428 73.2609C47.4099 70.8574 50.1714 69.7323 52.3703 70.9085L65.7686 77.9145L56.0011 65.9992C53.1885 62.573 53.1885 57.6637 55.95 54.2374C58.7626 50.8111 62.0866 47.794 65.8708 45.3905C66.7231 44.845 67.6266 44.2995 68.5812 43.7541C78.6554 38.2311 92.3605 33.8332 94.0481 30.8672C94.0481 30.8672 94.0651 30.9183 94.0992 31.0206C94.2015 30.9865 94.2526 30.9695 94.2526 30.9695C93.8946 34.3446 101.156 46.6178 107.242 56.3341C112.458 64.5162 113.736 74.5905 110.719 83.7954L107.395 93.9719C106.424 96.9379 104.02 99.2392 100.952 100.057Z" fill="url(#paint2_linear_35_50)"/>
<path style="mix-blend-mode:multiply" d="M44.1882 176.2L74.2064 92.9469C74.2064 92.9469 80.8544 80.7759 71.2915 64.0537C64.6435 52.4453 78.2975 40.9903 87.2467 35.1094C81.9794 37.564 74.6155 40.4789 68.5812 43.7518C67.6266 44.2972 66.7232 44.8427 65.8708 45.3882C62.0866 47.7917 58.7626 50.8089 55.95 54.2351C53.1885 57.6614 53.1885 62.5707 56.0011 65.997L65.7686 77.9122L52.3703 70.9062C50.1714 69.73 47.4099 70.8551 46.6428 73.2586L36.5174 104.351C35.5969 107.163 36.2106 110.232 38.0516 112.533L50.3248 127.465L38.0004 121.226C34.8299 119.641 31.0456 121.431 30.3297 124.908C26.75 141.273 27.3637 157.279 26.75 176.2H44.1882Z" fill="url(#paint3_linear_35_50)"/>
<g style="mix-blend-mode:overlay" opacity="0.18">
<path d="M92.3108 32.4514C88.9357 35.622 82.9525 44.5712 92.7711 62.623C105.556 86.1978 84.7935 92.539 80.8047 105.272L100.953 100.056C104.022 99.2381 106.425 96.9369 107.397 93.9708L110.721 83.7943C113.738 74.5894 112.459 64.5152 107.243 56.333C101.209 46.7701 94.1007 34.6504 94.2541 31.0707L94.1007 31.0195C94.1007 31.0195 93.9984 31.1218 93.7938 31.2241C93.4529 31.6332 92.9586 32.0423 92.3108 32.4514Z" fill="white"/>
</g>
<path d="M99.5717 118.058L101.208 113.098C101.975 110.694 100.441 108.188 97.9353 107.83L80.8039 105.273C80.8039 105.273 73.6957 117.138 73.082 129.053L93.4862 123.786C96.35 123.018 98.6512 120.871 99.5717 118.058Z" fill="white"/>
<path d="M92.9754 138.358C93.9981 135.187 91.9526 131.863 88.6798 131.403L73.0826 129.051C72.4178 140.966 74.719 148.279 67.0482 159.018C59.4286 169.757 52.525 177.888 50.0703 183.871C54.7239 179.729 60.5537 175.638 66.588 172.212C78.6567 165.41 88.1684 152.932 92.9754 138.358Z" fill="white"/>
<path d="M86.2253 209.493C59.0197 205.658 46.5419 206.476 40.8145 207.806C58.764 174.668 107.039 183.668 104.635 143.371C102.436 106.961 122.278 89.2668 126.113 86.1985C126.181 86.1644 126.233 86.1303 126.267 86.0963C126.471 85.9258 126.608 85.8235 126.676 85.7894C126.71 85.7553 126.727 85.7383 126.727 85.7383C126.369 86.8122 126.011 88.0907 125.602 89.5225C123.045 99.0343 120.59 115.757 125.806 137.797C125.806 137.797 132.403 125.115 132.352 118.211C132.557 118.671 143.245 149.048 128.619 170.884C128.619 170.884 135.932 166.179 137.977 163.315C137.977 163.315 131.943 215.988 86.2253 209.493Z" fill="url(#paint4_linear_35_50)"/>
<path style="mix-blend-mode:multiply" d="M137.977 163.315C135.932 166.179 128.619 170.883 128.619 170.883C143.245 149.047 132.557 118.671 132.352 118.211C132.403 125.115 125.806 137.797 125.806 137.797C125.806 137.797 111.437 186.532 78.6057 191.083C51.9626 194.816 43.7805 203.254 41.5815 206.476C41.3429 206.919 41.0872 207.362 40.8145 207.805C46.5419 206.476 59.0197 205.658 86.2253 209.493C131.943 215.987 137.977 163.315 137.977 163.315Z" fill="url(#paint5_linear_35_50)"/>
<path d="M17.2392 124.91C19.9495 116.83 23.836 108.852 29.2056 101.488C29.2056 101.488 -27.3023 135.751 18.9267 201.106C18.9267 201.106 16.9835 176.968 14.5289 161.934C12.5345 149.507 13.2504 136.825 17.2392 124.91Z" fill="url(#paint6_linear_35_50)"/>
<path style="mix-blend-mode:multiply" d="M18.9267 201.106C18.9267 201.106 16.4721 191.492 8.49452 163.468C0.823763 136.416 29.2056 101.488 29.2056 101.488C29.2056 101.488 -27.3023 135.751 18.9267 201.106Z" fill="url(#paint7_linear_35_50)"/>
<path d="M23.8878 232.2L20.5638 231.126C17.2909 230.053 13.9669 232.558 14.1203 235.985L14.8874 256.9L23.8878 232.2Z" fill="url(#paint8_linear_35_50)"/>
<defs>
<linearGradient id="paint0_linear_35_50" x1="41.7431" y1="0.119075" x2="42.4743" y2="1.29073" gradientUnits="userSpaceOnUse">
<stop stop-color="white"/>
<stop offset="1" stop-color="#7E68EA"/>
</linearGradient>
<linearGradient id="paint1_linear_35_50" x1="41.7431" y1="0.119075" x2="42.4743" y2="1.29073" gradientUnits="userSpaceOnUse">
<stop stop-color="white"/>
<stop offset="1" stop-color="#7E68EA"/>
</linearGradient>
<linearGradient id="paint2_linear_35_50" x1="280.802" y1="-23.317" x2="327.428" y2="146.141" gradientUnits="userSpaceOnUse">
<stop stop-color="#FFD955"/>
<stop offset="1" stop-color="#FFB06A"/>
</linearGradient>
<linearGradient id="paint3_linear_35_50" x1="-285.899" y1="-47.7716" x2="-234.616" y2="-124.841" gradientUnits="userSpaceOnUse">
<stop stop-color="white"/>
<stop offset="1" stop-color="#FFB06A"/>
</linearGradient>
<linearGradient id="paint4_linear_35_50" x1="246.018" y1="139.369" x2="208.805" y2="236.83" gradientUnits="userSpaceOnUse">
<stop stop-color="#FFD955"/>
<stop offset="1" stop-color="#FFB06A"/>
</linearGradient>
<linearGradient id="paint5_linear_35_50" x1="190.703" y1="136.781" x2="183.784" y2="212.403" gradientUnits="userSpaceOnUse">
<stop stop-color="white"/>
<stop offset="1" stop-color="#FFB06A"/>
</linearGradient>
<linearGradient id="paint6_linear_35_50" x1="179.22" y1="113.271" x2="141.39" y2="212.35" gradientUnits="userSpaceOnUse">
<stop stop-color="#FFD955"/>
<stop offset="1" stop-color="#FFB06A"/>
</linearGradient>
<linearGradient id="paint7_linear_35_50" x1="150.507" y1="92.1514" x2="164.541" y2="156.466" gradientUnits="userSpaceOnUse">
<stop stop-color="white"/>
<stop offset="1" stop-color="#FFB06A"/>
</linearGradient>
<linearGradient id="paint8_linear_35_50" x1="2.68786" y1="45.5708" x2="45.614" y2="201.582" gradientUnits="userSpaceOnUse">
<stop stop-color="#FFD955"/>
<stop offset="1" stop-color="#FFB06A"/>
</linearGradient>
</defs>
</svg>
