<svg width="257" height="244" viewBox="0 0 257 244" fill="none" xmlns="http://www.w3.org/2000/svg">
<path d="M17.4378 50.2661C21.12 49.5171 24.9893 48.6434 28.4218 47.208C31.2302 46.0223 33.7889 44.2124 34.4754 41.092C35.1619 37.8467 34.0386 34.3518 32.9152 31.3562C31.667 28.0486 30.0444 24.8657 28.4218 21.8077C26.2999 17.8759 23.9284 14.1314 21.3696 10.5117C20.8703 10.5117 20.3918 10.5325 19.9342 10.5741C11.8211 11.1982 5.70501 18.0632 5.95464 26.1763C6.28749 34.7471 6.57872 43.2763 6.82836 51.7639C10.4065 51.4726 13.943 50.9734 17.4378 50.2661Z" fill="#3A3028"/>
<path d="M248.786 198.734C248.745 200.357 248.682 202 248.599 203.665C248.433 209.864 248.225 216.084 247.975 222.325C247.663 230.5 240.923 236.991 232.685 236.804C215.585 236.388 198.506 236.2 181.447 236.242H178.389C157.732 236.991 151.242 241.609 150.867 241.859C150.93 241.734 152.552 238.988 156.671 236.429C185.13 218.892 215.523 203.353 248.786 198.734Z" fill="#3A3028"/>
<g style="mix-blend-mode:soft-light" opacity="0.3">
<path d="M248.786 198.734C248.745 200.357 248.682 202 248.599 203.665C222.512 209.531 197.861 224.509 181.447 236.242H178.389C157.732 236.991 151.242 241.609 150.867 241.859C150.93 241.734 152.552 238.988 156.671 236.429C185.13 218.892 215.523 203.353 248.786 198.734Z" fill="white"/>
</g>
<path d="M78.7235 220.952C80.6582 218.705 82.6552 214.087 79.0355 212.402C77.2257 211.59 75.1038 211.59 73.1691 211.59C70.2359 211.59 67.2403 211.778 64.3071 211.902C58.3158 212.214 52.3246 212.651 46.271 212.839C33.2275 213.275 18.9359 212.09 6.89107 206.598C6.64143 213.525 6.4542 220.515 6.14216 227.38C5.7677 236.429 13.3816 243.731 22.4308 242.92C35.5783 241.838 48.7465 240.86 61.9355 239.986C63.8078 236.928 65.8673 233.995 68.2388 231.312C71.4841 227.505 75.5406 224.634 78.7235 220.952Z" fill="#FFB031"/>
<path d="M140.072 31.1061C153.427 32.7288 167.095 32.4167 180.45 30.9813C202.231 28.6098 223.637 22.5561 243.483 13.3197C240.987 8.639 236.119 5.45615 230.564 5.33133C186.317 4.45761 142.63 4.76965 99.6309 6.32987C101.566 10.6361 104.312 14.6302 107.744 17.9379C116.356 26.1134 128.526 29.7331 140.072 31.1061Z" fill="#FFB031"/>
<g style="mix-blend-mode:soft-light" opacity="0.3">
<path d="M195.241 25.8612C181.948 27.2342 168.28 27.6087 154.925 25.986C143.317 24.5506 131.21 20.9933 122.597 12.7554C120.413 10.6959 118.541 8.32438 116.918 5.76562C111.135 5.93205 105.372 6.11927 99.6309 6.3273C101.566 10.6335 104.312 14.6277 107.744 17.9353C116.356 26.1109 128.526 29.7306 140.072 31.1036C153.427 32.7262 167.095 32.4141 180.45 30.9787C197.862 29.1065 215.087 24.8627 231.438 18.4346C219.643 22.0543 207.535 24.4882 195.241 25.8612Z" fill="white"/>
</g>
<path d="M7.26663 70.3616C13.0914 68.6558 18.833 66.7627 24.4914 64.6824C36.1619 60.5011 47.8947 55.758 58.6914 49.7044C67.6782 44.6493 77.6636 36.0369 76.1034 24.4912C75.1673 17.3767 70.6115 12.0095 64.9947 7.82812C53.137 8.45221 41.321 9.15951 29.5465 9.95002C32.3549 14.2562 34.8513 18.7496 37.0356 23.3679C40.4056 30.5449 44.3374 39.9062 39.4071 47.2704C34.7265 54.2602 24.6787 56.07 17.0024 57.5054C13.7155 58.0879 10.3871 58.504 7.017 58.7536C3.21007 59.1281 1.27539 59.0032 1.27539 59.0032C1.27539 59.0032 7.26663 63.8711 7.26663 70.3616Z" fill="#FFB031"/>
<path d="M76.1028 24.4912C75.1666 17.3767 70.6108 12.0095 64.994 7.82812C59.9181 8.07776 54.863 8.3482 49.8287 8.63944C55.1959 12.9456 59.4396 18.3752 60.7502 25.4898C63.309 38.9701 51.9506 49.7668 41.6532 56.1949C38.3455 58.2543 34.9754 60.189 31.543 62.0613C40.8419 58.504 50.0784 54.5098 58.6908 49.7044C67.6776 44.6493 77.663 36.0369 76.1028 24.4912Z" fill="white"/>
<path d="M253.219 191.307C253.219 191.307 250.972 191.431 248.912 191.744C220.953 195.488 193.93 206.909 169.279 220.764C160.417 225.756 151.68 231.123 143.067 236.615C128.588 236.927 114.11 237.364 99.6932 238.051C103.126 234.556 106.933 231.435 110.989 228.627C120.725 221.949 131.522 216.894 142.381 212.276C148.185 209.842 154.051 207.408 159.855 204.912C165.534 202.478 171.276 200.106 176.581 196.923C181.823 193.865 186.316 189.185 186.816 182.819C187.315 177.202 183.446 172.085 178.515 169.776C172.774 167.092 166.158 167.342 159.98 167.404C153.427 167.467 146.874 167.841 140.321 168.465C114.047 170.899 88.0852 176.516 61.6239 176.828C43.2757 177.077 24.3659 174.456 7.76517 166.53C8.13962 137.323 8.07721 107.679 7.45312 77.598C13.4444 75.913 19.3108 73.9783 25.1148 71.9188C37.7838 67.4254 50.5151 62.3079 62.248 55.755C72.9823 49.7013 83.5293 39.7159 83.2797 26.4229C83.1549 18.7466 79.7224 12.5057 74.8545 7.32581C83.2797 7.32581 89.895 0.398438 89.895 0.398438C89.895 0.398438 90.3319 2.39552 92.0793 6.5769C93.5147 10.4462 95.5118 14.066 97.9457 17.3736C106.059 28.1703 118.478 34.0991 131.459 36.7827C145.127 39.5911 159.418 39.6535 173.273 38.655C188.001 37.594 202.605 35.0353 216.772 30.8539C226.508 28.0455 236.056 24.4882 245.293 20.182C245.667 25.6116 245.979 30.9787 246.291 36.3459C230.939 39.7783 215.649 43.7725 201.357 50.4502C168.967 65.6155 156.235 87.1465 151.992 95.01C142.63 112.297 120.912 120.972 113.111 121.908C120.163 113.421 121.786 104.559 119.726 96.9447C115.545 81.4049 96.0111 71.2323 76.4771 80.5936C48.206 94.2611 59.0651 159.665 112.737 147.246C114.234 146.872 115.795 146.456 117.417 145.998C170.402 129.897 228.879 140.756 249.349 171.086C249.308 173.291 249.266 175.517 249.224 177.764C249.162 180.011 249.412 182.32 249.973 184.442C250.348 185.94 250.868 187.375 251.534 188.748C252.033 189.746 252.595 190.683 253.219 191.307Z" fill="#9B3A38"/>
<g style="mix-blend-mode:soft-light" opacity="0.3">
<path d="M246.291 36.3477C230.939 39.7801 215.649 43.7743 201.357 50.452C168.967 65.6173 156.236 87.1483 151.992 95.0118C142.631 112.299 120.912 120.974 113.111 121.91C120.164 113.422 121.786 104.56 119.727 96.9465C145.751 90.5184 150.993 50.8889 246.291 36.3477Z" fill="white"/>
</g>
<g style="mix-blend-mode:soft-light" opacity="0.3">
<path d="M249.973 184.443C232.623 155.548 180.762 133.518 112.736 147.247C114.234 146.873 115.794 146.457 117.417 145.999C170.402 129.898 228.879 140.757 249.349 171.088C249.307 173.293 249.266 175.519 249.224 177.765C249.162 180.012 249.411 182.321 249.973 184.443Z" fill="white"/>
</g>
<path d="M174.272 190.059C169.217 193.429 163.413 195.738 157.858 198.172C152.242 200.668 146.562 202.977 140.883 205.349C129.962 209.967 119.102 214.835 109.179 221.388C102.065 226.069 95.4496 231.873 89.8952 238.488C86.962 241.733 86.2131 243.917 86.2131 243.917C86.2131 243.917 81.7821 239.861 70.6733 239.486C71.2974 238.613 71.9631 237.76 72.6704 236.928C75.9781 232.934 80.097 229.938 83.5295 226.131C86.962 222.324 89.3335 216.957 87.3988 211.902C85.4642 206.722 80.2843 204.85 75.1043 204.6C69.2379 204.288 63.2467 204.912 57.3803 205.286C45.9595 205.911 34.2266 206.659 22.9307 204.413C17.3763 203.289 12.0091 201.417 7.07885 198.796C2.4606 196.424 0.900391 194.303 0.900391 194.303C0.900391 194.303 5.20659 194.115 6.82922 189.559C7.07885 188.748 7.26607 187.812 7.39089 186.689C7.4533 182.507 7.57813 178.326 7.64054 174.145C20.0599 179.574 33.6026 182.445 47.1452 183.443C73.3569 185.316 99.3189 180.51 125.219 177.203C135.266 175.892 145.377 174.831 155.549 174.519C158.503 174.436 161.478 174.415 164.474 174.457C165.41 174.457 166.408 174.457 167.469 174.519C168.53 174.519 169.591 174.581 170.59 174.769C173.71 175.143 176.706 176.142 178.64 178.638C181.886 182.819 177.891 187.75 174.272 190.059Z" fill="#FFD54D"/>
<g style="mix-blend-mode:soft-light" opacity="0.3">
<path d="M125.219 177.203C135.267 175.892 145.377 174.831 155.55 174.519C117.293 177.265 50.5162 200.419 6.83008 189.559C7.07971 188.748 7.26694 187.812 7.39175 186.689C7.45416 182.507 7.57899 178.326 7.6414 174.145C20.0607 179.574 33.6034 182.445 47.1461 183.443C73.3578 185.316 99.3198 180.51 125.219 177.203Z" fill="white"/>
</g>
<path d="M178.703 72.7312C174.834 76.0389 171.276 79.6586 167.969 83.5903C193.182 67.1144 222.389 56.505 248.289 80.3451C248.102 74.3538 247.54 68.3626 247.602 62.3714C247.727 52.0739 256.901 42.4006 256.901 42.4006C256.901 42.4006 252.47 42.2134 246.666 43.4615C241.549 44.6473 236.494 45.8331 231.438 47.2685C212.529 52.4484 193.806 59.9374 178.703 72.7312Z" fill="#FFD54D"/>
<path d="M170.589 174.769C169.799 174.686 168.883 174.603 167.843 174.52C167.718 174.52 167.594 174.52 167.469 174.52C168.53 174.52 169.591 174.582 170.589 174.769Z" fill="white"/>
</svg>
