<svg width="168" height="257" viewBox="0 0 168 257" fill="none" xmlns="http://www.w3.org/2000/svg">
<path d="M83.567 115.037C88.6515 114.603 93.7359 113.854 98.8598 113.854C103.668 113.815 108.595 113.854 113.364 114.564C118.961 115.431 124.676 117.086 130.313 116.968L42.4577 39.006C35.1266 32.5026 23.9329 33.1726 17.4689 40.4643C10.9655 47.7954 11.6355 58.9891 18.9272 65.4925L75.7235 115.864C78.3249 115.47 80.9657 115.234 83.567 115.037Z" fill="url(#paint0_linear_35_47)"/>
<path d="M110.292 122.25C115.77 124.142 121.052 126.31 126.294 128.832C132.955 131.985 139.734 135.139 146.198 138.686L96.9303 11.7318C93.383 2.62701 83.1352 -1.90566 74.0305 1.64165C64.8863 5.18896 60.3536 15.4367 63.9009 24.5415L100.556 118.979C103.828 120.082 107.06 121.146 110.292 122.25Z" fill="url(#paint1_linear_35_47)"/>
<path d="M152.386 14.1778C142.73 12.7195 133.664 19.3411 132.206 28.9977L116.795 129.032C119.764 130.267 122.641 131.672 125.427 133.249C133.901 138.058 141.508 144.167 149.43 149.843L167.206 34.3975C168.704 24.7409 162.043 15.6756 152.386 14.1778Z" fill="url(#paint2_linear_35_47)"/>
<path d="M33.1173 150.943C36.231 144.952 40.5272 139.749 45.7299 135.572C50.8932 131.394 56.9236 128.28 63.3876 126.506C69.5757 124.851 76.1185 124.378 82.9372 125.324C87.9034 126.033 92.5543 127.452 96.8111 129.462C103.196 132.497 108.793 136.872 113.247 142.193C117.701 147.554 121.012 153.82 122.864 160.6C124.559 166.748 125.032 173.331 124.047 180.11C123.337 185.076 121.918 189.727 119.908 193.984C116.873 200.408 112.498 206.005 107.177 210.459C101.856 214.913 95.5893 218.224 88.81 220.037C82.6219 221.732 76.0791 222.205 69.2998 221.259C61.5351 220.155 54.5588 217.278 48.5678 213.139C42.5768 209.001 37.5711 203.522 33.9844 197.255C29.2547 188.939 18.6522 186.022 10.3357 190.791C2.01923 195.521 -0.897454 206.124 3.8717 214.44C9.98095 225.2 18.4945 234.541 28.7817 241.675C39.0689 248.809 51.2085 253.736 64.4124 255.589C75.9214 257.244 87.3122 256.416 97.9147 253.539C113.483 249.282 127.357 240.651 137.999 228.826C143.32 222.914 147.813 216.174 151.282 208.804C154.79 201.433 157.234 193.432 158.416 184.997C160.071 173.488 159.244 162.098 156.366 151.456C152.11 135.926 143.478 122.052 131.654 111.41C125.702 106.089 119.001 101.557 111.631 98.0883C104.26 94.6199 96.2593 92.1762 87.8246 90.9543C76.2761 89.3383 64.8854 90.1266 54.2829 93.0433C43.1286 96.0782 32.802 101.399 23.9731 108.533C15.1048 115.667 7.65549 124.614 2.29512 134.941C-2.1193 143.454 1.19152 153.939 9.70506 158.353C18.2186 162.768 28.6634 159.457 33.1173 150.943Z" fill="url(#paint3_linear_35_47)"/>
<defs>
<linearGradient id="paint0_linear_35_47" x1="85.805" y1="216.669" x2="-35.2572" y2="111.899" gradientUnits="userSpaceOnUse">
<stop stop-color="#0F637A"/>
<stop offset="1" stop-color="#00A2E0"/>
</linearGradient>
<linearGradient id="paint1_linear_35_47" x1="388.696" y1="-111.429" x2="456.43" y2="63.0776" gradientUnits="userSpaceOnUse">
<stop offset="0.003" stop-color="#C4007A"/>
<stop offset="1" stop-color="#8B0058"/>
</linearGradient>
<linearGradient id="paint2_linear_35_47" x1="403.58" y1="61.4347" x2="375.09" y2="246.446" gradientUnits="userSpaceOnUse">
<stop stop-color="#FFED00"/>
<stop offset="0.999" stop-color="#A36100"/>
</linearGradient>
<linearGradient id="paint3_linear_35_47" x1="166.826" y1="68.2161" x2="166.826" y2="249.006" gradientUnits="userSpaceOnUse">
<stop offset="0.002" stop-color="#565656"/>
<stop offset="1"/>
</linearGradient>
</defs>
</svg>
