<svg width="230" height="257" viewBox="0 0 230 257" fill="none" xmlns="http://www.w3.org/2000/svg">
<path d="M229.836 15.2871V241.736C229.836 249.898 223.222 256.512 215.061 256.512H97.5625C89.4013 256.512 82.7871 249.898 82.7871 241.736V15.2871C82.7871 7.12587 89.4013 0.511719 97.5625 0.511719H215.062C223.223 0.511719 229.836 7.12587 229.836 15.2871Z" fill="url(#paint0_linear_35_46)"/>
<path d="M210.622 242.118H102.002C98.9387 242.118 96.4551 239.634 96.4551 236.571V28.0122C96.4551 24.9484 98.9387 22.4648 102.002 22.4648H210.622C213.686 22.4648 216.17 24.9484 216.17 28.0122V236.571C216.17 239.634 213.686 242.118 210.622 242.118Z" fill="url(#paint1_linear_35_46)"/>
<path d="M102.002 22.4648H210.622C213.686 22.4648 216.17 24.9484 216.17 28.0122V236.571C216.17 239.634 213.686 242.118 210.622 242.118H102.002C98.9387 242.118 96.4551 239.634 96.4551 236.571V28.0122C96.4551 24.9484 98.9387 22.4648 102.002 22.4648Z" fill="url(#paint2_linear_35_46)"/>
<path opacity="0.38" d="M192.106 18.3986H118.959C117.025 18.3986 115.457 16.8305 115.457 14.8966C115.457 12.9627 117.025 11.3945 118.959 11.3945H192.106C194.04 11.3945 195.608 12.9627 195.608 14.8966C195.608 16.8315 194.04 18.3986 192.106 18.3986Z" fill="#714DC8"/>
<path d="M192.283 4.05859H100.359C92.587 4.05859 86.2871 10.3574 86.2871 18.1309V110.054L192.283 4.05859Z" fill="url(#paint3_linear_35_46)"/>
<path d="M176.815 185.352C155.107 207.075 133.357 228.756 111.588 250.419H212.264C220.037 250.419 226.335 244.12 226.335 236.348V135.742C209.831 152.281 193.331 168.824 176.815 185.352Z" fill="url(#paint4_linear_35_46)"/>
<path opacity="0.18" d="M162.214 106.813L140.496 173.801C139.481 176.928 136.64 179.048 133.426 179.048H82.7852V98.0234H156.327C160.759 98.0234 163.804 102.574 162.214 106.813Z" fill="#714DC8"/>
<path d="M72.1021 197.857C78.2801 197.857 83.2883 192.848 83.2883 186.671C83.2883 180.493 78.2801 175.484 72.1021 175.484C65.9242 175.484 60.916 180.493 60.916 186.671C60.916 192.848 65.9242 197.857 72.1021 197.857Z" fill="url(#paint5_linear_35_46)"/>
<path d="M114.706 197.857C120.884 197.857 125.892 192.848 125.892 186.671C125.892 180.493 120.884 175.484 114.706 175.484C108.528 175.484 103.52 180.493 103.52 186.671C103.52 192.848 108.528 197.857 114.706 197.857Z" fill="url(#paint6_linear_35_46)"/>
<path d="M145.101 103.893H57.7538L54.6732 89.0409C53.9963 85.7753 51.1207 83.4336 47.7847 83.4336H13.5473C9.66166 83.4336 6.51172 86.5835 6.51172 90.4692C6.51172 94.3549 9.66166 97.5048 13.5473 97.5048H42.0587L53.0788 165.884C53.6169 169.74 56.914 172.61 60.8081 172.61H127.936C131.322 172.61 134.32 170.427 135.362 167.205L152.527 114.095C154.156 109.058 150.398 103.893 145.101 103.893Z" fill="url(#paint7_linear_35_46)"/>
<path d="M73.1719 129.086C73.1719 126.292 75.4368 124.027 78.2294 124.027H110.912C113.706 124.027 115.97 126.292 115.97 129.086C115.97 131.88 113.705 134.144 110.912 134.144H78.2294C75.4368 134.144 73.1719 131.88 73.1719 129.086Z" fill="#714DC8"/>
<path d="M73.1719 151.069C73.1719 148.276 75.4368 146.012 78.2294 146.012H110.912C113.706 146.012 115.97 148.277 115.97 151.069C115.97 153.863 113.705 156.128 110.912 156.128H78.2294C75.4368 156.128 73.1719 153.863 73.1719 151.069Z" fill="#714DC8"/>
<path d="M9.82422 129.086C9.82422 126.292 12.0892 124.027 14.8818 124.027H37.9109C40.7046 124.027 42.9696 126.292 42.9696 129.086C42.9696 131.88 40.7046 134.144 37.9109 134.144H14.8818C12.0881 134.144 9.82422 131.88 9.82422 129.086Z" fill="url(#paint8_linear_35_46)"/>
<path d="M9.82422 165.46C9.82422 162.666 12.0892 160.402 14.8818 160.402H37.9109C40.7046 160.402 42.9696 162.667 42.9696 165.46C42.9696 168.254 40.7046 170.517 37.9109 170.517H14.8818C12.0881 170.517 9.82422 168.253 9.82422 165.46Z" fill="url(#paint9_linear_35_46)"/>
<path d="M0.171875 147.476C0.171875 144.682 2.43685 142.418 5.22945 142.418H37.9123C40.706 142.418 42.971 144.683 42.971 147.476C42.971 150.269 40.706 152.534 37.9123 152.534H5.22945C2.43685 152.534 0.171875 150.269 0.171875 147.476Z" fill="url(#paint10_linear_35_46)"/>
<defs>
<linearGradient id="paint0_linear_35_46" x1="58.1592" y1="268.206" x2="245.684" y2="1.31345" gradientUnits="userSpaceOnUse">
<stop stop-color="#412C9B"/>
<stop offset="0.2186" stop-color="#6F42B9"/>
<stop offset="0.7509" stop-color="#DB75FF"/>
</linearGradient>
<linearGradient id="paint1_linear_35_46" x1="245.76" y1="-78.3805" x2="68.3396" y2="339.49" gradientUnits="userSpaceOnUse">
<stop offset="0.2058" stop-color="white"/>
<stop offset="0.3081" stop-color="#F6DEFF" stop-opacity="0.7762"/>
<stop offset="0.5505" stop-color="#E393FF" stop-opacity="0.2455"/>
<stop offset="0.6627" stop-color="#DB75FF" stop-opacity="0"/>
</linearGradient>
<linearGradient id="paint2_linear_35_46" x1="66.8649" y1="342.963" x2="244.285" y2="-74.9069" gradientUnits="userSpaceOnUse">
<stop offset="0.2058" stop-color="white"/>
<stop offset="0.3081" stop-color="#F6DEFF" stop-opacity="0.7762"/>
<stop offset="0.5505" stop-color="#E393FF" stop-opacity="0.2455"/>
<stop offset="0.6627" stop-color="#DB75FF" stop-opacity="0"/>
</linearGradient>
<linearGradient id="paint3_linear_35_46" x1="84.6693" y1="4.10326" x2="218.902" y2="134.25" gradientUnits="userSpaceOnUse">
<stop stop-color="white"/>
<stop offset="0.0239" stop-color="#FDF7FF" stop-opacity="0.9568"/>
<stop offset="0.2034" stop-color="#EEBFFF" stop-opacity="0.6327"/>
<stop offset="0.3579" stop-color="#E497FF" stop-opacity="0.3537"/>
<stop offset="0.4797" stop-color="#DD7EFF" stop-opacity="0.1337"/>
<stop offset="0.5537" stop-color="#DB75FF" stop-opacity="0"/>
</linearGradient>
<linearGradient id="paint4_linear_35_46" x1="226.678" y1="273.26" x2="129.213" y2="137.861" gradientUnits="userSpaceOnUse">
<stop offset="0.0393" stop-color="white"/>
<stop offset="0.0615" stop-color="#FDF7FF" stop-opacity="0.9568"/>
<stop offset="0.2286" stop-color="#EEBFFF" stop-opacity="0.6327"/>
<stop offset="0.3723" stop-color="#E497FF" stop-opacity="0.3537"/>
<stop offset="0.4857" stop-color="#DD7EFF" stop-opacity="0.1337"/>
<stop offset="0.5546" stop-color="#DB75FF" stop-opacity="0"/>
</linearGradient>
<linearGradient id="paint5_linear_35_46" x1="119.032" y1="141.817" x2="-77.7213" y2="329.864" gradientUnits="userSpaceOnUse">
<stop stop-color="#412C9B"/>
<stop offset="0.0527" stop-color="#643CB1"/>
<stop offset="0.1397" stop-color="#9755D3"/>
<stop offset="0.2156" stop-color="#BC66EB"/>
<stop offset="0.2767" stop-color="#D371FA"/>
<stop offset="0.3153" stop-color="#DB75FF"/>
</linearGradient>
<linearGradient id="paint6_linear_35_46" x1="149.837" y1="153.094" x2="-46.9164" y2="341.141" gradientUnits="userSpaceOnUse">
<stop stop-color="#412C9B"/>
<stop offset="0.0921" stop-color="#814AC5"/>
<stop offset="0.1923" stop-color="#C269EF"/>
<stop offset="0.2397" stop-color="#DB75FF"/>
</linearGradient>
<linearGradient id="paint7_linear_35_46" x1="137.026" y1="64.8175" x2="-59.7269" y2="252.864" gradientUnits="userSpaceOnUse">
<stop stop-color="#412C9B"/>
<stop offset="0.0251" stop-color="#4F33A4"/>
<stop offset="0.109" stop-color="#7A47C0"/>
<stop offset="0.1944" stop-color="#9D58D7"/>
<stop offset="0.2804" stop-color="#B864E8"/>
<stop offset="0.3672" stop-color="#CC6EF5"/>
<stop offset="0.4552" stop-color="#D773FD"/>
<stop offset="0.5465" stop-color="#DB75FF"/>
</linearGradient>
<linearGradient id="paint8_linear_35_46" x1="55.2972" y1="124.132" x2="-39.3234" y2="140.352" gradientUnits="userSpaceOnUse">
<stop stop-color="#412C9B"/>
<stop offset="0.0251" stop-color="#4F33A4"/>
<stop offset="0.109" stop-color="#7A47C0"/>
<stop offset="0.1944" stop-color="#9D58D7"/>
<stop offset="0.2804" stop-color="#B864E8"/>
<stop offset="0.3672" stop-color="#CC6EF5"/>
<stop offset="0.4552" stop-color="#D773FD"/>
<stop offset="0.5465" stop-color="#DB75FF"/>
</linearGradient>
<linearGradient id="paint9_linear_35_46" x1="55.2972" y1="160.505" x2="-39.3234" y2="176.726" gradientUnits="userSpaceOnUse">
<stop stop-color="#412C9B"/>
<stop offset="0.0251" stop-color="#4F33A4"/>
<stop offset="0.109" stop-color="#7A47C0"/>
<stop offset="0.1944" stop-color="#9D58D7"/>
<stop offset="0.2804" stop-color="#B864E8"/>
<stop offset="0.3672" stop-color="#CC6EF5"/>
<stop offset="0.4552" stop-color="#D773FD"/>
<stop offset="0.5465" stop-color="#DB75FF"/>
</linearGradient>
<linearGradient id="paint10_linear_35_46" x1="62.5124" y1="140.457" x2="-59.5431" y2="161.381" gradientUnits="userSpaceOnUse">
<stop stop-color="#412C9B"/>
<stop offset="0.0251" stop-color="#4F33A4"/>
<stop offset="0.109" stop-color="#7A47C0"/>
<stop offset="0.1944" stop-color="#9D58D7"/>
<stop offset="0.2804" stop-color="#B864E8"/>
<stop offset="0.3672" stop-color="#CC6EF5"/>
<stop offset="0.4552" stop-color="#D773FD"/>
<stop offset="0.5465" stop-color="#DB75FF"/>
</linearGradient>
</defs>
</svg>
