<svg width="257" height="164" viewBox="0 0 257 164" fill="none" xmlns="http://www.w3.org/2000/svg">
<path d="M84.5395 67.9873C82.3753 69.489 80.3215 71.079 78.3782 72.7574C74.9994 75.6724 71.8856 78.7862 69.1031 82.2313C67.4247 84.263 65.8347 86.383 64.333 88.5913L49.3603 72.2936L44.8552 67.4573L35.2489 56.9897L32.2676 53.7434L53.4016 34.2656L56.3829 37.5119L65.2605 47.1845L69.7656 52.0209L84.5395 67.9873Z" fill="url(#paint0_linear_35_45)"/>
<path d="M1.858 21.612L18.222 39.3672L35.0497 35.5909L40.2172 19.1607L23.787 1.33922C33.1284 -0.449555 43.1323 2.46548 50.0886 9.95183C60.755 21.4795 60.0263 39.4997 48.4324 50.0999C36.9047 60.7662 18.9507 60.0375 8.28434 48.5098C1.39425 41.0235 -0.725786 30.7546 1.858 21.612Z" fill="url(#paint1_linear_35_45)"/>
<path d="M40.9461 16.8418L26.3709 1.00781C25.4875 1.09615 24.6263 1.20657 23.7871 1.33907L40.2173 19.1605L40.9461 16.8418Z" fill="#9A2287"/>
<path d="M56.3841 21.082C57.6429 30.0259 54.6616 39.4335 47.5065 45.9924C35.9788 56.6588 18.0248 55.93 7.35846 44.4023C4.37717 41.1561 2.32337 37.3798 1.13086 33.471C1.92587 38.9035 4.31091 44.1373 8.28596 48.5099C18.9524 60.0375 36.9063 60.7663 48.434 50.0999C56.7153 42.4811 59.4316 31.1522 56.3841 21.082Z" fill="#9A2287"/>
<path d="M225.323 53.7434L222.342 56.9897L212.735 67.4573L208.23 72.2936L193.257 88.5251C191.844 86.4051 190.32 84.3513 188.686 82.3638C188.642 82.3196 188.598 82.2533 188.554 82.165C185.771 78.8525 182.724 75.7387 179.477 72.8899C179.389 72.8457 179.323 72.8015 179.279 72.7574C177.379 71.1232 175.392 69.5773 173.316 68.1198C173.228 68.0757 173.161 68.0315 173.117 67.9873L187.825 52.0209L192.264 47.1845L201.208 37.5119L204.189 34.2656L225.323 53.7434Z" fill="url(#paint2_linear_35_45)"/>
<path d="M255.731 21.612L239.367 39.3672L222.539 35.5909L217.372 19.1607L233.802 1.33922C224.461 -0.449555 214.457 2.46548 207.5 9.95183C196.834 21.4795 197.563 39.4997 209.157 50.0999C220.684 60.7662 238.638 60.0375 249.305 48.5098C256.195 41.0235 258.315 30.7546 255.731 21.612Z" fill="url(#paint3_linear_35_45)"/>
<path d="M216.18 15.3177L217.372 19.1602L233.802 1.33876C232.389 1.07376 230.954 0.919167 229.496 0.875L216.18 15.3177Z" fill="#9A2287"/>
<path d="M255.731 21.6133L255.665 21.7458C256.593 29.6959 254.207 38.0435 248.377 44.4036C237.711 55.9312 219.757 56.66 208.229 45.9936C204.321 42.416 201.671 37.9772 200.279 33.2734C201.141 39.501 204.122 45.5298 209.157 50.1012C220.685 60.7675 238.639 60.0388 249.305 48.5111C256.195 41.0248 258.315 30.7559 255.731 21.6133Z" fill="#9A2287"/>
<path d="M218.499 4.51953C210.085 9.8196 203.857 18.1672 202.002 27.9723C201.936 17.7697 209.091 8.16333 218.499 4.51953Z" fill="white"/>
<path d="M234.399 131.522C234.399 137.219 233.935 142.983 233.008 148.615C232.544 151.198 230.358 153.12 227.708 153.12C227.31 153.12 226.913 153.075 226.515 152.987L226.317 152.921C220.553 151.662 214.723 154.908 212.735 160.473C212.338 161.622 211.94 162.748 211.543 163.852H199.22C203.791 153.981 206.309 143.049 206.309 131.522C206.309 115.688 201.539 100.98 193.39 88.7238C193.346 88.6796 193.302 88.6134 193.257 88.525C191.844 86.405 190.32 84.3512 188.686 82.3637C188.642 82.3195 188.598 82.2533 188.554 82.165C185.771 78.8524 182.723 75.7386 179.477 72.8898C179.389 72.8457 179.323 72.8015 179.278 72.7573C177.379 71.1231 175.392 69.5773 173.316 68.1198C173.228 68.0756 173.161 68.0314 173.117 67.9873C160.264 58.9772 144.563 53.7433 127.669 54.0083C111.703 54.2733 96.7961 59.3747 84.5397 67.9873C82.3755 69.489 80.3217 71.079 78.3784 72.7573C74.9996 75.6724 71.8858 78.7862 69.1032 82.2312C67.4249 84.2629 65.8349 86.3829 64.3332 88.5913C56.5156 100.251 51.8118 114.098 51.348 129.004C50.9505 141.459 53.4681 153.252 58.3706 163.852H46.1142C45.6725 162.748 45.2529 161.622 44.8554 160.473C42.9342 154.908 37.0378 151.662 31.274 152.921L31.0753 152.987C30.6777 153.075 30.3023 153.12 29.949 153.12C27.2327 153.12 25.0464 151.198 24.5827 148.615C23.6552 142.983 23.1914 137.219 23.1914 131.522C23.1914 125.824 23.6552 120.06 24.5827 114.429C25.0464 111.845 27.2327 109.924 29.949 109.924C30.3023 109.924 30.6777 109.968 31.0753 110.057H31.274C37.1041 111.382 42.9342 108.069 44.8554 102.438C46.0038 99.1252 47.3509 95.901 48.8967 92.7651C51.4805 87.3988 49.6917 80.9062 44.6567 77.7261L44.5242 77.5936C43.1992 76.7324 42.2717 75.4074 42.0729 73.7511C41.8741 72.3598 42.2717 70.9023 43.1329 69.776C43.7071 68.981 44.2813 68.2081 44.8554 67.4573C46.5338 65.2931 48.2784 63.173 50.0893 61.0972C51.4143 59.6396 52.7614 58.2263 54.1305 56.8571C55.6764 55.3113 57.2443 53.8317 58.8344 52.4183C60.9102 50.5633 63.0523 48.8187 65.2607 47.1845C65.9232 46.6986 66.5636 46.2349 67.182 45.7932C68.3082 44.932 69.6995 44.6007 71.157 44.7995C72.747 45.0645 74.1383 46.0582 74.9996 47.3832C78.1796 52.4183 84.6722 54.2071 90.0385 51.6233C93.1744 50.0774 96.3986 48.7303 99.7112 47.582C105.342 45.6607 108.655 39.8306 107.396 34.0006L107.33 33.8018C106.999 32.2118 107.33 30.6218 108.324 29.363C109.185 28.2367 110.51 27.508 111.901 27.243C117.466 26.3817 123.164 25.918 128.795 25.918C134.493 25.918 140.257 26.3817 145.888 27.3092C147.412 27.5742 148.803 28.5017 149.598 29.8268C150.393 31.0855 150.526 32.543 150.261 34.0006C148.936 39.8306 152.248 45.6607 157.879 47.582C161.192 48.7303 164.416 50.0554 167.552 51.557C172.918 54.2071 179.411 52.4183 182.591 47.3832L182.723 47.2507C183.916 45.3957 186.102 44.4019 188.421 44.8657C189.15 44.9982 189.812 45.3295 190.475 45.7932C191.093 46.2349 191.689 46.6986 192.264 47.1845C192.352 47.2286 192.418 47.2728 192.462 47.317C194.538 48.8628 196.548 50.497 198.491 52.2196C198.58 52.3079 198.668 52.3741 198.756 52.4183C200.346 53.8317 201.914 55.3113 203.46 56.8571C204.829 58.2263 206.176 59.6617 207.501 61.1634C207.634 61.2959 207.766 61.4284 207.899 61.5609C209.577 63.4601 211.189 65.4256 212.735 67.4573C212.779 67.5014 212.823 67.5677 212.868 67.656C213.442 68.4069 213.994 69.1577 214.524 69.9085C215.518 71.2336 215.783 72.8898 215.385 74.4798C214.988 75.8711 214.06 76.9311 212.934 77.7261C207.899 80.9062 206.11 87.3988 208.694 92.7651C210.24 95.901 211.587 99.1252 212.735 102.438C214.656 108.069 220.486 111.382 226.317 110.057H226.515C226.913 109.968 227.31 109.924 227.708 109.924C230.358 109.924 232.544 111.845 233.008 114.429C233.935 120.06 234.399 125.824 234.399 131.522Z" fill="url(#paint4_linear_35_45)"/>
<path d="M206.243 132.848C206.045 143.912 203.593 154.379 199.221 163.853H200.678C204.322 154.843 206.31 145.104 206.31 134.835C206.31 134.173 206.287 133.51 206.243 132.848Z" fill="white"/>
<path d="M208.693 92.7652C208.163 91.6389 207.832 90.4464 207.633 89.2539C207.302 91.5064 207.633 93.8915 208.693 96.0778C210.239 99.2136 211.586 102.438 212.734 105.75C214.656 111.382 220.486 114.694 226.316 113.369H226.514C226.912 113.281 227.309 113.237 227.707 113.237C230.357 113.237 232.543 115.158 233.007 117.742C233.802 122.843 234.266 128.011 234.332 133.178C234.376 132.604 234.398 132.052 234.398 131.522C234.398 125.824 233.935 120.061 233.007 114.429C232.543 111.845 230.357 109.924 227.707 109.924C227.309 109.924 226.912 109.968 226.514 110.057H226.316C220.486 111.382 214.656 108.069 212.734 102.438C211.586 99.1253 210.239 95.9011 208.693 92.7652Z" fill="white"/>
<path d="M157.878 50.8959C161.191 52.0443 164.415 53.3693 167.551 54.871C172.917 57.521 179.41 55.7323 182.59 50.6972L182.722 50.5647C183.915 48.6434 186.101 47.7159 188.42 48.1796C189.149 48.3121 189.811 48.6434 190.474 49.1072C191.092 49.5488 191.688 50.0126 192.262 50.4984C192.351 50.5426 192.417 50.5868 192.461 50.6309C194.537 52.1768 196.547 53.811 198.49 55.5335C198.578 55.6218 198.667 55.6881 198.755 55.7323C200.345 57.1456 201.913 58.6252 203.459 60.1711C204.828 61.5402 206.175 62.9757 207.5 64.4774C207.633 64.6099 207.765 64.7424 207.898 64.8749C209.576 66.7741 211.188 68.7395 212.734 70.7712C212.778 70.8154 212.822 70.8816 212.866 70.97C213.441 71.7208 213.993 72.4716 214.523 73.2225C214.854 73.6862 215.119 74.2162 215.251 74.7462C215.296 74.6579 215.34 74.5696 215.384 74.4812C215.781 72.8912 215.516 71.235 214.523 69.9099C213.993 69.1591 213.441 68.4083 212.866 67.6574C212.822 67.5691 212.778 67.5028 212.734 67.4587C211.188 65.427 209.576 63.4615 207.898 61.5623C207.765 61.4298 207.633 61.2973 207.5 61.1648C206.175 59.6631 204.828 58.2277 203.459 56.8585C201.913 55.3127 200.345 53.8331 198.755 52.4197C198.667 52.3756 198.578 52.3093 198.49 52.221C196.547 50.4984 194.537 48.8642 192.461 47.3184C192.417 47.2742 192.351 47.2301 192.262 47.1859C191.688 46.7 191.092 46.2363 190.474 45.7946C189.811 45.3309 189.149 44.9996 188.42 44.8671C186.101 44.4033 183.915 45.3971 182.722 47.2521L182.59 47.3846C179.41 52.4197 172.917 54.2085 167.551 51.5584C164.415 50.0568 161.191 48.7317 157.878 47.5834C153.638 46.1259 150.723 42.4158 150.061 38.1758C149.266 43.6746 152.512 49.0409 157.878 50.8959Z" fill="white"/>
<path d="M24.5827 117.742C25.0464 115.158 27.2327 113.237 29.8827 113.237C30.2803 113.237 30.6777 113.281 31.0753 113.369H31.274C37.1041 114.694 42.9342 111.382 44.8554 105.75C46.0038 102.438 47.3509 99.2136 48.8967 96.0778C49.9567 93.8915 50.288 91.5064 49.9567 89.2539C49.758 90.4464 49.4267 91.6389 48.8967 92.7652C47.3509 95.9011 46.0038 99.1253 44.8554 102.438C42.9342 108.069 37.1041 111.382 31.274 110.057H31.0753C30.6777 109.968 30.2803 109.924 29.8827 109.924C27.2327 109.924 25.0464 111.845 24.5827 114.429C23.6552 120.061 23.1914 125.824 23.1914 131.522C23.1914 132.052 23.2135 132.604 23.2577 133.178C23.3239 128.011 23.7877 122.843 24.5827 117.742Z" fill="white"/>
<path d="M56.9793 163.851H58.3706C54.1306 154.642 51.613 144.506 51.348 133.773C51.2155 144.44 53.203 154.576 56.9793 163.851Z" fill="white"/>
<path d="M42.3368 74.7462C42.5135 74.1279 42.7785 73.5758 43.1318 73.09C43.706 72.295 44.2802 71.522 44.8543 70.7712C46.5327 68.607 48.2773 66.487 50.0882 64.4111C51.4132 62.9536 52.7603 61.5402 54.1294 60.1711C55.6753 58.6252 57.2432 57.1456 58.8333 55.7323C60.9091 53.8772 63.0512 52.1105 65.2596 50.4322C65.9221 49.9905 66.5625 49.5268 67.1809 49.0409C68.3071 48.2459 69.6984 47.9147 71.1559 48.1134C72.7459 48.3784 74.1372 49.3722 74.9985 50.6972C78.1785 55.7323 84.6711 57.521 90.0374 54.9372C93.1733 53.3914 96.3975 52.0443 99.7101 50.8959C105.076 49.0409 108.323 43.6746 107.528 38.1758C106.931 42.4158 103.95 46.1259 99.7101 47.5834C96.3975 48.7317 93.1733 50.0788 90.0374 51.6247C84.6711 54.2085 78.1785 52.4197 74.9985 47.3846C74.1372 46.0596 72.7459 45.0659 71.1559 44.8009C69.6984 44.6021 68.3071 44.9334 67.1809 45.7946C66.5625 46.2363 65.9221 46.7 65.2596 47.1859C63.0512 48.8201 60.9091 50.5647 58.8333 52.4197C57.2432 53.8331 55.6753 55.3127 54.1294 56.8585C52.7603 58.2277 51.4132 59.641 50.0882 61.0986C48.2773 63.1744 46.5327 65.2945 44.8543 67.4587C44.2802 68.2095 43.706 68.9824 43.1318 69.7774C42.2706 70.9037 41.8731 72.3612 42.0718 73.7525C42.116 74.1058 42.2043 74.4371 42.3368 74.7462Z" fill="white"/>
<path d="M107.396 34.0006C107.396 34.1331 107.418 34.2656 107.462 34.3981C107.661 33.8018 107.926 33.2056 108.323 32.6755C109.184 31.5493 110.509 30.8205 111.901 30.5555C117.466 29.6943 123.163 29.2305 128.795 29.2305C134.492 29.2305 140.256 29.6943 145.887 30.6218C147.411 30.8868 148.802 31.8143 149.597 33.1393C149.862 33.5368 149.995 34.0006 150.127 34.4643C150.172 34.2877 150.216 34.1331 150.26 34.0006C150.525 32.543 150.392 31.0855 149.597 29.8268C148.802 28.5017 147.411 27.5742 145.887 27.3092C140.256 26.3817 134.492 25.918 128.795 25.918C123.163 25.918 117.466 26.3817 111.901 27.3092C110.509 27.508 109.184 28.2367 108.323 29.363C107.329 30.6218 106.998 32.2118 107.329 33.8018L107.396 34.0006Z" fill="white"/>
<path d="M207.5 61.164C207.191 61.7823 206.794 62.3565 206.308 62.8865L203.194 66.2653L188.552 82.1655C185.77 78.853 182.722 75.7392 179.476 72.8904C179.388 72.8462 179.322 72.8021 179.277 72.7579L193.853 56.924L196.635 53.9427C197.231 53.2802 197.96 52.7502 198.755 52.4189C201.074 51.3589 203.923 51.6901 205.976 53.5452C208.096 55.5327 208.626 58.5802 207.5 61.164Z" fill="url(#paint5_linear_35_45)"/>
<g style="mix-blend-mode:multiply" opacity="0.3">
<path d="M205.977 53.5456C204.321 52.0218 202.135 51.5581 200.081 51.9556C201.207 52.2206 202.267 52.7506 203.129 53.5456C205.315 55.5331 205.845 58.5806 204.652 61.1644C204.387 61.7828 204.012 62.3569 203.526 62.887L200.412 66.2658L187.162 80.6422C187.648 81.128 188.112 81.636 188.553 82.166L203.195 66.2658L206.309 62.887C206.794 62.3569 207.192 61.7828 207.501 61.1644C208.627 58.5806 208.097 55.5331 205.977 53.5456Z" fill="#9A2287"/>
</g>
<path d="M78.3779 72.7579C74.9991 75.6729 71.8853 78.7867 69.1027 82.2318L54.3951 66.2653L51.2813 62.8865C50.7954 62.3565 50.3979 61.7603 50.0887 61.0978C48.9625 58.5802 49.4925 55.5327 51.6125 53.5452C53.6663 51.6901 56.5151 51.3589 58.8338 52.4189C59.6289 52.7502 60.3576 53.2802 60.9539 53.9427L63.7364 56.924L78.3779 72.7579Z" fill="url(#paint6_linear_35_45)"/>
<g style="mix-blend-mode:multiply" opacity="0.3">
<path d="M51.6781 53.5456C53.2681 52.0218 55.5206 51.5581 57.5082 51.9556C56.3819 52.2206 55.3219 52.7506 54.4606 53.5456C52.2743 55.5331 51.7443 58.5806 52.9368 61.1644C53.2019 61.7828 53.5773 62.3569 54.0631 62.887L57.1769 66.2658L70.4271 80.6422C69.9854 81.128 69.5216 81.636 69.0358 82.166L54.3944 66.2658L51.2806 62.887C50.7947 62.3569 50.3972 61.7828 50.0881 61.1644C48.9618 58.5806 49.4918 55.5331 51.6781 53.5456Z" fill="#9A2287"/>
</g>
<path fill-rule="evenodd" clip-rule="evenodd" d="M183.717 136.092V158.418C183.717 161.532 181.199 163.983 178.152 163.983H169.142C166.028 163.983 163.577 161.532 163.577 158.418V153.913H94.0133V158.418C94.0133 161.532 91.562 163.983 88.4482 163.983H79.4381C76.3906 163.983 73.873 161.532 73.873 158.418V136.092C73.873 131.189 76.3906 130.526 76.3906 130.526V125.226C76.3906 125.226 77.2518 121.649 77.7818 120.92C78.1793 120.39 82.6181 115.289 84.9369 112.639H78.7094C77.5168 112.639 76.5893 111.711 76.5893 110.519C76.5893 107.802 78.8419 105.55 81.5582 105.55H85.9969C86.8582 105.55 87.6532 106.014 88.0507 106.742C90.0383 102.039 93.2845 94.8173 95.2058 93.2935C98.1208 91.041 103.023 88.5234 128.795 88.5234C154.567 88.5234 159.469 91.041 162.384 93.2935C164.305 94.8173 167.552 102.039 169.539 106.742C169.937 106.014 170.732 105.55 171.593 105.55H176.032C178.748 105.55 181.001 107.802 181.001 110.519C181.001 111.711 180.073 112.639 178.881 112.639H172.653C174.972 115.289 179.411 120.39 179.808 120.92C180.338 121.649 181.199 125.226 181.199 125.226V130.526C181.199 130.526 183.717 131.189 183.717 136.092ZM89.8395 110.386C89.8395 110.386 104.282 113.5 128 113.566C128.132 113.566 128.265 113.566 128.397 113.566C128.53 113.566 128.663 113.566 128.795 113.566C153.242 113.5 167.817 110.386 167.817 110.386C167.817 110.386 161.39 96.5398 160.33 95.3473C159.27 94.1548 154.235 91.4385 128.795 91.3722C128.663 91.3722 128.53 91.3722 128.397 91.3722C128.265 91.3722 128.132 91.3722 128 91.3722C103.355 91.4385 98.3859 94.1548 97.2596 95.3473C96.1996 96.5398 89.8395 110.386 89.8395 110.386ZM97.1933 147.222C95.0071 147.222 86.3282 145.764 84.7382 146.758C83.1482 147.752 85.0032 150.534 85.0032 150.534C85.9969 151.329 99.5121 151.197 100.506 150.534C101.433 149.938 99.3796 147.222 97.1933 147.222ZM104.348 129.93L88.117 123.173C83.7444 121.98 79.4381 127.744 79.4381 132.249C79.4381 134.767 81.4919 136.754 84.0094 136.754H106.336C106.336 136.754 106.601 132.382 104.348 129.93ZM143.966 135.76C145.623 133.574 143.9 130.394 141.118 130.394C140.058 130.394 117.731 130.394 116.472 130.394C113.69 130.394 111.967 133.574 113.624 135.76C114.087 136.357 114.75 136.754 115.611 136.754C117.93 136.754 121.375 136.754 125.416 136.754C127.404 136.754 128.795 136.754 128.795 136.754C133.764 136.754 139.528 136.754 141.979 136.754C142.84 136.754 143.503 136.357 143.966 135.76ZM172.852 146.758C171.262 145.764 162.583 147.222 160.397 147.222C158.21 147.222 156.157 149.938 157.15 150.534C158.078 151.197 171.593 151.329 172.587 150.534C172.587 150.534 174.442 147.752 172.852 146.758ZM178.152 132.249C178.152 127.744 173.846 121.98 169.539 123.173L153.242 129.93C150.989 132.382 151.254 136.754 151.254 136.754H173.581C176.098 136.754 178.152 134.767 178.152 132.249Z" fill="url(#paint7_linear_35_45)"/>
<path d="M160.331 94.5532C159.271 93.4269 154.235 90.6444 128.795 90.5781C128.663 90.5781 128.53 90.5781 128.398 90.5781C128.265 90.5781 128.133 90.5781 128 90.5781C103.355 90.6444 98.386 93.4269 97.2597 94.5532C96.1997 95.7457 88.9121 110.255 88.9121 110.255C88.9121 110.255 89.2213 110.299 89.8396 110.387C91.6284 106.545 96.4647 96.2757 97.2597 95.3482C98.386 94.1557 103.355 91.4394 128 91.3731C128.133 91.3731 128.265 91.3731 128.398 91.3731C128.53 91.3731 128.663 91.3731 128.795 91.3731C154.235 91.4394 159.271 94.1557 160.331 95.3482C161.126 96.2757 165.962 106.545 167.817 110.387C168.391 110.299 168.678 110.255 168.678 110.255C168.678 110.255 161.391 95.7457 160.331 94.5532Z" fill="#9A2287"/>
<path d="M178.881 110.52H170.732C171.329 111.117 171.925 111.846 172.654 112.641H178.881C180.074 112.641 181.001 111.713 181.001 110.52C181.001 110.123 180.935 109.659 180.803 109.262C180.471 109.99 179.743 110.52 178.881 110.52Z" fill="#9A2287"/>
<path d="M141.118 128.211H128.795C127.801 128.211 126.609 128.211 125.416 128.211H116.472C114.087 128.211 112.431 130.662 113.16 132.782C113.624 131.457 114.882 130.397 116.472 130.397H125.416C126.609 130.397 127.801 130.397 128.795 130.397H141.118C142.708 130.397 143.966 131.457 144.43 132.782C145.225 130.662 143.569 128.211 141.118 128.211Z" fill="#9A2287"/>
<path d="M172.851 144.573C171.261 143.58 162.583 145.037 160.396 145.037C158.21 145.037 156.156 147.753 157.15 148.416C157.216 148.482 157.415 148.482 157.68 148.548C158.343 147.82 159.336 147.223 160.396 147.223C162.583 147.223 171.261 145.766 172.851 146.76C173.028 146.848 173.161 146.958 173.249 147.091C173.58 146.23 173.713 145.17 172.851 144.573Z" fill="#9A2287"/>
<path d="M104.348 127.746L88.0501 120.988C83.7438 119.862 79.4375 125.559 79.4375 130.064C79.4817 130.418 79.5258 130.749 79.57 131.058C80.2325 126.818 84.1413 122.114 88.0501 123.174L104.348 129.932C105.54 131.257 106.07 133.112 106.203 134.569H106.335C106.335 134.569 106.6 130.197 104.348 127.746Z" fill="#9A2287"/>
<path d="M97.1927 145.037C95.0064 145.037 86.3276 143.58 84.7376 144.573C83.8763 145.17 84.0088 146.23 84.34 147.091C84.4284 146.958 84.5609 146.848 84.7376 146.76C86.3276 145.766 95.0064 147.223 97.1927 147.223C98.2527 147.223 99.2465 147.82 99.909 148.548C100.174 148.482 100.373 148.482 100.505 148.416C101.433 147.753 99.379 145.037 97.1927 145.037Z" fill="#9A2287"/>
<path d="M163.577 151.793H128.795H94.0137V153.913H128.795H163.577V151.793Z" fill="#9A2287"/>
<path d="M178.151 161.866H169.141C166.027 161.866 163.576 159.348 163.576 156.301V158.421C163.576 161.535 166.027 163.986 169.141 163.986H178.151C181.199 163.986 183.716 161.535 183.716 158.421V156.301C183.716 159.348 181.199 161.866 178.151 161.866Z" fill="#9A2287"/>
<path d="M169.539 120.988L153.241 127.746C150.989 130.197 151.254 134.569 151.254 134.569H151.386C151.519 133.112 152.049 131.257 153.241 129.932L169.539 123.174C173.514 122.114 177.357 126.818 178.019 131.058C178.107 130.749 178.152 130.418 178.152 130.064C178.152 125.559 173.845 119.862 169.539 120.988Z" fill="#9A2287"/>
<path d="M78.7079 112.641H84.9355C85.6642 111.846 86.3268 111.117 86.8568 110.52H78.7079C77.8466 110.52 77.1179 109.99 76.7866 109.262C76.6541 109.659 76.5879 110.123 76.5879 110.52C76.5879 111.713 77.5154 112.641 78.7079 112.641Z" fill="#9A2287"/>
<path d="M88.4482 161.866H79.4381C76.3906 161.866 73.873 159.348 73.873 156.301V158.421C73.873 161.535 76.3906 163.986 79.4381 163.986H88.4482C91.562 163.986 94.0133 161.535 94.0133 158.421V156.301C94.0133 159.348 91.562 161.866 88.4482 161.866Z" fill="#9A2287"/>
<path d="M87.7852 118.143C88.4477 116.288 89.1102 114.366 89.7727 112.511C89.8389 112.379 89.9714 112.312 90.1039 112.312C93.284 112.776 96.5303 113.041 99.7103 113.373C106.137 114.035 121.772 114.963 128.463 115.426C125.239 115.647 122.015 115.735 118.791 115.691C109.184 115.691 99.5116 115.029 90.0377 112.975L90.4352 112.776C89.5739 114.565 88.7127 116.354 87.7852 118.143Z" fill="white"/>
<path d="M86.1956 141.792C86.2619 140.864 86.1293 139.738 85.4006 139.075C85.2681 139.009 85.4006 138.744 85.5331 138.744C99.9758 138.082 114.418 138.081 128.795 138.943C125.217 139.208 121.574 139.34 117.996 139.407C107.197 139.738 96.332 139.672 85.5331 139.141L85.6656 138.81C86.4606 139.672 86.3944 140.798 86.1956 141.792Z" fill="white"/>
<path d="M91.6289 101.182C92.2914 98.6642 93.1527 96.2129 94.8752 94.0266C98.5852 90.0516 104.68 89.9191 109.715 89.3891C112.299 89.1903 114.949 89.1903 117.533 89.3228C114.949 89.7203 112.365 90.0516 109.848 90.4491C105.078 91.3103 99.314 91.3766 95.604 94.7554C93.9477 96.6104 92.6889 98.9292 91.6289 101.182Z" fill="white"/>
<defs>
<linearGradient id="paint0_linear_35_45" x1="66.7796" y1="14.4361" x2="80.3955" y2="28.052" gradientUnits="userSpaceOnUse">
<stop stop-color="#FFDC81"/>
<stop offset="0.505" stop-color="#FF5A6E"/>
<stop offset="1" stop-color="#FF4EA6"/>
</linearGradient>
<linearGradient id="paint1_linear_35_45" x1="57.6055" y1="0.95695" x2="57.6055" y2="57.1933" gradientUnits="userSpaceOnUse">
<stop stop-color="#FFDC81"/>
<stop offset="0.572" stop-color="#FF5A6E"/>
<stop offset="1" stop-color="#FF4EA6"/>
</linearGradient>
<linearGradient id="paint2_linear_35_45" x1="247.084" y1="68.8744" x2="232.522" y2="83.437" gradientUnits="userSpaceOnUse">
<stop stop-color="#FFDC81"/>
<stop offset="0.572" stop-color="#FF5A6E"/>
<stop offset="1" stop-color="#FF4EA6"/>
</linearGradient>
<linearGradient id="paint3_linear_35_45" x1="256.795" y1="0.70321" x2="256.795" y2="55.8763" gradientUnits="userSpaceOnUse">
<stop stop-color="#FFDC81"/>
<stop offset="0.572" stop-color="#FF5A6E"/>
<stop offset="1" stop-color="#FF4EA6"/>
</linearGradient>
<linearGradient id="paint4_linear_35_45" x1="173.827" y1="25.7027" x2="173.827" y2="160.389" gradientUnits="userSpaceOnUse">
<stop stop-color="#00C6DB"/>
<stop offset="1" stop-color="#9A2287"/>
</linearGradient>
<linearGradient id="paint5_linear_35_45" x1="209.681" y1="52.9933" x2="209.681" y2="82.0417" gradientUnits="userSpaceOnUse">
<stop stop-color="#00C6DB"/>
<stop offset="1" stop-color="#9A2287"/>
</linearGradient>
<linearGradient id="paint6_linear_35_45" x1="79.9639" y1="53.196" x2="79.9639" y2="81.5825" gradientUnits="userSpaceOnUse">
<stop stop-color="#00C6DB"/>
<stop offset="1" stop-color="#9A2287"/>
</linearGradient>
<linearGradient id="paint7_linear_35_45" x1="154.741" y1="88.4188" x2="154.741" y2="162.531" gradientUnits="userSpaceOnUse">
<stop stop-color="#FFDC81"/>
<stop offset="0.572" stop-color="#FF5A6E"/>
<stop offset="1" stop-color="#FF4EA6"/>
</linearGradient>
</defs>
</svg>
