<svg width="257" height="229" viewBox="0 0 257 229" fill="none" xmlns="http://www.w3.org/2000/svg">
<path fill-rule="evenodd" clip-rule="evenodd" d="M256.6 128.625C256.6 168.866 238.038 204.727 209.008 228.189L200.098 184.384C217.472 165.822 225.936 145.256 228.98 137.534C231.504 139.91 233.212 143.103 233.732 146.815C234.771 144.811 235.291 142.435 234.994 140.059C234.252 133.599 228.163 128.848 221.481 129.59C218.363 129.887 215.69 131.298 213.685 133.377C214.329 133.228 214.972 133.104 215.616 133.005C218.586 132.708 221.407 133.154 223.931 134.268C218.66 143.994 199.282 174.732 157.704 186.24C138.549 191.511 118.057 191.511 98.9012 186.24C57.3235 174.732 37.9453 143.994 32.6738 134.268C35.1982 133.154 38.0196 132.708 40.9894 133.005C41.6329 133.104 42.2763 133.228 42.9198 133.377C40.9894 131.298 38.2423 129.887 35.1982 129.59C28.4418 128.848 22.3537 133.599 21.6112 140.059C21.3142 142.435 21.8339 144.811 22.8734 146.815C23.3931 143.103 25.1008 139.91 27.6251 137.534C30.6692 145.33 39.2817 166.193 56.9523 184.903L48.1913 228.189C19.1611 204.727 0.599609 168.866 0.599609 128.625C0.599609 57.9428 57.9175 0.699219 128.6 0.699219C199.282 0.699219 256.6 57.9428 256.6 128.625ZM96.6738 88.0124H108.405C108.405 72.7178 117.463 60.3187 128.6 60.3187C139.736 60.3187 148.795 72.7178 148.795 88.0124H160.525C160.525 66.2584 146.196 48.5879 128.6 48.5879C111.003 48.5879 96.6738 66.2584 96.6738 88.0124ZM195.198 157.135L182.502 94.4718H74.697L61.9268 157.507C71.5787 165.525 84.2005 173.098 100.46 177.627C109.518 180.152 118.873 181.414 128.303 181.414C137.732 181.414 147.087 180.152 156.145 177.627C172.702 173.024 185.472 165.302 195.198 157.135Z" fill="url(#paint0_linear_35_43)"/>
<defs>
<linearGradient id="paint0_linear_35_43" x1="133.896" y1="-133.491" x2="360.836" y2="184.224" gradientUnits="userSpaceOnUse">
<stop stop-color="#FFB83D"/>
<stop offset="1" stop-color="#1200FC"/>
</linearGradient>
</defs>
</svg>
