<svg width="219" height="257" viewBox="0 0 219 257" fill="none" xmlns="http://www.w3.org/2000/svg">
<path d="M39.5913 212.238C17.2466 189.893 4.99671 160.289 4.99671 128.643C4.99671 125.468 5.11019 122.292 5.33704 119.116C2.388 128.984 0.800049 139.305 0.800049 149.967C0.800049 178.437 11.9157 205.319 32.1053 225.508C52.2949 245.584 79.0632 256.7 107.646 256.7C129.424 256.7 150.294 250.235 167.875 238.098C153.81 243.883 138.725 246.832 123.072 246.832C91.5399 246.832 61.8226 234.582 39.5913 212.238Z" fill="#5365A6"/>
<path d="M99.3662 93.5953C98.9881 94.7296 98.6479 95.8638 98.3455 96.9981C115.019 94.1624 132.827 99.0397 145.644 111.857L145.984 112.197L156.306 101.875L153.016 98.6994C138.498 84.1811 115.813 82.4797 99.3662 93.5953Z" fill="#5365A6"/>
<path d="M54.4499 191.594C31.9918 169.136 19.6285 139.192 19.6285 107.433C19.6285 106.828 19.6285 106.223 19.6285 105.618C18.0406 113.104 17.1331 120.817 17.1331 128.643C17.1331 157 28.1354 183.655 48.2116 203.617C68.1743 223.694 94.8292 234.696 123.072 234.696C142.241 234.696 160.616 229.592 176.722 220.177C164.586 224.261 151.769 226.416 138.611 226.416C106.852 226.416 76.9081 214.052 54.4499 191.594Z" fill="#5365A6"/>
<path d="M170.597 80.6649L167.988 77.9427C152.789 62.8572 128.63 61.8364 112.297 75.2205C129.537 71.8178 148.026 76.695 161.41 89.8523L170.597 80.6649Z" fill="#5365A6"/>
<path d="M199.407 160.176L205.418 166.187L201.335 170.157C201.108 170.459 200.844 170.724 200.541 170.951C197.365 174.051 194.038 176.887 190.56 179.458C188.896 180.668 187.157 181.802 185.342 182.861C183.603 183.995 181.788 185.053 179.898 186.037C175.21 188.456 170.37 190.46 165.38 192.048C163.414 192.653 161.447 193.22 159.481 193.749C157.44 194.203 155.36 194.619 153.243 194.997C148.479 195.753 143.602 196.169 138.611 196.245C137.477 196.169 136.381 196.131 135.322 196.131C131.844 195.98 128.441 195.678 125.114 195.224C121.257 194.619 117.514 193.787 113.885 192.729C99.5931 188.532 86.5492 180.932 75.8873 170.157C71.804 166.074 68.1744 161.764 65.1119 157.113C62.919 153.862 60.9531 150.535 59.2139 147.132C57.7015 144.107 56.3783 141.007 55.244 137.831C44.5821 108.34 49.913 74.313 71.4637 49.4729C72.8248 47.8093 74.2993 46.2214 75.8873 44.7091C76.8703 43.6504 77.929 42.6296 79.0632 41.6466C82.0123 38.9244 85.1503 36.429 88.4774 34.1605C94.8292 29.737 101.748 26.2208 109.121 23.7255C118.422 20.4361 128.403 18.7348 138.611 18.7348C141.031 18.7348 143.451 18.8104 145.87 18.9616C166.4 20.663 185.569 29.2833 200.541 43.9151C200.844 44.1419 201.108 44.4066 201.335 44.7091L205.418 48.6789L207.8 46.297L218.122 35.9753L214.152 31.892C193.963 11.8158 167.081 0.700195 138.611 0.700195C116.72 0.700195 95.9635 7.16543 78.2692 19.3019C72.9382 23.0449 67.8341 27.2416 63.0702 31.892C61.2554 33.7825 59.5163 35.6729 57.8527 37.5633C55.1305 40.8148 52.5974 44.1419 50.2533 47.5447C47.9848 50.7962 45.9431 54.1611 44.1283 57.6395C43.9771 57.942 43.8258 58.2444 43.6746 58.5469C42.0866 61.5716 40.6878 64.634 39.4779 67.7343C24.1656 106.185 31.9918 151.896 63.0702 182.974C83.2598 203.164 110.028 214.166 138.611 214.166C148.82 214.166 158.801 212.805 168.329 210.083C170.219 209.478 172.109 208.873 174 208.268C175.815 207.587 177.629 206.869 179.444 206.113C184.208 204.222 188.783 201.954 193.169 199.307C194.983 198.249 196.723 197.114 198.386 195.904C200.125 194.77 201.789 193.56 203.377 192.275C207.158 189.401 210.75 186.301 214.152 182.974L218.122 178.891L199.407 160.176Z" fill="#5365A6"/>
<path d="M179.217 72.0442L180.692 73.4053V73.5187L181.372 72.7247L185.116 68.9817L188.858 65.2387L198.613 55.4841L193.395 60.7017L192.034 59.3406L189.426 56.6184C189.123 56.3915 188.821 56.1269 188.518 55.8244C175.021 42.7805 157.44 35.6348 138.611 35.6348C137.25 35.6348 135.927 35.6726 134.641 35.7482C129.197 36.0885 123.753 36.9959 118.648 38.4704C114.414 39.6803 110.331 41.2682 106.399 43.2342C99.5931 46.637 93.3547 51.174 87.7969 56.6184C72.0308 72.4979 65.112 93.8217 67.1536 114.579C67.4561 116.923 67.8342 119.305 68.2879 121.724C68.4391 122.48 68.5902 123.237 68.7415 123.993C69.1195 125.581 69.5733 127.131 70.1026 128.643C71.804 134.314 74.2994 139.872 77.4753 145.09C80.3109 149.74 83.827 154.164 87.7969 158.247C97.2112 167.548 108.667 174.013 121.257 177.076C126.815 178.55 132.713 179.231 138.611 179.231C138.914 179.231 139.178 179.231 139.405 179.231C141.069 179.231 142.732 179.155 144.396 179.004C146.74 178.777 149.046 178.475 151.315 178.096C156.873 177.076 162.204 175.488 167.194 173.333C169.16 172.425 171.089 171.48 172.979 170.497C174.794 169.514 176.609 168.418 178.423 167.208C181.977 164.788 185.342 162.066 188.518 159.041C188.821 158.739 189.123 158.474 189.426 158.247L193.395 154.164L190.56 151.215L180.692 141.46L176.609 145.43C173.206 148.946 169.349 151.782 165.266 154.164C161.183 156.432 156.759 158.247 152.222 159.495C147.799 160.629 143.262 161.196 138.611 161.196C124.206 161.196 110.709 155.638 100.614 145.43C91.54 136.47 86.4357 124.9 85.1881 113.104C85.0368 112.197 84.9613 111.251 84.9613 110.268C84.8857 109.21 84.8479 108.189 84.8479 107.206C84.8479 105.164 84.9991 103.123 85.3016 101.081C85.3772 100.022 85.5283 98.9637 85.7552 97.905C86.4357 93.7083 87.6835 89.7384 89.3849 85.7686C91.9936 79.8705 95.7367 74.3127 100.614 69.4354C110.709 59.2271 124.206 53.6693 138.611 53.6693C153.016 53.6693 166.514 59.2271 176.609 69.4354L179.217 72.0442Z" fill="#5365A6"/>
</svg>
