<svg width="168" height="257" viewBox="0 0 168 257" fill="none" xmlns="http://www.w3.org/2000/svg">
<path fill-rule="evenodd" clip-rule="evenodd" d="M165.853 161.904C167.302 163.275 164.874 168.093 160.487 172.636C156.1 177.141 151.361 179.687 149.912 178.277C148.463 176.906 150.891 172.088 155.278 167.584C159.704 163.04 164.443 160.494 165.853 161.904ZM164.13 163.628C162.994 162.492 159.273 164.529 155.787 168.093C152.301 171.696 150.382 175.456 151.518 176.592C152.654 177.689 156.414 175.691 159.9 172.088C163.386 168.524 165.266 164.725 164.13 163.628Z" fill="#1F1F1F" stroke="#1F1F1F" stroke-width="2" stroke-linecap="round" stroke-linejoin="round"/>
<path d="M43.8468 192.69C37.4625 186.972 32.6057 179.843 29.6681 172.48C26.7697 165.116 25.3205 156.969 26.6914 149.175C29.0806 135.466 39.695 124.499 51.4453 116.979C63.1564 109.459 76.3168 104.406 88.1454 97.0037C96.1356 91.9902 103.695 85.4492 108.591 77.4982L109.962 69.4297" stroke="#1F1F1F" stroke-width="2" stroke-linecap="round" stroke-linejoin="round"/>
<path d="M40.3604 195.667C32.096 187.52 24.5366 178.394 20.1499 167.623C15.7239 156.852 14.7839 144.279 19.5624 133.704C25.79 119.956 40.1645 112.083 54.2257 106.913C68.2869 101.743 83.3272 98.1396 95.195 88.9744C100.874 84.5876 105.809 78.6733 107.141 71.5448C108.473 64.4554 105.3 56.1911 98.681 53.4102" stroke="#1F1F1F" stroke-width="2" stroke-linecap="round" stroke-linejoin="round"/>
<path d="M49.0164 194.142C39.7337 187.64 33.1143 177.417 30.9993 166.254C28.8842 155.092 31.2734 143.185 37.5403 133.706C43.9638 123.992 53.9123 117.256 64.0567 111.576C74.2012 105.897 84.8939 101.04 94.0983 93.9509C103.342 86.8616 109.883 80.0856 109.374 65.6719" stroke="#1F1F1F" stroke-width="2" stroke-linecap="round" stroke-linejoin="round"/>
<path d="M84.699 52.8229C90.2217 51.1779 96.4885 52.1962 101.267 55.4863C106.006 58.7372 109.179 64.2599 109.61 70.0175C110.393 79.8486 103.695 88.7005 96.2535 95.1631C85.9132 104.133 73.5363 110.438 62.6085 118.664C51.6416 126.85 41.6538 137.817 39.3821 151.329C37.032 165.116 43.338 179.295 52.7383 189.635C62.1777 199.976 74.5155 207.183 86.6966 214.076L161.859 198.722C141.14 187.716 127.705 164.176 128.802 140.715C129.389 127.829 133.972 115.334 134.246 102.409C134.481 90.463 130.838 78.4385 123.984 68.6075C119.637 62.3407 113.918 56.8572 106.985 53.7238C100.014 50.5512 91.7492 49.9245 84.699 52.8229Z" fill="#1F1F1F"/>
<path d="M161.428 195.239C146.897 185.564 137.105 169.623 133.071 152.624C130.172 140.326 130.094 127.518 131.974 115.023" stroke="#1F1F1F" stroke-width="2" stroke-linecap="round" stroke-linejoin="round"/>
<path d="M88.1062 202.015C79.9593 197.275 71.8908 192.066 65.5456 185.094C59.1613 178.083 54.657 169.036 54.7354 159.557C54.8137 150.039 59.553 141.07 65.859 133.941C72.165 126.813 79.9985 121.251 87.6362 115.572C95.2347 109.853 102.833 103.861 108.395 96.1446C113.957 88.4285 117.325 78.6758 115.524 69.3147C114.192 62.5387 109.727 56.1936 103.538 53.0602C99.8565 51.1801 95.8614 50.8668 91.788 51.0235" stroke="#F2F2F2" stroke-width="2" stroke-linecap="round" stroke-linejoin="round"/>
<path d="M86.5008 195.002C81.1349 190.693 76.0431 185.954 72.1263 180.314C68.2096 174.634 65.5462 167.976 65.3895 161.082C65.1545 150.194 71.1471 140.049 78.5498 132.059C85.9525 124.069 94.8435 117.567 102.325 109.655C109.453 102.096 115.446 92.9307 116.856 82.6296C118.266 72.3286 115.015 60.8133 106.241 54.7031" stroke="#F2F2F2" stroke-width="2" stroke-linecap="round" stroke-linejoin="round"/>
<path d="M126.647 195.316C111.607 188.031 101.776 171.15 102.834 154.464C104.322 131.864 123.357 113.181 124.297 90.5426C124.846 77.1864 118.422 63.7519 107.651 55.7617" stroke="#F2F2F2" stroke-width="2" stroke-linecap="round" stroke-linejoin="round"/>
<path d="M165.54 188.969C165.54 190.301 165.5 191.632 165.422 192.964C165.396 193.539 165.357 194.1 165.304 194.648C165.252 195.432 165.174 196.202 165.069 196.959C165.017 197.508 164.952 198.056 164.874 198.604C160.174 231.27 132.051 256.337 98.0929 256.298C64.252 256.259 36.2472 231.27 31.4687 198.761C31.3904 198.187 31.312 197.612 31.2337 197.038C31.1293 196.15 31.0379 195.249 30.9595 194.335C30.9073 193.813 30.8681 193.277 30.842 192.729C30.7637 191.45 30.7376 190.157 30.7637 188.852L165.54 188.969Z" fill="#F23839"/>
<path d="M116.346 256.3H79.959C77.9223 256.3 76.3164 254.655 76.3164 252.618V251.561C76.3164 249.524 77.9615 247.918 79.959 247.918H116.346C118.382 247.918 119.988 249.563 119.988 251.6V252.657C119.988 254.694 118.343 256.339 116.346 256.3Z" fill="#F23839"/>
<path d="M86.8125 58.5039L120.849 0.300781L123.552 1.94582L87.6742 59.0522L86.8125 58.5039Z" fill="#1F1F1F"/>
<path d="M30.7656 188.852L165.541 188.969" stroke="#F2F2F2" stroke-width="4" stroke-linecap="round" stroke-linejoin="round"/>
<path d="M165.424 192.965C165.398 193.54 165.358 194.101 165.306 194.65C164.915 194.767 164.601 194.924 164.249 195.081C163.74 195.355 163.152 195.668 162.329 195.825C161.899 195.903 161.389 195.981 160.802 195.981C159.039 195.981 158.139 195.511 157.316 195.081C156.572 194.728 155.945 194.376 154.574 194.376C153.203 194.376 152.538 194.728 151.793 195.081C151.01 195.472 150.07 195.942 148.347 195.942C146.584 195.942 145.683 195.472 144.861 195.081C144.117 194.689 143.49 194.376 142.119 194.376C140.748 194.376 140.082 194.689 139.338 195.081C138.555 195.472 137.615 195.942 135.891 195.942C134.129 195.942 133.228 195.472 132.445 195.081C131.7 194.689 131.035 194.376 129.664 194.376C128.293 194.376 127.666 194.689 126.922 195.081C126.099 195.472 125.199 195.942 123.436 195.942C121.713 195.942 120.812 195.472 119.989 195.081C119.245 194.689 118.618 194.376 117.208 194.336C115.877 194.376 115.211 194.689 114.467 195.041C113.683 195.472 112.743 195.903 111.02 195.903C109.257 195.903 108.356 195.472 107.534 195.041C106.79 194.689 106.163 194.336 104.792 194.336C103.421 194.336 102.795 194.689 102.011 195.041C101.228 195.433 100.327 195.903 98.5646 195.903C96.8412 195.903 95.9012 195.433 95.1178 195.041C94.3737 194.65 93.7078 194.336 92.3369 194.336C90.9661 194.336 90.3394 194.65 89.5952 195.041C88.7727 195.433 87.8718 195.903 86.1093 195.903C84.3859 195.903 83.485 195.433 82.6625 195.041C81.9183 194.65 81.2525 194.336 79.9208 194.336C78.5108 194.336 77.8841 194.65 77.1399 195.041C76.3565 195.433 75.4165 195.903 73.6931 195.903C71.9306 195.903 71.0297 195.433 70.2072 195.002C69.463 194.65 68.8363 194.336 67.4655 194.297C66.0946 194.297 65.4679 194.65 64.6846 195.002C63.9012 195.433 63.0004 195.864 61.2378 195.864C59.5145 195.864 58.5744 195.394 57.7911 195.002C57.0469 194.611 56.381 194.297 55.0102 194.297C53.6393 194.297 53.0126 194.611 52.2684 195.002C51.4459 195.394 50.5451 195.864 48.8217 195.864C47.0592 195.864 46.1583 195.394 45.3358 195.002C44.5916 194.611 43.9649 194.297 42.594 194.297C41.2232 194.297 40.5573 194.611 39.8131 195.002C39.0298 195.394 38.1289 195.864 36.3664 195.864C34.643 195.864 33.703 195.394 32.9196 195.002C32.3321 194.689 31.8229 194.454 30.9613 194.336C30.909 193.814 30.8699 193.279 30.8438 192.73C32.1363 192.848 32.9196 193.24 33.6247 193.592C34.3688 193.945 34.9955 194.297 36.3664 194.297C37.7373 194.297 38.3639 193.984 39.1081 193.592C39.9306 193.2 40.8315 192.73 42.594 192.73C44.3174 192.73 45.2574 193.2 46.0408 193.592C46.785 193.984 47.4508 194.297 48.7825 194.297C50.1926 194.297 50.8192 193.984 51.5634 193.592C52.3468 193.2 53.2868 192.73 55.0102 192.73C56.7727 192.73 57.6736 193.2 58.4961 193.592C59.2403 193.984 59.867 194.297 61.2378 194.297C62.6087 194.297 63.2745 193.984 64.0187 193.592C64.8021 193.2 65.7421 192.73 67.4655 192.73C69.1889 192.73 70.1289 193.2 70.9122 193.631C71.6564 193.984 72.3223 194.336 73.6931 194.336C75.064 194.336 75.6907 193.984 76.4349 193.631C77.2574 193.2 78.1582 192.77 79.9208 192.77C81.6442 192.77 82.545 193.24 83.3675 193.631C84.1117 194.023 84.7384 194.336 86.1093 194.336C87.4801 194.336 88.146 194.023 88.8902 193.631C89.6735 193.24 90.6135 192.77 92.3369 192.77C94.0995 192.77 95.0003 193.24 95.8228 193.631C96.567 194.023 97.1937 194.336 98.5646 194.336C99.9354 194.336 100.562 194.023 101.306 193.631C102.129 193.24 103.03 192.77 104.792 192.77C106.516 192.77 107.456 193.24 108.239 193.671C108.983 194.023 109.649 194.336 111.02 194.336C112.391 194.376 113.017 194.023 113.762 193.671C114.584 193.24 115.485 192.77 117.248 192.77C118.971 192.809 119.872 193.24 120.694 193.671C121.438 194.023 122.065 194.376 123.436 194.376C124.807 194.376 125.473 194.023 126.217 193.671C127 193.24 127.94 192.809 129.664 192.809C131.426 192.809 132.327 193.279 133.15 193.671C133.894 194.062 134.52 194.376 135.891 194.376C137.262 194.376 137.889 194.062 138.672 193.671C139.456 193.279 140.356 192.809 142.119 192.809C143.842 192.809 144.782 193.279 145.566 193.671C146.31 194.062 146.976 194.376 148.347 194.376C149.717 194.376 150.344 194.062 151.088 193.671C151.911 193.279 152.812 192.809 154.574 192.809C156.298 192.809 157.238 193.279 158.021 193.71C158.765 194.062 159.431 194.376 160.802 194.376C162.173 194.376 162.799 194.062 163.544 193.71C164.053 193.435 164.64 193.161 165.424 192.965Z" fill="#F2F2F2"/>
<path d="M165.07 196.961C165.018 197.51 164.953 198.058 164.874 198.606C164.287 198.724 163.856 198.92 163.425 199.155C162.877 199.429 162.328 199.703 161.467 199.899C161.036 199.977 160.566 200.016 159.939 200.016C158.216 200.016 157.315 199.546 156.492 199.155C155.748 198.763 155.082 198.45 153.751 198.45C152.341 198.45 151.714 198.763 150.97 199.155C150.147 199.546 149.246 200.016 147.523 200.016C145.761 200.016 144.86 199.546 144.037 199.155C143.293 198.763 142.666 198.45 141.295 198.45C139.925 198.45 139.259 198.763 138.515 199.155C137.731 199.546 136.791 200.016 135.068 200.016C133.305 200.016 132.404 199.546 131.582 199.155C130.838 198.763 130.211 198.45 128.84 198.45C127.469 198.45 126.843 198.763 126.059 199.116C125.276 199.546 124.375 200.016 122.612 199.977C120.889 199.977 119.949 199.546 119.166 199.116C118.422 198.763 117.756 198.411 116.385 198.411C115.014 198.411 114.387 198.763 113.643 199.116C112.821 199.507 111.92 199.977 110.157 199.977C108.434 199.977 107.533 199.507 106.71 199.116C105.966 198.724 105.34 198.411 103.969 198.411C102.598 198.411 101.932 198.724 101.188 199.116C100.404 199.507 99.4644 199.977 97.741 199.977C95.9785 199.977 95.0776 199.507 94.2551 199.116C93.5109 198.724 92.8842 198.411 91.5134 198.411C90.1425 198.411 89.5158 198.724 88.7325 199.116C87.9491 199.507 87.0482 199.977 85.2857 199.977C83.5623 199.977 82.6223 199.507 81.839 199.076C81.0948 198.724 80.4289 198.371 79.0581 198.411C77.6872 198.371 77.0605 198.724 76.3163 199.076C75.4938 199.507 74.5929 199.938 72.8304 199.938C71.107 199.938 70.2062 199.507 69.3837 199.076C68.6395 198.724 68.0128 198.371 66.6419 198.371C65.2711 198.371 64.6052 198.724 63.861 199.076C63.0777 199.468 62.1376 199.938 60.4143 199.938C58.6517 199.938 57.7509 199.468 56.9675 199.076C56.1842 198.685 55.5575 198.371 54.1866 198.371C52.8157 198.371 52.1891 198.685 51.4449 199.076C50.6224 199.468 49.7215 199.938 47.959 199.938C46.2356 199.938 45.3347 199.468 44.5122 199.076C43.768 198.685 43.1022 198.371 41.7705 198.371C40.3996 198.371 39.7338 198.685 38.9896 199.037C38.2062 199.468 37.2662 199.938 35.5428 199.938C33.7803 199.938 32.8794 199.468 32.0569 199.037C31.8741 198.933 31.6783 198.841 31.4694 198.763C31.391 198.189 31.3127 197.614 31.2344 197.04C31.8611 197.196 32.3311 197.431 32.8011 197.666C33.5061 198.019 34.1719 198.332 35.5428 198.371C36.9137 198.371 37.5404 198.019 38.2845 197.666C39.1071 197.236 40.0079 196.805 41.7705 196.805C43.4939 196.805 44.3947 197.275 45.2172 197.666C45.9614 198.058 46.5881 198.371 47.959 198.371C49.3298 198.371 49.9957 198.058 50.7399 197.666C51.5232 197.275 52.4632 196.805 54.1866 196.805C55.9492 196.805 56.85 197.275 57.6334 197.666C58.4167 198.058 59.0434 198.371 60.4143 198.371C61.7851 198.371 62.4118 198.058 63.156 197.666C63.9785 197.275 64.8794 196.805 66.6419 196.805C68.3653 196.805 69.3053 197.275 70.0887 197.666C70.8329 198.058 71.4987 198.371 72.8304 198.371C74.2013 198.371 74.8671 198.058 75.6113 197.706C76.4338 197.275 77.3347 196.844 79.0581 196.844C80.8206 196.844 81.7214 197.275 82.544 197.706C83.2882 198.058 83.9148 198.411 85.2857 198.411C86.6566 198.411 87.3224 198.058 88.0666 197.706C88.85 197.314 89.79 196.844 91.5134 196.844C93.2759 196.844 94.1768 197.314 94.9601 197.706C95.7043 198.097 96.3701 198.411 97.741 198.411C99.1119 198.411 99.7386 198.097 100.483 197.706C101.305 197.314 102.206 196.844 103.969 196.844C105.692 196.844 106.632 197.314 107.415 197.706C108.16 198.097 108.786 198.411 110.196 198.411C111.528 198.411 112.194 198.097 112.938 197.706C113.761 197.314 114.661 196.844 116.385 196.844C118.147 196.844 119.048 197.314 119.871 197.745C120.615 198.097 121.242 198.411 122.612 198.411C123.983 198.411 124.649 198.097 125.393 197.745C126.177 197.314 127.078 196.883 128.84 196.883C130.563 196.883 131.504 197.314 132.287 197.745C133.031 198.097 133.697 198.45 135.068 198.45C136.439 198.45 137.065 198.097 137.81 197.745C138.632 197.353 139.533 196.883 141.295 196.883C143.019 196.883 143.92 197.353 144.742 197.745C145.486 198.136 146.152 198.45 147.523 198.45C148.894 198.45 149.521 198.136 150.265 197.745C151.087 197.353 151.988 196.883 153.712 196.883C155.474 196.883 156.375 197.353 157.197 197.745C157.942 198.136 158.568 198.45 159.978 198.45C161.31 198.45 161.976 198.136 162.72 197.745C163.347 197.431 164.013 197.118 165.07 196.961Z" fill="#F2F2F2"/>
<path d="M85.2071 52.6289C78.627 54.6656 72.9477 59.5224 69.8926 65.7109C74.2794 67.4343 78.1569 70.646 81.0945 74.3278C79.0186 66.6117 80.3503 58.9741 85.2071 52.6289Z" fill="#1F1F1F"/>
<path d="M81.0942 74.9551C78.5091 71.43 77.8041 66.7299 78.9008 62.4998C79.9192 58.5047 82.3867 54.9796 85.5985 52.3945" stroke="#F2F2F2" stroke-width="2" stroke-linecap="round" stroke-linejoin="round"/>
<path d="M91.7876 51.0234C83.6016 51.3368 79.4107 56.4286 77.0998 59.0136C74.6714 61.7162 73.3788 65.3196 72.6738 68.8447" stroke="#F2F2F2" stroke-width="2" stroke-linecap="round" stroke-linejoin="round"/>
<path d="M51.9537 89.0544C52.2931 89.8899 52.6065 90.7386 52.8937 91.6003C53.9904 94.6553 55.1263 97.7887 57.398 100.178C60.5314 103.507 65.5448 104.917 69.9708 103.781C72.8692 103.037 75.4934 101.157 77.256 98.7679C78.3135 97.3971 79.1752 95.752 79.4885 94.0678C79.7235 92.8928 79.606 91.6394 78.9793 90.6602C78.3135 89.6419 77.1776 89.0544 76.0418 88.7019C74.4751 88.2318 72.8692 88.1143 71.3808 87.4485C68.2082 86.0776 65.819 83.6101 63.5081 81.1425C61.2364 78.6358 58.9255 75.8549 55.8313 74.3665C54.8129 73.8965 53.7162 73.544 52.6195 73.4265C50.5045 73.1915 47.5277 73.2306 46.0394 74.9932C45.0602 76.1291 45.256 77.6566 45.7652 78.9883C45.8957 79.3277 46.0524 79.6541 46.2352 79.9675C46.9011 81.0642 47.8019 82.0042 48.5853 83.0226C50.0736 84.9026 51.092 86.9393 51.9537 89.0544Z" fill="#1F1F1F"/>
<path d="M57.2037 88.5454C57.6737 89.7204 58.1829 90.8563 58.9271 91.8355C59.6712 92.8538 60.6896 93.6764 61.9038 93.9505C63.118 94.2247 64.4889 93.8722 65.2722 92.893C66.0947 91.8355 66.0556 90.2688 65.4681 89.0546C64.8805 87.8404 63.8622 86.9004 62.8047 86.0387C61.9691 85.3598 61.1204 84.72 60.2588 84.1195C59.6712 83.7278 59.0837 83.3361 58.4179 83.1403C57.752 82.9444 56.9687 82.9836 56.4203 83.4144C55.7153 83.9236 55.7153 84.6286 56.0287 85.3728C56.4203 86.3912 56.812 87.4879 57.2037 88.5454Z" fill="#F2F2F2"/>
<path fill-rule="evenodd" clip-rule="evenodd" d="M34.4072 128.573C32.8405 130.218 27.357 127.477 22.1869 122.463C17.0167 117.411 14.1183 112.045 15.7242 110.4C17.2909 108.754 22.7744 111.496 27.9445 116.51C33.1146 121.562 36.013 126.967 34.4072 128.573ZM32.4488 126.615C33.7021 125.322 31.4304 121.053 27.3178 117.097C23.2444 113.102 18.936 110.948 17.6434 112.24C16.3901 113.533 18.701 117.802 22.7744 121.758C26.887 125.753 31.1954 127.907 32.4488 126.615Z" fill="#1F1F1F" stroke="#1F1F1F" stroke-width="2" stroke-linecap="round" stroke-linejoin="round"/>
<path fill-rule="evenodd" clip-rule="evenodd" d="M74.2014 160.927C72.8305 158.969 76.7081 153.877 82.8574 149.53C88.9676 145.182 95.0777 143.224 96.4486 145.182C97.8194 147.101 93.981 152.232 87.8317 156.58C81.6824 160.927 75.5722 162.886 74.2014 160.927ZM76.5906 159.282C77.6873 160.81 82.5049 159.282 87.3617 155.836C92.2185 152.389 95.2735 148.355 94.1768 146.827C93.1193 145.3 88.2625 146.827 83.4449 150.274C78.549 153.721 75.5331 157.755 76.5906 159.282Z" fill="#F2F2F2" stroke="#F2F2F2" stroke-width="2" stroke-linecap="round" stroke-linejoin="round"/>
<path fill-rule="evenodd" clip-rule="evenodd" d="M115.132 103.86C116.346 102.685 120.341 104.839 124.101 108.716C127.822 112.555 129.859 116.667 128.645 117.842C127.431 119.017 123.396 116.863 119.676 112.986C115.915 109.147 113.918 105.035 115.132 103.86ZM116.542 105.387C115.563 106.288 117.169 109.539 120.146 112.594C123.083 115.649 126.256 117.333 127.235 116.432C128.175 115.492 126.569 112.241 123.631 109.186C120.694 106.131 117.482 104.447 116.542 105.387Z" fill="#F2F2F2" stroke="#F2F2F2" stroke-width="2" stroke-linecap="round" stroke-linejoin="round"/>
<path d="M154.024 138.053L148.502 130.062L140.59 140.794C139.102 142.831 139.532 145.69 141.569 147.218C143.645 148.706 146.504 148.275 148.032 146.239L154.024 138.053Z" fill="#1F1F1F" stroke="#1F1F1F" stroke-width="4" stroke-linecap="round" stroke-linejoin="round"/>
<path d="M153.281 138.678C151.792 139.344 149.677 137.777 148.58 135.192C147.445 132.646 147.719 130.022 149.207 129.396C150.696 128.73 152.811 130.296 153.946 132.842C155.043 135.427 154.769 138.012 153.281 138.678Z" fill="#F2F2F2" stroke="#1F1F1F" stroke-width="4" stroke-linecap="round" stroke-linejoin="round"/>
<path d="M11.3378 148.195L3.34766 153.757L14.0796 161.63C16.1163 163.118 19.0147 162.687 20.5031 160.651C22.0306 158.614 21.5606 155.715 19.5239 154.227L11.3378 148.195Z" fill="#1F1F1F" stroke="#1F1F1F" stroke-width="4" stroke-linecap="round" stroke-linejoin="round"/>
<path d="M11.9641 148.943C12.6299 150.432 11.0632 152.547 8.5173 153.683C5.93223 154.779 3.34717 154.505 2.68132 153.017C2.05464 151.529 3.58218 149.413 6.16724 148.317C8.71314 147.181 11.3374 147.455 11.9641 148.943Z" fill="#F2F2F2" stroke="#1F1F1F" stroke-width="4" stroke-linecap="round" stroke-linejoin="round"/>
<path d="M152.499 116.314C152.499 116.288 152.499 116.275 152.499 116.275C152.499 116.275 152.486 116.275 152.46 116.275C152.46 116.275 152.46 116.262 152.46 116.236C152.434 116.236 152.42 116.236 152.42 116.236C152.42 116.21 152.42 116.197 152.42 116.197C152.42 116.197 152.407 116.197 152.381 116.197C149.757 116.393 149.287 114.238 149.013 113.063C148.987 112.959 148.961 112.868 148.935 112.789C148.935 112.711 148.856 112.711 148.817 112.711C148.778 112.711 148.739 112.75 148.739 112.828C148.739 112.907 148.739 112.998 148.739 113.103C148.856 114.317 149.013 116.51 146.467 117.098C146.441 117.098 146.428 117.111 146.428 117.137C146.428 117.137 146.415 117.137 146.389 117.137C146.389 117.137 146.389 117.15 146.389 117.176C146.389 117.176 146.389 117.189 146.389 117.215C146.389 117.215 146.389 117.228 146.389 117.254C146.389 117.254 146.402 117.254 146.428 117.254C146.428 117.28 146.428 117.294 146.428 117.294C146.454 117.294 146.467 117.294 146.467 117.294C146.493 117.294 146.506 117.294 146.506 117.294C149.091 117.098 149.6 119.291 149.875 120.427C149.901 120.531 149.927 120.636 149.953 120.74C149.953 120.779 149.992 120.819 150.07 120.819C150.11 120.819 150.149 120.74 150.149 120.701C150.149 120.623 150.136 120.518 150.11 120.388C150.031 119.213 149.875 116.98 152.42 116.393C152.447 116.393 152.46 116.393 152.46 116.393C152.46 116.393 152.46 116.38 152.46 116.354C152.486 116.354 152.499 116.34 152.499 116.314Z" fill="#1F1F1F"/>
<path d="M39.2254 105.701C39.2254 105.701 39.2123 105.688 39.1862 105.662C39.1862 105.636 39.1862 105.623 39.1862 105.623C39.1601 105.623 39.147 105.623 39.147 105.623C39.1209 105.623 39.1079 105.623 39.1079 105.623C36.4836 105.819 36.0136 103.625 35.7395 102.489C35.7133 102.385 35.6872 102.28 35.6611 102.176C35.6611 102.137 35.5828 102.098 35.5436 102.098C35.5045 102.098 35.4653 102.176 35.4653 102.215C35.4653 102.32 35.4653 102.424 35.4653 102.528C35.5828 103.704 35.7395 105.936 33.1936 106.524C33.1675 106.524 33.1544 106.524 33.1544 106.524C33.1544 106.55 33.1413 106.563 33.1152 106.563C33.1152 106.563 33.1152 106.576 33.1152 106.602C33.1152 106.602 33.1152 106.615 33.1152 106.641C33.1152 106.641 33.1152 106.654 33.1152 106.68C33.1152 106.68 33.1283 106.68 33.1544 106.68C33.1544 106.68 33.1544 106.693 33.1544 106.719C33.1805 106.719 33.1936 106.719 33.1936 106.719C33.2197 106.719 33.2327 106.719 33.2327 106.719C35.8178 106.524 36.327 108.678 36.6012 109.853C36.6273 109.957 36.6534 110.049 36.6795 110.127C36.6795 110.205 36.7187 110.205 36.7578 110.205C36.7839 110.205 36.797 110.205 36.797 110.205C36.8362 110.205 36.8753 110.166 36.8753 110.088C36.8753 110.01 36.8623 109.918 36.8362 109.814C36.7578 108.599 36.6012 106.406 39.147 105.819C39.147 105.819 39.147 105.806 39.147 105.779C39.1732 105.779 39.1862 105.779 39.1862 105.779C39.1862 105.779 39.1862 105.766 39.1862 105.74C39.1862 105.74 39.1993 105.74 39.2254 105.74C39.2254 105.74 39.2254 105.727 39.2254 105.701Z" fill="#1F1F1F"/>
<path d="M142.001 124.933C142.001 124.933 142.001 124.92 142.001 124.894C142.001 124.894 141.988 124.894 141.962 124.894C141.962 124.868 141.962 124.855 141.962 124.855C141.935 124.855 141.922 124.855 141.922 124.855C141.922 124.855 141.909 124.855 141.883 124.855C139.925 124.972 139.533 123.366 139.337 122.466C139.337 122.387 139.324 122.309 139.298 122.231C139.298 122.191 139.259 122.191 139.22 122.191C139.181 122.191 139.141 122.231 139.141 122.27C139.141 122.348 139.141 122.426 139.141 122.505C139.22 123.406 139.337 125.09 137.418 125.521C137.392 125.521 137.379 125.534 137.379 125.56C137.379 125.56 137.379 125.573 137.379 125.599C137.379 125.625 137.379 125.638 137.379 125.638C137.379 125.638 137.379 125.651 137.379 125.677C137.405 125.677 137.418 125.677 137.418 125.677C137.444 125.677 137.457 125.677 137.457 125.677C139.416 125.521 139.807 127.166 140.003 128.027C140.029 128.132 140.042 128.21 140.042 128.262C140.081 128.302 140.121 128.341 140.16 128.341C140.199 128.341 140.199 128.302 140.199 128.262C140.199 128.184 140.199 128.106 140.199 128.027C140.121 127.127 140.003 125.442 141.922 125.011C141.922 125.011 141.922 124.998 141.922 124.972C141.948 124.972 141.962 124.972 141.962 124.972C141.962 124.972 141.962 124.959 141.962 124.933C141.988 124.933 142.001 124.933 142.001 124.933Z" fill="#1F1F1F"/>
<path d="M93.5495 79.773C93.5495 79.7469 93.5495 79.7338 93.5495 79.7338C93.5234 79.7338 93.5103 79.7338 93.5103 79.7338C93.5103 79.7077 93.5103 79.6946 93.5103 79.6946C93.5103 79.6946 93.4973 79.6946 93.4712 79.6946C93.4712 79.6946 93.4581 79.6946 93.432 79.6946C91.4736 79.8121 91.0819 78.2063 90.8861 77.3054C90.8861 77.2271 90.8731 77.1487 90.8469 77.0704C90.8469 77.0312 90.8078 77.0313 90.7686 77.0313C90.7686 77.0313 90.7556 77.0313 90.7294 77.0313C90.6903 77.0313 90.6903 77.0704 90.6903 77.1096C90.6903 77.1879 90.6903 77.2663 90.6903 77.3446C90.7686 78.2454 90.8861 79.9297 88.9669 80.3605C88.9669 80.3605 88.9538 80.3605 88.9277 80.3605C88.9277 80.3605 88.9277 80.3735 88.9277 80.3997C88.9277 80.4258 88.9277 80.4388 88.9277 80.4388C88.9277 80.4388 88.9277 80.4519 88.9277 80.478C88.9277 80.478 88.9277 80.4911 88.9277 80.5172C88.9277 80.5172 88.9408 80.5172 88.9669 80.5172C88.993 80.5172 89.0061 80.5172 89.0061 80.5172C90.9644 80.3605 91.3561 82.0055 91.552 82.8672C91.5781 82.9717 91.5911 83.05 91.5911 83.1022C91.5911 83.1414 91.6303 83.1806 91.6695 83.1806C91.6695 83.1806 91.6825 83.1806 91.7086 83.1806C91.7478 83.1414 91.7478 83.1414 91.7478 83.1022C91.7478 83.0239 91.7478 82.9456 91.7478 82.8672C91.6695 81.9664 91.552 80.2822 93.4712 79.8513C93.4712 79.8252 93.4712 79.8121 93.4712 79.8121C93.4712 79.8121 93.4842 79.8121 93.5103 79.8121C93.5103 79.8121 93.5103 79.7991 93.5103 79.773C93.5365 79.773 93.5495 79.773 93.5495 79.773Z" fill="#1F1F1F"/>
<path d="M48.7819 169.074C48.7819 169.074 48.7819 169.061 48.7819 169.034C48.7819 169.034 48.7689 169.034 48.7428 169.034C48.7428 169.008 48.7297 168.995 48.7036 168.995C46.7452 169.152 46.3535 167.507 46.1577 166.645C46.1316 166.567 46.1185 166.489 46.1185 166.41C46.0794 166.371 46.0402 166.371 46.001 166.371C45.9619 166.371 45.9227 166.41 45.9619 166.449C45.9619 166.502 45.9619 166.58 45.9619 166.684C46.0402 167.585 46.1577 169.23 44.2385 169.7C44.2385 169.7 44.2254 169.7 44.1993 169.7C44.1993 169.726 44.1993 169.74 44.1993 169.74C44.1993 169.74 44.1863 169.74 44.1602 169.74C44.1602 169.766 44.1602 169.779 44.1602 169.779C44.1602 169.805 44.1732 169.818 44.1993 169.818C44.1993 169.818 44.1993 169.831 44.1993 169.857C44.2254 169.857 44.2385 169.857 44.2385 169.857C46.236 169.7 46.5886 171.345 46.8236 172.207C46.8236 172.285 46.8366 172.364 46.8627 172.442C46.8627 172.481 46.9019 172.52 46.9411 172.52C46.9411 172.52 46.9411 172.507 46.9411 172.481C46.9802 172.481 47.0194 172.442 47.0194 172.403C47.0194 172.351 47.0194 172.285 47.0194 172.207C46.9411 171.306 46.7844 169.622 48.7428 169.152C48.7428 169.152 48.7558 169.152 48.7819 169.152C48.7819 169.126 48.7819 169.113 48.7819 169.113C48.7819 169.113 48.7819 169.1 48.7819 169.074Z" fill="#F2F2F2"/>
<path d="M124.649 180.356C124.649 180.329 124.649 180.316 124.649 180.316C124.623 180.316 124.61 180.303 124.61 180.277C124.584 180.277 124.571 180.277 124.571 180.277C122.612 180.434 122.221 178.789 122.025 177.927C121.999 177.849 121.986 177.77 121.986 177.692C121.947 177.653 121.907 177.614 121.868 177.653C121.829 177.653 121.829 177.692 121.829 177.731C121.829 177.784 121.829 177.862 121.829 177.966C121.907 178.867 122.025 180.512 120.106 180.982C120.08 180.982 120.067 180.982 120.067 180.982C120.067 181.008 120.067 181.021 120.067 181.021C120.04 181.021 120.027 181.021 120.027 181.021C120.027 181.021 120.027 181.034 120.027 181.061C120.053 181.061 120.067 181.074 120.067 181.1C120.093 181.1 120.106 181.113 120.106 181.139C122.103 180.982 122.456 182.627 122.691 183.489C122.691 183.567 122.704 183.646 122.73 183.724C122.73 183.763 122.769 183.763 122.808 183.763C122.847 183.763 122.887 183.724 122.887 183.685C122.887 183.633 122.887 183.554 122.887 183.45C122.808 182.549 122.652 180.904 124.61 180.434C124.636 180.434 124.649 180.434 124.649 180.434C124.649 180.434 124.649 180.421 124.649 180.395C124.649 180.395 124.649 180.382 124.649 180.356Z" fill="#F2F2F2"/>
<path d="M48.3503 97.0464C48.3503 97.0203 48.3503 97.0073 48.3503 97.0073C48.3503 97.0073 48.3503 96.9942 48.3503 96.9681C48.3242 96.9681 48.3111 96.9681 48.3111 96.9681C48.3111 96.9681 48.2981 96.9681 48.272 96.9681C46.2744 97.0856 45.9219 95.4797 45.6869 94.5789C45.6869 94.5005 45.6738 94.4222 45.6477 94.3439C45.6477 94.3047 45.6086 94.3047 45.5694 94.3047C45.5302 94.3047 45.4911 94.3439 45.4911 94.383C45.4911 94.4614 45.5041 94.5397 45.5302 94.618C45.5694 95.5189 45.7261 97.2031 43.7677 97.6339C43.7677 97.6339 43.7546 97.647 43.7285 97.6731C43.7285 97.6992 43.7285 97.7123 43.7285 97.7123C43.7285 97.7123 43.7285 97.7253 43.7285 97.7514C43.7285 97.7514 43.7416 97.7514 43.7677 97.7514C43.7677 97.7776 43.7677 97.7906 43.7677 97.7906C43.7677 97.7906 43.7807 97.7906 43.8068 97.7906C45.7652 97.6339 46.1569 99.279 46.3527 100.141C46.3789 100.245 46.3919 100.323 46.3919 100.376C46.4311 100.415 46.4702 100.454 46.5094 100.454C46.5486 100.415 46.5877 100.415 46.5877 100.376C46.5616 100.297 46.5486 100.219 46.5486 100.141C46.4702 99.2398 46.3527 97.5556 48.272 97.0856C48.272 97.0856 48.285 97.0856 48.3111 97.0856C48.3372 97.0595 48.3503 97.0464 48.3503 97.0464Z" fill="#1F1F1F"/>
<path d="M143.841 106.524C143.841 106.498 143.841 106.485 143.841 106.485C143.841 106.485 143.828 106.485 143.802 106.485C142.588 106.563 142.353 105.584 142.236 105.036C142.236 104.983 142.236 104.944 142.236 104.918C142.209 104.892 142.183 104.879 142.157 104.879C142.131 104.879 142.118 104.892 142.118 104.918C142.118 104.97 142.118 105.023 142.118 105.075C142.157 105.584 142.236 106.602 141.1 106.876C141.1 106.876 141.087 106.876 141.061 106.876C141.061 106.903 141.061 106.916 141.061 106.916C141.061 106.916 141.061 106.929 141.061 106.955C141.061 106.955 141.074 106.955 141.1 106.955C142.314 106.876 142.51 107.856 142.627 108.404C142.653 108.456 142.666 108.495 142.666 108.522C142.693 108.548 142.719 108.561 142.745 108.561C142.771 108.561 142.784 108.548 142.784 108.522C142.784 108.469 142.771 108.417 142.745 108.365C142.706 107.856 142.627 106.837 143.802 106.563C143.802 106.563 143.815 106.563 143.841 106.563C143.841 106.537 143.841 106.524 143.841 106.524Z" fill="#1F1F1F"/>
<path d="M99.8571 69.4693C99.8571 69.4431 99.8571 69.4301 99.8571 69.4301C99.8571 69.4301 99.844 69.417 99.8179 69.3909C98.6429 69.5084 98.4079 68.5292 98.2904 67.9809C98.2642 67.9287 98.2512 67.8895 98.2512 67.8634C98.2512 67.8373 98.2381 67.8242 98.212 67.8242C98.1859 67.8242 98.1729 67.8373 98.1729 67.8634C98.1729 67.9156 98.1729 67.9548 98.1729 67.9809C98.212 68.5292 98.2904 69.5476 97.1153 69.8218C97.1153 69.8218 97.1023 69.8218 97.0762 69.8218C97.0762 69.8479 97.0762 69.8609 97.0762 69.8609C97.0762 69.8609 97.0762 69.874 97.0762 69.9001C97.0762 69.9001 97.0892 69.9001 97.1153 69.9001C97.1153 69.9001 97.1284 69.9001 97.1545 69.9001C98.3295 69.8218 98.5645 70.801 98.682 71.3493C98.682 71.4015 98.6951 71.4407 98.7212 71.4668C98.7212 71.4929 98.7343 71.506 98.7604 71.506C98.7865 71.506 98.7995 71.4929 98.7995 71.4668C98.7995 71.4146 98.7995 71.3624 98.7995 71.3101C98.7604 70.7618 98.682 69.7826 99.8179 69.5084C99.8179 69.5084 99.831 69.5084 99.8571 69.5084C99.8571 69.5084 99.8571 69.4954 99.8571 69.4693Z" fill="#1F1F1F"/>
<path d="M51.7204 158.344C51.7204 158.344 51.7204 158.331 51.7204 158.305C51.6942 158.305 51.6812 158.305 51.6812 158.305C50.467 158.383 50.2712 157.404 50.1145 156.856C50.1145 156.804 50.1145 156.765 50.1145 156.738C50.0884 156.712 50.0623 156.699 50.0361 156.699C50.01 156.699 49.997 156.712 49.997 156.738C49.997 156.791 49.997 156.843 49.997 156.895C50.0753 157.443 50.1537 158.423 48.9786 158.697C48.9786 158.697 48.9656 158.71 48.9395 158.736C48.9395 158.762 48.9395 158.775 48.9395 158.775C48.9395 158.801 48.9525 158.814 48.9786 158.814C50.1928 158.697 50.3887 159.715 50.5062 160.224C50.5323 160.277 50.5453 160.329 50.5453 160.381C50.5714 160.407 50.5975 160.407 50.6237 160.381C50.6498 160.381 50.6628 160.368 50.6628 160.342C50.6628 160.316 50.6498 160.277 50.6237 160.224C50.5845 159.676 50.5062 158.658 51.6812 158.383C51.7073 158.383 51.7204 158.383 51.7204 158.383C51.7204 158.357 51.7204 158.344 51.7204 158.344Z" fill="#F2F2F2"/>
<path d="M131.857 171.543C131.857 171.517 131.844 171.504 131.818 171.504C131.818 171.504 131.805 171.504 131.779 171.504C130.604 171.583 130.369 170.603 130.251 170.055C130.251 170.003 130.238 169.964 130.212 169.938C130.212 169.911 130.199 169.898 130.173 169.898C130.147 169.898 130.134 169.911 130.134 169.938C130.134 169.99 130.134 170.042 130.134 170.094C130.173 170.603 130.251 171.622 129.076 171.896C129.076 171.896 129.076 171.909 129.076 171.935C129.076 171.961 129.076 171.974 129.076 171.974C129.076 171.974 129.089 171.974 129.115 171.974C130.29 171.896 130.525 172.875 130.643 173.424C130.643 173.476 130.656 173.515 130.682 173.541C130.682 173.567 130.695 173.58 130.721 173.58C130.747 173.58 130.76 173.567 130.76 173.541C130.76 173.489 130.76 173.437 130.76 173.384C130.721 172.875 130.643 171.857 131.818 171.583C131.818 171.583 131.818 171.57 131.818 171.543C131.818 171.543 131.831 171.543 131.857 171.543Z" fill="#F2F2F2"/>
<path d="M119.48 168.094C119.48 168.068 119.48 168.055 119.48 168.055C119.48 168.055 119.467 168.042 119.441 168.016C118.227 168.133 118.031 167.115 117.913 166.606C117.887 166.554 117.874 166.501 117.874 166.449C117.848 166.423 117.822 166.423 117.796 166.449C117.77 166.449 117.757 166.462 117.757 166.488C117.757 166.515 117.77 166.554 117.796 166.606C117.835 167.154 117.913 168.173 116.738 168.447C116.738 168.447 116.725 168.447 116.699 168.447C116.699 168.447 116.699 168.46 116.699 168.486C116.699 168.512 116.699 168.525 116.699 168.525C116.699 168.525 116.712 168.525 116.738 168.525C117.953 168.447 118.188 169.426 118.305 169.974C118.305 170.027 118.305 170.066 118.305 170.092C118.331 170.118 118.357 170.131 118.383 170.131C118.41 170.131 118.423 170.118 118.423 170.092C118.423 170.04 118.423 169.987 118.423 169.935C118.383 169.387 118.305 168.408 119.441 168.133C119.441 168.133 119.454 168.133 119.48 168.133C119.48 168.107 119.48 168.094 119.48 168.094Z" fill="#F2F2F2"/>
<path d="M37.1482 92.0708C37.1221 92.0708 37.109 92.0708 37.109 92.0708C37.109 92.0447 37.109 92.0317 37.109 92.0317C37.109 92.0317 37.096 92.0317 37.0699 92.0317C35.8948 92.11 35.6598 91.1308 35.5423 90.6216C35.5423 90.5694 35.5293 90.5172 35.5032 90.465C35.5032 90.4388 35.4901 90.4258 35.464 90.4258C35.4379 90.4258 35.4248 90.4388 35.4248 90.465C35.4248 90.5172 35.4248 90.5694 35.4248 90.6216C35.464 91.17 35.5423 92.1883 34.3673 92.4233C34.3673 92.4494 34.3673 92.4625 34.3673 92.4625C34.3673 92.4625 34.3542 92.4625 34.3281 92.4625C34.3281 92.4625 34.3281 92.4756 34.3281 92.5017C34.3281 92.5017 34.3412 92.5017 34.3673 92.5017C34.3673 92.5278 34.3673 92.5408 34.3673 92.5408C34.3673 92.5408 34.3803 92.5408 34.4065 92.5408C35.5815 92.4625 35.8165 93.4417 35.934 93.9509C35.934 94.0031 35.947 94.0553 35.9732 94.1075C35.9732 94.1336 35.9862 94.1467 36.0123 94.1467C36.0384 94.1206 36.0515 94.0945 36.0515 94.0684C36.0515 94.0423 36.0515 94.0031 36.0515 93.9509C36.0123 93.4025 35.934 92.3842 37.109 92.11C37.109 92.11 37.109 92.0969 37.109 92.0708C37.1351 92.0708 37.1482 92.0708 37.1482 92.0708Z" fill="#1F1F1F"/>
<path d="M85.4434 56.8583L131.7 7.78125L133.933 9.97464L86.1875 57.5633L85.4434 56.8583Z" fill="#1F1F1F"/>
<path d="M48.4687 221.442C47.7636 220.15 47.0195 218.74 45.5703 218.231C44.7086 217.917 43.7294 218.113 43.2202 218.818C42.5544 219.719 42.946 220.816 43.3769 221.716C47.372 229.902 54.6572 235.856 62.099 241.144C62.7649 241.614 63.744 241.261 63.9399 240.439C64.0574 239.969 63.9007 239.499 63.509 239.185C57.3597 234.407 52.1896 228.336 48.4687 221.442Z" fill="#F2F2F2"/>
<path d="M68.0524 244.823C68.2874 244.862 68.5225 244.862 68.7183 244.823C68.9533 244.744 69.1491 244.588 69.2275 244.392C69.345 244.078 69.1883 243.765 69.0316 243.491C68.6008 242.825 67.9741 242.198 67.2691 241.807C66.9557 241.572 66.5641 241.415 66.1724 241.415C65.0757 241.376 64.8407 242.512 65.4282 243.256C66.0549 244.118 67.0341 244.705 68.0524 244.823Z" fill="#F2F2F2"/>
</svg>
