<svg width="237" height="256" viewBox="0 0 237 256" fill="none" xmlns="http://www.w3.org/2000/svg">
<path d="M85.749 92.5957C85.749 92.5957 47.2367 90.0351 58.9942 49.8507C58.9942 49.8507 63.3314 69.0285 70.1246 73.3134C75.3501 76.5532 67.7209 70.4394 76.6043 62.392C85.5399 54.397 79.3216 48.9102 79.3216 48.9102C79.3216 48.9102 90.7132 54.5537 83.711 64.639C71.5878 82.1968 82.3524 88.8333 85.749 92.5957Z" fill="url(#paint0_linear_35_39)"/>
<path d="M194.594 58.6299C194.594 58.6299 183.15 44.0506 199.454 32.5022C211.525 23.9845 213.145 17.6094 213.145 17.6094C213.145 17.6094 219.363 26.3883 208.285 34.9059C197.155 43.4235 191.616 50.3735 194.594 58.6299Z" fill="url(#paint1_linear_35_39)"/>
<path d="M184.091 135.394C198.775 138.895 208.181 113.499 201.858 94.8435C194.228 72.2692 218.527 57.1674 218.527 57.1674C195.169 57.7422 182.732 85.6988 182.732 85.6988C188.271 49.7471 173.065 43.1107 151.327 36.631C129.588 30.1514 135.755 0 135.755 0C135.755 0 119.503 30.7262 140.458 43.1107C161.412 55.4952 151.483 77.3902 133.978 80.0553C116.525 82.7725 123.265 44.1558 123.265 44.1558C98.9145 62.6542 129.223 95.5229 119.033 99.3375C108.059 103.466 106.91 94.5823 107.589 78.5921C108.373 61.5046 90.0311 64.2219 90.0311 64.2219C90.0311 64.2219 111.769 68.8204 92.8529 98.5014C72.421 130.638 117.152 150.287 117.152 150.287C117.152 150.287 109.104 139.835 108.791 130.691C108.791 130.691 119.503 144.538 139.674 142.03C159.844 139.522 125.983 116.686 146.467 102.159C166.951 87.6323 162.666 72.0079 162.666 72.0079C162.666 72.0079 177.611 81.3616 167.421 94.0597C157.179 106.81 148.348 119.142 160.576 125.831C168.414 130.116 180.172 112.14 180.172 112.14C180.172 112.14 173.117 132.781 184.091 135.394Z" fill="url(#paint2_linear_35_39)"/>
<path style="mix-blend-mode:multiply" d="M92.8529 98.5022C72.421 130.639 117.152 150.287 117.152 150.287C117.152 150.287 109.104 139.836 108.791 130.692C108.791 130.692 119.503 144.539 139.674 142.031C159.844 139.523 125.983 116.687 146.467 102.16C166.951 87.6331 162.666 72.0087 162.666 72.0087C162.927 88.2079 152.738 91.3432 133.978 98.2409C115.218 105.191 138.733 127.452 127.394 129.594C116.107 131.789 103.879 113.186 103.879 113.186C99.1758 117.575 100.639 128.131 100.639 128.131C96.2495 123.428 91.3374 114.858 102.259 91.3432C113.18 67.8283 90.0311 64.2227 90.0311 64.2227C90.0311 64.2227 111.769 68.8211 92.8529 98.5022Z" fill="url(#paint3_linear_35_39)"/>
<path style="mix-blend-mode:multiply" d="M151.276 41.2295C177.927 51.7851 183.205 77.8605 175.366 99.5465C175.366 99.5465 179.547 97.195 182.995 93.1714C182.995 93.1714 183.361 104.929 180.174 112.14C180.174 112.14 173.119 132.781 184.093 135.394C190.573 136.961 196.059 132.833 199.56 126.145C194.335 120.031 187.124 108.43 189.736 92.9623C193.447 71.4331 203.689 59.5189 218.529 57.1674C195.171 57.7422 182.734 85.6988 182.734 85.6988C188.273 49.7471 173.067 43.1107 151.329 36.631C129.59 30.1514 135.757 0 135.757 0C135.757 0 124.679 30.6217 151.276 41.2295Z" fill="url(#paint4_linear_35_39)"/>
<path d="M236.191 154.884C236.191 162.2 235.512 169.307 234.258 176.256C217.223 238.231 151.903 255.998 151.903 255.998L166.535 234.155C149.709 246.54 131.628 252.497 114.018 254.587C55.022 261.694 1.66923 217.329 0.153821 157.915C0.118984 156.905 0.101562 155.894 0.101562 154.884C0.101562 154.64 0.101562 154.379 0.101562 154.1C0.415095 154.727 0.746042 155.337 1.09441 155.929C22.6759 193.24 63.017 218.322 109.211 218.322C168.886 218.322 218.738 176.466 231.123 120.5C234.415 131.421 236.191 142.97 236.191 154.884Z" fill="url(#paint5_linear_35_39)"/>
<path style="mix-blend-mode:multiply" d="M114.018 254.587C131.628 252.497 149.709 246.54 166.535 234.155L151.903 255.998C151.903 255.998 217.223 238.231 234.258 176.256C235.512 169.307 236.191 162.2 236.191 154.884C236.191 142.97 234.415 131.421 231.123 120.5C239.693 200.503 181.585 230.393 181.585 230.393L189.893 215.344C43.1077 285.313 0.101562 154.884 0.101562 154.884C0.101562 155.894 0.118984 156.905 0.153821 157.915C1.66923 217.329 55.022 261.694 114.018 254.587Z" fill="url(#paint6_linear_35_39)"/>
<path d="M224.644 94.6347C224.958 93.7986 226.16 94.0599 226.107 94.9482C222.763 156.244 171.971 204.946 109.787 204.946C66.6762 204.946 29.0523 181.483 8.88168 146.681C-5.74983 121.389 12.8008 89.7227 42.0116 89.7227C57.8972 89.7227 72.1107 99.5467 77.702 114.439C86.4809 137.798 103.412 159.431 136.071 159.431C195.695 159.431 218.739 110.52 224.644 94.6347Z" fill="url(#paint7_linear_35_39)"/>
<path style="mix-blend-mode:multiply" d="M226.055 96.2031C226.107 95.2625 224.801 95.0012 224.54 95.8895C217.485 118.882 187.752 197.161 115.378 173.175C53.1944 152.587 65.6311 163.038 77.1796 177.565C86.5333 189.218 52.306 194.495 15.884 129.228C10.6062 119.823 6.68707 120.815 3.81302 126.407C3.55174 133.148 5.11939 140.098 8.88178 146.682C29.0524 181.484 66.6762 204.947 109.787 204.947C171.553 204.947 222.084 156.924 226.055 96.2031Z" fill="url(#paint8_linear_35_39)"/>
<path d="M42.0114 89.7213C41.9766 89.7213 41.9418 89.7213 41.9069 89.7213C35.8453 89.7213 30.7765 85.1229 30.5152 79.0612C29.8882 64.3252 34.2254 49.3802 43.5791 36.9956C44.9377 35.1667 44.6765 32.6585 42.952 31.143L42.8998 31.0908C41.0186 29.5231 38.249 29.7844 36.7336 31.7179C24.4536 47.9693 19.7506 68.0876 22.6247 87.3176C23.2518 91.3413 21.6318 95.3649 18.392 97.8732C4.43981 108.951 -1.15153 129.279 8.88151 146.68C8.88151 146.68 30.3062 119.664 77.7019 114.438C72.1105 99.5454 57.8971 89.7213 42.0114 89.7213Z" fill="url(#paint9_linear_35_39)"/>
<g style="mix-blend-mode:multiply" opacity="0.45">
<path d="M20.2209 96.0469C19.6984 96.7262 19.0713 97.3533 18.392 97.8758C4.43981 108.954 -1.15153 129.281 8.88151 146.682C8.88151 146.682 12.3826 142.241 19.6984 136.649C17.2946 133.514 8.41122 119.405 20.2209 96.0469Z" fill="#437C0B"/>
</g>
<g style="mix-blend-mode:overlay" opacity="0.2">
<path d="M54.3942 104.616C54.3942 107.856 51.7814 110.468 48.5416 110.468C45.3017 110.468 42.6367 107.856 42.6367 104.616C42.6367 101.376 45.3017 98.7109 48.5416 98.7109C51.7814 98.7109 54.3942 101.376 54.3942 104.616Z" fill="white"/>
</g>
<g style="mix-blend-mode:overlay" opacity="0.2">
<path d="M61.8162 110.154C61.8162 111.356 60.8233 112.297 59.6737 112.297C58.4719 112.297 57.5312 111.356 57.5312 110.154C57.5312 108.952 58.4719 108.012 59.6737 108.012C60.8233 108.012 61.8162 108.952 61.8162 110.154Z" fill="white"/>
</g>
<g style="mix-blend-mode:overlay">
<path d="M75.0864 139.209C75.0864 144.487 70.8015 148.771 65.5237 148.771C60.2459 148.771 55.9609 144.487 55.9609 139.209C55.9609 133.879 60.2459 129.594 65.5237 129.594C70.8015 129.594 75.0864 133.879 75.0864 139.209Z" fill="white"/>
</g>
<g style="mix-blend-mode:overlay">
<path d="M88.9343 152.222C88.9343 154.051 87.4711 155.514 85.6944 155.514C83.8655 155.514 82.4023 154.051 82.4023 152.222C82.4023 150.393 83.8655 148.93 85.6944 148.93C87.4711 148.93 88.9343 150.393 88.9343 152.222Z" fill="white"/>
</g>
<defs>
<linearGradient id="paint0_linear_35_39" x1="43.1457" y1="109.183" x2="31.7693" y2="66.6435" gradientUnits="userSpaceOnUse">
<stop stop-color="#E20C0C"/>
<stop offset="0.435" stop-color="#EF7430"/>
<stop offset="1" stop-color="#F4B23D"/>
</linearGradient>
<linearGradient id="paint1_linear_35_39" x1="153.941" y1="50.0584" x2="173.33" y2="5.28548" gradientUnits="userSpaceOnUse">
<stop stop-color="#E20C0C"/>
<stop offset="0.435" stop-color="#EF7430"/>
<stop offset="1" stop-color="#F4B23D"/>
</linearGradient>
<linearGradient id="paint2_linear_35_39" x1="105.927" y1="256.729" x2="49.5207" y2="103.362" gradientUnits="userSpaceOnUse">
<stop stop-color="#E20C0C"/>
<stop offset="0.435" stop-color="#EF7430"/>
<stop offset="1" stop-color="#F4B23D"/>
</linearGradient>
<linearGradient id="paint3_linear_35_39" x1="177.392" y1="78.4476" x2="197.109" y2="171.632" gradientUnits="userSpaceOnUse">
<stop stop-color="#EF7430"/>
<stop offset="1" stop-color="white"/>
</linearGradient>
<linearGradient id="paint4_linear_35_39" x1="285.878" y1="42.4925" x2="291.029" y2="176.921" gradientUnits="userSpaceOnUse">
<stop stop-color="#EF7430"/>
<stop offset="1" stop-color="white"/>
</linearGradient>
<linearGradient id="paint5_linear_35_39" x1="-75.1938" y1="210.395" x2="184.115" y2="59.5143" gradientUnits="userSpaceOnUse">
<stop stop-color="#E20C0C"/>
<stop offset="0.435" stop-color="#EF7430"/>
<stop offset="1" stop-color="#F4B23D"/>
</linearGradient>
<linearGradient id="paint6_linear_35_39" x1="227.215" y1="243.266" x2="8.94942" y2="282.902" gradientUnits="userSpaceOnUse">
<stop stop-color="#EF7430"/>
<stop offset="1" stop-color="white"/>
</linearGradient>
<linearGradient id="paint7_linear_35_39" x1="136.233" y1="80.1312" x2="287.421" y2="249.342" gradientUnits="userSpaceOnUse">
<stop stop-color="#E20C0C"/>
<stop offset="1" stop-color="#B20808"/>
</linearGradient>
<linearGradient id="paint8_linear_35_39" x1="199.195" y1="213.109" x2="95.3948" y2="205.476" gradientUnits="userSpaceOnUse">
<stop stop-color="white"/>
<stop offset="1" stop-color="#B20808"/>
</linearGradient>
<linearGradient id="paint9_linear_35_39" x1="10.341" y1="28.1039" x2="88.7878" y2="29.3532" gradientUnits="userSpaceOnUse">
<stop stop-color="#437C0B"/>
<stop offset="1" stop-color="#6EAD25"/>
</linearGradient>
</defs>
</svg>
