<svg width="155" height="257" viewBox="0 0 155 257" fill="none" xmlns="http://www.w3.org/2000/svg">
<path d="M98.5493 35.2438C101.192 39.1346 104.184 42.7705 107.485 46.0843C114.086 52.6986 122.39 57.6493 131.299 59.541C122.726 56.4015 115.628 50.5788 110.342 43.562C107.699 40.0469 105.419 36.2769 103.487 32.3593C101.595 28.482 99.9044 24.2558 98.8445 20.3516L98.8042 20.204C98.764 20.043 98.6969 19.882 98.6298 19.7076C97.798 17.7622 95.544 16.8633 93.6121 17.7086C91.6667 18.5404 90.7812 20.7943 91.613 22.7263C93.5852 27.355 95.9063 31.2994 98.5493 35.2438Z" fill="url(#paint0_radial_35_38)"/>
<path d="M115.172 39.6598C118.258 42.276 121.572 44.6105 125.221 46.1533C128.79 47.8572 132.586 48.8635 136.356 49.6953C132.761 48.2597 129.259 46.6766 126.16 44.4897C122.967 42.4772 120.284 39.794 117.922 37.0168C115.574 34.1993 113.817 30.9794 112.502 27.6655C111.214 24.4187 110.382 20.6353 110.329 17.6434V17.4288C110.329 17.2141 110.302 17.0129 110.261 16.7982C109.859 14.7186 107.846 13.3636 105.767 13.7661C103.687 14.1686 102.332 16.181 102.735 18.2606C103.634 22.9027 105.257 26.5519 107.377 30.2012C109.497 33.7297 112.086 37.0033 115.172 39.6598Z" fill="url(#paint1_radial_35_38)"/>
<path d="M116.613 27.1234C118.183 29.7798 120.195 32.1948 122.57 34.1267C127.292 38.1383 133.464 39.4262 138.992 39.0908C133.464 38.1517 128.312 35.5891 125.267 31.43C123.697 29.4176 122.556 27.1234 121.792 24.7218C121.054 22.3874 120.598 19.6504 120.638 17.5575C120.638 17.2623 120.611 16.9 120.544 16.5915C120.074 14.5253 118.022 13.224 115.956 13.6935C113.889 14.1631 112.588 16.2158 113.044 18.2819C113.836 21.73 115.043 24.3864 116.613 27.1234Z" fill="url(#paint2_radial_35_38)"/>
<path d="M148.37 17.7097C147.163 16.8644 145.432 16.1131 143.607 16.6766C141.796 17.2401 140.709 18.6757 139.864 19.977C139.26 20.9699 138.791 21.8822 138.335 22.6067C138.053 22.1773 137.758 21.6943 137.342 21.1577C136.242 19.7758 134.283 18.2732 131.586 18.7293C130.902 18.8367 130.311 19.2257 129.788 19.6685C129.869 18.6622 130.016 17.6963 130.258 16.9718C130.405 16.5559 130.472 16.0863 130.472 15.6167C130.419 13.4701 128.634 11.7796 126.488 11.8333C124.341 11.8869 122.651 13.6713 122.704 15.818V16.0326C122.771 18.8232 123.335 20.9564 124.194 23.2641C125.079 25.4912 126.407 27.5842 128.165 29.2075C131.707 32.5617 136.429 33.2459 140.441 32.8702C136.496 32.025 132.887 29.9723 131.224 26.9402C132.324 26.4974 133.089 25.4509 132.874 24.2435C132.713 23.358 133.035 22.8079 132.673 23.0628C132.861 22.9152 133.786 22.9555 134.538 23.7336L135.973 25.2765C136.282 25.5717 136.631 26.0547 137.623 26.4169C138.992 26.8194 139.931 25.9071 140.266 25.4912C141.42 23.7739 141.608 22.3786 142.145 21.2114C143.071 18.6757 145.163 17.3608 147.78 18.8366C148.41 19.105 148.893 19.5746 149.832 19.8295C150.745 20.0307 151.59 19.6282 152.167 19.1452C153.334 18.139 154.072 16.851 154.676 15.5496C153.173 17.8841 150.49 20.5674 148.37 17.7097Z" fill="url(#paint3_radial_35_38)"/>
<path d="M136.335 73.7715C132.86 70.0014 128.031 67.7475 123.147 66.6742C118.25 63.0786 113.407 59.3756 109.046 55.2299C104.23 50.8294 99.8158 46.1068 95.8043 41.1427C92.1416 35.9774 88.9485 30.5437 87.1239 24.9357C86.1176 22.145 85.7285 19.3276 85.581 16.6309C85.5541 14.2025 86.4396 10.9155 86.936 10.2447L87.0836 10.0434C87.258 9.81533 87.4056 9.56042 87.5532 9.29209C89.1497 6.30023 88.0227 2.58388 85.0443 0.98732C82.0524 -0.609235 78.3361 0.517746 76.7395 3.49619C73.9087 8.79568 73.9489 12.4986 73.8684 16.8053C74.0562 20.8705 74.6734 24.8417 75.9345 28.4642C77.3433 32.8379 79.3289 36.7958 81.5292 40.5926C71.7755 44.2285 61.6997 48.7632 52.9924 56.4911C48.726 51.7014 43.2253 48.1327 36.5171 46.7508C31.2712 45.7311 25.6498 46.5227 21.0479 48.6559C16.3522 50.7623 13.0249 54.0359 10.0733 57.2692C7.39 60.6904 5.2702 64.0311 3.51265 67.8146C2.70767 69.8539 1.84901 71.8395 1.21844 73.9325C0.842783 76.1596 0.359793 78.3599 0.225628 80.5736C-0.109782 89.8041 4.14322 97.76 8.82556 103.677C18.4451 115.684 30.6273 123.251 40.5152 132.737C45.2377 137.365 49.5444 143.121 48.5784 149.655C47.4917 156.122 41.6556 161.327 35.5108 164.467C41.9507 162.011 48.6992 157.745 51.0471 150.205C53.2071 142.41 48.7126 134.83 44.2718 129.329C35.0279 118.18 23.9056 108.99 17.1437 97.8674C13.7896 92.3935 11.9918 86.6512 12.8639 81.6469C13.1322 80.3858 13.6421 79.1649 13.9238 77.944C14.4873 76.7365 15.2386 75.5693 15.8289 74.3752C17.3584 71.9066 19.3575 69.505 21.276 67.5865C25.4217 63.8433 29.393 62.8102 32.5324 64.0848C35.7926 65.1313 39.1467 68.9818 39.898 72.5371C40.0053 73.0872 40.1932 73.6641 40.4078 74.2142C39.5089 76.7231 38.771 79.2856 38.4222 81.8616C37.3623 89.3345 38.3685 96.4452 40.059 102.872C47.4515 128.403 62.3571 147.589 71.3595 169.216C73.6135 174.556 75.5321 179.976 76.6456 185.45C77.8934 190.816 77.625 196.492 77.3835 202.341C76.5651 213.624 73.1037 225.35 63.4975 231.146C53.945 237.076 41.4141 236.419 29.4869 235.721C23.1275 235.453 16.8888 237.801 12.1528 241.718C7.44367 245.676 3.83465 250.748 1.41969 256.262C6.79968 245.757 17.5194 236.687 29.3259 238.257C40.9713 239.652 54.0524 241.705 66.0064 235.56C71.8694 232.528 76.5249 227.322 79.5033 221.54C82.5757 215.717 83.8905 209.412 84.9504 203.186C85.6615 197.068 86.4128 190.602 85.42 184.055C84.5881 177.628 82.8708 171.51 80.845 165.594C72.7817 142.182 59.2713 121.011 54.8976 99.4773C52.7644 88.7442 54.4414 79.5271 61.0155 73.2482C67.4688 66.6876 77.9604 62.5285 88.5862 59.5769L88.8412 59.5098C89.0961 59.4427 89.351 59.3488 89.6059 59.2549C90.961 58.7585 92.1282 57.9803 93.1076 57.0412C95.2676 59.6305 97.4947 62.1528 99.8158 64.5544C101.023 65.8021 102.298 66.9425 103.519 68.15C98.5949 69.8539 93.5772 72.1347 89.1363 75.9047C84.6686 79.7015 80.9791 84.84 78.9264 90.4749C76.9274 96.3513 75.9882 101.463 76.8066 108.56C76.8603 109.057 76.9676 109.607 77.1018 110.103C78.591 115.523 84.2125 118.703 89.6327 117.214C95.053 115.725 98.2461 110.103 96.7434 104.683C96.2739 102.992 96.2739 99.0614 96.9849 96.4989C97.696 93.6949 99.0779 91.2262 101.131 89.0125C105.048 84.7863 113.38 81.2578 118.948 81.2712C124.824 81.07 129.721 85.0949 131.264 91.4275C132.726 97.7466 130.338 105.354 125.522 111.431C120.611 117.844 113.742 121.829 105.84 126.485C97.7765 131.127 90.2499 137.741 86.292 146.609C84.1052 150.903 83.4746 155.92 83.7966 160.697C84.3467 165.513 86.775 170.249 90.7731 173.04C94.7444 175.763 99.9902 176.461 104.283 174.851C106.551 174.448 108.429 173.013 110.482 172.154L115.848 168.169L110.173 171.591C108.08 172.235 106.162 173.442 103.988 173.603C99.789 174.73 95.3213 173.536 92.3026 171C89.2571 168.398 87.6605 164.413 87.58 160.401C87.7544 156.39 88.5862 152.338 90.8268 148.877C94.8383 141.753 101.842 136.627 109.395 133.206C117.083 129.584 126.434 125.438 133.129 118.126C139.918 111.042 145.096 100.725 143.755 89.3479C143.218 83.7399 140.521 78.1318 136.335 73.7715Z" fill="url(#paint4_radial_35_38)"/>
<path d="M59.0036 86.6482C59.1512 84.9711 60.5197 82.905 62.1699 81.5365C63.8604 80.101 65.8997 78.9874 68.0597 78.1824C72.4066 76.5456 77.1426 75.9016 81.8518 75.5662C77.1292 75.4857 72.3261 75.687 67.6572 76.9749C65.3228 77.6189 63.042 78.5849 60.9758 80.0473C58.95 81.5634 57.0717 83.4282 56.4545 86.4738C56.4411 86.514 56.4411 86.5677 56.4277 86.6079C56.3606 87.3056 56.8838 87.9227 57.5815 87.9898C58.2791 88.0569 58.8963 87.5337 58.9634 86.836L59.0036 86.6482Z" fill="url(#paint5_radial_35_38)"/>
<path d="M67.993 82.4795C65.7122 82.8283 63.9681 85.3238 63.2033 86.9606C62.2105 88.5571 60.6005 89.939 59.1247 90.4489L58.9906 90.4891C58.9503 90.5025 58.8967 90.5294 58.8564 90.5428C58.2258 90.8514 57.9575 91.6027 58.2527 92.2467C58.5612 92.8772 59.3126 93.1456 59.9565 92.8504C62.0093 91.871 63.2972 90.3549 64.3169 88.6779C65.1353 89.9659 67.2685 90.2476 69.2407 89.1877C71.28 88.101 72.3265 86.0751 71.5752 84.653C71.0922 83.7272 69.9115 83.4991 68.6236 83.6065C72.3667 82.1978 76.4588 81.272 80.4032 80.1719C76.2709 80.8964 72.1521 81.3525 67.993 82.4795Z" fill="url(#paint6_radial_35_38)"/>
<path d="M70.1 89.6117C68.4364 90.7923 66.1824 91.1143 63.6602 91.7449C65.9141 93.1804 68.8926 93.1536 71.4417 91.7717C72.6223 90.9533 73.6688 89.7995 74.0713 88.4578C74.5811 87.143 74.4738 85.7477 74.1652 84.5C72.8772 86.8076 71.9381 88.6993 70.1 89.6117Z" fill="url(#paint7_radial_35_38)"/>
<defs>
<radialGradient id="paint0_radial_35_38" cx="0" cy="0" r="1" gradientUnits="userSpaceOnUse" gradientTransform="translate(-79.6262 -4.713) scale(500.323 500.323)">
<stop offset="0.1231" stop-color="#EAC356"/>
<stop offset="0.3593" stop-color="#D40B01"/>
<stop offset="0.7412" stop-color="#710702"/>
</radialGradient>
<radialGradient id="paint1_radial_35_38" cx="0" cy="0" r="1" gradientUnits="userSpaceOnUse" gradientTransform="translate(-79.6281 -4.71101) scale(500.326 500.326)">
<stop offset="0.1231" stop-color="#EAC356"/>
<stop offset="0.3593" stop-color="#D40B01"/>
<stop offset="0.7412" stop-color="#710702"/>
</radialGradient>
<radialGradient id="paint2_radial_35_38" cx="0" cy="0" r="1" gradientUnits="userSpaceOnUse" gradientTransform="translate(-79.6373 -4.7165) scale(500.328 500.328)">
<stop offset="0.1231" stop-color="#EAC356"/>
<stop offset="0.3593" stop-color="#D40B01"/>
<stop offset="0.7412" stop-color="#710702"/>
</radialGradient>
<radialGradient id="paint3_radial_35_38" cx="0" cy="0" r="1" gradientUnits="userSpaceOnUse" gradientTransform="translate(-79.6355 -4.71188) scale(500.324 500.324)">
<stop offset="0.1231" stop-color="#EAC356"/>
<stop offset="0.3593" stop-color="#D40B01"/>
<stop offset="0.7412" stop-color="#710702"/>
</radialGradient>
<radialGradient id="paint4_radial_35_38" cx="0" cy="0" r="1" gradientUnits="userSpaceOnUse" gradientTransform="translate(-79.633 -4.71736) scale(500.318 500.317)">
<stop offset="0.1231" stop-color="#EAC356"/>
<stop offset="0.3593" stop-color="#D40B01"/>
<stop offset="0.7412" stop-color="#710702"/>
</radialGradient>
<radialGradient id="paint5_radial_35_38" cx="0" cy="0" r="1" gradientUnits="userSpaceOnUse" gradientTransform="translate(-79.6297 -4.71913) scale(500.309 500.31)">
<stop offset="0.1231" stop-color="#EAC356"/>
<stop offset="0.3593" stop-color="#D40B01"/>
<stop offset="0.7412" stop-color="#710702"/>
</radialGradient>
<radialGradient id="paint6_radial_35_38" cx="0" cy="0" r="1" gradientUnits="userSpaceOnUse" gradientTransform="translate(-79.6293 -4.71788) scale(500.313 500.313)">
<stop offset="0.1231" stop-color="#EAC356"/>
<stop offset="0.3593" stop-color="#D40B01"/>
<stop offset="0.7412" stop-color="#710702"/>
</radialGradient>
<radialGradient id="paint7_radial_35_38" cx="0" cy="0" r="1" gradientUnits="userSpaceOnUse" gradientTransform="translate(-79.626 -4.72461) scale(500.309 500.309)">
<stop offset="0.1231" stop-color="#EAC356"/>
<stop offset="0.3593" stop-color="#D40B01"/>
<stop offset="0.7412" stop-color="#710702"/>
</radialGradient>
</defs>
</svg>
