<svg width="257" height="257" viewBox="0 0 257 257" fill="none" xmlns="http://www.w3.org/2000/svg">
<path fill-rule="evenodd" clip-rule="evenodd" d="M203.083 203.117C193.295 217.845 187.129 236.019 192.474 256.094C203.481 253.798 213.159 248.701 221.744 240.594C213.325 229.306 207.018 216.582 203.083 203.117Z" fill="url(#paint0_linear_35_36)"/>
<path fill-rule="evenodd" clip-rule="evenodd" d="M140.358 196.879C140.571 168.647 152.553 145.507 169.51 125.921C194.91 96.5828 224.953 80.9149 255.98 68.8379C256.257 68.7296 256.593 69.1593 256.464 69.0827C256.062 86.2939 255.771 103.143 255.246 120.034C254.785 135.03 254.712 150.045 253.295 165.097C251.287 186.495 246.306 207.334 234.253 225.515C222.862 242.7 209.193 252.599 192.479 256.087C184.578 226.41 201.815 200.876 218.759 184.507C199.186 193.753 191.072 202.744 184.086 212.302C181.465 196.836 178.149 168.256 175.705 162.939C175.036 197.839 169.741 219.637 163.062 250.23C149.543 236.479 140.18 220.316 140.358 196.879ZM212.063 169.403C214.94 162.623 212.954 154.666 207.833 152.435C202.368 150.055 195.317 154.208 192.244 161.616C189.308 168.691 191.306 175.969 196.773 178.128C202.151 180.249 209.16 176.253 212.063 169.403Z" fill="url(#paint1_linear_35_36)"/>
<path fill-rule="evenodd" clip-rule="evenodd" d="M200.999 194.868C199.848 189.526 199.074 184.093 198.68 178.611C198.028 178.524 197.389 178.37 196.773 178.128C191.306 175.966 189.308 168.691 192.244 161.615C193.865 157.703 196.601 154.714 199.624 153.099C203.319 128.338 214.897 105.085 232.74 87.2421C239.857 80.1275 247.84 74.0273 256.429 69.0071C256.337 68.9081 256.154 68.7698 255.98 68.839C224.953 80.9159 194.908 96.5838 169.51 125.922C152.553 145.508 140.571 168.648 140.358 196.88C140.18 220.315 149.543 236.48 163.062 250.232C169.74 219.64 175.034 197.84 175.705 162.942C178.151 168.261 181.465 196.841 184.086 212.305C188.445 206.338 193.245 200.593 200.999 194.868Z" fill="url(#paint2_linear_35_36)"/>
<path d="M147.871 160.009C147.871 160.009 148.725 158.164 150.268 154.832C151.032 153.162 152.151 151.21 153.353 148.891C154.633 146.617 156.131 144.044 157.912 141.283C164.942 130.189 176.786 116.075 192.571 103.614C208.263 91.0378 224.365 82.3164 236.253 76.7711C248.186 71.2352 255.977 68.8438 255.977 68.8438C255.977 68.8438 248.246 71.4127 236.414 77.1093C224.623 82.8152 208.667 91.673 193.038 104.198C177.318 116.61 165.396 130.521 158.224 141.487C156.409 144.215 154.874 146.759 153.558 149.005C152.32 151.297 151.167 153.229 150.371 154.883C148.762 158.182 147.871 160.009 147.871 160.009Z" fill="#FF4BCC"/>
<path fill-rule="evenodd" clip-rule="evenodd" d="M113.783 237.112C103.507 208.158 95.6634 187.597 90.7049 153.711C88.9804 159.189 89.2831 187.416 88.6404 202.792C80.6607 194.349 71.6534 186.603 51.4641 180.019C69.9775 193.858 89.9052 216.584 85.8771 246.444C69.1778 245.11 54.6515 237.164 41.4442 221.844C27.469 205.632 20.0498 185.966 15.4537 165.386C12.2177 150.91 10.2933 136.307 7.99525 121.768C5.39826 105.392 3.03479 89.0289 0.520006 72.326C0.4023 72.4156 0.678829 71.956 0.960949 72.027C32.6518 79.9525 63.825 91.4933 92.1678 116.914C111.09 133.884 125.605 154.927 129.301 182.381C132.36 205.171 125.243 222.055 113.783 237.112ZM72.0719 171.094C77.1257 168.316 78.1739 160.986 74.4428 154.462C70.538 147.629 63.1618 144.459 58.1359 147.45C53.4258 150.253 52.4749 158.242 56.1125 164.488C59.7857 170.795 67.1002 173.82 72.0719 171.094Z" fill="url(#paint3_linear_35_36)"/>
<path fill-rule="evenodd" clip-rule="evenodd" d="M70.0247 187.9C70.4862 182.558 70.5684 177.175 70.2751 171.791C70.8991 171.626 71.5026 171.399 72.0724 171.087C77.1263 168.308 78.1744 160.979 74.4434 154.455C72.3788 150.847 69.3484 148.274 66.2096 147.076C59.5564 123.433 45.4168 102.227 25.8478 87.0635C18.0456 81.0194 9.52222 76.0664 0.542969 72.2382C0.617702 72.1317 0.782101 71.9747 0.959594 72.0196C32.6504 79.9451 63.8237 91.4858 92.1664 116.907C111.089 133.877 125.604 154.92 129.3 182.373C132.362 205.161 125.244 222.046 113.783 237.103C103.507 208.149 95.664 187.588 90.7054 153.702C88.9809 159.18 89.2836 187.406 88.6409 202.783C83.658 197.514 78.2772 192.515 70.0247 187.9Z" fill="url(#paint4_linear_35_36)"/>
<path d="M117.426 147.417C117.426 147.417 116.366 145.726 114.451 142.673C113.502 141.143 112.172 139.379 110.716 137.272C109.192 135.217 107.411 132.898 105.337 130.43C97.126 120.5 83.8589 108.225 66.956 98.044C50.1297 87.7401 33.3819 81.2383 21.1275 77.3073C8.8319 73.3912 0.953125 72.0273 0.953125 72.0273C0.953125 72.0273 8.79269 73.5724 21.0135 77.6585C33.1951 81.7558 49.8159 88.409 66.573 98.6718C83.4068 108.811 96.7262 120.881 105.061 130.671C107.163 133.102 108.973 135.388 110.529 137.412C112.02 139.491 113.379 141.229 114.36 142.74C116.331 145.746 117.426 147.417 117.426 147.417Z" fill="#B6D000"/>
<path fill-rule="evenodd" clip-rule="evenodd" d="M103.161 103.259C99.4407 84.364 104.282 67.2612 112.934 51.853C125.891 28.7715 143.823 14.1929 162.904 1.87674C163.078 1.76651 163.359 2.00753 163.263 1.9739C165.35 13.5296 167.459 24.8293 169.419 36.1888C171.164 46.2723 173.167 56.3165 174.281 66.5681C175.867 81.143 175.387 95.7478 169.821 109.547C164.562 122.588 156.78 131.073 146.089 135.693C136.75 116.942 144.774 97.5209 153.858 84.2669C142.044 93.1247 137.852 100.239 134.493 107.582C130.623 97.6068 124.499 78.9626 122.137 75.7435C126.464 99.1557 125.909 114.444 125.631 135.803C114.716 128.461 106.251 118.943 103.161 103.259ZM147.319 75.0877C148.315 70.1609 145.899 65.1182 142.172 64.3261C138.194 63.4834 134.05 67.222 133.009 72.5935C132.019 77.7239 134.347 82.3126 138.297 83.0095C142.177 83.6896 146.316 80.0612 147.319 75.0877Z" fill="url(#paint5_linear_35_36)"/>
<path fill-rule="evenodd" clip-rule="evenodd" d="M143.407 93.6164C141.907 90.2048 140.648 86.6812 139.633 83.0697C139.189 83.1014 138.738 83.0865 138.294 83.008C134.344 82.3111 132.016 77.7225 133.006 72.592C133.558 69.7559 134.978 67.3831 136.777 65.8921C135.856 48.8416 140.411 31.7164 149.896 17.3526C153.676 11.628 158.179 6.4583 163.231 1.92757C163.158 1.87526 163.016 1.80801 162.905 1.87714C143.824 14.1933 125.892 28.7719 112.935 51.8534C104.281 67.2616 99.4398 84.3626 103.162 103.259C106.25 118.944 114.717 128.461 125.632 135.804C125.909 114.443 126.465 99.1561 122.138 75.7439C124.502 78.963 130.624 97.6072 134.494 107.582C136.588 102.997 139.013 98.5021 143.407 93.6164Z" fill="url(#paint6_linear_35_36)"/>
<path d="M103.141 77.5839C103.141 77.5839 103.458 76.235 104.034 73.795C104.314 72.5749 104.796 71.1176 105.282 69.4043C105.825 67.7098 106.477 65.7872 107.29 63.6966C110.468 55.3227 116.451 44.2714 125.295 33.7844C134.062 23.2339 143.626 15.2019 150.813 9.86965C158.027 4.5374 162.907 1.875 162.907 1.875C162.907 1.875 158.094 4.6495 150.966 10.0752C143.867 15.5008 134.417 23.6038 125.688 34.1114C116.88 44.5554 110.818 55.4833 107.526 63.7937C106.687 65.8638 106.007 67.7733 105.435 69.4548C104.923 71.1569 104.415 72.6067 104.11 73.8192C103.484 76.2406 103.141 77.5839 103.141 77.5839Z" fill="#FFF563"/>
<path fill-rule="evenodd" clip-rule="evenodd" d="M92.9946 77.8309C86.674 63.9043 81.9135 54.0414 78.0217 37.4449C77.3977 40.2362 78.7429 54.2207 79.0698 61.8734C74.7558 58.0246 69.9635 54.5626 59.669 52.1506C69.4367 58.2301 80.2805 68.6593 79.5444 83.6377C71.2079 83.6826 63.6672 80.3551 56.4704 73.317C48.855 65.8679 44.343 56.4291 41.1929 46.4185C38.9752 39.3767 37.4058 32.2154 35.6496 25.1026C33.671 17.0912 31.8045 9.07595 29.8521 0.90009C29.8017 0.950535 29.9138 0.709526 30.0595 0.731946C46.1123 3.32334 62.0586 7.72889 77.1884 19.1389C87.2905 26.7542 95.3805 36.5761 98.3735 50.0356C100.855 61.2027 98.041 69.8774 92.9946 77.8309ZM69.5152 46.8538C71.9048 45.262 72.114 41.5851 69.9897 38.5061C67.7626 35.2813 63.9699 34.0221 61.6046 35.7185C59.3869 37.3085 59.2542 41.3105 61.3225 44.2531C63.4094 47.2238 67.1685 48.4158 69.5152 46.8538Z" fill="url(#paint7_linear_35_36)"/>
<path fill-rule="evenodd" clip-rule="evenodd" d="M69.2145 55.2744C69.2163 52.6064 69.0295 49.9328 68.6577 47.2741C68.9566 47.1658 69.2462 47.0275 69.5171 46.8481C71.9067 45.2563 72.116 41.5794 69.9917 38.5004C68.8146 36.7983 67.2041 35.6512 65.5936 35.1897C61.2983 23.7442 53.3896 13.8252 43.0427 7.1328C38.9193 4.46668 34.482 2.3704 29.8672 0.851437C29.8989 0.795387 29.9737 0.709427 30.0634 0.724374C46.1161 3.31576 62.0625 7.72132 77.1923 19.1313C87.2944 26.7466 95.3843 36.5685 98.3774 50.0281C100.857 61.1989 98.043 69.8736 92.9966 77.8252C86.676 63.8986 81.9154 54.0356 78.0237 37.4392C77.3997 40.2305 78.7449 54.215 79.0718 61.8677C76.3814 59.4669 73.5004 57.2156 69.2145 55.2744Z" fill="url(#paint8_linear_35_36)"/>
<path d="M91.0136 33.1948C91.0136 33.1948 90.4176 32.4026 89.3396 30.9677C88.8052 30.2484 88.0709 29.4301 87.2601 28.4473C86.4175 27.4926 85.4366 26.4183 84.3025 25.2824C79.8129 20.7049 72.7132 15.1802 63.9002 10.8438C55.119 6.44574 46.5396 3.9272 40.2956 2.49792C34.0329 1.07611 30.0664 0.730469 30.0664 0.730469C30.0664 0.730469 34.0198 1.16579 40.2526 2.67541C46.4667 4.19437 54.992 6.79136 63.7339 11.1708C72.5095 15.4866 79.626 20.9086 84.1717 25.4113C85.3189 26.5285 86.3128 27.586 87.1704 28.5239C87.9962 29.4917 88.7454 30.297 89.2966 31.0051C90.4008 32.4119 91.0136 33.1948 91.0136 33.1948Z" fill="#76D4FF"/>
<path fill-rule="evenodd" clip-rule="evenodd" d="M182.273 67.3392C184.181 58.7654 189.336 52.5083 195.774 47.6562C205.411 40.3865 215.571 37.5802 225.798 35.9305C225.89 35.9174 225.963 36.0688 225.929 36.037C224.689 41.2459 223.497 46.3521 222.232 51.4583C221.116 55.989 220.117 60.5515 218.706 65.0374C216.696 71.4141 213.82 77.4301 208.97 82.1738C204.387 86.6597 199.582 88.7803 194.272 88.7504C193.799 79.2069 200.708 72.5612 206.932 68.69C200.374 70.2277 197.319 72.4323 194.571 74.8836C194.78 70.0091 195.638 61.0989 195.238 59.3203C192.76 69.8932 189.728 76.1765 185.702 85.0492C182.49 79.9841 180.695 74.4576 182.273 67.3392ZM205.884 63.6586C207.203 61.7846 207.115 59.2343 205.704 58.2198C204.193 57.1381 201.777 57.9414 200.361 59.9966C199.006 61.9584 199.141 64.2994 200.664 65.3139C202.158 66.3116 204.555 65.5512 205.884 63.6586Z" fill="url(#paint9_linear_35_36)"/>
<path fill-rule="evenodd" clip-rule="evenodd" d="M200.856 70.6838C200.854 68.9836 200.974 67.2815 201.213 65.5869C201.018 65.5178 200.833 65.43 200.663 65.3161C199.141 64.2997 199.006 61.9605 200.361 59.9987C201.108 58.9114 202.138 58.1827 203.16 57.8875C205.899 50.5954 210.938 44.2767 217.529 40.0131C220.156 38.3129 222.983 36.977 225.925 36.0092C225.903 35.9756 225.856 35.9214 225.798 35.9308C215.569 37.5805 205.411 40.3868 195.774 47.6565C189.338 52.5086 184.183 58.7656 182.273 67.3395C180.695 74.4578 182.49 79.9844 185.704 85.0513C189.73 76.1786 192.762 69.8953 195.24 59.3224C195.64 61.0992 194.782 70.0093 194.573 74.8857C196.293 73.3536 198.124 71.9188 200.856 70.6838Z" fill="url(#paint10_linear_35_36)"/>
<path d="M186.977 56.6201C186.977 56.6201 187.356 56.1156 188.043 55.2001C188.385 54.7405 188.852 54.2211 189.37 53.5952C189.906 52.9861 190.532 52.3023 191.255 51.5792C194.114 48.6609 198.637 45.1409 204.251 42.3795C209.845 39.577 215.314 37.9721 219.291 37.0623C223.28 36.1561 225.806 35.9375 225.806 35.9375C225.806 35.9375 223.288 36.214 219.316 37.1743C215.355 38.144 209.927 39.7975 204.354 42.5869C198.764 45.3371 194.231 48.7917 191.332 51.6596C190.603 52.3733 189.97 53.0459 189.422 53.6438C188.899 54.2622 188.419 54.7723 188.068 55.2263C187.369 56.1212 186.977 56.6201 186.977 56.6201Z" fill="#FF4E1F"/>
<defs>
<linearGradient id="paint0_linear_35_36" x1="233.349" y1="96.2722" x2="205.386" y2="241.963" gradientUnits="userSpaceOnUse">
<stop stop-color="#8500BB"/>
<stop offset="1" stop-color="#FF61A1"/>
</linearGradient>
<linearGradient id="paint1_linear_35_36" x1="235.162" y1="66.4082" x2="174.751" y2="246.394" gradientUnits="userSpaceOnUse">
<stop stop-color="#FF61A1"/>
<stop offset="1" stop-color="#8500BB"/>
</linearGradient>
<linearGradient id="paint2_linear_35_36" x1="215.379" y1="72.1285" x2="159.329" y2="249" gradientUnits="userSpaceOnUse">
<stop stop-color="#8500BB"/>
<stop offset="1" stop-color="#FF61A1"/>
</linearGradient>
<linearGradient id="paint3_linear_35_36" x1="103.574" y1="238.439" x2="19.4986" y2="63.748" gradientUnits="userSpaceOnUse">
<stop stop-color="#376500"/>
<stop offset="1" stop-color="#88A400"/>
</linearGradient>
<linearGradient id="paint4_linear_35_36" x1="47.8983" y1="86.8038" x2="117.962" y2="230.667" gradientUnits="userSpaceOnUse">
<stop stop-color="#376500"/>
<stop offset="1" stop-color="#88A400"/>
</linearGradient>
<linearGradient id="paint5_linear_35_36" x1="140.974" y1="129.681" x2="134.434" y2="11.5088" gradientUnits="userSpaceOnUse">
<stop stop-color="#C56700"/>
<stop offset="1" stop-color="#FFB700"/>
</linearGradient>
<linearGradient id="paint6_linear_35_36" x1="134.585" y1="16.9845" x2="126.177" y2="133.289" gradientUnits="userSpaceOnUse">
<stop stop-color="#C56700"/>
<stop offset="1" stop-color="#FFB700"/>
</linearGradient>
<linearGradient id="paint7_linear_35_36" x1="39.7533" y1="-2.56195" x2="87.02" y2="77.1939" gradientUnits="userSpaceOnUse">
<stop stop-color="#089DFB"/>
<stop offset="1" stop-color="#0056A2"/>
</linearGradient>
<linearGradient id="paint8_linear_35_36" x1="49.7856" y1="-1.85903" x2="94.6518" y2="76.8565" gradientUnits="userSpaceOnUse">
<stop stop-color="#0056A2"/>
<stop offset="1" stop-color="#089DFB"/>
</linearGradient>
<linearGradient id="paint9_linear_35_36" x1="219.623" y1="33.8333" x2="189.509" y2="84.6457" gradientUnits="userSpaceOnUse">
<stop stop-color="#FA3222"/>
<stop offset="1" stop-color="#760008"/>
</linearGradient>
<linearGradient id="paint10_linear_35_36" x1="213.235" y1="34.2839" x2="184.651" y2="84.4342" gradientUnits="userSpaceOnUse">
<stop stop-color="#760008"/>
<stop offset="1" stop-color="#FA3222"/>
</linearGradient>
</defs>
</svg>
