<svg width="186" height="256" viewBox="0 0 186 256" fill="none" xmlns="http://www.w3.org/2000/svg">
<path d="M107.154 63.5946V63.8263C110.282 65.3321 113.294 67.4172 115.842 69.8498C126.615 66.2589 139.936 66.9539 152.678 73.3249C158.934 76.6842 165.305 80.0435 170.633 87.6888L185.808 102.632V92.0905V85.4878C185.808 82.0127 184.881 78.3059 184.649 75.9892C172.139 63.2471 156.848 56.2969 142.948 54.5593C128.816 53.0534 116.074 56.5286 107.154 63.5946Z" fill="#5365A6"/>
<path d="M81.9019 62.6678L82.0177 62.7837C85.2611 61.5094 88.8521 60.6986 92.443 60.6986C95.6865 53.8642 101.015 47.609 108.313 42.628C122.677 32.7818 144.686 29.3067 167.39 36.8361C161.134 28.4958 153.373 21.1981 144.57 15.4062C133.449 15.6379 123.256 17.8388 114.452 21.7773C94.8756 30.6967 83.1761 46.9139 81.9019 62.6678Z" fill="#5365A6"/>
<path d="M63.9471 80.2751C65.3372 76.9158 67.3064 73.9041 69.739 71.2398C65.5688 60.6986 65.6847 47.2616 71.4765 34.4036C77.1525 21.4299 88.3887 8.91946 104.143 0.579186C93.7173 -0.579186 83.0602 0 72.7507 2.31674C60.7037 15.5222 54.2168 30.8127 53.1743 44.829C52.1317 59.0769 56.4177 71.7032 63.7154 80.2751H63.9471Z" fill="#5365A6"/>
<path d="M30.0068 87.5724C33.2502 91.2792 36.7254 94.291 40.3163 97.8819L61.167 118.385L61.3987 118.153V97.3027C59.6611 95.681 58.0394 93.8276 56.3018 92.4376C54.6801 91.4336 53.0584 90.3139 51.4367 89.0783C48.3091 86.5299 45.1815 83.5181 42.7489 80.043C32.0919 66.0267 27.9217 44.2493 34.4086 21.1978C26.3 27.9163 19.3498 35.9091 13.9055 44.9444C14.6005 56.0647 17.2647 66.1426 21.6665 74.7145C23.9833 79.4638 26.8792 83.8656 30.0068 87.5724Z" fill="#5365A6"/>
<path d="M46.1082 153.832C51.0892 158.465 56.186 164.72 61.3987 166.11L61.5145 165.994L61.3987 163.214V158.002V147.576L31.0493 117.922L15.8747 102.979L8.22942 95.5656C7.07105 94.1755 5.68101 93.4805 4.52264 91.5113C3.28704 89.8123 2.09005 87.9975 0.931683 86.0669C0.815846 88.4995 0.700012 91.6271 0.700012 93.4805V98.809V109.466L30.9335 139.004L46.1082 153.832Z" fill="#5365A6"/>
<path d="M21.5507 180.59L21.4349 180.706C38.6946 193.448 59.1978 194.954 73.214 188.467L73.3299 188.235C70.5498 185.919 68.1172 183.254 66.2638 180.242C58.6186 180.937 50.3941 179.432 42.5172 175.609H42.7489C38.6946 173.64 34.9878 171.207 31.281 168.195C27.6901 165.068 24.2149 161.477 20.9715 158.233L0.700012 138.425V159.623C2.32173 161.361 3.82762 162.404 5.44934 164.604C7.07106 166.767 8.73139 168.813 10.4303 170.744C14.0213 174.451 17.6122 177.81 21.5507 180.59Z" fill="#5365A6"/>
<path d="M97.5398 195.301L97.424 195.07C93.9489 195.533 90.2421 195.301 86.767 194.722C79.8168 203.526 68.1172 210.013 53.9851 211.634C39.9688 213.14 23.6358 209.781 8.34528 200.282C12.5154 210.013 18.4231 218.816 25.605 226.462C42.8647 230.4 59.5453 228.199 72.1715 222.06C84.9136 215.92 93.833 205.958 97.5398 195.301Z" fill="#5365A6"/>
<path d="M119.086 182.328C117 185.224 114.336 187.772 111.44 189.741C112.483 197.271 111.324 205.495 107.849 213.604C101.015 229.473 84.4503 244.648 61.167 250.208C71.0131 253.915 81.5543 256 91.9797 256C101.131 249.861 108.544 242.447 113.873 234.454C125.688 216.5 126.499 196.344 119.317 182.443L119.086 182.328Z" fill="#5365A6"/>
<path d="M140.4 167.384L125.225 152.673L125.109 152.789V163.214L124.993 168.079C125.109 168.195 125.109 167.732 124.877 168.658C134.26 175.261 141.095 186.613 143.411 200.629C145.612 214.646 142.832 231.095 134.029 246.733C143.527 242.099 152.099 235.844 159.513 228.314C162.64 210.939 159.629 194.374 153.026 181.98C149.551 175.84 145.612 170.164 140.4 167.384Z" fill="#5365A6"/>
<path d="M156.733 103.326L146.191 92.9011L145.612 92.4377C144.338 90.9318 135.071 80.159 122.676 79.8115C122.676 79.8115 125.109 86.2983 125.109 92.206V93.4803V103.326H156.733Z" fill="#5365A6"/>
<path d="M185.808 161.593V152.442H154.648L165.536 162.983L168.78 166.111C169.591 167.269 180.711 182.444 180.943 194.143C180.943 194.143 186.271 186.846 185.808 168.427V166.922V161.593Z" fill="#5365A6"/>
</svg>
