<svg width="240" height="256" viewBox="0 0 240 256" fill="none" xmlns="http://www.w3.org/2000/svg">
<path d="M20.6877 201.977C17.2216 202.218 14.2305 199.601 13.9813 196.135C13.732 192.7 16.3492 189.709 19.8153 189.46C19.8854 189.46 46.0025 187.691 67.8588 172.37C80.4149 163.545 90.6187 170.135 99.0543 182.2C104.756 190.34 109.531 201.097 113.62 210.319C115.155 213.77 116.564 216.955 117.741 219.526C120.35 206.339 122.912 179.661 125.171 156.036C127.757 129.273 129.969 106.053 135.585 104.246C139.69 102.914 142.572 104.449 144.083 109.091C145.937 114.902 147.518 120.105 149.014 124.927C161.033 164.106 164.608 175.743 219.833 186.328C223.229 186.983 225.464 190.27 224.81 193.666C224.156 197.085 220.9 199.321 217.481 198.666C157.208 187.1 151.179 174.356 138.561 133.495C138.592 140.178 138.483 148.341 137.665 157.22C134.744 187.372 131.41 222.338 127.313 231.529C124.572 237.721 120.677 239.178 115.801 236.989C110.8 234.785 106.914 225.975 102.193 215.374C98.3222 206.689 93.8278 196.556 88.8038 189.366C84.4341 183.135 79.7139 179.365 75.0404 182.636C50.2787 199.991 20.7656 201.977 20.6877 201.977Z" fill="#ED1B23"/>
<path d="M52.6405 171.688C49.3769 172.841 45.8095 171.159 44.6333 167.895C43.4805 164.655 45.1552 161.056 48.4188 159.903C53.7933 157.972 58.2721 155.783 60.5855 152.769C62.486 150.284 62.9456 146.662 61.0373 141.163L60.9827 141.054C57.1349 130.702 54.0971 119.595 54.5489 109.539C55.1019 98.2056 59.7754 88.4302 71.8564 82.4715C77.706 79.2079 82.9637 76.6141 87.349 74.4253C91.7421 72.2366 95.2705 70.5074 97.6774 68.8717C101.346 66.4103 100.365 62.9675 92.4509 51.2059C88.2837 44.9746 86.4454 38.4862 86.4454 32.2783C86.4454 26.7713 87.8786 21.5448 90.4413 16.9181C92.9728 12.3458 96.5635 8.39671 100.887 5.50693C106.012 2.04076 112.134 0 118.693 0C122.159 0 124.978 2.81972 124.978 6.2859C124.978 9.75207 122.166 12.5717 118.693 12.5717C114.72 12.5717 111.012 13.8024 107.889 15.9133C105.202 17.7204 102.966 20.1583 101.416 22.978C99.8817 25.7665 99.0016 28.9601 99.0016 32.2783C99.0016 36.1261 100.154 40.192 102.842 44.1879C116.426 64.3462 116.652 71.2006 104.672 79.2702C101.681 81.3031 97.7864 83.2426 92.8871 85.6495C88.7199 87.7136 83.7738 90.1516 77.9709 93.4153C77.7917 93.5165 77.6203 93.6178 77.4412 93.6957C70.2051 97.2398 67.3698 103.191 67.0738 110.1C66.6688 118.169 69.3561 127.672 72.6976 136.692C72.7521 136.793 72.8067 136.918 72.83 137.019C76.3663 147.145 74.9876 154.56 70.54 160.363C66.4741 165.683 60.048 169.025 52.6405 171.688Z" fill="#544E51"/>
<path d="M201.837 163.782C205.171 164.686 207.134 168.16 206.199 171.47C205.288 174.812 201.837 176.775 198.519 175.848C196.634 175.326 194.749 174.742 192.857 174.088C184.841 171.299 176.881 167.194 171.312 161.851C164.847 155.643 161.451 147.9 164.037 138.577C164.192 138.078 164.34 137.572 164.527 137.05C164.574 136.949 164.605 136.824 164.652 136.723C168.017 127.703 170.681 118.2 170.315 110.131C169.98 103.222 167.168 97.2632 159.908 93.7269C159.737 93.649 159.558 93.5477 159.379 93.4465C153.552 90.175 148.606 87.7448 144.47 85.6807C139.875 83.3985 136.175 81.5836 133.114 79.574C120.861 71.5045 121.033 64.7746 134.5 44.2658C137.094 40.3479 138.216 36.2975 138.216 32.4574C138.216 29.0146 137.335 25.7432 135.754 22.9079C134.15 20.0182 131.86 17.5257 129.126 15.7419C126.142 13.7557 122.544 12.6029 118.704 12.6029C115.238 12.6029 112.426 9.79105 112.426 6.31709C112.426 2.85092 115.23 0.03125 118.704 0.03125C125.036 0.03125 130.987 1.97072 136.011 5.2811C140.428 8.20203 144.128 12.1667 146.682 16.8169C149.3 21.5215 150.772 26.8492 150.772 32.4496C150.772 38.5563 148.996 44.9902 144.945 51.1436C137.055 63.1545 136.128 66.5739 139.999 69.1132C142.235 70.6009 145.701 72.3067 149.993 74.4176C154.417 76.6063 159.636 79.1923 165.509 82.4872C177.59 88.4459 182.287 98.2212 182.824 109.554C183.299 119.61 180.238 130.741 176.39 141.1L176.359 141.178C176.266 141.451 176.196 141.7 176.118 141.934C174.988 146.054 176.741 149.723 180.012 152.839C184.148 156.811 190.481 159.997 196.993 162.256C198.613 162.832 200.248 163.331 201.837 163.782Z" fill="#544E51"/>
<path d="M135.564 233.812C132.401 232.41 130.999 228.687 132.425 225.524C133.834 222.362 137.558 220.976 140.712 222.393C158.464 230.408 182.275 239.825 201.211 242.645C212.972 244.405 222.42 243.712 226.05 238.4C226.58 237.652 226.93 236.897 227.008 236.164C227.086 235.51 226.93 234.762 226.432 233.898C225.653 232.542 224.196 231.07 221.852 229.458C211.555 222.339 188.172 215.079 141.312 209.845C137.869 209.479 135.384 206.379 135.751 202.936C136.132 199.501 139.248 197.001 142.683 197.382C191.91 202.858 217.178 210.998 228.971 219.153C232.928 221.887 235.592 224.753 237.274 227.612C239.237 230.992 239.829 234.334 239.479 237.52C239.159 240.472 238.006 243.151 236.379 245.519C229.438 255.544 215.675 257.476 199.396 255.061C179.035 252.039 154.102 242.193 135.564 233.812Z" fill="#544E51"/>
<path d="M95.9779 223.409C99.1637 222.022 102.864 223.456 104.266 226.618C105.644 229.796 104.211 233.511 101.049 234.89C85.1744 241.916 65.2809 249.666 47.6696 253.436C28.2357 257.556 11.1463 256.754 3.21695 245.234C1.63575 242.983 0.529695 240.444 0.148027 237.624C-0.303744 234.384 0.249285 230.964 2.21215 227.521C3.87124 224.585 6.55849 221.664 10.6244 218.883C21.0775 211.639 42.1237 204.434 80.9994 199.075C84.4344 198.616 87.5812 201.038 88.0563 204.442C88.5081 207.862 86.0935 211.032 82.674 211.484C46.0027 216.531 26.7635 222.926 17.7203 229.173C15.3369 230.801 13.8569 232.335 13.078 233.69C12.5951 234.539 12.4471 235.303 12.5483 235.957C12.6496 236.658 13.0079 237.39 13.5064 238.115C17.8761 244.471 30.2764 244.276 45.0525 241.129C61.6433 237.64 80.7034 230.193 95.9779 223.409Z" fill="#544E51"/>
</svg>
