<svg width="257" height="220" viewBox="0 0 257 220" fill="none" xmlns="http://www.w3.org/2000/svg">
<path d="M157.177 173.527C127.662 173.527 106.949 152.777 104.782 119.355L62.707 161.43C78.8739 197.146 113.659 219.605 157.773 219.605C207.417 219.605 244.873 191.961 256.76 146.776H200.874C192.249 164.61 176.497 173.527 157.177 173.527Z" fill="#BED836"/>
<path d="M58.7481 121.848L105.832 98.8488L57.4747 147.203L0.761719 59.1641L58.7481 121.848Z" fill="#BED836"/>
<path d="M157.767 0.632812C100.846 0.632812 59.4708 38.2943 53.582 93.3483L63.3311 102.707L108.072 83.36C115.298 60.5653 133.345 47.0092 157.174 47.0092C176.496 47.0092 192.246 55.9261 200.87 73.7625H256.757C244.867 28.5772 207.41 0.632812 157.767 0.632812Z" fill="#28246E"/>
</svg>
