<svg width="189" height="257" viewBox="0 0 189 257" fill="none" xmlns="http://www.w3.org/2000/svg">
<path d="M180.468 144.838C179.845 153.908 177.243 162.729 173.073 170.792C173.064 170.81 173.055 170.828 173.046 170.846C171.933 173.002 170.712 175.105 169.393 177.145C168.725 178.178 168.164 179.248 167.451 180.254C166.623 181.439 165.847 182.642 164.974 183.8C162.818 186.652 160.412 189.324 157.748 191.703C152.465 196.425 145.952 199.954 138.806 200.577C131.732 201.201 124.996 199.054 119.018 195.339C114.091 192.282 110.625 187.952 108.157 182.722C107.417 181.154 106.785 179.55 106.232 177.902C105.725 176.388 105.092 174.766 105.235 173.144C105.279 172.663 105.386 172.209 105.538 171.772C105.956 170.569 106.731 169.527 107.453 168.458C108.121 167.46 108.807 166.462 109.52 165.491C110.687 163.887 111.837 162.283 113.048 160.724C113.396 160.279 113.467 160.056 114.037 160.02C114.429 159.994 114.83 159.958 115.222 159.922C116.033 159.851 116.844 159.753 117.646 159.628C119.107 159.415 120.559 159.12 121.985 158.737C130.574 156.448 137.461 150.834 141.631 143.092V143.083C141.711 142.949 141.782 142.825 141.845 142.691C141.978 142.433 142.112 142.174 142.237 141.916C143.128 140.098 143.76 138.165 144.598 136.321C144.633 136.231 144.678 136.151 144.714 136.062C145.881 133.567 147.44 131.26 149.284 129.219C151.173 127.117 153.392 125.219 155.824 123.749C156.287 123.464 156.759 123.197 157.241 122.947C157.401 122.867 157.561 122.787 157.722 122.706C156.501 121.744 155.165 120.925 153.766 120.23C153.757 120.221 153.739 120.212 153.739 120.212C151.396 119.053 148.865 118.234 146.353 117.646C141.845 116.594 137.149 116.3 132.552 116.799C123.687 117.77 115.614 121.905 109.948 128.836C109.707 129.13 109.476 129.415 109.253 129.718C108.585 130.583 107.952 131.474 107.382 132.4C106.963 133.051 106.571 133.719 106.197 134.405C106.01 134.735 105.84 135.055 105.68 135.394C105.502 135.724 105.342 136.062 105.19 136.401C105.19 136.41 105.181 136.41 105.181 136.419C104.976 136.846 104.78 137.283 104.593 137.719C104.584 137.755 104.566 137.791 104.549 137.826C104.397 138.2 104.246 138.575 104.112 138.958C104.041 139.136 103.978 139.305 103.916 139.483C103.765 139.893 103.631 140.303 103.506 140.713C103.346 141.203 103.203 141.702 103.07 142.201C102.963 142.156 102.856 142.112 102.749 142.049C102.74 142.041 102.731 142.041 102.722 142.032C102.544 141.951 102.366 141.853 102.205 141.747C102.187 141.738 102.17 141.729 102.161 141.72C102.027 141.64 101.902 141.551 101.778 141.453C101.697 141.399 101.617 141.337 101.537 141.257C101.466 141.194 101.395 141.132 101.323 141.06C101.252 141.007 101.19 140.945 101.136 140.873C101.056 140.793 100.976 140.713 100.904 140.624C100.824 140.535 100.753 140.446 100.691 140.357C100.628 140.285 100.575 140.205 100.512 140.125C100.414 139.982 100.308 139.84 100.218 139.68C100.147 139.564 100.076 139.439 100.014 139.305C99.8799 139.074 99.7551 138.833 99.6482 138.584C99.568 138.396 99.4789 138.2 99.4076 138.013C99.3274 137.808 99.2473 137.612 99.176 137.408C98.882 136.597 98.6236 135.759 98.3563 134.94C98.2227 134.53 98.089 134.129 97.9375 133.737C97.7593 133.264 97.5722 132.783 97.3762 132.311C96.8595 131.019 96.3071 129.745 95.7279 128.471C95.5141 127.999 95.3537 127.705 95.3715 127.179C95.3804 126.796 95.4428 126.413 95.4606 126.021C95.5319 125.068 95.5586 124.105 95.5497 123.152C95.4963 117.147 94.2044 111.017 91.0771 105.84C85.5263 96.6188 75.3781 91.2284 65.1052 89.0456C57.9953 87.5309 50.618 87.4329 43.4279 88.3952C44.007 88.8317 44.5505 89.3396 45.0495 89.892C46.5819 91.567 47.758 93.6608 48.6579 95.6477C50.1102 98.8641 50.9299 102.339 51.2952 105.84C51.5268 108.13 51.5625 110.438 51.8387 112.728C52.0792 114.777 52.4178 116.808 52.89 118.804C54.2354 124.578 56.6053 130.235 60.5078 134.752C64.731 139.635 70.558 142.611 76.9195 143.537C78.8351 143.814 80.7685 143.921 82.7019 143.885C82.9068 143.885 83.2187 143.814 83.4147 143.867C83.5127 143.867 83.6107 143.858 83.7087 143.858C83.7622 144.054 83.8156 144.259 83.878 144.455C84.0117 144.963 84.1364 145.462 84.2611 145.97C84.5462 147.181 84.8135 148.393 85.0452 149.614C85.7223 153.16 86.1678 156.751 86.3282 160.359C86.64 167.549 85.4817 174.677 82.5861 181.297C82.0337 182.571 81.41 183.827 80.724 185.039C79.5479 187.115 78.1669 189.084 76.5275 190.821C74.0417 193.467 70.9054 195.437 67.7069 197.103C59.5099 201.388 49.8963 201.896 41.4588 197.976C33.7608 194.394 27.5329 187.97 22.8821 180.985C22.3118 180.139 21.8664 179.212 21.2872 178.365C20.6992 177.51 20.129 176.646 19.5944 175.755C18.6054 174.116 17.7055 172.432 16.8947 170.703C15.2821 167.264 13.9902 163.682 12.9745 160.02C10.9431 152.759 9.93625 145.212 9.74914 137.675C9.58877 131.189 9.98972 124.613 11.3351 118.243C11.7004 116.55 12.128 114.866 12.6804 113.218C13.3665 111.177 14.3644 109.288 15.3623 107.391C17.4382 103.453 19.6835 99.6036 22.0624 95.8526C27.1676 87.816 32.9144 80.1982 39.0799 72.9457C45.2009 65.7467 51.5001 58.6902 57.5676 51.4376C62.3789 45.682 67.1188 39.8639 71.743 33.9657C77.6857 26.3746 83.486 18.6588 88.8496 10.64C90.2485 8.55518 91.6116 6.44357 92.9125 4.29633C93.2332 3.76175 93.5361 3.21826 93.8391 2.67476C94.044 2.31837 94.2489 1.95308 94.4717 1.6056C94.5251 1.50759 94.5786 1.41849 94.6231 1.34721C94.6499 1.31158 94.6677 1.26703 94.6944 1.23139C94.739 1.16011 94.7835 1.07101 94.8191 0.990827C94.8637 0.91064 94.8815 0.875 94.8815 0.875C96.3872 3.85976 98.2939 6.67523 100.129 9.46397C105.493 17.5896 111.338 25.3945 117.325 33.0658C122.145 39.2402 127.081 45.3167 132.106 51.3218C138.272 58.6991 144.705 65.8357 150.888 73.1863C162.292 86.7469 172.36 102.089 177.43 119.205C179.88 127.5 181.065 136.196 180.468 144.838Z" fill="url(#paint0_linear_26_4568)"/>
<path opacity="0.19" d="M80.724 185.039C79.5479 187.115 78.1669 189.084 76.5275 190.821C74.0417 193.467 70.9054 195.436 67.7069 197.103C59.5099 201.388 49.8963 201.896 41.4588 197.976C33.7608 194.394 27.5329 187.97 22.8821 180.985C22.3118 180.138 21.8664 179.212 21.2872 178.365C20.6992 177.51 20.129 176.646 19.5944 175.755C18.6054 174.115 17.7055 172.431 16.8947 170.703C15.2821 167.264 13.9902 163.682 12.9745 160.02C10.9431 152.759 9.93625 145.212 9.74914 137.675C9.58877 131.188 9.98972 124.613 11.3351 118.243C11.7004 116.55 12.128 114.866 12.6804 113.218C13.3665 111.177 14.3644 109.288 15.3623 107.391C17.4382 103.452 19.6835 99.6035 22.0624 95.8525C27.1676 87.8159 32.9144 80.1981 39.0799 72.9456C45.2009 65.7465 51.5001 58.69 57.5676 51.4375C62.3789 45.6818 67.1188 39.8638 71.743 33.9656C77.6857 26.3745 83.486 18.6587 88.8496 10.6399C90.2485 8.55505 91.6116 6.44345 92.9125 4.2962C93.447 3.41414 93.9193 2.48753 94.4717 1.60547C91.3087 7.2275 70.1392 44.4256 47.3749 75.2888C22.6772 108.772 17.9113 156.642 45.7008 179.664C61.2215 192.522 72.1261 191.382 80.724 185.039Z" fill="#4F0000"/>
<path opacity="0.43" d="M97.3751 132.313C96.8583 131.021 96.3059 129.747 95.7268 128.473C95.513 128 95.3526 127.706 95.3704 127.181C95.3793 126.798 95.4417 126.415 95.4595 126.023C95.5308 125.069 95.5575 124.107 95.5486 123.154C95.4951 117.148 94.2032 111.019 91.0759 105.842C85.5252 96.6205 75.377 91.2301 65.1041 89.0472C57.9941 87.5326 50.6169 87.4346 43.4268 88.3968C43.4268 88.3968 72.1339 80.6008 89.0267 99.5963C98.4532 110.199 98.8541 123.038 97.3751 132.313Z" fill="#ECFF5F"/>
<path opacity="0.43" d="M153.738 120.211C151.395 119.053 148.865 118.233 146.352 117.645C141.844 116.594 137.148 116.3 132.551 116.799C123.686 117.77 115.614 121.904 109.947 128.836C109.707 129.13 109.475 129.415 109.252 129.718C108.584 130.582 107.951 131.473 107.381 132.4C106.962 133.05 106.57 133.718 106.196 134.405C106.009 134.734 105.84 135.055 105.679 135.393C105.501 135.723 105.341 136.062 105.189 136.4C105.189 136.409 105.18 136.409 105.18 136.418C104.975 136.846 104.779 137.282 104.592 137.719C104.583 137.755 104.566 137.79 104.548 137.826C104.396 138.2 104.245 138.574 104.111 138.957C104.04 139.136 103.978 139.305 103.915 139.483C103.764 139.893 103.63 140.303 103.505 140.713C103.345 141.203 103.202 141.702 103.069 142.201C102.962 142.156 102.855 142.111 102.748 142.049C102.739 142.04 102.73 142.04 102.721 142.031C102.543 141.951 102.365 141.853 102.205 141.746C102.187 141.737 102.169 141.728 102.16 141.719C102.026 141.639 101.902 141.55 101.777 141.452C101.697 141.399 101.617 141.336 101.536 141.256C101.465 141.194 101.394 141.131 101.323 141.06C101.251 141.007 101.189 140.944 101.135 140.873C101.055 140.793 100.975 140.713 100.904 140.623C100.824 140.534 100.752 140.445 100.69 140.356C100.628 140.285 100.574 140.205 100.512 140.125C104.004 130.814 110.161 121.842 120.942 117.244C136.133 110.767 148.116 116.425 153.738 120.211Z" fill="#ECFF5F"/>
<path d="M180.468 144.838C179.844 153.908 177.243 162.729 173.073 170.792C176.726 163.219 178.998 155.022 179.577 146.62C180.174 137.978 178.989 129.282 176.539 120.987C171.469 103.871 161.401 88.5288 149.997 74.9682C143.813 67.6177 137.381 60.481 131.215 53.1038C126.19 47.0986 121.254 41.0222 116.434 34.8478C110.447 27.1765 104.602 19.3716 99.2382 11.2459C97.6968 8.90266 94.7566 4.10032 93.8389 2.67476C94.0438 2.31837 94.2487 1.95308 94.4715 1.6056C94.5249 1.50759 94.5784 1.41849 94.6229 1.34721C94.6497 1.31158 94.6675 1.26703 94.6942 1.23139C94.7388 1.16011 94.7833 1.07101 94.8189 0.990827C94.8635 0.91064 94.8813 0.875 94.8813 0.875C96.387 3.85976 98.2937 6.67523 100.129 9.46397C105.493 17.5896 111.338 25.3945 117.325 33.0658C122.145 39.2402 127.081 45.3167 132.106 51.3218C138.272 58.6991 144.704 65.8357 150.888 73.1863C162.292 86.7469 172.36 102.089 177.43 119.205C179.88 127.5 181.065 136.196 180.468 144.838Z" fill="#ECFF5F"/>
<path opacity="0.43" d="M96.7695 26.0781C96.7695 26.0781 114.895 54.5732 140.959 83.7712C140.959 83.7712 115.518 67.9404 96.7695 26.0781Z" fill="#ECFF5F"/>
<path d="M185.288 187.971C181.18 203.376 173.963 218.388 163.013 230.114C155.084 238.614 145.301 245.216 134.556 249.626C126.207 253.047 117.342 255.186 108.379 256.184C103.327 256.754 98.2576 256.905 93.1791 256.87C86.6483 256.825 80.1263 256.246 73.7114 255.043C63.9285 253.199 54.3862 249.929 45.7081 245.02C34.8382 238.881 25.5811 230.221 18.6226 219.868C13.9984 212.998 10.4434 205.452 7.45869 197.745C4.29574 189.566 1.93467 181.039 0.847682 172.316C-1.30847 154.889 2.21087 137.613 9.13372 121.602C7.86854 124.926 6.9241 128.374 6.30042 131.875C5.5431 136.152 5.29363 140.455 5.454 144.75C5.80148 154.239 8.20711 163.656 11.7799 172.45C13.9182 177.725 16.3506 182.839 19.7808 187.4C22.5428 191.08 25.6969 194.493 29.2429 197.442C37.235 204.088 47.2851 208.009 57.7719 206.645C64.2314 205.799 70.5662 203.18 75.9031 199.473C80.8837 196.025 84.599 191.339 87.2987 185.939C89.2321 182.072 90.5953 178.027 91.4417 173.876C92.6356 168.102 92.8405 162.133 92.2792 156.181C91.6199 149.285 90.132 142.504 87.6016 136.045C84.9554 129.318 81.9707 122.591 78.1662 116.426C74.5132 110.501 70.0227 105.084 64.7571 100.513C63.4652 99.3992 62.1198 98.33 60.7477 97.3143C59.9904 96.753 60.3557 96.2719 61.0596 96.7085C61.6832 97.0916 62.2802 97.5282 62.8771 97.9469C67.4567 101.217 71.6443 105.03 75.4398 109.173C81.3648 115.624 86.3008 122.974 89.9716 130.931C92.199 135.778 93.9542 140.829 95.2105 146.015C96.5826 151.681 97.5716 157.687 97.5716 163.531C98.5695 162.222 99.5941 160.912 100.637 159.638C108.165 150.434 116.817 142.095 126.501 135.19C129.602 132.98 132.818 131.011 136.106 129.104C137.104 128.525 138.155 128.035 139.189 127.518C139.759 127.233 142.049 126.405 140.338 127.536C139.786 127.91 139.198 128.222 138.628 128.57C137.549 129.22 136.498 129.888 135.465 130.61C131.963 133.042 128.613 135.599 125.397 138.406C116.514 146.148 108.78 155.281 102.214 165.064C101.813 165.67 101.412 166.276 101.02 166.881C100.619 167.496 100.218 168.12 99.8436 168.744C99.6208 169.082 99.4159 169.421 99.211 169.759C98.2309 171.363 98.418 172.673 98.81 174.437C98.9437 175.052 99.0862 175.657 99.2466 176.263C99.8881 178.767 100.708 181.217 101.715 183.596C103.978 188.951 107.212 194.145 111.765 197.843L111.756 197.852C119.819 204.293 130.627 208.044 140.971 206.619C155.039 204.676 166.453 193.878 173.687 182.233C176.592 177.564 178.81 172.299 180.574 167.113C182.241 162.204 183.417 157.125 184.023 151.975C184.673 146.398 184.62 140.776 183.925 135.234C183.916 135.225 183.916 135.216 183.916 135.216C183.345 130.601 182.33 126.039 180.913 121.602C182.561 125.825 183.996 130.138 185.154 134.521C189.814 152.038 189.948 170.436 185.288 187.971Z" fill="url(#paint1_linear_26_4568)"/>
<path opacity="0.21" d="M91.4421 173.876C91.5223 178.945 90.0789 186.519 83.3966 195.411C69.8895 213.399 38.2333 216.366 19.113 190.154C6.48796 172.842 4.92875 155.219 5.45443 144.75C5.80191 154.239 8.20754 163.656 11.7803 172.45C13.9187 177.725 16.351 182.839 19.7813 187.401C22.5433 191.081 25.6973 194.493 29.2434 197.442C37.2354 204.089 47.2856 208.009 57.7723 206.646C64.2318 205.799 70.5666 203.18 75.9036 199.473C80.8841 196.025 84.5994 191.339 87.2991 185.94C89.2325 182.073 90.5957 178.028 91.4421 173.876Z" fill="#ECFF5F"/>
<path opacity="0.24" d="M100.378 256.771C97.9814 256.86 95.5847 256.887 93.1791 256.869C86.6483 256.824 80.1263 256.245 73.7114 255.042C63.9285 253.198 54.3862 249.928 45.7081 245.019C34.8382 238.88 25.5811 230.22 18.6226 219.867C13.9984 212.997 10.4434 205.451 7.45869 197.744C4.29574 189.565 1.93467 181.038 0.847682 172.316C-1.30847 154.888 2.21087 137.612 9.13372 121.602C7.86854 124.925 6.9241 128.373 6.30042 131.874C3.87698 145.595 6.59445 159.673 11.7799 172.449C13.9182 177.724 16.3506 182.838 19.7808 187.4C21.9904 190.349 24.4584 193.129 27.1759 195.615C36.1569 228.794 65.1313 253.751 100.378 256.771Z" fill="#00593D"/>
<path opacity="0.23" d="M102.865 200.637C102.865 200.637 125.021 228.027 160.316 211.975C160.316 211.975 123.555 238.169 102.865 200.637Z" fill="#ECFF5F"/>
<path opacity="0.21" d="M171.505 190.154C152.385 216.366 120.728 213.399 107.221 195.411C101.51 187.828 99.6302 181.191 99.2471 176.264C99.8886 178.767 100.708 181.217 101.715 183.596C103.978 188.951 107.212 194.145 111.765 197.843L111.756 197.852C119.82 204.294 130.627 208.045 140.971 206.619C155.04 204.677 166.453 193.878 173.688 182.233C176.592 177.564 178.811 172.299 180.575 167.113C182.241 162.204 183.417 157.126 184.023 151.976C184.673 146.398 184.62 140.776 183.925 135.234C184.103 135.956 190.99 163.434 171.505 190.154Z" fill="#ECFF5F"/>
<defs>
<linearGradient id="paint0_linear_26_4568" x1="157.508" y1="54.2038" x2="32.3541" y2="220.733" gradientUnits="userSpaceOnUse">
<stop stop-color="#FCD204"/>
<stop offset="0.1616" stop-color="#FBB103"/>
<stop offset="0.5678" stop-color="#F86302"/>
<stop offset="0.8572" stop-color="#F73200"/>
<stop offset="1" stop-color="#F61F00"/>
</linearGradient>
<linearGradient id="paint1_linear_26_4568" x1="175.646" y1="111.89" x2="1.21396" y2="238.202" gradientUnits="userSpaceOnUse">
<stop stop-color="#A6D134"/>
<stop offset="0.1926" stop-color="#A3D037"/>
<stop offset="0.3547" stop-color="#9ACE42"/>
<stop offset="0.5057" stop-color="#8ACA53"/>
<stop offset="0.6492" stop-color="#74C56C"/>
<stop offset="0.7435" stop-color="#61C080"/>
<stop offset="0.995" stop-color="#19AAAF"/>
</linearGradient>
</defs>
</svg>
