<svg width="257" height="214" viewBox="0 0 257 214" fill="none" xmlns="http://www.w3.org/2000/svg">
<path d="M256.934 106.179C257.034 110.616 253.993 115.301 249.806 119.638C238.74 131.103 220.745 132.2 208.084 122.529L192.88 110.915C195.273 109.718 197.466 107.874 198.962 105.382C203.847 97.1569 202.302 86.4398 195.024 82.1031C187.746 77.7663 178.475 82.0532 174.636 90.926C173.938 92.571 173.49 94.2658 173.29 96.0104L172.144 95.1132L151.208 79.0125C150.111 70.5385 148.716 62.4134 146.921 54.6372C146.772 54.1387 146.672 53.6402 146.572 53.1418C156.592 50.2008 157.489 42.1754 157.19 37.8386C157.04 35.7949 156.492 33.801 155.395 32.1062C151.059 25.2771 142.385 27.2212 138.647 28.4175C138.58 28.2181 138.497 28.0187 138.397 27.8193C135.008 19.9435 130.92 12.8652 125.936 6.73393C162.125 -12.208 255.489 9.62508 256.934 106.179Z" fill="#284773"/>
<g style="mix-blend-mode:multiply" opacity="0.47">
<path d="M146.672 53.0938C146.705 53.4261 146.738 53.7584 146.772 54.0907C146.722 53.7916 146.622 53.4427 146.572 53.1436C146.572 53.1436 146.622 53.1436 146.672 53.0938Z" fill="#284773"/>
</g>
<g style="mix-blend-mode:multiply" opacity="0.47">
<path d="M256.934 106.179C257.034 110.616 253.993 115.301 249.806 119.638C248.776 120.701 247.696 121.665 246.566 122.529C245.071 39.7328 175.833 12.1174 133.562 18.0493C131.269 14.0116 128.777 10.2232 125.936 6.73393C162.125 -12.208 255.489 9.62508 256.934 106.179Z" fill="#284773"/>
</g>
<path d="M145.525 49.0066C145.259 49.0398 144.977 49.073 144.678 49.1062C142.983 49.2558 140.441 49.1062 137.849 48.6576C138.447 50.8841 139.012 53.1106 139.544 55.3372C141.189 62.5152 142.435 69.7929 143.332 77.2201C143.332 77.2201 140.042 77.3198 134.858 77.7186C130.222 78.0675 124.091 78.6158 117.362 79.5629C116.531 79.6626 115.683 79.7789 114.819 79.9119C116.016 81.3076 117.162 83.1519 118.109 85.0461C119.754 88.4358 120.801 92.1245 120.801 94.4673C120.801 99.6016 116.614 103.789 111.43 103.789C106.296 103.789 102.108 99.6016 102.108 94.4673C102.108 92.7226 102.457 90.2801 103.105 87.688C103.654 85.5446 104.401 83.3015 105.398 81.4571C103.853 81.7562 102.358 82.0553 100.812 82.4042C94.9303 83.7003 89.1979 85.2954 84.1135 87.2893L61.8816 75.625L57.8439 73.5314C58.1929 75.2262 58.2926 77.2201 58.1929 79.214C58.0433 83.1021 57.1461 87.04 55.9996 89.1336C53.4574 93.6199 47.7748 95.2648 43.2885 92.7725C38.8023 90.2303 37.1573 84.5477 39.6995 80.0614C40.7962 77.9678 43.1888 75.0268 45.9304 72.5843C47.2763 71.3381 48.7717 70.2415 50.1675 69.5436L45.8307 67.2507L26.7891 57.2812C32.4218 16.0076 73.7951 -2.93433 119.655 5.58956C124.689 14.0138 128.826 22.6872 132.216 31.56C132.615 32.5237 132.98 33.4708 133.313 34.4013C135.456 33.1053 137.749 31.9588 139.843 31.2609C141.089 30.8621 142.285 30.5631 143.232 30.5132C148.367 30.0646 152.853 33.9527 153.252 39.0869C153.65 43.9221 150.261 48.209 145.525 49.0066Z" fill="#F57860"/>
<g style="mix-blend-mode:multiply" opacity="0.5">
<path d="M119.655 5.58878C122.28 10.0418 124.689 14.5447 126.882 19.0974C85.2599 12.4677 47.9742 28.5684 38.7524 63.5113L26.7891 57.2804C32.4218 15.957 73.7951 -2.93511 119.655 5.58878Z" fill="#F57860"/>
</g>
<path d="M212.719 131.6C208.681 150.841 195.621 161.658 173.738 164.25C157.389 166.244 140.889 163.004 126.483 155.277C124.921 154.413 123.376 153.5 121.847 152.536C121.449 154.929 120.801 157.072 120.103 158.567C120.003 158.717 119.903 158.916 119.804 159.066C117.212 163.552 111.479 165.048 107.043 162.455C102.557 159.863 101.061 154.131 103.653 149.695C104.052 149.047 104.55 148.349 105.149 147.551C106.295 146.056 107.741 144.411 109.386 142.965C108.222 141.869 107.109 140.755 106.046 139.625C94.1323 127.014 87.6522 111.262 86.7051 92.2705C86.7051 92.2705 90.8922 90.7751 97.8709 88.9805C97.5219 90.5258 97.3724 92.1708 97.5219 93.8157C98.5687 103.287 106.295 110.864 114.719 109.916C123.143 109.019 127.979 99.9968 125.636 90.6255C125.087 88.3824 124.091 86.2888 122.795 84.5441C130.122 83.7466 138.147 83.3977 146.322 83.8463L174.436 104.034L177.676 106.377C176.979 104.483 176.979 101.741 177.477 98.95C178.175 94.7628 179.82 90.4261 181.465 88.3824C184.655 84.2949 190.537 83.6469 194.575 86.8371C198.612 90.0273 199.31 95.9093 196.12 99.947C194.525 101.991 191.235 104.882 187.845 106.876C185.602 108.222 183.359 109.119 181.515 109.119L186.599 112.808L212.719 131.6Z" fill="#F5A64D"/>
<g style="mix-blend-mode:multiply" opacity="0.35">
<path d="M212.171 133.894C207.635 151.74 194.724 161.709 173.738 164.251C157.389 166.245 140.889 163.005 126.483 155.279C124.921 154.415 123.376 153.501 121.847 152.537C121.449 154.93 120.801 157.073 120.103 158.569C120.003 158.718 119.903 158.918 119.804 159.117C117.212 163.554 111.479 165.049 107.043 162.457C102.557 159.865 101.061 154.132 103.653 149.696C104.052 149.065 104.55 148.35 105.149 147.553C106.295 146.057 107.741 144.412 109.386 142.967C108.239 141.87 107.093 140.773 106.046 139.627C94.1323 127.015 87.6522 111.214 86.7051 92.2719C86.7051 92.2719 90.1445 91.0257 95.9268 89.4805C98.6186 102.889 104.152 114.803 113.672 124.025C143.033 152.438 165.065 150.643 181.365 148.649C195.173 147.004 205.441 142.119 212.171 133.894Z" fill="#F5A64D"/>
</g>
<path d="M130.372 162.754C130.372 162.754 123.543 201.485 84.2131 212.95C79.8265 214.196 75.8387 210.009 77.2843 205.722L86.4064 178.705L77.4837 171.676C77.4837 171.676 44.4349 180.001 32.5713 148.946C32.5713 148.946 41.6934 146.154 52.6598 142.117C54.5041 141.469 56.3983 140.721 58.3423 140.023C57.0962 139.026 55.8998 137.93 54.9527 136.783C53.4573 135.288 52.3607 133.693 51.7625 132.446C49.6191 127.761 51.7127 122.228 56.3983 120.084C61.084 117.941 66.617 120.034 68.7604 124.72C69.3586 125.966 69.9069 127.811 70.3555 129.854C70.7045 131.4 71.0036 133.045 71.1033 134.689C72.8645 133.892 74.5593 133.094 76.1877 132.297C81.6709 129.555 86.1571 126.814 88.5996 124.222L90.4939 127.96C93.4348 133.693 97.0737 139.026 101.311 143.812C96.0269 151.289 96.4755 161.557 102.906 166.592C109.536 171.776 119.156 168.785 124.091 160.61C126.085 161.457 128.178 162.205 130.372 162.754Z" fill="#F68CA8"/>
<g style="mix-blend-mode:multiply" opacity="0.5">
<path d="M93.9333 196.102C92.2884 192.364 91.74 188.127 91.7899 184.089C91.8397 180.201 92.4877 176.313 93.9333 172.774C91.5905 171.528 89.3474 170.082 87.2538 168.437C85.3097 166.892 82.0198 163.303 82.0198 163.303C67.4146 170.132 41.6933 161.808 41.9924 145.906C36.3597 147.751 32.5713 148.947 32.5713 148.947C44.4349 180.002 77.4837 171.677 77.4837 171.677L86.4064 178.706L77.2843 205.723C75.8388 210.01 79.8265 214.197 84.2131 212.951C91.1917 210.907 97.1235 208.016 102.208 204.626C98.6688 202.782 95.678 200.09 93.9333 196.102Z" fill="#F68CA8"/>
</g>
<path d="M73.2965 129.059C74.094 120.984 66.2182 111.314 56.149 114.554C54.6536 115.002 53.208 115.7 51.9618 116.647C41.4939 124.424 49.8683 138.73 49.8683 138.73C37.4064 143.266 26.789 145.858 26.789 145.858C-2.42156 124.623 -10.6464 87.2873 21.9538 59.6719L40.7462 69.7909C40.7462 69.7909 30.029 78.1652 33.1196 88.5335C34.4156 93.0197 38.1043 96.3595 42.4908 97.8051C49.0707 99.8986 59.4888 100.297 61.2334 82.5518L80.2253 91.0757C80.2253 91.0757 82.3188 113.357 86.4063 120.685C86.4063 120.685 76.2375 128.312 73.2965 129.059Z" fill="#7967FF"/>
<g style="mix-blend-mode:multiply" opacity="0.5">
<path d="M37.2569 67.9465L21.9538 59.6719C-10.6464 87.2873 -2.42156 124.623 26.789 145.858C26.789 145.858 32.2223 144.512 39.8489 142.119C38.852 141.222 5.35461 102.79 37.2569 67.9465Z" fill="#7967FF"/>
</g>
<g style="mix-blend-mode:screen" opacity="0.4">
<path d="M162.523 110.318C159.433 119.789 141.338 111.265 137.151 106.779C135.456 104.985 134.011 102.791 133.512 100.399C132.964 97.9562 133.413 95.2146 135.107 93.3703C137.65 90.5788 142.036 90.5788 145.675 91.5259C150.759 92.8718 155.445 95.6134 159.034 99.4517C160.978 101.446 162.623 103.888 162.872 106.68C162.972 108.125 162.822 109.321 162.523 110.318Z" fill="#F5A64D"/>
</g>
<g style="mix-blend-mode:screen" opacity="0.4">
<path d="M128.228 41.0801C125.088 50.5511 107.043 42.077 102.856 37.5409C101.161 35.7464 99.7154 33.603 99.1671 31.1605C98.6686 28.718 99.1172 25.9764 100.762 24.132C103.304 21.3406 107.741 21.3406 111.38 22.2877C116.464 23.6335 121.15 26.3751 124.739 30.2134C126.633 32.2073 128.328 34.6996 128.527 37.4412C128.677 38.8868 128.527 40.0831 128.228 41.0801Z" fill="#F57860"/>
</g>
<g style="mix-blend-mode:screen" opacity="0.4">
<path d="M202.999 49.3535C199.859 58.7747 181.814 50.3006 177.627 45.8144C175.932 43.97 174.487 41.8266 173.938 39.3841C173.39 36.9914 173.888 34.2498 175.533 32.4054C178.076 29.614 182.512 29.614 186.151 30.5611C191.235 31.8571 195.921 34.6486 199.51 38.4868C201.404 40.4807 203.049 42.9232 203.298 45.7147C203.448 47.1602 203.298 48.3566 202.999 49.3535Z" fill="#284773"/>
</g>
</svg>
