<svg width="187" height="257" viewBox="0 0 187 257" fill="none" xmlns="http://www.w3.org/2000/svg">
<path fill-rule="evenodd" clip-rule="evenodd" d="M185.718 83.5165C185.866 84.633 185.904 85.7494 185.829 86.8659V116.117H124.76V88.7638C122.304 73.4686 109.13 62.0809 93.4995 62.0809C76.083 62.0809 61.9042 76.2597 61.9042 93.6762V164.124C61.9042 181.54 76.083 195.719 93.4995 195.719C109.13 195.719 122.304 184.331 124.76 169.036V143.246H185.829V170.934C185.904 172.05 185.866 173.167 185.718 174.283C180.582 221.397 140.948 256.9 93.4995 256.9C42.3665 256.9 0.8349 215.257 0.8349 164.124V93.6762C0.8349 42.5432 42.3665 0.899902 93.4995 0.899902C140.948 0.899902 180.582 36.4027 185.718 83.5165ZM10.9945 93.6762V164.124C10.9945 209.674 48.0603 246.629 93.4995 246.629C135.701 246.629 170.981 215.033 175.558 173.167C175.632 172.423 175.67 171.678 175.67 170.934V153.406H134.919V169.817L134.808 170.599C131.682 191.03 114.265 205.879 93.4995 205.879C70.5008 205.879 51.7446 187.122 51.7446 164.124V93.6762C51.7446 70.6775 70.5008 51.9213 93.4995 51.9213C114.265 51.9213 131.682 66.7699 134.808 87.2008L134.919 87.9823V105.957H175.67V86.8659C175.67 86.1216 175.632 85.3773 175.558 84.633C170.981 42.7664 135.701 11.1712 93.4995 11.1712C48.0603 11.1712 10.9945 48.1254 10.9945 93.6762Z" fill="#5365A6"/>
<path d="M92.1598 256.9L90.2618 256.453C52.4145 248.75 24.8384 214.475 24.8384 175.065V121.475C24.8384 83.628 55.2056 52.4793 92.6064 52.0327H94.3927V62.1923H92.718C60.8994 62.6389 35.1096 89.2102 35.1096 121.475V175.065C35.1096 209.674 59.1131 239.706 92.2714 246.517L93.9461 246.852L92.1598 256.9Z" fill="#5365A6"/>
<path d="M110.246 230.441C96.2906 230.441 83.005 225.752 72.2872 216.82C58.7782 205.656 51.4097 189.021 51.8563 171.269L51.9679 169.595L62.1275 170.041V171.493C61.681 186.118 67.8214 199.85 78.8741 209.005C90.4851 218.718 106.004 222.402 121.634 219.053C127.886 217.713 134.361 214.699 140.948 210.233C152.894 201.86 173.325 184.778 175.893 164.124L186.053 165.464C183.038 190.025 160.039 209.228 146.754 218.606C139.05 223.854 131.347 227.315 123.755 228.989C119.178 229.994 114.712 230.441 110.246 230.441Z" fill="#5365A6"/>
<path d="M161.826 115.893H151.555V85.8608C151.555 18.7627 104.999 11.5058 85.0146 11.5058V1.34619C122.08 1.34619 161.826 23.5634 161.826 85.8608V115.893Z" fill="#5365A6"/>
<path d="M10.6596 159.435H0.5V118.238C0.5 67.44 39.6871 24.457 86.0194 24.457C99.3051 24.457 110.246 28.9228 118.508 37.5194C136.259 56.164 135.031 87.7592 135.031 89.099L124.872 88.6524C124.872 88.4291 125.876 59.9599 111.139 44.553C104.887 37.966 96.4023 34.7283 86.0194 34.7283C45.1577 34.7283 10.6596 72.9106 10.6596 118.238V159.435Z" fill="#5365A6"/>
<path d="M100.868 206.325C98.7096 206.325 96.4767 206.251 94.1694 206.102L94.8393 195.83C112.479 197.17 126.211 193.151 135.589 184.219C149.657 170.71 149.433 150.28 149.433 150.056L159.705 149.833C159.705 150.838 159.928 175.065 142.623 191.588C132.352 201.301 118.396 206.325 100.868 206.325Z" fill="#5365A6"/>
</svg>
