<svg width="223" height="257" viewBox="0 0 223 257" fill="none" xmlns="http://www.w3.org/2000/svg">
<path d="M165.755 162.338C163.784 127.78 163.381 110.279 163.424 101.502C163.447 96.7007 159.683 92.7373 154.886 92.526L16.5468 86.4336C2.9324 127.355 0.561611 190.552 0.375 225.095C81.0672 206.427 136.986 229.838 136.986 229.838C81.0038 220.12 22.989 235.227 0.986469 249.661C4.58958 249.125 34.8628 244.883 82.6986 246.048C130.004 247.201 174.437 256.234 174.437 256.234C174.437 256.234 166.709 179.058 165.755 162.338ZM51.2517 120.198C46.0125 120.198 41.7662 115.952 41.7662 110.713C41.7662 105.474 46.0125 101.227 51.2517 101.227C56.4897 101.227 60.7372 105.474 60.7372 110.713C60.736 115.952 56.4897 120.198 51.2517 120.198ZM140.413 120.198C135.175 120.198 130.928 115.952 130.928 110.713C130.928 105.474 135.174 101.227 140.413 101.227C145.652 101.227 149.898 105.474 149.898 110.713C149.898 115.952 145.651 120.198 140.413 120.198Z" fill="#048ED6"/>
<path d="M156.457 63.0774C147.692 23.0112 134.405 2.69531 116.966 2.69531C116.121 2.69531 115.287 2.75868 114.458 2.85492C117.08 5.02501 120 8.13519 122.8 12.5646C132.944 17.5678 141.817 35.7043 148.201 64.8837C148.698 67.1653 150.957 68.6065 153.231 68.1089C155.512 67.6101 156.957 65.3578 156.457 63.0774Z" fill="#003159"/>
<path d="M105.24 6.10547C92.917 13.6391 82.914 33.6558 75.4108 65.9172C74.8815 68.1906 76.2958 70.4616 78.5691 70.9897C78.8919 71.0648 79.2135 71.1001 79.5303 71.1001C81.4516 71.1001 83.1898 69.782 83.6428 67.8314C90.8432 36.8693 100.435 17.6941 111.093 12.5488L105.24 6.10547Z" fill="#003159"/>
<path d="M182.292 81.8867L199.259 236.12C201.896 235.11 204.64 234.186 207.486 233.38L182.292 81.8867Z" fill="#B3B3B3"/>
<path d="M173.703 89.0469C173.703 89.0469 172.897 127.162 175.786 161.806C179.702 208.75 184.684 252.392 183.896 243.509C186.483 242.031 189.687 240.297 192.646 238.921C192.646 238.921 184.086 185.617 181.164 163.211C177.286 133.467 173.703 89.0469 173.703 89.0469Z" fill="#B3B3B3"/>
<path d="M199.479 74.7209C199.479 74.7209 197.266 65.395 188.782 62.2743C187.595 61.8377 186.335 61.6652 185.071 61.6393C172.872 61.3999 95.8074 59.8836 54.6556 59.0702C37.708 58.7357 22.3543 69.2998 16.9085 85.3507L16.8076 85.6476L160.587 87.4186C163.817 87.4585 166.838 85.7638 168.432 82.9529C170.881 78.635 174.979 72.5132 179.421 70.572C179.499 70.538 179.578 70.5039 179.656 70.4723C185.384 68.0862 191.817 71.8795 192.748 78.0153L212.859 232.033C215.974 231.353 219.195 230.838 222.503 230.506L199.479 74.7209Z" fill="#048ED6"/>
<path d="M51.2568 114.348C51.1312 114.348 51.0045 114.342 50.8766 114.331C48.5516 114.123 46.8357 112.071 47.0434 109.747C47.1408 108.654 49.5128 82.6741 56.4573 56.2188C66.2092 19.0703 79.9479 0.234375 97.2945 0.234375C114.696 0.234375 127.98 19.1044 136.77 56.3198C143.022 82.7798 144.711 108.763 144.781 109.857C144.927 112.186 143.159 114.193 140.829 114.34C138.52 114.471 136.493 112.718 136.346 110.389C136.329 110.127 134.621 83.9417 128.524 58.1741C118.846 17.2723 106.199 8.68702 97.2945 8.68702C88.3431 8.68702 75.4106 17.3052 64.6318 58.3642C57.8657 84.1377 55.4855 110.237 55.462 110.498C55.2649 112.694 53.4199 114.348 51.2568 114.348Z" fill="#003159"/>
</svg>
