<svg width="199" height="257" viewBox="0 0 199 257" fill="none" xmlns="http://www.w3.org/2000/svg">
<path d="M8.49285 0.046875C3.93622 0.046875 0.242188 3.74094 0.242188 8.29757V247.794C0.242188 252.351 3.93622 256.045 8.49285 256.045C13.0495 256.045 16.7435 252.351 16.7435 247.794V8.29757C16.7435 3.73882 13.0516 0.046875 8.49285 0.046875Z" fill="#451E2E"/>
<path d="M133.308 153.749C149.028 150.685 165.109 142.75 175.524 132.365C190.298 117.589 198.434 97.9593 198.434 77.0921C198.434 34.6158 163.833 0.0617186 121.304 0.0617186H32.685C32.6363 0.0617186 32.5896 0.046875 32.5409 0.046875C30.2583 0.046875 28.1941 0.973031 26.6999 2.47142C25.2037 3.96557 24.2754 6.02986 24.2754 8.31241V146.993C24.2754 147.042 24.2902 147.088 24.2902 147.137V247.796C24.2902 252.353 27.9843 256.047 32.5409 256.047C37.0975 256.047 40.7916 252.353 40.7916 247.796V155.246H81.424L47.3425 218.091C45.1702 222.095 46.6559 227.103 50.6615 229.275C51.9119 229.955 53.2598 230.273 54.5865 230.273C57.5155 230.273 60.3533 228.709 61.8475 225.954L93.9198 166.817L143.409 251.967C144.943 254.587 147.703 256.047 150.536 256.047C151.952 256.047 153.387 255.682 154.697 254.915C158.628 252.614 159.951 247.561 157.647 243.625L61.661 79.0652C59.3572 75.1338 54.3004 73.8092 50.3732 76.1151C46.4418 78.4167 45.1193 83.4714 47.4231 87.4028L77.4841 138.744H40.7916V16.5652H121.304C154.735 16.5652 181.933 43.7185 181.933 77.0942C181.933 93.5532 175.513 109.039 163.863 120.69C154.436 130.089 138.401 137.14 124.25 138.418L116.468 125.242L158.796 47.1942C160.968 43.1886 159.482 38.1784 155.477 36.0061C151.469 33.8338 146.461 35.3216 144.291 39.325L106.683 108.671L65.3169 38.6405C63.0004 34.7218 57.9436 33.4184 54.0164 35.7327C50.0935 38.0492 48.7922 43.1081 51.1086 47.0332L171.745 251.99C173.284 254.597 176.032 256.045 178.855 256.045C180.282 256.045 181.727 255.678 183.043 254.898C186.968 252.582 188.267 247.521 185.951 243.598L133.308 153.749Z" fill="#451E2E"/>
</svg>
