<svg width="257" height="199" viewBox="0 0 257 199" fill="none" xmlns="http://www.w3.org/2000/svg">
<path d="M179.325 19.2352C182.917 18.3869 185.142 14.787 184.293 11.1945C183.445 7.60208 179.845 5.37748 176.253 6.22576C172.66 7.07405 170.436 10.674 171.284 14.2664C172.132 17.8589 175.732 20.0835 179.325 19.2352Z" fill="#FFA0E6"/>
<path d="M178.599 13.5864C178.599 12.9711 178.101 12.4727 177.486 12.4727C176.871 12.4727 176.372 12.9711 176.372 13.5864C176.372 14.2016 176.871 14.7001 177.486 14.7001C178.1 14.7009 178.599 14.2016 178.599 13.5864Z" fill="#020300"/>
<path d="M180.437 17.3423L176.738 17.668L177.773 29.4178L181.471 29.0921L180.437 17.3423Z" fill="#FFA0E6"/>
<path d="M194.242 18.4302C197.934 18.4302 200.926 15.4378 200.926 11.7464C200.926 8.05497 197.934 5.0625 194.242 5.0625C190.551 5.0625 187.559 8.05497 187.559 11.7464C187.559 15.4378 190.551 18.4302 194.242 18.4302Z" fill="#FFA0E6"/>
<path d="M193.241 12.7465C193.241 12.1313 192.743 11.6328 192.127 11.6328C191.512 11.6328 191.014 12.1313 191.014 12.7465C191.014 13.3618 191.512 13.8602 192.127 13.8602C192.742 13.8602 193.241 13.3618 193.241 12.7465Z" fill="#020300"/>
<path d="M196.214 15.4208L192.515 15.7461L193.548 27.4971L197.247 27.1718L196.214 15.4208Z" fill="#FFA0E6"/>
<path d="M174.796 1.89685C176.473 0.484382 179.156 0.452978 180.865 1.82518" stroke="#020300" stroke-linecap="round" stroke-linejoin="round"/>
<path d="M189.608 1.58871C191.315 1.40913 193.021 1.23036 194.728 1.05078" stroke="#020300" stroke-linecap="round" stroke-linejoin="round"/>
<path d="M242.332 181.312C233.205 187.974 222.792 192.824 211.704 195.698C203.943 197.703 195.848 198.735 187.634 198.735C185.873 198.735 184.106 198.691 182.331 198.594C170.144 197.933 158.536 195.022 148.093 190.106C139.062 185.858 130.915 180.125 124.023 173.062C119.739 168.673 116.025 163.883 112.883 158.788C93.3212 127.196 95.572 84.0903 120.392 55.357C120.444 55.2829 120.503 55.2161 120.562 55.1492C132.475 41.4393 149.586 31.7702 168.257 27.8042C173.589 26.6752 179.048 26.014 184.551 25.8514C201.469 25.361 217.229 29.5203 230.352 37.7559C235.253 40.8377 239.791 44.4848 243.883 48.6659C251.896 56.8725 254.837 68.1457 252.751 78.6023C251.481 84.9745 248.339 91.0424 243.341 95.9288C230.478 108.503 210.062 108.591 197.087 96.3669C196.745 96.048 196.411 95.7211 196.084 95.3869C194.294 93.5597 190.707 92.5426 186.504 92.661C183.125 92.7576 179.641 93.6265 176.686 94.9858C174.48 96.0029 172.572 97.2954 171.227 98.7658C171.153 98.8399 171.079 98.914 171.012 98.9961C164.743 106.207 165.16 119.516 171.858 126.378C177.807 132.469 190.335 133.59 199.322 129.423C200.607 128.836 201.818 128.139 202.924 127.328C212.498 120.34 224.543 119.189 234.823 123.199C240.549 125.434 245.724 129.281 249.616 134.614C260.505 149.526 257.238 170.432 242.332 181.312Z" fill="#FFA0E6"/>
<path d="M252.751 78.6003C250.709 78.1921 248.875 76.7884 247.983 74.8944C246.669 72.1017 247.196 68.3072 244.79 66.3761C243.022 64.95 240.497 65.2624 238.232 65.1287C231.348 64.7349 225.139 59.0537 224.128 52.2289C223.326 46.7626 225.94 41.0217 230.352 37.7539C235.254 40.8357 239.792 44.4829 243.884 48.6639C251.898 56.8697 254.839 68.1437 252.751 78.6003Z" fill="#FC77C8"/>
<path d="M201.011 89.7847C200.216 92.236 198.849 94.4787 197.089 96.3647C196.747 96.0458 196.413 95.7188 196.086 95.3846C194.296 93.5574 190.709 92.5404 186.506 92.6588C183.127 92.7554 179.643 93.6243 176.688 94.9836C172.574 92.2948 169.863 87.4308 169.937 82.4848C170.041 76.3131 174.356 70.4756 180.179 68.4189C185.994 66.3614 192.923 68.1145 197.193 72.5701C201.463 77.033 202.926 83.9174 201.011 89.7847Z" fill="#FC77C8"/>
<path d="M176.064 46.8055C173.948 52.242 167.189 55.7176 161.858 53.3629C159.481 52.308 157.246 50.2287 154.698 50.7119C151.92 51.2313 150.672 54.351 149.21 56.7644C145.741 62.4836 138.53 65.6693 131.965 64.3695C126.989 63.3823 122.644 59.8761 120.394 55.3536C120.446 55.2795 120.505 55.2127 120.564 55.1458C132.477 41.4359 149.588 31.7668 168.259 27.8008C169.633 28.6326 170.91 29.6207 172.054 30.7642C176.161 34.9002 178.182 41.3763 176.064 46.8055Z" fill="#FC77C8"/>
<path d="M199.176 140.78C197.625 148.244 192.857 155.113 186.091 158.619C179.325 162.131 170.636 161.976 164.316 157.705C158.003 153.428 154.609 145.02 156.748 137.698C157.297 135.811 158.181 133.777 157.409 131.964C156.028 128.712 151.356 129.447 147.836 129.142C140.416 128.488 135.263 120.074 136.673 112.758C138.077 105.443 144.643 99.873 151.839 97.9573C158.167 96.2791 164.88 97.0143 171.23 98.7593C171.156 98.8334 171.082 98.9075 171.015 98.9896C164.746 106.201 165.163 119.51 171.861 126.372C177.81 132.462 190.338 133.583 199.325 129.417C199.971 133.182 199.957 137.037 199.176 140.78Z" fill="#FC77C8"/>
<path d="M242.333 181.309C233.206 187.971 222.794 192.821 211.705 195.695C210.984 194.796 210.317 193.853 209.707 192.873C205.347 185.832 204.3 176.549 208.051 169.167C211.809 161.785 220.691 157.046 228.719 159.074C230.784 159.601 232.752 160.522 234.868 160.715C236.985 160.916 239.413 160.136 240.282 158.205C241.233 156.096 239.925 153.586 238.106 152.167C236.294 150.741 234.029 150.028 232.054 148.832C226.766 145.631 224.033 138.724 225.704 132.776C226.944 128.356 230.532 124.748 234.824 123.195C240.55 125.431 245.726 129.278 249.618 134.61C260.506 149.523 257.239 170.429 242.333 181.309Z" fill="#FC77C8"/>
<path d="M148.095 190.102C139.064 185.854 130.917 180.121 124.025 173.058C119.74 168.67 116.027 163.879 112.885 158.785C117.957 155.005 124.507 153.162 130.79 154.054C139.665 155.309 147.568 161.956 150.322 170.489C152.411 176.942 151.475 184.243 148.095 190.102Z" fill="#FC77C8"/>
<path d="M114.31 104.848C116.853 104.848 118.915 102.786 118.915 100.242C118.915 97.6986 116.853 95.6367 114.31 95.6367C111.766 95.6367 109.704 97.6986 109.704 100.242C109.704 102.786 111.766 104.848 114.31 104.848Z" fill="#FC77C8"/>
<path d="M156.514 80.6483C159.057 80.6483 161.119 78.5864 161.119 76.0429C161.119 73.4994 159.057 71.4375 156.514 71.4375C153.97 71.4375 151.908 73.4994 151.908 76.0429C151.908 78.5864 153.97 80.6483 156.514 80.6483Z" fill="#FC77C8"/>
<path d="M223.077 82.0624C223.077 79.5194 221.015 77.457 218.472 77.457C215.928 77.457 213.866 79.5194 213.866 82.0624C213.866 84.6063 215.928 86.6679 218.472 86.6679C221.015 86.6679 223.077 84.6063 223.077 82.0624Z" fill="#FC77C8"/>
<path d="M181.482 181.094C184.026 181.094 186.088 179.032 186.088 176.488C186.088 173.945 184.026 171.883 181.482 171.883C178.939 171.883 176.877 173.945 176.877 176.488C176.877 179.032 178.939 181.094 181.482 181.094Z" fill="#FC77C8"/>
<path d="M123.379 81.1835C125.922 81.1835 127.984 79.1216 127.984 76.5781C127.984 74.0346 125.922 71.9727 123.379 71.9727C120.835 71.9727 118.773 74.0346 118.773 76.5781C118.773 79.1216 120.835 81.1835 123.379 81.1835Z" fill="#FC77C8"/>
<path d="M212.687 45.1562C212.687 42.6123 210.625 40.5508 208.082 40.5508C205.538 40.5508 203.477 42.6131 203.477 45.1562C203.477 47.7001 205.539 49.7616 208.082 49.7616C210.625 49.7616 212.687 47.6993 212.687 45.1562Z" fill="#FC77C8"/>
<path d="M217.199 145.984C217.199 143.44 215.138 141.379 212.594 141.379C210.05 141.379 207.988 143.441 207.988 145.984C207.988 148.528 210.051 150.59 212.594 150.59C215.138 150.59 217.199 148.528 217.199 145.984Z" fill="#FC77C8"/>
<path d="M184.453 28.3236C184.598 29.5307 185.737 30.5349 186.952 30.5276C188.167 30.5204 189.294 29.5017 189.423 28.293L184.453 28.3236Z" fill="white"/>
<path d="M214.748 100.291C223.197 102.106 232.418 99.9134 239.144 94.4882C245.871 89.0638 249.967 80.5165 249.983 71.875" stroke="#020300" stroke-linecap="round" stroke-linejoin="round"/>
<path d="M130.846 50.0382C142.714 38.947 158.016 31.5843 174.089 29.2305" stroke="white" stroke-linecap="round" stroke-linejoin="round"/>
<path d="M164.446 105.228C166.709 96.0627 175.099 88.7491 184.487 87.7578" stroke="#020300" stroke-linecap="round" stroke-linejoin="round"/>
<path d="M234.659 181.844C246.391 175.544 253.709 161.86 252.436 148.605" stroke="#020300" stroke-linecap="round" stroke-linejoin="round"/>
<path d="M73.3984 26.0536L80.8232 26.7872C80.4817 18.7633 80.1403 10.7395 79.7988 2.71484C77.6664 10.4947 75.5324 18.2737 73.3984 26.0536Z" fill="#FC6173"/>
<path d="M78.1183 16.7109C77.7785 20.2518 77.4394 23.7926 77.0996 27.3334" stroke="#020300" stroke-linecap="round" stroke-linejoin="round"/>
<path d="M90.8206 26.7699C90.2255 19.4628 89.6296 12.1548 89.0345 4.84766C86.9472 12.2281 84.8607 19.6093 82.7734 26.9898L89.3172 29.0464C89.26 29.1326 89.2036 29.2188 89.1465 29.3049L96.5502 32.7218C100.014 24.9717 102.226 16.6644 103.075 8.21777C98.9902 14.4024 94.9058 20.5861 90.8206 26.7699Z" fill="#FC6173"/>
<path d="M87.7299 19.0156C87.4722 21.6682 87.2137 24.32 86.9561 26.9718" stroke="#020300" stroke-linecap="round" stroke-linejoin="round"/>
<path d="M97.4437 22.0117C96.6634 24.4678 95.8838 26.924 95.1035 29.3801" stroke="#020300" stroke-linecap="round" stroke-linejoin="round"/>
<path d="M37.0869 17.707C40.4699 23.762 43.8529 29.8177 47.2367 35.8726L55.2074 28.3199C49.0736 24.527 43.2208 21.5015 37.0869 17.707Z" fill="#FC6173"/>
<path d="M44.2588 25.8789C45.5553 26.9765 46.8518 28.0741 48.1475 29.1725" stroke="#020300" stroke-linecap="round" stroke-linejoin="round"/>
<path d="M27.2188 24.4883C32.2518 30.5078 37.2848 36.5265 42.3178 42.546L50.0993 33.3263C42.3468 29.8297 34.9712 27.984 27.2188 24.4883Z" fill="#FC6173"/>
<path d="M37.6201 31.2305C39.2677 32.0414 40.9145 32.8515 42.5622 33.6624" stroke="#020300" stroke-linecap="round" stroke-linejoin="round"/>
<path d="M33.705 103.143L29.4008 94.0021C29.8775 93.8387 30.3542 93.6752 30.8301 93.5109L27.8361 87.3287L25.7617 78.0938C18.5181 81.3535 11.2738 84.6133 4.03027 87.8739C11.1892 87.9778 18.3474 88.0817 25.5064 88.1856C19.8396 92.5164 14.1728 96.848 8.50605 101.179C14.937 98.9699 21.3672 96.761 27.7982 94.5521C23.4755 99.9709 19.1535 105.39 14.8316 110.809C21.1224 108.254 27.4141 105.699 33.705 103.143Z" fill="#FC6173"/>
<path d="M17.2021 84.5736C19.7919 84.0051 22.3809 83.4357 24.9707 82.8672" stroke="#020300" stroke-linecap="round" stroke-linejoin="round"/>
<path d="M21.1465 94.3575C22.9237 93.4274 24.701 92.4965 26.4791 91.5664" stroke="#020300" stroke-linecap="round" stroke-linejoin="round"/>
<path d="M25.917 102.382C27.3069 101.182 28.696 99.9819 30.0859 98.7812" stroke="#020300" stroke-linecap="round" stroke-linejoin="round"/>
<path d="M75.2402 171.021C73.1771 167.043 70.8345 163.046 68.7714 159.067C67.0561 161.776 65.3417 164.483 63.6264 167.191C63.2495 164.536 63.169 161.693 62.7921 159.038C60.5357 161.251 58.2793 163.465 56.0237 165.679C55.6332 162.362 55.2386 159.484 54.848 156.167C52.5465 158.214 50.245 160.261 47.9435 162.307C48.0643 159.126 48.479 156.078 48.599 152.898C46.1976 154.872 43.7955 156.846 41.3933 158.819C41.4867 155.053 41.7984 151.519 41.8918 147.754C38.574 150.552 35.2562 153.351 31.9385 156.15C35.8159 163.782 42.1237 169.767 50.2345 172.508C58.3462 175.248 67.528 174.738 75.2402 171.021Z" fill="#FC6173"/>
<path d="M39.3706 152.973C38.8021 154.299 38.2336 155.625 37.665 156.952" stroke="#020300" stroke-linecap="round" stroke-linejoin="round"/>
<path d="M46.3463 156.934C45.5805 158.509 44.8147 160.084 44.0488 161.659" stroke="#020300" stroke-linecap="round" stroke-linejoin="round"/>
<path d="M53.1733 160.355C52.7731 161.803 52.3729 163.249 51.9727 164.696" stroke="#020300" stroke-linecap="round" stroke-linejoin="round"/>
<path d="M61.2054 163.211C61.0145 164.6 60.8237 165.99 60.6328 167.379" stroke="#020300" stroke-linecap="round" stroke-linejoin="round"/>
<path d="M68.7393 163.773C68.7393 164.91 68.7393 166.047 68.7393 167.184" stroke="#020300" stroke-linecap="round" stroke-linejoin="round"/>
<path d="M69.3127 198.039C62.2335 198.04 54.94 196.976 47.6892 194.82C29.5542 189.43 14.8554 178.272 5.37718 170.348C-0.916922 165.088 -1.75361 155.72 3.50731 149.426C8.76823 143.131 18.1353 142.295 24.4294 147.557C36.2816 157.464 46.3621 163.434 56.1536 166.345C67.2528 169.643 78.4623 168.758 86.1423 163.974C92.864 159.787 96.7125 151.331 94.5471 145.509C92.4678 139.922 85.4876 134.641 73.2079 129.368C71.698 128.719 70.172 128.081 68.6403 127.441C56.8711 122.516 43.5332 116.936 33.8166 105.617C25.7629 96.2357 21.7027 83.964 22.3848 71.0618C23.0652 58.1829 28.3825 46.3935 37.3558 37.8671C55.639 20.4939 86.5466 19.2474 106.255 35.0873C112.649 40.2266 113.667 49.576 108.528 55.9699C103.388 62.3631 94.0406 63.381 87.645 58.2424C79.5342 51.7245 65.3185 52.2769 57.8189 59.4037C50.7501 66.1205 50.0535 78.9246 56.3573 86.2679C61.4902 92.2472 70.5327 96.0304 80.1067 100.036C81.7238 100.712 83.3359 101.387 84.9304 102.072C97.7811 107.591 115.646 117.024 122.39 135.152C129.492 154.241 120.662 177.472 101.85 189.19C92.4477 195.045 81.185 198.038 69.3127 198.039Z" fill="#FBD23A"/>
<path d="M38.0264 76.0913C38.2921 77.3234 39.525 78.2696 40.7837 78.2076C42.0423 78.1456 43.177 77.0834 43.3211 75.832" stroke="#020300" stroke-linecap="round" stroke-linejoin="round"/>
<path d="M38.2029 47.6094C37.7536 48.7577 38.054 50.1621 38.9333 51.0262C39.8135 51.8911 41.2219 52.1657 42.3622 51.6962" stroke="#020300" stroke-linecap="round" stroke-linejoin="round"/>
<path d="M63.7301 35.0117C62.763 35.7695 62.2975 37.1143 62.589 38.3077C62.8806 39.5012 63.9137 40.4796 65.1217 40.7059" stroke="#020300" stroke-linecap="round" stroke-linejoin="round"/>
<path d="M73.6074 41.457C72.6959 41.9789 72.2562 43.1972 72.6242 44.1813C72.9922 45.1646 74.1244 45.7951 75.1544 45.5898" stroke="#020300" stroke-linecap="round" stroke-linejoin="round"/>
<path d="M47.4941 113.391C48.5571 114.673 50.613 114.984 52.0086 114.077C53.4041 113.169 53.9517 111.163 53.2109 109.672" stroke="#020300" stroke-linecap="round" stroke-linejoin="round"/>
<path d="M67.4033 110.348C68.1023 111.382 69.5953 111.784 70.7187 111.242C71.8421 110.699 72.4557 109.28 72.0804 108.09" stroke="#020300" stroke-linecap="round" stroke-linejoin="round"/>
<path d="M81.0684 127.755C82.137 128.445 83.6581 128.334 84.6164 127.497C85.5747 126.659 85.888 125.167 85.3476 124.016" stroke="#020300" stroke-linecap="round" stroke-linejoin="round"/>
<path d="M106.692 139.261C107.907 140.596 110.001 141.038 111.652 140.309C113.303 139.581 114.386 137.734 114.218 135.938" stroke="#020300" stroke-linecap="round" stroke-linejoin="round"/>
<path d="M103.001 160.918C102.518 162.029 103.03 163.472 104.105 164.029C105.18 164.587 106.655 164.175 107.285 163.141" stroke="#020300" stroke-linecap="round" stroke-linejoin="round"/>
<path d="M86.785 176.496C85.9016 178.009 86.169 180.103 87.4051 181.346C88.6412 182.588 90.7325 182.868 92.2513 181.992" stroke="#020300" stroke-linecap="round" stroke-linejoin="round"/>
<path d="M76.809 190.969C76.102 191.582 75.7525 192.583 75.9256 193.503C76.0988 194.423 76.7857 195.229 77.6675 195.544" stroke="#020300" stroke-linecap="round" stroke-linejoin="round"/>
<path d="M56.0246 174.285C54.7893 174.684 53.616 175.37 52.8244 176.398C52.0328 177.427 51.668 178.825 52.0521 180.065C52.4371 181.304 53.649 182.295 54.9455 182.241" stroke="#020300" stroke-linecap="round" stroke-linejoin="round"/>
<path d="M36.5558 187.834C36.129 185.745 37.8129 183.477 39.9372 183.281" stroke="#020300" stroke-linecap="round" stroke-linejoin="round"/>
<path d="M29.1888 171.319C28.2732 169.89 29.035 167.692 30.6383 167.137" stroke="#020300" stroke-linecap="round" stroke-linejoin="round"/>
<path d="M21.1916 164.902C20.2833 163.394 20.5265 161.288 21.7545 160.027C22.9818 158.766 25.082 158.467 26.6128 159.335" stroke="#020300" stroke-linecap="round" stroke-linejoin="round"/>
<path d="M34.8867 46.5255C41.4256 36.0407 52.8623 28.7585 65.1292 27.2695" stroke="white" stroke-linecap="round" stroke-linejoin="round"/>
<path d="M93.332 58.7465C98.4842 60.2677 104.505 58.0918 107.495 53.6289" stroke="#020300" stroke-linecap="round" stroke-linejoin="round"/>
<path d="M85.3291 192.022C98.0582 189.011 109.422 180.618 116.042 169.336" stroke="#020300" stroke-linecap="round" stroke-linejoin="round"/>
<path d="M107.119 42.852C107.119 42.2367 106.621 41.7383 106.005 41.7383C105.39 41.7383 104.892 42.2367 104.892 42.852C104.892 43.4672 105.39 43.9657 106.005 43.9657C106.62 43.9657 107.119 43.4672 107.119 42.852Z" fill="#020300"/>
<path d="M96.4628 46.7075C96.4628 46.0922 95.9643 45.5938 95.3491 45.5938C94.7338 45.5938 94.2354 46.0922 94.2354 46.7075C94.2354 47.3227 94.7338 47.8212 95.3491 47.8212C95.9643 47.822 96.4628 47.3227 96.4628 46.7075Z" fill="#020300"/>
<path d="M100.106 46.6729C100.083 47.4943 100.858 48.2488 101.679 48.2029C102.499 48.157 103.186 47.3211 103.071 46.5078" stroke="#020300" stroke-linecap="round" stroke-linejoin="round"/>
<path d="M91.7148 40.4303C92.0515 38.5178 94.1822 37.1295 96.0682 37.5941" stroke="#020300" stroke-linecap="round" stroke-linejoin="round"/>
<path d="M103.604 36.4453C104.298 36.1924 104.993 35.9404 105.688 35.6875" stroke="#020300" stroke-linecap="round" stroke-linejoin="round"/>
</svg>
