<svg width="257" height="224" viewBox="0 0 257 224" fill="none" xmlns="http://www.w3.org/2000/svg">
<path d="M54.5508 101.31C59.3358 100.288 63.5092 99.652 68.2942 98.6295L68.966 88.0469C63.0167 90.9538 57.942 95.6231 54.5508 101.31Z" fill="#FC6173"/>
<path d="M60.5781 96.8243C62.2051 96.0951 63.8321 95.3659 65.46 94.6367" stroke="#020300" stroke-linecap="round" stroke-linejoin="round"/>
<path d="M111.592 98.1406L112.988 110.28C116.928 110.428 121.041 110.445 124.981 110.594C122.259 104.983 117.385 100.45 111.592 98.1406Z" fill="#FC6173"/>
<path d="M115.443 105.621C117.063 106.094 118.684 106.566 120.304 107.039" stroke="#020300" stroke-linecap="round" stroke-linejoin="round"/>
<path d="M110.737 5.21484C108.336 10.6143 105.715 15.4459 103.315 20.8453C101.645 16.898 99.9749 12.9507 98.304 9.0043C96.1352 14.088 93.9665 19.1717 91.7969 24.2554L116.154 26.7623C114.349 19.5789 112.542 12.3973 110.737 5.21484Z" fill="#FC6173"/>
<path d="M98.1543 16.0312C98.2422 17.887 98.331 19.7418 98.4189 21.5975" stroke="#020300" stroke-linecap="round" stroke-linejoin="round"/>
<path d="M109.514 15.1875C109.465 17.2639 109.415 19.3402 109.365 21.4157" stroke="#020300" stroke-linecap="round" stroke-linejoin="round"/>
<path d="M171.041 8.4835C167.895 12.9483 165.313 17.1028 162.166 21.5677C159.998 14.8157 157.83 8.06374 155.662 1.31179C152.793 8.05029 150.421 15.2749 147.552 22.0134C145.592 14.9269 143.632 7.84041 141.671 0.753906C138.879 8.84944 136.087 16.9441 133.295 25.0387L173.026 34.5953C172.36 25.9679 171.708 17.11 171.041 8.4835Z" fill="#FC6173"/>
<path d="M141.041 14.1797C141.041 16.7045 141.041 19.2293 141.041 21.7541" stroke="#020300" stroke-linecap="round" stroke-linejoin="round"/>
<path d="M155.309 13.8398C155.009 16.649 154.71 19.459 154.41 22.2681" stroke="#020300" stroke-linecap="round" stroke-linejoin="round"/>
<path d="M168.798 16.3672C168.287 18.4417 167.775 20.5163 167.264 22.59" stroke="#020300" stroke-linecap="round" stroke-linejoin="round"/>
<path d="M184.219 42.4907C184.202 46.9869 182.696 51.1396 180.161 54.4636C176.813 58.8638 171.68 61.829 165.836 62.2757C165.326 62.316 164.808 62.3393 164.29 62.3393H164.218L146.418 62.2757L128.443 62.212L116.191 62.1725L115.896 142.731L115.697 198.412C115.65 212.25 104.418 223.434 90.5952 223.434H90.4993C76.6294 223.386 65.4288 212.099 65.4772 198.236L65.7238 130.168L65.9714 61.9896L20.7338 61.8218C9.72512 61.7824 0.83762 52.8303 0.877084 41.8216C0.916548 30.8452 9.82917 21.9648 20.8056 21.9648H20.8773L164.362 22.4833C175.37 22.5227 184.258 31.4829 184.219 42.4907Z" fill="#FBD23A"/>
<path d="M115.895 142.731L115.72 192.6L115.696 198.411C115.648 212.25 104.416 223.433 90.5939 223.433H90.4988C76.6289 223.386 65.4283 212.098 65.4767 198.235L65.5808 168.861L65.7243 130.168C74.636 124.189 86.9362 123.352 97.0355 127.457C104.656 130.558 111.033 136.051 115.895 142.731Z" fill="#FBAE3A"/>
<path d="M82.8861 75.8737C82.8861 74.0252 81.3874 72.5273 79.5397 72.5273C77.6912 72.5273 76.1934 74.0252 76.1934 75.8737C76.1934 77.7223 77.6912 79.2201 79.5397 79.2201C81.3883 79.2201 82.8861 77.7214 82.8861 75.8737Z" fill="#FBAE3A"/>
<path d="M86.2318 148.87C86.2318 147.021 84.7331 145.523 82.8854 145.523C81.0369 145.523 79.5391 147.021 79.5391 148.87C79.5391 150.718 81.0378 152.216 82.8854 152.216C84.734 152.216 86.2318 150.717 86.2318 148.87Z" fill="#FBD23A"/>
<path d="M103.244 108.796C103.244 106.947 101.746 105.449 99.8972 105.449C98.0486 105.449 96.5508 106.947 96.5508 108.796C96.5508 110.644 98.0495 112.142 99.8972 112.142C101.745 112.142 103.244 110.643 103.244 108.796Z" fill="#FBAE3A"/>
<path d="M115.72 192.598L115.696 198.41C115.648 212.248 104.416 223.432 90.5939 223.432H90.4988C76.6289 223.384 65.4283 212.096 65.4767 198.234L65.5808 168.859C69.877 166.515 75.2019 166.013 79.7861 167.767C86.0035 170.151 90.4674 176.528 90.5714 183.184C90.6109 186.021 89.9418 188.859 90.3006 191.673C90.6593 194.487 92.5168 197.452 95.3385 197.723C98.6948 198.05 101.054 194.669 103.82 192.74C107.278 190.319 112.085 190.51 115.72 192.598Z" fill="#FC6173"/>
<path d="M4.84766 37.9114C5.69524 34.4556 7.64244 31.2788 10.3368 28.9549C13.0311 26.631 16.46 25.1717 20.0028 24.8398" stroke="white" stroke-linecap="round" stroke-linejoin="round"/>
<path d="M89.8672 218.577C95.5357 218.458 101.12 216.008 105.045 211.917C108.97 207.826 111.188 202.145 111.072 196.477" stroke="#020300" stroke-linecap="round" stroke-linejoin="round"/>
<path d="M65.4609 62.255C67.3687 62.2478 69.2764 62.2416 71.1841 62.2344" stroke="#020300" stroke-linecap="round" stroke-linejoin="round"/>
<path d="M112.428 62.5586C114.055 62.6214 115.682 62.6851 117.309 62.7478" stroke="#020300" stroke-linecap="round" stroke-linejoin="round"/>
<path d="M146.435 61.7108C146.435 61.9028 146.427 62.0938 146.419 62.2768L128.444 62.2131C128.444 62.0454 128.436 61.8785 128.436 61.7108C128.436 56.7365 132.469 52.7031 137.435 52.7031C142.409 52.7031 146.435 56.7374 146.435 61.7108Z" fill="#FBAE3A"/>
<path d="M180.161 54.4647C176.813 58.8649 171.68 61.8301 165.836 62.2768C165.828 62.0938 165.82 61.9028 165.82 61.7108C165.82 56.7365 169.854 52.7031 174.828 52.7031C176.829 52.7022 178.67 53.3561 180.161 54.4647Z" fill="#FBAE3A"/>
<path d="M148.543 54.2229C148.543 53.5628 148.008 53.0273 147.348 53.0273C146.688 53.0273 146.152 53.5628 146.152 54.2229C146.152 54.8831 146.688 55.4185 147.348 55.4185C148.008 55.4185 148.543 54.8831 148.543 54.2229Z" fill="#020300"/>
<path d="M165.768 54.2229C165.768 53.5628 165.233 53.0273 164.573 53.0273C163.912 53.0273 163.377 53.5628 163.377 54.2229C163.377 54.8831 163.912 55.4185 164.573 55.4185C165.233 55.4185 165.768 54.8831 165.768 54.2229Z" fill="#020300"/>
<path d="M153.908 54.9003C154.158 55.9757 155.231 56.7973 156.333 56.7578C157.437 56.7192 158.448 55.8241 158.622 54.7344" stroke="#020300" stroke-linecap="round" stroke-linejoin="round"/>
<path d="M144.789 47.03C145.231 46.1304 146.133 45.4721 147.124 45.325C148.115 45.1779 149.169 45.5447 149.854 46.2766" stroke="#020300" stroke-linecap="round" stroke-linejoin="round"/>
<path d="M161.457 46.5203C161.835 45.6045 162.808 44.9695 163.798 44.9928C164.788 45.0161 165.731 45.696 166.064 46.6288" stroke="#020300" stroke-linecap="round" stroke-linejoin="round"/>
<path d="M255.773 144.735C254.867 146.09 253.493 147.063 251.958 147.606C252.273 157.679 252.606 167.207 252.902 175.325C253.427 190.004 253.827 200.03 253.827 200.221C254.323 212.535 244.737 222.923 232.423 223.418C232.118 223.418 231.812 223.427 231.517 223.427C219.604 223.427 209.712 214.013 209.235 202.003C209.225 201.841 208.902 193.829 208.463 181.667C207.986 168.724 207.376 151.058 206.851 133.127C206.804 131.448 206.45 125.858 204.018 124.676C200.956 123.179 192.458 123.665 181.917 130.695C182.012 136.275 182.108 141.893 182.203 147.492C182.384 158.299 182.557 169.107 182.747 179.77C182.862 186.829 182.985 193.82 183.099 200.717C183.319 213.04 173.504 223.218 161.18 223.428H160.779C148.636 223.428 138.688 213.689 138.468 201.499C138.353 195.127 138.248 188.688 138.134 182.184C137.982 173.419 137.838 164.557 137.686 155.677C135.778 155.467 133.975 154.341 133.06 152.653C131.944 150.622 132.191 147.922 133.642 146.119C134.586 144.956 136.007 144.211 137.486 144.011C137.323 134.55 137.171 125.106 137.009 115.759C136.894 108.777 136.77 101.861 136.655 95.032C136.445 82.6985 146.251 72.5311 158.584 72.3212C166.873 72.1499 174.17 76.5466 178.137 83.1954C183.221 81.4975 188.315 80.3621 193.323 79.8185C201.898 78.8741 210.216 79.6463 217.808 82.2034C218.657 80.563 220.269 79.3127 222.091 78.9979C224.427 78.6068 226.946 79.771 228.157 81.8025C229.131 83.443 229.197 85.5417 228.434 87.2781C242.579 96.3298 250.897 112.25 251.469 131.822C251.508 133.005 251.535 134.179 251.574 135.362C253.234 135.428 254.903 136.286 255.857 137.67C257.29 139.718 257.166 142.656 255.773 144.735Z" fill="#FFA0E6"/>
<path d="M224.549 149.861C224.549 148.32 223.3 147.07 221.759 147.07C220.218 147.07 218.969 148.32 218.969 149.861C218.969 151.402 220.218 152.651 221.759 152.651C223.301 152.65 224.549 151.402 224.549 149.861Z" fill="#FC77C8"/>
<path d="M184.624 116.208C184.624 114.667 183.374 113.418 181.833 113.418C180.292 113.418 179.043 114.667 179.043 116.208C179.043 117.749 180.292 118.999 181.833 118.999C183.374 118.999 184.624 117.749 184.624 116.208Z" fill="#FC77C8"/>
<path d="M149.223 165.837C149.223 164.296 147.974 163.047 146.433 163.047C144.892 163.047 143.643 164.296 143.643 165.837C143.643 167.378 144.892 168.627 146.433 168.627C147.975 168.627 149.223 167.378 149.223 165.837Z" fill="#FC77C8"/>
<path d="M215.391 91.0989C215.391 89.558 214.142 88.3086 212.601 88.3086C211.06 88.3086 209.811 89.558 209.811 91.0989C209.811 92.6398 211.06 93.8892 212.601 93.8892C214.142 93.8892 215.391 92.6398 215.391 91.0989Z" fill="#FC77C8"/>
<path d="M230.381 97.6848C230.381 96.1439 229.132 94.8945 227.591 94.8945C226.05 94.8945 224.801 96.1439 224.801 97.6848C224.801 99.2257 226.05 100.475 227.591 100.475C229.132 100.475 230.381 99.2257 230.381 97.6848Z" fill="#FC77C8"/>
<path d="M154.553 140.31C154.553 138.769 153.304 137.52 151.763 137.52C150.222 137.52 148.973 138.769 148.973 140.31C148.973 141.851 150.222 143.1 151.763 143.1C153.305 143.1 154.553 141.851 154.553 140.31Z" fill="#FC77C8"/>
<path d="M177.165 155.454C177.165 153.913 175.915 152.664 174.374 152.664C172.833 152.664 171.584 153.913 171.584 155.454C171.584 156.995 172.833 158.245 174.374 158.245C175.915 158.245 177.165 156.995 177.165 155.454Z" fill="#FC77C8"/>
<path d="M236.229 161.552C236.229 160.011 234.98 158.762 233.439 158.762C231.898 158.762 230.648 160.011 230.648 161.552C230.648 163.093 231.898 164.342 233.439 164.342C234.98 164.342 236.229 163.093 236.229 161.552Z" fill="#FC77C8"/>
<path d="M181.812 126.477C181.911 128.049 182.01 129.62 182.109 131.193" stroke="#020300" stroke-linecap="round" stroke-linejoin="round"/>
<path d="M137.215 143.816C137.296 145.445 137.376 147.074 137.457 148.703" stroke="#020300" stroke-linecap="round" stroke-linejoin="round"/>
<path d="M223.936 84.582C225.479 85.3659 227.023 86.1489 228.566 86.9328" stroke="#020300" stroke-linecap="round" stroke-linejoin="round"/>
<path d="M251.834 141.793C251.973 143.871 252.112 145.949 252.252 148.027" stroke="#020300" stroke-linecap="round" stroke-linejoin="round"/>
<path d="M193.03 88.4316C191.524 92.1044 188.165 94.9745 184.294 95.8813C183.76 100.393 180.917 104.571 176.92 106.727C172.933 108.892 167.534 109.063 163.461 107.051C160.256 111.867 155.544 115.845 149.945 117.333C145.644 118.477 140.826 117.962 137.011 115.759C136.896 108.777 136.772 101.861 136.658 95.032C136.448 82.6985 146.254 72.5311 158.586 72.3212C166.875 72.1499 174.172 76.5466 178.14 83.1954C183.224 81.4975 188.317 80.3621 193.325 79.8185C194.222 82.6034 194.146 85.713 193.03 88.4316Z" fill="#FCD4F6"/>
<path d="M177.689 82.5703C178.347 83.8125 179.004 85.0557 179.662 86.2988" stroke="#020300" stroke-linecap="round" stroke-linejoin="round"/>
<path d="M150.452 84.7346C150.452 84.0745 149.916 83.5391 149.256 83.5391C148.596 83.5391 148.061 84.0745 148.061 84.7346C148.061 85.3948 148.596 85.9302 149.256 85.9302C149.916 85.9302 150.452 85.3957 150.452 84.7346Z" fill="#020300"/>
<path d="M164.67 79.9378C164.67 79.2777 164.135 78.7422 163.475 78.7422C162.815 78.7422 162.279 79.2777 162.279 79.9378C162.279 80.5979 162.815 81.1334 163.475 81.1334C164.135 81.1334 164.67 80.5979 164.67 79.9378Z" fill="#020300"/>
<path d="M145.367 82.0361C145.491 80.2199 147.406 78.7436 149.194 79.0844" stroke="#020300" stroke-linecap="round" stroke-linejoin="round"/>
<path d="M159.941 74.0945C160.671 73.9295 161.402 73.7636 162.132 73.5977" stroke="#020300" stroke-linecap="round" stroke-linejoin="round"/>
<path d="M154.744 83.7173C155.142 84.4438 155.971 84.9111 156.799 84.8761C157.627 84.8411 158.413 84.3039 158.747 83.5469" stroke="#020300" stroke-linecap="round" stroke-linejoin="round"/>
<path d="M232.421 223.416C232.118 223.424 231.815 223.432 231.52 223.432C219.603 223.432 209.711 214.018 209.232 202.005C209.224 201.845 208.906 193.834 208.459 181.67C210.532 180.793 212.859 180.506 215.076 180.928C218.894 181.654 222.234 184.483 223.589 188.134C226.458 184.666 229.519 181.749 233.968 181.08C238.416 180.418 243.087 181.447 246.85 183.918C247.67 180.378 249.903 177.237 252.9 175.324C253.426 190.008 253.825 200.035 253.833 200.219C254.326 212.535 244.736 222.922 232.421 223.416Z" fill="#FC77C8"/>
<path d="M233.113 218.595C237.441 218.61 241.748 216.862 244.842 213.837C247.937 210.812 249.781 206.545 249.863 202.219" stroke="#020300" stroke-linecap="round" stroke-linejoin="round"/>
<path d="M183.103 200.723C183.318 213.047 173.505 223.219 161.181 223.434H160.783C148.634 223.434 138.687 213.693 138.471 201.504C138.36 195.135 138.248 188.695 138.137 182.19C140.975 179.951 144.506 178.596 148.117 178.46C153.737 178.253 159.388 181.019 162.673 185.594C165.367 182.27 169.52 180.014 173.729 179.217C176.718 178.643 179.843 178.85 182.745 179.775C182.863 186.829 182.982 193.829 183.103 200.723Z" fill="#FC77C8"/>
<path d="M160.734 219.342C165.32 219.324 169.877 217.537 173.253 214.435C176.63 211.332 178.795 206.943 179.201 202.375" stroke="#020300" stroke-linecap="round" stroke-linejoin="round"/>
</svg>
