<svg width="257" height="213" viewBox="0 0 257 213" fill="none" xmlns="http://www.w3.org/2000/svg">
<path d="M240.344 27.7135C220.335 7.0641 190.309 -2.69833 161.988 2.23899C133.659 7.17713 108.706 26.5205 96.8669 52.7194C85.0286 78.9258 86.9989 110.433 102.009 134.957L131.629 116.821C122.674 102.197 121.459 82.6486 128.518 67.0273C135.578 51.3985 151.055 39.4009 167.953 36.4562C184.843 33.5114 203.469 39.5667 215.399 51.8812C222.073 58.7673 233.074 58.9406 239.959 52.2665C246.845 45.5923 247.019 34.5997 240.344 27.7135Z" fill="#8CEA46"/>
<path d="M123.156 115.291C122.397 114.27 120.921 113.853 119.74 114.329C118.559 114.803 117.782 116.126 117.941 117.388C116.073 116.196 113.325 115.919 111.525 117.213C109.725 118.507 108.832 120.942 109.367 123.093" stroke="#020300" stroke-linecap="round" stroke-linejoin="round"/>
<path d="M106.795 95.3591C106.983 93.5513 108.523 91.9746 110.326 91.7444C112.129 91.5142 114.016 92.6536 114.653 94.3558" stroke="#020300" stroke-linecap="round" stroke-linejoin="round"/>
<path d="M94.1738 78.7918C94.4189 77.541 95.659 76.5665 96.9321 76.6235C98.2052 76.6812 99.3521 77.7637 99.4833 79.0311" stroke="#020300" stroke-linecap="round" stroke-linejoin="round"/>
<path d="M142.191 18.668C140.506 20.3091 140.11 23.1168 141.273 25.1606C142.437 27.2043 145.054 28.2959 147.325 27.6845" stroke="#020300" stroke-linecap="round" stroke-linejoin="round"/>
<path d="M169.963 17.4102C168.384 17.6668 167.071 19.0851 166.937 20.6792C166.803 22.2732 167.862 23.8904 169.376 24.4061C167.626 24.4919 166.381 26.0018 166.381 27.7543C166.381 29.5068 167.915 31.119 169.665 31.2056" stroke="#020300" stroke-linecap="round" stroke-linejoin="round"/>
<path d="M185.678 4.12896C183.526 3.85338 181.345 5.69662 181.257 7.86413C181.169 10.0316 183.195 12.0448 185.362 11.9442" stroke="#020300" stroke-linecap="round" stroke-linejoin="round"/>
<path d="M217.623 24.5287C215.845 23.9586 213.733 24.6896 212.689 26.2375C211.644 27.7854 211.756 30.0172 212.951 31.452C211.695 31.1369 210.279 31.5865 209.435 32.5684C208.59 33.5502 208.359 35.0181 208.859 36.2128" stroke="#020300" stroke-linecap="round" stroke-linejoin="round"/>
<path d="M241.559 37.0781C242.605 40.3785 242.175 44.1169 240.407 47.093C238.639 50.0691 235.562 52.2358 232.164 52.8967" stroke="#020300" stroke-linecap="round" stroke-linejoin="round"/>
<path d="M50.7119 88.7266L43.2969 94.8471C46.8258 100.462 53.1913 104.501 59.8052 104.974C56.7738 99.5575 53.7433 94.1416 50.7119 88.7266Z" fill="#FFA0E6"/>
<path d="M49.8223 94.7734C51.3355 96.4797 52.8479 98.1868 54.3611 99.8931" stroke="#020300" stroke-linecap="round" stroke-linejoin="round"/>
<path d="M168.15 147.881C164.865 144.363 160.259 142.362 155.443 142.362C145.854 142.362 138.077 150.131 138.077 159.728C138.077 160.785 138.175 161.82 138.357 162.824C138.364 163.571 138.349 164.945 138.251 167.316C123.77 175.372 107.341 178.838 92.104 176.882C73.976 174.557 57.2069 164.108 48.3356 149.619C39.3809 134.987 38.1582 115.446 45.225 99.8176C49.8983 89.4661 58.2721 80.7004 68.306 75.1137C70.5866 73.8455 72.957 72.7358 75.3877 71.8068C78.3927 70.6591 81.4958 69.7985 84.6518 69.2473C101.55 66.3026 120.176 72.3579 132.105 84.6723C138.779 91.5585 149.773 91.7318 156.658 85.0576C158.508 83.268 159.874 81.1616 160.75 78.9041C161.679 76.5411 162.064 74.0114 161.905 71.5122C161.664 67.5179 160.048 63.5922 157.051 60.5039C137.042 39.8544 107.016 30.0994 78.6873 35.0293C50.3662 39.9749 25.4131 59.3182 13.5747 85.5172C1.73555 111.716 3.69925 143.223 18.7167 167.746C26.9081 181.125 38.7399 192.164 52.6921 199.873C54.8744 201.088 57.1162 202.213 59.3967 203.255C61.5106 204.222 63.6698 205.113 65.8596 205.936C68.2375 206.82 70.6616 207.62 73.1154 208.322C77.8572 209.681 82.7269 210.693 87.6873 211.327C91.8928 211.871 96.151 212.135 100.44 212.135C120.131 212.135 140.312 206.51 158.025 196C160.101 194.769 162.147 193.472 164.148 192.104C164.42 191.923 164.692 191.742 164.963 191.553C169.297 188.548 172.038 183.731 172.393 178.462C173.601 160.8 174.054 154.193 168.15 147.881ZM139.482 166.622C139.233 166.048 139.029 165.474 138.863 164.908C139.045 165.49 139.256 166.056 139.498 166.607C139.49 166.613 139.49 166.613 139.482 166.622Z" fill="#FC77C8"/>
<path d="M123.652 52.2421C123.652 50.0829 121.901 48.332 119.742 48.332C117.583 48.332 115.832 50.0829 115.832 52.2421C115.832 54.4014 117.583 56.1522 119.742 56.1522C121.901 56.1522 123.652 54.4014 123.652 52.2421Z" fill="#FFA0E6"/>
<path d="M78.0428 41.871C78.0428 39.7118 76.292 37.9609 74.1327 37.9609C71.9735 37.9609 70.2227 39.7118 70.2227 41.871C70.2227 44.0303 71.9735 45.7811 74.1327 45.7811C76.292 45.7811 78.0428 44.0311 78.0428 41.871Z" fill="#FFA0E6"/>
<path d="M71.6581 48.4374C71.6581 46.2782 69.9072 44.5273 67.748 44.5273C65.5887 44.5273 63.8379 46.2782 63.8379 48.4374C63.8379 50.5967 65.5887 52.3475 67.748 52.3475C69.9072 52.3475 71.6581 50.5975 71.6581 48.4374Z" fill="#FFA0E6"/>
<path d="M80.8925 57.5584C83.052 57.5584 84.8026 55.8078 84.8026 53.6484C84.8026 51.4889 83.052 49.7383 80.8925 49.7383C78.733 49.7383 76.9824 51.4889 76.9824 53.6484C76.9824 55.8078 78.733 57.5584 80.8925 57.5584Z" fill="#FFA0E6"/>
<path d="M126.43 61.3671C126.43 59.2079 124.679 57.457 122.519 57.457C120.36 57.457 118.609 59.2079 118.609 61.3671C118.609 63.5264 120.36 65.2772 122.519 65.2772C124.68 65.278 126.43 63.5272 126.43 61.3671Z" fill="#FFA0E6"/>
<path d="M114.275 56.1523C114.275 53.993 112.524 52.2422 110.365 52.2422C108.206 52.2422 106.455 53.993 106.455 56.1523C106.455 58.3115 108.206 60.0624 110.365 60.0624C112.524 60.0624 114.275 58.3115 114.275 56.1523Z" fill="#FFA0E6"/>
<path d="M75.3869 71.8065C72.9554 72.7356 70.5849 73.8453 68.3052 75.1135C68.0939 74.63 67.9727 74.0945 67.9727 73.5359C67.9727 71.3767 69.7243 69.625 71.8836 69.625C73.424 69.6242 74.7524 70.5153 75.3869 71.8065Z" fill="#FFA0E6"/>
<path d="M27.3866 115.422C27.3866 113.263 25.6357 111.512 23.4765 111.512C21.3172 111.512 19.5664 113.263 19.5664 115.422C19.5664 117.581 21.3172 119.332 23.4765 119.332C25.6357 119.333 27.3866 117.582 27.3866 115.422Z" fill="#FFA0E6"/>
<path d="M44.4002 67.8359C44.4002 65.6766 42.6494 63.9258 40.4902 63.9258C38.3309 63.9258 36.5801 65.6766 36.5801 67.8359C36.5801 69.9951 38.3309 71.7459 40.4902 71.7459C42.6494 71.7459 44.4002 69.9951 44.4002 67.8359Z" fill="#FFA0E6"/>
<path d="M57.4588 70.4765C57.4588 68.3173 55.708 66.5664 53.5488 66.5664C51.3895 66.5664 49.6387 68.3173 49.6387 70.4765C49.6387 72.6358 51.3895 74.3866 53.5488 74.3866C55.708 74.3866 57.4588 72.6358 57.4588 70.4765Z" fill="#FFA0E6"/>
<path d="M47.9725 78.9062C47.9725 76.7469 46.2217 74.9961 44.0624 74.9961C41.9032 74.9961 40.1523 76.7469 40.1523 78.9062C40.1523 81.0654 41.9032 82.8163 44.0624 82.8163C46.2217 82.8163 47.9725 81.0654 47.9725 78.9062Z" fill="#FFA0E6"/>
<path d="M17.203 122.848C17.203 120.688 15.4521 118.938 13.2929 118.938C11.1336 118.938 9.38281 120.688 9.38281 122.848C9.38281 125.007 11.1336 126.758 13.2929 126.758C15.4521 126.758 17.203 125.007 17.203 122.848Z" fill="#FFA0E6"/>
<path d="M27.8065 126.758C27.8065 124.598 26.0557 122.848 23.8964 122.848C21.7372 122.848 19.9863 124.598 19.9863 126.758C19.9863 128.917 21.7372 130.668 23.8964 130.668C26.0557 130.668 27.8065 128.917 27.8065 126.758Z" fill="#FFA0E6"/>
<path d="M52.4803 159.805C52.4803 157.645 50.7295 155.895 48.5702 155.895C46.411 155.895 44.6602 157.645 44.6602 159.805C44.6602 161.964 46.411 163.715 48.5702 163.715C50.7295 163.715 52.4803 161.964 52.4803 159.805Z" fill="#FFA0E6"/>
<path d="M69.3495 194.316C69.3495 192.157 67.5986 190.406 65.4394 190.406C63.2801 190.406 61.5293 192.157 61.5293 194.316C61.5293 196.476 63.2801 198.226 65.4394 198.226C67.5986 198.226 69.3495 196.476 69.3495 194.316Z" fill="#FFA0E6"/>
<path d="M98.6445 204.523C100.804 204.523 102.555 202.773 102.555 200.613C102.555 198.454 100.804 196.703 98.6445 196.703C96.485 196.703 94.7344 198.454 94.7344 200.613C94.7344 202.773 96.485 204.523 98.6445 204.523Z" fill="#FFA0E6"/>
<path d="M116.656 184.164C116.656 182.005 114.905 180.254 112.746 180.254C110.587 180.254 108.836 182.005 108.836 184.164C108.836 186.323 110.587 188.074 112.746 188.074C114.905 188.074 116.656 186.323 116.656 184.164Z" fill="#FFA0E6"/>
<path d="M124.476 191.785C124.476 189.626 122.726 187.875 120.566 187.875C118.407 187.875 116.656 189.626 116.656 191.785C116.656 193.944 118.407 195.695 120.566 195.695C122.726 195.695 124.476 193.944 124.476 191.785Z" fill="#FFA0E6"/>
<path d="M148.41 198.226C150.57 198.226 152.32 196.476 152.32 194.316C152.32 192.157 150.57 190.406 148.41 190.406C146.251 190.406 144.5 192.157 144.5 194.316C144.5 196.476 146.251 198.226 148.41 198.226Z" fill="#FFA0E6"/>
<path d="M164.148 192.104C162.147 193.47 160.101 194.769 158.025 196C157.043 195.298 156.402 194.143 156.402 192.837C156.402 190.677 158.154 188.926 160.313 188.926C162.222 188.925 163.808 190.291 164.148 192.104Z" fill="#FFA0E6"/>
<path d="M73.6589 206.345C73.6589 207.07 73.4626 207.742 73.1152 208.323C70.6614 207.621 68.2381 206.821 65.8594 205.937C66.0632 203.967 67.7241 202.434 69.7472 202.434C71.9073 202.434 73.6589 204.186 73.6589 206.345Z" fill="#FFA0E6"/>
<path d="M60.4307 200.614C60.4307 201.633 60.038 202.562 59.3961 203.257C57.1155 202.215 54.8738 201.09 52.6914 199.874C53.0313 198.069 54.6163 196.703 56.519 196.703C58.6791 196.703 60.4307 198.455 60.4307 200.614Z" fill="#FFA0E6"/>
<path d="M38.3359 176.57C40.4953 176.57 42.2459 174.82 42.2459 172.66C42.2459 170.501 40.4953 168.75 38.3359 168.75C36.1764 168.75 34.4258 170.501 34.4258 172.66C34.4258 174.82 36.1764 176.57 38.3359 176.57Z" fill="#FFA0E6"/>
<path d="M37.1522 162.715C37.1522 160.556 35.4014 158.805 33.2421 158.805C31.0829 158.805 29.332 160.556 29.332 162.715C29.332 164.874 31.0829 166.625 33.2421 166.625C35.4014 166.625 37.1522 164.874 37.1522 162.715Z" fill="#FFA0E6"/>
<path d="M169.102 176.82C169.612 182.306 166.459 187.952 161.52 190.395" stroke="#020300" stroke-linecap="round" stroke-linejoin="round"/>
<path d="M33.3672 63.1831C43.8821 50.8752 58.7254 42.3405 74.6521 39.4453" stroke="white" stroke-linecap="round" stroke-linejoin="round"/>
<path d="M136.662 83.6992C140.64 87.3989 147.043 88.1885 151.8 85.5647" stroke="#020300" stroke-linecap="round" stroke-linejoin="round"/>
<path d="M143.09 85.3712C145.287 85.3712 147.068 83.5899 147.068 81.3926C147.068 79.1953 145.287 77.4141 143.09 77.4141C140.893 77.4141 139.111 79.1953 139.111 81.3926C139.111 83.5899 140.893 85.3712 143.09 85.3712Z" fill="#FC6173"/>
<path d="M160.75 78.9037C159.519 78.232 158.682 76.9177 158.682 75.4152C158.682 73.4746 160.071 71.8591 161.905 71.5117C162.064 74.0109 161.678 76.5406 160.75 78.9037Z" fill="#FC6173"/>
<path d="M147.275 77.6797C147.901 77.6797 148.408 77.1726 148.408 76.5469C148.408 75.9213 147.901 75.4141 147.275 75.4141C146.65 75.4141 146.143 75.9213 146.143 76.5469C146.143 77.1726 146.65 77.6797 147.275 77.6797Z" fill="#020300"/>
<path d="M158.51 73.5391C158.51 72.9137 158.002 72.4062 157.377 72.4062C156.752 72.4062 156.244 72.9137 156.244 73.5391C156.244 74.1645 156.752 74.6719 157.377 74.6719C158.002 74.6719 158.51 74.1645 158.51 73.5391Z" fill="#020300"/>
<path d="M150.574 76.9445C150.674 77.6846 151.375 78.2944 152.122 78.2903C152.869 78.287 153.564 77.6706 153.657 76.9297" stroke="#020300" stroke-linecap="round" stroke-linejoin="round"/>
<path d="M144.373 71.8178C144.922 69.9333 147.473 68.9746 149.127 70.0315" stroke="#020300" stroke-linecap="round" stroke-linejoin="round"/>
<path d="M155.188 67.5809C155.992 67.2789 156.797 66.9769 157.602 66.6758" stroke="#020300" stroke-linecap="round" stroke-linejoin="round"/>
<path d="M149.819 63.1451C133.876 46.4049 111.572 35.8768 88.5137 34.2084C91.7835 32.9287 95.0475 31.1837 98.5517 30.9568C102.056 30.7299 105.82 31.7365 108.11 34.3974C110.147 32.3 112.944 31.3767 115.855 31.6465C118.765 31.9172 121.52 33.5632 123.135 36.0005C125.553 33.3008 129.504 32.4692 132.762 34.0583C136.021 35.6466 137.99 39.5228 137.352 43.0913C142.427 41.1334 148.239 42.8867 151.322 47.3686C154.404 51.8504 153.464 59.1071 149.819 63.1451Z" fill="#E83CB4"/>
<path d="M145.454 47.2891C144.07 48.8196 142.685 50.3501 141.301 51.8798" stroke="#020300" stroke-linecap="round" stroke-linejoin="round"/>
<path d="M144.021 53.6927C145.128 52.7876 146.234 51.8817 147.341 50.9766" stroke="#020300" stroke-linecap="round" stroke-linejoin="round"/>
<path d="M130.139 38.0039C129.133 39.1103 128.128 40.2168 127.121 41.3232" stroke="#020300" stroke-linecap="round" stroke-linejoin="round"/>
<path d="M115.876 34.6641C115.581 35.8728 115.287 37.0816 114.992 38.2903" stroke="#020300" stroke-linecap="round" stroke-linejoin="round"/>
<path d="M24.886 95.2722C17.1318 99.778 8.6194 104.485 0.865234 108.991C2.05748 98.9117 9.62848 89.8762 19.3431 86.938C21.1896 86.3794 22.7515 88.3159 23.8142 89.9257C24.8761 91.5354 25.3324 93.3951 24.886 95.2722Z" fill="#FFA0E6"/>
<path d="M6.92773 98.5592C9.92857 96.1244 12.9294 93.6887 15.9303 91.2539" stroke="#020300" stroke-linecap="round" stroke-linejoin="round"/>
<path d="M8.18164 101.317C11.2963 99.4006 14.4119 97.4831 17.5266 95.5664" stroke="#020300" stroke-linecap="round" stroke-linejoin="round"/>
<path d="M213.465 62.668C211.91 65.3239 210.309 67.9749 208.754 70.6301C208.018 66.786 207.128 63.1589 206.392 59.3148C203.927 63.2967 201.554 66.503 199.09 70.4848C197.101 65.168 195.572 59.559 193.582 54.2422C191.361 59.9155 189.141 65.5888 186.92 71.2621L217.356 74.2217C216.064 70.3099 214.758 66.5805 213.465 62.668Z" fill="#65DEE6"/>
<path d="M193.19 63.0508C193.091 65.6663 192.992 68.2818 192.893 70.8974" stroke="#020300" stroke-linecap="round" stroke-linejoin="round"/>
<path d="M204.981 66.3711C204.679 68.282 204.377 70.1937 204.076 72.1046" stroke="#020300" stroke-linecap="round" stroke-linejoin="round"/>
<path d="M212.92 68.8008C212.714 69.9064 212.509 71.012 212.303 72.1176" stroke="#020300" stroke-linecap="round" stroke-linejoin="round"/>
<path d="M102.01 134.956C116.454 158.557 142.237 174.851 170.981 178.535C175.187 179.079 179.445 179.343 183.734 179.343C206.052 179.343 228.982 172.118 248.258 158.761C252.6 155.749 255.332 150.932 255.687 145.669C256.706 130.749 256.767 115.037 256.82 99.8466C256.827 96.5702 256.842 93.3309 256.865 90.1518C256.926 80.7293 249.466 72.9752 240.051 72.6732C230.243 72.3638 219.929 71.8654 209.963 71.3894C199.853 70.9059 189.396 70.4001 179.31 70.0832C172.197 69.8563 165.961 73.9265 163.084 79.9587C162.073 82.0577 161.484 84.3985 161.4 86.882C161.393 87.1617 161.393 87.4332 161.4 87.7046C161.536 96.9233 168.898 104.496 178.207 104.791C188.015 105.107 198.321 105.598 208.295 106.082C212.833 106.3 217.446 106.52 222.059 106.724C222.014 116.071 221.908 125.494 221.523 134.539C207.049 142.588 190.627 146.038 175.399 144.09C157.271 141.757 140.502 131.315 131.63 116.819L116.186 120.991L102.01 134.956Z" fill="#8CEA46"/>
<path d="M211.009 80.5625C212.187 81.6846 212.746 83.4198 212.445 85.0188C212.143 86.6178 210.99 88.0295 209.484 88.645C210.798 89.0922 211.475 89.933 211.625 91.3134C211.774 92.6929 211.063 94.1294 209.875 94.848" stroke="#020300" stroke-linecap="round" stroke-linejoin="round"/>
<path d="M239.396 87.7738C240.621 88.3876 242.181 88.2647 243.293 87.466C244.406 86.6673 245.021 85.2275 244.831 83.8711" stroke="#020300" stroke-linecap="round" stroke-linejoin="round"/>
<path d="M234.055 117.184C235.031 118.926 237.245 119.867 239.176 119.363C241.108 118.859 242.579 116.955 242.579 114.958C243.177 116.254 244.573 117.04 245.988 116.851C247.404 116.663 248.629 115.482 248.868 114.074" stroke="#020300" stroke-linecap="round" stroke-linejoin="round"/>
<path d="M239.107 141.204C239.85 142.832 241.699 143.88 243.477 143.681C245.255 143.482 246.827 142.052 247.192 140.301" stroke="#020300" stroke-linecap="round" stroke-linejoin="round"/>
<path d="M208.031 151.898C206.253 152.361 204.895 154.106 204.881 155.942C204.867 157.779 206.199 159.544 207.969 160.035C206.324 160.196 204.734 162.043 204.89 163.688C205.045 165.333 206.681 166.69 208.326 166.54" stroke="#020300" stroke-linecap="round" stroke-linejoin="round"/>
<path d="M179.898 152.809C177.947 153.199 176.195 154.488 175.242 156.234C174.289 157.981 174.153 160.152 174.881 162.003C173.448 161.72 171.794 162.319 170.813 163.401C169.832 164.484 169.47 166.092 169.893 167.49" stroke="#020300" stroke-linecap="round" stroke-linejoin="round"/>
<path d="M145.557 156.302C145.324 154.447 146.087 152.497 147.517 151.294C148.947 150.09 150.999 149.671 152.787 150.216" stroke="#020300" stroke-linecap="round" stroke-linejoin="round"/>
<path d="M122.813 149.233C122.04 147.903 122.144 146.115 123.068 144.885C123.991 143.655 125.679 143.054 127.172 143.425C126.482 142.41 126.371 141.023 127.126 140.056C127.881 139.089 129.285 138.69 130.436 139.114" stroke="#020300" stroke-linecap="round" stroke-linejoin="round"/>
<path d="M253.17 145.18C251.966 151.036 248.171 156.31 243 159.313" stroke="#020300" stroke-linecap="round" stroke-linejoin="round"/>
<path d="M181.615 92.8204C183.813 92.8204 185.594 91.0392 185.594 88.8419C185.594 86.6446 183.813 84.8633 181.615 84.8633C179.418 84.8633 177.637 86.6446 177.637 88.8419C177.637 91.0392 179.418 92.8204 181.615 92.8204Z" fill="#FC77C8"/>
<path d="M166.011 83.7885C166.011 85.9857 164.23 87.7671 162.032 87.7671C161.813 87.7671 161.601 87.7522 161.398 87.7069C161.391 87.4354 161.391 87.1631 161.398 86.8842C161.481 84.3999 162.07 82.06 163.082 79.9609C164.773 80.4139 166.011 81.9544 166.011 83.7885Z" fill="#FC77C8"/>
<path d="M168.045 81.0274C168.671 81.0274 169.178 80.5202 169.178 79.8946C169.178 79.2689 168.671 78.7617 168.045 78.7617C167.419 78.7617 166.912 79.2689 166.912 79.8946C166.912 80.5202 167.419 81.0274 168.045 81.0274Z" fill="#020300"/>
<path d="M178.662 84.4063C179.288 84.4063 179.795 83.8991 179.795 83.2735C179.795 82.6478 179.288 82.1406 178.662 82.1406C178.037 82.1406 177.529 82.6478 177.529 83.2735C177.529 83.8991 178.037 84.4063 178.662 84.4063Z" fill="#020300"/>
<path d="M169.07 74.821C169.53 74.113 170.494 73.7789 171.293 74.052C172.093 74.3243 172.651 75.1774 172.583 76.019" stroke="#020300" stroke-linecap="round" stroke-linejoin="round"/>
<path d="M179.061 76.3703C179.796 75.8125 180.887 75.7811 181.654 76.2944C182.42 76.8076 182.806 77.829 182.571 78.7218" stroke="#020300" stroke-linecap="round" stroke-linejoin="round"/>
<path d="M171.146 83.2617C170.93 84.1743 171.556 85.2015 172.466 85.4284C173.376 85.6553 174.41 85.0414 174.648 84.1347" stroke="#020300" stroke-linecap="round" stroke-linejoin="round"/>
</svg>
