<svg width="257" height="257" viewBox="0 0 257 257" fill="none" xmlns="http://www.w3.org/2000/svg">
<path d="M155.214 47.7075C153.825 42.9907 151.904 38.4903 149.523 34.269C140.234 17.8097 123.964 5.60763 105.197 1.77485C81.6045 -3.03159 56.4782 5.86934 41.1821 24.4573C22.3334 47.3562 23.0278 76.8645 23.4874 96.3818L23.882 113.019L16.6883 113.311C7.48136 113.683 0.320645 121.451 0.693621 130.657C1.05835 139.635 8.44884 146.666 17.3529 146.666C17.5806 146.666 17.8113 146.661 18.0411 146.651L24.6743 146.382L26.6999 231.832C27.0244 245.567 38.2621 256.488 51.9345 256.488C52.1416 256.488 52.3404 256.488 52.5475 256.48C66.4908 256.146 77.5204 244.575 77.1958 230.632L75.1506 144.337L82.2856 144.048C91.4925 143.676 98.6543 135.91 98.2813 126.702C97.9083 117.495 90.1366 110.342 80.9349 110.707L74.3594 110.973L73.9853 95.1897C73.6062 79.2445 73.7958 64.3008 80.1817 56.5445C83.5817 52.414 89.8584 50.1947 95.0986 51.26C97.1912 51.6845 99.2385 52.6582 101.024 54.0017C103.72 56.0222 105.858 58.8803 106.76 61.9743C110.701 75.3489 124.743 83.0062 138.118 79.0642C151.497 75.1233 159.145 61.0903 155.214 47.7075Z" fill="#4194E6"/>
<path d="M63.0548 26.7656C61.8504 28.3544 61.6268 30.6293 62.4984 32.4231C63.3701 34.2169 65.2978 35.445 67.2925 35.479C66.0633 36.4898 65.9273 38.231 66.3817 39.7559C66.8371 41.2808 68.261 42.4667 69.8425 42.6387" stroke="#020300" stroke-linecap="round" stroke-linejoin="round"/>
<path d="M110.881 31.8469C109.062 30.7857 106.569 31.0433 105.007 32.4548C103.444 33.8664 102.935 36.3206 103.806 38.237" stroke="#020300" stroke-linecap="round" stroke-linejoin="round"/>
<path d="M111.68 12.8863C110.034 12.7792 108.379 13.8455 107.796 15.3879C107.214 16.9313 107.751 18.8251 109.058 19.8327" stroke="#020300" stroke-linecap="round" stroke-linejoin="round"/>
<path d="M32.7615 55.4023C32.0969 57.9575 33.593 60.8929 36.0513 61.8563C38.5096 62.8196 41.6016 61.6821 42.8504 59.3557" stroke="#020300" stroke-linecap="round" stroke-linejoin="round"/>
<path d="M52.9108 101.203C52.7408 103.335 54.3481 105.465 56.4458 105.886C58.5425 106.306 60.8473 104.963 61.5139 102.93" stroke="#020300" stroke-linecap="round" stroke-linejoin="round"/>
<path d="M42.8281 135.359C43.1733 137.577 44.8383 139.535 46.971 140.234C49.1038 140.932 51.6044 140.338 53.1952 138.754C53.2683 140.24 54.5604 141.538 55.9987 141.919C57.436 142.301 59.0845 141.657 59.883 140.402" stroke="#020300" stroke-linecap="round" stroke-linejoin="round"/>
<path d="M48.4766 171.379C48.9278 173.483 50.8154 175.196 52.9533 175.444C55.0912 175.69 57.3198 174.451 58.2378 172.506" stroke="#020300" stroke-linecap="round" stroke-linejoin="round"/>
<path d="M37.4453 191.401C37.6596 193.804 39.9593 195.828 42.3702 195.735C44.7812 195.641 46.917 193.443 46.9428 191.031" stroke="#020300" stroke-linecap="round" stroke-linejoin="round"/>
<path d="M52.0813 204.871C51.5888 206.993 53.1559 209.364 55.301 209.741C57.4461 210.12 59.7293 208.427 59.991 206.264" stroke="#020300" stroke-linecap="round" stroke-linejoin="round"/>
<path d="M38.0918 225.301C39.1973 226.849 41.2271 227.681 43.1012 227.351C44.9754 227.021 46.6002 225.548 47.1112 223.715" stroke="#020300" stroke-linecap="round" stroke-linejoin="round"/>
<path d="M74.5938 110.48C74.7431 113.694 74.8915 116.908 75.0409 120.121" stroke="#020300" stroke-linecap="round" stroke-linejoin="round"/>
<path d="M24.6823 146.675C24.6782 143.281 24.674 139.886 24.6699 136.492" stroke="#020300" stroke-linecap="round" stroke-linejoin="round"/>
<path d="M38.3242 36.3653C45.9187 21.0681 60.7914 9.58833 77.5134 6.11719" stroke="white" stroke-linecap="round" stroke-linejoin="round"/>
<path d="M52.3906 251.187C58.0151 250.849 63.4604 248.15 67.1345 243.878C70.8086 239.606 72.6632 233.819 72.1563 228.207" stroke="#020300" stroke-linecap="round" stroke-linejoin="round"/>
<path d="M138.115 79.0647C124.74 83.0057 110.698 75.3494 106.757 61.9738C105.856 58.8808 103.718 56.0216 101.021 54.0012C101.815 49.7089 104.412 45.7133 108.182 43.4765C113.63 40.2474 121.105 40.8976 125.913 45.0281C126.725 41.0233 129.25 36.7031 133.218 35.748C137.186 34.7919 141.641 36.325 144.185 39.518C144.807 36.8216 146.972 34.9547 149.524 34.2695C151.905 38.4907 153.825 42.9901 155.214 47.7069C159.147 61.0898 151.499 75.1227 138.115 79.0647Z" fill="#65DEE6"/>
<path d="M125.443 64.8306C126.19 64.8306 126.795 64.2249 126.795 63.4778C126.795 62.7307 126.19 62.125 125.443 62.125C124.696 62.125 124.09 62.7307 124.09 63.4778C124.09 64.2249 124.696 64.8306 125.443 64.8306Z" fill="#020300"/>
<path d="M144.505 61.8267C145.252 61.8267 145.858 61.221 145.858 60.4739C145.858 59.7268 145.252 59.1211 144.505 59.1211C143.758 59.1211 143.152 59.7268 143.152 60.4739C143.152 61.221 143.758 61.8267 144.505 61.8267Z" fill="#020300"/>
<path d="M137.013 62.5039L131.766 63.2282C131.961 64.5975 133.38 65.666 134.75 65.4774C136.12 65.2878 137.195 63.8742 137.013 62.5039Z" fill="white"/>
<path d="M121.984 56.8348C122.422 55.8838 123.334 55.1657 124.361 54.9627C125.389 54.7597 126.504 55.0771 127.272 55.789" stroke="#020300" stroke-linecap="round" stroke-linejoin="round"/>
<path d="M142.389 51.5954C143.297 51.4728 144.206 51.3492 145.115 51.2266" stroke="#020300" stroke-linecap="round" stroke-linejoin="round"/>
<path d="M194.333 60.5353C194.863 56.0843 191.685 52.0455 187.233 51.5149C182.782 50.9843 178.743 54.1628 178.212 58.6148C177.682 63.0668 180.86 67.1046 185.312 67.6352C189.763 68.1659 193.802 64.9863 194.333 60.5353Z" fill="#FFA0E6"/>
<path d="M184.983 64.3489L183.248 78.5664L187.723 79.1124L189.458 64.8949L184.983 64.3489Z" fill="#FFA0E6"/>
<path d="M181.679 61.4595C182.426 61.4595 183.032 60.8538 183.032 60.1067C183.032 59.3596 182.426 58.7539 181.679 58.7539C180.932 58.7539 180.326 59.3596 180.326 60.1067C180.326 60.8538 180.932 61.4595 181.679 61.4595Z" fill="#020300"/>
<path d="M217.713 61.6486C218.244 57.1976 215.065 53.1588 210.613 52.6282C206.162 52.0976 202.124 55.2761 201.593 59.7281C201.062 64.1791 204.241 68.2179 208.693 68.7485C213.145 69.2791 217.183 66.1006 217.713 61.6486Z" fill="#FFA0E6"/>
<path d="M205.906 66.0247L204.17 80.2422L208.645 80.7886L210.381 66.5711L205.906 66.0247Z" fill="#FFA0E6"/>
<path d="M206.005 62.0416C206.752 62.0416 207.358 61.4359 207.358 60.6887C207.358 59.9416 206.752 59.3359 206.005 59.3359C205.258 59.3359 204.652 59.9416 204.652 60.6887C204.652 61.4359 205.258 62.0416 206.005 62.0416Z" fill="#020300"/>
<path d="M182.514 43.5749C184.704 42.8753 187.017 42.5631 189.315 42.6569" stroke="#020300" stroke-linecap="round" stroke-linejoin="round"/>
<path d="M204.568 44.2737C207.645 43.333 211.09 43.6617 213.933 45.168" stroke="#020300" stroke-linecap="round" stroke-linejoin="round"/>
<path d="M256.163 207.898C256.206 209.418 256.163 210.946 256.032 212.49C254.74 227.22 245.624 240.264 231.934 247.852C228.765 249.607 225.342 251.073 221.719 252.201C213.843 254.636 200.991 256.392 186.287 256.479C185.894 256.487 185.501 256.487 185.1 256.487C178.927 256.487 172.449 256.19 165.891 255.535C157.482 254.688 148.944 253.247 140.772 251.047C134.555 249.388 128.54 247.292 122.951 244.699C120.847 243.721 118.795 242.673 116.822 241.547C105.078 234.885 100.966 219.964 107.636 208.22C114.298 196.477 129.22 192.365 140.963 199.026C143.303 200.353 145.949 201.506 148.804 202.492C152.89 203.897 157.404 204.98 162.075 205.766C166.79 206.57 171.663 207.084 176.412 207.364C180.272 207.591 184.052 207.661 187.597 207.608C183.703 206.395 180.063 205.356 177.312 204.701C173.522 203.801 169.201 202.763 164.651 201.331C157.142 198.973 149.014 195.533 141.636 189.796C133.795 183.702 127.788 175.704 123.886 166.729C121.973 162.31 120.568 157.648 119.712 152.872C118.375 145.442 118.367 137.715 119.817 130.083C120.157 128.258 120.586 126.451 121.091 124.643C121.86 121.954 122.803 119.317 123.921 116.75C127.648 108.158 133.28 100.353 140.274 93.8654C143.837 90.5735 147.756 87.6052 151.947 85.0562C156.4 82.3495 161.176 80.1137 166.197 78.4199C166.965 78.1582 167.734 77.913 168.519 77.6863C186.89 72.1679 207.87 73.8092 226.486 82.2702C238.78 87.8576 244.21 102.352 238.622 114.637C233.55 125.795 221.133 131.313 209.696 128.047C208.535 127.715 207.382 127.296 206.255 126.781C200.45 124.144 194.137 123.001 188.374 123.454C186.078 123.629 183.86 124.057 181.808 124.755C177.748 126.126 174.09 128.693 171.514 131.802C169.925 133.714 168.747 135.827 168.135 138.001C168.082 138.167 168.039 138.341 168.012 138.516C166.903 143.143 168.492 148.74 171.653 151.194C173.146 152.356 175.329 153.351 177.853 154.206C181.145 155.341 185.012 156.267 188.601 157.131C188.628 157.131 188.662 157.14 188.689 157.149C195.638 158.808 209.827 163.086 221.518 167.653C225.682 169.276 229.524 170.935 232.615 172.525C247.014 179.94 255.727 193.212 256.163 207.898Z" fill="#FFA0E6"/>
<path d="M140.965 199.029C143.305 200.356 145.951 201.509 148.806 202.495C144.711 205.77 141.402 210.459 140.424 215.426C139.21 221.563 140.773 228.2 144.589 233.159C136.381 233.42 128.236 238.065 122.953 244.701C120.849 243.723 118.797 242.676 116.824 241.549C105.08 234.887 100.968 219.966 107.638 208.223C114.3 196.479 129.223 192.367 140.965 199.029Z" fill="#FC77C8"/>
<path d="M171.516 131.807C169.928 133.72 168.749 135.833 168.137 138.007C168.084 138.173 168.041 138.347 168.014 138.522C161.807 137.3 156.497 132.82 155.162 126.552C148.36 128.831 140.634 128.472 134.181 125.338C130.12 123.373 126.584 120.378 123.922 116.756C127.65 108.164 133.281 100.359 140.275 93.8711C138.825 99.5286 140.109 105.911 143.899 110.382C148.709 116.074 157.223 118.283 164.19 115.655C163.273 119.366 163.78 123.242 165.779 126.499C167.159 128.752 169.177 130.594 171.516 131.807Z" fill="#FC77C8"/>
<path d="M188.603 157.138C188.402 162.141 186.63 167.153 183.827 171.265C180.213 176.565 174.546 180.433 168.286 181.855C170.285 188.387 168.88 195.974 164.654 201.335C157.145 198.977 149.017 195.537 141.639 189.8C133.798 183.706 127.792 175.708 123.889 166.732C123.906 166.732 123.932 166.741 123.949 166.741C131.345 167.972 139.282 165.3 144.432 159.852C149.898 164.157 156.9 165.029 163.693 163.536C169.342 162.305 174.467 158.882 177.855 154.211C181.147 155.348 185.014 156.275 188.603 157.138Z" fill="#FC77C8"/>
<path d="M231.937 247.853C228.768 249.609 225.345 251.075 221.721 252.202C213.845 254.638 200.993 256.393 186.29 256.48C184.84 254.673 183.766 252.594 183.216 250.446C181.88 245.234 183.46 239.384 187.232 235.56C180.09 234.46 173.254 229.999 168.688 224.384C164.453 219.18 162.086 212.484 162.078 205.77C166.793 206.573 171.665 207.087 176.415 207.368C178.511 211.523 183.06 215.173 187.181 217.138C191.608 219.251 196.829 219.653 201.526 218.229C202.783 221.005 205.586 223.599 208.51 224.437C211.436 225.284 214.718 224.786 217.259 223.118C217.163 231.064 219.136 238.581 225.205 243.715C227.222 245.425 229.5 246.813 231.937 247.853Z" fill="#FC77C8"/>
<path d="M256.165 207.898C253.204 209.348 250.07 210.352 246.761 210.771C235.096 212.238 222.881 205.201 218.297 194.373C214.639 185.73 216.098 175.261 221.519 167.656C225.684 169.28 229.526 170.939 232.617 172.529C247.015 179.941 255.729 193.212 256.165 207.898Z" fill="#FC77C8"/>
<path d="M165.895 255.535C157.486 254.688 148.948 253.248 140.775 251.047C144.783 246.725 151.401 244.779 157.015 246.743C161.084 248.166 164.288 251.546 165.895 255.535Z" fill="#FC77C8"/>
<path d="M127.091 147.898C125.415 150.447 122.683 152.237 119.713 152.875C118.377 145.445 118.369 137.718 119.818 130.086C123.005 130.81 125.895 132.88 127.511 135.726C129.605 139.446 129.439 144.335 127.091 147.898Z" fill="#FC77C8"/>
<path d="M209.698 128.054C208.537 127.722 207.384 127.302 206.258 126.787C200.452 124.151 194.14 123.007 188.377 123.46C188.516 119.2 191.197 115.009 195.152 113.341C199.937 111.315 206.041 113.183 208.878 117.531C210.877 120.615 211.086 124.683 209.698 128.054Z" fill="#FC77C8"/>
<path d="M167.953 84.8117C166.146 88.2087 162.034 90.2157 158.253 89.5357C155.624 89.0731 153.302 87.3442 151.949 85.0652C156.402 82.3585 161.178 80.1227 166.199 78.4289C166.967 78.1672 167.736 77.922 168.521 77.6953C169.254 80.0269 169.097 82.646 167.953 84.8117Z" fill="#FC77C8"/>
<path d="M216.379 125.16C221.095 124.934 225.721 123.134 229.349 120.112C232.976 117.091 235.584 112.867 236.66 108.27" stroke="#020300" stroke-linecap="round" stroke-linejoin="round"/>
<path d="M222.65 246.753C236.448 243.117 247.84 231.521 251.228 217.66" stroke="#020300" stroke-linecap="round" stroke-linejoin="round"/>
<path d="M112.428 208.008C116.855 201.455 125.323 197.903 133.1 199.334" stroke="white" stroke-linecap="round" stroke-linejoin="round"/>
<path d="M185.57 207.42C188.386 207.283 191.201 207.146 194.017 207.008" stroke="#020300" stroke-linecap="round" stroke-linejoin="round"/>
<path d="M196.187 78.6562C196.022 80.7282 197.772 82.758 199.845 82.9001C201.918 83.0413 203.929 81.2681 204.047 79.1931L196.187 78.6562Z" fill="white"/>
</svg>
