<svg width="205" height="265" viewBox="0 0 205 265" fill="none" xmlns="http://www.w3.org/2000/svg">
<path d="M136.655 165.913C136.655 114.946 81.3818 75.6146 38.3273 85.971" stroke="#5065DD" stroke-width="8" stroke-miterlimit="10"/>
<path d="M116.058 130.305C66.4872 107.847 1.20715 160.327 10.5162 206.64" stroke="#5065DD" stroke-width="8" stroke-miterlimit="10"/>
<path d="M76.0291 141.826C42.4 167.077 47.2873 245.04 90.3418 260.051" stroke="#5065DD" stroke-width="8" stroke-miterlimit="10"/>
<path d="M77.6582 192.094C98.1382 226.189 160.625 244.923 201.004 189.185" stroke="#5065DD" stroke-width="8" stroke-miterlimit="10"/>
<path d="M103.142 204.313C140.96 216.182 186.458 157.302 177.382 73.8691" stroke="#5065DD" stroke-width="8" stroke-miterlimit="10"/>
<path fill-rule="evenodd" clip-rule="evenodd" d="M82.4291 71.6577C106.865 71.6577 124.436 81.5486 134.444 95.9777C135.142 97.025 136.655 96.5595 136.655 95.2795V73.8686H201.004V258.072H136.655V236.661C136.655 235.498 135.142 235.032 134.444 235.963C124.32 250.509 106.516 260.4 82.4291 260.4C38.7928 260.4 4 224.676 4 165.912C4 107.032 38.7928 71.6577 82.4291 71.6577ZM103.142 127.745C84.7564 127.745 69.6291 140.894 69.6291 165.912C69.6291 190.465 84.7564 204.312 103.142 204.312C121.178 204.312 136.655 190.814 136.655 165.912C136.655 141.243 121.178 127.745 103.142 127.745Z" stroke="#5065DD" stroke-width="8" stroke-miterlimit="10"/>
<path d="M140.96 28.4872C140.96 14.989 151.549 4.3999 168.189 4.3999C184.48 4.3999 195.185 14.989 195.185 28.4872C195.185 41.7526 184.48 52.2254 168.189 52.2254C151.549 52.2254 140.96 41.7526 140.96 28.4872Z" stroke="#FF9E1B" stroke-width="8" stroke-miterlimit="10"/>
</svg>
