<svg width="257" height="188" viewBox="0 0 257 188" fill="none" xmlns="http://www.w3.org/2000/svg">
<path d="M138.118 73.2184L203.37 180.335H194.722L131.97 77.2824L138.118 73.2184ZM150.518 64.6731L221.084 180.333H212.332L144.266 68.7371L150.518 64.6731ZM163.021 56.3381L238.798 180.333H229.836L156.77 60.4005L163.021 56.3381ZM175.317 47.7944L248.695 168.143V7.78234H256.197V180.335H247.34L169.064 51.8583L175.317 47.7944ZM211.185 97.2884L203.683 84.8894V7.78234H211.185V97.2884ZM226.19 121.878L218.688 109.27V7.78077H226.19V121.878ZM241.194 146.781L233.692 134.068V7.78077H241.194V146.781ZM124.037 37.7914C114.763 32.7891 104.743 30.2895 93.976 30.2895C82.4463 30.2895 71.7811 33.139 61.9868 38.8332C52.1925 44.5291 44.4458 52.2741 38.75 62.07C33.0542 71.8643 30.2063 82.5279 30.2063 94.0592C30.2063 105.591 33.0557 116.254 38.75 126.048C44.4458 135.843 52.1909 143.589 61.9868 149.285C71.7811 154.981 82.4447 157.829 93.976 157.829C104.745 157.829 114.763 155.328 124.037 150.327C133.131 145.422 140.561 138.771 146.349 130.392C146.487 130.255 148.385 127.415 149.149 126.1C149.574 125.369 149.961 124.625 150.352 123.885L145.701 116.246C144.81 118.322 143.8 120.36 142.637 122.35C141.976 123.478 141.286 124.575 140.564 125.642L140.553 125.634C135.413 133.207 128.744 139.215 120.547 143.66C112.35 148.107 103.494 150.329 93.976 150.329C83.7643 150.329 74.3513 147.812 65.7385 142.775C57.1257 137.74 50.3001 130.914 45.2633 122.3C40.2265 113.687 37.7097 104.274 37.7097 94.0624C37.7097 83.8507 40.2265 74.4392 45.2633 65.8249C50.3001 57.2121 57.1257 50.3865 65.7385 45.3497C74.3513 40.3145 83.7643 37.7961 93.976 37.7961C103.494 37.7961 112.331 40.0022 120.494 44.413C128.383 48.6778 134.846 54.3987 139.913 61.5491L146.095 57.3816C140.344 49.1658 133.003 42.6258 124.037 37.7914ZM163.349 145.224C155.725 155.536 146.172 163.864 134.613 170.121C122.039 176.93 108.495 180.333 93.976 180.333C82.305 180.333 71.1394 178.058 60.4758 173.507C49.8122 168.959 40.6266 162.827 32.9161 155.116C25.2055 147.405 19.0751 138.22 14.5247 127.556C9.97588 116.894 7.69911 105.727 7.69911 94.0561C7.69911 82.3851 9.97431 71.2194 14.5247 60.5558C19.0735 49.8938 25.2055 40.7067 32.9161 32.9962C40.6266 25.2856 49.8122 19.1552 60.4758 14.6048C71.1394 10.056 82.305 7.7792 93.976 7.7792C108.495 7.7792 122.022 11.1496 134.561 17.8858C146.869 24.4995 156.936 33.47 164.793 44.7691L170.983 40.5969C162.442 28.303 151.502 18.5417 138.156 11.3222C124.54 3.96002 109.813 0.277344 93.976 0.277344C81.2632 0.277344 69.1246 2.76123 57.5588 7.72743C45.993 12.6952 36.0245 19.3639 27.6534 27.7334C19.2822 36.1046 12.6135 46.073 7.64735 57.6389C2.68115 69.2047 0.197266 81.3433 0.197266 94.0561C0.197266 106.769 2.68115 118.907 7.64735 130.473C12.6135 142.039 19.2822 152.008 27.6534 160.379C36.0245 168.75 45.993 175.419 57.5588 180.385C69.1246 185.351 81.2632 187.835 93.976 187.835C109.745 187.835 124.437 184.171 138.052 176.842C149.751 170.543 159.589 162.318 167.597 152.197L163.349 145.224ZM117.004 51.0753C109.918 47.2201 102.244 45.2916 93.976 45.2916C87.3764 45.2916 81.0717 46.5767 75.0637 49.1469C69.0556 51.7171 63.8619 55.1911 59.4856 59.5673C55.1094 63.9435 51.6355 69.1372 49.0653 75.1453C46.4967 81.155 45.21 87.458 45.21 94.0577C45.21 100.657 46.4967 106.962 49.0653 112.97C51.6355 118.98 55.1094 124.172 59.4856 128.548C63.8619 132.924 69.0556 136.398 75.0637 138.968C81.0717 141.539 87.3764 142.824 93.976 142.824C102.173 142.824 109.815 140.914 116.899 137.093C123.969 133.282 129.725 128.118 134.167 121.608C134.178 121.594 134.192 121.586 134.201 121.572C135.979 118.934 137.523 116.085 138.833 113.023C139.547 111.354 140.129 109.655 140.643 107.938L136.023 100.353C134.603 106.041 131.882 111.848 128.173 117.207L128.153 117.192C124.401 122.75 119.521 127.161 113.513 130.426C107.505 133.692 100.993 135.323 93.976 135.323C82.5828 135.323 72.8591 131.296 64.8002 123.237C56.7413 115.179 52.7134 105.454 52.7134 94.0608C52.7134 82.6691 56.7413 72.9439 64.8002 64.885C72.8591 56.8277 82.5828 52.7982 93.976 52.7982C100.993 52.7982 107.505 54.4128 113.513 57.6436C119.185 60.6923 123.839 64.7924 127.5 69.9155L133.61 65.7966C129.26 59.6552 123.736 54.7376 117.004 51.0753ZM131.175 24.6093C119.712 18.3926 107.313 15.2842 93.976 15.2842C79.7364 15.2842 66.5717 18.81 54.4849 25.8599C42.3982 32.9115 32.8282 42.4798 25.7783 54.5666C18.7283 66.6534 15.2025 79.8181 15.2025 94.0577C15.2025 108.299 18.7283 121.462 25.7783 133.549C32.8282 145.635 42.3982 155.205 54.4849 162.255C66.5717 169.307 79.7364 172.831 93.976 172.831C107.244 172.831 119.592 169.757 131.018 163.61C142.444 157.462 151.769 149.109 158.995 138.549L158.993 138.548C159.045 138.473 159.094 138.394 159.144 138.319L154.721 131.057C153.702 132.824 152.951 134.07 152.951 134.07C146.422 143.655 137.981 151.262 127.63 156.889C117.279 162.516 106.061 165.329 93.9744 165.329C84.3198 165.329 75.0794 163.454 66.2579 159.702C57.4364 155.951 49.8467 150.898 43.4902 144.542C37.1338 138.185 32.0814 130.597 28.3296 121.774C24.5779 112.953 22.7028 103.714 22.7028 94.0577C22.7028 84.403 24.5779 75.1641 28.3296 66.3411C32.0814 57.5196 37.1338 49.9299 43.4902 43.5735C49.8467 37.2171 57.4364 32.1646 66.2579 28.4129C75.0794 24.6611 84.3198 22.7861 93.9744 22.7861C105.992 22.7861 117.194 25.5822 127.578 31.1745C137.668 36.6083 145.923 43.9422 152.372 53.145L158.551 48.979C151.419 38.7814 142.304 30.6472 131.175 24.6093Z" fill="#CDFF4F"/>
</svg>
