<svg width="257" height="216" viewBox="0 0 257 216" fill="none" xmlns="http://www.w3.org/2000/svg">
<path d="M210.393 17.4531C211.144 23.9254 211.17 30.4916 210.848 37.0316C210.519 43.5775 209.778 50.1175 208.683 56.6136C206.476 69.601 202.864 82.4327 197.843 94.7681C187.836 119.47 172.078 142.066 151.92 160.066C149.379 162.336 146.729 164.491 144.031 166.582C141.317 168.656 138.494 170.589 135.632 172.455C129.913 176.202 123.85 179.419 117.618 182.201C111.386 184.992 104.917 187.209 98.3721 189.009C91.8 190.72 85.1496 192.05 78.4516 192.792C65.0652 194.359 51.6028 193.988 38.5192 192.031C31.9745 191.054 25.52 189.665 19.1961 187.905C12.8711 186.155 6.68259 183.976 0.703125 181.375C13.6323 183.008 26.4237 183.968 39.1 183.824C51.7631 183.685 64.2767 182.471 76.3924 179.957C82.4383 178.647 88.4035 177.113 94.1965 175.115C100.023 173.223 105.642 170.817 111.134 168.207C113.875 166.889 116.555 165.452 119.188 163.938C121.817 162.419 124.426 160.865 126.949 159.173C129.476 157.49 131.962 155.742 134.364 153.879C136.784 152.04 139.168 150.147 141.461 148.139C143.751 146.152 146.008 144.035 148.24 141.891C150.485 139.766 152.636 137.545 154.773 135.307C158.973 130.771 163.057 126.108 166.842 121.197C174.456 111.409 181.169 100.865 186.944 89.7483C192.709 78.6254 197.586 66.9491 201.519 54.8607C203.486 48.8159 205.215 42.6702 206.729 36.439C208.205 30.203 209.537 23.8934 210.393 17.4531Z" fill="#00005B"/>
<path d="M232.934 47.2565L216.276 23.841H216.268L216.272 23.8386L232.931 0.421875L209.515 17.0801L186.102 0.425445L202.758 23.8374H202.757L186.1 47.2541L209.515 30.5959L209.518 30.5912V30.5983L232.934 47.2565Z" fill="#00005B"/>
<path d="M25.8097 106.864L20.9073 95.688H20.9026L20.9062 95.6869L25.8073 84.5117L14.6322 89.4129V89.4141L3.45823 84.5129L8.35937 95.6869L3.45703 106.863L14.6322 101.961L14.6334 101.957V101.962L25.8097 106.864Z" fill="#00005B"/>
<path d="M102.835 17.4555L100.004 10.9998H100.002L100.003 10.9987L102.835 4.54297L96.3795 7.37535L89.925 4.54416L92.7562 10.9987H92.755L89.9238 17.4543L96.3795 14.6231L96.3807 14.6208V14.6243L102.835 17.4555Z" fill="#00005B"/>
<path d="M242.768 182.958L238.235 172.626H238.231L238.234 172.625L242.765 162.293L232.434 166.826L222.103 162.294L226.635 172.625L222.102 182.957L232.434 178.425L232.435 178.423V178.426L242.768 182.958Z" fill="#00005B"/>
<path d="M256.704 126.72L253.871 120.264H253.869L253.871 120.263L256.702 113.809L250.247 116.64L243.792 113.809L246.623 120.263L243.791 126.719L250.247 123.888L250.248 123.885V123.888L256.704 126.72Z" fill="#00005B"/>
<path d="M199.97 215.182C203.357 215.182 206.104 212.436 206.104 209.048C206.104 205.66 203.357 202.914 199.97 202.914C196.582 202.914 193.836 205.66 193.836 209.048C193.836 212.436 196.582 215.182 199.97 215.182Z" fill="#004CD3"/>
<path d="M21.9907 56.8369C24.9304 56.8369 27.3134 54.4538 27.3134 51.5141C27.3134 48.5745 24.9304 46.1914 21.9907 46.1914C19.051 46.1914 16.668 48.5745 16.668 51.5141C16.668 54.4538 19.051 56.8369 21.9907 56.8369Z" fill="#004CD3"/>
<path d="M59.2442 215.438C61.0078 215.438 62.4376 214.008 62.4376 212.244C62.4376 210.481 61.0078 209.051 59.2442 209.051C57.4805 209.051 56.0508 210.481 56.0508 212.244C56.0508 214.008 57.4805 215.438 59.2442 215.438Z" fill="#004CD3"/>
<path d="M237.002 78.127C237.002 79.8906 235.572 81.3204 233.809 81.3204C232.045 81.3204 230.615 79.8906 230.615 78.127C230.615 76.3635 232.045 74.9336 233.809 74.9336C235.573 74.9336 237.002 76.3635 237.002 78.127Z" fill="#004CD3"/>
<path d="M64.5661 37.1434C64.5661 39.2003 62.8976 40.8688 60.8407 40.8688C58.7838 40.8688 57.1152 39.2003 57.1152 37.1434C57.1152 35.0865 58.7838 33.418 60.8407 33.418C62.8988 33.418 64.5661 35.0865 64.5661 37.1434Z" fill="#004CD3"/>
<path d="M82.42 147.442C91.8161 145.915 101.431 143.274 110.886 139.733C115.608 137.945 120.347 136.025 124.994 133.827C129.633 131.617 134.213 129.201 138.724 126.602C147.687 121.328 156.373 115.353 164.355 108.444C168.332 104.981 172.189 101.336 175.73 97.3954C179.286 93.4705 182.694 89.3698 185.711 84.9829C187.659 82.1659 189.483 79.2421 191.138 76.2209C188.365 72.5287 185.289 69.0776 181.951 65.8984C178.607 69.9089 174.921 73.6165 171.104 77.1389C167.224 80.7468 163.058 84.0328 158.787 87.1264C150.22 93.2959 141.035 98.4714 131.638 102.924C126.913 105.11 122.136 107.107 117.317 108.894C112.493 110.668 107.601 112.158 102.739 113.516C93.0049 116.198 83.1931 117.97 73.6984 118.653C64.2464 119.349 54.9786 118.863 47.3662 116.803C45.5765 116.362 43.9697 115.741 42.4151 115.151C41.9496 118.711 41.6836 122.335 41.6836 126.023C41.6836 131.87 42.2952 137.572 43.4448 143.078C43.706 143.263 43.9257 143.484 44.2191 143.653C44.8342 144.006 45.3853 144.431 46.0943 144.744C47.3899 145.47 48.9599 146.07 50.5893 146.644C52.3006 147.122 54.0712 147.649 56.0296 147.948C63.794 149.322 73.0678 148.979 82.42 147.442Z" fill="#004CD3"/>
<path d="M157.51 49.7578C155.763 50.9929 153.977 52.165 152.161 53.2826C148.93 55.2884 145.539 57.0282 142.104 58.6171C135.216 61.7797 128.028 64.1572 120.792 65.9956C117.161 66.8827 113.52 67.6297 109.879 68.2235C106.234 68.8078 102.583 69.1807 98.9694 69.4657C91.7406 70.0108 84.5831 69.9027 77.7984 69.0714C73.8747 68.5976 70.059 67.8423 66.5461 66.8091C53.6573 79.4794 44.8775 96.3193 42.4121 115.151C43.9667 115.741 45.5735 116.362 47.3631 116.803C54.9755 118.862 64.2434 119.349 73.6954 118.653C83.1901 117.97 93.0018 116.198 102.736 113.515C107.6 112.157 112.49 110.668 117.314 108.893C122.132 107.106 126.908 105.109 131.635 102.923C141.032 98.4711 150.217 93.2957 158.784 87.1262C163.055 84.0326 167.222 80.7465 171.101 77.1387C174.919 73.6163 178.605 69.9087 181.948 65.8982C174.877 59.1611 166.609 53.6792 157.51 49.7578Z" fill="#00005B"/>
<path d="M98.9702 69.4676C102.584 69.1826 106.236 68.8097 109.879 68.2254C113.52 67.6316 117.162 66.8846 120.793 65.9975C128.029 64.1591 135.215 61.7828 142.104 58.619C145.541 57.0301 148.93 55.2903 152.162 53.2844C153.977 52.1681 155.764 50.9948 157.511 49.7597C147.446 45.4227 136.364 43 124.707 43C102.046 43 81.5223 52.0897 66.5469 66.811C70.0597 67.8442 73.8754 68.5995 77.7992 69.0733C84.5838 69.9046 91.7414 70.0127 98.9702 69.4676Z" fill="#004CD3"/>
<path d="M106.42 198.139C161.122 195.012 202.931 148.134 199.805 93.4328C199.74 92.3058 199.645 91.1895 199.544 90.0732C197.769 86.3774 195.738 82.8277 193.453 79.4609C192.336 82.1461 191.128 84.7967 189.842 87.4047C184.929 97.3257 178.902 106.762 172.076 115.66C168.635 120.082 165.084 124.469 161.277 128.648C157.466 132.819 153.47 136.848 149.311 140.739C132.604 156.151 113.074 169.523 89.8513 177.12C88.387 177.565 86.9417 178.056 85.4501 178.454C83.9537 178.839 82.4717 179.26 80.9515 179.607C79.4243 179.937 77.9113 180.307 76.3592 180.594C74.7975 180.852 73.2525 181.152 71.6659 181.362C70.0698 181.552 68.4974 181.801 66.8704 181.927C65.7612 181.995 64.6663 182.098 63.5547 182.162C68.4915 187.537 74.1277 192.256 80.3186 196.181C81.651 196.461 82.9918 196.718 84.3421 196.943C91.4901 198.139 98.8793 198.57 106.42 198.139Z" fill="#00005B"/>
<path d="M203.552 99.9917C202.426 96.5822 201.079 93.2736 199.542 90.0742C199.644 91.1894 200.062 92.3354 199.802 93.4339C188.039 143.055 162.493 181.374 109.272 195.212C101.961 197.112 91.488 198.14 84.3399 196.947C82.9896 196.721 81.6489 196.464 80.3164 196.184C88.1853 201.174 96.9497 204.878 106.316 206.997C112.231 208.336 118.385 209.05 124.707 209.05C170.561 209.05 207.732 171.878 207.732 126.025C207.731 116.928 206.255 108.181 203.552 99.9917Z" fill="#004CD3"/>
</svg>
