<svg width="257" height="252" viewBox="0 0 257 252" fill="none" xmlns="http://www.w3.org/2000/svg">
<path fill-rule="evenodd" clip-rule="evenodd" d="M256.5 126.267C256.5 127.145 256.5 128.059 256.5 129.01C255.732 162.463 241.912 192.735 219.756 214.891C197.052 237.596 165.792 251.635 131.132 251.635H0.5V0.899902H128.939C145.391 0.899902 161.185 4.08065 175.773 9.89385C222.608 28.4303 256.5 73.6197 256.5 126.267ZM124.99 175.515C134.752 175.296 143.746 172.225 151.204 167.179C151.204 167.179 151.241 167.179 151.314 167.179C152.557 166.302 153.8 165.351 155.043 164.327C157.456 162.28 159.687 160.05 161.734 157.637C162.758 156.394 163.708 155.151 164.586 153.908V153.798C169.85 146.01 173.031 136.468 173.031 126.267C173.031 125.975 172.995 125.646 172.922 125.28C172.922 124.768 172.922 124.257 172.922 123.745C171.605 97.6403 150.108 76.9102 123.674 76.9102C96.3629 76.9102 74.3166 98.9564 74.3166 126.267C74.3166 153.469 96.3629 175.625 123.674 175.625C124.113 175.625 124.551 175.588 124.99 175.515Z" fill="url(#paint0_linear_1_570)"/>
<path style="mix-blend-mode:multiply" d="M204.51 126.268C189.593 155.334 159.431 175.186 124.551 175.515C124.222 175.515 124.003 175.625 123.674 175.625C96.3629 175.625 74.3166 153.469 74.3166 126.268C74.3166 176.502 115.009 217.195 165.244 217.195C214.601 217.195 254.964 177.928 256.5 129.01C256.5 128.059 256.5 127.145 256.5 126.268H204.51Z" fill="url(#paint1_linear_1_570)"/>
<path style="mix-blend-mode:multiply" d="M214.601 84.6976C214.601 134.384 174.567 174.857 124.99 175.515C124.551 175.588 124.113 175.625 123.674 175.625C124.551 175.625 125.392 175.588 126.197 175.515C126.782 175.442 127.367 175.405 127.952 175.405C128.756 175.332 129.56 175.223 130.365 175.076C130.73 175.076 131.096 175.04 131.461 174.967C132.412 174.82 133.363 174.638 134.313 174.418C134.533 174.345 134.752 174.309 134.971 174.309C136.068 174.016 137.128 173.724 138.152 173.431C138.225 173.431 138.298 173.395 138.371 173.321C142.978 171.896 147.365 169.812 151.204 167.179C151.204 167.179 151.241 167.179 151.314 167.179C152.557 166.302 153.8 165.351 155.043 164.327C157.456 162.28 159.687 160.05 161.734 157.637C162.758 156.394 163.708 155.151 164.586 153.908V153.798C169.96 146.01 173.031 136.468 173.031 126.267C173.031 125.938 172.922 125.609 172.922 125.28C172.922 124.768 172.922 124.257 172.922 123.745C171.934 89.5237 152.191 60.1287 123.674 45.4311V0.899902H128.939C145.391 0.899902 161.185 4.08065 175.773 9.89385C199.245 26.456 214.601 53.8767 214.601 84.6976Z" fill="url(#paint2_linear_1_570)"/>
<path style="mix-blend-mode:multiply" d="M123.674 251.635V207.104C94.3886 192.077 74.3166 161.476 74.3166 126.267C74.3166 98.9564 96.3629 76.9102 123.674 76.9102C73.4391 76.9102 32.7468 117.602 32.7468 167.837C32.7468 205.239 55.3415 237.486 87.5883 251.635H123.674Z" fill="url(#paint3_linear_1_570)"/>
<path style="mix-blend-mode:multiply" d="M82.1041 35.3403C46.4572 35.3403 15.5266 55.7414 0.5 85.4654V126.268H42.8376C57.8642 96.9822 88.356 76.9102 123.674 76.9102C150.875 76.9102 173.031 99.0661 173.031 126.268C173.031 76.0327 132.229 35.3403 82.1041 35.3403Z" fill="url(#paint4_linear_1_570)"/>
<defs>
<linearGradient id="paint0_linear_1_570" x1="-133.968" y1="135.055" x2="183.273" y2="-169.346" gradientUnits="userSpaceOnUse">
<stop stop-color="#8A2387"/>
<stop offset="0.515" stop-color="#E94057"/>
<stop offset="1" stop-color="#F27121"/>
</linearGradient>
<linearGradient id="paint1_linear_1_570" x1="94.2855" y1="127.659" x2="239.124" y2="123.446" gradientUnits="userSpaceOnUse">
<stop stop-color="#A766AA"/>
<stop offset="1" stop-color="white"/>
</linearGradient>
<linearGradient id="paint2_linear_1_570" x1="0.955144" y1="154.895" x2="-2.06775" y2="28.9118" gradientUnits="userSpaceOnUse">
<stop stop-color="#A766AA"/>
<stop offset="1" stop-color="white"/>
</linearGradient>
<linearGradient id="paint3_linear_1_570" x1="245.998" y1="96.0608" x2="246.497" y2="227.254" gradientUnits="userSpaceOnUse">
<stop stop-color="#A766AA"/>
<stop offset="1" stop-color="white"/>
</linearGradient>
<linearGradient id="paint4_linear_1_570" x1="145.03" y1="125.653" x2="35.3649" y2="127.639" gradientUnits="userSpaceOnUse">
<stop stop-color="#A766AA"/>
<stop offset="1" stop-color="white"/>
</linearGradient>
</defs>
</svg>
