<svg width="257" height="219" viewBox="0 0 257 219" fill="none" xmlns="http://www.w3.org/2000/svg">
<path d="M3.52344 0.199219L32.363 49.4933L7.33484 45.1737L3.52344 0.199219Z" fill="#FFA057"/>
<path d="M32.363 49.4933L42.0186 9.85477L3.52344 0.199219L32.363 49.4933Z" fill="#FFB882"/>
<path d="M42.0169 9.85547L91.1839 22.4331L32.3613 49.494L42.0169 9.85547Z" fill="#FFA057"/>
<path d="M61.8379 36.0276L117.103 79.6046L91.1857 22.4336L61.8379 36.0276Z" fill="#FFB882"/>
<path d="M32.3613 49.4904L117.101 79.6004L61.8362 36.0234L32.3613 49.4904Z" fill="#E86805"/>
<path d="M32.3613 49.4961L51.0372 87.6101L117.101 79.6061L32.3613 49.4961Z" fill="#D64705"/>
<path d="M32.3613 49.4954L0.599609 85.7037L7.33309 45.1758L32.3613 49.4954Z" fill="#FF8C00"/>
<path d="M0.599609 85.7044L51.0371 87.6101L32.3613 49.4961L0.599609 85.7044Z" fill="#E86805"/>
<path d="M49.1314 115.686L51.0371 87.6088L0.599609 85.7031L49.1314 115.686Z" fill="#DB420F"/>
<path d="M49.1328 115.687L51.0385 87.6094L98.808 100.695L49.1328 115.687Z" fill="#DD3B05"/>
<path d="M49.1328 115.687L117.103 111.621L98.808 100.695L49.1328 115.687Z" fill="#C43405"/>
<path d="M117.103 111.617V79.6016L98.8086 100.691L117.103 111.617Z" fill="#AD2E05"/>
<path d="M117.103 79.6016L51.0391 87.6055L98.8086 100.691L117.103 79.6016Z" fill="#C43405"/>
<path d="M22.3242 154.818L72.2536 129.409L49.1311 115.688L22.3242 154.818Z" fill="#C43405"/>
<path d="M72.2553 129.404L117.103 111.617L49.1328 115.683L72.2553 129.404Z" fill="#AD2E05"/>
<path d="M72.2539 129.404L117.101 148.969V111.617L72.2539 129.404Z" fill="#C43405"/>
<path d="M72.2536 129.406L55.1023 169.68L22.3242 154.816L72.2536 129.406Z" fill="#DD3B05"/>
<path d="M55.1035 169.68L88.2627 158.627L72.2548 129.406L55.1035 169.68Z" fill="#DB420F"/>
<path d="M22.3242 154.812L55.1023 169.677L33.6314 203.09L22.3242 154.812Z" fill="#FF8157"/>
<path d="M55.1017 169.684L69.7121 218.597L33.6309 203.097L55.1017 169.684Z" fill="#FFA182"/>
<path d="M69.7139 218.591L88.2627 158.625L55.1035 169.678L69.7139 218.591Z" fill="#DD3B05"/>
<path d="M102.872 203.095L88.2617 158.628L117.101 148.973L102.872 203.095Z" fill="#DD3B05"/>
<path d="M102.872 203.091L88.2617 158.625L69.7129 218.591L102.872 203.091Z" fill="#FF8157"/>
<path d="M88.2618 158.627L72.2539 129.406L117.101 148.971L88.2618 158.627Z" fill="#C43405"/>
<path d="M253.55 0.199219L224.838 49.4933L249.866 45.1737L253.55 0.199219Z" fill="#FFA057"/>
<path d="M224.837 49.4933L215.182 9.85477L253.55 0.199219L224.837 49.4933Z" fill="#FFB882"/>
<path d="M215.181 9.85547L165.887 22.4331L224.836 49.494L215.181 9.85547Z" fill="#FFA057"/>
<path d="M195.363 36.0276L139.971 79.6046L165.888 22.4336L195.363 36.0276Z" fill="#FFB882"/>
<path d="M224.838 49.4904L139.971 79.6004L195.363 36.0234L224.838 49.4904Z" fill="#E86805"/>
<path d="M224.838 49.4961L206.162 87.6101L139.971 79.6061L224.838 49.4961Z" fill="#D64705"/>
<path d="M224.838 49.4954L256.6 85.7037L249.866 45.1758L224.838 49.4954Z" fill="#FF8C00"/>
<path d="M256.6 85.7044L206.162 87.6101L224.838 49.4961L256.6 85.7044Z" fill="#E86805"/>
<path d="M208.068 115.686L206.162 87.6088L256.6 85.7031L208.068 115.686Z" fill="#DB420F"/>
<path d="M208.068 115.687L206.162 87.6094L158.393 100.695L208.068 115.687Z" fill="#DD3B05"/>
<path d="M208.068 115.687L140.098 111.621L158.392 100.695L208.068 115.687Z" fill="#C43405"/>
<path d="M140.098 111.617L139.971 79.6016L158.392 100.691L140.098 111.617Z" fill="#AD2E05"/>
<path d="M139.971 79.6016L206.162 87.6055L158.392 100.691L139.971 79.6016Z" fill="#C43405"/>
<path d="M234.873 154.818L184.943 129.409L208.066 115.688L234.873 154.818Z" fill="#C43405"/>
<path d="M184.945 129.404L140.098 111.617L208.068 115.683L184.945 129.404Z" fill="#AD2E05"/>
<path d="M184.945 129.404L140.098 148.969V111.617L184.945 129.404Z" fill="#C43405"/>
<path d="M184.943 129.406L202.095 169.68L234.873 154.816L184.943 129.406Z" fill="#DD3B05"/>
<path d="M202.095 169.68L168.936 158.627L184.943 129.406L202.095 169.68Z" fill="#DB420F"/>
<path d="M234.874 154.812L202.096 169.677L223.567 203.09L234.874 154.812Z" fill="#FF8157"/>
<path d="M202.095 169.684L187.484 218.597L223.566 203.097L202.095 169.684Z" fill="#FFA182"/>
<path d="M187.484 218.591L168.936 158.625L202.095 169.678L187.484 218.591Z" fill="#DD3B05"/>
<path d="M154.327 203.095L168.937 158.628L140.098 148.973L154.327 203.095Z" fill="#DD3B05"/>
<path d="M154.326 203.091L168.937 158.625L187.485 218.591L154.326 203.091Z" fill="#FF8157"/>
<path d="M168.937 158.627L184.945 129.406L140.098 148.971L168.937 158.627Z" fill="#C43405"/>
<path d="M120.405 65.1205L122.819 63.0878L103.889 18.1133L120.405 65.1205Z" fill="#82B5E8"/>
<path d="M134.381 63.0878L136.795 65.1205L153.184 18.1133L134.381 63.0878Z" fill="#82B5E8"/>
<path d="M122.945 57.625L132.728 68.551L117.482 67.2805L122.945 57.625Z" fill="#639CD6"/>
<path d="M132.73 68.551L134.127 57.625H122.947L132.73 68.551Z" fill="#82B5E8"/>
<path d="M134.126 57.625L132.729 68.551L139.716 67.2805L134.126 57.625Z" fill="#4D8CCB"/>
<path d="M132.728 68.5517L122.945 76.9368L117.482 67.2812L132.728 68.5517Z" fill="#4D8CCB"/>
<path d="M132.729 68.5517L134.126 76.9368L139.716 67.2812L132.729 68.5517Z" fill="#82B5E8"/>
<path d="M134.127 76.9359L132.73 68.5508L122.947 76.9359H134.127Z" fill="#195DA1"/>
<path d="M136.922 152.276L128.537 189.882L120.279 152.276V132.203L128.537 127.375L136.922 132.203V152.276Z" fill="#4D8CCB"/>
<path d="M128.537 155.58V189.882L120.279 152.276V132.203L128.537 155.58Z" fill="#82B5E8"/>
<path d="M128.538 72.6172V109.334L117.104 79.6048L128.538 72.6172Z" fill="#195DA1"/>
<path d="M128.538 109.33L117.104 148.969V79.6016L128.538 109.33Z" fill="#003366"/>
<path d="M128.538 109.336V155.581L117.104 148.974L128.538 109.336Z" fill="#639CD6"/>
<path d="M128.537 72.6172V109.334L139.971 79.6048L128.537 72.6172Z" fill="#639CD6"/>
<path d="M128.537 109.33L139.971 148.969V79.6016L128.537 109.33Z" fill="#003366"/>
<path d="M128.537 109.336V155.581L139.971 148.974L128.537 109.336Z" fill="#195DA1"/>
</svg>
