<svg width="226" height="265" viewBox="0 0 226 265" fill="none" xmlns="http://www.w3.org/2000/svg">
<path d="M113.152 21.4844C55.2951 21.4844 8.39258 68.3864 8.39258 126.243V256.836H217.911V126.243C217.911 68.3864 171.009 21.4844 113.152 21.4844Z" stroke="black" stroke-width="15" stroke-miterlimit="10"/>
<path d="M49.7578 43.125V256.837" stroke="black" stroke-width="15" stroke-miterlimit="10"/>
<path d="M113.152 21.4844V256.836" stroke="black" stroke-width="15" stroke-miterlimit="10"/>
<path d="M176.547 42.8359V256.834" stroke="black" stroke-width="15" stroke-miterlimit="10"/>
<path d="M67.784 0.835938H31.7305V161.828C31.7305 171.784 39.8015 179.855 49.7575 179.855C59.7134 179.855 67.7845 171.784 67.7845 161.828V0.835938H67.784Z" fill="black"/>
<path d="M131.179 0.835938H95.125V145.071C95.125 152.877 101.453 159.206 109.26 159.206H117.044C124.85 159.206 131.179 152.877 131.179 145.071L131.179 0.835938Z" fill="black"/>
<path d="M193.072 0.835938H157.018V161.828C157.018 171.784 165.089 179.855 175.045 179.855C185.001 179.855 193.072 171.784 193.072 161.828V0.835938Z" fill="black"/>
<path d="M175.045 112.991C181.298 112.991 186.368 107.921 186.368 101.668C186.368 95.4136 181.298 90.3438 175.045 90.3438C168.791 90.3438 163.721 95.4136 163.721 101.668C163.721 107.921 168.791 112.991 175.045 112.991Z" stroke="black" stroke-miterlimit="10"/>
<path d="M79.107 224.12C85.3609 224.12 90.4308 219.05 90.4308 212.796C90.4308 206.542 85.3609 201.473 79.107 201.473C72.853 201.473 67.7832 206.542 67.7832 212.796C67.7832 219.05 72.853 224.12 79.107 224.12Z" fill="black"/>
</svg>
