<svg width="257" height="213" viewBox="0 0 257 213" fill="none" xmlns="http://www.w3.org/2000/svg">
<path fill-rule="evenodd" clip-rule="evenodd" d="M207.773 108.154L211.28 110.851C210.309 113.819 210.309 113.819 209.338 116.786L204.914 116.948C203.673 118.675 203.133 119.43 201.838 121.21L203.079 125.419C200.543 127.253 200.543 127.253 198.008 129.087L194.393 126.606C192.289 127.307 191.425 127.577 189.375 128.224L187.918 132.379H181.66L180.149 128.224C178.099 127.577 177.236 127.307 175.185 126.606L171.517 129.087C168.981 127.253 168.981 127.253 166.445 125.419L167.686 121.21C166.445 119.43 165.852 118.675 164.611 116.948L160.186 116.786C159.269 113.819 159.269 113.819 158.244 110.851L158.784 110.474L161.751 108.154V102.92L160.564 102.003L158.244 100.223C159.269 97.2552 159.269 97.2552 160.186 94.2877L164.611 94.1259C165.852 92.3994 166.445 91.644 167.686 89.9175L166.445 85.6553C168.981 83.8209 168.981 83.8209 171.517 81.9865L175.185 84.4683C177.236 83.7669 178.099 83.4971 180.149 82.8497L181.66 78.6953H187.918L189.375 82.8497C191.425 83.4971 192.289 83.7669 194.393 84.4683L198.008 81.9865C200.543 83.8209 200.543 83.8209 203.079 85.6553L202.701 86.8962L201.838 89.9175C202.648 90.9966 203.187 91.698 203.781 92.5612C204.104 92.9929 204.482 93.5324 204.914 94.1259L209.338 94.2877C210.309 97.2552 210.309 97.2552 211.28 100.223L207.773 102.92V108.154ZM200.813 105.51C200.813 101.464 199.356 97.7947 196.875 94.9891C195.364 93.2087 193.422 91.752 191.209 90.7808C189.213 89.9175 187.055 89.432 184.789 89.432C178.531 89.432 173.135 92.9929 170.491 98.1724C169.358 100.384 168.711 102.866 168.711 105.51C168.711 105.69 168.711 105.852 168.711 105.996C168.981 114.628 176.049 121.534 184.789 121.534C193.637 121.534 200.813 114.358 200.813 105.51Z" fill="#26475E"/>
<path d="M189.535 97.7395C188.186 96.8762 186.514 96.3906 184.787 96.3906C180.579 96.3906 177.018 99.1962 175.939 103.081C175.723 103.872 175.615 104.699 175.615 105.563C175.615 110.58 179.716 114.681 184.787 114.681C189.805 114.681 193.905 110.58 193.905 105.563C193.905 102.218 192.179 99.358 189.535 97.7395Z" fill="url(#paint0_linear_30_53)"/>
<path d="M194.715 69.7926C164.772 89.4855 157.919 69.2531 145.834 66.1238C169.681 46.6467 179.663 68.228 194.715 69.7926Z" fill="url(#paint1_linear_30_53)"/>
<path style="mix-blend-mode:multiply" d="M194.715 69.7921C164.772 89.4849 157.919 69.2525 145.834 66.1232C163.099 60.5661 175.778 76.2125 194.715 69.7921Z" fill="url(#paint2_radial_30_53)"/>
<path d="M232.861 90.2396C229.731 92.9373 227.789 96.4442 227.789 100.76V136.1C227.789 142.142 222.879 146.998 216.89 146.998H159.7C143.406 146.998 142.273 137.988 147.723 129.14C146.464 129.895 145.313 130.686 144.27 131.514C144.09 131.658 143.892 131.819 143.676 131.999C143.46 132.143 143.262 132.305 143.083 132.485L142.867 132.701C142.687 132.845 142.525 132.988 142.381 133.132C135.745 139.391 134.828 146.998 137.957 151.692C139.738 154.336 142.813 156.116 146.913 156.116H217.484C228.868 156.116 238.148 146.836 238.148 135.452V100.76C238.148 92.128 241.115 87.9736 243.597 84.8443C239.443 86.0313 235.666 87.8117 232.861 90.2396ZM78.7706 12.1695H41.9206C30.5365 12.1695 21.3105 21.4494 21.3105 32.8335V82.7941C21.3105 88.621 22.3896 93.5307 26.544 97.1996C28.9719 99.3577 32.4249 101.084 37.2267 102.325C37.4425 102.397 37.6583 102.451 37.8741 102.487C37.9101 102.487 37.9641 102.505 38.036 102.541C32.3709 95.4731 31.6695 88.0275 31.6695 80.1504V32.1322C31.6695 26.1434 36.5253 21.2876 42.5141 21.2876H82.2775C86.27 21.2876 89.6691 19.669 92.2049 16.8634C94.363 14.5434 95.8737 11.4142 96.5751 7.69141C93.4458 9.95744 88.9677 12.1695 78.7706 12.1695ZM217.484 12.1695H112.383L113.139 16.8634L113.84 21.2876H216.89C222.879 21.2876 227.789 26.1434 227.789 32.1322V81.9308L232.861 79.395L238.148 76.8053V32.8335C238.148 21.4494 228.868 12.1695 217.484 12.1695ZM123.228 151.692L119.451 146.998H42.5681C36.5253 146.998 31.6695 142.142 31.6695 136.1V114.087H30.2128L26.544 109.825L21.3105 103.62V135.452C21.3105 146.836 30.5365 156.116 41.9206 156.116H126.735L123.228 151.692Z" fill="url(#paint3_linear_30_53)"/>
<path style="mix-blend-mode:multiply" d="M119.452 146.998L123.229 151.692H41.9215C33.4509 151.692 26.5449 144.786 26.5449 136.261V109.824L30.2137 114.087H31.6705V136.099C31.6705 142.142 36.5262 146.998 42.569 146.998H119.452Z" fill="url(#paint4_radial_30_53)"/>
<path style="mix-blend-mode:multiply" d="M232.861 32.2939V79.3949L227.789 81.9307V32.132C227.789 26.1432 222.879 21.2874 216.89 21.2874H113.84L113.139 16.8633H217.484C225.955 16.8633 232.861 23.7693 232.861 32.2939Z" fill="url(#paint5_radial_30_53)"/>
<path fill-rule="evenodd" clip-rule="evenodd" d="M254.549 197.5C258.272 204.19 253.416 212.445 245.701 212.445H13.703C6.04164 212.445 1.13191 204.19 4.85468 197.5L18.0192 173.653C20.0155 169.984 23.9001 167.664 28.1084 167.664H231.35C235.558 167.664 239.389 169.984 241.439 173.653L254.549 197.5ZM232.267 189.731L224.659 175.865C223.634 173.977 221.584 172.79 219.426 172.79H39.9781C37.766 172.79 35.7698 173.977 34.6907 175.865L27.0833 189.731C25.4647 192.644 27.6229 196.259 30.968 196.259H99.8121C99.8121 198.525 101.646 200.36 103.913 200.36H155.492C157.758 200.36 159.592 198.525 159.592 196.259H228.382C231.781 196.259 233.885 192.644 232.267 189.731Z" fill="url(#paint6_linear_30_53)"/>
<path style="mix-blend-mode:multiply" d="M245.701 212.444H13.7029C6.63509 212.444 1.94116 205.43 4.15324 199.117C5.44811 202.948 9.06298 205.915 13.7029 205.915H245.701C250.341 205.915 253.956 202.948 255.305 199.117C257.463 205.484 252.823 212.444 245.701 212.444Z" fill="url(#paint7_radial_30_53)"/>
<path d="M256.006 62.2909C255.251 66.4993 251.744 73.729 238.147 80.3113C235.396 81.6061 231.08 83.3866 225.576 85.5447C215.055 89.5912 200.218 95.0944 183.763 101.677C156.894 112.359 132.237 124.877 126.734 137.286C123.983 143.436 125.655 156.979 135.906 161.187C123.767 161.187 111.304 154.065 112.545 139.66C114.703 114.679 153.657 101.299 188.672 89.9149C214.732 81.4443 229.191 76.8043 239.011 71.0853C248.776 65.4202 246.996 54.8454 238.147 54.0901V40.332C250.772 41.2492 258.056 51.6082 256.006 62.2909Z" fill="url(#paint8_linear_30_53)"/>
<path style="mix-blend-mode:multiply" d="M250.557 63.4805C248.776 71.5195 237.5 77.0227 224.659 81.9324C217.807 84.5761 210.308 87.3277 203.941 89.4858C185.759 95.7444 162.127 104.593 146.427 111.822C130.673 119.106 119.99 128.494 119.181 139.608C118.587 148.241 121.339 157.305 135.906 161.189C123.767 161.189 111.304 154.068 112.545 139.662C114.703 114.682 153.657 101.302 188.672 89.9175C214.732 81.4468 229.191 76.8069 239.011 71.0878C248.776 65.4228 246.996 54.848 238.147 54.0926V43.6797C238.147 49.021 244.028 48.4815 247.427 51.2331C251.042 54.2005 251.797 57.9772 250.557 63.4805Z" fill="url(#paint9_radial_30_53)"/>
<path d="M190.616 42.492C172.811 42.3302 161.481 53.5524 143.083 69.5225C128.947 81.8238 113.894 101.301 88.2668 116.354C66.2 129.303 28.0012 130.436 9.98089 107.506C-6.15108 87.0033 -1.78088 57.8687 21.311 51.9338V69.6304C12.193 73.7309 9.65717 102.542 40.6802 112.092C73.7534 122.289 100.083 97.7939 124.092 76.1588C155.6 47.8334 171.732 37.3665 190.616 42.492Z" fill="url(#paint10_linear_30_53)"/>
<path fill-rule="evenodd" clip-rule="evenodd" d="M89.5617 86.0299H76.0195V74.4839H80.5515V72.4877H89.5617V86.0299ZM76.0195 74.4839H73.7534V67.6859H80.5515V72.4877H76.0195V74.4839ZM77.1525 60.618H71.7032V55.1148H77.1525V60.618ZM64.9591 71.1389H54.4922V60.618H64.9591V71.1389ZM56.8661 52.2013H54.4922V49.7734H56.8661V52.2013Z" fill="url(#paint11_linear_30_53)"/>
<path d="M114.326 77.3997C109.74 57.8148 74.8328 42.3842 111.845 0.300781C113.301 24.148 150.475 44.7042 114.326 77.3997Z" fill="url(#paint12_linear_30_53)"/>
<path d="M215.649 182.553H43.7546C42.8374 182.553 42.082 181.797 42.082 180.88V179.477C42.082 178.56 42.8374 177.805 43.7546 177.805H215.649C216.566 177.805 217.322 178.56 217.322 179.477V180.88C217.322 181.797 216.566 182.553 215.649 182.553Z" fill="url(#paint13_linear_30_53)"/>
<path style="mix-blend-mode:multiply" d="M114.326 77.3997C109.74 57.8148 74.8328 42.3842 111.845 0.300781C100.784 28.3024 126.412 54.3618 114.326 77.3997Z" fill="url(#paint14_radial_30_53)"/>
<path style="mix-blend-mode:multiply" d="M190.616 42.492C171.193 37.7981 144.648 61.5375 126.735 78.6946C115.243 89.701 91.612 111.336 76.0195 116.3C60.4271 121.317 42.9463 122.289 26.5445 112.901C10.1968 103.513 5.88052 85.8164 8.79399 73.7309C11.7614 61.6993 21.3111 63.6956 21.3111 51.9338V69.6304C12.193 73.7309 9.65724 102.542 40.6803 112.092C73.7535 122.289 100.083 97.7939 124.092 76.1588C155.6 47.8334 171.732 37.3665 190.616 42.492Z" fill="url(#paint15_radial_30_53)"/>
<path style="mix-blend-mode:multiply" d="M256.006 62.2909C255.251 66.4993 251.744 73.729 238.148 80.3113C235.396 81.6061 231.08 83.3866 225.577 85.5447C215.056 89.5912 200.219 95.0944 183.763 101.677C156.894 112.359 132.238 124.877 126.735 137.286C123.983 143.436 125.656 156.979 135.907 161.187C121.339 157.302 118.588 148.238 119.181 139.606C119.991 128.006 130.673 119.104 146.428 111.82C162.128 104.59 185.759 95.7418 203.942 89.4833C210.308 87.3252 217.808 84.5736 224.66 81.9299C237.5 77.0201 248.777 71.5169 250.557 63.4779C251.798 57.9747 251.043 54.198 247.428 51.2306C244.029 48.479 238.148 49.0185 238.148 43.7311V40.332C250.773 41.2492 258.057 51.6082 256.006 62.2909Z" fill="url(#paint16_radial_30_53)"/>
<path style="mix-blend-mode:multiply" d="M243.597 84.8438C234.586 91.1023 232.86 98.0623 232.86 104.537V136.261C232.86 144.786 225.954 151.692 217.483 151.692H150.096C140.33 151.692 135.636 139.876 142.381 133.132C142.524 132.988 142.686 132.844 142.866 132.7L143.082 132.484C143.262 132.304 143.46 132.143 143.675 131.999C143.891 131.819 144.089 131.657 144.269 131.513C145.312 130.686 146.463 129.895 147.722 129.139C142.273 137.988 143.406 146.998 159.7 146.998H216.89C222.879 146.998 227.788 142.142 227.788 136.099V100.76C227.788 96.4437 229.731 92.9367 232.86 90.2391C235.665 87.8112 239.442 86.0307 243.597 84.8438Z" fill="url(#paint17_radial_30_53)"/>
<path style="mix-blend-mode:multiply" d="M96.576 7.69141C95.8746 11.4142 94.3639 14.5434 92.2058 16.8634C89.67 19.669 86.271 21.2876 82.2785 21.2876H42.515C36.5262 21.2876 31.6705 26.1434 31.6705 32.1322V80.1504C31.6705 88.0275 32.3719 95.4731 38.0369 102.541C37.965 102.505 37.911 102.487 37.8751 102.487C37.6593 102.451 37.4435 102.397 37.2276 102.325C30.9151 100.491 26.5449 94.5559 26.5449 87.9196V32.294C26.5449 23.7694 33.4509 16.8634 41.9755 16.8634H81.2533C87.8896 16.8634 93.0691 13.0867 96.576 7.69141Z" fill="url(#paint18_radial_30_53)"/>
<defs>
<linearGradient id="paint0_linear_30_53" x1="165.18" y1="83.5563" x2="213.788" y2="105.275" gradientUnits="userSpaceOnUse">
<stop stop-color="#3D8A22"/>
<stop offset="1" stop-color="#86D13B"/>
</linearGradient>
<linearGradient id="paint1_linear_30_53" x1="149.509" y1="55.5236" x2="189.687" y2="57.1591" gradientUnits="userSpaceOnUse">
<stop stop-color="#3D8A22"/>
<stop offset="1" stop-color="#86D13B"/>
</linearGradient>
<radialGradient id="paint2_radial_30_53" cx="0" cy="0" r="1" gradientUnits="userSpaceOnUse" gradientTransform="translate(150.91 80.2595) rotate(-23.0581) scale(38.8891 38.8892)">
<stop stop-color="#7B728C"/>
<stop offset="1" stop-color="#E1D9FF" stop-opacity="0"/>
</radialGradient>
<linearGradient id="paint3_linear_30_53" x1="82.9223" y1="150.394" x2="82.9223" y2="18.83" gradientUnits="userSpaceOnUse">
<stop stop-color="#213E52"/>
<stop offset="1" stop-color="#3A6C8F"/>
</linearGradient>
<radialGradient id="paint4_radial_30_53" cx="0" cy="0" r="1" gradientUnits="userSpaceOnUse" gradientTransform="translate(71.3594 121.347) rotate(-25.3059) scale(90.105 90.105)">
<stop stop-color="#7B728C"/>
<stop offset="1" stop-color="#E1D9FF" stop-opacity="0"/>
</radialGradient>
<radialGradient id="paint5_radial_30_53" cx="0" cy="0" r="1" gradientUnits="userSpaceOnUse" gradientTransform="translate(168.629 34.8005) rotate(-25.306) scale(119.529 119.529)">
<stop stop-color="#7B728C"/>
<stop offset="1" stop-color="#E1D9FF" stop-opacity="0"/>
</radialGradient>
<linearGradient id="paint6_linear_30_53" x1="125.741" y1="210.725" x2="125.741" y2="171.029" gradientUnits="userSpaceOnUse">
<stop stop-color="#213E52"/>
<stop offset="1" stop-color="#3A6C8F"/>
</linearGradient>
<radialGradient id="paint7_radial_30_53" cx="0" cy="0" r="1" gradientUnits="userSpaceOnUse" gradientTransform="translate(-102.123 211.832) rotate(-18.1318) scale(971.745 971.745)">
<stop stop-color="#7B728C"/>
<stop offset="1" stop-color="#E1D9FF" stop-opacity="0"/>
</radialGradient>
<linearGradient id="paint8_linear_30_53" x1="98.983" y1="140.071" x2="135.38" y2="35.3381" gradientUnits="userSpaceOnUse">
<stop stop-color="#3D8A22"/>
<stop offset="1" stop-color="#86D13B"/>
</linearGradient>
<radialGradient id="paint9_radial_30_53" cx="0" cy="0" r="1" gradientUnits="userSpaceOnUse" gradientTransform="translate(219.134 46.5478) rotate(8.1301) scale(49.8323 49.8323)">
<stop stop-color="#7B728C"/>
<stop offset="1" stop-color="#E1D9FF" stop-opacity="0"/>
</radialGradient>
<linearGradient id="paint10_linear_30_53" x1="46.895" y1="127.264" x2="78.9377" y2="35.0595" gradientUnits="userSpaceOnUse">
<stop stop-color="#3D8A22"/>
<stop offset="1" stop-color="#86D13B"/>
</linearGradient>
<linearGradient id="paint11_linear_30_53" x1="65.975" y1="100.901" x2="37.492" y2="67.72" gradientUnits="userSpaceOnUse">
<stop stop-color="#3D8A22"/>
<stop offset="1" stop-color="#86D13B"/>
</linearGradient>
<linearGradient id="paint12_linear_30_53" x1="22.7023" y1="57.054" x2="26.9938" y2="9.23871" gradientUnits="userSpaceOnUse">
<stop stop-color="#3D8A22"/>
<stop offset="1" stop-color="#86D13B"/>
</linearGradient>
<linearGradient id="paint13_linear_30_53" x1="128.845" y1="186.795" x2="129.938" y2="174.609" gradientUnits="userSpaceOnUse">
<stop stop-color="#3D8A22"/>
<stop offset="1" stop-color="#86D13B"/>
</linearGradient>
<radialGradient id="paint14_radial_30_53" cx="0" cy="0" r="1" gradientUnits="userSpaceOnUse" gradientTransform="translate(85.536 73.8556) rotate(-18.1316) scale(87.7289)">
<stop stop-color="#7B728C"/>
<stop offset="1" stop-color="#E1D9FF" stop-opacity="0"/>
</radialGradient>
<radialGradient id="paint15_radial_30_53" cx="0" cy="0" r="1" gradientUnits="userSpaceOnUse" gradientTransform="translate(63.5089 62.6996) rotate(14.4876) scale(90.3765 90.3765)">
<stop stop-color="#7B728C"/>
<stop offset="1" stop-color="#E1D9FF" stop-opacity="0"/>
</radialGradient>
<radialGradient id="paint16_radial_30_53" cx="0" cy="0" r="1" gradientUnits="userSpaceOnUse" gradientTransform="translate(170.345 144.327) rotate(-21.9106) scale(85.8139 85.8139)">
<stop stop-color="#7B728C"/>
<stop offset="1" stop-color="#E1D9FF" stop-opacity="0"/>
</radialGradient>
<radialGradient id="paint17_radial_30_53" cx="0" cy="0" r="1" gradientUnits="userSpaceOnUse" gradientTransform="translate(197.308 123.186) rotate(44.1801) scale(87.0754 87.0754)">
<stop stop-color="#7B728C"/>
<stop offset="1" stop-color="#E1D9FF" stop-opacity="0"/>
</radialGradient>
<radialGradient id="paint18_radial_30_53" cx="0" cy="0" r="1" gradientUnits="userSpaceOnUse" gradientTransform="translate(53.5236 32.7456) rotate(-131.698) scale(72.0995 72.0996)">
<stop stop-color="#7B728C"/>
<stop offset="1" stop-color="#E1D9FF" stop-opacity="0"/>
</radialGradient>
</defs>
</svg>
