<svg width="257" height="231" viewBox="0 0 257 231" fill="none" xmlns="http://www.w3.org/2000/svg">
<g clip-path="url(#clip0_68_2)">
<path fill-rule="evenodd" clip-rule="evenodd" d="M256.926 154.181C256.666 162.561 252.379 170.811 244.064 175.618L167.476 219.791C143.635 233.563 114.273 233.498 90.4978 219.661L13.7147 174.968C5.72453 170.291 1.43715 162.366 1.04739 154.181H0.982422V144.762H256.926V154.181ZM255.887 154.181H2.21666C4.03556 159.833 7.86822 164.964 13.7147 168.407L90.4978 213.035C114.273 226.937 143.635 227.002 167.476 213.23L244.064 168.992C250.17 165.484 254.133 160.092 255.887 154.181Z" fill="url(#paint0_linear_68_2)"/>
<path d="M167.215 80.3189L244.064 124.752C261.213 134.626 261.213 159.376 244.064 169.25L167.475 213.488C143.635 227.259 114.273 227.194 90.4972 213.358L13.7141 168.665C-3.37046 158.726 -3.3055 133.976 13.909 124.102L90.6921 80.1889C114.403 66.6122 143.505 66.6772 167.215 80.3189Z" fill="url(#paint1_linear_68_2)"/>
<path opacity="0.39" d="M249.519 164.966C247.441 167.11 244.907 168.734 242.309 170.163L233.864 174.97L200.409 194.198L166.955 213.361C155.846 219.727 143.114 223.17 130.317 223.3C117.585 223.56 104.723 220.507 93.4195 214.531C90.5612 213.102 87.8329 211.413 85.0396 209.789L76.6597 204.981L59.9649 195.302L26.5753 175.944L18.2604 171.137C16.1167 169.903 14.1679 168.604 12.1541 167.24C11.0498 166.525 9.88046 165.745 9.03597 164.771C6.50252 161.783 6.11277 162.043 8.90606 165.096C9.55567 165.81 10.4002 166.46 11.1797 167.045C13.3883 168.669 15.7269 170.033 18.0655 171.462L26.3804 176.399L59.6401 195.887L76.3349 205.631L84.6498 210.503C87.4431 212.062 90.1715 213.751 93.0297 215.245C104.463 221.351 117.39 224.47 130.382 224.275C143.309 224.08 156.171 220.572 167.344 214.076L200.734 194.718L234.124 175.36L242.439 170.488C245.232 168.928 248.025 167.11 250.169 164.706C252.248 162.497 252.767 161.393 252.572 161.328C251.663 162.497 249.519 164.966 249.519 164.966Z" fill="url(#paint2_linear_68_2)"/>
<path fill-rule="evenodd" clip-rule="evenodd" d="M256.926 85.0623C256.666 93.4422 252.379 101.627 244.064 106.434L167.476 150.672C143.635 164.444 114.273 164.379 90.4978 150.477L13.7147 105.85C5.72453 101.108 1.43715 93.1824 1.04739 85.0623H0.982422V75.5781H256.926V85.0623ZM255.887 85.0623H2.21666C4.03556 90.7139 7.86822 95.9107 13.7147 99.2887L90.4978 143.981C114.273 157.818 143.635 157.883 167.476 144.111L244.064 99.8733C250.17 96.3654 254.133 90.9737 255.887 85.0623Z" fill="url(#paint3_linear_68_2)"/>
<path d="M250.169 95.7152C248.025 98.1188 245.232 100.003 242.439 101.562L234.124 106.434L200.734 125.792L167.344 145.15C156.171 151.581 143.309 155.089 130.382 155.349C117.39 155.544 104.463 152.426 93.0297 146.319C90.1715 144.825 87.4431 143.136 84.6498 141.512L76.3349 136.64L59.6401 126.896L26.3804 107.408L18.0655 102.536C15.7269 101.107 13.3883 99.7428 11.1797 98.0538C10.4002 97.4692 9.55567 96.8845 8.90606 96.105C6.11277 93.1168 6.50252 92.792 9.03597 95.7802C9.88046 96.8196 11.0498 97.5341 12.1541 98.3136C14.1679 99.6128 16.1167 100.977 18.2604 102.211L26.5753 107.018L59.9649 126.377L76.6597 135.991L85.0396 140.863C87.8329 142.487 90.5612 144.111 93.4195 145.605C104.723 151.581 117.585 154.634 130.317 154.374C143.114 154.18 155.846 150.802 166.955 144.436L200.409 125.207L233.864 105.979L242.309 101.237C245.102 99.6778 247.83 97.9239 249.974 95.5853C253.027 90.5184 254.586 91.0381 250.169 95.7152Z" fill="url(#paint4_linear_68_2)"/>
<path d="M250.169 95.7152C248.025 98.1188 245.232 100.003 242.439 101.562L234.124 106.434L200.734 125.792L167.344 145.15C156.171 151.581 143.309 155.089 130.382 155.349C117.39 155.544 104.463 152.426 93.0297 146.319C90.1715 144.825 87.4431 143.136 84.6498 141.512L76.3349 136.64L59.6401 126.896L26.3804 107.408L18.0655 102.536C15.7269 101.107 13.3883 99.7428 11.1797 98.0538C10.4002 97.4692 9.55567 96.8845 8.90606 96.105C6.11277 93.1168 6.50252 92.792 9.03597 95.7802C9.88046 96.8196 11.0498 97.5341 12.1541 98.3136C14.1679 99.6128 16.1167 100.977 18.2604 102.211L26.5753 107.018L59.9649 126.377L76.6597 135.991L85.0396 140.863C87.8329 142.487 90.5612 144.111 93.4195 145.605C104.723 151.581 117.585 154.634 130.317 154.374C143.114 154.18 155.846 150.802 166.955 144.436L200.409 125.207L233.864 105.979L242.309 101.237C245.102 99.6778 247.83 97.9239 249.974 95.5853C253.027 90.5184 254.586 91.0381 250.169 95.7152Z" fill="url(#paint5_linear_68_2)"/>
<path d="M167.215 10.9408L244.064 55.3087C261.213 65.2477 261.213 89.9976 244.064 99.8716L167.475 144.11C143.635 157.881 114.273 157.816 90.4972 143.98L13.7141 99.2869C-3.37046 89.283 -3.3055 64.5331 13.909 54.7241L90.6921 10.8109C114.403 -2.76583 143.505 -2.76583 167.215 10.9408Z" fill="url(#paint6_linear_68_2)"/>
<path opacity="0.5" d="M167.197 10.9289L244.09 55.3357C261.24 65.2357 261.233 89.9856 244.09 99.8856L167.496 144.104C143.649 157.869 114.261 157.811 90.4656 143.955L13.7344 99.275C-3.37611 89.31 -3.27866 64.5601 13.9033 54.7251L90.6605 10.7859C114.378 -2.79078 143.532 -2.73881 167.197 10.9289Z" fill="white"/>
</g>
<defs>
<linearGradient id="paint0_linear_68_2" x1="0.960335" y1="144.733" x2="256.95" y2="144.733" gradientUnits="userSpaceOnUse">
<stop stop-color="#B52866"/>
<stop offset="0.935" stop-color="#F04136"/>
</linearGradient>
<linearGradient id="paint1_linear_68_2" x1="175.121" y1="121.736" x2="175.121" y2="201.171" gradientUnits="userSpaceOnUse">
<stop stop-color="#B52866"/>
<stop offset="0.935" stop-color="#F04136"/>
</linearGradient>
<linearGradient id="paint2_linear_68_2" x1="6.98323" y1="161.324" x2="252.603" y2="161.324" gradientUnits="userSpaceOnUse">
<stop stop-color="#B52866"/>
<stop offset="0.525" stop-color="white"/>
<stop offset="0.935" stop-color="#F04136"/>
</linearGradient>
<linearGradient id="paint3_linear_68_2" x1="0.960335" y1="75.5788" x2="256.95" y2="75.5788" gradientUnits="userSpaceOnUse">
<stop offset="0.119" stop-color="#8892B8"/>
<stop offset="0.503" stop-color="white"/>
<stop offset="1" stop-color="#8892B8"/>
</linearGradient>
<linearGradient id="paint4_linear_68_2" x1="6.98323" y1="91.9845" x2="252.91" y2="91.9845" gradientUnits="userSpaceOnUse">
<stop stop-color="#8892B8"/>
<stop offset="0.151" stop-color="white"/>
<stop offset="0.935" stop-color="white"/>
</linearGradient>
<linearGradient id="paint5_linear_68_2" x1="6.98323" y1="91.9845" x2="252.91" y2="91.9845" gradientUnits="userSpaceOnUse">
<stop stop-color="#8892B8"/>
<stop offset="0.151" stop-color="white"/>
<stop offset="0.935" stop-color="white"/>
</linearGradient>
<linearGradient id="paint6_linear_68_2" x1="0.966294" y1="0.643936" x2="256.942" y2="0.643936" gradientUnits="userSpaceOnUse">
<stop stop-color="#8892B8"/>
<stop offset="0.935" stop-color="white"/>
</linearGradient>
<clipPath id="clip0_68_2">
<rect width="257" height="231" fill="white"/>
</clipPath>
</defs>
</svg>
