<svg width="168" height="257" viewBox="0 0 168 257" fill="none" xmlns="http://www.w3.org/2000/svg">
<path d="M103.628 55.7642V44.0062C103.628 33.063 94.8966 24.2154 83.9534 24.2154C73.1267 24.2154 64.2791 33.063 64.2791 44.0062V103.029L83.9534 122.704L107.12 99.5368C110.496 96.1608 115.852 95.113 120.159 97.0921C124.35 98.9548 127.26 103.262 127.26 107.919V213.392C127.26 237.258 107.819 256.699 83.9534 256.699C60.088 256.699 40.6465 237.258 40.6465 213.392V171.249C40.6465 164.73 46.0016 159.375 52.5209 159.375C59.0402 159.375 64.2791 164.73 64.2791 171.249V213.392C64.2791 224.335 73.1267 233.183 83.9534 233.183C94.8966 233.183 103.628 224.335 103.628 213.392V136.325L92.3355 147.617C90.0071 149.945 86.9802 151.109 83.9534 151.109C80.9266 151.109 77.8998 149.945 75.6878 147.617L44.2554 116.301L44.0226 116.068C41.9271 113.973 40.6465 111.062 40.6465 107.919V44.0062C40.6465 20.1408 60.088 0.699219 83.9534 0.699219C107.819 0.699219 127.26 20.1408 127.26 44.0062V55.7642C127.26 62.2836 121.905 67.6387 115.502 67.6387C108.983 67.6387 103.628 62.2836 103.628 55.7642Z" fill="url(#paint0_linear_26_3404)"/>
<path d="M40.6469 107.918V79.3958C40.6469 79.3958 20.7397 59.4885 20.7397 59.3721C17.7129 56.3453 12.9397 55.2976 8.86516 56.5782C3.97566 58.0916 0.599609 62.7482 0.599609 67.7541V239.236C0.599609 245.755 5.83833 250.994 12.3577 250.994C18.877 250.994 24.1158 245.755 24.1158 239.236V96.1598L44.023 116.067C41.9275 113.972 40.6469 111.061 40.6469 107.918ZM155.55 55.9961C149.031 55.9961 143.792 61.2348 143.792 67.7541V239.236C143.792 245.755 149.031 250.994 155.55 250.994C162.069 250.994 167.308 245.755 167.308 239.236V67.7541C167.308 61.2348 162.069 55.9961 155.55 55.9961Z" fill="url(#paint1_linear_26_3404)"/>
<path style="mix-blend-mode:multiply" d="M44.0224 116.066L24.1152 96.1585V62.8633L40.6463 79.3944V107.917C40.6463 111.06 41.9269 113.97 44.0224 116.066Z" fill="url(#paint2_linear_26_3404)"/>
<defs>
<linearGradient id="paint0_linear_26_3404" x1="497.83" y1="206.702" x2="320.358" y2="459.393" gradientUnits="userSpaceOnUse">
<stop stop-color="#F29B75"/>
<stop offset="1" stop-color="#C61D99"/>
</linearGradient>
<linearGradient id="paint1_linear_26_3404" x1="-118.819" y1="159.486" x2="46.6711" y2="-33.5868" gradientUnits="userSpaceOnUse">
<stop stop-color="#731CB7"/>
<stop offset="1" stop-color="#C61D99"/>
</linearGradient>
<linearGradient id="paint2_linear_26_3404" x1="46.3508" y1="116.38" x2="26.6962" y2="116.488" gradientUnits="userSpaceOnUse">
<stop stop-color="#731CB7"/>
<stop offset="1" stop-color="white"/>
</linearGradient>
</defs>
</svg>
