<svg width="257" height="200" viewBox="0 0 257 200" fill="none" xmlns="http://www.w3.org/2000/svg">
<path fill-rule="evenodd" clip-rule="evenodd" d="M251.007 131.307C246.032 145.6 237.619 158.627 226.763 169.211C220.069 175.815 212.38 181.423 204.058 185.856C197.092 189.655 189.584 192.55 181.804 194.631C181.804 194.631 181.774 194.631 181.714 194.631C177.552 195.716 173.21 196.53 168.868 196.983C165.792 197.344 162.717 197.616 159.641 197.706C158.013 197.797 156.837 197.797 155.57 197.797L151.68 197.887L136.302 198.159L74.788 199.244C64.2945 199.425 55.7007 191.012 55.5198 180.519C55.4293 174.548 58.0527 169.211 62.3044 165.683L62.5757 165.411L113.777 122.985L43.6692 111.225C38.6034 110.32 35.0754 105.526 35.98 100.37C36.7037 95.756 40.684 92.4994 45.2071 92.4994L159.641 91.9567C161.36 91.9567 163.079 92.228 164.707 92.6803C172.487 94.8514 178.186 101.907 178.186 110.411C178.276 116.2 175.653 121.266 171.582 124.704L170.315 125.789L164.707 130.403L126.713 161.883L136.302 162.064L151.68 162.336L155.57 162.426C156.746 162.426 158.194 162.426 159.098 162.426C160.998 162.426 162.807 162.336 164.707 162.245C164.888 162.245 165.039 162.245 165.159 162.245C173.21 161.522 181.171 159.351 188.498 155.732C203.153 148.586 215.184 135.74 221.245 120.271C227.397 104.893 227.668 86.9813 221.607 71.2409C215.637 55.5006 203.515 41.9314 188.317 34.1517C180.99 30.4428 172.939 28.0908 164.707 27.0957C164.345 27.0354 164.013 27.0052 163.712 27.0052C162.626 26.9148 161.541 26.7339 160.455 26.7339L158.917 26.6434H158.103H149.509H134.131L11.1936 26.4625C5.40404 26.4625 0.699951 21.7585 0.699951 15.9689C0.699951 10.3603 5.2231 5.74677 10.8317 5.56585L133.859 1.31416L149.238 0.861848L156.927 0.59046L157.922 0.5H159.008L161.269 0.59046C162.807 0.59046 164.254 0.680926 165.792 0.771387C177.552 1.49508 189.403 4.4803 200.168 9.45569C221.879 19.4969 239.699 37.8606 249.017 60.2046C258.515 82.4582 259.239 108.24 251.007 131.307ZM158.103 75.1308L23.044 68.0748C18.5209 67.8939 14.993 63.9136 15.2644 59.3905C15.4453 55.1388 18.8828 51.7917 23.044 51.5203L158.103 44.4643C166.516 44.012 173.753 50.5252 174.205 59.0286C174.658 67.4416 168.144 74.6785 159.641 75.1308C159.159 75.1308 158.646 75.1308 158.103 75.1308Z" fill="url(#paint0_linear_1_567)"/>
<path style="mix-blend-mode:multiply" d="M249.379 111.677C249.379 133.931 240.785 154.104 226.763 169.211C215.003 181.966 199.354 191.012 181.804 194.631C181.804 194.631 181.774 194.631 181.714 194.631C176.196 195.716 170.496 196.349 164.707 196.349V162.245C164.888 162.245 165.039 162.245 165.159 162.245C173.21 161.522 181.171 159.351 188.498 155.732C203.153 148.586 215.184 135.74 221.245 120.271C227.397 104.893 227.668 86.9814 221.607 71.2411C215.637 55.5008 203.605 41.9315 188.317 34.1518C180.99 30.4429 172.939 28.0909 164.707 27.0958V27.0054C211.475 27.0054 249.379 64.9088 249.379 111.677Z" fill="url(#paint1_linear_1_567)"/>
<defs>
<linearGradient id="paint0_linear_1_567" x1="222.648" y1="304.729" x2="-50.5774" y2="136.197" gradientUnits="userSpaceOnUse">
<stop stop-color="#8A2387"/>
<stop offset="0.515" stop-color="#E94057"/>
<stop offset="1" stop-color="#F27121"/>
</linearGradient>
<linearGradient id="paint1_linear_1_567" x1="376.358" y1="26.6526" x2="379.804" y2="159.321" gradientUnits="userSpaceOnUse">
<stop stop-color="#A766AA"/>
<stop offset="1" stop-color="white"/>
</linearGradient>
</defs>
</svg>
