<svg width="257" height="202" viewBox="0 0 257 202" fill="none" xmlns="http://www.w3.org/2000/svg">
<path fill-rule="evenodd" clip-rule="evenodd" d="M256.5 0.800781V180.145C248.662 182.944 240.625 185.423 232.388 187.582V41.4681C203.357 55.1438 172.046 62.7014 140.496 64.2609V77.8167C132.339 80.4559 122.022 80.8158 116.504 80.8158V64.2609C84.9535 62.7014 53.6434 55.1438 24.6124 41.4681V187.582C16.375 185.423 8.33755 182.944 0.5 180.145V0.800781L18.6143 11.1175C86.3931 50.3453 170.607 50.3453 238.506 11.1175L256.5 0.800781ZM116.384 92.0922H140.496V124.602C132.219 127.241 121.902 127.601 116.384 127.601V92.0922ZM116.384 138.758H140.496V168.508C132.219 171.148 121.902 171.627 116.384 171.627V138.758Z" fill="url(#paint0_linear_26_3384)"/>
<path d="M208.396 143.915V122.922C164.969 134.318 117.344 135.998 72.7179 128.2V105.527C91.0722 109.246 109.786 111.046 128.5 111.046C155.492 111.046 182.604 107.207 208.396 99.6492V74.457C157.052 91.2518 99.9494 91.2518 48.6055 74.457V99.6492V122.922V147.754C74.3974 153.992 101.509 156.991 128.5 156.991C147.215 156.991 165.929 155.552 184.283 152.553V173.066C139.657 179.424 92.1519 178.105 48.6055 168.748V193.34C74.3974 198.498 101.509 201.017 128.5 201.017C155.492 201.017 182.604 198.498 208.396 193.34V193.1V143.915Z" fill="url(#paint1_linear_26_3384)"/>
<defs>
<linearGradient id="paint0_linear_26_3384" x1="-71.7834" y1="101.025" x2="168.533" y2="-81.3492" gradientUnits="userSpaceOnUse">
<stop stop-color="#731CB7"/>
<stop offset="1" stop-color="#C61D99"/>
</linearGradient>
<linearGradient id="paint1_linear_26_3384" x1="264.532" y1="131.187" x2="105.314" y2="260.671" gradientUnits="userSpaceOnUse">
<stop stop-color="#F29B75"/>
<stop offset="1" stop-color="#C61D99"/>
</linearGradient>
</defs>
</svg>
