<svg width="207" height="257" viewBox="0 0 207 257" fill="none" xmlns="http://www.w3.org/2000/svg">
<path d="M160.189 6.95038C141.041 -5.28079 125.64 1.48098 118.266 23.1391L102.975 72.6554C101.495 77.3827 103.688 81.2162 107.875 81.2162H150.062C163.233 81.2162 173.332 97.1971 162.849 110.181L92.8401 194.026C89.6051 198.034 84.6963 196.448 86.1335 191.859L102.274 128.273C103.756 123.545 101.561 119.712 97.3744 119.712H68.0779C51.4561 119.712 47.1607 107.532 50.6117 94.9144L69.901 22.3648C73.2337 9.83154 60.8612 -1.94815 49.7823 4.7918C20.0458 22.8807 0.185547 55.5913 0.185547 92.9419C0.185547 171.258 64.4167 185.907 52.0213 256.898C107.238 234.363 206.4 173.512 206.4 92.9419C206.398 57.0307 188.345 24.9358 160.189 6.95038Z" fill="url(#paint0_linear_30_51)"/>
<defs>
<linearGradient id="paint0_linear_30_51" x1="92.4718" y1="169.305" x2="114.448" y2="13.7844" gradientUnits="userSpaceOnUse">
<stop stop-color="#73BF1D"/>
<stop offset="1" stop-color="#428500"/>
</linearGradient>
</defs>
</svg>
