<svg width="143" height="256" viewBox="0 0 143 256" fill="none" xmlns="http://www.w3.org/2000/svg">
<path d="M71.5778 170.959C53.4399 170.959 35.305 164.058 21.4943 150.25C-6.12106 122.635 -6.12106 77.6989 21.4943 50.0865L71.5778 0L121.661 50.0835C135.04 63.4617 142.406 81.2477 142.406 100.167C142.406 119.083 135.037 136.872 121.661 150.247C107.854 164.052 89.7127 170.959 71.5778 170.959ZM71.5778 59.6743L51.3315 79.9206C45.9217 85.3304 42.9454 92.5175 42.9454 100.167C42.9454 107.813 45.9247 115 51.3315 120.41C62.491 131.57 80.6616 131.573 91.8241 120.413C102.987 109.251 102.987 91.086 91.8241 79.9235L71.5778 59.6743ZM142.406 185.172H100.21C100.21 200.96 87.3657 213.804 71.5778 213.804C55.7899 213.804 42.9454 200.96 42.9454 185.172H0.75C0.75 224.227 32.5226 256 71.5778 256C110.633 256 142.406 224.227 142.406 185.172Z" fill="url(#paint0_linear_26_3366)"/>
<defs>
<linearGradient id="paint0_linear_26_3366" x1="0.25495" y1="213.968" x2="142.9" y2="71.3226" gradientUnits="userSpaceOnUse">
<stop stop-color="#A7FFD2"/>
<stop offset="0.134" stop-color="#00D8F7"/>
<stop offset="0.2629" stop-color="#18AEF3"/>
<stop offset="0.4735" stop-color="#3D70EC"/>
<stop offset="0.6278" stop-color="#5349E9"/>
<stop offset="0.7081" stop-color="#5C3AE7"/>
<stop offset="0.8762" stop-color="#9B62F7"/>
<stop offset="0.9658" stop-color="#B874FF"/>
</linearGradient>
</defs>
</svg>
