<svg width="158" height="256" viewBox="0 0 158 256" fill="none" xmlns="http://www.w3.org/2000/svg">
<path d="M145.694 149.622C149.802 158.952 152.13 169.24 152.13 180.075C152.13 221.941 118.071 256 76.2048 256C34.3384 256 0.279297 221.941 0.279297 180.075H47.9812C47.9812 195.638 60.6412 208.298 76.2048 208.298C91.7683 208.298 104.428 195.638 104.428 180.075C104.428 177.804 104.129 175.61 103.621 173.495C119.582 169.001 133.953 160.698 145.694 149.622ZM143.258 0H157.508V14.3424C157.508 14.6953 157.466 15.0356 157.457 15.3854C157.126 26.0484 151.809 35.4298 143.741 41.3035C149.09 51.6929 152.13 63.4594 152.13 75.9286C152.13 117.795 118.071 151.854 76.2048 151.854C34.3384 151.854 0.279297 117.795 0.279297 75.9286C0.279297 34.0623 34.3352 0 76.2016 0H143.258ZM76.2016 104.149C91.7651 104.149 104.425 91.489 104.425 75.9255C104.425 60.3619 91.7651 47.7019 76.2016 47.7019C60.638 47.7019 47.978 60.3619 47.978 75.9255C47.978 91.489 60.6412 104.149 76.2016 104.149Z" fill="url(#paint0_linear_26_3355)"/>
<defs>
<linearGradient id="paint0_linear_26_3355" x1="0.277071" y1="128" x2="157.507" y2="128" gradientUnits="userSpaceOnUse">
<stop stop-color="#FFDB37"/>
<stop offset="0.4121" stop-color="#FF695A"/>
<stop offset="0.536" stop-color="#FF4B88"/>
<stop offset="0.6881" stop-color="#FF2BB9"/>
<stop offset="0.8218" stop-color="#FF14DD"/>
<stop offset="0.9302" stop-color="#FF05F3"/>
<stop offset="1" stop-color="#FF00FB"/>
</linearGradient>
</defs>
</svg>
