<svg width="175" height="256" viewBox="0 0 175 256" fill="none" xmlns="http://www.w3.org/2000/svg">
<path d="M87.6099 174.399C39.5284 174.399 0.410156 135.281 0.410156 87.1997C0.410156 39.1183 39.5284 0 87.6099 0C110.489 0 174.947 0.380754 174.947 0.380754C174.947 0.380754 174.81 61.9939 174.81 87.1997C174.81 135.284 135.691 174.399 87.6099 174.399ZM87.6099 48.7346C66.3982 48.7346 49.1414 65.9914 49.1414 87.203C49.1414 108.415 66.3982 125.671 87.6099 125.671C108.821 125.671 126.078 108.415 126.078 87.203C126.078 65.9914 108.818 48.7346 87.6099 48.7346ZM173.129 209.812V200.534H48.2782C22.7705 200.534 2.09052 221.214 2.09052 246.722V256H126.941C152.449 256 173.129 235.32 173.129 209.812Z" fill="url(#paint0_linear_26_3350)"/>
<defs>
<linearGradient id="paint0_linear_26_3350" x1="-13.5499" y1="240.361" x2="200.688" y2="26.1238" gradientUnits="userSpaceOnUse">
<stop stop-color="#81FFFF"/>
<stop offset="0.134" stop-color="#00D8F7"/>
<stop offset="0.326" stop-color="#4A8EF1"/>
<stop offset="0.5076" stop-color="#884FEC"/>
<stop offset="0.6395" stop-color="#AF28E8"/>
<stop offset="0.7081" stop-color="#BE19E7"/>
<stop offset="0.8653" stop-color="#E847B3"/>
<stop offset="0.9658" stop-color="#FF6096"/>
</linearGradient>
</defs>
</svg>
