<svg width="161" height="256" viewBox="0 0 161 256" fill="none" xmlns="http://www.w3.org/2000/svg">
<path d="M80.855 256C36.8033 256 0.96875 220.162 0.96875 176.114H51.3942C51.3942 192.359 64.61 205.578 80.8583 205.578C97.1033 205.578 110.322 192.362 110.322 176.114H160.748C160.741 220.165 124.907 256 80.855 256ZM80.855 159.772C36.8033 159.772 0.96875 123.935 0.96875 79.8863C0.96875 35.8379 36.8033 0 80.855 0C124.907 0 160.741 35.8379 160.741 79.8863C160.741 123.935 124.907 159.772 80.855 159.772ZM80.855 50.4221C64.61 50.4221 51.3909 63.638 51.3909 79.8863C51.3909 96.1345 64.6067 109.35 80.855 109.35C97.0999 109.35 110.319 96.1345 110.319 79.8863C110.319 63.638 97.0999 50.4221 80.855 50.4221Z" fill="url(#paint0_linear_26_3328)"/>
<defs>
<linearGradient id="paint0_linear_26_3328" x1="0.968086" y1="128" x2="160.742" y2="128" gradientUnits="userSpaceOnUse">
<stop offset="0.0898" stop-color="#FFD9A3"/>
<stop offset="0.1296" stop-color="#FDCFAA"/>
<stop offset="0.1979" stop-color="#F9B3BD"/>
<stop offset="0.2861" stop-color="#F186DB"/>
<stop offset="0.3274" stop-color="#ED6FEB"/>
<stop offset="0.4242" stop-color="#D562ED"/>
<stop offset="0.6284" stop-color="#9842F1"/>
<stop offset="0.894" stop-color="#4114F7"/>
</linearGradient>
</defs>
</svg>
