<svg width="164" height="257" viewBox="0 0 164 257" fill="none" xmlns="http://www.w3.org/2000/svg">
<path d="M89.0992 95.2398C89.6411 95.9897 90.184 96.7386 90.9229 97.7624C90.473 97.6644 90.1181 97.5864 89.7941 97.5164C88.5513 95.8827 88.8533 95.5627 89.1012 95.2208C88.6523 95.0298 88.2034 94.8389 87.7464 94.6459C87.2265 93.835 86.7166 93.0921 86.2957 92.4053C86.0747 92.0163 85.8018 91.3904 85.6698 91.2924C85.0079 90.8065 84.401 90.1526 83.8121 89.4547C83.2232 88.7568 82.7503 87.972 82.1983 87.2831C80.8146 85.6054 79.4108 83.6357 78.6529 81.926C77.6171 79.1774 76.1593 76.7118 75.3515 73.9483C75.5954 74.1012 75.7834 74.2192 75.9924 74.3502C75.8714 73.9173 75.7564 73.5043 75.6414 73.0904L75.6704 73.1314C75.3715 72.8344 75.0905 72.5195 74.8365 72.1046C74.6136 71.6856 74.4436 71.1637 74.3126 70.4658C73.9907 69.0431 73.7937 67.5833 73.5537 66.1525C73.4608 65.2347 73.3648 64.2888 73.2698 63.36C73.1978 62.4351 73.2568 61.5363 73.3188 60.7084C73.4118 59.7246 73.5467 58.8227 73.5048 57.9389C73.4958 57.059 73.5378 56.2271 73.4648 55.3903C73.3988 54.8014 73.5028 54.2745 73.5548 53.7316C73.6377 53.1956 73.6807 52.6427 73.8477 52.0798C74.7216 48.5924 76.6542 45.7889 78.239 42.5854C78.396 42.2774 78.7159 41.9075 78.9529 41.6945C79.4188 41.2876 79.8357 40.8947 80.1117 40.4587C80.3976 40.0308 80.5666 39.5719 80.7116 39.1679C81.1695 38.769 81.6564 38.4011 82.0724 38.0521C82.4993 37.7122 82.9022 37.4312 83.1102 37.1193C83.7491 36.1264 84.6289 35.4135 85.4678 34.6947C85.9067 34.3547 86.3817 34.0648 86.8336 33.7478L87.5145 33.2749L88.2304 32.843C88.7713 32.527 89.3412 32.1431 89.8921 31.8031C90.437 31.4552 90.8949 31.0412 91.1329 30.4993C91.4228 29.8394 92.5407 29.4305 93.4665 29.2305C93.8275 29.1816 94.1004 29.2755 94.6533 29.3285C95.0042 29.0006 95.3212 28.7066 95.6321 28.4167C95.9511 28.1297 96.284 27.8918 96.64 27.6018C98.4957 27.0319 100.626 26.377 102.738 25.7281C104.083 25.4372 105.317 24.9183 106.677 25.4792C106.869 25.5511 107.316 25.5342 107.642 25.5192C108.373 25.5392 109.103 25.5591 109.856 25.5791C110.212 25.6141 110.573 25.6481 110.942 25.6841C111.318 25.7091 111.691 25.7461 112.042 25.8211C112.309 26.173 112.598 26.553 112.881 26.9249C114.71 27.8498 115.807 28.1617 117.147 27.9328C117.44 27.8758 117.826 28.1037 118.186 28.2327C118.381 28.3447 118.58 28.4587 118.779 28.5727C118.975 28.6936 119.13 28.8496 119.329 28.9686C119.545 29.0816 119.693 29.2525 119.894 29.3855C120.1 29.5145 120.253 29.6975 120.391 29.8944C121.015 30.7853 121.428 31.9041 121.744 33.1859C122.12 34.6447 122.189 36.3984 122.212 38.1651C122.225 39.2879 122.142 40.3247 121.558 41.5615C122.301 42.5384 121.882 44.606 121.297 46.5037C120.909 46.7717 120.516 47.0416 120.247 47.2276C119.398 49.2493 118.467 51.022 117.246 52.5737C116.615 53.3426 116.264 54.0965 115.7 54.8964C115.201 55.6972 114.545 56.4721 113.481 57.214C114.087 57.218 114.521 57.221 115.025 57.225C114.601 57.5819 114.23 57.8939 113.886 58.1848C113.522 58.4628 113.185 58.7197 112.848 58.9767L112.89 58.9147L113.289 59.6236C113.676 59.3476 114.035 59.0917 114.389 58.8387C114.725 58.5728 115.057 58.3098 115.406 58.0329C115.011 59.0847 115.041 59.1147 114.124 59.8276C113.822 60.0665 113.37 60.3805 113.26 60.5574C112.785 61.3563 112.193 61.8632 111.606 62.2142C111.007 62.5561 110.409 62.7461 109.75 62.7781C109.322 63.37 108.999 63.8159 108.717 64.2058C107.932 64.6158 107.137 64.9477 106.363 65.2967C105.591 65.6476 104.819 65.9916 103.984 66.3085C103.538 67.3113 102.266 68.2662 100.442 69.0311C98.1667 69.9919 96.3 70.9747 95.4332 72.1366C94.7693 72.3795 94.1144 72.6195 93.4715 72.8554C92.8206 73.0724 92.1777 73.2754 91.5558 73.5023C90.317 73.9713 89.1282 74.4402 88.0344 75.0931C87.8104 75.2281 87.2705 75.34 86.8806 75.449C82.7643 76.5188 78.6179 77.4347 74.7406 78.6665C73.0028 79.1854 71.5771 78.9594 70.0253 79.3124C68.1046 78.6085 65.4501 79.2664 62.8585 79.3774C63.1754 79.6883 63.7533 79.9433 63.5804 80.1553C63.3724 80.4102 62.5185 80.6282 61.9186 80.8711C62.6425 81.0061 63.1594 81.1211 64.1233 81.2841C62.4766 81.707 61.2787 82.1079 59.835 82.3109C55.4497 82.7918 50.9424 82.1689 46.7131 81.371C44.5235 80.9161 42.8218 80.6342 41.517 80.6592C39.2163 80.0993 37.0967 79.3474 35.023 78.6735C32.9893 77.8686 30.9807 77.1807 29.043 76.2849C26.8973 75.422 24.6737 74.3892 22.5431 73.5883C20.4154 72.6385 18.5337 71.7216 16.828 70.2809C15.9981 69.599 14.9133 68.9721 13.9725 68.2612C12.6527 67.3223 11.5618 66.9384 10.78 67.0274C11.8348 68.2672 12.9896 69.565 14.4274 70.7358C15.8971 71.8526 17.5259 73.0504 19.5755 73.9353C19.9275 74.0982 20.2674 74.4012 20.6394 74.6201C24.6067 76.8658 28.713 79.0304 33.1273 80.3572C36.2088 81.3351 39.1753 82.1819 42.0329 83.0228C44.7204 83.7777 47.278 84.2846 50.0586 84.2816C51.5693 84.3166 52.0892 84.5385 52.0013 85.0404C47.281 84.8165 42.8358 85.2084 37.9965 83.4207C37.8206 83.3487 37.5586 83.2987 37.3437 83.2557C35.5729 82.8928 33.8082 82.5259 32.1295 81.906C31.2846 81.617 30.4468 81.3111 29.6179 80.9901C28.801 80.6352 28.0002 80.2432 27.2053 79.8493C26.4644 79.4614 25.5296 79.1524 24.7287 78.8135C19.9215 77.0577 15.3102 74.7861 10.8739 72.1446C7.34252 69.9959 6.68563 69.7879 7.27753 71.6786C7.63547 71.8956 8.22839 72.2085 8.28738 72.2985C8.93227 73.2774 8.05541 73.1344 7.22654 73.0454C6.74762 72.6375 6.38169 72.3285 5.92776 71.8756C5.82378 72.0156 5.57382 72.0376 5.6978 72.2345C6.14873 73.0034 7.11256 73.6993 8.0554 74.4512C9.01625 75.1791 9.9601 75.9599 10.593 76.6398C14.1044 78.8295 14.0714 78.8685 15.1882 80.2912C15.6002 80.1432 16.0121 79.9943 16.564 79.7953C16.964 80.3372 17.2609 80.7411 17.6009 81.2031C18.2478 81.376 18.7497 81.537 19.9705 81.782C19.3886 82.0579 19.0456 82.2199 18.5337 82.4629C17.4929 81.509 15.6792 81.1641 15.1952 80.2502C13.9984 79.7523 12.8736 79.1254 11.3779 78.3645C11.8728 78.8405 12.2287 79.1834 12.5477 79.4904C12.1607 79.4534 11.3949 79.2334 11.4629 79.4094C11.6678 79.9373 11.9958 80.5672 12.6687 81.2661C14.0854 82.6588 15.0363 82.1749 16.2721 82.8888C17.4759 83.5837 18.7297 84.1806 20.0485 84.8035C20.5764 85.4804 19.1876 85.5404 21.1853 86.7862C21.6532 86.6082 22.0431 86.4702 22.4261 86.3073C25.4526 87.604 23.5299 87.657 24.4247 88.4719C26.4704 89.4787 28.783 90.2956 31.0047 91.2265C33.3603 92.0613 35.6449 93.1791 38.1565 92.9772C38.2925 92.9692 38.8304 93.1931 39.1653 93.2491C41.091 93.6201 43.0387 93.787 44.9614 94.096C46.8881 94.3619 48.8118 94.5799 50.7225 94.9328C51.2714 94.124 51.2754 94.125 53.0151 93.73C53.2611 93.866 53.614 93.996 53.722 94.129C54.6638 95.3178 57.5793 95.8207 61.4637 95.7557C62.5185 95.7127 63.5864 95.6697 64.6462 95.6277C65.701 95.5467 66.7479 95.4658 67.7707 95.4368C68.9115 95.4148 69.8683 95.3098 70.6532 95.1008C71.4401 94.9039 72.058 94.6319 72.5179 94.253C73.6937 94.4649 74.8205 94.3759 75.9244 94.176C77.0252 93.965 78.112 93.686 79.1748 93.2981C80.7656 93.5951 82.9362 93.3511 85.3358 92.6662C85.9287 92.5062 86.5336 92.3413 87.1275 92.2123C92.6176 90.9155 97.9018 88.9298 102.979 86.5242C104.256 85.8873 105.529 85.2524 106.795 84.6205C108.056 83.9606 109.335 83.3437 110.675 82.8108C111.299 82.5429 112.015 82.1289 112.666 81.754C114.204 80.9031 115.686 79.8993 117.188 78.9614C118.657 77.9316 120.144 76.9618 121.579 75.839C122.211 75.347 122.906 74.9561 123.782 74.2832C122.982 75.301 122.375 75.9539 121.728 76.7208C122.548 76.2439 123.271 75.823 123.958 75.423C124.637 74.9851 125.282 74.5712 125.95 74.1402C125.76 74.0532 125.57 73.9683 125.442 73.9093C126.559 72.7854 127.5 71.6306 128.467 70.5428C129.034 69.8859 129.636 69.159 130.256 68.5531C130.564 68.2402 130.874 67.9712 131.185 67.6953C131.497 67.4103 131.806 67.1594 132.107 66.9554C134.017 65.6836 135.386 63.7959 136.669 61.4063C137.448 59.8566 138.293 58.1738 139.075 56.6161C140.665 53.5316 142.138 50.3411 142.99 46.8887C143.727 43.9701 144.151 41.7955 144.897 40.1698C144.897 39.5089 144.812 38.833 144.771 38.1891C144.722 37.5232 144.675 36.8833 144.631 36.2734C144.59 35.6405 144.579 35.0196 144.624 34.4027C144.64 33.7758 144.707 33.1509 144.853 32.518C144.88 32.392 144.861 32.0291 144.812 31.5992C144.744 31.1652 144.666 30.6673 144.605 30.2814C144.143 27.0419 143.018 23.6115 141.747 20.589C140.655 18.0284 139.611 16.6326 138.587 15.9557C137.013 13.7091 135.855 12.3573 136.352 12.1163C135.241 10.8755 134.238 10.2296 133.485 9.76872C132.728 9.3068 132.141 9.16881 131.697 9.07283C130.238 8.76788 128.45 7.79504 125.785 6.49525C125.213 6.2193 124.663 5.96934 124.138 5.76237C123.615 5.5854 123.115 5.43642 122.639 5.31344C122.163 5.19046 121.709 5.09448 121.279 5.02349C120.851 4.9625 120.451 4.9545 120.069 4.95051C119.958 4.95051 119.529 4.80052 119.101 4.68154C118.808 4.39959 118.496 4.09964 118.153 3.76869C116.682 3.49873 115.198 3.15379 113.813 3.02981C113.111 2.95083 112.414 2.87284 111.72 2.79485L109.687 2.68587L108.391 3.0878C108.141 2.99782 107.899 2.93483 107.652 2.86384C108.351 2.76785 109.078 2.76686 109.796 2.71787C109.36 2.5049 108.766 2.35892 108.074 2.27794C107.391 2.22594 106.609 2.22995 105.783 2.26194C105.079 2.29593 104.355 2.31993 103.646 2.38892C102.938 2.46691 102.24 2.53489 101.58 2.55989C99.6245 2.58488 97.7748 2.93583 95.9891 3.29077C95.0992 3.48274 94.2444 3.77169 93.3995 4.04065C92.5596 4.3286 91.7258 4.59156 90.9409 4.9785C90.754 5.06449 90.428 5.13447 90.407 5.14047C89.7011 5.15747 89.1022 5.17247 88.4213 5.18847C87.5305 5.76637 86.8516 6.34328 85.8607 7.10715C85.4418 7.09115 85.1549 7.11815 85.0179 7.07215C84.155 6.7622 82.9242 7.25713 80.7376 8.43594C78.285 9.81871 76.1643 11.3145 74.1127 12.9972C72.004 14.7299 70.0293 16.6476 67.6377 18.6263C66.6579 19.4481 65.5581 20.8269 64.8802 21.7818C63.9163 23.2905 63.0495 24.2364 61.9176 25.1152C61.4427 25.5232 60.9578 25.9551 60.4689 26.402C59.88 26.9509 59.3261 27.5408 58.9211 28.1787C58.5262 28.8226 58.2342 29.4795 58.0863 30.1004C57.6683 31.6762 56.7705 33.6848 55.7676 35.9994C54.6258 36.8893 53.392 39.2359 52.4822 41.7625L52.4952 41.6605C52.7181 42.5514 52.9231 43.4182 53.283 44.4591C53.0621 45.2429 52.9021 46.1318 52.6801 47.0576C52.4422 47.9825 52.2742 48.9693 51.8453 49.9432C51.7033 50.2801 51.5763 50.867 51.4633 51.5209C51.3614 52.1758 51.3284 52.9017 51.2684 53.5096L51.0714 55.9322C51.0444 56.7391 51.0514 57.5439 51.0454 58.3498C51.0514 59.1537 51.0234 59.9605 51.0644 60.7604L51.2244 63.156C51.2644 63.7369 51.1864 64.3938 51.1444 64.9657C51.1154 66.4135 51.1524 67.7233 51.5393 69.519C52.1372 71.6526 52.0932 73.1984 51.5883 73.7883C51.7543 74.6871 52.0183 75.538 52.2472 76.4679C51.9943 76.9248 51.7753 77.3217 51.5783 77.6767C51.8193 79.1034 52.1742 80.4122 52.5282 81.744C52.8791 83.0778 53.2221 84.4406 53.717 85.8113C53.417 85.3744 53.2101 85.0864 53.0011 84.7625C52.7241 84.3576 52.5052 83.8826 52.2142 83.3587C52.3182 84.3236 52.4352 85.0275 52.5712 85.5994C52.6981 86.1773 52.8261 86.6352 52.9951 87.0841C53.1641 87.533 53.375 87.974 53.668 88.5189C53.9579 89.0668 54.3329 89.7157 54.8928 90.5286C55.9206 92.0433 56.8855 93.727 57.6953 94.8199C58.4502 95.3488 59.0791 95.7897 59.936 96.3906C60.1869 97.1495 60.4029 97.8014 60.6239 98.4713C60.8608 99.1302 61.1298 99.7861 61.4437 100.595C60.4029 99.3841 59.881 98.7472 59.487 98.1983C59.811 99.911 60.4629 100.89 61.6607 102.187C62.3936 102.955 63.2104 104.088 64.0183 105.034L66.6699 108.307C67.5317 109.348 68.3306 110.251 69.1615 111.233C69.8794 112.073 70.5732 112.947 71.2771 113.799L73.1768 116.177C75.6664 119.186 78.196 122.158 81.0585 125.44C82.1424 125.354 83.3741 127.161 84.7239 128.93C85.7857 130.332 86.9386 131.748 88.1064 133.128C88.5873 133.699 89.2052 134.322 89.7461 134.78C94.0784 138.433 96.656 141.121 99.6995 145.306C99.9254 145.616 100.277 145.952 100.118 145.776C101.889 146.98 103.227 147.822 104.598 148.845C105.833 149.767 106.889 150.874 107.567 152.251C108.424 153.958 108.752 154.347 110.533 155.661C111.565 156.445 112.475 157.303 113.261 158.444C113.967 159.453 115.03 160.647 114.593 161.133C114.545 161.189 114.7 161.547 114.846 161.759C115.97 163.368 117.004 164.964 118.233 166.979C118.105 166.075 118.024 165.514 117.878 164.487C118.658 165.808 119.125 166.554 119.499 167.295C119.777 167.838 120.016 168.416 120.31 168.905C121.427 170.596 122.325 172.354 123.286 173.859C124.888 176.473 125.837 179.243 126.306 182.107C126.577 183.856 126.743 185.656 126.378 187.501C126.293 187.888 126.264 188.375 126.171 188.774C126.081 189.175 126.009 189.593 125.96 190.011C125.936 190.22 125.917 190.429 125.905 190.637C125.865 190.848 125.831 191.057 125.805 191.262C125.753 191.672 125.73 192.068 125.741 192.433C125.66 194.516 125.368 196.633 124.521 198.81C124.35 199.314 124.416 199.883 124.297 200.42C124.507 200.094 124.709 199.765 124.868 199.427L124.927 199.726C124.746 199.941 124.509 200.144 124.299 200.35C123.976 201.048 123.71 201.763 123.358 202.457C123.664 200.886 123.065 200.898 122.495 200.934L122.511 200.926C122.449 201.147 122.418 201.397 122.321 201.589C121.802 202.413 121.454 203.171 121.247 203.885C120.987 204.58 120.864 205.229 120.881 205.85C120.884 205.975 120.745 206.239 120.655 206.49C120.129 205.615 120.133 205.75 118.768 207.081C117.807 208.11 116.854 209.127 115.985 210.279C115.016 211.363 114.102 212.574 112.9 213.728C113.568 213.389 113.933 213.147 114.165 213.103C114.447 213.05 114.619 213.162 114.84 213.202C114.499 213.535 114.081 214.059 113.833 214.177C113.415 214.375 113.017 214.619 112.64 214.89C112.253 215.151 111.862 215.413 111.508 215.695C110.787 216.247 110.186 216.859 109.628 217.243C108.184 217.883 107.263 218.191 106.298 218.684C105.826 218.943 105.363 219.274 104.868 219.652C104.359 220.008 103.798 220.381 103.179 220.786C102.944 220.775 102.454 220.817 102.14 220.722C101.449 220.517 100.742 220.875 99.7715 221.567L99.0486 222.091L98.3047 222.569C97.8078 222.89 97.3049 223.211 96.777 223.513C95.7101 224.085 94.5053 224.509 93.0826 224.671C91.9278 224.716 90.411 225.609 89.0192 225.42C88.5263 225.357 87.3835 225.764 86.9106 226.266C87.6865 226.434 88.4443 226.509 89.4542 226.67C88.8113 226.772 88.2324 226.857 87.6904 226.925C87.1485 226.996 86.6286 226.972 86.1257 226.975C85.1159 226.949 84.149 226.914 82.9962 226.62C82.1963 226.434 81.4845 226.456 80.6356 226.63C79.9987 226.73 79.3678 226.842 78.7169 226.965C78.067 227.095 77.3981 227.228 76.6852 227.284C76.4283 226.998 76.6502 226.533 75.2775 226.548C75.1025 226.699 74.9105 226.863 74.7076 227.037C71.5721 225.813 70.7342 225.68 69.3834 226.25C68.7025 226.059 68.0896 225.903 67.5297 225.776C66.9748 225.609 66.4739 225.461 66.009 225.353C65.0831 225.116 64.2953 225.07 63.5644 224.996C64.1993 225.26 64.7162 225.36 65.824 225.719C62.4396 225.513 59.647 224.468 56.9095 223.453C55.7647 222.992 54.6588 222.389 53.548 221.853C52.9331 221.578 52.3542 221.023 51.8303 220.835C51.3694 220.661 50.9974 220.819 50.5805 220.829C50.1296 220.416 49.6956 220.018 49.2657 219.625C48.8558 219.208 48.4448 218.798 47.9849 218.4C47.0361 217.606 46.2462 217.378 46.0472 217.903C46.0032 218.022 46.0682 218.207 46.0722 218.245C42.8448 216.563 39.8742 214.671 37.0927 212.542C36.9547 212.435 36.8097 212.372 36.6717 212.264C34.4311 210.513 32.3145 208.602 30.3658 206.536C30.1978 206.348 29.9439 206.037 29.9069 205.901C29.5419 204.656 28.5921 203.857 28.0112 203.493C26.4154 202.484 24.8687 200.691 23.5009 198.585C23.185 198.74 22.899 198.879 22.614 199.019C22.4691 198.172 22.5571 197.635 22.897 197.45C23.3549 197.207 23.07 196.362 22.613 195.165C21.9812 193.619 21.4862 193.775 20.9203 193.103C19.7385 191.631 19.2696 192.134 18.9586 193.192C19.1596 193.833 19.3366 194.395 19.5016 194.918C19.6925 195.436 19.8685 195.916 20.0445 196.393C20.1225 196.448 20.2374 196.582 20.2884 196.555C20.5774 196.402 20.8253 196.159 21.3432 197.089C21.8972 198.084 21.6702 198.439 21.4702 198.753C21.4492 198.787 21.4072 198.812 21.4202 198.874C21.5362 199.377 21.6102 199.886 21.8212 200.412C21.8932 200.581 22.3261 200.829 22.593 200.959C22.746 201.037 22.853 200.981 22.98 200.984C23.094 201.61 22.971 201.826 22.869 202.07C22.683 202.515 22.3731 202.616 21.9881 202.356C21.6032 202.098 21.1293 201.484 20.7234 200.492C19.6635 197.989 18.5697 196.151 17.5119 194.08C16.97 193.041 16.609 191.588 16.3001 190.301C15.7761 188.192 15.4382 186.057 15.3102 183.957C15.2972 183.51 15.2072 183.028 15.2442 182.63C15.4182 181.245 15.3692 180.37 15.2172 179.631C15.0313 178.88 14.7443 178.277 14.4744 177.476C14.3634 178.748 14.2704 179.641 14.0244 180.34C13.8465 181.056 13.5595 181.585 13.2826 182.156C13.2176 181.895 13.1886 181.817 13.1926 181.746L13.3136 180.305L13.5305 178.893C13.9115 176.939 13.8175 176.293 13.0136 176.702C12.6737 176.883 12.1967 177.94 11.9688 176.721C12.2457 175.707 12.6427 174.532 13.1266 173.403C13.3975 172.702 13.7205 172.102 13.8395 171.538C13.9934 170.994 14.0404 170.536 13.8295 170.157C13.6745 170.459 13.5255 170.748 13.3805 171.027C13.2456 171.312 13.1396 171.602 13.0216 171.878C12.9066 172.155 12.7936 172.426 12.6827 172.696C12.5827 172.971 12.5017 173.252 12.4087 173.531C12.0708 173.564 11.7848 173.591 11.5049 173.618C12.0178 171.387 12.4907 169.853 11.9788 168.8C11.7818 169.422 11.6018 169.915 11.4858 170.364C11.3809 170.812 11.2909 171.198 11.2049 171.567C10.4 171.742 10.357 171.685 11.0459 169.805C11.4199 168.971 12.0528 167.958 11.7728 167.417C10.0621 169.969 8.94026 172.708 8.22838 175.511C7.56549 178.075 7.32653 180.764 7.17455 183.304C6.98558 186.386 7.35753 189.41 8.23139 192.235C8.85828 194.328 9.3722 196.154 9.72214 198.216C9.42119 198.068 9.14224 197.929 8.8073 197.763C8.86429 198.119 8.92828 198.518 8.98827 198.894C9.12524 199.724 9.3672 200.562 9.69715 201.39C10.0621 202.2 10.514 203.001 11.0339 203.773C11.4459 204.332 11.9508 205.289 12.2557 206.024C12.9516 207.566 13.4835 209.097 14.3474 210.573C14.6873 211.199 15.1733 211.801 15.6462 212.391C16.1231 212.979 16.559 213.577 16.917 214.12C18.8876 217.381 21.9541 220.378 23.8268 223.315C23.9918 223.598 24.4467 223.987 24.7827 224.313C25.6625 225.163 26.5634 225.996 27.5003 226.781C28.4141 227.596 29.3569 228.369 30.2928 229.139C32.2075 230.753 34.1332 232.308 36.2388 233.837C35.219 233.819 34.3611 233.804 33.5593 233.789C32.8474 233.451 32.2865 233.118 31.6926 232.79C31.0077 232.382 30.2958 231.96 29.6259 231.561C27.7352 230.436 27.0963 230.358 26.7864 230.978C26.5684 231.416 26.0955 231.658 25.6395 232.073C25.6835 232.126 25.9015 232.391 26.1995 232.754C25.5136 232.519 24.5767 232.005 23.6649 231.383C22.743 230.775 21.8452 230.069 21.2713 229.429C20.3154 228.424 19.3756 227.436 18.4317 226.444C17.4649 225.469 16.536 224.444 15.5762 223.427C15.0073 222.845 14.4974 222.194 13.9725 221.555C13.4535 220.911 12.9256 220.272 12.4387 219.601C15.6022 222.597 18.5887 226.482 22.0841 229.169C22.2981 229.221 22.5171 229.308 22.641 229.294C22.813 229.275 22.935 229.199 23.043 229.114C23.9128 228.386 21.5852 225.115 18.7897 222.564C16.3401 220.385 14.4414 217.73 12.7486 215.028C11.8578 213.617 11.1669 212.635 10.351 211.737C8.75429 211.656 10.675 214.996 12.6207 217.965C11.4479 216.983 10.508 214.712 9.87711 215.13C10.364 216.071 10.844 217.145 11.5768 218.429C8.14139 215.018 8.48134 217.396 7.60348 217.936C8.21638 219.094 8.7003 219.543 8.93926 219.357C9.12123 219.218 9.07824 218.757 9.19622 218.509C9.50117 217.862 9.9661 218.265 11.4379 220.154C12.1977 221.178 13.0516 222.11 13.9684 223.205C13.9994 223.653 14.0434 224.067 14.0824 224.399C13.2626 223.6 12.6547 222.919 12.1467 222.396C11.9998 223.021 11.8828 223.519 11.7698 223.999C14.2684 228.465 18.6597 232.578 22.815 236.206C23.6179 236.89 24.4627 237.609 25.2786 238.303C26.1085 238.972 26.8933 239.631 27.5292 240.252C30.2178 242.792 33.0263 244.645 36.1208 245.467C38.7334 247.643 45.0084 251.09 48.7058 252.1C49.4017 252.606 49.9446 252.992 50.4185 253.287C50.8994 253.568 51.3194 253.741 51.7513 253.868C52.6172 254.115 53.56 254.13 55.2797 254.104C55.8696 254.111 56.7955 254.236 58.3112 254.293C57.8603 254.691 57.3404 254.825 57.5274 255.07C57.6903 255.283 58.6542 255.619 59.2691 255.899C59.616 255.811 60.1819 255.776 60.2529 255.621C60.3629 255.38 60.1369 255.058 60.0039 254.585C61.7557 255.081 63.1654 255.276 64.4592 255.581C65.4731 255.806 66.4759 256.077 67.4957 256.266C68.5186 256.441 69.5464 256.606 70.5862 256.74C72.6599 257.065 74.8075 257.019 77.0112 256.817C77.5041 256.782 78.33 256.88 79.0089 256.858C80.0247 256.834 81.0485 256.792 82.0624 256.735C83.0092 256.705 84.029 256.452 84.8559 256.439C86.6556 256.399 88.4513 256.373 90.263 256.191C91.1739 256.116 92.0917 256.04 93.0226 255.964C93.9494 255.86 94.8833 255.713 95.8421 255.579C97.0299 255.095 97.6178 254.868 98.2957 254.671C98.9676 254.453 99.7355 254.287 101.283 253.93C107.13 252.516 111.975 250.072 115.022 247.17C118.989 245.187 122.775 243.089 126.217 240.455C128.32 238.948 130.038 237.2 131.928 236.461C132.271 235.638 132.517 235.048 132.782 234.411C133.301 233.962 133.781 233.477 134.078 233.296C134.948 232.796 135.726 232.073 136.528 231.299C137.319 230.512 138.122 229.66 138.848 228.668C139.347 228.015 139.909 227.32 140.453 226.723C143.482 223.206 145.244 219.681 146.693 215.949C147.015 215.137 147.372 214.246 147.742 213.44L149.243 210.411C149.713 209.381 150.153 208.33 150.605 207.297C152.631 202.423 154.128 197.156 154.706 191.528C154.844 190.036 154.922 188.309 154.774 186.991C154.65 185.088 154.275 183.158 153.678 182.83C153.698 183.581 153.718 184.334 153.738 185.08C153.724 185.816 153.71 186.543 153.696 187.254C153.693 188.625 153.495 190.133 153.287 191.355C153.177 191.964 153.056 192.524 152.91 193.048C152.739 193.565 152.557 194.05 152.369 194.522C151.984 195.441 151.595 196.37 151.193 197.332C151.028 195.523 151.181 194.011 151.41 192.579C151.571 191.138 151.87 189.765 152.02 188.396C151.588 185.047 151.521 183.383 152.119 181.546C152.26 181.043 152.443 180.685 152.62 180.324C152.936 179.648 153.12 178.381 152.788 176.517C151.811 170.14 149.623 163.913 146.796 158.438C145.437 155.859 144.515 155.082 143.293 154.503C142.901 154.308 142.071 153.685 141.76 153.22C140.67 151.495 139.174 150.029 138.352 148.271C137.616 146.745 136.643 145.808 135.682 145.352C135.318 144.827 135.01 144.32 134.637 143.855C132.872 141.699 131.845 139.97 131.179 138.326C130.506 136.662 129.65 134.883 128.812 133.066C128.36 132.974 127.968 132.894 127.529 132.805C125.576 130.526 123.81 128.923 122.406 128.839C121.92 127.952 121.547 127.274 121.452 127.1C119.442 125.056 117.866 123.518 116.373 121.927C113.943 119.336 111.468 117.227 109.017 115.065C107.99 114.153 107.145 113.361 106.214 112.101C105.005 110.471 103.876 108.636 101.99 107.079C101.602 106.76 100.953 105.75 100.719 105.223C100.132 103.915 99.1516 102.731 97.9268 101.658C96.352 100.268 94.7663 98.9852 93.2195 97.6564C92.8536 97.3455 92.5157 97.1885 92.1497 96.8915C90.8979 95.8847 90.359 95.0148 90.452 94.238C90.486 93.945 90.495 93.625 90.517 93.2891C89.3682 92.1953 88.3843 91.2594 87.4125 90.3346C86.7716 89.7247 86.2647 89.4517 86.1657 89.9217C86.0777 90.3406 86.4137 90.8975 87.0266 91.5664C87.2705 91.8403 87.5685 92.2393 87.9444 92.6902C87.2935 92.5712 86.7246 92.4502 86.2427 92.3833C87.1845 92.8962 88.1644 94.158 89.0992 95.2398ZM77.6461 81.457C77.2261 81.707 76.8002 81.9599 76.2733 82.2739C74.5006 81.907 76.0274 81.3471 76.5313 80.8371C78.132 80.4682 79.6808 80.2272 81.1655 79.8213C81.9114 79.6323 82.6483 79.4384 83.3801 79.2274C84.109 79.0074 84.8239 78.7355 85.5398 78.4555C87.2165 77.8196 89.4402 77.3177 91.3788 76.8008C91.9388 76.6358 92.3967 76.8218 92.9676 76.8488C92.3187 77.1467 91.7568 77.4047 91.2389 77.6427C90.712 77.8606 90.229 78.0606 89.7461 78.2596C89.5521 78.3395 89.2942 78.4695 89.1642 78.4845C88.0024 78.6375 86.8216 79.0094 85.6138 79.3844C85.0119 79.5763 84.406 79.7773 83.7951 79.9463C83.1792 80.0953 82.5603 80.2192 81.9404 80.2862C81.0755 80.3882 79.6388 81.1281 78.256 81.566C78.19 81.556 77.919 81.507 77.6461 81.457ZM132.739 175.228C132.526 174.645 132.268 174.121 132.018 173.578C131.765 173.035 131.523 172.472 131.179 171.856C131.257 171.439 131.244 170.804 131.451 170.614C131.564 170.509 132.054 171.168 132.378 171.489C132.491 173.104 133.484 173.903 134.32 175.954C133.627 175.636 133.183 175.432 132.739 175.228ZM149.243 203.21C149.874 201.099 150.044 199.982 150.27 199.408C150.488 198.83 150.704 198.771 151.137 198.647C150.917 199.865 150.745 200.788 150.592 201.474C150.405 202.145 150.258 202.591 150.125 202.878C149.857 203.452 149.644 203.387 149.243 203.21ZM108.344 117.586C107.286 116.306 107.497 115.846 106.956 114.809C109.167 116.947 109.316 117.258 108.344 117.586ZM135.334 179.775L135.059 179.108C134.731 178.913 134.392 178.724 133.968 178.51C134.36 177.458 134.819 177.446 135.201 178.553C135.582 179.884 135.657 180.978 134.912 180.762L135.334 179.775ZM56.2206 87.713C56.7105 88.3829 57.1744 88.8908 57.8443 89.6657C57.9613 90.5666 58.0553 91.2824 58.1483 91.9983L57.7313 91.5724C57.2744 90.4006 56.7495 89.2838 56.2206 87.713ZM135.864 183.503C135.849 186.024 135.779 186.068 134.94 184.333C135.325 183.987 135.578 183.76 135.864 183.503ZM43.1467 93.4311C42.7568 93.4201 42.1219 93.2091 41.601 93.0891C41.8149 92.9802 41.9159 92.7642 42.2598 92.7802C43.5226 92.8352 44.8604 92.9912 46.1682 93.0681L46.4662 93.3701C45.3693 93.4471 44.3115 93.4521 43.1467 93.4311ZM11.5478 188.834C11.4409 189.477 11.3399 189.961 11.2299 190.768C11.0999 190.212 11.0299 189.743 10.9289 189.238C10.827 188.733 10.727 188.186 10.643 187.456C11.0599 188.136 11.2489 188.422 11.5478 188.834ZM120.319 53.4226C120.682 52.7497 121.016 52.1388 121.352 51.4159C121.466 51.4889 121.622 51.4689 121.599 51.5969C121.532 52.0498 121.337 52.5118 121.103 53.2896C120.753 53.3566 120.595 53.3876 120.319 53.4226ZM128.94 135.638C127.795 134.89 127.799 134.91 126.956 133.484C127.727 134.319 128.307 134.95 128.94 135.638ZM135.296 190.453C135.286 190.367 135.537 189.807 135.559 189.854C135.692 190.152 135.806 190.545 135.894 190.975C135.898 191.031 135.755 191.449 135.537 191.891C135.49 191.29 135.331 190.901 135.296 190.453ZM115.839 57.6749C116.557 56.951 116.931 56.4221 117.628 55.6402C117.577 56.5871 117.131 57.124 115.839 57.6749ZM133.802 199.343L133.602 200.086L132.945 200.094L133.219 199.161L133.802 199.343ZM132.341 202.593L132.626 202.015L133.045 202.577C132.905 202.841 132.783 203.112 132.628 203.37C132.55 203.114 132.436 202.849 132.341 202.593ZM66.8448 79.7093L67.0638 79.8973L65.4531 80.1892L65.2311 79.9973L66.8448 79.7093ZM96.277 75.567L96.36 75.707L94.8473 76.3829L94.7683 76.1559L96.277 75.567ZM100.085 74.2102C100.134 74.0922 100.537 73.8373 100.837 73.6583C100.911 73.6143 101.349 73.5723 101.333 73.6353C101.3 73.7703 101.079 73.9752 100.796 74.3202C100.417 74.2742 100.041 74.3142 100.085 74.2102ZM94.7883 100.631C94.7123 100.452 94.5893 100.232 94.5803 100.112C94.5753 100.053 94.8163 100.149 94.8823 100.226C95.0492 100.419 95.1802 100.641 95.4152 100.982C95.1332 100.824 94.9603 100.728 94.7883 100.631ZM98.0468 73.8133L97.9648 73.9903C97.5808 74.1282 97.1859 74.2412 96.798 74.3682L97.0379 74.0602C97.3759 73.9813 97.7168 73.9093 98.0468 73.8133ZM128.912 166.04L129.175 165.706L129.488 166.284L128.912 166.04ZM14.3684 220.301C14.2304 220.25 14.0194 220.084 13.8375 219.963C13.7935 219.837 13.6735 219.59 13.7255 219.601C13.8505 219.637 14.0594 219.781 14.2624 219.898C14.3154 220.085 14.4224 220.321 14.3684 220.301ZM91.8188 97.7604C91.9448 97.8514 92.0797 97.9204 92.1917 98.0403C92.2767 98.1303 92.3307 98.2873 92.3987 98.4153L92.0148 98.1383L91.8188 97.7604Z" fill="#212121"/>
<path d="M103.827 64.6118C103.052 65.2597 102.204 65.7116 101.334 66.1005C100.447 66.4655 99.5477 66.7854 98.6858 67.2274C97.92 67.6033 97.0511 67.8672 96.2882 68.0932C96.0043 68.1752 95.8713 67.9932 95.6714 67.9312L95.6523 67.9532C96.2882 67.6383 96.9771 67.3463 97.551 67.0074C98.8058 66.2595 99.9216 65.6246 100.994 65.2427C102.033 64.8127 103.003 64.5908 103.916 64.5938L103.827 64.6118Z" fill="#212121"/>
<path d="M6.95118 211.928C6.52818 212.785 5.95219 213.374 4.95819 213.273C3.64319 210.961 3.94318 210.501 3.91018 209.701C3.87218 208.732 4.36519 209.168 5.29719 210.404C5.73019 210.958 6.09718 210.926 6.49218 211.156L6.95118 211.928Z" fill="#212121"/>
<path d="M104.414 1.01022C104.126 1.19219 104.056 1.30017 103.793 1.38516C103.552 1.47214 103.085 1.58012 102.754 1.59912C101.502 1.6881 100.243 1.7181 99.0007 1.85508C97.7629 1.98306 96.5261 2.11003 95.2773 2.23901C96.7171 1.6761 98.2088 1.32017 99.7306 1.1192C101.264 0.99622 102.821 0.93323 104.414 1.01022Z" fill="#212121"/>
<path d="M47.9681 69.3387C47.5561 67.6377 47.1861 66.2547 46.9141 64.8457C47.4671 62.9607 47.6641 62.9417 47.9521 64.6166C48.3891 66.7656 48.4581 68.0477 47.9681 69.3387Z" fill="#212121"/>
<path d="M1.40607 200.189C1.67902 201.04 1.97797 201.831 2.28492 202.589C2.58987 203.348 2.85282 204.104 3.16077 204.819C3.41573 205.444 3.50072 206.071 3.66769 206.7L3.38675 206.558C2.56188 204.853 1.785 203.1 1.1421 201.295C0.716171 200.005 0.849157 199.817 1.40607 200.189Z" fill="#212121"/>
<path d="M7.80231 76.329C8.28931 76.532 8.7753 76.735 9.6783 77.111C8.9853 77.744 7.46931 77.3651 5.57031 77.0131C5.93831 76.2571 6.31931 75.8271 7.94431 76.3781L7.80231 76.329Z" fill="#212121"/>
<path d="M107.324 1.4925C108.093 1.43851 108.884 1.46551 109.665 1.4875C110.45 1.5185 111.214 1.53249 111.995 1.61748C113.575 1.82145 115.086 2.03642 116.578 2.54833C114.919 2.23739 113.352 2.16439 111.779 1.96342C110.258 1.87044 108.749 1.66747 107.324 1.4925Z" fill="#212121"/>
<path d="M110.519 61.6295C110.457 60.9545 110.406 60.4015 110.355 59.8475L110.774 59.5195C111.187 59.7335 111.6 59.9475 112.052 60.1815C111.531 60.6725 111.061 61.1175 110.519 61.6295Z" fill="#212121"/>
<path d="M48.7656 74C49.0806 75.3028 49.5745 76.2456 49.8954 77.2265C50.2544 78.1883 50.4753 79.1782 50.6693 80.384C50.1354 79.6431 49.7925 78.8162 49.4575 77.8214C49.1626 76.8065 48.8386 75.6317 48.7656 74Z" fill="#212121"/>
<path d="M50.169 63.4799C50.126 65.5669 50.299 66.5789 50.19 66.9309C50.11 67.2769 49.879 66.9399 49.418 66.2419C49.463 64.9829 49.442 62.7349 50.169 63.4799Z" fill="#212121"/>
<path d="M122.508 200.93C122.773 200.323 123.085 199.727 123.338 199.107C123.573 198.486 123.814 197.852 124.064 197.19C124.582 197.145 124.505 197.75 124.088 198.551C123.678 199.422 123.043 200.154 122.497 200.934C122.492 200.937 122.508 200.93 122.508 200.93Z" fill="#212121"/>
<path d="M103.917 64.5953C103.812 64.3213 103.706 64.0483 103.531 63.5943C104.613 63.1873 105.324 62.9193 106.034 62.6523L106.157 62.8503C105.382 63.4323 104.626 64.0443 103.829 64.6123L103.917 64.5953Z" fill="#212121"/>
<path d="M2.52686 72.7425C1.94686 72.5785 1.36687 72.4155 0.611868 72.2025C0.214868 71.3125 0.224862 70.8625 1.83086 71.6305C2.05486 72.0285 2.24586 72.3695 2.43686 72.7095L2.52686 72.7425Z" fill="#212121"/>
<path d="M131.418 68.3633C130.395 69.8693 129.74 70.9143 128.993 71.8723C128.548 71.2793 128.647 71.2653 131.418 68.3633Z" fill="#212121"/>
<path d="M76.8008 73.8086C77.5228 74.6266 78.1158 75.4706 77.9158 76.7156C77.4298 75.5276 77.0488 74.6776 76.8008 73.8086Z" fill="#212121"/>
<path d="M50.3359 52.96C50.4259 51.871 50.6209 50.792 50.8249 49.713L51.0389 49.668C50.8569 50.784 50.6799 51.898 50.6139 53.021L50.3359 52.96Z" fill="#212121"/>
<path d="M95.6705 67.9336C94.9935 68.5006 94.2745 68.9986 93.4805 69.6076C93.4875 68.9386 93.5015 68.9636 95.6435 67.9636C95.6515 67.9556 95.6705 67.9336 95.6705 67.9336Z" fill="#212121"/>
<path d="M123.057 4.72343C122.266 4.41243 121.46 4.06744 120.676 3.84144L120.981 3.64844C121.737 3.88744 122.517 4.25644 123.276 4.56544L123.057 4.72343Z" fill="#212121"/>
<path d="M57.9479 80.4458C57.4659 80.5318 56.9849 80.6178 56.4959 80.7048C56.4799 80.7078 56.1709 80.5618 56.1969 80.5548C56.6079 80.4348 57.0489 80.3258 57.4819 80.2148L57.9479 80.4458Z" fill="#212121"/>
<path d="M52.493 41.6602C52.08 42.8592 51.817 44.1892 51.207 44.7102C51.533 42.9502 52.039 42.5452 52.479 41.7702C52.48 41.7622 52.493 41.6602 52.493 41.6602Z" fill="#212121"/>
<path d="M15.3086 174.141C15.4096 173.723 15.5866 173.349 15.7326 172.948C15.7456 172.914 15.8746 172.896 15.9486 172.871C15.8276 173.277 15.6866 173.667 15.5756 174.073L15.3086 174.141Z" fill="#212121"/>
<path d="M2.4375 72.7109C3.0615 73.1409 3.6845 73.5709 4.5415 74.1619C3.2345 73.7489 3.2275 73.7429 2.5295 72.7459L2.4375 72.7109Z" fill="#212121"/>
<path d="M112.888 58.9171C112.327 59.1181 111.809 59.2851 112.471 58.4051C113.219 58.1051 112.918 58.6351 112.85 58.9731C112.853 58.9671 112.888 58.9171 112.888 58.9171Z" fill="#212121"/>
<path d="M15.1445 167.314C15.1855 167.138 15.1955 166.978 15.2415 166.928C15.4215 166.734 15.6125 166.576 15.7985 166.406C15.7725 166.514 15.7765 166.652 15.7165 166.724C15.5495 166.925 15.3555 167.1 15.1445 167.314Z" fill="#212121"/>
<path d="M75.6698 73.1318C75.5028 72.6978 75.3168 72.2648 75.1618 71.8288L74.7578 70.5137L74.9388 70.4688L75.2348 71.7758C75.3488 72.2118 75.5038 72.6447 75.6358 73.0827C75.6408 73.0917 75.6698 73.1318 75.6698 73.1318Z" fill="#212121"/>
<path d="M7.80156 76.3295L7.94356 76.3785L6.85156 75.3555L7.29855 75.5175L7.80156 76.3295Z" fill="#212121"/>
<path d="M100.88 67.3007C100.611 67.3337 100.256 67.4207 100.274 67.3667C100.314 67.2427 100.538 67.0487 100.686 66.8837C100.867 66.8707 101.156 66.7997 101.198 66.8597C101.239 66.9177 101.026 67.1097 100.88 67.3007Z" fill="#212121"/>
<path d="M105.514 64.4141L106.045 64.6311C105.881 64.7341 105.596 64.9301 105.572 64.9241C105.387 64.8761 105.252 64.7901 105.102 64.7151L105.514 64.4141Z" fill="#212121"/>
<path d="M25.3111 230.455L24.7891 229.539L25.2041 229.767L25.7301 230.684L25.3111 230.455Z" fill="#212121"/>
<path d="M88.6145 141.616C88.8155 141.423 89.0194 141.227 89.2984 140.959C89.4184 141.161 89.5134 141.321 89.6004 141.467C89.1824 141.917 88.8935 141.758 88.6025 141.613C88.6755 141.809 88.7485 142.004 88.8225 142.204C88.5785 142.394 88.3655 142.561 88.1546 142.725C88.0266 142.817 87.7856 142.925 87.7846 142.986C87.7756 143.593 87.3087 144.062 87.0358 144.58C86.7008 145.216 86.4009 145.981 85.863 146.394C85.434 146.722 85.1031 147.103 84.7991 147.503L84.5712 147.804L84.4572 147.955L84.4002 148.029L84.3972 148.059C84.3882 148.136 84.3742 148.212 84.3452 148.277C84.2202 148.172 84.1232 148.09 84.0163 148.001C83.9923 148.034 83.9783 148.069 83.9503 148.094L83.9453 148.086C84.1342 148.283 84.2472 148.462 84.0402 148.47C83.8453 148.485 83.7973 148.604 83.6843 148.668C83.5543 148.755 83.4993 148.945 83.2904 148.89C83.0454 148.817 83.0784 149.043 83.1454 149.397C83.1944 149.644 83.1644 149.76 83.1084 149.846C82.9224 150.135 82.5115 149.634 82.5075 150.244C82.5055 150.305 82.4595 150.254 82.4165 150.171C82.2505 149.85 82.2555 150.017 82.3365 150.5C82.2375 150.383 82.0926 149.999 82.1046 150.199C82.1346 150.845 81.9696 150.574 81.8936 150.623C81.8456 150.661 81.7746 150.483 81.8716 151.598C81.9306 152.279 81.8686 152.28 81.7976 151.97C81.7856 151.9 81.7706 151.809 81.7496 151.69C81.7296 151.542 81.7056 151.361 81.6766 151.147C81.6906 151.628 81.6936 151.999 81.6876 152.423C81.6456 152.311 81.6116 152.307 81.5657 152.235C81.5037 152.27 81.4397 152.42 81.3657 152.569C81.2897 152.713 81.1967 153.053 81.1217 152.228C81.1117 152.112 81.0847 152.082 81.0637 152.062C80.9677 151.968 80.8698 151.889 80.7558 151.79C80.7658 151.403 80.7758 150.985 80.7858 150.575C80.7138 149.842 80.6228 149.994 80.3168 150.845C80.2549 151.021 80.1849 151.04 80.1229 151.079C80.0449 151.127 79.9689 151.121 79.8849 151.146C79.7989 151.173 79.685 151.277 79.613 151.224C79.452 151.104 79.314 150.901 79.153 150.77C78.9631 150.621 78.7971 150.427 78.5191 150.417C78.3402 150.413 78.1862 150.369 78.2082 150.058C78.0512 150.216 77.9132 150.329 77.7863 150.408C77.5863 150.436 77.3893 150.425 77.1944 150.391C76.8044 150.323 76.4225 150.16 76.0375 150.028C76.0435 149.764 76.0495 149.496 76.0535 149.312C75.1977 148.885 74.4188 148.547 73.6979 148.117C72.956 147.686 72.0762 148.017 71.4243 147.291C71.3543 147.678 71.3043 147.956 71.2463 148.277C70.9294 148.039 70.6914 147.86 70.4525 147.681L70.4844 147.678L70.0425 148.242C70.2865 148.46 70.4954 148.647 70.7284 148.855C70.1675 149.06 70.1705 149.059 69.8476 148.84C69.7406 148.768 69.6046 148.638 69.5156 148.653C68.7267 148.78 68.5008 148.367 68.4878 147.698C68.1738 147.771 67.9369 147.825 67.7299 147.873C67.344 147.403 66.98 146.986 66.5651 146.544C66.0192 146.893 65.4933 146.803 64.9793 146.42C64.3275 145.952 63.6536 145.749 63.0087 146.142C62.2278 145.704 61.5679 145.123 60.639 145.26C60.5451 145.274 60.4061 145.161 60.2931 145.098C59.1253 144.434 57.8395 143.931 56.4767 143.953C55.8718 143.968 55.5819 143.467 55.043 143.484C54.694 142.633 53.7432 142.706 52.9193 142.543C52.9563 142.8 53.0803 143.04 52.9823 143.181C52.8653 143.351 52.5614 143.437 52.3364 143.563C52.5244 143.731 52.6574 143.85 52.9043 144.071C52.3334 144.222 51.9115 144.423 51.4635 144.441C50.1088 144.507 48.841 144.074 47.5552 143.8C46.8933 143.656 46.3594 143.638 45.9614 143.846C44.5507 143.615 43.2479 143.481 41.9281 143.51C41.2132 143.524 40.4573 143.689 39.7824 143.89C39.0946 144.151 38.4757 144.27 37.7788 144.261C37.4438 144.269 37.0659 144.365 36.7139 144.46C36.226 144.586 35.9461 144.866 35.8711 145.223C36.9289 145.423 37.9787 145.472 39.2195 145.101C39.3275 145.066 39.4645 145.109 39.5885 145.098C40.2464 145.033 40.9143 145.074 41.5692 145.06C42.227 145.074 42.8809 145.113 43.5308 145.073C44.4457 145.083 45.3226 145.15 46.1324 145.418C46.8973 145.633 47.5862 145.809 48.3751 145.725C48.807 145.675 48.93 145.858 48.855 146.222C48.2031 146.189 47.5682 146.32 46.9443 146.381C46.3154 146.479 45.6995 146.468 45.0306 146.217C44.9816 146.199 44.9096 146.211 44.8506 146.219C44.3657 146.293 43.8898 146.298 43.4159 146.287C42.9419 146.287 42.467 146.239 41.9851 146.149C41.7581 146.102 41.4952 146.145 41.2662 146.193C40.5913 146.341 39.9254 146.502 39.2745 146.715C38.6166 146.893 37.9797 147.133 37.3438 147.361C36.322 147.726 36.246 147.979 36.8169 148.496C36.9119 148.455 37.0569 148.366 37.0869 148.383C37.4218 148.583 37.2829 148.829 37.1839 149.099C37.0289 149.099 36.9109 149.098 36.7539 149.098C36.7839 149.195 36.7709 149.301 36.8339 149.332C37.3029 149.558 37.9647 149.283 38.4427 149.53C39.3675 149.405 39.3835 149.455 39.8284 149.868C39.8584 149.662 39.8894 149.455 39.9294 149.179C40.0934 149.348 40.2154 149.474 40.3553 149.618C40.4853 149.51 40.5883 149.428 40.8393 149.252C40.7913 149.567 40.7633 149.752 40.7213 150.029C40.3924 149.807 40.0704 150.192 39.8214 149.844C39.5525 149.93 39.2755 149.984 38.9336 150.109C39.0956 150.176 39.2115 150.229 39.3175 150.285C39.2615 150.388 39.1266 150.532 39.1735 150.599C39.3095 150.789 39.4845 151.016 39.7025 151.158C40.1474 151.458 40.1734 150.937 40.4713 150.946C40.7533 150.935 41.0422 150.966 41.3402 150.985C41.5202 151.242 41.3262 151.64 41.7961 151.851C41.8441 151.624 41.8861 151.429 41.9251 151.244C42.584 151.323 42.2711 151.819 42.508 152.117C42.9479 152.264 43.4069 152.374 43.8538 152.572C44.3277 152.79 44.7496 153.132 45.2236 152.771C45.2496 152.751 45.3515 152.851 45.4145 152.856C46.1444 152.893 46.8953 152.996 47.5742 153.42C47.7621 152.832 47.7611 152.838 48.1561 152.579C48.1901 152.683 48.2451 152.785 48.2501 152.884C48.2991 153.77 48.764 154.195 49.4579 154.5C49.8358 154.658 50.2407 154.733 50.5857 154.981C50.9686 155.245 51.2756 155.263 51.6145 154.858C51.8705 155.552 52.3234 155.554 52.8123 155.521C52.9193 156.108 53.2453 156.451 53.6992 156.64C53.8102 156.688 53.9242 156.736 54.0251 156.807C54.952 157.496 55.9588 157.968 56.9786 158.472C57.4896 158.741 58.0565 158.897 58.4004 159.47C58.4814 159.602 58.6214 159.691 58.7484 159.773C59.3483 160.147 59.9372 160.56 60.5271 160.959C60.655 161.05 60.749 161.2 60.896 161.365C60.5651 161.42 60.3351 161.451 60.0791 161.503C60.2541 161.892 60.3881 162.19 60.5321 162.511C60.6131 162.362 60.692 162.213 60.747 162.113C61.082 162.163 61.3859 162.209 61.6829 162.254C62.0348 162.324 62.3428 162.524 62.3358 162.948C62.3268 163.608 62.6387 163.836 63.1236 163.981C63.4306 164.071 63.7655 164.178 63.9865 164.403C64.2095 164.662 64.4014 164.959 64.5944 165.252C64.6954 165.398 64.7944 165.542 64.8914 165.682C64.9554 165.763 64.9674 165.793 65.0773 165.91L65.4113 166.253C66.1822 167.01 66.6181 167.706 66.7401 168.59C67.5549 169.049 68.3218 169.34 68.4818 170.737C68.4978 170.878 68.7857 171.178 68.9477 171.403C69.6206 172.416 70.3495 173.513 70.9104 174.685C71.3823 175.688 71.7293 176.319 72.1152 176.137C72.6141 177.128 72.8941 177.947 72.6921 178.533C73.307 179.702 73.7569 179.671 74.0289 179.453C74.4878 179.122 74.9607 179.506 75.5866 180.667C76.1285 181.674 76.6255 182.181 77.0404 182.113C77.0704 182.109 77.1714 182.34 77.2743 182.526C77.3233 182.992 77.3763 183.487 77.4333 184.032C78.1842 185.321 78.8991 186.55 79.615 187.78C79.7399 187.694 79.8619 187.602 79.9829 187.506L80.1689 188.262L79.588 187.679C79.7969 188.802 80.1979 189.625 80.6518 190.364C81.0387 190.993 81.4427 191.514 81.8046 192.295C82.6375 194.075 83.4084 195.44 84.1172 196.222C84.2512 195.807 84.3972 195.354 84.5602 194.847C84.5942 194.736 84.6591 194.719 84.6641 194.713C84.8181 194.962 84.9511 195.161 85.1031 195.374C85.24 194.498 85.352 193.782 85.515 192.743C85.616 192.979 85.682 193.065 85.719 193.217C85.9509 194.167 86.1949 193.735 86.6138 192.658C87.0867 191.418 87.4937 190.126 87.8956 188.789C88.3075 187.417 88.6995 186.004 89.3104 185.125C89.5614 184.765 89.8223 183.887 89.9593 183.176C90.1672 182.098 90.4122 181.735 90.7842 181.692C90.9481 181.673 91.1151 181.636 91.2851 181.586C91.696 181.467 91.999 180.84 92.0379 179.827C92.0869 178.524 92.4089 177.536 92.7918 176.446C93.3617 176.865 93.9056 176.036 94.4465 175.161L94.4396 175.223C94.3106 174.345 94.1746 173.483 93.9996 172.475C94.2996 171.905 94.4586 170.873 95.0945 170.614C95.3154 170.522 95.5674 169.827 95.7693 169.361C96.0313 168.742 96.2953 168.117 96.5592 167.492L96.7542 167.026L96.8891 166.52L97.1581 165.513C97.2241 165.271 97.3801 165.097 97.5041 164.929C97.823 164.5 98.069 164.045 98.1999 163.189C98.3579 162.158 98.7958 161.77 99.2808 161.942C99.4107 161.578 99.5207 161.151 99.6747 160.818C99.9847 160.874 100.254 160.923 100.495 160.967C100.79 160.48 101.05 159.974 101.357 159.516C101.666 159.07 101.977 158.621 102.309 158.143C102.335 158.308 102.303 158.523 102.294 158.677C102.263 158.908 102.233 159.121 102.198 159.381C102.511 159.127 102.747 158.929 102.929 158.753C102.976 158.706 103.018 158.663 103.056 158.624C103.083 158.603 103.107 158.585 103.128 158.568C103.171 158.531 103.205 158.492 103.231 158.449C103.337 158.275 103.326 158.028 103.314 157.532C103.298 157.07 103.367 156.629 103.394 156.299C103.203 155.971 103.044 155.698 102.827 155.326C103.211 155.151 103.488 155.025 103.908 154.833C103.883 155.23 103.87 155.433 103.859 155.598C104.404 155.508 104.569 155.305 104.531 154.832C104.51 154.549 104.601 154.243 104.694 153.971C104.914 153.369 105.168 152.782 105.43 152.2C105.545 151.946 105.686 151.706 105.826 151.467C105.96 151.257 106.101 151.035 106.235 150.825C106.737 149.988 107.236 149.152 107.797 148.217C107.336 147.714 107.783 147.357 108.188 146.958C108.507 146.643 108.8 146.289 109.079 145.928C109.194 145.779 109.286 145.575 109.324 145.385C109.635 143.871 110.156 143.068 111.217 142.207C111.296 142.143 111.347 142.025 111.312 142.076C111.335 141.425 111.334 140.93 111.405 140.431C111.47 139.982 111.683 139.637 112.133 139.485C112.691 139.299 112.761 139.174 112.849 138.507C112.903 138.109 113.04 137.79 113.328 137.529C113.583 137.299 113.81 136.907 114.16 137.148C114.2 137.176 114.315 137.131 114.367 137.079C114.759 136.683 115.136 136.27 115.649 135.775C115.289 135.791 115.066 135.801 114.657 135.819C114.997 135.513 115.186 135.343 115.385 135.163C115.529 135.039 115.714 134.955 115.82 134.804C116.186 134.284 116.59 133.765 116.858 133.2C117.335 132.237 117.963 131.389 118.633 130.583C119.051 130.102 119.478 129.63 120.046 129.3C120.548 129.017 121.12 128.467 121.396 127.958C121.782 127.226 122.214 126.565 122.726 125.916C122.844 125.767 122.857 125.524 122.921 125.327L122.607 125.569L122.6 125.435L122.918 125.356L123.434 124.754C123.247 125.317 123.51 125.47 123.785 125.611L123.777 125.61C123.816 125.536 123.843 125.442 123.898 125.39C124.386 124.932 124.587 124.436 124.55 123.894C124.546 123.839 124.604 123.756 124.641 123.669C124.887 124.151 124.916 124.126 125.451 123.78C126.259 123.271 126.766 122.491 127.48 121.666C127.239 121.744 127.115 121.812 127.024 121.804C126.914 121.794 126.832 121.72 126.737 121.674C126.841 121.56 126.957 121.369 127.046 121.345C127.645 121.177 128.07 120.653 128.384 120.359C128.86 120.168 129.192 120.101 129.472 119.898C129.751 119.696 129.979 119.358 130.301 119.001C130.39 119.012 130.567 119.005 130.701 119.057C130.997 119.172 131.176 118.982 131.408 118.658C131.872 118.015 132.203 117.249 133.09 116.927C133.445 116.803 133.771 116.314 134.225 116.225C134.387 116.193 134.664 115.901 134.683 115.608C134.416 115.639 134.153 115.669 133.814 115.708C134.513 115.263 134.962 115.027 135.742 114.898C136.013 114.852 136.219 114.74 136.414 114.526C136.687 114.213 136.982 113.874 137.299 113.511C137.437 113.573 137.5 113.807 137.845 113.513C137.85 113.417 137.856 113.311 137.863 113.2C138.962 113.008 139.207 112.846 139.348 112.29C140.171 111.899 140.617 111.578 140.943 111.216C140.751 111.316 140.591 111.377 140.268 111.562C141.053 110.77 141.85 110.297 142.621 109.79C142.944 109.573 143.29 109.401 143.635 109.233C143.823 109.14 144.058 109.093 144.193 108.979C144.312 108.879 144.322 108.716 144.38 108.581C144.756 108.515 145.099 108.484 145.461 108.381C145.828 108.273 145.997 108.043 145.872 107.854C145.843 107.81 145.78 107.785 145.768 107.777C146.719 107.144 147.636 106.534 148.555 105.923C148.59 105.897 148.649 105.853 148.684 105.828C149.463 105.373 150.239 104.92 151.012 104.468C151.082 104.428 151.196 104.37 151.241 104.373C151.657 104.412 151.977 104.148 152.128 103.976C152.55 103.497 153.195 103.113 153.908 102.721C153.871 102.592 153.838 102.477 153.805 102.361C154.074 102.368 154.241 102.422 154.289 102.564C154.35 102.742 154.635 102.71 155.036 102.581C155.557 102.414 155.513 102.205 155.737 102.016C156.226 101.604 156.053 101.419 155.722 101.291C155.315 101.403 155.006 101.488 154.7 101.572C154.681 101.598 154.637 101.635 154.644 101.655C154.685 101.765 154.759 101.883 154.45 102.013C154.12 102.153 154.015 102.044 153.925 101.954C153.915 101.944 153.909 101.927 153.89 101.928C153.73 101.935 153.571 101.926 153.403 101.966C153.349 101.979 153.258 102.128 153.206 102.213C153.176 102.262 153.188 102.307 153.182 102.353C152.984 102.339 152.923 102.275 152.854 102.215C152.599 101.996 152.792 101.716 153.419 101.551C154.212 101.338 154.813 101.075 155.45 100.733C155.772 100.566 156.216 100.456 156.609 100.328C157.251 100.107 157.914 99.9673 158.567 99.7824C158.708 99.7454 158.854 99.6764 158.982 99.6604C159.885 99.5544 160.088 99.2155 160.503 98.8405C159.712 99.1225 159.364 99.0475 158.979 98.9505C159.052 98.9075 159.073 98.8885 159.094 98.8835L159.971 98.7095C160.591 98.5926 160.767 98.4846 160.544 98.2766C160.447 98.1876 160.099 98.1546 160.408 97.9407C160.719 97.9057 161.094 97.8627 161.458 97.8217C161.909 97.7657 162.284 97.6727 162.379 97.4098C161.985 97.4897 161.655 97.5567 161.315 97.6267C161.257 97.5297 161.208 97.4477 161.159 97.3668C161.789 97.1868 162.213 96.9838 162.339 96.6369C162.012 96.7729 161.799 96.8618 161.605 96.9428C161.44 96.7389 161.452 96.7199 161.97 96.5829C162.206 96.5199 162.526 96.4949 162.576 96.2939C161.783 96.3979 161.03 96.4959 160.271 96.5949C159.58 96.6749 158.888 96.8418 158.215 96.9048C157.404 97.0018 156.612 97.1108 155.872 97.3957C155.323 97.5987 154.82 97.6997 154.255 97.7127C154.294 97.6117 154.331 97.5187 154.375 97.4058C154.279 97.4068 154.182 97.4067 154.068 97.4067C153.611 97.3877 153.148 97.5047 152.709 97.7447C152.548 97.8387 152.274 97.9297 152.066 97.9677C151.622 98.0506 151.186 98.0656 150.743 98.1676C150.375 98.2526 149.988 98.4886 149.644 98.5466C148.646 98.7325 147.622 99.2524 146.652 99.2424C146.562 99.2424 146.414 99.2994 146.296 99.3384C145.676 99.5364 145.085 99.8174 144.472 100.02C143.843 100.238 143.203 100.412 142.537 100.616C142.655 100.32 142.755 100.07 142.848 99.8374C143.024 99.7254 143.179 99.6264 143.32 99.5364C143.499 99.4294 143.697 99.3304 143.867 99.2195C144.353 98.9025 144.432 98.7225 144.289 98.4756C144.188 98.3016 144.164 98.0956 144.09 97.8537C144.071 97.8537 143.98 97.8567 143.854 97.8587C144.11 97.5637 144.73 97.1648 145.16 97.0738C145.853 96.9348 146.511 96.7219 147.174 96.4799C147.56 96.3399 147.965 96.2289 148.362 96.105C147.419 96.6939 146.181 96.9098 145.169 97.3908C145.138 97.4467 145.098 97.4987 145.092 97.5427C145.084 97.6037 145.095 97.6597 145.11 97.7137C145.232 98.1456 146.338 98.1686 147.213 97.7177C147.972 97.3408 148.77 97.1048 149.584 96.9618C150.005 96.8778 150.294 96.7708 150.561 96.6049C150.629 96.059 149.688 96.2949 148.793 96.4409C149.118 96.2259 149.754 96.2319 149.668 95.959C149.394 95.974 149.095 95.99 148.715 96.01C149.769 95.3981 149.107 95.1231 149.001 94.7422C148.675 94.7652 148.54 94.8562 148.578 94.9662C148.608 95.0531 148.732 95.1141 148.793 95.1941C148.953 95.4051 148.83 95.5001 148.259 95.67C147.962 95.771 147.661 95.873 147.324 95.987C147.203 95.917 147.09 95.851 146.998 95.798C147.259 95.683 147.466 95.592 147.631 95.5191C147.472 95.3551 147.346 95.2251 147.224 95.1001C145.928 95.1211 144.528 95.579 143.208 95.968C142.7 96.106 142.144 96.2859 141.687 96.3269C140.723 96.3989 139.945 96.6879 139.349 97.2608C138.45 97.3308 136.717 97.8227 135.909 98.2956C134.969 98.2576 134.903 98.2866 134.384 99.0285C134.295 99.1585 134.109 99.2914 133.839 99.5554C133.805 99.3194 133.857 99.1755 133.759 99.1205C133.672 99.0695 133.428 99.1365 133.252 99.1515C133.219 99.2515 133.136 99.3744 133.166 99.4454C133.212 99.5564 133.335 99.6314 133.484 99.7804C133.071 99.9553 132.759 100.107 132.448 100.215C131.483 100.56 130.453 100.788 129.662 101.541C129.573 101.624 129.366 101.671 129.219 101.746C128.999 101.859 128.782 101.98 128.569 102.105C128.371 102.221 128.181 102.391 127.988 102.462C127.139 102.758 126.318 103.071 125.421 103.407C125.006 103.882 125.008 103.872 124.284 104.179C122.916 104.763 121.929 105.597 121.449 106.595C120.489 107.127 119.586 107.668 118.715 108.262C118.202 108.625 117.752 109.01 117.161 109.021C117.135 109.29 117.117 109.483 117.097 109.691C116.954 109.777 116.829 109.885 116.736 109.903C116.204 110.005 115.763 110.323 115.336 110.718C115.193 110.85 115.026 110.983 114.857 111.082C113.898 111.655 113.398 112.449 112.861 113.222C112.744 113.391 112.626 113.592 112.461 113.715C112.035 114.023 111.607 114.324 111.174 114.611C110.169 115.285 109.116 115.918 108.124 116.623C107.86 116.809 107.597 117.05 107.4 117.295C107.125 117.636 106.887 118.009 107.08 118.308C107.663 117.921 108.197 117.466 108.736 117.237C109.263 117.009 109.8 117.014 110.367 116.922C110.14 117.799 109.437 117.939 108.874 118.252C108.471 118.959 108.135 119.181 107.491 119.138C107.315 119.126 107.155 119.081 106.997 119.038C106.701 118.959 106.354 119.017 106.021 119.282C104.89 120.188 103.713 121.071 102.625 122.042C102.11 122.502 102.086 122.845 102.255 123.351C102.309 123.513 102.325 123.838 102.22 123.935C101.844 124.28 101.652 124.805 101.108 124.994C100.634 125.164 100.504 125.502 100.563 125.878C100.422 125.982 100.274 126.062 100.164 126.177C99.6457 126.717 99.0828 126.963 98.4499 127.054C97.803 127.143 97.1571 127.306 96.4552 127.449C96.5322 127.64 96.6002 127.807 96.6752 127.993C96.0463 128.58 95.6874 129.17 96.0333 129.794C95.7004 129.899 95.4464 129.98 95.3804 130.001C94.8645 130.653 94.5016 131.183 94.0776 131.668C93.3897 132.46 92.9668 133.338 92.5639 134.229C92.3899 134.603 92.2199 134.898 91.829 135.194C91.326 135.577 90.6662 135.9 90.4482 136.624C90.4042 136.773 90.0653 136.973 89.8573 137.033C89.3394 137.183 89.0144 137.526 88.8565 138.002C88.6545 138.618 88.5005 139.236 88.3565 139.859C88.3235 140.006 88.3655 140.151 88.3405 140.3C88.2576 140.804 87.9906 140.992 87.5217 140.89C87.3407 140.857 87.1627 140.824 86.9658 140.788C86.8058 141.265 86.6728 141.66 86.5318 142.079C86.4409 142.374 86.4908 142.613 86.8008 142.678C87.0777 142.736 87.2567 142.593 87.3867 142.316C87.4427 142.197 87.5467 142.091 87.6507 141.949C87.8456 142.248 88.0046 142.493 88.1646 142.737C88.0696 142.321 88.3855 141.977 88.6145 141.616ZM56.2608 146.644C56.0928 146.723 55.9218 146.803 55.7099 146.901C55.4259 146.267 55.9468 146.158 56.2178 145.929C57.1456 146.215 57.9245 146.619 58.8544 146.742C59.3963 146.82 59.9472 147.249 60.4231 147.609C60.5631 147.713 60.5391 148.011 60.5941 148.245C60.1841 148.15 59.8922 148.069 59.5882 148.012C59.5282 148 59.4382 147.999 59.4133 147.964C58.9613 147.351 58.0855 147.438 57.5186 146.946C57.3186 146.769 56.7827 146.892 56.3507 146.875C56.3407 146.851 56.3008 146.748 56.2608 146.644ZM113.86 128.516C113.658 128.834 113.485 129.107 113.259 129.463C113.076 129.441 112.844 129.468 112.699 129.375C112.619 129.324 112.686 129.07 112.687 128.908C113.232 128.789 113.148 128.278 113.48 127.713C113.646 128.065 113.753 128.291 113.86 128.516ZM111.65 116.222C110.91 116.923 110.911 116.923 110.5 116.649C111.277 115.847 111.304 115.839 111.65 116.222ZM94.1466 134.839C93.7877 135.18 93.4717 135.032 93.0768 135.164C93.5397 134.384 93.6647 134.354 94.1466 134.839ZM114.208 126.81L114.138 127.027C114.223 127.207 114.309 127.387 114.411 127.605C113.93 127.544 113.742 127.328 113.923 127.034C114.137 126.684 114.407 126.5 114.66 126.867L114.208 126.81ZM101.41 156.94C101.337 156.69 101.277 156.483 101.186 156.171C101.483 156.121 101.718 156.08 101.954 156.04L102.027 156.23C101.84 156.444 101.654 156.659 101.41 156.94ZM114.972 126.016C115.561 125.568 115.606 125.584 115.565 126.272C115.317 126.166 115.155 126.096 114.972 126.016ZM46.1874 152.643C46.1114 152.664 45.9934 152.562 45.8934 152.516C45.9384 152.423 45.9654 152.263 46.0334 152.249C46.2844 152.191 46.5524 152.2 46.8173 152.198L46.8593 152.407C46.6333 152.492 46.4154 152.573 46.1874 152.643ZM156.922 98.6076C156.731 98.5646 156.59 98.5366 156.358 98.4996C156.667 98.4046 156.877 98.3676 157.281 98.2696C157.108 98.4336 157.032 98.5046 156.922 98.6076ZM72.5001 150.529C72.7801 150.619 73.036 150.701 73.33 150.795C73.254 150.893 73.216 151.003 73.154 151.012C72.94 151.042 72.7171 151.037 72.3631 151.053C72.4251 150.817 72.4531 150.708 72.5001 150.529ZM97.726 127.732C97.673 128.154 97.674 128.154 97.1821 128.351C97.3931 128.11 97.552 127.929 97.726 127.732ZM116.675 124.813C116.664 124.838 116.449 124.872 116.448 124.851C116.443 124.724 116.463 124.583 116.501 124.444C116.506 124.426 116.66 124.396 116.813 124.353C116.758 124.547 116.734 124.683 116.675 124.813ZM70.8784 148.98C71.2083 149.122 71.4273 149.216 71.7762 149.365C71.2193 149.699 71.0244 149.568 70.8784 148.98ZM118.461 122.776L118.611 122.604L118.916 122.82L118.717 123.033L118.461 122.776ZM119.303 122.134L119.147 122.245L118.979 121.918L119.201 121.772L119.303 122.134ZM54.0391 143.277L54.0571 143.445L53.5232 143.443L53.5022 143.272L54.0391 143.277ZM61.5119 148.701L61.4559 148.825L61.011 148.651L61.104 148.472L61.5119 148.701ZM62.4248 149.455C62.4838 149.402 62.6287 149.419 62.7327 149.438C62.7587 149.443 62.8037 149.607 62.7717 149.64C62.7047 149.71 62.5927 149.742 62.4128 149.834C62.4138 149.641 62.3728 149.501 62.4248 149.455ZM89.4294 139.392C89.3574 139.412 89.2794 139.449 89.2154 139.443C89.1844 139.44 89.1494 139.336 89.1674 139.312C89.2144 139.251 89.2904 139.21 89.3934 139.131C89.4104 139.248 89.4194 139.32 89.4294 139.392ZM62.4747 148.314L62.3858 148.389L62.1088 148.143L62.2738 148.046L62.4747 148.314ZM111.794 130.602L111.571 130.471L111.696 130.33L111.794 130.602ZM148.084 96.6559C148.105 96.6179 148.161 96.5759 148.202 96.5359C148.239 96.5439 148.311 96.5459 148.305 96.5609C148.29 96.5989 148.24 96.6429 148.198 96.6909C148.145 96.6759 148.075 96.6709 148.084 96.6559ZM88.9524 140.539C88.9544 140.488 88.9404 140.429 88.9644 140.387C88.9824 140.355 89.0484 140.342 89.0924 140.321L89.0864 140.479L88.9524 140.539Z" fill="#212121"/>
<path d="M67.4595 145.5C66.6825 145.472 66.3515 144.794 65.7395 144.51C65.4735 144.384 65.2395 144.171 65.0405 143.965C64.9665 143.889 65.0405 143.715 65.0465 143.586L65.0335 143.591C65.2655 143.682 65.4925 143.81 65.7305 143.858C66.7855 144.056 67.3855 144.621 67.4735 145.534L67.4595 145.5Z" fill="#212121"/>
<path d="M150.605 95.4029C150.39 95.1459 150.252 94.8669 150.298 94.5309C150.92 94.3689 151.033 94.5289 151.238 94.6039C151.486 94.6949 151.373 94.8299 151.037 95.0119C150.884 95.0949 150.885 95.2269 150.817 95.3369L150.605 95.4029Z" fill="#212121"/>
<path d="M80.9961 193.533C81.0811 193.339 81.1031 193.155 81.1781 193.145C81.2471 193.136 81.3791 193.234 81.4721 193.417C82.1791 194.799 82.8761 196.249 83.5891 197.988C82.7951 197.747 81.8891 195.67 80.9961 193.533Z" fill="#212121"/>
<path d="M100.522 165.969C100.44 166.923 100.373 167.696 100.307 168.467C99.6362 168.784 99.5022 168.608 99.5772 167.698C99.6742 166.519 99.9352 166.068 100.522 165.969Z" fill="#212121"/>
<path d="M153.675 94.6123C153.256 94.7003 152.879 94.7923 152.501 94.8543C152.338 94.8813 152.175 94.8473 152.012 94.8413L152.05 94.7563C152.498 94.6493 152.943 94.5303 153.393 94.4413C153.713 94.3803 153.762 94.4393 153.675 94.6123Z" fill="#212121"/>
<path d="M38.0808 150.372C38.1768 150.294 38.2728 150.216 38.4508 150.07C38.5268 150.607 38.2948 150.976 38.0628 151.455C37.9038 150.983 37.8218 150.662 38.1068 150.344L38.0808 150.372Z" fill="#212121"/>
<path d="M80.1964 191.042C79.3354 189.732 78.4564 188.291 77.7344 186.289C78.5894 187.626 79.4254 188.868 80.1964 191.042Z" fill="#212121"/>
<path d="M69.0938 147.563C69.4798 147.196 69.7958 146.895 70.1118 146.594L70.2808 146.681C70.1338 147.026 69.9868 147.372 69.8268 147.75C69.5788 147.687 69.3537 147.629 69.0938 147.563Z" fill="#212121"/>
<path d="M101.172 163.844C101.388 162.462 101.328 161.672 101.99 160.895C102.076 161.88 101.895 162.59 101.172 163.844Z" fill="#212121"/>
<path d="M97.9102 166.284C98.5812 164.737 98.5861 164.703 98.9091 165.91C98.5801 166.263 98.2942 167.198 97.9102 166.284Z" fill="#212121"/>
<path d="M123.776 125.617C123.456 125.961 123.158 126.331 122.824 126.724C122.582 126.585 122.656 126.357 122.91 126.158C123.182 125.94 123.483 125.788 123.781 125.619L123.776 125.617Z" fill="#212121"/>
<path d="M67.4749 145.532C67.6189 145.323 67.7619 145.113 68.0009 144.766C68.2649 145.112 68.4309 145.344 68.5919 145.581L68.4839 145.754C68.1479 145.659 67.8039 145.577 67.4609 145.497L67.4749 145.532Z" fill="#212121"/>
<path d="M36.7635 150.738C36.6885 150.882 36.6125 151.026 36.5155 151.214C36.2475 151.001 36.1115 150.828 36.4155 150.547C36.5395 150.625 36.6445 150.691 36.7505 150.757L36.7635 150.738Z" fill="#212121"/>
<path d="M61.9041 163.096C61.4771 163.132 61.2051 163.154 60.9141 163.179C61.2971 162.655 61.3271 162.65 61.9041 163.096Z" fill="#212121"/>
<path d="M83.354 147.605C83.189 147.457 83.071 147.347 83.053 147.298C83.049 147.286 83.05 147.277 83.06 147.272C83.074 147.263 83.141 147.22 83.191 147.202C83.303 147.156 83.446 147.129 83.627 147.121C83.477 147.299 83.305 147.488 83.358 147.485C83.356 147.529 83.355 147.567 83.354 147.605Z" fill="#212121"/>
<path d="M96.3022 170.508L95.7092 171.734L95.5742 171.551L96.1312 170.215L96.3022 170.508Z" fill="#212121"/>
<path d="M65.0484 143.585C64.6904 143.627 64.3444 143.657 63.9414 143.714C64.2564 143.295 64.2614 143.287 65.0304 143.591L65.0484 143.585Z" fill="#212121"/>
<path d="M76.1679 182.793L76.7439 183.961L76.6359 184.286L76.0859 183.074L76.1679 182.793Z" fill="#212121"/>
<path d="M51.1908 142.973C51.0228 143.018 50.8538 143.063 50.6958 143.106C50.6908 143.107 50.6128 142.988 50.6218 142.984C50.7678 142.912 50.9228 142.85 51.0778 142.785L51.1908 142.973Z" fill="#212121"/>
<path d="M94.4375 175.229C94.6495 174.718 94.8465 174.12 95.2285 174.393C94.9685 175.204 94.6905 175.027 94.4455 175.162C94.4445 175.167 94.4375 175.229 94.4375 175.229Z" fill="#212121"/>
<path d="M161.617 98.6071C161.757 98.5721 161.899 98.5371 162.032 98.5041C162.044 98.5011 162.073 98.5341 162.095 98.5501L161.683 98.6741L161.617 98.6071Z" fill="#212121"/>
<path d="M36.7461 150.758C36.8991 150.702 37.0521 150.646 37.2631 150.57C37.0701 150.891 37.0741 150.886 36.7611 150.739L36.7461 150.758Z" fill="#212121"/>
<path d="M70.4801 147.682C70.4121 147.433 70.3522 147.189 70.8112 147.195C70.9272 147.515 70.6402 147.571 70.4512 147.684L70.4801 147.682Z" fill="#212121"/>
<path d="M163.258 97.1062C163.302 97.0722 163.335 97.0352 163.354 97.0342C163.43 97.0282 163.502 97.0332 163.576 97.0332C163.55 97.0532 163.524 97.0882 163.497 97.0922C163.422 97.1032 163.345 97.1012 163.258 97.1062Z" fill="#212121"/>
<path d="M83.9434 148.09L83.7734 148.248L83.6484 148.15L83.9494 148.1L83.9434 148.09Z" fill="#212121"/>
<path d="M38.08 150.37L38.105 150.343L37.75 150.258L37.831 150.176L38.08 150.37Z" fill="#212121"/>
<path d="M65.8846 145.595C65.8486 145.486 65.7786 145.368 65.8076 145.344C65.8736 145.289 65.9896 145.281 66.0856 145.254C66.1056 145.333 66.1636 145.429 66.1346 145.485C66.1076 145.538 65.9926 145.551 65.8846 145.595Z" fill="#212121"/>
<path d="M67.6188 146.266L67.5088 146.667C67.4528 146.635 67.3408 146.595 67.3438 146.579C67.3658 146.455 67.4098 146.336 67.4468 146.215L67.6188 146.266Z" fill="#212121"/>
<path d="M144.559 98.1445L144.853 98.1895L144.756 98.2695L144.461 98.2245L144.559 98.1445Z" fill="#212121"/>
</svg>
