<svg width="257" height="212" viewBox="0 0 257 212" fill="none" xmlns="http://www.w3.org/2000/svg">
<path d="M185.836 170.434H202.675C200.801 173.326 198.783 176.114 196.596 178.762H179.756H59.5742C57.3867 176.114 55.3686 173.326 53.4948 170.434H185.836ZM128.085 33.3555C125.244 33.3555 122.438 33.5027 119.665 33.7639C74.5489 38.0068 39.2422 75.973 39.2422 122.198C39.2422 130.78 40.4827 139.067 42.7539 146.916H196.576H213.416C215.686 139.066 216.928 130.779 216.928 122.198C216.928 73.132 177.151 33.3555 128.085 33.3555ZM66.6652 186.355C80.7201 199.814 99.1763 208.705 119.665 210.636C122.437 210.898 125.244 211.04 128.085 211.04C151.922 211.04 173.548 201.634 189.505 186.355H172.665H66.6652ZM45.3297 154.511C46.4441 157.362 47.6998 160.14 49.0915 162.839H190.239H207.078C208.47 160.14 209.726 157.362 210.84 154.511H194.001H45.3297Z" fill="#FF3135"/>
<path d="M230.329 0.805281L21.4062 148.723L25.7942 154.92L234.717 7.00295L230.329 0.805281Z" fill="#630000"/>
<path d="M256.082 115.957H0.0820312V123.551H256.082V115.957Z" fill="#630000"/>
</svg>
