<svg width="233" height="257" viewBox="0 0 233 257" fill="none" xmlns="http://www.w3.org/2000/svg">
<path d="M232.398 101.868C227.706 93.3376 219.923 82.2106 213.843 74.1007C196.221 87.5673 176.319 84.6242 154.191 78.2704C172.297 77.4563 187.975 64.0702 190.994 45.4709C194.454 24.1569 179.975 4.07285 158.661 0.612438C137.346 -2.84687 117.263 11.628 113.802 32.942C110.341 54.2593 124.814 74.3434 146.129 77.8027C146.211 77.817 146.292 77.8236 146.374 77.8358C151.243 90.8721 145.441 104.124 140.703 112.135C140.163 94.2862 134.889 73.462 110.416 65.8892C109.313 65.5484 108.234 65.2219 107.163 64.9031C79.4716 59.2078 49.1034 59.8774 16.1241 84.4301C18.3502 92.8632 21.1885 105.852 23.9991 114.604C46.8608 105.644 60.3825 108.347 74.8044 120.662C65.2957 158.633 58.7599 177.311 7.317 170.406C5.75281 179.205 2.50752 193.267 0.015625 202.138C43.1401 218.868 90.8589 219.475 117.507 197.963C138.274 207.577 160.382 213.342 161.359 256.102C174.509 256.102 186.407 256.102 203.921 256.102C207.052 176.615 177.023 159.052 144.326 135.06C162.437 139.559 202.887 144.566 232.398 101.868Z" fill="url(#paint0_linear_30_44)"/>
<defs>
<linearGradient id="paint0_linear_30_44" x1="368.855" y1="-83.4114" x2="-221.91" y2="495.585" gradientUnits="userSpaceOnUse">
<stop stop-color="#00F2FF"/>
<stop offset="1" stop-color="#0094FF"/>
</linearGradient>
</defs>
</svg>
