<svg width="257" height="222" viewBox="0 0 257 222" fill="none" xmlns="http://www.w3.org/2000/svg">
<path d="M256.117 110.866C256.117 49.8696 206.67 0.421875 145.673 0.421875C96.4313 0.421875 54.7222 32.6503 40.4727 77.163C134.407 90.8339 240.132 144.424 249.302 149.14C253.708 137.215 256.117 124.323 256.117 110.866ZM238.726 130.363C211.898 117.173 141.042 84.4514 69.3714 69.0846C77.1837 59.6407 86.9211 51.5465 86.9211 51.5465C143.812 64.5788 239.556 126.121 239.556 126.121C239.355 127.59 239.064 129.016 238.726 130.363ZM119.323 48.4936C125.745 42.4456 132.792 39.8566 132.792 39.8566C179.408 57.1495 241.31 107.396 241.31 107.396C241.21 109.317 241.041 111.054 240.847 112.591C228.408 104.719 169.456 68.0926 119.323 48.4936Z" fill="#FF8450"/>
<path d="M155.757 211.187L194.406 209.994C204.88 204.834 214.414 198.06 222.691 190.002L140.461 188.044L226.608 185.993C231.969 180.219 236.728 173.879 240.767 167.059H50.582C52.0443 169.528 53.6108 171.926 55.254 174.266L183.73 176.471L58.4595 178.621C63.9363 185.66 70.2526 192.01 77.2474 197.541L126.386 199.614L82.5264 201.466C100.423 213.966 122.187 221.31 145.673 221.31C161.272 221.31 176.106 218.064 189.559 212.231L155.757 211.187Z" fill="#00CCFF"/>
<path d="M65.0094 117.612C39.556 113.493 21.4519 112.174 11.9648 111.754C19.5719 129.234 31.668 149.876 50.5442 167.059H240.771C241.008 166.659 241.231 166.252 241.462 165.849C162.273 136.772 101.814 123.567 65.0094 117.612Z" fill="#123960"/>
<path d="M249.302 149.138C238.782 143.729 101.202 73.9961 0.117188 73.9961C0.117188 73.9961 2.3748 88.354 10.1471 107.467C19.8698 107.819 38.6545 109.083 65.6754 113.456C102.93 119.485 163.864 132.827 243.519 162.121C245.714 157.944 247.65 153.61 249.302 149.138ZM56.544 96.2735C56.3914 96.5365 56.12 96.6943 55.8149 96.6943L55.7118 96.7017C55.3499 100.479 52.2065 103.329 48.4014 103.329C44.5963 103.329 41.4528 100.481 41.0794 96.6943H40.9658C40.6617 96.6943 40.3893 96.5365 40.2367 96.2735C40.0842 96.0105 40.0842 95.6959 40.2367 95.4319L41.2172 93.7339C41.3697 93.4709 41.6412 93.3131 41.9462 93.3131C42.2503 93.3131 42.5227 93.4699 42.6753 93.7339L43.6558 95.4329C43.8083 95.6959 43.8083 96.0105 43.6558 96.2746C43.5032 96.5376 43.2318 96.6954 42.912 96.7038C43.2276 98.8499 44.995 100.423 47.4683 100.802V92.5936H45.2717L44.8929 93.129C44.773 93.2984 44.5868 93.3952 44.3817 93.3952C44.0334 93.3952 43.7504 93.1133 43.7504 92.7661V90.6999C43.7504 90.3528 44.0334 90.0708 44.3817 90.0708C44.5868 90.0708 44.773 90.1676 44.8929 90.337L45.2706 90.8725H47.4672V89.1977C46.4362 88.8137 45.7419 87.8322 45.7419 86.7097C45.7419 86.0006 46.0186 85.3326 46.5214 84.8297C47.0243 84.3269 47.6923 84.0502 48.4014 84.0502C48.5655 84.0502 48.7338 84.0649 48.9043 84.0965C49.9826 84.2963 50.8326 85.1579 51.0199 86.2405C51.2408 87.5165 50.5149 88.7548 49.3345 89.1977V90.8725H51.5311L51.9088 90.337C52.0287 90.1676 52.2149 90.0708 52.4201 90.0708C52.7683 90.0708 53.0513 90.3528 53.0513 90.6999V92.7661C53.0513 93.1133 52.7683 93.3952 52.4201 93.3952C52.2149 93.3952 52.0287 93.2984 51.9088 93.129L51.5301 92.5936H49.3335V100.802C51.8057 100.423 53.571 98.8488 53.8519 96.6954C53.5478 96.6954 53.2754 96.5376 53.1228 96.2746C52.9703 96.0116 52.9703 95.697 53.1228 95.4329L54.1033 93.735C54.2548 93.472 54.5273 93.3142 54.8313 93.3142C55.1353 93.3142 55.4078 93.4709 55.5603 93.735L56.5408 95.4329C56.6965 95.6959 56.6965 96.0105 56.544 96.2735ZM92.8868 110.321C88.6556 110.321 85.226 106.891 85.226 102.66C85.226 98.4291 88.6556 94.9995 92.8868 94.9995C97.118 94.9995 100.548 98.4291 100.548 102.66C100.548 106.891 97.118 110.321 92.8868 110.321ZM132.991 114.82C131.759 118.231 127.995 119.997 124.583 118.764C121.172 117.533 119.406 113.768 120.639 110.358C121.871 106.947 125.635 105.181 129.045 106.414C132.457 107.646 134.223 111.41 132.991 114.82ZM163.702 123.728C162.675 126.57 159.538 128.042 156.697 127.014C153.854 125.988 152.382 122.85 153.41 120.009C154.437 117.166 157.574 115.695 160.417 116.721C163.258 117.749 164.73 120.886 163.702 123.728ZM192.224 134.844C191.402 137.118 188.893 138.296 186.62 137.473C184.347 136.652 183.168 134.143 183.99 131.869C184.812 129.596 187.321 128.418 189.595 129.239C191.869 130.062 193.046 132.571 192.224 134.844ZM214.354 148.565C212.649 147.948 211.766 146.067 212.382 144.362C212.998 142.657 214.88 141.774 216.586 142.39C218.291 143.006 219.173 144.888 218.558 146.593C217.942 148.298 216.06 149.181 214.354 148.565Z" fill="#123960"/>
<path d="M48.3986 87.8705C49.0383 87.8705 49.559 87.3497 49.559 86.7111C49.559 86.0705 49.0383 85.5508 48.3986 85.5508C47.759 85.5508 47.2383 86.0715 47.2383 86.7111C47.2393 87.3497 47.7601 87.8705 48.3986 87.8705Z" fill="#123960"/>
</svg>
