<svg width="257" height="249" viewBox="0 0 257 249" fill="none" xmlns="http://www.w3.org/2000/svg">
<path d="M220.275 207.264C214.743 213.384 208.623 218.916 201.976 223.845H201.96C201.252 223.604 200.286 223.287 199.111 222.956C196.427 222.172 192.584 221.193 187.912 220.439C185.575 220.062 183.043 219.7 180.36 219.444C179.018 219.309 177.631 219.187 176.214 219.127C174.797 219.022 173.35 218.976 171.888 218.947C170.426 218.886 168.919 218.917 167.412 218.931C165.904 218.931 164.382 219.022 162.844 219.097C162.06 219.157 161.322 219.157 160.507 219.248L158.231 219.459C156.709 219.58 155.126 219.821 153.573 220.001C147.409 220.815 141.349 222.006 135.696 223.152C130.044 224.298 124.782 225.413 120.245 226.212C117.984 226.603 115.903 226.92 114.049 227.161C112.195 227.387 110.582 227.569 109.24 227.629C107.899 227.734 106.844 227.734 106.12 227.734C105.396 227.749 105.019 227.749 105.019 227.749C105.019 227.749 105.396 227.779 106.12 227.809C106.844 227.854 107.899 227.93 109.24 227.914C110.597 227.944 112.225 227.869 114.109 227.779C115.978 227.658 118.088 227.478 120.394 227.237C124.991 226.74 130.328 225.97 136.041 225.202C141.754 224.448 147.828 223.68 153.903 223.288C155.425 223.213 156.888 223.092 158.441 223.062L160.732 223.001C161.425 222.971 162.21 223.001 162.948 223.001C164.425 223.017 165.903 223.017 167.365 223.107C168.812 223.167 170.244 223.243 171.661 223.378C173.063 223.483 174.45 223.619 175.791 223.8C177.147 223.936 178.459 224.132 179.741 224.342C182.288 224.718 184.685 225.216 186.871 225.699C190.398 226.498 193.398 227.387 195.703 228.171C176.319 240.743 153.196 248.038 128.37 248.038C94.9062 248.038 64.563 234.788 42.2543 213.263C43.7763 212.751 45.48 212.223 47.3485 211.651C50.2732 210.806 53.604 209.901 57.2825 209.072C60.9753 208.243 64.9848 207.43 69.2654 206.781C71.4063 206.434 73.607 206.102 75.8829 205.861C77.0131 205.726 78.1588 205.59 79.3045 205.454C80.4657 205.349 81.6414 205.258 82.817 205.153C85.1837 204.927 87.5957 204.806 90.0222 204.715C92.4642 204.549 94.936 204.549 97.4378 204.535C98.6743 204.535 99.9705 204.49 101.162 204.535C102.442 204.565 103.724 204.595 105.005 204.64C107.583 204.67 110.055 204.881 112.602 205.002C117.696 205.349 122.807 205.816 127.826 206.389C132.845 206.947 137.79 207.58 142.583 208.228C147.377 208.876 152.005 209.51 156.391 210.097C160.792 210.685 164.967 211.198 168.826 211.62C170.756 211.815 172.61 211.996 174.373 212.162C176.137 212.297 177.81 212.419 179.378 212.538C182.528 212.689 185.271 212.825 187.533 212.78C189.794 212.809 191.572 212.674 192.779 212.599C193.984 212.538 194.633 212.494 194.633 212.494C194.633 212.494 193.984 212.494 192.779 212.479C191.573 212.479 189.794 212.479 187.548 212.298C185.302 212.193 182.589 211.876 179.469 211.514C177.916 211.303 176.273 211.062 174.525 210.821C172.791 210.535 170.967 210.234 169.069 209.917C165.27 209.224 161.155 208.44 156.829 207.566C152.473 206.677 147.89 205.741 143.157 204.777C138.409 203.813 133.495 202.832 128.475 201.928C123.455 201.008 118.315 200.194 113.146 199.486C110.553 199.199 107.9 198.807 105.353 198.582C104.086 198.476 102.805 198.356 101.524 198.235C100.166 198.085 98.9156 198.085 97.6193 197.994C95.0423 197.858 92.4797 197.707 89.9469 197.707C87.3998 197.662 84.8969 197.632 82.4406 197.737C81.2041 197.767 79.9831 197.797 78.7621 197.828C77.5566 197.888 76.3655 197.963 75.1744 198.024C72.7922 198.144 70.4864 198.34 68.226 198.566C63.7184 198.988 59.4687 199.591 55.549 200.224C51.6303 200.873 48.057 201.611 44.9066 202.32C41.7561 203.074 39.0131 203.782 36.767 204.445C35.9534 204.671 35.2139 204.898 34.5365 205.108C28.1603 197.737 22.6432 189.613 18.1367 180.87C23.7889 179.574 31.4469 178.715 41.817 178.715C86.1489 178.715 151.448 194.633 182.831 202.29L184.111 202.607C196.834 205.712 208.32 207.279 218.268 207.279C218.949 207.278 219.612 207.278 220.275 207.264Z" fill="url(#paint0_linear_30_38)"/>
<path d="M249.304 151.412C247.676 158.696 245.385 165.736 242.518 172.489C228.138 172.123 208.268 166.577 185.421 160.201C185.155 160.135 184.867 160.057 184.579 159.969L234.149 158.452L160.669 153.449C155.366 152.065 149.986 150.715 144.54 149.464H144.529C121.836 110.543 111.94 16.9151 111.94 16.9151C74.2808 61.0279 72.5207 129.892 72.4875 141.106C71.0374 141.161 69.6094 141.228 68.2146 141.316C68.6574 62.4227 104.977 19.6493 107.257 17.0369C65.8124 57.2863 60.2333 132.571 59.6798 142.036C35.2712 144.693 19.4969 151.988 9.47879 159.327C6.16895 148.146 4.38672 136.313 4.38672 124.059C4.38672 117.439 4.89592 110.93 5.92541 104.587L41.2156 103.513L6.5121 101.144C9.10241 87.2077 14.0506 74.0901 20.8916 62.2123L73.4063 60.6183L23.9247 57.242C45.9645 22.8596 84.4981 0.078125 128.367 0.078125C153.783 0.078125 177.406 7.71621 197.055 20.8338C186.66 24.1658 187.092 36.0878 188.088 42.3422C183.339 36.0325 171.949 24.365 153.241 25.8816C121.46 28.4719 127.039 65.4668 127.039 65.4668C127.039 65.4668 129.275 60.6404 133.858 55.0502C133.039 52.6813 131.821 47.3789 133.072 41.4456C133.072 41.4456 133.459 50.2017 134.865 53.8104C136.592 51.8068 138.629 49.7478 140.942 47.7996C140.533 44.9989 139.448 38.335 141.275 33.2429C141.275 33.2429 140.577 41.5563 142.249 46.7258C146.278 43.582 151.127 40.8478 156.827 39.3645C172.624 35.2244 182.387 41.4456 185.885 44.3348C180.207 42.5968 170.454 41.2131 161.908 48.0542C146.201 60.6294 153.617 86.2889 153.617 86.2889C153.617 86.2889 154.99 77.0789 160.801 67.1826C159.739 65.7878 157.835 62.788 156.827 58.4265C156.827 58.4265 158.92 63.1643 161.543 65.9539C162.705 64.0831 164.045 62.2013 165.573 60.3526C164.288 58.9136 161.776 55.8473 160.547 52.8916C160.802 53.1795 164.3 57.0871 166.513 59.2235C167.953 57.5963 169.513 56.0133 171.262 54.5189C174.295 51.9286 177.417 50.4231 180.24 49.5486C178.491 51.1758 176.93 53.744 175.967 57.7402C171.03 78.2634 187.457 97.0265 187.457 97.0265C187.457 97.0265 186.129 86.8756 186.04 75.4738C183.76 73.8466 179.531 70.6806 177.174 68.0129C177.539 68.2675 182.576 71.8319 186.029 73.6805C186.051 64.382 186.97 54.5742 190.125 48.9287C191.376 50.3788 193.49 52.9913 196.092 56.766C195.793 57.0871 195.627 57.2974 195.627 57.2974C198.627 61.3046 202.501 67.2048 202.966 67.9243C202.977 67.9575 202.999 67.9686 203.01 68.0018C202.534 68.4667 202.246 68.7656 202.246 68.7656C205.744 74.4775 209.508 81.3961 209.951 82.2042C209.962 82.2263 209.973 82.2595 209.995 82.2706C209.309 82.7687 208.955 83.1008 208.955 83.1008C210.372 85.2262 214.888 95.5985 215.464 96.8937C215.464 96.9269 215.464 96.938 215.475 96.9712C214.844 97.2479 214.467 97.425 214.467 97.425C216.106 101.222 219.216 110.797 219.648 112.137C219.67 112.192 219.681 112.258 219.703 112.314C219.039 112.524 218.63 112.668 218.63 112.668C219.67 115.557 222.316 126.926 222.67 128.442C222.67 128.509 222.681 128.564 222.703 128.631L221.729 128.774C222.515 132.073 224.098 143.951 224.342 145.744C224.342 145.844 224.353 145.91 224.353 146.01L177.24 149.231L249.304 151.412Z" fill="url(#paint1_linear_30_38)"/>
<path d="M252.354 124.059C252.354 130.917 251.796 137.655 250.711 144.212L238.064 145.071C238.094 144.784 238.109 144.438 238.109 144.016C238.109 139.298 236.617 126.606 236.617 126.606L235.637 126.741C235.396 123.877 232.669 109.647 232.669 109.647C232.322 109.647 231.96 109.662 231.584 109.692C230.483 104.824 227.137 93.6545 227.137 93.6545C226.775 93.6844 226.413 93.7298 226.067 93.7752C224.319 87.6702 219.585 78.2046 219.585 78.2046C219.253 78.2654 218.952 78.3252 218.635 78.4005V78.385C217.626 75.8522 215.471 72.2501 213.556 69.2658C211.656 66.2969 209.998 63.9601 209.998 63.9601C209.711 64.0209 209.425 64.0962 209.139 64.1859C208.31 62.8442 206.154 60.1609 204.225 57.8097C202.28 55.4585 200.546 53.4538 200.546 53.4538C200.275 53.5745 200.018 53.7106 199.763 53.8457C197.185 51.3882 194.442 49.0525 191.503 46.8662C197.744 44.0778 203.305 47.5747 207.797 52.9712C208.25 51.2531 208.897 48.6595 209.018 47.3788C209.018 47.3788 209.335 50.6653 208.626 54.0117C209.877 55.6401 211.053 57.388 212.108 59.1824C212.108 59.1824 213.359 52.6402 213.163 49.9425C213.163 49.9425 213.766 54.6305 212.832 60.4189C213.721 61.9863 214.52 63.5394 215.244 65.0316C215.244 65.0316 216.269 59.2433 216.178 56.4703C216.178 56.4703 216.706 61.5203 215.847 66.3135C218.198 71.348 219.494 75.3275 219.494 75.3275C219.494 75.3275 221.077 50.6975 210.782 41.276C199.537 30.9657 192.528 41.7277 191.473 43.5066C192.347 39.1651 194.518 36.0456 196.778 34.4173C198.572 33.1365 200.336 32.3671 202.039 31.9908C200.877 30.6037 198.873 28.3577 197.291 27.1367C198.015 27.6039 201.15 29.6695 203.501 31.7639C209.44 31.1915 214.49 35.0194 216.916 37.2954C217.021 37.3861 217.112 37.4758 217.203 37.5666C217.294 37.6419 217.369 37.7326 217.444 37.8079C217.579 37.9585 217.716 38.0946 217.866 38.2452C217.927 38.3049 217.987 38.3658 218.032 38.4256C218.213 38.5916 218.319 38.7267 218.394 38.802L218.424 38.8473H218.44V38.8628C239.451 61.0653 252.354 91.062 252.354 124.059Z" fill="url(#paint2_linear_30_38)"/>
<path d="M0.367188 180.711C0.367188 180.711 13.0542 147.776 82.3925 148.528C151.731 149.282 225.466 188.625 256.367 178.325C256.367 178.325 252.348 211.486 185.898 195.282C141.84 184.539 28.5041 156.594 0.367188 180.711Z" fill="url(#paint3_linear_30_38)"/>
<path d="M137.351 16.5267C137.351 16.5267 136.942 15.0201 134.083 13.9718C131.224 12.9235 126.044 9.77084 125.445 8.83435C124.847 7.89785 123.197 6.47207 122.952 6.04811C122.708 5.62524 122.299 6.96689 123.34 8.30632C124.38 9.64576 125.58 11.0693 126.025 11.9715C126.47 12.8737 128.44 15.9156 131.624 16.7292C134.809 17.5429 136.36 18.0299 136.301 18.4351C136.245 18.8413 135.708 19.4469 135.006 19.4214C134.303 19.3959 132.412 18.9952 132.305 19.4059C132.199 19.8166 133.744 23.1021 136.031 23.4618C138.317 23.8205 140.548 22.687 140.812 22.3582C141.078 22.0305 139.174 21.9818 139.348 21.2634C139.521 20.5461 140.542 20.7376 141.034 20.1863C141.525 19.6339 143.079 19.6705 143.474 19.6284C143.87 19.5863 143.241 19.303 143.241 19.303C143.241 19.303 146.469 19.1092 147.814 19.0672C149.159 19.0251 152.255 18.0499 153.22 18.1982C154.185 18.3465 161.834 16.6385 162.081 15.9688C162.238 15.5481 160.89 16.0485 159.67 16.3219C158.451 16.5964 154.451 17.068 152.862 16.685C151.272 16.3031 148.985 15.9444 147.986 15.9488C146.988 15.9544 144.2 17.0016 143.078 17.2695C141.957 17.5385 141.314 17.606 141.314 17.606C141.314 17.606 140.483 16.8433 139.81 16.6152C139.136 16.3883 137.351 16.5267 137.351 16.5267Z" fill="white"/>
<path d="M182.074 111.036C182.074 111.036 181.69 110.543 181.208 110.663C180.728 110.783 180.403 110.951 180.116 110.928C179.827 110.903 178.65 110.663 178.265 109.486C177.881 108.308 178.409 106.483 177.424 106.075C176.438 105.666 173.723 105.137 170.623 105.45C167.524 105.762 167.259 105.691 168.245 106.411C169.23 107.132 170.816 107.349 171.344 107.349C171.873 107.349 173.026 107.469 173.483 107.854C173.939 108.238 174.198 109.127 174.897 110.401C175.597 111.675 176.462 113.068 176.414 113.5C176.366 113.933 175.813 114.461 175.189 114.678C174.564 114.894 174.035 115.015 174.156 115.23C174.276 115.446 174.948 115.735 175.237 115.951C175.526 116.167 175.91 116.528 176.079 116.288C176.247 116.047 176.631 115.278 177.353 115.062C178.073 114.846 178.482 114.941 179.66 114.27C180.837 113.596 181.579 112.511 181.723 112.342C181.867 112.174 182.351 112.467 182.591 112.755C182.831 113.044 183.168 113.812 183.841 114.317C184.514 114.822 184.73 115.711 185.234 115.855C185.739 115.999 185.546 113.812 185.523 112.731C185.499 111.649 185.403 111.121 185.043 110.592C184.683 110.064 184.275 109.943 183.961 110.159C183.648 110.375 182.458 111.012 182.074 111.036Z" fill="white"/>
<defs>
<linearGradient id="paint0_linear_30_38" x1="-1.26226" y1="213.376" x2="258.24" y2="213.376" gradientUnits="userSpaceOnUse">
<stop stop-color="#2EA1E5"/>
<stop offset="1" stop-color="#57C0F0"/>
</linearGradient>
<linearGradient id="paint1_linear_30_38" x1="4.38672" y1="86.283" x2="249.304" y2="86.283" gradientUnits="userSpaceOnUse">
<stop stop-color="#FEA12A"/>
<stop offset="1" stop-color="#FECD2A"/>
</linearGradient>
<linearGradient id="paint2_linear_30_38" x1="191.471" y1="86.1028" x2="252.354" y2="86.1028" gradientUnits="userSpaceOnUse">
<stop stop-color="#FEA12A"/>
<stop offset="1" stop-color="#FECD2A"/>
</linearGradient>
<linearGradient id="paint3_linear_30_38" x1="-1.26604" y1="174.129" x2="258.236" y2="174.129" gradientUnits="userSpaceOnUse">
<stop stop-color="#2EA1E5"/>
<stop offset="1" stop-color="#57C0F0"/>
</linearGradient>
</defs>
</svg>
