<svg width="238" height="256" viewBox="0 0 238 256" fill="none" xmlns="http://www.w3.org/2000/svg">
<path d="M237.793 139.266L220.657 130.023C218.996 106.967 209.597 86.0409 195.109 69.7878L197.446 61.843L189.657 64.1797C184.62 59.3506 179.012 54.9887 173.041 51.25C172.729 55.508 171.95 59.5583 170.756 63.5047C194.123 79.7577 209.441 106.863 209.441 137.5C209.441 187.298 169.094 227.645 119.296 227.645C69.4988 227.645 29.1518 187.298 29.1518 137.5C29.1518 106.863 44.4701 79.7577 67.8371 63.5047C66.6428 59.5583 65.8639 55.508 65.5523 51.25C60.5674 54.3656 55.9459 57.8447 51.5841 61.7392L43.6393 59.3506L45.976 67.1395C30.8653 82.8733 20.7916 103.436 18.2991 126.284L0.799805 135.735L17.9356 145.03C19.5973 168.085 28.996 189.011 43.4835 205.213L41.1468 213.157L48.9358 210.872C64.6696 225.931 85.2325 236.005 108.08 238.549L117.531 255.997L126.774 238.861C149.881 237.199 170.756 227.801 187.009 213.313L194.954 215.702L192.617 207.861C207.728 192.179 217.801 171.616 220.294 148.716L237.793 139.266Z" fill="url(#paint0_linear_30_37)"/>
<path fill-rule="evenodd" clip-rule="evenodd" d="M206.17 146.124C201.808 190.314 164.577 224.793 119.297 224.793C93.3333 224.793 70.0702 213.473 54.0768 195.506L77.4957 168.92L76.613 175.151L71.7838 182.317L80.0921 174.58L80.9748 165.389L89.2831 155.679L107.613 164.974L84.8693 147.267L46.0282 184.965C44.9896 183.338 44.003 181.694 43.0684 180.032L84.8693 139.27L119.297 167.362L169.821 113.047L206.17 146.124ZM155.801 205.84L119.297 173.645L128.228 187.146L111.56 196.078L134.823 193.17L155.801 205.84ZM159.176 168.92L156.476 145.553L170.081 120.68L123.555 170.841L142.664 187.51L150.505 194.52L145.883 183.927L159.176 168.92ZM201.756 149.603L172.314 122.03L161.98 140.412L173.197 129.923L201.756 149.603Z" fill="url(#paint1_linear_30_37)"/>
<path d="M57.2961 161.44L41.3027 176.707C37.0447 168.243 34.0849 159 32.7867 149.238L48.7801 157.598L32.0597 139.683C32.0251 138.956 32.0078 138.229 32.0078 137.502C32.0078 136.602 32.0251 135.685 32.0597 134.75L57.2961 161.44Z" fill="url(#paint2_linear_30_37)"/>
<path d="M129.422 132.928C129.422 138.536 124.905 143.053 119.297 143.053C113.689 143.053 109.171 138.536 109.171 132.928C109.171 127.32 113.689 122.75 119.297 122.75C124.905 122.75 129.422 127.32 129.422 132.928Z" fill="url(#paint3_linear_30_37)"/>
<path fill-rule="evenodd" clip-rule="evenodd" d="M166.654 47.3571C166.654 53.8479 165.356 60.0272 163.019 65.6353C160.682 71.2434 157.255 76.3322 153.049 80.5902L120.491 114.135C119.868 114.862 118.725 114.862 118.102 114.135L85.5442 80.5902C77.1321 72.0223 71.9395 60.3388 71.9395 47.3571C71.9395 21.1861 93.1255 0 119.297 0C145.468 0 166.654 21.1861 166.654 47.3571ZM154.607 47.3571C154.607 27.8846 138.821 12.047 119.297 12.047C99.7721 12.047 83.9864 27.8846 83.9864 47.3571C83.9864 66.8815 99.7721 82.6672 119.297 82.6672C138.821 82.6672 154.607 66.8815 154.607 47.3571Z" fill="url(#paint4_linear_30_37)"/>
<defs>
<linearGradient id="paint0_linear_30_37" x1="0.436837" y1="51.2516" x2="240.014" y2="51.2516" gradientUnits="userSpaceOnUse">
<stop stop-color="#0095F3"/>
<stop offset="1" stop-color="#00FEF0"/>
</linearGradient>
<linearGradient id="paint1_linear_30_37" x1="0.437106" y1="113.028" x2="240.014" y2="113.028" gradientUnits="userSpaceOnUse">
<stop stop-color="#0095F3"/>
<stop offset="1" stop-color="#00FEF0"/>
</linearGradient>
<linearGradient id="paint2_linear_30_37" x1="0.436921" y1="134.731" x2="240.014" y2="134.731" gradientUnits="userSpaceOnUse">
<stop stop-color="#0095F3"/>
<stop offset="1" stop-color="#00FEF0"/>
</linearGradient>
<linearGradient id="paint3_linear_30_37" x1="0.43701" y1="122.775" x2="240.014" y2="122.775" gradientUnits="userSpaceOnUse">
<stop stop-color="#0095F3"/>
<stop offset="1" stop-color="#00FEF0"/>
</linearGradient>
<linearGradient id="paint4_linear_30_37" x1="0.436965" y1="0" x2="240.014" y2="0" gradientUnits="userSpaceOnUse">
<stop stop-color="#0095F3"/>
<stop offset="1" stop-color="#00FEF0"/>
</linearGradient>
</defs>
</svg>
