<svg width="257" height="248" viewBox="0 0 257 248" fill="none" xmlns="http://www.w3.org/2000/svg">
<g style="mix-blend-mode:multiply" opacity="0.54">
<path d="M230.04 49.3771C204.349 17.2373 157.544 11.9326 125.508 37.6237C93.3682 63.2107 88.0636 110.016 113.651 142.156C115.731 144.722 117.95 147.114 120.307 149.333C120.932 137.788 121.14 127.386 121.14 120.001C121.14 119.932 121.14 119.863 121.14 119.793C121.452 101.799 113.027 95.1425 100.025 94.6224C100.025 94.6224 108.034 88.1737 122.492 89.3178C128.42 89.8379 135.181 94.2064 135.909 101.591C136.221 105.128 136.637 119.689 136.637 124.994C136.741 134.875 137.157 148.085 138.406 162.23C163.577 174.816 194.78 172.632 218.183 153.909C250.323 128.322 255.628 81.5169 230.04 49.3771Z" fill="#96FF06"/>
</g>
<g style="mix-blend-mode:multiply" opacity="0.54">
<path d="M136.636 124.991C136.948 152.971 139.757 207.785 156.087 233.58C162.535 227.547 167.944 220.267 172.104 211.738C189.891 174.813 174.289 130.296 137.364 112.51C137.018 112.371 136.671 112.232 136.324 112.094C136.532 116.982 136.636 122.183 136.636 124.991Z" fill="#6C00BE"/>
</g>
<g style="mix-blend-mode:multiply" opacity="0.54">
<path d="M74.541 246.896C75.5812 247.104 77.2454 247.624 78.4935 247.728C117.394 250.432 121.035 154.533 121.139 120.001C121.139 119.932 121.139 119.862 121.139 119.793C121.243 114.384 120.514 110.016 119.162 106.479C86.7105 100.238 53.0105 116.152 38.0327 147.252C22.1188 180.224 32.7281 219.125 61.4355 239.823C65.596 242.735 69.8605 245.648 74.541 246.896Z" fill="#6C00BE"/>
</g>
<g style="mix-blend-mode:multiply" opacity="0.54">
<path d="M91.8073 214.756C99.1921 213.092 106.057 210.387 112.298 206.747C119.995 177.207 121.139 139.139 121.139 120.001C121.139 119.931 121.139 119.862 121.139 119.793C121.451 101.798 113.026 95.1416 100.024 94.6215C100.024 94.6215 108.033 88.1728 122.491 89.3169C125.195 89.5249 128.108 90.5651 130.5 92.3333C113.026 73.091 85.8786 63.5218 58.7313 69.6586C18.6866 78.8117 -6.38037 118.752 2.77272 158.797C11.9258 198.842 51.7625 223.909 91.8073 214.756Z" fill="#FF0A13"/>
</g>
<g style="mix-blend-mode:multiply" opacity="0.54">
<path d="M135.908 101.593C136.22 105.13 136.636 119.691 136.636 124.996C136.844 138.622 137.572 158.696 140.173 178.666C148.91 163.064 152.134 144.446 147.87 125.724C145.477 115.219 140.901 105.754 134.868 97.6406C135.423 98.8194 135.77 100.137 135.908 101.593Z" fill="#FF0A13"/>
</g>
<g style="mix-blend-mode:multiply" opacity="0.54">
<path d="M119.37 162.23C120.826 145.484 121.138 130.091 121.138 120.001C121.138 119.932 121.138 119.863 121.138 119.793C121.45 101.799 113.025 95.1425 100.023 94.6224C100.023 94.6224 108.032 88.1737 122.49 89.3178C128.419 89.8379 135.18 94.2064 135.908 101.591C136.22 105.128 136.636 119.689 136.636 124.994C136.74 131.755 136.948 140.18 137.468 149.333C139.825 147.114 142.044 144.722 144.125 142.156C169.712 110.016 164.407 63.2107 132.267 37.6237C100.127 11.9326 53.3219 17.2373 27.7349 49.3771C2.14782 81.5169 7.45244 128.322 39.4882 153.909C62.995 172.632 94.1987 174.816 119.37 162.23Z" fill="#FF9516"/>
</g>
<g style="mix-blend-mode:multiply" opacity="0.54">
<path d="M120.307 148.921C120.931 137.479 121.139 127.39 121.139 120.005C121.139 119.936 121.139 119.867 121.139 119.797C121.451 101.803 113.026 95.1463 100.024 94.6263C100.024 94.6263 108.033 88.1775 122.491 89.3217C128.42 89.8417 135.18 94.2102 135.908 101.595C136.221 105.132 136.637 119.693 136.637 124.998C136.741 131.655 136.949 139.872 137.469 148.921C174.497 144.656 203.308 113.244 203.308 75.072C203.308 33.9871 169.921 0.703125 128.836 0.703125C87.7507 0.703125 54.4668 33.9871 54.4668 75.072C54.4668 113.244 83.2782 144.656 120.307 148.921Z" fill="#FFDE17"/>
</g>
<g style="mix-blend-mode:multiply" opacity="0.54">
<path d="M199.044 69.6553C172.417 63.6226 145.998 72.6716 128.42 91.0818C132.268 93.0581 135.389 96.6985 135.909 101.587C136.221 105.123 136.637 119.685 136.637 124.99C136.949 145.168 138.405 179.492 145.478 206.744C151.719 210.384 158.584 213.088 165.864 214.753C205.909 223.906 245.85 198.839 255.003 158.794C264.156 118.749 239.089 78.8084 199.044 69.6553Z" fill="#09B6FF"/>
</g>
<g style="mix-blend-mode:multiply" opacity="0.54">
<path d="M117.603 178.666C120.515 156.095 121.139 133.421 121.139 120.003C121.139 119.934 121.139 119.865 121.139 119.795C121.243 113.346 120.203 108.354 118.227 104.609C114.482 111.058 111.674 118.027 109.906 125.724C105.641 144.446 108.866 163.064 117.603 178.666Z" fill="#09B6FF"/>
</g>
<g style="mix-blend-mode:multiply" opacity="0.54">
<path d="M101.689 233.588C119.059 206.129 121.035 145.906 121.139 120.007C121.139 119.938 121.139 119.868 121.139 119.799C121.139 117.095 121.035 114.598 120.619 112.414C120.55 112.414 120.48 112.449 120.411 112.518C83.4865 130.304 67.8846 174.821 85.6707 211.746C89.7272 220.275 95.2399 227.556 101.689 233.588Z" fill="#0067C4"/>
</g>
<g style="mix-blend-mode:multiply" opacity="0.54">
<path d="M219.743 147.258C204.349 115.326 169.297 99.4122 136.221 107.005C136.429 112.83 136.637 121.151 136.637 124.999C137.053 159.011 141.109 232.652 168.569 245.758C171.793 247.318 177.514 247.942 181.362 247.318C187.395 246.382 189.787 244.197 193.532 241.701C224.319 221.627 236.177 181.27 219.743 147.258Z" fill="#0067C4"/>
</g>
</svg>
