<svg width="257" height="165" viewBox="0 0 257 165" fill="none" xmlns="http://www.w3.org/2000/svg">
<path d="M241.683 147.219C265.721 101.655 260.34 44.4308 225.18 3.88946L153.066 1.7368C150.914 1.7368 148.821 1.49763 146.788 1.01926C145.353 1.13885 143.858 1.13885 142.303 1.01926C128.849 0.481101 97.0978 -0.595186 88.4873 13.2176C85.7965 17.8816 85.0789 23.9808 84.8995 29.3624C84.7202 44.7896 92.4338 49.6331 107.323 49.9918L148.582 50.7094C176.387 51.2475 207.241 57.526 225.897 80.1288C238.813 95.7354 242.76 115.827 242.401 135.739C242.401 139.566 242.162 143.392 241.683 147.219Z" fill="#C7A349"/>
<path d="M17.6294 23.2632C-7.12598 65.9572 -5.33207 120.132 23.7286 161.212L106.785 163.723C108.818 163.723 110.851 163.962 112.884 164.44C116.232 164.44 119.581 164.5 122.929 164.62C137.46 164.799 161.139 163.544 170.467 150.269C173.696 145.605 174.772 140.044 174.951 134.304C174.951 129.998 174.413 125.334 171.723 121.746C166.52 115.109 155.039 113.853 147.326 113.674L106.067 112.777C50.6365 111.701 16.3737 85.6897 17.45 27.9272C17.45 26.3726 17.5098 24.8179 17.6294 23.2632Z" fill="#001F1F"/>
</svg>
