<svg width="256" height="114" viewBox="0 0 256 114" fill="none" xmlns="http://www.w3.org/2000/svg">
<path d="M155.254 8.31305C156.951 6.68661 158.896 5.34303 160.982 4.28231C163.103 3.22159 165.366 2.44373 167.664 1.87801C169.998 1.34765 172.367 1.06479 174.736 0.958715C177.105 0.888 179.509 0.99407 181.878 1.27693C184.247 1.6305 186.616 2.09016 188.914 2.7973C191.212 3.50445 193.44 4.35302 195.632 5.34303C199.981 7.35841 204.083 9.83343 207.936 12.6267C215.644 18.1424 222.574 24.5068 229.858 29.9872C231.697 31.3779 233.559 32.6861 235.445 33.9118C237.354 35.1376 239.299 36.2808 241.279 37.3415C243.259 38.3551 245.274 39.2626 247.325 40.064C249.399 40.8183 251.509 41.443 253.654 41.938L252.204 47.6659C246.441 46.2162 240.819 44.7312 235.162 43.8119C229.505 42.8926 223.847 42.5037 218.332 43.1401C212.851 43.7765 207.512 45.2969 203.128 48.1962C200.9 49.6459 198.92 51.3784 197.117 53.3938C195.314 55.3738 193.723 57.6367 192.309 60.041C190.894 62.4099 189.657 64.9556 188.49 67.5721C187.323 70.1885 186.333 72.9111 185.202 75.6689C183.045 81.1847 180.782 86.9126 177.494 92.2869C175.867 95.0094 173.958 97.5905 171.766 99.9595C169.538 102.328 166.993 104.379 164.341 106.182C161.654 107.95 158.79 109.365 155.82 110.567C152.85 111.698 149.774 112.511 146.662 113.077C143.515 113.607 140.368 113.855 137.186 113.82C134.004 113.714 130.857 113.395 127.746 112.688C121.523 111.203 115.724 108.516 110.633 104.91C105.541 101.303 101.086 97.0602 97.0556 92.4991C93.0249 87.9733 89.4891 83.1294 85.9888 78.3561C82.453 73.6182 78.9526 68.9157 75.0987 64.5667C71.2447 60.2177 67.0372 56.187 62.1932 53.0048C59.7889 51.4138 57.2432 50.0348 54.5914 48.868C51.9396 47.7012 49.1817 46.7466 46.3177 46.0748C40.6605 44.8019 34.6498 44.7312 28.9219 46.3576C34.473 44.2008 40.6605 43.7412 46.6006 44.6605C52.5406 45.6151 58.3392 47.7012 63.5721 50.7773C66.2239 52.2977 68.7343 54.0302 71.0679 55.9395C73.4369 57.8488 75.6644 59.8995 77.7858 62.0563C81.9934 66.3699 85.7766 71.0371 89.5245 75.6336C93.2724 80.2301 96.9142 84.8265 100.874 88.9987C104.834 93.2062 109.148 97.0248 113.886 100.101C118.553 103.212 123.715 105.475 129.054 106.607C131.741 107.172 134.499 107.385 137.257 107.455C140.015 107.42 142.737 107.137 145.46 106.642C148.147 106.076 150.799 105.298 153.345 104.273C155.855 103.212 158.33 102.01 160.593 100.49C162.82 98.9695 164.907 97.237 166.71 95.2923C168.548 93.3123 170.139 91.0848 171.554 88.7158C174.418 83.9779 176.504 78.6036 178.661 73.0878C180.782 67.6074 183.08 61.8442 186.333 56.4699C187.96 53.7827 189.798 51.1663 191.99 48.7619C194.147 46.393 196.657 44.2008 199.415 42.433C205.002 38.8619 211.402 37.094 217.66 36.5283C223.953 35.9272 230.212 36.4929 236.222 37.589C242.233 38.7204 248.032 40.3469 253.724 41.938L253.83 41.9733C255.422 42.433 256.341 44.0594 255.881 45.6505C255.457 47.2062 253.83 48.0902 252.275 47.7012C249.87 47.0648 247.525 46.2869 245.239 45.3676C242.976 44.4012 240.784 43.3287 238.662 42.1501C236.541 40.9126 234.525 39.6397 232.545 38.2608C230.565 36.8701 228.656 35.4322 226.817 33.9472C223.105 30.9772 219.604 27.795 216.175 24.6835C212.71 21.5367 209.28 18.4606 205.674 15.632C202.067 12.8035 198.319 10.187 194.289 8.06556C192.273 6.96948 190.187 6.05019 188.101 5.27232C185.944 4.4591 183.752 3.89338 181.525 3.43373C179.297 2.97409 177.034 2.72659 174.736 2.62052C172.473 2.58516 170.175 2.65587 167.912 3.00944C165.649 3.39837 163.386 3.96409 161.265 4.81267C159.143 5.73196 157.093 6.8634 155.254 8.31305Z" fill="url(#paint0_linear_30_31)"/>
<path d="M170.847 62.41C171.13 64.7436 171.13 67.0772 170.953 69.4461C170.706 71.815 170.175 74.1486 169.468 76.4115C168.761 78.7097 167.736 80.9019 166.533 82.988C165.932 84.0487 165.261 85.0387 164.589 86.0287C163.846 87.0187 163.104 87.9734 162.291 88.8927C159.038 92.5345 154.901 95.4692 150.304 97.4138C148.006 98.3331 145.602 99.0403 143.162 99.5353C140.687 99.9595 138.212 100.172 135.702 100.136C130.681 100.03 125.625 98.9342 121.028 96.7067C116.397 94.5499 112.437 91.3323 109.007 87.7966C105.542 84.2609 102.678 80.3362 100.061 76.3761C97.445 72.3808 95.1115 68.35 92.6718 64.4607C90.2675 60.6067 87.7925 56.8589 84.9639 53.4999C82.1706 50.1409 78.9531 47.1356 75.4881 44.4484C68.5227 39.0387 60.3551 35.1848 51.7279 33.0987C43.1007 31.0126 33.9785 30.9772 25.1038 32.7451C16.2291 34.4776 7.67256 38.1548 0 43.423C6.68255 36.9526 15.133 32.144 24.2552 29.3508C33.4128 26.6283 43.2775 25.9211 52.8593 27.6536C57.6326 28.5376 62.3351 29.9165 66.7902 31.8612C71.2806 33.7351 75.5588 36.1748 79.4835 39.0741C83.4435 41.938 87.05 45.297 90.3028 49.0095C93.485 52.722 96.1722 56.7528 98.6826 60.7482C103.633 68.7743 107.946 76.7651 113.851 83.2001C116.786 86.4177 120.109 89.1755 123.822 91.1555C125.66 92.1455 127.64 92.9234 129.656 93.4891C131.706 94.0549 133.792 94.4438 135.949 94.5852C138.071 94.7266 140.228 94.7266 142.384 94.4791C144.506 94.1963 146.627 93.7366 148.678 93.0649C152.779 91.6859 156.598 89.4937 159.816 86.453C166.321 80.513 170.493 71.7443 170.847 62.41Z" fill="url(#paint1_linear_30_31)"/>
<path d="M159.603 62.5204C159.956 64.3589 159.85 66.2682 159.426 68.1068C158.966 69.9454 158.153 71.7133 157.092 73.3397C154.936 76.5219 151.789 79.0676 148.041 80.5173C144.328 81.8962 140.262 82.1437 136.373 81.578C132.484 80.9769 128.736 79.5273 125.341 77.5119C121.983 75.4965 118.977 72.9508 116.361 70.1576C113.674 67.3643 111.375 64.3236 109.218 61.2475C104.94 55.0599 101.334 48.6602 97.0555 43.0031C88.5698 31.7947 76.1947 23.5565 62.4406 20.0207C48.6866 16.4496 33.6243 17.6871 20.0117 23.4504C32.5636 15.5657 48.4391 12.7371 63.4306 15.6718C78.3868 18.6418 92.2823 27.269 101.546 39.6087C106.142 45.6902 109.713 52.2313 113.674 58.2421C115.618 61.2475 117.704 64.1468 120.003 66.7986C122.336 69.4504 124.882 71.8547 127.71 73.764C130.574 75.7087 133.721 77.1583 137.08 77.9362C140.404 78.7494 143.904 78.7848 147.192 77.9008C150.481 77.0169 153.521 75.0369 155.82 72.3851C158.118 69.7333 159.638 66.2682 159.603 62.5204Z" fill="url(#paint2_linear_30_31)"/>
<path d="M171.731 8.16957C168.69 8.16957 165.897 9.0535 163.387 10.4324C160.876 11.8114 158.649 13.5793 156.351 15.4532C154.088 17.3271 151.754 19.3072 149.067 20.969C146.345 22.6308 143.304 23.8329 140.192 24.4693C133.934 25.8483 127.181 24.9643 121.594 21.959C116.008 19.0243 111.553 14.1096 109.467 8.41708C113.109 13.2257 117.776 16.8675 123.009 18.9536C128.206 21.0397 133.899 21.464 139.308 20.3325C140.652 20.085 141.996 19.6961 143.268 19.2011C144.577 18.7414 145.814 18.1757 147.052 17.5039C149.491 16.1603 151.86 14.4278 154.406 12.766C156.881 11.1396 159.604 9.51315 162.609 8.52314C164.094 8.0635 165.614 7.70992 167.17 7.63921C168.726 7.53314 170.282 7.70992 171.731 8.16957Z" fill="url(#paint3_linear_30_31)"/>
<path d="M158.507 21.7842C157.128 24.6128 154.936 27.0878 152.355 29.1032C149.774 31.0832 146.804 32.5682 143.657 33.5228C137.363 35.4321 130.504 35.4321 124.175 33.4875C117.846 31.5782 112.224 28.0424 107.486 23.7288C102.713 19.4152 98.7882 14.3591 95.6768 8.91406C100.167 13.2984 104.693 17.5413 109.572 21.1477C114.487 24.7542 119.755 27.6889 125.412 29.4214C130.963 31.1185 137.045 31.4367 142.844 30.3053C148.642 29.1385 154.229 26.4513 158.507 21.7842Z" fill="url(#paint4_linear_30_31)"/>
<defs>
<linearGradient id="paint0_linear_30_31" x1="26.1463" y1="57.62" x2="192.043" y2="-48.9613" gradientUnits="userSpaceOnUse">
<stop stop-color="#C29500"/>
<stop offset="0.272" stop-color="#FFE500"/>
<stop offset="0.516" stop-color="#D6A400"/>
<stop offset="0.764" stop-color="#FFF7B8"/>
<stop offset="1" stop-color="#DCAA00"/>
</linearGradient>
<linearGradient id="paint1_linear_30_31" x1="38.1192" y1="47.0631" x2="212.251" y2="-64.8092" gradientUnits="userSpaceOnUse">
<stop stop-color="#C29500"/>
<stop offset="0.272" stop-color="#FFE500"/>
<stop offset="0.516" stop-color="#D6A400"/>
<stop offset="0.764" stop-color="#FFF7B8"/>
<stop offset="1" stop-color="#DCAA00"/>
</linearGradient>
<linearGradient id="paint2_linear_30_31" x1="27.2971" y1="44.3534" x2="229.7" y2="-85.6815" gradientUnits="userSpaceOnUse">
<stop stop-color="#C29500"/>
<stop offset="0.272" stop-color="#FFE500"/>
<stop offset="0.516" stop-color="#D6A400"/>
<stop offset="0.764" stop-color="#FFF7B8"/>
<stop offset="1" stop-color="#DCAA00"/>
</linearGradient>
<linearGradient id="paint3_linear_30_31" x1="44.8967" y1="67.5124" x2="192.379" y2="-27.2384" gradientUnits="userSpaceOnUse">
<stop stop-color="#C29500"/>
<stop offset="0.272" stop-color="#FFE500"/>
<stop offset="0.516" stop-color="#D6A400"/>
<stop offset="0.764" stop-color="#FFF7B8"/>
<stop offset="1" stop-color="#DCAA00"/>
</linearGradient>
<linearGradient id="paint4_linear_30_31" x1="24.1964" y1="71.5395" x2="208.432" y2="-46.8236" gradientUnits="userSpaceOnUse">
<stop stop-color="#C29500"/>
<stop offset="0.272" stop-color="#FFE500"/>
<stop offset="0.516" stop-color="#D6A400"/>
<stop offset="0.764" stop-color="#FFF7B8"/>
<stop offset="1" stop-color="#DCAA00"/>
</linearGradient>
</defs>
</svg>
