<svg width="237" height="257" viewBox="0 0 237 257" fill="none" xmlns="http://www.w3.org/2000/svg">
<path d="M236.68 99.33C235.441 63.8705 214.619 33.1477 184.818 17.6094C193.07 26.1469 205.999 43.4643 208.422 69.9585C210.082 88.1084 202.276 100.692 190.904 108.069C160.163 128.009 71.0795 80.1168 60.5049 155.294C60.5088 155.3 60.5127 155.305 60.5153 155.31C62.9518 154.024 65.7889 152.836 68.971 151.9C73.2527 150.605 78.1322 149.721 83.4033 149.342C93.9585 148.536 106.024 149.656 118.51 152.155C120.066 152.484 121.635 152.818 123.217 153.152C124.785 153.528 126.364 153.906 127.953 154.286C129.546 154.649 131.119 155.109 132.713 155.526C134.264 155.939 135.824 156.352 137.389 156.767C139.011 157.224 140.504 157.519 142.001 157.819C143.487 158.164 145.102 158.317 146.656 158.58C149.806 158.935 152.995 159.195 156.192 159.146C162.585 159.134 169 158.274 175.096 156.559C181.207 154.895 186.998 152.394 192.167 149.226C197.344 146.079 201.954 142.334 205.716 138.196C209.502 134.079 212.509 129.653 214.789 125.302C217.08 120.951 218.665 116.679 219.688 112.792C220.29 110.869 220.574 109.001 220.969 107.301C221.262 105.581 221.477 103.99 221.689 102.555C221.954 99.6659 222.139 97.3863 222.127 95.8264C222.166 94.2664 222.187 93.4352 222.187 93.4352C222.187 93.4352 222.213 94.2664 222.262 95.8264C222.362 97.3889 222.307 99.6763 222.205 102.6C222.074 104.054 221.948 105.67 221.751 107.424C221.45 109.16 221.267 111.073 220.769 113.058C219.952 117.065 218.587 121.518 216.484 126.13C214.392 130.743 211.539 135.511 207.828 140.036C204.142 144.581 199.528 148.797 194.243 152.434C188.966 156.093 182.968 159.104 176.544 161.253C170.136 163.454 163.303 164.775 156.396 165.18C152.941 165.427 149.472 165.348 146.02 165.153C144.291 164.965 142.595 164.899 140.845 164.605C139.09 164.356 137.342 164.094 135.786 163.749L133.294 163.238L130.946 162.719C129.383 162.383 127.835 162.005 126.283 161.725C124.733 161.426 123.194 161.129 121.665 160.835C120.132 160.582 118.613 160.329 117.103 160.08C105.037 158.217 93.6693 157.728 84.3344 158.873C79.6662 159.418 75.531 160.381 72.0987 161.594C70.0966 162.281 68.3733 163.062 66.8652 163.862C83.5875 184.02 108.332 197.237 135.861 198.611C192.247 201.419 238.642 155.538 236.68 99.33Z" fill="url(#paint0_linear_30_29)"/>
<path d="M184.819 17.6054C172.36 11.1089 158.343 7.24862 143.514 6.83498C140.3 6.7455 137.122 6.81423 133.985 7.03467C133.359 7.07875 132.748 7.15526 132.144 7.24344C131.785 7.29401 131.43 7.35236 131.077 7.41589C131.039 7.42238 131 7.42757 130.963 7.43405C130.967 7.43535 130.969 7.43535 130.973 7.43665C125.932 8.37157 121.624 10.6784 118.267 13.8618C119.243 14.243 120.235 14.6398 121.26 15.0768C127.402 17.7091 134.438 21.3684 140.943 26.8288C144.181 29.5571 147.257 32.7508 149.828 36.4244C152.404 40.0876 154.443 44.237 155.686 48.603C156.045 49.6806 156.258 50.7957 156.479 51.9031C156.741 53.004 156.873 54.1231 156.99 55.2408L157.186 57.0186L157.195 58.6291C157.202 59.7015 157.207 60.7699 157.212 61.8358C157.286 62.8745 157.024 64.0376 156.916 65.1295C156.768 66.2329 156.641 67.3351 156.471 68.4127C156.185 69.4552 155.901 70.4913 155.618 71.5196C155.346 72.5492 155.075 73.5684 154.613 74.5163C154.204 75.4771 153.798 76.4315 153.396 77.3755C153 78.3208 152.405 79.1559 151.928 80.035C150.995 81.8154 149.777 83.3481 148.641 84.8678C147.507 86.3876 146.167 87.6661 144.987 88.9874C143.656 90.1622 142.462 91.3967 141.156 92.3913C139.861 93.3975 138.652 94.3986 137.394 95.2025C136.175 96.0609 134.992 96.8273 133.841 97.4886C131.58 98.8696 129.513 99.9031 127.807 100.729C126.096 101.551 124.727 102.135 123.793 102.531C122.862 102.933 122.366 103.147 122.366 103.147C122.366 103.147 122.851 102.908 123.76 102.456C124.67 102.01 126.005 101.355 127.663 100.446C129.316 99.5335 131.313 98.3989 133.476 96.9129C134.578 96.1997 135.706 95.3802 136.86 94.4712C138.054 93.6154 139.19 92.5663 140.404 91.516C141.629 90.4774 142.728 89.2079 143.958 88.0033C145.033 86.6573 146.264 85.358 147.271 83.8395C148.282 82.3224 149.369 80.8014 150.16 79.0625C150.6 78.1354 151.177 77.2614 151.488 76.2564C151.783 75.4473 152.073 74.6459 152.367 73.8381C152.788 72.9019 152.995 71.8904 153.204 70.8738C153.387 70.0426 153.571 69.2063 153.755 68.3647C153.846 67.4622 153.992 65.9969 154.083 65.0944C154.113 64.0376 154.347 63.0677 154.21 61.9292C154.148 60.8659 154.086 59.7987 154.022 58.7276L153.927 57.1197C153.859 56.828 153.757 56.1615 153.676 55.7011C153.514 54.6806 153.341 53.6627 153.046 52.6708C152.789 51.671 152.546 50.6686 152.164 49.7104C150.827 45.8164 148.799 42.1999 146.305 39.0256C143.814 35.8461 140.88 33.1009 137.789 30.7656C131.583 26.0923 124.851 23.0191 118.967 20.864C118.95 20.8575 118.932 20.851 118.915 20.8445C115.872 19.7371 112.546 21.4423 111.538 24.5207C108.857 32.7081 110.26 42.2375 117.185 49.5703L125.788 58.6784C126.347 59.2697 126.828 59.9076 127.235 60.5754C131.244 64.297 136.054 71.3251 132.659 82.0942C127.913 97.1437 104.076 105.096 90.5459 114.596C96.5016 112.599 103.012 111.594 109.798 111.192C109.824 111.191 109.849 111.188 109.875 111.187C110.996 111.121 112.124 111.072 113.259 111.037C113.259 111.037 113.262 111.037 113.264 111.037C114.029 111.013 114.801 111.005 115.572 110.995C137.23 110.793 156.133 116.245 176.034 112.839C180.431 112.297 184.411 111.31 187.854 109.71C188.434 109.499 189.012 109.292 189.594 109.063C204.007 103.37 213.41 85.1064 213.643 66.8813C213.954 42.987 201.584 28.6182 184.819 17.6054Z" fill="url(#paint1_linear_30_29)"/>
<path d="M161.016 225.127C160.615 210.673 163.244 200.57 163.244 200.57C163.244 200.57 155.561 204.333 132.971 200.769C132.971 200.769 136.845 207.965 137.276 218.972L126.057 214.401L137.256 223.361C136.8 232.915 133.536 244.639 123.675 256.813C123.675 256.813 160.987 245.46 181.377 255.757C181.377 255.757 161.476 241.761 161.016 225.127Z" fill="url(#paint2_linear_30_29)"/>
<path d="M156.405 229.388C159.787 217.108 153.701 206.505 150.745 202.298C146.271 202.323 140.454 201.955 132.971 200.773C132.971 200.773 136.845 207.97 137.276 218.977L126.057 214.406L137.256 223.366C136.8 232.92 133.536 244.643 123.675 256.818C134.738 242.757 152.026 245.292 156.405 229.388Z" fill="url(#paint3_linear_30_29)"/>
<path d="M44.4692 49.3944C52.0717 60.5797 57.8226 69.6294 67.8137 71.0648C76.2967 72.2837 81.333 69.2741 84.012 66.6599C83.2975 65.7574 82.3652 64.6695 81.2514 63.4571C80.4759 62.6363 79.6318 61.7467 78.6813 60.8533C77.7632 59.9288 76.7129 59.034 75.6535 58.0758C74.5669 57.1473 73.4245 56.2059 72.2458 55.2671C71.0334 54.3724 69.8443 53.396 68.5722 52.5363C67.3015 51.6753 66.0683 50.7455 64.7716 49.9584C63.4827 49.1609 62.2469 48.309 60.9839 47.601C59.7287 46.8749 58.5137 46.1734 57.3635 45.5081C56.1848 44.8896 55.0697 44.3061 54.0401 43.7667C51.9952 42.6502 50.2045 41.9007 48.9856 41.2952C47.755 40.7129 47.0522 40.381 47.0522 40.381C47.0522 40.381 47.7848 40.6416 49.066 41.0994C50.338 41.5804 52.2066 42.1536 54.3591 43.0664C55.4444 43.5047 56.6205 43.9806 57.8654 44.4825C59.0894 45.0361 60.3797 45.621 61.7153 46.2252C63.0612 46.8139 64.3904 47.5479 65.7778 48.2273C67.1731 48.8951 68.5152 49.712 69.8987 50.4628C71.2836 51.2123 72.5959 52.0863 73.9315 52.8825C75.2373 53.7253 76.5106 54.5786 77.7308 55.4279C78.9277 56.3109 80.1103 57.1331 81.1697 58.0057C82.255 58.8421 83.2405 59.6915 84.1495 60.4811C85.1454 61.3694 86.018 62.1928 86.7753 62.9423C90.6135 56.1826 87.1228 41.8826 71.3303 34.7209C55.2318 27.4205 32.2529 36.9538 32.2529 36.9538C32.2529 36.9538 36.8666 38.209 44.4692 49.3944Z" fill="url(#paint4_linear_30_29)"/>
<path d="M80.8354 84.1294C88.8101 82.5552 95.0913 81.1133 99.9721 84.7181C104.115 87.7796 104.998 91.1925 105.041 93.4423C104.354 93.5266 103.497 93.5979 102.507 93.6472C101.829 93.6705 101.092 93.6951 100.308 93.6757C99.5247 93.6835 98.6974 93.6225 97.839 93.5849C96.9832 93.5227 96.0963 93.4436 95.1951 93.3476C94.299 93.218 93.3784 93.1337 92.4707 92.9638C91.563 92.7952 90.6436 92.672 89.7567 92.4607C88.8685 92.2571 87.9802 92.1002 87.1412 91.8694C86.2971 91.6503 85.4815 91.4376 84.7086 91.2353C83.9436 91.0019 83.22 90.7815 82.5522 90.5766C81.2062 90.1902 80.1235 89.7558 79.3468 89.499C78.5752 89.228 78.1331 89.0737 78.1331 89.0737C78.1331 89.0737 78.5571 89.2708 79.2975 89.617C80.0444 89.949 81.0857 90.4923 82.3927 91.011C83.0424 91.282 83.7465 91.575 84.4908 91.8863C85.2481 92.1663 86.0468 92.4607 86.8728 92.7667C87.6975 93.0831 88.5754 93.3308 89.4559 93.6264C90.335 93.9298 91.2531 94.1477 92.1621 94.4109C93.0711 94.6754 94.0008 94.8557 94.9085 95.0787C95.8227 95.2693 96.7278 95.4431 97.6082 95.5948C98.4926 95.7219 99.3458 95.8697 100.168 95.9449C100.985 96.0461 101.765 96.0979 102.488 96.1446C103.289 96.1848 104.01 96.2017 104.651 96.2004C103.437 100.713 95.9056 105.355 86.1272 101.749C76.1582 98.0728 70.3555 84.2915 70.3555 84.2915C70.3555 84.2915 72.8594 85.7023 80.8354 84.1294Z" fill="url(#paint5_linear_30_29)"/>
<path d="M86.6323 8.81188C95.3954 13.5215 102.455 17.0394 104.265 24.24C105.803 30.354 103.985 34.2674 102.277 36.4264C101.562 35.9726 100.695 35.3735 99.7238 34.6512C99.065 34.1455 98.3493 33.597 97.6231 32.9694C96.8762 32.3677 96.1423 31.6675 95.3604 30.966C94.5992 30.2424 93.8225 29.4774 93.0458 28.6864C92.2989 27.8682 91.4936 27.072 90.7674 26.2071C90.04 25.3422 89.2659 24.511 88.5916 23.6228C87.9095 22.7397 87.1924 21.9021 86.5778 21.032C85.9515 20.1684 85.3446 19.3346 84.7702 18.5423C84.2282 17.7267 83.716 16.9552 83.2427 16.2433C82.2702 14.8325 81.5842 13.5798 81.05 12.7331C80.53 11.8773 80.2343 11.3884 80.2343 11.3884C80.2343 11.3884 80.4807 11.9045 80.9125 12.807C81.3612 13.7004 81.9226 15.0244 82.7551 16.5298C83.1584 17.291 83.5954 18.1144 84.0583 18.9871C84.5576 19.8403 85.0827 20.7402 85.6273 21.6713C86.1603 22.6114 86.7982 23.5268 87.4012 24.4903C87.9964 25.4602 88.6966 26.3796 89.3501 27.3353C90.0037 28.2922 90.7428 29.1856 91.4275 30.1011C92.1432 30.9919 92.8655 31.8594 93.58 32.6867C94.3165 33.4946 95.009 34.2972 95.7273 35.0052C96.4224 35.7353 97.1187 36.3914 97.7657 36.997C98.4906 37.6583 99.1597 38.234 99.7666 38.7307C95.1127 42.0528 84.3851 40.5888 77.9431 29.5798C71.3753 18.3582 76.5997 0.820312 76.5997 0.820312C76.5997 0.820312 77.8692 4.10226 86.6323 8.81188Z" fill="url(#paint6_linear_30_29)"/>
<path d="M12.436 43.1542C22.2948 44.4807 30.1399 45.2924 34.3684 51.396C37.9577 56.5776 37.6335 60.8814 36.7932 63.5033C35.9646 63.3295 34.9415 63.0741 33.7784 62.7395C32.9835 62.4984 32.1212 62.2351 31.22 61.9045C30.3097 61.6036 29.3761 61.2069 28.3971 60.8243C27.4297 60.4146 26.4339 59.9724 25.4289 59.5043C24.4421 59.0012 23.4087 58.5395 22.4245 57.9845C21.4403 57.4309 20.4224 56.9251 19.4784 56.33C18.5305 55.7438 17.5631 55.2109 16.6827 54.6118C15.7918 54.0244 14.9321 53.4552 14.1152 52.917C13.3203 52.3439 12.5696 51.8032 11.8771 51.3026C10.4702 50.3236 9.38874 49.3926 8.58998 48.7883C7.80288 48.1698 7.35293 47.8158 7.35293 47.8158C7.35293 47.8158 7.76528 48.2126 8.48754 48.9051C9.22148 49.5845 10.2134 50.6258 11.5218 51.7422C12.1676 52.3128 12.8665 52.93 13.6056 53.5835C14.372 54.2073 15.1811 54.8647 16.0175 55.5442C16.8474 56.2366 17.7667 56.8694 18.6692 57.5605C19.5678 58.2594 20.5456 58.8741 21.4947 59.538C22.4426 60.2032 23.4489 60.7802 24.4123 61.3974C25.3952 61.9797 26.3755 62.5373 27.3364 63.0611C28.3102 63.5578 29.2412 64.0661 30.1619 64.4771C31.0696 64.9167 31.9513 65.285 32.7696 65.6247C33.6811 65.9878 34.5097 66.2925 35.2514 66.5441C32.0642 71.2913 21.5064 73.6928 11.6035 65.6532C1.5087 57.4581 0.231445 39.2031 0.231445 39.2031C0.231445 39.2031 2.57718 41.8276 12.436 43.1542Z" fill="url(#paint7_linear_30_29)"/>
<path d="M32.3183 86.8247C45.2348 88.8372 55.5189 90.117 60.9054 98.2499C65.4802 105.156 64.9342 110.799 63.7594 114.221C62.6754 113.971 61.3398 113.607 59.82 113.136C58.7827 112.798 57.6558 112.429 56.4823 111.969C55.2946 111.55 54.0783 111.003 52.8036 110.473C51.5432 109.909 50.2478 109.299 48.9394 108.657C47.657 107.969 46.3123 107.335 45.0338 106.579C43.7552 105.824 42.4326 105.133 41.2098 104.325C39.9792 103.529 38.7253 102.803 37.5842 101.992C36.4302 101.196 35.315 100.426 34.2582 99.6958C33.2299 98.9216 32.2587 98.189 31.3614 97.5134C29.5395 96.1895 28.1443 94.9356 27.1108 94.1199C26.0929 93.2862 25.512 92.809 25.512 92.809C25.512 92.809 26.0436 93.3406 26.972 94.2704C27.9186 95.1819 29.192 96.5772 30.8803 98.0801C31.7128 98.8477 32.614 99.6776 33.5683 100.557C34.559 101.397 35.6029 102.283 36.683 103.198C37.7541 104.13 38.9445 104.988 40.1128 105.919C41.2733 106.861 42.5415 107.695 43.7708 108.594C44.9988 109.494 46.3045 110.278 47.5533 111.116C48.8292 111.908 50.1026 112.668 51.3487 113.381C52.6143 114.061 53.8228 114.754 55.0223 115.318C56.2023 115.92 57.3511 116.428 58.417 116.896C59.6048 117.398 60.685 117.821 61.6523 118.171C57.3356 124.32 43.3999 127.187 30.6106 116.354C17.5735 105.313 16.3936 81.2969 16.3936 81.2969C16.3936 81.2969 19.4032 84.8122 32.3183 86.8247Z" fill="url(#paint8_linear_30_29)"/>
<defs>
<linearGradient id="paint0_linear_30_29" x1="148.623" y1="216.439" x2="148.623" y2="-44.5117" gradientUnits="userSpaceOnUse">
<stop stop-color="#B8D844"/>
<stop offset="1" stop-color="#0A933C"/>
</linearGradient>
<linearGradient id="paint1_linear_30_29" x1="152.102" y1="208.296" x2="152.102" y2="-96.62" gradientUnits="userSpaceOnUse">
<stop stop-color="#0A6937"/>
<stop offset="0.5956" stop-color="#589336"/>
<stop offset="0.8832" stop-color="#78A435"/>
</linearGradient>
<linearGradient id="paint2_linear_30_29" x1="123.674" y1="228.691" x2="181.376" y2="228.691" gradientUnits="userSpaceOnUse">
<stop offset="0.1168" stop-color="#7D5428"/>
<stop offset="0.6014" stop-color="#5D3E1E"/>
<stop offset="1" stop-color="#3F2914"/>
</linearGradient>
<linearGradient id="paint3_linear_30_29" x1="161.22" y1="230.145" x2="126.38" y2="228.716" gradientUnits="userSpaceOnUse">
<stop offset="0.1168" stop-color="#7D5428"/>
<stop offset="1" stop-color="#604122"/>
</linearGradient>
<linearGradient id="paint4_linear_30_29" x1="20.009" y1="-74.4192" x2="76.3515" y2="93.5492" gradientUnits="userSpaceOnUse">
<stop stop-color="#0A6937"/>
<stop offset="0.5956" stop-color="#589336"/>
<stop offset="0.8832" stop-color="#78A435"/>
</linearGradient>
<linearGradient id="paint5_linear_30_29" x1="-76.5959" y1="174.624" x2="52.6047" y2="109.303" gradientUnits="userSpaceOnUse">
<stop stop-color="#0A6937"/>
<stop offset="0.5956" stop-color="#589336"/>
<stop offset="0.8832" stop-color="#78A435"/>
</linearGradient>
<linearGradient id="paint6_linear_30_29" x1="-167.869" y1="-35.8853" x2="5.03724" y2="2.77005" gradientUnits="userSpaceOnUse">
<stop stop-color="#0A6937"/>
<stop offset="0.5956" stop-color="#589336"/>
<stop offset="0.8832" stop-color="#78A435"/>
</linearGradient>
<linearGradient id="paint7_linear_30_29" x1="-169.029" y1="80.6473" x2="6.42226" y2="56.0208" gradientUnits="userSpaceOnUse">
<stop stop-color="#0A6937"/>
<stop offset="0.5956" stop-color="#589336"/>
<stop offset="0.8832" stop-color="#78A435"/>
</linearGradient>
<linearGradient id="paint8_linear_30_29" x1="-133.708" y1="122.37" x2="42.2206" y2="101.399" gradientUnits="userSpaceOnUse">
<stop stop-color="#0A6937"/>
<stop offset="0.5956" stop-color="#589336"/>
<stop offset="0.8832" stop-color="#78A435"/>
</linearGradient>
</defs>
</svg>
