<svg width="257" height="212" viewBox="0 0 257 212" fill="none" xmlns="http://www.w3.org/2000/svg">
<path d="M122.537 201.884C177.677 201.884 222.377 157.184 222.377 102.043C222.377 46.9031 177.677 2.20312 122.537 2.20312C67.3963 2.20312 22.6963 46.9031 22.6963 102.043C22.6963 157.184 67.3963 201.884 122.537 201.884Z" fill="#F9F5DC" stroke="#F9F5DC" stroke-width="3" stroke-miterlimit="10"/>
<path d="M74.0163 185.82C73.9981 185.858 73.9723 185.882 73.9541 185.92C74.1043 185.958 74.2483 186.008 74.397 186.039L74.0163 185.82Z" fill="#E9EFF4"/>
<path d="M87.7088 134.101C87.683 134.982 87.1643 135.751 86.7153 136.494C84.7087 139.769 83.4908 143.562 83.2223 147.406C82.9539 151.087 83.1162 155.623 79.9099 157.436C78.0792 158.455 75.5038 158.273 74.2859 159.991C73.9052 160.51 73.7232 161.167 73.5427 161.778C72.8723 164.221 72.1974 166.665 71.5255 169.108C71.3223 169.845 70.6185 170.337 69.8587 170.259C69.2717 170.2 68.6847 170.135 68.1069 170.071C69.3066 170.452 70.1377 172.078 69.4188 173.19C68.2691 172.583 66.757 173.302 66.12 174.458C65.5133 175.607 65.6012 177.007 65.938 178.275C66.9814 182.024 70.1878 185.05 73.9628 185.95C73.3061 187.193 71.301 186.65 70.0755 185.819C61.3332 179.907 54.7341 170.902 51.7204 160.784C50.6571 157.216 49.9761 153.422 47.8952 150.354C46.1586 147.761 43.5332 145.862 41.7966 143.267C39.3592 139.541 38.9027 134.711 36.0786 131.306C34.4982 129.361 32.0532 126.976 33.4547 124.893C34.0174 124.038 35.2171 123.225 34.7424 122.318C34.5861 122.024 34.2676 121.843 34.0173 121.593C33.0679 120.574 33.7231 118.975 34.1994 117.661C34.9259 115.556 34.2828 117.011 34.0219 114.763C33.9794 114.399 32.8844 110.122 32.8844 110.122C30.7079 108.067 30.3303 105.569 29.2246 102.783C28.5239 100.976 26.8373 100.482 25.6558 98.6951C23.904 96.5687 24.2376 91.2905 24.0071 90.1439C23.8979 89.6009 23.9161 89.0261 23.9965 88.4785C29.4809 51.3511 47.5888 38.7761 47.3477 39.313C46.8912 40.2382 47.6601 41.3878 48.6354 41.7245C48.9114 41.8201 49.1966 41.8732 49.4862 41.8944C50.3872 41.9596 51.009 42.8014 50.8755 43.6963C50.7694 44.4106 50.8164 45.1493 51.0287 45.8379C51.9539 45.9258 52.2482 44.6624 52.5227 43.7812C53.6223 40.358 55.2452 36.9318 58.6365 35.277C58.7852 35.2042 58.9581 35.1587 59.1219 35.1329C60.9768 34.8493 61.9551 34.1319 62.8409 32.7502C63.3156 31.9964 64.0891 31.2487 64.8823 30.874C65.8394 30.4221 66.9451 31.1228 67.0573 32.1769C67.0967 32.5485 67.1377 32.9216 67.1725 33.2947C68.1387 33.052 69.1109 32.8033 70.0831 32.556C71.0963 32.2982 71.9851 33.1112 71.979 34.1562C71.9775 34.6173 72.0791 35.0753 72.296 35.4818C72.9527 36.6997 74.5771 37.3124 75.8648 36.8135C75.8466 37.8751 74.8956 38.6881 74.0341 39.319C71.847 40.9692 67.5351 44.6943 67.5351 44.6943C67.4729 44.7185 67.4031 44.7443 67.3348 44.7443C65.7105 44.9005 63.992 43.7311 62.2539 43.9571C61.1907 44.0951 59.8848 44.0951 59.2736 45.1766C59.1856 45.3146 58.8049 47.2074 59.0733 47.0512C59.6269 46.7342 60.179 46.4172 60.7265 46.1018C61.3484 45.7438 62.1204 45.8576 62.627 46.3672C63.126 46.8692 63.7948 47.4319 64.4046 47.8945C65.0234 48.3647 65.2266 49.2095 64.855 49.892C63.9056 51.6377 62.5254 53.3152 60.7963 53.7262C60.2897 53.8461 59.7786 53.6201 59.4025 53.2576C58.7837 52.6615 57.4763 52.0973 57.4565 51.4739C55.2437 51.2919 54.8736 51.8198 53.7664 53.7202C52.641 55.6388 51.7856 57.832 49.9291 59.0514C48.8037 59.8204 47.4235 60.1131 46.2041 60.7455C45.0104 61.4023 43.9048 62.646 44.1535 63.9761C44.2658 64.6071 44.6722 65.194 44.654 65.8508C44.5858 67.0687 43.1661 67.6375 42.2167 68.4262C40.5923 69.7821 40.1858 72.2695 38.4492 73.4631C37.1873 74.3444 35.5113 74.3261 34.0432 74.7751C32.575 75.2255 31.1053 76.6937 31.6998 78.1179C30.9748 78.3682 29.6598 85.5589 29.9086 84.0027C30.1528 82.5907 29.6068 86.2915 30.4455 87.6823C30.629 87.9871 30.7094 88.3405 30.6624 88.6924C30.3985 90.7036 30.3924 90.6838 30.1331 92.6995C30.0648 93.1303 30.7549 96.6521 31.1675 96.9903C32.3171 97.9837 34.0568 98.6208 34.1251 100.133C34.1933 101.983 37.2479 105.202 38.5796 104.026C39.2803 103.395 39.8673 102.582 40.7485 102.264C41.6555 101.927 42.6489 102.17 43.5726 102.42C46.4407 103.207 49.4908 104.088 51.4094 106.345C52.3786 107.495 52.9898 108.945 54.1471 109.888C56.7649 112.101 61.1967 111.126 63.5901 113.588C65.1978 115.253 65.2084 117.775 64.8641 120.155C64.7716 120.8 64.2438 121.233 63.6128 121.399C62.6012 121.664 61.7579 122.921 62.3343 123.886C63.0335 123.117 63.8464 122.306 64.8656 122.306C65.9031 122.281 66.8086 123.706 66.0411 124.362C67.6761 122.275 71.4572 122.856 72.6782 125.113C72.9345 125.588 73.4047 125.906 73.9431 125.944C75.7237 126.07 77.5104 126.196 79.291 126.336C79.9174 126.384 80.4726 126.797 80.6515 127.399C81.4827 130.224 87.8498 130.722 87.7088 134.101Z" fill="#17CE7B" stroke="#F9F5DC" stroke-width="1.4955" stroke-miterlimit="10" stroke-linecap="round" stroke-linejoin="round"/>
<path d="M90.4799 16.7572C89.1816 16.4994 88.6311 14.9447 89.4759 13.9255C90.125 13.1429 90.8091 12.3193 91.6827 11.8704C95.5321 9.89564 100.026 9.72121 104.35 9.58319C114.194 9.27682 124.036 8.97044 133.879 8.66406C131.598 9.91383 129.317 11.1697 127.03 12.4194C125.167 13.4447 123.048 14.4943 121.005 13.9134C120.961 15.5575 122.455 17.0818 124.105 17.0696C120.062 19.5692 114.45 17.0135 110.182 19.1127C108.395 19.9939 106.951 21.6562 104.983 21.9686C103.845 22.1491 102.664 21.8442 101.534 22.093C99.6409 22.5055 98.4472 24.2983 97.0473 25.636C95.2363 27.3696 92.4714 28.4874 90.1963 27.1421C88.8131 26.3246 88.1108 24.5789 88.757 23.1077C89.4698 21.4848 91.1382 21.4969 92.441 20.8235C93.4224 20.323 94.1974 18.9807 93.4603 18.1617C93.1418 17.8053 92.617 17.6672 92.3227 17.2865C92.1908 17.1212 91.4461 16.9498 90.4799 16.7572Z" fill="#17CE7B" stroke="#F9F5DC" stroke-width="1.4955" stroke-miterlimit="10" stroke-linecap="round" stroke-linejoin="round"/>
<path d="M195.621 34.0618C195.259 34.1058 194.878 34.0876 194.49 33.9936C192.796 33.6311 191.51 32.3252 190.06 31.3757C187.59 29.7422 184.458 29.1583 181.533 29.6907C180.474 29.8833 179.484 28.9581 179.658 27.8964C179.74 27.3989 179.767 26.8923 179.735 26.3873L179.217 26.5693C173.298 23.1385 166.361 19.5758 159.906 21.8827C158.412 22.4256 157.062 23.2386 155.55 23.7573C153.944 24.32 152.163 24.5506 150.787 25.544C149.388 26.5374 148.644 28.7306 149.844 29.9242C150.863 30.9435 152.488 30.6674 153.912 30.8055C154.381 30.851 154.873 31.039 155.292 31.312C156.311 31.9794 156.172 33.5249 155.068 34.0421C150.108 36.3627 145.138 38.6984 140.177 41.0371C139.176 41.5088 138.968 42.8329 139.772 43.5958C140.868 44.6363 141.598 46.0787 141.763 47.5787C141.877 48.6192 140.974 49.5019 139.942 49.3335C138.466 49.0939 137.005 48.4129 135.495 48.3143C132.444 48.1581 129.532 50.8457 129.47 53.8958C129.382 56.9459 132.182 59.7639 135.232 59.7199C137.149 59.6987 139.176 59.5804 140.968 59.1694C141.525 59.042 141.954 58.5855 142.079 58.0273C142.459 56.321 143.685 54.8452 144.938 53.5712C147.781 50.7213 151.843 48.1475 155.642 49.5459C156.886 49.9963 157.948 50.8336 158.985 51.6647C160.895 53.1769 162.804 54.7012 164.717 56.2315C165.349 56.7381 166.264 56.682 166.83 56.1026C166.837 56.095 166.843 56.0874 166.851 56.0799C167.474 55.4383 168.506 55.4443 169.121 56.0935C169.922 56.9368 170.726 57.7816 171.536 58.6355C171.679 58.7841 171.844 58.9191 172.033 59.001C176.007 60.7255 182.306 54.3736 181.751 53.007C181.457 52.2638 180.758 51.6753 180.62 50.8821C180.325 49.3002 182.582 48.2203 184.05 48.9377C184.411 49.1121 184.727 49.3472 185.007 49.6232C185.905 50.509 187.396 50.1617 187.666 48.9286C187.718 48.6904 187.771 48.4523 187.824 48.2127C188.817 50.8229 190.119 53.3164 191.685 55.6263C192.397 56.6759 191.593 58.1016 190.326 58.0485C187.689 57.9363 185.033 58.2518 182.505 58.9737C181.205 59.3453 180.958 61.1411 182.12 61.8312C183.309 62.538 184.696 62.9096 186.087 62.855C187.149 62.8307 188.324 62.5865 189.137 63.2614C189.75 63.7802 189.906 64.6174 190.019 65.3863C190.21 66.5315 190.401 67.669 190.589 68.8035C190.78 69.9577 189.691 70.8814 188.567 70.5523C186.507 69.9471 184.14 70.0411 181.932 69.9987C179.496 69.9319 176.744 69.4011 175.059 67.8343C174.233 67.0654 172.834 67.4218 172.523 68.5062C172.429 68.8369 172.361 69.1736 172.32 69.5163C172.2 70.5204 171.224 71.1574 170.259 70.8541C168.004 70.1458 165.844 69.0795 164.788 67.1943C164.47 66.627 163.866 66.3176 163.218 66.3768C160.908 66.5891 158.46 65.0572 157.86 62.7882C157.61 61.863 157.541 60.7316 156.728 60.2386C156.234 59.9444 155.597 59.9884 155.01 60.0582C150.111 60.6269 145.23 61.1699 140.356 61.7387C137.694 62.0572 134.938 62.3757 132.587 63.6816C130.45 64.8525 128.71 67.0532 128.616 69.4496C128.597 69.9395 128.299 70.3687 127.885 70.6311C123.719 73.2747 120.188 76.9558 117.758 81.242C116.945 82.6419 116.246 84.2481 116.565 85.8285C116.789 87.0464 117.602 88.0839 117.852 89.2851C118.283 91.3417 117.109 93.3286 116.615 95.3595C115.215 101.14 119.602 106.583 123.67 110.957C125.589 112.988 127.808 115.201 130.608 115.313C132.344 115.382 133.995 114.613 135.619 113.976C140.269 112.145 150.361 114.306 151.767 114.6C153.167 114.895 154.679 114.438 156.035 114.913C159.129 116.019 158.703 120.557 157.303 123.519C158.004 123.381 158.729 123.244 159.446 123.112C159.27 123.57 159.093 124.028 158.917 124.483C158.626 125.233 158.931 126.12 159.665 126.447C162.877 127.879 164.031 132.669 163.158 136.361C162.189 140.542 159.709 144.378 159.639 148.672C159.621 151.021 160.338 153.302 161.063 155.533C162.759 160.837 164.45 166.141 166.144 171.46C166.367 172.158 167.047 172.645 167.773 172.563C172.076 172.073 174.871 166.551 179.161 164.715C180.923 163.946 182.998 163.79 184.378 162.478C185.167 161.731 185.337 160.384 184.988 159.412C184.728 158.69 184.995 157.916 185.637 157.494C186.962 156.624 187.9 155.128 187.945 153.528C187.971 152.871 187.877 152.216 187.963 151.566C188.12 150.64 188.707 149.829 189.269 149.034C192.856 143.885 195.181 137.985 197.507 132.161C198.113 130.599 198.725 129.068 199.331 127.505C201.631 121.699 203.912 115.918 206.211 110.113C206.637 109.031 207.066 107.956 207.494 106.879C207.911 105.829 207.101 104.763 205.973 104.76C204.773 104.757 203.496 104.307 202.568 103.538C200.693 102.007 199.718 99.676 198.25 97.7574C197.006 96.1072 195.332 94.6451 194.743 92.6325C194.406 91.4828 194.469 90.2391 194.268 89.0394C193.812 86.4397 192.1 84.2769 190.926 81.9276C190.427 80.9296 190.202 80.1105 190.235 79.3416C190.304 77.7854 192.433 77.3547 193.193 78.7152C196.742 85.0702 199.545 90.7351 202.566 97.3798C203.014 98.3641 204.323 98.6326 205.081 97.8606C205.481 97.4526 205.944 97.1068 206.449 96.8444C207.374 96.3439 208.412 96.1452 209.387 95.7387C211.962 94.6072 213.743 91.8772 213.743 89.0773C213.717 86.2775 211.937 83.5474 209.337 82.4402C208.049 81.8972 206.581 81.7213 205.363 80.972C204.144 80.2531 203.262 78.6029 204.031 77.4032C204.75 76.2718 206.495 76.2975 207.687 76.9285C208.886 77.5852 209.768 78.6909 210.893 79.4341C211.706 79.9786 212.655 80.3335 213.537 80.834C218.305 83.5656 219.479 89.7765 220.48 95.1957C221.025 98.1078 221.636 101.002 222.361 103.844C222.387 103.231 222.379 102.6 222.379 101.994C222.362 75.7379 212.208 51.8725 195.621 34.0618ZM204.764 66.8697C204.107 66.8257 203.502 66.395 202.977 65.9885C202.122 65.3135 201.259 64.5203 201.009 63.4571C200.714 62.1952 201.321 60.7452 200.646 59.6198C200.328 59.0754 199.765 58.7386 199.29 58.3579C198.047 57.3645 197.141 55.9388 196.803 54.4084C196.509 53.0525 196.933 51.2461 198.315 51.0216C198.972 50.9094 202.409 58.2457 203.67 58.9206C204.932 59.5774 206.176 60.7953 205.976 62.1952C205.569 62.3514 205.189 62.4895 204.782 62.6457C204.351 63.0764 204.694 63.8454 205.145 64.2701C205.595 64.6947 206.182 65.1255 206.208 65.758C206.208 66.439 205.439 66.9137 204.764 66.8697Z" fill="#17CE7B" stroke="#F9F5DC" stroke-width="1.4955" stroke-miterlimit="10" stroke-linecap="round" stroke-linejoin="round"/>
<path d="M205.416 136.352L203.785 137.507C204.354 139.508 203.217 141.851 201.286 142.632C200.267 143.045 198.911 143.225 198.568 144.27C198.281 145.158 198.968 146.057 199.062 146.982C199.213 148.52 197.775 149.67 196.737 150.813C195.7 151.957 195.151 154.106 196.531 154.795C196.85 154.957 197.218 154.989 197.575 155.019C199.075 155.151 200.719 155.194 201.943 154.318C205.455 151.813 202.117 145.013 205.586 142.438C206.08 142.076 206.698 141.813 206.967 141.263C207.783 139.644 204.765 138.038 205.416 136.352Z" fill="#E9EFF4"/>
<path d="M237.541 95.9889C237.541 95.9889 104.611 126.294 55.3117 122.777C28.5706 120.87 21.4967 112.019 20.5761 105.656C19.3081 96.908 22.1959 81.8047 22.1959 81.8047C22.1959 81.8047 9.02484 100.331 9.89694 104.267C10.769 108.203 32.6263 190.829 64.6076 195.016C160.171 207.531 204.003 118.691 204.003 118.691L240.867 111.837L237.541 95.9889Z" fill="#17CE7B"/>
<path d="M18.1083 95.5126C14.7882 100.78 10.2062 110.164 20.7746 118.545C40.2219 133.969 81.7265 130.972 135.03 122.261C189.567 113.349 239.082 102.737 239.082 102.737L256.454 191.406C256.454 191.406 188.447 207.364 121.736 210.62C41.3973 214.541 3.22482 196.684 0.564519 172.429C-0.489592 162.818 6.15662 154.961 13.9677 149.166C16.8479 148.258 17.4834 151.552 17.4834 151.552C12.7786 155.758 9.08387 160.009 9.30682 162.851C11.1178 185.866 80.4237 197.297 122.668 182.984C122.668 182.984 20.7579 193.404 3.0231 153.161C-4.08722 137.028 4.91748 124.457 16.1002 115.744C16.7417 115.243 19.0775 118.495 18.3919 119.153C11.6153 125.663 6.72084 132.414 8.597 136.822C18.6088 160.337 86.2539 163.523 120.459 153.904C15.3646 158.579 -2.97394 129.692 2.2769 105.555C3.91646 98.0197 11.4059 91.0853 19.1851 86.9766C18.3676 91.0004 18.4556 92.6657 18.1083 95.5126Z" fill="#F9F5DC"/>
<path d="M246.325 180.579C245.186 185.43 240.329 188.437 235.479 187.298C230.628 186.159 227.621 181.303 228.76 176.452C229.899 171.602 234.755 168.594 239.606 169.733C244.456 170.874 247.464 175.729 246.325 180.579Z" fill="#17CE7B"/>
<path d="M235.421 124.946C234.282 129.797 229.426 132.804 224.575 131.665C219.725 130.526 216.717 125.67 217.856 120.819C218.995 115.969 223.852 112.961 228.702 114.1C233.553 115.241 236.56 120.097 235.421 124.946Z" fill="#17CE7B"/>
<path d="M198.894 166.519C195.689 177.375 184.288 183.579 173.432 180.374C162.573 177.169 156.372 165.768 159.576 154.91C162.781 144.053 174.182 137.85 185.04 141.055C195.896 144.26 202.099 155.661 198.894 166.519Z" fill="#17CE7B"/>
<path d="M184.943 154.792C184.931 154.795 184.302 154.655 183.056 154.371C181.811 154.091 180.833 154.029 180.12 154.191C178.722 154.508 178.17 155.315 178.464 156.613C178.631 157.35 179.454 157.971 180.933 158.474C183.291 159.267 184.672 159.766 185.074 159.979C186.63 160.82 187.587 162.034 187.946 163.62C188.711 166.992 187.135 169.71 183.22 171.78C183.769 173.743 184.068 174.829 184.117 175.043C184.144 175.167 184.024 175.273 183.756 175.361C183.574 175.428 183.305 175.489 182.95 175.543C182.542 175.596 182.345 175.621 182.357 175.619C182.195 175.655 181.961 175.731 181.661 175.845C181.358 175.959 181.132 176.033 180.981 176.068C180.881 176.091 180.784 176.094 180.687 176.076C180.587 175.98 180.479 175.683 180.367 175.182C180.276 174.782 180.161 174.158 180.021 173.312C176.676 174.07 174.925 174.225 174.771 173.775C174.739 173.69 174.717 173.57 174.708 173.415C174.675 173.212 174.654 173.086 174.642 173.036C174.529 172.537 174.349 171.947 174.103 171.268C174.03 171.061 173.847 170.69 173.556 170.153C173.287 169.661 173.123 169.285 173.064 169.023C173.005 168.76 173.119 168.597 173.406 168.533C173.718 168.462 174.29 168.427 175.124 168.428C175.958 168.43 176.594 168.381 177.03 168.281C179.227 167.784 180.173 166.854 179.864 165.493C179.703 164.782 178.891 164.127 177.429 163.525C175.044 162.556 173.666 161.955 173.299 161.723C171.766 160.811 170.832 159.61 170.496 158.125C170.12 156.466 170.393 154.86 171.316 153.313C172.189 151.842 173.425 150.754 175.025 150.05C175.051 150.164 174.965 149.867 174.766 149.163C174.62 148.632 174.531 148.214 174.501 147.906C174.455 147.469 174.525 147.229 174.711 147.187L177.933 146.457C178.083 146.424 178.22 146.591 178.341 146.956C178.441 147.223 178.534 147.601 178.618 148.094C178.744 148.761 178.796 149.052 178.776 148.964C179.524 148.848 180.769 148.861 182.507 149.005C184.5 149.169 185.545 149.465 185.641 149.888C185.661 149.976 185.661 150.147 185.639 150.401C185.548 150.815 185.448 151.441 185.336 152.281C185.345 152.726 185.33 153.384 185.292 154.259C185.272 154.566 185.154 154.745 184.943 154.792Z" fill="#F9F5DC"/>
<path d="M128.23 201.883C182.213 201.883 248.074 185.316 248.074 185.316L233.679 111.844C233.679 111.844 169.368 128.053 122.483 132.792C122.483 132.792 152.115 133.219 229.799 118.335C231.181 126.899 241.14 175.714 242.173 179.217C225.562 187.605 128.23 201.883 128.23 201.883Z" fill="#17CE7B"/>
</svg>
