<svg width="257" height="114" viewBox="0 0 257 114" fill="none" xmlns="http://www.w3.org/2000/svg">
<path d="M54.4253 103.443L19.9579 32.5234H0.838867L40.4336 113.996L135.973 92.077L54.4253 103.443Z" fill="url(#paint0_linear_30_26)"/>
<path d="M71.9721 87.2073L37.5058 16.2891H18.3867L57.9815 97.7614L153.521 87.2073H71.9721Z" fill="url(#paint1_linear_30_26)"/>
<path d="M252.312 72.4765H192.674H170.169C167.668 72.4765 165.642 70.4505 165.642 67.9501C165.642 65.4498 167.668 63.4238 170.169 63.4238H191.29H228.769C231.268 63.4238 233.295 61.3977 233.295 58.8974C233.295 56.3982 231.269 54.371 228.769 54.371H189.906H187.13C184.631 54.371 182.604 52.345 182.604 49.8447C182.604 47.3444 184.63 45.3183 187.13 45.3183H188.523H197.106C199.606 45.3183 201.632 43.2923 201.632 40.792C201.632 38.2916 199.606 36.2656 197.106 36.2656H187.139H144.373H136.525C134.025 36.2656 131.999 34.2395 131.999 31.7392C131.999 29.2389 134.025 27.2129 136.525 27.2129H139.846H174.39H206.035C208.534 27.2129 210.562 25.1868 210.562 22.6865C210.562 20.1873 208.534 18.1601 206.035 18.1601H173.006H163.315C160.815 18.1601 158.788 16.133 158.788 13.6338C158.788 11.1346 160.814 9.10741 163.315 9.10741H182.989H226.602C229.101 9.10741 231.128 7.08136 231.128 4.58105C231.128 2.08185 229.102 0.0546875 226.602 0.0546875H181.606H151.212H35.9316L75.5275 81.527H155.74H194.056H252.312C254.812 81.527 256.839 79.5009 256.839 77.0006C256.839 74.5025 254.812 72.4765 252.312 72.4765Z" fill="url(#paint2_linear_30_26)"/>
<path d="M105.278 52.0498C104.55 50.3433 103.468 48.953 102.03 47.88C100.593 46.8047 98.4874 45.8046 95.7124 44.8785C90.3092 43.172 86.0295 41.2715 82.8711 39.1748C79.7137 37.0793 77.3221 34.126 75.6975 30.3138C74.1883 26.7753 74.0841 23.8747 75.3836 21.6098C76.6819 19.3449 79.1621 18.0129 82.8262 17.6138L79.9301 10.8203H84.9532L87.8762 17.6766C91.8162 18.2249 95.3883 19.7721 98.5917 22.3207C101.795 24.8692 104.242 28.1757 105.932 32.2401L105.905 32.3982H96.9009C95.8413 29.9136 94.5138 27.9963 92.9183 26.6486C91.3217 25.3009 89.6387 24.6259 87.8695 24.6259C86.0576 24.6259 84.933 25.1473 84.4923 26.19C84.0517 27.2327 84.1997 28.6174 84.9363 30.3441C85.636 31.9867 86.6731 33.3187 88.0455 34.3401C89.419 35.3627 91.5695 36.3673 94.497 37.3573C99.9327 39.1894 104.217 41.1482 107.35 43.2337C110.481 45.318 112.847 48.2354 114.445 51.9848C116.006 55.65 116.128 58.5764 114.809 60.7673C113.489 62.9581 110.977 64.252 107.272 64.6534L109.938 70.9087H104.915L102.263 64.6848C98.1533 64.2845 94.3041 62.8898 90.7151 60.4993C87.1261 58.1089 84.387 54.5972 82.4955 49.9643L82.491 49.8062H91.4955C92.6985 52.6283 94.2077 54.651 96.0241 55.872C97.8405 57.0942 99.7477 57.7041 101.749 57.7041C103.665 57.7041 104.916 57.1951 105.503 56.1725C106.089 55.1511 106.014 53.7765 105.278 52.0498Z" fill="white"/>
<defs>
<linearGradient id="paint0_linear_30_26" x1="0.838643" y1="73.2599" x2="135.973" y2="73.2599" gradientUnits="userSpaceOnUse">
<stop stop-color="#26C6DA"/>
<stop offset="1" stop-color="#AFE157"/>
</linearGradient>
<linearGradient id="paint1_linear_30_26" x1="18.3864" y1="57.0251" x2="153.521" y2="57.0251" gradientUnits="userSpaceOnUse">
<stop stop-color="#26C6DA"/>
<stop offset="1" stop-color="#AFE157"/>
</linearGradient>
<linearGradient id="paint2_linear_30_26" x1="35.9322" y1="40.7925" x2="256.839" y2="40.7925" gradientUnits="userSpaceOnUse">
<stop stop-color="#26C6DA"/>
<stop offset="1" stop-color="#AFE157"/>
</linearGradient>
</defs>
</svg>
