<svg width="257" height="176" viewBox="0 0 257 176" fill="none" xmlns="http://www.w3.org/2000/svg">
<path d="M74.703 102.139C74.703 101.921 74.7164 101.706 74.72 101.488L1.37307 77.0391C1.37307 77.0391 -8.29359 104.232 59.9844 109.668L4.99883 106.646C4.99883 106.646 2.71522 127.796 59.7481 121.149C59.7481 121.149 34.084 128.756 11.1225 126.341C11.1225 126.341 18.5848 151.365 65.7244 132.567L30.3755 149.548C30.3755 149.548 46.1415 161.699 64.8792 149.805L50.9218 161.027C50.9218 161.027 71.238 169.78 83.9251 152.259L74.6762 175.559C74.6762 175.559 87.2074 177.92 99.143 157.035L93.2178 175.534C93.2178 175.534 104.094 176.742 108.93 163.447C110.241 159.841 111.548 156.652 112.762 153.895C90.7113 147.023 74.703 126.451 74.703 102.139Z" fill="#2C4658"/>
<path d="M197.822 109.575C266.1 104.138 256.432 76.9453 256.432 76.9453L183.302 101.321C183.305 101.594 183.322 101.863 183.322 102.137C183.322 126.506 167.237 147.116 145.106 153.937C146.304 156.663 147.589 159.807 148.878 163.352C153.712 176.647 164.59 175.439 164.59 175.439L158.663 156.94C170.598 177.826 183.131 175.464 183.131 175.464L173.881 152.165C186.568 169.686 206.886 160.933 206.886 160.933L192.929 149.713C211.665 161.604 227.429 149.454 227.429 149.454L192.08 132.473C239.221 151.271 246.684 126.247 246.684 126.247C223.721 128.662 198.058 121.055 198.058 121.055C255.091 127.701 252.809 106.552 252.809 106.552L197.822 109.575Z" fill="#2C4658"/>
<path d="M90.5088 32.3584C90.8656 32.3584 91.2079 32.306 91.5355 32.2159L98.5191 57.405C107.228 51.4347 117.765 47.9356 129.122 47.9356C140.476 47.9356 151.012 51.4335 159.72 57.4013L166.703 32.2147C167.032 32.306 167.378 32.3596 167.737 32.3596C169.863 32.3596 171.586 30.6363 171.586 28.511C171.586 26.3857 169.863 24.6624 167.737 24.6624C165.612 24.6624 163.889 26.3857 163.889 28.511C163.889 29.5219 164.282 30.439 164.919 31.1259L157.119 38.3823C155.121 40.2323 151.879 38.7927 151.912 36.0682L152.165 16.4377C152.184 16.4377 152.203 16.4402 152.221 16.4402C154.346 16.4402 156.07 14.7168 156.07 12.5915C156.07 10.4663 154.346 8.74291 152.221 8.74291C150.096 8.74291 148.372 10.4663 148.372 12.5915C148.372 13.9751 149.105 15.1857 150.202 15.8629L140.815 31.1283C139.368 33.4838 135.789 32.9041 135.157 30.2064L129.995 8.09375C131.699 7.69792 132.969 6.17309 132.969 4.34864C132.969 2.22336 131.246 0.5 129.121 0.5C126.995 0.5 125.272 2.22336 125.272 4.34864C125.272 6.17309 126.542 7.6967 128.245 8.09252L123.077 30.2051C122.451 32.9028 118.872 33.4813 117.425 31.1271L108.035 15.8641C109.133 15.1869 109.869 13.9751 109.869 12.5903C109.869 10.465 108.146 8.74168 106.02 8.74168C103.895 8.74168 102.172 10.465 102.172 12.5903C102.172 14.7156 103.895 16.439 106.02 16.439C106.037 16.439 106.053 16.4365 106.07 16.4365L106.324 36.0658C106.364 38.7903 103.114 40.2311 101.122 38.3798L93.3197 31.1271C93.9592 30.4402 94.3526 29.5219 94.3526 28.5098C94.3526 26.3845 92.6292 24.6611 90.5039 24.6611C88.3786 24.6611 86.6553 26.3845 86.6553 28.5098C86.6553 30.6351 88.3835 32.3584 90.5088 32.3584Z" fill="#2C4658"/>
<path d="M177.522 101.757C177.522 94.216 175.786 87.0716 172.695 80.7031L161.28 101.714L161.306 101.759L148.715 123.565L172.628 122.947C175.758 116.543 177.522 109.354 177.522 101.757Z" fill="#006BB1"/>
<path d="M141.794 123.695L154.464 101.749L141.794 79.8047H116.452L103.782 101.749L116.452 123.695H141.794Z" fill="#2C4658"/>
<path d="M85.6197 80.5718C82.4884 86.9757 80.7236 94.1651 80.7236 101.761C80.7236 109.304 82.4604 116.448 85.5515 122.818L96.9683 101.805L96.9427 101.762L109.536 79.9531L85.6197 80.5718Z" fill="#DFBA4F"/>
<path d="M113.009 73.9326L113.032 73.89H114.603L114.668 73.8887L138.215 73.89L125.723 53.4922C110.526 54.553 97.2383 62.6485 89.1172 74.5501L113.009 73.9326Z" fill="#62C7AA"/>
<path d="M145.165 73.8856H145.215L157.808 95.6937L169.222 74.6809C161.139 62.7465 147.871 54.6107 132.68 53.5L145.165 73.8856Z" fill="#00C1F3"/>
<path d="M145.241 129.581L145.213 129.626H120.031L132.521 150.021C147.718 148.96 161.005 140.864 169.126 128.961L145.241 129.581Z" fill="#9D70B7"/>
<path d="M113.084 129.63H113.032L100.44 107.82L89.0234 128.832C97.1068 140.766 110.376 148.904 125.566 150.014L113.084 129.63Z" fill="#E87C56"/>
</svg>
