<svg width="220" height="257" viewBox="0 0 220 257" fill="none" xmlns="http://www.w3.org/2000/svg">
<path d="M207.988 245.203C174.681 229.355 143.643 231.787 121.275 229.07C94.9925 231.462 85.0301 243.066 91.8404 250.131C103.083 260.037 134.594 257.736 165.615 251.684C195.401 245.871 207.99 249.626 207.99 249.626C207.99 249.626 208.987 245.677 207.988 245.203Z" fill="#35F9FF"/>
<path d="M29.4048 251.843C-30.8588 221.406 0.366438 -7.41098 140.28 1.13163C55.0111 8.29535 20.0155 210.75 74.8692 251.843H29.4048Z" fill="#35F9FF"/>
<path d="M169.626 9.18375C158.069 3.40752 135.445 9.56509 125.133 19.8722C150.052 30.4918 172.244 54.829 174.762 88.5923C182.12 187.189 87.5156 171.657 87.5156 196.94V241.642C87.5156 216.919 152.78 227.528 190.966 183.929C242.235 125.395 218.201 36.1495 169.626 9.18375Z" fill="#35F9FF"/>
</svg>
