<svg width="191" height="257" viewBox="0 0 191 257" fill="none" xmlns="http://www.w3.org/2000/svg">
<path d="M154.561 177.789C124.875 177.789 124.343 228.266 89.748 244.03C100.852 249.646 115.016 251.019 124.523 246.844C157.83 227.255 161.855 182.281 190.107 177.789H154.561Z" fill="#35F9FF"/>
<path d="M119.081 123.128C97.0317 109.659 93.7925 69.2852 129.655 53.9062H120.083C82.9951 63.0798 75.8518 108.641 97.6862 123.929C105.538 126.797 112.948 125.627 119.081 123.128Z" fill="#35F9FF"/>
<path d="M136.645 6.72113C129.706 4.92018 116.795 9.34542 107.529 19.2444C173.804 31.5175 160.518 125.071 114.804 128.954H129.262C182.035 126.522 199.078 22.9192 136.645 6.72113Z" fill="#35F9FF"/>
<path d="M107.177 253.792C42.2255 269.974 -11.6341 223.359 2.84018 132.839C18.5777 34.4181 83.6141 0.960938 124.973 0.960938C44.7352 7.54983 -3.30058 254.249 107.177 253.792Z" fill="#35F9FF"/>
</svg>
