<svg width="194" height="257" viewBox="0 0 194 257" fill="none" xmlns="http://www.w3.org/2000/svg">
<path d="M117.484 247.286C90.5048 237.226 76.5151 208.244 111.233 192.973L107.877 187.461C67.7345 198.33 64.9695 232.089 89.518 247.042C92.9885 249.288 110.024 250.174 117.484 247.286Z" fill="#35F9FF"/>
<path d="M173.812 186.414C175.561 216.101 140.885 257.418 98.7705 252.16C135.568 263.745 178.489 243.397 190.755 215.881C196.74 199.964 181.834 190.311 173.812 186.414Z" fill="#35F9FF"/>
<path d="M193.879 196.671C193.879 148.653 155.352 140.444 124.467 132.703C106.642 134.36 82.4869 145.348 88.4894 155.427C88.896 156.339 90.217 157.559 90.5709 157.871C108.972 174.591 188.655 161.406 193.934 204.788C193.934 204.788 193.879 202.502 193.879 196.671Z" fill="#35F9FF"/>
<path d="M30.6432 256.758C-30.8345 225.708 1.01977 -7.72109 143.752 0.995818C56.7654 8.30387 21.0647 214.837 77.0235 256.758H30.6432Z" fill="#35F9FF"/>
<path d="M170.985 12.1754C164.34 7.06963 151.825 7.66745 148.684 9.10269C169.384 25.6024 160.531 61.5976 117.512 81.8469C84.9385 97.1795 86.82 102.92 86.82 114.042C86.82 123.864 86.82 150.266 86.82 150.266C86.82 127.247 121.349 133.641 161.632 95.0805C195.373 62.7801 189.293 29.1147 170.985 12.1754Z" fill="#35F9FF"/>
</svg>
