<svg width="193" height="257" viewBox="0 0 193 257" fill="none" xmlns="http://www.w3.org/2000/svg">
<path d="M96.3783 192.613C69.9333 192.613 45.8355 181.816 28.4663 164.447C11.0971 147.078 0.300049 122.98 0.300049 96.3783C0.300049 69.7768 11.0971 45.8355 28.4663 28.4663C45.8355 10.9406 69.9333 0.300049 96.3783 0.300049V64.4565C87.6155 64.4565 79.635 68.0555 73.8453 73.8453C68.0555 79.635 64.4565 87.6155 64.4565 96.3783C64.4565 105.298 68.0555 113.278 73.8453 118.911C79.635 124.701 87.6155 128.3 96.3783 128.3V192.613Z" fill="#C7A349"/>
<path d="M96.3783 63.9871C122.98 63.9871 147.078 74.7841 164.447 92.1533C181.816 109.523 192.613 133.62 192.613 160.222C192.613 186.823 181.816 210.765 164.447 228.134C147.078 245.659 122.98 256.3 96.3783 256.3V192.144C105.298 192.144 113.278 188.545 119.068 182.755C124.858 176.965 128.3 168.985 128.3 160.222C128.3 151.302 124.858 143.322 119.068 137.689C113.278 131.899 105.298 128.3 96.3783 128.3V63.9871Z" fill="#001F1F"/>
</svg>
