<svg width="257" height="196" viewBox="0 0 257 196" fill="none" xmlns="http://www.w3.org/2000/svg">
<path d="M155.343 78.6263L128.931 62.5078L102.518 78.6263H0.931641V117.062L128.931 195.172L256.931 117.062V78.6263H155.343Z" fill="#494949"/>
<path d="M256.932 78.6194L128.932 156.73L0.931641 78.6194L128.932 0.507812L256.932 78.6194Z" fill="#494949"/>
<path d="M218.575 78.6266L128.931 133.33L39.2891 78.6266L128.931 23.9219L218.575 78.6266Z" fill="white"/>
<path d="M189.938 78.6199L128.93 115.849L67.9219 78.6199L128.93 41.3906L189.938 78.6199Z" fill="#494949"/>
<path d="M128.93 115.854V133.329L67.9219 96.0993V78.625L128.93 115.854Z" fill="#EDEDED"/>
<path d="M128.932 133.329L189.94 96.0993V78.625L128.932 115.854V133.329Z" fill="#C1C1C1"/>
<path d="M128.932 156.736V195.171L0.932742 117.06L0.931641 78.625L128.932 156.736Z" fill="#353535"/>
<path d="M128.932 195.171L256.932 117.06V78.625L128.932 156.736V195.171Z" fill="#303030"/>
<path d="M161.313 78.6277L128.932 98.3871V58.8672L161.313 78.6277Z" fill="#FF682C"/>
<path d="M143.032 78.6226L128.225 87.6594V69.5859L143.032 78.6226Z" fill="#494949"/>
<path d="M143.032 78.625V89.7807L128.932 98.3844V87.2288L143.032 78.625Z" fill="#C1C1C1"/>
<path d="M128.932 23.9219V41.3972L189.94 78.6266V96.1008L218.575 78.6266L128.932 23.9219Z" fill="#F2F2F2"/>
</svg>
