<svg width="257" height="256" viewBox="0 0 257 256" fill="none" xmlns="http://www.w3.org/2000/svg">
<path d="M254.537 102.746C256.829 120.572 237.093 207.282 177.758 234.276C221.814 209.829 281.021 95.3607 221.814 40.355C212.391 34.2432 202.969 31.442 194.947 29.9141C281.276 59.9635 208.826 267.635 66.2188 239.878C84.6813 249.937 105.818 255.794 128.355 255.794C214.429 255.794 269.18 176.214 254.537 102.746Z" fill="url(#paint0_linear_30_21)"/>
<path d="M55.9061 214.661C54.2508 222.173 47.8844 221.664 32.0958 201.036C-37.68 110.634 139.943 -10.9647 221.814 40.3485C173.812 -9.56411 90.412 -14.9119 37.5709 37.6746C16.3071 58.811 4.08359 85.5499 0.900391 113.307C7.64878 93.0623 55.5241 5.20594 154.331 19.976C96.0144 16.7928 49.0304 50.5347 24.5834 83.0034C-11.1958 130.115 5.73885 191.741 41.518 221.918C51.9589 227.903 55.0148 221.664 55.9061 214.661Z" fill="url(#paint1_linear_30_21)"/>
<path d="M50.3032 168.947C51.8312 177.351 58.4522 203.962 55.9057 214.658C55.0144 221.661 51.9585 227.9 41.5176 221.915C66.3465 242.288 65.4552 194.795 96.9053 151.758C98.0512 150.357 95.5047 115.087 96.6506 113.687C97.2873 112.923 101.489 145.901 102.253 145.009C107.601 138.516 113.967 132.149 121.352 126.165C122.116 125.656 125.681 101.081 126.445 100.572C127.082 100.063 124.917 123.364 125.554 122.854C133.83 116.87 150.638 108.084 161.588 103.5C156.113 106.811 140.324 116.361 133.066 122.6L159.296 120.817C159.296 120.817 128.992 126.165 128.228 126.929C124.79 129.985 113.076 142.717 101.489 161.435C100.852 162.581 138.924 156.724 138.287 157.87C137.523 159.143 97.7966 167.546 97.0326 168.82C89.5203 182.062 82.5172 197.596 78.4427 214.53C199.914 245.089 200.55 83.0006 201.187 43.6562C168.973 90.3856 32.6046 73.451 50.3032 168.947Z" fill="url(#paint2_linear_30_21)"/>
<defs>
<linearGradient id="paint0_linear_30_21" x1="384.191" y1="113.78" x2="229.905" y2="360.237" gradientUnits="userSpaceOnUse">
<stop stop-color="#A5CD39"/>
<stop offset="0.557" stop-color="#50B748"/>
<stop offset="1" stop-color="#006838"/>
</linearGradient>
<linearGradient id="paint1_linear_30_21" x1="-53.9984" y1="38.2616" x2="144.868" y2="-106.177" gradientUnits="userSpaceOnUse">
<stop stop-color="#A5CD39"/>
<stop offset="0.557" stop-color="#50B748"/>
<stop offset="1" stop-color="#006838"/>
</linearGradient>
<linearGradient id="paint2_linear_30_21" x1="262.642" y1="167.381" x2="180.339" y2="302.216" gradientUnits="userSpaceOnUse">
<stop stop-color="#A5CD39"/>
<stop offset="0.557" stop-color="#50B748"/>
<stop offset="1" stop-color="#006838"/>
</linearGradient>
</defs>
</svg>
