<svg width="257" height="216" viewBox="0 0 257 216" fill="none" xmlns="http://www.w3.org/2000/svg">
<path fill-rule="evenodd" clip-rule="evenodd" d="M256.1 0.899902V215.9H0.0999756V0.899902H256.1ZM13.4426 195.805L121.785 14.4152H109.865L13.4426 175.887V195.805ZM13.4426 160.06L100.436 14.4152H86.2042L13.4426 136.231V160.06ZM13.4426 120.404L76.7755 14.4152H62.5434L13.4426 96.574V120.404ZM13.4426 80.7468L53.1146 14.4152H38.8825L13.4426 56.9173V80.7468ZM231.194 200.606L128.011 27.7526L24.6504 200.606H44.5753L119.65 78.6128L51.5135 200.606H72.6838L128.011 102.087L183.338 200.606H204.509L136.372 78.6128L211.447 200.606H231.194ZM113.957 181.756L89.4064 184.779H166.438L141.709 181.756L164.125 179.088L141.709 176.065L162.168 173.398L141.709 170.73L159.322 168.418V168.241L141.709 165.929L157.009 163.973H156.831H98.8352L113.957 165.929L96.5225 168.241L96.3446 168.418L113.957 170.73L93.4982 173.398L113.957 176.065L91.5413 179.088L113.957 181.756ZM242.402 195.627V175.71L145.979 14.4152H134.06L242.402 195.627ZM242.402 159.883V136.053L169.64 14.2374H155.408L242.402 159.883ZM242.402 120.226V96.3961L193.301 14.2374H179.069L242.402 120.226ZM242.402 80.5691V56.7394L216.962 14.2374H202.73L242.402 80.5691ZM242.402 14.2374H226.39L242.402 40.9123V14.2374ZM13.2647 14.2374V40.9123L29.2758 14.2374H13.2647Z" fill="#4A5172"/>
</svg>
