<svg width="229" height="257" viewBox="0 0 229 257" fill="none" xmlns="http://www.w3.org/2000/svg">
<path d="M70.8723 256.215C61.2688 256.215 49.9239 251.144 46.9628 236.913C45.1044 228.045 59.5074 176.682 25.666 158.656C87.5802 175.752 119.408 257.086 70.8723 256.215Z" fill="#85181F"/>
<path d="M179.927 146.904C184.979 136.953 186.936 125.975 186.006 114.436C184.785 98.0573 178.359 83.9429 167.73 74.3594C179.849 115.501 157.236 142.606 108.816 122.026C125.543 160.204 162.077 156.469 179.927 146.904Z" fill="#F5A108"/>
<path d="M114.102 19.3678C92.2061 41.1483 83.9201 72.222 81.1523 98.4171C89.7676 83.6639 98.8667 72.2991 108.159 64.594C108.141 64.594 108.141 64.594 108.12 64.594C145.989 33.3071 189.219 51.5258 218.357 88.5042C218.414 88.6785 218.435 88.8336 218.473 89.0261C222.229 93.8282 225.443 98.7266 228.076 103.47C230.922 27.2472 152.978 -1.69669 114.102 19.3678Z" fill="#E74917"/>
<path d="M90.1374 215.308C93.1566 185.53 78.7535 74.0708 0.421875 56.7812C6.40463 62.8802 39.8387 104.893 47.8151 168.067C68.1437 179.916 83.1666 198.348 90.1374 215.308Z" fill="#B6191D"/>
<path d="M41.7148 78.5563C61.5597 96.7759 73.989 122.816 81.3067 147.791C80.4165 139.427 67.4247 31.4518 142.755 0.378135C90.8711 -2.66178 50.6595 38.3057 41.7148 78.5563Z" fill="#E1121A"/>
<path d="M153.619 174.143C177.779 159.35 187.925 138.054 186.007 114.434C183.22 77.0098 153.172 51.3763 108.121 64.5996C145.99 33.3127 189.221 51.5505 218.358 88.5098C231.272 143.204 184.768 176.833 153.619 174.143Z" fill="#EB661D"/>
</svg>
