<svg width="257" height="245" viewBox="0 0 257 245" fill="none" xmlns="http://www.w3.org/2000/svg">
<path d="M65.5636 129.359L82.78 149.145C86.4431 153.386 91.1001 152.549 93.0908 147.314L110.759 101.22C112.749 95.9844 116.539 95.7592 119.173 100.707L139.633 139.348C142.267 144.295 146.925 144.488 149.977 139.799L163.209 119.434C166.296 114.744 172.559 113.49 177.184 116.671L205.706 136.363C197.002 86.4126 119.784 0.359375 119.784 0.359375C119.784 0.359375 33.0254 96.9803 33.0254 144.907C33.0254 149.436 33.3785 153.869 34.053 158.237L53.1332 130.098C56.2815 125.472 61.8708 125.117 65.5636 129.359Z" fill="url(#paint0_radial_30_13)"/>
<path d="M256.939 182.904L177.186 129.132C172.56 125.952 166.297 127.205 163.211 131.895L149.979 152.26C146.927 156.949 142.269 156.758 139.635 151.811L119.175 113.169C116.542 108.221 112.752 108.446 110.76 113.682L93.0928 159.775C91.102 165.011 86.4451 165.848 82.782 161.606L65.5656 141.821C61.8728 137.58 56.2834 137.934 53.1351 142.56L0.939453 218.558L37.3957 184.704L42.9205 197.584C57.439 225.24 86.3796 244.094 119.786 244.094C161.06 244.094 195.592 215.249 204.327 176.609L207.154 163.279L256.939 182.904Z" fill="url(#paint1_radial_30_13)"/>
<defs>
<radialGradient id="paint0_radial_30_13" cx="0" cy="0" r="1" gradientUnits="userSpaceOnUse" gradientTransform="translate(115.114 118.425) scale(112.939 112.939)">
<stop stop-color="#93C01F"/>
<stop offset="1" stop-color="#39A935"/>
</radialGradient>
<radialGradient id="paint1_radial_30_13" cx="0" cy="0" r="1" gradientUnits="userSpaceOnUse" gradientTransform="translate(115.115 118.425) scale(112.938 112.938)">
<stop stop-color="#35A8E0"/>
<stop offset="1" stop-color="#1D70B7"/>
</radialGradient>
</defs>
</svg>
