<svg width="230" height="256" viewBox="0 0 230 256" fill="none" xmlns="http://www.w3.org/2000/svg">
<path fill-rule="evenodd" clip-rule="evenodd" d="M116.766 0.110062C137.464 1.71155 150.999 27.37 157.979 44.2408C163.131 56.9103 172.599 79.3029 159.878 101.473C158.638 76.1228 143.607 13.1481 115.923 11.0064L115.834 10.9994L115.746 10.9914C107.108 10.1814 98.2941 17.9963 91.3804 25.8469C94.9786 24.9627 98.5837 24.0993 102.198 23.2978C105.847 22.4888 111.293 21.1827 114.996 21.5038C123.015 22.1917 128.859 28.9944 132.783 35.4196C145.222 58.4969 155.806 92.6641 141.253 121.442C141.866 101.327 139.211 84.7553 133.314 65.0505C130.929 57.082 127.802 48.2325 123.457 41.1152C121.706 38.2482 117.851 32.7115 114.055 32.3915C109.236 31.9521 70.223 42.8516 63.127 43.8915L74.4595 29.3635C84.3676 16.6636 98.6978 -1.58475 116.766 0.110062Z" fill="#F58220"/>
<path fill-rule="evenodd" clip-rule="evenodd" d="M112.585 255.887C91.888 254.286 78.353 228.628 71.3716 211.757C66.2205 199.087 56.7518 176.694 69.4736 154.525C70.7135 179.875 85.745 242.849 113.428 244.991L113.517 244.998L113.605 245.007C122.243 245.816 131.057 238.001 137.971 230.151C134.372 231.035 130.767 231.898 127.154 232.7C123.504 233.509 118.058 234.815 114.355 234.493C106.336 233.805 100.492 227.003 96.5677 220.577C84.1286 197.5 73.5453 163.332 88.099 134.555C87.4851 154.67 90.1404 171.242 96.0376 190.946C98.422 198.914 101.549 207.764 105.894 214.882C107.645 217.749 111.5 223.285 115.296 223.605C120.115 224.044 159.128 213.145 166.224 212.105L154.891 226.633C144.985 239.334 130.654 257.582 112.585 255.887Z" fill="#0095DA"/>
<path fill-rule="evenodd" clip-rule="evenodd" d="M226.476 65.8672C235.438 84.5918 219.984 109.143 208.865 123.624C200.468 134.42 185.81 153.816 160.25 153.884C181.583 140.135 228.605 95.6304 216.618 70.5847L216.58 70.5042L216.543 70.4237C212.926 62.5379 201.75 58.8122 191.495 56.75C194.06 59.4239 196.61 62.1144 199.111 64.8433C201.636 67.5994 205.49 71.6625 207.064 75.0303C210.477 82.3189 207.508 90.7817 203.906 97.393C190.14 119.704 165.842 145.953 133.643 147.739C151.369 138.213 164.393 127.627 178.509 112.668C184.218 106.618 190.319 99.4862 194.31 92.1635C195.917 89.2138 198.785 83.1071 197.164 79.6598C195.135 75.2666 166.19 46.9304 161.741 41.3047L179.989 43.8554C195.941 46.0857 218.909 49.3718 226.476 65.8672Z" fill="#ECB229"/>
<path fill-rule="evenodd" clip-rule="evenodd" d="M2.87529 190.134C-6.08621 171.409 9.36709 146.858 20.4868 132.377C28.8836 121.581 43.5418 102.185 69.1021 102.117C47.7687 115.866 0.746367 160.371 12.7333 185.416L12.7722 185.497L12.809 185.577C16.4263 193.463 27.6015 197.189 37.8574 199.251C35.2922 196.577 32.742 193.886 30.2408 191.157C27.7157 188.402 23.8615 184.338 22.2883 180.97C18.8741 173.682 21.8436 165.219 25.446 158.608C39.2119 136.296 63.5099 110.047 95.7093 108.262C77.982 117.788 64.9584 128.373 50.8426 143.332C45.1336 149.382 39.0333 156.514 35.0421 163.837C33.4347 166.787 30.5672 172.893 32.1879 176.341C34.2171 180.734 63.1622 209.07 67.611 214.696L49.3627 212.146C33.4107 209.915 10.4417 206.629 2.87529 190.134Z" fill="#7670B3"/>
<path fill-rule="evenodd" clip-rule="evenodd" d="M224.386 193.757C212.65 210.88 183.663 209.773 165.561 207.384C152.013 205.51 127.886 202.514 115.048 180.412C137.621 192.013 199.675 210.483 215.371 187.579L215.421 187.506L215.473 187.433C220.493 180.357 218.132 168.817 214.791 158.904C213.757 162.463 212.703 166.016 211.59 169.546C210.466 173.111 208.873 178.481 206.744 181.527C202.138 188.129 193.325 189.788 185.798 189.974C159.593 189.208 124.712 181.29 107.066 154.297C124.179 164.886 139.859 170.873 159.872 175.618C167.965 177.537 177.192 179.254 185.53 179.049C188.888 178.966 195.61 178.396 197.785 175.269C200.575 171.315 210.643 132.08 213.29 125.414L220.206 142.493C226.249 157.422 234.888 178.956 224.386 193.757Z" fill="#00A651"/>
<path fill-rule="evenodd" clip-rule="evenodd" d="M4.96555 62.2476C16.7013 45.1245 45.6896 46.2316 63.7907 48.6213C77.3386 50.4953 101.465 53.4914 114.304 75.5933C91.7306 63.9925 29.6769 45.5224 13.9804 68.4263L13.9302 68.4999L13.879 68.5725C8.85807 75.6477 11.2195 87.1888 14.5611 97.1017C15.5947 93.543 16.649 89.9891 17.762 86.4587C18.8862 82.8936 20.478 77.5249 22.6075 74.4782C27.213 67.8771 36.0263 66.2174 43.5527 66.0313C69.7583 66.7977 104.639 74.716 122.285 101.708C105.172 91.1191 89.4929 85.1329 69.4794 80.3876C61.3861 78.4678 52.1585 76.7516 43.822 76.9559C40.4638 77.0391 33.7417 77.6086 31.5663 80.7359C28.7761 84.6897 18.7091 123.925 16.0613 130.591L9.14604 113.512C3.1022 98.5831 -5.53665 77.0481 4.96555 62.2476Z" fill="#ED1C24"/>
</svg>
