<svg width="257" height="154" viewBox="0 0 257 154" fill="none" xmlns="http://www.w3.org/2000/svg">
<path d="M119.079 91.2969C112.344 93.5122 106.602 97.9133 102.703 103.669H131.214L119.079 91.2969Z" fill="url(#paint0_linear_30_9)"/>
<path d="M100.623 107.23C98.4768 111.507 97.2617 116.332 97.2617 121.444C97.2617 123.557 97.4727 125.62 97.8667 127.618L118.085 107.23H100.623Z" fill="url(#paint1_linear_30_9)"/>
<path d="M143.377 93.1461C139.06 90.9496 134.179 89.7031 129.004 89.7031C127.056 89.7031 125.152 89.8882 123.301 90.2243L143.377 110.945V93.1461Z" fill="url(#paint2_linear_30_9)"/>
<path d="M159.325 112.026C157.235 105.293 152.958 99.5265 147.332 95.5391V124.17L159.325 112.026Z" fill="url(#paint3_linear_30_9)"/>
<path d="M139.026 151.564C145.661 149.356 151.322 145.024 155.199 139.367H126.715L139.026 151.564Z" fill="url(#paint4_linear_30_9)"/>
<path d="M114.75 149.806C119.037 151.965 123.877 153.188 129.005 153.188C130.635 153.188 132.236 153.064 133.801 152.827L114.75 132.535V149.806Z" fill="url(#paint5_linear_30_9)"/>
<path d="M98.9102 131.533C101.105 138.085 105.375 143.682 110.945 147.544V119.312L98.9102 131.533Z" fill="url(#paint6_linear_30_9)"/>
<path d="M157.274 135.88C159.49 131.549 160.746 126.645 160.746 121.446C160.746 119.698 160.6 117.987 160.328 116.316L140.477 135.879H157.274V135.88Z" fill="url(#paint7_linear_30_9)"/>
<path d="M93.8482 121.362C93.8482 117.159 94.587 113.129 95.9394 109.393C90.513 108.058 90.1632 99.2168 93.9202 97.4814C102.705 93.4239 104.384 83.8041 93.665 76.1177C82.9456 68.4318 12.5033 34.091 0.923155 0.898438C-3.01052 33.1532 45.8346 63.314 72.3582 78.6738C73.7178 79.4612 74.5085 81.1617 74.3825 83.0299C73.7865 91.8724 73.9169 117.682 94.3431 127.256C94.0193 125.339 93.8482 123.37 93.8482 121.362Z" fill="url(#paint8_linear_30_9)"/>
<path d="M94.9883 130.272C84.4048 125.908 78.7304 117.582 75.7014 109.5C72.8279 102.057 71.8038 92.5555 72.2205 84.2918C72.3053 82.6089 71.5835 81.0921 70.3589 80.3823C67.0344 78.4553 63.007 76.088 58.5889 73.3596C57.9585 72.9704 57.1717 73.0394 56.5332 73.5375C55.8948 74.0357 55.5041 74.8864 55.5118 75.7609C55.7909 107.33 66.6067 129.453 96.7583 135.384C96.0428 133.742 95.4485 132.034 94.9883 130.272Z" fill="url(#paint9_linear_30_9)"/>
<path d="M50.9612 68.5185C52.5061 69.5256 53.4422 71.4696 53.4258 73.6449C53.4055 76.316 53.4407 79.0671 53.6141 82.1663C53.6407 82.6423 53.452 83.1208 53.1186 83.4232C52.7849 83.7255 52.3566 83.8055 51.9925 83.6354C8.69724 63.4181 5.36112 37.0814 6.34671 28.2383C16.6786 44.3995 35.4784 58.4257 50.9612 68.5185Z" fill="url(#paint10_linear_30_9)"/>
<path d="M55.5486 104.266C56.8345 104.63 57.883 105.656 58.4191 107.078C59.7662 110.65 61.3236 113.767 63.0799 116.552C63.299 116.9 63.3097 117.388 63.107 117.79C62.9047 118.192 62.5289 118.429 62.1546 118.39C36.724 115.727 20.5285 90.3378 18.9492 80.6602C28.1239 92.3755 43.2993 100.8 55.5486 104.266Z" fill="url(#paint11_linear_30_9)"/>
<path d="M52.0573 86.4175C53.2554 86.9667 54.0974 88.2263 54.2917 89.764C54.7209 93.1578 55.3394 96.5769 56.1641 99.8545C56.2683 100.269 56.1641 100.737 55.8943 101.068C55.6244 101.399 55.2346 101.535 54.8839 101.423C45.0278 98.2728 12.5525 85.4477 10.5195 52.7109C19.8121 68.6035 36.5584 79.3115 52.0573 86.4175Z" fill="url(#paint12_linear_30_9)"/>
<path d="M65.0816 121.084C65.9012 121.115 66.6626 121.489 67.2324 122.143C68.7475 123.881 70.3912 125.49 72.1624 126.969C72.454 127.212 72.5728 127.659 72.4606 128.091C72.3481 128.522 72.0284 128.847 71.658 128.905C58.8338 130.93 43.4641 120.588 38.7344 111.688C47.1268 117.802 55.7848 120.728 65.0816 121.084Z" fill="url(#paint13_linear_30_9)"/>
<path d="M75.3135 130.486C76.0179 130.255 76.7477 130.337 77.3622 130.717C79.0883 131.785 80.9073 132.755 82.8188 133.627C83.1002 133.755 83.2844 134.068 83.2951 134.436C83.3059 134.804 83.1417 135.165 82.8704 135.371C74.5932 141.666 62.2316 134.719 55.2773 128.734C61.6783 131.532 68.4663 132.731 75.3135 130.486Z" fill="url(#paint14_linear_30_9)"/>
<path d="M98.194 138.307C94.0591 137.735 90.5502 136.617 87.474 135.498C86.8147 135.259 86.0688 135.457 85.5058 136.023C82.8404 138.702 79.5368 140.15 75.75 140.325C78.7727 141.429 93.5974 145.121 105.272 147.299C102.451 144.718 100.054 141.681 98.194 138.307Z" fill="url(#paint15_linear_30_9)"/>
<path d="M163.549 121.963C163.549 117.761 162.81 113.731 161.458 109.995C166.884 108.66 167.234 99.8183 163.477 98.083C154.693 94.0254 153.013 84.4057 163.732 76.7192C174.452 69.0333 244.894 34.6925 256.474 1.5C260.408 33.755 211.563 63.9156 185.039 79.2754C183.68 80.0628 182.889 81.7632 183.015 83.6314C183.611 92.4739 183.481 118.283 163.055 127.858C163.378 125.941 163.549 123.972 163.549 121.963Z" fill="url(#paint16_linear_30_9)"/>
<path d="M162.411 130.874C172.994 126.51 178.669 118.183 181.698 110.102C184.571 102.659 185.595 93.1568 185.178 84.8933C185.094 83.2105 185.815 81.6936 187.04 80.9838C190.365 79.0569 194.392 76.6896 198.81 73.9612C199.44 73.572 200.227 73.6409 200.866 74.1391C201.504 74.6372 201.895 75.4879 201.887 76.3625C201.608 107.932 190.793 130.054 160.641 135.986C161.356 134.343 161.95 132.636 162.411 130.874Z" fill="url(#paint17_linear_30_9)"/>
<path d="M206.436 69.1198C204.891 70.1269 203.955 72.0709 203.972 74.2462C203.992 76.9173 203.957 79.6684 203.784 82.7675C203.757 83.2436 203.945 83.7221 204.279 84.0244C204.613 84.3268 205.041 84.4068 205.405 84.2367C248.7 64.0197 252.037 37.6829 251.051 28.8398C240.719 45.0011 221.919 59.027 206.436 69.1198Z" fill="url(#paint18_linear_30_9)"/>
<path d="M201.848 104.868C200.562 105.232 199.514 106.258 198.977 107.68C197.63 111.251 196.073 114.369 194.317 117.154C194.098 117.501 194.087 117.99 194.289 118.392C194.492 118.794 194.868 119.031 195.242 118.991C220.672 116.328 236.868 90.9394 238.447 81.2617C229.273 92.9768 214.097 101.402 201.848 104.868Z" fill="url(#paint19_linear_30_9)"/>
<path d="M205.338 87.019C204.14 87.5682 203.298 88.8278 203.104 90.3656C202.674 93.7593 202.056 97.1781 201.231 100.456C201.127 100.87 201.231 101.339 201.501 101.669C201.771 102 202.161 102.136 202.511 102.025C212.367 98.8744 244.843 86.0493 246.876 53.3125C237.583 69.2054 220.837 79.9131 205.338 87.019Z" fill="url(#paint20_linear_30_9)"/>
<path d="M192.319 121.689C191.499 121.72 190.738 122.095 190.168 122.749C188.653 124.487 187.009 126.095 185.238 127.574C184.947 127.817 184.828 128.265 184.94 128.696C185.053 129.128 185.373 129.452 185.743 129.511C198.567 131.535 213.937 121.193 218.666 112.293C210.274 118.407 201.616 121.333 192.319 121.689Z" fill="url(#paint21_linear_30_9)"/>
<path d="M182.084 131.088C181.379 130.857 180.65 130.939 180.035 131.319C178.309 132.386 176.49 133.357 174.578 134.228C174.297 134.357 174.113 134.669 174.102 135.038C174.091 135.406 174.255 135.767 174.527 135.973C182.804 142.267 195.166 135.32 202.12 129.336C195.719 132.134 188.931 133.333 182.084 131.088Z" fill="url(#paint22_linear_30_9)"/>
<path d="M159.203 138.908C163.338 138.336 166.847 137.218 169.923 136.1C170.582 135.86 171.328 136.058 171.891 136.624C174.556 139.303 177.86 140.752 181.647 140.927C178.624 142.031 163.799 145.722 152.125 147.901C154.945 145.319 157.343 142.283 159.203 138.908Z" fill="url(#paint23_linear_30_9)"/>
<defs>
<linearGradient id="paint0_linear_30_9" x1="116.959" y1="43.5091" x2="116.959" y2="242.592" gradientUnits="userSpaceOnUse">
<stop stop-color="#E4C57D"/>
<stop offset="1" stop-color="#A68B4F"/>
</linearGradient>
<linearGradient id="paint1_linear_30_9" x1="107.673" y1="43.5051" x2="107.673" y2="242.588" gradientUnits="userSpaceOnUse">
<stop stop-color="#E4C57D"/>
<stop offset="1" stop-color="#A68B4F"/>
</linearGradient>
<linearGradient id="paint2_linear_30_9" x1="133.339" y1="43.506" x2="133.339" y2="242.589" gradientUnits="userSpaceOnUse">
<stop stop-color="#E4C57D"/>
<stop offset="1" stop-color="#A68B4F"/>
</linearGradient>
<linearGradient id="paint3_linear_30_9" x1="153.329" y1="43.5089" x2="153.329" y2="242.592" gradientUnits="userSpaceOnUse">
<stop stop-color="#E4C57D"/>
<stop offset="1" stop-color="#A68B4F"/>
</linearGradient>
<linearGradient id="paint4_linear_30_9" x1="140.957" y1="43.5083" x2="140.957" y2="242.592" gradientUnits="userSpaceOnUse">
<stop stop-color="#E4C57D"/>
<stop offset="1" stop-color="#A68B4F"/>
</linearGradient>
<linearGradient id="paint5_linear_30_9" x1="124.275" y1="43.5081" x2="124.275" y2="242.591" gradientUnits="userSpaceOnUse">
<stop stop-color="#E4C57D"/>
<stop offset="1" stop-color="#A68B4F"/>
</linearGradient>
<linearGradient id="paint6_linear_30_9" x1="104.928" y1="43.507" x2="104.928" y2="242.59" gradientUnits="userSpaceOnUse">
<stop stop-color="#E4C57D"/>
<stop offset="1" stop-color="#A68B4F"/>
</linearGradient>
<linearGradient id="paint7_linear_30_9" x1="150.612" y1="43.5069" x2="150.612" y2="242.59" gradientUnits="userSpaceOnUse">
<stop stop-color="#E4C57D"/>
<stop offset="1" stop-color="#A68B4F"/>
</linearGradient>
<linearGradient id="paint8_linear_30_9" x1="50.9079" y1="43.507" x2="50.9079" y2="242.59" gradientUnits="userSpaceOnUse">
<stop stop-color="#E4C57D"/>
<stop offset="1" stop-color="#A68B4F"/>
</linearGradient>
<linearGradient id="paint9_linear_30_9" x1="76.1349" y1="43.5097" x2="76.1349" y2="242.593" gradientUnits="userSpaceOnUse">
<stop stop-color="#E4C57D"/>
<stop offset="1" stop-color="#A68B4F"/>
</linearGradient>
<linearGradient id="paint10_linear_30_9" x1="29.9137" y1="43.5078" x2="29.9137" y2="242.591" gradientUnits="userSpaceOnUse">
<stop stop-color="#E4C57D"/>
<stop offset="1" stop-color="#A68B4F"/>
</linearGradient>
<linearGradient id="paint11_linear_30_9" x1="41.1006" y1="43.5075" x2="41.1006" y2="242.59" gradientUnits="userSpaceOnUse">
<stop stop-color="#E4C57D"/>
<stop offset="1" stop-color="#A68B4F"/>
</linearGradient>
<linearGradient id="paint12_linear_30_9" x1="33.3618" y1="43.5074" x2="33.3618" y2="242.591" gradientUnits="userSpaceOnUse">
<stop stop-color="#E4C57D"/>
<stop offset="1" stop-color="#A68B4F"/>
</linearGradient>
<linearGradient id="paint13_linear_30_9" x1="55.6181" y1="43.506" x2="55.6181" y2="242.588" gradientUnits="userSpaceOnUse">
<stop stop-color="#E4C57D"/>
<stop offset="1" stop-color="#A68B4F"/>
</linearGradient>
<linearGradient id="paint14_linear_30_9" x1="69.2865" y1="43.5079" x2="69.2865" y2="242.591" gradientUnits="userSpaceOnUse">
<stop stop-color="#E4C57D"/>
<stop offset="1" stop-color="#A68B4F"/>
</linearGradient>
<linearGradient id="paint15_linear_30_9" x1="90.5112" y1="43.5082" x2="90.5112" y2="242.59" gradientUnits="userSpaceOnUse">
<stop stop-color="#E4C57D"/>
<stop offset="1" stop-color="#A68B4F"/>
</linearGradient>
<linearGradient id="paint16_linear_30_9" x1="206.49" y1="43.5063" x2="206.49" y2="242.59" gradientUnits="userSpaceOnUse">
<stop stop-color="#E4C57D"/>
<stop offset="1" stop-color="#A68B4F"/>
</linearGradient>
<linearGradient id="paint17_linear_30_9" x1="181.264" y1="43.5086" x2="181.264" y2="242.592" gradientUnits="userSpaceOnUse">
<stop stop-color="#E4C57D"/>
<stop offset="1" stop-color="#A68B4F"/>
</linearGradient>
<linearGradient id="paint18_linear_30_9" x1="227.484" y1="43.5068" x2="227.484" y2="242.59" gradientUnits="userSpaceOnUse">
<stop stop-color="#E4C57D"/>
<stop offset="1" stop-color="#A68B4F"/>
</linearGradient>
<linearGradient id="paint19_linear_30_9" x1="216.296" y1="43.5281" x2="216.296" y2="242.611" gradientUnits="userSpaceOnUse">
<stop stop-color="#E4C57D"/>
<stop offset="1" stop-color="#A68B4F"/>
</linearGradient>
<linearGradient id="paint20_linear_30_9" x1="224.034" y1="43.5067" x2="224.034" y2="242.59" gradientUnits="userSpaceOnUse">
<stop stop-color="#E4C57D"/>
<stop offset="1" stop-color="#A68B4F"/>
</linearGradient>
<linearGradient id="paint21_linear_30_9" x1="201.783" y1="43.509" x2="201.783" y2="242.591" gradientUnits="userSpaceOnUse">
<stop stop-color="#E4C57D"/>
<stop offset="1" stop-color="#A68B4F"/>
</linearGradient>
<linearGradient id="paint22_linear_30_9" x1="188.111" y1="43.5069" x2="188.111" y2="242.59" gradientUnits="userSpaceOnUse">
<stop stop-color="#E4C57D"/>
<stop offset="1" stop-color="#A68B4F"/>
</linearGradient>
<linearGradient id="paint23_linear_30_9" x1="166.886" y1="43.507" x2="166.886" y2="242.589" gradientUnits="userSpaceOnUse">
<stop stop-color="#E4C57D"/>
<stop offset="1" stop-color="#A68B4F"/>
</linearGradient>
</defs>
</svg>
