<svg width="257" height="226" viewBox="0 0 257 226" fill="none" xmlns="http://www.w3.org/2000/svg">
<path d="M128.746 0.351562V53.0624L233.536 109.536L256.746 69.3338L128.746 0.351562Z" fill="#BA141A"/>
<path d="M128.746 0.351562L0.746094 69.3338L23.9567 109.536L128.746 53.0624V0.351562Z" fill="#ED1C24"/>
<path d="M128.746 137.555L196.33 173.977L219.541 133.775L128.746 84.8438V137.555Z" fill="#1D1714"/>
<path d="M128.744 84.8438L37.9492 133.775L61.1598 173.977L128.744 137.555V84.8438Z" fill="#322B29"/>
<path d="M136.496 46.8848V11.7852L246.041 70.8209L230.585 97.5911L136.496 46.8848Z" fill="url(#paint0_linear_30_7)"/>
<path d="M11.4492 70.8209L120.994 11.7852V46.8848L26.9051 97.5911L11.4492 70.8209Z" fill="url(#paint1_linear_30_7)"/>
<path d="M136.496 131.377V96.2773L208.835 135.262L193.38 162.033L136.496 131.377Z" fill="url(#paint2_linear_30_7)"/>
<path d="M48.6562 135.262L120.995 96.2773V131.377L64.1114 162.033L48.6562 135.262Z" fill="url(#paint3_linear_30_7)"/>
<path d="M128.745 167.289L74.6133 196.462L128.745 225.635L182.878 196.462L128.745 167.289Z" fill="#1A1A1A"/>
<path d="M90.9531 196.461L128.746 176.094L166.539 196.461L128.746 216.828L90.9531 196.461Z" fill="url(#paint4_linear_30_7)"/>
<defs>
<linearGradient id="paint0_linear_30_7" x1="136.496" y1="54.6882" x2="246.04" y2="54.6882" gradientUnits="userSpaceOnUse">
<stop offset="0.0051" stop-color="#A70E13"/>
<stop offset="0.5255" stop-color="#E11B22" stop-opacity="0"/>
<stop offset="1" stop-color="#CE181E"/>
</linearGradient>
<linearGradient id="paint1_linear_30_7" x1="66.2214" y1="97.5912" x2="66.2214" y2="11.7852" gradientUnits="userSpaceOnUse">
<stop offset="0.0051" stop-color="#BA141A"/>
<stop offset="0.4439" stop-color="#E11B22" stop-opacity="0"/>
<stop offset="1" stop-color="#F47A5C"/>
</linearGradient>
<linearGradient id="paint2_linear_30_7" x1="136.496" y1="129.155" x2="208.835" y2="129.155" gradientUnits="userSpaceOnUse">
<stop offset="0.0051"/>
<stop offset="0.5255" stop-color="#28211F" stop-opacity="0"/>
<stop offset="1" stop-color="#3C3533"/>
</linearGradient>
<linearGradient id="paint3_linear_30_7" x1="48.6561" y1="129.155" x2="120.995" y2="129.155" gradientUnits="userSpaceOnUse">
<stop/>
<stop offset="0.4745" stop-color="#28211F" stop-opacity="0"/>
<stop offset="0.9949" stop-color="#524B48"/>
</linearGradient>
<linearGradient id="paint4_linear_30_7" x1="90.953" y1="196.461" x2="166.538" y2="196.461" gradientUnits="userSpaceOnUse">
<stop offset="0.0051"/>
<stop offset="0.5255" stop-color="#28211F" stop-opacity="0"/>
<stop offset="1" stop-color="#3C3533"/>
</linearGradient>
</defs>
</svg>
