<svg width="225" height="257" viewBox="0 0 225 257" fill="none" xmlns="http://www.w3.org/2000/svg">
<path d="M75.6802 0.570312L102.258 61.248L201.549 135.466C201.549 135.466 214.587 148.504 194.027 168.061C173.467 187.618 111.285 222.219 70.6655 222.219C30.0462 222.219 38.5714 206.172 40.0757 197.146C41.58 188.119 57.6273 85.8199 57.6273 85.8199L28.5419 16.1158V35.1717H0.459546V237.264C0.459546 237.264 -1.04476 256.57 19.7661 256.57C40.577 256.57 224.115 256.57 224.115 256.57V35.673H107.273L75.6802 0.570312Z" fill="url(#paint0_linear_30_6)"/>
<path d="M90.4737 124.432C99.4748 124.432 106.772 117.135 106.772 108.134C106.772 99.1328 99.4748 91.8359 90.4737 91.8359C81.4726 91.8359 74.1758 99.1328 74.1758 108.134C74.1758 117.135 81.4726 124.432 90.4737 124.432Z" fill="url(#paint1_linear_30_6)"/>
<path d="M88.97 73.7799C93.2628 73.7799 96.7428 70.2999 96.7428 66.0071C96.7428 61.7143 93.2628 58.2344 88.97 58.2344C84.6773 58.2344 81.1973 61.7143 81.1973 66.0071C81.1973 70.2999 84.6773 73.7799 88.97 73.7799Z" fill="url(#paint2_linear_30_6)"/>
<path d="M68.9099 46.2025C74.0335 46.2025 78.1869 42.0491 78.1869 36.9255C78.1869 31.8019 74.0335 27.6484 68.9099 27.6484C63.7863 27.6484 59.6328 31.8019 59.6328 36.9255C59.6328 42.0491 63.7863 46.2025 68.9099 46.2025Z" fill="url(#paint3_linear_30_6)"/>
<path d="M69.4126 18.622C72.0437 18.622 74.1767 16.489 74.1767 13.8579C74.1767 11.2267 72.0437 9.09375 69.4126 9.09375C66.7814 9.09375 64.6484 11.2267 64.6484 13.8579C64.6484 16.489 66.7814 18.622 69.4126 18.622Z" fill="url(#paint4_linear_30_6)"/>
<path d="M64.6474 153.014L59.6327 190.624C59.6327 190.624 56.1222 205.668 74.1751 202.158C92.228 198.647 163.938 177.084 183.997 150.005L175.471 139.57C175.471 139.57 151.903 157.026 127.331 151.008C102.759 144.99 68.9097 134.46 64.6474 153.014Z" fill="url(#paint5_linear_30_6)"/>
<path d="M71.7103 12.8908C71.7103 14.4365 70.4584 15.6879 68.9127 15.6879C67.367 15.6879 66.1133 14.4365 66.1133 12.8908C66.1133 11.3457 67.367 10.0938 68.9127 10.0938C70.4584 10.0938 71.7103 11.3457 71.7103 12.8908Z" fill="white"/>
<path d="M73.5473 34.2966C73.5473 37.2271 71.175 39.6017 68.2423 39.6017C65.3119 39.6017 62.9355 37.2277 62.9355 34.2966C62.9355 31.3662 65.3119 28.9922 68.2423 28.9922C71.175 28.9916 73.5473 31.3656 73.5473 34.2966Z" fill="white"/>
<path d="M92.373 63.2689C92.373 65.6745 90.426 67.6232 88.0187 67.6232C85.613 67.6232 83.6621 65.6745 83.6621 63.2689C83.6621 60.8633 85.613 58.9141 88.0187 58.9141C90.426 58.9141 92.373 60.8639 92.373 63.2689Z" fill="white"/>
<path d="M93.2068 102.544C93.2068 106.426 90.0649 109.572 86.1785 109.572C82.2962 109.572 79.1484 106.427 79.1484 102.544C79.1484 98.661 82.2962 95.5156 86.1785 95.5156C90.0649 95.5156 93.2068 98.6616 93.2068 102.544Z" fill="white"/>
<path d="M68.2402 186.114C68.2402 186.114 69.0789 149.507 83.6627 148.504C98.246 147.501 106.771 154.522 106.771 154.522C106.771 154.522 72.3341 153.017 68.2402 186.114Z" fill="white"/>
<defs>
<linearGradient id="paint0_linear_30_6" x1="112.276" y1="0.570198" x2="112.276" y2="256.57" gradientUnits="userSpaceOnUse">
<stop stop-color="#6AC9C8"/>
<stop offset="0.25" stop-color="#179ED9"/>
<stop offset="1" stop-color="#1E196A"/>
</linearGradient>
<linearGradient id="paint1_linear_30_6" x1="74.176" y1="108.134" x2="106.771" y2="108.134" gradientUnits="userSpaceOnUse">
<stop stop-color="#BFD730"/>
<stop offset="1" stop-color="#0DB14B"/>
</linearGradient>
<linearGradient id="paint2_linear_30_6" x1="81.1971" y1="66.0069" x2="96.7426" y2="66.0069" gradientUnits="userSpaceOnUse">
<stop stop-color="#BFD730"/>
<stop offset="1" stop-color="#0DB14B"/>
</linearGradient>
<linearGradient id="paint3_linear_30_6" x1="59.6328" y1="36.9255" x2="78.1872" y2="36.9255" gradientUnits="userSpaceOnUse">
<stop stop-color="#BFD730"/>
<stop offset="1" stop-color="#0DB14B"/>
</linearGradient>
<linearGradient id="paint4_linear_30_6" x1="64.6484" y1="13.8579" x2="74.1763" y2="13.8579" gradientUnits="userSpaceOnUse">
<stop stop-color="#BFD730"/>
<stop offset="1" stop-color="#0DB14B"/>
</linearGradient>
<linearGradient id="paint5_linear_30_6" x1="59.3574" y1="171.129" x2="183.997" y2="171.129" gradientUnits="userSpaceOnUse">
<stop stop-color="#BFD730"/>
<stop offset="1" stop-color="#0DB14B"/>
</linearGradient>
</defs>
</svg>
