<svg width="234" height="257" viewBox="0 0 234 257" fill="none" xmlns="http://www.w3.org/2000/svg">
<path fill-rule="evenodd" clip-rule="evenodd" d="M234 202.396H178.021L193.923 237.381L175.952 256.1L146.088 239.317L129.153 202.396H0L89.0752 7.58775L156.69 155.791H176.857L108.726 0.100098L234 202.396ZM221.072 195.037L166.515 104.023L207.626 181.869H168.583V181.998L203.877 185.613L171.816 188.969V189.099L205.299 192.326L176.211 195.037H221.072ZM188.364 163.15H162.507L188.105 166.248L162.895 169.218L191.337 172.832L165.998 176.06L166.127 176.318H198.448L165.739 114.351L188.364 163.15ZM185.261 235.961L89.0752 25.4032L11.5061 195.166H119.327L90.368 192.326L123.076 189.228L122.947 189.099L90.368 185.613L119.973 182.644L119.715 181.998H30.769L89.0752 54.8374L176.47 244.998L185.261 235.961ZM151.389 233.508L144.02 207.689L159.017 235.961L151.648 211.174L170.006 244.352L89.0752 68.1344L39.4309 176.447H117.129V176.318L90.368 172.961L114.156 169.863V169.734L90.368 166.248L111.053 163.279V163.15L58.9525 163.021L89.0752 97.6977L151.389 233.508ZM89.0752 115.255L70.4586 155.662L107.692 155.791L89.0752 115.255Z" fill="#4A5172"/>
</svg>
