<svg width="257" height="235" viewBox="0 0 257 235" fill="none" xmlns="http://www.w3.org/2000/svg">
<path d="M199.515 194.106L168.623 140.6H88.6596H32.453C32.453 140.6 6.81658 140.6 0.662964 116.531C0.485876 124.829 2.52283 133.163 6.81615 140.6L15.5751 155.771L48.882 213.46C56.4208 226.518 70.3538 234.562 85.4318 234.562H169.563C178.977 234.562 187.976 231.687 195.506 226.571C195.662 226.298 206.811 206.742 199.515 194.106Z" fill="url(#paint0_linear_30_3)"/>
<path d="M250.466 94.4354L209.544 23.5572C205.799 17.071 200.603 11.7315 194.511 7.81743C193.597 7.54791 169.486 0.604736 161.039 15.2361L128.641 71.3521L168.622 140.603L199.515 194.109C206.81 206.745 195.661 226.301 195.505 226.573C201.169 222.725 206.004 217.613 209.544 211.481L215.673 200.866L250.465 140.603C258.713 126.318 258.713 108.72 250.466 94.4354Z" fill="url(#paint1_linear_30_3)"/>
<path d="M169.564 0.46875H152.723H87.7208C71.227 0.46875 55.9857 9.2679 47.739 23.5525L6.81724 94.4307C2.86385 101.278 0.826898 108.888 0.664062 116.53C2.71829 133.49 26.5613 140.598 26.5613 140.598H88.6607L128.643 71.3474L161.041 15.2315C169.488 0.600487 193.599 7.54366 194.513 7.81275C187.19 3.10694 178.569 0.46875 169.564 0.46875Z" fill="url(#paint2_linear_30_3)"/>
<defs>
<linearGradient id="paint0_linear_30_3" x1="0.652339" y1="175.547" x2="201.989" y2="175.547" gradientUnits="userSpaceOnUse">
<stop stop-color="#99D4C0"/>
<stop offset="0.9133" stop-color="#00929E"/>
<stop offset="1" stop-color="#006C6D"/>
</linearGradient>
<linearGradient id="paint1_linear_30_3" x1="127.014" y1="48.4479" x2="250.904" y2="172.338" gradientUnits="userSpaceOnUse">
<stop stop-color="#BA141A"/>
<stop offset="0.301" stop-color="#F04E3E"/>
<stop offset="0.7143" stop-color="#F37021"/>
<stop offset="0.9949" stop-color="#FBB040"/>
</linearGradient>
<linearGradient id="paint2_linear_30_3" x1="97.5886" y1="140.598" x2="97.5886" y2="0.468575" gradientUnits="userSpaceOnUse">
<stop stop-color="#008BBF"/>
<stop offset="0.9133" stop-color="#004B84"/>
<stop offset="1" stop-color="#00AEEF"/>
</linearGradient>
</defs>
</svg>
