<svg width="208" height="257" viewBox="0 0 208 257" fill="none" xmlns="http://www.w3.org/2000/svg">
<path fill-rule="evenodd" clip-rule="evenodd" d="M85.9939 237.524C85.9939 171.63 138.601 117.821 204.014 115.837C204.434 110.786 204.735 105.736 205.096 100.806C130.845 102.189 70.9634 162.972 70.9634 237.524C70.9634 238.927 70.9834 240.35 71.0235 241.792C76.4946 244.318 81.7854 246.602 86.4749 248.646C86.1542 244.959 85.9939 241.251 85.9939 237.524ZM114.191 252.254C113.41 247.444 113.049 242.574 113.049 237.524C113.049 187.442 152.128 146.258 201.428 143.072C202.03 138.082 202.511 133.032 202.992 127.921C144.673 130.386 98.0183 178.604 98.0183 237.524C98.0183 243.115 98.3791 248.586 99.2208 253.877C102.648 255.26 104.692 256.102 104.692 256.102C104.692 256.102 108.359 254.659 114.191 252.254ZM65.4923 25.0522C31.7638 35.2129 1.64258 21.0842 1.64258 21.0842C1.64258 21.0842 1.64258 54.2716 3.86709 93.5915C36.0324 85.475 60.7426 58.42 65.4923 25.0522ZM185.496 212.092C192.049 200.669 196.679 179.446 199.985 155.217C158.02 159.125 125.073 194.536 125.073 237.524C125.073 240.891 125.254 244.197 125.614 247.444C147.439 238.005 179.303 222.794 185.496 212.092ZM205.757 88.7817C207.741 51.5661 207.741 21.0842 207.741 21.0842C207.741 21.0842 149.783 48.3195 104.692 0.101562C96.1545 9.30025 87.0761 15.7333 78.1179 20.1222C75.1719 62.1476 44.69 96.7178 4.64868 105.796C7.47442 147.701 13.0057 193.214 23.8878 212.092C27.9159 219.066 42.9465 228.025 58.939 235.961C59.7807 155.277 125.133 89.8038 205.757 88.7817Z" fill="url(#paint0_linear_26_62)"/>
<path d="M65.4918 25.0526C64.1691 25.4735 62.9066 25.9545 61.5839 26.3152C60.3213 26.6759 58.9986 27.0968 57.676 27.3974C56.3533 27.7581 54.9705 27.9986 53.6478 28.2391C52.285 28.4796 50.9423 28.7 49.6196 28.9004C48.2368 29.0808 46.854 29.2612 45.5313 29.3814C44.1485 29.5017 42.7657 29.5618 41.3829 29.6219C40.0602 29.682 38.6774 29.7422 37.2946 29.682C35.9118 29.682 34.529 29.6219 33.1461 29.5618C31.8235 29.5017 30.4407 29.4415 29.0578 29.3213C27.6951 29.2011 26.3323 29.0407 24.9695 28.8403L22.9254 28.5397L20.8812 28.179C19.5185 27.9385 18.1757 27.678 16.853 27.3974C15.4903 27.0767 14.1476 26.7561 12.8249 26.4354C11.5022 26.0747 10.1795 25.6739 8.85681 25.233C7.53412 24.8322 6.23148 24.3913 4.94887 23.9103C3.62619 23.4293 2.36362 22.9484 1.04093 22.3471L3.14521 21.0244L3.20532 30.1029L3.32557 39.1212C3.38569 40.6844 3.32557 42.1874 3.38569 43.6905L3.44582 48.1997C3.50594 51.2058 3.56606 54.272 3.56606 57.2781L3.62618 61.7873C3.62618 63.3504 3.62618 64.8535 3.62618 66.3565L3.80655 75.435L3.86667 84.5134L3.92679 89.0226L3.86667 93.5919L3.44582 89.0827L3.02496 84.5134L2.30349 75.4951L1.58203 66.4166C1.52191 64.9136 1.46179 63.4105 1.34154 61.9075L1.16118 57.3382C0.98081 54.3321 0.860568 51.326 0.740323 48.2598L0.559955 43.7506C0.499833 42.2476 0.439713 40.6844 0.439713 39.1813L0.259345 30.1029C0.259345 28.5998 0.199219 27.0968 0.199219 25.5937V21.0244V18.6797L2.30349 19.7018C3.44581 20.1827 4.70838 20.7238 5.97095 21.2048C7.21347 21.6457 8.47604 22.0666 9.75864 22.4674C11.0012 22.9083 12.2838 23.3091 13.6065 23.6698C14.8891 24.0306 16.1717 24.3712 17.4543 24.6919C18.777 25.0126 20.0796 25.3132 21.3622 25.5937L23.3462 25.9545L25.3303 26.3152C26.653 26.4956 27.9756 26.7361 29.2983 26.8563C30.6811 27.0968 32.0038 27.217 33.3265 27.3373C34.6492 27.4575 36.032 27.5778 37.3547 27.6379C38.6774 27.698 40.0602 27.698 41.3829 27.7581C42.7056 27.7581 44.0884 27.7581 45.4111 27.698C46.7337 27.698 48.1166 27.5778 49.4392 27.5176C50.802 27.4375 52.1447 27.3172 53.4674 27.1569C54.8502 26.9765 56.1729 26.8563 57.4956 26.6158C58.1569 26.4956 58.8183 26.4354 59.4796 26.3152L61.5238 25.8943C62.8465 25.6539 64.1691 25.3532 65.4918 25.0526Z" fill="#FAAF3B"/>
<path d="M104.691 0.101562C104.691 0.101562 104.391 0.582534 103.91 1.36412C103.609 1.72485 103.308 2.20583 102.948 2.74693C102.527 3.22791 102.166 3.88925 101.625 4.49047C101.104 5.09169 100.543 5.733 99.9415 6.41439C99.6209 6.73504 99.3002 7.07573 98.9796 7.43646C98.6589 7.79719 98.3182 8.13788 97.9575 8.45853C97.236 9.11988 96.4544 9.84134 95.6729 10.5628C94.8712 11.2041 94.0496 11.8655 93.2078 12.5468C92.3661 13.2082 91.4643 13.7493 90.6226 14.3505C89.7208 14.9517 88.8791 15.4928 87.9772 15.9738C87.1355 16.4548 86.2938 16.9157 85.4521 17.3566C84.6505 17.7574 83.8689 18.1182 83.1073 18.4388C82.3859 18.7394 81.7245 19.04 81.1233 19.2204C80.462 19.4008 79.9209 19.5811 79.5 19.7014C78.5982 20.002 78.1172 20.1222 78.1172 20.1222C78.1172 20.1222 78.4779 19.7615 79.1994 19.2204C79.6203 18.9198 80.0411 18.559 80.5822 18.1983C81.0632 17.8376 81.6644 17.3566 82.2656 16.8756C82.9069 16.4347 83.5883 15.9538 84.3098 15.4327C85.0312 14.8716 85.7727 14.3104 86.5343 13.7493C86.9551 13.4487 87.3159 13.2082 87.7367 12.9076C88.1375 12.5869 88.5384 12.2663 88.9392 11.9456C89.7208 11.3444 90.5625 10.8033 91.4042 10.142C92.2058 9.50065 93.0074 8.87939 93.8091 8.27817C94.6107 7.63686 95.4123 7.03564 96.2139 6.4745C96.5747 6.15385 96.9555 5.85324 97.3563 5.57267C97.717 5.2921 98.0577 5.01153 98.3783 4.73096C99.0998 4.20991 99.7812 3.70889 100.422 3.22791C101.024 2.80706 101.625 2.32608 102.106 1.96534C102.647 1.54449 103.068 1.24388 103.489 0.943269C104.21 0.402169 104.691 0.101562 104.691 0.101562Z" fill="#FAAF3B"/>
<path d="M78.1177 20.1172C78.1177 20.1172 78.0576 20.5982 78.0576 21.5C78.0175 21.9409 77.9974 22.482 77.9974 23.1233C77.9974 23.4439 77.9774 23.7846 77.9373 24.1454C77.9373 24.5061 77.9173 24.8869 77.8772 25.2877C77.797 26.1294 77.7169 27.0513 77.6367 28.0533C77.5164 29.0554 77.3762 30.1375 77.2158 31.2999C77.0355 32.4422 76.795 33.6447 76.6146 34.9072C76.4944 35.5686 76.314 36.2299 76.1938 36.8913C76.0334 37.5326 75.8731 38.2139 75.7128 38.9354C75.4122 40.3182 74.9913 41.7612 74.5705 43.2642C74.33 43.9857 74.0895 44.7272 73.849 45.4887C73.6085 46.2703 73.368 46.9918 73.0674 47.7734C72.7868 48.5349 72.5063 49.3165 72.2257 50.1181C71.9251 50.8997 71.5643 51.6813 71.2036 52.4629C70.6024 54.0862 69.7607 55.6494 69.0392 57.2727C68.1975 58.896 67.4159 60.5192 66.454 62.1425C65.973 62.9241 65.5521 63.7057 65.011 64.5474C64.5301 65.309 64.029 66.0906 63.508 66.8922C61.4037 70.0186 59.1191 73.0848 56.5939 76.0308C54.0688 78.9166 51.4234 81.6822 48.6578 84.2074C47.2149 85.4699 45.8321 86.7325 44.329 87.8147C43.6076 88.4159 42.9462 89.0171 42.1646 89.5582C41.4432 90.0793 40.7217 90.6004 40.0002 91.1214C37.0543 93.1656 34.1083 95.0294 31.2224 96.5925C29.7795 97.3741 28.3366 98.0956 26.9537 98.7569C25.5709 99.4183 24.1881 100.019 22.8654 100.561C21.5427 101.102 20.2802 101.643 19.0176 102.064C17.8152 102.485 16.6127 102.845 15.5305 103.206C14.4083 103.527 13.3661 103.827 12.4042 104.108C11.4422 104.348 10.5404 104.589 9.75882 104.769C8.13552 105.19 6.81283 105.37 5.97112 105.551C5.12941 105.731 4.64844 105.791 4.64844 105.791C4.64844 105.791 5.06929 105.671 5.911 105.37C6.75271 105.13 8.01527 104.769 9.57845 104.168C10.36 103.927 11.2017 103.627 12.1637 103.266C13.0856 102.905 14.0876 102.525 15.1698 102.124C16.1919 101.703 17.3342 101.222 18.4765 100.681C19.679 100.2 20.8814 99.5986 22.144 98.9974C24.6691 97.7349 27.3145 96.2919 30.0801 94.6085C30.7414 94.1876 31.4629 93.7668 32.1844 93.3459C32.8657 92.905 33.5471 92.4441 34.2285 91.9631C34.95 91.4821 35.6113 91.0012 36.3328 90.5202C36.9941 89.9791 37.7156 89.4981 38.4371 89.0171C41.2628 86.9129 43.9683 84.5681 46.6738 82.1031C49.3192 79.578 51.9044 76.8725 54.3694 74.0467C56.7743 71.2811 58.9988 68.275 61.1031 65.2689C63.1473 62.2628 65.011 59.1365 66.6945 56.0702C67.476 54.5071 68.2576 53.004 68.9791 51.5009C69.3398 50.7194 69.7006 49.9979 70.0012 49.2163C70.3218 48.4547 70.6425 47.7132 70.9631 46.9918C71.6245 45.4887 72.1055 44.0458 72.6466 42.6029C73.1275 41.1599 73.6686 39.8372 74.0895 38.4544C74.8711 35.8091 75.5324 33.2839 76.0735 31.0594C76.314 29.9371 76.5545 28.895 76.795 27.9331C76.9553 26.9711 77.1156 26.0693 77.276 25.2276C77.5766 23.6043 77.7569 22.3417 77.8772 21.4399C77.9974 20.5982 78.1177 20.1172 78.1177 20.1172Z" fill="#FAAF3B"/>
<path d="M70.9631 241.791C70.9631 241.791 70.9632 240.949 70.8429 239.386C70.7828 237.763 70.7828 235.418 70.7227 232.472C70.7828 231.751 70.7227 230.969 70.7828 230.127C70.8229 229.326 70.8629 228.484 70.903 227.602C70.9631 225.799 71.0233 223.875 71.2638 221.77C71.6846 217.682 72.2858 213.053 73.3079 208.063C73.5484 206.78 73.8089 205.497 74.0895 204.215C74.3901 202.892 74.7508 201.629 75.1116 200.247C75.2719 199.605 75.4322 198.944 75.5926 198.263C75.7729 197.601 75.9533 196.88 76.1938 196.218C76.6347 194.856 77.0756 193.493 77.5164 192.13C77.9373 190.687 78.4784 189.304 79.0195 187.922C79.3001 187.2 79.5606 186.479 79.8011 185.757C80.1017 185.096 80.3422 184.374 80.7029 183.653C81.3042 182.25 81.9054 180.827 82.5066 179.384C82.6669 179.024 82.8272 178.663 82.9876 178.302L83.5287 177.22C83.8894 176.498 84.2501 175.777 84.6109 175.056C84.9716 174.374 85.3323 173.673 85.6931 172.951C85.9937 172.17 86.4746 171.508 86.8354 170.787C87.617 169.404 88.3986 167.961 89.2403 166.518C90.1221 165.115 91.0039 163.712 91.8856 162.31L92.547 161.227C92.7474 160.867 92.9879 160.526 93.2685 160.205C93.7093 159.524 94.1703 158.823 94.6513 158.101C95.1322 157.42 95.6332 156.738 96.1543 156.057C96.6353 155.335 97.1764 154.734 97.6574 154.013C98.6794 152.69 99.7015 151.307 100.784 150.045C101.906 148.722 103.008 147.419 104.09 146.137C104.632 145.475 105.233 144.874 105.834 144.213L107.578 142.349C108.179 141.748 108.72 141.087 109.321 140.485L111.185 138.682C112.387 137.539 113.59 136.277 114.912 135.195C116.195 134.072 117.458 132.95 118.7 131.828C120.023 130.786 121.345 129.743 122.668 128.701C123.991 127.619 125.374 126.657 126.696 125.695C128.079 124.673 129.402 123.711 130.785 122.869C132.167 121.968 133.55 121.066 134.933 120.224C136.336 119.382 137.739 118.561 139.142 117.759C144.673 114.633 150.264 111.927 155.735 109.883C158.441 108.741 161.206 107.899 163.792 106.997C164.112 106.877 164.433 106.757 164.754 106.637C165.074 106.556 165.415 106.476 165.776 106.396C166.417 106.196 167.058 106.015 167.7 105.855C168.962 105.494 170.225 105.133 171.427 104.773C172.67 104.492 173.892 104.212 175.095 103.931C175.696 103.811 176.277 103.671 176.838 103.51C177.439 103.39 178.021 103.29 178.582 103.21C180.866 102.789 183.031 102.368 185.075 102.067C187.159 101.827 189.083 101.606 190.847 101.406C192.65 101.226 194.274 101.165 195.777 101.045C196.498 101.005 197.2 100.965 197.881 100.925C198.482 100.865 199.144 100.865 199.685 100.865C200.847 100.865 201.829 100.865 202.631 100.865C204.194 100.805 205.035 100.805 205.035 100.805C205.035 100.805 204.194 100.865 202.631 100.985C201.829 101.065 200.867 101.145 199.745 101.226C199.143 101.286 198.542 101.286 197.881 101.406C197.24 101.486 196.538 101.566 195.777 101.646C194.334 101.827 192.71 102.007 190.967 102.248C189.203 102.568 187.299 102.889 185.255 103.21C183.271 103.63 181.167 104.111 178.882 104.592C176.658 105.133 174.313 105.795 171.908 106.456C170.706 106.817 169.503 107.238 168.241 107.598C167.599 107.799 166.958 107.999 166.317 108.2C165.996 108.32 165.676 108.42 165.355 108.5C165.074 108.621 164.774 108.741 164.453 108.861C161.868 109.823 159.222 110.725 156.637 111.927C151.286 114.152 145.875 116.917 140.404 120.044C139.082 120.845 137.739 121.667 136.376 122.509C135.053 123.35 133.731 124.252 132.348 125.154C131.025 126.056 129.702 127.018 128.38 127.98C127.117 129.002 125.734 129.904 124.472 130.986C123.189 131.988 121.907 133.01 120.624 134.052C119.381 135.174 118.139 136.297 116.896 137.419C115.634 138.441 114.492 139.704 113.229 140.846L111.485 142.59C110.884 143.191 110.343 143.792 109.742 144.393L107.998 146.257C107.457 146.858 106.856 147.459 106.315 148.061C105.233 149.343 104.151 150.626 103.068 151.908C101.986 153.171 101.024 154.494 100.002 155.816C99.461 156.478 98.9801 157.079 98.4991 157.8C98.0181 158.442 97.5371 159.103 97.0561 159.784C95.0721 162.43 93.3887 165.256 91.6451 167.961C90.8034 169.344 90.0219 170.727 89.1802 172.11C88.8194 172.831 88.3986 173.492 88.0378 174.154C87.6771 174.875 87.3164 175.577 86.9556 176.258C86.5949 176.979 86.2342 177.681 85.8734 178.362L85.3323 179.384C85.172 179.745 85.0117 180.106 84.8514 180.466C84.2101 181.869 83.5687 183.252 82.9274 184.615C82.6268 185.276 82.3262 185.998 82.0857 186.719C81.8052 187.401 81.5246 188.082 81.244 188.763C80.6428 190.146 80.1017 191.469 79.6207 192.852C79.1397 194.214 78.6788 195.557 78.2379 196.88C77.9974 197.541 77.8171 198.203 77.5766 198.864C77.3762 199.505 77.1958 200.167 77.0355 200.848C76.6146 202.11 76.1938 203.373 75.8932 204.636C75.5725 205.918 75.2719 207.181 74.9913 208.423C73.7889 213.293 73.0073 217.862 72.4061 221.951C72.0453 223.935 71.9852 225.859 71.7447 227.662C71.6646 228.544 71.5844 229.386 71.5042 230.187C71.384 230.969 71.384 231.751 71.3239 232.532C71.2036 235.478 71.0233 237.763 71.0233 239.386C71.0233 240.949 70.9631 241.791 70.9631 241.791Z" fill="#FAAF3B"/>
<path d="M202.992 127.922C202.992 127.922 202.27 128.042 200.948 128.162C199.565 128.343 197.581 128.463 195.116 128.884C192.651 129.245 189.645 129.846 186.278 130.567C182.851 131.349 179.063 132.371 175.035 133.754C173.993 134.114 172.951 134.475 171.909 134.836C170.867 135.237 169.824 135.658 168.782 136.098C168.221 136.299 167.68 136.499 167.159 136.7C166.598 136.94 166.057 137.201 165.536 137.481C164.454 137.962 163.311 138.443 162.229 138.924C157.84 141.089 153.331 143.674 148.882 146.56C144.433 149.506 140.104 152.933 135.896 156.6C134.873 157.562 133.851 158.464 132.829 159.426C131.827 160.428 130.825 161.43 129.823 162.432C128.861 163.454 127.959 164.536 126.997 165.558L126.276 166.34L125.555 167.182L124.232 168.805C120.624 173.194 117.318 177.823 114.432 182.633C111.606 187.443 109.141 192.373 107.097 197.243C106.616 198.485 106.135 199.728 105.654 200.97C105.173 202.173 104.752 203.435 104.331 204.638C104.151 205.239 103.911 205.84 103.73 206.441C103.57 207.043 103.389 207.644 103.189 208.245C102.888 209.447 102.468 210.65 102.167 211.852C101.886 213.015 101.606 214.177 101.325 215.339C101.025 216.482 100.904 217.684 100.664 218.766C100.423 219.909 100.183 221.051 100.003 222.133C99.8423 223.215 99.6819 224.298 99.5216 225.38C99.4615 225.921 99.4014 226.402 99.3413 226.943C99.2611 227.464 99.201 227.985 99.1609 228.506C99.0807 229.508 98.9805 230.49 98.8603 231.452C98.74 233.436 98.6799 235.3 98.5597 237.044C98.4995 238.727 98.4996 240.41 98.4996 241.913C98.5597 243.416 98.5597 244.799 98.6198 246.062C98.7 247.304 98.7601 248.427 98.8002 249.429C98.8603 250.391 98.9805 251.232 98.9805 251.894C99.1609 253.216 99.221 253.938 99.221 253.938C99.221 253.938 99.1008 253.216 98.8603 251.894C98.74 251.232 98.5597 250.391 98.4394 249.429C98.3192 248.467 98.1789 247.364 98.0186 246.122C97.8983 244.859 97.7781 243.477 97.6578 241.913C97.5977 241.192 97.5376 240.41 97.4775 239.569C97.4775 238.727 97.4173 237.885 97.4173 236.983C97.4173 235.24 97.3572 233.376 97.4173 231.392C97.4975 230.39 97.5576 229.368 97.5977 228.326C97.6378 227.845 97.6578 227.324 97.6578 226.763C97.718 226.222 97.7781 225.741 97.8382 225.199C97.9585 224.117 98.0587 222.995 98.1388 221.833C98.2591 220.75 98.4995 219.608 98.6799 218.466C98.9805 216.121 99.5216 213.716 100.003 211.311C101.205 206.441 102.588 201.331 104.632 196.281C106.676 191.23 109.021 186.06 111.967 181.13C114.853 176.2 118.22 171.39 121.887 166.881L123.33 165.258L123.991 164.416L124.773 163.574C125.735 162.552 126.697 161.47 127.719 160.388C128.761 159.386 129.783 158.364 130.785 157.322C131.867 156.36 132.95 155.398 133.972 154.436C138.3 150.648 142.87 147.281 147.439 144.335C152.068 141.449 156.758 138.984 161.267 136.94C162.409 136.399 163.612 135.978 164.694 135.497C165.255 135.257 165.816 135.036 166.377 134.836C166.939 134.636 167.5 134.435 168.061 134.235C169.143 133.834 170.225 133.453 171.307 133.092C172.39 132.732 173.452 132.411 174.494 132.13C176.538 131.469 178.582 130.988 180.506 130.507C181.468 130.267 182.43 130.086 183.332 129.966C184.254 129.766 185.156 129.585 186.037 129.425C189.524 128.884 192.531 128.463 195.056 128.283C197.581 128.042 199.565 128.042 200.888 127.982C202.27 127.982 202.992 127.922 202.992 127.922Z" fill="#FAAF3B"/>
<path d="M199.924 155.281C199.924 155.281 199.443 155.341 198.481 155.522C197.519 155.702 196.136 155.882 194.393 156.303C192.589 156.664 190.485 157.205 188.08 157.866C186.877 158.227 185.615 158.588 184.292 159.069C182.97 159.55 181.587 159.971 180.144 160.572C179.422 160.853 178.701 161.133 177.979 161.414C177.258 161.714 176.536 162.075 175.755 162.436C174.252 163.097 172.749 163.879 171.186 164.66C168.119 166.344 164.933 168.268 161.867 170.432C158.74 172.596 155.674 175.122 152.728 177.827C149.842 180.533 147.077 183.539 144.551 186.665C143.229 188.228 142.026 189.851 140.884 191.535C140.323 192.377 139.762 193.198 139.201 194C138.66 194.842 138.118 195.743 137.637 196.585C135.593 200.012 133.79 203.499 132.347 207.046C131.926 207.888 131.625 208.79 131.265 209.632C130.904 210.533 130.603 211.375 130.303 212.277C130.022 213.119 129.741 213.98 129.461 214.862C129.18 215.704 128.92 216.546 128.679 217.387C128.439 218.229 128.258 219.071 128.018 219.913C127.838 220.694 127.657 221.536 127.477 222.317C127.316 223.119 127.156 223.921 126.996 224.722C126.916 225.123 126.836 225.504 126.755 225.865C126.715 226.265 126.655 226.646 126.575 227.007C126.455 227.768 126.355 228.51 126.274 229.231C126.154 229.953 126.094 230.674 126.034 231.396C125.954 232.077 125.874 232.759 125.793 233.44C125.733 234.101 125.673 234.703 125.673 235.364C125.633 235.965 125.593 236.566 125.553 237.168C125.493 237.709 125.553 238.31 125.493 238.851C125.493 239.933 125.473 240.915 125.433 241.797C125.433 243.601 125.553 245.044 125.553 246.006C125.613 246.967 125.613 247.509 125.613 247.509C125.613 247.509 125.553 246.967 125.433 246.006C125.352 245.525 125.252 244.943 125.132 244.262C125.072 243.541 124.892 242.759 124.831 241.857C124.791 240.935 124.731 239.933 124.651 238.851C124.591 238.31 124.531 237.769 124.531 237.168C124.531 236.566 124.531 235.945 124.531 235.304C124.531 234.703 124.471 234.041 124.471 233.32C124.511 232.678 124.551 231.997 124.591 231.276C124.591 230.554 124.591 229.833 124.651 229.111C124.731 228.35 124.811 227.588 124.892 226.827C124.932 226.426 124.972 226.025 125.012 225.624C125.052 225.223 125.092 224.823 125.132 224.422C125.252 223.62 125.373 222.798 125.493 221.957C125.613 221.115 125.793 220.273 125.974 219.432C126.154 218.59 126.274 217.688 126.515 216.846C127.296 213.299 128.439 209.692 129.882 206.024C130.242 205.102 130.603 204.181 130.964 203.259C131.385 202.357 131.806 201.455 132.226 200.553C132.647 199.591 133.128 198.689 133.609 197.788C134.09 196.886 134.571 195.984 135.112 195.082C135.653 194.24 136.134 193.339 136.736 192.437C137.297 191.555 137.858 190.693 138.419 189.851C139.682 188.108 140.884 186.424 142.207 184.801C144.852 181.555 147.738 178.488 150.804 175.663C153.87 172.897 157.117 170.432 160.364 168.268C163.61 166.043 166.977 164.239 170.164 162.676C171.847 161.955 173.41 161.173 174.973 160.572C175.755 160.271 176.536 159.971 177.318 159.67C178.08 159.43 178.841 159.189 179.603 158.949C179.963 158.828 180.324 158.708 180.685 158.588C181.046 158.468 181.406 158.347 181.767 158.227C182.489 158.027 183.19 157.846 183.871 157.686C185.254 157.265 186.577 157.025 187.779 156.724C190.304 156.243 192.469 155.882 194.272 155.702C196.076 155.462 197.519 155.401 198.481 155.341C199.443 155.281 199.924 155.281 199.924 155.281Z" fill="#FAAF3B"/>
<path d="M204.013 115.594C204.013 115.594 203.231 115.714 201.788 115.834C200.345 115.954 198.241 116.075 195.536 116.496C194.854 116.576 194.153 116.676 193.431 116.796C192.71 116.916 191.928 116.977 191.087 117.157C189.483 117.437 187.76 117.758 185.916 118.119C184.112 118.54 182.128 118.961 180.084 119.502C179.082 119.782 178.04 120.063 176.958 120.343C175.876 120.644 174.793 120.945 173.711 121.305C171.547 122.087 169.202 122.748 166.917 123.71C165.775 124.191 164.573 124.612 163.37 125.093C162.208 125.614 161.005 126.135 159.763 126.656C155.013 128.821 150.023 131.406 145.153 134.472C140.283 137.538 135.413 140.965 130.844 144.873C126.215 148.781 121.826 153.05 117.738 157.619C113.649 162.249 109.982 167.118 106.615 172.169C103.308 177.219 100.483 182.45 98.0175 187.68C95.5525 192.851 93.6887 198.141 92.0654 203.132C91.6646 204.414 91.2839 205.677 90.9231 206.919C90.7628 207.52 90.6025 208.122 90.4421 208.723C90.2818 209.364 90.1415 209.985 90.0213 210.587C89.7207 211.789 89.36 212.931 89.1796 214.134C88.9391 215.336 88.6986 216.499 88.4581 217.621C88.3379 218.182 88.2377 218.743 88.1575 219.304C88.0773 219.866 87.9972 220.407 87.917 220.928C87.7567 222.05 87.5964 223.132 87.436 224.174C87.2557 225.196 87.1956 226.218 87.0753 227.241C86.9551 228.243 86.8549 229.205 86.7747 230.126C86.6545 231.088 86.6545 231.99 86.5943 232.832C86.5542 233.714 86.5142 234.575 86.4741 235.417C86.414 236.199 86.3538 236.98 86.3538 237.702C86.3538 238.463 86.3538 239.185 86.3538 239.866C86.3538 241.249 86.2937 242.451 86.3538 243.474C86.3538 244.556 86.3739 245.458 86.414 246.179C86.4741 247.622 86.4741 248.403 86.4741 248.403C86.4741 248.403 86.414 247.622 86.2336 246.179C86.1534 245.458 86.0733 244.576 85.9931 243.534C85.8729 242.451 85.8127 241.249 85.7526 239.866C85.7125 239.185 85.6725 238.483 85.6324 237.762C85.5723 236.98 85.5723 236.199 85.5723 235.357C85.5723 234.555 85.5723 233.714 85.5723 232.832C85.5723 231.93 85.5723 231.028 85.6324 230.066C85.6725 229.104 85.7125 228.122 85.7526 227.12C85.8127 226.098 85.8729 225.076 85.9931 223.994C86.1134 222.952 86.2336 221.87 86.3538 220.747C86.3939 220.186 86.434 219.625 86.4741 219.064C86.5943 218.503 86.6945 217.922 86.7747 217.32C86.935 216.158 87.1154 214.976 87.3158 213.773C87.4962 212.571 87.7968 211.368 88.0373 210.106C88.1575 209.505 88.2978 208.883 88.4581 208.242C88.5784 207.601 88.7187 206.979 88.879 206.378C89.1996 205.096 89.5403 203.813 89.901 202.53C91.4041 197.36 93.1476 191.949 95.6126 186.598C95.9133 185.937 96.2139 185.215 96.5145 184.554C96.8351 183.872 97.1758 183.211 97.5366 182.57C98.1979 181.247 98.7991 179.864 99.5807 178.542C100.302 177.219 101.024 175.876 101.745 174.513C102.587 173.231 103.408 171.928 104.21 170.605C107.577 165.435 111.365 160.385 115.453 155.635C119.661 151.006 124.231 146.617 128.98 142.649C130.183 141.687 131.385 140.725 132.588 139.763C133.83 138.881 135.053 137.999 136.255 137.117L137.217 136.456L138.119 135.795C138.76 135.394 139.402 134.993 140.043 134.592C140.644 134.192 141.265 133.771 141.907 133.33C142.508 132.969 143.129 132.608 143.77 132.248C148.821 129.121 153.931 126.716 158.921 124.612C160.164 124.091 161.386 123.59 162.589 123.109C163.791 122.628 165.054 122.207 166.256 121.846C168.601 120.945 171.006 120.343 173.23 119.682C174.313 119.321 175.455 119.081 176.537 118.84C177.659 118.56 178.721 118.299 179.723 118.059C181.828 117.638 183.872 117.337 185.736 116.977C187.62 116.736 189.363 116.516 190.966 116.315C191.808 116.195 192.59 116.135 193.371 116.075C194.093 116.035 194.794 115.975 195.475 115.894C198.181 115.654 200.345 115.714 201.788 115.654C203.231 115.654 204.013 115.594 204.013 115.594Z" fill="#F05A24"/>
<path d="M114.191 252.07C114.191 252.07 114.071 251.469 113.89 250.326C113.77 249.725 113.59 249.064 113.469 248.222C113.349 247.38 113.229 246.439 113.109 245.396C112.928 244.314 112.868 243.112 112.688 241.789C112.568 240.527 112.568 239.084 112.447 237.581C112.447 236.078 112.447 234.514 112.447 232.831C112.447 231.989 112.507 231.087 112.507 230.186C112.568 229.344 112.568 228.382 112.688 227.48C112.768 226.558 112.868 225.616 112.988 224.654C112.988 224.173 113.048 223.692 113.109 223.151C113.189 222.67 113.269 222.189 113.349 221.708C113.469 220.706 113.61 219.704 113.77 218.702C114.01 217.66 114.231 216.618 114.431 215.576C115.333 211.427 116.475 207.039 118.219 202.65C118.58 201.567 119.061 200.485 119.482 199.403C119.963 198.321 120.383 197.179 120.924 196.096C121.466 195.014 121.947 193.932 122.548 192.85C123.109 191.768 123.69 190.685 124.291 189.603C126.696 185.334 129.522 181.186 132.588 177.278C135.715 173.37 139.202 169.763 142.809 166.456C143.25 166.055 143.711 165.654 144.192 165.254C144.633 164.853 145.094 164.452 145.575 164.051C146.537 163.27 147.438 162.488 148.4 161.767C149.362 161.045 150.324 160.324 151.286 159.662C152.248 158.981 153.21 158.32 154.172 157.678C158.08 155.093 162.048 152.929 165.956 151.125C169.864 149.321 173.591 147.818 177.139 146.796C180.686 145.654 184.053 144.932 186.999 144.331C189.945 143.79 192.53 143.429 194.694 143.249C196.859 142.948 198.542 142.948 199.684 142.888C200.827 142.828 201.488 142.828 201.488 142.828C201.488 142.828 200.887 142.888 199.745 143.069C198.602 143.249 196.919 143.429 194.815 143.85C192.65 144.151 190.125 144.752 187.239 145.473C184.353 146.195 181.167 147.157 177.74 148.419C176.838 148.78 175.996 149.081 175.095 149.381C174.213 149.782 173.331 150.163 172.449 150.524C171.968 150.764 171.547 150.945 171.066 151.125C170.625 151.365 170.165 151.586 169.684 151.786C168.782 152.207 167.82 152.628 166.918 153.109C163.19 155.033 159.463 157.318 155.675 159.843C151.887 162.428 148.28 165.434 144.793 168.621C141.246 171.807 137.939 175.354 134.933 179.202C131.927 182.93 129.161 186.958 126.816 191.046C124.412 195.194 122.367 199.403 120.684 203.612C118.94 207.82 117.618 212.029 116.596 216.057C116.355 217.099 116.115 218.101 115.874 219.063C115.674 220.065 115.473 221.047 115.273 222.009C115.193 222.49 115.113 222.971 115.033 223.452C114.912 223.933 114.852 224.414 114.792 224.895C114.672 225.817 114.532 226.739 114.371 227.66C114.191 229.464 114.01 231.208 113.89 232.831C113.77 234.514 113.65 236.138 113.59 237.581C113.59 239.084 113.529 240.466 113.59 241.789C113.59 243.052 113.59 244.254 113.65 245.336C113.73 246.378 113.79 247.32 113.83 248.162C113.89 249.004 113.95 249.725 114.01 250.266C114.131 251.469 114.191 252.07 114.191 252.07Z" fill="#F05A24"/>
<path d="M3.86719 93.4142C3.86719 93.4142 4.22792 93.2339 4.94939 93.0535C5.61073 92.7529 6.6328 92.4523 7.83524 91.9713C8.43646 91.7308 9.15793 91.4903 9.8794 91.1897C10.6409 90.869 11.4426 90.5283 12.2843 90.1676C13.126 89.8069 14.0278 89.386 14.9898 88.9652C15.9117 88.4842 16.8736 88.0032 17.8756 87.5222C19.9198 86.44 22.0842 85.2977 24.2486 83.9149C26.4731 82.5922 28.6976 80.9689 30.9823 79.3456C33.2669 77.6622 35.4914 75.7984 37.6558 73.8144C39.8803 71.8304 41.9846 69.666 43.9686 67.4415C46.0128 65.2169 47.8766 62.9323 49.6201 60.5274C51.3637 58.1225 52.987 55.7176 54.4299 53.3128C55.0912 52.0502 55.8127 50.8478 56.4139 49.6453C56.7346 49.0441 57.0552 48.4629 57.3759 47.9018C57.6564 47.3006 57.937 46.6993 58.2176 46.0981C58.8188 44.9558 59.2998 43.8135 59.7808 42.6711C60.2617 41.5489 60.7227 40.4667 61.1636 39.4246C61.9452 37.2602 62.6065 35.3362 63.2077 33.5326C63.4482 32.6508 63.6887 31.8291 63.9292 31.0676C64.1296 30.306 64.31 29.6046 64.4703 28.9633C64.831 27.6406 65.0715 26.6185 65.2519 25.8971C65.4322 25.2357 65.4924 24.875 65.4924 24.875C65.4924 24.875 65.4322 25.2357 65.3721 25.9572C65.312 26.6787 65.312 27.7007 65.0715 29.0234C64.9913 29.7048 64.8911 30.4463 64.7709 31.2479C64.6106 32.0496 64.4502 32.9113 64.2899 33.8332C64.1095 34.735 63.8691 35.7571 63.6286 36.7792C63.3881 37.8013 63.0875 38.8233 62.7869 39.9656C62.4261 41.0879 62.0654 42.2303 61.7047 43.3926C61.4642 43.9938 61.2437 44.5951 61.0433 45.1963C60.8028 45.7975 60.5624 46.3987 60.3219 46.9999C59.2998 49.5251 58.0973 52.0502 56.7145 54.5753C55.2716 57.1606 53.7685 59.7458 51.9649 62.2108C50.2213 64.6758 48.2974 67.1408 46.1932 69.4856C44.0889 71.7703 41.8644 73.9346 39.5797 75.9788C37.2951 78.0229 34.8902 79.8266 32.5454 81.51C30.1406 83.1333 27.7357 84.6364 25.3909 85.8388C24.1885 86.5002 23.0461 87.0413 21.9038 87.5824C20.8216 88.1235 19.6793 88.6044 18.5971 89.0854C17.5149 89.5063 16.4928 89.9271 15.5309 90.2879C14.5088 90.5885 13.607 90.9492 12.7051 91.2498C11.7833 91.4903 10.9416 91.7308 10.18 91.9713C9.39842 92.2118 8.67695 92.3921 8.01561 92.5124C6.69292 92.8731 5.67085 93.0535 4.94939 93.1737C4.28804 93.294 3.86719 93.4142 3.86719 93.4142Z" fill="#F05A24"/>
<defs>
<linearGradient id="paint0_linear_26_62" x1="67.8527" y1="385.962" x2="-155.679" y2="148.218" gradientUnits="userSpaceOnUse">
<stop offset="0.034" stop-color="#EC1C24"/>
<stop offset="1" stop-color="#FAAF3B"/>
</linearGradient>
</defs>
</svg>
