<svg width="256" height="256" viewBox="0 0 256 256" fill="none" xmlns="http://www.w3.org/2000/svg">
<mask id="mask0_26_28" style="mask-type:luminance" maskUnits="userSpaceOnUse" x="9" y="31" width="239" height="225">
<path d="M136.214 55.7148C163.172 56.3037 190.026 59.8763 216.199 66.3662L218.136 66.8473L217.583 68.7647C211.072 91.3601 202.379 113.306 191.654 134.233L190.733 136.03L176.98 128.09L177.809 126.465C185.696 111.006 192.428 94.9668 197.936 78.5095C173.026 73.4432 147.594 71.1075 122.177 71.5456L120.222 71.5797V47.5319C89.1456 48.1944 58.2184 52.74 28.2677 61.054C35.1957 87.8682 45.1056 113.867 57.7749 138.495L58.6115 140.123L44.8543 148.068L43.9297 146.278C28.5191 116.429 17.0131 84.6583 9.74584 51.8603L9.36523 50.1423L11.0438 49.6127C50.8811 37.0457 92.5584 30.9723 134.322 31.6258L136.214 31.6563V55.7148ZM178.82 157.207C164.831 180.259 148.309 201.728 129.602 221.152L128.218 222.588L126.834 221.152C110.52 204.213 95.8635 185.713 83.1009 165.961L82.004 164.265L95.7594 156.324L96.7522 157.854C106.195 172.415 116.719 186.266 128.218 199.263C145.061 180.225 159.799 159.367 172.127 137.136L173.075 135.425L193.904 147.45C208.867 120.205 220.395 91.15 228.168 61.0522C201.483 53.6448 174.012 49.2285 146.347 47.8856L144.519 47.7976V31.9112L146.532 32.0046C180.087 33.5826 213.356 39.5052 245.392 49.6109L247.071 50.1405L246.69 51.8585C237.655 92.6419 222.075 131.772 200.627 167.615L199.656 169.237L178.82 157.207ZM58.5002 78.5077C66.5664 102.615 77.2609 125.806 90.3485 147.599L91.3556 149.276L70.5286 161.299C86.643 187.88 106.041 212.391 128.218 234.173C147.975 214.768 165.537 193.185 180.531 169.898L181.522 168.36L195.281 176.304L194.193 177.998C176.048 206.269 154.285 232.119 129.516 254.809L128.218 256L126.918 254.809C96.1185 226.593 70.0205 193.537 49.7034 157.04L48.7842 155.389L69.6202 143.359C56.6511 119.718 46.3192 94.6741 38.8527 68.7629L38.2997 66.8473L40.2368 66.3662C63.0602 60.7075 86.4114 57.2623 109.897 56.0864L111.915 55.9841V71.8669L110.095 71.9621C92.7631 72.8597 75.5051 75.05 58.5002 78.5077ZM71.647 84.3872C109.07 78.1037 147.365 78.1037 184.787 84.3872L187.083 84.7732L186.27 86.9545C172.999 122.506 153.853 155.671 129.699 184.937L128.218 186.732L126.735 184.937C102.581 155.671 83.4348 122.506 70.1659 86.9545L69.3509 84.7732L71.647 84.3872ZM91.5764 97.6058C101.361 120.058 113.666 141.369 128.218 161.067C142.771 141.369 155.074 120.058 164.858 97.6058C140.521 94.8519 115.913 94.8519 91.5764 97.6058Z" fill="white"/>
</mask>
<g mask="url(#mask0_26_28)">
<path d="M9.37109 256.005H247.066V30.9844H9.37109V256.005Z" fill="url(#paint0_linear_26_28)"/>
</g>
<mask id="mask1_26_28" style="mask-type:luminance" maskUnits="userSpaceOnUse" x="9" y="0" width="239" height="234">
<path d="M94.4984 233.593C45.0779 219.044 9 173.349 9 119.219C9 109.69 10.1256 100.426 12.2369 91.543C15.9908 102.981 20.26 114.246 25.0336 125.298C26.9869 158.959 45.0456 188.294 71.6193 205.719C78.8202 215.349 86.4537 224.65 94.4984 233.593ZM244.199 91.5341C246.312 100.419 247.438 109.688 247.438 119.219C247.438 173.347 211.362 219.042 161.945 233.591C169.992 224.649 177.631 215.344 184.835 205.708C211.407 188.278 229.462 158.936 231.406 125.267C236.176 114.225 240.446 102.966 244.199 91.5341ZM128.219 0C159.531 0 188.014 12.0768 209.288 31.8177C197.26 29.3151 185.119 27.3672 172.909 25.9867C159.383 19.4913 144.226 15.8523 128.219 15.8523C112.2 15.8523 97.0315 19.4967 83.4987 26.001C71.298 27.3834 59.1619 29.3259 47.1407 31.8267C68.4129 12.0786 96.904 0 128.219 0Z" fill="white"/>
</mask>
<g mask="url(#mask1_26_28)">
<path d="M8.99414 233.607H247.443V0.0234375H8.99414V233.607Z" fill="url(#paint1_linear_26_28)"/>
</g>
<mask id="mask2_26_28" style="mask-type:luminance" maskUnits="userSpaceOnUse" x="113" y="103" width="30" height="30">
<path d="M128.051 103.359C129.613 103.359 131.121 103.604 132.534 104.052C130.681 105.036 129.417 106.984 129.417 109.228C129.417 112.463 132.038 115.084 135.273 115.084C137.95 115.084 140.209 113.285 140.905 110.831C142.137 112.989 142.841 115.488 142.841 118.151C142.841 126.317 136.218 132.94 128.051 132.94C119.883 132.94 113.26 126.317 113.26 118.151C113.26 109.982 119.883 103.359 128.051 103.359Z" fill="white"/>
</mask>
<g mask="url(#mask2_26_28)">
<path d="M113.268 132.928H142.836V103.359H113.268V132.928Z" fill="url(#paint2_linear_26_28)"/>
</g>
<mask id="mask3_26_28" style="mask-type:luminance" maskUnits="userSpaceOnUse" x="114" y="104" width="28" height="28">
<path d="M140.826 113.673C139.507 115.325 137.48 116.348 135.27 116.348C131.347 116.348 128.166 113.169 128.166 109.248C128.166 107.569 128.755 105.984 129.784 104.736C129.208 104.662 128.629 104.625 128.047 104.625C120.568 104.625 114.504 110.689 114.504 118.169C114.504 125.648 120.568 131.712 128.047 131.712C135.527 131.712 141.591 125.648 141.591 118.169C141.591 116.626 141.331 115.111 140.826 113.673Z" fill="white"/>
</mask>
<g mask="url(#mask3_26_28)">
<path d="M114.504 131.716H141.595V104.625H114.504V131.716Z" fill="url(#paint3_linear_26_28)"/>
</g>
<mask id="mask4_26_28" style="mask-type:luminance" maskUnits="userSpaceOnUse" x="10" y="1" width="237" height="124">
<path d="M12.4951 96.2382C11.2348 102.615 10.5059 109.087 10.3066 115.584C14.3927 118.889 18.8127 122.017 23.5289 124.95C19.4841 115.527 15.8038 105.947 12.4951 96.2382ZM243.948 96.2292C240.637 105.942 236.95 115.528 232.901 124.959C237.623 122.022 242.048 118.893 246.138 115.584C245.941 109.083 245.21 102.608 243.948 96.2292ZM173.26 24.7717C183.912 25.9835 194.511 27.6226 205.03 29.6872C183.637 11.3107 156.554 1.25 128.222 1.25C99.8857 1.25 72.7949 11.3125 51.4042 29.6962C61.9137 27.6352 72.5094 25.9979 83.1519 24.7879C97.2466 18.0484 112.598 14.6069 128.222 14.6069C143.834 14.6069 159.175 18.043 173.26 24.7717Z" fill="white"/>
</mask>
<g mask="url(#mask4_26_28)">
<path d="M10.3066 124.963H246.134V1.25H10.3066V124.963Z" fill="url(#paint4_linear_26_28)"/>
</g>
<mask id="mask5_26_28" style="mask-type:luminance" maskUnits="userSpaceOnUse" x="10" y="32" width="236" height="121">
<path d="M55.8576 140.277C49.9601 138.196 44.3032 135.871 38.9192 133.32C26.6018 107.224 17.2196 79.7739 10.9667 51.5916L10.832 50.9884L11.4209 50.8035C51.0804 38.3048 92.7291 32.2331 134.306 32.8741L134.968 32.8848V56.9362L136.189 56.9631C163.05 57.5502 189.823 61.1138 215.901 67.5786L216.58 67.7473L216.386 68.4188C209.889 90.9316 201.229 112.811 190.547 133.665L190.223 134.295L178.631 127.602L178.922 127.033C186.843 111.523 193.595 95.4198 199.121 78.905L199.568 77.5693L198.186 77.2875C173.195 72.205 147.654 69.8532 122.157 70.2984L121.471 70.311V46.2579L120.197 46.2848C89.0272 46.9508 57.9778 51.5144 27.9357 59.8535L26.7544 60.1802L27.0614 61.3669C34.0109 88.2656 43.9603 114.362 56.6673 139.067L56.9617 139.639L55.8576 140.277ZM89.4832 148.917C82.7617 147.775 76.2233 146.341 69.9057 144.636L71.3024 143.831L70.7153 142.759C57.7947 119.205 47.4844 94.2367 40.052 68.4206L39.8581 67.7473L40.5385 67.5786C63.2811 61.9378 86.5605 58.5124 109.962 57.3347L110.669 57.2988V70.6844L110.03 70.7185C92.6393 71.6251 75.3166 73.8172 58.2525 77.2875L56.8701 77.5693L57.319 78.905C65.4121 103.093 76.1514 126.376 89.2821 148.242L89.634 148.831L89.4832 148.917ZM186.532 144.636C180.145 146.359 173.527 147.806 166.725 148.957C168.958 145.258 171.123 141.52 173.219 137.74L173.552 137.14L186.532 144.636ZM217.494 133.331C211.589 136.128 205.352 138.654 198.832 140.88C211.988 115.642 222.255 88.928 229.375 61.3651L229.682 60.1802L228.502 59.8517C201.731 52.421 174.156 47.9885 146.408 46.6403L145.765 46.6097V33.2188L146.473 33.2511C179.911 34.8219 213.088 40.741 245.015 50.8017L245.604 50.9866L245.471 51.5898C239.211 79.799 229.808 107.236 217.494 133.331ZM71.8536 85.6193C109.125 79.3592 147.309 79.3592 184.581 85.6193L185.387 85.754L185.102 86.5206C176.692 109.042 165.908 130.62 152.98 150.844C147.474 151.427 141.869 151.824 136.18 152.018C147.785 135.034 157.783 116.965 166 98.1055L166.675 96.558L164.996 96.3677C140.575 93.6047 115.859 93.6047 91.4382 96.3677L89.7597 96.558L90.4347 98.1055C98.6517 116.965 108.65 135.034 120.254 152.018C114.565 151.824 108.96 151.427 103.454 150.844C90.5263 130.62 79.742 109.042 71.3329 86.5206L71.0475 85.754L71.8536 85.6193Z" fill="white"/>
</mask>
<g mask="url(#mask5_26_28)">
<path d="M10.8281 152.008H245.615V32.2266H10.8281V152.008Z" fill="url(#paint5_linear_26_28)"/>
</g>
<defs>
<linearGradient id="paint0_linear_26_28" x1="21.7056" y1="403.106" x2="21.7056" y2="-264.923" gradientUnits="userSpaceOnUse">
<stop stop-color="#EC1C24"/>
<stop offset="1" stop-color="#FFF100"/>
</linearGradient>
<linearGradient id="paint1_linear_26_28" x1="13.796" y1="403.113" x2="13.796" y2="-264.917" gradientUnits="userSpaceOnUse">
<stop stop-color="#EC1C24"/>
<stop offset="1" stop-color="#FFF100"/>
</linearGradient>
<linearGradient id="paint2_linear_26_28" x1="113.261" y1="403.077" x2="113.261" y2="-264.952" gradientUnits="userSpaceOnUse">
<stop stop-color="#EC1C24"/>
<stop offset="1" stop-color="#FFF100"/>
</linearGradient>
<linearGradient id="paint3_linear_26_28" x1="114.506" y1="314.793" x2="114.506" y2="-78.7938" gradientUnits="userSpaceOnUse">
<stop stop-color="#EC1C24"/>
<stop offset="1" stop-color="#FFF100"/>
</linearGradient>
<linearGradient id="paint4_linear_26_28" x1="95.7739" y1="314.79" x2="95.7739" y2="-78.7982" gradientUnits="userSpaceOnUse">
<stop stop-color="#EC1C24"/>
<stop offset="1" stop-color="#FFF100"/>
</linearGradient>
<linearGradient id="paint5_linear_26_28" x1="97.6641" y1="314.78" x2="97.6641" y2="-78.808" gradientUnits="userSpaceOnUse">
<stop stop-color="#EC1C24"/>
<stop offset="1" stop-color="#FFF100"/>
</linearGradient>
</defs>
</svg>
