<svg width="256" height="207" viewBox="0 0 256 207" fill="none" xmlns="http://www.w3.org/2000/svg">
<path d="M205.043 138.794H241.718C249.607 138.794 255.999 132.402 255.999 124.512V119.652H205.043V138.794Z" fill="url(#paint0_linear_26_3485)"/>
<path d="M203.781 164.3H229.335C237.224 164.3 243.619 157.906 243.619 150.018V145.156H203.781V164.3Z" fill="url(#paint1_linear_26_3485)"/>
<path d="M192.422 189.794H217.976C225.864 189.794 232.26 183.401 232.26 175.512V170.652H192.422V189.794Z" fill="url(#paint2_linear_26_3485)"/>
<path d="M102.039 103.849L141.611 72.8166V203.335H175.186V15.8555L103.547 68.2967L102.039 103.849Z" fill="url(#paint3_linear_26_3485)"/>
<path d="M141.61 76.2778C141.829 76.1608 142.102 76.1218 142.423 76.2407C153.377 80.3483 164.53 83.9286 175.186 88.7716V15.8516L103.547 68.2909L102.039 103.845L141.611 72.8127L141.61 76.2778Z" fill="url(#paint4_linear_26_3485)"/>
<path opacity="0.3" d="M141.617 171.414V203.335H175.191V164.691C167.895 174.467 153.108 175.793 141.617 171.414Z" fill="url(#paint5_linear_26_3485)"/>
<path d="M184.279 151.923C184.279 143.092 181.667 136.288 176.432 131.502C171.203 126.721 161.767 121.892 148.126 117.016C134.482 112.14 123.636 106.713 115.575 100.73C100.152 89.2336 92.4423 74.2385 92.4423 55.7466C92.4423 39.5574 98.0021 26.2187 109.125 15.7305C120.245 5.24594 134.679 0 152.428 0C164.209 0 174.71 2.57746 183.934 7.72687C193.154 12.8781 200.398 20.217 205.67 29.7377C208.019 33.9791 209.844 38.4247 211.146 43.0764C213.724 52.2871 206.699 61.4048 197.139 61.4048C190.482 61.4048 184.636 56.8831 183.078 50.4115C181.765 44.9947 179.401 40.4488 175.968 36.7738C170.43 30.8407 162.503 27.8752 152.196 27.8752C142.583 27.8752 135.125 30.3134 129.82 35.1898C124.509 40.0662 121.853 46.8702 121.853 55.6092C121.853 62.9703 124.722 69.1114 130.455 74.0324C136.191 78.9515 145.647 83.7388 158.822 88.3813C171.999 93.0274 182.576 98.3161 190.556 104.251C198.539 110.182 204.39 116.992 208.112 124.67C211.831 132.355 213.694 141.346 213.694 151.649C213.694 168.391 208.286 181.706 197.477 191.594C186.662 201.486 171.999 206.428 153.474 206.428C141.229 206.428 129.974 203.737 119.707 198.354C109.436 192.976 101.454 185.546 95.7588 176.07C93.0495 171.563 90.9845 166.705 89.5639 161.491C87.0198 152.167 93.9724 142.952 103.638 142.952C110.459 142.952 116.275 147.703 117.875 154.334C119.342 160.419 122.104 165.457 126.158 169.448C132.507 175.704 141.617 178.829 153.474 178.829C163.708 178.829 171.396 176.373 176.554 171.448C181.702 166.527 184.279 160.02 184.279 151.923Z" fill="url(#paint6_linear_26_3485)"/>
<path d="M141.618 78.2149L175.191 91.9676V15.8555L103.927 67.9884L51.1146 17.343L21.1875 201.55L59.7608 202.746L70.7318 73.1713L102.041 103.795L141.618 72.8185V78.2149Z" fill="url(#paint7_linear_26_3485)"/>
<path d="M50.9556 36.6964H14.282C6.39541 36.6964 0 30.3029 0 22.4144V17.5547H50.9556V36.6964Z" fill="url(#paint8_linear_26_3485)"/>
<path d="M51.3751 62.2003H25.8193C17.9308 62.2003 11.5391 55.8049 11.5391 47.9183V43.0586H51.3751V62.2003Z" fill="url(#paint9_linear_26_3485)"/>
<path d="M60.6563 87.6983H35.1042C27.2157 87.6983 20.8203 81.3029 20.8203 73.4144V68.5547H60.6582V87.6983H60.6563Z" fill="url(#paint10_linear_26_3485)"/>
<defs>
<linearGradient id="paint0_linear_26_3485" x1="233.314" y1="-12.8989" x2="229.185" y2="186.788" gradientUnits="userSpaceOnUse">
<stop stop-color="#00DECE"/>
<stop offset="1" stop-color="#302E8E"/>
</linearGradient>
<linearGradient id="paint1_linear_26_3485" x1="227.022" y1="-13.0226" x2="222.893" y2="186.682" gradientUnits="userSpaceOnUse">
<stop stop-color="#00DECE"/>
<stop offset="1" stop-color="#302E8E"/>
</linearGradient>
<linearGradient id="paint2_linear_26_3485" x1="216.193" y1="-13.1321" x2="212.065" y2="186.555" gradientUnits="userSpaceOnUse">
<stop stop-color="#00DECE"/>
<stop offset="1" stop-color="#302E8E"/>
</linearGradient>
<linearGradient id="paint3_linear_26_3485" x1="138.225" y1="1.79792" x2="139.633" y2="212.946" gradientUnits="userSpaceOnUse">
<stop stop-color="#FF64D0"/>
<stop offset="1" stop-color="#6631A9"/>
</linearGradient>
<linearGradient id="paint4_linear_26_3485" x1="138.224" y1="1.79568" x2="139.631" y2="212.948" gradientUnits="userSpaceOnUse">
<stop stop-color="#F6C073"/>
<stop offset="0.2269" stop-color="#EE9966"/>
<stop offset="0.587" stop-color="#E26252"/>
<stop offset="0.8555" stop-color="#DB3F47"/>
<stop offset="1" stop-color="#D83242"/>
</linearGradient>
<linearGradient id="paint5_linear_26_3485" x1="157.189" y1="1.66761" x2="158.597" y2="212.821" gradientUnits="userSpaceOnUse">
<stop stop-color="#FF64D0"/>
<stop offset="1" stop-color="#6631A9"/>
</linearGradient>
<linearGradient id="paint6_linear_26_3485" x1="148" y1="-11.7391" x2="152.129" y2="187.959" gradientUnits="userSpaceOnUse">
<stop stop-color="#00DECE"/>
<stop offset="1" stop-color="#302E8E"/>
</linearGradient>
<linearGradient id="paint7_linear_26_3485" x1="97.4787" y1="2.06495" x2="98.8865" y2="213.215" gradientUnits="userSpaceOnUse">
<stop stop-color="#FF64D0"/>
<stop offset="1" stop-color="#6631A9"/>
</linearGradient>
<linearGradient id="paint8_linear_26_3485" x1="25.3606" y1="2.55363" x2="26.7682" y2="213.689" gradientUnits="userSpaceOnUse">
<stop stop-color="#FF64D0"/>
<stop offset="1" stop-color="#6631A9"/>
</linearGradient>
<linearGradient id="paint9_linear_26_3485" x1="31.1709" y1="2.51719" x2="32.5785" y2="213.653" gradientUnits="userSpaceOnUse">
<stop stop-color="#FF64D0"/>
<stop offset="1" stop-color="#6631A9"/>
</linearGradient>
<linearGradient id="paint10_linear_26_3485" x1="40.2806" y1="2.4662" x2="41.6884" y2="213.622" gradientUnits="userSpaceOnUse">
<stop stop-color="#FF64D0"/>
<stop offset="1" stop-color="#6631A9"/>
</linearGradient>
</defs>
</svg>
