<svg width="257" height="257" viewBox="0 0 257 257" fill="none" xmlns="http://www.w3.org/2000/svg">
<path d="M201.437 152.216C220.719 185.615 245.682 229.343 256.7 248.797V152.905C240.173 149.806 221.063 150.15 201.437 152.216Z" fill="#4A5172"/>
<path d="M202.642 208.168L223.646 256.2H229.843L202.642 208.168Z" fill="#4A5172"/>
<path d="M156.159 164.784C149.617 166.62 143.133 168.571 136.705 170.637C126.835 173.851 117.079 177.294 107.438 180.967C97.7975 184.754 88.1566 188.714 78.6879 193.018C87.468 187.336 96.4202 181.827 105.372 176.663C108.816 174.711 112.201 172.818 115.53 170.981C90.0504 178.556 72.318 185.615 71.9736 185.787L58.3732 152.044C52.1755 179.589 63.1936 205.069 75.7612 231.237L70.0799 233.819C64.743 222.629 53.897 198.355 53.2084 182.688C52.3476 198.527 59.2339 220.391 64.9152 235.885L62.3328 237.09C57.6845 225.728 52.1754 210.234 49.593 196.461C50.4538 209.717 54.2414 225.384 58.3732 238.64L32.7215 249.658C8.44711 198.355 11.7181 143.092 42.1902 89.7225C20.4982 120.367 10.6852 155.831 8.10282 193.19C6.20907 143.436 19.6374 97.6417 50.4538 57.5288C50.4538 57.5288 69.047 35.6646 99.0026 26.8845C82.9918 30.8442 70.0799 36.8698 60.7833 42.3788C53.897 43.2396 46.6663 44.4447 39.2635 45.822L33.0658 18.6209C44.6005 16.3828 55.6186 14.8334 65.776 13.8005C46.8385 13.1118 31.8607 13.4561 31.8607 13.4561C91.4276 2.09367 120.695 8.80789 120.695 8.80789L160.119 85.935C152.027 61.1441 135.156 7.60275 135.156 7.60275C135.156 7.60275 170.793 77.327 186.287 115.374C210.389 111.931 234.836 110.726 256.7 113.825V0.199951H0.700012V256.2H194.206L156.159 164.784Z" fill="#4A5172"/>
<path d="M198.166 168.916L236.213 256.2H247.403L198.166 168.916Z" fill="#4A5172"/>
<path d="M215.382 140.165C229.327 138.271 244.305 139.648 256.7 142.231V138.96C246.371 137.927 232.77 137.927 215.382 140.165Z" fill="#4A5172"/>
<path d="M77.3107 106.077C68.8175 120.539 62.7345 134.943 59.0618 149.289C66.6368 146.363 97.6254 134.656 136.361 125.187L107.438 66.481C98.314 76.294 87.1237 89.7224 77.3107 106.077Z" fill="#4A5172"/>
<path d="M146.863 134.483C184.738 126.048 226.4 127.597 256.7 132.418V122.949C232.942 121.227 197.305 122.604 146.863 134.483Z" fill="#4A5172"/>
</svg>
