<svg width="241" height="256" viewBox="0 0 241 256" fill="none" xmlns="http://www.w3.org/2000/svg">
<path d="M124.526 108.697C117.932 105.496 111.409 102.143 104.802 98.9648C75.0289 143.155 60.4844 192.871 60.4844 192.871C60.4844 192.871 69.248 231.657 107.273 226.246C76.1103 205.606 110.88 139.072 131.085 111.565C128.85 110.641 126.627 109.719 124.526 108.697Z" fill="url(#paint0_linear_26_3439)"/>
<path opacity="0.3" d="M65.186 178.824C62.0523 187.526 60.4844 192.867 60.4844 192.867C60.4844 192.867 69.2481 231.653 107.273 226.242C104.437 224.366 69.0463 217.202 65.186 178.824Z" fill="url(#paint1_linear_26_3439)"/>
<path d="M167.416 40.457C145.351 50.6845 126.787 68.913 111.637 89.2851C120.959 91.8282 129.838 95.9285 138.236 100.834C146.817 88.8475 154.743 80.8359 160.671 78.1568C197.784 118.351 182.509 247.748 182.509 247.748C218.02 247.697 245.108 216.022 239.684 180.929C231.915 130.656 213.075 66.149 167.416 40.457Z" fill="url(#paint2_linear_26_3439)"/>
<path opacity="0.3" d="M239.689 180.925C238.374 172.416 236.732 163.495 234.705 154.426C234.724 221.771 194.505 243.163 183.406 247.718C218.47 247.142 245.064 215.725 239.689 180.925Z" fill="url(#paint3_linear_26_3439)"/>
<path d="M135.586 11.7992C146.587 20.6925 149.612 42.1864 132.427 47.6422C125.673 49.7837 122.057 47.5593 119.457 42.8429C114.005 33.1571 107.047 26.3225 98.5833 22.339C90.117 18.3555 81.9248 18.09 74.0025 21.5381C66.5496 24.7822 61.37 30.4016 58.4573 38.3941C55.5424 46.3908 55.7995 54.3217 59.2221 62.1825C61.7057 67.889 66.078 73.2662 72.339 78.3141C78.5957 83.3662 91.9526 89.8864 112.403 97.8661C132.85 105.852 146.513 113.69 154.658 119.817C189.212 145.819 184.695 191.688 176.52 211.618C158.179 256.307 111.921 258.005 93.6544 255.105C78.6828 252.727 54.0999 245.795 55.5658 214.203C56.1479 201.596 61.5527 189.344 61.6504 190.264C64.3656 216.266 99.6264 228.336 123.396 219.153C147.596 209.803 151.811 177.491 134.583 161.955C129.504 157.381 119.773 148.995 100.538 141.485C81.2981 133.975 67.5906 126.498 59.4154 119.05C51.236 111.605 43.4751 103.073 39.6595 94.3118C33.0182 79.0576 32.0451 60.9396 37.5052 43.3379C42.9673 25.7383 55.2344 12.5301 73.5287 4.56308C87.3913 -1.47484 102.121 -0.629279 114.211 2.00726C126.296 4.64806 131.83 8.76328 135.586 11.7992Z" fill="url(#paint4_linear_26_3439)"/>
<path d="M30.62 89.1641C30.62 89.1641 35.8803 109.181 51.4276 121.797C39.5451 151.281 36.7152 233.205 48.5977 247.289C48.3725 247.293 48.1473 247.299 47.92 247.304C20.4519 247.922 -1.41796 224.492 0.976385 197.12C3.93373 163.353 11.5353 119.651 30.62 89.1641Z" fill="url(#paint5_linear_26_3439)"/>
<path opacity="0.3" d="M2.78238 180.336C2.04942 186.115 1.44604 191.751 0.976518 197.118C-1.33285 223.496 18.914 246.15 44.9713 247.21C19.768 236.217 6.28361 208.042 2.78238 180.336Z" fill="url(#paint6_linear_26_3439)"/>
<defs>
<linearGradient id="paint0_linear_26_3439" x1="72.1177" y1="238.027" x2="132.589" y2="84.8714" gradientUnits="userSpaceOnUse">
<stop stop-color="#F6C073"/>
<stop offset="0.2269" stop-color="#EE9966"/>
<stop offset="0.587" stop-color="#E26252"/>
<stop offset="0.8555" stop-color="#DB3F47"/>
<stop offset="1" stop-color="#D83242"/>
</linearGradient>
<linearGradient id="paint1_linear_26_3439" x1="72.2046" y1="238.058" x2="132.675" y2="84.9042" gradientUnits="userSpaceOnUse">
<stop stop-color="#F6C073"/>
<stop offset="0.2269" stop-color="#EE9966"/>
<stop offset="0.587" stop-color="#E26252"/>
<stop offset="0.8555" stop-color="#DB3F47"/>
<stop offset="1" stop-color="#D83242"/>
</linearGradient>
<linearGradient id="paint2_linear_26_3439" x1="62.2996" y1="144.102" x2="240.378" y2="144.102" gradientUnits="userSpaceOnUse">
<stop stop-color="#F6C073"/>
<stop offset="0.2269" stop-color="#EE9966"/>
<stop offset="0.587" stop-color="#E26252"/>
<stop offset="0.8555" stop-color="#DB3F47"/>
<stop offset="1" stop-color="#D83242"/>
</linearGradient>
<linearGradient id="paint3_linear_26_3439" x1="62.312" y1="201.073" x2="240.38" y2="201.073" gradientUnits="userSpaceOnUse">
<stop stop-color="#F6C073"/>
<stop offset="0.2269" stop-color="#EE9966"/>
<stop offset="0.587" stop-color="#E26252"/>
<stop offset="0.8555" stop-color="#DB3F47"/>
<stop offset="1" stop-color="#D83242"/>
</linearGradient>
<linearGradient id="paint4_linear_26_3439" x1="33.9672" y1="127.996" x2="182.313" y2="127.996" gradientUnits="userSpaceOnUse">
<stop stop-color="#FF64D0"/>
<stop offset="1" stop-color="#6631A9"/>
</linearGradient>
<linearGradient id="paint5_linear_26_3439" x1="0.798137" y1="168.24" x2="51.4282" y2="168.24" gradientUnits="userSpaceOnUse">
<stop stop-color="#F6C073"/>
<stop offset="0.2269" stop-color="#EE9966"/>
<stop offset="0.587" stop-color="#E26252"/>
<stop offset="0.8555" stop-color="#DB3F47"/>
<stop offset="1" stop-color="#D83242"/>
</linearGradient>
<linearGradient id="paint6_linear_26_3439" x1="0.796145" y1="213.774" x2="51.4237" y2="213.774" gradientUnits="userSpaceOnUse">
<stop stop-color="#F6C073"/>
<stop offset="0.2269" stop-color="#EE9966"/>
<stop offset="0.587" stop-color="#E26252"/>
<stop offset="0.8555" stop-color="#DB3F47"/>
<stop offset="1" stop-color="#D83242"/>
</linearGradient>
</defs>
</svg>
