<svg width="223" height="256" viewBox="0 0 223 256" fill="none" xmlns="http://www.w3.org/2000/svg">
<path d="M133.87 162.584C145.575 161.746 222.645 157.241 222.645 81.5523C222.645 36.7008 187.053 0 142.36 0H0.289062C9.20955 14.1279 21.4583 25.4936 35.6315 33.3047C49.8273 41.1384 65.9702 45.4402 82.6791 45.4402H142.36C161.945 45.4402 177.793 61.651 177.205 81.3485C176.639 100.299 160.586 115.129 141.636 115.129H72.8077L72.8529 115.174C61.5099 115.808 51.8876 122.849 47.4952 132.721C25.9638 132.811 19.3527 157.512 19.3527 157.512C19.3527 157.512 19.3753 157.49 19.4206 157.467C20.3715 156.856 29.8354 149.09 44.9595 150.29C137.877 157.807 161.288 254.845 161.673 255.977V256H222.532L165.975 166.365C148.519 167.701 133.87 162.584 133.87 162.584ZM65.0646 123.732H72.6492C72.6492 126.381 70.4983 128.509 67.872 128.509H60.2646C60.2646 125.86 62.3929 123.732 65.0646 123.732Z" fill="url(#paint0_linear_37_138)"/>
<path d="M177.183 79.437C177.156 78.3571 177.077 77.2929 176.957 76.2266C177.143 77.6258 177.224 79.0635 177.211 80.5147L177.183 79.437Z" fill="url(#paint1_linear_37_138)"/>
<path d="M173.199 80.4179C172.429 79.784 171.614 79.218 170.776 78.652C170.754 78.6293 170.708 78.6067 170.686 78.584C169.893 78.0633 169.056 77.5878 168.218 77.135C168.014 77.0218 167.788 76.9086 167.561 76.7954C167.335 76.6596 167.108 76.5464 166.859 76.4558C166.429 76.2067 165.976 76.003 165.524 75.8219C165.478 75.7992 165.433 75.7766 165.388 75.7766C164.958 75.5728 164.505 75.3917 164.052 75.2332C163.576 75.0294 163.078 74.871 162.58 74.7125C162.15 74.554 161.72 74.4408 161.29 74.3276C160.814 74.1691 160.316 74.0332 159.818 73.9427C159.524 73.8521 159.252 73.7842 158.958 73.7389C158.12 73.5351 157.26 73.3993 156.377 73.2861C155.833 73.2182 155.267 73.1502 154.701 73.105C153.705 73.0144 152.709 72.9691 151.69 72.9691H92.0088C75.2999 72.9691 59.1569 68.6674 44.9611 60.8336C44.0781 60.3582 43.1951 59.8374 42.3348 59.3167C41.7008 58.9544 41.0669 58.5696 40.433 58.162C38.8255 57.1658 37.2632 56.1243 35.7236 55.0376C34.9765 54.5168 34.2294 53.9735 33.5049 53.4074C32.6672 52.7961 31.8747 52.1622 31.0596 51.5282C30.0634 50.7358 29.0898 49.9207 28.1389 49.083C27.3691 48.4038 26.5994 47.7246 25.8296 47.0227C24.924 46.1623 24.0183 45.302 23.1353 44.419C22.0486 43.3323 20.9844 42.2228 19.943 41.0908C18.9015 39.9588 17.9053 38.8041 16.9091 37.6041C16.0261 36.54 15.1657 35.4532 14.3507 34.3438C14.1243 34.0722 13.9205 33.8005 13.7167 33.5061C12.9017 32.4194 12.1093 31.2873 11.3395 30.1553C10.7508 29.2949 10.1848 28.4346 9.66406 27.5742C11.1357 28.7063 36.9689 48.268 69.4585 49.4453C73.8508 50.0339 78.2658 50.3056 82.6808 50.3056H142.362C150.762 50.3056 158.618 53.6565 164.505 59.7016C166.746 62.0109 168.603 64.6146 169.961 67.3995H169.984C171.976 71.4069 173.086 75.8218 173.199 80.4179Z" fill="url(#paint2_linear_37_138)"/>
<path d="M171.41 85.5584C171.025 87.5282 170.459 89.4527 169.667 91.2639C168.173 94.9091 165.908 98.192 163.124 100.932C163.078 100.932 162.829 100.932 162.422 100.909C162.399 100.909 162.376 100.909 162.376 100.909C159.048 100.886 145.396 100.886 131.834 100.864C116.416 100.841 101.11 100.841 101.11 100.841C89.6088 100.841 78.4016 98.826 67.8963 95.0223C63.1191 93.279 58.5003 91.1734 54.0627 88.7282C46.0931 84.3358 38.7349 78.8115 32.237 72.3135C30.0634 70.1627 27.9805 67.8759 26.0107 65.4986C24.041 63.1213 22.1844 60.6309 20.441 58.0498C19.8524 57.1895 19.2864 56.3291 18.7656 55.4688C20.2373 56.4876 46.229 74.4191 76.5677 77.0455H76.5904C81.594 77.8153 86.6882 78.2001 91.7823 78.2001H151.464C158.867 78.2001 165.841 80.7812 171.41 85.5584Z" fill="url(#paint3_linear_37_138)"/>
<path d="M82.6791 45.4402H142.36C159.749 45.4402 174.216 58.2323 176.797 74.8959C177.023 73.4922 177.159 72.0431 177.205 70.5941C177.793 50.8966 161.945 34.6858 142.36 34.6858H82.6791C65.9702 34.6858 42.5437 30.1825 28.2392 22.5503C12.6736 14.2479 0.289062 0 0.289062 0C9.20955 14.1279 21.4583 25.4936 35.6315 33.3047C49.8273 41.1384 65.9702 45.4402 82.6791 45.4402Z" fill="url(#paint4_linear_37_138)"/>
<path d="M161.678 255.998V255.975C161.293 254.843 137.883 157.804 44.9646 150.288C29.8406 149.088 20.3767 156.853 19.4258 157.465C21.0106 155.835 50.2852 127.692 104.94 160.702C161.157 194.664 176.961 255.998 176.961 255.998H161.678Z" fill="url(#paint5_linear_37_138)"/>
<defs>
<linearGradient id="paint0_linear_37_138" x1="198.617" y1="229.831" x2="36.7961" y2="-25.2205" gradientUnits="userSpaceOnUse">
<stop stop-color="#102BFF"/>
<stop offset="0.1007" stop-color="#0C5DFF"/>
<stop offset="0.2359" stop-color="#079AFF"/>
<stop offset="0.3354" stop-color="#03C0FF"/>
<stop offset="0.3876" stop-color="#02CEFF"/>
</linearGradient>
<linearGradient id="paint1_linear_37_138" x1="176.958" y1="78.3704" x2="177.212" y2="78.3704" gradientUnits="userSpaceOnUse">
<stop stop-color="#102BFF"/>
<stop offset="0.2599" stop-color="#0C5DFF"/>
<stop offset="0.6087" stop-color="#079AFF"/>
<stop offset="0.8654" stop-color="#03C0FF"/>
<stop offset="1" stop-color="#02CEFF"/>
</linearGradient>
<linearGradient id="paint2_linear_37_138" x1="172.779" y1="81.0598" x2="8.69934" y2="28.6062" gradientUnits="userSpaceOnUse">
<stop stop-color="#102BFF"/>
<stop offset="0.0243" stop-color="#0F36FF"/>
<stop offset="0.1281" stop-color="#0C5EFF"/>
<stop offset="0.2385" stop-color="#0981FF"/>
<stop offset="0.3549" stop-color="#069DFF"/>
<stop offset="0.4794" stop-color="#04B3FF"/>
<stop offset="0.6159" stop-color="#03C2FF"/>
<stop offset="0.7734" stop-color="#02CBFF"/>
<stop offset="1" stop-color="#02CEFF"/>
</linearGradient>
<linearGradient id="paint3_linear_37_138" x1="163.491" y1="102.67" x2="17.2122" y2="57.161" gradientUnits="userSpaceOnUse">
<stop stop-color="#102BFF"/>
<stop offset="0.0243" stop-color="#0F36FF"/>
<stop offset="0.1281" stop-color="#0C5EFF"/>
<stop offset="0.2385" stop-color="#0981FF"/>
<stop offset="0.3549" stop-color="#069DFF"/>
<stop offset="0.4794" stop-color="#04B3FF"/>
<stop offset="0.6159" stop-color="#03C2FF"/>
<stop offset="0.7734" stop-color="#02CBFF"/>
<stop offset="1" stop-color="#02CEFF"/>
</linearGradient>
<linearGradient id="paint4_linear_37_138" x1="-39.4003" y1="37.448" x2="222.455" y2="37.448" gradientUnits="userSpaceOnUse">
<stop stop-color="#102BFF"/>
<stop offset="0.2599" stop-color="#0C5DFF"/>
<stop offset="0.6087" stop-color="#079AFF"/>
<stop offset="0.8654" stop-color="#03C0FF"/>
<stop offset="1" stop-color="#02CEFF"/>
</linearGradient>
<linearGradient id="paint5_linear_37_138" x1="-15.9127" y1="200.366" x2="217.236" y2="200.366" gradientUnits="userSpaceOnUse">
<stop stop-color="#102BFF"/>
<stop offset="0.2599" stop-color="#0C5DFF"/>
<stop offset="0.6087" stop-color="#079AFF"/>
<stop offset="0.8654" stop-color="#03C0FF"/>
<stop offset="1" stop-color="#02CEFF"/>
</linearGradient>
</defs>
</svg>
