<svg width="243" height="257" viewBox="0 0 243 257" fill="none" xmlns="http://www.w3.org/2000/svg">
<path d="M121.482 183.635C133.01 183.635 175.372 178.387 192.055 256.551C223.17 253.552 242.664 249.709 242.664 249.709C215.391 -16.6479 121.482 0.784314 121.482 0.784314C121.482 0.784314 27.573 -16.6479 0.299988 249.709C0.299988 249.709 19.7941 253.552 50.816 256.551C67.5922 178.387 109.861 183.635 121.482 183.635Z" fill="url(#paint0_linear_1_534)"/>
<path d="M242.664 249.709C215.391 -16.6479 121.482 0.784314 121.482 0.784314C121.482 0.784314 203.676 89.5388 192.055 256.551C223.17 253.552 242.664 249.709 242.664 249.709Z" fill="url(#paint1_linear_1_534)"/>
<path d="M203.301 75.8552C228.419 194.694 192.055 256.551 192.055 256.551C223.17 253.552 242.664 249.709 242.664 249.709C234.229 167.89 219.609 112.875 203.301 75.8552Z" fill="url(#paint2_linear_1_534)"/>
<path d="M0.299988 249.709C27.573 -16.6479 121.482 0.784314 121.482 0.784314C121.482 0.784314 39.1945 89.5388 50.816 256.551C19.7941 253.552 0.299988 249.709 0.299988 249.709Z" fill="url(#paint3_linear_1_534)"/>
<path d="M39.5694 75.8552C14.5457 194.694 50.816 256.551 50.816 256.551C19.7941 253.552 0.299988 249.709 0.299988 249.709C8.64122 167.89 23.3555 112.875 39.5694 75.8552Z" fill="url(#paint4_linear_1_534)"/>
<path d="M148.287 143.522C147.724 136.774 139.196 128.152 135.822 125.059C133.01 106.034 121.482 96.0054 121.482 96.0054C121.482 96.0054 109.861 106.034 107.049 125.059C103.769 128.152 95.2401 136.774 94.584 143.522C94.584 143.522 99.8324 145.022 107.611 145.397C107.861 146.584 108.111 147.802 108.361 149.052C108.361 149.052 113.235 152.051 121.482 152.051C129.636 152.051 134.509 149.052 134.509 149.052C134.822 147.802 135.072 146.584 135.259 145.397C143.132 145.022 148.287 143.522 148.287 143.522Z" fill="#280766"/>
<path d="M121.482 155.612C121.482 155.612 116.234 155.612 111.641 153.832C111.641 153.832 111.173 161.892 121.482 164.141C131.698 161.892 131.323 153.832 131.323 153.832C126.731 155.612 121.482 155.612 121.482 155.612Z" fill="#280766"/>
<defs>
<linearGradient id="paint0_linear_1_534" x1="228.228" y1="-82.5886" x2="328.458" y2="211.152" gradientUnits="userSpaceOnUse">
<stop offset="0.015" stop-color="#0EC7F6"/>
<stop offset="1" stop-color="#0070E6"/>
</linearGradient>
<linearGradient id="paint1_linear_1_534" x1="377.535" y1="286.994" x2="240.297" y2="342.847" gradientUnits="userSpaceOnUse">
<stop offset="0.015" stop-color="#0EC7F6"/>
<stop offset="1" stop-color="#0070E6"/>
</linearGradient>
<linearGradient id="paint2_linear_1_534" x1="259.65" y1="-6.90852" x2="301.665" y2="5.48935" gradientUnits="userSpaceOnUse">
<stop offset="0.015" stop-color="#0EC7F6"/>
<stop offset="1" stop-color="#0489EB"/>
</linearGradient>
<linearGradient id="paint3_linear_1_534" x1="15.5035" y1="-100.735" x2="152.239" y2="-56.8446" gradientUnits="userSpaceOnUse">
<stop offset="0.015" stop-color="#0EC7F6"/>
<stop offset="1" stop-color="#0070E6"/>
</linearGradient>
<linearGradient id="paint4_linear_1_534" x1="62.3972" y1="299.716" x2="25.3115" y2="305.314" gradientUnits="userSpaceOnUse">
<stop offset="0.015" stop-color="#0EC7F6"/>
<stop offset="1" stop-color="#0489EB"/>
</linearGradient>
</defs>
</svg>
