<svg width="257" height="256" viewBox="0 0 257 256" fill="none" xmlns="http://www.w3.org/2000/svg">
<path d="M104.471 132.634C123.499 128.888 155.799 124.981 186.582 132.668C183.278 128.525 179.926 124.423 176.474 120.41C165.774 107.747 154.392 95.6597 142.236 84.3942C130.313 72.8616 117.524 62.2673 104.372 52.1044C97.787 47.0297 91.0174 42.1811 84.1109 37.538C77.3755 32.7921 70.3868 28.4365 63.3398 24.1562C68.3802 31.977 73.0781 40.0615 77.372 48.3925C83.4808 60.4079 88.8534 72.889 93.1164 85.7981C97.6192 98.6353 100.821 111.928 103.286 125.351C103.731 127.765 104.098 130.199 104.471 132.634Z" fill="#404040"/>
<path d="M101.721 8.68372C109.696 13.0324 117.424 17.8091 125.053 22.7502C140.328 32.6186 154.641 43.9252 168.362 55.879C181.836 68.1032 194.776 80.9884 206.422 94.9795C217.982 109.015 229.144 123.431 238.653 138.905C243.673 146.469 247.916 154.495 252.524 162.288C253.87 164.822 255.161 167.384 256.469 169.938V43.3602C256.469 19.4116 237.054 0 213.106 0H84.6445C90.4006 2.7633 96.1292 5.59512 101.721 8.68372Z" fill="#404040"/>
<path d="M53.0198 254.371C54.3895 248.69 55.6668 242.958 56.7214 237.171C57.8514 231.402 58.8239 225.594 59.5703 219.76C60.4093 213.938 61.1385 208.1 61.5939 202.242C62.5938 190.534 63.1452 178.796 62.902 167.062C62.9568 155.313 61.7995 143.62 60.4675 131.947C59.8648 126.092 58.7999 120.308 57.8514 114.487C56.581 108.741 55.5777 102.91 54.1054 97.1813C51.4927 85.6282 47.7638 74.3352 43.9082 63.0047C37.1249 44.2676 28.633 25.945 19.0624 7.79688C7.83456 15.6348 0.472656 28.626 0.472656 43.3568V212.63C0.472656 236.579 19.8877 255.991 43.8363 255.991H52.609C52.7356 255.45 52.8897 254.919 53.0198 254.371Z" fill="#404040"/>
<path d="M241.605 218.988C230.888 201.456 192.674 150.991 106.2 145.848C106.892 152.573 107.337 159.322 107.57 166.078C107.844 179.737 107.32 193.423 105.618 206.969C103.964 220.522 101.293 233.927 97.53 247.066C96.65 250.059 95.7049 253.034 94.7188 256H213.102C228.569 256 242.112 247.874 249.786 235.684C247.125 230.075 244.416 224.501 241.605 218.988Z" fill="#404040"/>
</svg>
