<svg width="248" height="256" viewBox="0 0 248 256" fill="none" xmlns="http://www.w3.org/2000/svg">
<path d="M236.695 158.661L228.739 147.003L236.695 135.344C256.241 106.694 248.842 67.4824 220.192 47.9296C218.998 47.119 217.792 46.3501 216.56 45.6295C199.288 35.48 178.423 35.451 160.742 45.5684C160.449 45.7356 160.17 45.9287 159.88 46.0992L130.885 3.61266C130.773 3.4486 130.628 3.3167 130.506 3.16229C130.306 2.91136 130.117 2.65723 129.888 2.42883C129.673 2.21329 129.431 2.03312 129.193 1.84332C129.029 1.71142 128.888 1.55698 128.711 1.43796C128.682 1.41865 128.647 1.40582 128.618 1.38651C128.354 1.2128 128.071 1.07769 127.788 0.936139C127.575 0.826762 127.373 0.69809 127.157 0.611232C126.916 0.511506 126.662 0.45682 126.414 0.38283C126.15 0.302406 125.886 0.20266 125.619 0.151188C125.339 0.0964997 125.053 0.0900889 124.767 0.0643531C124.529 0.0450513 124.291 0 124.053 0C123.667 0 123.277 0.0514868 122.891 0.106175C122.756 0.125477 122.618 0.122262 122.486 0.147998C122.139 0.215554 121.804 0.331349 121.463 0.443943C121.289 0.501849 121.109 0.537245 120.939 0.604802C120.694 0.704528 120.466 0.846047 120.228 0.968291C119.97 1.10019 119.71 1.22243 119.469 1.38327C119.436 1.40258 119.404 1.41546 119.372 1.43477C119.192 1.55701 119.047 1.71466 118.88 1.84656C118.645 2.03314 118.407 2.21003 118.195 2.42235C117.966 2.65075 117.776 2.90493 117.577 3.15586C117.455 3.31027 117.31 3.44216 117.197 3.60623L88.2027 46.0928C87.9132 45.919 87.6366 45.7292 87.3406 45.5619C69.6634 35.4446 48.7981 35.4703 31.523 45.623C30.2941 46.3436 29.0877 47.1125 27.891 47.9232C-0.756113 67.4727 -8.16159 106.688 11.3879 135.338L19.3435 146.996L11.3879 158.655C1.91717 172.533 -1.57964 189.267 1.53439 205.78C4.65164 222.289 14.0098 236.599 27.9039 246.079C29.0909 246.883 30.2941 247.652 31.5197 248.369C40.1766 253.455 49.7342 256 59.3401 256C68.9042 256 78.5165 253.478 87.3374 248.43C105.475 238.049 116.74 218.715 116.74 197.963V183.48H131.333V197.963C131.333 218.712 142.598 238.049 160.736 248.43C169.557 253.478 179.169 256 188.733 256C198.339 256 207.897 253.455 216.553 248.369C217.776 247.652 218.979 246.883 220.185 246.069C234.063 236.595 243.422 222.286 246.539 205.78C249.666 189.274 246.166 172.539 236.695 158.661ZM208.17 59.9128C209.077 60.4468 209.972 61.013 210.856 61.6178C231.959 76.0202 237.412 104.905 223.01 126.009L218.712 132.308L169.241 59.8163C181.636 52.8419 196.161 52.8548 208.17 59.9128ZM147.91 159.176V142.129H163.876C170.708 142.129 176.271 147.691 176.271 154.524C176.271 161.357 170.708 166.919 163.876 166.919H147.91V159.176ZM131.342 125.565H116.75V96.033C116.75 81.2382 110.998 67.18 101.135 56.5575L124.046 22.982L146.957 56.5575C137.094 67.18 131.342 81.2382 131.342 96.033V125.565ZM100.183 159.176V166.922H84.2137C77.3809 166.922 71.822 161.36 71.822 154.527C71.822 147.694 77.3809 142.132 84.2137 142.132H100.183V159.176ZM25.0825 126.009C10.6802 104.902 16.133 76.017 37.2363 61.6178C38.121 61.013 39.0153 60.4468 39.9224 59.9128C51.9282 52.858 66.4528 52.8419 78.851 59.8163L29.3804 132.308L25.0825 126.009ZM100.183 197.972C100.183 213.021 92.3076 226.51 79.1181 234.06C66.6652 241.186 52.0118 241.202 39.9192 234.096C39.0056 233.558 38.1081 232.986 37.2331 232.391C27.0095 225.413 20.1155 214.874 17.8186 202.714C15.5249 190.551 18.0986 178.223 25.0794 168.003L91.5162 70.6479C97.0783 77.7767 100.18 86.5976 100.18 96.033V125.565H84.2105C68.2414 125.565 55.2514 138.555 55.2514 154.527C55.2514 170.499 68.2414 183.49 84.2105 183.49H100.18L100.183 197.972ZM116.75 166.922V159.176V142.129H131.342V159.176V166.922H116.75ZM210.872 232.381C209.981 232.986 209.084 233.558 208.17 234.096C196.081 241.199 181.431 241.189 168.974 234.06C155.785 226.51 147.91 213.021 147.91 197.972V183.49H163.876C179.848 183.49 192.838 170.499 192.838 154.527C192.838 138.555 179.848 125.565 163.876 125.565H147.91V96.033C147.91 86.5976 151.011 77.7767 156.573 70.6479L223.01 168.003C237.409 189.103 231.96 217.988 210.872 232.381Z" fill="#404040"/>
</svg>
