<svg width="222" height="256" viewBox="0 0 222 256" fill="none" xmlns="http://www.w3.org/2000/svg">
<path d="M151.943 0H148.999H73.7199H70.7763L0.769531 155.246V243.592V255.202V256H57.9022H70.2391H70.3067L111.358 163.648L152.409 256H152.477H164.814H221.946V255.202V243.592V155.246L151.943 0ZM181.365 219.108L136.302 119.171H123.897H117.682V14.0194L181.368 155.246V219.108H181.365ZM86.4139 119.174L41.3511 219.111V155.249L105.037 14.0226V119.178H98.8215L86.4139 119.174ZM159.303 243.592L117.901 150.453H117.222H105.493H104.815L63.4128 243.592H13.1708V155.246L77.5833 12.4012H93.356L28.9434 155.246V224.719H38.8194H41.3479H51.2239L93.2241 131.582H129.485L171.486 224.719H181.362H183.89H193.766V155.246L129.353 12.4012H145.126L209.539 155.246V243.592H159.303Z" fill="#404040"/>
</svg>
