<svg width="257" height="257" viewBox="0 0 257 257" fill="none" xmlns="http://www.w3.org/2000/svg">
<path d="M37.5767 38.6302L43.8855 32.3214C70.7912 8.74401 106.13 -2.32803 141.393 1.3011C143.503 1.51706 145.233 2.51439 146.483 4.23211C147.732 5.94818 148.152 7.90575 147.709 9.9779C141.163 40.7238 112.12 67.4902 85.5715 92.0913C68.4825 107.925 51.5979 123.569 40.0074 140.382C20.0163 169.38 17.3878 197.589 54.0558 233.792C48.2663 229.696 42.7505 225.059 37.5767 219.883V219.878C-12.2652 170.037 -12.2652 88.4787 37.5767 38.6302ZM199.234 53.2745C199.234 153.705 24.0592 142.982 149.909 255.433C86.8211 266.15 13.4734 202.534 51.0597 148.016C61.7938 132.456 78.1616 117.289 94.7297 101.937C119.419 79.0617 153.674 48.5392 161.804 13.8799C162.334 11.6157 163.758 9.88723 165.887 8.94018C168.014 7.99065 170.248 8.08297 172.289 9.19981C190.309 19.0701 199.234 40.1666 199.234 53.2745ZM212.186 33.0179C225.26 47.0226 231.405 53.2086 233.449 56.1462C268.043 106.037 263.186 175.519 218.822 219.883C200.003 238.698 176.668 250.404 152.222 255.017C136.441 233.978 149.214 196.387 183.257 216.19C186.61 217.764 190.554 217.355 193.516 215.137C196.472 212.911 196.985 209.254 197.386 205.576C198.01 199.818 201.471 194.75 204.803 190.019C209.179 188.847 215.638 185.128 213.707 181.03C211.3 175.926 204.229 175.107 202.581 172.072C211.863 169.929 217.758 173.185 220.257 168.853C221.36 166.943 221.673 163.774 220.189 162.145C218.436 160.784 217.461 158.665 217.577 156.45C217.699 154.245 218.893 152.232 220.784 151.08C228.474 146.948 232.318 144.881 232.318 144.881C238.271 142.944 239.467 139.105 235.894 133.37C223.963 118.439 219.153 104.105 221.485 90.3629C225.659 91.7765 230.542 91.4179 232.803 89.0186C230.898 89.0969 228.986 88.9889 227.117 88.6963C225.412 88.4276 223.728 87.9932 222.099 87.4171C222.502 85.7546 223.017 84.111 223.637 82.4667C226.963 70.3149 232.084 54.4746 212.186 33.0179Z" fill="url(#paint0_linear_37_39685)"/>
<defs>
<linearGradient id="paint0_linear_37_39685" x1="78.518" y1="206.71" x2="179.217" y2="51.4116" gradientUnits="userSpaceOnUse">
<stop stop-color="#8B7055"/>
<stop offset="0.0078125" stop-color="#8B7155"/>
<stop offset="0.015625" stop-color="#8C7155"/>
<stop offset="0.0234375" stop-color="#8C7256"/>
<stop offset="0.03125" stop-color="#8D7256"/>
<stop offset="0.0390625" stop-color="#8E7357"/>
<stop offset="0.046875" stop-color="#8E7357"/>
<stop offset="0.0546875" stop-color="#8F7457"/>
<stop offset="0.0625" stop-color="#8F7458"/>
<stop offset="0.0703125" stop-color="#907558"/>
<stop offset="0.078125" stop-color="#917659"/>
<stop offset="0.0859375" stop-color="#917659"/>
<stop offset="0.09375" stop-color="#927759"/>
<stop offset="0.101562" stop-color="#92775A"/>
<stop offset="0.109375" stop-color="#93785A"/>
<stop offset="0.117188" stop-color="#94785B"/>
<stop offset="0.125" stop-color="#94795B"/>
<stop offset="0.132812" stop-color="#95795C"/>
<stop offset="0.140625" stop-color="#957A5C"/>
<stop offset="0.148438" stop-color="#967A5C"/>
<stop offset="0.15625" stop-color="#977B5D"/>
<stop offset="0.164063" stop-color="#977C5D"/>
<stop offset="0.171875" stop-color="#987C5E"/>
<stop offset="0.179688" stop-color="#997D5E"/>
<stop offset="0.1875" stop-color="#997D5F"/>
<stop offset="0.195313" stop-color="#9A7E5F"/>
<stop offset="0.203125" stop-color="#9A7E5F"/>
<stop offset="0.210938" stop-color="#9B7F60"/>
<stop offset="0.21875" stop-color="#9C7F60"/>
<stop offset="0.226563" stop-color="#9C8061"/>
<stop offset="0.234375" stop-color="#9D8061"/>
<stop offset="0.242188" stop-color="#9D8162"/>
<stop offset="0.25" stop-color="#9E8262"/>
<stop offset="0.257813" stop-color="#9F8262"/>
<stop offset="0.265625" stop-color="#9F8363"/>
<stop offset="0.273438" stop-color="#A08363"/>
<stop offset="0.28125" stop-color="#A08464"/>
<stop offset="0.289063" stop-color="#A18464"/>
<stop offset="0.296875" stop-color="#A28564"/>
<stop offset="0.304688" stop-color="#A28565"/>
<stop offset="0.3125" stop-color="#A38665"/>
<stop offset="0.320313" stop-color="#A48666"/>
<stop offset="0.328125" stop-color="#A48766"/>
<stop offset="0.335938" stop-color="#A58867"/>
<stop offset="0.34375" stop-color="#A58867"/>
<stop offset="0.351563" stop-color="#A68967"/>
<stop offset="0.359375" stop-color="#A78968"/>
<stop offset="0.367188" stop-color="#A78A68"/>
<stop offset="0.375" stop-color="#A88A69"/>
<stop offset="0.382813" stop-color="#A88B69"/>
<stop offset="0.390625" stop-color="#A98B6A"/>
<stop offset="0.398438" stop-color="#AA8C6A"/>
<stop offset="0.40625" stop-color="#AA8C6A"/>
<stop offset="0.414063" stop-color="#AB8D6B"/>
<stop offset="0.421875" stop-color="#AB8E6B"/>
<stop offset="0.429688" stop-color="#AC8E6C"/>
<stop offset="0.4375" stop-color="#AD8F6C"/>
<stop offset="0.445313" stop-color="#AD8F6D"/>
<stop offset="0.453125" stop-color="#AE906D"/>
<stop offset="0.460938" stop-color="#AE906D"/>
<stop offset="0.46875" stop-color="#AF916E"/>
<stop offset="0.476562" stop-color="#B0916E"/>
<stop offset="0.484375" stop-color="#B0926F"/>
<stop offset="0.492188" stop-color="#B1926F"/>
<stop offset="0.5" stop-color="#B2936F"/>
<stop offset="0.507812" stop-color="#B29470"/>
<stop offset="0.515625" stop-color="#B39470"/>
<stop offset="0.523438" stop-color="#B39571"/>
<stop offset="0.53125" stop-color="#B49571"/>
<stop offset="0.539063" stop-color="#B59672"/>
<stop offset="0.546875" stop-color="#B59672"/>
<stop offset="0.554688" stop-color="#B69772"/>
<stop offset="0.5625" stop-color="#B69773"/>
<stop offset="0.570313" stop-color="#B79873"/>
<stop offset="0.578125" stop-color="#B89874"/>
<stop offset="0.585938" stop-color="#B89974"/>
<stop offset="0.59375" stop-color="#B99A75"/>
<stop offset="0.601562" stop-color="#B99A75"/>
<stop offset="0.609375" stop-color="#BA9B75"/>
<stop offset="0.617188" stop-color="#BB9B76"/>
<stop offset="0.625" stop-color="#BB9C76"/>
<stop offset="0.632812" stop-color="#BC9C77"/>
<stop offset="0.640625" stop-color="#BC9D77"/>
<stop offset="0.648438" stop-color="#BD9D78"/>
<stop offset="0.65625" stop-color="#BE9E78"/>
<stop offset="0.664063" stop-color="#BE9E78"/>
<stop offset="0.671875" stop-color="#BF9F79"/>
<stop offset="0.679688" stop-color="#C0A079"/>
<stop offset="0.6875" stop-color="#C0A07A"/>
<stop offset="0.695313" stop-color="#C1A17A"/>
<stop offset="0.703125" stop-color="#C1A17A"/>
<stop offset="0.710938" stop-color="#C2A27B"/>
<stop offset="0.71875" stop-color="#C3A27B"/>
<stop offset="0.726562" stop-color="#C3A37C"/>
<stop offset="0.734375" stop-color="#C4A37C"/>
<stop offset="0.742188" stop-color="#C4A47D"/>
<stop offset="0.75" stop-color="#C5A47D"/>
<stop offset="0.757812" stop-color="#C6A57D"/>
<stop offset="0.765625" stop-color="#C6A67E"/>
<stop offset="0.773438" stop-color="#C7A67E"/>
<stop offset="0.78125" stop-color="#C7A77F"/>
<stop offset="0.789062" stop-color="#C8A77F"/>
<stop offset="0.796875" stop-color="#C9A880"/>
<stop offset="0.804687" stop-color="#C9A880"/>
<stop offset="0.8125" stop-color="#CAA980"/>
<stop offset="0.820313" stop-color="#CAA981"/>
<stop offset="0.828125" stop-color="#CBAA81"/>
<stop offset="0.835938" stop-color="#CCAA82"/>
<stop offset="0.84375" stop-color="#CCAB82"/>
<stop offset="0.851562" stop-color="#CDAC83"/>
<stop offset="0.859375" stop-color="#CEAC83"/>
<stop offset="0.867188" stop-color="#CEAD83"/>
<stop offset="0.875" stop-color="#CFAD84"/>
<stop offset="0.882812" stop-color="#CFAE84"/>
<stop offset="0.890625" stop-color="#D0AE85"/>
<stop offset="0.898438" stop-color="#D1AF85"/>
<stop offset="0.90625" stop-color="#D1AF85"/>
<stop offset="0.914062" stop-color="#D2B086"/>
<stop offset="0.921875" stop-color="#D2B086"/>
<stop offset="0.929687" stop-color="#D3B187"/>
<stop offset="0.9375" stop-color="#D4B287"/>
<stop offset="0.945313" stop-color="#D4B288"/>
<stop offset="0.953125" stop-color="#D5B388"/>
<stop offset="0.960938" stop-color="#D5B388"/>
<stop offset="0.96875" stop-color="#D6B489"/>
<stop offset="0.976562" stop-color="#D7B489"/>
<stop offset="0.984375" stop-color="#D7B58A"/>
<stop offset="0.992188" stop-color="#D8B58A"/>
<stop offset="1" stop-color="#D8B68B"/>
</linearGradient>
</defs>
</svg>
