<svg width="293" height="227" viewBox="0 0 293 227" fill="none" xmlns="http://www.w3.org/2000/svg">
<path d="M224.4 0.699951H69L0.400024 78.5999L81.7 160.8L82.9 159.6C99.4 143.1 99.5 116.2 83 99.5999L65.9 82.2999L100.9 42.4H192.5L227.5 82.2999L146.7 164.3L131.5 179.9C122.8 188.7 122.9 202.8 131.5 211.6L146.7 227L293 78.5999L224.4 0.699951Z" fill="url(#paint0_linear_1_527)"/>
<path d="M120.7 60.2999L100.8 82.9L146.7 129.6L192.6 82.9L172.7 60.2999H120.7Z" fill="url(#paint1_linear_1_527)"/>
<path style="mix-blend-mode:multiply" d="M224.4 0.699951L192.5 42.4H100.9L65.9 82.2L29.4 45.7L69 0.699951H224.4Z" fill="url(#paint2_linear_1_527)"/>
<defs>
<linearGradient id="paint0_linear_1_527" x1="197.624" y1="382.636" x2="-19.6822" y2="138.391" gradientUnits="userSpaceOnUse">
<stop stop-color="#731CB7"/>
<stop offset="1" stop-color="#C61D99"/>
</linearGradient>
<linearGradient id="paint1_linear_1_527" x1="155.629" y1="37.4129" x2="214.6" y2="116.041" gradientUnits="userSpaceOnUse">
<stop stop-color="#F29B75"/>
<stop offset="1" stop-color="#C61D99"/>
</linearGradient>
<linearGradient id="paint2_linear_1_527" x1="12.421" y1="64.047" x2="102.871" y2="5.2548" gradientUnits="userSpaceOnUse">
<stop stop-color="#731CB7"/>
<stop offset="1" stop-color="white"/>
</linearGradient>
</defs>
</svg>
