<svg width="257" height="224" viewBox="0 0 257 224" fill="none" xmlns="http://www.w3.org/2000/svg">
<path d="M78.797 41.3809C80.5516 43.1978 82.5791 45.4982 83.4524 47.8688C85.1212 52.4072 84.0139 55.425 82.0644 59.5813L81.6355 59.6437C79.9511 58.1777 78.4305 56.6805 77.5104 54.614C75.4595 49.9898 77.0971 45.7945 78.797 41.3809Z" fill="#C6A956"/>
<path d="M178.332 40.0547C179.704 42.8776 181.139 46.5894 180.905 49.7476C180.601 53.8415 178.09 56.2511 175.166 58.8088L174.698 58.7153C173.957 57.1479 173.31 55.4947 172.982 53.7869C171.883 48.0086 175.337 44.4683 178.332 40.0547Z" fill="#C6A956"/>
<path d="M230.762 90.4291C231.542 90.3511 232.416 90.1484 233.172 90.3979C231.932 93.057 230.482 95.8721 228.291 97.8684C225.655 100.27 222.138 100.683 218.715 100.528L216.477 100.138C217.451 98.2427 218.434 96.2698 219.799 94.6244C222.692 91.1465 226.583 90.7878 230.762 90.4291Z" fill="#C6A956"/>
<path d="M23.9766 90.0781C27.1815 90.741 30.7686 90.5928 33.7162 92.129C37.4905 94.0941 38.8317 97.2445 40.0716 101.073C37.4047 101.143 34.6754 101.541 32.1489 100.481C27.5948 98.5701 25.7545 94.3046 23.9766 90.0781Z" fill="#C6A956"/>
<path d="M125.265 1.8125C126.224 4.33905 127.441 6.74862 128.33 9.31415C129.928 13.9306 130.7 19.7635 130.724 24.645C130.747 29.4719 129.78 34.2521 128.416 38.8607C124.938 50.5655 118.949 59.7437 110.402 68.3995C109.958 67.2766 110.09 65.2647 110.114 64.0404C110.184 60.3519 110.948 56.4997 112.258 53.0452C113.373 50.0898 114.863 47.15 116.344 44.3661C119.44 38.5566 123.012 32.8719 125.32 26.6803C125.749 25.5184 126.56 23.7482 126.279 22.5551C124.478 28.1619 121.148 32.8251 117.795 37.5896L111.299 47.1656C106.121 55.8993 102.955 66.138 105.552 76.2754L101.372 81.3051C99.8827 79.1529 97.7929 77.0006 96.5608 74.7158C96.1475 73.9438 96.0461 72.7429 95.898 71.8696C95.4301 69.0857 95.0948 66.3096 95.0792 63.4867C95.0168 55.2599 97.7461 47.6022 102.799 41.1221C104.873 38.463 107.299 36.1392 109.654 33.7452C117.296 25.9784 123.924 18.0401 125.195 6.76422C125.374 5.14224 125.281 3.44228 125.265 1.8125Z" fill="url(#paint0_linear_40_5743)"/>
<path d="M42.9134 49.6459C43.2409 45.8483 45.1202 41.2864 46.7032 37.7773C47.9431 41.7621 49.3467 45.2478 51.343 48.9207C53.6902 52.8508 56.7392 56.8824 60.373 59.7131C72.3429 69.0239 92.7892 69.367 99.0666 85.2125L92.9452 95.693C90.8631 92.7531 88.0091 90.5385 85.0848 88.4876C77.3103 83.0212 68.1242 79.481 60.9969 73.1256C57.4098 69.9284 54.2906 66.1542 51.7485 62.0759C50.8985 60.7112 50.2747 59.2686 49.5806 57.8338C49.3779 57.4127 49.0738 56.5705 48.7151 56.282C51.7329 70.2637 62.8138 82.7639 74.581 90.3357C79.7354 93.6499 86.3637 97.3227 89.8026 102.563C89.3347 103.779 88.9292 105.238 88.204 106.314C85.2018 102.945 81.7551 100.341 78.1758 97.6658C74.0429 94.5778 69.6682 91.7394 65.6835 88.4642C61.1762 84.7602 57.0511 80.3621 53.737 75.543C52.614 73.9132 51.5379 72.1742 50.6957 70.3885C49.9003 68.7041 49.3155 66.9574 48.4031 65.3276C49.9861 73.227 53.2691 80.6584 58.2364 87.0138C60.8877 90.4137 64.0381 93.3692 67.2665 96.2154C73.2943 101.534 80.2969 105.612 85.155 112.193C85.4514 112.591 86.2545 113.527 86.2545 114.003C86.2623 114.533 85.8724 115.383 85.7477 115.937C85.4279 117.27 85.2174 118.65 84.9913 120.007C84.0711 125.575 83.845 131.306 84.3752 136.921C78.246 132.546 71.8517 128.234 66.2605 123.173C54.0957 112.147 44.6289 95.9971 41.9386 79.7149C40.574 71.4412 40.7143 63.3547 41.8216 55.0655C42.04 53.4747 42.2427 51.0651 42.9134 49.6459Z" fill="url(#paint1_linear_40_5743)"/>
<path d="M215.332 112.124L218.529 111.999C229.509 111.804 240.488 115.742 249.12 122.48C251.741 124.523 254.103 126.971 256.497 129.272L252.824 128.172C248.832 127.197 244.418 127.611 240.511 128.757C234.499 130.519 229.189 134.426 225.399 139.386C221.586 144.384 219.028 150.389 216.088 155.925C214.661 158.615 213 161.204 211.246 163.692C205.155 172.34 196.796 180.169 187.75 185.596C173.854 193.94 156.792 196.482 141.103 192.529L141.602 191.078C145.906 179.779 153.782 171.63 164.957 166.998C170.852 164.55 176.974 162.811 182.822 160.206C190.737 156.674 198.075 151.535 203.44 144.657C204.851 142.848 206.185 141.093 207.011 138.933C203.167 144.072 198.855 147.956 193.404 151.363C187.399 154.974 180.88 157.664 174.073 159.333L166.797 160.775C163.491 161.547 160.192 162.772 157.19 164.355C154.125 165.969 151.131 167.778 148.472 170.016C140.791 176.496 136.206 185.347 133.258 194.79L133.203 193.971C133.157 182.438 138.233 170.663 146.195 162.429C148.979 159.543 152.067 157.134 155.506 155.075C164.091 149.944 173.698 146.747 182.518 142.037C192.757 136.563 201.6 128.944 212.618 124.944C219.27 122.526 225.921 122.09 232.924 121.965C232.784 121.879 232.768 121.856 232.581 121.793C230.608 121.138 227.567 121.388 225.469 121.38C212.696 121.318 200.18 125.217 189.053 131.346C187.859 132.001 186.807 132.882 185.621 133.576L203.791 114.416C207.534 113.028 211.378 112.436 215.332 112.124Z" fill="#0F715B"/>
<path d="M209.683 38.5566L210.065 38.7282C211.079 40.7947 211.671 43.2588 212.28 45.489C215.134 55.9305 216.49 67.456 215.18 78.2562C214.798 81.3676 214.346 84.5725 213.496 87.5903C207.078 110.438 187.56 128.717 168.205 141.194C165.172 143.151 161.811 144.609 158.622 146.301C155.105 148.173 151.635 150.45 148.508 152.914C138.362 160.907 131.399 171.598 129.863 184.582C128.287 181.462 127.804 177.283 127.547 173.82C127.258 169.836 127.118 165.937 127.734 161.983C130.307 145.459 140.881 132.031 154.138 122.354L176.128 107.584C187.412 99.3419 198.079 89.0174 203.943 76.1507C205.332 73.1095 206.532 70.0917 207.047 66.7619C205.776 69.6862 204.638 72.665 202.984 75.4021C192.582 92.6512 173.11 101.416 156.391 111.093C144.055 118.127 133.395 127.539 126.775 140.266C120.295 152.719 119.296 166.638 123.484 179.95C119.99 175.255 118.563 168.19 118.096 162.451C117.37 153.585 118.914 144.508 122.774 136.484C128.826 123.898 140.156 114.626 151.993 107.67C167.238 98.7181 184.511 91.8948 196.192 78.0144C199.85 73.6632 203.094 68.4463 205.215 63.1749C205.823 61.6621 206.579 59.6892 206.439 58.0516L206.252 58.6131C200.855 73.7177 183.521 82.085 170.186 88.9238L152.274 97.8837C153.405 95.708 155.167 93.7352 156.501 91.6453C159.682 86.6546 161.842 80.6423 163.074 74.8796C166.739 73.9595 170.373 72.4311 173.906 71.0742C184.963 66.8399 195.49 62.2235 203.437 53.1155C205.994 50.1912 207.827 46.3624 208.958 42.674C209.347 41.3639 209.776 39.9291 209.683 38.5566Z" fill="url(#paint2_linear_40_5743)"/>
<path d="M124.613 0.199219C129.564 4.32435 134.423 8.43389 138.875 13.1127C145.106 19.663 150.689 27.6013 154.424 35.8516C156.803 41.0918 158.682 46.644 159.61 52.3365C162.043 67.2697 158.308 82.6083 149.465 94.8511C147.196 97.9937 144.498 100.848 141.737 103.554C138.275 106.946 134.446 109.847 130.781 112.997C123.646 119.142 117.049 125.996 113.711 134.987C108.167 149.92 109.984 166.507 116.511 180.832C124.246 197.808 139.608 211.626 156.226 219.634C159.462 221.194 162.862 222.317 166.215 223.572L162.012 223.042C147.726 220.453 135.031 213.03 124.792 202.877C122.414 200.514 119.918 197.972 118.023 195.196C117.797 194.86 117.86 194.946 117.478 194.993C116.199 195.172 114.951 195.585 113.664 195.773C111.637 196.053 109.508 196.077 107.465 196.046C93.2336 195.827 79.4156 190.61 67.2507 183.475C58.2908 178.219 50.9139 171.232 45.5645 162.28C42.7729 157.617 40.8468 152.603 38.289 147.846C34.9749 141.67 30.2571 136.173 24.1825 132.578C16.5248 128.055 8.89063 127.634 0.5 129.817L0.952287 129.334C2.75362 127.501 4.61734 125.536 6.61362 123.93C15.2928 116.951 25.6797 113.208 36.7918 113.083C41.9385 113.028 47.4049 113.722 52.3566 115.141C52.8089 115.274 53.8382 115.446 54.1969 115.703C54.7506 116.101 55.4368 117.161 55.8968 117.699L60.8018 123.462L68.1085 130.745C65.2232 129.63 62.494 128.032 59.6555 126.776C52.2552 123.493 44.0985 121.583 35.9886 121.551C33.5478 121.544 30.8186 121.356 28.448 122.004C30.6704 122.456 33.1969 122.37 35.4817 122.659C47.9429 124.265 60.7472 130.862 69.9488 139.284C72.1635 141.312 74.3157 143.362 76.156 145.749C83.221 154.591 87.0108 164.971 91.6194 175.186L76.8188 156.564C70.4635 149.671 63.0008 144.15 53.7212 142.068C52.0369 141.686 50.3759 141.249 48.6369 141.179C49.8846 141.857 51.4208 142.161 52.7699 142.622C54.5322 143.214 56.2478 143.986 57.9165 144.805C63.7104 147.651 68.9117 152.743 72.7951 157.843L78.9321 166.741C84.7338 174.952 91.3855 182.36 100.954 186.158C105.055 187.787 109.407 188.63 113.742 189.37C109.563 182.734 106.225 175.318 104.447 167.661C102.732 160.315 101.835 152.665 102.404 145.125C103.332 132.742 108.447 120.46 115.598 110.393C120.979 102.828 127.186 95.9273 132.091 88.0123C139.92 75.364 147.125 59.7836 143.546 44.5385C143.944 52.0402 142.985 59.1987 140.365 66.2481C136.169 77.5396 127.927 87.5834 119.739 96.2548C113.516 102.844 107.059 109.215 102.919 117.418C97.1638 128.811 94.1693 142.512 95.7913 155.262C96.5399 161.126 98.1151 166.437 99.9477 172.028L98.661 170.125C82.2618 145.023 85.5526 111.313 102.326 87.3183C108.557 78.4052 116.83 71.1764 123.115 62.3101C127.49 56.1341 130.594 48.7573 132.13 41.3492C134.914 27.8587 132.185 11.7558 124.613 0.199219Z" fill="url(#paint3_linear_40_5743)"/>
<defs>
<linearGradient id="paint0_linear_40_5743" x1="7.20627" y1="33.761" x2="46.6389" y2="-40.3786" gradientUnits="userSpaceOnUse">
<stop stop-color="#B69743"/>
<stop offset="1" stop-color="#E5CE7C"/>
</linearGradient>
<linearGradient id="paint1_linear_40_5743" x1="1.58258" y1="176.408" x2="-41.2538" y2="71.7434" gradientUnits="userSpaceOnUse">
<stop stop-color="#B49440"/>
<stop offset="1" stop-color="#E5D07E"/>
</linearGradient>
<linearGradient id="paint2_linear_40_5743" x1="10.755" y1="97.5114" x2="117.905" y2="-37.1858" gradientUnits="userSpaceOnUse">
<stop stop-color="#B59642"/>
<stop offset="1" stop-color="#E4CC79"/>
</linearGradient>
<linearGradient id="paint3_linear_40_5743" x1="-91.9436" y1="212.042" x2="-64.343" y2="-24.132" gradientUnits="userSpaceOnUse">
<stop stop-color="#0A5849"/>
<stop offset="1" stop-color="#0CB48A"/>
</linearGradient>
</defs>
</svg>
