<svg width="256" height="257" viewBox="0 0 256 257" fill="none" xmlns="http://www.w3.org/2000/svg">
<path d="M12.0156 182.617C27.6379 221.35 63.9762 218.005 92.978 213.063C93.9662 213.026 95.9425 213.785 98.4883 215.079C99.5534 215.801 100.655 216.484 101.833 217.207C110.234 222.491 120.687 228.572 126.16 237.238L127.719 240.051C132.508 229.864 144.33 223.023 153.604 217.207C154.744 216.484 155.847 215.801 156.911 215.079C159.495 213.785 161.471 213.026 162.422 213.063C191.424 218.005 227.799 221.35 243.383 182.617C236.39 189.422 224.112 194.248 211.037 195.807C204.271 197.86 197.239 199.114 190.284 199.57C183.213 200.026 174.889 199.722 167.895 197.632C167.173 198.506 166.413 199.343 165.615 200.141C161.092 204.587 155.352 207.59 149.803 210.593C135.473 218.309 132.433 221.806 127.719 233.551C122.626 220.818 120.382 218.538 105.635 210.593C100.085 207.59 94.3449 204.587 89.8228 200.141C88.9863 199.343 88.2257 198.506 87.542 197.632C80.5488 199.722 72.2241 200.026 65.1161 199.57C58.1599 199.114 51.1283 197.86 44.4002 195.807C31.3247 194.248 19.0098 189.422 12.0156 182.617Z" fill="black"/>
<path d="M12.0156 182.617C27.6379 221.35 63.9762 218.005 92.978 213.063C93.9662 213.026 95.9425 213.785 98.4883 215.079C99.5534 215.801 100.655 216.484 101.833 217.207C110.234 222.491 120.687 228.572 126.16 237.238L127.719 240.051C132.508 229.864 144.33 223.023 153.604 217.207C154.744 216.484 155.847 215.801 156.911 215.079C159.495 213.785 161.471 213.026 162.422 213.063C191.424 218.005 227.799 221.35 243.383 182.617C236.39 189.422 224.112 194.248 211.037 195.807C204.271 197.86 197.239 199.114 190.284 199.57C183.213 200.026 174.889 199.722 167.895 197.632C167.173 198.506 166.413 199.343 165.615 200.141C161.092 204.587 155.352 207.59 149.803 210.593C135.473 218.309 132.433 221.806 127.719 233.551C122.626 220.818 120.382 218.538 105.635 210.593C100.085 207.59 94.3449 204.587 89.8228 200.141C88.9863 199.343 88.2257 198.506 87.542 197.632C80.5488 199.722 72.2241 200.026 65.1161 199.57C58.1599 199.114 51.1283 197.86 44.4002 195.807C31.3247 194.248 19.0098 189.422 12.0156 182.617Z" fill="url(#paint0_linear_37_39700)"/>
<path d="M215.751 221.468C205.108 222.494 196.138 221.163 188.763 218.693C187.091 218.655 185.419 218.579 183.784 218.503C176.562 218.047 169.416 217.02 162.308 215.805C161.359 215.956 159.192 216.983 158.279 217.439C157.215 218.161 156.113 218.845 155.049 219.53C140.87 228.386 135.815 229.45 127.719 244.16C119.623 229.45 114.529 228.386 100.389 219.53C99.2876 218.845 98.2225 218.161 97.121 217.439C96.2087 216.983 94.0791 215.956 93.1299 215.805C86.0219 217.02 78.8371 218.047 71.6533 218.503C69.9814 218.579 68.3084 218.655 66.675 218.693C59.2625 221.163 50.3299 222.494 39.6875 221.468C58.7305 238.838 75.2647 236.33 96.4363 225.916C108.485 233.897 124.678 239.18 127.719 251.306C131.862 237.547 148.017 233.175 158.963 225.916C180.135 236.33 196.707 238.838 215.751 221.468Z" fill="black"/>
<path d="M215.751 221.468C205.108 222.494 196.138 221.163 188.763 218.693C187.091 218.655 185.419 218.579 183.784 218.503C176.562 218.047 169.416 217.02 162.308 215.805C161.359 215.956 159.192 216.983 158.279 217.439C157.215 218.161 156.113 218.845 155.049 219.53C140.87 228.386 135.815 229.45 127.719 244.16C119.623 229.45 114.529 228.386 100.389 219.53C99.2876 218.845 98.2225 218.161 97.121 217.439C96.2087 216.983 94.0791 215.956 93.1299 215.805C86.0219 217.02 78.8371 218.047 71.6533 218.503C69.9814 218.579 68.3084 218.655 66.675 218.693C59.2625 221.163 50.3299 222.494 39.6875 221.468C58.7305 238.838 75.2647 236.33 96.4363 225.916C108.485 233.897 124.678 239.18 127.719 251.306C131.862 237.547 148.017 233.175 158.963 225.916C180.135 236.33 196.707 238.838 215.751 221.468Z" fill="url(#paint1_linear_37_39700)"/>
<path d="M66.2891 241.156C73.5487 240.853 78.7941 238.001 82.4813 234.543C84.2301 234.011 86.0163 233.364 87.841 232.681C90.3868 236.254 93.9982 238.762 98.0652 240.89C90.1592 244.844 78.7941 247.58 66.2891 241.156ZM189.1 241.156C181.839 240.853 176.632 238.001 172.945 234.543C171.196 234.011 169.373 233.364 167.586 232.681C165.04 236.254 161.39 238.762 157.361 240.89C165.23 244.844 176.632 247.58 189.1 241.156ZM127.713 256.627C135.238 242.79 156.487 242.524 164.925 231.615C163.063 230.856 161.124 229.982 159.148 229.031C156.221 230.893 153.179 232.566 150.139 234.238C134.67 242.715 129.88 245.679 127.713 256.627C125.547 245.679 120.72 242.715 105.287 234.238C102.247 232.566 99.1677 230.893 96.2405 229.031C94.3026 229.982 92.3632 230.856 90.4626 231.615C98.9017 242.524 120.188 242.79 127.713 256.627Z" fill="url(#paint2_linear_37_39700)"/>
<path d="M255.087 137.883C253.377 193.149 189.862 202.689 166.866 194.441C156.869 208.962 133.038 209.342 127.716 229.221C122.356 209.342 98.5624 208.962 88.5273 194.441C65.5695 202.689 2.05411 193.149 0.34375 137.883C3.65068 149.134 13.7996 157.762 26.5706 163.539C43.6373 175.817 65.7212 179.048 86.2465 174.639C90.1618 189.881 108.14 192.77 118.783 201.664C123.268 205.388 124.903 209.38 127.716 214.208C130.529 209.38 132.164 205.388 136.61 201.664C147.291 192.77 165.27 189.881 169.185 174.639C189.711 179.048 211.795 175.817 228.823 163.539C241.633 157.762 251.743 149.134 255.087 137.883Z" fill="black"/>
<path d="M255.087 137.883C253.377 193.149 189.862 202.689 166.866 194.441C156.869 208.962 133.038 209.342 127.716 229.221C122.356 209.342 98.5624 208.962 88.5273 194.441C65.5695 202.689 2.05411 193.149 0.34375 137.883C3.65068 149.134 13.7996 157.762 26.5706 163.539C43.6373 175.817 65.7212 179.048 86.2465 174.639C90.1618 189.881 108.14 192.77 118.783 201.664C123.268 205.388 124.903 209.38 127.716 214.208C130.529 209.38 132.164 205.388 136.61 201.664C147.291 192.77 165.27 189.881 169.185 174.639C189.711 179.048 211.795 175.817 228.823 163.539C241.633 157.762 251.743 149.134 255.087 137.883Z" fill="url(#paint3_linear_37_39700)"/>
<path d="M25.8516 90.8234C25.9659 90.2155 26.1176 89.5692 26.2319 88.9613C33.1876 59.2374 58.0844 55.9684 64.812 18.4902C70.7411 44.5274 54.3592 63.4177 45.769 82.5371C36.3423 103.404 43.1463 120.32 56.7159 133.052C55.0055 132.483 53.371 131.798 51.7365 131C40.9039 125.641 33.3778 116.556 29.2343 105.305C27.5624 100.668 26.46 95.8033 25.8516 90.8234ZM54.7016 70.9818C70.7796 51.2545 92.2562 37.2293 93.5862 6.51721C106.699 41.9801 81.3841 58.933 66.485 81.3219C52.573 102.226 54.3977 121.802 68.0426 135.562C65.8761 135.372 63.748 134.992 61.6199 134.497C56.5257 129.784 51.5848 124.197 48.2779 117.925C42.9182 107.662 42.5764 96.1836 48.24 83.6401C50.1784 79.3065 52.4208 75.1637 54.7016 70.9818ZM115.632 0.625C136.044 33.6184 111.754 61.2143 89.8605 82.6888C70.3234 101.847 69.7914 121.421 79.8639 135.372C77.2796 135.714 74.6954 135.866 72.1096 135.828L69.9815 133.662C55.0814 118.647 57.6661 99.4515 68.7273 82.8421C72.4515 77.2543 76.785 72.0843 81.0038 66.8389C101.302 50.5324 119.813 30.5022 115.632 0.625Z" fill="black"/>
<path d="M25.8516 90.8234C25.9659 90.2155 26.1176 89.5692 26.2319 88.9613C33.1876 59.2374 58.0844 55.9684 64.812 18.4902C70.7411 44.5274 54.3592 63.4177 45.769 82.5371C36.3423 103.404 43.1463 120.32 56.7159 133.052C55.0055 132.483 53.371 131.798 51.7365 131C40.9039 125.641 33.3778 116.556 29.2343 105.305C27.5624 100.668 26.46 95.8033 25.8516 90.8234ZM54.7016 70.9818C70.7796 51.2545 92.2562 37.2293 93.5862 6.51721C106.699 41.9801 81.3841 58.933 66.485 81.3219C52.573 102.226 54.3977 121.802 68.0426 135.562C65.8761 135.372 63.748 134.992 61.6199 134.497C56.5257 129.784 51.5848 124.197 48.2779 117.925C42.9182 107.662 42.5764 96.1836 48.24 83.6401C50.1784 79.3065 52.4208 75.1637 54.7016 70.9818ZM115.632 0.625C136.044 33.6184 111.754 61.2143 89.8605 82.6888C70.3234 101.847 69.7914 121.421 79.8639 135.372C77.2796 135.714 74.6954 135.866 72.1096 135.828L69.9815 133.662C55.0814 118.647 57.6661 99.4515 68.7273 82.8421C72.4515 77.2543 76.785 72.0843 81.0038 66.8389C101.302 50.5324 119.813 30.5022 115.632 0.625Z" fill="url(#paint4_linear_37_39700)"/>
<path d="M174.886 145.825C199.707 133.584 220.347 112.869 207.196 83.6401C205.219 79.3065 202.977 75.1637 200.734 70.9818C184.617 51.2545 163.179 37.2293 161.849 6.51721C148.698 41.9801 174.012 58.933 188.95 81.3219C207.233 108.764 198.339 133.965 171.199 146.66C172.302 146.433 173.366 146.204 174.354 145.977L174.886 145.825ZM139.765 0.625C119.391 33.6184 143.681 61.2143 165.575 82.6888C188.152 104.849 185.339 127.618 170.059 141.529C169.755 142.707 169.337 143.81 168.691 144.798C179.942 139.818 190.128 131.837 194.12 119.939C198.453 107.016 193.929 93.7511 186.67 82.8421C183.858 78.5844 180.664 74.5558 177.433 70.6031C176.445 69.3473 175.42 68.0931 174.393 66.8389C154.095 50.5324 135.585 30.5022 139.765 0.625ZM229.47 90.2914C229.355 89.8352 229.28 89.4175 229.165 88.9613C222.209 59.2374 197.312 55.9684 190.585 18.4902C184.656 44.5274 201.037 63.4177 209.666 82.5371C218.979 103.177 212.403 119.939 199.137 132.674V132.635C195.869 135.751 192.219 138.64 188.304 141.263L188.191 141.339C187.925 141.529 187.62 141.719 187.316 141.909L187.05 142.099C195.679 138.793 203.851 134.27 210.654 128.036C222.209 117.544 227.759 104.356 229.47 90.2914Z" fill="black"/>
<path d="M174.886 145.825C199.707 133.584 220.347 112.869 207.196 83.6401C205.219 79.3065 202.977 75.1637 200.734 70.9818C184.617 51.2545 163.179 37.2293 161.849 6.51721C148.698 41.9801 174.012 58.933 188.95 81.3219C207.233 108.764 198.339 133.965 171.199 146.66C172.302 146.433 173.366 146.204 174.354 145.977L174.886 145.825ZM139.765 0.625C119.391 33.6184 143.681 61.2143 165.575 82.6888C188.152 104.849 185.339 127.618 170.059 141.529C169.755 142.707 169.337 143.81 168.691 144.798C179.942 139.818 190.128 131.837 194.12 119.939C198.453 107.016 193.929 93.7511 186.67 82.8421C183.858 78.5844 180.664 74.5558 177.433 70.6031C176.445 69.3473 175.42 68.0931 174.393 66.8389C154.095 50.5324 135.585 30.5022 139.765 0.625ZM229.47 90.2914C229.355 89.8352 229.28 89.4175 229.165 88.9613C222.209 59.2374 197.312 55.9684 190.585 18.4902C184.656 44.5274 201.037 63.4177 209.666 82.5371C218.979 103.177 212.403 119.939 199.137 132.674V132.635C195.869 135.751 192.219 138.64 188.304 141.263L188.191 141.339C187.925 141.529 187.62 141.719 187.316 141.909L187.05 142.099C195.679 138.793 203.851 134.27 210.654 128.036C222.209 117.544 227.759 104.356 229.47 90.2914Z" fill="url(#paint5_linear_37_39700)"/>
<path d="M161.772 127.619C161.772 127.619 160.632 126.365 158.807 124.501C156.602 122.298 156.831 121.234 156.375 119.104C155.994 117.508 154.664 114.734 152.878 111.959C157.933 116.52 161.125 118.762 161.049 125.604L161.772 127.619ZM25.9994 52.5859C7.67857 83.9075 12.2776 111.54 23.9851 134.422C24.6689 135.107 25.3531 135.752 26.0753 136.399C36.7182 145.598 50.7061 147.803 64.3515 147.004L65.3397 146.966L66.1377 147.537C76.5905 155.367 86.8916 155.557 99.3966 155.784H101.297L101.907 157.571C104.225 163.995 108.861 167.643 114.602 170.875C118.782 173.23 124.484 175.626 127.715 179.503C130.945 175.626 136.609 173.23 140.828 170.875C146.568 167.643 151.167 163.995 153.486 157.571L154.132 155.784H155.994C168.499 155.557 178.839 155.367 189.253 147.537L190.051 146.966L191.039 147.004C204.723 147.803 218.673 145.598 229.316 136.399C230.038 135.752 230.76 135.107 231.406 134.422C243.152 111.54 247.713 83.9075 229.391 52.5859C243.152 112.528 213.009 139.478 174.999 148.601C142.805 156.355 138.965 133.473 148.088 122.639C149.418 124.882 151.28 126.859 153.144 128.227C157.097 131.077 166.713 143.128 158.541 146.244C164.775 147.232 170.553 143.013 166.333 129.671C167.701 128.266 169.184 126.707 169.297 126.061C169.792 123.969 169.792 121.689 169.45 119.37C167.055 93.8283 138.927 89.1902 132.504 66.3083C125.89 81.1331 129.121 88.7725 135.469 95.3485C127.297 91.5469 118.022 89.7607 110.381 91.4711C116.578 93.3331 124.978 99.111 129.843 104.128C122.659 105.041 119.77 103.52 119.77 103.52C119.277 106.029 118.63 108.461 117.832 110.742C101.031 155.784 3.04108 152.553 25.9994 52.5859Z" fill="black"/>
<path d="M161.772 127.619C161.772 127.619 160.632 126.365 158.807 124.501C156.602 122.298 156.831 121.234 156.375 119.104C155.994 117.508 154.664 114.734 152.878 111.959C157.933 116.52 161.125 118.762 161.049 125.604L161.772 127.619ZM25.9994 52.5859C7.67857 83.9075 12.2776 111.54 23.9851 134.422C24.6689 135.107 25.3531 135.752 26.0753 136.399C36.7182 145.598 50.7061 147.803 64.3515 147.004L65.3397 146.966L66.1377 147.537C76.5905 155.367 86.8916 155.557 99.3966 155.784H101.297L101.907 157.571C104.225 163.995 108.861 167.643 114.602 170.875C118.782 173.23 124.484 175.626 127.715 179.503C130.945 175.626 136.609 173.23 140.828 170.875C146.568 167.643 151.167 163.995 153.486 157.571L154.132 155.784H155.994C168.499 155.557 178.839 155.367 189.253 147.537L190.051 146.966L191.039 147.004C204.723 147.803 218.673 145.598 229.316 136.399C230.038 135.752 230.76 135.107 231.406 134.422C243.152 111.54 247.713 83.9075 229.391 52.5859C243.152 112.528 213.009 139.478 174.999 148.601C142.805 156.355 138.965 133.473 148.088 122.639C149.418 124.882 151.28 126.859 153.144 128.227C157.097 131.077 166.713 143.128 158.541 146.244C164.775 147.232 170.553 143.013 166.333 129.671C167.701 128.266 169.184 126.707 169.297 126.061C169.792 123.969 169.792 121.689 169.45 119.37C167.055 93.8283 138.927 89.1902 132.504 66.3083C125.89 81.1331 129.121 88.7725 135.469 95.3485C127.297 91.5469 118.022 89.7607 110.381 91.4711C116.578 93.3331 124.978 99.111 129.843 104.128C122.659 105.041 119.77 103.52 119.77 103.52C119.277 106.029 118.63 108.461 117.832 110.742C101.031 155.784 3.04108 152.553 25.9994 52.5859Z" fill="url(#paint6_linear_37_39700)"/>
<path d="M127.717 208.959C135.433 190.411 164.473 191.665 167.02 171.367C215.407 183.454 261.779 150.044 250.3 94.5859C246.271 130.848 228.33 151.906 190.89 149.739C180.286 157.645 170.365 158.216 156.073 158.482C149.687 176.195 127.717 174.446 127.717 187.066C127.717 174.446 105.709 176.195 99.3618 158.482C85.0696 158.216 75.1114 157.645 64.5068 149.739C27.1045 151.906 9.16344 130.848 5.13434 94.5859C-6.34458 150.044 40.0278 183.454 88.377 171.367C90.9228 191.665 119.963 190.411 127.717 208.959Z" fill="black"/>
<path d="M127.717 208.959C135.433 190.411 164.473 191.665 167.02 171.367C215.407 183.454 261.779 150.044 250.3 94.5859C246.271 130.848 228.33 151.906 190.89 149.739C180.286 157.645 170.365 158.216 156.073 158.482C149.687 176.195 127.717 174.446 127.717 187.066C127.717 174.446 105.709 176.195 99.3618 158.482C85.0696 158.216 75.1114 157.645 64.5068 149.739C27.1045 151.906 9.16344 130.848 5.13434 94.5859C-6.34458 150.044 40.0278 183.454 88.377 171.367C90.9228 191.665 119.963 190.411 127.717 208.959Z" fill="url(#paint7_linear_37_39700)"/>
<defs>
<linearGradient id="paint0_linear_37_39700" x1="127.7" y1="240.051" x2="127.7" y2="182.617" gradientUnits="userSpaceOnUse">
<stop stop-color="#4A0133"/>
<stop offset="0.0625" stop-color="#4A0133"/>
<stop offset="0.09375" stop-color="#4A0133"/>
<stop offset="0.109375" stop-color="#4B0134"/>
<stop offset="0.125" stop-color="#4C0135"/>
<stop offset="0.140625" stop-color="#4D0236"/>
<stop offset="0.15625" stop-color="#4E0237"/>
<stop offset="0.171875" stop-color="#4E0238"/>
<stop offset="0.1875" stop-color="#4F0239"/>
<stop offset="0.203125" stop-color="#50023A"/>
<stop offset="0.21875" stop-color="#51023B"/>
<stop offset="0.234375" stop-color="#52033C"/>
<stop offset="0.25" stop-color="#53033D"/>
<stop offset="0.265625" stop-color="#54033E"/>
<stop offset="0.28125" stop-color="#54033F"/>
<stop offset="0.296875" stop-color="#55033F"/>
<stop offset="0.3125" stop-color="#560340"/>
<stop offset="0.328125" stop-color="#570441"/>
<stop offset="0.34375" stop-color="#580442"/>
<stop offset="0.359375" stop-color="#590443"/>
<stop offset="0.375" stop-color="#590444"/>
<stop offset="0.390625" stop-color="#5A0445"/>
<stop offset="0.40625" stop-color="#5B0446"/>
<stop offset="0.421875" stop-color="#5C0547"/>
<stop offset="0.4375" stop-color="#5D0548"/>
<stop offset="0.453125" stop-color="#5E0549"/>
<stop offset="0.46875" stop-color="#5E054A"/>
<stop offset="0.484375" stop-color="#5F054B"/>
<stop offset="0.5" stop-color="#60054C"/>
<stop offset="0.515625" stop-color="#61064C"/>
<stop offset="0.53125" stop-color="#62064D"/>
<stop offset="0.546875" stop-color="#63064E"/>
<stop offset="0.5625" stop-color="#63064F"/>
<stop offset="0.578125" stop-color="#640650"/>
<stop offset="0.59375" stop-color="#650651"/>
<stop offset="0.609375" stop-color="#660752"/>
<stop offset="0.625" stop-color="#670753"/>
<stop offset="0.640625" stop-color="#680754"/>
<stop offset="0.65625" stop-color="#680755"/>
<stop offset="0.671875" stop-color="#690756"/>
<stop offset="0.6875" stop-color="#6A0757"/>
<stop offset="0.703125" stop-color="#6B0858"/>
<stop offset="0.71875" stop-color="#6C0859"/>
<stop offset="0.734375" stop-color="#6D0859"/>
<stop offset="0.75" stop-color="#6D085A"/>
<stop offset="0.765625" stop-color="#6E085B"/>
<stop offset="0.78125" stop-color="#6F085C"/>
<stop offset="0.796875" stop-color="#70095D"/>
<stop offset="0.8125" stop-color="#71095E"/>
<stop offset="0.828125" stop-color="#72095F"/>
<stop offset="0.84375" stop-color="#720960"/>
<stop offset="0.859375" stop-color="#730961"/>
<stop offset="0.875" stop-color="#740962"/>
<stop offset="0.890625" stop-color="#750A63"/>
<stop offset="0.90625" stop-color="#760A64"/>
<stop offset="0.9375" stop-color="#770A65"/>
<stop offset="1" stop-color="#770A65"/>
</linearGradient>
<linearGradient id="paint1_linear_37_39700" x1="127.719" y1="251.306" x2="127.719" y2="215.804" gradientUnits="userSpaceOnUse">
<stop stop-color="#642B7C"/>
<stop offset="0.0625" stop-color="#642B7C"/>
<stop offset="0.09375" stop-color="#642B7C"/>
<stop offset="0.101562" stop-color="#642B7D"/>
<stop offset="0.109375" stop-color="#652C7E"/>
<stop offset="0.117188" stop-color="#652C7E"/>
<stop offset="0.125" stop-color="#662C7F"/>
<stop offset="0.132812" stop-color="#662C80"/>
<stop offset="0.140625" stop-color="#672D81"/>
<stop offset="0.148438" stop-color="#672D82"/>
<stop offset="0.15625" stop-color="#672D83"/>
<stop offset="0.164062" stop-color="#682D83"/>
<stop offset="0.171875" stop-color="#682E84"/>
<stop offset="0.179688" stop-color="#692E85"/>
<stop offset="0.1875" stop-color="#692E86"/>
<stop offset="0.195312" stop-color="#6A2E87"/>
<stop offset="0.203125" stop-color="#6A2F88"/>
<stop offset="0.210938" stop-color="#6B2F88"/>
<stop offset="0.21875" stop-color="#6B2F89"/>
<stop offset="0.226562" stop-color="#6B308A"/>
<stop offset="0.234375" stop-color="#6C308B"/>
<stop offset="0.242188" stop-color="#6C308C"/>
<stop offset="0.25" stop-color="#6D308D"/>
<stop offset="0.257812" stop-color="#6D318D"/>
<stop offset="0.265625" stop-color="#6E318E"/>
<stop offset="0.273438" stop-color="#6E318F"/>
<stop offset="0.28125" stop-color="#6E3190"/>
<stop offset="0.289062" stop-color="#6F3291"/>
<stop offset="0.296875" stop-color="#6F3292"/>
<stop offset="0.304688" stop-color="#703292"/>
<stop offset="0.3125" stop-color="#703293"/>
<stop offset="0.320312" stop-color="#713394"/>
<stop offset="0.328125" stop-color="#713395"/>
<stop offset="0.335938" stop-color="#723396"/>
<stop offset="0.34375" stop-color="#723496"/>
<stop offset="0.351562" stop-color="#723497"/>
<stop offset="0.359375" stop-color="#733498"/>
<stop offset="0.367188" stop-color="#733499"/>
<stop offset="0.375" stop-color="#74359A"/>
<stop offset="0.382812" stop-color="#74359B"/>
<stop offset="0.390625" stop-color="#75359B"/>
<stop offset="0.398438" stop-color="#75359C"/>
<stop offset="0.40625" stop-color="#76369D"/>
<stop offset="0.414062" stop-color="#76369E"/>
<stop offset="0.421875" stop-color="#76369F"/>
<stop offset="0.429688" stop-color="#7736A0"/>
<stop offset="0.4375" stop-color="#7737A0"/>
<stop offset="0.445312" stop-color="#7837A1"/>
<stop offset="0.453125" stop-color="#7837A2"/>
<stop offset="0.460938" stop-color="#7938A3"/>
<stop offset="0.46875" stop-color="#7938A4"/>
<stop offset="0.476562" stop-color="#7938A5"/>
<stop offset="0.484375" stop-color="#7A38A5"/>
<stop offset="0.492188" stop-color="#7A39A6"/>
<stop offset="0.5" stop-color="#7B39A7"/>
<stop offset="0.507812" stop-color="#7B39A8"/>
<stop offset="0.515625" stop-color="#7C39A9"/>
<stop offset="0.523438" stop-color="#7C3AAA"/>
<stop offset="0.53125" stop-color="#7D3AAA"/>
<stop offset="0.539062" stop-color="#7D3AAB"/>
<stop offset="0.546875" stop-color="#7D3AAC"/>
<stop offset="0.554688" stop-color="#7E3BAD"/>
<stop offset="0.5625" stop-color="#7E3BAE"/>
<stop offset="0.570312" stop-color="#7F3BAF"/>
<stop offset="0.578125" stop-color="#7F3CAF"/>
<stop offset="0.585938" stop-color="#803CB0"/>
<stop offset="0.59375" stop-color="#803CB1"/>
<stop offset="0.601562" stop-color="#803CB2"/>
<stop offset="0.609375" stop-color="#813DB3"/>
<stop offset="0.617188" stop-color="#813DB3"/>
<stop offset="0.625" stop-color="#823DB4"/>
<stop offset="0.632812" stop-color="#823DB5"/>
<stop offset="0.640625" stop-color="#833EB6"/>
<stop offset="0.648438" stop-color="#833EB7"/>
<stop offset="0.65625" stop-color="#843EB8"/>
<stop offset="0.664062" stop-color="#843EB8"/>
<stop offset="0.671875" stop-color="#843FB9"/>
<stop offset="0.679688" stop-color="#853FBA"/>
<stop offset="0.6875" stop-color="#853FBB"/>
<stop offset="0.695312" stop-color="#8640BC"/>
<stop offset="0.703125" stop-color="#8640BD"/>
<stop offset="0.710938" stop-color="#8740BD"/>
<stop offset="0.71875" stop-color="#8740BE"/>
<stop offset="0.726562" stop-color="#8741BF"/>
<stop offset="0.734375" stop-color="#8841C0"/>
<stop offset="0.742188" stop-color="#8841C1"/>
<stop offset="0.75" stop-color="#8941C2"/>
<stop offset="0.757812" stop-color="#8942C2"/>
<stop offset="0.765625" stop-color="#8A42C3"/>
<stop offset="0.773438" stop-color="#8A42C4"/>
<stop offset="0.78125" stop-color="#8B42C5"/>
<stop offset="0.789062" stop-color="#8B43C6"/>
<stop offset="0.796875" stop-color="#8B43C7"/>
<stop offset="0.804688" stop-color="#8C43C7"/>
<stop offset="0.8125" stop-color="#8C44C8"/>
<stop offset="0.820312" stop-color="#8D44C9"/>
<stop offset="0.828125" stop-color="#8D44CA"/>
<stop offset="0.835938" stop-color="#8E44CB"/>
<stop offset="0.84375" stop-color="#8E45CC"/>
<stop offset="0.851562" stop-color="#8E45CC"/>
<stop offset="0.859375" stop-color="#8F45CD"/>
<stop offset="0.867188" stop-color="#8F45CE"/>
<stop offset="0.875" stop-color="#9046CF"/>
<stop offset="0.882812" stop-color="#9046D0"/>
<stop offset="0.890625" stop-color="#9146D0"/>
<stop offset="0.898438" stop-color="#9146D1"/>
<stop offset="0.90625" stop-color="#9247D2"/>
<stop offset="0.9375" stop-color="#9247D3"/>
<stop offset="1" stop-color="#9247D3"/>
</linearGradient>
<linearGradient id="paint2_linear_37_39700" x1="127.695" y1="256.627" x2="127.695" y2="229.031" gradientUnits="userSpaceOnUse">
<stop stop-color="#B20D0A"/>
<stop offset="0.125" stop-color="#B20D0A"/>
<stop offset="0.15625" stop-color="#B20D0A"/>
<stop offset="0.171875" stop-color="#B20D0A"/>
<stop offset="0.179687" stop-color="#B20E0B"/>
<stop offset="0.1875" stop-color="#B30E0B"/>
<stop offset="0.195312" stop-color="#B40F0C"/>
<stop offset="0.203125" stop-color="#B4100D"/>
<stop offset="0.210938" stop-color="#B5110E"/>
<stop offset="0.21875" stop-color="#B5120F"/>
<stop offset="0.226562" stop-color="#B6130F"/>
<stop offset="0.234375" stop-color="#B61310"/>
<stop offset="0.242188" stop-color="#B71411"/>
<stop offset="0.25" stop-color="#B81512"/>
<stop offset="0.257812" stop-color="#B81613"/>
<stop offset="0.265625" stop-color="#B91713"/>
<stop offset="0.273438" stop-color="#B91714"/>
<stop offset="0.28125" stop-color="#BA1815"/>
<stop offset="0.289062" stop-color="#BB1916"/>
<stop offset="0.296875" stop-color="#BB1A16"/>
<stop offset="0.304688" stop-color="#BC1B17"/>
<stop offset="0.3125" stop-color="#BC1B18"/>
<stop offset="0.320312" stop-color="#BD1C19"/>
<stop offset="0.328125" stop-color="#BD1D1A"/>
<stop offset="0.335938" stop-color="#BE1E1A"/>
<stop offset="0.34375" stop-color="#BF1F1B"/>
<stop offset="0.351562" stop-color="#BF201C"/>
<stop offset="0.359375" stop-color="#C0201D"/>
<stop offset="0.367188" stop-color="#C0211E"/>
<stop offset="0.375" stop-color="#C1221E"/>
<stop offset="0.382812" stop-color="#C2231F"/>
<stop offset="0.390625" stop-color="#C22420"/>
<stop offset="0.398438" stop-color="#C32421"/>
<stop offset="0.40625" stop-color="#C32522"/>
<stop offset="0.414062" stop-color="#C42622"/>
<stop offset="0.421875" stop-color="#C42723"/>
<stop offset="0.429688" stop-color="#C52824"/>
<stop offset="0.4375" stop-color="#C62925"/>
<stop offset="0.445312" stop-color="#C62926"/>
<stop offset="0.453125" stop-color="#C72A26"/>
<stop offset="0.460938" stop-color="#C72B27"/>
<stop offset="0.46875" stop-color="#C82C28"/>
<stop offset="0.476562" stop-color="#C82D29"/>
<stop offset="0.484375" stop-color="#C92D2A"/>
<stop offset="0.492188" stop-color="#CA2E2A"/>
<stop offset="0.5" stop-color="#CA2F2B"/>
<stop offset="0.507812" stop-color="#CB302C"/>
<stop offset="0.515625" stop-color="#CB312D"/>
<stop offset="0.523438" stop-color="#CC322D"/>
<stop offset="0.53125" stop-color="#CD322E"/>
<stop offset="0.539062" stop-color="#CD332F"/>
<stop offset="0.546875" stop-color="#CE3430"/>
<stop offset="0.554688" stop-color="#CE3531"/>
<stop offset="0.5625" stop-color="#CF3631"/>
<stop offset="0.570312" stop-color="#CF3632"/>
<stop offset="0.578125" stop-color="#D03733"/>
<stop offset="0.585938" stop-color="#D13834"/>
<stop offset="0.59375" stop-color="#D13935"/>
<stop offset="0.601562" stop-color="#D23A35"/>
<stop offset="0.609375" stop-color="#D23B36"/>
<stop offset="0.617188" stop-color="#D33B37"/>
<stop offset="0.625" stop-color="#D33C38"/>
<stop offset="0.632812" stop-color="#D43D39"/>
<stop offset="0.640625" stop-color="#D53E39"/>
<stop offset="0.648438" stop-color="#D53F3A"/>
<stop offset="0.65625" stop-color="#D63F3B"/>
<stop offset="0.664062" stop-color="#D6403C"/>
<stop offset="0.671875" stop-color="#D7413D"/>
<stop offset="0.679688" stop-color="#D8423D"/>
<stop offset="0.6875" stop-color="#D8433E"/>
<stop offset="0.695312" stop-color="#D9443F"/>
<stop offset="0.703125" stop-color="#D94440"/>
<stop offset="0.710938" stop-color="#DA4541"/>
<stop offset="0.71875" stop-color="#DA4641"/>
<stop offset="0.726562" stop-color="#DB4742"/>
<stop offset="0.734375" stop-color="#DC4843"/>
<stop offset="0.742188" stop-color="#DC4844"/>
<stop offset="0.75" stop-color="#DD4944"/>
<stop offset="0.757812" stop-color="#DD4A45"/>
<stop offset="0.765625" stop-color="#DE4B46"/>
<stop offset="0.773438" stop-color="#DF4C47"/>
<stop offset="0.78125" stop-color="#DF4C48"/>
<stop offset="0.789062" stop-color="#E04D48"/>
<stop offset="0.796875" stop-color="#E04E49"/>
<stop offset="0.804688" stop-color="#E14F4A"/>
<stop offset="0.8125" stop-color="#E1504B"/>
<stop offset="0.820312" stop-color="#E2514C"/>
<stop offset="0.828125" stop-color="#E3514C"/>
<stop offset="0.84375" stop-color="#E3524D"/>
<stop offset="0.875" stop-color="#E3524D"/>
<stop offset="1" stop-color="#E3524D"/>
</linearGradient>
<linearGradient id="paint3_linear_37_39700" x1="127.716" y1="229.221" x2="127.716" y2="137.883" gradientUnits="userSpaceOnUse">
<stop stop-color="#95135A"/>
<stop offset="0.125" stop-color="#95135A"/>
<stop offset="0.1875" stop-color="#95135A"/>
<stop offset="0.203125" stop-color="#95135A"/>
<stop offset="0.210938" stop-color="#96145B"/>
<stop offset="0.21875" stop-color="#96155B"/>
<stop offset="0.226562" stop-color="#97155C"/>
<stop offset="0.234375" stop-color="#98165C"/>
<stop offset="0.242187" stop-color="#98175D"/>
<stop offset="0.25" stop-color="#99185E"/>
<stop offset="0.257812" stop-color="#9A195E"/>
<stop offset="0.265625" stop-color="#9A195F"/>
<stop offset="0.273438" stop-color="#9B1A60"/>
<stop offset="0.28125" stop-color="#9C1B60"/>
<stop offset="0.289062" stop-color="#9C1C61"/>
<stop offset="0.296875" stop-color="#9D1D61"/>
<stop offset="0.304688" stop-color="#9E1E62"/>
<stop offset="0.3125" stop-color="#9E1E63"/>
<stop offset="0.320312" stop-color="#9F1F63"/>
<stop offset="0.328125" stop-color="#A02064"/>
<stop offset="0.335938" stop-color="#A02165"/>
<stop offset="0.34375" stop-color="#A12265"/>
<stop offset="0.351562" stop-color="#A22366"/>
<stop offset="0.359375" stop-color="#A22366"/>
<stop offset="0.367188" stop-color="#A32467"/>
<stop offset="0.375" stop-color="#A42568"/>
<stop offset="0.382812" stop-color="#A42668"/>
<stop offset="0.390625" stop-color="#A52769"/>
<stop offset="0.398438" stop-color="#A6276A"/>
<stop offset="0.40625" stop-color="#A6286A"/>
<stop offset="0.414062" stop-color="#A7296B"/>
<stop offset="0.421875" stop-color="#A82A6B"/>
<stop offset="0.429687" stop-color="#A82B6C"/>
<stop offset="0.4375" stop-color="#A92C6D"/>
<stop offset="0.445312" stop-color="#AA2C6D"/>
<stop offset="0.453125" stop-color="#AA2D6E"/>
<stop offset="0.460938" stop-color="#AB2E6F"/>
<stop offset="0.46875" stop-color="#AC2F6F"/>
<stop offset="0.476562" stop-color="#AC3070"/>
<stop offset="0.484375" stop-color="#AD3070"/>
<stop offset="0.492188" stop-color="#AE3171"/>
<stop offset="0.5" stop-color="#AE3272"/>
<stop offset="0.507812" stop-color="#AF3372"/>
<stop offset="0.515625" stop-color="#AF3473"/>
<stop offset="0.523438" stop-color="#B03574"/>
<stop offset="0.53125" stop-color="#B13574"/>
<stop offset="0.539062" stop-color="#B13675"/>
<stop offset="0.546875" stop-color="#B23775"/>
<stop offset="0.554688" stop-color="#B33876"/>
<stop offset="0.5625" stop-color="#B33977"/>
<stop offset="0.570312" stop-color="#B43977"/>
<stop offset="0.578125" stop-color="#B53A78"/>
<stop offset="0.585938" stop-color="#B53B79"/>
<stop offset="0.59375" stop-color="#B63C79"/>
<stop offset="0.601562" stop-color="#B73D7A"/>
<stop offset="0.609375" stop-color="#B73E7A"/>
<stop offset="0.617188" stop-color="#B83E7B"/>
<stop offset="0.625" stop-color="#B93F7C"/>
<stop offset="0.632812" stop-color="#B9407C"/>
<stop offset="0.640625" stop-color="#BA417D"/>
<stop offset="0.648438" stop-color="#BB427E"/>
<stop offset="0.65625" stop-color="#BB427E"/>
<stop offset="0.664062" stop-color="#BC437F"/>
<stop offset="0.671875" stop-color="#BD447F"/>
<stop offset="0.679688" stop-color="#BD4580"/>
<stop offset="0.6875" stop-color="#BE4681"/>
<stop offset="0.695313" stop-color="#BF4781"/>
<stop offset="0.703125" stop-color="#BF4782"/>
<stop offset="0.710938" stop-color="#C04883"/>
<stop offset="0.71875" stop-color="#C14983"/>
<stop offset="0.726562" stop-color="#C14A84"/>
<stop offset="0.734375" stop-color="#C24B84"/>
<stop offset="0.742188" stop-color="#C34C85"/>
<stop offset="0.75" stop-color="#C34C86"/>
<stop offset="0.757812" stop-color="#C44D86"/>
<stop offset="0.765625" stop-color="#C54E87"/>
<stop offset="0.773438" stop-color="#C54F88"/>
<stop offset="0.78125" stop-color="#C65088"/>
<stop offset="0.789062" stop-color="#C75089"/>
<stop offset="0.796875" stop-color="#C75189"/>
<stop offset="0.8125" stop-color="#C8528A"/>
<stop offset="0.875" stop-color="#C8528A"/>
<stop offset="1" stop-color="#C8528A"/>
</linearGradient>
<linearGradient id="paint4_linear_37_39700" x1="92.8179" y1="115.856" x2="43.4222" y2="27.8609" gradientUnits="userSpaceOnUse">
<stop stop-color="#F4AD21"/>
<stop offset="0.25" stop-color="#F4AD21"/>
<stop offset="0.3125" stop-color="#F4AD21"/>
<stop offset="0.316406" stop-color="#F4AD22"/>
<stop offset="0.320312" stop-color="#F4AE22"/>
<stop offset="0.324219" stop-color="#F4AE23"/>
<stop offset="0.328125" stop-color="#F5AE24"/>
<stop offset="0.332031" stop-color="#F5AF24"/>
<stop offset="0.335938" stop-color="#F5AF25"/>
<stop offset="0.339844" stop-color="#F5AF25"/>
<stop offset="0.34375" stop-color="#F5B026"/>
<stop offset="0.347656" stop-color="#F5B026"/>
<stop offset="0.351562" stop-color="#F5B027"/>
<stop offset="0.355469" stop-color="#F5B028"/>
<stop offset="0.359375" stop-color="#F6B128"/>
<stop offset="0.363281" stop-color="#F6B129"/>
<stop offset="0.367188" stop-color="#F6B129"/>
<stop offset="0.371094" stop-color="#F6B22A"/>
<stop offset="0.375" stop-color="#F6B22A"/>
<stop offset="0.378906" stop-color="#F6B22B"/>
<stop offset="0.382812" stop-color="#F6B32C"/>
<stop offset="0.386719" stop-color="#F6B32C"/>
<stop offset="0.390625" stop-color="#F6B32D"/>
<stop offset="0.394531" stop-color="#F7B32D"/>
<stop offset="0.398438" stop-color="#F7B42E"/>
<stop offset="0.402344" stop-color="#F7B42F"/>
<stop offset="0.40625" stop-color="#F7B42F"/>
<stop offset="0.410156" stop-color="#F7B530"/>
<stop offset="0.414063" stop-color="#F7B530"/>
<stop offset="0.417969" stop-color="#F7B531"/>
<stop offset="0.421875" stop-color="#F7B631"/>
<stop offset="0.425781" stop-color="#F8B632"/>
<stop offset="0.429688" stop-color="#F8B633"/>
<stop offset="0.433594" stop-color="#F8B633"/>
<stop offset="0.4375" stop-color="#F8B734"/>
<stop offset="0.441406" stop-color="#F8B734"/>
<stop offset="0.445312" stop-color="#F8B735"/>
<stop offset="0.449219" stop-color="#F8B836"/>
<stop offset="0.453125" stop-color="#F8B836"/>
<stop offset="0.457031" stop-color="#F9B837"/>
<stop offset="0.460938" stop-color="#F9B937"/>
<stop offset="0.464844" stop-color="#F9B938"/>
<stop offset="0.46875" stop-color="#F9B938"/>
<stop offset="0.472656" stop-color="#F9B939"/>
<stop offset="0.476562" stop-color="#F9BA3A"/>
<stop offset="0.480469" stop-color="#F9BA3A"/>
<stop offset="0.484375" stop-color="#F9BA3B"/>
<stop offset="0.488281" stop-color="#FABB3B"/>
<stop offset="0.492188" stop-color="#FABB3C"/>
<stop offset="0.496094" stop-color="#FABB3C"/>
<stop offset="0.5" stop-color="#FABC3D"/>
<stop offset="0.503906" stop-color="#FABC3E"/>
<stop offset="0.507812" stop-color="#FABC3E"/>
<stop offset="0.511719" stop-color="#FABC3F"/>
<stop offset="0.515625" stop-color="#FABD3F"/>
<stop offset="0.519531" stop-color="#FBBD40"/>
<stop offset="0.523438" stop-color="#FBBD41"/>
<stop offset="0.527344" stop-color="#FBBE41"/>
<stop offset="0.53125" stop-color="#FBBE42"/>
<stop offset="0.535156" stop-color="#FBBE42"/>
<stop offset="0.539062" stop-color="#FBBF43"/>
<stop offset="0.542969" stop-color="#FBBF43"/>
<stop offset="0.546875" stop-color="#FBBF44"/>
<stop offset="0.550781" stop-color="#FCBF45"/>
<stop offset="0.554688" stop-color="#FCC045"/>
<stop offset="0.558594" stop-color="#FCC046"/>
<stop offset="0.5625" stop-color="#FCC046"/>
<stop offset="0.566406" stop-color="#FCC147"/>
<stop offset="0.570312" stop-color="#FCC148"/>
<stop offset="0.574219" stop-color="#FCC148"/>
<stop offset="0.578125" stop-color="#FCC249"/>
<stop offset="0.582031" stop-color="#FDC249"/>
<stop offset="0.585938" stop-color="#FDC24A"/>
<stop offset="0.589844" stop-color="#FDC34A"/>
<stop offset="0.59375" stop-color="#FDC34B"/>
<stop offset="0.597656" stop-color="#FDC34C"/>
<stop offset="0.601562" stop-color="#FDC34C"/>
<stop offset="0.605469" stop-color="#FDC44D"/>
<stop offset="0.609375" stop-color="#FDC44D"/>
<stop offset="0.613281" stop-color="#FDC44E"/>
<stop offset="0.617188" stop-color="#FEC54E"/>
<stop offset="0.621094" stop-color="#FEC54F"/>
<stop offset="0.625" stop-color="#FEC550"/>
<stop offset="0.628906" stop-color="#FEC650"/>
<stop offset="0.632812" stop-color="#FEC651"/>
<stop offset="0.636719" stop-color="#FEC651"/>
<stop offset="0.640625" stop-color="#FEC652"/>
<stop offset="0.644531" stop-color="#FEC753"/>
<stop offset="0.648438" stop-color="#FFC753"/>
<stop offset="0.652344" stop-color="#FFC754"/>
<stop offset="0.65625" stop-color="#FFC854"/>
<stop offset="0.6875" stop-color="#FFC855"/>
<stop offset="0.75" stop-color="#FFC855"/>
<stop offset="1" stop-color="#FFC855"/>
</linearGradient>
<linearGradient id="paint5_linear_37_39700" x1="199" y1="125.083" x2="143.563" y2="33.7388" gradientUnits="userSpaceOnUse">
<stop stop-color="#F4AD21"/>
<stop offset="0.25" stop-color="#F4AD21"/>
<stop offset="0.3125" stop-color="#F4AD21"/>
<stop offset="0.316406" stop-color="#F4AD22"/>
<stop offset="0.320312" stop-color="#F4AE22"/>
<stop offset="0.324219" stop-color="#F4AE23"/>
<stop offset="0.328125" stop-color="#F5AE24"/>
<stop offset="0.332031" stop-color="#F5AF24"/>
<stop offset="0.335938" stop-color="#F5AF25"/>
<stop offset="0.339844" stop-color="#F5AF25"/>
<stop offset="0.34375" stop-color="#F5B026"/>
<stop offset="0.347656" stop-color="#F5B026"/>
<stop offset="0.351562" stop-color="#F5B027"/>
<stop offset="0.355469" stop-color="#F5B028"/>
<stop offset="0.359375" stop-color="#F6B128"/>
<stop offset="0.363281" stop-color="#F6B129"/>
<stop offset="0.367188" stop-color="#F6B129"/>
<stop offset="0.371094" stop-color="#F6B22A"/>
<stop offset="0.375" stop-color="#F6B22A"/>
<stop offset="0.378906" stop-color="#F6B22B"/>
<stop offset="0.382812" stop-color="#F6B32C"/>
<stop offset="0.386719" stop-color="#F6B32C"/>
<stop offset="0.390625" stop-color="#F6B32D"/>
<stop offset="0.394531" stop-color="#F7B32D"/>
<stop offset="0.398438" stop-color="#F7B42E"/>
<stop offset="0.402344" stop-color="#F7B42F"/>
<stop offset="0.40625" stop-color="#F7B42F"/>
<stop offset="0.410156" stop-color="#F7B530"/>
<stop offset="0.414063" stop-color="#F7B530"/>
<stop offset="0.417969" stop-color="#F7B531"/>
<stop offset="0.421875" stop-color="#F7B631"/>
<stop offset="0.425781" stop-color="#F8B632"/>
<stop offset="0.429688" stop-color="#F8B633"/>
<stop offset="0.433594" stop-color="#F8B633"/>
<stop offset="0.4375" stop-color="#F8B734"/>
<stop offset="0.441406" stop-color="#F8B734"/>
<stop offset="0.445312" stop-color="#F8B735"/>
<stop offset="0.449219" stop-color="#F8B836"/>
<stop offset="0.453125" stop-color="#F8B836"/>
<stop offset="0.457031" stop-color="#F9B837"/>
<stop offset="0.460938" stop-color="#F9B937"/>
<stop offset="0.464844" stop-color="#F9B938"/>
<stop offset="0.46875" stop-color="#F9B938"/>
<stop offset="0.472656" stop-color="#F9B939"/>
<stop offset="0.476562" stop-color="#F9BA3A"/>
<stop offset="0.480469" stop-color="#F9BA3A"/>
<stop offset="0.484375" stop-color="#F9BA3B"/>
<stop offset="0.488281" stop-color="#FABB3B"/>
<stop offset="0.492188" stop-color="#FABB3C"/>
<stop offset="0.496094" stop-color="#FABB3C"/>
<stop offset="0.5" stop-color="#FABC3D"/>
<stop offset="0.503906" stop-color="#FABC3E"/>
<stop offset="0.507812" stop-color="#FABC3E"/>
<stop offset="0.511719" stop-color="#FABC3F"/>
<stop offset="0.515625" stop-color="#FABD3F"/>
<stop offset="0.519531" stop-color="#FBBD40"/>
<stop offset="0.523438" stop-color="#FBBD41"/>
<stop offset="0.527344" stop-color="#FBBE41"/>
<stop offset="0.53125" stop-color="#FBBE42"/>
<stop offset="0.535156" stop-color="#FBBE42"/>
<stop offset="0.539062" stop-color="#FBBF43"/>
<stop offset="0.542969" stop-color="#FBBF43"/>
<stop offset="0.546875" stop-color="#FBBF44"/>
<stop offset="0.550781" stop-color="#FCBF45"/>
<stop offset="0.554688" stop-color="#FCC045"/>
<stop offset="0.558594" stop-color="#FCC046"/>
<stop offset="0.5625" stop-color="#FCC046"/>
<stop offset="0.566406" stop-color="#FCC147"/>
<stop offset="0.570312" stop-color="#FCC148"/>
<stop offset="0.574219" stop-color="#FCC148"/>
<stop offset="0.578125" stop-color="#FCC249"/>
<stop offset="0.582031" stop-color="#FDC249"/>
<stop offset="0.585938" stop-color="#FDC24A"/>
<stop offset="0.589844" stop-color="#FDC34A"/>
<stop offset="0.59375" stop-color="#FDC34B"/>
<stop offset="0.597656" stop-color="#FDC34C"/>
<stop offset="0.601562" stop-color="#FDC34C"/>
<stop offset="0.605469" stop-color="#FDC44D"/>
<stop offset="0.609375" stop-color="#FDC44D"/>
<stop offset="0.613281" stop-color="#FDC44E"/>
<stop offset="0.617188" stop-color="#FEC54E"/>
<stop offset="0.621094" stop-color="#FEC54F"/>
<stop offset="0.625" stop-color="#FEC550"/>
<stop offset="0.628906" stop-color="#FEC650"/>
<stop offset="0.632812" stop-color="#FEC651"/>
<stop offset="0.636719" stop-color="#FEC651"/>
<stop offset="0.640625" stop-color="#FEC652"/>
<stop offset="0.644531" stop-color="#FEC753"/>
<stop offset="0.648438" stop-color="#FFC753"/>
<stop offset="0.652344" stop-color="#FFC754"/>
<stop offset="0.65625" stop-color="#FFC854"/>
<stop offset="0.6875" stop-color="#FFC855"/>
<stop offset="0.75" stop-color="#FFC855"/>
<stop offset="1" stop-color="#FFC855"/>
</linearGradient>
<linearGradient id="paint6_linear_37_39700" x1="129.87" y1="179.503" x2="129.87" y2="52.586" gradientUnits="userSpaceOnUse">
<stop stop-color="#E44B03"/>
<stop offset="0.125" stop-color="#E44B03"/>
<stop offset="0.1875" stop-color="#E44B03"/>
<stop offset="0.203125" stop-color="#E44B03"/>
<stop offset="0.210938" stop-color="#E44C03"/>
<stop offset="0.21875" stop-color="#E44D03"/>
<stop offset="0.226562" stop-color="#E44D03"/>
<stop offset="0.234375" stop-color="#E44E03"/>
<stop offset="0.242188" stop-color="#E44F03"/>
<stop offset="0.25" stop-color="#E45003"/>
<stop offset="0.257812" stop-color="#E45103"/>
<stop offset="0.265625" stop-color="#E45204"/>
<stop offset="0.273438" stop-color="#E45304"/>
<stop offset="0.28125" stop-color="#E55404"/>
<stop offset="0.289062" stop-color="#E55404"/>
<stop offset="0.296875" stop-color="#E55504"/>
<stop offset="0.304687" stop-color="#E55604"/>
<stop offset="0.3125" stop-color="#E55704"/>
<stop offset="0.320312" stop-color="#E55804"/>
<stop offset="0.328125" stop-color="#E55904"/>
<stop offset="0.335938" stop-color="#E55A04"/>
<stop offset="0.34375" stop-color="#E55A04"/>
<stop offset="0.351562" stop-color="#E55B04"/>
<stop offset="0.359375" stop-color="#E55C04"/>
<stop offset="0.367188" stop-color="#E55D04"/>
<stop offset="0.375" stop-color="#E55E04"/>
<stop offset="0.382812" stop-color="#E55F04"/>
<stop offset="0.390625" stop-color="#E56005"/>
<stop offset="0.398438" stop-color="#E56005"/>
<stop offset="0.40625" stop-color="#E56105"/>
<stop offset="0.414062" stop-color="#E56205"/>
<stop offset="0.421875" stop-color="#E56305"/>
<stop offset="0.429688" stop-color="#E66405"/>
<stop offset="0.4375" stop-color="#E66505"/>
<stop offset="0.445312" stop-color="#E66605"/>
<stop offset="0.453125" stop-color="#E66605"/>
<stop offset="0.460938" stop-color="#E66705"/>
<stop offset="0.46875" stop-color="#E66805"/>
<stop offset="0.476562" stop-color="#E66905"/>
<stop offset="0.484375" stop-color="#E66A05"/>
<stop offset="0.492188" stop-color="#E66B05"/>
<stop offset="0.5" stop-color="#E66C05"/>
<stop offset="0.507812" stop-color="#E66C06"/>
<stop offset="0.515625" stop-color="#E66D06"/>
<stop offset="0.523438" stop-color="#E66E06"/>
<stop offset="0.53125" stop-color="#E66F06"/>
<stop offset="0.539062" stop-color="#E67006"/>
<stop offset="0.546875" stop-color="#E67106"/>
<stop offset="0.554688" stop-color="#E67206"/>
<stop offset="0.5625" stop-color="#E67206"/>
<stop offset="0.570312" stop-color="#E67306"/>
<stop offset="0.578125" stop-color="#E67406"/>
<stop offset="0.585938" stop-color="#E77506"/>
<stop offset="0.59375" stop-color="#E77606"/>
<stop offset="0.601562" stop-color="#E77706"/>
<stop offset="0.609375" stop-color="#E77806"/>
<stop offset="0.617187" stop-color="#E77806"/>
<stop offset="0.625" stop-color="#E77907"/>
<stop offset="0.632812" stop-color="#E77A07"/>
<stop offset="0.640625" stop-color="#E77B07"/>
<stop offset="0.648438" stop-color="#E77C07"/>
<stop offset="0.65625" stop-color="#E77D07"/>
<stop offset="0.664062" stop-color="#E77E07"/>
<stop offset="0.671875" stop-color="#E77E07"/>
<stop offset="0.679688" stop-color="#E77F07"/>
<stop offset="0.6875" stop-color="#E78007"/>
<stop offset="0.695312" stop-color="#E78107"/>
<stop offset="0.703125" stop-color="#E78207"/>
<stop offset="0.710937" stop-color="#E78307"/>
<stop offset="0.71875" stop-color="#E78407"/>
<stop offset="0.726562" stop-color="#E78407"/>
<stop offset="0.734375" stop-color="#E88507"/>
<stop offset="0.742188" stop-color="#E88607"/>
<stop offset="0.75" stop-color="#E88708"/>
<stop offset="0.757812" stop-color="#E88808"/>
<stop offset="0.765625" stop-color="#E88908"/>
<stop offset="0.773438" stop-color="#E88A08"/>
<stop offset="0.78125" stop-color="#E88A08"/>
<stop offset="0.789062" stop-color="#E88B08"/>
<stop offset="0.796875" stop-color="#E88C08"/>
<stop offset="0.8125" stop-color="#E88D08"/>
<stop offset="0.875" stop-color="#E88D08"/>
<stop offset="1" stop-color="#E88D08"/>
</linearGradient>
<linearGradient id="paint7_linear_37_39700" x1="130.081" y1="208.96" x2="130.081" y2="94.586" gradientUnits="userSpaceOnUse">
<stop stop-color="#E44B03"/>
<stop offset="0.125" stop-color="#E44B03"/>
<stop offset="0.1875" stop-color="#E44B03"/>
<stop offset="0.203125" stop-color="#E44B03"/>
<stop offset="0.210938" stop-color="#E44C03"/>
<stop offset="0.21875" stop-color="#E44D03"/>
<stop offset="0.226562" stop-color="#E44D03"/>
<stop offset="0.234375" stop-color="#E44E03"/>
<stop offset="0.242188" stop-color="#E44F03"/>
<stop offset="0.25" stop-color="#E45003"/>
<stop offset="0.257812" stop-color="#E45103"/>
<stop offset="0.265625" stop-color="#E45204"/>
<stop offset="0.273438" stop-color="#E45304"/>
<stop offset="0.28125" stop-color="#E55404"/>
<stop offset="0.289062" stop-color="#E55404"/>
<stop offset="0.296875" stop-color="#E55504"/>
<stop offset="0.304687" stop-color="#E55604"/>
<stop offset="0.3125" stop-color="#E55704"/>
<stop offset="0.320312" stop-color="#E55804"/>
<stop offset="0.328125" stop-color="#E55904"/>
<stop offset="0.335938" stop-color="#E55A04"/>
<stop offset="0.34375" stop-color="#E55A04"/>
<stop offset="0.351562" stop-color="#E55B04"/>
<stop offset="0.359375" stop-color="#E55C04"/>
<stop offset="0.367188" stop-color="#E55D04"/>
<stop offset="0.375" stop-color="#E55E04"/>
<stop offset="0.382812" stop-color="#E55F04"/>
<stop offset="0.390625" stop-color="#E56005"/>
<stop offset="0.398438" stop-color="#E56005"/>
<stop offset="0.40625" stop-color="#E56105"/>
<stop offset="0.414062" stop-color="#E56205"/>
<stop offset="0.421875" stop-color="#E56305"/>
<stop offset="0.429688" stop-color="#E66405"/>
<stop offset="0.4375" stop-color="#E66505"/>
<stop offset="0.445312" stop-color="#E66605"/>
<stop offset="0.453125" stop-color="#E66605"/>
<stop offset="0.460938" stop-color="#E66705"/>
<stop offset="0.46875" stop-color="#E66805"/>
<stop offset="0.476562" stop-color="#E66905"/>
<stop offset="0.484375" stop-color="#E66A05"/>
<stop offset="0.492188" stop-color="#E66B05"/>
<stop offset="0.5" stop-color="#E66C05"/>
<stop offset="0.507812" stop-color="#E66C06"/>
<stop offset="0.515625" stop-color="#E66D06"/>
<stop offset="0.523438" stop-color="#E66E06"/>
<stop offset="0.53125" stop-color="#E66F06"/>
<stop offset="0.539062" stop-color="#E67006"/>
<stop offset="0.546875" stop-color="#E67106"/>
<stop offset="0.554688" stop-color="#E67206"/>
<stop offset="0.5625" stop-color="#E67206"/>
<stop offset="0.570312" stop-color="#E67306"/>
<stop offset="0.578125" stop-color="#E67406"/>
<stop offset="0.585938" stop-color="#E77506"/>
<stop offset="0.59375" stop-color="#E77606"/>
<stop offset="0.601562" stop-color="#E77706"/>
<stop offset="0.609375" stop-color="#E77806"/>
<stop offset="0.617187" stop-color="#E77806"/>
<stop offset="0.625" stop-color="#E77907"/>
<stop offset="0.632812" stop-color="#E77A07"/>
<stop offset="0.640625" stop-color="#E77B07"/>
<stop offset="0.648438" stop-color="#E77C07"/>
<stop offset="0.65625" stop-color="#E77D07"/>
<stop offset="0.664062" stop-color="#E77E07"/>
<stop offset="0.671875" stop-color="#E77E07"/>
<stop offset="0.679688" stop-color="#E77F07"/>
<stop offset="0.6875" stop-color="#E78007"/>
<stop offset="0.695312" stop-color="#E78107"/>
<stop offset="0.703125" stop-color="#E78207"/>
<stop offset="0.710937" stop-color="#E78307"/>
<stop offset="0.71875" stop-color="#E78407"/>
<stop offset="0.726562" stop-color="#E78407"/>
<stop offset="0.734375" stop-color="#E88507"/>
<stop offset="0.742188" stop-color="#E88607"/>
<stop offset="0.75" stop-color="#E88708"/>
<stop offset="0.757812" stop-color="#E88808"/>
<stop offset="0.765625" stop-color="#E88908"/>
<stop offset="0.773438" stop-color="#E88A08"/>
<stop offset="0.78125" stop-color="#E88A08"/>
<stop offset="0.789062" stop-color="#E88B08"/>
<stop offset="0.796875" stop-color="#E88C08"/>
<stop offset="0.8125" stop-color="#E88D08"/>
<stop offset="0.875" stop-color="#E88D08"/>
<stop offset="1" stop-color="#E88D08"/>
</linearGradient>
</defs>
</svg>
