<svg width="257" height="138" viewBox="0 0 257 138" fill="none" xmlns="http://www.w3.org/2000/svg">
<path fill-rule="evenodd" clip-rule="evenodd" d="M165.907 0.75H111.428C107.735 28.7028 83.6507 50.4578 54.7314 50.4578V0.75H0.253906V137.581H54.7314V87.8733C83.6507 87.8733 107.735 109.628 111.428 137.581H165.907C165.907 102.01 136.803 72.9082 101.231 72.9082H27.4927V65.4229H101.231C136.803 65.4229 165.907 36.322 165.907 0.75ZM256.254 73.1519C254.175 108.943 224.251 137.581 187.96 137.581H173.741C173.509 136.306 173.39 134.995 173.39 133.657V95.0013C173.39 82.8511 183.332 72.9082 195.485 72.9082H252.989C254.098 72.9082 255.188 72.9905 256.254 73.1519ZM173.39 0.75H187.96C224.057 0.75 253.855 29.0852 256.219 64.6112H195.485C183.332 64.6112 173.39 54.6684 173.39 42.5158V0.75Z" fill="#AD9462"/>
</svg>
