<svg width="257" height="243" viewBox="0 0 257 243" fill="none" xmlns="http://www.w3.org/2000/svg">
<path d="M128.1 242.814L0.0999756 67.2598L68.0065 94.6539L128.1 242.814Z" fill="url(#paint0_linear_1_511)"/>
<path d="M68.0065 94.6539L128.1 242.814V94.6539H68.0065Z" fill="url(#paint1_linear_1_511)"/>
<path d="M128.1 94.6539V242.814L256.1 67.2598L188.193 94.6539H128.1Z" fill="url(#paint2_linear_1_511)"/>
<path d="M188.193 94.6539L128.1 242.814V94.6539H188.193Z" fill="url(#paint3_linear_1_511)"/>
<path d="M26.9153 15.1723L0.0999756 46.039L68.0065 73.5295H128.1V0.800049L26.9153 15.1723Z" fill="url(#paint4_linear_1_511)"/>
<path d="M229.285 15.1723L128.1 0.800049V73.5295H188.193L256.1 46.039L229.285 15.1723Z" fill="url(#paint5_linear_1_511)"/>
<path d="M26.9153 15.1723L128.1 36.7789L229.285 15.1723L128.1 0.800049L26.9153 15.1723Z" fill="url(#paint6_linear_1_511)"/>
<path d="M26.9153 15.1724L68.0065 73.5296L0.0999756 46.039L26.9153 15.1724Z" fill="url(#paint7_linear_1_511)"/>
<path d="M229.285 15.1724L188.193 73.5296L256.1 46.039L229.285 15.1724Z" fill="url(#paint8_linear_1_511)"/>
<path d="M128.1 0.800049V36.7789L229.285 15.1723L128.1 0.800049Z" fill="url(#paint9_linear_1_511)"/>
<defs>
<linearGradient id="paint0_linear_1_511" x1="-182.486" y1="157.615" x2="-55.1284" y2="66.4211" gradientUnits="userSpaceOnUse">
<stop stop-color="#F29B75"/>
<stop offset="1" stop-color="#C61D99"/>
</linearGradient>
<linearGradient id="paint1_linear_1_511" x1="-66.9317" y1="288.078" x2="-112.605" y2="170.538" gradientUnits="userSpaceOnUse">
<stop stop-color="#731CB7"/>
<stop offset="1" stop-color="#C61D99"/>
</linearGradient>
<linearGradient id="paint2_linear_1_511" x1="25.5137" y1="164.919" x2="88.0573" y2="32.8845" gradientUnits="userSpaceOnUse">
<stop stop-color="#F29B75"/>
<stop offset="1" stop-color="#C61D99"/>
</linearGradient>
<linearGradient id="paint3_linear_1_511" x1="-8.4907" y1="283.905" x2="-61.3604" y2="147.843" gradientUnits="userSpaceOnUse">
<stop stop-color="#F29B75"/>
<stop offset="1" stop-color="#C61D99"/>
</linearGradient>
<linearGradient id="paint4_linear_1_511" x1="117.69" y1="89.4451" x2="37.1851" y2="72.1557" gradientUnits="userSpaceOnUse">
<stop stop-color="#731CB7"/>
<stop offset="1" stop-color="#C61D99"/>
</linearGradient>
<linearGradient id="paint5_linear_1_511" x1="215.552" y1="7.40647" x2="296.536" y2="198.384" gradientUnits="userSpaceOnUse">
<stop stop-color="#F29B75"/>
<stop offset="1" stop-color="#C61D99"/>
</linearGradient>
<linearGradient id="paint6_linear_1_511" x1="66.5751" y1="-54.8245" x2="160.275" y2="25.7106" gradientUnits="userSpaceOnUse">
<stop stop-color="#F29B75"/>
<stop offset="1" stop-color="#C61D99"/>
</linearGradient>
<linearGradient id="paint7_linear_1_511" x1="16.7766" y1="82.4886" x2="-32.1937" y2="25.3577" gradientUnits="userSpaceOnUse">
<stop stop-color="#731CB7"/>
<stop offset="1" stop-color="#C61D99"/>
</linearGradient>
<linearGradient id="paint8_linear_1_511" x1="197.167" y1="90.8226" x2="197.167" y2="11.8918" gradientUnits="userSpaceOnUse">
<stop stop-color="#731CB7"/>
<stop offset="1" stop-color="#C61D99"/>
</linearGradient>
<linearGradient id="paint9_linear_1_511" x1="118.103" y1="0.820305" x2="200.18" y2="0.820305" gradientUnits="userSpaceOnUse">
<stop stop-color="#F29B75"/>
<stop offset="1" stop-color="#C61D99"/>
</linearGradient>
</defs>
</svg>
