<svg width="249" height="257" viewBox="0 0 249 257" fill="none" xmlns="http://www.w3.org/2000/svg">
<path d="M86.5348 11.8879C87.3704 11.1054 90.3282 10.1504 91.5086 9.64638C103.831 4.35419 118.169 0.826057 131.618 0.958694C131.724 0.998485 131.817 1.03828 131.923 1.06481C133.13 1.43619 140.398 0.918904 140.717 1.30355C138.992 5.30917 133.912 8.63834 130.597 11.3309C129.88 11.9145 129.602 12.7899 128.779 13.4133C128.514 13.6122 128.355 13.8112 128.169 14.0897L128.156 14.355L128.581 14.5009C126.564 14.6202 124.548 14.7661 122.559 15.0977L122.519 15.3232C113.752 16.7159 104.958 18.6259 96.7743 22.1142C94.5548 23.0427 92.3663 24.0374 90.2088 25.0985C88.8692 25.7617 87.5428 26.5575 86.1634 27.1544C84.3463 28.3216 82.4098 29.3031 80.5926 30.4438C77.7675 32.2211 75.0484 34.2902 72.4355 36.3594C54.7551 50.3525 41.4516 70.7918 36.6369 92.889C34.6076 102.227 33.3078 115.49 35.6024 124.841C35.7792 125.531 35.9826 126.216 36.2125 126.897C36.4424 127.569 36.6944 128.232 36.9685 128.887C37.2515 129.541 37.561 130.186 37.897 130.823C38.233 131.451 38.5911 132.065 38.9713 132.667C43.3351 139.365 50.9086 142.018 58.3893 143.556C67.7667 145.479 77.3033 145.174 86.8 145.798C102.531 146.846 121.033 151.315 133.05 162.112C136.539 165.242 139.682 169.407 142.269 173.32C147.176 180.761 150.479 190.509 150.916 199.489C150.386 200.245 150.89 203.044 150.93 204.078C151.062 207.726 150.32 213.456 149.55 217.076L149.232 217.13L149.152 217.368L149.245 217.382C148.741 216.665 148.834 215.498 148.502 214.649C148.317 214.689 148.197 214.729 148.025 214.676C147.335 214.464 146.593 213.389 146.274 212.792C145.187 212.898 143.98 212.527 142.932 212.766C142.096 212.965 141.367 213.933 140.531 213.96C140.306 213.071 140.677 210.087 140.677 208.972C140.677 207.009 140.584 205.055 140.398 203.11C140.292 201.863 139.589 196.491 138.794 195.828C137.865 193.361 137.202 190.841 136.181 188.4C135.977 187.941 135.774 187.485 135.57 187.034C135.358 186.583 135.142 186.132 134.921 185.681C134.699 185.239 134.47 184.802 134.231 184.368C134.001 183.926 133.758 183.489 133.501 183.055C133.254 182.631 133.002 182.206 132.745 181.782C132.48 181.358 132.21 180.937 131.936 180.522C131.662 180.106 131.384 179.695 131.101 179.288C130.818 178.882 130.526 178.479 130.225 178.081C129.925 177.683 129.619 177.29 129.31 176.901C129.001 176.512 128.687 176.127 128.368 175.747C128.05 175.367 127.723 174.991 127.387 174.62C127.051 174.248 126.715 173.881 126.379 173.519C126.034 173.156 125.685 172.802 125.331 172.458C124.977 172.104 124.619 171.759 124.257 171.423C123.894 171.087 123.523 170.755 123.142 170.428C122.771 170.092 122.395 169.769 122.015 169.46C104.507 154.817 82.4761 155.653 61.1481 152.854C54.5163 151.979 47.7784 150.864 41.571 148.291C33.5067 144.962 26.3311 139.325 22.9621 131.062C20.9726 126.207 20.9062 121.34 20.9062 116.167C20.9062 101.431 23.5722 86.2174 29.2623 72.5691C38.0031 51.6258 51.2004 35.033 69.6501 21.8091C74.7964 18.1218 80.6722 14.3019 86.5348 11.8879Z" fill="url(#paint0_linear_40_5650)"/>
<path d="M86.535 11.8879C87.3706 11.1054 90.3284 10.1504 91.5089 9.64638C103.831 4.35419 118.169 0.826057 131.618 0.958694C131.724 0.998485 131.817 1.03828 131.923 1.06481C133.13 1.43619 140.399 0.918904 140.717 1.30355C138.993 5.30917 133.913 8.63834 130.597 11.3309C129.881 11.9145 129.602 12.7899 128.78 13.4133C128.514 13.6122 128.355 13.8112 128.17 14.0897L128.156 14.355L128.581 14.5009C126.565 14.6202 124.549 14.7661 122.559 15.0977L122.519 15.3232C113.752 16.7159 104.958 18.6259 96.7745 22.1142C94.5551 23.0427 92.3666 24.0374 90.209 25.0985C88.8694 25.7617 87.543 26.5575 86.1636 27.1544C87.0258 26.0933 88.7102 25.4964 89.9305 24.9394C90.4345 24.7006 90.9916 24.5149 91.1905 23.9711C90.7661 23.5201 89.957 23.4671 89.3602 23.3345C88.6837 23.6793 88.0338 24.0772 87.3043 24.3027C86.5217 24.5414 85.9249 24.7006 85.1688 24.3027C84.8373 23.8119 84.7975 23.2283 84.6648 22.658C84.4924 21.8224 84.2006 21.1592 83.4446 20.6817C82.3304 19.992 81.3887 18.984 80.2215 18.4004C79.4522 18.7452 78.7492 19.5941 78.1391 20.1644C77.7545 20.191 77.6616 20.1379 77.3168 19.9655C77.1841 19.5941 77.1841 19.6206 77.3566 19.2493C77.3035 19.2891 77.2637 19.3288 77.2239 19.3554C76.7862 19.6339 76.07 19.7931 75.5527 19.687C75.2609 19.2758 75.2874 19.0238 75.2344 18.5198C76.5077 16.8618 85.5668 13.1612 86.3891 12.1002C86.4422 12.0338 86.4952 11.9543 86.535 11.8879Z" fill="#1F906D"/>
<path d="M114.134 218.31C115.089 211.347 113.524 204.887 109.253 199.21C103.854 192.021 96.1616 187.644 88.0177 184.275C80.1656 181.052 72.1411 178.731 63.8779 176.808C45.6801 172.564 16.0889 168.996 4.86791 152.297C4.66453 152.005 4.47442 151.704 4.29757 151.395C4.11188 151.094 3.93503 150.785 3.76702 150.466C3.59017 150.157 3.42217 149.843 3.26301 149.525C3.11269 149.206 2.96236 148.884 2.81204 148.556C2.67056 148.229 2.53793 147.902 2.41413 147.575C2.2815 147.239 2.1577 146.903 2.04275 146.567C1.9278 146.231 1.82169 145.89 1.72442 145.546C1.61831 145.21 1.52105 144.869 1.43263 144.524C1.35304 144.179 1.27788 143.83 1.20714 143.476C1.1364 143.132 1.07008 142.782 1.00819 142.429C0.955133 142.075 0.906498 141.721 0.862286 141.368C0.826917 141.014 0.79597 140.66 0.769443 140.306C0.742916 139.953 0.725228 139.599 0.716385 139.245C0.707543 138.892 0.703125 138.534 0.703125 138.171C0.711967 137.817 0.725229 137.464 0.742914 137.11C0.760599 136.756 0.787127 136.403 0.822497 136.049C2.10907 143.198 4.7618 147.893 10.8233 152.138C18.808 157.708 28.4507 160.56 37.8811 162.51C45.7597 164.141 53.771 165.216 61.7424 166.25C82.699 168.969 107.568 171.715 122.052 189.077C126.35 194.21 129.639 200.55 130.833 207.182C131.668 211.744 131.881 218.39 130.501 222.806C129.851 226.64 127.623 230.871 125.487 234.067C119.93 242.357 111.932 247.729 102.143 249.652C96.4268 250.779 90.5776 250.448 84.9273 249.148C67.1407 245.049 54.779 231.666 45.3485 216.785C40.1359 208.574 36.9129 198.945 28.4374 193.334C24.896 190.987 20.519 189.74 16.3144 190.629C11.5395 191.65 9.19186 194.687 6.67176 198.547C8.03792 193.799 10.4121 189.011 14.882 186.49C22.7606 182.047 31.886 184.74 38.0005 190.841C42.2846 195.125 45.4149 200.643 48.7838 205.643C56.9277 217.753 68.5732 231.839 83.2162 235.778C83.4196 235.84 83.6274 235.898 83.8396 235.951C84.0519 236.004 84.2641 236.052 84.4763 236.096C84.6885 236.141 84.9052 236.185 85.1262 236.229C85.3384 236.273 85.5506 236.313 85.7629 236.348C85.9751 236.384 86.1917 236.419 86.4128 236.455C86.625 236.49 86.8416 236.521 87.0627 236.547C87.2749 236.574 87.4916 236.596 87.7126 236.614C87.9248 236.631 88.1415 236.649 88.3625 236.667C88.5748 236.684 88.7914 236.698 89.0125 236.707C89.2335 236.715 89.4502 236.724 89.6624 236.733C89.8834 236.742 90.1045 236.746 90.3256 236.746C90.5378 236.738 90.7544 236.733 90.9755 236.733C91.1965 236.724 91.4132 236.715 91.6254 236.707C91.8465 236.698 92.0675 236.684 92.2886 236.667C92.5008 236.649 92.7174 236.631 92.9385 236.614C93.1507 236.587 93.3674 236.561 93.5884 236.534C93.8006 236.508 94.0173 236.477 94.2383 236.441C94.4506 236.415 94.6628 236.379 94.875 236.335C95.096 236.3 95.3127 236.26 95.5249 236.216C95.7371 236.18 95.9493 236.136 96.1616 236.083C96.3738 236.039 96.586 235.99 96.7982 235.937C97.0104 235.884 97.2227 235.827 97.4349 235.765C97.6382 235.703 97.846 235.641 98.0583 235.579C98.2705 235.517 98.4783 235.451 98.6817 235.38C98.885 235.309 99.0928 235.239 99.305 235.168C99.5084 235.097 99.7118 235.022 99.9152 234.943C100.119 234.863 100.322 234.779 100.525 234.691C100.72 234.611 100.919 234.527 101.122 234.439C101.317 234.35 101.516 234.257 101.719 234.16C101.914 234.072 102.108 233.974 102.303 233.868C102.497 233.771 102.692 233.674 102.886 233.576C103.072 233.47 103.262 233.364 103.457 233.258C109.452 229.783 112.383 224.836 114.134 218.31Z" fill="url(#paint1_linear_40_5650)"/>
<path d="M131.493 43.8013C142.555 43.0188 154.108 45.3532 164.135 50.0087C164.675 50.2563 165.214 50.5127 165.753 50.778C166.284 51.0344 166.814 51.3041 167.345 51.5871C167.876 51.8612 168.402 52.1441 168.923 52.4359C169.445 52.7189 169.962 53.0107 170.475 53.3113C170.988 53.6208 171.497 53.9303 172.001 54.2398C172.505 54.5581 173.004 54.8809 173.499 55.208C174.003 55.5352 174.499 55.8668 174.985 56.2028C175.48 56.5477 175.966 56.8925 176.444 57.2374C176.921 57.5911 177.399 57.9492 177.876 58.3117C178.345 58.6743 178.814 59.0457 179.282 59.4259C179.742 59.7973 180.197 60.1775 180.648 60.5666C181.099 60.9556 181.55 61.3447 182.001 61.7338C182.443 62.1317 182.881 62.5384 183.314 62.954C183.748 63.3608 184.177 63.7719 184.601 64.1875C185.025 64.612 185.441 65.0364 185.848 65.4608C186.263 65.8941 186.675 66.3318 187.081 66.7739C187.479 67.2072 187.873 67.6493 188.262 68.1003C188.651 68.5513 189.035 69.0067 189.416 69.4665C189.796 69.9263 190.172 70.3905 190.543 70.8591C190.914 71.3278 191.277 71.8009 191.631 72.2784C191.984 72.7558 192.334 73.2378 192.679 73.7241C193.023 74.2104 193.364 74.7012 193.7 75.1964C194.027 75.6915 194.35 76.1911 194.668 76.6951C194.986 77.1903 195.3 77.6943 195.61 78.2072C195.919 78.7201 196.22 79.2329 196.512 79.7458C196.804 80.2675 197.091 80.7892 197.374 81.3109C197.657 81.8414 197.931 82.372 198.196 82.9025C198.47 83.4331 198.736 83.968 198.992 84.5074C199.24 85.0468 199.487 85.5906 199.735 86.1389C199.974 86.6782 200.208 87.2221 200.438 87.7703C200.659 88.3274 200.88 88.8844 201.101 89.4415C201.313 89.9986 201.517 90.5557 201.711 91.1127C208.171 108.873 206.552 129.537 198.581 146.555C198.333 147.103 198.077 147.642 197.812 148.173C197.546 148.712 197.272 149.247 196.989 149.778C196.715 150.308 196.432 150.834 196.14 151.356C195.849 151.878 195.548 152.395 195.238 152.908C194.938 153.421 194.628 153.929 194.31 154.433C193.992 154.946 193.669 155.45 193.342 155.945C193.015 156.449 192.679 156.945 192.334 157.431C191.998 157.926 191.653 158.412 191.299 158.89C190.945 159.376 190.587 159.854 190.225 160.322C189.853 160.8 189.482 161.269 189.111 161.728C188.73 162.197 188.346 162.657 187.957 163.108C187.568 163.568 187.174 164.019 186.776 164.461C186.378 164.903 185.976 165.345 185.569 165.787C185.154 166.22 184.738 166.649 184.322 167.074C183.898 167.498 183.474 167.918 183.049 168.334C182.616 168.749 182.178 169.156 181.736 169.554C181.294 169.961 180.847 170.359 180.396 170.748C179.945 171.146 179.49 171.535 179.03 171.915C178.57 172.295 178.106 172.671 177.638 173.042C177.169 173.414 176.696 173.781 176.218 174.143C175.741 174.497 175.259 174.846 174.773 175.191C174.286 175.545 173.796 175.885 173.3 176.212C172.805 176.548 172.306 176.88 171.802 177.207C171.298 177.525 170.789 177.839 170.276 178.149C169.763 178.458 169.251 178.763 168.738 179.064C168.216 179.365 167.694 179.656 167.173 179.939C166.642 180.222 166.111 180.501 165.581 180.775C165.05 181.04 164.515 181.301 163.976 181.558C163.437 181.823 162.893 182.075 162.345 182.314C161.796 182.561 161.248 182.8 160.7 183.03C160.152 183.26 159.599 183.485 159.042 183.706C158.485 183.927 157.923 184.139 157.357 184.343C156.296 181.969 155.461 179.488 154.4 177.114C155.925 176.345 157.503 175.668 159.042 174.912C174.454 167.365 187.652 153.545 193.236 137.164C194.575 133.265 195.769 129.126 196.445 125.054C196.578 124.259 196.693 123.458 196.79 122.654C196.888 121.858 196.972 121.058 197.042 120.253C197.113 119.448 197.166 118.644 197.201 117.839C197.237 117.025 197.255 116.216 197.255 115.412C197.263 114.607 197.255 113.798 197.228 112.984C197.201 112.18 197.157 111.375 197.095 110.57C197.042 109.766 196.972 108.961 196.883 108.157C196.795 107.352 196.689 106.552 196.565 105.756C196.45 104.96 196.317 104.164 196.167 103.368C196.017 102.573 195.849 101.781 195.663 100.994C195.486 100.207 195.291 99.4246 195.079 98.6465C194.867 97.8683 194.637 97.0946 194.39 96.3253C194.151 95.556 193.894 94.7912 193.62 94.0307C193.355 93.2614 193.072 92.5054 192.771 91.7626C192.471 91.011 192.152 90.2683 191.816 89.5343C191.489 88.7916 191.149 88.0577 190.795 87.3326C190.601 86.9435 190.406 86.5545 190.212 86.1654C190.008 85.7763 189.805 85.3917 189.601 85.0114C189.389 84.6224 189.177 84.2377 188.965 83.8575C188.744 83.4773 188.523 83.1015 188.302 82.7301C188.08 82.3587 187.855 81.9873 187.625 81.616C187.395 81.2446 187.161 80.8776 186.922 80.5151C186.683 80.1437 186.44 79.7812 186.193 79.4275C185.945 79.0649 185.693 78.7068 185.437 78.3531C185.18 77.9994 184.924 77.6457 184.667 77.292C184.402 76.9472 184.137 76.6023 183.871 76.2574C183.597 75.9126 183.323 75.5722 183.049 75.2361C182.775 74.9001 182.496 74.5641 182.214 74.2281C181.931 73.8921 181.643 73.5649 181.351 73.2466C181.06 72.9194 180.768 72.5967 180.476 72.2784C180.175 71.9512 179.875 71.6329 179.574 71.3234C179.273 71.005 178.964 70.6956 178.646 70.3949C178.336 70.0854 178.027 69.7804 177.717 69.4797C177.399 69.1791 177.076 68.8829 176.749 68.5911C176.431 68.2993 176.108 68.0075 175.781 67.7157C175.445 67.4327 175.109 67.1497 174.773 66.8668C174.445 66.5927 174.109 66.3186 173.765 66.0444C173.429 65.7703 173.084 65.5006 172.73 65.2354C172.385 64.9701 172.036 64.7092 171.682 64.4528C171.337 64.1964 170.984 63.9399 170.621 63.6835C170.267 63.4359 169.909 63.1883 169.547 62.9407C169.184 62.702 168.817 62.4633 168.446 62.2245C168.083 61.9946 167.716 61.7647 167.345 61.5348C166.965 61.3049 166.589 61.0838 166.218 60.8716C165.837 60.6506 165.457 60.4339 165.077 60.2217C164.697 60.0095 164.312 59.8017 163.923 59.5983C163.534 59.3949 163.145 59.196 162.756 59.0015C162.367 58.8069 161.978 58.6168 161.589 58.4311C147.078 51.6003 129.132 50.4066 114.038 55.8978C101.053 60.6329 91.0393 67.9809 83.2535 79.4275C81.3303 82.2659 79.5662 85.1308 78.1205 88.2478C72.8017 99.7076 71.0244 112.958 73.6639 125.373C74.3934 128.821 75.5473 132.084 76.7543 135.387C73.6506 135.36 70.5867 135.055 67.5096 134.671C67.0144 133.256 66.5634 131.828 66.1567 130.386C65.7588 128.945 65.4139 127.495 65.1221 126.036C64.8215 124.568 64.5694 123.091 64.3661 121.606C64.1715 120.129 64.0256 118.644 63.9284 117.149C62.854 99.9463 69.3134 81.5762 80.6936 68.6706C94.4613 53.0726 110.815 45.1011 131.493 43.8013Z" fill="#F3AB44"/>
<path d="M227.778 77.2904C227.606 74.6775 224.462 70.2872 223.547 67.6212C223.255 66.7856 223.308 66.0826 223.733 65.3001C224.303 64.2655 225.988 62.6341 227.208 62.3158C227.792 62.1699 228.349 62.1964 228.919 61.9311C229.914 61.4669 230.55 60.565 231.704 60.2997C232.659 60.0742 233.959 60.9629 234.768 61.4271C235.418 62.6208 236.148 63.7748 236.718 64.995C237.487 66.5999 238.097 68.4303 239.026 69.9424C239.158 70.1413 239.304 70.2739 239.49 70.4198C240.631 72.3961 241.347 74.7571 242.09 76.8925C245.432 86.5086 247.66 96.7084 248.045 106.921C248.934 127.626 245.392 147.813 236.148 166.475C235.113 168.571 233.906 170.613 232.765 172.656C228.853 179.659 223.72 187.166 218.282 193.069C201.516 211.293 180.493 223.641 156.102 228.43C157.76 223.695 159.099 219.145 159.669 214.145C163.794 213.349 167.973 211.611 171.832 209.98C172.398 209.732 172.964 209.485 173.53 209.237C174.087 208.99 174.644 208.733 175.201 208.468C175.767 208.211 176.324 207.946 176.872 207.672C177.429 207.407 177.982 207.133 178.53 206.85C179.079 206.567 179.627 206.284 180.175 206.001C180.714 205.709 181.254 205.413 181.793 205.112C182.333 204.811 182.868 204.506 183.398 204.197C183.929 203.887 184.459 203.574 184.99 203.255C185.52 202.937 186.046 202.614 186.568 202.287C187.09 201.951 187.607 201.615 188.12 201.279C188.633 200.943 189.146 200.603 189.659 200.258C190.171 199.913 190.68 199.559 191.184 199.197C191.679 198.843 192.179 198.485 192.683 198.122C193.178 197.751 193.669 197.379 194.155 197.008C194.65 196.637 195.136 196.261 195.614 195.881C196.1 195.492 196.582 195.103 197.06 194.713C197.537 194.324 198.01 193.931 198.479 193.533C198.948 193.126 199.412 192.719 199.872 192.313C200.331 191.906 200.791 191.495 201.251 191.079C201.702 190.664 202.149 190.244 202.591 189.819C203.042 189.395 203.488 188.966 203.93 188.533C204.364 188.099 204.797 187.662 205.23 187.219C205.663 186.777 206.092 186.335 206.517 185.893C206.941 185.442 207.361 184.987 207.777 184.527C208.192 184.076 208.603 183.621 209.01 183.161C209.417 182.692 209.819 182.224 210.217 181.755C210.615 181.286 211.009 180.813 211.398 180.336C211.787 179.858 212.171 179.376 212.552 178.89C212.932 178.404 213.308 177.917 213.679 177.431C214.059 176.936 214.431 176.441 214.793 175.945C215.156 175.45 215.514 174.951 215.868 174.447C216.221 173.943 216.571 173.434 216.915 172.921C228.601 155.679 234.384 136.672 234.901 115.901C234.941 106.139 233.76 95.9391 230.988 86.5617C230.086 83.5111 228.693 80.5798 227.845 77.5292L227.778 77.2904Z" fill="url(#paint2_linear_40_5650)"/>
<path d="M227.774 77.2904C227.601 74.6775 224.458 70.2872 223.543 67.6212C223.251 66.7856 223.304 66.0826 223.728 65.3001C224.299 64.2655 225.983 62.6341 227.203 62.3158C227.787 62.1699 228.344 62.1964 228.914 61.9311C229.909 61.4669 230.546 60.565 231.7 60.2997C232.655 60.0742 233.955 60.9629 234.764 61.4271C235.414 62.6208 236.143 63.7748 236.713 64.995C237.483 66.5999 238.093 68.4303 239.021 69.9424C239.154 70.1413 239.3 70.2739 239.485 70.4198C240.626 72.3961 241.342 74.7571 242.085 76.8925C245.428 86.5086 247.656 96.7084 248.041 106.921L247.789 107.027C247.643 109.256 248.054 111.484 248.054 113.712C248.054 116.962 247.735 120.251 247.576 123.501C246.462 123.7 245.534 123.833 244.486 124.337C240.387 126.339 236.196 132.361 233.119 135.664C234.273 129.111 235.334 122.068 235.175 115.41C235.162 114.853 235.347 114.177 235.095 113.673C235.069 114.309 235.201 115.37 234.896 115.901C234.936 106.139 233.756 95.9391 230.983 86.5617C230.082 83.5111 228.689 80.5798 227.84 77.5292L227.774 77.2904Z" fill="#AF914A"/>
<path d="M55.7464 132.601C52.7222 131.607 49.5522 129.922 47.4566 127.482C46.7801 126.699 46.2363 125.797 45.9047 124.829C44.2733 120.08 44.6049 110.796 44.9763 105.703C46.2894 87.7171 54.4067 69.7714 66.145 56.1895C69.1692 52.6879 72.631 49.4383 76.1326 46.4142C76.6896 45.9278 77.2556 45.4548 77.8303 44.995C78.3962 44.5263 78.971 44.0665 79.5546 43.6155C80.1293 43.1557 80.713 42.7092 81.3054 42.2759C81.8978 41.8338 82.4991 41.4049 83.1092 40.9893C83.7105 40.5649 84.3162 40.1493 84.9264 39.7426C85.5365 39.327 86.1555 38.9246 86.7833 38.5356C87.4022 38.1465 88.0301 37.7619 88.6667 37.3816C89.2945 37.0014 89.9312 36.63 90.5767 36.2675C91.2133 35.9049 91.8588 35.5512 92.5132 35.2064C93.1587 34.8615 93.813 34.5255 94.4762 34.1984C95.1305 33.8712 95.7893 33.5484 96.4525 33.2301C97.1245 32.9206 97.7965 32.6156 98.4686 32.3149C99.1406 32.0231 99.817 31.7357 100.498 31.4528C101.179 31.1698 101.864 30.8957 102.554 30.6304C103.243 30.374 103.933 30.122 104.623 29.8744C105.321 29.6268 106.02 29.3881 106.719 29.1582C107.417 28.9283 108.12 28.7072 108.827 28.495C109.526 28.2828 110.233 28.0794 110.95 27.8849C111.657 27.6903 112.369 27.5046 113.085 27.3278C113.801 27.1509 114.518 26.9829 115.234 26.8238C115.95 26.6646 116.671 26.5143 117.396 26.3728C118.121 26.2313 118.846 26.0987 119.571 25.9749C120.296 25.8511 121.021 25.7406 121.746 25.6433C122.48 25.5372 123.21 25.4399 123.935 25.3515C124.669 25.2631 125.403 25.1835 126.137 25.1128C126.87 25.042 127.604 24.9801 128.338 24.9271C129.072 24.874 129.806 24.8342 130.54 24.8077C131.274 24.7723 132.012 24.7458 132.755 24.7281C133.489 24.7193 134.223 24.7148 134.957 24.7148C135.691 24.7148 136.429 24.7281 137.172 24.7546C137.906 24.7723 138.64 24.8033 139.374 24.8475C140.108 24.8828 140.841 24.9271 141.575 24.9801C142.654 25.0774 143.733 25.1879 144.812 25.3117C145.89 25.4355 146.965 25.5814 148.035 25.7494C149.105 25.9174 150.175 26.1031 151.245 26.3065C152.306 26.5099 153.367 26.7309 154.428 26.9697C155.48 27.2173 156.532 27.4825 157.585 27.7655C158.628 28.0396 159.667 28.3358 160.702 28.6541C161.745 28.9725 162.78 29.3085 163.805 29.6622C164.822 30.0159 165.839 30.3873 166.856 30.7763C167.864 31.1654 168.868 31.5766 169.867 32.0099C170.866 32.4343 171.856 32.8764 172.838 33.3362C173.819 33.796 174.792 34.2735 175.756 34.7687C176.72 35.2727 177.675 35.79 178.621 36.3205C179.567 36.8511 180.5 37.3949 181.419 37.952C182.348 38.5179 183.263 39.1015 184.165 39.7028C185.076 40.2952 185.973 40.9053 186.857 41.5331C187.733 42.1698 188.604 42.8153 189.47 43.4696C191.884 45.3133 194.696 47.3161 196.686 49.6107L196.606 49.9025C197.309 50.7116 199.285 52.1838 199.63 52.9929C197.853 52.9266 194.444 52.3961 192.959 53.6694C192.707 53.8949 192.627 54.0805 192.521 54.3856C192.508 56.0303 195.877 57.6219 194.975 59.2136L194.855 59.0677C193.993 58.0331 191.659 55.3273 190.452 55.1019C188.542 53.7622 186.844 51.8125 185.001 50.3402C180.836 46.9978 176.034 44.0532 171.299 41.5995C166.179 38.9467 160.808 37.0766 155.224 35.6574C139.851 31.7313 124.187 32.0098 109.026 36.8246C106.493 37.6204 104.079 38.6682 101.665 39.7426C101.135 39.9725 100.604 40.2112 100.073 40.4588C99.5517 40.6975 99.03 40.9451 98.5083 41.2016C97.9955 41.458 97.4782 41.7188 96.9565 41.9841C96.4436 42.2494 95.9352 42.5191 95.4312 42.7932C94.9183 43.0761 94.4143 43.3591 93.9191 43.6421C93.4151 43.9339 92.9155 44.2301 92.4203 44.5307C91.9251 44.8225 91.43 45.1232 90.9348 45.4327C90.4485 45.7421 89.9621 46.056 89.4758 46.3744C88.9983 46.7015 88.5208 47.0287 88.0433 47.3559C87.5658 47.683 87.0928 48.0146 86.6241 48.3507C86.1555 48.6955 85.6912 49.0404 85.2314 49.3852C84.7716 49.7389 84.3118 50.0926 83.852 50.4463C83.401 50.8089 82.9545 51.1758 82.5124 51.5472C82.0614 51.9097 81.6193 52.2811 81.186 52.6613C80.7439 53.0416 80.3062 53.4262 79.8729 53.8153C79.4485 54.2043 79.024 54.5934 78.5996 54.9825C78.1752 55.3804 77.7596 55.7827 77.3528 56.1895C76.9372 56.5962 76.5261 57.0074 76.1193 57.423C75.7126 57.8297 75.3102 58.2453 74.9123 58.6698C74.5232 59.0942 74.1342 59.5231 73.7451 59.9563C73.3561 60.3808 72.9758 60.8141 72.6044 61.2562C72.2242 61.6983 71.8484 62.1404 71.477 62.5825C71.1145 63.0335 70.7519 63.4845 70.3894 63.9354C70.0357 64.3952 69.682 64.855 69.3283 65.3149C68.9835 65.7747 68.6386 66.2389 68.2938 66.7075C67.9577 67.1762 67.6262 67.6493 67.299 68.1267C66.9718 68.6042 66.6491 69.0861 66.3307 69.5725C66.0124 70.05 65.6985 70.5363 65.389 71.0315C65.0795 71.5178 64.7745 72.0086 64.4738 72.5038C64.182 72.9989 63.8902 73.4985 63.5984 74.0025C63.3155 74.5066 63.0325 75.0106 62.7496 75.5146C62.4754 76.0275 62.2057 76.5403 61.9405 77.0532C54.8577 90.8474 51.7938 105.676 53.4915 121.102C53.916 124.948 54.5526 128.914 55.7464 132.601Z" fill="#60AD58"/>
<path d="M190.454 55.1005C191.661 55.326 193.996 58.0318 194.858 59.0664L194.977 59.2123C195.879 57.6206 192.51 56.029 192.524 54.3843C192.63 54.0792 192.709 53.8935 192.961 53.6681C194.447 52.3947 197.856 52.9253 199.633 52.9916C199.288 52.1825 197.312 50.7103 196.609 49.9012L196.688 49.6094C200.694 53.1773 204.209 57.4349 207.313 61.7987C216.823 75.1286 223.388 91.0848 224.383 107.558C225.921 133.21 217.95 157.682 200.827 176.967C189.712 189.501 176.315 197.87 160.439 203.07C160.266 200.337 160.147 197.632 159.656 194.939C164.153 193.533 168.503 191.438 172.615 189.13C173.526 188.626 174.423 188.108 175.307 187.578C176.2 187.047 177.085 186.499 177.96 185.933C178.827 185.367 179.684 184.784 180.533 184.182C181.382 183.59 182.222 182.98 183.053 182.352C183.876 181.724 184.689 181.083 185.494 180.429C186.298 179.766 187.09 179.093 187.868 178.413C188.646 177.723 189.415 177.02 190.176 176.304C190.927 175.596 191.666 174.871 192.391 174.128C193.116 173.386 193.832 172.634 194.54 171.874C195.238 171.104 195.923 170.322 196.595 169.526C197.268 168.739 197.926 167.939 198.572 167.125C199.208 166.312 199.836 165.485 200.455 164.645C201.065 163.805 201.662 162.956 202.246 162.098C202.829 161.241 203.395 160.37 203.944 159.485C204.492 158.61 205.027 157.721 205.548 156.819C206.061 155.917 206.561 155.007 207.047 154.087C207.366 153.495 207.675 152.893 207.976 152.283C208.276 151.673 208.568 151.063 208.851 150.453C209.134 149.843 209.413 149.224 209.687 148.596C209.952 147.977 210.213 147.354 210.469 146.726C210.726 146.098 210.973 145.47 211.212 144.842C211.451 144.206 211.681 143.569 211.902 142.932C212.132 142.296 212.348 141.655 212.552 141.009C212.764 140.364 212.967 139.718 213.162 139.073C213.347 138.427 213.529 137.777 213.706 137.123C213.882 136.469 214.05 135.81 214.21 135.147C214.378 134.492 214.532 133.834 214.674 133.17C214.815 132.516 214.952 131.853 215.085 131.181C215.209 130.518 215.328 129.854 215.443 129.191C215.549 128.519 215.651 127.852 215.748 127.188C215.845 126.516 215.934 125.844 216.013 125.172C216.093 124.5 216.164 123.828 216.226 123.156C216.288 122.475 216.341 121.799 216.385 121.127C216.438 120.455 216.478 119.778 216.504 119.098C216.531 118.426 216.553 117.749 216.571 117.068C216.579 116.396 216.584 115.72 216.584 115.039C216.575 114.367 216.562 113.69 216.544 113.01C216.526 112.338 216.5 111.661 216.464 110.98C216.429 110.308 216.385 109.636 216.332 108.964C216.279 108.283 216.217 107.607 216.146 106.935C216.075 106.263 215.996 105.591 215.907 104.919C215.828 104.247 215.735 103.579 215.629 102.916C215.523 102.244 215.412 101.576 215.297 100.913C215.182 100.241 215.054 99.5779 214.913 98.9236C214.78 98.2604 214.638 97.5972 214.488 96.9341C214.338 96.2709 214.179 95.6121 214.011 94.9578C213.843 94.3034 213.666 93.6491 213.48 92.9948C213.303 92.3493 213.113 91.7038 212.91 91.0583C208.466 76.8529 201.118 65.3931 190.454 55.1005Z" fill="url(#paint3_linear_40_5650)"/>
<path d="M163.285 67.1179C165.394 67.0516 167.556 67.1975 169.665 67.3699L168.763 67.8209C158.112 73.1927 158.219 91.6689 154.359 101.683C153.152 104.826 151.348 107.837 148.947 110.238C145.035 114.151 139.769 115.756 134.318 115.782C134.079 114.642 133.959 113.541 133.933 112.387C133.681 100.728 139.437 88.4591 147.369 80.1163C148.881 78.5644 150.539 77.2911 152.25 75.9913C149.358 77.5829 146.281 79.1613 143.668 81.1774C135.524 87.4378 130.75 97.359 127.805 106.975C126.797 104.734 126.386 102.267 126.24 99.8393C125.869 93.0483 129.105 85.9921 133.561 81.0182C141.029 72.6886 152.157 67.7413 163.285 67.1179Z" fill="#F3AB44"/>
<path d="M131.614 0.958918C135.196 0.587536 138.989 0.786492 142.57 1.0385C159.349 2.19244 176.499 7.21936 191.022 15.7479C193.025 16.9151 195.253 18.0823 197.057 19.528C196.991 19.5413 196.925 19.5545 196.858 19.5413C196.195 19.4882 195.214 18.6924 194.67 18.2812L194.458 18.4271L194.272 18.069C194.391 21.1462 194.431 21.5176 192.243 23.8652C190.479 25.7487 188.449 27.5791 186.274 28.9717C187.096 29.2901 188.356 29.9135 188.9 30.6032L188.874 30.7756C187.733 30.2848 186.579 29.4094 185.518 28.7728C183.21 27.3934 180.889 26.0537 178.448 24.9396C160.503 16.6631 142.225 13.2543 122.516 15.3234L122.555 15.098C124.545 14.7664 126.561 14.6205 128.577 14.5011L128.153 14.3552L128.166 14.0899C128.352 13.8114 128.511 13.6124 128.776 13.4135C129.598 12.7901 129.877 11.9147 130.593 11.3311C133.909 8.63857 138.989 5.30939 140.713 1.30377C140.395 0.919128 133.127 1.43641 131.92 1.06503C131.813 1.0385 131.721 0.998709 131.614 0.958918Z" fill="url(#paint4_linear_40_5650)"/>
<path d="M112.371 64.4783C114.016 62.8734 116.072 61.4807 118.128 60.4727C113.18 70.8448 113.406 80.9915 117.186 91.6953C118.68 95.8512 120.356 99.9364 122.213 103.951C124.932 109.707 132.121 120.159 128.977 126.579C128.712 127.122 128.221 128.091 127.757 128.489C127.633 128.683 127.501 128.873 127.359 129.059C127.218 129.236 127.063 129.408 126.895 129.576C126.727 129.735 126.55 129.881 126.365 130.014C126.179 130.147 125.984 130.27 125.781 130.385C124.614 130.995 123.261 130.982 122.014 130.598C118.34 129.483 114.494 125.385 112.796 122.069C111.523 120.385 110.541 118.17 109.719 116.233C108.512 113.408 107.424 110.424 106.761 107.426C105.05 99.6269 105.169 89.7853 106.708 81.9995C107.172 79.6254 109.44 73.3517 109.467 71.8131C109.467 71.7246 109.467 71.6318 109.467 71.5345C110.117 70.0755 112.119 65.7649 112.371 64.4783Z" fill="url(#paint5_linear_40_5650)"/>
<path d="M112.797 122.069L113.009 122.016C113.951 123.355 114.959 125 116.232 126.061C116.842 125.584 117.187 125.53 117.956 125.623C119.787 125.862 122.254 126.91 123.66 128.13C123.819 128.276 123.991 128.409 124.164 128.555C124.137 129.231 124.031 129.868 124.403 130.465C124.708 130.557 124.8 130.61 125.106 130.465C125.915 130.067 126.684 129.205 127.387 128.634C127.546 128.502 127.506 128.541 127.758 128.488C127.634 128.683 127.502 128.873 127.36 129.059C127.219 129.235 127.064 129.408 126.896 129.576C126.728 129.735 126.551 129.881 126.366 130.014C126.18 130.146 125.985 130.27 125.782 130.385C124.615 130.995 123.262 130.982 122.015 130.597C118.341 129.483 114.495 125.385 112.797 122.069Z" fill="#60AD58"/>
<path d="M175.45 94.8262C175.848 96.241 176.188 97.669 176.471 99.1103C176.113 99.7602 176.405 101.14 176.391 101.909C176.338 105.384 175.688 110.212 174.163 113.382C172.863 115 172.213 117.653 171.285 119.55C169.906 122.361 163.831 131.779 161.43 133.437C156.363 139.445 148.975 144.246 141.627 146.846C137.728 148.239 132.343 149.605 128.231 148.411C126.374 147.867 124.597 146.886 122.859 146.064C123.019 144.525 123.297 143.04 123.907 141.607C127.236 133.728 138.285 131.023 145.474 127.999C148.074 126.898 150.474 125.333 153.061 124.271C154.599 123.104 156.416 122.242 157.995 121.088C164.547 116.327 171.63 107.493 174.296 99.8531C174.866 98.2084 175.171 96.5372 175.45 94.8262Z" fill="#60AD58"/>
<path d="M175.452 94.8262C175.849 96.241 176.19 97.669 176.473 99.1103C176.115 99.7602 176.407 101.14 176.393 101.909C176.34 105.384 175.69 110.212 174.165 113.382C172.865 115 172.215 117.653 171.287 119.55C169.907 122.361 163.833 131.779 161.432 133.437C161.326 132.362 165.809 128.529 166.154 126.964C166.936 123.409 164.124 122.945 162.042 121.101C161.485 120.611 161.06 119.961 160.649 119.351C159.323 120.664 154.933 124.126 153.062 124.271C154.601 123.104 156.418 122.242 157.997 121.088C164.549 116.327 171.632 107.493 174.298 99.8531C174.868 98.2084 175.173 96.5372 175.452 94.8262Z" fill="#8DC150"/>
<path d="M186.273 28.9711C188.449 27.5784 190.478 25.748 192.242 23.8646C194.431 21.5169 194.391 21.1455 194.271 18.0684L194.457 18.4265L194.669 18.2806C195.213 18.6918 196.195 19.4876 196.858 19.5406C196.924 19.5539 196.99 19.5406 197.057 19.5274C200.306 21.4373 203.33 23.9442 206.222 26.3449C207.672 27.5386 209.096 28.7633 210.493 30.0189C211.89 31.2834 213.256 32.5788 214.591 33.9052C215.918 35.2315 217.218 36.5888 218.491 37.9771C219.755 39.3654 220.989 40.7846 222.191 42.2347C223.385 43.6849 224.548 45.1616 225.68 46.6648C226.812 48.168 227.904 49.6977 228.956 51.254C230.008 52.8103 231.025 54.3886 232.006 55.9891C232.988 57.5896 233.93 59.2166 234.832 60.8701C236.529 63.9075 238.346 67.1306 239.487 70.42C239.301 70.2741 239.156 70.1414 239.023 69.9425C238.094 68.4304 237.484 66.6 236.715 64.9951C236.145 63.7749 235.415 62.6209 234.765 61.4272C233.956 60.963 232.656 60.0743 231.701 60.2998C230.547 60.5651 229.911 61.467 228.916 61.9312C228.346 62.1965 227.789 62.17 227.205 62.3159C225.985 62.6342 224.3 64.2656 223.73 65.3002C223.306 66.0828 223.252 66.7857 223.544 67.6213C224.459 70.2873 227.603 74.6776 227.775 77.2905C227.006 76.0172 226.462 74.4919 225.826 73.139C224.685 70.672 223.504 68.2447 222.152 65.8838C213.795 51.2938 202.734 40.1789 188.873 30.7749L188.9 30.6025C188.356 29.9128 187.096 29.2894 186.273 28.9711Z" fill="#F3AB44"/>
<path d="M112.366 64.4785C112.114 65.7651 110.112 70.0758 109.462 71.5348C108.427 73.6039 107.379 75.6863 106.477 77.8217C100.323 92.4913 99.1957 109.588 106.411 124.138C107.313 125.969 108.414 127.706 109.435 129.47C112.101 134.06 114.727 138.516 116.743 143.45C114.051 142.774 111.411 141.739 108.732 140.983C106.504 140.347 104.236 140.002 101.981 139.484C94.5534 130.943 90.7467 118.143 91.2375 106.949C91.9404 91.1384 100.867 75.0762 112.366 64.4785Z" fill="#1F906D"/>
<path d="M174.165 113.381C175.691 110.211 176.341 105.383 176.394 101.908C176.407 101.139 176.115 99.7593 176.473 99.1094C180.015 114.203 178.489 131.791 170.226 145.108C164.868 153.756 156.989 162.006 147.187 165.375C144.561 161.966 141.51 158.69 138.102 156.05C141.802 154.074 145.622 152.509 149.203 150.307C149.548 150.095 149.893 149.883 150.238 149.67C150.574 149.449 150.91 149.224 151.246 148.994C151.582 148.773 151.913 148.543 152.241 148.304C152.577 148.074 152.904 147.836 153.222 147.588C153.549 147.349 153.872 147.106 154.19 146.858C154.509 146.611 154.827 146.359 155.145 146.102C155.455 145.846 155.764 145.585 156.074 145.32C156.383 145.063 156.688 144.798 156.989 144.524C157.29 144.259 157.586 143.989 157.878 143.715C158.178 143.432 158.475 143.149 158.766 142.866C159.049 142.583 159.332 142.3 159.615 142.017C159.898 141.725 160.181 141.434 160.464 141.142C160.738 140.841 161.008 140.541 161.273 140.24C161.547 139.939 161.817 139.634 162.082 139.325C162.339 139.024 162.595 138.715 162.852 138.396C163.108 138.087 163.36 137.773 163.608 137.455C163.855 137.136 164.103 136.813 164.35 136.486C164.589 136.159 164.828 135.832 165.067 135.505C165.296 135.178 165.526 134.846 165.756 134.51C165.977 134.174 166.198 133.834 166.419 133.489C166.641 133.153 166.857 132.812 167.069 132.467C167.282 132.123 167.489 131.773 167.693 131.42C167.896 131.075 168.095 130.725 168.29 130.372C168.484 130.018 168.679 129.66 168.873 129.297C169.059 128.944 169.24 128.586 169.417 128.223C169.603 127.861 169.78 127.498 169.948 127.135C170.116 126.764 170.284 126.393 170.452 126.021C170.611 125.65 170.77 125.279 170.929 124.907C171.079 124.536 171.23 124.16 171.38 123.78C171.53 123.408 171.672 123.033 171.804 122.652C171.946 122.272 172.083 121.887 172.216 121.498C172.339 121.118 172.463 120.734 172.587 120.344C173.277 118.076 173.728 115.715 174.165 113.381Z" fill="#1F906D"/>
<path d="M138.789 195.828C139.584 196.491 140.287 201.863 140.394 203.11C140.579 205.055 140.672 207.009 140.672 208.972C140.672 210.087 140.301 213.071 140.526 213.96C141.362 213.933 142.091 212.965 142.927 212.766C143.975 212.527 145.182 212.898 146.269 212.792C146.588 213.389 147.33 214.464 148.02 214.676C148.193 214.729 148.312 214.689 148.498 214.649C148.829 215.498 148.736 216.665 149.24 217.382L149.148 217.368L149.227 217.13L149.545 217.076C150.315 213.455 151.058 207.726 150.925 204.078C150.885 203.044 150.381 200.245 150.912 199.489C151.177 202.018 151.248 204.551 151.124 207.089C150.421 221.493 143.988 236.813 133.191 246.535C123.867 254.944 113.057 257.292 100.828 256.655C102.818 256.31 104.834 256.085 106.81 255.647C117.567 253.286 126.308 246.283 132.157 237.091C140.301 224.292 142.025 210.484 138.789 195.828Z" fill="#16568F"/>
<defs>
<linearGradient id="paint0_linear_40_5650" x1="6.47859" y1="-73.5555" x2="-122.955" y2="22.2605" gradientUnits="userSpaceOnUse">
<stop stop-color="#147386"/>
<stop offset="1" stop-color="#12A5E7"/>
</linearGradient>
<linearGradient id="paint1_linear_40_5650" x1="136.004" y1="249.541" x2="112.666" y2="116.912" gradientUnits="userSpaceOnUse">
<stop stop-color="#154782"/>
<stop offset="1" stop-color="#15AADF"/>
</linearGradient>
<linearGradient id="paint2_linear_40_5650" x1="38.203" y1="199.737" x2="71.3522" y2="291.663" gradientUnits="userSpaceOnUse">
<stop stop-color="#7B8657"/>
<stop offset="1" stop-color="#006085"/>
</linearGradient>
<linearGradient id="paint3_linear_40_5650" x1="-11.7891" y1="170.545" x2="79.7355" y2="302.622" gradientUnits="userSpaceOnUse">
<stop stop-color="#64A461"/>
<stop offset="1" stop-color="#0A8971"/>
</linearGradient>
<linearGradient id="paint4_linear_40_5650" x1="198.164" y1="26.0175" x2="143.834" y2="-16.4229" gradientUnits="userSpaceOnUse">
<stop stop-color="#D7B84E"/>
<stop offset="1" stop-color="#3D9E6B"/>
</linearGradient>
<linearGradient id="paint5_linear_40_5650" x1="5.58858" y1="80.649" x2="19.5774" y2="151.951" gradientUnits="userSpaceOnUse">
<stop stop-color="#C9D551"/>
<stop offset="1" stop-color="#58A359"/>
</linearGradient>
</defs>
</svg>
