<svg width="238" height="257" viewBox="0 0 238 257" fill="none" xmlns="http://www.w3.org/2000/svg">
<path d="M126.899 137.175C139.928 117.496 149.689 94.8485 147.176 71.0701C147.021 126.64 95.3688 158.909 74.2008 196.354C68.2013 174.115 73.5969 147.085 85.541 131.08C83.28 139.443 84.7449 149.608 84.7449 149.608C84.7499 149.538 84.7549 149.473 84.7574 149.403C85.9728 119.892 111.668 101.487 125.499 75.0756C137.82 51.5517 141.051 29.7598 134.743 12.6497C129.572 11.9659 124.296 11.6016 118.938 11.6016C53.3223 11.6016 0.132812 64.7961 0.132812 130.409C0.132812 177.891 27.9916 218.862 68.2537 237.881C73.2475 188.887 102.257 174.377 126.899 137.175Z" fill="#003F61"/>
<path d="M161.722 19.5433C146.975 3.84827 129.433 0.179688 129.433 0.179688C168.026 24.1827 188.951 82.94 162.538 129.905C154.317 144.522 141.514 157.185 123.478 163.402C134.786 163.235 142.495 157.946 142.495 157.946C129.79 179.162 105.053 181.336 88.1601 201.722C77.0446 215.131 70.5434 236.402 76.2235 256.18C76.221 256.142 76.1137 249.262 78.0778 241.997C90.818 246.661 104.579 249.209 118.939 249.209C184.552 249.209 237.741 196.022 237.741 130.41C237.741 79.8754 206.194 36.7183 161.722 19.5433Z" fill="#007EB2"/>
</svg>
