<svg width="257" height="233" viewBox="0 0 257 233" fill="none" xmlns="http://www.w3.org/2000/svg">
<path fill-rule="evenodd" clip-rule="evenodd" d="M128.531 32.7557C128.531 32.7557 135.307 35.2944 140.858 46.5269C145.788 56.506 149.752 73.3433 147.143 101.358L157.36 117.123V143.982L143.349 125.443C143.349 125.443 147.873 116.977 145.465 108.512C145.465 108.512 142.837 126.829 137.656 129.093H130.872V97.5638H126.193V129.093H119.406C114.226 126.829 111.598 108.512 111.598 108.512C109.19 116.977 113.714 125.443 113.714 125.443L99.703 143.982V117.123L109.92 101.358C107.39 74.1836 111.044 57.5246 115.766 47.4421C121.391 35.4299 128.531 32.7557 128.531 32.7557ZM128.531 76.9116C123.977 76.9099 120.284 73.2188 120.284 68.6646C120.287 64.1095 123.977 60.4167 128.531 60.4167C133.085 60.4167 136.778 64.1095 136.778 68.6646C136.778 73.2188 133.085 76.9099 128.531 76.9116ZM248.471 152.092L174.29 25.2009C164.581 10.2151 147.714 0.300781 128.531 0.300781C109.349 0.300781 92.4798 10.2151 82.7721 25.2009L8.59209 152.092C-13.1499 189.213 12.525 225.289 44.7788 232.852C46.524 225.235 53.7472 220.209 61.4767 221.131C52.3855 207.778 68.0161 190.955 82.0386 199.536C80.8418 186.482 95.5876 178.111 106.142 185.733C121.129 173.905 121.365 151.475 119.406 134.297H137.656C135.697 151.486 135.774 173.778 150.921 185.733C161.341 178.211 176.232 186.361 175.024 199.536C189.046 190.955 204.678 207.778 195.585 221.131C203.315 220.209 210.539 225.235 212.283 232.852C244.537 225.289 270.212 189.213 248.471 152.092Z" fill="url(#paint0_linear_37_24845)"/>
<defs>
<linearGradient id="paint0_linear_37_24845" x1="128.531" y1="232.852" x2="128.531" y2="0.301172" gradientUnits="userSpaceOnUse">
<stop stop-color="#F36F21"/>
<stop offset="0.0078125" stop-color="#F36F21"/>
<stop offset="0.015625" stop-color="#F37021"/>
<stop offset="0.0234375" stop-color="#F37021"/>
<stop offset="0.03125" stop-color="#F37121"/>
<stop offset="0.0390625" stop-color="#F47221"/>
<stop offset="0.046875" stop-color="#F47221"/>
<stop offset="0.0546875" stop-color="#F47321"/>
<stop offset="0.0625" stop-color="#F47421"/>
<stop offset="0.0703125" stop-color="#F47421"/>
<stop offset="0.078125" stop-color="#F47521"/>
<stop offset="0.0859375" stop-color="#F47621"/>
<stop offset="0.09375" stop-color="#F47721"/>
<stop offset="0.101562" stop-color="#F47721"/>
<stop offset="0.109375" stop-color="#F47821"/>
<stop offset="0.117188" stop-color="#F47921"/>
<stop offset="0.125" stop-color="#F57921"/>
<stop offset="0.132812" stop-color="#F57A21"/>
<stop offset="0.140625" stop-color="#F57B22"/>
<stop offset="0.148438" stop-color="#F57B22"/>
<stop offset="0.15625" stop-color="#F57C22"/>
<stop offset="0.164062" stop-color="#F57D22"/>
<stop offset="0.171875" stop-color="#F57D22"/>
<stop offset="0.179688" stop-color="#F57E22"/>
<stop offset="0.1875" stop-color="#F57F22"/>
<stop offset="0.195312" stop-color="#F57F22"/>
<stop offset="0.203125" stop-color="#F58022"/>
<stop offset="0.210938" stop-color="#F68122"/>
<stop offset="0.21875" stop-color="#F68122"/>
<stop offset="0.226562" stop-color="#F68222"/>
<stop offset="0.234375" stop-color="#F68322"/>
<stop offset="0.242188" stop-color="#F68322"/>
<stop offset="0.25" stop-color="#F68422"/>
<stop offset="0.257812" stop-color="#F68522"/>
<stop offset="0.265625" stop-color="#F68522"/>
<stop offset="0.273438" stop-color="#F68622"/>
<stop offset="0.28125" stop-color="#F68622"/>
<stop offset="0.289062" stop-color="#F68722"/>
<stop offset="0.296875" stop-color="#F78822"/>
<stop offset="0.304688" stop-color="#F78822"/>
<stop offset="0.3125" stop-color="#F78922"/>
<stop offset="0.320312" stop-color="#F78A22"/>
<stop offset="0.328125" stop-color="#F78A22"/>
<stop offset="0.335938" stop-color="#F78B22"/>
<stop offset="0.34375" stop-color="#F78C22"/>
<stop offset="0.351562" stop-color="#F78C22"/>
<stop offset="0.359375" stop-color="#F78D22"/>
<stop offset="0.367188" stop-color="#F78D22"/>
<stop offset="0.375" stop-color="#F78E22"/>
<stop offset="0.382812" stop-color="#F78F22"/>
<stop offset="0.390625" stop-color="#F88F22"/>
<stop offset="0.398438" stop-color="#F89022"/>
<stop offset="0.40625" stop-color="#F89122"/>
<stop offset="0.414062" stop-color="#F89122"/>
<stop offset="0.421875" stop-color="#F89222"/>
<stop offset="0.429687" stop-color="#F89222"/>
<stop offset="0.4375" stop-color="#F89323"/>
<stop offset="0.445312" stop-color="#F89423"/>
<stop offset="0.453125" stop-color="#F89423"/>
<stop offset="0.460938" stop-color="#F89523"/>
<stop offset="0.46875" stop-color="#F89523"/>
<stop offset="0.476562" stop-color="#F89623"/>
<stop offset="0.484375" stop-color="#F99723"/>
<stop offset="0.492188" stop-color="#F99723"/>
<stop offset="0.5" stop-color="#F99823"/>
<stop offset="0.507813" stop-color="#F99823"/>
<stop offset="0.515625" stop-color="#F99923"/>
<stop offset="0.523438" stop-color="#F99A23"/>
<stop offset="0.53125" stop-color="#F99A23"/>
<stop offset="0.539062" stop-color="#F99B23"/>
<stop offset="0.546875" stop-color="#F99B23"/>
<stop offset="0.554688" stop-color="#F99C23"/>
<stop offset="0.5625" stop-color="#F99D23"/>
<stop offset="0.570312" stop-color="#F99D23"/>
<stop offset="0.578125" stop-color="#FA9E23"/>
<stop offset="0.585938" stop-color="#FA9E23"/>
<stop offset="0.59375" stop-color="#FA9F23"/>
<stop offset="0.601563" stop-color="#FA9F23"/>
<stop offset="0.609375" stop-color="#FAA023"/>
<stop offset="0.617188" stop-color="#FAA123"/>
<stop offset="0.625" stop-color="#FAA123"/>
<stop offset="0.632812" stop-color="#FAA223"/>
<stop offset="0.640625" stop-color="#FAA223"/>
<stop offset="0.648437" stop-color="#FAA323"/>
<stop offset="0.65625" stop-color="#FAA323"/>
<stop offset="0.664063" stop-color="#FAA423"/>
<stop offset="0.671875" stop-color="#FAA423"/>
<stop offset="0.679688" stop-color="#FBA523"/>
<stop offset="0.6875" stop-color="#FBA523"/>
<stop offset="0.695312" stop-color="#FBA623"/>
<stop offset="0.703125" stop-color="#FBA723"/>
<stop offset="0.710937" stop-color="#FBA723"/>
<stop offset="0.71875" stop-color="#FBA823"/>
<stop offset="0.726562" stop-color="#FBA823"/>
<stop offset="0.734375" stop-color="#FBA923"/>
<stop offset="0.742188" stop-color="#FBA923"/>
<stop offset="0.75" stop-color="#FBAA23"/>
<stop offset="0.757812" stop-color="#FBAA23"/>
<stop offset="0.765625" stop-color="#FBAB23"/>
<stop offset="0.78125" stop-color="#FBAB24"/>
<stop offset="0.796875" stop-color="#FCAC24"/>
<stop offset="0.8125" stop-color="#FCAD24"/>
<stop offset="0.828125" stop-color="#FCAE24"/>
<stop offset="0.84375" stop-color="#FCAF24"/>
<stop offset="0.859375" stop-color="#FCB024"/>
<stop offset="0.875" stop-color="#FCB124"/>
<stop offset="0.890625" stop-color="#FCB224"/>
<stop offset="0.90625" stop-color="#FCB324"/>
<stop offset="0.921875" stop-color="#FDB324"/>
<stop offset="0.9375" stop-color="#FDB424"/>
<stop offset="0.953125" stop-color="#FDB524"/>
<stop offset="0.96875" stop-color="#FDB624"/>
<stop offset="0.984375" stop-color="#FDB624"/>
<stop offset="1" stop-color="#FDB724"/>
</linearGradient>
</defs>
</svg>
