<svg width="257" height="89" viewBox="0 0 257 89" fill="none" xmlns="http://www.w3.org/2000/svg">
<path d="M199.583 24.2146C194.451 29.2969 186.727 35.9748 177.891 40.3586C183.796 35.6492 188.676 30.1013 192.132 25.6437C179.363 27.8867 165.544 29.3309 151.096 29.7966C135.983 30.2754 121.488 29.6451 108.104 28.0703C103.226 30.7846 90.0936 37.5496 80.1127 37.6613C89.6412 33.7015 95.9084 28.9183 98.4789 26.7472C87.9566 25.0815 78.2653 22.8139 69.6813 20.0371C61.3017 27.4419 50.2741 35.5129 39.1896 35.7325C87.1427 59.7128 154.194 62.6599 183.893 51.248C141.217 69.6956 58.8505 61.8063 0.933594 22.441C0.933594 22.441 1.8308 29.6981 8.05443 34.7104C8.05443 34.7104 23.7366 42.2684 38.5858 47.2788C45.7294 66.0557 60.4992 82.6482 80.584 83.0836C73.3629 79.7352 65.1025 73.945 59.8953 67.9258C61.7181 69.3076 63.5599 70.5966 65.3997 71.8023C84.3791 84.2363 106.989 89.7464 129.622 88.1621C199.272 83.2729 242.285 41.2406 256.934 0.90625C244.725 10.7963 224.456 19.0623 199.583 24.2146Z" fill="#231F20"/>
</svg>
