<svg width="257" height="199" viewBox="0 0 257 199" fill="none" xmlns="http://www.w3.org/2000/svg">
<path d="M206.552 66.7114L128.839 145.595L51.0481 66.7114L77.4205 36.7498H180.179L206.552 66.7114Z" fill="url(#paint0_linear_1_505)"/>
<path fill-rule="evenodd" clip-rule="evenodd" d="M256.8 68.1158L128.839 198.027L0.799988 68.1158L60.8012 0H196.799L256.8 68.1158ZM128.839 178.131L237.84 67.5696L190.557 13.8884H67.1212L19.8381 67.5696L128.839 178.131Z" fill="url(#paint1_linear_1_505)"/>
<path d="M77.4205 36.7498L128.839 145.595L51.0481 66.7114L77.4205 36.7498Z" fill="url(#paint2_linear_1_505)"/>
<path d="M180.179 36.7498L206.552 66.7114L128.839 145.595L180.179 36.7498Z" fill="url(#paint3_linear_1_505)"/>
<defs>
<linearGradient id="paint0_linear_1_505" x1="204.593" y1="250.332" x2="49.1382" y2="107.368" gradientUnits="userSpaceOnUse">
<stop stop-color="#731CB7"/>
<stop offset="1" stop-color="#C61D99"/>
</linearGradient>
<linearGradient id="paint1_linear_1_505" x1="168.839" y1="305.25" x2="7.44307" y2="156.823" gradientUnits="userSpaceOnUse">
<stop stop-color="#731CB7"/>
<stop offset="1" stop-color="#C61D99"/>
</linearGradient>
<linearGradient id="paint2_linear_1_505" x1="137.684" y1="-3.56497" x2="242.384" y2="144.92" gradientUnits="userSpaceOnUse">
<stop stop-color="#F29B75"/>
<stop offset="1" stop-color="#C61D99"/>
</linearGradient>
<linearGradient id="paint3_linear_1_505" x1="215.446" y1="-3.56497" x2="320.146" y2="144.919" gradientUnits="userSpaceOnUse">
<stop stop-color="#F29B75"/>
<stop offset="1" stop-color="#C61D99"/>
</linearGradient>
</defs>
</svg>
