<svg width="257" height="257" viewBox="0 0 257 257" fill="none" xmlns="http://www.w3.org/2000/svg">
<path d="M85.4352 156.002C89.0823 143.398 98.8723 133.483 111.508 129.941C148.866 119.471 198.61 92.9373 222.48 41.575C199.263 16.7232 166.263 1.12994 129.614 0.939315C58.7555 0.566904 1.21616 57.5558 0.934644 128.416C0.901821 136.605 1.63907 144.617 3.07569 152.379C11.1008 195.728 72.2708 199.262 85.112 157.094C85.2219 156.729 85.3304 156.367 85.4352 156.002Z" fill="#ED1C24"/>
<path d="M234.725 56.8635C236.602 35.0592 231.615 15.6875 231.615 15.6875C231.783 17.1355 231.777 18.8258 231.638 20.6904C230.774 115.281 155.11 153.885 128.322 159.714C161.938 159.544 207.07 129.104 220.456 99.1554C218.552 134.262 188.329 192.078 107.315 192.178C146.73 199.666 185.989 184.222 206.291 158.587C199.876 185.433 150.514 236.734 67.9806 218.533C94.7917 231.735 136.943 228.781 158.781 218.478C133.79 241.821 60.6549 247.338 20.4648 214.19C20.4661 214.19 35.0027 235.749 68.3291 241.705C86.3689 251.42 107.007 256.936 128.932 256.936C199.623 256.936 256.933 199.627 256.933 128.936C256.933 102.205 248.737 77.3928 234.725 56.8635Z" fill="#BF1B2C"/>
</svg>
