<svg width="209" height="257" viewBox="0 0 209 257" fill="none" xmlns="http://www.w3.org/2000/svg">
<path d="M81.8785 128.87C71.8779 128.87 65.0883 118.736 68.8343 109.504L109.004 10.7365L104.254 8.02734L0.101562 68.1643C0.101562 68.1643 11.6741 128.703 84.7883 170.946L94.7219 148.67C98.9028 139.372 92.0797 128.87 81.8785 128.87Z" fill="#1A1A1A"/>
<path d="M0.101562 68.1641C0.101562 125.425 23.5811 179.307 63.7839 218.072L84.7883 170.945C11.6741 128.702 0.101562 68.1641 0.101562 68.1641Z" fill="#050505"/>
<path d="M88.3672 113.919L131.246 23.5796L128.369 21.9407L130.878 0.300781L88.3672 113.919Z" fill="#1A1A1A"/>
<path d="M102.248 180.109L46.7266 256.301L74.7214 227.938C83.8523 235.564 93.719 242.487 104.255 248.575C126.329 235.831 145.528 219.376 161.181 200.278C138.571 194.993 119.072 188.036 102.248 180.109Z" fill="#CE362E"/>
<path d="M208.439 68.1639L153.62 36.5234L161.781 0.300781L123.083 91.3089C120.608 97.1287 124.856 103.584 131.177 103.584L93.9844 175.996C94.2965 176.152 94.6087 176.319 94.9209 176.497L140.609 103.584H158.001L102.246 180.11C119.069 188.036 138.569 194.993 161.179 200.278C191.247 163.587 208.439 117.096 208.439 68.1639Z" fill="#EE4036"/>
<path d="M88.3672 187L94.9227 176.498C94.6106 176.319 94.2984 176.152 93.9862 175.996L88.3672 187Z" fill="#CE362E"/>
</svg>
