<svg width="206" height="257" viewBox="0 0 206 257" fill="none" xmlns="http://www.w3.org/2000/svg">
<path d="M205.811 154.036C205.811 207.107 165.543 250.804 113.858 256.202L132.204 232.494C139.718 237.564 153.214 232.056 163.901 219.034C167.293 214.949 169.993 210.536 171.999 206.159C172.692 204.663 172.436 202.803 171.379 201.599C170.722 200.87 169.92 200.505 169.081 200.505C168.242 200.505 167.403 200.906 166.746 201.672L148.873 223.448C147.852 224.724 146.101 224.724 145.007 223.521C143.949 222.281 143.913 220.238 144.971 218.961L162.515 197.551C163.938 195.836 163.901 193.064 162.406 191.386C160.947 189.745 158.612 189.745 157.19 191.496L139.609 212.907C138.588 214.183 136.873 214.22 135.779 212.979C134.685 211.739 134.648 209.697 135.706 208.42L153.579 186.645C154.819 185.113 154.782 182.705 153.469 181.21C152.849 180.48 152.01 180.115 151.171 180.115C150.624 180.115 150.077 180.261 149.567 180.626C145.919 183.143 142.272 186.499 138.916 190.584C128.229 203.605 124.034 219.654 128.557 228.372L103.863 256.749H103.499C70.9629 256.859 41.7464 241.612 22.7795 217.831L67.9355 159.434C75.1211 164.905 86.4648 162.024 94.5622 152.139C103.499 141.306 105.103 126.133 98.2097 118.254C91.316 110.412 78.5132 112.819 69.5769 123.689C61.4794 133.573 59.4003 147.033 64.288 155.276L16.907 209.697C6.62105 193.903 0.566202 175.155 0.383827 155.021C0.274402 146.85 1.18626 138.862 2.90059 131.203C3.70304 127.774 8.15299 126.716 10.2685 129.561C18.9496 141.087 33.3572 142.692 43.4243 137.367C64.6528 126.132 48.7861 98.0467 51.4853 65.2193C51.7771 61.5718 52.2877 57.8513 53.1267 54.0944C58.9262 27.9053 82.5255 6.16625 102.514 0.877377C104.958 0.257302 107.401 1.97162 107.693 4.4884C110.867 30.6045 124.435 42.8601 137.129 57.0853C144.351 65.1828 151.317 73.9003 155.913 86.1924C161.494 101.001 158.722 117.707 148.946 130.145L137.384 144.881C123.925 161.258 118.818 149.404 114.076 155.167C98.3556 174.352 80.6653 201.928 79.2792 218.998C79.0604 221.697 79.2063 224.177 79.8993 226.256L80.0087 226.402L172.254 118.983C176.996 113.111 179.804 104.977 181.373 98.7762C182.248 95.2746 186.88 94.4722 188.887 97.4996C189.154 97.913 189.409 98.3142 189.653 98.7033C199.902 114.679 205.811 133.646 205.811 154.036Z" fill="#FF494E"/>
</svg>
