<svg width="246" height="257" viewBox="0 0 246 257" fill="none" xmlns="http://www.w3.org/2000/svg">
<path d="M95.7094 82.2685L95.6725 82.4187L95.6381 82.2685H95.7094ZM28.0684 62.9413C30.0186 49.1499 46.1411 42.926 58.5604 45.1069C86.3303 48.6808 104.577 74.6356 107.327 101.134C109.391 110.76 118.944 117.016 127.865 119.662C150.866 126.502 174.765 105.589 172.858 82.1737C179.981 90.67 178.343 103.662 174.607 113.553C188.332 100.769 195.538 77.0742 182.454 61.4971C181.801 60.8485 181.541 59.9657 182.832 60.7133C195.465 69.0889 200.405 85.3146 199.784 99.8687C198.752 123.832 182.615 144.711 162.052 155.945C187.791 149.153 210.198 127.615 212.144 100.178C212.549 91.5125 212.557 82.2215 208.813 74.2429C198.89 54.6337 179.268 35.8411 155.926 37.1795C147.651 37.6075 138.456 45.665 141.11 54.4063C148.031 37.6696 172.611 45.7984 167.329 63.6067C161.623 79.2828 138.686 81.9244 128.031 69.8667C113.037 54.1831 126.644 28.4448 146.604 26.0734C175.255 20.9286 199.047 44.282 210.694 68.1205C207.124 25.9551 153.574 -3.15065 119.238 23.8841C149.818 -10.7407 208.722 7.15825 229.998 43.8071C250.331 74.2513 248.514 113.186 236.08 146.32C223.968 184.017 193.629 216.822 154.357 225.673C156.235 221.76 159.189 218.592 162.22 215.518C151.206 221.324 144.402 231.767 141.355 243.763C140.678 245.206 142.276 245.122 143.213 245.472C148.346 247.051 153.312 250.461 154.931 255.812C155.154 256.51 154.974 256.697 154.21 256.515C141.471 253.539 128.1 253.576 115.344 256.473C114.921 256.585 114.161 256.735 114.33 256.023C116.06 247.977 124.86 244.018 132.44 243.906C132.951 243.876 133.984 244.037 133.844 243.234C131.058 230.959 119.571 221.69 107.681 218.921C107.939 219.331 108.34 219.428 108.702 219.589C111.236 220.732 113.638 222.1 115.885 223.746C117.963 225.406 120.207 227.172 121.604 229.41C121.339 229.767 120.947 229.625 120.614 229.627C116.97 229.632 113.344 229.385 109.726 228.964C108.023 228.764 108.147 228.641 107.817 230.312C107.518 231.825 107.281 233.348 107.028 234.867C106.886 235.717 106.938 235.804 107.668 236.169C108.495 236.581 109.344 236.955 110.134 237.427C112.631 238.998 114.91 241.535 115.194 244.568C114.669 244.929 114.124 244.686 113.599 244.596C110.987 244.145 108.373 243.719 105.73 243.481C98.9938 242.781 92.3042 243.468 85.711 244.939C85.3208 244.65 85.5222 244.281 85.6145 243.947C87.0326 238.858 90.6955 236.287 95.5844 235.148C96.3858 234.74 99.5032 235.121 99.5158 234.223C99.5032 232.128 99.2598 230.039 99.1331 227.949C99.0433 226.759 98.9569 226.652 97.7653 226.33C51.0585 215.96 4.93317 169.49 21.1144 118.962C25.1062 106.425 33.8837 95.9482 36.9105 83.0313C37.2755 87.5551 35.0694 92.303 33.7008 96.5885C29.7954 106.75 25.3462 116.831 23.9759 127.733C19.9698 151.346 42.996 164.964 60.1758 147.166C73.8983 133.295 74.062 104.103 62.6823 88.8289C74.2399 92.5732 79.0113 106 80.2633 117.16C80.3858 117.572 80.3665 119.295 81.0109 118.693C85.3787 101.43 81.7737 84.29 64.7466 75.985C73.4922 77.0163 81.8895 82 85.8662 90.0255C86.2438 90.7279 86.4998 91.5125 86.9118 92.1872C87.0796 92.4314 86.9101 92.9584 87.4942 92.9474C87.7476 79.6587 80.4395 65.0182 66.0465 63.8501C73.8379 62.3396 82.0464 65.9639 87.7912 71.2161C91.157 74.0474 92.9981 77.7984 95.4275 81.3597C91.7545 63.6008 75.7008 49.8951 57.8874 47.8845C47.1682 46.4277 34.6288 50.7007 30.5044 61.4568C29.7526 63.0378 30.0748 63.1343 28.0684 62.9413Z" fill="#1F2A3F"/>
<path d="M44.6742 67.501C52.1242 67.2501 52.12 56.5192 44.4879 56.358C37.5725 56.1004 37.0766 67.585 44.6742 67.501ZM28.0667 62.9386C30.0731 63.1316 29.7509 63.0351 30.5027 61.4542C34.6297 50.6955 47.164 46.4251 57.8857 47.8818C75.6991 49.8924 91.7503 63.5982 95.4258 81.357C92.9964 77.7957 91.1553 74.0422 87.7895 71.2134C82.0473 65.9612 73.8345 62.3369 66.0448 63.8474C80.442 65.018 87.7459 79.6561 87.4925 92.9448C86.9084 92.9557 87.0779 92.4287 86.9101 92.1845C86.4981 91.5098 86.2421 90.7252 85.8645 90.0229C81.8878 81.9973 73.493 77.0136 64.7449 75.9823C81.7804 84.2957 85.3745 101.43 81.0076 118.691C80.3883 119.346 80.3606 117.488 80.2616 117.157C79.0112 106.004 74.2357 92.5663 62.6806 88.8263C74.0603 104.1 73.8966 133.288 60.1741 147.164C55.0352 152.611 47.5877 156.36 39.9809 154.994C27.2242 153.296 21.9183 139.146 23.9742 127.731C25.3445 116.826 29.7937 106.747 33.699 96.5833C35.0702 92.2936 37.2738 87.5608 36.9088 83.0286C37.0271 82.2188 38.5929 73.396 37.1345 75.1465C34.3435 85.802 29.1643 95.7458 23.031 104.852C21.5751 106.934 21.5172 107.112 19.9203 104.826C18.821 103.252 18.0557 101.497 17.4263 99.6923C14.4558 90.5171 12.5971 82.0787 0.75 84.1841C3.70463 72.7709 16.6619 64.3903 28.0667 62.9386Z" fill="#EF2F23"/>
<path d="M7.94115 36.1252C11.1072 37.2463 14.7886 39.7964 19.2201 43.9359C19.6632 43.8797 19.5684 43.5088 19.6002 43.2378C20.6987 36.1101 19.4005 29.1452 18.1401 22.1878C22.7672 22.3464 29.7161 28.7868 32.4769 32.4472C32.7136 32.9482 33.1491 32.9566 33.2951 32.3507C37.0268 20.2737 43.4932 8.07589 53.8886 0.578125C52.8656 8.73714 53.2542 17.2335 57.5422 24.4627C57.663 24.6624 57.7553 24.9066 58.1934 24.9461C65.2632 17.1261 74.2362 10.7914 84.5258 7.94498C84.4763 8.51812 84.0961 8.73126 83.8427 9.01489C80.1286 13.2232 76.5564 18.7439 77.7144 24.6104C77.9267 25.5838 78.2515 26.5035 78.7365 27.3729C79.2182 28.2322 79.3105 28.2691 80.1412 27.8545C88.3909 23.3517 98.3029 21.8135 107.542 23.4524C108.025 23.5539 107.585 24.1271 107.301 24.1917C101.138 27.1413 95.6453 31.0785 90.5005 35.5386C85.0183 40.4921 78.4764 45.1947 70.6891 44.3203C59.1769 42.7007 46.5712 39.1301 35.8436 45.5899C30.3413 48.8793 26.7716 53.9528 25.2418 60.1247C25.147 61.2265 24.4597 61.6822 23.4972 61.9725C20.0752 63.1171 17.1155 60.3547 15.0219 57.9614C10.1657 51.9464 7.83206 43.7127 7.94115 36.1252Z" fill="#EF2F23"/>
<path d="M234.797 191.093C234.971 183.985 245.254 184.221 245.377 191.136C245.055 198.2 234.975 198.105 234.797 191.093Z" fill="#1F2A3F"/>
<path d="M24.2643 234.381C19.0222 234.095 19.6347 226.398 24.5781 226.501C29.7246 226.928 29.3663 234.428 24.2643 234.381Z" fill="#1F2A3F"/>
<path d="M233.686 19.7654C233.527 25.751 224.668 25.3164 224.672 19.6714C224.971 13.2629 233.873 14.2187 233.686 19.7654Z" fill="#1F2A3F"/>
<path d="M42.2314 61.8965C42.5025 65.1851 46.9919 64.6094 46.9575 61.5742C46.7275 58.5516 42.1542 58.9142 42.2314 61.8965ZM44.6758 67.5028C37.0782 67.5867 37.5767 56.1005 44.4895 56.3598C52.1241 56.5209 52.1241 67.2536 44.6758 67.5028Z" fill="#1F2A3F"/>
<path d="M74.399 195.527C81.8884 205.327 105.155 216.579 105.155 216.579C105.155 216.579 81.3404 214.515 47.0999 189.207C44.6169 187.37 42.5627 185.044 40.3633 182.889L43.2181 188.894C43.2181 188.894 23.723 169.579 25.8863 144.024C25.8863 144.024 32.4384 158.322 47.8434 154.689C64.4056 150.784 73.3895 126.651 73.9761 118.906C74.2295 118.947 74.4829 118.986 74.7389 119.027C73.8712 130.831 74.5585 143.288 80.2386 153.936C93.3528 177.458 123.574 184.172 148.566 181.248C177.069 177.886 204.342 160.307 220.005 136.509C220.268 136.835 216.382 146.418 211.159 153.482C198.747 170.264 180.814 180.247 160.979 185.8C132.483 193.907 84.3546 189.497 67.1102 162.564C69.3423 173.776 79.1209 182.208 88.6209 187.787C103.449 196.15 120.79 198.281 137.567 197.718C146.579 197.151 155.538 195.662 164.253 193.28C168.175 192.229 177.872 189.243 177.872 189.243C177.872 189.243 135.211 221.589 74.4083 195.519C74.0575 195.37 73.9954 195.461 74.399 195.527Z" fill="#4B8AA8"/>
<path d="M168.892 58.4184C168.892 66.3718 162.446 72.8182 154.493 72.8182C146.54 72.8182 140.094 66.3718 140.094 58.4184C140.094 50.4658 146.54 44.0195 154.493 44.0195C162.446 44.0195 168.892 50.4658 168.892 58.4184Z" fill="#4B8AA8"/>
</svg>
