<svg width="202" height="256" viewBox="0 0 202 256" fill="none" xmlns="http://www.w3.org/2000/svg">
<path fill-rule="evenodd" clip-rule="evenodd" d="M201.397 70.2433C200.93 71.2661 189.634 96.1145 176.909 124.091H168.757C164.921 132.53 159.762 143.886 154.137 156.22C152.437 159.965 150.692 163.801 148.932 167.681H140.539C140.389 168.022 140.238 168.358 140.088 168.689C138.704 171.727 137.32 174.766 135.937 177.819C135.475 178.842 135.009 179.865 134.538 180.888C134.493 180.978 134.447 181.083 134.402 181.173C131.484 187.611 128.581 193.989 125.814 200.065L120.985 211.527V211.542C120.785 211.542 120.579 211.537 120.369 211.527H117.466C116.172 211.527 114.849 211.527 113.495 211.527H112.171C109.99 211.527 107.764 211.527 105.553 211.527C91.8804 211.512 78.4935 211.512 77.7716 211.512C76.1621 211.512 70.5968 211.181 69.0927 210.625L45.8387 255.087C45.0415 256.741 42.5446 255.974 42.8154 254.169L55.9164 153.994L17.2901 173.232L37.0996 130.77C28.9171 130.77 25.5027 125.159 24.4047 122.738C20.5391 114.164 0.203125 70.2433 0.203125 70.2433H43.2365C47.042 70.2433 50.6218 68.2277 52.5923 64.9938L65.6933 43.4846C57.6462 36.1144 51.6146 27.3152 50.7422 26.0066L38.7542 8.8293L122.384 0.210583L124.355 0L126.265 0.466279C131.68 1.78992 137.29 5.62548 140.329 9.29557C141.246 10.3936 142.209 11.8075 143.036 13.5673C145.804 14.1539 155.34 15.7784 157.611 16.6809C163.583 19.0725 168.005 22.6674 170.712 27.3904C174.518 34.0086 174.623 41.9053 171.028 50.885C170.968 51.0354 170.908 51.1858 170.848 51.3212C170.577 52.0131 170.261 52.705 169.945 53.412L164.094 65.039C164.094 65.039 149.429 51.4114 138.509 52.5997C138.178 52.6298 137.847 52.6298 137.531 52.6599L137.23 52.705L136.914 52.7201C136.884 52.7351 136.854 52.7351 136.824 52.7351C133.575 53.0058 129.529 56.2548 125.739 61.6546C123.482 64.8585 121.798 68.1074 120.805 70.2433H201.397ZM102.424 114.555L85.0365 121.85L108.997 68.6489C108.997 68.6489 118.865 42.5972 136.012 41.2886C136.042 41.2886 136.057 41.2886 136.072 41.2886C136.884 41.1833 137.696 41.1232 138.509 41.1232C142.645 41.1232 153.881 43.3643 157.371 46.2523C158.258 46.9893 158.995 47.7714 159.552 48.5686C166.997 32.5796 150.858 25.3447 133.53 23.7654C133.846 17.7488 129.364 13.0258 123.573 11.612L58.9397 18.2903C58.9397 18.2903 70.4614 34.7907 80.8851 40.5817L62.3992 70.9502C58.323 77.6436 51.058 81.7199 43.2365 81.7199H18.4483C18.7492 82.4719 29.6391 106.448 34.8585 118.015C35.3548 119.113 36.0618 119.293 37.0996 119.293H37.1448C38.1826 119.293 39.2205 119.293 40.2583 119.293C44.1992 119.293 47.8843 117.323 50.0804 114.044L71.4391 82.126C71.4843 82.0658 71.6196 82.1711 71.8152 82.3516C73.1087 83.6151 73.3644 85.6156 72.5221 87.225L39.4611 151.121L70.2809 135.267L60.4138 202.231L102.424 114.555ZM128.085 167.681H89.6843L88.2704 170.614L81.4868 184.768L77.3805 193.327L74.1767 200.005C75.3649 200.035 76.5682 200.035 77.7565 200.035C80.0879 200.035 82.4193 200.02 84.7508 200.02H85.1268C93.6402 200.02 102.169 200.02 110.697 200.035C111.57 200.035 112.457 200.035 113.329 200.035H113.344C114.668 197.072 115.48 195.282 115.48 195.282C116.789 192.47 118.684 188.288 118.819 187.987C120.279 184.753 124.039 176.526 128.085 167.681ZM156.092 124.091H110.562L98.3331 149.602L97.927 150.459L95.1744 156.205H141.712C146.165 146.503 149.85 138.441 149.895 138.351C150.647 136.666 153.129 130.95 156.092 124.091ZM183.768 81.7199H117.391L108.275 99.6492L108.11 99.9801H122.114L121.677 100.898L116.623 111.457L116.187 112.374L116.067 112.615H169.659C169.689 112.535 169.72 112.454 169.75 112.374H169.885C171.901 107.922 175.721 99.4837 175.811 99.2731C177.872 94.7306 180.865 88.1124 183.768 81.7199Z" fill="#FF0000"/>
</svg>
