<svg width="248" height="257" viewBox="0 0 248 257" fill="none" xmlns="http://www.w3.org/2000/svg">
<path d="M136.61 175.456C136.577 175.26 136.561 175.039 136.561 174.793C136.487 171.232 136.315 167.696 136.119 164.16L132.312 166.518C132.362 169.44 132.435 172.387 132.705 175.309C132.705 175.44 132.705 175.554 132.705 175.653L133.344 189.38C133.86 198.686 134.105 208.018 134.252 217.325C135.21 217.055 136.855 216.613 138.157 216.121C138.01 211.48 137.985 206.839 137.838 202.198C137.715 197.901 137.543 193.603 137.322 189.33C137.322 189.085 137.322 188.839 137.322 188.667L136.61 175.456Z" fill="black"/>
<path d="M128.415 30.6476L128.98 30.353C129.25 30.2302 129.422 29.9601 129.447 29.6408L130.699 3.36552C130.724 2.94807 130.478 2.55517 130.085 2.43239L129.25 2.13771C128.636 1.9167 127.998 2.35871 127.973 2.99718L127.188 29.8864C127.188 30.5249 127.851 30.9423 128.415 30.6476Z" fill="black"/>
<path d="M131.532 188.127L131.065 177.494C131.032 177.511 130.999 177.519 130.967 177.519C122.74 179.68 117.215 184.738 115.005 193.038C113.9 197.237 114.072 201.437 116.086 205.415C116.822 206.864 117.854 208.116 119.302 208.951C120.113 209.417 121.046 209.933 121.832 209.221C122.618 208.533 122.004 207.649 121.635 206.913C119.843 203.45 119.573 199.89 121.144 196.304C123.158 191.737 126.841 189.257 131.532 188.127Z" fill="black"/>
<path fill-rule="evenodd" clip-rule="evenodd" d="M247.139 123.004C247.139 175.285 214.626 219.977 168.73 237.977C174.697 229.235 176.22 217.792 172.61 205.293C170.965 199.571 168.19 194.488 164.752 189.699C163.426 187.833 162.149 185.918 160.725 184.1C156.575 178.796 155.494 173.001 157.336 166.493C159.006 160.477 160.283 154.412 160.283 148.076C160.283 144.417 159.472 141.323 157.901 138.696C158.179 137.533 158.425 136.33 158.638 135.086C160.086 127.031 159.792 120.082 159.202 115.146C159.227 118.559 159.055 123.373 158.097 129.07C158.097 129.07 157.606 131.967 156.992 134.447C155.814 139.285 152.744 144.614 149.552 149.206C144.125 157.039 135.726 162.466 127.525 166.985C123.669 169.121 119.765 171.135 116.229 173.762C109.746 178.551 104.736 184.346 103.288 195.028C102.625 199.89 103.828 204.801 106.455 208.927C109.157 213.175 113.233 216.49 117.874 218.381C123.178 220.542 128.9 220.738 134.4 219.29C140.245 217.718 146.458 214.722 149.38 209.123C149.969 208.018 150.362 206.84 150.583 205.636C152.007 196.354 146.433 190.043 139.115 188.177L138.526 176.954C138.542 176.954 138.567 176.963 138.6 176.979C150.78 178.354 159.104 187.244 159.35 199.424C159.522 208.19 154.88 214.452 147.931 219.241C142.578 222.924 135.874 224.79 129.416 224.938C126.15 224.987 122.884 224.618 119.765 223.636C107.339 219.756 99.2357 209.295 98.1553 195.887C97.8851 192.72 97.9834 189.552 98.3271 187.317C100.144 173.762 107.143 164.504 117.064 157.088C124.259 151.735 132.534 148.076 139.975 143.091C144.567 140.022 148.398 136.412 151.148 132.139C153.653 128.235 155.298 123.765 155.814 118.559C156.157 115.097 156.133 111.635 154.193 108.516C152.597 105.913 150.755 105.594 148.447 107.534C147.415 108.369 146.507 109.375 145.672 110.431C141.62 115.539 139.115 121.064 137.691 126.909C136.389 132.164 135.972 137.64 136.046 143.263L131.92 145.694C131.92 145.596 131.92 145.498 131.92 145.4C131.871 141.102 131.896 136.805 132.117 132.507C132.559 128.259 133.246 123.741 134.229 118.977C136.095 109.965 138.649 102.229 141.203 95.8694C138.796 100.756 136.389 106.208 134.13 112.224C133.59 113.697 133.066 115.154 132.559 116.595C132.289 94.838 131.552 38.9478 131.552 38.9478C131.552 37.5726 131.896 36.4185 132.927 35.5344C134.008 34.6013 134.597 33.5208 134.867 32.293C134.99 31.6054 135.039 30.8687 134.965 30.1075C134.965 29.8865 134.941 29.6655 134.916 29.4444V28.4131L134.941 27.1116H137.961C137.887 26.8169 137.838 26.5222 137.838 26.1785C137.838 25.8592 137.887 25.54 137.961 25.2453H134.99V24.1157L135.113 17.0189L135.137 16.8225H138.379C138.329 16.5278 138.28 16.2331 138.28 15.8893C138.28 15.5701 138.329 15.2754 138.379 14.9808H135.162L135.186 13.2864L135.309 6.55793H138.821C138.747 6.26325 138.698 5.94402 138.698 5.62479C138.698 5.281 138.747 4.98632 138.821 4.69164H135.334L135.383 2.45702L135.407 0.271499C135.407 0.206016 135.407 0.148722 135.407 0.0996094C198.1 5.99313 247.139 58.7647 247.139 123.004ZM141.841 26.1785C141.841 24.6068 141.006 23.3299 139.999 23.3299C138.968 23.3299 138.133 24.6068 138.133 26.1785C138.133 27.7501 138.968 29.027 139.999 29.027C141.006 29.027 141.841 27.7501 141.841 26.1785ZM142.283 15.8893C142.283 14.3177 141.448 13.0408 140.417 13.0408C139.385 13.0408 138.575 14.3177 138.575 15.8893C138.575 17.4855 139.385 18.7624 140.417 18.7624C141.448 18.7624 142.283 17.4855 142.283 15.8893ZM142.725 5.62479C142.725 4.05318 141.89 2.77625 140.859 2.77625C139.827 2.77625 138.992 4.05318 138.992 5.62479C138.992 7.1964 139.827 8.47333 140.859 8.47333C141.89 8.47333 142.725 7.1964 142.725 5.62479Z" fill="black"/>
<path d="M118.369 30.353L118.934 30.6476C119.499 30.9423 120.162 30.5249 120.162 29.8864L119.376 2.99718C119.351 2.35871 118.713 1.9167 118.099 2.13771L117.264 2.43239C116.871 2.55517 116.626 2.94807 116.65 3.36552L117.902 29.6408C117.927 29.9601 118.099 30.2302 118.369 30.353Z" fill="black"/>
<path d="M134.155 226.337C134.081 231.593 134.007 236.823 132.19 241.857C131.601 243.478 130.889 244.976 130.029 246.302C128.065 249.298 125.29 251.385 121.091 251.876C120.01 251.999 118.512 252.515 117.923 251.532C117.26 250.452 118.831 249.838 119.445 249.052C120.059 248.266 120.55 247.382 120.87 246.425C121.827 243.748 121.533 240.654 119.912 238.174C118.168 235.497 114.731 234.146 111.587 234.932C107.953 235.816 105.448 238.984 105.129 243.159C105.096 243.83 105.104 244.468 105.154 245.074C105.424 248.708 107.388 251.459 110.507 253.497C110.687 253.595 110.859 253.701 111.023 253.816C111.596 254.16 112.177 254.463 112.766 254.725C113.83 255.199 114.911 255.551 116.007 255.781L120.649 256.1C120.861 256.067 121.082 256.042 121.312 256.026C122.736 255.83 124.16 255.461 125.511 254.896C129.342 253.3 132.657 250.231 134.744 245.983C134.94 245.557 135.129 245.131 135.309 244.706C137.789 238.689 138.133 232.354 138.084 225.994C138.084 225.781 138.084 225.584 138.084 225.404L134.155 226.337Z" fill="black"/>
<path d="M118.857 39.8318C118.563 39.8809 118.391 39.9055 118.391 39.9055C118.391 39.9055 118.563 39.93 118.857 39.9791C119.127 40.0037 119.545 40.0773 120.036 40.1019C120.527 40.151 121.116 40.2001 121.73 40.2247C122.344 40.2492 123.007 40.2738 123.67 40.2738C124.333 40.2738 124.996 40.2492 125.61 40.2247C126.224 40.2001 126.813 40.151 127.305 40.1019C127.796 40.0773 128.213 40.0037 128.483 39.9791C128.778 39.93 128.95 39.9055 128.95 39.9055C128.95 39.9055 128.778 39.8809 128.483 39.8318C128.213 39.7827 127.796 39.7336 127.305 39.6844C126.813 39.6353 126.224 39.6108 125.61 39.5862C124.996 39.5617 124.333 39.5371 123.67 39.5371C123.007 39.5371 122.344 39.5617 121.73 39.5862C121.116 39.6108 120.527 39.6353 120.036 39.6844C119.545 39.7336 119.127 39.7827 118.857 39.8318Z" fill="black"/>
<path d="M128.483 51.0779C128.213 51.0288 127.796 50.9796 127.305 50.9305C126.813 50.8814 126.224 50.8569 125.61 50.8323C124.996 50.8078 124.333 50.7832 123.67 50.7832C123.007 50.7832 122.344 50.8078 121.73 50.8323C121.116 50.8569 120.527 50.906 120.036 50.9305C119.545 50.9796 119.127 51.0288 118.857 51.0779C118.563 51.127 118.391 51.1515 118.391 51.1515C118.391 51.1515 118.563 51.1761 118.857 51.2252C119.127 51.2743 119.545 51.3234 120.036 51.348C120.527 51.3971 121.116 51.4462 121.73 51.4708C122.344 51.4953 123.007 51.5199 123.67 51.5199C124.333 51.5199 124.996 51.4953 125.61 51.4708C126.224 51.4462 126.813 51.3971 127.305 51.3726C127.796 51.3234 128.213 51.2743 128.483 51.2252C128.778 51.1761 128.95 51.1515 128.95 51.1515C128.95 51.1515 128.778 51.127 128.483 51.0779Z" fill="black"/>
<path d="M128.483 62.3259C128.213 62.3014 127.796 62.2277 127.305 62.2031C126.813 62.154 126.224 62.1049 125.61 62.0804C124.996 62.0558 124.333 62.0312 123.67 62.0312C123.007 62.0312 122.344 62.0558 121.73 62.0804C121.116 62.1049 120.527 62.154 120.036 62.2031C119.545 62.2277 119.127 62.3014 118.857 62.3259C118.563 62.375 118.391 62.3996 118.391 62.3996C118.391 62.3996 118.563 62.4241 118.857 62.4733C119.127 62.5224 119.545 62.5715 120.036 62.6206C120.527 62.6697 121.116 62.6943 121.73 62.7188C122.344 62.7434 123.007 62.7679 123.67 62.7679C124.333 62.7679 124.996 62.7434 125.61 62.7188C126.224 62.6943 126.813 62.6697 127.305 62.6206C127.796 62.5715 128.213 62.5224 128.483 62.4733C128.778 62.4241 128.95 62.3996 128.95 62.3996C128.95 62.3996 128.778 62.375 128.483 62.3259Z" fill="black"/>
<path d="M128.483 73.572C128.213 73.5475 127.796 73.4984 127.305 73.4492C126.813 73.4001 126.224 73.351 125.61 73.3265C124.996 73.3019 124.333 73.2773 123.67 73.2773C123.007 73.2773 122.344 73.3019 121.73 73.3265C121.116 73.351 120.527 73.4001 120.036 73.4492C119.545 73.4984 119.127 73.5475 118.857 73.572C118.563 73.6211 118.391 73.6457 118.391 73.6457C118.391 73.6457 118.563 73.6948 118.857 73.7194C119.127 73.7685 119.545 73.8176 120.036 73.8667C120.527 73.9158 121.116 73.9404 121.73 73.9649C122.344 74.014 123.007 74.014 123.67 74.014C124.333 74.014 124.996 74.014 125.61 73.9895C126.224 73.9404 126.813 73.9158 127.305 73.8667C127.796 73.8176 128.213 73.7685 128.483 73.7194C128.778 73.6948 128.95 73.6457 128.95 73.6457C128.95 73.6457 128.778 73.6211 128.483 73.572Z" fill="black"/>
<path d="M128.483 84.8435C128.213 84.7944 127.796 84.7453 127.305 84.6962C126.813 84.647 126.224 84.5979 125.61 84.5734C124.996 84.5488 124.333 84.5488 123.67 84.5488C123.007 84.5488 122.344 84.5488 121.73 84.5734C121.116 84.6225 120.527 84.647 120.036 84.6962C119.545 84.7453 119.127 84.7944 118.857 84.8435C118.563 84.8681 118.391 84.8926 118.391 84.8926C118.391 84.8926 118.563 84.9417 118.857 84.9663C119.127 85.0154 119.545 85.0645 120.036 85.1136C120.527 85.1627 121.116 85.1873 121.73 85.2364C122.344 85.261 123.007 85.261 123.67 85.261C124.333 85.261 124.996 85.261 125.61 85.2364C126.224 85.1873 126.813 85.1627 127.305 85.1136C127.796 85.0645 128.213 85.0154 128.483 84.9663C128.778 84.9417 128.95 84.8926 128.95 84.8926C128.95 84.8926 128.778 84.8681 128.483 84.8435Z" fill="black"/>
<path d="M128.483 96.0896C128.213 96.0405 127.796 95.9914 127.305 95.9423C126.813 95.8932 126.224 95.8686 125.61 95.8195C124.996 95.7949 124.333 95.7949 123.67 95.7949C123.007 95.7949 122.344 95.7949 121.73 95.8195C121.116 95.8686 120.527 95.8932 120.036 95.9423C119.545 95.9914 119.127 96.0405 118.857 96.0896C118.563 96.1142 118.391 96.1633 118.391 96.1633C118.391 96.1633 118.563 96.1878 118.857 96.2369C119.127 96.2615 119.545 96.3106 120.036 96.3597C120.527 96.4088 121.116 96.4579 121.73 96.4825C122.344 96.5071 123.007 96.5071 123.67 96.5316C124.333 96.5071 124.996 96.5071 125.61 96.4825C126.224 96.4579 126.813 96.4088 127.305 96.3597C127.796 96.3106 128.213 96.2615 128.483 96.2369C128.778 96.1878 128.95 96.1633 128.95 96.1633C128.95 96.1633 128.778 96.1142 128.483 96.0896Z" fill="black"/>
<path d="M128.483 107.338C128.213 107.289 127.796 107.239 127.305 107.19C126.813 107.141 126.224 107.117 125.61 107.092C124.996 107.043 124.333 107.043 123.67 107.043C123.007 107.043 122.344 107.068 121.73 107.092C121.116 107.117 120.527 107.141 120.036 107.19C119.545 107.239 119.127 107.289 118.857 107.338C118.563 107.387 118.391 107.411 118.391 107.411C118.391 107.411 118.563 107.436 118.857 107.485C119.127 107.51 119.545 107.583 120.036 107.608C120.527 107.657 121.116 107.706 121.73 107.731C122.344 107.755 123.007 107.78 123.67 107.78C124.333 107.78 124.996 107.755 125.61 107.731C126.224 107.706 126.813 107.657 127.305 107.608C127.796 107.583 128.213 107.51 128.483 107.485C128.778 107.436 128.95 107.411 128.95 107.411C128.95 107.411 128.778 107.362 128.483 107.338Z" fill="black"/>
<path d="M127.305 118.436C126.813 118.387 126.224 118.363 125.61 118.338C124.996 118.314 124.333 118.289 123.67 118.289C123.007 118.289 122.344 118.314 121.73 118.338C121.116 118.363 120.527 118.387 120.036 118.436C119.545 118.486 119.127 118.535 118.857 118.584C118.563 118.633 118.391 118.657 118.391 118.657C118.391 118.657 118.563 118.682 118.857 118.731C119.127 118.78 119.545 118.829 120.036 118.854C120.527 118.903 121.116 118.952 121.73 118.977C122.344 119.001 123.007 119.026 123.67 119.026C124.333 119.026 124.996 119.001 125.61 118.977C126.224 118.952 126.813 118.903 127.305 118.878C127.796 118.829 128.213 118.78 128.483 118.731C128.778 118.682 128.95 118.657 128.95 118.657C128.95 118.657 128.778 118.633 128.483 118.584C128.213 118.535 127.796 118.486 127.305 118.436Z" fill="black"/>
<path fill-rule="evenodd" clip-rule="evenodd" d="M98.404 130.911C97.8146 131.222 97.2253 131.542 96.6359 131.869C90.3986 135.503 87.059 140.66 87.059 148.076C87.059 154.412 88.3359 160.477 90.0057 166.493C91.8474 173.001 90.767 178.796 86.6169 184.1C85.1927 185.918 83.9157 187.833 82.5897 189.699C79.1518 194.488 76.3769 199.571 74.7317 205.293C71.1219 217.792 72.6444 229.235 78.6116 237.977C32.7157 219.977 0.203125 175.285 0.203125 123.004C0.203125 58.7647 49.2422 5.99313 111.935 0.0996094C111.935 0.148722 111.935 0.206016 111.935 0.271499L111.959 2.45702L112.008 4.69164H108.521C108.595 4.98632 108.644 5.281 108.644 5.62479C108.644 5.94402 108.595 6.26325 108.521 6.55793H112.033L112.156 13.2864L112.18 14.9808H108.963C109.012 15.2754 109.061 15.5701 109.061 15.8893C109.061 16.2331 109.012 16.5278 108.963 16.8225H112.205L112.229 17.0189L112.352 24.1157V25.2453H109.381C109.454 25.54 109.503 25.8592 109.503 26.1785C109.503 26.5222 109.454 26.8169 109.381 27.1116H112.401L112.426 28.4131V29.4444C112.401 29.6655 112.377 29.8865 112.377 30.1075C112.303 30.8687 112.352 31.6054 112.475 32.293C112.745 33.5208 113.334 34.6013 114.415 35.5344C115.446 36.4185 115.79 37.5726 115.79 38.9478C115.79 38.9478 115.79 38.956 115.79 38.9723L114.66 124.748C115.299 124.78 115.945 124.821 116.6 124.87C120.996 125.141 124.507 125.288 126.521 125.362C126.693 125.362 121.634 125.312 114.906 126.246C111.345 126.737 107.441 127.302 102.8 129.02C101.547 129.462 100.049 130.076 98.404 130.911ZM107.342 23.3299C106.336 23.3299 105.501 24.6068 105.501 26.1785C105.501 27.7501 106.336 29.027 107.342 29.027C108.374 29.027 109.209 27.7501 109.209 26.1785C109.209 24.6068 108.374 23.3299 107.342 23.3299ZM106.925 13.0408C105.894 13.0408 105.059 14.3177 105.059 15.8893C105.059 17.4855 105.894 18.7624 106.925 18.7624C107.956 18.7624 108.767 17.4855 108.767 15.8893C108.767 14.3177 107.956 13.0408 106.925 13.0408ZM104.617 5.62479C104.617 7.1964 105.452 8.47333 106.483 8.47333C107.514 8.47333 108.349 7.1964 108.349 5.62479C108.349 4.05318 107.514 2.77625 106.483 2.77625C105.452 2.77625 104.617 4.05318 104.617 5.62479Z" fill="black"/>
<path d="M93.6885 158.095C92.7799 158.046 92.0187 153.258 92.4853 149.083C92.6326 147.61 93.2956 142.306 97.4702 137.738C102.504 132.238 109.92 130.813 110.264 131.525C110.583 132.139 105.279 133.735 100.884 139.089C93.9832 147.487 95.0637 158.169 93.6885 158.095Z" fill="#CACACA"/>
<path d="M85.9759 196.109C84.8955 195.741 80.0333 202.985 78.8301 212.022C78.4371 214.944 76.9638 226.043 84.3552 234.122C88.7263 238.911 95.1846 241.514 96.2159 240.311C97.6157 238.665 87.2774 232.33 84.1833 219.831C81.1138 207.307 87.2774 196.576 85.9759 196.109Z" fill="#CACACA"/>
</svg>
