<svg width="227" height="257" viewBox="0 0 227 257" fill="none" xmlns="http://www.w3.org/2000/svg">
<path d="M103.055 3.91016C155.158 58.4846 52.7364 173.366 151.966 236.658C151.966 236.658 117.745 201.202 120.903 155.689C126.086 81.55 151.142 42.5242 103.055 3.91016Z" fill="url(#paint0_linear_40_5463)"/>
<path d="M142.837 140.414C145.445 144.808 144.004 150.471 139.61 153.08C135.217 155.654 129.553 154.213 126.979 149.819C124.37 145.46 125.812 139.797 130.206 137.188C134.599 134.579 140.262 136.021 142.837 140.414Z" fill="url(#paint1_linear_40_5463)"/>
<path d="M78.8945 117.968C46.7334 106.092 15.4303 88.2092 6.4375 59.9609C13.5425 99.9479 38.9762 118.723 73.1281 132.178C72.9909 126.926 75.016 121.743 78.8945 117.968Z" fill="url(#paint2_linear_40_5463)"/>
<path d="M98.5282 142.269C92.6932 145.701 85.142 143.779 81.7097 137.944C78.243 132.109 80.1651 124.558 86.0001 121.126C91.8351 117.659 99.3863 119.581 102.853 125.416C106.285 131.251 104.363 138.802 98.5282 142.269Z" fill="url(#paint3_linear_40_5463)"/>
<path d="M96.0219 176.936C90.942 179.991 84.3175 178.275 81.2971 173.195C78.2766 168.081 79.9584 161.456 85.0727 158.436C90.1525 155.415 96.777 157.097 99.7975 162.211C102.818 167.326 101.136 173.916 96.0219 176.936Z" fill="url(#paint4_linear_40_5463)"/>
<path d="M107.004 192.758C109.578 197.152 108.136 202.815 103.743 205.424C99.3839 207.998 93.7205 206.556 91.1119 202.163C88.5033 197.769 89.9449 192.106 94.3383 189.532C98.7317 186.923 104.395 188.365 107.004 192.758Z" fill="url(#paint5_linear_40_5463)"/>
<path d="M119.599 225.573C115.926 227.77 111.19 226.534 109.027 222.896C106.865 219.223 108.066 214.487 111.739 212.324C115.377 210.162 120.114 211.363 122.276 215.036C124.439 218.674 123.237 223.411 119.599 225.573Z" fill="url(#paint6_linear_40_5463)"/>
<path d="M139.375 243.18C136.423 244.931 132.648 243.935 130.897 241.018C129.147 238.1 130.142 234.29 133.059 232.54C135.977 230.824 139.787 231.785 141.537 234.702C143.253 237.654 142.292 241.43 139.375 243.18Z" fill="url(#paint7_linear_40_5463)"/>
<path d="M193.362 203.984C191.611 201.066 187.836 200.105 184.884 201.821C183.065 202.92 182.001 204.773 181.864 206.729L151.281 224.852C152.963 227.049 154.508 228.902 155.778 230.344L185.468 212.77C187.252 213.594 189.38 213.526 191.2 212.462C194.117 210.745 195.112 206.935 193.362 203.984Z" fill="url(#paint8_linear_40_5463)"/>
<path d="M186.359 177.073C184.197 173.4 179.46 172.199 175.788 174.361C173.213 175.872 171.875 178.686 172.046 181.466L137.242 202.095C138.306 204.326 139.37 206.42 140.4 208.376L175.616 187.507C177.984 188.983 181.073 189.155 183.648 187.61C187.32 185.448 188.522 180.711 186.359 177.073Z" fill="url(#paint9_linear_40_5463)"/>
<path d="M168.03 156.582C165.456 152.189 159.793 150.747 155.399 153.356C152.001 155.347 150.388 159.191 151.006 162.864L128.867 175.975C129.302 178.447 129.817 180.849 130.412 183.183L154.713 168.802C157.596 170.861 161.578 171.17 164.804 169.214C169.197 166.639 170.639 160.976 168.03 156.582Z" fill="url(#paint10_linear_40_5463)"/>
<path d="M218.621 58.3479L121.795 2.43482C118.156 0.34108 113.935 -0.242412 109.953 0.684324C118.877 8.26983 125.57 16.1986 130.273 24.8138L211.07 71.4595C211.379 71.6311 211.585 71.9744 211.585 72.3519V184.178C211.585 184.521 211.379 184.865 211.07 185.07L193.394 195.265C195.831 196.329 197.89 198.148 199.297 200.482C200.739 202.953 201.288 205.699 201.048 208.342L218.621 198.182C223.633 195.299 226.722 189.944 226.722 184.178V72.3519C226.722 66.5512 223.633 61.2311 218.621 58.3479Z" fill="url(#paint11_linear_40_5463)"/>
<path d="M124.954 244.52C123.376 241.842 122.826 238.753 123.307 235.698L114.211 240.984C114.051 241.076 113.879 241.122 113.696 241.122C113.513 241.122 113.342 241.076 113.181 240.984L16.3547 185.071C16.0458 184.865 15.8398 184.522 15.8398 184.179V100.567C9.00946 91.2649 4.16981 80.5903 1.18366 68.3711C0.874751 69.6754 0.703125 70.9797 0.703125 72.3527V184.179C0.703125 189.945 3.75792 195.3 8.76916 198.183L105.596 254.096C110.607 256.979 116.785 256.979 121.797 254.096L130 249.359C127.941 248.227 126.19 246.579 124.954 244.52Z" fill="url(#paint12_linear_40_5463)"/>
<path d="M107.448 26.7021C105.285 23.0638 100.549 21.8624 96.8759 24.0248C94.336 25.5351 92.9974 28.2466 93.1347 31.0268L21.3984 73.6224C22.8171 75.4529 24.3617 77.2607 26.0321 79.0455L96.6013 37.1021C99.004 38.6466 102.127 38.8183 104.736 37.2737C108.409 35.1113 109.61 30.3747 107.448 26.7021Z" fill="url(#paint13_linear_40_5463)"/>
<path d="M110.335 56.0825C107.727 51.7234 102.063 50.2475 97.67 52.8561C94.4092 54.8126 92.7618 58.4852 93.2423 62.0548L42.2031 92.3968C44.3312 93.8155 46.5622 95.2114 48.8962 96.5843L96.7433 68.0958C99.6608 70.3611 103.745 70.7387 107.109 68.7479C111.502 66.1393 112.944 60.4759 110.335 56.0825Z" fill="url(#paint14_linear_40_5463)"/>
<path d="M106.592 89.4105C103.571 84.2963 96.9471 82.6145 91.8672 85.635C87.8513 88.0033 85.9292 92.637 86.7873 96.9617L69.9688 107.019C72.6002 108.14 75.3232 109.25 78.1378 110.348L90.3226 103.037C93.7207 105.954 98.7662 106.538 102.816 104.135C107.931 101.115 109.612 94.4904 106.592 89.4105Z" fill="url(#paint15_linear_40_5463)"/>
<defs>
<linearGradient id="paint0_linear_40_5463" x1="655.039" y1="-117.636" x2="706.269" y2="119.508" gradientUnits="userSpaceOnUse">
<stop stop-color="#2AA9E1"/>
<stop offset="1" stop-color="#262261"/>
</linearGradient>
<linearGradient id="paint1_linear_40_5463" x1="108.747" y1="-27.9653" x2="169.632" y2="253.87" gradientUnits="userSpaceOnUse">
<stop stop-color="#2AA9E1"/>
<stop offset="1" stop-color="#262261"/>
</linearGradient>
<linearGradient id="paint2_linear_40_5463" x1="110.092" y1="285.08" x2="-27.3672" y2="81.8791" gradientUnits="userSpaceOnUse">
<stop stop-color="#2AA9E1"/>
<stop offset="1" stop-color="#262261"/>
</linearGradient>
<linearGradient id="paint3_linear_40_5463" x1="178.614" y1="289.761" x2="-6.06718" y2="16.7542" gradientUnits="userSpaceOnUse">
<stop stop-color="#2AA9E1"/>
<stop offset="1" stop-color="#262261"/>
</linearGradient>
<linearGradient id="paint4_linear_40_5463" x1="156.197" y1="291.4" x2="-28.4855" y2="18.3922" gradientUnits="userSpaceOnUse">
<stop stop-color="#2AA9E1"/>
<stop offset="1" stop-color="#262261"/>
</linearGradient>
<linearGradient id="paint5_linear_40_5463" x1="143.58" y1="286.183" x2="-41.1678" y2="13.0784" gradientUnits="userSpaceOnUse">
<stop stop-color="#2AA9E1"/>
<stop offset="1" stop-color="#262261"/>
</linearGradient>
<linearGradient id="paint6_linear_40_5463" x1="140.841" y1="275.288" x2="-43.841" y2="2.2799" gradientUnits="userSpaceOnUse">
<stop stop-color="#2AA9E1"/>
<stop offset="1" stop-color="#262261"/>
</linearGradient>
<linearGradient id="paint7_linear_40_5463" x1="142.013" y1="261.759" x2="-42.6676" y2="-11.2473" gradientUnits="userSpaceOnUse">
<stop stop-color="#2AA9E1"/>
<stop offset="1" stop-color="#262261"/>
</linearGradient>
<linearGradient id="paint8_linear_40_5463" x1="104.434" y1="-161.833" x2="192.242" y2="244.633" gradientUnits="userSpaceOnUse">
<stop stop-color="#2AA9E1"/>
<stop offset="1" stop-color="#262261"/>
</linearGradient>
<linearGradient id="paint9_linear_40_5463" x1="106.349" y1="-142.668" x2="194.238" y2="264.173" gradientUnits="userSpaceOnUse">
<stop stop-color="#2AA9E1"/>
<stop offset="1" stop-color="#262261"/>
</linearGradient>
<linearGradient id="paint10_linear_40_5463" x1="106.007" y1="-102.911" x2="187.918" y2="276.255" gradientUnits="userSpaceOnUse">
<stop stop-color="#2AA9E1"/>
<stop offset="1" stop-color="#262261"/>
</linearGradient>
<linearGradient id="paint11_linear_40_5463" x1="342.743" y1="-50.6208" x2="395.321" y2="192.763" gradientUnits="userSpaceOnUse">
<stop stop-color="#2AA9E1"/>
<stop offset="1" stop-color="#262261"/>
</linearGradient>
<linearGradient id="paint12_linear_40_5463" x1="-1.90445" y1="358.582" x2="-138.53" y2="156.615" gradientUnits="userSpaceOnUse">
<stop stop-color="#2AA9E1"/>
<stop offset="1" stop-color="#262261"/>
</linearGradient>
<linearGradient id="paint13_linear_40_5463" x1="710.557" y1="1060.09" x2="-52.9729" y2="-68.6019" gradientUnits="userSpaceOnUse">
<stop stop-color="#2AA9E1"/>
<stop offset="1" stop-color="#262261"/>
</linearGradient>
<linearGradient id="paint14_linear_40_5463" x1="477.521" y1="710.328" x2="-71.1422" y2="-100.739" gradientUnits="userSpaceOnUse">
<stop stop-color="#2AA9E1"/>
<stop offset="1" stop-color="#262261"/>
</linearGradient>
<linearGradient id="paint15_linear_40_5463" x1="252.621" y1="365.467" x2="-13.6344" y2="-28.1279" gradientUnits="userSpaceOnUse">
<stop stop-color="#2AA9E1"/>
<stop offset="1" stop-color="#262261"/>
</linearGradient>
</defs>
</svg>
