<svg width="257" height="222" viewBox="0 0 257 222" fill="none" xmlns="http://www.w3.org/2000/svg">
<path d="M208.946 193.223L256.501 110.893L209.006 28.622C201.015 53.791 185.034 83.5988 154.298 110.982C154.298 110.982 178.27 75.668 187.308 56.8436C193.952 42.9573 198.711 29.3702 201.614 15.813L192.695 0.400391C191.289 12.2217 188.445 23.4445 184.555 34.2184H109.736C106.444 34.2184 104.259 37.6002 105.546 40.593C105.566 40.6329 105.586 40.6628 105.606 40.6828C106.324 42.3587 107.97 43.4361 109.766 43.4361H180.934C170.758 67.3781 155.735 89.2551 140.472 110.982C164.384 145.01 187.607 179.337 192.665 221.415L201.584 206.032C198.681 192.535 193.922 178.978 187.308 165.151C178.27 146.327 154.298 110.982 154.298 110.982C184.974 138.366 200.955 168.084 208.946 193.223Z" fill="url(#paint0_linear_40_5452)"/>
<path d="M102.672 110.982C102.672 110.982 78.7005 146.327 69.6923 165.151C63.0484 178.978 58.3199 192.535 55.4169 206.032L64.3054 221.415C68.8843 183.407 88.2773 151.744 109.616 120.888C109.755 121.088 109.895 121.277 110.035 121.457C113.955 127.053 117.846 132.59 121.646 138.127C111.232 153.659 101.625 169.55 94.4423 186.459H147.204C149.03 186.459 150.676 187.537 151.394 189.183C151.414 189.223 151.424 189.253 151.424 189.273C152.741 192.295 150.526 195.647 147.264 195.647H90.8511C87.7984 204.057 85.4043 212.736 83.8181 221.744H97.3154C96.3577 220.697 95.8789 219.23 96.2081 217.704C96.228 217.664 96.238 217.624 96.238 217.584C96.6869 215.519 98.5723 214.053 100.697 214.053H171.595C167.854 197.772 161.48 182.599 153.639 168.054H124.28C120.749 168.054 118.534 164.193 120.36 161.141C120.379 161.121 120.399 161.091 120.419 161.051C121.257 159.704 122.724 158.866 124.31 158.866H148.461C130.804 128.819 107.79 101.076 90.1328 70.9993H132.66C134.246 70.9993 135.742 70.1913 136.55 68.8146C136.57 68.7946 136.59 68.7647 136.61 68.7248C138.466 65.7021 136.251 61.8116 132.69 61.8116H84.9553C77.1143 47.2668 70.7398 32.1235 66.9989 15.843H156.273C158.427 15.843 160.283 14.3765 160.762 12.2816C160.762 12.2417 160.762 12.2118 160.762 12.1918C161.42 9.34871 159.205 6.62528 156.302 6.62528H65.1733C64.8341 4.57026 64.5348 2.49531 64.2755 0.400391L55.387 15.813C58.29 29.3702 63.0185 42.9573 69.6923 56.8436C78.7005 75.668 102.672 110.982 102.672 110.982C71.9369 83.5988 55.9855 53.791 47.9949 28.622L0.5 110.893L48.0248 193.223C56.0454 168.084 71.9967 138.366 102.672 110.982Z" fill="url(#paint1_linear_40_5452)"/>
<defs>
<linearGradient id="paint0_linear_40_5452" x1="203.966" y1="-184.011" x2="424.441" y2="109.956" gradientUnits="userSpaceOnUse">
<stop stop-color="#BED62F"/>
<stop offset="0.849" stop-color="#0DA69D"/>
</linearGradient>
<linearGradient id="paint1_linear_40_5452" x1="137.842" y1="-121.453" x2="334.156" y2="140.299" gradientUnits="userSpaceOnUse">
<stop stop-color="#BED62F"/>
<stop offset="0.849" stop-color="#0DA69D"/>
</linearGradient>
</defs>
</svg>
