<svg width="231" height="257" viewBox="0 0 231 257" fill="none" xmlns="http://www.w3.org/2000/svg">
<path fill-rule="evenodd" clip-rule="evenodd" d="M206.079 84.354V171.845C206.079 177.125 203.251 182.027 198.663 184.667L143.604 216.439C137.947 242.303 121.134 256.1 121.134 256.1C157.023 173.605 99.9523 165.811 77.6709 125.146C55.3896 84.4797 95.9297 60.7841 95.9297 60.7841C45.7416 80.1428 46.2759 136.93 85.1819 167.163C122.108 195.855 117.111 221.688 117.111 221.688C117.111 221.688 119.688 201.983 82.6677 176.182C40.4934 146.767 50.1413 107.295 50.1413 107.295C50.1413 107.295 16.8293 172.442 67.8659 205.157L32.354 184.667C27.7657 182.027 24.9688 177.125 24.9688 171.845V84.354C24.9688 79.0743 27.7657 74.2032 32.354 71.5634L87.4131 39.7598C93.1013 13.8958 109.914 0.0996094 109.914 0.0996094C73.994 82.5941 131.096 90.3878 153.377 131.085C175.627 171.751 135.087 195.447 135.087 195.447C185.275 176.056 184.741 119.3 145.835 89.0365C108.94 60.3441 113.906 34.543 113.906 34.543C113.906 34.543 111.36 54.2474 148.349 80.0485C190.555 109.464 180.907 148.904 180.907 148.904C180.907 148.904 214.219 83.7883 163.151 51.0419L198.663 71.5634C203.251 74.2032 206.079 79.0743 206.079 84.354ZM76.9481 89.8536H111.423C108.469 86.4595 105.735 82.8455 103.346 78.9486H82.5734C82.2801 79.3676 81.9973 79.7866 81.7249 80.2057C79.6508 83.3693 78.0585 86.5852 76.9481 89.8536ZM133.013 111.726C130.593 109.275 128.11 106.887 125.659 104.498C124.381 103.283 123.103 102.047 121.825 100.79H75.094C75.0521 104.373 75.5339 108.018 76.5396 111.726H133.013ZM150.046 133.568C149.962 133.4 149.868 133.222 149.763 133.034C147.752 129.357 145.395 125.9 142.818 122.631H81.0021C81.0859 122.82 81.1802 122.998 81.285 123.166C83.2963 126.874 85.6532 130.299 88.2302 133.568H150.046ZM109.192 155.409H155.954C155.996 151.848 155.514 148.213 154.509 144.504H98.0353C100.455 146.955 102.938 149.344 105.358 151.701C106.636 152.937 107.914 154.173 109.192 155.409ZM148.443 177.282C148.737 176.863 149.03 176.434 149.323 175.994C151.397 172.851 152.99 169.635 154.1 166.346H119.625C122.579 169.771 125.313 173.385 127.702 177.282H148.443Z" fill="url(#paint0_linear_40_5459)"/>
<path d="M115.506 243.718C109.692 243.718 103.91 242.178 98.8817 239.255L23.1125 195.51C12.836 189.57 6.45645 178.539 6.45645 166.692V125.523V84.3542C6.45645 72.5064 12.836 61.4757 23.1125 55.5361L89.0452 17.4787C91.3079 13.1418 93.7277 9.43349 96.0219 6.32227C95.9381 6.36417 95.8647 6.40607 95.8019 6.44797L20.0327 50.1936C7.87063 57.2331 0.296875 70.3066 0.296875 84.3542V125.523V166.692C0.296875 180.739 7.87063 193.813 20.0327 200.852L95.8019 244.598C101.616 247.96 108.215 249.752 114.941 249.877C115.841 247.74 116.669 245.666 117.423 243.655C116.795 243.697 116.156 243.718 115.506 243.718Z" fill="url(#paint1_linear_40_5459)"/>
<path d="M211.008 50.1933L135.239 6.44762C129.425 3.08498 122.794 1.29367 116.069 1.16797C115.189 3.30497 114.361 5.37912 113.586 7.39041C114.235 7.34851 114.874 7.32756 115.503 7.32756C121.348 7.32756 127.099 8.86745 132.159 11.7901L207.928 55.5358C218.173 61.4754 224.553 72.506 224.553 84.3538V125.522V166.691C224.553 178.539 218.173 189.57 207.928 195.509L145.295 231.65C143.818 235.295 142.153 238.595 140.456 241.58L211.008 200.852C223.17 193.812 230.712 180.739 230.712 166.691V125.522V84.3538C230.712 70.3062 223.17 57.2328 211.008 50.1933Z" fill="url(#paint2_linear_40_5459)"/>
<defs>
<linearGradient id="paint0_linear_40_5459" x1="296.428" y1="-15.8983" x2="296.428" y2="222.026" gradientUnits="userSpaceOnUse">
<stop stop-color="#2AA9E1"/>
<stop offset="1" stop-color="#262261"/>
</linearGradient>
<linearGradient id="paint1_linear_40_5459" x1="312.035" y1="-15.8981" x2="312.035" y2="222.026" gradientUnits="userSpaceOnUse">
<stop stop-color="#2AA9E1"/>
<stop offset="1" stop-color="#262261"/>
</linearGradient>
<linearGradient id="paint2_linear_40_5459" x1="418.855" y1="-15.8985" x2="418.855" y2="222.026" gradientUnits="userSpaceOnUse">
<stop stop-color="#2AA9E1"/>
<stop offset="1" stop-color="#262261"/>
</linearGradient>
</defs>
</svg>
