<svg width="257" height="216" viewBox="0 0 257 216" fill="none" xmlns="http://www.w3.org/2000/svg">
<path d="M254.33 190.03L143.411 8.55335C136.792 -2.31987 120.955 -2.31987 114.337 8.55335L3.35892 190.03C-3.55503 201.376 4.59991 215.972 17.896 215.972H128.815H239.733C253.089 215.972 261.243 201.435 254.33 190.03Z" fill="#003B50"/>
<path d="M17.8942 206.809C13.6985 206.809 11.6893 203.973 10.9802 202.791C10.2711 201.55 8.97103 198.359 11.1575 194.813L122.076 13.3367C124.144 9.90926 127.454 9.55469 128.813 9.55469C130.172 9.55469 133.481 9.90926 135.55 13.3367L246.468 194.813C248.655 198.359 247.296 201.609 246.646 202.791C245.936 204.032 243.927 206.809 239.732 206.809H17.8942Z" fill="white"/>
<path d="M241.33 199.835C240.798 200.781 240.088 200.781 239.734 200.781H17.8965C17.6011 200.781 16.8329 200.781 16.301 199.835C15.7692 198.89 16.1828 198.299 16.3601 198.004L127.279 16.527C127.397 16.2907 127.811 15.6406 128.815 15.6406C129.82 15.6406 130.233 16.2907 130.352 16.527L241.27 198.004C241.448 198.24 241.861 198.89 241.33 199.835Z" fill="#003B50"/>
<path d="M130.351 16.527C130.233 16.2907 129.819 15.6406 128.815 15.6406C127.81 15.6406 127.396 16.2907 127.278 16.527L53.7656 136.842C69.6027 161.543 97.3176 177.971 128.874 177.971C160.43 177.971 188.144 161.602 203.982 136.842L130.351 16.527Z" fill="#98CB50"/>
<path d="M135.555 200.722H122.141L128.818 15.6406L135.555 200.722Z" fill="#003B50"/>
<path d="M127.393 161.364L58.7266 128.508L127.571 168.573L127.393 161.364Z" fill="#003B50"/>
<path d="M129.523 148.129L189.326 112.969L129.819 154.63L129.523 148.129Z" fill="#003B50"/>
<path d="M126.745 129.166L75.1562 102.102L126.922 124.084L126.745 129.166Z" fill="#003B50"/>
<path d="M129.94 111.907L172.782 85.9062L129.703 107.416L129.94 111.907Z" fill="#003B50"/>
<path d="M128.223 98.9081L88.9844 79.2891L128.459 95.3034L128.223 98.9081Z" fill="#003B50"/>
<path d="M129.111 82.0678L159.545 64.8125L128.875 78.0495L129.111 82.0678Z" fill="#003B50"/>
<path d="M128.871 69.0615L103.047 56.7109L129.284 66.5205L128.871 69.0615Z" fill="#003B50"/>
<path d="M128.812 54.4706L147.604 45.0156L128.872 56.9525L128.812 54.4706Z" fill="#003B50"/>
<path d="M84.1412 142.105L81.3047 116.812L86.3276 143.464L84.1412 142.105Z" fill="#003B50"/>
<path d="M92.587 147.602L72.1406 155.875L95.6599 149.256L92.587 147.602Z" fill="#003B50"/>
<path d="M106.653 152.624L104.289 125.086L109.607 154.278L106.653 152.624Z" fill="#003B50"/>
<path d="M92.2969 166.099L112.743 157.648L114.93 159.303L92.2969 166.099Z" fill="#003B50"/>
<path d="M140.695 145.057L166.46 155.162L142.764 143.875L140.695 145.057Z" fill="#003B50"/>
<path d="M155.227 135.602L182.291 144.053L156.999 134.125L155.227 135.602Z" fill="#003B50"/>
<path d="M145.594 139.74V139.622L150.203 116.93L148.076 138.44L145.594 139.74Z" fill="#003B50"/>
<path d="M162.617 129.691L166.045 108.477L164.39 128.805L162.617 129.691Z" fill="#003B50"/>
<path d="M113.624 119.763L110.492 100.203L115.811 120.472L113.624 119.763Z" fill="#003B50"/>
<path d="M105.004 116.81L91.1172 126.442L103.704 116.219L105.004 116.81Z" fill="#003B50"/>
<path d="M93.89 110.905L92.1172 96.7812L95.0719 111.614L93.89 110.905Z" fill="#003B50"/>
<path d="M140.57 104.527L157.412 112.8L142.166 103.641L140.57 104.527Z" fill="#003B50"/>
<path d="M147.961 99.5023L151.802 82.6016L149.616 98.7341L147.961 99.5023Z" fill="#003B50"/>
<path d="M156.234 95.005L169.59 98.6097L158.007 94.4141L156.234 95.005Z" fill="#003B50"/>
<path d="M114.219 89.9812L111.383 76.5078L115.992 91.3403L114.219 89.9812Z" fill="#003B50"/>
<path d="M108.136 88.0938L97.6172 94.2986L109.436 88.9802L108.136 88.0938Z" fill="#003B50"/>
<path d="M134.906 77.8698L147.375 82.1245L136.384 77.1016L134.906 77.8698Z" fill="#003B50"/>
<path d="M142.469 73.26L146.31 59.6094L143.946 72.3736L142.469 73.26Z" fill="#003B50"/>
<path d="M118.946 63.3343L117.469 51.5156L120.246 63.9253L118.946 63.3343Z" fill="#003B50"/>
<path d="M135.195 51.6352L138.505 39.3438L136.377 51.3397L135.195 51.6352Z" fill="#003B50"/>
<path d="M121.015 64.9844L111.383 70.421L123.202 65.6935L121.015 64.9844Z" fill="#003B50"/>
<path d="M128.406 42.2983L120.133 34.7344L128.879 41.2938L128.406 42.2983Z" fill="#003B50"/>
<path d="M132.711 53.109L141.161 57.541L134.011 52.6953L132.711 53.109Z" fill="#003B50"/>
</svg>
