<svg width="257" height="253" viewBox="0 0 257 253" fill="none" xmlns="http://www.w3.org/2000/svg">
<path d="M146.63 57.153C146.63 49.7574 144.665 42.8392 141.228 36.8957C138.107 31.4937 133.791 26.8813 128.649 23.4302C123.504 26.8813 119.186 31.4937 116.065 36.8957C112.631 42.8392 110.667 49.7574 110.667 57.153C110.667 64.5469 112.631 71.465 116.065 77.413C119.186 82.8106 123.504 87.423 128.649 90.8741C133.791 87.423 138.107 82.8106 141.228 77.413C144.665 71.465 146.63 64.5469 146.63 57.153ZM71.3402 27.1658C76.8988 23.954 84.0108 25.8596 87.22 31.4181C90.4318 36.9802 88.5271 44.0886 82.9633 47.2987C77.4038 50.5105 70.2972 48.6005 67.088 43.042C63.8752 37.4826 65.7808 30.3715 71.3402 27.1658ZM14.0317 126.424C14.0317 120.005 19.2372 114.803 25.6547 114.803C32.0767 114.803 37.2822 120.005 37.2822 126.424C37.2822 132.846 32.0767 138.05 25.6547 138.05C19.2372 138.05 14.0317 132.846 14.0317 126.424ZM71.3402 225.687C65.7808 222.475 63.8752 215.368 67.088 209.809C70.2972 204.245 77.4038 202.342 82.9633 205.552C88.5271 208.764 90.4318 215.874 87.22 221.432C84.0108 226.993 76.8988 228.896 71.3402 225.687ZM185.957 225.687C180.398 228.896 173.289 226.993 170.077 221.432C166.867 215.874 168.77 208.764 174.333 205.552C179.893 202.342 186.999 204.245 190.211 209.809C193.421 215.368 191.518 222.475 185.957 225.687ZM243.268 126.424C243.268 132.846 238.059 138.05 231.642 138.05C225.221 138.05 220.016 132.846 220.016 126.424C220.016 120.005 225.221 114.803 231.642 114.803C238.059 114.803 243.268 120.005 243.268 126.424ZM185.957 27.1614C191.518 30.3715 193.421 37.4826 190.211 43.042C186.999 48.6049 179.893 50.5105 174.333 47.2987C168.77 44.0886 166.867 36.9802 170.077 31.4181C173.289 25.8596 180.398 23.954 185.957 27.1614ZM55.0088 115.42C47.1668 110.895 41.0089 104.537 36.77 97.1857C33.4603 91.4494 31.3324 85.1075 30.4921 78.5699C26.7129 80.1838 23.2823 82.3375 20.2643 84.9074C15.6679 88.8253 12.0123 93.7258 9.54473 99.1847C8.48566 101.53 5.73175 102.572 3.38954 101.516C1.04822 100.46 0.00605225 97.7051 1.05889 95.3646C4.0858 88.6679 8.57281 82.6603 14.2229 77.8461C18.5934 74.1149 23.6558 71.1076 29.2676 69.0499C28.245 63.165 28.3224 57.2784 29.3628 51.6327C30.7109 44.3349 33.672 37.4417 37.9633 31.4688C39.459 29.3853 42.3588 28.9122 44.4422 30.4097C46.523 31.908 46.996 34.8105 45.4986 36.893C42.0111 41.7508 39.5977 47.3645 38.5031 53.3062C37.7837 57.2082 37.6352 61.2577 38.1252 65.3365C44.2074 62.7987 50.7655 61.4764 57.399 61.4764C65.8626 61.472 74.4383 63.6248 82.2892 68.1571H82.3079C90.1499 72.685 96.3078 79.043 100.546 86.3888C104.923 93.9783 107.235 102.622 107.235 111.379V114.072L104.923 115.404C97.3384 119.786 88.6934 122.099 79.9177 122.104C71.4425 122.108 62.8606 119.955 55.0088 115.42ZM44.8175 92.5627C48.2481 98.5107 53.2606 103.676 59.6666 107.375C66.0681 111.067 73.0404 112.823 79.9177 112.823C86.1369 112.818 92.2832 111.379 97.8577 108.641C97.4416 102.452 95.6062 96.4077 92.4993 91.0172C89.0686 85.0639 84.0561 79.9037 77.6475 76.2046L77.6528 76.1975C71.2629 72.5072 64.2834 70.7545 57.399 70.7572C51.1798 70.7572 45.0335 72.2004 39.459 74.9366C39.8752 81.1282 41.7078 87.1749 44.8175 92.5627ZM82.3079 184.691C74.4561 189.228 65.8742 191.379 57.399 191.377C50.7655 191.372 44.2074 190.05 38.1252 187.509C37.6352 191.595 37.7837 195.646 38.5031 199.545C39.5977 205.488 42.0111 211.099 45.4986 215.96C46.996 218.041 46.523 220.943 44.4422 222.443C42.3588 223.936 39.459 223.465 37.9633 221.384C33.672 215.407 30.7109 208.514 29.3628 201.22C28.3224 195.57 28.245 189.688 29.2676 183.803C23.6558 181.744 18.5934 178.734 14.2229 175.005C8.57281 170.193 4.0858 164.181 1.05889 157.488C0.00605225 155.146 1.04822 152.391 3.38954 151.333C5.73175 150.278 8.48566 151.322 9.54473 153.664C12.0123 159.124 15.6679 164.021 20.2643 167.946C23.2823 170.516 26.7129 172.665 30.4877 174.279C31.3324 167.741 33.4603 161.401 36.77 155.663C41.0027 148.33 47.1552 141.974 55.0115 137.435L55.0088 137.428C62.8606 132.896 71.4425 130.742 79.9177 130.747C88.6934 130.747 97.3384 133.067 104.923 137.447L107.235 138.781V141.467C107.235 150.231 104.919 158.867 100.546 166.457C96.3078 173.805 90.1499 180.168 82.3079 184.691ZM57.399 182.094C64.2736 182.094 71.2487 180.339 77.6475 176.647C84.0561 172.947 89.0642 167.782 92.4993 161.836C95.6062 156.445 97.4416 150.399 97.8577 144.208C92.2832 141.472 86.1369 140.03 79.9177 140.03C73.0404 140.026 66.0681 141.781 59.6666 145.478H59.6479C53.2606 149.165 48.2552 154.331 44.8175 160.288C41.7078 165.679 39.8752 171.72 39.459 177.912C45.0335 180.651 51.1798 182.089 57.399 182.094ZM155.95 195.697C155.95 204.757 153.523 213.269 149.275 220.618C145.967 226.341 141.537 231.355 136.285 235.357C139.573 237.822 143.151 239.716 146.885 241.044C152.594 243.07 158.667 243.789 164.622 243.197C167.174 242.949 169.449 244.816 169.701 247.367C169.951 249.922 168.085 252.193 165.528 252.446C158.212 253.172 150.771 252.296 143.791 249.814C138.371 247.891 133.233 245.016 128.649 241.187C124.059 245.016 118.922 247.891 113.506 249.814C106.527 252.296 99.0848 253.172 91.7639 252.446C89.2118 252.193 87.3453 249.922 87.5979 247.367C87.8504 244.816 90.1224 242.949 92.6744 243.197C98.6295 243.789 104.703 243.07 110.412 241.044C114.146 239.716 117.722 237.822 121.007 235.357C115.757 231.355 111.329 226.341 108.022 220.618C103.775 213.269 101.348 204.757 101.348 195.697C101.348 186.638 103.775 178.126 108.022 170.778C112.399 163.202 118.73 156.878 126.338 152.489L128.649 151.155L130.959 152.489C138.564 156.878 144.899 163.202 149.275 170.778C153.523 178.126 155.95 186.638 155.95 195.697ZM141.228 215.957C144.665 210.009 146.63 203.094 146.63 195.697C146.63 188.302 144.665 181.382 141.228 175.437C138.107 170.038 133.791 165.426 128.649 161.975C123.504 165.426 119.186 170.038 116.065 175.437C112.631 181.382 110.667 188.302 110.667 195.697C110.667 203.094 112.631 210.009 116.065 215.957C119.186 221.353 123.504 225.965 128.649 229.416C133.791 225.965 138.107 221.353 141.228 215.957ZM179.649 176.647C186.048 180.339 193.023 182.094 199.9 182.094C206.117 182.089 212.266 180.651 217.84 177.912C217.421 171.72 215.589 165.679 212.479 160.288C209.047 154.338 204.036 149.177 197.63 145.478C191.231 141.781 184.256 140.026 177.38 140.03C171.161 140.03 165.014 141.472 159.439 144.208C159.858 150.399 161.69 156.445 164.797 161.836C168.238 167.793 173.243 172.959 179.63 176.647H179.649ZM199.9 191.377C191.422 191.379 182.841 189.228 174.99 184.696L174.994 184.682C167.138 180.147 160.983 173.789 156.753 166.457C152.373 158.867 150.063 150.231 150.063 141.467V138.781L152.373 137.447C159.958 133.067 168.604 130.747 177.38 130.747C185.857 130.742 194.437 132.896 202.29 137.428C210.13 141.956 216.286 148.314 220.527 155.663C223.836 161.401 225.965 167.741 226.807 174.279C230.586 172.667 234.014 170.516 237.031 167.946C241.629 164.026 245.284 159.124 247.752 153.664C248.811 151.322 251.568 150.278 253.908 151.333C256.248 152.391 257.291 155.146 256.239 157.488C253.211 164.181 248.725 170.193 243.075 175.005C238.701 178.734 233.641 181.744 228.03 183.803C229.049 189.688 228.974 195.57 227.937 201.22C226.588 208.514 223.625 215.409 219.333 221.384C217.836 223.465 214.938 223.936 212.855 222.443C210.775 220.943 210.301 218.041 211.799 215.96C215.288 211.099 217.702 205.488 218.796 199.545C219.516 195.646 219.661 191.595 219.172 187.514C213.089 190.05 206.531 191.377 199.9 191.377ZM197.63 107.375C204.036 103.676 209.047 98.5107 212.479 92.5627C215.589 87.1749 217.421 81.1282 217.84 74.9366C212.266 72.2004 206.114 70.7572 199.9 70.7572C193.023 70.7545 186.044 72.5125 179.649 76.2046C173.243 79.9037 168.228 85.0639 164.797 91.0172C161.69 96.4077 159.858 102.452 159.439 108.641C165.014 111.379 171.161 112.818 177.38 112.823C184.263 112.823 191.238 111.072 197.635 107.382L197.63 107.375ZM220.527 97.1857C216.29 104.534 210.13 110.895 202.29 115.42H202.272C194.418 119.955 185.845 122.108 177.38 122.104C168.604 122.099 159.958 119.786 152.373 115.404L150.063 114.068V111.379C150.063 102.622 152.373 93.9783 156.753 86.3888C160.99 79.043 167.145 72.685 174.99 68.1571C182.841 63.6248 191.422 61.472 199.9 61.4764C206.529 61.4764 213.089 62.7987 219.172 65.3365C219.661 61.2577 219.516 57.2082 218.796 53.3062C217.702 47.3645 215.288 41.7508 211.799 36.893C210.301 34.8105 210.775 31.908 212.855 30.4097C214.938 28.9122 217.836 29.3853 219.333 31.4688C223.625 37.4417 226.588 44.3367 227.937 51.6327C228.974 57.2784 229.049 63.165 228.03 69.0499C233.641 71.1076 238.701 74.1149 243.075 77.8461C248.725 82.6603 253.211 88.6723 256.239 95.3646C257.291 97.7051 256.248 100.46 253.908 101.516C251.563 102.572 248.807 101.525 247.752 99.1847C245.284 93.7258 241.629 88.8253 237.032 84.9074C234.014 82.3375 230.586 80.1838 226.807 78.5717C225.965 85.1101 223.836 91.4494 220.527 97.1857ZM92.6744 9.64905C90.1224 9.90159 87.8504 8.03512 87.5979 5.48305C87.3453 2.92921 89.2118 0.652804 91.7639 0.402044C99.0848 -0.321782 106.527 0.552322 113.506 3.03414C118.922 4.95486 124.059 7.83682 128.649 11.6614C133.233 7.83682 138.371 4.95486 143.791 3.03414C150.771 0.552322 158.212 -0.321782 165.528 0.402044C168.085 0.652804 169.951 2.92921 169.701 5.48305C169.449 8.03512 167.174 9.90159 164.622 9.64905C158.667 9.0595 152.594 9.77888 146.885 11.8072C143.151 13.1321 139.573 15.0306 136.285 17.4955C141.537 21.4953 145.967 26.506 149.275 32.2353C153.523 39.582 155.95 48.0927 155.95 57.153C155.95 66.2133 153.523 74.7249 149.275 82.0734C144.899 89.6469 138.564 95.9702 130.959 100.362L128.649 101.696L126.338 100.362C118.73 95.9702 112.399 89.6469 108.022 82.0734C103.775 74.7249 101.348 66.2133 101.348 57.153C101.348 48.0927 103.775 39.582 108.022 32.2353C111.329 26.506 115.757 21.4953 121.007 17.4955C117.722 15.0306 114.146 13.1321 110.412 11.8072C104.703 9.77888 98.6295 9.0595 92.6744 9.64905Z" fill="url(#paint0_linear_37_39212)"/>
<defs>
<linearGradient id="paint0_linear_37_39212" x1="128.646" y1="252.693" x2="128.646" y2="0.155979" gradientUnits="userSpaceOnUse">
<stop stop-color="#D0894A"/>
<stop offset="0.03125" stop-color="#D0894A"/>
<stop offset="0.0390625" stop-color="#D0894B"/>
<stop offset="0.046875" stop-color="#D0894B"/>
<stop offset="0.0546875" stop-color="#D08A4B"/>
<stop offset="0.0625" stop-color="#D18A4C"/>
<stop offset="0.0703125" stop-color="#D18B4C"/>
<stop offset="0.078125" stop-color="#D18B4C"/>
<stop offset="0.0859375" stop-color="#D18B4D"/>
<stop offset="0.09375" stop-color="#D18C4D"/>
<stop offset="0.109375" stop-color="#D18C4D"/>
<stop offset="0.113281" stop-color="#D18D4E"/>
<stop offset="0.117188" stop-color="#D18D4E"/>
<stop offset="0.125" stop-color="#D28D4E"/>
<stop offset="0.140625" stop-color="#D28E4F"/>
<stop offset="0.15625" stop-color="#D38E50"/>
<stop offset="0.160156" stop-color="#D38F50"/>
<stop offset="0.164062" stop-color="#D48F51"/>
<stop offset="0.171875" stop-color="#D48F51"/>
<stop offset="0.175781" stop-color="#D49051"/>
<stop offset="0.179688" stop-color="#D59051"/>
<stop offset="0.1875" stop-color="#D59152"/>
<stop offset="0.195312" stop-color="#D59152"/>
<stop offset="0.203125" stop-color="#D69252"/>
<stop offset="0.210938" stop-color="#D69253"/>
<stop offset="0.21875" stop-color="#D69253"/>
<stop offset="0.226563" stop-color="#D69253"/>
<stop offset="0.234375" stop-color="#D79354"/>
<stop offset="0.242188" stop-color="#D79354"/>
<stop offset="0.25" stop-color="#D89354"/>
<stop offset="0.257812" stop-color="#D89355"/>
<stop offset="0.265625" stop-color="#D99455"/>
<stop offset="0.273438" stop-color="#D99556"/>
<stop offset="0.28125" stop-color="#D99556"/>
<stop offset="0.289062" stop-color="#DA9656"/>
<stop offset="0.296875" stop-color="#DA9657"/>
<stop offset="0.304688" stop-color="#DA9657"/>
<stop offset="0.3125" stop-color="#DA9658"/>
<stop offset="0.328125" stop-color="#DB9758"/>
<stop offset="0.34375" stop-color="#DB9758"/>
<stop offset="0.351562" stop-color="#DC9859"/>
<stop offset="0.359375" stop-color="#DC9859"/>
<stop offset="0.367188" stop-color="#DD9959"/>
<stop offset="0.375" stop-color="#DD995A"/>
<stop offset="0.382812" stop-color="#DD9A5A"/>
<stop offset="0.390625" stop-color="#DD9A5A"/>
<stop offset="0.398438" stop-color="#DE9A5B"/>
<stop offset="0.40625" stop-color="#DE9A5B"/>
<stop offset="0.414062" stop-color="#DF9B5C"/>
<stop offset="0.421875" stop-color="#DF9B5C"/>
<stop offset="0.429688" stop-color="#DF9C5C"/>
<stop offset="0.4375" stop-color="#DF9C5D"/>
<stop offset="0.453125" stop-color="#E09C5D"/>
<stop offset="0.460938" stop-color="#E09D5D"/>
<stop offset="0.46875" stop-color="#E09D5E"/>
<stop offset="0.476562" stop-color="#E19E5E"/>
<stop offset="0.480469" stop-color="#E19E5F"/>
<stop offset="0.484375" stop-color="#E19E5F"/>
<stop offset="0.492187" stop-color="#E19E5F"/>
<stop offset="0.5" stop-color="#E19F60"/>
<stop offset="0.507812" stop-color="#E29F60"/>
<stop offset="0.515625" stop-color="#E29F60"/>
<stop offset="0.523438" stop-color="#E3A060"/>
<stop offset="0.53125" stop-color="#E3A061"/>
<stop offset="0.539062" stop-color="#E4A161"/>
<stop offset="0.542969" stop-color="#E4A162"/>
<stop offset="0.546875" stop-color="#E4A162"/>
<stop offset="0.554688" stop-color="#E4A162"/>
<stop offset="0.5625" stop-color="#E4A163"/>
<stop offset="0.570312" stop-color="#E5A263"/>
<stop offset="0.578125" stop-color="#E5A263"/>
<stop offset="0.585938" stop-color="#E5A363"/>
<stop offset="0.59375" stop-color="#E5A364"/>
<stop offset="0.601562" stop-color="#E6A464"/>
<stop offset="0.609375" stop-color="#E6A464"/>
<stop offset="0.617188" stop-color="#E6A465"/>
<stop offset="0.625" stop-color="#E7A465"/>
<stop offset="0.632812" stop-color="#E7A566"/>
<stop offset="0.640625" stop-color="#E7A566"/>
<stop offset="0.648438" stop-color="#E7A667"/>
<stop offset="0.65625" stop-color="#E8A667"/>
<stop offset="0.664062" stop-color="#E8A667"/>
<stop offset="0.671875" stop-color="#E8A668"/>
<stop offset="0.679688" stop-color="#E8A768"/>
<stop offset="0.6875" stop-color="#E9A769"/>
<stop offset="0.695313" stop-color="#E9A869"/>
<stop offset="0.703125" stop-color="#E9A86A"/>
<stop offset="0.710938" stop-color="#EAA96A"/>
<stop offset="0.71875" stop-color="#EAA96A"/>
<stop offset="0.726562" stop-color="#EAA96B"/>
<stop offset="0.734375" stop-color="#EAA96B"/>
<stop offset="0.742188" stop-color="#EBAA6C"/>
<stop offset="0.75" stop-color="#EBAA6C"/>
<stop offset="0.757812" stop-color="#ECAA6C"/>
<stop offset="0.765625" stop-color="#ECAB6D"/>
<stop offset="0.773438" stop-color="#ECAB6D"/>
<stop offset="0.78125" stop-color="#ECAC6E"/>
<stop offset="0.789062" stop-color="#EDAC6E"/>
<stop offset="0.796875" stop-color="#EDAC6E"/>
<stop offset="0.804688" stop-color="#EDAC6F"/>
<stop offset="0.8125" stop-color="#EDAD6F"/>
<stop offset="0.820312" stop-color="#EEAD6F"/>
<stop offset="0.828125" stop-color="#EEAE6F"/>
<stop offset="0.835938" stop-color="#EFAE70"/>
<stop offset="0.84375" stop-color="#EFAE70"/>
<stop offset="0.851562" stop-color="#EFAF71"/>
<stop offset="0.859375" stop-color="#EFAF71"/>
<stop offset="0.867188" stop-color="#F0AF71"/>
<stop offset="0.875" stop-color="#F0AF72"/>
<stop offset="0.882813" stop-color="#F0B072"/>
<stop offset="0.890625" stop-color="#F0B073"/>
<stop offset="0.898438" stop-color="#F1B173"/>
<stop offset="0.90625" stop-color="#F1B173"/>
<stop offset="0.914062" stop-color="#F1B273"/>
<stop offset="0.921875" stop-color="#F2B274"/>
<stop offset="0.929688" stop-color="#F2B274"/>
<stop offset="0.9375" stop-color="#F2B275"/>
<stop offset="0.945312" stop-color="#F2B375"/>
<stop offset="0.953125" stop-color="#F3B376"/>
<stop offset="0.960938" stop-color="#F3B376"/>
<stop offset="0.96875" stop-color="#F3B476"/>
<stop offset="1" stop-color="#F3B477"/>
</linearGradient>
</defs>
</svg>
