<svg width="220" height="257" viewBox="0 0 220 257" fill="none" xmlns="http://www.w3.org/2000/svg">
<path d="M40.0871 29.5471C39.459 19.4969 40.7152 9.13268 40.7152 9.13268L59.1056 33.6997C61.8973 33.9789 64.9333 34.5721 68.074 35.6539L39.5985 0.199219C35.1667 9.48165 34.05 18.6245 34.3292 26.2668L40.0871 29.5471Z" fill="#F15A29"/>
<path fill-rule="evenodd" clip-rule="evenodd" d="M85.0013 78.6456C85.0013 78.6456 73.5204 78.2966 79.6272 89.8124C81.7908 93.8255 80.6043 99.9323 78.1616 106.109C77.8475 99.6532 75.4397 94.4885 73.1714 89.0796C69.2281 79.7273 78.8944 77.5987 78.8944 77.5987C103.322 68.9793 100.809 68.5954 100.809 68.5954C87.1649 73.2715 79.2783 67.8975 79.2783 67.8975L81.058 66.0829C93.7603 70.8637 101.437 66.6063 105.381 62.8026C107.928 60.3947 107.684 56.6259 104.822 54.602C104.508 54.3577 104.264 54.2181 104.055 54.2181C102.973 54.2181 102.624 59.627 67.0645 59.627C31.5052 59.627 34.3667 83.7055 34.3667 83.7055C40.8225 76.133 53.4201 73.2715 53.4201 73.2715C36.5302 80.8091 40.4735 97.35 40.4735 97.35C45.1496 85.4852 49.8258 82.9727 49.8258 82.9727C49.8258 82.9727 45.4986 96.6172 53.0362 110.262C53.7341 111.553 54.3623 112.879 54.8508 114.24C58.1311 123.278 56.5607 133.293 51.1867 141.215C45.9871 148.822 38.7636 164.177 35.4135 192.861C29.8999 240.076 1.94794 255.431 1.94794 255.431C1.94794 255.431 2.26201 254.977 2.82035 254.174C1.86652 254.942 0.994109 255.617 0.203125 256.198C7.60115 249.533 21.0712 228.281 7.07771 166.096C-2.65837 122.755 -0.285428 97.35 4.14641 82.9727C6.1355 75.5049 10.9512 65.9084 21.4201 54.602C21.4201 54.602 3.48338 37.3632 5.2631 11.1211L47.6622 35.1996C47.6622 35.1996 63.0515 31.8844 76.696 41.3064C78.4757 42.5278 80.0111 43.9935 81.4419 45.5987C82.9075 47.2388 85.8388 49.8212 90.4102 50.2748C97.215 51.0076 111.976 50.2748 111.976 50.2748C111.976 50.2748 121.294 71.4918 85.0013 78.6456ZM44.8007 40.5736L9.59023 19.0426C9.59023 19.0426 16.0461 43.47 25.0144 50.6587C25.0144 50.6587 33.6338 44.5518 44.8007 40.5736Z" fill="#F15A29"/>
<path d="M161.881 177.612C157.833 232.923 113.445 245.137 113.445 245.137C113.445 245.137 114.039 245.241 115.085 245.346C144.747 248.731 163.696 240.67 175.77 228.037C190.078 213.067 194.614 191.64 195.661 175.449C195.836 172.552 195.905 169.83 195.905 167.353C195.905 163.479 196.324 159.885 197.057 156.535C201.768 135.178 219.216 124.256 219.216 124.256C202.326 121.15 165.929 122.301 161.881 177.612Z" fill="#F15A29"/>
<path d="M183.236 139.052C183.236 139.052 178.664 140.797 174.477 142.681C174.477 142.681 185.085 124.221 215.933 124.64C215.933 124.64 195.414 133.713 195.1 157.687C195.1 157.687 188.121 153.325 191.436 142.472C191.436 142.472 182.293 156.814 183.968 165.503C183.968 165.503 173.918 153.534 183.236 139.052Z" fill="white"/>
<path d="M185.434 148.614C185.434 148.614 190.843 135.179 198.73 132.945L197.543 138.703C197.543 138.703 200.474 126.35 215.933 124.64C215.933 124.64 186.865 123.558 174.477 142.682C174.477 142.682 180.2 139.297 183.236 139.052C183.236 139.052 188.819 133.364 192.658 132.841C192.658 132.841 183.166 143.484 185.434 148.614Z" fill="#E6E7E8"/>
<path d="M70.2396 115.287C71.0073 113.856 60.015 144.425 106.078 162.536C152.141 180.648 145.057 207.413 145.057 207.413C145.057 207.413 146.628 246.392 71.8448 249.917C71.8448 249.917 92.8873 246.183 104.892 232.015C104.892 232.015 29.8994 191.78 70.2396 115.287Z" fill="#F15A29"/>
</svg>
