<svg width="257" height="257" viewBox="0 0 257 257" fill="none" xmlns="http://www.w3.org/2000/svg">
<path fill-rule="evenodd" clip-rule="evenodd" d="M184.498 4.15916L253.041 72.7024C255.115 74.7764 256.3 77.5419 256.3 80.4061V177.394C256.3 180.357 255.115 183.122 253.041 185.097L184.498 253.739C182.423 255.813 179.658 256.9 176.794 256.9H79.8062C76.8432 256.9 74.0778 255.813 72.1025 253.739L3.46049 185.097C1.38642 183.122 0.299988 180.357 0.299988 177.394V80.4061C0.299988 77.5419 1.38642 74.7764 3.46049 72.7024L72.1025 4.15916C74.0778 2.08508 76.8432 0.899902 79.8062 0.899902H176.794C179.658 0.899902 182.423 2.08508 184.498 4.15916ZM154.177 216.406C163.954 226.184 179.757 226.184 189.535 216.406L230.226 175.715C232.3 173.641 233.485 170.875 233.485 168.011V89.8876C233.485 86.9246 232.3 84.1592 230.226 82.1838L175.016 26.8752C172.942 24.8999 170.177 23.7147 167.312 23.7147H89.1889C86.3247 23.7147 83.5593 24.8999 81.4852 26.8752L26.2753 82.1838C24.2012 84.1592 23.1148 86.9246 23.1148 89.8876V168.011C23.1148 170.875 24.2012 173.641 26.1765 175.715L66.6704 217.097C76.0531 226.776 91.5593 226.875 101.14 217.394L128.3 190.53L154.177 216.406Z" fill="url(#paint0_linear_1_496)"/>
<path d="M145.584 78.9246H110.917C108.744 78.9246 106.67 79.7147 105.189 81.2949L80.5963 105.789C79.1148 107.369 78.2259 109.443 78.2259 111.517V146.283C78.2259 148.455 79.1148 150.529 80.5963 152.011L105.189 176.604C106.67 178.085 108.744 178.974 110.917 178.974H145.584C147.757 178.974 149.831 178.085 151.312 176.604L175.905 152.011C177.386 150.529 178.275 148.455 178.275 146.283V111.517C178.275 109.443 177.386 107.369 175.905 105.789L151.312 81.2949C149.831 79.7147 147.757 78.9246 145.584 78.9246Z" fill="url(#paint1_linear_1_496)"/>
<defs>
<linearGradient id="paint0_linear_1_496" x1="148.903" y1="-106.433" x2="358.042" y2="102.705" gradientUnits="userSpaceOnUse">
<stop stop-color="#F29B75"/>
<stop offset="1" stop-color="#C61D99"/>
</linearGradient>
<linearGradient id="paint1_linear_1_496" x1="70.9252" y1="-28.4542" x2="280.064" y2="180.684" gradientUnits="userSpaceOnUse">
<stop stop-color="#F29B75"/>
<stop offset="1" stop-color="#C61D99"/>
</linearGradient>
</defs>
</svg>
