<svg width="257" height="140" viewBox="0 0 257 140" fill="none" xmlns="http://www.w3.org/2000/svg">
<path d="M10.1875 69.2656C11.1253 69.7814 12.2787 70.0252 13.0758 70.7285C17.0614 82.2163 22.9975 93.0569 30.781 102.407C36.764 109.74 44.0599 115.901 51.9934 121.04C48.5049 119.737 44.932 118.48 41.7717 116.492C36.2013 111.765 31.0154 106.561 26.5985 100.737C19.2933 91.3314 13.9761 80.5189 10.1875 69.2656Z" fill="#F8EED8"/>
<path d="M23.625 74.6016C24.6003 74.911 25.5943 75.1642 26.5602 75.5018C34.0999 91.6597 45.9158 105.876 60.6951 115.901C68.1411 121.031 76.3278 125.007 84.8428 128.026C81.7481 127.792 78.5972 127.511 75.587 126.751C63.9774 121.462 53.2492 114.176 44.331 105.032C35.6472 96.2547 28.7077 85.8361 23.625 74.6016Z" fill="#F8EED8"/>
<path d="M38.0781 78.334C38.9034 78.4465 39.7255 78.5778 40.5445 78.7278C42.6169 81.6443 44.4831 84.7202 46.7056 87.5242C54.0484 97.1926 63.3417 105.295 73.6291 111.7C81.0281 116.182 88.9148 119.962 97.1953 122.475C98.33 123.469 99.2209 124.726 100.271 125.823C90.0776 122.775 80.2122 118.518 71.2471 112.778C62.207 107.03 53.9827 99.9496 47.1839 91.6504C43.8173 87.4585 40.5445 83.1166 38.0781 78.334Z" fill="#F8EED8"/>
<path d="M51.9844 79.9277C52.9128 79.9277 53.8318 79.9746 54.7508 80.0309C63.7816 91.528 75.4943 100.793 88.5294 107.367C88.8951 108.361 89.3171 109.336 89.6641 110.349C74.9786 103.335 61.6716 93.0753 51.9844 79.9277Z" fill="#F8EED8"/>
<path d="M122.984 109.082C129.577 111.004 136.423 111.858 143.259 112.28C150.086 112.561 156.979 112.252 163.693 110.939C162.211 111.914 160.673 112.833 159.117 113.696C155.084 114.39 150.958 114.493 146.879 114.53C139.058 114.484 131.237 113.499 123.65 111.623C123.416 110.779 123.2 109.935 122.984 109.082Z" fill="#F8EED8"/>
<path d="M125.562 119.295C125.769 119.548 126.041 119.689 126.369 119.717C131.517 120.589 136.722 121.114 141.945 121.199C140.286 121.874 138.551 122.352 136.844 122.896C133.374 123.093 129.933 122.324 126.491 121.93L126.36 121.911C126.05 121.049 125.825 120.167 125.562 119.295Z" fill="#F8EED8"/>
<path fill-rule="evenodd" clip-rule="evenodd" d="M168.557 1.07014C168.82 0.207385 169.945 -0.083327 170.63 0.469959C171.952 1.48275 172.74 3.00195 173.874 4.19292C176.425 7.1938 179.979 9.30378 183.824 10.1196C187.191 10.8792 190.698 10.6729 194.036 11.592C201.745 13.4769 208.309 19.7318 210.222 27.4872C216.083 21.0072 225.921 18.5971 234.182 21.3354C236.274 22.0012 238.309 22.9578 240.522 23.2203C244.339 23.8018 248.23 22.8734 251.709 21.3073C252.807 20.8478 253.969 20.1632 255.207 20.4727C256.023 20.6696 256.567 21.4386 256.727 22.2357C256.68 23.8205 256.136 25.3397 255.592 26.812C253.182 32.9356 248.934 38.4122 243.316 41.8914C237.596 45.4737 230.731 46.8241 224.055 46.7021C220.791 46.5334 217.228 46.0645 214.283 47.8181C211.554 49.4873 210.297 52.6383 209.482 55.5829C206.293 67.5957 200.498 78.8771 192.695 88.5362C185.25 97.8014 176.2 105.735 166.203 112.131C154.678 119.389 141.821 124.472 128.533 127.388C129.855 130.408 131.965 133.287 132.012 136.691C132.087 138.332 130.502 139.42 128.983 139.476C124.529 139.814 120.102 138.576 116.023 136.878C112.31 135.2 108.737 133.118 105.651 130.436C91.9599 131.289 78.1184 130.351 64.7551 127.144C52.067 124.218 39.6416 119.436 29.0635 111.727C19.5732 104.957 11.7522 95.8133 6.76325 85.254C3.71549 78.8302 1.81181 71.872 1.07097 64.8012C-0.0356002 54.5701 1.50235 43.9639 6.00366 34.6612C8.31058 29.916 11.5271 25.5835 15.5783 22.17C19.9108 18.4846 25.0967 15.8869 30.5452 14.2927C38.4412 11.9858 46.7217 11.2731 54.9273 11.3294C63.9486 11.5732 72.9606 12.8861 81.6163 15.5025C93.104 18.916 103.851 24.5426 113.641 31.4165C124.529 38.9937 134.657 47.6868 146.248 54.2137C152.662 57.8148 159.62 60.7781 167 61.519C174.943 62.4005 183.233 59.9623 189.273 54.7014C191.495 52.732 193.643 50.4532 194.571 47.5649C195.415 44.986 194.73 41.9289 192.742 40.0534C190.614 37.9996 187.772 37.0337 185.165 35.7677C180.373 33.5358 175.956 30.3005 172.89 25.9399C168.735 20.2945 167.094 13.0549 167.61 6.12473C167.769 4.41799 167.966 2.6831 168.557 1.07014ZM170.133 3.50834C169.326 9.15374 169.767 15.118 172.243 20.3132C174.484 25.4053 178.554 29.5409 183.355 32.2792C186.872 34.4361 191.111 35.4114 194.168 38.2997C196.606 40.5316 197.609 44.1045 196.925 47.3211C196.465 49.6468 195.143 51.7005 193.643 53.501C189.132 58.7338 182.746 62.3067 175.928 63.4414C170.48 64.4261 164.825 63.8634 159.526 62.3348C152.662 60.4311 146.313 57.0552 140.311 53.2759C129.752 46.6459 120.215 38.5623 109.899 31.5759C104.17 27.7685 98.1492 24.3832 91.8474 21.6261C76.074 14.7898 58.472 12.1452 41.4046 14.3209C36.3594 14.9961 31.3423 16.1026 26.6253 18.0626C22.0396 19.9194 17.8571 22.7421 14.4249 26.3056C9.17333 31.8572 5.93801 39.0593 4.28753 46.4583C3.14345 51.6911 2.64643 57.1208 3.23723 62.4474C4.78455 63.7884 6.64134 64.7355 8.42311 65.7389C12.9338 68.1771 17.6602 70.1934 22.5178 71.8251C28.2664 73.7006 34.0993 75.4168 40.0823 76.3452C47.4532 77.6862 55.021 78.2301 62.4857 77.4236C63.3766 77.3955 64.7645 76.739 65.2334 77.855C69.3127 85.7698 76.8242 91.4902 85.011 94.6786C85.8269 95.2225 87.1397 94.3598 87.6555 95.3538C88.0681 96.3009 88.1432 97.3512 88.3495 98.3547C89.0528 101.984 90.1406 105.538 91.566 108.951C96.0298 119.201 104.057 127.754 113.754 133.24C118.058 135.556 122.841 137.197 127.764 137.282C128.42 137.235 129.171 137.366 129.761 137C130.099 136.044 129.565 135.059 129.274 134.168C127.848 130.905 126.076 127.791 124.885 124.443C124.107 122.296 123.469 120.092 122.85 117.898C121.969 114.512 121.387 111.024 120.112 107.751C119.033 104.919 117.205 102.378 114.813 100.521C114.457 100.221 114.073 99.9301 113.81 99.5456C113.304 98.8235 114.194 97.6044 115.029 97.9514C116.426 98.5703 117.252 99.9958 118.574 100.718C126.329 102.64 134.291 103.841 142.29 103.859C156.694 104.075 171.305 100.98 183.937 93.9378C185.278 93.2626 186.581 92.4373 187.538 91.2557C191.72 86.4356 195.565 81.2966 198.753 75.7637C202.505 69.3494 205.346 62.4098 207.287 55.2359C208 52.6945 208.91 50.125 210.607 48.0525C212.06 46.252 214.199 45.0517 216.468 44.6203C219.731 43.9451 223.061 44.6109 226.352 44.4421C232.457 44.2171 238.693 42.6135 243.673 38.9468C248.634 35.3739 252.291 30.0848 254.101 24.2613C254.26 23.7455 254.42 23.211 254.354 22.6577C249.843 24.8052 244.789 26.2681 239.772 25.3772C236.499 24.8989 233.582 23.1266 230.291 22.7046C223.604 21.7105 216.309 24.0456 211.817 29.1752C211.141 29.8504 210.701 31.1914 209.538 30.9663C208.337 30.835 208.3 29.4378 208.094 28.5375C206.574 21.3166 200.488 15.4837 193.38 13.7863C189.807 12.8861 186.065 13.1018 182.511 12.1265C177.916 11.0105 173.846 8.16908 171.061 4.38048C170.789 4.04288 170.592 3.60212 170.133 3.50834ZM3.49043 65.4482C4.24064 73.1661 6.77263 80.6683 10.4675 87.4765C15.5408 96.8824 23.0617 104.891 31.8956 110.883C35.0277 113.012 38.2349 115.085 41.7703 116.491C44.9306 118.479 48.5035 119.736 51.992 121.039C54.2333 121.865 56.5215 122.54 58.8096 123.215C64.3144 124.715 69.8753 126.263 75.5864 126.75C78.5966 127.51 81.7475 127.791 84.8422 128.026C90.8064 128.607 96.8269 128.617 102.81 128.307C102.013 127.426 101.141 126.61 100.269 125.822C99.2182 124.725 98.3274 123.468 97.1927 122.474C94.2387 118.732 91.6317 114.681 89.6623 110.349C89.3154 109.336 88.8934 108.361 88.5276 107.367C87.4117 104.122 86.5302 100.802 85.9019 97.4356C76.693 94.3129 68.2811 88.1517 63.5079 79.5805C60.6008 79.9743 57.6749 80.0118 54.7491 80.0306C53.8301 79.9743 52.911 79.9274 51.9826 79.9274C48.1472 79.8055 44.3304 79.3179 40.5418 78.7271C39.7228 78.577 38.9007 78.4458 38.0755 78.3332C34.2025 77.508 30.3482 76.6359 26.5596 75.5012C25.5937 75.1636 24.5997 74.9103 23.6244 74.6009C20.0327 73.5037 16.6005 71.9845 13.0745 70.7279C12.2774 70.0246 11.1239 69.7807 10.1861 69.265C7.89795 68.1021 5.63793 66.8549 3.49043 65.4482ZM165.369 103.531C150.702 107.16 135.229 106.851 120.543 103.494C121.631 105.21 122.428 107.104 122.944 109.073L122.981 109.083C123.197 109.936 123.413 110.78 123.647 111.624C124.219 114.203 124.866 116.754 125.56 119.295C125.823 120.167 126.048 121.049 126.357 121.912L126.489 121.93C126.77 123.018 127.22 124.04 127.633 125.072C130.765 124.659 133.719 123.384 136.842 122.896C138.548 122.352 140.283 121.874 141.943 121.199C147.879 119.229 153.572 116.585 159.114 113.697C160.67 112.834 162.208 111.915 163.69 110.94C166.85 109.111 169.804 106.973 172.721 104.797C175.309 102.697 178.047 100.765 180.326 98.3172C175.525 100.53 170.526 102.35 165.369 103.531ZM136.842 122.896L136.945 122.877C136.914 122.884 136.879 122.89 136.842 122.896Z" fill="#192538"/>
<path d="M68.8414 19.4044C69.601 18.9918 70.5387 19.5826 70.6325 20.4078C70.8294 21.4581 69.2446 22.3959 68.5131 21.4957C67.8848 20.933 68.063 19.7514 68.8414 19.4044Z" fill="#192538"/>
<path d="M61.9639 20.0978C62.5922 19.5821 63.5769 19.929 63.8676 20.6511C64.3365 21.5514 63.3237 22.7236 62.3859 22.4235C61.3919 22.1609 61.0824 20.6699 61.9639 20.0978Z" fill="#192538"/>
<path d="M70.1478 67.8296C71.7701 67.1919 73.8613 68.1953 74.1896 69.9583C74.6303 71.7213 73.2049 73.5781 71.4138 73.7C69.5945 73.9064 67.944 72.1809 68.1503 70.3803C68.2253 69.2269 69.0693 68.2235 70.1478 67.8296Z" fill="#192538"/>
<path fill-rule="evenodd" clip-rule="evenodd" d="M170.13 3.50781C170.59 3.60159 170.787 4.04235 171.058 4.37995C173.844 8.16855 177.914 11.01 182.509 12.1259C186.063 13.1012 189.805 12.8855 193.377 13.7858C200.486 15.4832 206.572 21.3161 208.091 28.537C208.297 29.4372 208.335 30.8345 209.535 30.9658C210.698 31.1909 211.139 29.8499 211.814 29.1747C216.306 24.045 223.602 21.71 230.288 22.704C233.58 23.126 236.496 24.8984 239.769 25.3767C244.786 26.2676 249.85 24.8046 254.351 22.6571C254.417 23.2104 254.258 23.7449 254.098 24.2607C252.288 30.0843 248.631 35.3733 243.67 38.9462C238.691 42.6129 232.454 44.2165 226.35 44.4416C223.058 44.6104 219.729 43.9446 216.465 44.6198C214.196 45.0511 212.058 46.2515 210.604 48.052C208.907 50.1245 207.997 52.694 207.285 55.2353C205.343 62.4093 202.502 69.3488 198.751 75.7632C195.562 81.296 191.718 86.435 187.535 91.2552C186.579 92.4368 185.284 93.262 183.934 93.9372C171.302 100.98 156.692 104.075 142.288 103.859C134.288 103.84 126.327 102.64 118.571 100.717C117.249 99.9952 116.424 98.5698 115.027 97.9509C114.192 97.6039 113.301 98.823 113.807 99.5451C114.07 99.9296 114.455 100.22 114.811 100.52C117.202 102.377 119.031 104.919 120.109 107.751C121.385 111.023 121.966 114.512 122.848 117.897C123.467 120.092 124.104 122.295 124.883 124.443C126.074 127.791 127.846 130.904 129.271 134.168C129.562 135.059 130.097 136.043 129.759 137C129.168 137.365 128.418 137.234 127.762 137.281C122.838 137.197 118.056 135.556 113.751 133.239C104.055 127.753 96.0273 119.201 91.5635 108.951C90.1381 105.537 89.0502 101.983 88.3469 98.3541C88.1406 97.3507 88.0656 96.3004 87.653 95.3533C87.1372 94.3592 85.8243 95.222 85.0084 94.6781C76.8217 91.4896 69.3101 85.7692 65.2308 77.8544C64.7619 76.7385 63.374 77.3949 62.4831 77.4231C55.0185 78.2295 47.4507 77.6856 40.0798 76.3446C34.0968 75.4162 28.2638 73.7001 22.5153 71.8245C17.6576 70.1928 12.9312 68.1766 8.42055 65.7384C6.63878 64.735 4.78199 63.7878 3.23467 62.4468C2.64387 57.1203 3.14089 51.6906 4.28498 46.4578C5.93546 39.0588 9.17077 31.8567 14.4223 26.3051C17.8545 22.7415 22.037 19.9188 26.6227 18.062C31.3397 16.1021 36.3568 14.9955 41.402 14.3203C58.4695 12.1447 76.0715 14.7892 91.8448 21.6256C98.1466 24.3826 104.167 27.768 109.897 31.5753C120.212 38.5618 129.75 46.6454 140.309 53.2754C146.311 57.0546 152.659 60.4306 159.524 62.3343C164.822 63.8629 170.477 64.4255 175.926 63.4409C182.743 62.3061 189.129 58.7332 193.64 53.5005C195.14 51.6999 196.463 49.6462 196.922 47.3206C197.607 44.104 196.603 40.5311 194.165 38.2992C191.108 35.4108 186.869 34.4356 183.353 32.2787C178.551 29.5404 174.481 25.4048 172.24 20.3127C169.764 15.1174 169.324 9.1532 170.13 3.50781ZM68.8412 19.4031C68.0629 19.75 67.8847 20.9316 68.513 21.4943C69.2445 22.3946 70.8293 21.4568 70.6324 20.4065C70.5386 19.5812 69.6008 18.9904 68.8412 19.4031ZM61.958 20.097C61.0765 20.6691 61.3859 22.1601 62.38 22.4227C63.3271 22.7228 64.3306 21.5506 63.8617 20.6503C63.571 19.9282 62.5863 19.5812 61.958 20.097ZM70.1447 67.8296C69.0663 68.2235 68.2223 69.2269 68.1473 70.3804C67.941 72.1809 69.5915 73.9064 71.4107 73.7001C73.2019 73.5782 74.6273 71.7214 74.1865 69.9584C73.8583 68.1954 71.7671 67.1919 70.1447 67.8296Z" fill="#284A6F"/>
<path d="M3.49219 65.4473C5.63969 66.8539 7.89972 68.1012 10.1879 69.264C13.9765 80.5173 19.2937 91.3298 26.5989 100.736C31.0158 106.559 36.2017 111.764 41.7721 116.49C38.2367 115.084 35.0295 113.011 31.8973 110.882C23.0635 104.89 15.5426 96.8814 10.4692 87.4755C6.77439 80.6673 4.24241 73.1651 3.49219 65.4473Z" fill="#EC4E40"/>
<path d="M13.0781 70.7285C16.6041 71.9851 20.0364 73.5043 23.6281 74.6015C28.7108 85.836 35.6503 96.2547 44.3341 105.032C53.2523 114.176 63.9804 121.462 75.59 126.751C69.879 126.263 64.318 124.716 58.8133 123.216C56.5251 122.54 54.237 121.865 51.9957 121.04C44.0621 115.901 36.7663 109.74 30.7833 102.406C22.9998 93.0569 17.0637 82.2162 13.0781 70.7285Z" fill="#EC4E40"/>
<path d="M26.5625 75.502C30.3511 76.6367 34.2053 77.5088 38.0783 78.334C40.5447 83.1167 43.8175 87.4585 47.1841 91.6504C53.983 99.9497 62.2072 107.03 71.2474 112.778C68.0214 113.838 64.7861 115.245 61.3164 115.02C61.1038 115.314 60.8975 115.607 60.6974 115.901C45.9181 105.876 34.1022 91.6598 26.5625 75.502Z" fill="#F7AF4B"/>
<path d="M54.75 80.0302C57.6759 80.0114 60.6017 79.9739 63.5088 79.5801C68.2821 88.1513 76.6939 94.3125 85.9028 97.4353C86.5405 100.802 87.4126 104.122 88.5286 107.366C75.4935 100.792 63.7808 91.5273 54.75 80.0302Z" fill="#F7AF4B"/>
<path d="M40.5391 78.7266C44.3277 79.3174 48.1444 79.805 51.9799 79.9269C61.6671 93.0745 74.9741 103.334 89.6596 110.348C91.6289 114.681 94.2359 118.732 97.1899 122.474C88.9094 119.96 81.0227 116.181 73.6237 111.699C63.3363 105.294 54.043 97.1913 46.7002 87.5229C44.4777 84.7189 42.6115 81.643 40.5391 78.7266Z" fill="#3092CF"/>
<path d="M165.372 103.53C170.53 102.349 175.528 100.53 180.33 98.3164C178.051 100.764 175.313 102.696 172.725 104.796C169.808 106.972 166.854 109.11 163.694 110.939C156.979 112.252 150.087 112.561 143.26 112.28C136.423 111.858 129.578 111.004 122.985 109.082L122.948 109.073C122.432 107.103 121.635 105.209 120.547 103.493C135.232 106.85 150.706 107.16 165.372 103.53Z" fill="#3092CF"/>
<path d="M126.492 121.93C129.934 122.324 133.385 123.093 136.845 122.896L136.948 122.877C133.788 123.355 130.806 124.659 127.636 125.071C127.224 124.04 126.774 123.018 126.492 121.93Z" fill="#3092CF"/>
<path d="M123.648 111.625C131.235 113.501 139.056 114.485 146.877 114.532C150.956 114.495 155.083 114.391 159.115 113.697C153.573 116.586 147.88 119.23 141.944 121.2C136.721 121.115 131.516 120.59 126.368 119.718C126.04 119.69 125.768 119.549 125.561 119.296C124.868 116.755 124.22 114.204 123.648 111.625Z" fill="#F3943A"/>
<path d="M61.3143 115.019C64.784 115.244 68.0193 113.837 71.2453 112.777C80.2104 118.517 90.0757 122.774 100.269 125.822C101.141 126.609 102.014 127.425 102.811 128.307C96.8277 128.616 90.8072 128.607 84.843 128.026C76.328 125.006 68.1412 121.03 60.6953 115.9C60.8954 115.606 61.1017 115.312 61.3143 115.019Z" fill="#F3943A"/>
</svg>
