<svg width="257" height="201" viewBox="0 0 257 201" fill="none" xmlns="http://www.w3.org/2000/svg">
<path fill-rule="evenodd" clip-rule="evenodd" d="M95.0401 45.3558C114.413 59.6041 129.816 81.7614 145.042 99.9493C159.557 117.278 173.835 136.296 195.015 145.715C218.268 156.083 249.845 140.946 242.321 118.345C225.2 134.518 195.104 129.186 182.336 111.295C189.268 110.643 196.288 108.599 203.842 102.971C209.352 98.8533 214.891 95.0025 221.645 95.2098C222 89.2854 222.356 83.8349 222.652 78.3548C223.126 68.4018 220.786 60.1373 217.32 50.984C229.465 53.6796 241.906 64.7879 247.89 74.9779C254.407 86.1158 256.451 97.7277 250.467 109.665C260.509 130.312 257.991 150.751 247.979 166.629C238.944 180.877 217.439 196.902 188.646 196.014C200.199 192.252 210.626 186.712 219.394 177.944C196.792 180.847 176.856 173.086 157.809 161.741C164.77 173.916 169.688 186.179 171.287 200.457C127.861 190.504 110.681 156.32 115.479 117.515C114.265 119.618 113.021 121.692 111.51 124.269C93.8552 108.895 57.0942 65.173 34.7591 65.2323C26.3464 65.2619 20.185 69.4682 17.3709 77.4069C14.6753 84.9606 14.9123 92.6327 16.8377 100.334C20.7775 116.123 29.2198 129.453 40.2096 141.094C65.5661 167.962 83.7541 176.493 115.805 192.281C86.3904 189.645 50.2811 169.443 26.7908 143.849C9.87654 125.395 -2.74249 96.9871 1.78969 72.075C10.0543 26.7235 61.7744 20.9472 95.0401 45.3558ZM111.303 88.9003C111.362 86.3824 109.407 84.3089 106.919 84.3089C104.578 84.3089 102.771 86.027 102.623 88.456C102.446 91.0331 104.223 93.1066 106.741 93.2548C109.17 93.4029 111.243 91.4182 111.303 88.9003Z" fill="#5980B3"/>
<path d="M96.4922 37.2096C96.4922 35.2546 99.484 15.5558 111.718 8.97974C123.981 2.40363 133.846 13.897 126.825 19.1401C119.805 24.3536 105.142 20.0288 96.4922 37.2096Z" fill="#5980B3"/>
<path d="M97.2894 23.525C97.6745 22.3698 99.6592 10.1062 93.6755 3.88559C87.6622 -2.36467 79.6346 2.58221 82.7746 7.02553C85.9441 11.4688 95.4528 11.6762 97.2894 23.525Z" fill="#5980B3"/>
</svg>
