<svg width="195" height="257" viewBox="0 0 195 257" fill="none" xmlns="http://www.w3.org/2000/svg">
<path d="M147.06 134.232C147.462 133.282 147.81 132.331 148.102 131.381C144.373 137.851 137.903 142.512 130.939 145.363C123.208 148.489 114.819 149.64 106.539 150.737C109.5 152.93 113.174 153.752 116.902 153.807C120.96 152.985 124.908 151.943 128.746 150.353C136.478 147.227 143.606 141.799 147.06 134.232Z" fill="#AF7212"/>
<path d="M184.51 133.739C184.436 133.593 184.345 133.446 184.235 133.3C175.462 119.647 161.206 109.667 145.414 106.158C147.498 108.023 149.033 110.435 149.965 113.067C163.07 117.618 174.585 126.611 182.097 138.29C182.17 138.436 182.261 138.582 182.371 138.729C187.47 146.899 190.596 156.275 191.583 165.871C192.424 166.565 193.246 167.278 194.05 168.009C194.215 156.001 190.925 143.938 184.51 133.739Z" fill="#AF7212"/>
<path d="M182.094 138.289C174.582 126.61 163.067 117.617 149.962 113.066C151.772 118.166 151.498 124.197 149.195 129.187C148.866 129.918 148.5 130.649 148.098 131.38C147.806 132.331 147.458 133.281 147.056 134.232C143.602 141.799 136.474 147.227 128.742 150.352C124.904 151.943 120.956 152.984 116.898 153.807C117.922 153.843 118.946 153.807 119.969 153.697C124.63 153.259 129.126 151.833 133.732 150.901C153.91 146.843 175.788 152.655 191.58 165.87C190.593 156.274 187.468 146.898 182.368 138.728C182.259 138.582 182.167 138.436 182.094 138.289Z" fill="#EF9A1F"/>
<path fill-rule="evenodd" clip-rule="evenodd" d="M111.805 120.578C111.805 124.691 108.515 127.981 104.402 127.981C100.29 127.981 97 124.691 97 120.578C97 116.521 100.29 113.176 104.402 113.176C108.515 113.176 111.805 116.521 111.805 120.578ZM107.528 117.453C107.528 115.753 106.102 114.327 104.402 114.327C102.703 114.327 101.277 115.753 101.277 117.453C101.277 119.207 102.703 120.578 104.402 120.578C106.102 120.578 107.528 119.207 107.528 117.453Z" fill="#231F20"/>
<path d="M48.8584 179.687C51.4355 167.076 57.3026 156.603 64.376 147.336C62.9138 145.655 61.5795 143.9 60.3732 142.072C54.8351 148.268 49.7357 154.793 45.5136 162.196C38.6596 174.204 33.8892 190.599 40.3594 208.474C46.0619 226.898 69.9689 241.593 78.1389 237.535C52.587 224.65 44.3621 198.166 48.8584 179.687Z" fill="#57585A"/>
<path d="M66.6729 167.185C68.2083 162.908 70.0726 158.796 72.2659 154.903C69.9081 153.038 67.7148 151.01 65.7408 148.871C63.4378 152.271 61.1897 155.725 59.1609 159.344C54.226 168.172 50.1135 178.371 51.1005 190.215C51.9778 205.732 64.5893 221.579 80.2166 227.446C60.7511 206.939 60.8059 184.841 66.6729 167.185Z" fill="#6C6E70"/>
<path d="M41.5089 124.198C46.06 121.676 50.2272 120.36 54.2848 119.482C58.1231 110.161 64.2095 101.991 71.7764 95.8496C67.2253 96.0141 62.7839 96.6172 58.6166 97.8784C39.4801 102.649 16.6698 135.219 19.1373 158.907C21.5499 142.293 32.6809 129.133 41.5089 124.198Z" fill="#231F20"/>
<path d="M163.841 189.394C160.935 184.185 155.068 183.582 149.804 182.814C145.472 182.266 140.756 181.169 138.234 177.605C137.978 177.313 137.759 176.984 137.576 176.618C136.754 175.028 136.589 173.109 136.973 171.3C137.686 167.9 137.576 164.446 135.547 161.649C133.464 158.743 129.845 157.372 126.281 156.988C122.716 156.605 119.152 156.988 115.588 156.933C111.311 156.824 107.089 156.001 103.141 154.466C101.021 153.589 98.974 152.583 97 151.45C95.1357 150.299 93.3262 148.983 91.6813 147.502C87.4592 143.719 84.1144 138.894 82.0308 133.63C81.4276 131.546 81.0438 129.408 81.0438 127.269C81.0438 125.24 81.3728 123.266 81.9211 121.347C83.1822 117.235 85.7045 113.506 88.9396 110.71C92.3392 107.749 96.5065 105.72 101.003 105.336C111.86 104.349 122.716 112.629 124.581 123.321C125.403 127.982 124.636 133.081 121.839 136.92C119.097 140.758 114.217 143.171 109.502 142.458C121.017 147.064 135.273 139.003 138.837 127.16C142.456 115.316 136.37 101.772 126.006 94.918C115.643 88.1188 101.99 87.5157 90.2556 91.4636C75.6154 96.3986 63.9361 108.571 58.5625 122.937C62.8394 134.891 72.4351 144.651 83.7306 150.573C91.4619 154.631 99.961 157.043 108.624 158.249C111.037 158.871 113.468 159.419 115.917 159.894C117.288 160.169 118.714 160.443 120.139 160.827C123.868 161.759 124.526 166.803 121.181 168.777H121.126C108.186 176.344 99.1385 190.107 97.329 204.967C95.5195 219.826 101.058 235.344 111.805 245.762C117.343 251.081 124.252 255.084 131.819 256.29C139.385 257.441 147.61 255.522 153.258 250.313C158.906 245.159 161.483 236.605 158.851 229.422C156.164 222.074 149.036 217.468 142.511 213.082C136.041 208.695 129.241 203.212 128.035 195.481C131.38 200.69 136.589 204.802 142.511 206.667C146.569 207.982 151.01 208.311 155.068 206.996C161.044 205.131 166.034 199.593 164.937 192.684C164.773 191.533 164.389 190.436 163.841 189.394Z" fill="#231F20"/>
<path d="M37.398 167.626C42.4975 155.947 49.9547 146.296 58.4537 139.004C57.7957 137.87 57.1926 136.719 56.6442 135.549L53.7929 129.518C51.9286 130.34 50.0643 131.217 48.2 132.259C41.2911 135.988 33.7243 141.8 28.241 152.602C17.6584 171.574 23.1964 201.677 37.1239 213.85C28.9538 197.016 31.9148 180.073 37.398 167.626Z" fill="#403F40"/>
<path d="M164.387 45.7324C158.959 44.3068 154.901 51.8736 150.953 54.3411C144.319 58.5083 138.507 51.5446 136.094 45.8969C132.694 37.8913 132.804 28.6247 128.253 21.0578C124.579 14.9166 116.628 11.0235 112.132 18.8645C108.952 24.4574 110.597 31.9695 106.759 37.1786C101.275 44.6358 92.7762 36.0819 88.5541 31.8598C81.8646 25.1702 75.175 18.4807 68.4855 11.7911C63.8247 7.18522 56.5869 -2.30081 48.9652 1.48262C40.3016 5.86922 46.388 17.1099 48.3072 23.6349C49.5135 27.9119 49.5135 31.805 49.6231 36.1916C49.678 40.1943 49.349 44.0875 46.6622 47.3226C41.9466 52.9155 32.5154 53.6283 25.771 54.4508C18.0945 55.3829 9.81479 56.8085 5.04437 63.6626C-3.016 75.1774 -0.548546 95.9041 13.7079 101.113C29.3351 106.925 43.5367 95.904 55.7095 87.5695C71.2271 76.9869 91.6248 70.078 110.597 71.7778C128.143 73.368 143.716 83.7313 152.269 99.1392C152.379 96.9459 154.737 93.8204 155.669 91.9013C158.082 86.747 160.439 81.538 162.688 76.2741C164.881 71.0101 167.019 65.6914 168.555 60.2082C169.871 55.4378 170.803 47.4871 164.387 45.7324Z" fill="#DD2134"/>
</svg>
