<svg width="257" height="257" viewBox="0 0 257 257" fill="none" xmlns="http://www.w3.org/2000/svg">
<path d="M102.169 3.47937C144.095 -5.44589 197.302 8.69693 227.608 48.2667C250.17 76.2157 260.946 113.596 254.043 151.817C250.339 172.19 241.92 190.542 230.134 206.201C226.934 209.904 224.577 212.767 222.725 214.957C223.398 212.767 223.567 210.578 221.211 209.231C214.308 211.251 220.368 217.481 214.981 223.207C217.505 216.304 209.929 209.904 221.715 204.348C209.761 204.685 207.402 211.588 206.729 214.957C206.056 220.007 211.445 224.723 208.414 228.594C206.562 220.344 200.836 221.523 200.499 215.63C200.163 212.6 202.185 209.231 203.362 205.358C199.659 208.894 195.616 208.558 194.776 213.104C193.596 225.396 202.689 227.583 200.669 234.319C198.649 228.594 196.965 228.932 193.596 224.049C193.933 234.656 187.703 231.793 181.81 235.666C179.117 237.686 178.443 240.718 176.423 247.452C175.413 240.382 176.927 232.466 185.01 230.783C190.733 229.773 188.546 226.237 188.04 221.523C187.367 216.471 190.06 216.64 188.546 209.568C186.189 212.263 187.536 214.451 180.296 220.68C176.087 224.217 172.381 225.9 170.194 230.783C167.498 236.845 164.974 245.095 158.575 248.799C155.712 250.482 152.512 251.662 151.335 254.861C151.335 249.472 156.049 249.135 158.238 245.769C159.585 243.579 161.605 239.202 161.774 235.835C159.754 237.519 158.575 239.033 155.375 239.876C152.682 240.886 149.652 241.222 146.956 242.065C140.39 244.422 139.549 257.555 121.364 256.881C118.501 256.881 115.977 256.208 113.451 255.535C111.094 254.861 108.737 253.851 106.884 252.504C114.293 254.188 124.731 255.198 132.14 250.988C137.359 247.958 137.696 240.718 146.789 236.509C152.345 233.813 153.018 236.676 157.395 232.13C159.585 230.11 160.258 230.783 165.647 225.227C168.845 221.86 169.687 221.69 174.234 218.83C177.264 216.977 179.453 214.114 180.8 210.914C172.381 216.304 163.625 216.134 156.722 222.533C147.295 231.456 144.432 230.616 130.287 229.942C118.67 229.269 115.304 237.686 99.1385 234.825C90.3826 233.309 81.2922 230.783 64.7905 240.549C76.0725 227.92 90.2153 229.1 100.318 230.446C116.314 232.636 115.64 223.543 130.456 223.543C138.033 223.713 145.442 224.217 149.315 218.493C143.589 213.273 137.696 219.166 128.94 212.937C117.491 205.695 107.388 216.977 95.2656 213.273C106.884 212.6 114.797 204.517 121.364 205.528C129.95 206.874 129.95 209.904 139.886 210.241C153.861 210.914 166.488 206.368 175.076 193.235C184.84 178.756 190.566 176.566 206.225 182.459C217.168 186.502 223.398 184.986 223.061 168.99C223.061 163.77 236.533 162.254 225.42 154.51C230.807 152.994 233.501 153.5 232.491 144.745C231.817 138.682 233.837 136.999 238.216 135.146C245.623 131.779 244.783 130.602 236.87 118.646C232.66 112.417 231.313 107.197 230.977 101.304C235.353 100.798 239.563 99.2838 242.93 96.4209C239.226 97.2637 235.186 97.2637 230.977 96.7576C230.977 94.4008 230.976 91.8746 231.313 89.0118C235.523 59.21 196.122 37.1541 163.288 54.6637C147.968 62.7462 141.569 85.4755 142.412 104.167C143.252 119.656 152.682 137.335 162.615 144.408C156.049 142.724 150.325 137.672 146.115 132.958C142.242 128.412 142.075 130.096 140.559 134.979C137.192 146.091 127.426 158.72 112.945 163.94C127.594 153.5 137.696 131.612 135.507 117.13C132.813 99.6205 133.656 82.1087 141.906 63.589C144.263 58.5366 144.432 55.3371 140.053 58.706C123.047 72.1755 117.154 93.8947 112.608 116.457C108.904 135.146 99.6446 144.575 95.2656 153.164C90.7193 162.424 94.7616 178.586 101.665 187.006C94.0882 182.459 90.3826 171.853 89.0359 165.286C88.3625 161.244 88.1952 158.214 83.4796 162.93C71.3568 175.052 57.214 181.619 46.438 182.796C74.0503 170.337 97.2857 144.745 103.011 122.013C104.191 117.804 104.358 115.953 99.1385 116.457C88.8686 117.13 77.4193 119.656 67.4839 125.213C50.9843 134.305 42.059 153.331 16.8036 146.765C44.4179 145.922 44.7546 132.285 64.1171 120.33C74.2197 114.1 85.3324 112.247 99.4752 109.386C105.538 108.04 106.884 105.344 107.894 101.304C109.747 93.8948 110.251 91.0319 114.967 79.9192C115.977 77.5624 115.808 75.375 110.925 75.2056C105.201 75.0383 94.7616 76.0484 88.8686 76.7218C85.163 77.0584 79.4393 82.1087 72.1996 85.6449C62.097 90.5279 53.5084 90.5279 45.428 92.044C31.9585 94.5681 31.4524 98.2737 28.759 108.04C26.4022 116.793 23.7066 119.993 17.3096 124.539C22.6966 117.804 23.0333 114.269 24.8861 106.017C27.9162 93.0541 30.9464 89.3485 44.4179 86.655C51.9944 84.9716 59.0668 85.645 67.99 80.4253C70.8529 78.7419 73.377 76.8891 76.2398 75.375C79.6067 73.5222 80.4494 71.8388 79.7761 70.1554C78.9333 68.1332 76.9132 63.4196 73.883 59.8834C70.5162 56.1799 67.6533 55.5065 62.7704 55.5065C59.9075 55.6738 56.5406 55.6738 54.0145 55.1698C49.8049 54.4964 45.932 53.1497 42.0591 52.9803C46.6053 51.8009 48.9642 52.1376 53.6778 52.813C56.7079 53.1497 59.4035 52.813 62.4337 52.4763C68.6634 52.1376 71.5262 53.1497 76.5765 57.6939C79.776 60.3894 82.8062 63.7563 85.8364 65.6091C93.4149 70.3227 104.358 67.1231 115.134 64.4297C121.197 63.0829 122.374 60.5567 125.573 56.5165C138.37 40.8576 158.744 33.1118 183.494 31.9344C191.409 31.5977 192.756 31.4283 185.177 27.0515C178.107 23.0092 170.867 20.3157 163.121 20.8217C160.428 20.989 157.901 21.6624 155.375 22.1685C140.896 25.5353 134.497 27.7248 126.08 32.4384C112.608 39.8475 98.1285 52.307 82.1328 45.7406C99.6446 46.5812 106.884 39.3415 118.67 31.2611C120.354 30.0816 120.187 28.9022 117.324 28.7349C107.558 28.3982 99.4752 26.0414 94.2556 18.9689C103.011 23.5152 110.757 25.872 122.037 24.8619C133.15 24.0192 141.906 18.6323 153.355 16.1061C159.922 14.7593 161.605 12.9065 154.028 10.3824C130.626 2.63661 115.808 3.14269 102.169 3.47937ZM5.1869 163.266C12.09 161.581 16.2996 148.617 26.5695 151.984C18.993 153.331 16.8036 158.551 12.09 161.581C18.8237 158.887 19.497 154.341 27.9162 152.994C24.5494 159.393 15.2895 167.307 5.1869 163.266ZM118.501 113.596C122.88 111.574 121.87 101.808 130.12 102.651C125.237 104.671 125.237 108.713 122.88 111.574C126.753 108.713 125.91 105.514 131.299 103.324C130.962 108.376 126.92 115.279 118.501 113.596ZM98.8018 15.096C92.4048 15.2654 91.5621 11.7292 86.3424 10.3824C90.0459 12.2332 92.0682 16.2755 97.9612 16.2755C90.2153 20.4851 86.3424 10.3824 80.9534 10.0458C88.5319 5.33008 95.939 10.3824 98.8018 15.096ZM105.032 11.3925C113.114 14.2554 124.9 2.46723 133.319 13.4126C124.731 9.70908 119.511 14.086 113.114 14.2554C121.364 15.9388 124.731 11.3925 133.993 15.6021C126.753 20.4851 112.945 23.0091 105.032 11.3925ZM85.3324 56.3472C92.5721 58.5366 102.505 47.2567 110.588 56.6838C102.842 53.8231 98.2979 58.0306 92.5721 58.5366C100.149 59.5467 102.842 55.1698 111.431 58.5366C105.201 63.4196 92.9088 66.4498 85.3324 56.3472ZM97.6245 31.5977C82.1328 33.7851 79.27 25.7047 66.4739 24.3559C75.7358 27.3881 81.6288 36.1419 95.6023 34.4585C78.4293 46.7506 66.4739 24.3559 53.5084 25.1986C70.0101 11.5598 89.2053 21.3257 97.6245 31.5977ZM66.3066 41.8676C55.6979 44.7305 52.835 39.3415 43.9119 39.6782C50.6476 41.0249 55.5306 46.5812 65.1271 43.8877C54.3512 54.1597 43.9119 39.6782 34.9887 41.531C45.2586 30.4183 59.4035 35.4686 66.3066 41.8676ZM33.3053 108.88C42.2284 112.247 55.5306 99.1144 64.7905 111.574C55.3612 107.197 49.4682 112.08 42.2284 112.247C51.4883 114.1 55.3612 109.05 65.6332 113.933C57.5507 119.32 41.8918 122.013 33.3053 108.88ZM20.0031 104.671C15.1201 113.09 10.4066 111.237 5.1869 116.793C9.90048 113.596 15.9629 114.437 20.5092 106.86C19.497 120.499 5.18691 116.793 0.640625 123.529C0.807921 109.723 12.2573 104.334 20.0031 104.671ZM22.866 126.055C28.5896 128.412 39.0289 120.499 43.7446 128.58C38.0188 125.549 33.3053 128.579 28.5896 128.412C34.4826 129.928 37.6822 126.729 44.0812 130.096C37.8515 133.295 27.0756 134.642 22.866 126.055ZM63.2743 159.73C69.1674 151.648 59.4035 134.642 74.5564 128.412C67.6533 136.999 71.0202 144.408 69.1673 151.648C73.5463 142.892 69.504 137.505 77.2499 128.412C80.6167 138.009 79.1027 154.678 63.2743 159.73ZM96.7817 163.266C101.665 163.266 105.201 154.847 112.104 159.057C106.884 158.551 105.032 161.918 101.665 163.266C106.378 162.591 107.221 159.561 112.945 160.067C110.251 163.94 103.518 167.98 96.7817 163.266ZM29.263 209.737C39.1983 205.358 38.1882 185.322 56.3713 187.512C45.0913 191.552 44.7546 199.802 39.1983 205.358C48.1215 199.802 46.6053 192.899 59.0668 188.689C57.3813 199.128 47.4481 213.104 29.263 209.737ZM61.7603 98.441C73.883 100.124 86.8485 77.7318 102.001 91.7073C88.8686 89.0118 82.8062 97.6004 73.883 100.124C85.8364 99.7878 89.2053 91.538 103.517 94.7375C94.9289 105.007 76.0725 113.763 61.7603 98.441ZM103.181 149.964C112.777 145.418 112.777 122.856 129.614 125.719C118.838 129.928 118.164 139.355 112.777 145.418C121.197 139.355 120.354 131.612 131.973 127.233C130.12 138.851 120.187 154.174 103.181 149.964ZM100.655 181.619C107.558 178.923 107.558 164.95 119.85 166.8C112.104 169.327 111.431 175.052 107.558 178.923C113.787 175.22 113.114 170.337 121.533 167.643C120.187 174.883 112.945 184.312 100.655 181.619ZM90.2153 194.919C92.4048 192.058 89.0359 186.502 94.2556 184.312C91.8988 187.175 93.0782 189.699 92.4048 192.058C93.9189 189.195 92.5721 187.342 95.2656 184.312C96.445 187.512 95.7717 193.068 90.2153 194.919ZM17.3096 65.4397C29.5996 69.3126 47.4481 51.2969 60.5809 66.9558C47.4481 61.9035 39.535 68.6393 29.5996 69.3126C42.3957 71.1654 47.4481 64.2624 61.7603 69.986C50.8149 77.7318 29.5996 82.1087 17.3096 65.4397ZM13.7734 184.986C20.6765 187.512 31.9585 177.072 38.6922 186.332C31.4524 183.302 26.2328 187.175 20.6765 187.512C27.7489 188.689 31.2831 184.649 39.1983 188.185C32.2952 192.562 19.6664 194.919 13.7734 184.986ZM66.1372 199.971C73.883 193.235 67.4839 174.883 84.3223 171.853C75.3971 178.756 77.2499 186.502 73.883 193.235C80.28 185.492 77.0826 179.599 87.0158 172.19C88.3625 182.292 83.3123 197.951 66.1372 199.971ZM1.1446 141.714C6.87032 138.682 4.85021 126.896 15.7935 126.896C9.3965 130.096 9.73318 134.979 6.87032 138.682C11.5839 134.642 10.4066 130.769 17.4769 127.569C17.1402 133.632 12.2573 142.555 1.1446 141.714ZM29.9363 83.7921C22.3599 91.2013 18.1503 87.8344 11.0799 92.044C16.9729 90.1912 22.6966 92.7174 29.769 86.151C24.38 99.9572 11.0799 92.044 4.34414 97.7677C8.89042 83.6248 22.1926 81.4354 29.9363 83.7921ZM84.8263 141.545C88.6992 136.662 82.9756 125.719 92.5721 122.182C88.0258 127.402 90.0459 132.116 88.6992 136.662C91.5621 131.106 89.2053 127.739 94.2556 122.182C96.1084 128.243 94.7616 138.682 84.8263 141.545ZM16.9729 138.009C20.0031 139.355 24.8861 134.809 28.0856 139.525C24.7167 137.841 22.6966 139.525 20.0031 139.355C23.3699 140.198 24.7167 138.515 28.4223 140.366C25.39 142.218 19.8337 142.892 16.9729 138.009ZM24.0433 176.399C35.3254 170.337 32.1258 146.597 53.8472 147.438C40.8817 153.331 41.3857 163.097 35.3254 170.337C45.2586 162.76 42.9018 154.847 57.214 148.617C56.204 161.077 45.932 178.587 24.0433 176.399Z" fill="url(#paint0_linear_40_24050)"/>
<defs>
<linearGradient id="paint0_linear_40_24050" x1="128.375" y1="0.90625" x2="128.375" y2="256.906" gradientUnits="userSpaceOnUse">
<stop stop-color="#E4D5B8"/>
<stop offset="1" stop-color="#956F4F"/>
</linearGradient>
</defs>
</svg>
