<svg width="257" height="257" viewBox="0 0 257 257" fill="none" xmlns="http://www.w3.org/2000/svg">
<path fill-rule="evenodd" clip-rule="evenodd" d="M128.5 0.0996094C128.599 0.0996094 128.708 0.109499 128.826 0.129275C129.034 1.22684 129.42 2.26507 129.983 3.27365C132.534 2.97701 134.937 1.96844 136.836 0.396249C152.32 1.37516 167.093 5.14248 180.59 11.1643C181.065 13.2407 182.281 15.1392 183.972 16.5631C185.188 15.9995 186.285 15.2579 187.205 14.3383C198.744 20.3304 209.275 28.0134 218.441 37.0609C217.462 37.8915 216.75 38.9891 216.424 40.2646C215.86 42.4301 216.543 44.5659 218.085 46.1084C220.221 45.3372 221.912 43.676 222.446 41.5402C222.485 41.4413 222.505 41.3523 222.505 41.2732C223.613 42.4598 224.69 43.6661 225.738 44.8922C225.501 44.8526 225.264 44.8329 225.027 44.8329C223.454 44.9219 222.268 46.1084 222.357 47.473C222.357 47.5619 223.959 69.6023 198.922 82.8621C204.38 72.8356 206.724 60.4064 202.808 43.3793C202.512 42.0148 201.028 41.1249 199.486 41.4215C197.973 41.6885 196.994 43.0234 197.291 44.3879C204.588 76.069 188.065 90.6934 172.047 104.843C160.062 115.463 148.345 125.815 145.824 142.576C143.658 156.903 149.294 170.816 158.194 183.275C159.36 184.916 160.577 186.518 161.842 188.08C158.579 189.207 154.1 190.008 149.057 188.822C140.84 176.155 132.979 159.484 132.979 142.042C132.959 141.943 132.95 141.844 132.95 141.745C132.861 139.817 132.534 122.315 144.993 106.297C146.654 104.19 148.345 102.173 150.125 100.008C160.24 87.7863 173.411 71.8567 174.657 52.1895C178.098 49.7867 185.573 42.1928 187.027 20.4787C187.116 19.1142 185.929 17.898 184.387 17.8387C182.844 17.7497 181.51 18.8176 181.421 20.1821C180.471 34.3022 177.238 41.4808 174.568 45.0702C173.916 37.4169 171.335 29.2 166.084 20.4787C165.343 19.2625 163.652 18.7879 162.287 19.4702C160.893 20.1228 160.389 21.6356 161.13 22.8815C173.738 43.7946 169.318 61.682 160.774 76.336C143.243 67.3775 136.213 53.9397 133.899 41.5698C133.879 41.3919 133.849 41.2238 133.81 41.0655C130.962 25.1953 135.797 11.2533 135.827 11.1643C136.272 9.82939 135.441 8.43518 133.928 8.01988C132.445 7.63425 130.873 8.37585 130.428 9.71073C130.398 9.79972 125.86 22.8519 127.729 38.5441C122.33 36.9719 112.274 31.8697 109.307 15.4062C109.07 14.012 107.617 13.0924 106.104 13.3001C104.561 13.5374 103.523 14.8129 103.76 16.1775C107.646 37.8618 122.864 42.8157 128.619 43.943C129.983 50.2614 132.505 56.7874 136.836 62.9575C130.043 61.0294 120.847 59.8428 111.265 62.8982C109.812 63.3728 109.04 64.7967 109.545 66.1019C110.079 67.4368 111.681 68.1191 113.164 67.6444C128.174 62.8685 142.294 70.3142 144.43 71.5008C148.167 74.8825 152.646 77.9972 158.045 80.7559C154.07 86.7777 149.591 92.2062 145.586 97.0118C143.658 99.3552 141.819 101.55 140.366 103.419C137.992 106.475 136.064 109.56 134.462 112.615C119.66 104.279 109.011 95.6769 101.446 87.3116C100.942 83.5147 99.2513 63.4322 117.198 51.2403C118.444 50.38 118.681 48.8078 117.732 47.7103C116.812 46.6127 115.033 46.3754 113.816 47.2356C99.4293 57.0248 96.1366 71.1151 95.6323 80.1033C91.0048 73.6662 88.0977 67.4368 86.3772 61.682C86.3574 61.4447 86.2981 61.2173 86.1992 60.9997C80.5927 41.4215 88.424 27.1235 88.4536 27.0345C89.1359 25.7886 88.5426 24.2757 87.1188 23.6825C85.7246 23.0892 84.0337 23.6231 83.3811 24.869C83.3218 24.958 75.9651 38.4255 79.5545 57.2917C71.4265 54.266 54.963 50.6767 33.6643 59.2199C32.2701 59.8132 31.6175 61.2964 32.2404 62.5719C32.893 63.8178 34.5542 64.4111 35.9781 63.8475C60.2729 54.0584 77.211 61.504 81.1266 63.5805C86.1695 79.8957 99.8743 99.2662 132.267 117.302C127.046 129.731 127.254 140.38 127.313 141.953V142.042C127.313 144.533 127.462 147.025 127.758 149.487C127.521 151.742 124.792 171.913 106.015 189.059C103.019 189.593 100.23 189.445 97.8275 189C107.943 179.27 116.338 165.476 114.736 146.936V146.907C114.736 146.877 114.172 140.084 108.18 133.558C108.299 130.947 109.367 123.146 118.118 119.734C119.541 119.2 120.194 117.717 119.571 116.442C118.948 115.166 117.317 114.573 115.893 115.136C107.468 118.399 104.354 124.659 103.197 129.227C102.504 128.732 101.763 128.258 100.972 127.803C100.794 119.912 96.9079 83.9003 41.0803 73.5179C39.5378 73.2213 38.0546 74.1112 37.7579 75.4757C37.4316 76.8403 38.4106 78.1752 39.9234 78.4421C86.6442 87.1337 94.0601 114.632 95.1577 125.074C89.7885 123.027 82.9362 121.692 74.2149 121.603C74.0765 121.603 73.9282 121.603 73.77 121.603H73.7107C73.6217 121.603 41.7329 124.303 39.1225 105.881C38.9148 104.517 37.5206 103.538 35.9781 103.716C34.4356 103.864 33.338 105.14 33.516 106.504C35.5925 120.921 50.6024 125.193 61.7857 126.379C55.675 131.096 49.8015 140.38 51.433 158.831C51.5517 160.226 52.9162 161.264 54.4588 161.145C56.0309 161.027 57.1878 159.81 57.0692 158.416C54.4884 129.701 71.4562 126.913 73.8886 126.676C74.0271 126.656 74.1161 126.646 74.1556 126.646C89.6995 126.794 98.3614 131.303 103.167 136.05C103.226 136.129 103.296 136.208 103.375 136.287C108.655 141.656 109.1 147.292 109.1 147.322C110.642 165.12 102.01 178.143 92.043 187.131C90.3521 186.36 89.3139 185.648 89.1656 185.559L89.1359 185.529C88.513 185.114 87.6527 185.025 86.9408 185.44C72.1681 193.627 61.6374 186.449 60.8365 185.885C60.1246 185.351 59.116 185.292 58.3447 185.826C46.5681 194.102 31.4988 185.321 31.4692 185.292C30.7869 184.906 29.9267 184.906 29.2444 185.381C24.4982 188.644 19.9892 189.593 16.1329 189.415C6.16582 171.201 0.5 150.318 0.5 128.1C0.5 100.542 9.22121 75.0011 24.0532 54.088C27.0493 54.533 30.0453 53.9397 32.5074 52.5455C32.0328 50.558 30.9352 48.6892 29.3334 47.206C40.1607 33.9165 53.6282 22.8519 68.9348 14.8129C68.5986 15.4655 68.3316 16.1478 68.1338 16.8597C67.1846 20.4788 68.3415 24.1274 70.8926 26.7378C74.4819 25.4326 77.3593 22.6442 78.3086 19.0252C79.0798 16.1478 78.5162 13.2704 76.9737 10.927C84.627 7.54526 92.6363 4.90517 100.972 3.09567C102.01 5.73576 103.909 7.99022 106.4 9.56241C109.545 7.63425 111.829 4.60853 112.57 1.10818C117.791 0.455575 123.101 0.0996094 128.5 0.0996094ZM45.8859 131.986C46.0342 135.545 44.3433 139.135 40.932 141.508C37.5206 143.851 33.1897 144.415 29.363 143.347C29.185 139.787 30.9056 136.168 34.3169 133.825C37.7283 131.481 42.0592 130.918 45.8859 131.986ZM69.2611 112.971C64.8708 114.662 59.6499 114.484 55.2597 112.081C50.8694 109.678 48.3183 105.585 48.0217 101.313C52.4119 99.6222 57.6328 99.8002 62.0231 102.203C66.4133 104.606 68.9644 108.699 69.2611 112.971ZM33.8126 70.8185C33.7533 74.7935 31.5878 78.6794 27.6722 81.0822C23.7269 83.485 18.8917 83.8706 14.7387 82.4764C14.798 78.5015 16.9635 74.6155 20.9088 72.2127C24.8541 69.8099 29.6597 69.4243 33.8126 70.8185ZM47.992 88.9432C46.6868 91.6723 43.9577 93.8081 40.4574 94.4903C36.957 95.1429 33.4863 94.1937 31.0539 92.1765C32.3591 89.4475 35.0882 87.282 38.5885 86.6294C42.0889 85.9471 45.5299 86.926 47.992 88.9432ZM90.1742 119.675C87.712 120.624 84.7753 120.535 82.3132 119.171C79.8511 117.836 78.4272 115.522 78.2492 113.119C80.7113 112.17 83.6481 112.289 86.1102 113.624C88.5723 114.988 90.0258 117.272 90.1742 119.675ZM28.9181 112.734C25.744 113.98 21.947 113.831 18.773 112.081C15.5989 110.331 13.7301 107.394 13.5225 104.279C16.6965 103.063 20.4935 103.182 23.6675 104.932C26.8713 106.682 28.7104 109.649 28.9181 112.734ZM74.7192 52.0115C70.0323 52.8125 64.9895 51.5962 61.3111 48.4222C57.6328 45.2185 56.1793 40.7392 56.9209 36.527C61.6078 35.7557 66.621 36.9422 70.2993 40.1459C73.9776 43.3497 75.4608 47.7993 74.7192 52.0115ZM92.8143 59.9022C89.6699 56.7281 88.246 52.2489 89.4326 47.8289C90.5894 43.3793 94.1195 39.968 98.5097 38.3958C101.654 41.5698 103.078 46.0194 101.891 50.469C100.705 54.9186 97.2045 58.33 92.8143 59.9022ZM130.754 59.6649C127.847 60.1395 124.733 59.3682 122.478 57.3807C120.224 55.3932 119.334 52.6345 119.808 50.0241C122.686 49.5494 125.801 50.3207 128.055 52.3082C130.339 54.2957 131.229 57.0544 130.754 59.6649ZM108.24 90.456C106.015 87.6676 105.273 83.9596 106.608 80.4593C107.973 76.9589 111.117 74.4672 114.825 73.5179C117.05 76.336 117.791 80.0143 116.427 83.5147C115.062 87.015 111.948 89.5068 108.24 90.456ZM148.968 86.4811C146.031 86.9853 142.828 86.2734 140.484 84.2859C138.141 82.2688 137.192 79.4507 137.637 76.8106C140.573 76.2767 143.777 76.9886 146.12 79.0057C148.464 80.9932 149.413 83.8113 148.968 86.4811ZM133.662 108.462C130.221 106.86 127.669 103.864 127.106 100.156C126.513 96.4482 128.085 92.9181 130.903 90.545C134.373 92.1469 136.925 95.1726 137.488 98.8806C138.052 102.589 136.509 106.089 133.662 108.462ZM129.509 84.6122C127.491 83.663 125.979 81.8832 125.623 79.688C125.296 77.4929 126.216 75.4164 127.877 74.0222C129.924 74.9714 131.437 76.7513 131.763 78.9464C132.119 81.1416 131.199 83.218 129.509 84.6122ZM59.1753 69.7803C56.7725 71.7677 53.3315 72.6873 49.8905 72.0347C46.4495 71.3524 43.7797 69.2166 42.5042 66.5172C44.9366 64.5297 48.348 63.6102 51.789 64.2924C55.23 64.945 57.8998 67.0808 59.1753 69.7803ZM82.0166 71.9457C78.9018 73.1619 75.1642 73.0433 72.0495 71.3228C68.9051 69.6319 67.0956 66.7249 66.8583 63.6695C70.0027 62.4533 73.7107 62.5719 76.855 64.2924C79.9698 66.0129 81.7793 68.8903 82.0166 71.9457ZM72.3758 78.5015C69.973 79.421 67.0956 79.332 64.6928 78.0268C62.29 76.692 60.8662 74.4672 60.6882 72.1237C63.1206 71.1745 65.9684 71.2931 68.3711 72.5983C70.8036 73.9035 72.1978 76.158 72.3758 78.5015ZM90.1742 89.6551C86.6441 90.4264 82.7285 89.6848 79.7918 87.371C76.855 85.0275 75.5202 81.6755 75.9058 78.4421C79.4655 77.6709 83.3514 78.4125 86.2882 80.7263C89.2546 83.0401 90.5598 86.4217 90.1742 89.6551ZM68.4305 95.5582C65.7607 97.3381 62.1714 97.961 58.7897 96.9821C55.3783 95.9735 52.9162 93.5707 51.9373 90.723C54.6367 88.9432 58.1964 88.3202 61.6078 89.3288C64.9895 90.3077 67.4516 92.7105 68.4305 95.5582ZM81.097 108.017C78.5756 108.432 75.8761 107.78 73.8886 106.059C71.9308 104.339 71.1299 101.936 71.5452 99.6815C74.0666 99.2366 76.766 99.8892 78.7535 101.61C80.7113 103.36 81.5123 105.763 81.097 108.017ZM103.849 103.449C100.824 104.101 97.5012 103.479 94.9797 101.491C92.4583 99.5036 91.3311 96.6261 91.687 93.8674C94.7128 93.2148 98.0351 93.8377 100.557 95.8252C103.078 97.8127 104.205 100.69 103.849 103.449ZM104.828 120.713C102.099 119.349 100.141 116.857 99.7853 113.891C99.459 110.895 100.794 108.106 103.137 106.267C105.866 107.631 107.824 110.123 108.18 113.09C108.506 116.086 107.172 118.874 104.828 120.713ZM117.376 138.482C114.647 137.147 112.689 134.655 112.333 131.659C112.007 128.663 113.342 125.875 115.685 124.036C118.414 125.4 120.372 127.892 120.728 130.888C121.054 133.854 119.719 136.672 117.376 138.482ZM122.805 126.616C121.559 124.955 121.232 122.79 122.093 120.802C122.953 118.815 124.851 117.421 126.987 116.946C128.233 118.607 128.559 120.743 127.699 122.76C126.839 124.748 124.97 126.142 122.805 126.616ZM119.779 153.255C117.732 151.475 116.634 148.864 117.079 146.165C117.554 143.436 119.452 141.241 122.004 140.084C124.08 141.864 125.178 144.474 124.733 147.174C124.258 149.903 122.36 152.098 119.779 153.255ZM118.325 24.3351C114.499 21.7246 112.125 17.5717 112.303 12.9738C112.511 8.37585 115.211 4.37122 119.215 2.02777C123.042 4.6382 125.415 8.79115 125.237 13.3891C125.059 18.0166 122.33 21.9916 118.325 24.3351ZM99.7853 20.1524C96.6112 19.5888 93.7635 17.72 92.3396 14.8723C90.9157 12.0542 91.2421 8.9098 92.8736 6.41803C96.0476 6.95198 98.8954 8.82081 100.319 11.6686C101.743 14.5163 101.417 17.6607 99.7853 20.1524ZM138.971 22.4069C137.192 19.2922 137.073 15.5249 139.001 12.2025C140.959 8.9098 144.489 6.86299 148.345 6.38836C150.095 9.47342 150.214 13.2704 148.286 16.5631C146.358 19.8855 142.798 21.9323 138.971 22.4069ZM163.83 48.0662C159.973 47.028 156.74 44.3879 155.405 40.7096C154.041 37.0312 154.871 33.1749 157.244 30.2975C161.101 31.3358 164.334 33.9759 165.699 37.6542C167.063 41.3325 166.203 45.1592 163.83 48.0662ZM140.128 38.3958C137.607 36.5863 136.094 33.7682 136.302 30.6535C136.509 27.5684 138.408 24.9283 141.137 23.4155C143.658 25.225 145.201 28.0431 144.963 31.1281C144.756 34.2428 142.857 36.8829 140.128 38.3958ZM148.82 58.063C144.934 57.2917 141.522 54.9483 139.861 51.4183C138.2 47.9179 138.675 44.0616 140.751 41.0655C144.637 41.8071 148.049 44.1803 149.71 47.6806C151.371 51.181 150.896 55.0373 148.82 58.063ZM102.692 37.2982C99.2513 36.6456 96.2256 34.5395 94.7424 31.4544C93.2889 28.3397 93.7042 24.9283 95.5433 22.2882C98.9844 22.9409 102.01 25.0173 103.464 28.1321C104.947 31.2468 104.532 34.6285 102.692 37.2982ZM166.856 185.707C165.491 184.026 164.186 182.315 162.94 180.575C159.054 175.147 155.85 169.451 153.744 163.578C157.838 162.717 165.224 160.611 172.462 155.806C177.149 156.666 194.74 160.552 200.138 172.151C200.732 173.456 202.393 174.049 203.817 173.515C205.27 172.981 205.953 171.528 205.359 170.222C200.049 158.891 185.662 153.789 177.713 151.771C181.865 148.063 185.662 143.258 188.332 137.058C188.896 135.753 188.184 134.299 186.73 133.795C185.277 133.32 183.645 133.943 183.082 135.249C179.997 142.398 175.25 147.441 170.297 150.971C170.099 151.069 169.921 151.198 169.763 151.356C162.97 156.043 155.88 158.001 152.261 158.742C151.015 153.64 150.629 148.449 151.401 143.258C152.676 134.833 156.681 128.07 161.931 122.018C174.746 125.815 185.544 125.044 194.473 121.9C198.448 124.036 211.322 132.045 210.402 146.729C210.313 148.093 211.5 149.309 213.042 149.369C214.614 149.458 215.949 148.39 216.009 146.996C216.928 132.46 206.605 123.442 200.376 119.378C219.865 109.471 228.646 88.7652 228.675 88.6762C229.239 87.371 228.527 85.8878 227.073 85.3835C225.62 84.8792 223.988 85.5318 223.425 86.837C223.365 86.9557 205.923 128.1 165.847 117.806C169.051 114.603 172.521 111.547 175.992 108.462C182.221 102.945 188.51 97.3974 193.612 90.901C227.815 77.9082 228.082 51.003 227.993 47.5916C245.821 69.5726 256.5 97.605 256.5 128.1C256.5 150.288 250.834 171.172 240.897 189.356C236.862 189.712 232.087 188.851 227.014 185.381C226.332 184.906 225.471 184.906 224.789 185.292C224.76 185.321 209.69 194.102 197.914 185.826C197.142 185.292 196.134 185.351 195.422 185.885C194.621 186.449 184.09 193.627 169.318 185.44C168.606 185.025 167.745 185.114 167.122 185.529L167.093 185.559C167.053 185.578 166.974 185.628 166.856 185.707ZM156.117 28.0134C153.892 27.3905 152.053 25.8776 151.282 23.7714C150.481 21.6653 150.956 19.4702 152.35 17.809C154.545 18.4023 156.384 19.9151 157.185 22.0213C157.956 24.1274 157.482 26.3522 156.117 28.0134ZM151.015 39.1077C148.731 38.1288 146.981 36.171 146.536 33.7682C146.061 31.3358 147.01 28.9923 148.82 27.3905C151.134 28.3694 152.854 30.3272 153.329 32.73C153.774 35.1624 152.824 37.5059 151.015 39.1077ZM175.517 27.4794C172.729 26.3522 170.563 24.0977 169.941 21.2203C169.318 18.3429 170.356 15.5249 172.432 13.5374C175.221 14.6646 177.386 16.9191 178.009 19.7965C178.632 22.6739 177.624 25.492 175.517 27.4794ZM162.139 17.898C159.766 16.9487 157.897 15.0206 157.363 12.5288C156.829 10.0667 157.719 7.63425 159.528 5.9434C161.902 6.92232 163.741 8.85047 164.304 11.3126C164.838 13.8044 163.948 16.2071 162.139 17.898ZM190.883 35.9633C188.896 34.3022 187.828 31.84 188.214 29.2889C188.629 26.7082 190.409 24.602 192.782 23.5045C194.769 25.136 195.837 27.5981 195.452 30.1789C195.036 32.73 193.256 34.8361 190.883 35.9633ZM179.997 59.1606C178.543 56.2238 178.662 52.7235 180.62 49.7867C182.607 46.8203 186.018 45.0702 189.578 44.8329C191.032 47.7696 190.913 51.2699 188.925 54.2363C186.968 57.2027 183.556 58.9232 179.997 59.1606ZM175.25 74.6452C173.56 72.6577 172.907 70.0176 173.767 67.4665C174.657 64.8857 176.852 63.0169 179.492 62.2456C181.183 64.2034 181.836 66.8732 180.976 69.4243C180.086 71.9754 177.89 73.8442 175.25 74.6452ZM223.217 83.5147C221.2 81.2009 220.429 78.0862 221.467 75.0604C222.505 72.0347 225.086 69.8099 228.201 68.8903C230.218 71.2041 230.989 74.3485 229.951 77.3742C228.913 80.3999 226.332 82.5951 223.217 83.5147ZM219.064 124.362C217.462 122.552 216.869 120.061 217.67 117.688C218.5 115.285 220.518 113.564 222.98 112.823C224.582 114.662 225.175 117.124 224.374 119.497C223.543 121.9 221.526 123.65 219.064 124.362ZM188.659 81.6162C187.413 80.222 186.968 78.3235 187.591 76.514C188.214 74.6748 189.786 73.3399 191.655 72.806C192.871 74.2002 193.345 76.0987 192.722 77.9082C192.1 79.7474 190.527 81.0822 188.659 81.6162ZM188.006 113.268C185.989 110.954 185.217 107.809 186.256 104.813C187.264 101.788 189.845 99.5629 192.96 98.6433C194.977 100.957 195.748 104.101 194.71 107.127C193.701 110.123 191.121 112.348 188.006 113.268ZM173.678 98.0204C172.106 96.2108 171.513 93.7191 172.314 91.346C173.115 88.9432 175.161 87.2227 177.624 86.4811C179.225 88.3202 179.819 90.7823 179.018 93.1555C178.187 95.5582 176.14 97.3084 173.678 98.0204ZM158.906 99.4146C157.571 97.872 157.037 95.7659 157.749 93.7487C158.431 91.7316 160.151 90.2484 162.228 89.6551C163.563 91.1976 164.097 93.2741 163.414 95.2913C162.703 97.3084 160.982 98.7916 158.906 99.4146ZM201.622 108.017C199.605 105.703 198.833 102.559 199.871 99.5332C200.88 96.5371 203.491 94.3123 206.605 93.3928C208.593 95.7066 209.364 98.8509 208.326 101.847C207.317 104.873 204.736 107.098 201.622 108.017ZM156.028 155.509C154.426 153.077 154.1 149.992 155.465 147.233C156.829 144.444 159.618 142.605 162.703 142.042C164.334 144.474 164.66 147.529 163.266 150.318C161.902 153.106 159.143 154.945 156.028 155.509ZM143.451 123.917C141.433 121.574 140.662 118.459 141.7 115.433C142.709 112.407 145.29 110.212 148.405 109.293C150.422 111.606 151.193 114.721 150.155 117.747C149.146 120.773 146.565 122.997 143.451 123.917ZM155.583 116.768C154.248 115.196 153.744 113.119 154.426 111.102C155.109 109.085 156.829 107.602 158.935 106.979C160.27 108.521 160.774 110.628 160.092 112.645C159.41 114.662 157.66 116.145 155.583 116.768ZM182.993 150.051C183.853 147.796 185.87 145.928 188.599 145.216C191.358 144.474 194.176 145.038 196.282 146.521C195.422 148.775 193.405 150.644 190.676 151.356C187.917 152.098 185.099 151.534 182.993 150.051ZM139.179 146.462C136.509 144.711 134.818 141.923 134.848 138.749C134.907 135.605 136.717 132.816 139.416 131.155C142.056 132.905 143.777 135.694 143.718 138.868C143.658 142.012 141.878 144.8 139.179 146.462ZM46.6868 146.64C48.7929 150.704 48.7336 155.568 46.0638 159.721C43.3941 163.904 38.7072 166.396 33.7533 166.811C31.6472 162.777 31.7065 157.882 34.3762 153.729C37.046 149.547 41.7032 147.055 46.6868 146.64ZM39.5081 124.985C36.2154 128.337 31.2022 130.235 25.8627 129.731C20.5232 129.197 16.1032 126.379 13.7005 122.463C16.9932 119.111 22.0064 117.213 27.3459 117.717C32.6557 118.251 37.1053 121.099 39.5081 124.985ZM66.9769 176.571C63.0316 175.117 59.9169 172.032 58.8787 168.027C57.8701 164.023 59.1753 160.048 62.0231 157.2C65.9684 158.653 69.1127 161.739 70.1213 165.743C71.1596 169.748 69.8247 173.723 66.9769 176.571ZM47.0428 182.948C44.2544 180.071 43.0085 176.037 44.1357 172.062C45.2332 168.087 48.4073 165.031 52.3823 163.667C55.1707 166.544 56.4166 170.549 55.319 174.553C54.1918 178.528 51.0177 181.584 47.0428 182.948ZM77.3297 131.897C81.186 132.312 84.7753 134.329 86.7628 137.622C88.7503 140.885 88.691 144.682 86.9704 147.796C83.1141 147.381 79.5248 145.364 77.5373 142.071C75.5498 138.808 75.6092 135.011 77.3297 131.897ZM95.929 134.982C100.349 136.732 103.79 140.321 104.798 144.86C105.837 149.428 104.205 153.907 100.883 157.052C96.4629 155.301 93.0219 151.742 92.0133 147.174C90.9751 142.605 92.6066 138.126 95.929 134.982ZM77.3297 147.974C80.563 149.25 83.0845 151.86 83.8261 155.212C84.5677 158.565 83.3811 161.828 80.9487 164.141C77.7153 162.866 75.1939 160.226 74.4523 156.903C73.7107 153.551 74.8972 150.259 77.3297 147.974ZM87.89 149.309C90.2928 150.259 92.1617 152.187 92.7253 154.679C93.2889 157.17 92.399 159.603 90.5895 161.323C88.1867 160.374 86.3178 158.416 85.7542 155.924C85.1906 153.462 86.0805 151 87.89 149.309ZM209.809 68.4157C207.169 65.7756 205.982 62.0973 206.932 58.419C207.91 54.7406 210.788 51.8929 214.436 50.5877C217.047 53.1981 218.233 56.8764 217.284 60.5548C216.335 64.2628 213.428 67.0808 209.809 68.4157ZM200.287 38.5738C198.359 36.6456 197.498 33.9462 198.181 31.2171C198.893 28.488 201.028 26.4115 203.698 25.4326C205.626 27.3608 206.516 30.0899 205.804 32.7893C205.122 35.5184 202.986 37.5949 200.287 38.5738ZM208.711 49.4604C206.783 47.5026 205.893 44.8032 206.605 42.0741C207.317 39.3747 209.453 37.2686 212.123 36.3193C214.051 38.2475 214.941 40.9469 214.229 43.676C213.517 46.3754 211.381 48.4815 208.711 49.4604ZM167.122 147.085C165.966 145.364 165.728 143.199 166.707 141.241C167.686 139.283 169.614 137.978 171.809 137.592C172.966 139.313 173.174 141.478 172.225 143.436C171.246 145.394 169.288 146.699 167.122 147.085ZM176.14 137.236C174.776 135.189 174.509 132.579 175.666 130.235C176.823 127.862 179.166 126.29 181.806 125.815C183.171 127.892 183.467 130.502 182.281 132.846C181.124 135.219 178.78 136.791 176.14 137.236ZM161.902 139.669C160.24 137.177 159.914 134.062 161.308 131.244C162.732 128.426 165.521 126.527 168.665 125.964C170.326 128.456 170.652 131.57 169.258 134.388C167.864 137.206 165.046 139.105 161.902 139.669ZM188.392 141.478C189.014 139.758 190.557 138.334 192.663 137.77C194.769 137.206 196.935 137.651 198.507 138.779C197.884 140.499 196.341 141.923 194.235 142.487C192.129 143.05 189.964 142.605 188.392 141.478ZM186.226 132.964C185.366 131.333 185.395 129.345 186.463 127.625C187.561 125.934 189.459 124.926 191.477 124.748C192.337 126.409 192.337 128.396 191.239 130.087C190.142 131.778 188.243 132.787 186.226 132.964ZM191.061 134.596C191.714 132.876 193.256 131.452 195.363 130.888C197.439 130.324 199.605 130.769 201.206 131.897C200.554 133.617 199.011 135.041 196.935 135.605C194.829 136.168 192.663 135.723 191.061 134.596ZM156.948 165.061C159.499 163.429 162.91 162.866 166.114 163.874C169.318 164.883 171.631 167.167 172.492 169.896C169.911 171.557 166.529 172.091 163.325 171.083C160.092 170.104 157.808 167.79 156.948 165.061ZM169.14 159.899C169.792 162.035 171.572 163.874 174.064 164.675C176.585 165.506 179.255 165.12 181.302 163.845C180.649 161.679 178.869 159.84 176.348 159.039C173.856 158.209 171.186 158.624 169.14 159.899ZM183.705 162.391C182.844 164.468 183.111 166.9 184.624 168.858C186.167 170.816 188.599 171.884 191.091 171.913C191.922 169.807 191.684 167.404 190.142 165.417C188.629 163.459 186.196 162.391 183.705 162.391ZM195.452 169.985C193.85 171.676 193.167 174.019 193.85 176.333C194.562 178.647 196.43 180.397 198.774 181.168C200.376 179.448 201.028 177.104 200.346 174.791C199.664 172.477 197.765 170.756 195.452 169.985ZM193.345 152.424C193.375 154.649 194.562 156.844 196.786 158.179C198.982 159.543 201.681 159.751 203.995 158.98C203.965 156.755 202.779 154.59 200.583 153.225C198.359 151.89 195.659 151.653 193.345 152.424ZM223.543 141.597C220.369 140.825 217.67 138.719 216.483 135.753C215.297 132.787 215.86 129.612 217.759 127.21C220.903 127.981 223.632 130.087 224.819 133.053C226.005 136.02 225.412 139.194 223.543 141.597ZM221.764 109.115C221.556 106.979 222.475 104.813 224.433 103.33C226.391 101.877 228.942 101.432 231.256 101.966C231.464 104.101 230.544 106.267 228.586 107.75C226.599 109.233 224.048 109.649 221.764 109.115ZM203.787 119.467C204.914 117.806 206.902 116.679 209.216 116.56C211.529 116.412 213.665 117.332 215 118.844C213.873 120.506 211.885 121.633 209.572 121.752C207.258 121.87 205.122 120.98 203.787 119.467ZM212.36 93.1258C210.758 91.2866 210.165 88.7948 210.966 86.4217C211.796 84.0189 213.843 82.2688 216.305 81.5272C217.907 83.3663 218.5 85.8581 217.7 88.2312C216.869 90.634 214.822 92.3842 212.36 93.1258ZM228.052 98.139C227.756 95.1726 229.031 92.1172 231.79 90.0704C234.519 87.9939 238.079 87.4006 241.282 88.1719C241.579 91.1086 240.303 94.164 237.545 96.2108C234.816 98.2873 231.256 98.8806 228.052 98.139ZM205.3 146.491C203.046 145.305 201.473 143.199 201.266 140.707C201.028 138.245 202.215 135.931 204.173 134.448C206.427 135.634 207.999 137.711 208.237 140.203C208.444 142.694 207.287 144.978 205.3 146.491ZM208.8 157.793C206.991 156.844 205.686 155.123 205.508 153.106C205.33 151.089 206.279 149.191 207.91 147.974C209.72 148.953 211.025 150.644 211.203 152.691C211.381 154.708 210.432 156.577 208.8 157.793ZM217.818 165.417C215.03 163.934 213.042 161.323 212.746 158.209C212.479 155.094 213.932 152.216 216.424 150.348C219.242 151.801 221.2 154.441 221.497 157.556C221.793 160.671 220.31 163.548 217.818 165.417ZM226.747 153.314C224.433 153.166 222.208 152.068 220.874 150.14C219.568 148.212 219.479 145.928 220.399 143.999C222.742 144.148 224.967 145.245 226.272 147.174C227.578 149.102 227.696 151.386 226.747 153.314ZM141.433 162.213C139.268 161.264 137.637 159.425 137.221 157.141C136.806 154.857 137.726 152.661 139.416 151.148C141.582 152.098 143.213 153.937 143.629 156.221C144.044 158.505 143.124 160.7 141.433 162.213ZM171.453 117.154C171.75 114.958 173.204 112.941 175.547 111.814C177.89 110.687 180.59 110.746 182.785 111.725C182.488 113.92 181.035 115.967 178.691 117.094C176.348 118.192 173.678 118.162 171.453 117.154ZM227.578 113.683C228.942 111.191 231.582 109.293 234.875 108.818C238.138 108.343 241.312 109.382 243.478 111.369C242.113 113.861 239.473 115.73 236.21 116.204C232.917 116.679 229.743 115.641 227.578 113.683ZM223.603 125.608C225.531 123.442 228.586 122.107 231.909 122.285C235.231 122.463 238.049 124.095 239.681 126.468C237.752 128.604 234.727 129.939 231.404 129.761C228.082 129.583 225.234 127.951 223.603 125.608ZM116.634 185.766C123.843 177.342 127.996 168.799 130.369 162.124C132.831 170.549 136.539 178.439 140.603 185.44C140.01 185.499 139.416 185.796 139.06 186.33V186.3C139.031 186.33 136.984 189.385 128.144 189.86C119.304 189.385 117.228 186.33 117.228 186.3L117.198 186.33C117.04 186.093 116.852 185.905 116.634 185.766ZM164.898 250.849C153.358 254.26 141.137 256.1 128.5 256.1C116.397 256.1 104.68 254.409 93.5855 251.264C96.7892 250.879 100.052 249.9 103.167 247.972C106.727 250.018 117.524 254.824 131.496 247.586C134.967 249.633 146.358 255.032 158.846 248.061C160.003 248.921 161.902 250.019 164.898 250.849ZM194.977 237.5C191.457 239.636 187.838 241.604 184.12 243.403C183.675 243.463 183.26 243.67 182.904 243.967C180.175 245.252 177.396 246.439 174.568 247.527C173.718 247.665 172.778 247.754 171.75 247.794C162.91 247.319 160.834 244.264 160.834 244.264C160.181 243.374 158.965 243.136 158.016 243.73C145.082 251.828 133.335 243.908 132.772 243.492H132.742C132.119 243.047 131.259 242.988 130.547 243.374C115.774 251.591 105.243 244.412 104.443 243.848C103.731 243.285 102.722 243.225 101.951 243.789C90.2038 252.065 75.1049 243.285 75.0752 243.255C74.3929 242.869 73.5327 242.869 72.8504 243.344C72.8504 243.344 72.8405 243.354 72.8207 243.374C69.8543 241.95 66.967 240.407 64.1589 238.746C69.4094 240.496 77.7449 241.475 87.7417 236.314C91.2124 238.331 102.603 243.73 115.092 236.759C116.931 238.153 120.787 240.17 127.996 240.615C135.174 240.17 139.031 238.153 140.87 236.759C153.388 243.73 164.749 238.331 168.25 236.314C180.56 242.662 190.379 239.695 194.977 237.5ZM211.767 225.308C208.118 228.423 204.321 231.33 200.376 234.03C199.486 233.595 198.616 233.08 197.765 232.487C196.994 231.953 195.985 231.983 195.303 232.546C194.473 233.11 183.942 240.289 169.169 232.101C168.457 231.686 167.597 231.745 166.974 232.19L166.944 232.22C166.381 232.606 154.634 240.556 141.7 232.428C140.781 231.835 139.535 232.101 138.912 232.991V232.962C138.882 232.991 136.836 236.047 127.996 236.521C119.156 236.047 117.079 232.991 117.079 232.962V232.991C116.427 232.101 115.211 231.835 114.261 232.428C101.328 240.556 89.5809 232.606 89.0173 232.22L88.9876 232.19C88.3647 231.745 87.5044 231.686 86.7925 232.101C72.0198 240.289 61.4891 233.11 60.6882 232.546C59.9763 231.983 58.9677 231.953 58.1964 232.487C57.5438 232.942 56.8813 233.357 56.2089 233.733C52.2339 231.004 48.437 228.067 44.818 224.952C44.9762 224.854 45.1344 224.745 45.2926 224.626C49.2379 226.614 62.735 232.279 74.3336 225.13C77.8636 227.177 88.6613 231.983 102.633 224.774C106.133 226.792 117.495 232.19 130.013 225.219C131.852 226.614 135.679 228.631 142.887 229.076C150.095 228.631 153.922 226.614 155.761 225.219C168.279 232.19 179.641 226.792 183.141 224.774C197.113 231.983 207.91 227.177 211.44 225.13C211.539 225.19 211.648 225.249 211.767 225.308ZM223.988 213.324C221.16 216.488 218.184 219.504 215.059 222.372C214.249 221.976 213.458 221.502 212.686 220.948C211.915 220.414 210.906 220.444 210.195 221.007C209.394 221.571 198.863 228.749 184.061 220.533C183.349 220.147 182.518 220.206 181.865 220.651V220.681C181.302 221.066 169.555 228.987 156.621 220.888C155.672 220.295 154.456 220.533 153.803 221.422C153.803 221.452 151.727 224.478 142.887 224.982C134.047 224.478 131.971 221.452 131.971 221.422C131.348 220.533 130.102 220.295 129.182 220.888C116.249 228.987 104.472 221.066 103.909 220.681V220.651C103.256 220.206 102.425 220.147 101.713 220.533C86.9111 228.749 76.3804 221.571 75.5795 221.007C74.8675 220.444 73.859 220.414 73.1174 220.948C61.3408 229.224 46.2715 220.444 46.2122 220.414C45.5596 220.028 44.6993 220.028 44.017 220.503C43.1864 221.076 42.3657 221.581 41.5549 222.016C38.8852 219.524 36.3044 216.943 33.8423 214.273C39.7454 216.469 50.0685 218.812 59.205 213.176C62.7647 215.223 73.5623 220.028 87.5341 212.82C91.0048 214.837 102.396 220.236 114.884 213.265C116.723 214.659 120.58 216.676 127.788 217.121C134.967 216.676 138.823 214.659 140.662 213.265C153.18 220.236 164.542 214.837 168.042 212.82C181.984 220.028 192.782 215.223 196.341 213.176C206.813 219.643 218.856 215.608 223.988 213.324ZM231.642 203.891C230.336 205.671 228.982 207.421 227.578 209.142C227.261 208.944 226.955 208.746 226.658 208.548C225.976 208.074 225.116 208.074 224.433 208.459C224.404 208.489 209.334 217.269 197.558 208.993C196.786 208.43 195.778 208.489 195.096 209.053C194.265 209.616 183.734 216.795 168.962 208.578C168.25 208.192 167.389 208.252 166.767 208.697H166.737C166.173 209.112 154.426 217.032 141.493 208.934C140.573 208.341 139.327 208.578 138.704 209.468C138.675 209.498 136.628 212.523 127.788 213.028C118.948 212.523 116.872 209.498 116.872 209.468C116.219 208.578 115.003 208.341 114.054 208.934C101.12 217.032 89.3732 209.112 88.8096 208.697H88.7799C88.157 208.252 87.2968 208.192 86.5848 208.578C71.8122 216.795 61.2815 209.616 60.4805 209.053C59.7686 208.489 58.76 208.43 57.9888 208.993C46.2418 217.269 31.1429 208.489 31.1132 208.459C30.4606 208.074 29.6004 208.074 28.9477 208.519C27.5832 206.857 26.278 205.157 25.0321 203.416C30.9649 204.929 38.9445 205.493 46.2122 201.014C49.7718 203.06 60.5399 207.866 74.5116 200.658C78.0119 202.675 89.3732 208.074 101.891 201.103C103.731 202.497 107.587 204.514 114.766 204.959C121.974 204.514 125.83 202.497 127.64 201.103C140.158 208.074 151.519 202.675 155.02 200.658C168.991 207.866 179.789 203.06 183.349 201.014C194.918 208.163 208.415 202.497 212.36 200.509C219.657 205.107 226.421 205.196 231.642 203.891ZM238.464 193.598C237.614 195.041 236.724 196.475 235.795 197.899C231.256 200.272 222.95 202.764 213.636 196.386C212.953 195.911 212.123 195.911 211.44 196.297C211.381 196.327 196.312 205.107 184.565 196.831C183.794 196.297 182.785 196.327 182.073 196.89C181.272 197.454 170.741 204.633 155.969 196.445C155.227 196.03 154.397 196.089 153.774 196.534L153.744 196.564C153.18 196.95 141.433 204.9 128.5 196.772C127.551 196.178 126.335 196.445 125.682 197.335V197.306C125.682 197.335 123.605 200.391 114.766 200.865C105.926 200.391 103.879 197.335 103.849 197.306V197.335C103.226 196.445 101.98 196.178 101.061 196.772C88.1273 204.9 76.3804 196.95 75.8168 196.564L75.7871 196.534C75.1345 196.089 74.3039 196.03 73.592 196.445C58.8194 204.633 48.259 197.454 47.458 196.89C46.7758 196.327 45.7672 196.297 44.9959 196.831C36.4231 202.853 26.1 199.827 21.0868 197.751C20.1969 196.366 19.3366 194.972 18.506 193.568C22.214 193.331 26.278 192.203 30.5496 189.534C34.4949 191.491 47.9623 197.157 59.5609 190.008C63.1206 192.055 73.9183 196.861 87.89 189.652C91.3607 191.669 102.722 197.068 115.24 190.097C117.079 191.491 120.936 193.509 128.144 193.954C135.323 193.509 139.179 191.491 141.018 190.097C153.536 197.068 164.898 191.669 168.398 189.652C182.34 196.861 193.138 192.055 196.697 190.008C208.296 197.157 221.763 191.491 225.709 189.534C230.247 192.381 234.578 193.479 238.464 193.598ZM159.558 71.2041C156.058 69.6319 153.418 66.6062 152.795 62.8686C152.172 59.1309 153.714 55.5415 156.532 53.1091C160.062 54.6813 162.673 57.707 163.296 61.4447C163.919 65.212 162.406 68.7717 159.558 71.2041ZM70.4476 133.914C73.8886 137.177 75.5795 141.804 74.5116 146.521C73.4733 151.208 69.9137 154.916 65.3454 156.725C61.9341 153.492 60.2432 148.835 61.3111 144.148C62.3494 139.431 65.909 135.723 70.4476 133.914Z" fill="#203245"/>
</svg>
