<svg width="256" height="256" viewBox="0 0 256 256" fill="none" xmlns="http://www.w3.org/2000/svg">
<path d="M30.8065 206.686C32.7265 205.682 35.027 204.973 37.8811 204.506C20.3589 183.888 9.77298 157.181 9.77298 128C9.77298 62.7027 62.7027 9.77298 128 9.77298C193.297 9.77298 246.227 62.7027 246.227 128C246.227 157.181 235.641 183.888 218.119 204.506C220.973 204.973 223.274 205.682 225.194 206.686C226.18 207.187 226.993 207.723 227.702 208.294C245.414 186.344 256 158.409 256 128C256 57.306 198.694 0 128 0C57.306 0 0 57.306 0 128C0 158.409 10.586 186.344 28.2984 208.294C29.0076 207.723 29.8206 207.187 30.8065 206.686Z" fill="url(#paint0_linear_40_24036)"/>
<path d="M202.634 221.647C200.299 220.16 198.898 218.949 197.981 217.842L196.2 219.727C197.255 220.592 198.466 221.37 199.694 222.166C203.032 224.328 206.492 226.577 207.616 231.092C207.806 231.818 209.813 234.119 209.813 234.119C208.031 232.977 206.647 231.732 206.37 230.625C205.246 226.11 201.787 223.879 198.448 221.716C197.583 221.146 196.719 220.592 195.923 220.021L195.023 220.973C198.915 223.896 203.966 225.833 205.246 231.005C206.284 235.156 216.143 238.702 216.143 238.702C205.246 231.005 214.172 229.05 202.634 221.647Z" fill="url(#paint1_linear_40_24036)"/>
<path d="M60.5391 219.659C59.6051 220.368 58.6018 221.043 57.5467 221.718C54.2083 223.88 50.7489 226.111 49.6245 230.626C49.3478 231.733 47.964 232.978 46.1824 234.12C46.1824 234.12 48.1889 231.819 48.3791 231.093C49.5035 226.578 52.9629 224.329 56.3013 222.167C57.6678 221.285 59.017 220.42 60.1413 219.417L57.8408 218.033C56.924 219.088 55.5575 220.247 53.3608 221.648C41.8235 229.052 50.7489 231.006 39.8516 238.703C39.8516 238.703 49.711 235.158 50.7489 231.006C52.1154 225.488 57.7543 223.655 61.7327 220.368L60.5391 219.659Z" fill="url(#paint2_linear_40_24036)"/>
<path d="M202.223 231.766C201.531 228.999 199.04 227.39 196.186 225.522C195.955 225.372 195.719 225.222 195.477 225.072C176.346 238.408 153.081 246.227 128 246.227C102.919 246.227 79.6541 238.408 60.5233 225.072C60.2811 225.222 60.0447 225.372 59.8141 225.522C56.9427 227.39 54.4692 228.999 53.7773 231.766C53.7427 231.916 53.7024 232.066 53.6562 232.216C74.6033 247.196 100.272 256 128 256C155.728 256 181.397 247.196 202.344 232.216C202.298 232.066 202.257 231.916 202.223 231.766Z" fill="url(#paint3_linear_40_24036)"/>
<path fill-rule="evenodd" clip-rule="evenodd" d="M212.587 207.066C190.931 205.838 206.533 196.013 171.575 188.8C171.321 188.742 171.073 188.691 170.831 188.644C149.244 183.94 138.399 157.198 149.798 136.579C154.589 127.914 160.712 118.608 168.531 108.714C174.654 106.638 180.137 103.922 185.032 100.861C185.044 100.861 185.055 100.861 185.067 100.861C212.206 100.169 229.071 80.5189 229.071 80.5189C229.071 80.5189 213.677 93.2151 193.127 95.1178C209.058 82.3697 216.427 67.4076 216.427 67.4076C216.427 67.4076 198.178 87.3687 173.806 97.5568C176.66 94.2876 184.582 88.666 199.873 68.7395C204.89 64.9513 209.024 60.7135 212.379 56.5103C212.633 56.4757 212.892 56.4411 213.158 56.4065C214.645 56.2508 216.064 55.9567 217.378 55.5589C216.894 54.9708 214.541 52.2032 214.265 51.8919C213.988 52.2955 213.7 52.6991 213.4 53.1027L211.514 55.5762C208.159 59.7794 204.405 63.533 200.358 66.7157C205.564 61.5784 210.753 55.68 214.109 51.7189C213.786 51.3499 213.463 50.9867 213.14 50.6292C210.234 53.9503 206.81 57.3578 202.866 60.4886C204.682 53.8292 204.993 47.654 204.63 42.2054C204.1 41.7211 203.563 41.2483 203.021 40.787C202.122 64.4497 186.797 69.7427 186.797 69.7427L188.786 68.3762C196.708 62.893 201.62 53.0162 202.883 40.6659C202.526 40.3546 202.168 40.049 201.811 39.7492C200.738 51.9438 196.085 61.734 188.198 67.2C189.391 53.0508 188.734 40.32 187.437 29.9416C187.437 29.9416 185.05 28.0562 183.787 27.347C183.775 29.2958 183.718 31.3484 183.614 33.5048C183.487 36.0533 183.291 38.5902 183.026 41.1157C181.14 34.2313 179.099 28.454 177.335 24.0259C176.712 23.7261 176.09 23.4378 175.467 23.161C177.318 30.4432 179.635 41.6 180.812 55.0746C177.819 69.1719 172.613 82.6292 165.469 94.8757C163.359 87.2476 161.37 77.5438 164.708 63.6368C173.53 26.8973 163.895 20.2378 163.895 20.2378C163.895 20.2378 166.732 24.2335 164.656 38.0021C161.733 33.0032 160.055 27.7448 159.086 23.2648C159.236 22.792 159.403 22.3077 159.588 21.8119C160.141 20.3935 160.505 18.9924 160.73 17.6432C160.337 17.5279 159.94 17.4126 159.536 17.2973C159.294 18.3178 158.965 19.3556 158.533 20.3935C158.325 19.1135 158.17 17.9373 158.048 16.8821C157.818 16.8245 157.581 16.761 157.339 16.6919C157.27 19.2519 157.374 22.6248 157.997 26.4302C153.153 22.9881 151.164 17.2281 151.164 17.2281C151.164 17.2281 152.375 24.147 158.342 28.3156C158.342 28.3272 158.348 28.3387 158.36 28.3502C159.277 32.8302 160.937 37.7773 163.843 42.6378C163.065 46.4951 161.958 50.9751 160.401 56.1643C160.343 56.3373 160.286 56.516 160.228 56.7005C157.997 48.4497 154.762 41.3405 151.268 35.3556C151.141 34.56 151.031 33.7355 150.939 32.8821C150.455 28.6616 149.434 24.8735 148.154 21.5351C148.281 20.9816 148.425 20.405 148.587 19.8054C149.037 18.1102 149.296 16.467 149.434 14.9102C148.915 14.8065 148.397 14.7142 147.878 14.6335C147.67 15.9481 147.359 17.2973 146.944 18.6637C146.165 16.9859 145.335 15.4637 144.505 14.0973C143.882 14.005 143.259 13.9185 142.637 13.8378C144.678 17.9892 146.667 23.3513 147.48 29.4573C141.235 20.5146 134.957 14.9967 132.466 12.9902C132.362 12.9902 132.258 12.9902 132.154 12.9902C133.365 14.3394 135.873 17.2627 138.831 21.5005C136.081 20.134 133.4 19.4421 131.134 19.0962C134.317 20.3935 138.208 22.7286 141.685 25.7902C143.674 28.9729 145.75 32.64 147.687 36.7221C140.18 29.4054 132.275 27.3124 132.275 27.3124C132.275 27.3124 145.127 33.4011 151.873 47.0313C154.07 53.4832 155.696 60.6443 156.25 68.3243C144.038 55.334 140.803 37.8638 140.803 37.8638C140.803 37.8638 141.062 48.0519 146.442 59.5892C135.925 52.4973 130.805 41.1329 130.805 41.1329C130.805 41.1329 134.438 54.6249 146.58 63.2562C148.137 64.813 149.659 66.3351 151.199 67.8919C151.337 68.0879 151.481 68.284 151.631 68.48C154.399 72.3892 155.575 77.3708 155.021 82.2832C154.762 84.6703 154.537 87.1265 154.399 89.5827C154.191 93.3189 153.741 97.0378 153.067 100.688C150.628 97.5914 148.414 94.426 146.563 91.0357C144.297 86.9016 143.709 81.9546 144.643 77.2497C145.352 73.6 145.767 69.0854 144.937 64.6746C144.937 64.6746 144.764 72.5622 142.152 79.8443C141.685 77.8897 141.305 75.8313 141.062 73.6865C140.422 67.8227 136.669 62.8411 131.584 57.3578C136.081 64.1211 137.344 69.6043 137.828 74.6032C138.139 77.8205 137.655 81.0378 136.582 84.0303C135.475 87.1784 135.026 90.2227 135.579 93.3535C135.994 95.6714 136.202 97.9027 136.237 100.065C131.947 93.7514 130.182 86.0368 130.182 86.0368C130.148 91.6238 132.051 96.6919 133.867 100.272C135.458 103.369 135.925 107.053 135.112 110.495C134.005 115.148 132.172 119.576 129.94 123.987C129.283 125.284 128.626 126.582 128.003 127.862C127.38 126.582 126.723 125.284 126.066 123.987C123.834 119.576 122.001 115.148 120.894 110.495C120.081 107.053 120.548 103.369 122.139 100.272C123.955 96.6919 125.858 91.6238 125.824 86.0368C125.824 86.0368 124.059 93.7514 119.77 100.065C119.804 97.9027 120.012 95.6714 120.427 93.3535C120.98 90.2227 120.531 87.1784 119.424 84.0303C118.351 81.0378 117.867 77.8205 118.178 74.6032C118.662 69.6043 119.925 64.1211 124.422 57.3578C119.337 62.8411 115.584 67.8227 114.944 73.6865C114.701 75.8313 114.321 77.8897 113.837 79.8443C111.242 72.5622 111.069 64.6746 111.069 64.6746C110.239 69.0854 110.654 73.6 111.363 77.2497C112.297 81.9546 111.709 86.9016 109.443 91.0357C107.592 94.426 105.378 97.5914 102.939 100.688C102.265 97.0378 101.815 93.3189 101.607 89.5827C101.469 87.1265 101.244 84.6703 100.985 82.2832C100.431 77.3708 101.607 72.3892 104.375 68.48C104.525 68.284 104.669 68.0879 104.807 67.8919C106.347 66.3351 107.869 64.813 109.426 63.2562C121.568 54.6249 125.201 41.1329 125.201 41.1329C125.201 41.1329 120.081 52.4973 109.564 59.5892C114.944 48.0519 115.203 37.8638 115.203 37.8638C115.203 37.8638 111.968 55.334 99.7565 68.3243C100.31 60.6443 101.936 53.4832 104.133 47.0313C110.879 33.4011 123.731 27.3124 123.731 27.3124C123.731 27.3124 115.826 29.4054 108.319 36.7221C110.256 32.64 112.332 28.9729 114.321 25.7902C117.798 22.7286 121.69 20.3935 124.872 19.0962C122.606 19.4421 119.925 20.134 117.175 21.5005C120.133 17.2627 122.641 14.3394 123.852 12.9902C123.748 12.9902 123.644 12.9902 123.54 12.9902C121.05 14.9967 114.771 20.5146 108.526 29.4573C109.339 23.3513 111.328 17.9892 113.37 13.8378C112.747 13.9185 112.124 14.005 111.501 14.0973C110.671 15.4637 109.841 16.9859 109.062 18.6637C108.647 17.2973 108.336 15.9481 108.128 14.6335C107.609 14.7142 107.091 14.8065 106.572 14.9102C106.71 16.467 106.969 18.1102 107.419 19.8054C107.581 20.405 107.725 20.9816 107.852 21.5351C106.572 24.8735 105.551 28.6616 105.067 32.8821C104.975 33.7355 104.865 34.56 104.738 35.3556C101.244 41.3405 98.0095 48.4497 95.7781 56.7005C95.7205 56.516 95.6628 56.3373 95.6052 56.1643C94.0484 50.9751 92.9414 46.4951 92.163 42.6378C95.0689 37.7773 96.7295 32.8302 97.6462 28.3502C97.6578 28.3387 97.6635 28.3272 97.6635 28.3156C103.631 24.147 104.842 17.2281 104.842 17.2281C104.842 17.2281 102.853 22.9881 98.0095 26.4302C98.6322 22.6248 98.736 19.2519 98.6668 16.6919C98.4246 16.761 98.1882 16.8245 97.9576 16.8821C97.8365 17.9373 97.6808 19.1135 97.4733 20.3935C97.0408 19.3556 96.7122 18.3178 96.47 17.2973C96.0664 17.4126 95.6686 17.5279 95.2765 17.6432C95.5014 18.9924 95.8646 20.3935 96.4181 21.8119C96.6026 22.3077 96.7698 22.792 96.9198 23.2648C95.9511 27.7448 94.2733 33.0032 91.35 38.0021C89.2743 24.2335 92.1111 20.2378 92.1111 20.2378C92.1111 20.2378 82.4765 26.8973 91.2981 63.6368C94.6365 77.5438 92.6473 87.2476 90.5371 94.8757C83.3933 82.6292 78.1868 69.1719 75.1943 55.0746C76.3706 41.6 78.6884 30.4432 80.5392 23.161C79.9165 23.4378 79.2938 23.7261 78.6711 24.0259C76.9068 28.454 74.8657 34.2313 72.9803 41.1157C72.7151 38.5902 72.519 36.0533 72.3922 33.5048C72.2884 31.3484 72.2307 29.2958 72.2192 27.347C70.9565 28.0562 68.5695 29.9416 68.5695 29.9416C67.2722 40.32 66.6149 53.0508 67.8084 67.2C59.9208 61.734 55.2678 51.9438 54.1954 39.7492C53.8379 40.049 53.4805 40.3546 53.123 40.6659C54.3857 53.0162 59.2981 62.893 67.2203 68.3762L69.2095 69.7427C69.2095 69.7427 53.8841 64.4497 52.9846 40.787C52.4426 41.2483 51.9064 41.7211 51.376 42.2054C51.0127 47.654 51.3241 53.8292 53.1403 60.4886C49.1965 57.3578 45.7716 53.9503 42.8657 50.6292C42.5428 50.9867 42.2199 51.3499 41.897 51.7189C45.2527 55.68 50.4419 61.5784 55.6484 66.7157C51.6008 63.533 47.8473 59.7794 44.4916 55.5762L42.6062 53.1027C42.3064 52.6991 42.0181 52.2955 41.7414 51.8919C41.4646 52.2032 39.1122 54.9708 38.6278 55.5589C39.9424 55.9567 41.3608 56.2508 42.8484 56.4065C43.1136 56.4411 43.3731 56.4757 43.6268 56.5103C46.9824 60.7135 51.1165 64.9513 56.1327 68.7395C71.4235 88.666 79.3457 94.2876 82.1998 97.5568C57.8279 87.3687 39.5792 67.4076 39.5792 67.4076C39.5792 67.4076 46.9478 82.3697 62.8787 95.1178C42.3295 93.2151 26.9349 80.5189 26.9349 80.5189C26.9349 80.5189 43.7997 100.169 70.9392 100.861C70.9507 100.861 70.9623 100.861 70.9738 100.861C75.8689 103.922 81.3522 106.638 87.4754 108.714C95.2938 118.608 101.417 127.914 106.208 136.579C117.607 157.198 106.762 183.94 85.1749 188.644C84.9327 188.691 84.6848 188.742 84.4311 188.8C49.4732 196.013 65.0754 205.838 43.4192 207.066C21.763 208.294 33.2657 218.413 12.3359 220.575C12.3359 220.575 28.9414 223.533 33.2657 218.413C38.5587 212.1 46.9478 213.293 54.4549 212.342C53.7284 213.224 52.6733 213.95 49.9057 214.573C41.8797 216.389 46.7057 219.451 31.8819 225.972C31.8819 225.972 41.1878 226.041 46.7057 219.451C49.923 215.611 55.9943 217.531 58.416 212.826C58.7792 212.117 59.6441 211.494 60.8203 210.941C59.0214 215.161 60.4224 217.116 53.3651 221.648C41.8278 229.051 50.7533 231.005 39.856 238.703C39.856 238.703 49.7154 235.157 50.7533 231.005C52.7943 222.824 64.1587 222.737 65.6635 214.071C66.6149 208.467 74.5716 203.278 82.5111 199.421C82.1133 199.922 81.6808 200.441 81.2138 200.96C71.7003 211.39 78.4981 210.802 71.977 216.268C65.456 221.717 71.0257 222.184 64.9197 227.754C64.9197 227.754 70.6797 224.796 71.0257 222.184C71.7003 217.029 78.6192 216.043 78.9306 210.629C78.9998 209.574 79.8992 208.208 81.2484 206.755C78.8614 214.625 82.3727 212.67 79.8819 217.773C77.27 223.135 80.816 221.7 78.4981 227.01C78.4981 227.01 81.283 223.412 80.816 221.7C79.9165 218.327 83.7565 215.645 82.736 212.169C81.2311 206.997 90.5025 203.468 94.2214 199.94C93.1317 202.102 92.3187 204.8 90.3814 205.181C88.79 205.509 87.1122 209.851 87.1122 209.851C90.3814 205.181 90.8311 209.297 94.0138 204.316C96.7641 200.043 100.102 203.07 104.928 199.386C104.012 201.064 103.078 202.275 102.195 202.603C100.708 203.14 99.7911 204.264 99.0819 205.613C98.8052 206.08 98.5976 206.547 98.4073 206.997C97.8019 208.415 97.2311 209.747 95.0344 210.11C94.7057 210.162 94.3252 210.197 93.91 210.214C93.5064 210.226 93.1432 210.254 92.8203 210.301C90.9349 210.629 90.3122 211.598 89.3608 213.103C88.3057 214.763 86.9392 216.925 83.3068 219.036C83.5835 219.013 83.8603 218.978 84.1371 218.932C86.9392 218.465 89.1879 216.804 90.7965 214.02C91.8344 212.238 93.149 211.805 94.3079 211.615C94.7403 211.546 95.1727 211.511 95.5879 211.477C95.9338 211.442 96.2452 211.408 96.5565 211.373C95.9338 212.463 95.1554 213.38 93.9965 213.916C91.7825 214.936 90.6235 221.803 90.6235 221.803C93.9965 213.916 95.83 219.693 98.9954 211.408C101.521 204.765 102.801 208.138 106.71 203.226C105.741 206.357 108.336 207.464 105.119 210.093C100.777 213.639 104.375 213.362 100.379 217.635C100.379 217.635 103.7 217.185 104.461 213.985C105.257 210.664 109.772 209.989 109.772 206.409C109.754 200.631 115.047 201.341 119.06 201.202C117.59 203.122 118.005 204.904 117.711 206.288C117.382 207.81 117.071 209.245 114.995 210.093C114.667 210.214 114.304 210.335 113.888 210.439C113.508 210.531 113.162 210.641 112.851 210.768C111.069 211.494 110.637 212.601 109.979 214.262C109.27 216.147 108.319 218.551 105.153 221.423C105.419 221.342 105.684 221.25 105.949 221.146C108.613 220.074 110.498 217.946 111.571 214.85C112.245 212.895 113.456 212.169 114.546 211.719C114.961 211.563 115.376 211.425 115.774 211.304C116.189 211.165 116.569 211.044 116.95 210.889C118.144 210.404 119.268 209.643 119.579 207.291C119.718 206.201 120.306 205.284 121.344 204.506C120.565 208.813 119.666 211.165 119.77 211.373C119.77 211.373 122.139 208.865 124.509 203.797C125.772 204.956 125.772 208.052 123.852 208.848C119.06 210.837 117.452 217.756 117.192 218.223C117.192 218.223 120.565 213.051 123.8 211.909C127.398 210.629 127.726 209.816 128.003 208.709C128.28 209.816 128.608 210.629 132.206 211.909C135.441 213.051 138.814 218.223 138.814 218.223C138.554 217.756 136.946 210.837 132.154 208.848C130.234 208.052 130.234 204.956 131.497 203.797C133.867 208.865 136.237 211.373 136.237 211.373C136.34 211.165 135.441 208.813 134.662 204.506C135.7 205.284 136.288 206.201 136.427 207.291C136.738 209.643 137.862 210.404 139.056 210.889C139.437 211.044 139.817 211.165 140.232 211.304C140.63 211.425 141.045 211.563 141.46 211.719C142.55 212.169 143.761 212.895 144.435 214.85C145.508 217.946 147.393 220.074 150.057 221.146C150.322 221.25 150.588 221.342 150.853 221.423C147.687 218.551 146.736 216.147 146.027 214.262C145.37 212.601 144.937 211.494 143.155 210.768C142.844 210.641 142.498 210.531 142.118 210.439C141.702 210.335 141.339 210.214 141.011 210.093C138.935 209.245 138.624 207.81 138.295 206.288C138.001 204.904 138.416 203.122 136.946 201.202C140.959 201.341 146.252 200.631 146.234 206.409C146.234 209.989 150.749 210.664 151.545 213.985C152.306 217.185 155.627 217.635 155.627 217.635C151.631 213.362 155.229 213.639 150.887 210.093C147.67 207.464 150.265 206.357 149.296 203.226C153.205 208.138 154.485 204.765 157.011 211.408C160.176 219.693 162.01 213.916 165.382 221.803C165.382 221.803 164.224 214.936 162.01 213.916C160.851 213.38 160.072 212.463 159.45 211.373C159.761 211.408 160.072 211.442 160.418 211.477C160.833 211.511 161.266 211.546 161.698 211.615C162.857 211.805 164.172 212.238 165.21 214.02C166.818 216.804 169.067 218.465 171.869 218.932C172.146 218.978 172.423 219.013 172.699 219.036C169.067 216.925 167.7 214.763 166.645 213.103C165.694 211.598 165.071 210.629 163.186 210.301C162.863 210.254 162.5 210.226 162.096 210.214C161.681 210.197 161.3 210.162 160.972 210.11C158.775 209.747 158.204 208.415 157.599 206.997C157.408 206.547 157.201 206.08 156.924 205.613C156.215 204.264 155.298 203.14 153.811 202.603C152.928 202.275 151.994 201.064 151.078 199.386C155.904 203.07 159.242 200.043 161.992 204.316C165.175 209.297 165.625 205.181 168.894 209.851C168.894 209.851 167.216 205.509 165.625 205.181C163.687 204.8 162.874 202.102 161.785 199.94C165.504 203.468 174.775 206.997 173.27 212.169C172.25 215.645 176.09 218.327 175.19 221.7C174.723 223.412 177.508 227.01 177.508 227.01C175.19 221.7 178.736 223.135 176.124 217.773C173.633 212.67 177.145 214.625 174.758 206.755C176.107 208.208 177.006 209.574 177.075 210.629C177.387 216.043 184.306 217.029 184.98 222.184C185.326 224.796 191.086 227.754 191.086 227.754C184.98 222.184 190.55 221.717 184.029 216.268C177.508 210.802 184.306 211.39 174.792 200.96C174.325 200.441 173.893 199.922 173.495 199.421C181.434 203.278 189.391 208.467 190.343 214.071C191.847 222.737 203.212 222.824 205.253 231.005C206.291 235.157 216.15 238.703 216.15 238.703C205.253 231.005 214.178 229.051 202.641 221.648C195.584 217.116 196.985 215.161 195.186 210.941C196.362 211.494 197.227 212.117 197.59 212.826C200.012 217.531 206.083 215.611 209.3 219.451C214.818 226.041 224.124 225.972 224.124 225.972C209.3 219.451 214.126 216.389 206.1 214.573C203.333 213.95 202.278 213.224 201.551 212.342C209.058 213.293 217.447 212.1 222.74 218.413C227.065 223.533 243.67 220.575 243.67 220.575C222.74 218.413 234.243 208.294 212.587 207.066ZM205.408 81.3146C202.26 85.0335 196.812 90.1362 190.17 93.0249C196.345 89.133 201.499 84.8951 205.408 81.3146ZM193.214 96.4843C200.998 95.7578 208.003 93.5611 213.763 91.053C206.896 95.066 199.856 97.5568 188.838 96.8822L193.214 96.4843ZM178.2 29.7513C179.428 33.1935 181.815 41.7557 181.971 54.9362C181.123 45.1805 179.653 36.5665 178.2 29.7513ZM161.785 37.1719C160.366 33.9546 159.328 30.4951 158.706 26.8627C159.259 28.9902 162.598 39.1092 162.598 39.1092C162.338 38.4519 162.061 37.8119 161.785 37.1719ZM147.255 22.5729C148.518 25.9632 149.365 29.4919 149.78 33.0724C149.861 33.7874 149.953 34.4966 150.057 35.2C150.057 35.2 147.843 24.6659 147.255 22.5729ZM142.948 25.4962C146.701 29.4054 150.074 37.2584 150.957 39.4032C148.691 35.1481 144.73 28.3675 142.948 25.4962ZM106.226 33.0724C106.641 29.4919 107.488 25.9632 108.751 22.5729C108.163 24.6659 105.949 35.2 105.949 35.2C106.053 34.4966 106.145 33.7874 106.226 33.0724ZM113.058 25.4962C111.277 28.3675 107.315 35.1481 105.049 39.4032C105.932 37.2584 109.305 29.4054 113.058 25.4962ZM97.3003 26.8627C96.6776 30.4951 95.6398 33.9546 94.2214 37.1719C93.9273 37.8119 93.6679 38.4519 93.4084 39.1092C93.4084 39.1092 96.7468 28.9902 97.3003 26.8627ZM74.0354 54.9362C74.1911 41.7557 76.5781 33.1935 77.8062 29.7513C76.3533 36.5665 74.883 45.1805 74.0354 54.9362ZM50.5976 81.3146C54.5068 84.9124 59.6614 89.1503 65.8365 93.0422C59.177 90.1535 53.7457 85.0508 50.5976 81.3146ZM42.243 91.053C48.003 93.5611 55.0084 95.7751 62.7922 96.4843L67.1684 96.8995C56.15 97.5568 49.0927 95.066 42.243 91.053ZM43.4711 210.906C32.9024 211.511 30.9132 214.054 28.0246 216.856C27.1424 217.704 23.9078 219.935 21.2095 220.056C25.0149 218.569 26.6754 216.562 28.3014 214.608C30.6711 211.736 32.9024 209.038 43.4711 208.45C53.8495 207.862 56.1154 205.284 58.9868 202.015C56.7554 205.907 53.8495 210.318 43.4711 210.906ZM64.5046 213.812C63.8473 217.652 60.7857 219.624 57.5511 221.717C54.2127 223.879 50.7533 226.128 49.6289 230.642C49.3522 231.749 47.9684 232.977 46.1868 234.136C46.1868 234.136 48.1933 231.836 48.3835 231.092C49.5079 226.577 52.9673 224.346 56.3057 222.167C59.5403 220.074 62.6019 218.102 63.2592 214.262C65.0581 203.78 80.8852 198.746 80.8852 198.746C70.87 203.78 65.3695 208.848 64.5046 213.812ZM77.4776 210.007C76.6819 213.38 75.3154 214.642 75.3154 214.642C76.1284 213.449 76.3533 212.428 76.5608 211.165C76.8203 209.453 77.1489 207.308 82.0095 201.963C82.2747 201.663 82.5399 201.358 82.8052 201.047C82.0614 203.278 78.2041 207.031 77.4776 210.007ZM117.192 86.0368C117.434 93.8378 114.546 99.5287 114.096 105.911C114.084 105.923 114.067 105.934 114.044 105.946H114.096C113.854 109.561 114.39 113.401 116.725 117.968C124.232 132.636 123.229 138.655 121.171 145.159C119.078 140.229 116.535 135.005 113.404 129.505C111.657 126.409 110.066 123.209 108.682 119.922C105.551 112.519 106.693 103.766 111.64 97.6605C111.674 97.626 111.709 97.5856 111.744 97.5395C115.099 93.4054 116.518 89.6865 117.192 86.0368ZM103.804 101.622C106.537 98.1449 108.699 94.9276 110.429 91.7795C112.193 88.5449 113.058 84.7741 112.954 80.8822V80.8995C113.058 81.1935 115.947 90.4822 102.265 103.559L103.804 101.622ZM100.552 69.3622C104.323 65.3492 107.246 60.9384 109.512 56.7351C109.201 57.4616 108.878 58.1939 108.544 58.9319L108.284 59.4681C106.675 62.6854 103.441 68.0822 98.3554 71.6973L100.552 69.3622ZM92.4398 63.2735C88.0808 45.1113 88.3749 34.6811 89.43 29.1113C89.43 29.1113 89.1014 41.7902 91.9727 54.7113C94.4635 65.9546 97.2657 78.8584 92.9587 90.0151C94.4981 82.733 95.0863 74.2746 92.4398 63.2735ZM98.8917 200.251C97.5079 200.424 96.0895 200.614 94.7749 201.635C95.4495 200.77 98.3727 199.282 100.293 199.386C101.971 199.49 104.288 198.244 104.288 198.244C102.265 199.801 100.552 200.026 98.8917 200.251ZM102.835 204.714C100.224 206.08 99.4625 207.62 99.4625 207.62L99.4798 207.637C99.4567 207.683 99.4336 207.723 99.4106 207.758C99.4221 207.712 99.4394 207.666 99.4625 207.62C99.6527 207.187 99.8257 206.772 100.051 206.391L100.085 206.34C100.76 205.042 101.521 204.298 102.541 203.918C103.648 203.52 104.721 202.309 105.914 200.13C105.914 200.13 105.43 203.347 102.835 204.714ZM101.434 181.016C104.928 177.453 107.731 173.042 109.581 168.009C113.491 157.371 112.626 145.643 107.194 135.853C102.092 126.634 95.7435 117.189 88.3403 107.797C88.3403 107.797 95.5879 115.408 102.524 125.181C107.627 132.394 112.781 140.42 113.629 149.414C114.944 163.079 110.083 174.391 101.434 181.016ZM119.043 199.853C118.576 199.87 118.109 199.87 117.625 199.87C115.635 199.888 113.594 199.922 111.899 200.649C109.737 201.583 108.595 203.589 108.595 206.443C108.613 207.083 108.353 207.585 107.904 208.104C107.904 208.104 108.544 206.98 108.077 204.973C107.609 202.967 110.204 199.438 113.006 199.524C115.67 199.594 121.793 199.767 121.793 199.767L119.043 199.853ZM122.157 201.617C120.721 201.808 119.666 203.364 119.043 204.904C119.043 204.904 119.821 200.735 123.021 201.514L122.157 201.617ZM120.323 101.466C119.233 104.458 119.043 107.728 119.787 110.858C120.721 114.837 122.226 118.867 124.474 123.468C114.805 109.388 120.323 101.466 120.323 101.466ZM164.051 54.694C166.939 41.773 166.593 29.094 166.593 29.094C167.648 34.6638 167.942 45.094 163.584 63.2562C160.954 74.2573 161.525 82.7157 163.065 89.9978C158.758 78.8238 161.56 65.9373 164.051 54.694ZM147.739 59.4508L147.497 58.9146C147.151 58.1766 146.828 57.4443 146.528 56.7178C148.777 60.9211 151.7 65.3319 155.471 69.3449L157.668 71.68C152.582 68.0649 149.348 62.6681 147.739 59.4508ZM143.069 80.8822V80.8649C142.965 84.7568 143.813 88.5276 145.594 91.7795C147.307 94.9276 149.486 98.1449 152.219 101.604L153.759 103.559C140.077 90.4649 142.965 81.1935 143.069 80.8822ZM141.91 105.929H141.979C141.956 105.917 141.933 105.906 141.91 105.894C141.46 99.5114 138.572 93.8378 138.831 86.0368C139.506 89.6865 140.924 93.3881 144.28 97.5395C144.314 97.5741 144.349 97.6144 144.384 97.6605C149.331 103.749 150.472 112.502 147.341 119.905C145.94 123.191 144.366 126.391 142.602 129.505C139.488 135.005 136.928 140.212 134.853 145.142C132.777 138.638 131.791 132.618 139.298 117.968C141.633 113.384 142.17 109.544 141.91 105.929ZM136.254 110.858C136.998 107.728 136.79 104.458 135.718 101.466C135.718 101.466 141.218 109.388 131.566 123.468C133.815 118.867 135.302 114.837 136.254 110.858ZM136.998 204.887C136.358 203.347 135.302 201.808 133.867 201.617L133.002 201.496C136.202 200.735 136.998 204.887 136.998 204.887ZM147.428 206.409C147.428 203.572 146.304 201.565 144.141 200.631C142.446 199.888 140.388 199.87 138.399 199.853C137.914 199.853 137.447 199.853 136.98 199.836L134.23 199.749C134.23 199.749 140.371 199.576 143.017 199.49C145.819 199.421 148.414 202.949 147.947 204.956C147.48 206.962 148.12 208.087 148.12 208.087C147.67 207.568 147.428 207.066 147.428 206.409ZM153.482 203.901C154.502 204.281 155.264 205.025 155.955 206.322L155.973 206.374C156.198 206.755 156.371 207.152 156.561 207.602C156.584 207.648 156.601 207.694 156.613 207.741C156.59 207.694 156.567 207.654 156.544 207.62L156.561 207.602C156.561 207.602 155.8 206.045 153.188 204.696C150.593 203.33 150.109 200.113 150.109 200.113C151.302 202.292 152.375 203.503 153.482 203.901ZM142.394 149.379C143.242 140.402 148.397 132.376 153.499 125.163C160.435 115.373 167.683 107.779 167.683 107.779C160.28 117.172 153.932 126.599 148.829 135.836C143.415 145.626 142.533 157.354 146.442 167.974C148.293 173.025 151.095 177.436 154.606 180.999C145.94 174.374 141.097 163.062 142.394 149.379ZM157.132 200.216C155.471 200.009 153.759 199.784 151.735 198.227C151.735 198.227 154.053 199.472 155.731 199.369C157.651 199.265 160.574 200.752 161.248 201.617C159.934 200.597 158.515 200.407 157.132 200.216ZM174.014 201.946C178.874 207.291 179.203 209.436 179.463 211.165C179.653 212.411 179.895 213.449 180.708 214.625C180.708 214.625 179.341 213.362 178.528 210.007C177.819 207.031 173.962 203.261 173.218 201.029C173.472 201.352 173.737 201.658 174.014 201.946ZM199.718 222.167C203.056 224.329 206.516 226.56 207.64 231.075C207.83 231.818 209.819 234.119 209.819 234.119C208.038 232.977 206.671 231.732 206.394 230.625C205.27 226.11 201.811 223.879 198.455 221.7C195.22 219.607 192.176 217.635 191.519 213.795C190.654 208.848 185.153 203.78 175.138 198.729C175.138 198.729 190.965 203.762 192.764 214.262C193.421 218.084 196.466 220.074 199.718 222.167ZM227.999 216.856C225.093 214.037 223.121 211.494 212.552 210.906C202.174 210.318 199.268 205.89 197.019 202.015C199.891 205.267 202.174 207.844 212.552 208.433C223.121 209.038 225.352 211.736 227.722 214.59C229.348 216.562 231.008 218.569 234.797 220.039C232.116 219.935 228.864 217.704 227.999 216.856Z" fill="url(#paint4_linear_40_24036)"/>
<path d="M39.1418 127.999C39.1418 117.223 41.0618 106.914 44.5732 97.3485C41.7018 95.9301 39.1764 94.4426 37.0316 93.0415C36.6856 92.8109 36.3397 92.5802 35.9937 92.3496C31.704 103.403 29.3516 115.424 29.3516 127.999C29.3516 154.897 40.1278 179.269 57.5635 197.068C59.0337 195.563 60.9537 193.919 63.8943 192.276C64.4709 191.953 65.0705 191.642 65.6932 191.342C49.3127 175.221 39.1418 152.804 39.1418 127.999Z" fill="url(#paint5_linear_40_24036)"/>
<path d="M198.434 197.068C215.87 179.269 226.646 154.897 226.646 127.999C226.646 115.424 224.294 103.403 220.004 92.3496C219.658 92.5802 219.312 92.8109 218.966 93.0415C216.821 94.4426 214.296 95.9301 211.425 97.3485C214.936 106.914 216.856 117.223 216.856 127.999C216.856 152.804 206.685 175.221 190.305 191.342C190.927 191.642 191.527 191.953 192.104 192.276C195.044 193.919 196.964 195.563 198.434 197.068Z" fill="url(#paint6_linear_40_24036)"/>
<defs>
<linearGradient id="paint0_linear_40_24036" x1="331.748" y1="41.0816" x2="124.098" y2="332.843" gradientUnits="userSpaceOnUse">
<stop stop-color="#8DC63F"/>
<stop offset="1" stop-color="#046738"/>
</linearGradient>
<linearGradient id="paint1_linear_40_24036" x1="225.828" y1="224.731" x2="208.872" y2="248.555" gradientUnits="userSpaceOnUse">
<stop stop-color="#8DC63F"/>
<stop offset="1" stop-color="#046738"/>
</linearGradient>
<linearGradient id="paint2_linear_40_24036" x1="225.636" y1="6.7454" x2="50.3494" y2="253.034" gradientUnits="userSpaceOnUse">
<stop stop-color="#8DC63F"/>
<stop offset="1" stop-color="#046738"/>
</linearGradient>
<linearGradient id="paint3_linear_40_24036" x1="298.795" y1="20.5494" x2="91.5702" y2="311.714" gradientUnits="userSpaceOnUse">
<stop stop-color="#8DC63F"/>
<stop offset="1" stop-color="#046738"/>
</linearGradient>
<linearGradient id="paint4_linear_40_24036" x1="362.086" y1="64.5193" x2="159.31" y2="349.432" gradientUnits="userSpaceOnUse">
<stop stop-color="#8DC63F"/>
<stop offset="1" stop-color="#046738"/>
</linearGradient>
<linearGradient id="paint5_linear_40_24036" x1="336.891" y1="2.48388" x2="100.199" y2="335.051" gradientUnits="userSpaceOnUse">
<stop stop-color="#8DC63F"/>
<stop offset="1" stop-color="#046738"/>
</linearGradient>
<linearGradient id="paint6_linear_40_24036" x1="398.155" y1="142.545" x2="219.918" y2="392.979" gradientUnits="userSpaceOnUse">
<stop stop-color="#8DC63F"/>
<stop offset="1" stop-color="#046738"/>
</linearGradient>
</defs>
</svg>
