<svg width="257" height="102" viewBox="0 0 257 102" fill="none" xmlns="http://www.w3.org/2000/svg">
<path fill-rule="evenodd" clip-rule="evenodd" d="M37.264 17.5291C52.0223 4.84433 69.0743 -2.51167 88.9066 1.43856C118.551 7.3581 226.33 40.5006 256.299 49.6985C256.299 49.6985 173.101 27.8506 98.5794 7.9489C95.3358 7.08008 92.4861 7.35811 89.2194 8.12267C79.2106 11.3547 71.2869 19.0003 62.4366 23.5181C58.8686 25.3369 53.2271 26.2288 47.7014 26.3215C42.3032 26.4142 37.0207 25.7423 33.6845 23.6687C32.6882 23.0432 32.4334 22.6725 32.5029 22.2902C32.6303 21.6415 34.9472 19.5216 37.264 17.5291ZM52.4741 8.5397C51.3389 9.28109 43.6122 13.9148 39.8241 16.8919C36.2909 19.6837 38.9206 21.1086 42.28 21.6183C47.7941 22.4524 56.5402 21.6762 57.9766 21.5141C60.4209 21.2129 63.6413 20.1008 66.1435 18.1894C69.2481 15.8146 73.1868 13.5209 76.1523 10.9608C78.7819 8.70188 77.9131 7.36969 74.6811 6.83682C69.2597 5.95642 65.2863 5.50463 61.7763 5.71314C58.776 5.88691 55.4049 6.88316 52.4741 8.5397Z" fill="#095DA6"/>
<path d="M16.5256 44.2311C25.3759 47.3202 32.8478 47.7334 38.9411 45.4706C55.2285 36.7708 72.686 20.495 86.5291 13.9035C90.6068 11.4592 96.1556 11.3086 101.415 12.8494C206.426 38.6011 252.902 49.6757 255.879 50.3939C169.252 40.4778 123.286 35.3575 107.775 34.1412C100.5 33.5736 99.0054 35.3807 92.1475 39.5742C81.1077 46.3278 65.8513 59.3138 56.2595 63.264C52.7379 64.712 48.7761 64.5614 45.0228 63.9474C36.7748 62.6037 28.5384 61.2831 20.2788 59.9856C12.5985 58.7809 14.7647 49.8378 16.5256 44.2311Z" fill="#095DA6"/>
<path d="M15.5391 63.182C15.6317 75.7046 48.0097 77.4422 70.6801 74.3608C126.319 66.8079 208.44 57.4594 256.202 51.6094C203.864 55.5248 126.771 63.4369 71.1782 69.2985C49.7821 71.5575 28.0848 70.6655 15.5391 63.182Z" fill="#095DA6"/>
<path d="M255.832 51.1819C174.14 53.2091 105.863 55.9894 77.2266 57.6343C91.4288 49.2821 98.6458 44.0113 98.6458 44.0113C101.781 42.4281 105.697 41.8913 110.392 42.401C200.877 49.9771 235.583 50.4289 255.832 51.1819Z" fill="#F08519"/>
<path d="M253.25 55.0742L6.10058 87.7302L0.296875 101.017L253.25 55.0742Z" fill="#095DA6"/>
</svg>
