<svg width="257" height="145" viewBox="0 0 257 145" fill="none" xmlns="http://www.w3.org/2000/svg">
<path d="M116.175 12.5969C116.47 12.5515 116.515 12.5402 116.811 12.6537C116.947 13.4484 116.776 14.3453 116.776 15.1627C114.767 16.7294 113.461 18.1712 112.905 20.7143C109.511 21.8269 105.991 22.4967 102.597 23.6775C101.764 23.9651 100.935 24.264 100.11 24.5743C99.2853 24.8922 98.4641 25.2177 97.6467 25.5507C96.8368 25.8913 96.027 26.2432 95.2171 26.6065C94.4148 26.9623 93.6163 27.3331 92.8216 27.7191C92.0269 28.1051 91.2398 28.5025 90.4602 28.9112C89.6806 29.3199 88.9049 29.74 88.1328 30.1714C87.3608 30.5952 86.5964 31.0342 85.8395 31.4883C85.0827 31.9424 84.3334 32.4079 83.5916 32.8847C82.8499 33.3616 82.1158 33.846 81.3892 34.3379C80.655 34.8375 79.9322 35.3446 79.2207 35.8592C78.5093 36.3815 77.8016 36.9113 77.0977 37.4486C76.4014 37.986 75.7127 38.5347 75.0315 39.0948C74.3503 39.6549 73.6767 40.2226 73.0107 40.7978C72.3446 41.3806 71.6861 41.9709 71.0352 42.5688C70.3919 43.1668 69.7523 43.7723 69.1166 44.3853C68.4884 45.006 67.8677 45.6342 67.2547 46.2699C53.7219 60.1433 44.4124 79.3185 42.9025 98.7321C42.5619 102.819 42.4938 106.914 42.6981 111.016C42.7776 112.662 43.0728 114.343 43.0955 115.977L43.016 115.898C42.5392 113.741 42.0624 111.584 41.7672 109.393C39.4171 91.9771 43.2544 73.642 51.6216 58.2587C54.0966 53.7061 57.0029 49.4715 60.1477 45.3503C73.1923 28.2981 94.8425 15.4579 116.175 12.5969Z" fill="#313240"/>
<path d="M120.82 121.051C130.538 120.855 140.245 121.104 149.941 121.801C155.034 122.119 160.117 122.535 165.188 123.049C170.259 123.572 175.315 124.196 180.355 124.923C185.404 125.642 190.437 126.463 195.455 127.386C200.465 128.31 205.457 129.331 210.429 130.452C225.404 133.869 240.152 138.149 254.104 144.654C250.835 143.882 247.599 142.838 244.364 141.964C238.717 140.473 233.041 139.122 227.334 137.911C196.738 131.576 164.37 128.635 133.161 128.317C122.815 128.143 112.476 128.264 102.144 128.681C96.5058 128.938 90.8748 129.294 85.2512 129.748C79.6277 130.209 74.0155 130.77 68.4147 131.428C62.8063 132.086 57.2169 132.847 51.6464 133.71C46.0682 134.573 40.5091 135.538 34.9688 136.605C27.4228 138.081 19.9185 139.746 12.4558 141.6C10.3101 142.157 8.153 142.69 6.01864 143.315C4.3384 143.803 2.62409 144.439 0.898438 144.79L0.977908 144.666C7.9373 141.328 15.2486 138.853 22.594 136.503C24.577 135.882 26.5676 135.284 28.5657 134.709C30.5563 134.126 32.5582 133.562 34.5714 133.017C36.5771 132.472 38.5866 131.946 40.5999 131.439C42.6131 130.932 44.634 130.444 46.6624 129.975C48.6908 129.506 50.7192 129.055 52.7476 128.624C54.7836 128.185 56.8195 127.769 58.8555 127.375C60.8991 126.981 62.9464 126.603 64.9975 126.24C67.041 125.876 69.0883 125.536 71.1394 125.218C73.1981 124.892 75.2568 124.586 77.3155 124.298C79.3742 124.018 81.4366 123.753 83.5029 123.504C85.5615 123.254 87.6278 123.023 89.7016 122.811C91.7679 122.599 93.8379 122.406 95.9117 122.232C97.9779 122.058 100.048 121.907 102.122 121.778C104.196 121.642 106.273 121.524 108.355 121.426C110.428 121.328 112.506 121.248 114.587 121.188C116.661 121.119 118.739 121.074 120.82 121.051Z" fill="#313240"/>
<path d="M222.517 0.800781C222.778 1.66361 221.087 10.8028 220.882 12.2673C218.952 13.5388 216.818 14.572 214.808 15.7527C215.796 17.7622 216.999 19.7035 218.112 21.6562L224.788 33.4634C230.51 43.647 236.095 53.9669 242.033 64.037C243.838 64.2073 245.632 64.3776 247.426 64.6955C250.207 65.195 254.567 66.1032 256.247 68.669C256.883 69.634 257.03 70.7353 256.78 71.8479C256.349 73.7438 255.066 75.1516 253.454 76.128C251.138 82.6446 246.097 87.9918 240.057 91.1934C229.806 96.6315 216.897 98.1074 205.794 94.6447C203.274 93.8613 200.651 92.8396 198.494 91.2956C197.472 90.5576 196.53 89.6721 195.474 88.9909C194.759 88.5254 193.896 88.2757 193.113 87.9237C191.376 87.129 189.73 85.5282 188.867 83.8253C188.231 82.531 188.083 81.0779 188.583 79.7042C190.036 75.6738 195.486 73.2556 199.073 71.5754L206.032 38.9809C207.524 31.8891 209.113 24.8162 210.801 17.7622C208.133 19.6581 205.09 21.1681 202.252 22.8029C200.038 24.0744 197.438 25.959 195.043 26.731C191.421 27.889 186.301 28.6724 183.054 30.1483C181.067 31.0452 179.16 32.2372 177.253 33.2931C172.87 35.7113 168.443 38.2089 163.879 40.2525C163.97 48.2223 164.216 56.1883 164.617 64.1505C169.078 67.318 171.417 71.0418 172.394 76.4458C174.551 77.9671 176.685 79.8517 178.479 81.7817C178.308 85.8688 178.445 89.9673 178.433 94.0543C177.673 94.9966 176.628 95.7119 175.731 96.5179C175.379 99.9465 175.652 104.113 175.663 107.621C176.719 106.565 177.945 106.656 179.353 106.543C179.3 110.024 179.304 113.506 179.364 116.987C199.107 119.803 220.031 124.571 238.434 132.325C240.296 133.12 244.02 134.414 245.484 135.754C245.28 135.811 245.178 135.709 244.985 135.629C236.606 132.041 227.478 129.737 218.612 127.705C201.332 123.754 184.95 121.347 167.364 119.428C164.897 119.148 162.433 118.891 159.973 118.656C157.506 118.429 155.035 118.225 152.56 118.043C150.092 117.862 147.621 117.703 145.146 117.566C142.671 117.438 140.196 117.332 137.721 117.249C135.247 117.165 132.772 117.105 130.297 117.067C127.822 117.037 125.343 117.029 122.86 117.044C120.385 117.059 117.91 117.097 115.436 117.158C112.961 117.226 110.486 117.317 108.011 117.43C105.536 117.544 103.061 117.68 100.586 117.839C98.1184 118.005 95.651 118.195 93.1836 118.407C90.7163 118.618 88.2489 118.853 85.7815 119.11C83.3217 119.375 80.8618 119.659 78.402 119.962C75.9422 120.272 73.4862 120.609 71.0339 120.972C68.5893 121.328 66.1446 121.71 63.6999 122.119C61.2552 122.52 58.8143 122.948 56.3772 123.402C53.9401 123.856 51.5106 124.337 49.0886 124.844C39.87 126.683 30.7611 128.957 21.7619 131.667C20.059 132.189 11.7145 135.118 10.9766 135.073C22.954 129.987 35.079 125.514 47.6581 122.164C54.345 120.382 61.1114 119.02 67.9005 117.68L68.6612 106.781C69.5694 106.781 70.489 106.826 71.3972 106.849C71.7946 103.023 71.7265 98.6069 72.5439 94.8945C72.0671 94.4176 71.5675 93.9408 71.1588 93.3959C70.6706 92.7487 70.3414 92.0562 70.1938 91.2615C69.944 89.9673 70.2392 84.3589 70.4663 82.9398C71.1702 78.6143 75.0415 76.0485 78.3339 73.6643C79.6622 69.0777 82.0463 66.0351 85.7247 63.0379C86.0426 61.9102 86.4135 60.7976 86.8373 59.7002C87.2612 58.6027 87.738 57.5317 88.2678 56.4873C93.8194 45.4862 103.697 35.9383 115.515 32.067L115.333 30.1823C116.208 28.5362 116.06 29.3763 117.309 28.5135C117.468 26.8332 117.354 25.0962 117.309 23.4046C116.416 22.9732 115.534 22.5153 114.664 22.0309C114.664 21.4178 114.641 20.7594 114.766 20.1576C115.174 18.08 116.809 16.8085 118.455 15.6846C118.172 14.5152 118.262 13.414 118.864 12.3468C119.897 10.5417 121.964 9.59936 123.905 9.11118C124.404 7.27199 124.859 5.36469 125.562 3.60497C126.323 5.37604 126.709 7.40823 127.209 9.27012C128.423 9.64477 129.593 10.133 130.569 10.9731C131.909 12.1424 132.374 13.4594 132.476 15.1737C134.089 16.3203 135.826 17.6713 136.416 19.6468C136.609 20.2825 136.632 20.9637 136.302 21.5427C135.689 22.6553 134.35 22.9505 133.237 23.3024C133.385 25.2097 133.396 27.117 133.396 29.0357C133.634 29.1833 133.884 29.3309 134.066 29.5466C134.668 30.2618 134.543 31.3177 134.406 32.1805C141.241 34.2581 147.372 38.6176 151.958 44.0671C153.218 45.5543 154.297 47.1664 155.432 48.7445C155.375 40.0481 155.534 31.3404 155.58 22.6553C154.774 21.679 154.195 20.7026 154.081 19.4084C153.934 17.6941 154.615 15.9684 155.773 14.7082C156.942 13.414 158.702 12.4944 160.473 12.4717C161.472 12.4603 162.437 12.7555 163.141 13.4707C163.674 14.0043 164.004 14.6969 164.197 15.4121C164.878 18.0119 163.674 19.3062 163.447 21.6562C163.288 23.3365 163.47 25.1757 163.481 26.8786C166.638 26.5153 169.794 25.9136 172.95 25.4822C175.027 25.2097 177.514 25.1984 179.512 24.5853C181.476 23.9836 183.463 22.6667 185.279 21.6903C188.379 20.0101 191.478 18.3639 194.543 16.6269C203.913 11.4272 213.238 6.15183 222.517 0.800781Z" fill="#313240"/>
<path d="M96.5913 65.1719L96.7616 65.24C97.1136 65.8758 97.352 66.6251 97.6131 67.3062C97.0228 67.4198 96.4438 67.5901 95.8761 67.7377C95.5128 67.8512 95.2176 67.9988 94.843 67.8739C94.5478 67.2722 94.7749 66.4207 94.843 65.7509C95.4106 65.5238 96.0123 65.3535 96.5913 65.1719Z" fill="#FEFEFE"/>
<path d="M152.73 65.9785L154.944 66.2283C154.922 66.9095 155.217 68.76 154.899 69.1914C154.047 68.8395 153.139 68.6124 152.242 68.3626C152.492 67.5566 152.662 66.8186 152.73 65.9785Z" fill="#FEFEFE"/>
<path d="M106.663 62.0625H107.015C107.549 62.6529 107.821 64.1401 108.06 64.9121C107.416 64.9954 106.773 65.09 106.13 65.1959C105.869 65.2413 105.608 65.264 105.335 65.2867L105.142 65.0937C104.915 64.3217 105.029 63.8676 105.358 63.141C105.687 62.4258 105.959 62.3236 106.663 62.0625Z" fill="#FEFEFE"/>
<path d="M141.236 62.1758C141.951 62.2666 142.644 62.4255 143.348 62.5731C143.313 63.5495 143.665 64.6507 143.495 65.5703H143.166C142.314 65.3773 141.429 65.2524 140.555 65.0935C140.929 64.1285 141.1 63.1976 141.236 62.1758Z" fill="#FEFEFE"/>
<path d="M116.457 60.5634L118.568 60.5293C118.716 61.5965 119.113 62.6296 119.386 63.6854L119.238 63.8671C118.478 63.9011 117.07 64.1282 116.434 63.7081C116.275 63.2881 116.491 61.2332 116.457 60.5634Z" fill="#FEFEFE"/>
<path d="M129.072 60.6426L131.127 60.6993C131.149 61.846 131.683 63.004 131.626 64.0939L131.274 64.1166C130.275 64.0031 129.276 63.9349 128.266 63.8782C128.765 62.8224 128.913 61.7779 129.072 60.6426Z" fill="#FEFEFE"/>
<path d="M124.727 11.4391C125.59 11.4164 126.464 11.4959 127.27 11.8478C128.735 12.5177 129.609 13.7778 130.188 15.2197C129.087 14.7088 127.963 14.3455 126.771 14.0957C124.739 13.9936 123.047 14.3568 121.06 14.5839L120.867 14.3455C120.901 14.1298 120.947 13.9935 121.06 13.8005C121.832 12.4382 123.308 11.8365 124.727 11.4391Z" fill="#FEFEFE"/>
<path d="M159.865 14.6523C160.024 14.6637 160.251 14.6523 160.41 14.6978C160.796 14.8113 161.296 15.1405 161.466 15.5379C161.75 16.2077 161.432 17.0819 161.137 17.6949C160.444 19.1368 159.411 19.9428 157.924 20.4424C157.674 20.4197 157.39 20.4083 157.14 20.3288C156.686 20.1813 156.232 19.7839 156.096 19.3184C155.88 18.6032 156.244 17.7404 156.596 17.1273C157.345 15.799 158.401 15.0383 159.865 14.6523Z" fill="#FEFEFE"/>
<path d="M124.411 29.1387L126.387 29.2295C127.443 29.3771 128.442 29.536 129.452 29.8653L131.28 30.5237L131.734 31.9315C129.407 31.6023 127.045 31.239 124.695 31.2163C122.527 31.1936 120.324 31.4774 118.156 31.625C117.94 31.3525 117.94 31.3639 117.963 31.0119C118.576 30.0696 119.813 29.6723 120.858 29.3884C122.027 29.1614 123.231 29.1727 124.411 29.1387Z" fill="#FEFEFE"/>
<path d="M118.539 22.4507C118.812 20.6683 119.391 18.9767 120.73 17.7051C121.956 16.5244 123.603 16.0816 125.283 16.1043C127.156 16.1384 129.041 16.8196 130.323 18.2387C131.606 19.6692 131.833 21.2359 131.777 23.0751C131.436 22.4393 131.107 21.8149 130.653 21.2473L130.516 21.2586L130.732 21.8944C131.175 23.2 131.141 28.1499 130.925 29.5917C130.528 29.6258 130.165 29.3647 129.813 29.1944C129.71 26.3334 129.79 23.4497 129.801 20.5774C129.268 20.1347 128.711 19.8395 128.098 19.533C127.837 22.5528 128.223 25.6409 127.883 28.6381C127.474 28.8651 127.02 28.7743 126.566 28.7516L126.384 29.2284L124.409 29.1376C124.182 28.9332 123.625 28.9673 123.319 28.9446C123.602 28.8197 123.784 28.797 124.091 28.7743C123.693 28.7289 123.273 28.7402 122.955 28.4678C122.501 26.6286 122.887 21.4289 122.899 19.2264C122.172 19.5216 121.582 19.8395 120.957 20.3163C120.957 21.4289 121.173 28.7062 120.753 29.1262C120.719 29.1603 120.685 29.183 120.651 29.2057C120.39 29.2398 120.117 29.2625 119.856 29.2852C118.993 27.9342 120.253 22.9729 119.856 21.2473L119.663 21.1451C119.129 21.4289 118.868 21.9625 118.539 22.4507Z" fill="#FEFEFE"/>
<path d="M124.467 18.9199L126.522 18.9653L126.488 25.4252C126.488 26.4924 126.386 27.7071 126.567 28.7516L126.386 29.2284L124.41 29.1376C124.183 28.9333 123.627 28.9673 123.32 28.9446C123.604 28.8197 123.786 28.797 124.092 28.7743C124.194 28.6721 124.319 28.5927 124.376 28.4678C124.785 27.5823 124.478 20.3618 124.467 18.9199Z" fill="#313240"/>
<path d="M111.246 36.3359L111.303 36.37C111.269 36.8241 109.498 38.5725 109.123 39.0607C108.351 40.0446 107.64 41.0739 106.989 42.1487C104.298 46.6331 102.686 51.3446 101.222 56.3399C97.2934 57.3958 93.615 59.0533 89.9367 60.7449L89.8231 60.5973C89.8004 60.3589 89.8118 60.1659 89.8799 59.9275C90.3454 58.0769 91.5147 56.0334 92.4797 54.3986C97.0096 46.7012 103.526 40.7409 111.246 36.3359Z" fill="#FEFEFE"/>
<path d="M101.694 46.8027C101.932 46.9844 102.125 47.2001 102.25 47.4839C102.602 48.2446 102.42 49.0393 102.137 49.7999C101.365 51.7754 99.9 53.8643 97.9132 54.7044C97.6748 54.6363 97.5159 54.5568 97.3569 54.3638C97.304 54.3033 97.2586 54.2352 97.2207 54.1595C97.1753 54.0914 97.1412 54.0195 97.1185 53.9438C97.0883 53.8605 97.0693 53.781 97.0618 53.7054C97.0466 53.6221 97.0391 53.5388 97.0391 53.4556C97.1185 51.0488 100.059 48.29 101.694 46.8027Z" fill="#313240"/>
<path d="M166.014 89.6152C166.718 89.6834 167.558 89.6833 168.069 90.251C168.33 90.5235 168.421 90.8868 168.466 91.2501C168.716 93.2823 168.546 95.4847 168.546 97.5396L168.489 109.528C170.669 110.403 172.678 111.402 174.722 112.56C175.449 111.583 176.084 110.493 176.743 109.46C176.584 111.299 177.072 114.932 176.595 116.442C175.884 116.367 175.172 116.291 174.461 116.215C172.02 115.931 170.419 115.125 168.478 113.65C168.012 113.309 167.467 112.957 167.115 112.503L167.615 112.571L167.626 112.435C166.979 111.867 166.219 111.447 165.481 111.004C164.924 111.141 164.379 111.334 163.834 111.515C163.641 105.021 163.755 98.4592 163.812 91.9653C164.516 91.1593 165.254 90.3759 166.014 89.6152Z" fill="#FEFEFE"/>
<path d="M211.414 25.6641C211.584 27.4578 211.505 29.2857 211.493 31.0908L211.471 39.878L211.505 67.0344C208.303 67.9994 205.147 69.0098 202.014 70.2019C201.877 68.8963 204.137 59.6209 204.591 57.4865C206.827 46.8828 208.826 36.1883 211.414 25.6641Z" fill="#FEFEFE"/>
<path d="M132.164 34.0996C132.694 34.2358 133.22 34.3872 133.742 34.5537C136.501 35.4506 139.135 36.8584 141.587 38.4024C151.146 44.4422 154.586 52.2531 159.559 61.8577C153.428 58.9173 147.377 56.6921 140.736 55.2843C139.26 47.4394 137.568 40.2983 132.164 34.0996Z" fill="#FEFEFE"/>
<path d="M142.937 45.5667C143.948 45.5326 144.674 45.8959 145.446 46.5544C146.877 47.7918 148.194 50.0057 148.262 51.913C148.296 52.719 148.182 53.1278 147.626 53.7068C146.411 53.7522 145.742 53.4343 144.833 52.6169C143.494 51.4248 142.268 49.3926 142.199 47.5761C142.165 46.7133 142.336 46.1911 142.937 45.5667Z" fill="#313240"/>
<path d="M122.32 107.894C134.081 107.724 148.227 109.904 159.558 113.014C161.385 113.514 163.474 113.934 165.177 114.763C155.947 113.264 146.32 112.935 136.976 112.696C130.131 112.526 123.205 112.367 116.359 112.685C108.367 112.935 100.393 113.491 92.4386 114.354C86.501 114.956 80.5293 115.625 74.6484 116.636C87.9428 109.801 107.527 108.201 122.32 107.894Z" fill="#FEFEFE"/>
<path d="M146.198 80.2383C149.082 80.3405 155.553 83.2241 157.778 85.1314C157.983 85.3131 158.183 85.5023 158.38 85.6991C158.569 85.8959 158.755 86.0964 158.936 86.3008C159.11 86.5127 159.281 86.7322 159.447 86.9593C159.614 87.1787 159.769 87.4058 159.913 87.6404C160.057 87.8751 160.193 88.1135 160.321 88.3557C160.45 88.5979 160.571 88.8439 160.685 89.0936C160.791 89.351 160.889 89.6083 160.98 89.8656C161.078 90.1305 161.162 90.3954 161.23 90.6603C161.865 93.0672 161.627 95.8146 161.616 98.2896C161.604 102.842 161.377 107.474 161.695 112.015C160.628 111.675 159.538 111.38 158.448 111.096C158.38 106.827 158.361 102.554 158.391 98.2782C158.403 95.8714 158.664 93.2034 158.232 90.842C157.96 89.3434 157.392 88.1059 156.495 86.8798C154.883 85.1995 153.18 84.6887 150.921 84.473L150.853 106.441C151.716 106.623 152.567 106.872 153.419 107.111L153.385 109.983C152.272 109.733 151.137 109.529 150.013 109.302L150.047 106.645C148.753 106.441 147.129 106.418 145.937 105.885C145.631 105.748 145.676 105.658 145.574 105.362C144.961 104.931 144.121 104.92 143.394 104.829L143.349 91.3188C143.349 88.5487 143.235 85.7104 143.462 82.9517C144.268 81.9526 145.245 81.1011 146.198 80.2383Z" fill="#FEFEFE"/>
<path d="M93.4058 81.8383C93.5647 81.827 93.6328 81.8156 93.7804 81.827C94.9044 81.861 95.9602 82.6898 96.6754 83.4732C97.3453 84.1997 97.8675 85.0285 98.0378 86.0049C98.4579 88.389 98.0378 91.2386 97.9016 93.6682C97.6669 97.4298 97.455 101.199 97.2658 104.976C96.3576 105.123 95.4607 105.339 94.5638 105.521C94.4957 106.758 94.5184 107.996 94.507 109.233C92.9063 109.733 90.3972 110.595 88.7738 110.698C88.5013 110.72 88.4786 110.72 88.2856 110.539C88.4218 109.46 89.6139 108.438 90.2951 107.61C90.3518 107.485 90.4881 107.258 90.5221 107.11C90.5789 106.77 90.5448 106.701 90.3405 106.44C90.2837 106.44 90.2269 106.429 90.1702 106.429C88.3196 106.463 85.1749 108.802 83.8125 109.982C83.8806 106.225 84.2212 102.444 84.4369 98.6862C84.6413 95.2008 84.7094 91.6246 85.1522 88.1619C87.3773 85.4145 89.8069 82.5876 93.4058 81.8383Z" fill="#FEFEFE"/>
<path d="M92.9744 85.1191C93.4171 85.1418 93.8031 85.1532 94.1437 85.4597C94.4957 85.7776 94.5524 86.3566 94.5751 86.7994C94.666 88.4115 94.4276 90.1372 94.3027 91.7379C94.0075 95.9159 93.4966 100.105 93.3604 104.294C92.7473 104.385 92.1229 104.431 91.4985 104.476L89.875 104.601C89.875 100.082 90.2383 95.0417 90.5108 90.4891C90.647 88.298 91.3055 86.595 92.9744 85.1191Z" fill="#313240"/>
<path d="M126.713 77.3774C130.187 77.1049 135.159 78.6149 137.805 80.8968C139.894 82.702 140.836 85.404 141.029 88.0946C141.165 89.8316 141.142 103.977 140.995 104.261C140.949 104.341 140.87 104.398 140.813 104.466C140.518 104.443 140.302 104.432 140.018 104.522C139.791 105.204 139.95 106.169 139.984 106.884C139.281 106.861 138.577 106.759 137.873 106.68C137.725 101.684 137.827 96.6661 137.816 91.6708C137.816 89.5705 137.964 87.3567 137.737 85.2791C137.657 84.6433 137.566 84.053 137.226 83.4853C136.136 81.7029 134.194 81.0671 132.276 80.5789C131.311 80.4087 130.368 80.2951 129.392 80.227C129.267 83.3264 129.347 86.4598 129.335 89.5592L129.233 104.466L131.436 104.568V106.248C130.028 106.146 128.62 106.112 127.212 106.044L127.099 104.625C126.429 104.591 125.453 104.795 124.874 104.5C124.59 104.091 124.681 103.796 124.681 103.308C123.114 103.16 121.547 103.081 119.969 103.035C119.958 99.0503 120.253 95.0313 120.366 91.0351C120.446 88.2309 120.276 85.1883 120.707 82.4181C120.855 81.4758 121.104 80.7038 121.683 79.9318C122.944 78.2516 124.737 77.6953 126.713 77.3774Z" fill="#FEFEFE"/>
<path d="M117.957 55C119.728 54.7729 121.704 54.8637 123.486 54.8751C124.689 54.86 125.897 54.8751 127.108 54.9205C128.319 54.9735 129.526 55.0492 130.729 55.1476C131.933 55.246 133.136 55.3708 134.339 55.5222C135.535 55.6812 136.727 55.8628 137.916 56.0672C139.111 56.2715 140.3 56.5061 141.48 56.771C142.661 57.0284 143.834 57.316 145 57.6339C146.173 57.9442 147.335 58.2848 148.485 58.6556C149.636 59.0189 150.779 59.4087 151.914 59.825C154.162 60.6538 156.421 61.5393 158.521 62.7087C160.951 64.0597 165.56 66.8866 166.866 69.3388C167.797 71.0758 168.217 73.3351 168.773 75.2424C167.138 74.2547 165.481 73.4259 163.721 72.7107C163.755 71.6548 163.948 70.599 164.107 69.5545C161.439 68.0673 158.782 66.5346 156.012 65.2177C148.622 61.721 140.822 59.9839 132.739 59.0189C124.36 58.2015 115.437 58.3037 107.194 60.1088C101.62 61.3236 89.4724 65.1042 86.4525 69.827L86.4184 71.5413C84.6776 72.442 82.9444 73.3616 81.2188 74.3001C81.8318 71.6662 83.0579 69.4296 84.829 67.3975C92.935 58.1221 106.309 55.8401 117.957 55Z" fill="#FEFEFE"/>
<path d="M219.264 5.53516C219.48 6.52287 218.663 9.44059 218.492 10.5759C214.36 13.0508 210.125 15.3555 205.959 17.785C202.575 19.7491 199.147 21.9629 195.616 23.6432C194.072 24.3811 192.358 24.7785 190.712 25.2553C187.771 26.0841 184.774 26.8561 181.947 28.0027C178.167 29.5468 174.545 31.6584 170.935 33.5544C167.2 35.5184 163.362 37.369 159.582 39.2422L159.593 57.7249C158.969 56.2944 158.072 54.9094 157.606 53.4335C157.584 53.3502 157.561 53.2707 157.538 53.1951C157.254 52.2641 157.345 51.2537 157.368 50.2887C157.428 41.176 157.44 32.0595 157.402 22.9393C158.049 22.8939 158.696 22.7463 159.332 22.6328C159.559 24.9488 159.514 27.3329 159.536 29.6603C164.009 29.2062 168.479 28.7066 172.944 28.1617C175.079 27.9119 177.553 27.8665 179.62 27.2989C181.788 26.7085 184.967 24.5855 187.09 23.4729C197.921 17.6829 208.646 11.7036 219.264 5.53516Z" fill="#FEFEFE"/>
<path d="M174.351 29.7841L174.567 29.75L174.556 29.8749C169.719 32.5164 164.83 35.0632 159.887 37.5155C159.717 37.5722 159.819 37.5722 159.604 37.47L159.547 36.7207C160.228 35.6649 169.469 31.4416 171.195 30.7604C172.228 30.3517 173.284 30.0679 174.351 29.7841Z" fill="#313240"/>
<path d="M108.687 77.9337C109.391 77.8542 110.072 77.8201 110.787 77.8428C113.206 77.8996 115.612 78.6375 117.281 80.4767C117.94 81.2033 118.439 82.0662 118.621 83.0425C118.996 85.0747 118.644 87.5383 118.621 89.6273C118.564 93.8165 118.666 98.0285 118.405 102.206C117.86 102.24 117.315 102.297 116.77 102.365C116.646 103.66 116.646 104.965 116.634 106.271C115.181 106.293 113.728 106.384 112.275 106.464L112.309 103.455C112.842 103.296 113.376 103.183 113.909 103.047C114.25 96.3255 114.613 89.6046 115.067 82.8949C114.046 81.7823 113.262 81.3396 111.752 81.1352C110.719 81.0103 109.72 80.9763 108.676 80.9876C108.426 89.6462 108.025 98.2934 107.472 106.929C106.666 106.975 105.849 106.986 105.043 107.009L104.986 105.317C103.817 105.351 102.307 105.544 101.183 105.17C101.069 105.033 100.933 104.874 100.785 104.761C100.377 104.454 99.616 104.591 99.1392 104.613C99.0597 101.23 99.3322 97.7901 99.4912 94.4069C99.6728 90.8647 99.7069 87.1182 100.331 83.6329C100.479 82.8155 100.672 81.8959 101.183 81.2147C102.942 78.9214 106.008 78.3537 108.687 77.9337Z" fill="#FEFEFE"/>
<path d="M116.981 65.6388C120.069 65.3209 124.939 65.4912 128.084 65.6161C141.197 66.1837 154.855 69.4874 166.389 75.8565C169.772 77.7297 173.303 80.0457 175.926 82.918C175.982 84.5074 175.982 86.1082 176.017 87.709C175.721 87.1754 175.415 86.6759 175.029 86.199C173.053 83.7468 170.249 81.8736 167.581 80.2274C157.034 73.7335 145.625 70.8952 133.409 69.5896C127.585 68.67 118.184 68.9084 112.247 69.3966C98.396 70.5319 82.4564 74.6985 73.1016 85.7109C73.2151 83.5879 73.4989 81.7033 74.9407 80.023C76.2804 78.4677 78.0515 77.3096 79.7431 76.1743C90.3581 69.0901 104.47 66.5016 116.981 65.6388Z" fill="#FEFEFE"/>
<path d="M118.367 71.2343C127.824 70.9051 137.973 71.7906 147.158 74.118C155.605 76.2637 166.935 81.1796 173.031 87.4691C174.178 88.6498 175.086 89.9327 175.915 91.3405C175.938 92.1352 175.87 92.9186 175.813 93.7133C174.258 92.4758 172.963 90.9091 171.476 89.5808C171.135 89.876 170.727 90.2393 170.318 90.4209C169.818 90.648 169.046 90.5799 168.57 90.3301C168.138 90.1144 167.854 89.7624 167.707 89.297C167.457 88.5136 167.707 88.0027 168.047 87.2988C166.265 85.9138 164.29 84.7331 162.303 83.6659C146.556 75.1398 124.531 72.5853 107.002 75.4804C103.699 76.0253 100.474 76.8881 97.2728 77.8304C90.4951 79.9194 81.5489 82.8258 77.3369 88.8429C77.7456 89.4673 78.1657 90.2166 78.7447 90.6934C80.0844 91.806 81.969 91.2951 83.547 91.1021L82.1733 111.855C80.599 112.537 79.0512 113.278 77.5299 114.081C75.3729 115.227 73.2044 116.669 70.8203 117.271C71.0701 115 71.2744 112.73 71.4334 110.459C73.0455 110.516 74.6576 110.641 76.2811 110.641C76.9169 110.277 77.5072 109.8 78.0976 109.369C78.4495 107.587 78.4949 105.691 78.6312 103.886L79.2669 95.0756C77.6208 94.6556 75.9178 93.9631 74.5895 92.8845C73.8402 92.2828 73.1363 91.5108 73.0682 90.5117C72.9547 88.911 74.7144 86.8901 75.7475 85.7775C83.5924 77.2855 98.0448 73.3346 109.182 71.9042C112.236 71.5068 115.29 71.3592 118.367 71.2343Z" fill="#FEFEFE"/>
<path d="M122.497 32.6128C124.904 32.4652 127.447 32.6355 129.797 33.2145C135.655 39.47 138.073 46.8835 139.368 55.1372C130.876 53.2753 120.408 53.3207 111.803 54.297C108.76 54.6376 105.763 55.2507 102.766 55.8865C103.617 52.2649 104.923 48.8362 106.558 45.4985C108.192 42.172 111.564 36.8702 114.788 34.9629C116.128 34.1795 117.74 33.7481 119.205 33.2486C117.922 35.4511 117.139 37.4151 116.525 39.8787C117.797 37.2562 118.966 35.0196 120.919 32.8285C121.441 32.7263 121.964 32.6809 122.497 32.6128Z" fill="#FEFEFE"/>
<path d="M113.121 42.5113C113.541 42.4659 114.007 42.3978 114.415 42.5113C114.926 42.6476 115.414 42.9882 115.653 43.465C116.073 44.2938 115.891 45.4177 115.596 46.2465C115.063 47.7678 114.098 48.7782 112.667 49.4594C112.202 49.4934 111.702 49.5161 111.248 49.414C110.794 49.3118 110.385 49.0166 110.147 48.6193C109.761 47.9381 109.908 47.0071 110.113 46.2919C110.589 44.6117 111.634 43.3742 113.121 42.5113Z" fill="#313240"/>
<path d="M127.915 41.5361C128.426 41.5134 128.971 41.5247 129.459 41.695C130.356 42.0016 131.117 42.7395 131.514 43.591C131.923 44.4538 132.002 45.4642 131.65 46.3611C131.253 47.3375 130.572 47.803 129.629 48.2117C129.13 48.2798 128.574 48.3138 128.085 48.1662C127.188 47.8824 126.451 47.2012 126.042 46.3611C125.633 45.4869 125.565 44.4311 125.906 43.5229C126.28 42.5011 126.961 41.9789 127.915 41.5361Z" fill="#313240"/>
<path d="M213.734 19.0898C214.677 20.0662 217.594 25.6973 218.503 27.264C223.014 35.0976 227.464 42.9652 231.854 50.8669C234.272 55.2037 236.747 59.5179 239.063 63.9115L236.554 63.832C228.777 63.7185 221.398 64.6494 213.837 66.4319L213.734 40.5016C213.795 33.3643 213.795 26.2271 213.734 19.0898Z" fill="#FEFEFE"/>
<path d="M194.294 84.5752C194.328 84.8704 194.35 85.1315 194.316 85.438L194.089 85.5516C193.703 85.4153 193.454 85.1655 193.147 84.8931C192.103 83.9848 190.922 82.8836 190.876 81.4077C190.842 80.3405 191.433 79.4323 192.137 78.6943C197.052 73.5287 211.119 69.2486 218.101 67.8749C220.538 67.4057 222.994 67.0386 225.469 66.7737C227.936 66.5088 230.411 66.3461 232.894 66.2855C237.492 66.206 250.639 66.4331 253.761 69.646C254.181 70.0774 254.374 70.5656 254.328 71.1673C254.237 72.3367 253.114 73.2108 252.296 73.892C251.172 71.9279 249.537 71.2581 247.471 70.6564C248.107 70.9743 248.777 71.2808 249.356 71.6895C250.23 72.3026 250.968 73.1881 251.104 74.2667C251.467 77.173 247.823 81.385 246.075 83.5307C246.052 82.5771 245.984 81.8845 245.439 81.0785C244.008 79.0122 240.954 78.1834 238.627 77.7066C229.443 75.822 215.819 77.6953 208.019 82.9404C206.328 84.0757 204.318 85.7446 203.978 87.8789C203.785 89.0483 203.921 90.0133 204.614 90.9896C204.954 90.263 204.545 89.2186 204.931 88.3217C205.93 85.9943 209.336 84.4844 211.528 83.5875C219.406 80.3973 229.215 78.8873 237.662 79.8183C239.331 80.0113 241.159 80.227 242.703 80.9195C243.566 81.3055 244.656 82.0435 244.962 82.9971C245.132 83.5421 244.928 84.0529 244.678 84.5184C242.76 87.9924 235.902 90.5355 232.281 91.6595C222.653 94.6453 210.517 95.0086 201.457 90.1836C198.528 88.6282 195.542 86.2668 194.543 83.0085C196.61 80.8855 199.187 79.4436 201.798 78.1153C212.799 72.5524 225.957 70.1455 238.207 69.9866C240.171 69.9525 242.124 70.0661 244.088 70.0206C241.885 69.4871 239.376 69.5098 237.129 69.4189C225.038 68.9194 207.633 71.19 197.189 77.6272C195.611 78.5922 193.885 79.8183 192.954 81.4645C193.669 82.543 194.112 83.2696 194.294 84.5752Z" fill="#FEFEFE"/>
<path d="M226.667 82.4178C230.3 82.168 234.626 82.2361 237.998 83.7234C238.929 84.1321 239.916 84.7451 240.268 85.7555C240.563 86.6184 240.189 87.4017 239.803 88.1624H239.678C239.712 87.6174 239.723 87.0044 239.564 86.4708C239.394 85.9145 239.065 85.5171 238.554 85.2333C233.411 82.4064 225.294 83.4168 219.867 84.8587C217.562 85.5739 213.078 87.0838 211.693 89.1728C211.398 89.6269 211.261 90.1264 211.398 90.6487C211.636 91.6932 212.51 92.0792 213.362 92.5787C212.635 92.363 211.795 92.1246 211.193 91.6478C210.762 91.3072 210.501 90.8644 210.444 90.3195C210.353 89.4793 210.705 88.6619 211.227 88.0261C211.965 87.1293 213.021 86.4594 214.009 85.8918C217.982 83.6212 222.172 82.8038 226.667 82.4178Z" fill="#313240"/>
<path d="M226.803 86.3352C228.392 86.0854 231.945 85.9605 233.387 86.7439C233.773 86.9596 233.989 87.2094 234.103 87.6408C234.068 87.9019 234.034 88.0381 233.864 88.2538C232.4 90.1384 225.996 90.9559 223.646 91.2851C221.716 91.4895 219.423 91.7392 217.516 91.2283C216.903 91.058 216.415 90.8537 216.074 90.2747C216.063 89.9114 216.063 89.7411 216.312 89.4459C218.072 87.3342 224.157 86.5849 226.803 86.3352Z" fill="#313240"/>
</svg>
