<svg width="257" height="145" viewBox="0 0 257 145" fill="none" xmlns="http://www.w3.org/2000/svg">
<path d="M210.668 91.5531C212.569 91.4462 214.398 91.7194 216.274 91.9688C214.469 92.147 212.664 92.0045 210.858 92.2539C207.366 92.729 203.15 94.273 199.777 95.4132C198.649 95.817 197.485 96.3158 196.297 96.494C198.886 95.0331 207.841 91.8976 210.668 91.5531Z" fill="#39232E"/>
<path d="M193.872 88.4885C197.126 88.3578 200.844 88.5597 204.074 88.9992C200.725 89.4624 197.257 89.1417 193.931 89.6643C191.722 90.0087 189.453 91.0183 187.327 91.719C184.631 92.5861 181.935 93.4531 179.18 94.0707C181.27 92.8949 191.639 88.8091 193.872 88.4885Z" fill="#39232E"/>
<path d="M76.7188 83.8926C78.3103 83.9876 80.2106 84.724 81.7428 85.2109C87.7645 87.0994 93.7743 89.2729 98.0857 94.1188C99.4872 95.6866 101.791 99.1547 101.673 101.34C92.6935 103.466 88.2396 94.4751 83.1443 88.9879C81.2083 86.8975 79.1536 85.3416 76.7188 83.8926Z" fill="#817270"/>
<path d="M44.1615 89.0833C46.632 88.632 49.8744 89.0477 52.3093 89.6416C56.0506 90.5323 59.2693 92.3139 61.3121 95.6633C59.7206 96.0433 58.0578 96.2215 56.4425 96.3997C51.6679 96.946 47.2258 97.1123 42.4512 96.4234C36.6077 95.5207 31.1917 94.9863 25.3125 96.1265C30.9898 92.4446 37.3916 89.7485 44.1615 89.0833Z" fill="#817270"/>
<path d="M49.1016 84.1061C51.6908 83.9754 54.3631 84.1773 56.9405 84.3674C63.9361 84.9018 71.5969 85.7213 77.6186 89.6052C81.0867 91.85 83.5928 94.8192 84.4598 98.905C82.1438 98.9525 79.8515 98.6556 77.583 98.1924C75.0412 97.6579 72.5589 96.9334 70.2073 95.7932C67.1192 94.2848 64.3993 92.23 61.5844 90.2703C57.7125 87.5742 53.6505 85.4126 49.1016 84.1061Z" fill="#817270"/>
<path d="M178.576 139.049C179.479 140.415 180.002 142.493 180.56 144.049L178.541 144.025L176.664 144.002C177.139 142.291 177.84 140.652 178.576 139.049Z" fill="#FEFEFE"/>
<path d="M106.529 139.346C107.337 140.141 107.99 142.493 108.335 143.61L108.24 143.752L106.791 143.776L104.914 143.752C105.413 142.256 105.912 140.783 106.529 139.346Z" fill="#FEFEFE"/>
<path d="M215.656 86.5051C215.668 86.4576 215.692 86.4101 215.692 86.3626C215.775 85.8281 215.169 83.7852 215.11 83.0014C214.706 78.1436 216.915 73.5828 220.538 70.4472C223.946 67.5017 228.377 66.1596 232.842 66.5396C237.522 66.9316 242.035 69.4614 245.017 73.0602C248.793 77.6329 250.373 83.7377 249.756 89.605C249.257 94.4034 247.119 99.2137 243.306 102.254C242.356 103.014 241.346 103.679 240.325 104.333C241.406 102.848 242.558 101.387 243.496 99.8194C243.67 99.5343 243.837 99.2414 243.995 98.9405C244.161 98.6475 244.316 98.3506 244.458 98.0497C244.609 97.7488 244.751 97.444 244.886 97.1352C245.028 96.8264 245.159 96.5176 245.278 96.2088C245.405 95.892 245.519 95.5753 245.622 95.2586C245.733 94.9419 245.836 94.6212 245.931 94.2965C246.026 93.9798 246.113 93.6552 246.192 93.3226C246.272 92.998 246.347 92.6693 246.418 92.3368C246.481 92.0121 246.537 91.6836 246.584 91.351C246.64 91.0184 246.687 90.6859 246.727 90.3533C246.759 90.0208 246.786 89.6842 246.81 89.3438C246.834 89.0112 246.85 88.6747 246.857 88.3342C246.865 88.0016 246.865 87.6691 246.857 87.3365C246.85 86.996 246.834 86.6595 246.81 86.327C246.794 85.9865 246.766 85.65 246.727 85.3174C246.687 84.9848 246.644 84.6523 246.596 84.3197C245.848 79.6164 243.342 75.2931 239.446 72.5138C236.322 70.2809 232.45 69.2951 228.65 69.9721C225.324 70.566 222.189 72.4426 220.253 75.2337C220.142 75.3921 220.039 75.5504 219.944 75.7088C219.841 75.8671 219.742 76.0295 219.647 76.1958C219.56 76.362 219.473 76.5283 219.386 76.6946C219.306 76.8609 219.227 77.0311 219.148 77.2053C219.077 77.3795 219.006 77.5537 218.934 77.7279C218.871 77.9021 218.812 78.0803 218.756 78.2624C218.693 78.4445 218.637 78.6266 218.59 78.8087C218.542 78.9908 218.499 79.173 218.459 79.3551C218.42 79.5372 218.384 79.7233 218.352 79.9133C218.329 80.0954 218.305 80.2815 218.281 80.4715C218.265 80.6616 218.249 80.8476 218.234 81.0298C218.226 81.2198 218.222 81.4098 218.222 81.5999C218.214 81.7899 218.214 81.976 218.222 82.1581C218.23 82.3481 218.245 82.5382 218.269 82.7282C218.285 82.9182 218.305 83.1043 218.329 83.2864C218.36 83.4764 218.392 83.6625 218.424 83.8446C218.732 85.4718 219.35 87.1227 220.205 88.548C224.243 89.5457 228.626 91.8498 232.617 89.3675C233.935 88.548 234.897 87.2534 235.194 85.7212C235.42 84.5216 235.194 83.3102 234.47 82.3125C233.757 81.3029 232.593 80.4596 231.358 80.2577C230.42 80.1033 229.386 80.3171 228.65 80.9229C228.222 81.2673 227.569 82.2768 227.51 82.8351C227.486 83.037 227.51 83.0726 227.557 83.2508C228.59 84.0347 230.716 82.9182 231.275 84.3791C231.203 85.068 230.99 85.7569 230.431 86.2082C229.838 86.6951 228.721 86.8139 227.985 86.6833C227.011 86.5051 226.215 85.8994 225.692 85.0561C225.621 84.9373 225.554 84.8146 225.491 84.6879C225.427 84.5612 225.372 84.4306 225.324 84.296C225.277 84.1693 225.237 84.0386 225.205 83.904C225.166 83.7615 225.138 83.6229 225.122 83.4883C225.099 83.3458 225.083 83.2072 225.075 83.0726C225.067 82.9301 225.067 82.7876 225.075 82.645C225.083 82.5104 225.099 82.3719 225.122 82.2293C225.138 82.0947 225.166 81.9562 225.205 81.8136C225.237 81.6632 225.281 81.5128 225.336 81.3623C225.392 81.2198 225.451 81.0773 225.514 80.9347C225.586 80.7922 225.661 80.6536 225.74 80.519C225.819 80.3844 225.906 80.2538 226.001 80.1271C226.096 80.0004 226.199 79.8777 226.31 79.7589C226.413 79.648 226.524 79.5411 226.643 79.4382C226.761 79.3274 226.884 79.2284 227.011 79.1413C227.137 79.0463 227.268 78.9592 227.403 78.88C228.84 78.0367 230.764 77.9179 232.344 78.3811C234.125 78.8919 235.586 80.1627 236.453 81.7899C237.403 83.5833 237.641 85.6618 236.999 87.5978C236.382 89.4625 234.921 91.256 233.128 92.1349C231.999 92.6812 230.764 92.7169 229.683 93.1801C228.127 92.7763 225.918 91.5173 224.41 90.7928C221.488 89.415 218.424 88.1679 215.656 86.5051Z" fill="#817270"/>
<path d="M53.1121 112.909C77.2346 111.816 102.616 116.959 125.788 123.337C131.703 124.964 137.772 126.496 143.509 128.682C138.212 127.755 132.938 126.591 127.653 125.594C120.012 124.168 112.347 122.87 104.659 121.698C99.2311 121.104 93.8626 119.988 88.4466 119.311C82.318 118.562 76.1538 117.767 70.0014 117.256C50.4279 115.664 31.0088 116.638 11.8984 121.389C24.9871 115.653 38.8833 113.325 53.1121 112.909Z" fill="#817270"/>
<path d="M256.5 92.0762C256.5 92.2306 256.476 92.3731 256.429 92.5275C256.037 93.6915 255.015 95.0573 254.35 96.1025C250.276 102.528 245.169 107.742 239.064 112.255C229.978 118.99 218.719 123.123 207.697 125.297C190.356 128.693 171.863 128.005 154.487 125.118C150.01 124.382 145.567 123.408 141.125 122.458L114.057 116.448C103.455 114.081 92.7775 112.145 82.0247 110.64C53.3533 106.709 26.8554 107.184 0.5 120.581L2.21031 118.622C2.23406 118.582 2.26178 118.546 2.29345 118.515C3.18424 117.47 4.32444 116.507 5.35775 115.593C10.6906 110.925 16.8192 107.493 23.4466 105.022C50.3128 95.0336 83.545 100.58 110.613 107.564C114.117 108.467 117.573 109.524 121.053 110.498C131.564 113.396 142.123 116.329 152.813 118.479C163.894 120.724 173.431 121.876 184.786 122.09C189.073 122.173 193.349 122.173 197.625 121.84C212.068 120.724 231.249 114.001 242.853 105.319C248.115 101.388 252.248 97.0171 256.5 92.0762Z" fill="#817270"/>
<path d="M138.628 16.5487C137.536 16.4181 134.293 16.3824 133.664 15.4441C133.189 14.7434 134.745 8.8167 134.911 7.65274C135.635 6.91635 136.764 6.88072 137.393 6.02557C137.797 5.46734 137.951 4.68345 138.094 4.01833C138.771 1.07279 140.172 0.336413 143.106 0.300781C143.312 0.300781 143.522 0.304745 143.736 0.312663C143.941 0.320581 144.147 0.332457 144.353 0.348293C144.559 0.372047 144.765 0.395798 144.971 0.419553C145.177 0.451225 145.379 0.486859 145.576 0.52645C145.782 0.56604 145.988 0.609587 146.194 0.657096C146.392 0.704604 146.59 0.75607 146.788 0.811497C146.994 0.866924 147.192 0.92631 147.382 0.989654C147.58 1.06092 147.778 1.13219 147.976 1.20345C148.166 1.28263 148.356 1.36577 148.546 1.45287C148.736 1.53205 148.922 1.61915 149.104 1.71416C149.286 1.80918 149.468 1.90816 149.65 2.01109C149.832 2.11403 150.011 2.22092 150.185 2.33178C150.359 2.44263 150.533 2.55744 150.707 2.67621C150.874 2.79498 151.04 2.91772 151.206 3.04441C151.373 3.1711 151.535 3.30174 151.693 3.43635C151.852 3.57096 152.006 3.70556 152.156 3.84017C152.548 4.22024 152.857 4.67157 153.237 5.0754C153.316 5.05164 153.396 5.03185 153.475 5.01601C154.864 4.7072 156.634 4.9685 157.822 5.74051C159.271 6.67881 160.102 8.44851 160.744 9.99254C160.447 10.6695 160.162 11.3465 159.817 11.9998L159.58 11.881L159.663 12.1185C159.544 12.3205 159.603 12.2373 159.496 12.3561C160.043 13.8882 160.387 15.3848 159.675 16.9525C159.619 17.0871 159.552 17.2138 159.473 17.3326C159.401 17.4593 159.322 17.582 159.235 17.7008C159.148 17.8196 159.057 17.9344 158.962 18.0452C158.867 18.1561 158.764 18.259 158.653 18.354C158.55 18.457 158.439 18.552 158.321 18.6391C158.202 18.7262 158.079 18.8093 157.952 18.8885C157.826 18.9598 157.699 19.0271 157.572 19.0904C157.438 19.1538 157.303 19.2092 157.169 19.2567C155.874 19.7318 154.366 19.613 153.142 19.0073C152.984 18.9281 152.833 18.845 152.691 18.7579C152.548 18.6708 152.41 18.5758 152.275 18.4728C152.149 18.3699 152.022 18.259 151.895 18.1403C151.776 18.0294 151.662 17.9106 151.551 17.7839C151.44 17.6573 151.333 17.5226 151.23 17.3801C151.135 17.2455 151.048 17.103 150.969 16.9525C150.882 16.81 150.806 16.6596 150.743 16.5012C150.672 16.3508 150.608 16.1964 150.553 16.038C150.422 15.6104 150.327 15.1591 150.232 14.7196C148.795 15.8123 147.251 16.8456 146.075 18.2234C146.182 20.2306 146.693 21.8103 147.584 23.6156C153.76 27.25 154.389 35.7184 156.527 41.8708C157.347 44.2106 158.713 46.2535 159.354 48.6764C159.96 50.9924 160.28 53.4273 160.554 55.8027C160.708 57.1923 160.767 58.6888 161.147 60.0428C161.611 61.6938 163.357 62.5964 163.558 64.4136C163.713 65.8389 163.143 67.5254 162.549 68.7963C163.178 70.1384 163.796 71.5043 164.687 72.692C166.255 71.9675 167.822 71.1717 169.26 70.1978C169.402 69.7465 169.485 69.1526 169.948 68.9032C170.269 68.725 170.59 68.7844 170.91 68.9269C171.706 69.2595 172.371 70.6491 172.573 71.433C172.704 71.9437 172.751 72.4426 172.466 72.9058C172.158 73.0721 171.944 73.1671 171.587 73.0127C171.362 72.9177 171.148 72.7395 170.946 72.597L170.756 72.4663C169.248 73.0958 167.87 73.9272 166.48 74.7586C169.355 79.3669 171.861 84.1534 175.02 88.5836C177.882 87.0752 180.911 85.8281 183.868 84.4979L196.244 78.7968C199.653 79.8064 202.991 81.196 206.292 82.5381C209.416 83.7971 212.611 85.0561 215.652 86.5051C218.419 88.1679 221.483 89.415 224.405 90.7928C225.913 91.5173 228.123 92.7763 229.679 93.1801C232.078 94.3203 234.786 95.3892 237.031 96.8026C237.185 100.057 236.971 103.43 237.351 106.661C236.08 107.433 234.774 108.11 233.432 108.727C231.258 109.737 219.084 115.01 217.588 114.701C218.443 114.25 219.405 113.929 220.284 113.502C225.213 111.126 230.32 108.953 235.118 106.328C234.992 103.699 234.94 101.066 234.964 98.4298C229.002 100.104 223.36 102.682 217.695 105.152C209.832 108.561 202.029 112.088 194.13 115.39C191.09 116.661 187.04 118.882 184.035 119.642C182.894 119.927 181.576 119.749 180.412 119.821L210.628 106.221C217.374 103.181 225.474 99.0474 232.553 97.1945C227.232 94.1659 221.59 91.7429 216.008 89.2606C211.412 87.2177 206.815 85.3055 202.124 83.4764C200.259 82.7519 198.394 81.9324 196.506 81.3029C192.669 82.7994 188.916 84.6642 185.163 86.3745C182.158 87.7403 179.023 88.9756 176.065 90.4483C179.747 96.2444 183.916 102.029 186.398 108.454C189.581 107.575 192.753 106.625 195.947 105.782C200.093 104.701 204.25 103.715 208.3 102.325C210.675 101.518 213.062 100.603 215.355 99.5937C216.649 99.0236 218.336 97.7884 219.678 97.5627C218.514 98.5842 216.994 99.3205 215.616 100.057C206.589 104.879 196.411 106.886 186.41 108.597C186.743 109.725 186.98 110.901 187.253 112.053C187.146 112.528 187.087 112.908 186.766 113.288C186.315 113.537 185.971 113.633 185.448 113.502C184.747 113.312 184.023 112.611 183.488 112.124C178.452 107.421 174.569 98.6079 171.481 92.4318C169.497 93.3226 154.128 99.5819 153.534 100.781C154.556 101.743 155.613 101.565 156.563 102.931L156.67 103.086C160.197 103.002 162.929 103.881 165.589 106.257C162.751 104.44 160.15 103.323 156.765 103.299C157.275 108.846 154.615 105.675 152.798 109.879C155.613 110.984 158.546 112.207 161.242 113.561C164.093 114.998 166.92 116.78 170.02 117.611C172.977 116.103 175.733 113.49 178.191 111.281C176.695 113.609 173.321 117.493 170.72 118.514C170.032 118.787 169.343 118.562 168.666 118.348C166.1 117.528 163.713 116.103 161.278 114.975C158.297 113.609 155.185 112.445 152.18 111.126C151.753 111.518 151.349 111.91 150.802 112.136C149.698 112.575 147.655 112.932 146.574 112.326C146.277 112.16 146.052 111.91 145.992 111.554C145.862 110.699 146.835 109.867 147.37 109.297C145.517 108.561 140.327 106.102 138.652 106.257C137.393 107.29 137.334 108.858 137.108 110.366C139.602 111.625 142.239 112.492 144.686 113.882C141.336 113.466 137.868 112.54 134.685 111.459C134.816 109.476 135.315 107.551 135.908 105.663C133.141 105.675 130.397 105.425 127.654 105.2C127.191 107.088 127.012 107.421 126.906 109.452C126.478 109.511 126.039 109.38 125.623 109.285C124.114 108.941 114.007 106.352 113.52 105.58C114.019 105.045 116.941 105.022 117.926 104.665C118.877 104.321 119.661 103.703 120.433 103.074C118.972 102.349 117.618 101.423 116.252 100.544C116.869 83.7496 118.603 66.3258 126.039 51.04C126.941 49.1752 127.856 47.263 128.948 45.5052L128.022 44.5432C128.093 41.7995 127.761 38.8065 127.167 36.1223C126.763 34.3051 126.169 32.5116 125.991 30.6469C127.072 28.3665 128.758 26.5493 130.469 24.7083C128.2 23.0455 125.599 22.0716 123.307 20.5038C121.727 19.423 120.314 18.069 118.758 16.9407C114.827 14.0545 107.071 9.01861 102.593 7.40331C101.94 8.00905 101.203 8.51977 100.491 9.04237C101.314 14.5138 102.181 19.9812 103.092 25.4447C103.543 28.224 104.517 32.1078 104.351 34.8752C104.268 36.0272 103.698 37.0724 102.819 37.8207C100.978 39.4004 98.1391 39.4954 95.835 39.2816C91.2742 38.854 84.6823 37.0843 81.6655 33.3311C80.8698 32.3334 80.3828 31.1457 80.5847 29.8511C80.7154 29.0197 81.1667 28.2477 81.6655 27.5826C83.7084 24.8865 86.9034 21.6796 89.2075 19.0073C90.8228 17.1386 92.4223 15.262 94.0059 13.3775C95.0511 12.1185 96.2032 10.3726 97.4978 9.41055C97.5928 9.06612 97.6047 9.22052 97.5215 8.93547C97.086 8.8167 96.6585 8.69001 96.2388 8.5554C95.6568 8.37724 95.4549 8.15158 95.1817 7.62898C95.1699 6.51253 95.063 4.56468 95.8825 3.70952C96.1082 3.48386 96.3576 3.38884 96.6664 3.40072C96.8564 3.42448 97.0821 3.49574 97.2602 3.53137L96.9752 3.08004C97.2246 2.40304 97.9254 2.15362 98.543 1.86857C99.3031 1.52413 99.8019 1.26283 100.621 1.57164C102.462 2.29614 104.256 3.31758 106.073 4.11335C110.622 6.12059 115.29 7.9853 119.649 10.3964C122.404 11.9285 124.922 13.9239 127.737 15.3491C130.837 16.9288 134.281 17.8433 137.453 19.3042C137.844 18.9241 138.13 18.5797 138.664 18.4253L138.89 18.5322C138.973 18.9835 138.854 19.4467 138.605 19.8268C137.999 20.7532 136.728 21.5371 135.861 22.2141C132.915 24.5064 128.675 27.5232 127.357 31.122C128.652 36.1104 129.043 39.4241 129.483 44.46C131.181 45.1489 132.951 45.4102 134.756 45.7071C133.545 45.1133 132.286 44.6144 131.181 43.8186C130.766 40.8731 129.495 34.4357 130.077 31.8108C130.291 30.8369 130.837 29.9699 131.431 29.186C132.512 27.7607 133.782 26.4899 135.077 25.2547C136.36 24.0313 138.177 22.713 139.032 21.1689C139.543 20.2425 139.733 19.0667 139.982 18.0452C139.543 17.5464 139.115 17.0119 138.628 16.5487Z" fill="#39232E"/>
<path d="M154.808 5.99023C155.235 6.00211 155.651 6.04962 156.079 6.15651C157.67 6.58409 158.525 7.9262 159.321 9.24457L157.836 8.0331C156.055 6.90478 154.273 6.72662 152.242 6.54846C153.097 6.31092 153.929 6.12088 154.808 5.99023Z" fill="#FEFEFE"/>
<path d="M96.0312 7.60496C96.1857 6.86858 96.2807 6.14407 96.5776 5.4552C97.219 4.95636 98.3829 5.47895 99.1668 5.56209C99.725 5.83526 100.545 6.09656 100.758 6.73793C100.806 6.88045 100.794 7.0111 100.806 7.15363C100.545 7.37929 100.307 7.45055 99.9507 7.40305C99.4519 7.33178 99.1431 6.89233 98.8343 6.5479C98.1691 7.02298 97.5634 7.49806 96.9814 8.05629C97.2427 7.40305 97.7891 6.41725 97.5634 5.7165C97.5515 5.66899 97.5278 5.62148 97.5159 5.58584L97.2546 5.53834C96.8983 5.8709 96.1144 7.77124 96.0431 7.795L96.0312 7.60496Z" fill="#FEFEFE"/>
<path d="M141.55 1.72572C142.215 1.67029 142.88 1.64258 143.545 1.64258C146.978 1.67821 150.339 3.41228 152.715 5.81146C151.871 5.53829 151.123 5.11071 150.351 4.70689C147.916 3.57856 144.519 2.23644 141.764 2.53336C140.98 2.6165 140.113 2.91344 139.341 3.11535L139.258 2.96095C139.709 2.3077 140.814 1.93951 141.55 1.72572Z" fill="#FEFEFE"/>
<path d="M148.796 102.492C149.105 102.682 149.449 102.979 149.58 103.324C150.126 104.773 149.211 106.578 148.558 107.837L145.411 106.4C144.496 106.008 143.558 105.652 142.727 105.081C144.663 104.452 147.109 103.644 148.796 102.492Z" fill="#FEFEFE"/>
<path d="M83.3552 27.916C83.4581 28.1219 83.565 28.3278 83.6759 28.5336C85.9919 32.7381 94.0922 34.6504 98.5223 34.9117C99.3656 34.9592 101.551 34.6266 102.062 34.7691L101.444 35.173C101.135 35.2601 100.823 35.3432 100.506 35.4224C95.8262 36.5863 89.8283 35.0661 85.8019 32.5719C84.6498 31.8592 83.2483 30.9091 82.9633 29.5076C82.8207 28.8187 82.9989 28.4861 83.3552 27.916Z" fill="#FEFEFE"/>
<path d="M147.251 25.2188C147.453 25.29 147.631 25.3613 147.809 25.4682C151.016 27.4041 152.798 32.9864 153.605 36.3595C151.301 32.8439 150.624 29.9577 146.871 27.3804C146.277 27.5585 145.719 27.8198 145.149 28.0693C141.704 29.7558 138.284 31.668 135.172 33.9247C138.343 29.8627 142.785 27.5585 147.251 25.2188Z" fill="#FEFEFE"/>
<path d="M146.468 29.8398C147.905 31.3007 154.378 45.387 155.328 48.0356C156.29 50.7317 157.703 55.5776 157.846 58.3806C156.718 56.0765 155.744 53.3566 155.019 50.8861C154.52 49.1521 154.14 47.3349 153.416 45.6721C152.537 43.6411 151.112 41.812 149.924 39.9473C147.94 36.883 145.648 33.6643 146.468 29.8398Z" fill="#FEFEFE"/>
<path d="M106.555 5.92969C110.343 6.97488 117.375 10.538 120.855 12.6878C123.206 14.1487 125.451 15.7758 127.957 16.9873C130.487 18.2107 133.694 18.5195 135.998 20.1348C135.951 20.4911 135.654 20.598 135.381 20.8236C134.858 21.1443 134.288 21.4294 133.753 21.7263C131.033 20.5029 128.088 18.8164 125.618 17.1536C123.539 15.764 121.567 14.2199 119.406 12.9491C115.95 10.93 109.227 8.2101 106.555 5.92969Z" fill="#FEFEFE"/>
<path d="M97.3097 11.4766L97.4285 11.5953C96.4902 15.1466 95.7776 18.7573 94.8749 22.3204C94.5305 23.6625 94.2454 25.0878 93.7585 26.3705C91.0386 25.741 88.4494 25.4085 85.6701 25.8242C85.397 25.8835 85.195 25.8835 84.9219 25.8598C86.3115 23.9832 88.0812 22.261 89.6133 20.4794C92.1907 17.4983 94.6611 14.4102 97.3097 11.4766Z" fill="#FEFEFE"/>
<path d="M99.2914 10.1113C99.8971 11.7385 100.182 15.1829 100.467 17.0832C101.172 21.7074 101.932 26.3236 102.748 30.932C101.988 30.1006 101.215 29.5067 100.277 28.9128C98.5906 27.9508 96.8328 27.2619 95.0156 26.5849C95.6689 24.1264 98.4838 11.4059 99.2914 10.1113Z" fill="#FEFEFE"/>
<path d="M129.881 46.2773L130.059 46.3605C130.237 46.6812 130.142 46.9068 130.036 47.2394C129.537 48.7597 128.836 50.2443 128.266 51.7408C127.648 53.368 127.197 55.0189 126.769 56.7055C127.993 54.4845 129.18 52.4891 130.974 50.6719C129.18 53.5224 127.292 56.4679 126.354 59.7223C128.705 56.6461 131.069 53.9262 133.931 51.3132C132.744 52.976 131.318 54.4488 130.19 56.171C126.793 61.4088 124.726 67.9056 123.147 73.9036C125.225 69.6278 127.731 65.6846 130.404 61.7533L130.499 61.7414C130.178 63.0597 128.361 65.839 127.672 67.193C124.192 74.0936 123.087 81.4099 124.299 89.0351C125.095 92.7645 125.926 96.8265 127.91 100.152C128.076 100.413 128.04 100.271 128.028 100.556L127.921 100.485C123.8 93.8334 122.981 86.4102 123.028 78.7495C122.232 81.4812 121.852 84.5218 121.401 87.3248C120.649 91.8697 119.936 96.4187 119.263 100.972C118.681 100.627 118.182 100.223 117.66 99.7958C117.612 96.3276 118.087 92.6695 118.396 89.2132C119.31 78.702 121.056 67.5612 124.762 57.6556C126.223 53.7599 128.076 50.0186 129.881 46.2773Z" fill="#FEFEFE"/>
<path d="M146.664 37.3223C147.59 38.5575 148.279 40.0065 149.099 41.3249C150.108 42.9164 151.367 44.401 152.116 46.147C152.959 48.0948 153.363 50.2446 154.016 52.2637C154.99 55.2092 156.213 58.0479 157.46 60.8747C156.676 62.3118 155.94 63.6064 155.643 65.2454C156.189 67.0151 157.163 68.3097 158.125 69.8656C158.684 70.7564 159.491 71.0296 160.489 71.2553C160.964 72.051 161.499 73.1437 162.199 73.7614C163.031 74.4859 163.993 74.7353 164.646 75.7448C165.525 77.1107 166.178 78.7141 166.986 80.1394C169.433 84.4745 171.962 88.7266 174.314 93.1211C177.806 99.6654 181.036 106.661 185.68 112.493C179.979 109.12 172.497 91.6958 169.326 85.3653C167.247 81.7309 165.43 77.5502 162.674 74.4146C161.997 74.6878 161.32 74.9609 160.667 75.2816C160.097 75.5667 159.551 76.0299 158.945 76.2318C157.864 76.5881 156.285 76.1962 155.501 77.1463C155.346 77.6689 155.429 78.0134 155.631 78.5122C156.023 79.4149 156.712 80.6382 157.674 81.0064C157.912 80.9827 158.03 81.0064 158.22 80.8401C158.743 80.3769 158.696 79.5812 158.755 78.9279C160.109 78.1203 161.724 77.5027 163.15 76.8019C164.266 78.9873 165.584 81.1014 166.796 83.2274C168.126 85.5633 169.389 87.9308 170.585 90.33C167.164 91.9809 163.601 93.4062 160.121 94.9264C158.802 92.4916 157.401 90.1518 155.691 87.9664C153.256 84.8665 149.8 82.1347 148.434 78.3816C145.251 69.5925 148.469 60.0908 145.31 51.2185C144.455 48.8193 142.887 46.6933 141.688 44.4604C142.923 41.9068 144.989 39.6146 146.664 37.3223Z" fill="#FEFEFE"/>
</svg>
