<svg width="257" height="225" viewBox="0 0 257 225" fill="none" xmlns="http://www.w3.org/2000/svg">
<path d="M66.7946 0.660195C79.2403 0.30333 91.1864 4.03257 101.66 10.6435C113.339 18.0128 122.1 28.9775 126.213 42.1904C127.257 45.536 127.774 48.8816 128.541 52.2718C128.943 47.9448 130.049 43.2967 131.619 39.2373C131.804 38.7794 131.991 38.3214 132.181 37.8634C132.372 37.4054 132.568 36.9534 132.77 36.5073C132.978 36.0553 133.189 35.6062 133.404 35.1601C133.618 34.7141 133.838 34.271 134.064 33.8308C134.29 33.3907 134.522 32.9535 134.76 32.5193C134.992 32.0852 135.232 31.6539 135.482 31.2257C135.732 30.7975 135.985 30.3722 136.241 29.9499C136.496 29.5276 136.758 29.1083 137.026 28.692C137.293 28.2756 137.567 27.8622 137.847 27.4519C138.126 27.0415 138.412 26.637 138.703 26.2385C138.988 25.8341 139.28 25.4356 139.577 25.043C139.875 24.6505 140.178 24.2609 140.487 23.8743C140.797 23.4817 141.109 23.0981 141.424 22.7234C141.745 22.3427 142.069 21.9651 142.397 21.5903C142.724 21.2216 143.054 20.8558 143.387 20.493C143.726 20.1302 144.068 19.7703 144.413 19.4135C144.758 19.0625 145.106 18.7116 145.457 18.3607C145.814 18.0157 146.173 17.6767 146.536 17.3436C146.899 17.0046 147.265 16.6715 147.634 16.3444C148.002 16.0173 148.377 15.6931 148.758 15.372C149.132 15.0508 149.513 14.7356 149.9 14.4263C150.286 14.117 150.676 13.8137 151.068 13.5163C151.467 13.2189 151.865 12.9245 152.264 12.633C152.662 12.3416 153.067 12.0561 153.477 11.7765C153.888 11.497 154.301 11.2234 154.717 10.9558C155.128 10.6881 155.544 10.4234 155.966 10.1617C156.389 9.90598 156.814 9.6532 157.242 9.4034C157.67 9.15359 158.102 8.90973 158.536 8.67182C158.97 8.43391 159.407 8.20195 159.847 7.97593C160.287 7.74992 160.728 7.52688 161.168 7.30681C161.614 7.09269 162.063 6.88452 162.515 6.6823C162.967 6.47413 163.419 6.27488 163.871 6.08455C178.422 -0.276577 195.257 -1.35609 210.174 4.4965C210.608 4.66898 211.04 4.84444 211.468 5.02287C211.89 5.2013 212.315 5.38568 212.744 5.57601C213.166 5.76634 213.585 5.95964 214.002 6.15592C214.424 6.35814 214.84 6.56334 215.251 6.77151C215.667 6.98563 216.077 7.20272 216.482 7.42279C216.892 7.64286 217.3 7.8659 217.704 8.09191C218.103 8.32388 218.501 8.55881 218.9 8.79672C219.298 9.04058 219.694 9.28741 220.086 9.53722C220.473 9.78703 220.859 10.0398 221.246 10.2956C221.633 10.5573 222.016 10.8219 222.397 11.0896C222.772 11.3572 223.146 11.6308 223.521 11.9104C223.89 12.184 224.258 12.4635 224.627 12.749C224.99 13.0404 225.35 13.3319 225.707 13.6233C226.064 13.9207 226.417 14.2211 226.768 14.5244C227.119 14.8277 227.467 15.1341 227.812 15.4433C228.157 15.7586 228.496 16.0768 228.829 16.398C229.162 16.7191 229.495 17.0433 229.829 17.3704C230.156 17.6975 230.477 18.0306 230.792 18.3696C231.113 18.7027 231.428 19.0417 231.738 19.3867C232.053 19.7317 232.362 20.0796 232.666 20.4305C232.963 20.7814 233.26 21.1383 233.558 21.5011C233.849 21.858 234.138 22.2178 234.423 22.5806C234.709 22.9494 234.991 23.3211 235.271 23.6958C235.544 24.0646 235.815 24.4393 236.083 24.82C236.35 25.2006 236.612 25.5843 236.868 25.9709C237.129 26.3575 237.382 26.7441 237.626 27.1307C237.876 27.5232 238.12 27.9188 238.358 28.3173C238.596 28.7158 238.83 29.1172 239.062 29.5217C239.288 29.9261 239.511 30.3335 239.732 30.7439C239.952 31.1484 240.166 31.5588 240.374 31.9751C240.582 32.3915 240.787 32.8078 240.989 33.2242C241.186 33.6464 241.379 34.0687 241.569 34.491C246.289 45.313 247.654 56.6078 246.771 68.3219C246.021 78.2159 242.667 88.4044 237.804 97.0317C231.988 107.372 224.404 116.079 215.375 123.752C211.673 126.901 207.739 129.952 203.804 132.807C200.539 135.172 197.202 137.375 194.026 139.856C183.383 148.153 172.4 160.456 167.404 173.151C171.722 167.004 176.013 161.151 181.5 155.959C183.617 153.978 185.803 152.078 188.057 150.258C190.312 148.432 192.631 146.692 195.016 145.039C197.256 143.478 199.611 142.104 201.85 140.534C213.743 132.201 225.002 123.395 234.343 112.19C234.712 111.743 235.074 111.294 235.431 110.842C235.794 110.39 236.148 109.935 236.493 109.477C236.844 109.019 237.186 108.555 237.519 108.086C237.858 107.622 238.191 107.152 238.518 106.676C238.845 106.2 239.167 105.721 239.482 105.24C239.797 104.758 240.106 104.27 240.41 103.776C240.713 103.289 241.013 102.798 241.311 102.304C241.602 101.805 241.888 101.305 242.167 100.806C242.453 100.3 242.729 99.7944 242.997 99.2888C243.27 98.7773 243.535 98.2629 243.791 97.7454C244.053 97.2339 244.305 96.7164 244.549 96.193C244.799 95.6756 245.04 95.1522 245.272 94.6228C245.504 94.0994 245.733 93.5701 245.959 93.0348C246.179 92.5054 246.396 91.9731 246.61 91.4378C246.818 90.9025 247.021 90.3642 247.217 89.823C247.419 89.2817 247.612 88.7375 247.797 88.1903C247.981 87.6431 248.16 87.0959 248.332 86.5487C248.504 85.9956 248.671 85.4425 248.832 84.8893C248.992 84.3362 249.147 83.7801 249.296 83.221C249.444 82.6678 249.587 82.1117 249.724 81.5526C249.861 80.9876 249.988 80.4255 250.107 79.8664C250.232 79.3014 250.348 78.7364 250.455 78.1713C250.568 77.6063 250.672 77.0383 250.768 76.4673C250.863 75.9023 250.952 75.3343 251.035 74.7633C251.119 74.1923 251.196 73.6213 251.267 73.0503C251.339 72.4793 251.401 71.9054 251.455 71.3284C251.514 70.7575 251.565 70.1835 251.606 69.6066C251.654 69.0296 251.692 68.4557 251.722 67.8847C251.752 67.3078 251.776 66.7308 251.794 66.1539C251.811 65.577 251.823 65 251.829 64.4231C251.835 63.8462 251.835 63.2722 251.829 62.7012C251.817 62.1243 251.8 61.5474 251.776 60.9704C251.678 58.5616 251.499 56.1171 251.124 53.735C250.768 51.5224 250.214 49.3098 250.027 47.0705L250.009 46.8386C251.187 50.0236 252.463 53.1551 253.391 56.4293C256.825 68.5449 257.352 81.9095 255.139 94.2927C251.374 115.419 241.784 132.816 227.571 148.741C222.95 153.934 218.114 158.796 212.824 163.319C207.248 168.092 201.386 172.375 195.373 176.568C172.9 192.466 147.089 203.913 128.363 224.665C122.787 217.215 111.376 209.667 103.65 204.207C96.5185 199.122 89.2563 194.23 81.8633 189.531C78.0537 187.078 74.155 184.767 70.399 182.242C50.7714 169.056 32.2233 154.398 18.6624 134.77C16.7264 131.969 14.7904 129.176 13.131 126.196C12.1675 124.43 11.2515 122.643 10.3831 120.835C9.50883 119.021 8.68804 117.186 7.92078 115.33C7.14757 113.474 6.42492 111.598 5.75282 109.7C5.08073 107.803 4.46216 105.891 3.89712 103.964C-0.777812 88.3955 -0.759973 70.0437 4.49487 54.6182C5.2086 52.4949 5.89557 50.1753 6.95724 48.2036C6.33273 51.5135 5.70821 54.8056 5.43164 58.1601C3.0228 87.1822 17.6008 111.699 39.9851 129.141C49.0049 136.171 59.1131 141.836 67.8652 149.179C73.6375 154.023 79.1333 159.278 83.9152 165.113C85.9315 167.593 87.6445 170.314 89.7054 172.75C83.71 158.252 72.5045 146.127 60.032 136.911C52.0918 131.041 44.1337 125.991 36.8001 119.247C33.963 116.641 31.349 113.778 28.842 110.86C17.4312 97.567 10.9363 82.7481 10.2404 65.1279C9.54451 47.4542 13.5949 32.0554 25.9157 18.8157C36.5414 7.39603 51.3156 1.18657 66.7946 0.660195Z" fill="#9E0C3D"/>
<path d="M128.473 188.889C128.392 186.837 127.741 184.749 127.224 182.769C126.45 179.729 125.564 176.723 124.565 173.749C123.572 170.775 122.465 167.843 121.246 164.952C115.964 152.23 108.417 140.034 98.4335 130.434C92.5184 124.742 85.6131 119.809 78.6899 115.41C70.589 110.272 61.9351 105.204 55.1814 98.2987C47.83 90.7867 43.3959 80.054 43.5922 69.5175C43.5981 69.2439 43.6071 68.9703 43.619 68.6967C43.6308 68.4231 43.6487 68.1496 43.6725 67.876C43.6903 67.6024 43.7141 67.3288 43.7439 67.0552C43.7676 66.7816 43.7974 66.508 43.8331 66.2344C43.8628 65.9608 43.8985 65.6872 43.9401 65.4136C43.9818 65.1459 44.0264 64.8753 44.074 64.6017C44.1156 64.3341 44.1632 64.0634 44.2167 63.7898C44.2702 63.5222 44.3267 63.2545 44.3862 62.9869C44.4457 62.7193 44.5111 62.4516 44.5825 62.184C44.6479 61.9163 44.7163 61.6516 44.7877 61.3899C44.8591 61.1223 44.9364 60.8576 45.0197 60.5959C45.097 60.3282 45.1773 60.0666 45.2605 59.8108C45.3498 59.5491 45.439 59.2874 45.5282 59.0257C45.6174 58.7699 45.7126 58.5112 45.8137 58.2495C45.9088 57.9938 46.0099 57.741 46.117 57.4912C46.2241 57.2354 46.3311 56.9797 46.4382 56.7239C46.5512 56.4741 46.6642 56.2243 46.7772 55.9745C46.8962 55.7306 47.0181 55.4838 47.143 55.234C47.262 54.9901 47.3869 54.7463 47.5177 54.5024C47.6426 54.2586 47.7735 54.0177 47.9103 53.7798C48.0471 53.5419 48.1839 53.304 48.3207 53.0661C48.4634 52.8281 48.6061 52.5932 48.7489 52.3612C48.8976 52.1293 49.0463 51.8973 49.195 51.6653C49.3496 51.4393 49.5043 51.2133 49.6589 50.9873C49.8195 50.7613 49.9801 50.5383 50.1407 50.3182C50.3013 50.0922 50.4678 49.8721 50.6403 49.658C50.8068 49.4379 50.9763 49.2208 51.1488 49.0067C51.3213 48.7985 51.4968 48.5874 51.6752 48.3733C51.8536 48.1651 52.035 47.9599 52.2194 47.7577C52.4038 47.5495 52.5882 47.3473 52.7725 47.151C52.9629 46.9488 53.1532 46.7495 53.3435 46.5533C53.5398 46.357 53.7361 46.1637 53.9324 45.9734C54.1286 45.789 54.3279 45.6076 54.5301 45.4291C54.7264 45.2447 54.9286 45.0663 55.1368 44.8938C55.339 44.7154 55.5442 44.5399 55.7524 44.3675C55.9605 44.2009 56.1717 44.0344 56.3858 43.8678C56.5999 43.7013 56.8141 43.5377 57.0282 43.3771C57.2482 43.2166 57.4683 43.059 57.6884 42.9043C57.9084 42.7437 58.1315 42.5891 58.3575 42.4404C58.5835 42.2917 58.8095 42.146 59.0355 42.0032C59.2616 41.8545 59.4905 41.7118 59.7225 41.575C59.9545 41.4382 60.1894 41.3014 60.4273 41.1646C60.6593 41.0337 60.8942 40.9059 61.1321 40.781C61.37 40.6501 61.6109 40.5252 61.8548 40.4063C62.0927 40.2813 62.3336 40.1624 62.5774 40.0494C62.8213 39.9304 63.0681 39.8174 63.3179 39.7104C63.5618 39.5974 63.8086 39.4903 64.0584 39.3892C64.3082 39.2821 64.558 39.181 64.8078 39.0858C65.0576 38.9907 65.3104 38.8955 65.5662 38.8004C65.8219 38.7111 66.0777 38.6219 66.3334 38.5327C66.5892 38.4494 66.8449 38.3691 67.1007 38.2918C67.3624 38.2145 67.6211 38.1372 67.8769 38.0599C68.1386 37.9885 68.4003 37.9201 68.662 37.8547C68.9237 37.7892 69.1854 37.7268 69.4471 37.6673C69.7147 37.6019 69.9794 37.5424 70.2411 37.4889C70.5028 37.4353 70.7675 37.3848 71.0351 37.3372C71.3028 37.2956 71.5704 37.2539 71.8381 37.2123C72.1057 37.1707 72.3734 37.132 72.641 37.0963C72.9087 37.0606 73.1763 37.0309 73.444 37.0071C73.7116 36.9774 73.9793 36.9506 74.2469 36.9268C74.5146 36.909 74.7852 36.8911 75.0588 36.8733C75.3264 36.8614 75.5941 36.8495 75.8617 36.8376C76.1353 36.8317 76.406 36.8287 76.6736 36.8287C76.9412 36.8227 77.2119 36.8227 77.4855 36.8287C86.2911 37.0606 94.2938 40.6204 100.316 47.0529C100.572 47.3205 100.821 47.5911 101.065 47.8647C101.309 48.1443 101.547 48.4238 101.779 48.7034C102.017 48.9889 102.246 49.2773 102.466 49.5688C102.692 49.8602 102.912 50.1576 103.126 50.4609C103.34 50.7583 103.546 51.0617 103.742 51.3709C103.944 51.6802 104.143 51.9925 104.34 52.3077C104.53 52.6229 104.714 52.9411 104.893 53.2623C105.071 53.5835 105.244 53.9077 105.41 54.2348C105.577 54.5619 105.74 54.892 105.901 55.2251C106.056 55.5582 106.204 55.8942 106.347 56.2332C106.49 56.5723 106.626 56.9142 106.757 57.2592C106.888 57.5982 107.013 57.9432 107.132 58.2941C107.251 58.645 107.364 58.996 107.471 59.3469C107.578 59.6978 107.679 60.0517 107.774 60.4085C107.864 60.7654 107.95 61.1223 108.033 61.4791C108.11 61.836 108.185 62.1958 108.256 62.5587C109.478 69.4462 108.435 76.1998 104.866 82.2665C102.502 86.2724 99.8877 90.0551 98.2639 94.4535C97.8357 95.6044 97.0952 97.2638 97.1131 98.5039C97.122 98.7983 97.2201 98.7805 97.4253 98.95C99.3792 98.6734 101.279 97.9508 103.117 97.2549C111.04 94.2126 118.213 89.27 123.334 82.4539C125.296 79.8399 126.929 77.1098 128.401 74.1925C133.763 84.1758 139.214 90.4031 149.644 95.2386C152.383 96.5144 155.184 97.6831 158.075 98.5574C158.473 98.6823 158.878 98.7924 159.288 98.8875C159.68 98.8875 159.68 98.9054 159.984 98.6467C160.412 95.0958 154.122 85.2553 152.186 81.9454C148.305 75.2988 147.529 67.5726 149.528 60.1855C149.599 59.9357 149.67 59.6859 149.742 59.4361C149.819 59.1863 149.899 58.9395 149.983 58.6956C150.06 58.4517 150.143 58.2079 150.232 57.964C150.322 57.7142 150.411 57.4704 150.5 57.2324C150.595 56.9886 150.693 56.7477 150.795 56.5098C150.896 56.2719 150.997 56.034 151.098 55.7961C151.205 55.5582 151.315 55.3202 151.428 55.0823C151.535 54.8504 151.648 54.6184 151.767 54.3864C151.88 54.1545 151.999 53.9255 152.124 53.6995C152.243 53.4675 152.368 53.2385 152.499 53.0125C152.623 52.7865 152.754 52.5635 152.891 52.3434C153.022 52.1174 153.159 51.8943 153.301 51.6743C153.438 51.4601 153.578 51.2431 153.721 51.023C153.864 50.8089 154.009 50.5947 154.158 50.3806C154.307 50.1725 154.458 49.9643 154.613 49.7561C154.768 49.5479 154.925 49.3398 155.086 49.1316C155.246 48.9294 155.41 48.7272 155.577 48.5249C155.737 48.3227 155.904 48.1235 156.076 47.9272C156.243 47.7309 156.412 47.5376 156.585 47.3473C156.763 47.151 156.942 46.9607 157.12 46.7763C157.298 46.586 157.477 46.3986 157.655 46.2142C157.84 46.0299 158.027 45.8484 158.217 45.67C158.402 45.4916 158.589 45.3161 158.779 45.1436C158.976 44.9652 159.172 44.7927 159.368 44.6262C159.564 44.4537 159.761 44.2872 159.957 44.1266C160.159 43.96 160.361 43.7965 160.564 43.6359C160.772 43.4753 160.98 43.3177 161.188 43.163C161.396 43.0084 161.605 42.8567 161.813 42.708C162.027 42.5593 162.241 42.4106 162.455 42.2619C162.669 42.1192 162.886 41.9794 163.106 41.8426C163.326 41.6999 163.547 41.5631 163.767 41.4322C163.987 41.2954 164.21 41.1646 164.436 41.0397C171.805 36.8554 180.941 35.8384 189.077 38.0866C197.82 40.5044 204.869 46.4016 209.285 54.2794C212.443 59.9179 213.862 66.7251 213.38 73.1665C212.077 90.6796 197.249 102.974 183.813 112.154C179.683 114.982 175.311 117.516 171.279 120.487C164.222 125.688 157.664 131.264 151.99 137.982C142.836 148.804 136.324 161.749 132.157 175.248C130.765 179.762 129.748 184.357 128.473 188.889Z" fill="#3A1E3E"/>
<path d="M128.398 74.1914C133.76 84.1747 139.211 90.402 149.64 95.2375C152.379 96.5133 155.181 97.6821 158.071 98.5564C158.47 98.6813 158.874 98.7913 159.284 98.8865C145.67 109.798 136.757 118.817 128.79 134.386C128.332 133.499 127.86 132.622 127.372 131.754C126.89 130.885 126.39 130.023 125.873 129.167C125.361 128.316 124.838 127.471 124.303 126.633C123.762 125.794 123.211 124.964 122.652 124.144C122.087 123.323 121.51 122.511 120.921 121.708C120.333 120.905 119.732 120.111 119.119 119.326C118.507 118.541 117.882 117.765 117.246 116.997C116.603 116.23 115.952 115.475 115.292 114.731C114.632 113.982 113.963 113.244 113.285 112.519C112.601 111.799 111.905 111.085 111.197 110.378C110.495 109.676 109.781 108.983 109.056 108.299C108.33 107.621 107.593 106.952 106.843 106.291C106.1 105.631 105.344 104.983 104.577 104.347C103.81 103.71 103.034 103.086 102.248 102.473C101.457 101.86 100.66 101.263 99.8575 100.68C99.0545 100.091 98.2427 99.514 97.4219 98.9489C99.3757 98.6724 101.276 97.9497 103.114 97.2538C111.036 94.2115 118.209 89.269 123.33 82.4528C125.293 79.8388 126.926 77.1088 128.398 74.1914Z" fill="#F31A8C"/>
<path d="M160.134 57.1439C160.247 57.1261 160.363 57.1112 160.482 57.0993C160.601 57.0874 160.717 57.0785 160.83 57.0725C160.949 57.0606 161.067 57.0547 161.186 57.0547C161.305 57.0547 161.424 57.0577 161.543 57.0636C161.656 57.0636 161.772 57.0696 161.891 57.0815C162.01 57.0934 162.129 57.1052 162.248 57.1171C162.361 57.135 162.477 57.1558 162.596 57.1796C162.709 57.1974 162.822 57.2212 162.935 57.251C163.054 57.2748 163.17 57.3045 163.283 57.3402C163.396 57.3699 163.509 57.4056 163.622 57.4472C163.729 57.4829 163.839 57.5246 163.952 57.5721C164.059 57.6138 164.166 57.6584 164.273 57.706C164.38 57.7595 164.487 57.813 164.595 57.8666C164.696 57.9201 164.797 57.9766 164.898 58.0361C164.999 58.0955 165.1 58.158 165.201 58.2234C165.302 58.2829 165.4 58.3483 165.496 58.4197C165.591 58.4911 165.683 58.5624 165.772 58.6338C165.867 58.7111 165.96 58.7885 166.049 58.8658C166.132 58.9431 166.218 59.0234 166.307 59.1067C166.391 59.1899 166.471 59.2732 166.548 59.3565C166.632 59.4457 166.709 59.5349 166.78 59.6241C166.858 59.7133 166.932 59.8055 167.003 59.9007C167.075 59.9959 167.143 60.091 167.209 60.1862C167.274 60.2813 167.339 60.3795 167.405 60.4806C167.464 60.5817 167.524 60.6858 167.583 60.7929C167.637 60.894 167.69 60.9981 167.744 61.1051C167.791 61.2122 167.839 61.3192 167.887 61.4263C167.934 61.5333 167.979 61.6434 168.02 61.7564C168.062 61.8634 168.101 61.9735 168.136 62.0865C168.172 62.1995 168.205 62.3125 168.235 62.4255C168.264 62.5385 168.291 62.6545 168.315 62.7735C168.339 62.8865 168.359 63.0024 168.377 63.1214C168.395 63.2344 168.41 63.3504 168.422 63.4693C168.434 63.5883 168.443 63.7073 168.449 63.8262C168.455 63.9392 168.461 64.0552 168.467 64.1742C168.467 64.2931 168.464 64.4121 168.458 64.531C168.452 64.65 168.443 64.7659 168.431 64.879C168.425 64.9979 168.413 65.1169 168.395 65.2358C168.377 65.3488 168.356 65.4648 168.333 65.5838C168.315 65.6968 168.291 65.8128 168.261 65.9317C168.232 66.0447 168.202 66.1577 168.172 66.2707C168.136 66.3837 168.101 66.4967 168.065 66.6098C168.023 66.7168 167.982 66.8269 167.94 66.9399C167.893 67.0469 167.845 67.154 167.797 67.261C167.744 67.3681 167.69 67.4722 167.637 67.5733C167.583 67.6804 167.527 67.7844 167.467 67.8856C167.408 67.9867 167.345 68.0878 167.28 68.1889C167.215 68.2841 167.146 68.3792 167.075 68.4744C167.009 68.5695 166.938 68.6647 166.861 68.7599C166.789 68.8491 166.715 68.9383 166.638 69.0275C166.554 69.1167 166.471 69.203 166.388 69.2862C166.304 69.3695 166.221 69.4498 166.138 69.5271C166.049 69.6104 165.96 69.6877 165.87 69.7591C165.781 69.8364 165.689 69.9108 165.594 69.9821C165.499 70.0535 165.403 70.1219 165.308 70.1873C165.207 70.2528 165.106 70.3152 165.005 70.3747C164.904 70.4401 164.803 70.4996 164.702 70.5531C164.595 70.6067 164.49 70.6602 164.389 70.7137C164.282 70.7672 164.172 70.8148 164.059 70.8564C163.952 70.904 163.845 70.9486 163.738 70.9903C163.625 71.026 163.512 71.0617 163.399 71.0973C163.286 71.133 163.173 71.1657 163.06 71.1955C162.947 71.2252 162.831 71.252 162.712 71.2758C162.599 71.2996 162.483 71.3204 162.364 71.3382C162.251 71.3561 162.135 71.3709 162.016 71.3828C161.903 71.3947 161.787 71.4036 161.668 71.4096C161.549 71.4155 161.43 71.4185 161.311 71.4185C161.198 71.4185 161.082 71.4155 160.963 71.4096C160.844 71.4096 160.728 71.4036 160.615 71.3917C160.497 71.3799 160.381 71.365 160.268 71.3471C160.149 71.3293 160.033 71.3115 159.92 71.2936C159.801 71.2698 159.685 71.2431 159.572 71.2133C159.459 71.1836 159.346 71.1538 159.233 71.1241C159.12 71.0884 159.01 71.0527 158.903 71.017C158.79 70.9754 158.679 70.9338 158.572 70.8921C158.465 70.8446 158.358 70.797 158.251 70.7494C158.144 70.7018 158.04 70.6513 157.939 70.5977C157.832 70.5383 157.728 70.4788 157.627 70.4193C157.526 70.3598 157.427 70.2974 157.332 70.2319C157.231 70.1725 157.133 70.107 157.038 70.0357C156.943 69.9643 156.851 69.8929 156.761 69.8215C156.672 69.7502 156.583 69.6728 156.494 69.5896C156.404 69.5123 156.318 69.432 156.235 69.3487C156.152 69.2714 156.071 69.1881 155.994 69.0989C155.917 69.0156 155.839 68.9264 155.762 68.8312C155.685 68.742 155.613 68.6528 155.548 68.5636C155.477 68.4684 155.408 68.3733 155.343 68.2781C155.277 68.177 155.212 68.0759 155.147 67.9748C155.087 67.8796 155.031 67.7785 154.977 67.6714C154.918 67.5703 154.864 67.4662 154.816 67.3592C154.763 67.2581 154.712 67.151 154.665 67.038C154.623 66.9309 154.581 66.8239 154.54 66.7168C154.498 66.6038 154.46 66.4908 154.424 66.3778C154.388 66.2707 154.355 66.1607 154.326 66.0477C154.296 65.9287 154.269 65.8128 154.245 65.6998C154.222 65.5867 154.201 65.4708 154.183 65.3518C154.165 65.2388 154.15 65.1228 154.138 65.0039C154.126 64.8909 154.118 64.7749 154.112 64.6559C154.106 64.537 154.1 64.421 154.094 64.308C154.094 64.189 154.097 64.0701 154.103 63.9511C154.109 63.8381 154.118 63.7221 154.129 63.6032C154.135 63.4842 154.147 63.3682 154.165 63.2552C154.183 63.1363 154.201 63.0203 154.219 62.9073C154.242 62.7943 154.269 62.6783 154.299 62.5593C154.323 62.4463 154.352 62.3333 154.388 62.2203C154.418 62.1073 154.454 61.9973 154.495 61.8902C154.531 61.7772 154.57 61.6672 154.611 61.5601C154.659 61.4531 154.706 61.346 154.754 61.2389C154.802 61.1319 154.852 61.0248 154.906 60.9178C154.965 60.8166 155.022 60.7155 155.075 60.6144C155.135 60.5133 155.197 60.4122 155.262 60.3111C155.328 60.2159 155.393 60.1208 155.459 60.0256C155.53 59.9304 155.602 59.8382 155.673 59.749C155.75 59.6539 155.828 59.5617 155.905 59.4724C155.982 59.3892 156.062 59.3059 156.146 59.2226C156.223 59.1334 156.306 59.0502 156.396 58.9728C156.479 58.8955 156.565 58.8182 156.654 58.7409C156.743 58.6636 156.836 58.5892 156.931 58.5178C157.026 58.4465 157.121 58.3781 157.216 58.3126C157.311 58.2472 157.41 58.1848 157.511 58.1253C157.612 58.0599 157.713 58.0004 157.814 57.9469C157.915 57.8874 158.019 57.8338 158.126 57.7863C158.233 57.7327 158.34 57.6822 158.448 57.6346C158.555 57.593 158.662 57.5513 158.769 57.5097C158.882 57.4681 158.995 57.4294 159.108 57.3937C159.215 57.358 159.328 57.3253 159.447 57.2956C159.56 57.2658 159.673 57.2391 159.786 57.2153C159.899 57.1915 160.015 57.1677 160.134 57.1439Z" fill="#FEFEFE"/>
<path d="M95.3348 58.3116C95.4419 58.2878 95.546 58.2699 95.6471 58.258C95.7542 58.2402 95.8612 58.2253 95.9683 58.2134C96.0694 58.2015 96.1735 58.1926 96.2805 58.1867C96.3876 58.1807 96.4946 58.1777 96.6017 58.1777C96.7088 58.1777 96.8128 58.1807 96.914 58.1867C97.021 58.1926 97.1281 58.1986 97.2351 58.2045C97.3422 58.2164 97.4463 58.2313 97.5474 58.2491C97.6545 58.261 97.7585 58.2759 97.8597 58.2937C97.9667 58.3175 98.0708 58.3413 98.1719 58.3651C98.273 58.3889 98.3771 58.4156 98.4842 58.4454C98.5853 58.4751 98.6834 58.5078 98.7786 58.5435C98.8797 58.5792 98.9808 58.6179 99.0819 58.6595C99.1771 58.6952 99.2722 58.7368 99.3674 58.7844C99.4685 58.826 99.5637 58.8707 99.6529 58.9182C99.7481 58.9718 99.8432 59.0253 99.9384 59.0788C100.028 59.1323 100.117 59.1859 100.206 59.2394C100.295 59.2989 100.382 59.3613 100.465 59.4268C100.554 59.4862 100.64 59.5487 100.723 59.6141C100.801 59.6795 100.881 59.7479 100.964 59.8193C101.042 59.8907 101.119 59.9621 101.196 60.0334C101.274 60.1108 101.348 60.1881 101.419 60.2654C101.491 60.3427 101.559 60.42 101.625 60.4974C101.696 60.5806 101.764 60.6639 101.83 60.7472C101.895 60.8304 101.958 60.9167 102.017 61.0059C102.077 61.0951 102.133 61.1843 102.187 61.2735C102.246 61.3628 102.3 61.452 102.347 61.5412C102.401 61.6364 102.451 61.7315 102.499 61.8267C102.546 61.9218 102.591 62.017 102.633 62.1122C102.674 62.2073 102.713 62.3055 102.749 62.4066C102.79 62.5077 102.826 62.6088 102.856 62.7099C102.891 62.811 102.921 62.9122 102.945 63.0133C102.975 63.1144 103.001 63.2155 103.025 63.3166C103.049 63.4237 103.067 63.5277 103.079 63.6288C103.097 63.7359 103.114 63.843 103.132 63.95C103.144 64.0511 103.153 64.1552 103.159 64.2623C103.165 64.3694 103.171 64.4764 103.177 64.5835C103.177 64.6846 103.177 64.7887 103.177 64.8957C103.171 65.0028 103.165 65.1098 103.159 65.2169C103.147 65.324 103.135 65.428 103.123 65.5292C103.112 65.6362 103.097 65.7403 103.079 65.8414C103.061 65.9485 103.04 66.0526 103.016 66.1537C102.993 66.2607 102.966 66.3648 102.936 66.4659C102.912 66.567 102.883 66.6682 102.847 66.7693C102.817 66.8704 102.781 66.9715 102.74 67.0726C102.704 67.1678 102.665 67.2629 102.624 67.3581C102.576 67.4592 102.529 67.5574 102.481 67.6525C102.433 67.7477 102.386 67.8399 102.338 67.9291C102.285 68.0242 102.231 68.1164 102.178 68.2057C102.118 68.2949 102.059 68.3811 101.999 68.4644C101.94 68.5536 101.877 68.6398 101.812 68.7231C101.747 68.8064 101.678 68.8896 101.607 68.9729C101.541 69.0502 101.473 69.1275 101.402 69.2049C101.324 69.2822 101.25 69.3595 101.179 69.4368C101.101 69.5082 101.021 69.5796 100.938 69.651C100.86 69.7223 100.78 69.7907 100.697 69.8562C100.613 69.9216 100.53 69.984 100.447 70.0435C100.358 70.103 100.268 70.1625 100.179 70.2219C100.09 70.2814 100.001 70.3379 99.9116 70.3915C99.8165 70.445 99.7243 70.4955 99.6351 70.5431C99.5399 70.5907 99.4447 70.6353 99.3496 70.6769C99.2485 70.7245 99.1503 70.7662 99.0552 70.8018C98.954 70.8435 98.8529 70.8821 98.7518 70.9178C98.6567 70.9476 98.5585 70.9773 98.4574 71.007C98.3503 71.0368 98.2463 71.0636 98.1452 71.0873C98.0024 71.123 97.8626 71.1528 97.7258 71.1766C97.5831 71.2004 97.4374 71.2212 97.2887 71.239C97.1459 71.2509 97.0032 71.2598 96.8604 71.2658C96.7177 71.2717 96.572 71.2717 96.4233 71.2658C96.2805 71.2598 96.1378 71.2509 95.995 71.239C95.8523 71.2271 95.7095 71.2093 95.5668 71.1855C95.4241 71.1617 95.2813 71.1319 95.1386 71.0963C95.0018 71.0665 94.862 71.0308 94.7192 70.9892C94.5824 70.9476 94.4486 70.9 94.3178 70.8465C94.181 70.7929 94.0471 70.7364 93.9163 70.6769C93.7854 70.6175 93.6546 70.555 93.5237 70.4896C93.3988 70.4182 93.2739 70.3439 93.149 70.2665C93.0301 70.1892 92.9111 70.1089 92.7922 70.0257C92.6732 69.9424 92.5602 69.8532 92.4531 69.758C92.3401 69.6688 92.2301 69.5736 92.123 69.4725C92.0219 69.3714 91.9208 69.2703 91.8197 69.1692C91.7245 69.0621 91.6324 68.9521 91.5431 68.8391C91.448 68.7261 91.3588 68.6101 91.2755 68.4911C91.1922 68.3722 91.1149 68.2532 91.0435 68.1343C90.9662 68.0094 90.8948 67.8815 90.8294 67.7507C90.764 67.6257 90.7015 67.4979 90.642 67.367C90.5826 67.2302 90.529 67.0934 90.4815 66.9566C90.4279 66.8258 90.3833 66.689 90.3476 66.5462C90.306 66.4094 90.2703 66.2697 90.2406 66.1269C90.2108 65.9901 90.1841 65.8503 90.1603 65.7076C90.1365 65.5648 90.1186 65.4191 90.1068 65.2704C90.0949 65.1277 90.0889 64.9849 90.0889 64.8422C90.083 64.6995 90.0859 64.5537 90.0978 64.405C90.1038 64.2623 90.1127 64.1195 90.1246 63.9768C90.1424 63.834 90.1662 63.6913 90.196 63.5486C90.2198 63.4058 90.2495 63.266 90.2852 63.1292C90.3209 62.9865 90.3595 62.8467 90.4012 62.7099C90.4488 62.5731 90.4993 62.4363 90.5528 62.2995C90.6064 62.1687 90.6629 62.0378 90.7223 61.907C90.7878 61.7761 90.8562 61.6482 90.9275 61.5233C90.993 61.3984 91.0673 61.2735 91.1506 61.1486C91.2279 61.0297 91.3112 60.9107 91.4004 60.7918C91.4837 60.6788 91.5729 60.5687 91.668 60.4617C91.7632 60.3487 91.8613 60.2416 91.9625 60.1405C92.0636 60.0394 92.1677 59.9383 92.2747 59.8372C92.3818 59.742 92.4918 59.6498 92.6048 59.5606C92.7178 59.4714 92.8338 59.3881 92.9528 59.3108C93.0777 59.2275 93.2026 59.1502 93.3275 59.0788C93.4524 59.0074 93.5773 58.9391 93.7022 58.8736C93.833 58.8082 93.9639 58.7458 94.0947 58.6863C94.2315 58.6327 94.3683 58.5822 94.5051 58.5346C94.6419 58.487 94.7787 58.4454 94.9155 58.4097C95.0583 58.374 95.198 58.3413 95.3348 58.3116Z" fill="#FEFEFE"/>
</svg>
