<svg width="257" height="240" viewBox="0 0 257 240" fill="none" xmlns="http://www.w3.org/2000/svg">
<path d="M183.12 194.318C213.961 198.355 239.775 205.675 256.602 215C236.909 196.402 187.027 183.195 128.602 183.195C70.1758 183.195 20.2939 196.402 0.601562 215C17.4286 205.675 43.2422 198.355 74.083 194.318C74.8384 198.173 74.7603 202.341 73.536 206.56L68.8474 222.997L80.7513 210.702C94.8694 196.115 119.511 202.705 124.46 222.424L128.602 239.016L132.743 222.424C137.692 202.705 162.334 196.115 176.452 210.702L188.356 222.997L183.667 206.56C182.443 202.341 182.365 198.173 183.12 194.318Z" fill="#0A3E4F"/>
<path d="M24.149 192.521C42.8254 186.426 66.3207 181.972 92.5511 179.81C93.3065 179.028 93.6712 177.908 93.4107 176.736C93.4107 176.736 93.4107 176.727 93.4107 176.71C93.0634 175.251 92.7508 173.81 92.4729 172.386C86.9768 144.046 93.4367 118.206 94.687 113.517C92.2385 117.972 90.2849 121.462 89.5295 126.151C88.8002 124.77 88.3834 123.963 87.8104 122.895C86.3777 125.551 87.4978 128.156 86.9247 130.579C85.5963 130.761 85.9349 128.86 84.6585 128.677V136.492C83.2259 136.309 83.5385 134.642 82.3142 134.147C80.8295 138.575 80.7774 143.29 79.8918 147.797C77.2869 144.306 76.1669 137.612 76.6357 127.818C76.9483 120.811 79.5531 114.559 82.6528 108.412C80.6992 109.74 79.3187 111.694 77.2869 112.71C76.0887 112.293 77.5474 111.251 76.8962 110.6C74.7603 112.397 73.2235 114.716 70.7749 115.888C70.7749 114.846 70.7749 113.804 70.7749 112.762C68.639 114.768 67.1543 117.451 64.7579 119.118C63.6378 118.258 65.0965 117.268 64.3671 116.278C61.2414 119.022 58.1156 121.757 54.9898 124.484C57.8291 111.407 64.9662 102.317 76.7139 97.5238C79.4229 96.4298 79.4489 96.4819 82.1579 93.7989C79.2666 94.1115 76.4534 94.4241 73.536 94.7367C73.3797 93.304 75.0208 93.4082 75.1771 92.2361C72.0513 92.6789 69.1339 94.2157 65.5914 94.2418C66.3468 93.2519 66.9198 92.5486 67.9618 91.1941C64.2369 92.3142 61.1632 93.2519 58.0114 94.1897C58.1677 92.731 59.5222 92.5226 60.1734 90.9076C55.3024 92.757 50.8222 94.4501 45.4823 96.4558C57.2039 83.0151 70.4363 77.8315 86.8987 83.4579C86.8466 83.0585 86.7858 82.6591 86.7163 82.2597C84.1636 80.9312 81.6109 79.5767 78.7456 78.092C80.1001 76.9719 81.4025 77.7013 82.6008 77.1282C80.048 75.2527 76.8441 75.3048 74.1612 73.5075C75.6459 73.0647 76.8962 72.674 79.0061 72.0488C75.3594 71.2674 72.5983 70.6422 69.7851 70.0171C70.254 68.35 71.8169 69.2877 73.0411 68.2719C69.2381 66.5006 65.6174 64.7814 62.0228 63.0883C75.8022 61.1347 87.8364 64 96.6667 77.0761C99.7664 64.7293 105.575 55.0655 117.193 50.3508C115.499 53.0338 113.754 55.7167 112.165 58.4778C111.983 58.7904 109.092 60.5356 112.582 60.4054C113.39 60.3793 112.816 61.317 112.556 61.7599C111.514 63.5051 110.446 65.1982 109.352 66.9955C110.029 68.1677 110.837 66.0838 111.722 67.1779C110.811 69.6524 109.118 71.7363 107.216 74.5755C108.388 74.0285 108.909 73.7941 109.508 73.5075C110.29 74.6536 108.857 75.4351 109.222 77.0501C118.99 66.7871 130.659 65.9276 143.188 68.871C138.317 70.0431 135.114 75.0444 129.774 75.0444C129.878 76.6854 131.623 75.6956 132.144 76.8156C131.988 76.998 131.858 77.3626 131.623 77.4408C130.399 77.8054 129.175 78.092 127.95 78.4046C126.387 78.8213 126.414 78.8474 125.684 80.9052C125.58 81.2177 124.955 81.374 124.538 81.5303C122.532 82.3118 120.501 83.0411 117.922 84.0309C120.318 84.8645 122.063 85.3073 124.199 85.0728C137.302 83.6142 147.018 89.8917 155.249 100.832C150.69 99.2169 146.731 97.8103 142.641 96.3517C142.016 97.4457 143.423 97.7843 142.98 98.8523C140.662 98.0708 138.291 97.2894 135.973 96.5079C135.244 97.5499 137.067 97.628 136.442 98.722C132.952 97.9927 129.435 95.5962 125.788 98.4876C130.737 102.03 133.915 105.833 135.843 108.464C138.317 111.902 139.359 114.038 139.776 115.054C141.131 118.44 141.495 121.488 141.6 123.468L137.145 118.519C136.807 118.675 136.859 118.649 136.52 118.831C136.755 119.717 136.963 120.602 137.328 121.983C134.358 120.029 132.821 117.268 130.816 115.002C129.826 115.731 131.285 116.617 130.529 117.398C128.836 116.825 128.081 114.976 126.674 114.064C125.476 113.309 125.267 110.522 122.637 112.163C122.037 112.527 119.771 109.871 117.687 108.125C123.731 121.775 125.658 135.033 119.042 148.63C118.651 144.228 118.26 139.826 117.87 135.346C116.698 135.111 116.906 136.83 115.786 136.908C115.031 134.512 115.916 131.985 115.604 129.563C114.145 129.485 114.64 131.543 113.363 131.543C112.087 128.729 112.79 125.63 112.296 122.712C110.993 122.921 111.254 124.588 109.925 125.004C109.56 122.634 109.196 120.316 108.805 117.763C107.268 120.602 106.93 118.545 106.513 117.268C105.184 113.309 102.84 109.792 102.111 105.547C101.781 107.613 101.486 109.792 101.225 112.085C100.939 114.924 100.626 118.727 100.444 122.66C100.287 126.333 100.183 129.771 100.157 132.923C100.261 140.529 100.913 148.734 102.397 157.382C103.257 162.331 104.299 166.994 105.471 171.344C105.87 172.82 106.278 174.27 106.695 175.694C106.834 176.128 106.973 176.554 107.112 176.97C107.346 177.752 107.867 178.403 108.519 178.794C115.083 178.507 121.803 178.351 128.602 178.351C141.886 178.351 154.754 178.924 166.996 180.018C167.674 179.549 168.142 178.846 168.325 177.986C168.377 177.726 168.438 177.457 168.507 177.179C168.681 176.31 168.846 175.416 169.002 174.496C169.106 173.94 169.202 173.393 169.289 172.855C170.409 166.004 170.799 159.674 170.799 154.048C170.765 153.076 170.721 152.077 170.669 151.053C170.383 145.035 169.705 139.513 169.705 139.513C169.636 138.94 169.566 138.384 169.497 137.846C169.054 141.206 167.179 143.915 166.163 147.015C165.85 147.953 165.564 149.516 164.444 147.38C164.157 149.307 163.871 151.026 163.61 152.798C162.594 152.485 162.803 151.235 161.839 151.079C161.448 153.267 161.969 155.585 161.031 157.669C160.094 157.695 160.432 156.132 159.364 156.21C159.13 158.007 159.781 159.909 159.208 161.68C158.374 161.628 158.557 160.352 157.645 160.534C157.359 163.868 157.072 167.15 156.786 170.432C151.862 160.274 153.295 150.375 157.801 140.19C156.239 141.493 154.545 143.473 154.103 143.212C152.149 141.988 151.993 144.072 151.107 144.645C150.039 145.322 149.492 146.702 148.216 147.119C147.643 146.52 148.737 145.869 148.007 145.322C146.497 147.015 145.35 149.073 143.136 150.532C143.397 149.516 143.579 148.838 143.735 148.187C143.501 148.057 143.527 148.083 143.293 147.953C140.948 150.532 138.63 153.11 135.999 156.028C136.911 150.688 138.943 146.364 141.521 142.274C144.126 138.133 147.617 135.059 151.758 132.975C149.023 130.839 146.392 132.611 143.814 133.158C143.319 132.35 144.673 132.298 144.152 131.516C142.407 132.09 140.636 132.689 138.917 133.262C138.604 132.454 139.646 132.194 139.177 131.412C136.129 132.48 133.16 133.522 129.748 134.746C135.895 126.567 143.136 121.879 152.93 122.973C154.545 123.155 155.848 122.816 157.619 122.191C155.692 121.462 154.181 120.915 152.67 120.316C152.383 120.212 151.915 120.107 151.836 119.847C151.289 118.336 151.315 118.31 150.143 117.998C149.232 117.763 148.32 117.555 147.408 117.268C147.226 117.216 147.122 116.93 146.991 116.799C147.408 115.966 148.711 116.721 148.763 115.497C144.777 115.471 142.381 111.746 138.76 110.886C148.112 108.672 156.838 109.324 164.131 116.982C164.392 115.757 163.324 115.184 163.897 114.351C164.339 114.559 164.756 114.742 165.616 115.132C164.209 112.996 162.933 111.459 162.256 109.61C162.907 108.803 163.506 110.365 164.027 109.48C163.219 108.151 162.412 106.849 161.63 105.573C161.448 105.234 161.005 104.531 161.604 104.557C164.209 104.661 162.047 103.333 161.917 103.124C160.719 101.04 159.442 99.0606 158.166 97.0289C166.84 100.571 171.19 107.787 173.508 117.008C180.099 107.24 189.085 105.104 199.374 106.562C196.665 107.839 193.982 109.089 191.143 110.418C192.055 111.199 193.227 110.47 193.591 111.746C191.481 112.189 189.424 112.658 186.689 113.257C188.252 113.726 189.215 114.012 190.309 114.351C188.304 115.679 185.907 115.653 184.006 117.034C184.891 117.477 185.881 116.93 186.897 117.763C184.735 118.883 182.834 119.873 180.932 120.863C180.88 121.158 180.828 121.462 180.776 121.775C193.07 117.581 202.969 121.436 211.721 131.49C207.735 129.98 204.401 128.703 200.755 127.323C201.25 128.547 202.239 128.703 202.37 129.771C200.025 129.068 197.733 128.391 194.946 127.557C195.727 128.547 196.144 129.094 196.717 129.823C194.06 129.797 191.872 128.651 189.554 128.339C189.658 129.198 190.882 129.12 190.778 130.188C188.59 129.954 186.506 129.719 184.318 129.485C186.35 131.49 186.376 131.438 188.408 132.272C197.186 135.866 202.5 142.639 204.61 152.407C202.283 150.375 199.956 148.335 197.629 146.286C197.082 147.015 198.176 147.77 197.342 148.396C195.545 147.145 194.451 145.14 192.836 143.655C192.836 144.436 192.836 145.218 192.836 145.999C191.013 145.114 189.84 143.368 188.278 142.04C187.783 142.509 188.851 143.29 187.965 143.603C186.454 142.847 185.412 141.389 183.954 140.399C186.272 144.983 188.226 149.646 188.46 154.908C188.799 162.201 187.991 167.202 186.011 169.807C185.36 166.447 185.334 162.93 184.214 159.622C183.302 159.987 183.537 161.237 182.469 161.368V155.533C181.531 155.663 181.766 157.096 180.776 156.965C180.333 155.142 181.193 153.188 180.125 151.209C179.682 152.016 179.369 152.615 178.822 153.657C178.249 150.167 176.79 147.536 174.993 144.228C175.696 146.911 178.718 158.945 178.197 173.975C178.145 175.416 178.067 176.875 177.963 178.351C177.945 178.577 177.928 178.802 177.91 179.028C177.832 179.81 178.067 180.565 178.484 181.19C199.166 183.613 217.738 187.52 233.054 192.521C242.119 195.49 250.037 198.825 256.602 202.445C245.14 191.609 223.39 182.597 195.675 176.97C201.38 173.662 208.413 172.49 215.654 174.548L232.09 179.262L219.796 167.359C205.209 153.241 211.825 128.573 231.517 123.65L248.11 119.508L231.517 115.341C211.825 110.418 205.209 85.7501 219.796 71.6321L232.09 59.7542L215.654 64.4428C196.118 70.0171 178.067 51.9658 183.667 32.4558L188.356 15.9935L176.452 28.2881C162.334 42.9011 137.692 36.2849 132.743 16.5926L128.602 0L124.46 16.5926C119.511 36.2849 94.8694 42.9011 80.7513 28.2881L68.8474 15.9935L73.536 32.4558C79.1364 51.9658 61.0851 70.0171 41.5491 64.4428L25.1128 59.7542L37.4074 71.6321C51.9943 85.7501 45.3781 110.418 25.6858 115.341L9.09322 119.508L25.6858 123.65C45.3781 128.573 51.9943 153.241 37.4074 167.359L25.1128 179.262L41.5491 174.548C48.7904 172.49 55.8234 173.662 61.5279 176.97C33.8128 182.597 12.0627 191.609 0.601562 202.445C7.16567 198.825 15.0843 195.49 24.149 192.521Z" fill="url(#paint0_linear_40_23886)"/>
<defs>
<linearGradient id="paint0_linear_40_23886" x1="267.966" y1="82.2425" x2="212.324" y2="195.01" gradientUnits="userSpaceOnUse">
<stop stop-color="#F59223"/>
<stop offset="1" stop-color="#F05B2C"/>
</linearGradient>
</defs>
</svg>
