<svg width="257" height="192" viewBox="0 0 257 192" fill="none" xmlns="http://www.w3.org/2000/svg">
<path d="M203.056 73.2643C203.056 73.4296 203.056 73.5949 203.056 73.7602C198.503 82.3927 194.041 94.2934 193.905 108.065C187.527 119.379 178.128 128.846 166.768 135.45C166.753 135.465 166.723 135.48 166.678 135.495C165.131 136.412 163.545 137.261 161.922 138.042C160.007 138.989 158.023 139.845 156.017 140.634H155.995C150.833 142.617 145.401 144.082 139.744 144.894C136.07 145.435 132.329 145.728 128.497 145.728C124.665 145.728 120.924 145.435 117.25 144.894C111.615 144.082 106.183 142.64 101.044 140.657L101.022 140.634C98.9932 139.868 96.9872 138.989 95.0489 138.042C93.4411 137.261 91.8633 136.412 90.3157 135.495C90.2706 135.48 90.2405 135.465 90.2255 135.45C78.8432 128.846 69.467 119.379 63.0884 108.065C62.9532 94.2934 58.4904 82.3927 53.9375 73.7602C53.9375 73.5949 53.9375 73.4296 53.9375 73.2643C53.9375 69.5453 54.208 65.8714 54.7715 62.3103C54.8165 61.9722 54.8616 61.6792 54.9292 61.3636C55.5603 57.5996 56.507 53.9707 57.7015 50.4321C57.972 49.6207 58.265 48.8093 58.5806 47.9979C59.2267 46.2849 59.9404 44.6095 60.7218 42.9716C60.842 42.7312 60.9622 42.4908 61.0824 42.2504C62.3446 39.6584 63.7646 37.1565 65.3198 34.7448C65.3799 34.6396 65.4475 34.542 65.5226 34.4518C70.1431 27.352 76.0033 21.1086 82.8101 15.9922C95.432 6.45813 111.277 0.800781 128.497 0.800781C145.717 0.800781 161.562 6.45813 174.184 15.9922C180.991 21.1086 186.851 27.352 191.471 34.4518C191.546 34.542 191.614 34.6396 191.674 34.7448C193.229 37.1565 194.649 39.6584 195.911 42.2504C196.032 42.4908 196.144 42.7312 196.25 42.9716C197.038 44.617 197.76 46.2849 198.413 47.9979C198.729 48.8093 198.999 49.6207 199.292 50.4321C200.487 53.9707 201.434 57.6221 202.065 61.3636C202.11 61.6792 202.177 61.9722 202.222 62.3103C202.786 65.8714 203.056 69.5453 203.056 73.2643Z" fill="#F7AC3B"/>
<path d="M110.108 49.8901C110.108 49.8901 107.922 49.6872 104.338 49.552H104.315L100.732 42.7226L102.174 49.4844C99.4244 49.4168 96.1112 49.3942 92.4824 49.5295L90.837 43.3763L90.7468 49.5971C87.659 49.7323 84.3683 49.9803 81.0325 50.386L79.3646 44.1652L79.2969 50.5888C76.9754 50.9044 74.6764 51.3101 72.4225 51.8059L71.2054 47.253L71.1152 52.0764C68.6359 52.6624 66.2468 53.3386 63.9703 54.1725L63.0011 50.5888L62.956 54.5332C60.7697 55.3897 58.7412 56.3589 56.8705 57.4633C65.7058 54.0824 80.5591 51.4904 97.2381 61.4753C97.2381 61.4753 100.326 67.8538 98.5905 75.8102C98.5905 75.8102 97.0578 74.841 94.5109 73.376L94.4658 67.0424L92.9557 72.4969C90.9722 71.4151 88.5831 70.1528 85.8784 68.8681L87.0053 63.7743L84.5936 68.2596C82.2946 67.1777 79.7928 66.1183 77.2233 65.1491L78.3728 59.9877L75.871 64.6533C74.0679 63.9996 72.2422 63.4136 70.394 62.9178L71.2279 59.1312L69.3572 62.6248C67.3286 62.1063 65.3227 61.7006 63.3392 61.4302L63.9928 58.4775L62.4602 61.3175C59.8456 61.0245 57.2987 61.0245 54.9321 61.3626C54.3611 61.4377 53.7976 61.5429 53.2417 61.6781C53.7601 61.881 54.2785 62.0838 54.7743 62.3092C88.0647 76.4864 90.4989 119.559 90.2284 135.449V135.517C90.1608 139.213 89.9354 141.399 89.9354 141.399L67.1483 148.77L53.2867 143.586C53.7375 142.774 54.1883 141.985 54.6391 141.174C60.9501 129.499 63.204 118.274 63.0913 108.064C62.956 94.2923 58.4933 82.3916 53.9404 73.7591C52.3175 70.6713 50.6722 68.0116 49.2071 65.8028L48.5761 65.938C47.4942 69.0484 47.2237 72.5871 47.5167 76.3286L44.5866 77.7486L47.5843 77.2076C47.7646 79.1911 48.1027 81.2196 48.531 83.2707L44.9698 85.0062L48.7789 84.33C49.2072 86.1782 49.7256 88.0264 50.3116 89.8521L45.5333 92.1736L50.7398 91.227C51.6188 93.8416 52.588 96.366 53.5797 98.7326L48.9818 100.964L54.1207 100.04C55.2927 102.767 56.4648 105.224 57.479 107.23L51.9569 108.537L58.2904 108.808V108.83C59.6653 111.445 60.5669 113 60.5669 113C52.5429 114.42 46.2996 111.084 46.2996 111.084C36.9684 94.0444 40.1464 79.2812 43.8654 70.5811C42.6933 72.4068 41.634 74.4128 40.7099 76.554L36.7655 76.4638L40.3042 77.5457C39.3801 79.7996 38.6137 82.1662 37.915 84.623L33.0916 84.5103L37.5995 85.9078C37.0135 88.1391 36.5401 90.4381 36.1344 92.7146L29.6882 92.5568L35.8414 94.4727C35.323 97.7859 34.9399 101.054 34.6694 104.142L28.4711 103.984L34.5341 105.877C34.2637 109.484 34.151 112.797 34.1284 115.547L27.4118 113.856L34.1059 117.711C34.1059 121.294 34.2186 123.503 34.2186 123.503C24.7521 120.505 19.8611 113.406 19.8611 113.406C19.3427 87.9363 32.9789 73.5112 42.0172 66.7494C40.4845 67.5608 38.9744 68.4849 37.4868 69.5443L34.1735 67.4031L36.6078 70.1754C34.6694 71.6179 32.7536 73.2182 30.9053 74.9762L26.8483 72.3617L29.9587 75.9003C28.2908 77.5006 26.6905 79.2136 25.1579 80.9491L19.7485 77.4556L23.9858 82.279C21.8221 84.8484 19.7935 87.4404 17.9679 89.9423L12.7388 86.5614L16.9311 91.3397C14.8349 94.2923 13.0092 97.0421 11.5442 99.3862L6.69827 94.4276L10.4172 101.212H10.3947C8.52394 104.277 7.4646 106.216 7.4646 106.216C0.950782 98.7326 0.5 90.1226 0.5 90.1226C14.3391 66.3663 35.571 62.174 46.232 61.6781C44.9022 59.9426 44.0457 59.0185 44.0457 59.0185C45.353 59.2664 46.5926 59.582 47.8323 59.92C48.6437 49.4168 53.4671 27.982 78.0798 14.8867C78.0798 14.8867 80.0182 15.067 82.8131 15.9911C85.9235 17.0054 90.0932 18.9212 93.8798 22.4824C93.8798 22.4824 91.8963 23.4742 88.7859 25.2097L88.7634 25.2322L82.1369 21.2653L86.8926 26.2916C84.526 27.6665 81.6861 29.3794 78.6433 31.3629L74.0453 26.9903L77.2233 32.3321C74.6313 34.0676 71.9717 35.9834 69.3346 38.057L65.5255 34.4507L64.669 33.6393L65.3227 34.7438L67.9597 39.1614C66.1566 40.649 64.376 42.1817 62.7081 43.782L61.0853 42.2493L59.3047 40.5363L60.7247 42.9706L61.7389 44.6835C60.642 45.7805 59.5902 46.8849 58.5834 47.9968C57.9524 48.7406 57.3213 49.4619 56.7352 50.2057L54.0531 47.6587L56.0591 51.0621C54.9546 52.5047 53.9855 53.9697 53.1064 55.4573C54.3686 53.8795 55.9013 52.1666 57.7044 50.431C65.9087 42.4747 79.7252 33.9098 100.596 35.1495C100.596 35.1495 107.493 40.3109 110.108 49.8901Z" fill="#072351"/>
<path d="M256.498 90.1226C256.498 90.1226 256.024 98.7326 249.511 106.216C249.511 106.216 248.474 104.277 246.603 101.212H246.58L250.277 94.4276L245.454 99.3862C243.988 97.0421 242.163 94.2923 240.044 91.3397L244.259 86.5614L239.03 89.9423C237.204 87.4404 235.176 84.8484 232.989 82.279L237.249 77.4556L231.84 80.9491C230.307 79.2136 228.707 77.5006 227.039 75.9003L230.149 72.3617L226.092 74.9762C224.222 73.2182 222.328 71.6179 220.39 70.1754L222.824 67.4031L219.511 69.5443C218.023 68.4849 216.513 67.5608 214.981 66.7494C224.019 73.5112 237.655 87.9363 237.137 113.406C237.137 113.406 232.246 120.505 222.779 123.503C222.779 123.503 222.892 121.294 222.892 117.711L229.563 113.856L222.869 115.547C222.847 112.797 222.734 109.484 222.464 105.877L228.527 103.984L222.306 104.142C222.058 101.054 221.675 97.7859 221.156 94.4727L227.309 92.5568L220.863 92.7146C220.458 90.4381 219.984 88.1391 219.398 85.9078L223.884 84.5103L219.06 84.623C218.384 82.1662 217.618 79.7996 216.694 77.5457L220.232 76.4638L216.288 76.554C215.364 74.4128 214.304 72.4068 213.132 70.5811C216.851 79.2812 220.029 94.0444 210.698 111.084C210.698 111.084 204.455 114.42 196.408 113C196.408 113 197.332 111.445 198.707 108.83V108.808L205.018 108.537L199.496 107.23C200.533 105.224 201.705 102.767 202.877 100.04L208.016 100.964L203.418 98.7326C204.41 96.366 205.379 93.8416 206.235 91.227L211.442 92.1736L206.686 89.8521C207.272 88.0264 207.791 86.1782 208.219 84.33L212.005 85.0062L208.467 83.2707C208.895 81.2196 209.233 79.1911 209.413 77.2076L212.411 77.7486L209.481 76.3286C209.774 72.5871 209.481 69.0484 208.422 65.938L207.791 65.8028C206.326 68.0116 204.68 70.6713 203.057 73.7591C198.504 82.3916 194.042 94.2923 193.906 108.064C193.794 118.274 196.048 129.499 202.359 141.174C202.787 141.985 203.26 142.774 203.711 143.586L189.849 148.77L167.062 141.399C167.062 141.399 166.837 139.213 166.769 135.517V135.449C166.499 119.559 168.933 76.4864 202.223 62.3092C202.719 62.0838 203.238 61.881 203.756 61.6781C203.2 61.5429 202.637 61.4377 202.066 61.3626C199.676 61.0245 197.152 61.0245 194.538 61.3175L193.005 58.4775L193.658 61.4302C191.675 61.7006 189.669 62.1063 187.641 62.6248L185.77 59.1312L186.604 62.9178C184.756 63.4136 182.93 63.9996 181.127 64.6533L178.625 59.9877L179.774 65.1491C177.205 66.1183 174.703 67.1777 172.404 68.2596L169.97 63.7743L171.119 68.8681C168.415 70.1528 166.003 71.4151 164.042 72.4969L162.532 67.0424L162.487 73.376C159.94 74.841 158.407 75.8102 158.407 75.8102C156.672 67.8538 159.76 61.4753 159.76 61.4753C176.439 51.4904 191.292 54.0824 200.127 57.4633C198.256 56.3589 196.228 55.3897 194.042 54.5332L193.997 50.5888L193.027 54.1725C190.751 53.3386 188.339 52.6624 185.86 52.0764L185.792 47.253L184.575 51.8059C182.321 51.3101 180 50.9044 177.701 50.5888L177.611 44.1652L175.965 50.386C172.629 49.9803 169.339 49.7323 166.228 49.5971L166.161 43.3763L164.515 49.5295C160.887 49.3942 157.573 49.4168 154.823 49.4844L156.266 42.7226L152.682 49.552H152.66C149.076 49.6872 146.867 49.8901 146.867 49.8901C149.482 40.3109 156.401 35.1495 156.401 35.1495C177.273 33.9098 191.066 42.4747 199.293 50.431C201.074 52.1666 202.607 53.8795 203.891 55.4573C203.02 53.9697 202.028 52.5047 200.916 51.0621L202.945 47.6587L200.262 50.2057C199.676 49.4619 199.045 48.7406 198.414 47.9968C197.408 46.8849 196.348 45.7805 195.236 44.6835L196.251 42.9706L197.693 40.5363L195.912 42.2493L194.29 43.782C192.599 42.1817 190.841 40.649 189.038 39.1614L191.675 34.7438L192.329 33.6393L191.472 34.4507L187.663 38.057C185.026 35.9834 182.366 34.0676 179.774 32.3321L182.952 26.9903L178.332 31.3629C175.312 29.3794 172.472 27.6665 170.105 26.2916L174.838 21.2653L168.234 25.2322L168.212 25.2097C165.101 23.4742 163.095 22.4824 163.095 22.4824C166.905 18.9212 171.074 17.0054 174.185 15.9911C176.98 15.067 178.918 14.8867 178.918 14.8867C203.531 27.982 208.354 49.4168 209.165 59.92C210.383 59.582 211.645 59.2664 212.952 59.0185C212.952 59.0185 212.096 59.9426 210.766 61.6781C221.427 62.174 242.659 66.3663 256.498 90.1226Z" fill="#072351"/>
<path d="M169.541 90.4858L128.497 67.293L87.4531 90.4858C89.0534 94.3625 90.4508 98.5323 91.5553 102.995C96.1983 121.365 95.1164 138.359 94.8685 141.402L97.8888 139.824L128.497 147.848L159.105 139.824L162.125 141.402C161.877 138.359 160.773 121.365 165.416 102.995C166.543 98.5323 167.918 94.3625 169.541 90.4858Z" fill="#072351"/>
<path d="M190.438 152.424C181.557 152.424 176.914 149.494 172.835 146.902C169.206 144.603 166.073 142.597 159.469 142.597C152.865 142.597 149.732 144.603 146.081 146.902C142.001 149.494 137.38 152.424 128.5 152.424C119.62 152.424 114.977 149.494 110.897 146.902C107.268 144.603 104.113 142.597 97.5313 142.597C90.9273 142.597 87.7944 144.603 84.143 146.902C80.0635 149.494 75.4429 152.424 66.5625 152.424C57.6821 152.424 53.039 149.494 48.9595 146.902C45.3307 144.603 42.1977 142.597 35.5938 142.597V134.73C44.4742 134.73 49.0947 137.683 53.1743 140.275C56.8256 142.574 59.9585 144.58 66.5625 144.58C73.1665 144.58 76.2994 142.574 79.9282 140.275C84.0078 137.683 88.6283 134.73 97.5313 134.73C106.412 134.73 111.032 137.683 115.112 140.275C118.763 142.574 121.896 144.58 128.5 144.58C135.104 144.58 138.237 142.574 141.866 140.275C145.945 137.683 150.588 134.73 159.469 134.73C168.349 134.73 172.97 137.683 177.049 140.275C180.701 142.574 183.834 144.58 190.438 144.58C197.042 144.58 200.174 142.574 203.803 140.275C207.905 137.683 212.526 134.73 221.406 134.73V142.597C214.802 142.597 211.669 144.603 208.018 146.902C203.939 149.494 199.318 152.424 190.438 152.424Z" fill="#3FA5F1"/>
<path d="M189.852 164.729V172.596C181.354 172.46 176.824 169.598 172.835 167.074C169.206 164.752 166.05 162.769 159.469 162.769C152.865 162.769 149.732 164.752 146.081 167.074C142.001 169.666 137.381 172.596 128.5 172.596C119.597 172.596 114.977 169.666 110.897 167.074C107.268 164.752 104.135 162.769 97.5312 162.769C90.9273 162.769 87.7718 164.752 84.143 167.074C80.1535 169.598 75.6457 172.46 67.1484 172.596V164.729C73.3467 164.617 76.412 162.656 79.9282 160.424C84.0077 157.832 88.6283 154.902 97.5312 154.902C106.412 154.902 111.032 157.832 115.112 160.424C118.763 162.746 121.896 164.729 128.5 164.729C135.082 164.729 138.237 162.746 141.866 160.424C145.945 157.832 150.588 154.902 159.469 154.902C168.349 154.902 172.97 157.832 177.049 160.424C180.588 162.656 183.653 164.617 189.852 164.729Z" fill="#3FA5F1"/>
<path d="M166.864 174.96V183.164C164.881 182.443 162.559 182.015 159.471 182.015C152.867 182.015 149.734 184.021 146.083 186.32C142.003 188.912 137.383 191.842 128.502 191.842C119.599 191.842 114.979 188.912 110.899 186.32C107.27 184.021 104.137 182.015 97.5109 182.015C94.4456 182.015 92.1241 182.443 90.1406 183.164V174.96C92.2368 174.441 94.671 174.148 97.5109 174.148C106.414 174.148 111.034 177.101 115.114 179.693C118.743 181.992 121.898 183.976 128.502 183.976C135.084 183.976 138.239 181.992 141.868 179.693C145.948 177.101 150.591 174.148 159.471 174.148C162.334 174.148 164.745 174.441 166.864 174.96Z" fill="#3FA5F1"/>
<path d="M116.664 105.947H125.837V96.7734H116.664V105.947Z" fill="white"/>
<path d="M116.664 119.83H125.837V110.656H116.664V119.83Z" fill="white"/>
<path d="M131.156 96.7734V105.947H140.307V96.7734H131.156Z" fill="white"/>
<path d="M131.156 119.83H140.307V110.656H131.156V119.83Z" fill="white"/>
</svg>
