<svg width="244" height="257" viewBox="0 0 244 257" fill="none" xmlns="http://www.w3.org/2000/svg">
<path d="M134.325 20.8887C129.862 27.7887 123.991 32.8341 118.354 38.6651C107.972 49.3877 101.096 63.4226 100.634 78.4861C100.205 92.3914 106.32 104.458 114.313 115.375C117.342 119.506 120.63 123.603 124.137 127.345C126.347 124.697 129.474 121.676 129.846 118.104C130.923 107.568 124.971 103.454 116.994 98.3277C114.775 96.9023 112.223 95.2988 110.547 93.2417L110.725 93.2336C111.786 93.8815 112.863 94.6023 113.989 95.1287C119.569 97.7284 126.275 99.0647 130.543 103.778C130.883 97.3153 130.024 92.0027 128.834 85.7262C130.518 89.9375 131.62 93.7358 132.357 98.2305C134.73 94.084 137.694 90.6178 141.63 87.9048C139.775 89.816 138.05 91.7435 136.633 94.0111C131.927 101.559 133.482 105.228 135.369 113.278C135.456 113.175 135.542 113.067 135.629 112.954C137.321 110.751 138.771 108.281 140.139 105.859C146.375 94.7643 150.271 81.6202 148.546 68.8325C147.299 59.5353 142.018 50.643 135.288 44.2289C132.592 41.6535 129.636 39.4669 126.68 37.1993C141.654 43.9373 147.606 54.506 153.842 68.792C155.187 65.9656 156.377 63.0015 157.527 60.0941C158.661 57.2515 161.39 48.1 163.731 46.5127L163.779 46.5856C161.771 49.9303 160.718 56.3606 159.819 60.3208C159.123 63.4901 158.272 66.6216 157.268 69.7152C156.596 71.8452 155.551 74.129 155.284 76.3399C155.106 77.8382 155.438 79.5632 155.519 81.0776C155.627 83.1131 155.621 85.1512 155.503 87.1921C154.717 99.9393 149.647 113.27 142.439 123.782C155.656 116.882 170.55 108.629 177.328 94.7238C180.657 87.8724 182.495 80.5836 184.625 73.3191C186.545 66.7916 188.731 59.511 192.546 53.842C192.627 54.6113 191.226 57.4296 190.926 58.3043C190.289 60.2372 189.73 62.197 189.249 64.1839C187.16 72.7765 185.84 81.4258 184.528 90.1643C187.047 88.0424 189.387 85.7019 191.817 83.4829C194.287 81.2153 196.886 79.0368 199.454 76.8825L199.583 77.0202C196.036 80.9642 192.999 85.216 189.776 89.4192C187.144 92.8611 184.342 96.2463 181.872 99.8016C179.839 102.717 178.098 105.835 176.041 108.751C170.768 116.201 163.666 122.761 156.134 127.888C173.538 126.608 191.873 124.146 207.82 116.663C209.617 115.821 211.415 114.857 213.076 113.764C214.728 112.678 216.323 111.447 218.089 110.557C218.116 110.54 218.143 110.527 218.17 110.516C211.108 119.732 194.044 129.629 182.981 132.893C178.098 134.334 173.004 134.917 167.982 135.654C153.041 137.857 140.058 141.218 131.563 155.034C131.315 155.439 131.074 155.847 130.842 156.257C130.61 156.667 130.386 157.083 130.17 157.504C129.954 157.925 129.749 158.349 129.555 158.776C129.355 159.208 129.166 159.642 128.988 160.08C128.809 160.517 128.642 160.96 128.486 161.408C128.324 161.851 128.175 162.299 128.04 162.752C127.9 163.2 127.77 163.654 127.651 164.113C127.527 164.572 127.416 165.031 127.319 165.49C127.217 165.954 127.125 166.418 127.044 166.882C126.968 167.347 126.898 167.814 126.833 168.284C126.774 168.753 126.725 169.223 126.688 169.693C126.65 170.162 126.62 170.635 126.599 171.11C126.577 171.58 126.569 172.052 126.574 172.527C126.574 172.997 126.585 173.469 126.607 173.944C126.628 174.414 126.658 174.884 126.696 175.354C126.739 175.823 126.793 176.293 126.858 176.763C128.518 189.47 132.365 202.622 140.083 213.012C154.093 214.413 172.963 217.823 185.961 223.338C189.914 224.723 194.376 226.253 198.053 228.238C197.421 228.767 196.781 229.288 196.133 229.801C195.491 230.314 194.84 230.821 194.182 231.323C193.528 231.82 192.867 232.311 192.197 232.797C191.533 233.288 190.864 233.769 190.189 234.239C189.514 234.714 188.834 235.181 188.148 235.64C187.462 236.099 186.771 236.552 186.075 237C185.378 237.443 184.679 237.88 183.977 238.312C183.275 238.744 182.568 239.168 181.855 239.584C181.143 240 180.427 240.407 179.709 240.807C178.986 241.212 178.26 241.606 177.531 241.989C176.802 242.378 176.07 242.758 175.336 243.131C174.596 243.504 173.857 243.868 173.117 244.224C172.372 244.581 171.624 244.929 170.874 245.269C170.123 245.609 169.367 245.944 168.606 246.273C167.85 246.597 167.089 246.916 166.322 247.229C165.561 247.537 164.794 247.839 164.022 248.136C163.25 248.427 162.478 248.714 161.706 248.994C160.929 249.275 160.148 249.545 159.366 249.804C158.583 250.069 157.797 250.325 157.009 250.574C156.226 250.822 155.438 251.06 154.644 251.286C153.85 251.518 153.057 251.743 152.263 251.958C151.464 252.174 150.665 252.38 149.866 252.574C149.067 252.774 148.265 252.965 147.461 253.149C146.651 253.327 145.844 253.5 145.039 253.667C144.229 253.835 143.419 253.991 142.61 254.137C141.794 254.288 140.982 254.429 140.172 254.558C139.357 254.693 138.541 254.817 137.726 254.931C136.905 255.044 136.087 255.152 135.272 255.255C134.451 255.352 133.631 255.441 132.81 255.522C131.99 255.603 131.166 255.676 130.34 255.741C129.519 255.805 128.699 255.862 127.878 255.911C127.052 255.959 126.226 256 125.4 256.032C124.574 256.059 123.745 256.078 122.914 256.089C122.088 256.1 121.259 256.102 120.427 256.097C119.601 256.091 118.773 256.075 117.941 256.048C117.115 256.027 116.289 255.994 115.463 255.951C114.631 255.908 113.803 255.857 112.977 255.797C112.151 255.738 111.325 255.67 110.498 255.595C109.672 255.519 108.849 255.433 108.028 255.336C107.202 255.244 106.379 255.141 105.558 255.028C104.738 254.92 103.917 254.801 103.096 254.672C102.281 254.542 101.463 254.404 100.642 254.258C99.8272 254.113 99.0146 253.959 98.2048 253.797C97.3895 253.629 96.577 253.457 95.7671 253.279C94.9626 253.1 94.1582 252.911 93.3537 252.712C92.5438 252.517 91.7394 252.312 90.9403 252.096C90.1413 251.88 89.3422 251.656 88.5431 251.424C87.7495 251.192 86.9558 250.954 86.1621 250.711C85.3739 250.463 84.5856 250.206 83.7973 249.942C83.0145 249.677 82.2343 249.402 81.4568 249.116C80.674 248.835 79.8965 248.546 79.1244 248.249C78.3524 247.952 77.5803 247.647 76.8082 247.334C76.0416 247.021 75.2803 246.7 74.5244 246.37C73.7632 246.041 73.0046 245.704 72.2487 245.358C71.4982 245.013 70.7505 244.656 70.0054 244.289C69.2549 243.927 68.5125 243.56 67.7783 243.188C67.0386 242.81 66.3043 242.424 65.5754 242.03C64.8466 241.635 64.1204 241.233 63.3969 240.823C62.6788 240.418 61.9635 240.002 61.2508 239.576C60.5381 239.155 59.8281 238.725 59.1208 238.288C58.419 237.851 57.7198 237.405 57.0233 236.952C56.3322 236.498 55.6438 236.037 54.9582 235.567C54.2725 235.097 53.5949 234.622 52.9254 234.142C52.2505 233.661 51.581 233.172 50.9169 232.676C48.131 230.594 45.3451 228.529 42.794 226.164C43.2233 225.97 46.7624 225.921 47.6208 225.824C49.3431 225.646 51.0519 225.39 52.7472 225.055C54.4425 224.715 56.1163 224.294 57.7684 223.791C59.218 223.346 60.6758 222.982 62.093 222.439C63.8828 221.751 65.6159 220.908 67.4057 220.204C67.179 218.09 66.8469 215.984 66.6931 213.871C66.5797 213.134 66.5797 212.381 66.5473 211.635C67.1547 211.708 67.7783 211.741 68.3614 211.903C68.985 211.676 69.5357 211.482 70.2079 211.425C70.6776 211.392 71.1149 211.231 71.5684 211.101C71.4631 214.081 72.3297 215.288 73.6417 217.839C84.2428 215.102 95.0139 213.725 105.882 212.64C104.562 207.732 104.133 202.581 103.841 197.528C102.756 178.974 105.672 168.113 111.908 150.807C111.017 149.341 109.891 147.988 108.725 146.733C102.27 139.809 92.7625 135.346 83.2709 135.063C82.893 135.052 82.5178 135.05 82.1452 135.055C81.7673 135.06 81.3893 135.077 81.0114 135.104C80.6389 135.131 80.2636 135.166 79.8857 135.209C79.5132 135.252 79.1406 135.306 78.7681 135.371C78.3956 135.436 78.0257 135.508 77.6586 135.589C77.2914 135.67 76.9243 135.759 76.5572 135.857C76.1954 135.954 75.8364 136.062 75.4801 136.181C75.1183 136.299 74.762 136.424 74.411 136.553C74.0601 136.688 73.7119 136.831 73.3663 136.982C73.0208 137.139 72.6806 137.301 72.3459 137.468C72.0058 137.636 71.671 137.811 71.3417 137.995C71.0123 138.178 70.6884 138.373 70.3698 138.578C70.0513 138.778 69.7381 138.985 69.4304 139.201C69.1226 139.417 68.8203 139.641 68.5233 139.874C68.2264 140.106 67.9348 140.343 67.6487 140.586C67.3625 140.835 67.0818 141.088 66.8064 141.348C68.9769 137.873 72.8804 135.023 76.3547 132.965C64.8223 133.071 52.5529 131.848 42.0571 126.697C41.7979 126.573 41.5387 126.446 41.2796 126.317C41.0204 126.182 40.764 126.047 40.5102 125.912C40.2565 125.771 40.0027 125.628 39.749 125.482C39.5006 125.342 39.2522 125.196 39.0039 125.045C38.7555 124.894 38.5099 124.74 38.2669 124.583C38.0239 124.427 37.781 124.268 37.538 124.106C37.3005 123.944 37.0629 123.776 36.8253 123.603C36.5932 123.436 36.361 123.266 36.1289 123.093C35.8967 122.915 35.6672 122.737 35.4405 122.559C35.2137 122.381 34.9897 122.197 34.7683 122.008C34.5415 121.824 34.3202 121.636 34.1042 121.441C33.8883 121.252 33.6723 121.06 33.4563 120.866C33.2458 120.666 33.0352 120.467 32.8246 120.267C32.6195 120.062 32.4143 119.857 32.2091 119.651C32.0094 119.446 31.8096 119.238 31.6098 119.028C31.4101 118.812 31.2157 118.596 31.0267 118.38C30.8324 118.164 30.6407 117.945 30.4517 117.724C30.2682 117.502 30.0846 117.278 29.901 117.052C29.7229 116.825 29.5447 116.595 29.3665 116.363C29.1938 116.137 29.021 115.904 28.8482 115.667C28.6808 115.435 28.5135 115.2 28.3461 114.962C28.1841 114.719 28.0249 114.476 27.8683 114.233C27.7063 113.99 27.5497 113.747 27.3986 113.504C27.2474 113.256 27.0989 113.005 26.9531 112.751C26.8074 112.503 26.6643 112.252 26.5239 111.998C26.3835 111.744 26.2486 111.488 26.119 111.229C25.984 110.975 25.8544 110.716 25.7302 110.451C25.6007 110.192 25.4765 109.93 25.3577 109.666C25.2389 109.401 25.1228 109.137 25.0095 108.872C24.8961 108.602 24.7854 108.335 24.6774 108.07C24.5694 107.8 24.4669 107.528 24.3697 107.252C24.2671 106.982 24.1699 106.71 24.0781 106.434C26.0542 109.326 27.4067 112.403 29.8038 115.035C37.457 123.425 49.111 127.021 60.2304 127.167C65.867 127.248 71.4712 126.584 77.0917 126.373C81.1815 126.211 85.1984 126.365 89.2801 126.568C80.1773 122.696 72.2325 116.784 67.179 108.103C68.8311 109.909 70.4832 111.796 72.3459 113.391C78.1526 118.38 85.085 121.992 92.1389 124.883C96.2287 126.568 100.408 128.05 104.384 129.993C107.372 131.459 110.118 133.241 112.879 135.095C111.171 132.496 109.292 130.009 107.599 127.402C104.935 123.304 102.546 118.85 100.448 114.436C99.2009 111.82 98.0752 109.212 97.1439 106.475C96.3988 104.296 95.8157 102.037 94.9329 99.915C91.491 91.6058 82.7445 83.3776 75.3667 78.478C71.1878 78.6075 66.7983 79.8547 62.9758 81.5554C61.5342 82.1952 60.1656 82.9889 58.724 83.6206C61.1941 80.2678 66.9117 77.1498 70.629 75.3195C64.8061 72.5417 58.5944 70.2983 52.1479 69.6667C47.8719 69.2374 43.4662 69.3508 39.1658 69.2779C43.7821 67.1399 47.0782 66.7916 52.0669 66.7188C51.2814 61.973 49.775 56.2229 50.3257 51.4367C50.8117 56.5712 52.0589 61.7705 53.387 66.7431C57.2096 66.9374 60.9835 67.2047 64.7494 67.9578C65.4081 68.0982 66.0641 68.2494 66.7174 68.4114C67.376 68.5733 68.0293 68.7488 68.6772 68.9378C69.3251 69.1267 69.9703 69.3265 70.6128 69.5371C71.2553 69.7476 71.8924 69.969 72.5241 70.2012C73.1611 70.4333 73.7901 70.679 74.411 70.9381C75.0373 71.1919 75.6582 71.4591 76.2737 71.7399C76.8892 72.0207 77.4993 72.3122 78.104 72.6146C78.7033 72.9169 79.2999 73.23 79.8938 73.554C80.4877 73.8779 81.0735 74.2127 81.6512 74.5582C82.2343 74.9038 82.8093 75.2601 83.3762 75.6272C83.9431 75.9944 84.5019 76.3723 85.0526 76.761C85.6087 77.1444 86.1567 77.5412 86.6966 77.9515C87.2311 78.3565 87.7603 78.7722 88.284 79.1987C88.8077 79.6307 89.3233 80.068 89.8308 80.5107C90.3383 80.9588 90.8377 81.4151 91.3291 81.8794C91.8204 82.3437 92.3009 82.8161 92.7706 83.2966C92.9407 79.4984 93.2241 75.8135 94.0259 72.0962C94.5928 69.448 95.4027 66.8645 96.0181 64.2244C98.0185 55.6399 99.0794 46.7881 97.6298 38.0173C97.1844 35.3366 96.4474 32.7046 95.759 30.0806C100.011 37.2884 101.055 46.0187 101.776 54.2064C105.388 48.7722 109.365 43.8645 114.232 39.4912C117.309 36.7296 120.597 34.2433 123.586 31.3683C126.785 28.2908 130.972 23.3507 134.325 20.8887Z" fill="#0A5257"/>
<path d="M68.364 211.904C68.9876 211.677 69.5383 211.482 70.2105 211.426C70.3238 213.604 71.0203 216.577 72.5591 218.188C71.3605 218.642 70.1457 219.071 68.9633 219.549C68.0724 217.289 67.7323 215.427 67.5703 213.029C67.7809 212.641 68.1048 212.268 68.364 211.904Z" fill="#FEFFFD"/>
<path d="M231.929 126.625C236.82 124.892 238.416 123.386 242.457 120.373C243.17 126.39 243.631 132.497 243.534 138.554C243.507 139.785 243.461 141.014 243.396 142.239C243.332 143.47 243.248 144.696 243.145 145.916C243.043 147.142 242.919 148.365 242.773 149.585C242.632 150.805 242.47 152.022 242.287 153.237C242.103 154.452 241.898 155.664 241.671 156.874C241.45 158.083 241.21 159.287 240.951 160.486C240.686 161.69 240.403 162.888 240.1 164.081C239.803 165.269 239.485 166.454 239.145 167.637C238.804 168.819 238.445 169.993 238.067 171.159C237.69 172.331 237.293 173.495 236.877 174.65C236.461 175.805 236.027 176.955 235.573 178.1C235.12 179.239 234.647 180.373 234.156 181.501C233.67 182.63 233.162 183.75 232.633 184.862C232.11 185.969 231.567 187.071 231.005 188.167C230.439 189.257 229.858 190.34 229.264 191.414C228.665 192.489 228.049 193.552 227.418 194.605C224.324 199.707 220.712 204.542 217.011 209.223C212.079 215.467 204.385 223.477 198.052 228.239C194.375 226.254 189.913 224.724 185.961 223.339C189.597 220.407 193.136 217.556 196.513 214.325C198.643 212.292 200.611 210.098 202.595 207.927C208.135 201.861 213.334 195.188 217.497 188.102C225.215 174.974 229.888 159.4 231.508 144.304C232.139 138.425 232.066 132.529 231.929 126.625Z" fill="url(#paint0_linear_40_23784)"/>
<path d="M1.56701 117.48C2.40926 117.942 3.18673 118.541 3.98849 119.06C6.45857 120.639 8.78287 121.465 11.6984 121.821C11.5283 124.583 11.1963 127.328 11.091 130.09C10.8804 135.678 11.253 141.493 11.9494 147.032C12.3868 150.571 13.1804 154.03 13.9903 157.496C14.2332 158.543 14.4924 159.588 14.7678 160.63C15.0431 161.672 15.332 162.709 15.6343 163.74C15.9367 164.776 16.2552 165.805 16.5899 166.825C16.9247 167.851 17.2729 168.869 17.6347 169.879C17.9964 170.894 18.3743 171.903 18.7685 172.907C19.1626 173.912 19.5702 174.908 19.9914 175.896C20.4125 176.889 20.8471 177.875 21.2952 178.852C21.7434 179.829 22.205 180.801 22.6801 181.767C23.1606 182.734 23.6519 183.692 24.1541 184.642C24.6616 185.593 25.1799 186.537 25.709 187.477C26.2435 188.411 26.7888 189.337 27.3449 190.255C27.901 191.178 28.4733 192.09 29.0618 192.992C29.6449 193.899 30.2415 194.795 30.8516 195.681C31.4617 196.566 32.0853 197.444 32.7224 198.313C33.3595 199.182 34.0074 200.043 34.6661 200.896C35.3247 201.744 35.9969 202.583 36.6826 203.415C39.5333 206.865 42.5865 210.023 45.7612 213.174C47.9397 215.344 50.0858 217.596 52.4182 219.604C54.1351 221.078 55.9816 222.406 57.7714 223.791C56.1193 224.293 54.4456 224.714 52.7503 225.054C51.055 225.389 49.3462 225.646 47.6238 225.824C46.7654 225.921 43.2263 225.97 42.7971 226.164C41.3393 225.103 39.9302 223.508 38.6182 222.244C36.9175 220.619 35.2573 218.948 33.6375 217.231C32.0232 215.52 30.4521 213.768 28.9241 211.975C27.3962 210.183 25.9142 208.352 24.478 206.484C23.0418 204.616 21.657 202.713 20.3234 200.775C19.9347 200.208 19.5486 199.638 19.1653 199.066C18.7874 198.488 18.4148 197.911 18.0477 197.333C17.6806 196.75 17.3161 196.164 16.9544 195.575C16.598 194.987 16.2444 194.396 15.8935 193.802C15.5479 193.208 15.2078 192.611 14.873 192.012C14.5329 191.413 14.2009 190.811 13.8769 190.206C13.5476 189.601 13.2263 188.991 12.9132 188.376C12.6 187.766 12.2896 187.153 11.9818 186.537C11.6795 185.916 11.3825 185.296 11.091 184.675C10.7994 184.054 10.5133 183.428 10.2325 182.796C9.94638 182.17 9.66832 181.541 9.39837 180.909C9.12841 180.272 8.86386 179.635 8.6047 178.998C8.35095 178.36 8.09989 177.721 7.85153 177.078C7.60318 176.436 7.36022 175.793 7.12266 175.151C6.8905 174.503 6.66104 173.852 6.43428 173.199C6.21291 172.551 5.99695 171.898 5.78639 171.239C5.57042 170.586 5.36256 169.93 5.16279 169.271C4.96303 168.612 4.76866 167.954 4.57969 167.295C4.39072 166.631 4.20986 165.967 4.03709 165.303C3.85892 164.639 3.68884 163.972 3.52687 163.302C3.3595 162.633 3.20023 161.963 3.04905 161.294C2.89788 160.619 2.7521 159.947 2.61173 159.277C2.47135 158.603 2.33637 157.928 2.2068 157.253C2.07722 156.573 1.95574 155.895 1.84236 155.22C1.72898 154.54 1.6183 153.859 1.51032 153.179C1.40773 152.499 1.31055 151.819 1.21876 151.138C1.12698 150.453 1.0433 149.77 0.967708 149.089C0.886722 148.404 0.813833 147.718 0.749044 147.032C0.684255 146.347 0.624864 145.661 0.570874 144.975C0.516883 144.29 0.468292 143.604 0.4251 142.918C0.381907 142.233 0.346814 141.544 0.319818 140.853C0.287424 140.167 0.263126 139.482 0.246929 138.796C0.012069 131.564 0.295525 124.615 1.56701 117.48Z" fill="#1CA878"/>
<path d="M213.855 152.67C211.709 160.048 208.113 167.887 202.541 173.273C201.318 174.447 199.99 175.362 198.622 176.342C203.043 174.641 208.704 169.394 212.13 166.025C209.903 171.062 206.129 176.261 201.569 179.395C200.217 180.327 198.654 180.902 197.318 181.865C197.269 181.898 197.223 181.93 197.18 181.963C199.188 181.277 201.151 180.475 203.068 179.557C204.906 178.658 206.72 177.63 208.656 176.95C204.558 181.963 199.197 184.417 193.155 186.255C196.791 185.874 200.338 184.935 203.886 184.093C198.662 188.166 194.216 189.187 187.778 189.6C191.082 190.069 194.41 189.786 197.723 189.543C193.698 191.875 188.093 192.896 183.477 192.491C181.631 192.329 179.792 191.892 177.97 191.568C185.243 194.758 192.969 198.168 201.116 196.556C202.452 196.297 203.748 195.819 205.036 195.382C201.618 199.059 196.629 201.213 191.722 201.926C190.118 202.152 188.506 202.136 186.903 202.314C187.867 202.849 189.883 203.57 190.28 204.59C190.175 205.06 190.013 205.254 189.6 205.505C189.17 205.764 188.806 205.902 188.304 205.773C186.571 205.311 186.093 203.294 184.457 202.533C184.052 202.363 183.72 202.233 183.275 202.201L183.032 202.468C182.797 204.396 184.028 205.392 183.947 206.356C183.898 206.817 183.712 206.931 183.38 207.19C182.805 207.311 182.327 207.295 181.841 206.906C180.416 205.764 182.165 203.764 181.809 202.323C181.76 202.128 181.76 202.144 181.59 202.072C180.626 201.618 179.452 201.399 178.424 201.108C175.451 200.274 172.406 199.277 169.88 197.447C164.81 193.762 165.012 189.138 160.931 185.453C159.092 183.793 156.655 182.692 154.492 181.509C156.768 181.55 159.027 181.679 161.295 181.833C161.473 181.355 161.651 180.926 161.975 180.537C162.785 179.557 163.757 179.104 165.004 178.999C171.094 178.464 170.851 184.214 173.662 186.538C173.848 186.555 173.856 186.563 174.067 186.522C176.083 186.117 180.197 180.108 182.424 178.448C185.607 176.091 189.494 175.241 193.066 173.678C202.671 169.483 208.583 161.287 213.855 152.67Z" fill="#1CA878"/>
<path d="M49.6978 170.064C53.4717 176.875 63.2873 183.775 69.4989 188.651C72.0824 190.675 74.7468 192.587 76.7634 195.219C78.7151 192.603 80.6426 188.019 84.0197 187.128C85.1292 186.837 86.4331 187.031 87.4292 187.574C87.6884 187.906 87.988 188.23 88.2229 188.578C88.5307 188.975 88.6359 189.169 89.1542 189.234C90.7092 189.404 92.4828 189.048 94.0458 188.878C94.0026 188.91 93.9621 188.942 93.9243 188.975C91.8592 190.538 89.2109 191.267 87.3563 193.137C83.963 196.555 85.6475 202.742 78.8447 207.577C77.2169 208.743 75.419 209.578 73.5725 210.331C72.9489 210.582 72.131 210.76 71.5721 211.1C71.1186 211.23 70.6813 211.392 70.2116 211.424C69.5394 211.481 68.9887 211.675 68.3651 211.902C67.782 211.74 67.1584 211.708 66.551 211.635C65.1013 211.27 63.4735 211.214 61.9834 211.003C61.9294 211.068 61.8727 211.133 61.8133 211.197C60.7929 212.315 59.5619 212.93 58.0312 212.987C53.002 213.149 48.3696 208.889 44.9844 205.674C49.8354 206.371 56.7922 206.176 61.5056 204.84C63.1091 204.386 64.5668 203.682 66.0489 202.945C61.6594 201.965 58.6872 200.426 55.5936 197.114C58.7115 197.997 62.202 198.329 65.4253 198.207L63.3197 197.705C58.2985 196.466 54.0467 193.575 51.3661 189.121C52.8616 189.833 54.3977 190.454 55.9742 190.983C57.5453 191.507 59.1435 191.939 60.7686 192.279C54.4355 189.501 53.0506 188.878 49.0823 183.184C50.9288 184.399 52.7671 185.525 54.7999 186.407C51.1393 183.443 49.7788 181.232 48.3372 176.794C48.9365 177.572 49.5763 178.293 50.289 178.965C51.3094 179.937 56.4115 184.286 57.4724 184.626C57.0918 183.784 55.8041 182.812 55.1238 182.115C51.7872 178.681 49.803 174.883 49.6978 170.064Z" fill="#1CA878"/>
<path d="M88.2257 188.578C87.675 188.87 86.8571 189.396 86.2335 189.429C85.7637 189.461 85.6989 189.324 85.375 189.016L85.4317 188.854C85.7313 189 85.7799 189.032 86.1282 189C86.525 188.457 86.9137 188.012 87.4321 187.574C87.6912 187.906 87.9909 188.23 88.2257 188.578Z" fill="#068865"/>
<path d="M11.1733 79.0039C13.5138 81.4902 15.5871 83.037 18.7941 84.2032C16.8018 90.8117 14.5909 97.6145 13.5057 104.442C11.9778 104.636 10.4579 104.884 8.94619 105.187C6.97013 105.64 5.08315 106.353 3.17188 107.025C3.33385 104.798 3.97364 102.522 4.47575 100.352C6.14407 93.1522 8.07154 85.7339 11.1733 79.0039Z" fill="#1CA878"/>
<path d="M188.076 25.0117C188.667 25.3276 189.218 25.7406 189.736 26.1698C193.235 29.0934 195.94 33.572 196.336 38.1639C196.733 42.7072 194.336 45.5336 191.574 48.7893C191.931 44.3755 191.404 40.4153 190.603 36.0906C190.489 35.5156 190.327 34.973 190.133 34.4142L190.052 34.4628C190.206 36.7709 190.497 39.0628 190.4 41.3871C190.295 43.8896 189.841 46.3678 189.671 48.8621C187.938 47.4611 186.432 45.8414 185.468 43.8086C182.488 37.5403 185.97 30.948 188.076 25.0117Z" fill="#0A5257"/>
<path d="M212.066 34.2426C212.592 34.1535 213.167 34.1616 213.701 34.1211C213.531 37.7088 212.398 41.1021 210.26 43.9933C206.299 49.3384 203.295 49.2493 197.188 50.124C199.626 46.6659 203.076 43.5236 206.154 40.6324L206.623 40.2598V40.1222C203.384 41.1588 197.804 46.2204 195.836 48.9254C196.047 45.9127 196.516 42.8352 198.355 40.3489C201.408 36.2105 207.287 34.9472 212.066 34.2426Z" fill="#0A5257"/>
<path d="M163.853 59.9961C165.781 60.2552 167.781 60.9355 169.587 61.6482C172.859 62.944 176.09 64.8958 177.524 68.2648C178.844 71.3747 178.366 74.4683 177.127 77.4891C175.029 73.5613 172.373 69.9412 169.547 66.5074C169.061 65.9729 168.494 65.487 167.976 64.9929C170.721 69.0989 173.207 73.2697 175.677 77.5458C172.381 76.9546 169.36 76.1771 167.085 73.5208C164.153 70.087 163.521 64.3208 163.853 59.9961Z" fill="#1EB87A"/>
<path d="M20.6073 63.3166C21.239 61.867 23.8144 55.9388 24.9563 55.4043C25.1992 55.9226 25.0454 56.4814 24.9725 57.024L25.1992 57.5261C25.0535 63.4219 36.3834 69.8765 30.2285 75.6589C29.9153 75.9505 29.5914 76.2339 29.2566 76.5093C28.2119 72.8325 26.5598 68.8966 24.8267 65.5033C25.5799 69.3825 27.0862 73.1079 27.7584 76.9628C27.4291 76.79 27.1024 76.6092 26.7785 76.4202C26.4599 76.2258 26.1441 76.0234 25.8309 75.8128C25.5232 75.6023 25.2208 75.3836 24.9239 75.1568C24.6269 74.9247 24.3354 74.6871 24.0492 74.4441C23.7685 74.2012 23.4931 73.9474 23.2232 73.6829C22.9532 73.4237 22.6914 73.1565 22.4376 72.8811C22.1838 72.6058 21.9382 72.3223 21.7006 72.0308C21.4685 71.7392 21.2417 71.4423 21.0203 71.1399C20.17 71.2452 19.4411 71.2695 18.5908 71.1642L16.9062 70.8808C18.121 68.3459 19.4492 65.8758 20.6073 63.3166Z" fill="#1CA878"/>
<path d="M20.6073 63.3184C20.4696 65.5941 19.9756 67.9427 20.5911 70.1941C20.7288 70.5099 20.8503 70.842 21.0203 71.1416C20.17 71.2469 19.4411 71.2712 18.5908 71.1659L16.9062 70.8825C18.121 68.3476 19.4492 65.8775 20.6073 63.3184Z" fill="#1EB87A"/>
<path d="M18.5938 71.1652C19.1688 70.4849 19.7438 70.3391 20.5941 70.1934C20.7318 70.5092 20.8533 70.8413 21.0233 71.1409C20.173 71.2462 19.4441 71.2705 18.5938 71.1652Z" fill="#51D07C"/>
<path d="M112.256 9.4375C112.418 9.47799 112.305 9.4375 112.532 9.64806C112.718 12.5636 111.552 16.4752 110.41 19.1154C109.211 21.877 107.154 24.3309 104.271 25.4161C102.384 26.1207 100.675 25.9425 98.8936 25.1083C101.825 22.3386 104.376 19.1315 106.887 15.9812C107.057 15.7706 107.284 15.5682 107.324 15.2928C106.134 16.0136 99.0312 22.614 97.9298 23.9016C97.6788 21.2615 97.5168 18.7104 98.9988 16.3537C101.623 12.2153 107.745 10.4336 112.256 9.4375Z" fill="#1CA878"/>
<path d="M214.427 123.66C214.929 123.66 215.44 123.66 215.942 123.701C220.023 124.065 224.915 127.977 227.434 130.989C224.389 132.787 220.299 134.01 216.776 134.269C213.374 134.512 210.508 133.654 207.916 131.386C207.252 130.811 205.835 129.386 205.786 128.536L206.223 128.576C209.117 128.76 212.006 129.032 214.889 129.394C217.618 129.718 220.801 130.487 223.514 130.155C222.332 129.613 220.428 129.548 219.1 129.313C214.492 128.495 210.111 127.612 205.43 127.272C208.183 125.021 210.88 123.895 214.427 123.66Z" fill="#1EB87A"/>
<path d="M74.5391 14.6934C78.2563 15.155 85.0916 16.6694 88.2419 18.6617C91.1898 20.5244 92.3803 23.3751 93.1011 26.6712C91.5624 25.7399 83.4313 20.6377 82.2489 20.6863L82.6134 21.0832C85.8204 23.4156 88.8979 25.8695 92.0564 28.2504C89.3757 29.1494 86.193 29.3681 83.6257 28.048C78.888 25.6184 76.094 19.4715 74.5391 14.6934Z" fill="#1CA878"/>
<path d="M203.849 49.8006C208.636 49.6548 213.406 52.3274 217.018 55.2753C212.329 57.3404 208.401 60.8147 202.95 60.2478C199.905 59.9401 198.026 58.2556 196.204 55.988C195.969 55.6397 195.662 55.2996 195.686 54.8623C198.601 55.494 201.404 55.5587 204.36 55.7936C206.724 55.9799 209.073 56.2957 211.422 56.5954C206.546 54.5545 200.464 54.4492 195.289 53.3397C197.783 51.0964 200.529 50.1246 203.849 49.8006Z" fill="#0A5257"/>
<path d="M90.8201 1.03906C90.9119 1.07686 91.001 1.12275 91.0874 1.17674C93.5008 2.5778 96.4567 8.78134 97.218 11.462C98.6515 16.5317 97.2099 17.8113 94.8289 22.0793C93.8004 18.281 93.1363 14.4018 92.1159 10.6116C91.9944 10.1176 91.8486 9.68839 91.6624 9.21867C91.5328 10.5549 91.8405 12.1261 91.9863 13.4542C92.2941 16.1997 92.6585 18.9289 92.7395 21.6905C91.0388 20.0384 89.1032 18.686 87.3944 17.0581C86.3011 11.4539 88.1881 5.93063 90.8201 1.03906Z" fill="#046B5F"/>
<path d="M12.0759 108.112C16.2629 107.974 18.8301 109.602 21.9238 112.226C18.5062 112.242 14.9995 112.744 11.5981 113.092C9.74347 113.287 7.88079 113.343 6.02621 113.554C6.6822 114.032 19.8829 113.943 21.6646 113.862C21.7861 113.975 21.7132 113.886 21.8023 114.169C21.7051 114.372 21.6079 114.558 21.4784 114.744C19.9396 116.826 16.9998 118.138 14.4974 118.51C9.87305 119.199 4.21212 115.522 0.640625 112.89C3.79099 110.452 8.06706 108.403 12.0759 108.112Z" fill="#1CA878"/>
<path d="M32.8652 45.7605C34.7278 45.7362 36.5824 45.8738 38.3722 46.3921C41.312 47.2425 43.6606 48.9999 45.1508 51.6967C40.6398 50.7654 35.894 50.1742 31.3102 49.745C34.5983 50.7573 37.9187 51.5753 41.2553 52.3689C42.5511 52.6767 43.8388 53.006 45.1184 53.357C43.5634 54.4665 41.9113 55.5355 40.1215 56.2401C38.1131 57.0256 36.1694 57.0256 34.1852 56.1429C30.1521 54.3369 27.1718 50.0203 25.625 46.0277C28.0303 45.8738 30.4518 45.8333 32.8652 45.7605Z" fill="#1EB87A"/>
<path d="M204.393 131.565C205.996 131.452 207.519 131.768 208.903 132.61C213.779 135.558 214.451 142.037 215.698 147.05C211.527 146.135 207.154 145.892 203.866 142.782C201.955 140.976 201.307 138.927 201.242 136.376C201.347 135.08 201.663 134.035 202.19 132.869C203.502 134.691 205.154 136.319 206.668 137.971C208.952 140.458 211.236 143 213.674 145.333C211.657 141.964 208.118 138.473 205.518 135.436C204.644 134.408 203.502 133.29 202.902 132.092C203.251 131.76 203.923 131.679 204.393 131.565Z" fill="#1EB87A"/>
<path d="M235.788 98.7168C235.78 98.7897 235.788 98.8626 235.78 98.9355C235.326 102.896 231.892 109.869 228.612 112.169C226.288 113.796 223.348 113.659 220.692 113.246C223.923 109.682 227.454 106.378 231.018 103.155L231.309 102.839C230.135 103.114 224.911 107.552 223.786 108.621C222.595 109.739 221.477 110.954 220.352 112.128C220.085 109.472 220.012 106.961 221.607 104.637C224.49 100.426 231.155 99.6319 235.788 98.7168Z" fill="#1CA878"/>
<path d="M119.048 0.0996094C120.344 0.62602 121.647 1.13623 122.927 1.70314C125.94 3.04751 129.527 5.13695 130.71 8.41689C131.73 11.2433 130.896 13.9644 129.665 16.5398C128.337 12.45 126.401 9.00809 123.721 5.64716C123.543 5.4204 123.494 5.36371 123.235 5.21794C123.632 6.42463 124.531 7.51794 125.106 8.65985C126.644 11.7373 127.47 15.074 127.867 18.4754C126.191 17.4711 124.36 16.5803 122.967 15.1792C119.194 11.381 119.032 5.13695 119.048 0.0996094Z" fill="#1EB87A"/>
<path d="M81.2242 30.3485C82.5119 30.2513 83.7834 30.2837 85.0225 30.6967C87.6707 31.5714 89.2824 33.7661 90.5052 36.139C86.8447 34.9323 82.7225 34.7541 78.908 35.1105C81.6373 35.4992 87.3873 36.3576 89.8007 37.6129L89.7683 37.9045C89.5982 38.0665 89.42 38.2203 89.2338 38.3742C87.3549 39.8967 85.1683 40.8605 82.7063 40.5689C79.151 40.164 73.7492 37.4024 71.5707 34.5193C71.3196 34.1872 71.1496 33.9686 71.2062 33.5393C72.7207 32.033 78.8999 30.64 81.2242 30.3485Z" fill="#1CA878"/>
<path d="M26.5097 82.7793C26.5259 82.7955 26.5421 82.8036 26.5502 82.8279C26.9956 83.6135 27.2142 84.804 27.4896 85.6786C28.4776 88.7561 29.7167 91.6392 29.1741 94.9515C28.6477 98.1667 26.704 99.7459 24.2582 101.552C24.323 98.5149 24.6794 95.3403 25.0681 92.3195C25.3273 90.311 25.6674 88.4321 25.6674 86.3913L25.6026 86.4966L25.7403 86.7557L25.5702 86.6909C25.4568 87.3469 25.303 87.9948 25.1572 88.6508C23.748 92.9269 22.9787 97.2272 22.3794 101.681C20.4114 99.4544 18.7269 96.7737 18.5811 93.7286C18.411 90.2381 20.2737 87.8976 22.4684 85.468C22.3956 85.0793 22.4199 85.2656 22.3875 84.9173C23.829 84.9659 25.3678 83.573 26.5097 82.7793Z" fill="#1CA878"/>
<path d="M222.311 71.9659C225.186 71.7959 230.547 74.104 233.09 75.6184C230.344 78.5582 225.971 82.6318 221.703 82.8667C220.14 82.9557 216.099 82.7695 215.038 81.4737C214.738 81.1093 214.763 80.9878 214.787 80.5424C215.354 80.0888 216.237 79.8864 216.925 79.6353C219.022 79.036 221.096 78.4772 223.25 78.0642C224.878 77.7564 227.477 77.6188 228.943 77.0114C228.206 76.8494 227.307 77.068 226.546 77.1247C222.4 77.4487 218.472 78.1047 214.406 78.9631C214.916 77.9427 215.483 76.9628 216.156 76.0395C217.751 73.8691 219.573 72.379 222.311 71.9659Z" fill="#1EB87A"/>
<path d="M116.031 67.9258C117.457 68.2497 118.777 68.8733 120.024 69.6184C123.935 71.9508 127.523 75.3765 128.584 79.9603C129.094 82.1712 128.625 83.8072 127.483 85.7022C125.912 82.2441 124.349 79.1262 122.089 76.0487C121.765 75.6114 121.384 75.2226 121.02 74.8258C123.118 78.7374 124.826 82.479 126.171 86.7146L125.96 86.6498C124.438 86.1801 123.126 85.4512 121.927 84.4065C121.662 84.1797 121.411 83.9394 121.174 83.6857C120.936 83.4373 120.712 83.1755 120.502 82.9001C120.286 82.6302 120.086 82.3467 119.902 82.0498C119.713 81.7582 119.541 81.4586 119.384 81.1508C117.789 78.041 116.25 71.4082 116.031 67.9258Z" fill="#1CA878"/>
<path d="M172.94 47.3551C177.84 47.0149 181.322 49.5741 185.866 50.716C183.217 53.3076 179.703 56.628 175.904 57.2273C172.722 57.7375 170.171 56.6523 167.644 54.822C166.81 54.0931 166.089 53.2509 165.344 52.441C169.928 52.854 174.835 52.6192 179.403 52.0199C177.459 51.7688 175.508 51.5016 173.556 51.4044C170.883 51.2748 168.186 51.3072 165.522 51.0157C167.871 49.1611 169.976 47.9058 172.94 47.3551Z" fill="#1EB87A"/>
<path d="M42.464 73.7479C44.9179 73.4807 46.9102 74.08 48.9591 75.4C44.4725 77.1898 40.4879 79.3764 36.3577 81.8546C38.0422 81.4173 39.7024 80.4455 41.3059 79.749C43.9623 78.6071 46.6996 77.5867 49.3883 76.5176L48.6757 77.9592C47.9792 79.5222 47.1936 80.9557 45.9383 82.1462C42.213 85.6772 36.0337 84.8268 31.3203 84.7296C32.1059 82.8103 33.0453 80.9638 34.2439 79.2631C36.3981 76.2099 38.7467 74.4039 42.464 73.7479Z" fill="#1EB87A"/>
<path d="M44.5456 30.2012C47.5016 32.5741 51.9558 38.2269 52.6604 42.0495C53.1139 44.5357 51.891 46.4875 50.571 48.4636C48.9269 44.8435 47.8336 41.0371 46.3354 37.3684L46.1167 36.9473C45.8495 37.8463 47.9389 47.6051 48.3114 49.2572C45.8009 48.0667 43.4037 46.941 42.3914 44.1227C40.9012 39.9843 42.7315 33.9832 44.5456 30.2012Z" fill="#1CA878"/>
<path d="M230.131 82.082L230.39 82.1549C232.35 84.293 235.654 93.4201 236.699 96.4976C234.374 96.6272 232.09 96.7891 229.79 97.1455L227.061 97.8095C226.13 93.7278 224.818 89.8 223.781 85.7507C226.016 84.876 228.187 83.4831 230.131 82.082Z" fill="#1CA878"/>
<path d="M180.719 140.781C182.687 140.968 184.315 141.696 185.724 143.106C189.523 146.88 189.668 152.767 189.668 157.772C189.425 157.715 189.191 157.651 188.948 157.57C184.898 156.169 180.42 152.913 178.557 148.977C178.422 148.599 178.314 148.216 178.233 147.827C178.152 147.438 178.101 147.047 178.079 146.653C177.95 144.725 178.314 142.968 179.618 141.502C180.687 145.859 182.971 150.743 186 154.063C184.688 152.063 180.185 143.073 180.339 141.097L180.719 140.781Z" fill="#1EB87A"/>
<path d="M62.5578 141.776C63.5053 141.711 64.3881 141.776 65.3356 141.865C62.4201 145.072 58.0792 150.369 56.0789 154.135C59.4587 150.242 62.9465 146.449 66.5423 142.756L66.5747 146.465C66.518 147.656 66.3074 148.782 65.7648 149.851C63.5296 154.272 57.9092 155.471 53.625 156.953C53.8599 153.033 54.0461 148.676 56.4028 145.364C57.9254 143.226 60.0553 142.214 62.5578 141.776Z" fill="#1CA878"/>
<path d="M228.659 114.589C232.911 113.99 237.463 116.217 241.01 118.315C238.677 120.963 233.259 123.911 229.655 124.081C227.234 124.194 225.533 123.239 223.824 121.635C223.047 120.785 222.464 119.87 221.938 118.849C226.408 119.011 230.797 119.4 235.276 119.23C233.842 118.906 232.369 118.817 230.919 118.631C227.914 118.258 224.974 117.902 221.946 117.764C222.189 117.532 222.432 117.302 222.674 117.076C224.521 115.302 226.205 114.889 228.659 114.589Z" fill="#1EB87A"/>
<path d="M44.1481 134.157C44.5126 134.125 44.8851 134.141 45.2576 134.141L45.3872 134.278C42.4717 138.903 38.5925 142.928 35.8065 147.609C37.8231 145.811 39.5562 143.608 41.4108 141.648C43.4192 139.526 45.8245 137.558 47.4362 135.113C47.5738 135.841 47.6386 136.578 47.7196 137.315C47.6143 139.551 47.3957 141.778 46.0999 143.689C43.565 147.414 38.7301 147.981 34.6484 148.767C34.8185 145.22 34.9724 141.268 36.9727 138.19C38.6492 135.615 41.2893 134.724 44.1481 134.157Z" fill="#1CA878"/>
<path d="M64.251 37.791C64.5912 38.1312 64.6155 39.0382 64.6479 39.516C64.907 42.9579 64.1296 48.0115 61.6919 50.6516C59.9912 52.49 57.432 52.7087 55.0996 52.7411C57.2457 50.1252 59.651 46.327 60.9873 43.209L60.8739 43.0227C58.4281 45.6872 56.7031 49.0967 54.4841 51.6721L54.2412 51.5911C53.9901 51.2347 53.8119 50.927 53.6904 50.5058C53.0992 48.5703 53.6419 46.3189 54.6299 44.6101C56.6059 41.16 60.5014 38.8033 64.251 37.791Z" fill="#1CA878"/>
<path d="M156.249 12.864C156.662 12.8154 156.945 12.8073 157.358 12.8964C157.383 12.9935 157.423 13.1393 157.439 13.2446C157.877 16.1763 156.888 20.42 154.961 22.72C152.604 25.5383 149.3 26.3077 145.81 26.6721C148.353 23.5541 151.033 20.1284 154.103 17.5369C154.337 17.3425 154.467 17.3182 154.524 17.0024C151.778 18.2414 146.935 23.376 145.008 25.838C145.251 23.0034 145.785 19.7073 147.559 17.3911C149.656 14.67 152.92 13.2851 156.249 12.864Z" fill="#1CA878"/>
<path d="M219.229 58.6289C219.739 59.5198 219.918 61.0342 220.072 62.0708C220.566 65.4236 220.404 69.1166 218.274 71.9187C217.294 73.2145 215.48 74.3726 213.819 74.5184C213.52 74.5508 213.447 74.567 213.204 74.3726C213.309 72.5747 215.876 66.3955 216.67 64.387C216.962 63.6339 217.585 62.5243 217.593 61.7388L217.221 62.1518C214.937 65.78 213.139 69.7969 211.706 73.83C211.471 73.4413 211.26 73.0363 211.05 72.6233C210.062 70.6634 209.665 68.7846 210.41 66.6546C211.77 62.7511 215.682 60.2891 219.229 58.6289Z" fill="#1CA878"/>
<path d="M140.369 70.2734C140.944 71.3263 140.928 74.5738 140.928 75.8615C140.936 79.1495 139.494 83.2798 137.097 85.596C136.133 86.5274 134.4 87.3858 133.031 87.2967C132.683 87.2724 132.813 87.321 132.586 87.0457C132.878 85.9119 136.23 80.1861 136.951 78.8256C137.259 78.2344 137.777 77.4893 137.907 76.8333C137.923 76.7631 137.937 76.6929 137.947 76.6228C135.412 79.271 133.129 83.2231 131.29 86.4059C130.74 84.8834 130.489 83.2474 130.699 81.6358C131.379 76.6066 136.603 73.0432 140.369 70.2734Z" fill="#1CA878"/>
<path d="M158.251 26.3477C158.299 26.372 158.356 26.3881 158.396 26.4205C159.846 27.5867 161.288 34.1709 161.255 36.1632C161.182 39.8966 159.004 42.1805 156.485 44.6019C157.19 42.3991 157.894 35.2966 157.53 33.1829L157.376 33.2315C156.785 36.5924 156.283 41.5974 155.311 44.6424C154.12 43.0551 153.1 40.8928 152.76 38.9248C151.845 33.7336 155.53 30.2026 158.251 26.3477Z" fill="#1EB87A"/>
<path d="M177.317 35.2228C177.446 35.1823 177.616 35.2228 177.746 35.2309C177.819 35.4334 177.827 35.4334 177.851 35.6844C178.062 37.952 176.499 42.1714 175.049 43.9612C172.919 46.5933 169.421 47.6542 166.181 48.0024C168.441 44.6658 171.389 41.7989 174.158 38.8996L174.191 38.8024C172.765 38.9805 166.213 45.5404 164.877 46.8848C164.837 44.2042 165.347 41.9608 166.967 39.7904C169.396 36.5591 173.551 35.7411 177.317 35.2228Z" fill="#1EB87A"/>
<path d="M141.844 33.1426C145.14 33.7986 149.618 35.0296 151.619 37.9694C153.328 40.4637 153.449 44.019 152.939 46.894C150.801 43.9866 148.898 40.9173 146.711 38.026L146.509 37.8803C146.881 39.1437 151.068 45.412 152.113 47.137C150.21 46.6673 148.371 46.0599 146.768 44.9099C142.937 42.1482 142.548 37.4429 141.844 33.1426Z" fill="#1CA878"/>
<path d="M136.833 8.14062C137.797 8.61034 138.712 9.20964 139.578 9.82514C141.935 11.4773 143.538 13.8259 143.968 16.6847C144.421 19.6488 143.433 22.0379 141.724 24.3784C141.303 21.7058 140.866 19.0495 140.267 16.4012C140.226 15.9477 140.105 15.5104 139.999 15.0649C139.603 15.5671 140.906 23.1393 140.574 24.6456L140.275 24.7995C139.513 24.6132 138.93 23.7467 138.493 23.1393C135.14 18.4664 135.942 13.4452 136.833 8.14062Z" fill="#1EB87A"/>
<path d="M198.742 73.9261C201.682 73.4969 204.857 73.8775 207.302 75.6916C209.789 77.5381 211.481 81.6198 211.992 84.5839C208.331 84.3571 203.869 83.5473 201.334 80.6075C200.394 79.5223 200.33 78.1455 199.584 77.0198L199.455 76.8821C199.657 76.0399 199.042 74.7603 198.742 73.9261Z" fill="#1EB87A"/>
<path d="M190.667 104.994C192.116 104.921 193.485 104.986 194.902 105.318C198.093 106.071 199.996 107.909 202.126 110.298C202.944 111.213 203.795 112.12 204.451 113.165C202.92 113.603 201.373 113.943 199.786 114.072C196.384 114.348 193.971 113.522 191.363 111.311C190.205 110.177 189.484 109.011 188.723 107.585C192.351 109.051 195.996 110.59 199.818 111.481C197.583 110.42 189.824 107.666 188.602 106.273C188.618 106.225 188.626 106.176 188.65 106.128C188.966 105.553 190.076 105.229 190.667 104.994Z" fill="url(#paint1_linear_40_23784)"/>
<path d="M63.2037 25.0762C63.3171 25.1167 63.4062 25.2057 63.5115 25.2786C64.0298 27.1899 63.4548 32.0491 62.6287 33.9523C61.6488 36.1875 59.3245 38.609 57.0164 39.4755C56.5953 39.6294 56.4252 39.6456 56.0203 39.4674C55.9555 39.3135 55.9069 39.2164 55.8988 39.0382C55.8421 37.5642 59.3407 32.0086 60.3692 30.648C60.5312 30.4375 60.6203 30.316 60.677 30.0487L60.4583 30.1459C58.1502 32.8913 56.4414 35.9445 54.2872 38.7871C53.6879 37.0783 53.2343 35.4748 53.7445 33.6607C54.9512 29.4332 59.6322 27.0036 63.2037 25.0762Z" fill="#1CA878"/>
<path d="M15.052 72.153C16.5665 71.8939 18.3239 72.1125 19.7816 72.5984C22.4218 73.465 24.2035 75.1333 25.4507 77.6034C23.1183 77.0689 20.713 76.834 18.3887 76.2833C17.7489 76.1375 16.6151 75.5058 16.0482 75.5463C15.8376 75.5544 15.6513 75.6597 15.4489 75.7245L15.627 75.7326L15.4975 75.5139L15.9024 75.4006L15.9996 75.9027C17.5977 76.4696 19.1904 77.05 20.7778 77.6439C21.9359 78.0893 23.1264 78.4375 24.3169 78.802C23.1669 79.8062 22.1707 80.7052 20.5672 80.8266C16.3073 81.1344 12.1203 76.0646 9.15625 73.546C11.0594 72.7685 13.0193 72.4041 15.052 72.153Z" fill="#1CA878"/>
<path d="M115.748 59.9887C118.275 59.7538 120.526 60.175 122.988 60.6771C121.644 63.212 119.684 65.8764 117.133 67.3018C114.088 68.9944 111.375 68.5085 108.192 67.6257C109.439 67.075 110.702 66.5486 111.958 66.006C114.447 64.9478 116.887 63.787 119.279 62.5236C117.894 62.7584 116.485 63.3334 115.149 63.7708L108.07 66.087C108.459 65.2123 108.934 64.3917 109.496 63.625C111.123 61.4384 113.067 60.3774 115.748 59.9887Z" fill="#1CA878"/>
<path d="M114.633 18.2168C115.41 18.6325 116.177 19.0672 116.933 19.5207C119.63 21.1809 121.824 23.4728 122.545 26.6394C123.104 29.1013 122.497 30.6725 121.193 32.7295C120.901 30.0165 120.342 27.9918 119.209 25.4975C118.86 24.8253 118.463 24.2179 118.026 23.5943C119.306 26.7122 120.018 29.7168 120.253 33.0778C119.638 32.7376 119.014 32.3732 118.463 31.9359C114.357 28.664 115.208 22.8411 114.633 18.2168Z" fill="#046B5F"/>
<path d="M217.442 95.1855C217.628 95.2422 217.652 95.226 217.798 95.3637C219.296 96.7729 220.495 101.365 220.519 103.389C220.56 105.665 217.83 107.852 216.324 109.334C216.267 105.73 216.551 102.142 216.996 98.5708C215.538 101.098 215.474 106.37 215.538 109.22C214.129 107.763 212.987 106.094 212.939 103.997C212.874 100.887 215.401 97.3398 217.442 95.1855Z" fill="#1EB87A"/>
<path d="M130.298 49.4452C133.076 49.1698 135.327 49.7853 137.927 50.6843C136.607 52.9114 135.327 54.9684 132.825 56.0213C130.322 57.0741 127.35 56.7015 124.921 55.673C126.225 55.1709 127.569 54.766 128.889 54.3205C130.97 53.4702 133.1 52.6198 135.084 51.5589C131.351 52.4903 127.618 53.6808 124.07 55.179C125.714 52.4822 127.188 50.5304 130.298 49.4452Z" fill="#1CA878"/>
<path d="M37.7171 94.043C40.5192 93.881 43.4914 93.5976 46.091 94.8852C48.2534 95.9461 49.2333 97.5335 50.0027 99.712C47.8484 98.7969 43.0783 96.5859 41.0132 96.1972L41.4829 96.5293C44.1312 97.8331 46.7146 99.1694 49.2414 100.7C47.816 101.073 46.4231 101.316 44.9491 101.129C42.4628 100.813 40.6731 99.4124 39.191 97.4849C38.6808 96.8127 37.1583 94.9743 37.2716 94.1402L37.7171 94.043Z" fill="#1CA878"/>
<path d="M183.51 134.659C184.392 134.619 185.275 134.554 186.15 134.667C190.296 135.234 193.171 138.587 195.609 141.689C192.127 142.336 188.32 142.053 185.186 140.36C184.781 140.09 184.403 139.785 184.052 139.445C183.412 138.83 182.376 137.826 182.352 136.91C182.627 136.838 187.438 139.032 188.093 139.275C188.903 139.567 189.689 139.753 190.539 139.858L190.79 139.891C189.154 139.267 183.542 136.959 182.57 135.752C182.408 135.55 182.465 135.453 182.481 135.21C182.846 134.772 182.983 134.797 183.51 134.659Z" fill="#068865"/>
<path d="M49.8747 120.592L49.575 120.584C49.4535 119.66 51.7292 115.668 52.4581 114.72C53.8997 112.833 55.9405 111.707 58.2972 111.424C58.5402 111.397 58.7804 111.378 59.018 111.367C59.2556 111.362 59.4958 111.362 59.7388 111.367C59.9763 111.378 60.2139 111.397 60.4514 111.424C60.6944 111.446 60.932 111.478 61.1641 111.521C61.4017 111.564 61.6365 111.616 61.8687 111.675C62.1009 111.734 62.3303 111.805 62.5571 111.886C62.7838 111.961 63.0079 112.045 63.2293 112.137C63.4506 112.228 63.6693 112.328 63.8853 112.436C64.5251 112.801 65.1648 113.157 65.7722 113.562C60.0627 115.303 54.6852 116.785 49.8747 120.592Z" fill="#1CA878"/>
<path d="M238.298 100.701C239.78 104.175 241.117 111.367 241.805 115.23L238.136 113.618C236.517 112.849 234.873 112.217 233.172 111.651C235.529 108.152 237.205 104.807 238.298 100.701Z" fill="#1CA878"/>
<path d="M34.085 129.96C36.0205 129.709 37.6403 130.244 39.2924 131.199C36.3364 131.969 32.5057 133.046 29.6874 134.155C30.5135 134.277 37.1058 132.479 38.9037 132.301L39.1304 132.276C39.1304 132.357 39.1466 132.438 39.1304 132.519C38.8955 133.75 36.96 135.281 35.8748 135.759C32.9107 137.071 29.4526 136.164 26.5938 135.046C26.6261 135.003 26.6585 134.957 26.6909 134.908C28.7156 132.187 30.6188 130.495 34.085 129.96Z" fill="#1CA878"/>
<path d="M163.091 96.125C163.747 96.1493 164.403 96.1736 165.059 96.2222C165.813 96.287 166.42 96.3356 166.938 96.9349C167.068 97.4694 166.914 97.8257 166.639 98.2792C165.31 100.417 162.614 102.847 160.103 103.373C158.791 103.649 157.382 103.697 156.232 102.928L156.224 102.661C157.244 101.786 158.702 101.211 159.901 100.604C160.921 100.11 163.229 99.3563 163.877 98.4817C161.982 98.6356 157.892 101.737 156.046 101.405L155.859 101.138C155.948 100.312 156.734 99.3887 157.269 98.7489C158.734 96.9834 160.897 96.3437 163.091 96.125Z" fill="#068865"/>
<path d="M82.2194 64.1928C84.3655 64.0066 86.3011 64.5168 88.2852 65.2699C86.9004 67.2136 85.5074 69.0601 83.3289 70.1615C81.1018 71.2872 78.9475 71.2548 76.6313 70.4612C77.7732 69.7971 78.907 69.2383 80.1218 68.7442C81.9359 68.0721 83.7824 67.3999 85.4912 66.5009C82.2841 67.2217 78.6236 68.1773 75.7891 69.8295C76.275 68.8333 76.8662 67.821 77.5222 66.9302C78.7856 65.2052 80.1704 64.5249 82.2194 64.1928Z" fill="#1CA878"/>
<path d="M55.1953 101.074C57.4143 101.017 59.8115 100.993 61.8848 101.892C64.5006 103.018 65.6668 104.888 66.6468 107.423C64.1443 106.403 61.9091 104.735 59.4066 103.714L59.3904 103.868C61.5203 105.496 63.8042 106.751 65.8612 108.525C63.9013 108.606 62.1358 108.557 60.3298 107.691C57.4143 106.306 56.24 103.925 55.1953 101.074Z" fill="#1CA878"/>
<path d="M49.875 120.591C52.993 120.016 55.8356 118.024 58.7916 116.89C61.0835 116.015 63.4402 115.643 65.7564 114.922C65.8698 115.181 65.724 115.4 65.6511 115.667C64.0638 118.38 62.0796 120.388 58.9616 121.239C56.5726 121.887 52.0697 121.652 49.875 120.591Z" fill="#1EB87A"/>
<path d="M179.25 107.463C181.218 107.819 183.445 108.945 184.87 110.354C186.984 112.444 187.583 115.157 187.583 118.015C185.567 117.173 183.291 115.991 181.744 114.42C179.809 112.452 179.266 110.127 179.25 107.463Z" fill="#046B5F"/>
<path d="M166.547 83.2571C166.847 83.2328 166.895 83.2409 167.195 83.3624C167.373 83.8645 167.357 84.2856 167.268 84.8039C166.79 87.7923 165.94 90.3596 163.348 92.1656C162.66 92.6434 161.923 93.1293 161.073 92.9755L160.927 92.6434C161.194 90.9022 163.51 88.2216 164.587 86.6747L164.531 86.6666C163.429 87.2011 160.854 91.3071 159.761 92.53C159.388 90.9751 159.283 89.6145 159.987 88.1163C161.267 85.3627 163.85 84.1884 166.547 83.2571Z" fill="#068865"/>
<path d="M172.581 136.27C172.783 136.294 172.97 136.334 173.14 136.44C174.533 137.249 175.181 139.363 175.521 140.837C176.177 143.696 175.432 146.53 173.893 148.96L173.69 149.106L173.367 149.017C172.208 147.956 171.496 145.988 171.156 144.49C170.491 141.542 170.977 138.821 172.581 136.27Z" fill="#046B5F"/>
<path d="M35.6146 98.2148L35.9547 98.231C36.0519 98.393 36.0762 98.4173 36.1329 98.6279C36.5783 100.248 35.9547 103.115 35.1286 104.483C33.8167 106.646 31.8163 107.536 29.492 108.144C31.2008 105.844 32.7396 103.463 34.2054 101.001L34.0272 100.839C32.1645 102.88 30.5367 105.277 29.0466 107.601C28.8117 107.447 28.7955 107.326 28.7307 107.067C28.3096 105.415 28.8522 103.001 29.7755 101.632C31.1441 99.6159 33.2903 98.6198 35.6146 98.2148Z" fill="#1CA878"/>
<path d="M24.9688 57.0246C27.9166 56.5711 32.0631 56.482 34.5575 58.3366C35.667 59.1545 36.3797 60.2397 37.0438 61.4383C34.4117 60.4665 31.4962 59.5109 28.7022 59.2031C29.9602 59.7322 31.2452 60.1911 32.5572 60.5799C33.6343 60.8957 35.0029 60.9686 35.9343 61.6084L35.9748 61.8999C35.1649 62.6693 33.367 62.7827 32.298 62.7665C30.3057 62.7341 28.7913 61.908 27.4469 60.4827C26.5966 59.5837 25.9244 58.5228 25.1955 57.5267L24.9688 57.0246Z" fill="#1CA878"/>
<path d="M206.072 96.935C207.198 96.8054 208.339 96.8702 209.457 97.0564C208.461 98.9677 206.882 101.405 205.1 102.661C203.164 104.029 201.099 103.884 198.888 103.543C200.055 102.418 201.294 101.697 202.727 100.952L206.039 98.9758C203.278 100.012 200.727 101.219 198.289 102.896C198.678 101.697 199.107 100.652 199.909 99.6642C201.504 97.68 203.691 97.186 206.072 96.935Z" fill="#1CA878"/>
<path d="M91.1714 42.6506C92.7507 42.5778 93.9169 42.8288 95.3017 43.6468C95.8443 43.9788 96.2493 44.2542 96.4193 44.9021C96.3707 45.064 96.395 45.2746 96.2736 45.3961C95.6986 45.9549 89.4464 45.3313 88.2964 46.0845C88.7338 46.3031 94.6133 46.2626 95.7148 46.3517L95.8605 46.4813C95.8443 46.5299 95.8362 46.5704 95.8119 46.6109C95.4475 47.2345 94.1193 47.8662 93.4552 48.0848C90.6936 49 87.3894 47.4612 84.9922 46.1978C85.0489 46.1169 85.0975 46.0359 85.1461 45.963C86.4742 44.0598 88.9767 43.0637 91.1714 42.6506Z" fill="#1CA878"/>
<path d="M106.375 30.9637C107.282 30.907 109.209 30.6559 109.971 31.2228C110.214 31.401 110.319 31.5144 110.351 31.814C110.489 33.0369 108.561 35.4584 107.792 36.3897C106.95 37.3859 105.662 38.0014 104.366 38.1066C103.727 38.1552 102.868 38.1228 102.366 37.6774L102.382 37.3616C103.079 36.5031 104.528 35.8228 105.443 35.1587C106.545 34.3219 107.584 33.4175 108.561 32.4457C107.42 33.1665 102.398 36.9404 101.467 36.8837C101.248 36.0901 101.661 34.8429 102.042 34.1302C102.998 32.3647 104.528 31.5225 106.375 30.9637Z" fill="#068865"/>
<path d="M192.611 96.9183C193.979 96.8211 195.38 96.8778 196.757 96.8778C196.02 98.4489 195.259 100.085 194.141 101.421C193.178 102.587 191.938 103.462 190.392 103.551C189.42 103.608 187.541 103.3 186.796 102.636L186.804 102.377C186.853 102.393 186.901 102.417 186.958 102.425C187.8 102.579 189.29 101.486 190.011 101.081C191.442 100.26 192.851 99.4072 194.238 98.5218C191.696 99.364 189.282 100.733 186.901 101.939L186.731 101.867C186.682 100.976 187.031 100.328 187.565 99.6313C188.893 97.9063 190.505 97.2017 192.611 96.9183Z" fill="#1CA878"/>
<path d="M41.7854 59.2441L42.0608 59.4547C42.4576 61.9005 41.9555 65.3424 40.7002 67.529C39.7769 69.1487 37.5903 69.7076 35.9139 70.1611C37.2421 68.6871 39.4206 66.0065 39.8093 64.0547L39.6636 64.1033C38.1491 66.1928 36.4808 68.1445 34.8125 70.1206C34.853 69.6023 34.9097 69.084 35.015 68.5737C35.841 64.3787 38.3111 61.536 41.7854 59.2441Z" fill="#1CA878"/>
<path d="M81.7636 51.2188C82.4277 52.7494 82.0632 56.499 81.6907 58.1431C81.4235 59.3255 80.0629 61.0748 78.9939 61.666C78.6537 61.8522 78.4837 61.9008 78.103 61.7793C77.3418 60.6617 79.9333 57.155 79.6742 55.6487L79.4312 55.9483C78.4108 57.7867 77.69 59.8114 76.5319 61.5607C76.127 60.3135 75.722 59.0582 75.9326 57.73C76.378 54.8631 79.5932 52.8304 81.7636 51.2188Z" fill="#1CA878"/>
<path d="M55.2351 81.0371C56.2879 81.1019 57.1787 81.4501 58.1506 81.8146C55.7858 83.0456 52.5058 85.1593 50.8294 87.2164C52.5463 86.0097 56.134 83.572 58.0858 83.0699L58.2073 83.2237L57.9805 83.6935C57.6323 84.3899 57.3002 85.1917 56.8224 85.7991C54.9921 88.1072 51.7122 88.2854 49.0234 88.6255C49.5175 86.9491 49.9386 85.0864 50.9428 83.6368C52.0118 82.1061 53.4534 81.3773 55.2351 81.0371Z" fill="#1CA878"/>
<path d="M68.0204 54.5547C69.3405 55.1702 70.6929 55.7776 71.8267 56.7008C73.3898 57.9561 74.3049 59.7864 74.4993 61.7625C74.5641 62.3375 74.5803 63.0015 74.1996 63.4632C72.7905 62.3051 71.8429 60.3128 70.5553 58.9441C71.1141 60.9445 72.6852 62.3537 73.1873 64.6942C71.9563 64.3216 71.0088 63.8357 70.1503 62.8558C68.1905 60.6448 67.8098 57.3811 68.0204 54.5547Z" fill="#068865"/>
<path d="M174.284 18.0371C174.729 18.7741 174.454 20.8554 174.341 21.7382C174.162 23.0906 173.15 24.7995 172.032 25.6012C171.077 26.2815 169.595 26.8484 168.42 26.6783C168.866 25.2368 171.223 22.3699 172.186 21.0093L172.138 20.9202L171.992 20.8878C170.486 22.3375 169.166 23.9653 167.805 25.5526L167.821 25.6417L167.522 25.8766C167.497 25.7713 167.457 25.6741 167.432 25.5688C167.222 24.3054 168.032 22.2727 168.712 21.2361C170.032 19.2195 172.041 18.5149 174.284 18.0371Z" fill="#1CA878"/>
<path d="M136.645 26.8418C137.058 27.0848 137.277 27.6922 137.479 28.1295C138.248 29.8221 138.556 31.8953 137.852 33.6608C137.244 35.1915 136.208 36.0985 134.725 36.7545C134.41 36.7059 134.167 36.633 133.875 36.4954C133.073 35.2077 132.741 34.4059 132.984 32.8429C133.341 30.5753 134.815 28.2024 136.645 26.8418Z" fill="#068865"/>
<path d="M180.296 57.5996C181.131 57.9559 181.973 58.5471 182.702 59.0898C184.216 60.2236 185.65 61.7947 185.876 63.7465C186.038 65.0827 185.609 66.0141 184.775 67.0264C184.111 65.0989 183.196 63.5116 182.119 61.7866L181.949 61.5841C182.094 63.2444 184.435 66.0384 183.908 67.5933L183.552 67.6257C182.588 67.1317 181.868 66.3218 181.26 65.4229C179.689 63.0986 179.819 60.2398 180.296 57.5996Z" fill="#1CA878"/>
<path d="M86.3246 108.029C86.3894 108.07 86.4542 108.11 86.5189 108.159C88.1225 109.333 89.0376 112.054 89.3049 113.949C89.6288 116.201 89.1429 118.323 87.7742 120.153C87.8228 117.715 87.7823 115.326 87.2235 112.945L87.0939 112.807C87.0696 115.31 87.3045 117.594 86.9158 120.104C86.2679 119.246 85.782 118.428 85.4256 117.399C84.3161 114.176 84.8911 111.034 86.3246 108.029Z" fill="#046B5F"/>
<path d="M49.5069 105.73C49.9199 105.828 49.9928 105.852 50.26 106.208C51.0699 107.261 51.0051 109.278 50.7783 110.541C50.3734 112.833 48.9966 114.777 47.1259 116.105C47.6523 114.728 49.1829 109.836 49.3044 108.605L49.0857 108.978C48.4648 110.247 47.9033 111.54 47.4012 112.857C46.9045 114.18 46.4753 115.524 46.1135 116.89C45.6519 115.303 45.3766 113.667 45.5547 112.007C45.8382 109.334 47.5227 107.374 49.5069 105.73Z" fill="#1CA878"/>
<path d="M108.469 83.207C109.489 83.5148 110.55 83.9602 111.53 84.3894C113.206 85.1345 114.705 86.2926 115.344 88.0743C115.936 89.7183 115.612 91.1032 114.883 92.6095C114.324 90.7468 113.547 89.3377 112.445 87.7261L111.336 86.3169C112.316 88.4225 113.409 90.3905 114.041 92.6419C113.83 92.5204 113.611 92.399 113.401 92.2694C110.024 90.1799 109.343 86.7785 108.469 83.207Z" fill="#1CA878"/>
<path d="M103.57 91.8008C105.684 92.2948 107.814 93.1128 109.66 94.279C111.466 95.4209 113.03 96.7895 113.532 98.9519C111.62 97.7371 109.685 96.5628 107.725 95.429L107.765 95.6557C109.434 96.9677 111.188 98.1582 113.029 99.2272L112.884 99.2434L112.641 99.2758C111.507 99.4297 110.697 99.4459 109.604 99.0652C106.745 98.0529 104.785 94.4247 103.57 91.8008Z" fill="url(#paint2_linear_40_23784)"/>
<path d="M78.1389 84.3496L78.4386 84.4549C78.6086 84.7383 78.7706 85.0299 78.9002 85.3376C78.9812 85.5374 79.0541 85.7399 79.1189 85.945C79.1836 86.1556 79.2376 86.3662 79.2808 86.5767C79.324 86.7927 79.3564 87.0087 79.378 87.2246C79.3996 87.4406 79.4104 87.6565 79.4104 87.8725C79.4104 88.0939 79.4023 88.3125 79.3861 88.5285C79.3645 88.7445 79.3348 88.9577 79.297 89.1683C79.2538 89.3843 79.2026 89.5975 79.1432 89.8081C79.0838 90.0132 79.0136 90.2184 78.9326 90.4236C78.2118 92.1972 77.0456 93.1609 75.3368 93.8898C76.2439 92.1567 76.9241 90.2454 77.3858 88.3422L77.3777 88.2855L77.2886 88.2369C76.4463 90.2292 75.6203 92.2053 74.8671 94.238C74.4217 92.6831 74.1058 91.0715 74.4298 89.4517C74.8914 87.2165 76.2681 85.5725 78.1389 84.3496Z" fill="#1CA878"/>
<path d="M40.1756 104.176C41.9087 105.067 43.3179 106.775 44.0872 108.533C45.0348 110.679 44.727 112.25 43.8686 114.331C43.3503 112.242 42.6295 110.209 41.9654 108.16L41.5281 107.278C41.8034 109.618 42.5809 111.975 43.0182 114.315C41.8277 113.327 40.7992 112.185 40.1837 110.744C39.2686 108.59 39.3414 106.322 40.1756 104.176Z" fill="#1CA878"/>
<path d="M175.212 25.7888C175.331 25.778 175.449 25.7699 175.568 25.7645C177.917 25.6106 180.047 26.55 181.772 28.0807C180.5 28.7367 179.172 29.5222 177.803 29.9677C175.989 30.5508 174.661 30.1134 173.033 29.2793C172.871 29.1335 172.944 29.2307 172.855 28.9553C174.159 28.6314 175.803 28.2264 177.131 28.1941C177.18 28.1941 177.236 28.1941 177.285 28.1941L177.301 27.9592L177.69 27.9835C176.443 27.6272 172.58 28.4451 171.009 28.5018L170.766 28.5099C172.142 27.3113 173.373 26.2099 175.212 25.7888Z" fill="#1CA878"/>
<path d="M17.1747 126.13C18.9402 125.312 27.5086 119.383 28.0512 119.367C28.0593 119.578 28.0674 119.78 28.0431 119.983C27.4438 122.315 26.3181 124.275 24.1638 125.506C22.8114 126.283 19.1346 127.19 17.5473 126.777C17.2881 126.713 17.2881 126.696 17.0938 126.583C17.1099 126.235 17.0695 126.381 17.1747 126.13Z" fill="#068865"/>
<path d="M17.1719 126.131C17.3743 123.839 19.1722 120.956 20.9296 119.506C22.2497 118.405 24.0476 117.563 25.805 117.733C26.2369 117.776 26.6662 117.846 27.0927 117.943L27.1656 118.211C25.3515 120.316 22.8652 122.122 20.5814 123.677C19.4476 124.455 18.1518 125.175 17.1719 126.131Z" fill="#068865"/>
<path d="M173.776 78.7852C174.651 79.0686 175.598 79.4816 176.376 79.9757C177.72 80.8341 178.571 82.0813 178.846 83.6524C178.984 84.4299 179.146 86.2278 178.692 86.8514C177.882 86.3331 176.951 83.2637 176.449 82.2352L176.198 81.9598C176.092 82.6482 177.461 86.4708 177.664 87.7017C176.684 87.0782 175.809 86.4627 175.104 85.5313C173.622 83.5714 173.477 81.1257 173.776 78.7852Z" fill="#1CA878"/>
<path d="M67.7253 94.2051C68.932 95.4766 69.8552 97.4769 70.1549 99.2019C70.495 101.113 70.0658 102.571 68.9887 104.126C68.7214 103.13 68.1707 98.1167 67.944 97.8171C67.8144 100.068 67.9925 102.312 68.3408 104.523C67.2313 103.114 66.1542 101.745 65.9679 99.8822C65.7816 97.8899 66.4619 95.7438 67.7253 94.2051Z" fill="#068865"/>
<path d="M59.8414 84.6738C60.6593 85.3946 61.1533 87.0062 61.21 88.0672C61.3315 90.351 60.2625 91.995 58.829 93.6471L58.6671 93.4203C57.5494 91.8978 57.0068 90.3186 57.3389 88.4073C57.6223 86.8038 58.5213 85.589 59.8414 84.6738Z" fill="#1CA878"/>
<path d="M117.636 43.5979L117.547 43.2983C117.66 42.9501 117.571 43.0553 117.749 42.8853C119.134 41.5571 121.167 40.8768 123.07 40.974C125.816 41.1198 127.727 43.0067 129.444 44.9342C125.694 44.1325 121.629 43.2011 117.79 43.4765L117.636 43.5979Z" fill="#068865"/>
<path d="M117.633 43.598L117.787 43.4766C118.775 44.1892 126.979 44.8128 129.279 45.5417C126.46 46.716 123.998 47.866 120.921 46.6512C119.495 46.0924 118.273 45.0072 117.633 43.598Z" fill="#068865"/>
<path d="M70.1218 24.7837C70.5672 26.2091 71.1665 30.3637 71.2151 31.87C70.9884 31.9267 70.875 31.8538 70.6644 31.7242C69.2795 30.9063 68.3077 29.1003 68.0405 27.5535C67.7894 26.1362 68.2105 21.9816 69.1014 20.8802C69.2795 20.6615 69.3281 20.7101 69.5873 20.6777L70.1137 21.1637C69.5873 22.176 69.8464 23.4799 69.9841 24.5813L70.1218 24.7837Z" fill="#068865"/>
<path d="M70.113 21.1641C71.9676 23.1725 73.7897 25.1162 73.7007 28.0722C73.6683 29.0602 73.4091 30.4208 72.6883 31.1578C72.3482 31.0768 72.3401 31.0525 72.1619 30.7609C71.0767 29.0035 71.2225 26.5415 70.1211 24.7841L69.9834 24.5817C69.8457 23.4803 69.5866 22.1764 70.113 21.1641Z" fill="#1CA878"/>
<path d="M200.999 65.7542C199.501 64.9039 197.192 65.0658 195.508 64.6609C195.022 64.5475 194.666 64.4179 194.398 63.9887C194.423 63.9401 194.439 63.8834 194.471 63.8429C194.876 63.2679 196.269 62.8954 196.933 62.7577C200.084 62.0936 202.513 63.6648 205.032 65.2602C203.793 65.4789 202.23 65.9729 200.999 65.7542Z" fill="#1CA878"/>
<path d="M17.0469 101.721C17.387 101.729 17.7272 101.737 18.0592 101.769C19.4441 101.915 20.6913 102.733 21.5173 103.834C22.3596 104.944 22.7888 106.126 22.5944 107.511L22.3839 107.625C21.3796 106.88 20.5617 105.551 19.7356 104.588L19.4603 104.409C19.5331 105.114 21.1124 107.268 21.5578 108.03C20.7479 107.738 19.9948 107.406 19.3145 106.863C17.6381 105.535 17.2412 103.729 17.0469 101.721Z" fill="#1CA878"/>
<path d="M74.4764 139.549C75.432 140.318 76.0313 141.606 76.2824 142.788C76.8817 145.59 76.0556 148.19 74.5412 150.514C74.1768 150.944 73.7637 151.34 73.375 151.745C74.444 148.004 74.5007 143.436 74.4764 139.549Z" fill="#046B5F"/>
<path d="M205.029 65.2617L205.328 65.5614C205.004 66.355 203.652 66.8086 202.874 67.1406C201.085 67.91 199.481 67.9262 197.659 67.2135C196.979 66.9462 195.756 66.4117 195.424 65.7395C195.399 65.699 195.391 65.6424 195.375 65.5938C195.618 65.3184 195.837 65.3022 196.201 65.2941C197.788 65.2536 199.384 65.7314 200.995 65.7557C202.226 65.9744 203.789 65.4804 205.029 65.2617Z" fill="#1CA878"/>
<path d="M73.7978 139.752C73.9355 139.882 73.9274 139.841 73.984 140.044C74.3242 141.315 73.7168 149.486 73.1499 150.539L73.0122 150.418C72.5749 149.381 72.259 148.409 72.1133 147.3C71.7488 144.652 72.1781 141.914 73.7978 139.752Z" fill="#046B5F"/>
<path d="M124.944 20.0625C125.292 20.0868 125.495 20.1111 125.803 20.2893C125.657 20.7428 125.527 21.1963 125.381 21.6498C124.92 23.0185 125.268 24.5248 125.049 25.9502C124.976 26.3875 124.896 26.5414 124.555 26.8168L124.069 26.7034C123.802 26.4199 123.519 26.1365 123.276 25.8287C122.685 25.0593 122.474 23.9741 122.676 23.0347C122.952 21.7308 123.859 20.7752 124.944 20.0625Z" fill="#068865"/>
<path d="M126.229 20.4102C126.706 20.7665 127.022 21.4225 127.2 21.9813C127.727 23.6172 127.249 25.2126 126.48 26.6704C126.334 26.8 126.22 26.8243 126.042 26.881L125.807 26.6218C125.33 24.6052 125.313 22.2809 126.229 20.4102Z" fill="#068865"/>
<defs>
<linearGradient id="paint0_linear_40_23784" x1="279.838" y1="109.107" x2="198.815" y2="83.7149" gradientUnits="userSpaceOnUse">
<stop stop-color="#219266"/>
<stop offset="1" stop-color="#3CB074"/>
</linearGradient>
<linearGradient id="paint1_linear_40_23784" x1="195.297" y1="101.595" x2="189.995" y2="114.201" gradientUnits="userSpaceOnUse">
<stop stop-color="#0F7362"/>
<stop offset="1" stop-color="#0A9A6B"/>
</linearGradient>
<linearGradient id="paint2_linear_40_23784" x1="106.869" y1="89.3617" x2="102.647" y2="97.9313" gradientUnits="userSpaceOnUse">
<stop stop-color="#049268"/>
<stop offset="1" stop-color="#0EAC7D"/>
</linearGradient>
</defs>
</svg>
