<svg width="257" height="250" viewBox="0 0 257 250" fill="none" xmlns="http://www.w3.org/2000/svg">
<path d="M214.518 76.082C207.065 108.59 174.282 123.984 152.9 146.385C133.684 164.263 116.124 201.909 145.808 218.64C161.648 227.388 180.439 227.749 198.063 226.433C198.678 226.369 199.337 226.221 200.271 226.879C193.073 231.741 185.684 235.691 177.658 238.876C147.061 245.521 104.404 228.493 112.77 190.953C119.904 162.224 142.772 140.843 166.171 124.43C183.73 111.86 203.541 99.5445 212.501 78.991C212.989 77.9505 213.265 76.7827 214.518 76.082Z" fill="#33432A"/>
<path d="M161.498 67.2715C185.13 114.281 137.717 136.088 117.461 170.294C102.98 193.035 107.778 227.071 134.787 237.645C142.218 241.042 150.117 242.911 158.271 243.782C159.714 243.93 161.243 243.951 163.218 244.907C152.219 248.134 142.112 249.217 130.965 249.366C106.356 248.283 90.4099 219.746 93.149 197.026C97.4805 154.433 135.254 139.209 156.36 107.933C163.175 96.8278 164.959 84.9374 161.923 72.2825C161.604 70.9236 160.946 69.5646 161.498 67.2715Z" fill="#33432A"/>
<path d="M230.823 221.805C229.74 222.484 228.636 222.187 227.617 222.144C200.842 220.743 172.644 229.809 147.568 216.687C113.362 198.533 142.324 150.377 168.716 139.123C187.401 130.481 208.974 130.566 224.517 145.111C163.429 113.686 111.175 200.911 171.583 213.269C191.223 215.859 211.968 215.944 230.823 221.805Z" fill="#33432A"/>
<path d="M44.3125 78.3109C53.8674 112.878 87.1607 107.294 114.445 116.891C106.228 107.591 95.7176 102.198 91.0039 90.4138C88.4984 84.6384 88.5621 78.6507 89.5601 72.5993C89.7299 72.1959 89.7512 71.5376 90.3457 71.5801C90.3032 102.835 124.488 103.663 129.584 131.67C130.646 135.364 125.55 137.381 123.469 139.823C122.641 140.545 121.898 140.863 121.601 139.377C119.562 128.93 111.706 124.344 102.809 121.074C75.9285 113.706 48.8351 112.347 44.3125 78.3109Z" fill="#33432A"/>
<path d="M31.5547 144.241C55.548 137.468 81.8769 114.536 107.017 124.792C116.678 128.444 125.766 142.606 113.939 149.358C113.005 149.932 112.622 149.656 112.431 148.742C103.407 107.508 56.6521 147.426 31.5547 144.241Z" fill="#33432A"/>
<path d="M25.1406 221.614C45.7366 215.435 69.645 218.132 87.7355 205.052C88.415 204.521 89.1581 203.566 90.0712 204.033C90.9417 204.479 90.7719 205.626 90.7719 206.517C90.8356 210.424 91.6 214.225 92.6828 217.962C93.1712 219.661 92.7465 220.659 91.1753 221.465C70.3032 232.613 47.2867 220.446 25.2043 222.485C25.1902 222.201 25.1689 221.911 25.1406 221.614Z" fill="#33432A"/>
<path d="M114.047 248.368C94.0026 246.435 75.6149 240.66 59.4141 228.578C70.6463 228.897 81.7937 228.791 91.9643 223.313C93.217 222.654 94.13 222.591 94.7246 224.141C98.4616 233.504 104.98 240.596 112.942 246.499C113.367 246.818 113.898 247.051 114.047 248.368Z" fill="#33432A"/>
<path d="M126.827 20.9404C126.042 27.4589 125.277 33.9774 124.492 40.496C124.407 41.2391 124.916 42.3645 123.833 42.5768C122.941 42.7679 122.241 41.8761 121.604 41.2604C115.234 34.9329 113.408 27.2253 114.958 18.626C116.274 11.343 120.691 5.88616 125.829 0.938867C126.721 0.047081 127.634 -0.207714 128.653 0.747772C139.206 10.5574 144.366 24.55 135.533 37.5446C135.32 37.8418 135.129 38.1603 134.896 38.4151C133.558 39.859 132.284 42.322 130.437 41.9186C128.887 41.5576 129.927 38.8823 129.672 37.2473C128.866 31.8329 128.186 26.376 127.464 20.9404C127.252 20.9404 127.039 20.9404 126.827 20.9404Z" fill="#81A63D"/>
<path d="M63.5263 69.1191C67.8791 73.7054 72.4017 77.952 77.2216 81.8801C77.6251 82.2198 78.3045 82.4321 78.2196 83.0479C78.1134 83.7911 77.3066 83.8123 76.7333 84.0034C68.8983 86.6788 59.577 83.6849 53.4194 76.5506C49.6824 72.2191 47.4317 67.1656 46.0516 61.645C45.5845 59.8402 45.9879 58.7149 47.9413 58.2053C56.0948 56.082 64.0572 56.1457 71.5312 60.4772C77.2641 63.7896 80.7676 68.6944 81.4895 75.3828C81.6169 76.4444 81.9778 77.7821 80.895 78.3766C79.9819 78.8862 79.3874 77.676 78.6867 77.1876C73.973 73.8328 68.6435 71.6882 63.5263 69.1191Z" fill="#81A63D"/>
<path d="M192.313 69.3093C189.404 70.7956 186.537 72.197 183.756 73.747C181.463 75.021 179.233 76.3799 177.089 77.8662C175.56 78.9066 175.241 78.3121 175.22 76.847C175.156 71.1353 177.365 66.4004 181.739 62.8969C190.062 56.2085 199.489 55.7202 209.363 58.6928C210.743 59.0962 211.316 59.9243 210.913 61.3045C208.089 70.8805 203.418 79.0552 193.99 83.6203C189.977 85.5738 185.815 85.5738 181.59 84.5971C180.635 84.3635 179.382 84.2361 179.085 83.2381C178.702 82.0491 180.061 81.6669 180.762 81.0936C184.711 77.9299 188.321 74.384 191.888 70.8168C192.185 70.5408 192.61 70.286 192.313 69.3093Z" fill="#81A63D"/>
<path d="M38.9393 117.444C44.8421 118.166 50.7378 118.895 56.6264 119.631C57.3271 119.716 58.2189 119.504 58.4524 120.438C58.6223 121.181 58.0702 121.797 57.5819 122.328C52.401 128.146 45.84 129.717 38.4297 128.294C32.3146 127.126 27.1762 124.048 22.5262 120.013C21.5919 119.207 20.87 118.463 21.9953 117.104C28.3652 109.418 36.1365 104.853 46.477 106.148C51.1695 106.743 54.9702 109.015 57.8154 112.815C58.7922 114.111 58.9833 114.917 56.7538 115.002C50.7873 115.236 44.8845 116 38.9393 117.444Z" fill="#81A63D"/>
<path d="M217.193 117.275C211.057 115.958 205.536 115.321 199.931 115.321C199.187 115.321 198.105 115.788 197.765 114.812C197.489 114.026 198.338 113.368 198.827 112.752C204.538 105.639 214.496 103.855 223.669 108.378C227.682 110.353 230.952 113.304 233.925 116.638C234.901 117.742 234.901 118.634 233.818 119.632C227.003 125.81 219.38 129.76 209.825 128.422C205.748 127.87 202.266 126.108 199.379 123.199C198.742 122.541 197.637 121.819 198.105 120.736C198.487 119.823 199.676 119.971 200.525 119.844C205.345 119.122 210.144 118.464 214.964 117.763C215.494 117.678 216.004 117.53 217.193 117.275Z" fill="#81A63D"/>
<path d="M140.755 57.844C138.292 62.218 135.957 66.5707 134.194 71.2208C133.918 71.9214 133.982 73.068 132.963 73.0893C132.113 73.0893 131.668 72.155 131.285 71.4755C128.015 65.7214 127.973 59.7974 130.521 53.8097C133.472 46.909 139.078 42.8534 145.703 39.9445C146.913 39.4137 147.762 39.6897 148.399 40.8575C152.964 49.5418 154.344 61.3686 146.934 70.6899C145.342 72.6858 143.197 74.066 140.777 74.9153C138.526 75.6797 137.974 75.1701 138.547 72.7708C139.672 67.8659 140.331 62.8762 140.755 57.844Z" fill="#81A63D"/>
<path d="M24.6727 92.2617C29.3864 93.4225 34.1002 94.5903 38.8139 95.7652C39.4934 95.935 40.4064 95.7652 40.6399 96.6145C40.8523 97.4426 40.0666 97.846 39.5358 98.3344C33.8454 103.558 26.0953 104.534 18.3878 100.819C14.0987 98.759 10.6802 95.5953 7.77125 91.8158C6.5822 90.3083 6.87946 89.2466 8.28084 88.2062C14.0775 83.9172 20.2775 80.9233 27.794 81.6877C33.2933 82.261 37.3488 85.1062 40.5338 89.4165C40.8947 89.9261 41.3406 90.5631 41.0646 91.1576C40.6399 92.0494 39.7694 91.5398 39.1324 91.4549C34.2913 90.7967 29.4926 91.9432 24.6727 91.6035C24.6727 91.8158 24.6727 92.0352 24.6727 92.2617Z" fill="#81A63D"/>
<path d="M230.78 91.6246C226.321 91.6246 221.862 91.6459 217.382 91.6034C216.724 91.6034 215.832 92.1767 215.429 91.3486C215.068 90.6267 215.853 90.0321 216.193 89.4376C220.334 82.4944 230.355 79.6492 239.019 83.0465C242.373 84.3842 245.58 86.0191 248.212 88.6095C249.104 89.5013 249.614 90.2657 248.743 91.3698C243.223 98.4192 236.662 103.558 227.107 102.963C223.306 102.729 219.888 101.413 217.042 98.8226C216.469 98.313 215.599 97.7822 215.938 96.8479C216.214 96.0835 217.127 96.126 217.807 95.9349C222.138 94.7459 226.47 93.5568 230.801 92.3678C230.787 92.1271 230.78 91.8794 230.78 91.6246Z" fill="#81A63D"/>
<path d="M112.476 54.9987C113.092 58.7569 114.43 62.2816 115.661 65.8487C115.958 66.7193 117.041 67.696 116.086 68.5453C115.215 69.3097 113.984 68.8638 112.986 68.4604C106.488 65.8063 103.219 60.6467 102.242 53.9795C101.626 49.6267 102.199 45.3377 103.813 41.1972C104.238 40.0931 104.641 38.8616 106.255 39.4136C113.198 41.7917 121.436 47.2911 122.604 56.1665C123.008 59.2028 122.498 62.0905 121.415 64.9145C121.203 65.4878 120.969 66.2097 120.226 66.2309C119.462 66.2734 119.249 65.509 118.995 64.957C117.317 61.3474 114.812 58.2473 112.476 54.9987Z" fill="#81A63D"/>
<path d="M170.757 48.0553C167.975 51.1978 165.449 54.3616 163.644 58.0136C163.325 58.6294 163.219 59.5849 162.391 59.6061C161.393 59.6486 161.223 58.5869 160.926 57.8862C158.569 52.4081 159.525 47.2485 162.901 42.556C166.256 37.906 171.033 35.2731 176.511 33.808C177.764 33.4683 178.847 33.4895 179.335 34.9758C181.968 42.7259 181.48 52.578 174.77 58.863C172.965 60.5616 170.906 61.8356 168.4 62.2178C166.935 62.4301 166.425 62.0054 166.935 60.413C168.294 56.315 169.504 52.1958 170.757 48.0553Z" fill="#81A63D"/>
<path d="M85.3598 47.9274C86.1029 51.6645 87.3981 55.2104 88.7783 58.735C88.9906 59.3083 89.5639 59.9241 89.1392 60.4974C88.6084 61.1556 87.7591 60.8159 87.1008 60.6673C82.833 59.7542 79.8179 57.0576 77.7583 53.4268C74.5734 47.7788 74.361 41.7274 76.1022 35.5698C76.4419 34.402 76.9515 33.4465 78.5439 33.5739C85.4447 34.1897 94.0016 42.0247 95.042 48.9254C95.4242 51.4309 95.3605 53.9576 94.2776 56.357C93.5769 57.907 92.855 58.0981 91.9207 56.5056C90.0735 53.4056 88.0563 50.4329 85.3598 47.9274Z" fill="#81A63D"/>
<path d="M123.473 94.3853C123.791 98.2497 124.131 102.093 124.449 105.957C124.513 106.658 124.874 107.507 124.237 107.996C123.473 108.611 122.687 107.996 121.965 107.677C120.521 107.04 119.417 105.978 118.419 104.789C113.026 98.2921 112.644 87.3571 117.506 80.4139C118.037 79.6496 118.504 79.3098 119.502 79.5434C129.928 82.0489 135.809 95.5318 130.501 104.811C130.373 105.044 130.246 105.299 130.076 105.511C129.694 105.957 129.503 106.785 128.717 106.615C127.974 106.446 128.059 105.618 127.868 105.065C126.658 101.392 125.532 97.6976 123.473 94.3853Z" fill="#81A63D"/>
<path d="M51.4666 160.611C53.866 157.469 56.2441 154.305 58.6434 151.141C59.0044 150.674 59.2379 149.91 60.0236 150.037C60.7455 150.186 60.8729 150.929 61.0215 151.523C62.2318 155.897 61.7859 160.123 59.3016 163.966C56.1167 168.892 51.5516 172.162 46.1372 174.306C45.1605 174.71 44.4385 174.731 43.9502 173.606C40.8077 166.705 40.383 155.6 47.7509 149.421C49.7468 147.744 52.0399 146.831 54.6091 146.491C56.3078 146.258 56.5626 146.81 55.7769 148.232C53.6324 152.118 52.2947 156.28 51.4666 160.611Z" fill="#81A63D"/>
<path d="M203.968 159.209C204.011 155.77 202.822 152.776 201.93 149.697C201.675 148.869 200.932 147.956 201.76 147.192C202.588 146.406 203.65 146.809 204.584 147.128C207.96 148.338 210.508 150.568 212.164 153.731C215.328 159.804 214.988 166.046 212.716 172.331C212.058 174.115 211.06 174.646 209.191 173.86C202.163 170.951 196.813 166.514 195.071 158.7C194.541 156.279 194.626 153.859 195.517 151.523C195.772 150.865 195.73 149.888 196.515 149.718C197.428 149.485 197.513 150.546 197.917 151.077C199.955 153.774 201.951 156.492 203.968 159.209Z" fill="#81A63D"/>
<path d="M28.7081 133.071C24.0156 133.836 19.6841 134.473 15.7135 136.957C19.3656 136.957 22.9964 136.936 26.6272 136.978C27.3704 136.978 28.4321 136.448 28.793 137.467C29.0903 138.274 28.3471 138.953 27.8375 139.569C23.9731 144.495 16.1381 146.554 9.57714 144.304C6.39219 143.221 3.46204 141.65 1.02024 139.293C0.404483 138.698 -0.211277 138.146 0.446946 137.233C6.98671 128.061 18.0491 123.941 27.7738 131.798C28.0286 132.01 28.1985 132.35 28.7081 133.071Z" fill="#81A63D"/>
<path d="M160.356 20.4086C157.978 22.6381 156.067 25.2073 154.687 28.1586C154.39 28.7956 154.241 29.7299 153.413 29.7724C152.415 29.7936 152.245 28.7532 151.969 28.0313C149.846 22.3833 151.099 17.3723 155.048 12.9983C158.084 9.62223 161.991 7.62633 166.301 6.28865C167.83 5.82152 168.722 6.33111 169.168 7.81742C171.588 16.0771 170.357 24.6552 162.692 30.7278C162.331 31.0039 161.949 31.2799 161.545 31.471C160.229 32.0231 158.615 33.1484 157.49 32.3415C156.131 31.3861 157.744 29.9422 158.042 28.7107C158.721 25.9292 159.57 23.1689 160.356 20.4086Z" fill="#81A63D"/>
<path d="M95.3626 20.8133C96.4809 23.8283 97.5991 26.8364 98.7174 29.8373C98.9722 30.4955 99.6092 31.175 99.0996 31.8332C98.5051 32.6188 97.5921 32.1517 96.8277 31.9818C91.6468 30.8565 86.6995 24.89 85.9564 18.7112C85.5317 15.2077 85.6804 11.6831 86.5297 8.22209C86.8482 7.01181 87.1879 5.86522 88.8441 6.35358C95.8934 8.45565 101.711 11.9803 104.323 19.3906C105.257 22.0872 104.705 24.7414 104.068 27.3743C103.898 28.1174 103.707 29.1366 102.773 29.2215C101.881 29.3277 101.754 28.3298 101.372 27.7565C99.6941 25.251 98.0167 22.7242 95.3626 20.8133Z" fill="#81A63D"/>
<path d="M241.442 137.043C237.917 135.28 234.414 134.176 230.698 133.858C230.083 133.794 229.318 133.943 229 133.284C228.575 132.414 229.403 131.968 229.891 131.522C233.374 128.252 237.535 127.127 242.164 128.061C247.706 129.208 251.931 132.52 255.541 136.724C256.305 137.637 256.475 138.38 255.435 139.23C249.362 144.325 241.803 147.213 233.65 143.391C231.93 142.584 230.274 141.629 229.169 139.994C228.702 139.293 227.896 138.529 228.405 137.573C228.872 136.745 229.87 137.064 230.656 137.064C234.244 137.021 237.833 137.043 241.442 137.043Z" fill="#81A63D"/>
<path d="M195.066 39.4131C192.306 40.4323 189.97 41.77 188.08 43.7872C187.571 44.318 187.082 45.3372 186.148 44.87C185.299 44.4454 185.617 43.405 185.596 42.6406C185.554 36.4618 190.458 31.1535 197.402 29.8158C198.293 29.646 199.185 29.5398 200.077 29.4124C205.555 28.5843 206.532 29.6035 205.428 35.1028C204.408 40.1563 202.243 44.4666 197.656 47.2481C195.576 48.5221 193.325 48.968 190.926 48.8194C190.119 48.7769 189.142 48.7981 188.802 47.9701C188.462 47.1844 189.333 46.7173 189.758 46.1865C191.527 43.9216 193.297 41.6638 195.066 39.4131Z" fill="#81A63D"/>
<path d="M60.9865 39.7096C62.7064 41.8329 64.4263 43.9774 66.1461 46.1219C66.5708 46.6527 67.3776 47.1623 67.0167 47.948C66.6345 48.7973 65.7002 48.7973 64.8934 48.7973C61.6872 48.7973 58.8632 47.7356 56.5063 45.6123C52.196 41.7692 50.4337 36.8219 50.5611 31.1102C50.5823 30.091 50.8371 29.454 51.9837 29.2417C57.0584 28.2225 65.8913 32.0657 68.5667 36.5034C69.8619 38.6479 70.4777 40.9623 70.2866 43.4678C70.2229 44.1473 70.5414 45.0815 69.6708 45.3575C68.9701 45.5911 68.6304 44.7842 68.2057 44.3596C66.1674 42.3424 63.8105 40.7712 60.9865 39.7096Z" fill="#81A63D"/>
<path d="M26.8823 161.142C30.1097 159.953 32.3604 158.318 34.781 157.002C35.3118 156.705 35.8214 156.089 36.4796 156.535C37.0954 156.938 36.8406 157.681 36.7557 158.276C36.055 163.584 32.7002 166.833 28.1138 168.914C24.9713 170.336 21.5528 170.867 18.0706 170.527C16.924 170.421 15.65 170.294 15.7562 168.553C16.3295 160.251 22.5295 152.585 30.1522 151.821C30.683 151.779 31.2351 151.694 31.7659 151.779C32.7214 151.948 33.9741 151.885 34.3563 152.925C34.7598 154.029 33.4221 154.284 32.8276 154.879C30.959 156.747 28.857 158.446 26.8823 161.142Z" fill="#81A63D"/>
<path d="M146.507 83.5343C143.917 85.0844 142.452 86.783 140.923 88.4179C140.413 88.9488 140.18 90.1378 139.182 89.6919C138.375 89.3522 138.502 88.2905 138.439 87.5049C137.95 81.0288 143.067 74.3617 149.501 73.1302C151.454 72.7692 153.387 72.3445 155.404 72.5569C156.678 72.663 157.485 73.2788 157.4 74.5952C156.996 81.3686 154.937 87.3138 148.885 91.1782C147.505 92.0488 145.955 92.5796 144.299 92.6433C143.598 92.6858 142.77 92.8556 142.303 92.1974C141.793 91.433 142.558 90.8597 142.897 90.2652C144.044 88.2693 145.53 86.4645 146.507 83.5343Z" fill="#81A63D"/>
<path d="M228.571 161.121C227.361 158.509 225.301 156.789 223.326 154.963C222.817 154.475 222.073 154.029 222.307 153.201C222.562 152.245 223.517 152.245 224.303 152.161C228.698 151.651 232.223 153.435 235.132 156.556C238.104 159.762 239.591 163.669 240.206 167.958C240.419 169.359 239.994 170.336 238.508 170.463C232.52 170.952 222.838 168.743 220.269 160.887C220.141 160.548 219.993 160.229 219.929 159.868C219.695 158.637 219.016 157.002 219.908 156.28C220.884 155.515 221.819 157.15 222.774 157.681C224.749 158.743 226.639 159.974 228.571 161.121Z" fill="#81A63D"/>
<path d="M139.374 109.971C137.994 111.351 136.656 112.773 135.234 114.111C134.639 114.684 134.257 115.937 133.153 115.385C132.24 114.918 132.431 113.814 132.41 112.922C132.303 107.932 134.682 104.323 138.737 101.711C141.052 100.204 143.684 99.609 146.381 99.2056C147.973 98.9508 148.929 99.5028 149.247 101.201C150.479 107.338 146.381 115.343 140.648 117.848C139.926 118.188 139.119 118.421 138.334 118.57C137.654 118.697 136.826 118.846 136.338 118.145C135.892 117.508 136.529 116.978 136.826 116.447C137.93 114.451 139.077 112.434 139.374 109.971Z" fill="#81A63D"/>
<path d="M179.035 98.2278C176.084 98.2702 173.514 99.0983 171.03 100.139C170.563 100.33 170.117 100.903 169.586 100.415C169.14 100.011 169.289 99.3956 169.438 98.886C170.16 96.4654 171.646 94.5757 173.706 93.1318C179.29 89.2674 184.917 90.3716 190.458 92.7284C191.329 93.1106 191.626 93.8113 191.286 94.7243C189.121 100.351 181.732 107.273 173.748 105.32C172.92 105.129 171.731 105.086 171.561 104.046C171.412 103.111 172.601 102.942 173.196 102.474C175.128 101.031 177.082 99.6504 179.035 98.2278Z" fill="#81A63D"/>
<path d="M40.4932 66.1882C37.6267 64.3622 35.0151 62.8334 31.5753 61.9204C33.3376 64.4683 35.6733 65.7211 37.4144 67.5683C37.7753 67.9505 38.4123 68.1841 38.2849 68.8211C38.1363 69.6067 37.3932 69.6704 36.7774 69.7553C32.4246 70.5197 28.7513 69.0122 25.6725 66.0608C23.0821 63.5553 21.4684 60.434 20.8102 56.8669C20.5978 55.7416 20.5341 54.7861 21.9568 54.2765C27.541 52.2381 36.1404 55.232 39.198 60.3704C40.1959 62.0478 40.663 63.8313 40.4932 66.1882Z" fill="#81A63D"/>
<path d="M77.9474 97.6773C80.2406 99.2273 82.5337 100.777 84.8269 102.327C85.3365 102.667 86.1646 102.901 85.8885 103.665C85.7399 104.068 85.1029 104.387 84.6358 104.578C81.0049 106.064 77.4803 105.406 74.2104 103.686C70.7706 101.881 68.2651 99.0574 66.3966 95.6602C65.7596 94.4711 65.6535 93.5369 67.0336 92.7088C72.1932 89.5663 81.0474 90.5005 85.1666 94.7471C85.8036 95.3841 86.3344 96.1273 86.8228 96.8704C87.4173 97.7835 88.1817 99.015 87.5447 99.8643C86.6954 101.011 85.655 99.652 84.6995 99.3759C82.5125 98.7177 80.3255 97.9533 78.1597 97.2314C78.0889 97.373 78.0182 97.5216 77.9474 97.6773Z" fill="#81A63D"/>
<path d="M224.304 61.8359C221.628 62.5366 219.717 63.6407 217.891 64.9147C217.424 65.2544 216.893 65.8702 216.235 65.3181C215.789 64.9147 216.001 64.2989 216.086 63.7893C216.808 59.564 219.356 56.7824 223.157 55.1687C226.66 53.6824 230.355 53.7461 234.049 54.553C235.047 54.7653 235.727 55.1687 235.6 56.3365C234.771 63.6407 227.871 70.6476 220.269 69.862C219.484 69.777 218.507 69.7983 218.188 68.9065C217.87 68.0572 218.847 67.7387 219.314 67.2503C220.864 65.5941 222.796 64.2352 224.304 61.8359Z" fill="#81A63D"/>
<path d="M104.044 79.65C105.318 81.4973 106.635 83.3233 107.887 85.1706C108.227 85.659 108.949 86.1049 108.546 86.8055C108.185 87.4425 107.42 87.2514 106.805 87.2514C103.853 87.2514 101.305 86.1898 99.3305 84.024C96.4428 80.8178 95.0202 76.9747 94.638 72.7068C94.5319 71.3904 94.638 70.1589 96.4216 69.9678C102.218 69.3095 108.843 73.0466 111.051 78.2911C111.603 79.6288 111.985 81.0302 111.879 82.4952C111.816 83.2172 111.879 84.109 111.094 84.385C110.393 84.6398 110.074 83.8117 109.65 83.387C108.036 81.837 106.295 80.4356 104.044 79.65Z" fill="#81A63D"/>
</svg>
