<svg width="255" height="257" viewBox="0 0 255 257" fill="none" xmlns="http://www.w3.org/2000/svg">
<path d="M0.898438 0.699219C2.43834 1.45279 3.9209 2.68962 5.30517 3.7053C7.89351 5.62198 10.4655 7.596 13.1193 9.43077C25.4713 17.9412 37.7168 26.6727 50.511 34.5115C62.0493 41.4792 73.7788 48.1084 85.6994 54.3991C97.7073 60.5996 109.797 66.6446 121.535 73.3612C129.988 78.202 138.392 83.3132 145.862 89.612C147.295 85.8933 149.065 82.191 151.227 78.8409C155.994 71.4772 163.276 65.4733 171.991 63.6221C181.214 61.6563 188.709 64.0562 196.416 69.0363C211.111 67.1852 240.205 68.4712 254.13 73.869C242.097 73.9099 229.532 74.8191 217.942 78.2593C215.092 79.103 212.282 80.2252 209.53 81.3391C206.516 82.5678 203.461 83.8701 200.676 85.5575C193.337 90.0052 186.047 98.7285 184.417 107.329C183.827 110.474 183.852 113.759 183.581 116.945C183.406 118.862 183.155 120.77 182.828 122.671C182.5 124.566 182.099 126.447 181.624 128.314C180.714 132.041 179.731 135.825 178.413 139.429C173.089 153.927 163.014 166.5 150.973 176.01C144.347 181.252 137.057 185.757 129.84 190.131L125.524 192.613C121.617 201.509 115.957 209.143 109.306 216.162C93.5217 232.798 74.0846 243.168 53.0338 251.645C48.6517 253.406 44.163 254.971 39.7563 256.699C43.0736 253.955 46.1043 250.9 49.1841 247.894C64.1244 233.314 74.1092 219.185 82.4475 199.977C84.8966 194.325 86.7314 188.362 88.9757 182.62C93.9067 169.982 101.147 155.484 109.543 144.868C111.55 142.337 113.868 140.027 116.071 137.668C114.048 137.283 111.943 137.169 109.895 136.898C107.643 136.603 105.423 136.104 103.228 135.563C88.4761 131.943 75.8047 123.629 67.8349 110.491C65.951 109.541 63.977 108.828 62.1176 107.788C53.468 102.939 46.1043 95.2801 41.3699 86.5895C40.1577 84.3452 38.8553 80.2825 37.6021 78.546C36.2342 76.6457 33.2281 74.6062 31.4998 72.7878C24.4884 65.4651 19.238 56.9383 16.4531 47.1583C18.64 48.2805 20.7205 49.5828 22.9239 50.6886C19.9506 47.6661 17.1247 44.6109 14.6101 41.1871C6.14065 29.646 1.05407 15.0252 0.898438 0.699219Z" fill="#4B1756"/>
<path d="M30.6797 58.1992C33.5465 59.1002 36.3724 60.6074 39.1819 61.6886C46.1169 64.3643 53.1229 66.8434 60.1999 69.126C79.1619 75.2528 98.3615 80.2001 116.84 87.7931C126.284 91.6756 135.786 96.1233 143.789 102.578C147.483 105.559 150.898 109.253 153.306 113.349C159.204 123.383 159.171 135.71 156.288 146.686C152.25 162.028 142.429 172.094 129.454 180.539C127.259 181.965 120.608 185.667 119.183 187.174C118.053 188.362 116.898 191.663 116.013 193.317C114.727 195.717 113.335 198.101 111.778 200.345C101.466 215.236 87.8198 225.041 72.347 234.075C74.8207 231.757 77.7695 229.791 80.3906 227.629C85.469 223.435 90.3999 218.463 94.479 213.287C99.3854 207.062 103.686 199.894 106.782 192.588C115.669 171.619 117.84 149.209 132.649 130.738C129.233 130.304 125.719 130.304 122.271 130.001C114.35 129.297 106.61 127.88 99.0741 125.316C91.3009 122.744 84.0683 117.649 78.8752 111.367C83.7243 112.604 89.5972 112.931 94.6592 113.726C103.653 115.143 112.753 116.625 121.583 118.87C123.966 119.476 126.293 120.287 128.643 120.983C120.256 114.963 103.669 109.827 93.6271 107.656C82.7578 105.297 71.8965 103.888 62.395 97.5813C58.103 94.7391 54.63 90.9303 51.3946 86.9822C54.7119 88.0061 58.0211 89.0136 61.4121 89.8163C86.7877 95.8285 126.448 99.6782 142.142 123.08C147.065 130.411 148.867 140.019 147.687 148.709C147.384 150.962 146.647 153.018 146.213 155.213L146.311 155.164C147.458 153.173 148.326 150.061 148.842 147.808C150.956 138.651 150.194 129.157 145.509 120.926C144.157 118.55 142.609 116.257 140.758 114.242C138.268 111.514 135.352 109.27 132.338 107.165C130.159 105.649 127.955 104.11 125.637 102.799C112.761 95.5336 96.4203 91.0122 82.1025 87.2034C71.4542 84.3693 60.4456 82.0922 50.6165 76.8992C50.1032 76.6316 49.5981 76.3531 49.1011 76.0637C48.5988 75.7797 48.1018 75.4876 47.6104 75.1873C47.1189 74.8815 46.6329 74.5702 46.1524 74.2535C45.6719 73.9368 45.1995 73.6091 44.7354 73.2706C44.2657 72.9375 43.8016 72.5962 43.3429 72.2467C42.8842 71.8972 42.431 71.5396 41.9832 71.1737C41.5409 70.8078 41.1013 70.4365 40.6645 70.0597C40.2331 69.6775 39.8071 69.2898 39.3867 68.8966C38.9662 68.5034 38.5512 68.1021 38.1416 67.6925C37.7376 67.283 37.3389 66.868 36.9458 66.4475C36.5526 66.027 36.1676 65.5984 35.7908 65.1615C35.4086 64.7301 35.0373 64.2906 34.6769 63.8428C34.311 63.395 33.9533 62.9418 33.6039 62.4831C33.2598 62.0244 32.9213 61.5602 32.5882 61.0906C32.2551 60.621 31.9274 60.1432 31.6053 59.6572C31.2885 59.1767 30.98 58.6907 30.6797 58.1992Z" fill="#E0E5E4"/>
<path d="M151.117 97.1652C152.673 93.168 154.107 89.1298 156.22 85.3702C159.947 78.7683 165.255 72.6169 172.823 70.5528C178.303 69.0538 183.922 70.0449 188.812 72.8217C190.581 73.4933 192.375 75.5411 194.161 75.7049C196.659 75.7049 199.239 75.2544 201.729 75.0168C207.651 74.468 213.786 73.9111 219.733 74.3206C217.792 74.8858 215.621 74.9513 213.606 75.1643C213.546 75.1861 213.483 75.2107 213.418 75.238C210.911 76.139 208.151 76.4666 205.587 77.2038C194.038 80.5375 185.093 85.3456 179.671 96.6082C178.459 99.1146 177.336 101.752 176.714 104.471C175.665 109.009 175.69 114.931 175.051 119.739C174.56 123.45 173.577 127.013 172.528 130.601C168.761 143.469 163.895 151.594 155.958 162.275C157.121 159.326 158.571 156.5 159.701 153.535C165.148 139.291 167.106 125.498 160.807 111.024C158.948 106.749 156.376 103.022 153.378 99.475L151.117 97.1652Z" fill="#DC54AE"/>
<path d="M151.117 97.1652C152.673 93.168 154.107 89.1298 156.22 85.3702C159.947 78.7683 165.255 72.6169 172.823 70.5528C178.303 69.0538 183.922 70.0449 188.812 72.8217C188.73 72.8135 188.64 72.8135 188.558 72.8135C187.026 72.7561 185.216 71.806 183.635 71.5439C176.943 70.4135 171.021 72.7807 166.025 77.1792C161.053 81.545 157.883 87.2623 155.614 93.4055C154.885 95.3959 154.295 97.5665 153.378 99.475L151.117 97.1652Z" fill="#E0E5E4"/>
<path d="M194.165 75.7053C196.663 75.7053 199.243 75.2548 201.733 75.0173C207.655 74.4685 213.79 73.9115 219.737 74.321C217.795 74.8862 215.625 74.9517 213.61 75.1647C210.325 74.9108 195.377 76.7537 194.025 76.0002L193.984 75.7954L194.165 75.7053Z" fill="#E0E5E4"/>
<path d="M183.226 78.8262C183.333 79.0801 183.357 79.162 183.267 79.4323C183.021 80.2186 182.186 80.8575 181.498 81.2343C180.302 81.8814 179.016 81.906 177.722 81.4964C176.6 81.1442 175.715 80.3906 175.224 79.3176C174.74 78.261 174.675 77.0733 175.117 75.9921C175.527 74.9928 176.362 74.0427 177.386 73.6577C178.148 73.371 179.196 73.2399 179.958 73.5676C180.875 73.6003 181.817 73.8706 182.481 74.5341C183.275 75.3368 183.578 76.4999 183.505 77.5975C183.48 78.0235 183.357 78.4248 183.226 78.8262Z" fill="#4B1756"/>
<path d="M183.226 78.8262C183.333 79.0801 183.357 79.162 183.267 79.4323C183.021 80.2186 182.186 80.8575 181.498 81.2343C180.302 81.8814 179.016 81.906 177.722 81.4964C176.6 81.1442 175.715 80.3906 175.224 79.3176C174.74 78.261 174.675 77.0733 175.117 75.9921C175.527 74.9928 176.362 74.0427 177.386 73.6577C178.148 73.371 179.196 73.2399 179.958 73.5676C178.77 74.4358 177.525 75.2549 177.247 76.8194C177.225 76.9231 177.211 77.0296 177.206 77.1388C177.195 77.2426 177.192 77.3491 177.198 77.4583C177.198 77.562 177.206 77.6685 177.222 77.7777C177.239 77.8815 177.258 77.9852 177.28 78.089C177.307 78.1927 177.337 78.2937 177.37 78.392C177.408 78.4958 177.449 78.5941 177.493 78.6869C177.542 78.7852 177.594 78.878 177.648 78.9654C177.703 79.0582 177.763 79.1483 177.828 79.2357C177.899 79.3231 177.973 79.4077 178.05 79.4896C178.126 79.5715 178.208 79.648 178.295 79.719C178.383 79.7954 178.473 79.8637 178.566 79.9238C178.653 79.9893 178.746 80.0493 178.844 80.104C178.942 80.1586 179.043 80.2104 179.147 80.2596C179.251 80.3033 179.357 80.3415 179.467 80.3743C179.576 80.407 179.685 80.4371 179.794 80.4644C179.903 80.4862 180.013 80.5026 180.122 80.5135C180.965 80.6036 181.883 80.3333 182.505 79.7517C182.792 79.4896 183.013 79.1456 183.226 78.8262Z" fill="#E0E5E4"/>
<path d="M13.6328 21.1016C15.0253 21.8142 16.4095 23.0101 17.6628 23.952C20.2839 25.9178 22.864 27.9164 25.5506 29.7922C34.7245 36.1593 44.1332 42.1605 53.7767 47.7959C65.8174 54.6927 78.3004 60.8522 90.808 66.8398C100.924 71.6889 111.122 76.3905 120.893 81.9112C119.19 81.7801 114.357 79.4949 112.465 78.7986C107.425 76.9365 102.365 75.1318 97.287 73.3844C83.5753 68.5436 69.5361 64.5546 56.0374 59.124C49.2307 56.38 42.293 53.2674 35.9368 49.5651C25.0838 43.2335 16.8519 33.3634 13.6328 21.1016Z" fill="#E0E5E4"/>
<path d="M116.706 148.703C116.706 148.785 116.722 148.875 116.714 148.957C116.509 150.128 115.174 152.438 114.666 153.683C113.383 156.878 112.195 160.108 111.103 163.373C109.129 169.361 107.589 175.463 105.632 181.451C100.537 197.087 93.5009 208.636 81.5175 219.85L81.4766 219.637C83.77 215.844 86.0635 212.027 87.9228 207.997C91.4941 200.249 94.0497 192.025 97.2769 184.129C102.257 171.908 108.81 159.327 116.706 148.703Z" fill="#E0E5E4"/>
<path d="M201.033 91.0195C201.044 91.0305 201.055 91.0414 201.065 91.0523C201.647 91.5683 201.86 93.0181 202.048 93.7553C202.403 95.1369 202.72 96.5293 202.999 97.9327C203.282 99.3306 203.525 100.737 203.728 102.151C203.935 103.565 204.102 104.982 204.227 106.402C204.358 107.827 204.451 109.253 204.506 110.678C205.669 135.718 197.355 159.873 180.408 178.466C166.803 193.406 147.464 203.211 127.167 204.128C126.364 204.243 125.545 204.259 124.742 204.3C126.839 201.72 128.264 199.001 129.673 196.011C134.612 195.167 139.543 194.193 144.31 192.62C158.907 187.82 171.365 178.171 180.441 165.877C192.072 150.125 197.822 129.984 196.995 110.473C196.79 105.681 195.987 101.062 195.274 96.3355C197.055 94.4133 198.974 92.6413 201.033 91.0195Z" fill="#4B1756"/>
<path d="M120.268 28.3992C122.463 28.3391 124.661 28.3637 126.862 28.4729C146.02 29.3084 163.852 38.1218 177.785 50.9898C180.373 53.3734 182.699 55.9863 185.075 58.5746C180.946 57.862 176.982 57.4443 172.772 57.7719C166.555 50.957 157.103 45.2971 148.633 41.7176C145.936 40.6801 143.194 39.7737 140.409 38.9982C125.658 34.9355 110.48 36.1396 96.424 42.1763C92.7462 43.749 89.3142 45.6493 85.8413 47.6315C83.1219 46.1653 80.4107 44.6746 77.6094 43.364C90.3791 34.4605 104.664 29.0708 120.268 28.3992Z" fill="#4B1756"/>
<path d="M56.9403 110.293C59.758 111.841 62.0678 113.668 65.205 114.651C65.1968 114.79 65.1804 114.929 65.1804 115.068C65.1313 117.501 65.4179 119.999 65.6719 122.424C67.5722 140.174 75.9843 158.21 88.4427 171.021C87.5826 172.675 86.8946 174.412 86.1738 176.132L85.0598 178.909C84.511 178.499 84.0278 178.024 83.5445 177.532C83.0094 176.976 82.4797 176.413 81.9555 175.845C81.4258 175.277 80.907 174.704 80.3992 174.125C79.8859 173.546 79.3808 172.959 78.8839 172.364C78.3924 171.774 77.9037 171.176 77.4177 170.57C76.9371 169.964 76.4648 169.352 76.0006 168.735C75.531 168.124 75.0723 167.504 74.6246 166.876C74.1713 166.248 73.7263 165.615 73.2894 164.976C72.8526 164.337 72.4239 163.693 72.0035 163.043C71.5885 162.393 71.1789 161.738 70.7748 161.077C70.3707 160.416 69.9748 159.753 69.5871 159.086C69.1994 158.415 68.8199 157.74 68.4486 157.063C68.0773 156.386 67.7141 155.704 67.3592 155.016C67.0043 154.328 66.6602 153.637 66.3271 152.943C65.9886 152.244 65.6582 151.543 65.336 150.838C65.0193 150.134 64.7108 149.427 64.4105 148.717C64.1047 148.007 63.8098 147.292 63.5258 146.571C63.2419 145.85 62.9661 145.126 62.6985 144.4C62.431 143.674 62.1743 142.945 61.9286 142.213C61.6774 141.481 61.4371 140.747 61.2078 140.01C60.9784 139.273 60.7573 138.533 60.5443 137.79C60.3314 137.047 60.1266 136.302 59.93 135.554C59.7389 134.806 59.5559 134.055 59.3812 133.301C59.2065 132.548 59.0399 131.791 58.8816 131.032C58.7232 130.279 58.5758 129.52 58.4392 128.755C58.3027 127.996 58.1744 127.235 58.0543 126.47C57.9341 125.706 57.8222 124.941 57.7184 124.177C57.6202 123.407 57.5301 122.639 57.4481 121.875C57.3662 121.105 57.2952 120.335 57.2352 119.565C57.1696 118.795 57.115 118.022 57.0714 117.247C57.0277 116.477 56.9949 115.704 56.9731 114.929C56.9458 114.159 56.9294 113.386 56.9239 112.611C56.9185 111.841 56.9239 111.068 56.9403 110.293Z" fill="#4B1756"/>
</svg>
