<svg width="257" height="139" viewBox="0 0 257 139" fill="none" xmlns="http://www.w3.org/2000/svg">
<path d="M7.3929 97.491C10.7076 95.0422 18.4057 93.6757 22.4915 92.3634C25.6303 91.3622 28.715 90.1446 31.7726 88.9134C44.6524 83.6641 57.7081 75.8848 68.9373 67.6996C78.1237 60.9891 84.8071 54.2381 92.9381 46.4993C101.678 38.2195 110.319 29.8404 118.86 21.3621C123.397 16.7892 128.01 12.2975 132.701 7.88695C134.635 6.06051 136.61 3.84171 138.789 2.33997C140.696 1.02764 142.807 0.5 145.107 0.83823C149.341 1.43352 151.682 5.69522 154.293 8.65812C157.955 12.8612 161.802 16.8794 165.834 20.7127C173.762 28.2349 181.122 34.0795 192.689 32.5237C197.641 31.8607 202.078 30.0478 206.151 27.1255C213.01 22.1873 218.368 14.8951 222.71 7.71107C224.131 5.34346 225.389 2.78644 226.918 0.5C229.786 7.69754 232.046 15.2468 234.318 22.6609C230.801 26.1243 227.229 29.4796 223.292 32.4695C213.659 39.7753 201.064 45.6335 188.806 45.5523C176.698 45.4847 166.591 39.7483 157.932 31.7525C144.863 34.5801 133.458 44.4835 126.369 55.4963C121.052 63.7626 119.604 73.206 120.064 82.8523C123.677 78.3742 127.803 73.8013 132.484 70.4325C147.258 59.8121 170.718 57.3633 188.346 55.0904C196.112 54.1028 202.674 52.8581 209.858 49.5028C210.886 49.0158 212.131 48.5964 213.064 47.974L213.226 48.0552L213.429 47.9199C212.888 48.5828 211.643 49.0428 210.872 49.4758C202.782 54.1028 195.219 56.2674 186.411 59.0409C180.819 60.8268 175.241 62.6577 169.676 64.5338C165.752 65.8732 161.856 67.4696 158.081 69.1878C150.451 72.6784 142.577 77.346 136.543 83.2582C134.473 85.2876 132.349 88.5752 130.103 90.1581C128.831 91.0646 127.235 91.7546 125.855 92.4852C122.355 94.3612 118.811 96.1426 115.221 97.8292C93.7634 108.017 71.0749 117.162 47.2635 119.719C40.9995 120.382 34.3296 120.91 28.0385 120.396C23.7091 120.518 19.0145 119.909 14.7257 119.3C10.3829 118.678 4.52471 117.771 1.76475 113.929C0.384768 112.008 0.0871275 109.64 0.520062 107.367C1.2777 103.268 4.02413 99.8315 7.3929 97.491Z" fill="url(#paint0_linear_40_23666)"/>
<path d="M247.777 54.5898C247.804 54.6169 247.831 54.6304 247.858 54.6575C248.643 55.4828 249.333 59.3251 249.685 60.6103C253.094 72.9761 256.788 85.9506 256.287 98.898L188.966 114.971C175.4 118.281 161.79 121.406 148.134 124.346C138.42 126.525 128.761 128.906 119.006 130.895C93.3411 136.158 65.5927 139.905 39.3595 138.444C29.0638 137.862 17.591 136.631 8.51292 131.355C4.42709 128.784 1.82948 125.429 0.476562 120.815C4.58944 123.738 7.78234 125.145 12.6258 126.498C45.3124 135.684 91.907 122.912 123.024 110.912C139.814 104.445 156.076 96.6522 173.515 91.9981C179.847 90.307 186.422 89.0082 192.97 88.4399C197.11 88.0882 201.25 88.1694 205.39 87.9394C206.382 87.8853 207.37 87.8041 208.353 87.6958C209.345 87.5786 210.333 87.4388 211.316 87.2764C212.29 87.1051 213.264 86.9066 214.238 86.6811C215.203 86.4557 216.164 86.2031 217.12 85.9235C218.067 85.6439 219.009 85.3372 219.948 85.0035C220.886 84.6698 221.815 84.309 222.735 83.9212C223.646 83.5333 224.547 83.123 225.44 82.69C226.333 82.2481 227.213 81.7836 228.079 81.2965C238.347 75.4654 244.733 65.7785 247.777 54.5898Z" fill="#45155D"/>
<path d="M255.706 106.082C255.895 106.258 255.841 106.15 255.841 106.461C255.827 107.814 255.354 109.464 255.043 110.79C253.406 117.852 250.186 123.697 245.045 128.838C240.58 133.316 234.411 136.672 228.228 137.997C222.911 139.147 217.431 138.89 212.02 138.877L195.176 138.823L133.834 138.877C133.523 138.863 133.699 138.89 133.32 138.755C133.997 138.376 139.003 137.132 140.234 136.766C151.012 133.673 161.831 130.723 172.69 127.918C191.776 122.669 210.901 117.577 230.068 112.644L246.682 108.396C249.672 107.624 252.675 106.691 255.706 106.082Z" fill="#45155D"/>
<defs>
<linearGradient id="paint0_linear_40_23666" x1="6.57249" y1="150.316" x2="254.192" y2="98.3478" gradientUnits="userSpaceOnUse">
<stop stop-color="#FF2574"/>
<stop offset="1" stop-color="#930097"/>
</linearGradient>
</defs>
</svg>
