<svg width="257" height="256" viewBox="0 0 257 256" fill="none" xmlns="http://www.w3.org/2000/svg">
<path fill-rule="evenodd" clip-rule="evenodd" d="M106.955 188.69C117.099 185.822 122.65 181.988 123.606 177.187C129.428 193.241 119.685 205.45 94.3767 213.813C80.8213 206.297 73.2181 202.169 71.5671 201.431C95.1588 192.937 106.955 188.69 106.955 188.69ZM71.5671 201.431C71.5237 201.452 71.4694 201.463 71.4042 201.463C71.1218 201.268 71.1761 201.257 71.5671 201.431ZM164.142 169.953L166.064 168.422C165.912 177.98 164.945 185.996 163.164 192.47C162.686 194.295 162.132 195.989 161.502 197.553C158.526 197.64 156.756 196.402 156.191 193.838C153.41 195.663 149.554 198.248 144.623 201.594C148.49 198.791 151.803 195.272 154.562 191.036L154.203 190.971C156.006 188.603 157.516 185.942 158.732 182.987L158.895 182.564L158.993 182.336L159.026 182.303C160.286 179.066 161.231 175.515 161.861 171.648C161.861 171.648 162.643 170.725 164.207 168.878L164.142 169.953Z" fill="#B3B3B3"/>
<path fill-rule="evenodd" clip-rule="evenodd" d="M31.9129 185.104C29.5342 155.581 46.5763 120.357 77.1737 112.341C101.71 105.889 127.55 115.339 137.196 99.6327C107.608 92.5943 81.6162 94.1149 59.2193 104.195C59.9579 99.2851 62.1737 94.3865 65.8667 89.4987C45.8159 97.0585 32.4669 112.406 25.8195 135.542C24.3858 126.613 23.7666 119.901 24.7116 109.864C14.7623 124.919 9.98312 146.642 10.3741 175.035C-17.8229 108.387 12.3836 50.7984 100.993 2.26823C105.197 -0.0453135 108.618 -1.57682 107.217 5.36382C103.014 26.1857 104.219 40.5232 112.757 52.5797C121.881 66.7217 131.048 77.3662 140.259 84.5132C153.521 89.6291 156.616 93.9629 151.272 100.741C139.607 116.74 117.351 122.149 90.9247 119.868C91.5547 122.127 92.2715 124.354 93.0753 126.548H93.1405C93.7053 128.156 94.2592 129.633 94.8023 130.98C95.6821 133.065 96.2686 134.336 97.2788 136.389C87.1448 136.975 68.5712 140.038 62.3475 143.655C56.9058 146.816 59.5452 153.431 61.9891 157.602C69.7117 170.929 85.0268 172.721 105.295 171.222C112.442 165.9 118.025 166.487 122.043 172.982C130.168 188.492 115.059 198.561 76.7175 203.188C105.49 220.263 137.196 212.736 154.205 190.969C201.486 181.715 207.873 139.354 178.416 133.456C180.566 126.32 163.199 96.2113 159.777 89.6616C158.604 87.6414 157.496 85.5885 156.519 83.4705V83.4379C155.411 81.0918 154.433 78.6804 153.651 76.2366C149.415 62.8332 150.164 50.592 155.899 39.5131C167.532 16.9967 193.242 7.93805 217.29 14.8135C229.651 18.3327 242.609 25.8382 256.164 37.3299C196.696 57.9889 238.405 88.3908 244.108 128.862C253.264 193.673 201.095 252.49 138.564 255.553C78.9659 259.17 35.3344 227.008 31.9129 185.104ZM112.333 144.926C133.351 144.111 150.49 145.838 150.588 148.804C150.718 151.736 133.774 154.799 112.757 155.614C91.7393 156.396 74.5995 154.669 74.5017 151.704C74.404 148.771 91.3157 145.708 112.333 144.926ZM188.55 83.0143C188.506 70.8491 191.515 61.5298 197.576 55.0562C200.335 66.0265 204.94 72.5001 211.392 74.477C208.785 66.3633 209.763 57.5327 214.097 50.1684C218.398 42.8042 225.632 37.6231 234.006 35.8961C222.406 25.8599 206.439 22.5362 191.808 27.1307C177.178 31.7252 166.001 43.5536 162.221 58.4451C169.564 52.7535 176.352 49.9621 182.587 50.0707C180.349 63.4089 182.337 74.3901 188.55 83.0143ZM161.863 171.646C162.742 167.964 163.753 160.534 163.524 149.39C177.08 139.582 190.505 164.868 161.863 171.646Z" fill="#1A1A1A"/>
</svg>
