<svg width="153" height="257" viewBox="0 0 153 257" fill="none" xmlns="http://www.w3.org/2000/svg">
<path d="M115.387 45.3869H70.1016V0.101562C95.1153 0.101562 115.387 20.3731 115.387 45.3869Z" fill="#29003C"/>
<path d="M70.1016 77.8264V45.3867H102.541C102.541 63.2872 88.0281 77.8264 70.1016 77.8264Z" fill="#3F0060"/>
<path d="M70.1016 256.103V91.4297C115.595 91.4297 152.438 128.299 152.438 173.767C152.438 219.26 115.595 256.103 70.1016 256.103Z" fill="#BA0000"/>
<path d="M70.1031 138.563V0.101562C31.879 0.101562 0.898438 31.0821 0.898438 69.3323C0.898438 91.3757 11.2166 111.022 27.2931 123.711C31.879 127.333 34.5107 132.909 34.5107 138.745V157.089C34.5107 160.085 32.0874 162.482 29.1171 162.482H28.6741C26.9805 162.482 25.5995 163.863 25.5995 165.583C25.5995 167.277 26.9805 168.658 28.6741 168.658H34.5107H39.5395H45.376C47.0696 168.658 48.4506 167.277 48.4506 165.583C48.4506 163.863 47.0696 162.482 45.376 162.482H44.933C41.9627 162.482 39.5395 160.085 39.5395 157.089C39.5395 145.52 49.7013 136.505 61.1659 137.99C64.1102 138.355 67.0806 138.563 70.1031 138.563Z" fill="#FF7101"/>
<path d="M59.9666 34.9885C59.9666 41.737 54.4948 47.2088 47.7463 47.2088C40.9718 47.2088 35.5 41.737 35.5 34.9885C35.5 28.2139 40.9718 22.7422 47.7463 22.7422C54.4948 22.7422 59.9666 28.2139 59.9666 34.9885Z" fill="white"/>
<path d="M58.3759 33.3494C58.3759 37.7268 54.8062 41.2704 50.4288 41.2704C46.0514 41.2704 42.5078 37.7268 42.5078 33.3494C42.5078 28.972 46.0514 25.4023 50.4288 25.4023C54.8062 25.4023 58.3759 28.972 58.3759 33.3494Z" fill="black"/>
</svg>
