<svg width="257" height="230" viewBox="0 0 257 230" fill="none" xmlns="http://www.w3.org/2000/svg">
<path d="M119.946 205.523C120.011 219.619 105.156 234.398 90.0163 228.382C101.542 226.702 110.883 225.947 119.946 205.523ZM75.1388 38.838L59.5254 21.1333C48.8117 34.4745 46.2982 63.2885 65.6666 71.7302C68.5489 65.9313 56.4853 56.229 59.7897 41.4751C62.9135 46.8842 65.5658 54.3429 69.1973 60.8948C73.4542 68.5721 77.7911 74.603 83.0082 81.9686C89.0638 90.5129 105.664 114.473 97.0168 123.504C90.1266 121.067 84.7631 111.231 64.8566 103.753C53.7912 99.6011 41.7941 99.1143 31.6451 90.3133C36.1701 90.9179 61.8374 98.8634 68.6345 96.8119C71.8457 77.9512 22.5569 71.5172 11.2861 74.9243C8.92473 85.2692 26.7873 115.789 49.6445 116.464C55.7704 116.644 57.5595 115.536 62.3089 113.766C63.7938 113.212 63.482 113.229 64.8642 112.916C75.4506 110.524 93.2447 137.368 99.1938 143.068C104.472 148.124 105.417 149.059 109.388 154.725C103.508 153.373 96.7963 145.314 80.9187 143.106C70.0585 141.595 62.7918 146.511 52.4451 132.699C61.4248 135.446 68.6003 140.737 76.3042 136.942C71.3894 128.474 66.8758 125.907 58.9589 124.996C53.8026 124.403 43.9882 122.947 39.0087 125.122C43.8969 136.48 44.6061 138.121 56.0043 146.327C44.7107 156.704 39.794 172.449 44.8552 180.006C64.7483 163.961 75.8746 173.114 85.2327 163.111C80.451 158.105 64.1912 159.864 58.0348 161.41C84.6566 137.047 137.634 179.567 111.362 208.936C112.048 203.078 117.001 193.148 111.339 185.75C112.316 204.269 93.2599 222.622 74.1083 217.827C61.9173 214.775 48.2185 197.913 38.733 188.389C-6.16765 143.304 -11.4627 150.091 21.9105 118.247C28.7323 110.64 20.0358 110.651 12.3375 97.1693C-10.7916 56.653 26.8918 68.8459 52.9299 72.2264C50.7815 63.4957 40.3472 55.2879 47.8212 30.5864C49.7357 24.2533 54.5498 12.6859 62.2804 15.8287C65.3719 17.0854 82.8276 38.1554 87.0332 43.8745C88.7462 31.6892 93.9919 19.2738 107.124 8.60571C111.36 5.16249 119.823 -0.545154 124.827 0.133603C131.221 0.0784662 130.749 10.7447 130.466 15.245C151.025 31.4534 144.056 23.9243 140.634 38.9882C139.545 43.7927 139.828 47.2455 142.729 52.7744C145.03 41.4694 146.349 32.6246 158.369 22.6752C163.062 18.789 168.035 16.1519 172.984 14.1537C179.865 11.3759 182.66 10.5203 188.092 17.2927C187.503 25.6431 184.542 23.8559 186.562 33.927C187.761 39.9236 189.254 45.1921 189.524 50.818C189.902 58.6474 185.426 74.1999 184.793 83.9136C194.634 68.7794 215.643 54.1642 239.66 73.5402C247.239 80.1395 258.422 92.6823 250.517 99.4851C245.99 103.381 243.218 100.603 237.892 101.565C233.755 102.312 227.956 104.75 224.464 107.303L244.058 126.719C265.299 149.441 261.767 145.281 212.17 194.753C200.002 206.892 192.946 216.214 178.021 217.566C166.855 218.579 153.555 212.676 146.521 198.915C146.321 198.542 146.14 198.169 145.958 197.795C145.146 208.16 146.897 218.68 151.213 228.382C139.14 213.994 136.852 188.878 145.471 172.19H145.479C154.409 152.476 183.071 140.593 198.673 152.955C190.68 153.582 185.579 152.422 175.42 154.871C174.336 155.132 171.872 155.843 171.174 156.356C165.4 160.617 169.222 157.714 169.037 160.062C171.954 169.502 184.554 169.553 190.649 168.433C199.99 166.718 206.645 161.37 215.039 165.524C217.699 164.773 216.453 165.441 217.758 163.022C213.157 153.845 209.816 144.298 198.359 138.914C180.12 130.343 174.937 142.635 160.274 147.359C142.606 153.052 138.674 164.305 130.979 179.229C132.755 160.769 159.607 100.118 182.749 116.498C172.07 117.766 167.986 121.07 161.774 127.66C174.331 137.06 194.153 120.551 198.127 115.859C194.84 112.44 188.442 110.094 184.742 109.254C177.943 107.71 176.12 110.157 170.593 109.138C200.41 85.8757 189.989 113.007 217.704 102.759C222.083 101.141 227.196 98.3976 232.044 96.694C238.381 94.4676 241.592 95.5076 246.52 94.0151C243.952 81.4762 215.461 54.0311 188.919 86.2218L193.895 85.2331C203.181 83.7558 218.235 83.1987 227.224 87.1743C207.031 87.699 190.991 89.2372 172.072 99.3615C164.9 103.2 157.995 110.246 152.837 112.878C150.464 107.261 157.025 98.696 161.366 89.6497C166.035 79.919 174.715 76.2267 179.964 66.0434C187.497 51.4302 180.177 39.9179 179.679 30.5389C179.593 28.8905 179.639 26.5538 179.996 24.6868L181.304 19.5115C181.352 19.3175 181.462 18.9145 181.495 18.6103C171.484 18.1387 157.242 30.1396 152.508 39.8723C148.865 47.3633 146.849 64.9483 155.11 71.2777C160.592 63.0813 156.358 46.4526 166.94 37.1535C163.263 55.7404 165.438 49.4395 163.697 65.1593C162.757 73.6277 157.78 86.6971 150.701 95.3593C149.506 91.9636 150.16 94.9106 149.878 91.3837C149.726 89.4558 150.084 89.6726 149.912 87.1192C149.397 79.4057 143.849 68.6615 138.282 62.5432C134.752 65.6157 124.441 86.4537 122.789 91.4066C119.498 101.272 121.057 111.146 129.721 120.905C135.679 109.296 136.415 94.0189 138.1 83.4687C140.495 89.1535 141.568 96.4468 141.109 101.468C139.727 116.627 135.645 122.991 130.255 136.91C127.704 143.502 126.521 149.886 124.074 155.531C123.207 143.994 123.391 143.897 123.834 137.802C123.036 133.436 114.387 129.373 110.871 104.86C105.213 65.4255 120.722 72.8557 128.089 55.8469C133.187 44.0779 129.411 35.2351 126.194 22.9585C124.293 15.6994 125.542 12.1611 124.583 6.18348C103.171 9.35862 83.6242 47.8767 100.283 62.1458C102.875 57.5105 101.932 51.0822 103.519 44.905C105.059 38.9083 107.392 32.6645 112.25 26.474C108.267 35.7104 105.759 85.1 100.182 92.4789C90.9289 82.1739 81.4187 74.122 83.6014 66.8534C86.729 56.4401 87.6568 53.2136 75.1388 38.838Z" fill="url(#paint0_linear_40_11868)"/>
<defs>
<linearGradient id="paint0_linear_40_11868" x1="252.36" y1="320.453" x2="-10.1847" y2="221.865" gradientUnits="userSpaceOnUse">
<stop stop-color="#0CA3B5"/>
<stop offset="1" stop-color="#C8D72A"/>
</linearGradient>
</defs>
</svg>
