<svg width="257" height="232" viewBox="0 0 257 232" fill="none" xmlns="http://www.w3.org/2000/svg">
<path d="M117.398 37.149C121.61 27.5151 124.048 18.2905 132.011 10.788C135.353 7.65066 139.156 5.29761 143.418 3.64365C143.725 3.51861 144.038 3.39926 144.356 3.28559C144.663 3.17191 144.976 3.06392 145.294 2.96161C145.601 2.8593 145.913 2.76269 146.232 2.67175C146.55 2.56945 146.868 2.47281 147.187 2.38187C147.505 2.3023 147.823 2.22272 148.141 2.14315C148.46 2.05221 148.784 1.97266 149.113 1.90445C149.432 1.83625 149.75 1.76803 150.068 1.69983C150.398 1.63162 150.722 1.56911 151.04 1.51227C151.37 1.45543 151.699 1.40428 152.029 1.35881C152.359 1.30197 152.683 1.25651 153.001 1.22241C153.331 1.17694 153.66 1.13714 153.99 1.10304C154.32 1.06894 154.649 1.04052 154.979 1.01779C155.309 0.995052 155.638 0.972313 155.968 0.949578C156.298 0.938211 156.627 0.926852 156.957 0.915484C157.286 0.904117 157.616 0.898438 157.946 0.898438C158.275 0.898438 158.605 0.898438 158.935 0.898438C159.264 0.909805 159.594 0.921164 159.924 0.932531C160.253 0.943899 160.583 0.960958 160.913 0.983693C161.242 1.00643 161.572 1.03485 161.902 1.06895C162.231 1.10305 162.561 1.13715 162.891 1.17125C163.22 1.20535 163.55 1.25083 163.88 1.30767C164.209 1.35314 164.533 1.39859 164.851 1.44406C165.181 1.5009 165.505 1.56342 165.823 1.63162C166.153 1.68846 166.477 1.75099 166.795 1.8192C167.125 1.89877 167.449 1.97265 167.767 2.04085C168.085 2.12042 168.404 2.20568 168.722 2.29662C169.04 2.37619 169.359 2.46712 169.677 2.56943C169.995 2.66037 170.313 2.757 170.632 2.85931C170.939 2.96162 171.251 3.06391 171.57 3.16622C171.877 3.27989 172.183 3.39356 172.49 3.50724C172.809 3.62091 173.121 3.74028 173.428 3.86533C173.735 3.99037 174.036 4.1154 174.332 4.24044C174.639 4.37685 174.94 4.51894 175.236 4.66672C175.542 4.81449 175.844 4.96226 176.139 5.11004C176.435 5.25782 176.725 5.41129 177.009 5.57043C177.304 5.72957 177.6 5.8887 177.896 6.04785C178.18 6.21836 178.464 6.38887 178.748 6.55938C179.032 6.72989 179.316 6.90608 179.601 7.08796C179.873 7.25847 180.146 7.44036 180.419 7.6336C180.703 7.81548 180.976 8.00303 181.238 8.19628C181.51 8.38952 181.783 8.58277 182.056 8.77602C182.317 8.98063 182.579 9.18524 182.84 9.38985C183.102 9.59446 183.363 9.79909 183.625 10.0037C183.875 10.2197 184.125 10.4357 184.375 10.6516C184.625 10.8676 184.875 11.0893 185.125 11.3166C185.364 11.544 185.608 11.7713 185.858 11.9987C186.097 12.226 186.33 12.459 186.557 12.6978C186.796 12.9365 187.029 13.1752 187.257 13.4139C187.484 13.6526 187.711 13.897 187.939 14.1471C188.155 14.3858 188.371 14.6302 188.587 14.8803C188.802 15.1418 189.018 15.3975 189.234 15.6476C189.439 15.9091 189.644 16.1705 189.848 16.4319C190.053 16.6934 190.258 16.9548 190.462 17.2163C190.655 17.4891 190.849 17.7619 191.042 18.0347C191.235 18.3076 191.423 18.5804 191.605 18.8532C191.786 19.126 191.968 19.4045 192.15 19.6887C192.321 19.9729 192.491 20.2571 192.662 20.5412C192.832 20.8254 192.997 21.1096 193.156 21.3938C193.327 21.6894 193.492 21.9849 193.651 22.2805C193.798 22.5647 193.946 22.8545 194.094 23.1501C194.253 23.457 194.401 23.7582 194.537 24.0538C194.685 24.3493 194.822 24.6506 194.947 24.9575C195.083 25.2644 195.214 25.5713 195.339 25.8782C195.475 26.1852 195.6 26.4921 195.714 26.799C199.243 36.1089 199.09 45.5722 195.799 54.865C194.503 58.514 192.832 62.2822 191.98 66.0505C198.681 68.4718 205.314 71.3705 212.151 73.4507C207.149 87.8304 201.858 102.102 196.277 116.266L194.571 120.767C198.289 122.387 202.091 123.905 205.944 125.167C207.479 120.716 209.235 116.385 210.889 112.003L218.596 91.5248C220.25 87.245 221.512 82.7606 223.302 78.549L239.893 84.5339C245.384 86.4777 250.993 88.3192 256.33 90.6211C250.499 104.944 245.332 119.506 239.978 133.999C236.347 143.82 232.442 153.539 228.929 163.395C225.087 174.296 221.109 185.152 216.994 195.962C215.237 200.652 213.447 206.21 211.503 210.712C210.719 212.502 209.406 214.906 207.991 216.27C207.172 216.424 206.234 217.345 205.518 217.771C202.807 219.391 199.601 219.902 196.481 219.987C189.507 220.158 181.613 217.276 176.531 212.468C174.008 209.228 172.252 206.057 170.205 202.51L163.88 191.529L145.447 159.968L109.367 98.4305C103.519 88.4045 97.5339 78.5489 91.9752 68.3695C92.6232 66.4086 93.4757 64.4648 94.1748 62.521L101.746 41.6505C91.8388 38.479 82.1197 34.8641 72.3495 31.3005C67.9844 29.7147 63.5341 28.3336 59.2031 26.6455L62.3746 16.9605C66.4668 18.1541 70.4909 19.8422 74.4979 21.2574C84.7172 24.8609 94.8739 28.6064 104.968 32.494C109.094 34.0457 113.204 35.8701 117.398 37.149Z" fill="#E76B4C"/>
<path d="M117.398 37.149C121.61 27.5151 124.048 18.2905 132.011 10.788C135.353 7.65066 139.156 5.29761 143.418 3.64365C143.725 3.51861 144.038 3.39926 144.356 3.28559C144.663 3.17191 144.976 3.06392 145.294 2.96161C145.601 2.8593 145.914 2.76269 146.232 2.67175C146.55 2.56945 146.868 2.47281 147.187 2.38187C147.505 2.3023 147.823 2.22272 148.141 2.14315C148.46 2.05221 148.784 1.97266 149.113 1.90445C149.432 1.83625 149.75 1.76803 150.068 1.69983C150.398 1.63162 150.722 1.56911 151.04 1.51227C151.37 1.45543 151.699 1.40428 152.029 1.35881C152.359 1.30197 152.683 1.25651 153.001 1.22241C153.331 1.17694 153.66 1.13714 153.99 1.10304C154.32 1.06894 154.649 1.04052 154.979 1.01779C155.309 0.995052 155.638 0.972313 155.968 0.949578C156.298 0.938211 156.627 0.926852 156.957 0.915484C157.287 0.904117 157.616 0.898438 157.946 0.898438C158.276 0.898438 158.605 0.898438 158.935 0.898438C159.264 0.909805 159.594 0.921164 159.924 0.932531C160.253 0.943899 160.583 0.960958 160.913 0.983693C161.242 1.00643 161.572 1.03485 161.902 1.06895C162.231 1.10305 162.561 1.13715 162.891 1.17125C163.22 1.20535 163.55 1.25083 163.88 1.30767C164.209 1.35314 164.533 1.39859 164.852 1.44406C165.181 1.5009 165.505 1.56342 165.823 1.63162C166.153 1.68846 166.477 1.75099 166.795 1.8192C167.125 1.89877 167.449 1.97265 167.767 2.04085C168.086 2.12042 168.404 2.20568 168.722 2.29662C169.04 2.37619 169.359 2.46712 169.677 2.56943C169.995 2.66037 170.314 2.757 170.632 2.85931C170.939 2.96162 171.251 3.06391 171.57 3.16622C171.877 3.27989 172.183 3.39356 172.49 3.50724C172.809 3.62091 173.121 3.74028 173.428 3.86533C173.735 3.99037 174.036 4.1154 174.332 4.24044C174.639 4.37685 174.94 4.51894 175.236 4.66672C175.543 4.81449 175.844 4.96226 176.139 5.11004C176.435 5.25782 176.725 5.41129 177.009 5.57043C177.304 5.72957 177.6 5.8887 177.896 6.04785C178.18 6.21836 178.464 6.38887 178.748 6.55938C179.032 6.72989 179.317 6.90608 179.601 7.08796C179.874 7.25847 180.146 7.44036 180.419 7.6336C180.703 7.81548 180.976 8.00303 181.238 8.19628C181.51 8.38952 181.783 8.58277 182.056 8.77602C182.318 8.98063 182.579 9.18524 182.84 9.38985C183.102 9.59446 183.363 9.79909 183.625 10.0037C183.875 10.2197 184.125 10.4357 184.375 10.6516C184.625 10.8676 184.875 11.0893 185.125 11.3166C185.364 11.544 185.608 11.7713 185.858 11.9987C186.097 12.226 186.33 12.459 186.558 12.6978C186.796 12.9365 187.029 13.1752 187.257 13.4139C187.484 13.6526 187.711 13.897 187.939 14.1471C188.155 14.3858 188.371 14.6302 188.587 14.8803C188.803 15.1418 189.019 15.3975 189.235 15.6476C189.439 15.9091 189.644 16.1705 189.848 16.4319C190.053 16.6934 190.258 16.9548 190.462 17.2163C190.655 17.4891 190.849 17.7619 191.042 18.0347C191.235 18.3076 191.423 18.5804 191.605 18.8532C191.787 19.126 191.968 19.4045 192.15 19.6887C192.321 19.9729 192.491 20.2571 192.662 20.5412C192.832 20.8254 192.997 21.1096 193.156 21.3938C193.327 21.6894 193.492 21.9849 193.651 22.2805C193.799 22.5647 193.946 22.8545 194.094 23.1501C194.253 23.457 194.401 23.7582 194.537 24.0538C194.685 24.3493 194.822 24.6506 194.947 24.9575C195.083 25.2644 195.214 25.5713 195.339 25.8782C195.475 26.1852 195.6 26.4921 195.714 26.799C199.244 36.1089 199.09 45.5722 195.799 54.865C194.503 58.514 192.832 62.2822 191.98 66.0505C198.681 68.4718 205.314 71.3705 212.151 73.4507C207.15 87.8304 201.858 102.102 196.277 116.266C193.872 114.407 183.42 110.997 179.976 109.667L133.887 91.934C133.205 93.6391 132.591 95.3613 131.994 97.0834C128.004 95.7535 123.997 94.3212 120.11 92.7354C122.94 85.915 125.31 78.8559 128.004 71.9672C131.466 63.1689 135.251 54.4558 138.15 45.4358C133.972 43.5772 129.573 41.9403 125.242 40.4398C122.599 39.485 119.854 38.5301 117.398 37.149Z" fill="#FEFEFE"/>
<path d="M149.911 50.1914C153.935 51.3168 157.754 53.1242 161.676 54.5565C168.991 57.2505 176.476 59.7059 183.621 62.7921C186.366 63.8834 189.145 65.1793 191.976 66.0489C198.677 68.4701 205.31 71.3688 212.147 73.4491C207.146 87.8288 201.854 102.101 196.273 116.264C193.868 114.406 183.416 110.995 179.972 109.666L133.883 91.9324L149.911 50.1914Z" fill="#F59335"/>
<path d="M117.398 37.149C121.61 27.5151 124.048 18.2905 132.011 10.7881C135.353 7.65066 139.156 5.29761 143.418 3.64365C143.725 3.51861 144.038 3.39926 144.356 3.28559C144.663 3.17191 144.976 3.06392 145.294 2.96161C145.601 2.8593 145.914 2.76269 146.232 2.67175C146.55 2.56945 146.868 2.47281 147.187 2.38187C147.505 2.3023 147.823 2.22272 148.141 2.14315C148.46 2.05221 148.784 1.97266 149.113 1.90445C149.432 1.83625 149.75 1.76803 150.068 1.69983C150.398 1.63162 150.722 1.56911 151.04 1.51227C151.37 1.45543 151.699 1.40428 152.029 1.35881C152.359 1.30197 152.683 1.25651 153.001 1.22241C153.331 1.17694 153.66 1.13714 153.99 1.10304C154.32 1.06894 154.649 1.04052 154.979 1.01779C155.309 0.995052 155.638 0.972313 155.968 0.949578C156.298 0.938211 156.627 0.926852 156.957 0.915484C157.287 0.904117 157.616 0.898438 157.946 0.898438C158.276 0.898438 158.605 0.898438 158.935 0.898438C159.264 0.909805 159.594 0.921164 159.924 0.932531C160.253 0.943899 160.583 0.960958 160.913 0.983693C161.242 1.00643 161.572 1.03485 161.902 1.06895C162.231 1.10305 162.561 1.13715 162.891 1.17125C163.22 1.20535 163.55 1.25083 163.88 1.30767C164.209 1.35314 164.533 1.39859 164.852 1.44406C165.181 1.5009 165.505 1.56342 165.823 1.63162C166.153 1.68846 166.477 1.75099 166.795 1.8192C167.125 1.89877 167.449 1.97265 167.767 2.04085C168.086 2.12042 168.404 2.20568 168.722 2.29662C169.04 2.37619 169.359 2.46712 169.677 2.56943C169.995 2.66037 170.314 2.757 170.632 2.85931C170.939 2.96162 171.251 3.06391 171.57 3.16622C171.877 3.27989 172.183 3.39356 172.49 3.50724C172.809 3.62091 173.121 3.74028 173.428 3.86533C173.735 3.99037 174.036 4.1154 174.332 4.24044C174.639 4.37685 174.94 4.51894 175.236 4.66672C175.543 4.81449 175.844 4.96226 176.139 5.11004C176.435 5.25782 176.725 5.41129 177.009 5.57043C177.304 5.72957 177.6 5.88871 177.896 6.04785C178.18 6.21836 178.464 6.38887 178.748 6.55938C179.032 6.72989 179.317 6.90608 179.601 7.08796C179.874 7.25847 180.146 7.44036 180.419 7.63361C180.703 7.81548 180.976 8.00303 181.238 8.19628C181.51 8.38952 181.783 8.58277 182.056 8.77602C182.318 8.98063 182.579 9.18524 182.84 9.38985C183.102 9.59446 183.363 9.79909 183.625 10.0037C183.875 10.2197 184.125 10.4357 184.375 10.6516C184.625 10.8676 184.875 11.0893 185.125 11.3166C185.364 11.544 185.608 11.7713 185.858 11.9987C186.097 12.226 186.33 12.459 186.558 12.6978C186.796 12.9365 187.029 13.1752 187.257 13.4139C187.484 13.6526 187.711 13.897 187.939 14.1471C188.155 14.3858 188.371 14.6302 188.587 14.8803C188.803 15.1418 189.019 15.3975 189.235 15.6476C189.439 15.9091 189.644 16.1705 189.848 16.4319C190.053 16.6934 190.258 16.9548 190.462 17.2163C190.655 17.4891 190.849 17.7619 191.042 18.0348C191.235 18.3076 191.423 18.5804 191.605 18.8532C191.787 19.126 191.968 19.4045 192.15 19.6887C192.321 19.9729 192.491 20.2571 192.662 20.5412C192.832 20.8254 192.997 21.1096 193.156 21.3938C193.327 21.6894 193.492 21.9849 193.651 22.2805C193.799 22.5647 193.946 22.8545 194.094 23.1501C194.253 23.457 194.401 23.7582 194.537 24.0538C194.685 24.3493 194.822 24.6506 194.947 24.9575C195.083 25.2644 195.214 25.5713 195.339 25.8782C195.475 26.1852 195.6 26.4921 195.714 26.799C199.244 36.1089 199.09 45.5722 195.799 54.865C194.503 58.514 192.832 62.2822 191.98 66.0505C189.149 65.1809 186.37 63.885 183.625 62.7938C187.308 50.4829 192.866 44.498 187.99 30.7378C185.176 22.792 178.765 16.0398 171.195 12.442C163.777 8.92948 154.774 8.81013 147.118 11.5553C132.744 16.6707 130.988 28.2824 125.242 40.4398C122.599 39.485 119.854 38.5301 117.398 37.149Z" fill="#135963"/>
<path d="M74.0558 114.985C77.6025 106.204 80.3477 96.7578 84.1671 88.1641C89.8281 96.9795 94.807 106.358 100.076 115.429C114.137 140.096 128.369 164.661 142.772 189.123C147.375 196.865 151.706 204.844 156.566 212.415C153.377 212.398 149.2 212.057 146.131 212.534C145.108 211.801 143.215 211.341 141.97 210.863C137.025 208.988 131.893 207.436 127.051 205.254C120.281 203.259 112.881 200.036 106.163 197.598C94.483 193.335 82.7007 189.345 71.0719 184.963C65.411 182.814 60.6878 179.49 58.1643 173.812C56.7661 170.657 56.1693 167.11 56.6297 163.666C57.1412 159.983 59.9205 153.657 61.2505 149.923C65.3542 138.215 69.6226 126.569 74.0558 114.985Z" fill="#22AD99"/>
<path d="M74.0558 114.988C76.0167 117.051 78.8472 122.849 80.433 125.611L90.2203 142.372L118.627 190.746C119.548 192.298 126.812 204.404 127.051 205.257C120.281 203.262 112.881 200.039 106.163 197.601C94.483 193.338 82.7007 189.348 71.0719 184.966C65.411 182.817 60.6878 179.492 58.1643 173.814C56.7661 170.66 56.1693 167.113 56.6297 163.669C57.1412 159.986 59.9205 153.66 61.2505 149.926C65.3542 138.217 69.6226 126.572 74.0558 114.988Z" fill="#135963"/>
<path d="M19.9688 212.348C28.392 212.518 36.8323 212.348 45.2555 212.348H93.7657H126.572C126.572 212.348 139.616 212.723 146.129 212.535C149.199 212.058 156.565 212.433 156.565 212.433L176.515 212.484C181.596 217.31 189.507 220.191 196.498 220.004C199.619 219.935 202.824 219.407 205.535 217.804C206.269 217.361 207.206 216.44 208.008 216.287C204.512 221.862 199.261 226.551 193.105 228.973C189.985 230.2 187.035 230.814 183.676 231.002C180.675 231.155 177.64 231.053 174.639 231.053L158.713 230.899L111.686 230.968L80.0908 230.933C76.3396 230.916 69.7408 231.292 66.2283 230.609C63.7047 230.132 61.2323 228.938 58.8622 227.984L47.8302 223.499C38.5715 219.765 29.1252 216.321 19.9688 212.348Z" fill="#135963"/>
<path d="M5.55849 81.8904C8.61063 81.7029 11.731 81.8052 14.7831 81.8052L30.7429 81.8222C44.5315 81.7427 58.3258 81.7938 72.1258 81.9757C71.0857 84.3287 69.0907 91.5072 67.9142 93.0418C67.6755 93.3658 67.505 93.2805 67.1299 93.3317C53.0684 93.2067 39.007 93.1726 24.9455 93.2294L12.4471 93.2805C10.2987 93.2976 8.06499 93.4169 5.91656 93.2805C4.8935 93.2123 3.95569 92.9907 3.08609 92.4451C2.91558 92.3427 2.75075 92.2348 2.5916 92.1211C2.44383 92.0074 2.29606 91.8824 2.14828 91.7459C2.01187 91.6095 1.87546 91.4674 1.73905 91.3197C1.61401 91.1719 1.49466 91.0184 1.38098 90.8593C1.26731 90.7002 1.15931 90.5353 1.05701 90.3648C0.966069 90.1943 0.880813 90.0238 0.801242 89.8533C0.72167 89.6714 0.653474 89.4839 0.596637 89.2906C0.5398 89.1087 0.488643 88.9212 0.443174 88.7279C0.119204 87.2104 0.494327 85.7099 1.38098 84.4481C2.4552 82.9476 3.75108 82.1633 5.55849 81.8904Z" fill="#F9B35E"/>
<path d="M33.4387 55.9895C40.5661 55.8872 47.6763 56.0577 54.8037 56.0748L81.4715 55.9895C80.3291 59.2633 79.1526 62.5371 77.7544 65.7086L50.8308 65.7427C47.9151 65.7427 35.1438 66.2031 33.0636 65.4529C31.7848 64.9925 30.7105 64.0547 30.1649 62.7929C30.0967 62.6451 30.0399 62.4973 29.9944 62.3496C29.9376 62.2018 29.8921 62.054 29.858 61.9062C29.8239 61.7584 29.8011 61.605 29.7898 61.4459C29.767 61.2867 29.7557 61.1333 29.7557 60.9855C29.7443 60.8263 29.75 60.6672 29.7727 60.508C29.7841 60.3603 29.8012 60.2068 29.8239 60.0477C29.8466 59.8999 29.8807 59.7521 29.9262 59.6043C29.9717 59.4452 30.0228 59.2974 30.0797 59.161C30.6935 57.5923 31.9382 56.6545 33.4387 55.9895Z" fill="#F59335"/>
<path d="M22.5444 136.115L51.8552 136.047C50.6616 139.508 49.3657 142.936 48.121 146.38C42.9034 146.312 37.6858 146.346 32.4681 146.346H15.8604C13.0981 146.346 10.046 146.636 7.31782 146.226C6.43117 146.09 5.5786 145.595 4.91361 145.016C3.83939 144.061 3.12325 142.714 3.08915 141.265C3.038 139.917 3.60068 138.485 4.55554 137.53C5.30578 136.797 6.27769 136.473 7.30075 136.269C9.12522 135.928 11.1714 136.098 13.047 136.115H22.5444Z" fill="#F59335"/>
<path d="M48.27 110.179C52.5101 110.099 56.7444 110.071 60.9731 110.094C59.8306 113.487 58.603 116.812 57.631 120.256C50.7424 120.051 43.8197 120.222 36.9311 120.154C33.9642 120.085 28.4055 120.836 26.0525 118.875C25.0124 118.022 24.2962 116.641 24.2451 115.311C24.1939 114.015 24.8248 112.481 25.7285 111.56C26.2742 110.997 26.9562 110.622 27.7406 110.452C30.0936 109.94 32.9241 110.213 35.3453 110.213C39.6536 110.236 43.9618 110.224 48.27 110.179Z" fill="#F59335"/>
</svg>
