<svg width="257" height="184" viewBox="0 0 257 184" fill="none" xmlns="http://www.w3.org/2000/svg">
<path d="M161.003 81.8571C163.696 81.666 168.256 81.6352 170.543 83.0156C169.526 83.5271 163.258 83.8784 161.521 84.1064C157.348 84.6611 141.584 87.465 138.904 89.6466C138.405 90.0595 138.17 90.534 138.244 91.138C138.448 92.882 141.35 94.6199 142.755 95.8154C152.653 93.2394 163.147 90.6265 173.488 90.0472C184.063 89.4556 194.491 90.4169 202.761 96.7028C196.746 94.6815 191.502 93.6277 184.975 93.8434C178.603 94.0529 172.379 95.6367 166.235 96.9863C154.397 99.5438 142.7 102.563 131.176 106.033C129.007 106.692 126.535 107.185 124.465 108.017C120.57 109.595 118.321 112.744 116.952 116.146C116.213 118.001 114.574 122.13 115.597 123.985C116.835 124.539 122.363 122.561 123.83 122.136C155.999 112.929 188.519 103.451 221.81 97.7566C228.952 96.5364 249.658 93.0361 255.359 96.6227C256.265 97.1958 256.819 97.9908 256.943 98.9522C257.423 102.785 249.326 110.569 246.577 113.693C243.373 112.8 240.26 112.331 236.889 112.208C223.473 111.721 208.745 114.544 195.742 117.175C165.495 123.516 135.773 131.596 106.772 141.363C109.077 141.363 111.4 140.778 113.649 140.34C121.211 139.114 130.627 136.248 138.257 134.437C161.841 128.829 199.384 120.417 223.338 121.403C228.533 121.581 233.673 122.419 238.584 123.892C236.316 127.756 233.519 131.454 231.121 135.275C224.349 146.065 218.747 157.177 205.041 162.514C197.658 165.391 189.419 166.513 181.438 167.308C165.169 168.929 148.813 169.058 133.283 163.906C139.73 163.241 146.059 161.583 152.412 160.443L168.17 157.522C172.626 156.714 177.167 156.055 181.512 154.86C173.729 154.964 165.791 155.95 158.002 156.394C145.609 157.103 133.117 157.399 120.786 158.705C112.238 155.026 104.097 150.687 95.8948 146.472C89.5103 143.194 83.0334 140.057 76.6797 136.729C83.0025 134.93 89.4671 133.056 95.5743 130.745C97.6942 125.279 99.845 119.726 102.772 114.531C108.097 105.096 112.7 104.573 123.325 101.38C123.275 97.0664 123.664 92.6848 127.108 89.2769C130.646 85.7888 155.087 82.2207 161.003 81.8571Z" fill="#225464"/>
<path d="M95.3054 0C95.404 0.942882 86.2279 18.8207 85.1679 21.2364C71.9922 51.3593 64.899 85.0196 69.7367 117.17C70.5748 122.71 71.6039 128.213 73.348 133.6C62.9948 129.261 52.7833 125.496 41.8446 122.408C36.0826 120.769 30.0617 119.691 24.1641 118.489C28.7552 84.8285 47.2 49.9974 71.037 23.3502C78.426 15.0923 86.801 7.40131 95.3054 0Z" fill="#225464"/>
<path d="M8.3462 125.078C16.6904 124.437 27.284 127.075 35.1906 129.318C50.289 133.595 65.2087 138.845 79.05 145.637C96.1636 154.03 112.316 163.983 130.52 170.669C148.417 177.245 165.635 180.912 184.449 174.293C174.423 181.688 162.387 184.085 149.513 183.488C140.22 182.945 130.773 180.437 122.084 177.627C107.903 173.03 94.4504 167.12 80.9234 161.284C66.9158 155.238 52.7911 148.878 37.4091 145.933C33.1693 145.119 28.7137 144.392 24.3505 144.755C21.2569 145.008 18.0893 145.896 16.1173 148.096C10.9468 153.864 15.766 163.434 16.7828 169.763L16.8198 169.998C10.9037 164.747 5.42512 149.248 3.29285 141.89C2.36229 138.673 -0.336936 130.544 1.70906 127.808C3.10797 125.947 6.0044 125.473 8.3462 125.078Z" fill="#225464"/>
<path d="M98.3673 13.3281C98.9528 15.4974 98.0284 20.5446 97.8558 22.9911C97.6032 26.5839 97.3875 30.1952 97.3936 33.7942C97.4491 53.453 101.393 74.5538 108.973 93.1218C96.5863 98.7236 88.4825 112.158 83.54 123.047C82.7944 124.896 81.9686 126.727 81.1736 128.563C74.7152 101.115 77.8026 69.0629 86.5227 42.2308C89.7335 32.3583 93.9795 22.8432 98.3673 13.3281Z" fill="#69C2CD"/>
<path d="M28.7969 159.211C33.2093 159.414 38.8173 161.146 43.1373 162.175C58.1988 165.749 72.8165 169.336 86.9782 175.16C89.7267 176.294 93.0607 177.465 95.2731 179.289C92.6663 179.073 90.1396 178.753 87.5637 178.34C79.9775 176.799 72.0523 174.698 64.3182 173.995C55.2962 173.175 48.3262 175.942 41.4426 180.743C40.1669 175.449 37.819 171.247 34.3741 166.748C32.8889 164.807 29.3453 161.263 28.7969 159.211Z" fill="#69C2CD"/>
</svg>
