<svg width="256" height="257" viewBox="0 0 256 257" fill="none" xmlns="http://www.w3.org/2000/svg">
<path d="M218.751 0.5H37.249C16.6714 0.5 0 17.1714 0 37.749V219.251C0 239.828 16.6714 256.5 37.249 256.5H218.751C239.328 256.5 256 239.828 256 219.251V37.749C256.07 17.1714 239.328 0.5 218.751 0.5ZM245.258 219.321C245.258 233.899 233.399 245.827 218.751 245.827H37.249C22.6703 245.827 10.7422 233.969 10.7422 219.321V37.749C10.7422 23.1703 22.6005 11.2422 37.249 11.2422H218.751C233.329 11.2422 245.258 23.1005 245.258 37.749V219.321Z" fill="#00334A"/>
<path d="M218.753 18.4922H37.2518C26.5793 18.4922 17.9297 27.1418 17.9297 37.8142V174.882C17.9297 185.345 23.9286 194.902 33.3455 199.296C61.1776 212.48 93.474 220.014 128.003 220.014C162.531 220.014 194.828 212.48 222.66 199.296C232.077 194.832 238.076 185.276 238.076 174.882V37.7445C238.076 27.1418 229.426 18.4922 218.753 18.4922Z" fill="#98CB50"/>
<path d="M218.75 18.4922H129.883V219.944C163.714 219.665 195.382 212.201 222.726 199.227C232.143 194.762 238.142 185.206 238.142 174.812V37.7445C238.072 27.1418 229.423 18.4922 218.75 18.4922Z" fill="#46A368"/>
<path d="M55.1088 19.4039C55.039 19.4039 55.0391 19.4039 55.0391 19.4039C55.0391 19.3341 55.1088 19.3341 55.1088 19.4039Z" fill="#00334A"/>
<path d="M199.008 44.8672C199.566 44.9369 200.054 45.0067 200.612 45.1462C200.612 45.1462 200.054 45.0067 199.008 44.8672Z" fill="#00334A"/>
<path d="M20.2266 183.749C20.2266 183.679 20.2963 183.679 20.2963 183.609C20.2963 183.679 20.2266 183.749 20.2266 183.749Z" fill="#00334A"/>
<path d="M238.068 95.0829C232.069 96.2687 215.398 100.314 196.355 110.289C202.424 109.173 210.655 108.406 219.235 110.289C224.396 109.731 231.302 108.476 238.068 105.546V108.615C234.581 110.15 230.535 111.405 225.791 112.312C230.047 113.986 234.162 116.428 238.068 119.985V121.101C230.535 116.288 212.608 108.406 183.799 117.614C176.684 122.148 169.499 127.589 162.663 134.076C177.451 133.448 188.194 137.912 195.867 143.841C202.493 145.585 220.63 148.654 234.79 134.494C234.79 134.494 231.372 142.446 220.002 146.562C226.001 153.956 232.418 157.513 238.068 159.048V161.42C227.326 159.118 219.095 150.329 216.723 147.538C212.538 148.654 207.586 149.213 201.517 148.934C210.236 158.071 213.166 168.046 213.166 168.046C193.007 136.447 168.104 137.005 157.711 138.889C150.735 146.143 144.109 154.444 138.389 164.14L139.086 178.579C144.457 171.743 152.13 164.768 162.036 162.396C166.57 156.397 167.267 147.329 167.267 147.329C169.43 153.747 168.523 158.56 167.407 161.559C174.382 161.071 182.334 162.954 191.333 168.395C188.542 166.93 167.686 156.746 147.875 175.58C152.061 178.928 166.012 188.136 187.915 182.904C187.915 182.904 171.313 194.832 144.876 178.719C143.062 180.742 141.249 183.044 139.505 185.624L142.156 238.638L143.899 252.38L115.858 252.101L117.672 238.708L119.904 195.669C112.58 195.251 92.9088 191.414 81.3992 163.373C81.748 164.001 87.5376 174.743 99.5355 183.113C99.675 168.116 88.3747 149.91 89.3512 151.166C103.511 168.953 104.976 181.439 104.907 186.392C109.301 188.763 114.393 190.717 120.113 191.902L121.717 159.606C116.904 153.328 107.418 143.632 92.4902 139.238C82.306 140.354 73.3774 142.656 65.5649 145.725C63.6118 149.771 56.4968 167.349 66.96 186.95C66.96 186.95 52.8696 173.278 61.0309 147.608C32.9895 160.164 21.3404 181.579 20.3639 183.602C25.9442 171.255 33.4778 162.257 41.4298 155.63C31.1759 158.211 23.5726 157.165 17.9922 154.723V152.491C28.5251 156.955 39.6162 154.444 46.3824 151.933C62.2167 140.842 78.8183 138.331 85.2357 137.773C81.9573 137.284 78.4695 137.075 74.7725 137.145C59.008 137.563 42.6156 133.657 28.1764 125.426C24.5492 124.798 21.1311 124.31 17.9922 124.031V121.101C19.8756 121.38 21.4102 121.659 22.6658 121.938C21.0614 120.892 19.5268 119.706 17.9922 118.52V114.475C24.9677 119.288 33.8265 124.101 44.499 127.658C19.5965 105.197 20.7126 69.7619 20.7126 69.7619C22.4565 80.4344 25.1072 89.4327 28.1764 96.9662C30.7573 93.618 40.5229 79.3183 34.9426 60.2055C35.2913 60.8333 44.3595 77.8534 29.7808 100.593C37.3143 117.056 46.8009 125.984 52.1023 129.89C58.5197 131.495 65.4951 132.611 72.9589 132.96C73.7959 133.029 74.7028 133.029 75.5398 133.099C71.9126 128.635 54.4041 105.128 59.7055 70.2502C59.7055 70.2502 59.4265 84.1314 63.8908 100.593C79.4461 80.0158 75.1213 49.1145 74.4238 44.999C81.3992 81.69 68.9829 101.64 65.5649 106.244C68.6341 115.591 73.3774 125.287 80.5622 133.518C105.046 135.889 116.835 143.353 122.345 149.143L123.043 135.331C111.812 100.105 85.5845 92.8507 83.2128 92.2229C111.394 97.1755 120.741 116.428 123.601 125.217L124.577 106.104C122.624 94.5946 119.764 84.5499 116.346 75.9003C112.649 72.2731 102.326 63.6932 88.584 65.1581C88.584 65.1581 102.116 59.2289 113.765 69.7619C106.79 54.6949 98.0009 44.0224 89.421 36.5587C62.2864 44.3712 42.8249 34.466 42.8249 34.466C66.6112 41.86 83.4221 35.6519 86.6308 34.2568C71.6336 22.3985 57.7524 19.7478 55.5202 19.399C70.8662 21.3521 83.0036 27.2813 92.4902 35.3031C91.0254 29.7227 90.5371 23.9331 90.6766 18.4922H92.9785C93.676 29.0949 96.1872 36.4191 97.8613 40.2557C114.881 57.6246 122.206 81.2017 125.205 94.7341L127.298 54.2066C120.253 28.3276 104.628 19.1897 104.139 18.9107C118.927 25.1189 125.414 38.7211 127.786 45.2082L129.181 18.4922H131.344L134.762 87.4796C138.668 76.8769 145.364 64.042 156.525 55.1134C162.594 39.9069 156.734 25.8164 152.549 18.4922H154.642C164.198 29.5134 163.989 43.4644 163.012 50.6491C172.359 45.278 184.218 42.6273 199.215 44.9292C192.728 44.0922 167.756 43.2551 147.875 72.2033C175.847 50.4398 199.145 60.5543 199.145 60.5543C168.383 56.0202 150.247 72.6916 142.923 80.2949C140.202 85.2475 137.622 90.8278 135.32 97.2453L138.04 152.7C144.806 142.586 154.851 130.937 169.29 120.683C179.684 109.662 193.844 89.921 193.495 67.9483C193.495 67.9483 199.912 91.9439 181.148 113.219C188.263 109.243 196.215 105.616 205.144 102.616C209.818 97.9428 221.188 84.2011 217.979 62.8562C217.979 62.8562 225.722 84.7592 212.957 100.175C220.699 97.9428 229.14 96.1989 238.347 95.0131V95.0829H238.068Z" fill="#00334A"/>
</svg>
