<svg width="257" height="257" viewBox="0 0 257 257" fill="none" xmlns="http://www.w3.org/2000/svg">
<path d="M128.5 0.796875C57.7735 0.796875 0.5 58.1357 0.5 128.797C0.5 199.458 57.8388 256.797 128.5 256.797C199.161 256.797 256.5 199.458 256.5 128.797C256.5 58.1357 199.227 0.796875 128.5 0.796875ZM128.5 245.695C63.9122 245.695 11.602 193.385 11.602 128.797C11.602 64.2091 63.9122 11.8989 128.5 11.8989C193.088 11.8989 245.398 64.2091 245.398 128.797C245.398 193.385 193.088 245.695 128.5 245.695Z" fill="#00334A"/>
<path d="M20.7465 99.4766C18.1996 108.815 16.8281 118.677 16.8281 128.799C16.8281 128.93 16.8281 128.995 16.8281 129.126L54.7057 117.044L20.7465 99.4766Z" fill="#46A368"/>
<path d="M95.5911 138.136L65.9421 122.789L17.2891 138.332C17.9421 146.365 19.5094 154.201 21.7952 161.646L95.5911 138.136Z" fill="#98CB50"/>
<path d="M54.5078 45.2034L118.181 78.0524V55.5218C118.181 47.6197 113.74 40.3708 106.687 36.7136L85.4629 25.7422C74.0996 30.5748 63.6507 37.1708 54.5078 45.2034Z" fill="#98CB50"/>
<path d="M69.9824 63.1629L47.7783 51.7344C40.9212 58.918 34.9783 67.016 30.2109 75.8976L69.9824 63.1629Z" fill="#46A368"/>
<path d="M106.751 143.883L24.7266 170.071C33.8041 192.862 50.1307 211.932 70.898 224.471C91.6653 237.009 118.245 221.989 118.245 197.695V162.691C118.245 154.789 113.804 147.54 106.751 143.883Z" fill="#00334A"/>
<path d="M118.248 32.661V17.6406C110.934 18.2937 103.881 19.6651 97.0234 21.6896L118.248 32.661Z" fill="#98CB50"/>
<path d="M106.757 82.1634L81.0922 68.9062L25.0595 86.8654C24.5371 88.1716 24.0146 89.543 23.4922 90.9144L118.251 139.763V100.972C118.251 93.0695 113.811 85.8205 106.757 82.1634Z" fill="#98CB50"/>
<path d="M231.945 86.8705L175.847 68.9766L150.181 82.2337C143.128 85.8909 138.688 93.1399 138.688 101.042V139.768L233.447 90.8541C232.99 89.548 232.532 88.1766 231.945 86.8705Z" fill="#98CB50"/>
<path d="M138.758 78.1149L202.431 45.2659C193.288 37.1679 182.839 30.572 171.476 25.8047L150.252 36.7761C143.199 40.4333 138.758 47.6822 138.758 55.5843V78.1149Z" fill="#98CB50"/>
<path d="M226.787 75.8976C222.02 67.0813 216.077 58.918 209.22 51.7344L187.016 63.1629L226.787 75.8976Z" fill="#46A368"/>
<path d="M159.982 21.6896C153.125 19.6651 146.072 18.2937 138.758 17.6406V32.661L159.982 21.6896Z" fill="#98CB50"/>
<path d="M150.252 143.883C143.199 147.54 138.758 154.789 138.758 162.691V197.695C138.758 221.989 165.272 237.009 186.105 224.471C206.872 211.932 223.199 192.862 232.276 170.071L150.252 143.883Z" fill="#00334A"/>
<path d="M239.716 138.332L191.063 122.789L161.414 138.071L235.21 161.646C237.496 154.201 239.063 146.365 239.716 138.332Z" fill="#98CB50"/>
<path d="M236.256 99.4766L202.297 117.044L240.174 129.126C240.174 128.995 240.174 128.93 240.174 128.799C240.109 118.677 238.738 108.815 236.256 99.4766Z" fill="#46A368"/>
</svg>
