<svg width="202" height="256" viewBox="0 0 202 256" fill="none" xmlns="http://www.w3.org/2000/svg">
<path d="M135.307 67.7707C134.935 58.2115 132.926 48.987 129.281 40.2461C128.141 40.6428 127 41.0148 125.859 41.362C128.203 49.3218 129.505 57.9883 129.505 67.064C129.505 67.2872 129.505 67.5228 129.505 67.7707H135.307Z" fill="url(#paint0_radial_40_5599)"/>
<path d="M113.062 15.8828C117.526 21.5737 121.208 28.2317 123.961 35.6336C124.878 35.3608 125.796 35.0633 126.713 34.7409C123.142 27.711 118.567 21.4249 113.062 15.8828Z" fill="url(#paint1_radial_40_5599)"/>
<path d="M135.301 73.7969H129.238C128.605 83.0213 126.597 91.7251 123.547 99.5733C125.481 100.094 127.415 100.689 129.275 101.322C132.92 92.6178 134.929 83.3561 135.301 73.7969Z" fill="url(#paint2_radial_40_5599)"/>
<path d="M151.782 113.224C161.081 102.14 166.511 88.2287 167.144 73.7969H160.188C160.188 73.8961 160.201 73.9953 160.225 74.0944C160.225 87.8568 156.394 100.764 149.773 111.773C150.443 112.245 151.112 112.728 151.782 113.224Z" fill="url(#paint3_radial_40_5599)"/>
<path d="M151.779 28.3809C150.143 29.5959 148.469 30.749 146.758 31.84C154.085 42.1432 158.809 54.4549 159.925 67.7708H167.141C166.509 53.339 161.078 39.4279 151.779 28.3809Z" fill="url(#paint4_radial_40_5599)"/>
<path d="M143.04 27.0406C144.627 26.0488 146.164 25.0073 147.652 23.9162C138.353 14.729 126.637 8.55451 113.953 6.09961C125.335 10.6003 135.303 17.8534 143.04 27.0406Z" fill="url(#paint5_radial_40_5599)"/>
<path d="M147.652 117.648C147.255 117.376 146.846 117.091 146.424 116.793C144.788 119.074 143.039 121.244 141.18 123.302C143.461 121.566 145.618 119.682 147.652 117.648Z" fill="url(#paint6_radial_40_5599)"/>
<path fill-rule="evenodd" clip-rule="evenodd" d="M199.985 119.769C199.985 119.769 191.356 151.422 159.665 164.887C159.665 164.887 169.931 164.032 178.375 159.419C178.375 159.419 167.7 176.38 145.531 187.985C137.274 192.337 127.417 185.791 128.235 176.455C129.091 166.375 134.484 154.249 150.776 141.64C197.605 105.374 176.664 61.8929 176.664 61.8929C183.098 109.057 160.67 127.84 139.877 141.417C139.877 141.417 139.865 141.429 139.84 141.454C122.805 152.315 117.076 174.484 126.71 192.226C142.927 222.056 161.153 255.123 162.381 255.346C161.116 255.756 147.428 259.773 139.096 241.51C131.062 223.916 127.64 218.002 127.64 218.002C127.64 218.002 136.418 247.089 144.006 254.751C144.006 254.751 127.454 259.661 122.247 243.146C118.378 230.872 117.858 226.669 117.858 226.669C117.858 226.669 117.634 244.076 124.367 253.189C124.367 253.189 110.976 254.677 106.662 245.043C103.872 238.72 101.306 220.68 101.306 220.68C101.306 220.68 98.7392 238.72 95.9123 245.043C91.5976 254.677 78.2073 253.189 78.2073 253.189C84.9769 244.076 84.7537 226.669 84.7537 226.669C84.7537 226.669 84.2329 230.872 80.3646 243.146C75.1572 259.661 58.6053 254.751 58.6053 254.751C66.1931 247.089 74.9341 218.002 74.9341 218.002C74.9341 218.002 71.5493 223.916 63.5151 241.51C55.1461 259.773 41.4953 255.756 40.2307 255.346C41.4581 255.123 59.6839 222.056 75.9011 192.226C85.5348 174.484 79.7695 152.315 62.7712 141.454C62.7464 141.429 62.7339 141.417 62.7339 141.417C41.9417 127.84 19.5129 109.057 25.9477 61.8929C25.9477 61.8929 5.00664 105.374 51.8357 141.64C68.1273 154.249 73.5206 166.375 74.3761 176.455C75.1572 185.791 65.3376 192.337 57.0802 187.985C34.9118 176.38 24.1995 159.419 24.1995 159.419C32.68 164.032 42.946 164.887 42.946 164.887C11.2183 151.422 2.62611 119.769 2.62611 119.769C6.53163 125.051 11.7018 127.952 11.7018 127.952C-8.30934 98.9768 5.52737 70.0387 5.52737 70.0387C5.37859 76.9571 7.68468 83.6151 7.68468 83.6151C5.15539 61.5953 20.8147 40.6171 20.8147 40.6171C19.4013 50.2879 20.8147 53.9331 20.8147 53.9331C25.0922 38.9061 37.5898 29.9792 43.8759 26.2969C34.2794 38.6086 28.5514 54.1191 28.5514 70.9686C28.5514 99.1627 44.5826 123.6 68.0157 135.689C74.153 133.755 81.7036 125.2 75.9383 116.942C67.4578 104.816 49.5296 114.562 49.5296 114.562C55.332 104.221 68.2017 104.221 68.2017 104.221C68.2017 104.221 78.6164 107.718 84.8652 106.081C91.1513 104.482 93.7921 97.4146 82.4475 101.618C77.017 103.626 72.1072 103.849 68.3877 103.515C69.4291 100.13 74.9713 85.5492 94.0525 85.5492C113.097 85.5492 118.713 101.246 118.713 101.246L112.687 98.0841C112.687 98.0841 123.809 107.16 129.686 122.187L125.892 119.769C125.892 119.769 129.983 127.989 134.149 135.875H134.224C157.843 123.861 174.06 99.3115 174.06 70.9686C174.06 54.1191 168.332 38.6086 158.735 26.2969C165.021 29.9792 177.519 38.9061 181.797 53.9331C181.797 53.9331 183.21 50.2879 181.797 40.6171C181.797 40.6171 197.456 61.5953 194.889 83.6151C194.889 83.6151 197.233 76.9571 197.084 70.0387C197.084 70.0387 210.921 98.9768 190.909 127.952C190.909 127.952 196.08 125.051 199.985 119.769ZM71.1401 221.573C66.1188 230.686 53.8443 251.032 42.7228 254.156C43.3179 254.231 44.0618 254.305 44.8429 254.305C49.8643 254.305 56.8571 251.962 61.9528 240.803C66.3047 231.281 69.3176 225.181 71.1401 221.573ZM82.1128 230.983C80.439 236.6 76.0127 246.271 64.5193 253.747C69.5779 253.635 75.9383 251.515 78.728 242.626C80.4018 237.344 81.4433 233.55 82.1128 230.983ZM131.471 221.573C133.294 225.181 136.307 231.281 140.658 240.803C145.717 251.962 152.747 254.305 157.731 254.305C157.756 254.305 157.768 254.305 157.768 254.305C158.549 254.305 159.293 254.231 159.888 254.156C148.73 251.032 136.493 230.686 131.471 221.573ZM97.3257 233.661C91.5604 248.428 81.2573 251.552 81.2573 251.552C84.9768 251.366 91.7464 250.213 94.3873 244.337C95.4288 241.993 96.4702 237.827 97.3257 233.661ZM109.451 94.6993C109.451 94.6993 98.9623 81.5321 81.9268 91.6865C81.9268 91.6865 97.6605 85.4004 109.451 94.6993ZM105.286 233.661C106.141 237.827 107.183 241.993 108.224 244.337C110.865 250.213 117.634 251.366 121.354 251.552C121.354 251.552 111.014 248.428 105.286 233.661ZM120.498 230.983C121.131 233.55 122.172 237.344 123.846 242.626C126.673 251.515 133.033 253.635 138.055 253.747C126.599 246.271 122.172 236.6 120.498 230.983ZM130.058 133.754C128.161 124.232 118.639 115.454 118.639 115.454C118.639 115.454 121.614 115.454 125.929 117.5C125.929 117.5 122.135 109.503 111.795 100.948C111.795 100.948 120.201 109.801 122.209 114.487C122.209 114.487 119.345 113.409 114.77 113.855C114.77 113.855 126.71 124.567 130.058 133.754Z" fill="url(#paint7_radial_40_5599)"/>
<path d="M21.4505 81.1602C20.9297 88.0786 21.4877 96.4104 24.4633 105.337C24.4633 105.337 29.0011 126.65 14.3833 113.669C-0.19728 100.688 5.53085 70.0388 5.53085 70.0388C5.38206 76.9571 7.68815 83.6151 7.68815 83.6151C5.15886 61.5954 20.8182 40.6172 20.8182 40.6172C20.8182 40.6172 7.98573 71.4522 13.6022 83.4291C16.3547 89.2316 19.7767 86.1072 21.4505 81.1602Z" fill="url(#paint8_radial_40_5599)"/>
<path d="M45.3637 156.593C22.2653 151.237 2.62611 119.769 2.62611 119.769C6.53163 125.051 11.7018 127.952 11.7018 127.952C-8.30934 98.9771 5.52737 70.0391 5.52737 70.0391C5.52737 70.0391 -0.200756 100.688 14.3799 113.669C28.9977 126.651 24.4599 105.338 24.4599 105.338C28.3654 117.017 36.4368 129.701 51.8357 141.64C51.8357 141.64 68.4621 161.912 45.3637 156.593Z" fill="url(#paint9_radial_40_5599)"/>
<path d="M45.3626 156.593C68.4609 161.912 51.8346 141.64 51.8346 141.64C68.1262 154.25 73.5195 166.375 74.375 176.455C75.1561 185.791 65.3365 192.338 57.0791 187.986C34.9107 176.381 24.1984 159.42 24.1984 159.42C32.6789 164.032 42.9449 164.888 42.9449 164.888C11.2172 151.423 2.625 119.77 2.625 119.77C2.625 119.77 22.2642 151.237 45.3626 156.593Z" fill="url(#paint10_radial_40_5599)"/>
<path d="M181.165 81.1602C181.649 88.0786 181.128 96.4104 178.115 105.337C178.14 105.337 178.152 105.337 178.152 105.337C178.152 105.337 173.614 126.65 188.195 113.669C202.813 100.688 197.085 70.0388 197.085 70.0388C197.234 76.9571 194.89 83.6151 194.89 83.6151C197.457 61.5954 181.797 40.6172 181.797 40.6172C181.797 40.6172 194.63 71.4522 189.013 83.4291C186.261 89.2316 182.839 86.1072 181.165 81.1602Z" fill="url(#paint11_radial_40_5599)"/>
<path d="M157.246 156.593C180.344 151.237 199.983 119.769 199.983 119.769C196.078 125.051 190.908 127.952 190.908 127.952C210.919 98.9771 197.082 70.0391 197.082 70.0391C197.082 70.0391 202.81 100.688 188.193 113.669C173.612 126.651 178.15 105.338 178.15 105.338C174.244 117.017 166.173 129.701 150.774 141.64C150.774 141.64 134.148 161.912 157.246 156.593Z" fill="url(#paint12_radial_40_5599)"/>
<path d="M157.248 156.593C134.149 161.912 150.776 141.64 150.776 141.64C134.484 154.25 129.091 166.375 128.235 176.455C127.417 185.791 137.274 192.338 145.531 187.986C167.7 176.381 178.375 159.42 178.375 159.42C169.931 164.032 159.665 164.888 159.665 164.888C191.356 151.423 199.985 119.77 199.985 119.77C199.985 119.77 180.346 151.237 157.248 156.593Z" fill="url(#paint13_radial_40_5599)"/>
<path d="M71.9241 131.114C64.9314 127.692 58.6082 123.079 53.2148 117.537C55.2234 116 57.3063 114.574 59.4637 113.26C54.5167 114.152 50.5368 116.273 50.4996 116.31L48.1562 117.574C53.8472 124.009 60.6539 129.403 68.3162 133.457C69.5064 132.936 70.7711 132.118 71.9241 131.114Z" fill="url(#paint14_radial_40_5599)"/>
<path fill-rule="evenodd" clip-rule="evenodd" d="M172.089 70.7829C172.089 97.7124 157.062 121.146 134.931 133.122C134.336 131.969 133.778 130.891 133.22 129.775C139.209 126.539 144.676 122.41 149.4 117.538C143.932 113.372 138.018 110.061 131.844 107.495C130.728 109.801 129.501 112.057 128.161 114.264C127.442 112.975 126.711 111.76 125.967 110.619C126.81 109.156 127.604 107.668 128.347 106.156C126.215 105.412 124.07 104.755 121.913 104.184L120.611 100.576C120.574 100.539 120.499 100.316 120.35 99.9813C123.599 100.725 126.785 101.655 129.91 102.771C134.038 93.2118 136.233 82.9458 136.456 72.6427H103.166V84.8428C102.001 84.4708 100.761 84.1857 99.4466 83.9873V72.6427H66.1195C66.3055 80.4165 67.6073 88.1904 70.025 95.6295C68.9464 97.2289 68.1652 98.7539 67.5701 100.019C64.3341 91.2404 62.6231 81.9787 62.4 72.6427H34.243C34.6521 87.5953 39.9711 101.32 48.6004 112.293C48.3276 112.715 48.0549 113.149 47.7821 113.595L46.5919 115.752C36.5491 103.515 30.5234 87.8556 30.5234 70.7829C30.5234 31.6905 62.214 0 101.306 0C140.399 0 172.089 31.6905 172.089 70.7829ZM53.2127 24.0654C58.6804 28.1941 64.5945 31.5417 70.7689 34.071C76.3482 22.5404 84.7544 12.1257 95.9874 3.94272C79.2495 5.24456 64.2225 12.7208 53.2127 24.0654ZM69.2067 37.4558C62.6603 34.7777 56.4115 31.2442 50.6834 26.8179C40.8266 38.1625 34.6893 52.8175 34.243 68.9231H62.4C62.6231 58.1737 64.892 47.4614 69.2067 37.4558ZM99.4466 43.779C90.3709 43.5559 81.2952 41.9193 72.7031 38.7948C68.5372 48.3541 66.3799 58.62 66.1195 68.9231H99.4466V43.779ZM99.4466 6.06286C88.2136 13.9483 79.8074 24.1398 74.2653 35.4473C82.3739 38.3113 90.8917 39.8735 99.4466 40.0595V6.06286ZM133.406 37.493C137.683 47.4614 139.952 58.2109 140.213 68.9603H168.333C167.923 52.8547 161.786 38.1625 151.929 26.8179C146.164 31.2442 139.915 34.8149 133.406 37.493ZM106.625 3.94272C117.821 12.1629 126.227 22.5776 131.844 34.1082C138.018 31.5417 143.932 28.2313 149.4 24.0654C138.353 12.7208 123.363 5.28175 106.625 3.94272ZM103.166 40.0595C111.721 39.8735 120.239 38.3113 128.347 35.4473C122.768 24.1398 114.399 13.9483 103.166 6.06286V40.0595ZM136.456 68.9603C136.233 58.6572 134.038 48.3913 129.91 38.832C121.28 41.9193 112.242 43.5931 103.166 43.779V68.9603H136.456ZM168.333 72.6799H140.176C139.952 83.4294 137.684 94.1417 133.369 104.147C139.915 106.825 146.164 110.396 151.929 114.785C161.786 103.478 167.886 88.7855 168.333 72.6799Z" fill="url(#paint15_radial_40_5599)"/>
<defs>
<radialGradient id="paint0_radial_40_5599" cx="0" cy="0" r="1" gradientUnits="userSpaceOnUse" gradientTransform="translate(131.262 103.309) rotate(-102.272) scale(90.2176 90.2176)">
<stop stop-color="#E6E7E8"/>
<stop offset="1" stop-color="#808284"/>
</radialGradient>
<radialGradient id="paint1_radial_40_5599" cx="0" cy="0" r="1" gradientUnits="userSpaceOnUse" gradientTransform="translate(131.261 103.309) rotate(-102.271) scale(90.2171 90.217)">
<stop stop-color="#E6E7E8"/>
<stop offset="1" stop-color="#808284"/>
</radialGradient>
<radialGradient id="paint2_radial_40_5599" cx="0" cy="0" r="1" gradientUnits="userSpaceOnUse" gradientTransform="translate(131.256 103.31) rotate(-102.272) scale(90.2176 90.2178)">
<stop stop-color="#E6E7E8"/>
<stop offset="1" stop-color="#808284"/>
</radialGradient>
<radialGradient id="paint3_radial_40_5599" cx="0" cy="0" r="1" gradientUnits="userSpaceOnUse" gradientTransform="translate(141.47 123.481) rotate(-102.977) scale(120.878 120.878)">
<stop stop-color="#E6E7E8"/>
<stop offset="1" stop-color="#808284"/>
</radialGradient>
<radialGradient id="paint4_radial_40_5599" cx="0" cy="0" r="1" gradientUnits="userSpaceOnUse" gradientTransform="translate(141.467 123.481) rotate(-102.977) scale(120.877 120.877)">
<stop stop-color="#E6E7E8"/>
<stop offset="1" stop-color="#808284"/>
</radialGradient>
<radialGradient id="paint5_radial_40_5599" cx="0" cy="0" r="1" gradientUnits="userSpaceOnUse" gradientTransform="translate(141.469 123.48) rotate(-102.977) scale(120.878 120.878)">
<stop stop-color="#E6E7E8"/>
<stop offset="1" stop-color="#808284"/>
</radialGradient>
<radialGradient id="paint6_radial_40_5599" cx="0" cy="0" r="1" gradientUnits="userSpaceOnUse" gradientTransform="translate(141.468 123.479) rotate(-102.977) scale(120.878 120.878)">
<stop stop-color="#D1D2D3"/>
<stop offset="1" stop-color="#57585A"/>
</radialGradient>
<radialGradient id="paint7_radial_40_5599" cx="0" cy="0" r="1" gradientUnits="userSpaceOnUse" gradientTransform="translate(91.5288 61.8632) rotate(86.902) scale(188.978 188.978)">
<stop stop-color="#FAEA15"/>
<stop offset="1" stop-color="#EF542F"/>
</radialGradient>
<radialGradient id="paint8_radial_40_5599" cx="0" cy="0" r="1" gradientUnits="userSpaceOnUse" gradientTransform="translate(13.937 45.6828) rotate(87.5559) scale(110.657 110.657)">
<stop stop-color="#FAEA15"/>
<stop offset="1" stop-color="#EF542F"/>
</radialGradient>
<radialGradient id="paint9_radial_40_5599" cx="0" cy="0" r="1" gradientUnits="userSpaceOnUse" gradientTransform="translate(-9.34523 77.5596) rotate(49.1892) scale(115.315 115.315)">
<stop stop-color="#FAEA15"/>
<stop offset="1" stop-color="#EF542F"/>
</radialGradient>
<radialGradient id="paint10_radial_40_5599" cx="0" cy="0" r="1" gradientUnits="userSpaceOnUse" gradientTransform="translate(-5.70344 116.949) rotate(40.2799) scale(107.065 107.065)">
<stop stop-color="#FAEA15"/>
<stop offset="1" stop-color="#EF542F"/>
</radialGradient>
<radialGradient id="paint11_radial_40_5599" cx="0" cy="0" r="1" gradientUnits="userSpaceOnUse" gradientTransform="translate(188.669 45.6828) rotate(92.4441) scale(110.657 110.657)">
<stop stop-color="#FAEA15"/>
<stop offset="1" stop-color="#EF542F"/>
</radialGradient>
<radialGradient id="paint12_radial_40_5599" cx="0" cy="0" r="1" gradientUnits="userSpaceOnUse" gradientTransform="translate(211.946 77.5596) rotate(130.811) scale(115.315 115.315)">
<stop stop-color="#FAEA15"/>
<stop offset="1" stop-color="#EF542F"/>
</radialGradient>
<radialGradient id="paint13_radial_40_5599" cx="0" cy="0" r="1" gradientUnits="userSpaceOnUse" gradientTransform="translate(208.304 116.949) rotate(139.72) scale(107.065 107.065)">
<stop stop-color="#FAEA15"/>
<stop offset="1" stop-color="#EF542F"/>
</radialGradient>
<radialGradient id="paint14_radial_40_5599" cx="0" cy="0" r="1" gradientUnits="userSpaceOnUse" gradientTransform="translate(41.842 -9.11136) rotate(56.4927) scale(173.233 173.233)">
<stop stop-color="#2AA9E1"/>
<stop offset="1" stop-color="#293890"/>
</radialGradient>
<radialGradient id="paint15_radial_40_5599" cx="0" cy="0" r="1" gradientUnits="userSpaceOnUse" gradientTransform="translate(41.8398 -9.11102) rotate(56.4927) scale(173.232 173.232)">
<stop stop-color="#2AA9E1"/>
<stop offset="1" stop-color="#293890"/>
</radialGradient>
</defs>
</svg>
