<svg width="225" height="257" viewBox="0 0 225 257" fill="none" xmlns="http://www.w3.org/2000/svg">
<path fill-rule="evenodd" clip-rule="evenodd" d="M222.861 105.084C222.861 105.084 213.258 140.344 177.924 155.359C177.924 155.359 189.381 154.395 198.798 149.279C198.798 149.279 186.86 168.151 162.167 181.127C152.935 185.947 141.998 178.643 142.888 168.262C143.852 157.028 149.858 143.495 168.025 129.443C220.228 88.9932 196.87 40.5718 196.87 40.5718C204.063 93.1087 179.037 114.094 155.901 129.184C155.877 129.184 155.852 129.196 155.827 129.221C136.881 141.345 130.467 166.037 141.182 185.799C159.275 219.056 179.593 255.91 180.928 256.169C179.556 256.614 164.318 261.138 155.011 240.746C146.039 221.132 142.257 214.57 142.257 214.57C142.257 214.57 152.008 246.975 160.462 255.539C160.462 255.539 142.035 260.989 136.214 242.6C131.913 228.881 131.32 224.247 131.32 224.247C131.32 224.247 131.06 243.601 138.624 253.759C138.624 253.759 123.682 255.428 118.862 244.676C115.748 237.631 112.893 217.536 112.893 217.536C112.893 217.536 110.038 237.631 106.887 244.676C102.067 255.428 87.1622 253.759 87.1622 253.759C94.6886 243.601 94.4291 224.247 94.4291 224.247C94.4291 224.247 93.8729 228.881 89.535 242.6C83.7512 260.989 65.2873 255.539 65.2873 255.539C73.7406 246.975 83.4916 214.57 83.4916 214.57C83.4916 214.57 79.7099 221.132 70.7375 240.746C61.4314 261.138 46.1931 256.614 44.8213 256.169C46.1931 255.91 66.4737 219.056 84.5668 185.799C95.3189 166.037 88.9048 141.345 69.9218 129.221C69.8971 129.196 69.8847 129.184 69.8847 129.184C46.7121 114.094 21.7228 93.1087 28.8785 40.5718C28.8785 40.5718 5.52058 88.9932 57.7237 129.443C75.9281 143.495 81.8974 157.028 82.8613 168.262C83.7512 178.643 72.8137 185.947 63.5818 181.127C38.8891 168.151 26.9506 149.279 26.9506 149.279C36.3679 154.395 47.8244 155.359 47.8244 155.359C12.4909 140.344 2.88817 105.084 2.88817 105.084C7.26316 110.942 13.01 114.168 13.01 114.168C-9.27279 81.9117 6.1138 49.6555 6.1138 49.6555C5.96549 57.3673 8.56082 64.7455 8.56082 64.7455C5.70596 40.2381 23.1688 16.8431 23.1688 16.8431C21.5745 27.6323 23.1688 31.6736 23.1688 31.6736C27.9516 14.9522 41.8552 4.97876 48.8626 0.900391C38.1476 14.6186 31.7705 31.896 31.7705 50.6936C31.7705 82.0971 49.6411 109.348 75.7798 122.807C82.6018 120.656 91.0181 111.128 84.6039 101.933C75.1495 88.4371 55.1655 99.2633 55.1655 99.2633C61.6167 87.7326 75.9652 87.7326 75.9652 87.7326C75.9652 87.7326 87.57 91.6256 94.5774 89.846C101.548 88.0292 104.514 80.132 91.8708 84.8407C85.8274 87.0653 80.3031 87.3248 76.1876 86.954C77.337 83.2093 83.5287 66.8959 104.81 66.8959C126.018 66.8959 132.284 84.4329 132.284 84.4329L125.573 80.8736C125.573 80.8736 137.994 91.0324 144.519 107.754L140.292 105.047C140.292 105.047 144.853 114.242 149.487 123.029H149.561C175.922 109.645 193.978 82.2454 193.978 50.6936C193.978 31.896 187.601 14.6186 176.886 0.900391C183.894 4.97876 197.834 14.9522 202.617 31.6736C202.617 31.6736 204.174 27.6323 202.617 16.8431C202.617 16.8431 220.043 40.2381 217.188 64.7455C217.188 64.7455 219.783 57.3673 219.635 49.6555C219.635 49.6555 235.059 81.9117 212.739 114.168C212.739 114.168 218.523 110.942 222.861 105.084ZM79.265 218.537C73.6665 228.696 59.9854 251.35 47.602 254.835C48.2693 254.946 49.0479 255.02 49.9748 255.02C55.5363 255.02 63.3593 252.388 69.032 239.967C73.8889 229.363 77.2258 222.541 79.265 218.537ZM91.463 229.03C89.6092 235.258 84.6781 246.085 71.8868 254.39C77.5224 254.241 84.6039 251.943 87.7183 242.006C89.6092 236.111 90.7586 231.885 91.463 229.03ZM146.484 218.537C148.56 222.541 151.86 229.363 156.717 239.967C162.39 252.388 170.213 255.02 175.811 255.02C176.701 255.02 177.48 254.946 178.184 254.835C165.764 251.35 152.082 228.696 146.484 218.537ZM108.444 231.996C102.03 248.458 90.5361 251.943 90.5361 251.943C94.6886 251.757 102.215 250.46 105.144 243.897C106.331 241.302 107.48 236.667 108.444 231.996ZM121.94 77.1289C121.94 77.1289 110.298 62.4467 91.2776 73.7549C91.2776 73.7549 108.815 66.7476 121.94 77.1289ZM117.305 231.996C118.269 236.667 119.418 241.302 120.605 243.897C123.534 250.46 131.06 251.757 135.213 251.943C135.213 251.943 123.719 248.458 117.305 231.996ZM134.286 229.03C134.99 231.885 136.177 236.111 138.031 242.006C141.145 251.943 148.264 254.241 153.862 254.39C141.071 246.085 136.14 235.258 134.286 229.03ZM144.927 120.656C142.813 110.052 132.21 100.264 132.21 100.264C132.21 100.264 135.509 100.227 140.329 102.563C140.329 102.563 136.103 93.6277 124.572 84.0621C124.572 84.0621 133.952 93.9614 136.177 99.1892C136.177 99.1892 132.988 98.0027 127.872 98.4847C127.872 98.4847 141.219 110.423 144.927 120.656Z" fill="url(#paint0_radial_40_5589)"/>
<path d="M201.915 62.0395C202.434 69.7514 201.84 79.0575 198.504 88.9939C198.504 88.9939 193.461 112.723 209.738 98.2629C226.014 83.8032 219.637 49.6561 219.637 49.6561C219.785 57.3679 217.19 64.7461 217.19 64.7461C220.045 40.2388 202.619 16.8438 202.619 16.8438C202.619 16.8438 216.893 51.2133 210.627 64.5607C207.587 71.049 203.768 67.5639 201.915 62.0395Z" fill="url(#paint1_radial_40_5589)"/>
<path d="M175.215 146.091C200.983 140.122 222.858 105.085 222.858 105.085C218.52 110.943 212.736 114.169 212.736 114.169C235.056 81.9125 219.633 49.6562 219.633 49.6562C219.633 49.6562 226.01 83.8033 209.733 98.263C193.457 112.723 198.499 88.994 198.499 88.994C194.161 102.008 185.152 116.134 168.023 129.444C168.023 129.444 149.485 152.06 175.215 146.091Z" fill="url(#paint2_radial_40_5589)"/>
<path d="M175.217 146.09C149.486 152.059 168.024 129.443 168.024 129.443C149.857 143.495 143.851 157.028 142.887 168.262C141.997 178.643 152.935 185.947 162.166 181.127C186.859 168.15 198.798 149.279 198.798 149.279C189.38 154.395 177.924 155.359 177.924 155.359C213.257 140.343 222.86 105.084 222.86 105.084C222.86 105.084 200.985 140.121 175.217 146.09Z" fill="url(#paint3_radial_40_5589)"/>
<path d="M23.8731 62.0395C23.317 69.7514 23.9102 79.0575 27.2471 88.9939C27.2471 88.9939 32.2894 112.723 16.013 98.2629C-0.263395 83.8032 6.11369 49.6561 6.11369 49.6561C5.96539 57.3679 8.56072 64.7461 8.56072 64.7461C5.70586 40.2388 23.1687 16.8438 23.1687 16.8438C23.1687 16.8438 8.85732 51.2133 15.1232 64.5607C18.1634 71.049 21.9823 67.5639 23.8731 62.0395Z" fill="url(#paint4_radial_40_5589)"/>
<path d="M50.531 146.091C24.7631 140.122 2.88817 105.085 2.88817 105.085C7.26316 110.943 13.01 114.169 13.01 114.169C-9.27279 81.9125 6.11379 49.6562 6.11379 49.6562C6.11379 49.6562 -0.263291 83.8033 16.0131 98.263C32.2895 112.723 27.2472 88.994 27.2472 88.994C31.5851 102.008 40.5946 116.134 57.7237 129.444C57.7237 129.444 76.2618 152.06 50.531 146.091Z" fill="url(#paint5_radial_40_5589)"/>
<path d="M50.5334 146.09C76.2642 152.059 57.7262 129.443 57.7262 129.443C75.9306 143.495 81.8998 157.028 82.8638 168.262C83.7536 178.643 72.8162 185.947 63.5842 181.127C38.8915 168.15 26.953 149.279 26.953 149.279C36.3704 154.395 47.8269 155.359 47.8269 155.359C12.4933 140.343 2.89062 105.084 2.89062 105.084C2.89062 105.084 24.7655 140.121 50.5334 146.09Z" fill="url(#paint6_radial_40_5589)"/>
<defs>
<radialGradient id="paint0_radial_40_5589" cx="0" cy="0" r="1" gradientUnits="userSpaceOnUse" gradientTransform="translate(101.987 40.5292) rotate(86.902) scale(210.631 210.631)">
<stop stop-color="#2AA9E1"/>
<stop offset="1" stop-color="#293890"/>
</radialGradient>
<radialGradient id="paint1_radial_40_5589" cx="0" cy="0" r="1" gradientUnits="userSpaceOnUse" gradientTransform="translate(206.65 13.891) rotate(92.4441) scale(123.336 123.336)">
<stop stop-color="#2AA9E1"/>
<stop offset="1" stop-color="#293890"/>
</radialGradient>
<radialGradient id="paint2_radial_40_5589" cx="0" cy="0" r="1" gradientUnits="userSpaceOnUse" gradientTransform="translate(236.2 58.0243) rotate(130.811) scale(128.527)">
<stop stop-color="#2AA9E1"/>
<stop offset="1" stop-color="#293890"/>
</radialGradient>
<radialGradient id="paint3_radial_40_5589" cx="0" cy="0" r="1" gradientUnits="userSpaceOnUse" gradientTransform="translate(232.141 101.926) rotate(139.72) scale(119.332 119.332)">
<stop stop-color="#2AA9E1"/>
<stop offset="1" stop-color="#293890"/>
</radialGradient>
<radialGradient id="paint4_radial_40_5589" cx="0" cy="0" r="1" gradientUnits="userSpaceOnUse" gradientTransform="translate(19.1092 13.891) rotate(87.5559) scale(123.336 123.336)">
<stop stop-color="#2AA9E1"/>
<stop offset="1" stop-color="#293890"/>
</radialGradient>
<radialGradient id="paint5_radial_40_5589" cx="0" cy="0" r="1" gradientUnits="userSpaceOnUse" gradientTransform="translate(-10.4451 58.0243) rotate(49.1891) scale(128.527 128.527)">
<stop stop-color="#2AA9E1"/>
<stop offset="1" stop-color="#293890"/>
</radialGradient>
<radialGradient id="paint6_radial_40_5589" cx="0" cy="0" r="1" gradientUnits="userSpaceOnUse" gradientTransform="translate(-6.3821 101.926) rotate(40.2798) scale(119.332)">
<stop stop-color="#2AA9E1"/>
<stop offset="1" stop-color="#293890"/>
</radialGradient>
</defs>
</svg>
