<svg width="257" height="132" viewBox="0 0 257 132" fill="none" xmlns="http://www.w3.org/2000/svg">
<path d="M256.471 76.5633C256.471 76.5633 257.719 58.1975 242.741 51.1925C242.894 36.1381 236.475 28.318 225.572 22.6885C213.244 16.3203 189.325 16.8807 191.566 5.64726C185.147 9.82478 182.855 18.46 193.808 26.1273C161.865 20.9818 139.041 -9.17788 115.836 3.53301C115.836 3.53301 142.022 9.97761 133.132 17.7723C125.668 24.3188 100.552 -6.70702 78.4674 27.4774C92.5028 18.8166 121.032 28.5727 113.976 41.0543C105.825 55.4464 65.1451 17.5175 48.3332 50.3009C76.0729 45.1809 98.4635 65.7883 83.3836 77.6077C70.3925 87.7968 29.3815 50.4538 11.0156 91.1846C52.1031 77.7096 73.0926 135.507 114.562 95.515C114.562 95.515 104.118 118.924 78.3145 115.358C96.7568 130.922 165.304 150.281 184.408 90.828C184.408 90.828 165.151 114.543 140.239 110.289C181.505 105.857 210.951 41.309 256.471 76.5633Z" fill="url(#paint0_linear_40_11427)"/>
<path style="mix-blend-mode:soft-light" d="M242.744 51.1925C242.897 36.1381 236.477 28.318 225.575 22.6885C213.246 16.3203 189.327 16.8807 191.569 5.64726C185.15 9.82478 182.857 18.46 193.811 26.1273C161.868 20.9818 139.044 -9.17788 115.839 3.53301C115.839 3.53301 142.025 9.97761 133.135 17.7723C125.671 24.3188 100.555 -6.70702 78.4702 27.4774C92.5056 18.8166 121.035 28.5727 113.979 41.0543C105.828 55.4464 65.1479 17.5175 48.3359 50.3009C58.4486 37.3863 100.122 45.6394 107.993 55.7011C116.501 66.5525 112.171 80.4097 112.171 80.4097C112.171 80.4097 122.92 78.9322 123.2 52.0585C123.506 25.2103 168.873 57.739 194.83 44.7733C194.83 44.7733 184.589 58.2739 163.906 55.1917C163.906 55.1917 185.277 64.3109 210.342 48.1867C235.408 32.0625 242.158 46.7347 242.744 51.1925Z" fill="url(#paint1_linear_40_11427)"/>
<path style="mix-blend-mode:overlay" d="M114.562 95.5155C114.562 95.5155 104.118 118.925 78.3145 115.359C96.7568 130.923 165.304 150.282 184.408 90.8285C184.408 90.8285 165.151 114.544 140.239 110.29C181.505 105.857 210.951 41.3096 256.471 76.5638C227.788 32.7762 190.496 78.9328 154.096 90.1153C117.695 101.298 129.184 65.8398 129.184 65.8398C121.414 88.2812 101.469 95.8721 101.469 95.8721C112.754 84.9443 106.487 71.1636 106.487 71.1636C105.443 85.9378 85.0139 103.947 63.5149 89.8606C39.4432 74.0929 24.7199 79.9771 11.0156 91.1851C52.1031 77.7101 73.0926 135.508 114.562 95.5155Z" fill="url(#paint2_linear_40_11427)"/>
<path style="mix-blend-mode:overlay" d="M134.84 65.8398C131.961 72.8957 132.598 86.0906 143.195 85.4283C157.638 84.5367 178.321 69.5333 196.127 63.4453C196.127 63.4453 179.009 68.1578 164.948 74.5259C148.085 82.1423 133.642 82.2442 134.84 65.8398Z" fill="url(#paint3_linear_40_11427)"/>
<path style="mix-blend-mode:overlay" d="M184.414 90.8281C163.043 136.322 113.269 125.318 99.3353 118.95C113.167 110.315 114.568 95.5151 114.568 95.5151C114.568 95.5151 104.124 118.925 78.3203 115.358C96.7626 130.922 165.31 150.281 184.414 90.8281Z" fill="url(#paint4_linear_40_11427)"/>
<path style="mix-blend-mode:overlay" d="M113.978 41.0539C111.685 45.0786 106.845 45.0022 100.706 43.5248C125.313 50.0712 127.02 30.2789 115.149 23.656C103.712 17.2879 86.1106 20.1917 78.4688 27.4769C92.5042 18.8162 121.034 28.5723 113.978 41.0539Z" fill="url(#paint5_linear_40_11427)"/>
<path style="mix-blend-mode:overlay" d="M83.3864 77.6083C80.2533 80.0537 75.4899 79.7481 69.8349 78.4489C90.2386 86.371 102.313 74.4497 98.7464 60.9747C94.8491 46.3024 64.129 43.1692 48.3359 50.3016C76.0757 45.1816 98.4663 65.789 83.3864 77.6083Z" fill="url(#paint6_linear_40_11427)"/>
<path style="mix-blend-mode:soft-light" d="M115.836 3.53301C138.838 -1.79079 171.163 28.0632 193.808 26.1273C161.865 20.9818 139.042 -9.17788 115.836 3.53301Z" fill="url(#paint7_linear_40_11427)"/>
<path d="M13.0312 100.99C34.4029 95.7426 47.6996 117.394 65.2248 115.891C44.5665 134.894 32.2122 103.13 13.0312 100.99Z" fill="url(#paint8_linear_40_11427)"/>
<path d="M63.2388 27.3771C56.081 20.6523 42.8097 29.7461 35.8047 20.1938C45.6372 21.2637 59.5198 12.1699 63.2388 27.3771Z" fill="url(#paint9_linear_40_11427)"/>
<path d="M40.645 57.8916C30.1757 48.0591 10.7655 61.3814 0.5 47.4223C14.8921 48.9252 35.1938 35.6539 40.645 57.8916Z" fill="url(#paint10_linear_40_11427)"/>
<defs>
<linearGradient id="paint0_linear_40_11427" x1="296.364" y1="92.6623" x2="-28.0621" y2="190.666" gradientUnits="userSpaceOnUse">
<stop offset="0.004" stop-color="#FFC811"/>
<stop offset="0.22" stop-color="#EC8B28"/>
<stop offset="0.47" stop-color="#DE442E"/>
<stop offset="0.615" stop-color="#C82A5A"/>
<stop offset="0.834" stop-color="#774293"/>
<stop offset="1" stop-color="#4C3C93"/>
</linearGradient>
<linearGradient id="paint1_linear_40_11427" x1="240.869" y1="-15.5672" x2="99.0622" y2="156.978" gradientUnits="userSpaceOnUse">
<stop stop-color="#F1F2F2"/>
<stop offset="1" stop-color="#F1F2F2"/>
</linearGradient>
<linearGradient id="paint2_linear_40_11427" x1="252.262" y1="444.998" x2="50.9511" y2="-42.9785" gradientUnits="userSpaceOnUse">
<stop stop-color="#231F20"/>
<stop offset="1" stop-color="#231F20"/>
</linearGradient>
<linearGradient id="paint3_linear_40_11427" x1="163.049" y1="153.939" x2="159.761" y2="49.6809" gradientUnits="userSpaceOnUse">
<stop stop-color="#231F20"/>
<stop offset="1" stop-color="#231F20"/>
</linearGradient>
<linearGradient id="paint4_linear_40_11427" x1="78.2658" y1="247.213" x2="135.471" y2="50.1724" gradientUnits="userSpaceOnUse">
<stop stop-color="#231F20"/>
<stop offset="1" stop-color="#231F20"/>
</linearGradient>
<linearGradient id="paint5_linear_40_11427" x1="157.214" y1="22.5607" x2="107.383" y2="44.8174" gradientUnits="userSpaceOnUse">
<stop stop-color="#231F20"/>
<stop offset="1" stop-color="#231F20"/>
</linearGradient>
<linearGradient id="paint6_linear_40_11427" x1="138.165" y1="66.8387" x2="68.4026" y2="85.5554" gradientUnits="userSpaceOnUse">
<stop stop-color="#231F20"/>
<stop offset="1" stop-color="#231F20"/>
</linearGradient>
<linearGradient id="paint7_linear_40_11427" x1="159.754" y1="-19.2009" x2="158.892" y2="39.4177" gradientUnits="userSpaceOnUse">
<stop stop-color="#F1F2F2"/>
<stop offset="1" stop-color="#F1F2F2"/>
</linearGradient>
<linearGradient id="paint8_linear_40_11427" x1="90.3949" y1="165.237" x2="-6.57694" y2="88.8999" gradientUnits="userSpaceOnUse">
<stop offset="0.004" stop-color="#FFC811"/>
<stop offset="0.22" stop-color="#EC8B28"/>
<stop offset="0.47" stop-color="#DE442E"/>
<stop offset="0.615" stop-color="#C82A5A"/>
<stop offset="0.834" stop-color="#774293"/>
<stop offset="1" stop-color="#4C3C93"/>
</linearGradient>
<linearGradient id="paint9_linear_40_11427" x1="85.2434" y1="42.2061" x2="-15.7103" y2="1.90584" gradientUnits="userSpaceOnUse">
<stop offset="0.004" stop-color="#FFC811"/>
<stop offset="0.22" stop-color="#EC8B28"/>
<stop offset="0.47" stop-color="#DE442E"/>
<stop offset="0.615" stop-color="#C82A5A"/>
<stop offset="0.834" stop-color="#774293"/>
<stop offset="1" stop-color="#4C3C93"/>
</linearGradient>
<linearGradient id="paint10_linear_40_11427" x1="60.3285" y1="88.6051" x2="-12.5743" y2="35.1164" gradientUnits="userSpaceOnUse">
<stop offset="0.004" stop-color="#FFC811"/>
<stop offset="0.22" stop-color="#EC8B28"/>
<stop offset="0.47" stop-color="#DE442E"/>
<stop offset="0.615" stop-color="#C82A5A"/>
<stop offset="0.834" stop-color="#774293"/>
<stop offset="1" stop-color="#4C3C93"/>
</linearGradient>
</defs>
</svg>
