<svg width="257" height="128" viewBox="0 0 257 128" fill="none" xmlns="http://www.w3.org/2000/svg">
<path d="M253.191 78.4093V112.029C253.191 118.648 247.791 124.048 241.172 124.048H207.552C209.817 113.161 215.13 102.884 223.578 94.4352C231.939 85.9867 242.304 80.6738 253.191 78.4093Z" fill="#313033"/>
<path fill-rule="evenodd" clip-rule="evenodd" d="M256.588 8.99293H256.675V115.426C256.675 122.132 251.275 127.532 244.569 127.532H139.791C138.688 127.648 137.584 127.706 136.481 127.706C127.249 127.706 118.539 124.048 112.007 117.516L1.91612 7.42518C0.261277 5.77034 0.261277 3.07034 1.91612 1.41549C3.57096 -0.23935 6.27097 -0.23935 7.92582 1.41549L118.016 111.506C122.981 116.471 129.513 119.171 136.481 119.171C137.004 119.171 137.439 119.084 137.962 119.084V118.996C144.407 118.648 150.417 115.948 154.859 111.506C155.73 110.693 156.513 109.822 157.21 108.893C157.326 108.719 157.442 108.545 157.559 108.371C162.61 101.316 163.917 92.0835 160.781 83.8093L160.259 82.5028C159.039 79.6286 157.21 76.9286 154.859 74.6641L87.7067 7.42518C86.0519 5.77034 86.0519 3.07034 87.7067 1.41549C89.3616 -0.23935 92.0616 -0.23935 93.7164 1.41549L160.955 68.6544C163.394 71.0931 166.181 72.9222 169.23 74.2286L170.013 74.4899C171.291 74.9544 172.568 75.3318 173.846 75.6222C174.542 75.7964 175.239 75.7964 175.936 75.9706C176.691 76.0867 177.475 76.1447 178.288 76.1447C178.984 76.2028 179.652 76.2028 180.291 76.1447C181.22 76.1447 182.12 76.0577 182.991 75.8835C183.601 75.7964 184.123 75.7964 184.733 75.7093C186.068 75.4189 187.375 75.0125 188.652 74.4899C189.175 74.3157 189.61 74.0544 190.133 73.8802C191.062 73.4157 191.991 72.9222 192.92 72.3996C193.326 72.1673 193.762 71.906 194.226 71.6157C195.446 70.7447 196.665 69.7867 197.71 68.6544C197.768 68.6544 197.797 68.6544 197.797 68.6544C197.797 68.6544 197.797 68.6254 197.797 68.5673C198.93 67.5222 199.888 66.3028 200.759 64.9963C200.991 64.5899 201.252 64.1834 201.543 63.777C202.065 62.8479 202.559 61.9189 203.023 60.9899C203.197 60.4673 203.459 60.0318 203.633 59.5092C204.155 58.2318 204.562 56.8963 204.852 55.5028C204.939 54.9802 204.939 54.4576 205.026 53.935C205.201 53.006 205.288 52.0769 205.288 51.1479C205.346 50.5092 205.346 49.8414 205.288 49.1447C205.23 48.3318 205.143 47.5189 205.026 46.706C204.939 46.0092 204.939 45.3995 204.765 44.7027C204.475 43.4253 204.097 42.1479 203.633 40.8704L203.372 40.0866C202.065 37.1253 200.236 34.2511 197.797 31.8124L173.497 7.42518C171.755 5.77034 171.755 3.07034 173.497 1.41549C175.152 -0.23935 177.852 -0.23935 179.507 1.41549L203.807 25.7156C206.246 28.2414 209.12 30.0704 212.168 31.2898L212.865 31.6382C214.143 32.1027 215.42 32.4801 216.697 32.7704C217.394 32.8575 218.004 32.9446 218.701 33.0317C219.514 33.1478 220.355 33.2349 221.226 33.293C221.865 33.293 222.504 33.293 223.143 33.293C224.13 33.2349 225.088 33.1478 226.017 33.0317C226.539 32.9446 227.062 32.9446 227.585 32.7704C228.92 32.4801 230.256 32.1027 231.591 31.6382C232.027 31.464 232.549 31.2027 232.985 31.0285C233.914 30.564 234.843 30.0414 235.772 29.4607C236.236 29.2285 236.672 28.9672 237.078 28.6769C238.298 27.8059 239.517 26.8478 240.649 25.7156C241.694 24.7575 242.565 23.6252 243.436 22.493C243.552 22.2607 243.668 22.0575 243.785 21.8833C244.598 20.722 245.294 19.5026 245.875 18.2252C245.933 18.051 245.991 17.8768 246.049 17.7026C247.181 15.0897 247.791 12.3026 248.052 9.34132C248.139 7.86067 248.227 6.38002 248.052 4.81227C247.791 2.46065 249.533 0.457418 251.885 0.196127C254.236 -0.0651638 256.327 1.67679 256.501 4.02841C256.675 5.68325 256.675 7.33809 256.588 8.99293ZM246.659 31.8124C245.701 32.7704 244.568 33.7285 243.436 34.5995C243.146 34.8317 242.856 35.0349 242.565 35.2091C241.636 35.9059 240.678 36.5446 239.691 37.1253C239.459 37.2414 239.227 37.3866 238.994 37.5608C236.468 38.9543 233.768 39.9995 230.981 40.6963C230.807 40.7543 230.633 40.8124 230.459 40.8704C229.123 41.2188 227.759 41.4801 226.365 41.6543C226.307 41.6543 226.278 41.6543 226.278 41.6543C224.943 41.8285 223.607 41.9156 222.272 41.9156C220.53 41.9156 218.875 41.7414 217.22 41.4801C217.162 41.4801 217.075 41.4801 216.959 41.4801C215.478 41.2188 213.997 40.9575 212.517 40.5221C212.952 42.0027 213.301 43.4834 213.475 44.964C213.475 45.0221 213.504 45.1092 213.562 45.2253C213.997 48.1866 213.997 51.235 213.649 54.1963C213.649 54.2544 213.649 54.3124 213.649 54.3705C213.475 55.764 213.214 57.1286 212.865 58.4641C212.865 58.6383 212.836 58.8125 212.778 58.9866C212.081 61.7738 210.949 64.4737 209.555 66.9996C209.439 67.2318 209.294 67.4641 209.12 67.6963C208.539 68.6834 207.93 69.6415 207.291 70.5705C207.059 70.8609 206.826 71.1512 206.594 71.4415C205.723 72.5738 204.852 73.6189 203.807 74.6641C202.762 75.7093 201.717 76.6673 200.584 77.5383C200.352 77.7125 200.12 77.8867 199.888 78.0609C198.784 78.8157 197.652 79.5415 196.491 80.2383C196.433 80.2383 196.375 80.2674 196.317 80.3254C191.178 83.1996 185.43 84.7673 179.333 84.7673C176.023 84.7673 172.801 84.3319 169.665 83.3738C170.536 86.5093 171.059 89.7319 171.059 93.1287C171.059 99.1384 169.491 104.974 166.617 110.113C166.559 110.171 166.5 110.229 166.442 110.287C165.804 111.39 165.078 112.493 164.265 113.596C164.091 113.829 163.917 114.061 163.742 114.293C162.871 115.426 161.913 116.558 160.955 117.516C160.433 118.038 159.91 118.532 159.388 118.996H244.569C246.572 118.996 248.139 117.429 248.139 115.426V30.2446C247.675 30.7672 247.181 31.2898 246.659 31.8124Z" fill="#313033"/>
</svg>
