<svg width="257" height="218" viewBox="0 0 257 218" fill="none" xmlns="http://www.w3.org/2000/svg">
<path d="M225.142 95.043C225.142 156.863 174.57 207.436 112.75 207.436C50.9557 207.436 0.382812 156.863 0.382812 95.043H225.142Z" fill="#88C132"/>
<path d="M249.32 7.30215C258.723 16.705 258.723 31.9262 249.32 41.3291C242.488 48.1605 232.54 50.0306 224.02 46.8877L191.058 87.2265H142.953L209.76 32.6275C206.617 24.1078 208.461 14.1595 215.319 7.30215C224.696 -2.10072 239.943 -2.10072 249.32 7.30215Z" fill="#BABA00"/>
<path d="M1.18675 47.1748C-3.82638 69.4612 15.1352 89.8254 37.2657 86.9422L20.9795 65.8507L41.8632 83.046C44.6945 60.7077 23.9406 41.3565 1.18675 47.1748Z" fill="#88C132"/>
<path d="M78.6697 26.3164C92.3844 46.8884 81.1373 74.8373 57.6041 80.5258L65.916 52.8886L51.4481 78.3698C39.9153 56.8887 53.3962 29.2516 78.6697 26.3164Z" fill="#88C132"/>
<path d="M20.3017 1.5625C7.05456 20.2903 16.7691 46.5248 38.4321 52.3951L31.4449 26.5242L44.1985 50.5509C55.4455 30.914 43.653 4.93922 20.3017 1.5625Z" fill="#BABA00"/>
<path d="M105.524 126.031H119.992V144.006H137.966V158.474H119.992V176.474H105.524V158.474H87.5234V144.006H105.524V126.031Z" fill="white"/>
<path d="M93.5775 72.6562C97.0581 72.6562 99.8894 75.4875 99.8894 78.9681C99.8894 82.4488 97.0581 85.28 93.5775 85.28C90.0969 85.28 87.2656 82.4488 87.2656 78.9681C87.2656 75.4875 90.0969 72.6562 93.5775 72.6562Z" fill="#BABA00"/>
<path d="M103.19 41.4336C107.735 41.4336 111.45 45.122 111.45 49.6936C111.45 54.2391 107.735 57.9535 103.19 57.9535C98.6181 57.9535 94.9297 54.2391 94.9297 49.6936C94.9297 45.122 98.6181 41.4336 103.19 41.4336Z" fill="#88C132"/>
<path d="M146.229 44.3672C150.8 44.3672 154.489 48.0556 154.489 52.6012C154.489 57.1728 150.8 60.8612 146.229 60.8612C141.683 60.8612 137.969 57.1728 137.969 52.6012C137.969 48.0556 141.683 44.3672 146.229 44.3672Z" fill="#88C132"/>
<path d="M123.5 11.7695C128.071 11.7695 131.76 15.458 131.76 20.0295C131.76 24.5751 128.071 28.2635 123.5 28.2635C118.954 28.2635 115.266 24.5751 115.266 20.0295C115.266 15.458 118.954 11.7695 123.5 11.7695Z" fill="#BABA00"/>
<path d="M125.578 66.3438C129.058 66.3438 131.889 69.175 131.889 72.6556C131.889 76.1363 129.058 78.9675 125.578 78.9675C122.097 78.9675 119.266 76.1363 119.266 72.6556C119.266 69.175 122.097 66.3438 125.578 66.3438Z" fill="#BABA00"/>
<path d="M19.4688 184.371C49.6514 232.269 152.148 165.695 206.02 217.801C145.576 190.138 37.2615 246.399 19.4688 184.371Z" fill="#88C132"/>
<path d="M210.152 106.085C94.0188 108.397 131.5 108.397 15.3672 106.085C131.5 103.8 94.0188 103.8 210.152 106.085Z" fill="white"/>
</svg>
