<svg width="173" height="257" viewBox="0 0 173 257" fill="none" xmlns="http://www.w3.org/2000/svg">
<path d="M86.6874 0.601562H0.5V172.033C0.5 191.552 10.8375 209.718 27.9362 220.287L86.6874 256.602L145.439 220.287C162.537 209.718 172.857 191.552 172.857 172.033V0.601562H86.6874Z" fill="#1D1926"/>
<path d="M30.3059 216.284C22.5839 211.498 16.1785 204.879 11.7838 197.157C7.4068 189.47 5.09375 180.787 5.09375 172.034V5.28125H168.27V172.034C168.27 180.787 165.957 189.47 161.598 197.157C157.203 204.879 150.797 211.498 143.058 216.284L86.6906 251.122L30.3059 216.284Z" fill="white"/>
<path d="M170.523 150.646C170.523 150.646 173.228 181.873 163.068 198.402C152.891 214.931 131.095 225.963 131.095 225.963L85.795 253.755C85.795 253.755 42.9326 227.19 28.5917 218.863C14.2687 210.536 3.37962 191.427 1.77828 175.627C0.194742 159.827 3.61092 146.109 3.61092 146.109L14.2687 146.857C14.2687 146.857 76.5784 163.333 78.0018 163.368C79.4252 163.386 170.523 150.646 170.523 150.646Z" fill="#1D1926"/>
<path d="M63.3465 118.78C63.3465 118.78 58.6137 94.0482 75.9259 86.3796C75.9259 86.3796 88.9145 87.2692 96.2628 78.9423C96.2628 78.9423 103.682 84.4224 89.3949 99.5995C75.1074 114.777 65.962 122.623 63.0262 132.587C63.0262 132.587 58.4358 129.544 50.1088 128.619C50.1088 128.619 49.8063 124.278 45.0201 122.196C40.2517 120.114 35.9637 120.719 35.9637 120.719C35.9637 120.719 27.1564 117.481 17.2281 124.758C7.3176 132.053 1.3037 143.618 1.85527 151.038C2.40684 158.44 6.14329 161.447 6.14329 161.447C6.14329 161.447 4.06155 172.104 6.99733 180.36C9.95091 188.634 13.0646 191.142 13.0646 191.142L11.232 191.623C11.232 191.623 9.39933 203.882 20.5375 209.807C20.5375 209.807 18.5625 210.892 22.8505 214.451C27.1386 217.991 29.9676 221.692 32.4052 221.817C32.8856 223.507 37.7963 226.016 41.7107 227.422C45.6251 228.845 50.2334 232.777 50.2334 232.777C50.2334 232.777 68.0438 240.588 85.6762 245.179C85.6762 245.179 116.048 241.015 143.484 215.928L145.317 219.006C145.317 219.006 155.726 211.159 157.202 194.63L162.22 201.729C162.22 201.729 168.465 189.612 165.156 175.396L171.276 180.663C171.276 180.663 175.315 153.849 151.811 133.156C128.29 112.464 100.017 121.395 88.2562 145.896C88.2562 145.896 84.2172 137.8 99.6434 119.812C115.07 101.806 123.877 88.8171 117.774 67.9998C111.76 47.5561 91.9214 40.5814 78.8261 42.5386C65.7307 44.4958 54.9484 56.8616 55.3043 67.9998C47.1019 76.9495 36.6932 86.5041 43.6857 101.308C50.6604 116.129 63.3465 118.78 63.3465 118.78Z" fill="#1D1926"/>
<path d="M14.324 132.714C14.324 132.714 7.31367 139.368 5.99702 146.058C4.69816 152.748 6.72651 157.73 8.61252 159.491C8.86162 156.947 10.285 154.1 10.6587 149.563C11.0145 145.026 10.1605 136.788 15.6762 133.283C14.7688 138.621 12.2778 152.428 22.811 158.424C21.5122 155.559 21.7613 148.389 21.1385 146.129C20.5336 143.887 17.064 131.806 21.957 128.835C22.2061 133.034 22.989 142.144 26.7788 145.898C30.5686 149.652 34.3228 153.353 34.3228 153.353C34.3228 153.353 35.1769 146.343 31.8853 140.631C28.5758 134.92 28.131 130.169 28.7004 129.119C29.2697 128.052 32.1699 126.878 32.1699 126.878C32.1699 126.878 31.0668 130.098 35.5505 130.988C40.0343 131.895 47.1869 133.639 48.8594 135.809C47.7563 131.486 46.2795 124.209 35.5861 124.742C29.1808 122.785 20.8538 123.888 14.324 132.714Z" fill="#FF4379"/>
<path d="M25.3772 149.632C25.3772 149.632 26.6227 159.667 25.8932 161.375C25.1637 163.101 21.8898 161.286 21.1781 161.019C20.1996 162.211 20.7867 163.314 22.6727 166.214C24.5765 169.132 26.6049 171.73 26.6049 171.73L37.0313 170.591C37.0313 170.591 42.0311 162.852 44.5754 159.293C43.0453 154.916 40.8034 148.404 40.8034 148.404L37.5829 148.102C37.5829 148.102 38.1879 155.592 35.7859 156.695C33.8465 157.585 25.3772 149.632 25.3772 149.632Z" fill="#F4F4F4"/>
<path d="M33.2422 135.329C33.2422 135.329 37.5836 139.919 37.2277 145.649C40.9286 146.022 42.0851 146.022 42.0851 146.022C42.0851 146.022 48.8285 142.161 51.3729 140.56L50.6256 139.332C50.6256 139.332 49.3801 139.528 47.0492 138.976C44.7184 138.425 43.811 137.304 40.7685 136.485C37.5124 135.649 35.7154 134.617 35.7154 134.617L33.2422 135.329Z" fill="#F4F4F4"/>
<path d="M52.3281 132.941C52.3281 132.941 53.2711 137.852 53.5558 140.663C57.4346 142.781 62.8613 146.713 62.8613 146.713C62.8613 146.713 69.8894 147.104 73.1455 147.852C73.6437 146.019 73.359 144.507 73.359 144.507C73.359 144.507 66.4555 135.646 52.3281 132.941Z" fill="#F4F4F4"/>
<path d="M19.75 187.728C19.75 187.728 24.5362 186.999 26.2087 186.145C28.1303 187.977 32.2404 189.899 36.9732 190.468C29.269 190.094 28.7709 190.219 29.9274 193.155C31.0661 196.108 34.6958 202.798 34.6958 202.798C34.6958 202.798 27.9524 200.218 24.6963 196.5C21.4225 192.799 19.75 187.728 19.75 187.728Z" fill="#F4F4F4"/>
<path d="M14.6454 183.722L18.3641 188.224L20.6593 194.825C20.6593 194.825 14.4141 189.042 11.763 180.786C9.0941 172.548 9.5923 166.374 10.0905 164.132L18.7733 163.848C18.7733 163.848 22.5809 170.538 24.6626 173.491C24.5737 176.552 24.7694 184.256 24.7694 184.256C24.7694 184.256 20.6593 185.519 19.3071 185.572C17.9548 185.608 14.6454 183.722 14.6454 183.722Z" fill="#F4F4F4"/>
<path d="M59.2348 65.1339C59.2348 65.1339 65.1597 68.8526 68.5937 66.6641C72.7572 64.0841 73.8069 54.1737 85.2476 62.0024H83.1658C83.1658 62.0024 86.671 67.1623 82.1339 71.2545C76.7427 76.0941 78.0238 82.2148 78.0238 82.2148C78.0238 82.2148 96.4569 82.8197 101.901 62.7319C105.335 65.4897 99.7664 76.1475 99.7664 76.1475C99.7664 76.1475 104.357 80.1864 100.923 89.7411C97.5067 99.2957 80.8528 112.943 75.0346 120.166C69.2165 127.39 66.2095 133.884 66.2095 133.884C66.2095 133.884 76.3691 138.849 80.9596 147.656C85.5501 156.481 87.9521 166.641 86.1728 177.548C86.1728 177.548 94.8022 187.102 104.659 188.383C114.089 183.117 120.762 172.761 121.509 161.623C122.238 150.485 114.338 145.343 111.456 144.791C116.242 142.71 124.676 145.467 126.206 155.752C127.754 166.036 124.196 175.644 114.89 185.447C105.513 195.322 93.5211 202.582 77.6679 206.745C61.7969 210.909 52.9896 209.023 52.9896 209.023C52.9896 209.023 49.5022 200.144 44.5381 197.742C39.574 195.358 33.9337 193.899 33.9337 193.899C33.9337 193.899 37.1186 198.97 38.2929 200.696C39.4494 202.404 44.5381 205.037 44.5381 205.037C44.5381 205.037 44.8406 209.877 47.4205 210.428C43.6841 211.407 40.3746 208.151 40.3746 208.151C40.3746 208.151 23.4717 205.162 15.8742 195.305C15.0202 197.991 18.1517 207.172 29.8948 210.233C41.6557 213.311 48.2746 214.165 47.9721 215.321C47.6518 216.478 36.4603 215.926 31.7452 214.343C27.0302 212.759 24.4503 213.186 24.4503 213.186C24.4503 213.186 28.4358 218.56 39.396 218.88C50.3563 219.182 64.3057 215.873 70.8 213.969C77.2943 212.083 81.8314 212.99 81.8314 212.99C81.8314 212.99 59.3593 223.897 37.1186 223.773C42.5809 227.207 53.3454 230.516 67.2593 225.356C81.1553 220.214 89.2153 213.595 97.311 207.795C106.189 201.301 109.73 199.041 109.73 199.041C109.73 199.041 103.859 209.325 87.0268 219.983C70.195 230.623 60.0177 233.381 60.0177 233.381C60.0177 233.381 73.2198 235.48 88.4325 227.758C105.585 219.058 117.345 202.653 122.167 187.761C124.801 192.298 112.684 220.837 89.8381 235.213C103.307 235.035 118.68 222.492 124.676 209.254C130.69 196.034 133.501 183.917 133.501 183.917C133.501 183.917 136.988 204.183 121.011 227.26C121.011 227.26 133.199 222.794 138.163 209.325C143.109 195.856 141.579 177.174 141.579 177.174C141.579 177.174 147.7 183.295 146.419 212.012C146.419 212.012 153.891 203.56 152.415 188.383C150.956 173.188 145.689 165.858 145.689 165.858C145.689 165.858 157.201 178.704 161.489 194.326C164.478 184.825 158.233 162.78 150.707 155.876C160.51 161.499 167.965 173.509 167.965 173.509C167.965 173.509 167.236 154.275 151.685 138.671C136.686 123.6 115.193 121.43 101.973 133.564C89.4289 145.058 89.2331 155.609 94.1261 164.933C89.1086 164.683 81.6357 151.891 84.8917 138.244C88.13 124.579 97.6846 117.231 105.211 107.374C112.737 97.5164 118.324 86.6274 115.068 72.2865C111.83 57.9635 101.901 49.3874 91.7953 47.0566C81.7068 44.7436 64.5014 46.7008 59.2348 65.1339Z" fill="#FF4379"/>
<path d="M39.5938 171.695L45.1984 182.335H59.0767L65.1083 171.518L58.792 160.539L46.4617 160.504C46.4617 160.504 41.9246 166.375 39.5938 171.695Z" fill="#F4F4F4"/>
<path d="M44.6988 184.914H59.182C59.182 184.914 63.5234 189.807 64.3418 190.625C63.5589 192.743 60.979 197.244 60.0004 198.508C59.0218 199.771 53.5239 201.692 53.5239 201.692C53.5239 201.692 53.5239 198.259 48.3641 195.074C43.222 191.889 38.5781 190.625 38.5781 190.625C38.5781 190.625 43.2754 186.622 44.6988 184.914Z" fill="#F4F4F4"/>
<path d="M55.3047 203.687C55.3047 203.687 60.0553 204.097 66.5852 199.648C73.1151 195.2 79.645 186.144 81.7267 179.774C83.8084 173.404 82.9544 165.931 82.2071 163.031C82.2071 163.031 80.6236 169.846 78.008 173.689C77.9191 177.692 76.7448 184.133 76.7448 184.133L78.008 187.194L76.2466 186.179C76.2466 186.179 69.9658 189.809 66.3361 191.286C66.3361 191.286 63.4003 196.873 62.0125 199.275C60.6247 201.695 57.5643 202.798 55.3047 203.687Z" fill="#F4F4F4"/>
<path d="M67.1831 170.592L76.4175 172.265C76.4175 172.265 79.9582 166.055 79.9582 161.643C78.2857 157.568 74.0866 149.971 74.0866 149.971L63.9271 148.992L60.7422 158.992C60.7422 158.992 65.8309 168.137 67.1831 170.592Z" fill="#F4F4F4"/>
<path d="M85.3679 180.109C85.3679 180.109 89.2822 184.771 94.1218 187.653C98.9614 190.518 101.719 190.589 101.719 190.589L98.7835 193.098C98.7835 193.098 89.6559 190.838 84.0156 182.938L85.3679 180.109Z" fill="#FF4379"/>
<path d="M55.5516 91.877C54.7688 95.6312 54.9467 98.6916 55.4982 101.111C55.5101 101.135 55.516 101.159 55.516 101.183C57.2241 110.541 60.6403 113.922 60.6403 113.922C60.0176 112.392 59.5906 110.435 59.2881 108.175C60.0887 89.9198 73.6111 82.696 73.6111 82.696C73.4332 78.835 75.0345 75.3477 75.0345 75.3477C75.0345 75.3477 57.8825 80.7388 55.5516 91.877Z" fill="#FF4379"/>
<path d="M50.4814 104.741C46.1223 98.6203 46.0689 90.4179 46.7984 90.0443C47.5279 89.6884 48.9513 89.9909 51.9404 93.0512C55.8548 77.9275 76.0672 72.6609 76.0672 72.6609C73.0069 71.6823 71.4233 68.8711 71.4233 68.8711C71.4233 68.8711 70.0711 70.508 65.7831 71.1308C61.4951 71.7357 59.2888 69.6006 59.2888 69.6006C59.2888 69.6006 52.1362 76.3974 49.058 80.5608C45.9977 84.7243 43.1865 88.1583 46.5493 99.0474C49.9299 109.954 60.641 113.922 60.641 113.922C60.641 113.922 54.8228 110.862 50.4814 104.741Z" fill="#F4F4F4"/>
<path fill-rule="evenodd" clip-rule="evenodd" d="M80.8873 68.0693C79.6952 69.7951 77.4 70.2933 75.7631 69.1724C74.1262 68.0515 73.7703 65.7384 74.9624 63.9948C76.1367 62.2689 78.432 61.7885 80.0689 62.9094C81.7058 64.0303 82.0794 66.3434 80.8873 68.0693ZM79.1081 64.315C78.2007 63.7101 76.9552 63.977 76.2969 64.92C75.6385 65.863 75.852 67.144 76.7417 67.749C77.6313 68.3717 78.8946 68.1048 79.5351 67.144C80.1934 66.201 79.9977 64.9378 79.1081 64.315Z" fill="white"/>
<path d="M125.973 192.992C125.973 192.992 120.262 217.404 97.3984 232.1C97.3984 232.1 120.902 222.225 125.973 192.992Z" fill="#1D1926"/>
<path d="M113.148 199.043C113.148 199.043 98.949 220.999 70.125 231.212C86.3696 228.757 105.07 213.562 113.148 199.043Z" fill="#1D1926"/>
<path d="M87.7539 212.352C87.7539 212.352 67.844 224.024 45.1406 224.842C63.5916 226.39 83.2702 216.106 87.7539 212.352Z" fill="#1D1926"/>
<path d="M17.3516 199.273C17.3516 199.273 25.9276 208.65 41.1047 210.358C34.2901 210.679 22.6716 206.515 17.3516 199.273Z" fill="#1D1926"/>
<path d="M29.75 215.484C29.75 215.484 39.2335 218.758 48.9838 216.676C39.269 219.452 29.75 215.484 29.75 215.484Z" fill="#1D1926"/>
<path d="M136.507 186.961C136.507 186.961 137.806 205.163 126.383 222.297C136.258 211.764 137.717 195.288 136.507 186.961Z" fill="#1D1926"/>
<path d="M144.742 179.043C144.742 179.043 149.724 190.786 147.767 208.098C150.863 199.451 148.087 182.797 144.742 179.043Z" fill="#1D1926"/>
<path d="M151.117 168.992C151.117 168.992 158.216 178.956 160.832 189.08C159.925 179.436 153.163 170.309 151.117 168.992Z" fill="#1D1926"/>
<path d="M155.438 155.844C155.438 155.844 162.875 162.712 166.22 169.562C163.604 161.733 158.053 157.232 155.438 155.844Z" fill="#1D1926"/>
<path d="M131.916 176.695C131.916 176.695 129.39 184.222 125.422 186.552C132.147 183.243 132.023 177.976 131.916 176.695Z" fill="#1D1926"/>
<path d="M137.718 171.98C137.718 171.98 137.166 179.685 135.031 182.069C139.622 178.955 138.092 173.262 137.718 171.98Z" fill="#1D1926"/>
<path d="M142.628 164.438C142.628 164.438 142.432 173.636 140.297 175.344C146.418 172.106 142.628 164.438 142.628 164.438Z" fill="#1D1926"/>
<path d="M17.4716 133.066C17.4716 133.066 16.3685 147.639 21.297 154.044C17.5962 151.268 15.7457 139.721 17.4716 133.066Z" fill="#1D1926"/>
<path d="M10.4819 139.027C10.4819 139.027 5.74903 148.208 8.23999 155.147C7.70622 151.393 8.11544 145.397 10.4819 139.027Z" fill="#1D1926"/>
<path d="M24.5703 134.293C24.5703 134.293 26.2428 142.371 32.4524 149.559C29.143 147.157 24.6949 139.31 24.5703 134.293Z" fill="#1D1926"/>
<path d="M35.8359 126.785C42.7751 125.896 45.7998 132.532 45.7998 132.532C45.7998 132.532 43.0242 127.355 35.8359 126.785Z" fill="#1D1926"/>
<path d="M27.2578 173.191L37.0615 172.105L42.3637 179.774L36.5633 173.974L27.2578 173.191Z" fill="white"/>
<path d="M43.4297 147.551L52.237 142.641L60.386 147.551L52.4861 144.491L43.4297 147.551Z" fill="white"/>
<path d="M62.6172 181.568L67.0298 172.992L74.218 173.971L68.3286 174.7L62.6172 181.568Z" fill="#F4F4F4"/>
<path d="M25.5729 86.8077C25.5729 80.0643 20.1106 74.602 13.3672 74.602C20.1106 74.602 25.5729 69.1575 25.5729 62.4141C25.5729 69.1575 31.0353 74.602 37.7609 74.602C31.0353 74.602 25.5729 80.0643 25.5729 86.8077Z" fill="black"/>
<path d="M40.3921 61.845C40.3921 59.1761 38.2392 57.0232 35.5703 57.0232C38.2392 57.0232 40.3921 54.8525 40.3921 52.1836C40.3921 54.8525 42.5628 57.0232 45.2317 57.0232C42.5628 57.0232 40.3921 59.1761 40.3921 61.845Z" fill="black"/>
</svg>
