<svg width="180" height="257" viewBox="0 0 180 257" fill="none" xmlns="http://www.w3.org/2000/svg">
<path d="M90.8736 75.7725C91.7202 75.7725 92.5668 75.6667 93.3606 75.4727V83.6215L9.01487 142.18C7.62146 143.574 8.13296 145.179 8.32698 145.637C8.521 146.096 9.29707 147.595 11.2725 147.595H19.8976V155.374H11.59C7.10994 155.374 2.91207 152.816 1.16589 148.689C-0.597928 144.491 0.319239 139.887 3.52938 136.677L85.5998 80.3937V75.4727C86.3935 75.6667 87.2401 75.7725 88.0867 75.7725H90.8736Z" fill="#395176"/>
<path d="M22.9688 147.598H162.804V155.376H22.9688V147.598Z" fill="#F7F5FF"/>
<path d="M175.515 155.376H165.867V147.598H175.356C177.35 147.598 179.149 149.026 179.378 151.019C179.643 153.383 177.808 155.376 175.515 155.376Z" fill="#395176"/>
<path d="M154.122 153.434V169.396H31.1484V153.434H154.122Z" fill="#F7F5FF"/>
<path d="M162.804 140.262V163.703C162.804 166.842 160.247 169.4 157.107 169.4H28.6659C25.5263 169.4 22.9688 166.842 22.9688 163.703V140.262C22.9688 137.122 25.5263 134.547 28.6659 134.547H157.107C160.247 134.547 162.804 137.122 162.804 140.262Z" fill="#2067FF"/>
<path d="M102.019 7.6559L97.4688 64.2038C97.2395 66.9907 95.3346 69.2836 92.8123 70.1303C92.1245 70.3595 91.4189 70.483 90.6781 70.483H88.2793C87.5385 70.483 86.8154 70.3595 86.1451 70.1303C83.6229 69.2836 81.7179 66.9907 81.4886 64.2038L76.938 7.6559C76.7793 5.73334 77.4142 3.89897 78.7194 2.48792C80.0247 1.07686 81.8061 0.300781 83.7287 0.300781H95.2288C97.1513 0.300781 98.9328 1.07686 100.238 2.48792C101.543 3.89897 102.178 5.73334 102.019 7.6559Z" fill="#395176"/>
<path d="M60.9793 248.328C60.9793 251.714 58.2277 254.466 54.8412 254.466C51.4547 254.466 48.7031 251.714 48.7031 248.328C48.7031 244.923 51.4547 242.172 54.8412 242.172C58.2277 242.172 60.9793 244.923 60.9793 248.328Z" fill="#2067FF"/>
<path d="M154.122 178.605V215.875C154.122 218.362 153.116 220.602 151.494 222.225C149.871 223.847 147.631 224.853 145.144 224.853C141.687 224.853 138.882 227.657 138.882 231.114V248.17C138.882 250.428 137.965 252.456 136.501 253.92C135.037 255.402 132.991 256.302 130.751 256.302C126.253 256.302 122.62 252.668 122.62 248.17V208.414L107.874 194.145L93.1466 208.414V248.17C93.1466 250.428 92.2294 252.456 90.7654 253.92C89.2838 255.402 87.2554 256.302 85.0154 256.302C80.5176 256.302 76.8842 252.668 76.8842 248.17V247.218C76.8842 244.731 75.8788 242.473 74.2385 240.851C72.6157 239.228 70.3757 238.222 67.8887 238.222C66.1602 238.222 64.608 237.517 63.4615 236.388C62.3327 235.259 61.6448 233.689 61.6448 231.961C61.6448 230.003 60.8335 228.222 59.5635 226.934C58.2583 225.646 56.4768 224.853 54.519 224.853C50.6033 224.853 47.4108 228.028 47.4108 231.961V232.455C47.4108 234.695 46.4936 236.723 45.0297 238.205C43.5481 239.669 41.5197 240.586 39.2796 240.586C34.7819 240.586 31.1484 236.935 31.1484 232.455V178.605H154.122Z" fill="#F37F81"/>
</svg>
