<svg width="238" height="257" viewBox="0 0 238 257" fill="none" xmlns="http://www.w3.org/2000/svg">
<path d="M16.0535 22.3126L194.828 0.302249C204.698 -0.906306 213.762 6.18021 214.989 16.0318L237.768 201.16C238.977 211.03 231.909 220.094 222.039 221.321L43.2643 243.313C33.3945 244.54 24.4951 237.197 23.2682 227.327L0.48881 42.1988C-0.719745 32.329 6.18367 23.5211 16.0535 22.3126Z" fill="#F8D12C"/>
<path d="M44.16 123.08C40.8456 122.604 37.0552 122.805 32.8985 124.27C25.5556 126.87 21.2707 133.81 19.6593 142.215C18.1577 150.181 19.2931 164.537 24.878 171.276C24.2738 168.419 23.816 161.9 23.9991 158.769C26.2331 167.796 33.0633 181.109 53.7186 181.951C49.5619 187.811 43.1529 191.803 36.1762 194.513C43.6839 200.647 50.8253 200.116 55.9892 198.706C55.1102 213.392 62.1968 227.18 72.9822 232.839C72.7625 227.675 72.9456 223.17 73.1653 218.006C86.3312 241.408 107.774 242.837 124.913 256.167C151.978 245.712 165.327 228.847 171.443 218.006L171.498 217.933C171.717 223.134 171.901 227.656 171.681 232.839C182.466 227.18 189.553 213.392 188.692 198.706C193.838 200.116 200.979 200.647 208.505 194.513C201.51 191.803 195.119 187.811 190.944 181.951C211.618 181.109 218.43 167.796 220.682 158.769C220.865 161.9 220.408 168.419 219.785 171.276C225.37 164.537 226.524 150.181 225.004 142.215C223.392 133.81 219.107 126.87 211.765 124.27C209.842 123.593 207.992 123.19 206.235 122.988C210.391 113.814 212.021 102.736 206.729 96.8212C213.632 93.4519 216.178 84.6258 216.178 84.6258L205.539 89.7713C205.539 89.7713 209.293 86.1823 209.842 80.1212C210.245 75.5617 205.026 68.7498 201.858 65.7284C202.407 70.2513 202.462 77.6125 200.668 82.5017C195.541 67.4497 177.064 29.7464 120.098 26.7067C120.098 26.7067 121.453 31.6508 124.547 39.0853C104.148 30.4972 78.97 25.4249 49.0492 25.8095C49.0492 25.8095 41.6696 52.654 48.6463 82.7397C42.4204 79.169 37.9524 77.6858 37.9524 77.6858C37.9524 77.6858 36.9453 98.6524 44.16 123.08Z" fill="#1A3139"/>
<path fill-rule="evenodd" clip-rule="evenodd" d="M104.077 153.055C111.987 146.884 116.602 138.131 118.177 126.686C118.781 122.273 125.886 122.273 126.508 126.686C128.083 138.131 132.679 146.884 140.59 153.055C150.313 160.617 161.263 162.778 170.437 160.214C168.679 162.32 166.775 164.353 164.743 166.312C160.549 164.554 155.623 163.254 149.983 162.906C176.627 172.044 178.824 198.998 161.318 219.47C161.776 215.808 162.27 209.692 162.362 207.018C154.928 223.114 138.649 231.702 122.333 234.632C106.018 231.702 89.7389 223.114 82.3044 207.018C82.396 209.692 82.8904 215.808 83.3665 219.47C65.8607 198.998 68.0581 172.044 94.683 162.906C89.043 163.254 84.1356 164.554 79.9239 166.312C77.9097 164.353 75.987 162.32 74.2291 160.214C83.4214 162.778 94.3717 160.617 104.077 153.055ZM128.321 162.632C135.115 162.851 139.674 153.915 131.251 155.545C125.464 156.68 124.311 161.753 126.032 166.843C126.472 165.323 127.46 163.767 128.321 162.632ZM118.634 166.843C120.374 161.753 119.22 156.68 113.416 155.545C104.992 153.915 109.552 162.851 116.345 162.632C117.206 163.767 118.213 165.323 118.634 166.843ZM85.0878 203.136C85.0878 203.136 98.5101 215.222 127.607 212.896C156.704 210.571 155.477 205.169 157.07 195.775C158.37 188.158 158.077 181.328 157.931 179.039C159.414 180.65 160.714 182.261 161.538 183.635C161.483 178.324 157.821 172.245 150.917 172.593C151.87 173.289 152.987 174.223 154.14 175.285C139.931 185.081 104.443 182.518 90.8925 172.904C92.2292 172.41 93.7674 171.97 95.5253 171.641C89.922 168.931 83.9708 171.586 83.1284 178.215C83.1284 178.215 84.2454 176.457 87.1936 174.662C91.5151 182.939 91.7898 194.841 90.5263 203.759C88.9149 203.649 86.9555 203.466 85.0878 203.136ZM76.3898 154.849C75.1691 154.556 73.9727 154.141 72.8008 153.604L86.0583 116.652H90.0502L76.3898 154.849ZM166.336 116.633H172.946C173.752 116.633 174.557 116.688 175.327 116.78L162.38 155.508C159.231 155.435 156.081 154.758 153.078 153.604L166.336 116.633ZM157.345 116.633H161.337L148.83 151.608C147.695 150.985 146.596 150.29 145.534 149.539L157.345 116.633ZM104.095 116.633L91.7531 153.531C88.3472 154.867 84.7215 155.6 81.1142 155.49L95.0492 116.633H104.095ZM147.823 183.507C147.823 183.507 139.619 193.541 120.96 191.728C104.791 190.172 97.5762 183.03 95.7816 179.405C103.985 182.847 114.185 184.386 121.894 184.788C129.493 185.191 139.491 184.77 147.823 182.042V183.507ZM121.601 91.1071C102.502 88.4336 80.1071 79.2413 74.7967 63.6765C85.3258 72.6491 104.937 85.0094 121.601 91.1071ZM140.956 43.0579C140.956 43.0579 143.355 48.9175 146.083 56.5168C151.082 61.0763 160.879 70.4518 164.852 77.3186C127.479 42.8198 62.1802 42.3254 62.1802 42.3254C57.9502 58.2014 56.2656 71.7702 56.2839 83.343L55.7528 81.0724C52.9329 68.9136 52.3286 56.1322 53.4822 43.7171C53.7752 40.3844 54.233 36.6489 54.8922 33.0781C77.635 33.3345 100.744 36.9418 121.747 45.7863L138.136 52.6897L131.306 36.2643C131.135 35.8737 130.97 35.4769 130.811 35.0741C147.145 37.5461 162.49 43.7354 174.832 55.3815C176.901 57.3408 178.861 59.4283 180.71 61.644C173.056 54.6856 160.714 47.3427 140.956 43.0579ZM49.234 137.215C41.6714 136.904 34.0904 141.317 34.8229 150.18C36.8921 143.954 44.5645 141.335 50.589 142.489C39.4923 143.862 36.1047 158.2 43.887 161.881C39.419 154.135 51.2299 147.122 57.3642 155.875C59.1404 163.254 58.9573 169.425 57.3642 174.571C56.9065 174.589 56.4853 174.607 56.1008 174.607C41.7629 175.34 33.1199 165.561 29.9337 154.996C25.0446 138.9 34.6397 126.631 46.9817 131.557C47.6775 133.437 48.4283 135.323 49.234 137.215ZM202.043 130.495C212.169 129.634 219.054 140.841 214.769 154.996C211.583 165.561 202.922 175.34 188.584 174.607C188.218 174.607 187.778 174.589 187.339 174.571C185.801 169.627 185.581 163.73 187.137 156.735C187.247 156.381 187.357 156.033 187.467 155.692C193.638 147.232 205.247 154.19 200.816 161.881C208.598 158.2 205.192 143.862 194.114 142.489C200.12 141.335 207.811 143.954 209.88 150.18C210.539 142.123 204.332 137.746 197.502 137.252C199.058 134.981 200.596 132.747 202.043 130.495ZM116.254 100.83C118.122 102.332 118.909 103.028 122.352 103.028C125.776 103.028 126.563 102.332 128.449 100.83C140.516 91.2169 156.795 90.631 170.236 97.9189C164.303 98.3218 160.659 99.7501 160.659 99.7501C168.698 101.05 174.374 105.482 177.927 111.396C176.425 111.067 174.777 110.883 172.964 110.883H71.7387C69.9259 110.883 68.2595 111.067 66.7763 111.396C70.3287 105.482 75.987 101.05 84.044 99.7501C84.044 99.7501 80.4 98.3218 74.4488 97.9189C87.9077 90.631 104.187 91.2169 116.254 100.83Z" fill="#FBFBF9"/>
<path d="M128.085 200.06C128.085 200.06 115.926 198.21 112.594 209.38C117.538 209.875 122.519 209.838 127.353 209.454C131.4 209.142 135.501 208.721 139.512 208.025C142.02 207.586 144.639 207.036 147.038 206.139C147.27 206.054 147.501 205.968 147.733 205.883C146.085 203.777 143.339 201.397 139.017 200.536C130.722 198.888 125.851 206.157 125.851 206.157C125.851 206.157 125.119 203.081 128.085 200.06Z" fill="#C96951"/>
</svg>
