<svg width="257" height="123" viewBox="0 0 257 123" fill="none" xmlns="http://www.w3.org/2000/svg">
<path d="M59.4137 99.1072C59.3692 98.9382 59.9295 98.5024 60.721 98.0222C63.2201 96.4836 65.8792 95.4965 68.7518 95.2208C74.7816 94.5004 80.3044 97.7376 85.5338 100.112C88.4419 101.384 91.6436 102.318 94.8274 101.517C99.7366 100.397 101.364 95.3986 97.8067 91.7256C90.5674 84.5931 79.3439 88.853 70.7084 90.3738C64.4029 91.5389 57.9018 92.0992 51.6141 90.5784C40.1238 87.937 31.7461 77.8341 19.7844 76.5979C14.2972 75.8953 8.8188 76.6868 3.59834 78.5277C2.64674 78.8479 0.841378 79.6127 0.334451 79.5505C0.236623 79.5416 0.156577 79.506 0.174364 79.4082C0.186222 79.3667 0.212915 79.3193 0.254418 79.2659C0.61905 78.7679 2.3088 77.7718 3.25151 77.256C5.60827 75.9309 8.11623 74.7658 10.6153 73.9387C17.1342 71.742 23.9021 71.6887 30.5277 73.9209C36.264 75.9486 42.5873 78.5189 48.6882 76.7046C51.623 75.8597 54.4956 73.2895 54.6112 70.1679C54.8869 64.9741 49.1684 61.6302 44.6328 60.8031C28.8825 58.2418 21.5009 70.408 2.21986 62.7152C1.92637 62.6085 1.61511 62.4751 1.33942 62.3417C0.236627 61.8258 0.0676384 61.4434 1.17043 61.4968C2.30879 61.559 3.46496 61.8258 4.61221 61.9681C8.51644 62.4573 12.3762 62.395 16.1114 61.7458C19.2775 61.1944 22.3813 60.2072 25.414 58.7932C27.9397 57.6014 30.3766 56.2763 32.9379 55.2714C42.0448 51.4294 53.0015 52.6033 60.5076 59.0778C69.2498 66.5038 77.1828 73.3606 89.1712 73.7786C94.2315 73.8587 100.146 73.5207 103.952 69.7321C107.332 66.2992 105.082 61.7013 100.608 61.0521C96.117 60.1094 91.7681 61.9504 87.3836 62.5907C81.8963 63.6045 75.8844 62.0926 71.6333 58.4463C69.2854 56.4987 67.3644 54.1597 65.9059 51.5539C65.7191 51.1715 65.4879 50.709 65.559 50.3355C65.6213 50.1754 65.8347 50.2021 66.1816 50.4155C66.6085 50.6823 67.1332 51.1448 67.5512 51.5272C76.8271 60.1005 88.8866 57.557 99.8789 54.72C115.94 51.0203 132.127 55.7783 147.023 61.5146C153.017 63.8358 158.896 66.486 164.597 69.4564C165.433 69.9367 166.998 70.6659 165.771 71.5019C155.863 75.255 152.484 86.4251 159.75 94.2781C166.971 101.918 180.969 99.1428 183.904 88.7019C184.287 87.7147 184.536 86.2206 185.807 86.1494C186.519 86.105 187.497 86.5941 188.2 86.941C203.666 94.536 218.669 102.896 232.969 112.483C233.859 113.043 234.971 113.79 235.94 113.39C236.909 112.99 237.594 111.505 238.065 110.5C251.361 82.93 244.033 50.2999 221.933 30.1296C197.422 6.41072 159.376 3.29801 130.597 19.742C119.836 25.8162 110.453 35.6969 103.125 46.2267C102.013 47.5963 100.475 47.9876 101.506 45.702C114.793 20.5958 138.93 3.42252 167.362 1.04797C228.265 -5.15966 278.255 59.4246 246.132 115.951C244.575 118.415 243.499 121.803 240.12 122.017C204.839 122.408 169.559 122.043 134.288 122.212C132.029 122.177 129.832 121.91 127.698 121.243C124.896 120.398 122.362 118.735 119.667 117.588C116.599 116.218 113.157 115.48 109.813 115.791C109.377 115.836 108.781 115.862 108.399 115.8C108.114 115.738 108.274 115.56 108.781 115.302C110.204 114.591 112.161 114.102 113.806 113.915C120.93 112.848 127.635 118.059 134.706 116.076C137.516 115.32 139.828 112.91 139.73 109.877C139.757 106.969 137.409 104.897 134.955 103.687C131.299 101.846 127.208 101.837 123.295 102.629C117.355 103.839 112.17 107.005 106.327 108.49C99.0073 110.633 90.8343 110.304 84.093 106.542C79.3528 103.954 75.1551 100.041 69.6589 99.0627C66.7775 98.5113 63.8871 98.5558 61.0768 99.0361C60.6943 99.1072 60.2319 99.1784 59.9028 99.205C59.6182 99.2317 59.4492 99.205 59.4226 99.1161L59.4137 99.1072Z" fill="#030203"/>
<path d="M229.389 48.7097C229.416 48.852 229.087 49.2166 228.589 49.6346C227.512 50.4883 226.419 51.2888 225.307 52.0625C210.615 62.0143 196.412 72.6331 182.076 83.074C179.328 84.8527 180.004 87.6719 178.367 90.1621C176.873 92.5544 174.392 94.2264 171.573 94.7422C162.119 96.3697 155.52 85.4129 161.994 78.147C163.755 76.2082 166.272 74.9987 168.887 75.0254C172.773 75.3011 174.445 76.5462 178.314 74.4384C194.669 65.3226 211.531 57.1496 228.322 48.8964C228.927 48.6474 229.344 48.5496 229.38 48.7008L229.389 48.7097Z" fill="#E63A3F"/>
<path d="M228.436 76.9172C226.115 76.935 223.767 76.9083 221.437 76.9261C218.814 77.0417 217.684 76.6059 217.231 73.8401C216.644 70.9586 215.888 68.166 214.91 65.4002C214.109 63.3458 214.376 62.1007 216.448 61.1046C221.073 58.6767 225.813 56.4712 230.491 54.1589C231.016 53.9098 231.629 53.643 232.19 53.6341C233.221 53.5897 233.755 54.6747 234.111 55.5196C235.685 59.1748 236.885 62.9456 237.739 66.8053C238.228 69.091 238.628 71.3944 238.851 73.7156C239.153 76.517 238.308 76.8372 235.551 76.8816C233.194 76.9261 230.82 76.8905 228.508 76.9172H228.436Z" fill="#E53B3F"/>
<path d="M210.75 54.399C209.888 54.31 209.256 53.5274 208.731 52.8782C206.668 50.2813 204.463 47.8178 202.097 45.4877C200.612 44.1359 200.051 42.9175 201.537 41.2633C204.525 37.6971 207.531 34.1486 210.492 30.5556C211.399 29.3906 212.573 28.27 214.014 29.3639C216.922 31.4716 227.541 41.9037 227.701 45.0786C227.541 46.0747 226.332 46.5816 225.504 47.0441C221.218 49.2941 216.949 51.5886 212.68 53.8476C212.111 54.15 211.417 54.4612 210.812 54.4079L210.75 54.399Z" fill="#E43B3E"/>
<path d="M197.395 40.8288C196.701 40.8466 196.016 40.3753 195.447 39.9839C193.277 38.4898 191.036 37.1469 188.67 35.973C186.874 35.1459 186.18 34.1232 187.016 32.2022C188.501 28.4047 189.995 24.6427 191.427 20.8274C192.147 18.773 192.983 17.6169 195.278 18.6041C199.671 20.3739 203.851 22.6061 207.907 25.0429C210.094 26.2969 209.241 27.6131 207.889 29.1339C205.096 32.4779 202.322 35.8396 199.556 39.1924C198.995 39.8505 198.346 40.7577 197.448 40.8288H197.395Z" fill="#EC493A"/>
<path d="M175.449 14.3451C179.362 14.603 183.275 15.2345 187.055 16.1416C187.998 16.355 189.216 16.7819 189.154 17.9292C189.136 18.5695 188.887 19.192 188.674 19.8057C187.1 23.8433 185.819 27.9966 184.147 31.9986C183.524 33.2793 182.101 33.0925 180.972 32.6745C178.606 31.9097 176.214 31.3049 173.759 30.8514C171.42 30.5223 171.002 29.3839 171.349 27.1873C171.758 23.6388 172.114 20.0814 172.577 16.5329C172.772 14.8787 173.573 14.1139 175.378 14.3451H175.449Z" fill="#F36234"/>
<path d="M162.346 29.7999C161.599 29.8177 160.843 29.8177 160.087 29.8266C158.931 29.8177 157.642 29.9155 156.948 29.2218C156.379 28.6882 156.219 27.8166 156.067 27.0696C155.561 24.3126 155.036 21.5823 154.484 18.8342C154.058 17.0644 154.449 15.9883 156.361 15.7037C158.451 15.3747 168.083 13.6849 169.239 14.9745C169.79 15.5259 169.683 16.4686 169.621 17.2156C169.212 20.7819 168.91 24.3482 168.474 27.9145C168.216 29.9244 166.411 29.7821 164.614 29.7554C163.885 29.7554 163.147 29.7821 162.417 29.7999H162.346Z" fill="#F69C25"/>
<path d="M153.554 29.5681C153.341 30.6264 152.158 30.9021 151.233 31.1067C149.259 31.5424 147.32 32.0583 145.39 32.663C143.629 33.2856 142.58 32.7164 141.859 31.0266C140.783 28.7588 139.707 26.5087 138.604 24.2498C137.822 22.7824 137.742 21.4839 139.449 20.728C142.339 19.3851 145.354 18.3357 148.387 17.3841C150.361 16.6815 151.331 17.2507 151.686 19.3228C152.291 22.2221 152.887 25.1214 153.483 28.0117C153.572 28.5009 153.652 29.0434 153.572 29.5058L153.554 29.5681Z" fill="#F7A526"/>
<path d="M134.169 37.4673C133.395 37.3873 132.817 36.7114 132.337 36.1333C130.843 34.2924 129.358 32.4425 127.846 30.5838C126.592 29.1253 126.503 27.978 128.273 26.9286C130.123 25.8614 131.83 24.4918 133.787 23.6469C135.254 23.1311 136.019 24.723 136.561 25.8436C137.566 27.9158 138.598 29.9701 139.621 32.0245C139.923 32.6471 140.27 33.3586 140.066 34.0522C139.852 34.8527 138.776 35.3774 137.833 35.8932C136.73 36.4268 135.379 37.5118 134.223 37.4762L134.169 37.4673Z" fill="#F6A626"/>
<path d="M228.979 80.2606C230.474 80.2962 232.092 80.3051 233.684 80.3051C234.911 80.3229 236.156 80.2873 237.366 80.2962C237.962 80.314 238.629 80.3851 239.047 80.8476C239.865 81.8526 239.367 83.489 237.944 83.6046C232.288 83.7647 226.596 83.5957 220.931 83.649C220.282 83.6401 219.615 83.649 219.028 83.3645C218.085 82.8753 217.943 81.3278 218.725 80.6342C219.241 80.1806 220.308 80.234 221.26 80.234C223.777 80.2428 226.445 80.2073 228.908 80.2606H228.979Z" fill="#040404"/>
<path d="M131 39.5382C130.991 40.063 130.528 40.5788 129.968 40.7033C129.203 40.8811 128.518 40.312 128.012 39.7784C126.162 37.8218 124.259 35.8919 122.418 33.9176C121.982 33.4107 121.608 32.7347 121.92 32.0677C122.177 31.463 122.862 30.9827 123.503 31.0539C124.25 31.1606 124.739 31.7654 125.228 32.2901C126.935 34.2466 128.679 36.1854 130.368 38.142C130.68 38.5244 131.009 39.0224 131 39.4849V39.5382Z" fill="#0B0B0B"/>
</svg>
