<svg width="247" height="257" viewBox="0 0 247 257" fill="none" xmlns="http://www.w3.org/2000/svg">
<path fill-rule="evenodd" clip-rule="evenodd" d="M126.086 100.407C127.989 104.107 129.046 108.229 129.046 112.351V252.506C129.046 254.515 127.46 256.1 125.558 256.1C123.655 256.1 122.07 254.515 122.07 252.506V124.823V124.718V123.872C117.736 128.1 111.817 130.848 105.158 130.848C99.1331 130.848 93.4254 128.523 89.1975 124.612V251.766C89.1975 254.197 87.295 256.1 84.8639 256.1C82.5386 256.1 80.636 254.197 80.636 251.766V124.612C76.4081 128.523 70.7004 130.848 64.6756 130.848C58.5452 130.848 52.9432 128.523 48.6096 124.612V251.766C48.6096 254.197 46.707 256.1 44.3817 256.1C42.0563 256.1 40.1538 254.197 40.1538 251.766V124.612C35.8202 128.523 30.1125 130.848 24.0877 130.848C17.5345 130.848 11.5097 128.1 7.28176 123.872V251.555C7.28176 253.563 5.6963 255.043 3.68804 255.043C1.78548 255.043 0.200012 253.563 0.200012 251.555V115.945V115.839V112.562C0.200012 108.229 1.36269 104.001 3.47665 100.196L57.8053 4.7507C59.4965 1.89686 62.5617 0.0999756 65.944 0.0999756H66.0497C69.5377 0.0999756 72.603 1.89688 74.1884 4.96211L126.086 100.407ZM119.533 115.522C121.752 111.823 121.647 107.278 119.533 103.472L78.8392 28.5327C74.3999 29.8011 69.6434 30.541 64.6756 30.541C60.4477 30.541 56.3255 30.0125 52.4147 29.0612L10.1356 103.367C7.70456 107.489 7.81026 112.774 10.6641 116.685C15.3148 123.238 24.6162 126.197 33.8119 120.807C36.8771 119.116 38.674 115.945 39.8367 112.562C40.5766 110.66 42.3734 109.286 44.4874 109.286C46.4956 109.286 48.2925 110.554 49.0324 112.562C52.6261 122.604 65.4155 127.677 75.9853 119.538C78.205 117.847 79.4733 115.205 80.4246 112.562C81.1645 110.554 82.9614 109.286 84.9696 109.286C87.0836 109.286 88.8804 110.66 89.6203 112.562C90.783 115.945 92.5799 119.116 95.6451 120.807C105.264 126.515 115.093 122.815 119.533 115.522Z" fill="#313033"/>
<path d="M192.676 128.206L150.079 49.8837C148.705 47.3469 146.274 45.8671 143.421 45.7614H143.315C140.567 45.7614 138.03 47.3469 136.656 49.6722L114.776 88.1463C116.115 89.9079 117.313 91.7752 118.37 93.7482L132.111 69.6491C135.282 70.389 138.664 70.8118 142.258 70.8118C146.38 70.8118 150.291 70.2833 153.885 69.2263L187.285 130.742C188.976 133.808 189.082 137.613 187.285 140.572C183.691 146.597 175.553 149.662 167.625 145.012C165.194 143.532 163.609 140.995 162.658 138.247C162.129 136.556 160.649 135.499 158.852 135.499C157.161 135.499 155.681 136.556 155.153 138.141C154.307 140.361 153.356 142.475 151.454 143.955C142.786 150.614 132.322 146.491 129.363 138.141C128.729 136.556 127.249 135.499 125.558 135.499C125.452 135.499 125.346 135.605 125.241 135.605C125.241 136.133 125.346 136.767 125.346 137.296C125.346 140.995 124.818 144.589 123.866 148.077C126.403 152.41 128.2 157.273 129.046 162.346V148.077C132.639 151.248 137.29 153.15 142.258 153.15C147.226 153.15 151.876 151.248 155.364 148.077V252.612C155.364 254.515 156.95 256.1 158.852 256.1C160.861 256.1 162.34 254.515 162.34 252.612V148.077C165.934 151.248 170.585 153.15 175.553 153.15C180.943 153.15 185.805 151.036 189.399 147.443V148.183V148.288V253.14C189.399 254.726 190.667 256.1 192.253 256.1C193.838 256.1 195.212 254.726 195.212 253.14V138.036C195.212 134.653 194.261 131.271 192.676 128.206Z" fill="#313033"/>
<path d="M244.362 156.638L211.278 95.7564C210.221 93.8539 208.319 92.5855 206.099 92.5855H205.994C203.88 92.5855 201.871 93.7482 200.814 95.6508L185.594 122.287C186.51 123.978 187.285 125.739 187.919 127.572L197.326 111.083C199.757 111.717 202.4 112.034 205.148 112.034C208.319 112.034 211.384 111.611 214.238 110.766L240.24 158.647C241.508 161.078 241.614 164.037 240.134 166.363C237.386 171.013 231.044 173.339 224.913 169.745C223.011 168.582 221.743 166.574 221.003 164.46C220.58 163.192 219.417 162.346 218.149 162.346C216.775 162.346 215.612 163.192 215.189 164.46C214.555 166.151 213.815 167.842 212.335 168.899C205.676 174.078 197.432 170.908 195.107 164.46C194.684 163.192 193.521 162.346 192.253 162.346C192.112 162.346 192.006 162.381 191.936 162.452C191.936 162.875 192.042 163.297 192.042 163.72C192.042 166.574 191.619 169.428 190.879 172.07C192.887 175.453 194.261 179.258 194.895 183.169V172.07C197.643 174.607 201.343 176.087 205.148 176.087C209.059 176.087 212.653 174.607 215.401 172.07V253.352C215.401 254.832 216.669 256.1 218.149 256.1C219.629 256.1 220.791 254.832 220.791 253.352V172.07C223.539 174.607 227.239 176.087 231.044 176.087C235.272 176.087 239.077 174.396 241.825 171.647V172.176V172.282V253.775C241.825 255.043 242.776 256.1 244.045 256.1C245.313 256.1 246.264 255.043 246.264 253.775V164.354C246.264 161.606 245.63 159.069 244.362 156.638Z" fill="#313033"/>
</svg>
