<svg width="236" height="256" viewBox="0 0 236 256" fill="none" xmlns="http://www.w3.org/2000/svg">
<path fill-rule="evenodd" clip-rule="evenodd" d="M235.175 179.687V253.27C235.175 254.791 233.927 256 232.445 256H189.317C187.796 256 186.587 254.791 186.587 253.27V217.863C186.587 210.337 180.504 204.254 172.978 204.254V253.27C172.978 254.791 171.769 256 170.248 256H123.65C122.129 256 120.92 254.791 120.92 253.27V204.254C108.91 204.254 99.1221 214.003 99.1221 226.052V253.27C99.1221 254.791 97.9133 256 96.4315 256H49.8328C48.3121 256 47.1032 254.791 47.1032 253.27V147.049C-37.0473 122.248 18.6371 0 18.6371 0C37.3935 19.9653 75.5303 38.4097 75.5303 38.4097C66.2106 45.5068 35.2878 75.6497 51.9386 107.43C64.6508 131.685 94.1698 131.919 110.041 137.885C120.881 141.941 128.173 149.779 110.041 163.661C98.7712 172.317 81.1066 177.426 71.2409 179.531C68.5893 180.077 67.8484 183.47 70.0321 185.069L81.0286 193.141C84.5771 195.753 88.9835 196.845 93.3119 196.182C114.993 192.829 160.539 176.412 157.653 146.698C157.146 141.551 156.639 116.828 109.885 104.545C93.7799 100.294 83.2903 94.796 90.5823 81.3819C107.857 49.7182 182.649 19.9653 201.444 0C201.444 0 247.146 100.372 193.138 137.69C216.34 137.69 235.175 156.486 235.175 179.687ZM139.599 70.3854C139.599 70.3854 136.674 73.349 128.485 74.9088C120.335 76.5075 118.619 82.8637 118.619 82.8637C118.619 82.8637 128.251 86.1392 134.178 83.4486C140.067 80.719 139.599 70.3854 139.599 70.3854Z" fill="#333333"/>
</svg>
