<svg width="257" height="212" viewBox="0 0 257 212" fill="none" xmlns="http://www.w3.org/2000/svg">
<path d="M213.624 86.125C200.173 86.125 189.27 97.0282 189.27 110.479C189.27 103.997 186.76 98.1147 182.638 93.7685C178.217 89.085 171.923 86.125 164.954 86.125H147.493H121.828C121.828 86.125 117.594 91.1832 110.55 96.5786C101.932 103.248 89.0435 110.479 74.6184 109.692C73.5193 109.617 72.4327 109.518 71.3586 109.393C46.967 106.47 26.8467 86.7995 26.2098 86.1625C43.6698 121.57 75.7049 127.639 75.7049 127.639C81.8872 178.746 28.0082 177.397 21.826 151.919C15.6064 126.441 37.8248 119.172 37.8248 119.172C37.8248 119.172 18.1542 109.692 6.16442 127.639C-9.53465 151.094 9.08694 203.25 59.6686 195.981C106.354 189.274 107.328 144.425 106.578 131.274C106.466 128.988 106.279 127.639 106.279 127.639C112.124 126.103 117.444 123.818 121.828 121.57V133.11V211.38H157.722V144.313C157.722 140.266 160.982 137.006 165.028 137.006H165.066C169.075 137.006 172.372 140.266 172.372 144.313V211.38H189.27H206.206V144.313C206.206 140.266 209.503 137.006 213.512 137.006C217.559 137.006 220.856 140.266 220.856 144.313V211.38H256.75V86.125H213.624Z" fill="#333333"/>
<path d="M66.1881 102.312C73.9814 102.537 90.9544 101.638 101.221 90.922C94.4764 85.1145 90.2425 76.4969 90.2425 66.9051C90.2425 49.2952 104.518 35.0573 122.128 35.0573C139.7 35.0573 153.975 49.2952 153.975 66.9051C153.975 67.5795 153.938 68.2539 153.901 68.9284H166.977C175.594 68.9284 183.088 73.8367 186.797 80.993C187.772 76.4594 188.296 71.7385 188.296 66.9051C188.296 44.6117 177.281 24.9035 160.382 12.9138C149.592 5.23288 136.366 0.699219 122.128 0.699219C85.559 0.699219 55.9219 30.3364 55.9219 66.9051C55.9219 79.9065 59.6687 92.0835 66.1506 102.312H66.1881Z" fill="#333333"/>
<path d="M131.57 65.2177C131.57 70.4632 127.336 74.697 122.128 74.697C116.882 74.697 112.648 70.4632 112.648 65.2177C112.648 59.9722 116.882 55.7383 122.128 55.7383C127.336 55.7383 131.57 59.9722 131.57 65.2177Z" fill="#333333"/>
</svg>
