<svg width="209" height="257" viewBox="0 0 209 257" fill="none" xmlns="http://www.w3.org/2000/svg">
<path d="M128.065 15.6048C140.66 -3.79058 171.986 0.419133 191.5 2.8052C198.164 3.62329 205.731 5.2765 207.743 12.8267C209.566 19.61 208.169 27.3306 207.93 34.2502C207.419 48.0894 206.959 61.9457 206.038 75.7508C205.374 85.5337 204.027 95.2485 202.902 104.98C202.22 110.997 201.982 117.081 200.516 122.978C198.079 132.846 193.051 142.425 184.529 148.339C179.416 151.884 173.383 153.827 167.213 154.457C163.089 154.866 158.692 154.457 154.55 154.423C142.944 154.304 131.354 154.048 119.765 153.656C105.312 153.179 90.8704 152.514 76.4404 151.662C65.1917 150.997 53.9431 151.031 43.0183 147.998C34.0365 145.509 24.833 142.101 17.4362 136.272C9.06793 129.676 5.11386 119.331 3.01752 109.156C1.41545 101.469 -1.17514 90.4763 3.80152 83.5908C8.43732 77.1995 14.198 77.8813 21.2198 77.8813C29.537 78.546 37.8712 79.0743 46.1884 79.5174C59.2606 80.1992 75.5371 83.267 86.496 74.6089C95.1029 67.8257 100.591 57.9235 106.471 48.8734C112.209 40.0336 117.947 31.1995 123.685 22.371C125.139 20.1099 126.599 17.8545 128.065 15.6048Z" fill="#E9CEA5"/>
<path d="M205.696 75.5977C205.049 85.3806 203.702 95.0782 202.577 104.81C201.879 110.826 201.64 116.911 200.191 122.808C197.737 132.676 192.709 142.254 184.205 148.168C179.075 151.73 173.058 153.673 166.889 154.287C162.747 154.696 158.367 154.287 154.225 154.253C142.619 154.151 131.029 153.878 119.423 153.503C104.97 153.014 90.5287 152.344 76.0986 151.492C64.867 150.827 53.6184 150.861 42.6766 147.827C38.518 146.686 34.3083 145.322 30.252 143.618L109.026 142.476C137.591 142.22 146.454 109.241 153.101 95.9474C159.747 82.6536 174.763 84.1193 189.045 83.8807C203.327 83.6251 205.696 75.5977 205.696 75.5977Z" fill="#0A0B0C"/>
<path d="M207.587 33.603C207.093 47.4422 206.633 61.2814 205.695 75.1036C205.695 75.1036 203.633 82.0743 191.822 83.2333L131.625 10.2024C131.71 10.1343 131.778 10.0661 131.847 9.99791C146.231 -3.65383 173.518 -0.00655341 191.157 2.14091C197.838 2.95899 205.389 4.6122 207.417 12.1624C209.223 18.9457 207.843 26.6663 207.587 33.603Z" fill="url(#paint0_linear_40_10194)"/>
<path d="M191.823 83.234C190.949 83.3249 190.023 83.376 189.045 83.3874C174.763 83.626 159.748 82.1432 153.101 95.4541C152.709 96.221 152.317 97.0562 151.925 97.9424L108.072 45.2273C108.14 45.142 108.192 45.0398 108.26 44.9546C113.288 37.2169 118.315 29.4621 123.343 21.7074C124.809 19.4577 126.275 17.1909 127.74 14.9412C128.882 13.1687 130.195 11.6007 131.626 10.2031L191.823 83.234Z" fill="url(#paint1_linear_40_10194)"/>
<path d="M151.925 97.9417C148.602 105.27 144.563 116.383 137.882 125.62L35.1953 108.372C35.1953 108.372 61.3058 79.8757 61.4762 79.8757C70.3899 80.1996 79.3206 79.3644 86.172 73.9617C94.7619 67.1784 100.267 57.2592 106.147 48.2092C106.777 47.2036 107.425 46.2321 108.073 45.2266L151.925 97.9417Z" fill="url(#paint2_linear_40_10194)"/>
<path d="M137.882 125.62C131.371 134.636 122.338 141.862 109.027 141.981L30.2527 143.123C25.5658 141.163 21.0834 138.743 17.1123 135.624C8.74397 129.011 4.7899 118.683 2.67653 108.491C2.31861 106.719 1.89253 104.759 1.51758 102.73L30.2527 107.554L35.1953 108.372L137.882 125.62Z" fill="url(#paint3_linear_40_10194)"/>
<path d="M61.4755 79.8923L35.0924 108.44L30.1498 107.605L1.53396 102.816C0.375013 96.1687 -0.357843 88.6526 3.37465 83.4884C8.01045 77.0972 13.7711 77.7789 20.793 77.7789C29.1101 78.4436 37.4273 78.9719 45.7615 79.415C50.3632 79.6537 61.3221 79.8752 61.4755 79.8923Z" fill="url(#paint4_linear_40_10194)"/>
<path d="M178.462 146.908L207.009 246.373H201.112L165.168 148.135L178.462 146.908Z" fill="#0A0B0C"/>
<path d="M127.995 149.856L131.438 253.991C131.438 253.991 129.955 256.462 124.297 255.968L113.713 148.373L127.995 149.856Z" fill="#0A0B0C"/>
<path d="M100.165 149.618L99.4316 237.255L105.09 237.511L115.18 146.414L100.165 149.618Z" fill="#0A0B0C"/>
<path d="M45.2668 148.373L9.8166 247.344L4.1582 247.105L33.4558 143.703L45.2668 148.373Z" fill="#0A0B0C"/>
<defs>
<linearGradient id="paint0_linear_40_10194" x1="131.628" y1="0.0346932" x2="208.337" y2="0.0346932" gradientUnits="userSpaceOnUse">
<stop stop-color="#D2B186"/>
<stop offset="1" stop-color="#F1D8BC"/>
</linearGradient>
<linearGradient id="paint1_linear_40_10194" x1="108.073" y1="10.207" x2="191.827" y2="10.207" gradientUnits="userSpaceOnUse">
<stop stop-color="#AB7E5A"/>
<stop offset="1" stop-color="#CBA070"/>
</linearGradient>
<linearGradient id="paint2_linear_40_10194" x1="35.2011" y1="45.23" x2="151.921" y2="45.23" gradientUnits="userSpaceOnUse">
<stop stop-color="#352524"/>
<stop offset="1" stop-color="#815F4E"/>
</linearGradient>
<linearGradient id="paint3_linear_40_10194" x1="1.52371" y1="102.728" x2="137.88" y2="102.728" gradientUnits="userSpaceOnUse">
<stop stop-color="#976F51"/>
<stop offset="1" stop-color="#CBA578"/>
</linearGradient>
<linearGradient id="paint4_linear_40_10194" x1="0.592831" y1="77.7608" x2="61.4721" y2="77.7608" gradientUnits="userSpaceOnUse">
<stop stop-color="#715E57"/>
<stop offset="1" stop-color="#75615B"/>
</linearGradient>
</defs>
</svg>
