<svg width="256" height="257" viewBox="0 0 256 257" fill="none" xmlns="http://www.w3.org/2000/svg">
<path d="M248.367 100.728C245.957 95.2937 242.889 90.0788 238.989 85.1269C230.312 74.1274 218.524 66.4146 205.465 62.4706C209.409 55.6343 210.11 47.5272 206.429 40.2526C204.676 47.4833 198.322 52.7859 191.486 55.722C188.287 57.0805 185 58.0445 181.626 58.921C181.976 56.5546 182.064 54.1882 181.888 51.8218C181.187 41.6988 175.315 32.9343 165.63 29.9105C169.574 36.2209 168.961 44.4596 166.288 51.4274C164.842 55.2399 162.87 58.7895 160.766 62.2953C159.758 57.8693 158.049 53.6623 155.464 49.9374C149.635 41.6111 140.082 37.0974 130.222 39.4638C136.839 42.8381 140.564 50.2441 141.835 57.6063C142.58 61.7256 142.667 65.8888 142.711 70.0519C142.361 70.271 142.185 70.3587 142.185 70.3587C137.715 67.072 132.106 65.4067 126.541 66.0202C126.044 66.0787 125.547 66.1517 125.051 66.2394C133.815 71.6295 136.182 84.601 137.452 93.9352C138.022 99.7198 138.022 105.899 138.504 111.683C139.337 117.161 144.815 120.755 150.424 120.492C150.716 120.462 151.008 120.433 151.3 120.404C151.3 120.404 151.3 120.419 151.3 120.448C151.563 126.495 153.141 132.061 157.085 137.363C157.552 137.977 158.064 138.532 158.619 139.029C161.204 141.658 164.666 143.542 169.355 143.805C169.384 143.805 169.428 143.805 169.487 143.805H169.793C167.559 140.694 166.112 136.925 166.112 132.762C166.112 131.14 166.288 129.563 166.682 128.029C167.252 125.838 168.216 123.778 169.443 121.938C172.905 116.898 178.733 113.568 185.307 113.568C185.979 113.568 186.636 113.611 187.279 113.699C199.33 114.926 207.875 128.511 202.836 139.817C199.242 147.968 191.004 152.92 182.809 155.506C171.02 159.187 159.232 157.828 148.014 153.052C139.03 149.195 130.879 143.586 124.13 136.574C117.338 129.563 111.992 121.237 108.486 112.122C105.243 103.751 103.578 94.7678 103.578 85.7404C103.578 45.336 136.357 12.6006 176.761 12.6006C180.092 12.6006 183.378 12.8197 186.621 13.2579C173.869 5.41372 158.925 0.899994 142.886 0.899994C97.8369 0.899994 61.1136 36.6153 59.4922 81.3143C50.7715 63.5662 49.7198 42.1808 58.4405 22.7236C59.6967 19.919 61.1136 17.2458 62.6913 14.7041C49.7636 23.1618 39.0271 35.2568 32.2784 50.3756C18.3429 81.4019 24.9162 116.372 46.1702 140.168C26.9759 131.403 12.0762 113.874 7.43106 91.6126C6.81754 88.6034 6.39392 85.6089 6.1602 82.629C0.638565 97.0466 -0.939046 113.129 2.43529 129.344C9.31542 162.474 34.9516 186.883 65.9341 193.851C55.3729 195.428 44.4611 194.595 34.0751 191.134C26.5377 188.285 19.4822 184.472 13.0403 179.783C11.1998 178.323 9.44689 176.789 7.78163 175.182C11.6818 185.437 17.6417 195.034 25.5298 203.229C41.5688 220.933 64.488 232.327 90.2118 233.159C104.586 233.598 118.302 230.705 130.572 225.14C116.987 236.577 99.3707 243.414 80.1764 243.107C76.7875 243.078 73.457 242.815 70.1849 242.318C70.7692 242.698 71.3681 243.078 71.9816 243.458C89.905 252.485 110.239 257.349 131.536 256.867C134.049 256.809 136.576 256.692 139.118 256.517C184.255 252.836 224.966 224.526 243.81 183.289C255.51 157.785 259.893 126.758 248.367 100.728Z" fill="#EF171B"/>
<path d="M248.367 100.728C245.957 95.2937 242.889 90.0788 238.989 85.1269C230.312 74.1274 218.524 66.4146 205.465 62.4706C209.409 55.6343 210.11 47.5271 206.429 40.2526C204.676 47.4833 198.322 52.7858 191.486 55.7219C188.287 57.0804 185 58.0445 181.626 58.921C181.976 56.5546 182.064 54.1882 181.888 51.8217C181.187 41.6987 175.315 32.9342 165.63 29.9105C169.574 36.2209 168.961 44.4596 166.288 51.4273C164.841 55.2399 162.869 58.7895 160.766 62.2953C159.758 57.8693 158.049 53.6623 155.463 49.9374C149.635 41.6111 140.082 37.0974 130.222 39.4638C136.839 42.8381 140.564 50.2441 141.835 57.6063C142.58 61.7256 142.667 65.8888 142.711 70.0519C142.361 70.271 142.185 70.3587 142.185 70.3587C137.715 67.072 132.106 65.4067 126.541 66.0202C126.044 66.0787 125.547 66.1517 125.051 66.2394C127.198 67.554 128.951 69.3069 130.397 71.3228C134.911 77.7209 136.488 86.8798 137.452 93.9352C138.022 99.7198 138.022 105.899 138.504 111.683C139.337 117.161 144.815 120.755 150.424 120.492C150.716 120.462 151.008 120.433 151.3 120.404C151.3 120.404 151.3 120.419 151.3 120.448C151.563 126.495 153.141 132.061 157.085 137.363C157.552 137.977 158.064 138.532 158.619 139.029C161.204 141.658 164.666 143.542 169.355 143.805C169.384 143.805 169.428 143.805 169.487 143.805H169.793C167.558 140.694 166.112 136.925 166.112 132.762C166.112 131.14 166.288 129.563 166.682 128.029C167.252 125.838 168.216 123.778 169.443 121.938C172.905 116.898 178.733 113.568 185.307 113.568C185.979 113.568 186.636 113.611 187.279 113.699C193.282 114.313 198.41 117.95 201.389 122.902C202.134 124.085 202.748 125.312 203.186 126.627C211.995 146.128 214.405 168.696 208.357 191.002C200.294 221.02 178.777 243.852 152.045 254.764C191.924 247.27 226.807 220.582 243.81 183.289C255.51 157.785 259.893 126.758 248.367 100.728Z" fill="url(#paint0_radial_1_440)"/>
<path opacity="0.62" d="M196.832 227.419C211.688 211.818 220.628 190.739 221.592 169.222C222.512 147.662 215.369 125.882 201.915 109.054C204.808 110.135 207.685 111.23 210.548 112.341C202.923 99.3692 183.028 95.951 171.502 105.548C160.459 114.751 159.758 133.551 169.574 143.805H169.793C167.558 140.694 166.112 136.925 166.112 132.762C166.112 131.14 166.288 129.563 166.682 128.029C167.252 125.838 168.216 123.778 169.443 121.938C172.905 116.898 178.733 113.568 185.307 113.568C185.979 113.568 186.636 113.611 187.279 113.699C193.282 114.313 198.41 117.95 201.389 122.902C202.134 124.085 202.748 125.312 203.186 126.627C211.994 146.128 214.405 168.696 208.357 191.002C200.294 221.02 178.777 243.852 152.045 254.764C152.425 254.676 152.805 254.603 153.185 254.545C169.618 248.716 184.868 239.996 196.832 227.419Z" fill="url(#paint1_radial_1_440)"/>
<path d="M214.843 213.352C233.161 190.432 242.758 160.721 241.312 131.403C240.567 116.679 237.017 101.736 228.647 89.5968C220.277 77.4579 206.648 68.3867 191.924 67.8608C177.199 67.3349 161.949 76.5377 157.655 90.6047C157.333 86.1348 157.012 81.6795 156.691 77.2388C146.874 90.035 144.771 105.592 151.125 120.404C151.184 120.404 151.242 120.404 151.3 120.404C151.3 120.404 151.3 120.419 151.3 120.448C151.563 126.495 153.141 132.061 157.085 137.363C157.552 137.977 158.064 138.532 158.619 139.029C161.204 141.658 164.666 143.542 169.355 143.805C169.384 143.805 169.428 143.805 169.487 143.805H169.574C159.758 133.551 160.459 114.751 171.503 105.548C183.028 95.951 202.923 99.3692 210.548 112.341C207.685 111.23 204.808 110.135 201.915 109.054C215.369 125.882 222.512 147.662 221.592 169.222C220.628 190.739 211.688 211.818 196.832 227.419C185.613 239.251 171.459 247.621 156.165 253.449C179.084 246.175 199.812 232.108 214.843 213.352Z" fill="url(#paint2_radial_1_440)"/>
<path d="M248.367 100.728C245.957 95.2937 242.889 90.0788 238.989 85.1269C230.312 74.1274 218.524 66.4146 205.465 62.4706C209.409 55.6343 210.11 47.5271 206.429 40.2526C204.676 47.4833 198.322 52.7858 191.486 55.7219C188.287 57.0804 185 58.0445 181.626 58.921C181.976 56.5546 182.064 54.1882 181.888 51.8217C181.187 41.6987 175.315 32.9342 165.63 29.9105C169.574 36.2209 168.961 44.4596 166.288 51.4273C164.841 55.2399 162.869 58.7895 160.766 62.2953C159.758 57.8693 158.049 53.6623 155.463 49.9374C149.635 41.6111 140.082 37.0974 130.222 39.4638C136.839 42.8381 140.564 50.2441 141.835 57.6063C142.58 61.7256 142.667 65.8888 142.711 70.0519C142.361 70.271 142.185 70.3587 142.185 70.3587C137.715 67.072 132.106 65.4067 126.541 66.0202C126.044 66.0787 125.547 66.1517 125.051 66.2394C127.198 67.554 128.951 69.3069 130.397 71.3228C134.911 77.7209 136.488 86.8798 137.452 93.9352C138.022 99.7198 138.022 105.899 138.504 111.683C139.337 117.161 144.815 120.755 150.424 120.492C150.658 120.462 150.891 120.433 151.125 120.404C144.771 105.592 146.874 90.035 156.691 77.2388C157.012 81.6795 157.333 86.1348 157.655 90.6047C161.949 76.5376 177.199 67.3349 191.924 67.8608C206.648 68.3867 220.277 77.4579 228.647 89.5967C237.017 101.736 240.567 116.679 241.312 131.403C242.758 160.721 233.161 190.432 214.843 213.352C199.812 232.108 179.084 246.175 156.165 253.449C155.171 253.8 154.178 254.165 153.185 254.545C192.581 246.744 226.938 220.188 243.81 183.289C255.51 157.785 259.893 126.758 248.367 100.728Z" fill="url(#paint3_radial_1_440)"/>
<path d="M211.688 165.147C198.19 174.7 181.757 180.309 164.097 180.309C117.951 180.309 80.527 142.184 80.527 95.1622C80.527 48.1407 117.951 10.0589 164.097 10.0589C171.809 10.0589 179.303 11.1106 186.402 13.1265C173.738 5.36989 158.838 0.899994 142.886 0.899994C97.8369 0.899994 61.1136 36.6153 59.4922 81.3143C59.3169 80.9637 59.1562 80.6278 59.0102 80.3064C57.3011 94.0667 57.9146 103.795 57.9146 103.795C24.7409 52.2162 62.6913 14.7041 62.6913 14.7041C49.7636 23.1618 39.0271 35.2568 32.2784 50.3756C18.3429 81.4019 24.9162 116.372 46.1702 140.168C26.9759 131.403 12.0762 113.874 7.43106 91.6126C6.81754 88.6034 6.39392 85.6089 6.1602 82.629C0.638565 97.0466 -0.939046 113.129 2.43529 129.344C9.31542 162.474 34.9516 186.883 65.9341 193.851C55.3729 195.428 44.4611 194.595 34.0751 191.134C26.5377 188.285 19.4822 184.472 13.0403 179.783C11.1998 178.323 9.44689 176.789 7.78163 175.182C11.6818 185.437 17.6417 195.034 25.5298 203.229C41.5688 220.933 64.488 232.327 90.2118 233.159C104.586 233.598 118.302 230.705 130.572 225.14C116.987 236.577 99.3707 243.414 80.1764 243.107C76.7875 243.078 73.457 242.815 70.1849 242.318C70.7692 242.698 71.3681 243.078 71.9816 243.458C89.905 252.485 110.239 257.349 131.536 256.867C134.049 256.809 136.576 256.692 139.118 256.517C143.471 256.137 147.78 255.553 152.045 254.764C178.777 243.852 200.294 221.02 208.357 191.002C210.724 182.325 211.775 173.648 211.688 165.147Z" fill="url(#paint4_radial_1_440)"/>
<path d="M203.186 126.627C204.676 130.79 204.764 135.479 202.836 139.817C199.242 147.968 191.004 152.92 182.809 155.506C171.02 159.187 159.232 157.828 148.014 153.052C139.03 149.195 130.879 143.586 124.13 136.574C117.338 129.563 111.992 121.237 108.486 112.122C105.243 103.751 103.578 94.7678 103.578 85.7404C103.578 45.336 136.357 12.6006 176.761 12.6006C180.092 12.6006 183.378 12.8197 186.621 13.2579C186.534 13.1995 186.461 13.1557 186.402 13.1265C179.303 11.1106 171.809 10.0589 164.097 10.0589C117.951 10.0589 80.527 48.1407 80.527 95.1622C80.527 142.184 117.951 180.309 164.097 180.309C181.757 180.309 198.19 174.7 211.688 165.147C211.556 151.649 208.576 138.59 203.186 126.627Z" fill="url(#paint5_radial_1_440)"/>
<path d="M57.9146 103.795C57.9146 103.795 57.3011 94.0667 59.0102 80.3064C50.7277 62.7336 49.8513 41.8302 58.4405 22.7236C59.6967 19.919 61.1136 17.2458 62.6913 14.7041C62.6913 14.7041 24.741 52.2162 57.9146 103.795Z" fill="url(#paint6_radial_1_440)"/>
<path d="M61.026 159.055C61.026 159.055 54.2335 152 46.6084 140.431C28.9041 132.455 14.0044 116.372 9.18396 97.3533C8.00075 92.7081 6.72989 85.6089 6.24784 82.6728C6.24784 82.6728 -3.26164 139.467 61.026 159.055Z" fill="url(#paint7_radial_1_440)"/>
<path d="M65.5397 193.281C64.7217 193.398 63.889 193.515 63.0418 193.631C48.0983 195.341 32.3222 192.361 19.789 184.078C15.8011 181.449 10.0604 177.066 7.73779 175.182C7.73779 175.182 15.8888 187.803 31.9716 196.305C45.6443 203.535 65.0576 207.786 89.9926 198.759C85.6104 197.882 76.1009 195.954 65.5397 193.281Z" fill="url(#paint8_radial_1_440)"/>
<path d="M130.353 225.403C129.711 225.958 129.053 226.498 128.381 227.024C116.111 236.84 100.642 243.063 85.1722 243.063C80.2641 243.063 72.9019 242.537 69.8344 242.231C69.8344 242.231 83.7699 248.366 102.438 246.613C118.346 245.123 137.672 237.892 154.85 216.375C150.512 218.084 141.09 221.765 130.353 225.403Z" fill="url(#paint9_radial_1_440)"/>
<defs>
<radialGradient id="paint0_radial_1_440" cx="0" cy="0" r="1" gradientUnits="userSpaceOnUse" gradientTransform="translate(155.743 154.043) rotate(-16.3429) scale(108.799 108.799)">
<stop stop-color="#F69C0A"/>
<stop offset="0.999" stop-color="#FDF609"/>
</radialGradient>
<radialGradient id="paint1_radial_1_440" cx="0" cy="0" r="1" gradientUnits="userSpaceOnUse" gradientTransform="translate(204.586 142.157) rotate(-38.7175) scale(112.307 112.307)">
<stop stop-color="#F6870A"/>
<stop offset="0.999" stop-color="#FDF609"/>
</radialGradient>
<radialGradient id="paint2_radial_1_440" cx="0" cy="0" r="1" gradientUnits="userSpaceOnUse" gradientTransform="translate(174.985 155.723) rotate(-30.4258) scale(92.2224 92.2224)">
<stop stop-color="#F69C0A"/>
<stop offset="0.999" stop-color="#FDF609"/>
</radialGradient>
<radialGradient id="paint3_radial_1_440" cx="0" cy="0" r="1" gradientUnits="userSpaceOnUse" gradientTransform="translate(176.945 125.559) rotate(-30.4259) scale(105.893 105.893)">
<stop stop-color="#FF0018"/>
<stop offset="0.999" stop-color="#FDF609"/>
</radialGradient>
<radialGradient id="paint4_radial_1_440" cx="0" cy="0" r="1" gradientUnits="userSpaceOnUse" gradientTransform="translate(257.23 143.475) rotate(155.019) scale(260.7 260.7)">
<stop stop-color="#5C1578"/>
<stop offset="0.998" stop-color="#B8171B"/>
</radialGradient>
<radialGradient id="paint5_radial_1_440" cx="0" cy="0" r="1" gradientUnits="userSpaceOnUse" gradientTransform="translate(-60.5333 168.114) rotate(-15.732) scale(270.054 270.054)">
<stop stop-color="#F6870A"/>
<stop offset="0.995" stop-color="#AD176C"/>
</radialGradient>
<radialGradient id="paint6_radial_1_440" cx="0" cy="0" r="1" gradientUnits="userSpaceOnUse" gradientTransform="translate(94.8552 -1.91781) rotate(81.9509) scale(268.493 268.493)">
<stop stop-color="#F6870A"/>
<stop offset="0.998" stop-color="#B8171B"/>
</radialGradient>
<radialGradient id="paint7_radial_1_440" cx="0" cy="0" r="1" gradientUnits="userSpaceOnUse" gradientTransform="translate(94.8578 -1.91782) rotate(81.9509) scale(268.495 268.495)">
<stop stop-color="#F6870A"/>
<stop offset="0.998" stop-color="#B8171B"/>
</radialGradient>
<radialGradient id="paint8_radial_1_440" cx="0" cy="0" r="1" gradientUnits="userSpaceOnUse" gradientTransform="translate(94.8578 -1.90954) rotate(81.9509) scale(268.483 268.482)">
<stop stop-color="#F6870A"/>
<stop offset="0.998" stop-color="#B8171B"/>
</radialGradient>
<radialGradient id="paint9_radial_1_440" cx="0" cy="0" r="1" gradientUnits="userSpaceOnUse" gradientTransform="translate(94.8579 -1.91645) rotate(81.9509) scale(268.494 268.494)">
<stop stop-color="#F6870A"/>
<stop offset="0.998" stop-color="#B8171B"/>
</radialGradient>
</defs>
</svg>
