<svg width="256" height="256" viewBox="0 0 256 256" fill="none" xmlns="http://www.w3.org/2000/svg">
<path d="M91.2846 165.12L83.1162 156.951V247.899C87.1752 249.414 91.3352 250.745 95.5794 251.856V169.667C94.1983 168.117 92.7667 166.602 91.2846 165.12Z" fill="url(#paint0_linear_40_10167)"/>
<path fill-rule="evenodd" clip-rule="evenodd" d="M256 127.999C256 143.797 253.137 158.922 247.916 172.884H172.884V247.915C158.922 253.136 143.798 255.999 128 255.999C120.152 255.999 112.472 255.292 105.011 253.945L117.811 215.713C122.004 203.267 128.91 192.185 138.324 182.753L172.345 148.732C183.259 137.818 189.289 123.284 189.289 107.839C189.289 101.271 188.194 94.8205 186.021 88.6731C185.348 86.7531 184.522 84.9005 183.529 83.1152H247.916C253.137 97.0773 256 112.202 256 127.999ZM160.421 183.107L148.059 195.469C130.577 211.637 124.985 237.557 123.436 243.435C124.952 243.503 126.473 243.536 128 243.536C139.251 243.536 150.131 241.919 160.421 238.922V183.107ZM243.537 127.999C243.537 116.732 241.92 105.869 238.922 95.5784H198.99C202.072 103.039 202.644 111.124 202.24 119.427C201.55 133.389 192.859 149.052 182.922 160.404H238.922C241.92 150.13 243.537 139.25 243.537 127.999Z" fill="url(#paint1_linear_40_10167)"/>
<path d="M125.525 136.101V123.638H112.219V110.35H99.7562V123.638H86.4678V136.101H99.7562V149.406H112.219V136.101H125.525Z" fill="url(#paint2_linear_40_10167)"/>
<path d="M172.885 8.10105C158.923 2.86316 143.798 0 128 0C112.203 0 97.0783 2.86316 83.1162 8.08421V84.16C88.1688 86.2484 92.3962 89.7853 95.5794 93.1368V17.0779C105.87 14.08 116.75 12.4632 128 12.4632C139.251 12.4632 150.131 14.08 160.421 17.0779V61.3895C162.566 62.4786 164.677 63.7474 166.754 65.1958C169.028 66.7789 171.066 68.4632 172.885 70.1474V8.10105Z" fill="url(#paint3_linear_40_10167)"/>
<path d="M22.7368 109.877C20.1432 118.113 18.5263 134.484 30.7537 160.42H17.0779C14.08 150.13 12.4632 139.25 12.4632 127.999C12.4632 116.749 14.08 105.869 17.0779 95.5784H50.9474C52.7663 92.4626 55.259 89.7342 58.3074 87.6289C61.5411 85.3889 64.6737 83.9405 67.6547 83.1152H8.08421C2.86316 97.0773 0 112.202 0 127.999C0 143.797 2.86316 158.922 8.08421 172.884H63.7811L39.6463 148.732C29.1874 138.29 23.2421 124.564 22.7368 109.877Z" fill="url(#paint4_linear_40_10167)"/>
<path d="M174.265 92.8011C173.423 90.4095 172.21 88.1695 170.661 86.1653C166.214 80.3211 155.233 68.5148 139.435 68.9864C121.869 69.5085 111.798 85.3906 109.743 101.812C109.743 101.812 128 69.8622 153.667 87.6306C160.269 92.1948 164.311 99.6727 164.345 107.706C164.345 107.751 164.345 107.796 164.345 107.841C164.345 116.633 160.926 124.902 154.711 131.1L120.69 165.121C115.099 170.713 110.198 176.793 105.987 183.277C101.793 176.793 96.8755 170.713 91.2839 165.121L57.2629 131.1C51.0481 124.902 47.6292 116.633 47.6292 107.841C47.6292 107.796 47.6292 107.751 47.6292 107.706C47.6629 99.6727 51.705 92.1948 58.3071 87.6306C83.9744 69.8622 102.231 101.812 102.231 101.812C100.193 85.3906 90.105 69.5085 72.5555 68.9864C56.7408 68.5148 45.7597 80.3211 41.3134 86.1653C39.7808 88.1695 38.5513 90.4095 37.726 92.8011C36.0418 97.5674 35.166 102.637 35.166 107.841C35.166 119.967 39.8818 131.353 48.4544 139.925L82.4755 173.946C93.2881 184.759 101.238 197.643 105.987 211.723C110.737 197.643 118.703 184.759 129.515 173.946L163.52 139.925C172.092 131.353 176.808 119.967 176.808 107.841C176.808 102.637 175.932 97.5674 174.265 92.8011Z" fill="url(#paint5_linear_40_10167)"/>
<defs>
<linearGradient id="paint0_linear_40_10167" x1="499.356" y1="169.885" x2="357.663" y2="407.676" gradientUnits="userSpaceOnUse">
<stop stop-color="#2AA9E1"/>
<stop offset="1" stop-color="#293890"/>
</linearGradient>
<linearGradient id="paint1_linear_40_10167" x1="334.853" y1="128.64" x2="251.865" y2="319.513" gradientUnits="userSpaceOnUse">
<stop stop-color="#BED62F"/>
<stop offset="1" stop-color="#50843F"/>
</linearGradient>
<linearGradient id="paint2_linear_40_10167" x1="224.289" y1="-16.3586" x2="55.4326" y2="267.019" gradientUnits="userSpaceOnUse">
<stop stop-color="#2AA9E1"/>
<stop offset="1" stop-color="#293890"/>
</linearGradient>
<linearGradient id="paint3_linear_40_10167" x1="216.378" y1="25.9166" x2="75.5334" y2="262.284" gradientUnits="userSpaceOnUse">
<stop stop-color="#2AA9E1"/>
<stop offset="1" stop-color="#293890"/>
</linearGradient>
<linearGradient id="paint4_linear_40_10167" x1="189.004" y1="12.4028" x2="58.2219" y2="231.884" gradientUnits="userSpaceOnUse">
<stop stop-color="#2AA9E1"/>
<stop offset="1" stop-color="#293890"/>
</linearGradient>
<linearGradient id="paint5_linear_40_10167" x1="238.717" y1="71.8928" x2="135.526" y2="309.233" gradientUnits="userSpaceOnUse">
<stop stop-color="#BED62F"/>
<stop offset="1" stop-color="#50843F"/>
</linearGradient>
</defs>
</svg>
