<svg width="256" height="256" viewBox="0 0 256 256" fill="none" xmlns="http://www.w3.org/2000/svg">
<path d="M98.3849 157.615C82.7195 141.949 72.6648 120.691 71.4466 97.0637C71.2579 93.5978 70.9662 86.8031 70.9662 86.8031C70.9662 86.8031 60.5512 88.2959 47.2193 86.3227L79.2364 54.3055C78.8246 50.9769 78.3442 47.6997 77.7608 44.5254L37.8681 84.4353C27.0928 81.587 15.6311 76.1479 6.74316 65.9559C6.74316 65.9559 10.4493 76.4396 21.911 86.6487H15.511C6.94906 86.6487 0 93.5978 0 102.16V153.84C0 162.402 6.94906 169.351 15.511 169.351H86.6488V240.489C86.6488 249.051 93.5978 256 102.16 256H153.84C162.402 256 169.351 249.051 169.351 240.489V228.924C178.685 244.933 190.044 249.257 190.044 249.257C187.402 246.546 185.119 243.543 183.163 240.3L234.123 189.34C235.942 187.539 235.564 184.502 233.368 183.181C233.345 183.169 233.322 183.152 233.3 183.129C231.738 182.203 229.765 182.46 228.478 183.73L179.354 232.871C173.4 219.11 171.462 202.243 170.261 184.776C166.983 184.708 160.446 184.639 158.936 184.553C135.309 183.335 114.05 173.28 98.3849 157.615Z" fill="url(#paint0_linear_40_10158)"/>
<path d="M98.9006 134.59L128.739 104.751C130.094 103.396 132.205 103.207 133.766 104.288C133.789 104.3 133.812 104.311 133.835 104.323C135.859 105.712 136.134 108.612 134.384 110.362L103.602 141.144C105.266 143.22 107.034 145.21 108.921 147.081C116.625 154.785 126.045 160.79 136.563 164.462L155.66 145.365C157.873 143.151 161.682 144.284 162.3 147.355C162.312 147.378 162.317 147.407 162.317 147.441C162.592 148.745 162.197 150.083 161.253 151.027L145.331 166.95C148.471 167.619 151.662 168.099 154.939 168.357C157.479 168.563 164.874 168.751 169.301 168.906C169.026 164.222 168.734 159.555 168.357 154.939C167.379 142.654 163.381 131.227 157.101 121.412L127.263 151.25C125.908 152.606 123.814 152.794 122.236 151.713C122.213 151.702 122.19 151.69 122.167 151.679C120.142 150.289 119.868 147.39 121.618 145.639L152.4 114.858C150.735 112.781 148.968 110.791 147.081 108.921C139.377 101.217 129.957 95.2115 119.439 91.5397L100.342 110.637C98.1285 112.85 94.3194 111.718 93.7017 108.646C93.6903 108.612 93.6845 108.583 93.6845 108.561C93.41 107.257 93.8047 105.918 94.7484 104.975L110.671 89.0517C107.531 88.3826 104.34 87.9021 101.063 87.6448C98.5232 87.4389 91.128 87.2501 86.7012 87.0957C86.9757 91.7799 87.2674 96.4469 87.6449 101.062C88.6229 113.348 92.6207 124.775 98.9006 134.59Z" fill="url(#paint1_linear_40_10158)"/>
<path d="M240.489 86.6488H169.351V15.511C169.351 6.94906 162.402 0 153.84 0H102.16C93.5979 0 86.6488 6.94906 86.6488 15.511V27.0756C77.3148 11.067 65.9561 6.74316 65.9561 6.74316C68.5984 9.45415 70.8804 12.4568 72.8365 15.6997L21.8767 66.6595C20.0579 68.4611 20.4354 71.4981 22.6317 72.8193C22.6545 72.8307 22.6774 72.8479 22.7003 72.8707C24.2617 73.7973 26.2349 73.5399 27.5217 72.2702L76.6456 23.1292C82.5995 36.8901 84.5383 53.7565 85.7394 71.2236C89.0166 71.2922 95.5539 71.3608 97.0638 71.4466C120.691 72.6648 141.95 82.7195 157.615 98.3849C173.28 114.05 183.335 135.309 184.553 158.936C184.742 162.385 185.034 169.231 185.034 169.197C185.034 169.197 195.449 167.704 208.781 169.677L178.136 200.322C177.261 201.18 176.849 202.415 177.004 203.633L177.021 203.719C177.45 206.962 181.396 208.3 183.713 206.001L218.132 171.565C228.907 174.413 240.369 179.852 249.257 190.044C249.257 190.044 245.551 179.56 234.089 169.351H240.489C249.051 169.351 256 162.402 256 153.84V102.16C256 93.5978 249.051 86.6488 240.489 86.6488Z" fill="url(#paint2_linear_40_10158)"/>
<g style="mix-blend-mode:multiply">
<path d="M189.494 158.678C188.241 134.606 178.169 111.94 161.114 94.8844C144.059 77.8291 121.393 67.7573 97.3201 66.5048C96.7196 66.4704 92.4472 66.419 88.3807 66.3675C86.5105 40.0297 76.6445 23.1289 76.6445 23.1289C82.0665 35.6715 84.1598 50.805 85.3952 66.6077C85.5096 68.1405 85.624 69.679 85.7384 71.2233C89.0156 71.2919 95.5528 71.3605 97.0628 71.4463C120.69 72.6645 141.949 82.7192 157.614 98.3846C173.279 114.05 183.334 135.309 184.552 158.936C184.741 162.385 185.033 169.231 185.033 169.196C185.033 169.196 186.817 168.939 189.854 168.785C189.734 165.833 189.545 159.828 189.494 158.678Z" fill="#D1D2D3"/>
</g>
<g style="mix-blend-mode:multiply">
<path d="M179.354 232.87C173.932 220.328 171.839 205.194 170.603 189.392C170.489 187.859 170.375 186.32 170.26 184.776C166.983 184.707 160.446 184.639 158.936 184.553C135.309 183.335 114.05 173.28 98.3847 157.615C82.7193 141.949 72.6646 120.69 71.4464 97.0634C71.2577 93.6147 70.966 86.7685 70.966 86.8029C70.966 86.8029 69.1815 87.0602 66.1445 87.2147C66.2646 90.1659 66.4534 96.1712 66.5048 97.3208C67.7574 121.394 77.8292 144.06 94.8845 161.115C111.94 178.17 134.606 188.242 158.679 189.494C159.279 189.529 163.551 189.58 167.618 189.632C169.488 215.97 179.354 232.87 179.354 232.87Z" fill="#D1D2D3"/>
</g>
<defs>
<linearGradient id="paint0_linear_40_10158" x1="103.755" y1="-63.1728" x2="329.667" y2="160.229" gradientUnits="userSpaceOnUse">
<stop stop-color="#FAEA15"/>
<stop offset="1" stop-color="#EF542F"/>
</linearGradient>
<linearGradient id="paint1_linear_40_10158" x1="75.0226" y1="-5.37071" x2="260.349" y2="177.897" gradientUnits="userSpaceOnUse">
<stop stop-color="#FAEA15"/>
<stop offset="1" stop-color="#EF542F"/>
</linearGradient>
<linearGradient id="paint2_linear_40_10158" x1="123.212" y1="-105.152" x2="345.742" y2="114.892" gradientUnits="userSpaceOnUse">
<stop stop-color="#BED62F"/>
<stop offset="1" stop-color="#50843F"/>
</linearGradient>
</defs>
</svg>
