<svg width="257" height="105" viewBox="0 0 257 105" fill="none" xmlns="http://www.w3.org/2000/svg">
<path d="M0.699219 103.695C22.0311 101.943 43.363 101.027 64.7036 100.419C75.3696 100.023 86.0355 99.9521 96.7014 99.7143L128.699 99.4941C139.365 99.5734 150.031 99.591 160.697 99.7231C171.363 99.9521 182.029 100.04 192.695 100.428C214.027 101.044 235.367 101.951 256.699 103.695V104.189L128.699 104.435L0.699219 104.189V103.695Z" fill="#E30000"/>
<path fill-rule="evenodd" clip-rule="evenodd" d="M248.007 24.7454C238.644 27.9426 228.471 26.7888 219.109 29.8802C211.05 32.5401 203.484 37.6308 194.703 37.2874C192.589 37.2081 190.44 36.7413 188.362 37.1464C181.377 38.5556 183.597 48.2615 184.795 53.414C186.38 60.2838 187.957 67.0921 189.524 73.9443C190.035 76.1374 190.546 78.3217 191.039 80.5148C191.691 83.386 192.334 86.4775 191.286 89.1726C189.991 92.5194 186.583 93.8053 185.068 94.3866C178.066 97.0994 166.81 99.3805 153.88 101.309C150.393 101.794 146.781 102.287 143.091 102.727C137.569 102.683 132.038 102.666 126.515 102.622L106.989 102.763C111.155 102.727 115.25 100.966 119.064 99.4422C121.099 98.6319 123.019 97.7775 124.701 96.8616L118.817 101.292L118.042 101.864C118.28 101.864 118.509 101.847 118.738 101.811C121.733 101.389 124.754 101.292 127.74 100.79C130.664 100.305 133.491 99.3365 136.336 98.5174C138.793 97.7423 141.136 96.888 143.117 95.9456L138.106 98.7904L137.463 99.2836L136.441 100.05C137.067 99.9706 137.674 99.9178 138.282 99.8385C141.858 99.4334 145.399 98.993 148.816 98.5174C148.834 98.5262 148.851 98.5086 148.851 98.5086C148.86 98.5174 148.86 98.5174 148.869 98.5174C150.278 98.1034 151.775 97.6631 153.308 97.1963C158.901 95.4171 164.89 93.1976 169.426 90.7756L161.428 96.5885C161.428 96.5885 161.428 96.5885 161.437 96.5973C165.647 95.8663 169.575 95.1441 173.081 94.3338C174.508 93.6997 175.961 93.0127 177.414 92.2816C177.458 92.2728 177.476 92.2552 177.485 92.2288C177.529 92.2112 177.555 92.2288 177.581 92.22C180.356 90.8284 183.033 89.3399 185.191 87.7986L180.735 91.4625L179.149 92.7661C180.946 92.2464 182.566 91.6915 184.002 91.1455C185.191 90.6963 187.384 89.8508 188.221 88.054L188.318 87.825C188.908 86.3189 188.635 84.3108 188.115 82.0385C188.062 81.7919 186.776 75.2655 186.776 75.2655L186.283 73.1957C186.283 73.2045 186.274 73.2045 186.274 73.2133C186.23 73.3542 185.684 73.9003 185.57 74.006L184.777 72.0419C184.777 72.0419 185.059 73.275 184.548 75.0541L183.5 72.7905C183.5 72.7905 183.738 73.4687 183.623 75.1598C183.615 75.1245 182.32 71.9274 182.311 71.9274C182.329 71.9803 183.042 74.7458 183.016 76.0317C182.866 75.697 182.117 73.0548 182.02 72.8082C182.02 72.8082 182.267 74.5433 182.082 76.4985C182.047 76.525 181.994 76.5426 181.95 76.569C181.95 76.569 181.545 72.6849 181.571 72.5968C181.536 72.6408 181.483 72.7729 181.404 72.9315C181.404 72.9315 181.51 70.6151 181.192 69.5053C180.611 67.4796 179.554 65.4979 178.938 63.4281C178.242 61.0941 178.224 58.6192 177.793 56.2324C177.22 53.044 176.296 49.8029 174.217 47.2487C173.186 45.9892 171.742 45.725 170.183 45.7074C168.58 45.6809 167.144 46.227 165.682 46.7555C161.076 48.4113 156.373 49.8645 151.511 50.4899C146.861 51.0976 141.849 50.2961 137.507 52.4187C137.014 52.6565 135.314 53.5108 134.953 52.6389C134.847 52.3923 135.173 51.6525 135.235 51.3706C135.314 51.0095 135.138 50.8422 134.777 50.8334C133.843 50.7805 132.989 51.0535 132.196 51.5115C131.113 52.1457 131.113 52.1457 130.241 51.2297C129.034 49.9702 126.929 50.3489 126.251 51.9695C126.022 52.5156 125.529 52.8327 125.212 53.3083C125.088 53.4844 124.877 53.3875 124.719 53.3523C123.67 53.1497 122.64 53.1585 121.592 53.3523C120.967 53.4756 120.808 53.7046 121.125 54.2683C121.469 54.8672 121.759 55.4925 122.42 55.8713C123.133 56.2764 123.838 56.1003 124.542 55.9417C124.948 55.8448 125.062 55.9505 125.027 56.3381C124.974 56.9898 124.895 57.5711 125.221 58.17C125.59 58.8394 125.723 59.4824 125.353 60.2046C125.124 60.6714 124.859 61.1118 124.595 61.5521C124.384 61.922 124.208 62.2832 124.375 62.7147C124.912 64.0535 125.238 64.2913 126.639 63.983C127.326 63.8333 127.977 63.8157 128.656 63.8861C129.307 63.9566 129.871 63.7364 130.32 63.252C130.443 63.1287 130.523 63.023 130.69 63.2344C131.87 64.7845 133.394 65.9823 134.918 67.189C135.719 67.8319 136.177 68.7038 136.6 69.6198C137.322 71.1964 138.564 72.174 139.841 73.275C140.378 73.733 141.145 73.5832 141.805 73.3454C142.166 73.2045 142.281 73.1869 142.342 73.6449C142.563 75.0541 142.844 76.4457 143.426 77.7668C144.086 79.2465 144.183 80.7173 143.716 82.1442C143.699 81.8095 143.708 81.5012 143.716 81.2282C143.743 80.7702 143.787 80.4707 143.787 80.4707C143.787 80.4707 143.672 80.7438 143.514 81.1753C143.435 81.3867 143.355 81.6333 143.285 81.9152L141.541 78.216L142.756 82.7695L141.523 79.7749C141.462 79.4843 141.418 79.2993 141.418 79.2993C141.418 79.2993 141.418 79.3874 141.418 79.5195L141.171 78.8942L141.418 80.2241V80.277C141.418 80.6821 141.391 81.1753 141.338 81.6862C141.33 81.6597 141.312 81.6069 141.303 81.5805C140.951 80.6557 140.537 79.7925 140.176 79.1672C139.868 78.6388 139.63 78.2777 139.577 78.1896C139.612 78.2865 139.788 78.6916 139.991 79.2817C140.229 79.9511 140.484 80.8671 140.669 81.7919C140.792 82.47 140.889 83.1482 140.933 83.7383C140.898 83.7383 140.863 83.7471 140.828 83.7471C140.713 83.2011 140.563 82.5845 140.405 81.9592C139.964 80.3122 139.357 78.7621 139.286 78.5683C139.321 78.7709 139.63 80.4267 139.735 82.0825C139.788 82.7078 139.815 83.3156 139.823 83.8528C139.806 83.8528 139.788 83.8528 139.771 83.8616L139.154 79.6781C139.216 79.3962 139.269 79.2201 139.295 79.132C139.26 79.176 139.198 79.2993 139.119 79.4667L138.89 77.8725L138.828 80.092C138.705 80.3827 138.564 80.7173 138.405 81.0785C138.397 80.6028 138.388 80.277 138.388 80.277C138.388 80.277 138.238 81.0432 138.053 82.0209C138.027 82.1177 137.983 82.2058 137.956 82.2851C137.895 82.4877 137.833 82.6638 137.762 82.8488C137.56 82.4612 137.349 82.0385 137.137 81.6245C136.758 80.8847 136.389 80.1272 136.098 79.4843C136.151 78.5859 136.212 77.7316 136.3 77.0358C136.424 76.1638 136.512 75.5561 136.538 75.424C136.494 75.5649 136.318 76.155 136.098 76.9829C135.983 77.4674 135.834 78.0487 135.728 78.6828C135.49 78.1984 135.34 77.8549 135.288 77.758C135.314 77.8637 135.446 78.3569 135.649 79.0263C135.587 79.3698 135.508 79.7221 135.455 80.0832C135.138 79.4667 134.812 78.903 134.521 78.4626C134.116 77.8285 133.799 77.3969 133.737 77.3C133.79 77.4057 134.046 77.8901 134.345 78.5771C134.645 79.2641 134.997 80.1625 135.305 81.0961C135.279 81.281 135.261 81.466 135.235 81.6421C135.059 82.1089 134.847 82.6902 134.618 83.2627C134.565 83.0954 134.504 82.9368 134.451 82.7695C134.451 82.611 134.451 82.4524 134.451 82.3027C134.46 82.1442 134.477 81.9856 134.477 81.8359L134.301 80.0127C134.187 80.4179 134.09 80.8583 133.984 81.3339C133.852 80.9199 133.72 80.506 133.614 80.1184C133.535 78.7533 133.508 77.6787 133.508 77.6787C133.508 77.6787 133.42 78.2424 133.341 79.0879C133.094 78.1367 132.936 77.4674 132.936 77.4674C132.936 77.4674 133.033 78.7092 133.218 80.2593C133.183 80.7966 133.13 81.3603 133.094 81.9592C133.068 82.4436 133.042 82.9456 133.015 83.4036C132.962 83.5886 132.91 83.7736 132.857 83.9497L132.689 83.3772L132.663 83.0954C132.628 82.2851 132.628 81.466 132.663 80.8583C132.698 80.2417 132.751 79.8366 132.751 79.8366C132.751 79.8366 132.61 80.2153 132.46 80.8054C132.39 81.0608 132.319 81.3603 132.249 81.6774L131.527 78.9118L131.879 83.3156C131.817 83.2099 131.773 83.113 131.721 83.0161C131.104 81.7831 130.223 80.1184 130.223 80.1184C130.118 80.5764 129.342 83.4477 129.307 83.5622L128.814 79.176L128.629 82.0297C128.497 81.7302 128.365 81.4484 128.25 81.2106C128.03 80.735 127.836 80.4179 127.784 80.3298C127.81 80.4179 127.924 80.779 128.057 81.3074C128.215 81.9064 128.374 82.699 128.488 83.5005L128.515 83.7824L128.462 84.3725C128.374 84.2051 128.286 84.0466 128.198 83.8704C128.083 83.4213 127.969 82.9368 127.845 82.47C127.704 81.8887 127.546 81.3339 127.405 80.823C127.282 79.2641 127.141 78.031 127.141 78.031C127.141 78.031 127.114 78.718 127.061 79.7045C126.841 78.9822 126.674 78.489 126.639 78.3745C126.665 78.5507 126.815 79.5283 126.973 80.7614C126.947 81.1665 126.912 81.5893 126.859 82.0209C126.656 81.5805 126.48 81.1577 126.286 80.7878L126.462 82.611C126.498 82.7607 126.542 82.9104 126.577 83.0602C126.603 83.2099 126.647 83.3684 126.674 83.5269C126.647 83.6943 126.621 83.8704 126.603 84.0378C126.269 83.5181 125.943 82.9897 125.696 82.5669C125.626 82.3996 125.573 82.2322 125.511 82.0385C125.626 81.0608 125.811 80.1184 125.978 79.3874C126.137 78.6564 126.295 78.1367 126.33 78.0134C126.277 78.1279 126.057 78.6035 125.784 79.2993C125.573 79.7925 125.37 80.4179 125.168 81.0696C125.044 80.735 124.903 80.4003 124.78 80.0744C124.859 79.2729 124.895 78.7356 124.895 78.7356C124.895 78.7356 124.798 79.1408 124.648 79.7573C124.401 79.1584 124.155 78.6123 123.943 78.1631C123.574 77.3793 123.292 76.842 123.212 76.7099C123.265 76.842 123.477 77.4145 123.75 78.2512C123.97 78.9118 124.208 79.7397 124.428 80.6116C124.261 81.3074 124.049 82.1177 123.811 82.9104C123.697 83.3684 123.565 83.8088 123.433 84.2315C123.336 84.073 123.239 83.9057 123.133 83.7207C123.098 83.6414 123.045 83.571 122.992 83.4741C122.622 82.5581 122.332 81.8271 122.332 81.8271C122.332 81.8271 122.385 82.1442 122.464 82.6198C122.244 82.3027 122.041 81.9856 121.856 81.739L121.407 79.6957C121.46 79.2729 121.539 78.859 121.636 78.445C121.927 77.3176 122.323 76.2167 122.631 75.0893C123.063 73.5304 123.08 71.9626 122.693 70.3949C122.561 69.8841 122.341 69.3908 122.147 68.836C122.693 68.7831 123.23 68.7215 123.767 68.6862C123.864 68.6774 124.058 68.6862 124.12 68.5894C124.225 68.4308 124.014 68.193 123.891 68.1314C123.494 67.9288 122.983 67.9112 122.561 67.8143C122.261 67.7526 122.103 67.6381 122.182 67.2594C122.332 66.5724 121.847 65.8502 121.169 65.6212C120.438 65.3834 119.848 65.6476 119.478 66.3522C119.46 66.3875 119.434 66.4227 119.408 66.4667C119.143 66.3522 118.897 66.2377 118.641 66.1409C116.915 65.4539 115.092 65.2513 113.251 65.2073C109.156 65.1016 105.183 65.7886 101.387 67.3651C97.9348 68.8007 95.2485 71.0467 93.7336 74.5521C93.6984 74.6401 93.5486 74.7282 93.4253 74.7458C92.9321 74.8339 91.3467 74.737 89.0568 76.111C88.7926 76.2695 88.7397 76.5161 88.9951 76.7011C89.2329 76.8861 89.4972 77.027 89.7614 77.2031C89.55 77.2912 89.3474 77.3352 89.1977 77.4497C89.0744 77.5378 88.9335 77.6964 88.9247 77.8285C88.9247 77.9254 90.0256 78.3569 90.3867 78.5243C91.0825 78.8413 91.7607 79.1936 92.4741 79.5459C92.4741 79.5636 92.1482 81.8095 92.0073 82.8488C91.9897 83.0161 91.2411 83.6414 91.0561 83.8176C90.8095 84.0554 90.8095 84.3284 91.0825 84.5486C91.197 84.6367 91.3203 84.7336 91.4436 84.8217C91.5317 85.1299 91.6198 85.4998 91.7079 85.8874C91.6022 86.3101 91.4348 86.865 91.2587 87.4287C91.1794 87.4287 91.1001 87.4287 91.0209 87.4287L89.4267 84.3196L90.2722 87.4639C90.2106 87.4639 90.1577 87.4727 90.0961 87.4727L89.3827 85.3677L89.506 87.0852C89.4267 86.6536 89.3474 86.3542 89.3474 86.3542C89.3474 86.3542 89.321 86.865 89.2153 87.508C88.7838 87.5256 88.3522 87.5432 87.9294 87.5608L87.4186 85.2444L87.3481 87.5872C87.2601 87.596 87.1632 87.596 87.0751 87.596C87.0223 87.4903 86.9606 87.3758 86.9078 87.2701C86.5202 86.4599 86.1855 85.6408 85.9654 84.9978C85.7452 84.3461 85.6219 83.9057 85.6219 83.9057C85.6219 83.9057 85.6659 84.3725 85.7716 85.0507C85.8508 85.6319 85.9918 86.3718 86.1767 87.1204C86.1327 87.2702 86.0887 87.4551 86.0358 87.6401C85.9125 87.6401 85.7716 87.6489 85.6483 87.6489L85.2872 86.134L85.2167 87.6665C85.1374 87.6753 85.0582 87.6753 84.9789 87.6753L84.8732 86.8738L84.7147 87.6841C84.5385 87.6929 84.3624 87.7017 84.2038 87.7017C84.1686 87.4463 84.1334 87.1821 84.0981 86.9178C83.8251 84.9009 83.6754 82.8311 83.6754 82.8311C83.6754 82.8311 83.4904 84.8745 83.4288 86.9443C83.42 87.1292 83.42 87.323 83.4112 87.508C83.3671 87.3582 83.2879 87.1997 83.1998 87.0235C82.8915 86.4246 82.4952 85.9138 82.2398 85.2885C81.9579 84.5927 81.7377 83.8704 81.4647 83.1658C81.403 83.0161 81.2269 82.6902 81.3062 82.5229C81.3502 82.4172 81.4471 82.3379 81.5792 82.2587C82.1429 81.9592 82.6185 81.5541 82.8651 80.9287C82.9003 80.8318 82.9532 80.7085 83.0412 80.6557C83.5257 80.321 83.7106 79.863 83.6578 79.2905C84.4857 78.7885 84.4593 77.027 83.8956 76.7539C83.2174 77.1151 82.5568 77.5026 81.8787 77.8549C80.1788 78.7268 78.4085 78.216 76.6205 78.0575C76.1802 78.0134 75.8631 77.8373 75.6693 77.4057C75.2642 76.4897 74.6829 75.6178 73.8814 74.9924C73.4674 74.6577 72.9654 74.4376 72.4898 74.1557C72.5603 73.9972 72.6483 73.8034 72.7893 73.4863C72.3929 73.5304 72.0935 73.592 71.794 73.5744C71.5034 73.5568 71.3624 73.7682 71.1511 73.8475C70.7459 74.0148 70.7019 74.3495 70.7107 74.6137C70.7107 74.9132 70.6578 75.1245 70.4288 75.3007C70.3848 75.3271 70.376 75.3888 70.332 75.468C70.605 75.4769 70.8252 75.4857 71.0542 75.4857C71.0894 76.3664 71.1951 76.5161 71.794 76.569C71.7412 76.8068 71.6883 77.0094 71.6619 77.2207C71.4858 78.3481 71.5034 79.5371 71.8204 80.6293C72.0142 81.2898 73.5379 82.9104 75.1585 84.1787C75.1673 84.8217 75.1849 85.5791 75.2202 86.3718C75.1849 86.5391 75.044 87.279 75.0176 87.3758C74.7974 87.0764 74.5772 86.8034 74.3834 86.592C74.0311 86.178 73.7757 85.9138 73.7053 85.8521C73.7493 85.9314 74.3042 86.9002 74.3042 86.9002C74.2777 87.0235 74.1809 87.4375 74.0399 87.9659C73.4763 87.9748 72.9302 87.9836 72.4017 87.9924C72.4194 87.6225 72.4634 87.3758 72.4634 87.3758C72.4634 87.3758 72.3577 87.6136 72.2168 87.9924C71.9966 87.9924 71.7852 87.9924 71.5738 88.0012L70.2175 85.1211L70.9837 88.0012H70.7371L69.8299 85.7905C69.8299 85.7905 70.0677 87.7105 70.0589 88.0012H69.7947C69.4776 87.2702 69.1429 86.5832 68.8435 86.0723C68.5352 85.5351 68.2974 85.174 68.2446 85.0947C68.271 85.1828 68.456 85.5879 68.6673 86.1868C68.8435 86.68 69.0373 87.323 69.1958 88.0012H68.8347C68.4472 86.7065 68.0332 85.6231 67.9715 85.4734C67.998 85.6319 68.1917 86.7241 68.3238 88.0012C68.227 88.0012 68.1389 88.0012 68.0332 88.0012L67.5488 84.7776C67.5488 84.7776 67.2229 87.6225 67.082 87.9748C67.0732 87.4991 67.0644 87.1821 67.0644 87.1821C67.0644 87.1821 67.0027 87.4992 66.9146 87.9924C66.7561 87.9836 65.7961 87.9219 65.4966 87.8955C65.2324 87.367 64.9858 86.8562 64.7568 86.3894C64.8096 85.4822 64.8977 84.6279 64.9858 83.9321C65.0827 83.0689 65.1884 82.4524 65.2148 82.3203C65.1707 82.47 64.9946 83.0513 64.7832 83.8792C64.6423 84.3725 64.5102 84.945 64.3869 85.5879C64.1579 85.1035 64.0081 84.76 63.9641 84.6631C63.9905 84.7776 64.1226 85.2532 64.3164 85.9226C64.2518 86.269 64.1902 86.6213 64.1315 86.9795C63.8056 86.3718 63.4797 85.8081 63.1979 85.3589C62.8456 84.8128 62.5637 84.4165 62.4492 84.258C62.5285 84.4341 62.7487 84.8833 63.0217 85.4822C63.2859 86.0988 63.603 86.8826 63.876 87.7105C63.2595 87.6225 62.7751 87.5168 62.4052 87.4111C61.9384 85.7729 61.6125 84.3725 61.6125 84.3725C61.6125 84.3725 61.7006 85.6496 61.9119 87.2349C61.8767 87.2261 61.8503 87.2173 61.8327 87.2085L61.1457 84.346L61.084 87.7546C60.9343 91.8236 60.7141 97.5397 60.6525 98.5086C60.6349 98.9401 60.538 100.208 61.1105 101.38C61.5508 102.34 62.3171 103.141 63.2507 103.652C61.7534 103.696 60.2649 103.749 58.7677 103.802C58.5827 103.52 58.4242 103.221 58.2832 102.912C57.3056 100.878 57.4113 98.8873 57.473 98.2003C57.8693 91.6387 59.3313 40.6254 59.3402 38.036C59.3578 33.5441 63.3916 30.4351 67.6545 30.3822C75.5548 30.303 83.4816 30.2854 91.382 29.9771C103.492 29.4398 115.506 28.2949 127.475 26.6126C127.493 26.6126 127.493 26.6126 127.493 26.6126C127.493 26.6214 127.493 26.6214 127.493 26.6214C132.496 25.9168 137.489 25.1241 142.475 24.2434C149.521 23.0103 233.28 2.67372 234.918 2.3038C238.001 1.59039 241.145 0.815324 244.272 0.551097C248.526 0.207603 252.12 1.89865 254.498 5.97654C255.836 8.27531 256.541 10.53 256.673 12.6791C257.025 18.0693 253.793 22.658 248.007 24.7454ZM146.517 80.5148C146.535 80.4531 146.535 80.3915 146.544 80.3386C146.5 79.3962 146.482 78.489 146.491 77.7756C146.5 77.2208 146.508 76.7892 146.517 76.5338C146.482 76.9565 146.42 77.3617 146.323 77.7756C146.13 78.63 146.262 79.4491 146.456 80.2593C146.473 80.3474 146.491 80.4267 146.517 80.5148ZM151.035 79.2817C151.035 79.9599 151.071 80.6469 151.168 81.3251C151.229 81.1929 151.264 81.0961 151.282 81.052C151.273 81.1313 151.247 81.3427 151.22 81.6421C151.273 81.9944 151.344 82.3467 151.432 82.6902C151.485 82.9104 151.573 83.1306 151.643 83.3508C151.705 83.342 151.775 83.3332 151.846 83.3244C151.758 82.699 151.652 81.9944 151.502 81.281C151.361 80.5852 151.194 79.8806 151.035 79.2817ZM121.451 82.0473L121.398 80.7438C121.354 81.1313 121.345 81.5364 121.363 81.924C121.389 81.968 121.425 82.0032 121.451 82.0473ZM121.345 84.7424C121.416 85.3325 121.504 85.9138 121.592 86.4246H121.654L121.539 83.9761C121.504 84.1082 121.425 84.2227 121.301 84.3284C121.31 84.4693 121.328 84.6015 121.345 84.7424ZM118.844 81.2898L118.65 84.1611C118.712 84.029 118.8 83.8969 118.862 83.7559C119.073 83.2715 119.179 82.3732 119.196 82.4524C119.187 81.8359 118.95 81.237 118.483 80.7173C118.034 81.3427 117.954 82.0649 117.928 82.8047C117.901 83.3244 117.849 83.844 117.769 84.3549C117.734 84.5662 117.681 84.6984 117.584 84.7776C117.673 84.9185 117.761 85.0771 117.84 85.262L118.844 81.2898ZM121.504 83.1923L121.46 82.2587C121.425 82.1706 121.389 82.0913 121.363 82.0297C121.38 82.4172 121.425 82.8047 121.504 83.1923ZM152.453 81.9504C152.7 80.9639 152.947 80.0392 153.061 79.5547C153.035 79.4755 153.026 79.405 153.008 79.3434C152.63 77.8285 152.894 78.401 152.674 77.2472C152.498 76.2431 152.383 75.5297 152.357 75.3624C152.401 75.5297 152.586 76.2167 152.876 77.1943C153.211 78.2953 153.114 77.6787 153.642 79.1056C153.819 79.5988 154.012 80.092 154.18 80.5588C154.206 80.5412 154.206 80.5324 154.233 80.5148C154.206 80.4355 154.189 80.3738 154.18 80.3474C154.197 80.365 154.233 80.4091 154.259 80.4795C154.268 80.4619 154.285 80.4619 154.285 80.4619C154.285 80.4795 154.285 80.4883 154.277 80.506C154.329 80.6117 154.418 80.7878 154.523 80.9992C154.594 81.1401 154.664 81.3163 154.743 81.4836C154.752 81.2986 154.752 81.1049 154.761 80.9199C154.805 78.8413 155.016 76.8068 155.016 76.8068C155.016 76.8068 155.149 78.8678 155.43 80.8935C155.519 81.5541 155.615 82.2234 155.712 82.8047C155.748 82.7959 155.783 82.7871 155.827 82.7871L156.197 80.8406L156.452 82.699C156.479 82.699 156.487 82.6902 156.505 82.6902L156.611 80.1096L157.174 82.4084C157.28 81.924 157.395 81.4572 157.518 81.0961C157.324 80.3474 157.183 79.6076 157.095 79.0263C156.989 78.3393 156.945 77.8813 156.945 77.8813C156.945 77.8813 157.077 78.3217 157.298 78.9646C157.509 79.6076 157.844 80.4355 158.24 81.237C158.372 81.5364 158.513 81.8095 158.672 82.0825L158.751 79.2201L159.315 81.7478C159.403 81.8887 159.517 82.0561 159.649 82.2322C159.913 82.197 160.16 82.1618 160.424 82.1089C160.618 81.2106 160.68 80.3298 160.68 80.3298C160.68 80.3298 160.75 80.6293 160.838 81.052L160.715 79.3346L161.587 81.9328C161.631 81.9328 161.675 81.924 161.719 81.9152L160.759 78.2953L162.494 81.6774C162.705 81.0256 162.899 80.3474 163.031 79.863C162.952 79.4755 162.855 79.1056 162.767 78.7973C162.626 78.2865 162.503 77.9165 162.476 77.8285C162.529 77.9165 162.705 78.2336 162.952 78.7004C163.031 78.8501 163.111 79.0263 163.207 79.1848C163.216 79.1584 163.207 79.132 163.207 79.132C163.207 79.132 163.216 79.1584 163.225 79.2201C163.384 79.5724 163.569 79.9687 163.736 80.3738C163.762 80.2682 163.78 80.1448 163.806 80.0392C163.806 80.0215 163.806 80.0127 163.815 80.0039C163.613 79.361 163.445 78.7533 163.34 78.2688C163.199 77.6171 163.119 77.1679 163.111 77.0622C163.137 77.1591 163.287 77.5907 163.533 78.1896C163.657 78.4802 163.806 78.8237 163.974 79.176C164.256 77.7052 164.441 76.3928 164.502 76.0317C164.52 76.4545 164.546 78.2777 164.467 80.1184C164.546 80.2682 164.617 80.4003 164.705 80.5412C164.872 80.823 165.039 81.0961 165.224 81.3515C165.339 81.3251 165.445 81.3163 165.55 81.2986C165.691 80.964 165.815 80.7173 165.867 80.6293C165.867 80.7085 165.85 80.8935 165.832 81.1401C165.832 81.1753 165.823 81.2106 165.832 81.2458C165.859 81.2458 165.876 81.237 165.903 81.2282C165.903 80.1272 165.982 79.0439 166.017 78.6564C166.017 78.5507 166.017 78.489 166.017 78.489C166.017 78.489 166.017 78.5155 166.035 78.5507C166.035 78.5155 166.044 78.489 166.044 78.489C166.044 78.489 166.044 78.5507 166.052 78.6564C166.167 79.0263 166.44 80.0392 166.642 81.1049C166.678 81.0961 166.704 81.0961 166.731 81.0873C166.731 81.0785 166.722 81.0696 166.722 81.052C166.66 80.8142 166.607 80.6469 166.59 80.5588C166.651 80.6205 166.801 80.7966 166.977 81.0432C167.127 81.0168 167.285 80.9904 167.444 80.964C167.532 80.7261 167.638 80.4883 167.717 80.2505C167.761 80.092 167.823 79.9423 167.858 79.7837C167.4 77.8725 167.065 75.9525 167.039 75.7147C167.109 75.9172 167.576 77.2648 168.166 78.7709C168.272 78.3921 168.351 78.031 168.404 77.7228C168.554 76.9917 168.615 76.5073 168.615 76.5073C168.615 76.5073 168.633 77.0006 168.624 77.758C168.615 78.2512 168.562 78.8854 168.492 79.5547C168.492 79.5636 168.501 79.5724 168.501 79.59C168.554 79.6869 168.598 79.8014 168.642 79.8982C168.73 79.4667 168.818 79.0527 168.924 78.674C168.906 78.6123 168.906 78.5771 168.906 78.5771C168.906 78.5771 168.915 78.6035 168.932 78.6388C168.968 78.4538 169.02 78.2688 169.073 78.1103C169.249 77.5202 169.39 77.1415 169.39 77.1415C169.39 77.1415 169.338 77.5642 169.276 78.1631C169.249 78.4802 169.241 78.8589 169.214 79.2641C169.382 79.6164 169.611 80.0568 169.857 80.5148C169.998 80.4972 170.121 80.4707 170.245 80.4443L171.161 77.2912L170.949 80.3122C171.011 80.2946 171.081 80.2858 171.134 80.2682L171.407 78.3041L171.575 79.6692C171.592 79.6428 171.601 79.634 171.619 79.6164V79.6076C171.619 79.405 171.619 79.2641 171.619 79.2641C171.619 79.2641 171.645 79.361 171.698 79.5107C171.962 79.132 172.05 78.6916 172.094 78.2336C172.27 76.2519 171.892 74.3143 171.592 72.3766C171.548 72.1388 171.443 72.0595 171.249 72.2709C170.914 72.6144 170.588 72.9667 170.174 73.1957C169.593 73.5216 168.994 73.8122 169.029 74.6313C169.038 74.7722 168.932 74.9044 168.756 74.922C168.598 74.9308 168.474 74.8339 168.422 74.7018C168.325 74.4992 168.263 74.2878 168.184 74.0853C168.122 73.9091 168.131 73.6713 167.858 73.6889C167.611 73.6889 167.338 73.6889 167.206 73.9796C167.18 74.0412 167.153 74.1205 167.118 74.1909C167.021 74.3935 166.933 74.6313 166.66 74.6137C166.396 74.5961 166.334 74.3495 166.255 74.1469C165.859 73.0636 164.731 72.817 163.956 72.174C163.921 72.1476 163.859 72.1564 163.815 72.1564C163.084 72.0859 162.459 71.7777 162.001 71.2228C161.64 70.7912 161.305 70.7912 160.838 71.029C157.914 72.4823 154.902 72.9931 151.731 71.8922C151.203 71.7072 151.159 71.7601 151.185 72.3061C151.247 73.6361 151.247 74.9748 151.15 76.3048C151.088 77.0182 151.053 77.7404 151.035 78.4538C151.361 79.1408 151.766 80.0832 152.145 81.052C152.251 81.3515 152.357 81.6509 152.453 81.9504ZM175.714 57.0779C175.899 58.5664 175.846 60.0637 176.067 61.5433C176.322 63.3929 176.683 65.1985 177.599 66.8543C177.925 67.4268 178.004 68.0081 177.907 68.6422C177.872 68.836 177.854 69.0473 177.854 69.2499C177.854 70.3773 177.978 71.487 178.092 72.5968C178.18 72.1212 178.286 71.6984 178.383 71.3285C178.453 71.0114 178.533 70.7384 178.594 70.5006C178.612 70.4918 178.603 70.4654 178.612 70.4565C178.709 70.0866 178.797 69.8488 178.823 69.7608C178.806 69.8665 178.744 70.2716 178.656 70.8705C178.638 71.029 178.603 71.1964 178.585 71.3813C178.497 72.0683 178.427 72.9315 178.374 73.8298C178.48 74.0588 178.594 74.3055 178.726 74.5609C178.726 74.5697 178.735 74.5697 178.735 74.5785C178.788 73.9884 178.814 73.4423 178.823 72.9227C178.832 72.8874 178.841 72.8522 178.841 72.817L178.885 73.2926C178.938 73.8827 178.964 74.4728 178.973 75.0805C179.114 75.3712 179.264 75.6794 179.422 75.9701C179.537 76.2167 179.669 76.4457 179.801 76.6923C179.871 76.8596 179.959 77.027 180.048 77.1943C180.109 77.0094 180.18 76.8332 180.232 76.6306C180.259 76.5514 180.303 76.4633 180.329 76.3664C180.444 75.8115 180.532 75.3183 180.585 75.0101C180.638 74.7723 180.664 74.6225 180.664 74.6225C180.664 74.6225 180.673 74.9396 180.69 75.424C180.77 75.2479 181.113 74.2086 181.113 74.2086C181.016 74.0412 180.963 73.8739 180.928 73.6889C180.867 73.3366 180.831 72.9755 180.779 72.6056C180.761 72.5439 180.779 72.3414 180.646 72.4471C180.4 72.6584 180.435 72.4118 180.409 72.3149C180.241 71.7865 180.065 71.2668 179.73 70.8089C178.744 69.4349 178.365 67.8583 178.163 66.2201C178.039 65.2865 177.978 64.3353 177.793 63.3929C177.3 60.7771 176.657 58.1965 175.978 55.6158C175.653 54.4004 175.247 53.185 174.604 52.084C174.481 51.8814 174.358 51.6613 174.102 51.5556C174.067 51.7758 174.173 51.9343 174.243 52.084C174.922 53.6958 175.503 55.3252 175.714 57.0779ZM174.111 75.0101C174.252 75.9877 174.384 76.9653 174.481 77.943C174.49 78.0751 174.499 78.2072 174.508 78.3481C174.578 77.9694 174.64 77.5995 174.684 77.2912C174.772 76.613 174.816 76.155 174.816 76.155C174.816 76.155 174.86 76.613 174.895 77.3C174.922 77.8901 174.922 78.6476 174.877 79.4138C174.895 79.4402 174.904 79.4579 174.922 79.4843C175.001 79.4755 175.08 79.4579 175.159 79.4314C175.159 79.3874 175.168 79.3434 175.168 79.2905L175.6 76.9389L175.741 76.1991C175.388 73.9972 175.221 71.8129 175.221 71.8129C175.221 71.8129 175.653 73.7682 176.278 75.7499C176.26 75.5121 176.234 75.2831 176.207 75.0453C176.04 73.6977 175.441 72.4647 175.071 71.1876C174.877 70.4918 174.358 69.9633 173.706 69.4525C173.724 69.84 173.768 70.1395 173.75 70.4301C173.68 71.9715 173.882 73.4952 174.111 75.0101ZM117.215 86.7593C117.294 86.7505 117.382 86.7417 117.461 86.7417L117.567 86.3366L117.558 86.2837C117.505 85.7905 117.426 85.2973 117.338 84.8745C117.276 84.8921 117.206 84.9009 117.135 84.9009C117.03 85.1828 116.933 85.4646 116.809 85.72C116.757 85.8345 116.686 85.9402 116.598 86.0371C116.765 86.2397 116.933 86.451 117.118 86.6624C117.144 86.6888 117.179 86.7241 117.215 86.7593ZM79.6239 85.8962C79.5799 86.0019 79.5447 86.1076 79.5182 86.2132L79.8089 88.2302C79.8177 88.2302 79.8177 88.239 79.8265 88.239C79.8881 88.0981 79.9234 87.9924 79.9498 87.9571C79.9498 88.0012 79.9322 88.1245 79.9146 88.2918C80.0114 88.3271 80.1171 88.3711 80.2228 88.4151C80.2052 88.3447 80.1876 88.2566 80.17 88.1773C80.0203 87.367 79.8177 86.5567 79.6239 85.8962ZM94.5351 87.5256C94.5263 87.6136 94.5175 87.7986 94.4999 88.0452V88.1509C94.5263 88.1509 94.5527 88.1421 94.5791 88.1421C94.5791 87.4903 94.6055 86.8474 94.632 86.3454C94.1652 86.5215 93.672 86.4687 93.1699 86.2837C93.1611 86.5303 93.1523 86.7681 93.1435 87.0147C93.214 87.1645 93.302 87.2966 93.3725 87.4463C93.5222 87.6929 93.6808 87.9395 93.8481 88.1773C93.9714 88.1773 94.0947 88.1685 94.2268 88.1597C94.3589 87.8514 94.4822 87.6136 94.5351 87.5256ZM92.3949 87.279C92.4213 87.1733 92.4477 87.05 92.4741 86.9355C92.4653 86.9355 92.4829 86.9178 92.4829 86.909C92.4125 86.6889 92.3508 86.4863 92.298 86.2837C92.2804 86.2837 92.2627 86.2749 92.2451 86.2573C92.1042 86.1604 91.9545 86.0635 91.8048 85.9578C91.8312 86.0019 92.2275 86.8738 92.3949 87.279ZM81.0684 88.6794C81.1036 88.6794 81.1388 88.6794 81.174 88.6705C81.403 87.7458 81.6144 86.9179 81.7289 86.4599C81.7113 86.3806 81.7025 86.3101 81.6849 86.2397C81.4911 85.4382 81.3326 84.6543 81.2269 83.8704C81.1124 84.4429 80.6984 84.804 80.1876 85.0947C80.0643 85.1475 79.9938 85.2973 79.9058 85.4118C79.8793 85.447 79.8881 85.4998 79.8617 85.5263C79.8441 85.5527 79.8265 85.5791 79.8177 85.5967C80.1348 86.2573 80.4959 87.094 80.8129 87.9483C80.901 88.2038 80.9803 88.4416 81.0684 88.6794ZM97.0805 84.6191C97.0893 84.575 97.0981 84.5222 97.1069 84.4782C96.9307 84.6367 96.7458 84.7952 96.5608 84.9538C96.6489 85.1916 96.7458 85.4206 96.8427 85.6672C96.9395 85.2973 97.0188 84.9273 97.0805 84.6191ZM95.3454 88.0981H95.4158C95.4158 88.0452 95.3982 88.0012 95.3894 87.9571C95.3366 87.7193 95.2837 87.5432 95.2573 87.4639C95.3366 87.5344 95.5215 87.7722 95.7329 88.0893C95.821 88.0804 95.9267 88.0716 96.0236 88.0716C96.1557 87.7722 96.2702 87.4727 96.3847 87.1468C96.4463 86.9883 96.4815 86.8474 96.5432 86.6889C96.4199 86.2044 96.3142 85.7112 96.2173 85.2532C96.1821 85.2884 96.1469 85.3149 96.1116 85.3501C95.7946 85.6143 95.4423 85.8433 95.1164 86.0899C95.0459 86.134 94.9843 86.178 94.9138 86.2132C95.0459 86.7153 95.2133 87.3935 95.3454 88.0893C95.3454 88.0981 95.3454 88.0981 95.3454 88.0981ZM146.438 74.1293C146.394 73.7946 146.403 73.4423 146.438 73.0988C146.993 74.6577 147.697 76.1727 147.697 77.8725C147.697 78.401 147.838 78.8766 148.076 79.3698C148.261 79.7397 148.376 80.1184 148.446 80.5148C148.323 81.0873 148.111 81.9328 147.838 82.7519C147.803 82.8664 147.768 82.9809 147.724 83.0866C147.565 82.4524 147.398 81.7302 147.239 80.9992C147.01 79.8366 146.817 78.6476 146.702 77.7668C146.605 77.0446 146.552 76.5161 146.535 76.34C146.588 75.609 146.561 74.8691 146.438 74.1293ZM105.254 32.5489C105.104 32.4432 92.0073 33.5794 82.9003 33.826C77.5453 34.0021 73.3177 34.1519 70.5257 34.2399C69.6802 34.2928 67.0379 34.0109 65.0562 35.4818C63.7792 36.433 63.2067 37.5163 62.6518 38.8463C62.1498 40.1234 62.2378 41.5502 62.229 41.9025C62.2026 43.6904 61.7006 62.2391 61.1369 79.6516H61.1457C61.1721 79.6164 61.313 78.8325 61.7975 74.0148C63.559 56.752 63.8584 52.5684 63.9817 50.4458C64.0962 48.834 64.2371 46.5793 64.3781 43.8137C64.7392 44.4743 65.2676 45.038 65.9282 45.4167C67.9804 46.6145 70.7107 45.7162 71.7236 43.4967C72.7188 41.3212 71.8645 38.6437 69.8035 37.4547C69.4336 37.2345 69.0196 37.0936 68.6233 36.9791C69.7859 36.4418 72.3313 36.2304 74.2073 36.1512C81.1212 35.4554 88.0527 34.7332 94.9578 34.0109C99.0269 33.7731 105.236 32.5841 105.254 32.5489ZM175.45 28.057C174.569 24.2434 171.073 21.8301 167.506 22.5523L122.235 30.805L165.999 26.2163C169.267 25.8023 172.579 27.5198 173.6 30.8931L185.27 69.2675L175.45 28.057ZM241.216 10.1161C239.252 8.95349 236.759 9.82544 235.755 11.904C234.698 14.0795 235.473 16.7306 237.464 17.8403C239.463 18.9765 241.92 18.1662 242.969 16.0524C243.99 14.0531 243.145 11.1994 241.216 10.1161ZM102.779 100.164L98.0669 103.696L97.3799 103.705C96.5168 103.723 95.6448 103.749 94.7817 103.758C97.6618 102.648 100.419 101.441 102.779 100.164ZM87.2072 101.001L82.1869 103.996C80.4606 104.022 78.7344 104.057 77.0081 104.101C80.6104 103.265 84.2655 102.234 87.2072 101.001ZM77.9945 88.3359C78.1443 88.283 78.294 88.2214 78.4525 88.1949C78.567 88.1685 78.6551 88.1333 78.7344 88.0716C78.7608 88.0452 78.9986 87.781 79.0162 87.5784C79.0426 87.3054 79.0426 87.0324 79.0162 86.7593C79.0162 86.6536 78.9457 86.5127 78.8489 86.4334C78.7167 86.3189 78.567 86.3013 78.4173 86.4687C78.338 86.5479 78.2147 86.5832 78.109 86.636C78.0738 87.1468 78.0386 87.7369 77.9945 88.3359ZM77.2547 86.8474C77.2371 86.7241 77.1578 86.6272 76.9817 86.6272C76.2771 86.6272 75.8103 86.2573 75.5196 85.72C75.6253 86.3982 75.7662 87.1556 75.9159 87.8955C75.9776 88.1949 76.0393 88.5032 76.1097 88.8027C76.3299 88.7939 76.5501 88.7939 76.7703 88.7939C77.0169 87.9043 77.2018 87.1116 77.2547 86.8474ZM103.545 86.3189C103.73 86.6536 103.942 87.0852 104.135 87.5344L104.232 85.174L104.488 86.2397C104.567 86.0723 104.646 85.9138 104.743 85.7641C105.474 84.531 105.333 83.3772 104.426 82.2322C104.126 82.699 103.827 83.1658 103.528 83.6326C103.545 83.8 103.554 83.9849 103.563 84.2051C103.589 84.7864 103.589 85.5439 103.545 86.3189ZM107.121 82.7871C107.227 82.3203 107.271 82.426 107.35 81.5893C107.394 81.1489 107.429 80.7526 107.456 80.4355C107.244 80.4091 107.033 80.3827 106.822 80.3562C106.883 80.6909 106.945 80.9551 106.971 81.2194C107.024 81.7478 107.068 82.2675 107.121 82.7871ZM107.632 83.7295C107.623 83.8 107.623 83.8616 107.623 83.9497C107.834 84.4077 108.248 85.262 108.68 86.1868C108.715 85.8698 108.759 85.5703 108.812 85.2444C108.988 84.1963 109.217 83.1746 109.42 82.426C109.596 81.7654 109.737 81.3074 109.772 81.2106C109.763 81.3163 109.684 81.7919 109.622 82.4788C109.543 83.2627 109.481 84.302 109.481 85.3413C109.473 86.0195 109.49 86.6889 109.534 87.2878C109.675 87.279 109.807 87.2702 109.948 87.2613L109.869 85.7553C109.755 85.4118 109.675 85.1563 109.658 85.0771C109.684 85.1211 109.755 85.2356 109.86 85.3765L109.693 82.241L110.741 86.5655C110.873 86.7329 111.005 86.8738 111.146 87.0323C111.199 87.0852 111.243 87.1292 111.278 87.1733C111.446 87.1645 111.604 87.1468 111.754 87.138C111.745 87.1116 111.736 87.0764 111.727 87.0412C111.569 86.4951 111.357 85.949 111.146 85.5527C110.979 85.1916 110.838 84.9714 110.803 84.9185C110.873 84.9714 111.058 85.1387 111.313 85.4118C111.498 85.6055 111.71 85.8521 111.93 86.1428C111.904 86.0371 111.868 85.9226 111.851 85.8169C111.349 83.9497 110.847 82.0737 110.785 81.8359C110.882 82.0473 111.666 83.8 112.458 85.5439C112.52 85.6496 112.564 85.7641 112.608 85.8697C112.256 84.5486 112.044 83.3684 112.044 83.3684C112.044 83.3684 112.635 84.7864 113.366 86.0811C113.418 86.1868 113.471 86.3013 113.524 86.3982C113.577 85.7288 113.595 84.9978 113.612 84.2404C113.612 83.0689 113.577 81.8623 113.515 80.9728C113.498 80.7614 113.489 80.5588 113.471 80.3915C111.498 80.7438 109.526 80.6733 107.535 80.4443C107.544 80.7614 107.553 81.1577 107.561 81.6157C107.57 82.7783 107.702 82.1706 107.632 83.7295ZM101.907 87.3054L101.925 86.4951C101.784 86.8386 101.678 87.1997 101.608 87.5872C101.599 87.6665 101.581 87.7281 101.537 87.7722C101.59 87.7722 101.652 87.7634 101.704 87.7634C101.784 87.596 101.854 87.4375 101.907 87.3054ZM102.858 86.6008C103.096 85.7288 103.263 84.8569 103.351 84.1875C103.369 84.073 103.387 83.9585 103.395 83.8616C103.175 84.2051 102.964 84.5486 102.761 84.8921C102.576 85.2092 102.391 85.5175 102.224 85.8433L102.594 87.4991C102.7 87.2085 102.788 86.909 102.858 86.6008ZM114.167 83.4741C114.22 83.6326 114.317 83.8616 114.423 84.1435C114.467 84.2315 114.511 84.3372 114.555 84.4253C114.713 84.0906 114.881 83.7824 115.021 83.5357C115.294 83.0513 115.506 82.7519 115.559 82.6726C115.532 82.7607 115.374 83.1218 115.206 83.6414C115.744 82.9104 115.902 82.1265 115.752 81.237C115.682 80.8142 115.664 80.3738 115.612 79.8542C114.942 80.0773 114.273 80.2476 113.603 80.365C113.639 80.5412 113.674 80.735 113.718 80.9375C113.876 81.6421 114.026 82.5317 114.167 83.4741ZM97.283 84.6543C97.2742 85.1563 97.2302 85.7817 97.1509 86.4511C97.1685 86.4687 97.1685 86.4687 97.1685 86.4863C97.2126 86.5832 97.2566 86.6977 97.3007 86.8034C97.3887 86.3718 97.4944 85.949 97.5825 85.5703C97.5825 85.5175 97.5737 85.4822 97.5737 85.4822C97.5737 85.4822 97.5737 85.4998 97.6001 85.5351C97.6529 85.3501 97.7058 85.1651 97.741 85.0154C97.926 84.4165 98.0493 84.0378 98.0493 84.0378C98.0493 84.0378 97.9964 84.4605 97.9524 85.0595C97.926 85.3853 97.8996 85.7641 97.8908 86.1692C98.0141 86.4158 98.1726 86.7329 98.3487 87.0588C98.5425 86.8474 98.7627 86.6624 99.0005 86.4951C99.0974 86.4158 99.1678 86.3366 99.2295 86.2485L99.8196 84.1963V84.1875C99.9429 83.7295 100.066 83.2715 100.181 82.8223C100.234 82.611 100.251 82.3732 100.286 82.1089C99.4145 82.5053 98.7187 83.0601 98.0581 83.6414C97.7939 83.8616 97.5473 84.0818 97.2918 84.3196C97.2918 84.4253 97.283 84.5398 97.283 84.6543Z" fill="#E30000"/>
</svg>
