<svg width="226" height="257" viewBox="0 0 226 257" fill="none" xmlns="http://www.w3.org/2000/svg">
<path d="M135.664 228.492H89.9752C87.8607 228.492 86.1621 230.208 86.1621 232.305C86.1621 234.403 87.8607 236.118 89.9752 236.118H135.664C137.778 236.118 139.477 234.403 139.477 232.305C139.477 230.208 137.778 228.492 135.664 228.492Z" fill="url(#paint0_linear_40_10095)"/>
<path d="M135.664 213.254H89.9752C87.8607 213.254 86.1621 214.97 86.1621 217.067C86.1621 219.182 87.8607 220.88 89.9752 220.88H135.664C137.778 220.88 139.477 219.182 139.477 217.067C139.477 214.97 137.778 213.254 135.664 213.254Z" fill="url(#paint1_linear_40_10095)"/>
<path d="M128.14 243.727H97.5827C95.4854 243.727 93.7695 245.442 93.7695 247.54C93.7695 249.637 95.4854 251.353 97.5827 251.353H103.268C105.313 254.455 108.831 256.501 112.818 256.501C116.804 256.501 120.323 254.455 122.368 251.353H128.14C130.237 251.353 131.953 249.637 131.953 247.54C131.953 245.442 130.237 243.727 128.14 243.727Z" fill="url(#paint2_linear_40_10095)"/>
<path d="M111.154 25.7013V0.5H114.482V25.7013H111.154Z" fill="url(#paint3_linear_40_10095)"/>
<path d="M32.1523 191.244L49.9527 173.426L52.31 175.783L34.4922 193.601L32.1523 191.244Z" fill="url(#paint4_linear_40_10095)"/>
<path d="M173.326 50.0716L191.144 32.2539L193.484 34.6111L175.683 52.4288L173.326 50.0716Z" fill="url(#paint5_linear_40_10095)"/>
<path d="M0.400391 111.254H25.5844V114.599H0.400391V111.254Z" fill="url(#paint6_linear_40_10095)"/>
<path d="M200.053 111.254H225.237V114.599H200.053V111.254Z" fill="url(#paint7_linear_40_10095)"/>
<path d="M34.4922 32.2539L52.31 50.0716L49.9527 52.4288L32.1523 34.6111L34.4922 32.2539Z" fill="url(#paint8_linear_40_10095)"/>
<path d="M175.683 173.426L193.484 191.244L191.144 193.601L173.326 175.783L175.683 173.426Z" fill="url(#paint9_linear_40_10095)"/>
<path d="M144.641 31.6798L154.26 8.40234L157.345 9.68494L147.708 32.9624L144.641 31.6798Z" fill="url(#paint10_linear_40_10095)"/>
<path d="M8.32031 154.447L31.5978 144.793L32.8804 147.878L9.60291 157.515L8.32031 154.447Z" fill="url(#paint11_linear_40_10095)"/>
<path d="M192.756 77.9767L216.033 68.3398L217.316 71.4077L194.038 81.0618L192.756 77.9767Z" fill="url(#paint12_linear_40_10095)"/>
<path d="M9.56995 68.4102L32.8474 78.0297L31.5821 81.1148L8.30469 71.478L9.56995 68.4102Z" fill="url(#paint13_linear_40_10095)"/>
<path d="M194.056 144.742L217.334 154.379L216.068 157.447L192.791 147.827L194.056 144.742Z" fill="url(#paint14_linear_40_10095)"/>
<path d="M71.3078 8.4375L80.9446 31.7149L77.8768 32.9802L68.2227 9.7201L71.3078 8.4375Z" fill="url(#paint15_linear_40_10095)"/>
<path d="M35.4809 122.191C35.4809 100.941 43.4712 80.9396 57.9957 65.895C72.607 50.7118 92.0886 42.3576 112.818 42.3576C133.548 42.3576 153.029 50.7118 167.641 65.895C182.165 80.9396 190.155 100.941 190.155 122.191C190.155 129.817 189.116 137.287 187.122 144.428C190.918 135.658 193.293 125.727 193.293 113.871C193.293 91.755 184.973 70.9561 169.859 55.2876C154.659 39.4977 134.397 30.7969 112.818 30.7969C91.2393 30.7969 70.9777 39.4977 55.7772 55.2876C40.6633 70.9561 32.3438 91.755 32.3438 113.871C32.3438 125.727 34.7183 135.658 38.5141 144.428C36.5209 137.287 35.4809 129.817 35.4809 122.191Z" fill="url(#paint16_linear_40_10095)"/>
<path d="M79.2463 95.0312H78.709V95.9672H79.2463V95.0312Z" fill="url(#paint17_linear_40_10095)"/>
<path fill-rule="evenodd" clip-rule="evenodd" d="M188.44 125.138C188.44 125.485 188.44 125.832 188.44 126.178C188.267 139.819 183.656 153.026 175.51 163.963C164.92 178.141 151.938 190.222 143.358 205.648H82.2789C73.6993 190.222 60.7174 178.141 50.1272 163.963C41.981 153.026 37.3706 139.819 37.1973 126.178C37.1973 125.832 37.1973 125.485 37.1973 125.138C37.1973 104.322 45.0142 84.7539 59.2268 70.0214C73.526 55.1848 92.557 47.0039 112.819 47.0039C133.08 47.0039 152.111 55.1848 166.41 70.0214C180.623 84.7539 188.44 104.322 188.44 125.138ZM60.9427 77.4916C66.3504 78.4276 72.0008 79.7622 77.6338 81.4608V92.5882H76.5592V97.5973H78.7084V96.5053H79.2457V97.5973H79.783V92.5882H78.7084V81.7901C82.5909 82.986 86.456 84.3553 90.2171 85.8805V80.9061L91.4304 80.2822C97.9994 76.9023 105.4 75.0998 112.819 75.0998C120.237 75.0998 127.638 76.9023 134.207 80.2822L135.42 80.9061V85.8805C144.936 82.0154 155.196 79.1382 164.695 77.4916C154.763 75.7584 143.965 72.6906 134.085 68.5308C124.223 64.3883 116.926 59.8472 112.819 55.6701C108.711 59.8472 101.414 64.3883 91.5517 68.5308C81.6723 72.6906 70.8742 75.7584 60.9427 77.4916ZM92.4704 82.2927V98.0132C104.187 87.9951 121.45 87.9951 133.167 98.0132V82.2927C120.428 75.7237 105.21 75.7237 92.4704 82.2927ZM86.04 187.674C84.6188 184.953 82.4002 182.717 79.783 181.088C60.388 169.024 48.342 146.943 48.342 123.457C48.342 108.898 52.8138 95.4134 60.4054 84.4073C51.7218 96.072 46.5394 110.683 46.5394 126.542C46.5394 150.634 58.9148 173.305 78.8471 185.698C81.187 187.154 83.1455 189.199 84.4801 191.626C85.8147 194.035 86.5253 196.773 86.5253 199.529C86.5253 199.529 88.0679 191.487 86.04 187.674ZM104.932 199.044V159.959C104.932 155.436 102.696 151.206 98.9874 148.641L60.7867 130.72L88.7959 150.028C95.4169 154.586 100.114 161.433 101.917 169.249C104.343 179.788 104.846 192.51 104.932 199.044V203.36C104.932 203.36 104.967 201.73 104.932 199.044ZM103.008 145.764L80.3723 137.704L99.9753 146.908L100.114 146.995C104.378 149.941 106.926 154.777 106.926 159.959V181.053L109.231 155.488C109.612 151.206 107.047 147.203 103.008 145.764ZM117.689 119.973C117.689 122.053 116.372 123.839 114.517 124.532V145.833C116.857 139.334 121.97 130.841 133.167 123.041C133.167 123.041 128.4 111.463 128.504 97.3719C123.842 94.3908 118.4 92.7788 112.819 92.7788C107.238 92.7788 101.795 94.3908 97.1328 97.3719C97.2368 111.463 92.4704 123.041 92.4704 123.041C103.667 130.841 108.78 139.334 111.12 145.833V124.532C109.265 123.839 107.948 122.053 107.948 119.973C107.948 117.27 110.132 115.103 112.819 115.103C115.505 115.103 117.689 117.27 117.689 119.973ZM118.712 159.959C118.712 154.777 121.26 149.941 125.523 146.995L125.662 146.908L145.265 137.704L122.629 145.764C118.59 147.203 116.025 151.206 116.406 155.488L118.712 181.053V159.959ZM136.841 150.028L164.851 130.72L126.65 148.641C122.941 151.206 120.705 155.436 120.705 159.959V199.027C120.67 201.73 120.705 203.36 120.705 203.36V199.027C120.792 192.51 121.294 179.788 123.721 169.249C125.523 161.433 130.22 154.569 136.841 150.028ZM179.098 126.542C179.098 110.683 173.915 96.072 165.232 84.4073C172.823 95.4134 177.295 108.898 177.295 123.457C177.295 146.943 165.249 169.024 145.854 181.088C143.237 182.717 141.018 184.953 139.597 187.674C137.569 191.487 139.112 199.529 139.112 199.529C139.112 196.773 139.823 194.035 141.157 191.608C142.492 189.199 144.45 187.154 146.79 185.698C166.722 173.305 179.098 150.634 179.098 126.542Z" fill="url(#paint18_linear_40_10095)"/>
<defs>
<linearGradient id="paint0_linear_40_10095" x1="86.1628" y1="228.498" x2="139.476" y2="228.498" gradientUnits="userSpaceOnUse">
<stop stop-color="#F1A321"/>
<stop offset="1" stop-color="#F0582E"/>
</linearGradient>
<linearGradient id="paint1_linear_40_10095" x1="86.1628" y1="213.262" x2="139.476" y2="213.262" gradientUnits="userSpaceOnUse">
<stop stop-color="#F1A321"/>
<stop offset="1" stop-color="#F0582E"/>
</linearGradient>
<linearGradient id="paint2_linear_40_10095" x1="93.7775" y1="243.729" x2="131.948" y2="243.729" gradientUnits="userSpaceOnUse">
<stop stop-color="#F1A321"/>
<stop offset="1" stop-color="#F0582E"/>
</linearGradient>
<linearGradient id="paint3_linear_40_10095" x1="141.688" y1="-76.0277" x2="301.586" y2="108.252" gradientUnits="userSpaceOnUse">
<stop stop-color="#F1A321"/>
<stop offset="1" stop-color="#F0582E"/>
</linearGradient>
<linearGradient id="paint4_linear_40_10095" x1="43.6507" y1="163.448" x2="62.2963" y2="184.937" gradientUnits="userSpaceOnUse">
<stop stop-color="#F1A321"/>
<stop offset="1" stop-color="#F0582E"/>
</linearGradient>
<linearGradient id="paint5_linear_40_10095" x1="184.828" y1="22.272" x2="203.474" y2="43.7608" gradientUnits="userSpaceOnUse">
<stop stop-color="#F1A321"/>
<stop offset="1" stop-color="#F0582E"/>
</linearGradient>
<linearGradient id="paint6_linear_40_10095" x1="-24.3151" y1="68.0121" x2="135.583" y2="252.292" gradientUnits="userSpaceOnUse">
<stop stop-color="#F1A321"/>
<stop offset="1" stop-color="#F0582E"/>
</linearGradient>
<linearGradient id="paint7_linear_40_10095" x1="89.5849" y1="-30.8178" x2="249.483" y2="153.462" gradientUnits="userSpaceOnUse">
<stop stop-color="#F1A321"/>
<stop offset="1" stop-color="#F0582E"/>
</linearGradient>
<linearGradient id="paint8_linear_40_10095" x1="35.1685" y1="12.4965" x2="214.525" y2="219.203" gradientUnits="userSpaceOnUse">
<stop stop-color="#F1A321"/>
<stop offset="1" stop-color="#F0582E"/>
</linearGradient>
<linearGradient id="paint9_linear_40_10095" x1="29.9417" y1="-15.0566" x2="209.299" y2="191.649" gradientUnits="userSpaceOnUse">
<stop stop-color="#F1A321"/>
<stop offset="1" stop-color="#F0582E"/>
</linearGradient>
<linearGradient id="paint10_linear_40_10095" x1="72.7558" y1="-109.08" x2="374.36" y2="238.513" gradientUnits="userSpaceOnUse">
<stop stop-color="#F1A321"/>
<stop offset="1" stop-color="#F0582E"/>
</linearGradient>
<linearGradient id="paint11_linear_40_10095" x1="-114.024" y1="-14.1583" x2="255.38" y2="411.574" gradientUnits="userSpaceOnUse">
<stop stop-color="#F1A321"/>
<stop offset="1" stop-color="#F0582E"/>
</linearGradient>
<linearGradient id="paint12_linear_40_10095" x1="-25.1556" y1="-200.758" x2="344.248" y2="224.974" gradientUnits="userSpaceOnUse">
<stop stop-color="#F1A321"/>
<stop offset="1" stop-color="#F0582E"/>
</linearGradient>
<linearGradient id="paint13_linear_40_10095" x1="1.40967" y1="42.5181" x2="172.418" y2="239.603" gradientUnits="userSpaceOnUse">
<stop stop-color="#F1A321"/>
<stop offset="1" stop-color="#F0582E"/>
</linearGradient>
<linearGradient id="paint14_linear_40_10095" x1="60.731" y1="-25.3833" x2="231.74" y2="171.702" gradientUnits="userSpaceOnUse">
<stop stop-color="#F1A321"/>
<stop offset="1" stop-color="#F0582E"/>
</linearGradient>
<linearGradient id="paint15_linear_40_10095" x1="73.6312" y1="-19.9492" x2="245.876" y2="178.56" gradientUnits="userSpaceOnUse">
<stop stop-color="#F1A321"/>
<stop offset="1" stop-color="#F0582E"/>
</linearGradient>
<linearGradient id="paint16_linear_40_10095" x1="73.5161" y1="-60.6408" x2="259.764" y2="153.827" gradientUnits="userSpaceOnUse">
<stop stop-color="#F1A321"/>
<stop offset="1" stop-color="#F0582E"/>
</linearGradient>
<linearGradient id="paint17_linear_40_10095" x1="79.4564" y1="94.5276" x2="80.0598" y2="95.4234" gradientUnits="userSpaceOnUse">
<stop stop-color="#8DC63F"/>
<stop offset="1" stop-color="#50843F"/>
</linearGradient>
<linearGradient id="paint18_linear_40_10095" x1="113.343" y1="-75.7057" x2="274.429" y2="163.39" gradientUnits="userSpaceOnUse">
<stop stop-color="#8DC63F"/>
<stop offset="1" stop-color="#50843F"/>
</linearGradient>
</defs>
</svg>
