<svg width="244" height="257" viewBox="0 0 244 257" fill="none" xmlns="http://www.w3.org/2000/svg">
<path d="M46.4495 256.898C51.3665 243.248 60.1353 219.764 63.2949 211.901C66.135 204.8 67.2533 196.972 65.638 189.499C60.6145 166.21 64.3954 140.738 64.3954 140.738C57.5082 160.495 60.0288 185.86 60.0288 185.86C20.6933 144.182 74.6908 104.456 74.6908 104.456C74.6908 104.456 69.7739 108.219 79.9983 135.324C89.5659 160.69 74.5488 180.127 68.9041 186.233C69.5254 188.736 70.2354 191.168 71.0519 193.422C78.0102 177.624 85.1104 163.441 92.264 150.696C95.3171 145.211 96.9501 139.052 97.0921 132.768C97.4116 119.224 100.358 91.054 111.719 67.5522C96.3111 85.8886 94.7313 116.029 94.7313 116.029C62.6914 59.5644 132.806 30.4 132.806 30.4C132.806 30.4 126.398 33.2401 130.339 65.8304C134.191 97.6573 110.281 115.159 103.447 119.455C103.323 123.609 103.376 127.674 103.678 131.508C121.712 101.811 138.611 88.7109 145.179 70.4278C148.178 62.0495 150.681 47.1212 157.782 30.4178C150.167 40.5712 147.468 56.6888 147.468 56.6888C130.996 23.2998 170.225 12.1701 170.225 12.1701C170.225 12.1701 166.799 13.3594 167.456 30.3113C168.059 46.1626 156.131 54.1682 151.853 56.529C150.397 63.0257 148.942 69.6645 147.806 75.0252C174.964 51.2748 202.602 40.3227 202.602 40.3227C185.348 42.3817 165.556 56.5468 165.556 56.5468C171.805 36.6838 184.55 29.0155 197.454 26.9209C176.757 10.6258 150.646 0.898438 122.263 0.898438C55.0586 0.898438 0.599609 55.3752 0.599609 122.579C0.599609 163.761 21.0661 200.167 52.3782 222.196L46.4495 256.898Z" fill="url(#paint0_linear_40_10082)"/>
<path d="M220.78 51.15C227.756 34.3756 235.317 32.5473 235.317 32.5473C235.246 32.5236 235.181 32.5059 235.122 32.494C234.022 32.3343 228.359 32.6183 213.591 50.1204C197.81 68.8474 175.764 65.2795 168.859 63.5577C158.404 72.6283 148.499 82.9947 139.162 94.1776C143.334 94.0178 147.683 93.4853 151.996 92.722C155.262 85.7105 166.054 67.2321 189.823 66.309C215.65 65.315 217.052 59.9721 217.052 59.9721C217.052 59.9721 201.698 121.141 155.227 100.231C155.227 100.231 178.462 95.2604 190.799 81.0066C175.036 91.2665 158.031 96.3964 146.049 98.775C137.671 100.461 130.216 105.183 125.175 112.07C111.968 130.069 100.111 149.382 89.7267 168.34C131.636 158.914 175.516 128.277 175.516 128.277C175.516 128.277 135.452 149.276 120.861 149.258C120.861 149.258 133.287 110.419 173.758 108.023C209.348 105.911 211.141 98.5265 211.141 98.5265C211.141 98.5265 194.793 173.417 133.997 157.92C122.388 163.654 110.814 168.251 101.673 171.588C90.4545 175.706 81.2951 184.031 76.0409 194.753C72.2068 202.545 68.6567 210.125 65.3905 217.367C86.6026 216 122.423 199.403 122.423 199.403C122.423 199.403 93.1881 210.941 72.6151 209.841C72.6151 209.841 88.6617 178.245 123.719 181.795C154.534 184.919 157.09 178.813 157.09 178.813C157.09 178.813 132.097 242.342 80.8336 218.255C77.6207 219.142 74.7984 219.87 72.6328 220.438C68.1064 221.61 64.1658 224.29 61.3789 227.929C79.2893 238.313 100.075 244.242 122.264 244.242C189.468 244.242 243.927 189.765 243.927 122.579C243.927 95.8816 235.353 71.2082 220.78 51.15Z" fill="url(#paint1_linear_40_10082)"/>
<defs>
<linearGradient id="paint0_linear_40_10082" x1="363.862" y1="59.2001" x2="211.4" y2="360.421" gradientUnits="userSpaceOnUse">
<stop stop-color="#FAEA15"/>
<stop offset="1" stop-color="#EF542F"/>
</linearGradient>
<linearGradient id="paint1_linear_40_10082" x1="365.063" y1="144.208" x2="180.102" y2="350.796" gradientUnits="userSpaceOnUse">
<stop stop-color="#8DC63F"/>
<stop offset="1" stop-color="#046738"/>
</linearGradient>
</defs>
</svg>
