<svg width="256" height="256" viewBox="0 0 256 256" fill="none" xmlns="http://www.w3.org/2000/svg">
<path d="M128 0C57.2735 0 0 57.3388 0 128C0 198.661 57.3388 256 128 256C198.661 256 256 198.661 256 128C256 57.3388 198.727 0 128 0ZM128 244.898C63.4122 244.898 11.102 192.588 11.102 128C11.102 63.4122 63.4122 11.102 128 11.102C192.588 11.102 244.898 63.4122 244.898 128C244.898 192.588 192.588 244.898 128 244.898Z" fill="#00334A"/>
<path d="M127.999 16.3906C66.3498 16.3906 16.3906 66.3498 16.3906 127.999C16.3906 189.648 66.3498 239.607 127.999 239.607C189.648 239.607 239.607 189.648 239.607 127.999C239.607 66.3498 189.648 16.3906 127.999 16.3906Z" fill="#00334A"/>
<path d="M19.2045 124.73C17.8984 169.138 43.2371 207.799 80.3963 225.954C91.8902 231.571 105.8 226.608 111.286 215.048C111.417 214.722 111.613 214.395 111.743 214.069C115.923 204.861 113.572 193.954 106.062 187.228L63.7433 149.22L25.278 144.975L60.2167 146.085L24.6902 114.216L61.6535 142.754L49.7025 92.73L70.2739 149.35L118.862 186.836C120.625 174.624 122.062 158.493 123.237 141.057C123.694 133.938 120.886 126.95 115.596 122.183L84.8371 94.5586L56.0371 91.4239L82.2249 92.2729L55.6453 68.3708L83.3351 89.7912L74.3882 52.3055L89.8004 94.7545L124.543 121.595C125.327 107.163 125.98 92.5341 126.502 79.1463C126.698 74.0525 125.196 69.0892 122.323 64.9096L104.56 39.6361L126.96 67.0647C127.678 46.2974 128.004 26.5749 128.135 19.1953C127.613 19.1953 127.155 19.1953 126.633 19.1953C68.5106 20.0443 20.9678 66.8035 19.2045 124.73Z" fill="#98CB50"/>
<path d="M128.062 19.1953C128.193 26.5749 128.52 46.2974 129.238 67.0647L151.638 39.6361L133.875 64.9096C130.936 69.0892 129.499 74.0525 129.695 79.1463C130.218 92.5994 130.871 107.228 131.654 121.595L166.397 94.7545L181.809 52.3055L172.863 89.7912L200.552 68.3708L173.973 92.2729L200.16 91.4239L171.36 94.5586L140.601 122.183C135.311 126.95 132.438 133.938 132.96 141.057C134.136 158.493 135.573 174.624 137.336 186.836L185.924 149.35L206.495 92.73L194.544 142.754L231.507 114.216L195.981 146.085L230.92 144.975L192.454 149.22L149.94 187.163C142.43 193.955 140.079 204.795 144.258 214.003C144.389 214.33 144.52 214.657 144.716 214.918C150.267 226.608 164.373 231.375 175.932 225.693C211.981 207.995 236.863 170.901 236.863 127.995C236.797 67.9137 188.144 19.2606 128.062 19.1953Z" fill="#46A368"/>
</svg>
