<svg width="257" height="185" viewBox="0 0 257 185" fill="none" xmlns="http://www.w3.org/2000/svg">
<path d="M46.6063 123.285C47.2325 123.824 47.7277 124.712 48.1937 125.397L51.0771 124.363C50.5674 125.178 49.9849 125.936 49.4315 126.722L51.2956 129.154L48.6888 128.164C48.0189 128.411 47.2034 130.115 46.7811 130.77L46.8102 127.669C45.718 127.304 44.5675 127.086 43.4316 126.838C44.519 126.596 45.6064 126.334 46.6937 126.052C46.6209 125.135 46.6063 124.217 46.6063 123.285Z" fill="#972D2E"/>
<path d="M208.937 122.383C209.272 123.402 209.287 124.538 209.374 125.616C210.452 125.834 211.544 125.98 212.636 126.14C211.719 126.723 210.641 127.159 209.666 127.64L210.321 130.975C209.52 130.174 208.748 129.358 208.005 128.499C207.175 129.111 206.229 129.621 205.369 130.159C205.806 129.096 206.331 128.091 206.869 127.087C206.054 126.388 205.326 125.63 204.598 124.844L207.467 125.295L208.937 122.383Z" fill="#972D2E"/>
<path d="M58.5619 60.8242C59.4211 61.7708 59.7852 63.6494 60.1201 64.8727L65.0278 64.6397C63.7899 65.6008 62.3773 66.4018 61.0521 67.2319L62.8579 71.6298C61.722 70.9017 60.7026 70.1299 59.6686 69.2707C59.4939 69.1542 59.3628 69.0085 59.1444 69.0085C58.1541 69.0522 56.1153 71.1056 55.3289 71.7755C55.7804 70.2755 56.3629 68.7901 56.9017 67.3192C55.7367 66.5474 54.4988 65.863 53.3047 65.1348C54.8047 65.0329 56.3338 65.0911 57.8337 65.0911L58.5619 60.8242Z" fill="#972D2E"/>
<path d="M186.759 46.7109C186.395 48.2546 185.813 49.7691 185.405 51.3128C186.643 52.172 187.895 53.0021 189.089 53.9195L184.604 53.8322C184.167 55.4195 183.556 56.9486 182.915 58.4777C182.565 56.8904 182.332 55.2593 182.056 53.6574C180.497 53.5992 178.939 53.6574 177.381 53.7011C178.793 52.8856 180.235 52.0846 181.56 51.1235C180.876 49.7691 180.279 48.3565 179.638 46.9731C180.832 47.8468 182.026 48.7206 183.148 49.7109C184.327 48.6769 185.521 47.6866 186.759 46.7109Z" fill="#972D2E"/>
<path d="M75.9643 46.4961C76.2118 47.6611 75.3526 49.7582 75.0031 50.9378C76.5905 51.564 78.1341 52.2338 79.6778 52.9766C77.9497 53.1125 76.2167 53.2241 74.4789 53.3115C74.3041 54.9571 74.0711 56.5736 73.7653 58.2192C73.1391 56.6173 72.6731 54.928 71.9012 53.3989C70.3576 53.7047 68.7848 53.9231 67.2266 54.1707C68.4498 53.1222 69.7605 52.1902 71.0711 51.2436C70.3284 49.9184 69.8187 48.5349 69.3527 47.0786C70.5323 47.8941 71.6682 48.7242 72.775 49.6417C73.7944 48.5495 74.872 47.5155 75.9643 46.4961Z" fill="#972D2E"/>
<path d="M169.924 34.6836L170.026 34.8292C169.72 36.2855 169.283 37.7127 168.89 39.1398C170.361 39.7806 171.759 40.6107 173.171 41.3679C171.608 41.4844 170.045 41.5815 168.482 41.6592C168.176 43.232 167.87 44.7902 167.506 46.3484C167.099 45.2999 166.429 42.5912 165.628 41.9941L161.273 42.2854C162.497 41.4407 163.676 40.5379 164.827 39.5913C164.084 38.0039 163.181 36.5039 162.322 34.9894C163.778 35.8486 165.176 36.8535 166.574 37.7855C167.623 36.7078 168.802 35.703 169.924 34.6836Z" fill="#972D2E"/>
<path d="M106.109 26.0195C107.041 27.2428 107.682 29.1505 108.454 30.5194C109.998 30.1991 111.527 29.6748 113.027 29.2234C111.847 30.4029 110.595 31.5243 109.371 32.6602C110.172 33.9708 110.973 35.2815 111.687 36.6504C110.493 36.1407 109.415 35.5291 108.308 34.8446L107.828 34.6116C106.721 35.1213 105.323 37.3494 104.522 38.3251L105.294 33.3592L100.619 31.5534C102.323 31.3495 104.012 31.1602 105.687 30.8107C105.789 29.2088 105.905 27.6214 106.109 26.0195Z" fill="#972D2E"/>
<path d="M194.041 62.25C195.075 62.9636 195.978 63.881 196.895 64.7402C198.191 64.0267 199.473 63.3277 200.827 62.716C200.186 63.9393 199.604 65.1626 199.05 66.415C200.143 67.9004 201.293 69.2839 202.56 70.6091L199.036 69.6625L198.293 69.5169C196.997 70.0848 195.992 72.4731 195.308 73.6818L195.264 68.6868C193.662 68.5994 192.089 68.4392 190.502 68.2499C192.016 67.6674 193.521 67.0703 195.016 66.4587C194.58 65.0752 194.259 63.6917 194.041 62.25Z" fill="#972D2E"/>
<path d="M128.478 24.3594C129.206 25.0147 129.483 27.3593 129.716 28.3642C131.328 28.3544 132.944 28.3642 134.565 28.3933C133.206 29.2379 131.852 30.0874 130.502 30.9418C131.07 32.3835 131.434 33.8835 131.842 35.3689C130.837 34.5534 129.527 32.9951 128.362 32.5291L124.605 35.0194C125.09 33.6019 125.609 32.199 126.163 30.8107C124.881 29.8933 123.643 28.9758 122.449 27.9564L127.138 28.3933C127.532 27.0244 127.896 25.6555 128.478 24.3594Z" fill="#972D2E"/>
<path d="M49.3877 78.4023C50.2323 79.145 50.5964 81.6644 50.8877 82.8149C52.4605 82.5236 54.0332 82.3489 55.6206 82.2324C54.441 83.1935 53.276 84.1547 52.1692 85.2032C52.6789 86.674 53.4216 88.1157 54.0624 89.5429L50.1887 87.2274C49.3586 87.3002 47.3926 89.572 46.6208 90.2274C46.9703 88.6983 47.5237 87.1983 48.0042 85.6983C46.6353 84.8246 45.3247 83.9799 44.0723 82.9459C45.4897 83.0333 46.912 83.0964 48.3392 83.1353C48.5867 81.5333 49.0091 79.9751 49.3877 78.4023Z" fill="#972D2E"/>
<path d="M45.9361 99.9414C46.8681 101.136 47.3778 102.65 48.1934 103.932C49.7225 103.451 51.2661 103.029 52.7952 102.577C51.7321 103.757 50.5525 104.835 49.4312 105.941C50.203 107.368 51.0331 108.766 51.8341 110.179C50.6836 109.786 49.5914 109.189 48.4992 108.65L47.8438 108.388C46.8244 108.592 45.3973 110.893 44.6546 111.737C44.8002 110.252 44.9604 108.796 45.208 107.325C43.8536 106.509 42.3828 106.014 40.8828 105.519C42.3973 104.98 43.9701 104.674 45.5429 104.383C45.6449 102.898 45.7177 101.412 45.9361 99.9414Z" fill="#972D2E"/>
<path d="M86.0862 34.3945C87.2075 34.9916 88.4017 36.8993 89.2317 37.9187C90.6152 36.943 92.0278 36.0401 93.4841 35.1664C92.7268 36.7683 91.6637 38.21 90.8482 39.7828C92.1006 40.8604 93.3093 41.9526 94.4744 43.1322C93.2802 42.841 92.1006 42.4769 90.921 42.142C90.6006 42.0546 90.2948 42.0109 89.9744 41.9672C88.7803 42.6225 87.8483 45.4186 87.2366 46.6419C87.2075 44.9526 87.091 43.2487 86.9891 41.5594C85.2706 41.4138 83.5231 41.0934 81.8047 40.8604C83.4454 40.2197 85.091 39.5983 86.7415 38.9964C86.4794 37.4721 86.2609 35.9382 86.0862 34.3945Z" fill="#972D2E"/>
<path d="M150.119 26.0039C150.527 27.6204 150.352 29.5718 150.352 31.2465C152.071 31.3824 153.77 31.6349 155.449 32.0038L150.746 33.7805C151.124 35.3387 151.532 36.8823 151.925 38.426C150.877 37.4649 149.974 36.0668 148.78 35.3241C148.343 35.0474 148.241 35.1494 147.76 35.2804C146.585 35.9989 145.391 36.6882 144.178 37.3483C144.993 35.8726 145.794 34.3872 146.581 32.8921C145.488 31.8582 144.265 30.8388 143.348 29.6446C144.819 29.9067 146.275 30.3582 147.717 30.7368C148.561 29.1786 149.391 27.6204 150.119 26.0039Z" fill="#972D2E"/>
<path d="M211.502 99.9688C211.982 100.741 211.575 103.668 211.531 104.731C213.06 105.007 214.575 105.517 216.031 106.071C214.546 106.566 213.046 107.003 211.56 107.469C211.677 109.187 211.735 110.905 211.779 112.624C210.949 111.459 210.162 109.595 209.041 108.736C208.779 108.546 208.575 108.692 208.269 108.75C207.133 109.289 206.026 109.77 204.832 110.134C205.72 108.823 206.594 107.527 207.352 106.129C206.58 104.702 205.487 103.639 204.352 102.488C205.91 102.867 207.366 103.449 208.822 104.09L211.502 99.9688Z" fill="#972D2E"/>
<path d="M206.447 79.3203C206.942 79.8446 207.583 83.2814 207.845 84.2134C209.553 84.2231 211.267 84.262 212.985 84.3299C211.311 85.1018 209.738 86.0338 208.18 87.0241C208.835 88.5532 209.432 90.0968 209.782 91.7278C208.631 90.723 207.51 89.6745 206.374 88.6405L206.01 88.5532C204.772 89.0774 203.549 90.6065 202.384 91.3929C202.762 89.8347 203.374 88.3201 203.913 86.8202C202.602 85.9173 201.335 84.9707 200.039 84.0532C201.67 84.0678 203.316 84.0678 204.947 84.0678C205.384 82.4659 205.937 80.8931 206.447 79.3203Z" fill="#972D2E"/>
<path d="M123.555 55.6406C123.628 56.9076 123.089 58.3493 122.434 59.4124C121.123 61.5094 118.983 63.4172 116.9 64.7278C103.604 73.0869 87.4104 62.4269 73.2408 65.6599C72.8913 65.7472 72.702 65.82 72.3379 65.7472C73.8379 64.9171 75.7602 64.524 77.4349 64.2327C89.0123 62.2376 101.041 66.9268 111.949 64.1308C117.162 62.8055 120.818 60.2425 123.555 55.6406Z" fill="#972D2E"/>
<path d="M161.1 118.115C163.386 117.955 191.376 128.382 196.283 129.998C195.366 131.076 194.332 132.037 193.313 133.013C185.623 130.547 177.968 127.989 170.347 125.338C168.949 124.858 163.153 122.586 162.105 122.44C161.872 122.411 161.813 122.44 161.624 122.484C155.741 124.741 149.712 126.634 143.755 128.702C139.372 130.231 134.93 132.052 130.489 133.348C130.362 133.387 130.236 133.416 130.11 133.435C129.974 133.455 129.843 133.469 129.717 133.479C129.581 133.479 129.45 133.474 129.324 133.464C129.188 133.445 129.057 133.421 128.93 133.392C127.722 133.115 127.212 132.285 126.557 131.309C130.707 129.066 135.455 127.523 139.896 125.95C146.959 123.431 154.211 121.042 161.1 118.115Z" fill="#0E2240"/>
<path d="M117.118 38.2947C120.497 37.8578 122.448 39.3869 125.274 40.8286C126.497 41.4402 127.764 41.9062 128.972 42.5616C126.861 42.5616 121.269 42.9256 119.74 44.5275C117.482 46.8867 122.274 49.4352 122.405 51.94C122.492 53.7895 120.832 56.0322 119.667 57.372C116.041 61.4641 110.74 62.4544 105.526 62.7602C100.648 62.9787 95.4489 61.5515 90.5703 61.1001C97.0653 58.2603 103.677 57.5758 107.274 50.7022C108.468 48.4304 109.254 45.9693 110.463 43.6975C111.992 40.8432 114.016 39.2267 117.118 38.2947Z" fill="#0E2240"/>
<path d="M119.726 40.4215C120.221 40.4069 120.716 40.3778 121.211 40.4215C121.706 40.4798 122.056 40.6399 122.376 41.0331C122.449 41.6448 122.347 41.7613 122.085 42.3001C121.59 42.4749 121.007 42.6933 120.468 42.5768C119.973 42.4894 119.871 42.3001 119.595 41.936C119.493 41.3244 119.536 41.004 119.726 40.4215Z" fill="#FEFEFE"/>
<path d="M122.317 60.3008C122.332 60.3153 122.346 60.3299 122.346 60.3299C122.608 60.8396 122.419 61.3493 122.23 61.8444C118.764 71.5578 111.118 76.7422 101.099 78.2422C96.6866 78.8975 92.2013 78.9412 87.8324 79.9315C85.1237 80.5431 82.5024 81.6062 79.9976 82.8149C79.6772 82.9703 79.3617 83.1305 79.051 83.2955C78.7307 83.4605 78.42 83.6256 78.119 83.7906C77.8083 83.9654 77.4977 84.1401 77.187 84.3149C76.8763 84.4994 76.5705 84.6838 76.2695 84.8683C75.9686 85.0527 75.6725 85.2421 75.3812 85.4362C75.0802 85.6207 74.7841 85.8149 74.4929 86.0187C74.2016 86.2226 73.9104 86.4265 73.6191 86.6304C73.3375 86.8343 73.0512 87.043 72.7599 87.2566C72.4783 87.4702 72.2017 87.6886 71.9298 87.9119C71.6483 88.1352 71.3716 88.3585 71.0997 88.5818C70.8279 88.8148 70.5609 89.0478 70.2988 89.2808C70.0366 89.5138 69.7745 89.7517 69.5124 89.9944C69.2503 90.2371 68.993 90.4798 68.7405 90.7225C68.4881 90.9653 68.2357 91.2128 67.9833 91.4652C67.7309 91.7177 67.4833 91.9749 67.2406 92.2371C67.0076 92.4992 66.7697 92.7613 66.527 93.0235C66.294 93.2856 66.061 93.5526 65.828 93.8244C65.6047 94.0963 65.3814 94.3681 65.1581 94.6399C64.9348 94.9215 64.7164 95.203 64.5028 95.4846C64.2795 95.7661 64.0659 96.0477 63.862 96.3292C63.6484 96.6205 63.4445 96.9117 63.2504 97.203C63.0465 97.4943 62.8475 97.7855 62.6533 98.0768C62.4591 98.3777 62.2649 98.6738 62.0708 98.9651C61.8863 99.2661 61.7019 99.5719 61.5174 99.8825C61.3426 100.184 61.1679 100.489 60.9931 100.8C60.8184 101.111 60.6485 101.421 60.4834 101.732C60.3184 102.052 60.1582 102.368 60.0029 102.679C59.8475 102.999 59.6922 103.319 59.5368 103.64C59.3912 103.96 59.2456 104.285 59.1 104.615C58.964 104.936 58.8281 105.261 58.6922 105.591C58.5563 105.921 58.4252 106.251 58.299 106.581C58.1728 106.912 58.0514 107.242 57.9349 107.572C57.0175 100.232 58.0806 93.3875 62.2455 87.1255C64.7212 83.3683 68.0415 80.5722 71.9735 78.4315C85.4878 71.0482 94.4294 76.4946 107.783 73.7131C108.201 73.6064 108.614 73.4947 109.021 73.3782C114.206 71.8782 118.342 68.7327 120.963 63.956C119.361 65.689 117.744 67.4074 115.793 68.7472C107.987 74.1792 97.6915 72.8831 88.7353 72.3442C85.7063 72.1549 82.6189 71.9365 79.5899 72.2569C73.4735 72.8976 67.0513 76.1451 62.6242 80.3684C61.3135 81.6062 60.2067 83.0334 59.0708 84.4314C59.3475 83.7324 59.6388 83.0334 59.9883 82.378C61.4446 79.5674 63.5416 77.0917 65.7115 74.8199C79.5607 60.359 95.8129 73.9753 111.41 68.8492C115.429 67.5239 120.38 64.1308 122.317 60.3008Z" fill="#972D2E"/>
<path d="M127.881 172.07C170.23 171.91 214.996 174.283 256.238 184.303L256.223 184.39L256.5 184.434L256.354 184.463L256.282 184.594C255.248 184.652 254.039 184.332 252.976 184.23L244.034 183.444C234.267 182.531 224.486 181.788 214.69 181.215C186.234 179.817 157.764 179.186 129.279 179.322C100.493 179.38 71.7317 180.152 42.9943 181.638C34.1984 182.104 25.4121 182.681 16.6356 183.371C11.2619 183.822 5.87369 184.579 0.5 184.885C6.04844 182.89 12.1794 181.871 17.9463 180.72C40.1837 176.308 62.9309 174.546 85.5469 173.439C99.6438 172.643 113.755 172.186 127.881 172.07Z" fill="#0E2240"/>
<path d="M121.795 0.242905C122.212 0.21378 122.635 0.199219 123.062 0.199219C129.6 0.199219 136.663 7.78645 141.032 12.1262C145.896 12.898 150.585 13.932 155.231 15.5339C151.197 12.7087 146.086 11.1796 142.489 7.81558C141.513 6.91268 139.445 4.8302 139.547 3.43216C139.591 2.86421 139.853 2.45646 140.304 2.12151C141.163 1.48075 142.387 1.56812 143.406 1.68462C151.314 2.63121 155.348 10.699 159.789 16.3203C164.231 18.0678 168.294 20.4561 172.634 22.4075C169.051 19.5241 164.988 16.728 162.148 13.1165C160.998 11.6602 159.571 9.47574 159.877 7.55345C159.949 7.02919 160.212 6.53405 160.678 6.25735C161.406 5.82047 162.381 5.90785 163.168 6.12629C170.551 8.10683 173.012 17.8202 176.274 23.791C180.396 26.4269 184.124 29.3394 187.866 32.4705C184.546 28.0142 179.201 23.6745 178.138 17.9804C177.949 17.0047 177.891 15.7669 178.546 14.9368C178.968 14.4271 179.58 14.2378 180.221 14.2524C181.43 14.2815 182.624 15.0533 183.527 15.7814C187.837 19.2911 188.74 24.9415 190.065 29.9948C190.327 31.0433 190.546 32.3976 191.012 33.3879C192.046 35.616 195.934 38.6305 197.725 40.5965C199.021 42.0091 200.157 43.5965 201.512 44.9654L201.643 45.0964C199.094 39.781 193.444 33.0238 194.259 26.7909C194.347 26.1793 194.551 25.5385 195.09 25.2036C195.148 25.1648 195.206 25.1308 195.264 25.1017C195.332 25.0725 195.395 25.0483 195.454 25.0288C195.512 25.0094 195.575 24.99 195.643 24.9706C195.711 24.9609 195.779 24.9512 195.847 24.9415C195.905 24.9318 195.968 24.9269 196.036 24.9269C196.104 24.9172 196.172 24.9172 196.24 24.9269C196.308 24.9269 196.371 24.9366 196.429 24.956C196.497 24.9657 196.565 24.9803 196.633 24.9997C197.667 25.291 198.628 26.1939 199.371 26.9657C204.847 32.6889 202.4 40.713 204.89 47.4556C205.691 49.6109 207.293 51.4167 208.56 53.3099C209.638 54.9118 210.613 56.6011 211.618 58.2467C210.555 53.1934 206.711 46.2032 208.648 41.0334C208.924 40.3198 209.405 39.4461 210.177 39.1839C210.657 39.0237 211.065 39.1402 211.502 39.3587C212.463 39.8392 213.264 41.0771 213.832 41.98C218.332 49.3196 213.672 55.4797 214.778 62.5281C215.084 64.4796 216.395 66.5183 217.167 68.3387C217.924 70.1299 218.55 71.9503 219.176 73.7852C218.958 68.5135 216.977 62.732 219.424 57.6787C219.774 56.9506 220.312 56.2079 221.128 55.9894C221.652 55.8438 222.307 55.8584 222.773 56.1642C223.793 56.8049 224.346 58.2321 224.739 59.3097C226.414 64.0427 225.016 68.6445 223.167 73.0862C222.468 74.7464 221.667 76.4356 221.536 78.256C221.405 80.2365 223.662 88.0131 224.215 90.5179C224.637 85.4063 223.385 80.4987 226.327 75.8677C226.88 74.9794 227.783 73.6541 228.934 73.5376C229.341 73.4939 229.734 73.6396 230.04 73.9017C231.06 74.7027 231.497 76.2463 231.73 77.4842C232.807 83.2074 229.997 87.4888 227.332 92.2509C226.705 93.3722 225.861 94.6974 225.57 95.9207C225.176 97.5809 226.05 105.678 226.225 108.095C226.953 103.406 227.492 96.6925 231.467 93.4596C232.123 92.9353 232.895 92.5567 233.754 92.6586C234.264 92.7314 234.628 92.9062 234.919 93.3431C235.618 94.3334 235.691 95.8188 235.72 96.9984C235.822 102.663 232.472 106.115 229.079 110.192C228.103 111.386 227.026 112.639 226.443 114.095C225.671 116.032 225.875 118.988 225.628 121.085C225.38 123.095 225.016 125.105 224.696 127.1C226.298 122.512 227.827 116.556 231.832 113.44C232.603 112.843 233.579 112.304 234.598 112.45C235.196 112.551 235.676 112.886 235.982 113.411C236.666 114.503 236.492 116.032 236.215 117.226C235.108 122.105 231.628 125.352 227.958 128.483C226.662 129.59 225.249 130.682 224.361 132.153C222.803 134.716 221.841 140.366 221.07 143.425C223.065 139.464 225.438 134.847 229.458 132.59C230.375 132.08 231.846 131.454 232.909 131.891C233.433 132.095 233.798 132.444 233.972 132.983C234.365 134.119 233.929 135.488 233.521 136.566C231.657 141.502 227.681 143.803 223.371 146.366C222.016 147.167 220.56 147.968 219.468 149.133C217.56 151.143 215.783 156.036 214.458 158.687C216.919 155.483 220.007 152.381 223.895 150.983C224.827 150.648 226.225 150.196 227.157 150.764C227.652 151.056 228.133 151.624 228.249 152.206C228.424 153.051 227.754 154.376 227.346 155.133C225.002 159.648 220.283 161.599 215.74 163.172C214.196 163.711 212.507 164.191 211.123 165.08C209.667 166.026 208.531 168.036 207.57 169.463C210.963 169.012 215.215 166.754 218.667 167.919C219.22 168.094 219.701 168.444 219.934 168.997C220.327 169.9 219.934 170.803 219.613 171.662C214.429 170.643 209.084 170.06 203.842 169.288C218.113 152.279 224.361 126.677 223.138 104.819C221.769 80.2657 211.065 56.3535 192.599 39.9121C171.629 21.2425 148.357 13.1893 120.353 14.7766C102.062 16.3348 86.0867 22.4221 71.2909 33.2132C70.6792 33.6598 70.0773 34.1112 69.4851 34.5675C68.8929 35.0238 68.3055 35.4898 67.723 35.9655C67.1405 36.4315 66.5628 36.9073 65.99 37.3927C65.4172 37.8781 64.8492 38.3733 64.2861 38.8781C63.7231 39.3732 63.1697 39.8781 62.626 40.3926C62.0823 40.9072 61.5435 41.4266 61.0095 41.9509C60.4658 42.4751 59.9367 43.0091 59.4222 43.5528C58.8979 44.0867 58.3785 44.6304 57.8639 45.1838C57.3591 45.7372 56.8591 46.2954 56.364 46.8585C55.8688 47.4216 55.3786 47.9896 54.8931 48.5624C54.4174 49.1352 53.9465 49.7177 53.4805 50.3099C53.0145 50.8924 52.5534 51.4847 52.0971 52.0866C51.6408 52.6788 51.1942 53.2807 50.7573 53.8924C50.3204 54.504 49.8884 55.1157 49.4612 55.7273C49.0437 56.3486 48.6311 56.9748 48.2233 57.6059C47.8156 58.237 47.4127 58.8729 47.0146 59.5136C46.6263 60.1447 46.2428 60.7855 45.8642 61.4359C45.4855 62.0864 45.1166 62.7417 44.7574 63.4019C44.3885 64.0524 44.0341 64.7126 43.6943 65.3825C43.3448 66.0523 43.005 66.7222 42.6749 67.3921C42.3545 68.062 42.0341 68.7416 41.7138 69.4309C41.4031 70.1105 41.1021 70.795 40.8109 71.4843C40.5099 72.1736 40.2186 72.8677 39.9371 73.5668C39.6653 74.2561 39.3983 74.9551 39.1361 75.6638C38.874 76.3628 38.6167 77.0667 38.3643 77.7754C38.1216 78.4842 37.8886 79.1977 37.6653 79.9162C37.4323 80.6249 37.209 81.3433 36.9954 82.0715C36.7915 82.7899 36.5925 83.5083 36.3983 84.2267C36.2042 84.9549 36.0197 85.683 35.8449 86.4112C35.6702 87.1393 35.5051 87.8723 35.3498 88.6102C35.1848 89.3383 35.0343 90.0713 34.8984 90.8092C34.7624 91.547 34.6314 92.2897 34.5052 93.0373C34.3984 93.7072 34.2964 94.3771 34.1993 95.0469C34.1023 95.7168 34.0149 96.3916 33.9372 97.0712C33.8498 97.7411 33.777 98.4158 33.7188 99.0954C33.6508 99.7653 33.5877 100.44 33.5294 101.12C33.4809 101.799 33.4324 102.479 33.3838 103.158C33.345 103.838 33.3159 104.518 33.2964 105.197C33.2673 105.877 33.2479 106.556 33.2382 107.236C33.2285 107.916 33.2236 108.59 33.2236 109.26C33.2236 109.94 33.2333 110.619 33.2528 111.299C33.2625 111.979 33.2867 112.658 33.3256 113.338C33.3547 114.017 33.3887 114.697 33.4275 115.377C33.476 116.056 33.5294 116.736 33.5877 117.415C33.646 118.085 33.7091 118.76 33.777 119.44C33.8547 120.119 33.9323 120.794 34.01 121.464C34.0974 122.134 34.1945 122.809 34.3013 123.488C34.3984 124.158 34.5052 124.828 34.6217 125.498C34.7285 126.168 34.845 126.838 34.9712 127.507C35.1071 128.168 35.243 128.833 35.3789 129.503C35.5246 130.163 35.675 130.823 35.8304 131.483C35.9857 132.153 36.1459 132.813 36.311 133.464C36.476 134.124 36.6507 134.784 36.8352 135.444C37.0197 136.095 37.209 136.745 37.4032 137.396C37.5973 138.046 37.7964 138.697 38.0002 139.347C38.2138 139.988 38.4323 140.629 38.6556 141.269C38.8789 141.92 39.107 142.561 39.34 143.192C39.573 143.832 39.8109 144.468 40.0536 145.099C40.306 145.73 40.5633 146.361 40.8254 146.993C41.0876 147.614 41.3545 148.24 41.6264 148.871C41.8982 149.493 42.1798 150.109 42.471 150.721C42.7526 151.332 43.0438 151.944 43.3448 152.556C43.6458 153.167 43.9516 153.774 44.2623 154.376C44.5729 154.988 44.8933 155.59 45.2234 156.182C47.9758 161.162 51.3252 165.72 54.6747 170.322C53.6844 170.448 52.6941 170.594 51.7039 170.759C50.6845 169.711 49.8253 168.575 48.966 167.381C49.4612 168.604 49.8107 169.74 50.0146 171.036L46.6069 171.371C46.5923 169.245 46.6506 166.492 46.1554 164.424C45.8496 163.128 40.6944 153.837 39.7769 152.395C40.6798 157.172 43.0827 162.167 41.4079 167.06C41.1458 167.832 40.7235 168.604 39.9225 168.924C39.34 169.172 38.5973 169.172 38.0439 168.881C37.0245 168.371 36.3546 167.206 35.8304 166.23C32.1605 159.429 36.9372 153.342 36.675 146.366C36.5731 143.366 34.3158 137.716 33.3401 134.556C33.2091 139.493 35.3644 144.735 32.8887 149.439C32.3353 150.488 31.2285 152.002 29.9907 152.25C29.4519 152.352 28.9276 152.119 28.5198 151.755C27.6461 150.983 27.1072 149.701 26.8305 148.594C24.9956 141.298 30.4567 135.328 31.2868 128.396C31.7965 124.231 30.646 119.178 30.3402 114.94C29.6849 119.134 29.7868 123.692 28.5635 127.755C27.981 129.736 26.6267 131.847 24.7335 132.794C24.0927 133.1 23.4811 133.202 22.8112 132.91C22.2287 132.648 21.8209 131.964 21.6025 131.41C18.6462 124.318 27.3548 116.061 29.6994 109.77C29.7383 109.683 29.7722 109.595 29.8014 109.508C30.7625 106.959 30.8499 99.5177 31.0538 96.5032C28.8839 101.527 28.3014 108.925 23.2772 112.144C22.6073 112.581 21.8501 112.828 21.0637 112.624C20.4375 112.45 19.9569 112.129 19.6511 111.547C19.3161 110.891 19.2288 109.755 19.1996 109.013C19.0249 101.644 28.6072 96.576 31.7965 90.4305C32.7285 88.6393 32.9178 85.8141 33.4275 83.819C33.9518 81.7365 34.6653 79.6832 35.3498 77.6298C32.51 82.1006 30.8208 88.7995 25.9713 91.5082C24.9228 92.0907 23.1461 92.7751 21.952 92.28C21.4569 92.0761 21.1656 91.6538 21.0345 91.1441C20.7578 90.0956 21.0345 88.8286 21.3549 87.8092C23.685 80.3094 32.277 78.1395 36.8207 72.3581C38.4663 70.2756 39.442 67.4358 40.6215 65.0329C41.4516 63.3291 42.3982 61.7126 43.403 60.1107C39.2963 63.6932 36.0925 71.8629 30.0781 72.5619C29.2625 72.6493 28.1412 72.5328 27.5004 71.9357C27.1946 71.6445 27.0636 71.2076 27.0344 70.7998C26.9616 69.7513 27.3839 68.6445 27.8063 67.7125C31.0246 60.5622 40.3157 59.9359 45.7914 55.2322C47.437 53.8196 48.6894 51.5478 50.0437 49.8585C51.5437 47.9653 53.1893 46.2178 54.7329 44.3828C49.9126 47.7469 44.7283 54.6351 38.2769 54.3584C37.5634 54.3293 36.6022 54.0671 36.1653 53.4555C35.8595 53.0332 35.743 52.5963 35.8304 52.0866C36.0197 50.9507 36.908 49.64 37.6362 48.7663C42.8788 42.4606 50.6408 43.9023 57.0047 40.8586C59.1163 39.8538 60.8784 37.8587 62.6842 36.3879C64.257 35.1063 65.8881 33.9122 67.5191 32.718C62.3784 34.2617 56.1746 39.7956 50.5388 38.4267C49.8398 38.2519 49.2282 37.8733 48.8641 37.2471C48.5437 36.6937 48.4127 36.1112 48.5729 35.485C48.8641 34.4364 49.8835 33.5335 50.7136 32.8782C55.0242 29.4268 61.1697 29.5433 66.4123 29.4414C68.1016 29.4123 69.922 29.4851 71.5384 28.9608C73.6646 28.2909 75.8927 26.4706 77.7859 25.291C79.4461 24.2716 81.1208 23.325 82.8392 22.393C77.5383 23.7619 69.9511 27.0385 64.5628 24.7085C63.893 24.4172 63.3687 23.9803 63.1211 23.2813C62.9609 22.8153 62.9464 22.3056 63.1794 21.8542C63.6745 20.8348 64.8104 20.0629 65.757 19.495C72.8637 15.2281 80.4072 20.3396 87.1498 19.8299C88.8245 19.7134 91.6643 18.2426 93.3536 17.6746C95.436 16.9756 97.5913 16.4513 99.6593 15.6795L99.8195 15.6213C94.5477 15.5776 86.1741 17.762 81.5722 14.3689C81.0043 13.9465 80.6111 13.3931 80.5383 12.6796C80.4897 12.0776 80.6645 11.5534 81.0625 11.1068C81.8052 10.2913 82.8538 9.78156 83.8732 9.40293C91.0672 6.78162 97.6496 13.0873 104.552 13.7863C106.737 14.0193 109.445 13.0728 111.644 12.7378C113.742 12.432 115.839 12.2718 117.936 12.0825C112.693 10.5971 106.256 11.6019 101.654 8.29615C100.824 7.69907 99.6884 6.7088 99.601 5.60203C99.5573 5.03408 99.7175 4.55351 100.096 4.13118C101.101 2.98072 103.14 2.60208 104.581 2.54383C109.46 2.35451 118.547 7.94665 122.188 11.1942C126.804 11.1796 131.319 11.398 135.906 11.7184C132.717 10.4514 129.324 9.72331 126.134 8.44178C123.688 7.46607 120.397 6.02435 119.363 3.40304C119.13 2.83509 118.94 2.09238 119.261 1.52443C119.741 0.679789 120.936 0.461348 121.795 0.242905Z" fill="#0E2240"/>
<path d="M161.682 61.0867C162.279 59.4265 163.051 57.4168 164.711 56.5722C165.308 56.2809 166.036 56.2081 166.662 56.4703C167.39 56.7615 167.929 57.3877 168.206 58.1159C168.672 59.3246 168.337 60.6352 167.784 61.7566C166.852 63.6643 165.25 65.2953 163.386 66.3002C163.4 67.8293 163.298 69.5186 163.604 71.0185C163.75 71.7758 164.303 72.3438 164.347 73.1156C164.376 73.5962 164.07 74.1787 163.866 74.6156C163.167 76.1155 163.691 78.7223 163.677 80.3824C165.832 80.9649 167.755 82.2319 168.876 84.2125C168.934 84.3095 168.988 84.4115 169.036 84.5183C169.094 84.6154 169.148 84.7173 169.196 84.8241C169.235 84.9212 169.279 85.0231 169.327 85.1299C169.366 85.2367 169.405 85.3435 169.444 85.4503C169.473 85.5571 169.502 85.6639 169.531 85.7707C169.56 85.8872 169.589 85.9988 169.619 86.1056C169.638 86.2124 169.657 86.3241 169.677 86.4406C169.696 86.5474 169.716 86.659 169.735 86.7755C169.745 86.892 169.754 87.0037 169.764 87.1105C169.764 87.227 169.764 87.3435 169.764 87.46C169.774 87.5668 169.774 87.6784 169.764 87.7949C169.764 87.9114 169.759 88.0231 169.75 88.1299C169.73 88.2464 169.716 88.358 169.706 88.4648C169.687 88.5813 169.667 88.693 169.648 88.7997C169.619 88.9163 169.594 89.0279 169.575 89.1347C169.546 89.2415 169.512 89.3531 169.473 89.4696C168.978 91.057 168.017 92.1346 166.75 93.154C172.386 93.387 177.264 96.3724 181.021 100.479C187.749 107.79 189.06 115.872 189.875 125.367C180.657 121.741 171.25 118.479 161.915 115.158C156.687 117.11 151.517 119.222 146.274 121.144C144.221 121.886 142.124 122.76 140.012 123.343C140.639 114.838 142.998 107.032 149.653 101.266C153.133 98.251 157.095 96.9404 161.361 95.5132C153.672 96.5326 147.498 99.6054 142.706 105.867C138.731 111.081 136.648 117.94 136.94 124.493L134.173 125.498C134.187 116.702 136.619 108.197 142.983 101.848C147.294 97.552 151.866 95.1783 157.648 93.5035C155.886 91.8434 154.473 90.0667 154.357 87.5182C154.357 87.4114 154.357 87.2998 154.357 87.1833C154.357 87.0668 154.362 86.9503 154.371 86.8338C154.371 86.727 154.381 86.6153 154.4 86.4988C154.41 86.3823 154.425 86.2707 154.444 86.1639C154.464 86.0474 154.488 85.9357 154.517 85.8289C154.536 85.7124 154.565 85.6008 154.604 85.494C154.633 85.3872 154.667 85.2755 154.706 85.159C154.735 85.0522 154.774 84.9455 154.823 84.8387C154.862 84.7319 154.905 84.6299 154.954 84.5328C155.002 84.4261 155.051 84.3241 155.099 84.227C155.158 84.1202 155.216 84.0183 155.274 83.9212C155.332 83.8241 155.391 83.727 155.449 83.6299C155.517 83.5329 155.585 83.4406 155.653 83.3532C155.721 83.2562 155.789 83.1639 155.857 83.0766C155.934 82.9892 156.012 82.9067 156.09 82.829C156.167 82.7416 156.245 82.6591 156.323 82.5814C157.662 81.2416 159.25 80.7174 161.07 80.3533C161.128 78.7077 161.114 77.033 161.347 75.4019C160.75 74.6447 160.386 73.9311 160.022 73.0428C160.444 72.3729 160.852 71.6739 161.332 71.0331C161.303 69.6787 161.318 68.3244 161.216 66.9846C152.177 70.7418 143.236 74.7272 134.391 78.9407C131.013 80.5281 125.348 82.7416 122.595 85.0571C121.954 86.892 121.401 88.2318 120.178 89.7463C119.901 101.732 121.386 114.62 122.071 126.649C122.406 132.328 122.377 137.993 122.362 143.673C122.391 148.507 122.348 153.342 122.231 158.177C127.139 157.813 128.275 158.949 132.061 161.73C133.051 161.672 134.027 161.599 135.017 161.556C135.105 157.74 135.6 142.784 134.813 139.901C134.449 138.546 133.43 137.25 132.527 136.187L153.76 129.124C156.512 128.178 159.235 127.115 162.017 126.241C171.89 129.911 182.041 132.75 192.031 136.1C190.982 137.221 190.138 138.226 189.511 139.639C189.774 142.493 189.642 145.449 189.657 148.318C189.628 154.609 189.633 160.895 189.672 167.177C192.773 167.905 195.832 168.881 198.89 169.798C192.453 169.492 186.016 168.881 179.58 168.444C174.526 168.094 169.458 167.905 164.405 167.672C150.483 167.06 136.556 166.866 122.624 167.09C113.149 167.216 103.678 167.492 94.2122 167.92L84.3095 168.444C82.6348 168.546 80.9601 168.764 79.2853 168.706C81.9358 168.225 84.6153 168.036 87.2803 167.687C89.4502 167.41 91.6055 166.958 93.7608 166.536C95.319 166.23 97.0229 165.968 98.5083 165.327C101.304 164.119 102.979 161.046 105.761 159.764C107.304 159.051 108.95 159.24 110.493 158.745C110.479 155.964 110.697 153.167 110.785 150.386L111.251 134.134L111.731 119.804C111.819 117.285 111.819 114.692 112.11 112.188C112.037 110.906 112.168 109.566 112.212 108.285C112.256 106.392 112.241 104.469 112.489 102.591C112.474 100.61 113.042 96.7074 112.197 95.0763C111.586 93.8822 111.833 90.8822 111.804 89.4405L109.765 87.8969C103.532 90.5279 97.2607 93.057 90.9501 95.4841C87.9211 96.6637 84.7901 97.6685 81.8338 99.0083L87.2366 132.255C88.0376 137.09 88.4745 142.216 89.7123 146.935C91.6929 148.42 93.9355 150.036 94.3579 152.672C94.62 154.362 94.0375 156.124 93.0181 157.478C90.2366 161.162 84.9066 162.109 80.6251 162.619C73.4456 163.478 63.6594 163.463 57.7032 158.76C56.2324 157.595 55.0091 156.065 54.7761 154.158C54.5576 152.381 55.0091 150.677 56.1304 149.279C57.4993 147.561 59.4071 146.629 61.3439 145.726C62.975 141.605 76.3291 102.227 76.2271 100.843C75.9796 100.581 76.0378 100.596 75.6592 100.494C74.6398 100.217 73.6495 99.0229 73.1835 98.12C72.9359 97.6103 72.8194 97.1879 73.0087 96.62C74.0281 95.5132 75.2805 94.9453 76.8096 94.9161C77.5523 94.9016 78.1785 95.0618 78.8921 95.2802C79.2125 95.3821 79.0669 95.353 79.4018 95.3676C81.3969 94.2026 83.2755 92.8773 85.2415 91.6541C89.7997 88.7852 94.5326 86.0765 99.5277 84.0523C100.634 83.6008 102.149 83.2222 103.081 82.4795C102.804 82.0572 102.571 81.8387 102.571 81.329C103.46 80.1494 106.867 78.999 108.309 78.7514C108.455 78.7223 108.629 78.7077 108.775 78.6931C109.358 79.1883 109.387 79.7125 109.46 80.4407C109.489 80.8096 109.518 81.1785 109.547 81.5475C110.668 81.0086 111.746 80.4552 112.794 79.7999C113.26 76.698 114.76 73.7418 117.353 71.8777C118.226 71.2515 119.377 70.7855 120.469 70.9894C121.386 71.1642 122.129 71.9214 122.581 72.6933C122.901 73.2466 123.061 73.8583 123.236 74.4699C131.741 71.9651 140.158 68.7759 148.517 65.7905C152.857 64.2323 157.459 62.9216 161.682 61.0867Z" fill="#0E2240"/>
<path d="M120.832 72.9531C121.051 73.0114 121.284 73.0696 121.473 73.1861C121.866 73.4337 122.114 73.8851 122.128 74.3366C122.157 74.9482 121.881 75.2686 121.502 75.7055C121.153 75.8511 121.342 75.8074 120.92 75.8366C120.672 74.9045 120.803 73.8997 120.832 72.9531Z" fill="#FEFEFE"/>
<path d="M112.211 108.285C112.546 108.809 112.517 109.275 112.532 109.873C112.692 109.669 112.648 108.882 112.663 108.576C112.852 108.97 112.852 109.305 112.881 109.741C112.852 111.533 112.823 113.309 112.677 115.101C112.139 114.169 112.168 113.237 112.109 112.188C112.037 110.906 112.168 109.567 112.211 108.285Z" fill="#030814"/>
<path d="M113.217 90.8672L115.212 91.1002C115.532 91.4788 116.086 92.0177 116.275 92.4691C116.464 92.906 116.406 92.9934 116.231 93.3865C115.299 93.5613 114.382 93.6195 113.435 93.6924L113.217 90.8672Z" fill="#FEFEFE"/>
<path d="M69.3822 151.23C70.1249 151.113 70.9258 151.215 71.6685 151.259C68.4793 151.739 63.2221 152.555 61.0377 155.191C60.3678 156.006 60.426 156.589 60.5571 157.579C60.659 157.958 60.7173 158.234 60.7027 158.642H60.4115C59.9455 158.118 59.6833 157.623 59.5377 156.938C59.363 156.137 59.5086 155.453 60.0037 154.798C61.7513 152.438 66.6444 151.565 69.3822 151.23Z" fill="#FEFEFE"/>
<path d="M160.357 82.0861C161.74 81.9405 163.095 82.2754 164.449 82.5376C163.007 82.5812 161.653 82.6395 160.313 83.222C159.017 83.79 157.91 84.7365 157.444 86.0909C156.92 87.5763 157.357 89.12 158.012 90.4889L159.366 92.5713C158.1 91.5956 157.036 90.5617 156.439 89.0472C156.381 88.8918 156.328 88.7316 156.279 88.5666C156.231 88.4015 156.192 88.2365 156.163 88.0714C156.134 87.9064 156.114 87.7365 156.104 87.5617C156.095 87.3967 156.09 87.2316 156.09 87.0666C156.09 86.8918 156.104 86.7219 156.134 86.5569C156.153 86.3918 156.182 86.2219 156.221 86.0472C156.26 85.8821 156.303 85.722 156.352 85.5666C156.41 85.4016 156.473 85.2462 156.541 85.1006C157.299 83.4259 158.697 82.6541 160.357 82.0861Z" fill="#FEFEFE"/>
<path d="M106.517 82.6545C107.085 82.5817 107.551 82.5817 108.119 82.669L108.236 82.8584C107.464 83.9069 99.2213 86.9651 97.5029 87.7806C93.5418 89.6301 89.6681 91.7417 85.8381 93.8242C83.1731 95.2659 80.5372 96.8241 77.7266 97.9309L76.8674 98.1639C76.5033 98.0765 76.314 98.0474 76.0664 97.7707C79.6634 97.1154 82.4741 94.7416 85.5322 92.8776C90.1487 90.0524 101.537 83.4117 106.517 82.6545Z" fill="#FEFEFE"/>
<path d="M72.7308 145.492C77.4637 145.2 83.0559 145.928 87.4247 147.851C89.4781 148.739 91.6916 150.166 92.478 152.365C93.1188 154.186 92.5363 155.598 91.7644 157.244C91.779 155.496 91.9974 154.579 90.8615 153.05C88.2111 149.453 81.818 148.826 77.7259 148.302C72.2211 148.098 64.7067 148.186 60.1777 151.87C58.5466 153.195 57.8913 154.608 57.7165 156.647C57.1486 155.7 56.6243 154.783 56.5078 153.661C56.3768 152.38 56.7554 151.215 57.5855 150.239C60.7456 146.482 68.1727 145.841 72.7308 145.492Z" fill="#FEFEFE"/>
<path d="M141.744 138.082L141.933 138.14C142.268 138.708 142.108 158.863 142.108 161.135L137.099 161.47C136.662 160.96 136.909 142.276 136.764 139.291C138.434 138.922 140.094 138.519 141.744 138.082Z" fill="#FEFEFE"/>
<path d="M113.115 104.191C113.188 101.919 112.838 97.0405 113.77 95.1474L113.916 95.1328C114.484 98.4968 114.149 102.414 114.163 105.822C114.251 113.365 114.241 120.914 114.134 128.467C114.047 138.37 114.498 148.753 114.076 158.598C112.998 158.685 111.76 158.933 110.697 158.729C111.556 154.695 111.498 147.617 111.702 143.234L112.328 126.705C112.489 122.846 112.722 118.972 112.678 115.098C112.823 113.307 112.853 111.531 112.882 109.739C113.144 107.934 113.071 106.011 113.115 104.191Z" fill="#FEFEFE"/>
<path d="M153.38 134.336C153.802 136.054 153.496 140.161 153.496 142.083L153.467 161.19L148.079 161.161C147.642 159.282 147.992 155.51 147.992 153.442L148.006 135.85C149.783 135.283 151.574 134.802 153.38 134.336Z" fill="#FEFEFE"/>
<path d="M182.652 137.512C184.39 137.958 186.118 138.449 187.837 138.983C187.905 148.235 187.91 157.487 187.851 166.739C186.133 166.244 184.41 165.773 182.681 165.327L182.652 137.512Z" fill="#FEFEFE"/>
<path d="M171.162 134.117C172.997 134.743 174.832 135.384 176.725 135.865C176.725 145.146 176.676 154.427 176.579 163.709C174.788 163.301 172.88 163.083 171.06 162.791C171.041 153.238 171.075 143.68 171.162 134.117Z" fill="#FEFEFE"/>
<path d="M161.973 132.023C162.948 131.848 164.171 132.212 165.133 132.416C165.278 135.984 165.162 139.595 165.147 143.163L165.074 161.935L163.167 161.775C161.934 161.707 160.696 161.624 159.453 161.527L159.511 132.387C160.337 132.261 161.157 132.139 161.973 132.023Z" fill="#FEFEFE"/>
<path d="M81.1206 105.152C82.0526 108.604 82.4604 112.812 83.072 116.38C84.7322 126.322 86.3147 136.278 87.8195 146.249L86.0429 145.579C83.5963 144.72 80.9604 144.21 78.3828 143.889C78.9216 140.365 78.9508 136.623 79.1983 133.055L80.5672 113.584C80.7566 110.788 80.7274 107.919 81.1206 105.152Z" fill="#FEFEFE"/>
<path d="M79.6058 99.6328L79.7369 99.7639C80.2029 102.327 79.3 109.521 79.0816 112.637C78.3534 123.016 77.5719 133.389 76.7369 143.758C72.4118 143.423 68.1594 143.962 63.9653 144.967L63.8343 144.952C63.4993 144.079 64.7372 140.933 65.0721 139.928L73.4749 115.288L76.7952 105.356C77.334 103.769 77.8146 102.036 78.499 100.521C78.7175 100.055 79.1689 99.8513 79.6058 99.6328Z" fill="#FEFEFE"/>
</svg>
