<svg width="257" height="222" viewBox="0 0 257 222" fill="none" xmlns="http://www.w3.org/2000/svg">
<path d="M168.643 60.8784C168.643 63.1385 166.755 64.9997 164.495 64.9997H92.7045C90.4445 64.9997 88.5566 63.1385 88.5566 60.8784C88.5566 58.5917 90.4445 56.7305 92.7045 56.7305H164.495C166.755 56.7305 168.643 58.5917 168.643 60.8784Z" fill="#B8882B"/>
<path d="M145.165 87.8672C147.425 87.8672 149.286 89.7284 149.286 92.0151V196.909C149.286 199.196 147.425 201.057 145.165 201.057C142.878 201.057 141.017 199.196 141.017 196.909V92.0151C141.017 89.7284 142.878 87.8672 145.165 87.8672Z" fill="#B8882B"/>
<path d="M161.703 87.8672C163.99 87.8672 165.851 89.7284 165.851 92.0151V162.981C165.851 165.242 163.99 167.103 161.703 167.103C159.443 167.103 157.582 165.242 157.582 162.981V92.0151C157.582 89.7284 159.443 87.8672 161.703 87.8672Z" fill="#B8882B"/>
<path d="M88.5566 77.4455C88.5566 79.7322 90.4445 81.5934 92.7045 81.5934H128.6H164.495C166.755 81.5934 168.643 79.7322 168.643 77.4455C168.643 75.1855 166.755 73.3242 164.495 73.3242H128.6H92.7045C90.4445 73.3242 88.5566 75.1855 88.5566 77.4455Z" fill="#B8882B"/>
<path d="M112.034 87.8672C109.774 87.8672 107.913 89.7284 107.913 92.0151V196.909C107.913 199.196 109.774 201.057 112.034 201.057C114.321 201.057 116.182 199.196 116.182 196.909V92.0151C116.182 89.7284 114.321 87.8672 112.034 87.8672Z" fill="#B8882B"/>
<path d="M95.4965 87.8672C93.2099 87.8672 91.3486 89.7284 91.3486 92.0151V162.981C91.3486 165.242 93.2099 167.103 95.4965 167.103C97.7566 167.103 99.6178 165.242 99.6178 162.981V92.0151C99.6178 89.7284 97.7566 87.8672 95.4965 87.8672Z" fill="#B8882B"/>
<path d="M128.599 87.8672C130.886 87.8672 132.747 89.7284 132.747 92.0151V217.595C132.747 219.882 130.886 221.743 128.599 221.743C126.312 221.743 124.451 219.882 124.451 217.595V92.0151C124.451 89.7284 126.312 87.8672 128.599 87.8672Z" fill="#B8882B"/>
<path fill-rule="evenodd" clip-rule="evenodd" d="M39.9249 53.3278L73.374 142.96H75.6075L65.158 157.637H10.8098L0.599609 142.96H3.31172L35.2187 53.5139C31.2037 53.6203 26.9228 53.5671 22.1634 53.3278C20.6744 53.9659 18.9195 53.5671 17.8825 52.2908C16.819 51.0411 16.7392 49.2596 17.6432 47.9036C18.5473 46.5476 20.2224 45.936 21.7912 46.4146C23.3599 46.8932 24.4235 48.329 24.3969 49.9776C36.0961 49.9244 50.7999 49.1267 61.728 44.7927C90.9228 33.1998 109.775 27.4034 128.6 27.4034C147.425 27.4034 166.276 33.1998 195.471 44.7927C206.399 49.1267 221.103 49.9244 232.802 49.9776C232.776 48.329 233.839 46.8932 235.408 46.4146C236.977 45.936 238.652 46.5476 239.556 47.9036C240.46 49.2596 240.38 51.0411 239.317 52.2908C238.28 53.5671 236.525 53.9659 235.036 53.3278C230.276 53.5671 225.996 53.6203 221.981 53.5139L253.887 142.96H256.6L246.389 157.637H192.041L181.592 142.96H183.825L217.274 53.3278C203.687 52.5567 192.892 49.9776 177.258 46.7071C170.797 45.351 164.229 44.8724 157.662 44.58C146.733 44.1014 142.32 46.7603 135.566 47.4782C131.418 47.7707 125.781 47.7707 121.633 47.4782C114.88 46.7603 110.466 44.1014 99.5377 44.58C92.9702 44.8724 86.4027 45.351 79.9415 46.7071C64.3071 49.9776 53.512 52.5567 39.9249 53.3278ZM134.104 37.3743C134.104 34.3166 131.631 31.8438 128.6 31.8438C125.568 31.8438 123.096 34.3166 123.096 37.3743C123.096 40.4055 125.568 42.8783 128.6 42.8783C131.631 42.8783 134.104 40.4055 134.104 37.3743ZM138.384 10.3598C138.384 14.9331 135.247 18.7619 131.019 19.8521H134.609C136.098 19.8521 137.321 21.0752 137.321 22.5642C137.321 24.0798 136.098 25.3029 134.609 25.3029H122.59C121.101 25.3029 119.878 24.0798 119.878 22.5642C119.878 21.0752 121.101 19.8521 122.59 19.8521H126.18C121.952 18.7619 118.815 14.9331 118.815 10.3598C118.815 4.96218 123.202 0.601562 128.6 0.601562C133.997 0.601562 138.384 4.96218 138.384 10.3598ZM186.245 142.96H217.966V57.9809L186.245 142.96ZM220.226 142.96H251.468L220.226 55.3486V142.96ZM39.2336 142.96H70.9278L39.2336 57.9809V142.96ZM5.70474 142.96H36.9469V55.3486L5.70474 142.96Z" fill="#B8882B"/>
</svg>
