<svg width="257" height="252" viewBox="0 0 257 252" fill="none" xmlns="http://www.w3.org/2000/svg">
<path d="M119.77 230.381C115.109 228.729 109.909 227.251 104.17 226.172C104.343 223.303 104.17 218.242 101.822 212.572C98.9174 205.581 90.1522 202.572 90.1522 202.572C90.1522 202.572 88.0304 212.659 92.1696 219.32C93.4043 221.338 95.7174 223.303 97.9609 224.92C94.013 223.894 89.9609 222.503 85.8913 220.746C86.5696 218.172 87.4739 212.972 86.0652 206.677C84.4652 199.442 76.5174 195.042 76.5174 195.042C76.5174 195.042 72.7435 204.416 75.5956 211.546C76.5174 213.825 78.5696 216.277 80.5696 218.277C76.6739 216.329 72.813 214.068 69.0043 211.529C70.1 209.111 71.7869 204.311 71.5087 198.12C71.1783 190.868 64.2565 185.268 64.2565 185.268C64.2565 185.268 59.0217 193.685 60.5696 201.042C61.0391 203.251 62.4304 205.755 63.9087 207.929C60.5 205.372 57.1783 202.59 53.9783 199.581C55.4391 197.425 57.8913 193.094 58.6739 187.059C59.5956 179.998 53.8739 173.425 53.8739 173.425C53.8739 173.425 47.387 180.659 47.6304 188.016C47.7 190.277 48.6739 193.025 49.7522 195.425C46.7261 192.259 43.8565 188.903 41.1609 185.355C42.9348 183.581 46.1174 179.755 47.9435 173.964C50.0304 167.303 45.613 159.981 45.613 159.981C45.613 159.981 38.1348 165.859 37.1087 173.007C36.7783 175.355 37.3348 178.416 38.0478 181.042C35.4913 177.303 33.1609 173.372 31.0739 169.268C33.0217 167.946 36.9348 164.764 39.787 159.268C42.9348 153.198 39.9261 145.372 39.9261 145.372C39.9261 145.372 31.7 149.772 29.5087 156.503C28.7087 158.938 28.813 162.381 29.1087 165.181C27.1609 160.851 25.4739 156.329 24.1522 151.633C26.2391 150.694 30.587 148.294 34.2913 143.459C38.3609 138.138 36.7957 130.068 36.7957 130.068C36.7957 130.068 28.1 132.92 24.8478 139.042C23.6826 141.198 23.1956 144.468 22.987 147.198C21.7348 142.503 20.8478 137.79 20.2913 133.059C22.3956 132.555 27.1435 131.007 31.6652 126.851C36.5 122.398 36.3609 114.364 36.3609 114.364C36.3609 114.364 27.4913 115.633 23.3 120.972C21.6478 123.077 20.5696 126.59 19.9261 129.32C19.5261 124.051 19.5261 118.816 19.9087 113.633C21.9956 113.494 26.8478 112.816 31.9435 109.564C37.3696 106.103 38.6043 98.3115 38.6043 98.3115C38.6043 98.3115 29.8217 98.0158 24.8652 102.468C22.9522 104.19 21.3174 107.355 20.2391 109.894C20.813 104.572 21.7522 99.3376 23.0391 94.2593C25.1087 94.4854 29.8739 94.6419 35.3 92.3811C41.1261 89.9637 43.6478 82.6593 43.6478 82.6593C43.6478 82.6593 35.213 80.8854 29.6826 84.3289C27.5609 85.6506 25.4913 88.3637 24.013 90.5897C25.4913 85.4593 27.3 80.5028 29.3696 75.7897C31.2304 76.3463 35.9087 77.4071 41.7 76.1028C47.7348 74.7637 51.4043 68.1376 51.4043 68.1376C51.4043 68.1376 43.5783 64.9897 37.6478 67.3723C35.1783 68.3637 32.4826 70.955 30.6565 72.955C33.0565 67.8593 35.7696 63.0767 38.7261 58.6593C40.1174 59.3897 44.6565 61.5289 50.9348 61.2506C56.987 60.9723 61.6478 55.2158 61.6478 55.2158C61.6478 55.2158 54.6391 50.8506 48.5 52.1376C45.4913 52.7637 41.7696 55.5289 39.7522 57.1636C43.2652 52.1202 47.0913 47.5984 51.1087 43.7376C52.2217 44.6245 56.2913 47.5636 62.5 48.381C68.3956 49.1463 73.8913 44.381 73.8913 44.381C73.8913 44.381 67.8565 38.9723 61.7174 39.1636C58.6739 39.268 54.5696 41.3202 52.3609 42.555C52.6855 42.2535 53.0159 41.9579 53.3522 41.668C57.613 37.6854 61.8391 34.3115 65.8913 31.4245C66.8478 32.5028 70.2739 35.981 76.0826 37.8071C81.6304 39.5637 87.7522 35.8767 87.7522 35.8767C87.7522 35.8767 82.8478 29.6506 76.8826 28.7984C73.9087 28.3637 69.5609 29.668 67.2304 30.4854C72.6391 26.7637 77.7348 23.9289 82.1696 21.7897C82.6913 22.6767 85.4043 26.955 91.0391 29.8767C96.1 32.5028 102.622 29.9984 102.622 29.9984C102.622 29.9984 98.9522 23.1463 93.3522 21.3028C90.1522 20.2593 84.8478 21.0941 82.8652 21.4593C87.0739 19.4593 90.6565 18.0854 93.3522 17.1463C94.1696 17.581 98.4478 19.6332 102.291 18.3289C107.63 16.4854 110.274 12.8854 110.274 12.8854C110.274 12.8854 104.761 10.781 101.474 11.3376C97.613 11.9984 94.413 15.581 93.4739 16.7115C91.4217 17.355 88.813 18.2419 85.787 19.4767C87.8217 18.0332 90.9869 15.5289 92.2739 13.0941C95.0391 7.89409 92.9174 0.398438 92.9174 0.398438C92.9174 0.398438 86.4826 3.12887 84.6565 8.53757C82.7609 14.1897 83.5435 18.9028 83.8391 20.2941C79.5956 22.1202 74.6391 24.6071 69.3 27.9463C71.0913 26.1028 73.5435 23.2332 74.3609 20.7289C76.2043 15.0071 72.7435 7.8593 72.7435 7.8593C72.7435 7.8593 66.7609 11.7376 65.8913 17.4941C65.0043 23.355 66.5174 27.8767 67.1087 29.3376C63.0217 32.0332 58.7261 35.2332 54.3609 39.0419C55.7522 36.9028 57.4043 33.9463 57.7522 31.5289C58.587 25.4419 53.8565 18.868 53.8565 18.868C53.8565 18.868 48.5174 23.8245 48.6739 29.755C48.813 35.5289 50.9348 39.6854 51.8565 41.2506C48.2913 44.381 44.8304 48.0332 41.5609 52.1202C42.4304 49.8941 43.2304 47.2506 43.1609 45.1636C42.9174 38.8854 36.987 33.1289 36.987 33.1289C36.987 33.1289 32.5174 39.0593 33.7174 44.9897C34.8304 50.5202 37.5087 54.2245 38.7957 55.7723C35.8391 59.8767 33.0739 64.3463 30.5696 69.0941C31.1087 66.6245 31.5261 63.5637 31.0391 61.3202C29.6826 55.0593 22.7087 50.3115 22.7087 50.3115C22.7087 50.3115 19.2652 57.0593 21.5261 62.8158C23.6826 68.3463 27.1783 71.6332 28.6913 72.868C26.4652 77.5115 24.5174 82.3984 22.8652 87.4593C22.9696 84.8506 22.8652 81.6158 21.9609 79.4071C19.5087 73.355 11.6478 69.8419 11.6478 69.8419C11.6478 69.8419 9.38696 77.2158 12.6739 82.6071C15.8391 87.7897 19.9261 90.468 21.6478 91.4419C20.2913 96.1897 19.2304 101.094 18.4652 106.085C18.0826 103.598 17.4217 100.764 16.2391 98.8854C12.7087 93.2506 4.18696 91.0941 4.18696 91.0941C4.18696 91.0941 3.21304 98.9202 7.47391 103.755C11.4217 108.225 15.8217 110.225 17.8391 110.955C17.3522 115.598 17.1609 120.311 17.2652 125.077C16.4652 122.816 15.3696 120.433 13.9956 118.903C9.42173 113.859 0.5 113.198 0.5 113.198C0.5 113.198 0.900004 121.233 6.04783 125.338C10.6739 129.042 15.3348 130.294 17.5609 130.711C17.9261 135.251 18.587 139.807 19.5783 144.346C18.3609 142.19 16.813 139.911 15.1261 138.607C9.64782 134.346 0.552172 135.268 0.552172 135.268C0.552172 135.268 2.39565 143.268 8.27391 146.485C13.6652 149.425 18.6391 149.825 20.9174 149.842C21.9609 154.172 23.3 158.381 24.9 162.433C23.3348 160.59 21.4913 158.746 19.6652 157.79C13.4043 154.485 4.43043 157.025 4.43043 157.025C4.43043 157.025 7.7 164.746 14.187 166.92C19.9783 168.868 24.9348 168.468 27.3 168.085C29.213 172.225 31.387 176.207 33.787 179.998C31.8391 178.346 29.5435 176.729 27.4565 176.051C20.5696 173.825 12.013 177.981 12.013 177.981C12.013 177.981 16.6565 185.146 23.5609 186.19C29.8565 187.146 34.8652 185.79 37.1087 184.99C39.787 188.781 42.6913 192.381 45.7522 195.772C43.4565 194.416 40.7609 193.094 38.4652 192.781C31.1609 191.772 23.2826 197.459 23.2826 197.459C23.2826 197.459 29.2304 203.842 36.3435 203.668C42.9174 203.511 47.7174 201.216 49.8043 200.016C53.0739 203.303 56.5 206.346 60.013 209.164C57.4739 208.207 54.5522 207.372 52.2043 207.459C44.6913 207.738 37.787 214.851 37.787 214.851C37.787 214.851 44.8826 220.207 52.013 218.781C58.5 217.459 62.9 214.364 64.813 212.781C68.3609 215.32 71.9783 217.616 75.6304 219.633C73.1261 219.233 70.4304 219.025 68.3261 219.477C60.8304 221.077 55.1435 229.442 55.1435 229.442C55.1435 229.442 63.2304 233.581 70.1348 230.868C76.2043 228.503 80.013 224.798 81.7522 222.798C85.6652 224.659 89.5957 226.225 93.4391 227.459C90.9 227.494 88.2391 227.772 86.2565 228.572C79.0043 231.529 74.7783 240.938 74.7783 240.938C74.7783 240.938 83.6304 243.651 90.1 239.703C95.9782 236.12 99.1783 231.529 100.483 229.285C131.874 234.92 145.335 251.32 145.335 251.32L149.352 247.738C149.352 247.738 141.126 237.964 119.77 230.381Z" fill="#102D56"/>
<path d="M248.708 146.485C254.604 143.268 256.447 135.268 256.447 135.268C256.447 135.268 247.352 134.346 241.874 138.607C240.187 139.911 238.639 142.172 237.421 144.329C238.413 139.79 239.074 135.251 239.439 130.711C241.682 130.294 246.326 129.042 250.952 125.338C256.082 121.233 256.5 113.198 256.5 113.198C256.5 113.198 247.561 113.859 243.004 118.903C241.63 120.416 240.534 122.798 239.734 125.042C239.839 120.311 239.647 115.598 239.161 110.955C241.178 110.225 245.578 108.225 249.526 103.755C253.769 98.9202 252.813 91.0941 252.813 91.0941C252.813 91.0941 244.291 93.2506 240.76 98.8854C239.578 100.746 238.9 103.581 238.517 106.068C237.769 101.077 236.691 96.1897 235.352 91.4419C237.074 90.468 241.161 87.7723 244.308 82.6071C247.613 77.2158 245.334 69.8419 245.334 69.8419C245.334 69.8419 237.491 73.355 235.039 79.4071C234.134 81.6158 234.03 84.8332 234.117 87.4419C232.482 82.381 230.534 77.4941 228.308 72.868C229.821 71.6332 233.317 68.3463 235.474 62.8158C237.717 57.0593 234.274 50.3115 234.274 50.3115C234.274 50.3115 227.3 55.0593 225.961 61.3202C225.474 63.5463 225.891 66.6071 226.43 69.0941C223.926 64.3289 221.161 59.8593 218.204 55.7723C219.491 54.2245 222.169 50.5202 223.282 44.9897C224.465 39.0593 219.995 33.1289 219.995 33.1289C219.995 33.1289 214.065 38.8854 213.839 45.1636C213.769 47.2506 214.552 49.8941 215.421 52.1028C212.169 48.0158 208.708 44.381 205.143 41.2332C206.065 39.668 208.187 35.5289 208.326 29.755C208.482 23.8245 203.143 18.868 203.143 18.868C203.143 18.868 198.413 25.4419 199.247 31.5289C199.578 33.9289 201.23 36.8854 202.621 39.0245C198.274 35.2332 193.978 32.0332 189.891 29.3376C190.465 27.8767 191.995 23.355 191.108 17.4941C190.221 11.7376 184.239 7.8593 184.239 7.8593C184.239 7.8593 180.795 15.0071 182.639 20.7289C183.439 23.2332 185.891 26.0854 187.682 27.9289C182.343 24.5897 177.404 22.1202 173.161 20.2767C173.456 18.8854 174.239 14.1897 172.326 8.53757C170.517 3.12887 164.082 0.398438 164.082 0.398438C164.082 0.398438 161.961 7.89409 164.726 13.0941C165.995 15.5289 169.161 18.0158 171.195 19.4593C168.169 18.2419 165.561 17.355 163.508 16.7115C162.569 15.581 159.369 11.9984 155.526 11.3376C152.239 10.781 146.726 12.8854 146.726 12.8854C146.726 12.8854 149.369 16.4854 154.708 18.3289C158.552 19.6506 162.83 17.5637 163.647 17.1463C166.343 18.0854 169.926 19.4593 174.152 21.4593C172.169 21.0941 166.865 20.2593 163.647 21.3028C158.047 23.1463 154.36 29.9984 154.36 29.9984C154.36 29.9984 160.9 32.5028 165.961 29.8767C171.595 26.955 174.308 22.6767 174.83 21.7897C179.265 23.9289 184.361 26.7637 189.787 30.5028C187.456 29.6854 183.091 28.3637 180.117 28.7984C174.152 29.6506 169.247 35.8767 169.247 35.8767C169.247 35.8767 175.352 39.5637 180.9 37.8071C186.726 35.981 190.152 32.5028 191.108 31.4245C195.161 34.3115 199.387 37.6854 203.665 41.668C203.989 41.9695 204.32 42.2709 204.656 42.5724C202.447 41.3376 198.326 39.268 195.282 39.1636C189.143 38.9723 183.108 44.381 183.108 44.381C183.108 44.381 188.587 49.1463 194.482 48.381C200.726 47.5636 204.795 44.6245 205.891 43.7376C209.908 47.5984 213.752 52.1202 217.265 57.181C215.247 55.5289 211.526 52.7637 208.5 52.1376C202.361 50.8506 195.334 55.2158 195.334 55.2158C195.334 55.2158 200.013 60.9723 206.065 61.2506C212.343 61.5289 216.9 59.3897 218.274 58.6593C221.23 63.0767 223.943 67.8767 226.36 72.9723C224.534 70.9723 221.821 68.381 219.352 67.3723C213.421 64.9897 205.595 68.1376 205.595 68.1376C205.595 68.1376 209.247 74.7637 215.3 76.1028C221.091 77.4071 225.769 76.3463 227.63 75.7723C229.717 80.5202 231.526 85.4767 232.987 90.6071C231.526 88.381 229.439 85.6506 227.317 84.3289C221.769 80.8854 213.352 82.6593 213.352 82.6593C213.352 82.6593 215.856 89.9637 221.7 92.3811C227.126 94.6419 231.908 94.4854 233.978 94.2593C235.247 99.355 236.204 104.59 236.761 109.911C235.682 107.39 234.047 104.207 232.117 102.468C227.161 98.0158 218.395 98.3115 218.395 98.3115C218.395 98.3115 219.613 106.103 225.056 109.564C230.152 112.816 235.004 113.494 237.108 113.633C237.474 118.816 237.474 124.068 237.074 129.338C236.43 126.607 235.352 123.077 233.7 120.972C229.508 115.633 220.639 114.364 220.639 114.364C220.639 114.364 220.5 122.398 225.334 126.851C229.856 131.007 234.604 132.555 236.708 133.059C236.152 137.79 235.265 142.52 233.995 147.216C233.804 144.485 233.317 141.216 232.152 139.042C228.882 132.92 220.204 130.068 220.204 130.068C220.204 130.068 218.621 138.138 222.708 143.459C226.413 148.294 230.761 150.694 232.847 151.633C231.526 156.329 229.839 160.868 227.874 165.216C228.187 162.398 228.291 158.938 227.491 156.503C225.282 149.772 217.056 145.372 217.056 145.372C217.056 145.372 214.065 153.198 217.213 159.268C220.065 164.781 223.978 167.946 225.926 169.268C223.839 173.39 221.508 177.32 218.934 181.059C219.647 178.433 220.221 175.372 219.874 173.007C218.865 165.859 211.369 159.981 211.369 159.981C211.369 159.981 206.969 167.303 209.056 173.964C210.882 179.772 214.065 183.581 215.839 185.355C213.143 188.92 210.256 192.277 207.23 195.425C208.308 193.042 209.3 190.277 209.369 188.016C209.595 180.659 203.126 173.425 203.126 173.425C203.126 173.425 197.404 179.998 198.326 187.059C199.108 193.094 201.561 197.442 203.021 199.581C199.821 202.59 196.5 205.39 193.074 207.946C194.552 205.772 195.961 203.251 196.413 201.042C197.961 193.685 192.726 185.268 192.726 185.268C192.726 185.268 185.821 190.868 185.491 198.12C185.213 204.311 186.9 209.111 187.995 211.529C184.187 214.085 180.308 216.329 176.43 218.277C178.413 216.277 180.482 213.825 181.387 211.546C184.239 204.416 180.482 195.042 180.482 195.042C180.482 195.042 172.534 199.442 170.917 206.677C169.526 212.972 170.43 218.172 171.108 220.746C167.039 222.503 162.987 223.894 159.039 224.92C161.282 223.32 163.578 221.338 164.83 219.32C168.969 212.659 166.847 202.572 166.847 202.572C166.847 202.572 158.082 205.581 155.178 212.572C152.813 218.242 152.656 223.303 152.83 226.172C147.091 227.251 141.891 228.729 137.23 230.381C115.874 237.964 107.647 247.738 107.647 247.738L111.665 251.32C111.665 251.32 125.126 234.92 156.5 229.285C157.821 231.529 161.021 236.12 166.9 239.703C173.352 243.651 182.221 240.938 182.221 240.938C182.221 240.938 177.995 231.529 170.743 228.572C168.761 227.772 166.1 227.494 163.561 227.459C167.404 226.225 171.317 224.677 175.247 222.816C176.987 224.798 180.795 228.503 186.847 230.868C193.769 233.581 201.856 229.442 201.856 229.442C201.856 229.442 196.169 221.077 188.674 219.477C186.569 219.025 183.874 219.233 181.369 219.633C185.021 217.616 188.639 215.32 192.187 212.781C194.1 214.364 198.5 217.459 204.987 218.781C212.1 220.207 219.213 214.851 219.213 214.851C219.213 214.851 212.308 207.738 204.795 207.459C202.447 207.372 199.526 208.207 196.987 209.146C200.5 206.346 203.926 203.303 207.195 200.033C209.282 201.216 214.1 203.511 220.639 203.668C227.769 203.842 233.717 197.459 233.717 197.459C233.717 197.459 225.839 191.772 218.534 192.781C216.239 193.094 213.543 194.398 211.247 195.772C214.308 192.381 217.213 188.781 219.891 184.99C222.134 185.79 227.126 187.146 233.439 186.19C240.343 185.146 244.987 177.981 244.987 177.981C244.987 177.981 236.413 173.825 229.543 176.051C227.456 176.711 225.178 178.346 223.23 179.998C225.613 176.19 227.787 172.225 229.7 168.085C232.065 168.468 237.021 168.868 242.813 166.92C249.3 164.746 252.569 157.025 252.569 157.025C252.569 157.025 243.595 154.485 237.334 157.79C235.508 158.746 233.665 160.59 232.117 162.433C233.7 158.364 235.039 154.172 236.082 149.842C238.378 149.825 243.334 149.425 248.708 146.485Z" fill="#102D56"/>
<path d="M139.631 15.9639C140.17 15.4422 139.874 14.5378 139.126 14.4334L132.552 13.4769C132.257 13.4248 131.996 13.2508 131.857 12.9726L128.918 7.00737C128.587 6.3465 127.631 6.3465 127.3 7.00737L124.344 12.9726C124.222 13.2508 123.961 13.4248 123.665 13.4769L117.092 14.4334C116.344 14.5378 116.048 15.4422 116.587 15.9639L121.352 20.6074C121.561 20.8161 121.665 21.1291 121.613 21.4074L120.483 27.9639C120.361 28.7117 121.126 29.2682 121.805 28.9204L127.683 25.8248C127.944 25.6856 128.257 25.6856 128.535 25.8248L134.413 28.9204C135.074 29.2682 135.857 28.7117 135.735 27.9639L134.605 21.4074C134.552 21.1291 134.657 20.8161 134.865 20.6074L139.631 15.9639Z" fill="#102D56"/>
<path d="M184.866 84.9194C187.77 84.4846 190.657 83.8933 193.474 83.0933C194.9 82.6933 196.379 82.3803 197.874 81.6672C195.735 81.3542 193.735 81.4237 191.735 81.3194C185.839 81.0237 179.996 80.4498 174.292 78.8846C172.506 78.3976 170.721 77.9339 168.935 77.4933C165.196 76.5542 161.422 75.8063 157.561 75.6846C154.883 75.5976 152.239 75.702 149.579 76.1194C147.039 76.5368 144.605 77.1976 142.222 78.0846C138.796 79.3368 135.752 81.2498 132.9 83.4933C132.257 84.015 131.544 84.502 131.074 85.302C133.787 88.6411 135.874 92.3107 137.648 96.3455C138.952 94.7455 140.17 93.4064 141.544 92.2064C146.674 87.7542 152.761 85.7368 159.439 85.3194C163.231 85.0933 167.022 85.1976 170.813 85.4933C175.509 85.8759 180.205 85.6324 184.866 84.9194Z" fill="#102D56"/>
<path d="M125.978 168.939C125.404 166.173 124.952 163.408 124.656 160.608C124.43 158.556 124.291 156.504 124.187 154.434C124.059 152.011 124.036 149.588 124.117 147.165C124.239 143.217 124.535 139.286 125.004 135.373C125.282 132.991 125.63 130.626 125.978 128.26C126.135 127.147 126.569 126.052 126.239 124.852C125.839 123.339 125.595 121.773 125.248 120.243C124.187 115.565 122.813 110.991 120.952 106.573C120.535 105.617 120.169 104.608 119.491 103.582C119.335 103.965 119.23 104.173 119.126 104.399C118.448 105.982 118.1 107.686 117.665 109.356C116.152 114.904 115.404 120.591 115.178 126.312C115.039 129.947 115.039 133.582 115.282 137.234C115.456 139.669 115.63 142.121 115.943 144.556C116.465 148.591 117.265 152.556 118.43 156.452C119.23 159.13 120.135 161.756 121.248 164.312C122.5 167.165 123.926 169.947 125.561 172.608C126.082 173.478 126.604 174.365 127.282 175.252C127.404 174.852 127.335 174.573 127.248 174.33C126.691 172.556 126.361 170.747 125.978 168.939Z" fill="#102D56"/>
<path d="M140.239 116.432C139.979 114.415 139.544 112.398 139.039 110.415C138.309 107.545 137.544 104.711 136.361 101.998C136.152 101.372 135.979 100.745 135.596 100.189C134.883 98.1541 133.839 96.2759 132.709 94.4324C132.686 94.386 132.663 94.3512 132.639 94.328C132.361 93.7541 132.065 93.1976 131.648 92.7281C131.318 92.1194 130.935 91.5454 130.483 91.0411C130.239 90.502 129.857 90.0672 129.474 89.6498C129.451 89.615 129.422 89.586 129.387 89.5628C128.987 88.9367 128.5 88.3976 127.996 87.8585C127.961 87.8121 127.926 87.7715 127.892 87.7367C127.579 87.4063 127.352 87.0063 126.935 86.7802C126.889 86.7338 126.842 86.6875 126.796 86.6411C126.819 86.6063 126.808 86.5831 126.761 86.5715C126.726 86.5136 126.692 86.4672 126.657 86.4324C126.17 85.7889 125.544 85.2672 124.918 84.7628C124.767 84.6237 124.616 84.4846 124.466 84.3454C124.118 83.8585 123.561 83.6324 123.126 83.2672C122.837 83.0237 122.547 82.7802 122.257 82.5367C121.683 82.1367 121.179 81.6498 120.518 81.4063C119.439 80.5541 118.239 79.9107 116.97 79.4063C116.605 79.0759 116.152 78.902 115.7 78.7454C115.248 78.4672 114.779 78.2759 114.274 78.1367C113.439 77.8063 112.622 77.3715 111.683 77.4411C111.596 77.0585 111.318 77.0585 111.022 77.0759L110.952 77.0411C107.944 76.0846 104.848 75.7194 101.718 75.6324C97.9785 75.5107 94.2916 75.9802 90.6568 76.7628C89.1438 77.0759 87.6133 77.3193 86.1698 77.9107C86.1351 77.9222 86.1061 77.9454 86.0829 77.9802C85.7698 77.928 85.4916 78.015 85.1959 78.0846C83.8742 78.4324 82.5351 78.728 81.2133 79.1107C80.3438 79.3715 79.3872 79.3889 78.5698 79.8237C78.4133 80.015 78.2046 80.0324 77.9785 79.9628C77.909 79.8237 77.8046 79.8759 77.6829 79.8933C76.3148 80.1483 74.9409 80.3628 73.5611 80.5367C71.4916 80.815 69.4046 81.0063 67.3177 81.1454C64.8481 81.302 62.3611 81.5454 59.8742 81.4759C59.3698 81.4759 58.8481 81.5107 58.3438 81.5281C58.7437 81.9281 59.2133 81.7541 59.509 81.8411C60.7611 82.6063 62.0307 82.9367 63.3351 83.1454L63.3872 83.1976C64.3959 83.4759 65.3872 83.8063 66.4307 83.8933L66.5003 83.9107C67.5611 84.2759 68.6916 84.415 69.8046 84.6237C70.7438 84.7802 71.6655 85.0759 72.6394 84.9194C73.4394 85.0933 74.2568 85.128 75.0742 85.1976C75.3524 85.5107 75.7351 85.4585 76.0829 85.4933C79.1785 85.7367 82.2916 85.7193 85.4046 85.4759C85.4974 85.4759 85.5843 85.4701 85.6655 85.4585C87.4568 85.3889 89.2307 85.3367 91.0046 85.2324C93.9438 85.0759 96.8655 85.2498 99.7699 85.615C102.187 85.9107 104.535 86.5889 106.848 87.3541C106.871 87.3773 106.9 87.3947 106.935 87.4063C108.744 88.1367 110.431 89.0933 112.1 90.0498C112.147 90.0846 112.193 90.1194 112.239 90.1541C112.605 90.4846 113.005 90.7802 113.457 90.9889C113.526 91.0469 113.59 91.1049 113.648 91.1628C113.735 91.3368 113.874 91.4063 114.031 91.4759L114.1 91.5107C114.379 91.7541 114.663 92.0034 114.952 92.2585C115.01 92.3164 115.068 92.3686 115.126 92.415C115.3 92.6585 115.492 92.8498 115.752 92.9715C115.787 93.0179 115.822 93.0527 115.857 93.0759C115.868 93.1339 115.903 93.157 115.961 93.1454C115.984 93.1802 116.013 93.2092 116.048 93.2324C116.187 93.3831 116.326 93.5339 116.466 93.6846C116.5 93.731 116.541 93.7715 116.587 93.8063C116.587 93.8527 116.61 93.8759 116.657 93.8759C116.692 93.9223 116.726 93.957 116.761 93.9802C117.005 94.3628 117.335 94.6759 117.665 94.9889C117.723 95.0469 117.787 95.1107 117.857 95.1802C118.031 95.4237 118.152 95.702 118.413 95.8933C118.471 95.9512 118.523 96.0092 118.57 96.0672C118.616 96.1251 118.657 96.1773 118.692 96.2237C118.715 96.2701 118.744 96.3049 118.779 96.328C118.779 96.386 118.802 96.415 118.848 96.415C118.883 96.4614 118.918 96.502 118.952 96.5367C119.039 96.7976 119.231 96.9715 119.422 97.1454C119.445 97.1802 119.468 97.2092 119.492 97.2324C120.396 98.6469 121.294 100.067 122.187 101.493C122.199 101.54 122.216 101.58 122.239 101.615C122.645 102.392 123.051 103.169 123.457 103.945C123.561 104.415 123.839 104.832 124.031 105.267C127.457 112.989 129.335 121.128 130.605 129.441C131.005 131.98 131.3 134.519 131.579 137.076C131.892 139.998 132.1 142.919 132.239 145.858C132.379 148.693 132.326 151.545 132.239 154.398C132.205 155.615 132.152 156.815 132.031 158.015C131.77 160.241 131.561 162.467 131.179 164.658C130.831 166.832 130.448 169.006 129.961 171.145C129.648 172.554 129.3 173.945 128.97 175.337C129.735 174.363 130.483 173.406 131.022 172.293C131.045 172.27 131.068 172.241 131.092 172.206C131.387 171.858 131.579 171.458 131.752 171.058C131.787 171.012 131.816 170.966 131.839 170.919C132.048 170.676 132.187 170.398 132.274 170.102C132.309 170.079 132.332 170.044 132.344 169.998C132.576 169.696 132.755 169.36 132.883 168.989C132.929 168.885 132.981 168.786 133.039 168.693C133.283 168.363 133.492 168.015 133.579 167.598C133.613 167.551 133.654 167.499 133.7 167.441C135.092 164.589 136.379 161.685 137.231 158.624C137.665 157.58 138.031 156.537 138.17 155.424C138.761 154.258 138.918 152.972 139.213 151.719C139.457 150.624 139.857 149.563 139.752 148.432C139.776 148.398 139.805 148.363 139.839 148.328C139.961 147.563 140.274 146.85 140.1 146.067C140.147 146.032 140.181 145.992 140.205 145.945C140.518 145.093 140.483 144.172 140.639 143.285C140.726 142.293 140.883 141.302 140.883 140.311C141.057 139.945 141.109 139.598 140.883 139.25C141.144 138.624 141.039 137.98 141.005 137.337C141.179 137.006 141.213 136.658 141.231 136.293C141.387 133.006 141.387 129.702 141.265 126.398C141.126 123.058 140.674 119.754 140.239 116.432Z" fill="#102D56"/>
<path d="M115.404 71.6179C115.682 72.2613 115.995 72.8874 116.5 73.3918C116.604 73.757 116.813 74.0179 117.108 74.2266C117.23 74.5222 117.387 74.7483 117.648 74.9222C119.335 76.8352 121.404 78.157 123.874 78.8179C124.691 79.1309 125.543 79.1483 126.413 79.1831C129.056 79.2526 131.474 78.5744 133.595 76.9918C134.169 76.6439 134.708 76.2613 135.126 75.7222C135.7 75.3222 136.169 74.8352 136.517 74.2266C137.404 73.27 138.03 72.157 138.517 70.957C140.569 66.5048 140.639 62.0005 138.969 57.4265C138.946 57.3802 138.917 57.3338 138.882 57.2874C138.865 56.9918 138.743 56.7309 138.569 56.5048C138.239 55.6352 137.787 54.8179 137.143 54.1396C136.9 53.3048 136.256 52.7483 135.682 52.157C134.848 51.3048 134.048 50.4352 132.848 50.1048C132.9 49.7048 132.552 49.6874 132.326 49.5831C127.891 47.2005 122.882 47.8787 119.074 51.0439C117.317 52.5048 115.926 54.2961 115.091 56.47C114.917 56.557 114.882 56.7657 114.813 56.9222C113.595 60.0179 113.161 63.2005 113.7 66.5048C113.995 68.2787 114.482 70.0352 115.404 71.6179Z" fill="#102D56"/>
<path d="M153.039 200.329H104.048C102.813 200.329 101.787 199.303 101.787 198.051V191.946C101.787 190.694 102.813 189.668 104.048 189.668H153.039C154.291 189.668 155.318 190.694 155.318 191.946V198.051C155.318 199.303 154.291 200.329 153.039 200.329Z" fill="#102D56"/>
<path d="M149.769 185.284H107.335C106.761 185.284 106.309 184.814 106.309 184.258V181.475C106.309 180.919 106.761 180.449 107.335 180.449H149.769C150.326 180.449 150.796 180.919 150.796 181.475V184.258C150.796 184.814 150.326 185.284 149.769 185.284Z" fill="#102D56"/>
<path d="M211.944 123.426C211.689 124.214 211.381 124.979 211.022 125.721C210.999 125.768 210.981 125.814 210.97 125.861C207.909 132.121 201.491 136.434 194.048 136.434C186.535 136.434 180.031 132.017 177.039 125.634C177.016 125.588 176.987 125.542 176.952 125.495C176.651 124.823 176.384 124.133 176.152 123.426H211.944Z" fill="#102D56"/>
<path fill-rule="evenodd" clip-rule="evenodd" d="M209.961 123.409C209.949 123.49 209.932 123.565 209.909 123.635L208.083 119.722L195.422 92.4523L193.978 126.209L192.535 92.4523L179.857 119.722L178.204 123.27C178.181 123.189 178.158 123.107 178.135 123.026L179.491 119.722L193.978 84.1914L208.465 119.722L209.961 123.409Z" fill="#102D56"/>
<path d="M80.2388 123.426C79.9837 124.214 79.6822 124.979 79.3344 125.721C79.3112 125.768 79.288 125.814 79.2649 125.861C76.204 132.121 69.7866 136.434 62.3431 136.434C54.8301 136.434 48.3431 132.017 45.3344 125.634C45.3112 125.588 45.288 125.542 45.2649 125.495C44.9518 124.823 44.6851 124.133 44.4648 123.426H80.2388Z" fill="#102D56"/>
<path fill-rule="evenodd" clip-rule="evenodd" d="M78.2741 123.409C78.251 123.49 78.2278 123.565 78.2046 123.635L76.3959 119.722L63.7176 92.4523L62.2741 126.209L60.8307 92.4523L48.1524 119.722L46.5002 123.27C46.477 123.189 46.4539 123.107 46.4307 123.026L47.7872 119.722L62.2741 84.1914L76.7611 119.722L78.2741 123.409Z" fill="#102D56"/>
</svg>
