<svg width="152" height="257" viewBox="0 0 152 257" fill="none" xmlns="http://www.w3.org/2000/svg">
<path d="M62.9713 221.434C75.3393 221.36 85.3699 222.373 87.4865 223.808C91.0018 226.182 90.56 229.44 87.8914 233.397C85.6828 236.655 81.8362 240.464 77.5663 244.661C72.3761 249.704 65.3271 255.041 79.462 245.636C89.3821 239.029 101.511 230.931 105.081 231.557C106.499 231.814 107.161 232.716 106.867 234.409C106.499 236.526 103.701 238.606 100.793 240.796C98.4004 242.581 95.9158 244.44 95.0876 246.004C94.6643 246.814 94.922 247.624 96.4496 248.434C99.4127 249.98 110.253 239.268 113.253 238.182L113.566 239.047C109.535 240.501 99.2287 252.906 95.198 250.79C91.922 249.059 91.5539 246.998 92.7318 244.771C93.8361 242.655 96.5784 240.612 99.1919 238.642C101.492 236.931 105.045 234.925 104.161 234.188C103.278 233.471 89.9711 241.845 80.9343 247.863C73.4436 252.851 69.0449 255.28 67.6829 253.974C66.7627 253.09 65.8425 252.796 69.4498 249.041C71.5295 246.869 73.6645 244.771 75.7074 242.765C79.8485 238.661 83.603 234.961 85.6828 231.906C87.4312 229.311 87.8729 227.287 85.9957 226.017C84.0632 224.71 74.051 223.863 61.7014 224.066C60.3946 226.624 58.8854 229.072 57.2106 231.391C48.0635 244.053 11.7325 268.2 2.18039 249.372C-3.76434 237.667 9.91039 230.103 19.3704 227.011C26.6219 224.655 35.7323 223.164 44.9163 222.317C48.0082 222.023 51.1186 221.802 54.1738 221.673C53.7444 222.692 53.3395 223.593 52.9591 224.379C50.3825 224.526 47.769 224.728 45.1555 224.968C36.1556 225.796 27.2477 227.25 20.1987 229.55C13.4073 231.777 8.41961 234.704 6.94723 238.514C6.02699 240.888 6.70798 243.501 7.83067 245.691C9.1374 248.305 11.2539 250.09 14.0699 250.955C17.0146 251.857 20.7508 251.765 25.2047 250.605C28.2599 249.796 31.6464 248.489 35.3274 246.612C43.131 242.655 49.5911 237.152 54.5051 230.581C54.5051 230.593 54.499 230.6 54.4867 230.6L54.5419 230.544C54.7137 230.311 54.8794 230.078 55.0389 229.845C56.3517 228.029 57.548 226.139 58.6278 224.176L58.6462 224.139C59.4437 222.679 60.1738 221.189 60.8364 219.667C61.2045 218.857 61.5173 218.066 61.7934 217.311V217.293C63.0081 214.072 63.6155 211.164 64.186 207.189C76.462 122.159 96.2471 58.2206 122.014 28.7545C107.695 41.5643 91.3699 77.0302 78.0448 119.766C74.2412 110.846 73.1369 101.785 74.732 92.5822C72.7074 103.331 73.6093 113.036 77.4374 121.699C69.0265 148.956 61.867 179.048 57.2106 208.035C59.6769 187.974 54.7628 181.404 39.358 176.618C43.7751 177.575 47.5236 178.704 50.6033 180.005C48.088 176.078 44.3396 172.735 39.358 169.974C43.3948 171.287 47.2414 173.993 50.8978 178.091C45.5359 167.944 42.266 157.441 41.0881 146.582C42.769 151.404 44.7445 154.379 47.0144 155.508C40.9408 146.232 38.9776 136.521 41.1249 126.373C44.5972 135.723 49.7076 144.987 56.456 154.165C47.2414 140.336 42.5788 128.533 42.4684 118.754C43.4255 107.404 47.2782 96.4288 54.0266 85.8277C57.1677 103.104 60.1983 115.275 63.1185 122.343C55.9775 97.6926 54.953 81.429 60.045 73.5517C66.9283 65.0978 70.37 60.8708 70.37 60.8708C70.1001 65.0303 70.4375 68.5027 71.3823 71.2879C70.4007 65.5825 70.7258 61.3126 72.3577 58.4782C79.1307 52.012 82.5172 48.7789 82.5172 48.7789C78.5786 60.8892 77.9712 70.245 80.6951 76.8462C77.689 66.6377 80.1613 55.3985 88.1122 43.1287C107.425 27.3496 128.406 13.0737 151.056 0.300781C136.504 18.362 128.492 36.9631 127.02 56.104C123.339 59.1715 121.265 61.7604 120.799 63.8708C122.75 60.9015 124.922 58.7113 127.314 57.3003C126.566 64.7113 126.192 68.4168 126.192 68.4168C119.106 79.7725 104.529 93.5945 96.5232 101.159C104.4 95.1589 119.179 81.9811 126.817 70.3493C125.124 79.9688 124.278 84.7786 124.278 84.7786C121.977 88.3676 115.002 95.1773 113.474 96.4656C115.701 94.9381 125.971 85.7541 127.351 83.9136C126.909 92.4166 116.474 103.257 106.683 109.036C110.419 107.067 120.449 100.183 122.732 97.0914C122.229 102.085 121.977 104.582 121.977 104.582C116.989 111.208 104.989 119.38 97.8115 125.195C103.259 121.441 115.314 114.061 122.216 106.956C123.824 105.214 124.995 103.926 125.732 103.091C123.94 114.834 123.044 120.705 123.044 120.705C118.94 126.189 111.468 130.864 109.351 131.656C112.646 130.257 120.229 126.318 123.376 122.932C120.799 131.729 119.511 136.128 119.511 136.128C112.627 144.116 99.9833 150.704 94.7747 152.803C101.953 150.373 114.633 144.189 119.621 137.324C117.793 151.839 113.971 160.171 108.155 162.318C90.0201 171.717 79.9896 178.962 78.0632 184.054C81.7441 178.692 91.8606 171.925 108.413 163.753C113.603 161.324 117.357 158.355 119.676 154.846C119.554 162.306 112.867 169.379 99.6152 176.066C105.799 174.336 111.02 171.582 115.278 167.802C113.903 172.784 106.627 179.367 93.4496 187.551C74.4191 197.784 71.1798 203.195 62.9713 221.434Z" fill="#2E2D42"/>
</svg>
