<svg width="257" height="214" viewBox="0 0 257 214" fill="none" xmlns="http://www.w3.org/2000/svg">
<path d="M0.250406 3.20253C0.208747 11.3676 2.77769 20.0465 8.88761 25.7259C11.8731 28.6003 15.9557 29.8223 19.9132 30.711C41.5618 35.4046 62.9882 41.0424 84.4701 46.4302C86.8029 46.8329 88.5109 49.6657 87.2056 51.7903C86.2336 53.4149 84.109 53.2483 82.5399 52.7901C76.0689 51.0682 69.5702 49.3741 63.0437 47.8327C48.366 44.4028 33.7161 40.7507 18.8857 38.0568C16.9277 37.4736 15.2475 39.501 15.8862 41.3479C16.9555 45.1527 19.8299 48.2632 22.996 50.5266C27.3146 53.4427 32.6469 54.0259 37.6875 54.6508C61.4607 57.4697 85.2477 60.1914 108.91 63.8157C113.159 64.5239 117.45 65.0655 121.643 66.093C126.226 67.2317 130.572 69.5507 133.891 72.9389C135.224 74.2998 136.363 76.1883 135.932 78.1601C135.641 79.5349 134.266 80.4097 132.933 80.5347C107.563 81.465 82.1789 82.4093 56.7949 82.9925C55.3508 82.8953 54.0038 84.2423 54.2954 85.7142C54.6981 87.686 56.2395 89.1719 57.6697 90.5049C61.2246 93.7682 66.182 95.1429 70.9449 95.0596C76.0967 94.9763 81.2068 94.0737 86.3308 93.5182C101.272 91.4075 116.256 89.6579 131.155 87.2833C133.197 87.0056 135.613 86.5057 137.321 88.0054C139.251 89.6718 139.168 92.5045 138.682 94.7819C137.46 99.4893 134.21 103.364 130.544 106.405C127.281 108.96 123.643 110.973 120.366 113.514C114.228 117.944 108.854 123.443 104.577 129.678C97.7314 139.19 93.6072 150.243 89.0525 160.936C84.7478 171.17 80.4847 181.487 74.4304 190.833C70.1951 197.498 64.8211 203.358 58.9889 208.649C56.8644 210.593 59.1 214.509 61.8356 213.87C68.987 212.592 75.6662 209.176 81.179 204.497C88.1638 198.276 93.1628 190.11 96.8843 181.598C100.8 172.489 102.939 162.783 105.535 153.243C108.146 143.578 112.798 134.288 119.921 127.151C124.532 122.29 130.392 118.958 135.877 115.222C144.417 109.418 150.665 99.6143 150.624 89.0885C152.526 94.6569 152.415 100.906 150.291 106.391C148.152 111.487 144.306 115.708 139.779 118.777C134.766 122.193 129.281 125.04 124.99 129.414C120.449 133.663 117.047 138.995 114.548 144.675C110.826 153.021 109.437 162.116 106.827 170.823C103.619 182.681 98.7589 194.318 91.0243 203.969C88.3999 206.191 90.8299 211.093 94.2043 209.704C106.757 205.58 116.144 194.748 120.838 182.667C123.657 175.794 124.865 168.434 126.767 161.297C127.989 156.784 130.836 152.687 134.849 150.229C139.598 147.133 145.264 146.064 150.429 143.897C157.039 141.328 163.232 137.537 168.273 132.538C176.758 124.318 182.284 113.348 184.645 101.822C186.367 94.1709 186.367 86.2419 185.673 78.4517C185.242 73.1611 184.298 67.8149 185.048 62.4965C185.811 56.7337 188.366 51.2904 191.963 46.7496C196.768 40.848 203.141 36.4183 209.904 33.0023C223.346 26.3508 238.19 23.3375 252.868 20.7547C254.631 20.6019 256.187 19.1161 256.242 17.3248C256.256 15.4501 254.395 13.8671 252.562 14.0199C235.927 16.3805 219.458 19.6993 202.961 22.8654C199.531 23.393 196.143 24.3512 192.657 24.3512C188.075 24.2817 184.034 21.9072 179.84 20.3797C170.606 16.7971 159.955 16.686 150.832 20.6852C145.458 23.0736 140.862 27.0451 137.557 31.8914C132.53 39.3482 130.919 48.9436 132.988 57.678C129.892 55.8867 126.573 54.5258 123.324 53.0817C83.9841 35.2379 44.464 17.8108 4.8745 0.578036C2.90266 -0.67172 0.0698854 0.800217 0.250406 3.20253Z" fill="#FCFEFA"/>
<path d="M33.9786 61.8847C32.6038 62.6485 32.8121 64.5509 33.4648 65.7451C36.7003 72.2855 44.0183 76.007 51.1697 75.882C72.4988 75.757 93.8558 75.3126 115.185 75.3126C116.768 75.2571 117.934 73.4658 117.226 72.0077C116.574 70.4941 114.782 70.2025 113.324 70.0637C87.5931 67.1753 61.8481 64.3148 36.0893 61.7459C35.395 61.6903 34.6451 61.5792 33.9786 61.8847Z" fill="#FCFEFA"/>
<path d="M119.978 95.5448C106.55 97.8082 93.0803 99.7245 79.5968 101.544C78.5137 101.599 77.5277 102.474 77.5555 103.585C77.5139 105.39 79.0413 106.626 80.2494 107.751C84.8874 111.583 91.0529 113.111 96.9823 113.069C104.286 113.18 111.757 110.861 117.339 106.057C119.742 103.738 122.325 101.28 123.449 98.0443C123.866 96.1002 121.658 94.8782 119.978 95.5448Z" fill="#FCFEFA"/>
<path d="M164.385 37.7644C170.065 34.2512 176.8 32.9459 183.395 32.7793C185.77 33.057 187.95 34.2096 190.269 34.7928C190.311 34.89 190.408 35.0983 190.464 35.2094L190.102 35.251C181.59 36.1398 172.939 40.0695 168.343 47.582C164.024 53.9418 164.233 62.579 167.676 69.2861C169.565 72.9937 172.287 76.2708 175.522 78.8814L175.633 78.9647C176.091 85.9078 176.341 92.9898 174.703 99.794C174.161 96.5585 173.647 93.2814 172.467 90.2125C170.94 85.8662 168.329 82.0613 165.843 78.2427C160.928 70.1609 154.623 62.5374 152.415 53.1503C151.457 49.29 152.179 45.2352 153.901 41.6942C154.943 43.8188 157.262 45.499 159.72 44.9714C163.024 44.5964 165.552 40.9999 164.385 37.7644Z" fill="#FCFEFA"/>
<path fill-rule="evenodd" clip-rule="evenodd" d="M0.250406 3.20253C0.0698854 0.800217 2.90266 -0.67172 4.8745 0.578036C44.464 17.8108 83.9841 35.2379 123.324 53.0817C126.573 54.5258 129.892 55.8867 132.988 57.678C130.919 48.9436 132.53 39.3482 137.557 31.8914C140.862 27.0451 145.458 23.0736 150.832 20.6852C159.955 16.686 170.606 16.7971 179.84 20.3797C184.034 21.9072 188.075 24.2817 192.657 24.3512C196.143 24.3512 199.531 23.393 202.961 22.8654C219.458 19.6993 235.927 16.3805 252.562 14.0199C254.395 13.8671 256.256 15.4501 256.242 17.3248C256.187 19.1161 254.631 20.6019 252.868 20.7547C238.19 23.3375 223.346 26.3508 209.904 33.0023C203.141 36.4183 196.768 40.848 191.963 46.7496C188.366 51.2904 185.811 56.7337 185.048 62.4965C184.298 67.8149 185.242 73.1611 185.673 78.4517C186.367 86.2419 186.367 94.1709 184.645 101.822C182.284 113.348 176.758 124.318 168.273 132.538C163.232 137.537 157.039 141.328 150.429 143.897C145.264 146.064 139.598 147.133 134.849 150.229C130.836 152.687 127.989 156.784 126.767 161.297C124.865 168.434 123.657 175.794 120.838 182.667C116.144 194.748 106.757 205.58 94.2043 209.704C90.8299 211.093 88.3999 206.191 91.0243 203.969C98.7589 194.318 103.619 182.681 106.827 170.823C109.437 162.116 110.826 153.021 114.548 144.675C117.047 138.995 120.449 133.663 124.99 129.414C129.281 125.04 134.766 122.193 139.779 118.777C144.306 115.708 148.152 111.487 150.291 106.391C152.415 100.906 152.526 94.6569 150.624 89.0885C150.665 99.6143 144.417 109.418 135.877 115.222C130.392 118.958 124.532 122.29 119.921 127.151C112.798 134.288 108.146 143.578 105.535 153.243C102.939 162.783 100.8 172.489 96.8843 181.598C93.1628 190.11 88.1638 198.276 81.179 204.497C75.6662 209.176 68.987 212.592 61.8356 213.87C59.1 214.509 56.8644 210.593 58.9889 208.649C64.8211 203.358 70.1951 197.498 74.4304 190.833C80.4847 181.487 84.7478 171.17 89.0525 160.936C93.6072 150.243 97.7314 139.19 104.577 129.678C108.854 123.443 114.228 117.944 120.366 113.514C123.643 110.973 127.281 108.96 130.544 106.405C134.21 103.364 137.46 99.4893 138.682 94.7819C139.168 92.5045 139.251 89.6718 137.321 88.0054C135.613 86.5057 133.197 87.0056 131.155 87.2833C116.256 89.6579 101.272 91.4075 86.3308 93.5182C81.2068 94.0737 76.0967 94.9763 70.9449 95.0596C66.182 95.1429 61.2246 93.7682 57.6697 90.5049C56.2395 89.1719 54.6981 87.686 54.2954 85.7142C54.0038 84.2423 55.3508 82.8953 56.7949 82.9925C82.1789 82.4093 107.563 81.465 132.933 80.5347C134.266 80.4097 135.641 79.5349 135.932 78.1601C136.363 76.1883 135.224 74.2998 133.891 72.9389C130.572 69.5507 126.226 67.2317 121.643 66.093C117.45 65.0655 113.159 64.5239 108.91 63.8157C85.2477 60.1914 61.4607 57.4697 37.6875 54.6508C32.6469 54.0259 27.3146 53.4427 22.996 50.5266C19.8299 48.2632 16.9555 45.1527 15.8862 41.3479C15.2475 39.501 16.9277 37.4736 18.8857 38.0568C33.7161 40.7507 48.366 44.4028 63.0437 47.8327C69.5702 49.3741 76.0689 51.0682 82.5399 52.7901C84.109 53.2483 86.2336 53.4149 87.2056 51.7903C88.5109 49.6657 86.8029 46.8329 84.4701 46.4302C62.9882 41.0424 41.5618 35.4046 19.9132 30.711C15.9557 29.8223 11.8731 28.6003 8.88761 25.7259C2.77769 20.0465 0.208747 11.3676 0.250406 3.20253ZM156.998 28.7253C149.874 30.7805 144.264 37.0848 142.889 44.3473C142.07 48.8603 142.473 53.6371 144.236 57.9002C146.069 63.1769 149.513 67.6344 152.262 72.439C155.415 77.5075 158.317 82.8537 159.872 88.6581C162.566 98.4339 160.608 109.404 154.526 117.555C151.54 121.818 147.555 125.318 143.264 128.234C140.529 130.15 137.612 131.802 135.057 133.983C131.947 136.177 129.1 138.926 126.851 142.037C136.877 137.829 147.888 135.663 156.9 129.317C166.496 122.429 173.147 111.501 174.702 99.7948C176.341 92.9906 176.091 85.9086 175.633 78.9655L175.522 78.8822C175.147 74.3692 174.425 69.8562 174.605 65.3154C174.744 53.5538 180.993 42.4588 190.102 35.2518L190.463 35.2102C190.408 35.0991 190.311 34.8908 190.269 34.7936C187.95 34.2104 185.77 33.0578 183.395 32.7801C175.383 28.6837 165.899 25.9759 156.998 28.7253ZM153.901 41.695C152.832 38.5845 154.859 34.7797 158.164 34.2381C160.789 33.6549 163.455 35.3074 164.385 37.7652C165.551 41.0007 163.024 44.5972 159.719 44.9721C157.261 45.4998 154.942 43.8196 153.901 41.695ZM33.9799 61.8855C34.6465 61.58 35.3963 61.6911 36.0906 61.7467C61.8495 64.3156 87.5945 67.1761 113.326 70.0645C114.784 70.2033 116.575 70.4949 117.228 72.0085C117.936 73.4666 116.769 75.2579 115.186 75.3135C93.8571 75.3135 72.5002 75.7578 51.171 75.8828C44.0196 76.0078 36.7016 72.2863 33.4661 65.7459C32.8135 64.5517 32.6052 62.6493 33.9799 61.8855ZM119.977 95.5456C121.657 94.8791 123.865 96.1011 123.449 98.0451C122.324 101.281 119.741 103.738 117.339 106.057C111.756 110.862 104.286 113.181 96.9815 113.07C91.0521 113.112 84.8867 111.584 80.2487 107.752C79.0406 106.627 77.5131 105.391 77.5548 103.586C77.527 102.475 78.5129 101.6 79.596 101.544C93.0795 99.7254 106.549 97.8091 119.977 95.5456Z" fill="#02242F"/>
<path d="M156.999 28.7247C165.9 25.9753 175.384 28.6831 183.396 32.7795C176.8 32.9461 170.066 34.2514 164.386 37.7646C163.456 35.3068 160.79 33.6543 158.165 34.2375C154.86 34.7791 152.833 38.5839 153.902 41.6944C152.18 45.2354 151.458 49.2901 152.416 53.1505C154.624 62.5376 160.929 70.1611 165.844 78.2428C166.025 80.048 167.163 81.5477 167.483 83.3113C167.955 85.7691 168.76 88.1437 169.288 90.5876C171.579 102.974 165.83 115.833 156.304 123.72C150.097 128.691 142.613 131.677 135.059 133.982C137.614 131.802 140.53 130.149 143.265 128.233C147.556 125.317 151.541 121.818 154.527 117.555C160.609 109.403 162.567 98.4333 159.873 88.6575C158.318 82.853 155.416 77.5069 152.264 72.4384C149.514 67.6338 146.07 63.1763 144.237 57.8996C142.474 53.6365 142.071 48.8597 142.89 44.3467C144.265 37.0842 149.875 30.7799 156.999 28.7247Z" fill="#36CECE"/>
<path d="M168.344 47.5829C172.941 40.0705 181.592 36.1407 190.104 35.252C180.995 42.4589 174.746 53.5539 174.607 65.3155C174.427 69.8563 175.149 74.3693 175.524 78.8823C172.288 76.2717 169.566 72.9946 167.678 69.287C164.234 62.58 164.026 53.9428 168.344 47.5829Z" fill="#FD6C5F"/>
<path d="M167.483 83.3126C167.163 81.5491 166.024 80.0493 165.844 78.2441C168.33 82.0628 170.94 85.8677 172.468 90.214C173.648 93.2829 174.162 96.56 174.703 99.7955C173.148 111.502 166.497 122.43 156.901 129.318C147.889 135.663 136.877 137.83 126.852 142.037C129.101 138.927 131.948 136.177 135.058 133.983C142.612 131.678 150.097 128.693 156.304 123.721C165.83 115.834 171.579 102.975 169.288 90.5889C168.76 88.145 167.955 85.7704 167.483 83.3126Z" fill="#079DA5"/>
</svg>
