<svg width="257" height="257" viewBox="0 0 257 257" fill="none" xmlns="http://www.w3.org/2000/svg">
<path fill-rule="evenodd" clip-rule="evenodd" d="M254.241 146.868C256.898 157.03 254.108 167.393 246.801 174.766L222.756 198.745C220.497 201.07 217.375 202.332 214.12 202.332H212.858C206.814 202.332 201.898 207.247 201.898 213.292V215.085C201.898 218.008 200.769 220.798 198.71 222.857L174.266 247.235C166.959 254.608 156.53 257.331 146.434 254.741C138.264 252.549 131.754 247.036 128.3 239.729C124.846 247.036 118.336 252.549 110.166 254.741C100.07 257.398 89.6409 254.608 82.3342 247.235L57.89 222.857C55.8309 220.798 54.7017 218.008 54.7017 215.085V213.358C54.7017 207.247 49.7863 202.398 43.7416 202.398H42.4796C39.2248 202.398 36.1028 201.07 33.8444 198.811L9.79872 174.766C2.49202 167.393 -0.297813 157.03 2.35917 146.868C4.55117 138.697 9.99799 132.188 17.3711 128.8C9.99799 125.346 4.55117 118.836 2.35917 110.666C-0.297813 100.57 2.49202 90.141 9.79872 82.7679L34.2429 58.3901C36.3021 56.331 39.0919 55.1353 42.0146 55.1353H43.808C49.8527 55.1353 54.7017 50.2863 54.7017 44.2417V42.9796C54.7017 39.7248 56.0302 36.6029 58.2886 34.3444L82.3342 10.2988C89.6409 2.99208 100.07 0.135823 110.166 2.85923C118.336 5.05124 124.912 10.498 128.3 17.8712C131.754 10.498 138.264 5.05124 146.434 2.85923C156.53 0.202248 166.959 2.99208 174.266 10.2988L198.311 34.3444C200.636 36.6029 201.898 39.7248 201.898 42.9796V44.2417C201.898 50.2863 206.814 55.2017 212.858 55.2017H214.652C217.508 55.2017 220.298 56.331 222.357 58.3901L246.801 82.7679C254.108 90.141 256.898 100.57 254.241 110.666C252.049 118.836 246.602 125.346 239.229 128.8C246.602 132.188 252.049 138.697 254.241 146.868ZM130.558 25.3107C130.558 27.3699 131.356 29.429 132.75 30.8904C133.238 31.3332 133.747 31.7096 134.278 32.0196C136.337 33.1488 138.197 34.8094 139.991 36.8686C146.301 44.441 149.357 55.7331 148.559 68.1545C148.892 67.6895 149.29 67.2246 149.622 66.826C157.527 56.9288 170.147 52.744 181.772 56.1317L182.17 56.1981C183.366 56.5967 184.03 57.7923 183.632 58.9879C183.299 60.1836 182.104 60.8478 180.908 60.5157L180.51 60.3828C170.612 57.5266 159.852 61.1135 153.076 69.6158C151.283 71.7414 149.822 74.1327 148.493 76.6568C147.895 77.9189 146.899 80.2438 145.902 83.6978C142.515 96.5842 137.134 107.544 133.614 113.788C132.95 114.984 133.415 116.379 134.61 116.977V117.043C135.54 117.508 136.603 117.309 137.334 116.578L138.596 115.316C142.847 111.065 146.102 105.95 148.028 100.238C149.822 95.1893 152.678 88.6132 156.863 82.5022C162.376 74.5977 170.015 69.483 177.321 68.8188C179.912 68.6195 182.17 68.9516 183.964 69.948C185.292 68.4866 187.949 64.9661 187.75 60.9142C187.617 57.6594 185.624 54.5375 181.838 51.6148C178.185 48.825 173.734 48.5593 168.686 48.2936C161.18 47.895 152.678 47.4301 145.105 38.1306C141.917 34.278 139.393 27.1042 141.386 20.661C142.448 17.3398 145.105 12.9558 151.947 10.963C159.055 8.97029 165.166 12.3579 168.553 16.1441C172.273 20.3289 173.469 25.51 171.742 29.5619C169.682 34.3444 165.631 37.0014 160.914 36.7357C156.53 36.47 152.545 33.6802 151.482 30.0933C150.353 26.3071 151.416 23.9158 152.545 22.5873C154.073 20.7274 156.464 19.9303 158.058 20.1296C159.32 20.196 160.25 21.3252 160.117 22.5209C159.985 23.7829 158.922 24.6465 157.66 24.58C157.46 24.5136 156.53 24.7793 155.933 25.51C155.202 26.3735 155.468 27.8348 155.8 28.8312C156.265 30.6247 158.656 32.1524 161.18 32.2853C162.841 32.3517 165.83 31.9532 167.623 27.8348C168.686 25.3771 167.69 21.9231 165.232 19.1332C162.708 16.277 158.257 13.8193 153.209 15.2806C149.224 16.4098 146.7 18.6683 145.637 22.0559C144.175 26.6392 146.035 32.2189 148.559 35.3408C154.87 43.046 161.645 43.4446 168.885 43.8431C174.266 44.1753 179.779 44.441 184.562 48.0943C189.411 51.8141 192.001 56.0653 192.2 60.7814C192.267 62.442 192.001 64.1026 191.536 65.5639C192.997 65.099 194.592 64.8333 196.319 64.8997C201.035 65.099 205.286 67.6895 209.006 72.5385C212.659 77.3211 212.925 82.8343 213.257 88.1483C213.655 95.3885 213.988 102.23 221.759 108.541C224.881 111.065 230.461 112.858 235.044 111.463C238.365 110.4 240.69 107.876 241.819 103.891C243.281 98.8426 240.757 94.3258 237.967 91.8681C235.111 89.3439 231.723 88.414 229.265 89.4768C225.147 91.2038 224.682 94.2593 224.815 95.9199C224.948 98.3777 226.475 100.769 228.202 101.3C229.265 101.632 230.66 101.832 231.59 101.167C232.321 100.57 232.586 99.6397 232.52 99.374C232.52 98.1784 233.45 97.1156 234.646 97.0492C235.841 96.9827 236.904 97.7798 236.97 98.9755C237.17 100.57 236.306 103.027 234.513 104.555C233.184 105.618 230.793 106.747 226.94 105.618C223.42 104.555 220.63 100.57 220.364 96.1856C220.099 91.4695 222.756 87.4176 227.538 85.4249C231.59 83.6314 236.771 84.8271 240.89 88.5468C245.805 92.8644 247.798 99.2412 246.071 105.153C245.207 108.341 243.679 110.6 242.085 112.26C240.225 114.12 238.166 115.117 236.373 115.714C229.996 117.707 222.822 115.183 218.903 111.995C209.67 104.422 209.205 95.92 208.806 88.414C208.541 83.2993 208.275 78.9153 205.485 75.2619C202.563 71.4757 199.441 69.483 196.186 69.3502C192.068 69.1509 188.613 71.8079 187.152 73.1364C187.883 74.5977 188.348 76.3247 188.348 78.3175C188.348 78.7603 188.326 79.2253 188.281 79.7124C187.617 87.0191 182.502 94.7243 174.598 100.171C168.487 104.422 161.911 107.279 156.863 109.006C151.15 110.998 146.035 114.253 141.784 118.438L140.456 119.766C139.791 120.497 139.592 121.56 140.057 122.423V122.49C140.721 123.685 142.116 124.15 143.246 123.486C149.556 119.966 160.449 114.585 173.336 111.198C176.79 110.201 179.115 109.205 180.377 108.607C182.901 107.279 185.292 105.751 187.484 103.957C195.987 97.182 199.573 86.4212 196.651 76.524L196.584 76.1919C196.252 74.9962 196.916 73.7342 198.112 73.4021C199.241 73.0699 200.503 73.7342 200.902 74.9298L200.968 75.2619C204.356 86.9526 200.105 99.5733 190.274 107.478C189.809 107.81 189.411 108.142 188.946 108.474C201.367 107.744 212.659 110.799 220.165 117.043C222.291 118.836 223.951 120.763 225.08 122.755C226.409 125.147 229 126.542 231.789 126.542C232.387 126.409 233.051 126.276 233.583 126.077C241.62 123.951 247.731 117.707 249.923 109.537C252.182 100.968 249.857 92.1338 243.613 85.9563L221.095 63.4384C218.77 61.1135 215.648 59.6522 212.393 59.6522C208.275 59.7186 204.489 58.058 201.765 55.3346C199.042 52.6112 197.381 48.825 197.448 44.7067C197.514 41.3854 195.987 38.3299 193.662 36.005L171.144 13.4871C164.9 7.24324 156.132 4.91839 147.563 7.17682C139.326 9.36883 133.149 15.4799 130.957 23.4508C130.824 24.0486 130.691 24.7129 130.558 25.3107ZM179.314 128.8C179.314 128.667 179.38 128.601 179.38 128.534C179.248 127.604 178.517 126.475 177.321 125.479C175.063 123.619 170.945 121.892 165.564 121.892C164.036 121.892 162.309 122.091 160.582 122.357C153.342 123.685 146.832 126.741 143.113 128.8C146.832 130.793 153.342 133.848 160.582 135.177C168.487 136.638 174.399 134.513 177.321 132.055C178.517 131.059 179.248 129.929 179.38 128.999C179.38 128.933 179.314 128.866 179.314 128.8ZM249.923 148.063C247.731 139.827 241.62 133.649 233.583 131.457C233.051 131.324 232.387 131.125 231.789 130.992C229.664 130.992 227.671 131.789 226.21 133.251C225.767 133.693 225.39 134.203 225.08 134.778C223.951 136.771 222.291 138.697 220.165 140.491C213.39 146.137 203.559 149.192 192.532 149.192C191.337 149.192 190.141 149.126 188.946 149.06C189.411 149.458 189.809 149.724 190.274 150.056C200.105 157.96 204.356 170.647 200.968 182.272L200.902 182.67C200.57 183.6 199.706 184.265 198.71 184.265C198.511 184.265 198.311 184.198 198.112 184.132C196.916 183.8 196.252 182.537 196.584 181.408L196.651 181.01C199.573 171.112 195.987 160.352 187.484 153.576C185.292 151.783 182.901 150.322 180.443 148.993C179.115 148.329 176.79 147.399 173.336 146.403C160.516 143.015 149.556 137.568 143.246 134.114C142.116 133.45 140.721 133.915 140.057 135.11C139.592 135.974 139.791 137.103 140.456 137.834L141.784 139.096C146.035 143.347 151.15 146.602 156.863 148.528C161.911 150.322 168.487 153.111 174.598 157.363C182.502 162.876 187.617 170.515 188.281 177.821C188.281 178.286 188.348 178.818 188.348 179.283C188.348 181.275 187.883 183.002 187.152 184.464C188.613 185.726 192.068 188.383 196.186 188.25C199.441 188.051 202.563 186.058 205.485 182.338C208.275 178.618 208.474 174.234 208.806 169.186C209.205 161.614 209.67 153.178 218.903 145.539C222.822 142.351 229.996 139.893 236.373 141.886C239.694 142.949 244.144 145.605 246.071 152.447C247.665 158.027 246.004 163.939 241.753 168.256C241.487 168.522 241.199 168.788 240.89 169.053C236.771 172.707 231.59 173.902 227.472 172.175C222.756 170.183 220.099 166.131 220.364 161.348C220.63 156.964 223.42 153.045 226.94 151.982C230.793 150.853 233.184 151.916 234.513 153.045C236.306 154.506 237.103 156.964 236.97 158.558C236.838 159.82 235.775 160.684 234.513 160.617C233.317 160.485 232.454 159.355 232.52 158.16C232.586 157.894 232.321 156.964 231.59 156.433C230.66 155.702 229.265 155.968 228.202 156.233C226.475 156.765 224.948 159.156 224.815 161.614C224.682 163.274 225.147 166.33 229.265 168.057C231.723 169.12 235.111 168.19 237.967 165.732C240.757 163.208 243.281 158.758 241.819 153.643C240.69 149.724 238.365 147.2 235.044 146.137C230.461 144.676 224.881 146.535 221.759 148.993C213.988 155.303 213.655 162.145 213.257 169.385C212.925 174.766 212.659 180.279 209.006 184.995C205.286 189.911 200.968 192.501 196.319 192.634C194.592 192.767 192.997 192.501 191.536 192.036C192.001 193.498 192.267 195.092 192.2 196.819C192.001 201.468 189.411 205.72 184.562 209.506C179.779 213.159 174.266 213.425 168.885 213.757C161.645 214.089 154.87 214.488 148.559 222.193C146.035 225.315 144.175 230.895 145.637 235.544C146.7 238.865 149.224 241.124 153.209 242.32C158.257 243.781 162.708 241.257 165.232 238.467C167.69 235.611 168.686 232.223 167.623 229.765C165.83 225.647 162.841 225.182 161.18 225.248C158.656 225.448 156.265 226.975 155.8 228.703C155.468 229.765 155.202 231.16 155.933 232.09C156.53 232.821 157.394 233.02 157.66 233.02C158.922 233.02 159.984 233.95 160.051 235.079C160.117 236.341 159.32 237.338 158.058 237.471C156.464 237.603 154.073 236.806 152.545 234.946C151.416 233.618 150.353 231.227 151.482 227.44C152.545 223.854 156.53 221.064 160.914 220.798C165.631 220.532 169.682 223.256 171.675 227.972C173.469 232.09 172.273 237.205 168.553 241.39C168.288 241.7 168.022 241.987 167.756 242.253C163.505 246.504 157.527 248.165 151.947 246.571C145.105 244.578 142.448 240.194 141.386 236.873C139.393 230.43 141.917 223.322 145.105 219.403C152.678 210.17 161.114 209.639 168.686 209.24C173.734 208.974 178.185 208.775 181.838 205.919C185.624 203.063 187.617 199.941 187.75 196.619C187.949 192.568 185.292 189.114 183.964 187.652C182.17 188.582 179.912 188.981 177.321 188.715C170.015 188.051 162.376 182.936 156.863 175.098C152.678 168.987 149.822 162.411 148.028 157.296C146.102 151.65 142.847 146.469 138.596 142.218L137.334 140.956C136.603 140.225 135.54 140.092 134.61 140.557C133.415 141.155 132.95 142.55 133.614 143.746C137.134 150.056 142.515 160.95 145.902 173.769C146.899 177.29 147.895 179.615 148.493 180.943C149.822 183.401 151.283 185.792 153.076 187.984C159.852 196.42 170.612 200.007 180.51 197.151L180.908 197.084C182.104 196.686 183.299 197.417 183.632 198.546C183.698 198.811 183.764 199.011 183.764 199.21C183.764 200.14 183.1 201.07 182.17 201.336L181.772 201.468C170.147 204.856 157.527 200.605 149.622 190.774C149.29 190.309 148.958 189.844 148.559 189.446C148.626 190.641 148.692 191.837 148.692 193.033C148.692 203.993 145.637 213.89 139.991 220.665C138.197 222.791 136.337 224.451 134.278 225.514C133.747 225.824 133.238 226.223 132.75 226.71C131.356 228.105 130.558 230.164 130.558 232.289C130.691 232.887 130.824 233.485 130.957 234.083C133.149 242.12 139.326 248.231 147.563 250.423C156.132 252.682 164.9 250.29 171.144 244.113L193.33 221.861L193.662 221.529C195.987 219.27 197.514 216.148 197.448 212.893C197.448 208.709 199.042 204.923 201.765 202.266C204.489 199.542 208.275 197.882 212.393 197.948C215.715 197.948 218.77 196.42 221.095 194.162L243.613 171.644C249.857 165.4 252.182 156.566 249.923 148.063ZM221.892 126.542C221.228 124.549 219.634 122.423 217.309 120.497C212.46 116.445 203.825 112.792 192.4 112.792C189.167 112.792 185.713 113.124 182.037 113.788C176.989 114.718 172.14 116.047 167.557 117.574C172.539 117.906 176.989 119.434 180.178 122.091C180.178 122.091 180.178 122.091 180.244 122.091C183.432 124.815 187.351 126.542 191.603 126.542H221.892ZM168.487 94.3258C168.487 94.5915 168.487 94.8571 168.42 95.1228C168.354 96.5842 167.823 98.112 167.092 99.5733C168.73 98.6434 170.369 97.6248 172.007 96.5178C180.045 90.9381 183.366 83.9635 183.764 79.3803C183.964 77.1882 183.565 75.3284 182.635 74.3984C181.705 73.5349 179.912 73.0699 177.72 73.2692C173.07 73.6677 166.096 76.989 160.516 85.0263C159.409 86.6648 158.39 88.3254 157.46 90.0082C158.922 89.2111 160.449 88.7461 161.911 88.6133C164.036 88.414 165.763 88.9454 166.959 90.0746C167.955 91.071 168.487 92.5987 168.487 94.3258ZM154.87 98.2448C153.01 100.902 151.748 103.824 151.017 106.083C153.209 105.286 156.132 104.024 158.789 102.164C162.376 99.7061 163.837 96.7171 164.036 94.7243C164.103 93.7944 163.904 93.3294 163.771 93.263C163.704 93.1965 163.239 92.9309 162.309 93.0637C160.383 93.1966 157.328 94.6579 154.87 98.2448ZM128.3 120.829C123.85 120.829 120.263 124.35 120.263 128.8C120.263 133.184 123.85 136.771 128.3 136.771C132.684 136.771 136.271 133.184 136.271 128.8C136.271 124.35 132.684 120.829 128.3 120.829ZM130.492 65.4975C130.492 69.6823 132.219 73.6677 134.942 76.8561C134.942 76.8561 134.942 76.9225 135.009 76.9225C137.599 80.1109 139.194 84.4949 139.459 89.4768C141.053 84.9599 142.382 80.1109 143.246 75.0627C146.235 58.523 141.784 45.9687 136.537 39.7248C134.61 37.4664 132.485 35.8722 130.492 35.208V65.4975ZM128.034 77.7196C127.104 77.7861 125.975 78.5167 124.979 79.7124C122.521 82.6351 120.462 88.5468 121.857 96.5178C123.185 103.692 126.241 110.268 128.3 113.921C130.293 110.268 133.348 103.692 134.677 96.5178C136.072 88.5468 134.013 82.6351 131.555 79.7124C130.558 78.5832 129.429 77.7861 128.499 77.7196C128.433 77.7196 128.366 77.7861 128.3 77.7196C128.167 77.7861 128.101 77.7196 128.034 77.7196ZM18.1018 120.696C22.8179 122.556 28.7961 123.021 34.7743 118.504C35.3057 118.017 35.8371 117.53 36.3685 117.043C36.5678 116.91 36.7006 116.844 36.8999 116.711C37.0327 116.578 37.1656 116.445 37.3649 116.312L37.2985 116.379C44.738 110.6 55.698 107.744 67.6545 108.474C67.1895 108.076 66.7245 107.81 66.2595 107.478C56.4287 99.5733 52.244 86.8862 55.6316 75.2619L55.698 74.8634C56.0302 73.6677 57.2922 73.0035 58.4879 73.4021C59.6835 73.7342 60.3478 74.9962 59.9492 76.1255L59.8828 76.524C57.0265 86.4212 60.6134 97.182 69.1158 103.957C71.3078 105.751 73.6326 107.279 76.1568 108.541C77.4853 109.205 79.7437 110.135 83.1978 111.131C96.0841 114.519 106.978 119.966 113.288 123.42C114.484 124.084 115.879 123.619 116.476 122.423H116.543C117.008 121.493 116.809 120.431 116.078 119.7L114.816 118.438C110.565 114.187 105.384 110.932 99.7375 109.006C94.6892 107.212 88.1132 104.422 82.0021 100.171C74.0976 94.6579 68.9829 87.0191 68.3187 79.7124C68.1194 77.1218 68.4515 74.8634 69.3815 73.0699C67.9866 71.7414 64.4661 69.1509 60.4142 69.2837C57.0929 69.483 53.971 71.4757 51.1147 75.1955C48.3249 78.9153 48.0592 83.2993 47.7935 88.3476C47.395 95.1893 46.9964 102.828 40.0219 109.803C39.2912 110.533 38.4941 111.264 37.6306 111.928C33.7115 115.117 26.6041 117.641 20.1609 115.648C16.8397 114.585 12.4557 111.928 10.463 105.087C8.47023 98.0455 11.7914 91.9345 15.6441 88.4804C19.8288 84.8271 24.9435 83.6314 29.0618 85.3585C33.8444 87.3512 36.5014 91.4031 36.2357 96.1192C35.97 100.57 33.1801 104.489 29.5932 105.552C25.807 106.681 23.4157 105.618 22.0872 104.489C20.2274 103.027 19.4303 100.57 19.6295 98.9755C19.696 97.7134 20.8252 96.8499 22.0208 96.9827C23.2829 97.0492 24.1464 98.1784 24.0136 99.374C24.0136 99.6397 24.2128 100.57 24.9435 101.101C25.8734 101.832 27.3348 101.566 28.3311 101.3C30.1246 100.769 31.6524 98.3777 31.7852 95.8535C31.8517 94.2593 31.3867 91.2038 27.3348 89.4104C24.8771 88.414 21.423 89.3439 18.5667 91.8016C15.7769 94.3258 13.3192 98.7762 14.7806 103.891C15.9098 107.81 18.1682 110.334 21.4894 111.397C26.1391 112.858 31.7188 110.998 34.8407 108.474C42.546 102.164 42.9445 95.3885 43.3431 88.1483C43.6088 82.7679 43.9409 77.2547 47.5942 72.5385C51.314 67.6231 55.5652 65.0326 60.2149 64.8997C61.9419 64.7669 63.5361 65.0326 65.0639 65.4975C64.5989 64.0362 64.3332 62.442 64.3996 60.715C64.5989 56.0653 67.123 51.8141 72.0385 48.0279C76.7546 44.3745 82.3342 44.1088 87.6482 43.7767C94.8885 43.4446 101.73 43.0461 108.041 35.2744C110.565 32.1524 112.358 26.6392 110.897 21.9895C109.9 18.6683 107.31 16.4098 103.391 15.2142C98.3426 13.7528 93.8257 16.277 91.368 19.0668C88.8439 21.9231 87.9139 25.3107 88.9767 27.7684C90.7037 31.8867 93.7593 32.3517 95.4199 32.2189C97.8776 32.086 100.269 30.5582 100.8 28.8312C101.132 27.7684 101.332 26.3735 100.601 25.4436C100.07 24.7129 99.1397 24.5136 98.874 24.5136C97.6783 24.5136 96.6155 23.5837 96.5491 22.388C96.4827 21.1924 97.2798 20.196 98.4754 20.0632C100.07 19.9303 102.527 20.7274 104.055 22.5209C105.118 23.9158 106.247 26.3071 105.051 30.0933C104.055 33.6802 100.07 36.47 95.6856 36.7357C90.9694 37.0014 86.9176 34.278 84.8584 29.5619C83.1314 25.4436 84.327 20.3289 88.0468 16.1441C92.3644 11.2287 98.6747 9.23599 104.586 10.963C111.428 12.8893 114.152 17.3398 115.148 20.661C117.207 27.1042 114.683 34.2116 111.495 38.1306C110.786 38.972 110.078 39.747 109.369 40.4555C102.328 47.4965 94.6892 47.895 87.9139 48.2272C82.7992 48.5593 78.4152 48.7586 74.7619 51.6148C70.9757 54.4711 68.9829 57.593 68.8501 60.8478C68.6508 64.9661 71.3078 68.4202 72.5699 69.8815C74.3633 68.9516 76.6218 68.5531 79.2123 68.8188C86.519 69.483 94.2242 74.5977 99.671 82.4358C103.922 88.5468 106.778 95.1229 108.506 100.238C110.498 105.884 113.687 111.065 117.938 115.249L119.266 116.578C119.931 117.309 121.06 117.441 121.923 116.977H121.99C123.119 116.379 123.584 114.917 122.986 113.788C119.466 107.478 114.085 96.5842 110.698 83.6978C109.635 80.2438 108.705 77.9853 108.041 76.6568C106.778 74.1327 105.251 71.7414 103.457 69.5494C96.682 61.1135 85.9212 57.4602 76.0239 60.3828L75.6918 60.4493C74.4962 60.7814 73.2341 60.1171 72.902 58.9879C72.5699 57.7923 73.2341 56.5302 74.4297 56.1981L74.7619 56.0653C86.3861 52.6776 99.0732 56.9288 106.978 66.7596C107.31 67.2246 107.642 67.6895 107.974 68.0881C107.243 55.7331 110.299 44.3745 116.543 36.8686C118.336 34.743 120.263 33.0824 122.255 31.9532C124.647 30.6247 126.042 28.0341 126.042 25.2443C125.909 24.6465 125.776 24.0486 125.577 23.4508C123.385 15.4135 117.207 9.30241 108.97 7.1104C100.468 4.85197 91.6337 7.24325 85.4562 13.4207L62.9383 35.9386C60.6135 38.2635 59.0857 41.319 59.1521 44.6402C59.1521 48.825 57.4915 52.5447 54.8345 55.2682C52.1111 57.9916 48.3249 59.6522 44.1402 59.5857C40.8854 59.5857 37.7634 61.0471 35.505 63.3719L12.9207 85.8898C7.87239 91.0045 5.4147 97.7798 5.87968 104.754C6.27822 107.677 8.20453 115.714 18.1018 120.696ZM121.525 76.8561C121.569 76.8561 121.591 76.834 121.591 76.7897C124.315 73.6013 126.042 69.6823 126.042 65.4975V35.1415C124.049 35.8722 121.923 37.4 119.997 39.7248C114.749 45.9687 110.299 58.4565 113.288 75.0627C114.152 80.0445 115.547 84.8935 117.074 89.4768C117.34 84.4949 118.934 80.0445 121.525 76.8561ZM89.5745 90.0746C90.7702 88.879 92.4972 88.3476 94.6228 88.5468C96.0841 88.6797 97.6119 89.1447 99.0732 89.9417C98.1433 88.259 97.1248 86.6205 96.0177 85.0263C90.438 76.9225 83.4635 73.6677 78.8138 73.2692C78.4595 73.2249 78.1274 73.2028 77.8174 73.2028C76.0904 73.2028 74.629 73.6013 73.8984 74.3984C73.1013 75.1291 72.7027 76.5904 72.7027 78.3175C72.7027 78.6274 72.7248 78.9596 72.7691 79.3138C73.1677 83.9635 76.4889 90.9381 84.5263 96.5178C86.1647 97.6248 87.8032 98.6434 89.4417 99.5733C88.711 98.112 88.246 96.5842 88.1132 95.0564C87.9139 92.9973 88.4453 91.2038 89.5745 90.0746ZM92.4972 94.3258C92.4972 94.4143 92.4972 94.525 92.4972 94.6579C92.6965 96.6506 94.1578 99.7061 97.7447 102.164C100.402 104.024 103.324 105.219 105.516 106.016C104.786 103.758 103.524 100.835 101.664 98.1784C99.2061 94.6579 96.1506 93.1965 94.2242 92.9973C93.2943 92.9309 92.8293 93.1301 92.7629 93.263C92.6965 93.263 92.4972 93.5951 92.4972 94.3258ZM126.042 232.223C126.042 229.5 124.647 226.843 122.255 225.514C120.263 224.385 118.336 222.724 116.543 220.599C110.299 213.093 107.243 201.801 107.974 189.379C107.642 189.844 107.31 190.309 106.978 190.708C99.0732 200.605 86.3861 204.79 74.7619 201.402L74.4297 201.336C73.2341 200.937 72.5699 199.741 72.902 198.546C73.2341 197.35 74.4962 196.686 75.6918 197.018L76.0239 197.151C85.9212 200.007 96.682 196.42 103.457 187.918C105.251 185.726 106.778 183.335 108.041 180.877C108.705 179.548 109.701 177.224 110.698 173.769C114.085 160.95 119.466 149.989 122.986 143.679C123.584 142.55 123.119 141.155 121.99 140.491H121.923C121.06 140.026 119.931 140.225 119.266 140.889L117.938 142.218C113.687 146.469 110.498 151.584 108.506 157.296C106.778 162.344 103.922 168.92 99.671 175.032C94.2242 182.936 86.519 188.051 79.2123 188.715C76.6218 188.914 74.3633 188.516 72.5699 187.586C71.3078 189.047 68.6508 192.568 68.8501 196.619C68.9829 199.874 70.9757 202.996 74.7619 205.919C78.4152 208.709 82.7992 208.974 87.9139 209.24C95.4199 209.639 103.922 210.104 111.495 219.403C114.683 223.256 117.207 230.43 115.148 236.806C114.617 238.6 113.62 240.659 111.76 242.519C110.1 244.179 107.841 245.574 104.586 246.504C98.6747 248.231 92.3644 246.239 88.0468 241.39C84.327 237.205 83.1314 232.024 84.8584 227.972C86.9176 223.189 90.903 220.532 95.6856 220.798C100.07 221.064 104.055 223.787 105.051 227.44C106.181 231.227 105.118 233.618 104.055 234.946C102.527 236.74 100.07 237.603 98.4754 237.404C97.2798 237.338 96.3498 236.208 96.4827 235.013C96.6155 233.751 97.6783 232.887 98.874 232.954C99.1397 233.02 100.07 232.754 100.601 232.024C101.332 231.16 101.132 229.699 100.8 228.703C100.269 226.909 97.8776 225.381 95.4199 225.248C93.7593 225.182 90.7037 225.581 88.9767 229.699C87.9139 232.157 88.8439 235.611 91.368 238.4C93.8257 241.257 98.2761 243.714 103.391 242.253C107.31 241.124 109.9 238.865 110.897 235.478C112.358 230.894 110.565 225.315 108.041 222.193C101.73 214.421 94.8885 214.089 87.6482 213.691C82.3342 213.358 76.7546 213.093 72.0385 209.439C67.123 205.72 64.5989 201.402 64.3996 196.752C64.3332 195.025 64.5989 193.431 64.9975 191.97C63.5361 192.435 61.9419 192.7 60.2149 192.634C55.5652 192.435 51.314 189.844 47.5278 184.995C43.9409 180.213 43.6088 174.699 43.3431 169.319C42.9445 162.145 42.546 155.303 34.8407 148.993C31.7188 146.469 26.1391 144.676 21.4894 146.07C18.1682 147.133 15.9098 149.657 14.7806 153.643C13.3192 158.691 15.7769 163.142 18.5667 165.666C21.423 168.19 24.8106 169.12 27.3348 168.057C31.3867 166.263 31.8517 163.274 31.7852 161.614C31.586 159.156 30.1246 156.698 28.3311 156.233C27.3348 155.901 25.8734 155.702 24.9435 156.366C24.2128 156.898 24.0136 157.894 24.0136 158.16C24.08 159.355 23.15 160.418 21.9544 160.485C20.7587 160.551 19.696 159.754 19.5631 158.558C19.4303 156.898 20.2274 154.506 22.0872 152.979C23.4157 151.916 25.807 150.787 29.5932 151.916C33.1801 152.979 35.97 156.964 36.2357 161.348C36.5014 166.064 33.8444 170.116 29.0618 172.109C24.9435 173.902 19.8288 172.707 15.6441 168.987C10.7287 164.669 8.73593 158.293 10.463 152.381C12.4557 145.539 16.8397 142.882 20.1609 141.819C26.6041 139.827 33.7115 142.351 37.6306 145.539C46.93 153.111 47.395 161.614 47.7935 169.12C48.0592 174.234 48.3249 178.618 51.1147 182.272C53.971 186.058 57.0929 188.051 60.4142 188.184C64.4661 188.383 67.9866 185.726 69.3815 184.397C68.4515 182.67 68.1194 180.345 68.3187 177.755C68.9829 170.448 74.0976 162.809 82.0021 157.363C88.1132 153.045 94.6892 150.255 99.7375 148.528C105.384 146.535 110.565 143.281 114.816 139.029L116.078 137.767C116.809 137.037 117.008 135.974 116.543 135.11L116.476 135.044C115.879 133.848 114.484 133.383 113.288 134.048C106.978 137.568 96.0841 142.948 83.1978 146.336C79.7437 147.333 77.4188 148.329 76.1568 148.927C73.6326 150.255 71.2414 151.783 69.1158 153.51C60.6134 160.352 57.0265 171.112 59.8828 181.01L59.9492 181.342C60.3478 182.537 59.6835 183.8 58.4879 184.132C57.2922 184.464 56.0302 183.8 55.698 182.604L55.6316 182.205C52.244 170.581 56.4287 157.96 66.2595 150.056C66.7245 149.724 67.1231 149.392 67.6545 149.06C55.2331 149.79 43.8745 146.735 36.3685 140.424C34.2429 138.697 32.6487 136.771 31.5195 134.778C31.2095 134.203 30.811 133.671 30.3239 133.184C28.929 131.789 26.8698 130.992 24.8107 130.992C24.2128 131.125 23.5486 131.258 22.9508 131.457C14.9134 133.583 8.80234 139.827 6.61033 147.997C4.41832 156.566 6.74318 165.4 12.9207 171.577L35.505 194.095C37.7634 196.42 40.8854 197.948 44.1402 197.882C48.3249 197.815 52.1111 199.542 54.8345 202.266C57.4915 204.923 59.1521 208.709 59.1521 212.893C59.0857 216.148 60.6135 219.27 62.9383 221.529L85.4562 244.047C91.6337 250.29 100.468 252.615 108.97 250.357C117.207 248.165 123.385 242.054 125.577 234.083C125.776 233.485 125.909 232.821 126.042 232.223ZM64.9975 126.542C69.1822 126.542 73.1012 124.815 76.356 122.091C76.356 122.047 76.3782 122.025 76.4225 122.025C79.5444 119.368 83.9949 117.84 88.9767 117.508C84.4598 116.047 79.5444 114.652 74.5626 113.788C58.0229 110.799 45.4687 115.249 39.2248 120.497C36.9663 122.423 35.3721 124.482 34.6415 126.542H64.9975ZM96.0177 135.177C103.258 133.848 109.768 130.793 113.487 128.734C109.768 126.741 103.258 123.685 96.0177 122.357C88.1132 120.896 82.2014 123.021 79.2787 125.479C78.0831 126.475 77.3524 127.604 77.2196 128.534C77.2196 128.601 77.286 128.667 77.286 128.734C77.286 128.866 77.2196 128.933 77.2196 128.999C77.3524 129.929 78.0831 130.992 79.2787 132.055C82.2014 134.446 88.1132 136.572 96.0177 135.177ZM34.7079 130.992C35.3721 132.985 36.9663 135.11 39.2912 137.037C45.4687 142.218 58.0229 146.735 74.5626 143.746C79.6109 142.816 84.4598 141.487 89.0431 139.959C84.0613 139.627 79.6108 138.1 76.4225 135.443C76.4225 135.443 76.4225 135.443 76.356 135.443C73.1677 132.719 69.2486 130.992 64.9975 130.992H34.7079ZM88.1796 162.411C88.3125 160.95 88.7774 159.422 89.5081 157.96C87.8475 158.89 86.1869 159.82 84.5927 161.016C76.5553 166.596 73.2341 173.57 72.8356 178.153C72.7913 178.508 72.7691 178.862 72.7691 179.216C72.7691 180.943 73.1677 182.338 73.9648 183.135C74.8947 183.999 76.6882 184.464 78.8802 184.265C83.5299 183.866 90.5045 180.545 96.0841 172.507C97.2133 170.847 98.2097 169.186 99.1397 167.526C97.6783 168.323 96.1505 168.788 94.6892 168.92C92.5636 169.12 90.8366 168.588 89.6409 167.459C88.5117 166.263 87.9803 164.47 88.1796 162.411ZM101.73 159.289C103.59 156.632 104.852 153.709 105.583 151.451C103.391 152.248 100.468 153.51 97.8112 155.37C94.2242 157.828 92.7629 160.817 92.5636 162.809C92.5636 162.942 92.5636 163.075 92.5636 163.208C92.5636 163.872 92.7629 164.204 92.8293 164.271C92.8958 164.337 93.3607 164.603 94.2907 164.47C96.217 164.337 99.2725 162.876 101.73 159.289ZM126.108 192.036C126.108 187.851 124.381 183.866 121.658 180.678C121.658 180.678 121.658 180.611 121.591 180.611C119.001 177.423 117.406 172.972 117.141 168.057C115.613 172.574 114.218 177.423 113.354 182.471C112.69 186.147 112.358 189.601 112.358 192.833C112.358 204.258 116.011 212.96 120.063 217.809C121.99 220.067 124.115 221.662 126.108 222.326V192.036ZM128.566 179.814C129.496 179.748 130.625 179.017 131.621 177.755C134.079 174.899 136.138 168.987 134.743 161.016C133.415 153.842 130.359 147.266 128.366 143.613C126.307 147.266 123.252 153.842 121.923 161.016C121.591 162.809 121.458 164.47 121.458 166.064C121.458 171.445 123.185 175.496 125.045 177.755C126.042 178.951 127.171 179.748 128.101 179.814C128.167 179.814 128.234 179.748 128.366 179.814C128.433 179.748 128.499 179.814 128.566 179.814ZM135.075 180.611C135.031 180.655 135.009 180.678 135.009 180.678C132.285 183.932 130.558 187.851 130.558 192.036V222.392C132.551 221.662 134.677 220.134 136.603 217.809C141.851 211.565 146.301 199.077 143.312 182.471C142.448 177.489 141.12 172.64 139.592 168.123C139.26 173.105 137.666 177.489 135.075 180.611ZM167.69 140.026C172.207 141.554 177.056 142.882 182.037 143.746C198.577 146.735 211.131 142.284 217.375 137.037C219.634 135.11 221.228 132.985 221.959 130.992H191.603C187.418 130.992 183.499 132.719 180.244 135.443C180.244 135.487 180.222 135.509 180.178 135.509C177.056 138.1 172.605 139.694 167.69 140.026ZM168.553 163.208C168.553 164.935 168.022 166.463 167.025 167.459C165.83 168.655 164.103 169.186 161.977 168.987C160.516 168.854 158.988 168.389 157.527 167.592C158.457 169.275 159.475 170.913 160.582 172.507C166.162 180.545 173.137 183.866 177.786 184.265C178.141 184.309 178.473 184.331 178.783 184.331C180.51 184.331 181.971 183.866 182.702 183.135C183.632 182.272 184.03 180.412 183.831 178.22C183.432 173.57 180.111 166.596 172.074 161.016C170.48 159.887 168.819 158.89 167.158 157.96C167.889 159.422 168.354 160.95 168.487 162.477C168.553 162.743 168.553 163.009 168.553 163.208ZM164.103 162.876C163.904 160.817 162.442 157.828 158.855 155.37C156.198 153.51 153.276 152.248 151.084 151.517C151.814 153.776 153.076 156.698 154.936 159.355C157.394 162.876 160.449 164.337 162.376 164.536C163.306 164.603 163.771 164.337 163.837 164.271C163.97 164.204 164.169 163.806 164.103 162.876Z" fill="url(#paint0_linear_1_434)"/>
<path d="M37.7634 77.7197C39.3576 76.1255 39.3576 73.6013 37.7634 72.0736C36.2356 70.4794 33.7115 70.4794 32.1173 72.0736C30.5896 73.6013 30.5896 76.1255 32.1173 77.7197C33.7115 79.2474 36.2356 79.2474 37.7634 77.7197Z" fill="url(#paint1_linear_1_434)"/>
<path d="M77.2196 38.2635C78.7474 36.6693 78.7474 34.1452 77.2196 32.6174C75.6254 31.0232 73.1013 31.0232 71.5735 32.6174C69.9793 34.1452 69.9793 36.6693 71.5735 38.2635C73.1013 39.7912 75.6254 39.7912 77.2196 38.2635Z" fill="url(#paint2_linear_1_434)"/>
<path d="M185.027 38.2635C186.621 36.6693 186.621 34.1452 185.027 32.6174C183.499 31.0232 180.975 31.0232 179.38 32.6174C177.853 34.1452 177.853 36.6693 179.38 38.2635C180.975 39.7912 183.499 39.7912 185.027 38.2635Z" fill="url(#paint3_linear_1_434)"/>
<path d="M224.483 77.7197C226.01 76.1255 226.01 73.6013 224.483 72.0736C222.888 70.4794 220.364 70.4794 218.837 72.0736C217.242 73.6013 217.242 76.1255 218.837 77.7197C220.364 79.2474 222.888 79.2474 224.483 77.7197Z" fill="url(#paint4_linear_1_434)"/>
<path d="M218.837 179.88C217.242 181.408 217.242 183.932 218.837 185.527C220.364 187.054 222.888 187.054 224.483 185.527C226.01 183.932 226.01 181.408 224.483 179.88C222.888 178.286 220.364 178.286 218.837 179.88Z" fill="url(#paint5_linear_1_434)"/>
<path d="M179.38 219.337C177.853 220.864 177.853 223.389 179.38 224.983C180.975 226.51 183.499 226.51 185.027 224.983C186.621 223.389 186.621 220.864 185.027 219.337C183.499 217.742 180.975 217.742 179.38 219.337Z" fill="url(#paint6_linear_1_434)"/>
<path d="M71.5735 219.337C69.9793 220.864 69.9793 223.389 71.5735 224.983C73.1013 226.51 75.6254 226.51 77.2196 224.983C78.7474 223.389 78.7474 220.864 77.2196 219.337C75.6254 217.742 73.1013 217.742 71.5735 219.337Z" fill="url(#paint7_linear_1_434)"/>
<path d="M32.1173 179.88C30.5896 181.408 30.5896 183.932 32.1173 185.527C33.7115 187.054 36.2356 187.054 37.7634 185.527C39.3576 183.932 39.3576 181.408 37.7634 179.88C36.2356 178.286 33.7115 178.286 32.1173 179.88Z" fill="url(#paint8_linear_1_434)"/>
<path d="M255.304 119.169C254.307 121.427 251.65 126.276 247.266 128.534C247.001 128.601 247.001 128.933 247.266 129.066C251.65 131.258 254.307 136.107 255.304 138.432C255.503 138.697 255.901 138.631 255.968 138.299C256.167 135.11 256.3 131.922 256.3 128.8C256.3 125.612 256.167 122.423 255.968 119.301C255.901 118.903 255.503 118.836 255.304 119.169Z" fill="url(#paint9_linear_1_434)"/>
<path d="M137.932 255.804C135.673 254.741 130.824 252.15 128.566 247.766C128.433 247.501 128.167 247.501 128.034 247.766C125.776 252.15 120.927 254.741 118.668 255.804C118.336 255.937 118.469 256.401 118.801 256.468C121.923 256.667 125.112 256.8 128.3 256.8C131.488 256.8 134.677 256.667 137.799 256.468C138.131 256.401 138.264 255.937 137.932 255.804Z" fill="url(#paint10_linear_1_434)"/>
<path d="M1.29636 138.432C2.29272 136.107 4.94971 131.258 9.33372 129.066C9.59942 128.933 9.59942 128.601 9.33372 128.534C4.94971 126.276 2.29272 121.427 1.29636 119.169C1.09708 118.836 0.698535 118.903 0.63211 119.301C0.432837 122.423 0.299988 125.612 0.299988 128.8C0.299988 131.922 0.432837 135.11 0.63211 138.299C0.698535 138.631 1.09708 138.697 1.29636 138.432Z" fill="url(#paint11_linear_1_434)"/>
<path d="M118.668 1.72999C120.927 2.79278 125.776 5.44976 128.034 9.83377C128.167 10.033 128.433 10.033 128.566 9.83377C130.824 5.44976 135.673 2.79278 137.932 1.72999C138.264 1.59714 138.131 1.13217 137.799 1.13217C134.677 0.932898 131.488 0.800049 128.3 0.800049C125.112 0.800049 121.923 0.932898 118.801 1.13217C118.469 1.13217 118.336 1.59714 118.668 1.72999Z" fill="url(#paint12_linear_1_434)"/>
<path d="M50.2512 45.1717C50.2512 48.2272 47.7935 50.6849 44.738 50.6849C41.6824 50.6849 39.2247 48.2272 39.2247 45.1717C39.2247 42.1162 41.6824 39.6584 44.738 39.6584C47.7935 39.6584 50.2512 42.1162 50.2512 45.1717Z" fill="url(#paint13_linear_1_434)"/>
<path d="M217.375 45.1717C217.375 48.2272 214.918 50.6849 211.862 50.6849C208.806 50.6849 206.349 48.2272 206.349 45.1717C206.349 42.1162 208.806 39.6584 211.862 39.6584C214.918 39.6584 217.375 42.1162 217.375 45.1717Z" fill="url(#paint14_linear_1_434)"/>
<path d="M50.2512 212.362C50.2512 215.418 47.7935 217.875 44.738 217.875C41.6824 217.875 39.2247 215.418 39.2247 212.362C39.2247 209.373 41.6824 206.849 44.738 206.849C47.7935 206.849 50.2512 209.373 50.2512 212.362Z" fill="url(#paint15_linear_1_434)"/>
<path d="M217.375 212.362C217.375 215.418 214.918 217.875 211.862 217.875C208.806 217.875 206.349 215.418 206.349 212.362C206.349 209.373 208.806 206.849 211.862 206.849C214.918 206.849 217.375 209.373 217.375 212.362Z" fill="url(#paint16_linear_1_434)"/>
<defs>
<linearGradient id="paint0_linear_1_434" x1="1.36746" y1="255.338" x2="1.36746" y2="1.11492" gradientUnits="userSpaceOnUse">
<stop stop-color="#817365"/>
<stop offset="1" stop-color="#E5AC74"/>
</linearGradient>
<linearGradient id="paint1_linear_1_434" x1="30.9522" y1="78.8641" x2="30.9522" y2="70.8759" gradientUnits="userSpaceOnUse">
<stop stop-color="#817365"/>
<stop offset="1" stop-color="#E5AC74"/>
</linearGradient>
<linearGradient id="paint2_linear_1_434" x1="70.3951" y1="39.4213" x2="70.3951" y2="31.4337" gradientUnits="userSpaceOnUse">
<stop stop-color="#817365"/>
<stop offset="1" stop-color="#E5AC74"/>
</linearGradient>
<linearGradient id="paint3_linear_1_434" x1="178.217" y1="39.4213" x2="178.217" y2="31.4337" gradientUnits="userSpaceOnUse">
<stop stop-color="#817365"/>
<stop offset="1" stop-color="#E5AC74"/>
</linearGradient>
<linearGradient id="paint4_linear_1_434" x1="217.66" y1="78.8641" x2="217.66" y2="70.8766" gradientUnits="userSpaceOnUse">
<stop stop-color="#817365"/>
<stop offset="1" stop-color="#E5AC74"/>
</linearGradient>
<linearGradient id="paint5_linear_1_434" x1="217.66" y1="255.325" x2="217.66" y2="1.14943" gradientUnits="userSpaceOnUse">
<stop stop-color="#817365"/>
<stop offset="1" stop-color="#E5AC74"/>
</linearGradient>
<linearGradient id="paint6_linear_1_434" x1="178.217" y1="255.333" x2="178.217" y2="1.15743" gradientUnits="userSpaceOnUse">
<stop stop-color="#817365"/>
<stop offset="1" stop-color="#E5AC74"/>
</linearGradient>
<linearGradient id="paint7_linear_1_434" x1="70.3951" y1="255.333" x2="70.3951" y2="1.15743" gradientUnits="userSpaceOnUse">
<stop stop-color="#817365"/>
<stop offset="1" stop-color="#E5AC74"/>
</linearGradient>
<linearGradient id="paint8_linear_1_434" x1="30.9522" y1="255.325" x2="30.9522" y2="1.14943" gradientUnits="userSpaceOnUse">
<stop stop-color="#817365"/>
<stop offset="1" stop-color="#E5AC74"/>
</linearGradient>
<linearGradient id="paint9_linear_1_434" x1="272.608" y1="-0.1736" x2="272.608" y2="257.11" gradientUnits="userSpaceOnUse">
<stop stop-color="#817365"/>
<stop offset="1" stop-color="#E5AC74"/>
</linearGradient>
<linearGradient id="paint10_linear_1_434" x1="126.135" y1="257.11" x2="126.135" y2="-0.645354" gradientUnits="userSpaceOnUse">
<stop stop-color="#817365"/>
<stop offset="1" stop-color="#E5AC74"/>
</linearGradient>
<linearGradient id="paint11_linear_1_434" x1="25.8296" y1="-0.616657" x2="25.8296" y2="255.935" gradientUnits="userSpaceOnUse">
<stop stop-color="#817365"/>
<stop offset="1" stop-color="#E5AC74"/>
</linearGradient>
<linearGradient id="paint12_linear_1_434" x1="126.135" y1="10.0032" x2="126.135" y2="0.780786" gradientUnits="userSpaceOnUse">
<stop stop-color="#817365"/>
<stop offset="1" stop-color="#E5AC74"/>
</linearGradient>
<linearGradient id="paint13_linear_1_434" x1="39.2201" y1="255.34" x2="39.2201" y2="0.709106" gradientUnits="userSpaceOnUse">
<stop stop-color="#817365"/>
<stop offset="1" stop-color="#E5AC74"/>
</linearGradient>
<linearGradient id="paint14_linear_1_434" x1="206.361" y1="255.34" x2="206.361" y2="0.709106" gradientUnits="userSpaceOnUse">
<stop stop-color="#817365"/>
<stop offset="1" stop-color="#E5AC74"/>
</linearGradient>
<linearGradient id="paint15_linear_1_434" x1="39.2201" y1="254.896" x2="39.2201" y2="-0.20671" gradientUnits="userSpaceOnUse">
<stop stop-color="#817365"/>
<stop offset="1" stop-color="#E5AC74"/>
</linearGradient>
<linearGradient id="paint16_linear_1_434" x1="206.361" y1="255.782" x2="206.361" y2="0.998905" gradientUnits="userSpaceOnUse">
<stop stop-color="#817365"/>
<stop offset="1" stop-color="#E5AC74"/>
</linearGradient>
</defs>
</svg>
