<svg width="257" height="143" viewBox="0 0 257 143" fill="none" xmlns="http://www.w3.org/2000/svg">
<path fill-rule="evenodd" clip-rule="evenodd" d="M60.5207 115.438L50.0376 99.4367C38.6015 107.703 36.2523 115.062 26.567 121.422C18.3002 126.83 3.29586 125.523 0.990909 122.043C-1.29188 118.541 3.49533 104.246 11.74 98.8383C21.4474 92.4775 29.1158 93.2532 41.2611 86.0502L30.778 70.0485L49.5279 57.748L79.2928 103.116L60.5207 115.438ZM16.505 111.87C14.9314 109.476 11.7178 108.789 9.3242 110.363C6.90843 111.937 6.24354 115.172 7.81711 117.566C9.39069 119.96 12.6265 120.647 15.0201 119.073C17.4137 117.5 18.0786 114.264 16.505 111.87Z" fill="#7F8B8C"/>
<path d="M250.813 81.9047L243.521 93.0305L133.859 16.7012L62.3385 66.4793L55.0469 55.3534L133.859 0.5L250.813 81.9047Z" fill="url(#paint0_linear_40_8905)"/>
<path d="M240.31 97.9288L233.018 109.055L133.861 40.0391L72.8463 82.5034L65.5547 71.3775L133.861 23.8379L240.31 97.9288Z" fill="url(#paint1_linear_40_8905)"/>
<path d="M229.803 113.953L222.512 125.079L133.86 63.3769L83.3502 98.5275L76.0586 87.4016L133.86 47.1758L229.803 113.953Z" fill="url(#paint2_linear_40_8905)"/>
<path d="M229.803 113.953L222.512 125.079L133.86 63.3769L83.3502 98.5275L76.0586 87.4016L133.86 47.1758L229.803 113.953Z" fill="url(#paint3_linear_40_8905)"/>
<path d="M131.466 101.431H118.168V88.1328H131.466V101.431Z" fill="url(#paint4_linear_40_8905)"/>
<path d="M149.575 101.431H136.277V88.1328H149.575V101.431Z" fill="url(#paint5_linear_40_8905)"/>
<path d="M131.466 119.538H118.168V106.24H131.466V119.538Z" fill="url(#paint6_linear_40_8905)"/>
<path d="M149.575 119.538H136.277V106.24H149.575V119.538Z" fill="url(#paint7_linear_40_8905)"/>
<path style="mix-blend-mode:overlay" d="M209.504 53.1602L243.524 93.0314L250.816 81.9056L209.504 53.1602Z" fill="url(#paint8_linear_40_8905)"/>
<path style="mix-blend-mode:overlay" d="M243.524 93.0296L250.816 81.9038L187.496 54.0449L243.524 93.0296Z" fill="url(#paint9_linear_40_8905)"/>
<path style="mix-blend-mode:overlay" d="M142.926 30.1309L233.018 109.053L240.31 97.9275L142.926 30.1309Z" fill="url(#paint10_linear_40_8905)"/>
<path style="mix-blend-mode:overlay" d="M147.379 49.4355L233.017 109.054L240.308 97.9282L224.484 86.891L147.379 49.4355Z" fill="url(#paint11_linear_40_8905)"/>
<path style="mix-blend-mode:overlay" d="M139.668 51.209L222.513 125.078L229.805 113.952L139.668 51.209Z" fill="url(#paint12_linear_40_8905)"/>
<path style="mix-blend-mode:overlay" d="M229.803 113.953L223.553 109.609L133.859 63.377L222.511 125.079L229.803 113.953Z" fill="url(#paint13_linear_40_8905)"/>
<path style="mix-blend-mode:overlay" d="M76.0586 87.4013L83.3502 98.5272L119.986 56.8164L76.0586 87.4013Z" fill="url(#paint14_linear_40_8905)"/>
<path style="mix-blend-mode:overlay" d="M90.5975 77.2949L76.0586 87.4012L83.3502 98.5271L112.273 78.4031L90.5975 77.2949Z" fill="url(#paint15_linear_40_8905)"/>
<path style="mix-blend-mode:overlay" d="M65.5547 71.3773L72.8463 82.5032L108.108 41.7676L65.5547 71.3773Z" fill="url(#paint16_linear_40_8905)"/>
<path style="mix-blend-mode:overlay" d="M72.8463 82.5024L119.987 49.7012L79.9606 61.3589L65.5547 71.3766L72.8463 82.5024Z" fill="url(#paint17_linear_40_8905)"/>
<path style="mix-blend-mode:overlay" d="M62.3385 66.4788L86.5848 49.6127L106.997 19.2051L55.0469 55.3529L62.3385 66.4788Z" fill="url(#paint18_linear_40_8905)"/>
<path style="mix-blend-mode:overlay" d="M84.8118 34.6318L55.0469 55.3542L62.3385 66.48L113.646 30.7754L84.8118 34.6318Z" fill="url(#paint19_linear_40_8905)"/>
<path style="mix-blend-mode:overlay" d="M38.4922 64.9954L79.2943 103.116L49.5294 57.748L38.4922 64.9954Z" fill="url(#paint20_linear_40_8905)"/>
<path style="mix-blend-mode:overlay" d="M79.2962 103.116L49.5312 57.748L63.915 113.222L79.2962 103.116Z" fill="url(#paint21_linear_40_8905)"/>
<path style="mix-blend-mode:overlay" fill-rule="evenodd" clip-rule="evenodd" d="M26.569 121.422C18.3022 126.83 3.29786 125.522 0.992909 122.043C-0.757969 119.361 1.63564 110.385 6.55582 103.869C14.9778 109.609 27.4334 111.405 37.0521 111.826C34.038 115.239 31.1124 118.43 26.569 121.422ZM16.507 111.848C14.9334 109.454 11.7198 108.789 9.3262 110.363C6.91043 111.936 6.24554 115.15 7.81911 117.566C9.39268 119.959 12.6285 120.624 15.0221 119.051C17.4157 117.477 18.0806 114.264 16.507 111.848Z" fill="url(#paint22_linear_40_8905)"/>
<path style="mix-blend-mode:overlay" fill-rule="evenodd" clip-rule="evenodd" d="M0.990909 122.043C-1.29188 118.541 3.49533 104.246 11.74 98.8382C15.9731 96.0678 19.8073 94.6494 23.7966 93.3418C21.7133 99.7026 18.81 111.227 19.5857 124.237C11.7178 126.054 2.71962 124.68 0.990909 122.043ZM15.0201 119.051C17.4137 117.477 18.0786 114.264 16.505 111.848C14.9314 109.454 11.7178 108.789 9.3242 110.363C6.90843 111.937 6.24354 115.15 7.81711 117.566C9.39068 119.96 12.6265 120.624 15.0201 119.051Z" fill="url(#paint23_linear_40_8905)"/>
<path d="M222.755 135.606H0.4375V142.056H250.813H256.42V84.0996L222.755 135.606Z" fill="url(#paint24_linear_40_8905)"/>
<defs>
<linearGradient id="paint0_linear_40_8905" x1="261.49" y1="108.476" x2="5.43054" y2="78.148" gradientUnits="userSpaceOnUse">
<stop stop-color="#FDBA24"/>
<stop offset="0.6" stop-color="#F37A20"/>
<stop offset="1" stop-color="#F05D22"/>
</linearGradient>
<linearGradient id="paint1_linear_40_8905" x1="280.285" y1="143.964" x2="-53.7035" y2="65.2383" gradientUnits="userSpaceOnUse">
<stop stop-color="#F77CFE"/>
<stop offset="1" stop-color="#4902A6"/>
</linearGradient>
<linearGradient id="paint2_linear_40_8905" x1="251.111" y1="161.895" x2="-19.2527" y2="77.4577" gradientUnits="userSpaceOnUse">
<stop stop-color="#1ECCFE"/>
<stop offset="1" stop-color="#1B43C4"/>
</linearGradient>
<linearGradient id="paint3_linear_40_8905" x1="251.111" y1="161.895" x2="-19.2527" y2="77.4577" gradientUnits="userSpaceOnUse">
<stop stop-color="#1ECCFE"/>
<stop offset="1" stop-color="#1B43C4"/>
</linearGradient>
<linearGradient id="paint4_linear_40_8905" x1="131.466" y1="75.0507" x2="131.466" y2="160.374" gradientUnits="userSpaceOnUse">
<stop stop-color="#1ECCFE"/>
<stop offset="1" stop-color="#1B43C4"/>
</linearGradient>
<linearGradient id="paint5_linear_40_8905" x1="149.568" y1="75.0507" x2="149.568" y2="160.374" gradientUnits="userSpaceOnUse">
<stop stop-color="#1ECCFE"/>
<stop offset="1" stop-color="#1B43C4"/>
</linearGradient>
<linearGradient id="paint6_linear_40_8905" x1="131.466" y1="75.0511" x2="131.466" y2="160.374" gradientUnits="userSpaceOnUse">
<stop stop-color="#1ECCFE"/>
<stop offset="1" stop-color="#1B43C4"/>
</linearGradient>
<linearGradient id="paint7_linear_40_8905" x1="149.568" y1="75.0511" x2="149.568" y2="160.374" gradientUnits="userSpaceOnUse">
<stop stop-color="#1ECCFE"/>
<stop offset="1" stop-color="#1B43C4"/>
</linearGradient>
<linearGradient id="paint8_linear_40_8905" x1="306.944" y1="75.6556" x2="204.267" y2="106.66" gradientUnits="userSpaceOnUse">
<stop stop-color="#F1F2F2"/>
<stop offset="1" stop-color="#F1F2F2"/>
</linearGradient>
<linearGradient id="paint9_linear_40_8905" x1="201.408" y1="160.116" x2="208.599" y2="27.4167" gradientUnits="userSpaceOnUse">
<stop stop-color="#F1F2F2"/>
<stop offset="1" stop-color="#F1F2F2"/>
</linearGradient>
<linearGradient id="paint10_linear_40_8905" x1="664.77" y1="-482.429" x2="49.7278" y2="342.133" gradientUnits="userSpaceOnUse">
<stop stop-color="#F1F2F2"/>
<stop offset="1" stop-color="#F1F2F2"/>
</linearGradient>
<linearGradient id="paint11_linear_40_8905" x1="91.5811" y1="310.481" x2="212.364" y2="-68.688" gradientUnits="userSpaceOnUse">
<stop stop-color="#F1F2F2"/>
<stop offset="1" stop-color="#F1F2F2"/>
</linearGradient>
<linearGradient id="paint12_linear_40_8905" x1="616.634" y1="-273.88" x2="-32.5018" y2="370.913" gradientUnits="userSpaceOnUse">
<stop stop-color="#F1F2F2"/>
<stop offset="1" stop-color="#F1F2F2"/>
</linearGradient>
<linearGradient id="paint13_linear_40_8905" x1="163.052" y1="179.344" x2="160.831" y2="65.3178" gradientUnits="userSpaceOnUse">
<stop stop-color="#F1F2F2"/>
<stop offset="1" stop-color="#F1F2F2"/>
</linearGradient>
<linearGradient id="paint14_linear_40_8905" x1="18.7918" y1="-18.1258" x2="192.1" y2="113.044" gradientUnits="userSpaceOnUse">
<stop stop-color="#231F20"/>
<stop offset="1" stop-color="#231F20"/>
</linearGradient>
<linearGradient id="paint15_linear_40_8905" x1="84.6317" y1="168.007" x2="88.8943" y2="50.9784" gradientUnits="userSpaceOnUse">
<stop stop-color="#231F20"/>
<stop offset="1" stop-color="#231F20"/>
</linearGradient>
<linearGradient id="paint16_linear_40_8905" x1="6.42601" y1="-15.6836" x2="180.248" y2="84.2801" gradientUnits="userSpaceOnUse">
<stop stop-color="#231F20"/>
<stop offset="1" stop-color="#231F20"/>
</linearGradient>
<linearGradient id="paint17_linear_40_8905" x1="84.6009" y1="148.28" x2="81.3982" y2="25.3757" gradientUnits="userSpaceOnUse">
<stop stop-color="#231F20"/>
<stop offset="1" stop-color="#231F20"/>
</linearGradient>
<linearGradient id="paint18_linear_40_8905" x1="90.1389" y1="-43.2773" x2="119.488" y2="104.575" gradientUnits="userSpaceOnUse">
<stop stop-color="#231F20"/>
<stop offset="1" stop-color="#231F20"/>
</linearGradient>
<linearGradient id="paint19_linear_40_8905" x1="74.9422" y1="125.08" x2="72.1477" y2="14.5015" gradientUnits="userSpaceOnUse">
<stop stop-color="#231F20"/>
<stop offset="1" stop-color="#231F20"/>
</linearGradient>
<linearGradient id="paint20_linear_40_8905" x1="118.273" y1="-29.1247" x2="79.9071" y2="119.404" gradientUnits="userSpaceOnUse">
<stop stop-color="#F1F2F2"/>
<stop offset="1" stop-color="#F1F2F2"/>
</linearGradient>
<linearGradient id="paint21_linear_40_8905" x1="125.704" y1="114.891" x2="42.307" y2="113.654" gradientUnits="userSpaceOnUse">
<stop stop-color="#F1F2F2"/>
<stop offset="1" stop-color="#F1F2F2"/>
</linearGradient>
<linearGradient id="paint22_linear_40_8905" x1="29.2738" y1="222.738" x2="7.34005" y2="94.2692" gradientUnits="userSpaceOnUse">
<stop stop-color="#231F20"/>
<stop offset="1" stop-color="#231F20"/>
</linearGradient>
<linearGradient id="paint23_linear_40_8905" x1="-31.6889" y1="31.3153" x2="40.1139" y2="99.4825" gradientUnits="userSpaceOnUse">
<stop stop-color="#231F20"/>
<stop offset="1" stop-color="#231F20"/>
</linearGradient>
<linearGradient id="paint24_linear_40_8905" x1="273.232" y1="134.382" x2="-133.879" y2="156.999" gradientUnits="userSpaceOnUse">
<stop stop-color="#FDBA24"/>
<stop offset="0.6" stop-color="#F37A20"/>
<stop offset="1" stop-color="#F05D22"/>
</linearGradient>
</defs>
</svg>
