<svg width="257" height="174" viewBox="0 0 257 174" fill="none" xmlns="http://www.w3.org/2000/svg">
<path d="M161.051 93.7383L167.654 93.7109C167.628 96.2311 167.627 98.7514 167.649 101.272L161.056 101.304L161.051 93.7383Z" fill="#18264E"/>
<path d="M178.467 93.7324H185.081V101.282L178.445 101.315L178.467 93.7324Z" fill="#18264E"/>
<path d="M178.529 84.7266L185.061 84.7375V92.3857L178.496 92.4021C178.523 89.8418 178.474 87.2869 178.529 84.7266Z" fill="#18264E"/>
<path d="M161.059 84.7812H167.722L167.717 92.4075L161.064 92.3474L161.059 84.7812Z" fill="#18264E"/>
<path d="M175.558 84.7485C175.914 84.7539 176.083 84.7102 176.379 84.9181C176.658 87.2869 176.45 89.9293 176.444 92.331L170.634 92.3365C170.301 92.3474 170.093 92.3474 169.781 92.2106C169.469 90.1263 169.721 86.9806 169.726 84.7868L175.558 84.7485Z" fill="#18264E"/>
<path d="M178.539 102.562H185.071L185.088 110.364C182.907 110.349 180.724 110.355 178.539 110.38V102.562Z" fill="#18264E"/>
<path d="M169.722 93.7109H176.445L176.451 101.293L169.711 101.288L169.722 93.7109Z" fill="#18264E"/>
<path d="M169.754 102.621C171.997 102.676 174.245 102.643 176.483 102.643C176.439 105.22 176.461 107.796 176.45 110.368C174.218 110.357 171.981 110.346 169.754 110.461V102.621Z" fill="#18264E"/>
<path d="M161.012 102.557L167.713 102.562L167.702 110.446H161.017L161.012 102.557Z" fill="#18264E"/>
<path d="M157.652 81.7344L176.406 81.7453C180.383 81.7563 184.361 81.8657 188.333 81.7617C188.25 85.3177 188.316 88.8956 188.316 92.4571L188.283 113.148C180.358 113.129 172.433 113.155 164.507 113.224C163.512 112.639 162.445 112.163 161.4 111.66L185.931 111.638C186.199 111.643 186.374 111.665 186.62 111.534C186.691 111.402 186.762 111.293 186.784 111.14C186.861 110.527 186.757 109.756 186.757 109.121L186.768 103.366L186.801 83.5014L159.441 83.485C159.288 92.5118 159.376 101.577 159.436 110.609C158.823 110.303 158.249 109.925 157.669 109.564L157.652 81.7344Z" fill="#18264E"/>
<path d="M94.1569 100.725C98.818 100.73 103.485 100.785 108.146 100.73C108.146 102.256 108.293 114.309 107.949 114.735L107.445 114.834C105.996 114.719 104.491 114.79 103.036 114.795C100.202 114.832 97.3701 114.814 94.5398 114.741L94.2335 114.637C93.9545 113.849 94.1569 102.524 94.1569 100.725Z" fill="#18264E"/>
<path d="M94.9571 102.436C94.9626 102.092 94.9188 101.742 95.1486 101.457C96.5601 101.293 98.0755 101.408 99.5034 101.413C102.118 101.428 104.733 101.455 107.348 101.495C106.998 105.336 107.299 110.167 107.266 114.138L95.0337 114.111L95.0283 106.643C95.0283 105.259 95.1049 103.81 94.9571 102.436Z" fill="white"/>
<path d="M96.3633 108.312L100.587 108.307L100.592 112.754L96.3633 112.743V108.312Z" fill="#18264E"/>
<path d="M101.719 108.273H105.997L106.008 112.759L101.719 112.749V108.273Z" fill="#18264E"/>
<path d="M101.745 102.71L105.947 102.699L105.963 107.213C104.689 107.464 103.047 107.284 101.734 107.289L101.745 102.71Z" fill="#18264E"/>
<path d="M96.3242 102.709H100.586L100.591 107.272H96.3297L96.3242 102.709Z" fill="#18264E"/>
<path d="M194.846 44.8496C195.65 44.8879 206.17 51.4528 207.691 52.3829C207.74 53.5099 207.729 54.6204 207.696 55.7474C206.991 55.3973 206.301 55.0253 205.623 54.6259C205.344 57.2738 205.541 60.1295 205.541 62.7993L205.535 78.6262C204.337 77.3953 203.161 76.137 201.974 74.8897C202.494 74.9608 202.937 75.0976 203.424 74.8788C203.659 74.4028 203.539 73.7244 203.517 73.2047C202.127 72.6248 200.759 71.9792 199.392 71.3556C200.732 71.6018 202.089 71.7987 203.435 72.0121L203.44 69.8128C202.001 68.8828 200.316 68.467 198.806 67.6628C200.311 67.9801 201.881 68.177 203.418 68.3193L203.413 65.8301C201.93 65.0696 200.322 64.5061 198.79 63.8551C200.338 64.1287 201.886 64.5882 203.418 64.9602L203.407 62.657C201.653 61.6395 199.871 60.6748 198.062 59.763C198.834 59.938 199.594 60.1733 200.355 60.3866C201.372 60.693 202.395 60.9173 203.435 61.1307L203.407 59.0901C201.828 58.2293 200.265 57.3431 198.719 56.4313C200.298 56.9346 201.892 57.3814 203.5 57.7716V56.0428C201.782 55.0508 200.076 54.0405 198.38 53.012C200.212 53.6193 202.094 54.1664 203.982 54.5712C202.423 53.1105 198.095 50.7745 196.033 49.4943C196.098 55.6654 196.022 61.8419 196.137 68.0184C192.832 64.1505 189.375 60.4195 186.142 56.4914V51.803L183.762 52.7549L183.773 49.084C187.389 47.5248 191.207 46.3869 194.846 44.8496Z" fill="#18264E"/>
<path d="M186.49 1.58203C186.517 1.75163 186.473 1.85557 186.397 2.01422C186.036 2.7309 185.39 3.48586 184.925 4.1533C183.415 6.31426 181.851 8.39316 180.248 10.4775L167.271 27.2236C162.245 33.8287 157.121 40.359 151.898 46.8145C150.47 48.6089 147.702 52.6135 146.061 53.932C144.989 54.7909 135.694 57.953 133.921 58.5329L133.91 58.3797C134.796 57.0832 136.208 55.8796 137.258 54.6924L147.177 43.7126C157.52 32.1145 168.061 20.697 178.798 9.45996C181.358 6.82304 183.858 4.1533 186.49 1.58203Z" fill="#33678A"/>
<path d="M211.127 1.375L211.16 1.43518C211.007 3.38825 181.41 42.3457 177.799 46.8919C176.552 45.8142 175.414 44.5887 174.194 43.4727C170.846 44.7529 167.547 46.1643 164.188 47.4281L161.496 48.4292C163.635 46.405 165.916 44.5231 168.061 42.5044C178.642 32.4928 189.156 22.4138 199.606 12.2673C202.232 9.71248 204.885 7.14121 207.56 4.63559C208.731 3.54143 210.038 2.54575 211.127 1.375Z" fill="#33678A"/>
<path d="M70.0608 166.904C71.3573 167.052 74.5304 165.99 75.9583 165.695L97.1576 161.253C112.946 157.97 128.801 155.043 144.578 151.662L157.106 148.938C158.343 148.675 160.061 148.068 161.313 148.134C163.409 148.243 170.876 150.99 173.415 151.81C178.585 153.484 183.787 155.038 188.941 156.75C181.451 157.828 173.82 158.424 166.286 159.179L120.78 163.6L86.6044 166.877C81.9032 167.376 77.1983 167.818 72.4898 168.201C70.4601 168.381 68.3867 168.726 66.3516 168.764C66.3734 168.737 66.3953 168.704 66.4172 168.677C67.112 167.905 69.0323 167.03 70.0608 166.904Z" fill="#33678A"/>
<path d="M169.891 48.2363L169.978 48.3348C169.573 49.2484 161.761 57.8485 160.443 59.353L140.928 81.6191C136.568 86.6303 132.295 91.7236 127.815 96.6254C126.524 94.8146 124.937 93.2335 123.476 91.5704L116.616 83.6159L108.388 74.2116C106.555 72.0835 104.783 69.9171 102.879 67.8491L111.151 67.871C112.732 67.8764 114.477 68.0296 116.031 67.7725C117.634 67.5099 119.204 66.8096 120.725 66.2516L127.459 63.8171C137.443 60.283 147.351 56.5191 157.291 52.8701C161.476 51.3328 165.618 49.5274 169.891 48.2363Z" fill="#18264E"/>
<path d="M142.595 131.738C146.764 133.401 150.951 135.024 155.156 136.607C158.269 137.8 161.377 139.058 164.561 140.059C151.453 143.397 138.47 147.237 125.444 150.875C106.888 155.89 88.4255 161.233 70.0582 166.904C69.0297 167.03 67.1095 167.906 66.4147 168.677C66.3928 168.704 66.3709 168.737 66.349 168.765C62.5523 169.257 58.7173 169.552 54.9041 169.93L37.8462 171.604C35.2567 171.83 32.669 172.067 30.0832 172.315C28.3818 172.485 26.6366 172.747 24.9297 172.714C63.8635 158.224 103.085 144.565 142.595 131.738Z" fill="#18264E"/>
<path d="M133.389 6.4082L133.427 6.50121L133.121 6.76927C133.214 6.94434 133.165 6.8951 133.296 7.00999C133.329 7.03187 133.356 7.05376 133.384 7.08111C132.968 6.98811 133.023 7.09752 132.749 7.41483L120.117 22.2297C103.584 41.6984 86.7416 60.8918 69.5888 79.8097C54.3618 96.8567 38.657 113.45 22.4744 129.588L13.836 138.161C13.1522 138.84 12.2878 140.043 11.4727 140.497C11.6094 139.934 23.5576 125.529 24.9144 123.877C35.8286 110.556 47.082 97.5187 57.7938 84.0332C62.4841 78.0263 67.0777 71.9482 71.5747 65.7991C76.9251 58.3041 82.3193 50.738 87.1774 42.9148C81.6355 47.7673 76.6407 53.2491 71.3504 58.3697C58.1184 71.434 44.6785 84.2776 31.0307 96.9005C28.3938 99.2967 25.8389 101.775 23.1528 104.111C24.6901 101.912 26.4134 99.8273 28.071 97.7156C31.8459 92.956 35.6681 88.2293 39.5378 83.5354L67.3786 50.366C72.368 44.5177 77.2534 38.5874 82.2865 32.7829C84.1247 30.6547 85.8535 28.2804 87.8722 26.3328C91.4501 30.1241 95.2851 33.6801 98.9834 37.3564C101.533 35.2994 103.945 32.9798 106.407 30.8134C115.511 22.7987 124.275 14.401 133.389 6.4082Z" fill="#33678A"/>
<path d="M176.612 0.400391C176.628 1.09518 172.87 5.34051 172.181 6.17207C161.826 18.4959 151.164 30.5481 140.193 42.3285C136.392 46.4571 132.612 50.6058 128.852 54.7745C126.385 57.488 123.813 60.1085 121.625 63.0573C119.738 63.7411 117.577 64.6548 115.591 64.9228C113.944 65.1471 112.144 65.0158 110.481 65.0158C113.069 61.2957 115.793 57.6741 118.392 53.9649C122.458 48.1476 126.377 42.2337 130.148 36.2231C121.424 44.2141 112.912 52.4239 104.611 60.8526C96.3098 69.2812 88.2313 77.9178 80.3752 86.7622C75.3914 92.2877 70.5935 97.9828 65.6315 103.53C56.3968 113.906 47.0308 124.164 37.5335 134.303C34.6887 137.34 31.8822 140.442 28.917 143.358C27.5274 144.725 26.0175 145.978 24.6006 147.318C22.7569 149.069 20.9133 151.066 18.8672 152.559C22.4888 148.112 26.2199 143.762 29.8033 139.287C41.0348 125.227 52.0092 110.987 63.569 97.195C73.7228 85.0772 84.3087 73.3424 94.7032 61.427L140.959 8.54092C144.63 12.5784 148.525 16.4298 152.327 20.3469C154.083 19.0777 155.719 17.5568 157.404 16.1836C163.838 10.9645 170.025 5.42804 176.612 0.400391Z" fill="#CB212A"/>
<path d="M142.459 106.178C144.702 106.96 147.853 109.083 150.053 110.281L167.499 119.696C174.649 123.537 181.964 127.098 189.147 130.873C195.996 134.478 247.088 161.876 247.952 163.495C246.721 162.855 245.173 162.483 243.849 162.034C241.907 161.372 239.981 160.656 238.05 159.956L214.116 151.273C199.753 145.927 185.425 140.492 171.132 134.97C161.667 131.327 152.148 127.848 142.755 124.012C138.706 125.676 134.505 127.032 130.374 128.482L108.398 136.114C99.1378 139.269 89.9031 142.498 80.694 145.803L57.2298 153.812C38.3556 160.548 19.3792 166.986 0.300781 173.124C0.393785 173.058 0.492259 172.992 0.590733 172.921C2.28121 171.762 4.25616 170.908 6.06699 169.94C10.7245 167.482 15.4074 165.074 20.116 162.718C29.0261 158.13 38.0018 153.675 47.0432 149.353C62.4927 142.126 78.1884 135.479 93.7965 128.619C105.088 123.553 116.325 118.37 127.508 113.071C132.475 110.757 137.415 108.306 142.459 106.178Z" fill="#CB212A"/>
<path d="M173.682 47.498C173.791 47.5363 173.889 47.5965 173.982 47.6676C175.038 48.4937 176.772 50.7805 177.801 51.8856C182.305 56.7218 186.749 61.6145 191.133 66.5637L202.841 79.4584C204.887 81.7288 206.845 84.0703 208.919 86.3187L221.627 100.335C223.488 102.392 225.468 104.361 227.268 106.468C227.53 106.769 227.782 107.004 227.842 107.409C229.609 107.015 232.624 105.658 234.456 105.029C241.776 102.501 249.058 99.8644 256.301 97.1181C254.994 98.6718 200.532 128.334 196.079 129.866C194.744 129.467 186.724 124.844 185.291 123.81C194.137 120.227 203.153 117.026 212.065 113.613C213.755 112.961 219.094 111.189 220.293 110.39C220.145 109.444 208.733 97.326 206.791 95.2142L183.567 69.4742C181.714 67.4427 179.876 65.3985 178.053 63.3414C176.658 61.7549 175.306 59.9496 173.687 58.6037C171.997 60.6006 170.136 62.4989 168.397 64.452L152.712 81.9312C147.307 88.022 141.86 94.0763 136.371 100.094C133.712 103.01 131.102 106.014 128.323 108.815C125.325 105.144 122.092 101.642 118.974 98.07C114.075 92.4096 109.128 86.7911 104.131 81.2145C102.31 81.4607 100.433 81.5975 98.595 81.6193C97.9056 82.5986 96.9483 83.5122 96.155 84.4204C98.77 84.4313 104.613 84.4587 107.004 84.9729C103.004 85.3997 99.0107 85.531 95.0007 85.7498C94.4153 86.5978 93.7095 87.3746 93.0476 88.1624C97.5938 88.5837 102.206 88.332 106.752 88.6165C105.685 88.994 104.181 88.9283 103.048 89.0104C99.2952 89.2784 95.4711 89.3167 91.7346 89.7599C91.007 90.5258 90.3724 91.4394 89.7104 92.2764C92.8561 92.2655 96.0073 92.3968 99.153 92.4679C101.172 92.5117 103.234 92.446 105.253 92.6211C99.6672 93.1901 93.9995 93.3651 88.3974 93.6934C87.6862 94.4629 86.9914 95.2507 86.313 96.0567C91.7127 96.4397 97.1397 96.5054 102.55 96.6257C100.822 97.1181 98.2339 96.9758 96.3957 97.0743L85.0438 97.7746C84.3053 98.5733 83.6269 99.4377 82.9321 100.269C84.3654 100.277 85.7951 100.309 87.2212 100.368C89.1907 100.515 91.1656 100.603 93.1351 100.794C92.7522 101.188 82.9595 101.588 81.6355 101.659C80.9243 102.474 80.2733 103.344 79.6168 104.197L87.254 104.487C88.7092 104.547 90.2247 104.52 91.6635 104.761C87.2759 105.259 82.7844 105.494 78.3695 105.691C77.6309 106.451 76.9689 107.255 76.3289 108.109C80.9462 108.399 85.6073 108.415 90.2356 108.651C88.4084 108.962 86.5045 108.995 84.6554 109.116C81.4422 109.338 78.2254 109.519 75.0049 109.657C74.1898 110.429 73.4567 111.287 72.7017 112.124C78.1069 112.387 83.5339 112.42 88.9445 112.655C87.1173 112.983 85.1587 112.978 83.3096 113.076C79.387 113.284 75.4317 113.399 71.52 113.738C70.7815 114.384 70.1961 115.254 69.5889 116.02C73.3345 116.078 77.0802 116.166 80.8258 116.282C83.3151 116.337 85.7988 116.326 88.2825 116.452C86.7835 116.906 83.4901 116.813 81.8325 116.889C77.3136 117.092 72.6798 117.201 68.1883 117.694C67.5482 118.378 66.9519 119.1 66.3392 119.805C68.2376 120.095 70.2727 120.063 72.1875 120.139C76.9416 120.325 81.7121 120.325 86.4608 120.56L86.4662 120.61C85.673 120.905 80.4429 120.96 79.2612 121.02C74.3867 121.261 69.5123 121.605 64.6378 121.753C64.0761 122.428 63.5218 123.11 62.9747 123.799C65.8961 124.155 82.8227 124.341 83.4299 124.592C81.8708 124.997 78.3749 124.871 76.5039 124.959L61.0325 125.801L59.2655 127.962C65.5022 127.913 71.7936 128.488 78.0357 128.646L78.0959 128.739L78.5281 128.706C78.3695 128.854 78.178 128.871 77.9701 128.887C76.2687 129.035 74.5235 129.04 72.8111 129.111C67.6905 129.336 62.4549 129.45 57.3562 129.97L55.4633 132.027C60.7426 132.421 66.0602 132.35 71.3504 132.771C69.0746 133.285 66.7057 133.329 64.3807 133.422C60.8356 133.559 57.203 133.614 53.6962 134.128L51.7267 136.349C55.2827 136.491 58.8497 136.366 62.4057 136.552C55.6001 139.046 49.0898 142.159 42.5577 145.277C39.1549 146.908 35.5606 148.412 32.3711 150.442C33.5911 148.664 35.1721 147.066 36.5891 145.442L44.3795 136.562C47.2188 133.346 49.9433 130.036 52.7334 126.775L62.1923 115.883C64.594 113.098 66.9136 110.253 69.2934 107.452L87.8449 85.6021L95.958 76.061C97.8236 73.8563 99.6289 71.5804 101.577 69.4468C106.145 75.0599 111.063 80.4376 115.85 85.8647C119.887 90.4382 123.821 95.1103 127.886 99.6565C130.222 97.047 132.454 94.3389 134.773 91.7075L159.436 63.5931C162.218 60.369 165.018 57.1595 167.833 53.9645C169.726 51.7762 171.548 49.4566 173.682 47.498Z" fill="#18264E"/>
<path d="M101.38 78.2285C102.222 78.7209 103.07 80.0284 103.71 80.7834C103.185 80.7888 102.654 80.767 102.129 80.7505C101.265 80.6958 100.406 80.6028 99.5469 80.4989C100.067 79.6947 100.767 78.9616 101.38 78.2285Z" fill="white"/>
</svg>
