<svg width="215" height="257" viewBox="0 0 215 257" fill="none" xmlns="http://www.w3.org/2000/svg">
<path fill-rule="evenodd" clip-rule="evenodd" d="M112.039 185.195C126.58 220.883 106.233 218.393 89.3004 222.363C84.1506 223.571 75.707 229.151 69.6383 229.205C44.8945 229.427 20.3631 219.554 9.31641 193.767C9.31641 193.767 34.4756 263.563 106.201 240.467C177.926 217.371 112.039 185.195 112.039 185.195Z" fill="#70F1FF"/>
<path fill-rule="evenodd" clip-rule="evenodd" d="M112.403 189.211C112.403 189.211 124.18 212.63 109.805 224.144C106.381 226.886 96.9066 225.478 91.2682 226.992C84.1828 228.895 78.3604 233.722 69.5447 233.271C46.0645 232.07 19.9255 221.7 9.67969 197.783C9.67969 197.783 34.8389 267.578 106.565 244.482C178.29 221.387 112.403 189.211 112.403 189.211Z" fill="#65D9F0"/>
<path fill-rule="evenodd" clip-rule="evenodd" d="M109.441 66.1406C109.441 66.1406 80.9028 84.0349 83.3478 108.161C85.7934 132.288 101.092 160.741 96.6574 176.84C96.6574 176.84 104.944 162.169 97.1538 142.414C89.3633 122.658 82.784 86.0477 109.441 66.1406Z" fill="#D75D86"/>
<path fill-rule="evenodd" clip-rule="evenodd" d="M66.8082 95.2656C65.7617 98.7928 65.3969 102.593 66.2574 106.492C69.8273 122.661 82.2693 140.69 80.6285 151.988C80.6285 151.988 84.9384 141.337 78.1783 128.582C74.9188 122.434 71.5329 113.605 70.695 104.347C69.2603 101.398 67.893 98.2932 66.8082 95.2656Z" fill="#E289A7"/>
<path d="M40.6956 140.417C53.678 145.249 57.964 149.859 60.731 166.261C64.4616 158.84 63.6205 143.005 40.6956 140.417ZM22.395 100.314C38.6939 123.053 -0.376944 146.757 6.5821 161.701C10.6853 138.493 41.203 124.934 22.395 100.314ZM105.394 45.6792C105.394 45.6792 91.0757 50.7869 87.2452 59.4865C83.4135 68.1855 88.886 76.7704 82.6417 84.4299C82.6417 84.4299 88.017 78.995 89.1711 69.2871C90.3259 59.5792 94.525 54.211 105.394 45.6792ZM103.77 39.4362C47.8031 57.4193 68.0238 96.623 80.5979 128.22C70.5899 95.9957 56.6615 64.2092 103.77 39.4362ZM96.7678 135.722C98.6192 147.59 129.725 165.984 114.382 181.264C137.3 167.572 100.937 146.153 96.7678 135.722ZM155.772 199.347C155.935 210.772 152.254 221.418 144.727 231.281C101.478 287.963 -12.9815 242.186 1.2567 156.629C4.88106 134.853 32.9752 126.872 18.9916 97.7609C33.6115 97.0986 44.8909 114.449 40.9522 135.827C42.711 137.169 79.2332 139.335 63.3522 172.233C28.4902 146.433 -19.312 184.857 38.0122 228.596C50.9375 238.458 68.9459 240.231 81.809 239.417C134.663 236.075 106.331 207.676 106.157 196.604C105.91 181.052 119.389 177.481 113.888 165.37C110.477 157.861 100.062 147.935 92.662 137.419C94.1583 160.423 96.7989 183.013 91.9453 197.283C85.5798 215.993 61.1872 224.28 46.3943 215.751C24.9333 203.379 34.0224 170.778 56.537 175.886C45.0911 190.587 54.5282 201.325 64.3307 205.636C75.117 210.38 82.0514 206.045 87.0016 195.83C94.7966 179.741 88.5231 155.563 84.4698 145.619C72.1477 115.397 51.0386 85.0449 67.6816 57.6844C79.2513 38.6631 98.9426 31.2926 121.008 40.2048C120.951 40.2508 120.895 40.2974 120.84 40.3441C124.15 42.456 126.726 44.7966 127.882 46.9033C129.707 50.2224 127.783 51.5431 129.311 54.7586C130.841 57.9734 133.848 59.712 134.272 60.8648C134.699 62.0196 131.146 65.4301 131.787 70.6687C132.429 75.9079 130.019 75.9545 127.466 75.3104C123.651 74.3487 108.682 76.7192 113.692 87.8638C124.17 99.0233 135.723 98.501 137.031 105.365C137.574 108.209 134.432 115.482 130.297 122.292C139.399 134.403 163.469 151.528 171.827 149.451C180.653 147.258 181.645 151.41 190.459 150.224C190.459 150.224 185.837 154.133 181.018 154.147C176.198 154.162 186.976 159.589 199.674 162.148C199.325 164.468 195.497 164.575 192.806 164.917C185.672 165.818 176.095 163.552 171.303 159.462C164.969 154.058 153.445 154.73 141.438 146.222C142.081 147.597 126.736 134.217 123.32 132.143C123.32 132.143 132.451 142.22 142.982 149.55C151.593 168.509 155.859 185.108 155.772 199.347ZM87.6003 175.946C87.6003 175.946 87.4163 214.69 62.8312 201.331C62.8312 201.331 85.1353 204.091 87.6003 175.946Z" fill="#2E424B"/>
<path fill-rule="evenodd" clip-rule="evenodd" d="M43.1094 54.9952C51.868 2.7307 153.536 -19.7969 186.097 22.2794C191.744 29.5754 194.739 36.3206 195.077 42.517C195.462 49.5654 193.637 56.3605 189.603 62.9003C185.568 69.4414 179.171 72.9517 170.414 73.4293C165.073 73.7209 160.227 72.2732 155.875 69.0811C151.524 65.8909 149.236 62.2665 149.015 58.2087C152.813 57.1433 155.761 54.2519 157.861 49.5311C159.96 44.8096 160.869 39.886 160.588 34.7596C160.331 30.0601 158.84 25.3205 156.116 20.5414C153.39 15.7636 148.833 11.7271 142.44 8.43454C111.137 -7.68552 51.8006 19.7878 43.1094 54.9952ZM157.128 61.9212C157.128 61.9212 167.083 74.6864 179.734 67.9198C192.384 61.1533 196.832 36.8714 181.587 22.3922C190.001 35.324 190.937 66.4404 157.128 61.9212Z" fill="#65D9F0"/>
<path fill-rule="evenodd" clip-rule="evenodd" d="M201.738 74.6016C201.738 74.6016 211.523 81.7064 214.13 88.8501C216.516 95.386 204.545 112.691 205.208 92.7648C205.539 82.878 206.177 81.1543 201.738 74.6016Z" fill="#65D9F0"/>
<path fill-rule="evenodd" clip-rule="evenodd" d="M161.082 95.0312C161.082 95.0312 168.146 100.161 170.03 105.32C171.752 110.04 163.108 122.534 163.587 108.147C163.824 101.009 164.287 99.7624 161.082 95.0312Z" fill="#65D9F0"/>
<path fill-rule="evenodd" clip-rule="evenodd" d="M192.244 119.062C199.22 119.294 204.686 125.137 204.454 132.111C204.222 139.087 198.378 144.553 191.403 144.321C184.429 144.089 178.963 138.246 179.195 131.27C179.427 124.296 185.27 118.83 192.244 119.062Z" fill="#FFE200"/>
<path fill-rule="evenodd" clip-rule="evenodd" d="M193.972 124.125C195.633 123.058 198.334 124.296 200.002 126.893C201.671 129.487 201.678 132.458 200.017 133.527C198.355 134.595 198.1 131.785 196.43 129.189C194.762 126.594 192.31 125.194 193.972 124.125Z" fill="#FFF49D"/>
</svg>
