<svg width="257" height="215" viewBox="0 0 257 215" fill="none" xmlns="http://www.w3.org/2000/svg">
<path d="M176.838 175.916V176.164L154.636 203.239L154.617 203.267C154.322 203.753 154.009 204.239 153.683 204.706C146.919 210.614 138.077 214.194 128.398 214.194C118.195 214.194 108.926 210.216 102.037 203.743H102.027L101.999 203.715C99.4006 201.27 97.1347 198.481 95.2885 195.397L18.4031 100.134L18.3748 100.106L8.88678 88.3518C3.50849 79.5593 0.407891 69.2342 0.398459 58.1758C0.38667 44.3469 5.12832 31.6333 13.1404 21.6595C13.1969 21.5747 13.263 21.4968 13.3314 21.4119C13.3329 21.4025 13.3392 21.3931 13.3502 21.3837C23.1613 9.31609 37.7612 1.29226 54.5186 0.188777C67.4633 -0.667129 79.5969 2.73999 89.6367 9.15339C89.6445 9.15497 89.6571 9.16124 89.6744 9.17225C90.6364 9.79237 91.5866 10.4384 92.5109 11.1151C92.8237 11.3336 93.131 11.5616 93.4328 11.7989C93.5484 11.8862 93.6521 11.9616 93.7677 12.0465C74.867 16.0242 60.0572 39.4166 57.4117 55.2143C54.4526 72.8983 62.3986 91.1883 74.999 103.951C81.2144 110.261 88.5237 115.446 96.4037 119.492C107.936 125.392 120.546 128.799 132.729 133.243C144.9 137.678 157.006 143.408 165.838 152.887C171.719 159.187 175.887 167.465 176.838 175.916Z" fill="#254DB2"/>
<path d="M107.624 24.4472C107.425 24.323 107.225 24.1933 107.025 24.0582C106.358 23.6196 105.722 23.1645 105.094 22.6883C104.599 22.3157 104.18 21.9738 103.857 21.7074C103.694 21.5753 103.533 21.4315 103.371 21.2995C103.114 21.0708 102.97 20.9458 102.97 20.9458C101.114 19.3094 99.4119 17.5009 97.8982 15.5415C96.6131 14.3414 95.2621 13.2096 93.8733 12.125C92.9003 12.4755 91.9422 12.8591 90.9991 13.2756C90.5888 13.4572 90.1809 13.6364 89.7706 13.8368C89.2582 14.0852 88.7512 14.3422 88.2498 14.6078C87.8584 14.8075 87.4772 15.0165 87.1062 15.235C86.3926 15.6264 85.6978 16.0454 85.0219 16.4918C84.7185 16.6835 84.4143 16.88 84.1094 17.0812C82.2066 18.3568 80.3981 19.7857 78.7028 21.3372C78.3703 21.6414 78.0284 21.955 77.703 22.278C77.4012 22.5641 77.1033 22.8596 76.8094 23.1646C76.7622 23.2117 76.7143 23.2589 76.6656 23.306C76.3708 23.6102 76.0761 23.9356 75.7814 24.2492C75.4112 24.6476 75.0387 25.0673 74.6779 25.4847C74.373 25.8352 74.0782 26.1905 73.7937 26.5504C73.7065 26.6471 73.631 26.7509 73.5461 26.8475C73.2302 27.2484 72.9189 27.6539 72.6124 28.0642C72.3177 28.4556 72.0229 28.8541 71.7471 29.2644C71.7361 29.2659 71.7298 29.2722 71.7282 29.2832C71.3871 29.7799 71.0507 30.2814 70.719 30.7875C70.1783 31.6332 69.6611 32.4986 69.1676 33.3835C69.1015 33.5077 69.0347 33.6319 68.9671 33.7561C68.7478 34.164 68.5309 34.5648 68.3305 34.9751C68.2551 35.1166 68.1851 35.2588 68.1207 35.4019C67.9588 35.7147 67.8063 36.0322 67.6632 36.3544C67.484 36.7246 67.3214 37.1066 67.1587 37.4768C66.9795 37.8855 66.805 38.3044 66.6352 38.7335C66.5975 38.8184 66.5692 38.9033 66.5315 39C66.3688 39.4173 66.2084 39.8464 66.0646 40.2661C65.8948 40.7401 65.7321 41.2258 65.5789 41.7021C65.428 42.1878 65.2842 42.6641 65.1521 43.1498C65.0083 43.6332 64.8857 44.1283 64.7701 44.6141C64.5344 45.5949 64.3316 46.5844 64.1618 47.5826C61.2027 65.2666 69.1487 83.5566 81.7491 96.3197C87.9621 102.629 95.2715 107.814 103.152 111.86C114.686 117.76 127.296 121.167 139.477 125.612C151.65 130.047 163.756 135.776 172.586 145.255C173.793 146.55 174.919 147.917 175.965 149.355C176.203 149.681 176.432 149.994 176.651 150.327C176.927 150.718 177.193 151.126 177.45 151.536C177.745 151.982 178.021 152.43 178.287 152.897C178.47 153.203 178.647 153.514 178.82 153.828C178.974 154.095 179.124 154.372 179.268 154.658C179.485 155.057 179.686 155.457 179.886 155.875C180.105 156.313 180.315 156.771 180.523 157.226C180.639 157.491 180.75 157.761 180.857 158.035C180.98 158.301 181.084 158.567 181.19 158.834C181.256 159.006 181.322 159.169 181.381 159.338C181.503 159.654 181.619 159.959 181.723 160.272C181.864 160.661 181.999 161.062 182.112 161.451C182.142 161.51 182.161 161.576 182.171 161.633C182.312 162.062 182.437 162.498 182.55 162.927C182.569 163.012 182.597 163.09 182.616 163.175C182.751 163.66 182.864 164.156 182.97 164.641C183.085 165.154 183.186 165.667 183.274 166.181C183.361 166.656 183.434 167.135 183.493 167.619C183.503 167.657 183.512 167.685 183.512 167.723L202.602 144.227C202.069 129.865 194.351 115.725 182.055 108.159C169.188 100.25 153.343 99.583 138.696 95.8906C124.478 92.2925 110.508 85.2024 102.133 73.1655C94.0548 61.5742 94.3873 36.5737 107.787 24.8292C107.796 24.8198 107.797 24.8198 107.797 24.8103C107.844 24.7726 107.891 24.7254 107.938 24.6854L107.891 24.6476L107.624 24.4472Z" fill="#63D5E8"/>
<path d="M226.135 82.2707C231.987 89.0473 233.84 98.632 232.652 107.538L235.282 104.672L242.18 96.1751C251.468 85.4987 256.902 71.3939 256.36 56.0159C255.294 25.6937 230.589 1.07521 200.266 0.0943408C187.164 -0.334791 174.99 3.59577 165.085 10.5538C164.75 10.7826 164.427 11.0089 164.104 11.2565C164.094 11.2848 164.075 11.3155 164.066 11.3437C164.066 11.3532 164.057 11.3626 164.057 11.372C163.959 11.5827 163.867 11.798 163.781 12.0181C163.703 12.1714 163.646 12.3317 163.58 12.4944V12.5038C157.176 23.9913 161.039 41.3594 169.157 50.2179C178.036 59.9158 190.637 65.2564 203.037 69.6514C211.412 72.6129 220.32 75.5626 226.135 82.2707Z" fill="#FFA06D"/>
<path d="M228.664 112.154L209.233 136.06C208.537 121.899 200.848 108.013 188.715 100.544C175.848 92.6353 160.001 91.968 145.356 88.2756C136.047 85.9248 126.854 82.072 119.259 76.3141C119.232 76.3031 119.21 76.2874 119.193 76.267C115.758 73.6592 112.645 70.6505 110.009 67.2151C105.357 60.7923 102.605 52.8934 102.605 44.3462C102.605 38.0082 104.119 32.0216 106.802 26.74C107.031 26.3886 107.451 25.4644 107.783 24.8277C107.793 24.8183 107.793 24.8183 107.793 24.8089C107.819 24.7539 107.851 24.7028 107.887 24.6556V24.6462L107.934 24.6839L108.021 24.7429C111.513 26.9781 116.472 29.4539 121.725 29.8335H121.763C123.914 30.2815 126.132 30.5196 128.396 30.5196C137.999 30.5196 146.792 27.0064 153.55 21.1919C153.55 21.1919 153.55 21.1825 153.559 21.1825C153.741 21.0198 153.929 20.8594 154.111 20.6779C155.549 19.3936 156.878 18.0041 158.098 16.5092C158.296 16.2907 158.48 16.0722 158.65 15.8537C158.812 15.6431 158.992 15.4466 159.192 15.2642C160.498 14.0727 161.856 12.9433 163.266 11.876C163.54 11.6638 163.819 11.4571 164.103 11.2559C164.094 11.2842 164.075 11.3148 164.066 11.3431C164.066 11.3525 164.056 11.362 164.056 11.3714C163.959 11.582 163.867 11.7974 163.78 12.0174C163.75 12.0646 163.715 12.1125 163.674 12.1613C162.323 14.0829 159.706 17.8319 159.706 18.2045C159.706 18.2123 159.706 18.2155 159.706 18.2139C153.302 29.6991 157.167 47.0671 165.282 55.928C168.225 59.1347 171.573 61.8769 175.19 64.2466C182.49 69.0613 190.875 72.4213 199.163 75.3616C207.538 78.3207 216.446 81.2727 222.26 87.9808C227.874 94.4815 229.588 103.559 228.664 112.154Z" fill="#F0F093"/>
</svg>
