<svg width="205" height="257" viewBox="0 0 205 257" fill="none" xmlns="http://www.w3.org/2000/svg">
<path fill-rule="evenodd" clip-rule="evenodd" d="M202.926 153.566C202.241 154.096 201.4 154.345 200.559 154.345C199.781 154.345 198.971 154.127 198.317 153.66C198.317 153.66 197.974 153.442 197.383 153.068C192.774 150.389 187.853 149.05 182.808 149.05C173.838 149.05 165.149 153.442 159.543 160.791C153.969 168.11 152.256 177.142 154.778 186.205C155.993 190.627 157.644 194.862 159.699 198.755C166.644 212.085 166.333 229.899 158.952 242.107C153.159 251.637 143.66 256.9 132.23 256.9C128.96 256.9 125.503 256.464 121.922 255.624C113.575 253.661 106.568 248.554 101.429 240.861C101.305 240.986 101.17 241.111 101.025 241.235C100.308 241.765 99.4674 242.045 98.5954 242.045C97.7545 242.045 96.9136 241.796 96.2285 241.266C95.8236 240.986 88.7852 235.598 83.5531 224.729C83.1793 225.165 82.6499 225.508 82.0582 225.757C81.591 225.944 81.1239 226.006 80.6256 226.006C79.1307 226.006 77.7292 225.165 77.0441 223.733C73.9608 217.224 71.6874 210.933 70.0056 205.015C69.663 205.42 69.1959 205.732 68.6664 205.95C68.1681 206.168 67.6387 206.261 67.1093 206.261C65.7078 206.261 64.3998 205.545 63.6523 204.268C58.6694 195.485 55.8976 187.326 54.465 180.194C53.8732 180.723 53.0947 181.066 52.2226 181.159C52.0981 181.159 51.9839 181.159 51.8801 181.159C49.8557 181.159 48.1428 179.633 47.9248 177.609C46.7725 166.491 46.8659 157.802 47.6445 151.043C42.0698 160.231 40.1078 168.141 40.0767 168.235C39.6406 170.072 38.0212 171.287 36.2149 171.287C35.9865 171.287 35.7477 171.266 35.4985 171.224C33.4431 170.851 32.0105 168.92 32.2596 166.833C33.3185 158.3 35.374 150.95 37.99 144.597C37.8239 144.618 37.6682 144.628 37.5229 144.628C36.7443 144.628 35.9657 144.41 35.3117 143.974C33.5054 142.759 33.0071 140.361 34.1594 138.524C35.374 136.593 36.682 134.755 38.0523 133.074C44.6236 124.945 50.572 118.405 56.2713 113.111C55.7107 113.131 55.1605 113.142 54.6207 113.142C52.2538 113.142 50.0426 112.955 47.9871 112.675C47.4577 113.951 46.2742 114.917 44.8105 115.135C43.3467 115.322 41.8518 115.446 40.4504 115.446C31.9482 115.446 25.0655 111.74 16.719 105.792C-1.4377 92.8362 0.648919 70.3817 0.74235 69.4474C0.929211 67.8279 2.05038 66.4576 3.6387 66.0216C3.99166 65.9177 4.34462 65.8658 4.69758 65.8658C5.94333 65.8658 7.09564 66.4264 7.87423 67.423C16.6256 78.915 25.7818 84.7388 35.1248 84.7388C39.5161 84.7388 43.3779 83.4308 46.3988 81.8736C34.4397 78.697 25.7195 72.7797 20.3317 64.2152C10.0854 47.896 16.1896 28.2756 16.4387 27.4347C16.9681 25.7841 18.5253 24.6629 20.2382 24.6629C20.2797 24.6629 20.3213 24.6629 20.3628 24.6629C22.138 24.7252 23.664 25.971 24.1 27.715C29.7059 50.5121 47.1151 55.3082 60.7248 55.3082C61.9706 55.3082 63.1229 55.2459 64.1506 55.1836C58.5448 45.4045 56.7385 35.8746 58.7939 26.8118C62.5312 10.3369 77.6981 1.74127 78.3209 1.39869C78.9438 1.05611 79.5978 0.900391 80.2518 0.900391C81.2484 0.900391 82.245 1.27411 82.9925 1.99041C84.2382 3.17387 84.5808 5.04249 83.8333 6.59967C79.3175 16.005 78.6947 24.7564 81.9959 32.6668C85.9511 42.2279 94.827 48.986 101.959 53.1281C97.3496 41.823 97.8791 32.6045 99.4674 26.3447C101.772 17.2507 106.755 12.0809 106.973 11.8629C107.72 11.0843 108.748 10.6795 109.807 10.6795C110.43 10.6795 111.053 10.804 111.645 11.1155C113.202 11.9252 114.043 13.6693 113.7 15.3822C111.084 29.0542 121.673 41.8853 128.337 48.4255C128.244 38.2104 119.929 29.677 119.835 29.5836C118.714 28.4313 118.372 26.7495 118.963 25.2858C119.586 23.7909 120.988 22.8255 122.607 22.7943C122.711 22.7943 122.815 22.7943 122.919 22.7943C130.206 22.7943 137.618 26.0644 143.255 31.7325C149.733 38.2727 153.252 47.3354 153.19 57.2702C153.169 58.1007 153.169 58.9001 153.19 59.6683C154.965 54.8722 157.301 50.9792 159.481 48.0517C164.402 41.3559 169.54 37.9924 169.758 37.8678C170.444 37.4318 171.191 37.2138 171.938 37.2138C172.904 37.2138 173.869 37.5875 174.648 38.2727C175.956 39.5184 176.299 41.5116 175.395 43.0999C165.865 60.3846 168.886 67.7033 172.686 76.9529C174.212 80.659 175.769 84.5208 176.641 89.1924C178.852 100.996 172.53 111.149 167.983 116.692C171.534 117.658 176.485 119.37 181.718 122.298C192.805 128.527 200.622 137.807 204.328 149.144C204.857 150.763 204.297 152.538 202.926 153.566ZM138.21 140.517C138.127 140.538 138.044 140.548 137.961 140.548C137.961 140.631 137.971 140.704 137.992 140.766C138.075 140.683 138.148 140.6 138.21 140.517Z" fill="#940202"/>
<path fill-rule="evenodd" clip-rule="evenodd" d="M200.559 150.358C200.559 150.358 200.123 150.078 199.376 149.642C173.714 134.693 143.037 158.642 150.948 187.263C152.131 191.623 153.813 196.108 156.149 200.593C167.734 222.798 157.612 259.952 122.856 251.762C89.8751 243.976 86.4493 181.875 117.499 148.739C120.52 145.5 124.413 143.195 128.68 142.012C128.68 142.012 117.437 152.632 119.025 176.456C119.025 176.456 122.482 148.458 134.068 141.358C134.068 141.358 123.323 167.954 134.068 194.364C134.068 194.364 128.275 150.576 143.722 141.14C143.722 141.14 162.72 134.164 183.617 141.046C174.305 137.932 146.307 130.457 118.247 141.7C119.679 138.461 122.202 133.852 126.531 129.305C131.732 123.793 137.213 120.834 140.701 119.277C140.701 119.277 125.908 97.383 101.896 99.9679C77.8536 102.553 71.4069 124.198 84.0512 141.358C84.0512 141.358 71.2201 99.2516 114.323 103.145C111.24 102.927 76.9194 101.369 89.6259 149.953C89.6259 149.953 87.2901 128.838 97.6298 124.166C101.056 122.64 100.838 117.595 97.2561 116.505C97.173 116.464 97.0796 116.432 96.9758 116.412C96.9758 116.412 103.391 115.727 103.89 127.841C104.077 132.513 105.976 136.966 109.34 140.174C110.897 141.638 112.828 143.039 115.319 144.254C115.319 144.254 103.267 154.407 95.5432 179.976C95.5432 179.976 93.768 173.373 96.3529 168.546C96.3529 168.546 88.131 174.183 92.9583 209.437C92.9583 209.437 89.7505 200.593 88.9408 194.8C88.9408 194.8 87.8196 211.836 98.5953 238.09C98.5953 238.09 87.5082 229.774 83.4284 212.396C79.3485 195.018 80.8434 178.917 80.8434 178.917C72.9018 196.949 80.6254 222.051 80.6254 222.051C64.1193 187.294 71.4069 158.3 71.4069 158.3C59.5724 176.425 67.1091 202.306 67.1091 202.306C49.513 171.411 60.4444 148.458 60.4444 148.458C50.6031 160.885 51.8799 177.204 51.8799 177.204C48.3296 142.79 57.1432 133.354 58.5446 132.077C41.1043 146.652 36.2147 167.331 36.2147 167.331C40.8551 129.897 65.3651 116.194 70.0055 113.889C49.6999 123.481 37.5227 140.673 37.5227 140.673C38.6439 138.887 39.8481 137.184 41.1354 135.565C65.6142 105.325 81.7154 96.947 107.129 95.6701C132.542 94.362 148.363 121.239 148.363 121.239C146.619 115.29 142.445 108.781 136.466 103.238C140.888 103.767 143.255 102.709 143.255 102.709C132.324 103.145 122.825 96.1061 122.825 96.1061C129.272 94.7046 131.047 91.528 131.047 91.528C121.859 95.8881 112.734 93.3031 112.734 93.3031C117.437 90.7494 120.551 82.9946 120.551 82.9946C120.551 82.9946 117.686 88.1645 108.343 91.8394C99.0001 95.5455 75.8293 91.8394 75.8293 91.8394C84.8609 95.7012 95.294 94.1129 95.294 94.1129C77.7602 99.9056 57.6415 99.0959 57.6415 99.0959C65.7077 102.958 74.7082 101.027 74.7082 101.027C56.0532 109.56 47.5198 103.425 47.5198 103.425C55.2746 109.529 61.877 108.47 62.5622 108.345C48.4541 111.429 36.2459 105.044 36.2459 105.044C37.9899 108.034 41.042 109.934 44.2809 111.18C35.0624 112.456 28.3977 109.249 19.0235 102.553C2.54855 90.8117 4.69746 69.8521 4.69746 69.8521C31.8546 105.449 56.1155 79.7557 56.1155 79.7557C6.09891 72.8107 20.2381 28.6491 20.2381 28.6491C29.768 67.4229 70.9086 58.3601 70.9086 58.3601C46.2741 23.7285 80.2517 4.85547 80.2517 4.85547C61.223 44.5012 111.053 61.8482 111.053 61.8482C92.0862 32.6667 109.807 14.6345 109.807 14.6345C105.54 36.8088 130.985 56.0866 130.985 56.0866C136.59 40.8574 122.638 26.7805 122.638 26.7805C135.469 26.5937 149.359 38.4594 149.204 57.2389C149.048 76.0185 154.218 78.51 154.218 78.51C153.159 53.346 171.938 41.2 171.938 41.2C157.55 67.236 169.821 74.2122 172.748 89.9085C175.177 103.082 165.274 114.138 162.004 117.377C161.536 117.813 161.443 118.561 161.848 119.059C162.035 119.308 162.315 119.495 162.626 119.526C165.959 120.118 192.337 125.35 200.559 150.358ZM122.233 246.28C167.734 246.28 151.197 201.87 151.197 201.87C158.702 241.36 122.233 246.28 122.233 246.28Z" fill="white"/>
<path fill-rule="evenodd" clip-rule="evenodd" d="M100.496 112.021L103.766 110.152C108.78 107.287 114.729 106.446 120.241 108.066C124.757 109.405 129.522 112.457 132.699 118.997C132.699 118.997 127.466 115.135 125.255 116.879C123.013 118.592 115.663 122.174 111.365 117.658C107.067 113.142 105.635 109.997 100.496 112.021ZM117.843 110.838C116.348 110.838 115.134 112.052 115.134 113.547C115.134 115.042 116.348 116.256 117.843 116.256C118.497 116.256 119.058 116.038 119.525 115.696C119.442 115.696 119.359 115.696 119.276 115.696C118.404 115.696 117.718 115.011 117.718 114.17C117.718 113.329 118.404 112.613 119.276 112.613C119.805 112.613 120.272 112.893 120.553 113.329C120.428 111.928 119.276 110.838 117.843 110.838ZM115.009 116.443C115.258 116.506 115.497 116.537 115.725 116.537C114.293 115.883 113.452 114.326 113.794 112.737C114.137 111.149 115.538 110.059 117.096 110.059C116.888 109.976 116.66 109.903 116.41 109.841C114.604 109.467 112.798 110.62 112.424 112.457C112.019 114.263 113.203 116.07 115.009 116.443Z" fill="white"/>
<path d="M115.909 129.773C120.892 130.676 122.574 128.651 123.135 124.634C123.695 120.616 128.865 119.869 128.865 119.869C126.934 118.779 125.315 119.246 120.55 121.893C115.785 124.54 109.868 121.395 107.688 117.159C105.539 112.893 101.988 114.014 101.988 114.014C108.653 120.367 104.48 121.644 106.504 128.901C107.625 132.918 110.023 135.814 111.954 137.558C108.809 134.039 108.092 128.371 112.857 128.901C118.806 129.555 121.204 126.627 121.204 126.627C119.927 129.71 115.909 129.773 115.909 129.773Z" fill="white"/>
</svg>
