<svg width="239" height="257" viewBox="0 0 239 257" fill="none" xmlns="http://www.w3.org/2000/svg">
<path fill-rule="evenodd" clip-rule="evenodd" d="M187.463 150.014C189.124 145.555 191.468 141.847 194.318 139.224C196.836 136.916 199.809 135.429 203.149 134.992C206.35 134.572 210.074 135.062 214.271 136.619C217.734 137.948 220.584 139.626 222.84 141.567C226.128 144.383 228.191 147.846 229.048 151.518C229.958 155.26 229.66 159.282 228.191 163.165C227.177 165.893 225.586 168.533 223.47 170.999C215.338 180.425 201.593 189.501 184.28 196.583C184.28 184.727 184.105 158.863 187.463 150.014ZM226.233 68.4696L229.783 120.495C227.317 119.061 224.642 117.784 221.756 116.718C214.184 113.867 207.014 113.028 200.386 113.902C192.482 114.934 185.574 118.327 179.891 123.555C174.575 128.452 170.378 134.905 167.527 142.494C161.039 159.702 163.19 185.042 163.19 203.701C149.078 207.548 133.549 210.066 117.338 210.696C80.7016 212.095 40.9525 203.578 6.86925 178.291C6.29216 177.854 5.69757 177.504 5.08551 177.207L12.5002 68.1199C12.7276 64.7797 15.4906 62.2266 18.7957 62.2266H219.92C223.4 62.2266 226.198 65.0071 226.233 68.4696ZM42.6487 148.58C45.2894 147.164 48.3147 146.394 51.4275 146.394C54.5403 146.394 57.5656 147.164 60.2062 148.58C62.8643 150.014 65.1902 152.095 66.9039 154.701C68.8101 157.586 72.7273 158.391 75.6127 156.467C78.5332 154.543 79.3026 150.644 77.3965 147.741C74.511 143.386 70.6288 139.889 66.1695 137.493C61.6927 135.08 56.6388 133.751 51.4275 133.751C46.2162 133.751 41.1623 135.08 36.6855 137.493C32.2262 139.889 28.3439 143.386 25.4585 147.741C23.5523 150.644 24.3218 154.543 27.2422 156.467C30.1277 158.391 34.0449 157.586 35.951 154.701C37.6998 152.095 39.9906 150.014 42.6487 148.58ZM114.488 148.58C117.128 147.164 120.136 146.394 123.266 146.394C126.397 146.394 129.404 147.164 132.045 148.58C134.703 150.014 137.011 152.095 138.725 154.701C140.649 157.586 144.566 158.391 147.469 156.467C150.354 154.543 151.141 150.644 149.218 147.741C146.35 143.386 142.468 139.889 138.008 137.493C133.531 135.08 128.46 133.751 123.266 133.751C118.055 133.751 113.001 135.08 108.524 137.493C104.047 139.889 100.165 143.386 97.2973 147.741C95.3737 150.644 96.1606 154.543 99.081 156.467C101.966 158.391 105.901 157.586 107.807 154.701C109.521 152.095 111.847 150.014 114.488 148.58ZM118.072 231.943C133.794 231.348 148.99 229.075 163.19 225.543V256.6H6.41456C2.93454 256.6 0.101562 253.767 0.101562 250.287C0.101562 250.019 0.124883 249.751 0.171517 249.483L3.40671 201.76C39.6409 225.35 80.4043 233.395 118.072 231.943ZM184.28 219.16C205.335 211.535 222.893 201.252 234.504 190.2L238.579 249.868C238.806 253.348 236.183 256.356 232.703 256.583L232.284 256.6H184.28V219.16Z" fill="#E95793"/>
<path d="M61.2208 72.6832C58.9649 63.5023 59.6469 54.129 62.8471 45.6825C66.0299 37.236 71.7308 29.7513 79.4952 24.3827C80.1598 23.9455 80.7893 23.5258 81.4713 23.1061C86.9799 14.3623 95.4964 6.89513 107.073 0.634597C106.496 0.61711 105.901 0.599609 105.307 0.599609C93.188 0.599609 81.0516 4.23701 70.5766 11.4594C60.1016 18.6817 52.4245 28.772 48.1226 40.1214C43.8207 51.4883 42.8939 64.1143 45.9542 76.4431L61.2208 72.6832ZM125.75 21.1824C127.586 22.1093 129.405 23.1935 131.136 24.3827C138.9 29.7513 144.601 37.236 147.784 45.6825C150.984 54.129 151.684 63.5023 149.41 72.6832L164.677 76.4431C167.737 64.0969 166.811 51.4883 162.509 40.1214C160.323 34.3505 157.262 28.9119 153.398 23.9979C144.549 20.7802 135.018 19.8009 125.75 21.1824Z" fill="#E95793"/>
<path d="M89.2872 72.6832C87.0138 63.5023 87.7133 54.129 90.896 45.6825C94.0963 37.236 99.7972 29.7513 107.562 24.3827C115.309 19.0315 124.332 16.3734 133.391 16.3734C142.432 16.3734 151.455 19.0315 159.202 24.3827C166.967 29.7513 172.668 37.236 175.85 45.6825C179.051 54.129 179.733 63.5023 177.477 72.6832L192.743 76.4431C195.804 64.1143 194.877 51.4883 190.575 40.1214C186.273 28.772 178.596 18.6817 168.121 11.4594C157.646 4.23701 145.51 0.599609 133.391 0.599609C121.254 0.599609 109.118 4.23701 98.643 11.4594C88.168 18.6817 80.4909 28.772 76.189 40.1214C71.8871 51.4883 70.9603 64.1143 74.0206 76.4431L89.2872 72.6832Z" fill="#E95793"/>
</svg>
