<svg width="257" height="207" viewBox="0 0 257 207" fill="none" xmlns="http://www.w3.org/2000/svg">
<path d="M81.2389 53.5032L47.3872 19.5994C40.6586 12.8708 30.1745 12.1927 22.6113 17.513C48.8998 -6.32403 89.6366 -5.54163 114.934 19.7558L128.6 33.4217L108.571 53.5032C101.007 61.0142 88.802 61.0142 81.2389 53.5032Z" fill="url(#paint0_linear_1_400)"/>
<path opacity="0.42" d="M114.934 19.7558C100.173 4.99463 80.1957 -1.36885 60.8445 0.561056C61.9398 1.23913 62.983 2.07369 63.9741 3.06472L97.8257 36.9164C105.337 44.4274 117.594 44.4796 125.105 36.9164L128.6 33.4217L114.934 19.7558Z" fill="url(#paint1_linear_1_400)"/>
<path d="M47.3873 19.5994L81.2389 53.5032C73.7279 45.94 61.4704 45.94 53.9072 53.5032C50.256 57.1544 48.274 62.0052 48.274 67.1169C48.274 72.2807 50.256 77.1315 53.9072 80.7827L20.0556 46.9311C13.327 40.2025 12.5967 29.7183 17.9692 22.1552C18.6994 21.3554 19.447 20.5556 20.212 19.7558C21.0118 18.9908 21.8116 18.2432 22.6114 17.513C30.1745 12.1927 40.6586 12.8707 47.3873 19.5994Z" fill="url(#paint2_linear_1_400)"/>
<path d="M0.599976 67.1169C0.599976 50.3736 6.75482 34.517 17.9692 22.1552C12.5967 29.7183 13.3269 40.2025 20.0556 46.9311L53.9072 80.7827L128.6 155.475C123.332 160.744 108.571 175.505 108.571 175.505C101.007 183.068 88.8021 183.068 81.2389 175.505L20.212 114.478C7.58938 101.855 0.599976 85.0598 0.599976 67.1169Z" fill="url(#paint3_linear_1_400)"/>
<path opacity="0.42" d="M0.965088 60.3361C1.69532 61.4836 2.52988 62.5268 3.46876 63.5179L37.3204 97.3695C37.3204 97.3695 37.3378 97.3695 37.3726 97.3695L112.013 172.062C116.708 167.368 124.949 159.127 128.6 155.475L53.9072 80.7827L20.0555 46.9311C13.3269 40.2025 12.5967 29.7183 17.9692 22.1552C8.26745 32.8479 2.3734 46.0965 0.965088 60.3361Z" fill="url(#paint4_linear_1_400)"/>
<path d="M108.571 175.505C108.571 175.505 123.332 160.744 128.6 155.475L203.293 80.7827C216.437 67.6385 237.144 46.9311 237.144 46.9311C243.873 40.2024 244.603 29.7183 239.231 22.1552C250.445 34.517 256.6 50.3736 256.6 67.1169C256.6 85.0077 249.611 101.855 236.988 114.478L156.245 195.273C148.629 202.889 138.615 206.696 128.6 206.696C118.585 206.696 108.571 202.889 100.955 195.273L81.2389 175.505C88.8021 183.068 101.007 183.068 108.571 175.505Z" fill="url(#paint5_linear_1_400)"/>
<path opacity="0.6" d="M237.144 46.9311C237.144 46.9311 216.437 67.6385 203.293 80.7827L128.6 155.475C123.332 160.744 108.571 175.505 108.571 175.505C101.007 183.068 88.8021 183.068 81.2389 175.505L98.4516 192.718C105.963 200.281 118.22 200.281 125.731 192.718C125.731 192.718 140.492 177.956 145.813 172.688L220.453 97.9954C220.488 97.9954 220.505 97.9954 220.505 97.9954C233.597 84.8512 254.357 64.1438 254.357 64.1438C255.087 63.3788 255.765 62.5616 256.391 61.6923C255.192 46.9832 249.245 33.1609 239.231 22.1552C244.603 29.7183 243.873 40.2025 237.144 46.9311Z" fill="url(#paint6_linear_1_400)"/>
<path d="M237.144 46.9311C237.144 46.9311 216.437 67.6385 203.293 80.7827C206.944 77.1315 208.926 72.2807 208.926 67.1169C208.926 62.0052 206.944 57.1544 203.293 53.5032C199.537 49.6955 194.582 47.8178 189.627 47.8178C184.672 47.8178 179.716 49.6955 175.961 53.5032L209.813 19.5994C216.541 12.8707 227.025 12.1927 234.589 17.513C235.388 18.2432 236.188 18.9908 236.988 19.7558C237.753 20.5556 238.501 21.3554 239.231 22.1552C244.603 29.7183 243.873 40.2025 237.144 46.9311Z" fill="url(#paint7_linear_1_400)"/>
<path d="M209.813 19.5994L175.961 53.5032L156.245 73.2196C141.014 88.4502 116.186 88.4502 100.955 73.2196L81.2389 53.5032C88.8021 61.0142 101.007 61.0142 108.571 53.5032L128.6 33.4217L142.266 19.7558C167.563 -5.54163 208.3 -6.32403 234.589 17.513C227.025 12.1927 216.541 12.8708 209.813 19.5994Z" fill="url(#paint8_linear_1_400)"/>
<path opacity="0.42" d="M140.336 57.3109L160.104 37.5945L193.956 3.7428C195.156 2.54312 196.46 1.55209 197.868 0.71753C178.1 -1.73398 157.392 4.62951 142.266 19.7558L128.6 33.4217L108.571 53.5032C101.007 61.0142 88.8021 61.0142 81.2389 53.5032L85.0987 57.363C100.329 72.5415 125.105 72.5415 140.336 57.3109Z" fill="url(#paint9_linear_1_400)"/>
<defs>
<linearGradient id="paint0_linear_1_400" x1="56.9017" y1="-34.9034" x2="161.005" y2="69.1996" gradientUnits="userSpaceOnUse">
<stop stop-color="#FFB3C3"/>
<stop offset="0.903" stop-color="#FD6D94"/>
</linearGradient>
<linearGradient id="paint1_linear_1_400" x1="84.1348" y1="-23.6139" x2="136.405" y2="28.6564" gradientUnits="userSpaceOnUse">
<stop stop-color="white"/>
<stop offset="1" stop-color="white" stop-opacity="0"/>
</linearGradient>
<linearGradient id="paint2_linear_1_400" x1="-33.5182" y1="61.9317" x2="59.2171" y2="-30.8037" gradientUnits="userSpaceOnUse">
<stop stop-color="#FFB3C3"/>
<stop offset="1" stop-color="#FD6D94"/>
</linearGradient>
<linearGradient id="paint3_linear_1_400" x1="62.1667" y1="277.527" x2="-67.6255" y2="147.735" gradientUnits="userSpaceOnUse">
<stop stop-color="#FD6D94"/>
<stop offset="1" stop-color="#FFB3C3"/>
</linearGradient>
<linearGradient id="paint4_linear_1_400" x1="50.9112" y1="246.2" x2="-89.5858" y2="105.703" gradientUnits="userSpaceOnUse">
<stop offset="0.084" stop-color="white" stop-opacity="0"/>
<stop offset="1" stop-color="white"/>
</linearGradient>
<linearGradient id="paint5_linear_1_400" x1="360.332" y1="112.344" x2="207.336" y2="265.339" gradientUnits="userSpaceOnUse">
<stop offset="0.04" stop-color="#FD6D94"/>
<stop offset="0.643" stop-color="#FFB3C3"/>
</linearGradient>
<linearGradient id="paint6_linear_1_400" x1="345.65" y1="110.179" x2="175.907" y2="279.922" gradientUnits="userSpaceOnUse">
<stop stop-color="white"/>
<stop offset="0.912" stop-color="white" stop-opacity="0"/>
</linearGradient>
<linearGradient id="paint7_linear_1_400" x1="192.689" y1="-36.1088" x2="270.22" y2="41.4225" gradientUnits="userSpaceOnUse">
<stop offset="0.053" stop-color="#FD6D94"/>
<stop offset="1" stop-color="#FFB3C3"/>
</linearGradient>
<linearGradient id="paint8_linear_1_400" x1="46.6612" y1="88.1952" x2="164.916" y2="-30.0593" gradientUnits="userSpaceOnUse">
<stop stop-color="#FD6D94"/>
<stop offset="1" stop-color="#FFB3C3"/>
</linearGradient>
<linearGradient id="paint9_linear_1_400" x1="209.414" y1="19.0308" x2="106.872" y2="121.573" gradientUnits="userSpaceOnUse">
<stop stop-color="white"/>
<stop offset="1" stop-color="white" stop-opacity="0"/>
</linearGradient>
</defs>
</svg>
