<svg width="256" height="218" viewBox="0 0 256 218" fill="none" xmlns="http://www.w3.org/2000/svg">
<path d="M218.247 184.354V184.418H218.16C218.182 184.397 218.225 184.375 218.247 184.354Z" fill="#85C226"/>
<path d="M256 115.951C256 139.263 248.186 160.74 234.998 177.922C234.113 179.087 233.206 180.231 232.256 181.354C229.904 184.16 227.421 186.836 224.788 189.362C224.162 189.966 223.536 190.571 222.888 191.153C204.757 207.774 180.581 217.919 154.032 217.919C128.712 217.919 105.551 208.702 87.7221 193.42C70.972 179.066 58.9275 159.38 54.2219 136.996C53.5096 133.586 52.97 130.089 52.603 126.549C52.5167 125.794 52.4519 125.038 52.3872 124.304C52.2577 122.772 52.1713 121.217 52.1066 119.663C51.4374 116.231 50.1207 113.058 48.3508 110.252C48.1133 109.864 47.8327 109.454 47.5737 109.087C43.9258 103.971 38.6159 100.237 32.572 98.5531C41.8968 101.661 46.883 111.396 46.883 111.396C45.5447 112.605 42.7818 113.339 39.6303 113.339C34.3636 113.339 28.0391 111.288 25.5352 105.957C21.5636 97.3875 16.3831 95.0994 16.3831 95.0994C20.8728 93.8907 24.7582 93.3942 28.1686 93.3942C44.0985 93.3942 48.653 104.618 49.7538 108.417C49.9696 108.691 50.1855 108.964 50.4013 109.238C51.0273 110.08 51.6101 110.986 52.1282 111.893C52.2145 109.302 52.4304 106.755 52.711 104.252C53.0563 101.273 53.5096 98.3804 54.114 95.5095C55.6897 74.7878 45.372 55.7497 28.773 45.3241C44.7245 56.462 48.7393 77.7018 48.7393 77.7018C47.2499 78.4141 45.2209 78.7811 42.8897 78.7811C31.7734 78.7811 13.5986 70.665 11.3106 55.4259C8.50455 36.9922 0 29.7396 0 29.7396C52.3872 31.1642 55.9056 64.1679 55.8408 73.6654C56.7906 76.0181 57.5892 78.4141 58.2368 80.918C59.8556 76.4283 61.8199 72.1112 64.0216 67.9669C65.5325 52.3177 76.4331 0.599609 154.722 0.599609C159.514 0.599609 164.565 0.793873 169.897 1.20399C169.897 1.20399 153.665 12.3419 145.398 44.1585C139.095 68.3986 110.3 79.515 90.5929 79.515C84.4196 79.515 79.1312 78.4357 75.7207 76.2988C75.7207 76.2988 86.6428 39.8414 116.625 23.264C84.8728 38.8701 63.0287 71.5069 63.0287 109.259C63.0287 138.853 76.4546 165.316 97.5433 182.886C98.4355 183.635 99.3349 184.361 100.241 185.066C116.43 197.586 136.742 205.033 158.802 205.033C171.127 205.033 182.891 202.701 193.705 198.471C193.727 198.471 193.727 198.449 193.727 198.449C200.85 195.665 207.584 192.06 213.736 187.721C214.319 187.29 214.902 186.88 215.485 186.448C216.391 185.8 217.276 185.131 218.161 184.419H218.248V184.354C218.938 183.814 219.607 183.253 220.277 182.692C221.421 181.721 222.565 180.749 223.644 179.713C225.04 178.461 226.385 177.152 227.68 175.785C228.695 174.749 229.688 173.669 230.637 172.59C245.531 155.711 254.575 133.543 254.575 109.259C254.575 102.395 253.841 95.7038 252.482 89.2499C254.77 97.776 256 106.712 256 115.951Z" fill="#85C226"/>
<path d="M189.691 40.8984L197.095 44.201V95.4657L189.691 99.0704V40.8984Z" fill="#383431"/>
<path d="M203.266 46.921V92.4441L202.036 93.0485L198.992 94.5378V45.0215L203.266 46.921Z" fill="#383431"/>
<path d="M116.172 105.157L142.851 89.4649L162.839 95.0986V88.7957L142.851 83.1836L116.172 98.8544V105.157Z" fill="#155D75"/>
<path d="M116.172 115.39L142.851 99.7188L162.839 105.331V99.0496L142.851 93.4375L116.172 109.108V115.39Z" fill="#155D75"/>
<path d="M116.172 125.642L142.851 109.971L162.839 115.583V109.28L142.851 103.668L116.172 119.339V125.642Z" fill="#155D75"/>
<path d="M116.172 135.874L142.851 120.203L162.839 125.837V119.534L142.851 113.922L116.172 129.593V135.874Z" fill="#155D75"/>
<path d="M116.172 146.126L142.851 130.455L162.839 136.067V129.786L142.851 124.152L116.172 139.845V146.126Z" fill="#155D75"/>
<path d="M152.478 137.104L151.658 137.925L151.528 138.033L151.442 138.162L150.708 139.047L148.14 142.177L142.851 140.688L116.172 156.38V150.077L142.851 134.406L152.478 137.104Z" fill="#155D75"/>
<path d="M145.504 145.392L139.18 153.098L125.948 160.869L124.437 160.523L119.494 159.379L118.285 159.099L142.849 144.658L145.504 145.392Z" fill="#155D75"/>
<path d="M224.854 110.792L206.226 102.373V107.446L204.153 105.676L187.598 113.749V106.582L205.772 97.7109L224.854 110.792Z" fill="#85C226"/>
<path d="M224.854 124.003L206.226 115.563V120.657L204.153 118.887L187.598 126.96V119.793L205.772 110.9L224.854 124.003Z" fill="#85C226"/>
<path d="M224.854 137.19L206.226 128.772V133.844L204.153 132.074L187.598 140.147V132.981L205.772 124.109L224.854 137.19Z" fill="#85C226"/>
<path d="M224.852 150.401L206.224 141.961V147.055L204.152 145.285L197.676 148.437L196.662 147.422L196.014 146.753L195.107 146.559L194.784 146.472L193.294 146.127L191.352 145.674V144.357L205.77 137.32L224.852 150.401Z" fill="#85C226"/>
<path d="M215.594 157.242L214.493 157.501L212.443 157.998L206.226 155.17V157.134L201.672 152.515L205.773 150.508L215.594 157.242Z" fill="#85C226"/>
<path d="M168.017 84.8679L164.24 83.8102L148.871 79.4931V49.6409L173.413 33.6895L177.126 35.3299V142.349L168.017 140.234V84.8679Z" fill="#383431"/>
<path d="M186.948 39.6894V100.408L183.84 101.941L183.322 102.2V140.816L181.336 140.363V37.1855L186.948 39.6894Z" fill="#383431"/>
<path d="M204.992 160.374L204.021 160.611L182.695 165.576V161.647L179.608 162.359L173.845 163.719L171.902 164.173V166.569L159.728 150.013L157.743 147.293L155.778 144.616L155.131 143.753L154.634 144.357L138.208 164.388L136.999 164.108L134.668 163.568L153.145 141.055L153.879 140.17L157.397 140.99L162.038 142.069L165.427 142.868L182.371 146.818V150.833L183.839 151.178V144.185L188.178 145.199V148.178L192.581 149.214L194.049 149.559L194.394 149.624L204.992 160.374Z" fill="#383431"/>
<path d="M158.522 155.43V158.97H155.133V155.43H158.522Z" fill="#383431"/>
<path d="M158.522 160.502V164.064H155.133V160.502H158.522Z" fill="#383431"/>
<path d="M150.191 160.502H153.602V164.064H150.191V160.502Z" fill="#383431"/>
<path d="M150.191 155.43H153.602V158.97H150.191V155.43Z" fill="#383431"/>
<path d="M160.635 174.058L160.613 174.102L144.187 190.787L142.438 192.535H136.287L121.263 172.094L119.126 169.202L117.033 166.331L116.363 165.403L115.824 166.05L102.743 182.023C101.822 181.318 100.916 180.591 100.023 179.843L114.248 162.51L115.004 161.582V161.561L118.781 162.446L123.724 163.611L127.329 164.453L132.898 165.748L134.106 166.029L136.416 166.568L137.646 166.849L145.439 168.684V172.957L147.036 173.346V165.878L151.677 166.957V170.13L156.339 171.231L157.936 171.598L158.303 171.684L160.635 174.058Z" fill="#85C226"/>
<path d="M115.699 182.066H112.051V178.289H115.699V182.066Z" fill="#85C226"/>
<path d="M120.964 182.066H117.316V178.289H120.964V182.066Z" fill="#85C226"/>
<path d="M115.699 187.506H112.051V183.707H115.699V187.506Z" fill="#85C226"/>
<path d="M120.964 187.506H117.316V183.707H120.964V187.506Z" fill="#85C226"/>
<path d="M228.111 169.504C227.162 170.605 226.19 171.684 225.176 172.742L218.873 165.057L218.225 164.259L217.383 165.381L214.772 168.964L214.275 169.633L212.138 172.547L197.374 192.643C192.776 194.78 187.941 196.55 182.955 197.91H140.691L141.468 197.133L146.001 192.535L162.406 175.871L166.183 172.029L166.637 171.943L168.601 171.468L174.429 170.108V166.18L180.171 164.82V174.08L182.135 173.627V168.317L204.605 163.071L207.066 162.489L209.095 162.014L215.225 160.589L219.909 159.488L220.859 160.675L228.111 169.504Z" fill="#155D75"/>
<path d="M218.247 184.354V184.418H218.16C218.182 184.397 218.225 184.375 218.247 184.354Z" fill="#155D75"/>
</svg>
