<svg width="257" height="220" viewBox="0 0 257 220" fill="none" xmlns="http://www.w3.org/2000/svg">
<path d="M62.8439 89.0847C65.4032 87.2982 69.1592 85.8274 71.9927 84.4147C73.1948 83.8054 74.408 83.2126 75.6323 82.6365C76.851 82.0659 78.0809 81.5147 79.3218 80.9829C80.5627 80.4455 81.8119 79.9303 83.0694 79.4373C84.3214 78.9443 85.5844 78.4706 86.8586 78.0164C88.1271 77.5621 89.4041 77.13 90.6893 76.7201C91.9745 76.3046 93.2652 75.9113 94.5615 75.5401C95.8634 75.169 97.168 74.82 98.4753 74.4931C99.7827 74.1607 101.096 73.8505 102.414 73.5624C103.733 73.2744 105.057 73.0057 106.386 72.7564C107.71 72.5127 109.04 72.2883 110.375 72.0833C111.71 71.8784 113.048 71.6956 114.388 71.5349C115.729 71.3742 117.069 71.2358 118.41 71.1194C119.756 71.0031 121.102 70.9061 122.448 70.8286C123.8 70.751 125.149 70.6956 126.495 70.6624C127.847 70.6292 129.196 70.6181 130.542 70.6292C131.894 70.6402 133.243 70.6735 134.589 70.7289C137.838 70.7704 141.203 70.9699 144.419 71.4767C159.908 73.363 174.209 79.4124 187.321 87.722C190.778 89.9074 196.595 94.5607 200.052 95.9484C203.658 97.386 208.203 97.2946 212.042 97.843C225.338 99.7293 243.386 103.336 252.136 114.57C256.208 119.805 257.446 126.096 256.615 132.61C256.183 135.909 255.294 139.333 254.388 142.532C244.574 142.532 234.669 142.266 224.864 142.582C224.881 142.349 224.897 142.116 224.914 141.884C224.925 141.651 224.933 141.418 224.939 141.186C224.95 140.953 224.955 140.72 224.955 140.488C224.955 140.255 224.953 140.022 224.947 139.79C224.942 139.557 224.933 139.324 224.922 139.092C224.911 138.859 224.9 138.626 224.889 138.394C224.872 138.161 224.853 137.928 224.831 137.696C224.809 137.463 224.784 137.23 224.756 136.998C224.728 136.771 224.698 136.541 224.665 136.308C224.631 136.075 224.593 135.846 224.548 135.618C224.51 135.391 224.468 135.161 224.424 134.929C224.379 134.702 224.332 134.474 224.282 134.247C224.233 134.02 224.18 133.793 224.124 133.566C224.069 133.339 224.008 133.114 223.942 132.893C223.881 132.666 223.817 132.441 223.751 132.22C223.684 131.998 223.615 131.777 223.543 131.555C223.471 131.333 223.396 131.115 223.318 130.899C223.235 130.677 223.152 130.458 223.069 130.242C222.986 130.026 222.9 129.81 222.812 129.594C222.723 129.378 222.632 129.162 222.537 128.946C222.443 128.735 222.346 128.525 222.247 128.314C222.147 128.104 222.044 127.896 221.939 127.691C221.834 127.481 221.726 127.273 221.615 127.068C221.504 126.863 221.391 126.658 221.274 126.453C221.164 126.253 221.047 126.054 220.925 125.855C220.803 125.655 220.682 125.456 220.56 125.256C220.432 125.062 220.305 124.869 220.177 124.675C220.044 124.481 219.912 124.29 219.779 124.101C219.646 123.913 219.507 123.725 219.363 123.536C219.225 123.348 219.083 123.162 218.939 122.98C218.795 122.797 218.648 122.617 218.499 122.439C218.355 122.257 218.205 122.079 218.05 121.908C213.339 116.382 206.666 113.249 199.453 112.692C194.351 112.293 189.582 113.781 185.061 116.049C181.073 118.609 177.74 121.467 175.256 125.572C174.5 126.827 173.918 128.198 173.154 129.444L173.087 129.719C172.871 130.566 172.472 131.372 172.223 132.22C171.217 135.593 170.902 139.067 171.384 142.557L153.9 142.54L146.38 142.532C136.467 142.532 126.537 142.682 116.632 142.515C106.045 142.74 95.4257 142.557 84.831 142.565C85.0969 135.918 83.7591 130.176 79.9865 124.616C79.8591 124.428 79.7289 124.24 79.596 124.051C79.463 123.869 79.3273 123.686 79.1888 123.503C79.0503 123.32 78.9091 123.137 78.765 122.955C78.621 122.777 78.477 122.6 78.3329 122.423C78.1833 122.245 78.0338 122.071 77.8842 121.899C77.7346 121.728 77.5823 121.559 77.4272 121.392C77.2721 121.221 77.1142 121.052 76.9535 120.885C76.7929 120.725 76.6322 120.564 76.4716 120.404C76.3054 120.243 76.1392 120.082 75.973 119.922C75.8068 119.766 75.6378 119.611 75.4661 119.456C75.2944 119.307 75.1227 119.157 74.9509 119.008C74.7737 118.858 74.5964 118.711 74.4191 118.567C74.2418 118.423 74.0618 118.282 73.879 118.143C73.6962 118.005 73.5134 117.866 73.3306 117.728C73.1422 117.595 72.9539 117.462 72.7655 117.329C72.5772 117.202 72.3888 117.074 72.2005 116.947C72.0066 116.819 71.8127 116.695 71.6188 116.573C71.4249 116.451 71.231 116.332 71.0371 116.216C70.8377 116.099 70.6383 115.986 70.4388 115.875C70.2394 115.764 70.0372 115.653 69.8322 115.542C69.6328 115.437 69.4306 115.335 69.2256 115.235C69.0207 115.13 68.8129 115.03 68.6024 114.936C68.3974 114.836 68.1897 114.742 67.9792 114.653C67.7687 114.559 67.5554 114.468 67.3394 114.379C67.1288 114.296 66.9156 114.213 66.6995 114.13C66.489 114.047 66.2757 113.966 66.0597 113.889C65.8436 113.817 65.6248 113.745 65.4032 113.673C65.1872 113.601 64.9711 113.532 64.7551 113.465C64.5335 113.399 64.3119 113.335 64.0903 113.274C63.8687 113.213 63.6471 113.155 63.4255 113.099C63.204 113.05 62.9796 113 62.7525 112.95C62.5309 112.9 62.3065 112.853 62.0794 112.809C54.1687 111.296 46.5737 113.515 40.0341 117.994C38.9206 118.947 37.857 119.952 36.8432 121.01C30.8852 127.309 28.9159 134.073 29.1402 142.582C23.0659 142.582 18.3211 141.718 13.1775 138.302C6.62956 133.956 3.08968 127.118 1.59396 119.564C10.1944 119.19 15.9446 120.669 23.282 115.135C20.2573 115.185 17.2077 114.928 14.183 114.828C9.74566 114.706 5.30557 114.642 0.862715 114.637C0.837787 112.509 0.954121 110.407 1.15355 108.296L12.2967 108.222C19.7338 108.172 24.545 108.031 31.309 104.399C22.7501 102.688 11.3743 103.294 2.48308 103.286C3.29742 100.444 5.7072 96.1313 8.29148 94.5524C9.81213 93.4223 11.8646 92.8739 13.6428 92.2839C27.2539 87.8217 46.4158 88.5363 60.5504 90.1234C61.3066 89.7578 62.0545 89.3756 62.8439 89.0847Z" fill="url(#paint0_linear_40_7667)"/>
<path d="M8.29148 94.551C9.81213 93.4209 11.8646 92.8725 13.6428 92.2825C27.2539 87.8203 46.4158 88.5349 60.5504 90.122C61.3066 89.7564 62.0545 89.3742 62.8439 89.0833C62.6278 89.6318 61.7387 89.9725 61.1903 90.2218C60.1516 90.6954 57.318 90.3879 56.1297 90.1885L56.7197 90.147C54.8085 89.906 39.7017 88.8507 38.9871 89.3659C38.3722 89.8146 37.8071 90.7203 37.4747 91.3934C38.2143 91.9335 43.1169 91.6094 44.3551 91.651C49.1663 91.7923 54.1936 92.0665 58.9716 92.7146C60.1931 92.8891 61.531 93.0138 62.7275 93.2298C63.9158 93.4459 65.5112 94.0358 66.6829 93.9694C66.766 93.9694 66.8574 93.9444 66.9405 93.9278L66.4752 94.1854C69.8488 94.9084 73.2641 95.5233 76.6045 96.3958C91.5867 100.31 105.663 106.592 118.925 114.527C120.429 115.433 124.617 117.469 125.614 118.641C134.315 123.867 142.549 130.523 149.712 137.686C151.125 139.107 152.995 140.736 153.9 142.539L146.38 142.531C136.467 142.531 126.537 142.68 116.632 142.514C106.045 142.738 95.4257 142.555 84.831 142.564C85.0969 135.916 83.7591 130.174 79.9865 124.615C79.8591 124.427 79.7289 124.238 79.596 124.05C79.463 123.867 79.3273 123.684 79.1888 123.502C79.0503 123.319 78.9091 123.136 78.765 122.953C78.621 122.776 78.477 122.599 78.3329 122.421C78.1833 122.244 78.0338 122.07 77.8842 121.898C77.7346 121.726 77.5823 121.557 77.4272 121.391C77.2721 121.219 77.1142 121.05 76.9535 120.884C76.7929 120.723 76.6322 120.563 76.4716 120.402C76.3054 120.241 76.1392 120.081 75.973 119.92C75.8068 119.765 75.6378 119.61 75.4661 119.455C75.2944 119.305 75.1227 119.156 74.9509 119.006C74.7737 118.857 74.5964 118.71 74.4191 118.566C74.2418 118.422 74.0618 118.28 73.879 118.142C73.6962 118.003 73.5134 117.865 73.3306 117.726C73.1422 117.594 72.9539 117.461 72.7655 117.328C72.5772 117.2 72.3888 117.073 72.2005 116.945C72.0066 116.818 71.8127 116.693 71.6188 116.571C71.4249 116.45 71.231 116.33 71.0371 116.214C70.8377 116.098 70.6383 115.984 70.4388 115.873C70.2394 115.763 70.0372 115.652 69.8322 115.541C69.6328 115.436 69.4306 115.333 69.2256 115.234C69.0207 115.128 68.8129 115.029 68.6024 114.934C68.3974 114.835 68.1897 114.741 67.9792 114.652C67.7687 114.558 67.5554 114.466 67.3394 114.378C67.1288 114.295 66.9156 114.212 66.6995 114.128C66.489 114.045 66.2757 113.965 66.0597 113.887C65.8436 113.815 65.6248 113.743 65.4032 113.671C65.1872 113.599 64.9711 113.53 64.7551 113.464C64.5335 113.397 64.3119 113.333 64.0903 113.273C63.8687 113.212 63.6471 113.153 63.4255 113.098C63.204 113.048 62.9796 112.998 62.7525 112.948C62.5309 112.899 62.3065 112.852 62.0794 112.807C54.1687 111.295 46.5737 113.514 40.0341 117.992C38.9206 118.945 37.857 119.951 36.8432 121.009C30.8852 127.307 28.9159 134.071 29.1402 142.58C23.0659 142.58 18.3211 141.716 13.1775 138.301C6.62956 133.955 3.08968 127.116 1.59396 119.563C10.1944 119.189 15.9446 120.668 23.282 115.134C20.2573 115.184 17.2077 114.926 14.183 114.826C9.74566 114.705 5.30557 114.641 0.862715 114.635C0.837787 112.508 0.954121 110.406 1.15355 108.295L12.2967 108.22C19.7338 108.17 24.545 108.029 31.309 104.398C22.7501 102.686 11.3743 103.293 2.48308 103.284C3.29742 100.443 5.7072 96.1299 8.29148 94.551Z" fill="url(#paint1_linear_40_7667)"/>
<path d="M8.29148 94.5526L8.54908 94.6772C12.546 92.6081 16.8088 91.5943 21.1963 90.6803C21.7281 90.5723 23.3318 90.1319 23.7972 90.3479C23.8719 90.3811 23.9301 90.4393 23.9966 90.4809C24.304 90.6969 24.545 90.7385 24.9023 90.8215L24.7777 90.9462H25.1682C24.3456 92.0181 22.4427 92.6247 22.6587 94.27C22.8249 95.5746 24.8525 96.9374 25.9078 97.5939C28.4588 99.1727 31.201 99.5632 33.885 100.735C35.3225 101.358 36.6936 102.189 38.0979 102.895C40.998 104.341 43.9479 105.712 46.8812 107.092C49.2826 108.23 51.8835 109.003 54.2435 110.224C54.7836 110.507 55.116 110.789 55.44 111.305C55.44 111.554 55.5065 111.695 55.3071 111.878C54.8667 112.26 50.6537 112.717 49.4405 113.091C46.017 114.163 42.8012 115.576 39.9011 117.72L40.0341 117.994C38.9206 118.947 37.857 119.952 36.8432 121.01C30.8852 127.309 28.9159 134.073 29.1402 142.582C23.0659 142.582 18.3211 141.718 13.1775 138.302C6.62956 133.957 3.08968 127.118 1.59396 119.564C10.1944 119.19 15.9446 120.67 23.282 115.135C20.2573 115.185 17.2077 114.928 14.183 114.828C9.74566 114.706 5.30557 114.642 0.862715 114.637C0.837787 112.51 0.954121 110.407 1.15355 108.297L12.2967 108.222C19.7338 108.172 24.545 108.031 31.309 104.399C22.7501 102.688 11.3743 103.294 2.48308 103.286C3.29742 100.444 5.7072 96.1314 8.29148 94.5526Z" fill="#821E9C"/>
<path d="M146.379 142.531L145.681 142.29C147.434 141.883 149.877 142.157 151.714 142.148C151.921 142.032 151.946 142.082 151.988 141.874C152.362 140.138 149.653 137.994 148.573 136.922C143.396 131.795 137.82 127.382 131.879 123.186C130.815 122.43 126.012 119.472 125.613 118.641C134.313 123.867 142.548 130.523 149.711 137.686C151.124 139.107 152.993 140.736 153.899 142.539L146.379 142.531Z" fill="#FB6A34"/>
<path d="M113.215 80.6589C120.669 79.4956 127.865 78.7893 135.418 78.9222C139.565 79.1965 143.545 79.4624 147.633 80.3016C159.358 82.62 170.435 86.8247 180.564 93.2397C184.428 95.691 188.059 98.4913 191.882 100.992C186.505 101.267 181.121 101.317 175.744 101.674C170.568 101.682 165.382 102.164 160.206 102.272C156.292 102.347 152.237 102.031 148.348 102.28C145.19 101.931 141.966 102.023 138.8 101.732C132.227 101.117 125.804 99.9621 119.347 98.6326C118.259 92.4585 115.6 86.4258 113.215 80.6589Z" fill="#FEFEFE"/>
<path d="M134.59 70.7285C137.839 70.7701 141.204 70.9695 144.42 71.4764C145.077 72.7727 144.703 73.7116 145.16 74.742C145.783 76.1547 148.392 78.5395 147.935 80.0602L147.636 80.3011C143.548 79.4619 139.567 79.196 135.421 78.9218C136.285 78.7971 137.149 78.7389 138.022 78.6725C138.113 78.016 136.086 74.1022 135.712 73.0801C135.845 72.4569 135.953 71.8171 136.061 71.1939L135.994 71.2769L135.911 71.011C135.429 71.0194 135.039 70.8781 134.59 70.7285Z" fill="#FB6A34"/>
<path d="M227.134 107.857C234.047 107.541 240.529 109.394 245.888 113.898C248.572 116.166 251.63 120.113 251.863 123.761C251.938 124.841 251.796 125.523 251.09 126.354C250.841 126.445 250.849 126.445 250.558 126.503C246.312 127.376 238.169 122.88 234.87 120.379C231.446 117.787 227.3 113.05 226.901 108.555C226.859 108.172 226.901 108.131 227.134 107.857Z" fill="#FEFEFE"/>
<path d="M108.856 81.8876C109.188 81.8544 109.113 81.8045 109.404 82.0455C109.861 82.4277 110.293 83.5911 110.542 84.1229C112.504 88.3109 114.34 92.9726 115.005 97.5595C111.914 96.5623 108.989 94.7758 106.13 93.2551C102.582 91.4353 99.1916 89.3662 95.793 87.2888C99.1999 85.12 104.967 83.2504 108.856 81.8876Z" fill="#FEFEFE"/>
<path d="M194.674 150.159C200.945 150.12 207.218 150.117 213.495 150.151C215.622 150.151 219.586 149.835 221.547 150.275C223.267 150.657 225.137 152.029 226.375 153.267C227.364 154.247 228.219 155.535 228.186 156.989C228.17 157.887 227.87 158.751 227.505 159.565C226.466 161.867 225.004 164.061 223.782 166.28C222.802 168.049 221.863 170.31 220.658 171.905C219.96 173.334 219.062 174.531 217.508 175.088C212.955 176.733 205.584 171.249 201.321 173.185C200.15 173.717 199.302 174.772 198.454 175.711C196.452 177.822 190.137 183.289 190.245 186.073C190.303 187.693 191.042 189.222 191.366 190.793C192.197 192.895 193.652 196.593 192.646 198.737C191.375 201.479 178.902 207.753 175.894 208.775C174.706 209.182 173.426 209.149 172.313 208.534C169.304 206.88 165.989 200.307 163.214 199.642C162.291 199.426 161.178 199.667 160.272 199.9C157.438 200.631 154.655 201.545 151.813 202.268C149.361 202.892 146.719 203.307 144.359 204.204C141.093 207.088 142.747 213.993 140.354 217.109C139.481 218.239 138.16 218.646 136.789 218.804C132.942 219.228 122.006 219.585 118.658 218.389C117.91 218.123 117.303 217.674 116.863 217.026C115.583 215.123 115.292 210.678 114.852 208.334C114.578 206.888 114.145 205.501 112.916 204.587C111.395 203.457 106.293 202.651 104.216 202.094C101.615 201.404 96.5957 199.543 94.1111 199.659C90.9119 199.817 86.8568 208.991 82.8018 209.431C82.4749 209.464 82.1453 209.462 81.8129 209.423C81.4861 209.384 81.1648 209.312 80.849 209.207C77.6747 208.11 67.6368 202.31 65.1522 200.299C59.2607 195.554 67.6534 190.618 66.7892 185.225C66.6812 184.594 66.033 183.937 65.6092 183.464C64.3462 182.076 53.7348 171.407 52.854 170.941C50.1783 169.529 44.0708 174.697 41.1375 175.47C41.0655 175.492 40.9907 175.511 40.9132 175.528C39.8828 175.312 38.9355 175.088 38.0962 174.406C37.8082 174.174 37.5367 173.922 37.2819 173.65C37.0326 173.379 36.8027 173.088 36.5922 172.778C35.1712 170.709 29.1884 160.288 29.0803 158.277C28.9889 156.582 29.9362 155.053 31.0746 153.882C32.1383 152.776 33.7088 151.256 35.2211 150.874C37.365 150.317 42.1098 150.707 44.5611 150.716C50.4443 150.738 56.3274 150.716 62.2106 150.649C64.6619 153.732 66.9554 156.848 69.6311 159.74C76.4532 167.127 85.868 173.958 94.9504 178.262C95.4434 178.495 95.9364 178.722 96.4295 178.943C96.9225 179.17 97.4183 179.389 97.9169 179.6C98.4155 179.816 98.9168 180.024 99.4209 180.223C99.925 180.428 100.432 180.625 100.942 180.813C101.446 181.007 101.955 181.195 102.471 181.378C102.98 181.561 103.493 181.738 104.008 181.91C104.523 182.076 105.038 182.239 105.553 182.4C106.074 182.561 106.595 182.716 107.116 182.865C107.636 183.015 108.16 183.159 108.686 183.298C109.212 183.436 109.739 183.569 110.265 183.696C110.791 183.824 111.32 183.948 111.852 184.07C112.378 184.187 112.907 184.297 113.439 184.403C113.977 184.508 114.511 184.608 115.043 184.702C115.575 184.796 116.109 184.885 116.647 184.968C117.184 185.051 117.721 185.128 118.259 185.2C118.796 185.272 119.333 185.339 119.871 185.4C120.414 185.461 120.954 185.516 121.491 185.566C122.034 185.616 122.577 185.66 123.12 185.699C123.657 185.738 124.197 185.771 124.74 185.799C125.283 185.826 125.826 185.849 126.369 185.865C126.912 185.882 127.455 185.893 127.998 185.898C128.54 185.904 129.083 185.904 129.626 185.898C130.169 185.893 130.709 185.879 131.247 185.857C131.789 185.84 132.332 185.818 132.875 185.79C133.418 185.763 133.961 185.729 134.504 185.691C135.041 185.646 135.581 185.599 136.124 185.549C136.662 185.5 137.202 185.441 137.745 185.375C138.282 185.314 138.819 185.248 139.357 185.175C139.894 185.103 140.431 185.023 140.969 184.935C141.506 184.851 142.041 184.763 142.573 184.669C143.104 184.569 143.636 184.466 144.168 184.361C144.7 184.256 145.232 184.142 145.763 184.02C149.76 183.106 153.574 181.71 157.438 180.331C161.801 178.337 166.105 176.367 170.144 173.742C172.479 172.221 174.614 170.31 176.974 168.872L177.199 168.731C178.503 167.476 179.957 166.363 181.295 165.141C183.661 162.981 185.932 160.726 188.109 158.377C190.394 155.701 192.463 152.884 194.674 150.159Z" fill="#1091C6"/>
<path d="M194.677 150.159C200.948 150.12 207.222 150.117 213.498 150.151C215.625 150.151 219.589 149.835 221.55 150.275C223.27 150.657 225.14 152.029 226.378 153.267C227.367 154.247 228.223 155.535 228.189 156.989C228.173 157.887 227.874 158.751 227.508 159.565C226.469 161.867 225.007 164.061 223.785 166.28C222.805 168.049 221.866 170.31 220.661 171.905C220.37 172.071 220.42 172.005 220.245 172.213C219.415 173.193 218.517 174.365 217.287 174.863C215.8 175.478 213.506 175.005 212.052 174.373C210.822 173.841 210.008 171.988 208.687 171.298C207.598 170.725 206.377 170.335 205.255 169.828C203.967 169.246 202.737 168.54 201.433 168C197.843 166.52 194.128 165.316 190.522 163.87C188.902 163.213 187.547 162.033 185.927 161.393C185.877 161.377 185.827 161.357 185.777 161.335C186.65 160.488 187.464 159.648 188.195 158.685L188.112 158.377C190.397 155.701 192.467 152.884 194.677 150.159Z" fill="#EEA244"/>
<path d="M188.112 158.377L188.195 158.684C187.464 159.648 186.65 160.488 185.777 161.335C185.827 161.357 185.877 161.377 185.927 161.393C187.547 162.033 188.901 163.213 190.522 163.87C194.128 165.315 197.843 166.52 201.432 167.999C202.737 168.54 203.967 169.246 205.255 169.828C206.377 170.334 207.598 170.725 208.687 171.298C210.008 171.988 210.822 173.841 212.052 174.373C213.506 175.004 215.8 175.478 217.287 174.863C218.517 174.365 219.414 173.193 220.245 172.212C220.42 172.005 220.37 172.071 220.661 171.905C219.963 173.334 219.065 174.531 217.511 175.088C212.958 176.733 205.587 171.248 201.324 173.185C200.153 173.716 199.305 174.772 198.457 175.711C196.455 177.821 190.14 183.289 190.248 186.073C190.306 187.693 191.045 189.222 191.369 190.793C190.364 189.895 190.472 187.884 189.741 186.721C189.541 186.796 189.342 186.862 189.151 186.937C188.976 187.003 188.852 187.062 188.677 187.095C187.946 187.22 186.807 186.605 186.209 186.231C184.531 185.192 183.135 183.605 181.539 182.417C179.071 180.597 176.387 179.226 173.82 177.597C173.77 177.558 173.717 177.522 173.662 177.489C172.656 177.024 171.8 175.636 171.41 174.589C171.285 174.232 171.194 173.858 171.111 173.492C169.108 174.755 159.311 180.63 157.441 180.331C161.804 178.337 166.108 176.367 170.147 173.741C172.482 172.221 174.617 170.31 176.977 168.872L177.202 168.731C178.506 167.476 179.96 166.362 181.298 165.141C183.664 162.98 185.935 160.726 188.112 158.377Z" fill="url(#paint2_linear_40_7667)"/>
<path d="M173.661 177.49C173.717 177.523 173.769 177.559 173.819 177.598C176.387 179.227 179.071 180.598 181.539 182.418C183.134 183.606 184.53 185.193 186.209 186.232C186.807 186.606 187.946 187.221 188.677 187.096C188.851 187.063 188.976 187.005 189.15 186.938C189.342 186.863 189.541 186.797 189.74 186.722C190.472 187.886 190.364 189.896 191.369 190.794C192.2 192.896 193.654 196.594 192.649 198.738C191.377 201.48 178.905 207.754 175.897 208.776C174.708 209.183 173.429 209.15 172.315 208.535C169.307 206.881 165.992 200.308 163.216 199.644C162.294 199.428 161.18 199.668 160.275 199.901C157.441 200.632 154.657 201.546 151.816 202.269C149.364 202.893 146.722 203.308 144.362 204.206L144.32 204.156L144.354 203.973C145.858 203.125 151.317 202.161 153.444 201.563C156.502 200.716 160.084 199.037 163.258 199.328C166.258 199.602 170.063 208.045 173.695 208.884C174.875 209.158 178.655 207.338 179.727 206.632C179.711 206.59 179.702 206.549 179.669 206.516C179.603 206.424 179.511 206.358 179.428 206.283C179.32 205.826 179.52 205.527 179.711 205.128L179.794 204.945C178.921 203.283 181.231 202.61 181.788 201.156C182.511 199.27 181.082 197.857 181.19 196.054C181.265 194.816 182.087 194.201 182.952 193.453C184.073 193.461 186.026 193.935 186.99 193.312L187.048 192.996C186.741 192.481 186.375 192.14 185.827 191.899C185.744 191.86 185.66 191.824 185.577 191.791C185.951 191.376 186.583 191.359 187.098 191.143C187.148 191.126 187.189 191.101 187.239 191.085L187.198 191.193L187.223 190.819C186.998 190.503 186.226 190.237 185.86 190.038L185.793 189.763L186.192 189.356C184.954 188.043 183.226 187.154 181.846 185.991C180.783 185.077 181.622 185.301 181.157 184.57C180.467 183.481 177.309 181.645 176.246 179.925C175.888 179.335 175.315 179.194 174.733 178.886C174.301 178.645 173.803 178.462 173.653 177.972C173.778 177.781 173.703 177.706 173.661 177.49Z" fill="#1CAFBF"/>
<path d="M112.635 15.4033C113.051 12.6777 114.04 6.04667 115.012 3.76985C115.328 3.04691 115.776 2.39046 116.375 1.88358C117.746 0.720236 119.25 0.836568 120.912 0.936283C121.012 0.969521 121.111 1.01107 121.203 1.04431C122.15 1.36007 123.579 1.22712 124.593 1.22712C127.734 1.21881 136.243 0.711924 138.686 1.5595C139.75 1.92512 140.589 2.64806 141.146 3.6369C142.45 5.95527 142.724 14.8964 143.697 15.8187C146.181 16.5749 148.815 17.0319 151.35 17.597C151.491 17.8878 151.433 17.9128 151.333 18.2036C151.267 18.4113 151.283 18.3449 151.175 18.5277C150.419 19.799 150.868 24.602 150.81 26.3387C150.751 28.0338 150.053 36.1772 148.766 36.7173C146.48 36.468 138.146 34.158 136.467 34.8477C133.659 34.7147 130.867 34.4488 128.05 34.4488C126.931 34.4544 125.814 34.4848 124.701 34.5402C123.593 34.5956 122.482 34.6759 121.369 34.7812C120.261 34.8809 119.156 35.0056 118.053 35.1551C116.945 35.3047 115.843 35.4792 114.746 35.6786C113.649 35.8781 112.558 36.0997 111.472 36.3434C110.386 36.5871 109.306 36.8558 108.231 37.1494C107.151 37.443 106.082 37.7588 105.024 38.0967C103.96 38.4291 102.905 38.7892 101.858 39.177C99.7251 40.0633 97.5979 40.9635 95.4762 41.8776C76.9126 50.0791 62.5536 66.7565 55.2993 85.4696C53.5793 85.2702 51.7927 85.2785 50.0643 85.2037C45.6215 85.032 41.1731 84.9295 36.7191 84.8963C37.7578 82.1209 39.0043 79.412 39.9432 76.6033C37.6415 74.5924 30.1712 68.7591 28.8998 66.6568C28.235 65.5682 28.2018 64.0974 28.501 62.8842C28.9247 61.1641 35.7885 49.539 37.118 47.6694C37.6415 46.9381 38.3561 46.049 39.1621 45.6169C42.0289 44.0713 50.9701 47.8355 53.9615 48.8493C56.0888 46.1321 58.2742 43.4481 60.7421 41.0217C62.9774 38.8197 65.4204 36.8337 67.6806 34.6566C66.6502 31.8978 63.2765 24.4358 63.451 21.9263C63.4621 21.7656 63.4815 21.6077 63.5092 21.4526C63.5369 21.2975 63.5729 21.1452 63.6172 20.9956C63.6616 20.8405 63.7114 20.6909 63.7668 20.5469C63.8277 20.3973 63.8942 20.2533 63.9662 20.1148C64.0383 19.9708 64.1186 19.835 64.2072 19.7076C64.2903 19.5747 64.3817 19.4445 64.4814 19.3171C64.5811 19.1952 64.6864 19.0789 64.7972 18.9681C64.908 18.8573 65.0243 18.752 65.1462 18.6523C66.9494 17.14 69.168 16.0182 71.1623 14.7717C73.7882 13.1347 76.63 10.9659 79.5135 9.82753C80.2779 9.52839 80.8679 9.40374 81.6823 9.47853C83.6018 9.66965 84.7734 10.8081 85.9118 12.2373C86.7511 13.0184 87.499 14.1319 88.2302 15.0293C90.0085 17.1732 91.7424 19.3531 93.432 21.569C95.634 20.7546 97.8028 19.8406 100.022 19.0678C104.168 17.6219 108.381 16.4669 112.635 15.4033Z" fill="#FC2860"/>
<path d="M67.6806 34.6563C66.6502 31.8975 63.2765 24.4355 63.451 21.926C63.4621 21.7653 63.4815 21.6075 63.5092 21.4523C63.5369 21.2972 63.5729 21.1449 63.6172 20.9953C63.6616 20.8402 63.7114 20.6906 63.7668 20.5466C63.8277 20.397 63.8942 20.253 63.9662 20.1145C64.0383 19.9705 64.1186 19.8347 64.2072 19.7073C64.2903 19.5744 64.3817 19.4442 64.4814 19.3168C64.5811 19.1949 64.6864 19.0786 64.7972 18.9678C64.908 18.857 65.0243 18.7517 65.1462 18.652C66.9494 17.1397 69.168 16.0179 71.1623 14.7714C73.7882 13.1344 76.63 10.9656 79.5135 9.82724C80.2779 9.52809 80.8679 9.40345 81.6823 9.47823C83.6018 9.66935 84.7734 10.8078 85.9118 12.237C85.6127 12.1705 85.4797 12.2121 85.2803 11.9711C84.3663 10.8659 83.2278 9.87709 81.7321 9.76076C79.5384 9.58626 75.6827 11.9877 74.0873 13.4004C74.0541 13.4336 74.0208 13.4641 73.9876 13.4918C74.0458 13.7743 74.1205 14.0153 74.2036 14.2812C74.0707 14.5803 73.946 14.68 73.7051 14.8795C72.5916 15.8018 71.9517 17.6133 71.3451 18.9096C71.3618 19.3085 71.4365 19.6159 71.5529 19.9899C71.1873 20.9455 69.9076 22.2999 69.8162 23.214C69.758 23.7292 69.7497 24.2942 69.7663 24.8177C69.8328 26.4547 70.7635 27.859 70.938 29.4545C71.0709 30.6427 70.9463 31.8559 70.9795 33.0442C71.0044 34.0995 71.1706 35.1631 71.3119 36.2101C71.4033 36.8666 71.4366 37.8222 71.744 38.4122C71.9185 38.7529 72.1346 39.0686 72.3589 39.3844C73.5389 39.6752 74.8601 40.6475 75.4916 41.6779C76.4971 43.3398 76.4722 44.8272 78.6327 45.4172C79.6464 45.6914 80.735 45.5667 81.7737 45.5252C82.721 46.1983 83.3691 46.8713 84.5657 46.8464C84.3579 47.212 84.4743 47.0458 84.2084 47.345L84.2915 47.5195C85.405 47.3117 86.5517 46.4143 87.5156 45.8243C89.6428 44.528 94.5123 41.3621 96.8057 40.9965C98.5092 40.7222 100.055 39.1019 101.841 38.9191L101.858 39.1767C99.7251 40.063 97.5979 40.9632 95.4762 41.8773C76.9126 50.0788 62.5536 66.7562 55.2993 85.4693C53.5793 85.2699 51.7927 85.2782 50.0643 85.2034C45.6215 85.0317 41.1731 84.9292 36.7191 84.896C37.7578 82.1206 39.0043 79.4117 39.9432 76.603C37.6415 74.5921 30.1712 68.7588 28.8998 66.6565C28.235 65.5679 28.2018 64.0971 28.501 62.8839C28.9247 61.1638 35.7885 49.5387 37.118 47.6691C37.6415 46.9378 38.3561 46.0487 39.1621 45.6166C42.0289 44.071 50.9701 47.8352 53.9615 48.849C56.0888 46.1318 58.2742 43.4478 60.7421 41.0214C62.9774 38.8194 65.4204 36.8334 67.6806 34.6563Z" fill="url(#paint3_linear_40_7667)"/>
<path d="M120.91 0.936271L132.07 0.903031C133.89 0.903031 135.95 0.711914 137.745 0.994439C138.792 1.16063 139.781 1.54287 140.546 2.29073C141.21 2.94719 141.618 3.79476 141.892 4.68389C142.432 6.4289 143.562 13.6167 143.678 15.5611C150.193 16.9073 156.326 18.6855 162.466 21.2532C164.594 18.9764 170.992 11.8301 173.136 10.4009C173.801 9.96048 174.565 9.73612 175.355 9.70288C175.994 9.66964 176.692 9.77767 177.282 10.027C179.102 10.8164 180.872 12.2955 182.534 13.3923C185.417 15.2869 189.564 17.4806 191.982 19.8406C192.697 20.5469 193.062 21.0288 193.046 22.0592C192.987 25.3581 190.869 31.8562 189.813 35.18C194.533 38.7781 198.738 43.5146 202.244 48.2676C205.56 47.2871 212.399 45.002 215.523 44.761C216.312 44.7028 217.11 44.761 217.808 45.1599C218.382 45.4839 218.872 45.9659 219.254 46.4977C220.417 48.1347 221.298 50.1373 222.295 51.8823C223.6 54.1591 228.42 61.7209 228.91 63.6985C229.134 64.6126 228.91 65.9172 228.37 66.6817C227.256 68.2688 220.442 72.7809 218.465 74.1769C219.237 77.5257 219.661 81.0157 220.226 84.406C220.658 86.9654 221.298 89.6493 221.498 92.2253C228.511 93.1311 235.823 96.887 241.324 101.299C238.657 100.169 235.965 98.8979 233.231 97.9589C224.664 95.0339 212.515 92.9316 203.441 91.9677C202.444 88.8932 201.455 85.8186 200.175 82.8438C199.948 82.3009 199.713 81.7608 199.469 81.2234C199.225 80.6916 198.976 80.1598 198.721 79.628C198.466 79.0962 198.206 78.5671 197.94 78.0409C197.674 77.5146 197.403 76.9911 197.126 76.4704C196.849 75.9496 196.566 75.4317 196.278 74.9165C195.99 74.4068 195.696 73.8972 195.397 73.3875C195.098 72.8778 194.793 72.3737 194.483 71.8752C194.173 71.3766 193.857 70.878 193.536 70.3794C193.215 69.8864 192.888 69.3961 192.555 68.9086C192.223 68.4267 191.885 67.9447 191.542 67.4628C191.198 66.9863 190.849 66.5099 190.495 66.0335C190.146 65.5626 189.788 65.0945 189.423 64.6292C189.063 64.1694 188.694 63.7096 188.317 63.2498C187.946 62.7956 187.57 62.3441 187.187 61.8953C186.805 61.4466 186.417 61.0035 186.024 60.5658C185.631 60.1282 185.232 59.6933 184.827 59.2612C184.423 58.8291 184.016 58.4026 183.606 57.9815C183.196 57.5605 182.781 57.145 182.36 56.7351C181.938 56.3196 181.512 55.9097 181.08 55.5053C180.653 55.1064 180.221 54.7103 179.784 54.317C179.346 53.9237 178.903 53.5331 178.454 53.1454C178.005 52.7631 177.554 52.3836 177.1 52.0069C176.645 51.6358 176.185 51.2674 175.72 50.9018C175.26 50.5362 174.795 50.1761 174.324 49.8215C173.853 49.467 173.377 49.118 172.895 48.7745C172.418 48.4311 171.937 48.0931 171.449 47.7608C170.967 47.4284 170.48 47.1015 169.987 46.7802C169.494 46.4534 168.995 46.1348 168.491 45.8246C167.992 45.5144 167.491 45.2097 166.987 44.9106C166.477 44.6059 165.967 44.3095 165.458 44.0214C164.943 43.7334 164.425 43.4481 163.904 43.1656C163.383 42.8886 162.862 42.6171 162.342 42.3512C160.857 41.6144 159.35 40.9275 157.821 40.2904C156.292 39.6534 154.744 39.0662 153.176 38.5288C151.609 37.9915 150.024 37.5095 148.423 37.0829C146.822 36.6508 145.21 36.2714 143.587 35.9445C141.235 35.4958 138.792 35.3462 136.466 34.8477C138.144 34.158 146.479 36.468 148.764 36.7173C150.052 36.1772 150.75 28.0338 150.808 26.3387C150.866 24.6019 150.417 19.799 151.174 18.5277C151.282 18.3448 151.265 18.4113 151.332 18.2036C151.431 17.9127 151.489 17.8878 151.348 17.597C148.814 17.0319 146.18 16.5749 143.695 15.8187C142.723 14.8964 142.449 5.95526 141.144 3.63688C140.587 2.64804 139.748 1.92511 138.684 1.55949C136.241 0.711913 127.732 1.2188 124.591 1.22711C123.578 1.22711 122.148 1.36006 121.201 1.04429C121.11 1.01106 121.01 0.96951 120.91 0.936271Z" fill="url(#paint4_linear_40_7667)"/>
<path d="M95.136 47.8844C98.4266 45.9899 102.066 44.4609 105.673 43.2726C106.515 43.0012 107.359 42.7436 108.207 42.4998C109.055 42.2561 109.905 42.029 110.758 41.8185C111.617 41.6079 112.478 41.4113 113.342 41.2285C114.207 41.0512 115.073 40.8878 115.943 40.7382C116.813 40.5886 117.685 40.4557 118.561 40.3393C119.436 40.223 120.311 40.1233 121.187 40.0402C122.067 39.9516 122.948 39.8823 123.829 39.8325C124.71 39.7771 125.591 39.7383 126.471 39.7161C127.352 39.6995 128.233 39.6967 129.114 39.7078C129.995 39.7189 130.876 39.7438 131.756 39.7826C132.643 39.8269 133.524 39.8879 134.399 39.9654C135.28 40.0374 136.158 40.1288 137.033 40.2396C137.908 40.3449 138.781 40.4668 139.65 40.6053C140.526 40.7438 141.395 40.8989 142.26 41.0706C143.124 41.2368 143.985 41.4224 144.844 41.6273C145.703 41.8268 146.558 42.0428 147.412 42.2755C150.569 43.1314 153.727 44.062 156.66 45.5412C161.87 47.5022 166.731 50.5851 171.135 53.9421C182.977 62.983 189.566 72.1983 195.674 85.6681L197.577 89.8894C194.269 87.3965 190.829 84.9618 187.264 82.8512C185.062 81.5466 182.054 80.3832 180.126 78.8044C178.814 77.7242 177.883 75.8794 176.844 74.5333C175.465 72.7218 173.919 70.9518 172.29 69.3481C170.762 67.8579 169.161 66.4481 167.488 65.1185C165.809 63.789 164.072 62.5453 162.277 61.3875C160.649 60.3239 158.796 59.3683 157.267 58.1883C155.206 57.2992 153.311 56.0777 151.226 55.2135C134.997 48.5326 118.71 49.3636 102.714 56.0195C100.986 57.1247 98.9418 57.964 97.147 58.986C94.9865 60.2103 92.9008 61.5509 90.8898 63.0079C88.8734 64.4648 86.9456 66.0298 85.1064 67.7028C83.5054 69.1874 81.9737 70.7469 80.5112 72.3811C79.1401 73.9267 77.7939 75.8545 76.1403 77.1092C74.0879 78.6798 70.0328 80.4497 67.6396 81.7294C65.2631 82.9841 63.0444 84.43 60.7344 85.7761C62.1055 83.1171 63.1608 80.3167 64.6482 77.6992C71.6698 65.3844 82.2894 54.1914 95.136 47.8844Z" fill="#F11F82"/>
<path d="M157.265 58.1902C157.215 58.0157 157.099 57.8744 156.999 57.7248C151.399 54.509 145.349 52.6061 139.042 51.3265C138.751 51.2683 138.552 51.2434 138.294 51.0855C138.012 50.3459 137.904 49.6396 137.871 48.8502C137.821 47.6952 138.311 41.6292 138.976 40.9062C142.15 40.7567 151.847 43.5071 154.814 45.0278C155.337 45.2937 155.836 45.4848 156.393 45.6676L156.659 45.543C161.869 47.5041 166.73 50.5869 171.134 53.944C182.975 62.9848 189.565 72.2001 195.672 85.67L197.575 89.8912C194.268 87.3984 190.828 84.9636 187.263 82.853C185.061 81.5484 182.053 80.3851 180.125 78.8062C178.812 77.726 177.881 75.8813 176.843 74.5351C175.463 72.7236 173.918 70.9537 172.289 69.3499C170.76 67.8598 169.159 66.4499 167.486 65.1204C165.807 63.7908 164.071 62.5472 162.276 61.3894C160.647 60.3257 158.794 59.3701 157.265 58.1902Z" fill="#FB6A34"/>
<path d="M95.1367 47.8844C98.4273 45.9899 102.067 44.4609 105.673 43.2726C106.515 43.0012 107.36 42.7436 108.208 42.4998C109.055 42.2561 109.906 42.029 110.759 41.8185C111.617 41.6079 112.479 41.4113 113.343 41.2285C114.207 41.0512 115.074 40.8878 115.944 40.7382C116.814 40.5886 117.686 40.4557 118.561 40.3393C119.437 40.223 120.312 40.1233 121.187 40.0402C122.068 39.9516 122.949 39.8823 123.83 39.8325C124.711 39.7771 125.591 39.7383 126.472 39.7161C127.353 39.6995 128.234 39.6967 129.115 39.7078C129.995 39.7189 130.876 39.7438 131.757 39.7826C132.643 39.8269 133.524 39.8879 134.399 39.9654C135.28 40.0374 136.158 40.1288 137.034 40.2396C137.909 40.3449 138.781 40.4668 139.651 40.6053C140.526 40.7438 141.396 40.8989 142.26 41.0706C143.125 41.2368 143.986 41.4224 144.845 41.6273C145.703 41.8268 146.559 42.0428 147.412 42.2755C150.57 43.1314 153.728 44.062 156.661 45.5412L156.395 45.6658C155.838 45.483 155.34 45.2919 154.816 45.026C151.85 43.5053 142.152 40.7548 138.978 40.9044C138.313 41.6273 137.823 47.6933 137.873 48.8484C137.906 49.6378 138.014 50.3441 138.297 51.0836C138.554 51.2415 138.754 51.2665 139.045 51.3246C145.352 52.6043 151.401 54.5072 157.002 57.723C157.101 57.8726 157.218 58.0138 157.267 58.1883C155.207 57.2992 153.312 56.0777 151.226 55.2135C134.998 48.5326 118.711 49.3636 102.715 56.0195C104.394 54.1831 113.783 51.8814 116.767 51.2664C117.456 51.1252 118.179 51.1169 118.877 50.9756L118.678 50.6183L118.52 50.6765L118.628 50.5352C117.955 49.4716 117.498 48.3415 116.875 47.2612C115.969 46.8458 115.254 46.53 114.581 45.7655C114.058 45.1755 113.451 44.3695 113.592 43.5219C113.667 43.0898 113.916 42.691 114.299 42.4749C114.598 42.3004 114.847 42.1508 115.13 41.9514L115.121 41.7104C114.955 41.6356 114.897 41.5941 114.739 41.5442C111.881 40.6302 98.3193 46.5134 95.5023 48.0091L95.1367 47.8844Z" fill="url(#paint5_linear_40_7667)"/>
<path d="M172.438 150.201L188.343 150.168C187.063 152.162 181.637 158.727 179.551 159.865C178.654 160.837 177.665 161.951 176.56 162.674C172.987 166.247 166.314 170.709 161.719 172.886C160.148 173.958 157.971 174.748 156.201 175.487C155.492 175.781 154.778 176.063 154.057 176.335C153.343 176.606 152.62 176.867 151.889 177.116C151.163 177.365 150.434 177.601 149.703 177.822C148.966 178.049 148.227 178.263 147.484 178.462C146.748 178.662 146.005 178.85 145.258 179.027C144.51 179.21 143.759 179.376 143.006 179.526C142.252 179.681 141.499 179.822 140.745 179.95C139.986 180.082 139.228 180.202 138.469 180.307C137.704 180.412 136.94 180.506 136.175 180.589C135.416 180.667 134.652 180.736 133.882 180.797C133.117 180.852 132.35 180.897 131.58 180.93C130.815 180.963 130.048 180.983 129.278 180.988C128.514 180.999 127.746 180.997 126.976 180.98C126.206 180.963 125.439 180.933 124.675 180.889C123.91 180.85 123.143 180.797 122.373 180.731C121.608 180.664 120.847 180.587 120.088 180.498C99.588 178.08 81.199 166.629 68.5352 150.559C73.5126 150.459 78.4568 150.708 83.4342 150.492C88.5114 156.184 96.5634 161.178 103.452 164.336C118.168 171.075 134.522 171.266 149.628 165.657C155.586 163.089 160.913 159.774 166.189 156.018C166.68 155.445 167.594 154.871 168.192 154.398C169.654 153.035 171.05 151.639 172.438 150.201Z" fill="#1CAFBF"/>
<path d="M172.439 150.201L188.343 150.168C187.064 152.162 181.637 158.727 179.552 159.865C178.654 160.837 177.665 161.951 176.56 162.674C172.987 166.247 166.315 170.709 161.719 172.886C162.7 171.224 167.303 170.128 168.359 168.333C165.309 166.064 161.528 164.17 159.26 161.07C157.714 162.184 151.233 165.832 149.629 165.657C155.587 163.089 160.913 159.774 166.19 156.018C166.68 155.445 167.594 154.871 168.193 154.398C169.655 153.035 171.051 151.639 172.439 150.201Z" fill="url(#paint6_linear_40_7667)"/>
<path d="M54.8506 122.648C55.7979 122.564 56.7369 122.498 57.6925 122.523C61.9637 122.606 66.4342 124.467 69.3924 127.575C73.5389 131.921 74.6939 136.691 74.5527 142.541L59.1218 142.491L39.1455 142.433C39.1123 137.721 39.8934 133.558 42.727 129.677C45.7267 125.581 49.8898 123.42 54.8506 122.648Z" fill="#821E9C"/>
<path d="M195.757 123.054C196.018 123.015 196.278 122.979 196.538 122.946C196.793 122.919 197.054 122.896 197.319 122.88C197.58 122.863 197.84 122.852 198.101 122.847C198.361 122.841 198.621 122.844 198.882 122.855C199.148 122.866 199.411 122.883 199.671 122.905C199.931 122.921 200.189 122.949 200.444 122.988C200.704 123.021 200.965 123.06 201.225 123.104C201.48 123.154 201.735 123.209 201.989 123.27C202.244 123.326 202.499 123.389 202.754 123.461C203.003 123.533 203.252 123.614 203.502 123.702C203.746 123.785 203.989 123.874 204.233 123.968C204.477 124.062 204.718 124.165 204.956 124.276C205.194 124.381 205.43 124.495 205.662 124.616C205.895 124.738 206.125 124.863 206.352 124.99C206.579 125.123 206.803 125.259 207.025 125.398C207.241 125.542 207.457 125.691 207.673 125.846C207.889 126.001 208.103 126.162 208.313 126.328C208.518 126.494 208.72 126.666 208.92 126.843C209.119 127.021 209.316 127.201 209.51 127.384C209.698 127.572 209.884 127.763 210.066 127.957C210.249 128.156 210.426 128.359 210.598 128.563C210.77 128.763 210.936 128.971 211.097 129.187C211.257 129.397 211.415 129.613 211.57 129.835C211.72 130.056 211.864 130.281 212.002 130.508C212.147 130.735 212.282 130.965 212.41 131.198C212.537 131.43 212.659 131.666 212.775 131.904C212.892 132.148 213.002 132.391 213.108 132.635C213.218 132.879 213.318 133.125 213.407 133.375C213.501 133.63 213.59 133.882 213.673 134.131C213.75 134.386 213.825 134.643 213.897 134.904C213.964 135.164 214.024 135.424 214.08 135.685C214.135 135.945 214.185 136.206 214.229 136.466C214.454 137.879 214.545 139.474 214.246 140.878C214.279 141.427 214.146 142 214.055 142.549C203.297 142.421 192.539 142.418 181.781 142.54C181.307 138.194 181.839 133.807 184.44 130.167C184.606 129.935 184.778 129.707 184.955 129.486C185.132 129.259 185.315 129.037 185.503 128.821C185.692 128.605 185.883 128.395 186.077 128.19C186.276 127.985 186.481 127.782 186.691 127.583C186.896 127.389 187.107 127.198 187.323 127.01C187.539 126.827 187.761 126.647 187.988 126.469C188.215 126.298 188.445 126.129 188.677 125.963C188.916 125.796 189.154 125.639 189.392 125.489C189.636 125.339 189.882 125.193 190.132 125.049C190.381 124.91 190.633 124.777 190.888 124.65C191.143 124.522 191.4 124.4 191.661 124.284C191.927 124.168 192.192 124.06 192.458 123.96C192.724 123.855 192.993 123.758 193.264 123.669C193.536 123.581 193.81 123.5 194.087 123.428C194.358 123.351 194.635 123.281 194.918 123.22C195.195 123.16 195.475 123.104 195.757 123.054Z" fill="#F11F82"/>
<path d="M195.754 123.054C196.014 123.015 196.275 122.979 196.535 122.946C196.79 122.919 197.05 122.896 197.316 122.88C197.576 122.863 197.837 122.852 198.097 122.847C198.358 122.841 198.618 122.844 198.878 122.855C199.144 122.866 199.407 122.883 199.668 122.905C199.928 122.921 200.186 122.949 200.441 122.988C200.701 123.021 200.961 123.06 201.222 123.104C201.476 123.154 201.731 123.209 201.986 123.27C202.241 123.326 202.496 123.389 202.751 123.461C203 123.533 203.249 123.614 203.498 123.702C203.742 123.785 203.986 123.874 204.23 123.968C204.473 124.062 204.714 124.165 204.953 124.276C205.191 124.381 205.426 124.495 205.659 124.616C205.892 124.738 206.121 124.863 206.349 124.99C206.576 125.123 206.8 125.259 207.022 125.398C207.238 125.542 207.454 125.691 207.67 125.846C207.886 126.001 208.099 126.162 208.31 126.328C208.515 126.494 208.717 126.666 208.916 126.843C209.116 127.021 209.312 127.201 209.506 127.384C209.695 127.572 209.88 127.763 210.063 127.957C210.246 128.156 210.423 128.359 210.595 128.563C210.767 128.763 210.933 128.971 211.093 129.187C211.254 129.397 211.412 129.613 211.567 129.835C211.717 130.056 211.861 130.281 211.999 130.508C212.143 130.735 212.279 130.965 212.406 131.198C212.534 131.43 212.656 131.666 212.772 131.904C212.888 132.148 212.999 132.391 213.104 132.635C213.215 132.879 213.315 133.125 213.403 133.375C213.498 133.63 213.586 133.882 213.669 134.131C213.747 134.386 213.822 134.643 213.894 134.904C213.96 135.164 214.021 135.424 214.077 135.685C214.132 135.945 214.182 136.206 214.226 136.466C214.45 137.879 214.542 139.474 214.243 140.878C213.927 140.255 214.027 139.291 214.002 138.593C213.852 135.269 213.179 132.785 211.243 130.043C210.944 129.976 210.819 130.076 210.537 130.184C209.955 129.876 209.307 129.577 208.792 129.17C207.927 128.48 204.462 125.107 203.773 124.234C203.728 124.179 203.687 124.123 203.648 124.068C202.028 123.561 200.549 123.328 198.845 123.245C197.798 123.196 196.768 123.387 195.754 123.054Z" fill="#FC2860"/>
<path d="M7.35938 77.002C8.35652 77.6833 9.22072 78.8799 10.1098 79.7275C10.481 80.0765 10.8632 80.4172 11.2566 80.7496C11.6499 81.082 12.0488 81.4005 12.4532 81.7052C12.8631 82.0154 13.2813 82.3118 13.7079 82.5943C14.1345 82.8824 14.5666 83.1566 15.0042 83.4169C15.4474 83.6773 15.8961 83.9238 16.3503 84.1565C16.8046 84.3892 17.2672 84.6108 17.738 84.8213C18.2034 85.0318 18.6743 85.2284 19.1507 85.4112C19.6326 85.5885 20.1174 85.7547 20.6048 85.9098C19.0925 86.3585 17.6051 86.8239 16.126 87.3474C13.2758 88.3695 10.5835 89.6076 8.02414 91.2196C9.56141 86.3585 9.37029 81.6886 7.35938 77.002Z" fill="#821E9C"/>
<defs>
<linearGradient id="paint0_linear_40_7667" x1="186.417" y1="1.5797" x2="69.3388" y2="121.019" gradientUnits="userSpaceOnUse">
<stop stop-color="#FFD100"/>
<stop offset="1" stop-color="#F000BB"/>
</linearGradient>
<linearGradient id="paint1_linear_40_7667" x1="101.23" y1="47.2798" x2="46.3526" y2="115.911" gradientUnits="userSpaceOnUse">
<stop stop-color="#FF2592"/>
<stop offset="1" stop-color="#6200AA"/>
</linearGradient>
<linearGradient id="paint2_linear_40_7667" x1="188.626" y1="142.749" x2="163.072" y2="193.393" gradientUnits="userSpaceOnUse">
<stop stop-color="#E7A254"/>
<stop offset="1" stop-color="#00D0E4"/>
</linearGradient>
<linearGradient id="paint3_linear_40_7667" x1="57.4844" y1="-20.1454" x2="-10.2937" y2="43.1901" gradientUnits="userSpaceOnUse">
<stop stop-color="#FF1578"/>
<stop offset="1" stop-color="#B308AE"/>
</linearGradient>
<linearGradient id="paint4_linear_40_7667" x1="276.613" y1="30.2568" x2="175.1" y2="-25.46" gradientUnits="userSpaceOnUse">
<stop stop-color="#FAAB09"/>
<stop offset="1" stop-color="#FE5042"/>
</linearGradient>
<linearGradient id="paint5_linear_40_7667" x1="139.043" y1="37.7035" x2="112.784" y2="41.063" gradientUnits="userSpaceOnUse">
<stop stop-color="#FF454C"/>
<stop offset="1" stop-color="#FD2762"/>
</linearGradient>
<linearGradient id="paint6_linear_40_7667" x1="166.463" y1="140.694" x2="152.09" y2="173.55" gradientUnits="userSpaceOnUse">
<stop stop-color="#FF8630"/>
<stop offset="1" stop-color="#1BCAC6"/>
</linearGradient>
</defs>
</svg>
