<svg width="226" height="257" viewBox="0 0 226 257" fill="none" xmlns="http://www.w3.org/2000/svg">
<path d="M57.873 85.7101H194.866C192.652 112.457 184.624 137.497 172.069 159.574L195.6 178.816L197.603 175.431C215.448 144.522 225.648 108.718 225.648 70.6156V55.5349H177.487V45.0676H225.648V13.7645L195.487 10.322V29.8321H177.487V8.20597L147.311 4.73598V55.5349H128.168V2.63371L113.074 0.898438L97.9936 2.63371V55.5349H79.9929V4.73598L49.8183 8.20597V29.8321H30.6746V10.322L0.5 13.7645V45.0676H49.8183V55.5349H0.5V70.6156C0.5 73.0419 0.542431 75.4539 0.626742 77.8521L33.9479 105.107L144.885 195.773C135.335 205.62 124.67 214.394 113.074 221.871C89.0214 206.339 68.9189 185.263 54.6003 160.463C49.0705 150.87 44.3871 140.699 40.6768 130.077L2.37634 98.7728C6.08659 126.338 15.1713 152.266 28.5586 175.431C47.025 207.439 73.6304 234.087 105.527 252.539L113.074 256.898L120.621 252.539C147.015 237.275 169.784 216.397 187.319 191.513L163.986 172.439L57.873 85.7101Z" fill="#C4A058"/>
</svg>
