<svg width="206" height="257" viewBox="0 0 206 257" fill="none" xmlns="http://www.w3.org/2000/svg">
<path fill-rule="evenodd" clip-rule="evenodd" d="M190.482 100.233C189.146 99.8862 187.778 99.9388 186.421 99.9704C186.242 99.8967 186.074 99.7705 185.895 99.7494C180.604 99.2024 175.502 97.8665 170.474 96.1728C165.887 94.3109 161.48 92.1333 157.377 89.3352C151.076 85.0327 145.806 79.6888 141.145 73.6822C139.883 71.8799 138.621 70.074 137.358 68.2647C135.619 65.1579 133.88 62.0477 132.141 58.9339C131.552 57.5804 130.963 56.2234 130.373 54.8629C127.407 47.8675 125.082 40.6827 123.599 33.2244C123.473 32.6248 123.778 32.2461 124.241 31.9515C129.637 29.6583 135.149 27.7648 140.925 26.7444C152.706 24.651 164.036 25.5136 174.576 31.7201C178.132 33.8135 181.225 36.4644 184.096 39.3993C192.67 48.1515 199.434 58.0187 202.874 69.8952C205.577 79.2154 205.914 88.5988 203.379 98.0348C203 99.4654 202.4 99.9493 200.885 100.033C197.414 100.244 193.953 100.17 190.482 100.233ZM199.749 91.8704C201.885 84.2858 201.822 76.796 199.991 69.3482C196.509 55.2311 188.451 44.0068 177.385 34.8759C171.589 30.0896 164.646 27.7648 157.209 27.2283C147.426 26.5235 138.053 28.417 129.132 32.5301C128.743 32.7089 128.259 32.7615 128.249 33.3085C128.249 33.9081 128.785 34.0554 129.216 34.2027C135.907 36.5906 142.229 39.7359 148.393 43.2284C158.808 49.1403 168.201 56.3882 176.88 64.5934C179.257 66.8446 181.509 69.222 183.739 71.6309C187.357 75.5231 190.713 79.6257 193.953 83.823C195.941 86.4002 197.761 89.1038 199.749 91.8704Z" fill="#659030"/>
<path d="M106.254 51.328C104.353 51.335 102.456 51.3385 100.562 51.3385C103.308 38.1366 106.054 24.9347 108.789 11.7433C109.451 8.5664 111.092 6.90432 114.28 6.43095C127.398 4.50589 140.515 2.58083 153.633 0.697843C156.242 0.329662 158.483 1.18173 159.913 3.46445C161.239 5.57886 161.176 7.76692 159.682 9.84977C159.64 8.55588 158.819 7.78796 157.82 7.16731C156.284 6.19952 154.59 6.19951 152.865 6.4625C149.92 6.90432 146.974 7.33562 144.029 7.76691C139.821 8.38756 135.613 8.99769 131.406 9.60782C127.208 10.2285 123.011 10.9228 118.793 11.4487C115.858 11.8169 113.985 13.2686 113.365 16.193C111.436 25.3519 109.539 34.5144 107.674 43.6803C107.148 46.2261 106.317 48.7086 106.254 51.328Z" fill="#3B302C"/>
<path d="M106.254 51.3273C106.317 48.708 107.148 46.2254 107.674 43.6797C109.539 34.5137 111.437 25.3513 113.365 16.1923C113.986 13.2679 115.858 11.8163 118.793 11.4481C123.011 10.9221 127.209 10.2278 131.406 9.60717C135.614 8.99704 139.822 8.38691 144.029 7.76626C146.975 7.33497 149.92 6.90367 152.866 6.46185C154.591 6.19886 156.284 6.19887 157.82 7.16666C158.82 7.78731 159.64 8.55523 159.682 9.84912C158.767 11.3218 157.389 12.0792 155.716 12.3212C144.671 13.9412 133.615 15.5507 122.57 17.1601C120.413 17.4757 119.498 18.2962 119.056 20.4527C118.33 23.9347 117.636 27.4166 116.921 30.9091C116.78 31.6524 116.64 32.3958 116.5 33.1392C116.079 35.0327 115.627 36.9052 115.227 38.7987C114.322 43.0906 113.439 47.3931 112.555 51.685C110.451 51.5658 108.351 51.4466 106.254 51.3273Z" fill="#0F0B09"/>
<path d="M116.5 33.1403C116.64 32.3969 116.781 31.6535 116.921 30.9102C119.382 31.1205 121.865 31.1837 124.242 31.9516C123.779 32.2461 123.474 32.6248 123.601 33.2244C121.234 33.0561 118.867 33.0456 116.5 33.1403Z" fill="#9F7456"/>
<path d="M170.474 96.1721C175.503 97.8658 180.605 99.2017 185.896 99.7487C186.075 99.7698 186.243 99.896 186.422 99.9697C187.548 101.947 188.694 103.904 189.799 105.903C195.279 115.791 198.961 126.31 200.792 137.482C201.78 143.499 202.285 149.537 202.149 155.628C201.865 169.082 199.035 181.979 193.533 194.266C188.221 206.122 180.857 216.546 171.442 225.498C161.323 235.124 149.699 242.361 136.528 247.063C127.576 250.272 118.361 252.134 108.862 252.691C92.0624 253.68 76.0623 250.619 60.8196 243.518C51.836 239.331 43.715 233.861 36.3514 227.224C27.0942 218.882 19.6991 209.12 14.1448 198C9.08493 187.902 5.85546 177.225 4.51948 165.979C3.93039 160.972 3.59376 155.954 3.76208 150.915C4.20389 138.271 6.82325 126.089 11.8726 114.455C17.5847 101.306 25.7793 89.9236 36.3934 80.3193C47.9964 69.8104 61.3772 62.4362 76.4936 58.2705C84.5831 56.0404 92.8303 54.8938 101.235 54.757C111.239 54.5887 121.012 55.851 130.616 58.6071C131.121 58.7439 131.637 58.8281 132.142 58.9332C133.881 62.047 135.62 65.1573 137.359 68.264C135.329 67.8748 133.583 66.7702 131.721 65.9918C121.885 61.8366 111.597 59.6801 100.972 59.1752C95.1025 58.8912 89.2537 59.333 83.4154 60.2377C74.7263 61.5736 66.4686 64.2035 58.5579 67.9905C52.4987 70.8833 46.9024 74.4915 41.6321 78.6677C35.5308 83.4962 30.187 89.0505 25.5374 95.2569C21.4874 100.653 18.1948 106.523 15.4492 112.709C10.9784 122.786 8.66415 133.358 8.05402 144.299C7.6648 151.22 8.18026 158.132 9.50571 164.938C11.3256 174.342 14.4814 183.294 19.1941 191.678C24.3802 200.904 30.9233 209.004 38.9181 215.936C39.5177 216.462 39.9911 217.514 41.1377 217.251C42.0915 218.093 43.0452 218.934 43.999 219.776C50.0582 225.372 56.8538 229.885 64.27 233.441C79.397 240.688 95.3234 243.529 112.06 241.825C122.727 240.731 132.857 237.838 142.419 233.062C156.463 226.045 167.866 215.978 176.618 202.966C179.342 198.905 181.878 194.718 183.645 190.121C184.045 189.732 184.202 189.238 184.192 188.691C184.276 188.593 184.364 188.494 184.455 188.396C184.581 188.039 184.711 187.677 184.844 187.313C185.17 186.755 185.496 186.198 185.612 185.545C188.358 178.655 190.156 171.523 190.861 164.128C191.124 163.76 191.008 163.349 190.966 162.939C191.314 161.856 191.356 160.741 191.292 159.615C191.306 159.131 191.324 158.647 191.345 158.163C191.713 156.564 191.566 154.944 191.534 153.324C191.608 150.084 191.261 146.855 190.987 143.625C190.577 141.532 190.588 139.365 189.904 137.314C189.872 136.988 189.883 136.651 189.809 136.335C188.852 131.707 187.6 127.162 185.938 122.734C182.603 113.908 177.975 105.818 172.052 98.4654C171.484 97.75 170.632 97.182 170.474 96.1721Z" fill="#EBD69B"/>
<path d="M199.751 91.8704C197.763 89.1038 195.943 86.4003 193.955 83.823C190.715 79.6258 187.359 75.5232 183.74 71.631C181.51 69.222 179.259 66.8446 176.881 64.5935C168.203 56.3883 158.809 49.1404 148.395 43.2284C142.23 39.736 135.908 36.5907 129.218 34.2027C128.786 34.0555 128.25 33.9082 128.25 33.3086C128.261 32.7616 128.744 32.709 129.134 32.5301C138.054 28.417 147.427 26.5235 157.21 27.2283C164.647 27.7648 171.59 30.0896 177.386 34.876C188.453 44.0069 196.511 55.2311 199.993 69.3482C201.823 76.796 201.886 84.2859 199.751 91.8704Z" fill="#79A035"/>
<path d="M41.136 217.251C39.9894 217.514 39.516 216.462 38.9164 215.936C30.9216 209.004 24.3785 200.904 19.1924 191.678C14.4797 183.294 11.3239 174.342 9.50402 164.938C8.17857 158.132 7.66311 151.221 8.05233 144.299C8.66246 133.358 10.9767 122.786 15.4475 112.709C18.1931 106.523 21.4857 100.654 25.5357 95.257C30.1853 89.0505 35.5291 83.4963 41.6304 78.6678C46.9007 74.4916 52.497 70.8834 58.5563 67.9906C66.4669 64.2036 74.7246 61.5737 83.4137 60.2377C89.252 59.3331 95.1008 58.8913 100.971 59.1753C111.595 59.6802 121.883 61.8367 131.719 65.9919C133.581 66.7703 135.327 67.8749 137.357 68.2641C138.62 70.0734 139.882 71.8793 141.145 73.6816C140.703 73.7447 140.313 73.5764 139.924 73.3976C135.927 71.5146 131.803 69.9577 127.543 68.7585C121.515 67.0649 115.424 65.771 109.134 65.6868C106.956 65.1714 104.737 65.2976 102.528 65.3607C100.729 65.1714 98.9404 65.4554 97.1416 65.4449C93.8385 65.6763 90.5459 66.0445 87.2954 66.6441C77.8595 68.3903 68.9074 71.4936 60.4708 76.1326C50.3195 81.708 41.5673 88.9348 34.2458 97.8869C28.9229 104.388 24.631 111.531 21.3594 119.262C20.602 121.04 19.6763 122.776 19.4028 124.733C19.2556 124.974 19.0662 125.195 18.982 125.458C17.8985 128.688 17.0044 131.991 16.2996 135.326C15.5948 138.639 15.0898 142.005 14.7532 145.382C14.6059 146.89 14.4937 148.401 14.4166 149.916C14.3815 150.681 14.3535 151.448 14.3324 152.22C14.3009 153.472 14.3956 154.713 14.4482 155.965C14.4902 157.269 14.5323 158.574 14.5849 159.878C14.6901 162.518 15.0267 165.138 15.458 167.736C16.0787 171.449 16.7204 175.163 18.0458 178.718C18.0879 178.95 18.0984 179.192 18.172 179.413C20.7283 188.207 24.7257 196.296 29.8697 203.849C33.1728 208.699 37.0124 213.085 41.136 217.251Z" fill="#F1E3B6"/>
<path d="M109.136 65.6875C115.426 65.7717 121.517 67.0656 127.545 68.7592C131.805 69.9584 135.929 71.5153 139.926 73.3983C140.315 73.5771 140.705 73.7454 141.146 73.6823C145.807 79.6889 151.077 85.0328 157.378 89.3352C161.481 92.1334 165.888 94.311 170.475 96.1729C170.633 97.1828 171.485 97.7508 172.053 98.4661C177.975 105.819 182.604 113.909 185.938 122.735C187.6 127.163 188.852 131.708 189.809 136.336C189.883 136.652 189.873 136.988 189.904 137.315C188.81 137.967 188.274 139.271 187.011 139.713C185.423 139.124 183.834 138.503 182.225 137.946C178.701 136.715 175.166 135.526 171.632 134.316C170.874 129.099 169.496 124.049 167.603 119.137C164.216 110.332 159.408 102.358 153.118 95.3419C148.089 89.756 142.388 84.896 135.929 80.9933C130.048 77.4483 123.863 74.6501 117.257 72.725C114.259 71.8414 111.177 71.3575 108.168 70.5265C108.336 68.8854 108.757 67.2865 109.136 65.6875Z" fill="#E5CB82"/>
<path fill-rule="evenodd" clip-rule="evenodd" d="M183.645 190.121C181.878 194.718 179.343 198.905 176.618 202.965C167.866 215.978 156.463 226.045 142.42 233.062C132.858 237.838 122.727 240.73 112.061 241.824C95.3241 243.529 79.3976 240.688 64.2706 233.44C56.8544 229.885 50.0588 225.372 43.9996 219.776C43.9996 219.586 43.9681 219.386 44.0102 219.208C46.2298 209.603 50.2166 200.988 57.6855 194.213C60.9886 191.226 64.6809 188.996 68.8887 187.702C76.2628 185.44 83.7422 185.766 91.211 187.165C98.7639 188.596 106.001 191.173 113.365 193.298C121.917 195.77 130.543 197.38 139.527 196.443C144.113 195.96 148.584 195.086 152.939 193.624C153.434 193.456 153.981 193.414 154.223 192.846C154.601 192.923 154.983 193 155.369 193.077C157.704 193.992 160.134 192.888 161.102 190.468C161.264 190.251 161.421 190.034 161.576 189.816C163.543 189.311 165.079 188.028 166.751 186.986C167.204 189.764 169.328 191.341 171.58 190.553C172.968 190.079 173.757 189.101 173.936 187.639C174.157 185.777 173.273 184.577 171.643 183.82C173.62 181.885 175.609 179.959 177.576 178.024C177.975 177.635 178.491 177.319 178.491 176.656C178.673 176.705 178.859 176.755 179.048 176.804C180.426 178.119 182.509 178.034 183.782 176.614C185.329 174.889 185.045 172.806 183.067 171.281C183.032 171.218 183.011 171.148 183.004 171.071C184.676 168.809 185.981 166.326 187.233 163.812C187.475 163.318 187.58 162.718 188.169 162.455C188.789 163.454 189.663 164.054 190.862 164.128C190.157 171.523 188.358 178.655 185.613 185.545C184.96 185.114 184.434 184.472 183.551 184.399C181.92 184.251 180.311 185.566 180.227 187.165C180.132 188.775 181.657 190.09 183.645 190.121ZM171.054 203.544C172.958 203.544 174.483 202.019 174.504 200.125C174.515 198.095 172.947 196.443 170.969 196.412C169.202 196.38 167.361 198.19 167.361 199.967C167.351 201.924 169.034 203.555 171.054 203.544Z" fill="#FA4C51"/>
<path fill-rule="evenodd" clip-rule="evenodd" d="M178.49 176.656C178.49 177.319 177.974 177.634 177.574 178.024C175.607 179.959 173.619 181.884 171.641 183.82C171.424 183.75 171.207 183.68 170.989 183.609C168.612 183.641 167.518 184.483 166.992 186.702C166.915 186.8 166.834 186.895 166.75 186.986C165.077 188.028 163.541 189.311 161.574 189.816C161.595 189.385 161.627 188.953 161.616 188.533C161.606 186.208 160.207 184.43 157.861 183.788C155.873 183.241 153.716 184.125 152.591 185.955C151.192 188.217 151.728 190.489 154.221 192.846C153.979 193.414 153.432 193.456 152.938 193.624C148.583 195.086 144.112 195.959 139.526 196.443C130.542 197.379 121.916 195.77 113.364 193.298C106 191.173 98.7627 188.596 91.2097 187.165C83.7409 185.766 76.2616 185.44 68.8874 187.702C64.6796 188.995 60.9873 191.226 57.6842 194.213C50.2154 200.988 46.2285 209.603 44.0089 219.207C43.9668 219.386 43.9984 219.586 43.9984 219.775C43.0446 218.934 42.0909 218.092 41.1371 217.251C37.0135 213.085 33.1739 208.698 29.8707 203.849C24.7267 196.296 20.7293 188.206 18.1731 179.412C18.0995 179.191 18.089 178.949 18.0469 178.718C19.1725 178.339 19.2671 177.224 19.73 176.372C19.8036 176.225 20.4032 176.509 20.4874 176.551C20.7504 176.677 21.0028 176.835 21.2763 176.94C22.2336 177.319 23.2961 177.172 24.2218 176.793C24.2569 176.779 24.2919 176.765 24.327 176.751C24.5374 176.656 24.7372 176.54 24.9582 176.446C25.4315 176.172 25.8734 175.825 26.231 175.394C26.8096 174.721 27.2093 173.889 27.3461 173.006C27.5039 171.996 27.2935 170.934 26.778 170.05C26.6728 169.868 26.5571 169.692 26.4309 169.524C26.3046 169.366 26.1469 169.219 26.0522 169.029C26.0311 168.987 25.947 168.798 25.9785 168.745C27.0621 167.42 28.3875 166.347 29.6288 165.179C34.6676 160.467 40.3481 156.753 46.6493 153.966C52.7821 151.252 59.199 149.684 65.8683 149.348C71.4331 149.074 76.9138 149.874 82.3208 151.199C90.1367 153.103 97.5214 156.259 104.896 159.362C112.554 162.581 120.128 165.958 128.133 168.251C135.823 170.45 143.639 171.386 151.602 170.386C158.587 169.513 165.13 167.157 171.273 163.717C171.652 163.507 171.978 163.233 172.441 163.307C172.693 166.137 175.144 167.736 177.49 166.621C178.816 165.989 179.521 164.885 179.542 163.475C179.563 161.939 178.774 160.793 177.343 160.13C177.459 159.225 178.227 158.815 178.816 158.321C183.371 154.523 187.021 149.989 189.987 144.887C190.25 144.424 190.261 143.73 190.987 143.625C191.26 146.854 191.607 150.084 191.534 153.324C191.387 153.429 191.155 153.492 191.113 153.618C190.598 155.217 190.103 156.827 189.619 158.436C189.521 158.535 189.423 158.633 189.325 158.731C188.147 159.446 187.768 160.509 187.936 161.824C188.013 162.034 188.09 162.244 188.168 162.455C187.578 162.718 187.473 163.317 187.231 163.812C185.98 166.326 184.675 168.809 183.003 171.07C180.604 170.229 178.826 170.818 177.922 172.753C177.259 174.173 177.764 175.436 178.49 176.656ZM161.606 173.174C161.606 175.204 163.079 176.688 165.067 176.698C167.013 176.709 168.686 175.12 168.696 173.248C168.707 171.323 167.002 169.608 165.077 169.608C163.184 169.608 161.606 171.218 161.606 173.174Z" fill="#FB656A"/>
<path fill-rule="evenodd" clip-rule="evenodd" d="M19.7315 176.373C19.2686 177.225 19.1739 178.34 18.0484 178.719C16.7229 175.163 16.0812 171.45 15.4606 167.736C15.0293 165.138 14.6927 162.519 14.5875 159.878C16.4915 158.248 16.4915 156.196 14.5875 154.429C14.3455 154.05 14.3034 153.63 14.314 153.198C14.4717 143.72 15.976 134.463 18.9846 125.459C19.0688 125.196 19.2581 124.975 19.4054 124.733C20.275 124.55 21.1411 124.368 22.0037 124.186C29.0096 123.008 36.0366 122.787 43.1162 123.292C49.996 123.796 56.7494 124.933 63.4083 126.647C67.6266 127.741 71.7923 129.025 75.9895 130.224C76.4208 130.403 76.8311 130.624 77.2729 130.76C83.3216 132.717 89.223 135.073 95.156 137.356C103.025 140.396 110.851 143.552 118.825 146.308C128.05 149.496 137.36 152.304 147.185 153.072C152.35 153.482 157.505 153.514 162.617 152.63C170.139 151.326 176.882 148.17 182.888 143.489C184.35 142.353 186.065 141.438 187.012 139.712C188.274 139.271 188.811 137.966 189.905 137.314C190.589 139.365 190.578 141.532 190.988 143.626C190.262 143.731 190.252 144.425 189.989 144.888C187.022 149.99 183.372 154.524 178.817 158.321C178.228 158.816 177.46 159.226 177.345 160.131C177.05 160.061 176.752 159.987 176.45 159.91C174.273 159.878 173.221 160.615 172.548 162.687C172.513 162.897 172.478 163.104 172.442 163.308C171.98 163.234 171.653 163.507 171.275 163.718C165.131 167.158 158.588 169.514 151.603 170.387C143.64 171.386 135.824 170.45 128.134 168.252C120.129 165.958 112.555 162.582 104.897 159.363C97.5229 156.26 90.1382 153.104 82.3223 151.2C76.9153 149.874 71.4346 149.075 65.8698 149.348C59.2005 149.685 52.7836 151.252 46.6508 153.966C40.3496 156.754 34.6691 160.467 29.6303 165.18C28.389 166.348 27.0635 167.421 25.98 168.746C22.74 165.738 18.0273 167.873 17.596 171.692C17.3856 173.669 18.3429 175.121 19.7315 176.373ZM17.4067 145.246C17.3541 147.234 18.8268 148.875 20.7413 148.959C22.6138 149.054 24.3495 147.455 24.4442 145.561C24.5494 143.647 22.982 141.964 21.0464 141.89C19.0267 141.816 17.4488 143.268 17.4067 145.246ZM27.9787 159.878C29.5672 159.878 30.8085 158.69 30.84 157.143C30.8611 155.544 29.5672 154.198 27.9893 154.198C26.3693 154.187 25.1069 155.481 25.1385 157.112C25.17 158.7 26.3798 159.878 27.9787 159.878Z" fill="#FC8487"/>
<path d="M183.646 190.123C181.657 190.091 180.132 188.776 180.227 187.167C180.311 185.568 181.92 184.253 183.551 184.4C184.435 184.474 184.961 185.115 185.613 185.547C185.497 186.199 185.171 186.756 184.845 187.314C184.708 186.209 184.056 185.568 182.972 185.62C182.215 185.662 181.721 186.23 181.626 187.03C181.447 188.418 182.489 189.102 184.193 188.692C184.203 189.239 184.045 189.733 183.646 190.123Z" fill="#FC8487"/>
<path d="M184.192 188.692C182.488 189.102 181.447 188.418 181.625 187.03C181.72 186.23 182.214 185.662 182.972 185.62C184.055 185.568 184.708 186.209 184.844 187.314C184.718 187.678 184.588 188.04 184.455 188.397C184.364 188.495 184.276 188.594 184.192 188.692Z" fill="#FA4C51"/>
<path d="M191.292 159.616C191.355 160.741 191.313 161.856 190.966 162.94C189.84 162.761 189.136 162.14 188.988 160.973C189.023 160.804 189.055 160.636 189.083 160.468C189.693 159.868 190.356 159.384 191.292 159.616Z" fill="#FA4C51"/>
<path d="M189.621 158.437C190.105 156.827 190.599 155.218 191.115 153.619C191.157 153.493 191.388 153.429 191.536 153.324C191.567 154.944 191.714 156.564 191.346 158.163C190.799 158.468 190.21 158.437 189.621 158.437Z" fill="#FA4C51"/>
<path d="M188.989 160.973C189.137 162.141 189.842 162.761 190.967 162.94C191.009 163.35 191.125 163.761 190.862 164.129C189.663 164.055 188.79 163.456 188.169 162.456C188.092 162.246 188.015 162.035 187.938 161.825C188.6 161.93 188.4 160.952 188.989 160.973Z" fill="#FC8487"/>
<path d="M189.619 158.438C190.208 158.438 190.797 158.469 191.344 158.164C191.323 158.648 191.305 159.132 191.291 159.616C190.355 159.384 189.692 159.868 189.082 160.468C189.159 159.893 189.24 159.314 189.324 158.732C189.422 158.634 189.52 158.536 189.619 158.438Z" fill="#FC8487"/>
<path d="M109.134 65.6878C108.755 67.2868 108.335 68.8857 108.166 70.5268C108.103 70.7056 108.008 70.8739 107.966 71.0527C104.095 89.7072 100.224 108.365 96.3529 127.027C94.1298 127.3 91.9067 127.574 89.6836 127.847C89.7152 127.511 89.7152 127.185 89.7888 126.858C90.6935 122.514 91.6192 118.169 92.5238 113.814C94.5155 104.242 96.5037 94.6654 98.4884 85.0857C99.8454 78.511 101.181 71.9364 102.528 65.3617C104.737 65.2986 106.957 65.1724 109.134 65.6878Z" fill="#0F0B09"/>
<path d="M102.53 65.3602C101.184 71.9348 99.8477 78.5095 98.4907 85.0842C96.506 94.6639 94.5179 104.24 92.5262 113.813C91.6215 118.168 90.6958 122.512 89.7911 126.857C89.7175 127.183 89.7175 127.509 89.6859 127.846C87.7854 128.126 85.8849 128.407 83.9844 128.687C85.5623 121.071 87.1367 113.452 88.7076 105.829C91.1902 93.7943 93.6693 81.7565 96.1449 69.7152C96.4815 68.2916 96.8146 66.868 97.1442 65.4443C98.943 65.4549 100.731 65.1708 102.53 65.3602Z" fill="#3B302C"/>
<path d="M97.145 65.4453C96.8154 66.8689 96.4823 68.2926 96.1457 69.7162C90.3915 69.5058 84.711 70.137 79.1147 71.4204C63.1777 75.0601 49.6286 82.7919 38.5727 94.8998C32.9553 101.054 28.5266 107.954 25.1078 115.507C23.8349 118.306 22.6568 121.156 22.0046 124.186C21.142 124.368 20.2759 124.551 19.4062 124.733C19.6798 122.776 20.6055 121.041 21.3629 119.263C24.6344 111.531 28.9264 104.388 34.2492 97.8873C41.5707 88.9353 50.3229 81.7084 60.4742 76.1331C68.9108 71.494 77.8629 68.3908 87.2988 66.6445C90.5493 66.0449 93.8419 65.6767 97.145 65.4453Z" fill="#E5CB82"/>
<path d="M96.3555 127.025C100.227 108.364 104.098 89.7059 107.969 71.0514C108.011 70.8725 108.106 70.7042 108.169 70.5254C111.177 71.3564 114.26 71.8403 117.258 72.724C123.864 74.649 130.049 77.4472 135.93 80.9923C142.389 84.895 148.09 89.755 153.118 95.3408C159.409 102.357 164.216 110.331 167.604 119.136C169.497 124.048 170.875 129.098 171.633 134.315C167.909 133.358 164.195 132.348 160.461 131.454C151.351 129.277 142.126 127.814 132.795 126.994C129.145 126.678 125.494 126.457 121.844 126.31C117.237 126.131 112.629 126.079 108.011 126.373C104.129 126.615 100.237 126.815 96.3555 127.025Z" fill="#F1E3B6"/>
<path d="M96.3539 127.025C100.236 126.815 104.128 126.615 108.01 126.373C112.628 126.079 117.235 126.131 121.843 126.31C125.493 126.457 129.143 126.678 132.793 126.994C142.124 127.814 151.35 129.277 160.46 131.454C164.194 132.348 167.907 133.358 171.631 134.315C175.166 135.525 178.7 136.714 182.224 137.945C183.834 138.502 185.422 139.123 187.011 139.712C186.064 141.437 184.349 142.352 182.887 143.488C176.88 148.169 170.137 151.325 162.616 152.63C157.504 153.513 152.349 153.482 147.184 153.072C137.359 152.304 128.049 149.495 118.824 146.308C110.85 143.551 103.023 140.396 95.1547 137.355C89.2218 135.073 83.3203 132.716 77.2717 130.76C76.8298 130.623 76.4196 130.402 75.9883 130.223C78.6532 129.711 81.3181 129.199 83.9831 128.687C85.8836 128.407 87.7841 128.126 89.6846 127.846C91.9077 127.572 94.1308 127.299 96.3539 127.025Z" fill="#FB656A"/>
<path fill-rule="evenodd" clip-rule="evenodd" d="M154.22 192.847C151.727 190.49 151.19 188.218 152.59 185.956C153.715 184.126 155.872 183.242 157.86 183.789C160.206 184.431 161.605 186.209 161.615 188.534C161.626 188.954 161.594 189.386 161.573 189.817C161.419 190.034 161.261 190.252 161.1 190.469C159.122 191.206 157.176 191.984 155.367 193.078C154.981 193.001 154.599 192.924 154.22 192.847ZM153.894 188.492C153.873 190.091 155.177 191.437 156.745 191.447C158.291 191.447 159.617 190.091 159.627 188.492C159.638 187.019 158.302 185.651 156.829 185.609C155.314 185.557 153.915 186.935 153.894 188.492Z" fill="#FDC5CF"/>
<path fill-rule="evenodd" clip-rule="evenodd" d="M171.052 203.545C169.032 203.555 167.349 201.925 167.359 199.968C167.359 198.19 169.2 196.381 170.968 196.413C172.945 196.444 174.513 198.096 174.502 200.126C174.481 202.019 172.956 203.545 171.052 203.545ZM173.04 199.979C173.04 198.864 172.041 197.875 170.926 197.896C169.979 197.906 168.853 199.127 168.885 200.115C168.916 201.146 169.905 202.093 170.947 202.083C172.072 202.072 173.029 201.104 173.04 199.979Z" fill="#FC8487"/>
<path d="M170.989 183.609C171.207 183.68 171.424 183.75 171.642 183.82C173.272 184.577 174.156 185.776 173.935 187.638C173.756 189.101 172.967 190.079 171.578 190.552C169.327 191.341 167.202 189.763 166.75 186.986C166.834 186.895 166.915 186.8 166.992 186.702C167.602 186.807 167.907 186.071 168.507 186.155C168.496 186.481 168.496 186.818 168.475 187.144C168.423 188.206 169.075 188.838 169.927 189.174C170.832 189.521 171.568 189.058 172.125 188.322C173.083 187.049 172.473 185.829 170.474 184.966C170.379 184.409 171.168 184.198 170.989 183.609Z" fill="#FC8487"/>
<path d="M183.065 171.281C185.043 172.807 185.327 174.889 183.781 176.615C182.508 178.035 180.425 178.119 179.047 176.804C179.057 176.331 179.257 175.994 179.741 175.847C180.246 175.952 180.751 176.099 181.256 176.131C182.424 176.194 183.034 175.405 183.223 174.448C183.412 173.49 183.013 172.67 181.908 172.449C181.901 172.372 181.891 172.295 181.877 172.217C182.518 172.207 182.676 171.607 183.065 171.281Z" fill="#FC8487"/>
<path d="M183.066 171.281C182.677 171.607 182.519 172.207 181.877 172.217C180.857 171.965 180.005 172.165 179.426 173.101C178.953 173.858 178.89 174.605 179.563 175.289C179.619 175.478 179.679 175.664 179.742 175.847C179.258 175.994 179.058 176.33 179.048 176.804C178.858 176.755 178.672 176.706 178.49 176.657C177.764 175.436 177.259 174.174 177.922 172.754C178.827 170.818 180.604 170.229 183.003 171.071C183.01 171.148 183.031 171.218 183.066 171.281Z" fill="#FDC5CF"/>
<path d="M155.367 193.078C157.177 191.984 159.123 191.205 161.1 190.469C160.133 192.888 157.703 193.993 155.367 193.078Z" fill="#FC8487"/>
<path fill-rule="evenodd" clip-rule="evenodd" d="M161.605 173.175C161.605 171.219 163.183 169.609 165.077 169.609C167.002 169.609 168.706 171.324 168.696 173.249C168.685 175.122 167.012 176.71 165.066 176.699C163.078 176.689 161.605 175.206 161.605 173.175ZM167.107 173.291C167.16 172.134 166.255 171.093 165.182 171.061C164.057 171.029 163.099 171.966 163.047 173.123C163.005 174.164 163.888 175.164 164.93 175.248C166.045 175.353 167.044 174.438 167.107 173.291Z" fill="#FDC5CF"/>
<path d="M172.441 163.308C172.476 163.105 172.512 162.898 172.547 162.687C173.08 162.498 173.613 162.312 174.146 162.13C174.082 162.403 174.009 162.677 173.967 162.95C173.798 164.076 174.188 164.886 175.282 165.328C176.428 165.791 177.228 165.254 177.796 164.349C178.679 162.971 177.659 161.551 175.597 161.236C175.618 160.625 176.565 160.615 176.449 159.91C176.751 159.987 177.049 160.061 177.343 160.131C178.774 160.794 179.563 161.94 179.542 163.476C179.521 164.886 178.816 165.99 177.491 166.622C175.145 167.737 172.694 166.138 172.441 163.308Z" fill="#FDC5CF"/>
<path d="M170.99 183.609C171.168 184.198 170.379 184.409 170.474 184.966C169.559 184.935 169.086 185.629 168.507 186.155C167.907 186.071 167.602 186.807 166.992 186.702C167.518 184.483 168.612 183.641 170.99 183.609Z" fill="#FDC5CF"/>
<path d="M189.325 158.732C189.241 159.314 189.16 159.893 189.083 160.468C189.055 160.636 189.023 160.805 188.988 160.973C188.399 160.952 188.599 161.93 187.936 161.825C187.768 160.51 188.147 159.448 189.325 158.732Z" fill="#FDC5CF"/>
<path fill-rule="evenodd" clip-rule="evenodd" d="M83.9846 128.688C81.3196 129.2 78.6547 129.712 75.9898 130.224C71.7925 129.024 67.6268 127.741 63.4085 126.647C56.7497 124.932 49.9962 123.796 43.1165 123.291C36.0369 122.786 29.0099 123.007 22.0039 124.185C22.6561 121.156 23.8343 118.305 25.1071 115.507C28.526 107.954 32.9547 101.053 38.5721 94.8992C49.628 82.7913 63.1771 75.0595 79.114 71.4198C84.7104 70.1364 90.3909 69.5052 96.145 69.7156C93.6695 81.7569 91.1904 93.7947 88.7078 105.829C87.1369 113.452 85.5625 121.072 83.9846 128.688ZM54.5827 97.3923C54.9509 94.0261 52.5209 91.6592 48.9548 91.9117C45.9357 92.1326 43.39 93.4054 41.0652 95.1517C36.4787 98.602 32.9652 102.82 31.808 108.638C31.1874 111.73 32.618 114.634 35.2479 115.223C36.5418 115.517 37.8988 115.528 39.1927 115.181C44.3262 113.792 48.1658 110.605 51.1849 106.376C53.0679 103.736 54.6773 100.948 54.5827 97.3923ZM58.0646 92.8163C60.421 92.8479 62.7668 90.6073 62.8404 88.2299C62.9246 85.7683 60.5893 83.4225 58.0225 83.3909C55.8134 83.3593 53.4781 85.6947 53.415 87.9984C53.3414 90.4495 55.5925 92.7743 58.0646 92.8163Z" fill="#F1E3B6"/>
<path d="M176.45 159.909C176.565 160.614 175.619 160.625 175.598 161.235C175.061 161.445 174.556 161.708 174.146 162.129C173.613 162.311 173.08 162.497 172.547 162.686C173.22 160.614 174.272 159.878 176.45 159.909Z" fill="#FEFEFE"/>
<path d="M153.895 188.491C153.916 186.934 155.315 185.556 156.83 185.609C158.302 185.651 159.638 187.019 159.628 188.491C159.617 190.09 158.292 191.447 156.746 191.447C155.178 191.437 153.874 190.09 153.895 188.491Z" fill="#FB656A"/>
<path d="M173.043 199.978C173.032 201.103 172.075 202.071 170.949 202.082C169.908 202.092 168.919 201.145 168.887 200.114C168.856 199.126 169.981 197.905 170.928 197.895C172.043 197.874 173.043 198.863 173.043 199.978Z" fill="#FA4C51"/>
<path d="M168.507 186.157C169.086 185.631 169.559 184.936 170.474 184.968C172.473 185.83 173.083 187.051 172.126 188.324C171.568 189.06 170.832 189.523 169.927 189.176C169.075 188.839 168.423 188.208 168.476 187.145C168.497 186.819 168.497 186.483 168.507 186.157Z" fill="#FA4C51"/>
<path d="M179.741 175.847C179.678 175.665 179.619 175.479 179.562 175.289C180.657 174.606 181.372 173.606 181.908 172.449C183.013 172.67 183.413 173.491 183.223 174.448C183.034 175.405 182.424 176.194 181.256 176.131C180.751 176.099 180.246 175.952 179.741 175.847Z" fill="#FA4C51"/>
<path d="M181.907 172.449C181.371 173.606 180.655 174.605 179.561 175.289C178.888 174.605 178.951 173.858 179.425 173.101C180.003 172.165 180.855 171.965 181.876 172.217C181.89 172.295 181.9 172.372 181.907 172.449Z" fill="#FB656A"/>
<path d="M167.109 173.29C167.046 174.436 166.046 175.351 164.931 175.246C163.89 175.162 163.006 174.163 163.048 173.121C163.101 171.964 164.058 171.028 165.184 171.059C166.257 171.091 167.161 172.132 167.109 173.29Z" fill="#FB656A"/>
<path d="M174.146 162.129C174.556 161.708 175.061 161.445 175.598 161.234C177.66 161.55 178.68 162.97 177.796 164.348C177.228 165.253 176.429 165.789 175.282 165.326C174.188 164.885 173.799 164.075 173.967 162.949C174.009 162.676 174.083 162.402 174.146 162.129Z" fill="#FB656A"/>
<path d="M54.5826 97.3936C54.6773 100.949 53.0678 103.737 51.1848 106.377C48.1658 110.606 44.3262 113.793 39.1927 115.182C37.8988 115.529 36.5418 115.519 35.2479 115.224C32.618 114.635 31.1874 111.732 31.808 108.639C32.9651 102.822 36.4786 98.6033 41.0651 95.153C43.3899 93.4067 45.9356 92.1339 48.9547 91.913C52.5208 91.6605 54.9508 94.0274 54.5826 97.3936Z" fill="#F9F2DF"/>
<path d="M58.0615 92.8164C55.5894 92.7743 53.3383 90.4495 53.4119 87.9985C53.475 85.6947 55.8104 83.3594 58.0194 83.3909C60.5862 83.4225 62.9215 85.7683 62.8374 88.2299C62.7637 90.6073 60.4179 92.8479 58.0615 92.8164Z" fill="#F9F2DF"/>
<path fill-rule="evenodd" clip-rule="evenodd" d="M205.104 153.976C205.104 210.655 159.26 256.615 102.708 256.615C46.1551 256.615 0.300781 210.655 0.300781 153.976C0.300781 97.2869 46.1551 51.3379 102.708 51.3379C159.26 51.3379 205.104 97.2869 205.104 153.976ZM82.8575 57.2603C76.5353 58.5542 70.3183 60.4898 64.3748 63.0145C58.547 65.4866 52.9191 68.5477 47.6489 72.1138C42.4312 75.6378 37.5291 79.6983 33.0689 84.1691C28.6192 88.6294 24.5692 93.5525 21.0451 98.7806C17.4896 104.051 14.4284 109.7 11.9668 115.549C9.4527 121.503 7.51712 127.73 6.22323 134.073C4.89778 140.574 4.22453 147.275 4.22453 153.976C4.22453 160.677 4.89778 167.368 6.22323 173.869C7.51712 180.212 9.4527 186.439 11.9668 192.393C14.4284 198.242 17.4896 203.891 21.0451 209.161C24.5692 214.389 28.6192 219.313 33.0689 223.773C37.5291 228.244 42.4312 232.304 47.6489 235.839C52.9191 239.394 58.547 242.455 64.3748 244.938C70.3183 247.452 76.5353 249.388 82.8575 250.682C89.348 252.018 96.0173 252.691 102.708 252.691C109.388 252.691 116.067 252.018 122.558 250.682C128.87 249.388 135.087 247.452 141.03 244.938C146.868 242.455 152.496 239.394 157.756 235.839C162.974 232.304 167.876 228.244 172.336 223.773C176.796 219.313 180.836 214.389 184.36 209.161C187.926 203.891 190.976 198.242 193.449 192.393C195.963 186.439 197.888 180.212 199.182 173.869C200.507 167.368 201.18 160.677 201.18 153.976C201.18 147.275 200.507 140.574 199.182 134.073C197.888 127.73 195.963 121.503 193.449 115.549C190.976 109.7 187.926 104.051 184.36 98.7806C180.836 93.5525 176.796 88.6294 172.336 84.1691C167.876 79.6983 162.974 75.6378 157.756 72.1138C152.496 68.5477 146.868 65.4866 141.03 63.0145C135.087 60.4898 128.87 58.5542 122.558 57.2603C116.067 55.9349 109.388 55.2511 102.708 55.2511C96.0173 55.2511 89.348 55.9349 82.8575 57.2603Z" fill="#659030"/>
</svg>
