<svg width="236" height="257" viewBox="0 0 236 257" fill="none" xmlns="http://www.w3.org/2000/svg">
<path fill-rule="evenodd" clip-rule="evenodd" d="M235.896 118.303C235.896 53.6885 183.844 1.24552 119.41 0.584351C54.2244 -0.0768211 1.06019 52.0055 0.489182 117.191C-0.0217235 174.382 40.2496 222.257 93.9849 233.497C98.0721 234.369 100.657 238.486 99.5147 242.543C99.4947 242.623 99.4746 242.694 99.4546 242.754C97.9519 248.013 96.2088 252.641 94.4958 256.578C97.8317 253.513 102.31 248.524 105.616 241.371C107.539 237.194 108.681 233.076 109.342 229.23C109.703 227.847 109.913 226.405 109.973 224.932C110.424 212.76 109.883 198.335 106.547 185.622C105.195 180.483 103.362 175.615 100.957 171.287C96.84 163.834 92.7527 157.823 85.8705 152.504C79.379 147.455 72.1662 143.698 64.4425 140.903C64.2923 140.843 64.1119 140.813 64.142 140.362C77.2452 141.684 88.8758 146.553 99.0038 154.848C104.594 159.446 108.831 164.886 112.197 170.926C112.297 171.147 112.408 171.357 112.528 171.557C113.79 162.812 114.662 152.804 114.601 141.835C114.541 128.191 113.129 116.169 111.296 106.222C114.932 116.169 118.659 129.122 120.612 144.54C122.055 155.87 122.265 166.178 121.844 175.134C122.145 174.493 122.455 173.851 122.776 173.21C123.157 172.429 123.557 171.668 123.978 170.926C127.314 164.886 131.551 159.446 137.141 154.848C147.269 146.553 158.9 141.684 172.003 140.362C172.033 140.813 171.853 140.843 171.703 140.903C163.979 143.698 156.796 147.455 150.275 152.504C143.392 157.823 139.335 163.834 135.188 171.287C132.784 175.615 130.98 180.483 129.598 185.622C127.194 194.789 126.232 204.856 126.082 214.353C125.24 221.085 125.3 231.033 130.079 241.371C133.385 248.524 137.863 253.513 141.199 256.578C139.486 252.641 137.742 248.013 136.24 242.754C136.24 242.734 136.23 242.714 136.21 242.694C135.068 238.606 137.682 234.459 141.8 233.617C195.505 222.678 235.896 175.194 235.896 118.303ZM205.543 157.312C203.469 166.118 193.101 171.347 184.085 167.771C187.27 165.877 190.907 164.856 193.581 161.46C189.134 161.7 186.369 164.405 183.033 165.937C184.716 156.681 195.355 150.46 203.679 153.706C205.543 154.427 205.993 155.389 205.543 157.312ZM136.059 88.7005C135.639 81.8484 140.718 75.9279 147.059 75.417C149.734 75.2066 150.635 76.2885 150.575 78.8431C150.425 85.0641 144.114 90.5639 137.622 90.0229C139.245 87.9492 141.74 86.5367 142.551 83.4412C139.546 84.3729 138.374 86.9875 136.059 88.7005ZM134.767 70.4582C133.114 71.9308 133.114 71.9308 132.453 79.6846C126.683 74.0646 127.254 63.2454 133.535 58.5271C135.158 57.3249 136.24 57.1446 137.773 58.8576C142.972 64.7781 141.379 75.2968 134.256 80.0152C134.797 76.7995 135.368 73.704 134.767 70.4582ZM118.178 93.5391C118.208 91.766 118.058 90.5939 118.268 89.4519C118.809 86.3564 120.011 83.5915 122.896 81.9085C124.399 81.037 126.262 80.2255 127.675 81.2473C128.997 82.2391 128.937 84.2827 128.666 85.9957C128.065 89.9327 124.249 93.5091 119.981 94.2003C120.853 92.3069 122.716 90.8644 122.836 88.0995C120.642 89.542 119.861 91.5857 118.178 93.5391ZM145.887 52.0656C154.152 52.8771 160.553 61.6827 158.69 69.4965C158.239 71.4199 157.487 72.2614 155.233 71.9308C149.103 70.9992 144.625 66.1305 143.813 58.9178C143.603 57.0545 143.513 55.1611 144.084 52.7869C146.157 55.9425 147.39 59.1281 150.725 61.3821C150.245 57.2949 147.6 54.9507 145.887 52.0656ZM149.012 104.719C145.917 101.593 142.401 100.692 138.975 99.3695C146.698 95.192 157.608 99.3394 160.463 107.183C161.304 109.527 161.004 110.79 158.539 111.781C151.988 114.426 144.264 111.571 139.756 104.569C139.095 103.517 138.253 102.525 138.103 100.962C141.649 102.555 144.595 104.749 149.012 104.719ZM156.526 91.225C154.843 90.7442 153.16 90.1731 151.417 88.6404C154.452 87.7388 157.367 88.2798 160.132 86.5367C157.037 84.8537 154.212 86.5968 151.447 86.4165C154.843 80.1654 165.632 78.783 170.41 83.862C171.462 84.9739 171.282 85.7553 170.561 86.8673C167.766 91.2551 162.566 92.9381 156.526 91.225ZM161.124 74.4553C163.588 70.308 168.757 68.1441 172.815 69.5566C176.601 70.8489 177.022 72.7423 174.077 75.5973C171.192 78.3923 166.443 78.783 161.274 76.3487C163.528 75.417 165.812 75.7175 167.465 73.9444C165.121 72.9827 163.168 74.3651 161.124 74.4553ZM162.717 95.733C171.342 91.796 181.71 95.5827 184.415 103.397C185.167 105.59 184.896 106.853 182.612 107.875C175.039 111.21 164.34 105.951 162.236 97.6264C165.512 98.9788 168.517 101.052 172.875 101.203C169.809 97.8969 166.083 97.2357 162.717 95.733ZM183.454 112.262C184.415 110.279 186.008 108.806 188.412 108.205C188.442 109.798 186.91 110.489 187.06 112.052C188.833 112.052 188.893 109.978 190.486 109.317C190.606 111.691 189.945 113.645 188.623 115.388C187.39 116.981 185.467 118.303 183.754 117.191C182.161 116.169 182.642 113.855 183.454 112.262ZM186.579 133.901C186.94 136.816 186.158 139.641 187.06 142.616C188.743 141.324 188.232 139.701 188.532 138.379C188.803 137.056 188.743 135.674 188.863 133.811C194.002 139.701 193.822 148.146 189.043 152.444C187.12 154.187 185.858 153.796 184.355 152.023C180.268 147.184 181.139 138.649 186.579 133.901ZM210.381 144.149C207.917 148.296 202.056 149.408 196.406 146.613C198.36 145.621 200.704 145.892 202.597 144.059C200.163 143.277 198.24 144.479 195.926 144.6C199.772 139.521 205.302 138.078 209.51 140.573C211.133 141.564 211.373 142.526 210.381 144.149ZM210.592 134.652C205.272 137.086 200.163 136.846 195.204 133.69C190.847 130.925 187.481 127.349 185.407 121.849C189.855 123.743 193.311 126.598 198.42 126.628C194.964 122.901 190.636 121.909 186.699 119.986C196.977 115.268 209.66 120.707 212.425 130.685C212.996 132.759 212.485 133.811 210.592 134.652ZM214.258 111.09C214.889 112.563 214.258 113.194 213.296 113.975C207.887 118.363 198.3 116.169 194.754 109.558C197.579 109.948 200.223 111.241 203.529 110.399C200.854 108.145 197.939 108.355 195.264 107.814C200.043 102.615 211.493 104.629 214.258 111.09ZM208.668 87.9793C210.021 88.7306 210.381 89.4819 209.96 91.0146C208.187 97.6865 202.087 101.744 194.062 101.293C192.139 101.203 190.095 101.293 188.112 99.9705C191.478 98.4378 195.084 97.7165 197.909 94.621C193.672 94.4107 190.817 96.8149 187.541 98.0471C189.584 89.2115 200.975 83.862 208.668 87.9793ZM197.759 65.0486C199.262 65.0486 199.802 65.9803 199.953 67.2726C200.614 72.8324 199.953 78.0617 195.865 82.3292C190.726 87.6487 184.596 90.7442 176.541 90.8944C180.418 87.0176 184.505 83.9521 187.15 78.3622C181.62 80.9769 178.675 85.2144 175.009 89.3617C174.678 78.1518 181.5 67.7234 190.185 65.4393C192.71 64.7781 195.234 65.0486 197.759 65.0486ZM188.833 52.7268C190.756 54.0191 190.937 55.1911 189.975 57.1446C187.751 61.7428 184.265 64.5678 179.186 65.4994C173.836 66.4912 168.818 65.8901 163.408 62.9148C168.066 61.8329 172.184 61.4122 176.181 58.5872C171.312 57.6856 167.555 59.6691 163.618 60.7811C163.017 60.0898 163.708 59.639 164.009 59.1582C169.629 50.4127 181.139 47.4975 188.833 52.7268ZM172.845 38.6318C174.227 38.1209 174.948 38.3914 175.459 39.864C176.541 42.8693 175.069 46.0249 171.252 48.2188C171.192 46.656 172.454 45.6643 172.003 44.3119C170.32 44.7025 170.44 46.5058 169.419 47.4374C168.457 43.1999 169.839 39.7738 172.845 38.6318ZM157.668 31.3289C159.08 30.0666 160.012 30.1568 161.424 31.2687C165.181 34.3041 166.744 38.1509 166.413 42.9294C166.113 47.1369 164.67 50.8334 161.815 54.0792C161.214 50.6531 161.785 47.1669 159.922 43.6807C158.149 47.4374 159.231 50.9236 159.381 55.0108C155.865 51.9153 154.362 48.3691 153.55 44.5222C152.499 39.4733 153.611 34.9653 157.668 31.3289ZM135.428 29.4655C138.945 26.6706 143.062 26.3701 147.329 26.6405C148.231 26.7006 148.652 27.1815 148.832 27.9929C150.154 33.4326 149.614 38.5717 145.917 42.9595C141.469 48.3089 135.699 51.3744 128.095 52.1257C131.762 48.1887 135.398 45.0031 136.991 40.2547C132.483 42.4185 130.049 46.5659 127.043 50.4127C125.901 48.3991 126.623 46.4456 126.923 44.6124C127.915 38.5416 130.53 33.3124 135.428 29.4655ZM126.082 23.3948C127.464 22.7036 128.276 22.9139 128.967 24.3565C130.8 28.2033 128.666 33.5528 124.369 35.4461C124.699 33.5828 125.932 31.99 125.571 29.8562C123.828 31.2086 123.948 33.2823 123.076 34.8451C120.762 30.9381 122.295 25.2581 126.082 23.3948ZM122.866 43.3502C124.699 47.197 122.566 52.5765 118.268 54.4398C118.599 52.5765 119.831 50.9837 119.47 48.88C117.727 50.2023 117.847 52.276 116.976 53.8387C114.631 49.9318 116.194 44.2518 119.951 42.3885C121.363 41.6972 122.175 41.9377 122.866 43.3502ZM109.402 22.5833C110.394 20.4796 111.596 20.149 113.64 21.1708C119.23 23.9357 121.514 32.3206 118.058 38.0908C116.765 35.7767 116.946 32.7414 114.391 30.7578C113.88 33.8834 115.683 36.2275 116.164 38.9624C109.793 36.1975 106.637 28.2634 109.402 22.5833ZM85.3296 26.4001C85.5399 25.4685 86.0208 24.9275 87.0426 24.8674C91.9112 24.5368 96.5995 24.8974 100.627 28.053C106.217 32.4709 109.192 38.4515 110.334 45.3337C110.664 47.4374 111.476 49.6613 110.184 51.9454C106.788 47.5877 103.993 42.8392 98.8535 40.4049C100.657 45.8145 104.834 49.4209 108.981 53.8989C100.296 53.0874 93.7445 49.5712 88.6354 43.4704C84.458 38.4515 83.8269 32.5911 85.3296 26.4001ZM105.195 103.066C104.053 104.088 102.911 104.479 101.799 104.779C97.8017 105.921 94.3756 104.809 92.5123 101.894C92.0314 101.173 91.9112 100.662 92.6025 99.9104C95.7881 96.5444 102.911 97.4761 105.195 101.593C103.362 101.714 101.468 100.572 99.4245 101.684C101.258 102.856 103.181 102.495 105.195 103.066ZM92.362 107.514C91.5806 108.596 90.5288 108.956 89.5671 109.437C83.1657 112.563 76.2535 111.241 72.6471 106.402C71.2947 104.599 71.6253 103.547 73.2782 102.194C78.808 97.7165 88.6354 99.5197 92.4522 105.951C89.3567 105.44 86.3514 104.539 82.745 105.44C85.9607 107.424 89.0562 107.123 92.362 107.514ZM49.1154 133.901C54.555 138.649 55.4266 147.184 51.3393 152.023C49.8367 153.796 48.5744 154.187 46.651 152.444C41.8725 148.146 41.6922 139.701 46.8313 133.811C46.9515 135.674 46.8914 137.056 47.1619 138.379C47.4624 139.701 46.9515 141.324 48.6345 142.616C49.5361 139.641 48.7547 136.816 49.1154 133.901ZM47.0717 115.388C45.7494 113.645 45.0882 111.691 45.2084 109.317C46.8013 109.978 46.8614 112.052 48.6345 112.052C48.7848 110.489 47.2521 109.798 47.2821 108.205C49.6864 108.806 51.2792 110.279 52.2409 112.262C53.0524 113.855 53.5332 116.169 51.9404 117.191C50.2273 118.303 48.3039 116.981 47.0717 115.388ZM51.2792 103.397C53.984 95.5827 64.3524 91.796 72.9777 95.733C69.6117 97.2357 65.8851 97.8969 62.8197 101.203C67.1774 101.052 70.1827 98.9788 73.4585 97.6264C71.3548 105.951 60.6558 111.21 53.0824 107.875C50.7984 106.853 50.5279 105.59 51.2792 103.397ZM91.6107 52.7869C92.1817 55.1611 92.0915 57.0545 91.8812 58.9178C91.0697 66.1305 86.5918 70.9992 80.4609 71.9308C78.2069 72.2614 77.4556 71.4199 77.0048 69.4965C75.1415 61.6827 81.5429 52.8771 89.8075 52.0656C88.0945 54.9507 85.4498 57.2949 84.9689 61.3821C88.3048 59.1281 89.537 55.9425 91.6107 52.7869ZM97.6214 90.3535C91.0998 90.5037 85.1192 84.6133 85.3596 78.3622C85.4798 75.8378 86.4415 74.8159 89.0862 75.2066C95.3974 76.1082 100.116 82.3293 99.2442 89.1213C97.0503 87.288 96.0285 84.6133 93.0833 83.4713C93.7144 86.6269 96.1187 88.1896 97.6214 90.3535ZM84.2476 86.4165C81.4827 86.5968 78.6577 84.8537 75.5622 86.5367C78.3271 88.2798 81.2423 87.7388 84.2777 88.6404C82.5346 90.1731 80.8516 90.7442 79.1686 91.225C73.1279 92.9381 67.9287 91.2551 65.1338 86.8673C64.4125 85.7553 64.2322 84.9739 65.284 83.862C70.0625 78.783 80.8516 80.1654 84.2476 86.4165ZM74.4202 76.3487C69.2511 78.783 64.5027 78.3923 61.6175 75.5973C58.6723 72.7423 59.093 70.8489 62.8798 69.5566C66.937 68.1441 72.1061 70.308 74.5705 74.4553C72.5269 74.3651 70.5734 72.9827 68.2293 73.9444C69.8822 75.7175 72.1662 75.417 74.4202 76.3487ZM103.241 79.6846C102.58 71.9308 102.58 71.9308 100.927 70.4582C100.326 73.704 100.897 76.7995 101.438 80.0152C94.3155 75.2968 92.7227 64.7781 97.9219 58.8576C99.4546 57.1446 100.537 57.3249 102.159 58.5271C108.441 63.2454 109.012 74.0646 103.241 79.6846ZM74.27 31.2687C75.6825 30.1568 76.6141 30.0666 78.0266 31.3289C82.0838 34.9653 83.1958 39.4733 82.1439 44.5222C81.3325 48.3691 79.8298 51.9153 76.3136 55.0108C76.4638 50.9236 77.5458 47.4374 75.7726 43.6807C73.9093 47.1669 74.4803 50.6531 73.8793 54.0792C71.0242 50.8334 69.5817 47.1369 69.2811 42.9294C68.9505 38.1509 70.5133 34.3041 74.27 31.2687ZM60.2351 39.864C60.746 38.3914 61.4673 38.1209 62.8497 38.6318C65.855 39.7738 67.2375 43.1999 66.2758 47.4374C65.254 46.5058 65.3742 44.7025 63.6912 44.3119C63.2404 45.6643 64.5026 46.656 64.4425 48.2188C60.6258 46.0249 59.1532 42.8693 60.2351 39.864ZM46.8614 52.7268C54.555 47.4975 66.0654 50.4127 71.6854 59.1582C71.9859 59.639 72.6771 60.0898 72.0761 60.7811C68.1391 59.6691 64.3824 57.6856 59.5138 58.5872C63.5109 61.4122 67.6282 61.8329 72.2864 62.9148C66.8769 65.8901 61.858 66.4912 56.5085 65.4994C51.4295 64.5678 47.9433 61.7428 45.7194 57.1446C44.7576 55.1911 44.938 54.0191 46.8614 52.7268ZM35.7417 67.2726C35.8919 65.9803 36.4329 65.0486 37.9356 65.0486C40.46 65.0486 42.9845 64.7781 45.509 65.4393C54.1944 67.7234 61.0165 78.1518 60.6859 89.3617C57.0194 85.2144 54.0742 80.9769 48.5444 78.3622C51.1891 83.9521 55.2763 87.0176 59.1532 90.8944C51.0989 90.7442 44.968 87.6487 39.8289 82.3292C35.7417 78.0617 35.0805 72.8324 35.7417 67.2726ZM27.0262 87.9793C34.7199 83.862 46.11 89.2115 48.1537 98.0471C44.8779 96.8149 42.0228 94.4107 37.7853 94.621C40.6103 97.7165 44.2167 98.4378 47.5827 99.9705C45.5991 101.293 43.5555 101.203 41.6321 101.293C33.6079 101.744 27.5071 97.6865 25.7339 91.0146C25.3132 89.4819 25.6738 88.7306 27.0262 87.9793ZM21.4363 111.09C24.2012 104.629 35.6515 102.615 40.43 107.814C37.7552 108.355 34.8401 108.145 32.1653 110.399C35.4712 111.241 38.1159 109.948 40.9409 109.558C37.3946 116.169 27.8076 118.363 22.398 113.975C21.4363 113.194 20.8052 112.563 21.4363 111.09ZM23.2696 130.685C26.0345 120.707 38.7169 115.268 48.9952 119.986C45.0582 121.909 40.7305 122.901 37.2744 126.628C42.3834 126.598 45.8396 123.743 50.2875 121.849C48.2138 127.349 44.8478 130.925 40.4901 133.69C35.5313 136.846 30.4222 137.086 25.1028 134.652C23.2095 133.811 22.6985 132.759 23.2696 130.685ZM25.3132 144.149C24.3214 142.526 24.5619 141.564 26.1847 140.573C30.3922 138.078 35.922 139.521 39.7688 144.6C37.4547 144.479 35.5313 143.277 33.097 144.059C34.9903 145.892 37.3345 145.621 39.2879 146.613C33.6379 149.408 27.7775 148.296 25.3132 144.149ZM30.1518 157.312C29.701 155.389 30.1518 154.427 32.0151 153.706C40.3398 150.46 50.9787 156.681 52.6617 165.937C49.3257 164.405 46.5608 161.7 42.113 161.46C44.7877 164.856 48.4241 165.877 51.6098 167.771C42.5938 171.347 32.2254 166.118 30.1518 157.312ZM45.509 175.795C46.0499 177.147 47.5827 176.907 48.5444 178.259C45.1183 178.71 42.2933 178.59 40.3699 175.675C39.2579 173.992 39.8289 172.97 41.6922 172.459C44.4571 171.708 47.4023 173.18 48.9351 176.156C47.793 176.366 46.7712 174.923 45.509 175.795ZM58.2816 189.379C56.9593 191.423 55.7271 191.423 53.954 189.95C50.2574 186.855 49.8367 180.243 53.2026 176.546C54.1343 178.259 53.2327 180.634 55.1561 182.347C55.8473 180.273 55.096 178.44 55.4566 176.366C59.6941 180.002 60.7159 185.622 58.2816 189.379ZM104.113 194.037C100.356 195.57 96.299 196.472 92.7227 200.228C97.7115 199.777 101.198 197.614 105.105 195.57C104.744 197.554 103.842 198.846 103.001 200.138C97.5011 208.493 88.6054 211.288 81.0921 207.231C79.6194 206.419 79.349 205.548 79.7397 203.955C82.2341 194.067 95.4876 188.628 104.113 194.037ZM90.3485 178.59C91.0697 175.524 93.7745 172.098 96.2088 171.467C95.4876 173.451 94.5259 175.404 94.586 178.109C96.3892 176.005 96.5394 173.751 97.2908 171.648C98.0421 172.639 98.2525 173.691 98.4328 174.713C99.3344 179.672 97.5612 183.459 93.6243 185.202C92.6626 185.652 92.0314 185.562 91.4604 184.571C90.4086 182.707 89.8676 180.784 90.3485 178.59ZM85.2394 168.011C87.2229 175.224 86.0809 183.098 82.5647 189.409C79.3189 195.3 74.2399 198.125 67.7484 198.906C66.0053 199.116 65.0136 198.605 64.3524 196.922C59.3635 184.691 69.5817 168.372 83.1958 167.2C80.0702 171.738 76.7343 176.065 75.7426 181.595C80.4008 178.349 82.3843 173.21 85.2394 168.011ZM77.696 153.525C74.3301 155.719 70.904 157.222 68.1391 160.919C72.6771 160.137 75.442 157.553 78.5676 155.479C78.267 164.765 66.6965 172.639 58.2215 169.544C56.809 169.063 56.2981 168.342 56.4484 166.749C57.0795 159.326 62.8197 153.976 71.475 153.075C73.4285 152.864 75.442 152.504 77.696 153.525ZM65.3141 143.578C64.5628 144.63 62.7295 144.359 62.3088 145.832C63.7814 146.433 64.8332 145.141 66.0955 145.381C64.1119 148.657 60.9564 150.009 58.0412 148.987C56.3582 148.386 55.9675 147.515 56.9292 145.922C58.4018 143.428 61.1968 142.556 65.3141 143.578ZM55.8473 134.201C54.0742 134.261 53.2327 133.78 52.6917 131.977C49.8968 122.27 57.921 111.571 69.0707 110.459C67.7785 112.172 66.4261 113.795 65.254 115.538C64.112 117.251 62.5191 118.874 62.7596 121.639C66.4561 118.934 68.2894 115.208 70.7237 111.751C71.7755 114.426 71.2646 116.86 70.8739 119.235C69.4614 128.13 63.4808 133.991 55.8473 134.201ZM75.442 139.461C74.2099 138.439 73.759 136.636 71.9559 136.004C72.4367 137.958 72.4367 137.958 74.5404 140.542C69.5817 139.671 66.6364 136.004 67.1774 132.037C67.4178 130.414 68.1391 130.174 69.4915 130.384C73.3984 130.986 76.1633 135.103 75.442 139.461ZM76.3136 129.453C74.4202 128.401 74.3301 127.379 75.3819 125.666C78.6277 120.347 86.8923 118.754 92.9631 122.48C90.2884 123.442 87.2229 123.262 84.6684 125.516C88.0945 125.816 90.679 124.614 93.8346 123.923C91.8511 126.898 89.4469 128.762 86.5016 129.964C83.0455 131.346 79.6795 131.316 76.3136 129.453ZM102.49 143.007C99.5748 145.651 96.1788 146.673 92.2719 146.072C90.6791 145.862 90.1681 145.05 89.9578 143.638C88.936 135.914 99.094 127.199 106.607 129.453C104.143 131.617 101.258 133.39 99.665 137.056C103.512 135.764 105.495 132.789 108.2 130.505C107.93 135.493 105.856 139.971 102.49 143.007ZM110.364 119.175C103.241 123.803 93.5642 121.729 90.1381 114.997C89.2365 113.254 89.3868 112.292 91.0697 111.12C97.3208 106.883 107.268 109.828 110.995 117.311C107.809 116.56 104.834 114.907 100.987 115.779C104.053 118.183 107.389 118.063 110.364 119.175ZM112.738 101.113C111.806 98.4979 112.347 95.5527 110.214 93.1184C109.252 96.1237 110.484 98.6181 110.695 101.533C104.774 97.3559 102.791 89.8426 105.856 84.8237C107.178 82.6298 108.501 81.9686 110.875 83.6516C115.743 87.1678 116.825 95.6729 112.738 101.113ZM111.205 61.6226C112.227 59.5188 113.429 59.1882 115.473 60.18C121.063 62.9449 123.347 71.3298 119.891 77.13C118.599 74.7859 118.779 71.7505 116.224 69.767C115.683 72.8925 117.487 75.2667 117.997 77.9715C111.626 75.2367 108.471 67.3026 111.205 61.6226ZM119.53 109.107C121.333 106.793 123.768 105.41 124.639 102.375C121.514 103.216 120.282 105.951 118.088 107.604C117.697 100.812 123.347 94.3506 129.358 94.1702C132.303 94.0801 132.994 95.3423 132.874 97.9269C132.633 103.787 126.803 108.926 119.53 109.107ZM137.742 140.302C137.592 141.594 137.111 142.286 135.699 142.496C132.183 143.007 129.147 142.105 126.533 139.761C123.527 137.026 121.664 133.029 121.424 128.551C123.858 130.595 125.631 133.239 129.087 134.442C127.645 131.136 125.06 129.543 122.866 127.589C129.568 125.606 138.674 133.39 137.742 140.302ZM141.71 114.997C138.283 121.729 128.606 123.803 121.484 119.175C124.459 118.063 127.795 118.183 130.86 115.779C127.013 114.907 124.038 116.56 120.853 117.311C124.579 109.828 134.527 106.883 140.778 111.12C142.461 112.292 142.611 113.254 141.71 114.997ZM149.704 129.573C146.698 128.281 144.264 126.267 142.25 123.112C145.436 123.863 148.051 125.125 151.537 124.825C148.952 122.39 145.827 122.571 143.152 121.549C149.313 117.552 157.668 119.265 160.944 124.975C161.995 126.778 161.935 127.89 159.982 129.032C156.586 131.016 153.19 131.046 149.704 129.573ZM168.697 135.283C166.383 138.98 161.364 139.971 156.676 137.237C160.192 136.545 160.192 136.545 161.965 135.253C160.072 134.532 158.419 135.704 156.646 135.704C159.11 131.587 164.279 130.084 167.946 132.308C169.208 133.089 169.629 133.78 168.697 135.283ZM164.82 119.235C164.43 116.86 163.919 114.426 164.971 111.751C167.405 115.208 169.238 118.934 172.935 121.639C173.175 118.874 171.582 117.251 170.44 115.538C169.268 113.795 167.916 112.172 166.624 110.459C177.773 111.571 185.798 122.27 183.003 131.977C182.462 133.78 181.62 134.261 179.847 134.201C172.214 133.991 166.233 128.13 164.82 119.235ZM176.451 144.54C174.948 144.9 175.099 146.733 174.017 147.455C173.235 143.247 174.257 140.542 176.842 139.19C178.465 138.318 179.306 138.739 179.817 140.482C180.689 143.428 179.156 146.493 175.76 148.296C175.61 147.034 176.932 146.072 176.451 144.54ZM146.398 159.085C149.884 153.886 158.089 152.954 162.326 157.102C163.258 157.973 163.378 158.665 162.597 159.746C159.14 164.645 151.597 165.126 146.338 160.498C149.012 160.167 151.567 160.618 154.121 159.115C151.357 158.184 148.922 158.995 146.398 159.085ZM136.901 175.915C137.111 174.773 137.322 173.601 138.193 172.489C139.035 174.833 139.185 177.388 141.229 179.762C141.289 176.697 140.207 174.533 139.395 172.279C142.13 172.97 145.196 176.847 146.007 180.303C146.578 182.767 145.947 184.931 144.745 187.065C144.114 188.147 143.423 188.267 142.311 187.756C137.893 185.773 135.879 181.505 136.901 175.915ZM146.488 203.955C141.319 206.6 135.218 204.766 131.431 199.297C130.86 198.485 130.229 197.614 129.989 196.351C132.663 197.674 135.068 199.086 138.494 199.357C136.029 196.922 133.234 196.351 130.65 195.33C136.6 191.783 145.707 195.36 147.42 201.821C147.69 202.843 147.51 203.414 146.488 203.955ZM157.427 203.955C157.037 204.977 156.556 205.187 155.504 204.977C151.567 204.255 149.073 201.19 148.742 196.502C148.682 195.871 148.712 195.209 148.772 194.548C148.772 194.248 148.892 193.917 149.043 193.256C150.365 195.179 150.996 197.163 153.04 198.605C152.649 196.171 151.327 194.608 150.275 192.835C155.474 193.496 159.08 199.327 157.427 203.955ZM171.342 196.922C170.681 198.605 169.689 199.116 167.946 198.906C161.454 198.125 156.375 195.3 153.13 189.409C149.614 183.098 148.471 175.224 150.455 168.011C153.31 173.21 155.294 178.349 159.952 181.595C158.96 176.065 155.624 171.738 152.499 167.2C166.113 168.372 176.331 184.691 171.342 196.922ZM174.377 175.645C173.897 171.618 174.077 167.891 172.003 163.774C170.651 168.191 171.763 171.798 172.214 175.524C164.039 171.107 162.176 157.252 168.697 151.031C169.779 150.009 170.621 149.859 172.003 150.7C178.344 154.547 180.568 162.091 177.533 170.265C176.872 172.098 176.301 174.052 174.377 175.645ZM181.74 189.95C179.967 191.423 178.735 191.423 177.413 189.379C174.978 185.622 176 180.002 180.238 176.366C180.598 178.44 179.847 180.273 180.538 182.347C182.462 180.634 181.56 178.259 182.492 176.546C185.858 180.243 185.437 186.855 181.74 189.95ZM195.325 175.675C193.401 178.59 190.576 178.71 187.15 178.259C188.112 176.907 189.644 177.147 190.185 175.795C188.923 174.923 187.901 176.366 186.759 176.156C188.292 173.18 191.237 171.708 194.002 172.459C195.865 172.97 196.437 173.992 195.325 175.675Z" fill="#572916"/>
</svg>
