<svg width="228" height="257" viewBox="0 0 228 257" fill="none" xmlns="http://www.w3.org/2000/svg">
<path d="M194.356 114.89C194.191 114.147 194.012 113.418 193.819 112.703C204.509 162.27 173.72 211.59 124.153 223.517C73.8836 235.61 23.2845 204.656 11.1919 154.346C-0.694364 104.779 29.1863 54.9225 78.2171 41.9219C77.5018 42.087 76.7726 42.252 76.0297 42.4171C23.367 55.0875 -9.07253 108.08 3.59788 160.743C16.2683 213.447 69.2199 245.887 121.924 233.216C174.587 220.546 207.026 167.553 194.356 114.89Z" fill="#90BF3F"/>
<path d="M224.692 110.802C221.514 97.5955 216.232 85.4616 209.298 74.6484C213.508 82.8615 216.809 91.7349 219.079 101.104C234.309 164.456 195.307 228.138 131.955 243.408C81.8921 255.419 31.5819 233.586 5.16797 192.603C29.5183 239.735 83.6668 266.067 137.568 253.107C200.92 237.878 239.921 174.155 224.692 110.802Z" fill="#00609E"/>
<path d="M206.739 10.6797C194.812 30.9028 159.896 93.0993 165.798 110.268C175.868 139.612 170.627 147.165 149.372 149.518C126.053 152.077 114.786 164.747 105.087 177.789C95.9662 190.005 81.2322 199.25 67.7776 200.942C64.751 201.328 62.0959 201.575 59.8122 201.685C54.7357 201.933 50.4435 198.053 50.1958 192.977C50.1133 190.831 51.1864 188.767 53.0023 187.57C56.0289 185.617 59.8259 183.402 64.3933 180.926C92.4168 165.779 77.5177 134.082 112.722 92.0675C127.745 74.1143 131.914 66.4378 136.949 54.2213C142.108 41.716 152.178 31.8108 164.807 26.8994L206.739 10.6797Z" fill="#00609E"/>
<path d="M42.9715 44.2725C42.9715 44.2725 50.1115 46.171 53.9498 40.3104C57.8293 34.4086 58.9436 26.0304 65.3408 24.5859C65.3408 24.5859 38.5967 21.0778 41.0317 42.4153C41.0317 42.4153 44.7462 33.5831 53.5783 29.7861C53.5783 29.7861 44.2097 36.0182 42.9715 44.2725Z" fill="#90BF3F"/>
<path d="M37.3164 72.7935C37.3164 72.7935 37.7291 80.1811 44.539 81.9558C51.3488 83.7718 59.6857 82.1622 63.0699 87.7751C63.0699 87.7751 57.911 61.32 38.472 70.3585C38.472 70.3585 48.0058 71.1014 54.4029 78.2414C54.4029 78.2414 45.5295 71.3903 37.3164 72.7935Z" fill="#90BF3F"/>
<path d="M74.6654 31.0259C74.6654 31.0259 69.3826 25.2067 73.0971 18.727C76.7702 12.2886 84.1579 7.12963 82.4657 0.402344C82.4657 0.402344 98.603 23.9685 77.348 31.9339C77.348 31.9339 83.869 24.1749 83.2086 14.022C83.2086 14.022 81.8054 25.867 74.6654 31.0259Z" fill="#90BF3F"/>
<path d="M53.5369 58.2237C53.5369 58.2237 62.6992 69.6972 75.7411 64.7859C88.8242 59.9158 100.545 47.782 112.473 52.9822C112.473 52.9822 73.7188 16.0027 52.6289 52.9822C52.6289 52.9822 68.9312 43.2008 87.5035 47.4518C87.5035 47.4518 65.1755 46.5025 53.5369 58.2237Z" fill="#90BF3F"/>
<path d="M19.6114 69.2426C19.6114 69.2426 9.62367 62.0613 13.173 50.918C16.6811 39.7746 26.3387 29.4567 21.4686 19.7578C21.4686 19.7578 54.032 50.5465 24.0275 69.7379C24.0275 69.7379 31.4977 55.7054 27.1641 40.3524C27.1641 40.3524 28.8975 58.9659 19.6114 69.2426Z" fill="#90BF3F"/>
</svg>
