<svg width="252" height="257" viewBox="0 0 252 257" fill="none" xmlns="http://www.w3.org/2000/svg">
<path d="M122.517 241.977C72.3815 241.977 31.7287 201.324 31.7287 151.148C31.7287 101.732 71.2211 61.5197 120.357 60.3994C119.636 60.3727 118.916 60.3594 118.196 60.3594C65.6594 60.3594 23.0859 102.933 23.0859 155.469C23.0859 208.006 65.6594 250.619 118.196 250.619C170.732 250.619 213.306 208.006 213.306 155.469C213.306 154.749 213.306 154.029 213.306 153.309C212.146 202.484 171.933 241.977 122.517 241.977Z" fill="#90BF3F"/>
<path d="M11.2041 148.308C11.2041 85.1682 62.4202 33.9521 125.6 33.9521C134.923 33.9521 144.046 35.0724 152.729 37.1931C140.965 33.1118 128.321 30.8711 115.157 30.8711C51.9769 30.8711 0.800781 82.0872 0.800781 145.227C0.800781 198.964 37.8524 244.058 87.8282 256.302C43.2141 240.737 11.2041 198.244 11.2041 148.308Z" fill="#00609E"/>
<path d="M175.015 0.300781C174.988 0.300781 174.921 0.527518 174.815 0.980994C174.695 1.38112 174.535 2.02132 174.294 2.86159C173.854 4.5021 173.174 6.94287 172.214 10.0238C170.373 16.1458 167.492 24.8685 163.571 35.1518C161.61 40.2734 159.41 45.7951 156.889 51.5969C154.368 57.3988 151.607 63.4807 148.486 69.6426C146.966 72.7236 145.325 75.8446 143.605 78.9656C143.178 79.7658 142.738 80.5527 142.284 81.3263C141.858 82.0999 141.417 82.8735 140.964 83.647C140.044 85.2475 139.123 86.768 138.163 88.3685C134.362 94.5705 130.161 100.732 125.359 106.574C124.212 107.988 123.078 109.388 121.958 110.776L120.397 112.856C119.877 113.576 119.317 114.257 118.837 114.977C117.837 116.417 116.796 117.858 115.876 119.338C115.396 120.099 114.876 120.819 114.436 121.539C113.982 122.286 113.529 123.033 113.075 123.78C112.875 124.18 112.635 124.54 112.435 124.9L111.795 126.06C111.355 126.821 110.955 127.541 110.554 128.341C109.754 129.862 108.954 131.382 108.234 132.903C107.473 134.463 106.793 136.024 106.113 137.584C105.513 139.145 104.833 140.665 104.232 142.225C103.632 143.786 103.112 145.386 102.552 146.907C102.032 148.507 101.472 150.028 100.991 151.588C99.9911 154.709 99.0708 157.75 98.1105 160.791C97.1502 163.792 96.1899 166.753 95.1095 169.594C93.9892 172.395 92.7888 175.156 91.3083 177.637C89.8279 180.117 88.1473 182.358 86.3468 184.279C85.8933 184.759 85.4398 185.226 84.9863 185.679C84.4795 186.079 83.9994 186.493 83.5459 186.92C83.3058 187.12 83.0657 187.32 82.8257 187.52C82.5856 187.68 82.3455 187.853 82.1054 188.04C81.5853 188.4 81.1451 188.76 80.665 189.08C80.1582 189.374 79.6647 189.667 79.1845 189.961C78.9444 190.094 78.7044 190.241 78.4643 190.401C78.2242 190.521 77.9841 190.641 77.744 190.761C76.7837 191.241 75.9035 191.761 75.0232 192.121C73.2626 192.961 71.7022 193.722 70.2617 194.402C67.3808 195.842 65.1801 197.003 63.6596 197.843C62.1792 198.643 61.3789 199.123 61.3789 199.123C61.3789 199.123 61.5523 198.99 61.8991 198.723C62.2592 198.403 62.7393 198.003 63.4195 197.483C64.78 196.403 66.8206 194.882 69.5015 193.122C70.8352 192.215 72.329 191.254 73.9829 190.241C74.8231 189.72 75.5834 189.16 76.4236 188.6C76.6637 188.48 76.8638 188.32 77.0639 188.2C77.2773 188.04 77.4773 187.88 77.664 187.72C78.0908 187.4 78.5176 187.08 78.9444 186.76C79.3446 186.399 79.7447 186.039 80.1448 185.679C80.3315 185.492 80.5316 185.306 80.745 185.119C80.9451 184.919 81.1451 184.719 81.3452 184.519C81.7186 184.119 82.1054 183.705 82.5056 183.278C82.879 182.825 83.2525 182.371 83.6259 181.918C85.0664 180.037 86.3468 177.957 87.4671 175.596C88.5875 173.275 89.5078 170.674 90.348 167.954C91.1883 165.193 91.9485 162.272 92.7088 159.271C94.1892 153.189 95.7497 146.667 97.9904 140.025C98.2705 139.185 98.5506 138.344 98.8707 137.504C99.1641 136.677 99.4709 135.85 99.791 135.023C100.471 133.343 101.111 131.662 101.872 130.022C102.552 128.341 103.392 126.701 104.192 125.06C104.593 124.22 105.033 123.42 105.473 122.579L106.113 121.379C106.313 120.979 106.553 120.579 106.793 120.179C107.273 119.352 107.74 118.538 108.194 117.738C108.674 116.938 109.194 116.177 109.674 115.377C110.634 113.777 111.715 112.256 112.795 110.696C113.275 109.935 113.875 109.175 114.436 108.415L116.156 106.094C117.303 104.68 118.45 103.253 119.597 101.813C120.718 100.412 121.878 99.0519 122.918 97.6514L124.519 95.5308C125.052 94.7839 125.572 94.0503 126.079 93.3301C126.599 92.6099 127.12 91.8896 127.6 91.1694C128.107 90.4225 128.613 89.6889 129.12 88.9687C130.121 87.4882 131.081 85.9678 132.041 84.5273C132.961 83.0068 133.922 81.5264 134.842 80.0059C135.296 79.259 135.749 78.5121 136.202 77.7652C136.656 77.0183 137.096 76.2714 137.523 75.5245C138.403 74.004 139.283 72.5235 140.124 71.0031C140.964 69.5226 141.844 68.0421 142.645 66.5616C145.926 60.5998 149.006 54.7979 151.807 49.2362C154.648 43.6744 157.249 38.3528 159.61 33.4312C162.011 28.5097 164.131 23.9882 166.012 19.947C167.892 15.9057 169.493 12.3846 170.813 9.46367C172.174 6.58276 173.214 4.26203 173.894 2.70154C174.615 1.14105 175.015 0.300781 175.015 0.300781Z" fill="#00609E"/>
<path d="M61.8984 210.087C61.8984 210.087 61.9518 210.101 62.0585 210.127C62.1652 210.154 62.3119 210.194 62.4986 210.247C62.9388 210.367 63.579 210.487 64.3792 210.527C65.2328 210.581 66.2598 210.567 67.4602 210.487C68.6606 210.407 70.0343 210.274 71.5815 210.087C73.1286 209.874 74.8358 209.607 76.7031 209.287C77.1566 209.207 77.6234 209.114 78.1035 209.007C78.5837 208.927 79.0638 208.833 79.544 208.727C80.0641 208.607 80.5043 208.527 81.0245 208.407C81.5046 208.247 82.0248 208.127 82.5049 207.967C86.5862 206.766 90.9476 204.766 95.349 202.005C99.7103 199.204 104.112 195.643 108.033 191.281C109.02 190.188 109.98 189.041 110.914 187.84C111.127 187.547 111.354 187.253 111.594 186.96C111.807 186.64 112.021 186.333 112.234 186.04C112.714 185.373 113.181 184.706 113.635 184.039C115.595 181.358 117.676 178.677 119.957 176.036C122.277 173.436 124.838 170.875 127.719 168.554C130.56 166.233 133.721 164.153 137.082 162.432C137.922 161.992 138.803 161.592 139.643 161.192C140.523 160.832 141.403 160.472 142.284 160.151C143.164 159.791 144.084 159.471 144.965 159.191C145.885 158.911 146.805 158.591 147.725 158.391C149.566 157.871 151.407 157.471 153.287 157.15C154.208 156.99 155.168 156.83 156.088 156.75L158.769 156.39C162.13 155.95 165.451 155.31 168.212 154.19C169.612 153.629 170.813 152.949 171.733 152.109C172.693 151.309 173.374 150.348 173.894 149.188C174.854 146.867 174.974 143.746 174.694 140.625C174.574 139.065 174.294 137.464 174.014 135.864C173.694 134.263 173.334 132.676 172.933 131.102C172.533 129.528 172.107 127.955 171.653 126.381C171.44 125.607 171.213 124.834 170.973 124.06C170.866 123.66 170.746 123.26 170.613 122.86L170.533 122.58C170.493 122.46 170.453 122.38 170.453 122.26L170.253 121.539C169.812 119.779 169.572 118.018 169.492 116.258C169.372 114.537 169.452 112.817 169.612 111.176C169.772 109.536 170.012 107.935 170.333 106.375C170.653 104.854 171.053 103.374 171.493 101.893C172.373 99.0122 173.414 96.3313 174.494 93.8105C175.614 91.2898 176.735 88.929 177.895 86.7283C179.069 84.541 180.216 82.5003 181.336 80.6064C182.456 78.6858 183.537 76.9252 184.577 75.3247C185.591 73.7242 186.524 72.2704 187.378 70.9634C189.139 68.3225 190.539 66.3219 191.499 64.9214C192.46 63.521 192.98 62.8008 192.98 62.8008C192.98 62.8008 192.62 63.601 191.859 65.1215C191.099 66.642 190.019 68.8427 188.658 71.6836C187.965 73.0974 187.205 74.6445 186.378 76.325C185.577 78.0456 184.697 79.8862 183.817 81.8468C182.016 85.808 180.096 90.3294 178.375 95.331C177.575 97.8118 176.775 100.413 176.174 103.133C175.574 105.854 175.134 108.695 175.054 111.536C175.014 112.977 175.054 114.417 175.214 115.817C175.374 117.218 175.654 118.618 176.054 119.979L176.174 120.459C176.214 120.499 176.254 120.619 176.294 120.699L176.374 120.979L176.495 121.299L176.535 121.379L176.575 121.539L176.775 122.099C177.068 122.873 177.361 123.66 177.655 124.46C178.215 126.061 178.749 127.688 179.255 129.342C179.736 130.982 180.216 132.703 180.656 134.423C181.056 136.184 181.416 137.984 181.616 139.825C181.896 141.706 182.016 143.626 181.936 145.667C181.816 147.708 181.456 149.828 180.616 151.949C179.776 154.07 178.375 156.11 176.655 157.631C174.934 159.191 173.013 160.271 171.093 161.072C169.172 161.872 167.252 162.392 165.331 162.832C163.45 163.272 161.57 163.553 159.689 163.793L157.048 164.113C156.168 164.193 155.368 164.353 154.528 164.473C152.847 164.753 151.207 165.073 149.606 165.513C148.766 165.673 148.006 165.953 147.165 166.153C146.405 166.433 145.605 166.673 144.845 166.954C144.044 167.234 143.284 167.554 142.524 167.834C141.764 168.194 141.003 168.514 140.283 168.874C138.803 169.594 137.362 170.355 136.002 171.235C134.615 172.089 133.281 173.009 132.001 173.996C130.68 174.956 129.48 175.996 128.279 177.077C127.079 178.17 125.919 179.304 124.798 180.478C122.598 182.799 120.517 185.279 118.516 187.76C118.009 188.374 117.516 188.987 117.036 189.601C116.769 189.948 116.502 190.281 116.236 190.601C115.969 190.921 115.702 191.241 115.435 191.561C114.342 192.815 113.221 194.002 112.074 195.122C107.433 199.644 102.391 203.125 97.4697 205.686C92.5081 208.287 87.6265 209.927 83.1851 210.727C82.625 210.847 82.0648 210.927 81.5446 211.007C80.9844 211.088 80.4243 211.128 79.9041 211.208C79.664 211.234 79.4106 211.261 79.1439 211.288C79.0372 211.288 78.9171 211.288 78.7838 211.288C78.6504 211.314 78.517 211.328 78.3836 211.328C77.9035 211.354 77.4233 211.381 76.9432 211.408C75.0226 211.514 73.2754 211.568 71.7015 211.568C68.5005 211.568 66.0197 211.288 64.3392 210.927C63.4989 210.767 62.8988 210.527 62.4986 210.367C62.2852 210.287 62.1252 210.221 62.0185 210.167C61.9384 210.114 61.8984 210.087 61.8984 210.087Z" fill="#00609E"/>
<path d="M219.07 187.08C219.07 187.08 215.629 180.798 220.311 175.796C224.992 170.835 232.675 167.874 232.555 161.512C232.555 161.512 241.918 185.959 221.271 188.48C221.271 188.48 228.753 182.958 230.354 173.796C230.354 173.796 226.553 184.039 219.07 187.08Z" fill="#90BF3F"/>
<path d="M193.462 198.886C193.462 198.886 186.42 200.126 183.179 194.124C179.938 188.122 179.538 179.92 173.496 177.959C173.496 177.959 199.624 176.879 195.503 197.245C195.503 197.245 192.662 188.402 184.46 184.001C184.46 184.001 192.942 190.803 193.462 198.886Z" fill="#90BF3F"/>
<path d="M224.391 154.19C224.391 154.19 231.033 157.831 236.314 152.87C241.556 147.948 244.757 139.826 251.439 139.906C251.439 139.906 225.591 130.023 222.91 151.869C222.91 151.869 228.712 143.947 238.435 142.266C238.435 142.266 227.632 146.268 224.391 154.19Z" fill="#90BF3F"/>
<path d="M203.544 180.277C203.544 180.277 190.66 174.235 192.301 160.831C193.941 147.387 202.704 133.582 195.101 123.539C195.101 123.539 238.755 151.668 208.666 179.957C208.666 179.957 214.187 162.391 205.945 145.786C205.945 145.786 211.907 166.633 203.544 180.277Z" fill="#90BF3F"/>
<path d="M200.824 214.727C200.824 214.727 209.867 222.53 219.55 216.688C229.273 210.806 236.796 199.402 247.079 201.763C247.079 201.763 210.667 178.076 199.344 210.686C199.344 210.686 210.867 200.483 226.352 201.083C226.352 201.083 208.387 203.684 200.824 214.727Z" fill="#90BF3F"/>
</svg>
