<svg width="232" height="257" viewBox="0 0 232 257" fill="none" xmlns="http://www.w3.org/2000/svg">
<path d="M145.881 28.2243C145.52 24.8624 145.16 21.4306 145.05 18.0487C144.97 15.7074 145.05 13.4262 145.45 11.1149C145.51 10.7681 145.577 10.4212 145.651 10.0743C139.457 7.67303 134.454 4.02104 129.722 0.699219C128.921 20.48 139.787 27.9841 140.148 40.0107C141.668 38.74 143.169 37.3292 144.25 35.6683C145.741 33.3671 146.161 30.9257 145.881 28.2243ZM163.46 91.5889C215.929 102.435 205.473 191.213 126.57 191.213C123.078 191.213 119.636 190.993 116.264 190.563C113.813 199.108 108.51 207.122 102.017 213.185C109.891 215.076 118.115 216.077 126.57 216.077C176.808 216.077 218.781 180.718 228.956 133.522C237.901 93.0897 220.822 38.1297 167.222 14.967C170.544 20.8302 171.515 35.1281 171.515 35.1281C165.762 12.9759 157.637 10.8047 150.443 1.59971C146.871 11.8753 146.371 13.2061 147.932 28.0041C148.952 37.5994 141.668 41.1513 135.415 46.4442C126.71 53.7983 122.008 62.9633 120.377 70.0471C116.234 88.097 102.427 91.4689 88.9796 101.264C88.5393 101.594 88.0791 101.855 87.6088 102.055C84.5271 103.225 81.2853 102.535 80.0547 105.787C77.7834 111.78 92.2413 122.336 102.517 124.867C111.762 127.148 128.611 121.675 140.208 122.296C168.283 123.807 172.885 162.188 142.309 169.852C174.997 163.598 173.005 121.595 140.338 119.834C133.474 119.464 104.168 125.187 112.562 121.165C121.487 116.903 129.362 113.301 138.066 115.772C121.828 107.668 101.096 130.07 85.3376 111.93C87.4587 112.35 93.3119 110.789 92.1113 106.897C109.811 93.4499 155.506 92.0092 169.764 97.7823C167.733 95.441 164.611 92.2093 163.46 91.5889Z" fill="#FF4802"/>
<path d="M86.19 229.173C86.5502 232.535 86.9104 235.967 87.0204 239.349C87.1005 241.69 87.0204 243.971 86.6202 246.282C86.5602 246.629 86.4935 246.973 86.4201 247.313C92.6135 249.724 97.6162 253.376 102.349 256.698C103.149 236.917 92.2833 229.413 91.9131 217.387C90.4023 218.657 88.9015 220.068 87.8209 221.729C86.3301 224.03 85.9098 226.472 86.19 229.173ZM68.6104 165.808C16.1417 154.962 26.5974 66.1839 105.501 66.1839C108.992 66.1839 112.434 66.404 115.806 66.8343C118.258 58.2896 123.56 50.2752 130.054 44.2119C122.18 42.3209 113.955 41.3203 105.501 41.3203C55.2631 41.3203 13.2901 76.6797 3.11456 123.875C-5.83034 164.308 11.249 219.268 64.8483 242.43C61.5265 236.567 60.546 222.269 60.546 222.269C66.3091 244.421 74.4336 246.593 81.6275 255.798C85.1994 245.522 85.6997 244.191 84.1389 229.393C83.1183 219.798 90.3923 216.246 96.6557 210.953C105.36 203.599 110.063 194.434 111.694 187.35C115.836 169.3 129.644 165.928 143.091 156.133C143.531 155.803 143.992 155.543 144.462 155.343C147.544 154.172 150.785 154.862 152.016 151.611C154.287 145.617 139.829 135.062 129.554 132.53C120.309 130.249 103.459 135.722 91.8631 135.102C63.7877 133.591 59.1852 95.2098 89.7619 87.5456C57.074 93.799 59.0652 135.802 91.733 137.563C98.5968 137.933 127.903 132.21 119.508 136.232C110.583 140.495 102.709 144.097 94.0043 141.625C110.243 149.73 130.974 127.327 146.733 145.467C144.612 145.047 138.759 146.608 139.959 150.5C122.26 163.947 76.5647 165.388 62.3069 159.615C64.338 161.956 67.4597 165.188 68.6104 165.808Z" fill="#4D4D4D"/>
</svg>
