<svg width="197" height="257" viewBox="0 0 197 257" fill="none" xmlns="http://www.w3.org/2000/svg">
<path d="M74.4906 95.3159C77.8743 97.7255 88.9482 95.6747 86.4361 81.0633C86.231 79.7816 86.5899 75.6802 86.4874 74.6036C86.3336 73.5782 87.4102 70.1945 86.9488 69.528C86.4361 68.9128 83.7702 70.3996 83.3087 72.5529C83.0524 73.527 82.7448 74.9625 82.4372 76.2954C82.0783 77.8847 80.1301 78.4999 78.8997 77.3721C78.6946 77.2012 78.5066 77.0132 78.3358 76.8081C77.3617 75.6289 75.8236 70.1945 75.4647 68.0925C75.0546 65.9905 73.2089 59.9922 71.876 59.9922C70.8506 59.9922 70.3892 60.5049 71.107 63.581C71.8247 66.6058 73.1577 72.7579 73.1064 73.8858C73.0039 75.0137 72.081 75.8853 71.0557 74.1934C69.9791 72.4503 67.108 67.7849 66.4416 66.7596C65.7751 65.6829 64.1858 62.8119 63.2629 63.2221C62.3401 63.5809 61.9812 64.0936 62.2376 64.7601C62.4939 65.4266 64.801 69.3742 65.57 70.7072C66.339 71.9889 69.21 76.2442 69.0562 76.9106C68.4923 78.7563 65.4675 75.1675 64.1858 73.5782C63.2117 72.3478 60.0331 68.5539 59.5204 68.5027C58.8026 68.4514 58.0336 69.1179 58.5463 70.092C59.0077 71.1173 61.2635 73.9884 62.135 75.065C63.2117 76.398 65.6213 79.1664 66.1852 80.1918C66.7492 81.2684 65.9802 82.0887 64.237 80.807C62.4939 79.474 57.8798 76.0391 56.7519 76.4492C55.624 76.8594 56.3418 78.0898 57.9311 79.1152C59.5204 80.1405 71.4658 93.1113 74.4906 95.3159Z" fill="url(#paint0_radial_40_43)"/>
<path d="M147.749 108.801C144.673 112.646 146.467 125.822 163.899 123.771C165.437 123.566 170.256 124.284 171.538 124.181C172.768 124.079 176.716 125.565 177.485 125.001C178.254 124.489 176.664 121.208 174.152 120.541C173.024 120.234 171.332 119.721 169.794 119.311C167.949 118.747 167.334 116.388 168.718 115.055C168.957 114.816 169.196 114.611 169.436 114.44C170.871 113.312 177.382 111.826 179.894 111.518C182.406 111.159 189.635 109.313 189.686 107.724C189.738 106.494 189.174 105.93 185.534 106.596C181.894 107.263 174.511 108.544 173.178 108.391C171.845 108.186 170.871 107.058 172.973 105.93C175.024 104.751 180.766 101.623 182.048 100.905C183.329 100.188 186.815 98.4959 186.405 97.368C186.046 96.2401 185.482 95.7787 184.662 96.035C183.842 96.2913 178.971 98.8035 177.433 99.6238C175.844 100.495 170.615 103.674 169.846 103.366C167.641 102.649 172.101 99.2649 174.05 97.8294C175.588 96.7527 180.253 93.2152 180.356 92.6C180.458 91.7285 179.74 90.8056 178.51 91.3183C177.28 91.8823 173.793 94.3432 172.46 95.3172C170.769 96.4964 167.334 99.2136 166.103 99.8288C164.821 100.444 163.899 99.4699 165.539 97.4705C167.18 95.471 171.538 90.1904 171.127 88.8575C170.717 87.5245 169.179 88.2422 167.898 90.0879C166.565 91.9335 150.466 105.315 147.749 108.801Z" fill="url(#paint1_radial_40_43)"/>
<path d="M60.1326 112.643C63.4137 113.156 70.6425 107.722 63.6188 98.1346C63.0036 97.3144 61.8244 94.2383 61.363 93.5205C60.9016 92.8028 60.4402 89.983 59.8762 89.7267C59.3123 89.4191 57.8768 91.4698 58.3382 93.1616C58.492 93.9307 58.7996 95.1098 59.0046 96.1352C59.3123 97.4169 58.1331 98.5448 56.9027 98.1859C56.6634 98.1176 56.4583 98.0492 56.2874 97.9808C55.1596 97.4682 52.1347 94.1357 51.1094 92.7515C50.084 91.4185 46.5978 87.7272 45.6237 88.2399C44.9059 88.5988 44.7521 89.1115 46.3414 91.0596C47.9308 93.0078 51.1606 96.9555 51.4683 97.7758C51.8271 98.5961 51.4682 99.5702 50.084 98.6986C48.751 97.8783 44.9572 95.52 44.1369 95.0073C43.2654 94.4946 41.1121 93.0078 40.5994 93.623C40.0867 94.187 39.9842 94.6997 40.3944 95.1098C40.8558 95.4687 43.9318 97.5194 44.9059 98.1346C45.9313 98.8011 49.5201 100.852 49.6226 101.365C49.9302 102.903 46.4952 101.416 44.9572 100.698C43.8293 100.185 40.1893 98.596 39.8304 98.7499C39.2665 98.9549 38.9589 99.724 39.6766 100.237C40.3944 100.801 43.009 102.031 44.0344 102.492C45.2648 103.108 48.0333 104.236 48.8023 104.748C49.5713 105.312 49.315 106.184 47.5719 105.876C45.8288 105.569 41.3172 104.748 40.6507 105.415C39.9842 106.132 40.9583 106.799 42.4451 106.953C43.9831 107.107 57.2103 112.131 60.1326 112.643Z" fill="url(#paint2_radial_40_43)"/>
<path d="M92.8966 64.045C94.9986 67.5825 105.714 70.1459 109.354 56.0472C109.661 54.7655 111.661 51.228 111.968 50.2539C112.276 49.2798 114.583 46.6652 114.429 45.8961C114.224 45.1271 111.199 45.3835 109.918 47.1266C109.354 47.8956 108.482 49.0748 107.662 50.1514C106.688 51.4331 104.688 51.1768 104.073 49.69C103.936 49.4507 103.851 49.2115 103.817 48.9722C103.407 47.4855 104.176 41.9998 104.688 40.0003C105.15 37.9496 105.919 31.7974 104.74 31.2335C103.765 30.8233 103.15 31.131 102.586 34.1558C102.022 37.1806 100.792 43.2815 100.228 44.2556C99.7153 45.2297 98.5361 45.6398 98.2798 43.6916C98.0234 41.6922 97.3057 36.309 97.1006 35.1299C96.9468 33.9507 96.6905 30.7208 95.7164 30.6695C94.7423 30.6183 94.1783 30.9259 94.1271 31.6436C94.0758 32.3614 94.5885 36.873 94.7423 38.3085C94.9474 39.7952 95.8189 44.8195 95.4088 45.3322C94.1271 46.7677 92.8966 42.3074 92.3839 40.3592C91.9738 38.8724 90.6408 34.207 90.2307 33.9507C89.5642 33.5918 88.6414 33.8994 88.6926 34.976C88.6926 36.1039 89.5642 39.5389 89.9231 40.8719C90.3332 42.5125 91.4099 45.9987 91.5124 47.1266C91.6149 48.3057 90.5896 48.7159 89.5129 46.8702C88.4363 45.0246 85.6678 40.0516 84.5399 40.0003C83.3608 39.8978 83.4633 41.282 84.4887 42.8201C85.514 44.4094 91.051 60.8664 92.8966 64.045Z" fill="url(#paint3_radial_40_43)"/>
<path d="M103.815 28.7711C105.251 31.1807 112.582 32.9751 115.094 23.2855C115.299 22.4652 116.632 20.0043 116.889 19.3378C117.094 18.6713 118.683 16.877 118.529 16.3643C118.427 15.8516 116.376 16.0054 115.453 17.1846C115.094 17.7485 114.479 18.5175 113.915 19.2353C113.249 20.1068 111.916 19.953 111.454 18.9789C111.386 18.7739 111.318 18.603 111.249 18.4663C110.993 17.4409 111.557 13.6983 111.864 12.3141C112.223 10.8786 112.736 6.67461 111.916 6.31573C111.249 6.05939 110.839 6.26446 110.429 8.31518C110.07 10.3659 109.198 14.5699 108.84 15.2364C108.481 15.9029 107.66 16.1592 107.507 14.8262C107.302 13.4933 106.84 9.80196 106.686 8.98167C106.584 8.16138 106.379 5.95686 105.712 5.95686C105.046 5.90559 104.687 6.11066 104.687 6.62334C104.636 7.08476 104.943 10.1608 105.097 11.1862C105.2 12.1603 105.815 15.5953 105.507 15.9541C104.687 16.9795 103.815 13.9034 103.456 12.5704C103.149 11.5451 102.277 8.36645 101.97 8.21265C101.56 7.95631 100.893 8.11011 100.893 8.87914C100.944 9.64816 101.56 12.0065 101.765 12.9293C102.072 14.0572 102.79 16.4155 102.841 17.1846C102.944 18.0048 102.226 18.3125 101.508 17.0308C100.791 15.7491 98.8936 12.3654 98.0733 12.3141C97.3043 12.2628 97.3556 13.1857 98.0733 14.2623C98.7911 15.3389 102.585 26.6179 103.815 28.7711Z" fill="url(#paint4_radial_40_43)"/>
<path d="M22.6604 88.3464C24.3522 91.2174 33.1191 93.3707 36.0926 81.8354C36.349 80.81 37.9382 77.939 38.1946 77.1187C38.4509 76.3497 40.3479 74.1964 40.1941 73.5812C40.0402 72.966 37.5794 73.1711 36.554 74.6066C36.0926 75.2218 35.3749 76.1446 34.7084 77.0162C33.8881 78.0928 32.2988 77.8877 31.7861 76.6573C31.6835 76.4522 31.5981 76.2642 31.5297 76.0934C31.2221 74.8629 31.8886 70.4026 32.2475 68.762C32.6577 67.0702 33.2729 62.0972 32.2988 61.6358C31.5297 61.3281 31.0171 61.5332 30.5557 63.9941C30.0942 66.455 29.0689 71.428 28.6587 72.2482C28.1973 73.0173 27.2745 73.3761 27.0694 71.7868C26.8131 70.1463 26.2491 65.7885 26.0953 64.8144C25.9415 63.8403 25.7365 61.2256 24.9674 61.1743C24.1471 61.1231 23.737 61.3794 23.6857 61.9946C23.6345 62.5586 24.0446 66.1986 24.1984 67.4291C24.3522 68.6082 25.07 72.6584 24.7111 73.1198C23.6857 74.299 22.6604 70.6589 22.2502 69.0696C21.8914 67.8905 20.8147 64.0454 20.4559 63.8403C19.9432 63.584 19.1741 63.789 19.2254 64.7118C19.2767 65.5834 19.9432 68.4031 20.2508 69.4798C20.6096 70.864 21.4812 73.6325 21.5325 74.6066C21.635 75.5294 20.7635 75.8883 19.8919 74.3502C19.0203 72.8635 16.8158 68.8133 15.8417 68.762C14.9189 68.6595 15.0214 69.8386 15.8417 71.0691C16.662 72.3508 21.1736 85.783 22.6604 88.3464Z" fill="url(#paint5_radial_40_43)"/>
<path d="M39.9895 54.2015C41.2199 56.3548 47.6797 57.8928 49.8842 49.4336C50.038 48.6646 51.2684 46.5626 51.4223 45.9473C51.6273 45.3834 53.0116 43.7941 52.909 43.3327C52.8065 42.8713 51.0121 43.0251 50.1918 44.1017C49.8842 44.5631 49.3203 45.2296 48.8588 45.8961C48.2949 46.6651 47.0645 46.5113 46.7056 45.6397C46.6372 45.4688 46.586 45.315 46.5518 45.1783C46.2954 44.3068 46.7569 41.0256 47.0645 39.7952C47.3721 38.5647 47.8335 34.8735 47.1157 34.5658C46.5518 34.3095 46.1416 34.4633 45.834 36.309C45.4752 38.1033 44.7061 41.7434 44.3985 42.3586C44.0909 42.9225 43.3732 43.1789 43.2194 41.9997C43.0656 40.8205 42.6554 37.5907 42.5016 36.8729C42.3991 36.1552 42.2453 34.207 41.6813 34.207C41.0661 34.1557 40.7585 34.3608 40.7585 34.7709C40.7072 35.2323 41.0148 37.8983 41.1174 38.7698C41.2199 39.6926 41.7326 42.6662 41.4763 42.9738C40.7585 43.8454 39.9895 41.1794 39.6819 40.0003C39.4255 39.1287 38.6052 36.309 38.4002 36.1551C37.99 35.9501 37.4261 36.1039 37.4773 36.7704C37.4773 37.4368 37.99 39.5388 38.1951 40.3079C38.4514 41.3332 39.1179 43.3839 39.1692 44.1017C39.2205 44.7682 38.6052 45.0245 37.9387 43.8966C37.3235 42.82 35.683 39.8465 34.9652 39.7952C34.2987 39.7439 34.35 40.5642 34.9652 41.487C35.5804 42.4611 38.9128 52.3046 39.9895 54.2015Z" fill="url(#paint6_radial_40_43)"/>
<path d="M132.322 142.638C130.425 140.229 131.553 132.077 142.37 133.461C143.344 133.564 146.318 133.154 147.087 133.205C147.856 133.307 150.317 132.385 150.778 132.743C151.291 133.051 150.266 135.102 148.676 135.512C148.01 135.717 146.933 135.973 146.01 136.23C144.831 136.589 144.472 138.024 145.293 138.896C145.464 139.032 145.617 139.152 145.754 139.255C146.677 139.921 150.676 140.895 152.214 141.1C153.752 141.357 158.263 142.536 158.263 143.51C158.315 144.279 157.956 144.586 155.7 144.176C153.444 143.766 148.881 142.946 148.01 143.048C147.19 143.151 146.626 143.817 147.907 144.535C149.189 145.253 152.727 147.252 153.496 147.714C154.265 148.175 156.418 149.201 156.213 149.918C155.956 150.585 155.598 150.892 155.085 150.739C154.572 150.533 151.599 148.995 150.625 148.432C149.65 147.919 146.421 145.919 145.959 146.073C144.575 146.535 147.343 148.637 148.574 149.559C149.445 150.226 152.368 152.482 152.419 152.789C152.47 153.353 152.009 153.917 151.24 153.61C150.522 153.251 148.369 151.713 147.548 151.097C146.472 150.38 144.421 148.637 143.601 148.278C142.832 147.919 142.268 148.483 143.242 149.713C144.267 150.995 146.933 154.276 146.677 155.096C146.421 155.917 145.446 155.455 144.677 154.327C143.857 153.199 133.962 144.791 132.322 142.638Z" fill="url(#paint7_radial_40_43)"/>
<path d="M136.831 94.3938C135.036 94.4964 131.499 91.0101 135.959 86.2935C136.369 85.8833 137.241 84.294 137.548 83.9352C137.805 83.5763 138.266 82.0895 138.625 81.9357C138.933 81.8332 139.548 83.0636 139.189 83.9352C139.035 84.3453 138.83 84.9605 138.625 85.5245C138.369 86.191 138.933 86.9087 139.65 86.8062C139.753 86.772 139.856 86.7378 139.958 86.7036C140.625 86.4986 142.521 84.9092 143.137 84.2428C143.803 83.5763 145.956 81.8332 146.469 82.1408C146.828 82.3971 146.879 82.7047 145.854 83.6275C144.88 84.6016 142.829 86.4986 142.624 86.96C142.368 87.3701 142.47 87.8828 143.29 87.5239C144.111 87.165 146.315 86.1397 146.777 85.9346C147.289 85.7295 148.571 85.063 148.827 85.4219C149.067 85.7979 149.067 86.0713 148.827 86.2422C148.571 86.4473 146.725 87.3188 146.162 87.5752C145.546 87.8828 143.444 88.7543 143.342 89.0107C143.085 89.831 145.085 89.267 145.956 89.0107C146.623 88.8056 148.674 88.1904 148.879 88.2929C149.186 88.4467 149.289 88.8569 148.879 89.1132C148.417 89.3696 146.931 89.831 146.315 90.036C145.598 90.2924 144.06 90.7025 143.598 90.9076C143.137 91.164 143.188 91.6766 144.162 91.6254C145.136 91.5741 147.648 91.4716 147.956 91.8817C148.263 92.2918 147.7 92.5482 146.879 92.5482C146.059 92.5482 138.471 94.3426 136.831 94.3938Z" fill="url(#paint8_radial_40_43)"/>
<path d="M177.13 82.396C175.028 81.2681 173.233 74.9621 181.539 72.45C182.257 72.2449 184.307 71.0145 184.871 70.8094C185.486 70.6043 186.973 69.1688 187.435 69.2201C187.896 69.3226 187.793 71.117 186.768 71.9373C186.358 72.2962 185.64 72.8601 185.076 73.3215C184.307 73.9368 184.512 75.1159 185.384 75.4748C185.555 75.5431 185.709 75.5944 185.845 75.6286C186.717 75.8337 189.947 75.2185 191.126 74.8596C192.356 74.552 195.996 73.9367 196.304 74.6545C196.56 75.2184 196.406 75.5773 194.663 75.9875C192.869 76.3976 189.28 77.2692 188.716 77.628C188.152 77.9357 187.947 78.6534 189.075 78.7559C190.254 78.8585 193.484 79.1661 194.202 79.2686C194.92 79.3199 196.817 79.4224 196.868 79.9864C196.919 80.6016 196.714 80.9092 196.304 80.9605C195.894 81.0117 193.228 80.8067 192.356 80.7041C191.485 80.6529 188.46 80.2427 188.204 80.4991C187.332 81.2681 189.998 81.9346 191.177 82.1909C192.049 82.396 194.868 83.1137 195.022 83.3188C195.279 83.6777 195.125 84.2929 194.458 84.2416C193.792 84.2416 191.741 83.8315 190.921 83.6777C189.947 83.4213 187.896 82.8574 187.178 82.8574C186.512 82.8061 186.255 83.4213 187.383 84.0366C188.511 84.6005 191.536 86.1385 191.587 86.805C191.69 87.5228 190.818 87.4715 189.895 86.9076C188.973 86.3436 179.078 83.4213 177.13 82.396Z" fill="url(#paint9_radial_40_43)"/>
<path d="M115.099 83.4232C116.688 84.346 121.456 82.9105 119.611 76.6558C119.457 76.0919 119.406 74.2462 119.303 73.8361C119.201 73.3746 119.508 71.8366 119.252 71.5803C119.047 71.3239 117.919 72.0929 117.816 73.067C117.765 73.4772 117.714 74.1437 117.611 74.7589C117.56 75.4766 116.74 75.8355 116.125 75.3741C116.022 75.3057 115.937 75.2374 115.868 75.169C115.407 74.7076 114.433 72.4006 114.176 71.529C113.869 70.6062 112.792 68.094 112.228 68.1453C111.767 68.1966 111.562 68.4529 112.023 69.7346C112.484 71.0163 113.407 73.6822 113.407 74.1437C113.459 74.6563 113.1 75.0665 112.536 74.4C111.972 73.6822 110.485 71.7853 110.177 71.3752C109.819 70.965 108.998 69.7859 108.588 69.991C108.212 70.196 108.093 70.4353 108.229 70.7087C108.383 70.965 109.562 72.6056 109.972 73.1183C110.382 73.6822 111.869 75.3741 111.818 75.6817C111.664 76.502 110.177 75.1178 109.511 74.4513C108.998 73.9899 107.46 72.5031 107.255 72.5031C106.896 72.5031 106.589 72.8107 106.845 73.2208C107.153 73.631 108.229 74.7589 108.691 75.2203C109.255 75.733 110.434 76.8609 110.741 77.271C111.049 77.6812 110.741 78.0913 109.921 77.6299C109.05 77.1172 106.896 75.8868 106.435 76.0919C105.922 76.2969 106.281 76.8609 107.05 77.2197C107.819 77.5786 113.664 82.6542 115.099 83.4232Z" fill="url(#paint10_radial_40_43)"/>
<path d="M25.5845 52.5621C27.1738 53.4849 31.8905 52.0494 30.0961 45.7435C29.9423 45.2308 29.891 43.3851 29.7885 42.9237C29.686 42.5136 29.9936 40.9755 29.7372 40.7192C29.4809 40.4629 28.4043 41.2319 28.3017 42.206C28.2505 42.6161 28.1992 43.2826 28.0967 43.8978C28.0454 44.5643 27.2251 44.9744 26.6099 44.513C26.5074 44.4447 26.4219 44.3763 26.3536 44.308C25.8409 43.8466 24.918 41.5395 24.6617 40.6679C24.3541 39.7451 23.2775 37.1817 22.6623 37.2842C22.2521 37.3355 22.047 37.5919 22.5085 38.8736C22.9699 40.1553 23.8927 42.8212 23.8927 43.2826C23.944 43.7953 23.5851 44.2054 23.0211 43.5389C22.4572 42.8212 20.9704 40.9243 20.6115 40.5141C20.3039 40.0527 19.4836 38.9248 19.0735 39.1299C18.6975 39.335 18.5779 39.5742 18.7146 39.8476C18.8684 40.104 20.0476 41.7446 20.4577 42.2572C20.8679 42.7699 22.3546 44.513 22.3034 44.8206C22.1496 45.6409 20.6628 44.2054 19.9963 43.5902C19.4836 43.1288 17.9456 41.642 17.6892 41.642C17.3816 41.642 17.074 41.9496 17.3304 42.3598C17.638 42.7699 18.7146 43.8978 19.176 44.3592C19.6887 44.8719 20.9191 45.9998 21.2268 46.41C21.4831 46.8201 21.2267 47.2302 20.3552 46.7688C19.5349 46.2561 17.3304 44.9744 16.869 45.2308C16.4076 45.4359 16.7664 45.9485 17.5355 46.3587C18.3045 46.7176 24.149 51.7931 25.5845 52.5621Z" fill="url(#paint11_radial_40_43)"/>
<path d="M160.002 30.1061C159.9 31.9005 163.283 35.5405 168.103 31.1827C168.513 30.7726 170.153 29.9523 170.512 29.6447C170.871 29.3884 172.358 28.9782 172.512 28.6193C172.614 28.3117 171.435 27.6452 170.512 28.0041C170.102 28.1579 169.487 28.363 168.923 28.5681C168.256 28.7731 167.59 28.2092 167.692 27.4914C167.727 27.3547 167.761 27.2351 167.795 27.1326C168 26.5174 169.641 24.6717 170.358 24.0052C171.025 23.39 172.819 21.288 172.512 20.7753C172.255 20.4164 171.948 20.3652 170.974 21.3393C170.051 22.3134 168.051 24.2616 167.641 24.5179C167.18 24.7742 166.667 24.6204 167.026 23.8001C167.436 23.0311 168.461 20.8266 168.718 20.3652C168.923 19.8525 169.641 18.6221 169.282 18.3145C168.94 18.0752 168.667 18.0752 168.461 18.3145C168.256 18.5708 167.334 20.3652 167.026 20.9804C166.77 21.5444 165.847 23.6463 165.539 23.6976C164.719 23.9539 165.385 22.0058 165.642 21.1342C165.847 20.4677 166.513 18.417 166.411 18.2119C166.257 17.9043 165.847 17.8018 165.59 18.2119C165.334 18.6221 164.821 20.1088 164.616 20.7241C164.36 21.4418 163.899 22.9798 163.642 23.4413C163.386 23.9027 162.925 23.8001 162.976 22.826C163.027 21.9032 163.232 19.3398 162.822 19.0322C162.412 18.7246 162.104 19.2886 162.104 20.1088C162.104 20.9291 160.105 28.4655 160.002 30.1061Z" fill="url(#paint12_radial_40_43)"/>
<path d="M124.166 15.5959C124.935 17.2364 129.6 18.877 131.856 12.7248C132.01 12.2122 133.087 10.7254 133.24 10.3152C133.446 9.85384 134.573 8.7772 134.522 8.4696C134.471 8.11072 133.138 8.11072 132.471 8.82847C132.215 9.13608 131.754 9.5975 131.344 10.0589C130.831 10.5716 129.959 10.3665 129.754 9.70003C129.72 9.56332 129.686 9.44369 129.652 9.34115C129.549 8.67467 130.164 6.26507 130.472 5.39351C130.78 4.52196 131.395 1.80475 130.882 1.49715C130.472 1.29207 130.164 1.39461 129.805 2.72758C129.395 4.00928 128.575 6.67522 128.267 7.08536C128.011 7.4955 127.498 7.64931 127.447 6.77775C127.396 5.85492 127.345 3.44533 127.293 2.88138C127.293 2.3687 127.293 0.933192 126.883 0.881924C126.439 0.813566 126.183 0.933198 126.114 1.24081C126.063 1.54841 126.114 3.54786 126.114 4.21435C126.114 4.88083 126.319 7.13663 126.063 7.3417C125.448 7.95692 125.089 5.9062 124.935 5.03464C124.832 4.36815 124.474 2.21489 124.269 2.06109C124.012 1.90729 123.602 1.95856 123.551 2.47124C123.499 2.98392 123.756 4.52196 123.858 5.13717C123.961 5.90619 124.32 7.49551 124.269 8.00819C124.269 8.52087 123.807 8.67467 123.397 7.80311C123.038 6.93155 122.013 4.57323 121.5 4.52196C120.987 4.41942 120.987 5.03464 121.346 5.80366C121.756 6.52141 123.5 14.1091 124.166 15.5959Z" fill="url(#paint13_radial_40_43)"/>
<path d="M13.0239 97.2663C14.8696 97.2151 18.0995 93.4725 13.229 89.1147C12.8189 88.7558 11.7935 87.2178 11.4859 86.9102C11.127 86.5513 10.5631 85.1158 10.2554 85.0133C9.89657 84.962 9.3839 86.1924 9.84531 87.064C9.99911 87.4741 10.3067 88.0381 10.5631 88.602C10.8707 89.2173 10.358 89.9863 9.64024 89.935C9.50353 89.935 9.38389 89.9179 9.28136 89.8837C8.61487 89.7299 6.61542 88.2944 5.89766 87.6792C5.17991 87.064 2.87286 85.526 2.46271 85.8848C2.10384 86.1924 2.05256 86.4488 3.12919 87.3203C4.25709 88.1919 6.41034 89.935 6.66669 90.3451C6.97429 90.7553 6.87177 91.268 6.05148 91.0116C5.23119 90.704 2.92412 89.8837 2.41144 89.6787C1.89876 89.5249 0.565794 88.9609 0.360722 89.3711C0.155649 89.747 0.172742 90.0205 0.411993 90.1913C0.719601 90.3452 2.61652 91.0629 3.23174 91.268C3.84695 91.5243 6.00021 92.1908 6.10275 92.4471C6.46163 93.2674 4.4109 92.8573 3.53935 92.6522C2.87286 92.4984 0.719595 92.0883 0.565791 92.1908C0.258182 92.3959 0.206918 92.806 0.617062 93.0111C1.07847 93.2162 2.61652 93.6263 3.23174 93.7288C4.00076 93.8826 5.59007 94.1902 6.05148 94.3953C6.51289 94.6004 6.51289 95.0618 5.5388 95.1131C4.5647 95.1644 2.05256 95.2669 1.79622 95.677C1.48861 96.1384 2.05257 96.3948 2.92412 96.2922C3.74441 96.1897 11.4346 97.3689 13.0239 97.2663Z" fill="url(#paint14_radial_40_43)"/>
<path d="M69.9316 126.129C73.4691 126.334 79.7238 133.614 70.1879 142.022C69.3676 142.74 67.4194 145.662 66.7529 146.329C66.1377 146.944 65.0098 149.764 64.3433 149.917C63.7281 150.071 62.7028 147.61 63.5743 145.97C63.9332 145.201 64.4971 144.073 64.9586 143.047C65.5738 141.766 64.5997 140.33 63.2154 140.381C62.9762 140.416 62.754 140.45 62.549 140.484C61.2673 140.74 57.3196 143.509 55.9354 144.688C54.5511 145.918 50.0908 148.892 49.2193 148.174C48.5528 147.61 48.5015 147.046 50.6035 145.406C52.7055 143.765 56.9607 140.381 57.5247 139.612C58.0374 138.792 57.8836 137.716 56.2943 138.279C54.6537 138.843 50.2446 140.433 49.2193 140.792C48.2452 141.099 45.6305 142.176 45.2204 141.407C44.8102 140.689 44.8102 140.125 45.3742 139.818C45.8868 139.51 49.5781 138.126 50.7573 137.664C51.9877 137.254 56.1917 135.972 56.3968 135.408C57.0633 133.87 53.1156 134.691 51.4238 134.998C50.0908 135.306 45.9381 136.126 45.5792 135.87C45.0666 135.511 44.9128 134.691 45.7843 134.281C46.6559 133.87 49.6807 133.204 50.8086 132.948C52.2953 132.589 55.3714 132.076 56.2943 131.717C57.2171 131.307 57.1658 130.333 55.3202 130.282C53.4233 130.179 48.5528 129.974 48.0401 129.103C47.4762 128.282 48.604 127.77 50.2446 127.975C51.8339 128.128 66.7529 125.975 69.9316 126.129Z" fill="url(#paint15_radial_40_43)"/>
<path d="M29.1738 106.648C32.7112 106.905 38.9659 114.185 29.4301 122.541C28.6098 123.259 26.6616 126.233 25.9951 126.848C25.3799 127.463 24.252 130.283 23.5855 130.437C22.919 130.59 21.945 128.181 22.7652 126.489C23.1754 125.72 23.6881 124.592 24.2007 123.567C24.816 122.285 23.8419 120.85 22.4576 120.952C22.2184 120.952 21.9962 120.969 21.7911 121.003C20.5094 121.311 16.5618 124.079 15.1776 125.259C13.7933 126.438 9.33301 129.411 8.46145 128.694C7.7437 128.13 7.7437 127.566 9.84569 125.925C11.9477 124.285 16.2029 120.901 16.7156 120.132C17.2796 119.312 17.1258 118.286 15.5364 118.85C13.8959 119.414 9.43554 120.952 8.46145 121.311C7.43609 121.619 4.87269 122.695 4.46255 121.977C4.0524 121.208 4.0524 120.696 4.61634 120.388C5.12903 120.029 8.82032 118.645 9.99949 118.235C11.2299 117.773 15.4339 116.492 15.639 115.928C16.3055 114.441 12.3578 115.21 10.666 115.569C9.33301 115.825 5.18031 116.646 4.82143 116.389C4.30875 116.082 4.15494 115.21 5.0265 114.8C5.89806 114.39 8.92286 113.723 10.0508 113.467C11.5375 113.159 14.6136 112.595 15.5364 112.237C16.4593 111.826 16.408 110.904 14.5624 110.801C12.6654 110.698 7.79497 110.493 7.23102 109.673C6.71834 108.802 7.84624 108.34 9.43555 108.494C11.0761 108.699 25.9951 106.495 29.1738 106.648Z" fill="url(#paint16_radial_40_43)"/>
<path d="M81.3136 39.0776C80.7496 43.5379 70.9575 50.7667 61.2165 38.001C60.345 36.8731 56.8075 34.1046 56.0897 33.233C55.3207 32.3615 51.8857 30.6696 51.7319 29.8494C51.5781 29.0291 54.7568 28.0037 56.8075 29.1829C57.7303 29.7468 59.1145 30.5158 60.3962 31.2849C61.9343 32.1564 63.8825 31.0798 63.8825 29.2854C63.8825 28.9778 63.8654 28.6873 63.8312 28.4139C63.6261 26.7733 60.4475 21.5439 59.1145 19.6983C57.7303 17.8014 54.3466 11.9055 55.3207 10.8289C56.0897 10.0599 56.8587 10.0599 58.7557 12.8796C60.6013 15.6994 64.4977 21.3389 65.4205 22.1079C66.3946 22.8769 67.7276 22.7744 67.1636 20.6724C66.5997 18.5704 65.0104 12.8284 64.7028 11.5467C64.3951 10.2137 63.2673 6.88127 64.2413 6.41986C65.2154 5.95844 65.8819 6.06098 66.2408 6.72747C66.5997 7.44522 68.0352 12.2132 68.4453 13.8025C68.9067 15.3405 70.1372 20.7749 70.8036 21.1338C72.7006 22.1079 72.0853 17.0323 71.7777 14.8278C71.5727 13.136 70.9062 7.8041 71.2138 7.39395C71.7265 6.77874 72.8031 6.62493 73.2133 7.80409C73.6747 8.93199 74.2386 12.7771 74.4437 14.2639C74.7513 16.1608 75.1102 20.1084 75.5203 21.3389C75.9305 22.5693 77.1609 22.5693 77.4172 20.211C77.7248 17.8526 78.3913 11.6492 79.5705 11.0853C80.6984 10.5213 81.1598 11.9568 80.8009 13.9563C80.442 16.007 81.8263 35.0787 81.3136 39.0776Z" fill="url(#paint17_radial_40_43)"/>
<path d="M141.756 59.0703C138.885 62.5565 126.786 63.5306 125.299 47.4837C125.146 46.0995 123.607 41.8955 123.454 40.7676C123.3 39.6397 121.198 36.4098 121.557 35.5895C121.864 34.8205 125.094 35.6408 126.222 37.7428C126.684 38.6656 127.453 40.1011 128.17 41.3828C128.991 42.9208 131.195 43.0234 132.169 41.5366C132.306 41.2974 132.443 41.041 132.579 40.7676C133.246 39.2808 133.348 33.1799 133.143 30.8728C132.99 28.5658 133.246 21.7471 134.63 21.3883C135.758 21.0806 136.373 21.4908 136.476 24.8745C136.578 28.2582 136.835 35.1281 137.245 36.3073C137.655 37.4352 138.834 38.1016 139.501 35.9997C140.116 33.8977 141.808 28.2069 142.218 26.9252C142.628 25.6435 143.499 22.2085 144.576 22.3111C145.653 22.4649 146.165 22.875 146.063 23.6441C146.012 24.4643 144.679 29.2323 144.217 30.8216C143.807 32.3596 141.961 37.6402 142.32 38.3067C143.448 40.1011 145.55 35.487 146.473 33.4362C147.191 31.8982 149.447 27.0277 149.959 26.8739C150.728 26.5663 151.702 27.0277 151.446 28.2582C151.19 29.4373 149.652 33.0261 149.088 34.4103C148.319 36.1535 146.524 39.691 146.217 40.9727C145.96 42.2031 146.986 42.8696 148.473 41.0239C149.959 39.1783 153.804 34.2565 155.086 34.3591C156.368 34.4616 156.009 35.9997 154.625 37.4864C153.24 39.0245 144.32 55.9429 141.756 59.0703Z" fill="url(#paint18_radial_40_43)"/>
<path d="M158.11 66.4524C158.52 70.0411 166.313 75.937 174.311 65.7346C174.977 64.8631 177.848 62.7098 178.464 61.9921C179.079 61.2743 181.899 59.9926 182.001 59.3261C182.104 58.6084 179.592 57.7881 177.9 58.7109C177.182 59.1723 176.054 59.7875 175.029 60.3515C173.747 61.0692 172.209 60.1464 172.209 58.7109C172.209 58.4717 172.226 58.2495 172.26 58.0444C172.465 56.7115 175.08 52.5588 176.157 51.072C177.285 49.5339 180.104 44.8173 179.284 43.997C178.669 43.3305 178.105 43.3305 176.567 45.5863C175.029 47.8421 171.85 52.3537 171.03 52.9689C170.261 53.5328 169.184 53.4816 169.646 51.7897C170.158 50.0979 171.491 45.4838 171.748 44.4071C172.055 43.3818 172.927 40.7158 172.158 40.3057C171.389 39.9468 170.825 39.9981 170.568 40.562C170.261 41.126 169.082 44.9198 168.723 46.2015C168.313 47.4319 167.287 51.841 166.723 52.0973C165.185 52.8664 165.749 48.7649 166.006 47.0218C166.211 45.6376 166.775 41.3823 166.569 41.0234C166.159 40.5108 165.288 40.4082 164.929 41.331C164.57 42.2539 164.057 45.33 163.852 46.5604C163.596 48.0472 163.288 51.2258 162.929 52.1999C162.622 53.174 161.596 53.174 161.391 51.277C161.186 49.3801 160.725 44.4071 159.802 43.8945C158.879 43.433 158.469 44.6122 158.777 46.2528C159.033 47.8421 157.7 63.2225 158.11 66.4524Z" fill="url(#paint19_radial_40_43)"/>
<path d="M168.106 231.639C168.106 231.639 168.875 210.056 146.676 204.365C98.2276 191.907 0.203125 256.863 0.203125 256.863C0.203125 256.863 146.676 194.214 168.106 231.639Z" fill="#424242"/>
<path d="M69.2099 118.954C76.7976 123.363 92.4343 134.744 92.4343 153.662C92.4343 170.529 83.1035 196.625 77.1052 211.697C91.3064 205.648 105.867 200.777 119.248 198.624C114.941 187.909 110.942 171.298 114.48 149.868C116.992 134.488 135.397 126.746 142.318 124.337C143.856 123.773 144.933 122.286 144.933 120.645C144.933 117.672 141.703 115.775 139.088 117.262L115.351 130.745C116.684 113.981 130.475 83.0659 136.422 70.3001C137.653 67.6854 135.705 64.6094 132.782 64.6094C131.193 64.6094 129.706 65.5835 129.091 67.0702L108.02 116.236L101.714 72.8123C101.458 71.2742 100.176 70.1463 98.5865 70.1463C96.587 70.1463 95.1003 72.0432 95.5617 73.9914C100.176 93.6271 97.6637 129.002 97.6637 129.002L73.6702 112.032C71.8246 110.699 69.2612 111.161 67.9282 113.006C66.4927 114.955 67.1079 117.723 69.2099 118.954Z" fill="#424242"/>
<defs>
<radialGradient id="paint0_radial_40_43" cx="0" cy="0" r="1" gradientUnits="userSpaceOnUse" gradientTransform="translate(-18.0144 27.7759) rotate(73.271) scale(296.045 296.045)">
<stop stop-color="#ED1966"/>
<stop offset="1" stop-color="#B21E52"/>
</radialGradient>
<radialGradient id="paint1_radial_40_43" cx="0" cy="0" r="1" gradientUnits="userSpaceOnUse" gradientTransform="translate(188.175 -99.0573) rotate(166.117) scale(296.046 296.046)">
<stop stop-color="#ED1966"/>
<stop offset="1" stop-color="#B21E52"/>
</radialGradient>
<radialGradient id="paint2_radial_40_43" cx="0" cy="0" r="1" gradientUnits="userSpaceOnUse" gradientTransform="translate(-83.8737 55.6242) rotate(46.8155) scale(296.045 296.045)">
<stop stop-color="#8DC63F"/>
<stop offset="1" stop-color="#52853F"/>
</radialGradient>
<radialGradient id="paint3_radial_40_43" cx="0" cy="0" r="1" gradientUnits="userSpaceOnUse" gradientTransform="translate(-9.85733 5.03243) rotate(97.3443) scale(296.047 296.046)">
<stop stop-color="#F1A421"/>
<stop offset="1" stop-color="#F1582E"/>
</radialGradient>
<radialGradient id="paint4_radial_40_43" cx="0" cy="0" r="1" gradientUnits="userSpaceOnUse" gradientTransform="translate(-9.8582 5.02993) rotate(97.3443) scale(296.047 296.047)">
<stop stop-color="#8DC63F"/>
<stop offset="1" stop-color="#52853F"/>
</radialGradient>
<radialGradient id="paint5_radial_40_43" cx="0" cy="0" r="1" gradientUnits="userSpaceOnUse" gradientTransform="translate(-9.85842 5.03378) rotate(97.3443) scale(296.045 296.046)">
<stop stop-color="#29A8E0"/>
<stop offset="1" stop-color="#1F76BB"/>
</radialGradient>
<radialGradient id="paint6_radial_40_43" cx="0" cy="0" r="1" gradientUnits="userSpaceOnUse" gradientTransform="translate(-9.85742 5.03238) rotate(97.3443) scale(296.047 296.047)">
<stop stop-color="#8DC63F"/>
<stop offset="1" stop-color="#52853F"/>
</radialGradient>
<radialGradient id="paint7_radial_40_43" cx="0" cy="0" r="1" gradientUnits="userSpaceOnUse" gradientTransform="translate(331.404 102.184) rotate(-165.679) scale(296.046 296.046)">
<stop stop-color="#F1A421"/>
<stop offset="1" stop-color="#F1582E"/>
</radialGradient>
<radialGradient id="paint8_radial_40_43" cx="0" cy="0" r="1" gradientUnits="userSpaceOnUse" gradientTransform="translate(262.951 -56.2091) rotate(140.49) scale(296.045 296.045)">
<stop stop-color="#ED1C24"/>
<stop offset="1" stop-color="#BE1E2D"/>
</radialGradient>
<radialGradient id="paint9_radial_40_43" cx="0" cy="0" r="1" gradientUnits="userSpaceOnUse" gradientTransform="translate(318.849 0.0430969) rotate(170.505) scale(296.046 296.046)">
<stop stop-color="#F1A421"/>
<stop offset="1" stop-color="#F1582E"/>
</radialGradient>
<radialGradient id="paint10_radial_40_43" cx="0" cy="0" r="1" gradientUnits="userSpaceOnUse" gradientTransform="translate(41.7567 -110.018) rotate(66.7858) scale(296.045 296.045)">
<stop stop-color="#8DC63F"/>
<stop offset="1" stop-color="#52853F"/>
</radialGradient>
<radialGradient id="paint11_radial_40_43" cx="0" cy="0" r="1" gradientUnits="userSpaceOnUse" gradientTransform="translate(41.7534 -110.017) rotate(66.7857) scale(296.046 296.046)">
<stop stop-color="#ED1C24"/>
<stop offset="1" stop-color="#BE1E2D"/>
</radialGradient>
<radialGradient id="paint12_radial_40_43" cx="0" cy="0" r="1" gradientUnits="userSpaceOnUse" gradientTransform="translate(234.042 -145.3) rotate(130.887) scale(296.044 296.044)">
<stop stop-color="#8DC63F"/>
<stop offset="1" stop-color="#52853F"/>
</radialGradient>
<radialGradient id="paint13_radial_40_43" cx="0" cy="0" r="1" gradientUnits="userSpaceOnUse" gradientTransform="translate(149.487 -177.175) rotate(103) scale(296.046 296.046)">
<stop stop-color="#ED1C24"/>
<stop offset="1" stop-color="#BE1E2D"/>
</radialGradient>
<radialGradient id="paint14_radial_40_43" cx="0" cy="0" r="1" gradientUnits="userSpaceOnUse" gradientTransform="translate(-71.3259 -98.5735) rotate(34.6047) scale(296.046 296.046)">
<stop stop-color="#8DC63F"/>
<stop offset="1" stop-color="#52853F"/>
</radialGradient>
<radialGradient id="paint15_radial_40_43" cx="0" cy="0" r="1" gradientUnits="userSpaceOnUse" gradientTransform="translate(-115.388 209.708) rotate(-34.3077) scale(296.046 296.046)">
<stop stop-color="#ED1C24"/>
<stop offset="1" stop-color="#BE1E2D"/>
</radialGradient>
<radialGradient id="paint16_radial_40_43" cx="0" cy="0" r="1" gradientUnits="userSpaceOnUse" gradientTransform="translate(-115.389 209.708) rotate(-34.3077) scale(296.044 296.044)">
<stop stop-color="#F1A421"/>
<stop offset="1" stop-color="#F1582E"/>
</radialGradient>
<radialGradient id="paint17_radial_40_43" cx="0" cy="0" r="1" gradientUnits="userSpaceOnUse" gradientTransform="translate(76.0884 -20.1626) rotate(59.8401) scale(296.024 296.024)">
<stop stop-color="#29A8E0"/>
<stop offset="1" stop-color="#1F76BB"/>
</radialGradient>
<radialGradient id="paint18_radial_40_43" cx="0" cy="0" r="1" gradientUnits="userSpaceOnUse" gradientTransform="translate(112.578 11.4607) rotate(91.7712) scale(296.046 296.046)">
<stop stop-color="#ED1966"/>
<stop offset="1" stop-color="#B21E52"/>
</radialGradient>
<radialGradient id="paint19_radial_40_43" cx="0" cy="0" r="1" gradientUnits="userSpaceOnUse" gradientTransform="translate(377.91 48.4804) rotate(120.888) scale(296.047 296.047)">
<stop stop-color="#29A8E0"/>
<stop offset="1" stop-color="#1F76BB"/>
</radialGradient>
</defs>
</svg>
