<svg width="257" height="161" viewBox="0 0 257 161" fill="none" xmlns="http://www.w3.org/2000/svg">
<path d="M23.0771 14.4707C24.0858 15.1827 25.3556 18.1019 26.115 19.2411C26.922 20.4436 27.8001 21.5907 28.7494 22.6825C33.0808 27.6902 38.3615 30.9892 44.7933 32.6031C50.1096 33.9321 58.8079 33.3744 64.4327 33.3388L89.78 33.3625C94.5386 33.3863 99.3684 33.1964 104.127 33.5643C113.347 34.2644 122.473 38.2042 128.869 44.9445C129.913 46.0599 130.803 47.2941 131.753 48.4926C133.628 50.866 135.479 53.2393 137.306 55.6483C141.353 61.0001 145.506 66.4826 149.897 71.5734C155.059 71.7751 160.268 71.6921 165.43 71.7633C162.915 74.7656 160.719 78.1238 158.453 81.316C153.635 88.1038 148.948 94.9746 143.999 101.656C142.611 103.531 140.665 106.913 139.11 108.408C128.343 108.313 117.572 108.277 106.797 108.301C98.3241 108.301 89.8275 108.159 81.3665 108.431C79.5628 107.316 77.9133 105.939 76.157 104.753C72.7394 102.463 69.1557 100.326 65.9042 97.8226C72.336 98.0955 78.8389 97.9176 85.2826 97.9294C94.1826 97.9413 103.083 98.0718 111.983 97.9769C115.922 97.9413 119.85 97.6209 123.778 97.5616C131.195 97.4548 137.864 97.9176 145.174 99.033C140.392 96.4342 134.446 94.7966 129.095 93.9897C118.153 92.3165 106.987 92.7555 95.9626 92.7555L58.5943 92.625C56.9329 91.6994 55.3547 90.5246 53.7764 89.4566C50.7939 87.4155 47.7837 85.4219 44.7458 83.4757C51.676 83.3452 58.6061 83.4401 65.5482 83.4283L104.198 83.3808C114.071 83.3452 123.778 81.0787 133.651 82.1467C137.235 82.5383 139.786 83.5113 143.168 84.1759L143.263 84.0691L143.026 84.2827L143.204 84.0097C142.172 83.7487 141.258 83.1909 140.285 82.8112C137.437 81.7076 134.696 80.6633 131.729 79.9276C121.974 77.7797 112.351 77.578 102.406 77.578L85.9827 77.5898L37.0087 77.5661C32.2264 74.3146 27.2068 71.2649 22.6143 67.7642C25.047 68.0965 27.7289 67.8947 30.1853 67.9066C34.5285 67.9145 38.8718 67.9501 43.215 68.0134C55.7067 68.2903 68.1984 68.4287 80.6901 68.4287C86.7066 68.4169 92.7942 68.5237 98.7988 68.227C108.067 67.776 117.24 65.6638 126.555 66.0316C129.415 66.1503 132.227 66.6487 135.052 67.0996C132.975 66.091 130.483 65.5095 128.228 64.9636C117.394 62.353 106.358 62.08 95.2625 62.0326L75.7773 62.0207C62.8979 61.9811 50.0186 62.0088 37.1392 62.1038C31.7359 62.167 26.3326 62.1631 20.9293 62.0919C19.1018 62.0682 16.8827 62.3174 15.1264 61.8902C13.4058 61.463 2.79691 54.0462 0.601562 52.5748C27.7922 52.4007 54.9828 52.4363 82.1735 52.6816C88.5182 52.6816 94.859 52.6104 101.196 52.468C110.309 52.3137 119.233 52.2069 128.157 54.3073C123.826 51.9814 118.794 50.688 113.988 49.7505C97.6833 46.5702 81.3903 47.4009 64.8836 47.4246C58.5587 47.4246 51.9964 47.923 45.8257 46.3091C41.0552 45.0513 36.6527 42.2151 33.1876 38.7619C28.6189 34.1932 26.0438 28.8057 24.3588 22.6587C23.623 20.0006 23.0653 17.2357 23.0771 14.4707Z" fill="#010101"/>
<path d="M211.315 71.6811C221.224 70.8742 231.869 74.8851 239.535 81.0202C239.827 81.2576 240.12 81.4949 240.413 81.7322C240.698 81.9775 240.978 82.2227 241.255 82.468C241.54 82.7211 241.817 82.9743 242.086 83.2275C242.363 83.4806 242.636 83.7377 242.905 83.9988C243.174 84.2599 243.439 84.5249 243.7 84.7939C243.961 85.0628 244.218 85.3358 244.471 85.6127C244.724 85.8896 244.973 86.1664 245.219 86.4433C245.472 86.7281 245.717 87.0129 245.954 87.2977C246.2 87.5825 246.437 87.8713 246.666 88.164C246.904 88.4646 247.133 88.7613 247.355 89.054C247.584 89.3546 247.81 89.6553 248.031 89.9559C248.245 90.2644 248.458 90.573 248.672 90.8815C248.886 91.19 249.091 91.5025 249.289 91.819C249.495 92.1354 249.696 92.4519 249.894 92.7683C250.092 93.0848 250.282 93.4052 250.464 93.7295C250.654 94.0539 250.84 94.3822 251.022 94.7145C251.204 95.0388 251.378 95.3671 251.544 95.6994C251.718 96.0396 251.888 96.3758 252.054 96.7081C252.212 97.0482 252.37 97.3884 252.529 97.7286C252.687 98.0688 252.837 98.4129 252.98 98.761C253.13 99.1012 253.272 99.4453 253.407 99.7934C253.549 100.141 253.684 100.494 253.81 100.85C253.945 101.198 254.071 101.55 254.19 101.906C254.309 102.262 254.423 102.618 254.534 102.974C254.645 103.33 254.756 103.69 254.866 104.054C254.969 104.41 255.068 104.77 255.163 105.133C255.25 105.497 255.337 105.861 255.424 106.225C255.511 106.589 255.594 106.953 255.673 107.317C255.745 107.689 255.816 108.057 255.887 108.421C255.95 108.792 256.014 109.164 256.077 109.536C256.132 109.9 256.184 110.268 256.231 110.64C256.286 111.011 256.334 111.383 256.373 111.755C257.584 123.242 253.834 134.693 246.56 143.594C246.33 143.87 246.097 144.143 245.86 144.412C245.622 144.689 245.381 144.962 245.136 145.231C244.89 145.5 244.641 145.765 244.388 146.026C244.135 146.287 243.882 146.544 243.629 146.798C243.368 147.051 243.106 147.3 242.845 147.545C242.576 147.798 242.307 148.044 242.038 148.281C241.769 148.526 241.497 148.767 241.22 149.005C240.943 149.234 240.666 149.464 240.389 149.693C240.104 149.922 239.819 150.148 239.535 150.369C239.25 150.591 238.961 150.808 238.668 151.022C238.376 151.236 238.079 151.449 237.778 151.663C237.478 151.869 237.177 152.07 236.876 152.268C236.576 152.466 236.271 152.664 235.963 152.861C235.654 153.051 235.346 153.237 235.037 153.419C234.721 153.609 234.404 153.791 234.088 153.965C233.771 154.139 233.455 154.313 233.138 154.487C232.814 154.653 232.49 154.819 232.165 154.986C231.841 155.144 231.517 155.298 231.192 155.448C230.86 155.607 230.528 155.757 230.195 155.899C229.863 156.042 229.531 156.184 229.199 156.327C228.858 156.461 228.518 156.592 228.178 156.718C227.846 156.853 227.506 156.979 227.158 157.098C226.817 157.217 226.477 157.331 226.137 157.442C225.789 157.561 225.441 157.671 225.093 157.774C224.745 157.877 224.397 157.976 224.048 158.071C223.7 158.166 223.348 158.257 222.992 158.344C222.644 158.431 222.292 158.514 221.936 158.593C221.58 158.664 221.224 158.735 220.868 158.807C220.512 158.878 220.156 158.945 219.8 159.008C219.444 159.064 219.084 159.119 218.72 159.175C218.364 159.222 218.008 159.269 217.652 159.317C217.288 159.356 216.924 159.396 216.561 159.436C216.22 159.467 215.88 159.495 215.54 159.519C215.2 159.542 214.856 159.562 214.508 159.578C214.167 159.602 213.823 159.618 213.475 159.625C213.135 159.633 212.795 159.637 212.455 159.637C212.107 159.637 211.762 159.633 211.422 159.625C211.074 159.618 210.73 159.602 210.39 159.578C210.042 159.562 209.698 159.542 209.357 159.519C209.017 159.495 208.677 159.467 208.337 159.436C207.989 159.396 207.645 159.356 207.305 159.317C206.964 159.277 206.624 159.23 206.284 159.175C205.944 159.127 205.604 159.072 205.263 159.008C204.931 158.953 204.595 158.89 204.255 158.819C203.915 158.755 203.578 158.684 203.246 158.605C202.914 158.534 202.582 158.455 202.249 158.368C201.909 158.288 201.577 158.201 201.252 158.107C200.92 158.012 200.588 157.917 200.256 157.822C199.931 157.719 199.603 157.612 199.271 157.501C198.946 157.391 198.622 157.28 198.298 157.169C197.973 157.05 197.653 156.928 197.336 156.801C197.012 156.683 196.692 156.556 196.375 156.421C196.059 156.287 195.742 156.149 195.426 156.006C195.117 155.872 194.809 155.729 194.5 155.579C194.184 155.429 193.875 155.278 193.575 155.128C193.266 154.97 192.962 154.812 192.661 154.653C192.352 154.487 192.052 154.321 191.759 154.155C191.458 153.981 191.162 153.807 190.869 153.633C190.568 153.451 190.276 153.269 189.991 153.087C189.698 152.897 189.41 152.707 189.125 152.517C188.84 152.327 188.559 152.134 188.282 151.936C187.997 151.738 187.717 151.536 187.44 151.331C187.171 151.125 186.902 150.915 186.633 150.702C186.356 150.488 186.087 150.271 185.826 150.049C176.819 142.609 170.636 132.296 169.497 120.548C169.177 118.021 169.224 115.351 169.426 112.799C170.126 104.421 173.211 98.0134 178.053 91.3324C179.94 88.7218 182.064 86.1111 184.532 84.0107L192.875 96.1385C187.784 100.79 185.351 106.13 184.675 112.942C188.678 113.005 192.681 113.033 196.684 113.025C197.36 110.189 198.132 107.744 199.888 105.359C201.466 107.91 203.139 110.414 204.682 112.989C204.243 114.959 204.326 116.893 205.192 118.756C205.248 118.891 205.311 119.021 205.382 119.148C205.445 119.275 205.517 119.397 205.596 119.516C205.667 119.642 205.742 119.765 205.821 119.884C205.9 120.002 205.983 120.121 206.07 120.24C206.157 120.351 206.244 120.461 206.331 120.572C206.426 120.683 206.521 120.79 206.616 120.892C206.711 121.003 206.81 121.11 206.913 121.213C207.016 121.308 207.119 121.407 207.221 121.51C207.332 121.604 207.443 121.695 207.554 121.782C207.664 121.877 207.775 121.964 207.886 122.044C208.005 122.131 208.123 122.214 208.242 122.293C208.361 122.372 208.483 122.447 208.61 122.518C208.729 122.597 208.855 122.669 208.99 122.732C209.116 122.795 209.243 122.858 209.369 122.922C209.496 122.985 209.626 123.044 209.761 123.1C209.895 123.147 210.03 123.195 210.164 123.242C212.312 123.978 214.816 123.788 216.845 122.803C216.964 122.748 217.083 122.688 217.201 122.625C217.32 122.562 217.435 122.498 217.546 122.435C217.656 122.364 217.767 122.293 217.878 122.222C217.989 122.142 218.095 122.063 218.198 121.984C218.301 121.905 218.404 121.826 218.507 121.747C218.61 121.66 218.708 121.573 218.803 121.486C218.898 121.391 218.993 121.296 219.088 121.201C219.183 121.106 219.274 121.011 219.361 120.916C219.448 120.813 219.531 120.71 219.61 120.608C219.689 120.505 219.769 120.402 219.848 120.299C219.927 120.188 220.002 120.078 220.073 119.967C220.144 119.856 220.212 119.745 220.275 119.635C220.338 119.516 220.401 119.397 220.465 119.279C220.528 119.168 220.583 119.049 220.631 118.923C220.686 118.804 220.738 118.685 220.785 118.567C220.833 118.44 220.88 118.313 220.928 118.187C221.58 116.158 221.343 113.879 220.358 111.992C219.207 109.773 217.403 108.468 215.042 107.732C213.76 105.881 211.778 102.819 211.197 100.648C210.651 98.6423 211.031 91.724 211.043 89.2439C208.598 89.3507 206.331 90.0508 203.994 90.7272C200.73 86.1941 197.325 80.3676 193.598 76.321C199.366 73.5561 204.931 72.0727 211.315 71.6811Z" fill="#010101"/>
<path d="M185.284 115.588L196.735 115.647C196.889 118.733 197.767 121.64 199.547 124.179C202.407 128.285 206.24 130.137 211.034 131.015C211.058 133.044 211.39 140.805 210.916 142.217L210.536 142.359C207.296 141.968 204.057 141.517 201.031 140.176C194.575 137.328 188.927 131.739 186.375 125.117C185.734 123.479 183.943 117.166 184.726 115.778C184.833 115.576 185.07 115.623 185.284 115.588Z" fill="#FBFAF7"/>
<path d="M228.192 115.717C231.859 115.587 235.549 115.694 239.204 115.777C239.188 116.536 239.141 117.292 239.062 118.043C238.983 118.795 238.876 119.542 238.741 120.286C238.599 121.03 238.425 121.765 238.219 122.493C238.021 123.221 237.792 123.941 237.531 124.653C234.98 131.773 229.604 137.077 222.84 140.281C220.016 141.492 216.859 142.014 213.821 142.287C213.782 138.553 213.758 134.815 213.75 131.073C216.978 130.575 219.671 129.72 222.282 127.691C226.376 124.511 227.61 120.69 228.192 115.717Z" fill="#FBFAF7"/>
<path d="M213.68 88.9941C219.566 89.4213 224.775 91.237 229.403 94.9631C229.569 95.1055 229.735 95.2479 229.902 95.3903C230.068 95.5248 230.234 95.6672 230.4 95.8175C230.558 95.9599 230.716 96.1063 230.875 96.2566C231.033 96.4069 231.191 96.5572 231.349 96.7075C231.5 96.8657 231.65 97.02 231.8 97.1703C231.95 97.3285 232.101 97.4907 232.251 97.6569C232.401 97.8151 232.548 97.9773 232.69 98.1434C232.833 98.3016 232.971 98.4678 233.106 98.6418C233.248 98.8079 233.386 98.9741 233.521 99.1402C233.655 99.3142 233.786 99.4883 233.912 99.6623C234.047 99.8364 234.177 100.014 234.304 100.196C234.431 100.37 234.553 100.548 234.672 100.73C234.791 100.912 234.909 101.094 235.028 101.276C235.147 101.458 235.261 101.644 235.372 101.834C235.491 102.016 235.602 102.202 235.704 102.392C235.815 102.582 235.922 102.771 236.025 102.961C236.128 103.151 236.226 103.345 236.321 103.543C236.424 103.741 236.523 103.934 236.618 104.124C236.705 104.322 236.796 104.52 236.891 104.718C236.978 104.923 237.061 105.125 237.14 105.323C237.227 105.521 237.31 105.722 237.389 105.928C237.469 106.134 237.544 106.339 237.615 106.545C237.686 106.743 237.757 106.949 237.828 107.162C237.9 107.368 237.967 107.573 238.03 107.779C238.094 107.985 238.153 108.195 238.208 108.408C238.264 108.614 238.319 108.823 238.374 109.037C238.43 109.251 238.481 109.464 238.529 109.678C238.576 109.884 238.62 110.093 238.659 110.307C238.707 110.52 238.746 110.738 238.778 110.959C238.817 111.173 238.853 111.387 238.885 111.6C238.916 111.814 238.948 112.027 238.98 112.241C239.003 112.463 239.027 112.68 239.051 112.894C235.356 112.902 231.666 112.941 227.979 113.012C227.196 110.188 226.294 107.649 224.348 105.382C221.452 102.024 218.082 100.517 213.715 100.196L213.68 88.9941Z" fill="#FBFAF7"/>
<path d="M124.844 33.2326L221.463 33.2207C218.021 34.6328 215.233 36.4722 213.192 39.6406C210.735 43.4498 209.81 48.3389 210.818 52.7771C211.756 56.9898 214.521 61.0719 218.187 63.3741C221.961 65.7593 226.316 66.2577 230.612 65.2846C229.188 66.1034 227.705 66.8392 226.055 67.0646C223.717 67.3969 221.308 67.302 218.947 67.302H209.62L177.224 67.2545L154.997 67.1477C153.395 65.961 152.019 64.1929 150.678 62.7214C147.201 58.9122 143.866 54.9962 140.532 51.0564C145.1 50.7597 149.705 50.7241 154.285 50.5343L190.965 49.0272C195.688 48.8017 200.459 48.8017 205.158 48.3745C203.698 47.6744 145.824 47.5557 138.455 47.4608C135.631 45.0874 133.34 42.0733 130.884 39.3439C128.973 37.2079 126.885 35.238 124.844 33.2326Z" fill="#ED1018"/>
<path d="M130.92 0.990362C133.02 0.859828 135.18 0.907298 137.28 0.978498C160.539 1.7261 181.413 12.0976 197.255 28.9721C191.666 28.7229 185.993 28.9009 180.392 28.9009C177.414 26.8836 174.613 24.6408 171.551 22.7302C161.797 16.6544 150.951 13.5335 139.559 12.5604C125.271 11.5755 111.138 15.1948 98.7253 22.2437C95.1771 24.261 91.9019 26.6581 88.4843 28.8535C86.6924 28.9365 84.8412 28.8297 83.0375 28.8178L73.1406 28.7704C73.3621 28.5093 73.5876 28.2562 73.817 28.0109C74.268 27.5046 74.7268 27.0101 75.1936 26.5276C75.6603 26.0371 76.135 25.5545 76.6176 25.0798C77.0922 24.6052 77.5748 24.1344 78.0653 23.6677C78.5558 23.2009 79.0503 22.7421 79.5487 22.2911C80.055 21.8402 80.5613 21.3932 81.0676 20.9502C81.5818 20.5151 82.1 20.0839 82.6221 19.6567C83.1443 19.2295 83.6743 18.8063 84.2123 18.387C84.7423 17.9756 85.2803 17.5682 85.8262 17.1647C86.3641 16.7692 86.91 16.3776 87.4638 15.9899C88.0175 15.5944 88.5753 15.2107 89.137 14.8388C89.6987 14.467 90.2643 14.0991 90.8339 13.7352C91.4035 13.3792 91.9771 13.0272 92.5546 12.6791C93.14 12.331 93.7254 11.9908 94.3109 11.6586C94.8963 11.3263 95.4857 11.0019 96.079 10.6855C96.6803 10.369 97.2815 10.0565 97.8828 9.74801C98.484 9.44739 99.0892 9.15072 99.6984 8.85801C100.308 8.57321 100.921 8.29236 101.538 8.01547C102.155 7.74649 102.776 7.48146 103.401 7.2204C104.026 6.95933 104.655 6.71013 105.288 6.47279C105.913 6.22755 106.545 5.99021 107.186 5.76079C107.819 5.53137 108.456 5.30986 109.097 5.09625C109.738 4.89056 110.382 4.68883 111.031 4.49105C111.672 4.29327 112.317 4.1034 112.965 3.92145C113.622 3.73949 114.275 3.56545 114.923 3.39931C115.58 3.23318 116.237 3.07891 116.893 2.93651C117.558 2.7862 118.218 2.6438 118.875 2.50931C119.54 2.37482 120.204 2.24824 120.869 2.12957C121.533 2.01882 122.198 1.91201 122.862 1.80917C123.535 1.70632 124.203 1.61535 124.868 1.53624C125.54 1.44921 126.213 1.3701 126.885 1.2989C127.557 1.23561 128.23 1.17628 128.902 1.1209C129.575 1.07343 130.247 1.02992 130.92 0.990362Z" fill="#010101"/>
<path d="M173.617 72.0957C177.873 72.1906 182.129 72.2262 186.385 72.2025L157.526 111.754C154.571 115.86 151.723 120.049 148.756 124.155C147.344 126.089 145.991 128.249 144.27 129.934C144.009 130.195 143.736 130.444 143.452 130.682C143.167 130.919 142.874 131.149 142.574 131.37C142.281 131.584 141.976 131.785 141.66 131.975C141.343 132.173 141.019 132.355 140.687 132.521C140.362 132.687 140.026 132.841 139.678 132.984C139.338 133.126 138.994 133.257 138.646 133.375C138.298 133.494 137.942 133.597 137.578 133.684C137.222 133.779 136.862 133.858 136.498 133.921C134.207 134.301 131.585 134.087 129.259 134.087L116.277 134.099L70.7679 134.171C69.51 133.874 59.9811 127.62 58.3672 126.374C68.0742 126.671 77.8524 126.398 87.5712 126.398C100.055 126.41 112.563 126.623 125.046 126.445C129.14 126.386 132.878 125.615 136.165 123.04C138.278 121.402 139.725 119.005 141.292 116.881C143.499 113.938 145.627 110.939 147.676 107.886C153.159 99.8757 158.961 92.0555 164.646 84.1879L170.116 76.5813C171.184 75.1098 172.24 73.496 173.51 72.2144C173.55 72.1748 173.585 72.1353 173.617 72.0957Z" fill="#ED1018"/>
<path d="M93.8757 138.62C95.3472 138.597 97.0916 138.407 98.5156 138.739C100.272 139.154 103.927 141.397 105.885 142.299C109.291 143.865 112.922 145.123 116.529 146.132C132.538 150.618 149.365 148.838 164.352 141.801C166.37 140.851 168.28 139.724 170.214 138.632C172.315 142.014 174.724 145.076 177.346 148.054C173.941 150.404 170.167 152.208 166.417 153.917C160.697 156.432 154.444 158.319 148.261 159.28C147.636 159.375 147.007 159.466 146.374 159.553C145.749 159.64 145.12 159.719 144.487 159.791C143.854 159.862 143.222 159.929 142.589 159.992C141.956 160.048 141.323 160.095 140.69 160.135C140.057 160.182 139.42 160.218 138.779 160.242C138.147 160.273 137.514 160.293 136.881 160.301C136.248 160.317 135.611 160.325 134.97 160.325C134.337 160.325 133.704 160.317 133.072 160.301C132.431 160.285 131.794 160.261 131.161 160.23C130.528 160.198 129.895 160.162 129.262 160.123C128.629 160.075 127.997 160.02 127.364 159.957C126.731 159.901 126.098 159.838 125.465 159.767C124.832 159.688 124.199 159.605 123.566 159.518C122.941 159.431 122.316 159.336 121.691 159.233C121.058 159.13 120.43 159.019 119.805 158.901C119.18 158.782 118.559 158.659 117.941 158.533C117.316 158.398 116.695 158.26 116.078 158.117C115.461 157.967 114.844 157.813 114.227 157.655C113.61 157.496 112.997 157.33 112.388 157.156C111.779 156.982 111.17 156.8 110.56 156.61C109.951 156.42 109.346 156.227 108.745 156.029C108.143 155.823 107.542 155.614 106.941 155.4C106.348 155.178 105.754 154.953 105.161 154.723C104.568 154.494 103.978 154.261 103.393 154.023C102.807 153.778 102.222 153.529 101.637 153.276C101.051 153.015 100.474 152.75 99.904 152.481C99.3265 152.212 98.753 151.935 98.1834 151.65C97.6138 151.365 97.0481 151.076 96.4864 150.784C95.9247 150.491 95.367 150.19 94.8132 149.882C94.2515 149.573 93.6977 149.257 93.1519 148.933C92.606 148.608 92.0641 148.28 91.5261 147.948C90.9802 147.615 90.4423 147.275 89.9122 146.927C87.5626 145.432 85.2249 143.854 83.0414 142.121C81.653 141.029 80.3714 139.795 78.9355 138.763L78.7812 138.656C83.8127 138.775 88.8561 138.656 93.8757 138.62Z" fill="#010101"/>
<path d="M39.1719 113.498L88.8935 113.557L118.821 113.629C124.375 113.629 129.94 113.712 135.482 113.557C134.402 115.017 133.334 116.488 132.148 117.877C132.092 117.932 132.037 117.992 131.982 118.055C130.558 119.503 128.54 120.594 126.511 120.903C124.233 121.247 121.741 121.057 119.438 121.057H106.195L50.7419 121.033C46.7784 118.708 43.1591 115.765 39.1719 113.498Z" fill="#010101"/>
<path d="M254.75 15.0879C254.952 15.8236 254.667 16.951 254.548 17.6986C253.813 22.3622 252.389 26.6817 250.229 30.8825C246.42 38.2992 240.605 44.102 232.915 47.4366C230.293 48.5758 227.575 49.359 224.858 50.2371C230.471 50.9017 235.894 50.427 241.151 48.2198C239.276 53.3106 237.045 57.1555 232.215 59.8848C231.159 60.4188 230.091 60.7867 228.94 60.9884C225.878 61.4987 222.674 60.9291 220.135 59.1135C219.969 58.9948 219.803 58.8722 219.637 58.7456C219.478 58.619 219.32 58.4845 219.162 58.3421C219.012 58.2076 218.861 58.0692 218.711 57.9268C218.561 57.7844 218.418 57.6341 218.284 57.4758C218.141 57.3255 218.003 57.1713 217.868 57.013C217.742 56.8548 217.615 56.6966 217.489 56.5384C217.362 56.3722 217.239 56.2022 217.121 56.0281C217.01 55.862 216.899 55.6879 216.789 55.506C216.686 55.3319 216.583 55.1539 216.48 54.972C216.385 54.79 216.294 54.6081 216.207 54.4261C216.112 54.2362 216.025 54.0464 215.946 53.8565C215.867 53.6666 215.792 53.4728 215.72 53.275C215.657 53.0852 215.594 52.8913 215.531 52.6936C215.467 52.4958 215.412 52.298 215.364 52.1002C215.317 51.8945 215.274 51.6928 215.234 51.495C215.194 51.2893 215.159 51.0836 215.127 50.8779C214.463 46.6771 216.136 41.4914 219.767 39.035C222.14 37.4448 225.202 36.7565 227.896 35.8903C232.785 34.312 237.674 32.6032 241.97 29.7196C249.078 24.9491 250.158 21.401 254.75 15.0879Z" fill="#ED1018"/>
<path d="M189.885 75.6211C191.344 76.962 194.252 81.4358 195.545 83.2514C199.445 88.6468 203.263 94.1015 206.997 99.6156C209.299 103.081 211.423 106.676 213.654 110.189C214.39 111.34 216.348 113.701 216.585 114.936C216.775 115.873 216.585 116.929 216.027 117.712C215.28 118.757 214.093 119.16 212.883 119.35C212.076 119.125 211.364 118.887 210.746 118.306C209.892 117.499 209.702 116.514 209.631 115.398C206.332 111.091 203.65 106.475 200.565 102.036C199.188 100.067 197.515 98.3103 196.103 96.3641C192.531 91.4276 189.208 86.2537 185.969 81.0917C187.084 79.2048 188.378 77.2112 189.885 75.6211Z" fill="#010101"/>
</svg>
