<svg width="256" height="256" viewBox="0 0 256 256" fill="none" xmlns="http://www.w3.org/2000/svg">
<path d="M38.9453 254.908C39.006 254.908 63.2107 251.087 85.8381 248.903C99.0627 253.452 113.258 256 127.999 256C156.329 256 182.475 246.779 203.646 231.189C162.335 212.505 39.006 254.908 38.9453 254.908Z" fill="#424242"/>
<path fill-rule="evenodd" clip-rule="evenodd" d="M219.056 217.903C220.147 231.006 214.991 241.44 214.991 241.44C214.991 241.44 217.357 219.177 194.851 211.594C161.547 200.371 102.218 224.03 67.1544 240.591C27.1772 218.934 0 176.652 0 128C0 57.3269 57.3269 0 128 0C198.673 0 256 57.3269 256 128C256 163.063 241.865 194.79 219.056 217.903ZM182.779 53.4445C182.658 55.143 185.751 58.4795 190.24 54.4151C190.665 54.0511 192.121 53.3231 192.485 53.0198C192.849 52.7772 194.244 52.4132 194.305 52.1099C194.426 51.8065 193.334 51.1999 192.485 51.5032C192.121 51.6246 191.575 51.8066 191.029 51.9885C190.422 52.2312 189.755 51.6852 189.876 51.0179C189.917 50.8966 189.937 50.7955 189.937 50.7146C190.18 50.108 191.696 48.4094 192.303 47.8028C192.97 47.1961 194.608 45.2549 194.305 44.8303C194.123 44.4663 193.82 44.4056 192.91 45.3156C192.06 46.2255 190.24 48.0454 189.816 48.2881C189.391 48.4701 188.906 48.3487 189.27 47.6208C189.634 46.8928 190.604 44.8909 190.847 44.4056C191.029 43.981 191.696 42.7677 191.332 42.5251C191.009 42.2824 190.766 42.2824 190.604 42.5251C190.422 42.7677 189.573 44.4056 189.27 44.9516C189.027 45.4976 188.178 47.4388 187.875 47.4994C187.147 47.7421 187.693 45.9222 187.996 45.1336C188.178 44.5269 188.785 42.5857 188.724 42.4037C188.542 42.1611 188.178 42.0397 187.935 42.4037C187.693 42.8284 187.207 44.2236 187.025 44.7089C186.783 45.4369 186.358 46.8321 186.115 47.2568C185.873 47.6814 185.448 47.6208 185.509 46.7108C185.569 45.8009 185.751 43.4957 185.387 43.1924C184.963 42.889 184.72 43.435 184.72 44.163C184.72 44.9516 182.84 51.9279 182.779 53.4445ZM180.959 87.1127C181.384 90.4491 188.603 95.9088 196.003 86.4454C196.61 85.6567 199.279 83.5942 199.825 82.9875C200.432 82.3202 203.04 81.107 203.101 80.5003C203.222 79.8937 200.857 79.0444 199.34 79.9544C198.673 80.379 197.581 80.925 196.671 81.4709C195.518 82.1382 194.062 81.289 194.062 79.9544C194.062 79.7117 194.082 79.4893 194.123 79.2871C194.305 78.0738 196.671 74.252 197.702 72.8568C198.794 71.4615 201.342 67.0937 200.614 66.3051C200.068 65.6985 199.522 65.6985 198.066 67.761C196.671 69.8843 193.698 74.0094 192.97 74.616C192.242 75.162 191.272 75.1013 191.696 73.5241C192.121 71.9468 193.395 67.7004 193.638 66.7297C193.88 65.7591 194.73 63.2719 194.002 62.908C193.274 62.544 192.788 62.6046 192.546 63.1506C192.242 63.6359 191.15 67.2151 190.786 68.3677C190.483 69.5203 189.452 73.5847 188.967 73.8274C187.571 74.4947 188.117 70.7335 188.299 69.0956C188.481 67.8217 189.027 63.8786 188.785 63.5752C188.421 63.0899 187.632 62.9686 187.329 63.8179C186.965 64.6672 186.479 67.579 186.297 68.671C186.115 70.0662 185.751 73.0387 185.448 73.9487C185.145 74.798 184.235 74.798 184.053 73.0387C183.871 71.2795 183.385 66.6691 182.536 66.2444C181.748 65.7591 181.323 66.8511 181.626 68.3677C181.869 69.8843 180.656 84.1402 180.959 87.1127ZM159.241 45.3762C157.968 45.6795 157.725 51.9885 157.907 54.1724C158.028 56.2956 157.968 61.9373 157.361 63.3326C157.24 63.5752 157.098 63.8179 156.936 64.0606C156.087 65.3952 154.024 65.3345 153.236 63.8786C152.629 62.726 151.901 61.3914 151.477 60.4814C150.445 58.5402 147.412 57.8122 147.109 58.5402C146.805 59.2681 148.747 62.3013 148.868 63.3326C149.05 64.3639 150.445 68.2463 150.567 69.5809C151.962 84.3828 163.185 83.4728 165.854 80.2577C168.22 77.4065 176.47 61.6947 177.744 60.2994C179.018 58.9042 179.382 57.5089 178.168 57.3876C177.016 57.3269 173.437 61.816 172.041 63.5146C170.646 65.2738 169.736 64.6672 169.979 63.5146C170.282 62.362 171.92 59.0255 172.648 57.4483C173.194 56.1743 174.589 52.8378 174.832 51.7459C175.075 50.5933 174.104 50.1686 173.437 50.4113C172.951 50.5933 170.889 55.0824 170.222 56.5383C169.372 58.4189 167.431 62.726 166.4 61.0274C166.036 60.4208 167.734 55.5677 168.159 54.1118C168.584 52.6558 169.797 48.2274 169.858 47.4994C169.918 46.7715 169.433 46.3469 168.462 46.2255C167.431 46.1042 166.642 49.3194 166.278 50.472C165.914 51.6852 164.337 56.9629 163.731 58.9042C163.185 60.8454 162.032 60.2388 161.668 59.1468C161.304 58.1155 161.001 51.7459 160.94 48.5914C160.819 45.4976 160.273 45.0729 159.241 45.3762ZM167.552 109.801C167.977 109.558 169.433 109.194 170.1 108.951C170.646 108.769 172.041 108.345 172.405 108.102C172.83 107.86 172.709 107.496 172.466 107.314C172.284 107.253 170.343 107.799 169.736 107.981C168.948 108.224 167.067 108.769 167.31 108.042C167.431 107.738 169.372 106.95 169.918 106.707C170.464 106.464 172.163 105.615 172.405 105.433C172.648 105.271 172.648 105.029 172.405 104.705C172.163 104.341 170.949 104.948 170.525 105.19C170.04 105.372 168.038 106.282 167.249 106.646C166.521 107.01 166.4 106.464 166.642 106.1C166.885 105.676 168.705 103.916 169.676 103.006C170.586 102.157 170.525 101.915 170.222 101.672C169.736 101.369 167.734 102.946 167.128 103.613C166.521 104.22 164.822 105.676 164.216 105.858C164.095 105.898 163.973 105.918 163.852 105.918C163.245 106.04 162.699 105.372 162.942 104.766C163.124 104.28 163.367 103.674 163.488 103.31C163.791 102.46 163.245 101.369 162.942 101.49C162.639 101.551 162.214 102.946 161.911 103.31C161.668 103.613 160.879 105.13 160.515 105.494C156.33 109.861 159.605 113.077 161.304 113.016C162.821 112.955 169.797 111.257 170.586 111.317C171.374 111.317 171.859 111.014 171.617 110.65C171.313 110.286 168.948 110.407 168.098 110.407C167.188 110.468 167.128 109.983 167.552 109.801ZM146.927 30.9383C147.291 31.6056 148.929 38.6426 149.535 39.9772C150.263 41.5544 154.57 43.0104 156.633 37.3687C156.815 36.8834 157.786 35.4881 157.968 35.0635C158.15 34.6995 159.181 33.7289 159.181 33.3649C159.12 33.0616 157.846 33.0616 157.24 33.7289C156.997 34.0322 156.572 34.4568 156.208 34.8815C155.723 35.3668 154.934 35.1848 154.752 34.5175C154.712 34.4366 154.671 34.3355 154.631 34.2142C154.57 33.6075 155.116 31.363 155.359 30.5744C155.662 29.7251 156.208 27.2379 155.784 26.9345C155.42 26.7526 155.116 26.8739 154.752 28.0872C154.388 29.3004 153.66 31.727 153.357 32.1516C153.114 32.5156 152.629 32.6369 152.568 31.7876C152.568 30.999 152.508 28.7545 152.447 28.2692C152.447 27.7232 152.447 26.3886 152.083 26.3279C151.679 26.2875 151.436 26.4088 151.355 26.6919C151.355 26.9952 151.355 28.8758 151.355 29.4824C151.355 30.0891 151.537 32.1516 151.355 32.3943C150.749 32.9402 150.445 31.0597 150.263 30.2104C150.203 29.6037 149.839 27.6019 149.657 27.4805C149.414 27.2985 148.989 27.3592 148.989 27.8445C148.989 28.3298 149.171 29.7857 149.293 30.3317C149.353 30.999 149.657 32.5156 149.657 33.0009C149.657 33.4255 149.232 33.6075 148.868 32.7582C148.504 31.9696 147.533 29.7857 147.109 29.7251C146.623 29.6644 146.623 30.2104 146.927 30.9383ZM140.557 164.398C142.923 150.142 159.969 142.923 166.339 140.739C167.795 140.193 168.766 138.859 168.766 137.281C168.766 134.551 165.793 132.792 163.367 134.187L141.406 146.684C142.62 131.154 155.359 102.46 160.879 90.6918C162.032 88.2653 160.212 85.4141 157.543 85.4141C156.026 85.4141 154.692 86.324 154.085 87.6586L134.612 133.217L128.728 92.997C128.546 91.6017 127.332 90.5098 125.877 90.5098C123.996 90.5098 122.661 92.269 123.086 94.0889C127.332 112.288 124.967 145.046 124.967 145.046L102.764 129.334C101.065 128.121 98.6994 128.485 97.4254 130.184C96.1515 132.064 96.6975 134.612 98.6387 135.704C105.676 139.829 120.174 150.385 120.174 167.856C120.174 183.507 111.56 207.712 105.979 221.664C119.143 216.083 132.61 211.533 144.986 209.531C140.982 199.643 137.342 184.235 140.557 164.398ZM125.391 38.7639C126.059 39.7345 129.516 50.2293 130.73 52.2312C132.004 54.4151 138.859 56.1137 141.103 47.1355C141.346 46.3469 142.62 44.1023 142.802 43.4957C142.984 42.8284 144.44 41.1905 144.318 40.7052C144.258 40.2198 142.316 40.4018 141.528 41.4938C141.164 41.9791 140.557 42.707 140.072 43.3743C139.465 44.2236 138.191 44.0416 137.767 43.1317C137.686 42.9699 137.625 42.8081 137.585 42.6464C137.342 41.7364 137.888 38.2786 138.191 36.944C138.495 35.6701 138.98 31.7876 138.191 31.4236C137.585 31.181 137.221 31.363 136.857 33.2435C136.493 35.1848 135.704 39.0672 135.34 39.6739C135.037 40.2805 134.309 40.5232 134.127 39.3099C133.945 38.036 133.52 34.6388 133.399 33.9108C133.278 33.1222 133.096 31.1203 132.489 31.0597C131.882 31.0597 131.518 31.2417 131.518 31.6663C131.458 32.1516 131.761 35.0028 131.882 35.9127C132.004 36.8227 132.55 40.0378 132.307 40.3412C131.518 41.2511 130.73 38.4606 130.366 37.1867C130.123 36.2767 129.274 33.3042 128.97 33.1222C128.606 32.9402 128 33.1222 128 33.7895C128.06 34.5175 128.606 36.7014 128.788 37.49C129.092 38.5819 129.759 40.7658 129.82 41.4938C129.88 42.2217 129.213 42.5251 128.546 41.3118C127.878 40.1592 126.119 37.0047 125.391 36.944C124.663 36.8833 124.724 37.7933 125.391 38.7639ZM112.834 65.2132C113.744 66.6691 118.9 81.9563 120.599 84.8681C122.54 88.1439 132.489 90.5705 135.825 77.4672C136.129 76.3146 137.949 73.0387 138.252 72.1288C138.555 71.2188 140.678 68.7923 140.557 68.0644C140.375 67.3364 137.585 67.6397 136.371 69.217C135.825 69.9449 135.037 71.0369 134.248 72.0075C133.399 73.1601 131.518 72.9781 130.912 71.5828C130.831 71.3402 130.75 71.1177 130.669 70.9155C130.305 69.5203 131.033 64.4852 131.518 62.6046C131.943 60.6634 132.671 55.0217 131.579 54.5364C130.669 54.1118 130.123 54.4151 129.577 57.2056C129.031 59.9961 127.878 65.6378 127.393 66.5478C126.908 67.4577 125.816 67.8217 125.573 66.0018C125.331 64.1819 124.663 59.2075 124.481 58.1155C124.36 56.9629 124.117 53.9904 123.207 53.9904C122.297 53.9298 121.812 54.2331 121.751 54.9004C121.691 55.5677 122.176 59.6928 122.297 61.0881C122.479 62.4227 123.329 67.0331 122.904 67.5184C121.751 68.9136 120.599 64.7885 120.114 62.9686C119.689 61.5734 118.476 57.2663 118.112 57.0236C117.505 56.6596 116.656 56.9629 116.656 57.9942C116.716 59.0255 117.505 62.18 117.808 63.3933C118.233 64.9705 119.204 68.1857 119.325 69.217C119.386 70.3089 118.476 70.6729 117.444 68.9743C116.474 67.2151 113.926 62.6653 112.834 62.6046C111.803 62.4833 111.863 63.8179 112.834 65.2132ZM107.617 97.2434C107.415 97.0412 107.253 96.8592 107.132 96.6975C106.222 95.6055 104.766 90.5705 104.402 88.6292C104.038 86.688 102.339 81.107 101.126 81.107C100.155 81.1676 99.7306 81.5923 100.398 84.4435C101.065 87.234 102.339 92.997 102.218 94.0283C102.157 95.0596 101.308 95.8482 100.337 94.2709C99.3667 92.6937 96.6975 88.3259 96.0908 87.3553C95.4842 86.3847 94.0283 83.7762 93.1183 84.0795C92.269 84.4435 91.9657 84.9288 92.2084 85.5354C92.3904 86.142 94.5743 89.8425 95.3022 91.0558C95.9695 92.2084 98.6387 96.2122 98.5174 96.8188C97.9714 98.5174 95.1809 95.1809 93.9676 93.725C93.0577 92.5724 90.1458 89.0539 89.6605 89.0539C88.9932 88.9325 88.2653 89.5392 88.7506 90.5098C89.2359 91.4198 91.2984 94.089 92.087 95.0596C93.1183 96.3335 95.3629 98.8814 95.8482 99.852C96.3942 100.823 95.6662 101.611 94.0283 100.398C92.3904 99.1847 88.1439 96.0302 87.1127 96.3942C86.0814 96.7581 86.688 97.9107 88.2046 98.8207C89.6605 99.7913 100.762 111.803 103.552 113.805C106.707 116.049 116.898 114.169 114.593 100.641C114.411 99.4273 114.775 95.6662 114.654 94.6956C114.533 93.725 115.503 90.5705 115.078 89.9638C114.654 89.4179 112.106 90.8131 111.681 92.7543C111.499 93.6643 111.196 94.9989 110.893 96.2122C110.529 97.6681 108.769 98.2747 107.617 97.2434ZM82.4416 53.2018C82.6236 53.9904 85.7781 55.5677 86.506 56.3563C87.1733 57.1449 90.4491 59.6928 91.2378 60.7241C100.216 72.6141 109.315 65.8805 109.861 61.7553C110.347 58.0549 109.012 40.4018 109.376 38.5213C109.74 36.6407 109.255 35.3061 108.224 35.7914C107.192 36.3374 106.525 42.1004 106.282 44.2843C105.979 46.4682 104.887 46.4682 104.523 45.3156C104.098 44.2236 103.795 40.5232 103.492 38.7639C103.31 37.4293 102.764 33.8502 102.339 32.7582C101.975 31.727 100.944 31.8483 100.519 32.3943C100.216 32.8189 100.823 37.7326 101.005 39.3099C101.308 41.3118 101.854 46.0435 100.155 45.1336C99.488 44.8303 98.396 39.7952 97.9714 38.3393C97.5468 36.8834 96.2122 32.4549 95.9089 31.7876C95.6055 31.1203 94.9382 31.0597 94.0283 31.4843C93.1183 31.9089 94.1496 35.0634 94.4529 36.2161C94.7563 37.4293 96.2122 42.7677 96.7581 44.7089C97.3041 46.6502 96.0302 46.7715 95.1809 46.0435C94.2709 45.3156 90.6918 40.0985 88.9326 37.49C87.1733 34.8815 86.506 34.8815 85.7781 35.6094C84.8681 36.58 88.0226 42.0397 89.2965 43.799C90.5705 45.4976 93.4823 50.3506 93.6643 51.8672C93.7047 52.1099 93.725 52.393 93.725 52.7165C93.6643 54.3544 91.9051 55.325 90.5098 54.5364C89.2965 53.8691 88.0226 53.0805 87.1733 52.5952C85.2928 51.5032 82.3202 52.4132 82.4416 53.2018ZM66.9117 63.9999C67.4577 64.8492 70.5515 74.0094 71.5828 75.7686C72.7354 77.7705 78.7411 79.1658 80.743 71.3402C80.925 70.6729 82.0169 68.671 82.1989 68.125C82.3809 67.579 83.6548 66.1231 83.5335 65.6985C83.4729 65.2738 81.7743 65.3952 81.0463 66.3658C80.743 66.7904 80.2577 67.4577 79.7724 68.0644C79.2871 68.7923 78.1345 68.6103 77.7705 67.8217C77.7301 67.6599 77.6896 67.5184 77.6492 67.3971C77.4065 66.6084 77.8918 63.5146 78.1345 62.4226C78.4378 61.27 78.8018 57.8729 78.1345 57.5696C77.6492 57.3269 77.2852 57.5089 76.9819 59.1468C76.6785 60.8454 75.9506 64.2425 75.6473 64.7885C75.344 65.3345 74.7373 65.5771 74.5553 64.4852C74.434 63.3933 74.0094 60.3601 73.9487 59.6928C73.8274 59.0255 73.706 57.2663 73.1601 57.2663C72.5939 57.2258 72.2906 57.4078 72.2501 57.8122C72.2501 58.1762 72.5534 60.6634 72.6141 61.5127C72.7354 62.3013 73.2207 65.0918 72.9781 65.3951C72.2501 66.1838 71.5828 63.6966 71.2795 62.6046C71.0369 61.816 70.3089 59.2075 70.0662 59.0862C69.7629 58.8435 69.217 59.0255 69.217 59.6321C69.2776 60.2388 69.7629 62.18 69.9449 62.908C70.1876 63.8179 70.7942 65.7591 70.7942 66.3658C70.8549 67.0331 70.3089 67.2757 69.7023 66.2444C69.0956 65.2132 67.579 62.4833 66.9117 62.4226C66.3051 62.362 66.3658 63.1506 66.9117 63.9999ZM50.7753 68.489C51.5032 68.7923 56.9023 73.524 58.2369 74.252C59.6928 75.1013 64.1212 73.7667 62.4226 67.943C62.3013 67.4577 62.2407 65.7591 62.1193 65.3345C62.0587 64.9099 62.3013 63.5146 62.1193 63.2719C61.8767 63.0293 60.8454 63.7572 60.7241 64.6672C60.7241 65.0312 60.6634 65.6378 60.6027 66.1838C60.4814 66.8511 59.7535 67.2151 59.2075 66.7904C59.1266 66.75 59.0457 66.6893 58.9648 66.6084C58.4795 66.1838 57.6302 64.0606 57.3876 63.2113C57.1449 62.362 56.1137 59.9961 55.5677 60.0568C55.143 60.1174 54.961 60.3601 55.3857 61.5734C55.8103 62.7866 56.6596 65.2132 56.6596 65.6378C56.7203 66.1231 56.3563 66.4871 55.871 65.8805C55.3857 65.2132 53.9904 63.4539 53.6264 63.0899C53.3231 62.6653 52.5952 61.5734 52.2312 61.7553C51.8672 61.9576 51.7459 62.2002 51.8672 62.4833C51.9885 62.726 53.1412 64.2426 53.5051 64.7279C53.8691 65.2132 55.2037 66.7904 55.2037 67.0937C55.0217 67.8217 53.6871 66.5478 53.0805 65.9411C52.5952 65.5165 51.1393 64.1212 50.9573 64.1212C50.6539 64.1212 50.3506 64.4245 50.5933 64.7885C50.8359 65.2132 51.8672 66.2444 52.2919 66.6084C52.7772 67.1544 53.9298 68.125 54.1724 68.5497C54.4757 68.9136 54.1724 69.2776 53.4445 68.853C52.6558 68.4283 50.5933 67.2151 50.1686 67.4577C49.744 67.6397 50.108 68.125 50.7753 68.489ZM46.6502 115.685C48.3487 115.564 51.3213 112.106 46.8322 108.102C46.4075 107.738 45.4976 106.343 45.1942 106.04C44.8909 105.736 44.345 104.402 44.0416 104.341C43.7383 104.22 43.253 105.372 43.617 106.222C43.799 106.586 44.1023 107.132 44.2843 107.617C44.5876 108.224 44.1023 108.891 43.4957 108.83C43.3743 108.83 43.253 108.83 43.1317 108.83C42.5251 108.648 40.6445 107.374 39.9772 106.768C39.3705 106.222 37.2473 104.766 36.8227 105.13C36.4587 105.372 36.4587 105.676 37.49 106.464C38.4606 107.253 40.4625 108.83 40.7052 109.194C41.0085 109.619 40.9478 110.104 40.1592 109.861C39.3706 109.558 37.2473 108.83 36.762 108.648C36.3374 108.466 35.0634 107.981 34.8815 108.345C34.6792 108.668 34.6995 108.911 34.9421 109.073C35.1848 109.255 36.944 109.922 37.49 110.104C38.0966 110.347 40.0985 110.953 40.2198 111.196C40.5231 111.924 38.6426 111.56 37.7933 111.378C37.1867 111.257 35.1848 110.832 35.0634 110.953C34.8208 111.135 34.6995 111.56 35.1241 111.742C35.5488 111.924 37.0047 112.227 37.5506 112.409C38.2179 112.531 39.6739 112.773 40.1592 113.016C40.5838 113.198 40.5838 113.623 39.6739 113.683C38.7639 113.683 36.4587 113.805 36.1554 114.169C35.9127 114.593 36.4587 114.836 37.2473 114.775C37.9753 114.654 45.1336 115.746 46.6502 115.685ZM61.5734 124.36C58.6009 124.178 44.7696 126.241 43.3137 126.059C41.7971 125.877 40.7658 126.301 41.2511 127.151C41.7364 127.939 46.2862 128.121 47.9848 128.182C49.744 128.242 49.8047 129.152 48.9554 129.516C48.1061 129.88 45.1942 130.366 43.8596 130.669C42.7677 130.912 40.0379 131.518 39.1886 131.882C38.3999 132.307 38.5213 133.096 39.0066 133.399C39.3705 133.581 43.1924 132.853 44.4056 132.61C45.9829 132.246 49.6227 131.518 49.016 132.974C48.834 133.46 44.9516 134.673 43.799 135.037C42.707 135.461 39.3099 136.735 38.8246 137.039C38.2786 137.342 38.2786 137.827 38.6426 138.495C39.0672 139.223 41.4331 138.252 42.3431 137.888C43.3137 137.585 47.4388 136.129 48.8947 135.643C50.4113 135.097 50.5326 136.068 50.0473 136.796C49.562 137.585 45.6189 140.678 43.6777 142.195C41.7364 143.712 41.7364 144.258 42.3431 144.804C43.1923 145.471 47.3175 142.68 48.5914 141.588C49.8653 140.496 53.5051 137.888 54.7184 137.645C54.9206 137.605 55.1228 137.585 55.325 137.585C56.6596 137.524 57.5089 138.859 56.9629 140.011C56.4776 140.982 55.9923 142.013 55.6284 142.741C54.9004 144.258 55.8103 146.563 56.417 146.381C57.0236 146.259 58.0549 143.651 58.6615 143.044C59.2075 142.438 61.0274 139.768 61.816 139.041C70.6122 131.336 64.8492 124.542 61.5734 124.36ZM69.9449 97.0008C70.1876 96.2728 71.9468 94.2709 71.7648 93.725C71.6435 93.1183 69.3383 93.361 68.3677 94.6349C67.943 95.2416 67.2757 96.0908 66.6691 96.8795C65.9411 97.8501 64.4245 97.6681 63.9392 96.5762C63.8583 96.3739 63.7977 96.1919 63.7572 96.0302C63.4539 94.9382 64.0606 90.8131 64.4245 89.2359C64.7885 87.7193 65.3951 83.0482 64.4852 82.6842C63.7572 82.3809 63.2719 82.5629 62.8473 84.8681C62.4227 87.1127 61.452 91.7231 61.0881 92.451C60.6634 93.179 59.8141 93.4823 59.5715 92.0264C59.3895 90.5705 58.8435 86.506 58.7222 85.5961C58.6008 84.6861 58.4189 82.2596 57.6302 82.1989C56.9023 82.1989 56.5383 82.4416 56.4776 82.9875C56.417 83.5335 56.8416 86.87 56.9629 88.0226C57.0843 89.1146 57.7516 92.8757 57.4483 93.3003C56.4776 94.3923 55.5677 90.9951 55.143 89.5392C54.8397 88.4473 53.8085 84.8681 53.5051 84.6861C53.0198 84.4435 52.2919 84.6255 52.3525 85.4747C52.4132 86.324 53.0198 88.9326 53.2625 89.9032C53.6264 91.1771 54.4151 93.7856 54.4757 94.6349C54.5364 95.5449 53.8084 95.8482 52.9591 94.4529C52.1705 93.0577 50.108 89.2965 49.2587 89.2359C48.3487 89.1752 48.4094 90.2065 49.198 91.4198C49.9867 92.5724 54.1724 105.008 55.5677 107.374C57.0843 110.043 65.2132 112.045 67.943 101.369C68.1857 100.398 69.7022 97.7287 69.9449 97.0008ZM73.888 124.603C75.2833 124.785 87.5373 129.456 90.2671 129.88C93.3003 130.366 99.9733 125.391 93.4823 116.474C92.8757 115.685 91.7837 112.834 91.3591 112.167C90.9345 111.499 90.5098 108.891 90.0245 108.648C89.4785 108.406 88.1439 110.286 88.5686 111.863C88.7506 112.591 88.9932 113.623 89.2359 114.593C89.4785 115.806 88.3866 116.838 87.234 116.534C87.0318 116.454 86.8498 116.373 86.688 116.292C85.6567 115.867 82.8056 112.773 81.8956 111.499C80.925 110.225 77.7098 106.828 76.7999 107.253C76.1326 107.617 76.0113 108.102 77.4672 109.922C78.9838 111.681 81.8956 115.321 82.2596 116.11C82.5629 116.898 82.1989 117.748 80.9856 117.02C79.7117 116.231 76.1932 114.047 75.4046 113.562C74.616 113.077 72.6748 111.742 72.1288 112.288C71.6435 112.834 71.5828 113.259 71.9468 113.623C72.3714 113.987 75.2226 115.867 76.1326 116.474C77.1032 117.08 80.4397 118.961 80.5003 119.446C80.8037 120.902 77.5885 119.507 76.1932 118.84C75.162 118.354 71.7648 116.898 71.4615 117.02C70.9155 117.202 70.6122 117.93 71.2795 118.415C71.9468 118.961 74.3733 120.053 75.2833 120.538C76.4966 121.084 79.0444 122.115 79.7117 122.601C80.4397 123.086 80.197 123.875 78.6198 123.632C77.0425 123.329 72.7961 122.601 72.1895 123.207C71.5828 123.875 72.4928 124.481 73.888 124.603ZM99.306 142.377C96.3942 142.195 82.5629 144.258 81.0463 144.076C79.5904 143.954 78.5591 144.379 79.0444 145.168C79.5297 145.956 84.0188 146.138 85.7781 146.199C87.4766 146.32 87.5373 147.169 86.688 147.533C85.8387 147.897 82.9875 148.383 81.5923 148.686C80.561 148.929 77.7705 149.535 76.9819 149.96C76.1326 150.324 76.3146 151.113 76.7999 151.416C77.1032 151.598 80.925 150.87 82.1383 150.627C83.7762 150.324 87.416 149.596 86.8093 150.991C86.5667 151.477 82.6842 152.69 81.5923 153.114C80.4397 153.478 77.0425 154.813 76.5572 155.056C76.0719 155.359 76.0113 155.844 76.4359 156.572C76.7999 157.24 79.2264 156.269 80.1364 155.966C81.0463 155.662 85.1714 154.206 86.688 153.66C88.2046 153.114 88.3259 154.085 87.78 154.874C87.2947 155.602 83.4122 158.695 81.4103 160.212C79.4691 161.729 79.4691 162.275 80.1364 162.821C80.925 163.488 85.0501 160.697 86.3847 159.605C87.6586 158.513 91.2984 155.905 92.451 155.662C92.6532 155.622 92.8757 155.602 93.1183 155.602C94.3923 155.541 95.3022 156.876 94.7563 158.028C94.2709 158.999 93.725 160.03 93.4216 160.758C92.633 162.335 93.543 164.58 94.1496 164.398C94.7563 164.277 95.7875 161.668 96.3942 161.061C97.0008 160.515 98.8207 157.786 99.5487 157.118C108.406 149.353 102.582 142.559 99.306 142.377ZM143.651 93.2397C143.651 93.6643 143.53 94.2709 143.469 94.8169C143.408 95.4235 142.68 95.7875 142.134 95.4235C142.013 95.3426 141.932 95.2618 141.892 95.1809C141.406 94.7562 140.557 92.633 140.314 91.7837C140.011 90.9344 138.98 88.6292 138.495 88.6899C138.07 88.7506 137.888 88.9326 138.313 90.1458C138.737 91.3591 139.586 93.7856 139.586 94.2709C139.647 94.6956 139.283 95.1202 138.798 94.4529C138.252 93.8463 136.917 92.0264 136.553 91.6624C136.25 91.2984 135.461 90.2065 135.158 90.3885C134.794 90.5502 134.673 90.7727 134.794 91.0558C134.915 91.2984 136.007 92.815 136.432 93.3003C136.796 93.7856 138.131 95.3629 138.07 95.6662C137.949 96.4548 136.553 95.1202 136.007 94.5136C135.522 94.0889 134.066 92.6937 133.884 92.6937C133.581 92.6937 133.278 92.997 133.52 93.4216C133.763 93.7856 134.794 94.8169 135.219 95.2416C135.704 95.7269 136.857 96.7581 137.099 97.1221C137.403 97.5468 137.099 97.9107 136.311 97.4254C135.583 97.0008 133.52 95.8482 133.096 96.0302C132.671 96.2728 133.035 96.7581 133.702 97.0615C134.369 97.4254 139.829 102.097 141.164 102.824C142.62 103.674 147.048 102.339 145.35 96.5155C145.168 96.0302 145.168 94.3316 145.046 93.9069C144.986 93.4823 145.228 92.087 144.986 91.8444C144.804 91.6017 143.772 92.3297 143.651 93.2397ZM181.141 158.453C181.141 157.543 176.955 156.451 175.56 156.269C174.104 156.087 170.404 155.177 169.554 154.57C169.392 154.449 169.251 154.328 169.13 154.206C168.341 153.418 168.705 152.083 169.797 151.78C170.646 151.537 171.617 151.234 172.284 151.052C173.74 150.688 174.65 148.807 174.225 148.504C173.801 148.201 171.495 148.989 170.767 148.989C170.1 148.929 167.31 149.293 166.4 149.171C156.39 147.897 155.359 155.48 157.118 157.664C158.635 159.666 167.795 167.431 168.523 168.523C169.312 169.554 170.161 169.979 170.404 169.19C170.646 168.462 168.159 165.429 167.249 164.277C166.339 163.063 166.824 162.578 167.552 162.881C168.28 163.245 170.222 164.822 171.192 165.55C171.981 166.096 173.922 167.492 174.65 167.856C175.378 168.159 175.803 167.613 175.681 167.128C175.681 166.764 173.012 164.701 172.163 164.095C171.01 163.245 168.462 161.304 169.736 160.879C170.161 160.758 173.194 162.578 174.043 163.063C174.953 163.549 177.744 165.004 178.168 165.186C178.654 165.308 179.018 165.065 179.2 164.398C179.442 163.791 177.44 162.76 176.713 162.335C175.985 161.971 172.709 160.091 171.556 159.423C170.343 158.756 170.889 158.15 171.677 158.028C172.405 157.968 176.652 158.695 178.775 159.12C180.838 159.484 181.202 159.181 181.141 158.453ZM206.377 124.299C203.04 124.906 196.185 126.119 194.912 125.937C193.698 125.755 192.849 124.724 194.73 123.693C196.671 122.601 202.009 119.689 203.162 119.022C204.375 118.354 207.59 116.777 207.226 115.746C206.862 114.714 206.316 114.29 205.588 114.533C204.8 114.775 200.311 117.08 198.855 117.869C197.459 118.658 192.606 121.569 191.878 121.327C189.816 120.599 194.002 117.505 195.761 116.17C197.156 115.139 201.524 111.863 201.584 111.378C201.706 110.529 201.039 109.679 199.886 110.165C198.733 110.65 195.518 112.955 194.305 113.805C192.728 114.957 189.573 117.444 188.421 118.051C187.207 118.597 186.358 117.687 187.875 115.867C189.391 113.987 193.395 109.133 193.031 107.86C192.667 106.646 191.272 107.314 190.058 109.012C188.845 110.711 173.922 123.147 171.374 126.301C168.584 129.88 170.222 142.134 186.358 140.193C187.814 140.011 192.242 140.678 193.456 140.557C194.608 140.496 198.248 141.831 198.976 141.346C199.704 140.86 198.187 137.827 195.821 137.221C194.79 136.917 193.274 136.432 191.818 136.068C190.119 135.583 189.512 133.399 190.786 132.125C191.029 131.882 191.251 131.68 191.454 131.518C192.849 130.548 198.855 129.152 201.16 128.849C203.526 128.546 210.199 126.847 210.259 125.391C210.32 124.239 209.774 123.693 206.377 124.299ZM216.872 99.67C216.811 99.124 215.052 99.0634 214.384 99.0027C213.778 98.8814 210.805 98.6387 209.713 98.5174C208.621 98.396 208.803 97.7894 209.349 97.4254C209.895 97.1221 213.171 96.3335 214.809 95.9695C216.508 95.5449 216.629 95.2416 216.386 94.6956C216.083 94.0889 212.686 94.6349 211.594 94.9382C210.502 95.2416 207.469 95.7875 206.68 95.6055C206.559 95.5651 206.417 95.5246 206.256 95.4842C205.467 95.1202 205.285 94.0283 205.952 93.4823C206.498 92.997 207.166 92.5117 207.53 92.2084C208.5 91.4198 208.561 89.7818 208.136 89.7212C207.711 89.5998 206.316 90.9345 205.77 91.1164C205.285 91.2984 203.344 92.5117 202.676 92.6937C194.972 94.9989 196.671 100.823 198.612 101.854C200.371 102.824 209.531 105.554 210.441 106.04C211.291 106.586 212.079 106.646 212.019 105.979C211.958 105.372 209.167 103.916 208.136 103.37C207.044 102.824 207.287 102.279 207.954 102.279C208.561 102.339 210.502 102.824 211.412 103.067C212.14 103.188 214.021 103.613 214.688 103.613C215.294 103.613 215.416 103.067 215.173 102.764C215.052 102.521 212.443 101.915 211.655 101.672C210.563 101.429 208.075 100.823 208.864 100.155C209.107 99.9126 211.897 100.277 212.686 100.337C213.535 100.398 215.962 100.58 216.386 100.519C216.75 100.479 216.912 100.196 216.872 99.67Z" fill="url(#paint0_radial_40_92)"/>
<defs>
<radialGradient id="paint0_radial_40_92" cx="0" cy="0" r="1" gradientUnits="userSpaceOnUse" gradientTransform="translate(227.943 -9.11288) rotate(122.18) scale(436.008 436.008)">
<stop stop-color="#8DC63F"/>
<stop offset="1" stop-color="#52853F"/>
</radialGradient>
</defs>
</svg>
