<svg width="221" height="257" viewBox="0 0 221 257" fill="none" xmlns="http://www.w3.org/2000/svg">
<path fill-rule="evenodd" clip-rule="evenodd" d="M201.054 49.155C199.612 50.8262 198.077 52.4346 196.448 53.9805L108.242 13.6221C106.487 16.8808 105.14 20.2649 104.106 23.7743L192.343 64.1641C193.722 64.7907 194.317 66.4201 193.69 67.7988C193.064 69.1775 191.434 69.7729 190.055 69.1462L181.971 65.4488C168.842 74.2223 153.144 81.6172 137.069 89.2941L105.547 74.8803C106.519 79.3298 107.647 83.8419 108.806 88.4167L132.557 99.2897C133.936 99.9163 134.563 101.546 133.936 102.924C133.278 104.303 131.68 104.898 130.301 104.272L117.924 98.6316C114.812 100.198 111.731 101.807 108.681 103.457C104.388 87.9154 100.314 72.781 98.4657 58.4612L90.7575 54.9518C89.3788 54.3251 88.7521 52.6958 89.4101 51.3171C90.0368 49.9384 91.6662 49.343 93.0449 49.9697L152.705 77.2617C156.904 75.1624 161.04 73.0316 165.051 70.8382L97.463 39.9428C97.9644 26.8137 101.411 14.6874 109.683 3.9398C75.7484 37.6554 82.454 67.9868 93.9223 112.105C63.1834 131.658 39.2755 158.731 41.1869 207.831C41.1869 207.831 42.2209 202.567 44.947 194.577L97.933 218.829C99.0611 215.508 100.126 211.936 101.066 208.176L48.8951 184.331C54.0025 172.455 62.1181 157.979 74.4951 145.602L100.722 157.603C99.7818 152.996 98.8104 148.547 97.8077 144.223L76.7825 134.603C75.4038 133.977 74.8084 132.347 75.4351 130.968C76.0618 129.59 77.6912 128.963 79.0699 129.621L88.5641 133.945C89.9637 133.005 91.4051 132.097 92.8882 131.219C94.6221 130.175 96.3454 129.162 98.0584 128.18C101.129 140.243 104.231 153.31 106.769 167.692C107.145 169.802 107.438 171.88 107.647 173.928L116.89 178.158C118.269 178.784 118.864 180.414 118.238 181.793C117.611 183.171 115.982 183.767 114.603 183.14L66.5989 161.175C64.3115 164.308 62.3061 167.41 60.4887 170.45L107.835 192.101C106.205 211.56 99.1864 228.637 92.9509 240.356L13.6755 194.577C5.65393 189.971 0.703125 181.416 0.703125 172.142V75.2564C0.703125 66.0128 5.65393 57.4586 13.6755 52.8211L97.557 4.37848C105.579 -0.258973 115.449 -0.258973 123.47 4.37848L201.054 49.155ZM85.1487 26.6571L20.193 64.1327C16.2449 66.4201 13.8008 70.6816 13.8008 75.2564V172.142C13.8008 176.685 16.2449 180.946 20.193 183.234L34.9514 191.757C35.1394 189.354 35.4005 186.984 35.7347 184.644L23.4831 177.562C21.5403 176.466 20.3183 174.366 20.3183 172.142V75.2564C20.3183 73.0003 21.5403 70.9009 23.4831 69.8042L81.3886 36.3707C82.3913 33.0701 83.6447 29.8323 85.1487 26.6571Z" fill="url(#paint0_linear_40_5456)"/>
<path fill-rule="evenodd" clip-rule="evenodd" d="M220.323 75.2565V172.142C220.323 181.417 215.404 189.971 207.382 194.577L123.469 243.02C116.764 246.905 108.711 247.532 101.567 244.9C96.3337 249.067 90.0669 253.047 82.6094 256.901C133.308 216.448 125.506 166.972 113.129 119.845C170.408 89.4509 210.797 80.646 214.902 21.9258C215.842 35.7128 214.996 46.7111 211.894 56.1114C217.221 60.9682 220.323 67.893 220.323 75.2565ZM207.257 75.2565C207.257 73.0945 206.693 71.0264 205.69 69.1777C204.165 71.2666 202.504 73.2825 200.708 75.2252C200.708 75.2461 200.708 75.2565 200.708 75.2565V172.142C200.708 174.398 199.517 176.466 197.574 177.594L118.926 222.997C117.275 226.444 115.395 229.818 113.286 233.118C114.57 232.836 115.792 232.366 116.952 231.708L200.833 183.265C204.813 180.978 207.257 176.717 207.257 172.142V75.2565Z" fill="url(#paint1_linear_40_5456)"/>
<defs>
<linearGradient id="paint0_linear_40_5456" x1="130.224" y1="-142.76" x2="388.658" y2="183.619" gradientUnits="userSpaceOnUse">
<stop stop-color="#BED62F"/>
<stop offset="0.849" stop-color="#0DA69D"/>
</linearGradient>
<linearGradient id="paint1_linear_40_5456" x1="93.0527" y1="-304.938" x2="428.204" y2="118.328" gradientUnits="userSpaceOnUse">
<stop stop-color="#BED62F"/>
<stop offset="0.849" stop-color="#0DA69D"/>
</linearGradient>
</defs>
</svg>
