<svg width="257" height="253" viewBox="0 0 257 253" fill="none" xmlns="http://www.w3.org/2000/svg">
<path d="M79.4651 69.1016C79.9443 69.5419 80.1774 70.9018 80.3976 71.5753C81.4337 74.6707 83.234 77.4164 85.4875 79.7607C89.7874 84.2419 94.9163 86.2753 101.068 86.4178C98.3484 92.9712 97.0921 99.2786 99.7342 106.13C101.768 111.388 105.498 115.507 110.691 117.76C115.885 120.027 121.027 119.742 126.233 117.696C126.052 128.523 126.207 139.389 126.194 150.23L126.181 199.744C116.299 199.122 106.417 198.669 96.6259 197.063C90.1889 196.001 83.9722 194.408 77.7425 192.478C76.0459 191.895 74.3881 191.273 72.7303 190.587C72.8253 190.457 72.9159 190.328 73.0023 190.198C79.8536 180.821 92.6627 173.556 103.71 170.331C107.622 169.191 111.637 168.582 115.652 167.948C115.626 164.645 115.898 160.837 114.81 157.703C114.123 155.708 112.88 153.882 111.145 152.665C103.633 147.394 93.6081 155.333 86.1999 151.486C81.2265 148.922 83.8557 145.127 82.5994 141.643C81.7834 139.402 78.947 138.483 78.3513 136.216C78.0145 134.934 78.6491 133.704 79.2708 132.629C78.1958 131.735 77.0043 130.854 76.4733 129.495C75.748 127.617 76.7841 125.92 77.5483 124.262C77.8461 123.615 78.1311 123.045 77.8202 122.345C77.095 120.687 72.7821 120.156 71.1891 119.444C70.1529 118.978 69.1816 118.317 68.793 117.204C67.3813 113.137 75.735 104.641 76.7841 100.043C77.354 97.5302 76.6676 94.8751 76.1365 92.4143C74.155 83.2835 75.5278 77.4294 79.4651 69.1016Z" fill="#22A4C1"/>
<path d="M178.48 69.7227C179.529 70.3832 180.539 72.7404 181.057 73.8412C181.238 74.2125 181.411 74.5924 181.575 74.981C181.739 75.3609 181.894 75.7451 182.041 76.1337C182.188 76.5308 182.326 76.9237 182.456 77.3123C182.594 77.7094 182.719 78.1109 182.831 78.5167C182.952 78.9139 183.06 79.3154 183.155 79.7212C183.259 80.1271 183.354 80.5329 183.44 80.9387C183.518 81.3445 183.591 81.7546 183.66 82.1691C183.729 82.5835 183.79 82.998 183.841 83.4124C183.893 83.8182 183.936 84.2327 183.971 84.6558C184.006 85.0702 184.031 85.4847 184.049 85.8991C184.066 86.3136 184.075 86.7323 184.075 87.1554C184.083 87.5699 184.079 87.9843 184.062 88.3988C184.044 88.8132 184.019 89.232 183.984 89.6551C183.958 90.0695 183.919 90.484 183.867 90.8984C183.824 91.3129 183.768 91.723 183.699 92.1288C183.639 92.5432 183.565 92.9534 183.479 93.3592C183.09 95.4185 181.989 97.8922 182.52 99.9645C183.31 103.021 186.522 107.787 188.232 110.701C189.022 112.048 189.929 113.486 190.33 115.001C191.664 120 185.163 119.612 182.546 121.555C182.054 121.93 181.769 122.397 181.471 122.928L181.355 123.122C181.355 124.818 182.339 129.067 181.756 130.31C181.057 131.786 178.868 132.395 177.443 132.952C178.311 133.716 179.827 134.959 179.878 136.203C179.943 137.679 176.433 138.042 175.85 140.049C174.879 143.443 176.537 147.108 173.493 150.165C168.17 155.501 158.91 150.67 152.667 150.773C150.012 150.825 147.422 151.758 145.57 153.713C141.853 157.625 142.228 163.09 142.358 168.09C144.378 168.254 146.386 168.508 148.38 168.854C150.375 169.19 152.356 169.613 154.325 170.123C165.645 173.154 179.127 180.005 185.163 190.431C183.867 191.04 182.482 191.506 181.148 192.024C165.567 197.192 149.157 199.264 132.787 199.614C132.804 181.844 132.718 164.075 132.528 146.305C132.437 136.773 132.256 127.253 132.359 117.708C133.266 118.472 134.276 119.094 135.377 119.534C138.964 120.959 143.187 120.324 146.632 118.796C146.986 118.641 147.331 118.477 147.668 118.304C148.013 118.131 148.35 117.95 148.678 117.76C149.006 117.57 149.334 117.371 149.662 117.164C149.982 116.957 150.297 116.745 150.608 116.529C150.919 116.305 151.225 116.076 151.527 115.843C151.83 115.61 152.123 115.368 152.408 115.118C152.702 114.867 152.987 114.608 153.263 114.341C153.539 114.082 153.807 113.81 154.066 113.525C154.334 113.248 154.588 112.968 154.83 112.683C155.08 112.389 155.322 112.091 155.555 111.789C155.797 111.496 156.026 111.189 156.242 110.87C156.466 110.559 156.678 110.244 156.876 109.924C157.084 109.596 157.282 109.268 157.472 108.94C157.662 108.612 157.843 108.275 158.016 107.93C158.189 107.593 158.353 107.248 158.508 106.894C158.664 106.548 158.811 106.194 158.949 105.832C161.539 99.032 160.568 92.9188 157.705 86.4431C160.412 86.197 163.21 85.6271 165.696 84.5004C171.848 81.7287 176.174 75.9005 178.48 69.7227Z" fill="#F06F2D"/>
<path d="M141.485 23.9918C145.293 23.5256 149.761 24.9632 153.232 26.4008C153.508 26.5131 153.785 26.6296 154.061 26.7505C154.346 26.8714 154.627 26.9966 154.903 27.1261C155.17 27.2556 155.442 27.3895 155.719 27.5276C155.995 27.6571 156.267 27.7953 156.535 27.9421C156.802 28.0802 157.066 28.2227 157.325 28.3695C157.592 28.5249 157.856 28.6803 158.115 28.8357C158.382 28.9825 158.646 29.1379 158.905 29.302C159.155 29.466 159.41 29.6301 159.669 29.7941C159.919 29.9668 160.17 30.1395 160.42 30.3122C160.671 30.4849 160.917 30.6619 161.158 30.8432C161.409 31.0245 161.651 31.2058 161.884 31.3872C162.125 31.5771 162.367 31.7671 162.609 31.957C162.842 32.147 163.075 32.3413 163.308 32.5399C163.533 32.7384 163.757 32.9414 163.982 33.1486C164.215 33.3472 164.439 33.5501 164.655 33.7573C164.88 33.9645 165.1 34.1761 165.316 34.3919C165.532 34.6078 165.743 34.8236 165.95 35.0395C166.166 35.264 166.374 35.4885 166.572 35.713C166.779 35.9375 166.982 36.162 167.181 36.3865C167.379 36.6196 167.578 36.8527 167.777 37.0858C167.967 37.319 168.157 37.5564 168.347 37.7982C168.528 38.0399 168.713 38.2817 168.903 38.5235C169.085 38.7652 169.262 39.0113 169.434 39.2617C169.607 39.5035 169.78 39.7539 169.952 40.0129C170.125 40.2633 170.289 40.518 170.445 40.777C170.609 41.0274 170.773 41.2821 170.937 41.5412C171.092 41.8088 171.243 42.0722 171.39 42.3312C171.546 42.5989 171.692 42.8665 171.83 43.1342C171.977 43.4019 172.12 43.6695 172.258 43.9372C172.396 44.2135 172.53 44.4855 172.659 44.7531C172.789 45.0294 172.914 45.3057 173.035 45.582C173.164 45.8583 173.285 46.139 173.398 46.4239C176.389 53.7933 177.037 61.9398 173.903 69.361C171.843 74.2567 168.463 78.3883 163.425 80.3698C159.889 81.7556 149.826 82.6882 146.355 81.0692C143.79 79.8777 142.236 77.5594 141.705 74.8525C141.498 73.8293 141.42 72.7025 141.045 71.7441C140.812 71.1484 140.384 70.4101 139.737 70.2158C139.361 70.0993 138.985 70.2029 138.649 70.3842C138.144 70.6432 137.716 71.2908 137.574 71.8218C137.017 74.0236 137.885 77.3651 138.934 79.3208C140.773 82.727 143.752 84.9806 147.482 85.926C148.466 86.1851 149.58 86.1462 150.525 86.47C152.714 87.2082 154.281 90.2907 155.175 92.2075C155.576 93.5415 155.848 94.759 155.913 96.1448C156.12 100.73 154.462 105.03 151.354 108.384C148.026 111.959 143.518 114.432 138.584 114.575C136.68 114.627 134.504 114.381 133.105 112.969C132.639 112.516 132.264 111.933 132.121 111.298C131.681 109.381 131.979 106.985 131.979 105.017C131.97 102.539 131.94 100.06 131.888 97.5824C135.942 97.9192 139.452 99.0977 143.298 100.302C144.049 100.535 144.619 100.691 145.345 100.276C145.785 100.004 146.225 99.2273 146.264 98.7221C146.303 98.2947 146.109 97.9192 145.85 97.5954C144.153 95.5102 134.867 93.9689 131.927 93.6063C132.03 81.2505 132.061 68.8948 132.017 56.539C131.931 51.3671 131.888 46.1951 131.888 41.0231C131.888 38.368 131.733 35.5835 132.005 32.9543C132.186 31.1799 132.626 29.7682 133.688 28.3306C135.566 25.7792 138.416 24.4192 141.485 23.9918Z" fill="url(#paint0_linear_40_5327)"/>
<path d="M141.202 27.4369C145.748 27.1909 150.217 28.6673 154.206 30.7655C161.951 34.8452 168.621 42.2794 171.172 50.6849C173.076 56.9664 172.985 64.0379 169.773 69.892C168.219 72.7284 165.124 75.9793 161.899 76.847C161.225 77.0283 159.982 77.4428 159.36 77.0672C159.503 76.0311 162.197 74.0754 162.974 73.2335C163.38 72.7846 163.768 72.3226 164.139 71.8477C164.511 71.3728 164.865 70.885 165.201 70.3842C165.538 69.8834 165.858 69.3697 166.16 68.843C166.453 68.3163 166.73 67.7766 166.989 67.224C168.219 64.5431 169.359 60.7094 168.219 57.8083C167.805 56.7462 167.002 55.9821 165.953 55.5158C158.35 52.2003 154.063 61.8232 148.015 64.0639C145.865 64.8668 143.326 64.815 141.267 63.7919C139.855 63.1054 138.457 61.7455 138.016 60.2043C137.744 59.2718 137.705 58.5595 138.21 57.7306C138.236 57.6788 138.267 57.6313 138.301 57.5881C138.69 57.342 139.311 57.1089 139.791 57.1477C140.671 57.2384 141.28 58.4299 141.85 59.0128C143.184 60.3986 145.01 61.0203 146.862 60.3468C150.489 59.0257 154.011 53.8063 158.648 52.1226C160.448 51.462 162.546 51.2548 164.45 51.462C165.033 51.5138 165.59 51.7211 166.186 51.734C166.458 51.4491 166.6 51.2159 166.704 50.8403C167.131 49.2214 165.992 46.8513 165.227 45.4525C163.142 41.7095 160.047 37.7464 155.773 36.516C155.54 36.5678 155.307 36.6282 155.073 36.6973C153.804 37.047 152.923 38.0313 152.302 39.1581C150.773 41.9815 150.838 43.73 152.626 46.3332C152.936 46.7865 153.364 47.2787 153.48 47.8356C153.584 48.3018 153.506 48.7292 153.195 49.0919C151.576 51.0605 148.507 47.2398 146.396 46.8513C143.559 46.3332 141.513 49.4286 138.923 49.597C138.405 49.6229 138.094 49.5193 137.705 49.1696C137.459 48.6904 137.369 48.0687 137.524 47.5507C138.353 44.8826 143.521 43.9501 145.709 42.7197C147.419 41.7484 148.662 39.702 149.167 37.837C149.504 36.6196 149.504 35.3374 148.831 34.2235C148.015 32.8895 146.448 32.1124 144.971 31.7368C138.754 30.105 140.296 34.4826 137.226 36.1274C136.838 36.3346 136.333 36.4901 135.918 36.2958C135.504 36.1145 135.232 35.6093 135.128 35.1819C134.804 33.9775 135.128 32.7082 135.724 31.6462C135.802 31.5167 135.879 31.3872 135.957 31.2576C136.035 31.1368 136.117 31.0159 136.203 30.895C136.289 30.7741 136.38 30.6576 136.475 30.5453C136.561 30.4244 136.652 30.3079 136.747 30.1956C136.851 30.0834 136.95 29.9754 137.045 29.8718C137.148 29.7682 137.256 29.6646 137.369 29.561C137.472 29.4574 137.58 29.3581 137.692 29.2631C137.805 29.1681 137.921 29.0775 138.042 28.9911C138.154 28.8961 138.271 28.8098 138.392 28.7321C138.521 28.6457 138.647 28.5637 138.767 28.486C138.897 28.4083 139.026 28.3349 139.156 28.2658C139.277 28.1881 139.406 28.1191 139.545 28.0586C139.674 27.9895 139.808 27.9291 139.946 27.8773C140.084 27.8169 140.222 27.7607 140.36 27.7089C140.499 27.6571 140.637 27.6096 140.775 27.5665C140.913 27.5233 141.056 27.4801 141.202 27.4369Z" fill="#FEFEFE"/>
<path d="M113.937 24.1591C114.015 24.1591 114.08 24.1462 114.145 24.1462C117.577 23.9908 121.009 24.8715 123.521 27.3193C124.7 28.459 125.671 29.9485 125.995 31.5803C126.474 34.0152 126.306 36.6833 126.293 39.1699C126.284 42.3301 126.293 45.4903 126.319 48.6505C126.397 63.6354 126.176 78.6073 126.358 93.5923C123.625 94.0326 114.326 95.7681 112.681 97.5166C112.318 97.8922 112.163 98.3973 112.215 98.9153C112.267 99.5111 112.59 100.029 113.07 100.379C113.497 100.703 113.976 100.819 114.507 100.729C115.906 100.508 117.227 99.5888 118.587 99.1614C121.112 98.3714 123.755 97.9699 126.358 97.5425C126.246 102.421 126.211 107.299 126.254 112.178C123.237 113.9 119.843 114.768 116.359 114.444C112.539 114.107 108.847 111.983 106.451 109.018C103.472 105.365 102.397 100.651 102.851 96.0142C103.304 92.323 104.599 89.3183 106.71 86.2746H106.956C110.764 86.2358 114.093 85.3292 116.813 82.5058C119.131 80.0968 120.594 76.9496 120.517 73.5563C120.491 72.6626 120.426 71.212 119.636 70.6292C119.364 70.422 118.988 70.3702 118.652 70.409C115.906 70.694 116.722 74.1909 116.087 76.3149C115.841 77.1309 115.323 77.8691 114.805 78.5296C113.29 80.4594 111.515 81.5214 109.042 81.7805C107.332 81.9618 105.545 81.8582 103.835 81.8323C98.8229 81.7805 94.4194 81.4696 90.3914 78.1281C85.6253 74.1909 83.4235 68.0778 82.9184 62.0423C82.1802 53.0022 85.6641 43.4439 91.5053 36.6055C96.9967 30.1945 105.415 24.8456 113.937 24.1591Z" fill="#22A4C1"/>
<path d="M114.551 27.3209C114.802 27.295 115.052 27.2821 115.302 27.2821C117.478 27.2432 119.848 28.6031 121.351 30.1184C122.374 31.1546 123.527 32.631 123.449 34.1464C123.423 34.8717 123.008 35.6487 122.452 36.1021C122.154 36.3481 121.791 36.5035 121.402 36.4129C120.159 36.1409 119.291 34.0946 118.54 33.1621C117.75 32.1777 116.662 31.4784 115.393 31.3359C113.606 31.1287 111.248 32.0482 109.889 33.2527C108.969 34.0687 108.464 35.1436 108.425 36.374C108.399 37.5785 108.736 38.7442 109.358 39.7673C111.948 44.1061 117.543 43.5103 120.664 46.9943C120.988 47.3569 121.221 47.7714 121.13 48.2894C121.04 48.7686 120.548 49.3515 120.12 49.5846C119.822 49.7659 119.24 49.9084 118.89 49.8566C118.242 49.753 115.445 47.603 113.916 47.1238C111.857 46.4762 110.096 47.9138 108.347 48.7816C107.777 49.0536 106.897 49.3644 106.275 49.0924C106.068 49.0018 105.977 48.7945 105.912 48.5873C105.718 47.8361 106.068 46.6964 106.443 46.0359C106.69 45.5955 106.91 45.1552 107.143 44.7019C106.987 42.6555 106.288 39.8062 105.006 38.1613C104.475 37.4749 103.75 36.9828 102.856 36.918C101.341 36.8144 99.877 37.8117 98.7761 38.7571C95.8621 41.2568 92.6371 46.0229 92.4558 49.9602C92.4169 50.6078 92.5335 51.0481 92.9739 51.5403C93.6344 51.9288 97.5069 51.2294 100.097 52.3821C101.859 53.1722 103.413 54.286 104.915 55.4905C106.974 57.1224 110.29 60.9172 113.101 60.8524C115.458 60.8136 116.753 58.8708 118.19 57.3296C118.462 57.2778 118.721 57.2389 118.981 57.2389C119.473 57.2389 119.965 57.4462 120.263 57.8347C120.69 58.4046 120.677 59.1946 120.535 59.8422C120.159 61.4223 118.968 62.7304 117.595 63.5463C109.047 68.5327 104.151 56.8892 96.8852 55.1537C95.2663 54.7652 93.5178 54.7911 92.0673 55.7236C91.0959 56.3582 90.4483 57.3166 90.2022 58.4564C89.3604 62.3807 92.145 69.0119 94.1784 72.2627C95.0073 73.5967 96.2118 74.6846 97.0018 76.0316C97.2867 76.5108 97.5846 77.0936 97.4421 77.6635L97.1184 77.8189C95.7066 77.6635 94.1395 76.6015 93.0127 75.7596C88.9589 72.7031 86.6794 67.2505 86.0448 62.3418C85.0216 54.3896 88.5444 45.7121 93.3883 39.5601C98.3487 33.2657 106.586 28.2664 114.551 27.3209Z" fill="#FEFEFE"/>
<path d="M219.869 166.355C220.257 167.974 217.861 174.036 217.136 175.603C207.888 195.73 187.062 209.16 167.169 217.216C163.542 218.667 159.877 220.014 156.173 221.257C153.531 222.125 150.811 222.876 148.195 223.86C138.701 227.422 136.318 236.022 133.987 244.894C133.378 247.212 132.834 249.789 131.824 251.978C131.807 252.013 131.79 252.051 131.772 252.095C131.539 249.517 131.708 246.746 131.708 244.155L131.695 228.16C131.695 225.078 131.673 221.995 131.63 218.913C131.591 216.815 131.397 214.574 131.656 212.502C131.811 211.297 132.381 209.937 133.029 208.914C134.117 207.218 135.956 205.702 137.847 205.029C140.553 204.057 147.91 203.837 151.213 203.449C157.015 202.758 162.77 201.787 168.477 200.535C182.465 197.413 195.921 191.87 206.904 182.519C209.171 180.589 211.411 178.543 213.315 176.276C214.753 174.567 216.152 172.728 217.291 170.824C218.172 169.347 218.949 167.806 219.869 166.355Z" fill="#0D3874"/>
<path d="M38.0547 165.527C38.9872 166.706 39.5571 168.532 40.2824 169.853C40.7572 170.717 41.258 171.558 41.7847 172.379C42.3201 173.208 42.8856 174.015 43.4814 174.801C44.0685 175.586 44.6859 176.351 45.3334 177.093C45.9724 177.836 46.6372 178.552 47.328 179.243C59.8262 191.651 74.3967 197.323 91.415 200.82C95.2616 201.61 99.0823 202.374 102.968 202.918C106.275 203.359 109.595 203.713 112.927 203.98C115.039 204.175 117.266 204.227 119.326 204.719C119.559 204.77 119.792 204.831 120.025 204.9C120.249 204.969 120.47 205.047 120.685 205.133C120.91 205.219 121.13 205.314 121.346 205.418C121.562 205.522 121.773 205.63 121.981 205.742C122.179 205.863 122.378 205.988 122.576 206.117C122.775 206.256 122.969 206.398 123.159 206.545C123.34 206.692 123.522 206.843 123.703 206.998C123.876 207.162 124.044 207.331 124.208 207.503C125.503 208.876 126.255 210.301 126.604 212.166C127.213 215.404 126.85 221.167 126.837 224.638C126.812 233.851 126.729 243.068 126.591 252.29L126.514 252.316C125.542 251.5 123.198 240.556 122.719 238.703C121.385 233.445 118.704 228.847 114.197 225.7C111.218 223.602 107.682 223.045 104.263 221.996C100.818 220.934 97.3209 219.82 93.9405 218.551C86.2344 215.676 78.9945 211.972 71.9229 207.788C58.8678 200.056 46.9524 189.203 41.0206 174.982C39.7384 171.899 38.8836 168.752 38.0547 165.527Z" fill="#0D3874"/>
<path d="M248.839 138.792C250.177 138.706 251.52 138.688 252.867 138.74C254.214 138.792 255.556 138.913 256.895 139.103C254.732 148.052 251.364 156.458 244.163 162.61C238.193 167.726 231.056 169.357 223.35 168.736C228.583 162.169 234.994 156.199 241.495 150.876C243.529 149.283 245.627 147.715 247.583 146.019C245.549 147.068 243.594 148.363 241.638 149.568C234.372 154.023 227.326 158.919 221.382 165.096C221.252 158.465 221.913 152.171 226.511 146.99C231.924 140.877 241.042 139.219 248.839 138.792Z" fill="#F06F2D"/>
<path d="M35.9419 103.719C38.8819 105.532 42.2104 108.42 44.179 111.257C48.2069 115.906 50.4864 123.029 50.072 129.156C49.6834 134.906 45.9016 142.793 41.7312 146.821C41.2002 142.237 40.8246 137.639 40.2418 133.054C39.4776 127.226 38.4933 121.423 37.768 115.582C37.5219 118.924 37.6256 122.304 37.6515 125.659C37.7162 132.976 38.0271 140.281 38.1048 147.599C32.4449 143.402 27.9508 137.276 26.9146 130.218C26.3966 126.604 26.8887 119.727 28.5983 116.489C29.9971 111.749 33.0537 107.617 35.9419 103.719Z" fill="#33A469"/>
<path d="M35.9451 103.719C38.8851 105.532 42.2136 108.42 44.1822 111.257C42.9778 111.127 39.2218 105.467 37.4604 105.778C37.2273 105.817 36.8387 106.089 36.6186 106.192C36.3595 106.581 36.243 106.84 36.1394 107.28C36.0357 107.643 35.9969 107.928 35.6472 108.135C34.9219 108.576 33.4584 108.822 32.6036 108.796C31.684 110.337 29.4305 115.725 28.6016 116.489C30.0003 111.749 33.0569 107.617 35.9451 103.719Z" fill="#72BE7E"/>
<path d="M20.5238 173.881C20.9987 173.838 21.4779 173.808 21.9614 173.79C22.4363 173.773 22.9155 173.773 23.399 173.79C23.8739 173.799 24.3531 173.825 24.8366 173.868C25.3115 173.903 25.7864 173.954 26.2613 174.023C26.7362 174.084 27.2111 174.162 27.686 174.257C28.1522 174.352 28.6185 174.455 29.0847 174.567C29.551 174.688 30.0129 174.822 30.4705 174.969C30.9282 175.107 31.3815 175.262 31.8305 175.435C37.9177 177.702 42.0104 182.597 44.6654 188.4C34.0063 185.654 23.1918 183.284 12.1053 184.164C19.7208 184.812 27.0513 186.301 34.3819 188.542C37.9954 189.682 41.6736 191.016 45.1705 192.492C39.2517 196.818 32.1672 198.126 24.9661 197.116C17.9982 196.145 11.4059 192.065 6.61383 187.001C4.95604 185.252 3.54432 183.297 2.09375 181.367C2.43049 181.117 2.77155 180.87 3.11692 180.629C3.45366 180.387 3.79903 180.154 4.15304 179.929C4.49842 179.696 4.85243 179.472 5.21507 179.256C5.56908 179.04 5.93172 178.828 6.303 178.621C6.66564 178.414 7.0326 178.211 7.40388 178.012C7.77515 177.823 8.14643 177.637 8.51771 177.456C8.89762 177.266 9.27753 177.089 9.65744 176.925C10.046 176.752 10.4345 176.588 10.8231 176.432C11.2116 176.268 11.6002 176.117 11.9887 175.979C12.3859 175.832 12.7831 175.69 13.1803 175.552C13.5774 175.422 13.9746 175.297 14.3718 175.176C14.7776 175.055 15.1834 174.943 15.5892 174.839C15.9951 174.736 16.4009 174.636 16.8067 174.541C17.2125 174.446 17.6226 174.36 18.0371 174.282C18.4515 174.205 18.866 174.131 19.2804 174.062C19.6862 173.993 20.1007 173.933 20.5238 173.881Z" fill="#33A469"/>
<path d="M6.18266 137.834C9.39464 137.355 13.3449 137.757 16.4662 138.599C23.5377 140.502 30.5056 145.398 34.1839 151.822C35.9712 154.943 38.0952 162.313 37.1368 165.784C36.5669 165.81 32.7462 161.808 32.0469 161.147C26.5166 155.902 17.8131 149.102 10.897 145.787C11.8943 146.706 12.9822 147.535 14.0313 148.403C21.323 154.166 28.6277 161.834 34.4299 169.086C29.4177 169.048 24.535 168.167 20.0537 165.861C12.1274 161.795 6.73958 155.047 3.5017 146.81C2.47852 144.232 1.74029 141.513 0.898438 138.871C2.64689 138.391 4.36945 138.029 6.18266 137.834Z" fill="url(#paint1_linear_40_5327)"/>
<path d="M220.928 103.734C223.234 104.576 227.262 111.207 228.427 113.435C231.665 119.626 232.546 127.254 230.396 133.924C228.803 138.872 225.604 143.366 220.89 145.775C220.851 138.742 220.501 131.671 220.333 124.625C220.255 121.504 220.553 117.618 220.177 114.614L220.022 114.64C219.18 124.949 217.678 135.142 217.25 145.49C215.398 144.312 213.753 142.589 212.458 140.815C208.741 135.699 207.796 129.443 208.793 123.278C210.036 115.624 214.621 108.254 220.928 103.734Z" fill="#F5912B"/>
<path d="M186.985 137.953C187.046 137.962 187.106 137.975 187.166 137.992L187.464 138.031C188.345 138.186 189.174 138.393 190.029 138.653C198.227 141.1 206.775 146.359 210.881 154.117C213.367 158.831 214.106 164.309 212.357 169.399C211.8 170.992 210.894 172.443 210.414 174.062C210.397 174.122 210.38 174.179 210.363 174.23C206.723 166.213 201.802 158.973 196.556 151.941C196.03 151.267 195.49 150.602 194.937 149.946C195.961 152.329 197.411 154.661 198.59 156.992C201.866 163.416 205.065 169.788 207.423 176.626C201.828 175.979 196.077 172.676 192.632 168.26C186.415 160.333 185.781 147.615 186.985 137.953Z" fill="#F06F2D"/>
<path d="M71.2745 137.989C71.5076 137.963 71.676 137.911 71.922 138.015C72.0904 138.093 72.1163 138.209 72.1811 138.378C72.6214 139.673 72.6085 141.447 72.6862 142.807C73.0747 149.322 72.6603 155.694 69.7073 161.626C67.13 166.78 62.6228 171.08 57.4163 173.528C55.3829 174.474 53.22 175.134 51.096 175.859C52.0674 173.036 53.6345 170.329 54.9685 167.661L61.1334 155.37C62.1436 153.389 63.4517 151.355 64.2029 149.27L64.1123 149.128L63.7626 149.542C62.2084 151.692 60.5117 153.764 58.9446 155.914C54.9296 161.483 51.1089 167.35 47.8581 173.386C46.7184 171.093 45.9801 168.879 45.6952 166.314C44.9958 159.955 46.7831 154.205 50.7722 149.257C50.9276 149.058 51.083 148.864 51.2385 148.674C51.4025 148.476 51.5666 148.286 51.7306 148.104C51.8947 147.914 52.063 147.729 52.2357 147.547C52.4084 147.357 52.5811 147.172 52.7538 146.991C52.9265 146.818 53.1035 146.641 53.2848 146.46C53.4575 146.287 53.6345 146.114 53.8158 145.941C54.0058 145.777 54.1914 145.609 54.3727 145.436C54.5627 145.272 54.7526 145.108 54.9426 144.944C55.1326 144.789 55.3268 144.629 55.5254 144.465C55.7154 144.31 55.9096 144.158 56.1082 144.012C56.3068 143.856 56.5097 143.705 56.717 143.558C56.9155 143.412 57.1184 143.269 57.3257 143.131C57.5329 142.984 57.7401 142.846 57.9474 142.717C58.1632 142.578 58.3747 142.445 58.582 142.315C58.7978 142.177 59.0137 142.047 59.2295 141.926C59.4454 141.797 59.6613 141.672 59.8771 141.551C60.1016 141.43 60.3261 141.313 60.5506 141.201C60.7665 141.089 60.9866 140.977 61.2111 140.864C61.4356 140.752 61.6644 140.644 61.8976 140.541C62.1221 140.437 62.3509 140.338 62.584 140.243C62.8171 140.148 63.0459 140.053 63.2704 139.958C63.5036 139.863 63.741 139.772 63.9828 139.686C64.2159 139.6 64.449 139.517 64.6821 139.44C64.9239 139.362 65.1614 139.284 65.3945 139.207C65.6362 139.129 65.878 139.056 66.1198 138.986C66.3615 138.917 66.6033 138.853 66.845 138.792C67.0868 138.732 67.3286 138.671 67.5703 138.611C67.8121 138.559 68.0582 138.507 68.3086 138.455C68.5503 138.404 68.7964 138.356 69.0468 138.313C69.2886 138.27 69.5346 138.227 69.785 138.183C70.0268 138.149 70.2729 138.114 70.5233 138.08C70.7737 138.045 71.0241 138.015 71.2745 137.989Z" fill="url(#paint2_linear_40_5327)"/>
<path d="M232.316 174.204C240.294 173.413 249.555 176.418 255.746 181.482C255.24 182.35 254.58 183.192 253.945 183.995C248.674 190.704 241.81 195.936 233.132 196.933C226.113 197.736 219.313 196.247 213.757 191.843C216.606 191.105 219.455 189.836 222.279 188.929C228.055 187.077 233.87 185.692 239.893 184.889C242.652 184.526 245.501 184.487 248.234 184.034L247.858 184.06L247.78 183.995C235.956 183.425 224.247 184.863 213.07 188.748C214.236 186.469 215.44 184.215 217.046 182.221C220.945 177.351 226.203 174.877 232.316 174.204Z" fill="#E12B28"/>
<path d="M43.5967 72.2235C44.9436 72.1847 46.2517 72.3789 47.4821 72.9618C49.8652 74.0626 51.0568 75.9795 51.9504 78.3366C52.6239 77.0544 53.3233 75.5003 54.3853 74.503C55.9783 72.9877 58.1542 72.2235 60.33 72.2624C62.5059 72.3142 64.6299 73.156 66.1323 74.7491C67.6736 76.381 68.3341 78.5439 68.2564 80.7456C68.0621 85.9262 64.0342 90.0189 60.4984 93.3475C57.8304 95.7435 54.9034 97.8157 52.0281 99.9268C50.1242 98.4115 48.0779 97.0905 46.2258 95.5363C41.9259 91.9098 36.6547 86.9883 36.2143 81.0435C36.0459 78.8159 36.6676 76.4198 38.17 74.7232C39.6206 73.0783 41.4597 72.3919 43.5967 72.2235Z" fill="#D03169"/>
<path d="M196.168 72.3536C198.214 72.2241 200.041 72.6644 201.608 74.0632C204.703 76.8477 204.599 80.8368 204.833 84.6446C205.26 81.3808 205.299 77.8321 207.449 75.1252C208.692 73.571 210.479 72.6385 212.474 72.4572C214.624 72.2759 216.89 73.053 218.522 74.4776C220.141 75.8893 220.983 77.8709 221.139 79.982C221.411 83.8157 219.481 86.5743 217.085 89.333C213.678 93.1667 209.236 96.6636 205.027 99.5777C204.837 99.4654 204.651 99.3489 204.47 99.228C199.173 95.8217 190.702 88.815 189.356 82.4817C188.876 80.1892 189.174 77.586 190.495 75.6174C191.842 73.6099 193.889 72.768 196.168 72.3536Z" fill="#22A4C1"/>
<path d="M143.275 7.59375C144.363 7.84415 145.443 8.11613 146.513 8.40969C147.584 8.70326 148.65 9.01842 149.712 9.35516C150.774 9.6919 151.828 10.0502 152.873 10.4301C153.926 10.81 154.966 11.2115 155.994 11.6346C157.021 12.0577 158.045 12.4981 159.063 12.9557C160.074 13.4219 161.075 13.9055 162.068 14.4063C163.061 14.907 164.045 15.4294 165.021 15.9734C165.997 16.5173 166.959 17.0786 167.909 17.6571C185.692 28.4716 197.374 45.7619 202.257 65.8368L200.392 65.8756C198.695 65.9792 197.167 66.2253 195.535 66.7304C193.281 59.6977 190.898 52.8982 187.078 46.5131C186.827 46.1073 186.577 45.7058 186.326 45.3086C186.067 44.9028 185.808 44.5013 185.549 44.1041C185.29 43.7069 185.023 43.3141 184.746 42.9255C184.479 42.5283 184.207 42.1355 183.93 41.7469C183.654 41.367 183.369 40.9871 183.076 40.6072C182.791 40.2273 182.501 39.8474 182.208 39.4675C181.914 39.0962 181.616 38.7249 181.314 38.3536C181.012 37.991 180.705 37.6283 180.395 37.2657C180.092 36.9031 179.781 36.5447 179.462 36.1907C179.143 35.8367 178.823 35.4827 178.504 35.1287C178.176 34.7833 177.847 34.4379 177.519 34.0926C177.191 33.7558 176.854 33.4191 176.509 33.0824C176.172 32.7456 175.831 32.4132 175.486 32.0851C175.141 31.757 174.795 31.4332 174.45 31.1137C174.096 30.7943 173.737 30.4791 173.375 30.1683C173.021 29.8488 172.662 29.538 172.3 29.2358C171.929 28.9249 171.557 28.6227 171.186 28.3291C170.823 28.0269 170.452 27.7334 170.072 27.4484C169.692 27.1549 169.312 26.8656 168.932 26.5807C168.544 26.3044 168.155 26.0281 167.767 25.7518C167.378 25.4755 166.99 25.2035 166.601 24.9358C166.204 24.6682 165.807 24.4048 165.41 24.1458C165.012 23.8868 164.611 23.6321 164.205 23.3817C163.799 23.1313 163.389 22.8852 162.975 22.6434C162.569 22.4017 162.159 22.1642 161.744 21.9311C161.33 21.698 160.911 21.4692 160.488 21.2447C160.065 21.0202 159.642 20.8 159.219 20.5841C158.796 20.3683 158.368 20.1567 157.937 19.9495C157.514 19.7423 157.086 19.5437 156.654 19.3537C156.223 19.1551 155.787 18.9609 155.346 18.7709C154.906 18.581 154.466 18.3953 154.025 18.214C153.585 18.0327 153.145 17.8557 152.704 17.683C149.414 16.4137 146.099 15.5071 142.68 14.6523C143.314 12.2433 143.496 10.0675 143.275 7.59375Z" fill="#72BE7E"/>
<path d="M114.784 8.02344H115.043C115.276 8.42493 115.082 9.35745 115.069 9.86256C115.03 11.5463 115.16 13.1263 115.419 14.7841C109.111 16.3901 103.024 18.4365 97.2996 21.5707C96.7988 21.8384 96.3024 22.1104 95.8102 22.3867C95.3267 22.6716 94.8432 22.9565 94.3596 23.2415C93.8761 23.535 93.3969 23.8329 92.922 24.1351C92.4385 24.4373 91.9636 24.7482 91.4973 25.0676C91.0311 25.3871 90.5692 25.7066 90.1115 26.0261C89.6453 26.3542 89.1876 26.6866 88.7387 27.0233C88.2897 27.3687 87.8407 27.7141 87.3917 28.0594C86.9514 28.4135 86.5153 28.7675 86.0836 29.1215C85.6432 29.4841 85.2115 29.8511 84.7884 30.2224C84.3654 30.5936 83.9423 30.9692 83.5192 31.3491C83.1048 31.729 82.6946 32.1176 82.2888 32.5148C81.883 32.9033 81.4815 33.3005 81.0843 33.7063C80.6871 34.1035 80.2986 34.5093 79.9187 34.9238C79.5301 35.3382 79.1459 35.7527 78.766 36.1671C78.3947 36.5902 78.0234 37.0176 77.6522 37.4493C77.2895 37.881 76.9312 38.3171 76.5772 38.7574C76.2232 39.1978 75.8735 39.6424 75.5281 40.0914C75.1914 40.5318 74.8546 40.9808 74.5179 41.4384C74.1898 41.896 73.866 42.3579 73.5465 42.8242C73.2184 43.2904 72.9033 43.761 72.6011 44.2359C72.2902 44.7022 71.9837 45.177 71.6815 45.6606C71.3879 46.1441 71.0987 46.6276 70.8138 47.1111C70.5288 47.5947 70.2525 48.0868 69.9849 48.5876C69.7086 49.0798 69.4409 49.5762 69.1819 50.077C68.9228 50.5778 68.6681 51.0829 68.4177 51.5924C68.1673 52.1018 67.9256 52.6112 67.6924 53.1206C67.4593 53.6301 67.2305 54.1481 67.006 54.6748C66.7815 55.1929 66.5657 55.711 66.3584 56.229C66.1512 56.7557 65.9483 57.2824 65.7497 57.8091C65.5597 58.3444 65.3741 58.8798 65.1928 59.4151C65.0028 59.9504 64.8258 60.4857 64.6618 61.0211C64.4891 61.5564 64.325 62.0961 64.1696 62.64C62.6672 62.2903 61.1778 61.8759 59.6754 61.4873C58.9243 61.3578 58.1601 61.1635 57.4219 60.9822C59.3257 53.0688 63.548 45.6347 67.9644 38.8869C78.222 23.2415 96.665 11.7664 114.784 8.02344Z" fill="#3EAEA2"/>
<path d="M128.915 0.898438C129.07 0.898438 129.221 0.898438 129.368 0.898438C129.523 0.898438 129.679 0.907073 129.834 0.924342C129.99 0.932976 130.141 0.945926 130.287 0.963195C130.443 0.989098 130.594 1.015 130.741 1.04091C130.896 1.06681 131.047 1.09703 131.194 1.13157C131.349 1.1661 131.501 1.20064 131.647 1.23518C131.794 1.27835 131.941 1.32584 132.088 1.37765C132.234 1.42082 132.377 1.47262 132.515 1.53306C132.662 1.58487 132.804 1.64531 132.942 1.71439C133.081 1.77483 133.219 1.83958 133.357 1.90866C133.495 1.97773 133.629 2.05112 133.758 2.12883C133.897 2.19791 134.03 2.27562 134.16 2.36196C134.289 2.44831 134.415 2.53465 134.536 2.62099C134.665 2.70734 134.79 2.79799 134.911 2.89297C135.032 2.98795 135.149 3.08725 135.261 3.19086C135.382 3.28584 135.498 3.38945 135.61 3.5017C135.714 3.60531 135.822 3.71324 135.934 3.82548C136.038 3.93773 136.141 4.04998 136.245 4.16222C136.34 4.2831 136.435 4.40398 136.53 4.52486C136.625 4.64575 136.716 4.77094 136.802 4.90046C136.888 5.02134 136.975 5.14654 137.061 5.27606C137.139 5.40557 137.216 5.5394 137.294 5.67755C137.372 5.80707 137.445 5.9409 137.514 6.07905C137.583 6.2172 137.648 6.35535 137.709 6.4935C137.769 6.64028 137.825 6.78275 137.877 6.9209C137.937 7.06768 137.989 7.21446 138.032 7.36125C138.084 7.50803 138.127 7.65482 138.162 7.8016C138.205 7.94839 138.244 8.09517 138.278 8.24195C138.313 8.39737 138.343 8.54847 138.369 8.69526C138.395 8.85068 138.417 9.00178 138.434 9.14856C138.451 9.30398 138.464 9.4594 138.473 9.61482C138.481 9.77024 138.49 9.92134 138.499 10.0681C138.499 10.2235 138.494 10.379 138.486 10.5344C138.486 10.6898 138.481 10.8409 138.473 10.9877C138.455 11.1431 138.438 11.2985 138.421 11.4539C138.404 11.6007 138.382 11.7518 138.356 11.9072C138.322 12.054 138.287 12.2051 138.253 12.3605C138.218 12.5073 138.184 12.6541 138.149 12.8009C138.106 12.9477 138.058 13.0945 138.007 13.2412C137.963 13.388 137.912 13.5348 137.851 13.6816C137.799 13.8197 137.739 13.9579 137.67 14.096C137.609 14.2428 137.545 14.381 137.476 14.5105C137.406 14.6486 137.333 14.7868 137.255 14.9249C137.178 15.0545 137.1 15.184 137.022 15.3135C136.936 15.443 136.85 15.5725 136.763 15.702C136.668 15.8229 136.573 15.9438 136.478 16.0647C136.383 16.1856 136.288 16.3021 136.193 16.4144C136.09 16.5352 135.986 16.6518 135.882 16.7641C135.77 16.8763 135.658 16.9842 135.546 17.0878C135.433 17.1915 135.321 17.2908 135.209 17.3857C135.088 17.4893 134.967 17.5886 134.846 17.6836C134.725 17.7786 134.605 17.8693 134.484 17.9556C134.354 18.0419 134.225 18.1283 134.095 18.2146C133.966 18.2923 133.832 18.37 133.694 18.4478C133.564 18.5168 133.43 18.5859 133.292 18.655C133.154 18.7241 133.016 18.7888 132.878 18.8493C132.731 18.9097 132.588 18.9701 132.45 19.0306C132.304 19.0824 132.157 19.1299 132.01 19.173C131.863 19.2248 131.716 19.2723 131.57 19.3155C131.423 19.35 131.276 19.3846 131.129 19.4191C130.974 19.4537 130.823 19.4839 130.676 19.5098C130.521 19.5357 130.365 19.5573 130.21 19.5745C130.063 19.5918 129.912 19.6048 129.756 19.6134C129.601 19.622 129.446 19.6263 129.29 19.6263C129.143 19.635 128.992 19.635 128.837 19.6263C128.681 19.6263 128.53 19.6177 128.384 19.6004C128.228 19.5918 128.073 19.5789 127.917 19.5616C127.77 19.5357 127.619 19.5098 127.464 19.4839C127.317 19.458 127.17 19.4278 127.024 19.3932C126.868 19.3587 126.717 19.3198 126.57 19.2767C126.424 19.2335 126.277 19.1903 126.13 19.1471C125.992 19.0953 125.849 19.0435 125.703 18.9917C125.564 18.9313 125.422 18.8708 125.275 18.8104C125.137 18.75 124.999 18.6852 124.861 18.6161C124.731 18.5384 124.597 18.465 124.459 18.3959C124.33 18.3182 124.2 18.2362 124.071 18.1499C123.941 18.0722 123.816 17.9858 123.695 17.8908C123.566 17.8045 123.44 17.7138 123.319 17.6189C123.199 17.5239 123.082 17.4246 122.97 17.321C122.858 17.226 122.745 17.1267 122.633 17.0231C122.521 16.9108 122.413 16.7986 122.309 16.6863C122.206 16.5741 122.102 16.4619 121.998 16.3496C121.903 16.2287 121.808 16.1078 121.713 15.987C121.619 15.8661 121.528 15.7452 121.442 15.6243C121.355 15.4948 121.269 15.3653 121.182 15.2358C121.105 15.1063 121.027 14.9767 120.949 14.8472C120.88 14.7091 120.811 14.5709 120.742 14.4328C120.673 14.3033 120.608 14.1651 120.548 14.0183C120.487 13.8802 120.427 13.7377 120.367 13.5909C120.315 13.4528 120.263 13.3103 120.211 13.1635C120.168 13.0168 120.125 12.87 120.082 12.7232C120.047 12.5764 120.013 12.4296 119.978 12.2828C119.943 12.1274 119.913 11.9763 119.887 11.8295C119.861 11.6741 119.84 11.523 119.823 11.3762C119.805 11.2208 119.792 11.0654 119.784 10.91C119.766 10.7632 119.758 10.6121 119.758 10.4567C119.758 10.3012 119.758 10.1501 119.758 10.0034C119.766 9.84794 119.775 9.69253 119.784 9.53711C119.792 9.38169 119.81 9.23059 119.836 9.0838C119.853 8.92839 119.874 8.77728 119.9 8.6305C119.926 8.47508 119.956 8.32398 119.991 8.1772C120.025 8.03041 120.064 7.88363 120.108 7.73685C120.151 7.59006 120.194 7.44327 120.237 7.29649C120.289 7.14971 120.341 7.00724 120.392 6.86909C120.453 6.72231 120.513 6.57984 120.574 6.44169C120.634 6.30354 120.699 6.16539 120.768 6.02724C120.837 5.88909 120.91 5.75526 120.988 5.62574C121.066 5.48759 121.144 5.35376 121.221 5.22425C121.308 5.09473 121.394 4.96953 121.48 4.84865C121.567 4.71914 121.657 4.59394 121.752 4.47306C121.847 4.35218 121.947 4.23561 122.05 4.12337C122.154 4.01112 122.257 3.89888 122.361 3.78663C122.465 3.67438 122.573 3.56645 122.685 3.46284C122.797 3.35923 122.909 3.25561 123.022 3.152C123.142 3.05702 123.263 2.96205 123.384 2.86707C123.505 2.77209 123.626 2.68143 123.747 2.59509C123.876 2.50011 124.006 2.41377 124.135 2.33606C124.265 2.25835 124.394 2.18064 124.524 2.10293C124.662 2.02522 124.8 1.95183 124.938 1.88275C125.068 1.81368 125.206 1.74892 125.353 1.68848C125.491 1.62804 125.629 1.57192 125.767 1.52011C125.914 1.45967 126.061 1.40786 126.208 1.36469C126.354 1.31289 126.501 1.26972 126.648 1.23518C126.795 1.19201 126.942 1.15315 127.088 1.11862C127.244 1.08408 127.395 1.05386 127.542 1.02795C127.688 1.00205 127.84 0.980464 127.995 0.963195C128.15 0.945926 128.301 0.932976 128.448 0.924342C128.604 0.907073 128.759 0.898438 128.915 0.898438Z" fill="#F4BA45"/>
<defs>
<linearGradient id="paint0_linear_40_5327" x1="218.052" y1="164.325" x2="268.359" y2="78.0145" gradientUnits="userSpaceOnUse">
<stop stop-color="#FA9A33"/>
<stop offset="1" stop-color="#FAC04F"/>
</linearGradient>
<linearGradient id="paint1_linear_40_5327" x1="39.8599" y1="167.686" x2="31.0288" y2="130.639" gradientUnits="userSpaceOnUse">
<stop stop-color="#0CA2D2"/>
<stop offset="1" stop-color="#4CCCE5"/>
</linearGradient>
<linearGradient id="paint2_linear_40_5327" x1="82.0403" y1="186.657" x2="95.2998" y2="145.547" gradientUnits="userSpaceOnUse">
<stop stop-color="#04A3D2"/>
<stop offset="1" stop-color="#4CCEE4"/>
</linearGradient>
</defs>
</svg>
