<svg width="257" height="172" viewBox="0 0 257 172" fill="none" xmlns="http://www.w3.org/2000/svg">
<path d="M134.918 137.59C125.497 137.59 117.852 145.236 117.852 154.657C117.852 164.077 125.497 171.655 134.918 171.655C144.339 171.655 151.985 164.077 151.985 154.657C151.985 145.236 144.339 137.59 134.918 137.59Z" fill="#A7C328"/>
<path d="M196.494 69.5273C196.494 69.5273 198.269 138.136 159.356 131.445C159.356 131.445 166.047 103.524 183.045 90.417C183.045 90.417 159.698 101.749 153.69 128.578C153.69 128.578 129.592 87.2085 196.494 69.5273Z" fill="#A7C328"/>
<path d="M206.665 28.8438C206.665 28.8438 207.621 66.6635 186.253 62.9089C186.253 62.9089 189.94 47.5489 199.292 40.3126C199.292 40.3126 186.39 46.5931 183.113 61.407C183.113 61.407 169.869 38.6059 206.665 28.8438Z" fill="#A7C328"/>
<path d="M242.917 23.2422C242.917 23.2422 238.479 60.7889 217.795 54.0305C217.795 54.0305 223.666 39.3532 233.974 33.5505C233.974 33.5505 220.321 37.9196 214.927 52.0508C214.927 52.0508 205.097 27.6113 242.917 23.2422Z" fill="#EBBC02"/>
<path d="M256.501 57.376C256.501 57.376 240.595 110.761 212.264 95.8103C212.264 95.8103 224.484 75.9446 240.868 70.0737C240.868 70.0737 219.978 72.9409 208.646 92.1921C208.646 92.1921 200.454 54.2358 256.501 57.376Z" fill="#E95F53"/>
<path d="M251.245 116.225C251.245 116.225 211.855 166.879 187.757 138.958C187.757 138.958 209.192 122.71 229.194 123.325C229.194 123.325 205.642 117.659 185.367 133.565C185.367 133.565 192.467 89.3963 251.245 116.225Z" fill="#E95F53"/>
<path d="M204.617 169.062C204.617 169.062 171.781 170.496 174.648 151.791C174.648 151.791 188.097 154.795 194.514 162.782C194.514 162.782 188.848 151.723 175.945 149.06C175.945 149.06 195.538 137.182 204.617 169.062Z" fill="#EBBC02"/>
<path d="M73.4089 69.5273C73.4089 69.5273 71.634 138.136 110.546 131.445C110.546 131.445 103.788 103.524 86.8575 90.417C86.8575 90.417 110.205 101.749 116.212 128.578C116.212 128.578 140.242 87.2085 73.4089 69.5273Z" fill="#A7C328"/>
<path d="M63.5097 30.957C63.5097 30.957 62.4858 68.7769 83.9215 65.0222C83.9215 65.0222 80.2351 49.6621 70.8826 42.4258C70.8826 42.4258 83.7167 48.7064 87.0618 63.5203C87.0618 63.5203 100.306 40.7192 63.5097 30.957Z" fill="#A7C328"/>
<path d="M30.9473 26.7969C30.9473 26.7969 35.3846 64.2753 56.0694 57.5852C56.0694 57.5852 50.1985 42.8396 39.8902 37.1051C39.8902 37.1051 53.5436 41.406 58.9367 55.6055C58.9367 55.6055 68.7671 31.0977 30.9473 26.7969Z" fill="#EBBC02"/>
<path d="M13.4023 57.376C13.4023 57.376 29.3085 110.761 57.571 95.8103C57.571 95.8103 45.4195 75.9446 29.0354 70.0737C29.0354 70.0737 49.8568 72.9409 61.2574 92.1921C61.2574 92.1921 69.3811 54.2358 13.4023 57.376Z" fill="#E95F53"/>
<path d="M18.5898 116.225C18.5898 116.225 57.9798 166.879 82.1463 138.958C82.1463 138.958 60.7105 122.71 40.7083 123.325C40.7083 123.325 64.2604 117.659 84.5356 133.565C84.5356 133.565 77.3676 89.3963 18.5898 116.225Z" fill="#E95F53"/>
<path d="M65.2852 169.062C65.2852 169.062 98.1215 170.496 95.2543 151.791C95.2543 151.791 81.8057 154.795 75.3887 162.782C75.3887 162.782 80.9865 151.723 93.9572 149.06C93.9572 149.06 74.3646 137.182 65.2852 169.062Z" fill="#EBBC02"/>
<path d="M0.5 95.0614C0.5 95.0614 20.0926 113.835 28.4894 100.659C28.4894 100.659 18.5224 95.198 10.1939 96.6316C10.1939 96.6316 19.683 92.8769 29.1721 98.27C29.1721 98.27 23.5059 80.1793 0.5 95.0614Z" fill="#43B9B1"/>
<path d="M100.102 41.2656C100.102 41.2656 98.941 87.1409 124.951 82.6353C124.951 82.6353 120.513 63.9985 109.113 55.192C109.113 55.192 124.746 62.7696 128.774 80.7921C128.774 80.7921 144.885 53.0758 100.102 41.2656Z" fill="#43B9B1"/>
<path d="M169.734 41.2656C169.734 41.2656 170.895 87.1409 144.885 82.6353C144.885 82.6353 149.391 63.9985 160.723 55.192C160.723 55.192 145.158 62.7696 141.131 80.7921C141.131 80.7921 125.02 53.0758 169.734 41.2656Z" fill="#43B9B1"/>
<path d="M81.4652 3.58594C81.4652 3.58594 80.8508 27.4111 94.2994 25.09C94.2994 25.09 91.9783 15.3961 86.1074 10.8222C86.1074 10.8222 94.1629 14.7817 96.2791 24.066C96.2791 24.066 104.608 9.72995 81.4652 3.58594Z" fill="#E95F53"/>
<path d="M188.439 3.58594C188.439 3.58594 189.053 27.4111 175.536 25.09C175.536 25.09 177.926 15.3961 183.797 10.8222C183.797 10.8222 175.673 14.7817 173.625 24.066C173.625 24.066 165.296 9.72995 188.439 3.58594Z" fill="#E95F53"/>
<path d="M155.535 0.101562C155.535 0.101562 127.136 19.7624 141.404 33.5523C141.404 33.5523 150.756 22.5614 151.029 11.7752C151.029 11.7752 153.419 24.6093 144.271 35.0542C144.271 35.0542 168.233 32.5283 155.535 0.101562Z" fill="#43B9B1"/>
<path d="M114.301 0.101562C114.301 0.101562 142.7 19.7624 128.433 33.5523C128.433 33.5523 119.08 22.5614 118.807 11.7752C118.807 11.7752 116.486 24.6093 125.634 35.0542C125.634 35.0542 101.672 32.5283 114.301 0.101562Z" fill="#43B9B1"/>
<path d="M188.439 3.58594C188.439 3.58594 189.053 27.4111 175.536 25.09C175.536 25.09 177.926 15.3961 183.797 10.8222C183.797 10.8222 175.673 14.7817 173.625 24.066C173.625 24.066 165.296 9.72995 188.439 3.58594Z" fill="#E95F53"/>
</svg>
