<svg width="174" height="262" viewBox="0 0 174 262" fill="none" xmlns="http://www.w3.org/2000/svg">
<path d="M87.2445 150.62V166.457" stroke="#211915" stroke-width="8" stroke-linejoin="bevel"/>
<path d="M87.2445 181.135V196.876" stroke="#211915" stroke-width="8" stroke-linejoin="bevel"/>
<path d="M70.7314 165.588V181.425" stroke="#211915" stroke-width="8" stroke-linejoin="bevel"/>
<path d="M70.7314 192.724V208.561" stroke="#211915" stroke-width="8" stroke-linejoin="bevel"/>
<path d="M103.082 165.588V181.425" stroke="#211915" stroke-width="8" stroke-linejoin="bevel"/>
<path d="M103.082 192.724V208.561" stroke="#211915" stroke-width="8" stroke-linejoin="bevel"/>
<path d="M4.09998 118.463V259.838L44.5617 195.234C58.9502 172.251 66.5791 145.599 66.5791 118.463C66.5791 101.274 52.5768 87.272 35.3878 87.272C18.1023 87.272 4.09998 101.274 4.09998 118.463Z" stroke="#211915" stroke-width="8" stroke-linejoin="bevel"/>
<path d="M169.616 118.463V259.838L129.155 195.234C114.766 172.251 107.137 145.599 107.137 118.463C107.137 101.274 121.14 87.272 138.329 87.272C155.614 87.272 169.616 101.274 169.616 118.463Z" stroke="#211915" stroke-width="8" stroke-linejoin="bevel"/>
<path d="M35.3878 89.8793V56.3704C35.3878 27.883 58.4674 4.90002 86.8582 4.90002C115.346 4.90002 138.329 27.883 138.329 56.3704V89.8793" stroke="#211915" stroke-width="8" stroke-linejoin="bevel"/>
<path d="M43.0167 196.876C62.5233 230.674 111.193 230.674 130.7 196.876" stroke="#211915" stroke-width="8" stroke-linejoin="bevel"/>
<path d="M65.4202 219.859V260.9" stroke="#211915" stroke-width="8" stroke-miterlimit="10"/>
<path d="M77.6843 257.134L65.4202 238.11L53.2528 257.134" stroke="#211915" stroke-width="8" stroke-miterlimit="10"/>
<path d="M108.296 219.859V260.9" stroke="#211915" stroke-width="8" stroke-miterlimit="10"/>
<path d="M120.464 257.134L108.296 238.11L96.0321 257.134" stroke="#211915" stroke-width="8" stroke-miterlimit="10"/>
<path d="M76.1392 49.321C76.1392 56.7567 70.0555 62.8404 62.6198 62.8404C55.1841 62.8404 49.1969 56.7567 49.1969 49.321C49.1969 41.8853 55.1841 35.8981 62.6198 35.8981C70.0555 35.8981 76.1392 41.8853 76.1392 49.321Z" stroke="#211915" stroke-width="8" stroke-linejoin="bevel"/>
<path d="M66.3859 49.321C66.3859 51.3489 64.6477 52.9906 62.6198 52.9906C60.5919 52.9906 58.9503 51.3489 58.9503 49.321C58.9503 47.2931 60.5919 45.6514 62.6198 45.6514C64.6477 45.6514 66.3859 47.2931 66.3859 49.321Z" fill="#211915"/>
<path d="M97.5772 49.321C97.5772 56.7567 103.661 62.8404 111.097 62.8404C118.532 62.8404 124.519 56.7567 124.519 49.321C124.519 41.8853 118.532 35.8981 111.097 35.8981C103.661 35.8981 97.5772 41.8853 97.5772 49.321Z" stroke="#211915" stroke-width="8" stroke-linejoin="bevel"/>
<path d="M107.427 49.321C107.427 51.3489 109.069 52.9906 111.097 52.9906C113.125 52.9906 114.766 51.3489 114.766 49.321C114.766 47.2931 113.125 45.6514 111.097 45.6514C109.069 45.6514 107.427 47.2931 107.427 49.321Z" fill="#211915"/>
<path d="M97.5772 49.321V83.1196L86.8582 106.779L76.1393 83.1196V49.321" stroke="#211915" stroke-width="8" stroke-linejoin="bevel"/>
<path d="M48.1347 44.2995H38.478" stroke="#211915" stroke-width="8" stroke-linejoin="bevel"/>
<path d="M125.582 44.2995H135.238" stroke="#211915" stroke-width="8" stroke-linejoin="bevel"/>
<path d="M76.1393 81.9608H97.5772" stroke="#211915" stroke-width="8" stroke-linejoin="bevel"/>
<path d="M65.3237 113.055L66.1928 113.925C77.7809 125.513 96.7081 125.513 108.393 113.925" stroke="#211915" stroke-width="8" stroke-linejoin="bevel"/>
</svg>
