<svg width="257" height="239" viewBox="0 0 257 239" fill="none" xmlns="http://www.w3.org/2000/svg">
<path d="M256.302 14.1719V27.2404H184.664C179.665 27.2404 175.283 30.5885 173.972 35.4024L164.437 70.3339L162.94 75.8113L161.119 82.4304L156.768 98.3995C152.201 98.5384 147.542 99.0012 142.82 99.7727L150.072 73.2037L154.624 56.5557L159.515 38.6116L162.369 28.1507C162.909 26.2066 163.727 24.386 164.791 22.7659C164.93 22.5499 165.069 22.3339 165.239 22.1179C166.458 20.4207 167.939 18.924 169.636 17.7206C170.027 17.4429 170.428 17.1754 170.84 16.9183C173.74 15.1593 177.135 14.1719 180.699 14.1719H256.302Z" fill="#40B93C"/>
<path d="M189.493 93.879L185.744 136.417C174.095 139.225 158.604 132.313 140.676 116.267C128.996 105.806 117.733 99.4952 107.179 97.5049C100.344 96.2243 93.8174 96.7334 87.7075 99.0015L84.2051 59.4566C96.0392 52.7913 113.86 51.8964 138.377 73.852C163.079 95.9928 179.341 97.7826 189.493 93.879Z" fill="#F68712"/>
<path d="M185.111 143.607L181.331 186.423C170.299 186.824 156.429 179.773 140.675 165.671C128.996 155.21 117.732 148.9 107.179 146.925C101.902 145.922 96.8105 145.999 91.9503 147.141L88.3398 106.223C101.917 100.097 117.948 105.204 136.062 121.42C147.711 131.85 158.573 138.747 168.324 141.91C172.552 143.283 176.594 143.962 180.421 143.962C182.015 143.962 183.579 143.844 185.111 143.607Z" fill="#3871C1"/>
<path d="M180.713 193.366L179.047 212.221C178.738 215.677 175.899 218.285 172.412 218.285H104.323C100.852 218.285 97.9975 215.677 97.6889 212.221L92.5664 154.115C105.203 150.659 119.799 156.259 136.061 170.825C147.71 181.27 158.572 188.167 168.323 191.314C172.551 192.688 176.593 193.366 180.42 193.366C180.512 193.366 180.61 193.366 180.713 193.366Z" fill="#B2164F"/>
<path d="M185.744 136.415C170.469 135.351 157.632 120.801 130.94 88.184C109.401 61.8465 92.1819 59.3006 86.3497 59.3006C84.9611 59.3006 84.2051 59.4549 84.2051 59.4549C88.6178 56.9708 93.8483 55.2891 99.9428 55.2891C110.234 55.2891 122.978 60.0721 138.377 73.8503C156.722 90.2978 170.423 95.5128 180.406 95.5128C183.862 95.5128 186.886 94.8802 189.493 93.8773L185.744 136.415Z" fill="#F9A60D"/>
<path d="M181.331 186.423C165.146 183.46 148.205 164.189 127.067 134.889C106.793 106.793 89.7748 106.222 88.4324 106.222C88.3707 106.222 88.3398 106.222 88.3398 106.222C92.0428 104.556 95.9464 103.723 100.004 103.723C110.836 103.723 122.901 109.632 136.062 121.42C147.711 131.85 158.573 138.747 168.324 141.91C172.552 143.283 176.594 143.962 180.421 143.962C182.015 143.962 183.579 143.844 185.111 143.607L181.331 186.423Z" fill="#4CC5F3"/>
<path d="M172.417 218.29C153.436 218.29 136.121 207.454 127.828 190.38C126.373 187.385 124.832 184.293 123.093 181.134C109.498 156.414 92.5664 154.111 92.5664 154.111C94.9764 153.454 97.4564 153.125 100.006 153.125C110.831 153.125 122.899 159.041 136.063 170.831C147.716 181.266 158.572 188.16 168.328 191.32C172.551 192.69 176.592 193.373 180.415 193.373C180.516 193.373 180.616 193.372 180.715 193.369L179.05 212.212C178.744 215.678 175.891 218.29 172.417 218.29Z" fill="url(#paint0_linear_40_4790)"/>
<path d="M152.417 49.6572L147.032 69.3756C144.964 66.4132 143.221 63.0959 141.987 59.3775C139.348 51.4315 139.765 44.9359 141.709 40.2917C141.791 40.1066 141.873 39.9162 141.956 39.7208C142.059 39.4945 142.172 39.2682 142.295 39.0419C142.501 38.6305 142.722 38.2396 142.959 37.8693C143.082 37.6533 143.205 37.4682 143.344 37.2676C143.375 37.2367 143.391 37.1904 143.437 37.1442C143.56 36.959 143.684 36.7893 143.823 36.6196C143.946 36.4344 144.1 36.2647 144.239 36.095C144.424 35.8635 144.625 35.6475 144.841 35.4315C145.042 35.2309 145.258 35.0149 145.474 34.8298C145.751 34.5829 146.029 34.3515 146.307 34.1355C146.692 33.8577 147.094 33.5954 147.479 33.3794C147.716 33.2457 147.947 33.1274 148.174 33.0246C148.529 32.8549 148.899 32.716 149.254 32.608C149.501 32.5308 149.732 32.4537 149.979 32.392C150.092 32.3714 150.21 32.3508 150.334 32.3303C150.488 32.2994 150.642 32.2737 150.797 32.2531C150.951 32.2377 151.121 32.2223 151.275 32.2068C151.445 32.2068 151.599 32.1914 151.769 32.1914C151.985 32.1914 152.206 32.2017 152.432 32.2223C152.463 32.2223 152.525 32.2377 152.556 32.2377C152.679 32.2531 152.787 32.2685 152.91 32.284C152.91 32.284 152.91 32.284 152.926 32.284C153.003 32.2994 153.08 32.3148 153.173 32.3303C153.45 32.3766 153.744 32.4537 154.006 32.5617C154.206 32.6234 154.392 32.6851 154.577 32.7623C154.608 32.7623 154.623 32.7777 154.638 32.7931C154.772 32.8446 154.901 32.9011 155.024 32.9629C155.158 33.0246 155.286 33.0966 155.41 33.1789C155.518 33.2406 155.641 33.3177 155.749 33.3949C155.904 33.4874 156.058 33.5955 156.197 33.7189C156.361 33.832 156.516 33.9555 156.66 34.0892L152.417 49.6417V49.6572Z" fill="#F68712"/>
<path d="M180.714 90.8692C180.452 90.8075 173.046 89.1103 164.637 84.497L165.886 79.9608L166.889 76.2578C169.636 81.4729 173.894 86.1942 180.714 90.8692Z" fill="#F68712"/>
<path d="M138.376 67.8191C126.805 54.0871 115.804 50.6156 97.2886 45.7554C96.9286 45.6628 96.5789 45.56 96.2395 45.4468C92.3205 44.2125 90.1758 42.2376 89.4815 40.1392C87.4449 33.9521 98.2144 26.7004 113.752 34.3224C133.516 44.0119 138.376 67.8191 138.376 67.8191Z" fill="#CBE310"/>
<path d="M170.808 12.4748C166.812 14.388 163.402 17.443 161.088 21.2849C160.79 21.7683 160.512 22.262 160.255 22.7661C160.162 22.9358 160.085 23.1055 159.993 23.2752C159.005 23.2444 158.049 23.0746 157.154 22.7661C156.999 22.7198 156.86 22.6735 156.737 22.6272C152.803 21.1306 150.025 17.335 150.025 12.8914C150.025 8.44784 152.803 4.6677 156.737 3.17107C156.881 3.11964 157.035 3.06821 157.2 3.01678C158.203 2.67734 159.298 2.49219 160.425 2.49219C161.551 2.49219 162.646 2.67734 163.665 3.01678C163.711 3.03221 163.773 3.04763 163.819 3.06306C167.769 4.42082 170.639 8.10838 170.808 12.4748Z" fill="#80CC28"/>
<path d="M170.809 12.4743C166.813 14.3875 163.403 17.4424 161.088 21.2843C158.496 19.4019 156.83 16.3316 156.83 12.8909C156.83 8.33927 159.746 4.46655 163.819 3.0625C167.769 4.42026 170.639 8.10783 170.809 12.4743Z" fill="#CBE310"/>
<path d="M138.639 31.0519C138.639 34.7395 135.661 37.7173 131.974 37.7173C128.286 37.7173 125.293 34.7395 125.293 31.0519C125.293 27.3644 128.286 24.3711 131.974 24.3711C135.661 24.3711 138.639 27.3644 138.639 31.0519Z" fill="#F68712"/>
<path d="M185.112 67.8175C185.112 71.5051 182.119 74.4983 178.431 74.4983C174.743 74.4983 171.766 71.5051 171.766 67.8175C171.766 64.13 174.743 61.1367 178.431 61.1367C182.119 61.1367 185.112 64.13 185.112 67.8175Z" fill="#40B93C"/>
<path d="M188.814 40.477C188.814 42.8222 186.9 44.7354 184.555 44.7354C182.194 44.7354 180.281 42.8222 180.281 40.477C180.281 38.1163 182.194 36.2031 184.555 36.2031C186.9 36.2031 188.814 38.1163 188.814 40.477Z" fill="#40B93C"/>
<path d="M104.818 238.695C98.832 238.695 93.2466 236.967 88.6796 233.711C82.184 229.082 78.0644 221.908 77.3701 214.008L63.561 57.464C63.4221 55.844 63.9467 54.3011 65.0268 53.0976C66.1222 51.9095 67.6189 51.2461 69.2389 51.2461C72.2167 51.2461 74.67 53.4833 74.9322 56.4457L88.7413 213.005C89.4665 221.136 96.1627 227.277 104.325 227.277H172.413C180.591 227.277 187.287 221.136 187.997 213.005L201.821 56.4457C202.084 53.4833 204.522 51.2461 207.499 51.2461C209.119 51.2461 210.616 51.9095 211.711 53.0976C212.807 54.3011 213.332 55.844 213.193 57.464L199.368 214.008C198.674 221.954 194.508 229.159 187.966 233.773C183.414 236.997 177.953 238.695 172.151 238.695H104.818Z" fill="#40B93C"/>
<path d="M156.66 34.0892L152.417 49.6417C152.247 49.0863 152.062 48.5309 151.892 47.9908C149.809 41.5106 147.125 39.5048 144.594 39.5048C143.591 39.5048 142.619 39.8134 141.709 40.2917C141.791 40.1066 141.874 39.9162 141.956 39.7208C142.059 39.4945 142.172 39.2682 142.295 39.0419C142.501 38.6305 142.722 38.2396 142.959 37.8693C143.082 37.6533 143.206 37.4682 143.344 37.2676C143.375 37.2367 143.391 37.1904 143.437 37.1442C143.56 36.959 143.684 36.7893 143.823 36.6196C143.946 36.4344 144.1 36.2647 144.239 36.095C144.424 35.8635 144.625 35.6475 144.841 35.4315C145.042 35.2309 145.258 35.0149 145.474 34.8298C145.751 34.5829 146.029 34.3515 146.307 34.1355C146.693 33.8577 147.094 33.5954 147.479 33.3794C147.716 33.2457 147.947 33.1274 148.174 33.0246C148.529 32.8549 148.899 32.716 149.254 32.608C149.501 32.5308 149.732 32.4537 149.979 32.392C150.092 32.3714 150.21 32.3508 150.334 32.3303C150.488 32.2994 150.642 32.2737 150.797 32.2531C150.951 32.2377 151.121 32.2223 151.275 32.2068C151.445 32.2068 151.599 32.1914 151.769 32.1914C151.985 32.1914 152.206 32.2017 152.432 32.2223C152.463 32.2223 152.525 32.2377 152.556 32.2377C152.679 32.2531 152.787 32.2685 152.911 32.284C152.911 32.284 152.911 32.284 152.926 32.284C153.003 32.2994 153.08 32.3148 153.173 32.3303C153.451 32.3766 153.744 32.4537 154.006 32.5617C154.207 32.6234 154.392 32.6851 154.577 32.7623C154.608 32.7623 154.623 32.7777 154.639 32.7931C154.772 32.8446 154.901 32.9011 155.024 32.9629C155.158 33.0246 155.287 33.0966 155.41 33.1789C155.518 33.2406 155.641 33.3177 155.749 33.3949C155.904 33.4874 156.058 33.5955 156.197 33.7189C156.361 33.832 156.516 33.9555 156.66 34.0892Z" fill="#F9A60D"/>
<path d="M180.714 90.8692C174.342 88.416 169.59 84.5895 165.887 79.9608L166.89 76.2578C169.636 81.4729 173.894 86.1942 180.714 90.8692Z" fill="#F9A60D"/>
<path d="M138.373 67.8176C128.485 48.5913 113.991 41.2023 103.274 38.4328C101.14 37.882 99.1928 37.6413 97.4554 37.6413C93.791 37.6413 91.0601 38.7059 89.4832 40.1424C89.3186 39.6383 89.2363 39.1307 89.2363 38.6195C89.2332 34.7869 93.7802 31.0469 101.038 31.0469C104.673 31.0469 108.989 31.985 113.753 34.3194C133.509 44.0027 138.373 67.8176 138.373 67.8176Z" fill="#80CC28"/>
<path d="M35.5861 19.3711C35.7867 19.5562 47.8985 28.968 55.2582 47.3132C27.2852 58.0827 22.7953 32.5012 18.5215 15.4675C16.3151 6.71916 12.6275 0.871529 12.5195 0.701809C13.3373 0.670951 74.5755 -1.18056 61.7693 42.561C57.912 33.859 52.2958 25.2187 35.5861 19.3711Z" fill="#80CC28"/>
<path d="M16.6094 97.0867C7.35189 96.4232 0.485931 98.1359 0.300781 98.1821C0.532218 97.3798 18.322 37.3605 56.8022 63.7597C47.0973 64.7318 36.8832 67.401 25.8514 81.7655C26.0983 81.6267 39.1205 72.8938 59.3326 71.6132C60.8755 102.209 34.538 98.3827 16.6094 97.0867Z" fill="#80CC28"/>
<path d="M43.2235 49.8758C25.804 49.8758 22.0856 29.6945 18.5215 15.4688C16.3151 6.72048 12.6275 0.872845 12.5195 0.703125C12.7047 0.872845 20.1569 6.50447 27.9024 25.2817C36.4192 45.9568 50.6912 47.3454 54.3633 47.3454C54.9342 47.3454 55.2582 47.3145 55.2582 47.3145C50.6449 49.0889 46.6642 49.8758 43.2235 49.8758Z" fill="#CBE310"/>
<path d="M16.6094 97.0868C7.35189 96.4233 0.485931 98.136 0.300781 98.1823C0.516789 97.9971 9.0028 92.0414 26.3297 91.5323C45.2921 90.9614 58.8234 80.1919 59.3326 71.6133C60.8755 102.209 34.538 98.3828 16.6094 97.0868Z" fill="#CCE310"/>
<defs>
<linearGradient id="paint0_linear_40_4790" x1="92.5661" y1="218.296" x2="180.716" y2="218.296" gradientUnits="userSpaceOnUse">
<stop stop-color="#EC0283"/>
<stop offset="0.063" stop-color="#EC0283"/>
<stop offset="0.094" stop-color="#EC0283"/>
<stop offset="0.125" stop-color="#EB0283"/>
<stop offset="0.188" stop-color="#EB0283"/>
<stop offset="0.203" stop-color="#EB0283"/>
<stop offset="0.219" stop-color="#EB0282"/>
<stop offset="0.25" stop-color="#EB0282"/>
<stop offset="0.281" stop-color="#EA0282"/>
<stop offset="0.313" stop-color="#EA0282"/>
<stop offset="0.375" stop-color="#EA0282"/>
<stop offset="0.438" stop-color="#E90282"/>
<stop offset="0.469" stop-color="#E90281"/>
<stop offset="0.5" stop-color="#E80281"/>
<stop offset="0.563" stop-color="#E80281"/>
<stop offset="0.578" stop-color="#E80281"/>
<stop offset="0.594" stop-color="#E70280"/>
<stop offset="0.625" stop-color="#E70280"/>
<stop offset="0.656" stop-color="#E70280"/>
<stop offset="0.688" stop-color="#E70280"/>
<stop offset="0.75" stop-color="#E60280"/>
<stop offset="0.813" stop-color="#E60280"/>
<stop offset="0.844" stop-color="#E6027F"/>
<stop offset="0.875" stop-color="#E5027F"/>
<stop offset="1" stop-color="#E5027F"/>
</linearGradient>
</defs>
</svg>
