<svg width="257" height="127" viewBox="0 0 257 127" fill="none" xmlns="http://www.w3.org/2000/svg">
<path fill-rule="evenodd" clip-rule="evenodd" d="M165.175 0.0456432C171.259 -0.128634 177.248 1.88347 182.413 5.02046C188.212 8.66444 193.408 13.4174 197.179 19.1686C204.245 20.0875 210.678 23.8266 215.637 28.8489C222.94 36.2478 227.646 46.2449 228.295 56.654C217.554 56.6065 206.828 56.6382 196.102 56.6223C192.347 56.7016 188.671 55.1014 186.009 52.4872C184.758 52.4238 183.506 52.3288 182.27 52.2812C183.68 54.23 185.233 56.2104 187.372 57.4145C190.113 58.9672 193.25 59.8544 196.403 59.8544C206.4 59.9336 216.381 59.8861 226.378 59.9336C222.94 64.1321 218.171 66.9522 213.26 69.1228C204.752 72.7984 195.515 74.5887 186.295 75.2383C182.445 71.8954 178.674 68.3623 175.727 64.1638C172.352 59.5692 170.166 54.1983 168.661 48.7165C166.427 40.7473 165.714 32.4453 165.112 24.2068C159.218 31.8116 152.58 38.7985 145.815 45.627C143.787 47.7025 141.569 49.6196 139.747 51.8852C138.669 53.1526 138.4 54.832 137.972 56.4005C134.756 59.9811 132.633 64.3697 130.985 68.8693C128.688 62.5319 128.07 55.7351 127.389 49.065C126.581 41.2384 126.803 33.3484 126.771 25.4901C126.787 18.1863 126.803 10.8984 126.866 3.6104C141.252 5.92353 155.384 12.4035 165.175 23.4146C165.196 15.6197 165.196 7.83002 165.175 0.0456432ZM194.137 23.2562C189.4 24.3177 185.344 28.0884 184.156 32.8097C183.269 36.0418 183.791 39.5749 185.439 42.49C188.069 47.0846 193.63 49.8572 198.906 49.0492C203.58 48.3996 207.683 44.9616 209.315 40.573C210.171 38.3074 210.281 35.8041 209.901 33.4276C209.062 29.3559 206.13 25.7753 202.312 24.1593C199.761 22.9868 196.862 22.8126 194.137 23.2562Z" fill="#419303"/>
<path d="M54.13 95.1389C57.4413 91.9861 62.4161 90.9088 66.8364 91.9069C73.7917 93.4437 79.4319 99.9712 79.4794 107.18C79.7329 113.026 76.7068 118.761 72.0172 122.184C68.1673 125.146 63.2558 126.651 58.4077 126.445C51.9753 126.287 45.8439 123.451 41.0117 119.3C42.5168 116.052 44.6874 113.121 47.2382 110.602C50.692 114.69 55.7144 117.906 61.2437 117.684C66.5988 117.827 71.8271 113.644 72.5242 108.257C73.348 103.441 70.0368 98.1333 65.1095 97.2936C60.7526 96.1688 55.9362 99.2265 55.1282 103.663C54.2726 107.481 57.7265 111.473 61.6081 111.299C63.9529 111.363 66.3136 109.572 66.5671 107.18C66.7414 105.58 66.0126 103.995 64.7609 102.997C64.9986 102.284 65.3313 101.619 65.7274 100.985C66.7889 101.635 67.8504 102.364 68.4683 103.473C69.7991 105.802 69.5298 108.907 67.9613 111.062C66.2185 113.47 63.1132 114.801 60.1664 114.484C56.6967 114.357 53.322 112.472 51.5159 109.477C48.8859 104.867 50.2959 98.6562 54.13 95.1389Z" fill="#419303"/>
<path d="M80.3359 10.8333C91.5847 5.06635 104.307 2.27792 116.95 2.72153C117.029 11.9582 116.728 21.1791 116.332 30.4158C115.857 45.1184 114.859 59.8211 114.621 74.5396C114.589 74.397 114.51 74.1435 114.478 74.0009L114.035 74.2385C113.956 74.0167 113.797 73.5731 113.718 73.3513C111.69 71.1174 109.963 68.63 108.204 66.1901C100.726 55.7652 95.0861 44.1995 89.6043 32.6655C86.2614 25.5043 83.2986 18.1688 80.3359 10.8333Z" fill="#419403"/>
<path d="M47.3008 37.9589C53.7173 29.5777 61.5281 22.2422 70.4321 16.5703C74.282 24.9831 77.0705 33.8237 79.1618 42.8228C70.5905 43.2347 62.3678 47.6233 57.092 54.3568C56.6008 55.0063 56.1097 55.8777 56.4741 56.7016C56.8385 57.2878 57.5356 57.4462 58.106 57.7314C59.2308 57.1452 59.8329 56.0203 60.6092 55.0856C65.489 49.4928 72.7928 45.9915 80.2392 46.039C83.0117 46.0865 85.9269 46.4984 88.2718 48.0828C90.5532 49.6196 92.0583 52.2813 92.0266 55.038C92.0583 63.0865 91.9949 71.1032 92.0583 79.1516C93.8486 79.7854 95.7498 80.4508 97.1282 81.8292C98.7442 83.3977 99.5205 85.6157 99.8849 87.7863C100.123 89.2122 100.978 90.5272 100.788 92.0165C100.471 96.0565 96.7796 99.8431 92.597 99.5738C87.7648 99.3995 83.6296 93.7117 85.8002 89.1646C86.6399 85.9801 85.2773 81.9559 81.9186 80.8944C81.9027 79.0091 81.8869 77.1237 81.8393 75.2383C75.4386 75.27 69.0379 75.2383 62.6213 75.27C60.9261 75.2066 59.3417 75.8879 57.6623 75.9513L57.4089 75.8879C56.9019 73.9709 56.8385 71.9904 56.4583 70.0575C55.3017 63.8628 54.161 57.668 52.3548 51.6159C51.0715 46.9262 49.5505 42.2683 47.3008 37.9589Z" fill="#419403"/>
<path d="M116.95 2.72266C120.277 2.78603 123.572 3.16627 126.868 3.60988C126.804 10.8978 126.788 18.1858 126.773 25.4896C126.804 33.3479 126.583 41.2379 127.391 49.0645C128.072 55.7346 128.69 62.5314 130.987 68.8688C130.322 70.9759 129.609 73.0831 129.276 75.2695C117.932 75.2695 106.572 75.2853 95.2285 75.317C95.1809 68.6786 95.2285 62.0403 95.1809 55.4177C95.2919 51.5519 93.3273 47.6862 90.1903 45.4681C87.0058 43.2025 82.9657 42.743 79.1633 42.8222C77.072 33.8232 74.2835 24.9826 70.4336 16.5698C73.5547 14.3675 76.8977 12.5139 80.3357 10.8345C83.2984 18.17 86.2611 25.5054 89.6041 32.6666C95.0859 44.2006 100.726 55.7663 108.204 66.1912C109.963 68.6311 111.69 71.1185 113.718 73.3524C113.797 73.5742 113.955 74.0179 114.035 74.2397L114.478 74.002C114.51 74.1446 114.589 74.3981 114.621 74.5407C114.858 59.8222 115.857 45.1195 116.332 30.4169C116.728 21.1802 117.029 11.9593 116.95 2.72266Z" fill="#264018"/>
<path fill-rule="evenodd" clip-rule="evenodd" d="M194.14 23.2549C196.865 22.8113 199.764 22.9856 202.315 24.158C206.133 25.774 209.064 29.3546 209.904 33.4264C210.284 35.8029 210.173 38.3061 209.318 40.5717C207.686 44.9604 203.582 48.3984 198.909 49.048C193.633 49.856 188.072 47.0834 185.442 42.4888C183.794 39.5736 183.271 36.0405 184.158 32.8085C185.347 28.0872 189.403 24.3164 194.14 23.2549ZM194.837 26.4078C192.223 26.9464 189.91 28.6575 188.531 30.9231C186.456 34.2819 186.583 38.8765 188.991 42.0293C190.733 44.3425 193.569 45.6892 196.421 45.9426C200.24 46.1961 204.042 43.9464 205.801 40.5717C206.989 38.3378 207.195 35.6603 206.609 33.2363C205.167 28.3882 199.748 25.3304 194.837 26.4078Z" fill="#FEFEFD"/>
<path d="M145.815 45.6273C152.58 38.7988 159.219 31.8119 165.112 24.207C165.714 32.4456 166.427 40.7475 168.661 48.7167C170.166 54.1985 172.353 59.5694 175.727 64.164C178.674 68.3625 182.445 71.8956 186.295 75.2385C180.322 75.5079 174.333 75.3653 168.344 75.4128C163.433 75.397 158.537 75.4128 153.642 75.4287C151.234 75.2227 148.81 75.3653 146.401 75.2861C146.401 73.2423 146.164 70.9925 147.304 69.1705C148.81 66.5247 151.883 65.3364 153.531 62.8015C154.782 60.8052 154.973 58.1594 153.927 56.0364C152.723 53.3747 149.728 51.6794 146.813 51.9488C143.344 51.9013 140.365 54.0876 137.973 56.4008C138.4 54.8323 138.67 53.1529 139.747 51.8854C141.569 49.6198 143.787 47.7028 145.815 45.6273Z" fill="#254019"/>
<path d="M47.3014 37.9609C49.5511 42.2703 51.0721 46.9283 52.3554 51.6179C54.1616 57.6701 55.3023 63.8649 56.4588 70.0596C56.8391 71.9925 56.9025 73.9729 57.4095 75.89V76.0959C55.4924 76.8564 53.5437 77.6169 51.8326 78.7735C49.1075 73.7986 45.0675 69.5209 40.1877 66.6058C37.9063 65.2115 35.3396 64.4035 32.8047 63.6589C36.2902 54.4222 41.3126 45.7876 47.3014 37.9609Z" fill="#254019"/>
<path fill-rule="evenodd" clip-rule="evenodd" d="M194.835 26.4074C199.746 25.3301 205.165 28.3878 206.606 33.2359C207.193 35.6599 206.987 38.3375 205.798 40.5714C204.04 43.946 200.237 46.1958 196.419 45.9423C193.567 45.6888 190.731 44.3421 188.989 42.029C186.58 38.8762 186.454 34.2816 188.529 30.9228C189.908 28.6572 192.221 26.9461 194.835 26.4074ZM194.819 29.2117C191.761 30.1148 189.559 33.2042 189.654 36.3887C189.622 40.3971 193.583 43.8193 197.544 43.3598C202.392 43.1063 205.846 37.3077 203.866 32.9032C202.36 29.5761 198.209 28.0551 194.819 29.2117Z" fill="#429507"/>
<path fill-rule="evenodd" clip-rule="evenodd" d="M194.82 29.2121C198.211 28.0555 202.362 29.5765 203.867 32.9036C205.847 37.3081 202.393 43.1067 197.545 43.3602C193.584 43.8197 189.624 40.3975 189.655 36.3891C189.56 33.2046 191.762 30.1152 194.82 29.2121ZM199.114 31.0341C197.118 31.7629 196.864 34.8523 198.639 35.9614C199.969 36.912 202.077 36.4684 202.726 34.9157C203.803 32.761 201.332 30.0993 199.114 31.0341Z" fill="#020201"/>
<path d="M199.114 31.0362C201.332 30.1014 203.804 32.7631 202.726 34.9178C202.077 36.4704 199.97 36.914 198.639 35.9634C196.864 34.8544 197.118 31.7649 199.114 31.0362Z" fill="white"/>
<path d="M144.834 54.5638C146.862 54.0093 149.254 54.5163 150.648 56.1481C151.71 57.3839 151.916 59.2851 151.076 60.6952C150.03 62.5805 148.05 63.5787 146.561 65.0521C145.119 66.383 144.121 68.1416 143.582 70.0269C143.075 72.039 143.218 74.1304 143.202 76.19C143.17 79.9449 143.376 83.6998 143.392 87.4705C143.249 89.0865 144.533 90.4015 144.438 92.0334C144.342 94.0455 143.297 95.915 141.918 97.3568C139.811 99.5431 136.294 100.224 133.537 98.9252C130.701 97.5785 128.721 94.4574 128.911 91.3046C128.959 90.2114 129.64 89.2766 129.735 88.1993C130.575 80.436 131.24 72.4351 134.44 65.2105C136.595 60.711 139.78 55.9897 144.834 54.5638Z" fill="#429303"/>
<path d="M240.433 63.4339C241.985 62.9586 243.633 62.911 245.249 62.8477C245.915 66.349 245.883 70.0406 244.647 73.4152C243.189 77.4236 239.973 80.8774 235.886 82.2241C234.016 82.9212 232.036 83.0955 230.071 83.3331C228.978 79.5624 229.231 75.4115 230.784 71.815C232.574 67.7908 236.187 64.5904 240.433 63.4339Z" fill="#253F18"/>
<path d="M32.8067 63.6562C35.3416 64.4009 37.9082 65.2089 40.1897 66.6031C45.0695 69.5183 49.1095 73.796 51.8346 78.7708C47.8737 81.3375 44.9744 85.3458 43.4534 89.782C38.3677 87.8016 32.6324 88.3402 27.5784 90.1781C27.3882 81.084 29.4796 72.0849 32.8067 63.6562Z" fill="#429403"/>
<path d="M153.641 75.4287C158.536 75.4128 163.432 75.397 168.343 75.4128C168.28 77.1239 168.454 78.8191 168.28 80.5144C168.195 80.9686 168.111 81.4175 168.026 81.8611C164.446 81.8135 160.849 81.972 157.285 81.7502C157.411 79.1043 155.764 76.8229 153.641 75.4287Z" fill="#449602"/>
<path d="M168.281 80.5139C169.596 79.8643 170.99 79.3098 172.495 79.2939C175.569 79.2781 178.833 78.9137 181.668 80.3713C186.754 82.6844 189.194 89.4495 186.627 94.4402C185.043 97.7039 181.431 99.8903 177.787 99.621C175.775 99.5734 173.889 98.6387 172.368 97.3712C173.937 96.1671 175.569 94.8204 176.266 92.9034C177.66 89.3069 176.092 84.9183 172.812 82.9379C171.418 81.9873 169.675 81.7655 168.027 81.8606C168.112 81.4169 168.196 80.968 168.281 80.5139Z" fill="#26401A"/>
<path d="M233.778 84.9353C241.161 85.3472 248.195 82.5429 255.103 80.2773C251.031 84.8244 245.977 88.5634 240.274 90.8132C234.824 92.9362 229.041 94.2512 223.21 94.7424C216.192 95.5187 209.126 95.2652 202.075 95.3127C197.988 95.3286 193.9 95.3286 189.812 95.3127C191.096 91.9856 191.032 88.2624 189.892 84.9036C204.515 84.9511 219.139 84.8561 233.778 84.9353Z" fill="#48342D"/>
<path d="M0.104232 95.3748C0.0725451 91.8893 0.0883885 88.4037 0.104232 84.9182C8.34279 84.9182 16.5655 84.9182 24.8041 84.9023C24.503 88.372 24.4713 91.8734 25.1051 95.3115C16.7715 95.359 8.43785 95.2798 0.104232 95.3748Z" fill="#47342C"/>
<path d="M49.6948 84.8693C60.3574 84.8535 71.02 84.9327 81.6826 84.8693C82.1737 84.901 82.2213 85.5348 82.4431 85.8833C83.0451 87.3251 82.5857 88.8777 82.2529 90.3195C81.841 91.9989 82.4114 93.6624 82.7124 95.2943C81.2231 95.2468 79.7022 95.4369 78.2287 95.12C77.3573 94.613 76.8028 93.7099 76.0265 93.0762C72.0023 89.6224 66.5363 87.737 61.2446 88.4975C57.8858 89.0045 54.5746 90.3353 52.0872 92.696C51.2791 93.4089 50.6613 94.2961 49.8374 94.9774C48.3956 95.1834 46.9381 95.0883 45.4805 95.12C46.0033 91.4443 47.3183 87.7687 49.6948 84.8693Z" fill="#49352D"/>
<path d="M102.691 84.903C110.692 84.903 118.693 84.9188 126.71 84.8555C126.662 85.8536 126.647 86.8359 126.536 87.8182C126.409 89.0223 125.791 90.1313 125.791 91.3513C125.744 92.7138 126.155 94.0446 126.631 95.3121C118.82 95.3438 111.025 95.3121 103.214 95.3596C103.61 93.601 104.292 91.7632 103.674 89.9729C103.087 88.3252 102.992 86.5982 102.691 84.903Z" fill="#48342C"/>
<path d="M146.609 84.8555C153.834 84.9188 161.059 84.8871 168.267 84.903C170.469 84.8238 172.688 86.1705 173.432 88.2776C174.319 90.6383 173.099 93.4901 170.881 94.6308C169.566 95.4071 167.982 95.2804 166.524 95.3121C159.918 95.3121 153.327 95.3755 146.72 95.2963C147.148 94.1397 147.528 92.9356 147.465 91.684C147.481 90.3373 146.736 89.1332 146.704 87.8023C146.657 86.82 146.641 85.8378 146.609 84.8555Z" fill="#47342D"/>
<path d="M27.5781 90.1784C32.6322 88.3406 38.3675 87.8019 43.4532 89.7823C41.0608 96.7693 42.5026 104.913 47.2398 110.601C44.689 113.12 42.5184 116.051 41.0133 119.299C32.854 111.947 27.9267 101.158 27.5781 90.1784Z" fill="#253F19"/>
<path d="M233.477 94.9964C237.327 93.7447 241.525 92.9526 245.454 94.2834C250.73 95.9311 254.532 100.637 256.085 105.802C253.518 107.386 250.54 108.447 247.498 108.336C242.983 108.257 238.531 105.802 236.17 101.936C234.792 99.8444 233.952 97.4362 233.477 94.9964Z" fill="#429402"/>
<path d="M219.553 105.958C218.46 102.948 218.586 99.6526 218.919 96.5156C220.884 96.6424 222.912 96.5948 224.829 97.1652C228.457 98.1633 231.736 100.556 233.543 103.883C235.586 107.606 236.141 112.137 234.984 116.241C232.814 116.066 230.596 115.94 228.536 115.163C224.369 113.658 220.979 110.157 219.553 105.958Z" fill="#243F18"/>
<path d="M59.4207 102.158C60.9258 100.32 63.635 100.193 65.7263 100.985C65.3303 101.619 64.9975 102.284 64.7599 102.997C63.5241 102.506 61.9556 102.379 60.9099 103.362C59.7692 104.328 59.5633 105.897 59.5316 107.307C58.169 105.928 58.0898 103.584 59.4207 102.158Z" fill="#3E8A11"/>
</svg>
