<svg width="237" height="257" viewBox="0 0 237 257" fill="none" xmlns="http://www.w3.org/2000/svg">
<path d="M176.722 33.6836C174.397 38.3176 171.623 42.3422 168.801 45.7896C189.485 79.1253 186.695 129.714 183.424 155.882C195.482 112.317 193.334 81.7871 188.988 63.1871C185.364 47.7138 179.816 38.1412 176.722 33.6836Z" fill="url(#paint0_linear_40_4739)"/>
<path d="M133.67 72.9664C122.125 60.0907 111.173 52.5866 105.225 49.043C106.716 56.0661 107.165 62.7204 106.94 69.0861C144.012 96.4409 165.995 141.706 174.413 161.862C166.749 117.655 148.325 89.3056 133.67 72.9664Z" fill="url(#paint1_linear_40_4739)"/>
<path d="M168.128 153.556C158.17 132.118 137.886 95.5109 106.796 71.9883C106.282 79.4604 104.904 86.5636 103.252 93.5066C131.248 109.349 156.727 139.109 168.128 153.556Z" fill="url(#paint2_linear_40_4739)"/>
<path d="M102.658 95.9453C102.017 98.5429 101.327 101.124 100.654 103.706L100.221 105.39C99.7561 107.137 99.692 109.094 99.9806 111.258C123.696 120.045 146.432 136.24 158.715 145.845C145.358 130.051 124.866 108.677 102.658 95.9453Z" fill="url(#paint3_linear_40_4739)"/>
<path d="M74.1667 208.297C60.0564 217.917 51.2695 227.65 46.9883 233.038C50.7885 232.749 54.5405 232.733 58.3407 232.974C63.8245 233.327 69.0357 234.241 74.0385 235.507C104.263 204.865 151.613 186.217 169.829 179.852C123.745 181.038 92.5262 195.774 74.1667 208.297Z" fill="url(#paint4_linear_40_4739)"/>
<path d="M76.7148 236.215C84.5076 238.396 91.8514 241.346 99.0349 244.296C118.853 215.514 144.926 195.824 159.244 186.348C137.309 194.958 101.488 211.618 76.7148 236.215Z" fill="url(#paint5_linear_40_4739)"/>
<path d="M131.393 240.767C120.875 246.524 108.913 250.933 100.687 247.566C82.7765 240.238 65.2508 232.67 41.8405 236.037C41.8405 236.037 78.6717 176.742 177.3 177.367C177.3 177.367 66.8222 151.487 16.7305 250.773C16.7305 250.773 54.7001 236.711 91.9322 254.669C104.503 260.714 123.039 252.425 131.393 240.767Z" fill="url(#paint6_linear_40_4739)"/>
<path d="M177.46 178.938C161.73 187.596 119.72 218.687 101.312 245.224L101.601 245.336C102.884 245.865 104.359 246.186 105.963 246.282C112.617 246.715 122.045 243.476 133.109 237.046C146.498 206.356 175.232 181.15 177.46 178.938Z" fill="url(#paint7_linear_40_4739)"/>
<path fill-rule="evenodd" clip-rule="evenodd" d="M218.188 154.983C211.341 157.437 209.497 173.102 189.951 191.911C158.572 222.088 130.992 254.461 130.992 254.461C151.356 200.361 175.504 194.781 186.696 178.538C195.082 166.368 202.057 152.081 204.831 146.148C206.13 143.391 208.695 141.434 211.678 141.001C223.158 121.76 221.202 104.924 217.53 94.1486C216.761 91.9038 214.901 90.2362 212.624 89.5948C212.463 89.5414 212.303 89.4826 212.143 89.4185C209.609 88.4083 208.375 85.5541 209.385 83.0207C210.459 80.3269 213.666 79.0922 216.296 80.5033C218.316 81.5776 219.326 83.9667 218.717 86.1635C218.685 86.2703 218.653 86.3719 218.621 86.4681C217.931 88.4403 218.22 90.5409 219.15 92.4169C227.167 108.419 223.319 127.965 214.548 141.162C215.237 141.322 215.911 141.547 216.568 141.739C217.113 141.899 217.659 142.108 218.156 142.364C230.422 130.467 232.811 117.495 232.571 108.516C232.523 106.559 231.464 104.796 229.829 103.721C229.711 103.636 229.594 103.55 229.476 103.465C227.744 102.054 227.472 99.4881 228.899 97.7404C230.406 95.8804 233.228 95.704 234.96 97.4678C236.275 98.8147 236.499 100.931 235.473 102.519C235.419 102.593 235.366 102.668 235.313 102.743C234.286 104.106 233.982 105.854 234.27 107.537C237.253 124.454 227.408 137.041 220.032 143.583C223.864 146.758 224.986 152.546 218.188 154.983ZM221.042 147.095C220.128 145.331 218.268 143.759 216.167 143.15C215.932 143.086 215.697 143.016 215.462 142.942C214.772 142.733 214.131 142.541 213.458 142.445C213.073 142.396 212.704 142.38 212.351 142.412C209.705 142.605 207.332 144.272 206.162 146.774C203.5 152.466 196.397 167.025 187.899 179.356C184.467 184.359 179.929 188.303 174.67 192.873C168.529 198.212 161.57 204.257 154.29 213.734C147.219 222.954 141.046 233.889 135.53 247.005C136.428 245.979 149.015 223.178 155.22 215.097C162.484 205.62 169.443 199.559 175.6 194.22C180.843 189.65 185.381 185.706 188.829 180.719C197.327 168.388 204.43 153.813 207.092 148.121C208.246 145.635 210.619 143.968 213.265 143.759C213.634 143.743 213.987 143.743 214.372 143.807C215.045 143.888 215.686 144.096 216.376 144.305C216.611 144.379 216.846 144.449 217.081 144.513C218.637 144.946 220.032 145.924 221.042 147.095Z" fill="url(#paint8_linear_40_4739)"/>
<path d="M55.4215 196.8C58.1955 194.78 61.0015 192.904 63.8236 191.156C54.7 182.529 44.2134 174.993 29.5739 170.568C29.5739 170.568 88.0357 132.422 177.139 174.705C177.139 174.705 87.9876 104.522 0.599609 173.294C0.599609 173.294 30.4398 175.747 55.4215 196.8Z" fill="url(#paint9_linear_40_4739)"/>
<path d="M65.9554 189.858C71.4392 186.608 77.2009 183.733 83.2405 181.232C109.681 170.28 136.074 168.917 153.552 169.703C156.005 169.815 158.314 169.975 160.463 170.152C140.708 162.503 121.082 158.206 101.921 157.34C78.8471 156.298 60.7121 160.531 49.5521 164.267C43.3948 166.32 38.6647 168.452 35.5059 170.023C46.281 174.064 55.7093 180.189 65.4743 189.409L65.9554 189.858Z" fill="url(#paint10_linear_40_4739)"/>
<path d="M172.729 0.699219C172.729 0.699219 169.218 36.5684 149.062 59.9627C154.45 56.6436 168.817 46.5579 176.209 29.0963C176.209 29.0963 215.012 70.6096 180.731 172.878C194.232 150.991 233.837 73.6882 172.729 0.699219Z" fill="url(#paint11_linear_40_4739)"/>
<path d="M167.165 47.7266C164.552 50.709 161.954 53.1783 159.693 55.1185C156.005 58.2933 152.718 60.5221 150.602 61.8369C161.377 75.4021 169.683 91.2442 175.295 109.026C179.207 121.405 181.276 133.126 182.366 142.667C184.611 115.216 184.017 75.4983 167.165 47.7266Z" fill="url(#paint12_linear_40_4739)"/>
<path d="M118.116 142.364C120.789 142.995 123.461 143.7 126.134 144.481C135.674 147.255 145.199 150.959 154.451 155.496C162.339 159.345 168.657 163.129 173.051 165.983C160.608 147.688 120.874 121.84 100.559 114.031C101.392 117.238 102.932 120.798 105.193 124.726C108.255 130.098 112.697 136.143 118.116 142.364Z" fill="url(#paint13_linear_40_4739)"/>
<path d="M83.4824 21.1602C83.4824 21.1602 102.612 57.2859 89.6236 96.9712C83.9795 114.176 102.243 138.452 114.205 141.483C105.113 130.628 95.0593 115.603 97.8974 104.78C102.836 85.8754 108.079 67.3074 101.585 44.33C101.585 44.33 165.836 73.2883 178.391 172.109C178.391 172.109 189.551 58.0555 83.4824 21.1602Z" fill="url(#paint14_linear_40_4739)"/>
<defs>
<linearGradient id="paint0_linear_40_4739" x1="-134.63" y1="181.46" x2="-139.463" y2="38.409" gradientUnits="userSpaceOnUse">
<stop stop-color="#68AEDF"/>
<stop offset="0.584" stop-color="#0593D3"/>
<stop offset="1" stop-color="#047EC3"/>
</linearGradient>
<linearGradient id="paint1_linear_40_4739" x1="86.9315" y1="226.348" x2="12.8519" y2="104.165" gradientUnits="userSpaceOnUse">
<stop stop-color="#FAEA15"/>
<stop offset="1" stop-color="#EF542F"/>
</linearGradient>
<linearGradient id="paint2_linear_40_4739" x1="117.533" y1="208.22" x2="42.1138" y2="83.8281" gradientUnits="userSpaceOnUse">
<stop stop-color="#FAEA15"/>
<stop offset="1" stop-color="#EF542F"/>
</linearGradient>
<linearGradient id="paint3_linear_40_4739" x1="138.455" y1="195.871" x2="62.8512" y2="71.1736" gradientUnits="userSpaceOnUse">
<stop stop-color="#FAEA15"/>
<stop offset="1" stop-color="#EF542F"/>
</linearGradient>
<linearGradient id="paint4_linear_40_4739" x1="188.7" y1="204.096" x2="27.1162" y2="279.071" gradientUnits="userSpaceOnUse">
<stop stop-color="#BED62F"/>
<stop offset="1" stop-color="#50843F"/>
</linearGradient>
<linearGradient id="paint5_linear_40_4739" x1="195.689" y1="217.673" x2="29.6591" y2="294.711" gradientUnits="userSpaceOnUse">
<stop stop-color="#BED62F"/>
<stop offset="1" stop-color="#50843F"/>
</linearGradient>
<linearGradient id="paint6_linear_40_4739" x1="197.375" y1="219.934" x2="33.6007" y2="295.925" gradientUnits="userSpaceOnUse">
<stop stop-color="#BED62F"/>
<stop offset="1" stop-color="#50843F"/>
</linearGradient>
<linearGradient id="paint7_linear_40_4739" x1="201.319" y1="231.425" x2="40.2052" y2="306.182" gradientUnits="userSpaceOnUse">
<stop stop-color="#BED62F"/>
<stop offset="1" stop-color="#50843F"/>
</linearGradient>
<linearGradient id="paint8_linear_40_4739" x1="377.753" y1="176.007" x2="271.96" y2="344.36" gradientUnits="userSpaceOnUse">
<stop stop-color="#D1D2D3"/>
<stop offset="1" stop-color="#57585A"/>
</linearGradient>
<linearGradient id="paint9_linear_40_4739" x1="177.447" y1="197.152" x2="0.708972" y2="196.509" gradientUnits="userSpaceOnUse">
<stop stop-color="#F0B6BF"/>
<stop offset="1" stop-color="#EC1665"/>
</linearGradient>
<linearGradient id="paint10_linear_40_4739" x1="177.479" y1="190.158" x2="0.932929" y2="189.516" gradientUnits="userSpaceOnUse">
<stop stop-color="#F0B6BF"/>
<stop offset="1" stop-color="#EC1665"/>
</linearGradient>
<linearGradient id="paint11_linear_40_4739" x1="-83.3532" y1="180.18" x2="-88.2092" y2="36.4327" gradientUnits="userSpaceOnUse">
<stop stop-color="#68AEDF"/>
<stop offset="0.584" stop-color="#0593D3"/>
<stop offset="1" stop-color="#047EC3"/>
</linearGradient>
<linearGradient id="paint12_linear_40_4739" x1="30.2768" y1="175.717" x2="25.4366" y2="32.4491" gradientUnits="userSpaceOnUse">
<stop stop-color="#68AEDF"/>
<stop offset="0.584" stop-color="#0593D3"/>
<stop offset="1" stop-color="#047EC3"/>
</linearGradient>
<linearGradient id="paint13_linear_40_4739" x1="136.55" y1="196.265" x2="62.4702" y2="74.0821" gradientUnits="userSpaceOnUse">
<stop stop-color="#FAEA15"/>
<stop offset="1" stop-color="#EF542F"/>
</linearGradient>
<linearGradient id="paint14_linear_40_4739" x1="55.9121" y1="245.36" x2="-18.2402" y2="123.057" gradientUnits="userSpaceOnUse">
<stop stop-color="#FAEA15"/>
<stop offset="1" stop-color="#EF542F"/>
</linearGradient>
</defs>
</svg>
