<svg width="257" height="156" viewBox="0 0 257 156" fill="none" xmlns="http://www.w3.org/2000/svg">
<path fill-rule="evenodd" clip-rule="evenodd" d="M180.231 85.2077C180.387 83.9804 180.532 82.741 180.664 81.5017C191.277 93.895 197.124 109.597 197.124 126.045C197.124 132.747 196.15 139.377 194.237 145.766L193.599 145.803C192.227 145.891 190.855 145.975 189.484 146.055C191.589 139.618 192.66 132.88 192.66 126.045C192.66 112.064 188.148 98.6478 179.87 87.6262C179.998 86.824 180.119 86.0178 180.231 85.2077ZM166.189 50.7591C165.852 50.9837 165.519 51.2123 165.19 51.4449C153.928 45.91 141.451 42.9742 128.6 42.9742C106.497 42.9742 85.4882 51.6735 69.8582 67.3035C54.2282 82.9335 45.5288 103.942 45.5288 126.045C45.5288 132.326 46.2267 138.583 47.6225 144.684C46.0743 144.563 44.5261 144.443 42.978 144.323C41.7026 138.318 41.0648 132.194 41.0648 126.045C41.0648 102.751 50.2335 80.6233 66.7058 64.1511C83.178 47.6908 105.305 38.5222 128.6 38.5222C143.051 38.5222 157.057 42.0477 169.546 48.6654C168.391 49.3152 167.272 50.0251 166.189 50.7591ZM63.5653 145.803L62.9637 145.766C61.0506 139.377 60.0759 132.747 60.0759 126.045C60.0759 109.742 65.8154 94.1597 76.2594 81.8266C76.5241 82.3921 76.8009 82.9095 77.0295 83.3547C77.5108 84.2571 78.0162 85.1595 78.5576 86.0499C69.4973 97.3603 64.5399 111.39 64.5399 126.045C64.5399 132.88 65.6108 139.618 67.7285 146.067C66.3408 145.979 64.953 145.891 63.5653 145.803ZM184.55 38.6786C184.021 38.3898 183.299 37.8845 182.902 37.6799C181.711 37.0422 180.363 36.8136 179.124 37.319C163.879 28.6316 146.54 23.9631 128.6 23.9631C101.431 23.9631 75.6217 34.6598 56.4181 53.8634C37.2025 73.067 26.5177 98.8884 26.5177 126.045C26.5177 131.749 26.987 137.428 27.9255 143.035C26.3934 142.899 24.8653 142.758 23.3412 142.614C22.4869 137.139 22.0538 131.604 22.0538 126.045C22.0538 97.6972 33.2198 70.7568 53.2656 50.7109C73.3115 30.6651 100.252 19.5111 128.6 19.5111C149.933 19.5111 170.461 25.8281 187.859 37.4874C186.704 37.5837 185.561 38.0289 184.55 38.6786ZM209.578 144.684C210.973 138.571 211.671 132.326 211.671 126.045C211.671 106.336 204.753 87.4938 192.167 72.5617C192.588 71.3223 192.829 70.0108 192.925 68.7113C192.965 68.0616 192.985 67.4078 192.985 66.75C207.881 82.9095 216.135 103.954 216.135 126.045C216.135 132.194 215.498 138.318 214.222 144.31C212.674 144.439 211.126 144.563 209.578 144.684ZM3.89695 140.689C3.33143 135.828 3.05469 130.943 3.05469 126.045C3.05469 92.6436 16.206 60.8903 39.8255 37.2708C63.445 13.6513 95.1863 0.5 128.6 0.5C162.014 0.5 193.755 13.6513 217.375 37.2708C240.994 60.8903 254.146 92.6316 254.146 126.045C254.146 130.943 253.869 135.828 253.303 140.689C251.787 140.841 250.275 140.998 248.767 141.158C249.381 136.141 249.694 131.099 249.694 126.045C249.694 93.8228 237.011 63.2005 214.234 40.4233C191.445 17.634 160.823 4.95196 128.6 4.95196C96.3775 4.95196 65.7552 17.634 42.978 40.4233C20.1887 63.2005 7.50665 93.8228 7.50665 126.045C7.50665 131.099 7.81949 136.141 8.43314 141.158C6.92509 140.998 5.41303 140.841 3.89695 140.689ZM193.286 42.541C193.25 42.18 193.19 41.807 193.105 41.446C193.089 41.3658 193.069 41.2856 193.045 41.2054C193.591 41.6225 194.136 42.0436 194.682 42.4688C194.224 42.4447 193.755 42.4808 193.286 42.541ZM229.275 143.035C230.213 137.428 230.682 131.749 230.682 126.045C230.682 98.8884 219.998 73.067 200.782 53.8634C199.667 52.7484 198.528 51.6615 197.365 50.6027C197.569 49.9288 197.882 49.3272 198.027 48.5933C198.231 47.5705 198.4 46.4154 198.183 45.3686C200.156 47.0772 202.074 48.858 203.935 50.7109C223.98 70.7568 235.146 97.6972 235.146 126.045C235.146 131.592 234.713 137.139 233.859 142.614C232.335 142.758 230.807 142.899 229.275 143.035ZM100.204 63.6698C109.023 59.651 118.673 57.5333 128.6 57.5333C137.047 57.5333 145.289 59.0734 152.99 61.9973C152.324 62.655 151.654 63.3088 150.98 63.9586C150.475 64.4479 149.958 64.9452 149.428 65.4506C142.798 63.1765 135.771 61.9852 128.6 61.9852C119.648 61.9852 110.937 63.8382 102.935 67.3276C101.973 66.1605 101.07 64.9332 100.204 63.6698ZM89.6394 102.185L90.0365 102.739C85.8131 109.705 83.539 117.731 83.539 126.045C83.539 133.469 85.3559 140.689 88.7731 147.138C87.0805 147.074 85.388 147.002 83.6954 146.922C80.6633 140.412 79.087 133.313 79.087 126.045C79.087 116.275 81.9507 106.854 87.2329 98.8403C88.0351 99.9553 88.8372 101.07 89.6394 102.185ZM129.31 78.9508C124.93 80.0217 120.803 79.4923 116.881 77.9401C120.683 77.0136 124.605 76.5444 128.6 76.5444C130.646 76.5444 132.679 76.6647 134.688 76.9174C132.944 77.8078 131.139 78.5056 129.31 78.9508ZM168.427 147.138C171.856 140.689 173.661 133.469 173.661 126.045C173.661 120.222 172.542 114.53 170.425 109.248C171.531 107.985 172.566 106.625 173.517 105.193C176.513 111.655 178.113 118.754 178.113 126.045C178.113 133.313 176.537 140.412 173.517 146.909C171.816 146.99 170.12 147.066 168.427 147.138Z" fill="#C6912E"/>
<path d="M110.732 77.3377C93.4415 66.5808 91.2155 43.4185 90.9027 61.7438C90.8425 64.7278 91.3117 65.7506 88.6887 63.2599C83.7795 58.5913 81.1204 57.8694 84.9827 66.1958C88.1713 73.0903 89.555 71.49 82.5522 68.506C77.7754 66.4725 74.0694 65.1971 85.3918 78.4326C88.2074 81.7175 89.0136 82.7282 85.2234 80.1533C72.5774 71.5983 77.1858 80.4661 85.3557 92.2698C92.2142 102.184 101.828 113.928 103.44 121.569C104.62 126.706 107.122 129.883 110.383 131.784C110.684 136.465 111.177 147.679 109.408 149.147L104.367 153.286H121.164C121.164 153.286 115.449 149.472 114.895 147.799C114.402 146.343 114.414 136.104 114.426 133.444C117.951 134.407 121.934 134.455 125.893 134.154C129.972 138.883 133.341 140.303 136.938 139.437C138.009 143.359 139.489 144.322 141.414 148.906C139.79 150.29 137.504 151.264 136.614 153.165C137.347 152.756 146.913 152.973 153.086 153.129C153.411 152.468 143.664 151.108 140.765 137.933C146.384 134.527 150.27 126.273 150.234 120.257C179.894 107.828 176.886 87.1079 179.425 73.74C181.494 78.204 189.989 78.0957 190.651 68.5541C190.795 66.3522 190.663 63.9216 189.989 61.5633C192.034 61.4911 194.272 61.9724 196.703 62.8387C196.15 61.3587 195.62 59.6983 195.018 58.0499C195.179 58.0178 195.339 57.9777 195.5 57.9295C196.547 57.6287 197.485 56.8587 197.786 55.8479C198.736 52.503 193.647 55.7517 195.139 50.1326C195.307 49.4828 195.656 48.809 195.789 48.1352C196.041 46.8839 196.137 45.7528 195.704 45.2354C194.658 43.9961 192.071 45.5242 191.409 44.8263C190.759 44.1284 191.541 41.3971 189.796 40.23C188.064 39.0508 186.042 40.3623 185.272 40.9519C184.454 41.5776 183.106 40.3623 181.843 39.6885C179.653 38.5334 178.871 40.3262 178.558 41.8904C177.415 47.7502 173.998 37.7152 174.094 47.6178C174.094 48.039 174.142 48.4601 174.215 48.8812C171.965 49.8318 169.702 51.1313 167.464 52.6473C164.853 54.4041 162.17 56.5458 159.631 58.856C145.325 71.8991 131.68 90.3807 110.732 77.3377Z" fill="#C6391E"/>
<path d="M161.473 59.9415C163.675 57.9562 166.045 55.8626 168.512 54.2021C173.457 50.8571 179.942 47.5603 185.838 49.6178C181.88 49.5095 177.524 51.6633 180.448 56.5003C172.338 57.7396 173.625 67.8949 179.257 66.8601C177.728 69.5193 176.958 72.4191 176.489 75.4633C175.129 84.1386 176.14 94.0893 168.837 103.45C166.695 106.194 164.433 108.336 162.207 110.044C166.334 105.087 169.342 98.3728 170.172 89.7456C170.509 86.3645 169.534 86.6172 167.585 87.9408C160.197 92.9583 153.423 96.5198 147.455 98.9985C153.772 94.4262 161.497 88.7349 161.208 79.9994C161.052 75.1865 160.197 74.4405 158.765 74.272C157.334 74.1036 155.962 77.978 155.011 77.7374C157.743 69.0019 152.328 68.1837 161.473 59.9415Z" fill="white"/>
<path d="M130.152 111.064C115.93 126.706 95.102 98.4422 123.522 90.2602C125.64 89.6465 127.854 89.1291 130.08 88.708C113.921 100.211 136.686 103.857 130.152 111.064ZM147.25 101.053C145.169 109.067 137.035 115.54 129.214 117.393C144.037 100.042 113.909 100.825 132.908 88.2267C138.358 87.4085 143.664 87.1919 147.599 87.6371C162.291 89.2856 155.24 102.99 147.106 109.055C147.106 109.055 147.635 104.904 147.25 101.053Z" fill="white"/>
<path d="M132.595 88.4449C133.06 88.3967 133.526 88.3526 133.991 88.3125C133.486 88.3767 132.984 88.4448 132.487 88.517L132.595 88.4449ZM116.352 116.685C104.945 116.312 96.9674 97.433 119.42 90.9596C122.837 89.985 126.483 89.239 130.02 88.7577C129.924 88.8299 129.828 88.9021 129.732 88.9743C127.229 89.4315 124.738 89.997 122.356 90.6829C101.167 96.7953 106.305 113.629 116.352 116.685Z" fill="white"/>
<path d="M148.068 117.516C145.132 128.369 138.658 129.584 128.479 127.671C128.07 130.968 147.478 138.548 148.068 117.516Z" fill="white"/>
<path d="M93.6582 68.1328C99.157 77.7346 104.596 84.8217 115.316 88.66C115.316 88.66 97.0754 89.1774 93.6582 68.1328Z" fill="white"/>
<path d="M185.778 53.2617C184.948 53.2617 184.262 53.9355 184.262 54.7778C184.262 55.608 184.948 56.2818 185.778 56.2818C186.608 56.2818 187.282 55.608 187.282 54.7778C187.282 53.9355 186.608 53.2617 185.778 53.2617Z" fill="white"/>
<path d="M0.599609 142.625C21.5238 144.851 42.4721 146.74 63.4204 148.076C85.1869 149.471 106.917 150.278 128.576 150.278C150.234 150.278 171.964 149.471 193.743 148.076C214.703 146.74 235.663 144.851 256.6 142.625V147.667C235.748 149.881 214.896 151.746 194.056 153.081C172.277 154.477 150.45 155.283 128.576 155.283C106.701 155.283 84.8741 154.477 63.1076 153.081C42.2796 151.746 21.4396 149.881 0.599609 147.667V142.625Z" fill="#C6391E"/>
</svg>
