<svg width="257" height="160" viewBox="0 0 257 160" fill="none" xmlns="http://www.w3.org/2000/svg">
<path d="M148.499 0C163.925 2.88563 178.2 9.0088 190.599 17.6305C187.409 22.0528 183.725 25.3607 177.59 24.7038C172.265 24.129 171.186 19.437 163.995 24.5396C162.67 25.478 134.564 27.437 134.564 27.437C142.634 28.1642 160.629 27.7302 167.221 30.0528C169.755 30.9443 172.312 30.4164 174.892 29.7243C186.071 26.7683 195.432 32.0235 207.338 31.9531C213.45 38.3578 218.787 45.4897 223.209 53.2317C221.356 53.0088 219.502 53.0675 217.661 53.7126C209.215 56.6921 186.107 56.1408 175.749 57.0675C175.749 57.0675 211.819 59.5894 213.52 60.7859C220.945 66.0528 223.291 63.2023 227.479 61.4897C233.954 75.4487 237.567 91.0029 237.567 107.402C237.567 108.293 237.555 109.185 237.532 110.076C233.426 91.5191 216.887 77.654 197.109 77.654C189.156 77.654 181.743 79.8827 175.432 83.7654C168.019 72.6452 155.35 65.3138 140.969 65.3138C124.159 65.3138 109.684 75.3431 103.197 89.7361C103.119 89.7361 103.041 89.7361 102.963 89.7361C93.8602 89.7361 85.4614 92.739 78.7048 97.8299C72.6989 94.5924 65.8367 92.7507 58.5405 92.7507C41.0977 92.7507 26.1183 103.238 19.5493 118.252C19.1974 114.686 19.0215 111.062 19.0215 107.402C19.0215 94.3109 21.3206 81.7595 25.5435 70.1349C29.215 66.2757 35.1505 61.6305 40.5581 58.8035C43.7488 57.1261 46.9159 55.5073 51.3851 55.9883C58.2356 56.7156 59.608 62.7449 68.8514 56.1994C70.5405 54.9912 106.611 52.4692 106.611 52.4692C100.64 51.9296 68.1476 50.3343 64.6989 49.1144C61.4614 47.9765 58.1652 48.6569 54.8455 49.5249C48.0772 51.3314 41.825 50.7683 35.4907 49.6891C42.0831 39.1202 50.4115 29.7713 60.1007 22.0176C83.2913 24.3167 68.6872 17.6774 91.7605 5.6305C94.9511 3.96481 98.1183 2.34604 102.587 2.82698C122.939 5.0088 126.552 1.68915 148.499 0Z" fill="#FEBD01"/>
<path fill-rule="evenodd" clip-rule="evenodd" d="M161.074 33.7958C161.015 33.3383 160.968 32.8808 160.956 32.4116C160.944 30.2063 160.862 26.3353 163.689 25.7606C164.334 25.6315 164.874 25.7136 165.402 25.9248C165.418 25.87 165.429 25.8153 165.437 25.7606C165.777 24.5641 166.387 23.4263 167.478 22.7459C168.815 21.9131 170.352 22.1007 171.701 22.8046C172.088 23.0157 172.722 23.4614 173.214 23.7312C175.126 22.523 177.484 22.0773 179.513 23.4497C180.241 23.9424 180.78 24.611 181.144 25.4087C181.296 25.7488 181.414 26.1125 181.496 26.4761C181.566 26.7928 181.625 27.1095 181.66 27.4263C183.138 27.2268 184.581 27.4262 185.601 28.6345C186.704 29.9365 186.505 31.7899 186.188 33.3383C186.035 34.1007 185.719 34.6872 185.531 35.3793C185.484 35.5553 185.39 35.9424 185.355 36.2474C186.117 36.482 186.704 36.5993 187.373 37.2914C188.334 38.2884 188.405 39.6022 188.041 40.8691C187.584 42.4996 186.258 43.7312 184.698 44.306C185.167 45.6198 185.601 46.9453 186.071 48.2004L187.795 52.8104L183.161 51.1447C177.906 49.2679 174.047 49.3969 171.279 54.7459C170.505 56.2474 170.047 57.9717 169.73 59.6257L169.578 60.3999L169.508 60.4585L169.097 63.8251C168.346 69.9365 167.865 75.6843 165.789 81.5729C163.068 89.2796 158.293 95.1799 151.619 99.8603C147.818 102.523 144.769 104.271 141.824 105.373L141.672 106.429C140.886 111.895 137.707 118.112 133.179 121.62C134.763 126.617 138.493 129.655 143.396 131.673C145.531 132.552 147.701 133.139 149.918 133.761C151.642 134.253 154.153 134.828 154.739 136.775L155.584 139.52L152.722 139.72C151.725 139.79 150.516 139.614 149.519 139.461C148.205 139.262 146.892 139.016 145.578 138.769C144.241 138.523 142.868 138.253 141.508 138.066C141.531 138.152 141.551 138.222 141.566 138.277C141.871 139.344 142.129 140.4 142.176 141.503L142.387 146.253L138.552 143.438C136.909 142.242 135.936 140.505 134.763 138.898C134.575 138.64 133.93 137.807 133.554 137.796C133.12 137.784 131.971 138.429 130.997 139.027L133.402 140.376L128.675 140.412L123.361 143.403L124.745 140.435C122.153 140.447 119.666 139.872 117.179 139.18C116.651 139.039 115.032 138.546 114 138.359C114.211 139.567 114.927 141.538 115.161 142.159L117.226 147.567L112.03 145.022C110.082 144.071 108.769 142.711 107.725 140.822C107.431 140.306 106.751 138.769 106.352 138.417C105.578 137.725 101.367 139.485 100.651 139.79L96.2289 141.702L97.5544 137.068C98.1996 134.781 101.766 132.024 103.947 130.324C105.249 125.291 106.141 122.124 104.78 117.092C101.062 115.215 98.0236 112.341 95.3961 109.104L87.6072 99.5084L89.836 100.799C89.2885 100.134 88.749 99.4458 88.2172 98.7342L88.182 98.6873L88.1468 98.6403C84.6277 93.3969 80.9679 88.2826 77.5075 82.9805C74.9621 79.0626 72.3462 74.9453 70.2465 70.7694C69.0383 68.3647 66.5632 63.5318 69.0031 61.1975C69.8946 60.3295 71.0559 60.1652 72.2993 60.3764C71.5251 59.4145 70.7744 58.4526 70.0706 57.479C68.9797 55.9776 67.3022 53.6902 68.9093 51.9189C70.5632 50.1007 73.4254 51.743 75.2084 52.5054C75.2631 52.5211 75.314 52.5406 75.3609 52.5641C74.6923 51.1095 74.0002 49.5846 73.4958 48.0714C72.9914 46.5582 72.616 44.6697 74.1761 43.5787C75.7245 42.4996 77.3668 43.4849 78.6102 44.482C79.2788 45.0216 79.9357 45.6198 80.5808 46.2298C80.4987 44.8221 80.4401 43.3911 80.4635 42.0069C80.4987 40.3999 80.7099 38.394 82.6336 37.9365C84.0999 37.5846 85.1556 38.5465 85.9063 39.6374C86.4577 40.4351 86.9386 41.3148 87.4195 42.1477C88.8624 44.7048 90.2934 47.1916 91.9474 49.6198C96.4518 56.177 103.267 62.2063 110.927 65.1154L116.393 64.7518C117.472 64.6814 118.552 64.5172 119.607 64.2591C127.431 62.3588 134.575 55.438 140.217 49.9834C142.469 47.8133 144.71 45.6081 147.021 43.4966C149.449 41.2914 152.03 39.2151 154.751 37.3735C156.733 36.0362 158.856 34.7811 161.074 33.7958ZM126.563 136.541C127.314 135.016 128.299 133.385 129.461 132.06C128.299 129.514 126.95 127.051 125.988 124.423C121.859 124.611 118.258 122.394 115.396 119.379C115.115 119.387 114.837 119.391 114.563 119.391C113.179 122.746 112.288 126.734 112.909 130.23C112.968 130.605 114.106 131.321 114.411 131.497C115.842 132.318 117.566 132.928 119.115 133.479C121.308 134.253 123.854 135.027 125.871 136.154L126.563 136.541Z" fill="white"/>
<path d="M183.666 42.2393C184.674 41.9461 185.566 41.2188 185.847 40.2452C186.762 37.0546 181.906 40.1514 183.325 34.7907C183.49 34.169 183.818 33.5238 183.947 32.8904C184.194 31.6939 184.276 30.603 183.865 30.1103C182.868 28.9373 180.393 30.3918 179.771 29.7349C179.15 29.0663 179.9 26.4505 178.235 25.3361C176.581 24.2217 174.645 25.4651 173.918 26.0282C173.132 26.6264 171.853 25.4651 170.633 24.82C168.545 23.7173 167.806 25.43 167.513 26.9314C166.422 32.5267 163.15 22.9431 163.243 32.386C163.243 32.8083 163.302 33.254 163.372 33.6646C167.982 32.0223 172.874 31.7408 177.437 34.5326C180.323 36.2921 181.953 39.2247 183.196 42.3449C183.353 42.3136 183.509 42.2784 183.666 42.2393ZM90.0703 50.908C83.5953 41.4534 82.0938 33.7936 82.9736 47.952C83.1495 50.7907 83.2903 52.21 80.8621 49.7349C74.4926 43.2599 73.9413 44.0575 77.6246 51.9989C80.6627 58.5795 81.0029 57.4534 74.3167 54.603C69.7536 52.6558 67.5014 51.342 78.3167 63.9754C80.9912 67.1074 81.1788 67.9637 77.5542 65.5121C57.4369 51.905 84.5923 89.2423 90.0469 97.3596C96.2052 105.582 102.833 110.122 113.554 110.826C107.02 111.706 101.613 110.228 97.1788 107.659C99.8768 110.99 102.938 113.805 106.68 115.471C108.581 121.547 107.736 124.773 105.965 131.635C104.522 132.785 100.229 135.999 99.7477 137.688C111.314 132.703 106.868 139.952 113.038 142.967C108.428 130.896 116.287 138.204 124.757 138.145C120.78 135.917 111.314 134.31 110.657 130.626C109.883 126.251 111.114 121.242 113.097 117.055C114.141 117.125 115.22 117.125 116.358 117.043C120.264 121.559 124.135 122.72 127.572 121.899C128.592 125.641 130.34 128.187 132.182 132.562C130.633 133.887 129.284 136.093 128.44 137.911C131.771 136.034 133.883 133.782 136.616 137.559C137.613 138.943 138.61 140.644 139.9 141.594C139.759 138.368 137.179 135.283 140.815 135.67C144.1 136.034 150.598 137.582 152.557 137.442C151.877 135.201 133.824 135.518 130.551 120.656C135.22 117.817 138.633 111.483 139.419 106.099C134.786 107.189 129.578 107.002 124.111 104.093C136.299 105.336 140.452 104.89 150.305 97.9813C165.12 87.6001 165.542 74.0399 166.833 63.5414C161.566 68.3742 158.481 74.0751 157.566 82.3097C156.628 71.6939 161.707 64.2804 167.49 59.1895C167.889 57.1602 168.428 55.3068 169.249 53.6998C172.616 47.2012 177.625 46.7437 183.935 48.9959C182.246 44.515 180.897 38.4622 176.628 35.8464C170.317 31.9989 163.044 34.5209 156.029 39.2599C153.542 40.949 150.974 42.9901 148.557 45.1836C138.54 54.3097 128.874 66.2276 116.545 67.037C120.768 68.1631 125.284 68.2452 130.516 67.1308C115.067 73.8053 98.6803 63.471 90.0703 50.908Z" fill="black"/>
<path d="M174 39.1328C172.745 39.1328 171.736 40.1533 171.736 41.3967C171.736 42.6401 172.745 43.6607 174 43.6607C175.244 43.6607 176.264 42.6401 176.264 41.3967C176.264 40.1533 175.244 39.1328 174 39.1328Z" fill="white"/>
<path d="M173.999 40.0352C173.249 40.0352 172.639 40.6451 172.639 41.3959C172.639 42.1466 173.249 42.7566 173.999 42.7566C174.75 42.7566 175.36 42.1466 175.36 41.3959C175.36 41.173 175.313 40.9736 175.219 40.7859C175.184 41.1847 174.856 41.4897 174.457 41.4897C174.035 41.4897 173.694 41.1495 173.694 40.7272C173.694 40.4223 173.87 40.1642 174.117 40.0352C174.078 40.0352 174.038 40.0352 173.999 40.0352Z" fill="black"/>
<path d="M128.1 132.938C176.147 132.938 220.475 142.814 256.1 159.471C218.188 148.914 174.551 142.908 128.1 142.908C81.648 142.908 38.0116 148.914 0.0996094 159.471C35.7242 142.814 80.0527 132.938 128.1 132.938Z" fill="black"/>
<path d="M196.85 38.227C196.639 40.0569 196.51 41.1478 196.486 42.1214C195.513 42.1449 194.434 42.2622 192.592 42.4851C194.434 42.6962 195.513 42.8135 196.486 42.837C196.51 43.834 196.639 44.9015 196.85 46.7431C197.073 44.9015 197.19 43.8458 197.214 42.837C198.211 42.8252 199.267 42.6962 201.108 42.4851C199.267 42.2622 198.211 42.1449 197.214 42.1214C197.19 41.1361 197.073 40.0569 196.85 38.227ZM57.4483 73.3472C56.8384 73.3472 56.3457 73.8516 56.3457 74.4616C56.3457 75.0716 56.8384 75.5642 57.4483 75.5642C58.0583 75.5642 58.551 75.0716 58.551 74.4616C58.551 73.8516 58.0583 73.3472 57.4483 73.3472ZM63.5832 48.5965C63.3721 50.4382 63.2431 51.5173 63.2196 52.5027C62.246 52.5261 61.1668 52.6434 59.3252 52.8546C61.1668 53.0774 62.246 53.1947 63.2196 53.2182C63.2431 54.2153 63.3721 55.271 63.5832 57.1126C63.7944 55.271 63.9234 54.2153 63.9469 53.2182C64.9439 53.1947 65.9997 53.0774 67.8413 52.8546C65.9997 52.6434 64.9439 52.5144 63.9469 52.5027C63.9234 51.5173 63.7944 50.4382 63.5832 48.5965ZM95.8061 18.8604C95.595 20.6903 95.4659 21.7695 95.4425 22.7549C94.4689 22.7783 93.3897 22.8956 91.548 23.1185C93.3897 23.3296 94.4689 23.4469 95.4425 23.4704C95.4659 24.4675 95.595 25.5349 95.8061 27.3648C96.0173 25.5349 96.1463 24.4675 96.1698 23.4704C97.1668 23.4469 98.2225 23.3296 100.064 23.1185C98.2225 22.8956 97.1668 22.7783 96.1698 22.7549C96.1463 21.7695 96.0173 20.6903 95.8061 18.8604ZM136.205 39.4C135.982 41.2417 135.865 42.3209 135.841 43.3062C134.868 43.3296 133.789 43.447 131.947 43.6581C133.777 43.881 134.868 43.9983 135.841 44.0217C135.865 45.0188 135.982 46.0745 136.205 47.9162C136.416 46.0862 136.545 45.0188 136.569 44.0217C137.566 43.9983 138.621 43.881 140.463 43.6581C138.621 43.447 137.566 43.3179 136.557 43.3062C136.533 42.3209 136.416 41.2417 136.205 39.4ZM202.528 69.4411C201.918 69.4411 201.413 69.9455 201.413 70.5555C201.413 71.1654 201.918 71.6581 202.528 71.6581C203.138 71.6581 203.63 71.1654 203.63 70.5555C203.63 69.9455 203.138 69.4411 202.528 69.4411ZM134.105 5.76953C133.894 7.61117 133.777 8.69035 133.742 9.66396C132.768 9.69915 131.689 9.81645 129.847 10.0276C131.689 10.2505 132.768 10.3678 133.742 10.3912C133.765 11.3883 133.894 12.444 134.105 14.2857C134.316 12.444 134.445 11.3883 134.469 10.3912C135.466 10.3678 136.522 10.2505 138.363 10.0276C136.522 9.81645 135.466 9.68742 134.469 9.66396C134.445 8.69035 134.316 7.61117 134.105 5.76953Z" fill="white"/>
</svg>
