<svg width="201" height="261" viewBox="0 0 201 261" fill="none" xmlns="http://www.w3.org/2000/svg">
<path d="M55.8413 256.2C27.5815 256.2 4.69995 221.682 4.69995 179.146C4.69995 136.512 27.5815 101.994 55.8413 101.994V256.2Z" stroke="#211915" stroke-width="8" stroke-miterlimit="10"/>
<path d="M145.314 256.2C173.574 256.2 196.455 221.682 196.455 179.146C196.455 136.512 173.574 101.994 145.314 101.994V256.2Z" stroke="#211915" stroke-width="8" stroke-miterlimit="10"/>
<path d="M86.3501 103.852L100.529 128.396L114.708 103.852" stroke="#211915" stroke-width="8" stroke-linejoin="bevel"/>
<path d="M81.7542 229.309V256.2" stroke="#211915" stroke-width="8" stroke-miterlimit="10"/>
<path d="M70.8023 256.2C70.8023 250.137 75.6915 245.248 81.7542 245.248C87.8168 245.248 92.7061 250.137 92.7061 256.2" stroke="#211915" stroke-width="8" stroke-miterlimit="10"/>
<path d="M119.303 229.309V256.2" stroke="#211915" stroke-width="8" stroke-miterlimit="10"/>
<path d="M108.352 256.2C108.352 250.137 113.339 245.248 119.303 245.248C125.366 245.248 130.353 250.137 130.353 256.2" stroke="#211915" stroke-width="8" stroke-miterlimit="10"/>
<path d="M102.778 54.9594C102.778 43.6164 111.97 34.4246 123.313 34.4246H150.203V88.2061C150.203 97.6912 142.478 105.318 133.091 105.318H101.8H99.3554H68.0643C58.5792 105.318 50.952 97.6912 50.952 88.2061V34.4246H77.8428C89.1858 34.4246 98.3775 43.6164 98.3775 54.9594H102.778Z" stroke="#211915" stroke-width="8" stroke-miterlimit="10"/>
<path d="M50.9521 84.9792C50.9521 73.734 60.046 64.5422 71.2912 64.5422C82.5365 64.5422 91.6304 73.734 91.6304 84.9792C91.6304 96.2244 82.5365 105.318 71.2912 105.318" stroke="#211915" stroke-width="8" stroke-linejoin="bevel"/>
<path d="M75.8871 85.7615C75.8871 88.3039 73.8336 90.4552 71.2912 90.4552C68.7488 90.4552 66.5976 88.3039 66.5976 85.7615C66.5976 83.2191 68.7488 81.1656 71.2912 81.1656C73.8336 81.1656 75.8871 83.2191 75.8871 85.7615Z" fill="#211915"/>
<path d="M86.7412 71.7783L59.9482 41.7585C50.8543 34.3268 45.5739 23.1794 45.5739 11.4452V0.200012" stroke="#211915" stroke-width="8" stroke-miterlimit="10"/>
<path d="M150.203 84.9793C150.203 73.734 141.109 64.6401 129.864 64.6401C118.521 64.6401 109.427 73.734 109.427 84.9793C109.427 96.2245 118.521 105.318 129.864 105.318" stroke="#211915" stroke-width="8" stroke-linejoin="bevel"/>
<path d="M125.171 85.7615C125.171 88.4017 127.224 90.4552 129.864 90.4552C132.407 90.4552 134.46 88.4017 134.46 85.7615C134.46 83.2191 132.407 81.1656 129.864 81.1656C127.224 81.1656 125.171 83.2191 125.171 85.7615Z" fill="#211915"/>
<path d="M114.316 71.7783L141.109 41.7585C150.301 34.3268 155.582 23.2772 155.582 11.4452V0.200012" stroke="#211915" stroke-width="8" stroke-miterlimit="10"/>
<path d="M144.043 103.852V188.826C144.043 212.49 124.584 231.754 100.529 231.754C76.5716 231.754 57.1125 212.49 57.1125 188.826V103.852" stroke="#211915" stroke-width="8" stroke-miterlimit="10"/>
<path d="M72.8558 120.768V136.805" stroke="#211915" stroke-width="8" stroke-linejoin="bevel"/>
<path d="M72.8558 151.668V167.607" stroke="#211915" stroke-width="8" stroke-linejoin="bevel"/>
<path d="M72.8558 182.47V198.507" stroke="#211915" stroke-width="8" stroke-linejoin="bevel"/>
<path d="M90.2615 135.729V151.766" stroke="#211915" stroke-width="8" stroke-linejoin="bevel"/>
<path d="M90.2615 166.629V182.666" stroke="#211915" stroke-width="8" stroke-linejoin="bevel"/>
<path d="M90.2615 197.529V213.468" stroke="#211915" stroke-width="8" stroke-linejoin="bevel"/>
<path d="M128.3 120.768V136.805" stroke="#211915" stroke-width="8" stroke-linejoin="bevel"/>
<path d="M128.3 151.668V167.607" stroke="#211915" stroke-width="8" stroke-linejoin="bevel"/>
<path d="M128.3 182.47V198.507" stroke="#211915" stroke-width="8" stroke-linejoin="bevel"/>
<path d="M110.796 135.729V151.766" stroke="#211915" stroke-width="8" stroke-linejoin="bevel"/>
<path d="M110.796 166.629V182.666" stroke="#211915" stroke-width="8" stroke-linejoin="bevel"/>
<path d="M110.796 197.529V213.468" stroke="#211915" stroke-width="8" stroke-linejoin="bevel"/>
</svg>
