<svg width="257" height="194" viewBox="0 0 257 194" fill="none" xmlns="http://www.w3.org/2000/svg">
<path d="M192.519 135.584C195.623 123.868 195.686 110.117 193.574 95.9506C186.334 93.3989 180.565 93.9645 176.706 101.444C175.738 103.317 175.122 105.453 174.657 107.817C167.944 113.712 162.062 122.31 163.155 134.628C164.198 125.063 167.781 118.463 173.89 112.857C172.394 125.037 171.904 140.75 154.733 152.792C143.307 160.799 138.505 161.327 124.364 159.869C130.699 163.238 136.746 163.464 142.113 162.194C141.208 168.442 137.248 175.795 131.843 179.076C132.786 183.35 134.772 186.542 137.261 188.968C161.32 185.499 183.946 167.876 192.519 135.584ZM108.513 186.379C116.169 188.943 124.201 189.987 132.183 189.484C130.649 186.278 129.267 183.79 128.387 180.521C124.402 181.477 119.902 180.119 115.377 174.877C114.057 174.978 112.8 174.991 111.593 174.903C109.921 178.435 108.702 182.482 108.513 186.379ZM62.5828 116.226C62.5451 121.141 62.8971 125.892 63.7015 130.392C68.8301 158.763 85.2842 177.09 104.931 185.059C105.673 181.024 105.635 177.794 104.164 173.067C99.8151 171.132 96.2703 167.876 93.1404 164.017C98.2815 166.983 104.567 168.693 112.121 167.675C99.6894 166.87 92.0217 161.604 84.8694 152.075C80.7464 145.929 65.9264 125.389 62.5828 116.226Z" fill="#362512"/>
<path d="M63.4749 103.746C63.1229 106.473 62.8715 109.163 62.7207 111.816C63.8646 111.426 66.2654 112.356 70.3884 115.147C74.5868 117.987 74.3731 116.994 71.2683 113.362C67.2459 108.661 64.7822 105.631 63.4749 103.746ZM193.499 95.3866C192.531 89.0765 192.179 82.8921 186.183 79.2217C180.904 76.0038 175.222 76.318 169.88 78.2161C169.792 77.7384 169.741 77.2356 169.741 76.7454C169.628 65.7844 173.412 76.8962 174.681 70.4227C175.021 68.688 175.888 66.6894 178.302 67.9715C179.709 68.7132 181.205 70.0582 182.11 69.3668C182.94 68.7257 185.152 67.3053 187.063 68.5372C183.594 57.815 179.194 47.4699 174.241 38.231C150.622 -5.87704 124.892 -14.3115 94.3216 28.1122C94.154 28.3384 93.9864 28.5689 93.8188 28.8035C97.1247 32.3608 101.097 34.6234 106.866 34.0075C113.315 33.3161 114.61 27.6471 123.321 33.8189C124.917 34.9502 158.919 37.3259 158.919 37.3259C149.164 38.2058 127.381 37.6779 119.411 40.481C116.357 41.562 113.252 40.921 110.122 40.0913C101.625 37.8413 93.9948 39.5131 85.9249 41.0467C81.7265 48.2367 77.8549 56.0049 74.5239 64.0497C76.1077 64.2508 78.0058 65.0427 80.5198 66.8277C82.1162 67.9715 116.118 70.3473 116.118 70.3473C106.364 71.2272 84.5799 70.6992 76.6105 73.5023C74.6747 74.1811 72.7264 74.1811 70.7655 73.8794C67.5853 83.0052 65.1718 92.307 63.8143 101.332C64.5685 101.596 65.5489 102.024 66.63 102.489C74.3856 105.795 73.996 107.102 70.4638 99.4844C66.19 90.2707 66.8437 89.3531 74.2222 96.8573C77.0379 99.7107 76.8745 98.0766 76.6734 94.7833C75.6426 78.3795 77.3899 87.2539 84.8941 98.2149C94.8747 112.783 113.88 124.763 131.793 117.02C125.721 118.314 120.48 118.226 115.59 116.906C129.882 115.976 141.094 102.162 152.709 91.5779C155.512 89.0388 158.479 86.6631 161.37 84.7147C169.503 79.2217 177.937 76.2929 185.24 80.7552C190.017 83.6714 191.651 90.2581 193.499 95.3866Z" fill="#FA8A5E"/>
<path d="M182.199 84.7891C180.879 84.7891 179.811 85.8701 179.811 87.1899C179.811 88.5098 180.879 89.5782 182.199 89.5782C183.519 89.5782 184.587 88.5098 184.587 87.1899C184.587 86.8003 184.499 86.4357 184.336 86.1089C184.285 86.8128 183.707 87.3533 183.003 87.3533C182.262 87.3533 181.658 86.75 181.658 86.0084C181.658 85.4804 181.973 85.0153 182.413 84.8016C182.345 84.7932 182.274 84.7891 182.199 84.7891Z" fill="#FA8A5E"/>
<path d="M0.800781 180.434C21.7298 182.658 42.6713 184.544 63.6255 185.889C85.3967 187.284 107.118 188.089 128.776 188.089C150.434 188.089 172.167 187.272 193.938 185.889C214.905 184.544 235.859 182.658 256.801 180.434V185.474C235.947 187.686 215.094 189.559 194.253 190.892C172.481 192.274 150.647 193.092 128.776 193.092C106.904 193.092 85.0824 192.287 63.3112 190.892C42.4828 189.559 21.6418 187.686 0.800781 185.474V180.434Z" fill="#362512"/>
<path d="M22.6721 140.424L65.0455 145.98C65.2885 146.626 65.5357 147.267 65.7871 147.904L22.5841 142.26C22.6093 141.648 22.6386 141.036 22.6721 140.424ZM24.5073 125.969L62.0664 136.05C62.2256 136.729 62.3932 137.403 62.5692 138.074L24.1554 127.767C24.2685 127.163 24.3816 126.56 24.5073 125.969ZM33.4697 114.845L60.2186 125.516C60.2941 126.212 60.3779 126.908 60.47 127.603L32.9041 116.592C33.0801 116.001 33.2686 115.423 33.4697 114.845ZM33.256 99.9366L59.7787 114.744L59.7284 115.762L59.8164 115.737L59.8038 116.202V116.843L32.4767 101.596C32.7365 101.043 32.9963 100.49 33.256 99.9366ZM40.0187 88.0957L60.7214 103.343L60.5454 105.48L39.0257 89.6418C39.3525 89.1264 39.6919 88.6111 40.0187 88.0957ZM48.3023 77.1472L62.9337 90.9993C62.7829 91.6949 62.6321 92.3904 62.4812 93.086L47.1207 78.5425C47.5062 78.0732 47.9001 77.6081 48.3023 77.1472ZM61.3122 71.2645L66.579 77.6626C66.3612 78.3498 66.1433 79.0411 65.9254 79.7367L59.9672 72.4838C60.4114 72.0732 60.8597 71.6667 61.3122 71.2645ZM73.9953 163.428L29.1959 168.971C29.0619 168.376 28.932 167.777 28.8063 167.173L72.8515 161.705C73.2285 162.292 73.6098 162.866 73.9953 163.428ZM16.6008 154.075H20.5227C20.5646 154.687 20.6107 155.295 20.6609 155.898H16.6008V154.075ZM16.0855 123.719L22.3579 125.391C22.2322 125.986 22.1149 126.585 22.0059 127.188L15.6078 125.479L16.0855 123.719ZM23.9668 110.91L29.108 112.896C28.9068 113.474 28.7141 114.053 28.5297 114.631L23.1875 112.569L23.9668 110.91ZM28.4417 97.2215L31.3203 98.843C31.0521 99.3877 30.7881 99.9366 30.5284 100.49L27.5493 98.8053L28.4417 97.2215ZM41.6276 70.8748L46.6808 75.6137C46.2869 76.083 45.8931 76.5481 45.4992 77.009L40.4461 72.2701L41.6276 70.8748ZM53.1543 61.8245L58.9742 68.9013C58.5217 69.312 58.0734 69.7226 57.6292 70.1332L51.7339 62.9809L53.1543 61.8245ZM67.9743 55.1875L72.3612 62.0758L72.0973 62.7043C71.7453 62.9474 71.3975 63.1904 71.0539 63.4334L66.4408 56.1554L67.9743 55.1875ZM22.735 169.75L14.5142 170.731L14.2754 168.921L22.3579 167.953C22.4752 168.556 22.6009 169.155 22.735 169.75ZM22.7601 154.101H68.5274C68.8291 154.712 69.1391 155.324 69.4576 155.936H22.8984C22.8481 155.324 22.802 154.712 22.7601 154.101Z" fill="#362512"/>
<path d="M234.929 140.424L192.153 146.031C191.919 146.676 191.676 147.321 191.424 147.966L235.017 142.26C234.992 141.644 234.967 141.04 234.929 140.424ZM233.094 125.969L195.233 136.138L195.195 136.289C195.028 136.917 194.852 137.546 194.667 138.174L233.446 127.767C233.333 127.163 233.22 126.56 233.094 125.969ZM224.131 114.845L197.194 125.592C197.11 126.296 197.018 126.996 196.917 127.691L224.697 116.592C224.521 116.001 224.333 115.423 224.131 114.845ZM224.345 99.9366L197.797 114.757C197.797 115.452 197.789 116.152 197.772 116.856L225.124 101.596C224.865 101.043 224.605 100.49 224.345 99.9366ZM217.582 88.0957L197.244 103.079C197.311 103.783 197.37 104.491 197.42 105.203L218.576 89.6418C218.249 89.1264 217.909 88.6111 217.582 88.0957ZM209.299 77.1472L195.497 90.2074C195.623 90.9239 195.736 91.653 195.849 92.3946L210.48 78.5425C210.087 78.0732 209.693 77.6081 209.299 77.1472ZM196.289 71.2645L190.758 77.9894C190.968 78.6598 191.177 79.3344 191.387 80.0132L191.412 80.0509L197.634 72.4838C197.19 72.0732 196.741 71.6667 196.289 71.2645ZM183.254 163.39L228.405 168.971C228.539 168.376 228.669 167.777 228.795 167.173L184.41 161.668C184.033 162.246 183.648 162.82 183.254 163.39ZM241 154.075H237.079C237.037 154.687 236.991 155.295 236.94 155.898H241V154.075ZM241.516 123.719L235.243 125.391C235.369 125.986 235.486 126.585 235.595 127.188L241.993 125.479L241.516 123.719ZM233.634 110.91L228.493 112.896C228.694 113.474 228.887 114.053 229.071 114.631L234.414 112.569L233.634 110.91ZM229.159 97.2215L226.281 98.843C226.549 99.3877 226.813 99.9366 227.073 100.49L230.052 98.8053L229.159 97.2215ZM215.974 70.8748L210.92 75.6137C211.314 76.083 211.708 76.5481 212.102 77.009L217.155 72.2701L215.974 70.8748ZM204.447 61.8245L198.627 68.9013C199.08 69.312 199.528 69.7226 199.972 70.1332L205.867 62.9809L204.447 61.8245ZM189.627 55.1875L186.849 59.5493C187.117 60.27 187.381 60.9906 187.641 61.7113L191.16 56.1554L189.627 55.1875ZM234.879 169.75L243.087 170.731L243.326 168.921L235.243 167.953C235.126 168.556 235.004 169.155 234.879 169.75ZM234.841 154.101H188.697C188.395 154.712 188.085 155.324 187.767 155.936H234.703C234.753 155.324 234.799 154.712 234.841 154.101Z" fill="#362512"/>
</svg>
