<svg width="257" height="251" viewBox="0 0 257 251" fill="none" xmlns="http://www.w3.org/2000/svg">
<path d="M98.4111 107.892C101.477 107.421 104.846 107.597 107.944 107.653C120.566 107.9 130.673 109.537 142.848 112.563C152.564 115.046 164.228 119.692 173.305 123.995C174.167 124.402 175.948 125.025 176.586 125.68C179.78 127.029 185.991 131.284 188.53 131.891C190.27 132.314 192.386 132.266 194.182 132.426C197.445 132.74 200.705 133.104 203.962 133.52C222.364 135.939 246.243 141.663 253.955 160.847C254.985 163.41 255.48 166.165 255.728 168.903C252.782 168.775 231.729 168.48 230.54 169.079C233.31 169.534 236.264 169.55 239.074 169.717C244.625 170.058 250.179 170.345 255.736 170.579C255.64 173.637 255.376 176.344 252.989 178.587C251.72 179.785 250.155 180.615 248.431 180.902C245.309 181.429 239.745 180.934 236.352 180.942C231.019 180.958 225.685 181.325 220.352 181.349C223.753 176.232 225.159 171.394 223.921 165.23C223.857 164.9 223.783 164.57 223.698 164.24C223.618 163.916 223.527 163.591 223.426 163.266C223.33 162.947 223.224 162.628 223.107 162.308C222.995 161.994 222.873 161.683 222.74 161.374C222.612 161.06 222.476 160.752 222.332 160.448C222.183 160.145 222.029 159.844 221.869 159.546C221.71 159.253 221.542 158.963 221.366 158.676C221.196 158.383 221.015 158.098 220.823 157.822C220.637 157.54 220.443 157.265 220.241 156.999C220.038 156.728 219.831 156.464 219.618 156.209C219.4 155.948 219.179 155.693 218.955 155.443C218.726 155.192 218.492 154.95 218.253 154.716C218.013 154.477 217.768 154.245 217.518 154.021C217.268 153.798 217.013 153.58 216.752 153.367C216.486 153.154 216.217 152.949 215.945 152.752C215.674 152.555 215.397 152.364 215.115 152.177C210.708 149.255 205.112 148.002 199.906 149.12C194.382 150.309 189.783 153.654 186.773 158.404C183.78 163.131 183.205 168.879 184.426 174.276L184.482 174.523C185.297 177.158 186.406 179.713 188.155 181.86L154.057 181.948C149.57 181.956 145.043 182.092 140.556 181.972C132.916 182.164 125.228 181.996 117.588 182.004L82.404 182.132C75.5434 182.105 68.6829 182.126 61.8223 182.196C64.0178 179.521 65.6704 176.543 66.365 173.134C67.4348 167.905 66.2452 162.173 63.2594 157.75C60.2575 153.311 55.8506 150.485 50.5974 149.471C45.3282 148.449 39.588 149.551 35.1491 152.576C30.8061 155.538 27.445 160.321 26.487 165.534C25.3693 171.561 27.2534 177.006 30.6783 181.916C29.4968 181.868 28.3205 181.775 27.1496 181.637C24.7306 176.208 23.8364 172.056 23.2057 166.196C22.5111 159.738 18.9824 161.414 15.0864 158.141C14.4717 157.63 13.833 156.951 13.5216 156.209C12.2362 153.183 12.8031 147.698 12.4438 144.274C11.8131 138.174 4.58797 135.284 0.300781 131.851C2.27273 132.777 4.22871 133.703 6.30444 134.382C16.236 137.639 25.6806 136.386 34.6542 131.101C37.1051 129.656 39.2447 127.692 41.8075 126.422C41.8554 126.401 41.9033 126.38 41.9512 126.358C46.901 122.957 55.8666 118.327 61.5349 116.475C63.7224 115.038 73.3267 112.052 76.2566 111.453C80.5678 109.896 93.5651 107.964 98.4111 107.892Z" fill="url(#paint0_linear_40_4586)"/>
<path d="M41.9512 126.358C43.508 126.342 44.9849 124.578 46.6136 124.227C46.6562 124.28 46.7014 124.33 46.7493 124.378C47.7552 125.448 49.312 125.696 50.0944 126.965L50.0625 127.332C49.5994 127.675 46.877 129.288 46.3661 129.44L45.9509 129.288L45.8711 129.368L46.1346 129.623L46.0068 129.592C46.0467 129.655 46.0867 129.719 46.1186 129.783C46.2703 130.063 46.2304 129.951 46.2384 130.262C47.1405 132.729 48.8171 134.142 51.1323 135.228C54.0383 136.585 57.3515 137.176 60.497 137.679L60.6407 137.926C62.61 138.113 64.582 138.238 66.5566 138.302C67.8978 138.342 69.271 138.262 70.5963 138.405C71.0035 139.204 71.3627 140.09 71.8577 140.84C72.1371 141.264 72.4724 141.455 72.8077 141.814C73.6141 142.669 74.141 143.699 75.0352 144.489L75.131 144.808C74.8835 145.128 74.644 145.199 74.2528 145.271C72.8636 145.535 69.4626 144.776 68.6243 146.054C68.0815 146.884 68.0735 147.587 68.1054 148.537L68.3369 148.696C68.7601 149.439 68.9517 149.886 69.8299 150.109C69.9416 150.141 70.0561 150.168 70.1732 150.189C71.3388 150.644 83.6494 150.517 85.2781 150.213L85.3899 150.022C85.7012 149.471 85.8769 149.056 85.9727 148.433C86.0312 148.082 86.0845 147.73 86.1324 147.379C88.6472 147.283 90.7309 148.161 93.102 148.672C95.5051 149.191 98.1556 149.55 100.479 150.333C101.038 150.524 101.485 150.852 101.908 151.243C102.411 152.552 102.155 160.64 102.092 162.492C102.044 163.793 101.764 165.454 102.1 166.715C102.778 160.121 102.563 153.279 102.084 146.676C101.884 144.002 101.11 141.008 101.277 138.358L101.581 139.563C102.411 142.733 102.914 145.902 103.257 149.167C103.425 150.78 103.473 152.473 103.728 154.077C103.872 160.129 104.063 167.106 102.171 172.91C116.414 172.671 130.609 172.839 144.852 172.974L157.633 173.07C159.35 173.086 161.37 173.31 163.062 173.07C166.096 173.206 169.138 173.166 172.171 173.182C174.016 173.198 175.94 173.118 177.76 173.461L175.588 173.661C176.733 173.741 177.88 173.775 179.029 173.765C179.812 173.757 180.937 173.485 181.672 173.661C182.414 173.837 183.428 174.515 184.091 174.922L184.123 174.771L184.235 174.819L184.482 174.523C185.297 177.158 186.406 179.713 188.155 181.86L154.057 181.948C149.57 181.956 145.043 182.092 140.556 181.972C132.916 182.163 125.228 181.996 117.588 182.004L82.404 182.132C75.5434 182.105 68.6829 182.126 61.8223 182.195C64.0178 179.521 65.6704 176.543 66.365 173.134C67.4348 167.905 66.2452 162.173 63.2594 157.75C60.2575 153.311 55.8506 150.485 50.5974 149.471C45.3282 148.449 39.588 149.551 35.1491 152.576C30.8061 155.538 27.445 160.32 26.487 165.534C25.3693 171.561 27.2534 177.006 30.6783 181.916C29.4968 181.868 28.3205 181.775 27.1496 181.637C24.7306 176.208 23.8364 172.056 23.2057 166.196C22.5111 159.738 18.9824 161.414 15.0864 158.141C14.4717 157.63 13.833 156.951 13.5216 156.209C12.2362 153.183 12.8031 147.698 12.4438 144.273C11.8131 138.174 4.58797 135.284 0.300781 131.851C2.27273 132.777 4.22871 133.703 6.30444 134.382C16.236 137.639 25.6806 136.386 34.6542 131.1C37.1051 129.655 39.2447 127.691 41.8075 126.422C41.8554 126.401 41.9033 126.379 41.9512 126.358Z" fill="#2B2A93"/>
<path d="M175.588 173.661C176.732 173.74 177.879 173.775 179.029 173.764C179.811 173.756 180.937 173.485 181.671 173.661C182.414 173.836 183.428 174.515 184.09 174.922L184.122 174.77L184.234 174.818L184.481 174.523C185.296 177.157 186.405 179.712 188.154 181.86L154.056 181.948C149.569 181.956 145.042 182.091 140.556 181.972C140.215 181.897 139.874 181.822 139.534 181.748C140.029 181.373 165.409 181.588 168.331 181.588C170.151 181.588 172.171 181.804 173.959 181.604C173.552 181.261 173.272 180.758 172.793 180.518C171.484 179.832 169.033 179.401 167.492 178.818C166.422 178.419 165.512 177.716 164.459 177.333C162.718 176.702 161.225 176.686 159.676 175.561C158.71 174.866 157.72 174.682 156.563 174.523C154.607 174.243 152.675 174.371 150.711 174.371C146.615 174.371 142.536 174.483 138.44 174.531C136.955 174.555 135.175 174.682 133.714 174.411C133.607 174.39 133.503 174.368 133.402 174.347C140.452 173.964 147.613 174.1 154.679 174.004C161.64 173.9 168.618 173.557 175.588 173.661Z" fill="#871693"/>
<path d="M102.1 166.713C102.779 160.119 102.563 153.277 102.084 146.674C101.884 144 101.11 141.006 101.278 138.355L101.581 139.561C102.411 142.73 102.914 145.9 103.258 149.165C103.425 150.778 103.473 152.47 103.729 154.075C103.872 160.127 104.064 167.104 102.172 172.908C116.415 172.669 130.609 172.837 144.852 172.972L157.634 173.068C159.35 173.084 161.37 173.308 163.063 173.068C166.096 173.204 169.138 173.164 172.172 173.18C174.016 173.196 175.94 173.116 177.76 173.459L175.589 173.659C168.619 173.555 161.642 173.898 154.68 174.002C147.614 174.098 140.453 173.962 133.404 174.345C131.496 174.21 129.5 174.345 127.584 174.361C123.869 174.388 120.153 174.393 116.438 174.377C104.665 174.319 92.8948 174.119 81.127 173.779C79.1152 173.707 73.9977 173.954 72.4648 173.475C74.2292 173.084 77.4865 173.244 79.4425 173.188C86.798 173.044 94.1536 172.959 101.509 172.932C101.727 170.862 101.924 168.789 102.1 166.713Z" fill="#FEFEFE"/>
<path d="M94.3398 114.152C96.9984 113.529 100.216 113.593 102.954 113.481C103.976 113.439 104.998 113.409 106.02 113.393C107.042 113.377 108.066 113.375 109.094 113.385C110.115 113.396 111.137 113.417 112.159 113.449C113.181 113.486 114.203 113.537 115.225 113.601C116.247 113.665 117.266 113.739 118.283 113.824C119.305 113.915 120.321 114.016 121.332 114.128C122.349 114.245 123.366 114.373 124.382 114.511C125.393 114.649 126.405 114.801 127.416 114.966C128.422 115.136 129.428 115.317 130.434 115.509C131.44 115.701 132.443 115.903 133.443 116.116C134.444 116.334 135.439 116.565 136.429 116.81C137.425 117.05 138.415 117.305 139.399 117.577C140.389 117.843 141.374 118.122 142.353 118.415C143.332 118.708 144.309 119.014 145.283 119.333C146.252 119.652 147.22 119.982 148.189 120.323C149.153 120.669 150.111 121.026 151.063 121.393C154.831 122.806 158.544 124.506 162.2 126.183C163.637 126.846 165.186 127.82 166.679 128.283C172.475 131.851 178.455 134.837 183.956 138.901C177.058 138.542 170.128 138.629 163.214 138.55C150.755 138.326 138.292 138.244 125.827 138.302L111.049 138.254C108.527 138.246 105.748 138.023 103.258 138.382C102.651 136.785 102.379 134.949 101.94 133.288C101.07 130.015 100.04 126.838 98.7228 123.716C97.7728 120.427 95.9126 117.177 94.3398 114.152Z" fill="#FEFEFE"/>
<path d="M103.729 154.077C104.016 153.119 103.832 152.241 103.761 151.267C103.705 150.589 103.657 149.782 104.2 149.271C104.519 148.968 104.878 148.928 105.301 148.952C106.523 149.016 107.728 148.8 108.958 148.896C109.269 149.064 109.421 149.199 109.613 149.487C109.804 149.774 109.988 149.998 110.227 150.245C110.531 150.357 110.666 150.397 111.002 150.325C111.082 150.309 111.161 150.285 111.249 150.261C112.87 150.07 114.618 150.134 116.247 150.205C117.125 150.748 123.696 150.277 125.205 150.333C126.083 150.373 126.458 151.155 127.192 151.371C128.238 151.666 129.572 151.547 130.729 151.874C131.536 152.105 132.334 152.497 133.14 152.68C134.505 152.984 135.823 153.239 137.132 153.774C138.896 154.501 140.581 155.49 142.313 156.297L155.191 162.316C156.444 162.891 157.81 163.235 159.079 163.769C161.634 164.855 164.053 166.101 166.528 167.33C167.518 167.825 168.587 168.105 169.489 168.775C169.801 169.007 170.104 169.358 170.503 169.302C170.551 169.358 170.607 169.414 170.663 169.47C171.142 169.925 171.741 169.901 171.996 170.54L172.252 170.412C172.3 170.444 172.356 170.484 172.411 170.516C173.817 171.394 175.573 171.817 177.098 172.464V172.583L176.635 172.456L176.659 172.575C176.1 172.791 175.318 172.703 174.719 172.727C172.34 172.839 164.667 172.511 163.063 173.07C161.37 173.31 159.35 173.086 157.634 173.07L144.852 172.975C130.609 172.839 116.415 172.671 102.172 172.911C104.064 167.107 103.872 160.129 103.729 154.077Z" fill="#871693"/>
<path d="M66.4209 120.123C69.8778 118.957 73.3107 117.839 76.8634 117.017C79.6098 116.378 82.412 115.971 85.1504 115.316C85.9647 116.753 86.6992 118.198 87.3538 119.715C87.785 120.721 88.1522 121.855 88.6871 122.805C90.2439 127.172 91.7209 131.435 92.647 135.986L92.9663 138.094C87.7211 138.126 82.4679 137.95 77.2147 137.934C71.6342 137.918 66.0696 138.046 60.4971 137.678C57.3515 137.175 54.0383 136.585 51.1323 135.227C48.8171 134.142 47.1405 132.729 46.2384 130.262C46.2304 129.95 46.2703 130.062 46.1186 129.783C46.0867 129.719 46.0468 129.655 46.0068 129.591L46.1346 129.623L45.8711 129.368L45.9509 129.288L46.3661 129.439C46.877 129.288 49.5994 127.675 50.0625 127.332L50.0944 126.964C49.312 125.695 47.7552 125.448 46.7493 124.378C46.7014 124.33 46.6562 124.279 46.6136 124.226C44.9849 124.577 43.508 126.342 41.9512 126.358C46.901 122.957 55.8666 118.326 61.5349 116.474C61.1996 117.033 55.8586 119.157 54.9485 119.628C56.0262 120.793 57.5351 122.031 58.9802 122.717C60.9362 122.462 64.7842 119.683 66.4209 120.123Z" fill="#FEFEFE"/>
<path d="M41.9512 126.356C46.901 122.955 55.8666 118.325 61.5349 116.473C61.1996 117.032 55.8586 119.155 54.9485 119.626C56.0262 120.792 57.5351 122.029 58.9802 122.716C60.9362 122.46 64.7842 119.682 66.4209 120.121C62.7085 121.622 48.1225 127.634 46.2384 130.26C46.2304 129.949 46.2703 130.061 46.1186 129.781C46.0867 129.717 46.0468 129.654 46.0068 129.59L46.1346 129.622L45.8711 129.366L45.9509 129.286L46.3661 129.438C46.877 129.286 49.5994 127.674 50.0625 127.33L50.0944 126.963C49.312 125.694 47.7552 125.446 46.7493 124.376C46.7014 124.329 46.6562 124.278 46.6136 124.225C44.9849 124.576 43.508 126.34 41.9512 126.356Z" fill="url(#paint1_linear_40_4586)"/>
<path d="M76.2574 111.454C76.3053 111.46 76.3506 111.465 76.3931 111.47C77.8781 111.59 79.7622 110.927 81.2232 110.632C85.3108 109.802 89.8694 108.66 94.0449 108.692C96.1685 108.708 98.1165 109.842 100.208 110.145C102.707 110.496 105.326 110.105 107.761 110.504C108.631 110.648 109.461 110.959 110.331 111.095C111.561 111.295 112.806 111.351 114.036 111.502C116.024 111.75 118.028 112.125 120.015 112.396C120.958 112.532 121.828 112.891 122.778 112.971C123.137 113.259 123.321 113.522 123.784 113.554C124.359 113.586 125.356 114.001 125.748 114.4L125.428 114.257L125.396 114.36C122.522 114.041 119.68 113.594 116.798 113.354C111.265 112.907 102.923 112.963 97.4379 113.562C96.4958 113.666 95.5218 113.546 94.6356 113.81C94.468 113.865 94.2923 113.889 94.1167 113.929L94.1886 114.097L94.3402 114.153C95.913 117.179 97.7732 120.428 98.7232 123.717C98.6594 124.228 98.7632 124.516 98.9627 124.987C99.1384 125.402 99.338 125.785 99.3779 126.24L98.819 126.256L99.0506 126.152L98.6274 125.833L98.6993 126.104L98.4917 125.745C97.5816 125.505 96.5437 125.394 95.6735 125.066C94.5638 124.643 93.478 123.933 92.3204 123.669C91.2825 123.438 90.1808 123.597 89.1509 123.366L88.9114 122.799L88.6879 122.807C88.153 121.857 87.7857 120.723 87.3546 119.717C86.6999 118.201 85.9655 116.755 85.1511 115.318C82.4128 115.973 79.6105 116.38 76.8642 117.019C73.3115 117.841 69.8785 118.959 66.4216 120.125C64.785 119.685 60.9369 122.464 58.9809 122.719C57.5359 122.033 56.027 120.795 54.9492 119.63C55.8593 119.159 61.2004 117.035 61.5357 116.476C63.7232 115.039 73.3274 112.053 76.2574 111.454Z" fill="#F45338"/>
<path d="M68.3359 148.698C68.3759 147.796 68.3359 146.718 69.1183 146.095C69.5415 145.76 70.0205 145.624 70.5554 145.584C72.1281 145.473 73.7728 145.648 75.3615 145.64C78.0679 145.632 81.5967 145.305 84.1674 145.664C84.7103 145.744 85.0935 145.872 85.4368 146.343C85.8759 146.942 85.9877 147.939 85.7721 148.65C85.6044 149.209 85.1893 149.688 84.6783 149.943C83.6485 150.462 72.4874 149.999 70.1722 150.191C70.0551 150.17 69.9406 150.143 69.8289 150.111C68.9507 149.887 68.7591 149.44 68.3359 148.698Z" fill="#FEFEFE"/>
<path d="M111.25 150.261C110.691 150.093 110.156 149.974 109.868 149.407C109.517 148.736 109.326 147.626 109.653 146.916C109.916 146.349 110.443 146.062 111.018 145.91C111.777 145.718 122.842 145.79 124.239 145.926C124.758 145.982 125.444 146.07 125.876 146.405C126.363 146.78 126.514 147.594 126.506 148.177C126.498 148.72 126.371 149.295 125.987 149.702C125.069 150.676 117.988 149.974 116.247 150.205C114.619 150.133 112.87 150.069 111.25 150.261Z" fill="#FEFEFE"/>
<path d="M98.4121 107.892C101.478 107.421 104.847 107.597 107.945 107.653C120.567 107.9 130.674 109.537 142.849 112.563C142.186 112.93 141.404 112.898 140.661 112.874C138.362 112.826 136.182 112.187 133.915 112.028C131.648 111.868 129.357 112.18 127.073 112.004C126.411 111.956 125.644 111.94 124.997 111.772C124.175 111.565 123.433 111.102 122.602 110.918C121.261 110.615 119.824 110.647 118.499 110.295C117.205 109.952 115.928 109.297 114.619 109.066C113.733 108.906 112.767 109.05 111.896 108.85C110.994 108.643 110.316 107.932 109.35 107.972C106.715 108.092 104.08 108.012 101.446 107.956C100.424 107.932 99.434 108.004 98.4121 107.892Z" fill="#FA8727"/>
<path d="M214.859 141.918C216.552 142.054 218.308 142.445 219.985 142.756C230.451 144.72 243.073 149.462 250.41 157.446C245.077 156.52 239.593 156.68 234.259 155.762C233.062 154.811 232.048 153.542 230.978 152.448C229.397 150.857 227.694 149.412 225.869 148.113C223.825 146.684 221.574 145.415 219.346 144.281C217.909 143.555 216.312 142.924 214.987 142.014C214.945 141.982 214.902 141.95 214.859 141.918Z" fill="#FEFEFE"/>
<path d="M89.3586 6.75581L89.5662 6.83565C94.3803 8.69582 93.2865 18.1564 101.007 18.2123C103.17 18.2282 105.302 17.5257 107.37 16.9828C109.445 16.4319 111.792 16.2164 113.756 15.3462C115.361 14.6356 116.543 13.3024 117.149 11.6577C118.06 9.17484 117.589 1.92574 119.728 0.831989C120.359 0.512645 121.141 0.416842 121.836 0.360957C123.68 0.225236 136.126 -0.0861228 137.524 0.416843C138.234 0.680302 138.697 1.25512 138.977 1.93373C140.957 6.61211 138.53 12.8154 144.254 15.3781C146.417 16.3361 148.948 16.4878 151.223 17.0626C153.06 17.5257 155.048 18.4039 156.9 18.6035C157.898 18.7072 158.88 18.6035 159.814 18.2202C164.117 16.4559 165.578 8.58406 168.276 7.41047C169.322 6.9554 171.454 7.84956 172.46 8.24076C175.015 9.23871 184.307 12.7196 186.12 14.0847C186.607 14.452 186.894 14.9789 187.134 15.5298C187.192 15.6788 187.251 15.8278 187.309 15.9769C186.231 19.6014 183.669 25.9563 185.497 29.4611C185.824 30.0839 186.247 30.6667 186.79 31.1217C188.036 32.1756 196.083 37.309 197.345 37.7162C199.045 38.2591 201.153 37.7721 202.678 36.9418C205.616 35.353 207.955 32.6865 211.188 31.6327C211.739 31.8083 212.29 31.984 212.777 32.3033C215.97 34.395 222.82 41.221 225.112 44.4623C225.487 44.8695 225.678 45.1249 225.838 45.6519C225.575 49.0928 216.146 52.7812 218.07 58.8088C218.725 60.8606 220.561 62.8645 221.774 64.6289C222.796 66.0978 223.595 67.8462 224.744 69.1955C225.87 70.5207 227.315 71.2872 229.055 71.383C231.586 71.5187 234.492 70.4249 236.855 69.5867C237.71 69.2833 238.612 68.8841 239.514 68.7564C240.161 68.6685 240.863 68.6925 241.334 69.1955C242.683 70.6325 245.565 78.3207 246.06 80.4204C247.011 82.1369 247.905 85.6097 248.479 87.5897C246.06 90.0885 242.013 90.7671 239.801 93.6013C238.476 95.3098 238.324 97.4654 238.572 99.5411C238.819 101.609 239.354 103.669 239.69 105.736C239.945 107.277 240.121 108.906 240.703 110.375C242.588 115.157 247.833 114.981 252.136 115.301C253.198 115.381 254.635 115.357 255.489 116.083C256.16 116.658 256.136 117.696 256.176 118.518C256.279 120.985 256.631 133.128 255.393 134.477C254.212 134.102 253.126 133.415 252.024 132.849C250.212 131.931 248.352 131.012 246.484 130.222C239.57 127.3 232.001 126.031 224.593 125.152C224.257 121.903 224.034 118.638 223.547 115.397C223.334 113.912 223.086 112.432 222.804 110.958C222.522 109.483 222.208 108.017 221.862 106.559C221.511 105.1 221.128 103.65 220.713 102.208C220.297 100.765 219.85 99.3335 219.371 97.9124C218.887 96.486 218.373 95.0756 217.83 93.6811C217.288 92.2813 216.71 90.8949 216.098 89.5217C215.491 88.1538 214.853 86.7966 214.182 85.4501C213.511 84.1088 212.809 82.7835 212.074 81.4742C210.573 78.8157 208.801 76.253 207.156 73.6822C197.895 60.8606 187.429 51.7433 173.705 43.9114C169.865 42.0353 166.057 40.1671 162.025 38.7141C143.336 31.96 122.866 30.5788 103.633 35.9758C97.4699 37.7002 91.7058 40.1112 85.9177 42.8337L85.9735 42.65C86.2849 42.2908 86.8677 42.0992 87.2908 41.8996C85.8059 41.2848 84.305 40.6781 82.7402 40.2709C79.2194 39.3608 75.4432 38.9856 72.0821 37.4926C70.7249 36.8859 69.6711 35.9997 68.4176 35.2492C67.8987 34.9379 67.6752 34.7702 67.3398 34.2513C69.9904 32.5109 73.6309 30.6667 74.3654 27.2976C75.3953 22.5633 69.5912 15.7533 72.7288 13.5498C75.6108 11.538 85.8857 7.4424 89.3586 6.75581Z" fill="url(#paint2_linear_40_4586)"/>
<path d="M198.119 62.3545C199.804 61.9952 206.095 63.5201 207.588 64.5021C208.37 65.013 209.168 65.7076 210.023 66.0828C212.09 66.969 215.428 66.8492 217.583 66.3702C218.541 66.1626 219.978 65.1647 220.864 65.2046C221.024 65.2046 221.591 65.5878 221.743 65.6836C222.509 66.1706 223.028 67.0887 223.499 67.8392C225.423 70.8889 227.491 72.1663 231.171 71.4957C233.223 71.1284 235.259 70.4738 237.247 69.8431C238.013 69.6036 238.796 69.1964 239.586 69.0607C240.001 68.9888 240.536 68.9968 240.895 69.2284C242.564 70.2822 245.366 79.9503 245.741 80.2776C245.829 80.3575 245.941 80.3974 246.061 80.4213C247.011 82.1378 247.905 85.6107 248.48 87.5906C246.061 90.0895 242.013 90.7681 239.801 93.6023C238.476 95.3107 238.324 97.4663 238.572 99.542C238.819 101.61 239.354 103.67 239.69 105.737C239.945 107.278 240.121 108.907 240.704 110.376C242.588 115.158 247.833 114.982 252.136 115.302C253.198 115.381 254.635 115.358 255.489 116.084C256.16 116.659 256.136 117.697 256.176 118.519C256.28 120.986 256.631 133.129 255.393 134.478C254.212 134.103 253.126 133.416 252.024 132.85C250.212 131.931 248.352 131.013 246.484 130.223C239.57 127.301 232.001 126.032 224.593 125.153C224.257 121.904 224.034 118.639 223.547 115.397C223.334 113.913 223.086 112.433 222.804 110.959C222.522 109.484 222.208 108.018 221.862 106.56C221.511 105.101 221.128 103.651 220.713 102.209C220.298 100.766 219.85 99.3345 219.371 97.9134C218.887 96.487 218.373 95.0766 217.831 93.6821C217.288 92.2823 216.71 90.8958 216.098 89.5226C215.491 88.1548 214.853 86.7976 214.182 85.451C213.511 84.1098 212.809 82.7845 212.074 81.4752C210.574 78.8166 208.801 76.2539 207.157 73.6832L207.244 73.3718C205.049 70.0986 201.065 64.9012 198.119 62.3545Z" fill="#DA1B7D"/>
<path d="M34.5348 187.961C35.8361 189.342 37.2252 191.154 38.9018 192.057C39.4447 192.344 39.9397 192.456 40.5464 192.512C43.2608 192.767 46.1509 192.559 48.8813 192.567C51.7155 192.567 54.6454 192.767 57.4636 192.544C58.5973 192.456 59.5713 192.232 60.6411 191.881C62.7647 193.533 64.6409 195.521 66.7006 197.262C69.7184 199.817 73.2392 202.228 76.5763 204.351C77.2204 204.75 77.8697 205.144 78.5243 205.533C79.1737 205.921 79.831 206.302 80.4963 206.674C81.1563 207.047 81.8216 207.412 82.4922 207.768C83.1628 208.125 83.8361 208.473 84.512 208.814C85.1933 209.155 85.8772 209.487 86.5638 209.812C87.2451 210.142 87.9343 210.461 88.6316 210.77C89.3235 211.079 90.0181 211.382 90.7153 211.68C91.4178 211.973 92.1231 212.258 92.8309 212.534C93.5335 212.817 94.2414 213.088 94.9546 213.349C95.6678 213.61 96.3836 213.865 97.1022 214.115C97.8207 214.36 98.5419 214.597 99.2657 214.826C99.9896 215.055 100.716 215.275 101.445 215.488C102.174 215.701 102.906 215.906 103.641 216.103C104.37 216.3 105.104 216.489 105.844 216.67C106.584 216.851 107.324 217.024 108.064 217.189C108.803 217.349 109.546 217.503 110.291 217.652C111.036 217.796 111.784 217.934 112.534 218.067C113.285 218.195 114.035 218.315 114.786 218.426C115.536 218.538 116.287 218.642 117.037 218.738C117.793 218.833 118.549 218.921 119.305 219.001C120.06 219.076 120.816 219.145 121.572 219.209C122.328 219.267 123.086 219.318 123.847 219.36C124.603 219.408 125.361 219.446 126.123 219.472C126.878 219.493 127.637 219.509 128.398 219.52C129.159 219.531 129.917 219.531 130.673 219.52C131.434 219.515 132.193 219.499 132.948 219.472C133.71 219.446 134.468 219.411 135.224 219.368C135.985 219.331 136.743 219.281 137.499 219.217C138.255 219.158 139.011 219.092 139.766 219.017C140.522 218.937 141.278 218.852 142.034 218.762C142.784 218.666 143.537 218.562 144.293 218.45C145.044 218.339 145.791 218.219 146.537 218.091C148.556 217.748 150.544 217.149 152.548 216.702C155.263 215.824 158.001 215.081 160.699 214.139C168.907 211.273 176.323 207.489 183.532 202.651C185.081 201.19 186.941 200.016 188.546 198.603C190.782 196.639 192.817 194.468 195.069 192.528C200.466 192.458 205.86 192.44 211.252 192.472C215.962 192.528 220.688 192.727 225.398 192.687C225.079 194.539 224.824 196.304 225.957 197.964C226.963 199.441 228.799 200.439 230.276 201.389C227.498 205.453 218.269 216.542 214.621 219.161C214.11 219.528 213.495 219.752 212.92 219.983L212.713 219.847C208.266 216.933 203.428 211.057 197.528 212.263C194.686 212.838 192.929 215.177 190.646 216.726C188.107 218.913 185.528 220.382 185.225 224.079C184.986 226.969 186.949 232.693 187.556 235.815C185.967 236.805 183.03 238.673 181.225 239.08C179.389 240.174 171.23 243.854 169.513 243.631C166.751 243.263 163.869 233.635 158.105 232.765C155.79 232.414 152.899 233.435 150.64 233.97C148.165 234.553 145.419 235 143.271 236.445C138.824 239.447 141.084 247.558 138.106 249.602C137.771 249.826 137.395 249.946 136.996 250.001C133.451 250.456 129.675 250.113 126.099 250.065C124.318 250.041 122.362 250.241 120.606 249.93C117.141 249.307 118.434 241.1 116.159 237.906C115.552 237.052 114.786 236.421 113.852 235.958C111.409 234.745 108.335 234.33 105.692 233.651C104.367 233.308 103.058 232.837 101.709 232.597C95.9924 231.575 94.1083 235.918 91.6094 239.998C91.0346 240.932 90.4438 242.018 89.5018 242.625C88.7034 243.136 87.7853 243.144 86.8911 242.904C86.0209 242.664 85.2066 242.177 84.3603 241.858C82.0291 240.964 79.7139 240.126 77.4386 239.104C75.762 238.345 72.7442 237.387 71.5068 236.014C69.2953 233.547 74.8519 225.795 71.9938 220.861C70.7882 218.794 61.8706 212.439 59.5793 211.88C54.5097 210.634 50.8452 215.904 46.9093 218.107C46.1589 218.522 45.3126 218.762 44.4823 218.466C41.8956 217.548 31.7724 206.387 30.6627 203.88C29.2177 200.607 34.5907 198.667 35.8281 195.282C36.8261 192.567 35.6924 190.356 34.5348 187.961Z" fill="#2B2A93"/>
<path d="M195.069 192.524C200.466 192.455 205.86 192.436 211.252 192.468C215.962 192.524 220.688 192.724 225.398 192.684C225.079 194.536 224.824 196.3 225.957 197.961C226.963 199.438 228.799 200.436 230.276 201.386C227.498 205.45 218.269 216.539 214.621 219.157C214.11 219.525 213.495 219.748 212.92 219.98L212.713 219.844C208.266 216.93 203.428 211.054 197.528 212.26C194.686 212.834 192.929 215.174 190.646 216.722L190.63 216.579L190.51 216.507C189.935 216.89 189.448 217.345 188.889 217.736C187.947 218.391 186.558 219.501 186.103 220.586C185.991 220.858 186.103 220.738 185.864 220.898L186.119 220.722L185.792 220.85C185.393 220.307 185.225 219.62 184.946 219.014C183.317 215.485 177.92 213.393 174.719 211.485C173.769 210.918 173.465 210.024 172.355 209.633C174.216 208.691 182.998 204.236 183.532 202.647C185.081 201.186 186.941 200.013 188.546 198.6C190.782 196.636 192.817 194.464 195.069 192.524Z" fill="#871693"/>
<path d="M152.547 216.7C155.261 215.821 158 215.079 160.698 214.137C168.905 211.271 176.322 207.486 183.531 202.648C182.996 204.237 174.214 208.692 172.354 209.634C173.464 210.025 173.767 210.919 174.717 211.486C177.919 213.394 183.316 215.486 184.944 219.015C185.224 219.622 185.391 220.308 185.791 220.851L186.118 220.723L185.862 220.899C186.102 220.739 185.99 220.859 186.102 220.588C186.557 219.502 187.946 218.392 188.888 217.737C189.447 217.346 189.934 216.891 190.509 216.508L190.629 216.58L190.645 216.724C188.106 218.911 185.527 220.38 185.224 224.076C184.984 226.966 186.948 232.691 187.555 235.812C185.966 236.802 183.028 238.67 181.224 239.078C181.487 238.08 186.126 237.05 186.988 235.421C187.172 233.186 185.144 226.432 183.835 224.659C181.575 223.813 179.268 223.142 177.017 222.312C175.955 221.921 174.989 221.322 173.935 220.899C171.396 219.877 168.785 219.047 166.247 217.985C165.209 217.554 164.203 217.091 163.213 216.556C162.343 216.085 161.289 215.039 160.339 214.871C158.199 214.496 154.814 217.115 152.77 216.755C152.699 216.739 152.619 216.716 152.547 216.7Z" fill="#5B1A95"/>
<path d="M94.3162 67.0897C96.4638 65.5568 99.1303 64.4072 101.557 63.3773C114.068 58.0682 127.903 56.8228 141.252 59.0822C141.736 59.1673 142.218 59.2578 142.697 59.3536C143.176 59.4494 143.655 59.5479 144.134 59.649C144.607 59.7554 145.084 59.8672 145.563 59.9843C146.037 60.1014 146.51 60.2211 146.984 60.3436C147.452 60.4713 147.923 60.6017 148.397 60.7348C148.865 60.8678 149.334 61.0062 149.802 61.1499C150.265 61.2989 150.731 61.4506 151.199 61.605C151.662 61.7593 152.123 61.9163 152.58 62.076C153.043 62.241 153.504 62.4113 153.962 62.5869C154.414 62.7573 154.869 62.9356 155.327 63.1218C155.779 63.3028 156.229 63.4891 156.676 63.6807C157.128 63.8723 157.575 64.0692 158.017 64.2715C158.464 64.4737 158.909 64.6813 159.351 64.8942C159.792 65.1018 160.231 65.3173 160.668 65.5409C161.104 65.7591 161.538 65.9826 161.969 66.2115C162.4 66.4404 162.829 66.6745 163.254 66.914C163.68 67.1482 164.106 67.3904 164.532 67.6406C164.952 67.8854 165.37 68.1355 165.785 68.391C166.206 68.6465 166.621 68.9046 167.031 69.1654C167.441 69.4315 167.85 69.7003 168.26 69.9718C168.665 70.2432 169.067 70.52 169.466 70.8021C169.865 71.0841 170.261 71.3689 170.655 71.6563C171.049 71.9437 171.44 72.2364 171.829 72.5345C172.217 72.8326 172.603 73.1333 172.986 73.4366C173.37 73.7453 173.748 74.054 174.12 74.3627C174.498 74.6768 174.871 74.9934 175.238 75.3128C175.605 75.6374 175.97 75.9621 176.332 76.2868C176.699 76.6168 177.058 76.9494 177.409 77.2847C177.766 77.62 178.117 77.9607 178.463 78.3066C178.814 78.6473 179.16 78.9932 179.501 79.3445C179.842 79.6958 180.18 80.0497 180.515 80.4063C180.845 80.7629 181.175 81.1222 181.505 81.4841C184.02 84.2624 186.247 87.2562 188.411 90.3139C190.367 93.0763 191.684 95.0961 190.997 98.6488C190.638 100.509 189.728 102.209 188.139 103.295C188.038 103.359 187.94 103.42 187.844 103.479C187.743 103.543 187.639 103.601 187.533 103.655C187.431 103.708 187.328 103.761 187.221 103.814C187.115 103.862 187.008 103.907 186.902 103.95C186.79 103.998 186.681 104.04 186.575 104.078C186.463 104.115 186.351 104.15 186.239 104.181C186.127 104.219 186.013 104.251 185.896 104.277C185.784 104.304 185.67 104.328 185.553 104.349C185.441 104.37 185.326 104.389 185.209 104.405C185.092 104.421 184.975 104.434 184.858 104.445C184.741 104.456 184.624 104.464 184.507 104.469C184.39 104.469 184.275 104.469 184.164 104.469C184.046 104.469 183.929 104.464 183.812 104.453C183.695 104.448 183.578 104.437 183.461 104.421C183.344 104.41 183.227 104.394 183.11 104.373C182.998 104.352 182.883 104.33 182.766 104.309C180.475 103.798 178.751 102.313 177.577 100.333C176.443 98.4412 175.469 96.5332 174.16 94.7369C173.926 94.4175 173.689 94.1008 173.45 93.7868C173.21 93.4728 172.968 93.1641 172.723 92.8607C172.473 92.552 172.22 92.246 171.965 91.9426C171.714 91.6392 171.459 91.3412 171.198 91.0484C170.937 90.7504 170.674 90.455 170.408 90.1623C170.142 89.8695 169.873 89.5821 169.601 89.3C169.33 89.0126 169.053 88.7305 168.771 88.4538C168.494 88.1717 168.212 87.8949 167.925 87.6235C167.643 87.352 167.355 87.0806 167.063 86.8092C166.775 86.543 166.483 86.2796 166.184 86.0188C165.892 85.758 165.594 85.4998 165.29 85.2444C164.992 84.9889 164.689 84.7387 164.38 84.4939C164.071 84.2438 163.763 83.9989 163.454 83.7594C163.14 83.5146 162.823 83.2751 162.504 83.0409C162.19 82.8067 161.871 82.5752 161.546 82.3463C161.227 82.1228 160.902 81.8992 160.572 81.6757C160.247 81.4522 159.92 81.2339 159.59 81.021C159.255 80.8082 158.919 80.5979 158.584 80.3904C158.249 80.1828 157.911 79.9805 157.57 79.7836C157.23 79.5813 156.889 79.3844 156.548 79.1928C156.202 79.0012 155.854 78.8123 155.502 78.626C155.156 78.445 154.808 78.2641 154.457 78.0831C154.105 77.9075 153.751 77.7345 153.395 77.5642C153.038 77.3938 152.679 77.2288 152.317 77.0692C151.96 76.9042 151.598 76.7445 151.231 76.5902C150.869 76.4358 150.505 76.2868 150.137 76.1431C149.776 75.994 149.408 75.8503 149.036 75.712C148.668 75.5736 148.299 75.4379 147.926 75.3048C147.553 75.1771 147.178 75.052 146.8 74.9296C146.428 74.8018 146.052 74.6821 145.675 74.5703C145.297 74.4532 144.919 74.3414 144.541 74.235C144.158 74.1285 143.777 74.0274 143.399 73.9316C142.457 73.6762 141.507 73.45 140.549 73.253C139.591 73.0508 138.63 72.8751 137.667 72.7261C136.704 72.5771 135.735 72.4547 134.761 72.3589C133.792 72.2631 132.821 72.1912 131.847 72.1433C130.868 72.1007 129.891 72.0848 128.917 72.0954C127.943 72.106 126.966 72.1406 125.987 72.1992C125.013 72.2631 124.042 72.3509 123.073 72.4626C122.104 72.5797 121.138 72.7208 120.175 72.8858C117.804 73.3089 115.385 74.1631 113.014 74.4665C104.192 77.4763 97.5495 81.5639 90.5399 87.6394C85.5981 92.5733 81.742 97.595 78.357 103.71C77.2553 103.87 76.1615 104.03 75.0518 104.102C72.8164 104.253 70.7806 103.838 69.088 102.281C67.7548 101.06 67.0283 99.6148 66.9644 97.8026C66.7808 92.9964 73.9181 84.5498 77.1595 80.9173C82.1572 75.5204 87.8734 70.6663 94.3162 67.0897Z" fill="#FCB61B"/>
<path d="M77.1595 80.9135C82.1572 75.5166 87.8734 70.6626 94.3162 67.0859C93.7015 68.1557 91.3223 69.2096 90.2525 69.9041C87.9453 71.3971 85.5742 73.3052 83.5383 75.1574C86.5482 76.6902 95.2423 78.8697 96.9029 81.7039C97.7012 81.7518 109.581 73.9518 113.014 74.4628C104.192 77.4726 97.5495 81.5602 90.5399 87.6357C85.5981 92.5696 81.742 97.5912 78.357 103.707C77.2553 103.866 76.1615 104.026 75.0518 104.098C72.8164 104.25 70.7806 103.834 69.088 102.278C67.7548 101.056 67.0283 99.6111 66.9644 97.7988C66.7808 92.9927 73.9181 84.5461 77.1595 80.9135Z" fill="url(#paint3_linear_40_4586)"/>
<path d="M35.4527 66.5524C35.5325 66.5205 35.6044 66.4965 35.6762 66.4566C36.7381 65.9696 37.2251 64.3649 38.2709 63.7422C38.6302 63.9098 38.4545 63.7901 38.71 64.0615C41.0891 66.6801 53.9666 65.5624 55.276 67.0873C54.8209 67.7499 53.328 69.2189 53.2481 69.9454C53.2401 69.9933 53.2641 70.0412 53.2801 70.0971C51.5077 72.8674 49.5437 75.4701 47.8672 78.3202C40.1151 91.5251 34.7901 106.766 34.5745 122.206C32.5626 123.459 30.5827 124.729 28.3234 125.511C21.7529 127.795 8.75558 127.188 2.44056 124.098C2.34476 122.422 2.16113 118.071 2.83974 116.697C3.08723 116.178 3.55028 115.915 4.06921 115.739C6.52816 114.933 10.0809 115.5 12.9949 114.518C15.0706 113.815 16.6753 112.418 17.6174 110.446C18.5514 108.49 18.8309 106.127 19.3019 104.027C19.749 101.992 20.4196 99.7322 20.1801 97.6405C19.5254 91.8364 10.504 88.6909 10.1527 86.6471C9.83336 84.8348 15.853 70.9913 17.29 69.3546C18.751 67.6941 22.8945 70.1211 24.5711 70.6799C26.056 71.1749 27.6128 71.5421 29.1856 71.3505C32.403 70.9593 33.6085 68.8437 35.4527 66.5524Z" fill="#1897C6"/>
<path d="M96.0481 43.9687C96.096 43.9448 96.1439 43.9208 96.1918 43.8969C97.4213 43.3141 98.8104 42.8989 100.096 42.4359C112.893 37.8214 127.048 36.9432 140.493 38.5159C144.62 39.0029 148.947 39.6975 152.875 41.0707L152.628 41.2463C152.867 41.3102 153.386 41.3581 153.514 41.5577C153.051 41.5816 152.684 41.5018 152.324 41.8451C152.117 42.0447 151.949 42.38 151.79 42.6195L151.989 43.0027C151.798 43.0506 151.582 43.0506 151.414 43.1544C151.039 43.3859 150.408 44.7831 150.121 45.2142C148.979 46.9546 147.79 48.5114 146.425 50.0842C147.662 50.3556 148.907 50.6031 150.113 50.9704L150.169 51.1859C149.123 51.0662 148.013 50.7069 146.983 50.4754C145.094 50.0336 143.191 49.6557 141.275 49.3417C132.86 48.0164 124.757 48.2479 116.334 49.206L116.079 49.2778C113.636 49.9245 111.081 50.2039 108.614 50.8426C100.687 52.9263 92.695 56.6147 85.8291 61.0616C81.7495 64.0395 77.6779 67.0014 74.0374 70.5301C62.6927 81.5156 54.3977 96.9718 51.2921 112.46C47.476 114.592 43.5321 116.46 39.9395 118.983C41.1609 97.9777 52.3859 75.8233 67.89 61.7721C68.0497 61.6284 67.9858 61.6763 68.1535 61.5726C69.4388 60.0158 71.315 58.6506 72.9037 57.3891C79.7137 51.9603 87.6893 46.6353 96.0481 43.9687Z" fill="#1897C6"/>
<path d="M96.0482 43.9687C96.0961 43.9448 96.144 43.9208 96.1919 43.8969C97.4214 43.3141 98.8105 42.8989 100.096 42.4359C112.894 37.8214 127.048 36.9432 140.493 38.5159C144.62 39.0029 148.947 39.6975 152.875 41.0707L152.628 41.2463C152.867 41.3102 153.386 41.3581 153.514 41.5577C153.051 41.5816 152.684 41.5018 152.325 41.8451C152.117 42.0447 151.949 42.38 151.79 42.6195L151.989 43.0027C151.798 43.0506 151.582 43.0506 151.414 43.1544C151.039 43.3859 150.408 44.7831 150.121 45.2142C148.979 46.9546 147.79 48.5114 146.425 50.0842C147.662 50.3556 148.908 50.6031 150.113 50.9704L150.169 51.1859C149.123 51.0662 148.013 50.7069 146.984 50.4754C145.094 50.0336 143.191 49.6557 141.275 49.3417C132.861 48.0164 124.757 48.2479 116.335 49.206L116.183 49.0623C114.227 49.2459 112.127 49.6371 110.227 50.1161C109.093 50.4035 108.024 50.8985 106.858 51.0183C106.587 50.8985 106.706 50.9224 106.459 50.9145C105.461 50.8666 104.583 50.0522 103.649 49.685C102.826 49.3656 101.956 49.1661 101.094 49.0064C98.7626 48.5833 96.2398 48.4076 93.8767 48.3118C93.0065 48.2719 91.9766 48.5034 91.1383 48.3278C90.1324 48.1282 88.9987 48.2879 88.0566 47.8887C88.1205 46.8668 95.3217 45.0785 96.0482 43.9687Z" fill="#856F79"/>
<path d="M96.049 43.9688C95.3225 45.0785 88.1213 46.8668 88.0574 47.8887C88.9995 48.2879 90.1331 48.1282 91.1391 48.3278C91.9773 48.5034 93.0072 48.2719 93.8774 48.3118C96.2406 48.4076 98.7634 48.5833 101.095 49.0064C101.957 49.1661 102.827 49.3657 103.649 49.685C104.583 50.0522 105.462 50.8666 106.46 50.9145C106.707 50.9225 106.587 50.8985 106.859 51.0183C108.024 50.8985 109.094 50.4035 110.228 50.1161C112.128 49.6371 114.228 49.2459 116.184 49.0623L116.335 49.206L116.08 49.2778C113.637 49.9245 111.082 50.2039 108.615 50.8426C100.687 52.9263 92.6959 56.6148 85.83 61.0616C85.8859 60.9818 85.9337 60.894 85.9976 60.8141C87.7939 58.3951 98.7235 54.539 99.5059 53.4133C99.2105 52.9822 98.6516 52.8705 98.1646 52.7826C96.6557 52.5032 93.9732 52.128 92.5282 52.2637C87.7301 52.6948 84.0975 54.1798 79.5868 55.1218C78.509 55.3454 77.3354 55.0819 76.3055 55.3054C76.082 55.3533 75.6669 55.6647 75.4513 55.8004C73.4315 57.0858 69.9825 60.9339 68.1543 61.5726C69.4397 60.0158 71.3158 58.6506 72.9045 57.3892C79.7145 51.9603 87.6901 46.6353 96.049 43.9688Z" fill="#518093"/>
<path d="M65.0391 187.863C69.9969 187.863 74.9627 187.687 79.9285 187.799C85.6766 191.743 91.9118 195.471 98.4185 198.026C101.388 199.192 104.422 200.341 107.496 201.195C126.409 206.473 145.578 204.245 163.421 196.469C165.576 195.184 167.9 194.194 170.063 192.916C172.658 191.392 174.941 189.587 177.36 187.823C182.294 187.679 187.244 188.054 192.17 187.791C186.166 193.962 181.584 198.218 173.919 202.457C172.682 203.135 171.173 204.133 169.84 204.549C157.617 210.76 143.302 213.378 129.69 213.698C125.642 213.794 121.619 213.354 117.611 212.883C116.584 212.772 115.559 212.639 114.537 212.484C113.515 212.335 112.496 212.168 111.48 211.981C110.463 211.8 109.449 211.598 108.438 211.374C107.432 211.156 106.429 210.919 105.428 210.664C104.422 210.408 103.424 210.137 102.434 209.85C101.444 209.557 100.457 209.251 99.4723 208.931C98.493 208.607 97.519 208.266 96.5503 207.91C95.5763 207.553 94.6129 207.18 93.6602 206.792C92.7022 206.398 91.7522 205.991 90.8101 205.57C89.868 205.145 88.9313 204.706 87.9999 204.253C87.0738 203.795 86.1557 203.324 85.2455 202.84C84.3301 202.35 83.4253 201.847 82.5311 201.331C81.637 200.815 80.7534 200.283 79.8806 199.734C79.0024 199.186 78.1348 198.622 77.2779 198.042C76.421 197.462 75.5747 196.868 74.7391 196.262C73.9035 195.655 73.0785 195.035 72.2642 194.401C69.7174 192.389 67.3862 190.098 65.0391 187.863Z" fill="url(#paint4_linear_40_4586)"/>
<path d="M177.36 187.823C182.294 187.679 187.244 188.055 192.17 187.791C186.166 193.962 181.583 198.218 173.919 202.457C172.682 203.136 171.173 204.134 169.84 204.549C168.993 204.437 166.447 205.866 165.353 206.209C165.712 205.882 166.111 205.547 166.255 205.068C166.934 202.84 161.249 199.958 160.371 198.146C161.193 197.523 162.479 197.22 163.413 196.701L163.421 196.469C165.576 195.184 167.9 194.194 170.063 192.917C172.658 191.392 174.941 189.587 177.36 187.823Z" fill="#871693"/>
<path d="M150.168 51.1855L150.112 50.97C148.907 50.6027 147.661 50.3552 146.424 50.0838C147.789 48.511 148.979 46.9542 150.12 45.2138C150.408 44.7827 151.038 43.3856 151.414 43.154C151.581 43.0502 151.797 43.0502 151.988 43.0023L151.789 42.6191C151.948 42.3796 152.116 42.0443 152.324 41.8447C152.683 41.5014 153.05 41.5813 153.513 41.5573C153.386 41.3577 152.867 41.3098 152.627 41.246L152.875 41.0703C177.089 48.056 196.305 63.7118 208.488 85.7465C213.446 94.72 216.743 105.378 218.38 115.477C218.891 118.607 219.114 121.744 219.506 124.882C215.825 124.73 212.233 124.73 208.552 124.858C206.804 102.185 197.718 82.098 180.33 67.1687C171.317 59.4326 161.385 54.7861 150.168 51.1855Z" fill="#DA1B7D"/>
<path d="M38.3422 51.0721C37.5039 50.5851 34.3504 47.5992 33.7916 46.8648C33.3445 46.274 33.105 45.6034 33.2487 44.8609C33.7277 42.5057 43.8669 33.0292 46.0783 31.6081C49.639 29.3088 53.1119 36.9651 57.8062 37.987C61.7261 38.8412 64.3208 36.1987 67.3386 34.2507C67.6739 34.7696 67.8975 34.9373 68.4164 35.2486C69.6698 35.9991 70.7237 36.8853 72.0809 37.492C75.442 38.985 79.2182 39.3602 82.739 40.2703C84.3037 40.6775 85.8047 41.2842 87.2896 41.899C86.8665 42.0986 86.2837 42.2902 85.9723 42.6494L85.9164 42.833C83.7928 44.302 81.2939 45.3958 79.0745 46.753C75.7853 48.7569 72.7036 51.0881 69.6219 53.3873C65.7738 56.7005 61.9816 60.1734 58.5646 63.9337C56.7843 65.8896 55.2195 68.3246 53.2795 70.097C53.2635 70.0411 53.2396 69.9932 53.2476 69.9453C53.3274 69.2188 54.8203 67.7498 55.2754 67.0872C53.9661 65.5623 41.0886 66.68 38.7095 64.0614C38.454 63.79 38.6296 63.9097 38.2704 63.7421C37.2245 64.3648 36.7375 65.9695 35.6757 66.4565C35.6038 66.4964 35.532 66.5203 35.4522 66.5523C37.4401 63.6383 40.6894 61.3869 41.0008 57.6027C41.2163 54.992 39.9868 52.9482 38.3422 51.0721Z" fill="#989D65"/>
<path d="M38.3432 51.0742C39.0138 51.2259 39.2134 51.5532 39.5727 52.1201C39.6472 52.2318 39.719 52.3463 39.7882 52.4634C40.9458 52.0323 45.8238 52.8945 47.5403 52.9823C50.7098 53.1579 53.9112 53.3096 57.0807 53.3575C60.4418 53.3974 63.8747 53.15 67.1799 53.9483C67.4753 54.0122 67.7308 54.3076 67.9384 54.5072C68.4413 53.9962 68.9044 53.5252 69.5031 53.134C69.551 53.2138 69.6069 53.2937 69.6229 53.3895C65.7748 56.7026 61.9826 60.1755 58.5656 63.9358C56.7853 65.8918 55.2205 68.3268 53.2805 70.0991C53.2645 70.0432 53.2406 69.9953 53.2485 69.9474C53.3284 69.2209 54.8213 67.7519 55.2764 67.0893C53.9671 65.5644 41.0895 66.6821 38.7104 64.0635C38.455 63.7921 38.6306 63.9118 38.2713 63.7442C37.2255 64.3669 36.7385 65.9716 35.6767 66.4586C35.6048 66.4985 35.533 66.5225 35.4531 66.5544C37.441 63.6404 40.6904 61.389 41.0017 57.6048C41.2173 54.9942 39.9878 52.9504 38.3432 51.0742Z" fill="#589C90"/>
<path d="M102.731 91.1648C110.779 84.5544 123.401 81.8559 133.58 82.8539C146.832 84.1552 157.435 91.077 165.738 101.216C167.318 103.148 168.58 105.384 169.881 107.507C164.676 105.863 159.423 104.338 154.042 103.38C150.864 102.813 147.527 102.637 144.389 101.943C142.489 101.528 140.693 100.593 138.897 99.8829C135.28 98.4458 131.344 97.9588 127.472 98.0866C124.989 98.1664 122.427 98.7253 120.063 99.4837C117.996 100.154 115.928 101.472 113.716 101.376C106.755 101.687 98.7473 101.017 91.8574 101.999C94.987 97.9668 98.4199 93.975 102.731 91.1648Z" fill="url(#paint5_linear_40_4586)"/>
<path d="M45.4476 153.638C45.703 153.622 45.9585 153.611 46.214 153.606C46.4642 153.6 46.717 153.6 46.9724 153.606C47.2279 153.611 47.4834 153.624 47.7389 153.645C47.9943 153.661 48.2472 153.685 48.4973 153.717C48.7528 153.749 49.0056 153.787 49.2557 153.829C49.5059 153.872 49.7561 153.922 50.0062 153.981C50.251 154.034 50.4959 154.095 50.7407 154.164C50.9908 154.234 51.2357 154.308 51.4752 154.388C51.7147 154.468 51.9542 154.553 52.1937 154.643C52.4332 154.739 52.6674 154.838 52.8963 154.939C53.1304 155.045 53.362 155.154 53.5908 155.266C53.8197 155.383 54.0432 155.503 54.2615 155.625C54.485 155.753 54.7032 155.886 54.9161 156.025C55.1343 156.158 55.3472 156.299 55.5548 156.448C55.7624 156.597 55.9673 156.748 56.1695 156.903C56.3665 157.057 56.5607 157.219 56.7523 157.39C56.9493 157.555 57.1382 157.725 57.3192 157.901C57.5055 158.076 57.6864 158.257 57.8621 158.444C58.0377 158.63 58.208 158.819 58.373 159.01C58.538 159.202 58.7003 159.399 58.86 159.601C59.0144 159.803 59.1634 160.008 59.3071 160.216C59.4561 160.424 59.5972 160.636 59.7302 160.855C59.8686 161.068 60.0017 161.286 60.1294 161.509C60.2518 161.728 60.3716 161.951 60.4887 162.18C60.6004 162.409 60.7069 162.64 60.808 162.875C60.9144 163.109 61.0129 163.343 61.1034 163.577C61.1939 163.817 61.279 164.056 61.3589 164.296C61.4387 164.54 61.5106 164.785 61.5744 165.03C61.6436 165.275 61.7048 165.522 61.758 165.773C61.8166 166.023 61.8672 166.273 61.9097 166.523C61.9523 166.773 61.9896 167.026 62.0215 167.281C62.0534 167.532 62.0774 167.784 62.0934 168.04C62.1093 168.295 62.12 168.548 62.1253 168.798C62.1359 169.054 62.1359 169.309 62.1253 169.565C62.12 169.82 62.1067 170.076 62.0854 170.331C62.0694 170.581 62.0455 170.834 62.0135 171.09C61.9816 171.34 61.9417 171.593 61.8938 171.848C61.8512 172.098 61.8033 172.346 61.7501 172.591C61.6915 172.841 61.6276 173.088 61.5585 173.333C61.4893 173.578 61.4148 173.823 61.3349 174.067C61.2551 174.307 61.1699 174.547 61.0794 174.786C60.9836 175.02 60.8852 175.254 60.7841 175.489C60.6776 175.723 60.5685 175.952 60.4567 176.175C60.3396 176.404 60.2172 176.63 60.0895 176.854C59.9617 177.072 59.8313 177.29 59.6983 177.508C59.5599 177.721 59.4162 177.932 59.2672 178.139C59.1235 178.347 58.9718 178.552 58.8121 178.754C58.6577 178.951 58.4954 179.145 58.3251 179.337C58.1601 179.534 57.9898 179.723 57.8141 179.904C57.6385 180.09 57.4576 180.271 57.2713 180.446C57.085 180.622 56.896 180.792 56.7044 180.957C56.5075 181.122 56.3106 181.282 56.1137 181.436C55.9114 181.591 55.7065 181.742 55.4989 181.891C55.286 182.035 55.0731 182.176 54.8602 182.315C54.642 182.448 54.4238 182.578 54.2056 182.706C53.982 182.828 53.7558 182.948 53.527 183.065C53.2981 183.177 53.0666 183.283 52.8324 183.384C52.6035 183.485 52.3693 183.581 52.1298 183.672C51.8903 183.768 51.6508 183.853 51.4113 183.927C51.1665 184.007 50.9217 184.082 50.6768 184.151C50.432 184.215 50.1845 184.276 49.9344 184.334C49.6842 184.388 49.434 184.436 49.1839 184.478C48.9337 184.521 48.6809 184.558 48.4255 184.59C48.1753 184.616 47.9225 184.64 47.667 184.662C47.4115 184.678 47.1587 184.688 46.9086 184.694C46.6531 184.699 46.3976 184.699 46.1421 184.694C45.8867 184.683 45.6339 184.67 45.3837 184.654C45.1282 184.632 44.8754 184.606 44.6253 184.574C44.3698 184.542 44.117 184.505 43.8668 184.462C43.6167 184.414 43.3692 184.364 43.1244 184.31C42.8742 184.252 42.6267 184.188 42.3819 184.119C42.137 184.05 41.8949 183.975 41.6554 183.895C41.4159 183.815 41.1764 183.73 40.9368 183.64C40.7027 183.544 40.4685 183.446 40.2343 183.344C40.0001 183.238 39.7712 183.129 39.5477 183.017C39.3188 182.9 39.0953 182.778 38.8771 182.65C38.6535 182.527 38.4353 182.397 38.2224 182.259C38.0095 182.12 37.7993 181.979 37.5917 181.836C37.3842 181.687 37.1792 181.535 36.977 181.38C36.7801 181.221 36.5858 181.058 36.3942 180.893C36.2026 180.728 36.0136 180.558 35.8273 180.383C35.6464 180.202 35.4681 180.021 35.2924 179.84C35.1168 179.653 34.9465 179.464 34.7815 179.273C34.6165 179.081 34.4542 178.884 34.2945 178.682C34.1401 178.48 33.9911 178.275 33.8474 178.067C33.6984 177.86 33.5573 177.647 33.4243 177.429C33.2859 177.216 33.1555 176.997 33.0331 176.774C32.9107 176.556 32.7909 176.332 32.6738 176.103C32.5621 175.874 32.4556 175.646 32.3545 175.417C32.248 175.183 32.1496 174.946 32.0591 174.706C31.9686 174.472 31.8835 174.232 31.8036 173.988C31.7291 173.748 31.6573 173.506 31.5881 173.261C31.5189 173.016 31.4577 172.769 31.4044 172.519C31.3512 172.274 31.3007 172.024 31.2528 171.768C31.2102 171.518 31.1756 171.268 31.149 171.018C31.117 170.768 31.0931 170.515 31.0771 170.259C31.0558 170.004 31.0425 169.751 31.0372 169.501C31.0319 169.245 31.0319 168.99 31.0372 168.734C31.0478 168.479 31.0611 168.226 31.0771 167.976C31.0984 167.721 31.125 167.468 31.1569 167.218C31.1889 166.962 31.2261 166.709 31.2687 166.459C31.3113 166.209 31.3619 165.962 31.4204 165.717C31.4736 165.467 31.5348 165.219 31.604 164.974C31.6732 164.729 31.7477 164.487 31.8276 164.248C31.9074 164.003 31.9926 163.763 32.083 163.529C32.1789 163.29 32.2773 163.055 32.3784 162.827C32.4796 162.592 32.5887 162.361 32.7058 162.132C32.8175 161.908 32.9373 161.685 33.065 161.461C33.1928 161.243 33.3232 161.025 33.4562 160.807C33.5946 160.594 33.7357 160.384 33.8794 160.176C34.0284 159.968 34.1801 159.764 34.3344 159.561C34.4941 159.364 34.6564 159.17 34.8214 158.979C34.9864 158.787 35.1567 158.598 35.3324 158.412C35.508 158.225 35.689 158.047 35.8753 157.877C36.0615 157.701 36.2505 157.531 36.4421 157.366C36.6337 157.196 36.8306 157.033 37.0329 156.879C37.2298 156.724 37.4347 156.573 37.6476 156.424C37.8552 156.28 38.0654 156.139 38.2783 156.001C38.4912 155.868 38.7094 155.737 38.933 155.609C39.1565 155.487 39.38 155.367 39.6036 155.25C39.8324 155.138 40.064 155.032 40.2982 154.931C40.527 154.824 40.7612 154.726 41.0007 154.635C41.2349 154.545 41.4744 154.46 41.7192 154.38C41.9587 154.3 42.2009 154.226 42.4457 154.156C42.6906 154.093 42.9381 154.031 43.1882 153.973C43.433 153.92 43.6805 153.872 43.9307 153.829C44.1862 153.787 44.439 153.749 44.6891 153.717C44.9393 153.685 45.1921 153.659 45.4476 153.638Z" fill="#2B2A93"/>
<path d="M45.735 159.153C45.8946 159.137 46.057 159.127 46.222 159.121C46.387 159.116 46.5493 159.113 46.709 159.113C46.8739 159.113 47.0389 159.119 47.2039 159.129C47.3636 159.14 47.5259 159.156 47.6909 159.177C47.8506 159.193 48.0129 159.214 48.1779 159.241C48.3376 159.268 48.4973 159.297 48.657 159.329C48.8166 159.366 48.9763 159.403 49.136 159.441C49.2903 159.483 49.4447 159.528 49.599 159.576C49.7587 159.63 49.9157 159.683 50.07 159.736C50.2191 159.795 50.3681 159.856 50.5171 159.92C50.6715 159.984 50.8205 160.053 50.9642 160.127C51.1132 160.196 51.2596 160.271 51.4033 160.351C51.547 160.431 51.6881 160.513 51.8264 160.598C51.9648 160.683 52.1005 160.771 52.2336 160.862C52.3667 160.958 52.4997 161.053 52.6328 161.149C52.7605 161.25 52.8883 161.354 53.016 161.46C53.1384 161.562 53.2608 161.668 53.3832 161.78C53.5003 161.892 53.6174 162.006 53.7345 162.123C53.8463 162.24 53.9581 162.36 54.0698 162.482C54.1763 162.605 54.2801 162.73 54.3812 162.858C54.4823 162.985 54.5808 163.116 54.6766 163.249C54.7724 163.382 54.8655 163.518 54.956 163.656C55.0465 163.789 55.1316 163.927 55.2115 164.071C55.2966 164.209 55.3765 164.351 55.451 164.494C55.5255 164.643 55.5974 164.792 55.6665 164.941C55.7357 165.085 55.7996 165.234 55.8581 165.388C55.9167 165.537 55.9726 165.689 56.0258 165.843C56.079 166.003 56.1296 166.16 56.1775 166.314C56.2254 166.469 56.268 166.626 56.3052 166.786C56.3425 166.945 56.3744 167.105 56.401 167.265C56.433 167.424 56.4596 167.587 56.4809 167.752C56.5022 167.911 56.5208 168.074 56.5367 168.239C56.5527 168.398 56.5634 168.561 56.5687 168.726C56.574 168.891 56.5767 169.053 56.5767 169.213C56.5713 169.378 56.5634 169.543 56.5527 169.708C56.5474 169.867 56.5341 170.03 56.5128 170.195C56.4968 170.354 56.4755 170.517 56.4489 170.682C56.4223 170.841 56.393 171.001 56.3611 171.161C56.3292 171.32 56.2919 171.48 56.2493 171.64C56.2068 171.799 56.1615 171.956 56.1136 172.111C56.0657 172.265 56.0125 172.419 55.954 172.574C55.8954 172.728 55.8342 172.88 55.7703 173.029C55.7065 173.178 55.6399 173.327 55.5707 173.476C55.4962 173.619 55.4217 173.763 55.3472 173.907C55.2674 174.051 55.1849 174.192 55.0997 174.33C55.0145 174.468 54.9241 174.607 54.8283 174.745C54.7378 174.878 54.6446 175.011 54.5488 175.144C54.4477 175.272 54.3439 175.397 54.2375 175.52C54.1364 175.647 54.0299 175.772 53.9181 175.895C53.8064 176.012 53.6919 176.129 53.5748 176.246C53.4577 176.358 53.338 176.467 53.2156 176.573C53.0932 176.685 52.9681 176.792 52.8404 176.893C52.7126 176.994 52.5822 177.092 52.4492 177.188C52.3214 177.284 52.1884 177.377 52.05 177.468C51.9116 177.558 51.7732 177.643 51.6348 177.723C51.4911 177.808 51.3474 177.888 51.2037 177.963C51.06 178.037 50.9136 178.109 50.7646 178.178C50.6156 178.247 50.4666 178.311 50.3175 178.37C50.1632 178.434 50.0088 178.492 49.8545 178.545C49.7001 178.599 49.5458 178.649 49.3914 178.697C49.2318 178.74 49.0721 178.78 48.9124 178.817C48.7528 178.854 48.5931 178.889 48.4334 178.921C48.2737 178.953 48.1141 178.979 47.9544 179C47.7894 179.022 47.6271 179.04 47.4674 179.056C47.3024 179.072 47.1374 179.083 46.9724 179.088C46.8127 179.094 46.6504 179.096 46.4854 179.096C46.3204 179.096 46.1581 179.091 45.9984 179.08C45.8334 179.07 45.6684 179.056 45.5034 179.04C45.3438 179.019 45.1814 178.995 45.0164 178.968C44.8568 178.947 44.6971 178.918 44.5374 178.881C44.3777 178.849 44.2181 178.811 44.0584 178.769C43.8987 178.726 43.7417 178.681 43.5874 178.633C43.433 178.585 43.2787 178.532 43.1243 178.473C42.97 178.42 42.8183 178.362 42.6693 178.298C42.5149 178.234 42.3659 178.165 42.2222 178.09C42.0732 178.021 41.9268 177.947 41.7831 177.867C41.6394 177.787 41.4983 177.704 41.3599 177.619C41.2216 177.534 41.0832 177.446 40.9448 177.356C40.8117 177.26 40.6787 177.164 40.5456 177.068C40.4179 176.967 40.2901 176.863 40.1624 176.757C40.04 176.656 39.9176 176.549 39.7952 176.438C39.6781 176.326 39.561 176.211 39.4439 176.094C39.3268 175.977 39.215 175.858 39.1086 175.735C39.0021 175.613 38.8957 175.488 38.7892 175.36C38.6881 175.232 38.5896 175.102 38.4938 174.969C38.398 174.836 38.3049 174.7 38.2144 174.562C38.1239 174.428 38.0388 174.29 37.9589 174.146C37.8738 174.008 37.7939 173.864 37.7194 173.715C37.6449 173.572 37.5731 173.425 37.5039 173.276C37.4347 173.127 37.3708 172.978 37.3123 172.829C37.2484 172.675 37.1899 172.52 37.1366 172.366C37.0834 172.212 37.0355 172.055 36.9929 171.895C36.945 171.741 36.9024 171.584 36.8652 171.424C36.8279 171.264 36.7933 171.105 36.7614 170.945C36.7348 170.785 36.7082 170.623 36.6816 170.458C36.6603 170.298 36.6443 170.136 36.6337 169.971C36.6177 169.806 36.6071 169.644 36.6017 169.484C36.5964 169.319 36.5938 169.154 36.5938 168.989C36.5938 168.824 36.5991 168.662 36.6097 168.502C36.6204 168.337 36.6337 168.172 36.6496 168.007C36.6709 167.847 36.6949 167.688 36.7215 167.528C36.7428 167.363 36.772 167.201 36.8093 167.041C36.8412 166.881 36.8785 166.722 36.9211 166.562C36.9637 166.402 37.0089 166.245 37.0568 166.091C37.1047 165.937 37.1579 165.782 37.2165 165.628C37.275 165.474 37.3362 165.322 37.4001 165.173C37.464 165.024 37.5305 164.875 37.5997 164.726C37.6742 164.577 37.7514 164.43 37.8312 164.287C37.9057 164.143 37.9882 164.002 38.0787 163.864C38.1639 163.725 38.2517 163.589 38.3422 163.456C38.438 163.318 38.5338 163.185 38.6296 163.057C38.7307 162.924 38.8345 162.796 38.9409 162.674C39.042 162.546 39.1485 162.424 39.2603 162.307C39.372 162.184 39.4865 162.067 39.6036 161.955C39.7207 161.838 39.8404 161.727 39.9628 161.62C40.0852 161.514 40.2103 161.407 40.3381 161.301C40.4658 161.2 40.5962 161.101 40.7292 161.005C40.8623 160.91 40.998 160.816 41.1364 160.726C41.2748 160.641 41.4132 160.556 41.5516 160.47C41.6953 160.391 41.839 160.311 41.9827 160.231C42.1264 160.156 42.2727 160.085 42.4218 160.015C42.5708 159.952 42.7225 159.888 42.8768 159.824C43.0312 159.765 43.1855 159.709 43.3399 159.656C43.4942 159.603 43.6486 159.552 43.8029 159.504C43.9626 159.462 44.1223 159.422 44.2819 159.385C44.4416 159.347 44.6013 159.313 44.761 159.281C44.9206 159.249 45.083 159.222 45.248 159.201C45.4076 159.18 45.57 159.164 45.735 159.153Z" fill="#FEFEFE"/>
<path d="M203.746 153.621C203.996 153.616 204.249 153.616 204.504 153.621C204.755 153.632 205.005 153.645 205.255 153.661C205.505 153.682 205.755 153.709 206.005 153.741C206.256 153.773 206.506 153.81 206.756 153.853C207.001 153.895 207.248 153.946 207.498 154.004C207.743 154.058 207.985 154.119 208.225 154.188C208.47 154.257 208.712 154.332 208.951 154.412C209.191 154.491 209.428 154.577 209.662 154.667C209.896 154.757 210.128 154.853 210.356 154.954C210.585 155.056 210.811 155.165 211.035 155.282C211.264 155.394 211.487 155.513 211.706 155.641C211.924 155.763 212.139 155.891 212.352 156.024C212.565 156.163 212.773 156.304 212.975 156.447C213.183 156.591 213.385 156.74 213.582 156.894C213.779 157.054 213.973 157.216 214.165 157.381C214.356 157.541 214.542 157.709 214.723 157.884C214.91 158.06 215.088 158.238 215.258 158.419C215.434 158.6 215.604 158.787 215.769 158.978C215.929 159.17 216.089 159.364 216.248 159.561C216.403 159.763 216.552 159.965 216.695 160.168C216.839 160.375 216.977 160.586 217.111 160.798C217.249 161.011 217.379 161.227 217.502 161.445C217.624 161.663 217.744 161.884 217.861 162.108C217.973 162.337 218.079 162.565 218.18 162.794C218.281 163.023 218.38 163.255 218.476 163.489C218.566 163.723 218.649 163.96 218.723 164.199C218.803 164.439 218.878 164.681 218.947 164.926C219.016 165.165 219.077 165.41 219.13 165.66C219.189 165.905 219.239 166.15 219.282 166.395C219.325 166.645 219.362 166.895 219.394 167.145C219.426 167.396 219.45 167.646 219.466 167.896C219.487 168.146 219.5 168.396 219.506 168.646C219.511 168.902 219.511 169.155 219.506 169.405C219.5 169.655 219.49 169.905 219.474 170.155C219.458 170.411 219.434 170.663 219.402 170.914C219.37 171.164 219.333 171.411 219.29 171.656C219.247 171.906 219.2 172.154 219.146 172.399C219.093 172.643 219.035 172.888 218.971 173.133C218.902 173.378 218.827 173.62 218.747 173.86C218.673 174.094 218.59 174.331 218.5 174.57C218.409 174.804 218.313 175.036 218.212 175.265C218.111 175.499 218.005 175.728 217.893 175.951C217.781 176.175 217.664 176.396 217.542 176.614C217.419 176.837 217.289 177.056 217.15 177.269C217.017 177.481 216.879 177.692 216.735 177.899C216.592 178.107 216.443 178.309 216.288 178.506C216.134 178.703 215.977 178.897 215.817 179.089C215.652 179.28 215.482 179.469 215.306 179.656C215.136 179.837 214.96 180.015 214.779 180.191C214.598 180.366 214.412 180.537 214.22 180.702C214.034 180.867 213.84 181.026 213.638 181.181C213.441 181.34 213.241 181.492 213.039 181.636C212.831 181.785 212.624 181.926 212.416 182.059C212.203 182.197 211.988 182.327 211.77 182.45C211.551 182.578 211.33 182.7 211.107 182.817C210.883 182.929 210.654 183.038 210.42 183.144C210.191 183.246 209.96 183.341 209.726 183.432C209.492 183.528 209.255 183.616 209.015 183.695C208.781 183.775 208.541 183.85 208.297 183.919C208.057 183.988 207.815 184.052 207.57 184.11C207.32 184.169 207.072 184.22 206.828 184.262C206.578 184.305 206.327 184.345 206.077 184.382C205.832 184.414 205.582 184.44 205.327 184.462C205.077 184.483 204.826 184.496 204.576 184.502C204.321 184.512 204.068 184.515 203.818 184.51C203.562 184.504 203.307 184.494 203.051 184.478C202.801 184.462 202.548 184.438 202.293 184.406C202.043 184.379 201.793 184.345 201.543 184.302C201.292 184.26 201.042 184.212 200.792 184.158C200.547 184.105 200.302 184.047 200.058 183.983C199.813 183.914 199.568 183.842 199.323 183.767C199.084 183.687 198.844 183.602 198.605 183.512C198.37 183.421 198.136 183.325 197.902 183.224C197.668 183.123 197.436 183.017 197.207 182.905C196.984 182.793 196.76 182.676 196.537 182.554C196.313 182.431 196.095 182.301 195.882 182.163C195.669 182.029 195.456 181.891 195.243 181.747C195.036 181.604 194.834 181.455 194.637 181.3C194.434 181.141 194.235 180.978 194.038 180.813C193.846 180.654 193.657 180.486 193.471 180.31C193.29 180.135 193.112 179.956 192.936 179.775C192.761 179.589 192.588 179.4 192.417 179.209C192.252 179.017 192.09 178.823 191.93 178.626C191.776 178.429 191.624 178.227 191.475 178.019C191.332 177.811 191.19 177.601 191.052 177.388C190.914 177.175 190.783 176.957 190.661 176.734C190.533 176.515 190.411 176.292 190.294 176.063C190.182 175.839 190.073 175.611 189.966 175.376C189.865 175.148 189.767 174.913 189.671 174.674C189.58 174.44 189.495 174.203 189.415 173.963C189.336 173.719 189.261 173.474 189.192 173.229C189.123 172.989 189.059 172.745 189 172.494C188.947 172.25 188.899 172.002 188.857 171.752C188.809 171.502 188.769 171.249 188.737 170.993C188.705 170.743 188.681 170.49 188.665 170.235C188.644 169.985 188.63 169.732 188.625 169.477C188.62 169.226 188.62 168.974 188.625 168.718C188.63 168.463 188.641 168.21 188.657 167.96C188.678 167.704 188.702 167.451 188.729 167.201C188.761 166.946 188.798 166.693 188.841 166.443C188.883 166.193 188.934 165.945 188.992 165.7C189.046 165.45 189.107 165.203 189.176 164.958C189.24 164.713 189.312 164.471 189.392 164.231C189.471 163.992 189.557 163.752 189.647 163.513C189.737 163.279 189.836 163.044 189.942 162.81C190.044 162.581 190.15 162.353 190.262 162.124C190.379 161.895 190.499 161.671 190.621 161.453C190.749 161.23 190.879 161.011 191.012 160.798C191.151 160.586 191.292 160.375 191.435 160.168C191.584 159.96 191.736 159.755 191.89 159.553C192.05 159.356 192.212 159.162 192.377 158.97C192.542 158.779 192.713 158.59 192.888 158.403C193.064 158.217 193.242 158.039 193.423 157.868C193.61 157.693 193.798 157.522 193.99 157.357C194.182 157.192 194.379 157.03 194.581 156.87C194.778 156.716 194.98 156.567 195.188 156.423C195.395 156.274 195.608 156.133 195.826 156C196.039 155.862 196.257 155.732 196.481 155.609C196.699 155.487 196.923 155.367 197.152 155.25C197.375 155.138 197.604 155.032 197.838 154.93C198.072 154.824 198.307 154.726 198.541 154.635C198.78 154.545 199.02 154.459 199.259 154.38C199.499 154.305 199.741 154.233 199.986 154.164C200.231 154.095 200.478 154.034 200.728 153.98C200.978 153.927 201.229 153.879 201.479 153.837C201.729 153.794 201.979 153.757 202.229 153.725C202.479 153.698 202.732 153.674 202.988 153.653C203.238 153.637 203.491 153.627 203.746 153.621Z" fill="url(#paint6_linear_40_4586)"/>
<path d="M202.5 158.858C202.671 158.832 202.841 158.81 203.011 158.794C203.182 158.773 203.352 158.757 203.522 158.746C203.687 158.736 203.855 158.73 204.025 158.73C204.196 158.73 204.366 158.733 204.536 158.738C204.706 158.744 204.877 158.754 205.047 158.77C205.217 158.786 205.388 158.805 205.558 158.826C205.723 158.848 205.891 158.874 206.061 158.906C206.226 158.938 206.391 158.973 206.556 159.01C206.726 159.052 206.891 159.098 207.051 159.146C207.216 159.188 207.378 159.239 207.538 159.297C207.703 159.351 207.863 159.409 208.017 159.473C208.177 159.537 208.334 159.603 208.488 159.673C208.642 159.747 208.797 159.822 208.951 159.896C209.1 159.976 209.249 160.058 209.398 160.144C209.542 160.229 209.686 160.319 209.829 160.415C209.973 160.505 210.114 160.601 210.252 160.702C210.391 160.798 210.527 160.899 210.66 161.006C210.793 161.112 210.923 161.224 211.051 161.341C211.179 161.453 211.304 161.567 211.426 161.684C211.548 161.801 211.666 161.924 211.777 162.052C211.894 162.174 212.009 162.302 212.121 162.435C212.227 162.563 212.333 162.696 212.44 162.834C212.541 162.967 212.64 163.103 212.735 163.241C212.831 163.385 212.924 163.529 213.015 163.672C213.105 163.816 213.193 163.962 213.278 164.111C213.358 164.26 213.435 164.412 213.51 164.566C213.584 164.721 213.656 164.875 213.725 165.03C213.789 165.184 213.853 165.341 213.917 165.501C213.975 165.66 214.031 165.823 214.085 165.988C214.132 166.147 214.178 166.31 214.22 166.475C214.268 166.64 214.308 166.805 214.34 166.97C214.377 167.14 214.409 167.308 214.436 167.472C214.462 167.643 214.486 167.813 214.508 167.983C214.529 168.148 214.545 168.316 214.556 168.486C214.566 168.657 214.572 168.827 214.572 168.997C214.577 169.168 214.574 169.338 214.564 169.508C214.558 169.679 214.55 169.849 214.54 170.019C214.524 170.19 214.505 170.36 214.484 170.53C214.462 170.695 214.436 170.863 214.404 171.033C214.372 171.198 214.337 171.363 214.3 171.528C214.258 171.693 214.215 171.858 214.172 172.023C214.124 172.188 214.071 172.35 214.013 172.51C213.959 172.67 213.901 172.829 213.837 172.989C213.773 173.149 213.707 173.306 213.637 173.46C213.568 173.615 213.494 173.769 213.414 173.923C213.339 174.072 213.26 174.221 213.174 174.37C213.089 174.514 212.999 174.658 212.903 174.801C212.812 174.945 212.717 175.086 212.616 175.225C212.52 175.363 212.419 175.499 212.312 175.632C212.206 175.765 212.097 175.895 211.985 176.023C211.873 176.151 211.756 176.276 211.634 176.398C211.516 176.521 211.397 176.64 211.274 176.757C211.147 176.874 211.019 176.989 210.891 177.101C210.763 177.207 210.63 177.314 210.492 177.42C210.359 177.521 210.22 177.62 210.077 177.715C209.938 177.817 209.797 177.912 209.654 178.003C209.51 178.088 209.364 178.173 209.215 178.258C209.066 178.338 208.914 178.418 208.759 178.498C208.605 178.572 208.451 178.642 208.296 178.705C208.142 178.775 207.985 178.838 207.825 178.897C207.666 178.961 207.503 179.019 207.338 179.073C207.179 179.121 207.016 179.168 206.851 179.216C206.686 179.259 206.521 179.299 206.356 179.336C206.191 179.368 206.024 179.4 205.853 179.432C205.683 179.459 205.515 179.482 205.35 179.504C205.18 179.52 205.01 179.533 204.84 179.544C204.669 179.554 204.499 179.562 204.329 179.568C204.153 179.573 203.98 179.57 203.81 179.56C203.639 179.554 203.469 179.546 203.299 179.536C203.128 179.52 202.961 179.501 202.796 179.48C202.625 179.459 202.455 179.432 202.285 179.4C202.12 179.368 201.952 179.333 201.782 179.296C201.617 179.259 201.452 179.216 201.287 179.168C201.122 179.121 200.96 179.07 200.8 179.017C200.64 178.958 200.481 178.9 200.321 178.841C200.161 178.777 200.004 178.711 199.85 178.642C199.695 178.567 199.541 178.492 199.387 178.418C199.232 178.338 199.083 178.256 198.94 178.171C198.791 178.085 198.644 177.995 198.501 177.899C198.357 177.809 198.216 177.713 198.077 177.612C197.939 177.516 197.803 177.415 197.67 177.308C197.537 177.202 197.407 177.09 197.279 176.973C197.146 176.861 197.018 176.747 196.896 176.63C196.773 176.513 196.654 176.39 196.537 176.262C196.425 176.14 196.313 176.012 196.201 175.879C196.09 175.751 195.983 175.618 195.882 175.48C195.776 175.347 195.674 175.209 195.579 175.065C195.483 174.926 195.39 174.785 195.299 174.642C195.209 174.493 195.121 174.344 195.036 174.195C194.956 174.046 194.879 173.894 194.804 173.74C194.724 173.591 194.652 173.436 194.589 173.277C194.519 173.122 194.456 172.965 194.397 172.806C194.338 172.646 194.283 172.484 194.229 172.319C194.176 172.154 194.128 171.989 194.086 171.824C194.043 171.659 194.003 171.494 193.966 171.329C193.929 171.164 193.897 170.996 193.87 170.826C193.843 170.655 193.82 170.485 193.798 170.315C193.782 170.144 193.769 169.974 193.758 169.804C193.748 169.633 193.74 169.463 193.734 169.293C193.734 169.122 193.737 168.952 193.742 168.782C193.748 168.611 193.758 168.441 193.774 168.271C193.785 168.101 193.804 167.93 193.83 167.76C193.851 167.595 193.878 167.427 193.91 167.257C193.937 167.087 193.971 166.919 194.014 166.754C194.051 166.589 194.094 166.424 194.142 166.259C194.189 166.094 194.24 165.932 194.293 165.772C194.352 165.612 194.413 165.453 194.477 165.293C194.541 165.133 194.607 164.976 194.676 164.822C194.746 164.668 194.82 164.513 194.9 164.359C194.98 164.21 195.062 164.061 195.147 163.912C195.233 163.763 195.32 163.616 195.411 163.473C195.507 163.329 195.605 163.188 195.706 163.05C195.807 162.911 195.911 162.775 196.018 162.642C196.124 162.509 196.233 162.379 196.345 162.251C196.457 162.123 196.571 161.998 196.688 161.876C196.811 161.754 196.933 161.634 197.056 161.517C197.183 161.4 197.311 161.288 197.439 161.181C197.572 161.07 197.708 160.963 197.846 160.862C197.979 160.756 198.117 160.655 198.261 160.559C198.399 160.463 198.54 160.37 198.684 160.279C198.833 160.189 198.982 160.104 199.131 160.024C199.28 159.939 199.432 159.859 199.586 159.784C199.741 159.71 199.895 159.638 200.049 159.569C200.209 159.505 200.369 159.444 200.528 159.385C200.688 159.321 200.848 159.265 201.007 159.217C201.172 159.164 201.337 159.116 201.502 159.074C201.667 159.031 201.832 158.991 201.997 158.954C202.168 158.917 202.335 158.885 202.5 158.858Z" fill="#FEFEFE"/>
<path d="M8.32416 144.273C8.88301 144.984 8.32416 150.445 8.36408 151.65C8.57963 157.143 9.72927 160.368 14.8148 162.923C16.0363 163.538 17.4494 164.073 18.4394 165.023C18.4766 165.06 18.5139 165.097 18.5511 165.135C18.7188 166.468 18.8785 167.817 19.11 169.142C19.2297 169.821 19.5571 170.571 19.5491 171.25C19.0062 171.33 18.4314 171.13 17.8965 171.01C16.9704 170.859 16.0203 170.603 15.1501 170.26C14.9426 170.175 14.735 170.084 14.5274 169.989C14.3252 169.898 14.1229 169.8 13.9207 169.693C13.7237 169.592 13.5295 169.483 13.3379 169.366C13.1409 169.254 12.9493 169.137 12.763 169.015C12.5768 168.892 12.3931 168.764 12.2122 168.631C12.0259 168.498 11.8476 168.363 11.6773 168.224C11.5016 168.081 11.3286 167.934 11.1583 167.785C10.9933 167.636 10.831 167.482 10.6713 167.322C10.5117 167.168 10.3546 167.008 10.2003 166.843C10.0513 166.678 9.90491 166.508 9.7612 166.332C9.6175 166.162 9.47646 165.986 9.33807 165.805C9.20501 165.624 9.07461 165.441 8.94688 165.254C8.82446 165.068 8.70471 164.879 8.58761 164.687C8.47052 164.496 8.35876 164.302 8.25231 164.105C8.14586 163.908 8.04473 163.708 7.94893 163.506C7.85312 163.304 7.75998 163.099 7.6695 162.891C5.16265 157.007 5.99295 150.07 8.32416 144.273Z" fill="#2B2A93"/>
<path d="M15.6523 175.617C17.6482 176.176 19.6202 176.463 21.68 176.679C22.4065 178.379 23.141 180.072 23.7796 181.812C21.7997 181.77 19.8224 181.751 17.8478 181.757C16.9776 179.737 16.2112 177.757 15.6523 175.617Z" fill="#2B2A93"/>
<defs>
<linearGradient id="paint0_linear_40_4586" x1="123.779" y1="77.935" x2="105.096" y2="161.117" gradientUnits="userSpaceOnUse">
<stop stop-color="#FF3C53"/>
<stop offset="1" stop-color="#8500AF"/>
</linearGradient>
<linearGradient id="paint1_linear_40_4586" x1="51.5922" y1="115.021" x2="43.9991" y2="123.51" gradientUnits="userSpaceOnUse">
<stop stop-color="#D70E75"/>
<stop offset="1" stop-color="#84139F"/>
</linearGradient>
<linearGradient id="paint2_linear_40_4586" x1="114.067" y1="0.260764" x2="114.051" y2="80.2712" gradientUnits="userSpaceOnUse">
<stop stop-color="#FFBB0F"/>
<stop offset="1" stop-color="#DC205A"/>
</linearGradient>
<linearGradient id="paint3_linear_40_4586" x1="82.9073" y1="51.7944" x2="58.4046" y2="99.7306" gradientUnits="userSpaceOnUse">
<stop stop-color="#FF8B07"/>
<stop offset="1" stop-color="#D60083"/>
</linearGradient>
<linearGradient id="paint4_linear_40_4586" x1="118.928" y1="239.242" x2="139.658" y2="196.293" gradientUnits="userSpaceOnUse">
<stop stop-color="#142B90"/>
<stop offset="1" stop-color="#5C169D"/>
</linearGradient>
<linearGradient id="paint5_linear_40_4586" x1="133.871" y1="66.8199" x2="112.198" y2="116.105" gradientUnits="userSpaceOnUse">
<stop stop-color="#FDB212"/>
<stop offset="1" stop-color="#F42348"/>
</linearGradient>
<linearGradient id="paint6_linear_40_4586" x1="195.625" y1="140.836" x2="175.775" y2="177.045" gradientUnits="userSpaceOnUse">
<stop stop-color="#E11682"/>
<stop offset="1" stop-color="#8B0D95"/>
</linearGradient>
</defs>
</svg>
