<svg width="257" height="196" viewBox="0 0 257 196" fill="none" xmlns="http://www.w3.org/2000/svg">
<path d="M256.301 168.409C237.517 189.153 210.438 199.209 184.428 194.715C162.219 190.856 147.314 177.593 139.416 168.488C157.013 168.448 180.469 164.925 203.371 150.772C205.311 149.584 207.172 148.337 208.973 147.051C218.257 147.704 225.996 150.178 231.974 154.474C233.261 155.384 234.389 156.334 235.557 157.304C237.992 159.284 240.704 161.56 245.019 163.876C248.582 165.776 252.343 167.3 256.301 168.409Z" fill="url(#paint0_linear_40_4574)"/>
<path d="M255.608 45.8633C254.103 64.4897 245.75 116.707 199.807 145.053C180.983 156.711 161.644 160.71 145.967 161.581C153.152 157.127 159.664 151.862 165.365 145.785C183.22 126.842 193.77 100.179 194.206 74.6046C201.747 68.1121 209.843 63.2229 218.315 60.0756C221.601 58.8286 224.471 58.0368 227.559 57.1659C232.131 55.899 236.842 54.5728 243.513 51.7818C247.63 50.0201 251.668 48.0604 255.608 45.8633Z" fill="url(#paint1_linear_40_4574)"/>
<path d="M160.456 141.173C154.677 147.289 148.045 152.575 140.603 156.929C145.65 146.696 149.154 135.888 150.995 124.684C157.685 84.8186 141.256 52.3362 132.428 38.401C140.148 28.7611 148.956 20.0318 158.635 12.4704C164.514 7.89793 170.73 3.72133 177.222 0C177.519 5.28508 177.955 10.59 178.489 15.8552C180.172 31.3542 182.408 41.0534 184.19 48.8326C185.12 52.9894 185.971 56.5721 186.526 60.2737C190.762 87.6492 180.271 120.151 160.456 141.173Z" fill="url(#paint2_linear_40_4574)"/>
<path d="M144.384 123.578C142.029 137.513 137.08 150.755 129.559 163.047C129.519 163.067 129.499 163.127 129.479 163.166C129.44 163.206 129.44 163.206 129.42 163.225C129.42 163.245 129.38 163.305 129.361 163.344C129.004 163.879 128.668 164.413 128.311 164.928C127.955 164.393 127.579 163.879 127.262 163.344C127.223 163.285 127.203 163.245 127.183 163.206C127.183 163.206 127.144 163.206 127.144 163.166C127.124 163.146 127.104 163.087 127.064 163.047C119.543 150.775 114.574 137.513 112.239 123.578C106.32 88.1655 119.76 58.8897 128.311 44.5586C136.863 58.8897 150.303 88.1655 144.384 123.578Z" fill="url(#paint3_linear_40_4574)"/>
<path d="M105.587 124.684C107.467 135.888 110.951 146.696 116.019 156.929C108.576 152.575 101.925 147.289 96.1451 141.173C76.3508 120.151 65.8598 87.6492 70.0562 60.2737C70.6302 56.5721 71.4616 52.9894 72.4315 48.8326C74.213 41.0534 76.4498 31.3542 78.0927 15.8552C78.6667 10.59 79.1022 5.28508 79.3991 0C85.8521 3.72133 92.1071 7.89793 97.9662 12.4704C107.665 20.0516 116.474 28.7611 124.154 38.401C115.365 52.3362 98.8965 84.8186 105.587 124.684Z" fill="url(#paint4_linear_40_4574)"/>
<path d="M117.206 168.488C109.308 177.593 94.4029 190.856 72.1937 194.715C46.184 199.209 19.1054 189.153 0.300781 168.409C4.27944 167.3 8.04036 165.776 11.5835 163.876C15.8987 161.56 18.6303 159.284 21.0452 157.304C22.1933 156.334 23.3215 155.384 24.628 154.474C30.6256 150.178 38.3652 147.704 47.6092 147.051C49.4501 148.337 51.3107 149.584 53.2506 150.772C76.1328 164.925 99.6088 168.448 117.206 168.488Z" fill="url(#paint5_linear_40_4574)"/>
<path d="M110.654 161.581C94.9773 160.71 75.6383 156.711 56.7743 145.053C10.8713 116.707 2.51804 64.4897 1.01367 45.8633C4.91315 48.0604 8.9908 50.0201 13.108 51.7818C19.7787 54.5728 24.4898 55.899 29.0623 57.1659C32.1106 58.0368 35.0203 58.8286 38.2864 60.0756C46.7583 63.2229 54.8542 68.1121 62.376 74.6046C62.8115 100.179 73.3817 126.842 91.256 145.785C96.9567 151.862 103.469 157.127 110.654 161.581Z" fill="url(#paint6_linear_40_4574)"/>
<defs>
<linearGradient id="paint0_linear_40_4574" x1="139.416" y1="147.054" x2="256.311" y2="147.054" gradientUnits="userSpaceOnUse">
<stop stop-color="#CC8EF3"/>
<stop offset="1" stop-color="#6323D9"/>
</linearGradient>
<linearGradient id="paint1_linear_40_4574" x1="145.963" y1="45.8726" x2="255.609" y2="45.8726" gradientUnits="userSpaceOnUse">
<stop stop-color="#CC8EF3"/>
<stop offset="1" stop-color="#6323D9"/>
</linearGradient>
<linearGradient id="paint2_linear_40_4574" x1="132.434" y1="-0.000795021" x2="187.456" y2="-0.000795021" gradientUnits="userSpaceOnUse">
<stop stop-color="#CC8EF3"/>
<stop offset="1" stop-color="#6323D9"/>
</linearGradient>
<linearGradient id="paint3_linear_40_4574" x1="110.786" y1="44.5544" x2="145.835" y2="44.5544" gradientUnits="userSpaceOnUse">
<stop stop-color="#CC8EF3"/>
<stop offset="1" stop-color="#6323D9"/>
</linearGradient>
<linearGradient id="paint4_linear_40_4574" x1="69.1476" y1="-0.000795021" x2="124.159" y2="-0.000795021" gradientUnits="userSpaceOnUse">
<stop stop-color="#CC8EF3"/>
<stop offset="1" stop-color="#6323D9"/>
</linearGradient>
<linearGradient id="paint5_linear_40_4574" x1="0.309491" y1="147.054" x2="117.205" y2="147.054" gradientUnits="userSpaceOnUse">
<stop stop-color="#CC8EF3"/>
<stop offset="1" stop-color="#6323D9"/>
</linearGradient>
<linearGradient id="paint6_linear_40_4574" x1="1.0113" y1="45.8726" x2="110.656" y2="45.8726" gradientUnits="userSpaceOnUse">
<stop stop-color="#CC8EF3"/>
<stop offset="1" stop-color="#6323D9"/>
</linearGradient>
</defs>
</svg>
