<svg width="257" height="110" viewBox="0 0 257 110" fill="none" xmlns="http://www.w3.org/2000/svg">
<path d="M225.838 2.61328C229.429 4.3859 232.837 6.56969 235.716 9.37481C234.181 9.80426 232.673 10.3434 231.22 11.0012C231.796 10.3708 232.362 9.72203 232.892 9.03674C231.229 7.18188 228.991 6.00318 226.962 4.61433C226.323 7.68443 226.853 11.0104 228.397 13.7515C227.081 12.6459 226.021 11.1109 225.619 9.42963C225.446 8.21438 225.336 6.98086 225.144 5.76561L225.107 5.50063C225.29 4.52295 225.555 3.56355 225.838 2.61328Z" fill="white"/>
<path d="M243.867 20.4842C243.392 19.0131 242.442 17.7979 241.227 16.875C242.762 17.5786 244.553 17.7704 245.923 18.7938C246.581 19.607 246.965 20.603 247.55 21.4619C246.444 20.7766 245.128 20.6669 243.867 20.4842Z" fill="white"/>
<path d="M132.375 44.1289C143.97 49.4285 156.424 53.458 169.271 53.7138C172.798 53.7504 176.316 53.394 179.788 52.7727C178.436 50.5615 177.485 48.1127 176.7 45.6548C179.697 49.5838 183.534 52.8367 187.765 55.3677C180.93 57.2225 173.757 57.8804 166.703 57.2225C154.35 55.9707 142.645 50.9544 132.375 44.1289Z" fill="white"/>
<path fill-rule="evenodd" clip-rule="evenodd" d="M224.314 3.05842C224.588 2.20866 224.835 1.3589 225.072 0.5C227.375 1.6056 229.778 2.51019 231.971 3.81681C232.482 2.75689 233.149 1.77007 234.036 0.984276C235.324 2.09901 236.503 3.34167 237.471 4.73966C237.873 5.28789 238.193 5.97318 238.888 6.21075C240.496 6.92345 242.049 7.75493 243.602 8.58642C244.763 9.19861 245.567 10.2677 246.408 11.2545C247.678 12.7713 248.893 14.3246 250.026 15.9419C250.601 16.7368 251.004 17.6688 251.004 18.6648C251.095 19.3775 250.848 20.1815 251.287 20.8211C252.877 23.5257 254.147 26.404 255.481 29.2365C254.731 29.9401 253.79 30.3512 252.977 30.9634C252.429 31.9411 252.036 33.0102 251.369 33.9239C249.359 34.5635 247.869 36.2995 245.704 36.5828C246.197 35.6782 246.773 34.801 247.047 33.796C245.521 33.1563 244.342 31.2101 242.506 31.8406C240.651 32.1969 239.244 33.7137 238.504 35.3858C237.937 37.2955 239.673 38.8671 241.282 39.5158C242.497 39.4336 243.484 38.6113 244.507 38.0356C244.242 39.1869 243.694 40.2377 243.082 41.2428C243.091 41.4255 243.109 41.8001 243.118 41.992C242.259 43.0519 241.684 44.5322 240.295 45.0164C238.531 45.2357 236.759 44.8337 235.041 44.4499C234.63 42.2204 233.88 39.8813 232.135 38.3371C229.86 36.0528 226.644 35.2488 223.702 34.198C222.897 33.8782 222.057 34.1706 221.271 34.3442C217.781 35.1665 214.711 37.3686 212.554 40.192C212.627 44.4316 212.49 48.7261 211.467 52.8744C213.112 53.9069 214.957 54.5922 216.584 55.6521C213.431 56.3557 210.27 57.5344 207.803 59.6634C211.832 57.8999 216.291 57.2603 220.659 57.3699C223.619 58.1283 226.516 59.1334 229.449 60.0197C231.77 60.8329 234.237 61.3537 236.311 62.7426C238.97 64.4512 241.967 65.6117 245.083 66.1599C247.23 66.169 249.386 66.0137 251.543 66.1599C252.447 66.2421 253.005 67.0736 253.544 67.7132C254.476 68.9742 255.426 70.2351 256.166 71.6239C255.179 71.0574 254.11 70.6006 252.95 70.5914C254.247 72.6199 254.521 75.0687 254.923 77.3895C254.064 76.6403 253.498 75.1875 252.182 75.288C251.57 75.2606 250.967 75.16 250.382 75.0047C250.775 76.8596 250.857 78.7784 250.912 80.6698C250.318 79.7835 249.688 78.9246 248.993 78.1114C246.846 78.4768 245.083 77.0789 243.474 75.891C241.766 75.955 239.957 76.0463 238.412 75.1966C236.585 74.1732 234.913 72.894 233.35 71.5143C233.04 71.2402 232.702 70.9295 232.254 70.9843C223.025 70.9569 213.806 70.7925 204.577 70.5914C204.261 70.6219 203.983 70.5458 203.746 70.363C201.242 68.4716 198.903 66.3518 196.884 63.9396C188.889 74.9773 180.537 85.7409 172.414 96.6782C172.332 98.469 172.424 100.26 172.369 102.06C173.858 102.087 175.357 101.886 176.846 102.014C179.669 103.421 181.543 106.263 182.31 109.269C176.526 109.233 170.724 109.37 164.94 109.205C164.209 104.472 163.222 99.7848 162.391 95.07C164.712 90.3643 167.06 85.6678 169.308 80.9256C171.711 75.0778 174.306 69.294 176.581 63.3822C168.485 64.2594 160.262 63.4553 152.404 61.3812C152.386 66.233 150.686 71.0118 147.717 74.8402C143.815 80.0484 138.525 84.0048 133.097 87.5227C131.206 88.7379 129.241 89.8252 127.249 90.8486C130.301 95.0335 133.938 98.7706 137.83 102.179C140.654 102.508 143.587 102.224 146.355 102.974C148.786 104.134 150.156 106.747 150.823 109.251C145.003 109.297 139.182 109.306 133.353 109.26C130.502 106.939 127.551 104.737 124.773 102.325C120.268 98.4873 116.138 94.2111 112.356 89.6516C116.33 86.4628 120.004 82.7713 122.598 78.3489C124.006 75.8727 125.075 72.8301 124.042 70.0249C122.799 66.5894 119.072 64.6979 115.59 64.4787C119.336 60.6776 123.987 57.7263 129.141 56.2643C131.251 55.6795 133.408 55.2135 135.601 55.0034C129.186 54.6379 122.425 56.0998 117.29 60.1202C115.289 61.6004 114.256 63.9213 112.822 65.8858C108.308 72.6382 102.323 78.3763 95.4427 82.6891C93.0671 84.1145 90.7371 85.7409 88.0142 86.4171C78.5755 88.9572 68.7256 89.4963 59.0036 89.2222C54.837 92.8953 50.5517 96.5045 47.0156 100.808C47.4359 101.512 47.8196 102.234 48.176 102.974C49.1811 102.928 50.2319 102.672 51.2187 102.974C53.6492 104.116 55.3213 106.619 55.5954 109.269C50.5608 109.297 45.5171 109.26 40.4733 109.287C39.9799 109.242 39.4408 109.361 38.984 109.169C38.3444 106.857 37.7687 104.518 37.2388 102.179C36.9647 101.119 37.787 100.205 38.1799 99.2731C42.2185 91.9542 47.2257 85.2201 52.2146 78.5134C56.6736 79.0616 61.1417 77.6819 65.0707 75.69C67.0991 74.5844 69.0636 73.3143 70.7175 71.7153C72.4901 69.4584 73.6505 66.7904 74.747 64.1589C76.9856 58.6765 79.2151 53.1759 81.8831 47.8855C83.3085 45.0804 85.008 42.4032 87.0182 39.9818C76.2546 45.9758 66.8159 53.9983 57.6695 62.1852C52.9365 66.4249 48.3679 70.8656 43.6622 75.1418C38.9292 79.2718 33.9768 83.2099 28.4671 86.2617C23.9624 88.6831 18.9918 90.6293 13.8019 90.5471C10.3114 90.5745 6.77535 89.4141 4.12556 87.1206C1.23821 84.5805 -0.086688 80.5784 0.205702 76.7956C0.498093 73.36 1.82298 69.9975 4.01591 67.3203C5.19461 65.8767 7.82613 66.4614 8.29212 68.2706C8.77639 69.5589 7.7713 70.6737 7.1317 71.6788C5.45045 74.3651 4.54587 77.8555 5.84335 80.8891C6.76621 83.2739 9.15102 84.7998 11.5998 85.2658C14.944 85.9237 18.3705 85.0556 21.5045 83.8769C27.197 81.6475 32.2042 78.0291 36.8916 74.1641C41.9718 69.961 46.6318 65.2736 51.5293 60.8603C59.9082 53.1028 68.5885 45.5921 78.1826 39.3422C88.5807 32.4985 100.24 27.3268 112.575 25.3075C120.826 24.1562 128.985 22.3562 137.136 20.6201C142.179 20.7754 147.214 21.4242 152.258 21.1592C157.292 21.1227 162.08 23.1603 166.274 25.81C168.549 27.2446 170.578 29.0172 172.579 30.7989C168.988 24.5948 162.921 19.5785 155.821 18.0982C153.802 17.6414 151.728 17.7419 149.681 17.5409C157.603 15.3936 165.488 13.1185 173.383 10.9073C174.854 10.4778 176.097 9.53669 177.413 8.79658C180.802 6.84122 184.174 4.8493 187.664 3.06755C190.899 2.97618 194.115 3.69802 197.222 4.57519C197.88 4.63915 198.538 4.43813 199.196 4.35589C207.492 3.09496 215.926 2.2452 224.314 3.05842ZM225.84 2.61069C225.556 3.56096 225.291 4.52036 225.109 5.49804L225.145 5.76302C225.026 5.88181 224.78 6.11938 224.652 6.23816C216.885 5.20566 208.945 6.20161 201.398 8.16611C209.475 7.5996 217.708 7.48995 225.62 9.42704C226.022 11.1083 227.082 12.6433 228.398 13.7489C226.854 11.0078 226.324 7.68184 226.964 4.61174C228.992 6.00059 231.231 7.17929 232.894 9.03414C232.364 9.71943 231.797 10.3682 231.221 10.9986C232.674 10.3408 234.182 9.80166 235.717 9.37222C232.839 6.5671 229.431 4.38331 225.84 2.61069ZM178.509 12.4606C175.512 14.9002 173.091 18.5094 173.072 22.4841C173.639 20.4739 174.653 18.6099 176.069 17.0749C179.13 13.8038 183.37 11.9855 187.6 10.7428C192.653 13.0911 197.889 15.4485 201.946 19.3774C203.106 20.41 203.015 22.0638 202.988 23.4709C202.951 25.1796 202.412 26.8243 202.092 28.4872C207.099 33.4944 208.433 40.8864 208.662 47.6936C209.219 43.4997 209.173 39.1778 208.287 35.0386C207.73 32.4162 206.542 29.9949 205.171 27.7197C206.094 24.9786 206.761 21.9633 206.048 19.1033C205.144 17.0657 203.271 15.6677 201.571 14.2972C197.432 11.291 192.717 9.10724 187.865 7.52651C184.512 8.6047 181.287 10.2677 178.509 12.4606ZM224.661 20.3917C222.916 22.2374 221.646 24.7136 221.828 27.2994C221.929 28.9898 223.071 30.3786 224.359 31.3655C227.018 33.3665 230.207 34.4904 233.387 35.4132C232.135 33.2751 231.112 30.8172 231.541 28.3045C231.87 26.4314 233.204 25.006 234.52 23.7359C232.976 24.4851 231.596 25.6364 230.719 27.1167C229.696 28.7248 229.696 30.7076 229.951 32.535C228.526 31.6304 227.119 30.671 226.004 29.401C224.972 28.341 224.35 26.87 224.615 25.3806C225.127 21.744 227.521 18.6099 230.335 16.3713C228.124 17.1845 226.26 18.7104 224.661 20.3917ZM243.867 20.483C245.128 20.6658 246.444 20.7754 247.55 21.4607C246.965 20.6018 246.581 19.6059 245.923 18.7927C244.553 17.7693 242.762 17.5774 241.227 16.8739C242.442 17.7967 243.392 19.012 243.867 20.483ZM214.966 29.8852C215.085 31.3929 214.171 32.6629 213.687 34.0152C214.592 33.2477 215.414 32.3614 216.437 31.7584C217.598 31.0182 218.914 30.6162 220.147 30.0497C219.078 29.8578 218 29.803 216.913 29.7847C216.227 27.6283 216.09 25.3258 216.355 23.078C215.314 25.1796 214.884 27.5552 214.966 29.8852ZM111.378 43.2895C108.948 45.6378 106.718 48.2875 105.366 51.4125C104.845 52.5272 105.028 53.779 104.927 54.9668C104.626 59.0786 102.972 62.9619 100.779 66.4066C95.9818 73.689 88.7817 79.0159 81.2252 83.1825C89.403 80.3774 97.1971 75.7631 102.698 68.9924C106.234 64.5974 108.6 59.0603 108.472 53.3496C108.418 51.5952 109.432 50.0602 110.272 48.5891C113.516 43.5088 118.039 39.397 122.754 35.6965C118.606 37.6244 114.704 40.1372 111.378 43.2895ZM183.361 40.6123C186.577 44.1027 191 46.1586 194.472 49.3749C194.865 49.7678 195.12 50.2703 195.376 50.7637C197.085 54.51 198.867 58.3567 201.745 61.3629C201.124 59.8552 200.292 58.4481 199.799 56.8948C198.858 54.382 198.41 51.7323 197.587 49.1921C197.24 47.8581 196.144 46.9352 195.029 46.2317C191.374 43.8834 187.162 42.6773 183.361 40.6123ZM132.375 44.1301C142.645 50.9556 154.35 55.9719 166.704 57.2237C173.758 57.8816 180.93 57.2237 187.765 55.3689C183.534 52.8379 179.697 49.585 176.7 45.656C177.486 48.1139 178.436 50.5627 179.788 52.7739C176.316 53.3952 172.798 53.7516 169.271 53.715C156.424 53.4592 143.97 49.4297 132.375 44.1301ZM82.0659 57.4156C81.4171 61.2441 80.412 65.0178 78.8313 68.5721C77.9633 70.5914 77.0039 72.6016 75.5602 74.2737C73.02 77.2981 69.6484 79.4911 66.1306 81.2089C67.3001 81.0444 68.3875 80.551 69.4839 80.1215C73.5226 78.4677 77.8079 76.156 79.6902 71.9894C81.7095 67.4482 82.4679 62.3588 82.0659 57.4156Z" fill="#252525"/>
<path d="M201.398 8.16871C208.946 6.20421 216.886 5.20826 224.653 6.24077C224.781 6.12198 225.027 5.88441 225.146 5.76562C225.338 6.98087 225.448 8.21439 225.621 9.42964C217.708 7.49255 209.476 7.60221 201.398 8.16871Z" fill="#C6A981"/>
<path d="M178.509 12.4614C181.287 10.2685 184.512 8.60553 187.865 7.52734C192.717 9.10808 197.432 11.2919 201.571 14.298C203.271 15.6686 205.144 17.0666 206.048 19.1042C206.761 21.9641 206.094 24.9794 205.171 27.7206C206.542 29.9957 207.73 32.4171 208.287 35.0394C209.173 39.1786 209.219 43.5005 208.662 47.6945C208.433 40.8872 207.099 33.4953 202.092 28.4881C202.412 26.8251 202.951 25.1804 202.987 23.4718C203.015 22.0646 203.106 20.4108 201.946 19.3783C197.889 15.4493 192.653 13.0919 187.6 10.7436C183.37 11.9863 179.13 13.8046 176.069 17.0757C174.653 18.6108 173.639 20.4747 173.072 22.4849C173.091 18.5103 175.512 14.9011 178.509 12.4614Z" fill="#C6A981"/>
<path d="M224.661 20.3915C226.26 18.7102 228.124 17.1843 230.335 16.3711C227.52 18.6097 225.127 21.7438 224.615 25.3804C224.35 26.8697 224.971 28.3408 226.004 29.4007C227.118 30.6708 228.526 31.6302 229.951 32.5348C229.695 30.7074 229.695 28.7246 230.719 27.1164C231.596 25.6362 232.975 24.4849 234.52 23.7357C233.204 25.0058 231.87 26.4312 231.541 28.3043C231.111 30.817 232.135 33.2749 233.387 35.413C230.207 34.4902 227.018 33.3663 224.359 31.3652C223.071 30.3784 221.929 28.9896 221.828 27.2992C221.645 24.7134 222.915 22.2372 224.661 20.3915Z" fill="#C6A981"/>
<path d="M137.135 20.6222C141.329 19.6537 145.504 18.5572 149.68 17.543C151.727 17.744 153.801 17.6435 155.82 18.1003C162.92 19.5806 168.987 24.5969 172.578 30.801C170.577 29.0193 168.548 27.2467 166.273 25.8121C162.079 23.1623 157.291 21.1247 152.257 21.1613C147.213 21.4263 142.178 20.7775 137.135 20.6222Z" fill="#C6A981"/>
<path d="M214.967 29.8853C214.884 27.5554 215.314 25.1797 216.356 23.0781C216.091 25.3259 216.228 27.6285 216.913 29.7848C218 29.8031 219.078 29.8579 220.147 30.0498C218.914 30.6163 217.598 31.0184 216.438 31.7585C215.414 32.3615 214.592 33.2478 213.688 34.0154C214.172 32.6631 215.085 31.393 214.967 29.8853Z" fill="#C6A981"/>
<path d="M111.377 43.2883C114.703 40.136 118.605 37.6233 122.753 35.6953C118.038 39.3959 113.515 43.5076 110.272 48.5879C109.431 50.059 108.417 51.594 108.472 53.3484C108.6 59.0591 106.233 64.5963 102.697 68.9913C97.1964 75.7619 89.4024 80.3762 81.2246 83.1813C88.7811 79.0148 95.9812 73.6878 100.778 66.4054C102.971 62.9607 104.625 59.0774 104.926 54.9657C105.027 53.7778 104.844 52.526 105.365 51.4204C106.717 48.2864 108.947 45.6366 111.377 43.2883Z" fill="#C6A981"/>
<path d="M183.361 40.6133C187.162 42.6783 191.375 43.8844 195.03 46.2327C196.144 46.9362 197.241 47.8591 197.588 49.1931C198.41 51.7333 198.858 54.383 199.799 56.8958C200.293 58.4491 201.124 59.8562 201.745 61.3639C198.867 58.3577 197.085 54.511 195.377 50.7647C195.121 50.2713 194.865 49.7779 194.472 49.3759C191 46.1596 186.578 44.1037 183.361 40.6133Z" fill="#C6A981"/>
<path d="M82.0661 57.4141C82.4682 62.3573 81.7098 67.4467 79.6905 71.9879C77.8082 76.1545 73.5229 78.4662 69.4842 80.12C68.3878 80.5494 67.3004 81.0429 66.1309 81.2073C69.6487 79.4895 73.0203 77.2966 75.5605 74.2722C77.0041 72.6001 77.9635 70.5899 78.8316 68.5706C80.4123 65.0162 81.4174 61.2425 82.0661 57.4141Z" fill="#C6A981"/>
</svg>
