<svg width="257" height="203" viewBox="0 0 257 203" fill="none" xmlns="http://www.w3.org/2000/svg">
<path fill-rule="evenodd" clip-rule="evenodd" d="M231.633 86.3827C232.248 87.832 234.356 94.1564 229.042 102.94C228.12 157.883 183.278 202.154 128.159 202.154C72.4699 202.154 27.3648 157.093 27.2331 101.447C22.9729 93.4537 24.9053 87.7442 25.4763 86.3827C-5.26716 85.5921 1.10114 58.2305 1.10114 58.2305C1.10114 69.8251 10.5438 79.2678 22.1384 79.2678H79.1017C87.1828 79.2678 94.5612 83.8793 98.0748 91.126L102.994 101.227L113.183 122.265H113.227L118.102 132.454L128.555 154.282L139.007 132.454L143.883 122.265H143.926L154.116 101.227L159.035 91.126C162.548 83.8793 169.927 79.2678 178.008 79.2678H234.971C246.566 79.2678 256.008 69.8251 256.008 58.2305C256.008 58.2305 262.377 85.5921 231.633 86.3827ZM144.41 134.035H182.971C194.609 134.035 204.008 124.592 204.008 112.998H154.599L144.41 134.035ZM102.511 112.998H53.1015C53.1015 124.592 62.5002 134.035 74.1388 134.035H112.7L102.511 112.998ZM46.6454 107.113H99.6998L98.514 104.609L93.595 94.5077C91.8821 90.9942 89.3348 88.1394 86.2166 86.0752H25.6081C25.6081 97.7138 35.0068 107.113 46.6454 107.113ZM209.234 125.954C204.447 135.616 194.477 142.292 182.971 142.292H180.467C168.389 157.664 149.636 167.589 128.555 167.589C107.473 167.589 88.72 157.664 76.6422 142.292H74.1388C62.632 142.292 52.6623 135.616 47.8751 125.954C58.2839 160.65 90.4767 185.904 128.555 185.904C166.633 185.904 198.782 160.65 209.234 125.954ZM231.501 86.0752H170.893C167.775 88.1394 165.183 90.9942 163.514 94.5077L158.595 104.609L157.366 107.113H210.464C222.059 107.113 231.501 97.7138 231.501 86.0752Z" fill="url(#paint0_linear_40_153)"/>
<path fill-rule="evenodd" clip-rule="evenodd" d="M36.8516 58.2302C52.9699 24.0172 87.7978 0.300781 128.16 0.300781C168.477 0.300781 203.305 24.0172 219.424 58.2302H175.021C162.153 58.2302 150.427 65.5647 144.805 77.1155L131.673 104.345L128.555 110.802L112.305 77.1155C106.683 65.5647 94.9567 58.2302 82.0884 58.2302H36.8516ZM62.1051 49.9295H82.0884C83.8451 49.9588 85.6019 50.0759 87.3587 50.2808C98.6459 41.2335 112.964 35.7875 128.555 35.7875C144.146 35.7875 158.508 41.2335 169.795 50.2808C171.523 50.0759 173.265 49.9588 175.021 49.9295H195.005C179.633 30.1658 155.565 17.4732 128.555 17.4732C101.545 17.4732 77.5208 30.1658 62.1051 49.9295Z" fill="url(#paint1_linear_40_153)"/>
<defs>
<linearGradient id="paint0_linear_40_153" x1="169.014" y1="-2.08028" x2="169.014" y2="282.557" gradientUnits="userSpaceOnUse">
<stop stop-color="#29A8E0"/>
<stop offset="1" stop-color="#2A3D8F"/>
</linearGradient>
<linearGradient id="paint1_linear_40_153" x1="161.557" y1="-2.08052" x2="161.557" y2="282.557" gradientUnits="userSpaceOnUse">
<stop stop-color="#29A8E0"/>
<stop offset="1" stop-color="#2A3D8F"/>
</linearGradient>
</defs>
</svg>
