<svg width="133" height="257" viewBox="0 0 133 257" fill="none" xmlns="http://www.w3.org/2000/svg">
<path d="M44.8126 157.508C41.7208 156.078 40.5904 153.485 40.2247 151.258L32.8774 155.447L32.7776 155.413C32.2789 155.347 20.8423 153.485 16.0549 147.268L15.9884 147.202V147.069C15.9884 147.035 16.4871 143.478 12.6971 138.89C9.27276 134.734 5.25001 132.241 4.38561 131.742L2.09163 133.803L4.21938 136.097L1.82567 135.898L0.861542 137.195C1.92541 137.826 5.64895 140.153 7.278 143.146L7.57721 143.711L6.94554 143.544C6.9123 143.544 2.8563 142.481 0.695312 143.445V144.708C1.65944 144.642 4.31912 144.542 5.18351 145.041C5.51597 145.24 5.81518 145.739 6.18089 146.404C7.11177 148.132 8.54135 150.692 12.0987 150.892H12.2316L12.2981 151.025C12.3979 151.158 20.6096 163.126 29.8852 163.924C29.985 163.957 37.2326 164.523 44.5467 158.838C44.6797 158.239 44.7461 157.774 44.8126 157.508Z" fill="#222222"/>
<path fill-rule="evenodd" clip-rule="evenodd" d="M125.474 133.57C129.962 145.639 125.573 162.96 110.679 169.842C96.4167 176.458 91.4963 188.592 91.4631 188.692C91.4631 188.692 98.9766 178.519 110.712 174.297C119.822 171.005 123.944 163.458 125.374 160.001C124.343 171.803 115.267 184.337 105.859 186.465C95.9513 188.725 92.4272 195.541 92.394 195.607L91.6958 197.004L92.8594 195.94C95.4193 193.513 100.872 191.584 102.767 190.953C99.0099 197.702 89.0029 202.09 89.0029 202.09C91.2636 201.458 93.4911 201.658 94.7544 201.891C92.5602 202.689 87.2741 205.348 81.0238 213.327C73.2775 223.201 46.3483 255.583 24.5058 256.414C18.4883 256.647 13.3351 254.386 9.11292 249.765C-2.45666 237.032 5.15665 217.915 13.6011 204.085C21.2477 191.551 30.9222 181.012 34.0141 177.787C32.0526 183.406 33.05 190.587 33.1165 190.92L33.1497 191.185L33.4489 191.152C33.5154 191.119 43.1235 189.523 48.9748 184.636C54.7263 179.815 62.2731 177.555 62.3396 177.521L63.4035 177.222L62.3396 176.989C62.1402 176.956 57.6187 176.059 48.6423 181.777C41.0622 186.631 38.2696 186.631 37.6712 186.564C34.945 176.491 38.2363 171.537 41.428 168.346C43.9879 165.786 45.351 157.74 45.4175 157.408L45.4507 157.175C46.98 156.377 46.9135 154.947 46.9135 154.947C43.8549 154.382 42.2591 152.786 41.5277 151.157C40.4638 148.73 42.2923 146.835 44.3203 146.403C47.6117 145.705 51.1358 145.339 54.3939 144.109C57.8514 142.813 62.2731 140.253 53.7954 143.444C45.8497 146.436 35.4437 147.5 34.1803 147.667C24.8715 139.355 20.3833 121.003 20.35 120.837L20.3168 120.737C18.7542 118.011 19.3194 115.551 19.7849 113.39C20.0176 112.26 20.2503 111.229 20.2171 110.232C20.0841 107.572 17.9231 104.746 17.3247 104.048L17.7569 103.45C20.5828 105.112 22.0456 108.337 22.0456 108.37L22.3448 109.002L22.5775 108.37C24.1068 104.247 21.6799 98.3961 21.1147 97.166L22.5443 96.2684C23.3089 97.0331 26.567 100.59 27.6641 104.68C29.127 110.331 26.7665 115.086 26.0018 116.415C24.406 119.175 25.9354 121.901 25.9686 122.001C28.3623 127.287 38.2363 137.36 38.6685 137.759L38.735 137.859H38.868C43.1567 137.56 52.4656 132.939 56.0229 129.78C59.3807 126.855 63.736 127.619 63.7692 127.619C63.7692 127.619 62.7386 126.855 61.2758 127.021C60.9765 126.888 59.9792 126.555 58.3501 126.855C57.6852 126.988 56.7211 127.42 55.6904 127.885C54.0282 128.65 51.9669 129.581 50.9363 129.182C49.8059 128.716 49.9389 127.985 50.0386 127.32C50.0719 127.087 50.1051 126.921 50.0719 126.755C50.0054 126.256 49.6064 126.123 49.3405 126.024C49.2407 125.99 49.1078 125.924 49.0745 125.891C49.0413 125.791 48.7088 125.159 48.9083 124.827C49.8059 124.694 50.7368 123.995 50.7368 123.995C50.0386 124.295 49.008 124.793 48.5093 124.893C48.1769 124.993 47.9774 124.76 47.8777 124.428C47.7779 123.929 47.512 123.098 47.4455 122.832L45.6834 122.998C45.3177 123.065 45.5172 122.599 45.4507 122.267C45.351 121.702 45.351 120.937 45.8497 120.305C47.0133 118.776 46.7473 117.779 46.3816 116.382C46.2486 115.917 46.1156 115.418 46.0159 114.82C45.7832 113.556 46.0159 112.193 46.2819 111.229C51.2023 112.393 42.8575 109.534 40.1978 104.979C40.1978 104.979 40.8295 109.667 45.7167 111.063C45.4507 112.093 45.218 113.523 45.4507 114.919C45.5504 115.518 45.7167 116.05 45.8164 116.515C46.1821 117.845 46.4148 118.643 45.4175 119.939C44.6861 120.87 44.7858 121.967 44.952 122.666C45.0518 123.031 45.4175 123.297 45.8164 123.264L47.246 123.164C47.3457 123.663 47.5452 124.594 47.7114 124.993C47.7447 125.093 47.8444 125.292 48.3099 125.292C48.4096 125.292 48.3431 125.458 48.3099 125.625C42.3921 124.394 38.4691 121.17 36.4743 116.183C33.7149 109.268 35.5102 99.5597 40.896 92.0129C49.5067 80.0111 37.4717 70.4363 37.3387 70.3366L36.3081 69.5054L36.9398 70.669C43.8881 83.7347 38.3361 90.3174 36.6405 91.9464C36.6405 89.6525 36.0421 81.5405 28.5618 72.7635C24.805 68.3418 23.3422 63.0225 24.4393 57.7031C25.9686 50.389 32.0194 43.7731 41.4944 39.1187C47.9109 35.9603 51.7342 32.1038 52.8313 27.6156C54.1279 22.4292 51.2687 18.3732 51.1358 18.207L50.5706 17.4423L50.6371 18.4065C51.3685 30.4415 43.8217 33.5998 40.5636 34.3977C45.8164 30.8404 44.9188 26.6515 43.8881 21.864C43.19 18.6059 42.3921 14.8824 43.6222 10.8929C46.1821 2.38193 54.6931 1.58403 57.12 1.55078C56.1559 2.5814 54.1279 5.14134 54.0614 8.49918C53.9949 11.2253 55.2583 13.7853 57.7185 16.2122C61.5085 19.836 63.337 23.5596 63.1708 27.2166C62.9381 31.5054 59.9459 35.9603 54.2609 40.4485C48.0106 45.3689 44.7525 51.8851 45.7167 57.5037C46.4148 61.4932 49.1078 64.4853 53.3632 65.9149C63.4367 69.306 64.6668 74.8913 64.6668 74.9578L64.9661 76.3873L65.232 74.9578C66.0299 70.4363 62.5391 67.9761 58.8821 65.3497C55.225 62.7565 51.435 60.0968 51.1358 55.11C50.6038 46.732 55.5907 44.438 57.2862 43.9061C52.7316 54.711 60.4779 59.7976 68.6896 65.1835C75.372 69.5387 82.2539 74.0601 84.3152 81.9727C88.9696 99.9587 76.1034 111.595 75.9705 111.695L74.5741 112.958L76.2697 112.16C85.2793 108.071 87.9058 97.0663 88.5707 93.0103C90.5654 102.253 89.568 109.766 85.645 115.352C79.8602 123.563 69.4875 124.727 69.3878 124.727L69.421 124.827C69.0553 124.195 68.7893 123.53 68.4901 122.898C67.9249 121.535 67.393 120.239 66.2626 119.574C64.2014 118.377 64.6668 116.05 64.7001 115.95L64.1682 115.817C64.1349 115.85 63.5697 118.676 65.9634 120.039C66.9276 120.638 67.4263 121.768 67.9914 123.098C68.6231 124.627 69.3545 126.356 71.0168 127.42C73.8427 129.282 77.2338 135.499 76.1035 140.319C75.8707 141.383 75.6713 142.68 75.4385 144.143C74.6406 149.262 73.5768 156.244 69.2215 161.131C64.0019 166.982 64.3676 169.143 66.1629 179.516C66.3402 180.602 66.5397 181.777 66.7613 183.04C69.1218 197.303 61.1428 212.596 46.8803 221.107C31.8864 230.05 31.0885 237.264 31.0552 237.564L30.9222 239.026L31.5872 237.73C31.6204 237.663 35.4769 230.249 49.9721 223.102C63.9687 216.153 68.1909 201.226 68.5899 199.663C75.4718 196.206 78.9293 188.626 80.1927 185.101L79.9932 193.413L80.5916 192.083C80.6249 192.017 84.5147 182.774 83.7832 175.859C83.2513 170.905 85.4123 168.213 86.5427 167.149C86.3432 168.279 86.3099 170.673 87.54 175.227C89.3353 182.109 87.4071 185.068 87.3738 185.101C87.3738 185.101 92.1612 181.843 90.1665 174.064C91.7955 171.471 91.6293 169.077 91.6293 168.977V168.877L91.5628 168.811C85.645 162.195 82.8856 152.986 83.9495 143.511C85.0466 133.969 89.834 125.525 97.1149 120.405C106.291 113.955 104.163 109.068 101.902 103.848C100.306 100.191 98.6442 96.4014 100.207 91.481C103.099 82.4381 111.411 81.5072 115.367 81.5737C112.84 82.4713 110.313 84.7321 108.817 87.6245C107.321 90.5501 105.626 96.5676 111.145 104.214C119.39 115.684 111.61 123.031 99.8743 134.202C99.0321 135 98.1787 135.809 97.3143 136.629C93.0256 140.718 90.8979 145.073 90.9976 149.495C91.0974 155.945 95.9845 160.367 96.0177 160.4L96.8489 161.164L96.4832 160.101C93.2916 151.423 95.5856 143.145 102.733 137.427C108.219 133.038 111.909 127.287 112.973 125.525C113.904 128.517 117.628 142.48 109.649 150.26C100.506 159.236 100.971 169.476 100.971 169.576L101.104 171.637L101.537 169.609C101.537 169.509 103.498 160.965 113.605 151.423C119.822 145.539 118.791 140.585 117.594 134.867C116.796 130.944 115.965 126.921 117.229 122.001C119.755 112.226 127.269 111.262 130.062 111.262C126.105 113.59 120.852 121.037 125.474 133.57ZM63.1043 107.439C63.1043 107.439 74.2084 98.1634 65.9302 88.0899C57.652 77.9831 53.4297 81.7732 47.1462 68.7075C47.1462 68.7075 46.5811 77.285 58.3501 85.5632C70.1192 93.8082 63.1043 107.439 63.1043 107.439ZM75.1725 107.938C82.8191 95.9027 72.7124 85.264 72.7124 85.264C72.7124 85.264 81.456 109.899 59.0815 114.687C59.0815 114.687 67.8917 119.441 75.1725 107.938ZM65.5645 145.605C65.5645 145.605 64.8996 151.789 59.3807 154.017C53.8619 156.277 50.2049 152.986 50.2049 152.986C50.2049 152.986 52.931 160.2 60.4114 157.308C67.8917 154.416 65.5645 145.605 65.5645 145.605Z" fill="#222222"/>
<path d="M63.103 107.439C63.103 107.439 74.2071 98.1629 65.9289 88.0894C57.6507 77.9826 53.4284 81.7727 47.145 68.707C47.145 68.707 46.5798 77.2845 58.3488 85.5627C70.1179 93.8077 63.103 107.439 63.103 107.439Z" fill="white"/>
<path d="M65.5627 145.605C65.5627 145.605 64.8978 151.789 59.379 154.017C53.8602 156.277 50.2031 152.986 50.2031 152.986C50.2031 152.986 52.9293 160.2 60.4096 157.308C67.89 154.416 65.5627 145.605 65.5627 145.605Z" fill="white"/>
<path fill-rule="evenodd" clip-rule="evenodd" d="M132.319 110.898L131.288 111.297C127.432 112.793 121.115 120.174 126.002 133.372C130.59 145.673 126.102 163.327 110.908 170.375C100.935 174.996 95.6153 182.343 93.3213 186.233C96.1804 182.875 102.131 176.791 110.509 173.766C122.179 169.577 125.437 158.174 125.47 158.074L126.069 155.946L126.035 158.14C125.836 170.707 116.095 184.737 105.988 187.031C99.1393 188.594 95.4158 192.35 93.8532 194.412C97.3773 191.985 102.963 190.289 103.229 190.223L103.86 190.023L103.561 190.622C100.968 195.974 94.6179 199.532 91.2268 201.127C93.7867 200.928 95.8147 201.526 95.9145 201.56L96.9783 201.859L95.8812 202.091C95.8147 202.125 89.3318 203.588 81.4857 213.661C73.7062 223.602 46.6108 256.149 24.5355 256.98C24.2474 256.98 23.9592 256.98 23.6711 256.98C17.8531 256.98 12.8329 254.687 8.67719 250.132C-0.664916 239.859 0.864393 223.834 13.1321 203.787C22.3413 188.693 34.476 176.492 34.5758 176.359L35.7061 175.229L35.0412 176.692C32.714 181.712 33.4454 188.993 33.6116 190.522C35.2407 190.223 43.4192 188.527 48.6055 184.205C52.861 180.648 58.0806 178.454 60.6406 177.523C58.6458 177.689 54.7228 178.553 48.938 182.277C39.9284 188.028 37.4349 187.098 37.3352 187.064L37.2022 186.998L37.1689 186.865C33.9108 175.096 39.0972 169.909 41.0255 167.948C42.6213 166.352 43.7849 162.296 44.3501 159.67C38.3658 164.091 32.4813 164.524 30.5197 164.524C30.1208 164.524 29.8548 164.49 29.8548 164.49C20.679 163.692 12.8329 152.755 11.902 151.458C8.17849 151.192 6.61594 148.366 5.68505 146.671C5.38584 146.139 5.11987 145.64 4.92039 145.54C4.18898 145.108 1.42957 145.208 0.465441 145.274L0.16623 145.307V143.113L0.299211 143.047C2.09449 142.083 5.11987 142.581 6.44971 142.847C4.4882 139.822 0.332457 137.561 0.299211 137.528L0 137.395L1.56256 135.334L2.8259 135.433L1.29659 133.771L4.32197 131.078L4.4882 131.145C4.55469 131.178 9.20912 133.771 13.1321 138.525C16.7227 142.914 16.623 146.338 16.5565 147.036C21.0447 152.688 31.6501 154.65 32.7805 154.849L40.1278 150.66C39.9616 149.197 40.1278 147.934 40.2276 147.302C36.6702 147.934 34.1768 148.233 34.1103 148.233H34.0106L33.9108 148.167C24.602 139.988 20.0473 121.969 19.8146 121.005C18.1855 118.079 18.7174 115.519 19.2161 113.258C19.4821 112.195 19.6816 111.164 19.6483 110.233C19.5154 107.44 16.7892 104.282 16.7559 104.249L16.623 104.083L17.5871 102.719L17.8198 102.819C20.1803 104.116 21.6431 106.41 22.2415 107.54C23.3719 103.218 20.546 97.2338 20.5127 97.1673L20.413 96.9346L22.6405 95.5715L22.7735 95.7378C22.9397 95.904 26.9292 99.7605 28.1925 104.548C29.7218 110.399 27.2617 115.32 26.4638 116.683C25.0342 119.176 26.4638 121.703 26.4638 121.736C28.6912 126.723 37.9336 136.231 38.9642 137.295C43.0867 136.929 52.2293 132.375 55.6537 129.383C56.917 128.252 58.3466 127.621 59.6099 127.288C59.2775 127.288 58.9118 127.321 58.4796 127.421C57.8479 127.521 56.917 127.953 55.9196 128.419C54.4236 129.083 52.7613 129.848 51.5312 129.848C51.243 129.848 50.9771 129.804 50.7333 129.715C49.1707 129.083 49.3702 127.887 49.4699 127.222C49.5032 127.055 49.5364 126.889 49.5032 126.823C49.5032 126.69 49.4034 126.656 49.1375 126.557C48.9712 126.49 48.7718 126.424 48.6388 126.258C42.4218 125.027 38.0333 121.603 35.9388 116.383C33.1129 109.302 34.9415 99.3948 40.4603 91.715C47.2757 82.1734 40.826 74.3939 38.0998 71.7342C45.1812 86.3957 36.5705 92.7124 36.504 92.7789L36.0053 93.1446L36.0386 92.5462C36.0718 92.4464 36.77 83.2706 28.126 73.0973C24.2695 68.5759 22.7735 63.057 23.9038 57.6047C25.4331 50.0911 31.6169 43.3422 41.2582 38.588C47.5084 35.5294 51.232 31.7726 52.2958 27.4839C53.1602 23.9598 51.9966 20.9345 51.232 19.4716C51.5312 33.9669 39.2967 35.197 39.1637 35.197L37.8671 35.3299L38.9975 34.6983C45.3142 31.141 44.4498 27.1182 43.3527 21.9983C42.6213 18.6405 41.8234 14.8837 43.0867 10.728C46.1786 0.388484 57.6817 0.98691 57.8146 0.98691L58.4796 1.02016L57.9809 1.4856C57.9476 1.51884 54.6895 4.47773 54.623 8.53373C54.5565 11.0604 55.7534 13.5206 58.1139 15.7813C62.0369 19.5714 63.8987 23.4279 63.6992 27.2512C63.4997 31.7061 60.4078 36.3273 54.5898 40.9153C48.539 45.6694 45.3474 52.0194 46.2783 57.4052C46.91 61.1953 49.5032 64.0212 53.5259 65.3843C61.1392 67.9442 63.8654 71.701 64.763 73.6292C64.7298 70.2049 61.8374 68.1437 58.5461 65.8165C54.9555 63.2898 50.8995 60.3974 50.567 55.1445C49.9354 44.7718 57.6484 43.2092 57.7482 43.2092L58.2469 43.1095L58.0474 43.6082C53.1602 54.3466 60.5076 59.1673 69.0185 64.7193C75.435 68.9416 82.7158 73.6957 84.8436 81.841C88.7001 96.7019 80.7876 107.307 77.596 110.831C86.9713 105.246 88.2014 91.5488 88.2014 91.4158L88.3676 89.687L88.7666 91.3826C91.26 101.456 90.3624 109.635 86.1069 115.685C80.6214 123.465 71.1795 125.061 69.6834 125.26C70.0824 125.925 70.6143 126.49 71.3125 126.956C74.2381 128.884 77.8619 135.234 76.6651 140.454C76.4324 141.517 76.2329 142.781 76.0002 144.244C75.2023 149.397 74.1052 156.478 69.6502 161.498C64.5968 167.15 64.9293 169.045 66.6913 179.418C66.8908 180.504 67.0903 181.69 67.2897 182.975C69.7167 197.437 61.6047 212.963 47.176 221.574C36.903 227.724 33.3789 233.043 32.2153 235.736C34.1768 233.11 39.0972 227.824 49.7026 222.571C64.1979 215.423 68.0544 199.565 68.0876 199.399L68.1209 199.266L68.2206 199.199C77.1638 194.844 80.1892 183.241 80.2224 183.141L80.8208 180.748L80.6214 190.422C81.6852 187.563 83.7797 181.08 83.2145 175.927C82.4499 168.912 86.7054 166.252 86.9048 166.119L87.9687 165.488L87.2705 166.518C87.2705 166.552 86.2732 168.28 88.0684 175.096C88.5671 176.991 88.7999 178.62 88.8331 179.95C88.6336 180.748 88.4009 181.545 88.2014 182.277C88.4009 180.681 88.3344 178.354 87.5365 175.229C86.3064 170.674 86.3396 168.28 86.5391 167.15C85.4088 168.214 83.2478 170.907 83.7797 175.86C84.5111 182.776 80.6214 192.018 80.5881 192.084L79.9897 193.414L80.1892 185.103C78.9258 188.627 75.4682 196.207 68.5863 199.664C68.1874 201.227 63.9651 216.154 49.9686 223.103C35.4734 230.251 31.6169 237.665 31.5836 237.731L30.9187 239.028L31.0517 237.565C31.0849 237.266 31.8828 230.051 46.8767 221.108C61.1392 212.597 69.1183 197.304 66.7578 183.042C66.5362 181.778 66.3367 180.604 66.1594 179.517C64.3641 169.145 63.9984 166.984 69.218 161.133C73.5732 156.245 74.6371 149.264 75.435 144.144C75.6677 142.681 75.8672 141.384 76.0999 140.321C77.2303 135.5 73.8392 129.283 71.0133 127.421C69.351 126.357 68.6196 124.628 67.9879 123.099C67.4227 121.769 66.924 120.639 65.9599 120.041C63.5662 118.677 64.1314 115.852 64.1646 115.818L64.1314 115.619C63.9541 115.641 63.7767 115.652 63.5994 115.652C62.2031 115.652 60.9398 116.383 60.3081 117.614C60.2859 117.658 60.2638 117.702 60.2416 117.747C59.1777 119.775 57.0167 119.442 57.0167 119.442C60.1751 118.677 59.078 114.688 59.078 114.688C81.4525 109.901 72.7088 85.2653 72.7088 85.2653C72.7088 85.2653 82.8156 95.904 75.169 107.939C72.1104 112.793 68.7526 114.754 65.9267 115.386C66.1926 116.516 66.7578 118.046 67.9879 119.11C69.7832 120.672 70.5811 123.531 70.8138 124.495C73.8392 123.864 81.12 121.736 85.6415 115.353C89.5645 109.768 90.5619 102.254 88.5671 93.0116C87.9022 97.0676 85.2758 108.072 76.2661 112.161L74.5706 112.959L75.9669 111.696C76.0999 111.596 88.9661 99.96 84.3116 81.974C82.2504 74.0614 75.3685 69.54 68.6861 65.1848C60.4743 59.7989 52.728 54.7123 57.2827 43.9074C55.5872 44.4393 50.6003 46.7333 51.1322 55.1113C51.4314 60.0981 55.2215 62.7578 58.8785 65.351C62.5356 67.9774 66.0264 70.4376 65.2285 74.9591L64.9625 76.3886L64.6633 74.9591C64.6633 74.8926 63.4332 69.3073 53.3597 65.9162C49.1042 64.4866 46.4113 61.4945 45.7131 57.505C44.749 51.8864 48.0071 45.3702 54.2573 40.4498C59.9424 35.9616 62.9345 31.5067 63.1672 27.2179C63.3335 23.5609 61.505 19.8373 57.7149 16.2135C55.2547 13.7866 53.9914 11.2267 54.0579 8.50049C54.1244 5.14265 56.1524 2.58271 57.1165 1.55209C54.6895 1.58534 46.1786 2.38324 43.6186 10.8942C42.3885 14.8837 43.1864 18.6072 43.8846 21.8653C44.9152 26.6528 45.8129 30.8417 40.56 34.3991C43.8181 33.6012 51.3649 30.4428 50.6335 18.4078L50.567 17.4436L51.1322 18.2083C51.2652 18.3745 54.1244 22.4305 52.8278 27.6169C51.7306 32.1051 47.9074 35.9616 41.4909 39.12C32.0158 43.7744 25.9651 50.3903 24.4357 57.7044C23.3386 63.0238 24.8015 68.3431 28.5582 72.7648C36.0386 81.5418 36.637 89.6538 36.637 91.9477C38.3325 90.3187 43.8846 83.736 36.9362 70.6704L36.3045 69.5068L37.3352 70.3379C37.4681 70.4376 49.5032 80.0125 40.8925 92.0142C35.5066 99.5611 33.7446 109.269 36.4708 116.184C37.4682 118.711 38.8977 120.273 40.2941 121.271C41.7901 122.368 45.8461 120.307 45.3474 116.716C45.2809 116.251 45.0482 115.486 44.9485 114.854C44.9263 114.743 44.9042 114.633 44.882 114.522C44.7823 112.494 43.9511 110.632 42.4883 109.236C40.5268 107.341 40.1943 104.98 40.1943 104.98C42.854 109.535 46.5443 108.404 51.4647 109.369C58.0474 110.599 54.9887 115.785 54.9887 115.785C52.8943 112.062 53.7587 110.898 48.2398 111.629C46.8435 111.796 45.8129 113.026 45.9459 114.389C45.968 114.522 45.9902 114.666 46.0123 114.821C46.1121 115.419 46.2451 115.918 46.3781 116.383C46.7438 117.78 47.0097 118.777 45.8461 120.307C45.3474 120.938 45.3474 121.703 45.4472 122.268C45.5137 122.634 45.8461 122.833 46.2118 122.8L47.2425 122.6C47.5084 122.567 47.7411 122.733 47.8076 122.999C47.8741 123.365 47.9739 123.897 48.0736 124.296C48.1401 124.562 48.4393 124.728 48.7053 124.662C49.204 124.562 50.0019 124.329 50.7333 123.997C50.7333 123.997 49.8356 124.961 49.4034 125.094C49.204 125.426 49.0377 125.792 49.071 125.892C49.1042 125.925 49.2372 125.992 49.3369 126.025C49.6029 126.125 50.0019 126.258 50.0684 126.756C50.1016 126.922 50.0684 127.089 50.0351 127.321C49.9354 127.986 49.8024 128.718 50.9328 129.183C51.9634 129.582 54.0579 128.518 55.7202 127.654C60.6406 125.194 63.7657 127.621 63.7657 127.621C63.7324 127.621 59.3772 126.856 56.0194 129.782C52.4621 132.94 43.1532 137.561 38.8645 137.86H38.7315L38.665 137.761C38.2328 137.362 28.3588 127.288 25.9651 122.002C25.9318 121.902 24.4025 119.176 25.9983 116.417C26.763 115.087 29.1234 110.333 27.6606 104.681C26.5635 100.592 23.3054 97.0344 22.5407 96.2697L21.1112 97.1673C21.6763 98.3974 24.1033 104.249 22.574 108.371L22.3413 109.003L22.042 108.371C22.042 108.338 20.5792 105.113 17.7533 103.451L17.3211 104.049C17.9196 104.747 20.0805 107.573 20.2135 110.233C20.2468 111.23 20.014 112.261 19.7813 113.391C19.3159 115.552 18.7507 118.013 20.3133 120.739L20.3465 120.838C20.3798 121.005 24.8679 139.356 34.1768 147.668C35.4401 147.502 45.8129 146.205 53.7587 143.213C58.7123 141.351 62.1366 140.254 64.1314 139.689C65.428 139.323 66.8243 139.755 67.6887 140.753L69.218 142.548C66.1594 141.384 64.1314 141.351 61.6379 142.149C59.6432 142.781 57.9476 143.379 54.4901 144.676C51.8969 145.673 48.8383 146.105 45.9459 146.471C41.9896 146.97 40.959 152.389 44.5495 154.184C45.2144 154.517 45.9791 154.783 46.91 154.949C46.91 154.949 46.9765 156.378 45.4472 157.176L45.4139 157.409C45.3474 157.741 43.9844 165.787 41.4244 168.347C38.2328 171.538 34.9415 176.492 37.6676 186.566C38.266 186.632 41.0587 186.632 48.6388 181.778C57.6152 176.06 62.1366 176.958 62.3361 176.991L63.4 177.224L62.3361 177.523C62.2696 177.556 54.7228 179.817 48.9712 184.637C43.12 189.525 33.5119 191.12 33.4454 191.154L33.1462 191.187L33.1129 190.921C33.0464 190.588 32.0491 183.407 34.0106 177.789C30.9187 181.014 21.2441 191.553 13.5976 204.086C5.15312 217.917 -2.4602 237.033 9.10938 249.766C13.3316 254.387 18.4847 256.648 24.5022 256.415C46.3448 255.584 73.274 223.203 81.0203 213.329C87.2705 205.35 92.5566 202.69 94.7509 201.892C93.4875 201.659 91.26 201.46 88.9993 202.091C88.9993 202.091 99.0063 197.703 102.763 190.954C100.868 191.586 95.4158 193.514 92.8558 195.941L91.6922 197.005L92.3904 195.609C92.4237 195.542 95.9477 188.727 105.855 186.466C115.264 184.338 124.34 171.804 125.37 160.002C123.941 163.46 119.818 171.007 110.709 174.298C98.9731 178.52 91.4595 188.693 91.4595 188.693C91.4928 188.594 96.4132 176.459 110.676 169.843C125.57 162.961 129.958 145.64 125.47 133.572C120.849 121.038 126.102 113.591 130.058 111.264C127.265 111.264 119.752 112.228 117.225 122.002C115.962 126.922 116.793 130.945 117.591 134.868C118.788 140.587 119.818 145.54 113.601 151.425C103.495 160.966 101.533 169.51 101.533 169.61L101.101 171.638L100.968 169.577C100.968 169.477 100.502 159.237 109.645 150.261C117.624 142.482 113.901 128.518 112.97 125.526C111.906 127.288 108.215 133.04 102.73 137.428C95.582 143.146 93.2881 151.425 96.4797 160.102L96.8454 161.166L96.0142 160.401C95.981 160.368 91.0938 155.946 90.9941 149.496C90.8943 145.075 93.0221 140.72 97.3108 136.63C98.1752 135.81 99.0285 135.001 99.8707 134.203C111.607 123.033 119.386 115.685 111.141 104.215C105.622 96.5689 107.318 90.5514 108.814 87.6258C110.31 84.7334 112.837 82.4727 115.363 81.575C111.407 81.5085 103.096 82.4394 100.203 91.4823C98.6406 96.4027 100.303 100.193 101.899 103.85C104.159 109.069 106.287 113.957 97.1113 120.406C89.8305 125.526 85.0431 133.971 83.9459 143.512C82.8821 152.987 85.6415 162.196 91.5593 168.812L91.6257 168.879V168.979C91.6257 169.078 91.792 171.472 90.1629 174.065C90.1962 174.298 90.0964 174.93 89.897 175.827C89.7972 174.797 89.5977 174.132 89.5977 174.132L89.5313 173.999L89.631 173.899C91.0273 171.671 91.0938 169.577 91.0606 169.112C85.1096 162.396 82.3169 153.054 83.414 143.446C84.5111 133.738 89.3983 125.16 96.7789 119.974C105.589 113.757 103.628 109.269 101.367 104.083C99.8043 100.492 98.0422 96.4359 99.6713 91.3161C103.628 78.8821 117.425 81.1761 117.558 81.2093L117.524 81.7745C114.998 81.7745 111.374 83.869 109.313 87.8585C107.883 90.6844 106.254 96.5024 111.573 103.883C120.117 115.752 112.205 123.232 100.236 134.602C99.4164 135.4 98.5742 136.209 97.7098 137.029C93.554 141.019 91.4595 145.208 91.526 149.496C91.6257 154.051 94.1857 157.542 95.5488 159.104C92.8891 150.627 95.3493 142.615 102.397 136.996C108.814 131.843 112.737 124.761 112.803 124.695L113.103 124.163L113.302 124.728C113.369 124.894 119.253 141.684 110.044 150.693C103.561 157.043 101.998 164.058 101.633 167.449C102.83 164.324 105.921 157.908 113.202 151.026C119.22 145.341 118.222 140.553 117.059 134.968C116.261 131.178 115.397 126.922 116.693 121.869C119.885 109.502 131.089 110.732 131.222 110.765L132.319 110.898ZM88.8331 179.95C89.2653 178.487 89.631 176.958 89.897 175.827C90.0964 177.556 90.0632 180.315 88.6336 183.108C88.7998 182.277 88.8996 181.246 88.8331 179.95ZM43.2862 158.007C43.0535 157.509 42.588 156.977 41.7569 156.511C40.4603 155.747 39.8286 154.483 39.5626 153.386C39.3632 152.622 38.4655 152.256 37.7674 152.655L32.8802 155.447L32.7805 155.414C32.2818 155.348 20.8452 153.453 16.0578 147.269L15.9913 147.202V147.069C15.9913 147.036 16.49 143.479 12.6999 138.891C9.27562 134.702 5.25286 132.242 4.38847 131.743L2.09449 133.804L4.22224 136.098L1.82853 135.899L0.831148 137.195C1.92826 137.827 5.6518 140.154 7.28085 143.146L7.58007 143.712L6.94839 143.545C6.91515 143.545 2.85915 142.482 0.698166 143.446V144.709C1.6623 144.643 4.32197 144.543 5.18637 145.041C5.51882 145.241 5.78479 145.74 6.18374 146.405C7.11463 148.133 8.5442 150.693 12.0683 150.893H12.2345L12.301 151.026C12.3675 151.125 20.6125 163.127 29.8881 163.925C29.9546 163.958 36.0718 164.424 42.6878 160.135C43.4192 159.703 43.6851 158.772 43.2862 158.007Z" fill="white"/>
<path d="M33.6094 142.781C33.6094 142.781 34.5735 144.809 35.5044 145.308C36.402 145.807 38.0311 144.876 38.0311 144.876C38.0311 144.876 35.7039 145.108 33.6094 142.781Z" fill="white"/>
<path d="M23.9375 100.227C23.9375 100.227 24.9681 102.687 25.0346 103.95C25.1011 105.213 25.0346 107.108 25.0346 107.108C25.0346 107.108 26.7302 104.083 23.9375 100.227Z" fill="white"/>
<path d="M10.3087 143.912C9.74351 143.314 8.31394 141.685 7.84849 140.288C7.64902 139.657 7.782 138.925 8.2142 138.36C8.41368 138.094 8.77938 137.928 9.11184 137.895C9.47754 137.895 9.57728 138.26 9.84325 138.493C11.6385 140.288 13.2011 142.349 13.2011 142.349C11.3393 141.02 9.11184 138.659 9.11184 138.692C8.91236 138.958 8.44692 139.391 8.64639 140.022C9.14508 141.518 11.5055 143.945 11.5055 143.945C10.5082 146.937 12.5694 148.267 12.6027 148.267C12.6027 148.267 9.57728 147.503 10.3087 143.912Z" fill="white"/>
<path d="M47.7109 118.91C47.7109 118.91 49.7389 118.178 50.4371 116.25C50.4371 116.25 49.0075 117.214 47.7109 117.38C47.7109 117.38 48.4091 118.012 47.7109 118.91Z" fill="white"/>
</svg>
