<svg width="257" height="257" viewBox="0 0 257 257" fill="none" xmlns="http://www.w3.org/2000/svg">
<path d="M47.3583 193.434C26.7523 137.979 59.2458 108.543 90.7117 80.0582C105.206 66.9336 119.466 54.0183 127.385 38.9523C128.463 36.9031 129.172 34.6517 129.216 32.5931C129.252 31.0757 128.905 29.6677 128.029 28.5962C126.202 26.3651 123.404 25.3537 119.62 25.6318C94.5281 27.4904 72.0229 38.8266 55.231 55.6177C36.4688 74.3822 24.8608 100.308 24.8608 128.941C24.8608 153.322 33.2755 175.731 47.3583 193.434ZM207.771 87.285C211.438 108.005 210.145 129.293 203.65 149.023C196.056 172.084 182.406 185.575 171.888 195.975C163.045 204.716 156.836 210.849 160.36 218.082C164.059 225.677 169.992 224.264 176.086 221.119C185.643 216.181 194.337 209.8 201.874 202.26C220.634 183.5 232.24 157.576 232.24 128.941C232.24 100.308 220.634 74.3822 201.874 55.6177C199.685 53.4326 197.404 51.3436 195.029 49.3561C201.201 61.4334 205.468 74.2526 207.771 87.285ZM96.7749 86.7579C66.3009 114.349 34.7773 142.891 59.0795 198.13C63.6683 208.562 70.5453 222.528 78.286 230.548C67.1724 225.037 57.0904 217.761 48.4118 209.08C27.9003 188.57 15.2169 160.237 15.2169 128.941C15.2169 97.6435 27.9003 69.3108 48.4118 48.7985C68.9217 28.2885 97.2552 15.6036 128.552 15.6036C130.214 15.6036 131.867 15.6396 133.521 15.713C153.391 17.2265 170.274 31.5295 174.747 51.3413C176.262 61.3694 175.704 71.7278 172.962 81.7497C168.063 94.7587 171.358 108.431 182.845 122.791C185.732 127.419 184.762 130.514 179.967 132.078C179.967 132.078 176.862 133.743 170.66 137.076C169.14 138.002 168.167 139.627 168.075 141.408C167.979 143.187 168.767 144.901 170.178 145.994C171.382 147.31 171.126 149.865 170.238 151.406C168.221 154.901 163.465 152.272 155.986 154.003C157.309 156.453 163.015 157.112 164.955 161.225C166.508 164.531 161.306 167.53 157.775 168.478C155.09 172.286 152.302 176.378 151.793 181.027C151.472 183.989 151.058 186.934 148.677 188.73C146.288 190.521 143.107 190.847 140.402 189.576C120.926 178.252 101.739 195.525 111.251 213.628C120.876 231.937 136.909 233.972 154.958 229.236C155.766 229.024 156.566 228.802 157.361 228.574C155.242 226.843 153.467 224.644 152.202 222.053C145.838 208.99 153.963 200.961 165.54 189.519C175.365 179.811 188.111 167.212 195.035 146.19C201.054 127.896 202.248 108.123 198.839 88.8469C195.618 70.6556 188.307 52.9211 177.083 37.2866L176.594 37.0289C176.23 36.3674 175.85 35.7138 175.458 35.0718L175.316 34.8375C171.853 29.2577 167.325 24.4322 162.013 20.6298C179.439 26.0051 195.464 35.5716 208.694 48.7985C229.204 69.3108 241.889 97.6435 241.889 128.941C241.889 160.237 229.204 188.57 208.694 209.08C188.185 229.593 159.849 242.277 128.552 242.277C126.349 242.277 124.164 242.213 121.997 242.087C119.344 242.023 116.727 241.785 114.154 241.373C99.27 238.418 86.4188 229.742 78.0885 217.572C75.3473 213.368 72.9623 208.588 70.9951 203.218C67.1404 191.721 66.9865 178.836 71.6652 166.292C80.2634 143.251 102.145 124.93 121.033 110.732C136.931 98.7852 151.811 84.6564 157.979 61.6372C159.807 54.8204 161.603 30.4275 136.967 25.9574C137.919 28.0902 138.311 30.4057 138.261 32.7688C138.181 36.3315 137.076 39.9816 135.398 43.171C126.763 59.6044 111.889 73.0726 96.7749 86.7579ZM256.551 128.941C256.551 58.2487 199.243 0.941406 128.552 0.941406C57.8604 0.941406 0.550781 58.2487 0.550781 128.941C0.550781 199.632 57.8604 256.941 128.552 256.941C199.243 256.941 256.551 199.632 256.551 128.941Z" fill="url(#paint0_linear_40_5284)"/>
<defs>
<linearGradient id="paint0_linear_40_5284" x1="82.1169" y1="210.508" x2="174.984" y2="47.3751" gradientUnits="userSpaceOnUse">
<stop stop-color="#8B7053"/>
<stop offset="0.0078125" stop-color="#8B7154"/>
<stop offset="0.015625" stop-color="#8C7154"/>
<stop offset="0.0234375" stop-color="#8C7255"/>
<stop offset="0.03125" stop-color="#8D7255"/>
<stop offset="0.0390625" stop-color="#8E7356"/>
<stop offset="0.046875" stop-color="#8E7356"/>
<stop offset="0.0546875" stop-color="#8F7456"/>
<stop offset="0.0625" stop-color="#907557"/>
<stop offset="0.0703125" stop-color="#907557"/>
<stop offset="0.078125" stop-color="#917658"/>
<stop offset="0.0859375" stop-color="#927658"/>
<stop offset="0.09375" stop-color="#927759"/>
<stop offset="0.101562" stop-color="#937859"/>
<stop offset="0.109375" stop-color="#94785A"/>
<stop offset="0.117187" stop-color="#94795A"/>
<stop offset="0.125" stop-color="#95795A"/>
<stop offset="0.132812" stop-color="#967A5B"/>
<stop offset="0.140625" stop-color="#967A5B"/>
<stop offset="0.148437" stop-color="#977B5C"/>
<stop offset="0.15625" stop-color="#987C5C"/>
<stop offset="0.164062" stop-color="#987C5D"/>
<stop offset="0.171875" stop-color="#997D5D"/>
<stop offset="0.179687" stop-color="#9A7D5E"/>
<stop offset="0.1875" stop-color="#9A7E5E"/>
<stop offset="0.195312" stop-color="#9B7F5F"/>
<stop offset="0.203125" stop-color="#9C7F5F"/>
<stop offset="0.210938" stop-color="#9C805F"/>
<stop offset="0.21875" stop-color="#9D8060"/>
<stop offset="0.226562" stop-color="#9E8160"/>
<stop offset="0.234375" stop-color="#9E8261"/>
<stop offset="0.242187" stop-color="#9F8261"/>
<stop offset="0.25" stop-color="#A08362"/>
<stop offset="0.257813" stop-color="#A08362"/>
<stop offset="0.265625" stop-color="#A18463"/>
<stop offset="0.273438" stop-color="#A28463"/>
<stop offset="0.28125" stop-color="#A28564"/>
<stop offset="0.289062" stop-color="#A38664"/>
<stop offset="0.296875" stop-color="#A48664"/>
<stop offset="0.304688" stop-color="#A48765"/>
<stop offset="0.3125" stop-color="#A58765"/>
<stop offset="0.320313" stop-color="#A68866"/>
<stop offset="0.328125" stop-color="#A68966"/>
<stop offset="0.335938" stop-color="#A78967"/>
<stop offset="0.34375" stop-color="#A88A67"/>
<stop offset="0.351563" stop-color="#A88A68"/>
<stop offset="0.359375" stop-color="#A98B68"/>
<stop offset="0.367188" stop-color="#AA8B69"/>
<stop offset="0.375" stop-color="#AA8C69"/>
<stop offset="0.382812" stop-color="#AB8D69"/>
<stop offset="0.390625" stop-color="#AC8D6A"/>
<stop offset="0.398438" stop-color="#AC8E6A"/>
<stop offset="0.40625" stop-color="#AD8E6B"/>
<stop offset="0.414063" stop-color="#AE8F6B"/>
<stop offset="0.421875" stop-color="#AE906C"/>
<stop offset="0.429688" stop-color="#AF906C"/>
<stop offset="0.4375" stop-color="#B0916D"/>
<stop offset="0.445312" stop-color="#B0916D"/>
<stop offset="0.453125" stop-color="#B1926D"/>
<stop offset="0.460937" stop-color="#B2926E"/>
<stop offset="0.46875" stop-color="#B2936E"/>
<stop offset="0.476562" stop-color="#B3946F"/>
<stop offset="0.484375" stop-color="#B4946F"/>
<stop offset="0.492187" stop-color="#B49570"/>
<stop offset="0.5" stop-color="#B59570"/>
<stop offset="0.507813" stop-color="#B69671"/>
<stop offset="0.515625" stop-color="#B69771"/>
<stop offset="0.523438" stop-color="#B79772"/>
<stop offset="0.53125" stop-color="#B79872"/>
<stop offset="0.539062" stop-color="#B89872"/>
<stop offset="0.546875" stop-color="#B99973"/>
<stop offset="0.554688" stop-color="#B99973"/>
<stop offset="0.5625" stop-color="#BA9A74"/>
<stop offset="0.570312" stop-color="#BB9B74"/>
<stop offset="0.578125" stop-color="#BB9B75"/>
<stop offset="0.585937" stop-color="#BC9C75"/>
<stop offset="0.59375" stop-color="#BD9C76"/>
<stop offset="0.601563" stop-color="#BD9D76"/>
<stop offset="0.609375" stop-color="#BE9E77"/>
<stop offset="0.617188" stop-color="#BF9E77"/>
<stop offset="0.625" stop-color="#BF9F77"/>
<stop offset="0.632813" stop-color="#C09F78"/>
<stop offset="0.640625" stop-color="#C1A078"/>
<stop offset="0.648438" stop-color="#C1A079"/>
<stop offset="0.65625" stop-color="#C2A179"/>
<stop offset="0.664062" stop-color="#C3A27A"/>
<stop offset="0.671875" stop-color="#C3A27A"/>
<stop offset="0.679688" stop-color="#C4A37B"/>
<stop offset="0.6875" stop-color="#C5A37B"/>
<stop offset="0.695313" stop-color="#C5A47C"/>
<stop offset="0.703125" stop-color="#C6A57C"/>
<stop offset="0.710938" stop-color="#C7A57C"/>
<stop offset="0.71875" stop-color="#C7A67D"/>
<stop offset="0.726563" stop-color="#C8A67D"/>
<stop offset="0.734375" stop-color="#C9A77E"/>
<stop offset="0.742188" stop-color="#C9A77E"/>
<stop offset="0.75" stop-color="#CAA87F"/>
<stop offset="0.757812" stop-color="#CBA97F"/>
<stop offset="0.765625" stop-color="#CBA980"/>
<stop offset="0.773438" stop-color="#CCAA80"/>
<stop offset="0.78125" stop-color="#CDAA80"/>
<stop offset="0.789062" stop-color="#CDAB81"/>
<stop offset="0.796875" stop-color="#CEAC81"/>
<stop offset="0.804687" stop-color="#CFAC82"/>
<stop offset="0.8125" stop-color="#CFAD82"/>
<stop offset="0.820313" stop-color="#D0AD83"/>
<stop offset="0.828125" stop-color="#D1AE83"/>
<stop offset="0.835938" stop-color="#D1AE84"/>
<stop offset="0.84375" stop-color="#D2AF84"/>
<stop offset="0.851563" stop-color="#D3B085"/>
<stop offset="0.859375" stop-color="#D3B085"/>
<stop offset="0.867188" stop-color="#D4B185"/>
<stop offset="0.875" stop-color="#D5B186"/>
<stop offset="0.882812" stop-color="#D5B286"/>
<stop offset="0.890625" stop-color="#D6B387"/>
<stop offset="0.898438" stop-color="#D6B387"/>
<stop offset="0.90625" stop-color="#D7B488"/>
<stop offset="0.914062" stop-color="#D8B488"/>
<stop offset="0.921875" stop-color="#D8B589"/>
<stop offset="0.929687" stop-color="#D9B589"/>
<stop offset="0.9375" stop-color="#DAB689"/>
<stop offset="0.945313" stop-color="#DAB78A"/>
<stop offset="0.953125" stop-color="#DBB78A"/>
<stop offset="0.96875" stop-color="#DCB88B"/>
<stop offset="1" stop-color="#DCB88B"/>
</linearGradient>
</defs>
</svg>
