<svg width="257" height="207" viewBox="0 0 257 207" fill="none" xmlns="http://www.w3.org/2000/svg">
<path d="M189.849 57.9551C185.1 61.3637 180.462 64.94 175.954 68.628C170.254 55.1239 163.493 41.9924 155.745 29.6059C155.54 29.2706 155.316 28.9726 155.111 28.656C159.544 24.4092 164.182 20.2741 168.969 16.4371C173.346 12.9167 177.929 9.54538 182.566 6.37891C184.224 13.3265 185.621 20.3859 186.739 27.408C188.322 37.4848 189.365 47.7665 189.849 57.9551Z" fill="url(#paint0_linear_40_4493)"/>
<path d="M196.22 59.0898C194.879 82.7266 187.316 130.838 149.561 158.666C144.662 162.261 139.372 165.446 133.766 168.128C135.815 164.043 137.478 159.821 138.757 155.462C140.806 148.422 141.198 143.243 141.663 137.264C141.98 133.111 142.296 128.827 143.228 123.257C144.476 115.714 146.469 108.114 149.132 100.608C157.086 91.7604 165.673 83.3599 174.688 75.6486C181.542 69.8 188.769 64.2493 196.22 59.0898Z" fill="url(#paint1_linear_40_4493)"/>
<path d="M212.311 111.563C212.293 111.6 212.255 111.656 212.237 111.675C211.914 112.321 211.591 112.966 211.268 113.612C203.128 129.593 191.953 142.576 178.132 152.243C166.211 160.569 154.216 165.263 143.822 167.926C146.728 166.194 149.596 164.369 152.297 162.376C193.592 131.94 200.148 78.6319 200.968 55.8706C205.643 52.5923 210.449 49.4445 215.347 46.5574C219.147 44.3409 223.04 42.2175 226.989 40.2617C227.268 50.9346 226.691 82.0778 212.311 111.563Z" fill="url(#paint2_linear_40_4493)"/>
<path d="M256.4 113.628C250.645 126.517 240.084 143.579 221.29 156.729C212.535 162.839 203.558 167.048 194.747 169.879C194.691 169.879 194.654 169.898 194.598 169.935C173.681 176.641 153.807 175.523 140.824 173.363C152.559 170.848 166.733 165.819 180.759 156.04C195.232 145.926 206.892 132.347 215.385 115.714C215.572 115.36 215.758 115.025 215.907 114.671C225.723 112.79 235.707 112.063 245.579 112.604C249.173 112.79 252.787 113.125 256.4 113.628Z" fill="url(#paint3_linear_40_4493)"/>
<path d="M228.834 200.875C216.056 205.345 189.644 211.38 162.301 198.491C151.702 193.481 142.166 186.067 134.361 176.847C140.899 178.244 150.194 179.641 161.053 179.641C171.316 179.641 182.976 178.393 195.027 174.668C202.515 179.157 209.723 184.223 216.466 189.737C220.75 193.238 224.885 196.982 228.834 200.875Z" fill="url(#paint4_linear_40_4493)"/>
<path d="M122.402 176.847C114.598 186.067 105.08 193.499 94.4815 198.491C67.1381 211.38 40.726 205.345 27.9297 200.875C31.8785 196.982 36.0321 193.238 40.3162 189.737C47.0403 184.223 54.2673 179.157 61.7737 174.668C73.8063 178.375 85.4477 179.641 95.7294 179.641C106.589 179.641 115.883 178.244 122.402 176.847Z" fill="url(#paint5_linear_40_4493)"/>
<path d="M115.977 173.363C102.975 175.523 83.1012 176.641 62.1652 169.935C62.128 169.898 62.0721 169.879 62.0349 169.879C53.2432 167.048 44.2281 162.839 35.4924 156.729C16.6984 143.579 6.11867 126.517 0.400391 113.628C3.97664 113.125 7.60877 112.79 11.2036 112.604C21.0756 112.063 31.0593 112.79 40.8568 114.671C41.043 115.025 41.2106 115.36 41.3969 115.714C49.9091 132.347 61.5505 145.926 76.0232 156.04C90.0488 165.819 104.242 170.848 115.977 173.363Z" fill="url(#paint6_linear_40_4493)"/>
<path d="M112.941 167.926C102.566 165.263 90.5523 160.569 78.6688 152.243C64.8294 142.576 53.6722 129.593 45.4953 113.612C45.1786 112.997 44.862 112.364 44.564 111.731C44.5267 111.656 44.4895 111.582 44.4708 111.507C30.0913 82.0405 29.5139 50.9346 29.8119 40.2617C33.7235 42.2175 37.635 44.3409 41.4161 46.5574C46.3149 49.4259 51.1391 52.5737 55.7956 55.8706C56.6338 78.6319 63.1903 131.94 104.485 162.376C107.204 164.369 110.035 166.194 112.941 167.926Z" fill="url(#paint7_linear_40_4493)"/>
<path d="M172.246 71.6825C172.06 71.8315 171.874 71.9805 171.688 72.1295C162.393 80.0829 153.546 88.7628 145.406 97.8897C145.22 98.0946 145.052 98.3553 144.959 98.6347C142.09 106.532 139.967 114.56 138.682 122.495C137.713 128.269 137.359 132.87 137.061 136.93C136.633 142.649 136.242 147.585 134.323 154.16C132.889 159.077 130.877 163.845 128.381 168.39C125.886 163.845 123.893 159.077 122.458 154.16C120.54 147.585 120.167 142.649 119.739 136.93C119.404 132.87 119.068 128.269 118.118 122.495C116.796 114.56 114.673 106.532 111.823 98.6347C111.73 98.3553 111.581 98.0946 111.376 97.8897C103.255 88.7628 94.3885 80.1016 85.0939 72.1295C84.9077 71.9805 84.7214 71.8315 84.5352 71.6825C90.2348 57.9549 97.0893 44.6184 104.968 32.0457C111.934 20.8699 119.832 10.1598 128.381 0.101562C136.95 10.1598 144.847 20.8699 151.813 32.0457C159.692 44.6184 166.547 57.9549 172.246 71.6825Z" fill="url(#paint8_linear_40_4493)"/>
<path d="M101.654 28.656C101.449 28.9726 101.244 29.2706 101.039 29.6059C93.2721 41.9924 86.5108 55.1239 80.8484 68.628C76.3222 64.94 71.6842 61.3637 66.9531 57.9551C67.4002 47.7665 68.4432 37.4848 70.0451 27.408C71.1627 20.3859 72.5596 13.3265 74.2174 6.37891C78.874 9.54538 83.4188 12.9167 87.8146 16.4371C92.5829 20.2741 97.2209 24.4092 101.654 28.656Z" fill="url(#paint9_linear_40_4493)"/>
<path d="M123.017 168.128C117.43 165.446 112.14 162.261 107.222 158.666C69.4668 130.838 61.9045 82.7266 60.582 59.0898C68.0139 64.2493 75.2223 69.8 82.0768 75.6486C91.1292 83.3785 99.7159 91.779 107.632 100.608C110.314 108.114 112.326 115.732 113.537 123.257C114.468 128.827 114.785 133.111 115.12 137.264C115.586 143.243 115.977 148.422 118.026 155.462C119.292 159.802 120.987 164.049 123.017 168.128Z" fill="url(#paint10_linear_40_4493)"/>
<defs>
<linearGradient id="paint0_linear_40_4493" x1="155.115" y1="6.37779" x2="189.852" y2="6.37779" gradientUnits="userSpaceOnUse">
<stop stop-color="#CC8EF3"/>
<stop offset="1" stop-color="#6323D9"/>
</linearGradient>
<linearGradient id="paint1_linear_40_4493" x1="133.766" y1="59.0936" x2="196.223" y2="59.0936" gradientUnits="userSpaceOnUse">
<stop stop-color="#CC8EF3"/>
<stop offset="1" stop-color="#6323D9"/>
</linearGradient>
<linearGradient id="paint2_linear_40_4493" x1="143.827" y1="40.2627" x2="227.033" y2="40.2627" gradientUnits="userSpaceOnUse">
<stop stop-color="#CC8EF3"/>
<stop offset="1" stop-color="#6323D9"/>
</linearGradient>
<linearGradient id="paint3_linear_40_4493" x1="140.828" y1="112.426" x2="256.394" y2="112.426" gradientUnits="userSpaceOnUse">
<stop stop-color="#CC8EF3"/>
<stop offset="1" stop-color="#6323D9"/>
</linearGradient>
<linearGradient id="paint4_linear_40_4493" x1="134.366" y1="174.663" x2="228.836" y2="174.663" gradientUnits="userSpaceOnUse">
<stop stop-color="#CC8EF3"/>
<stop offset="1" stop-color="#6323D9"/>
</linearGradient>
<linearGradient id="paint5_linear_40_4493" x1="27.9375" y1="174.663" x2="122.409" y2="174.663" gradientUnits="userSpaceOnUse">
<stop stop-color="#CC8EF3"/>
<stop offset="1" stop-color="#6323D9"/>
</linearGradient>
<linearGradient id="paint6_linear_40_4493" x1="0.402812" y1="112.426" x2="115.969" y2="112.426" gradientUnits="userSpaceOnUse">
<stop stop-color="#CC8EF3"/>
<stop offset="1" stop-color="#6323D9"/>
</linearGradient>
<linearGradient id="paint7_linear_40_4493" x1="29.7574" y1="40.2627" x2="112.946" y2="40.2627" gradientUnits="userSpaceOnUse">
<stop stop-color="#CC8EF3"/>
<stop offset="1" stop-color="#6323D9"/>
</linearGradient>
<linearGradient id="paint8_linear_40_4493" x1="84.5324" y1="0.0991451" x2="172.24" y2="0.0991451" gradientUnits="userSpaceOnUse">
<stop stop-color="#CC8EF3"/>
<stop offset="1" stop-color="#6323D9"/>
</linearGradient>
<linearGradient id="paint9_linear_40_4493" x1="66.9455" y1="6.37779" x2="101.66" y2="6.37779" gradientUnits="userSpaceOnUse">
<stop stop-color="#CC8EF3"/>
<stop offset="1" stop-color="#6323D9"/>
</linearGradient>
<linearGradient id="paint10_linear_40_4493" x1="60.5748" y1="59.0936" x2="123.009" y2="59.0936" gradientUnits="userSpaceOnUse">
<stop stop-color="#CC8EF3"/>
<stop offset="1" stop-color="#6323D9"/>
</linearGradient>
</defs>
</svg>
