<svg width="255" height="257" viewBox="0 0 255 257" fill="none" xmlns="http://www.w3.org/2000/svg">
<path fill-rule="evenodd" clip-rule="evenodd" d="M253.756 124.943C253.234 127.491 252.466 129.989 251.552 132.455C249.461 138.106 247.306 144.066 243.942 149.113C240.692 153.979 236.168 157.98 234.486 163.794C233.523 167.125 245.248 174.98 241.508 188.764C222.14 225.132 185.755 251.049 142.969 255.883C141.869 256.002 140.77 256.111 139.67 256.209C138.984 256.264 138.293 256.318 137.596 256.373C137.553 256.373 137.498 256.378 137.433 256.389C137.074 256.411 136.709 256.432 136.339 256.454C136.067 256.476 135.789 256.492 135.506 256.503C135.408 256.503 135.315 256.509 135.228 256.52C135.174 256.52 135.125 256.52 135.081 256.52C134.461 256.552 133.84 256.579 133.22 256.601C133.209 256.601 133.198 256.601 133.187 256.601C133.067 256.612 132.947 256.618 132.828 256.618C132.501 256.628 132.18 256.639 131.864 256.65C131.483 256.661 131.107 256.667 130.737 256.667C130.356 256.677 129.975 256.683 129.594 256.683C129.224 256.694 128.859 256.699 128.5 256.699H128.418C128.005 256.699 127.591 256.694 127.177 256.683H127.128C126.78 256.683 126.431 256.677 126.083 256.667C126.061 256.667 126.04 256.667 126.018 256.667C125.974 256.667 125.931 256.667 125.887 256.667C125.876 256.667 125.865 256.667 125.854 256.667C56.3837 255.262 0.5 198.497 0.5 128.699C0.5 64.5686 47.6467 11.4775 109.164 2.15264C110.21 1.98934 111.266 1.84237 112.333 1.71172C113.084 1.61374 113.84 1.52664 114.603 1.45043C114.907 1.41777 115.212 1.38511 115.517 1.35245C115.789 1.31979 116.056 1.29257 116.317 1.27079C117.384 1.17281 118.457 1.08571 119.534 1.0095C119.807 0.987722 120.079 0.971393 120.351 0.960506C121.951 0.851635 123.563 0.78087 125.185 0.748209C125.435 0.737322 125.686 0.726433 125.936 0.715545C126.132 0.715545 126.328 0.715545 126.524 0.715545H126.54C126.595 0.715545 126.649 0.715545 126.704 0.715545C126.802 0.715545 126.883 0.699215 126.998 0.715545C127.172 0.704658 127.341 0.699219 127.504 0.699219C127.569 0.699219 127.651 0.699219 127.716 0.699219C127.847 0.699219 127.983 0.699219 128.124 0.699219C128.255 0.699219 128.386 0.699219 128.516 0.699219C128.778 0.699219 129.039 0.699219 129.3 0.699219C129.442 0.699219 129.583 0.699219 129.725 0.699219C130.128 0.710106 130.53 0.715545 130.933 0.715545C131.75 0.731876 132.583 0.715545 133.399 0.797199C162.354 1.87502 188.858 12.588 209.778 29.8168C206.512 28.7064 202.984 27.6939 199.457 26.7957C199.479 26.8174 199.49 26.8283 199.49 26.8283C193.61 25.4076 187.225 24.0194 180.824 22.8763C180.813 22.8763 180.802 22.8763 180.791 22.8763C159.43 19.0712 137.759 18.0751 132.681 28.1674C131.097 31.3029 127.194 34.4874 121.772 37.5739C102.502 48.5482 64.0427 58.3792 42.6495 60.8452C40.5755 61.0901 38.6648 61.2534 36.9501 61.3514C36.9501 61.3514 38.6322 61.6127 41.588 61.8577C51.9743 62.7395 78.0871 63.0008 104.135 52.7288C147.721 35.5326 129.235 74.6936 181.362 61.6454C180.775 62.1026 94.4995 128.454 59.2578 106.767C53.2808 103.093 47.908 100.937 43.1231 99.8755C31.6426 97.3769 20.848 102.684 15.1976 111.585C14.2994 116.729 13.8258 122.036 13.8258 127.442C13.8258 169.33 42.0126 204.637 80.4551 215.415C87.4609 217.048 95.1037 218.159 103.498 218.714L128.908 205.323C135.228 202.008 142.267 200.326 149.354 200.473C158.646 192.961 170.29 179.373 177.655 168.938C183.469 160.707 190.328 157.098 194.476 155.563C196.027 154.371 196.681 152.656 196.681 150.974C196.681 149.096 195.88 147.267 194.623 146.271C142.561 206.531 53.4931 199.95 32.7041 119.848C57.7227 152.215 88.2775 163.941 118.636 151.056C137.678 142.972 148.93 122.559 164.754 109.952C171.858 104.285 181.052 97.7852 190.606 100.627C197.318 102.619 195.864 105.706 195.864 105.706L196.207 107.012C196.261 107.056 196.321 107.094 196.387 107.126C196.387 107.126 199.751 108.514 201.498 108.008C202.086 107.829 202.886 107.502 203.736 107.224C205.352 106.685 207.116 106.375 207.737 107.894C208.684 110.18 207.214 109.625 209.223 111.16C211.231 112.679 213.779 111.062 213.403 114.132C213.028 117.219 214.53 115.602 215.918 116.37C217.306 117.153 223.332 117.594 222.679 120.713C222.026 123.833 210.137 125.956 210.692 134.807C211.248 143.674 216.702 148.41 216.702 148.41L218.09 151.954C246.163 134.072 252.646 101.819 227.366 70.5783H225.815C224.851 70.5783 223.904 70.4476 222.973 70.1537C217.11 68.3573 212.57 65.0911 208.798 60.9595C208.39 60.5185 208.88 59.8163 209.451 60.045C212.195 61.1554 214.742 61.874 216.62 61.2861C213.959 56.8115 206.103 52.7941 195.505 49.7893C195.064 49.6586 195.113 49.0381 195.554 48.9728C202.347 48.1562 225.308 47.1764 238.993 68.4063C247.191 77.8291 251.764 92.1184 253.691 104.122C254.769 110.833 255.21 118.248 253.756 124.943ZM184.106 183.097C176.757 188.731 169.18 195.965 162.549 202.334C167.449 203.379 172.168 204.751 176.463 206.531C177.182 206.107 183.175 192.895 184.106 183.097Z" fill="#1A1A1A"/>
</svg>
