<svg width="256" height="257" viewBox="0 0 256 257" fill="none" xmlns="http://www.w3.org/2000/svg">
<path d="M163.47 147.524C163.47 147.524 181.139 137.951 186.194 113.214C186.194 113.214 169.017 112.186 159.444 115.227C159.444 115.227 180.155 124.8 163.47 147.524Z" fill="#603813"/>
<path d="M233.61 142.516H234.192C234.192 142.516 248.819 144.528 245.777 124.802C243.764 111.74 230.613 110.04 222.025 110.353C217.775 110.488 214.197 113.44 213.213 117.555C209.41 133.435 195.857 174.857 154.748 190.736C189.192 192.928 216.791 198.43 232.76 202.233C244.972 184.966 253.024 164.479 255.439 142.337C244.749 157.903 216.478 155.13 216.478 155.13L217.417 153.072C220.236 146.631 226.587 142.516 233.61 142.516Z" fill="#603813"/>
<path fill-rule="evenodd" clip-rule="evenodd" d="M23.2809 201.785C8.74305 180.985 0.199219 155.711 0.199219 128.38C0.199219 64.4136 47.1229 11.4064 108.45 1.92324C108.51 2.54948 108.555 3.25026 108.585 4.02561C108.585 4.83079 108.674 5.63595 108.674 6.53058C108.629 8.27513 108.584 10.2433 108.316 12.3457C108.137 13.3746 108.092 14.4481 107.824 15.5217C107.556 16.5952 107.421 17.7135 107.019 18.8318C106.87 19.3686 106.721 19.9204 106.572 20.487C106.393 21.0685 106.124 21.6052 105.901 22.142C105.692 22.7086 105.483 23.2752 105.274 23.8418C105.006 24.3786 104.738 24.9303 104.469 25.4969C104.201 26.0337 103.932 26.6152 103.619 27.152C103.291 27.6887 102.963 28.2256 102.635 28.7623C102.322 29.2991 102.009 29.8359 101.651 30.3727C101.263 30.8796 100.876 31.4015 100.488 31.9383C100.1 32.4453 99.7127 32.9671 99.325 33.5039C98.8777 33.981 98.4304 34.4582 97.9831 34.9353L96.6411 36.4562L96.328 36.8141L95.8359 37.3508L95.0755 38.2008C94.8071 38.5139 94.5835 38.6928 94.3151 39.0954L93.4651 40.2137L92.6153 41.332L91.9443 42.4503L91.2285 43.6133L90.647 44.7763C90.4681 45.1789 90.2445 45.5815 90.0656 45.9841L89.6182 47.2366C88.3658 50.5915 87.8736 54.17 88.0973 57.4802C88.2762 60.7903 89.1262 63.8321 90.2444 66.516C91.318 69.1552 92.7047 71.4365 94.0914 73.4047C96.9543 77.2964 99.9065 79.8908 102.054 81.5011C103.127 82.3511 104.022 82.9326 104.648 83.2904C105.274 83.693 105.587 83.872 105.587 83.872C105.587 83.872 104.782 82.53 103.575 80.204C102.367 77.8779 100.667 74.5677 99.2356 70.6313C97.8042 66.6502 96.6411 61.9981 96.999 57.4354C97.0586 56.8688 97.1332 56.3022 97.2227 55.7356C97.3121 55.1988 97.3568 54.6173 97.5358 54.0806C97.7147 53.5438 97.8041 52.9622 98.0277 52.4254C98.2514 51.8887 98.3857 51.3519 98.6541 50.8598L99.0119 50.0547L99.4593 49.2942L99.8618 48.4891L100.354 47.7734L100.846 47.0129L101.383 46.3419L101.875 45.671C102.009 45.4473 102.322 45.1342 102.546 44.8658L103.932 43.3002L105.543 41.4214C106.079 40.7952 106.601 40.169 107.108 39.5427C107.556 38.827 108.018 38.1262 108.495 37.4403C108.913 36.7544 109.345 36.0685 109.792 35.3826C110.195 34.7116 110.508 33.9512 110.866 33.2355C111.224 32.49 111.582 31.7594 111.939 31.0437C112.208 30.3279 112.431 29.5675 112.7 28.8071C112.938 28.0615 113.177 27.3309 113.416 26.6152C113.594 25.8548 113.729 25.0943 113.908 24.3786C114.042 23.6182 114.176 22.9024 114.265 22.1867C114.355 21.4412 114.429 20.7106 114.489 19.9949C114.623 18.6082 114.579 17.2215 114.489 15.9243C114.489 14.5823 114.265 13.3298 114.131 12.1221C114.042 11.5406 113.908 10.959 113.773 10.3775C113.654 9.84073 113.52 9.30396 113.371 8.76718C113.102 7.69361 112.745 6.70952 112.476 5.81489C112.118 4.92025 111.76 4.08527 111.403 3.30991C111.104 2.68367 110.821 2.11704 110.553 1.61008C114.25 1.10312 118.008 0.745255 121.825 0.536507C121.87 3.22042 121.78 6.39638 121.423 9.93019C120.886 14.9849 119.723 20.6659 117.576 26.3021C116.994 27.6888 116.413 29.1202 115.742 30.5068C115.071 31.8935 114.31 33.2355 113.55 34.6222C112.745 35.9642 111.85 37.2614 110.955 38.6034C110.508 39.2743 110.016 39.8558 109.524 40.5268L107.869 42.7187L107.108 43.7922L106.214 45.2236L105.408 46.6103L104.693 47.997L103.977 49.3837C103.798 49.831 103.619 50.3231 103.44 50.8151L102.859 52.2466L102.411 53.7227C102.277 54.2147 102.098 54.6621 102.009 55.1541L101.651 56.675C101.427 57.6591 101.338 58.6432 101.204 59.6273C100.98 61.5955 100.891 63.5637 101.025 65.4425C101.159 69.2447 101.964 72.7785 103.038 75.9544C104.067 79.1304 105.453 81.9485 106.84 84.4087C109.703 89.2845 112.834 92.7736 115.115 95.0102C116.278 96.1285 117.262 96.9337 117.933 97.4705C118.604 98.0072 119.007 98.2756 119.007 98.2756C119.007 98.2756 118.783 97.8283 118.426 97.0679C118.068 96.3074 117.576 95.1444 116.994 93.713C115.786 90.8501 114.131 86.7795 112.789 81.859C112.118 79.3988 111.537 76.7596 111.179 73.9862C110.776 71.2576 110.642 68.35 110.866 65.4872C111.045 64.0558 111.179 62.6243 111.492 61.2377C111.671 60.5219 111.805 59.8062 112.029 59.1352L112.342 58.0617C112.431 57.7486 112.566 57.3907 112.7 57.0329L113.058 56.0488L113.55 55.0199L113.997 54.0358L114.489 53.0517L115.026 52.0676L115.563 51.2177L116.099 50.3231L116.905 49.2942L118.381 47.1918C118.962 46.3867 119.544 45.6262 120.081 44.821C121.154 43.2107 122.094 41.5109 122.988 39.7664C123.883 38.0666 124.643 36.322 125.314 34.5327C125.985 32.7882 126.567 30.9989 126.969 29.2097C127.864 25.6758 128.311 22.1867 128.401 18.8766C128.49 15.5664 128.267 12.4799 127.819 9.70654C127.282 6.08326 126.343 2.95206 125.404 0.402344C126.328 0.402344 127.253 0.402344 128.177 0.402344C192.546 0.402344 245.822 47.9076 254.858 109.772C253.113 107.222 251.1 105.209 249.087 103.688C244.435 100.199 238.709 98.5887 232.939 98.5887H212.094C207.218 98.5887 203.058 102.033 202.208 106.819C198.182 128.827 181.587 186.889 118.023 182.371C65.1947 178.614 45.2442 147.928 37.9082 128.38C34.2402 118.673 24.9359 112.187 14.5134 112.187C14.5134 112.187 28.3356 172.799 83.8478 191.541C64.3447 193.331 43.947 196.551 23.2809 201.785ZM42.2919 117.242C42.2919 117.242 67.5654 181.879 126.611 174.812C185.702 167.744 192.278 108.161 192.278 108.161C192.278 108.161 177.606 93.534 129.161 122.297C80.6718 151.059 42.2919 117.242 42.2919 117.242Z" fill="#603813"/>
<path d="M26.5908 206.258C49.9856 236.765 86.7999 256.402 128.177 256.402C169.599 256.402 206.413 236.765 229.808 206.258H26.5908Z" fill="#A87C4F"/>
</svg>
