<svg width="257" height="217" viewBox="0 0 257 217" fill="none" xmlns="http://www.w3.org/2000/svg">
<path d="M102.425 5.41016C102.425 5.41016 102.665 5.69072 103.146 6.29193C103.547 6.89314 104.189 7.77491 104.87 8.97733C105.217 9.5919 105.578 10.2733 105.952 11.0214C106.273 11.783 106.633 12.6247 106.994 13.5465C107.315 14.4684 107.636 15.4704 107.916 16.5125C108.05 17.0736 108.183 17.6348 108.317 18.1959C108.477 18.757 108.597 19.3582 108.678 19.9594C108.838 21.1619 109.078 22.4444 109.078 23.7671C109.118 25.1298 109.159 26.5327 109.038 27.9355C108.985 28.6569 108.918 29.3917 108.838 30.1399C108.758 30.8614 108.557 31.6229 108.437 32.3444C108.277 33.1059 108.157 33.8674 107.956 34.6289C107.716 35.3771 107.475 36.1253 107.235 36.8735C106.954 37.5949 106.754 38.3965 106.433 39.1581C106.086 39.8795 105.738 40.601 105.391 41.3224C105.03 42.084 104.71 42.8455 104.309 43.5669C103.855 44.2617 103.4 44.9564 102.946 45.6511C102.492 46.3459 102.038 47.0406 101.583 47.7353C101.049 48.3766 100.515 49.0179 99.9801 49.6592L98.3368 51.543L96.9741 53.1462C96.7336 53.4268 96.4129 53.7474 96.2526 53.9879L95.7315 54.6292L95.2105 55.3106L94.7295 56.0721L94.2486 56.8336L93.8077 57.6352L93.3668 58.3968L93.006 59.1984C92.7255 59.7194 92.5652 60.2806 92.3648 60.8417C92.1644 61.3627 92.0442 61.9239 91.8839 62.485C91.6835 63.0461 91.6433 63.6073 91.5231 64.1684C91.4429 64.7562 91.3761 65.3307 91.3227 65.8919C90.962 70.5011 92.1243 75.2307 93.5672 79.2387C95.0502 83.2869 96.7336 86.6536 97.9761 88.9783C99.2186 91.3431 100.02 92.6657 100.02 92.6657C100.02 92.6657 99.6995 92.5054 99.0582 92.1046C98.457 91.7439 97.4951 91.1427 96.4129 90.301C94.2485 88.6577 91.2425 86.0123 88.3968 82.0444C86.9539 80.0804 85.5912 77.7557 84.469 75.0703C83.3467 72.3849 82.505 69.2987 82.2645 65.9319C82.0641 62.5652 82.5451 58.9579 83.8276 55.5511L84.3086 54.3085C84.4689 53.8677 84.6694 53.4669 84.8698 53.066L85.471 51.8636L86.1924 50.7013L86.8738 49.579L87.7154 48.4167L88.5972 47.2944C88.8777 46.8936 89.1183 46.6932 89.3588 46.3726L90.1203 45.5309L90.6413 44.9698L90.962 44.609L92.3247 43.086C92.7656 42.605 93.2065 42.0839 93.6474 41.603C94.0482 41.0686 94.449 40.5475 94.8498 40.0398C95.2239 39.5054 95.6113 38.971 96.0121 38.4366C96.3728 37.9156 96.6935 37.3544 97.0542 36.7933C97.3749 36.2589 97.7089 35.7245 98.0562 35.1901C98.3368 34.6289 98.5773 34.0678 98.898 33.5067C99.1652 32.9456 99.4324 32.3844 99.6996 31.8233C99.9133 31.2622 100.127 30.7011 100.341 30.1399C100.581 29.5387 100.822 29.0177 100.982 28.4164C101.142 27.8553 101.316 27.2942 101.503 26.7331C101.864 25.6108 102.024 24.4885 102.305 23.3663C102.585 22.2841 102.625 21.2019 102.786 20.1598C103.066 18.0356 103.106 16.0716 103.146 14.268C103.146 13.3862 103.066 12.5445 103.066 11.7429C103.013 10.968 102.973 10.2466 102.946 9.57854C102.866 8.93725 102.799 8.3494 102.746 7.815C102.692 7.30731 102.639 6.87978 102.585 6.53242C102.465 5.81096 102.425 5.41016 102.425 5.41016Z" fill="#3B2314"/>
<path d="M116.013 0C116.013 0 116.294 0.360725 116.734 1.08218C117.175 1.84371 117.857 2.92589 118.578 4.40887C119.981 7.37484 121.664 11.8238 122.586 17.4752C123.027 20.3209 123.268 23.4472 123.147 26.814C123.067 30.1406 122.626 33.7078 121.704 37.275C121.264 39.0786 120.702 40.8823 120.021 42.6859C119.38 44.4895 118.578 46.2531 117.696 48.0166C116.774 49.7401 115.813 51.4636 114.69 53.1069C114.169 53.9085 113.568 54.7101 113.007 55.5117L111.484 57.5959L110.682 58.6781L110.161 59.5999L109.6 60.4416L109.079 61.4436L108.518 62.4456L108.077 63.4477L107.596 64.4497L107.235 65.4918C107.115 65.8525 106.955 66.2132 106.875 66.5339L106.554 67.6161C106.313 68.2974 106.193 69.0189 106.033 69.7403C105.712 71.1832 105.552 72.6261 105.392 74.069C105.151 76.9548 105.311 79.8807 105.672 82.6864C106.073 85.492 106.634 88.1774 107.316 90.6624C108.678 95.6324 110.362 99.8008 111.564 102.687C112.205 104.13 112.686 105.292 113.047 106.093C113.408 106.855 113.608 107.296 113.608 107.296C113.608 107.296 113.247 107.015 112.566 106.494C111.885 105.933 110.883 105.132 109.72 103.969C107.356 101.725 104.189 98.1976 101.303 93.2276C99.8605 90.7426 98.4977 87.8969 97.4156 84.6904C96.3334 81.4439 95.5318 77.8767 95.3715 74.029C95.2913 72.1051 95.3314 70.1011 95.5719 68.097C95.6921 67.095 95.8124 66.093 96.0529 65.091L96.3735 63.608C96.4938 63.0869 96.654 62.606 96.8143 62.125L97.2553 60.642L97.8164 59.159C98.0168 58.6781 98.2172 58.1971 98.4176 57.7161L99.099 56.3133L99.8204 54.9105L100.662 53.5077L101.544 52.0648L102.345 50.9826L104.029 48.7381C104.51 48.0968 105.031 47.4555 105.472 46.7741C106.394 45.4515 107.275 44.1288 108.077 42.7661C108.879 41.3632 109.64 40.0005 110.322 38.5977C111.003 37.1948 111.604 35.7519 112.165 34.3491C114.37 28.6176 115.532 22.846 116.053 17.7156C116.614 12.5853 116.534 8.13637 116.374 4.97C116.294 3.40685 116.253 2.16436 116.133 1.32266C116.053 0.440888 116.013 0 116.013 0Z" fill="#3B2314"/>
<path d="M7.71484 121.405C18.256 121.405 27.6749 127.978 31.4024 137.838C38.8574 157.638 59.058 188.781 112.646 192.588C177.095 197.157 193.929 138.279 197.977 115.954C198.859 111.104 203.067 107.617 207.997 107.617H229.16C235.012 107.617 240.823 109.26 245.513 112.788C251.405 117.196 257.016 125.253 255.974 139.842C253.93 169.021 212.486 164.933 212.486 164.933L213.408 162.848C216.254 156.355 222.707 152.147 229.801 152.147H230.402C230.402 152.147 245.232 154.191 242.186 134.231C240.142 120.964 226.795 119.2 218.058 119.521C213.769 119.681 210.122 122.647 209.12 126.816C204.35 147.016 183.949 207.859 112.646 207.418C27.1539 206.897 7.71484 121.405 7.71484 121.405Z" fill="#603813"/>
<path fill-rule="evenodd" clip-rule="evenodd" d="M187.917 117.315C187.917 117.315 181.264 177.717 121.343 184.891C61.4631 192.066 35.8516 126.534 35.8516 126.534C35.8516 126.534 74.7698 160.843 123.909 131.664C173.047 102.485 187.917 117.315 187.917 117.315ZM181.745 122.446C181.745 122.446 164.35 121.403 154.61 124.49C154.61 124.49 175.612 134.229 158.738 157.236C158.738 157.236 176.655 147.536 181.745 122.446Z" fill="#603813"/>
<path d="M0.0996094 216.798H244.19C244.19 216.798 125.111 179.082 0.0996094 216.798Z" fill="#603813"/>
</svg>
