<svg width="257" height="257" viewBox="0 0 257 257" fill="none" xmlns="http://www.w3.org/2000/svg">
<path d="M129.125 209.744C129.31 209.606 129.495 209.467 129.68 209.328C129.864 209.174 130.065 209.02 130.281 208.866C131.113 208.219 132.13 207.386 133.193 206.323C133.748 205.799 134.303 205.213 134.858 204.566C134.981 204.412 135.12 204.258 135.274 204.104C135.428 203.919 135.567 203.749 135.69 203.595C135.967 203.225 136.245 202.855 136.522 202.486C137.077 201.746 137.632 200.96 138.14 200.081C138.664 199.218 139.142 198.294 139.574 197.307C140.498 195.412 141.238 193.239 141.747 190.973C142.024 189.833 142.224 188.662 142.348 187.459C142.502 186.257 142.594 185.04 142.625 183.807C142.671 181.356 142.44 178.86 142.024 176.409C141.808 175.207 141.531 174.005 141.192 172.803C141.038 172.187 140.853 171.586 140.637 171L140.545 170.769V170.676L140.498 170.584L140.452 170.491L140.313 170.121C140.19 169.844 140.067 169.567 139.944 169.289C139.851 169.058 139.759 168.781 139.666 168.503L139.527 168.087L139.481 167.902L139.435 167.717C139.296 167.162 139.111 166.608 139.019 166.053C138.957 165.775 138.896 165.498 138.834 165.221C138.803 164.943 138.757 164.666 138.695 164.388C138.695 164.265 138.68 164.142 138.649 164.019C138.618 163.864 138.603 163.726 138.603 163.602C138.572 163.325 138.541 163.048 138.51 162.77C138.51 162.647 138.51 162.508 138.51 162.354C138.51 162.231 138.495 162.092 138.464 161.938C138.464 161.661 138.464 161.383 138.464 161.152C138.464 160.875 138.464 160.597 138.464 160.32C138.464 160.196 138.464 160.073 138.464 159.95C138.464 159.796 138.464 159.657 138.464 159.534C138.495 159.256 138.51 158.994 138.51 158.748C138.541 158.47 138.572 158.208 138.603 157.962C138.603 157.684 138.649 157.453 138.695 157.176C138.726 156.929 138.757 156.683 138.788 156.436C139.065 154.402 139.527 152.506 139.99 150.795C140.082 150.58 140.159 150.364 140.221 150.148C140.283 149.932 140.344 149.732 140.406 149.547C140.468 149.331 140.529 149.116 140.591 148.9C140.652 148.715 140.73 148.53 140.822 148.345C140.945 147.944 141.069 147.559 141.192 147.189C141.346 146.819 141.485 146.465 141.608 146.126C142.163 144.785 142.718 143.629 143.18 142.658C143.642 141.687 144.012 140.948 144.29 140.485C144.567 139.977 144.706 139.699 144.706 139.699C144.706 139.699 144.521 139.93 144.197 140.393C143.873 140.855 143.365 141.549 142.81 142.473C142.255 143.352 141.562 144.461 140.914 145.802C140.221 147.143 139.481 148.669 138.834 150.426C138.233 152.136 137.632 154.078 137.216 156.159C137.154 156.436 137.108 156.698 137.077 156.945C137.031 157.222 136.985 157.499 136.938 157.777C136.907 158.023 136.877 158.285 136.846 158.563C136.815 158.84 136.784 159.118 136.753 159.395C136.753 159.549 136.738 159.703 136.707 159.857C136.707 159.981 136.707 160.119 136.707 160.274C136.676 160.551 136.661 160.828 136.661 161.106C136.661 161.429 136.661 161.707 136.661 161.984C136.661 162.138 136.661 162.292 136.661 162.447C136.661 162.57 136.661 162.709 136.661 162.863C136.692 163.171 136.707 163.464 136.707 163.741C136.707 163.895 136.723 164.049 136.753 164.203C136.784 164.358 136.8 164.512 136.8 164.666C136.83 164.943 136.861 165.236 136.892 165.544C136.954 165.853 137.015 166.145 137.077 166.423C137.169 167.024 137.354 167.625 137.493 168.226L137.539 168.457L137.632 168.688L137.771 169.104C137.863 169.428 137.955 169.705 138.048 170.029C138.171 170.306 138.295 170.599 138.418 170.907L138.556 171.324C138.603 171.324 138.556 171.231 138.556 171.324L138.603 171.37V171.462L138.695 171.647C138.88 172.202 139.05 172.772 139.204 173.358C139.512 174.468 139.759 175.608 139.944 176.779C140.36 179.137 140.591 181.495 140.591 183.807C140.591 184.393 140.575 184.963 140.545 185.518C140.514 185.826 140.498 186.119 140.498 186.396C140.468 186.673 140.437 186.966 140.406 187.274C140.313 188.384 140.159 189.494 139.944 190.603C139.527 192.776 138.926 194.811 138.14 196.706C137.77 197.662 137.354 198.556 136.892 199.388C136.476 200.266 135.967 201.052 135.505 201.838C135.274 202.208 135.043 202.578 134.812 202.902C134.688 203.087 134.565 203.272 134.442 203.457C134.318 203.611 134.195 203.78 134.072 203.965C133.579 204.612 133.101 205.213 132.639 205.768C131.668 206.878 130.789 207.803 130.003 208.542C129.633 208.912 129.294 209.236 128.986 209.513C128.678 209.821 128.416 210.068 128.2 210.253C127.784 210.623 127.553 210.808 127.553 210.808C127.553 210.808 127.784 210.623 128.292 210.345C128.508 210.161 128.786 209.96 129.125 209.744Z" fill="#603813"/>
<path d="M92.6909 202.346C91.7354 201.667 90.7337 201.036 89.6857 200.45C88.6069 199.864 87.4972 199.34 86.3568 198.878C84.0913 197.907 81.6871 197.167 79.2367 196.612C78.0038 196.335 76.7709 196.119 75.538 195.965C74.9215 195.904 74.2896 195.857 73.6423 195.826H73.4111H73.2725L73.2262 195.78H73.18H73.1337H72.6714C72.394 195.811 72.1166 195.826 71.8392 195.826C71.5156 195.78 71.2381 195.78 70.9607 195.78L70.5446 195.734H70.3134L70.0823 195.688C69.5275 195.595 68.9727 195.595 68.4178 195.457C68.1404 195.395 67.863 195.349 67.5856 195.318C67.3082 195.225 67.0308 195.148 66.7534 195.087C66.6301 195.056 66.5068 195.025 66.3835 194.994C66.2294 194.963 66.0907 194.933 65.9674 194.902C65.69 194.809 65.428 194.717 65.1814 194.624C65.0273 194.594 64.8886 194.563 64.7653 194.532C64.642 194.47 64.5187 194.424 64.3954 194.393C64.118 194.301 63.8869 194.208 63.6094 194.116C63.3629 193.993 63.1163 193.885 62.8697 193.792C62.7464 193.731 62.6231 193.669 62.4998 193.607C62.3765 193.576 62.2533 193.53 62.13 193.469C61.8834 193.345 61.6368 193.237 61.3902 193.145C61.1744 193.022 60.9432 192.898 60.6967 192.775C60.4655 192.636 60.2343 192.544 60.0031 192.405C59.7874 192.282 59.5562 192.159 59.3096 192.035C57.5527 190.972 55.9808 189.862 54.5475 188.753C54.3626 188.598 54.1931 188.46 54.0389 188.337C53.854 188.182 53.6844 188.044 53.5303 187.92C53.3454 187.766 53.1759 187.628 53.0218 187.504C52.8676 187.35 52.7135 187.211 52.5594 187.088C52.2512 186.811 51.9429 186.549 51.6347 186.302C51.3573 186.025 51.0799 185.763 50.8025 185.516C49.7391 184.499 48.8607 183.574 48.1671 182.788C47.4274 182.002 46.8726 181.355 46.5489 180.893C46.1791 180.477 45.9941 180.199 45.9941 180.199C45.9941 180.199 46.1328 180.477 46.4565 180.985C46.7339 181.448 47.1962 182.187 47.8435 183.02C48.4446 183.898 49.2305 184.915 50.2477 186.071C51.2186 187.181 52.3745 188.429 53.7615 189.677C55.1023 190.926 56.6743 192.174 58.5237 193.33C58.7394 193.484 58.9552 193.638 59.171 193.792C59.4021 193.931 59.6333 194.07 59.9107 194.208C60.1265 194.332 60.3576 194.47 60.6042 194.624C60.8508 194.748 61.0974 194.871 61.3439 194.994C61.4981 195.056 61.6368 195.118 61.7601 195.179C61.8834 195.241 62.0067 195.302 62.13 195.364C62.4074 195.487 62.6693 195.611 62.9159 195.734C63.1933 195.873 63.4708 195.965 63.7482 196.058C63.8715 196.119 64.0101 196.181 64.1642 196.243C64.2875 196.304 64.4262 196.35 64.5804 196.381C64.8578 196.474 65.1352 196.566 65.4126 196.659C65.5359 196.72 65.6746 196.767 65.8287 196.797C65.9828 196.859 66.137 196.905 66.2911 196.936C66.5685 197.029 66.8612 197.106 67.1695 197.167C67.4469 197.229 67.7397 197.291 68.0479 197.352C68.649 197.491 69.25 197.583 69.8973 197.676L70.1285 197.722H70.3597L70.822 197.768C71.0994 197.768 71.4231 197.815 71.7467 197.815C72.0549 197.815 72.3786 197.83 72.7176 197.861H73.18C73.18 197.861 73.0875 197.861 73.1337 197.861H73.18H73.2262H73.3187H73.5498C74.1047 197.892 74.6749 197.953 75.2605 198.046C76.4626 198.2 77.6339 198.4 78.7744 198.647C81.1323 199.155 83.3978 199.849 85.5708 200.727C86.1256 200.943 86.665 201.174 87.189 201.421C87.4356 201.544 87.6976 201.667 87.975 201.791C88.2216 201.914 88.4682 202.053 88.7148 202.207C89.7319 202.731 90.7182 203.286 91.6737 203.871C93.5231 205.073 95.2338 206.414 96.7133 207.847C97.453 208.556 98.1312 209.281 98.7476 210.02C99.3949 210.714 99.9497 211.454 100.458 212.193C100.736 212.563 101.013 212.933 101.244 213.257C101.368 213.442 101.475 213.627 101.568 213.812C101.691 213.997 101.799 214.166 101.892 214.32C102.323 215.029 102.724 215.707 103.094 216.355C103.741 217.649 104.296 218.805 104.666 219.776C104.881 220.269 105.066 220.716 105.22 221.117C105.344 221.487 105.452 221.81 105.544 222.088C105.729 222.642 105.868 222.92 105.868 222.92C105.868 222.92 105.775 222.642 105.683 222.088C105.621 221.779 105.544 221.425 105.452 221.024C105.405 220.839 105.359 220.608 105.267 220.377C105.205 220.161 105.143 219.93 105.082 219.683C104.758 218.62 104.388 217.372 103.787 216.031C103.51 215.322 103.186 214.598 102.816 213.858C102.724 213.673 102.616 213.473 102.493 213.257C102.4 213.072 102.292 212.887 102.169 212.702C101.984 212.286 101.753 211.916 101.475 211.5C101.013 210.76 100.458 209.928 99.8573 209.142C99.2408 208.341 98.5627 207.539 97.8229 206.738C96.3434 205.166 94.6328 203.686 92.6909 202.346Z" fill="#603813"/>
<path fill-rule="evenodd" clip-rule="evenodd" d="M256.5 128.879C256.5 199.618 199.216 256.902 128.477 256.902C57.7845 256.902 0.5 199.618 0.5 128.879C0.5 58.1868 57.7845 0.902344 128.477 0.902344C199.216 0.902344 256.5 58.1868 256.5 128.879ZM136.66 103.635C136.66 103.635 136.66 103.651 136.66 103.681L136.799 105.577V106.317C136.845 107.38 136.892 108.444 136.845 109.599V109.877C137.277 109.908 137.724 109.923 138.186 109.923L140.683 109.969C141.515 110.016 142.347 110.016 143.133 110.062L148.127 110.339L153.12 110.802L154.368 110.894C154.769 110.956 155.185 111.017 155.616 111.079L158.067 111.403L160.564 111.726L163.014 112.142L165.464 112.558L166.713 112.743L167.961 113.021L172.862 114.038L177.717 115.286L178.919 115.61C179.319 115.733 179.72 115.857 180.121 115.98L182.525 116.72L184.929 117.459L185.068 117.506H185.114C185.207 117.552 185.068 117.506 185.068 117.506H185.16L185.391 117.644L185.946 117.875C186.316 118.06 186.686 118.245 187.056 118.43C188.489 119.216 189.83 120.095 191.078 121.158C192.327 122.221 193.436 123.424 194.268 124.811C195.147 126.198 195.702 127.816 195.84 129.48C195.979 127.816 195.702 126.059 195.008 124.441C194.361 122.823 193.344 121.389 192.142 120.095C190.986 118.8 189.645 117.644 188.212 116.581C187.842 116.334 187.472 116.088 187.102 115.841L186.501 115.517L186.224 115.333L186.131 115.286L185.992 115.24L185.854 115.148L183.496 114.13C180.398 112.697 177.116 111.588 173.879 110.432L168.978 108.906L167.73 108.536L166.482 108.212L163.985 107.565L161.442 106.964L158.945 106.456L156.402 105.947C155.971 105.854 155.539 105.762 155.108 105.67L153.86 105.485C152.149 105.207 150.438 104.93 148.728 104.699L143.596 104.144C141.885 103.959 140.128 103.866 138.417 103.728C137.832 103.697 137.246 103.666 136.66 103.635ZM115.208 59.8975V61.4232C115.208 61.9318 115.161 62.4866 115.254 62.9489L115.531 66.0004C115.578 67.0175 115.809 68.0347 115.947 69.0056L116.502 72.0109C116.733 72.9818 117.011 73.9527 117.288 74.9699C117.566 75.9408 117.797 76.9117 118.074 77.8827L119.091 80.703C119.461 81.6739 119.785 82.5985 120.155 83.5695V83.6157L120.34 83.9394L120.663 84.5867L121.033 85.3264C121.249 85.8196 121.48 86.3282 121.727 86.8522C122.158 87.8693 122.574 88.9019 122.975 89.9498C123.407 90.9978 123.792 92.0612 124.131 93.14C124.455 94.2496 124.824 95.313 125.148 96.3764C125.456 97.4552 125.734 98.5494 125.98 99.6591C126.134 100.214 126.273 100.769 126.396 101.323C126.489 101.878 126.628 102.433 126.72 102.988C126.936 104.067 127.121 105.176 127.275 106.317C127.429 107.426 127.552 108.536 127.645 109.646L127.737 110.524L127.783 111.356C127.83 111.911 127.876 112.466 127.876 113.021L127.922 114.731C127.922 115.286 127.876 115.841 127.876 116.442C127.876 116.997 127.83 117.552 127.783 118.107C127.783 118.708 127.737 119.262 127.691 119.817L127.506 121.528C127.46 122.083 127.367 122.638 127.275 123.239L127.136 124.071L126.997 124.903L126.674 126.614C126.35 127.723 126.165 128.879 125.795 129.989C125.61 130.544 125.472 131.145 125.287 131.7L124.732 133.364C124.593 133.641 124.547 133.965 124.408 134.242L124.085 135.028C123.869 135.614 123.653 136.184 123.437 136.739C123.838 136.277 124.239 135.814 124.639 135.352L125.241 134.659C125.425 134.412 125.595 134.165 125.749 133.919L126.812 132.439C127.182 131.931 127.46 131.376 127.783 130.867C128.122 130.343 128.431 129.804 128.708 129.249C128.985 128.725 129.263 128.186 129.54 127.631L130.28 125.92C130.403 125.643 130.527 125.35 130.65 125.042L130.974 124.163C131.158 123.608 131.39 123.007 131.575 122.406L132.129 120.603C132.314 120.002 132.407 119.401 132.546 118.8L132.777 117.875C132.823 117.552 132.869 117.274 132.915 116.951C133.008 116.35 133.147 115.702 133.239 115.101L133.47 113.252C133.516 112.605 133.516 112.004 133.563 111.356L133.655 110.432V109.461C133.701 108.212 133.655 106.964 133.609 105.716L133.516 103.866C133.47 103.219 133.378 102.618 133.285 101.971C133.239 101.37 133.147 100.722 133.054 100.121C132.962 99.505 132.854 98.8885 132.73 98.272C132.638 97.6556 132.515 97.0391 132.361 96.4227C132.268 95.8216 132.129 95.2205 131.944 94.6195C131.806 94.0185 131.667 93.3712 131.482 92.7701C131.343 92.1691 131.158 91.5681 130.974 91.0133C130.604 89.8112 130.188 88.6244 129.725 87.4532C129.509 86.8675 129.294 86.2819 129.078 85.6963C128.831 85.1107 128.585 84.525 128.338 83.9394C128.061 83.3845 127.783 82.8143 127.506 82.2287L127.09 81.3965C126.951 81.1653 126.859 80.9341 126.72 80.703C126.396 79.8707 126.073 79.0385 125.749 78.2525L124.686 75.6634L123.761 73.028C123.484 72.1496 123.16 71.2711 122.883 70.3927L122.143 67.7111L121.773 66.3703C121.634 65.9079 121.588 65.4918 121.495 65.0295L120.894 62.3479C120.802 61.8856 120.756 61.4232 120.71 60.9609L120.478 59.6201L120.293 58.233C120.247 57.7707 120.247 57.3083 120.201 56.846L120.108 55.5052C120.062 55.0428 120.016 54.5805 120.016 54.1182C120.062 53.1935 120.016 52.2688 120.016 51.3441L120.247 48.57L120.432 47.183C120.525 46.7206 120.525 46.2583 120.663 45.796C120.848 44.9175 121.033 43.9466 121.311 43.0681C121.542 42.1434 121.865 41.265 122.189 40.3403C122.559 39.4618 122.929 38.5834 123.437 37.7512C122.651 38.3522 122.004 39.0919 121.357 39.8779C121.033 40.2478 120.756 40.664 120.432 41.0801C120.108 41.4962 119.877 41.9123 119.6 42.3284C119.045 43.2068 118.629 44.0853 118.213 45.01C117.75 45.9347 117.427 46.9056 117.057 47.8765C116.733 48.8474 116.502 49.8184 116.225 50.7893C115.994 51.8065 115.809 52.7774 115.624 53.7945C115.531 54.3031 115.485 54.8117 115.439 55.3202L115.3 56.846C115.254 57.3546 115.208 57.8631 115.208 58.3717V59.8975ZM95.0494 50.327V51.8527C95.0494 52.3612 95.0494 52.9161 95.0956 53.4246L95.373 56.4299C95.4193 57.447 95.6504 58.4642 95.8354 59.4351L96.344 62.4404C96.6214 63.4113 96.8988 64.3822 97.13 65.3994C97.4074 66.3703 97.6386 67.3412 97.9622 68.3121L98.9793 71.1324C99.303 72.1034 99.6266 73.028 99.9965 73.999V74.0452L100.181 74.3689L100.505 75.0161L100.875 75.7559C101.122 76.2491 101.353 76.7576 101.568 77.2816C102 78.2988 102.416 79.3314 102.817 80.3793C103.248 81.4273 103.634 82.4907 103.973 83.5695C104.343 84.6791 104.666 85.7425 104.99 86.8059C105.298 87.8847 105.591 88.9789 105.868 90.0886C105.992 90.6434 106.115 91.1982 106.238 91.753C106.331 92.3078 106.469 92.8626 106.562 93.4174C106.778 94.527 106.962 95.6366 107.117 96.7463C107.271 97.8559 107.394 98.9656 107.486 100.075L107.579 100.954L107.625 101.786C107.671 102.341 107.718 102.895 107.718 103.45L107.764 105.161C107.764 105.716 107.718 106.271 107.718 106.872C107.718 107.426 107.671 107.981 107.671 108.536C107.625 109.137 107.625 109.692 107.533 110.247L107.348 111.957C107.302 112.512 107.209 113.067 107.117 113.668L106.978 114.5L106.839 115.333L106.516 117.043C106.192 118.153 106.007 119.309 105.637 120.418C105.452 120.973 105.313 121.574 105.129 122.129L104.574 123.793C104.481 124.071 104.389 124.394 104.25 124.672L103.926 125.458C103.711 126.044 103.51 126.614 103.325 127.169C103.695 126.706 104.081 126.244 104.481 125.782L105.082 125.088C105.267 124.841 105.452 124.595 105.637 124.348L106.7 122.869C107.024 122.36 107.348 121.805 107.671 121.297C107.98 120.773 108.272 120.233 108.55 119.679C108.858 119.155 109.151 118.615 109.428 118.06L110.168 116.35C110.291 116.072 110.415 115.779 110.538 115.471L110.815 114.593C111.047 114.038 111.278 113.437 111.463 112.836L111.971 111.033C112.156 110.432 112.249 109.831 112.387 109.23L112.618 108.305C112.665 107.981 112.711 107.704 112.757 107.38C112.896 106.779 112.988 106.132 113.081 105.531L113.312 103.681C113.358 103.034 113.404 102.433 113.451 101.786L113.497 100.861V99.8902C113.589 98.6419 113.497 97.3936 113.451 96.1453L113.358 94.2959C113.312 93.6486 113.22 93.0476 113.173 92.4003C113.081 91.7992 112.988 91.152 112.896 90.5509C112.803 89.9344 112.711 89.318 112.618 88.7015C112.495 88.0851 112.372 87.4686 112.249 86.8522C112.11 86.2511 111.971 85.65 111.833 85.049C111.648 84.448 111.509 83.8007 111.324 83.1996C111.185 82.5986 111 81.9975 110.815 81.4427C110.445 80.2406 110.045 79.0539 109.613 77.8827C109.397 77.297 109.166 76.7114 108.92 76.1257C108.673 75.5401 108.427 74.9545 108.18 74.3689C107.903 73.814 107.625 73.2438 107.348 72.6582L106.932 71.826C106.793 71.5948 106.7 71.3636 106.562 71.1324C106.238 70.3002 105.915 69.468 105.591 68.682L104.527 66.0929L103.649 63.4575C103.325 62.579 103.002 61.7006 102.724 60.8221L102.031 58.1405L101.615 56.7998C101.476 56.3374 101.43 55.9213 101.337 55.459L100.782 52.7773C100.644 52.315 100.598 51.8527 100.551 51.3903L100.366 50.0495L100.135 48.6625C100.089 48.2001 100.089 47.7378 100.043 47.2754L99.9502 45.9347C99.904 45.4723 99.8578 45.01 99.904 44.5477C99.904 43.623 99.8578 42.6983 99.904 41.7736L100.089 38.9995L100.274 37.6125C100.366 37.1501 100.366 36.6878 100.505 36.2255C100.69 35.347 100.875 34.3761 101.152 33.4976C101.383 32.5729 101.707 31.6945 102.031 30.7698C102.401 29.8913 102.817 29.0129 103.325 28.1807C102.539 28.7817 101.846 29.5214 101.199 30.3074C100.875 30.6773 100.598 31.0934 100.274 31.5095C99.9965 31.9256 99.7191 32.3418 99.4879 32.7579C98.9331 33.6363 98.4707 34.5147 98.0546 35.4394C97.5923 36.3641 97.2687 37.3351 96.8988 38.306C96.6214 39.2769 96.3439 40.2478 96.0665 41.2187C95.8354 42.2359 95.6505 43.2068 95.4655 44.224C95.3731 44.7326 95.3268 45.2412 95.2806 45.7497L95.1418 47.2754C95.0956 47.784 95.0494 48.2926 95.0494 48.8012V50.327ZM76.6944 61.7931V63.3188C76.6944 63.8274 76.6943 64.3359 76.7406 64.8445L77.018 67.896C77.1104 68.9132 77.2954 69.8841 77.4803 70.9013L78.0351 73.9065C78.2663 74.8774 78.5437 75.8483 78.8211 76.8192C79.0523 77.7902 79.2835 78.8074 79.6071 79.732L80.6243 82.5986C80.9479 83.5232 81.2715 84.4942 81.6414 85.4188L81.6876 85.5113L81.8264 85.7887L82.1962 86.4823L82.5199 87.222C82.7665 87.7152 82.9976 88.2084 83.2134 88.7015C83.6757 89.7495 84.1072 90.7975 84.5079 91.8454C84.9086 92.8934 85.2939 93.9568 85.6638 95.0356C85.9874 96.099 86.3574 97.1624 86.6348 98.272C86.9738 99.3508 87.2666 100.445 87.5132 101.555C87.6673 102.079 87.7906 102.618 87.8831 103.173C88.0218 103.728 88.1605 104.282 88.253 104.837C88.4379 105.947 88.6228 107.057 88.8078 108.166C88.9619 109.307 89.0852 110.432 89.1777 111.541L89.2701 112.374L89.3163 113.206C89.3163 113.807 89.3625 114.362 89.3625 114.916L89.4088 116.627C89.4088 117.182 89.4088 117.737 89.4088 118.292C89.3626 118.893 89.3626 119.447 89.3163 120.002C89.2701 120.557 89.2701 121.158 89.1777 121.713L89.0389 123.424C88.9465 123.978 88.854 124.533 88.8078 125.088L88.669 125.966L88.4841 126.799L88.1605 128.509C87.8831 129.619 87.6519 130.775 87.282 131.884C87.1433 132.439 87.0046 132.994 86.8197 133.595L86.2186 135.26C86.1262 135.537 86.0337 135.814 85.9412 136.092L85.6176 136.924C85.4018 137.479 85.186 138.049 84.9703 138.635C85.371 138.172 85.7717 137.71 86.1724 137.248L86.7272 136.554C86.9121 136.308 87.0971 136.061 87.282 135.814L88.3454 134.289C88.6691 133.78 88.9927 133.271 89.3163 132.763C89.6554 132.239 89.9636 131.7 90.241 131.145C90.5184 130.59 90.7958 130.035 91.0733 129.48L91.813 127.77C91.9363 127.492 92.0596 127.215 92.1829 126.937L92.5065 126.059C92.6914 125.458 92.9226 124.903 93.1076 124.302L93.6161 122.499C93.8011 121.898 93.9398 121.297 94.0785 120.65L94.2634 119.771C94.3559 119.447 94.4021 119.124 94.4483 118.846C94.5408 118.199 94.6333 117.598 94.7258 116.997L94.957 115.101C95.0494 114.5 95.0494 113.853 95.0956 113.252L95.1418 112.281L95.1881 111.356C95.2344 110.108 95.1881 108.86 95.1418 107.611L95.0032 105.716C94.9569 105.115 94.8645 104.467 94.8182 103.866C94.772 103.219 94.6333 102.618 94.5871 102.017C94.4946 101.37 94.3867 100.753 94.2634 100.168C94.171 99.5512 94.0477 98.9347 93.8935 98.3183C93.7548 97.7172 93.6161 97.0699 93.4774 96.4689C93.3387 95.8678 93.2 95.2668 93.0151 94.6657C92.8301 94.0647 92.6915 93.4637 92.4603 92.8626C92.0904 91.6605 91.6897 90.4738 91.2582 89.3025C91.0424 88.7169 90.8113 88.1313 90.5647 87.5457C90.3489 86.9909 90.1023 86.4206 89.8249 85.835C89.5783 85.2493 89.3163 84.6791 89.0389 84.1243L88.5766 83.2458C88.4841 83.0147 88.3454 82.8297 88.2067 82.5523C87.883 81.7201 87.5594 80.9341 87.2358 80.1019L86.2186 77.5128L85.2939 74.8774C85.0165 73.999 84.6929 73.1205 84.4155 72.242L83.6757 69.6067L83.3058 68.2659C83.1671 67.8035 83.1209 67.3412 82.9822 66.9251L82.4274 64.1973C82.2887 63.7349 82.2887 63.3188 82.1962 62.8565L82.0113 61.4694L81.8264 60.1286C81.7801 59.6663 81.7339 59.2039 81.7339 58.7416L81.5952 57.3546C81.549 56.8922 81.5027 56.4299 81.549 55.9675C81.549 55.0891 81.5027 54.1644 81.549 53.2397L81.7339 50.4656L81.965 49.0786C82.0113 48.6162 82.0575 48.1539 82.15 47.6916C82.3812 46.7669 82.5199 45.8422 82.7973 44.9637C83.0285 44.039 83.3521 43.1606 83.722 42.2359C84.0918 41.3575 84.4617 40.479 84.9703 39.6005C84.1843 40.2478 83.4908 40.9876 82.8435 41.7273C82.5199 42.1434 82.2424 42.5596 81.965 42.9294C81.6414 43.3456 81.4103 43.8079 81.1329 44.224C80.578 45.0562 80.1619 45.9809 79.6996 46.9056C79.2835 47.8303 78.9598 48.8012 78.59 49.7259C78.2663 50.6968 77.9889 51.6677 77.7115 52.6849C77.5266 53.6558 77.3416 54.673 77.1567 55.6901C77.0642 56.1987 77.018 56.7073 76.9718 57.2158L76.833 58.7416C76.7868 59.2502 76.7406 59.7588 76.6944 60.2674V61.7931ZM54.4093 158.747C53.2072 158.531 52.036 158.284 50.8955 158.007C52.1284 158.253 53.3614 158.454 54.5943 158.608C53.3922 158.238 52.2055 157.837 51.0343 157.406C49.863 157.005 48.6917 156.574 47.5204 156.111C45.2549 155.187 42.9894 154.216 40.7702 153.106C38.5972 151.996 36.4704 150.794 34.5747 149.361C33.6038 148.668 32.7254 147.928 31.9394 147.142C31.1072 146.356 30.4599 145.477 29.9513 144.599C29.4427 143.674 29.1191 142.75 29.0729 141.871C28.9804 140.993 29.1653 140.068 29.489 139.19C29.8588 138.311 30.4137 137.433 31.1072 136.6C31.7853 135.799 32.5558 135.013 33.4189 134.242C33.835 133.873 34.2974 133.503 34.7135 133.179C35.1758 132.809 35.6382 132.439 36.1005 132.116C36.6091 131.792 37.0714 131.468 37.58 131.145C38.0732 130.806 38.5664 130.497 39.0595 130.22C39.5835 129.912 40.1075 129.604 40.6315 129.295C41.1401 129.018 41.6486 128.694 42.2034 128.417C43.1744 127.862 44.1916 127.354 45.2549 126.845C46.6882 126.29 48.2601 125.689 49.8321 125.134C51.4041 124.579 52.9761 124.055 54.5481 123.562C56.1508 123.038 57.7537 122.53 59.3564 122.037C60.9284 121.528 62.5466 121.066 64.1648 120.603C67.3704 119.679 70.5914 118.816 73.8278 118.014C77.0642 117.182 80.316 116.427 83.5832 115.749L86.0337 115.194C86.0953 115.194 86.157 115.178 86.2186 115.148V114.916C86.2186 114.639 86.1724 114.362 86.1724 114.038C86.1416 113.791 86.1261 113.56 86.1261 113.344L86.0799 112.605L86.0337 111.819C85.895 110.663 85.7563 109.507 85.6638 108.629C85.633 108.413 85.6022 108.212 85.5713 108.027C85.2323 108.089 84.8933 108.151 84.5542 108.212L82.0113 108.767C80.3469 109.137 78.6824 109.553 77.018 109.969C75.3535 110.385 73.6891 110.848 72.0246 111.264C70.3602 111.726 68.742 112.189 67.0776 112.697C65.4594 113.206 63.7949 113.668 62.1767 114.223C58.9095 115.24 55.6577 116.365 52.4213 117.598C50.8185 118.184 49.2157 118.8 47.6129 119.447C46.8115 119.756 46.0255 120.079 45.2549 120.418C44.4227 120.788 43.683 121.112 42.8045 121.482L42.6658 121.574H42.6196C41.5099 122.221 40.4003 122.869 39.2907 123.516C38.7359 123.886 38.2273 124.21 37.6725 124.579C37.1177 124.903 36.6091 125.273 36.0543 125.643C35.5303 126.013 35.0063 126.398 34.4823 126.799C33.9275 127.169 33.4189 127.631 32.9103 128.001C32.4017 128.417 31.8932 128.879 31.4308 129.295C30.9223 129.758 30.4137 130.22 29.9513 130.682C28.9958 131.638 28.1174 132.701 27.316 133.873C26.4837 135.028 25.7902 136.323 25.3279 137.802C24.8655 139.236 24.7268 140.854 25.0042 142.426C25.0967 142.857 25.2046 143.289 25.3279 143.72C22.2764 155.88 34.2049 179.552 34.2049 179.552C34.6673 155.603 54.4093 158.747 54.4093 158.747ZM110.399 226.896C110.399 226.896 108.689 199.664 78.0351 193.053C78.0351 193.053 54.132 193.885 45.7173 170.49C45.7173 170.49 34.2974 202.253 72.2096 223.614C72.2096 223.614 91.9054 234.617 110.399 226.896ZM120.987 210.899C122.281 212.841 123.807 214.737 125.564 216.493C125.564 216.493 150.3 204.611 144.89 174.004C144.89 174.004 135.088 152.366 153.721 135.768C153.721 135.768 119.739 137.34 114.19 180.199C114.19 180.199 114.006 181.355 113.959 183.343C112.696 181.402 111.216 179.398 109.521 177.333C109.521 177.333 77.804 141.501 48.2602 165.543C48.2602 165.543 43.9603 178.073 68.0485 181.633C68.0485 181.633 103.325 183.297 109.983 204.241C109.983 204.241 113.266 213.951 112.341 225.186C112.341 225.186 118.953 220.285 120.987 210.899ZM171.475 196.89C171.475 196.89 192.928 154.216 159.269 136.23C159.269 136.23 145.953 137.016 151.779 160.457C151.779 160.457 163.569 193.469 146.555 207.478C146.555 207.478 138.741 214.228 127.876 217.603C127.876 217.603 152.01 232.028 171.475 196.89ZM232.088 161.983C232.227 160.55 232.227 159.117 232.088 157.637C231.95 156.204 231.626 154.678 231.164 153.245C230.701 151.812 230.008 150.424 229.175 149.13C227.511 146.495 225.246 144.414 222.795 142.796C220.298 141.131 217.663 139.975 215.028 139.051C212.346 138.172 209.618 137.525 206.937 137.063C205.581 136.847 204.209 136.677 202.822 136.554C202.144 136.462 201.45 136.4 200.741 136.369L199.724 136.323C199.354 136.323 199.031 136.277 198.568 136.277L198.892 145.292C199.077 145.246 199.401 145.246 199.678 145.246L200.556 145.2C201.142 145.2 201.728 145.2 202.313 145.2C203.485 145.231 204.656 145.292 205.827 145.385C208.185 145.57 210.497 145.94 212.716 146.495C214.935 147.096 217.062 147.835 218.958 148.899C220.807 149.962 222.471 151.257 223.674 152.829C224.876 154.447 225.708 156.342 226.032 158.423C226.216 159.44 226.309 160.55 226.309 161.659C226.309 162.769 226.216 163.91 226.032 165.081C225.847 166.19 225.569 167.346 225.292 168.502C225.138 169.088 224.968 169.658 224.783 170.213C224.598 170.814 224.413 171.369 224.228 171.923C223.797 173.064 223.335 174.204 222.841 175.345C222.61 175.9 222.379 176.454 222.102 177.009L221.316 178.627C221.084 178.997 220.807 179.413 220.53 179.783C220.191 180.215 219.852 180.646 219.512 181.078C218.834 181.941 218.125 182.789 217.386 183.621C216.677 184.453 215.922 185.27 215.12 186.071C214.35 186.873 213.564 187.659 212.762 188.429L211.514 189.539L210.266 190.648C209.387 191.388 208.555 192.082 207.63 192.775C207.214 193.145 206.752 193.469 206.289 193.792C205.858 194.131 205.411 194.455 204.949 194.763C204.024 195.411 203.099 196.012 202.128 196.659C201.157 197.214 200.233 197.815 199.216 198.37C198.245 198.924 197.228 199.433 196.21 199.942C195.193 200.404 194.176 200.912 193.159 201.329C192.604 201.56 192.095 201.791 191.587 201.976L189.969 202.577C189.46 202.808 188.905 202.947 188.35 203.132C187.842 203.317 187.287 203.502 186.732 203.64C185.669 203.964 184.559 204.288 183.45 204.519C182.895 204.657 182.34 204.796 181.785 204.889L180.075 205.212C179.52 205.351 178.965 205.397 178.41 205.49L176.699 205.721L178.41 205.628C178.965 205.582 179.566 205.582 180.121 205.49L181.831 205.305C182.432 205.258 182.987 205.12 183.542 205.074C184.698 204.889 185.808 204.657 186.963 204.426C187.518 204.334 188.073 204.149 188.628 204.01C189.183 203.871 189.738 203.779 190.292 203.594L191.957 203.132C192.512 202.947 193.066 202.762 193.621 202.577C194.731 202.253 195.794 201.791 196.904 201.375C197.967 200.959 199.031 200.496 200.094 200.034C201.157 199.525 202.175 199.017 203.192 198.462C204.209 197.907 205.272 197.399 206.243 196.798C206.767 196.489 207.26 196.181 207.723 195.873C208.231 195.549 208.74 195.272 209.202 194.948C210.173 194.301 211.144 193.607 212.069 192.96L213.502 191.897L214.889 190.833C215.783 190.094 216.677 189.338 217.571 188.568C218.434 187.797 219.281 186.996 220.114 186.164C220.977 185.362 221.793 184.53 222.564 183.667C222.965 183.235 223.365 182.789 223.766 182.326C224.182 181.864 224.552 181.448 224.968 180.893V180.847L225.061 180.708L226.032 179.044C226.355 178.443 226.679 177.888 227.002 177.287C227.619 176.146 228.205 174.96 228.759 173.727C229.037 173.126 229.268 172.525 229.545 171.923C229.761 171.276 229.992 170.644 230.239 170.028C230.655 168.733 231.071 167.439 231.395 166.098C231.703 164.773 231.934 163.401 232.088 161.983Z" fill="#603813"/>
</svg>
