<svg width="257" height="253" viewBox="0 0 257 253" fill="none" xmlns="http://www.w3.org/2000/svg">
<path d="M167.566 212.666C167.566 212.666 184.051 203.732 188.749 180.661C188.749 180.661 172.768 179.696 163.791 182.549C163.791 182.549 183.128 191.483 167.566 212.666Z" fill="#603813"/>
<path d="M222.179 177.974C218.236 178.1 214.839 180.827 213.958 184.686C210.476 199.241 198.228 236.7 161.566 252.094C183.127 246.305 202.422 234.98 217.901 219.795C217.313 219.753 217.02 219.753 217.02 219.753L217.859 217.824C219.788 213.419 223.48 210.189 227.884 208.763C233.547 201.758 238.454 194.166 242.523 186.07C238.371 178.771 228.807 177.723 222.179 177.974Z" fill="#603813"/>
<path fill-rule="evenodd" clip-rule="evenodd" d="M73.8994 244.419C30.3588 223.991 0.199219 179.78 0.199219 128.479C0.199219 57.799 57.4983 0.5 128.178 0.5C198.9 0.5 256.199 57.799 256.199 128.479C256.199 143.957 253.431 158.806 248.397 172.565C248.062 172.285 247.726 172.02 247.39 171.768C243.112 168.538 237.743 166.986 232.374 166.986H212.91C208.38 166.986 204.479 170.216 203.682 174.704C199.949 195.216 184.471 249.369 125.158 245.174C75.8709 241.693 57.2885 213.043 50.4093 194.797C46.9697 185.736 38.3287 179.696 28.5971 179.696C28.5971 179.696 38.1609 221.6 73.8994 244.419ZM123.019 103.479C122.39 104.779 121.718 106.038 120.963 107.338C120.25 108.596 119.411 109.813 118.573 111.029C118.153 111.658 117.692 112.246 117.23 112.833L115.678 114.888L114.965 115.895L114.168 117.195L113.371 118.496L112.7 119.796L112.071 121.096C111.861 121.516 111.693 121.977 111.525 122.439L111.022 123.781L110.603 125.123C110.477 125.585 110.309 126.046 110.183 126.508L109.89 127.892C109.68 128.815 109.596 129.737 109.47 130.66C109.26 132.506 109.176 134.31 109.26 136.071C109.428 139.637 110.183 142.951 111.148 145.887C112.155 148.865 113.413 151.466 114.755 153.773C117.398 158.345 120.292 161.575 122.474 163.672C123.522 164.721 124.445 165.434 125.074 165.937C125.703 166.441 126.081 166.692 126.081 166.692C126.081 166.692 125.871 166.315 125.536 165.602C125.2 164.889 124.739 163.798 124.193 162.456C123.061 159.813 121.551 155.954 120.292 151.382C119.663 149.117 119.118 146.642 118.782 144.083C118.405 141.482 118.279 138.798 118.489 136.155C118.614 134.813 118.782 133.471 119.076 132.128C119.202 131.499 119.369 130.828 119.579 130.199L119.831 129.234C119.957 128.898 120.083 128.563 120.208 128.269L120.544 127.305L120.963 126.382L121.383 125.417L121.886 124.536L122.348 123.613L122.851 122.816L123.354 121.977L124.109 121.013L125.494 119.041C126.039 118.328 126.584 117.615 127.046 116.818C128.094 115.35 128.975 113.756 129.814 112.162C130.653 110.568 131.366 108.932 131.953 107.254C132.583 105.618 133.128 103.94 133.505 102.304C134.344 98.9906 134.722 95.7187 134.848 92.6566C134.932 89.5526 134.722 86.7002 134.302 84.0995C133.505 78.8562 131.911 74.7455 130.611 72.0609C129.982 70.6766 129.353 69.6699 128.933 68.9988C128.514 68.3276 128.262 67.992 128.262 67.992C128.262 67.992 128.304 68.4115 128.388 69.1666C128.472 69.9635 128.514 71.138 128.598 72.5642C128.766 75.4585 128.807 79.5693 128.304 84.2673C127.843 89.0073 126.752 94.3345 124.739 99.5778C124.193 100.878 123.648 102.179 123.019 103.479ZM97.2217 128.647C97.4314 131.751 98.2284 134.603 99.2351 137.078C100.242 139.553 101.542 141.65 102.843 143.496C105.485 147.103 108.254 149.536 110.225 151.088C111.232 151.843 112.113 152.389 112.658 152.766C113.245 153.102 113.581 153.269 113.581 153.269C113.581 153.269 112.826 152.011 111.693 149.872C110.519 147.691 108.967 144.628 107.624 140.895C106.282 137.204 105.233 132.841 105.527 128.605C105.611 128.074 105.681 127.542 105.737 127.011C105.863 126.508 105.905 126.004 106.072 125.459C106.198 124.956 106.324 124.452 106.534 123.949C106.702 123.445 106.869 122.942 107.121 122.481L107.415 121.726L107.834 121.013L108.212 120.299L108.673 119.586L109.135 118.873L109.596 118.244L110.099 117.657C110.225 117.447 110.519 117.153 110.728 116.902L112.029 115.434L113.539 113.672C114.014 113.085 114.49 112.497 114.965 111.91C115.413 111.267 115.846 110.624 116.265 109.981C116.657 109.337 117.062 108.694 117.482 108.051C117.859 107.38 118.153 106.709 118.489 106.038C118.824 105.338 119.146 104.653 119.453 103.982C119.747 103.311 119.957 102.598 120.208 101.885C120.432 101.214 120.656 100.529 120.88 99.8295C121.019 99.1304 121.159 98.4453 121.299 97.7741C121.425 97.061 121.593 96.3899 121.677 95.7187C121.732 95.0476 121.788 94.3765 121.844 93.7053C121.97 92.405 121.928 91.1046 121.886 89.8882C121.886 88.6298 121.635 87.4553 121.509 86.3647C121.425 85.7774 121.341 85.2321 121.215 84.7287C121.075 84.1974 120.949 83.6801 120.838 83.1767C120.586 82.2119 120.25 81.2891 119.957 80.4502C119.621 79.6113 119.3 78.8422 118.992 78.1431C118.656 77.444 118.335 76.8148 118.027 76.2555C117.398 75.123 116.811 74.326 116.433 73.7807C116.014 73.2354 115.762 72.9837 115.762 72.9837C115.762 72.9837 115.804 73.3193 115.93 73.9904C115.958 74.326 116.014 74.7315 116.098 75.2069C116.126 75.6823 116.168 76.2136 116.224 76.8008C116.279 77.416 116.335 78.0872 116.391 78.8143C116.391 79.5274 116.433 80.2824 116.433 81.1213C116.391 82.7573 116.349 84.6029 116.098 86.5324C115.93 87.4972 115.93 88.5039 115.636 89.5107C115.427 90.5174 115.259 91.566 114.881 92.5727C114.741 93.1041 114.602 93.6354 114.462 94.1667C114.294 94.6701 114.042 95.1734 113.874 95.7187C113.651 96.2221 113.455 96.7394 113.287 97.2708C113.036 97.7741 112.77 98.2915 112.49 98.8228C112.239 99.3261 111.987 99.8295 111.735 100.375C111.428 100.85 111.12 101.34 110.812 101.843C110.477 102.346 110.225 102.892 109.89 103.353C109.526 103.828 109.162 104.318 108.799 104.821C108.435 105.297 108.072 105.786 107.708 106.289C107.289 106.737 106.869 107.184 106.45 107.632L105.233 109.016L104.94 109.393L104.436 109.897L103.765 110.652C103.514 110.945 103.304 111.155 103.052 111.491L102.255 112.539L101.458 113.588L100.829 114.637L100.158 115.685L99.6126 116.818C99.4448 117.195 99.2771 117.573 99.1093 117.95L98.6479 119.125C97.4734 122.229 97.0539 125.543 97.2217 128.647ZM54.52 184.394C54.52 184.394 78.0521 244.713 133.17 238.127C188.288 231.5 194.412 175.921 194.412 175.921C194.412 175.921 180.737 162.288 135.519 189.134C90.3005 215.98 54.52 184.394 54.52 184.394Z" fill="#603813"/>
</svg>
