<svg width="257" height="257" viewBox="0 0 257 257" fill="none" xmlns="http://www.w3.org/2000/svg">
<path fill-rule="evenodd" clip-rule="evenodd" d="M256.158 128.821C256.158 181.169 224.733 226.19 179.672 246.013C175.153 244.629 164.407 243.49 150.363 242.838C152.209 242.16 154.054 241.441 155.899 240.681C167.012 235.959 177.026 229.243 185.615 220.654C194.204 212.065 200.92 202.051 205.642 190.938C210.527 179.418 212.969 167.166 212.969 154.547C212.969 152.553 212.928 150.558 212.806 148.604L202.345 149.255C202.467 151.006 202.508 152.797 202.508 154.547C202.508 200.301 165.262 237.547 119.508 237.547C90.0372 237.547 62.52 221.712 47.703 196.23C47.3774 195.687 47.0653 195.145 46.7668 194.602C40.1724 182.675 36.631 169.12 36.5089 155.402L36.4275 150.232H1.94957C0.809803 143.272 0.199219 136.107 0.199219 128.821C0.199219 58.1147 57.4725 0.800781 128.179 0.800781C198.844 0.800781 256.158 58.1147 256.158 128.821ZM45.0164 161.671C45.0164 161.426 45.0164 161.182 45.0164 160.938H44.7315C44.7315 161.182 44.7315 161.426 44.7315 161.671H45.0164ZM125.085 101.222C126.021 103.543 127.365 105.659 128.911 107.532C129.101 107.776 129.305 108.007 129.522 108.224L129.807 108.59L129.97 108.753L130.051 108.834L130.092 108.875C129.929 108.712 130.051 108.834 130.01 108.794L130.051 108.834L130.54 109.404C130.58 109.445 130.58 109.445 130.621 109.486V109.526L130.702 109.608L130.865 109.771L130.947 109.893L131.028 109.974L131.191 110.218C131.313 110.381 131.394 110.503 131.517 110.666C131.625 110.829 131.734 110.978 131.842 111.114L132.005 111.358L132.127 111.602C132.901 112.824 133.552 114.167 134 115.592C134.488 117.016 134.814 118.563 135.017 120.151C135.424 123.285 135.343 126.623 135.139 129.554C134.895 132.484 134.57 135.09 134.366 136.962C134.244 137.898 134.162 138.672 134.122 139.16C134.04 139.689 134 139.974 134 139.974C134 139.974 134.244 139.812 134.692 139.486C134.882 139.323 135.126 139.12 135.424 138.875C135.56 138.74 135.709 138.604 135.872 138.468C136.035 138.305 136.211 138.143 136.401 137.98C137.093 137.329 137.907 136.433 138.762 135.375C139.617 134.316 140.513 133.054 141.367 131.548C142.222 130.083 142.996 128.414 143.647 126.501C144.298 124.588 144.827 122.471 145.031 120.191C145.275 117.912 145.194 115.388 144.665 112.905C144.135 110.381 143.118 107.857 141.693 105.619L141.449 105.171L141.164 104.764C140.974 104.492 140.784 104.221 140.594 103.95C140.377 103.705 140.173 103.448 139.983 103.176L139.658 102.81L139.495 102.647L139.332 102.444L138.966 102.036L138.762 101.833C138.722 101.792 138.64 101.711 138.599 101.67L138.03 101.141L137.867 100.937L137.745 100.815L137.5 100.612C137.365 100.476 137.215 100.34 137.053 100.205C135.872 99.0649 134.854 97.9252 134.081 96.7447C133.267 95.6049 132.656 94.4651 132.29 93.2847C132.168 92.9997 132.086 92.6741 132.005 92.3891C131.964 92.2263 131.924 92.0635 131.924 91.9414C131.883 91.7786 131.842 91.6157 131.802 91.4529C131.72 90.8423 131.639 90.191 131.679 89.5804C131.639 89.2548 131.679 88.9698 131.679 88.6442C131.679 88.4814 131.72 88.3185 131.72 88.1557C131.747 88.02 131.761 87.8708 131.761 87.708C131.788 87.5451 131.815 87.3959 131.842 87.2602C131.842 87.0974 131.842 86.9346 131.883 86.8124C131.964 86.4868 132.005 86.2018 132.046 85.9169C132.29 84.7771 132.616 83.7188 132.901 82.864C133.063 82.4298 133.213 82.0498 133.348 81.7242C133.484 81.3714 133.593 81.0729 133.674 80.8287C133.878 80.3809 134 80.096 134 80.096C134 80.096 133.715 80.1774 133.226 80.3809C133.118 80.4352 132.982 80.4894 132.819 80.5437C132.683 80.6251 132.521 80.7065 132.331 80.7879C132.168 80.8694 131.991 80.9643 131.802 81.0729C131.584 81.1814 131.381 81.3036 131.191 81.4392C130.336 81.9684 129.318 82.7011 128.301 83.7188C127.785 84.2344 127.27 84.8314 126.754 85.5098C126.306 86.2018 125.777 86.9346 125.37 87.8301C125.289 88.0336 125.166 88.2371 125.085 88.4814C124.976 88.6985 124.882 88.9291 124.8 89.1734C124.746 89.3091 124.692 89.4312 124.637 89.5397C124.61 89.6754 124.583 89.7975 124.556 89.9061C124.474 90.1503 124.393 90.4081 124.312 90.6795C124.067 91.7379 123.864 92.8369 123.823 94.0174C123.742 96.3783 124.149 98.9021 125.085 101.222ZM105.058 101.222C105.953 103.543 107.297 105.659 108.884 107.532C109.074 107.776 109.264 108.007 109.454 108.224L109.78 108.59L109.902 108.753L109.983 108.834L110.024 108.875C109.861 108.712 109.983 108.834 109.983 108.794V108.834L110.472 109.404C110.512 109.445 110.553 109.445 110.553 109.486L110.594 109.526L110.675 109.608L110.797 109.771L110.879 109.893L110.96 109.974L111.123 110.218C111.245 110.381 111.367 110.503 111.449 110.666C111.584 110.829 111.693 110.978 111.774 111.114L111.937 111.358L112.1 111.602C112.873 112.824 113.484 114.167 113.972 115.592C114.42 117.016 114.746 118.563 114.949 120.151C115.356 123.285 115.275 126.623 115.071 129.554C114.868 132.484 114.542 135.09 114.298 136.962C114.217 137.898 114.094 138.672 114.054 139.16C113.972 139.689 113.972 139.974 113.972 139.974C113.972 139.974 114.217 139.812 114.624 139.486C114.841 139.323 115.085 139.12 115.356 138.875C115.519 138.74 115.682 138.604 115.845 138.468C116.008 138.305 116.17 138.143 116.333 137.98C117.066 137.329 117.88 136.433 118.735 135.375C119.549 134.316 120.445 133.054 121.299 131.548C122.154 130.083 122.968 128.414 123.62 126.501C124.271 124.588 124.759 122.471 125.004 120.191C125.207 117.912 125.126 115.388 124.597 112.905C124.067 110.381 123.05 107.857 121.666 105.619L121.381 105.171L121.096 104.764C120.906 104.492 120.716 104.221 120.526 103.95C120.336 103.705 120.132 103.448 119.915 103.176L119.59 102.81L119.427 102.647L119.264 102.444L118.898 102.036L118.694 101.833C118.653 101.792 118.572 101.711 118.531 101.67L118.002 101.141L117.799 100.937L117.677 100.815L117.473 100.612C117.31 100.476 117.147 100.34 116.985 100.205C115.845 99.0649 114.827 97.9252 114.013 96.7447C113.199 95.6049 112.629 94.4651 112.222 93.2847C112.1 92.9997 112.059 92.6741 111.937 92.3891C111.896 92.2263 111.896 92.0635 111.856 91.9414C111.815 91.7786 111.774 91.6157 111.774 91.4529C111.693 90.8423 111.611 90.191 111.611 89.5804C111.611 89.2548 111.611 88.9698 111.611 88.6442C111.611 88.4814 111.652 88.3185 111.652 88.1557C111.679 88.02 111.693 87.8708 111.693 87.708C111.72 87.5451 111.747 87.3959 111.774 87.2602C111.774 87.0974 111.815 86.9346 111.856 86.8124C111.896 86.4868 111.937 86.2018 112.018 85.9169C112.263 84.7771 112.588 83.7188 112.873 82.864C113.009 82.4298 113.145 82.0498 113.28 81.7242C113.416 81.3714 113.538 81.0729 113.647 80.8287C113.85 80.3809 113.972 80.096 113.972 80.096C113.972 80.096 113.687 80.1774 113.199 80.3809C113.063 80.4352 112.914 80.4894 112.751 80.5437C112.615 80.6251 112.466 80.7065 112.303 80.7879C112.113 80.8694 111.923 80.9643 111.733 81.0729C111.544 81.1814 111.34 81.3036 111.123 81.4392C110.268 81.9684 109.25 82.7011 108.233 83.7188C107.717 84.2344 107.215 84.8314 106.727 85.5098C106.238 86.2018 105.75 86.9346 105.343 87.8301C105.221 88.0336 105.098 88.2371 105.017 88.4814C104.936 88.6985 104.841 88.9291 104.732 89.1734C104.678 89.3091 104.637 89.4312 104.61 89.5397C104.556 89.6754 104.515 89.7975 104.488 89.9061C104.406 90.1503 104.325 90.4081 104.244 90.6795C103.999 91.7379 103.796 92.8369 103.755 94.0174C103.674 96.3783 104.121 98.9021 105.058 101.222ZM86.1294 101.222C87.0657 103.543 88.409 105.659 89.9558 107.532C90.1458 107.776 90.3357 108.007 90.5257 108.224L90.8514 108.59L90.9735 108.753L91.0549 108.834L91.0956 108.875C90.9328 108.712 91.0549 108.834 91.0549 108.794V108.834L91.5841 109.404C91.5841 109.445 91.6248 109.445 91.6248 109.486L91.6655 109.526L91.7469 109.608L91.869 109.771L91.9504 109.893L92.0318 109.974L92.1946 110.218C92.3168 110.381 92.4389 110.503 92.561 110.666C92.6695 110.829 92.7645 110.978 92.8459 111.114L93.0088 111.358L93.1716 111.602C93.945 112.824 94.5556 114.167 95.0441 115.592C95.4918 117.016 95.8175 118.563 96.021 120.151C96.428 123.285 96.3467 126.623 96.1431 129.554C95.9396 132.484 95.6139 135.09 95.4104 136.962C95.2883 137.898 95.1662 138.672 95.1255 139.16C95.0441 139.689 95.0441 139.974 95.0441 139.974C95.0441 139.974 95.2883 139.812 95.6953 139.486C95.9124 139.323 96.1567 139.12 96.428 138.875C96.5909 138.74 96.7537 138.604 96.9165 138.468C97.0793 138.305 97.2422 138.143 97.405 137.98C98.1377 137.329 98.9518 136.433 99.8067 135.375C100.661 134.316 101.516 133.054 102.371 131.548C103.226 130.083 104.04 128.414 104.691 126.501C105.343 124.588 105.831 122.471 106.075 120.191C106.279 117.912 106.197 115.388 105.668 112.905C105.139 110.381 104.162 107.857 102.737 105.619L102.453 105.171L102.168 104.764C101.978 104.492 101.788 104.221 101.598 103.95C101.408 103.705 101.204 103.448 100.987 103.176L100.661 102.81L100.499 102.647L100.336 102.444L99.9695 102.036L99.8067 101.833C99.7252 101.792 99.6438 101.711 99.6031 101.67L99.0739 101.141L98.8704 100.937L98.7483 100.815L98.5448 100.612C98.3819 100.476 98.2327 100.34 98.097 100.205C96.9165 99.0649 95.8989 97.9252 95.0848 96.7447C94.2706 95.6049 93.7008 94.4651 93.2937 93.2847C93.1716 92.9997 93.1309 92.6741 93.0088 92.3891C92.9681 92.2263 92.9681 92.0635 92.9273 91.9414C92.8866 91.7786 92.8459 91.6157 92.8459 91.4529C92.7645 90.8423 92.6831 90.191 92.6831 89.5804C92.6831 89.2548 92.6831 88.9698 92.7238 88.6442C92.7238 88.4814 92.7238 88.3185 92.7238 88.1557C92.751 88.02 92.7645 87.8708 92.7645 87.708C92.7916 87.5451 92.8188 87.3959 92.8459 87.2602C92.8866 87.0974 92.8866 86.9346 92.9273 86.8124C92.9681 86.4868 93.0088 86.2018 93.0902 85.9169C93.3344 84.7771 93.6601 83.7188 93.945 82.864C94.0807 82.4298 94.2164 82.0498 94.3521 81.7242C94.4877 81.3714 94.6099 81.0729 94.7184 80.8287C94.9219 80.3809 95.0441 80.096 95.0441 80.096C95.0441 80.096 94.7591 80.1774 94.2706 80.3809C94.1349 80.4352 93.9993 80.4894 93.8636 80.5437C93.7008 80.6251 93.5379 80.7065 93.3751 80.7879C93.1851 80.8694 92.9952 80.9643 92.8052 81.0729C92.6153 81.1814 92.4117 81.3036 92.1946 81.4392C91.3398 81.9684 90.3629 82.7011 89.3045 83.7188C88.7889 84.2344 88.2869 84.8314 87.7984 85.5098C87.3099 86.2018 86.8215 86.9346 86.4144 87.8301C86.2923 88.0336 86.1702 88.2371 86.0888 88.4814C86.0073 88.6985 85.9124 88.9291 85.8038 89.1734C85.7767 89.3091 85.736 89.4312 85.6817 89.5397C85.6274 89.6754 85.5867 89.7975 85.5596 89.9061C85.4782 90.1503 85.3967 90.4081 85.3153 90.6795C85.0711 91.7379 84.8676 92.8369 84.8269 94.0174C84.7454 96.3783 85.1932 98.9021 86.1294 101.222ZM192.046 157.722C192.046 156.175 192.006 154.629 191.924 153.082L47.011 158.455C47.3774 198.184 79.6979 230.26 119.508 230.26C159.604 230.26 192.046 197.777 192.046 157.722Z" fill="#603813"/>
<path d="M89.305 243C83.362 241.005 77.6224 238.36 72.2085 235.184C59.3455 227.613 48.4363 217.07 40.4579 204.492C35.0847 205.388 30.1593 205.632 25.6816 205.469C38.0562 221.996 54.2979 235.388 73.0634 244.343C77.5003 243.814 82.9956 243.366 89.305 243Z" fill="#603813"/>
<path d="M35.0446 194.685C29.997 184.061 26.9848 172.459 26.2114 160.695H4.18945C7.2424 172.622 11.9643 183.857 18.1109 194.156C23.3213 195.173 28.9794 195.377 35.0446 194.685Z" fill="#603813"/>
<path d="M121.787 252.772C111.774 252.772 102.37 252.569 94.0664 252.202C104.935 255.215 116.373 256.802 128.178 256.802C141.367 256.802 154.108 254.807 166.116 251.062C155.085 252.121 139.331 252.772 121.787 252.772Z" fill="#603813"/>
</svg>
