<svg width="256" height="188" viewBox="0 0 256 188" fill="none" xmlns="http://www.w3.org/2000/svg">
<path d="M226.547 86.019C212.001 79.4635 198.531 78.0519 189.631 78.0519C184.176 78.0519 180.802 78.6022 180.659 78.6261L178.84 78.9372L177.955 80.588C177.604 81.242 177.245 81.8879 176.878 82.5259C176.496 83.1959 176.065 83.8897 175.61 84.6074C174.606 86.1865 173.553 87.6699 172.452 89.0575L149.556 91.3304H170.562C161.471 101.834 150.441 107.025 144.149 109.322C147.331 95.9719 142.402 87.5024 142.187 87.1196L136.182 77.071L135.201 88.7465C134.794 93.6033 133.813 96.6179 133 98.3645C132.521 98.2209 132.066 98.1013 131.66 97.9817C130.009 97.5989 128.526 97.4553 128.358 97.4314L127.999 97.4074L127.64 97.4314C127.473 97.4553 125.989 97.5989 124.339 97.9817C123.932 98.1013 123.477 98.2209 122.999 98.3645C122.185 96.6179 121.204 93.6033 120.798 88.7465L119.817 77.071L113.812 87.1196C113.501 87.6459 110.773 92.431 110.773 100.47C110.773 103.365 111.132 106.332 111.85 109.322C104.361 106.595 90.0538 99.7043 80.4119 84.6074C79.9334 83.8897 79.5028 83.1959 79.12 82.502C78.7611 81.88 78.3783 81.234 78.0433 80.588L77.1581 78.9372L75.3398 78.6261C75.1962 78.6022 71.8228 78.0519 66.3678 78.0519C57.4676 78.0519 43.9977 79.4635 29.4512 86.019C30.8867 75.6116 33.9252 65.7304 38.3035 56.6149H95.6044L41.0788 51.2557C58.0897 20.7988 90.628 0.199219 127.999 0.199219C155.154 0.199219 179.773 11.0852 197.717 28.7181L152.594 32.6418H201.498C214.728 47.1405 223.748 65.5869 226.547 86.019Z" fill="#ED8C21"/>
<path d="M256 112.791C255.689 112.552 242.937 102.264 227.17 107.719C225.711 108.197 224.251 108.843 222.768 109.609C222.768 109.609 211.69 115.255 213.054 133.989C213.054 133.989 203.03 121.954 183.172 126.978C163.29 131.979 162.716 144.157 162.716 144.157C162.716 144.157 154.39 137.888 142.738 153.177C131.924 167.364 130.105 178.801 128 187.629C125.895 178.801 124.076 167.364 113.262 153.177C101.61 137.888 93.2845 144.157 93.2845 144.157C93.2845 144.157 92.7103 131.979 72.8284 126.978C52.9705 121.954 42.9458 133.989 42.9458 133.989C44.3095 115.255 33.2322 109.609 33.2322 109.609C31.7488 108.843 30.2893 108.197 28.8299 107.719C13.0632 102.264 0.311028 112.552 0 112.791C9.25907 102.12 19.3077 95.0622 28.9495 90.3968C53.114 78.7452 74.7185 82.334 74.7185 82.334C75.0854 83.0358 75.4682 83.7216 75.8669 84.3915C76.3135 85.1572 76.7681 85.9068 77.2307 86.6405C88.6669 104.513 106.276 111.523 112.855 113.628C114.315 114.107 115.894 113.389 116.54 112.001C115.056 107.599 114.53 103.723 114.53 100.469C114.53 93.2439 117.042 89.057 117.042 89.057C117.999 100.517 121.971 103.388 121.971 103.388C122.593 101.689 128 101.187 128 101.187C128 101.187 133.407 101.689 134.029 103.388C134.029 103.388 138.001 100.517 138.958 89.057C138.958 89.057 144.245 97.8854 139.46 112.001C139.963 113.102 141.063 113.772 142.236 113.772C142.539 113.772 142.842 113.724 143.145 113.628C149.724 111.523 167.333 104.513 178.769 86.6405C179.232 85.9068 179.686 85.1572 180.133 84.3915C180.532 83.7216 180.915 83.0358 181.281 82.334C181.281 82.334 202.886 78.7452 227.05 90.3968C236.692 95.0622 246.741 102.12 256 112.791Z" fill="#403F40"/>
</svg>
