<svg width="257" height="188" viewBox="0 0 257 188" fill="none" xmlns="http://www.w3.org/2000/svg">
<path fill-rule="evenodd" clip-rule="evenodd" d="M226.828 85.8165C226.828 119.447 207.374 148.551 179.134 162.474C182.453 160.49 185.632 158.265 188.645 155.85L134.048 134.768C134.874 141.278 137.43 154.998 130.691 158.774C125.618 165.653 123.215 174.273 123.418 184.61C123.99 176.015 126.546 167.662 130.844 160.211C131.212 161.406 132.064 162.36 132.064 165.513C132.064 171.349 128.377 170.383 131.327 174.82C134.531 179.601 130.322 182.729 131.123 185.335C131.378 186.136 131.785 186.988 132.242 187.942H107.576C110.894 168.92 105.745 149.378 93.4494 134.514C104.054 150.153 108.402 169.226 105.656 187.942H82.8834C82.8834 180.198 82.858 174.553 79.5903 167.395C77.3525 162.499 73.2074 157.375 67.6129 155.049L53.1181 151.323C52.6349 151.323 51.9737 151.272 51.0328 151.183C46.4809 150.522 41.5476 150.497 36.2455 151.069C41.2679 151.501 44.3576 151.933 45.5273 152.328C38.3689 155.252 28.5404 162.131 16.3977 158.176C13.6513 157.286 10.7269 155.481 8.57812 154.883C8.83242 148.437 14.3379 139.244 17.453 135.836C26.595 125.855 32.5201 126.72 44.8153 122.028C49.3163 120.337 50.6005 119.587 52.4569 115.722C54.2624 111.996 55.0761 109.708 58.649 108.245C61.6878 107.012 67.2188 106.643 69.5329 108.703L73.6652 99.4467C71.4782 97.5268 69.2531 94.8948 66.9518 91.5127C65.7311 94.0048 64.9555 96.2935 64.6122 98.3278C61.2301 92.9495 60.2511 87.7618 61.6624 82.7776C60.2256 83.2608 58.1404 84.4433 55.4449 86.2996C57.7335 80.1457 61.7133 75.7591 67.3841 73.1271L60.5944 74.246C65.6676 69.9992 71.2875 67.5707 77.4669 67.024C76.4624 65.7907 73.1693 65.4219 67.5621 65.8542C77.6195 59.9164 85.668 57.6023 91.6821 58.8611L115.141 6.1201C108.987 7.60773 103.075 9.75652 97.4927 12.5156C110.322 4.83589 125.338 0.398438 141.384 0.398438C171.709 0.398438 198.359 16.2029 213.541 40.0432C217.292 39.4329 218.207 40.3483 219.44 43.0184L221.932 41.7851C224.653 40.4119 235.881 34.881 241.92 32.5287L242.098 32.6813L242.213 33.2153C241.437 33.7112 240.75 34.169 240.318 34.3978C234.024 38.1741 227.4 42.103 220.674 45.9937C222.072 49.9226 222.098 52.5291 220.928 54.6143C224.742 64.303 226.828 74.8182 226.828 85.8165ZM164.818 69.6814C167.195 67.736 172.027 65.2821 174.837 63.9597C181.563 60.8065 189.332 57.6278 194.863 52.7834C196.783 51.1305 198.525 49.6937 200.305 47.8628C201.97 46.1463 204.195 44.1373 206.84 42.5607C191.595 19.1909 165.212 3.74242 135.243 3.74242C128.949 3.74242 122.782 4.42903 116.857 5.72594L93.0807 59.2298C98.548 61.0099 102.197 66.0831 104.003 74.4113L100.646 79.4209L105.198 77.1068L111.441 84.2907L107.461 86.6175L109.724 89.7962L109.635 93.6869C113.857 92.5172 116.311 91.1185 116.997 89.4275L114.505 97.2216C121.13 86.1343 132.153 80.6542 147.564 80.8577C154.722 80.1457 158.994 79.2811 160.406 78.2766C158.168 78.8233 155.103 79.1158 151.2 79.1666C154.531 77.4501 157.85 75.3013 162.147 72.0336C163.203 71.2326 163.775 70.5206 164.818 69.6814ZM70.9951 108.868L79.8446 112.314L80.0226 109.873L83.3666 107.991C81.7645 105.499 79.6751 103.465 77.0982 101.888C76.3226 101.481 75.547 100.973 74.7841 100.362L70.9951 108.868ZM69.5837 109.847C67.7274 111.628 62.3617 113.827 60.4799 115.467C57.3012 118.15 56.9198 120.935 51.8593 122.6C46.837 124.253 32.9778 128.894 30.9689 133.561C34.3002 132.963 39.1318 130.153 42.1706 128.665C45.9469 126.834 48.6425 126.008 52.8256 125.55C51.4524 127.979 49.7868 130.039 47.8414 131.755C50.2191 131.043 52.5968 128.894 54.9999 125.347C56.5256 121.481 60.8232 118.557 64.6885 116.497C69.304 114.031 72.2157 113.115 77.5178 112.912L69.7872 109.936L69.5837 109.847ZM145.122 115.544C144.372 116.599 143.914 117.985 143.202 118.837C140.761 124.19 137.557 128.258 133.552 130.979L133.832 133.166L189.891 154.82C208.684 139.142 220.661 115.569 220.661 89.1605C220.661 78.7089 218.766 68.6515 215.333 59.3951C213.986 60.1453 212.473 60.9463 210.743 61.8363C200.292 67.2529 206.878 62.7518 198.092 69.9993C194.049 73.3432 191.811 76.1024 186.318 78.9378C181.868 81.2264 175.625 82.5742 169.865 88.334C159.821 98.4677 160.622 107.673 145.122 115.544Z" fill="#050505"/>
<path d="M242.213 33.2155L243.332 39.5856L256.301 24.4805L236.746 28.155L241.921 32.5289L242.099 32.6815L242.213 33.2155Z" fill="#CC9933"/>
<path d="M0.300781 187.942H92.4577V184.039H0.300781V187.942Z" fill="#050505"/>
<path d="M125.199 187.942H217.382V184.039H125.199V187.942Z" fill="#050505"/>
</svg>
