<svg width="232" height="257" viewBox="0 0 232 257" fill="none" xmlns="http://www.w3.org/2000/svg">
<path d="M39.4853 157.504C39.4304 156.636 39.4029 155.768 39.4029 154.9C39.4029 154.022 39.4304 153.154 39.4853 152.297L18.0641 153.763C17.9872 154.51 17.9268 155.263 17.8828 156.021L39.4853 157.504Z" fill="url(#paint0_linear_40_4166)"/>
<path d="M41.7766 140.71C42.216 139.425 42.7159 138.167 43.2761 136.937L24.1124 130.758C23.9366 131.153 23.7663 131.549 23.6016 131.944L41.7766 140.71Z" fill="url(#paint1_linear_40_4166)"/>
<path d="M50.2965 126.194C50.8677 125.546 51.4609 124.909 52.0761 124.283C52.7022 123.668 53.3394 123.074 53.9875 122.503L36.2573 107.047L35.2852 108.958L50.2965 126.194Z" fill="url(#paint2_linear_40_4166)"/>
<path d="M24.4735 120.921L78.4879 16.0391L18.2119 120.443C-11.9755 172.743 24.5723 237.88 84.1398 240.171C28.3128 233.745 -4.64289 171.359 24.4735 120.921Z" fill="url(#paint3_linear_40_4166)"/>
<path d="M164.685 130.494C164.081 129.011 163.438 127.539 162.757 126.078L71.3047 179.483L85.0307 183.718L164.685 130.494Z" fill="url(#paint4_linear_40_4166)"/>
<path d="M102.895 189.224L114.511 192.8L170.421 155.444C170.3 153.665 170.119 151.885 169.877 150.105L102.895 189.224Z" fill="url(#paint5_linear_40_4166)"/>
<path d="M134.48 198.962L143.988 201.895L166.431 186.9C167.288 184.296 168.018 181.671 168.623 179.023L134.48 198.962Z" fill="url(#paint6_linear_40_4166)"/>
<path d="M67.5149 114.329L54.0195 87.9805L63.7909 115.927C65.0103 115.334 66.2516 114.801 67.5149 114.329Z" fill="url(#paint7_linear_40_4166)"/>
<path d="M82.6933 111.612C83.5612 111.612 84.429 111.639 85.2968 111.694L82.6933 73.6797L80.0898 111.694C80.9467 111.639 81.8145 111.612 82.6933 111.612Z" fill="url(#paint8_linear_40_4166)"/>
<path d="M121.629 136.014C122.222 137.223 122.76 138.464 123.244 139.738L149.608 126.227L121.629 136.014Z" fill="url(#paint9_linear_40_4166)"/>
<path d="M78.5224 170.503L120.788 145.819C116.702 128.567 101.196 115.73 82.6913 115.73C61.0559 115.73 43.5234 133.263 43.5234 154.898C43.5234 157.37 43.7541 159.792 44.199 162.149L78.5224 170.503Z" fill="url(#paint10_linear_40_4166)"/>
<path d="M157.303 205.996C158.006 204.898 158.688 203.783 159.347 202.651C160.731 200.245 161.989 197.801 163.12 195.319L17.736 159.957C17.725 160.957 17.7305 161.962 17.7524 162.972L157.303 205.996Z" fill="url(#paint11_linear_40_4166)"/>
<path d="M139.868 225.671C143.115 223.018 146.163 220.085 148.997 216.937L22.1836 186.074C22.634 187.338 23.1228 188.59 23.6501 189.831L139.868 225.671Z" fill="url(#paint12_linear_40_4166)"/>
<path d="M109.37 241.308C114.412 239.956 119.273 238.127 123.92 235.87L41.4648 215.816C44.2661 218.486 47.2486 220.925 50.3958 223.116L109.37 241.308Z" fill="url(#paint13_linear_40_4166)"/>
<path d="M97.2579 114.132C98.4113 114.539 99.5373 114.994 100.636 115.5L106.996 95.7758C106.667 95.5341 106.337 95.2925 106.008 95.0508L96.8789 114C96.9997 114.044 97.1261 114.088 97.2579 114.132Z" fill="url(#paint14_linear_40_4166)"/>
<path d="M115.086 126.193L131.399 107.474C130.718 107.265 130.036 107.056 129.355 106.848L111.395 122.502C112.696 123.655 113.932 124.891 115.086 126.193Z" fill="url(#paint15_linear_40_4166)"/>
<path d="M114.049 49.589C148.982 72.9876 172.974 102.186 172.974 102.186C172.974 102.186 195.779 44.6457 124.265 25.8609C93.6658 17.8362 87.3713 0.699219 87.3713 0.699219C68.4052 78.3758 113.176 101.956 146.56 106.52C153.415 107.459 159.462 111.496 162.922 117.478C196.488 175.628 154.519 248.312 87.3877 248.312C39.7997 248.312 4.86663 211.814 0.5 169.861C4.20752 216.048 42.3043 256.699 94.4567 256.699C153.711 256.699 204.133 190.392 175.017 120.444C165.427 97.4242 114.049 49.589 114.049 49.589Z" fill="url(#paint16_linear_40_4166)"/>
<path d="M67.3026 18.5781C67.3026 18.5781 64.0894 25.334 70.6806 28.2341C74.0421 21.8407 67.3026 18.5781 67.3026 18.5781Z" fill="url(#paint17_linear_40_4166)"/>
<path d="M82.3474 25.8124C82.3474 25.8124 79.0848 32.5518 72.6914 29.2068C75.5915 22.5992 82.3474 25.8124 82.3474 25.8124Z" fill="url(#paint18_linear_40_4166)"/>
<path d="M79.6746 12.5312C79.6746 12.5312 72.655 15.1183 75.3574 21.8083C82.2287 19.5673 79.6746 12.5312 79.6746 12.5312Z" fill="url(#paint19_linear_40_4166)"/>
<path d="M60.0508 29.2227C60.0508 29.2227 56.5246 36.5718 63.7254 39.7355C67.3835 32.7654 60.0508 29.2227 60.0508 29.2227Z" fill="url(#paint20_linear_40_4166)"/>
<path d="M77.091 37.4294C77.091 37.4294 73.5318 44.7621 66.5781 41.1205C69.7419 33.9197 77.091 37.4294 77.091 37.4294Z" fill="url(#paint21_linear_40_4166)"/>
<path d="M51.6959 40.2461C51.6959 40.2461 47.5105 49.0288 56.0954 52.8187C60.4621 44.4974 51.6959 40.2461 51.6959 40.2461Z" fill="url(#paint22_linear_40_4166)"/>
<path d="M72.2601 50.3309C72.2601 50.3309 68.0088 59.0806 59.6875 54.7304C63.4774 46.129 72.2601 50.3309 72.2601 50.3309Z" fill="url(#paint23_linear_40_4166)"/>
<path d="M43.0798 52.9492C43.0798 52.9492 38.499 62.5393 47.8749 66.6753C52.637 57.596 43.0798 52.9492 43.0798 52.9492Z" fill="url(#paint24_linear_40_4166)"/>
<path d="M66.5932 63.5622C66.5932 63.5622 61.9465 73.1359 52.8672 68.3738C57.0031 58.9814 66.5932 63.5622 66.5932 63.5622Z" fill="url(#paint25_linear_40_4166)"/>
<path d="M35.0232 64.6484C35.0232 64.6484 29.981 75.1943 40.3126 79.7422C45.5525 69.7401 35.0232 64.6484 35.0232 64.6484Z" fill="url(#paint26_linear_40_4166)"/>
<path d="M61.0078 76.9429C61.0078 76.9429 55.9161 87.4722 45.9141 82.2323C50.462 71.9171 61.0078 76.9429 61.0078 76.9429Z" fill="url(#paint27_linear_40_4166)"/>
<path d="M24.5747 78.3906C24.5747 78.3906 18.7086 90.6337 30.7045 95.9231C36.7848 84.3062 24.5747 78.3906 24.5747 78.3906Z" fill="url(#paint28_linear_40_4166)"/>
<path d="M54.3324 93.3362C54.3324 93.3362 48.4168 105.563 36.8164 99.4824C42.0893 87.4865 54.3324 93.3362 54.3324 93.3362Z" fill="url(#paint29_linear_40_4166)"/>
<path d="M228.884 38.0039C228.884 38.0039 224.814 46.6713 207.364 52.6857C194.709 57.0523 184.822 59.7876 179.615 71.0914C180.62 76.7104 180.818 82.6095 180.192 88.6568C179.862 91.7711 179.352 94.5394 178.824 96.8134C186.865 82.3952 199.586 72.0472 213.329 66.5271C213.329 66.5271 175.496 88.9534 184.048 134.268C183.718 112.187 191.397 100.142 194.363 99.73C213.84 97.077 239.957 83.318 228.884 38.0039Z" fill="url(#paint30_linear_40_4166)"/>
<defs>
<linearGradient id="paint0_linear_40_4166" x1="65.0016" y1="64.3979" x2="28.2298" y2="160.339" gradientUnits="userSpaceOnUse">
<stop stop-color="#FAEA15"/>
<stop offset="0.591" stop-color="#EF542F"/>
<stop offset="1" stop-color="#EC1C24"/>
</linearGradient>
<linearGradient id="paint1_linear_40_4166" x1="134.647" y1="-116.784" x2="2.78776" y2="227.249" gradientUnits="userSpaceOnUse">
<stop stop-color="#FAEA15"/>
<stop offset="0.591" stop-color="#EF542F"/>
<stop offset="1" stop-color="#EC1C24"/>
</linearGradient>
<linearGradient id="paint2_linear_40_4166" x1="88.1982" y1="38.0673" x2="25.6175" y2="201.346" gradientUnits="userSpaceOnUse">
<stop stop-color="#FAEA15"/>
<stop offset="0.591" stop-color="#EF542F"/>
<stop offset="1" stop-color="#EC1C24"/>
</linearGradient>
<linearGradient id="paint3_linear_40_4166" x1="414.118" y1="67.5531" x2="347.201" y2="349.46" gradientUnits="userSpaceOnUse">
<stop stop-color="#FAEA15"/>
<stop offset="0.661" stop-color="#EF542F"/>
<stop offset="1" stop-color="#EC1C24"/>
</linearGradient>
<linearGradient id="paint4_linear_40_4166" x1="205.999" y1="141.582" x2="-43.2611" y2="291.137" gradientUnits="userSpaceOnUse">
<stop stop-color="#BED62F"/>
<stop offset="1" stop-color="#046738"/>
</linearGradient>
<linearGradient id="paint5_linear_40_4166" x1="212.825" y1="155.202" x2="-34.926" y2="303.853" gradientUnits="userSpaceOnUse">
<stop stop-color="#BED62F"/>
<stop offset="1" stop-color="#046738"/>
</linearGradient>
<linearGradient id="paint6_linear_40_4166" x1="219.583" y1="165.667" x2="-30.1758" y2="315.523" gradientUnits="userSpaceOnUse">
<stop stop-color="#BED62F"/>
<stop offset="1" stop-color="#046738"/>
</linearGradient>
<linearGradient id="paint7_linear_40_4166" x1="104.012" y1="78.624" x2="59.2257" y2="195.476" gradientUnits="userSpaceOnUse">
<stop stop-color="#FAEA15"/>
<stop offset="0.591" stop-color="#EF542F"/>
<stop offset="1" stop-color="#EC1C24"/>
</linearGradient>
<linearGradient id="paint8_linear_40_4166" x1="213.616" y1="131.302" x2="180.046" y2="218.887" gradientUnits="userSpaceOnUse">
<stop stop-color="#FAEA15"/>
<stop offset="0.591" stop-color="#EF542F"/>
<stop offset="1" stop-color="#EC1C24"/>
</linearGradient>
<linearGradient id="paint9_linear_40_4166" x1="151.164" y1="107.667" x2="117.581" y2="195.29" gradientUnits="userSpaceOnUse">
<stop stop-color="#FAEA15"/>
<stop offset="0.591" stop-color="#EF542F"/>
<stop offset="1" stop-color="#EC1C24"/>
</linearGradient>
<linearGradient id="paint10_linear_40_4166" x1="136.017" y1="80.6246" x2="92.8353" y2="193.288" gradientUnits="userSpaceOnUse">
<stop stop-color="#FAEA15"/>
<stop offset="0.591" stop-color="#EF542F"/>
<stop offset="1" stop-color="#EC1C24"/>
</linearGradient>
<linearGradient id="paint11_linear_40_4166" x1="238.936" y1="121.267" x2="-91.5495" y2="319.559" gradientUnits="userSpaceOnUse">
<stop stop-color="#BED62F"/>
<stop offset="1" stop-color="#046738"/>
</linearGradient>
<linearGradient id="paint12_linear_40_4166" x1="251.958" y1="129.552" x2="-80.1825" y2="328.837" gradientUnits="userSpaceOnUse">
<stop stop-color="#BED62F"/>
<stop offset="1" stop-color="#046738"/>
</linearGradient>
<linearGradient id="paint13_linear_40_4166" x1="263.723" y1="135.055" x2="-70.2254" y2="335.425" gradientUnits="userSpaceOnUse">
<stop stop-color="#BED62F"/>
<stop offset="1" stop-color="#046738"/>
</linearGradient>
<linearGradient id="paint14_linear_40_4166" x1="128.945" y1="98.9163" x2="93.5605" y2="191.237" gradientUnits="userSpaceOnUse">
<stop stop-color="#FAEA15"/>
<stop offset="0.591" stop-color="#EF542F"/>
<stop offset="1" stop-color="#EC1C24"/>
</linearGradient>
<linearGradient id="paint15_linear_40_4166" x1="139.798" y1="102.606" x2="104.392" y2="194.982" gradientUnits="userSpaceOnUse">
<stop stop-color="#FAEA15"/>
<stop offset="0.591" stop-color="#EF542F"/>
<stop offset="1" stop-color="#EC1C24"/>
</linearGradient>
<linearGradient id="paint16_linear_40_4166" x1="397.606" y1="99.608" x2="160.547" y2="393.887" gradientUnits="userSpaceOnUse">
<stop stop-color="#BED62F"/>
<stop offset="1" stop-color="#046738"/>
</linearGradient>
<linearGradient id="paint17_linear_40_4166" x1="88.3111" y1="-14.309" x2="12.2635" y2="306.061" gradientUnits="userSpaceOnUse">
<stop stop-color="#FAEA15"/>
<stop offset="0.661" stop-color="#EF542F"/>
<stop offset="1" stop-color="#EC1C24"/>
</linearGradient>
<linearGradient id="paint18_linear_40_4166" x1="89.3077" y1="-13.8601" x2="14.4041" y2="301.691" gradientUnits="userSpaceOnUse">
<stop stop-color="#FAEA15"/>
<stop offset="0.661" stop-color="#EF542F"/>
<stop offset="1" stop-color="#EC1C24"/>
</linearGradient>
<linearGradient id="paint19_linear_40_4166" x1="92.063" y1="-6.19501" x2="28.5698" y2="261.286" gradientUnits="userSpaceOnUse">
<stop stop-color="#FAEA15"/>
<stop offset="0.661" stop-color="#EF542F"/>
<stop offset="1" stop-color="#EC1C24"/>
</linearGradient>
<linearGradient id="paint20_linear_40_4166" x1="85.5991" y1="-17.8548" x2="9.55159" y2="302.515" gradientUnits="userSpaceOnUse">
<stop stop-color="#FAEA15"/>
<stop offset="0.661" stop-color="#EF542F"/>
<stop offset="1" stop-color="#EC1C24"/>
</linearGradient>
<linearGradient id="paint21_linear_40_4166" x1="87.3528" y1="-17.065" x2="12.4492" y2="298.485" gradientUnits="userSpaceOnUse">
<stop stop-color="#FAEA15"/>
<stop offset="0.661" stop-color="#EF542F"/>
<stop offset="1" stop-color="#EC1C24"/>
</linearGradient>
<linearGradient id="paint22_linear_40_4166" x1="83.5385" y1="-21.5202" x2="7.49093" y2="298.85" gradientUnits="userSpaceOnUse">
<stop stop-color="#FAEA15"/>
<stop offset="0.661" stop-color="#EF542F"/>
<stop offset="1" stop-color="#EC1C24"/>
</linearGradient>
<linearGradient id="paint23_linear_40_4166" x1="85.8713" y1="-20.4774" x2="10.9678" y2="295.073" gradientUnits="userSpaceOnUse">
<stop stop-color="#FAEA15"/>
<stop offset="0.661" stop-color="#EF542F"/>
<stop offset="1" stop-color="#EC1C24"/>
</linearGradient>
<linearGradient id="paint24_linear_40_4166" x1="80.5061" y1="-25.7192" x2="4.45868" y2="294.651" gradientUnits="userSpaceOnUse">
<stop stop-color="#FAEA15"/>
<stop offset="0.661" stop-color="#EF542F"/>
<stop offset="1" stop-color="#EC1C24"/>
</linearGradient>
<linearGradient id="paint25_linear_40_4166" x1="83.9011" y1="-24.0659" x2="8.99745" y2="291.485" gradientUnits="userSpaceOnUse">
<stop stop-color="#FAEA15"/>
<stop offset="0.661" stop-color="#EF542F"/>
<stop offset="1" stop-color="#EC1C24"/>
</linearGradient>
<linearGradient id="paint26_linear_40_4166" x1="78.0216" y1="-29.5493" x2="1.97386" y2="290.821" gradientUnits="userSpaceOnUse">
<stop stop-color="#FAEA15"/>
<stop offset="0.661" stop-color="#EF542F"/>
<stop offset="1" stop-color="#EC1C24"/>
</linearGradient>
<linearGradient id="paint27_linear_40_4166" x1="82.0067" y1="-27.674" x2="7.1033" y2="287.876" gradientUnits="userSpaceOnUse">
<stop stop-color="#FAEA15"/>
<stop offset="0.661" stop-color="#EF542F"/>
<stop offset="1" stop-color="#EC1C24"/>
</linearGradient>
<linearGradient id="paint28_linear_40_4166" x1="75.2408" y1="-34.1576" x2="-0.806514" y2="286.212" gradientUnits="userSpaceOnUse">
<stop stop-color="#FAEA15"/>
<stop offset="0.661" stop-color="#EF542F"/>
<stop offset="1" stop-color="#EC1C24"/>
</linearGradient>
<linearGradient id="paint29_linear_40_4166" x1="79.6641" y1="-32.1387" x2="4.7607" y2="283.411" gradientUnits="userSpaceOnUse">
<stop stop-color="#FAEA15"/>
<stop offset="0.661" stop-color="#EF542F"/>
<stop offset="1" stop-color="#EC1C24"/>
</linearGradient>
<linearGradient id="paint30_linear_40_4166" x1="311.961" y1="110.885" x2="131.725" y2="334.626" gradientUnits="userSpaceOnUse">
<stop stop-color="#BED62F"/>
<stop offset="1" stop-color="#046738"/>
</linearGradient>
</defs>
</svg>
