<svg width="256" height="257" viewBox="0 0 256 257" fill="none" xmlns="http://www.w3.org/2000/svg">
<path d="M253.486 129.877C253.486 134.755 253.197 139.595 252.657 144.339C252.515 145.65 252.348 146.955 252.156 148.253C251.538 152.457 250.709 156.603 249.707 160.652C249.372 161.951 249.025 163.236 248.665 164.509C247.489 168.655 246.101 172.723 244.519 176.676C244.018 177.936 243.498 179.19 242.958 180.437C241.203 184.428 239.255 188.323 237.115 192.083C236.434 193.305 235.726 194.513 234.994 195.709C232.68 199.488 230.173 203.132 227.493 206.623C226.606 207.793 225.693 208.943 224.755 210.074C221.631 213.873 218.275 217.498 214.747 220.911C213.487 222.107 212.208 223.283 210.909 224.44C205.992 228.798 200.747 232.77 195.194 236.318C192.976 237.745 190.739 239.095 188.445 240.368H188.426C170.28 250.453 149.378 256.199 127.144 256.199C104.873 256.199 83.9314 250.433 65.7669 240.31C64.2757 239.487 62.8102 238.632 61.3705 237.745C44.3244 227.333 29.9393 213.005 19.488 195.998C18.7424 194.802 18.0225 193.594 17.3283 192.373C15.1686 188.574 13.2018 184.659 11.4277 180.649C10.875 179.389 10.3479 178.123 9.84653 176.85C8.24605 172.878 6.8384 168.809 5.66215 164.644C5.28934 163.358 4.94225 162.066 4.62086 160.768C3.59244 156.706 2.76972 152.56 2.15267 148.33C1.95984 147.045 1.7927 145.747 1.65129 144.435C1.17565 140.309 0.899273 136.131 0.822141 131.901C0.809286 131.22 0.809286 130.545 0.822141 129.877C0.809286 129.234 0.809286 128.598 0.822141 127.968C0.87999 123.726 1.16922 119.522 1.63201 115.395C1.78628 114.071 1.95984 112.754 2.15267 111.442C2.82757 106.718 3.7917 102.09 4.98724 97.5586C5.34719 96.1702 5.73927 94.7883 6.1635 93.4128C19.1409 50.2191 54.6407 16.7632 99.0107 6.67828C99.962 6.45974 100.913 6.25404 101.865 6.06121C110.021 4.40288 118.486 3.53516 127.144 3.53516C169.644 3.53516 207.226 24.515 230.134 56.6788C231.934 59.2113 233.644 61.8145 235.264 64.4884C235.315 64.5784 235.373 64.662 235.437 64.7391V64.7584C236.838 67.0852 238.169 69.4634 239.429 71.8931C243.517 79.799 246.795 88.2064 249.167 96.9801C249.334 97.61 249.494 98.2399 249.649 98.8698C250.022 100.322 250.362 101.782 250.671 103.247C250.941 104.507 251.191 105.773 251.423 107.046C251.976 110.041 252.413 113.068 252.734 116.128C252.824 116.874 252.901 117.613 252.965 118.346C253.171 120.621 253.312 122.909 253.39 125.21C253.415 125.879 253.435 126.554 253.447 127.235C253.473 128.109 253.486 128.99 253.486 129.877Z" fill="#231F20"/>
<path fill-rule="evenodd" clip-rule="evenodd" d="M255.914 128.064C255.201 128.218 254.352 127.891 253.446 127.235C250.554 125.075 247.237 119.464 247.179 115.665C247.141 112.484 244.306 109.861 240.816 110.073C239.485 110.15 238.213 110.517 237.191 111.346C233.083 114.701 245.772 114.373 244.923 119.638C244.075 124.882 241.664 123.899 243.342 129.819C245.039 135.739 251.209 138.92 243.342 144.165C243.419 144.108 244.402 142.97 244.364 140.637C244.287 135.237 238.965 131.13 233.045 131.728C230.152 132.017 227.125 132.017 225.698 131.034C223.442 129.433 215.073 123.648 209.809 118.558L206.145 122.009C206.242 122.8 206.203 123.533 205.933 124.227C221.282 171.779 198.567 215.763 167.541 234.795V234.814C162.469 237.938 157.012 240.445 151.401 242.45C134.451 248.505 117.058 248.929 99.5107 245.69C84.9329 243.01 71.1841 237.707 58.5346 229.916C43.8988 220.892 31.1336 209.091 19.9688 196.094C24.8473 201.031 30.073 203.711 35.5493 205.311C50.3201 216.727 65.9006 225.616 82.4454 231.517C69.2366 225.269 56.0278 216.804 42.8383 206.854C45.2487 207.22 47.6976 207.49 50.1658 207.722C62.8925 216.727 76.217 223.862 90.2357 228.875C78.878 223.495 67.5204 216.496 56.1821 208.32C68.0025 209.554 80.5556 211.964 93.3788 224.286C81.3462 207.51 84.4701 194.34 86.8611 179.974C90.6599 188.053 92.2218 199.449 93.2631 211.598C94.5743 198.003 92.7424 186.164 87.4589 176.233C87.9024 173.302 88.2495 170.274 88.3845 167.17C99.2022 177.795 102.577 199.43 104.601 223.032C107.07 197.733 101.921 176.619 88.2881 160.247C87.8831 154.675 86.5912 148.735 83.7373 142.218C83.7373 142.218 93.1667 151.859 101.728 163.776C111.08 176.811 115.303 192.238 113.645 206.777C111.852 222.55 112.989 227.487 112.989 227.487C113.028 238.42 124.559 245.034 134.529 242.836C140.506 241.505 144.98 237.244 148.239 232.269C160.059 214.201 150.88 183.85 155.99 150.124C153.252 153.325 150.437 156.468 147.969 159.148C146.677 161.173 145.481 163.063 145.481 163.063C144.864 164.027 144.234 164.92 143.591 165.743C137.672 173.514 130.845 175.712 123.595 175.442L128.474 171.509C124.309 170.718 118.62 173.051 111.35 178.624C118.099 166.167 126.063 163.93 131.829 162.6C139.966 153.248 155.219 135.565 158.208 131.188C159.326 129.549 160.965 125.75 162.894 120.987L161.891 115.145L154.756 98.812C154.756 98.812 144.131 94.2034 146.542 83.4628C146.754 82.5565 146.985 81.7466 147.255 81.0332C132.523 72.298 119.97 62.1552 112.237 48.9271C111.325 47.6416 110.354 46.4075 109.326 45.2248C109.326 45.2055 107.359 42.9687 105.508 40.8669C103.888 39.0157 102.384 37.2995 102.384 37.2995C101.632 36.4318 100.938 35.6026 100.321 34.7542C94.4779 26.9061 94.2658 19.7328 96.5219 12.8488L98.9515 18.6144C100.34 15.8569 100.378 11.904 99.0094 6.67829C98.4952 4.69858 97.7753 2.53888 96.8497 0.199219C98.913 2.22392 100.552 4.19078 101.863 6.06123C109.962 17.8045 104.891 26.6747 107.05 31.0712L111.119 34.6771L116.403 39.3628L120.703 44.9163C128.686 49.12 135.473 55.4448 141.22 63.5821C146.947 65.6261 151.729 67.8051 155.836 70.0419C156.318 68.75 156.646 67.0916 156.82 64.9512C156.858 64.4884 156.877 64.0642 156.916 63.64C156.492 59.1085 155.18 58.9735 155.18 58.9735C155.18 58.9735 147.487 64.0642 145.211 63.7364C142.955 63.4086 144.671 59.9569 143.321 59.4556C141.952 58.9735 139.87 56.9103 139.773 55.8497C139.677 54.7699 138.867 53.6322 138.867 53.6322C138.867 53.6322 135.955 54.982 134.336 54.6156C132.87 54.2878 136.418 47.4038 134.336 46.5553C126.892 43.5472 132.986 22.4131 138.212 23.4158C146.291 15.7027 155.528 13.3695 166.095 17.1875C172.998 19.6557 178.725 24.245 182.524 30.0299C190.565 42.2552 199.743 45.167 209.751 41.3875C209.5 45.0898 208.594 48.2908 205.181 49.5635C214.63 50.9133 223.037 53.1886 230.133 56.6789C231.933 59.2113 233.643 61.8145 235.262 64.4884C234.697 64.1156 234.125 63.7428 233.546 63.37C233.263 63.1901 232.974 63.0101 232.678 62.8301C232.46 62.6887 232.241 62.5537 232.023 62.4252C231.869 62.3223 231.701 62.2259 231.522 62.1359C231.187 61.9302 230.847 61.7245 230.5 61.5189C230.23 61.3646 229.979 61.2103 229.69 61.0561C229.69 61.0561 229.683 61.0561 229.67 61.0561C229.657 61.0432 229.651 61.0368 229.651 61.0368C229.278 60.8311 228.905 60.6254 228.533 60.4197C228.16 60.2141 227.781 60.0148 227.395 59.822C227.099 59.6677 226.797 59.5134 226.489 59.3592C226.373 59.2949 226.257 59.237 226.142 59.1856C225.884 59.0571 225.634 58.9349 225.39 58.8192C224.978 58.6264 224.56 58.4336 224.136 58.2408C223.943 58.1636 223.757 58.0801 223.577 57.9901C223.538 57.9772 223.506 57.9708 223.481 57.9708C223.198 57.8423 222.908 57.7137 222.613 57.5852C222.523 57.5595 222.433 57.5273 222.343 57.4887C222.099 57.3859 221.848 57.283 221.591 57.1802C221.321 57.0774 221.057 56.9809 220.8 56.891C220.659 56.8267 220.511 56.7753 220.357 56.7367C220.177 56.6596 219.997 56.5953 219.817 56.5439C219.65 56.4667 219.476 56.4025 219.296 56.3511C219.168 56.3125 219.039 56.2739 218.91 56.2354C218.775 56.1775 218.621 56.1389 218.467 56.0811C218.454 56.0811 218.435 56.0747 218.409 56.0618C218.409 56.0618 218.403 56.0618 218.39 56.0618C218.184 55.9975 217.978 55.9333 217.773 55.869C217.696 55.8433 217.625 55.824 217.561 55.8111C217.316 55.734 217.072 55.6633 216.828 55.599C216.693 55.5604 216.558 55.5219 216.404 55.4833C216.301 55.4576 216.185 55.4255 216.057 55.3869C215.787 55.3226 215.517 55.2584 215.247 55.1941C214.957 55.1169 214.668 55.0591 214.379 54.982C214.263 54.9691 214.141 54.9498 214.013 54.9241C213.923 54.8984 213.826 54.8727 213.723 54.847C213.627 54.8277 213.531 54.8084 213.434 54.7891C213.421 54.7891 213.415 54.7891 213.415 54.7891C213.248 54.7506 213.074 54.7184 212.894 54.6927C212.817 54.6799 212.734 54.667 212.644 54.6541C212.566 54.6284 212.483 54.6092 212.393 54.5963C212.29 54.5835 212.187 54.5706 212.084 54.5577C211.949 54.5192 211.814 54.4999 211.679 54.4806C211.551 54.4677 211.416 54.4485 211.274 54.4228C211.043 54.3842 210.805 54.3521 210.561 54.3263C210.497 54.3135 210.432 54.3071 210.368 54.3071C210.252 54.2814 210.13 54.2685 210.002 54.2685C209.982 54.2492 209.944 54.2492 209.925 54.2492C209.719 54.2235 209.513 54.2042 209.308 54.1914C209.295 54.1785 209.275 54.1721 209.25 54.1721C208.98 54.1528 208.691 54.1335 208.401 54.0949C208.376 54.0949 208.356 54.0949 208.343 54.0949C208.112 54.0821 207.887 54.0692 207.669 54.0564C207.63 54.0564 207.598 54.0564 207.572 54.0564C207.392 54.0435 207.212 54.0307 207.032 54.0178C206.711 54.005 206.389 53.9985 206.068 53.9985C206.017 53.9857 205.965 53.9792 205.914 53.9792C205.631 53.9792 205.355 53.9792 205.085 53.9792C203.221 53.9792 201.305 54.1014 199.338 54.3456C199.711 54.3713 200.078 54.397 200.437 54.4228C200.515 54.4228 200.572 54.4228 200.65 54.4228C200.881 54.4485 201.112 54.4677 201.344 54.4806C201.524 54.4934 201.704 54.5063 201.884 54.5192C202.167 54.5577 202.456 54.5899 202.751 54.6156C202.944 54.6413 203.137 54.6606 203.33 54.6734C203.51 54.6991 203.696 54.7184 203.889 54.7313C204.031 54.757 204.172 54.7763 204.313 54.7891C204.558 54.8149 204.795 54.847 205.027 54.8856C205.361 54.9241 205.695 54.9691 206.03 55.0205C206.222 55.0462 206.409 55.072 206.589 55.0977C207.219 55.2005 207.842 55.3098 208.459 55.4255C208.601 55.4383 208.736 55.4576 208.864 55.4833C208.903 55.4962 208.941 55.509 208.98 55.5219C209.173 55.5476 209.365 55.5797 209.558 55.6183C209.751 55.6569 209.944 55.6954 210.137 55.734C210.317 55.7725 210.503 55.8111 210.696 55.8497C210.966 55.9011 211.229 55.959 211.487 56.0232C211.705 56.0746 211.917 56.1197 212.123 56.1582C212.136 56.1711 212.149 56.1775 212.161 56.1775C212.521 56.2546 212.875 56.3382 213.222 56.4282C213.543 56.5053 213.865 56.5824 214.186 56.6596C214.405 56.711 214.623 56.7688 214.842 56.8331C215.06 56.8974 215.279 56.9553 215.497 57.0067C215.587 57.0324 215.684 57.0581 215.787 57.0838C216.108 57.1738 216.423 57.2638 216.732 57.3538C216.757 57.3666 216.789 57.373 216.828 57.373C217.136 57.4694 217.464 57.5659 217.792 57.6623C218.242 57.7908 218.686 57.9322 219.123 58.0865C219.495 58.2022 219.862 58.3179 220.222 58.4336C220.993 58.6907 221.764 58.9542 222.536 59.2242C222.921 59.3656 223.307 59.507 223.693 59.6484C224.053 59.777 224.413 59.912 224.772 60.0534C224.811 60.0726 224.85 60.0919 224.888 60.0919C225.261 60.2333 225.627 60.3812 225.987 60.5354C226.373 60.6704 226.739 60.8247 227.125 60.9789C227.138 60.9918 227.151 60.9982 227.164 60.9982C227.549 61.1525 227.916 61.3068 228.301 61.461C228.674 61.6281 229.053 61.7953 229.439 61.9624C229.786 62.1166 230.133 62.2709 230.48 62.4252C230.532 62.438 230.59 62.4573 230.654 62.483C231.014 62.6501 231.374 62.8173 231.734 62.9844C232.505 63.3315 233.27 63.6914 234.028 64.0642C234.491 64.2956 234.96 64.5206 235.436 64.7391C235.577 64.8162 235.725 64.8934 235.879 64.9705C235.725 64.8934 235.577 64.8227 235.436 64.7584C236.837 67.0852 238.168 69.4634 239.428 71.8931C234.183 69.1742 227.704 66.5517 221.07 65.7033C221.398 66.0118 221.707 66.3203 222.015 66.6288C225.312 67.323 228.494 68.48 231.406 70.0612C236.863 73.0308 243.631 78.7385 244.364 84.8126C244.769 88.2257 240.16 92.8729 244.171 95.5918C245.521 96.5173 247.314 96.903 249.165 96.9801C249.332 97.61 249.493 98.2399 249.647 98.8699C246.408 100.143 242.725 100.143 237.422 95.4182C237.422 95.4182 236.092 103.074 247.218 103.074C248.433 103.074 249.59 103.131 250.669 103.247C250.939 104.507 251.19 105.773 251.421 107.046C251.344 107.007 251.274 106.969 251.209 106.93C251.106 106.879 251.004 106.827 250.901 106.776C250.888 106.763 250.875 106.757 250.862 106.757C250.759 106.705 250.65 106.654 250.534 106.602C250.522 106.589 250.515 106.583 250.515 106.583C250.399 106.532 250.284 106.48 250.168 106.429C250.117 106.416 250.065 106.397 250.014 106.371C249.924 106.332 249.834 106.3 249.744 106.274C249.615 106.223 249.493 106.178 249.377 106.139C249.339 106.127 249.3 106.114 249.262 106.101C249.146 106.05 249.024 106.005 248.895 105.966C248.6 105.876 248.291 105.786 247.97 105.696C247.803 105.645 247.636 105.6 247.468 105.561C247.301 105.522 247.134 105.484 246.967 105.445C246.794 105.387 246.62 105.349 246.446 105.31C246.254 105.272 246.061 105.233 245.868 105.195C251.904 107.779 253.89 112.252 250.11 119.445C250.2 119.342 250.284 119.245 250.361 119.155C250.457 119.059 250.534 118.963 250.612 118.866C250.714 118.751 250.824 118.635 250.939 118.519C251.029 118.391 251.126 118.275 251.229 118.172C251.344 118.031 251.454 117.889 251.556 117.748C251.672 117.606 251.781 117.471 251.884 117.343C251.987 117.201 252.09 117.06 252.193 116.919C252.231 116.861 252.289 116.803 252.328 116.726C252.386 116.668 252.424 116.591 252.463 116.533C252.553 116.404 252.636 116.282 252.713 116.167C252.726 116.154 252.733 116.141 252.733 116.128C252.823 116.874 252.9 117.613 252.964 118.346C252.9 118.41 252.836 118.474 252.771 118.538C250.997 121.142 252.039 123.494 253.388 125.21C254.719 126.888 256.339 127.968 255.914 128.064ZM152.539 233.349C152.346 233.169 152.16 232.976 151.98 232.77C151.98 232.925 151.98 233.072 151.98 233.214L152.539 233.349ZM187.769 45.3791C192.242 47.2495 197.661 47.2302 203.812 45.6876C203.812 45.6876 203.818 45.6876 203.831 45.6876C200.341 46.1504 197.102 46.0925 194.151 45.4755C193.239 45.2955 192.351 45.0641 191.49 44.7813C191.195 44.6913 190.905 44.5885 190.622 44.4728C190.211 44.3185 189.8 44.1514 189.388 43.9714C189.106 43.8429 188.829 43.7079 188.559 43.5665C188.302 43.4379 188.039 43.3029 187.769 43.1615C187.64 43.0844 187.511 43.0073 187.383 42.9302C186.869 42.6345 186.361 42.3195 185.86 41.9853C185.86 41.9724 185.86 41.966 185.86 41.966C185.243 41.5418 184.638 41.0854 184.047 40.5969V40.5776C183.816 40.3848 183.584 40.1855 183.353 39.9799C183.121 39.7742 182.896 39.5621 182.678 39.3435C181.894 38.5722 181.142 37.7366 180.422 36.8367C180.229 36.5925 180.043 36.3483 179.863 36.104C179.837 36.0654 179.805 36.0269 179.766 35.9883C179.586 35.7312 179.406 35.4741 179.226 35.217C178.931 34.8056 178.648 34.3814 178.378 33.9443C178.185 33.6486 177.999 33.3465 177.819 33.038C177.639 32.7423 177.465 32.4338 177.298 32.1124C177.118 31.8039 176.944 31.4825 176.777 31.1483C176.443 30.5055 176.115 29.8371 175.794 29.1429C175.845 29.3357 175.897 29.5285 175.948 29.7214C177.452 35.0627 179.631 39.035 182.427 41.7925C182.53 41.8953 182.626 41.9981 182.716 42.101C183.424 42.7695 184.169 43.3608 184.953 43.875C185.403 44.1707 185.86 44.4471 186.322 44.7042C186.567 44.8199 186.804 44.9356 187.036 45.0513C187.28 45.167 187.524 45.2762 187.769 45.3791ZM202.732 115.357C202.404 110.806 200.765 105.6 196.08 101.049C194.479 99.4869 192.821 98.8698 191.143 98.9855L192.744 104.5C195.752 107.74 199.84 111.635 202.732 115.357ZM244.788 97.7514C240.951 95.6303 238.444 93.0078 240.392 88.7077C236.863 93.0464 238.965 95.9003 244.788 97.7514ZM234.742 126.174C232.891 125.962 231.078 126.039 229.381 125.885C228.533 125.827 227.703 125.692 227.009 125.422L226.739 125.326L226.469 125.191C226.296 125.095 226.103 125.037 225.929 124.921L225.39 124.632L224.869 124.304C223.5 123.417 222.266 122.318 221.109 121.122C219.952 119.927 218.872 118.654 217.792 117.362C217.239 116.719 216.699 116.077 216.172 115.434C215.954 115.164 215.735 114.894 215.517 114.624C215.298 114.354 215.08 114.084 214.861 113.814L213.993 114.624C214.199 114.933 214.405 115.235 214.61 115.53C214.636 115.569 214.655 115.601 214.668 115.627C214.861 115.897 215.054 116.167 215.247 116.437C215.671 117.015 216.095 117.613 216.539 118.191C217.541 119.541 218.583 120.891 219.759 122.164C220.935 123.456 222.266 124.67 223.828 125.654L224.425 126.02L225.042 126.348C225.255 126.444 225.486 126.541 225.698 126.637L226.026 126.772L226.392 126.907C227.356 127.216 228.34 127.312 229.285 127.331C231.174 127.37 232.929 127.139 234.684 127.119C235.552 127.119 236.4 127.158 237.229 127.37C238.058 127.563 238.849 127.948 239.485 128.527C239.023 127.813 238.309 127.216 237.461 126.849C236.593 126.464 235.667 126.29 234.742 126.174ZM238.386 84.0992L236.631 79.8762C235.783 77.3116 234.067 75.5761 231.714 74.4384C228.205 72.7222 223.905 72.7222 220.299 74.3034L213.01 77.4658C219.952 76.9645 225.929 79.8569 231.213 85.2561C231.02 81.1103 228.34 78.1986 223.114 76.5595C229.188 74.2456 233.893 78.6807 238.386 84.0992Z" fill="white"/>
<path d="M155.237 113.292C148.565 114.526 140.582 115.529 128.067 115.529C111.079 115.529 102.44 113.697 94.1097 111.923C85.5867 110.091 77.5264 108.375 60.9624 108.375C44.3984 108.375 36.3381 110.091 27.8344 111.923C20.854 113.408 13.7 114.931 1.62891 115.394C1.78317 114.07 1.95673 112.752 2.14956 111.441C13.3915 110.978 20.0441 109.551 27.0052 108.067C35.3547 106.293 43.9935 104.441 60.9624 104.441C77.9507 104.441 86.5701 106.293 94.9196 108.067C103.443 109.879 111.503 111.595 128.067 111.595C139.791 111.595 147.234 110.747 153.617 109.59L155.237 113.292Z" fill="white"/>
<path d="M108.266 163.893C110.483 164.182 112.855 164.413 115.497 164.587C117.252 163.064 119.007 161.868 120.684 160.923C114.398 160.692 109.519 160.171 105.258 159.516C105.528 159.888 105.804 160.268 106.087 160.653C106.839 161.714 107.572 162.813 108.266 163.893Z" fill="white"/>
<path d="M128.07 210.499C124.58 210.499 121.494 210.441 118.679 210.287C118.538 211.701 118.422 213.012 118.332 214.221C121.263 214.356 124.464 214.433 128.07 214.433C136.786 214.433 143.323 213.951 148.722 213.237C148.863 211.939 148.979 210.602 149.069 209.227C143.631 209.998 137.114 210.499 128.07 210.499Z" fill="white"/>
<path d="M82.8094 159.244C77.2173 158.395 70.5069 157.836 60.9618 157.836C44.3978 157.836 36.3376 159.552 27.8338 161.365C21.6633 162.676 15.3578 164.026 5.65847 164.643C5.28567 163.357 4.93857 162.065 4.61719 160.767C14.3936 160.208 20.5641 158.897 27.0046 157.528C35.3541 155.734 43.9929 153.902 60.9618 153.902C70.0055 153.902 76.6967 154.423 82.2309 155.175C82.488 156.525 82.6808 157.881 82.8094 159.244Z" fill="white"/>
<path d="M155.006 125.828C154.543 126.85 154.1 127.698 153.791 128.161C153.464 128.643 152.904 129.376 152.172 130.32C146.097 131.285 138.731 132.017 128.068 132.017C111.08 132.017 102.441 130.185 94.1107 128.392C85.5877 126.58 77.5275 124.863 60.9634 124.863C44.3994 124.863 36.3392 126.58 27.8354 128.392C20.7007 129.916 13.3732 131.477 0.820059 131.902C0.807204 131.22 0.800781 130.545 0.800781 129.877C0.800781 129.234 0.807204 128.598 0.820059 127.968C12.8719 127.563 19.7751 126.097 27.0062 124.555C35.3557 122.781 43.9945 120.93 60.9634 120.93C77.9517 120.93 86.5711 122.781 94.9206 124.555C103.444 126.367 111.504 128.084 128.068 128.084C140.64 128.084 148.315 127.1 155.006 125.828Z" fill="white"/>
<path d="M78.3558 142.181C73.6508 141.679 68.0973 141.352 60.9627 141.352C44.3987 141.352 36.3384 143.068 27.8346 144.88C20.9699 146.346 13.8931 147.85 2.14981 148.332C1.95698 147.047 1.78985 145.748 1.64844 144.437C13.1989 143.974 19.9286 142.547 27.0055 141.043C35.355 139.269 43.9937 137.418 60.9627 137.418C65.1663 137.418 68.8687 137.534 72.166 137.726C73.8051 138.787 76.3119 140.484 78.3558 142.181Z" fill="white"/>
<path d="M119.004 193.818C119.145 195.142 119.248 196.46 119.312 197.771C121.973 197.887 124.866 197.964 128.067 197.964C137.072 197.964 143.744 197.443 149.259 196.691C149.233 195.38 149.207 194.062 149.182 192.738C143.725 193.51 137.188 194.03 128.067 194.03C124.731 194.03 121.742 193.953 119.004 193.818Z" fill="white"/>
<path d="M241.759 143.375L239.272 146.981C235.184 146.364 231.713 145.611 228.281 144.879C224.231 144.011 220.278 143.182 215.458 142.526C215.303 141.189 215.117 139.846 214.898 138.496C220.433 139.19 224.81 140.116 229.11 141.041C233.121 141.89 237.016 142.719 241.759 143.375Z" fill="white"/>
<path d="M128.069 144.571C111.505 144.571 103.445 142.855 94.9218 141.042C92.9549 140.618 90.9688 140.194 88.8477 139.789C89.8697 140.869 91.4316 142.566 93.3213 144.725C93.5784 144.777 93.8419 144.828 94.1119 144.88C102.442 146.673 111.081 148.505 128.069 148.505C131.366 148.505 134.355 148.428 137.093 148.312C138.328 146.872 139.51 145.49 140.642 144.166C137.016 144.417 132.909 144.571 128.069 144.571Z" fill="white"/>
<path d="M118.332 226.754L118.39 226.985L118.351 227.467C118.351 228.644 118.563 229.724 118.949 230.726C121.707 230.861 124.715 230.919 128.07 230.919C133.951 230.919 138.83 230.707 143.053 230.341C143.284 230.019 143.516 229.685 143.747 229.338C144.403 228.335 144.981 227.275 145.482 226.156C140.797 226.677 135.224 226.985 128.07 226.985C124.445 226.985 121.244 226.908 118.332 226.754Z" fill="white"/>
<path d="M60.0195 203.363C65.9779 204.115 72.3606 205.349 78.9553 208.184C79.3924 208.235 79.8231 208.287 80.2473 208.338C79.9645 206.976 79.7459 205.632 79.5917 204.308C74.5781 203.73 68.6197 203.363 60.9644 203.363C60.643 203.363 60.3281 203.363 60.0195 203.363Z" fill="white"/>
<path d="M124.732 180.84C124.288 180.84 123.845 180.821 123.401 180.801L117.771 180.608C117.501 180.788 117.231 180.975 116.961 181.168C120.239 181.36 123.903 181.476 128.068 181.476C136.899 181.476 143.494 180.975 148.951 180.242C148.926 178.931 148.913 177.613 148.913 176.289C145.943 176.694 142.627 177.041 138.77 177.253C134.624 179.644 129.977 180.84 124.732 180.84Z" fill="white"/>
<path d="M82.6367 171.721C82.521 172.897 82.3475 174.131 82.1546 175.462L82.1354 175.616C76.659 174.845 70.1221 174.324 60.9627 174.324C44.3987 174.324 36.3385 176.041 27.8347 177.853C22.9754 178.894 18.039 179.936 11.425 180.649C10.8722 179.389 10.3451 178.123 9.84375 176.85C16.747 176.195 21.7992 175.115 27.0055 174.016C35.355 172.222 43.9938 170.391 60.9627 170.391C70.2571 170.391 77.0254 170.931 82.6367 171.721Z" fill="white"/>
<path d="M144.111 96.7308C137.342 98.0034 129.301 99.0447 116.517 99.0447C99.5285 99.0447 90.8897 97.2128 82.5595 95.4388C74.0365 93.6069 65.9762 91.8907 49.4122 91.8907C32.8482 91.8907 24.8072 93.6069 16.2649 95.4388C12.7554 96.1908 9.20733 96.9429 4.98438 97.5599C5.34432 96.1715 5.7364 94.7896 6.16063 93.4141C9.458 92.8549 12.4276 92.2378 15.455 91.5822C23.8045 89.8082 32.424 87.957 49.4122 87.957C66.4004 87.957 75.0199 89.8082 83.3694 91.5822C91.8924 93.3948 99.9334 95.111 116.517 95.111C128.241 95.111 135.703 94.2625 142.105 93.1056C142.645 94.4361 143.339 95.6316 144.111 96.7308Z" fill="white"/>
<path d="M249.705 160.652C249.37 161.95 249.023 163.236 248.663 164.508C239.967 163.853 234.066 162.599 228.281 161.365C224.425 160.536 220.665 159.746 216.152 159.109C216.204 157.798 216.229 156.48 216.229 155.156C221.147 155.831 225.157 156.68 229.11 157.528C235.146 158.801 240.95 160.054 249.705 160.652Z" fill="white"/>
<path d="M237.112 192.082C236.431 193.303 235.724 194.511 234.991 195.707C232.639 195.263 230.46 194.801 228.281 194.338C222.669 193.142 217.251 191.985 209.441 191.33C209.93 190.07 210.393 188.797 210.83 187.512C218.408 188.206 223.807 189.363 229.11 190.481C231.732 191.04 234.316 191.6 237.112 192.082Z" fill="white"/>
<path d="M244.519 176.675C244.018 177.935 243.497 179.188 242.957 180.435C237.192 179.741 232.699 178.796 228.283 177.851C223.867 176.907 219.586 176 214.148 175.325C214.418 174.053 214.663 172.767 214.881 171.469C220.435 172.163 224.812 173.089 229.112 174.014C233.875 175.017 238.483 176 244.519 176.675Z" fill="white"/>
<path d="M66.3229 240.33C66.1301 240.317 65.9436 240.311 65.7637 240.311C64.2725 239.488 62.807 238.633 61.3672 237.746C62.9998 238.646 64.6517 239.507 66.3229 240.33Z" fill="white"/>
<path d="M80.1308 187.882C79.9508 189.18 79.7901 190.478 79.6487 191.777C74.6737 191.198 68.7732 190.813 60.9636 190.813C44.3996 190.813 36.3393 192.529 27.8355 194.341C27.3342 194.444 26.8393 194.547 26.3508 194.65C25.7594 194.174 25.1809 193.673 24.6153 193.146C24.3325 192.876 24.0561 192.599 23.7861 192.317L23.7283 192.355L22.6484 191.41C24.1139 191.102 25.5602 190.793 27.0064 190.485C35.3559 188.711 43.9946 186.879 60.9636 186.879C68.9081 186.879 75.0208 187.284 80.1308 187.882Z" fill="white"/>
<path d="M227.491 206.624C226.604 207.794 225.691 208.945 224.753 210.076C218.563 208.803 211.968 207.704 201.613 207.396C202.372 206.123 203.105 204.837 203.812 203.539C214.417 204.002 221.185 205.294 227.491 206.624Z" fill="white"/>
<path d="M214.745 220.912C213.486 222.108 212.206 223.284 210.908 224.441C206.569 224.036 201.479 223.785 195.154 223.785C193.052 223.785 191.066 223.805 189.215 223.862C190.423 222.564 191.6 221.227 192.744 219.852C193.534 219.852 194.325 219.852 195.154 219.852C203.311 219.852 209.539 220.276 214.745 220.912Z" fill="white"/>
<path d="M195.193 236.32C192.982 237.747 190.733 239.097 188.444 240.37C188.432 240.37 188.425 240.37 188.425 240.37C176.393 240.755 169.47 242.202 162.297 243.725C165.112 242.394 167.812 240.948 170.357 239.386L170.916 239.039V239.02C171.585 238.609 172.247 238.184 172.902 237.747C178.61 236.918 185.552 236.32 195.155 236.32H195.193Z" fill="white"/>
<path d="M26.3487 194.649C25.7574 194.173 25.1789 193.672 24.6133 193.145L26.3487 194.649Z" fill="white"/>
</svg>
