<svg width="257" height="198" viewBox="0 0 257 198" fill="none" xmlns="http://www.w3.org/2000/svg">
<path fill-rule="evenodd" clip-rule="evenodd" d="M64.2278 155.016C70.606 140.581 80.3652 130.146 96.5778 126.064C96.0602 127.942 94.9081 128.318 94.0232 128.885C88.3046 132.592 82.8948 136.649 78.587 142.001C73.5947 148.204 70.6894 155.3 69.7127 163.172C69.0699 168.306 70.4891 169.809 75.6734 169.667C77.6854 169.609 79.689 169.325 81.701 169.166C87.3028 168.699 92.3953 170.352 97.2206 173.023C99.6918 174.392 102.138 175.803 104.559 177.264C108.316 179.527 112.264 180.829 116.756 180.42C119.97 180.119 121.189 181.923 120.028 184.97C119.052 187.55 117.257 189.486 115.019 191.048C109.785 194.712 103.774 196.232 97.6047 197.284C87.4781 199.012 77.8273 197.559 68.7192 192.751C66.2815 191.457 63.994 189.946 62.0322 187.984C61.2975 187.249 60.6714 186.698 59.6195 187.666C48.3575 198.052 35.0335 199.646 20.6993 196.608C15.0641 195.405 9.5959 193.702 4.9208 190.121C2.82536 188.518 1.16402 186.564 0.44606 183.96C-0.146676 181.806 0.846783 180.186 3.04241 180.428C8.70262 181.063 13.2191 178.525 17.7189 175.728C19.3635 174.71 21.0499 173.758 22.7112 172.756C28.5217 169.25 34.8081 168.532 41.4116 169.408C42.9227 169.609 44.4671 169.701 45.9949 169.659C49.5012 169.55 50.8871 168.023 50.3528 164.541C49.735 160.559 48.7415 156.635 48.082 152.653C44.3753 130.271 47.3306 108.749 56.5055 88.0367C60.5128 78.9954 65.263 70.3464 71.1403 62.4238C77.5184 53.825 78.5954 44.6584 75.7569 34.657C73.8952 28.0785 71.3991 21.8339 67.2833 16.2906C64.4615 12.5004 61.0137 9.58681 56.5556 7.91714C55.5037 7.51641 54.2849 7.12404 54.1262 5.81334C53.9509 4.39411 55.078 3.64276 56.1048 3.01663C61.0971 -0.0138396 66.3566 0.578893 71.566 2.17344C79.2716 4.52768 85.6748 9.20279 91.9695 14.0449C96.2689 17.3508 100.059 21.2245 104.133 24.7892C106.988 27.3021 109.91 27.9115 113.458 26.2001C124.929 20.6818 136.859 16.4826 149.473 14.4122C160.844 12.5505 172.264 12.3334 183.76 12.9679C194.504 13.5607 205.14 14.8129 215.584 17.4844C223.49 19.5131 230.895 22.5602 237.257 27.8447C242.533 32.236 246.415 37.604 248.627 44.1074C249.111 45.535 249.904 46.3698 251.198 47.0628C257.284 50.3687 257.986 56.2293 252.843 60.871C251.708 61.8978 250.898 62.8579 250.981 64.5192C251.057 66.0136 250.33 67.366 249.22 68.3845C247.968 69.5283 246.715 70.6971 245.321 71.6321C230.077 81.8422 214.733 91.8769 197.61 98.7727C194.613 99.9832 191.616 101.177 188.56 102.221C186.999 102.755 186.49 103.598 186.44 105.226C186.114 115.06 183.735 124.411 178.985 133.035C175.028 140.214 169.376 145.565 161.261 147.861C159.859 148.254 158.439 148.571 156.962 148.504C153.698 148.362 151.978 146.075 154.215 143.186C156.945 139.646 157.129 135.597 155.593 131.457C154.941 129.703 154.04 128.084 153.013 126.531C148.814 120.195 148.822 118.442 153.414 112.038C144.272 113.558 135.523 115.01 126.782 116.463C128.794 114.017 131.282 112.623 134.204 111.988C142.803 110.118 151.402 108.256 160.001 106.378C182.942 101.369 204.289 92.4196 224.392 80.3478C229.159 77.4843 234.343 75.3304 238.843 71.9911C240.529 70.7305 242.241 69.5032 243.651 67.9421C245.279 66.1305 245.087 64.9784 242.934 64.0183C241.005 63.1501 238.96 62.6325 236.814 63.0416C224.3 65.3875 212.395 63.6761 201.1 57.757C196.408 55.2943 191.992 55.528 187.809 58.9843C181.331 64.3439 173.909 65.8466 165.744 64.2605C164.166 63.9516 162.547 63.8263 160.952 63.5675C156.452 62.8412 152.195 63.6928 149.047 66.9403C144.005 72.158 138.22 73.9028 130.998 73.5939C120.596 73.1515 112.356 77.5177 107.447 87.1517C106.679 88.6628 105.778 90.1071 104.968 91.5931C101.103 98.6642 95.5343 103.957 88.5884 108.006C75.5148 115.611 67.1998 126.706 64.545 141.767C63.7686 146.125 63.5098 150.508 64.2278 155.016ZM187.208 49.0497C187.25 48.0312 186.882 47.1713 186.215 46.4116C185.079 45.1092 183.71 44.1492 182.149 43.4396C172.648 39.0817 161.712 41.8784 153.472 47.956C152.629 48.5738 152.654 49.2333 153.188 50.0264C155.217 53.0736 157.538 55.8119 160.785 57.6652C165.527 60.3784 171.73 59.9443 174.193 54.0253C175.846 50.0348 180.145 49.0998 183.96 51.1702C186.064 52.3139 187.25 51.5375 187.208 49.0497Z" fill="#98346E"/>
<path d="M157.002 82.3079C156.827 82.8589 156.451 82.9675 156.134 83.101C149.213 86.0313 144.496 91.2491 140.664 97.5605C133.677 109.098 123.216 115.509 109.984 117.53C108.014 117.83 105.993 117.88 104.015 117.396C103.147 117.188 102.262 116.862 102.136 115.827C102.019 114.9 102.829 114.524 103.48 114.132C106.72 112.17 108.665 109.039 110.66 106.009C113.757 101.301 117.289 97.1096 122.548 94.697C125.721 93.2443 128.918 91.8418 132.057 90.3141C136.164 88.3104 140.188 86.1399 144.296 84.1529C147.535 82.5918 151.008 81.9323 154.589 81.8488C155.399 81.8237 156.234 81.782 157.002 82.3079Z" fill="#D42E83"/>
</svg>
