<svg width="172" height="256" viewBox="0 0 172 256" fill="none" xmlns="http://www.w3.org/2000/svg">
<path d="M142.948 149.065H140.144C143.71 140.549 145.683 131.237 145.683 121.44C145.683 86.0949 120.274 56.635 86.7981 50.2653C82.367 49.3999 77.832 48.9498 73.1932 48.9498H68.589C63.7771 48.9498 59.346 45.6957 58.4113 40.9531C57.1997 34.5834 62.0462 29.0099 68.2082 29.0099H97.772C100.438 29.0099 102.618 26.8289 102.618 24.1287V4.88114C102.618 2.18094 100.438 0 97.772 0H69.2121C49.3068 0 31.8247 14.5396 29.5053 34.341C28.3975 43.7225 30.7169 52.5155 35.2865 59.7506C40.7215 68.3359 49.4107 74.671 59.5884 76.9904C59.5884 76.9904 68.5198 77.9251 73.1932 77.9251C78.7667 77.9251 84.0632 79.0329 88.9444 80.9368C105.146 87.2719 116.673 103.023 116.673 121.44C116.673 131.929 112.935 141.553 106.738 149.065C102.999 153.6 98.3605 157.339 93.1332 160.039C87.1442 163.155 80.3591 164.92 73.1932 164.92C72.8816 164.92 72.5701 164.885 72.2931 164.885C61.0423 164.643 50.8646 160.143 43.2832 152.942C34.9403 145.015 29.6784 133.833 29.6784 121.44C29.6784 117.216 30.3361 113.132 31.4439 109.289C38.6791 110.328 47.8528 108.735 62.1154 105.1C87.075 98.7651 98.1181 120.505 98.1181 120.505C97.1835 107.385 87.2135 89.9375 57.7882 92.6723C51.557 93.2262 46.1566 92.7416 41.5177 91.703C24.3126 87.8604 17.3544 75.7442 17.2159 75.5364V75.5018C17.2159 75.5018 17.1813 75.5711 17.1121 75.6749C6.86514 88.1374 0.703125 104.062 0.703125 121.44C0.703125 150.727 18.1852 175.963 43.2832 187.387V249.769C43.2832 253.196 46.0527 256 49.5145 256H66.0619C69.4891 256 72.2931 253.196 72.2931 249.769V227.89C72.2931 222.144 76.9319 217.47 82.7131 217.47C88.4597 217.47 93.1332 222.144 93.1332 227.89V249.769C93.1332 253.196 95.9026 256 99.3644 256H115.877C119.339 256 122.108 253.196 122.108 249.769V227.89C122.108 222.144 126.782 217.47 132.528 217.47C138.31 217.47 142.948 222.144 142.948 227.89V249.769C142.948 253.196 145.753 256 149.18 256H165.727C169.154 256 171.958 253.196 171.958 249.769V178.075C171.958 162.047 158.977 149.065 142.948 149.065Z" fill="#333333"/>
<path d="M64.5744 127.015C54.9852 124.591 51.8004 123.691 51.8004 123.691C51.662 131.619 55.5738 139.166 63.5359 140.308C71.4634 141.45 73.1943 144.324 73.1943 144.324C76.5176 138.404 74.1636 129.438 64.5744 127.015Z" fill="#333333"/>
</svg>
