<svg width="257" height="193" viewBox="0 0 257 193" fill="none" xmlns="http://www.w3.org/2000/svg">
<path d="M78.4349 95.3813C61.1883 95.3813 47.241 81.4341 47.241 64.0375C47.241 46.7909 61.1883 32.8436 78.4349 32.8436C95.6816 32.8436 109.779 46.7909 109.779 64.0375C109.779 81.4341 95.6816 95.3813 78.4349 95.3813Z" fill="#FBB040"/>
<path d="M224.206 0C218.657 6.44874 212.359 12.1476 205.61 17.2466C221.657 26.6948 232.455 44.0914 232.455 64.0375C232.455 94.0316 208.159 118.327 178.165 118.327C155.82 118.327 136.623 104.83 128.375 85.4833C119.977 104.83 100.78 118.327 78.4348 118.327C48.4407 118.327 24.1454 94.0316 24.1454 64.0375C24.1454 44.0914 35.0933 26.6948 51.1402 17.2466C44.2415 12.1476 38.0927 6.44874 32.3938 0C12.4477 22.6456 0.300049 52.1898 0.300049 84.7334C0.300049 130.025 23.8454 169.767 59.2385 192.412C79.1846 179.665 102.88 172.166 128.375 172.166C153.72 172.166 177.415 179.665 197.362 192.412C232.755 169.767 256.3 130.025 256.3 84.7334C256.3 52.1898 244.152 22.6456 224.206 0Z" fill="#5C5259"/>
<path d="M178.165 95.3813C160.919 95.3813 146.821 81.4341 146.821 64.0375C146.821 46.7909 160.919 32.8436 178.165 32.8436C195.412 32.8436 209.509 46.7909 209.509 64.0375C209.509 81.4341 195.412 95.3813 178.165 95.3813Z" fill="#FBB040"/>
<path d="M144.872 116.677C144.872 130.474 128.375 141.572 128.375 141.572C128.375 141.572 111.728 130.474 111.728 116.677C111.728 102.88 119.227 98.6807 128.375 98.6807C137.523 98.6807 144.872 102.88 144.872 116.677Z" fill="#FBB040"/>
</svg>
