<svg width="257" height="154" viewBox="0 0 257 154" fill="none" xmlns="http://www.w3.org/2000/svg">
<path d="M140.02 44.3845C141.222 43.2501 143.16 42.3411 144.61 41.5147C153.482 36.4587 163.196 32.477 173.271 30.5913C185.817 28.2474 198.423 30.2157 209.932 35.6097C212.088 36.6164 214.402 37.6381 216.363 38.9829C218.647 39.9595 220.728 41.5597 222.794 42.9195C235.723 51.4088 246.474 62.272 256.698 73.7663C245.241 88.5286 227.114 97.9269 208.708 100.226C187.469 102.885 167.298 96.5371 148.9 86.2147C145.466 84.2915 140.628 81.7297 137.578 79.3482C137.556 79.3257 137.533 79.3031 137.511 79.2806C126.557 72.662 115.604 67.0275 102.742 65.3973L99.9023 65.1644C103.546 64.0901 107.017 62.3472 110.435 60.7019C114.627 58.7035 118.792 56.6451 122.929 54.5265C123.883 53.7377 125.1 53.1066 126.159 52.453C129.878 50.1542 133.694 48.1934 137.495 46.0598C138.239 45.4287 139.148 44.8202 140.02 44.3845Z" fill="#0F2645"/>
<path d="M67.7178 61.1997C55.2844 56.5719 44.316 49.2471 34.7825 40.0517C32.2582 37.6176 30.3575 34.6351 27.8934 32.1859C27.8483 32.1409 27.8007 32.0958 27.7507 32.0507C28.9827 34.1017 35.4962 44.5442 35.5563 46.1594C32.3183 43.3722 28.9376 40.0141 25.294 37.7603C23.8591 36.3254 21.9133 35.1159 20.2606 33.9439C15.2572 30.443 10.1436 27.1124 4.9198 23.9521C3.62012 23.1558 1.94481 22.5472 0.757812 21.6758L0.765326 21.9162C12.0267 28.625 17.5485 36.7912 22.9726 48.3681C24.2948 51.1929 25.3391 54.2881 26.8266 57.0151C29.6513 64.1972 34.0613 71.5821 40.3418 76.2099C29.1856 94.9539 23.2506 115.546 17.5861 136.424L14.6186 147.294C14.0702 149.263 13.4015 151.223 12.9658 153.214C14.3256 150.457 15.3323 147.52 16.6094 144.717C17.9367 141.803 19.3616 138.938 20.8841 136.123C22.4017 133.303 24.0119 130.539 25.7147 127.829C27.8834 124.458 30.1897 121.185 32.6339 118.01C33.6255 116.725 34.9102 115.576 35.7591 114.194C36.6231 112.789 37.179 111.083 37.8025 109.558C38.699 107.37 39.6757 105.219 40.7325 103.105C46.998 90.6642 56.862 76.3526 68.8898 68.8776C71.9549 67.0595 75.0351 65.4894 78.2805 64.0169C74.7195 63.6488 71.0759 62.4468 67.7178 61.1997Z" fill="#FEB209"/>
<path d="M0.774345 21.9688L0.766832 21.9162C0.746798 21.9011 0.724261 21.8861 0.699219 21.8711L0.774345 21.9688Z" fill="#FEB209"/>
<path d="M124.829 54.0157C128.36 52.1 136.046 50.2969 140.05 49.6133L140.418 49.8462L139.772 49.9288C139.817 49.9639 139.859 50.0014 139.9 50.0415C140.448 50.5373 140.854 51.6041 141.327 51.9722C141.763 52.3028 146.646 51.8445 147.863 52.2352C165.841 53.4072 179.829 64.1727 191.759 76.7639C189.025 77.718 185.884 77.8307 183.014 77.8307C166.787 77.8382 152.671 70.3181 137.571 65.5701C135.925 65.0517 129.517 62.8205 128.142 63.5417C127.954 63.8797 127.857 64.015 127.909 64.4207C127.985 65.0367 128.338 65.6076 128.48 66.2087C128.586 66.6594 128.54 67.2078 128.736 67.6285C128.848 67.884 129.036 68.0267 129.247 68.1995C129.487 68.3948 129.637 68.515 129.833 68.7629C130.178 69.1987 130.606 69.5443 131.02 69.9049C130.103 69.702 129.081 69.116 128.202 68.7329C126.076 67.8164 120.457 65.232 118.316 65.4123C116.017 65.1344 113.778 64.0075 110.983 63.7445C109.301 63.8497 104.094 64.3155 102.765 65.1419L102.742 65.3973L99.9023 65.1644C103.546 64.0901 107.017 62.3472 110.435 60.7019C114.627 58.7035 118.792 56.6451 122.929 54.5265C123.567 54.4664 124.221 54.211 124.829 54.0157Z" fill="#36DAF8"/>
<path d="M118.316 65.4113C120.458 65.2309 126.077 67.8153 128.203 68.7318C129.082 69.115 130.104 69.701 131.02 69.9038C130.607 69.5432 130.179 69.1976 129.833 68.7619C129.638 68.514 129.488 68.3938 129.247 68.1984C129.037 68.0256 128.849 67.8829 128.736 67.6275C128.541 67.2068 128.586 66.6583 128.481 66.2076C128.338 65.6066 127.985 65.0356 127.91 64.4196C127.857 64.0139 127.955 63.8787 128.143 63.5406C129.518 62.8194 135.926 65.0506 137.571 65.569C152.672 70.317 166.788 77.8371 183.015 77.8296C185.885 77.8296 189.025 77.7169 191.76 76.7628C193.405 77.9273 195.546 80.6694 197.109 82.2095C203.427 88.46 209.219 93.4183 217.423 97.0394C215.041 97.2798 212.697 97.6629 210.293 97.723C191.549 98.2038 172.971 92.0961 156.428 83.7646C150.944 80.9999 145.73 77.6643 140.193 75.0124C139.622 74.3663 137.924 73.7127 137.105 73.292C130.502 69.9414 125.228 67.8453 118.316 65.4113Z" fill="url(#paint0_linear_40_4034)"/>
<path d="M137.497 46.0616C139.841 45.3479 142.094 44.4539 144.491 43.8904C144.821 43.8103 145.15 43.7352 145.475 43.665C145.806 43.5899 146.134 43.5198 146.459 43.4547C146.79 43.3896 147.12 43.3295 147.451 43.2744C147.781 43.2143 148.114 43.1592 148.45 43.1091C148.781 43.059 149.111 43.0139 149.442 42.9739C149.777 42.9288 150.113 42.8887 150.448 42.8537C150.779 42.8186 151.112 42.7886 151.448 42.7635C151.783 42.7335 152.119 42.7084 152.454 42.6884C152.79 42.6734 153.125 42.6584 153.461 42.6433C153.797 42.6333 154.132 42.6258 154.468 42.6208C154.803 42.6158 155.139 42.6133 155.474 42.6133C155.81 42.6183 156.145 42.6258 156.481 42.6358C156.817 42.6458 157.152 42.6584 157.488 42.6734C157.823 42.6934 158.159 42.716 158.494 42.741C158.83 42.766 159.166 42.7961 159.501 42.8311C159.832 42.8612 160.165 42.8963 160.5 42.9363C160.831 42.9814 161.164 43.0265 161.499 43.0715C161.83 43.1216 162.161 43.1742 162.491 43.2293C162.822 43.2844 163.152 43.342 163.483 43.4021C163.813 43.4672 164.144 43.5348 164.474 43.6049C164.8 43.6751 165.128 43.7502 165.459 43.8303C165.784 43.9054 166.11 43.9856 166.435 44.0707C166.761 44.1559 167.084 44.246 167.404 44.3412C167.725 44.4313 168.048 44.5265 168.374 44.6267C168.694 44.7268 169.012 44.8295 169.328 44.9347C169.648 45.0399 169.966 45.15 170.282 45.2652C170.597 45.3804 170.91 45.4981 171.221 45.6183C171.536 45.7385 171.849 45.8637 172.16 45.994C172.47 46.1192 172.778 46.2494 173.084 46.3846C173.394 46.5198 173.7 46.6601 174 46.8053C174.306 46.9456 174.609 47.0908 174.91 47.2411C175.21 47.3913 175.511 47.5441 175.811 47.6993C181.265 50.5842 186.419 54.671 190.558 59.2612C191.084 59.8472 191.835 60.5309 192.204 61.222C192.932 63.1302 194.953 65.0685 196.163 66.7664C197.492 68.6445 198.725 70.5903 199.979 72.521L198.522 74.001C197.275 72.6638 192.226 66.8114 190.663 66.5109C189.522 65.8648 188.357 64.5802 187.328 63.7313C185.63 62.3289 183.872 61.0042 182.054 59.7571C169.711 51.3129 154.986 46.8128 140.051 49.615C136.047 50.2987 128.361 52.1017 124.83 54.0174C124.222 54.2128 123.568 54.4682 122.93 54.5283C123.884 53.7395 125.101 53.1084 126.16 52.4548C129.879 50.156 133.695 48.1952 137.497 46.0616Z" fill="#FEB209"/>
<path d="M192.204 61.2227C198.011 67.0449 203.939 78.3289 206.613 86.0669L206.411 85.7964C204.66 83.4149 203.488 80.6728 201.632 78.3064C199.394 75.4566 196.995 72.747 194.435 70.1777C193.218 68.9456 191.798 67.8037 190.664 66.5115C192.227 66.812 197.275 72.6644 198.522 74.0016L199.98 72.5216C198.725 70.5909 197.493 68.6451 196.163 66.767C194.954 65.0691 192.933 63.1309 192.204 61.2227Z" fill="#FA5A14"/>
<path d="M229.677 57.2689C229.822 57.2589 229.965 57.2539 230.105 57.2539C230.251 57.2539 230.393 57.2589 230.533 57.2689C230.679 57.2739 230.821 57.284 230.962 57.299C231.107 57.314 231.25 57.3315 231.39 57.3516C231.53 57.3716 231.67 57.3966 231.811 57.4267C231.951 57.4517 232.091 57.4818 232.231 57.5168C232.372 57.5519 232.509 57.5895 232.645 57.6295C232.78 57.6746 232.915 57.7197 233.05 57.7648C233.185 57.8148 233.318 57.8674 233.448 57.9225C233.584 57.9776 233.716 58.0352 233.847 58.0953C233.972 58.1554 234.099 58.218 234.23 58.2831C234.355 58.3532 234.478 58.4259 234.598 58.501C234.723 58.5711 234.843 58.6462 234.958 58.7264C235.079 58.8065 235.196 58.8891 235.312 58.9743C235.427 59.0594 235.539 59.1471 235.65 59.2372C235.76 59.3274 235.867 59.4225 235.973 59.5227C236.083 59.6179 236.188 59.7155 236.288 59.8157C236.388 59.9159 236.486 60.0185 236.581 60.1237C236.676 60.2289 236.769 60.3391 236.859 60.4543C236.949 60.5645 237.037 60.6772 237.122 60.7923C237.207 60.9025 237.29 61.0177 237.37 61.1379C237.45 61.2581 237.528 61.3808 237.603 61.506C237.673 61.6262 237.743 61.749 237.813 61.8742C237.878 61.9994 237.941 62.1271 238.001 62.2573C238.066 62.3875 238.126 62.5177 238.181 62.648C238.231 62.7832 238.281 62.9184 238.332 63.0536C238.382 63.1889 238.427 63.3241 238.467 63.4593C238.507 63.5946 238.544 63.7323 238.58 63.8725C238.615 64.0128 238.647 64.153 238.677 64.2932C238.702 64.4335 238.725 64.5737 238.745 64.7139C238.765 64.8542 238.782 64.9969 238.797 65.1422C238.812 65.2824 238.822 65.4251 238.827 65.5704C238.837 65.7106 238.842 65.8533 238.842 65.9986C238.842 66.1388 238.837 66.2816 238.827 66.4268C238.822 66.567 238.812 66.7098 238.797 66.855C238.782 66.9953 238.765 67.1355 238.745 67.2757C238.72 67.421 238.695 67.5637 238.67 67.704C238.64 67.8442 238.607 67.9819 238.572 68.1172C238.537 68.2574 238.499 68.3951 238.459 68.5303C238.419 68.6706 238.374 68.8058 238.324 68.936C238.274 69.0713 238.221 69.2065 238.166 69.3417C238.111 69.4719 238.054 69.6021 237.994 69.7324C237.933 69.8626 237.868 69.9903 237.798 70.1155C237.733 70.2407 237.663 70.3634 237.588 70.4836C237.513 70.6088 237.435 70.7315 237.355 70.8517C237.275 70.9669 237.192 71.0821 237.107 71.1973C237.022 71.3125 236.934 71.4252 236.844 71.5354C236.754 71.6456 236.659 71.7533 236.559 71.8584C236.463 71.9636 236.366 72.0663 236.266 72.1665C236.165 72.2716 236.063 72.3718 235.958 72.467C235.847 72.5621 235.737 72.6548 235.627 72.7449C235.517 72.8351 235.404 72.9227 235.289 73.0079C235.174 73.093 235.056 73.1756 234.936 73.2558C234.821 73.3309 234.7 73.406 234.575 73.4812C234.45 73.5563 234.325 73.6264 234.2 73.6915C234.074 73.7566 233.947 73.8192 233.816 73.8793C233.686 73.9444 233.556 74.002 233.426 74.0521C233.291 74.1072 233.155 74.1598 233.02 74.2099C232.89 74.255 232.755 74.2975 232.614 74.3376C232.479 74.3827 232.342 74.4202 232.201 74.4503C232.061 74.4853 231.921 74.5179 231.781 74.548C231.64 74.573 231.5 74.5955 231.36 74.6156C231.22 74.6356 231.077 74.6531 230.932 74.6682C230.791 74.6832 230.649 74.6932 230.503 74.6982C230.363 74.7032 230.223 74.7057 230.083 74.7057C229.937 74.7057 229.795 74.7032 229.655 74.6982C229.509 74.6882 229.367 74.6757 229.226 74.6606C229.086 74.6456 228.943 74.6281 228.798 74.6081C228.658 74.588 228.518 74.563 228.377 74.5329C228.237 74.5029 228.099 74.4703 227.964 74.4353C227.824 74.4002 227.686 74.3626 227.551 74.3226C227.416 74.2825 227.281 74.2374 227.145 74.1873C227.01 74.1373 226.877 74.0847 226.747 74.0296C226.617 73.9745 226.487 73.9169 226.356 73.8568C226.226 73.7967 226.099 73.7316 225.973 73.6615C225.848 73.5963 225.725 73.5262 225.605 73.4511C225.485 73.376 225.365 73.3009 225.245 73.2257C225.124 73.1456 225.009 73.063 224.899 72.9778C224.784 72.8927 224.671 72.8025 224.561 72.7074C224.451 72.6172 224.343 72.5246 224.238 72.4294C224.133 72.3342 224.03 72.2366 223.93 72.1364C223.83 72.0362 223.732 71.9311 223.637 71.8209C223.537 71.7157 223.442 71.608 223.351 71.4978C223.261 71.3876 223.176 71.275 223.096 71.1598C223.011 71.0446 222.928 70.9294 222.848 70.8142C222.768 70.694 222.693 70.5738 222.623 70.4536C222.548 70.3284 222.477 70.2032 222.412 70.0779C222.342 69.9527 222.277 69.825 222.217 69.6948C222.157 69.5646 222.099 69.4344 222.044 69.3041C221.989 69.1739 221.939 69.0412 221.894 68.906C221.844 68.7707 221.799 68.6355 221.759 68.5003C221.719 68.3651 221.681 68.2273 221.646 68.0871C221.611 67.9469 221.581 67.8066 221.556 67.6664C221.526 67.5262 221.501 67.3859 221.481 67.2457C221.461 67.1055 221.443 66.9652 221.428 66.825C221.413 66.6797 221.403 66.537 221.398 66.3968C221.393 66.2565 221.391 66.1138 221.391 65.9685C221.391 65.8283 221.393 65.6856 221.398 65.5403C221.408 65.4001 221.418 65.2573 221.428 65.1121C221.443 64.9719 221.461 64.8316 221.481 64.6914C221.506 64.5512 221.531 64.4109 221.556 64.2707C221.586 64.1304 221.619 63.9902 221.654 63.85C221.689 63.7148 221.726 63.5795 221.766 63.4443C221.806 63.3041 221.851 63.1688 221.901 63.0386C221.952 62.9034 222.002 62.7682 222.052 62.6329C222.107 62.5027 222.167 62.3725 222.232 62.2423C222.292 62.1171 222.355 61.9919 222.42 61.8666C222.49 61.7414 222.56 61.6162 222.63 61.491C222.705 61.3708 222.783 61.2506 222.863 61.1304C222.943 61.0102 223.026 60.895 223.111 60.7848C223.196 60.6696 223.284 60.557 223.374 60.4468C223.464 60.3366 223.557 60.2289 223.652 60.1237C223.747 60.0185 223.845 59.9134 223.945 59.8082C224.045 59.708 224.148 59.6104 224.253 59.5152C224.358 59.42 224.466 59.3274 224.576 59.2372C224.686 59.1471 224.799 59.0594 224.914 58.9743C225.029 58.8891 225.147 58.8065 225.267 58.7264C225.382 58.6462 225.503 58.5711 225.628 58.501C225.748 58.4259 225.871 58.3558 225.996 58.2906C226.121 58.2205 226.249 58.1554 226.379 58.0953C226.509 58.0352 226.639 57.9776 226.77 57.9225C226.905 57.8674 227.038 57.8148 227.168 57.7648C227.303 57.7197 227.438 57.6771 227.574 57.637C227.714 57.592 227.851 57.5519 227.987 57.5168C228.127 57.4818 228.267 57.4517 228.407 57.4267C228.548 57.3966 228.688 57.3716 228.828 57.3516C228.968 57.3315 229.109 57.314 229.249 57.299C229.394 57.284 229.537 57.2739 229.677 57.2689Z" fill="#FEFEFE"/>
<path d="M229.663 61.1756C229.743 61.1606 229.823 61.1456 229.903 61.1306C229.988 61.1206 230.071 61.1105 230.151 61.1005C230.236 61.0905 230.321 61.0855 230.406 61.0855C230.486 61.0805 230.569 61.078 230.654 61.078C230.734 61.073 230.817 61.073 230.902 61.078C230.987 61.083 231.07 61.0905 231.15 61.1005C231.235 61.1055 231.318 61.113 231.398 61.1231C231.483 61.1381 231.566 61.1531 231.646 61.1681C231.726 61.1832 231.809 61.2007 231.894 61.2207C231.974 61.2408 232.054 61.2633 232.134 61.2883C232.214 61.3134 232.292 61.3384 232.367 61.3635C232.447 61.3935 232.525 61.4236 232.6 61.4536C232.68 61.4887 232.758 61.5237 232.833 61.5588C232.908 61.5938 232.983 61.6289 233.058 61.664C233.128 61.704 233.201 61.7466 233.276 61.7917C233.346 61.8317 233.416 61.8768 233.487 61.9269C233.557 61.972 233.624 62.0196 233.689 62.0696C233.754 62.1197 233.82 62.1698 233.885 62.2199C233.95 62.275 234.015 62.3301 234.08 62.3852C234.14 62.4403 234.2 62.4979 234.26 62.558C234.315 62.6181 234.373 62.6782 234.433 62.7383C234.488 62.7984 234.541 62.861 234.591 62.9261C234.646 62.9912 234.699 63.0563 234.749 63.1214C234.799 63.1915 234.846 63.2616 234.891 63.3318C234.936 63.3969 234.982 63.467 235.027 63.5421C235.067 63.6122 235.107 63.6849 235.147 63.76C235.187 63.8301 235.224 63.9027 235.259 63.9779C235.295 64.053 235.33 64.1306 235.365 64.2107C235.395 64.2859 235.422 64.3635 235.447 64.4436C235.477 64.5238 235.505 64.6014 235.53 64.6765C235.555 64.7567 235.578 64.8393 235.598 64.9244C235.618 65.0046 235.635 65.0847 235.65 65.1648C235.665 65.245 235.678 65.3276 235.688 65.4128C235.703 65.4929 235.713 65.5755 235.718 65.6607C235.728 65.7408 235.735 65.8234 235.74 65.9086C235.745 65.9937 235.748 66.0764 235.748 66.1565C235.743 66.2417 235.74 66.3268 235.74 66.4119C235.735 66.4921 235.728 66.5747 235.718 66.6599C235.708 66.74 235.698 66.8226 235.688 66.9078C235.673 66.9879 235.658 67.0705 235.643 67.1557C235.628 67.2358 235.61 67.316 235.59 67.3961C235.565 67.4762 235.54 67.5564 235.515 67.6365C235.495 67.7166 235.47 67.7968 235.44 67.8769C235.41 67.952 235.38 68.0297 235.35 68.1098C235.315 68.1849 235.28 68.26 235.244 68.3352C235.209 68.4103 235.172 68.4854 235.132 68.5606C235.092 68.6307 235.049 68.7008 235.004 68.7709C234.964 68.846 234.919 68.9161 234.869 68.9813C234.824 69.0514 234.776 69.119 234.726 69.1841C234.676 69.2542 234.623 69.3218 234.568 69.3869C234.518 69.447 234.463 69.5096 234.403 69.5748C234.348 69.6349 234.29 69.6949 234.23 69.755C234.17 69.8101 234.11 69.8652 234.05 69.9203C233.99 69.9754 233.927 70.0305 233.862 70.0856C233.797 70.1357 233.729 70.1858 233.659 70.2359C233.594 70.2859 233.527 70.3335 233.456 70.3786C233.386 70.4237 233.316 70.4688 233.246 70.5138C233.171 70.5539 233.098 70.594 233.028 70.634C232.953 70.6691 232.878 70.7042 232.803 70.7392C232.728 70.7743 232.65 70.8093 232.57 70.8444C232.495 70.8744 232.417 70.902 232.337 70.927C232.257 70.9571 232.177 70.9821 232.097 71.0022C232.017 71.0272 231.936 71.0497 231.856 71.0698C231.776 71.0898 231.696 71.1073 231.616 71.1224C231.531 71.1374 231.448 71.1499 231.368 71.1599C231.288 71.1699 231.205 71.18 231.12 71.19C231.04 71.195 230.957 71.2 230.872 71.205C230.792 71.21 230.712 71.21 230.632 71.205C230.547 71.205 230.464 71.2025 230.384 71.1975C230.299 71.1925 230.216 71.1875 230.136 71.1824C230.051 71.1724 229.968 71.1599 229.888 71.1449C229.808 71.1349 229.728 71.1198 229.648 71.0998C229.567 71.0848 229.487 71.0673 229.407 71.0472C229.327 71.0272 229.247 71.0047 229.167 70.9796C229.087 70.9546 229.009 70.927 228.934 70.897C228.854 70.8719 228.776 70.8419 228.701 70.8068C228.626 70.7768 228.551 70.7442 228.476 70.7092C228.4 70.6691 228.328 70.6315 228.258 70.5965C228.183 70.5564 228.11 70.5138 228.04 70.4687C227.97 70.4287 227.902 70.3836 227.837 70.3335C227.767 70.2885 227.699 70.2409 227.634 70.1908C227.569 70.1407 227.504 70.0906 227.439 70.0405C227.374 69.9854 227.311 69.9304 227.251 69.8753C227.191 69.8202 227.133 69.7626 227.078 69.7025C227.018 69.6474 226.961 69.5873 226.905 69.5222C226.85 69.4621 226.798 69.3995 226.748 69.3343C226.693 69.2692 226.64 69.2041 226.59 69.139C226.545 69.0739 226.5 69.0063 226.455 68.9362C226.41 68.8711 226.365 68.801 226.319 68.7258C226.279 68.6557 226.239 68.5856 226.199 68.5155C226.159 68.4403 226.122 68.3652 226.087 68.2901C226.052 68.215 226.019 68.1398 225.989 68.0647C225.959 67.9896 225.929 67.912 225.899 67.8318C225.874 67.7567 225.849 67.6791 225.824 67.5989C225.799 67.5188 225.776 67.4387 225.756 67.3585C225.736 67.2784 225.718 67.1983 225.703 67.1181C225.688 67.038 225.676 66.9579 225.666 66.8777C225.651 66.7926 225.641 66.7099 225.636 66.6298C225.626 66.5447 225.618 66.462 225.613 66.3819C225.613 66.3018 225.613 66.2191 225.613 66.134C225.613 66.0538 225.613 65.9712 225.613 65.8861C225.618 65.8059 225.626 65.7233 225.636 65.6381C225.646 65.558 225.656 65.4779 225.666 65.3977C225.676 65.3126 225.691 65.23 225.711 65.1498C225.726 65.0697 225.743 64.9895 225.764 64.9094C225.784 64.8293 225.806 64.7491 225.831 64.669C225.851 64.5939 225.876 64.5163 225.906 64.4361C225.936 64.361 225.966 64.2834 225.996 64.2032C226.026 64.1281 226.059 64.053 226.094 63.9779C226.129 63.9027 226.167 63.8301 226.207 63.76C226.247 63.6849 226.287 63.6122 226.327 63.5421C226.372 63.472 226.417 63.4019 226.462 63.3318C226.507 63.2667 226.555 63.199 226.605 63.1289C226.65 63.0638 226.7 62.9987 226.755 62.9336C226.805 62.8735 226.858 62.8109 226.913 62.7458C226.968 62.6857 227.026 62.6256 227.086 62.5655C227.141 62.5104 227.201 62.4553 227.266 62.4002C227.326 62.3451 227.386 62.29 227.446 62.2349C227.511 62.1848 227.577 62.1348 227.642 62.0847C227.712 62.0346 227.779 61.987 227.845 61.9419C227.915 61.8918 227.985 61.8468 228.055 61.8067C228.125 61.7616 228.198 61.7216 228.273 61.6865C228.343 61.6464 228.415 61.6089 228.491 61.5738C228.566 61.5388 228.641 61.5037 228.716 61.4686C228.791 61.4386 228.869 61.4085 228.949 61.3785C229.024 61.3534 229.102 61.3284 229.182 61.3034C229.262 61.2783 229.342 61.2558 229.422 61.2357C229.497 61.2157 229.577 61.1957 229.663 61.1756Z" fill="#0F2645"/>
<path d="M206.807 65.5352C207.272 66.2038 207.791 70.471 208.039 71.6429C209.353 77.7807 211.141 84.1063 214.357 89.538C215.078 90.755 216.205 91.6791 216.934 92.8661C216.984 92.9462 217.031 93.0263 217.076 93.1065C216.077 92.4303 215.258 91.5438 214.515 90.5973C209.909 84.7224 205.943 73.0478 206.807 65.5352Z" fill="#FEFEFE"/>
<path d="M64.8251 78.0487C73.5773 70.506 85.3646 66.1487 96.9265 67.0051C109.157 67.9066 120.441 73.6463 130.147 80.8283C135.293 84.6372 140.177 88.7842 145.526 92.3076C147.624 93.6849 149.778 94.9721 151.986 96.1691C154.195 97.3611 156.451 98.4579 158.755 99.4596C160.461 100.218 162.241 100.827 163.932 101.601C160.716 102.344 157.508 103.051 154.255 103.584L152.362 103.9C142.573 103.862 133.333 102.96 123.882 100.294C120.448 99.3244 117.068 98.1149 113.687 96.988C107.482 98.8586 101.291 102.269 95.6944 105.477C93.065 106.987 90.4957 108.648 87.7611 109.94C77.9947 114.583 67.2216 115.319 57.0345 111.69C58.3717 111.289 59.6764 110.794 60.9485 110.203C72.8035 104.711 79.5047 94.2984 83.8395 82.451C80.9021 82.3008 78.3478 82.6088 75.5381 83.5254C62.8643 87.6498 51.8958 97.8669 44.6236 108.805C42.6328 111.803 40.9424 114.981 39.3047 118.181C43.1061 104.831 48.6579 93.3519 58.6347 83.4878C60.5504 81.5871 62.5562 79.5211 64.8251 78.0487Z" fill="url(#paint1_linear_40_4034)"/>
<path d="M64.8281 78.0487C73.5803 70.506 85.3676 66.1487 96.9295 67.0051C109.16 67.9066 120.444 73.6463 130.15 80.8283C135.296 84.6372 140.18 88.7842 145.529 92.3076C147.627 93.6849 149.781 94.9721 151.99 96.1691C154.198 97.3611 156.455 98.4579 158.758 99.4596C160.464 100.218 162.244 100.827 163.935 101.601C160.719 102.344 157.511 103.051 154.258 103.584C146.295 99.1065 139.646 92.8861 132.186 87.6798C115.831 76.2456 100.152 74.0144 80.507 76.0052C77.4368 76.3308 74.3716 76.7164 71.3115 77.1622C69.2455 77.4777 67.1345 77.9435 65.046 78.0411C64.9709 78.0461 64.8982 78.0487 64.8281 78.0487Z" fill="url(#paint2_linear_40_4034)"/>
<path d="M120.066 20.0232C130.786 18.1225 140.027 18.0173 149.335 24.5533C151.664 26.1835 153.827 28.0467 155.645 30.2479C148.411 32.9073 141.755 36.2279 135.068 40.0518C131.778 36.3406 127.128 34.1169 122.267 33.4032C109.954 32.4416 98.9552 38.6545 87.4308 41.8248C85.2897 42.4108 83.1186 42.9742 80.9249 43.3123C79.6928 43.5001 78.1678 43.3874 77.0033 43.7631L76.8906 43.6879C77.0484 43.5151 77.2137 43.3499 77.3789 43.1846L77.3264 43.0569C79.0167 42.0502 80.8348 41.2689 82.5176 40.2171C91.2322 34.7329 99.4435 28.6552 108.804 24.2378C112.546 22.4723 116.279 21.5032 120.066 20.0232Z" fill="url(#paint3_linear_40_4034)"/>
<path d="M154.257 103.585C157.51 103.051 160.718 102.345 163.933 101.602C169.139 103.314 174.601 105.05 180.063 105.703C171.461 120.563 156.488 133.41 139.78 137.88C129.39 140.66 115.792 141.704 106.221 136.152C103.171 134.387 101.143 132.035 100.113 128.647C109.354 131.494 119.624 129.03 127.955 124.598C137.308 119.617 145.64 112.022 152.364 103.9L154.257 103.585Z" fill="#0F2645"/>
<path d="M151.464 19.0901C141.382 8.74525 127.987 2.53982 113.458 2.32947C111.768 2.30693 108.132 2.73515 106.809 2.47972C110.994 1.66836 115.284 1.29272 119.528 0.909581C138.558 -0.825834 155.694 1.49556 171.809 12.3964C177.097 15.9649 181.628 20.2696 185.714 25.1528C184.437 25.1478 183.163 25.1678 181.89 25.2129C180.613 25.263 179.336 25.3406 178.059 25.4458C176.787 25.546 175.517 25.6762 174.25 25.8364C172.983 25.9967 171.721 26.182 170.464 26.3924C169.202 26.6077 167.947 26.8481 166.7 27.1136C165.448 27.384 164.206 27.6795 162.974 28.0001C161.737 28.3206 160.507 28.6687 159.285 29.0443C158.063 29.415 156.851 29.8156 155.649 30.2464C153.831 28.0452 151.667 26.182 149.338 24.5518C140.03 18.0158 130.79 18.121 120.069 20.0217C120.024 20.0016 119.979 19.9816 119.934 19.9616C111.52 16.4081 98.3201 16.9115 89.4026 19.0901C88.1781 19.3906 83.355 21.0509 82.5736 20.9908L82.4384 21.111L82.3633 20.9608C87.0211 19.0526 91.6113 17.4148 96.5095 16.2053C112.504 12.2386 133.712 11.5099 149.165 18.0158C149.942 18.3514 150.708 18.7095 151.464 19.0901Z" fill="url(#paint4_linear_40_4034)"/>
<path d="M192.219 106.695C194.112 106.988 196.058 106.981 197.966 107.041C195.795 110.211 193.068 113.171 190.499 116.018C180.687 126.897 169.779 136.115 156.564 142.576C137.933 151.688 109.971 156.324 89.9648 149.472C92.414 149.945 94.8631 150.434 97.3573 150.644C107.71 151.516 118.107 149.142 127.858 145.889C140.39 141.652 160.929 131.863 170.56 122.787C165.407 134.394 151.501 140.142 140.615 145.115C140.86 145.055 141.108 144.99 141.359 144.92C144.882 143.928 148.398 142.275 151.704 140.697C166.594 133.606 184.083 121.36 192.219 106.695Z" fill="#0F2645"/>
<path d="M149.338 24.5533C140.03 18.0173 130.789 18.1225 120.069 20.0232C116.282 21.5032 112.549 22.4723 108.807 24.2378C99.4465 28.6552 91.2352 34.7329 82.5206 40.2171C80.8378 41.2689 79.0197 42.0502 77.3294 43.0569C76.2701 43.4475 75.1883 43.8081 74.0914 44.0936C69.2308 45.3482 64.9937 44.6946 60.6814 42.1929C53.3791 37.3698 47.7597 31.232 42.8164 24.0575C46.152 31.803 54.491 45.506 60.9218 51.0578C61.0195 51.2306 60.9744 51.1705 61.1021 51.3132C63.6188 54.0629 69.644 59.4569 73.2801 60.3584C79.5306 61.906 90.4539 53.9802 95.9081 51.133C98.0417 50.0211 100.348 49.0745 102.684 48.4885C104.788 47.9626 106.726 47.9626 108.882 48.0753C105.314 53.0261 96.2311 59.2466 90.9648 62.3868C103.376 62.9803 109.296 57.5337 118.694 50.855C123.998 47.0836 129.444 43.3123 135.071 40.0518C141.758 36.2279 148.414 32.9073 155.648 30.2479C153.83 28.0467 151.667 26.1835 149.338 24.5533Z" fill="#FA5A14"/>
<defs>
<linearGradient id="paint0_linear_40_4034" x1="221.866" y1="77.3556" x2="130.908" y2="50.9328" gradientUnits="userSpaceOnUse">
<stop stop-color="#258CDB"/>
<stop offset="1" stop-color="#36CAF5"/>
</linearGradient>
<linearGradient id="paint1_linear_40_4034" x1="152.339" y1="62.246" x2="37.7343" y2="70.945" gradientUnits="userSpaceOnUse">
<stop stop-color="#FB451C"/>
<stop offset="1" stop-color="#FF941D"/>
</linearGradient>
<linearGradient id="paint2_linear_40_4034" x1="121.167" y1="103.924" x2="121.773" y2="66.4546" gradientUnits="userSpaceOnUse">
<stop stop-color="#FF951B"/>
<stop offset="1" stop-color="#FFCD26"/>
</linearGradient>
<linearGradient id="paint3_linear_40_4034" x1="84.616" y1="12.1222" x2="130.362" y2="64.3273" gradientUnits="userSpaceOnUse">
<stop stop-color="#FFD406"/>
<stop offset="1" stop-color="#FF9010"/>
</linearGradient>
<linearGradient id="paint4_linear_40_4034" x1="188.889" y1="14.591" x2="92.5863" y2="-12.4648" gradientUnits="userSpaceOnUse">
<stop stop-color="#0F2D4B"/>
<stop offset="1" stop-color="#1C65A7"/>
</linearGradient>
</defs>
</svg>
