<svg width="132" height="257" viewBox="0 0 132 257" fill="none" xmlns="http://www.w3.org/2000/svg">
<path fill-rule="evenodd" clip-rule="evenodd" d="M55.4387 148.306C57.3089 148.306 58.8418 149.839 58.8418 151.724C58.8418 153.334 57.7229 154.683 56.2205 155.036L63.1647 208.09H66.3839L73.3894 155.051C71.8564 154.729 70.7067 153.35 70.7067 151.724C70.7067 149.839 72.2244 148.306 74.1098 148.306C75.9954 148.306 77.5129 149.839 77.5129 151.724C77.5129 153.61 75.9954 155.128 74.1098 155.128C74.0485 155.128 74.0025 155.128 73.9413 155.128L66.9204 208.09H70.0016L76.6851 168.694C75.2136 168.327 74.1098 166.992 74.1098 165.399C74.1098 163.513 75.6428 161.995 77.5129 161.995C79.3985 161.995 80.9314 163.513 80.9314 165.399C80.9314 167.284 79.3985 168.801 77.5129 168.801C77.4209 168.801 77.3239 168.796 77.2217 168.786L70.5534 208.09H73.6193L80.3182 182.337C78.9846 181.877 78.0342 180.605 78.0342 179.118C78.0342 177.232 79.5518 175.715 81.4373 175.715C83.3227 175.715 84.8557 177.232 84.8557 179.118C84.8557 181.004 83.3227 182.537 81.4373 182.537C81.238 182.537 81.0387 182.505 80.8547 182.476L74.1865 208.09H75.9187V209.194H74.1252L74.3398 229.52H76.4706V230.609H74.3551L74.5084 244.36C74.3347 244.523 74.1558 244.686 73.972 244.85L73.8186 230.609H70.6454L70.768 248.069C70.5842 248.274 70.4002 248.478 70.2162 248.682L70.1089 230.609H66.9358L66.9818 253.251C66.7978 253.588 66.619 253.93 66.4452 254.277L66.3992 230.609H63.1494L63.1034 256.301C62.9297 255.893 62.7457 255.488 62.5516 255.09L62.6129 230.609H59.4398L59.3018 250.231C59.128 250.026 58.9492 249.822 58.7652 249.618L58.9032 230.609H55.73L55.5614 246.429C55.3774 246.266 55.1935 246.106 55.0096 245.954L55.1935 230.609H53.078V229.52H55.1935L55.4234 209.194H53.63V208.09H55.3621L48.7705 182.46C48.556 182.511 48.3362 182.537 48.1114 182.537C46.2258 182.537 44.6929 181.004 44.6929 179.118C44.6929 177.232 46.2258 175.715 48.1114 175.715C49.9816 175.715 51.5145 177.232 51.5145 179.118C51.5145 180.589 50.5947 181.832 49.2918 182.306L55.9293 208.09H59.0105L52.4036 168.786C52.2809 168.796 52.1532 168.801 52.0203 168.801C50.1349 168.801 48.6172 167.284 48.6172 165.399C48.6172 163.513 50.1349 161.995 52.0203 161.995C53.9058 161.995 55.4387 163.513 55.4387 165.399C55.4387 166.962 54.3811 168.28 52.9401 168.679L59.5471 208.09H62.6282L55.684 155.112C55.6074 155.128 55.5154 155.128 55.4387 155.128C53.5533 155.128 52.0203 153.61 52.0203 151.724C52.0203 149.839 53.5533 148.306 55.4387 148.306ZM59.0411 209.194H55.9753L55.7454 229.52H58.9032L59.0411 209.194ZM70.5075 209.194L70.6454 229.536H73.8033L73.5733 209.194H70.5075ZM66.9051 209.194L66.9358 229.536H70.1089L69.9709 209.194H66.9051ZM63.1647 229.536H66.3992L66.3532 209.194H63.2107L63.1647 229.536ZM62.6589 209.209H59.5931L59.4551 229.536H62.6282L62.6589 209.209Z" fill="url(#paint0_linear_67_177)"/>
<path d="M120.865 130.048C121.877 136.394 121.8 143.247 119.731 149.378C116.235 159.756 109.889 157.885 112.434 148.121C116.419 132.837 122.597 112.741 110.043 99.9104C110.396 106.272 110.288 113.599 107.422 119.44C103.022 128.362 95.8479 127.534 98.1166 116.85C101.765 99.7724 108.632 77.1924 97.2887 61.5413C96.9518 67.6116 96.3843 74.0346 94.2691 79.7831C93.8551 80.8868 89.8235 88.2601 87.892 85.3016C86.2978 82.8489 88.5359 77.6217 89.0724 74.8317C92.2762 58.1995 93.4873 36.2632 80.6413 23.1721C82.6802 32.293 85.2401 49.1858 75.3833 54.8117C75.6593 47.8369 75.4447 39.0378 71.2138 33.1361C64.9135 24.3371 67.826 10.0655 69.5582 0.300781C59.5022 12.3496 57.6627 30.3614 58.7357 45.3535C51.5616 40.77 49.1702 31.7411 49.3082 23.6779C43.3144 32.0323 45.5831 43.0387 47.8826 52.2824C48.2964 53.9533 50.8564 65.7568 46.6715 64.1931C41.8275 62.369 39.942 52.9569 34.6074 49.8296C36.033 56.314 34.1629 61.9858 33.9022 68.424C33.6264 74.9084 36.4316 79.2159 38.3937 84.9797C42.1341 96.0474 24.7353 87.1871 22.4053 80.2276C21.3629 85.0257 21.4549 90.115 22.7425 94.8517C24.8273 102.593 39.0989 110.794 37.6733 117.953C36.6615 123.073 28.8895 124.299 26.1149 120.037C22.8651 115.025 26.4062 104.172 17.9751 102.654C19.0328 109.614 16.7795 114.443 15.3691 121.004C13.361 130.385 18.4809 138.387 19.784 147.262C20.1366 149.7 18.7262 163.787 13.4069 158.775C5.78824 151.601 8.6855 138.003 9.92716 129.051C3.47352 138.555 -0.588699 150.819 1.40412 162.331C4.36272 179.347 21.7768 188.529 26.1916 204.977C29.3188 218.283 33.7336 228.752 44.4948 237.613C47.0088 239.683 49.8447 241.736 52.5887 243.929L53.0486 208.349C53.0486 204.532 47.53 193.848 37.1674 190.583L41.0304 178.488L39.1909 177.982L38.3784 179.607L29.794 177.922C29.7327 176.818 29.9473 175.299 30.2539 174.181C30.5604 173.062 31.1582 171.636 31.7715 170.732L40.0186 173.645L39.9267 175.469L41.8275 175.99L45.2153 165.335L43.2838 164.799L42.4713 166.424L33.8869 164.738C33.8256 163.65 34.0249 162.117 34.3315 160.997C34.638 159.878 35.2359 158.453 35.8644 157.548L44.1115 160.461L44.0042 162.285L46.0124 162.837L49.4155 152.183L47.3767 151.616L46.5642 153.256L37.9798 151.555C37.9186 150.466 38.1178 148.933 38.4244 147.814C38.731 146.696 39.3288 145.269 39.942 144.365L48.2045 147.278L48.0971 149.102L50.2126 149.685L58.1226 124.913C59.027 122.23 61.5717 121.203 63.6871 120.835V120.636C63.9937 120.636 64.3616 120.651 64.7755 120.681C65.174 120.651 65.5573 120.636 65.8639 120.636V120.835C67.9793 121.203 70.524 122.23 71.4284 124.913L79.3384 149.685L81.4538 149.102L81.3464 147.278L89.5936 144.365C90.2222 145.269 90.82 146.696 91.1266 147.814C91.4178 148.933 91.6324 150.466 91.5711 151.555L82.9867 153.256L82.1742 151.616L80.1355 152.183L83.5386 162.837L85.5313 162.285L85.4393 160.461L93.6866 157.548C94.2997 158.453 94.8976 159.878 95.204 160.997C95.511 162.117 95.7249 163.65 95.6639 164.738L87.0797 166.424L86.2671 164.799L84.3357 165.335L87.7235 175.99L89.6242 175.469L89.5324 173.645L97.7797 170.732C98.3926 171.636 98.99 173.062 99.297 174.181C99.604 175.299 99.8179 176.818 99.7414 177.922L91.1573 179.607L90.3601 177.982L88.5206 178.488L92.3835 190.583C82.0209 193.848 76.5024 204.532 76.5024 208.349L76.9469 242.273C76.8346 242.365 76.7221 242.457 76.6097 242.549C79.5222 240.112 82.5422 237.843 85.2401 235.574C90.2682 231.328 94.9742 226.668 98.4691 221.042C102.915 213.883 102.593 205.697 106.318 198.493C111.361 188.743 121.019 181.8 126.737 172.372C135.735 157.564 132.408 142.48 120.865 130.048Z" fill="url(#paint1_linear_67_177)"/>
<path d="M124.911 141.866C124.635 144.947 124.053 147.86 123.148 150.527C121.124 156.521 117.875 159.939 114.226 159.939C112.525 159.939 110.931 159.142 109.857 157.747C108.095 155.463 107.772 151.722 108.953 147.2C109.157 146.414 109.367 145.617 109.581 144.809C112.249 134.738 115.377 122.903 113.138 113.062C112.662 115.806 111.881 118.503 110.64 121.018C108.14 126.108 104.477 129.142 100.829 129.142C98.9125 129.142 97.1802 128.314 95.9544 126.813C94.6356 125.188 93.3326 122.015 94.6049 116.097C94.9882 114.257 95.4169 112.388 95.8624 110.41C98.4525 98.8978 101.304 86.2818 99.2649 75.3827C98.836 77.3142 98.3151 79.1996 97.6401 81.0238C97.6091 81.1005 94.0838 89.5929 88.9944 89.5929C87.3389 89.5929 85.8365 88.7498 84.8708 87.2629C82.786 84.0591 83.9971 79.7669 84.9781 76.3178C85.208 75.4747 85.438 74.6929 85.53 74.1563C88.1207 60.7432 88.2892 49.5528 86.0818 40.6925C85.5913 49.0623 82.602 54.8261 77.1602 57.938L71.5189 61.1571L71.7796 54.6728C72.0402 48.2499 71.8716 40.2479 68.2845 35.2353C65.3413 31.1117 64.1149 26.1604 63.8236 21.0251C61.8155 29.9927 61.8922 39.037 62.3214 45.0921L62.8273 52.2354L56.8029 48.3725C53.6296 46.349 51.0696 43.4825 49.2149 39.9568C49.5521 43.697 50.4258 47.5907 51.3763 51.423C52.388 55.5006 53.7063 62.8127 51.1923 66.0472C50.2418 67.2581 48.8929 67.9327 47.3753 67.9327C46.7315 67.9327 46.0723 67.81 45.4131 67.5494C42.194 66.3538 40.1858 63.4412 38.3616 60.4213C38.2697 61.1673 38.1778 61.9083 38.0858 62.6441C37.8251 64.6676 37.5799 66.5836 37.4879 68.5765C37.3193 72.5467 38.5916 75.6586 40.0479 79.2456C40.6304 80.702 41.2436 82.1889 41.7954 83.8291C42.8685 86.9869 42.7305 89.5316 41.3969 91.4018C40.7378 92.3062 39.2201 93.8084 36.2769 93.8084C33.2111 93.8084 28.9495 91.9689 25.3931 89.271C25.5311 90.85 25.7916 92.3982 26.2056 93.9158C26.8954 96.4758 29.9459 99.7102 32.9045 102.837C37.5492 107.758 42.3627 112.863 41.1976 118.657C40.3085 123.103 36.2309 126.214 31.2796 126.214C27.8765 126.214 24.8105 124.636 23.0936 121.999C21.5454 119.607 21.1622 116.741 20.8403 113.936C20.5796 115.054 20.2884 116.158 19.9972 117.247C19.614 118.687 19.2154 120.19 18.8934 121.754C17.7744 126.936 19.292 131.871 20.9169 137.083C21.8673 140.164 22.8484 143.353 23.3389 146.74C23.6456 148.856 23.1856 157.517 19.9052 161.319C18.7249 162.683 17.1765 163.449 15.521 163.449C13.9267 163.449 12.3785 162.76 10.9376 161.395C7.47309 158.13 5.78689 153.945 5.11237 149.5C4.34597 153.7 4.26927 157.839 4.94379 161.717C6.33873 169.703 11.4127 175.942 16.7934 182.534C21.99 188.896 27.3552 195.472 29.67 204.057L29.6853 204.164C32.5978 216.519 36.6142 226.468 46.7775 234.838C47.5133 235.451 48.2798 236.049 49.0769 236.661L49.4447 208.303C49.4447 206.341 45.1525 196.867 36.0776 194.001L32.6438 192.913L35.8783 182.779L26.3742 180.91L26.2056 178.134C26.0982 176.433 26.4355 174.487 26.7727 173.229C27.1253 171.972 27.8305 170.118 28.7962 168.707L30.3445 166.408L30.3904 166.423L30.2985 164.952C30.1911 163.25 30.5284 161.303 30.8656 160.047C31.2182 158.79 31.9234 156.934 32.8891 155.524L34.4374 153.225L34.4834 153.24L34.3914 151.784C34.2841 150.067 34.606 148.12 34.9585 146.863C35.2958 145.606 36.0163 143.767 36.9667 142.341L38.5303 140.057L48.4024 143.537L54.718 123.747C55.5765 121.202 57.4467 119.27 60.0833 118.151V117.033H63.6856C64.0229 117.033 64.3909 117.047 64.7741 117.078C65.142 117.047 65.5252 117.033 65.8625 117.033H69.4649V118.151C72.1015 119.27 73.9716 121.202 74.8301 123.747L74.8607 123.808L81.1458 143.537L91.0178 140.057L92.5814 142.341C93.5318 143.767 94.2676 145.667 94.5896 146.863C94.9269 148.12 95.2639 150.082 95.1564 151.784L95.0644 153.24L95.111 153.225L96.6593 155.524C97.6246 156.934 98.3295 158.79 98.682 160.047C99.02 161.303 99.3569 163.265 99.2494 164.966L99.1575 166.423L99.1885 166.408L100.752 168.707C101.718 170.118 102.423 171.957 102.761 173.229C103.113 174.487 103.434 176.433 103.342 178.134L103.158 180.91L93.6698 182.779L96.9042 192.913L93.4705 194.001C84.3956 196.867 80.088 206.341 80.088 208.348L80.4407 234.853C81.2991 234.163 82.1269 233.488 82.924 232.83C88.6418 228.001 92.6121 223.663 95.4024 219.14C97.5016 215.768 98.4215 212.012 99.3879 208.027C100.277 204.347 101.212 200.531 103.129 196.836C106.04 191.18 110.317 186.504 114.441 181.967C117.921 178.165 121.186 174.579 123.669 170.5C129.341 161.149 129.709 151.262 124.911 141.866Z" fill="url(#paint2_linear_67_177)"/>
<defs>
<linearGradient id="paint0_linear_67_177" x1="-1.28177" y1="148.312" x2="133.506" y2="148.312" gradientUnits="userSpaceOnUse">
<stop stop-color="#B7854D"/>
<stop offset="0.152" stop-color="#F5D98F"/>
<stop offset="0.303" stop-color="#FFF9B3"/>
<stop offset="0.521" stop-color="#F4D88E"/>
<stop offset="0.642" stop-color="#FEF9B4"/>
<stop offset="0.745" stop-color="#D4AF66"/>
<stop offset="0.848" stop-color="#BD9149"/>
<stop offset="1" stop-color="#B7854D"/>
</linearGradient>
<linearGradient id="paint1_linear_67_177" x1="-1.28005" y1="0.303083" x2="133.506" y2="0.303083" gradientUnits="userSpaceOnUse">
<stop stop-color="#B7854D"/>
<stop offset="0.152" stop-color="#F5D98F"/>
<stop offset="0.303" stop-color="#FFF9B3"/>
<stop offset="0.521" stop-color="#F4D88E"/>
<stop offset="0.642" stop-color="#FEF9B4"/>
<stop offset="0.745" stop-color="#D4AF66"/>
<stop offset="0.848" stop-color="#BD9149"/>
<stop offset="1" stop-color="#B7854D"/>
</linearGradient>
<linearGradient id="paint2_linear_67_177" x1="-36.1902" y1="5.98477" x2="120.712" y2="-21.6813" gradientUnits="userSpaceOnUse">
<stop stop-color="#B7854D"/>
<stop offset="0.152" stop-color="#F5D98F"/>
<stop offset="0.303" stop-color="#FFF9B3"/>
<stop offset="0.521" stop-color="#F4D88E"/>
<stop offset="0.642" stop-color="#FEF9B4"/>
<stop offset="0.843" stop-color="#D4AF66"/>
<stop offset="1" stop-color="#B7854D"/>
</linearGradient>
</defs>
</svg>
