<svg width="257" height="251" viewBox="0 0 257 251" fill="none" xmlns="http://www.w3.org/2000/svg">
<path d="M74.6875 19.2486L49.7441 71.6981C48.8898 73.5774 46.6119 74.3747 44.7895 73.4635C42.9102 72.6093 42.113 70.3883 43.0242 68.509L67.9676 16.0025L61.1907 12.8134L36.2473 65.3199C35.393 67.1422 33.1151 67.9395 31.2928 67.0853C29.4135 66.1741 28.6162 63.9531 29.5274 62.0738L54.4708 9.62428L47.6939 6.43518L22.7505 58.8847C21.8963 60.764 19.6753 61.5613 17.796 60.6501C15.9167 59.7959 15.1194 57.5179 16.0306 55.6956L40.974 3.18912L34.1971 0L7.65918 55.8664L5.15344 61.1057C2.19212 67.3131 1.90737 74.1469 3.90056 80.2404C7.20357 90.548 6.52018 101.653 2.64769 111.676C2.64769 111.676 2.64769 111.695 2.64769 111.733C0.82534 116.517 0.540604 121.756 1.90737 126.71C6.63409 144.307 15.0055 160.424 26.0535 174.262C29.4135 170.674 33.0012 167.201 36.7029 163.955C37.9178 162.929 39.1137 161.923 40.2906 160.936C33.0582 151.654 27.3064 141.232 23.263 129.956C18.4794 116.744 25.0854 101.938 38.1266 96.7554C38.2025 96.7174 38.2784 96.6795 38.3544 96.6415C44.334 94.3066 49.4593 89.8077 52.4206 83.5434L54.8694 78.3041L81.4644 22.4377L74.6875 19.2486Z" fill="#231F20"/>
<path d="M254.934 111.675C251.346 102.221 250.777 91.7998 253.624 82.0046C256.87 70.7858 255.39 55.9222 248.556 41.5143C237.166 17.6529 215.469 4.21306 199.979 11.5594C184.546 18.9058 181.186 44.2478 192.576 68.1092C199.409 82.5172 210.002 93.1096 220.765 97.6085C220.841 97.6465 220.917 97.6844 220.993 97.7224C233.009 102.848 238.875 116.686 234.547 129.044C230.503 140.662 224.581 151.425 217.177 160.935C218.354 161.922 219.55 162.928 220.765 163.953C224.467 167.2 228.054 170.673 231.414 174.261C242.576 160.309 250.948 144.021 255.731 126.197C256.984 121.413 256.756 116.345 254.991 111.732C254.953 111.694 254.934 111.675 254.934 111.675Z" fill="#231F20"/>
<path d="M189.5 186.336C172.017 197.669 151.117 204.275 128.736 204.275C106.355 204.275 85.455 197.669 67.9719 186.336C62.5618 190.265 57.4934 194.707 52.9375 199.605C74.3501 214.753 100.489 223.694 128.736 223.694C156.982 223.694 183.122 214.753 204.534 199.605C199.978 194.707 194.91 190.265 189.5 186.336Z" fill="#231F20"/>
<path d="M50.601 208.715C43.6533 218.51 38.4141 229.615 35.5097 241.631C34.3707 246.073 37.7876 250.344 42.4005 250.344C45.6465 250.344 48.4939 248.123 49.2912 244.934C51.9108 234.342 56.5806 224.603 62.8449 216.061C58.6687 213.821 54.5874 211.372 50.601 208.715Z" fill="#231F20"/>
<path d="M194.625 216.061C200.889 224.603 205.559 234.342 208.179 244.934C208.976 248.123 211.823 250.344 215.07 250.344C219.682 250.344 223.099 246.073 221.96 241.631C219.056 229.615 213.817 218.51 206.869 208.715C202.883 211.372 198.801 213.821 194.625 216.061Z" fill="#231F20"/>
<path d="M173.438 225.176C178.335 231.44 181.98 238.73 183.916 246.702C184.486 248.867 186.422 250.347 188.7 250.347C191.889 250.347 194.224 247.329 193.483 244.197C191.433 235.939 187.845 228.308 183.062 221.531C179.873 222.86 176.665 224.075 173.438 225.176Z" fill="#231F20"/>
<path d="M74.407 221.531C69.6234 228.308 66.0356 235.939 63.9855 244.197C63.2451 247.329 65.58 250.347 68.7692 250.347C71.0471 250.347 72.9833 248.867 73.5528 246.702C75.4891 238.73 79.1338 231.44 84.0313 225.176C80.8043 224.075 77.5961 222.86 74.407 221.531Z" fill="#231F20"/>
<path d="M256.47 238.672C245.365 193.056 210.512 156.723 165.694 143.625L172.357 135.367C173.325 135.652 174.35 135.766 175.375 135.766C181.867 135.766 187.163 130.527 187.163 124.034C187.163 117.542 181.867 112.246 175.375 112.246C168.883 112.246 163.644 117.542 163.644 124.034C163.644 126.483 164.384 128.704 165.637 130.583L156.924 141.404C147.869 139.41 138.416 138.385 128.734 138.385C119.053 138.385 109.6 139.41 100.545 141.404L91.8318 130.583C93.0846 128.704 93.825 126.483 93.825 124.034C93.825 117.542 88.5857 112.246 82.0936 112.246C75.6014 112.246 70.3053 117.542 70.3053 124.034C70.3053 130.527 75.6014 135.766 82.0936 135.766C83.1186 135.766 84.1437 135.652 85.1119 135.367L91.7748 143.625C46.9564 156.723 12.1039 193.056 0.998998 238.672C-0.424713 244.651 4.07422 250.346 10.2247 250.346H10.7372C15.1222 250.346 18.8808 247.328 19.9628 243.057C31.922 194.138 76.1709 157.748 128.734 157.748C181.298 157.748 225.547 194.138 237.506 243.057C238.588 247.328 242.346 250.346 246.732 250.346H247.244C253.394 250.346 257.893 244.651 256.47 238.672Z" fill="#231F20"/>
</svg>
