<svg width="257" height="154" viewBox="0 0 257 154" fill="none" xmlns="http://www.w3.org/2000/svg">
<path d="M65.2264 103.637C74.0859 102.183 101.987 122.547 112.962 128.1C103.838 122.282 84.7967 108.795 84.7967 108.795C95.7719 101.786 129.094 76.53 134.78 77.059C139.805 77.4557 188.995 116.861 208.169 131.142L211.871 126.381L256.301 153.885L212.797 135.241L210.813 142.249L155.012 107.208C153.689 106.414 152.367 107.869 153.16 109.059L158.714 116.464L145.359 107.34C142.846 105.621 139.276 107.604 139.54 110.646L140.069 119.505C140.069 119.505 135.177 111.704 131.078 107.472C130.284 106.547 128.962 106.547 128.036 107.34C124.202 110.91 118.516 117.654 118.516 117.654L121.954 103.77C122.35 101.918 120.367 100.332 118.78 101.257C111.507 105.357 104.367 110.381 97.0942 113.952C97.0942 113.952 122.218 130.084 131.871 139.34C131.871 139.34 108.863 130.084 89.8214 121.092C86.119 119.373 77.9206 116.728 77.9206 116.728L66.9454 124.53C67.2099 122.414 67.0776 118.183 67.3421 115.935C62.9785 117.522 59.0115 121.092 54.6479 122.679L53.1934 119.77L29.7884 136.563L30.3173 131.671L0.300781 153.885C0.300781 153.885 54.5157 105.224 65.2264 103.637Z" fill="#231F20"/>
<path d="M168.369 72.5605H208.699C204.997 57.0894 197.592 43.0729 187.278 31.701H117.063L183.84 27.9985C166.914 10.8084 143.245 0.0976562 117.063 0.0976562C74.2199 0.0976562 38.1207 28.6596 26.7488 67.8001L78.0546 71.6349L25.4265 72.5605C23.8397 79.5687 22.9141 86.7092 22.9141 94.2464C22.9141 103.635 24.3686 112.759 26.881 121.354C42.3521 108.527 59.6744 94.9076 65.2281 93.982C74.0876 92.6596 84.7984 99.2712 84.7984 99.2712C95.7736 92.263 129.096 67.0068 134.782 67.5357C139.674 67.9324 187.542 106.147 207.245 120.957C209.757 112.494 211.212 103.503 211.212 94.2464C211.123 88.6927 210.639 83.2271 209.757 77.8497L168.369 72.5605Z" fill="url(#paint0_radial_40_3505)"/>
<defs>
<radialGradient id="paint0_radial_40_3505" cx="0" cy="0" r="1" gradientUnits="userSpaceOnUse" gradientTransform="translate(107.167 139.491) rotate(-90) scale(153.567 153.567)">
<stop stop-color="#F0A321"/>
<stop offset="1" stop-color="#F0582E"/>
</radialGradient>
</defs>
</svg>
