<svg width="257" height="187" viewBox="0 0 257 187" fill="none" xmlns="http://www.w3.org/2000/svg">
<path d="M220.609 105.147C220.609 113.392 219.528 121.366 217.5 128.935C257.642 87.0363 256.291 8.23918 256.291 8.23918C217.095 6.07665 193.983 31.3512 189.793 36.352C208.715 53.2468 220.609 77.8456 220.609 105.147Z" fill="#5C5259"/>
<path d="M35.9831 105.147C35.9831 77.8455 47.877 53.2468 66.7991 36.352C62.6092 31.3512 39.4972 6.07663 0.3014 8.23916C0.3014 8.23916 -1.05016 87.0362 39.0918 128.935C37.0644 121.366 35.9831 113.392 35.9831 105.147Z" fill="#5C5259"/>
<path d="M209.796 105.147C209.796 150.155 173.304 186.783 128.296 186.783C83.2883 186.783 46.7957 150.155 46.7957 105.147C46.7957 60.1398 83.2883 23.6471 128.296 23.6471C173.304 23.6471 209.796 60.1398 209.796 105.147Z" fill="#5C5259"/>
<path d="M131.54 100.417C131.54 122.448 113.564 140.424 91.533 140.424C69.5022 140.424 51.5262 122.448 51.5262 100.417C51.5262 78.3862 69.5022 60.4101 91.533 60.4101C113.564 60.4101 131.54 78.3862 131.54 100.417Z" fill="white"/>
<path d="M91.5329 123.529C78.828 123.529 68.4209 113.122 68.4209 100.417C68.4209 87.7121 78.828 77.3049 91.5329 77.3049C104.238 77.3049 114.645 87.7121 114.645 100.417C114.645 113.122 104.238 123.529 91.5329 123.529Z" fill="#FBB040"/>
<path d="M79.0985 97.4434C72.3406 97.4434 66.7991 92.0371 66.7991 85.2792C66.7991 78.5213 72.3406 72.9798 79.0985 72.9798C85.8564 72.9798 91.2627 78.5213 91.2627 85.2792C91.2627 92.0371 85.8564 97.4434 79.0985 97.4434Z" fill="white"/>
<path d="M205.066 100.417C205.066 122.448 187.09 140.424 165.059 140.424C142.893 140.424 125.052 122.448 125.052 100.417C125.052 78.3862 142.893 60.4101 165.059 60.4101C187.09 60.4101 205.066 78.3862 205.066 100.417Z" fill="white"/>
<path d="M165.059 123.529C152.354 123.529 141.947 113.122 141.947 100.417C141.947 87.7121 152.354 77.3049 165.059 77.3049C177.764 77.3049 188.036 87.7121 188.036 100.417C188.036 113.122 177.764 123.529 165.059 123.529Z" fill="#FBB040"/>
<path d="M152.489 97.4434C145.731 97.4434 140.325 92.0371 140.325 85.2792C140.325 78.5213 145.731 72.9798 152.489 72.9798C159.247 72.9798 164.788 78.5213 164.788 85.2792C164.788 92.0371 159.247 97.4434 152.489 97.4434Z" fill="white"/>
<path d="M164.924 0.400024L143.704 38.7848L184.252 51.3545L164.924 0.400024Z" fill="#5C5259"/>
<path d="M91.6682 0.400024L112.888 38.7848L72.3406 51.3545L91.6682 0.400024Z" fill="#5C5259"/>
<path d="M110.32 134.882L128.161 152.993L146.002 134.882L128.837 114.609L110.32 134.882Z" fill="white"/>
</svg>
