<svg width="257" height="157" viewBox="0 0 257 157" fill="none" xmlns="http://www.w3.org/2000/svg">
<path d="M183.039 140.445C152.101 140.313 122.757 130.354 91.8192 130.089C60.8814 129.69 29.6781 139.649 6.97266 156.91C28.483 143.499 55.703 135.931 82.7901 136.197C113.728 136.462 143.072 146.421 174.01 146.686C201.097 146.819 228.583 138.985 249.96 125.176C247.659 126.061 245.357 126.902 243.056 127.699C224.732 136.064 203.753 140.578 183.039 140.445Z" fill="#231F20"/>
<path d="M81.9917 103.265C111.071 102.336 137.361 115.614 165.245 121.987C194.988 128.759 227.519 127.697 256.199 118.933C233.892 131.016 206.008 136.726 178.921 134.468C148.116 131.946 119.568 119.73 88.7635 117.074C57.1619 114.419 24.3652 122.385 0.199219 138.717C9.89217 131.946 17.9917 124.112 28.8797 118.535C44.5477 110.568 63.0042 103.929 81.9917 103.265Z" fill="#231F20"/>
<path d="M179.847 121.059C179.582 120.97 179.183 120.881 178.652 120.793C180.246 121.191 180.511 121.324 179.847 121.059Z" fill="#231F20"/>
<path d="M172.548 72.0611C178.524 72.9905 183.702 76.31 188.748 79.4967C208.134 91.8896 227.475 104.238 246.773 116.542C246.773 116.542 201.893 76.4428 176.134 60.5092C172.947 58.6503 169.76 56.6586 166.175 56.5258C160.2 56.1275 155.154 60.642 151.304 65.2893C147.32 69.8038 142.275 75.9117 136.565 77.6378L157.146 100.742L105.362 54.7996C102.308 52.2768 97.926 52.1441 94.8721 54.6669L49.8597 90.9158C40.2995 98.6171 18.9219 117.737 18.9219 117.737C30.341 112.293 43.3534 103.928 54.1086 97.1565C66.8555 89.1897 77.3451 80.2935 90.6231 73.2561C92.482 72.1939 94.4738 71.1316 96.5982 70.866C101.378 70.0694 105.893 72.725 109.876 75.2478C123.818 83.8785 179.851 121.057 179.851 121.057C174.009 113.488 164.316 103.663 160.731 97.4221C157.146 91.447 153.561 84.2768 157.013 78.3017C159.934 73.1233 166.706 71.1316 172.548 72.0611Z" fill="#231F20"/>
<path d="M138.292 27.3164L139.354 30.5031H142.806L140.018 32.6276L141.08 35.8143L138.292 33.8226L135.371 35.8143L136.566 32.6276L133.645 30.5031H137.097L138.292 27.3164Z" fill="#231F20"/>
<path d="M60.0798 29.5742L62.2043 36.0805H68.9761L63.3993 40.0639L65.5238 46.5701L60.0798 42.5867L54.5031 46.5701L56.6276 40.0639L51.1836 36.0805H57.9554L60.0798 29.5742Z" fill="#231F20"/>
<path d="M199.104 42.1875L200.034 45.2415H203.221L200.698 47.1004L201.627 50.1543L199.104 48.2954L196.582 50.1543L197.511 47.1004L194.988 45.2415H198.042L199.104 42.1875Z" fill="#231F20"/>
<path d="M217.027 69.8086L217.823 72.0658H220.213L218.222 73.5264L219.018 75.7837L217.027 74.3231L215.035 75.7837L215.832 73.5264L213.84 72.0658H216.23L217.027 69.8086Z" fill="#231F20"/>
<path d="M98.3253 0.0976562L101.114 8.59557H110.01L102.84 13.774L105.628 22.2719L98.3253 17.0935L91.1552 22.2719L93.9435 13.774L86.6406 8.59557H95.6697L98.3253 0.0976562Z" fill="#231F20"/>
</svg>
