<svg width="256" height="256" viewBox="0 0 256 256" fill="none" xmlns="http://www.w3.org/2000/svg">
<path d="M226.29 129.742C230.932 140.108 235.574 150.475 240.216 160.842C229.54 149.701 218.863 138.561 208.187 127.421C208.187 135.467 208.187 143.59 208.187 151.79C203.777 143.435 195.19 128.117 190.78 119.762C183.353 124.636 188.924 182.194 188.924 182.194C188.924 182.194 137.399 145.524 116.047 130.67C118.136 136.704 122.081 156.896 124.402 162.931C118.136 156.2 112.566 139.489 106.531 132.759C104.21 139.257 81.4654 227.452 80.7692 220.489C75.8953 223.274 35.5114 161.77 9.28516 175.464C28.0845 222.578 74.2707 255.999 128.116 255.999C191.941 255.999 244.858 209.117 254.605 148.077C245.167 141.888 235.729 135.776 226.29 129.742Z" fill="url(#paint0_radial_40_3484)"/>
<path fill-rule="evenodd" clip-rule="evenodd" d="M7.89115 172.212C2.78515 158.518 0 143.432 0 127.882C0 57.0944 57.3265 0 128.114 0C198.902 0 255.996 57.0944 255.996 127.882C255.996 131.75 255.842 135.541 255.532 139.255C241.143 126.876 226.676 114.576 212.131 102.352C208.186 98.8708 203.544 95.3894 198.438 96.0857C195.421 96.3178 192.868 98.1745 190.315 99.7991C173.914 110.785 157.59 121.77 141.344 132.756C141.344 132.756 129.507 123.008 110.475 108.154C106.762 105.369 102.816 102.584 98.4067 102.584C93.5327 102.816 89.5871 106.298 86.1057 109.315C69.6273 123.937 28.3152 155.733 7.89115 172.212ZM49.6675 105.137L8.81943 100.495L50.1316 109.547L30.4039 110.243L48.9712 111.404L8.5874 118.599L50.5958 115.581L31.7965 121.848L50.1316 117.67L13.2292 136.005L52.6847 121.152L36.6704 132.524L52.9167 123.472L22.7449 151.323L39.6875 138.558C57.3264 124.633 74.7334 110.707 84.4812 102.12C86.57 100.263 88.6588 98.4066 90.9797 97.014L119.991 70.0915L86.3379 95.3894L98.6387 80.0714L85.4095 93.3006L106.53 58.0228L81.4639 91.9081L88.8908 73.5729L80.0714 90.0513L90.2835 50.3638L75.6616 89.8193L77.7505 70.0915L73.8049 88.4267L72.6445 47.3466L69.6273 89.3551L66.1459 70.0915L67.5384 88.6588L54.5414 49.6675L63.593 90.7476L54.7734 73.1087L61.5041 90.7476L38.063 56.8623L58.2548 93.7648L44.7935 79.3752L56.1661 94.229L24.3696 68.4669L54.0772 98.1745L37.1346 88.1946L52.2205 99.1029L14.1575 83.3207L51.2921 103.513L32.2607 98.6387L49.6675 105.137Z" fill="url(#paint1_radial_40_3484)"/>
<defs>
<radialGradient id="paint0_radial_40_3484" cx="0" cy="0" r="1" gradientUnits="userSpaceOnUse" gradientTransform="translate(179.849 295.074) rotate(-112.742) scale(155.375 155.375)">
<stop stop-color="#808083"/>
<stop offset="1" stop-color="#414142"/>
</radialGradient>
<radialGradient id="paint1_radial_40_3484" cx="0" cy="0" r="1" gradientUnits="userSpaceOnUse" gradientTransform="translate(201.729 146.626) rotate(-135.428) scale(325.224 325.224)">
<stop stop-color="#F0A321"/>
<stop offset="1" stop-color="#F0582E"/>
</radialGradient>
</defs>
</svg>
