<svg width="257" height="195" viewBox="0 0 257 195" fill="none" xmlns="http://www.w3.org/2000/svg">
<path d="M165.978 131.099C140.268 125.142 115.812 113.541 89.3187 112.444C89.3187 112.444 89.371 112.444 89.4755 112.444C91.3567 111.347 95.1191 80.3068 97.3138 79.9932C102.017 79.2094 106.563 81.8745 110.482 84.3828C124.434 93.0049 180.4 130.159 180.4 130.159C186.357 131.099 184.319 85.3233 189.336 88.6154C208.67 100.948 228.057 113.28 247.496 125.612C247.496 125.612 202.504 85.4801 176.638 69.6467C173.659 67.7655 170.367 65.7275 166.762 65.5708C160.804 65.2572 155.788 69.8034 151.869 74.3497C147.95 78.8959 142.933 85.0098 137.289 86.7343L157.826 109.936L105.936 64.0031C102.957 61.3381 98.568 61.1813 95.4327 63.6896L0.902344 147.716C2.94031 146.149 5.4486 143.954 8.2704 141.603C6.07566 143.641 3.72414 145.678 0.902344 147.716C25.0444 131.569 57.8086 123.418 89.4755 126.239C120.202 128.904 148.733 140.975 179.616 143.484C206.58 145.835 234.485 140.192 256.902 127.964C228.057 136.743 195.607 137.84 165.978 131.099Z" fill="url(#paint0_linear_40_3467)"/>
<path d="M192.785 149.282C191.636 149.282 190.434 149.23 189.18 149.125C174.601 166.213 152.967 177.03 128.825 177.03C97.6281 177.03 70.5075 158.845 57.4959 132.508C51.4342 133.448 45.5294 134.755 39.7812 136.427C54.6741 170.759 89.006 194.744 128.825 194.744C164.097 194.744 194.98 176.089 212.068 148.028C205.693 148.864 199.265 149.282 192.785 149.282Z" fill="url(#paint1_linear_40_3467)"/>
<path d="M49.5042 99.1189C49.5042 98.5964 49.5042 98.0738 49.5042 97.5513C49.5042 53.6566 85.0902 18.0706 128.828 18.0706C168.177 18.0706 200.784 46.4454 207.211 83.7558C213.639 88.9291 220.223 94.1024 226.18 99.1189C226.18 98.5964 226.18 98.0738 226.18 97.5513C226.18 43.7803 182.599 0.199219 128.828 0.199219C75.2139 0.199219 31.6328 43.7803 31.6328 97.5513C31.6328 103.09 32.1031 108.473 33.0437 113.698L49.5042 99.1189Z" fill="#29A9E0"/>
<defs>
<linearGradient id="paint0_linear_40_3467" x1="213.801" y1="27.2617" x2="101.24" y2="219.605" gradientUnits="userSpaceOnUse">
<stop stop-color="#8BC442"/>
<stop offset="1" stop-color="#54833E"/>
</linearGradient>
<linearGradient id="paint1_linear_40_3467" x1="225.677" y1="43.4722" x2="98.469" y2="260.843" gradientUnits="userSpaceOnUse">
<stop stop-color="#8BC442"/>
<stop offset="1" stop-color="#54833E"/>
</linearGradient>
</defs>
</svg>
