<svg width="257" height="178" viewBox="0 0 257 178" fill="none" xmlns="http://www.w3.org/2000/svg">
<path d="M0.902344 138.483C0.902344 138.483 55.2766 89.9872 65.8576 88.2237C74.822 86.9011 102.597 107.328 113.619 112.766C104.507 107.034 85.5499 93.5142 85.5499 93.5142C96.4247 86.4603 129.637 61.3305 135.368 61.7714C140.365 62.2122 189.449 101.45 208.7 115.852L212.374 111.149L256.902 138.483L213.256 119.967L211.346 126.874C211.346 126.874 141.835 83.962 141.982 87.0481L140.659 104.242C140.659 104.242 129.49 91.1629 128.608 92.0447C124.788 95.7186 120.967 84.9906 119.35 86.0193C112.149 89.9872 104.948 95.1308 97.7473 98.6577C97.7473 98.6577 122.877 114.823 132.576 123.934L67.4741 97.629L0.902344 138.483Z" fill="#231F20"/>
<path d="M14.4219 143.045C14.4219 143.045 152.268 139.371 179.014 143.926C205.761 148.335 92.1624 161.267 111.708 168.909C131.253 176.551 177.986 177.139 177.986 177.139C177.986 177.139 118.909 172.436 131.253 166.117C143.451 159.798 213.843 153.479 205.614 143.045C197.531 132.758 14.4219 143.045 14.4219 143.045Z" fill="#29A9E0"/>
<path d="M166.82 32.9703L172.405 19.5972C165.057 13.425 156.533 8.57534 147.422 5.19531L144.336 20.4789C152.566 23.4181 160.207 27.6798 166.82 32.9703Z" fill="#EE4138"/>
<path d="M118.764 0.199219C108.771 0.199219 99.0714 1.96266 90.2539 5.19572L93.1931 20.4793C101.276 17.6871 109.799 16.0706 118.764 16.0706C127.728 16.0706 136.399 17.6871 144.334 20.4793L147.42 5.19572C138.456 1.96266 128.757 0.199219 118.764 0.199219Z" fill="#BD232F"/>
<path d="M183.717 51.9283L190.77 41.2003C185.921 32.9707 179.602 25.7699 172.401 19.5977L166.816 32.9708C173.429 38.4082 179.161 44.7274 183.717 51.9283Z" fill="#F05B2A"/>
<path d="M35.1445 83.8195C35.1445 89.9917 35.8793 96.0171 37.055 101.895C38.8185 100.426 40.582 99.0052 42.3455 97.6336C42.2475 95.968 42.1985 94.3025 42.1985 92.637C42.1985 86.4647 42.9333 80.4396 44.2559 74.7082L36.7611 67.0664C35.6834 72.5528 35.1445 78.1372 35.1445 83.8195Z" fill="#F5EB31"/>
<path d="M190.769 41.1992L183.715 51.9272C187.977 58.8342 191.357 66.476 193.267 74.7056L200.762 67.0638C198.851 57.8055 195.471 49.1349 190.769 41.1992Z" fill="#F9AD42"/>
<path d="M46.7509 41.1992C42.0483 49.1349 38.6683 57.8055 36.7578 67.0638L44.2526 74.7056C46.31 66.476 49.5431 58.8342 53.8049 51.9272L46.7509 41.1992Z" fill="#F9AD42"/>
<path d="M193.266 74.7082C194.588 80.4396 195.323 86.4647 195.323 92.637C195.323 94.9883 195.225 97.2906 195.029 99.544C196.793 100.916 198.458 102.189 200.026 103.365C201.642 97.1927 202.377 90.5796 202.377 83.8195C202.377 78.1372 201.838 72.5528 200.76 67.0664L193.266 74.7082Z" fill="#F5EB31"/>
<path d="M70.7041 32.9708L65.1197 19.5977C57.9188 25.7699 51.5996 32.9707 46.75 41.2003L53.804 51.9283C58.3596 44.7274 64.091 38.4082 70.7041 32.9708Z" fill="#F05B2A"/>
<path d="M93.19 20.4789L90.2508 5.19531C80.9925 8.57534 72.6159 13.425 65.1211 19.5972L70.7055 32.9703C77.3186 27.6798 84.9604 23.4181 93.19 20.4789Z" fill="#EE4138"/>
</svg>
