<svg width="257" height="180" viewBox="0 0 257 180" fill="none" xmlns="http://www.w3.org/2000/svg">
<path d="M173.508 75.1845C180.072 76.2287 185.891 79.9583 191.56 83.5388C213.341 97.4626 235.121 111.386 256.902 125.31C256.902 125.31 206.329 80.1075 177.387 62.2054C173.956 60.1169 170.376 58.0283 166.348 57.7299C159.634 57.4315 153.816 62.5038 149.49 67.5761C145.163 72.7975 139.494 79.66 133.08 81.5994L156.054 107.557L97.872 55.9397C94.59 52.956 89.5177 52.8068 86.0865 55.6413L35.6623 96.3686C24.7718 105.17 0.902344 126.653 0.902344 126.653C13.583 120.387 28.203 111.138 40.2869 103.529C54.6086 94.4292 66.3942 84.5831 81.3126 76.5271C83.5504 75.4828 85.7881 74.2893 88.1751 73.8418C93.3965 73.0959 98.4688 75.9304 102.944 78.7649C124.725 92.3406 192.753 131.874 177.089 142.765C166.497 149.926 132.035 137.991 83.5504 135.902C39.3918 133.963 20.1471 172.154 17.0143 179.315C19.5504 174.69 45.8068 144.108 126.963 153.357C176.94 159.026 191.858 147.39 185.294 135.753C180.52 127.101 165.154 112.48 160.082 103.828C156.203 97.1145 152.175 89.0586 155.905 82.1961C159.187 76.3779 166.795 74.1402 173.508 75.1845Z" fill="#1F76BA"/>
<path d="M56.1016 57.8832C56.1016 63.403 56.6983 68.7736 57.8918 73.8459L86.0876 51.0207C87.2811 50.1256 88.7729 49.3797 90.2647 49.2305H56.9967C56.4994 52.0152 56.201 54.8995 56.1016 57.8832Z" fill="#F9AD42"/>
<path d="M97.874 51.319L127.263 76.382C128.606 77.5755 130.545 77.8738 132.037 77.1279C138.154 73.995 145.762 67.4309 149.492 63.1046C153.818 57.8832 159.636 52.8109 166.349 53.2584C169.184 53.4076 171.869 54.4519 174.405 55.9438C174.207 53.6563 173.908 51.4185 173.51 49.2305H93.3984C95.0395 49.5288 96.5313 50.1256 97.874 51.319Z" fill="#F9AD42"/>
<path d="M115.326 0.296875C93.5448 0.296875 74.4492 11.9332 64.3047 29.3878H166.347C156.053 11.9332 136.957 0.296875 115.326 0.296875Z" fill="#EE4138"/>
<path d="M64.3061 29.3867C60.7257 35.3541 58.1896 42.0674 56.9961 49.2282H90.2641C91.2587 49.0293 92.303 49.0293 93.397 49.2282H173.509C172.315 42.0674 169.779 35.5033 166.348 29.3867H64.3061Z" fill="#F05B2A"/>
</svg>
