<svg width="253" height="257" viewBox="0 0 253 257" fill="none" xmlns="http://www.w3.org/2000/svg">
<path d="M77.7548 256.385L63.6614 248.257L21.9781 224.172C8.48128 216.417 0.800781 202.995 0.800781 187.485V157.359H61.5735C56.8509 157.409 52.004 157.508 47.0328 157.658C103.307 162.082 130.847 167.898 129.654 175.107C127.193 189.2 5.57313 207.32 77.7548 256.385Z" fill="#F5D889"/>
<path d="M252.392 157.359V187.485C252.392 202.995 244.711 216.417 231.214 224.172L205.339 239.16C176.78 240.279 112.502 231.331 119.661 216.492C123.016 209.482 164.103 193.972 165.445 179.506C165.893 175.106 162.686 170.856 153.738 166.904C135.991 160.889 109.843 157.707 75.293 157.359H252.392Z" fill="#F5D889"/>
<path d="M31.2244 91.2947C26.3775 89.5051 21.1578 88.5357 15.6398 88.5357C10.5692 88.5357 5.57312 89.356 0.800781 90.9965C0.800781 75.4864 8.48128 62.1387 21.9781 54.3837L63.6614 30.2983L64.258 30L31.2244 91.2947Z" fill="#F5D889"/>
<path d="M45.8411 100.019C42.5601 97.1111 38.8317 94.5758 34.7305 92.7116L72.1635 32.088L78.5763 21.7231L105.421 6.21296C115.786 0.247538 127.269 -1.16925 138.231 2.11173L94.0865 48.8658L45.8411 100.019Z" fill="#F5D889"/>
<path d="M252.317 88.2383C252.367 89.1828 252.392 90.1522 252.392 91.1464V139.317V140.436L136.737 143.866L59.3359 146.103C60.4545 142.151 60.9764 137.975 60.9764 133.799V133.575L133.158 116.425L252.317 88.2383Z" fill="#F5D889"/>
<path d="M203.624 38.5L231.214 54.3829C239.268 59.0061 245.233 65.6427 248.738 73.5469L131.07 108.817L60.8268 129.846C60.454 125.371 59.41 121.047 57.7695 117.094L120.481 83.2407L203.624 38.5Z" fill="#F5D889"/>
<path d="M149.715 7.33203L189.535 30.2989L190.355 30.8209L116.533 76.3818L56.2074 113.591C54.1941 109.564 51.6588 105.911 48.6016 102.704L99.6805 54.4589L149.715 7.33203Z" fill="#F5D889"/>
<path d="M52.9982 133.8C52.9982 113.219 36.2951 96.5156 15.6398 96.5156C10.3455 96.5156 5.34942 97.6342 0.800781 99.6475V139.318V147.818H50.2392C52.0289 143.493 52.9982 138.796 52.9982 133.8Z" fill="#F5D889"/>
</svg>
