<svg width="257" height="257" viewBox="0 0 257 257" fill="none" xmlns="http://www.w3.org/2000/svg">
<path d="M148.064 238.895C91.8125 227.303 48.4952 184.596 12.6211 182.766C33.1206 226.083 77.17 256.1 128.297 256.1C153.067 256.1 176.251 249.023 195.896 236.821C182.474 241.213 166.611 242.678 148.064 238.895Z" fill="#1F76BB"/>
<path d="M163.924 219.008C94.86 213.883 48.2481 162.756 9.93359 179.351C49.7123 173.982 86.6845 220.838 161.605 231.82C184.911 235.236 214.318 225.841 230.547 206.195C234.696 201.233 238.438 195.986 241.773 190.455C225.544 207.294 200.652 221.692 163.924 219.008Z" fill="#29AAE1"/>
<path d="M128.419 0.101562C57.7686 0.101562 0.296875 57.3292 0.296875 128.101C0.296875 142.622 2.7373 156.654 7.25206 169.71C7.25206 169.71 137.814 82.9536 148.674 77.0966C149.325 76.7712 149.65 76.6085 149.65 76.6085L64.9678 114.313C64.7238 111.791 64.6017 109.229 64.6017 106.626C64.6017 99.1823 65.5779 92.1051 67.4082 85.2719C71.0688 83.1976 73.1432 80.6352 73.6313 80.7572C74.4854 81.1232 81.3185 86.1261 87.2975 82.5875C93.1545 79.0489 93.7647 75.9984 96.6932 76.3644C99.7437 76.6085 102.428 79.903 107.431 79.659C112.434 79.2929 112.434 72.4598 118.779 74.5341C125.002 76.6085 127.93 71.8497 126.1 69.6533C124.392 67.3349 119.023 66.6028 115.728 68.9212C112.434 71.2396 106.821 66.8468 101.818 65.0165C96.6932 63.0642 94.1307 66.8468 89.86 66.9688C85.7113 67.0909 84.6131 68.3111 78.2681 65.6266C77.6173 65.3826 76.8852 65.1792 76.0717 65.0165C89.9821 41.9546 115.118 26.336 144.037 25.9699C173.566 25.4818 199.679 41.1005 214.199 64.6505C212.125 65.0165 210.904 64.5284 208.586 64.4064C205.047 64.4064 202.729 61.1118 198.458 62.6981C194.066 64.4064 189.307 68.1891 186.5 66.1147C183.816 64.0404 179.179 64.7725 177.715 66.7248C176.129 68.6771 178.691 72.7038 184.06 70.8735C189.307 69.1652 189.307 75.0222 193.578 75.2663C197.97 75.5103 200.167 72.7038 202.729 72.4598C205.292 72.2157 205.78 74.7782 210.782 77.7067C214.321 79.903 218.104 78.4388 220.422 77.3406C223.961 86.1261 225.913 95.6437 226.035 105.649C226.035 113.337 225.059 120.78 223.229 127.857L149.65 76.6085L235.309 155.19C228.842 164.951 220.056 173.005 209.318 178.984C198.458 185.085 185.524 189.111 171.004 190.698C159.168 191.918 146.356 191.674 132.567 189.6C122.195 188.013 111.336 185.451 100.11 181.912C94.2527 180.041 88.3144 177.886 82.2947 175.445C78.2681 173.859 74.4854 172.517 70.8248 171.296C27.3854 156.288 8.59426 173.371 8.59426 173.371C19.4541 168.978 40.1976 167.148 77.78 183.254C120.609 201.68 164.781 214.37 203.217 203.144C232.99 194.48 253.856 167.88 255.93 137.009C256.174 134.243 256.296 131.436 256.296 128.589C256.54 58.0614 199.068 0.223583 128.419 0.101562Z" fill="url(#paint0_radial_40_3380)"/>
<defs>
<radialGradient id="paint0_radial_40_3380" cx="0" cy="0" r="1" gradientUnits="userSpaceOnUse" gradientTransform="translate(176.658 41.8851) rotate(118.811) scale(244.109 244.109)">
<stop stop-color="#F1A421"/>
<stop offset="1" stop-color="#F1582E"/>
</radialGradient>
</defs>
</svg>
