<svg width="256" height="257" viewBox="0 0 256 257" fill="none" xmlns="http://www.w3.org/2000/svg">
<path fill-rule="evenodd" clip-rule="evenodd" d="M256 128.727C256 153.045 249.073 175.741 237.283 195.196L186.436 55.1842L172.435 75.0806L158.729 61.0794L121.294 134.917L109.651 112.515L39.2032 220.987C15.0328 197.701 0 164.983 0 128.727C0 124.6 0.19651 120.572 0.589524 116.642C0.884285 112.81 4.12666 109.862 7.95855 110.01C10.1693 110.01 12.0852 110.305 13.4116 110.894C21.5176 113.989 27.8549 113.547 32.2763 110.01C36.6977 106.473 42.2982 109.125 50.4041 110.01C58.6574 110.894 62.342 105.294 69.2688 104.704C76.1957 103.967 84.3017 105.294 90.0495 104.704C95.65 103.967 86.2176 100.725 75.6062 99.251C64.8474 97.6298 55.5625 89.5239 49.2251 90.7029C42.8877 92.0293 32.2763 85.692 25.3494 85.1024C21.8123 84.8077 20.7807 87.0184 16.654 89.0817C12.0852 91.5872 6.77951 87.0184 8.69545 82.1548C27.4128 34.5509 73.6903 0.800781 127.926 0.800781C188.352 0.800781 238.904 42.5095 252.463 98.8088C245.978 101.02 235.661 99.8405 233.451 100.283C224.313 101.609 217.681 110.599 222.102 111.189C226.524 111.926 232.124 108.683 240.967 111.189C247.01 112.957 248.631 115.905 255.263 115.168C255.754 119.589 256 124.109 256 128.727ZM136.18 52.9735C136.18 36.4669 122.768 23.2026 106.261 23.2026C89.7548 23.2026 76.4905 36.4669 76.4905 52.9735C76.4905 69.4801 89.7548 82.7443 106.261 82.7443C122.768 82.7443 136.18 69.4801 136.18 52.9735Z" fill="#231F20"/>
<path d="M106.264 144.203L21.0781 248.696C21.0781 248.696 38.6164 242.801 63.5237 239.264C79.7356 248.843 98.4529 254.886 118.349 256.36V170.437L106.264 144.203Z" fill="#0A437C"/>
<path d="M251.137 233.072L184.668 104.703L169.488 127.105V249.726C193.217 241.62 213.85 226.734 229.03 207.28L251.137 233.072Z" fill="#0E4278"/>
<path d="M157.846 105.734L118.348 170.434V256.357C121.492 256.554 124.685 256.652 127.927 256.652C142.518 256.652 156.519 254.294 169.489 249.725V127.105L157.846 105.734Z" fill="#0E4E8E"/>
</svg>
