<svg width="257" height="187" viewBox="0 0 257 187" fill="none" xmlns="http://www.w3.org/2000/svg">
<path d="M163.815 159.785C242.935 187.539 256.501 144.458 256.501 144.458C225.226 187.746 151.595 133.791 97.4335 117.739C41.6149 101.066 0.8125 140.212 0.8125 140.212C46.6894 131.202 80.2426 153.571 138.34 176.561C176.035 191.37 199.025 187.021 212.799 180.704C198.922 182.775 179.556 180.807 152.838 170.244C100.23 149.532 58.8058 125.196 23.2849 131.409C72.9935 111.215 103.233 138.555 163.815 159.785Z" fill="url(#paint0_linear_40_3285)"/>
<path d="M233.923 100.24L190.221 42.8682C188.668 40.9006 185.768 40.6934 184.007 42.454L153.147 74.7645L128.396 32.8229C127.153 30.6482 123.839 30.6482 122.597 32.9265C113.691 48.0462 88.4221 92.6803 94.9463 94.2337C144.655 106.35 202.441 145.703 238.169 111.01C238.169 111.01 221.91 137.418 185.043 134.208C129.846 129.34 70.9205 77.4571 0.5 135.554L66.2603 26.2987C67.6066 24.1239 70.8169 24.0203 72.0596 26.1951L91.7359 58.6092L124.668 1.6515C125.807 -0.316127 128.707 -0.316127 129.846 1.6515L157.6 51.9814L186.286 17.9103C187.529 16.4605 189.807 16.7712 190.739 18.4281L233.923 100.24Z" fill="url(#paint1_radial_40_3285)"/>
<defs>
<linearGradient id="paint0_linear_40_3285" x1="172.129" y1="169.249" x2="-62.2016" y2="259.433" gradientUnits="userSpaceOnUse">
<stop stop-color="#29A8E0"/>
<stop offset="1" stop-color="#2A3D8F"/>
</linearGradient>
<radialGradient id="paint1_radial_40_3285" cx="0" cy="0" r="1" gradientUnits="userSpaceOnUse" gradientTransform="translate(172.149 -3.66525) rotate(126.545) scale(228.176 228.176)">
<stop stop-color="#8DC63F"/>
<stop offset="1" stop-color="#52853F"/>
</radialGradient>
</defs>
</svg>
